<?xml version="1.0" encoding="UTF-8" standalone="no"?><svg xmlns:dc="http://purl.org/dc/elements/1.1/" xmlns:cc="http://creativecommons.org/ns#" xmlns:rdf="http://www.w3.org/1999/02/22-rdf-syntax-ns#" xmlns="http://www.w3.org/2000/svg" width="48" height="48" viewBox="0 0 12.7 12.7"><metadata><rdf:RDF><cc:Work><dc:format>image/svg+xml</dc:format><dc:type rdf:resource="http://purl.org/dc/dcmitype/StillImage"/><dc:title/></cc:Work></rdf:RDF></metadata><path fill="#963996" d="M6.34.07a6.29 6.29 0 0 0-6.29 6.3 6.29 6.29 0 0 0 6.3 6.28 6.29 6.29 0 0 0 6.28-6.29A6.29 6.29 0 0 0 6.34.07zm-.01.94a5.4 5.4 0 0 1 5.4 5.4 5.4 5.4 0 0 1-5.4 5.41 5.4 5.4 0 0 1-5.41-5.4A5.4 5.4 0 0 1 6.32 1zm-.14 2.4c-.08 0-.13.04-.16.13C5.1 5.08 4.18 6.64 3.24 8.2c-.22.33-.43.75-.85.85-.15-.05-.16.2-.09.24H4c.02-.17-.02-.27-.22-.23-.39.06-.35-.4-.2-.62.17-.35.38-.69.57-1.03H6.1c.06.42.16.84.2 1.27.07.35-.32.39-.57.4-.07-.02-.1.25.02.21h2.02v-.01h.1c.22 0 .45-.06.69-.2.16-.09.35-.23.56-.42 0 .27.07.45.23.55.07.05.19.08.33.08.1 0 .2-.02.3-.06.16-.07.31-.19.47-.37v-.23a1 1 0 0 1-.18.12.46.46 0 0 1-.2.05c-.12 0-.2-.04-.22-.12a1.55 1.55 0 0 1-.04-.38V6.6c0-.4-.05-.7-.16-.89-.2-.32-.57-.49-1.13-.49-.44 0-.8.12-1.07.35-.22.2-.33.4-.33.6 0 .1.03.18.1.27.06.08.15.12.27.12.1 0 .2-.04.28-.11a.36.36 0 0 0 .1-.26 3.34 3.34 0 0 1-.03-.16 2 2 0 0 1 0-.18c0-.13.06-.23.18-.3a.77.77 0 0 1 .43-.12.7.7 0 0 1 .43.13c.15.12.23.31.23.58v.53c-.82.32-1.35.57-1.6.74-.23.16-.39.34-.48.55l-.36-2.15-.4-2.41a.3.3 0 0 0-.08 0zM5.66 4.7l.38 2.29h-1.7l1.32-2.3zM9.1 6.88v1.25a.72.72 0 0 1-.05.31c-.03.06-.12.12-.24.18-.06.04-.15.07-.25.1a.9.9 0 0 1-.29.06.52.52 0 0 1-.4-.2.74.74 0 0 1-.17-.5c0-.2.08-.38.22-.55.22-.24.61-.46 1.18-.65z"/></svg>
