<svg xmlns="http://www.w3.org/2000/svg" width="48" height="48" viewBox="0 0 12.7 12.7"><path fill="#963996" d="M6.344.073a6.29 6.29 0 0 0-6.29 6.29 6.29 6.29 0 0 0 6.29 6.288 6.29 6.29 0 0 0 6.29-6.289 6.29 6.29 0 0 0-6.29-6.29zm-.018.936a5.407 5.407 0 0 1 5.407 5.407 5.407 5.407 0 0 1-5.407 5.407A5.407 5.407 0 0 1 .92 6.416 5.407 5.407 0 0 1 6.326 1.01zM3.04 3.414c-.088 0-.147.042-.167.117L1.9 8.469c-.13.484.894 1.063 1.57.673l1.574-2.29h2.578l1.575 2.29c.675.39 1.698-.189 1.568-.673l-.97-4.938c-.02-.075-.08-.117-.166-.117H3.039zm1.137.573a.143.143 0 0 1 .01 0h.287a.143.143 0 0 1 .143.143v.43h.43a.143.143 0 0 1 .143.143v.286a.143.143 0 0 1-.144.144h-.43v.43a.143.143 0 0 1-.142.142h-.287a.143.143 0 0 1-.143-.143v-.43h-.43a.143.143 0 0 1-.143-.143v-.286a.143.143 0 0 1 .143-.143h.43v-.43a.143.143 0 0 1 .133-.143zm4.142 0a.286.286 0 0 1 .021 0 .286.286 0 0 1 .286.287.286.286 0 0 1-.286.286.286.286 0 0 1-.287-.286.286.286 0 0 1 .266-.287zm-.573.573a.286.286 0 0 1 .02 0 .286.286 0 0 1 .287.286.286.286 0 0 1-.286.287.286.286 0 0 1-.286-.287.286.286 0 0 1 .265-.286zm1.145 0a.286.286 0 0 1 .022 0 .286.286 0 0 1 .286.286.286.286 0 0 1-.286.287.286.286 0 0 1-.287-.287.286.286 0 0 1 .265-.286zm-.572.573a.286.286 0 0 1 .021 0 .286.286 0 0 1 .286.286.286.286 0 0 1-.286.287.286.286 0 0 1-.287-.287.286.286 0 0 1 .266-.286z"/></svg>
