<?xml version="1.0" encoding="UTF-8" standalone="no"?>
<svg
   xmlns:dc="http://purl.org/dc/elements/1.1/"
   xmlns:cc="http://creativecommons.org/ns#"
   xmlns:rdf="http://www.w3.org/1999/02/22-rdf-syntax-ns#"
   xmlns:svg="http://www.w3.org/2000/svg"
   xmlns="http://www.w3.org/2000/svg"
   xmlns:sodipodi="http://sodipodi.sourceforge.net/DTD/sodipodi-0.dtd"
   xmlns:inkscape="http://www.inkscape.org/namespaces/inkscape"
   width="24"
   height="24"
   version="1.1"
   id="svg10"
   sodipodi:docname="battery-missing-symbolic.svg"
   inkscape:version="0.92.3 (2405546, 2018-03-11)">
  <metadata
     id="metadata16">
    <rdf:RDF>
      <cc:Work
         rdf:about="">
        <dc:format>image/svg+xml</dc:format>
        <dc:type
           rdf:resource="http://purl.org/dc/dcmitype/StillImage" />
        <dc:title></dc:title>
      </cc:Work>
    </rdf:RDF>
  </metadata>
  <defs
     id="defs14" />
  <sodipodi:namedview
     pagecolor="#ffffff"
     bordercolor="#666666"
     borderopacity="1"
     objecttolerance="10"
     gridtolerance="10"
     guidetolerance="10"
     inkscape:pageopacity="0"
     inkscape:pageshadow="2"
     inkscape:window-width="1366"
     inkscape:window-height="719"
     id="namedview12"
     showgrid="false"
     showguides="true"
     inkscape:guide-bbox="true"
     inkscape:snap-global="true"
     inkscape:zoom="22.166667"
     inkscape:cx="12"
     inkscape:cy="12"
     inkscape:window-x="0"
     inkscape:window-y="25"
     inkscape:window-maximized="1"
     inkscape:current-layer="svg10" />
  <path
     style="opacity:1;fill:#808080;fill-opacity:1;stroke:none;stroke-width:1.29807615;stroke-miterlimit:4;stroke-dasharray:none;stroke-opacity:1"
     d="M 12.001953 0.078125 C 9.4902092 0.078125 7.46875 0.33017217 7.46875 0.64257812 L 7.46875 2.8027344 C 4.327839 4.6208318 2.1875 8.2683318 2.1875 12.498047 C 2.1875 13.996165 2.4577174 15.42113 2.9433594 16.71875 L 2.9121094 16.720703 L 5.7988281 23.921875 L 17.669922 23.921875 L 17.648438 23.871094 L 18.271484 23.871094 L 21.042969 16.759766 L 21.068359 16.695312 L 21.064453 16.695312 C 21.54467 15.403849 21.8125 13.987319 21.8125 12.498047 C 21.8125 8.2701456 19.675811 4.6235792 16.537109 2.8046875 L 16.537109 0.64257812 C 16.537109 0.3301722 14.513697 0.078125 12.001953 0.078125 z M 12 2.7207031 C 13.88803 2.7207031 14.737345 2.9391576 14.736328 3.1835938 L 14.730469 4.8574219 C 17.089772 6.2805916 19.373047 9.1313834 19.373047 12.439453 C 19.373047 13.604715 19.17347 14.712167 18.8125 15.722656 L 18.814453 15.722656 L 18.796875 15.773438 L 16.712891 21.337891 L 16.244141 21.337891 L 16.259766 21.378906 L 7.3378906 21.378906 L 5.1679688 15.744141 L 5.1914062 15.740234 C 4.8263583 14.72488 4.6230469 13.611639 4.6230469 12.439453 C 4.6230469 9.129964 6.9495829 6.2799701 9.3105469 4.8574219 L 9.2851562 3.2226562 C 9.2813562 2.9782483 10.111969 2.7207031 12 2.7207031 z "
     id="path819" />
  <path
     d="m 11.740144,6.177186 c 2.29989,-0.1287826 4.333816,1.6377788 4.462598,3.936268 0,1.962536 -0.529128,2.690438 -2.231298,3.981061 -0.267364,0.201575 -0.456337,0.349955 -0.52493,0.436743 -0.06997,0.08821 -0.0434,0.0476 -0.0434,0.0448 0.0098,0.7391 -0.660713,1.399811 -1.399813,1.399811 -0.7405,0 -1.409609,-0.660711 -1.399809,-1.399811 0,-0.704105 0.313557,-1.321421 0.655111,-1.749764 a 5.347278,5.347278 0 0 1 1.007863,-0.96307 c 0.284164,-0.223971 0.643917,-0.537528 0.961674,-0.918278 0.130183,-0.156777 0.180574,-0.43114 0.174977,-0.613117 v -0.042 A 1.3830132,1.3830132 0 0 0 11.915119,8.976808 c -0.788091,0.043394 -1.356415,0.6103176 -1.311621,1.39981 H 7.8038755 C 7.6750929,8.0767296 9.4416564,6.3059686 11.740144,6.177186 Z m 0.263163,11.198487 a 1.3998118,1.3998118 0 1 1 0,2.799623 1.3998118,1.3998118 0 0 1 0,-2.799623 z"
     overflow="visible"
     id="path4"
     inkscape:connector-curvature="0"
     style="overflow:visible;stroke-width:1.39981103;fill:#808080" />
</svg>
