<?xml version="1.0" encoding="UTF-8" standalone="no"?>
<!-- Created with Inkscape (http://www.inkscape.org/) -->

<svg
   xmlns:dc="http://purl.org/dc/elements/1.1/"
   xmlns:cc="http://creativecommons.org/ns#"
   xmlns:rdf="http://www.w3.org/1999/02/22-rdf-syntax-ns#"
   xmlns:svg="http://www.w3.org/2000/svg"
   xmlns="http://www.w3.org/2000/svg"
   xmlns:sodipodi="http://sodipodi.sourceforge.net/DTD/sodipodi-0.dtd"
   xmlns:inkscape="http://www.inkscape.org/namespaces/inkscape"
   id="svg2"
   width="24"
   height="24"
   version="1.0"
   sodipodi:docname="transmission-tray-icon-symbolic.svg"
   inkscape:version="0.92.3 (2405546, 2018-03-11)">
  <metadata
     id="metadata17">
    <rdf:RDF>
      <cc:Work
         rdf:about="">
        <dc:format>image/svg+xml</dc:format>
        <dc:type
           rdf:resource="http://purl.org/dc/dcmitype/StillImage" />
        <dc:title></dc:title>
      </cc:Work>
    </rdf:RDF>
  </metadata>
  <defs
     id="defs15" />
  <sodipodi:namedview
     pagecolor="#ffffff"
     bordercolor="#666666"
     borderopacity="1"
     objecttolerance="10"
     gridtolerance="10"
     guidetolerance="10"
     inkscape:pageopacity="0"
     inkscape:pageshadow="2"
     inkscape:window-width="1299"
     inkscape:window-height="704"
     id="namedview13"
     showgrid="false"
     inkscape:zoom="21.958333"
     inkscape:cx="3.2789372"
     inkscape:cy="11.817837"
     inkscape:window-x="67"
     inkscape:window-y="27"
     inkscape:window-maximized="1"
     inkscape:current-layer="svg2" />
  <path
     inkscape:connector-curvature="0"
     style="fill:#808080;fill-opacity:1;stroke-width:0.31686348"
     d="m 7.683976,2.8730455 c -0.7342786,0 -1.3245573,0.5914679 -1.3245573,1.3257355 0,0.7342896 0.5902787,1.3257349 1.3245573,1.3257349 h 3.060387 V 10.29952 h 2.751638 V 5.5245159 h 2.811737 c 0.734276,0 1.325735,-0.5914453 1.325735,-1.3257349 0,-0.7342676 -0.591459,-1.3257355 -1.325735,-1.3257355 z M 10.744363,10.29952 H 6.7954388 c -0.530892,0 -1.0358865,0.419538 -1.1324725,0.941566 l -1.6486256,8.910121 c -0.096598,0.522053 0.2539432,0.942747 0.7848351,0.942747 h 4.8127137 v 0.03299 h 4.7643975 v -0.03299 h 4.825678 c 0.530892,0 0.880241,-0.420694 0.783655,-0.942747 L 18.336997,11.241086 C 18.240415,10.719058 17.735415,10.29952 17.204524,10.29952 h -3.662568 l -0.007,3.887645 2.671504,0.0022 -4.178719,3.428057 -4.0043094,-3.415095 2.7221774,0.0094 z"
     id="path818" />
</svg>
