<svg xmlns="http://www.w3.org/2000/svg" width="24" height="24" version="1"><path d="M12 2.16A9.84 9.84 0 0 0 2.16 12 9.84 9.84 0 0 0 12 21.84 9.84 9.84 0 0 0 21.84 12 9.84 9.84 0 0 0 12 2.16zm-.03 1.46a8.46 8.46 0 0 1 8.46 8.46 8.46 8.46 0 0 1-8.46 8.47 8.46 8.46 0 0 1-8.46-8.47 8.46 8.46 0 0 1 8.46-8.46zM7.25 10.1a1.9 1.9 0 0 0-1.9 1.9 1.9 1.9 0 0 0 1.9 1.9 1.9 1.9 0 0 0 1.9-1.9 1.9 1.9 0 0 0-1.9-1.9zm4.75 0a1.9 1.9 0 0 0-1.9 1.9 1.9 1.9 0 0 0 1.9 1.9 1.9 1.9 0 0 0 1.9-1.9 1.9 1.9 0 0 0-1.9-1.9zm4.75 0a1.9 1.9 0 0 0-1.9 1.9 1.9 1.9 0 0 0 1.9 1.9 1.9 1.9 0 0 0 1.9-1.9 1.9 1.9 0 0 0-1.9-1.9z" fill="teal"/></svg>