<svg xmlns="http://www.w3.org/2000/svg" width="48" height="48" viewBox="0 0 12.7 12.7"><path d="M3.96 5.37l.15.29c0 .24-.01.53-.17.9-.08.39.32.58.62.52a.58.58 0 0 0 .41-.74c-.08-.25-.2-.5-.48-.78l-.14-.15zm.6.8c.07 0 .15.07.2.17.06.13.06.26-.01.3-.07.03-.17-.05-.24-.17-.06-.13-.05-.26.01-.3h.04z" fill="teal" opacity=".75"/><path d="M6.34.07a6.29 6.29 0 0 0-6.29 6.3 6.29 6.29 0 0 0 6.3 6.28 6.29 6.29 0 0 0 6.28-6.29A6.29 6.29 0 0 0 6.34.07zM6.32 1l.01.01a5.4 5.4 0 0 1 5.4 5.4 5.4 5.4 0 0 1-5.4 5.41 5.4 5.4 0 0 1-5.41-5.4A5.4 5.4 0 0 1 6.32 1zm-1.9 1.34A7.72 7.72 0 0 1 3.2 4.66c.14.62.41 1.06.73 1.06.44 0 .8-.85.8-1.9 0-.6-.11-1.13-.3-1.48zm3.82 0c-.18.35-.3.88-.3 1.48 0 1.05.36 1.9.8 1.9.32 0 .6-.44.73-1.06a7.5 7.5 0 0 1-1.23-2.32zM4.17 4.49a.21.33 0 0 1 .2.33.21.33 0 0 1-.2.32.21.33 0 0 1-.21-.32.21.33 0 0 1 .2-.33zm4.33 0a.21.33 0 0 1 .21.33.21.33 0 0 1-.21.32.21.33 0 0 1-.21-.32.21.33 0 0 1 .2-.33zM6.35 7.37c-1.05 0-2.1.52-3.15 1.59-.07.08-.07.08-.07.19 0 .1 0 .27.07.19 2.2-2.2 4.29-1.95 6.3 0 .01.02.02.02.03.02.03-.01 0-.1 0-.18 0-.11.03-.14-.04-.22C8.45 7.9 7.4 7.38 6.35 7.37zm.05 1.05c-.26-.01-.54.04-.83.17-.1.12-.06.25 0 .39.58-.26 1.1-.2 1.6 0a.4.4 0 0 0 0-.4c-.25-.09-.5-.15-.77-.16z" fill="#5beedc"/></svg>
