<?xml version="1.0" encoding="UTF-8" standalone="no"?>
<svg
   xmlns:dc="http://purl.org/dc/elements/1.1/"
   xmlns:cc="http://creativecommons.org/ns#"
   xmlns:rdf="http://www.w3.org/1999/02/22-rdf-syntax-ns#"
   xmlns:svg="http://www.w3.org/2000/svg"
   xmlns="http://www.w3.org/2000/svg"
   xmlns:sodipodi="http://sodipodi.sourceforge.net/DTD/sodipodi-0.dtd"
   xmlns:inkscape="http://www.inkscape.org/namespaces/inkscape"
   width="48"
   height="48"
   version="1.1"
   id="svg4"
   sodipodi:docname="application-x-skg.svg"
   inkscape:version="0.92.4 (5da689c313, 2019-01-14)">
  <metadata
     id="metadata10">
    <rdf:RDF>
      <cc:Work
         rdf:about="">
        <dc:format>image/svg+xml</dc:format>
        <dc:type
           rdf:resource="http://purl.org/dc/dcmitype/StillImage" />
        <dc:title></dc:title>
      </cc:Work>
    </rdf:RDF>
  </metadata>
  <defs
     id="defs8" />
  <sodipodi:namedview
     pagecolor="#ffffff"
     bordercolor="#666666"
     borderopacity="1"
     objecttolerance="10"
     gridtolerance="10"
     guidetolerance="10"
     inkscape:pageopacity="0"
     inkscape:pageshadow="2"
     inkscape:window-width="1138"
     inkscape:window-height="480"
     id="namedview6"
     showgrid="false"
     inkscape:zoom="4.9166667"
     inkscape:cx="2.1355932"
     inkscape:cy="24"
     inkscape:window-x="0"
     inkscape:window-y="25"
     inkscape:window-maximized="0"
     inkscape:current-layer="svg4" />
  <path
     d="m 29.705,-0.084 c -2.047,0.008 -4.121,0.088 -4.517,0.098 H 7 a 2.938,2.938 0 0 0 -0.563,0 C 5.064,0.276 3.975,1.612 4,3.012 V 45 c 0,1.57 1.43,3 3,3 h 34 c 1.57,0 3,-1.43 3,-3 V 18.818 C 44.018,18.026 44.215,8.891 43.664,8.322 l -9.61,-8.074 c -0.281,-0.275 -2.302,-0.34 -4.349,-0.332 z m 1.49,3.094 0.133,7.504 c 0.012,0.68 0.638,1.29 1.317,1.279 l 7.771,-0.137 c 0.133,0.018 0.268,0.018 0.4,-0.006 L 40.898,14.68 41,18.77 V 44.996 H 7 V 3.021 h 18.672 z m -4.2,12.232 a 12.76,12.76 0 0 0 -11.823,7.97 H 12.64 l -1.596,3.192 h 3.305 a 12.816,12.816 0 0 0 -0.118,1.592 l -1.587,3.195 h 2.015 a 12.76,12.76 0 0 0 12.336,9.567 12.757,12.757 0 0 0 9.96,-4.785 h -4.68 a 9.544,9.544 0 0 1 -5.28,1.595 9.569,9.569 0 0 1 -9.012,-6.377 H 28.59 l 1.596,-3.187 H 17.422 c 0,-0.534 0.05,-1.068 0.144,-1.596 H 30.18 l 1.595,-3.193 H 18.717 a 9.572,9.572 0 0 1 8.277,-4.781 c 1.878,0 3.712,0.558 5.277,1.595 h 4.666 a 12.757,12.757 0 0 0 -9.943,-4.787 z"
     id="path2"
     inkscape:connector-curvature="0"
     style="fill:#2c89a0" />
</svg>
