<svg xmlns="http://www.w3.org/2000/svg" width="48" height="48" viewBox="0 0 12.7 12.7"><path fill="#963996" d="M6.35.061a6.29 6.29 0 0 0-6.289 6.29 6.29 6.29 0 0 0 6.29 6.288 6.29 6.29 0 0 0 6.288-6.288A6.29 6.29 0 0 0 6.351.06zm-.018.936a5.407 5.407 0 0 1 5.407 5.407 5.407 5.407 0 0 1-5.407 5.407A5.407 5.407 0 0 1 .925 6.404 5.407 5.407 0 0 1 6.332.997zm-.006.756c-2.104 0-3.81 1.235-3.81 3.685s2.023 5.84 3.81 5.84c1.682 0 3.81-3.39 3.81-5.84 0-2.45-1.706-3.685-3.81-3.685zm2.345 4.763c.158-.005.316.008.471.041a1.935 1.935 0 0 1-2.297 2.297A1.935 1.935 0 0 1 8.67 6.516zm-4.69.033c.473.017.941.203 1.302.559.481.474.656 1.136.525 1.747-.62.13-1.29-.044-1.772-.518A1.89 1.89 0 0 1 3.51 6.59c.155-.033.313-.046.47-.04z"/></svg>
