<svg xmlns="http://www.w3.org/2000/svg" width="48" height="48" viewBox="0 0 12.7 12.7"><path fill="#963996" d="M6.344.073a6.29 6.29 0 0 0-6.29 6.29 6.29 6.29 0 0 0 6.29 6.288 6.29 6.29 0 0 0 6.29-6.289 6.29 6.29 0 0 0-6.29-6.29zm-.018.936a5.407 5.407 0 0 1 5.407 5.407 5.407 5.407 0 0 1-5.407 5.407A5.407 5.407 0 0 1 .92 6.416 5.407 5.407 0 0 1 6.326 1.01zm2.348.81c-.091-.015-.27.162-.415.324-.33.367-.647.775-1.006 1.295-.24.348-.328.455-.402.84a2.604 2.604 0 0 0-.207-.042v.001a2.144 2.144 0 0 0-.912.144c-.432-.668-1.06-1.316-1.82-1.908-.083-.064-.145-.095-.19-.098H3.72c-.32-.024.176 1.268.328 1.6.128.279.452.777.737 1.193-.064.14-.113.297-.139.473-.094.654.035 1.189-.12 1.845-.208.89-.954 1.337-.775 2.195.003.02.002.038.006.06.037.18.133.377.276.6a.731.731 0 0 0 .081.101c.118.132.285.236.483.316a2.948 2.948 0 0 0 .598.17h.047c.547.1 1.132.122 1.472.152.08.008.163.01.245.01.255-.005.513-.05.755-.13h.001l.035-.014a2.47 2.47 0 0 0 .27-.11 1.94 1.94 0 0 0 .696-.546c.148-.193.246-.416.272-.663a1.51 1.51 0 0 0-.14-.831c-.442-.972-.903-2.152-.763-3.345a.921.921 0 0 0-.107-.478 1.058 1.058 0 0 0-.15-.19c.373-.74.633-1.694.844-2.485.09-.341.073-.468.002-.48zM5.498 5.665c.1 0 .206.041.315.135.173.148.42.571.418.8-.005.589-.37.751-.808.882-.437.131-.486-.796-.469-1.128.018-.334.247-.69.544-.689zm1.791.273a.549.549 0 0 1 .14.003c.15.022.32.09.39.164.15.156.19.472.208.64.006.048.006.106.005.167a.263.263 0 0 0-.216-.195.263.263 0 0 0-.298.223.263.263 0 0 0 .223.297.263.263 0 0 0 .282-.165c-.01.113-.024.236-.045.371-.044.29-.873.016-1.032-.134-.16-.15-.237-.268-.197-.54.03-.21.377-.813.54-.831zm-1.607.022a.263.263 0 0 0-.252.225.263.263 0 0 0 .222.298.263.263 0 0 0 .298-.222.263.263 0 0 0-.223-.298.263.263 0 0 0-.045-.003zm2.426 2.005c.21.11.324.298.271.665-.048.335-.636.753-.855 1.19a3.04 3.04 0 0 1 .03-.392c.057-.4.308-1.082.554-1.463zm-3.429.161c.25.444.436.847.593 1.303.074.217.078.447.053.684.026-.56-.964-.812-.851-1.589a.68.68 0 0 1 .205-.398z"/></svg>
