<svg xmlns="http://www.w3.org/2000/svg" width="48" height="48" viewBox="0 0 12.7 12.7"><path fill="#963996" d="M6.344.073a6.29 6.29 0 0 0-6.29 6.29 6.29 6.29 0 0 0 6.29 6.288 6.29 6.29 0 0 0 6.29-6.289 6.29 6.29 0 0 0-6.29-6.29zm-.27.945v.322h-.82a.267.267 0 0 0-.267.268v.38c0 .148.119.268.267.268h.82v.252c0 .006-.003.01-.003.016v.38c0 .006.003.01.003.016v.236h-.82a.267.267 0 0 0-.267.269v.38c0 .148.119.268.267.268h.82v.222l-.003.015v.38c0 .006.003.01.003.016v.267h-.82a.267.267 0 0 0-.267.269v.38c0 .148.119.268.267.268h.82v1.009a1.049 1.049 0 0 0-.794 1.018v2.143c0 .585.47 1.056 1.055 1.056s1.056-.47 1.056-1.056V7.917c0-.476-.315-.871-.747-1.003v-.08h.802c.148 0 .267-.12.267-.268v-.38a.267.267 0 0 0-.267-.269h-.802V4.96h.798c.149 0 .269-.12.269-.268v-.38a.267.267 0 0 0-.269-.268h-.798v-.871h.798c.149 0 .269-.12.269-.268v-.38a.268.268 0 0 0-.269-.268h-.798v-1.23a5.407 5.407 0 0 1 5.09 5.39 5.407 5.407 0 0 1-5.408 5.407A5.407 5.407 0 0 1 .92 6.416a5.407 5.407 0 0 1 5.155-5.398zm.27 6.406c.29 0 .526.21.526.526a.545.545 0 0 1-.527.527.545.545 0 0 1-.526-.527c0-.316.236-.526.526-.526zm0 1.58c.29 0 .526.21.526.527v.526a.545.545 0 0 1-.527.527.545.545 0 0 1-.526-.527v-.526c0-.316.236-.527.526-.527z"/></svg>
