<svg xmlns="http://www.w3.org/2000/svg" width="48" height="48" viewBox="0 0 12.7 12.7"><path fill="#963996" d="M6.344.073a6.29 6.29 0 0 0-6.29 6.29 6.29 6.29 0 0 0 6.29 6.288 6.29 6.29 0 0 0 6.29-6.289 6.29 6.29 0 0 0-6.29-6.29zm-.018.936a5.407 5.407 0 0 1 5.407 5.407 5.407 5.407 0 0 1-5.407 5.407A5.407 5.407 0 0 1 .92 6.416 5.407 5.407 0 0 1 6.326 1.01zm.027.8c-.318 0-.644.045-.965.13-2.056.54-3.272 2.6-2.721 4.612l.629-.157a3.077 3.077 0 0 1-.116-.817c0-1.736 1.43-3.137 3.203-3.137S9.6 3.84 9.6 5.577c0 .283-.044.556-.116.817l.63.157a3.678 3.678 0 0 0 0-1.948c-.466-1.698-2.045-2.81-3.76-2.794zm.805 4.785v.003c-.029-.005-.056.014-.073.028-.017.015-.022.028-.03.044-.015.031-.02.07-.029.114-.017.09-.034.21-.043.358-.02.297-.034.692-.044 1.089-.01.397-.02.793-.044 1.088a2.876 2.876 0 0 1-.044.359c-.002.01-.012.01-.015.014a1.664 1.664 0 0 1-.044-.272c-.02-.233-.02-.544-.029-.86a14.918 14.918 0 0 0-.044-.874 1.891 1.891 0 0 0-.043-.3.35.35 0 0 0-.044-.1c-.019-.03-.042-.058-.089-.058a.17.17 0 0 0-.102.043c-.022.021-.031.044-.043.072-.025.055-.034.12-.045.2a5.94 5.94 0 0 0-.043.573c-.008.206-.01.41-.03.559a.732.732 0 0 1-.043.171.13.13 0 0 1-.015.03c-.003 0-.01-.011-.015-.015a.216.216 0 0 1-.029-.072 1.657 1.657 0 0 1-.03-.272c-.005-.103-.003-.212-.028-.301a.25.25 0 0 0-.059-.114.208.208 0 0 0-.146-.058c-.063.005-.105.051-.131.1a.562.562 0 0 0-.06.173c-.022.133-.023.306-.029.472-.006.166-.01.328-.029.444-.008.052-.032.09-.044.115-.004-.01-.01-.014-.014-.029a1.547 1.547 0 0 1-.045-.258 12.971 12.971 0 0 1-.043-.816c-.01-.3-.009-.603-.03-.831a1.868 1.868 0 0 0-.043-.287c-.01-.036-.027-.058-.044-.086-.017-.027-.042-.071-.088-.071a.135.135 0 0 0-.102.057c-.017.026-.02.052-.03.086a1.58 1.58 0 0 0-.044.258c-.021.206-.032.476-.043.745-.012.269-.022.533-.044.73-.011.098-.029.18-.045.23-.009-.026-.036-.056-.043-.101-.018-.113-.02-.258-.03-.416-.009-.158-.018-.318-.043-.443a.59.59 0 0 0-.058-.172c-.027-.046-.07-.087-.132-.087a.136.136 0 0 0-.103.058.263.263 0 0 0-.044.086c-.02.07-.035.163-.043.271-.017.217-.01.505-.015.789-.005.283-.02.565-.044.774a1.2 1.2 0 0 1-.044.242c-.007.02-.009.033-.014.044-.008-.013-.022-.028-.03-.058a1.417 1.417 0 0 1-.029-.171h.03l-.044-.144V9.72c-.023-.267-.038-.62-.044-.974-.006-.364-.012-.728-.03-1.003-.008-.138-.011-.258-.03-.344-.008-.042-.027-.069-.043-.1-.008-.016-.013-.03-.029-.043a.12.12 0 0 0-.073-.029c-.05 0-.073.042-.088.072-.016.03-.02.06-.03.1-.017.08-.035.187-.043.315-.008.123-.01.294-.015.444L3.545 6.84l-.79.215a.773.773 0 0 0-.556.96l.41 1.519a.8.8 0 0 0 .98.558c.23-.037.381-.095.614-.157.01.051.017.116.03.157.012.044.022.083.044.115.021.032.068.073.117.072.04 0 .079-.03.102-.057.023-.028.03-.065.044-.101a1.21 1.21 0 0 0 .058-.273c.025-.219.024-.503.03-.787.004-.284.013-.565.03-.774.007-.104.013-.19.028-.243A.34.34 0 0 1 4.701 8c.001 0 .001-.009.014.014.014.023.018.074.03.129.021.11.034.258.043.415.01.157.024.32.045.445.01.062.021.11.043.157.011.023.024.053.044.071a.11.11 0 0 0 .073.03c.043 0 .084-.032.103-.058a.28.28 0 0 0 .043-.086 1.48 1.48 0 0 0 .044-.258c.024-.205.033-.462.045-.73.01-.27.023-.547.044-.745.008-.08.017-.136.028-.187.013.058.036.137.044.23.02.22.034.517.044.816.01.3.02.602.044.831.012.115.023.212.044.286.01.037.025.059.044.086.018.029.043.07.088.072.063.004.12-.052.146-.1.025-.047.034-.107.044-.173.021-.13.037-.292.044-.457.006-.166.009-.327.029-.445.01-.059.015-.103.029-.129.014-.026.027-.028.03-.028.016 0 .02.002.028.013.01.01.021.026.03.058.019.064.024.17.03.272.005.103.007.211.029.3.01.045.03.08.058.115.029.035.08.058.132.058.035 0 .066-.007.087-.03.022-.021.033-.058.045-.086a.82.82 0 0 0 .043-.2c.021-.16.036-.367.044-.573.008-.205.008-.41.03-.558a.582.582 0 0 1 .043-.158c.003.01.01.016.014.029.017.061.034.155.045.272.02.233.02.543.03.86.007.315.021.632.043.872.01.12.023.225.044.302.01.038.025.072.044.1a.124.124 0 0 0 .102.058c.027 0 .042-.015.058-.03.017-.013.036-.026.045-.042a.443.443 0 0 0 .044-.115c.021-.094.03-.221.043-.372.025-.302.034-.706.044-1.103.01-.397.026-.797.044-1.089.007-.11.005-.184.015-.258.014.088.034.193.044.33.022.32.046.75.058 1.175.012.425.022.855.043 1.174.011.16.027.29.045.387.009.048.014.081.029.114.007.017.015.042.03.057.014.016.041.03.072.03a.118.118 0 0 0 .088-.058.318.318 0 0 0 .044-.086c.02-.067.032-.155.044-.258.023-.205.03-.477.043-.744.013-.268.022-.534.044-.732.011-.098.03-.177.045-.229.008.025.022.044.029.086.018.112.02.271.029.43.01.16.018.318.043.445a.582.582 0 0 0 .059.171.178.178 0 0 0 .147.086c.035 0 .064-.021.087-.043.024-.021.032-.044.044-.071a.74.74 0 0 0 .059-.202c.023-.16.022-.367.029-.572.007-.206.025-.41.044-.56.01-.073.015-.136.03-.171.002.004.01.004.014.014.015.048.034.135.043.23.02.19.024.44.03.702.006.26.007.53.029.73.008.077.027.131.044.186l-.103.387.776.2a.801.801 0 0 0 .98-.558l.41-1.519a.773.773 0 0 0-.557-.96l-.79-.214-.13.487c-.006-.014-.007-.03-.015-.043-.023-.032-.055-.058-.103-.058-.043 0-.083.03-.103.058a.248.248 0 0 0-.043.085 1.619 1.619 0 0 0-.044.287c-.02.223-.024.51-.03.802 0 .053.002.091 0 .143l-.146.545c-.01-.171-.024-.355-.029-.558a9.501 9.501 0 0 0-.044-.717c-.01-.1-.021-.192-.043-.258a.26.26 0 0 0-.045-.086.106.106 0 0 0-.087-.043c-.036 0-.081.007-.103.029-.021.022-.033.058-.044.086a.812.812 0 0 0-.044.2c-.02.16-.022.368-.029.574a5.46 5.46 0 0 1-.044.558c-.01.074-.013.123-.029.157-.006.014-.026.012-.03.015a.47.47 0 0 1-.043-.129 3.484 3.484 0 0 1-.044-.43 4.201 4.201 0 0 0-.044-.43.644.644 0 0 0-.044-.171.156.156 0 0 0-.043-.058.142.142 0 0 0-.088-.028c-.043 0-.071.031-.088.057-.017.025-.02.053-.03.086-.019.066-.032.155-.043.258-.023.205-.046.478-.059.745-.013.267-.022.533-.044.73a1.533 1.533 0 0 1-.029.172 3.321 3.321 0 0 1-.044-.357c-.021-.315-.031-.735-.043-1.16-.012-.426-.022-.85-.045-1.176a3.807 3.807 0 0 0-.044-.401c-.009-.05-.014-.094-.028-.129-.008-.017-.017-.027-.03-.043a.128.128 0 0 0-.073-.043z"/></svg>
