<svg xmlns="http://www.w3.org/2000/svg" width="48" height="48" viewBox="0 0 12.7 12.7"><defs><linearGradient id="a"><stop offset="0" stop-color="#fff"/><stop offset="1" stop-color="#7cafec"/></linearGradient><linearGradient id="b"><stop stop-color="#2579b0"/><stop offset="1" stop-color="#7cbfec"/></linearGradient><linearGradient id="c"><stop offset="0" stop-color="#2e3436"/><stop offset="1" stop-color="#555753"/></linearGradient><linearGradient id="d"><stop offset="0" stop-color="#1064d3"/><stop offset="1" stop-color="#14c6fd"/></linearGradient></defs><path d="M6.34.07a6.29 6.29 0 0 0-6.29 6.3 6.29 6.29 0 0 0 6.3 6.28 6.29 6.29 0 0 0 6.28-6.29A6.29 6.29 0 0 0 6.34.07zm-.01.94a5.4 5.4 0 0 1 5.4 5.4 5.4 5.4 0 0 1-5.4 5.41 5.4 5.4 0 0 1-5.41-5.4A5.4 5.4 0 0 1 6.32 1zM4.3 4.3V8.4h1.85v-.93h-.92V5.24h.92V4.3H4.32zm2.23 0v.93h.92v2.22h-.92v.93H8.38V4.3H6.55z" fill="#963996"/><path d="M6.35 1.65a4.7 4.7 0 0 0-4.7 4.7 4.7 4.7 0 0 0 4.7 4.7 4.7 4.7 0 0 0 4.7-4.7 4.7 4.7 0 0 0-4.7-4.7zm-.01.88a3.86 3.86 0 0 1 3.86 3.86 3.86 3.86 0 0 1-3.86 3.86 3.86 3.86 0 0 1-3.86-3.86 3.86 3.86 0 0 1 3.86-3.86z" fill="red" opacity=".75"/></svg>
