<svg xmlns="http://www.w3.org/2000/svg" width="48" height="48" viewBox="0 0 12.7 12.7"><path d="M6.34.07a6.29 6.29 0 0 0-6.29 6.3 6.29 6.29 0 0 0 6.3 6.28 6.29 6.29 0 0 0 6.28-6.29A6.29 6.29 0 0 0 6.34.07zM6.32 1l.01.01a5.4 5.4 0 0 1 5.4 5.4 5.4 5.4 0 0 1-5.4 5.41 5.4 5.4 0 0 1-5.41-5.4A5.4 5.4 0 0 1 6.32 1z" fill="#963996"/><path d="M9.079 7.78L6.473 9.262 3.85 7.779V4.921l2.623-1.484L9.08 4.921" fill="none" stroke="#963996" stroke-width=".905"/><path d="M7.92 7.164l-1.447.814-1.538-.868V5.59l1.538-.868 1.448.814" fill="none" stroke="#963996" stroke-width=".543"/></svg>
