<svg xmlns="http://www.w3.org/2000/svg" width="48" height="48" version="1"><defs><linearGradient id="a"><stop offset="0" stop-color="#040000"/><stop offset="1" stop-opacity="0"/></linearGradient></defs><path d="M24 .23A23.77 23.77 0 0 0 .23 24.01 23.77 23.77 0 0 0 24 47.77 23.77 23.77 0 0 0 47.77 24 23.77 23.77 0 0 0 24 .23zm-.07 3.54a20.44 20.44 0 0 1 20.44 20.44 20.44 20.44 0 0 1-20.44 20.43A20.44 20.44 0 0 1 3.5 24.21 20.44 20.44 0 0 1 23.93 3.77zm0 3A17.44 17.44 0 0 0 6.5 24.22a17.44 17.44 0 0 0 17.43 17.44A17.44 17.44 0 0 0 41.37 24.2 17.44 17.44 0 0 0 23.93 6.77zm-8.72 6.6h.41c1.5 0 2.77.75 3.85 2.26v-2.2l.07-.07h.49l.07.07v4.61c0 1.8-.86 3.18-2.59 4.16-.65.33-1.34.5-2.06.5h-.07c-1.6 0-2.92-.75-3.95-2.24a4.47 4.47 0 0 1-.66-2.24v-.42c0-1.4.67-2.6 2.02-3.64.81-.53 1.62-.8 2.42-.8zm10.02.06l.04.03v.74c-.97.69-1.55 1.31-1.74 1.86h4.5l.07.07v.62l-.08.07h-4.86c-.13.49-.2.92-.2 1.3v.28c0 1.43.68 2.69 2.03 3.76l-.37.53c-.63-.26-1.24-.92-1.82-1.98-.4-.85-.6-1.66-.6-2.43.02-.47.09-.95.2-1.46h-1.06l-.08-.07v-.62l.08-.07h1.3a5.92 5.92 0 0 1 2.59-2.63zm-9.81.56c-1.65 0-2.89.82-3.7 2.44-.22.47-.32 1-.32 1.58v.1c0 1.54.8 2.75 2.38 3.6.55.23 1.1.35 1.67.35 1.63 0 2.88-.84 3.74-2.51.18-.58.28-1.1.28-1.58 0-1.51-.76-2.7-2.27-3.6a4.36 4.36 0 0 0-1.68-.38h-.1zM10.38 24.5h19.75c.15 0 .28.13.28.29 0 .15-.13.28-.28.28H10.38a.28.28 0 0 1-.29-.28c0-.16.13-.29.29-.29z" fill="#963996"/></svg>
