<svg xmlns="http://www.w3.org/2000/svg" width="48" height="48" viewBox="0 0 12.7 12.7"><path d="M6.34.34A6.03 6.03 0 0 0 .32 6.36a6.03 6.03 0 0 0 6.03 6.03 6.03 6.03 0 0 0 6.02-6.03A6.03 6.03 0 0 0 6.34.34zm-.02.88l.01.02A5.18 5.18 0 0 1 11.5 6.4a5.18 5.18 0 0 1-5.18 5.18A5.18 5.18 0 0 1 1.14 6.4a5.18 5.18 0 0 1 5.18-5.18zm-.16.83a.85.85 0 0 0-.85.86.85.85 0 0 0 .85.85c.24 0 .46-.1.62-.26.1.11.19.25.28.42a7.98 7.98 0 0 0-3.33 2.15l-.3-.36c-.2-.29-.33-.56-.38-.78-.05-.23-.03-.41.05-.55.09-.14.23-.25.45-.32.23-.07.53-.1.87-.06.27.03.57.09.88.18l.25-.43c-.38-.12-.74-.2-1.08-.23-.4-.04-.75-.02-1.06.08-.3.1-.57.27-.72.54-.16.26-.18.58-.1.9.06.3.22.63.45.95l.39.47c-.2.3-.36.6-.43.9a.85.85 0 0 0-.43 1.21.85.85 0 0 0 1.17.32.85.85 0 0 0 .31-1.17.85.85 0 0 0-.53-.4c.05-.16.14-.33.26-.51a7.87 7.87 0 0 0 3.57 1.86c-.06.2-.13.38-.2.54a2.3 2.3 0 0 1-.49.72c-.17.16-.33.23-.5.23-.16 0-.33-.07-.5-.23-.17-.16-.34-.4-.48-.72-.12-.25-.21-.53-.29-.85h-.5c.09.39.2.74.35 1.05.16.36.36.66.6.88.23.22.51.36.82.36.3 0 .6-.14.83-.36.24-.22.43-.52.6-.88.09-.2.17-.43.24-.67.38.04.72.02 1.02-.07l.11.07a.85.85 0 0 0 1.17-.3.85.85 0 0 0-.32-1.17.85.85 0 0 0-1.16.3.85.85 0 0 0-.08.67c-.18.04-.39.04-.62.03a7.97 7.97 0 0 0-.23-4.03 4.48 4.48 0 0 1 .56-.1c.34-.03.64 0 .87.06.22.07.36.18.45.32.08.14.1.32.05.55-.05.23-.18.5-.39.78-.15.22-.35.45-.6.67l.26.43c.3-.26.54-.54.74-.82.23-.32.39-.64.46-.95.07-.32.05-.64-.1-.9a1.23 1.23 0 0 0-.73-.54c-.3-.1-.67-.12-1.06-.08a5 5 0 0 0-.7.12c-.15-.3-.32-.55-.53-.74a.85.85 0 0 0-.84-.99zm0 .52a.34.34 0 0 1 .34.3.7.7 0 0 1-.05.22.34.34 0 0 1-.29.16.34.34 0 0 1-.34-.34c0-.2.15-.34.34-.34zm1.1 1.8a7.5 7.5 0 0 1 .21 3.84 7.36 7.36 0 0 1-3.4-1.78 7.46 7.46 0 0 1 3.18-2.05zm-.91 1.36a.6.62 0 0 0-.6.62.6.62 0 0 0 .6.62.6.62 0 0 0 .6-.62.6.62 0 0 0-.6-.62zm3.03 1.93c.06 0 .12.02.18.05.16.1.22.3.12.47a.34.34 0 0 1-.43.14.68.68 0 0 1-.17-.16.34.34 0 0 1 .3-.5zm-6.05.15a.34.34 0 0 1 .15.63.34.34 0 0 1-.37-.57.73.73 0 0 1 .22-.06z" fill="#963996"/></svg>
