<svg xmlns="http://www.w3.org/2000/svg" width="48" height="48" viewBox="0 0 12.7 12.7"><path fill="#963996" d="M6.344.073a6.29 6.29 0 0 0-6.29 6.29 6.29 6.29 0 0 0 6.29 6.288 6.29 6.29 0 0 0 6.29-6.289 6.29 6.29 0 0 0-6.29-6.29zm-.018.936a5.407 5.407 0 0 1 5.407 5.407 5.407 5.407 0 0 1-5.407 5.407A5.407 5.407 0 0 1 .92 6.416 5.407 5.407 0 0 1 6.326 1.01zm2.951 1.376c-1.252 0-1.699 1.466-1.991 2.423H5.829c.146-.56.367-1.992 1.05-1.992.3 0 .146.56.625.56a.347.347 0 0 0 .359-.341c0-.365-.513-.536-.822-.536-1.228 0-1.638 1.352-1.93 2.31h-.855l-.11.22h.903L4 8.69c-.081.333-.333 1.356-.682 1.356-.05 0-.106-.049-.106-.113v-.007c0-.122.113-.211.113-.341 0-.146-.186-.236-.325-.236-.268 0-.398.187-.398.39 0 .268.228.577.69.577.887 0 1.342-1.21 1.53-1.892l.95-3.393 1.46-.003-1.053 3.664c-.081.333-.333 1.355-.683 1.355-.048 0-.106-.048-.106-.113v-.007c0-.122.115-.211.115-.341 0-.146-.188-.235-.326-.235-.268 0-.398.186-.398.389 0 .268.227.577.69.577.887 0 1.342-1.21 1.53-1.892l.95-3.396h.824l.11-.221h-.882c.147-.56.428-2.107 1.111-2.107.3 0 .146.56.626.56a.347.347 0 0 0 .358-.34c0-.366-.512-.537-.821-.537z"/></svg>
