<svg xmlns="http://www.w3.org/2000/svg" width="48" height="48" viewBox="0 0 12.7 12.7"><path fill="#963996" d="M6.344.073a6.29 6.29 0 0 0-6.29 6.29 6.29 6.29 0 0 0 6.29 6.288 6.29 6.29 0 0 0 6.29-6.289 6.29 6.29 0 0 0-6.29-6.29zm-.018.936a5.407 5.407 0 0 1 5.407 5.407 5.407 5.407 0 0 1-5.407 5.407A5.407 5.407 0 0 1 .92 6.416 5.407 5.407 0 0 1 6.326 1.01zm3.812 1.953c-.069-.011-.13.028-.168.073a.492.492 0 0 0-.086.169c-.039.12-.182.565-.699 1.006-.516.44-1.406 1.096-2.95 1.135-.939.012-1.587-.472-1.96-1.213-.094-.185-.23-.529-.23-.31v.34L4.04 5.915l.021.298c-.089.251.114.472-.407.863.133.713-.343 1.001-.43 1.007.255.256.59.544.99.778.796.47 1.817.839 2.809.856.992.018 1.962-.329 2.604-1.29.642-.96.955-2.794.699-5.182a.49.49 0 0 0-.05-.17c-.025-.05-.068-.1-.138-.11v-.003zM5.17 5.382c.25 0 .501.08.692.245.05.042.095.09.134.144a.883.883 0 0 1 .135-.144c.191-.165.442-.244.692-.244.25 0 .5.08.692.244a.938.938 0 0 1 .318.73.938.938 0 0 1-.318.732 1.062 1.062 0 0 1-.692.244c-.25 0-.501-.08-.692-.244a.892.892 0 0 1-.135-.144.884.884 0 0 1-.134.144 1.062 1.062 0 0 1-.692.244c-.25 0-.5-.08-.692-.244a.938.938 0 0 1-.318-.731c0-.318.127-.567.318-.731.191-.165.442-.244.692-.244zM2.153 5.6a.86.86 0 0 0-.522.16c-.43.307-.541 1.003-.01 1.731.53.728 1.231.84 1.661.534.43-.307.543-1.002.012-1.73-.348-.478-.77-.691-1.14-.694zm2.995.342a.51.51 0 0 0-.34.125.49.49 0 0 0-.157.372.49.49 0 0 0 .157.373.51.51 0 0 0 .34.124.51.51 0 0 0 .34-.124.49.49 0 0 0 .157-.373.49.49 0 0 0-.157-.372.51.51 0 0 0-.34-.125zm1.789 0a.51.51 0 0 0-.34.125.49.49 0 0 0-.157.372.49.49 0 0 0 .158.373.51.51 0 0 0 .339.124.51.51 0 0 0 .34-.124.49.49 0 0 0 .157-.373.49.49 0 0 0-.157-.372.51.51 0 0 0-.34-.125zm.895 1.79s.331.135.503.355c.171.22-.06.356-.106.638-.1-.247-.162-.34-.187-.439-.182.25-.494.43-.915.439-.447.01-1.017-.164-1.68-.397.425 0 .813.02 1.166 0 .585-.036 1.1-.1 1.36-.3-.11-.142-.141-.296-.141-.296z"/></svg>
