<svg xmlns="http://www.w3.org/2000/svg" width="48" height="48" viewBox="0 0 12.7 12.7"><path fill="#963996" d="M6.34.07a6.29 6.29 0 0 0-6.29 6.3 6.29 6.29 0 0 0 6.3 6.28 6.29 6.29 0 0 0 6.28-6.29A6.29 6.29 0 0 0 6.34.07zm-.01.94a5.4 5.4 0 0 1 5.4 5.4 5.4 5.4 0 0 1-5.4 5.41 5.4 5.4 0 0 1-5.41-5.4A5.4 5.4 0 0 1 6.32 1zm-.84.54a.47.47 0 0 0-.25.9l.2.1c.27.14.44.4.44.7v.64H4.02a.47.47 0 0 0-.47.57l.49 2.29c.05.22.24.38.46.38h1.38v3.55a.47.47 0 1 0 .95 0V7.13H8.2a.47.47 0 0 0 .46-.38l.49-2.29a.47.47 0 0 0-.46-.57H6.83v-.64c0-.65-.37-1.25-.95-1.54l-.21-.1a.48.48 0 0 0-.18-.06zM4.6 4.84h1.28v1.34h-1L4.6 4.84zm2.22 0H8.1L7.8 6.18h-.99V4.84z"/></svg>
