<svg xmlns="http://www.w3.org/2000/svg" width="48" height="48" viewBox="0 0 12.7 12.7"><path fill="#963996" d="M6.344.073a6.29 6.29 0 0 0-6.29 6.29 6.29 6.29 0 0 0 6.29 6.288 6.29 6.29 0 0 0 6.29-6.289 6.29 6.29 0 0 0-6.29-6.29zm-.018.936a5.407 5.407 0 0 1 5.407 5.407 5.407 5.407 0 0 1-5.407 5.407A5.407 5.407 0 0 1 .92 6.416 5.407 5.407 0 0 1 6.326 1.01zm.059 1.189c-.352-.017-.697.247-.743.606a.933.933 0 0 0-.012.156c.17 1.667.366 3.324.511 4.998h.464c.12-1.608.315-3.206.455-4.811.072-.38-.124-.832-.525-.924a.648.648 0 0 0-.15-.025zm-.05 6.772a.69.69 0 0 0-.468.176.757.757 0 0 0-.288.594c-.018.496.528.885.994.728.452-.116.69-.683.459-1.087a.778.778 0 0 0-.698-.411z"/></svg>
