<svg xmlns="http://www.w3.org/2000/svg" width="48" height="48" viewBox="0 0 12.7 12.7"><path fill="#963996" d="M6.344.073a6.29 6.29 0 0 0-6.29 6.29 6.29 6.29 0 0 0 6.29 6.288 6.29 6.29 0 0 0 6.29-6.289 6.29 6.29 0 0 0-6.29-6.29zm-.018.936a5.407 5.407 0 0 1 5.407 5.407 5.407 5.407 0 0 1-5.407 5.407A5.407 5.407 0 0 1 .92 6.416 5.407 5.407 0 0 1 6.326 1.01zm0 .473c-.352 0-.705.169-.976.51l-3.464 4.37c-.01.012-.017.024-.025.036l-.015.02-.011.016c-.012.019-.02.039-.029.058-.008.016-.017.032-.024.049-.011.027-.019.056-.027.085l-.012.045-.002.007a.71.71 0 0 0 .01.299l.012.036a.7.7 0 0 0 .052.127l.01.023h.003c.123.211.349.355.611.355h1.776a.355.355 0 1 1 0 .71.355.355 0 1 0 0 .71h1.42a.355.355 0 0 1 0 .71.71.71 0 1 0 0 1.42H7.41a.355.355 0 1 0 0-.71.355.355 0 1 1 0-.71h1.066a.355.355 0 1 0 0-.71.355.355 0 1 1 0-.71h1.42a1.065 1.065 0 0 0 1.046-1.26c-.002-.01-.003-.021-.006-.031a1.065 1.065 0 0 0-.07-.211l-.02-.047c-.012-.023-.028-.044-.041-.065-.013-.022-.025-.044-.04-.065l-.014-.023-3.436-4.515c-.27-.353-.629-.53-.989-.53zm-.024.417c.067 0 .133.035.184.099L7.882 3.74l.596.745c.185.232-.12.296-.229.316-.373.07-.599-.736-.975-.753-.515-.023-.993.937-1.383.909-.353-.026-.321-.945-.63-.906-.238.03-.067.7-.376.805-.124.034-1.066-.09-.738-.405l.045-.057c.158-.2.37-.45.533-.654L6.12 1.998a.242.242 0 0 1 .182-.1zm-.667 5.619H6.7a.355.355 0 1 1 0 .71H5.635a.355.355 0 1 1 0-.71zm4.261 1.42a.355.355 0 0 0-.355.355.355.355 0 0 0 .355.356.355.355 0 0 0 .355-.356.355.355 0 0 0-.355-.355zm-5.681.888a.178.178 0 0 0-.178.178.178.178 0 0 0 .178.177.178.178 0 0 0 .177-.177.178.178 0 0 0-.177-.178zm4.971 0a.178.178 0 0 0-.178.178.178.178 0 0 0 .178.177.178.178 0 0 0 .178-.177.178.178 0 0 0-.178-.178z"/></svg>
