<svg xmlns="http://www.w3.org/2000/svg" width="48" height="48" viewBox="0 0 12.7 12.7"><path fill="#963996" d="M6.344.073a6.29 6.29 0 0 0-6.29 6.29 6.29 6.29 0 0 0 6.29 6.288 6.29 6.29 0 0 0 6.29-6.289 6.29 6.29 0 0 0-6.29-6.29zm-.018.936a5.407 5.407 0 0 1 5.407 5.407 5.407 5.407 0 0 1-5.407 5.407A5.407 5.407 0 0 1 .92 6.416 5.407 5.407 0 0 1 6.326 1.01zm-.797.975c-.454 0-2.828 2.605-2.828 2.86v4.813h7.298l-.011-4.79c-.001-.27-2.34-2.883-2.77-2.883h-1.69zm3.22 2.382l.595 1.247L7.864 7.6H7.79l2.05 1.9-2.343-1.9-2.04.006-2.62 1.92 2.209-1.833-2.233-2.81-.002-.005.002.004 1.482 1.605-.564-.687L8.75 4.366z"/></svg>
