<svg xmlns="http://www.w3.org/2000/svg" width="48" height="48" viewBox="0 0 12.7 12.7"><path d="M6.34.07a6.29 6.29 0 0 0-6.29 6.3 6.29 6.29 0 0 0 6.3 6.28 6.29 6.29 0 0 0 6.28-6.29A6.29 6.29 0 0 0 6.34.07zM6.32 1l.01.01a5.4 5.4 0 0 1 5.4 5.4 5.4 5.4 0 0 1-5.4 5.41 5.4 5.4 0 0 1-5.41-5.4A5.4 5.4 0 0 1 6.32 1zm.03 1.249a1.058 1.058 0 0 0-1.058 1.058A1.058 1.058 0 0 0 6.35 4.366a1.058 1.058 0 0 0 1.058-1.059A1.058 1.058 0 0 0 6.35 2.25zM2.91 6.218a1.058 1.058 0 0 0-1.058 1.058A1.058 1.058 0 0 0 2.91 8.334 1.058 1.058 0 0 0 3.97 7.276 1.058 1.058 0 0 0 2.91 6.218z" fill="#963996"/><path d="M6.35 6.218a1.058 1.058 0 0 0-1.058 1.058A1.058 1.058 0 0 0 6.35 8.334a1.058 1.058 0 0 0 1.058-1.058A1.058 1.058 0 0 0 6.35 6.218zm3.44 0A1.058 1.058 0 0 0 8.73 7.276 1.058 1.058 0 0 0 9.79 8.334a1.058 1.058 0 0 0 1.058-1.058A1.058 1.058 0 0 0 9.79 6.218z" fill="#963996" opacity=".5"/></svg>
