<svg xmlns="http://www.w3.org/2000/svg" width="48" height="48" viewBox="0 0 12.7 12.7"><path d="M6.34.07a6.29 6.29 0 0 0-6.29 6.3 6.29 6.29 0 0 0 6.3 6.28 6.29 6.29 0 0 0 6.28-6.29A6.29 6.29 0 0 0 6.34.07zM6.32 1l.01.01a5.4 5.4 0 0 1 5.4 5.4 5.4 5.4 0 0 1-5.4 5.41 5.4 5.4 0 0 1-5.41-5.4A5.4 5.4 0 0 1 6.32 1zM3.53 2.43a.4.4 0 0 0-.4.4v.57h.53a.37.37 0 1 1 0 .74h-.53v.55h.53a.37.37 0 1 1 0 .74h-.53v.55h.53a.37.37 0 1 1 0 .74h-.53v.55h.53a.37.37 0 1 1 0 .74h-.53v.55h.53a.37.37 0 1 1 0 .74h-.53v.74c0 .22.19.4.4.4h5.63a.4.4 0 0 0 .4-.4V2.83a.4.4 0 0 0-.4-.4H3.53zm1.06.56h2.59l1 .01h.46c.18 0 .33.16.33.35v6.19c0 .19-.15.34-.33.34H4.59V2.99zm-1.75.48a.3.3 0 1 0 0 .6h.8a.3.3 0 1 0 0-.6h-.8zm2.71.5a.2.2 0 0 0-.2.2v1.18c0 .12.09.2.2.2h2.51c.11 0 .2-.08.2-.2V4.17a.2.2 0 0 0-.2-.2h-2.5zm-2.7.8a.3.3 0 1 0 0 .6h.79a.3.3 0 1 0 0-.6h-.8zm0 1.27a.3.3 0 1 0 0 .6h.79a.3.3 0 1 0 0-.6h-.8zm0 1.3a.3.3 0 1 0 0 .6h.79a.3.3 0 1 0 0-.6h-.8zm-.02 1.28a.3.3 0 1 0 0 .6h.8a.3.3 0 1 0 0-.6h-.8z" fill="#963996"/></svg>
