<svg xmlns="http://www.w3.org/2000/svg" width="48" height="48" viewBox="0 0 12.7 12.7"><path d="M6.35.083A6.267 6.267 0 0 0 .084 6.35a6.267 6.267 0 0 0 6.268 6.267 6.267 6.267 0 0 0 6.266-6.267A6.267 6.267 0 0 0 6.351.083zm-.017.932a5.388 5.388 0 0 1 5.388 5.39 5.388 5.388 0 0 1-.382 1.977v-.59h-.529v1.605a5.388 5.388 0 0 1-.529.663V7.791h-.53v2.772a5.388 5.388 0 0 1-.528.387V7.79h-.53v3.452a5.388 5.388 0 0 1-.529.223V5.733h-.529v5.894a5.388 5.388 0 0 1-.529.104v-3.94h-.53v3.992a5.388 5.388 0 0 1-.243.009 5.388 5.388 0 0 1-.285-.014V7.79h-.53v3.932a5.388 5.388 0 0 1-.529-.108V7.791H4.46v3.658a5.388 5.388 0 0 1-.529-.228V7.79h-.53v3.129a5.388 5.388 0 0 1-.528-.386V5.733h-.53v4.285a5.388 5.388 0 0 1-.529-.68V7.791h-.529v.49a5.388 5.388 0 0 1-.341-1.877 5.388 5.388 0 0 1 5.389-5.389z" fill="#963996"/></svg>
