<svg xmlns="http://www.w3.org/2000/svg" width="48" height="48" viewBox="0 0 12.7 12.7"><path d="M6.34.07a6.29 6.29 0 0 0-6.29 6.3 6.29 6.29 0 0 0 6.3 6.28 6.29 6.29 0 0 0 6.28-6.29A6.29 6.29 0 0 0 6.34.07zm-.25.95v10.8a5.4 5.4 0 0 1-5.17-5.4 5.4 5.4 0 0 1 5.17-5.4zm.6 0a5.4 5.4 0 0 1 5.04 5.4 5.4 5.4 0 0 1-5.05 5.4V1.01z" fill="#963996"/><path d="M3.16 2.65v.46H5.4v-.46H3.16zm4.17 0v.46h2.25v-.46H7.33zM2.46 4.23v.47H5.4v-.47H2.46zm4.87 0v.47h2.94v-.47H7.33zM1.84 5.82v.47H5.4v-.47H1.84zm5.5 0v.47h3.55v-.47H7.33z" fill="purple" opacity=".75"/></svg>
