<svg xmlns="http://www.w3.org/2000/svg" width="48" height="48" viewBox="0 0 12.7 12.7"><path fill="#963996" d="M6.344.073a6.29 6.29 0 0 0-6.29 6.29 6.29 6.29 0 0 0 6.29 6.288 6.29 6.29 0 0 0 6.29-6.289 6.29 6.29 0 0 0-6.29-6.29zm-.018.936a5.407 5.407 0 0 1 5.407 5.407 5.407 5.407 0 0 1-5.407 5.407A5.407 5.407 0 0 1 .92 6.416 5.407 5.407 0 0 1 6.326 1.01zm-4.05 2.172v6.338h8.149V3.181h-8.15zm.905.906h2.716v.905H3.18v-.905zm3.622 0h2.716v.905H6.803v-.905zM3.18 5.897h2.716v.906H3.18v-.906zm3.622 0h2.716v.906H6.803v-.906zM3.18 7.708h2.716v.905H3.18v-.905zm3.622 0h2.716v.905H6.803v-.905z"/></svg>
