<svg xmlns="http://www.w3.org/2000/svg" width="48" height="48" viewBox="0 0 12.7 12.7"><path fill="#963996" d="M6.344.073a6.29 6.29 0 0 0-6.29 6.29 6.29 6.29 0 0 0 6.29 6.288 6.29 6.29 0 0 0 6.29-6.289 6.29 6.29 0 0 0-6.29-6.29zm-.018.936a5.407 5.407 0 0 1 5.407 5.407 5.407 5.407 0 0 1-5.407 5.407A5.407 5.407 0 0 1 .92 6.416 5.407 5.407 0 0 1 6.326 1.01zm.023 1.554L2.46 4.917 2.464 6.4 2.46 9.523l1.297.614 1.365-.614V8.09L3.894 7.066V5.838l2.455-1.637 2.253 1.637v1.228L7.578 8.09v1.433l1.365.614 1.297-.614V5.019L6.35 2.563z"/></svg>
