<?xml version="1.0" encoding="UTF-8" standalone="no"?><svg xmlns:dc="http://purl.org/dc/elements/1.1/" xmlns:cc="http://creativecommons.org/ns#" xmlns:rdf="http://www.w3.org/1999/02/22-rdf-syntax-ns#" xmlns="http://www.w3.org/2000/svg" width="48" height="48" viewBox="0 0 12.7 12.7"><metadata><rdf:RDF><cc:Work><dc:format>image/svg+xml</dc:format><dc:type rdf:resource="http://purl.org/dc/dcmitype/StillImage"/><dc:title/></cc:Work></rdf:RDF></metadata><path d="M6.34.07a6.29 6.29 0 0 0-6.28 6.3 6.29 6.29 0 0 0 6.28 6.28 6.29 6.29 0 0 0 6.3-6.29A6.29 6.29 0 0 0 6.33.07zm-.01.94a5.4 5.4 0 0 1 5.4 5.4 5.4 5.4 0 0 1-5.4 5.41 5.4 5.4 0 0 1-5.41-5.4A5.4 5.4 0 0 1 6.32 1zm0 1.38c-1.18 0-2.28.04-2.53.09-.16.03-.29.1-.4.2a.7.7 0 0 0-.2.3c-.07.15-.1.29-.13.5-.04.4-.05.6-.04 1.22 0 .52 0 .58.03.92.03.3.06.43.14.6.08.2.2.32.37.4.12.06.21.08.41.1.24.04.68.05 1.48.07v3.94c0 .26.29.48.65.48h.44c.37 0 .67-.22.67-.48V6.84L7.2 6.8c.62-.01 1.21-.03 1.49-.06.16-.01.26-.04.36-.08a.9.9 0 0 0 .3-.22c.09-.11.17-.31.2-.53.03-.08.05-.31.07-.57.02-.22.02-1.25 0-1.47a2.97 2.97 0 0 0-.12-.8.83.83 0 0 0-.64-.58c-.25-.05-1.35-.09-2.53-.09zm1.42.97h1.16c.05 0 .09.03.12.08.04.06.04.13.03.2-.01.05-.03.09-.06.12s-.06.04-.1.04l-.34-.04v1.78c0 .09-.02.16-.06.22a.2.2 0 0 1-.17.08.2.2 0 0 1-.16-.08.34.34 0 0 1-.07-.22V3.76l-.35.04c-.03 0-.06-.01-.1-.04a.2.2 0 0 1-.05-.11v-.01a.28.28 0 0 1 .03-.2c.03-.05.07-.08.12-.08zm-3.67.01c.08 0 .16.02.22.07.07.04.11.1.13.17l.32.98.3-.98a.33.33 0 0 1 .14-.17.4.4 0 0 1 .22-.07h.01c.1 0 .19.03.26.1.06.06.1.13.1.21v1.87a.3.3 0 0 1-.05.2.2.2 0 0 1-.17.08c-.06 0-.1-.03-.15-.08a.31.31 0 0 1-.05-.2l.02-1.73-.32 1.04a.27.27 0 0 1-.12.15.35.35 0 0 1-.2.06.33.33 0 0 1-.19-.06.29.29 0 0 1-.11-.15l-.33-1.04.03 1.73a.3.3 0 0 1-.06.2c-.04.05-.08.08-.14.08H3.9c-.06 0-.1-.03-.14-.09a.31.31 0 0 1-.06-.19l.01-1.82.02-.11c.01-.06.03-.11.08-.15.07-.07.15-.1.26-.1zm2.71 0h.05a.3.3 0 0 1 .2.1c.06.05.1.13.13.22l.48 1.73c.03.1.02.18-.03.27-.04.08-.1.12-.18.12h-.03a.18.18 0 0 1-.13-.06.23.23 0 0 1-.08-.14l-.08-.49h-.57l-.07.48a.23.23 0 0 1-.23.21h-.03c-.08 0-.14-.04-.18-.12A.35.35 0 0 1 6 5.42l.45-1.72c.03-.1.07-.18.14-.24a.3.3 0 0 1 .2-.09zm.03.51l-.24.88h.49l-.25-.88z" fill="#963996" fill-opacity=".99"/></svg>
