<svg xmlns="http://www.w3.org/2000/svg" width="48" height="48" viewBox="0 0 12.7 12.7"><path fill="#963996" d="M6.34.07a6.29 6.29 0 0 0-6.29 6.3 6.29 6.29 0 0 0 6.3 6.28 6.29 6.29 0 0 0 6.28-6.29A6.29 6.29 0 0 0 6.34.07zm-.01.94a5.4 5.4 0 0 1 5.4 5.4 5.4 5.4 0 0 1-5.4 5.41 5.4 5.4 0 0 1-5.41-5.4A5.4 5.4 0 0 1 6.32 1z"/><path d="M6.34 6.37V1.38a4.97 4.97 0 0 1 4.93 4.99" opacity=".6" fill="#4a0"/><path d="M6.34 6.37h4.93a4.92 4.92 0 0 1-4.93 4.93" opacity=".6" fill="#ff0"/><path d="M6.34 6.37V1.38A4.97 4.97 0 0 0 1.4 6.37" opacity=".6" fill="red"/><path d="M6.34 6.37H1.4a4.92 4.92 0 0 0 4.92 4.93" opacity=".6" fill="#06f"/></svg>
