<svg xmlns="http://www.w3.org/2000/svg" width="48" height="48" viewBox="0 0 12.7 12.7"><path fill="#963996" d="M6.344.073a6.29 6.29 0 0 0-6.29 6.29 6.29 6.29 0 0 0 6.29 6.288 6.29 6.29 0 0 0 6.29-6.289 6.29 6.29 0 0 0-6.29-6.29zm-.018.936a5.407 5.407 0 0 1 5.407 5.407 5.407 5.407 0 0 1-5.407 5.407A5.407 5.407 0 0 1 .92 6.416 5.407 5.407 0 0 1 6.326 1.01zm.023 1.008a.722.722 0 0 0-.721.722v.648a2.532 2.532 0 0 0-1.805 2.422v.905c0 .556-.152 1.102-.438 1.579l-.62 1.034a.18.18 0 0 0-.002.181.18.18 0 0 0 .156.092h6.862a.18.18 0 0 0 .154-.273l-.62-1.034a3.071 3.071 0 0 1-.438-1.58V5.81c0-1.143-.762-2.11-1.805-2.422v-.648a.723.723 0 0 0-.723-.722zM5.213 9.96c.203.426.634.723 1.136.723.503 0 .935-.297 1.138-.723H5.213z"/></svg>
