<svg xmlns="http://www.w3.org/2000/svg" width="48" height="48" viewBox="0 0 12.7 12.7"><path fill="#963996" d="M6.344.073a6.29 6.29 0 0 0-6.29 6.29 6.29 6.29 0 0 0 6.29 6.288 6.29 6.29 0 0 0 6.29-6.289 6.29 6.29 0 0 0-6.29-6.29zm-.018.936a5.407 5.407 0 0 1 5.407 5.407 5.407 5.407 0 0 1-5.407 5.407A5.407 5.407 0 0 1 .92 6.416 5.407 5.407 0 0 1 6.326 1.01zM3.41 3.044c-.371 0-.67.299-.67.67v4.579c0 .37.299.67.67.67h1.68v.8H3.522v.619h5.835v-.619H7.748v-.8h1.64c.37 0 .67-.3.67-.67v-4.58c0-.37-.3-.67-.67-.67h-5.98zm.508.666h3.78v1.695h1.738v2.36c0 .286-.231.517-.518.517h-5a.516.516 0 0 1-.518-.518V4.227c0-.286.231-.517.518-.517zm4.019 0h.981c.287 0 .518.23.518.517v.983l-1.5-1.5z"/></svg>
