<svg xmlns="http://www.w3.org/2000/svg" width="48" height="48" viewBox="0 0 12.7 12.7"><path fill="#963996" d="M6.344.073a6.29 6.29 0 0 0-6.29 6.29 6.29 6.29 0 0 0 6.29 6.288 6.29 6.29 0 0 0 6.29-6.289 6.29 6.29 0 0 0-6.29-6.29zm-.018.936a5.407 5.407 0 0 1 5.407 5.407 5.407 5.407 0 0 1-5.407 5.407A5.407 5.407 0 0 1 .92 6.416 5.407 5.407 0 0 1 6.326 1.01zM9.66 2.508L8.445 3.722C5.987 1.217 1.52 2.78 2.676 6.782c.271.937 1.205.539 1.08-.11-.432-2.268 1.404-2.746 2.882-1.143L5.324 6.843l4.64.202-.304-4.537zM8.04 7.535v2.639h1.13c.35 0 .612-.063.784-.188.172-.125.258-.315.258-.569a.714.714 0 0 0-.12-.42.606.606 0 0 0-.34-.236.534.534 0 0 0 .262-.2c.06-.09.09-.2.09-.328 0-.244-.082-.421-.247-.532-.164-.111-.43-.166-.796-.166h-1.02zm-4.493.019l-.977 2.638h.684l.167-.481h1.065l.165.481h.684l-.977-2.638h-.81zm5.174.443h.376c.107 0 .189.024.244.073.055.047.083.116.083.206 0 .092-.028.162-.083.209-.055.047-.137.07-.244.07H8.72v-.558zm-4.767.175l.36 1.05H3.59l.363-1.05zm4.767.847h.4c.137 0 .24.029.308.086.068.057.103.142.103.257 0 .116-.035.203-.105.261-.068.058-.17.086-.307.086h-.4v-.69z"/></svg>
