<svg xmlns="http://www.w3.org/2000/svg" width="48" height="48" viewBox="0 0 12.7 12.7"><path fill="#963996" d="M6.344.077A6.267 6.267 0 0 0 .076 6.344a6.267 6.267 0 0 0 6.268 6.267 6.267 6.267 0 0 0 6.267-6.267A6.267 6.267 0 0 0 6.344.077zm-.018.932a5.388 5.388 0 0 1 5.388 5.39 5.388 5.388 0 0 1-5.388 5.387A5.388 5.388 0 0 1 .937 6.398a5.388 5.388 0 0 1 5.39-5.389zM9.35 2.814l-.233.469.321.32.468-.232-.056-.5-.5-.057zm-.42.488l-.115.114.49.49.115-.114-.49-.49zm-.193.191l-.678.679.49.49.679-.678-.49-.49zM8 4.231l-.915.914-.454-.453-2.183 2.184-.409.875-.59.59.215.216-.973.98.452.452.974-.98.212.213.583-.583.008.007.885-.413L7.989 6.05l-.414-.413.915-.914L8 4.23z"/></svg>
