<svg xmlns="http://www.w3.org/2000/svg" width="48" height="48" viewBox="0 0 12.7 12.7"><path d="M6.34.07a6.29 6.29 0 0 0-6.29 6.3 6.29 6.29 0 0 0 6.3 6.28 6.29 6.29 0 0 0 6.28-6.29A6.29 6.29 0 0 0 6.34.07zm-.01.94a5.4 5.4 0 0 1 5.4 5.4 5.4 5.4 0 0 1-5.4 5.41 5.4 5.4 0 0 1-5.41-5.4A5.4 5.4 0 0 1 6.32 1z" fill="#963996"/><path d="M6.33 1.38a4.97 4.97 0 0 0-4.97 4.98 4.97 4.97 0 0 0 4.98 4.96 4.97 4.97 0 0 0 4.96-4.97 4.97 4.97 0 0 0-4.97-4.97zm-.02.95a4.04 4.04 0 0 1 4.05 4.05 4.04 4.04 0 0 1-4.05 4.05 4.04 4.04 0 0 1-4.04-4.04A4.04 4.04 0 0 1 6.3 2.33zm.78 2.62v.7H5.61v-.68l-.89.7-.85.69.85.7.89.69v-.7h1.48v.7l.89-.7.85-.7-.85-.7-.89-.7z" fill="#04a" fill-opacity=".97" opacity=".75"/></svg>
