<svg xmlns="http://www.w3.org/2000/svg" width="48" height="48" viewBox="0 0 12.7 12.7"><path fill="#963996" d="M6.344.073a6.29 6.29 0 0 0-6.29 6.29 6.29 6.29 0 0 0 6.29 6.288 6.29 6.29 0 0 0 6.29-6.289 6.29 6.29 0 0 0-6.29-6.29zm-.018.936a5.407 5.407 0 0 1 5.407 5.407 5.407 5.407 0 0 1-5.407 5.407A5.407 5.407 0 0 1 .92 6.416 5.407 5.407 0 0 1 6.326 1.01zm-2.33 1.275L2.55 3.756h7.6L8.698 2.284H3.996zM2.55 3.891v6.106h7.595V3.891H2.55zm.337.271h6.922v5.565H2.887V4.162zm.377.422V9.3H9.41V4.584H3.264zm3.643.265l.21.508a1.292 1.292 0 0 1 .26.03l.312-.45c.11.038.21.092.31.15l-.13.529a1.303 1.303 0 0 1 .19.174l.515-.178a1.78 1.78 0 0 1 .168.303l-.414.347a1.244 1.244 0 0 1 .033.125c.009.043.014.084.018.127l.517.158a1.757 1.757 0 0 1-.037.344l-.543.037c-.028.082-.065.16-.108.235l.327.436c-.07.092-.141.181-.227.259l-.462-.293c-.07.05-.148.094-.229.13l.005.549a1.834 1.834 0 0 1-.331.067l-.21-.508a1.373 1.373 0 0 1-.26-.03l-.312.45a1.774 1.774 0 0 1-.31-.15l.13-.528a1.328 1.328 0 0 1-.191-.174l-.514.177a1.78 1.78 0 0 1-.166-.296l-.099.207a.76.76 0 0 1 .09.121l.314-.042a1.039 1.039 0 0 1 .061.193l-.277.15a.725.725 0 0 1 .005.076c0 .026-.002.05-.005.075l.277.15a1.029 1.029 0 0 1-.06.192l-.316-.042a.766.766 0 0 1-.089.122l.137.287c-.05.045-.102.088-.16.123l-.23-.222a.72.72 0 0 1-.146.047l-.06.315a1.07 1.07 0 0 1-.198 0l-.061-.315a.749.749 0 0 1-.146-.047l-.23.222a1.024 1.024 0 0 1-.16-.123l.136-.287a.76.76 0 0 1-.089-.122l-.315.042a1.039 1.039 0 0 1-.061-.193l.277-.15a.73.73 0 0 1 0-.15l-.277-.15a1.038 1.038 0 0 1 .061-.193l.315.042a.76.76 0 0 1 .09-.121l-.137-.288a1.01 1.01 0 0 1 .16-.122l.23.221a.754.754 0 0 1 .146-.047l.061-.314a1.07 1.07 0 0 1 .098-.005c.033 0 .067.004.1.005l.06.314a.753.753 0 0 1 .146.047l.23-.22c.058.034.11.077.16.122l-.032.066.405-.339a1.252 1.252 0 0 1-.033-.125 1.253 1.253 0 0 1-.018-.128l-.517-.157a1.78 1.78 0 0 1 .037-.345l.543-.036a1.303 1.303 0 0 1 .108-.235l-.326-.436c.069-.092.14-.181.226-.26l.463.292a1.292 1.292 0 0 1 .228-.128l-.005-.55a1.834 1.834 0 0 1 .164-.04c.056-.012.113-.019.168-.027zm.191 1.021a.773.773 0 0 0-.153.015.773.773 0 0 0 .308 1.516.773.773 0 0 0-.128-1.53.773.773 0 0 0-.027 0zM4.8 7.63a.451.451 0 1 0 0 .902.451.451 0 0 0 0-.902z"/></svg>
