<svg xmlns="http://www.w3.org/2000/svg" width="48" height="48" viewBox="0 0 12.7 12.7"><path fill="#963996" d="M6.344.073a6.29 6.29 0 0 0-6.29 6.29 6.29 6.29 0 0 0 6.29 6.288 6.29 6.29 0 0 0 6.29-6.289 6.29 6.29 0 0 0-6.29-6.29zm-.018.936a5.407 5.407 0 0 1 5.407 5.407 5.407 5.407 0 0 1-5.407 5.407A5.407 5.407 0 0 1 .92 6.416 5.407 5.407 0 0 1 6.326 1.01zm-.66.516c-.232-.017-.879.132-1.444.753-1.737.723-2.777 2.32-2.777 4.058 0 1.923 1.074 3.046 1.852 3.555l.005.004c.118.084.246.156.383.215.14.066.256.105.325.113.026.008-.346-.58-.51-1.289.32.326.702.584 1.13.629.044.006-.151-.237-.367-.556l3.468 1.154c-.316.323-.736.634-1.307.911 0 0 1.286-.105 1.924-.822-.26.596-.971.918-.971.918.523-.077 1.899-.483 2.775-1.578.991-1.24 1.29-2.404.991-3.963-.302-1.58-1.664-3.025-2.87-3.314a3.698 3.698 0 0 0-1.292-.446c-.568-.073-1.043-.06-1.447.019.127-.122.273-.182.273-.182-.19.017-.428.141-.632.273-.02.006-.038.015-.059.022-.07.015-.135.036-.204.054.05-.064.104-.13.158-.181.24-.228.596-.347.596-.347zm.162 1.22c-.121.06-.244.14-.365.235a3.47 3.47 0 0 0-.182.152c-.3.269-.586.608-.823.917a.222.222 0 0 1 .02.084.308.308 0 0 1-.006.094l-.009.041a.565.565 0 0 1-.027.074l-.002.007a.553.553 0 0 1-.061.107.408.408 0 0 1-.309.141c-.12.18-.194.3-.194.3a1.945 1.945 0 0 1-.074-.65c.002-.027.007-.055.01-.083a1.158 1.158 0 0 1 .031-.154.86.86 0 0 1 .036-.099c.009-.022.017-.045.029-.066l.01-.018a.62.62 0 0 1 .076-.107c.553-.61 1.926-1.018 1.84-.974zM2.97 4.114l.15.028.17.027c.009.062.019.124.033.19.034.154.04.399.007.557-.007.032-.093.114-.116.335v.02c-.232-.343-.53-.783-.584-.856a1.44 1.44 0 0 1 .34-.301zm1.221.1a.14.14 0 0 0-.124.068.045.045 0 0 1 .028-.01.045.045 0 0 1 .045.046.045.045 0 0 1-.045.044.045.045 0 0 1-.045-.041c-.002.01-.007.02-.007.03a.143.143 0 0 0 .138.147.143.143 0 0 0 .149-.137.144.144 0 0 0-.139-.147zm-.127.071a.045.045 0 0 0-.014.033.045.045 0 0 0 0 .002.137.137 0 0 1 .014-.035zm-1.522.244c.335.477 2.026 3.021 2.13 3.021h.002c.007-.003.015-.007.023-.009v.004c.734-.261 2.698-.937 3.86-1.336-.019.56-.2 1.056-.474 1.31.243-.056.507-.353.75-.82-.03.196-.055.436-.09.704-.082.6-.031 1.675-.92 2.658L2.187 8.186c-.165-.512-.238-1.11-.196-1.81.097.187.397.34.584.344-.225-.212-.693-1.256-.032-2.192zm2.575.036l3.256.542c.107.285.165.578.18.863-1.384.524-3.129 1.173-3.857 1.366l-.003.002c-.057.015-.68-.89-1.26-1.745.265-.337.505-.41.505-.41.41-.168.582-.348 1.02-.572a.538.538 0 0 1 .159-.046z"/></svg>
