<svg xmlns="http://www.w3.org/2000/svg" width="48" height="48" viewBox="0 0 12.7 12.7"><path fill="#963996" d="M6.344.073a6.29 6.29 0 0 0-6.29 6.29 6.29 6.29 0 0 0 6.29 6.288 6.29 6.29 0 0 0 6.29-6.289 6.29 6.29 0 0 0-6.29-6.29zm-.018.936a5.407 5.407 0 0 1 5.407 5.407 5.407 5.407 0 0 1-5.407 5.407A5.407 5.407 0 0 1 .92 6.416 5.407 5.407 0 0 1 6.326 1.01zM2.212 3.967v3.787l8.275.005V6.51H3.593V5.126h6.896V4l-8.276-.033zm1.672 4.981v.843h.82v-.843h-.82zm1.964 0v.843h.82v-.843h-.82zm1.964 0v.843h.82v-.843h-.82z"/></svg>
