<svg xmlns="http://www.w3.org/2000/svg" width="48" height="48" viewBox="0 0 12.7 12.7"><path fill="#963996" d="M6.344.073a6.29 6.29 0 0 0-6.29 6.29 6.29 6.29 0 0 0 6.29 6.288 6.29 6.29 0 0 0 6.29-6.289 6.29 6.29 0 0 0-6.29-6.29zm-.018.936a5.407 5.407 0 0 1 5.407 5.407 5.407 5.407 0 0 1-5.407 5.407A5.407 5.407 0 0 1 .92 6.416 5.407 5.407 0 0 1 6.326 1.01zM3.302 2.406c-.496 0-.896.4-.896.896v6.096c0 .496.4.896.896.896h6.096c.497 0 .896-.4.896-.896V3.302a.894.894 0 0 0-.896-.896H3.302zm.187.24h5.723a.84.84 0 0 1 .842.842v5.724a.84.84 0 0 1-.842.841H3.49a.84.84 0 0 1-.842-.841V3.488a.84.84 0 0 1 .842-.841zm3.615.5a.422.422 0 0 0 0 .843h.99l-.842.842h-.734v.841h.166c.336 0 .337 0 .337.336v.174h.842v-.773l.841-.842v1.02a.42.42 0 0 0 .842 0c0-.666-.01-1.372 0-2.019a.422.422 0 0 0-.421-.421c-.667 0-1.373.01-2.02 0zm-3.532.005a.42.42 0 0 0-.42.42c.009.647 0 1.354 0 2.02a.42.42 0 0 0 .842 0v-1.02l.841.842v.773h.842v-.173c0-.337 0-.337.337-.337h.165v-.841h-.733l-.842-.842h.989a.42.42 0 0 0 0-.842c-.647.01-1.354 0-2.02 0zm3.449 3.362v.173c0 .337 0 .336-.337.336h-.166v.842h.734l.842.842h-.99a.421.421 0 0 0 0 .842c.648-.01 1.354 0 2.021 0a.42.42 0 0 0 .42-.42c-.009-.648 0-1.355 0-2.021a.42.42 0 0 0-.84 0v1.02l-.842-.841v-.773H7.02zm-2.186.004v.841c0 .279.226.505.505.505h.842v-.841h-.331c-.17 0-.174-.003-.174-.169v-.336h-.842z"/></svg>
