<svg xmlns="http://www.w3.org/2000/svg" width="48" height="48" viewBox="0 0 12.7 12.7"><path d="M6.34.07a6.29 6.29 0 0 0-6.29 6.3 6.29 6.29 0 0 0 6.3 6.28 6.29 6.29 0 0 0 6.28-6.29A6.29 6.29 0 0 0 6.34.07zM6.32 1l.01.01a5.4 5.4 0 0 1 5.4 5.4 5.4 5.4 0 0 1-5.4 5.41 5.4 5.4 0 0 1-5.41-5.4A5.4 5.4 0 0 1 6.32 1zM3.7 3.17c-.29 0-.53.24-.53.53v3.97c0 .3.24.53.53.53H6.1V9H5.03a.26.26 0 1 0 0 .52h2.64a.26.26 0 1 0 0-.52H6.61v-.8H9c.29 0 .52-.23.52-.53V3.7c0-.29-.23-.53-.52-.53H3.7zm0 .53H9v3.97H3.7V3.7zm2.12.53v.8h1.06v-.8H5.82zm-.8 1.06v.8H6.1v-.8H5.03zm1.6 0v.8h1.05v-.8H6.61zM4.22 6.35v.8H5.3v-.8H4.23zm1.6 0v.8h1.05v-.8H5.82zm1.58 0v.8h1.06v-.8H7.4z" fill="#963996"/></svg>
