<?xml version="1.0" encoding="UTF-8" standalone="no"?><svg xmlns:dc="http://purl.org/dc/elements/1.1/" xmlns:cc="http://creativecommons.org/ns#" xmlns:rdf="http://www.w3.org/1999/02/22-rdf-syntax-ns#" xmlns="http://www.w3.org/2000/svg" width="48" height="48" viewBox="0 0 12.7 12.7"><metadata><rdf:RDF><cc:Work><dc:format>image/svg+xml</dc:format><dc:type rdf:resource="http://purl.org/dc/dcmitype/StillImage"/><dc:title/></cc:Work></rdf:RDF></metadata><path d="M6.34.07a6.29 6.29 0 0 0-6.28 6.3 6.29 6.29 0 0 0 6.29 6.28 6.29 6.29 0 0 0 6.28-6.29A6.29 6.29 0 0 0 6.34.07zm-.01.94a5.4 5.4 0 0 1 5.4 5.4 5.4 5.4 0 0 1-5.4 5.41 5.4 5.4 0 0 1-5.41-5.4A5.4 5.4 0 0 1 6.32 1z" fill="#963996"/><path d="M6.85 1.46c-.11 0-.32.02-.43.05-.36.1-.7.48-.82.8l-.05.1a5.05 5.05 0 0 0-1.4.5A4.36 4.36 0 0 0 1.9 6.1a4.23 4.23 0 0 0 1.26 3.56 4.56 4.56 0 0 0 5.12.88 4.33 4.33 0 0 0 2.55-3.85 2.5 2.5 0 0 0-.4-1.35c-.23-.39-.31-.57-.37-.8a1.88 1.88 0 0 1-.06-.57 2.4 2.4 0 0 0-.71.42c-.47.49-.82 1.09-.82 1.57 0 .38.1.47.28.94a2.52 2.52 0 0 1-.6 2.81c-.1.1-.12.11-.13.1 0 0 0-.04.03-.1.36-.75.29-1.66-.27-2.3-.08-.1-.21-.29-.23-.29l-.02.02a1.77 1.7 0 0 1 0 .08 1.77 1.7 0 0 1-1.77 1.7A1.77 1.7 0 0 1 4 7.22a1.77 1.7 0 0 1 1.76-1.7 1.77 1.7 0 0 1 .07 0l.03-.03a2.3 2.3 0 0 0-1.2-.76l-.12-.04c0-.03.3-.12.63-.18.4-.08.66-.1 1.44-.1l.72-.03c.31-.03.67-.15.94-.32.27-.18.47-.27.63-.48.08-.11.26-.45.28-.51.01-.03.01-.03-.12-.03-.28 0-.59-.06-.85-.17a3.5 3.5 0 0 0-1.02-.38c-.09-.02-.22-.07-.36-.09-.03-.27-.04-.66.09-.84a.28.28 0 0 0 .05-.1l-.12-.01z" opacity=".8" fill="#2c89a0"/></svg>
