<svg xmlns="http://www.w3.org/2000/svg" width="48" height="48" viewBox="0 0 12.7 12.7"><path d="M6.34.07a6.29 6.29 0 0 0-6.29 6.3 6.29 6.29 0 0 0 6.3 6.28 6.29 6.29 0 0 0 6.28-6.29A6.29 6.29 0 0 0 6.34.07zM6.32 1l.01.01a5.4 5.4 0 0 1 5.4 5.4 5.4 5.4 0 0 1-5.4 5.41 5.4 5.4 0 0 1-5.41-5.4A5.4 5.4 0 0 1 6.32 1zm.96 6.28A1.32 1.32 0 0 0 5.96 8.6a1.32 1.32 0 0 0 1.32 1.32 1.32 1.32 0 0 0 1.3-1.05h.82v.53h.52v-.53h.27v-.53H8.57a1.32 1.32 0 0 0-1.3-1.06zm0 .53a.8.8 0 0 1 .8.8.8.8 0 0 1-.8.79.8.8 0 0 1-.8-.8.8.8 0 0 1 .8-.8z" fill="#963996"/><g stroke="#963996" fill="none" stroke-width="4" stroke-linecap="round" stroke-linejoin="round"><path d="M3.57 8.34l3.7-5.03M3.05 3.31l2.11 2.38" stroke-width="1.05832"/></g></svg>
