<svg xmlns="http://www.w3.org/2000/svg" width="48" height="48" viewBox="0 0 12.7 12.7"><path d="M6.34.07a6.29 6.29 0 0 0-6.29 6.3 6.29 6.29 0 0 0 6.3 6.28 6.29 6.29 0 0 0 6.28-6.29A6.29 6.29 0 0 0 6.34.07zM6.32 1l.01.01a5.4 5.4 0 0 1 5.4 5.4 5.4 5.4 0 0 1-5.4 5.41 5.4 5.4 0 0 1-5.41-5.4A5.4 5.4 0 0 1 6.32 1zm0 .8a4.6 4.6 0 0 0-2.62.82l1.55 1.55a2.5 2.5 0 0 1 .17-.08 2.5 2.5 0 0 1 .24-.08 2.5 2.5 0 0 1 .24-.05 2.5 2.5 0 0 1 .25-.03 2.5 2.5 0 0 1 .18-.01 2.5 2.5 0 0 1 .26.02 2.5 2.5 0 0 1 .24.03 2.5 2.5 0 0 1 .24.07 2.5 2.5 0 0 1 .24.08 2.5 2.5 0 0 1 .12.06l1.54-1.54a4.6 4.6 0 0 0-2.64-.84zM2.6 3.68a4.6 4.6 0 0 0-.89 2.73 4.6 4.6 0 0 0 .84 2.64L4.1 7.52a2.5 2.5 0 0 1-.08-.19 2.5 2.5 0 0 1-.08-.23 2.5 2.5 0 0 1-.06-.25 2.5 2.5 0 0 1-.03-.24 2.5 2.5 0 0 1 0-.19 2.5 2.5 0 0 1 0-.24 2.5 2.5 0 0 1 .05-.25 2.5 2.5 0 0 1 .06-.24 2.5 2.5 0 0 1 .08-.24 2.5 2.5 0 0 1 .1-.22L2.6 3.69zm7.47.03L8.54 5.25a2.5 2.5 0 0 1 .02.04 2.5 2.5 0 0 1 .1.23 2.5 2.5 0 0 1 .08.23A2.5 2.5 0 0 1 8.8 6a2.5 2.5 0 0 1 .03.24 2.5 2.5 0 0 1 0 .18 2.5 2.5 0 0 1-.01.25 2.5 2.5 0 0 1-.04.25 2.5 2.5 0 0 1-.06.24 2.5 2.5 0 0 1-.08.23 2.5 2.5 0 0 1-.05.1l1.53 1.54a4.6 4.6 0 0 0 .82-2.62 4.6 4.6 0 0 0-.87-2.69zM5.08 4.84v.6h1.57L5.04 7.38v.47h2.62v-.6H6l1.62-1.95v-.47H5.08zm2.45 3.78a2.5 2.5 0 0 1-.06.03 2.5 2.5 0 0 1-.22.1 2.5 2.5 0 0 1-.24.08 2.5 2.5 0 0 1-.24.05 2.5 2.5 0 0 1-.25.03 2.5 2.5 0 0 1-.18 0 2.5 2.5 0 0 1-.25 0 2.5 2.5 0 0 1-.25-.04 2.5 2.5 0 0 1-.24-.06 2.5 2.5 0 0 1-.23-.09 2.5 2.5 0 0 1-.2-.1l-1.54 1.54a4.6 4.6 0 0 0 2.7.87 4.6 4.6 0 0 0 2.71-.9L7.53 8.62z" fill="#963996"/></svg>
