<svg xmlns="http://www.w3.org/2000/svg" width="24" height="24" viewBox="0 0 6.35 6.35"><g fill="teal"><path d="M2.05 2.311l.004 2.924c.752.543 1.617.378 2.249-.008l.002-2.916h-.901v.594h.453L2.95 4.66V3.373h-.453l.548-1.062z"/><path d="M2.05 2.311h.996l.358-.693v.693h.901V1.16A2.53 2.53 0 0 0 3.21.864a2.35 2.35 0 0 0-1.16.29z" opacity=".5"/><path d="M3.175.56A2.615 2.615 0 0 0 .56 3.175 2.615 2.615 0 0 0 3.175 5.79 2.615 2.615 0 0 0 5.79 3.175 2.615 2.615 0 0 0 3.175.56zm-.007.389a2.249 2.249 0 0 1 2.248 2.248 2.249 2.249 0 0 1-2.248 2.249 2.249 2.249 0 0 1-2.25-2.249A2.249 2.249 0 0 1 3.169.95z"/></g></svg>