<svg xmlns="http://www.w3.org/2000/svg" height="24" width="24"><g color="#bebebe" fill="#447821"><path d="M18.23 3a.57.57 0 0 0-.56.57v15.86c0 .32.25.57.56.57h1.14c.31 0 .56-.25.56-.57V3.57a.57.57 0 0 0-.56-.57zm-3.4 3.4a.57.57 0 0 0-.56.57v1.16a4.5 4.5 0 0 1 2.26 3.65V6.97a.57.57 0 0 0-.56-.57zm1.7 5.45c0 .9-.12 1.68-.53 2.38a6.2 6.2 0 0 1-1.73 1.73v3.47c0 .32.25.57.56.57h1.14c.31 0 .56-.25.56-.57v-7.58zm-8.5 1.35a.57.57 0 0 0-.56.57v5.66c0 .32.25.57.56.57h1.14c.31 0 .56-.25.56-.57v-5.66a.57.57 0 0 0-.56-.57H8.6zm-3.4 3.4a.57.57 0 0 0-.56.57v2.26c0 .32.25.57.56.57h1.14c.31 0 .56-.25.56-.57v-2.26a.57.57 0 0 0-.56-.57z" style="marker:none" overflow="visible" opacity=".35" fill-opacity=".3" stroke-width="1.13"/><path d="M11.79 8.67a3.43 3.43 0 0 1 3.61 3.18c0 1.6-.43 2.18-1.8 3.23-.22.16-.38.28-.43.35l-.04.04c.01.6-.53 1.13-1.13 1.13-.6 0-1.14-.54-1.13-1.13 0-.57.25-1.07.53-1.42.28-.35.55-.59.81-.78.23-.18.52-.44.78-.74.1-.13.15-.35.14-.5V12a1.12 1.12 0 0 0-1.2-1.07c-.64.04-1.1.5-1.06 1.14H8.6c-.1-1.87 1.33-3.3 3.19-3.4zm.21 9.06A1.13 1.13 0 1 1 12 20a1.13 1.13 0 0 1 0-2.27z" style="marker:none" overflow="visible" stroke-width="2.27"/></g></svg>