<svg xmlns="http://www.w3.org/2000/svg" width="24" height="24" version="1" id="svg7"><defs id="defs3"><style id="current-color-scheme"></style></defs><path d="M11.24 1.98a6.97 6.97 0 0 0-6.85 7.1v5.88a6.97 6.97 0 0 0 6.85 7.1c3.8 0 6.86-3.16 6.86-7.1V9.09a6.97 6.97 0 0 0-6.86-7.11zM8.46 5.33a1.11 1.11 0 1 1 0 2.23 1.11 1.11 0 0 1 0-2.23zm5.56 0a1.11 1.11 0 1 1 0 2.22 1.11 1.11 0 0 1 0-2.22zm-2.78 5.56a3.89 3.89 0 1 1 0 7.77 3.89 3.89 0 0 1 0-7.77zm0 2.22a1.67 1.67 0 1 0 0 3.33 1.67 1.67 0 0 0 0-3.33z" id="path827" fill="#7c916f" stroke-width="1.11"/><path d="M19.58 16.16a.68.76 0 0 0-.7.76V20.95a.68.76 0 0 0 1.02.66l1.54-1L23 19.6a.68.76 0 0 0 0-1.32l-1.55-1.01-1.54-1a.68.76 0 0 0-.32-.1z" id="path5" fill="#7c916f" fill-rule="evenodd" stroke-width="1.11"/></svg>