<?xml version="1.0" encoding="UTF-8" standalone="no"?>
<!-- Created with Inkscape (http://www.inkscape.org/) -->

<svg
   xmlns:dc="http://purl.org/dc/elements/1.1/"
   xmlns:cc="http://creativecommons.org/ns#"
   xmlns:rdf="http://www.w3.org/1999/02/22-rdf-syntax-ns#"
   xmlns:svg="http://www.w3.org/2000/svg"
   xmlns="http://www.w3.org/2000/svg"
   xmlns:sodipodi="http://sodipodi.sourceforge.net/DTD/sodipodi-0.dtd"
   xmlns:inkscape="http://www.inkscape.org/namespaces/inkscape"
   width="48"
   height="48"
   viewBox="0 0 12.7 12.7"
   version="1.1"
   id="svg926"
   inkscape:version="0.92.3 (2405546, 2018-03-11)"
   sodipodi:docname="application-x-lzma.svg">
  <defs
     id="defs920" />
  <sodipodi:namedview
     id="base"
     pagecolor="#ffffff"
     bordercolor="#666666"
     borderopacity="1.0"
     inkscape:pageopacity="0.0"
     inkscape:pageshadow="2"
     inkscape:zoom="7.2920387"
     inkscape:cx="10.323632"
     inkscape:cy="24"
     inkscape:document-units="mm"
     inkscape:current-layer="layer1"
     showgrid="false"
     units="px"
     inkscape:window-width="1366"
     inkscape:window-height="690"
     inkscape:window-x="0"
     inkscape:window-y="28"
     inkscape:window-maximized="1"
     showguides="true"
     inkscape:guide-bbox="true"
     inkscape:snap-global="false" />
  <metadata
     id="metadata923">
    <rdf:RDF>
      <cc:Work
         rdf:about="">
        <dc:format>image/svg+xml</dc:format>
        <dc:type
           rdf:resource="http://purl.org/dc/dcmitype/StillImage" />
        <dc:title></dc:title>
      </cc:Work>
    </rdf:RDF>
  </metadata>
  <g
     inkscape:label="Capa 1"
     inkscape:groupmode="layer"
     id="layer1"
     transform="translate(0,-284.29998)">
    <path
       style="opacity:1;fill:#1a1a1a;fill-opacity:1;stroke:none;stroke-width:1.13564169"
       d="M 4.5917969 3.234375 L 0.53515625 13.837891 L 23.365234 13.837891 L 23.365234 3.234375 L 4.5917969 3.234375 z M 24.146484 3.234375 L 24.146484 13.837891 L 47.259766 13.837891 L 43.095703 3.234375 L 24.146484 3.234375 z M 0.734375 14.712891 L 0.734375 38.560547 C 0.734375 40.967577 1.6633574 43.026545 3.5195312 44.736328 C 5.3762887 46.445922 7.6123767 47.300781 10.226562 47.300781 L 37.644531 47.300781 C 40.25872 47.300781 42.494235 46.445922 44.351562 44.736328 C 46.208203 43.026545 47.134766 40.967652 47.134766 38.560547 L 47.134766 14.712891 L 42.917969 14.712891 L 42.917969 38.560547 L 42.916016 38.560547 C 42.916016 39.895363 42.401636 41.039003 41.369141 41.990234 C 40.336653 42.940937 39.095098 43.414062 37.644531 43.414062 L 10.226562 43.414062 C 8.7764598 43.414062 7.534675 42.940937 6.5019531 41.990234 C 5.469458 41.039078 4.953125 39.895363 4.953125 38.560547 L 4.953125 14.712891 L 0.734375 14.712891 z M 10.5625 29.867188 L 10.5625 38.734375 L 12.158203 38.734375 L 12.158203 29.867188 L 10.5625 29.867188 z M 23.169922 31.931641 C 22.389922 31.931641 21.909406 32.147145 21.441406 32.710938 L 21.441406 32.085938 L 19.976562 32.085938 L 19.976562 38.734375 L 21.572266 38.734375 L 21.572266 35.458984 C 21.572266 34.798965 21.632234 34.354144 21.740234 34.078125 C 21.932234 33.646125 22.341141 33.394531 22.869141 33.394531 C 23.301141 33.394531 23.672672 33.550567 23.888672 33.814453 C 24.080672 34.066548 24.166016 34.461938 24.166016 35.085938 L 24.166016 38.734375 L 25.761719 38.734375 L 25.761719 35.458984 C 25.761719 34.714984 25.820281 34.34325 25.988281 34.03125 C 26.192281 33.62325 26.601469 33.394531 27.105469 33.394531 C 27.501469 33.394531 27.836734 33.538734 28.052734 33.802734 C 28.268734 34.054829 28.353516 34.425956 28.353516 35.085938 L 28.353516 38.734375 L 29.949219 38.734375 L 29.949219 34.894531 C 29.949219 34.09055 29.805578 33.442328 29.517578 32.986328 C 29.097578 32.314328 28.257719 31.931641 27.261719 31.931641 C 26.325719 31.931641 25.665 32.24308 25.125 32.962891 C 24.669 32.242891 24.081922 31.931641 23.169922 31.931641 z M 34.347656 31.931641 C 32.379656 31.931641 30.962891 33.407528 30.962891 35.435547 C 30.962891 37.439528 32.366547 38.890625 34.310547 38.890625 C 35.246547 38.890625 35.883531 38.591018 36.519531 37.871094 L 36.519531 38.734375 L 37.982422 38.734375 L 37.982422 32.085938 L 36.519531 32.085938 L 36.519531 32.974609 C 35.967531 32.242628 35.307656 31.931641 34.347656 31.931641 z M 14.074219 32.085938 L 14.074219 33.515625 L 16.666016 33.515625 L 13.738281 37.306641 L 13.738281 38.734375 L 18.802734 38.734375 L 18.802734 37.306641 L 15.646484 37.306641 L 18.574219 33.515625 L 18.574219 32.085938 L 14.074219 32.085938 z M 34.515625 33.394531 C 35.655625 33.394531 36.470703 34.246965 36.470703 35.458984 C 36.470703 35.938984 36.278234 36.490172 35.990234 36.826172 C 35.666234 37.210172 35.151063 37.425781 34.539062 37.425781 C 33.375062 37.425781 32.570312 36.634722 32.570312 35.470703 C 32.570312 34.258722 33.375625 33.394531 34.515625 33.394531 z "
       transform="matrix(0.26458333,0,0,0.26458333,0,284.29998)"
       id="path828" />
  </g>
</svg>
