<?xml version="1.0" encoding="UTF-8" standalone="no"?>
<!-- Created with Inkscape (http://www.inkscape.org/) -->

<svg
   xmlns:dc="http://purl.org/dc/elements/1.1/"
   xmlns:cc="http://creativecommons.org/ns#"
   xmlns:rdf="http://www.w3.org/1999/02/22-rdf-syntax-ns#"
   xmlns:svg="http://www.w3.org/2000/svg"
   xmlns="http://www.w3.org/2000/svg"
   xmlns:sodipodi="http://sodipodi.sourceforge.net/DTD/sodipodi-0.dtd"
   xmlns:inkscape="http://www.inkscape.org/namespaces/inkscape"
   width="48"
   height="48"
   viewBox="0 0 12.7 12.7"
   version="1.1"
   id="svg926"
   inkscape:version="0.92.3 (2405546, 2018-03-11)"
   sodipodi:docname="application-x-compressed-tar.svg">
  <defs
     id="defs920" />
  <sodipodi:namedview
     id="base"
     pagecolor="#ffffff"
     bordercolor="#666666"
     borderopacity="1.0"
     inkscape:pageopacity="0.0"
     inkscape:pageshadow="2"
     inkscape:zoom="7.2920387"
     inkscape:cx="-18.680602"
     inkscape:cy="24"
     inkscape:document-units="mm"
     inkscape:current-layer="layer1"
     showgrid="false"
     units="px"
     inkscape:window-width="1366"
     inkscape:window-height="719"
     inkscape:window-x="0"
     inkscape:window-y="25"
     inkscape:window-maximized="1"
     showguides="true"
     inkscape:guide-bbox="true"
     inkscape:snap-global="false" />
  <metadata
     id="metadata923">
    <rdf:RDF>
      <cc:Work
         rdf:about="">
        <dc:format>image/svg+xml</dc:format>
        <dc:type
           rdf:resource="http://purl.org/dc/dcmitype/StillImage" />
        <dc:title></dc:title>
      </cc:Work>
    </rdf:RDF>
  </metadata>
  <g
     inkscape:label="Capa 1"
     inkscape:groupmode="layer"
     id="layer1"
     transform="translate(0,-284.29998)">
    <path
       style="opacity:1;fill:#e6e6e6;fill-opacity:1;stroke:none;stroke-width:1.13564169"
       d="M 4.5917969 3.234375 L 0.53515625 13.837891 L 23.365234 13.837891 L 23.365234 3.234375 L 4.5917969 3.234375 z M 24.146484 3.234375 L 24.146484 13.837891 L 47.259766 13.837891 L 43.095703 3.234375 L 24.146484 3.234375 z M 0.734375 14.712891 L 0.734375 38.560547 C 0.734375 40.967577 1.6633574 43.026545 3.5195312 44.736328 C 5.3762887 46.445922 7.6123767 47.300781 10.226562 47.300781 L 37.644531 47.300781 C 40.25872 47.300781 42.494235 46.445922 44.351562 44.736328 C 46.208203 43.026545 47.134766 40.967652 47.134766 38.560547 L 47.134766 14.712891 L 42.917969 14.712891 L 42.917969 38.560547 L 42.916016 38.560547 C 42.916016 39.895363 42.401636 41.039003 41.369141 41.990234 C 40.336653 42.940937 39.095098 43.414062 37.644531 43.414062 L 10.226562 43.414062 C 8.7764598 43.414062 7.534675 42.940937 6.5019531 41.990234 C 5.469458 41.039078 4.953125 39.895363 4.953125 38.560547 L 4.953125 14.712891 L 0.734375 14.712891 z M 9.1523438 29.708984 L 9.1523438 31.929688 C 8.7251437 31.925908 8.1712171 31.791902 8.3730469 32.416016 C 8.4588459 32.76789 8.1241463 33.539713 8.7207031 33.380859 C 9.3472834 33.176387 9.1163638 33.828614 9.1523438 34.214844 L 9.1523438 38.576172 L 10.748047 38.576172 L 10.748047 33.380859 C 11.098436 33.295442 11.869384 33.629235 11.708984 33.033203 C 11.606816 32.697581 11.93508 31.932295 11.5 31.929688 C 11.01435 31.979577 10.566767 31.990319 10.748047 31.373047 L 10.748047 29.708984 L 9.1523438 29.708984 z M 23.195312 31.707031 C 23.079023 31.698614 22.919454 31.744233 22.701172 31.865234 C 21.899672 32.457222 22.019168 32.600818 21.767578 31.929688 L 20.443359 31.929688 L 20.443359 38.576172 L 22.039062 38.576172 C 22.066011 37.169507 21.980752 35.756955 22.087891 34.355469 C 22.048599 33.20517 23.783897 33.732035 23.466797 32.683594 C 23.501343 32.246548 23.54418 31.732284 23.195312 31.707031 z M 15.96875 31.783203 C 14.482512 31.60982 12.840384 32.542602 12.427734 34.035156 C 11.766135 35.846381 12.72825 38.211483 14.712891 38.630859 C 15.807091 38.923017 17.077862 38.637514 17.789062 37.712891 C 17.836541 38.092431 17.581022 38.775164 18.207031 38.576172 C 18.51572 38.466566 19.282506 38.816259 19.253906 38.369141 L 19.253906 31.929688 L 17.789062 31.929688 C 17.791462 32.485051 17.896412 33.157432 17.351562 32.345703 C 16.942363 32.021675 16.464163 31.840997 15.96875 31.783203 z M 31.019531 31.783203 C 29.555236 31.613348 27.949091 32.517259 27.541016 33.996094 C 26.881836 35.844774 27.871347 38.304504 29.929688 38.666016 C 30.972488 38.903748 32.147128 38.582595 32.798828 37.701172 C 32.968676 39.129984 31.560031 40.255446 30.207031 39.736328 C 29.572931 39.378785 29.075075 38.950548 28.296875 39.117188 C 27.669685 39.048022 27.107684 39.090647 27.833984 39.806641 C 29.225784 41.764058 32.845425 41.770567 33.953125 39.515625 C 34.544295 38.022145 34.250965 36.381445 34.322266 34.814453 L 34.322266 31.929688 L 32.798828 31.929688 C 32.795828 32.44359 32.915681 33.118903 32.386719 32.330078 C 31.979669 32.01668 31.50763 31.839822 31.019531 31.783203 z M 35.488281 31.929688 L 35.488281 33.357422 L 38.080078 33.357422 C 37.104078 34.621409 36.128344 35.88445 35.152344 37.148438 L 35.152344 38.576172 L 40.216797 38.576172 L 40.216797 37.148438 L 37.060547 37.148438 C 38.036546 35.88445 39.012283 34.621409 39.988281 33.357422 L 39.988281 31.929688 L 35.488281 31.929688 z M 15.785156 33.236328 C 17.365956 33.144864 18.241531 35.126472 17.457031 36.380859 C 16.676901 37.844859 14.075806 37.414248 13.878906 35.730469 C 13.617707 34.525102 14.473846 33.179522 15.785156 33.236328 z M 30.806641 33.236328 C 32.26444 33.144486 33.108644 34.853838 32.589844 36.09375 C 32.089204 37.732326 29.341103 37.624248 29.033203 35.910156 C 28.685162 34.704827 29.399622 33.165424 30.806641 33.236328 z M 24.503906 37.041016 L 24.503906 38.576172 L 26.099609 38.576172 L 26.099609 37.041016 L 24.503906 37.041016 z "
       transform="matrix(0.26458333,0,0,0.26458333,0,284.29998)"
       id="path828" />
  </g>
</svg>
