<svg xmlns="http://www.w3.org/2000/svg" width="48" height="48" viewBox="0 0 12.7 12.7"><path d="M1.215.856L.142 3.66h6.04V.856H1.215zm5.174 0V3.66h6.115L11.402.856H6.39zM.194 3.893v6.31c0 .636.246 1.181.737 1.633.491.453 1.083.679 1.775.679H9.96c.692 0 1.283-.226 1.775-.679.49-.452.736-.997.736-1.634v-6.31h-1.116v6.31c0 .354-.136.656-.41.908a1.403 1.403 0 0 1-.985.377H2.706c-.384 0-.712-.126-.986-.377a1.19 1.19 0 0 1-.41-.908v-6.31H.195zm4.388 3.99v.397h.422v-.397h-.422zm3.663.545a.416.416 0 0 0-.412.213c-.008-.053.014-.135-.01-.171h-.378v1.759h.422c.004-.358-.007-.716.006-1.074.007-.193.186-.332.372-.32v-.407zm-2.017 0a.843.843 0 0 0-.202.01.871.871 0 0 0-.74.747c-.07.389.106.832.477 1 .306.143.717.118.948-.15.06-.08.02.09.032.135-.028.09.076.05.13.059h.257v-1.76h-.387v.236a.663.663 0 0 0-.515-.276zm-1.646.042c-.002.583.003 1.166-.003 1.75.049.182-.215.128-.172.277v.32a.567.567 0 0 0 .583-.505c.025-.613.014-1.228.014-1.842h-.422zm1.63.346a.51.51 0 0 1 .516.487c.027.25-.127.534-.393.57-.253.056-.551-.082-.615-.345-.083-.277.06-.63.358-.696a.548.548 0 0 1 .135-.016z" fill="#e6e6e6"/></svg>