<?xml version="1.0" encoding="UTF-8" standalone="no"?>
<!-- Created with Inkscape (http://www.inkscape.org/) -->

<svg
   xmlns:dc="http://purl.org/dc/elements/1.1/"
   xmlns:cc="http://creativecommons.org/ns#"
   xmlns:rdf="http://www.w3.org/1999/02/22-rdf-syntax-ns#"
   xmlns:svg="http://www.w3.org/2000/svg"
   xmlns="http://www.w3.org/2000/svg"
   xmlns:sodipodi="http://sodipodi.sourceforge.net/DTD/sodipodi-0.dtd"
   xmlns:inkscape="http://www.inkscape.org/namespaces/inkscape"
   width="48"
   height="48"
   viewBox="0 0 12.7 12.7"
   version="1.1"
   id="svg926"
   inkscape:version="0.92.3 (2405546, 2018-03-11)"
   sodipodi:docname="application-x-lzma-compressed-tar.svg">
  <defs
     id="defs920" />
  <sodipodi:namedview
     id="base"
     pagecolor="#ffffff"
     bordercolor="#666666"
     borderopacity="1.0"
     inkscape:pageopacity="0.0"
     inkscape:pageshadow="2"
     inkscape:zoom="7.2920387"
     inkscape:cx="-18.680602"
     inkscape:cy="24"
     inkscape:document-units="mm"
     inkscape:current-layer="layer1"
     showgrid="false"
     units="px"
     inkscape:window-width="1366"
     inkscape:window-height="719"
     inkscape:window-x="0"
     inkscape:window-y="25"
     inkscape:window-maximized="1"
     showguides="true"
     inkscape:guide-bbox="true"
     inkscape:snap-global="false" />
  <metadata
     id="metadata923">
    <rdf:RDF>
      <cc:Work
         rdf:about="">
        <dc:format>image/svg+xml</dc:format>
        <dc:type
           rdf:resource="http://purl.org/dc/dcmitype/StillImage" />
        <dc:title></dc:title>
      </cc:Work>
    </rdf:RDF>
  </metadata>
  <g
     inkscape:label="Capa 1"
     inkscape:groupmode="layer"
     id="layer1"
     transform="translate(0,-284.29998)">
    <path
       style="opacity:1;fill:#e6e6e6;fill-opacity:1;stroke:none;stroke-width:1.13564169"
       d="M 4.5917969 3.234375 L 0.53515625 13.837891 L 23.365234 13.837891 L 23.365234 3.234375 L 4.5917969 3.234375 z M 24.146484 3.234375 L 24.146484 13.837891 L 47.259766 13.837891 L 43.095703 3.234375 L 24.146484 3.234375 z M 0.734375 14.712891 L 0.734375 38.560547 C 0.734375 40.967577 1.6633574 43.026545 3.5195312 44.736328 C 5.3762887 46.445922 7.6123767 47.300781 10.226562 47.300781 L 37.644531 47.300781 C 40.25872 47.300781 42.494235 46.445922 44.351562 44.736328 C 46.208203 43.026545 47.134766 40.967652 47.134766 38.560547 L 47.134766 14.712891 L 42.917969 14.712891 L 42.917969 38.560547 L 42.916016 38.560547 C 42.916016 39.895363 42.401636 41.039003 41.369141 41.990234 C 40.336653 42.940937 39.095098 43.414062 37.644531 43.414062 L 10.226562 43.414062 C 8.7764598 43.414062 7.534675 42.940937 6.5019531 41.990234 C 5.469458 41.039078 4.953125 39.895363 4.953125 38.560547 L 4.953125 14.712891 L 0.734375 14.712891 z M 6.9335938 29.796875 L 6.9335938 31.646484 L 6.3339844 31.646484 L 6.3339844 32.855469 L 6.9335938 32.855469 L 6.9335938 37.185547 L 8.1582031 37.185547 L 8.1582031 32.855469 L 8.8945312 32.855469 L 8.8945312 31.646484 L 8.1582031 31.646484 L 8.1582031 29.796875 L 6.9335938 29.796875 z M 21.117188 29.796875 L 21.117188 37.185547 L 22.341797 37.185547 L 22.341797 29.796875 L 21.117188 29.796875 z M 11.892578 31.515625 C 10.38254 31.515625 9.296875 32.745531 9.296875 34.435547 C 9.296875 36.105531 10.373612 37.316406 11.865234 37.316406 C 12.583423 37.316406 13.072547 37.066986 13.560547 36.466797 L 13.560547 37.185547 L 14.683594 37.185547 L 14.683594 31.646484 L 13.560547 31.646484 L 13.560547 32.386719 C 13.136999 31.776741 12.629182 31.515625 11.892578 31.515625 z M 17.824219 31.515625 C 17.299388 31.515625 17.042968 31.675424 16.720703 32.185547 L 16.720703 31.646484 L 15.597656 31.646484 L 15.597656 37.185547 L 16.822266 37.185547 L 16.822266 34.105469 C 16.822266 33.245437 17.181363 32.816869 17.917969 32.796875 L 17.917969 31.515625 L 17.824219 31.515625 z M 30.023438 31.515625 C 29.424947 31.515625 29.05636 31.695956 28.697266 32.166016 L 28.697266 31.646484 L 27.574219 31.646484 L 27.574219 37.185547 L 28.798828 37.185547 L 28.798828 34.455078 C 28.798828 33.905081 28.844868 33.536625 28.927734 33.306641 C 29.075057 32.94683 29.387837 32.736328 29.792969 32.736328 C 30.124441 32.736328 30.410436 32.865969 30.576172 33.085938 C 30.723494 33.296079 30.787109 33.626497 30.787109 34.146484 L 30.787109 37.185547 L 32.011719 37.185547 L 32.011719 34.455078 C 32.011719 33.835084 32.058595 33.525619 32.1875 33.265625 C 32.344029 32.925468 32.656252 32.736328 33.042969 32.736328 C 33.346816 32.736328 33.605749 32.855825 33.771484 33.076172 C 33.93722 33.286314 34 33.596488 34 34.146484 L 34 37.185547 L 35.224609 37.185547 L 35.224609 33.986328 C 35.224609 33.316331 35.115513 32.776478 34.894531 32.396484 C 34.572266 31.836472 33.926336 31.515625 33.162109 31.515625 C 32.443921 31.515625 31.937777 31.776991 31.523438 32.376953 C 31.173552 31.776953 30.723211 31.515625 30.023438 31.515625 z M 38.599609 31.515625 C 37.089573 31.515625 36.001953 32.745531 36.001953 34.435547 C 36.001953 36.105531 37.080642 37.316406 38.572266 37.316406 C 39.290455 37.316406 39.777624 37.066986 40.265625 36.466797 L 40.265625 37.185547 L 41.388672 37.185547 L 41.388672 31.646484 L 40.265625 31.646484 L 40.265625 32.386719 C 39.84208 31.776741 39.336213 31.515625 38.599609 31.515625 z M 23.273438 31.646484 L 23.273438 32.835938 L 25.263672 32.835938 L 23.015625 35.996094 L 23.015625 37.185547 L 26.902344 37.185547 L 26.902344 35.996094 L 24.480469 35.996094 L 26.726562 32.835938 L 26.726562 31.646484 L 23.273438 31.646484 z M 12.021484 32.736328 C 12.896202 32.736328 13.523438 33.445075 13.523438 34.455078 C 13.523438 34.855066 13.375278 35.315678 13.154297 35.595703 C 12.905695 35.915829 12.510601 36.095703 12.041016 36.095703 C 11.147883 36.095703 10.53125 35.436775 10.53125 34.466797 C 10.53125 33.456794 11.146767 32.736328 12.021484 32.736328 z M 38.728516 32.736328 C 39.603231 32.736328 40.228516 33.445075 40.228516 34.455078 C 40.228516 34.855066 40.082317 35.315678 39.861328 35.595703 C 39.612711 35.915829 39.215677 36.095703 38.746094 36.095703 C 37.852961 36.095703 37.236328 35.436775 37.236328 34.466797 C 37.236328 33.456794 37.853797 32.736328 38.728516 32.736328 z M 18.710938 35.90625 L 18.710938 37.185547 L 19.935547 37.185547 L 19.935547 35.90625 L 18.710938 35.90625 z "
       transform="matrix(0.26458333,0,0,0.26458333,0,284.29998)"
       id="path828" />
  </g>
</svg>
