<?xml version="1.0" encoding="UTF-8" standalone="no"?>
<!-- Created with Inkscape (http://www.inkscape.org/) -->

<svg
   xmlns:dc="http://purl.org/dc/elements/1.1/"
   xmlns:cc="http://creativecommons.org/ns#"
   xmlns:rdf="http://www.w3.org/1999/02/22-rdf-syntax-ns#"
   xmlns:svg="http://www.w3.org/2000/svg"
   xmlns="http://www.w3.org/2000/svg"
   xmlns:sodipodi="http://sodipodi.sourceforge.net/DTD/sodipodi-0.dtd"
   xmlns:inkscape="http://www.inkscape.org/namespaces/inkscape"
   width="48"
   height="48"
   viewBox="0 0 12.7 12.7"
   version="1.1"
   id="svg926"
   inkscape:version="0.92.3 (2405546, 2018-03-11)"
   sodipodi:docname="application-zip.svg">
  <defs
     id="defs920" />
  <sodipodi:namedview
     id="base"
     pagecolor="#ffffff"
     bordercolor="#666666"
     borderopacity="1.0"
     inkscape:pageopacity="0.0"
     inkscape:pageshadow="2"
     inkscape:zoom="7.2920387"
     inkscape:cx="-1.0258324"
     inkscape:cy="23.711303"
     inkscape:document-units="mm"
     inkscape:current-layer="layer1"
     showgrid="false"
     units="px"
     inkscape:window-width="1366"
     inkscape:window-height="719"
     inkscape:window-x="0"
     inkscape:window-y="25"
     inkscape:window-maximized="1"
     showguides="true"
     inkscape:guide-bbox="true"
     inkscape:snap-global="false" />
  <metadata
     id="metadata923">
    <rdf:RDF>
      <cc:Work
         rdf:about="">
        <dc:format>image/svg+xml</dc:format>
        <dc:type
           rdf:resource="http://purl.org/dc/dcmitype/StillImage" />
        <dc:title></dc:title>
      </cc:Work>
    </rdf:RDF>
  </metadata>
  <g
     inkscape:label="Capa 1"
     inkscape:groupmode="layer"
     id="layer1"
     transform="translate(0,-284.29998)">
    <path
       style="opacity:1;fill:#e6e6e6;fill-opacity:1;stroke:none;stroke-width:1.13564169"
       d="M 4.5917969 3.234375 L 0.53515625 13.837891 L 23.365234 13.837891 L 23.365234 3.234375 L 4.5917969 3.234375 z M 24.146484 3.234375 L 24.146484 13.837891 L 47.259766 13.837891 L 43.095703 3.234375 L 24.146484 3.234375 z M 0.734375 14.712891 L 0.734375 38.560547 C 0.734375 40.967577 1.6633573 43.026545 3.5195312 44.736328 C 5.3762885 46.445922 7.6123767 47.300781 10.226562 47.300781 L 37.644531 47.300781 C 40.258718 47.300781 42.494235 46.445922 44.351562 44.736328 C 46.208203 43.026545 47.134766 40.967652 47.134766 38.560547 L 47.134766 14.712891 L 42.917969 14.712891 L 42.917969 38.560547 L 42.916016 38.560547 C 42.916016 39.895363 42.401636 41.039003 41.369141 41.990234 C 40.336653 42.940937 39.095098 43.414062 37.644531 43.414062 L 10.226562 43.414062 C 8.7764598 43.414062 7.534675 42.940937 6.5019531 41.990234 C 5.469458 41.039078 4.953125 39.895363 4.953125 38.560547 L 4.953125 14.712891 L 0.734375 14.712891 z M 21.677734 29.669922 L 21.677734 31.40625 L 23.523438 31.40625 L 23.523438 29.669922 L 21.677734 29.669922 z M 29.263672 32.054688 C 28.300191 32.04761 27.33964 32.393463 26.703125 33.140625 C 26.669487 32.85716 26.768576 32.437727 26.650391 32.238281 L 25.007812 32.238281 L 25.007812 42.492188 L 26.853516 42.492188 L 26.853516 39.203125 C 28.53917 40.836864 31.668176 40.146449 32.613281 38.027344 C 33.575655 36.113429 32.974074 33.376699 30.933594 32.433594 C 30.422339 32.190087 29.84346 32.058936 29.265625 32.054688 L 29.263672 32.054688 z M 15.197266 32.238281 L 15.197266 33.888672 L 18.195312 33.888672 C 17.066685 35.350215 15.937221 36.811819 14.808594 38.273438 L 14.808594 39.925781 L 20.664062 39.925781 L 20.664062 38.273438 L 17.015625 38.273438 C 18.144249 36.811819 19.271763 35.350329 20.400391 33.888672 L 20.400391 32.238281 L 15.197266 32.238281 z M 21.677734 32.238281 L 21.677734 39.925781 L 23.523438 39.925781 L 23.523438 32.238281 L 21.677734 32.238281 z M 28.994141 33.75 C 30.379942 33.699354 31.42128 35.142599 31.175781 36.455078 C 31.057293 37.741554 29.689292 38.720997 28.435547 38.341797 C 26.903924 38.012222 26.272787 36.002688 27.119141 34.755859 C 27.517027 34.124603 28.250541 33.740362 28.994141 33.75 z "
       transform="matrix(0.26458333,0,0,0.26458333,0,284.29998)"
       id="path828" />
  </g>
</svg>
