<?xml version="1.0" encoding="UTF-8" standalone="no"?>
<!-- Created with Inkscape (http://www.inkscape.org/) -->

<svg
   xmlns:dc="http://purl.org/dc/elements/1.1/"
   xmlns:cc="http://creativecommons.org/ns#"
   xmlns:rdf="http://www.w3.org/1999/02/22-rdf-syntax-ns#"
   xmlns:svg="http://www.w3.org/2000/svg"
   xmlns="http://www.w3.org/2000/svg"
   xmlns:sodipodi="http://sodipodi.sourceforge.net/DTD/sodipodi-0.dtd"
   xmlns:inkscape="http://www.inkscape.org/namespaces/inkscape"
   width="48"
   height="48"
   viewBox="0 0 12.7 12.7"
   version="1.1"
   id="svg926"
   inkscape:version="0.92.3 (2405546, 2018-03-11)"
   sodipodi:docname="application-x-stuffit.svg">
  <defs
     id="defs920" />
  <sodipodi:namedview
     id="base"
     pagecolor="#ffffff"
     bordercolor="#666666"
     borderopacity="1.0"
     inkscape:pageopacity="0.0"
     inkscape:pageshadow="2"
     inkscape:zoom="7.2920387"
     inkscape:cx="10.323632"
     inkscape:cy="24"
     inkscape:document-units="mm"
     inkscape:current-layer="layer1"
     showgrid="false"
     units="px"
     inkscape:window-width="1366"
     inkscape:window-height="690"
     inkscape:window-x="0"
     inkscape:window-y="28"
     inkscape:window-maximized="1"
     showguides="true"
     inkscape:guide-bbox="true"
     inkscape:snap-global="false" />
  <metadata
     id="metadata923">
    <rdf:RDF>
      <cc:Work
         rdf:about="">
        <dc:format>image/svg+xml</dc:format>
        <dc:type
           rdf:resource="http://purl.org/dc/dcmitype/StillImage" />
        <dc:title></dc:title>
      </cc:Work>
    </rdf:RDF>
  </metadata>
  <g
     inkscape:label="Capa 1"
     inkscape:groupmode="layer"
     id="layer1"
     transform="translate(0,-284.29998)">
    <path
       style="opacity:1;fill:#1a1a1a;fill-opacity:1;stroke:none;stroke-width:1.13564169"
       d="M 4.5917969 3.234375 L 0.53515625 13.837891 L 23.365234 13.837891 L 23.365234 3.234375 L 4.5917969 3.234375 z M 24.146484 3.234375 L 24.146484 13.837891 L 47.259766 13.837891 L 43.095703 3.234375 L 24.146484 3.234375 z M 0.734375 14.712891 L 0.734375 38.560547 C 0.734375 40.967577 1.6633574 43.026545 3.5195312 44.736328 C 5.3762887 46.445922 7.6123767 47.300781 10.226562 47.300781 L 37.644531 47.300781 C 40.25872 47.300781 42.494235 46.445922 44.351562 44.736328 C 46.208203 43.026545 47.134766 40.967652 47.134766 38.560547 L 47.134766 14.712891 L 42.917969 14.712891 L 42.917969 38.560547 L 42.916016 38.560547 C 42.916016 39.895363 42.401636 41.039003 41.369141 41.990234 C 40.336653 42.940937 39.095098 43.414062 37.644531 43.414062 L 10.226562 43.414062 C 8.7764598 43.414062 7.534675 42.940937 6.5019531 41.990234 C 5.469458 41.039078 4.953125 39.895363 4.953125 38.560547 L 4.953125 14.712891 L 0.734375 14.712891 z M 23.869141 29.867188 L 23.869141 31.367188 L 25.464844 31.367188 L 25.464844 29.867188 L 23.869141 29.867188 z M 27.191406 29.867188 L 27.191406 32.085938 L 26.412109 32.085938 L 26.412109 33.539062 L 27.191406 33.539062 L 27.191406 38.734375 L 28.787109 38.734375 L 28.787109 33.539062 L 29.748047 33.539062 L 29.748047 32.085938 L 28.787109 32.085938 L 28.787109 29.867188 L 27.191406 29.867188 z M 20.423828 31.931641 C 19.187828 31.931641 18.214844 32.818965 18.214844 33.958984 C 18.214844 34.930965 18.744453 35.483715 20.064453 35.927734 C 20.676453 36.131829 20.724578 36.155577 20.892578 36.263672 C 21.084578 36.383483 21.191406 36.56341 21.191406 36.779297 C 21.191406 37.151202 20.878703 37.427734 20.470703 37.427734 C 20.002703 37.427734 19.739984 37.187028 19.583984 36.623047 L 17.976562 36.623047 C 18.048562 37.271047 18.155922 37.606797 18.419922 37.966797 C 18.851922 38.542797 19.608109 38.890625 20.412109 38.890625 C 21.744109 38.890625 22.787109 37.895047 22.787109 36.623047 C 22.787109 36.047047 22.572062 35.566206 22.164062 35.242188 C 21.912063 35.025999 21.515453 34.859669 20.939453 34.679688 C 20.291453 34.475593 20.290766 34.474155 20.134766 34.402344 C 19.918766 34.306344 19.8125 34.150871 19.8125 33.958984 C 19.8125 33.635079 20.075828 33.394531 20.423828 33.394531 C 20.759828 33.394531 20.974875 33.575734 21.046875 33.923828 L 22.607422 33.923828 C 22.583422 33.359847 22.450953 33.022109 22.126953 32.662109 C 21.706953 32.19409 21.083828 31.931641 20.423828 31.931641 z M 23.869141 32.085938 L 23.869141 38.734375 L 25.464844 38.734375 L 25.464844 32.085938 L 23.869141 32.085938 z "
       transform="matrix(0.26458333,0,0,0.26458333,0,284.29998)"
       id="path828" />
  </g>
</svg>
