<?xml version="1.0" encoding="UTF-8" standalone="no"?>
<!-- Created with Inkscape (http://www.inkscape.org/) -->

<svg
   xmlns:dc="http://purl.org/dc/elements/1.1/"
   xmlns:cc="http://creativecommons.org/ns#"
   xmlns:rdf="http://www.w3.org/1999/02/22-rdf-syntax-ns#"
   xmlns:svg="http://www.w3.org/2000/svg"
   xmlns="http://www.w3.org/2000/svg"
   xmlns:sodipodi="http://sodipodi.sourceforge.net/DTD/sodipodi-0.dtd"
   xmlns:inkscape="http://www.inkscape.org/namespaces/inkscape"
   width="48"
   height="48"
   viewBox="0 0 12.7 12.7"
   version="1.1"
   id="svg926"
   inkscape:version="0.92.3 (2405546, 2018-03-11)"
   sodipodi:docname="application-x-lha.svg">
  <defs
     id="defs920" />
  <sodipodi:namedview
     id="base"
     pagecolor="#ffffff"
     bordercolor="#666666"
     borderopacity="1.0"
     inkscape:pageopacity="0.0"
     inkscape:pageshadow="2"
     inkscape:zoom="7.2920387"
     inkscape:cx="-18.680602"
     inkscape:cy="24"
     inkscape:document-units="mm"
     inkscape:current-layer="layer1"
     showgrid="false"
     units="px"
     inkscape:window-width="1366"
     inkscape:window-height="719"
     inkscape:window-x="0"
     inkscape:window-y="25"
     inkscape:window-maximized="1"
     showguides="true"
     inkscape:guide-bbox="true"
     inkscape:snap-global="false" />
  <metadata
     id="metadata923">
    <rdf:RDF>
      <cc:Work
         rdf:about="">
        <dc:format>image/svg+xml</dc:format>
        <dc:type
           rdf:resource="http://purl.org/dc/dcmitype/StillImage" />
        <dc:title></dc:title>
      </cc:Work>
    </rdf:RDF>
  </metadata>
  <g
     inkscape:label="Capa 1"
     inkscape:groupmode="layer"
     id="layer1"
     transform="translate(0,-284.29998)">
    <path
       style="opacity:1;fill:#e6e6e6;fill-opacity:1;stroke:none;stroke-width:1.13564169"
       d="M 4.5917969 3.234375 L 0.53515625 13.837891 L 23.365234 13.837891 L 23.365234 3.234375 L 4.5917969 3.234375 z M 24.146484 3.234375 L 24.146484 13.837891 L 47.259766 13.837891 L 43.095703 3.234375 L 24.146484 3.234375 z M 0.734375 14.712891 L 0.734375 38.560547 C 0.734375 40.967577 1.6633574 43.026545 3.5195312 44.736328 C 5.3762887 46.445922 7.6123767 47.300781 10.226562 47.300781 L 37.644531 47.300781 C 40.25872 47.300781 42.494235 46.445922 44.351562 44.736328 C 46.208203 43.026545 47.134766 40.967652 47.134766 38.560547 L 47.134766 14.712891 L 42.917969 14.712891 L 42.917969 38.560547 L 42.916016 38.560547 C 42.916016 39.895363 42.401636 41.039003 41.369141 41.990234 C 40.336653 42.940937 39.095098 43.414062 37.644531 43.414062 L 10.226562 43.414062 C 8.7764598 43.414062 7.534675 42.940937 6.5019531 41.990234 C 5.469458 41.039078 4.953125 39.895363 4.953125 38.560547 L 4.953125 14.712891 L 0.734375 14.712891 z M 14.851562 29.806641 L 14.851562 38.675781 L 16.447266 38.675781 L 16.447266 29.806641 L 14.851562 29.806641 z M 18.652344 29.806641 L 18.652344 38.675781 L 20.248047 38.675781 L 20.248047 35.302734 C 20.248047 34.642753 20.308563 34.270684 20.476562 33.970703 C 20.704563 33.562703 21.124344 33.335938 21.652344 33.335938 C 22.588344 33.335938 22.947266 33.887297 22.947266 35.279297 L 22.947266 38.675781 L 24.542969 38.675781 L 24.542969 34.919922 C 24.542969 33.947941 24.423609 33.407997 24.099609 32.916016 C 23.655609 32.231997 22.887453 31.859375 21.939453 31.859375 C 21.255453 31.859375 20.728047 32.052375 20.248047 32.484375 L 20.248047 29.806641 L 18.652344 29.806641 z M 29.236328 31.714844 C 27.268328 31.714844 25.851562 33.190731 25.851562 35.21875 C 25.851562 37.222731 27.255219 38.675781 29.199219 38.675781 C 30.135219 38.675781 30.772203 38.376174 31.408203 37.65625 L 31.408203 38.519531 L 32.871094 38.519531 L 32.871094 31.871094 L 31.408203 31.871094 L 31.408203 32.759766 C 30.856203 32.027785 30.196328 31.714844 29.236328 31.714844 z M 29.404297 33.179688 C 30.544297 33.179688 31.359375 34.032122 31.359375 35.244141 C 31.359375 35.724141 31.166906 36.275328 30.878906 36.611328 C 30.554906 36.995328 30.039734 37.210938 29.427734 37.210938 C 28.263734 37.210938 27.458984 36.419878 27.458984 35.255859 C 27.458984 34.043878 28.264297 33.179688 29.404297 33.179688 z "
       transform="matrix(0.26458333,0,0,0.26458333,0,284.29998)"
       id="path828" />
  </g>
</svg>
