<?xml version="1.0" encoding="UTF-8" standalone="no"?>
<!-- Created with Inkscape (http://www.inkscape.org/) -->

<svg
   xmlns:dc="http://purl.org/dc/elements/1.1/"
   xmlns:cc="http://creativecommons.org/ns#"
   xmlns:rdf="http://www.w3.org/1999/02/22-rdf-syntax-ns#"
   xmlns:svg="http://www.w3.org/2000/svg"
   xmlns="http://www.w3.org/2000/svg"
   xmlns:sodipodi="http://sodipodi.sourceforge.net/DTD/sodipodi-0.dtd"
   xmlns:inkscape="http://www.inkscape.org/namespaces/inkscape"
   width="48"
   height="48"
   viewBox="0 0 12.7 12.7"
   version="1.1"
   id="svg926"
   inkscape:version="0.92.3 (2405546, 2018-03-11)"
   sodipodi:docname="application-x-shar.svg">
  <defs
     id="defs920" />
  <sodipodi:namedview
     id="base"
     pagecolor="#ffffff"
     bordercolor="#666666"
     borderopacity="1.0"
     inkscape:pageopacity="0.0"
     inkscape:pageshadow="2"
     inkscape:zoom="7.2920387"
     inkscape:cx="-18.680602"
     inkscape:cy="24"
     inkscape:document-units="mm"
     inkscape:current-layer="layer1"
     showgrid="false"
     units="px"
     inkscape:window-width="1366"
     inkscape:window-height="719"
     inkscape:window-x="0"
     inkscape:window-y="25"
     inkscape:window-maximized="1"
     showguides="true"
     inkscape:guide-bbox="true"
     inkscape:snap-global="false" />
  <metadata
     id="metadata923">
    <rdf:RDF>
      <cc:Work
         rdf:about="">
        <dc:format>image/svg+xml</dc:format>
        <dc:type
           rdf:resource="http://purl.org/dc/dcmitype/StillImage" />
        <dc:title></dc:title>
      </cc:Work>
    </rdf:RDF>
  </metadata>
  <g
     inkscape:label="Capa 1"
     inkscape:groupmode="layer"
     id="layer1"
     transform="translate(0,-284.29998)">
    <path
       style="opacity:1;fill:#e6e6e6;fill-opacity:1;stroke:none;stroke-width:1.13564169"
       d="M 4.5917969 3.234375 L 0.53515625 13.837891 L 23.365234 13.837891 L 23.365234 3.234375 L 4.5917969 3.234375 z M 24.146484 3.234375 L 24.146484 13.837891 L 47.259766 13.837891 L 43.095703 3.234375 L 24.146484 3.234375 z M 0.734375 14.712891 L 0.734375 38.560547 C 0.734375 40.967577 1.6633574 43.026545 3.5195312 44.736328 C 5.3762887 46.445922 7.6123767 47.300781 10.226562 47.300781 L 37.644531 47.300781 C 40.25872 47.300781 42.494235 46.445922 44.351562 44.736328 C 46.208203 43.026545 47.134766 40.967652 47.134766 38.560547 L 47.134766 14.712891 L 42.917969 14.712891 L 42.917969 38.560547 L 42.916016 38.560547 C 42.916016 39.895363 42.401636 41.039003 41.369141 41.990234 C 40.336653 42.940937 39.095098 43.414062 37.644531 43.414062 L 10.226562 43.414062 C 8.7764598 43.414062 7.534675 42.940937 6.5019531 41.990234 C 5.469458 41.039078 4.953125 39.895363 4.953125 38.560547 L 4.953125 14.712891 L 0.734375 14.712891 z M 17.326172 29.867188 L 17.326172 38.734375 L 18.921875 38.734375 L 18.921875 35.363281 C 18.921875 34.703262 18.982391 34.331269 19.150391 34.03125 C 19.378391 33.623288 19.798172 33.394531 20.326172 33.394531 C 21.262182 33.394531 21.621094 33.945891 21.621094 35.337891 L 21.621094 38.734375 L 23.216797 38.734375 L 23.216797 34.978516 C 23.216797 34.006497 23.097438 33.46659 22.773438 32.974609 C 22.329438 32.29059 21.561281 31.917969 20.613281 31.917969 C 19.929281 31.917969 19.401875 32.110969 18.921875 32.542969 L 18.921875 29.867188 L 17.326172 29.867188 z M 14.080078 31.931641 C 12.844078 31.931641 11.873047 32.819041 11.873047 33.958984 C 11.873047 34.931003 12.400703 35.483753 13.720703 35.927734 C 14.332703 36.131829 14.380828 36.155577 14.548828 36.263672 C 14.740828 36.383483 14.849609 36.56341 14.849609 36.779297 C 14.849609 37.151202 14.536906 37.427734 14.128906 37.427734 C 13.660906 37.427734 13.396234 37.187066 13.240234 36.623047 L 11.632812 36.623047 C 11.704813 37.271047 11.812172 37.606835 12.076172 37.966797 C 12.508172 38.542797 13.264359 38.890625 14.068359 38.890625 C 15.400359 38.890625 16.445312 37.895009 16.445312 36.623047 C 16.445312 36.047047 16.228313 35.566169 15.820312 35.242188 C 15.568313 35.026376 15.171693 34.859669 14.595703 34.679688 C 13.947703 34.475593 13.948979 34.474155 13.792969 34.402344 C 13.576969 34.306344 13.46875 34.150871 13.46875 33.958984 C 13.46875 33.635079 13.732078 33.394531 14.080078 33.394531 C 14.416078 33.394531 14.633078 33.573781 14.705078 33.921875 L 16.263672 33.921875 C 16.239672 33.357894 16.109156 33.022109 15.785156 32.662109 C 15.365156 32.194128 14.740078 31.931641 14.080078 31.931641 z M 27.617188 31.931641 C 25.649188 31.931641 24.234375 33.407566 24.234375 35.435547 C 24.234375 37.439528 25.638031 38.890625 27.582031 38.890625 C 28.518041 38.890625 29.153063 38.59098 29.789062 37.871094 L 29.789062 38.734375 L 31.253906 38.734375 L 31.253906 32.085938 L 29.789062 32.085938 L 29.789062 32.974609 C 29.237063 32.242628 28.577188 31.931641 27.617188 31.931641 z M 35.970703 31.931641 C 35.286703 31.931641 34.95125 32.122356 34.53125 32.734375 L 34.53125 32.085938 L 33.066406 32.085938 L 33.066406 38.734375 L 34.662109 38.734375 L 34.662109 35.039062 C 34.662109 34.007062 35.129844 33.490797 36.089844 33.466797 L 36.089844 31.931641 L 35.970703 31.931641 z M 27.785156 33.394531 C 28.925156 33.394531 29.742188 34.247041 29.742188 35.458984 C 29.742188 35.938984 29.549719 36.490172 29.261719 36.826172 C 28.937719 37.210172 28.422537 37.425781 27.810547 37.425781 C 26.646547 37.425781 25.841797 36.634684 25.841797 35.470703 C 25.841797 34.258722 26.645166 33.394531 27.785156 33.394531 z "
       transform="matrix(0.26458333,0,0,0.26458333,0,284.29998)"
       id="path828" />
  </g>
</svg>
