<svg xmlns="http://www.w3.org/2000/svg" width="48" height="48"><defs><linearGradient id="a"><stop offset="0" stop-color="#dc85e9"/><stop offset="1" stop-color="#f2cbf8"/></linearGradient><linearGradient id="b"><stop offset="0" stop-color="#dc85e9"/><stop offset="1" stop-color="#f2cbf8"/></linearGradient><linearGradient id="c"><stop offset="0" stop-color="#fff" stop-opacity=".588"/><stop offset="1" stop-color="#fff" stop-opacity=".863"/></linearGradient><linearGradient id="d"><stop offset="0" stop-color="#b3b3b3"/><stop offset="1" stop-color="#e6e6e6"/></linearGradient><linearGradient id="e"><stop offset="0" stop-color="#e694bb"/><stop offset=".262" stop-color="#d3819a"/><stop offset=".705" stop-color="#b25a64"/><stop offset="1" stop-color="#98313d"/></linearGradient></defs><path style="line-height:normal;text-indent:0;text-align:start;text-decoration-line:none;text-transform:none;marker:none" d="M29.705-.084c-2.047.008-4.121.088-4.517.098H7a2.938 2.938 0 0 0-.563 0C5.063.276 3.975 1.612 4 3.012V45c0 1.57 1.43 3 3 3h34c1.57 0 3-1.43 3-3V18.818c.018-.792.215-9.927-.336-10.496L34.054.248c-.284-.275-2.302-.34-4.349-.332zm1.49 3.094l.133 7.504c.012.681.638 1.29 1.317 1.279l7.771-.137c.133.018.268.017.4-.006l.082 3.03L41 18.77v4.004c-.867-2.982-2.135-5.375-3.201-7.927l-5.309 2.187c1.22 2.47 2.817 4.934 3.381 6.156 1.578 3.423 2.155 4.954 2.024 7.563-.128 2.522-1.01 4.044-2.561 5.531-1.55 1.487-3.665 2.257-6.227 1.906-5.425-.742-7.17-4.803-7.3-6.78-.107-1.627 1.046-5.634 5.214-5.438 2.89.136 4.514 1.72 4.71 4.406.143 1.98-1.793 3.979-4.93 2.969-.505-.163-.54.732.031 1.187 1.47 1.17 7.32.723 7.3-3.875-.017-4.26-3.496-7.137-6.825-7.156-6.974-.04-8.313 5.433-8.06 9.187.278 4.16 5.552 9.189 11.567 9.188 3.736 0 8.217-2.67 10.186-7.068V44.998H7V3.021h18.672l5.523-.011z" color="#000" font-weight="400" font-family="Andale Mono" overflow="visible" fill="#e6e6e6"/><path d="M17.318 14.848c-3.86 0-8.508 2.839-10.367 7.5v10.875c.864 3.33 2.23 5.897 3.382 8.656l5.31-2.187c-1.219-2.47-2.818-4.934-3.382-6.156-1.578-3.423-2.154-4.954-2.023-7.563.128-2.522 1.01-4.076 2.56-5.562 1.551-1.487 3.665-2.226 6.227-1.875 5.426.743 7.172 4.803 7.301 6.78.107 1.628-1.046 5.634-5.215 5.438-2.89-.136-4.514-1.75-4.71-4.437-.143-1.98 1.795-3.948 4.931-2.938.505.163.54-.733-.031-1.187-1.47-1.17-7.29-.723-7.27 3.875.019 4.26 3.466 7.106 6.796 7.125 6.973.04 8.311-5.403 8.06-9.156-.28-4.16-5.554-9.189-11.569-9.188z" opacity=".75" fill="#999" fill-rule="evenodd"/></svg>