<svg xmlns="http://www.w3.org/2000/svg" width="48" height="48" viewBox="0 0 12.7 12.7"><path d="M1.215.856L.142 3.66h6.04V.856H1.215zm5.174 0V3.66h6.115L11.402.856H6.39zM.194 3.893v6.31c0 .636.246 1.181.737 1.633.491.453 1.083.679 1.775.679H9.96c.692 0 1.283-.226 1.775-.679.49-.452.736-.997.736-1.634v-6.31h-1.116v6.31c0 .354-.136.656-.41.908a1.403 1.403 0 0 1-.985.377H2.706c-.384 0-.712-.126-.986-.377a1.19 1.19 0 0 1-.41-.908v-6.31H.195zm6.121 4.01v.396h.423v-.397h-.423zm.88 0v.586h-.207v.385h.206v1.374h.423V8.874h.254v-.385h-.254v-.587h-.423zm-1.791.546c-.327 0-.585.234-.585.536 0 .257.14.403.49.52.162.055.174.061.219.09.05.031.079.08.079.136 0 .099-.083.172-.19.172-.125 0-.194-.064-.235-.213h-.426c.02.171.048.26.118.355a.66.66 0 0 0 .527.245c.352 0 .628-.264.628-.6a.449.449 0 0 0-.165-.366c-.066-.057-.171-.1-.324-.148-.171-.054-.171-.055-.213-.074-.057-.025-.085-.066-.085-.117 0-.086.07-.15.162-.15.089 0 .146.049.165.14h.413a.472.472 0 0 0-.128-.333.603.603 0 0 0-.45-.193zm.911.04v1.76h.423v-1.76h-.423z" fill="#e6e6e6"/></svg>