<svg xmlns="http://www.w3.org/2000/svg" width="48" height="48" viewBox="0 0 12.7 12.7"><path d="M1.215.856L.142 3.66h6.04V.856H1.215zm5.174 0V3.66h6.115L11.402.856H6.39zM.194 3.893v6.31c0 .636.246 1.181.737 1.633.491.453 1.083.679 1.775.679H9.96c.692 0 1.283-.226 1.775-.679.49-.452.736-.997.736-1.634v-6.31h-1.116v6.31c0 .354-.136.656-.41.908a1.403 1.403 0 0 1-.985.377H2.706c-.384 0-.712-.126-.986-.377a1.19 1.19 0 0 1-.41-.908v-6.31H.195zm2.6 4.01v2.345h.423V7.902h-.422zm3.336.546c-.206 0-.333.057-.457.206v-.166h-.388v1.76h.423v-.867c0-.175.016-.292.044-.365.05-.115.16-.181.299-.181.114 0 .212.04.27.11.05.067.073.172.073.337v.965h.422v-.866c0-.197.016-.295.06-.378.054-.108.162-.168.296-.168.104 0 .193.038.25.108.057.066.08.165.08.34v.964h.422V9.233c0-.213-.038-.385-.114-.505-.111-.178-.333-.28-.597-.28-.248 0-.422.083-.565.273-.121-.19-.276-.272-.518-.272zm2.958 0c-.52 0-.896.39-.896.927 0 .53.372.914.886.914.248 0 .416-.08.584-.27v.228h.388V8.49h-.388v.236c-.146-.194-.32-.276-.574-.276zm-5.364.04v.379h.686L3.635 9.87v.377h1.34v-.377H4.14l.774-1.003v-.379h-1.19zm5.408.347c.302 0 .518.225.518.546 0 .127-.051.273-.128.362a.49.49 0 0 1-.384.158c-.308 0-.52-.21-.52-.517 0-.32.213-.55.514-.55z" fill="#e6e6e6"/></svg>