<svg xmlns="http://www.w3.org/2000/svg" width="48" height="48" viewBox="0 0 12.7 12.7"><path d="M1.215.856L.142 3.66h6.04V.856H1.215zm5.174 0V3.66h6.115L11.402.856H6.39zM.194 3.893v6.31c0 .636.246 1.181.737 1.633.491.453 1.083.679 1.775.679H9.96c.692 0 1.283-.226 1.775-.679.49-.452.736-.997.736-1.634v-6.31h-1.116v6.31c0 .354-.136.656-.41.908a1.403 1.403 0 0 1-.985.377H2.706c-.384 0-.712-.126-.986-.377a1.19 1.19 0 0 1-.41-.908v-6.31H.195zm6.467.86l-.156.013c-.262.024.142.004.156-.013zm-.385.041c-.03-.029-.336.102-.286.017a4.26 4.26 0 0 0-.771.368 1.964 1.964 0 0 0-.525.422c-.183.164-.218.427-.384.596-.143.166-.219.504-.302.745.044.212 0 .43.016.646-.05.885.35 1.766.997 2.362.441.423 1.04.708 1.66.67-.203-.077-.46-.049-.638-.203-.062-.047-.161-.173-.195-.182.088.163-.214-.094-.276-.09.114-.108-.18-.13-.199-.265-.164.057-.203-.301-.256-.24-.046-.07-.312-.349-.203-.36-.122-.119-.13-.279-.232-.46.126.144.104-.008.021-.116-.106-.075-.352-.224-.265-.355-.054-.08-.08-.164-.051-.259-.127-.25-.07-.551-.044-.821.008-.182.028-.364.128-.52.011-.075.166-.22.063-.242a2.33 2.33 0 0 1 .553-.582c.047-.043.386-.155.213-.127.029-.145.353-.18.491-.25-.253.058.019-.038.12-.1.04-.075.52-.147.264-.064.03-.009.438-.09.624-.037.477.042.88.365 1.119.766.122.182.168.43.215.618-.006.22.03.445-.041.658.109-.231.006.197-.041.256-.177.065-.062.306-.272.368-.06.071-.355.286-.209.108-.12.113-.262.206-.413.221-.58.183-1.22-.363-1.204-.955-.042.072-.04-.07-.024-.15.048-.489.567-.85 1.042-.73.1-.028.469.297.281.1-.33-.366-1.003-.304-1.24.134-.135.102-.15.28-.228.416-.052.279-.02.589.15.824.095.206.388.302.453.492-.122-.009-.48-.421-.297-.178.222.228-.087-.035-.147-.13-.163-.181-.03.046.05.11.297.28.735.499 1.148.376-.246-.014-.563.016-.741-.203.342.117.755.153 1.1-.005.232-.089.419-.276.592-.429-.035.241.022-.148.091-.199.09.168.05-.053.119-.12.076-.095.14-.572.125-.225-.062.243.045-.057.015-.14-.017-.17.025-.048.052.043-.05-.12.1-.359.033-.385-.06-.16.003-.257-.095-.418.147.22.026-.14.009-.225-.077.03-.168-.212 0-.173.085-.011.163.329.209.444.086.306-.017-.154-.05-.225-.019-.055-.076-.355.022-.173-.096-.343-.323-.637-.592-.865-.068-.065-.452-.332-.223-.116-.136-.065-.234-.246-.416-.16-.137-.045-.275-.125-.42-.16-.192-.095-.189-.014-.362-.027-.079.017-.374.042-.133-.018.26-.042-.208-.06.018-.025.065.023-.145.026-.186.014-.135 0-.175.007-.032-.066v-.001zM4.132 6.007l-.002.05c-.127.238.166-.05.002-.05zm-.103.443c-.127.248-.01.28 0 0zm3.455.653l-.022.03c-.01.209.101.031.022-.03zm1.072.294c-.056.194-.092.398-.186.58.097-.174.158-.38.186-.58zm-1.126.067c-.038.074-.06.193-.16.214.023.075.178-.097.16-.214zm-.096.06c-.008.007-.026.03-.061.076a.149.149 0 0 0-.004.078c.015-.061.088-.177.065-.154zm-.3.312a.558.558 0 0 1-.161.016c-.277-.04.112.171.16-.016zm-1.23.012c.001.04.024.077.042.112.125.222.017-.039-.042-.112zm-.079.137c-.044.125.12.228.187.318a3.81 3.81 0 0 0-.187-.318z" fill="#e6e6e6"/></svg>