<?xml version="1.0" encoding="UTF-8" standalone="no"?>
<!-- Created with Inkscape (http://www.inkscape.org/) -->

<svg
   xmlns:dc="http://purl.org/dc/elements/1.1/"
   xmlns:cc="http://creativecommons.org/ns#"
   xmlns:rdf="http://www.w3.org/1999/02/22-rdf-syntax-ns#"
   xmlns:svg="http://www.w3.org/2000/svg"
   xmlns="http://www.w3.org/2000/svg"
   xmlns:sodipodi="http://sodipodi.sourceforge.net/DTD/sodipodi-0.dtd"
   xmlns:inkscape="http://www.inkscape.org/namespaces/inkscape"
   width="48"
   height="48"
   viewBox="0 0 12.7 12.7"
   version="1.1"
   id="svg926"
   inkscape:version="0.92.3 (2405546, 2018-03-11)"
   sodipodi:docname="application-x-rpm.svg">
  <defs
     id="defs920" />
  <sodipodi:namedview
     id="base"
     pagecolor="#ffffff"
     bordercolor="#666666"
     borderopacity="1.0"
     inkscape:pageopacity="0.0"
     inkscape:pageshadow="2"
     inkscape:zoom="11.145833"
     inkscape:cx="24"
     inkscape:cy="24"
     inkscape:document-units="mm"
     inkscape:current-layer="layer1"
     showgrid="false"
     units="px"
     inkscape:window-width="1366"
     inkscape:window-height="719"
     inkscape:window-x="0"
     inkscape:window-y="25"
     inkscape:window-maximized="1"
     showguides="true"
     inkscape:guide-bbox="true"
     inkscape:snap-global="false" />
  <metadata
     id="metadata923">
    <rdf:RDF>
      <cc:Work
         rdf:about="">
        <dc:format>image/svg+xml</dc:format>
        <dc:type
           rdf:resource="http://purl.org/dc/dcmitype/StillImage" />
        <dc:title></dc:title>
      </cc:Work>
    </rdf:RDF>
  </metadata>
  <g
     inkscape:label="Capa 1"
     inkscape:groupmode="layer"
     id="layer1"
     transform="translate(0,-284.29998)">
    <path
       style="opacity:1;fill:#e6e6e6;fill-opacity:1;stroke:none;stroke-width:1.13564169"
       d="M 4.5917969 3.234375 L 0.53515625 13.837891 L 23.365234 13.837891 L 23.365234 3.234375 L 4.5917969 3.234375 z M 24.146484 3.234375 L 24.146484 13.837891 L 47.259766 13.837891 L 43.095703 3.234375 L 24.146484 3.234375 z M 0.734375 14.712891 L 0.734375 38.560547 C 0.734375 40.967577 1.6633574 43.026545 3.5195312 44.736328 C 5.3762887 46.445922 7.6123767 47.300781 10.226562 47.300781 L 37.644531 47.300781 C 40.25872 47.300781 42.494235 46.445922 44.351562 44.736328 C 46.208203 43.026545 47.134766 40.967652 47.134766 38.560547 L 47.134766 14.712891 L 42.917969 14.712891 L 42.917969 38.560547 L 42.916016 38.560547 C 42.916016 39.895363 42.401636 41.039003 41.369141 41.990234 C 40.336653 42.940937 39.095098 43.414062 37.644531 43.414062 L 10.226562 43.414062 C 8.7764598 43.414062 7.534675 42.940937 6.5019531 41.990234 C 5.469458 41.039078 4.953125 39.895363 4.953125 38.560547 L 4.953125 14.712891 L 0.734375 14.712891 z M 23.197266 18.115234 C 16.449866 18.112022 10.249991 20.573384 7.4628906 24.359375 C 6.5255806 25.63266 5.8496094 27.24866 5.8496094 28.224609 L 5.8515625 28.226562 C 5.8515625 28.586071 5.8768708 28.878906 5.9082031 28.878906 C 5.9395033 28.878906 7.1507093 28.667479 8.5996094 28.408203 C 10.048509 28.148814 11.279736 27.936 11.335938 27.935547 C 11.392139 27.935056 11.433996 27.319515 11.429688 26.566406 C 11.423568 25.486935 11.520858 24.996444 11.884766 24.251953 C 14.040766 19.842265 22.315075 17.598485 28.609375 19.716797 L 29.931641 20.162109 L 30.753906 19.152344 L 29.964844 18.910156 C 28.492344 18.456726 25.594866 18.11633 23.197266 18.115234 z M 23.244141 25.34375 C 23.177965 25.352201 23.105075 25.371319 23.023438 25.398438 C 22.771618 25.481965 22.309665 25.534649 21.998047 25.519531 L 21.431641 25.490234 L 21.998047 25.699219 C 22.309677 25.813852 22.705124 26.028443 22.876953 26.177734 C 23.108783 26.379183 23.280384 26.398599 23.539062 26.251953 C 23.802163 26.102624 26.041622 26.441619 32.669922 27.632812 C 41.914355 29.294293 42.295246 29.355042 42.007812 29.097656 C 41.909114 29.009291 40.554193 28.715927 38.996094 28.445312 C 24.779791 25.975505 23.889594 25.804888 23.689453 25.53125 C 23.577538 25.378179 23.442668 25.318398 23.244141 25.34375 z M 14.162109 29.765625 L 14.162109 34.351562 L 14.162109 38.9375 L 15.341797 38.808594 C 17.317256 38.590326 17.373047 38.561558 17.373047 37.777344 L 17.373047 37.083984 L 18.705078 36.875 C 20.348578 36.616216 22.309779 35.678321 22.943359 34.847656 C 23.297249 34.383644 23.416016 33.996393 23.416016 33.314453 C 23.416016 32.486699 23.341466 32.332074 22.603516 31.625 C 21.411416 30.482865 19.851135 30.022528 16.677734 29.878906 L 14.162109 29.765625 z M 25.681641 29.789062 L 25.681641 33.394531 L 25.681641 37 L 27.287109 37 L 28.892578 37 L 28.892578 33.789062 L 28.892578 30.580078 L 30.193359 30.580078 C 31.206269 30.580078 31.522139 30.644512 31.611328 30.876953 C 31.674378 31.041249 31.724609 32.486316 31.724609 34.087891 L 31.724609 37 L 33.236328 37 L 34.746094 37 L 34.746094 33.78125 L 34.746094 30.5625 L 37.486328 30.673828 L 37.537109 33.837891 L 37.589844 37 L 39.189453 37 L 40.791016 37 L 40.791016 33.78125 L 40.791016 30.560547 L 40.082031 30.246094 C 39.475633 29.977747 38.389643 29.923312 32.527344 29.861328 L 25.681641 29.789062 z M 8.6835938 29.892578 L 5.7578125 29.917969 L 5.7050781 33.458984 L 5.6542969 37 L 7.2636719 37 L 8.8730469 37 L 8.8730469 34.097656 L 8.8730469 31.193359 L 9.4179688 31.083984 C 9.7174487 31.02389 10.271588 31.060125 10.648438 31.164062 C 11.241518 31.328018 11.438953 31.289212 12.126953 30.878906 L 12.921875 30.40625 L 12.267578 30.134766 C 11.784278 29.935207 10.842794 29.87368 8.6835938 29.892578 z M 17.373047 30.554688 L 17.796875 30.685547 C 18.393675 30.870857 19.14758 31.428619 19.71875 32.107422 C 20.65533 33.220417 20.241488 34.738637 18.742188 35.689453 C 18.260107 35.995066 17.75461 36.246094 17.619141 36.246094 C 17.427522 36.246094 17.373047 35.61406 17.373047 33.400391 L 17.373047 30.554688 z "
       transform="matrix(0.26458333,0,0,0.26458333,0,284.29998)"
       id="path828" />
    <path
       inkscape:connector-curvature="0"
       style="opacity:0.75;fill:#666666;stroke-width:0.26458332"
       d="m 8.1176323,289.36908 -0.2042213,0.26415 c 0.5744104,0.24223 1.0193602,0.62314 1.2283017,1.03931 0.12056,0.24011 0.1402291,0.64764 0.1300453,0.78174 l -0.017931,0.23614 c 0.5666317,0.10065 1.277461,0.22785 1.555062,0.27308 0,0 -9.79e-4,-0.0802 -0.04009,-0.31412 -0.05731,-0.34282 -0.350599,-0.87191 -0.656272,-1.1825 -0.5231346,-0.53155 -1.0817494,-0.85884 -1.9948794,-1.09781 z"
       id="path1399" />
  </g>
</svg>
