<?xml version="1.0" encoding="UTF-8" standalone="no"?><svg xmlns:dc="http://purl.org/dc/elements/1.1/" xmlns:cc="http://creativecommons.org/ns#" xmlns:rdf="http://www.w3.org/1999/02/22-rdf-syntax-ns#" xmlns="http://www.w3.org/2000/svg" width="48" height="48"><metadata><rdf:RDF><cc:Work><dc:format>image/svg+xml</dc:format><dc:type rdf:resource="http://purl.org/dc/dcmitype/StillImage"/><dc:title/></cc:Work></rdf:RDF></metadata><path style="line-height:normal;text-indent:0;text-align:start;text-decoration-line:none;text-transform:none;marker:none" d="M29.7-.08c-2.04 0-4.12.08-4.51.1H7a2.94 2.94 0 0 0-.56 0 3.1 3.1 0 0 0-2.44 3V45c0 1.57 1.43 3 3 3h34c1.57 0 3-1.43 3-3V18.82c.02-.8.22-9.93-.34-10.5L34.06.25c-.29-.28-2.3-.34-4.35-.33h-.01zm1.5 3.09l.13 7.49c.01.68.64 1.3 1.31 1.28l7.78-.13h.4l.08 3.02.1 4.09V45H7V3.02h18.67l5.53-.01zM16.84 17.29v3.65h14.44v-3.65H16.84zm-3.58 5.4c-.94 0-1.82.95-1.82 1.89v7.16c0 .88.88 1.76 1.82 1.76h1.76v-3.58h1.88v8.79h14.26v-8.8h1.82v3.59h1.82a1.88 1.88 0 0 0 1.76-1.76v-7.22c0-.88-.88-1.82-1.76-1.82H13.26zm5.21 7.23h11.18v7.34H18.47v-7.34z" fill="#e6e6e6"/></svg>