<?xml version="1.0" encoding="UTF-8" standalone="no"?>
<!-- Created with Inkscape (http://www.inkscape.org/) -->

<svg
   xmlns:dc="http://purl.org/dc/elements/1.1/"
   xmlns:cc="http://creativecommons.org/ns#"
   xmlns:rdf="http://www.w3.org/1999/02/22-rdf-syntax-ns#"
   xmlns:svg="http://www.w3.org/2000/svg"
   xmlns="http://www.w3.org/2000/svg"
   xmlns:sodipodi="http://sodipodi.sourceforge.net/DTD/sodipodi-0.dtd"
   xmlns:inkscape="http://www.inkscape.org/namespaces/inkscape"
   width="48"
   height="48"
   viewBox="0 0 12.7 12.7"
   version="1.1"
   id="svg926"
   inkscape:version="0.92.3 (2405546, 2018-03-11)"
   sodipodi:docname="application-vnd.ms-cab-compressed.svg">
  <defs
     id="defs920" />
  <sodipodi:namedview
     id="base"
     pagecolor="#ffffff"
     bordercolor="#666666"
     borderopacity="1.0"
     inkscape:pageopacity="0.0"
     inkscape:pageshadow="2"
     inkscape:zoom="5.15625"
     inkscape:cx="-39.660606"
     inkscape:cy="24"
     inkscape:document-units="mm"
     inkscape:current-layer="layer1"
     showgrid="false"
     units="px"
     inkscape:window-width="1366"
     inkscape:window-height="719"
     inkscape:window-x="0"
     inkscape:window-y="25"
     inkscape:window-maximized="1"
     showguides="true"
     inkscape:guide-bbox="true"
     inkscape:snap-global="false" />
  <metadata
     id="metadata923">
    <rdf:RDF>
      <cc:Work
         rdf:about="">
        <dc:format>image/svg+xml</dc:format>
        <dc:type
           rdf:resource="http://purl.org/dc/dcmitype/StillImage" />
        <dc:title></dc:title>
      </cc:Work>
    </rdf:RDF>
  </metadata>
  <g
     inkscape:label="Capa 1"
     inkscape:groupmode="layer"
     id="layer1"
     transform="translate(0,-284.29998)">
    <path
       style="opacity:1;fill:#e6e6e6;fill-opacity:1;stroke:none;stroke-width:1.13564169"
       d="M 4.5917969 3.234375 L 0.53515625 13.837891 L 23.365234 13.837891 L 23.365234 3.234375 L 4.5917969 3.234375 z M 24.146484 3.234375 L 24.146484 13.837891 L 47.259766 13.837891 L 43.095703 3.234375 L 24.146484 3.234375 z M 0.734375 14.712891 L 0.734375 38.560547 C 0.734375 40.967577 1.6633573 43.026545 3.5195312 44.736328 C 5.3762885 46.445922 7.6123767 47.300781 10.226562 47.300781 L 37.644531 47.300781 C 40.258718 47.300781 42.494235 46.445922 44.351562 44.736328 C 46.208203 43.026545 47.134766 40.967652 47.134766 38.560547 L 47.134766 14.712891 L 42.917969 14.712891 L 42.917969 38.560547 L 42.916016 38.560547 C 42.916016 39.895363 42.401636 41.039003 41.369141 41.990234 C 40.336653 42.940937 39.095098 43.414062 37.644531 43.414062 L 10.226562 43.414062 C 8.7764598 43.414062 7.534675 42.940937 6.5019531 41.990234 C 5.469458 41.039078 4.953125 39.895363 4.953125 38.560547 L 4.953125 14.712891 L 0.734375 14.712891 z M 28.251953 29.767578 L 28.251953 38.634766 L 29.716797 38.634766 L 29.716797 37.783203 C 30.400797 38.515222 31.037484 38.791016 32.021484 38.791016 C 33.053484 38.791016 33.868469 38.406934 34.480469 37.626953 C 34.984469 36.978953 35.261719 36.151672 35.261719 35.263672 C 35.261719 33.259691 33.820109 31.746094 31.912109 31.746094 C 31.048109 31.746094 30.461609 31.987628 29.849609 32.599609 L 29.849609 29.767578 L 28.251953 29.767578 z M 15.859375 31.830078 C 13.891375 31.830078 12.355469 33.354566 12.355469 35.310547 C 12.355469 37.242566 13.940203 38.791016 15.908203 38.791016 C 17.456203 38.791016 18.655031 37.939172 19.207031 36.451172 L 17.408203 36.451172 C 17.012203 37.063153 16.556484 37.326172 15.896484 37.326172 C 14.792484 37.326172 13.962891 36.462809 13.962891 35.298828 C 13.962891 34.134809 14.755375 33.294922 15.859375 33.294922 C 16.579375 33.294922 17.084203 33.595126 17.408203 34.207031 L 19.207031 34.207031 C 18.979031 33.535031 18.764594 33.187597 18.308594 32.767578 C 17.660594 32.167578 16.783375 31.830078 15.859375 31.830078 z M 23.427734 31.830078 C 21.459734 31.830078 20.042969 33.306003 20.042969 35.333984 C 20.042969 37.338003 21.448578 38.791016 23.392578 38.791016 C 24.328578 38.791016 24.963609 38.491371 25.599609 37.771484 L 25.599609 38.634766 L 27.064453 38.634766 L 27.064453 31.986328 L 25.599609 31.986328 L 25.599609 32.875 C 25.047609 32.142981 24.387734 31.830078 23.427734 31.830078 z M 31.685547 33.210938 C 32.825547 33.210938 33.652344 34.087372 33.652344 35.275391 C 33.652344 36.487372 32.860703 37.326172 31.720703 37.326172 C 30.568703 37.326172 29.751953 36.475691 29.751953 35.263672 C 29.751953 34.063672 30.569547 33.210938 31.685547 33.210938 z M 23.595703 33.294922 C 24.735703 33.294922 25.552734 34.147394 25.552734 35.359375 C 25.552734 35.839375 25.360266 36.390563 25.072266 36.726562 C 24.748266 37.110563 24.231141 37.326172 23.619141 37.326172 C 22.455141 37.326172 21.652344 36.535075 21.652344 35.371094 C 21.652344 34.159075 22.455703 33.294922 23.595703 33.294922 z "
       transform="matrix(0.26458333,0,0,0.26458333,0,284.29998)"
       id="path828" />
  </g>
</svg>
