<?xml version="1.0" encoding="UTF-8" standalone="no"?>
<!-- Created with Inkscape (http://www.inkscape.org/) -->

<svg
   xmlns:dc="http://purl.org/dc/elements/1.1/"
   xmlns:cc="http://creativecommons.org/ns#"
   xmlns:rdf="http://www.w3.org/1999/02/22-rdf-syntax-ns#"
   xmlns:svg="http://www.w3.org/2000/svg"
   xmlns="http://www.w3.org/2000/svg"
   xmlns:sodipodi="http://sodipodi.sourceforge.net/DTD/sodipodi-0.dtd"
   xmlns:inkscape="http://www.inkscape.org/namespaces/inkscape"
   width="48"
   height="48"
   viewBox="0 0 12.7 12.7"
   version="1.1"
   id="svg926"
   inkscape:version="0.92.3 (2405546, 2018-03-11)"
   sodipodi:docname="application-7zip.svg">
  <defs
     id="defs920" />
  <sodipodi:namedview
     id="base"
     pagecolor="#ffffff"
     bordercolor="#666666"
     borderopacity="1.0"
     inkscape:pageopacity="0.0"
     inkscape:pageshadow="2"
     inkscape:zoom="7.2920387"
     inkscape:cx="-11.910405"
     inkscape:cy="24"
     inkscape:document-units="mm"
     inkscape:current-layer="layer1"
     showgrid="false"
     units="px"
     inkscape:window-width="1366"
     inkscape:window-height="719"
     inkscape:window-x="0"
     inkscape:window-y="25"
     inkscape:window-maximized="1"
     showguides="true"
     inkscape:guide-bbox="true"
     inkscape:snap-global="false" />
  <metadata
     id="metadata923">
    <rdf:RDF>
      <cc:Work
         rdf:about="">
        <dc:format>image/svg+xml</dc:format>
        <dc:type
           rdf:resource="http://purl.org/dc/dcmitype/StillImage" />
        <dc:title></dc:title>
      </cc:Work>
    </rdf:RDF>
  </metadata>
  <g
     inkscape:label="Capa 1"
     inkscape:groupmode="layer"
     id="layer1"
     transform="translate(0,-284.29998)">
    <path
       style="opacity:1;fill:#e6e6e6;fill-opacity:1;stroke:none;stroke-width:1.13564169"
       d="M 4.5917969 3.234375 L 0.53515625 13.837891 L 23.365234 13.837891 L 23.365234 3.234375 L 4.5917969 3.234375 z M 24.146484 3.234375 L 24.146484 13.837891 L 47.259766 13.837891 L 43.095703 3.234375 L 24.146484 3.234375 z M 0.734375 14.712891 L 0.734375 38.560547 C 0.734375 40.967577 1.6633573 43.026545 3.5195312 44.736328 C 5.3762885 46.445922 7.6123767 47.300781 10.226562 47.300781 L 37.644531 47.300781 C 40.258718 47.300781 42.494235 46.445922 44.351562 44.736328 C 46.208203 43.026545 47.134766 40.967652 47.134766 38.560547 L 47.134766 14.712891 L 42.917969 14.712891 L 42.917969 38.560547 L 42.916016 38.560547 C 42.916016 39.895363 42.401636 41.039003 41.369141 41.990234 C 40.336653 42.940937 39.095098 43.414062 37.644531 43.414062 L 10.226562 43.414062 C 8.7764598 43.414062 7.534675 42.940937 6.5019531 41.990234 C 5.469458 41.039078 4.953125 39.895363 4.953125 38.560547 L 4.953125 14.712891 L 0.734375 14.712891 z M 13.103516 29.857422 L 13.103516 31.357422 L 16.642578 31.357422 C 15.522579 33.813397 14.403206 36.270588 13.283203 38.726562 L 15.083984 38.726562 C 16.163984 36.270588 17.244219 33.813397 18.324219 31.357422 L 18.324219 29.857422 L 13.103516 29.857422 z M 25.228516 29.857422 L 25.228516 31.357422 L 26.826172 31.357422 L 26.826172 29.857422 L 25.228516 29.857422 z M 31.587891 31.925781 C 30.824109 31.9666 30.079488 32.26328 29.576172 32.857422 C 29.493971 32.606839 29.776462 31.991725 29.357422 32.078125 L 28.111328 32.078125 L 28.111328 40.945312 L 29.708984 40.945312 L 29.708984 38.101562 C 31.211686 39.561178 34.016315 38.867893 34.757812 36.931641 C 35.552061 35.194532 34.844023 32.760287 32.935547 32.121094 C 32.511533 31.968779 32.046158 31.901214 31.587891 31.925781 z M 19.626953 32.078125 L 19.626953 33.505859 L 22.21875 33.505859 C 21.242751 34.769847 20.267019 36.034841 19.291016 37.298828 L 19.291016 38.726562 L 24.353516 38.726562 L 24.353516 37.298828 L 21.197266 37.298828 C 22.173269 36.034841 23.150954 34.769847 24.126953 33.505859 L 24.126953 32.078125 L 19.626953 32.078125 z M 25.228516 32.078125 L 25.228516 38.726562 L 26.826172 38.726562 L 26.826172 32.078125 L 25.228516 32.078125 z M 31.556641 33.386719 C 33.035041 33.330026 33.924435 35.153016 33.240234 36.378906 C 32.669254 37.68462 30.646599 37.756802 29.9375 36.542969 C 29.091558 35.281098 29.952619 33.332634 31.556641 33.386719 z "
       transform="matrix(0.26458333,0,0,0.26458333,0,284.29998)"
       id="path828" />
  </g>
</svg>
