<?xml version="1.0" encoding="UTF-8" standalone="no"?><svg xmlns:dc="http://purl.org/dc/elements/1.1/" xmlns:cc="http://creativecommons.org/ns#" xmlns:rdf="http://www.w3.org/1999/02/22-rdf-syntax-ns#" xmlns="http://www.w3.org/2000/svg" width="48" height="48" viewBox="0 0 12.7 12.7"><metadata><rdf:RDF><cc:Work><dc:format>image/svg+xml</dc:format><dc:type rdf:resource="http://purl.org/dc/dcmitype/StillImage"/><dc:title/></cc:Work></rdf:RDF></metadata><path d="M1.21.86L.14 3.66h6.04V.86H1.21zm5.18 0v2.8h6.11L11.4.86H6.4zM.19 3.89v6.31c0 .64.25 1.18.74 1.64.5.45 1.08.67 1.78.67h7.25c.7 0 1.28-.22 1.78-.67.49-.46.73-1 .73-1.64V3.9h-1.12v6.3c0 .36-.13.66-.4.91a1.4 1.4 0 0 1-.99.38H2.71a1.4 1.4 0 0 1-.99-.38 1.19 1.19 0 0 1-.41-.9V3.88H.19zm1.85 3.57v.65H1.8v.43h.23v1.52h.47V8.54h.28V8.1H2.5v-.65h-.47zm1.9.6c-.58 0-1 .44-1 1.03 0 .6.42 1.02.99 1.02.27 0 .46-.09.65-.3v.25H5V8.11h-.43v.26a.73.73 0 0 0-.64-.3zm2.27 0c-.2 0-.3.06-.42.24v-.2h-.43v1.96h.47V8.98c0-.3.13-.46.42-.47v-.45H6.2zm1.17.05l.6.94-.7 1.01h.57l.4-.67.42.67h.56l-.7-1 .6-.95H8.6l-.34.59-.35-.6h-.53zm2.05 0v.42h.76l-.86 1.11v.42h1.49v-.42h-.93l.86-1.11V8.1H9.43zm-5.44.38c.33 0 .57.25.57.61 0 .14-.05.3-.14.4a.54.54 0 0 1-.43.18c-.34 0-.57-.23-.57-.58s.23-.6.57-.6zm2.56 1.12v.45h.47v-.45h-.47z" fill="#e6e6e6"/></svg>