<svg xmlns="http://www.w3.org/2000/svg" width="48" height="48" viewBox="0 0 12.7 12.7"><path d="M1.215.856L.142 3.66h6.04V.856H1.215zm5.174 0V3.66h6.115L11.402.856H6.39zM.194 3.893v6.31c0 .636.246 1.181.737 1.633.491.453 1.083.679 1.775.679H9.96c.692 0 1.283-.226 1.775-.679.49-.452.736-.997.736-1.634v-6.31h-1.116v6.31c0 .354-.136.656-.41.908a1.403 1.403 0 0 1-.985.377H2.706c-.384 0-.712-.126-.986-.377a1.19 1.19 0 0 1-.41-.908v-6.31H.195zM4.111 7.87v2.346h.422V7.87h-.422zm1.058 0v2.346h.422v-.892c0-.175.016-.273.06-.352.061-.108.172-.169.312-.169.248 0 .343.146.343.514v.899h.422v-.994c0-.257-.031-.4-.117-.53-.118-.181-.32-.28-.572-.28a.627.627 0 0 0-.448.166V7.87H5.17zm2.163.577v.378h.686l-.775 1.003v.378h1.34v-.378h-.835l.774-1.003v-.378h-1.19z" fill="#e6e6e6"/></svg>