<?xml version="1.0" encoding="UTF-8" standalone="no"?>
<!-- Created with Inkscape (http://www.inkscape.org/) -->

<svg
   xmlns:dc="http://purl.org/dc/elements/1.1/"
   xmlns:cc="http://creativecommons.org/ns#"
   xmlns:rdf="http://www.w3.org/1999/02/22-rdf-syntax-ns#"
   xmlns:svg="http://www.w3.org/2000/svg"
   xmlns="http://www.w3.org/2000/svg"
   xmlns:sodipodi="http://sodipodi.sourceforge.net/DTD/sodipodi-0.dtd"
   xmlns:inkscape="http://www.inkscape.org/namespaces/inkscape"
   width="48"
   height="48"
   viewBox="0 0 12.7 12.7"
   version="1.1"
   id="svg926"
   inkscape:version="0.92.3 (2405546, 2018-03-11)"
   sodipodi:docname="application-x-rar.svg">
  <defs
     id="defs920" />
  <sodipodi:namedview
     id="base"
     pagecolor="#ffffff"
     bordercolor="#666666"
     borderopacity="1.0"
     inkscape:pageopacity="0.0"
     inkscape:pageshadow="2"
     inkscape:zoom="7.2920387"
     inkscape:cx="-18.680602"
     inkscape:cy="24"
     inkscape:document-units="mm"
     inkscape:current-layer="layer1"
     showgrid="false"
     units="px"
     inkscape:window-width="1366"
     inkscape:window-height="719"
     inkscape:window-x="0"
     inkscape:window-y="25"
     inkscape:window-maximized="1"
     showguides="true"
     inkscape:guide-bbox="true"
     inkscape:snap-global="false" />
  <metadata
     id="metadata923">
    <rdf:RDF>
      <cc:Work
         rdf:about="">
        <dc:format>image/svg+xml</dc:format>
        <dc:type
           rdf:resource="http://purl.org/dc/dcmitype/StillImage" />
        <dc:title></dc:title>
      </cc:Work>
    </rdf:RDF>
  </metadata>
  <g
     inkscape:label="Capa 1"
     inkscape:groupmode="layer"
     id="layer1"
     transform="translate(0,-284.29998)">
    <path
       style="opacity:1;fill:#e6e6e6;fill-opacity:1;stroke:none;stroke-width:1.13564169"
       d="M 4.5917969 3.234375 L 0.53515625 13.837891 L 23.365234 13.837891 L 23.365234 3.234375 L 4.5917969 3.234375 z M 24.146484 3.234375 L 24.146484 13.837891 L 47.259766 13.837891 L 43.095703 3.234375 L 24.146484 3.234375 z M 0.734375 14.712891 L 0.734375 38.560547 C 0.734375 40.967577 1.6633574 43.026545 3.5195312 44.736328 C 5.3762887 46.445922 7.6123767 47.300781 10.226562 47.300781 L 37.644531 47.300781 C 40.25872 47.300781 42.494235 46.445922 44.351562 44.736328 C 46.208203 43.026545 47.134766 40.967652 47.134766 38.560547 L 47.134766 14.712891 L 42.917969 14.712891 L 42.917969 38.560547 L 42.916016 38.560547 C 42.916016 39.895363 42.401636 41.039003 41.369141 41.990234 C 40.336653 42.940937 39.095098 43.414062 37.644531 43.414062 L 10.226562 43.414062 C 8.7764598 43.414062 7.534675 42.940937 6.5019531 41.990234 C 5.469458 41.039078 4.953125 39.895363 4.953125 38.560547 L 4.953125 14.712891 L 0.734375 14.712891 z M 23.976562 29.664062 C 23.713679 29.650627 23.448609 29.669559 23.193359 29.71875 C 21.757959 29.921333 20.618303 31.191021 20.470703 32.617188 C 20.243013 34.060287 20.915293 35.682136 22.289062 36.302734 C 23.445263 36.846722 24.997294 36.752442 25.871094 35.738281 C 26.094063 35.44121 25.949064 36.087923 25.990234 36.257812 C 25.887095 36.59797 26.285089 36.437129 26.486328 36.472656 L 27.455078 36.472656 L 27.455078 29.824219 L 25.990234 29.824219 L 25.990234 30.710938 C 25.537347 30.035441 24.765213 29.704368 23.976562 29.664062 z M 19.902344 29.667969 C 19.269394 29.595024 18.649197 29.912455 18.341797 30.472656 C 18.296938 30.276121 18.435624 29.895727 18.265625 29.824219 L 16.878906 29.824219 L 16.878906 36.472656 L 18.474609 36.472656 C 18.487384 35.119963 18.447338 33.763404 18.496094 32.412109 C 18.521795 31.684361 19.197734 31.158829 19.902344 31.203125 L 19.902344 29.667969 z M 31.667969 29.667969 C 31.035019 29.595024 30.414822 29.912455 30.107422 30.472656 C 30.062563 30.276121 30.201249 29.895727 30.03125 29.824219 L 28.644531 29.824219 L 28.644531 36.472656 L 30.240234 36.472656 C 30.253009 35.119963 30.212963 33.763404 30.261719 32.412109 C 30.28742 31.684361 30.963359 31.158829 31.667969 31.203125 L 31.667969 29.667969 z M 23.986328 31.132812 C 25.006328 31.084057 25.898894 31.966319 25.933594 32.972656 C 26.038392 33.917198 25.455199 34.992225 24.449219 35.125 C 23.493459 35.340811 22.3662 34.818032 22.125 33.820312 C 21.810339 32.776105 22.349885 31.444963 23.478516 31.193359 C 23.644376 31.151785 23.81538 31.132812 23.986328 31.132812 z "
       transform="matrix(0.26458333,0,0,0.26458333,0,284.29998)"
       id="path828" />
  </g>
</svg>
