<?xml version="1.0" encoding="UTF-8" standalone="no"?>
<!-- Created with Inkscape (http://www.inkscape.org/) -->

<svg
   xmlns:dc="http://purl.org/dc/elements/1.1/"
   xmlns:cc="http://creativecommons.org/ns#"
   xmlns:rdf="http://www.w3.org/1999/02/22-rdf-syntax-ns#"
   xmlns:svg="http://www.w3.org/2000/svg"
   xmlns="http://www.w3.org/2000/svg"
   xmlns:sodipodi="http://sodipodi.sourceforge.net/DTD/sodipodi-0.dtd"
   xmlns:inkscape="http://www.inkscape.org/namespaces/inkscape"
   width="48"
   height="48"
   viewBox="0 0 12.7 12.7"
   version="1.1"
   id="svg926"
   inkscape:version="0.92.3 (2405546, 2018-03-11)"
   sodipodi:docname="deb.svg">
  <defs
     id="defs920" />
  <sodipodi:namedview
     id="base"
     pagecolor="#ffffff"
     bordercolor="#666666"
     borderopacity="1.0"
     inkscape:pageopacity="0.0"
     inkscape:pageshadow="2"
     inkscape:zoom="7.2920387"
     inkscape:cx="3.2226894"
     inkscape:cy="24"
     inkscape:document-units="mm"
     inkscape:current-layer="layer1"
     showgrid="false"
     units="px"
     inkscape:window-width="1366"
     inkscape:window-height="690"
     inkscape:window-x="0"
     inkscape:window-y="28"
     inkscape:window-maximized="1"
     showguides="true"
     inkscape:guide-bbox="true"
     inkscape:snap-global="false" />
  <metadata
     id="metadata923">
    <rdf:RDF>
      <cc:Work
         rdf:about="">
        <dc:format>image/svg+xml</dc:format>
        <dc:type
           rdf:resource="http://purl.org/dc/dcmitype/StillImage" />
        <dc:title></dc:title>
      </cc:Work>
    </rdf:RDF>
  </metadata>
  <g
     inkscape:label="Capa 1"
     inkscape:groupmode="layer"
     id="layer1"
     transform="translate(0,-284.29998)">
    <path
       style="opacity:1;fill:#1a1a1a;fill-opacity:1;stroke:none;stroke-width:1.13564169"
       d="M 4.5917969 3.234375 L 0.53515625 13.837891 L 23.365234 13.837891 L 23.365234 3.234375 L 4.5917969 3.234375 z M 24.146484 3.234375 L 24.146484 13.837891 L 47.259766 13.837891 L 43.095703 3.234375 L 24.146484 3.234375 z M 0.734375 14.712891 L 0.734375 38.560547 C 0.734375 40.967577 1.6633573 43.026545 3.5195312 44.736328 C 5.3762885 46.445922 7.6123767 47.300781 10.226562 47.300781 L 37.644531 47.300781 C 40.258718 47.300781 42.494235 46.445922 44.351562 44.736328 C 46.208203 43.026545 47.134766 40.967652 47.134766 38.560547 L 47.134766 14.712891 L 42.917969 14.712891 L 42.917969 38.560547 L 42.916016 38.560547 C 42.916016 39.895363 42.401636 41.039003 41.369141 41.990234 C 40.336653 42.940937 39.095098 43.414062 37.644531 43.414062 L 10.226562 43.414062 C 8.7764598 43.414062 7.534675 42.940937 6.5019531 41.990234 C 5.469458 41.039078 4.953125 39.895363 4.953125 38.560547 L 4.953125 14.712891 L 0.734375 14.712891 z M 25.173828 17.964844 C 24.97772 17.981096 24.780104 17.996601 24.583984 18.011719 C 23.595676 18.102805 25.124203 18.026828 25.173828 17.964844 z M 23.71875 18.119141 C 23.610058 18.009912 22.448675 18.503656 22.638672 18.181641 C 21.635272 18.567455 20.634648 18.993116 19.724609 19.574219 C 19.014708 19.979611 18.466777 20.376864 17.740234 21.169922 C 17.050418 21.789802 16.918368 22.783815 16.291016 23.421875 C 15.749659 24.048067 15.463915 25.32841 15.148438 26.236328 C 15.315228 27.038117 15.148222 27.864796 15.207031 28.677734 C 15.016532 32.025715 16.528917 35.354873 18.978516 37.605469 C 20.643617 39.205116 22.905452 40.283428 25.251953 40.138672 C 24.484153 39.846779 23.512294 39.953507 22.839844 39.373047 C 22.606911 39.192159 22.231314 38.717609 22.101562 38.683594 C 22.433662 39.299317 21.294537 38.326679 21.060547 38.341797 C 21.489576 37.933381 20.379951 37.852801 20.308594 37.339844 C 19.686174 37.556297 19.540045 36.202665 19.339844 36.433594 C 19.166084 36.168573 18.160069 35.116864 18.574219 35.072266 C 18.111718 34.62613 18.079758 34.020939 17.697266 33.335938 C 18.173494 33.881286 18.087617 33.306249 17.775391 32.898438 C 17.375301 32.613726 16.445249 32.049541 16.775391 31.554688 C 16.570691 31.25516 16.473042 30.934912 16.580078 30.578125 C 16.102232 29.634944 16.319524 28.492373 16.416016 27.472656 C 16.443958 26.786672 16.52148 26.09941 16.896484 25.509766 C 16.940478 25.223996 17.524586 24.67312 17.134766 24.59375 C 17.678065 23.733643 18.426142 23.012799 19.226562 22.392578 C 19.405723 22.232515 20.686513 21.806661 20.033203 21.912109 C 20.140304 21.365212 21.364652 21.235521 21.888672 20.966797 C 20.930112 21.187748 21.959078 20.824994 22.341797 20.591797 C 22.491266 20.307954 24.306484 20.037042 23.339844 20.349609 C 23.448842 20.315594 24.993688 20.009489 25.697266 20.210938 C 27.500267 20.368128 29.02264 21.589512 29.925781 23.103516 C 30.385655 23.791503 30.559875 24.732908 30.740234 25.439453 C 30.717217 26.269664 30.852406 27.120666 30.583984 27.925781 C 30.995938 27.052824 30.60764 28.669649 30.427734 28.894531 C 29.761381 29.140238 30.192927 30.050889 29.400391 30.287109 C 29.176627 30.55436 28.057419 31.365725 28.611328 30.695312 C 28.158628 31.12085 27.62197 31.472604 27.050781 31.529297 C 24.856081 32.220686 22.438935 30.156495 22.498047 27.919922 C 22.339382 28.192388 22.348146 27.65361 22.408203 27.353516 C 22.589602 25.506083 24.552502 24.13746 26.345703 24.591797 C 26.725141 24.485706 28.119846 25.714464 27.410156 24.972656 C 26.160558 23.586401 23.619243 23.821117 22.722656 25.478516 C 22.211573 25.865123 22.153649 26.533515 21.859375 27.050781 C 21.665213 28.103493 21.785435 29.27639 22.425781 30.166016 C 22.786382 30.944712 23.893331 31.307028 24.140625 32.023438 C 23.678823 31.990367 22.325007 30.432696 23.015625 31.349609 C 23.857156 32.211266 22.688604 31.219879 22.462891 30.857422 C 21.847032 30.174348 22.348281 31.033815 22.652344 31.273438 C 23.772747 32.332839 25.430481 33.160837 26.988281 32.695312 C 26.059481 32.64221 24.8621 32.75627 24.1875 31.929688 C 25.482302 32.370796 27.042155 32.506339 28.347656 31.910156 C 29.222254 31.575177 29.930066 30.866461 30.583984 30.289062 C 30.451278 31.20076 30.667854 29.727976 30.927734 29.537109 C 31.269702 30.17241 31.116997 29.337905 31.376953 29.082031 C 31.664469 28.726 31.903985 26.920019 31.851562 28.232422 C 31.616929 29.151074 32.018691 28.016511 31.90625 27.705078 C 31.840789 27.064486 32.000044 27.521297 32.101562 27.865234 C 31.915194 27.410519 32.479148 26.510314 32.226562 26.410156 C 32.002663 25.80581 32.241172 25.441681 31.867188 24.830078 C 32.425458 25.664976 31.968334 24.301036 31.902344 23.982422 C 31.612681 24.098 31.268725 23.181416 31.902344 23.326172 C 32.224526 23.285693 32.519816 24.569059 32.691406 25.005859 C 33.016911 26.162357 32.630495 24.421509 32.501953 24.154297 C 32.432372 23.946158 32.215619 22.811887 32.585938 23.501953 C 32.222634 22.204139 31.368109 21.09166 30.349609 20.232422 C 30.090988 19.984863 28.642751 18.976843 29.505859 19.794922 C 28.991961 19.546607 28.623648 18.86328 27.935547 19.189453 C 27.416047 19.019261 26.896656 18.715827 26.345703 18.582031 C 25.622664 18.225622 25.634278 18.531114 24.980469 18.480469 C 24.681383 18.544343 23.56722 18.639259 24.476562 18.412109 C 25.4619 18.253369 23.691671 18.189477 24.544922 18.318359 C 24.791631 18.405289 23.99808 18.416826 23.841797 18.371094 C 23.332267 18.370716 23.178829 18.397377 23.71875 18.121094 L 23.71875 18.119141 z M 15.617188 22.703125 L 15.609375 22.890625 C 15.128721 23.791891 16.236799 22.706716 15.617188 22.703125 z M 15.226562 24.376953 C 14.747742 25.314011 15.186462 25.435561 15.226562 24.376953 z M 28.285156 26.847656 L 28.203125 26.957031 C 28.164158 27.74786 28.585251 27.077452 28.285156 26.847656 z M 32.335938 27.958984 C 32.125289 28.689378 31.990129 29.462529 31.632812 30.148438 C 32.001857 29.492841 32.23166 28.715381 32.335938 27.958984 z M 28.082031 28.208984 C 27.939301 28.491112 27.858246 28.938912 27.474609 29.019531 C 27.562685 29.301531 28.148693 28.651216 28.082031 28.208984 z M 27.71875 28.435547 C 27.689906 28.464115 27.620069 28.550638 27.488281 28.724609 C 27.452585 28.874475 27.456931 28.958618 27.474609 29.017578 C 27.530225 28.788104 27.804843 28.350277 27.71875 28.435547 z M 26.582031 29.615234 C 26.384902 29.670415 26.180052 29.68106 25.976562 29.677734 C 24.928382 29.528821 26.398724 30.32416 26.582031 29.615234 z M 21.935547 29.662109 C 21.941859 29.815785 22.027294 29.951323 22.095703 30.083984 C 22.565857 30.925307 22.158123 29.938015 21.935547 29.662109 z M 21.638672 30.179688 C 21.470094 30.653225 22.093243 31.043033 22.34375 31.382812 C 22.154358 31.013364 21.880373 30.549325 21.638672 30.179688 z "
       transform="matrix(0.26458333,0,0,0.26458333,0,284.29998)"
       id="path828" />
  </g>
</svg>
