<svg xmlns="http://www.w3.org/2000/svg" width="48" height="48"><defs><linearGradient id="a"><stop offset="0" stop-color="#dc85e9"/><stop offset="1" stop-color="#f2cbf8"/></linearGradient><linearGradient id="b"><stop offset="0" stop-color="#dc85e9"/><stop offset="1" stop-color="#f2cbf8"/></linearGradient><linearGradient id="c"><stop offset="0" stop-color="#fff" stop-opacity=".588"/><stop offset="1" stop-color="#fff" stop-opacity=".863"/></linearGradient><linearGradient id="d"><stop offset="0" stop-color="#b3b3b3"/><stop offset="1" stop-color="#e6e6e6"/></linearGradient><linearGradient id="e"><stop offset="0" stop-color="#e694bb"/><stop offset=".262" stop-color="#d3819a"/><stop offset=".705" stop-color="#b25a64"/><stop offset="1" stop-color="#98313d"/></linearGradient></defs><path style="line-height:normal;text-indent:0;text-align:start;text-decoration-line:none;text-transform:none;marker:none" d="M29.705-.084c-2.047.008-4.121.088-4.517.098H7a2.938 2.938 0 0 0-.563 0C5.063.276 3.975 1.612 4 3.012V45c0 1.57 1.43 3 3 3h34c1.57 0 3-1.43 3-3V18.818c.018-.792.215-9.927-.336-10.496L34.054.248c-.284-.275-2.302-.34-4.349-.332zm1.49 3.094l.133 7.504c.012.681.638 1.29 1.317 1.279l7.771-.137c.133.018.268.017.4-.006l.082 3.03L41 18.77v26.227H7V3.021h18.672l5.523-.011zM28.627 6.12c-4.127.658-8.87 1.336-12.986 2.031-1.09.527-.847 1.882-.895 2.866V24.18c-2.8-.642-5.875 1.45-5.996 4.424-.198 1.85 1.462 3.462 3.266 3.505 3.23.078 5.683-2.042 5.718-4.724-.035-4.505.01-9.011 0-13.516.5-.037 8.32-1.465 9-1.56v10.12c-2.583-.76-5.166.83-5.802 3.497-.471 1.544.239 3.369 1.771 4.002 2.991 1.36 7.198-1.394 7.031-4.627-.046-6.007.038-12.017 0-18.024-.078-.564-.465-1.197-1.107-1.156zm-.496 26.887c-1.031-.083-2.116.681-2.121 1.783.077.237.62.05.892.11.687.236.514-1.033 1.328-.62.942.537-.004 1.632-.751 1.46v1.228c.768-.103 1.715.36 1.67 1.24.074.871-.94 1.535-1.704 1.105-.645-.137-.378-1.21-1.058-1.025h-.938c.014 1.327 1.233 2.436 2.549 2.371 1.345.067 2.547-1.136 2.48-2.48.039-.793-.39-1.614-1.15-1.91 1.171-.835.57-2.867-.762-3.174a1.814 1.814 0 0 0-.435-.088zm-12.358 1.818c-.686.006-1.356.62-1.712.785-.643-.977-2.292-1.023-2.998-.101.043-.35.034-.648-.4-.52-.243.064-.744-.13-.82.1v5.44h1.33c.029-1.227-.069-2.462.08-3.68.148-1.02 1.884-1.028 2.024-.006.11 1.223.031 2.457.055 3.685h1.33c.026-1.197-.063-2.401.068-3.592.107-.992 1.694-1.184 2-.232.172 1 .06 2.03.092 3.043.076.236-.166.787.15.781h1.18c-.023-1.298.052-2.601-.05-3.896-.064-1.04-1.034-1.78-2.036-1.77a1.056 1.056 0 0 0-.293-.037zm6.64.035c-.73-.031-1.477.212-1.956.78-.038-.28.156-.79-.3-.65h-.919v7.388h1.328v-2.37c1.253 1.217 3.591.64 4.21-.974.688-1.49.023-3.592-1.649-4.053a2.893 2.893 0 0 0-.715-.12zm-.306 1.22c1.298-.051 2.026 1.616 1.327 2.63-.614 1.095-2.431.893-2.823-.287-.447-1.052.298-2.382 1.496-2.344z" color="#000" font-weight="400" font-family="Andale Mono" overflow="visible" fill="#e6e6e6"/></svg>