<svg xmlns="http://www.w3.org/2000/svg" width="48" height="48"><defs><linearGradient id="a"><stop offset="0" stop-color="#dc85e9"/><stop offset="1" stop-color="#f2cbf8"/></linearGradient><linearGradient id="b"><stop offset="0" stop-color="#dc85e9"/><stop offset="1" stop-color="#f2cbf8"/></linearGradient><linearGradient id="c"><stop offset="0" stop-color="#fff" stop-opacity=".588"/><stop offset="1" stop-color="#fff" stop-opacity=".863"/></linearGradient><linearGradient id="d"><stop offset="0" stop-color="#b3b3b3"/><stop offset="1" stop-color="#e6e6e6"/></linearGradient><linearGradient id="e"><stop offset="0" stop-color="#e694bb"/><stop offset=".262" stop-color="#d3819a"/><stop offset=".705" stop-color="#b25a64"/><stop offset="1" stop-color="#98313d"/></linearGradient></defs><path style="line-height:normal;text-indent:0;text-align:start;text-decoration-line:none;text-transform:none;marker:none" d="M32.938-.012c-.999.32-1.335 1.84-.565 2.555l9.035 9.082c.835.796 2.497.115 2.541-1.041V1.502c0-.793-.717-1.514-1.506-1.514h-9.035a1.548 1.548 0 0 0-.47 0zm-26.5.026C5.062.276 3.974 1.612 4 3.012V45c0 1.57 1.43 3 3 3h34c1.57 0 3-1.43 3-3V18.818a3.038 3.038 0 0 0-.844-2.156L27.344.857a3.038 3.038 0 0 0-2.157-.843H7a2.938 2.938 0 0 0-.563 0zM7 3.02h18.672l.187.188 14.907 15 .234.234v26.555H7V3.021zm11.9 12.72c-.603 0-1.107.414-1.252.972h-3.293v-.324a.324.324 0 0 0-.324-.325h-1.297a.326.326 0 0 0-.326.325v1.299c0 .179.147.324.326.324h1.297c.18 0 .324-.145.324-.325v-.326h1.313c-2.968 1.444-3.26 5.111-3.26 9.088 0 .18.147.324.326.324h18.823c.179 0 .326-.145.326-.324 0-4.175-4.858-7.691-9.237-9.088h7.29v.326c0 .18.145.325.324.325h1.297c.179 0 .326-.145.326-.325V16.39a.326.326 0 0 0-.326-.325H30.26a.324.324 0 0 0-.324.325v.324h-9.784a1.296 1.296 0 0 0-1.252-.973zm0 .648c.277 0 .528.181.616.443a.662.662 0 0 1-.291.766.663.663 0 0 1-.688-.024.663.663 0 0 1-.28-.629.66.66 0 0 1 .643-.556zm9.541 13.52c-.653 0-1.198.449-1.355 1.054h-3.568v-.352a.352.352 0 0 0-.352-.351H21.76a.352.352 0 0 0-.352.351v1.407c0 .194.158.351.352.351h1.406a.352.352 0 0 0 .352-.351v-.352h3.132l-8.67 9.613a.348.348 0 0 0-.058.377.35.35 0 0 0 .32.21h20.4a.35.35 0 1 0 .262-.586l-8.67-9.614h3.133v.352c0 .194.158.351.352.351h1.406a.352.352 0 0 0 .352-.351V30.61a.352.352 0 0 0-.352-.351h-1.406a.352.352 0 0 0-.352.351v.352H29.8a1.406 1.406 0 0 0-1.358-1.055zm.002.702c.301 0 .575.199.668.485a.716.716 0 0 1-.334.834.717.717 0 0 1-.71-.024.715.715 0 0 1-.29-.818.711.711 0 0 1 .666-.477z" color="#000" font-weight="400" font-family="Andale Mono" overflow="visible" fill="#e6e6e6"/></svg>