<?xml version="1.0" encoding="UTF-8" standalone="no"?>
<!-- Created with Inkscape (http://www.inkscape.org/) -->

<svg
   xmlns:dc="http://purl.org/dc/elements/1.1/"
   xmlns:cc="http://creativecommons.org/ns#"
   xmlns:rdf="http://www.w3.org/1999/02/22-rdf-syntax-ns#"
   xmlns:svg="http://www.w3.org/2000/svg"
   xmlns="http://www.w3.org/2000/svg"
   xmlns:xlink="http://www.w3.org/1999/xlink"
   xmlns:sodipodi="http://sodipodi.sourceforge.net/DTD/sodipodi-0.dtd"
   xmlns:inkscape="http://www.inkscape.org/namespaces/inkscape"
   version="1.1"
   width="48"
   height="48"
   id="svg21744"
   sodipodi:docname="libreoffice-oasis-web-template.svg"
   inkscape:version="0.92.3 (2405546, 2018-03-11)">
  <sodipodi:namedview
     pagecolor="#ffffff"
     bordercolor="#666666"
     borderopacity="1"
     objecttolerance="10"
     gridtolerance="10"
     guidetolerance="10"
     inkscape:pageopacity="0"
     inkscape:pageshadow="2"
     inkscape:window-width="1366"
     inkscape:window-height="719"
     id="namedview44"
     showgrid="false"
     inkscape:zoom="4.9166667"
     inkscape:cx="-33.705884"
     inkscape:cy="24.83513"
     inkscape:window-x="0"
     inkscape:window-y="25"
     inkscape:window-maximized="1"
     inkscape:current-layer="svg21744"
     inkscape:snap-global="false"
     showguides="true"
     inkscape:guide-bbox="true" />
  <defs
     id="defs21746">
    <linearGradient
       x1="525.4375"
       y1="836.1875"
       x2="516.65625"
       y2="828.5"
       id="linearGradient14113"
       xlink:href="#linearGradient14494-2-7"
       gradientUnits="userSpaceOnUse"
       gradientTransform="translate(-125.5,-1702.64)" />
    <linearGradient
       id="linearGradient14494-2-7">
      <stop
         id="stop14496-9-3"
         style="stop-color:#dc85e9;stop-opacity:1"
         offset="0" />
      <stop
         id="stop14498-9-7"
         style="stop-color:#f2cbf8;stop-opacity:1"
         offset="1" />
    </linearGradient>
    <linearGradient
       x1="520.58502"
       y1="735.05206"
       x2="516.15179"
       y2="720.86298"
       id="linearGradient14115"
       xlink:href="#linearGradient14494-5"
       gradientUnits="userSpaceOnUse" />
    <linearGradient
       id="linearGradient14494-5">
      <stop
         id="stop14496-5"
         style="stop-color:#dc85e9;stop-opacity:1"
         offset="0" />
      <stop
         id="stop14498-1"
         style="stop-color:#f2cbf8;stop-opacity:1"
         offset="1" />
    </linearGradient>
    <linearGradient
       x1="525.4375"
       y1="836.1875"
       x2="516.65625"
       y2="828.5"
       id="linearGradient54948"
       xlink:href="#linearGradient14494-2-7"
       gradientUnits="userSpaceOnUse"
       gradientTransform="translate(-462.50049,-802.00385)" />
    <linearGradient
       x1="520.58502"
       y1="735.05206"
       x2="516.15179"
       y2="720.86298"
       id="linearGradient14109"
       xlink:href="#linearGradient14494-5"
       gradientUnits="userSpaceOnUse"
       gradientTransform="matrix(0.512535,0,0,0.615385,-202.35949,-422.92385)" />
    <linearGradient
       x1="525.4375"
       y1="836.1875"
       x2="516.65625"
       y2="828.5"
       id="linearGradient54952"
       xlink:href="#linearGradient14494-2-7"
       gradientUnits="userSpaceOnUse"
       gradientTransform="translate(-462.50049,-797.50385)" />
    <linearGradient
       x1="209.0625"
       y1="-765.46082"
       x2="209.0625"
       y2="-781.62268"
       id="linearGradient44039"
       xlink:href="#linearGradient15606-1"
       gradientUnits="userSpaceOnUse"
       gradientTransform="matrix(1.5,0,0,1.5,-364.99949,1176.9562)" />
    <linearGradient
       id="linearGradient15606-1">
      <stop
         id="stop15608-0"
         style="stop-color:#ffffff;stop-opacity:0.58823502"
         offset="0" />
      <stop
         id="stop15610-5"
         style="stop-color:#ffffff;stop-opacity:0.86274499"
         offset="1" />
    </linearGradient>
    <linearGradient
       x1="294.3429"
       y1="256.58133"
       x2="294.41818"
       y2="243.13852"
       id="linearGradient44042"
       xlink:href="#linearGradient10286-3"
       gradientUnits="userSpaceOnUse"
       gradientTransform="matrix(2.99213,0,0,3.00466,-830.71149,-727.44385)" />
    <linearGradient
       id="linearGradient10286-3">
      <stop
         id="stop10288-8"
         style="stop-color:#b3b3b3;stop-opacity:1"
         offset="0" />
      <stop
         id="stop10290-7"
         style="stop-color:#e6e6e6;stop-opacity:1"
         offset="1" />
    </linearGradient>
    <linearGradient
       x1="110.96875"
       y1="976.29968"
       x2="110.96875"
       y2="992.375"
       id="linearGradient43236"
       xlink:href="#linearGradient4145-42"
       gradientUnits="userSpaceOnUse" />
    <linearGradient
       id="linearGradient4145-42">
      <stop
         id="stop4953"
         style="stop-color:#e694bb;stop-opacity:1"
         offset="0" />
      <stop
         id="stop4955"
         style="stop-color:#d3819a;stop-opacity:1"
         offset="0.26238" />
      <stop
         id="stop4957"
         style="stop-color:#b25a64;stop-opacity:1"
         offset="0.704952" />
      <stop
         id="stop4959"
         style="stop-color:#98313d;stop-opacity:1"
         offset="1" />
    </linearGradient>
    <linearGradient
       x1="110.96875"
       y1="976.29968"
       x2="110.99982"
       y2="991.87488"
       id="linearGradient14097-7"
       xlink:href="#linearGradient4145-42"
       gradientUnits="userSpaceOnUse"
       gradientTransform="matrix(1,0,0,1.00011,0,-0.10551)" />
    <linearGradient
       x1="110.96875"
       y1="976.29968"
       x2="110.96875"
       y2="992.375"
       id="linearGradient21742"
       xlink:href="#linearGradient4145-42"
       gradientUnits="userSpaceOnUse"
       gradientTransform="matrix(1.00399,0,0,1.00959,-1.1658,-9.36636)" />
    <clipPath
       clipPathUnits="userSpaceOnUse"
       id="clipPath867">
      <g
         inkscape:label="Clip"
         id="use869">
        <path
           d="m 47.000614,3.0210706 v 0.75 40.5000404 0.72723 h 0.75 32.499399 0.75 v -0.72723 -25.50003 -0.3282 l -0.2344,-0.2343 -14.9059,-15.0000104 -0.1875,-0.1875 h -0.3282 -17.593399 z"
           id="path875"
           style="color:#000000;font-style:normal;font-variant:normal;font-weight:normal;font-stretch:normal;font-size:medium;line-height:normal;font-family:'Andale Mono';text-indent:0pt;text-align:start;text-decoration:none;text-decoration-line:none;letter-spacing:normal;word-spacing:normal;text-transform:none;direction:ltr;text-anchor:start;display:inline;overflow:visible;visibility:visible;fill:#000000;fill-opacity:1;fill-rule:nonzero;stroke:none;stroke-width:1;marker:none"
           inkscape:connector-curvature="0" />
      </g>
    </clipPath>
  </defs>
  <metadata
     id="metadata21749">
    <rdf:RDF>
      <cc:Work
         rdf:about="">
        <dc:format>image/svg+xml</dc:format>
        <dc:type
           rdf:resource="http://purl.org/dc/dcmitype/StillImage" />
        <dc:title></dc:title>
      </cc:Work>
    </rdf:RDF>
  </metadata>
  <path
     style="color:#000000;font-style:normal;font-variant:normal;font-weight:normal;font-stretch:normal;font-size:medium;line-height:normal;font-family:'Andale Mono';text-indent:0pt;text-align:start;text-decoration:none;text-decoration-line:none;letter-spacing:normal;word-spacing:normal;text-transform:none;direction:ltr;text-anchor:start;display:inline;overflow:visible;visibility:visible;fill:#e6e6e6;fill-opacity:1;stroke:none;stroke-width:5.99873972;marker:none"
     d="M 32.9375 -0.01171875 C 31.939073 0.30807755 31.603332 1.8281951 32.373047 2.5429688 L 41.408203 11.625 C 42.242926 12.420622 43.90524 11.739587 43.949219 10.583984 L 43.949219 1.5019531 C 43.949129 0.70932971 43.231852 -0.01162885 42.443359 -0.01171875 L 33.408203 -0.01171875 C 33.252508 -0.03570975 33.093105 -0.03570975 32.9375 -0.01171875 z M 6.4375 0.013671875 C 5.062346 0.27607036 3.975341 1.6123101 4 3.0117188 L 4 45 C 4.00015 46.570313 5.429312 47.99985 7 48 L 41 48 C 42.570687 47.99985 43.99985 46.570313 44 45 L 44 18.818359 C 44.018 18.026395 43.707481 17.231289 43.15625 16.662109 L 27.34375 0.85742188 C 26.774429 0.30647497 25.979653 -0.004681035 25.1875 0.013671875 L 7 0.013671875 C 6.813106 -0.004321175 6.624454 -0.004321175 6.4375 0.013671875 z M 7 3.0214844 L 7.75 3.0214844 L 25.34375 3.0214844 L 25.671875 3.0214844 L 25.859375 3.2089844 L 40.765625 18.208984 L 41 18.443359 L 41 18.771484 L 41 44.271484 L 41 44.998047 L 40.25 44.998047 L 7.75 44.998047 L 7 44.998047 L 7 44.271484 L 7 3.7714844 L 7 3.0214844 z M 16.992188 7.5507812 L 16.992188 7.5683594 C 13.248188 7.8143594 10.253813 10.806781 10.007812 14.550781 L 9.9921875 14.550781 L 9.9921875 15.050781 L 9.9921875 15.550781 L 10.007812 15.550781 C 10.253813 19.294781 13.248188 22.287203 16.992188 22.533203 L 16.992188 22.550781 L 17.492188 22.550781 L 17.992188 22.550781 L 17.992188 22.533203 C 21.736187 22.287203 24.726656 19.294781 24.972656 15.550781 L 24.992188 15.550781 L 24.992188 15.050781 L 24.992188 14.550781 L 24.972656 14.550781 C 24.726656 10.806781 21.736187 7.8143594 17.992188 7.5683594 L 17.992188 7.5507812 L 17.492188 7.5507812 L 16.992188 7.5507812 z M 16.992188 8.6152344 L 16.992188 11.550781 L 14.541016 11.550781 C 15.078016 9.9937815 15.964188 8.8892344 16.992188 8.6152344 z M 17.992188 8.6152344 C 19.019188 8.8892344 19.904406 9.9937815 20.441406 11.550781 L 17.992188 11.550781 L 17.992188 8.6152344 z M 14.6875 9.1855469 C 14.2045 9.8275469 13.801766 10.632781 13.509766 11.550781 L 12.011719 11.550781 C 12.663719 10.533781 13.5915 9.7105469 14.6875 9.1855469 z M 20.296875 9.1855469 C 21.391875 9.7105469 22.318703 10.533781 22.970703 11.550781 L 21.474609 11.550781 C 21.181609 10.632781 20.781875 9.8275469 20.296875 9.1855469 z M 11.490234 12.550781 L 13.248047 12.550781 C 13.114047 13.182781 13.028953 13.853781 13.001953 14.550781 L 11.009766 14.550781 C 11.062766 13.846781 11.230234 13.173781 11.490234 12.550781 z M 14.259766 12.550781 L 16.992188 12.550781 L 16.992188 14.550781 L 14.001953 14.550781 C 14.030953 13.846781 14.118766 13.173781 14.259766 12.550781 z M 17.992188 12.550781 L 20.720703 12.550781 C 20.862703 13.173781 20.951422 13.846781 20.982422 14.550781 L 17.992188 14.550781 L 17.992188 12.550781 z M 21.736328 12.550781 L 23.494141 12.550781 C 23.754141 13.173781 23.919656 13.846781 23.972656 14.550781 L 21.982422 14.550781 C 21.955422 13.853781 21.870328 13.182781 21.736328 12.550781 z M 11.009766 15.550781 L 13.001953 15.550781 C 13.028953 16.247781 13.114047 16.918781 13.248047 17.550781 L 11.490234 17.550781 C 11.230234 16.927781 11.062766 16.254781 11.009766 15.550781 z M 14.001953 15.550781 L 16.992188 15.550781 L 16.992188 17.550781 L 14.259766 17.550781 C 14.118766 16.927781 14.030953 16.254781 14.001953 15.550781 z M 17.992188 15.550781 L 20.982422 15.550781 C 20.953422 16.254781 20.862703 16.927781 20.720703 17.550781 L 17.992188 17.550781 L 17.992188 15.550781 z M 21.982422 15.550781 L 23.970703 15.550781 C 23.918703 16.254781 23.754141 16.927781 23.494141 17.550781 L 21.736328 17.550781 C 21.870328 16.918781 21.955422 16.247781 21.982422 15.550781 z M 12.011719 18.550781 L 13.509766 18.550781 C 13.801766 19.468781 14.2035 20.274016 14.6875 20.916016 C 13.5915 20.391016 12.663719 19.568781 12.011719 18.550781 z M 14.541016 18.550781 L 16.992188 18.550781 L 16.992188 21.486328 C 15.964187 21.211328 15.078016 20.107781 14.541016 18.550781 z M 17.992188 18.550781 L 20.441406 18.550781 C 19.904406 20.107781 19.019188 21.211328 17.992188 21.486328 L 17.992188 18.550781 z M 21.474609 18.550781 L 22.970703 18.550781 C 22.318703 19.568781 21.391875 20.391016 20.296875 20.916016 C 20.779875 20.273016 21.181609 19.468781 21.474609 18.550781 z M 12.099609 25.351562 C 10.904482 25.351562 9.9414062 25.410151 9.9414062 25.482422 L 9.9414062 27.052734 C 9.9414062 27.125005 10.904482 27.181641 12.099609 27.181641 L 36.257812 27.181641 C 37.45294 27.181641 38.416016 27.125005 38.416016 27.052734 L 38.416016 25.482422 C 38.416016 25.410151 37.45294 25.351562 36.257812 25.351562 L 12.099609 25.351562 z M 12.082031 29.326172 C 10.886904 29.326172 9.9238281 29.384761 9.9238281 29.457031 L 9.9238281 31.025391 C 9.9238281 31.097661 10.886904 31.15625 12.082031 31.15625 L 36.242188 31.15625 C 37.437315 31.15625 38.398438 31.097661 38.398438 31.025391 L 38.398438 29.457031 C 38.398438 29.384761 37.437315 29.326172 36.242188 29.326172 L 12.082031 29.326172 z M 12.123047 33.185547 C 10.927919 33.185547 9.9667969 33.244136 9.9667969 33.316406 L 9.9667969 34.886719 C 9.9667969 34.958989 10.927919 35.017578 12.123047 35.017578 L 36.283203 35.017578 C 37.478331 35.017578 38.441406 34.958989 38.441406 34.886719 L 38.441406 33.316406 C 38.441406 33.244136 37.478331 33.185547 36.283203 33.185547 L 12.123047 33.185547 z "
     id="path14075" />
</svg>
