<?xml version="1.0" encoding="UTF-8" standalone="no"?>
<!-- Created with Inkscape (http://www.inkscape.org/) -->

<svg
   xmlns:dc="http://purl.org/dc/elements/1.1/"
   xmlns:cc="http://creativecommons.org/ns#"
   xmlns:rdf="http://www.w3.org/1999/02/22-rdf-syntax-ns#"
   xmlns:svg="http://www.w3.org/2000/svg"
   xmlns="http://www.w3.org/2000/svg"
   xmlns:sodipodi="http://sodipodi.sourceforge.net/DTD/sodipodi-0.dtd"
   xmlns:inkscape="http://www.inkscape.org/namespaces/inkscape"
   width="48"
   height="48"
   viewBox="0 0 12.7 12.7"
   version="1.1"
   id="svg926"
   inkscape:version="0.92.3 (2405546, 2018-03-11)"
   sodipodi:docname="tar.svg">
  <defs
     id="defs920" />
  <sodipodi:namedview
     id="base"
     pagecolor="#ffffff"
     bordercolor="#666666"
     borderopacity="1.0"
     inkscape:pageopacity="0.0"
     inkscape:pageshadow="2"
     inkscape:zoom="10.3125"
     inkscape:cx="-4.4695761"
     inkscape:cy="23.612121"
     inkscape:document-units="mm"
     inkscape:current-layer="layer1"
     showgrid="false"
     units="px"
     inkscape:window-width="1366"
     inkscape:window-height="719"
     inkscape:window-x="0"
     inkscape:window-y="25"
     inkscape:window-maximized="1"
     showguides="true"
     inkscape:guide-bbox="true"
     inkscape:snap-global="false" />
  <metadata
     id="metadata923">
    <rdf:RDF>
      <cc:Work
         rdf:about="">
        <dc:format>image/svg+xml</dc:format>
        <dc:type
           rdf:resource="http://purl.org/dc/dcmitype/StillImage" />
        <dc:title></dc:title>
      </cc:Work>
    </rdf:RDF>
  </metadata>
  <g
     inkscape:label="Capa 1"
     inkscape:groupmode="layer"
     id="layer1"
     transform="translate(0,-284.29998)">
    <path
       style="opacity:1;fill:#e6e6e6;fill-opacity:1;stroke:none;stroke-width:1.13564169"
       d="M 4.5917969 3.234375 L 0.53515625 13.837891 L 23.365234 13.837891 L 23.365234 3.234375 L 4.5917969 3.234375 z M 24.146484 3.234375 L 24.146484 13.837891 L 47.259766 13.837891 L 43.095703 3.234375 L 24.146484 3.234375 z M 0.734375 14.712891 L 0.734375 38.560547 C 0.734375 40.967577 1.6633573 43.026545 3.5195312 44.736328 C 5.3762885 46.445922 7.6123767 47.300781 10.226562 47.300781 L 37.644531 47.300781 C 40.258718 47.300781 42.494235 46.445922 44.351562 44.736328 C 46.208203 43.026545 47.134766 40.967652 47.134766 38.560547 L 47.134766 14.712891 L 42.917969 14.712891 L 42.917969 38.560547 L 42.916016 38.560547 C 42.916016 39.895363 42.401636 41.039003 41.369141 41.990234 C 40.336653 42.940937 39.095098 43.414062 37.644531 43.414062 L 10.226562 43.414062 C 8.7764598 43.414062 7.534675 42.940937 6.5019531 41.990234 C 5.469458 41.039078 4.953125 39.895363 4.953125 38.560547 L 4.953125 14.712891 L 0.734375 14.712891 z M 16.205078 29.742188 L 16.205078 32.283203 L 15.310547 32.283203 L 15.310547 33.945312 L 16.205078 33.945312 L 16.205078 39.894531 L 18.03125 39.894531 L 18.03125 33.945312 L 19.130859 33.945312 L 19.130859 32.283203 L 18.03125 32.283203 L 18.03125 29.742188 L 16.205078 29.742188 z M 23.710938 32.099609 C 23.4012 32.089967 23.09139 32.117946 22.792969 32.181641 C 21.15316 32.455656 19.891531 33.948318 19.759766 35.583984 C 19.53254 37.239039 20.351893 39.073261 21.939453 39.740234 C 23.250821 40.316764 24.976732 40.19395 25.955078 39.054688 C 26.211217 38.715664 26.044099 39.461857 26.091797 39.658203 C 25.97482 40.045983 26.44419 39.848043 26.667969 39.894531 L 27.767578 39.894531 L 27.767578 32.283203 L 26.091797 32.283203 L 26.091797 33.298828 C 25.558325 32.499827 24.64015 32.128537 23.710938 32.099609 z M 32.591797 32.105469 C 31.867209 32.021941 31.158549 32.383967 30.806641 33.025391 C 30.753236 32.802021 30.915865 32.36091 30.716797 32.283203 L 29.130859 32.283203 L 29.130859 39.894531 L 30.957031 39.894531 C 30.971771 38.345983 30.926485 36.795008 30.982422 35.248047 C 31.011902 34.414963 31.785155 33.81256 32.591797 33.863281 C 32.591797 33.277114 32.591801 32.691598 32.591797 32.105469 z M 23.796875 33.78125 C 24.964571 33.725691 25.985668 34.736596 26.025391 35.888672 C 26.145353 36.969995 25.47977 38.19955 24.328125 38.351562 C 23.233971 38.598366 21.942144 38.001662 21.666016 36.859375 C 21.305789 35.663986 21.924724 34.139525 23.216797 33.851562 C 23.40668 33.803563 23.601171 33.78125 23.796875 33.78125 z "
       transform="matrix(0.26458333,0,0,0.26458333,0,284.29998)"
       id="path828" />
  </g>
</svg>
