<svg xmlns="http://www.w3.org/2000/svg" width="48" height="48"><defs><linearGradient id="a"><stop offset="0" stop-color="#dc85e9"/><stop offset="1" stop-color="#f2cbf8"/></linearGradient><linearGradient id="b"><stop offset="0" stop-color="#dc85e9"/><stop offset="1" stop-color="#f2cbf8"/></linearGradient><linearGradient id="c"><stop offset="0" stop-color="#fff" stop-opacity=".588"/><stop offset="1" stop-color="#fff" stop-opacity=".863"/></linearGradient><linearGradient id="d"><stop offset="0" stop-color="#b3b3b3"/><stop offset="1" stop-color="#e6e6e6"/></linearGradient><linearGradient id="e"><stop offset="0" stop-color="#e694bb"/><stop offset=".262" stop-color="#d3819a"/><stop offset=".705" stop-color="#b25a64"/><stop offset="1" stop-color="#98313d"/></linearGradient><linearGradient id="f"><stop offset="0" stop-color="#a3a3a3"/><stop offset="1" stop-color="#bababa"/></linearGradient></defs><path style="line-height:normal;text-indent:0;text-align:start;text-decoration-line:none;text-transform:none;marker:none" d="M29.705-.084c-2.047.008-4.121.088-4.517.098H7a2.938 2.938 0 0 0-.563 0C5.063.276 3.975 1.612 4 3.012V45c0 1.57 1.43 3 3 3h34c1.57 0 3-1.43 3-3V18.818c.018-.792.215-9.927-.336-10.496L34.054.248c-.284-.275-2.302-.34-4.349-.332zm1.49 3.094l.133 7.504c.012.681.638 1.29 1.317 1.279l7.771-.137c.133.018.268.017.4-.006l.082 3.03L41 18.77v26.227H7V3.021h18.672l5.523-.011zM10.242 6.908v2.037h6.207V6.908h-6.207zm8 0v2.037h6.207V6.908h-6.207zm-6 4v2.037H28.34v-2.037H12.242zm-2 4v2.037H24.11v-2.037H10.242zm16 0v2.037h10.28v-2.037h-10.28zm-16 4v2.037h6.4v-2.037h-6.4zm8 0v2.037h11.83v-2.037h-11.83zm14 0v2.037h4.17v-2.037h-4.17zm-20 4v2.037h21.72v-2.037h-21.72zm0 4v1.94H29.6v-1.94H12.242zm20 0v1.94h3.977v-1.94h-3.977zm-22.219 4v1.94H26.22v-1.94H10.023zm19.602 0v1.94h6.594v-1.94h-6.594zm-2.701 4.328v7.512h1.728v-7.512h-1.728zm-14.57.305l2.67 7.207h2.216l2.67-7.207h-1.869l-1.906 5.32-1.912-5.32h-1.87zm10.017 1.662c-.695.017-1.398.147-2.06.283v.979c-.102.732.927-.267 1.384-.078.693-.081 1.95-.106 1.87.9-.867.014-1.757-.07-2.592.21-.928.234-1.336 1.315-1.063 2.175.425 1.448 2.599 1.607 3.475.504.313-.54.132.344.18.572h1.742v-3.084c.01-.77-.194-1.666-.922-2.07-.63-.312-1.319-.408-2.014-.39zm10.08 0c-.695.017-1.398.147-2.06.283v.979c-.102.732.927-.267 1.384-.078.693-.081 1.95-.106 1.87.9-.867.014-1.756-.07-2.592.21-.928.234-1.336 1.315-1.063 2.175.425 1.448 2.599 1.607 3.475.504.313-.54.132.344.18.572h1.742v-3.084c.01-.77-.194-1.666-.922-2.07-.63-.312-1.319-.408-2.014-.39zM22.283 40.29a.861.861 0 0 1 .383.025h.898c.102.691-.412 1.456-1.154 1.424-1.124.081-.937-1.311-.127-1.449zm10.08 0a.861.861 0 0 1 .383.025h.899c.1.691-.413 1.456-1.155 1.424-1.124.081-.937-1.311-.127-1.449z" color="#000" font-weight="400" font-family="Andale Mono" overflow="visible" fill="#e6e6e6"/></svg>