<?xml version="1.0" encoding="UTF-8" standalone="no"?>
<!-- Created with Inkscape (http://www.inkscape.org/) -->

<svg
   xmlns:dc="http://purl.org/dc/elements/1.1/"
   xmlns:cc="http://creativecommons.org/ns#"
   xmlns:rdf="http://www.w3.org/1999/02/22-rdf-syntax-ns#"
   xmlns:svg="http://www.w3.org/2000/svg"
   xmlns="http://www.w3.org/2000/svg"
   xmlns:xlink="http://www.w3.org/1999/xlink"
   xmlns:sodipodi="http://sodipodi.sourceforge.net/DTD/sodipodi-0.dtd"
   xmlns:inkscape="http://www.inkscape.org/namespaces/inkscape"
   version="1.1"
   width="48"
   height="48"
   id="svg21744"
   sodipodi:docname="text-x-perl.svg"
   inkscape:version="0.92.3 (2405546, 2018-03-11)">
  <sodipodi:namedview
     pagecolor="#ffffff"
     bordercolor="#666666"
     borderopacity="1"
     objecttolerance="10"
     gridtolerance="10"
     guidetolerance="10"
     inkscape:pageopacity="0"
     inkscape:pageshadow="2"
     inkscape:window-width="1366"
     inkscape:window-height="719"
     id="namedview44"
     showgrid="false"
     inkscape:zoom="11.083333"
     inkscape:cx="24"
     inkscape:cy="24"
     inkscape:window-x="0"
     inkscape:window-y="25"
     inkscape:window-maximized="1"
     inkscape:current-layer="svg21744"
     inkscape:snap-global="false" />
  <defs
     id="defs21746">
    <linearGradient
       x1="525.4375"
       y1="836.1875"
       x2="516.65625"
       y2="828.5"
       id="linearGradient14113"
       xlink:href="#linearGradient14494-2-7"
       gradientUnits="userSpaceOnUse"
       gradientTransform="translate(-125.5,-1702.64)" />
    <linearGradient
       id="linearGradient14494-2-7">
      <stop
         id="stop14496-9-3"
         style="stop-color:#dc85e9;stop-opacity:1"
         offset="0" />
      <stop
         id="stop14498-9-7"
         style="stop-color:#f2cbf8;stop-opacity:1"
         offset="1" />
    </linearGradient>
    <linearGradient
       x1="520.58502"
       y1="735.05206"
       x2="516.15179"
       y2="720.86298"
       id="linearGradient14115"
       xlink:href="#linearGradient14494-5"
       gradientUnits="userSpaceOnUse" />
    <linearGradient
       id="linearGradient14494-5">
      <stop
         id="stop14496-5"
         style="stop-color:#dc85e9;stop-opacity:1"
         offset="0" />
      <stop
         id="stop14498-1"
         style="stop-color:#f2cbf8;stop-opacity:1"
         offset="1" />
    </linearGradient>
    <linearGradient
       x1="525.4375"
       y1="836.1875"
       x2="516.65625"
       y2="828.5"
       id="linearGradient54948"
       xlink:href="#linearGradient14494-2-7"
       gradientUnits="userSpaceOnUse"
       gradientTransform="translate(-462.50049,-802.00385)" />
    <linearGradient
       x1="520.58502"
       y1="735.05206"
       x2="516.15179"
       y2="720.86298"
       id="linearGradient14109"
       xlink:href="#linearGradient14494-5"
       gradientUnits="userSpaceOnUse"
       gradientTransform="matrix(0.512535,0,0,0.615385,-202.35949,-422.92385)" />
    <linearGradient
       x1="525.4375"
       y1="836.1875"
       x2="516.65625"
       y2="828.5"
       id="linearGradient54952"
       xlink:href="#linearGradient14494-2-7"
       gradientUnits="userSpaceOnUse"
       gradientTransform="translate(-462.50049,-797.50385)" />
    <linearGradient
       x1="209.0625"
       y1="-765.46082"
       x2="209.0625"
       y2="-781.62268"
       id="linearGradient44039"
       xlink:href="#linearGradient15606-1"
       gradientUnits="userSpaceOnUse"
       gradientTransform="matrix(1.5,0,0,1.5,-364.99949,1176.9562)" />
    <linearGradient
       id="linearGradient15606-1">
      <stop
         id="stop15608-0"
         style="stop-color:#ffffff;stop-opacity:0.58823502"
         offset="0" />
      <stop
         id="stop15610-5"
         style="stop-color:#ffffff;stop-opacity:0.86274499"
         offset="1" />
    </linearGradient>
    <linearGradient
       x1="294.3429"
       y1="256.58133"
       x2="294.41818"
       y2="243.13852"
       id="linearGradient44042"
       xlink:href="#linearGradient10286-3"
       gradientUnits="userSpaceOnUse"
       gradientTransform="matrix(2.99213,0,0,3.00466,-830.71149,-727.44385)" />
    <linearGradient
       id="linearGradient10286-3">
      <stop
         id="stop10288-8"
         style="stop-color:#b3b3b3;stop-opacity:1"
         offset="0" />
      <stop
         id="stop10290-7"
         style="stop-color:#e6e6e6;stop-opacity:1"
         offset="1" />
    </linearGradient>
    <linearGradient
       x1="110.96875"
       y1="976.29968"
       x2="110.96875"
       y2="992.375"
       id="linearGradient43236"
       xlink:href="#linearGradient4145-42"
       gradientUnits="userSpaceOnUse" />
    <linearGradient
       id="linearGradient4145-42">
      <stop
         id="stop4953"
         style="stop-color:#e694bb;stop-opacity:1"
         offset="0" />
      <stop
         id="stop4955"
         style="stop-color:#d3819a;stop-opacity:1"
         offset="0.26238" />
      <stop
         id="stop4957"
         style="stop-color:#b25a64;stop-opacity:1"
         offset="0.704952" />
      <stop
         id="stop4959"
         style="stop-color:#98313d;stop-opacity:1"
         offset="1" />
    </linearGradient>
    <linearGradient
       x1="110.96875"
       y1="976.29968"
       x2="110.99982"
       y2="991.87488"
       id="linearGradient14097-7"
       xlink:href="#linearGradient4145-42"
       gradientUnits="userSpaceOnUse"
       gradientTransform="matrix(1,0,0,1.00011,0,-0.10551)" />
    <linearGradient
       x1="110.96875"
       y1="976.29968"
       x2="110.96875"
       y2="992.375"
       id="linearGradient21742"
       xlink:href="#linearGradient4145-42"
       gradientUnits="userSpaceOnUse"
       gradientTransform="matrix(1.00399,0,0,1.00959,-1.1658,-9.36636)" />
    <clipPath
       clipPathUnits="userSpaceOnUse"
       id="clipPath867">
      <g
         inkscape:label="Clip"
         id="use869">
        <path
           d="m 47.000614,3.0210706 v 0.75 40.5000404 0.72723 h 0.75 32.499399 0.75 v -0.72723 -25.50003 -0.3282 l -0.2344,-0.2343 -14.9059,-15.0000104 -0.1875,-0.1875 h -0.3282 -17.593399 z"
           id="path875"
           style="color:#000000;font-style:normal;font-variant:normal;font-weight:normal;font-stretch:normal;font-size:medium;line-height:normal;font-family:'Andale Mono';text-indent:0pt;text-align:start;text-decoration:none;text-decoration-line:none;letter-spacing:normal;word-spacing:normal;text-transform:none;direction:ltr;text-anchor:start;display:inline;overflow:visible;visibility:visible;fill:#000000;fill-opacity:1;fill-rule:nonzero;stroke:none;stroke-width:1;marker:none"
           inkscape:connector-curvature="0" />
      </g>
    </clipPath>
    <linearGradient
       id="linearGradient6073"
       x1="22.104"
       x2="22.104"
       y1="40.124001"
       y2="10.035"
       gradientTransform="matrix(0.38146,0,0,1.4009,-58.041558,-6.2993999)"
       gradientUnits="userSpaceOnUse"
       xlink:href="#linearGradient5031" />
    <linearGradient
       id="linearGradient5031">
      <stop
         id="stop5033"
         style="stop-color:#a3a3a3"
         offset="0" />
      <stop
         id="stop5035"
         style="stop-color:#bababa"
         offset="1" />
    </linearGradient>
  </defs>
  <metadata
     id="metadata21749">
    <rdf:RDF>
      <cc:Work
         rdf:about="">
        <dc:format>image/svg+xml</dc:format>
        <dc:type
           rdf:resource="http://purl.org/dc/dcmitype/StillImage" />
        <dc:title></dc:title>
      </cc:Work>
    </rdf:RDF>
  </metadata>
  <path
     style="color:#000000;font-style:normal;font-variant:normal;font-weight:normal;font-stretch:normal;font-size:medium;line-height:normal;font-family:'Andale Mono';text-indent:0pt;text-align:start;text-decoration:none;text-decoration-line:none;letter-spacing:normal;word-spacing:normal;text-transform:none;direction:ltr;text-anchor:start;display:inline;overflow:visible;visibility:visible;fill:#e6e6e6;fill-opacity:1;stroke:none;stroke-width:5.99873972;marker:none"
     d="M 29.705078 -0.083984375 C 27.658234 -0.075805254 25.583576 0.00449542 25.1875 0.013671875 L 7 0.013671875 C 6.813106 -0.004321175 6.624454 -0.004321175 6.4375 0.013671875 C 5.062346 0.27607036 3.975341 1.61231 4 3.0117188 L 4 45 C 4.00015 46.570313 5.429312 47.99985 7 48 L 41 48 C 42.570687 47.99985 43.99985 46.570313 44 45 L 44 18.818359 C 44.018 18.026395 44.215294 8.8914456 43.664062 8.3222656 L 34.054688 0.24804688 C 33.770027 -0.02742658 31.751922 -0.092163496 29.705078 -0.083984375 z M 31.195312 3.0097656 L 31.328125 10.513672 C 31.340155 11.195372 31.966379 11.80479 32.644531 11.792969 L 40.416016 11.65625 C 40.548988 11.674363 40.684161 11.672765 40.816406 11.650391 L 40.898438 14.679688 L 41 18.771484 L 41 44.271484 L 41 44.998047 L 40.25 44.998047 L 7.75 44.998047 L 7 44.998047 L 7 44.271484 L 7 3.7714844 L 7 3.0214844 L 7.75 3.0214844 L 25.34375 3.0214844 L 25.671875 3.0214844 L 31.195312 3.0097656 z M 10.242188 6.9082031 L 10.242188 8.9453125 L 16.449219 8.9453125 L 16.449219 6.9082031 L 10.242188 6.9082031 z M 18.242188 6.9082031 L 18.242188 8.9453125 L 24.449219 8.9453125 L 24.449219 6.9082031 L 18.242188 6.9082031 z M 12.242188 10.908203 L 12.242188 12.945312 L 28.339844 12.945312 L 28.339844 10.908203 L 12.242188 10.908203 z M 10.242188 14.908203 L 10.242188 16.945312 L 24.109375 16.945312 L 24.109375 14.908203 L 10.242188 14.908203 z M 26.242188 14.908203 L 26.242188 16.945312 L 36.521484 16.945312 L 36.521484 14.908203 L 26.242188 14.908203 z M 10.242188 18.908203 L 10.242188 20.945312 L 16.642578 20.945312 L 16.642578 18.908203 L 10.242188 18.908203 z M 18.242188 18.908203 L 18.242188 20.945312 L 30.072266 20.945312 L 30.072266 18.908203 L 18.242188 18.908203 z M 32.242188 18.908203 L 32.242188 20.945312 L 36.412109 20.945312 L 36.412109 18.908203 L 32.242188 18.908203 z M 12.242188 22.908203 L 12.242188 24.945312 L 33.962891 24.945312 L 33.962891 22.908203 L 12.242188 22.908203 z M 12.242188 26.908203 L 12.242188 28.847656 L 29.599609 28.847656 L 29.599609 26.908203 L 12.242188 26.908203 z M 32.242188 26.908203 L 32.242188 28.847656 L 36.21875 28.847656 L 36.21875 26.908203 L 32.242188 26.908203 z M 10.023438 30.908203 L 10.023438 32.847656 L 26.21875 32.847656 L 26.21875 30.908203 L 10.023438 30.908203 z M 29.625 30.908203 L 29.625 32.847656 L 36.21875 32.847656 L 36.21875 30.908203 L 29.625 30.908203 z M 32.484375 35.408203 L 32.484375 42.8125 L 34.1875 42.8125 L 34.1875 35.408203 L 32.484375 35.408203 z M 15.841797 35.705078 C 15.228222 35.707153 14.61315 35.717209 14 35.708984 L 14 42.8125 L 15.832031 42.8125 L 15.832031 40.347656 C 16.720331 40.325696 17.641724 40.440821 18.490234 40.113281 C 19.508914 39.780381 20.006329 38.635653 19.824219 37.626953 C 19.737119 36.545633 18.702787 35.815414 17.679688 35.746094 C 17.067737 35.708239 16.455372 35.703003 15.841797 35.705078 z M 15.832031 37.035156 C 16.253381 37.041716 16.677376 37.021284 17.097656 37.052734 C 17.900476 37.072734 18.224781 38.134372 17.738281 38.695312 C 17.231781 39.192372 16.469481 38.969201 15.832031 39.019531 L 15.832031 37.035156 z M 23.369141 37.351562 C 22.43392 37.396028 21.521459 37.801672 21.033203 38.623047 C 20.373813 39.846947 20.540409 41.672867 21.787109 42.466797 C 23.106109 43.241377 24.759459 42.980674 26.130859 42.490234 L 26.130859 41.304688 C 25.795859 41.187018 24.895374 41.858745 24.277344 41.796875 C 23.465844 41.972575 22.406291 41.576421 22.400391 40.619141 L 26.082031 40.619141 C 26.469441 40.744181 26.385513 40.399856 26.382812 40.134766 C 26.415412 39.129666 25.920967 38.099281 24.992188 37.650391 C 24.500937 37.428008 23.930273 37.324883 23.369141 37.351562 z M 30.966797 37.355469 C 30.311977 37.413647 29.689514 37.756083 29.371094 38.359375 L 29.371094 37.482422 L 27.667969 37.482422 L 27.667969 42.8125 L 29.371094 42.8125 L 29.371094 41.996094 C 29.408834 41.170794 29.269756 40.320631 29.509766 39.519531 C 29.806966 38.657861 30.915193 38.567227 31.626953 38.935547 L 31.623047 37.392578 C 31.407472 37.348158 31.18507 37.336076 30.966797 37.355469 z M 23.517578 38.476562 C 24.112414 38.43714 24.688636 38.938036 24.630859 39.568359 L 22.677734 39.568359 C 22.055934 39.583559 22.833322 38.504984 23.263672 38.527344 C 23.347582 38.498456 23.432602 38.482194 23.517578 38.476562 z "
     id="path14075" />
</svg>
