<svg xmlns="http://www.w3.org/2000/svg" width="48" height="48"><defs><linearGradient id="a"><stop offset="0" stop-color="#dc85e9"/><stop offset="1" stop-color="#f2cbf8"/></linearGradient><linearGradient id="b"><stop offset="0" stop-color="#dc85e9"/><stop offset="1" stop-color="#f2cbf8"/></linearGradient><linearGradient id="c"><stop offset="0" stop-color="#fff" stop-opacity=".588"/><stop offset="1" stop-color="#fff" stop-opacity=".863"/></linearGradient><linearGradient id="d"><stop offset="0" stop-color="#b3b3b3"/><stop offset="1" stop-color="#e6e6e6"/></linearGradient><linearGradient id="e"><stop offset="0" stop-color="#e694bb"/><stop offset=".262" stop-color="#d3819a"/><stop offset=".705" stop-color="#b25a64"/><stop offset="1" stop-color="#98313d"/></linearGradient></defs><path style="line-height:normal;text-indent:0;text-align:start;text-decoration-line:none;text-transform:none;marker:none" d="M29.705-.084c-2.047.008-4.121.088-4.517.098H7a2.938 2.938 0 0 0-.563 0C5.063.276 3.975 1.612 4 3.012V45c0 1.57 1.43 3 3 3h34c1.57 0 3-1.43 3-3V18.818c.018-.792.215-9.927-.336-10.496L34.054.248c-.284-.275-2.302-.34-4.349-.332zm1.49 3.094l.133 7.504c.012.681.638 1.29 1.317 1.279l7.771-.137c.133.018.268.017.4-.006l.082 3.03L41 18.77v26.227H7V3.021h18.672l5.523-.011zm-19.63 13.693c-.585 0-1.471-.028-1.471.125v23.445l.049.092.115.035h26.597c.474-.062 1.137.137 1.471-.127V17.852c0-.649-.009-1.149-.16-1.149H11.564zm.222.563h2.26v2.257h-2.26v-2.257zm4.518 0h2.26v2.257h-2.26v-2.257zm4.517 0h2.258v2.257h-2.258v-2.257zm4.518 0h2.258v2.257H25.34v-2.257zm4.517 0h2.258v2.257h-2.258v-2.257zm4.516 0h2.26v2.257h-2.26v-2.257zm2.824 2.797v16.966l-25.974.041V20.088l25.974-.026zm-12.96 3.826a4.822 4.822 0 0 0 0 9.642 4.822 4.822 0 0 0 0-9.643zm-.807 2.375a.47.47 0 0 1 .238.082l2.875 1.976a.471.471 0 0 1 0 .775l-2.875 1.977a.47.47 0 0 1-.484.03.472.472 0 0 1-.252-.416v-3.956a.472.472 0 0 1 .498-.468zM11.787 37.592h2.26v2.26h-2.26v-2.26zm4.518 0h2.26v2.26h-2.26v-2.26zm4.517 0h2.258v2.26h-2.258v-2.26zm4.518 0h2.258v2.26H25.34v-2.26zm4.517 0h2.258v2.26h-2.258v-2.26zm4.516 0h2.26v2.26h-2.26v-2.26z" color="#000" font-weight="400" font-family="Andale Mono" overflow="visible" fill="#e6e6e6"/></svg>