<svg xmlns="http://www.w3.org/2000/svg" width="24" height="24"><path fill="none" stroke="#5beedc" stroke-width="2" stroke-linecap="round" paint-order="markers fill stroke" d="M3.24-20.91h9.67v9.84H3.24zm32 0h9.67v9.84h-9.67zm-32 32h9.67v9.84H3.24zm32 0h9.67v9.84h-9.67z" transform="matrix(.45565 0 0 .44996 1.04 12.07)"/><path d="M10.03-11.07c2.8 7.69-6.6 13.42-4.24 22.74m36.24-22.74c2.8 7.69-6.6 13.42-4.24 22.74m-2.31 5.96c-7.69 2.8-13.42-6.6-22.75-4.25m22.75-27.75c-7.69 2.8-13.42-6.6-22.75-4.25" fill="none" stroke="#5beedc" stroke-width="2" transform="matrix(.45565 0 0 .44996 1.04 12.07)"/><path d="M5.61 7.1l.22 1.76-.2 1.05-1 1.94v-.02l-.75 2-.46 1.7.14 1.45 3.37.08-.09 1.03 2.62-.05 1.37.43 1.94.94 1.83.68 1.5.05 1.1-.14-.1-2.94.95-.08.27-2 .05-.8 1.6-3.68.65-2.02-.43-1.39h-3.1l.12-1.49-2.03.29-2.41-1.22L10.56 4 8.6 3.48l-1.77.22.09 3.4z" fill="#5beedc"/></svg>
