<?xml version="1.0" encoding="UTF-8" standalone="no"?>
<!-- Created with Inkscape (http://www.inkscape.org/) -->

<svg
   xmlns:dc="http://purl.org/dc/elements/1.1/"
   xmlns:cc="http://creativecommons.org/ns#"
   xmlns:rdf="http://www.w3.org/1999/02/22-rdf-syntax-ns#"
   xmlns:svg="http://www.w3.org/2000/svg"
   xmlns="http://www.w3.org/2000/svg"
   xmlns:sodipodi="http://sodipodi.sourceforge.net/DTD/sodipodi-0.dtd"
   xmlns:inkscape="http://www.inkscape.org/namespaces/inkscape"
   width="24"
   height="24"
   viewBox="0 0 6.35 6.35"
   version="1.1"
   id="svg829"
   inkscape:version="0.92.3 (2405546, 2018-03-11)"
   sodipodi:docname="edit-find.svg">
  <defs
     id="defs823" />
  <sodipodi:namedview
     id="base"
     pagecolor="#ffffff"
     bordercolor="#666666"
     borderopacity="1.0"
     inkscape:pageopacity="0.0"
     inkscape:pageshadow="2"
     inkscape:zoom="5.5729167"
     inkscape:cx="-23.439252"
     inkscape:cy="11.282243"
     inkscape:document-units="mm"
     inkscape:current-layer="layer1"
     showgrid="false"
     showguides="true"
     inkscape:guide-bbox="true"
     inkscape:window-width="1366"
     inkscape:window-height="714"
     inkscape:window-x="0"
     inkscape:window-y="25"
     inkscape:window-maximized="1"
     scale-x="1.9"
     units="px" />
  <metadata
     id="metadata826">
    <rdf:RDF>
      <cc:Work
         rdf:about="">
        <dc:format>image/svg+xml</dc:format>
        <dc:type
           rdf:resource="http://purl.org/dc/dcmitype/StillImage" />
        <dc:title></dc:title>
      </cc:Work>
    </rdf:RDF>
  </metadata>
  <g
     inkscape:label="Capa 1"
     inkscape:groupmode="layer"
     id="layer1"
     transform="translate(0,-290.65)">
    <path
       style="fill:#1a1a1a;fill-opacity:1;stroke-width:0.10650568"
       d="m 2.5227045,290.78405 c -1.3152876,0 -2.39165192,1.07481 -2.39165192,2.38923 0,1.31443 1.07636432,2.38887 2.39165192,2.38887 0.5017253,0 0.9679149,-0.15706 1.3534738,-0.42342 l 1.6006404,1.59947 a 0.43441189,0.43441189 0 1 0 0.6143505,-0.61435 l -1.6010356,-1.59909 c 0.2662215,-0.38509 0.4234309,-0.85047 0.4234309,-1.35148 0,-1.31442 -1.0755722,-2.38923 -2.39086,-2.38923 z m 0,0.869 a 1.5142315,1.5142315 0 0 1 1.5218163,1.52023 c 0,0.84443 -0.6756533,1.52023 -1.5218163,1.52023 a 1.5151002,1.5151002 0 0 1 -1.5230047,-1.52023 c 0,-0.84444 0.676842,-1.52023 1.5230047,-1.52023 z"
       id="path4521"
       inkscape:connector-curvature="0" />
  </g>
</svg>
