<?xml version="1.0" encoding="UTF-8" standalone="no"?>
<!-- Created with Inkscape (http://www.inkscape.org/) -->

<svg
   xmlns:dc="http://purl.org/dc/elements/1.1/"
   xmlns:cc="http://creativecommons.org/ns#"
   xmlns:rdf="http://www.w3.org/1999/02/22-rdf-syntax-ns#"
   xmlns:svg="http://www.w3.org/2000/svg"
   xmlns="http://www.w3.org/2000/svg"
   xmlns:sodipodi="http://sodipodi.sourceforge.net/DTD/sodipodi-0.dtd"
   xmlns:inkscape="http://www.inkscape.org/namespaces/inkscape"
   width="24"
   height="24"
   viewBox="0 0 6.35 6.35"
   version="1.1"
   id="svg829"
   inkscape:version="0.92.3 (2405546, 2018-03-11)"
   sodipodi:docname="edit-find.svg">
  <defs
     id="defs823" />
  <sodipodi:namedview
     id="base"
     pagecolor="#ffffff"
     bordercolor="#666666"
     borderopacity="1.0"
     inkscape:pageopacity="0.0"
     inkscape:pageshadow="2"
     inkscape:zoom="11.145833"
     inkscape:cx="-8.9046735"
     inkscape:cy="11.282242"
     inkscape:document-units="mm"
     inkscape:current-layer="layer1"
     showgrid="false"
     showguides="true"
     inkscape:guide-bbox="true"
     inkscape:window-width="1366"
     inkscape:window-height="717"
     inkscape:window-x="0"
     inkscape:window-y="25"
     inkscape:window-maximized="1"
     scale-x="1.9"
     units="px"
     inkscape:snap-global="false" />
  <metadata
     id="metadata826">
    <rdf:RDF>
      <cc:Work
         rdf:about="">
        <dc:format>image/svg+xml</dc:format>
        <dc:type
           rdf:resource="http://purl.org/dc/dcmitype/StillImage" />
        <dc:title></dc:title>
      </cc:Work>
    </rdf:RDF>
  </metadata>
  <g
     inkscape:label="Capa 1"
     inkscape:groupmode="layer"
     id="layer1"
     transform="translate(0,-290.65)">
    <path
       style="fill:#333333;fill-opacity:1;stroke-width:0.06922965"
       d="M 3.175,290.69186 A 3.1335212,3.1335212 0 0 0 0.04134115,293.82552 3.1335212,3.1335212 0 0 0 3.175,296.95814 3.1335212,3.1335212 0 0 0 6.3086588,293.82552 3.1335212,3.1335212 0 0 0 3.175,290.69186 Z m -0.00879,0.4656 A 2.6939629,2.6939629 0 0 1 5.8601025,293.85187 2.6939629,2.6939629 0 0 1 3.16621,296.54628 2.6939629,2.6939629 0 0 1 0.47180082,293.85187 2.6939629,2.6939629 0 0 1 3.16621,291.15746 Z m -0.5353678,0.57723 c -0.8579774,0 -1.5601115,0.70115 -1.5601115,1.55856 0,0.85743 0.7021341,1.55804 1.5601115,1.55804 0.3272812,0 0.631129,-0.1022 0.8826335,-0.27595 l 1.0443805,1.04335 a 0.28337578,0.28337578 0 1 0 0.4004924,-0.40101 L 3.913968,294.17485 c 0.1736593,-0.2512 0.276469,-0.55478 0.276469,-0.8816 0,-0.85741 -0.7016171,-1.55856 -1.5595948,-1.55856 z m 0,0.56689 a 0.98775098,0.98775098 0 0 1 0.9927041,0.99167 c 0,0.55084 -0.4407419,0.99167 -0.9927041,0.99167 a 0.98831764,0.98831764 0 0 1 -0.9937378,-0.99167 c 0,-0.55083 0.441776,-0.99167 0.9937378,-0.99167 z"
       id="path865"
       inkscape:connector-curvature="0" />
  </g>
</svg>
