<?xml version="1.0" encoding="UTF-8" standalone="no"?>
<!-- Created with Inkscape (http://www.inkscape.org/) -->

<svg
   xmlns:dc="http://purl.org/dc/elements/1.1/"
   xmlns:cc="http://creativecommons.org/ns#"
   xmlns:rdf="http://www.w3.org/1999/02/22-rdf-syntax-ns#"
   xmlns:svg="http://www.w3.org/2000/svg"
   xmlns="http://www.w3.org/2000/svg"
   xmlns:sodipodi="http://sodipodi.sourceforge.net/DTD/sodipodi-0.dtd"
   xmlns:inkscape="http://www.inkscape.org/namespaces/inkscape"
   id="svg3692"
   width="24"
   height="24"
   version="1.1"
   sodipodi:docname="gnome-fs-bookmark-missing.svg"
   inkscape:version="0.92.3 (2405546, 2018-03-11)">
  <sodipodi:namedview
     pagecolor="#ffffff"
     bordercolor="#666666"
     borderopacity="1"
     objecttolerance="10"
     gridtolerance="10"
     guidetolerance="10"
     inkscape:pageopacity="0"
     inkscape:pageshadow="2"
     inkscape:window-width="1366"
     inkscape:window-height="690"
     id="namedview42"
     showgrid="false"
     inkscape:zoom="20.625"
     inkscape:cx="-8.8969696"
     inkscape:cy="12"
     inkscape:window-x="0"
     inkscape:window-y="28"
     inkscape:window-maximized="1"
     inkscape:current-layer="svg3692"
     showguides="true"
     inkscape:guide-bbox="true" />
  <defs
     id="defs3694">
    <linearGradient
       id="linearGradient3619"
       x1="11.566"
       x2="15.215"
       y1="22.292"
       y2="33.955002"
       gradientTransform="translate(2.9799,-3.1217)"
       gradientUnits="userSpaceOnUse">
      <stop
         id="stop2687"
         style="stop-color:#fff;stop-opacity:.27451"
         offset="0" />
      <stop
         id="stop2689"
         style="stop-color:#fff;stop-opacity:0"
         offset="1" />
    </linearGradient>
    <linearGradient
       id="linearGradient3648"
       x1="29.646999"
       x2="29.646999"
       y1="2"
       y2="43.444"
       gradientUnits="userSpaceOnUse">
      <stop
         id="stop3644"
         style="stop-color:#fff"
         offset="0" />
      <stop
         id="stop3646"
         style="stop-color:#fff;stop-opacity:0"
         offset="1" />
    </linearGradient>
    <radialGradient
       id="radialGradient3627"
       cx="13.139"
       cy="25.625"
       r="13.931"
       gradientTransform="matrix(0,2.6541,-3.1628,0,97.183,-26.676)"
       gradientUnits="userSpaceOnUse">
      <stop
         id="stop3692"
         style="stop-color:#ffeb9f"
         offset="0" />
      <stop
         id="stop3694"
         style="stop-color:#ffd57e"
         offset=".26238" />
      <stop
         id="stop3696"
         style="stop-color:#ffbc43"
         offset=".66094" />
      <stop
         id="stop3698"
         style="stop-color:#ff921a"
         offset="1" />
    </radialGradient>
    <linearGradient
       id="linearGradient3629"
       x1="21.483"
       x2="21.483"
       y1="36.255001"
       y2="9.5799999"
       gradientTransform="matrix(1.6509,0,0,1.6568,-11.466,-15.046)"
       gradientUnits="userSpaceOnUse">
      <stop
         id="stop3605"
         style="stop-color:#a7651c"
         offset="0" />
      <stop
         id="stop3607"
         style="stop-color:#c8a700"
         offset="1" />
    </linearGradient>
    <radialGradient
       id="radialGradient3690"
       cx="62.625"
       cy="4.625"
       r="10.625"
       gradientTransform="matrix(2.1647,0,0,0.84706,-111.56,35.082)"
       gradientUnits="userSpaceOnUse">
      <stop
         id="stop8840"
         offset="0" />
      <stop
         id="stop8842"
         style="stop-opacity:0"
         offset="1" />
    </radialGradient>
    <linearGradient
       id="linearGradient5530"
       x1="22.368999"
       x2="22.368999"
       y1="8.0323"
       y2="38.273998"
       gradientTransform="matrix(0.59882,0,0,0.5952,23.605,21.219)"
       gradientUnits="userSpaceOnUse">
      <stop
         id="stop3945"
         style="stop-color:#fff"
         offset="0" />
      <stop
         id="stop3947"
         style="stop-color:#fff;stop-opacity:0"
         offset="1" />
    </linearGradient>
    <radialGradient
       id="radialGradient2885"
       cx="69.447998"
       cy="51.695"
       r="31"
       gradientTransform="matrix(0,0.67924,-0.73892,0,72.903,-19.49)"
       gradientUnits="userSpaceOnUse">
      <stop
         id="stop3244-5"
         style="stop-color:#eef87e"
         offset="0" />
      <stop
         id="stop3246-9"
         style="stop-color:#cde34f"
         offset=".26238" />
      <stop
         id="stop3248-7"
         style="stop-color:#93b723"
         offset=".66094" />
      <stop
         id="stop3250-8"
         style="stop-color:#5a7e0d"
         offset="1" />
    </radialGradient>
    <linearGradient
       id="linearGradient2887"
       x1="72.421997"
       x2="72.421997"
       y1="123.19"
       y2="52.808998"
       gradientTransform="matrix(0.28214,0,0,0.28445,12.171,9.9582)"
       gradientUnits="userSpaceOnUse">
      <stop
         id="stop2492-3"
         style="stop-color:#365f0e"
         offset="0" />
      <stop
         id="stop2494-8"
         style="stop-color:#84a718"
         offset="1" />
    </linearGradient>
  </defs>
  <metadata
     id="metadata3697">
    <rdf:RDF>
      <cc:Work
         rdf:about="">
        <dc:format>image/svg+xml</dc:format>
        <dc:type
           rdf:resource="http://purl.org/dc/dcmitype/StillImage" />
        <dc:title></dc:title>
      </cc:Work>
    </rdf:RDF>
  </metadata>
  <path
     inkscape:connector-curvature="0"
     d="m 20.13043,3.9250704 c -2.178228,-2.178183 -5.074259,-3.37773401 -8.154672,-3.37773401 -3.0804136,0 -5.9764446,1.19955101 -8.1546716,3.37773401 -2.178184,2.1782279 -3.37773404,5.074258 -3.37773404,8.1546716 0,3.080414 1.19955004,5.976444 3.37773404,8.154672 2.178227,2.178183 5.074258,3.377734 8.1546716,3.377734 3.080413,0 5.976444,-1.199551 8.154672,-3.377734 2.178183,-2.178228 3.377733,-5.074258 3.377733,-8.154672 0,-3.0804137 -1.19955,-5.9764437 -3.377733,-8.1546716 z m -8.154672,-1.87352 c 1.822705,0 3.533285,0.489046 5.007767,1.342489 L 11.975758,7.0323773 6.9679914,3.3939943 C 8.4424724,2.5405964 10.153052,2.0515503 11.975758,2.0515504 Z m 3.520807,7.538859 -2.241206,-1.628367 3.626356,-2.634659 z m 0.790781,2.4338776 3.626266,2.63466 H 15.43129 Z m -7.8323506,-2.4339226 -1.38515,-4.262981 3.6263556,2.634659 z m 0.06518,5.0685366 h -4.482321 l 3.62631,-2.634659 z m 3.4555776,-5.7672387 3.032031,2.2028697 -1.158106,3.564324 H 10.101922 L 8.9438164,11.094532 Z M 1.9475604,12.079742 c 0,-2.9504937 1.281088,-5.6072717 3.315972,-7.4438516 l 1.911902,5.8841836 -5.01029,3.640096 c -0.142168,-0.671447 -0.217579,-1.367266 -0.217579,-2.080428 z m 0.869796,4.083373 h 6.191595 L 10.922565,22.05266 C 7.3010294,21.672992 4.2473744,19.357771 2.8173564,16.163115 Z m 7.7732456,0 h 2.770301 l -1.38515,4.263025 z m 2.438248,5.889545 1.913614,-5.889545 h 6.19164 c -1.429973,3.194656 -4.483628,5.509877 -8.105254,5.889545 z m 3.747226,-11.532631 1.911902,-5.8841836 c 2.034839,1.8366699 3.315927,4.4934479 3.315927,7.4438966 0,0.713162 -0.07541,1.408981 -0.217629,2.080383 z"
     id="path2"
     style="fill:#800000;stroke-width:0.04504846" />
</svg>
