<?xml version="1.0" encoding="UTF-8" standalone="no"?>
<!-- Created with Inkscape (http://www.inkscape.org/) -->

<svg
   xmlns:dc="http://purl.org/dc/elements/1.1/"
   xmlns:cc="http://creativecommons.org/ns#"
   xmlns:rdf="http://www.w3.org/1999/02/22-rdf-syntax-ns#"
   xmlns:svg="http://www.w3.org/2000/svg"
   xmlns="http://www.w3.org/2000/svg"
   xmlns:sodipodi="http://sodipodi.sourceforge.net/DTD/sodipodi-0.dtd"
   xmlns:inkscape="http://www.inkscape.org/namespaces/inkscape"
   width="24"
   height="24"
   viewBox="0 0 6.35 6.35"
   version="1.1"
   id="svg829"
   inkscape:version="0.92.3 (2405546, 2018-03-11)"
   sodipodi:docname="go-home.svg">
  <defs
     id="defs823" />
  <sodipodi:namedview
     id="base"
     pagecolor="#ffffff"
     bordercolor="#666666"
     borderopacity="1.0"
     inkscape:pageopacity="0.0"
     inkscape:pageshadow="2"
     inkscape:zoom="22.291667"
     inkscape:cx="12"
     inkscape:cy="12"
     inkscape:document-units="mm"
     inkscape:current-layer="layer1"
     showgrid="false"
     showguides="true"
     inkscape:guide-bbox="true"
     inkscape:window-width="1366"
     inkscape:window-height="714"
     inkscape:window-x="0"
     inkscape:window-y="25"
     inkscape:window-maximized="1"
     scale-x="1.9"
     units="px"
     inkscape:snap-global="false" />
  <metadata
     id="metadata826">
    <rdf:RDF>
      <cc:Work
         rdf:about="">
        <dc:format>image/svg+xml</dc:format>
        <dc:type
           rdf:resource="http://purl.org/dc/dcmitype/StillImage" />
        <dc:title></dc:title>
      </cc:Work>
    </rdf:RDF>
  </metadata>
  <g
     inkscape:label="Capa 1"
     inkscape:groupmode="layer"
     id="layer1"
     transform="translate(0,-290.65)">
    <path
       inkscape:connector-curvature="0"
       style="fill:#1a1a1a;fill-opacity:1;stroke-width:0.0688048"
       d="m 3.1751279,290.71068 a 3.1142918,3.1142918 0 0 0 -3.11441957,3.11446 3.1142918,3.1142918 0 0 0 3.11441957,3.11418 3.1142918,3.1142918 0 0 0 3.1141634,-3.11418 3.1142918,3.1142918 0 0 0 -3.1141634,-3.11446 z m -0.00896,0.4637 a 2.6774305,2.6774305 0 0 1 2.6773614,2.67738 2.6774305,2.6774305 0 0 1 -2.6773614,2.67737 2.6774305,2.6774305 0 0 1 -2.67761797,-2.67737 2.6774305,2.6774305 0 0 1 2.67761797,-2.67738 z m 0,0.26204 -2.44347997,2.44349 0.47288207,0.47284 0.3940684,-0.39406 v 1.89152 h 1.2612742 v -0.94576 c 0,-0.17465 0.140591,-0.31524 0.3152546,-0.31524 0.174664,0 0.3152549,0.14059 0.3152549,0.31524 v 0.94576 h 1.2610202 v -1.89152 l 0.394068,0.39406 0.473138,-0.47284 z m 0.9457641,0.31524 v 0.23647 l 0.6305093,0.63046 v -0.86693 z"
       id="path1374" />
  </g>
</svg>
