<?xml version="1.0" encoding="UTF-8" standalone="no"?>
<svg
   xmlns:dc="http://purl.org/dc/elements/1.1/"
   xmlns:cc="http://creativecommons.org/ns#"
   xmlns:rdf="http://www.w3.org/1999/02/22-rdf-syntax-ns#"
   xmlns:svg="http://www.w3.org/2000/svg"
   xmlns="http://www.w3.org/2000/svg"
   xmlns:sodipodi="http://sodipodi.sourceforge.net/DTD/sodipodi-0.dtd"
   xmlns:inkscape="http://www.inkscape.org/namespaces/inkscape"
   viewBox="0 0 24 24"
   version="1.1"
   id="svg4"
   sodipodi:docname="help-about.svg"
   inkscape:version="0.92.3 (2405546, 2018-03-11)"
   width="24"
   height="24"
   style="fill:#000000">
  <metadata
     id="metadata10">
    <rdf:RDF>
      <cc:Work
         rdf:about="">
        <dc:format>image/svg+xml</dc:format>
        <dc:type
           rdf:resource="http://purl.org/dc/dcmitype/StillImage" />
        <dc:title></dc:title>
      </cc:Work>
    </rdf:RDF>
  </metadata>
  <defs
     id="defs8" />
  <sodipodi:namedview
     pagecolor="#ffffff"
     bordercolor="#666666"
     borderopacity="1"
     objecttolerance="10"
     gridtolerance="10"
     guidetolerance="10"
     inkscape:pageopacity="0"
     inkscape:pageshadow="2"
     inkscape:window-width="1366"
     inkscape:window-height="717"
     id="namedview6"
     showgrid="false"
     inkscape:zoom="7.9254885"
     inkscape:cx="12"
     inkscape:cy="12"
     inkscape:window-x="0"
     inkscape:window-y="25"
     inkscape:window-maximized="1"
     inkscape:current-layer="svg4"
     showguides="true"
     inkscape:guide-bbox="true" />
  <path
     style="fill:#333333;fill-opacity:1;stroke-width:0.26004881"
     d="M 12,0.23046875 A 11.770509,11.770509 0 0 0 0.228516,12 11.770509,11.770509 0 0 0 12,23.769531 11.770509,11.770509 0 0 0 23.771484,12 11.770509,11.770509 0 0 0 12,0.23046875 Z m -0.0332,1.75195315 A 10.119383,10.119383 0 0 1 22.085938,12.101562 10.119383,10.119383 0 0 1 11.966797,22.220703 10.119383,10.119383 0 0 1 1.845703,12.101562 10.119383,10.119383 0 0 1 11.966797,1.9824219 Z"
     id="path822"
     inkscape:connector-curvature="0" />
  <path
     inkscape:connector-curvature="0"
     style="fill:#333333;fill-opacity:1;stroke:none;stroke-width:0.90660918;stroke-linejoin:round"
     d="m 11.9668,1.9824219 c 0.64142,0 2.709324,5.2688857 3.228225,5.6534396 0.51892,0.3845538 6.070736,0.7624277 6.268886,1.384689 0.198214,0.6222247 -4.075477,4.2564795 -4.273718,4.8787035 -0.198205,0.622224 1.165017,6.124629 0.646134,6.509183 -0.518919,0.384553 -5.228189,-2.638272 -5.869599,-2.638272 -0.64142,0 -5.3506983,3.022825 -5.8695993,2.638272 C 5.5782095,20.023883 6.9414671,14.521478 6.7432623,13.899254 6.5450484,13.27703 2.2713032,9.6427752 2.4695442,9.0205505 2.6677581,8.3983261 8.2195291,8.0204153 8.7384302,7.6358615 9.2573493,7.2513076 11.325245,1.9824219 11.966656,1.9824219 Z"
     id="path1307" />
</svg>
