<?xml version="1.0" encoding="UTF-8" standalone="no"?>
<!-- Created with Inkscape (http://www.inkscape.org/) -->

<svg
   xmlns:dc="http://purl.org/dc/elements/1.1/"
   xmlns:cc="http://creativecommons.org/ns#"
   xmlns:rdf="http://www.w3.org/1999/02/22-rdf-syntax-ns#"
   xmlns:svg="http://www.w3.org/2000/svg"
   xmlns="http://www.w3.org/2000/svg"
   xmlns:sodipodi="http://sodipodi.sourceforge.net/DTD/sodipodi-0.dtd"
   xmlns:inkscape="http://www.inkscape.org/namespaces/inkscape"
   width="24"
   height="24"
   viewBox="0 0 6.35 6.35"
   version="1.1"
   id="svg829"
   inkscape:version="0.92.3 (2405546, 2018-03-11)"
   sodipodi:docname="help-about.svg">
  <defs
     id="defs823" />
  <sodipodi:namedview
     id="base"
     pagecolor="#ffffff"
     bordercolor="#666666"
     borderopacity="1.0"
     inkscape:pageopacity="0.0"
     inkscape:pageshadow="2"
     inkscape:zoom="7.8812943"
     inkscape:cx="10.033318"
     inkscape:cy="11.492469"
     inkscape:document-units="mm"
     inkscape:current-layer="layer1"
     showgrid="false"
     showguides="true"
     inkscape:guide-bbox="true"
     inkscape:window-width="1366"
     inkscape:window-height="717"
     inkscape:window-x="0"
     inkscape:window-y="25"
     inkscape:window-maximized="1"
     scale-x="1.9"
     units="px"
     inkscape:snap-global="true" />
  <metadata
     id="metadata826">
    <rdf:RDF>
      <cc:Work
         rdf:about="">
        <dc:format>image/svg+xml</dc:format>
        <dc:type
           rdf:resource="http://purl.org/dc/dcmitype/StillImage" />
        <dc:title></dc:title>
      </cc:Work>
    </rdf:RDF>
  </metadata>
  <g
     inkscape:label="Capa 1"
     inkscape:groupmode="layer"
     id="layer1"
     transform="translate(0,-290.65)">
    <path
       style="fill:#333333;fill-opacity:1;stroke-width:0.26165536"
       d="M 12 0.15820312 A 11.84323 11.84323 0 0 0 0.15625 12.001953 A 11.84323 11.84323 0 0 0 12 23.841797 A 11.84323 11.84323 0 0 0 23.84375 12.001953 A 11.84323 11.84323 0 0 0 12 0.15820312 z M 11.966797 1.9179688 A 10.181907 10.181907 0 0 1 22.148438 12.101562 A 10.181907 10.181907 0 0 1 11.966797 22.285156 A 10.181907 10.181907 0 0 1 1.7832031 12.101562 A 10.181907 10.181907 0 0 1 11.966797 1.9179688 z M 12.173828 5.3789062 L 12.173828 5.3808594 C 10.5047 5.3506232 8.7295911 5.9892752 8.1894531 7.2480469 C 7.8763873 7.9477508 8.1661336 9.203125 9.2167969 9.203125 C 9.8313458 9.203125 10.113806 8.8064964 10.160156 8.4433594 C 10.19523 8.1685877 10.082251 7.9242263 10.015625 7.6972656 C 9.9397245 7.4387459 10.264265 6.9366297 10.617188 6.7324219 C 10.912089 6.5619652 11.220175 6.5051013 11.265625 6.4941406 C 12.324675 6.2397784 13.381765 6.8021958 13.822266 7.4863281 C 14.26274 8.1705738 13.777176 9.2075118 13.080078 10.216797 C 12.383028 11.226158 11.635672 12.372193 11.638672 13.589844 C 11.638672 14.053403 11.597598 14.210897 11.626953 14.398438 C 11.650386 14.548107 12.14539 14.531237 12.525391 14.460938 C 12.492358 13.281536 12.75683 12.137183 13.871094 11.326172 C 15.048048 10.408994 16.182301 9.2589429 16.0625 7.90625 C 16.036346 6.6017083 14.516556 5.5805796 12.878906 5.4335938 C 12.648642 5.4033575 12.412275 5.3830637 12.173828 5.3789062 z M 12.042969 16.048828 C 11.030318 15.994025 10.329148 17.141633 10.9375 17.873047 C 11.480798 18.680581 13.004525 18.480598 13.265625 17.566406 C 13.537056 16.855288 12.883598 16.036998 12.042969 16.048828 z "
       transform="matrix(0.26458333,0,0,0.26458333,0,290.65)"
       id="path1374-3" />
  </g>
</svg>
