<?xml version="1.0" encoding="UTF-8" standalone="no"?>
<svg
   xmlns:dc="http://purl.org/dc/elements/1.1/"
   xmlns:cc="http://creativecommons.org/ns#"
   xmlns:rdf="http://www.w3.org/1999/02/22-rdf-syntax-ns#"
   xmlns:svg="http://www.w3.org/2000/svg"
   xmlns="http://www.w3.org/2000/svg"
   xmlns:sodipodi="http://sodipodi.sourceforge.net/DTD/sodipodi-0.dtd"
   xmlns:inkscape="http://www.inkscape.org/namespaces/inkscape"
   viewBox="0 0 24 24"
   version="1.1"
   id="svg4"
   sodipodi:docname="insert-pause.svg"
   inkscape:version="0.92.3 (2405546, 2018-03-11)"
   width="24"
   height="24"
   style="fill:#000000">
  <metadata
     id="metadata10">
    <rdf:RDF>
      <cc:Work
         rdf:about="">
        <dc:format>image/svg+xml</dc:format>
        <dc:type
           rdf:resource="http://purl.org/dc/dcmitype/StillImage" />
        <dc:title></dc:title>
      </cc:Work>
    </rdf:RDF>
  </metadata>
  <defs
     id="defs8" />
  <sodipodi:namedview
     pagecolor="#ffffff"
     bordercolor="#666666"
     borderopacity="1"
     objecttolerance="10"
     gridtolerance="10"
     guidetolerance="10"
     inkscape:pageopacity="0"
     inkscape:pageshadow="2"
     inkscape:window-width="1366"
     inkscape:window-height="717"
     id="namedview6"
     showgrid="false"
     inkscape:zoom="20.625"
     inkscape:cx="2.3757576"
     inkscape:cy="12"
     inkscape:window-x="0"
     inkscape:window-y="25"
     inkscape:window-maximized="1"
     inkscape:current-layer="svg4" />
  <path
     style="fill:#333333;stroke-width:0.5"
     d="M 5.9272727,1.9895415 V 15.989542 H 9.9272731 V 1.9895415 Z m 8.0000003,0 V 15.989542 h 4 V 1.9895415 Z M 9.4868431,17.733683 c -0.156241,0 -0.3128974,0.05997 -0.4326174,0.179687 l -0.574219,0.573243 c -0.239441,0.23944 -0.239441,0.625793 0,0.865234 l 2.3701173,2.369141 c 0.0012,0.0012 0.0018,0.0027 0.0029,0.0039 l 0.574249,0.573248 c 0.23944,0.239441 0.624817,0.239441 0.864258,0 l 0.577148,-0.577148 2.370117,-2.369141 c 0.239441,-0.239441 0.239441,-0.625794 0,-0.865234 L 14.664577,17.91337 c -0.23944,-0.23944 -0.624817,-0.23944 -0.864257,0 L 11.858913,19.8538 9.9184841,17.91337 c -0.119721,-0.11972 -0.275399,-0.179687 -0.431641,-0.179687 z"
     id="path2"
     inkscape:connector-curvature="0" />
</svg>
