<?xml version="1.0" encoding="UTF-8" standalone="no"?>
<!-- Created with Inkscape (http://www.inkscape.org/) -->

<svg
   xmlns:dc="http://purl.org/dc/elements/1.1/"
   xmlns:cc="http://creativecommons.org/ns#"
   xmlns:rdf="http://www.w3.org/1999/02/22-rdf-syntax-ns#"
   xmlns:svg="http://www.w3.org/2000/svg"
   xmlns="http://www.w3.org/2000/svg"
   xmlns:sodipodi="http://sodipodi.sourceforge.net/DTD/sodipodi-0.dtd"
   xmlns:inkscape="http://www.inkscape.org/namespaces/inkscape"
   width="24"
   height="24"
   viewBox="0 0 6.35 6.35"
   version="1.1"
   id="svg829"
   inkscape:version="0.92.3 (2405546, 2018-03-11)"
   sodipodi:docname="system-lock-screen.svg">
  <defs
     id="defs823" />
  <sodipodi:namedview
     id="base"
     pagecolor="#ffffff"
     bordercolor="#666666"
     borderopacity="1.0"
     inkscape:pageopacity="0.0"
     inkscape:pageshadow="2"
     inkscape:zoom="15.762589"
     inkscape:cx="12"
     inkscape:cy="12"
     inkscape:document-units="mm"
     inkscape:current-layer="layer1"
     showgrid="false"
     showguides="true"
     inkscape:guide-bbox="true"
     inkscape:window-width="1366"
     inkscape:window-height="714"
     inkscape:window-x="0"
     inkscape:window-y="25"
     inkscape:window-maximized="1"
     scale-x="1.9"
     units="px"
     inkscape:snap-global="false" />
  <metadata
     id="metadata826">
    <rdf:RDF>
      <cc:Work
         rdf:about="">
        <dc:format>image/svg+xml</dc:format>
        <dc:type
           rdf:resource="http://purl.org/dc/dcmitype/StillImage" />
        <dc:title></dc:title>
      </cc:Work>
    </rdf:RDF>
  </metadata>
  <g
     inkscape:label="Capa 1"
     inkscape:groupmode="layer"
     id="layer1"
     transform="translate(0,-290.65)">
    <path
       style="fill:#1a1a1a;fill-opacity:1;stroke-width:0.26165536"
       d="M 12 0.15820312 A 11.84323 11.84323 0 0 0 0.15625 12.001953 A 11.84323 11.84323 0 0 0 12 23.841797 A 11.84323 11.84323 0 0 0 23.84375 12.001953 A 11.84323 11.84323 0 0 0 12 0.15820312 z M 11.966797 1.9179688 A 10.181907 10.181907 0 0 1 22.148438 12.101562 A 10.181907 10.181907 0 0 1 11.966797 22.285156 A 10.181907 10.181907 0 0 1 1.7832031 12.101562 A 10.181907 10.181907 0 0 1 11.966797 1.9179688 z M 11.966797 2.3671875 C 9.6801657 2.3671875 7.8242188 4.2231892 7.8242188 6.5097656 L 7.8242188 8.1660156 L 6.9960938 8.1660156 L 5.3398438 8.1699219 L 5.3398438 18.105469 C 5.3398438 19.020984 6.080612 19.763672 6.9960938 19.763672 L 16.9375 19.763672 C 17.852981 19.763672 18.585778 19.020908 18.595703 18.105469 L 18.699219 8.2050781 L 16.9375 8.1660156 L 16.109375 8.1660156 L 16.109375 6.5097656 C 16.109375 4.2231515 14.253428 2.3671875 11.966797 2.3671875 z M 11.966797 3.9414062 C 13.383514 3.9414062 14.535156 5.0930097 14.535156 6.5097656 L 14.535156 8.1660156 L 9.3984375 8.1660156 L 9.3984375 6.5097656 C 9.3984375 5.0930097 10.55008 3.9414062 11.966797 3.9414062 z "
       transform="matrix(0.26458333,0,0,0.26458333,0,290.65)"
       id="path865" />
  </g>
</svg>
