<?xml version="1.0" encoding="UTF-8" standalone="no"?>
<svg
   xmlns:dc="http://purl.org/dc/elements/1.1/"
   xmlns:cc="http://creativecommons.org/ns#"
   xmlns:rdf="http://www.w3.org/1999/02/22-rdf-syntax-ns#"
   xmlns:svg="http://www.w3.org/2000/svg"
   xmlns="http://www.w3.org/2000/svg"
   xmlns:sodipodi="http://sodipodi.sourceforge.net/DTD/sodipodi-0.dtd"
   xmlns:inkscape="http://www.inkscape.org/namespaces/inkscape"
   viewBox="0 0 24 24"
   version="1.1"
   id="svg4"
   sodipodi:docname="view-paged.svg"
   inkscape:version="0.92.3 (2405546, 2018-03-11)"
   width="24"
   height="24"
   style="fill:#000000">
  <metadata
     id="metadata10">
    <rdf:RDF>
      <cc:Work
         rdf:about="">
        <dc:format>image/svg+xml</dc:format>
        <dc:type
           rdf:resource="http://purl.org/dc/dcmitype/StillImage" />
        <dc:title></dc:title>
      </cc:Work>
    </rdf:RDF>
  </metadata>
  <defs
     id="defs8" />
  <sodipodi:namedview
     pagecolor="#ffffff"
     bordercolor="#666666"
     borderopacity="1"
     objecttolerance="10"
     gridtolerance="10"
     guidetolerance="10"
     inkscape:pageopacity="0"
     inkscape:pageshadow="2"
     inkscape:window-width="1366"
     inkscape:window-height="717"
     id="namedview6"
     showgrid="false"
     inkscape:zoom="22.5"
     inkscape:cx="4.0888889"
     inkscape:cy="12"
     inkscape:window-x="0"
     inkscape:window-y="25"
     inkscape:window-maximized="1"
     inkscape:current-layer="svg4"
     showguides="true"
     inkscape:guide-bbox="true" />
  <g
     style="color:#bebebe;fill:#333333"
     transform="matrix(1.5333332,0,0,1.5333332,-1430.1,-88.433332)"
     id="g4">
    <path
       inkscape:connector-curvature="0"
       d="m 946,73 c 0,0 1,0 1,-1 V 62 c 0,-1 -1,-1 -1,-1 h -1 v 1 h 0.5 c 0,0 0.5,0 0.5,0.5 v 9 c 0,0 0,0.5 -0.5,0.5 h -7 c 0,0 -0.5,0 -0.5,-0.5 V 71 h -1 v 1 c 0,1 1,1 1,1 z"
       overflow="visible"
       style="overflow:visible;fill:#333333;marker:none"
       id="path6" />
    <path
       inkscape:connector-curvature="0"
       d="m 944,59 v 10 c 0,1 -1,1 -1,1 h -8 c 0,0 -1,0 -1,-1 V 59 c 0,-1 1,-1 1,-1 h 8 c 0,0 1,0 1,1 z m -1,0.5 C 943,59 942.5,59 942.5,59 h -7 c 0,0 -0.5,0 -0.5,0.5 v 9 c 0,0.5 0.5,0.5 0.5,0.5 h 7 c 0.5,0 0.5,-0.5 0.5,-0.5 z"
       overflow="visible"
       style="overflow:visible;fill:#333333;marker:none"
       id="path8" />
  </g>
</svg>
