<?xml version="1.0" encoding="UTF-8" standalone="no"?>
<svg
   xmlns:dc="http://purl.org/dc/elements/1.1/"
   xmlns:cc="http://creativecommons.org/ns#"
   xmlns:rdf="http://www.w3.org/1999/02/22-rdf-syntax-ns#"
   xmlns:svg="http://www.w3.org/2000/svg"
   xmlns="http://www.w3.org/2000/svg"
   xmlns:sodipodi="http://sodipodi.sourceforge.net/DTD/sodipodi-0.dtd"
   xmlns:inkscape="http://www.inkscape.org/namespaces/inkscape"
   width="48"
   height="48"
   viewBox="0 0 12.7 12.7"
   version="1.1"
   id="svg6"
   sodipodi:docname="firefox.svg"
   inkscape:version="0.92.4 (5da689c313, 2019-01-14)">
  <metadata
     id="metadata12">
    <rdf:RDF>
      <cc:Work
         rdf:about="">
        <dc:format>image/svg+xml</dc:format>
        <dc:type
           rdf:resource="http://purl.org/dc/dcmitype/StillImage" />
        <dc:title></dc:title>
      </cc:Work>
    </rdf:RDF>
  </metadata>
  <defs
     id="defs10" />
  <sodipodi:namedview
     pagecolor="#ffffff"
     bordercolor="#666666"
     borderopacity="1"
     objecttolerance="10"
     gridtolerance="10"
     guidetolerance="10"
     inkscape:pageopacity="0"
     inkscape:pageshadow="2"
     inkscape:window-width="1087"
     inkscape:window-height="480"
     id="namedview8"
     showgrid="false"
     inkscape:zoom="4.9166667"
     inkscape:cx="24"
     inkscape:cy="24"
     inkscape:window-x="0"
     inkscape:window-y="25"
     inkscape:window-maximized="0"
     inkscape:current-layer="svg6" />
  <path
     d="M 6.3439561,0.07241667 A 6.2895833,6.2895833 0 0 0 0.05541667,6.362 6.2895833,6.2895833 0 0 0 6.345,12.651583 6.2895833,6.2895833 0 0 0 12.634583,6.362 6.2895833,6.2895833 0 0 0 6.3439561,0.07241667 Z M 6.3262095,1.0088077 A 5.4074758,5.4074758 0 0 1 11.733685,6.4162835 5.4074758,5.4074758 0 0 1 6.3262095,11.823759 5.4074758,5.4074758 0 0 1 0.91873375,6.4162835 5.4074758,5.4074758 0 0 1 6.3262095,1.0088077 Z"
     id="path2"
     inkscape:connector-curvature="0"
     style="fill:#ecec1c;stroke-width:1.0439142" />
  <path
     d="m 8.0476241,1.8648174 0.013571,0.066811 c 0.2463638,0.5397037 0.7140374,1.0240799 1.0908904,1.5115879 0.052196,-0.1336211 0.099172,-0.5616259 0.1972998,-0.6712369 0.00313,-0.00209 0.00418,-0.00418 0.00731,-0.00418 0.00522,0 0.019834,0.031317 0.031317,0.067854 0.07725,0.1670263 0.1732898,0.3361404 0.2839447,0.4906397 0.00209,0 0.00209,0.00104 0.00209,0.00209 0.749531,1.107593 1.506369,1.9187144 1.506369,3.4971127 0,2.4897355 -2.162991,4.5086662 -4.8301919,4.5086662 -2.6682448,0 -4.8312352,-2.0189307 -4.8312352,-4.5086662 0,-0.8904588 0.2787251,-1.7193267 0.755794,-2.4187493 0,-0.00731 0.00313,-0.011483 0.00313,-0.022966 0,-0.073074 0.025054,-0.2829008 0.045932,-0.3904239 C 2.3802137,3.7219409 2.6056992,2.928566 2.93662,2.7678033 3.0785923,3.0538358 3.1224367,3.5611781 3.3040778,3.8472106 A 0.47184924,0.47184924 0 0 1 3.4919824,3.805454 l 0.01879,-0.00313 a 0.59711895,0.59711895 0 0 1 0.045932,-0.00418 h 0.00418 l 0.04802,-0.00313 0.00626,-0.00104 h 0.045932 l 0.010439,-0.00104 a 2.008491,2.008491 0 0 1 0.1127428,0 c 0.061591,0 0.1252697,0.00418 0.1899923,0.010439 0.058459,0.00418 0.1158745,0.012527 0.1722459,0.020878 0.00626,0 0.012527,0 0.01879,0.00209 l 0.026098,0.00313 c 0.00835,0 0.015659,0.00313 0.02401,0.00418 0.00731,0 0.014615,0.00209 0.020878,0.00313 l 0.030273,0.00522 0.016703,0.00313 0.0428,0.00731 C 4.5358966,3.903582 4.5139744,3.9046259 4.5839167,3.8409471 4.8000069,3.6519986 5.4754194,3.3273413 5.8376577,3.5121141 5.6100844,3.7073261 4.9722528,4.0768717 5.1528499,4.4652078 A 0.51464972,0.51464972 0 0 0 5.5829426,4.7345377 C 6.0996802,4.7773382 6.3136826,4.8222265 6.345,4.8932127 6.3710979,4.9506279 6.3293413,5.108259 6.2667064,5.19386 A 0.83095574,0.83095574 0 0 1 6.0725384,5.3692376 C 6.0485284,5.3828084 5.9263904,5.437092 5.8000768,5.4903316 5.6079965,5.570713 5.1424108,5.6949388 5.1424108,5.9078973 5.188343,6.0790992 5.4764633,6.2659599 5.3438862,6.3880979 5.2050456,6.2993651 4.7592943,6.1626124 4.5400723,6.1720076 c -0.3632822,0.4530588 0.016703,1.0720999 0.7651891,1.2391262 0.1795533,0.046976 0.34136,0.034449 0.632612,-0.04802 0.292296,-0.082469 0.4290488,-0.089777 0.5918994,-0.089777 0.158675,0 0.2307051,0.012527 0.3643261,0.062635 0.157631,0.059503 0.3465795,0.2035633 0.4008631,0.3079547 C 7.336718,7.7263955 7.31584,7.7441423 7.242766,7.7869427 7.208317,7.8078207 7.188482,7.8078207 7.0287635,7.7900727 6.9212407,7.7785916 6.7260287,7.8151286 6.3303852,8.0113845 6.065231,8.1429177 5.8480968,8.1888499 5.6205235,8.1888499 5.3741598,8.1909399 5.1163129,8.2097279 4.7707773,8.1596199 4.9012666,8.8496472 5.8627116,9.0782645 6.5788368,9.0751327 7.7093959,9.0699127 8.5152977,8.2347818 8.7585297,7.173121 8.7689687,7.107354 8.7752327,6.9956555 8.7752327,6.8881324 8.7752327,6.5300698 8.7073777,6.2409055 8.5455715,5.9172921 8.4296967,5.6813679 8.1165225,5.3587984 7.8284021,5.0665024 A 2.3154018,2.3154018 0 0 1 7.3356746,4.037203 2.5429751,2.5429751 0 0 1 7.3408942,3.3732735 2.9229599,2.9229599 0 0 1 7.476603,2.8878534 C 7.6091802,2.5527569 7.7365377,2.2406266 7.9599353,1.9629454 l 0.02923,-0.035493 z"
     id="path4"
     inkscape:connector-curvature="0"
     style="opacity:0.75;fill:#aa4400;stroke-width:1.0439142" />
</svg>
