<?xml version="1.0" encoding="UTF-8" standalone="no"?>
<svg
   xmlns:dc="http://purl.org/dc/elements/1.1/"
   xmlns:cc="http://creativecommons.org/ns#"
   xmlns:rdf="http://www.w3.org/1999/02/22-rdf-syntax-ns#"
   xmlns:svg="http://www.w3.org/2000/svg"
   xmlns="http://www.w3.org/2000/svg"
   xmlns:sodipodi="http://sodipodi.sourceforge.net/DTD/sodipodi-0.dtd"
   xmlns:inkscape="http://www.inkscape.org/namespaces/inkscape"
   width="48"
   height="48"
   viewBox="0 0 12.7 12.7"
   version="1.1"
   id="svg4"
   sodipodi:docname="jd-gui.svg"
   inkscape:version="0.92.5 (2060ec1f9f, 2020-04-08)">
  <metadata
     id="metadata10">
    <rdf:RDF>
      <cc:Work
         rdf:about="">
        <dc:format>image/svg+xml</dc:format>
        <dc:type
           rdf:resource="http://purl.org/dc/dcmitype/StillImage" />
        <dc:title></dc:title>
      </cc:Work>
    </rdf:RDF>
  </metadata>
  <defs
     id="defs8" />
  <sodipodi:namedview
     pagecolor="#ffffff"
     bordercolor="#666666"
     borderopacity="1"
     objecttolerance="10"
     gridtolerance="10"
     guidetolerance="10"
     inkscape:pageopacity="0"
     inkscape:pageshadow="2"
     inkscape:window-width="1085"
     inkscape:window-height="480"
     id="namedview6"
     showgrid="false"
     inkscape:zoom="4.9166667"
     inkscape:cx="2.1355932"
     inkscape:cy="24"
     inkscape:window-x="0"
     inkscape:window-y="25"
     inkscape:window-maximized="0"
     inkscape:current-layer="svg4" />
  <path
     d="M 6.34,0.075 A 6.295,6.295 0 0 0 0.055,6.36 6.295,6.295 0 0 0 6.34,12.655 6.295,6.295 0 0 0 12.634,6.36 6.295,6.295 0 0 0 6.34,0.075 Z m -0.011,0.94 a 5.408,5.408 0 0 1 5.397,5.387 5.407,5.407 0 0 1 -10.814,0 c 0,-2.987 2.43,-5.387 5.417,-5.387 z M 7.444,2.127 C 7.754,3.358 6.35,3.731 5.84,4.502 5.492,5.024 6.002,5.584 6.71,6.218 6.437,5.596 5.504,5.049 6.71,4.092 8.215,2.911 7.444,2.127 7.444,2.127 Z m 0.931,1.53 c 0,0 -2.548,0.634 -1.33,2.038 0.36,0.41 -0.1,0.784 -0.1,0.784 0,0 0.92,-0.473 0.498,-1.057 C 7.058,4.862 6.76,4.588 8.375,3.656 Z M 3.995,6.574 C 3.995,6.808 4.06,7.28 4.06,7.28 H 3.549 A 0.493,0.493 0 0 0 3.055,7.774 v 2.082 c 0,0.273 0.22,0.482 0.494,0.482 h 1.035 c 0.231,0 0.353,-0.235 0.353,-0.235 0.561,0.47 1.38,0.47 1.987,0.47 1.235,0 2.717,-0.047 2.717,-3.999 z M 3.83,7.75 h 0.247 c 0.097,0.976 0.313,1.636 0.6,2.08 A 0.269,0.269 0 0 1 4.54,9.868 H 3.83 C 3.662,9.868 3.526,9.71 3.526,9.515 V 8.103 C 3.526,7.908 3.662,7.75 3.83,7.75 Z"
     id="path2"
     inkscape:connector-curvature="0"
     style="fill:#ecec1c" />
</svg>
