<?xml version="1.0" encoding="UTF-8" standalone="no"?>
<svg
   xmlns:dc="http://purl.org/dc/elements/1.1/"
   xmlns:cc="http://creativecommons.org/ns#"
   xmlns:rdf="http://www.w3.org/1999/02/22-rdf-syntax-ns#"
   xmlns:svg="http://www.w3.org/2000/svg"
   xmlns="http://www.w3.org/2000/svg"
   xmlns:sodipodi="http://sodipodi.sourceforge.net/DTD/sodipodi-0.dtd"
   xmlns:inkscape="http://www.inkscape.org/namespaces/inkscape"
   width="48"
   height="48"
   viewBox="0 0 12.7 12.7"
   version="1.1"
   id="svg4"
   sodipodi:docname="postscript-viewer.svg"
   inkscape:version="0.92.4 (5da689c313, 2019-01-14)">
  <metadata
     id="metadata10">
    <rdf:RDF>
      <cc:Work
         rdf:about="">
        <dc:format>image/svg+xml</dc:format>
        <dc:type
           rdf:resource="http://purl.org/dc/dcmitype/StillImage" />
        <dc:title></dc:title>
      </cc:Work>
    </rdf:RDF>
  </metadata>
  <defs
     id="defs8" />
  <sodipodi:namedview
     pagecolor="#ffffff"
     bordercolor="#666666"
     borderopacity="1"
     objecttolerance="10"
     gridtolerance="10"
     guidetolerance="10"
     inkscape:pageopacity="0"
     inkscape:pageshadow="2"
     inkscape:window-width="1087"
     inkscape:window-height="480"
     id="namedview6"
     showgrid="false"
     inkscape:zoom="4.9166667"
     inkscape:cx="2.1355932"
     inkscape:cy="24"
     inkscape:window-x="0"
     inkscape:window-y="25"
     inkscape:window-maximized="0"
     inkscape:current-layer="svg4" />
  <path
     d="m 6.344,0.073 a 6.29,6.29 0 0 0 -6.29,6.29 6.29,6.29 0 0 0 6.29,6.288 6.29,6.29 0 0 0 6.29,-6.289 6.29,6.29 0 0 0 -6.29,-6.29 z M 6.326,1.009 A 5.407,5.407 0 0 1 11.733,6.416 5.407,5.407 0 0 1 6.326,11.823 5.407,5.407 0 0 1 0.92,6.416 5.407,5.407 0 0 1 6.326,1.01 Z M 6.203,1.624 C 6.133,1.624 5.94,1.656 5.864,1.681 5.672,1.744 5.569,1.891 5.486,2.081 5.25,2.625 5.574,3.552 5.906,4.267 A 21.92,21.92 0 0 1 4.644,7.807 C 3.381,8.377 2.71,8.939 2.649,9.475 2.627,9.67 2.674,9.955 3.021,10.213 3.116,10.283 3.227,10.32 3.343,10.32 3.635,10.32 3.93,10.1 4.271,9.626 4.519,9.281 4.786,8.811 5.065,8.226 A 16.132,16.132 0 0 1 8.007,7.298 c 0.527,0.5 0.998,0.752 1.404,0.752 a 0.888,0.888 0 0 0 0.74,-0.392 C 10.344,7.392 10.388,7.152 10.281,6.948 10.152,6.7 9.835,6.58 9.314,6.58 9.007,6.58 8.632,6.62 8.194,6.697 7.584,6.058 6.948,5.125 6.499,4.209 6.546,4.012 6.591,3.814 6.631,3.615 6.684,3.345 6.731,3.072 6.754,2.797 6.778,2.514 6.777,2.221 6.626,1.969 6.546,1.833 6.378,1.624 6.203,1.624 Z M 6.083,2.218 C 6.098,2.214 6.432,2.581 6.115,3.278 5.64,2.797 6.051,2.229 6.083,2.218 Z M 6.286,5.004 C 6.66,5.669 7.11,6.314 7.56,6.83 6.849,6.994 6.09,7.227 5.395,7.494 5.733,6.698 6.047,5.819 6.285,5.004 Z m 3.093,2.131 c 0.297,0 0.351,0.043 0.392,0.065 A 0.51,0.51 0 0 1 9.694,7.337 C 9.592,7.478 9.369,7.482 9.291,7.482 9.113,7.482 9.047,7.377 8.776,7.171 8.999,7.143 9.211,7.135 9.379,7.135 Z M 4.231,8.634 C 3.691,9.618 3.401,9.749 3.351,9.764 3.195,9.647 3.204,9.567 3.207,9.536 3.227,9.353 3.518,9.029 4.231,8.634 Z"
     id="path2"
     inkscape:connector-curvature="0"
     style="fill:#ecec1c" />
</svg>
