<?xml version="1.0" encoding="UTF-8" standalone="no"?>
<svg
   xmlns:dc="http://purl.org/dc/elements/1.1/"
   xmlns:cc="http://creativecommons.org/ns#"
   xmlns:rdf="http://www.w3.org/1999/02/22-rdf-syntax-ns#"
   xmlns:svg="http://www.w3.org/2000/svg"
   xmlns="http://www.w3.org/2000/svg"
   xmlns:sodipodi="http://sodipodi.sourceforge.net/DTD/sodipodi-0.dtd"
   xmlns:inkscape="http://www.inkscape.org/namespaces/inkscape"
   width="48"
   height="48"
   viewBox="0 0 12.7 12.7"
   version="1.1"
   id="svg4"
   sodipodi:docname="preferences-system-network-server-installation.svg"
   inkscape:version="0.92.4 (5da689c313, 2019-01-14)">
  <metadata
     id="metadata10">
    <rdf:RDF>
      <cc:Work
         rdf:about="">
        <dc:format>image/svg+xml</dc:format>
        <dc:type
           rdf:resource="http://purl.org/dc/dcmitype/StillImage" />
        <dc:title></dc:title>
      </cc:Work>
    </rdf:RDF>
  </metadata>
  <defs
     id="defs8" />
  <sodipodi:namedview
     pagecolor="#ffffff"
     bordercolor="#666666"
     borderopacity="1"
     objecttolerance="10"
     gridtolerance="10"
     guidetolerance="10"
     inkscape:pageopacity="0"
     inkscape:pageshadow="2"
     inkscape:window-width="1109"
     inkscape:window-height="480"
     id="namedview6"
     showgrid="false"
     inkscape:zoom="4.9166667"
     inkscape:cx="2.1355932"
     inkscape:cy="24"
     inkscape:window-x="0"
     inkscape:window-y="25"
     inkscape:window-maximized="0"
     inkscape:current-layer="svg4" />
  <path
     d="M 6.344,0.072 A 6.29,6.29 0 0 0 0.05399997,6.362 6.29,6.29 0 0 0 6.344,12.651 6.29,6.29 0 0 0 7.837,12.464 C 7.809,12.39 7.748,12.334 7.748,12.25 V 11.63 A 5.407,5.407 0 0 1 6.326,11.823 5.407,5.407 0 0 1 2.6,10.325 h 2.524 v 0.24 c 0,0.124 0.173,0.225 0.387,0.225 h 1.652 c 0.214,0 0.387,-0.1 0.387,-0.226 V 10.325 H 7.748 V 9.551 H 7.55 V 9.261 C 7.55,9.135 7.376,9.035 7.162,9.035 H 6.802 V 8.44 H 7.748 V 8.28 A 0.66,0.66 0 0 1 7.942,7.812 C 7.954,7.8 7.968,7.791 7.982,7.779 H 4.72 C 4.55,7.779 4.413,7.7 4.413,7.6 V 2.863 c 0,-0.1 0.137,-0.178 0.307,-0.178 h 3.255 c 0.17,0 0.307,0.08 0.307,0.178 V 7.6 c 0,0.012 -0.008,0.022 -0.012,0.034 A 0.67,0.67 0 0 1 8.41,7.619 H 8.827 V 2.24 C 8.827,2.114 8.654,2.013 8.44,2.013 H 4.337 C 4.122,2.013 3.95,2.114 3.95,2.239 v 5.976 c 0,0.125 0.172,0.226 0.387,0.226 h 1.56 V 9.035 H 5.511 c -0.214,0 -0.387,0.1 -0.387,0.225 V 9.55 H 2.196 A 0.954,0.954 0 0 0 1.952,9.583 5.407,5.407 0 0 1 0.91899997,6.416 5.407,5.407 0 0 1 6.326,1.01 5.407,5.407 0 0 1 11.733,6.416 5.407,5.407 0 0 1 11.591,7.62 h 0.788 c 0.043,0 0.07,0.038 0.11,0.046 A 6.29,6.29 0 0 0 12.634,6.362 6.29,6.29 0 0 0 6.344,0.072 Z M 4.956,2.989 A 0.283,0.283 0 0 0 4.673,3.273 v 0.51 c 0,0.157 0.126,0.283 0.283,0.283 H 7.748 A 0.282,0.282 0 0 0 8.031,3.784 V 3.274 A 0.282,0.282 0 0 0 7.748,2.989 Z m 0,1.588 A 0.283,0.283 0 0 0 4.673,4.86 v 0.511 c 0,0.157 0.126,0.283 0.283,0.283 H 7.748 A 0.282,0.282 0 0 0 8.031,5.371 V 4.861 A 0.282,0.282 0 0 0 7.748,4.577 Z m 0,1.587 A 0.283,0.283 0 0 0 4.673,6.448 v 0.51 c 0,0.157 0.126,0.283 0.283,0.283 H 7.748 A 0.282,0.282 0 0 0 8.031,6.959 V 6.449 A 0.282,0.282 0 0 0 7.748,6.164 Z m 3.85,1.985 A 0.528,0.528 0 0 0 8.278,8.678 v 3.175 c 0,0.293 0.236,0.53 0.529,0.53 h 3.175 c 0.293,0 0.529,-0.237 0.529,-0.53 V 8.678 a 0.528,0.528 0 0 0 -0.53,-0.53 H 8.808 Z m 1.059,0.529 h 1.058 V 9.736 H 10.659 V 8.943 h -0.53 V 9.736 H 9.865 Z m -0.607,1.058 0.872,0.872 0.264,0.264 0.265,-0.264 0.871,-0.872 0.187,0.187 -0.871,0.872 -0.452,0.451 L 9.943,10.795 9.071,9.923 Z m -0.451,1.588 h 0.264 v 0.264 h 2.646 v -0.264 h 0.265 v 0.529 H 8.807 v -0.53 z"
     id="path2"
     inkscape:connector-curvature="0"
     style="fill:#ecec1c" />
</svg>
