<?xml version="1.0" encoding="UTF-8" standalone="no"?>
<svg
   xmlns:dc="http://purl.org/dc/elements/1.1/"
   xmlns:cc="http://creativecommons.org/ns#"
   xmlns:rdf="http://www.w3.org/1999/02/22-rdf-syntax-ns#"
   xmlns:svg="http://www.w3.org/2000/svg"
   xmlns="http://www.w3.org/2000/svg"
   xmlns:sodipodi="http://sodipodi.sourceforge.net/DTD/sodipodi-0.dtd"
   xmlns:inkscape="http://www.inkscape.org/namespaces/inkscape"
   width="48"
   height="48"
   viewBox="0 0 12.7 12.7"
   version="1.1"
   id="svg4"
   sodipodi:docname="system-config-boot.svg"
   inkscape:version="0.92.4 (5da689c313, 2019-01-14)">
  <metadata
     id="metadata10">
    <rdf:RDF>
      <cc:Work
         rdf:about="">
        <dc:format>image/svg+xml</dc:format>
        <dc:type
           rdf:resource="http://purl.org/dc/dcmitype/StillImage" />
        <dc:title></dc:title>
      </cc:Work>
    </rdf:RDF>
  </metadata>
  <defs
     id="defs8" />
  <sodipodi:namedview
     pagecolor="#ffffff"
     bordercolor="#666666"
     borderopacity="1"
     objecttolerance="10"
     gridtolerance="10"
     guidetolerance="10"
     inkscape:pageopacity="0"
     inkscape:pageshadow="2"
     inkscape:window-width="1087"
     inkscape:window-height="480"
     id="namedview6"
     showgrid="false"
     inkscape:zoom="4.9166667"
     inkscape:cx="2.1355932"
     inkscape:cy="24"
     inkscape:window-x="0"
     inkscape:window-y="25"
     inkscape:window-maximized="0"
     inkscape:current-layer="svg4" />
  <path
     d="m 6.344,0.073 a 6.29,6.29 0 0 0 -6.29,6.29 6.29,6.29 0 0 0 6.29,6.288 6.29,6.29 0 0 0 6.29,-6.289 6.29,6.29 0 0 0 -6.29,-6.29 z M 6.326,1.009 A 5.407,5.407 0 0 1 11.733,6.416 5.407,5.407 0 0 1 6.326,11.823 5.407,5.407 0 0 1 0.92,6.416 5.407,5.407 0 0 1 6.326,1.01 Z m 0.023,0.578 c -0.15,0 -0.299,0.004 -0.445,0.02 L 5.627,3.032 A 3.41,3.41 0 0 0 4.967,3.245 L 3.926,2.247 A 4.72,4.72 0 0 0 3.203,2.799 L 3.819,4.096 A 3.44,3.44 0 0 0 3.416,4.649 L 1.99,4.46 A 4.702,4.702 0 0 0 1.714,5.33 l 1.254,0.681 a 3.284,3.284 0 0 0 -0.02,0.34 c 0,0.117 0.008,0.226 0.02,0.34 L 1.714,7.371 C 1.78,7.674 1.869,7.965 1.99,8.243 L 3.415,8.053 C 3.53,8.25 3.667,8.435 3.818,8.605 L 3.203,9.9 c 0.229,0.203 0.458,0.396 0.723,0.553 l 1.042,-1 c 0.208,0.094 0.431,0.163 0.659,0.213 l 0.277,1.425 a 4.843,4.843 0 0 0 0.892,0 L 7.073,9.666 C 7.3,9.616 7.523,9.546 7.731,9.453 l 1.043,1 C 9.038,10.297 9.269,10.103 9.497,9.9 L 8.88,8.604 C 9.031,8.434 9.169,8.248 9.284,8.051 l 1.424,0.191 A 4.702,4.702 0 0 0 10.985,7.371 L 9.731,6.691 C 9.742,6.577 9.751,6.468 9.751,6.35 9.751,6.233 9.742,6.124 9.731,6.01 L 10.985,5.33 A 4.7,4.7 0 0 0 10.708,4.458 L 9.284,4.648 A 3.44,3.44 0 0 0 8.88,4.096 L 9.497,2.799 A 4.722,4.722 0 0 0 8.774,2.247 L 7.731,3.246 A 3.412,3.412 0 0 0 7.072,3.033 L 6.795,1.609 A 4.843,4.843 0 0 0 6.349,1.589 Z M 6.344,4.127 C 7.282,4.128 8.084,4.713 8.41,5.536 L 9.287,6.413 H 8.564 a 2.224,2.224 0 0 1 -2.22,2.16 C 5.494,8.573 4.755,8.093 4.382,7.39 L 3.412,6.421 H 4.125 C 4.125,6.397 4.122,6.374 4.122,6.35 4.122,5.125 5.119,4.128 6.344,4.128 Z m 0,0.456 A 1.77,1.77 0 0 0 4.576,6.35 c 0,0.024 0.003,0.048 0.004,0.071 H 5.386 L 4.733,7.074 a 1.77,1.77 0 0 0 1.611,1.043 c 0.954,0 1.732,-0.759 1.766,-1.704 H 7.314 L 7.997,5.728 A 1.77,1.77 0 0 0 6.344,4.583 Z"
     id="path2"
     inkscape:connector-curvature="0"
     style="fill:#ecec1c" />
</svg>
