<?xml version="1.0" encoding="UTF-8" standalone="no"?>
<!-- Created with Inkscape (http://www.inkscape.org/) -->

<svg
   xmlns:dc="http://purl.org/dc/elements/1.1/"
   xmlns:cc="http://creativecommons.org/ns#"
   xmlns:rdf="http://www.w3.org/1999/02/22-rdf-syntax-ns#"
   xmlns:svg="http://www.w3.org/2000/svg"
   xmlns="http://www.w3.org/2000/svg"
   xmlns:sodipodi="http://sodipodi.sourceforge.net/DTD/sodipodi-0.dtd"
   xmlns:inkscape="http://www.inkscape.org/namespaces/inkscape"
   width="48"
   height="48"
   viewBox="0 0 12.7 12.7"
   version="1.1"
   id="svg829"
   inkscape:version="0.92.3 (2405546, 2018-03-11)"
   sodipodi:docname="applications-science.svg">
  <defs
     id="defs823" />
  <sodipodi:namedview
     id="base"
     pagecolor="#ffffff"
     bordercolor="#666666"
     borderopacity="1.0"
     inkscape:pageopacity="0.0"
     inkscape:pageshadow="2"
     inkscape:zoom="11.083333"
     inkscape:cx="24"
     inkscape:cy="24"
     inkscape:document-units="mm"
     inkscape:current-layer="layer1"
     showgrid="false"
     showguides="true"
     inkscape:guide-bbox="true"
     inkscape:window-width="1366"
     inkscape:window-height="719"
     inkscape:window-x="0"
     inkscape:window-y="25"
     inkscape:window-maximized="1"
     scale-x="1.9"
     units="px" />
  <metadata
     id="metadata826">
    <rdf:RDF>
      <cc:Work
         rdf:about="">
        <dc:format>image/svg+xml</dc:format>
        <dc:type
           rdf:resource="http://purl.org/dc/dcmitype/StillImage" />
        <dc:title></dc:title>
      </cc:Work>
    </rdf:RDF>
  </metadata>
  <g
     inkscape:label="Capa 1"
     inkscape:groupmode="layer"
     id="layer1"
     transform="translate(0,-284.3)">
    <path
       inkscape:connector-curvature="0"
       style="fill:#e6e6e6;fill-opacity:1;stroke-width:0.1384593"
       d="m 6.3437401,284.37701 a 6.2670425,6.2670425 0 0 0 -6.26731763,6.26731 6.2670425,6.2670425 0 0 0 6.26731763,6.26629 6.2670425,6.2670425 0 0 0 6.2673179,-6.26629 6.2670425,6.2670425 0 0 0 -6.2673179,-6.26731 z m -0.017568,0.93224 a 5.3879257,5.3879257 0 0 1 5.3877829,5.38882 5.3879257,5.3879257 0 0 1 -5.3877845,5.38778 5.3879257,5.3879257 0 0 1 -5.38881839,-5.38778 5.3879257,5.3879257 0 0 1 5.38881839,-5.38882 z m -1.6123063,1.43247 a 0.52916665,0.52916665 0 0 0 -0.2573487,0.99115 l 0.2594157,0.14366 v 1.42111 c -0.068792,0.108 -0.1314986,0.20419 -0.2315104,0.37723 -0.144462,0.24872 -0.321072,0.56196 -0.5126302,0.90434 a 272.3171,272.3171 0 0 0 -1.1658203,2.11357 c -0.3032126,0.55404 -0.2906284,1.2984 0.1591634,1.85932 0.3566582,0.47624 0.9197661,0.60358 1.3859619,0.60358 h 3.8902015 c 0.466725,0 1.0298329,-0.12732 1.3859621,-0.60462 0.4497912,-0.56092 0.4603092,-1.30424 0.1570964,-1.85828 -0.6154209,-1.2536 -1.3094229,-2.2333 -1.8851563,-3.38584 v -1.42834 l 0.2594155,-0.14573 a 0.52916665,0.52916665 0 0 0 -0.2573485,-0.99115 z m 1.0604003,1.05833 h 1.0666015 v 1.64435 a 0.52916665,0.52916665 0 0 0 0.053744,0.23254 c 0.6360578,1.30016 1.3618352,2.29828 1.9502686,3.5016 a 0.52916665,0.52916665 0 0 0 0.010335,0.0207 c 0.127,0.23284 0.1340861,0.46851 -0.05271,0.69659 a 0.52916665,0.52916665 0 0 0 -0.018606,0.0238 c -0.076726,0.10541 -0.2573544,0.17777 -0.5436336,0.17777 h -3.889168 c -0.28575,0 -0.4669069,-0.0724 -0.5436361,-0.17776 a 0.52916665,0.52916665 0 0 0 -0.018603,-0.0238 c -0.187324,-0.22809 -0.1807435,-0.46327 -0.053743,-0.69557 a 271.16986,271.16986 0 0 1 1.1606527,-2.1053 67.892082,67.892082 0 0 1 0.5033286,-0.88987 c 0.1391697,-0.23972 0.2595975,-0.42897 0.273885,-0.44855 a 0.52916665,0.52916665 0 0 0 0.1012857,-0.31212 z"
       id="path1374-5" />
    <path
       style="overflow:visible;opacity:0.45;fill:#008080;stroke-width:0.52916664"
       d="m 6.7674869,285.57796 a 0.47169024,0.48983212 0 0 0 -0.4723224,0.4899 0.47169024,0.48983212 0 0 0 0.4723224,0.4899 0.47169024,0.48983212 0 0 0 0.4712892,-0.4899 0.47169024,0.48983212 0 0 0 -0.4712892,-0.4899 z m -1.650545,0.25426 a 0.23584512,0.25398704 0 0 0 -0.2366782,0.25424 0.23584512,0.25398704 0 0 0 0.2366782,0.25426 0.23584512,0.25398704 0 0 0 0.2356444,-0.25426 0.23584512,0.25398704 0 0 0 -0.2356444,-0.25424 z m 0.997355,4.46278 a 0.3991225,0.3991225 0 0 0 -0.398942,0.39894 0.3991225,0.3991225 0 0 0 0.398942,0.39996 0.3991225,0.3991225 0 0 0 0.398942,-0.39996 0.3991225,0.3991225 0 0 0 -0.398942,-0.39894 z m 1.1234456,1.1565 -1.8841226,10e-4 -1.1751222,2.11564 h 4.2333334 z"
       id="path4"
       inkscape:connector-curvature="0" />
  </g>
</svg>
