<?xml version="1.0" encoding="UTF-8" standalone="no"?>
<svg
   xmlns:dc="http://purl.org/dc/elements/1.1/"
   xmlns:cc="http://creativecommons.org/ns#"
   xmlns:rdf="http://www.w3.org/1999/02/22-rdf-syntax-ns#"
   xmlns:svg="http://www.w3.org/2000/svg"
   xmlns="http://www.w3.org/2000/svg"
   xmlns:sodipodi="http://sodipodi.sourceforge.net/DTD/sodipodi-0.dtd"
   xmlns:inkscape="http://www.inkscape.org/namespaces/inkscape"
   width="48"
   height="48"
   viewBox="0 0 12.7 12.7"
   version="1.1"
   id="svg14"
   sodipodi:docname="applications-utilities.svg"
   inkscape:version="0.92.3 (2405546, 2018-03-11)">
  <metadata
     id="metadata20">
    <rdf:RDF>
      <cc:Work
         rdf:about="">
        <dc:format>image/svg+xml</dc:format>
        <dc:type
           rdf:resource="http://purl.org/dc/dcmitype/StillImage" />
        <dc:title></dc:title>
      </cc:Work>
    </rdf:RDF>
  </metadata>
  <defs
     id="defs18" />
  <sodipodi:namedview
     pagecolor="#ffffff"
     bordercolor="#666666"
     borderopacity="1"
     objecttolerance="10"
     gridtolerance="10"
     guidetolerance="10"
     inkscape:pageopacity="0"
     inkscape:pageshadow="2"
     inkscape:window-width="1366"
     inkscape:window-height="714"
     id="namedview16"
     showgrid="false"
     inkscape:zoom="10.520833"
     inkscape:cx="24"
     inkscape:cy="24"
     inkscape:window-x="0"
     inkscape:window-y="25"
     inkscape:window-maximized="1"
     inkscape:current-layer="g12" />
  <g
     fill="#e6e6e6"
     id="g12">
    <path
       d="M6.34477177.07287A6.2892802 6.2892802 0 0 0 .05471791 6.36293a6.2892802 6.2892802 0 0 0 6.29005386 6.28902 6.2892802 6.2892802 0 0 0 6.289022-6.28902 6.2892802 6.2892802 0 0 0-6.289022-6.29006zm-.0186.93638a5.407044 5.407044 0 0 1 5.407422 5.40742 5.407044 5.407044 0 0 1-5.407422 5.4064 5.407044 5.407044 0 0 1-5.40742186-5.4064 5.407044 5.407044 0 0 1 5.40742186-5.40742z"
       id="path2" />
    <g
       transform="matrix(1.4142136,1.4142136,-1.4142136,1.4142136,417.36847,-413.62611)"
       id="g10">
      <path
         style="opacity:0.8"
         inkscape:connector-curvature="0"
         d="m 1.9437842,292.8383 c -0.01941,-10e-4 -0.03877,-8e-4 -0.05754,8.1e-4 l 0.772351,0.7873 0.922958,0.18301 c 1.658474,0.32879 1.879568,-0.0567 1.879568,-0.0567 0,0 -0.07933,-0.23693 -0.93376,-0.40632 l -2.524787,-0.50064 c -0.01978,-0.004 -0.03937,-0.006 -0.05879,-0.007 z m 2.432969,0.64086 0.626107,0.12402 c -0.03418,0.12779 -0.476507,0.0439 -0.626107,-0.12402 z"
         id="path4" />
      <path
         inkscape:connector-curvature="0"
         d="m 3.4126642,291.34761 c -0.144527,-0.0146 -0.470048,0.19854 -0.625484,0.35398 l -0.970736,0.97073 c -0.0199,0.0199 -0.03758,0.041 -0.05297,0.0634 l 0.631092,0.6313 c 0.02231,-0.0155 0.04363,-0.033 0.06357,-0.053 l 0.439356,-0.43956 c 0.209198,-0.2092 0.354891,-0.39085 0.453689,-0.55237 l -0.09161,-0.0916 -0.230376,0.23037 c -0.05208,0.0521 -0.135915,0.0521 -0.187999,0 l -0.03303,-0.033 c -0.05208,-0.0521 -0.05208,-0.13592 0,-0.188 l 0.352731,-0.35253 c 0.04427,-0.0443 0.11548,-0.0443 0.159746,0 l 0.16224,0.16225 c 0.085,-0.25005 0.07516,-0.58543 -0.02036,-0.68096 -0.01223,-0.0122 -0.02921,-0.0189 -0.04986,-0.021 z m -0.293319,0.23432 c 0.08721,0.0995 -0.21428,0.41571 -0.43707,0.44663 z m -0.517266,3.78346 -0.238468,-0.0709 c -0.690959,-0.20543 -0.827799,-0.0232 -0.827799,-0.0232 0,0 0.122961,0.36839 0.926421,0.60726 l 0.8197,0.24371 c 0.026,0.008 0.05203,0.0124 0.07761,0.0143"
         id="path6" />
      <rect
         transform="rotate(-45.000405)"
         x="-206.82793"
         y="207.94986"
         width="0.93671459"
         height="4.4003921"
         rx="0.44804803"
         ry="0.44804803"
         id="rect8" />
    </g>
  </g>
</svg>
