<?xml version="1.0" encoding="UTF-8" standalone="no"?>
<!-- Created with Inkscape (http://www.inkscape.org/) -->

<svg
   xmlns:dc="http://purl.org/dc/elements/1.1/"
   xmlns:cc="http://creativecommons.org/ns#"
   xmlns:rdf="http://www.w3.org/1999/02/22-rdf-syntax-ns#"
   xmlns:svg="http://www.w3.org/2000/svg"
   xmlns="http://www.w3.org/2000/svg"
   xmlns:sodipodi="http://sodipodi.sourceforge.net/DTD/sodipodi-0.dtd"
   xmlns:inkscape="http://www.inkscape.org/namespaces/inkscape"
   width="48"
   height="48"
   viewBox="0 0 12.7 12.7"
   version="1.1"
   id="svg829"
   inkscape:version="0.92.3 (2405546, 2018-03-11)"
   sodipodi:docname="applications-accessories.svg">
  <defs
     id="defs823" />
  <sodipodi:namedview
     id="base"
     pagecolor="#ffffff"
     bordercolor="#666666"
     borderopacity="1.0"
     inkscape:pageopacity="0.0"
     inkscape:pageshadow="2"
     inkscape:zoom="10.25"
     inkscape:cx="-13.658537"
     inkscape:cy="23.219512"
     inkscape:document-units="mm"
     inkscape:current-layer="layer1"
     showgrid="false"
     showguides="true"
     inkscape:guide-bbox="true"
     inkscape:window-width="1366"
     inkscape:window-height="719"
     inkscape:window-x="0"
     inkscape:window-y="25"
     inkscape:window-maximized="1"
     scale-x="1.9"
     units="px" />
  <metadata
     id="metadata826">
    <rdf:RDF>
      <cc:Work
         rdf:about="">
        <dc:format>image/svg+xml</dc:format>
        <dc:type
           rdf:resource="http://purl.org/dc/dcmitype/StillImage" />
        <dc:title></dc:title>
      </cc:Work>
    </rdf:RDF>
  </metadata>
  <g
     inkscape:label="Capa 1"
     inkscape:groupmode="layer"
     id="layer1"
     transform="translate(0,-284.3)">
    <path
       inkscape:connector-curvature="0"
       style="fill:#e6e6e6;stroke-width:0.2331358"
       d="m 6.3437318,284.37701 a 6.2670426,6.2670426 0 0 0 -6.26731763,6.26732 6.2670426,6.2670426 0 0 0 6.26731763,6.26628 6.2670426,6.2670426 0 0 0 6.2673172,-6.26628 6.2670426,6.2670426 0 0 0 -6.2673172,-6.26732 z m -0.01756,0.93224 a 5.3879258,5.3879258 0 0 1 5.3877832,5.38882 5.3879258,5.3879258 0 0 1 -5.3877848,5.38778 5.3879258,5.3879258 0 0 1 -5.38881903,-5.38778 5.3879258,5.3879258 0 0 1 5.38882063,-5.38882 z m -1.326019,1.45418 c -0.6814326,0 -1.2340332,0.55156 -1.2340332,1.233 0,0.68142 0.5526006,1.233 1.2340332,1.233 0.180378,0 0.3512278,-0.0414 0.5053958,-0.1106 l 3.8106196,3.81062 h 0.3090254 v -0.925 l -2.1580078,-2.158 0.7276042,-0.72762 c 0.154176,0.0694 0.325011,0.1106 0.5053954,0.1106 0.6814264,0 1.2329996,-0.55158 1.2329996,-1.233 0,-0.68144 -0.5515732,-1.233 -1.2329996,-1.233 -0.6814328,0 -1.2329996,0.55156 -1.2329996,1.233 0,0.1804 0.041216,0.35124 0.110588,0.5054 l -0.7276042,0.7276 -0.7286376,-0.7276 c 0.069394,-0.1542 0.111622,-0.32502 0.111622,-0.5054 0,-0.68144 -0.5515738,-1.233 -1.2330012,-1.233 z m 0,0.61598 c 0.3407164,0 0.6159832,0.2763 0.6159832,0.61702 0,0.34072 -0.2752668,0.61702 -0.6159832,0.61702 -0.3407164,0 -0.6170166,-0.2763 -0.6170166,-0.61702 0,-0.34072 0.2763002,-0.61702 0.6170166,-0.61702 z m 3.7000326,0 c 0.3407172,0 0.6159828,0.2763 0.6159828,0.61702 0,0.34072 -0.2752656,0.61702 -0.6159828,0.61702 -0.3407162,0 -0.6170162,-0.2763 -0.6170168,-0.61702 6e-7,-0.34072 0.2763006,-0.61702 0.6170168,-0.61702 z m -6.0337402,1.80764 v 4.9413 h 4.9413006 l -2.0567222,-2.05672 -0.024802,-0.001 -0.646989,0.647 0.4227132,0.4227 H 3.6544902 v -1.64744 l 0.2924886,0.29146 0.6418212,-0.64286 0.0031,-0.004 0.0031,-0.018 v -0.006 z m 2.8597736,2.88354 0.00106,-10e-4 h -0.00206 z m 1.3239502,-2.37814 c 0.084796,0 0.153996,0.0692 0.153996,0.154 0,0.0846 -0.0692,0.154 -0.153996,0.154 -0.084792,0 -0.15503,-0.069 -0.155028,-0.154 0,-0.0848 0.070236,-0.154 0.155028,-0.154 z m -0.9250082,0.46198 -1.850016,1.85002 v 0.925 h 0.3079914 l 2.1590414,-2.158 z"
       id="path99" />
  </g>
</svg>
