<?xml version="1.0" encoding="UTF-8" standalone="no"?>
<!-- Created with Inkscape (http://www.inkscape.org/) -->

<svg
   xmlns:dc="http://purl.org/dc/elements/1.1/"
   xmlns:cc="http://creativecommons.org/ns#"
   xmlns:rdf="http://www.w3.org/1999/02/22-rdf-syntax-ns#"
   xmlns:svg="http://www.w3.org/2000/svg"
   xmlns="http://www.w3.org/2000/svg"
   xmlns:sodipodi="http://sodipodi.sourceforge.net/DTD/sodipodi-0.dtd"
   xmlns:inkscape="http://www.inkscape.org/namespaces/inkscape"
   width="48"
   height="48"
   viewBox="0 0 12.7 12.7"
   version="1.1"
   id="svg829"
   inkscape:version="0.92.3 (2405546, 2018-03-11)"
   sodipodi:docname="applications-graphics.svg">
  <defs
     id="defs823" />
  <sodipodi:namedview
     id="base"
     pagecolor="#ffffff"
     bordercolor="#666666"
     borderopacity="1.0"
     inkscape:pageopacity="0.0"
     inkscape:pageshadow="2"
     inkscape:zoom="10.25"
     inkscape:cx="-13.658537"
     inkscape:cy="23.219512"
     inkscape:document-units="mm"
     inkscape:current-layer="layer1"
     showgrid="false"
     showguides="true"
     inkscape:guide-bbox="true"
     inkscape:window-width="1366"
     inkscape:window-height="719"
     inkscape:window-x="0"
     inkscape:window-y="25"
     inkscape:window-maximized="1"
     scale-x="1.9"
     units="px" />
  <metadata
     id="metadata826">
    <rdf:RDF>
      <cc:Work
         rdf:about="">
        <dc:format>image/svg+xml</dc:format>
        <dc:type
           rdf:resource="http://purl.org/dc/dcmitype/StillImage" />
        <dc:title></dc:title>
      </cc:Work>
    </rdf:RDF>
  </metadata>
  <g
     inkscape:label="Capa 1"
     inkscape:groupmode="layer"
     id="layer1"
     transform="translate(0,-284.3)">
    <path
       inkscape:connector-curvature="0"
       style="fill:#e6e6e6;fill-opacity:1;stroke-width:0.1384593"
       d="m 6.3437318,284.37701 a 6.2670426,6.2670426 0 0 0 -6.26731743,6.26732 6.2670426,6.2670426 0 0 0 6.26731743,6.26628 6.2670426,6.2670426 0 0 0 6.2673172,-6.26628 6.2670426,6.2670426 0 0 0 -6.2673172,-6.26732 z m -0.01756,0.93224 a 5.3879258,5.3879258 0 0 1 5.3877832,5.38882 5.3879258,5.3879258 0 0 1 -5.3877848,5.38778 5.3879258,5.3879258 0 0 1 -5.38881853,-5.38778 5.3879258,5.3879258 0 0 1 5.38882013,-5.38882 z m -0.027902,1.23818 v 10e-4 c -1.1165418,0.016 -2.6164566,0.42402 -2.5910566,1.7353 0.026458,1.36894 1.5437858,0.87932 1.6670818,1.43866 0.01852,-0.0238 0.046566,-0.0434 0.066146,-0.0662 0.1042461,-0.1132 0.2083843,-0.20518 0.3131593,-0.3142 0.1651,-0.1862 0.337476,-0.35944 0.5126302,-0.5457 0.5852578,-0.62336 0.6100874,-0.66144 2.0081456,-1.71978 -0.5476874,-0.32808 -1.1947922,-0.51066 -1.7445959,-0.52918 -0.070908,-0.002 -0.156898,-5.4e-4 -0.2315104,0 z m 3.2525144,10e-4 c -0.9525,0.6874 -2.2257988,1.7468 -3.235978,2.82154 -0.091546,0.0978 -0.179866,0.192 -0.2666508,0.28938 -0.055034,0.0572 -0.112928,0.1042 -0.167432,0.1634 -0.034926,0.0408 -0.066386,0.0864 -0.100252,0.1272 -0.6890511,0.76152 -1.3637665,1.65678 -1.9285646,2.4815 -0.165624,-0.0844 -0.3722304,-0.0962 -0.5932454,0.0496 -0.3984625,0.26352 -0.3145814,1.20922 -1.135848,1.20922 0.077788,0.3186 0.9178892,0.3144 1.4862142,0.1726 0.5360461,-0.1344 0.6989795,-0.6047 0.5973796,-0.99736 -0.01418,-0.0544 -0.049058,-0.1098 -0.081648,-0.1644 1.0499526,-0.8696 1.7978265,-1.5967 2.3068363,-2.1363 0.127,-0.1302 0.2802514,-0.30048 0.4495848,-0.48886 0.6371166,-0.70644 1.5488284,-1.81876 2.6696044,-3.52744 z m -4.2695107,0.80926 a 0.79322084,0.79322084 0 0 1 0.01034,0 c 0.4376213,0 0.7916835,0.3556 0.7916835,0.79374 a 0.79322084,0.79322084 0 1 1 -0.8020187,-0.79374 z m 3.8571291,0.35036 c -0.7503584,1.18268 -1.2536456,1.88166 -1.7838706,2.42776 -0.3381376,0.34766 -0.6149408,0.6944 -0.8578284,0.94258 -0.4439708,0.47148 -1.0257318,1.0275 -1.6670821,1.6371 0.033338,0.77734 0.4286996,1.45246 1.7166915,1.70224 2.0626916,0.40004 4.247794,-0.96496 4.027661,-3.73622 -0.09419,-1.18956 -0.7434214,-2.26544 -1.4355714,-2.97346 z m 0.180868,2.01436 a 0.52917,0.52917 0 0 1 0,1.05832 0.52917,0.52917 0 0 1 0,-1.05832 z m -0.3524336,1.5875 a 0.52917,0.52917 0 0 1 0.021706,0 0.52916666,0.52916666 0 0 1 0,1.05832 0.52927796,0.52927796 0 0 1 -0.021706,-1.05832 z m -2.6189612,1.0573 a 0.52916666,0.52916666 0 0 1 0,1.05832 0.52916666,0.52916666 0 0 1 0,-1.05832 z m 1.5843992,0 a 0.52916666,0.52916666 0 0 1 0,1.05832 0.52916666,0.52916666 0 0 1 0,-1.05832 z"
       id="path1374-3" />
  </g>
</svg>
