<svg xmlns="http://www.w3.org/2000/svg" width="48" height="48" viewBox="0 0 12.7 12.7"><path d="M6.3437401.07701A6.2670425 6.2670425 0 0 0 .07642247 6.34432a6.2670425 6.2670425 0 0 0 6.26731763 6.26629 6.2670425 6.2670425 0 0 0 6.2673179-6.26629A6.2670425 6.2670425 0 0 0 6.3437401.07701zm-.017568.93224a5.3879257 5.3879257 0 0 1 5.3877829 5.38882 5.3879257 5.3879257 0 0 1-5.3877845 5.38778A5.3879257 5.3879257 0 0 1 .93735211 6.39807 5.3879257 5.3879257 0 0 1 6.3261705 1.00925zM4.7138658 2.44172a.52916665.52916665 0 0 0-.2573487.99115l.2594157.14366v1.42111c-.068792.108-.1314986.20419-.2315104.37723-.144462.24872-.321072.56196-.5126302.90434a272.3171 272.3171 0 0 0-1.1658203 2.11357c-.3032126.55404-.2906284 1.2984.1591634 1.85932.3566582.47624.9197661.60358 1.3859619.60358h3.8902015c.466725 0 1.0298329-.12732 1.3859621-.60462.4497912-.56092.4603092-1.30424.1570964-1.85828-.6154209-1.2536-1.3094229-2.2333-1.8851563-3.38584V3.5786l.2594155-.14573a.52916665.52916665 0 0 0-.2573485-.99115zm1.0604003 1.05833h1.0666015V5.1444a.52916665.52916665 0 0 0 .053744.23254c.6360578 1.30016 1.3618352 2.29828 1.9502686 3.5016a.52916665.52916665 0 0 0 .010335.0207c.127.23284.1340861.46851-.05271.69659a.52916665.52916665 0 0 0-.018606.0238c-.076726.10541-.2573544.17777-.5436336.17777h-3.889168c-.28575 0-.4669069-.0724-.5436361-.17776a.52916665.52916665 0 0 0-.018603-.0238c-.187324-.22809-.1807435-.46327-.053743-.69557a271.16986 271.16986 0 0 1 1.1606527-2.1053 67.892082 67.892082 0 0 1 .5033286-.88987c.1391697-.23972.2595975-.42897.273885-.44855a.52916665.52916665 0 0 0 .1012857-.31212z" fill="#e6e6e6"/><path d="M6.7674869 1.27796a.47169024.48983212 0 0 0-.4723224.4899.47169024.48983212 0 0 0 .4723224.4899.47169024.48983212 0 0 0 .4712892-.4899.47169024.48983212 0 0 0-.4712892-.4899zm-1.650545.25426a.23584512.25398704 0 0 0-.2366782.25424.23584512.25398704 0 0 0 .2366782.25426.23584512.25398704 0 0 0 .2356444-.25426.23584512.25398704 0 0 0-.2356444-.25424zm.997355 4.46278a.3991225.3991225 0 0 0-.398942.39894.3991225.3991225 0 0 0 .398942.39996.3991225.3991225 0 0 0 .398942-.39996.3991225.3991225 0 0 0-.398942-.39894zm1.1234456 1.1565l-1.8841226.001-1.1751222 2.11564h4.2333334z" overflow="visible" opacity=".45" fill="teal"/></svg>