<?xml version="1.0" encoding="UTF-8" standalone="no"?>
<!-- Created with Inkscape (http://www.inkscape.org/) -->

<svg
   xmlns:dc="http://purl.org/dc/elements/1.1/"
   xmlns:cc="http://creativecommons.org/ns#"
   xmlns:rdf="http://www.w3.org/1999/02/22-rdf-syntax-ns#"
   xmlns:svg="http://www.w3.org/2000/svg"
   xmlns="http://www.w3.org/2000/svg"
   xmlns:sodipodi="http://sodipodi.sourceforge.net/DTD/sodipodi-0.dtd"
   xmlns:inkscape="http://www.inkscape.org/namespaces/inkscape"
   width="48"
   height="48"
   viewBox="0 0 12.7 12.7"
   version="1.1"
   id="svg829"
   inkscape:version="0.92.3 (2405546, 2018-03-11)"
   sodipodi:docname="applications-system.svg">
  <defs
     id="defs823" />
  <sodipodi:namedview
     id="base"
     pagecolor="#ffffff"
     bordercolor="#666666"
     borderopacity="1.0"
     inkscape:pageopacity="0.0"
     inkscape:pageshadow="2"
     inkscape:zoom="3.9406472"
     inkscape:cx="-28.656325"
     inkscape:cy="22.984938"
     inkscape:document-units="mm"
     inkscape:current-layer="layer1"
     showgrid="false"
     showguides="true"
     inkscape:guide-bbox="true"
     inkscape:window-width="1366"
     inkscape:window-height="719"
     inkscape:window-x="0"
     inkscape:window-y="25"
     inkscape:window-maximized="1"
     scale-x="1.9"
     units="px"
     inkscape:snap-global="false" />
  <metadata
     id="metadata826">
    <rdf:RDF>
      <cc:Work
         rdf:about="">
        <dc:format>image/svg+xml</dc:format>
        <dc:type
           rdf:resource="http://purl.org/dc/dcmitype/StillImage" />
        <dc:title></dc:title>
      </cc:Work>
    </rdf:RDF>
  </metadata>
  <g
     inkscape:label="Capa 1"
     inkscape:groupmode="layer"
     id="layer1"
     transform="translate(0,-284.3)">
    <path
       style="fill:#e6e6e6;fill-opacity:1;stroke-width:0.52516764"
       d="M 23.978516 0.27539062 A 23.770509 23.770509 0 0 0 0.20703125 24.046875 A 23.770509 23.770509 0 0 0 23.978516 47.816406 A 23.770509 23.770509 0 0 0 47.748047 24.046875 A 23.770509 23.770509 0 0 0 23.978516 0.27539062 z M 23.910156 3.8144531 A 20.436071 20.436071 0 0 1 44.345703 24.25 A 20.436071 20.436071 0 0 1 23.910156 44.685547 A 20.436071 20.436071 0 0 1 3.4726562 24.25 A 20.436071 20.436071 0 0 1 23.910156 3.8144531 z M 19.265625 8.734375 L 17.785156 12.3125 A 9.0968685 9.0968685 0 0 0 15.949219 12.517578 L 13.755859 9.3535156 C 12.980729 9.6218621 12.27765 10.005609 11.572266 10.414062 L 12.494141 14.130859 A 9.1785441 9.1785441 0 0 0 11.146484 15.363281 L 7.5234375 14.105469 A 12.541773 12.541773 0 0 0 6.3378906 16.236328 L 9.2539062 18.681641 A 8.7592762 8.7592762 0 0 0 9.0195312 19.560547 C 8.9571086 19.867445 8.9232301 20.156345 8.8925781 20.460938 L 5.2519531 21.572266 C 5.2635563 22.398811 5.3429742 23.206311 5.5117188 23.998047 L 9.3378906 24.255859 C 9.5353218 24.833447 9.7928638 25.390825 10.097656 25.914062 L 7.796875 28.978516 C 8.2867067 29.630106 8.7858561 30.256795 9.3945312 30.806641 L 12.648438 28.748047 C 13.143082 29.102567 13.690155 29.40413 14.259766 29.654297 L 14.224609 33.527344 A 12.919297 12.919297 0 0 0 16.556641 34 L 18.039062 30.423828 C 18.65957 30.416269 19.281231 30.34908 19.873047 30.216797 L 22.066406 33.384766 C 22.83967 33.116419 23.546373 32.733201 24.25 32.324219 L 23.328125 28.603516 C 23.813027 28.241059 24.270483 27.829413 24.677734 27.375 L 28.298828 28.630859 A 12.541773 12.541773 0 0 0 29.470703 26.53125 L 30.162109 27.988281 A 5.353954 5.353954 0 0 0 29.533203 28.847656 L 27.316406 28.550781 A 7.3157639 7.3157639 0 0 0 26.886719 29.90625 L 28.837891 30.964844 A 5.1093891 5.1093891 0 0 0 28.806641 31.494141 C 28.806641 31.677448 28.8199 31.845951 28.837891 32.023438 L 26.886719 33.082031 C 26.989393 33.553149 27.127936 34.006433 27.316406 34.439453 L 29.533203 34.140625 C 29.713188 34.447523 29.927072 34.736378 30.162109 35 L 29.203125 37.019531 C 29.558854 37.334744 29.916286 37.635391 30.328125 37.878906 L 31.949219 36.324219 C 32.273177 36.468975 32.619934 36.57877 32.974609 36.65625 L 33.404297 38.873047 A 7.5359781 7.5359781 0 0 0 34.792969 38.873047 L 35.224609 36.654297 C 35.578218 36.577195 35.927089 36.467399 36.25 36.322266 L 37.871094 37.878906 C 38.281875 37.635505 38.641427 37.333093 38.996094 37.017578 L 38.037109 34.998047 C 38.272158 34.734236 38.484081 34.445683 38.664062 34.138672 L 40.880859 34.4375 A 7.3157639 7.3157639 0 0 0 41.3125 33.080078 L 39.359375 32.023438 C 39.377517 31.8458 39.392578 31.677334 39.392578 31.494141 C 39.392578 31.310834 39.377517 31.142368 39.359375 30.964844 L 41.3125 29.90625 A 7.3136466 7.3136466 0 0 0 40.880859 28.550781 L 38.664062 28.847656 A 5.353954 5.353954 0 0 0 38.037109 27.988281 L 38.996094 25.96875 C 38.641385 25.653537 38.281875 25.352928 37.871094 25.109375 L 36.248047 26.664062 A 5.3094871 5.3094871 0 0 0 35.222656 26.333984 L 34.792969 24.115234 A 7.5359781 7.5359781 0 0 0 34.099609 24.085938 C 33.866685 24.085938 33.632981 24.096337 33.404297 24.115234 L 32.974609 26.332031 A 5.3063112 5.3063112 0 0 0 31.949219 26.662109 L 30.328125 25.109375 C 29.916287 25.353155 29.558855 25.653235 29.203125 25.96875 L 29.435547 26.457031 L 26.568359 24.054688 C 26.659079 23.762908 26.74214 23.483397 26.804688 23.175781 C 26.867586 22.866616 26.899217 22.579945 26.929688 22.275391 L 30.572266 21.164062 A 12.538144 12.538144 0 0 0 30.310547 18.738281 L 26.486328 18.480469 A 9.1785441 9.1785441 0 0 0 25.724609 16.820312 L 28.025391 13.757812 C 27.537045 13.107885 27.036599 12.479155 26.429688 11.929688 L 23.171875 13.986328 A 9.1023145 9.1023145 0 0 0 21.5625 13.080078 L 21.595703 9.2089844 A 12.919297 12.919297 0 0 0 20.443359 8.9199219 L 20.441406 8.9199219 C 20.050705 8.8404176 19.652698 8.7947496 19.265625 8.734375 z M 17.689453 15.929688 A 5.4450709 5.4450709 0 0 1 18.996094 16.033203 A 5.4450709 5.4450709 0 1 1 16.826172 26.705078 A 5.4450709 5.4450709 0 0 1 17.689453 15.929688 z M 34.099609 28.320312 A 3.1761639 3.1761639 0 1 1 34.099609 34.671875 A 3.1761639 3.1761639 0 0 1 34.099609 28.320312 z "
       transform="matrix(0.26458333,0,0,0.26458333,0,284.3)"
       id="path834" />
  </g>
</svg>
