<?xml version="1.0" encoding="UTF-8" standalone="no"?>
<!-- Created with Inkscape (http://www.inkscape.org/) -->

<svg
   xmlns:dc="http://purl.org/dc/elements/1.1/"
   xmlns:cc="http://creativecommons.org/ns#"
   xmlns:rdf="http://www.w3.org/1999/02/22-rdf-syntax-ns#"
   xmlns:svg="http://www.w3.org/2000/svg"
   xmlns="http://www.w3.org/2000/svg"
   xmlns:sodipodi="http://sodipodi.sourceforge.net/DTD/sodipodi-0.dtd"
   xmlns:inkscape="http://www.inkscape.org/namespaces/inkscape"
   width="48"
   height="48"
   viewBox="0 0 12.7 12.7"
   version="1.1"
   id="svg829"
   inkscape:version="0.92.3 (2405546, 2018-03-11)"
   sodipodi:docname="applications-multimedia.svg">
  <defs
     id="defs823" />
  <sodipodi:namedview
     id="base"
     pagecolor="#ffffff"
     bordercolor="#666666"
     borderopacity="1.0"
     inkscape:pageopacity="0.0"
     inkscape:pageshadow="2"
     inkscape:zoom="10.25"
     inkscape:cx="6.5853659"
     inkscape:cy="23.609756"
     inkscape:document-units="mm"
     inkscape:current-layer="layer1"
     showgrid="false"
     showguides="true"
     inkscape:guide-bbox="true"
     inkscape:window-width="1366"
     inkscape:window-height="719"
     inkscape:window-x="0"
     inkscape:window-y="25"
     inkscape:window-maximized="1"
     scale-x="1.9"
     units="px"
     inkscape:snap-global="true" />
  <metadata
     id="metadata826">
    <rdf:RDF>
      <cc:Work
         rdf:about="">
        <dc:format>image/svg+xml</dc:format>
        <dc:type
           rdf:resource="http://purl.org/dc/dcmitype/StillImage" />
        <dc:title></dc:title>
      </cc:Work>
    </rdf:RDF>
  </metadata>
  <g
     inkscape:label="Capa 1"
     inkscape:groupmode="layer"
     id="layer1"
     transform="translate(0,-284.3)">
    <path
       inkscape:connector-curvature="0"
       style="fill:#1a1a1a;fill-opacity:1;stroke-width:0.1384593"
       d="m 6.3437318,284.37701 a 6.2670426,6.2670426 0 0 0 -6.26731783,6.26732 6.2670426,6.2670426 0 0 0 6.26731783,6.26628 6.2670426,6.2670426 0 0 0 6.2673182,-6.26628 6.2670426,6.2670426 0 0 0 -6.2673182,-6.26732 z m -0.01756,0.93224 a 5.3879258,5.3879258 0 0 1 5.3877832,5.38882 5.3879258,5.3879258 0 0 1 -5.3877848,5.38778 5.3879258,5.3879258 0 0 1 -5.38881843,-5.38778 5.3879258,5.3879258 0 0 1 5.38882003,-5.38882 z m -3.5636084,1.63402 -0.025838,0.01 -0.01136,0.0258 v 5.87664 c 0.01838,0.1046 -0.04019,0.2507 0.037206,0.32454 h 0.9043374 1.423169 c -0.282068,0.23656 -0.4775032,0.56744 -0.4805908,0.94982 -0.035708,0.53976 0.4848162,0.98684 1.0087242,0.9374 0.7101966,-0.0366 1.3607192,-0.7237 1.2846764,-1.4583 v -0.42892 H 7.5550442 7.987059 c -0.035132,0.0854 -0.061658,0.1742 -0.076482,0.26872 -0.1052961,0.47282 0.2246036,0.94802 0.6759278,1.08314 0.844813,0.27692 1.7894582,-0.53938 1.6898192,-1.41284 -0.0024,-1.63828 0.0071,-3.27614 0,-4.91442 -0.01982,-0.1624 -0.146692,-0.32686 -0.3234941,-0.31938 h -0.00107 c -0.5819624,0.093 -1.165003,0.1828 -1.7476728,0.27182 v -1.21336 H 7.3917298 3.6668924 Z m 0.9043374,0.24494 H 7.263572 v 1.1162 c -0.2403628,0.0378 -0.4813236,0.0732 -0.7214028,0.1126 -0.3088994,0.1548 -0.198166,0.54912 -0.2180744,0.82682 v 0.7948 H 3.6668924 Z m -0.6624918,0.0372 h 0.3782716 v 0.37828 h -0.37828 z m 4.5382244,0 H 7.920905 v 0.37828 h -0.37828 z m -4.5382244,0.75654 h 0.3782716 v 0.37828 h -0.37828 z m 4.5382244,0 H 7.920905 v 0.22014 c -0.1261021,0.02 -0.2522052,0.0394 -0.3782716,0.059 z m -4.5382244,0.75656 h 0.3782716 v 0.37826 h -0.37828 z m 6.7055338,0.65938 v 2.96622 c -0.538,-0.155 -1.1475942,0.056 -1.5058512,0.4744 v -3.21634 c 0.5019072,-0.076 1.0034524,-0.1516 1.5058512,-0.22428 z m -6.7055338,0.0962 h 0.3782716 v 0.37828 h -0.37828 z m 4.916496,0.1706 v 0.20774 h -0.37828 v -0.1508 c 0.126146,-0.018 0.2521564,-0.0378 0.3782716,-0.0568 z m -0.6573246,0.0982 v 0.27596 H 6.902871 v -0.22222 c 0.120356,-0.018 0.240403,-0.036 0.360701,-0.0538 z m -4.2591714,0.48782 h 0.3782716 v 0.37828 h -0.37828 z m 4.5382244,0 H 7.920905 v 0.37828 h -0.37828 z m -3.8757326,0.032 h 2.6572024 v 2.56522 c -0.2795856,-0.0624 -0.5723534,-0.0214 -0.8371586,0.0888 H 3.6668924 Z m 3.2359786,0 H 7.263572 v 2.5735 c 0.0044,0.0248 0.00354,0.0524 0.00206,0.0806 H 6.902864 Z m -3.8984704,0.7245 h 0.3782716 v 0.37828 h -0.37828 z m 4.5382244,0 H 7.920905 v 0.37828 h -0.37828 z m -4.5382244,0.75656 h 0.3782716 v 0.37722 h -0.37828 z m 4.5382244,0 H 7.920905 v 0.37722 h -0.37828 z m -4.5382244,0.7555 h 0.3782716 v 0.37828 h -0.37828 z m 4.5382244,0 H 7.920905 v 0.37828 h -0.37828 z"
       id="path822" />
  </g>
</svg>
