<svg xmlns="http://www.w3.org/2000/svg" width="48" height="48" viewBox="0 0 12.7 12.7"><path d="M6.34431561.07286377a6.28928043 6.28928043 0 0 0-6.2895386 6.2895385 6.28928043 6.28928043 0 0 0 6.2895386 6.28902166 6.28928043 6.28928043 0 0 0 6.28902167-6.28902167A6.28928043 6.28928043 0 0 0 6.3443156.07286376zm-.01808691.93637693a5.40704372 5.40704372 0 0 1 5.40690507 5.40690505 5.40704372 5.40704372 0 0 1-5.40690507 5.40690508A5.40704372 5.40704372 0 0 1 .91880694 6.41614575 5.40704372 5.40704372 0 0 1 6.3262287 1.0092407zM6.28540428 2.0205485l-.90278716 2.50785712-.50746263-1.91512847c-.04332604-.16439999-.4282305-.20219934-.85937909-.08474935-.43114832.11744997-.74612525.34617327-.70279947.51056312.08738897.33157768.28672922 1.08842306.44441745 1.68671873H3.6943482c-.30058942 0-.35427814-.0401881-.43821614.15141204l-.52348235 1.2159464v3.90105393c0 .23601997-.0189709.19947096.28163651.19947096h6.59287922c.30061005 0 .28266998.03659902.28266998-.19947096V6.0931681l-.0961181-.22324219v-.4103108h-.17673346l-.25063053-.58239342c-.00964856-.02183738-.02049594-.03955917-.03152272-.05581067l.1312582-.1312582c-.00528002.00400023-.00528002-.01571837 0-.00981843l-.58084322-.58084296c.00633016.00399997-.0177038.00399997-.01136888 0l-.44028307.4392496-.08991705-.04340833c-.05279999-.02529999-.10138543-.04776179-.14521074-.06356191L8.1054484 4.3976644V3.7713459l-.84542655.00051674v.62683521l-.09301745.03307292c-.04329615.01589987-.0924097.03929565-.145211.06459564l-.08888333.04340807-.22272545-.22220873.69246431-1.88618966.00051673-.00103351-1.11776138-.4097941zm-.1307412.7017658l.4470011.16381438-.07131341.19430339-.4470011-.16381413.0713134-.19430364zm-.20722246.56534022l.4470011.16433112-.0718304.19430339-.44648438-.1638144.07131368-.1948201zm-.20773946.56585696l.4470011.16433112-.0713134.19430339-.4470011-.1638144.0713134-.1948201zm-.20773919.56585696l.4470011.1638144-.01085188.02945552-.06821302.06821276c.00580998-.00599995.00580998.01623536 0 .01033542l.0289388.0289388-.00206693.00568431h-.16123046l-.30489102-.11213782.07131341-.19430339zm-1.77508532.50436198h.05271002c.12128685.4601882.20566115.78054199.33279609 1.26297185h-.95601392l.34933255-1.09864073c.02661602-.07520014.0560959-.1131181.07958164-.1312582.02348812-.01790013.05258196-.03307292.14159362-.03307292zm1.76630036.13435885l.24804688.09095052-.07131341.19430312-.11213783-.04134115-.06459564-.24391249zm2.15955798.12143952c.3870272 0 .7033162.3168163.7033162.7033162 0 .10934462-.0273415.21134255-.07234687.30385728H7.0512492c-.04507495-.09249833-.07286387-.19466242-.07286387-.30385728 0-.38703012.31732299-.7033162.70434966-.7033162z" fill="#e6e6e6"/></svg>