<svg xmlns="http://www.w3.org/2000/svg" width="48" height="48" viewBox="0 0 12.7 12.7"><path d="M6.3437318.07701A6.2670426 6.2670426 0 0 0 .07641397 6.34433a6.2670426 6.2670426 0 0 0 6.26731783 6.26628 6.2670426 6.2670426 0 0 0 6.2673172-6.26628A6.2670426 6.2670426 0 0 0 6.3437318.07701zm-.01756.93224a5.3879258 5.3879258 0 0 1 5.3877832 5.38882 5.3879258 5.3879258 0 0 1-5.3877848 5.38778A5.3879258 5.3879258 0 0 1 .93735167 6.39807 5.3879258 5.3879258 0 0 1 6.3261718 1.00925zm2.9197168 1.4211c-.097034 0-.19405.0368-.2676839.1106l-.5725751.5705 1.2505699 1.24746.5715415-.56946c.14776-.1476.14776-.38724 0-.53434l-.7141689-.71416c-.073798-.0738-.170814-.1106-.2676835-.1106zm-1.1069094.94776l-3.4437173 3.4375 1.2495363 1.24748 3.4437172-3.43648zm-5.2606606.36172c-.2911002 0-.5291666.23808-.5291666.52918v5.29062c0 .29094.2380664.52918.5291666.52918h5.2916666c.290773 0 .5291668-.23824.5291668-.52918v-3.7827l-.8185548.81648v2.67788h-4.712899V4.55735h3.325895l.8195882-.81752zm1.5471923 3.34244L4.157827 8.59639l1.51722-.26562z" fill="#e6e6e6"/></svg>