<svg xmlns="http://www.w3.org/2000/svg" width="48" height="48" viewBox="0 0 12.7 12.7"><path d="M6.3437318.07701A6.2670426 6.2670426 0 0 0 .07641397 6.34433a6.2670426 6.2670426 0 0 0 6.26731783 6.26628A6.2670426 6.2670426 0 0 0 12.61105 6.34433 6.2670426 6.2670426 0 0 0 6.3437318.07701zm-.01756.93224a5.3879258 5.3879258 0 0 1 5.3877832 5.38882 5.3879258 5.3879258 0 0 1-5.3877848 5.38778A5.3879258 5.3879258 0 0 1 .93735177 6.39807 5.3879258 5.3879258 0 0 1 6.3261718 1.00925zM2.7625634 2.64327l-.025838.01-.01136.0258v5.87664c.01838.1046-.04019.2507.037206.32454h2.3275064c-.282068.23656-.4775032.56744-.4805908.94982-.035708.53976.4848162.98684 1.0087242.9374.7101966-.0366 1.3607192-.7237 1.2846764-1.4583v-.42892H7.987059c-.035132.0854-.061658.1742-.076482.26872-.1052961.47282.2246036.94802.6759278 1.08314.844813.27692 1.7894582-.53938 1.6898192-1.41284-.0024-1.63828.0071-3.27614 0-4.91442-.01982-.1624-.146692-.32686-.3234941-.31938h-.00107c-.5819624.093-1.165003.1828-1.7476728.27182V2.64393H3.6668924zm.9043374.24494H7.263572v1.1162c-.2403628.0378-.4813236.0732-.7214028.1126-.3088994.1548-.198166.54912-.2180744.82682v.7948H3.6668924zm-.6624918.0372h.3782716v.37828h-.37828zm4.5382244 0h.3782716v.37828h-.37828zm-4.5382244.75654h.3782716v.37828h-.37828zm4.5382244 0h.3782716v.22014c-.1261021.02-.2522052.0394-.3782716.059zm-4.5382244.75656h.3782716v.37826h-.37828zm6.7055338.65938v2.96622c-.538-.155-1.1475942.056-1.5058512.4744V5.32217c.5019072-.076 1.0034524-.1516 1.5058512-.22428zm-6.7055338.0962h.3782716v.37828h-.37828zm4.916496.1706v.20774h-.37828v-.1508c.126146-.018.2521564-.0378.3782716-.0568zm-.6573246.0982v.27596H6.902871v-.22222c.120356-.018.240403-.036.360701-.0538zm-4.2591714.48782h.3782716v.37828h-.37828zm4.5382244 0h.3782716v.37828h-.37828zm-3.8757326.032h2.6572024v2.56522c-.2795856-.0624-.5723534-.0214-.8371586.0888H3.6668924zm3.2359786 0h.3606926v2.5735c.0044.0248.00354.0524.00206.0806h-.362768zm-3.8984704.7245h.3782716v.37828h-.37828zm4.5382244 0h.3782716v.37828h-.37828zm-4.5382244.75656h.3782716v.37722h-.37828zm4.5382244 0h.3782716v.37722h-.37828zm-4.5382244.7555h.3782716v.37828h-.37828zm4.5382244 0h.3782716v.37828h-.37828z" fill="#e6e6e6"/></svg>