<?xml version="1.0" encoding="UTF-8" standalone="no"?>
<!-- Created with Inkscape (http://www.inkscape.org/) -->

<svg
   xmlns:dc="http://purl.org/dc/elements/1.1/"
   xmlns:cc="http://creativecommons.org/ns#"
   xmlns:rdf="http://www.w3.org/1999/02/22-rdf-syntax-ns#"
   xmlns:svg="http://www.w3.org/2000/svg"
   xmlns="http://www.w3.org/2000/svg"
   xmlns:sodipodi="http://sodipodi.sourceforge.net/DTD/sodipodi-0.dtd"
   xmlns:inkscape="http://www.inkscape.org/namespaces/inkscape"
   width="24"
   height="24"
   viewBox="0 0 6.35 6.35"
   version="1.1"
   id="svg829"
   inkscape:version="0.92.3 (2405546, 2018-03-11)"
   sodipodi:docname="applications-system-symbolic.svg">
  <defs
     id="defs823" />
  <sodipodi:namedview
     id="base"
     pagecolor="#ffffff"
     bordercolor="#666666"
     borderopacity="1.0"
     inkscape:pageopacity="0.0"
     inkscape:pageshadow="2"
     inkscape:zoom="18.375"
     inkscape:cx="11.265306"
     inkscape:cy="11.782313"
     inkscape:document-units="mm"
     inkscape:current-layer="layer1"
     showgrid="false"
     showguides="true"
     inkscape:guide-bbox="true"
     inkscape:window-width="1366"
     inkscape:window-height="719"
     inkscape:window-x="0"
     inkscape:window-y="25"
     inkscape:window-maximized="1"
     scale-x="1.9"
     units="px"
     inkscape:snap-global="false" />
  <metadata
     id="metadata826">
    <rdf:RDF>
      <cc:Work
         rdf:about="">
        <dc:format>image/svg+xml</dc:format>
        <dc:type
           rdf:resource="http://purl.org/dc/dcmitype/StillImage" />
        <dc:title></dc:title>
      </cc:Work>
    </rdf:RDF>
  </metadata>
  <g
     inkscape:label="Capa 1"
     inkscape:groupmode="layer"
     id="layer1"
     transform="translate(0,-290.65)">
    <path
       style="fill:#808080;fill-opacity:1;stroke-width:0.07651166"
       d="m 2.4984838,291.59815 -0.2154927,0.52063 a 1.3253226,1.3253226 0 0 0 -0.2672111,0.0299 l -0.3200785,-0.46087 c -0.1129288,0.0389 -0.2150126,0.0949 -0.31778,0.15458 l 0.1344674,0.54132 A 1.337222,1.337222 0 0 0 1.3158596,292.563 l -0.52810096,-0.18274 a 1.8272107,1.8272107 0 0 0 -0.1723942,0.31031 l 0.42466436,0.35628 a 1.2761389,1.2761389 0 0 0 -0.033904,0.12815 c -0.009096,0.0449 -0.0139228,0.0868 -0.0183887,0.13102 l -0.53039951,0.16205 c 0.001689,0.12042 0.012767,0.23807 0.0373521,0.35341 l 0.55740791,0.0368 c 0.028764,0.0843 0.066501,0.16568 0.110907,0.24192 l -0.33501948,0.4465 c 0.0713633,0.095 0.14405425,0.18596 0.23273218,0.26606 l 0.4740841,-0.29996 c 0.072063,0.0517 0.1514697,0.0958 0.2344561,0.13217 l -0.00517,0.5643 a 1.8822122,1.8822122 0 0 0 0.3401912,0.069 l 0.2154928,-0.52121 c 0.090401,-0.002 0.1809895,-0.0113 0.267211,-0.0304 l 0.3195038,0.46201 c 0.1126569,-0.0389 0.2158432,-0.095 0.3183549,-0.15458 L 3.0903705,294.4915 c 0.070647,-0.053 0.1371971,-0.11253 0.1965294,-0.17872 l 0.528101,0.18274 a 1.8272107,1.8272107 0 0 0 0.1706702,-0.30571 l 0.1005633,0.21262 a 0.78001749,0.78001749 0 0 0 -0.091369,0.12527 L 3.671339,294.484 a 1.0658335,1.0658335 0 0 0 -0.062062,0.19768 l 0.2838759,0.154 a 0.7443869,0.7443869 0 0 0 -0.0046,0.077 c 0,0.0268 0.00197,0.0514 0.0046,0.077 L 3.609277,295.1443 c 0.014957,0.0687 0.034604,0.13459 0.062062,0.19767 l 0.3235264,-0.0437 c 0.026225,0.0449 0.057127,0.0869 0.091369,0.12527 l -0.1396392,0.29422 c 0.051826,0.046 0.1037739,0.0892 0.1637743,0.1247 l 0.2361803,-0.22641 c 0.047196,0.0212 0.097736,0.0371 0.1494081,0.0483 l 0.062637,0.32295 a 1.0979165,1.0979165 0 0 0 0.2022759,0 l 0.062636,-0.32295 c 0.051516,-0.0112 0.102363,-0.0269 0.1494084,-0.0483 l 0.23618,0.22641 c 0.059849,-0.0356 0.1126787,-0.0792 0.1643492,-0.12527 L 5.2332307,295.423 c 0.034247,-0.0385 0.065148,-0.0806 0.091369,-0.12527 l 0.3229521,0.0442 a 1.0658335,1.0658335 0 0 0 0.063211,-0.19767 l -0.2844502,-0.15401 c 0.00267,-0.0257 0.0046,-0.0503 0.0046,-0.077 0,-0.0267 -0.00193,-0.0514 -0.0046,-0.077 l 0.2844502,-0.15457 a 1.0655251,1.0655251 0 0 0 -0.063211,-0.19711 l -0.3229521,0.0431 a 0.78001749,0.78001749 0 0 0 -0.091369,-0.12527 l 0.1402138,-0.29422 c -0.05168,-0.046 -0.1045029,-0.0898 -0.1643492,-0.12528 l -0.23618,0.22699 a 0.7735391,0.7735391 0 0 0 -0.1494084,-0.0477 l -0.062636,-0.32352 a 1.0979165,1.0979165 0 0 0 -0.101138,-0.007 c -0.033933,0 -0.067821,0.004 -0.1011379,0.007 l -0.062637,0.32295 a 0.77307641,0.77307641 0 0 0 -0.1494081,0.0477 l -0.2361803,-0.22583 c -0.060001,0.0357 -0.1119481,0.0787 -0.1637743,0.1247 l 0.033904,0.0713 -0.4177686,-0.34996 c 0.013214,-0.0426 0.025368,-0.0827 0.034479,-0.12757 0.00916,-0.0453 0.013375,-0.0874 0.017814,-0.13159 l 0.530974,-0.16148 a 1.8266819,1.8266819 0 0 0 -0.037927,-0.35341 l -0.5574079,-0.0379 A 1.337222,1.337222 0 0 0 3.439756,292.77617 l 0.3350195,-0.4465 c -0.071146,-0.0947 -0.1437368,-0.18602 -0.2321574,-0.26606 L 3.0679592,292.363 a 1.326116,1.326116 0 0 0 -0.2344559,-0.13217 l 0.0046,-0.56373 a 1.8822122,1.8822122 0 0 0 -0.1677968,-0.0425 h -5.747e-4 c -0.056917,-0.0113 -0.1148521,-0.0178 -0.1712449,-0.0264 z m -0.2292843,1.04758 a 0.79329232,0.79329232 0 0 1 0.1902083,0.0155 0.793305,0.793305 0 1 1 -0.3160561,1.55443 0.79329232,0.79329232 0 0 1 0.1258478,-1.56994 z m 2.3836371,1.80554 a 0.46273528,0.46273528 0 0 1 0.0069,0 0.46273528,0.46273528 0 1 1 0,0.92518 0.46273528,0.46273528 0 0 1 -0.0069,-0.92518 z"
       id="path835"
       inkscape:connector-curvature="0" />
  </g>
</svg>
