<?xml version="1.0" encoding="UTF-8" standalone="no"?>
<!-- Created with Inkscape (http://www.inkscape.org/) -->

<svg
   xmlns:dc="http://purl.org/dc/elements/1.1/"
   xmlns:cc="http://creativecommons.org/ns#"
   xmlns:rdf="http://www.w3.org/1999/02/22-rdf-syntax-ns#"
   xmlns:svg="http://www.w3.org/2000/svg"
   xmlns="http://www.w3.org/2000/svg"
   xmlns:sodipodi="http://sodipodi.sourceforge.net/DTD/sodipodi-0.dtd"
   xmlns:inkscape="http://www.inkscape.org/namespaces/inkscape"
   width="24"
   height="24"
   viewBox="0 0 6.35 6.35"
   version="1.1"
   id="svg829"
   inkscape:version="0.92.3 (2405546, 2018-03-11)"
   sodipodi:docname="applications-multimedia-symbolic.svg">
  <defs
     id="defs823" />
  <sodipodi:namedview
     id="base"
     pagecolor="#ffffff"
     bordercolor="#666666"
     borderopacity="1.0"
     inkscape:pageopacity="0.0"
     inkscape:pageshadow="2"
     inkscape:zoom="18.375"
     inkscape:cx="12"
     inkscape:cy="12"
     inkscape:document-units="mm"
     inkscape:current-layer="layer1"
     showgrid="false"
     showguides="true"
     inkscape:guide-bbox="true"
     inkscape:window-width="1366"
     inkscape:window-height="719"
     inkscape:window-x="0"
     inkscape:window-y="25"
     inkscape:window-maximized="1"
     scale-x="1.9"
     units="px"
     inkscape:snap-global="true" />
  <metadata
     id="metadata826">
    <rdf:RDF>
      <cc:Work
         rdf:about="">
        <dc:format>image/svg+xml</dc:format>
        <dc:type
           rdf:resource="http://purl.org/dc/dcmitype/StillImage" />
        <dc:title></dc:title>
      </cc:Work>
    </rdf:RDF>
  </metadata>
  <g
     inkscape:label="Capa 1"
     inkscape:groupmode="layer"
     id="layer1"
     transform="translate(0,-290.65)">
    <path
       style="fill:#808080;fill-opacity:1;stroke-width:0.25820339"
       d="M 5.3222656 5.0996094 L 5.2734375 5.1210938 L 5.2519531 5.1699219 L 5.2519531 16.128906 C 5.2862334 16.324686 5.1779406 16.596762 5.3222656 16.734375 L 7.0078125 16.734375 L 9.6621094 16.734375 C 9.1361001 17.175484 8.771382 17.790898 8.765625 18.503906 C 8.6990297 19.510546 9.6694837 20.346013 10.646484 20.253906 C 11.970882 20.185497 13.184774 18.903093 13.042969 17.533203 L 13.042969 16.734375 L 14.259766 16.734375 L 15.064453 16.734375 C 14.998931 16.893871 14.949511 17.057871 14.921875 17.234375 C 14.725506 18.116101 15.339996 19.001887 16.181641 19.253906 C 17.757075 19.770341 19.519795 18.247966 19.333984 16.619141 C 19.329449 13.564073 19.347213 10.510221 19.333984 7.4550781 C 19.297021 7.1527159 19.060175 6.845353 18.730469 6.859375 L 18.728516 6.859375 C 17.643253 7.0336112 16.555332 7.2012662 15.46875 7.3671875 L 15.46875 5.1035156 L 13.955078 5.1035156 L 7.0078125 5.1035156 L 5.3222656 5.0996094 z M 7.0078125 5.5566406 L 13.714844 5.5566406 L 13.714844 7.6367188 C 13.266607 7.707018 12.816848 7.7739555 12.369141 7.8476562 C 11.793095 8.1367901 12.000016 8.8708766 11.962891 9.3886719 L 11.962891 10.871094 L 7.0078125 10.871094 L 7.0078125 5.5566406 z M 5.7734375 5.625 L 6.4785156 5.625 L 6.4785156 6.3300781 L 5.7734375 6.3300781 L 5.7734375 5.625 z M 14.236328 5.625 L 14.941406 5.625 L 14.941406 6.3300781 L 14.236328 6.3300781 L 14.236328 5.625 z M 5.7734375 7.0351562 L 6.4785156 7.0351562 L 6.4785156 7.7402344 L 5.7734375 7.7402344 L 5.7734375 7.0351562 z M 14.236328 7.0351562 L 14.941406 7.0351562 L 14.941406 7.4453125 C 14.706248 7.4831078 14.47142 7.5180261 14.236328 7.5546875 L 14.236328 7.0351562 z M 5.7734375 8.4453125 L 6.4785156 8.4453125 L 6.4785156 9.1523438 L 5.7734375 9.1523438 L 5.7734375 8.4453125 z M 18.277344 9.6757812 L 18.277344 15.207031 C 17.274064 14.917897 16.136839 15.311098 15.46875 16.091797 L 15.46875 10.09375 C 16.404724 9.9516398 17.340454 9.8112773 18.277344 9.6757812 z M 5.7734375 9.8554688 L 6.4785156 9.8554688 L 6.4785156 10.560547 L 5.7734375 10.560547 L 5.7734375 9.8554688 z M 14.941406 10.173828 L 14.941406 10.560547 L 14.236328 10.560547 L 14.236328 10.279297 C 14.471573 10.245281 14.706223 10.209356 14.941406 10.173828 z M 13.714844 10.357422 L 13.714844 10.871094 L 13.042969 10.871094 L 13.042969 10.457031 C 13.267412 10.423016 13.490508 10.388414 13.714844 10.357422 z M 5.7734375 11.265625 L 6.4785156 11.265625 L 6.4785156 11.972656 L 5.7734375 11.972656 L 5.7734375 11.265625 z M 14.236328 11.265625 L 14.941406 11.265625 L 14.941406 11.972656 L 14.236328 11.972656 L 14.236328 11.265625 z M 7.0078125 11.326172 L 11.962891 11.326172 L 11.962891 16.109375 C 11.44151 15.99221 10.896161 16.069784 10.402344 16.275391 L 7.0078125 16.275391 L 7.0078125 11.326172 z M 13.042969 11.326172 L 13.714844 11.326172 L 13.714844 16.125 C 13.723008 16.17111 13.721566 16.223233 13.71875 16.275391 L 13.042969 16.275391 L 13.042969 11.326172 z M 5.7734375 12.677734 L 6.4785156 12.677734 L 6.4785156 13.382812 L 5.7734375 13.382812 L 5.7734375 12.677734 z M 14.236328 12.677734 L 14.941406 12.677734 L 14.941406 13.382812 L 14.236328 13.382812 L 14.236328 12.677734 z M 5.7734375 14.087891 L 6.4785156 14.087891 L 6.4785156 14.791016 L 5.7734375 14.791016 L 5.7734375 14.087891 z M 14.236328 14.087891 L 14.941406 14.087891 L 14.941406 14.791016 L 14.236328 14.791016 L 14.236328 14.087891 z M 5.7734375 15.496094 L 6.4785156 15.496094 L 6.4785156 16.203125 L 5.7734375 16.203125 L 5.7734375 15.496094 z M 14.236328 15.496094 L 14.941406 15.496094 L 14.941406 16.203125 L 14.236328 16.203125 L 14.236328 15.496094 z "
       transform="matrix(0.26458333,0,0,0.26458333,0,290.65)"
       id="path871" />
  </g>
</svg>
