<?xml version="1.0" encoding="UTF-8" standalone="no"?>
<!-- Created with Inkscape (http://www.inkscape.org/) -->

<svg
   xmlns:dc="http://purl.org/dc/elements/1.1/"
   xmlns:cc="http://creativecommons.org/ns#"
   xmlns:rdf="http://www.w3.org/1999/02/22-rdf-syntax-ns#"
   xmlns:svg="http://www.w3.org/2000/svg"
   xmlns="http://www.w3.org/2000/svg"
   xmlns:sodipodi="http://sodipodi.sourceforge.net/DTD/sodipodi-0.dtd"
   xmlns:inkscape="http://www.inkscape.org/namespaces/inkscape"
   width="24"
   height="24"
   viewBox="0 0 6.35 6.35"
   version="1.1"
   id="svg829"
   inkscape:version="0.92.3 (2405546, 2018-03-11)"
   sodipodi:docname="applications-science-symbolic.svg">
  <defs
     id="defs823" />
  <sodipodi:namedview
     id="base"
     pagecolor="#ffffff"
     bordercolor="#666666"
     borderopacity="1.0"
     inkscape:pageopacity="0.0"
     inkscape:pageshadow="2"
     inkscape:zoom="4.59375"
     inkscape:cx="11.782313"
     inkscape:cy="12"
     inkscape:document-units="mm"
     inkscape:current-layer="layer1"
     showgrid="false"
     showguides="true"
     inkscape:guide-bbox="true"
     inkscape:window-width="1366"
     inkscape:window-height="719"
     inkscape:window-x="0"
     inkscape:window-y="25"
     inkscape:window-maximized="1"
     scale-x="1.9"
     units="px" />
  <metadata
     id="metadata826">
    <rdf:RDF>
      <cc:Work
         rdf:about="">
        <dc:format>image/svg+xml</dc:format>
        <dc:type
           rdf:resource="http://purl.org/dc/dcmitype/StillImage" />
        <dc:title></dc:title>
      </cc:Work>
    </rdf:RDF>
  </metadata>
  <g
     inkscape:label="Capa 1"
     inkscape:groupmode="layer"
     id="layer1"
     transform="translate(0,-290.65)">
    <path
       style="fill:#808080;fill-opacity:1;stroke-width:0.25820348"
       d="M 12.791016 2.5527344 A 0.87962362 0.91345519 0 0 0 11.910156 3.4667969 A 0.87962362 0.91345519 0 0 0 12.791016 4.3808594 A 0.87962362 0.91345519 0 0 0 13.669922 3.4667969 A 0.87962362 0.91345519 0 0 0 12.791016 2.5527344 z M 9.7128906 3.0273438 A 0.43981183 0.47364348 0 0 0 9.2714844 3.5019531 A 0.43981183 0.47364348 0 0 0 9.7128906 3.9746094 A 0.43981183 0.47364348 0 0 0 10.152344 3.5019531 A 0.43981183 0.47364348 0 0 0 9.7128906 3.0273438 z M 8.9609375 4.7226562 A 0.98680758 0.98680758 0 0 0 8.4804688 6.5722656 L 8.9648438 6.8398438 L 8.9648438 9.4902344 C 8.836559 9.6916832 8.7197077 9.8707011 8.5332031 10.193359 C 8.263806 10.657183 7.9333958 11.240431 7.5761719 11.878906 A 507.82598 507.82598 0 0 0 5.4023438 15.820312 C 4.836903 16.853522 4.8604316 18.24304 5.6992188 19.289062 C 6.3643268 20.177176 7.413826 20.414062 8.2832031 20.414062 L 15.539062 20.414062 C 16.409427 20.414062 17.458925 20.177075 18.123047 19.287109 C 18.961833 18.241087 18.981456 16.853522 18.416016 15.820312 C 17.268358 13.482561 15.974037 11.657116 14.900391 9.5078125 L 14.900391 6.84375 L 15.384766 6.5722656 A 0.98680758 0.98680758 0 0 0 14.904297 4.7226562 L 8.9609375 4.7226562 z M 10.9375 6.6972656 L 12.927734 6.6972656 L 12.927734 9.7636719 A 0.98680758 0.98680758 0 0 0 13.027344 10.197266 C 14.213485 12.62187 15.566732 14.482581 16.664062 16.726562 A 0.98680758 0.98680758 0 0 0 16.683594 16.765625 C 16.920427 17.199855 16.934285 17.639105 16.585938 18.064453 A 0.98680758 0.98680758 0 0 0 16.550781 18.109375 C 16.4077 18.30591 16.070972 18.439453 15.537109 18.439453 L 8.2832031 18.439453 C 7.7503272 18.439453 7.4126181 18.30591 7.2695312 18.109375 A 0.98680758 0.98680758 0 0 0 7.2363281 18.064453 C 6.8870015 17.639105 6.8979329 17.200788 7.1347656 16.767578 A 505.68658 505.68658 0 0 1 9.2988281 12.841797 A 126.60741 126.60741 0 0 1 10.238281 11.181641 C 10.49781 10.734598 10.723356 10.382213 10.75 10.345703 A 0.98680758 0.98680758 0 0 0 10.9375 9.7636719 L 10.9375 6.6972656 z M 11.572266 11.349609 A 0.74429688 0.74429688 0 0 0 10.828125 12.09375 A 0.74429688 0.74429688 0 0 0 11.572266 12.839844 A 0.74429688 0.74429688 0 0 0 12.316406 12.09375 A 0.74429688 0.74429688 0 0 0 11.572266 11.349609 z M 13.667969 13.505859 L 10.154297 13.507812 L 7.9628906 17.453125 L 15.857422 17.453125 L 13.667969 13.505859 z "
       transform="matrix(0.26458333,0,0,0.26458333,0,290.65)"
       id="path840" />
  </g>
</svg>
