<?xml version="1.0" encoding="UTF-8" standalone="no"?>
<!-- Created with Inkscape (http://www.inkscape.org/) -->

<svg
   xmlns:dc="http://purl.org/dc/elements/1.1/"
   xmlns:cc="http://creativecommons.org/ns#"
   xmlns:rdf="http://www.w3.org/1999/02/22-rdf-syntax-ns#"
   xmlns:svg="http://www.w3.org/2000/svg"
   xmlns="http://www.w3.org/2000/svg"
   xmlns:sodipodi="http://sodipodi.sourceforge.net/DTD/sodipodi-0.dtd"
   xmlns:inkscape="http://www.inkscape.org/namespaces/inkscape"
   width="24"
   height="24"
   viewBox="0 0 6.35 6.35"
   version="1.1"
   id="svg829"
   inkscape:version="0.92.3 (2405546, 2018-03-11)"
   sodipodi:docname="applications-games-symbolic.svg">
  <defs
     id="defs823" />
  <sodipodi:namedview
     id="base"
     pagecolor="#ffffff"
     bordercolor="#666666"
     borderopacity="1.0"
     inkscape:pageopacity="0.0"
     inkscape:pageshadow="2"
     inkscape:zoom="18.375"
     inkscape:cx="12"
     inkscape:cy="12"
     inkscape:document-units="mm"
     inkscape:current-layer="layer1"
     showgrid="false"
     showguides="true"
     inkscape:guide-bbox="true"
     inkscape:window-width="1366"
     inkscape:window-height="719"
     inkscape:window-x="0"
     inkscape:window-y="25"
     inkscape:window-maximized="1"
     scale-x="1.9"
     units="px" />
  <metadata
     id="metadata826">
    <rdf:RDF>
      <cc:Work
         rdf:about="">
        <dc:format>image/svg+xml</dc:format>
        <dc:type
           rdf:resource="http://purl.org/dc/dcmitype/StillImage" />
        <dc:title></dc:title>
      </cc:Work>
    </rdf:RDF>
  </metadata>
  <g
     inkscape:label="Capa 1"
     inkscape:groupmode="layer"
     id="layer1"
     transform="translate(0,-290.65)">
    <path
       style="fill:#808080;fill-opacity:1;stroke-width:0.26004964"
       d="M 5.8144531 6.4824219 C 5.6504519 6.4824219 5.5394687 6.5601321 5.5019531 6.6992188 L 3.6835938 15.941406 C 3.4424043 16.848266 5.3572575 17.933141 6.6210938 17.203125 L 9.5683594 12.916016 L 14.392578 12.916016 L 17.341797 17.203125 C 18.60456 17.932158 20.518726 16.848191 20.275391 15.941406 L 18.460938 6.7011719 C 18.423256 6.5613294 18.312264 6.4824219 18.150391 6.4824219 L 5.8144531 6.4824219 z M 7.9414062 7.5546875 A 0.26798906 0.26798906 0 0 1 7.9609375 7.5546875 L 8.4980469 7.5546875 A 0.26798906 0.26798906 0 0 1 8.765625 7.8242188 L 8.765625 8.6269531 L 9.5683594 8.6269531 A 0.26798906 0.26798906 0 0 1 9.8378906 8.8945312 L 9.8378906 9.4316406 A 0.26798906 0.26798906 0 0 1 9.5683594 9.6992188 L 8.765625 9.6992188 L 8.765625 10.503906 A 0.26798906 0.26798906 0 0 1 8.4980469 10.771484 L 7.9609375 10.771484 A 0.26798906 0.26798906 0 0 1 7.6933594 10.503906 L 7.6933594 9.6992188 L 6.8886719 9.6992188 A 0.26798906 0.26798906 0 0 1 6.6210938 9.4316406 L 6.6210938 8.8945312 A 0.26798906 0.26798906 0 0 1 6.8886719 8.6269531 L 7.6933594 8.6269531 L 7.6933594 7.8242188 A 0.26798906 0.26798906 0 0 1 7.9414062 7.5546875 z M 15.693359 7.5546875 A 0.5359782 0.5359782 0 0 1 15.695312 7.5546875 A 0.5359782 0.5359782 0 0 1 15.734375 7.5546875 A 0.5359782 0.5359782 0 0 1 16.269531 8.0917969 A 0.5359782 0.5359782 0 0 1 15.734375 8.6269531 A 0.5359782 0.5359782 0 0 1 15.197266 8.0917969 A 0.5359782 0.5359782 0 0 1 15.693359 7.5546875 z M 14.623047 8.6269531 A 0.5359782 0.5359782 0 0 1 14.660156 8.6269531 A 0.5359782 0.5359782 0 0 1 15.197266 9.1621094 A 0.5359782 0.5359782 0 0 1 14.660156 9.6992188 A 0.5359782 0.5359782 0 0 1 14.125 9.1621094 A 0.5359782 0.5359782 0 0 1 14.623047 8.6269531 z M 16.765625 8.6269531 A 0.5359782 0.5359782 0 0 1 16.804688 8.6269531 A 0.5359782 0.5359782 0 0 1 17.341797 9.1621094 A 0.5359782 0.5359782 0 0 1 16.804688 9.6992188 A 0.5359782 0.5359782 0 0 1 16.269531 9.1621094 A 0.5359782 0.5359782 0 0 1 16.765625 8.6269531 z M 15.693359 9.6992188 A 0.5359782 0.5359782 0 0 1 15.695312 9.6992188 A 0.5359782 0.5359782 0 0 1 15.734375 9.6992188 A 0.5359782 0.5359782 0 0 1 16.269531 10.236328 A 0.5359782 0.5359782 0 0 1 15.734375 10.771484 A 0.5359782 0.5359782 0 0 1 15.197266 10.236328 A 0.5359782 0.5359782 0 0 1 15.693359 9.6992188 z "
       transform="matrix(0.26458333,0,0,0.26458333,0,290.65)"
       id="path841" />
  </g>
</svg>
