<?xml version="1.0" encoding="UTF-8" standalone="no"?>
<svg
   xmlns:dc="http://purl.org/dc/elements/1.1/"
   xmlns:cc="http://creativecommons.org/ns#"
   xmlns:rdf="http://www.w3.org/1999/02/22-rdf-syntax-ns#"
   xmlns:svg="http://www.w3.org/2000/svg"
   xmlns="http://www.w3.org/2000/svg"
   xmlns:sodipodi="http://sodipodi.sourceforge.net/DTD/sodipodi-0.dtd"
   xmlns:inkscape="http://www.inkscape.org/namespaces/inkscape"
   width="24"
   height="24"
   version="1.1"
   id="svg10"
   sodipodi:docname="battery-low-charging-symbolic.svg"
   inkscape:version="0.92.3 (2405546, 2018-03-11)">
  <metadata
     id="metadata16">
    <rdf:RDF>
      <cc:Work
         rdf:about="">
        <dc:format>image/svg+xml</dc:format>
        <dc:type
           rdf:resource="http://purl.org/dc/dcmitype/StillImage" />
        <dc:title></dc:title>
      </cc:Work>
    </rdf:RDF>
  </metadata>
  <defs
     id="defs14" />
  <sodipodi:namedview
     pagecolor="#ffffff"
     bordercolor="#666666"
     borderopacity="1"
     objecttolerance="10"
     gridtolerance="10"
     guidetolerance="10"
     inkscape:pageopacity="0"
     inkscape:pageshadow="2"
     inkscape:window-width="1366"
     inkscape:window-height="719"
     id="namedview12"
     showgrid="false"
     showguides="true"
     inkscape:guide-bbox="true"
     inkscape:snap-global="true"
     inkscape:zoom="7.8371002"
     inkscape:cx="12"
     inkscape:cy="12"
     inkscape:window-x="0"
     inkscape:window-y="25"
     inkscape:window-maximized="1"
     inkscape:current-layer="svg10" />
  <path
     style="opacity:1;fill:#808080;fill-opacity:1;stroke:none;stroke-width:1.29807615;stroke-miterlimit:4;stroke-dasharray:none;stroke-opacity:1"
     d="M 12.001953 0.078125 C 9.4902093 0.078125 7.46875 0.33017217 7.46875 0.64257812 L 7.46875 2.8027344 C 4.327839 4.6208318 2.1875 8.2683316 2.1875 12.498047 C 2.1875 13.996165 2.4577174 15.42113 2.9433594 16.71875 L 2.9121094 16.720703 L 5.7988281 23.921875 L 14.226562 23.921875 L 14.226562 21.378906 L 7.3378906 21.378906 L 5.1679688 15.744141 L 5.1914062 15.740234 C 4.8263587 14.72488 4.6230469 13.611639 4.6230469 12.439453 C 4.6230469 9.1299642 6.9495829 6.2799701 9.3105469 4.8574219 L 9.2851562 3.2226562 C 9.2813562 2.9782485 10.111969 2.7207031 12 2.7207031 C 13.88803 2.7207031 14.737345 2.9391576 14.736328 3.1835938 L 14.730469 4.8574219 C 16.717639 6.0561149 18.562627 8.2930456 19.123047 10.9375 L 21.195312 8.8652344 C 20.363526 6.251108 18.720214 4.0698065 16.537109 2.8046875 L 16.537109 0.64257812 C 16.537109 0.3301722 14.513697 0.078125 12.001953 0.078125 z M 22.912109 10.279297 L 14.970703 17.675781 L 19.507812 17.675781 L 16.105469 24.015625 L 24.046875 15.5625 L 20.642578 15.5625 L 22.912109 10.279297 z M 7.9042969 16.460938 L 7.9042969 19.873047 L 14.226562 19.873047 L 14.226562 16.460938 L 7.9042969 16.460938 z "
     id="path833" />
</svg>
