<?xml version="1.0" encoding="UTF-8" standalone="no"?>
<svg
   xmlns:dc="http://purl.org/dc/elements/1.1/"
   xmlns:cc="http://creativecommons.org/ns#"
   xmlns:rdf="http://www.w3.org/1999/02/22-rdf-syntax-ns#"
   xmlns:svg="http://www.w3.org/2000/svg"
   xmlns="http://www.w3.org/2000/svg"
   xmlns:sodipodi="http://sodipodi.sourceforge.net/DTD/sodipodi-0.dtd"
   xmlns:inkscape="http://www.inkscape.org/namespaces/inkscape"
   width="24"
   height="24"
   version="1.1"
   id="svg10"
   sodipodi:docname="battery-empty-symbolic.svg"
   inkscape:version="0.92.3 (2405546, 2018-03-11)">
  <metadata
     id="metadata16">
    <rdf:RDF>
      <cc:Work
         rdf:about="">
        <dc:format>image/svg+xml</dc:format>
        <dc:type
           rdf:resource="http://purl.org/dc/dcmitype/StillImage" />
        <dc:title></dc:title>
      </cc:Work>
    </rdf:RDF>
  </metadata>
  <defs
     id="defs14" />
  <sodipodi:namedview
     pagecolor="#ffffff"
     bordercolor="#666666"
     borderopacity="1"
     objecttolerance="10"
     gridtolerance="10"
     guidetolerance="10"
     inkscape:pageopacity="0"
     inkscape:pageshadow="2"
     inkscape:window-width="1366"
     inkscape:window-height="719"
     id="namedview12"
     showgrid="false"
     showguides="true"
     inkscape:guide-bbox="true"
     inkscape:snap-global="true"
     inkscape:zoom="11.083333"
     inkscape:cx="-6.7218051"
     inkscape:cy="11.639098"
     inkscape:window-x="0"
     inkscape:window-y="25"
     inkscape:window-maximized="1"
     inkscape:current-layer="svg10" />
  <path
     inkscape:connector-curvature="0"
     style="opacity:1;fill:#808080;fill-opacity:1;stroke:none;stroke-width:1.29807615;stroke-miterlimit:4;stroke-dasharray:none;stroke-opacity:1"
     d="m 12.001948,0.0771515 c -2.511744,0 -4.533203,0.25204717 -4.533203,0.56445312 V 2.8017609 c -3.140911,1.8180974 -5.28125,5.4655971 -5.28125,9.6953121 0,1.498118 0.270217,2.923083 0.755859,4.220703 l -0.03125,0.0039 2.886719,7.201172 h 11.871094 l -0.02148,-0.05273 h 0.623046 l 2.771485,-7.111328 0.02539,-0.06445 h -0.0039 c 0.480217,-1.291463 0.748047,-2.707993 0.748047,-4.197265 0,-4.2279012 -2.136689,-7.8744683 -5.275391,-9.69336 V 0.64160462 c 0,-0.31240594 -2.023412,-0.56445312 -4.535156,-0.56445312 z m -0.002,2.6425781 c 1.88803,0 2.737345,0.2184544 2.736328,0.4628906 l -0.0059,1.6738281 c 2.359303,1.4231697 4.642578,4.2739619 4.642578,7.5820317 0,1.165262 -0.199577,2.272714 -0.560547,3.283203 h 0.002 l -0.01758,0.05078 -2.083984,5.564453 h -0.46875 l 0.01563,0.04102 H 7.337886 l -2.169922,-5.634765 0.02344,-0.0039 C 4.826356,14.723927 4.623045,13.610666 4.623045,12.43848 c 0,-3.3094892 2.326536,-6.1594835 4.6875,-7.5820317 L 9.285155,3.2216827 c -0.0038,-0.2444081 0.826813,-0.5019531 2.714844,-0.5019531 z"
     id="path818" />
</svg>
