<svg xmlns="http://www.w3.org/2000/svg" width="24" height="24"><path d="M12 .09C5.352.09 0 5.382 0 11.955S5.352 23.82 12 23.82c.514 0 .95-.225 1.447-.287l1.977-3.36a9.081 9.081 0 0 1-3.424.68c-4.986 0-9-3.968-9-8.898s4.014-8.898 9-8.898a8.953 8.953 0 0 1 8.326 5.578l2.156-2.156C20.472 2.724 16.612.089 12 .089z" fill="gray" fill-opacity=".996"/><path d="M13.262 15.7h-7.01c.94 1.467 2.485 2.357 4.232 2.779l2.778-2.78zM18.678 10.285H5.27c-.16.53-.271 1.08-.271 1.67 0 .657.206 1.248.377 1.85h9.781l3.52-3.52zM6.045 8.525h11.91C16.743 6.473 14.587 5.033 12 5.033s-4.743 1.44-5.955 3.492z" fill="gray" fill-opacity=".996"/><path d="M22.486 9.914l-7.941 7.396h4.537l-3.403 6.34 7.942-8.453h-3.405z" fill="gray"/></svg>