<?xml version="1.0" encoding="UTF-8" standalone="no"?>
<svg
   xmlns:dc="http://purl.org/dc/elements/1.1/"
   xmlns:cc="http://creativecommons.org/ns#"
   xmlns:rdf="http://www.w3.org/1999/02/22-rdf-syntax-ns#"
   xmlns:svg="http://www.w3.org/2000/svg"
   xmlns="http://www.w3.org/2000/svg"
   xmlns:sodipodi="http://sodipodi.sourceforge.net/DTD/sodipodi-0.dtd"
   xmlns:inkscape="http://www.inkscape.org/namespaces/inkscape"
   width="24"
   height="24"
   version="1.1"
   id="svg10"
   sodipodi:docname="battery-full-charged-symbolic.svg"
   inkscape:version="0.92.3 (2405546, 2018-03-11)">
  <metadata
     id="metadata16">
    <rdf:RDF>
      <cc:Work
         rdf:about="">
        <dc:format>image/svg+xml</dc:format>
        <dc:type
           rdf:resource="http://purl.org/dc/dcmitype/StillImage" />
        <dc:title></dc:title>
      </cc:Work>
    </rdf:RDF>
  </metadata>
  <defs
     id="defs14" />
  <sodipodi:namedview
     pagecolor="#ffffff"
     bordercolor="#666666"
     borderopacity="1"
     objecttolerance="10"
     gridtolerance="10"
     guidetolerance="10"
     inkscape:pageopacity="0"
     inkscape:pageshadow="2"
     inkscape:window-width="1366"
     inkscape:window-height="719"
     id="namedview12"
     showgrid="false"
     showguides="true"
     inkscape:guide-bbox="true"
     inkscape:snap-global="true"
     inkscape:zoom="11.083334"
     inkscape:cx="2.6390979"
     inkscape:cy="11.819549"
     inkscape:window-x="0"
     inkscape:window-y="25"
     inkscape:window-maximized="1"
     inkscape:current-layer="svg10" />
  <path
     style="opacity:1;fill:#808080;fill-opacity:1;stroke:none;stroke-width:1.29807615;stroke-miterlimit:4;stroke-dasharray:none;stroke-opacity:1"
     d="M 12.001953 0.052734375 C 9.490209 0.052734375 7.46875 0.30478155 7.46875 0.6171875 L 7.46875 2.7773438 C 4.3278386 4.5954412 2.1875 8.2429409 2.1875 12.472656 C 2.1875 13.970774 2.457717 15.395738 2.9433594 16.693359 L 2.9121094 16.697266 L 5.7988281 23.898438 L 17.669922 23.898438 L 17.648438 23.845703 L 18.271484 23.845703 L 21.042969 16.734375 L 21.068359 16.669922 L 21.064453 16.669922 C 21.54467 15.378459 21.8125 13.961928 21.8125 12.472656 C 21.8125 8.2447557 19.675811 4.5981886 16.537109 2.7792969 L 16.537109 0.6171875 C 16.537109 0.30478155 14.513697 0.052734375 12.001953 0.052734375 z M 12 2.6953125 C 13.88803 2.6953125 14.737345 2.9137669 14.736328 3.1582031 L 14.730469 4.8320312 C 17.089772 6.2552009 19.373047 9.1059931 19.373047 12.414062 C 19.373047 13.579325 19.17347 14.686776 18.8125 15.697266 L 18.814453 15.697266 L 18.796875 15.748047 L 16.712891 21.3125 L 16.244141 21.3125 L 16.259766 21.353516 L 7.3378906 21.353516 L 5.1679688 15.71875 L 5.1914062 15.714844 C 4.8263581 14.69951 4.6230469 13.586248 4.6230469 12.414062 C 4.623047 9.1045737 6.9495827 6.2545794 9.3105469 4.8320312 L 9.2851562 3.1972656 C 9.2813139 2.9528575 10.111969 2.6953125 12 2.6953125 z "
     id="path818" />
  <path
     id="path3172"
     d="M 15.136025,5.617838 6.0382006,14.090895 H 11.236958 L 7.3378906,21.353516 16.435714,11.670023 H 12.536648 Z"
     style="fill:#808080;fill-rule:evenodd;stroke:none;stroke-width:1.25426936"
     inkscape:connector-curvature="0" />
</svg>
