<svg xmlns="http://www.w3.org/2000/svg" width="24" height="24"><defs><clipPath id="a"><ellipse cx="23.621" cy="24.5" rx="21.007" ry="21.05" fill="#ccc" stroke-width=".297" stroke-linecap="round" stroke-linejoin="round"/></clipPath><clipPath id="b"><ellipse cx="23.621" cy="24.5" rx="21.007" ry="21.05" fill="#ccc" stroke-width=".297" stroke-linecap="round" stroke-linejoin="round"/></clipPath><clipPath id="c"><ellipse cx="23.621" cy="24.5" rx="21.007" ry="21.05" fill="#ccc" stroke-width=".297" stroke-linecap="round" stroke-linejoin="round"/></clipPath><clipPath id="d"><ellipse cx="7.991" cy="40.183" rx="7.548" ry="7.491" fill="#ccc" stroke-width=".379" stroke-linecap="round" stroke-linejoin="round"/></clipPath></defs><g fill="gray"><g fill-opacity=".302"><path clip-path="url(#a)" d="M25.854 9.428h-28.25l5.522-5.522h22.727" transform="matrix(.4968 0 0 .4968 .666 .345)"/><path clip-path="url(#b)" d="M25.853 19.812H-.345l-5.11-5.11h31.308" transform="matrix(.46507 0 0 .4968 1.487 .345)"/><path transform="rotate(-45 5.73 8.81) scale(.49679)" clip-path="url(#c)" d="M2.123 26.695V19.12L28.88 45.877h-7.576z"/></g><path transform="rotate(-45 5.73 8.81) scale(.49679)" clip-path="url(#d)" d="M2.123 33.967v11.91h11.91z"/><path d="M17.806 2.445a2.059 2.059 0 0 0-2.058 2.058v.823h-.412l-.823.003v4.936c0 .455.369.823.823.823h4.94a.826.826 0 0 0 .823-.823l.052-4.919-.876-.02h-.411v-.823a2.059 2.059 0 0 0-2.058-2.058zm0 .782c.704 0 1.276.572 1.276 1.276v.823H16.53v-.823c0-.704.572-1.276 1.276-1.276z"/></g></svg>