<svg xmlns="http://www.w3.org/2000/svg" width="24" height="24"><defs><clipPath id="a"><ellipse cx="7.991" cy="40.183" rx="7.548" ry="7.491" fill="#ccc" stroke-width=".379" stroke-linecap="round" stroke-linejoin="round"/></clipPath><clipPath id="b"><ellipse cx="23.621" cy="24.5" rx="21.007" ry="21.05" fill="#ccc" stroke-width=".297" stroke-linecap="round" stroke-linejoin="round"/></clipPath><clipPath id="c"><ellipse cx="23.621" cy="24.5" rx="21.007" ry="21.05" fill="#ccc" stroke-width=".297" stroke-linecap="round" stroke-linejoin="round"/></clipPath><clipPath id="d"><ellipse cx="23.621" cy="24.5" rx="21.007" ry="21.05" fill="#ccc" stroke-width=".297" stroke-linecap="round" stroke-linejoin="round"/></clipPath></defs><g fill="gray" fill-opacity=".302"><path transform="scale(.47636) rotate(-45 12.946 17.995)" clip-path="url(#a)" d="M2.123 33.967v11.91h11.91z"/><path transform="scale(.47636) rotate(-45 12.946 17.995)" clip-path="url(#b)" d="M2.123 26.695V19.12L28.88 45.877h-7.576z"/><path transform="matrix(.47636 0 0 .47636 .748 .842)" d="M-3.455 14.703l5.11 5.11h43.402l5.111-5.11H18.859z" clip-path="url(#c)"/><path transform="matrix(.47636 0 0 .47636 .748 .842)" d="M3.127 3.906l-5.523 5.522h51.644l-5.521-5.522H20.998z" clip-path="url(#d)"/></g></svg>