<svg xmlns="http://www.w3.org/2000/svg" width="24" height="24" version="1"><path d="M7.684 2.873c-.734 0-1.325.592-1.325 1.326 0 .734.59 1.326 1.325 1.326h3.06V10.3h2.752V5.525h2.812c.734 0 1.325-.592 1.325-1.326 0-.734-.591-1.326-1.325-1.326zm3.06 7.427H6.795c-.53 0-1.035.42-1.132.941l-1.649 8.91c-.096.522.254.943.785.943h4.813v.033h4.764v-.033h4.826c.53 0 .88-.42.784-.943l-1.649-8.91a1.192 1.192 0 0 0-1.132-.941h-3.663l-.007 3.887 2.671.002-4.178 3.428-4.005-3.415 2.723.01z" fill="gray"/></svg>