<svg xmlns="http://www.w3.org/2000/svg" width="48" height="48" viewBox="0 0 12.7 12.7"><path style="marker:none" d="M6.34.07A6.29 6.29 0 0 0 2.7 1.24 2.4 2.4 0 0 1 2.24.23C2.21.05 1.9.03 1.83.2a3.6 3.6 0 0 0-.12 1.9A6.29 6.29 0 0 0 .05 6.37a6.29 6.29 0 0 0 6.3 6.28 6.29 6.29 0 0 0 6.28-6.29 6.29 6.29 0 0 0-1.7-4.29c.11-.67 0-1.4-.2-1.87-.08-.18-.4-.14-.42.03a2.4 2.4 0 0 1-.37.98A6.29 6.29 0 0 0 6.34.07zM6.32 1l.01.01a5.4 5.4 0 0 1 2.97.9l-.15.1c-.78.47.46 2.01 1.19 1.31.08-.08.15-.17.22-.27a5.4 5.4 0 0 1 1.17 3.36 5.4 5.4 0 0 1-5.4 5.41 5.4 5.4 0 0 1-5.41-5.4A5.4 5.4 0 0 1 2.1 3.03l.26.3c.76.65 1.93-.95 1.13-1.38l-.12-.07A5.4 5.4 0 0 1 6.32 1zm2.02 2.54a.66 1.55 0 0 0-.65 1.55.66 1.55 0 0 0 .65 1.54A.66 1.55 0 0 0 9 5.1a.66 1.55 0 0 0-.66-1.55zm-3.98.03a.66 1.55 0 0 0-.66 1.55.66 1.55 0 0 0 .66 1.54A.66 1.55 0 0 0 5 5.12a.66 1.55 0 0 0-.65-1.55zm3.97.41a.2.3 0 0 1 .2.3.2.3 0 0 1-.2.3.2.3 0 0 1-.2-.3.2.3 0 0 1 .2-.3zm-3.99.03a.2.3 0 0 1 .2.3.2.3 0 0 1-.2.3.2.3 0 0 1-.2-.3.2.3 0 0 1 .2-.3zm5.2 3.37c-.02 0-.03 0-.05.02-2 1.94-4.09 2.2-6.29 0-.07-.08-.07.08-.07.19 0 .1 0 .1.07.19l.25.23c0 .19.06 1.59.38 1.72.18.08.42-.59.55-.98 1.3.82 2.61.8 3.92 0 .13.4.37 1.06.55.98.31-.13.37-1.49.38-1.7l.26-.25c.07-.08.05-.11.05-.22 0-.08.02-.17 0-.18zM5.56 10c-.06.13-.1.26 0 .39.59.25 1.1.19 1.6 0a.4.4 0 0 0 0-.4c-.5.2-1.02.27-1.6 0z" overflow="visible" fill="#e6e6e6"/></svg>