<svg xmlns="http://www.w3.org/2000/svg" width="48" height="48" viewBox="0 0 12.7 12.7"><path style="marker:none" d="M6.03 2.26a.32.32 0 0 0-.33.33v1.3c0 .18.15.32.33.32h.64c.18 0 .33-.14.33-.32V2.6a.32.32 0 0 0-.33-.33h-.64zm-2.5.55a.32.32 0 0 0-.13.05l-.56.32a.32.32 0 0 0-.12.44l.65 1.13c.1.15.29.2.44.12l.56-.33c.16-.09.21-.28.12-.44l-.65-1.13a.32.32 0 0 0-.32-.16zm5.65 0a.32.32 0 0 0-.32.16L8.2 4.1a.32.32 0 0 0 .12.44l.56.33c.15.09.35.03.44-.12l.65-1.13a.32.32 0 0 0-.12-.44l-.56-.32a.32.32 0 0 0-.12-.05zM1.23 4.54a.32.32 0 0 0-.22.12l-.41.5c-.12.13-.1.33.04.45l1 .83c.13.12.34.1.45-.04l.42-.5a.32.32 0 0 0-.04-.45l-1-.83a.32.32 0 0 0-.24-.08zm10.24 0a.32.32 0 0 0-.24.08l-1 .83a.32.32 0 0 0-.04.46l.42.5c.11.13.32.15.45.03l1-.83a.32.32 0 0 0 .04-.46l-.41-.5a.32.32 0 0 0-.22-.1zM3.62 5.66a.68.68 0 0 0-.68.68v3.41c0 .38.3.69.68.69h5.46a.68.68 0 0 0 .68-.69v-3.4a.68.68 0 0 0-.68-.7H3.62zm.34 1.02h.68v.68h-.68v-.68zm1.03 0h.68v.68h-.68v-.68zm1.02 0h.68v.68h-.68v-.68zm1.02 0h.68v.68h-.68v-.68zm1.03 0h.68v.68h-.68v-.68zm-4.1 1.03h.68v.68h-.68V7.7zM5 7.7h.68v.68h-.68V7.7zM6 7.7h.68v.68h-.68V7.7zm1.02 0h.68v.68h-.68V7.7zm1.03 0h.68v.68h-.68V7.7zM4.99 9.07h2.73v.68H4.99v-.68z" color="#bebebe" overflow="visible" fill="#5aa02c"/></svg>