<svg xmlns="http://www.w3.org/2000/svg" width="48" height="48" viewBox="0 0 12.7 12.7"><path d="M6.18 1.31c-.1 0-.17.08-.17.17v1c0 .1.08.17.17.17h.34c.1 0 .17-.07.17-.16V1.48c0-.1-.08-.17-.17-.17zm3.48 1.31a.16.16 0 0 0-.1.05l-.72.71a.17.17 0 0 0 0 .24l.24.24a.17.17 0 0 0 .24 0l.71-.72a.17.17 0 0 0 0-.23l-.24-.24a.17.17 0 0 0-.11-.05.16.16 0 0 0-.02 0zM6.35 4A2.35 2.35 0 0 0 4 6.35 2.35 2.35 0 0 0 6.35 8.7 2.35 2.35 0 0 0 8.7 6.35 2.35 2.35 0 0 0 6.35 4zM10.21 6c-.09 0-.16.08-.16.17v.34c0 .1.07.17.16.17h1.01c.1 0 .17-.08.17-.17v-.34c0-.1-.08-.17-.17-.17zM9.18 8.8a.17.17 0 0 0-.1.04l-.24.24a.17.17 0 0 0 0 .24l.72.71a.17.17 0 0 0 .23 0l.24-.24a.17.17 0 0 0 0-.23l-.71-.72a.17.17 0 0 0-.12-.04.17.17 0 0 0-.02 0zm-3 1.25c-.1 0-.17.07-.17.16v1.01c0 .1.08.17.17.17h.34c.1 0 .17-.08.17-.17v-1c0-.1-.08-.17-.17-.17z" fill="#fd5" fill-opacity=".3"/><path d="M3 2.62a.17.17 0 0 0-.1.05l-.23.24a.17.17 0 0 0 0 .23l.71.72a.17.17 0 0 0 .24 0l.24-.24a.17.17 0 0 0 0-.24l-.72-.71a.17.17 0 0 0-.12-.05.17.17 0 0 0-.01 0zm2.05 1.77A2.35 2.35 0 0 0 4 6.35a2.35 2.35 0 0 0 1.05 1.96zM1.48 6.01c-.1 0-.17.08-.17.17v.34c0 .1.08.17.17.17h1c.1 0 .17-.08.17-.17v-.34c0-.1-.07-.17-.16-.17zm2 2.79a.17.17 0 0 0-.1.04l-.71.72a.17.17 0 0 0 0 .23l.24.24a.17.17 0 0 0 .23 0l.72-.71a.17.17 0 0 0 0-.24l-.24-.24a.17.17 0 0 0-.12-.04.17.17 0 0 0-.02 0z" fill="#fd5"/></svg>