<?xml version="1.0" encoding="UTF-8" standalone="no"?>
<svg
   xmlns:dc="http://purl.org/dc/elements/1.1/"
   xmlns:cc="http://creativecommons.org/ns#"
   xmlns:rdf="http://www.w3.org/1999/02/22-rdf-syntax-ns#"
   xmlns:svg="http://www.w3.org/2000/svg"
   xmlns="http://www.w3.org/2000/svg"
   xmlns:sodipodi="http://sodipodi.sourceforge.net/DTD/sodipodi-0.dtd"
   xmlns:inkscape="http://www.inkscape.org/namespaces/inkscape"
   width="24"
   height="24"
   id="svg7"
   version="1.1"
   sodipodi:docname="tools-media-optical-copy.svg"
   inkscape:version="0.92.4 (5da689c313, 2019-01-14)">
  <metadata
     id="metadata8">
    <rdf:RDF>
      <cc:Work
         rdf:about="">
        <dc:format>image/svg+xml</dc:format>
        <dc:type
           rdf:resource="http://purl.org/dc/dcmitype/StillImage" />
        <dc:title></dc:title>
      </cc:Work>
    </rdf:RDF>
  </metadata>
  <sodipodi:namedview
     pagecolor="#ffffff"
     bordercolor="#666666"
     borderopacity="1"
     objecttolerance="10"
     gridtolerance="10"
     guidetolerance="10"
     inkscape:pageopacity="0"
     inkscape:pageshadow="2"
     inkscape:window-width="1078"
     inkscape:window-height="480"
     id="namedview6"
     showgrid="false"
     inkscape:zoom="9.8333333"
     inkscape:cx="-0.81355932"
     inkscape:cy="12"
     inkscape:window-x="0"
     inkscape:window-y="28"
     inkscape:window-maximized="0"
     inkscape:current-layer="svg7" />
  <defs
     id="defs3">
    <style
       id="current-color-scheme" />
  </defs>
  <path
     style="color:#bebebe;font-weight:400;font-family:sans-serif;font-variant-ligatures:normal;font-variant-position:normal;font-variant-caps:normal;font-variant-numeric:normal;font-variant-alternates:normal;font-feature-settings:normal;text-indent:0;text-decoration:none;text-decoration-line:none;text-decoration-style:solid;text-decoration-color:#000000;text-transform:none;text-orientation:mixed;white-space:normal;shape-padding:0;overflow:visible;isolation:auto;mix-blend-mode:normal;fill:#2ca02c;stroke-width:1.71000004"
     d="m 11.93,1.25 a 10.75,10.75 0 0 0 -10.68,10.7 10.75,10.75 0 0 0 12.63,10.51 6.28,6.28 0 0 1 -1.52,-1.54 6.2,6.2 0 0 1 -0.94,-4.48 4.48,4.48 0 0 1 -4.06,-4.48 4.54,4.54 0 0 1 4.59,-4.59 4.48,4.48 0 0 1 4.46,4.02 6.06,6.06 0 0 1 2.3,0.02 6.1,6.1 0 0 1 3.74,2.45 10.75,10.75 0 0 0 -10.5,-12.61 z m 0,7.64 a 3.06,3.06 0 0 0 -0.1,6.1 6.21,6.21 0 0 1 3.15,-3.15 3.06,3.06 0 0 0 -3.05,-2.95 z m 0,1.54 c 0.86,0 1.54,0.67 1.54,1.53 a 1.52,1.52 0 0 1 -1.54,1.54 1.52,1.52 0 0 1 -1.52,-1.54 c 0,-0.86 0.68,-1.54 1.54,-1.54 z m 5.53,1.78 a 5.3,5.3 0 0 0 -5.25,5.27 5.3,5.3 0 0 0 5.27,5.27 5.3,5.3 0 0 0 5.27,-5.27 5.3,5.3 0 0 0 -5.27,-5.27 z m 0,3.02 c 1.26,0 2.26,0.99 2.26,2.25 a 2.22,2.22 0 0 1 -2.26,2.26 2.22,2.22 0 0 1 -2.26,-2.26 c 0,-1.26 1,-2.25 2.26,-2.25 z m 0,0.75 c -0.82,0 -1.5,0.68 -1.5,1.5 0,0.83 0.68,1.51 1.5,1.51 a 1.505,1.505 0 0 0 0,-3.01 z m 0,0.75 c 0.43,0 0.75,0.34 0.75,0.75 a 0.75,0.75 0 0 1 -0.75,0.76 0.75,0.75 0 0 1 -0.75,-0.76 c 0,-0.42 0.34,-0.75 0.75,-0.75 z"
     font-weight="400"
     overflow="visible"
     id="path2"
     inkscape:connector-curvature="0" />
</svg>
