<svg xmlns="http://www.w3.org/2000/svg" width="48" height="48" viewBox="0 0 12.7 12.7"><path fill="#a02c2c" d="M6.344.073a6.29 6.29 0 0 0-6.289 6.29 6.29 6.29 0 0 0 6.29 6.288 6.29 6.29 0 0 0 6.288-6.289A6.29 6.29 0 0 0 6.344.072zm-.018.936a5.407 5.407 0 0 1 5.407 5.407 5.407 5.407 0 0 1-5.407 5.407A5.407 5.407 0 0 1 .92 6.416 5.407 5.407 0 0 1 6.326 1.01zm-.59.61l-.015.011-3.999 2.942-.552.405.406.552L4.314 9.25v.807h.002v.257h5.662v-.01h.003V4.408H7.788l-2.052-2.79zm-.146.957l1.348 1.832H4.314v3.686l-2.186-2.97 3.462-2.55zm-.592 2.517h4.3v3.943H5.006l-.009-.012V5.093z"/></svg>