<svg xmlns="http://www.w3.org/2000/svg" width="48" height="48" viewBox="0 0 12.7 12.7"><path fill="#a02c2c" d="M6.34.07a6.29 6.29 0 0 0-6.29 6.3 6.29 6.29 0 0 0 6.3 6.28 6.29 6.29 0 0 0 6.28-6.29A6.29 6.29 0 0 0 6.34.07zm-.01.94a5.4 5.4 0 0 1 5.4 5.4 5.4 5.4 0 0 1-5.4 5.41 5.4 5.4 0 0 1-5.41-5.4A5.4 5.4 0 0 1 6.32 1zm.06 1.19a.72.72 0 0 0-.75.6.93.93 0 0 0-.01.16c.17 1.67.37 3.32.51 5h.47c.12-1.61.31-3.2.45-4.81.07-.38-.12-.83-.52-.93a.65.65 0 0 0-.15-.02zm-.05 6.77a.69.69 0 0 0-.47.18.76.76 0 0 0-.3.59c0 .5.54.89 1 .73a.77.77 0 0 0 .46-1.09.78.78 0 0 0-.7-.41z"/></svg>