<?xml version="1.0" encoding="UTF-8" standalone="no"?><svg xmlns:dc="http://purl.org/dc/elements/1.1/" xmlns:cc="http://creativecommons.org/ns#" xmlns:rdf="http://www.w3.org/1999/02/22-rdf-syntax-ns#" xmlns="http://www.w3.org/2000/svg" width="48" height="48"><metadata><rdf:RDF><cc:Work><dc:format>image/svg+xml</dc:format><dc:type rdf:resource="http://purl.org/dc/dcmitype/StillImage"/><dc:title/></cc:Work></rdf:RDF></metadata><path style="line-height:normal;text-indent:0;text-align:start;text-decoration-line:none;text-transform:none;marker:none" d="M29.7-.08c-2.04 0-4.12.08-4.51.1H7a2.94 2.94 0 0 0-.56 0 3.1 3.1 0 0 0-2.44 3V45c0 1.57 1.43 3 3 3h34c1.57 0 3-1.43 3-3V18.82c.02-.8.22-9.93-.34-10.5L34.06.25c-.29-.28-2.3-.34-4.35-.33zM31.2 3l.13 7.5c.01.68.64 1.3 1.31 1.28l7.78-.13c.13.01.26.01.4-.01l.08 3.03.1 4.09V45H7V3.02h18.67l5.53-.01zM20.65 13.42l-1.23 2.99a7.58 7.58 0 0 0-1.54.17l-1.82-2.64a10.5 10.5 0 0 0-1.82.88l.77 3.1a7.65 7.65 0 0 0-1.13 1.03l-3.02-1.05a10.45 10.45 0 0 0-.99 1.78l2.44 2.04a7.3 7.3 0 0 0-.2.73 7.38 7.38 0 0 0-.1.75l-3.04.93c0 .69.07 1.36.21 2.02l3.2.22c.16.48.37.94.63 1.38l-1.92 2.55c.4.55.83 1.07 1.33 1.53l2.71-1.72c.42.3.87.55 1.35.76l-.03 3.22a10.77 10.77 0 0 0 1.94.4l1.24-2.98a7.9 7.9 0 0 0 1.53-.18l1.82 2.64a10.46 10.46 0 0 0 1.82-.88l-.76-3.1c.4-.3.78-.65 1.12-1.03l3.02 1.05a10.45 10.45 0 0 0 .98-1.75l.57 1.22a4.46 4.46 0 0 0-.52.72l-1.85-.25a6.1 6.1 0 0 0-.36 1.13l1.63.88a4.26 4.26 0 0 0-.03.44c0 .15.01.3.03.44l-1.63.88c.09.4.2.77.36 1.13l1.85-.25c.15.26.33.5.52.72l-.8 1.69c.3.26.6.5.94.71l1.35-1.3c.27.13.56.22.86.28l.36 1.85a6.28 6.28 0 0 0 1.16 0l.35-1.85c.3-.06.6-.16.86-.28l1.35 1.3c.34-.2.64-.45.94-.72l-.8-1.68a4.5 4.5 0 0 0 .52-.72l1.85.25a6.1 6.1 0 0 0 .36-1.13l-1.63-.88a3.94 3.94 0 0 0 0-.88l1.63-.89a6.1 6.1 0 0 0-.36-1.12l-1.85.24a4.46 4.46 0 0 0-.52-.71l.8-1.69a6.13 6.13 0 0 0-.94-.72l-1.36 1.3a4.43 4.43 0 0 0-.85-.27l-.35-1.85a6.28 6.28 0 0 0-.58-.03c-.2 0-.4.01-.58.03l-.36 1.85a4.42 4.42 0 0 0-.86.27l-1.35-1.3a6.13 6.13 0 0 0-.93.72l.19.4-2.39-2a6.71 6.71 0 0 0 .3-1.47l3.04-.93a10.45 10.45 0 0 0-.22-2.02l-3.19-.22a7.65 7.65 0 0 0-.63-1.38l1.92-2.56a10.55 10.55 0 0 0-1.34-1.52l-2.71 1.71a7.59 7.59 0 0 0-1.34-.75l.03-3.23a10.77 10.77 0 0 0-.97-.24c-.32-.07-.66-.1-.98-.16zm-1.35 6a4.54 4.54 0 0 1 .03 0 4.54 4.54 0 0 1 1.1.09 4.54 4.54 0 1 1-1.81 8.9 4.54 4.54 0 0 1 .68-8.98zm13.72 10.33a2.65 2.65 0 0 1 0 5.3 2.65 2.65 0 0 1 0-5.3z" fill="#e6e6e6"/></svg>