<?xml version="1.0" encoding="UTF-8" standalone="no"?><svg xmlns:dc="http://purl.org/dc/elements/1.1/" xmlns:cc="http://creativecommons.org/ns#" xmlns:rdf="http://www.w3.org/1999/02/22-rdf-syntax-ns#" xmlns="http://www.w3.org/2000/svg" width="48" height="48"><metadata><rdf:RDF><cc:Work><dc:format>image/svg+xml</dc:format><dc:type rdf:resource="http://purl.org/dc/dcmitype/StillImage"/><dc:title/></cc:Work></rdf:RDF></metadata><path style="line-height:normal;text-indent:0;text-align:start;text-decoration-line:none;text-transform:none;marker:none" d="M29.7-.08c-2.04 0-4.12.08-4.51.1H7a2.94 2.94 0 0 0-.56 0 3.1 3.1 0 0 0-2.44 3V45c0 1.57 1.43 3 3 3h34c1.57 0 3-1.43 3-3V18.82c.02-.8.22-9.93-.34-10.5L34.06.25c-.29-.28-2.3-.34-4.35-.33zM31.2 3l.13 7.5c.01.68.64 1.3 1.31 1.28l7.78-.13c.13.01.26.01.4-.01l.08 3.03.1 4.09V45H7V3.02h18.67zM15.52 19a3 3 0 0 0-3.02 3.02v15.96A3 3 0 0 0 15.52 41h16.96a3 3 0 0 0 3.02-3.02V22.02A3 3 0 0 0 32.48 19zm3.98.96h3.04v1.82h.01v6.8c0 .65.41 1.2.99 1.4v10.06h-5.08V29.92c.6-.2 1.04-.75 1.04-1.41v-7.06zm6.04 0h3v1.82h.01v6.8c0 .65.41 1.2.99 1.4v10.06H24.5V30c.6-.2 1.04-.75 1.04-1.41v-7.06zm-9.04 0v1.74h.02v6.8c0 .66.4 1.2.98 1.4v10.14h-.98a3 3 0 0 1-3.02-3.01V22.97a3 3 0 0 1 3-3.01zm15.04 0a3 3 0 0 1 2.96 3.01v14.06a3 3 0 0 1-3.02 3.01h-.98V30c.6-.2 1.04-.75 1.04-1.41v-7.06z" fill="#e6e6e6"/></svg>