<svg xmlns="http://www.w3.org/2000/svg" width="48" height="48"><defs><linearGradient id="a"><stop offset="0" stop-color="#dc85e9"/><stop offset="1" stop-color="#f2cbf8"/></linearGradient><linearGradient id="b"><stop offset="0" stop-color="#dc85e9"/><stop offset="1" stop-color="#f2cbf8"/></linearGradient><linearGradient id="c"><stop offset="0" stop-color="#fff" stop-opacity=".588"/><stop offset="1" stop-color="#fff" stop-opacity=".863"/></linearGradient><linearGradient id="d"><stop offset="0" stop-color="#b3b3b3"/><stop offset="1" stop-color="#e6e6e6"/></linearGradient><linearGradient id="e"><stop offset="0" stop-color="#e694bb"/><stop offset=".262" stop-color="#d3819a"/><stop offset=".705" stop-color="#b25a64"/><stop offset="1" stop-color="#98313d"/></linearGradient></defs><path style="line-height:normal;text-indent:0;text-align:start;text-decoration-line:none;text-transform:none;marker:none" d="M32.938-.012c-.999.32-1.335 1.84-.565 2.555l9.035 9.082c.835.796 2.497.115 2.541-1.041V1.502c0-.793-.717-1.514-1.506-1.514h-9.035a1.548 1.548 0 0 0-.47 0zm-26.5.026C5.062.276 3.974 1.612 4 3.012V45c0 1.57 1.43 3 3 3h34c1.57 0 3-1.43 3-3V18.818a3.038 3.038 0 0 0-.844-2.156L27.344.857a3.038 3.038 0 0 0-2.157-.843H7a2.938 2.938 0 0 0-.563 0zM7 3.02h18.672l.187.188 14.907 15 .234.234v26.555H7V3.021zm9.992 4.53v.017a7.5 7.5 0 0 0-6.984 6.983h-.016v1h.016a7.5 7.5 0 0 0 6.984 6.982v.018h1v-.018a7.496 7.496 0 0 0 6.98-6.982h.02v-1h-.02a7.496 7.496 0 0 0-6.98-6.983v-.017h-1zm0 1.064v2.936h-2.451c.537-1.557 1.423-2.662 2.451-2.936zm1 0c1.027.274 1.912 1.379 2.45 2.936h-2.45V8.615zm-3.305.57c-.482.643-.885 1.448-1.177 2.366h-1.498a6.54 6.54 0 0 1 2.675-2.365zm5.61 0a6.54 6.54 0 0 1 2.674 2.366h-1.496c-.293-.918-.693-1.723-1.178-2.365zm-8.807 3.366h1.758c-.134.632-.219 1.303-.246 2H11.01c.053-.704.22-1.377.48-2zm2.77 0h2.732v2h-2.99c.029-.704.117-1.377.258-2zm3.732 0h2.729c.142.623.23 1.296.261 2h-2.99v-2zm3.744 0h1.758c.26.623.426 1.296.479 2h-1.99a11.876 11.876 0 0 0-.247-2zm-10.726 3h1.992c.027.697.112 1.368.246 2H11.49a6.445 6.445 0 0 1-.48-2zm2.992 0h2.99v2H14.26a11.178 11.178 0 0 1-.258-2zm3.99 0h2.99c-.029.704-.12 1.377-.261 2h-2.729v-2zm3.99 0h1.989a6.413 6.413 0 0 1-.477 2h-1.758c.134-.632.22-1.303.246-2zm-9.97 3h1.498c.292.918.694 1.723 1.178 2.365a6.533 6.533 0 0 1-2.676-2.365zm2.529 0h2.451v2.935c-1.028-.275-1.914-1.378-2.451-2.935zm3.451 0h2.45c-.538 1.557-1.423 2.66-2.45 2.935v-2.935zm3.483 0h1.496a6.534 6.534 0 0 1-2.674 2.365c.483-.643.885-1.447 1.178-2.365zm-9.375 6.8c-1.196 0-2.159.06-2.159.131v1.57c0 .073.963.13 2.159.13h24.158c1.195 0 2.158-.057 2.158-.13v-1.57c0-.072-.963-.13-2.158-.13H12.1zm-.018 3.975c-1.195 0-2.158.059-2.158.131v1.568c0 .073.963.131 2.158.131h24.16c1.195 0 2.156-.058 2.156-.13v-1.569c0-.072-.96-.13-2.156-.13h-24.16zm.041 3.86c-1.195 0-2.156.058-2.156.13v1.57c0 .073.96.132 2.156.132h24.16c1.195 0 2.158-.059 2.158-.131v-1.57c0-.073-.963-.131-2.158-.131h-24.16z" color="#000" font-weight="400" font-family="Andale Mono" overflow="visible" fill="#e6e6e6"/></svg>