<?xml version="1.0" encoding="UTF-8" standalone="no"?><svg xmlns:dc="http://purl.org/dc/elements/1.1/" xmlns:cc="http://creativecommons.org/ns#" xmlns:rdf="http://www.w3.org/1999/02/22-rdf-syntax-ns#" xmlns="http://www.w3.org/2000/svg" width="48" height="48"><metadata><rdf:RDF><cc:Work><dc:format>image/svg+xml</dc:format><dc:type rdf:resource="http://purl.org/dc/dcmitype/StillImage"/><dc:title/></cc:Work></rdf:RDF></metadata><path style="line-height:normal;text-indent:0;text-align:start;text-decoration-line:none;text-transform:none;marker:none" d="M29.7-.08c-2.04 0-4.12.08-4.51.1H7a2.94 2.94 0 0 0-.56 0 3.1 3.1 0 0 0-2.44 3V45c0 1.57 1.43 3 3 3h34c1.57 0 3-1.43 3-3V18.82c.02-.8.22-9.93-.34-10.5L34.06.25c-.29-.28-2.3-.34-4.35-.33zM31.2 3l.13 7.5c.01.68.64 1.3 1.31 1.28l7.78-.13c.13.01.26.01.4-.01l.08 3.03.1 4.09V45H7V3.02h18.67l5.53-.01zm-17.24 9.08a3.07 3.27 0 0 0-2.62 1.55l-.07.13a3.07 3.27 0 0 0-.02.03c-.22.39-.36.83-.36 1.3v.1a3.07 3.27 0 0 0 0 .16 3.07 3.27 0 0 0 0 .23v14.94a2.58 2.58 0 1 0 5.17 0V20.28l2.78 3.1a2 2 0 0 0 .61.47 2.95 2.02 0 0 0 2.07.58 2.95 2.02 0 0 0 1.84-.44c.38-.12.72-.32.97-.6l2.56-2.86v14.45c0 .2.02.41.05.61H23.9l5.53 8.05 5.55-8.05H32c.03-.2.05-.4.05-.61V15.75l-.02-.28a2.92 3.27 0 0 0 0-.07 2.92 3.27 0 0 0-2.92-3.27 2.92 3.27 0 0 0-1.98.86c-.1.08-.21.17-.3.28l-5.26 5.87-5.25-5.87-.08-.08a3.07 3.27 0 0 0-2.3-1.1z" fill="#e6e6e6"/></svg>