<svg xmlns="http://www.w3.org/2000/svg" width="48" height="48"><defs><linearGradient id="a"><stop offset="0" stop-color="#dc85e9"/><stop offset="1" stop-color="#f2cbf8"/></linearGradient><linearGradient id="b"><stop offset="0" stop-color="#dc85e9"/><stop offset="1" stop-color="#f2cbf8"/></linearGradient><linearGradient id="c"><stop offset="0" stop-color="#fff" stop-opacity=".588"/><stop offset="1" stop-color="#fff" stop-opacity=".863"/></linearGradient><linearGradient id="d"><stop offset="0" stop-color="#b3b3b3"/><stop offset="1" stop-color="#e6e6e6"/></linearGradient><linearGradient id="e"><stop offset="0" stop-color="#e694bb"/><stop offset=".262" stop-color="#d3819a"/><stop offset=".705" stop-color="#b25a64"/><stop offset="1" stop-color="#98313d"/></linearGradient></defs><path style="line-height:normal;text-indent:0;text-align:start;text-decoration-line:none;text-transform:none;marker:none" d="M29.705-.084c-2.047.008-4.121.088-4.517.098H7a2.938 2.938 0 0 0-.563 0C5.063.276 3.975 1.612 4 3.012V45c0 1.57 1.43 3 3 3h34c1.57 0 3-1.43 3-3V18.818c.018-.792.215-9.927-.336-10.496L34.054.248c-.284-.275-2.302-.34-4.349-.332zm1.49 3.094l.133 7.504c.012.681.638 1.29 1.317 1.279l7.771-.137c.133.018.268.017.4-.006l.082 3.03L41 18.77v26.227H7V3.021h18.672l5.523-.011zM15.492 15.324a.427.427 0 0 0-.36.203l-3.43 5.524a.507.507 0 0 0-.01.506l12.01 20.256c.076.128.215.21.36.21a.424.424 0 0 0 .36-.21l12.01-20.256a.47.47 0 0 0 .007-.506l-3.43-5.524a.43.43 0 0 0-.36-.203H15.491zm.377.92h7.986v4.834h-6.373l-1.613-4.834zm8.416 0h7.986l-1.613 4.834h-6.373v-4.834zm-8.758.322l1.5 4.512h-4.304l2.804-4.512zm17.088 0l2.805 4.512h-4.307l1.502-4.512zm-19.91 4.973h4.469l5.73 17.197L12.705 21.54zm4.932 0h6.218v18.7l-6.218-18.7zm6.648 0h6.219l-6.219 18.7v-18.7zm6.674 0h4.469L25.236 38.736 30.96 21.54z" color="#000" font-weight="400" font-family="Andale Mono" overflow="visible" fill="#e6e6e6"/></svg>