<svg xmlns="http://www.w3.org/2000/svg" width="48" height="48" viewBox="0 0 12.7 12.7"><path fill="#a02c2c" d="M6.344.073a6.29 6.29 0 0 0-6.289 6.29 6.29 6.29 0 0 0 6.29 6.288 6.29 6.29 0 0 0 6.288-6.289A6.29 6.29 0 0 0 6.344.072zm-.018.936a5.407 5.407 0 0 1 5.407 5.407 5.407 5.407 0 0 1-5.407 5.407A5.407 5.407 0 0 1 .92 6.416 5.407 5.407 0 0 1 6.326 1.01zM5.203 3.067L2.76 3.07a.643.643 0 0 0-.644.644v1.074c0 .016.004.033.005.049v3.142h-.006v1.007c0 .219.125.382.29.499l4.483-4.483H3.354v.952c0 .182-.12.328-.269.328-.15 0-.27-.146-.27-.328V4.84c0-.016.006-.031.008-.047-.002-.013-.008-.024-.008-.037 0-.125.095-.223.216-.238.01-.001.019-.012.03-.012h7.523v-.722H5.922l-.72-.717zm5.382 1.934H8.39L3.76 9.63h2.22l4.604-4.606v-.023zm0 1.494L7.45 9.63h2.49a.643.643 0 0 0 .644-.645v-.862h.002v-1.63z"/></svg>