<svg xmlns="http://www.w3.org/2000/svg" width="48" height="48" viewBox="0 0 12.7 12.7"><path fill="#a02c2c" d="M6.344.073a6.29 6.29 0 0 0-6.289 6.29 6.29 6.29 0 0 0 6.29 6.288 6.29 6.29 0 0 0 6.288-6.289A6.29 6.29 0 0 0 6.344.072zm-.018.936a5.407 5.407 0 0 1 5.407 5.407 5.407 5.407 0 0 1-5.407 5.407A5.407 5.407 0 0 1 .92 6.416 5.407 5.407 0 0 1 6.326 1.01zm2.032 1.383a1.52 1.52 0 0 0-1.52 1.519 1.52 1.52 0 0 0 .014.187L4.347 5.35a1.52 1.52 0 0 0-1.053-.426 1.52 1.52 0 0 0-1.52 1.519 1.52 1.52 0 0 0 1.52 1.52 1.52 1.52 0 0 0 1.054-.427L6.852 8.79a1.52 1.52 0 0 0-.013.186 1.52 1.52 0 0 0 1.52 1.52 1.52 1.52 0 0 0 1.518-1.52 1.52 1.52 0 0 0-1.519-1.52 1.52 1.52 0 0 0-1.054.427L4.801 6.63a1.52 1.52 0 0 0 .012-.187 1.52 1.52 0 0 0-.013-.187l2.506-1.252a1.52 1.52 0 0 0 1.052.426 1.52 1.52 0 0 0 1.52-1.52 1.52 1.52 0 0 0-1.52-1.518z"/></svg>