<svg xmlns="http://www.w3.org/2000/svg" width="24" height="24" viewBox="0 0 6.35 6.35"><path d="M2.419.996a.697.697 0 1 0 .286 1.331l2.153 2.155h.175v-.524l-1.22-1.22.411-.41a.693.693 0 0 0 .983-.635.696.696 0 1 0-1.331.286l-.411.411-.412-.411a.696.696 0 0 0-.634-.983zm0 .348a.348.348 0 1 1 0 .696.348.348 0 0 1 0-.696zm2.091 0a.348.348 0 1 1 0 .696.348.348 0 0 1 0-.696zM1.1 2.366v2.793h2.793L2.73 3.996h-.014l-.365.365.238.24h-.931v-.932l.166.165.362-.364.002-.005.002-.01v-.007zm2.365.286c.048 0 .087.04.087.087a.087.087 0 0 1-.175 0c0-.048.04-.087.088-.087zm-.524.26L1.896 3.959v.523h.174l1.22-1.22z" fill="gray"/></svg>