<svg xmlns="http://www.w3.org/2000/svg" width="48" height="48" viewBox="0 0 12.7 12.7"><path d="M6.34.07a6.29 6.29 0 0 0-6.29 6.3 6.29 6.29 0 0 0 6.3 6.28 6.29 6.29 0 0 0 6.28-6.29A6.29 6.29 0 0 0 6.34.07zm-.01.94a5.4 5.4 0 0 1 5.4 5.4 5.4 5.4 0 0 1-5.4 5.41 5.4 5.4 0 0 1-5.41-5.4A5.4 5.4 0 0 1 6.32 1zM4.8 2.6c-.32 0-.57.1-.57.24v2.31h1.15V2.85c0-.13-.26-.24-.58-.24zm2.88 0c-.32 0-.58.1-.58.24v2.31h1.16V2.85c0-.13-.26-.24-.58-.24zM3.38 5.5A2.88 2.63 0 0 0 4.8 7.8a2.88 2.63 0 0 0 2.88.02 2.88 2.63 0 0 0 1.45-2.28L3.38 5.5zm2.26 2.94v2.31c0 .13.26.24.58.24.32 0 .58-.1.58-.24V8.44H5.64z" fill="#2ca02c"/></svg>
