<svg xmlns="http://www.w3.org/2000/svg" width="48" height="48" viewBox="0 0 12.7 12.7"><path d="M6.34.07a6.29 6.29 0 0 0-6.29 6.3 6.29 6.29 0 0 0 6.3 6.28 6.29 6.29 0 0 0 6.28-6.29A6.29 6.29 0 0 0 6.34.07zm-.01.94a5.4 5.4 0 0 1 5.4 5.4 5.4 5.4 0 0 1-5.4 5.41 5.4 5.4 0 0 1-5.41-5.4A5.4 5.4 0 0 1 6.32 1zM3.65 3.35c-.58 0-1.04.46-1.04 1.04v3.35c0 .4.21.73.53.9H2.2v.83h8.28v-.82h-.86a1.04 1.04 0 0 0 .53-.91V4.39c0-.58-.46-1.04-1.04-1.04H3.65zm.55.54h4.4a.88.88 0 0 1 .88.88v2.82a.88.88 0 0 1-.88.88H4.2a.88.88 0 0 1-.89-.88V4.77a.88.88 0 0 1 .88-.88zM5.7 8.56h1.3v.26h-1.3v-.26z" fill="#2ca02c"/></svg>
