<svg xmlns="http://www.w3.org/2000/svg" width="48" height="48" viewBox="0 0 12.7 12.7"><path d="M6.34.07a6.29 6.29 0 0 0-6.29 6.3 6.29 6.29 0 0 0 6.3 6.28 6.29 6.29 0 0 0 6.28-6.29A6.29 6.29 0 0 0 6.34.07zm-.01.94a5.4 5.4 0 0 1 5.4 5.4 5.4 5.4 0 0 1-5.4 5.41 5.4 5.4 0 0 1-5.41-5.4A5.4 5.4 0 0 1 6.32 1zM3.79 2.08a.83.83 0 1 0 0 1.66.83.83 0 0 0 0-1.66zm2.5 0a.83.83 0 1 0 0 1.66.83.83 0 0 0 0-1.66zm2.5 0a.83.83 0 1 0 0 1.66.83.83 0 0 0 0-1.66zm-5 2.5a.83.83 0 1 0 0 1.66.83.83 0 0 0 0-1.67zm2.5 0a.83.83 0 1 0 0 1.66.83.83 0 0 0 0-1.67zm2.5 0a.83.83 0 1 0 0 1.66.83.83 0 0 0 0-1.67zm-5 2.5a.83.83 0 1 0 0 1.66.83.83 0 0 0 0-1.67zm2.5 0a.83.83 0 1 0 0 1.66.83.83 0 0 0 0-1.67zm2.5 0a.83.83 0 1 0 0 1.66.83.83 0 0 0 0-1.67zm-2.5 2.49a.83.83 0 1 0 0 1.67.83.83 0 0 0 0-1.67z" fill="#2ca02c"/></svg>
