<svg xmlns="http://www.w3.org/2000/svg" width="24" height="24" version="1"><path d="M12 1.502C6.207 1.502 1.502 6.208 1.502 12c0 5.792 4.706 10.498 10.498 10.498 5.793 0 10.498-4.706 10.498-10.498 0-5.793-4.706-10.498-10.498-10.498z" fill="#502d16"/><path d="M12.122 4.644A7.39 7.39 0 0 0 5.25 9.322c-.058.139-.108.281-.157.424l-.03.089a7.272 7.272 0 0 0-.368 2.269c0 4.056 3.312 7.354 7.386 7.354a7.395 7.395 0 0 0 6.845-4.598l.002-.002c.078-.185.145-.377.209-.57.238-.721.372-1.49.372-2.29 0-4.055-3.314-7.354-7.387-7.354zm-.532 1.148v2.475c-.705-.025-1.38-.099-2.003-.216.094-.219.192-.429.3-.62.493-.885 1.088-1.437 1.703-1.639zm1.055.041c.056.01.112.016.167.026.556.242 1.09.767 1.539 1.571.105.188.201.395.293.608-.62.12-1.294.199-1.999.227V5.833zM9.34 6.34c-.132.184-.26.374-.375.58-.153.275-.29.572-.416.883a8.437 8.437 0 0 1-.862-.303A6.323 6.323 0 0 1 9.34 6.34zm5.673.158c.288.115.51.222.73.33.282.195.547.412.792.65a8.273 8.273 0 0 1-.853.306 7.974 7.974 0 0 0-.408-.864 6.493 6.493 0 0 0-.261-.422zm2.211 1.772a6.245 6.245 0 0 1 1.204 3.206H16.44a11.65 11.65 0 0 0-.417-2.695 9.13 9.13 0 0 0 1.179-.444c.01-.023.015-.045.021-.067zM6.97 8.34a9.24 9.24 0 0 0 1.24.46 11.66 11.66 0 0 0-.413 2.676H5.817A6.245 6.245 0 0 1 6.97 8.34zm8.03.7c.21.736.345 1.56.385 2.436h-2.739v-2.16a14.24 14.24 0 0 0 2.353-.275zm-5.766.016a14.31 14.31 0 0 0 2.357.262v2.158H8.852c.04-.87.174-1.688.381-2.42zm-3.416 3.47h1.979c.04.98.189 1.906.43 2.745a9.34 9.34 0 0 0-1.212.447 6.246 6.246 0 0 1-1.197-3.192zm3.035 0h2.738v2.233a14.32 14.32 0 0 0-2.338.257c-.219-.75-.36-1.592-.4-2.49zm3.793 0h2.739c-.041.904-.183 1.752-.404 2.505-.727-.149-1.513-.24-2.335-.27v-2.235zm3.795 0h1.986a6.246 6.246 0 0 1-1.22 3.223c-.003-.003-.003-.007-.005-.01-.367-.17-.769-.32-1.197-.45.245-.843.396-1.776.436-2.763zm-4.85 3.283v2.4c-.615-.202-1.211-.752-1.704-1.636a6.596 6.596 0 0 1-.27-.553c.615-.114 1.28-.187 1.974-.211zm1.055.002c.694.028 1.358.103 1.971.22-.084.19-.172.373-.266.542-.493.885-1.09 1.434-1.705 1.636v-2.398zm-4.07.454c.119.287.246.563.388.818.112.2.235.388.363.567a6.32 6.32 0 0 1-1.577-1.096c.258-.104.53-.203.826-.289zm7.079.019c.293.087.562.186.817.291a6.318 6.318 0 0 1-1.563 1.08 6.245 6.245 0 0 0 .746-1.371z" fill="#fff" fill-rule="evenodd"/></svg>