<svg xmlns="http://www.w3.org/2000/svg" width="24" height="24" version="1"><path d="M12 1.502C6.207 1.502 1.502 6.208 1.502 12c0 5.792 4.706 10.498 10.498 10.498 5.793 0 10.498-4.706 10.498-10.498 0-5.793-4.706-10.498-10.498-10.498z" fill="#373748"/><path d="M15.597 5.488a2.456 2.456 0 0 0-2.011 1.225 2.456 2.456 0 0 0-.237 1.884l-3.251 1.878a2.456 2.456 0 0 0-1.753-.736 2.456 2.456 0 0 0-2.456 2.456 2.456 2.456 0 0 0 2.456 2.456 2.456 2.456 0 0 0 1.751-.736l3.251 1.878a2.456 2.456 0 0 0 .238 1.883 2.456 2.456 0 0 0 3.356.9 2.456 2.456 0 0 0 .9-3.356 2.456 2.456 0 0 0-3.356-.898 2.456 2.456 0 0 0-.525.407l-3.251-1.877a2.456 2.456 0 0 0 .092-.657 2.456 2.456 0 0 0-.09-.657l3.251-1.877a2.456 2.456 0 0 0 .523.406 2.456 2.456 0 0 0 3.355-.898 2.456 2.456 0 0 0-.9-3.355 2.456 2.456 0 0 0-1.343-.326z" fill="#fff"/></svg>