<svg xmlns="http://www.w3.org/2000/svg" width="48" height="48"><defs><linearGradient id="a"><stop offset="0" stop-color="#dc85e9"/><stop offset="1" stop-color="#f2cbf8"/></linearGradient><linearGradient id="b"><stop offset="0" stop-color="#dc85e9"/><stop offset="1" stop-color="#f2cbf8"/></linearGradient><linearGradient id="c"><stop offset="0" stop-color="#fff" stop-opacity=".588"/><stop offset="1" stop-color="#fff" stop-opacity=".863"/></linearGradient><linearGradient id="d"><stop offset="0" stop-color="#b3b3b3"/><stop offset="1" stop-color="#e6e6e6"/></linearGradient><linearGradient id="e"><stop offset="0" stop-color="#e694bb"/><stop offset=".262" stop-color="#d3819a"/><stop offset=".705" stop-color="#b25a64"/><stop offset="1" stop-color="#98313d"/></linearGradient></defs><path style="line-height:normal;text-indent:0;text-align:start;text-decoration-line:none;text-transform:none;marker:none" d="M29.705-.084c-2.047.008-4.121.088-4.517.098H7a2.938 2.938 0 0 0-.563 0C5.063.276 3.975 1.612 4 3.012V45c0 1.57 1.43 3 3 3h34c1.57 0 3-1.43 3-3V18.818c.018-.792.215-9.927-.336-10.496L34.054.248c-.284-.275-2.302-.34-4.349-.332zm1.49 3.094l.133 7.504c.012.681.638 1.29 1.317 1.279l7.771-.137c.133.018.268.017.4-.006l.082 3.03L41 18.77v26.227H7V3.021h18.672l5.523-.011zm-2.777 2.845c-4.127.659-8.873 1.337-12.988 2.032-1.09.526-.845 1.882-.893 2.865v13.16c-2.8-.641-5.874 1.452-5.996 4.426-.198 1.851 1.46 3.462 3.264 3.506 3.23.077 5.685-2.043 5.72-4.725-.035-4.504.01-9.01 0-13.515.5-.037 8.32-1.468 9-1.563v10.123c-2.583-.761-5.166.83-5.802 3.496-.471 1.545.239 3.37 1.771 4.002 2.991 1.36 7.198-1.395 7.031-4.629-.046-6.006.038-12.014 0-18.021-.078-.565-.465-1.197-1.107-1.157zM13.475 34.594c-1.769-.058-3.288 1.751-2.87 3.484.307 1.698 2.29 2.774 3.887 2.14 1.477-.482 2.352-2.25 1.768-3.706-.395-1.154-1.573-1.942-2.785-1.918zm5.97.006c-.998.096-1.96.737-2.287 1.714-.61 1.515.12 3.597 1.809 3.993.901.248 1.954.003 2.525-.774.068.94-.638 1.932-1.664 1.768-.714.14-1.05-.717-1.713-.588h-1.074c.667 1.766 3.1 2.246 4.596 1.277 1.1-.693 1.157-2.095 1.125-3.261v-4.006h-1.27c-.004.423.096.99-.344.334-.492-.38-1.104-.515-1.703-.457zm6.602 0c-.998.096-1.961.737-2.287 1.714-.611 1.515.12 3.597 1.808 3.993.902.248 1.954.003 2.526-.774.067.94-.639 1.932-1.664 1.768-.715.14-1.05-.717-1.713-.588h-1.074c.667 1.766 3.1 2.246 4.595 1.277 1.101-.693 1.157-2.095 1.125-3.261v-4.006h-1.27c-.003.423.097.99-.343.334-.493-.38-1.104-.515-1.703-.457zm-6.215 1.212v.002c1.145-.072 1.864 1.21 1.535 2.223-.254 1.344-2.372 1.55-2.904.309-.47-.961 0-2.458 1.2-2.524l.169-.01zm6.602 0v.002c1.144-.072 1.864 1.21 1.535 2.223-.254 1.344-2.372 1.55-2.905.309-.47-.961 0-2.458 1.2-2.524l.17-.01zm-12.948.002c1.28-.038 2.063 1.604 1.336 2.62-.554.974-2.113.972-2.664-.004-.708-1.04.03-2.628 1.328-2.616z" color="#000" font-weight="400" font-family="Andale Mono" overflow="visible" fill="#963996"/></svg>
