<svg xmlns="http://www.w3.org/2000/svg" width="48" height="48"><defs><linearGradient id="a"><stop offset="0" stop-color="#dc85e9"/><stop offset="1" stop-color="#f2cbf8"/></linearGradient><linearGradient id="b"><stop offset="0" stop-color="#dc85e9"/><stop offset="1" stop-color="#f2cbf8"/></linearGradient><linearGradient id="c"><stop offset="0" stop-color="#fff" stop-opacity=".588"/><stop offset="1" stop-color="#fff" stop-opacity=".863"/></linearGradient><linearGradient id="d"><stop offset="0" stop-color="#b3b3b3"/><stop offset="1" stop-color="#e6e6e6"/></linearGradient><linearGradient id="e"><stop offset="0" stop-color="#e694bb"/><stop offset=".262" stop-color="#d3819a"/><stop offset=".705" stop-color="#b25a64"/><stop offset="1" stop-color="#98313d"/></linearGradient></defs><path style="line-height:normal;text-indent:0;text-align:start;text-decoration-line:none;text-transform:none;marker:none" d="M29.705-.084c-2.047.008-4.121.088-4.517.098H7a2.938 2.938 0 0 0-.563 0C5.063.276 3.975 1.612 4 3.012V45c0 1.57 1.43 3 3 3h34c1.57 0 3-1.43 3-3V18.818c.018-.792.215-9.927-.336-10.496L34.054.248c-.284-.275-2.302-.34-4.349-.332zm1.49 3.094l.133 7.504c.012.681.638 1.29 1.317 1.279l7.771-.137c.133.018.268.017.4-.006l.082 3.03L41 18.77v26.227H7V3.021h18.672l5.523-.011zM27.72 14.813c-3.085 0-5.584 2.37-5.584 5.292.024 1.082.114 2.367.744 5.293.178.543 1.035 1.516 1.879 2.426-.021.205-.031.4-.069.617-.411.342-.965.645-1.562.928-.949-.385-1.858-.794-2.424-1.287l-.01-.572c.415-.542.81-1.085.909-1.405.447-2.055.448-2.81.472-3.578 0-1.976-1.58-3.578-3.53-3.578-1.948 0-3.528 1.602-3.528 3.578.015.732.075 1.6.472 3.578.091.296.478.787.897 1.288l-.018.689c-1.723 1.43-6.41 2.073-6.404 3.555L9.37 36.08c0 1.27 3.057 2.326 7.143 2.596.66 1.63 5.42 2.894 11.205 2.894 6.236 0 11.29-1.469 11.29-3.28l-.726-5.47c-.008-1.56-5.464-2.555-7.558-4.379-.018-.144-.02-.286-.032-.43.808-.963 1.677-2.031 1.868-2.613.708-3.04.706-4.158.744-5.293 0-2.923-2.501-5.293-5.586-5.293z" color="#000" font-weight="400" font-family="Andale Mono" overflow="visible" fill="#963996"/></svg>
