<svg xmlns="http://www.w3.org/2000/svg" width="48" height="48"><defs><linearGradient id="a"><stop offset="0" stop-color="#dc85e9"/><stop offset="1" stop-color="#f2cbf8"/></linearGradient><linearGradient id="b"><stop offset="0" stop-color="#dc85e9"/><stop offset="1" stop-color="#f2cbf8"/></linearGradient><linearGradient id="c"><stop offset="0" stop-color="#fff" stop-opacity=".588"/><stop offset="1" stop-color="#fff" stop-opacity=".863"/></linearGradient><linearGradient id="d"><stop offset="0" stop-color="#b3b3b3"/><stop offset="1" stop-color="#e6e6e6"/></linearGradient><linearGradient id="e"><stop offset="0" stop-color="#e694bb"/><stop offset=".262" stop-color="#d3819a"/><stop offset=".705" stop-color="#b25a64"/><stop offset="1" stop-color="#98313d"/></linearGradient></defs><path style="line-height:normal;text-indent:0;text-align:start;text-decoration-line:none;text-transform:none;marker:none" d="M29.705-.084c-2.047.008-4.121.088-4.517.098H7a2.938 2.938 0 0 0-.563 0C5.063.276 3.975 1.612 4 3.012V45c0 1.57 1.43 3 3 3h34c1.57 0 3-1.43 3-3V18.818c.018-.792.215-9.927-.336-10.496L34.054.248c-.284-.275-2.302-.34-4.349-.332zm1.49 3.094l.133 7.504c.012.681.638 1.29 1.317 1.279l7.771-.137c.133.018.268.017.4-.006l.082 3.03L41 18.77v26.227H7V3.021h18.672l5.523-.011zm2.692 11.758c-2.404-.128-3.661 3.748-1.377 4.808 1.853.76 3.872-1.142 3.42-3.04-.14-.99-1.03-1.802-2.043-1.768zm-1.032 8.53c-.387-.031-.838.105-1.33.475-2.356 1.027-4.325 2.703-6.382 4.206.258.701.549 1.27 1.168.492.767-.457 3.339-2.459 3.082-.498-.824 3.627-1.826 7.217-2.592 10.855-.801 1.992 1.018 3.794 2.918 2.498 2.019-.832 3.756-2.188 5.531-3.431-.242-.594-.403-1.447-1.072-.67-.879.398-2.798 2.279-3.155.728.738-3.928 2.105-7.71 2.979-11.605.603-1.344.015-2.954-1.147-3.05z" color="#000" font-weight="400" font-family="Andale Mono" overflow="visible" fill="#963996"/></svg>
