<svg xmlns="http://www.w3.org/2000/svg" width="48" height="48"><path style="line-height:normal;text-indent:0;text-align:start;text-decoration-line:none;text-transform:none;marker:none" d="M29.7-.08c-2.04 0-4.12.08-4.51.1H7a2.94 2.94 0 0 0-.56 0 3.1 3.1 0 0 0-2.44 3V45c0 1.57 1.43 3 3 3h34c1.57 0 3-1.43 3-3V18.82c.02-.8.22-9.93-.34-10.5L34.06.25c-.29-.28-2.3-.34-4.35-.33zM31.2 3l.13 7.5c.01.68.64 1.3 1.31 1.28l7.78-.13c.13.01.26.01.4-.01l.08 3.03.1 4.09V45H7V3.02h18.67l5.53-.01zM11.42 16.82a.6.6 0 0 0-.6.6V33.6a2.4 2.4 0 0 0 2.4 2.4h6.96l-2.14 6.4a.6.6 0 0 0 .57.79.6.6 0 0 0 .57-.41L21.44 36h1.96v6.59c0 .33.27.6.6.6a.6.6 0 0 0 .6-.6V36h1.96l2.26 6.78a.6.6 0 0 0 1.14-.38L27.83 36h6.95a2.4 2.4 0 0 0 2.4-2.4V17.42a.6.6 0 0 0-.6-.6H11.42zm1.8 2.4h21.56V33.6H13.22V19.22zm5.32 1.69a3.64 3.64 0 1 0 3.64 3.63h-3.64v-3.63zm6.37 0v1.81h8.18v-1.81h-8.18zm0 4.54v1.82h8.18v-1.82h-8.18zM14.9 30v1.81h18.18V30H14.91z" fill="#963996"/></svg>
