<svg xmlns="http://www.w3.org/2000/svg" width="48" height="48" viewBox="0 0 12.7 12.7"><path d="M6.34.07a6.29 6.29 0 0 0-6.29 6.3 6.29 6.29 0 0 0 6.3 6.28 6.29 6.29 0 0 0 6.28-6.29A6.29 6.29 0 0 0 6.34.07zM6.32 1l.01.01a5.4 5.4 0 0 1 5.4 5.4 5.4 5.4 0 0 1-5.4 5.41 5.4 5.4 0 0 1-5.41-5.4A5.4 5.4 0 0 1 6.32 1zm1.95 1.91a.66 1.55 0 0 0-.65 1.55.66 1.55 0 0 0 .65 1.55.66 1.55 0 0 0 .66-1.55.66 1.55 0 0 0-.66-1.55zm-.01.45a.2.3 0 0 1 .2.3.2.3 0 0 1-.2.3.2.3 0 0 1-.2-.3.2.3 0 0 1 .2-.3zm-3.4.77c-.3-.01-.61.05-.95.22-.12.06-.25.1-.25.25 0 .14.14.33.25.25.58-.44 1.19-.32 1.8 0 .12.06.25-.11.25-.25s-.13-.2-.26-.25c-.27-.12-.55-.2-.84-.22zM3.2 6.03l-.1.33c1.93 3 4.2 3 6.75 1.93l.09-.32c-2.6.97-4.94.79-6.74-1.94zm2.24 2.99l-.06.33c.69.42 1.39.47 2.1.37l.05-.33c-.7.08-1.41.1-2.1-.37z" fill="#2c89a0"/></svg>