<svg xmlns="http://www.w3.org/2000/svg" width="48" height="48" viewBox="0 0 12.7 12.7"><path d="M6.34.07a6.29 6.29 0 0 0-6.29 6.3 6.29 6.29 0 0 0 6.3 6.28 6.29 6.29 0 0 0 6.28-6.29A6.29 6.29 0 0 0 6.34.07zm0 2.46a5.15 2.58 0 0 1 5.15 2.58A5.15 2.58 0 0 1 6.34 7.7a5.15 2.58 0 0 1-5.16-2.6 5.15 2.58 0 0 1 5.16-2.58zm2 1.01a.66 1.55 0 0 0-.65 1.55.66 1.55 0 0 0 .65 1.54A.66 1.55 0 0 0 9 5.1a.66 1.55 0 0 0-.66-1.55v-.01zm-3.99.03a.66 1.55 0 0 1 .01 0h-.01zm0 0a.66 1.55 0 0 0-.65 1.55.66 1.55 0 0 0 .66 1.54A.66 1.55 0 0 0 5 5.12a.66 1.55 0 0 0-.64-1.55zm3.98.41a.2.3 0 0 1 .2.3.2.3 0 0 1-.2.3.2.3 0 0 1-.2-.3.2.3 0 0 1 .2-.3zm-3.99.03a.2.3 0 0 1 .2.3.2.3 0 0 1-.2.3.2.3 0 0 1-.2-.3.2.3 0 0 1 .2-.3z" fill="#2c89a0"/></svg>