<svg xmlns="http://www.w3.org/2000/svg" width="48" height="48" viewBox="0 0 12.7 12.7"><path fill="#a40" d="M6.35 1.85c-.84 0-1.4.56-1.4.56s.33 1.14.56 1.7c.24.57.84 1.68.84 1.68s.6-1.1.84-1.69c.23-.55.57-1.69.57-1.69s-.57-.56-1.41-.56m-1.79.72s-.8 0-1.4.6c-.59.6-.59 1.4-.59 1.4s1.05.56 1.6.79c.57.24 1.78.6 1.78.6s-.35-1.22-.6-1.8c-.22-.54-.79-1.59-.79-1.59m3.58 0s-.57 1.05-.8 1.6c-.24.57-.6 1.78-.6 1.78s1.22-.35 1.8-.6c.54-.22 1.59-.79 1.59-.79s0-.8-.6-1.4c-.6-.59-1.4-.59-1.4-.59M2.42 4.94s-.56.57-.56 1.41.56 1.4.56 1.4 1.14-.33 1.7-.56c.57-.24 1.68-.84 1.68-.84s-1.1-.6-1.69-.84c-.55-.23-1.69-.57-1.69-.57m7.87 0s-1.13.34-1.68.57c-.58.24-1.69.84-1.69.84s1.1.6 1.69.84c.55.23 1.69.57 1.69.57s.56-.57.56-1.41-.57-1.4-.57-1.4m-4.33 1.8s-1.2.35-1.79.6c-.54.22-1.59.79-1.59.79s0 .8.6 1.4c.6.59 1.4.59 1.4.59s.56-1.05.79-1.6c.24-.58.6-1.78.6-1.78m.79 0s.35 1.2.6 1.79c.22.54.79 1.59.79 1.59s.8 0 1.4-.6c.59-.6.59-1.4.59-1.4s-1.05-.56-1.6-.79c-.57-.24-1.78-.6-1.78-.6m-.4.17s-.6 1.1-.84 1.69c-.23.55-.57 1.69-.57 1.69s.57.56 1.41.56 1.4-.56 1.4-.56-.33-1.14-.56-1.69c-.24-.58-.84-1.69-.84-1.69" opacity=".75"/><path fill="#2ca02c" d="M6.35.06A6.29 6.29 0 0 0 .06 6.35a6.29 6.29 0 0 0 6.29 6.29 6.29 6.29 0 0 0 6.29-6.29A6.29 6.29 0 0 0 6.35.06zM6.33 1a5.4 5.4 0 0 1 5.4 5.4 5.4 5.4 0 0 1-5.4 5.41 5.4 5.4 0 0 1-5.4-5.4A5.4 5.4 0 0 1 6.33 1z"/></svg>
