<svg xmlns="http://www.w3.org/2000/svg" width="48" height="48" viewBox="0 0 12.7 12.7"><path fill="#2ca02c" d="M6.34.07a6.29 6.29 0 0 0-6.29 6.3 6.29 6.29 0 0 0 6.3 6.28 6.29 6.29 0 0 0 6.28-6.29A6.29 6.29 0 0 0 6.34.07zm-.01.94a5.4 5.4 0 0 1 4.3 2.14c-.87.92-3.1 2.58-3.78 2.58-.08 0-.1-.62-.18-1.57-.07-.98-.04-1.78-.16-1.73-.01 0-.28.74-.68 1.46-.96 1.74-1.57 2.5-2.55 3.16-.43.28-1.1.64-1.24.83-.14.19-.06.07.51-.09 1.42-.4 1.31-.73.24.55-1.46 1.75-.72 1.2.8-.22a7.26 7.26 0 0 1 1.67-1.19c.2-.08.34-.14.6-.16.32-.02.5.01.62.36.1.3.32.83.68 1.25.14.17.27.25.4.33.12.07.24.15.4.19.34.07.57.03.8.02a4.4 4.4 0 0 0 1.94-.96c.7-.55.94-.82 1.02-1.3a5.4 5.4 0 0 1-5.4 5.16 5.4 5.4 0 0 1-5.4-5.4A5.4 5.4 0 0 1 6.32 1zm4.87 3.08a5.4 5.4 0 0 1 .38 1.1l-.28.42c-.96 1.43-2.11 2.38-2.89 2.38-1.71 0-1.94-1.32-.31-2a11.92 11.92 0 0 0 3.1-1.9zm-5.04.35l.07.75a.95.95 0 0 1-.6.91c-.3.13-.6.34-.56 0 .01-.17.28-.46.6-.92l.5-.74z"/></svg>
