<svg xmlns="http://www.w3.org/2000/svg" width="48" height="48" viewBox="0 0 12.7 12.7"><path fill="#2ca02c" d="M6.34.07a6.29 6.29 0 0 0-6.29 6.3 6.29 6.29 0 0 0 6.3 6.28 6.29 6.29 0 0 0 6.28-6.29A6.29 6.29 0 0 0 6.34.07zm-.01.94a5.4 5.4 0 0 1 5.4 5.4 5.4 5.4 0 0 1-5.4 5.41 5.4 5.4 0 0 1-5.41-5.4A5.4 5.4 0 0 1 6.32 1zm.34 2h-.34c-.7.03-1.96 0-2.45.58-.3.35-.15 1.17.3 1.25.57.1 1.53-.15 2.15-.09.43.05.55.39.2.63-.37.25-1.2.18-1.63.3-1.47.44-2 1.38-1.64 2.65A2.14 2.14 0 0 0 5.23 9.8c1.74 0 1.42-.88 2.26-.43.28.32.83.43 1.12.2.47-.36 1.17-.56.68-1.3-.24-.35.31-.8.19-2.57-.11-1.57-1.11-2.64-2.8-2.7zm-.22 3.78c.39 0 .7.27.7.61 0 .34-.31.62-.7.62-.4 0-.72-.28-.72-.62 0-.34.33-.62.72-.62z"/></svg>
