<svg xmlns="http://www.w3.org/2000/svg" width="48" height="48" viewBox="0 0 12.7 12.7"><path d="M6.34.07a6.29 6.29 0 0 0-6.29 6.3 6.29 6.29 0 0 0 6.3 6.28 6.29 6.29 0 0 0 6.28-6.29A6.29 6.29 0 0 0 6.34.07zm-.01.94a5.4 5.4 0 0 1 5.4 5.4 5.4 5.4 0 0 1-5.4 5.41 5.4 5.4 0 0 1-5.41-5.4A5.4 5.4 0 0 1 6.32 1zm-1.28.89v1.48H3.2v.74h.62c.35 0 .45.25.49.41V8.2c-.01.1 0 .37-.24.38H3.2v.74h1.85v1.48l.74-.01V9.32h.73l.03 1.48h.74l-.02-1.48C9.5 9.32 9.5 8.2 9.5 7.65c0-.56-.23-1.3-1.11-1.3.5 0 .74-.84.74-1.48 0-.84-.74-1.49-1.85-1.49V1.9h-.74v1.48h-.75V1.9h-.74zm.74 2.22c.75 0 1.86 0 1.86.93s-1.11.93-1.86.93V4.12zm0 2.6c1.49 0 2.23 0 2.23.93s-.74.93-2.23.93V6.72z" fill="#2ca02c"/></svg>
