<svg xmlns="http://www.w3.org/2000/svg" width="48" height="48" viewBox="0 0 12.7 12.7"><g fill="#2ca02c"><path d="M6.34.07a6.29 6.29 0 0 0-6.29 6.3 6.29 6.29 0 0 0 6.3 6.28 6.29 6.29 0 0 0 6.28-6.29A6.29 6.29 0 0 0 6.34.07zm-.01.94a5.4 5.4 0 0 1 5.4 5.4 5.4 5.4 0 0 1-5.4 5.41 5.4 5.4 0 0 1-5.41-5.4A5.4 5.4 0 0 1 6.32 1z"/><path d="M5.15 3.8c-1.95.03-3.3 1.11-3.3 2.51 0 1.4 1.54 2.58 3.33 2.6A5.27 5.27 0 0 0 9.1 6.84c.27.44.8 1 1.74 1 0 0-.44-.8-.44-1.52s.43-1.48.43-1.48c-.95 0-1.48.58-1.75 1.02A5.72 5.72 0 0 0 5.15 3.8zm-1.7.91a.68.86 0 0 1 .66.86.68.86 0 1 1-1.37 0 .68.86 0 0 1 .7-.86zm-.02.59a.23.28 0 0 0-.08 0 .11.14 0 0 1 .13.15.11.14 0 0 1-.22 0 .11.14 0 0 1 .02-.1.23.28 0 0 0-.08.22.23.28 0 0 0 .46 0 .23.28 0 0 0-.23-.28zm-.08.01a.11.14 0 0 0-.06.04.23.28 0 0 1 .06-.04z"/></g></svg>
