<svg xmlns="http://www.w3.org/2000/svg" width="48" height="48" viewBox="0 0 12.7 12.7"><path d="M6.34.07a6.29 6.29 0 0 0-6.29 6.3 6.29 6.29 0 0 0 6.3 6.28 6.29 6.29 0 0 0 6.28-6.29A6.29 6.29 0 0 0 6.34.07zm-.01.94a5.4 5.4 0 0 1 5.4 5.4 5.4 5.4 0 0 1-5.4 5.41 5.4 5.4 0 0 1-5.41-5.4A5.4 5.4 0 0 1 6.32 1zm.02.98a3 3 0 0 0-3 3c0 1.19.6 1.89 1.2 2.44s.3 1.45.6 1.75l.3.3v.24l-.15.04a.15.15 0 0 0 .08.29l.07-.02v.29l-.15.04a.15.15 0 1 0 .07.29l.27-.07.11.1v.3h1.2v-.3l.3-.3v-.23l.15-.04a.15.15 0 1 0-.08-.3l-.07.03v-.3l.15-.03c.08-.03.13-.1.1-.19a.15.15 0 0 0-.03-.06l.08-.08c.3-.3 0-1.2.6-1.75.6-.56 1.2-1.26 1.2-2.45a3 3 0 0 0-3-3zm.01.4c1.44 0 2.6 1.2 2.6 2.66 0 1.06-.52 1.68-1.04 2.17-.52.5-.26 1.29-.52 1.56H5.33c-.26-.27 0-1.07-.52-1.56a2.82 2.82 0 0 1-1.04-2.17 2.63 2.63 0 0 1 2.6-2.66zm.29.8l-1.5 2.4h.9v1.8l1.5-2.4h-.9v-1.8z" fill="#2ca02c"/></svg>
