<svg xmlns="http://www.w3.org/2000/svg" width="48" height="48" viewBox="0 0 12.7 12.7"><path d="M6.34.07a6.29 6.29 0 0 0-6.29 6.3 6.29 6.29 0 0 0 6.3 6.28 6.29 6.29 0 0 0 6.28-6.29A6.29 6.29 0 0 0 6.34.07zm-.01.94a5.4 5.4 0 0 1 5.4 5.4 5.4 5.4 0 0 1-5.4 5.41 5.4 5.4 0 0 1-5.41-5.4A5.4 5.4 0 0 1 6.32 1z" fill="#2ca02c"/><path d="M10.72 9.34H1.98l2.8-2.1z" opacity=".75" fill="#2ca02c"/><path d="M1.98 9.34l4.4-8.1.3 4.07z" opacity=".75" fill="#06f"/><path d="M6.39 1.25l4.33 8.09-3.55-1.5z" opacity=".75" fill="#d40000"/></svg>
