<svg xmlns="http://www.w3.org/2000/svg" width="48" height="48" version="1"><path d="M24 .23A23.77 23.77 0 0 0 .23 24.01 23.77 23.77 0 0 0 24 47.77 23.77 23.77 0 0 0 47.77 24 23.77 23.77 0 0 0 24 .23zm-.07 3.54a20.44 20.44 0 0 1 20.44 20.44 20.44 20.44 0 0 1-.67 5.07 10.44 10.44 0 0 0-6.32-2.15 10.44 10.44 0 0 0-10.43 10.44 10.44 10.44 0 0 0 2.2 6.38 20.44 20.44 0 0 1-5.22.7A20.44 20.44 0 0 1 3.5 24.2a20.44 20.44 0 0 1 .73-5.33 10.44 10.44 0 0 0 6.19 2.06 10.44 10.44 0 0 0 10.43-10.43 10.44 10.44 0 0 0-1.98-6.08 20.44 20.44 0 0 1 5.06-.66z" fill="#2ca02c"/></svg>
