<svg xmlns="http://www.w3.org/2000/svg" width="48" height="48" viewBox="0 0 12.7 12.7"><path d="M6.34.07a6.29 6.29 0 0 0-6.29 6.3 6.29 6.29 0 0 0 6.3 6.28 6.29 6.29 0 0 0 6.28-6.29A6.29 6.29 0 0 0 6.34.07zM6.32 1l.01.01a5.4 5.4 0 0 1 5.4 5.4 5.4 5.4 0 0 1-5.4 5.41 5.4 5.4 0 0 1-5.41-5.4A5.4 5.4 0 0 1 6.32 1z" fill="#2ca02c"/><path d="M8.09 2.38c-1.24 0-2.24 1-2.24 2.23v1.24H4.61A2.23 2.23 0 1 0 6.85 8.1V6.85h1.24a2.23 2.23 0 1 0 0-4.47zm0 1a1.24 1.24 0 0 1 0 2.47h-1c-.1 0-.24 0-.24-.27v-.97c0-.68.55-1.24 1.24-1.24zM4.6 6.84h1c.1 0 .24 0 .24.27v.97a1.24 1.24 0 1 1-1.24-1.24z" opacity=".51" fill="#2ca02c"/><path d="M8.09 2.38c-1.24 0-2.24 1-2.24 2.23v1.24H4.61a.5.5 0 0 0-.05 0 .5.5 0 0 0-.44.5.5.5 0 0 0 .5.5h.98c.12 0 .25 0 .25.27v.97A1.24 1.24 0 0 1 4.08 9.2a.5.5 0 0 0-.44.89 2.23 2.23 0 0 0 3.2-2.01V6.86h1a.5.5 0 0 0 .5-.5.5.5 0 0 0-.5-.5H7.1c-.12 0-.25 0-.25-.27v-.97a1.24 1.24 0 0 1 1.6-1.18.5.5 0 0 0 .6-.62l.01-.02-.02-.02a.5.5 0 0 0-.36-.3l-.01-.01a2.23 2.23 0 0 0-.58-.08z" fill="#2ca02c"/></svg>
