<svg xmlns="http://www.w3.org/2000/svg" width="48" height="48" viewBox="0 0 12.7 12.7"><path fill="#2ca02c" d="M6.34.07a6.29 6.29 0 0 0-6.29 6.3 6.29 6.29 0 0 0 6.3 6.28 6.29 6.29 0 0 0 6.28-6.29A6.29 6.29 0 0 0 6.34.07zm-.01.94a5.4 5.4 0 0 1 5.4 5.4 5.4 5.4 0 0 1-5.4 5.41 5.4 5.4 0 0 1-5.41-5.4A5.4 5.4 0 0 1 6.32 1zm.05.7a4.65 4.65 0 0 0-4.65 4.64c0 .53.1 1.03.26 1.5l5.9-5.89a4.62 4.62 0 0 0-1.51-.26zm1.9.4l.05.06-6.15 6.15c.15.32.33.62.55.89l6.5-6.51a4.65 4.65 0 0 0-.95-.58zm1.31.9L3.03 9.55c.28.29.59.54.92.74l6.38-6.37.02.03A4.67 4.67 0 0 0 9.6 3zm.98 1.34l-6.2 6.19a4.61 4.61 0 0 0 2 .46 4.65 4.65 0 0 0 4.66-4.65 4.61 4.61 0 0 0-.46-2z"/></svg>
