<svg xmlns="http://www.w3.org/2000/svg" width="48" height="48" viewBox="0 0 12.7 12.7"><path d="M6.34.07a6.29 6.29 0 0 0-6.29 6.3 6.29 6.29 0 0 0 6.3 6.28 6.29 6.29 0 0 0 6.28-6.29A6.29 6.29 0 0 0 6.34.07zM6.32 1l.01.01a5.4 5.4 0 0 1 5.4 5.4 5.4 5.4 0 0 1-5.4 5.41 5.4 5.4 0 0 1-5.41-5.4A5.4 5.4 0 0 1 6.32 1zM4.06 3.26v.75h1.12v-.75zm3.35 0v.75h1.12v-.75zm-3.35 2.6v.75h3.3a2.05 2.05 0 0 0-.41.38H4.43v.74h2.13a2.05 2.05 0 0 0-.07.37H4.8v.75h1.76a2.05 2.05 0 0 0 1.97 1.49 2.05 2.05 0 0 0 2.04-2.05 2.05 2.05 0 0 0-2.04-2.05v-.37zM8.16 7h.74v1.67h.46l-.83.93-.84-.93h.47z" fill="#2ca02c"/><path d="M3.5 2.66h5.6v2.26H3.5zm-.56 2.28c-.2 0-.37.16-.37.37v3.72c0 .2.17.38.37.38h4.34l.26-2.6 1.34-.23.8.65.13 2.1c.12-.06.2-.16.2-.3V5.31c0-.2-.16-.37-.37-.37z" stroke="#2ca02c" fill="none" stroke-width=".56"/></svg>
