<svg xmlns="http://www.w3.org/2000/svg" width="48" height="48" viewBox="0 0 12.7 12.7"><path d="M6.34.07a6.29 6.29 0 0 0-6.29 6.3 6.29 6.29 0 0 0 6.3 6.28 6.29 6.29 0 0 0 6.28-6.29A6.29 6.29 0 0 0 6.34.07zm-.01.94a5.4 5.4 0 0 1 5.4 5.4 5.4 5.4 0 0 1-1.83 4.05A7.77 7.77 0 0 1 9 9.43a4.74 4.74 0 0 1-.49-.84c-.13-.3-.2-.6-.2-.89a1.19 1.19 0 0 1 .32-.82c.11-.12.26-.24.45-.34.18-.1.4-.19.68-.26.53-.07 1.08-.1 1.67-.07a1.6 1.6 0 0 0-.19-.57c-.1-.18-.24-.36-.4-.52a2.66 2.66 0 0 0-.62-.44c-.24-.12-.5-.21-.8-.28-.1-.04-.44-.51-1.07-.97a4.75 4.75 0 0 0-3.87-.8c-.4.09-.83.22-1.29.4h.01a4.5 4.5 0 0 1 1.23-.05c.47.02.9.07 1 .1a.4.4 0 0 1-.14.24.58.58 0 0 1-.27.13 1.94 1.94 0 0 0-.64-.02 1.99 1.99 0 0 0-1.01.53c-.14.14-.26.3-.38.47-.22.34-.4.74-.54 1.15-.13.4-.23.82-.29 1.2.05-.17.17-.31.34-.44s.38-.24.63-.35c.5-.2 1.12-.35 1.73-.45a21 21 0 0 1 2.38-.27 8.8 8.8 0 0 0-3.65 1.1c-.28.17-.53.34-.73.5-.02 0-.03.02-.03.02-.05.1-.1.23-.17.34-.21.5-.36.95-.45 1.37-.1.42-.14.8-.14 1.14v.01A5.4 5.4 0 0 1 .92 6.42 5.4 5.4 0 0 1 6.32 1zm1.46 2.94a.9.9 0 0 1 .19 0c.13.03.27.1.38.22.12.13.2.32.24.62a1.2 1.2 0 0 1-.6-.08.89.89 0 0 1-.34-.27c-.16-.21-.2-.43-.2-.43s.14-.06.33-.06zm1.33 2.24c.49 0 .78.05.78.05a7.7 7.7 0 0 0-3.42.94 7.84 7.84 0 0 0-2.25 1.9 9.93 9.93 0 0 0-1.14 1.66 5.4 5.4 0 0 1-.72-.65A9.2 9.2 0 0 1 5 7.45a8.02 8.02 0 0 1 4.12-1.26z" fill="#2ca02c"/></svg>
