<svg xmlns="http://www.w3.org/2000/svg" width="48" height="48" viewBox="0 0 12.7 12.7"><path fill="#2ca02c" d="M6.34.34A6.03 6.03 0 0 0 .32 6.36a6.03 6.03 0 0 0 6.03 6.03 6.03 6.03 0 0 0 6.02-6.03A6.03 6.03 0 0 0 6.34.34zm-.01.9A5.18 5.18 0 0 1 11.5 6.4a5.18 5.18 0 0 1-5.18 5.18A5.18 5.18 0 0 1 1.14 6.4a5.18 5.18 0 0 1 5.18-5.18z"/><path fill="#442178" d="M7.98 2.05v.07c.24.51.7.98 1.05 1.45.05-.13.1-.54.2-.65l.03.06a2.92 2.92 0 0 0 .27.48c.72 1.06 1.45 1.83 1.45 3.35 0 2.38-2.08 4.31-4.63 4.31-2.56 0-4.63-1.93-4.63-4.31 0-.86.27-1.65.73-2.32v-.02l.04-.38c.06-.26.27-1.02.59-1.17.14.27.18.76.35 1.03a.45.45 0 0 1 .18-.04h.02a.57.57 0 0 1 .04 0h.11a1.92 1.92 0 0 1 .11 0 1.9 1.9 0 0 1 .37.02h.02l.02.01h.05l.02.01h.04c.2.06.18.06.25 0 .2-.18.85-.5 1.2-.32-.22.19-.83.54-.66.92a.5.5 0 0 0 .41.25c.5.04.7.09.73.16.03.05-.01.2-.07.28a.8.8 0 0 1-.19.17l-.26.12c-.18.07-.63.2-.63.4.05.16.32.34.2.46a1.93 1.93 0 0 0-.77-.21c-.35.43.01 1.03.73 1.19.17.04.33.03.6-.05.28-.08.42-.08.57-.08.15 0 .22 0 .35.06.15.05.33.19.38.29.04.08.02.1-.05.14-.03.02-.05.02-.2 0-.1-.01-.29.02-.67.21a1.4 1.4 0 0 1-.68.17c-.24 0-.48.02-.81-.03.12.66 1.04.88 1.73.88 1.08 0 1.85-.8 2.09-1.82a1.95 1.95 0 0 0-.2-1.2 4.12 4.12 0 0 0-.7-.82 2.22 2.22 0 0 1-.47-.98 2.44 2.44 0 0 1 0-.64 2.8 2.8 0 0 1 .14-.47c.13-.32.25-.62.46-.88l.03-.04z" opacity=".75"/></svg>
