<svg xmlns="http://www.w3.org/2000/svg" width="48" height="48" viewBox="0 0 12.7 12.7"><path d="M6.34.07a6.29 6.29 0 0 0-6.28 6.3 6.29 6.29 0 0 0 6.28 6.28 6.29 6.29 0 0 0 6.3-6.29A6.29 6.29 0 0 0 6.33.07zm-.01.94a5.4 5.4 0 0 1 5.4 5.4 5.4 5.4 0 0 1-5.4 5.41 5.4 5.4 0 0 1-5.41-5.4A5.4 5.4 0 0 1 6.32 1zM8.46 3.2H4.53a.48.48 0 0 0-.49.48l.02 6.02c0 .27.22.48.48.48.27 0 .48-.21.48-.47V6.89l2.51-.02c.28 0 .48-.24.48-.52 0-.19-.18-.45-.43-.45h-.05L5 5.93V4.17h3.45c.27 0 .48-.22.48-.49a.48.48 0 0 0-.48-.48z" fill="#2ca02c" fill-opacity=".99"/></svg>
