<svg xmlns="http://www.w3.org/2000/svg" width="48" height="48" viewBox="0 0 12.7 12.7"><path d="M6.34.07a6.29 6.29 0 0 0-6.29 6.3 6.29 6.29 0 0 0 6.3 6.28 6.29 6.29 0 0 0 6.28-6.29A6.29 6.29 0 0 0 6.34.07zm-.01.94a5.4 5.4 0 0 1 5.4 5.4 5.4 5.4 0 0 1-5.4 5.41 5.4 5.4 0 0 1-5.41-5.4A5.4 5.4 0 0 1 6.32 1zm.02.96a1.96 1.96 0 0 0-1.96 1.96c0 .56.23 1.05.6 1.41-1.63.34-2.9 1.2-2.9 1.8 0 .35 1.45.15 1.5.46l.36 2.43c0 .24.12.42.28.42a8.23 8.23 0 0 0 4.24 0c.15 0 .28-.18.28-.42l.36-2.43c.07-.26 1.5-.1 1.5-.46 0-.6-1.27-1.46-2.9-1.8a1.95 1.95 0 0 0 .6-1.4 1.96 1.96 0 0 0-1.96-1.97z" fill="#2ca02c"/></svg>
