<svg xmlns="http://www.w3.org/2000/svg" width="48" height="48" viewBox="0 0 12.7 12.7"><path fill="#2ca02c" d="M6.34.07a6.29 6.29 0 0 0-6.29 6.3 6.29 6.29 0 0 0 6.3 6.28 6.29 6.29 0 0 0 6.28-6.29A6.29 6.29 0 0 0 6.34.07zm-.01.94a5.4 5.4 0 0 1 5.4 5.4 5.4 5.4 0 0 1-5.4 5.41 5.4 5.4 0 0 1-5.41-5.4A5.4 5.4 0 0 1 6.32 1zM49.69 59.13L47.3 56.1a.31.31 0 0 0-.24-.12h-6.28a.31.31 0 0 0-.24.13l-2.4 3.02a.3.3 0 0 0-.06.2v8.51c0 .18.14.32.31.32h11.05c.18 0 .32-.14.32-.32v-8.51a.29.29 0 0 0-.07-.2zm-.85-.06h-4.6V56.6h2.67zm-7.9-2.46h2.67v2.46H39zM38.7 67.53V59.7h10.42v7.84z"/><path fill="#2ca02c" fill-rule="evenodd" d="M2.42 3.05a.38.38 0 0 0-.38.38v5.92c0 .21.17.38.38.38h7.83c.21 0 .38-.17.38-.38V3.43a.38.38 0 0 0-.38-.38zm.4.47h7.02c.19 0 .34.15.34.33v5.13a.34.34 0 0 1-.34.33H2.8a.34.34 0 0 1-.34-.33V3.85c0-.18.15-.33.34-.33z" color="#000" overflow="visible" style="marker:none"/><path fill="#2ca02c" d="M4.74 4.37a.3.3 0 0 0-.3.27.17.17 0 0 1 .15-.1h3.54c.07 0 .13.04.15.1a.3.3 0 0 0-.3-.27zm3.54.27v1.29a.17.17 0 0 0 .02-.06V4.7a.17.17 0 0 0-.02-.06zm0 1.3a.17.17 0 0 1-.15.1H4.59a.17.17 0 0 1-.15-.1.3.3 0 0 0 .3.27h3.24a.3.3 0 0 0 .3-.28zm-3.84 0V4.66v-.03a.17.17 0 0 0-.01.06v1.23zm.76-1a.34.34 0 0 0-.35.34.34.34 0 0 0 .67 0 .34.34 0 0 0-.32-.34zm1.17 0a.34.34 0 0 0-.34.34.34.34 0 0 0 .67 0 .34.34 0 0 0-.33-.34zm1.17 0a.34.34 0 0 0-.34.34.34.34 0 0 0 .67 0 .34.34 0 0 0-.33-.34z"/><path fill="#2ca02c" fill-rule="evenodd" d="M6 6.6a.06.06 0 0 0-.02 0c-.28.15-.52.39-.6.62-.1.33.06.67.38.86.07.13.14.33.14.63l-.02 3.77h.83l.02-3.76c0-.27.05-.46.12-.59a.77.77 0 0 0 .4-.43c.07-.23.02-.54-.12-.8a.07.07 0 0 0-.06-.03c-.03 0-.06.02-.06.04l-.22.64c-.02.06-.1.1-.19.11a.9.9 0 0 1-.35-.02.84.84 0 0 1-.3-.15c-.08-.05-.11-.12-.1-.18l.23-.64a.05.05 0 0 0-.01-.05L6 6.59z"/></svg>
