<svg xmlns="http://www.w3.org/2000/svg" width="48" height="48" viewBox="0 0 12.7 12.7"><path fill="#2ca02c" d="M6.34.07a6.29 6.29 0 0 0-6.29 6.3 6.29 6.29 0 0 0 6.3 6.28 6.29 6.29 0 0 0 6.28-6.29A6.29 6.29 0 0 0 6.34.07zm-.01.94a5.4 5.4 0 0 1 5.4 5.4 5.4 5.4 0 0 1-5.4 5.41 5.4 5.4 0 0 1-5.41-5.4A5.4 5.4 0 0 1 6.32 1zM3.26 2.7c-1.12.8.42 1.51 0 2.52.8-.54.6-1.45 0-2.52zm3.56 3a.41.41 0 0 0-.13.02c-.11.05-.26.25-.26.25l-1.06.5h-.52c-.92.04-1.17-.89-1.85-.75.82.64 0 1.54.53 2.01.9.82 2.09 1.5 3.25 1.51h-.35v.26l-1.32.5h3.43l-1.32-.5v-.26h-.31c.88-.02 1.74-.45 2.42-1.5 2.72 1.37 1.42-3.65 0-1.27h-.79l-1.32-.5s-.15-.2-.26-.25a.35.35 0 0 0-.14-.02zm3.3.77a.26.5 0 0 1 .01 0 .26.5 0 0 1 .26.53.26.5 0 0 1-.28.48.26.5 0 0 1-.25-.52.26.5 0 0 1 .26-.49z"/></svg>
