<svg xmlns="http://www.w3.org/2000/svg" width="48" height="48" viewBox="0 0 12.7 12.7"><path d="M6.34.07a6.29 6.29 0 0 0-6.29 6.3 6.29 6.29 0 0 0 6.3 6.28 6.29 6.29 0 0 0 6.28-6.29A6.29 6.29 0 0 0 6.34.07zM6.32 1l.01.01a5.4 5.4 0 0 1 5.4 5.4 5.4 5.4 0 0 1-5.4 5.41 5.4 5.4 0 0 1-5.41-5.4A5.4 5.4 0 0 1 6.32 1zm2.16 2c-1.32 0-1.57 2.01-.83 2.01.75 0 2.15-2 .83-2zm-2.1.24c-.75.1-.49 1.52-.08 1.55.4.03.84-1.66.08-1.55zm-1.36.44a.48.48 0 0 0-.13.03c-.7.27-.1 1.37.3 1.3.36-.07.4-1.39-.17-1.33zm-.93.89a.38.38 0 0 0-.2.06c-.59.34.2 1.17.53 1.04.3-.11.11-1.09-.33-1.1zm2.71.67c-1.04-.02-2.41.52-2.65 1.62-.25 1.19 1.05 2.83 2.4 2.83.67 0 1.43-.63 1.58-1.42.1-.61-1.38-.37-1.33.03.04.33-.13.5-.37.5-.32-.03-.48-.22-.53-.5-.05-.74 2.28-1.27 2.1-2.42-.07-.42-.58-.63-1.2-.64z" fill="#2ca02c"/></svg>
