<svg xmlns="http://www.w3.org/2000/svg" width="48" height="48" viewBox="0 0 12.7 12.7"><path fill="#2ca02c" d="M6.34.07C2.91.07.1 2.9.1 6.33s2.82 6.25 6.25 6.25c1.08 0 2.1-.28 3-.77L6.67 9.15h1.69V8.11a2.67 2.67 0 0 1-2.02.9 2.65 2.65 0 0 1-2.68-2.68c0-1.5 1.18-2.68 2.68-2.68a2.65 2.65 0 0 1 2.68 2.68l-.01.3h1.87v2.52h1.04A6.28 6.28 0 0 0 6.35.07zm0 4.47c-.98 0-1.78.8-1.78 1.79 0 .98.8 1.79 1.78 1.79a1.8 1.8 0 1 0 0-3.57zm0 .9c.5 0 .9.39.9.89a.89.89 0 0 1-.9.9.89.89 0 0 1-.89-.9c0-.5.4-.9.9-.9zm2.38 1.55V9.52H7.53l2.09 2.08 2.08-2.09h-1.19V7H8.71z" color="#bebebe" font-family="sans-serif" font-weight="400" overflow="visible" style="font-variant-ligatures:normal;font-variant-position:normal;font-variant-caps:normal;font-variant-numeric:normal;font-variant-alternates:normal;font-feature-settings:normal;text-indent:0;text-decoration-line:none;text-decoration-style:solid;text-decoration-color:#000;text-transform:none;text-orientation:mixed;shape-padding:0;isolation:auto;mix-blend-mode:normal" white-space="normal"/></svg>
