<svg xmlns="http://www.w3.org/2000/svg" width="48" height="48" viewBox="0 0 12.7 12.7"><path d="M6.34.07a6.29 6.29 0 0 0-6.29 6.3 6.29 6.29 0 0 0 6.3 6.28 6.29 6.29 0 0 0 6.28-6.29A6.29 6.29 0 0 0 6.34.07zm-.01.94a5.4 5.4 0 0 1 5.4 5.4 5.4 5.4 0 0 1-5.4 5.41 5.4 5.4 0 0 1-5.41-5.4A5.4 5.4 0 0 1 6.32 1zm0 .53L1.39 6.47l.96.96.8-.8v3.82H9.5V6.63l.8.8.95-.96-4.93-4.93zm1.9.64v.47l1.28 1.28V2.18H8.24zM6.02 4.5h.68v.68H7.7v.68H6.69v.67c.16 0 .33.03.5.1.15.07.3.19.39.35.1.17.13.36.13.58 0 .2-.02.37-.1.53-.06.16-.2.3-.34.37-.2.1-.38.11-.58.12v.68H6v-.68H4.99V7.9H6v-.68a1.3 1.3 0 0 1-.5-.1.83.83 0 0 1-.39-.34C5.03 6.62 5 6.42 5 6.2c0-.17-.02-.47.21-.7.19-.2.44-.28.8-.3v-.7zm0 1.38c-.2.03-.3.08-.31.1-.02.01-.03.05-.03.22 0 .14.03.21.05.24.02.04.03.05.07.06.04.02.12.03.22.04v-.66zm.68 1.34v.67c.14-.01.24-.02.27-.04.03-.01.02 0 .04-.04a.7.7 0 0 0 .03-.25.52.52 0 0 0-.04-.25c-.02-.03-.03-.04-.07-.05a.8.8 0 0 0-.23-.04z" fill="#2ca02c"/></svg>
