<svg xmlns="http://www.w3.org/2000/svg" width="48" height="48" viewBox="0 0 12.7 12.7"><path fill="#2ca02c" d="M6.34.07a6.29 6.29 0 0 0-6.29 6.3 6.29 6.29 0 0 0 6.3 6.28 6.29 6.29 0 0 0 6.28-6.29A6.29 6.29 0 0 0 6.34.07zm-.01.94a5.4 5.4 0 0 1 5.4 5.4 5.4 5.4 0 0 1-5.4 5.41 5.4 5.4 0 0 1-5.41-5.4A5.4 5.4 0 0 1 6.32 1zm0 .47c-.36 0-.7.17-.98.51L1.89 6.36l-.03.04-.01.02-.01.01-.03.06-.03.05a.77.77 0 0 0-.02.09l-.02.04a.71.71 0 0 0 .01.3l.01.04a.7.7 0 0 0 .06.13v.02a.7.7 0 0 0 .62.36h1.78a.35.35 0 1 1 0 .7.35.35 0 1 0 0 .72h1.42a.35.35 0 0 1 0 .7.71.71 0 1 0 0 1.43H7.4a.35.35 0 1 0 0-.71.35.35 0 1 1 0-.71h1.07a.35.35 0 1 0 0-.71.35.35 0 1 1 0-.71H9.9a1.06 1.06 0 0 0 1.04-1.26v-.03a1.06 1.06 0 0 0-.07-.21l-.02-.05-.04-.07-.05-.06v-.02L7.31 2a1.25 1.25 0 0 0-1-.53zm-.03.42c.07 0 .14.03.19.1l1.4 1.74.59.74c.18.24-.12.3-.23.32-.37.07-.6-.73-.98-.75-.51-.02-.99.94-1.38.9-.35-.02-.32-.94-.63-.9-.24.03-.07.7-.37.8-.13.04-1.07-.08-.74-.4l.04-.06.53-.65L6.13 2a.24.24 0 0 1 .18-.1zm-.66 5.62H6.7a.35.35 0 1 1 0 .7H5.63a.35.35 0 1 1 0-.7zM9.9 8.94a.35.35 0 0 0-.36.35.35.35 0 0 0 .36.36.35.35 0 0 0 .35-.36.35.35 0 0 0-.35-.35zm-5.68.89a.18.18 0 0 0-.18.17.18.18 0 0 0 .18.18.18.18 0 0 0 .17-.18.18.18 0 0 0-.17-.17zm4.97 0A.18.18 0 0 0 9 10a.18.18 0 0 0 .18.18.18.18 0 0 0 .17-.18.18.18 0 0 0-.17-.17z"/></svg>
