<svg xmlns="http://www.w3.org/2000/svg" width="48" height="48" viewBox="0 0 12.7 12.7"><path style="font-variant-ligatures:normal;font-variant-position:normal;font-variant-caps:normal;font-variant-numeric:normal;font-variant-alternates:normal;font-feature-settings:normal;text-indent:0;text-decoration-line:none;text-decoration-style:solid;text-decoration-color:#000;text-transform:none;text-orientation:mixed;shape-padding:0;isolation:auto;mix-blend-mode:normal" d="M6.34.07A6.28 6.28 0 0 0 .1 6.33a6.28 6.28 0 0 0 7.38 6.14 3.67 3.67 0 0 1-.89-.9 3.62 3.62 0 0 1-.55-2.62 2.62 2.62 0 0 1-2.37-2.62c0-1.5 1.18-2.68 2.68-2.68A2.62 2.62 0 0 1 8.96 6a3.54 3.54 0 0 1 1.34.01 3.57 3.57 0 0 1 2.19 1.43A6.28 6.28 0 0 0 6.35.07zm0 4.47a1.79 1.79 0 0 0-.06 3.56 3.63 3.63 0 0 1 1.84-1.84 1.79 1.79 0 0 0-1.78-1.72zm0 .9c.5 0 .9.39.9.89a.89.89 0 0 1-.9.9.89.89 0 0 1-.89-.9c0-.5.4-.9.9-.9zm3.23 1.04A3.1 3.1 0 0 0 6.5 9.56a3.1 3.1 0 0 0 3.08 3.08 3.1 3.1 0 0 0 3.08-3.08 3.1 3.1 0 0 0-3.08-3.08zm0 1.76c.74 0 1.32.58 1.32 1.32a1.3 1.3 0 0 1-1.32 1.32 1.3 1.3 0 0 1-1.32-1.32c0-.74.58-1.32 1.32-1.32zm0 .44c-.48 0-.88.4-.88.88s.4.88.88.88c.49 0 .88-.4.88-.88 0-.49-.4-.88-.88-.88zm0 .44c.25 0 .44.2.44.44a.44.44 0 0 1-.44.44.44.44 0 0 1-.44-.44c0-.25.2-.44.44-.44z" color="#bebebe" font-weight="400" font-family="sans-serif" white-space="normal" overflow="visible" fill="#2ca02c"/></svg>
