<svg xmlns="http://www.w3.org/2000/svg" width="48" height="48" viewBox="0 0 12.7 12.7"><path d="M6.35.08A6.27 6.27 0 0 0 .08 6.35a6.27 6.27 0 0 0 6.27 6.27 6.27 6.27 0 0 0 6.27-6.27A6.27 6.27 0 0 0 6.35.08zm-.02.94a5.39 5.39 0 0 1 5.4 5.38 5.39 5.39 0 0 1-.4 1.98V7.8h-.52v1.6a5.39 5.39 0 0 1-.53.67V7.79h-.53v2.77a5.39 5.39 0 0 1-.53.39V7.79H8.7v3.45a5.39 5.39 0 0 1-.53.23V5.73h-.52v5.9a5.39 5.39 0 0 1-.53.1V7.8h-.53v4a5.39 5.39 0 0 1-.25 0 5.39 5.39 0 0 1-.28-.01V7.79h-.53v3.93a5.39 5.39 0 0 1-.53-.1V7.78h-.53v3.66a5.39 5.39 0 0 1-.53-.23V7.8H3.4v3.13a5.39 5.39 0 0 1-.53-.39v-4.8h-.53v4.29a5.39 5.39 0 0 1-.53-.68V7.79h-.53v.5A5.39 5.39 0 0 1 .95 6.4a5.39 5.39 0 0 1 5.4-5.38z" fill="#2ca02c"/></svg>
