<svg xmlns="http://www.w3.org/2000/svg" width="48" height="48" viewBox="0 0 12.7 12.7"><path fill="#2ca02c" d="M6.34.07a6.29 6.29 0 0 0-6.29 6.3 6.29 6.29 0 0 0 6.3 6.28 6.29 6.29 0 0 0 6.28-6.29A6.29 6.29 0 0 0 6.34.07zm-.01.94a5.4 5.4 0 0 1 5.4 5.4 5.4 5.4 0 0 1-5.4 5.41 5.4 5.4 0 0 1-5.41-5.4A5.4 5.4 0 0 1 6.32 1zm1.6 1.8a4.73 4.73 0 0 0-2.14.52C3.41 4.57 1.75 7.68 1.75 7.68c3.52 3.65 6.3 2.15 6.3 2.15 2.7-1.25 2.37-5.71 2.37-5.71a2.75 2.75 0 0 0-2.5-1.32zM4.55 5.01h3.42c.25 0 .3.03.5.1.36.17.5.55.5.9.02.56 0 1.13.01 1.7h-.96V6.2c0-.32-.02-.56-.39-.56-.4 0-.38.3-.38.55v1.53h-.97V6.18c0-.35-.03-.54-.4-.54-.33 0-.37.25-.37.53v1.55h-.96v-2.7z"/></svg>
