<svg xmlns="http://www.w3.org/2000/svg" width="48" height="48" viewBox="0 0 12.7 12.7"><path d="M6.34.07a6.29 6.29 0 0 0-6.29 6.3 6.29 6.29 0 0 0 6.3 6.28 6.29 6.29 0 0 0 6.28-6.29A6.29 6.29 0 0 0 6.34.07zM6.32 1l.01.01a5.4 5.4 0 0 1 5.4 5.4 5.4 5.4 0 0 1-5.4 5.41 5.4 5.4 0 0 1-5.41-5.4A5.4 5.4 0 0 1 6.32 1z" fill="#2ca02c"/><path d="M2.78 3.47c-.37 0-.66.27-.66.6v4.49c0 .32.3.59.66.59h.08l.81-1.5h5.36l.8 1.5h.1c.36 0 .65-.27.65-.6V4.07c0-.32-.3-.59-.66-.59H2.78v-.01zm.486.498h6.168a.51.51 0 0 1 .512.512V6.87a.51.51 0 0 1-.512.512H3.266a.51.51 0 0 1-.512-.512V4.48a.51.51 0 0 1 .512-.512zM4.6 5.46a.58.58 0 0 0-.59.58.58.58 0 0 0 .59.58.58.58 0 0 0 .58-.58.58.58 0 0 0-.58-.58zm3.5 0a.58.58 0 0 0-.58.58.58.58 0 0 0 .58.58.58.58 0 0 0 .59-.58.58.58 0 0 0-.59-.58zm-2.77.18v.88h2.04v-.88H5.33zM3.78 7.77l-.74 1.38h6.62l-.74-1.38H3.78zm.87.31a.34.34 0 0 1 .34.34.34.34 0 0 1-.34.34.34.34 0 0 1-.34-.34.34.34 0 0 1 .34-.34zm3.4 0a.34.34 0 0 1 .34.34.34.34 0 0 1-.34.34.34.34 0 0 1-.34-.34.34.34 0 0 1 .34-.34z" fill="#2ca02c"/><path d="M3.266 3.958a.511.511 0 0 0-.512.513v2.388c0 .284.229.512.512.512h6.168a.511.511 0 0 0 .512-.512V4.471a.511.511 0 0 0-.512-.513zM4.6 5.14v.01h3.5a.88.88 0 0 1 .88.87.88.88 0 0 1-.88.88H4.6a.88.88 0 0 1-.88-.88.88.88 0 0 1 .88-.88z" opacity=".75" fill="#f55" fill-rule="evenodd"/></svg>
