<svg xmlns="http://www.w3.org/2000/svg" width="48" height="48" viewBox="0 0 12.7 12.7"><path fill="#2ca02c" d="M6.34.08A6.27 6.27 0 0 0 .08 6.35a6.27 6.27 0 0 0 6.26 6.26 6.27 6.27 0 0 0 6.27-6.26A6.27 6.27 0 0 0 11 2.15l.13-.5a.46.46 0 0 0-.33-.58l-.12-.03a.46.46 0 0 0-.56.3A6.27 6.27 0 0 0 6.34.08zM6.33 1a5.39 5.39 0 0 1 3.52 1.31l-.4 1.49a.46.46 0 0 0 .14.45l-.17.61-.14-.02-.23-.22a.17.17 0 0 0-.23 0l-.12.11-.31-.96c-.09-.27-.1-.48-.09-.62a.79.79 0 0 0 .23-.55c0-.26-.15-.55-.37-.76a.07.07 0 0 0-.07-.01.06.06 0 0 0-.04.06v.7c.01.06-.04.12-.12.16a.81.81 0 0 1-.33.09.76.76 0 0 1-.33-.05c-.09-.03-.14-.09-.14-.15l-.01-.7a.06.06 0 0 0-.03-.06.07.07 0 0 0-.06 0A.07.07 0 0 0 7 1.9c-.2.23-.34.54-.34.8 0 .35.27.64.63.73.1.1.23.29.33.59l.06.17h-.49a.16.16 0 0 0-.16.16v.4l-.21.09h-.19l-.22-.23a.17.17 0 0 0-.23 0l-.23.23h-.8c.09-.2.18-.35.27-.43a.78.78 0 0 0 .51-.3c.16-.2.23-.52.19-.82a.07.07 0 0 0-.05-.05.06.06 0 0 0-.07.02l-.43.56c-.04.05-.12.06-.2.04a.83.83 0 0 1-.32-.14.79.79 0 0 1-.24-.24c-.04-.08-.05-.16-.01-.2l.43-.57a.06.06 0 0 0 0-.05.07.07 0 0 0-.04-.04.06.06 0 0 0-.03 0c-.3.04-.61.2-.77.4-.21.29-.18.68.05.98.02.15 0 .37-.1.66l-.06.18H3.05l-.18-.67L2.9 4a.12.12 29.2 0 0-.01-.08l-.28-.55a.12.12 29.2 0 0-.13-.06l-.3.08a.12.12 29.2 0 0-.09.12l.06.62a.12.12 29.2 0 0 .04.07l.12.13.3 1.04-.43 1v3.47A5.39 5.39 0 0 1 .94 6.4 5.39 5.39 0 0 1 6.33 1zm4.37 2.25A5.39 5.39 0 0 1 11.7 6.4a5.39 5.39 0 0 1-1.58 3.81V6.37l-.32-.75.32-1.21a.47.47 0 0 0 .35-.34zm-7.25 1.7h.79l-.51 1.4h-.26v-.04a.12.12 29.2 0 0 0-.01l-.3-1.08.03-.09A.3.3 0 0 1 3.29 5c.02-.02.06-.04.16-.04zm1.65 0h.74l-.25.26a.17.17 0 0 0 0 .23l.27.28a1.99 1.99 0 0 0-.14.34h-.4c-.09 0-.16.07-.16.16v.13H4.6zm2.52 1a.7.7 0 0 1 .63.4H6.98a.7.7 0 0 1 .63-.4zm-4.77.24l.05.16h-.1zm.55 4.72h5.86a5.39 5.39 0 0 1-2.93.87 5.39 5.39 0 0 1-2.93-.87z"/></svg>
