<svg xmlns="http://www.w3.org/2000/svg" width="48" height="48" viewBox="0 0 12.7 12.7"><path fill="#2ca02c" d="M6.34.07a6.29 6.29 0 0 0-6.29 6.3 6.29 6.29 0 0 0 6.3 6.28 6.29 6.29 0 0 0 6.28-6.29A6.29 6.29 0 0 0 6.34.07zm-.01.94a5.4 5.4 0 0 1 5.4 5.4 5.4 5.4 0 0 1-5.4 5.41 5.4 5.4 0 0 1-5.41-5.4A5.4 5.4 0 0 1 6.32 1zm.03.64a2.3 2.3 0 1 0 0 4.59 2.3 2.3 0 0 0 0-4.6zm0 .12a2.17 2.17 0 0 1 2.16 2.18 2.17 2.17 0 0 1-2.16 2.18 2.17 2.17 0 0 1-2.17-2.18 2.17 2.17 0 0 1 2.17-2.18zm.03.4l-.25.03-.24.06.05-.02-.03-.05-.1.01-.05.05-.08.01-.08.04-.03.01-.01.02h-.05l-.03.07-.04-.08-.02.04.01.09-.06.05-.04.1h.08l.04-.09.1-.07.08.03.16.1.08-.07-.09-.03-.04-.09-.15-.01v-.02l.06.01.04-.04.08-.01.06-.02-.05.04.19.13v.07l-.08.07.1.2.06-.04.08-.13a2.76 2.76 0 0 0 .33-.12v.04l.05.04.1-.06-.05-.06-.06.04h-.03l.02-.01.1-.25-.21-.08zm-1.14.14l-.04.1h-.08a2.02 2.02 0 0 0-.72 1.32 1.1 1.1 0 0 0 .07.12l.16.09.16.04.07.08.1.07.06-.01.05.02v.01l-.06.16-.05.06.02.03-.04.12.13.24.14.11.06.08v.17l.04.1-.05.19v.02c.01.01.25.14.26.13l.03-.02-.02-.04.06-.06.03-.06.1-.03.07-.18-.02-.05.05-.07.11-.02L6 4.9 6 4.74l.09-.13.01-.12a23.71 23.71 0 0 1-.37-.17l-.06-.12-.1-.02-.07-.16-.15.02-.13-.09-.13.11v.02c-.04 0-.1-.01-.13-.03l-.03-.08v-.1l-.1.02.03-.17H4.8l-.05.06-.06.02-.07-.04-.01-.09.02-.1.1-.07h.1l.01-.05.12.02.08.1.01-.16.15-.12.05-.12.1-.04.07-.08.13-.02.07-.1h-.2l.12-.06h.1l.12-.04.02-.05-.05-.04-.05-.01.02-.05-.04-.07-.1.03.02-.05h.01v-.06l-.08-.04-.06.05-.06.12.01.04-.08.04-.05.1-.03-.1-.14-.05-.02-.08.19-.1.08-.07v-.1l-.04-.02h-.06zm2.03.04l-.14.04-.1.06v.05l-.13.09.03.13.08-.06.05.06.06.03.04-.1-.03-.05.03-.05.08-.07h.03l-.03.08v.08l.1-.02-.1.07v.04l-.11.1-.11-.03v-.07l-.06.03.03.06H6.9l-.04.08-.05.06-.1.02.05.06.02.06h-.07l-.1.05v.15h.04l.04.04.1-.04.03-.1.07-.03.01-.04.11-.02.06.06.07.04-.04.07.06-.01.03-.08-.07-.08h.03l.07.06.02.08.06.07.02-.1.03-.02.1.12.11.01.07.04-.03.04-.07.06h-.1l-.12-.04-.07.01-.04.05-.14-.13-.1-.03-.14.02-.12.03-.2.24-.09.2.04.04-.07.1.07.17.2.22.08-.08.04.04.1-.06.04.04h.1l.05.06-.03.12.07.08v.13l.05.1-.04.09a3.06 3.06 0 0 0 0 .18l.08.25.02.13v.07h.06l.08-.05h.1l.14-.16-.02-.06.1-.08-.08-.08L7.7 5l.08-.05.04-.04-.03-.1v-.23l.07-.14.08-.1.1-.2v-.07l-.14.01.09-.08.12-.08.07-.08v-.08l-.05-.09-.06.07-.04-.05-.07-.05v-.11l.08.09.09-.02.1.11.06-.06c0-.07-.07-.4-.24-.67-.16-.28-.44-.53-.44-.53l-.02.04-.08.08-.1-.1h.1l.05-.05-.18-.03-.1-.04zm-.6.35v.05l.03.04v.08l-.02.11.09-.02.06-.06-.05-.06a1.62 1.62 0 0 0-.07-.14h-.04zm-.08.1l-.05.03.01.1.07-.04-.03-.08zm-.92.24l.03.12.04-.07-.07-.05zm1.93.53l.09.1.1.21.06.07-.03.07.05.07h-.07a2.88 2.88 0 0 1-.12-.3l-.07-.07-.03-.12.02-.03zM4.96 6.45c-.43 0-.85.2-1.17.38-.2.11-.2.16-.21.4l-.01 3.1c0 .11.03.23.14.17l.1-.07c1.14-.7 2.1-.2 2.43.62L6.2 7.21c-.36-.58-.8-.76-1.24-.76zm2.78 0c-.44 0-.88.18-1.24.76l-.04 3.84c.33-.82 1.29-1.32 2.43-.62l.1.07c.11.06.14-.06.14-.16l-.01-3.12c0-.23-.02-.28-.2-.4a2.53 2.53 0 0 0-1.18-.37z"/></svg>
