<svg xmlns="http://www.w3.org/2000/svg" width="48" height="48" viewBox="0 0 12.7 12.7"><path d="M6.34.07a6.29 6.29 0 0 0-6.28 6.3 6.29 6.29 0 0 0 6.29 6.28 6.29 6.29 0 0 0 6.28-6.29A6.29 6.29 0 0 0 6.34.07zm-.01.94a5.4 5.4 0 0 1 5.4 5.4 5.4 5.4 0 0 1-5.4 5.41 5.4 5.4 0 0 1-5.41-5.4A5.4 5.4 0 0 1 6.32 1z" fill="#2ca02c" fill-opacity=".99"/><rect width="2.47" height="9.05" x="1.02" y="4.14" rx=".82" ry=".9" transform="rotate(-30)" fill="#005f6d"/><rect width="2.47" height="9.05" x="-9.87" y="-2.15" rx=".82" ry=".9" transform="scale(-1 1) rotate(-30)" fill="#2c808d"/><rect width="2.47" height="9.05" x="-7.61" y="-10.82" rx=".82" ry=".9" transform="matrix(0 -1 -1 0 0 0)" fill="#2e96a5"/></svg>
