<svg xmlns="http://www.w3.org/2000/svg" width="48" height="48" version="1"><path d="M24 .23A23.77 23.77 0 0 0 .23 24.01 23.77 23.77 0 0 0 24 47.77 23.77 23.77 0 0 0 47.77 24 23.77 23.77 0 0 0 24 .23zm-.07 3.54a20.44 20.44 0 0 1 20.44 20.44 20.44 20.44 0 0 1-20.44 20.43A20.44 20.44 0 0 1 3.5 24.21 20.44 20.44 0 0 1 23.93 3.77zm0 3A17.44 17.44 0 0 0 6.5 24.22a17.44 17.44 0 0 0 17.43 17.44A17.44 17.44 0 0 0 41.37 24.2 17.44 17.44 0 0 0 23.93 6.77zm-8.99 6.67h.46c1.05 0 2.02.37 2.93 1.1v.04c-.16.28-.29.45-.38.5a4.5 4.5 0 0 0-2.67-.96h-.1c-1.8 0-3.15.9-4.05 2.67a4.1 4.1 0 0 0-.34 1.71v.12c0 1.38.64 2.56 1.9 3.54-.19.3-.33.49-.41.53-1.45-1.13-2.17-2.45-2.17-3.96v-.45c0-1.52.73-2.84 2.2-3.97a4.75 4.75 0 0 1 2.63-.87zm9.71 0h.5c1.26 0 2.46.5 3.59 1.52a5.3 5.3 0 0 1 3.6-1.52h.49c1.64 0 3.08.8 4.3 2.4.63.95.95 1.9.95 2.85v.5c0 1.27-.5 2.44-1.49 3.5l-.5-.46v-.03c.83-1 1.24-2.05 1.24-3.14v-.13c0-1.95-.96-3.4-2.89-4.38a4.5 4.5 0 0 0-1.86-.37h-.12a4.6 4.6 0 0 0-3.23 1.36c.8 1 1.2 2.1 1.2 3.35v.08c0 1.43-.5 2.67-1.48 3.72l-.54-.5a4.8 4.8 0 0 0 1.28-3.3c0-1.79-.9-3.2-2.68-4.25a5.12 5.12 0 0 0-1.99-.46h-.12c-1.95 0-3.41.97-4.38 2.9a4.5 4.5 0 0 0-.37 1.85v.13c0 1.09.41 2.13 1.24 3.14v.03l-.5.46a5.05 5.05 0 0 1-1.49-3.5v-.5c0-1.65.8-3.08 2.4-4.3.95-.63 1.9-.95 2.85-.95zM10.38 24.5h19.75c.15 0 .28.13.28.29 0 .15-.13.28-.28.28H10.38a.28.28 0 0 1-.29-.28c0-.16.13-.29.29-.29z" fill="#2ca02c"/></svg>
