<svg xmlns="http://www.w3.org/2000/svg" width="48" height="48" viewBox="0 0 12.7 12.7"><g fill="#2ca02c"><path d="M6.34.07a6.29 6.29 0 0 0-6.29 6.3 6.29 6.29 0 0 0 6.3 6.28 6.29 6.29 0 0 0 6.28-6.29A6.29 6.29 0 0 0 6.34.07zm-.01.94a5.4 5.4 0 0 1 5.4 5.4 5.4 5.4 0 0 1-5.4 5.41 5.4 5.4 0 0 1-5.41-5.4A5.4 5.4 0 0 1 6.32 1z"/><path d="M7.65 2.38a1.08 1.08 0 0 0-.68.2 22.38 22.38 0 0 0-2.33 4.94c-.27.92-.52 1.87-.76 2.79.39.03.31 0 .62 0 .22-.5.66-.97.97-1.32.77-.8 1.5-1.15 2.43-1.47.01-.93-.06-1.86.32-2.69.16-.34.4-.7.6-1.01 0-.7-.52-1.4-1.17-1.44z"/></g></svg>
