<svg xmlns="http://www.w3.org/2000/svg" width="48" height="48" viewBox="0 0 12.7 12.7"><path fill="#2ca02c" d="M6.34.07a6.29 6.29 0 0 0-6.29 6.3 6.29 6.29 0 0 0 6.3 6.28 6.29 6.29 0 0 0 6.28-6.29A6.29 6.29 0 0 0 6.34.07zm-.01.94a5.4 5.4 0 0 1 5.4 5.4 5.4 5.4 0 0 1-5.4 5.41 5.4 5.4 0 0 1-5.41-5.4A5.4 5.4 0 0 1 6.32 1zm-2.1.73a.21.21 0 0 0-.16.08L2.46 3.86a.2.2 0 0 0-.05.13V9.7c0 .12.1.21.21.21h7.43c.12 0 .21-.1.21-.21V3.99a.2.2 0 0 0-.04-.13l-1.6-2.04a.21.21 0 0 0-.17-.08H4.23zm.1.42h1.8V3.8h-3.1l1.3-1.65zm2.22 0h1.8l1.3 1.65h-3.1V2.16zM2.84 4.23h7V9.5h-7V4.23zm3.52.16c-1.05 0-1.95.65-2.31 1.57l-.06.15v.03c-.08.24-.13.5-.13.76a2.48 2.48 0 0 0 2.48 2.47c1.04 0 1.93-.64 2.3-1.55a2.45 2.45 0 0 0 .2-.96A2.48 2.48 0 0 0 6.36 4.4zm-.18.39v.83a4.59 4.59 0 0 1-.67-.08l.1-.2c.16-.3.36-.49.57-.55zm.35 0l.06.02c.18.08.36.26.52.53l.1.2a4.7 4.7 0 0 1-.68.08v-.82zm-1.1.18a2.02 2.02 0 0 0-.27.5 2.85 2.85 0 0 1-.3-.11c.17-.16.36-.29.56-.39zm1.9.05l.24.11c.1.07.19.14.27.22a2.8 2.8 0 0 1-.29.1 2.11 2.11 0 0 0-.22-.43zm.74.6a2 2 0 0 1 .4 1.07h-.66a3.91 3.91 0 0 0-.14-.9c.14-.04.27-.1.4-.15v-.02zm-3.45.02l.42.16a3.9 3.9 0 0 0-.14.9h-.66c.03-.4.17-.76.38-1.06zm2.7.24c.07.24.12.52.13.82h-.92v-.73a4.79 4.79 0 0 0 .8-.1zm-1.93 0c.24.05.5.08.79.09v.72h-.92c.01-.29.06-.56.13-.81zM4.24 7.04h.66c.02.33.07.64.15.92a3.14 3.14 0 0 0-.4.15 2.1 2.1 0 0 1-.41-1.07zm1.02 0h.92v.75a4 4 0 0 0-.79.08 3.58 3.58 0 0 1-.13-.83zm1.27 0h.92a3.58 3.58 0 0 1-.13.84 4.8 4.8 0 0 0-.79-.1v-.74zm1.28 0h.67a2.1 2.1 0 0 1-.41 1.08 3.08 3.08 0 0 0-.4-.15c.07-.29.12-.6.14-.93zm-1.63 1.1v.8c-.2-.06-.4-.25-.57-.54a2.2 2.2 0 0 1-.1-.19c.21-.04.44-.06.67-.07zm.35 0c.24.01.46.04.66.07a2.2 2.2 0 0 1-.09.19c-.16.3-.36.48-.57.55v-.81zm-1.37.15a2.03 2.03 0 0 0 .26.47 2.12 2.12 0 0 1-.53-.37 3 3 0 0 1 .27-.1zm2.38.01c.1.03.2.06.28.1a2.12 2.12 0 0 1-.53.36 2.1 2.1 0 0 0 .25-.46z"/></svg>
