<svg xmlns="http://www.w3.org/2000/svg" width="48" height="48" viewBox="0 0 12.7 12.7"><path fill="#2ca02c" d="M6.34.07a6.29 6.29 0 0 0-6.29 6.3 6.29 6.29 0 0 0 6.3 6.28 6.29 6.29 0 0 0 6.28-6.29A6.29 6.29 0 0 0 6.34.07zm-.01.94a5.4 5.4 0 0 1 5.4 5.4 5.4 5.4 0 0 1-5.4 5.41 5.4 5.4 0 0 1-5.41-5.4A5.4 5.4 0 0 1 6.32 1zm0 1.06a4.28 4.28 0 0 0-2.78 1.02c-.32.3.53 1.02.81.72a3.2 3.2 0 0 1 1.97-.67 3.21 3.21 0 0 1 3.22 3.22 3.21 3.21 0 0 1-3.22 3.22 3.2 3.2 0 0 1-2.28-.95 3.21 3.21 0 0 1-.8-1.3h1.23L2.75 5.3 1.02 7.32h1.13a4.3 4.3 0 0 0 4.18 3.33 4.3 4.3 0 0 0 4.29-4.3 4.3 4.3 0 0 0-4.3-4.28z"/></svg>
