<svg xmlns="http://www.w3.org/2000/svg" width="48" height="48" viewBox="0 0 12.7 12.7"><path fill="#2ca02c" d="M6.34.07a6.29 6.29 0 0 0-6.29 6.3 6.29 6.29 0 0 0 6.3 6.28 6.29 6.29 0 0 0 6.28-6.29A6.29 6.29 0 0 0 6.34.07zm-.01.94a5.4 5.4 0 0 1 5.4 5.4 5.4 5.4 0 0 1-5.4 5.41 5.4 5.4 0 0 1-5.41-5.4A5.4 5.4 0 0 1 6.32 1zM4.36 2.2a.58.58 0 0 0-.58.58.58.58 0 0 0 .58.58H5.7v2.1h1.2v-2.1h1.24a.58.58 0 1 0 0-1.16H4.36zM5.7 5.46H3.97a.52.52 0 0 0-.5.42l-.72 3.9a.34.34 0 0 0 .34.42H5.2v.01h2.1v-.01h2.1a.34.34 0 0 0 .35-.42l-.72-3.9a.52.52 0 0 0-.5-.42h-1.6v1.71h1.16l-1.83 1.5-1.75-1.5 1.19.01V5.46z"/></svg>
