<?xml version="1.0" encoding="UTF-8" standalone="no"?>
<svg
   xmlns:dc="http://purl.org/dc/elements/1.1/"
   xmlns:cc="http://creativecommons.org/ns#"
   xmlns:rdf="http://www.w3.org/1999/02/22-rdf-syntax-ns#"
   xmlns:svg="http://www.w3.org/2000/svg"
   xmlns="http://www.w3.org/2000/svg"
   xmlns:sodipodi="http://sodipodi.sourceforge.net/DTD/sodipodi-0.dtd"
   xmlns:inkscape="http://www.inkscape.org/namespaces/inkscape"
   width="48"
   height="48"
   viewBox="0 0 12.7 12.7"
   version="1.1"
   id="svg4"
   sodipodi:docname="vim.svg"
   inkscape:version="0.92.4 (5da689c313, 2019-01-14)">
  <metadata
     id="metadata10">
    <rdf:RDF>
      <cc:Work
         rdf:about="">
        <dc:format>image/svg+xml</dc:format>
        <dc:type
           rdf:resource="http://purl.org/dc/dcmitype/StillImage" />
        <dc:title></dc:title>
      </cc:Work>
    </rdf:RDF>
  </metadata>
  <defs
     id="defs8" />
  <sodipodi:namedview
     pagecolor="#ffffff"
     bordercolor="#666666"
     borderopacity="1"
     objecttolerance="10"
     gridtolerance="10"
     guidetolerance="10"
     inkscape:pageopacity="0"
     inkscape:pageshadow="2"
     inkscape:window-width="1087"
     inkscape:window-height="480"
     id="namedview6"
     showgrid="false"
     inkscape:zoom="4.9166667"
     inkscape:cx="2.1355932"
     inkscape:cy="24"
     inkscape:window-x="0"
     inkscape:window-y="25"
     inkscape:window-maximized="0"
     inkscape:current-layer="svg4" />
  <path
     d="m 6.344,0.073 a 6.29,6.29 0 0 0 -6.29,6.29 6.29,6.29 0 0 0 6.29,6.288 6.29,6.29 0 0 0 6.29,-6.289 6.29,6.29 0 0 0 -6.29,-6.29 z M 6.326,1.009 A 5.407,5.407 0 0 1 11.733,6.416 5.407,5.407 0 0 1 6.326,11.823 5.407,5.407 0 0 1 0.92,6.416 5.407,5.407 0 0 1 6.326,1.01 Z M 6.516,2.28 A 0.559,0.559 0 0 0 6.12,2.445 L 5.641,2.923 A 0.485,0.485 0 0 0 5.303,2.785 H 2.947 A 0.49,0.49 0 0 0 2.458,3.273 v 0.214 c 0,0.269 0.22,0.487 0.489,0.487 H 3.093 V 5.47 L 2.563,6 a 0.56,0.56 0 0 0 0,0.794 l 0.53,0.53 v 2.379 c 0,0.268 0.024,0.488 0.292,0.488 0.36,0.02 0.399,-0.075 1.157,-0.836 L 4.832,9.062 6.12,10.35 c 0.22,0.22 0.573,0.22 0.793,0 l 3.556,-3.556 a 0.56,0.56 0 0 0 0,-0.793 L 9.157,4.688 9.947,3.888 A 0.48,0.48 0 0 0 10.074,3.675 0.477,0.477 0 0 0 10.11,3.487 V 3.273 A 0.485,0.485 0 0 0 9.627,2.785 H 7.822 A 0.477,0.477 0 0 0 7.443,2.975 L 6.913,2.445 A 0.56,0.56 0 0 0 6.516,2.28 Z m 0,0.304 c 0.132,0 0.264,0.05 0.365,0.152 L 7.346,3.2 A 0.493,0.493 0 0 0 7.339,3.274 v 0.213 c 0,0.269 0.183,0.487 0.451,0.487 h 0.13 c 0,0 -1.6,1.64 -2.76,2.8 v -2.8 H 5.303 A 0.489,0.489 0 0 0 5.79,3.487 V 3.274 A 0.482,0.482 0 0 0 5.763,3.123 L 6.151,2.736 A 0.515,0.515 0 0 1 6.516,2.584 Z m 2.48,2.266 1.157,1.157 a 0.516,0.516 0 0 1 0,0.731 L 6.881,10.01 a 0.515,0.515 0 0 1 -0.73,0 L 5.016,8.875 Z M 3.093,5.793 v 1.16 L 2.879,6.738 a 0.516,0.516 0 0 1 0,-0.73 z"
     id="path2"
     inkscape:connector-curvature="0"
     style="fill:#2ca02c" />
</svg>
