<svg xmlns="http://www.w3.org/2000/svg" width="48" height="48" viewBox="0 0 12.7 12.7"><path d="M6.34.07a6.29 6.29 0 0 0-6.29 6.3 6.29 6.29 0 0 0 6.3 6.28 6.29 6.29 0 0 0 6.28-6.29A6.29 6.29 0 0 0 6.34.07zM6.32 1l.01.01a5.4 5.4 0 0 1 5.4 5.4 5.4 5.4 0 0 1-5.4 5.41 5.4 5.4 0 0 1-5.41-5.4A5.4 5.4 0 0 1 6.32 1zm-.56 2.95c-.3 0-.55.02-.71.1-.14.08-.25.23-.18.24.08.01.26.05.36.19.13.18.12.57.12.57s.07 1.1-.17 1.23c-.16.1-.4-.1-.88-.96-.25-.45-.44-.94-.44-.94s-.04-.1-.1-.14c-.08-.06-.2-.08-.2-.08H2.4s-.17.01-.24.09c-.05.07 0 .21 0 .21s.92 2.21 1.96 3.32c.95 1.02 2.03.95 2.03.95h.5s.14-.01.21-.1c.07-.07.07-.22.07-.22s0-.67.3-.77c.3-.1.68.65 1.1.94.3.22.54.17.54.17l1.1-.02s.57-.03.3-.5c-.03-.03-.16-.34-.82-.96-.69-.66-.6-.55.23-1.69.5-.69.71-1.1.65-1.29-.06-.17-.43-.12-.43-.12H8.65s-.09 0-.16.03a.35.35 0 0 0-.1.14s-.2.53-.46.99c-.55.95-.77 1-.86.95-.2-.14-.16-.56-.16-.86 0-.93.14-1.31-.26-1.41a2.05 2.05 0 0 0-.58-.06h-.31z" fill="#2ca02c"/></svg>
