<svg xmlns="http://www.w3.org/2000/svg" width="48" height="48" viewBox="0 0 12.7 12.7"><path fill="#2ca02c" d="M6.34.07a6.29 6.29 0 0 0-6.29 6.3 6.29 6.29 0 0 0 6.3 6.28 6.29 6.29 0 0 0 6.28-6.29A6.29 6.29 0 0 0 6.34.07zm-.01.94a5.4 5.4 0 0 1 5.4 5.4 5.4 5.4 0 0 1-5.4 5.41 5.4 5.4 0 0 1-5.41-5.4A5.4 5.4 0 0 1 6.32 1z"/><path fill="#f60" d="M6.4 1.87c-.24 0-.5.06-.78.2l-.38 1.38c.78.4 1.54.34 2.27 0l-.44-1.41a1.45 1.45 0 0 0-.68-.17zM4.76 5.03l-.44 1.48c1.46.68 2.82.63 4.07-.05l-.42-1.43c-1.05.34-2.11.49-3.21 0zM8.4 6.46l.36 1.24c-1.12 1-3.47 1.36-4.78.02l.35-1.2h-.75L2.4 9.3c0 .16.03.4.33.46l7.3.01c.32-.19.3-.32.28-.5l-1.17-2.8z" opacity=".75"/></svg>
