<svg xmlns="http://www.w3.org/2000/svg" width="48" height="48" viewBox="0 0 12.7 12.7"><path fill="#2ca02c" d="M6.35.06a6.29 6.29 0 0 0-6.29 6.3 6.29 6.29 0 0 0 6.29 6.28 6.29 6.29 0 0 0 6.29-6.29A6.29 6.29 0 0 0 6.35.06zM6.33 1a5.4 5.4 0 0 1 5.4 5.4 5.4 5.4 0 0 1-5.4 5.41 5.4 5.4 0 0 1-5.4-5.4A5.4 5.4 0 0 1 6.32 1zm.02.64A4.75 4.75 0 0 0 1.59 6.4a4.75 4.75 0 0 0 4.76 4.76 4.75 4.75 0 0 0 4.76-4.76c0-1.35-.56-2.56-1.45-3.43l-.13 1.07h.05l.1-.08h.03v.02c-.14.1-.28.39-.41.86-.05.4-.14.77-.26 1.11a3.39 3.39 0 0 0-.16.98l-.2.58c0 .05.08.1.23.15-.03.12-.07.18-.12.18v.03h.05v.02c0 .06-.08.1-.24.1l.03.03v.11h-.05c.03.12.1.18.2.18v.05h-.2v.04c.07 0 .1.05.1.15l-.29.11.03.03v.03c0 .04-.03.06-.1.06v.03c.08 0 .13.02.13.06-.13.05-.29.3-.5.73-.2.4-.38.59-.53.59h-.06c-.12-.09-.21-.38-.28-.88-.3-.75-.45-1.2-.45-1.33 0-.34-.1-.7-.28-1.09a3.06 3.06 0 0 1-.1-.64l-.13-.03a3.36 3.36 0 0 0-.5 1.33 2.88 2.88 0 0 0-.2.67c.2.06.29.12.29.18v.03c-.15-.02-.26-.06-.32-.12-.06.15-.15.56-.25 1.23-.09.32-.19.47-.31.47a2 2 0 0 1-.88-.67c-.04 0-.1-.16-.18-.47-.05 0-.09-.16-.1-.47a6 6 0 0 1-.37-1.53V6h-.02l-.13.03v-.03c0-.04.04-.06.13-.06l-.03-.5v-.38l-.2-1.24V3.3c.08-.33.24-.5.45-.5 0 0 .02 0 .09.09l-.09-.03c.34.44.54.82.6 1.12h.23v.06h-.18v.06c.07.26.12.38.16.38h.05l.13-.03.02.03.03-.03.03.03v.03a.48.48 0 0 0-.19.27h-.02v.06h.05c.07.92.19 1.61.36 2.09l.1.08h.06c.07 0 .21-.32.44-.97a4.97 4.97 0 0 0 .3-.76l-.02-.1c.14-.2.29-.32.44-.32h.05c.1 0 .17.06.2.18.14.19.24.46.32.82l.39.86c.05.06.07.13.07.2.15.33.28.55.4.65h.08c.1 0 .22-.4.38-1.2.03 0 .1-.22.23-.65V5.7l-.43-.06-.1.03h-.14V5.6l.26-.03h.52c.2-.7.38-1.26.54-1.65.06-.8.13-1.2.23-1.2l.18-.09a4.74 4.74 0 0 0-2.92-1zm.41 1.64h.08v.02c0 .04-.02.06-.08.06l-.02.03v.04l-.08-.04v-.05l.1-.06zm-.38.32v.03c0 .05-.11.1-.33.14v-.05l.15-.09.02.03h.03l.13-.06zm-.75.3v.02c-.1.09-.25.17-.47.24V4.1c.04 0 .05-.03.05-.09l.42-.11zm1.31.29l.03.03v.02l-.04.07H6.9l-.06-.07v-.02l.1-.03zm.96.03h.03v.02l-.05.07h-.03v-.03l.05-.06zm-.44.41l.1.08c-.01.06-.06.1-.14.1l-.06-.1c0-.02.03-.05.1-.08zm.63.38l.02.04v.02l-.02.03h-.06v-.03L8.1 5zm-.99.3v.02l-.13.13H6.9v-.04c0-.05.07-.08.2-.11zm-.9 2.53h.02v.05l-.2.13-.03-.04v-.05l.2-.1zm-.08.76h.02l.08.1-.02.02h-.03l-.05-.08V8.6z"/></svg>
