<svg xmlns="http://www.w3.org/2000/svg" width="48" height="48" viewBox="0 0 12.7 12.7"><path d="M6.34.07a6.29 6.29 0 0 0-6.29 6.3 6.29 6.29 0 0 0 6.3 6.28 6.29 6.29 0 0 0 6.28-6.29A6.29 6.29 0 0 0 6.34.07zM6.32 1l.01.01a5.4 5.4 0 0 1 5.4 5.4 5.4 5.4 0 0 1-5.4 5.41 5.4 5.4 0 0 1-5.41-5.4A5.4 5.4 0 0 1 6.32 1zm.03.85a4.5 4.5 0 0 0-4.5 4.5 4.5 4.5 0 0 0 4.5 4.5 4.5 4.5 0 0 0 4.5-4.5 4.5 4.5 0 0 0-4.5-4.5zm0 .27a4.23 4.23 0 0 1 3.07 1.32h-.24c-.42 0-.72.36-.72.75 0 .35.2.55.42.9.17.28.36.65.36 1.18 0 .36-.14.79-.33 1.38l-.43 1.42L6.94 4.5l.6-.01c.22-.03.2-.55-.03-.54 0 0-.8.06-1.25.06-.42 0-1.3-.06-1.3-.06-.24-.01-.27.53-.04.54l.64.01.66 1.8-.93 2.8-1.56-4.57.62-.04c.23-.03.2-.52-.02-.51 0 0-.83.05-1.28.05h-.24a4.23 4.23 0 0 1 3.54-1.91zm3.7 2.17a4.23 4.23 0 0 1 .53 2.06 4.23 4.23 0 0 1-2 3.6L9.8 6.4c.25-.6.25-1.1.25-1.53V4.3zm-7.53.27l-.07.18L4.4 10.1a4.23 4.23 0 0 0 .8.32l1.23-3.56 1.27 3.5.45-.18a4.23 4.23 0 0 1-.45.18 4.23 4.23 0 0 1-1.35.22 4.23 4.23 0 0 1-1.15-.16 4.23 4.23 0 0 1-.4-.14 4.23 4.23 0 0 1-.4-.18 4.23 4.23 0 0 1-2.28-3.75 4.23 4.23 0 0 1 .4-1.79zm5.85 5.5a4.23 4.23 0 0 1-.22.11l.22-.1z" fill="#2ca02c"/></svg>
