<?xml version="1.0" encoding="UTF-8" standalone="no"?>
<svg
   xmlns:dc="http://purl.org/dc/elements/1.1/"
   xmlns:cc="http://creativecommons.org/ns#"
   xmlns:rdf="http://www.w3.org/1999/02/22-rdf-syntax-ns#"
   xmlns:svg="http://www.w3.org/2000/svg"
   xmlns="http://www.w3.org/2000/svg"
   xmlns:sodipodi="http://sodipodi.sourceforge.net/DTD/sodipodi-0.dtd"
   xmlns:inkscape="http://www.inkscape.org/namespaces/inkscape"
   width="48"
   height="48"
   viewBox="0 0 12.7 12.7"
   version="1.1"
   id="svg13"
   sodipodi:docname="xmind.svg"
   inkscape:version="0.92.4 (5da689c313, 2019-01-14)">
  <metadata
     id="metadata17">
    <rdf:RDF>
      <cc:Work
         rdf:about="">
        <dc:format>image/svg+xml</dc:format>
        <dc:type
           rdf:resource="http://purl.org/dc/dcmitype/StillImage" />
        <dc:title></dc:title>
      </cc:Work>
    </rdf:RDF>
  </metadata>
  <sodipodi:namedview
     pagecolor="#ffffff"
     bordercolor="#666666"
     borderopacity="1"
     objecttolerance="10"
     gridtolerance="10"
     guidetolerance="10"
     inkscape:pageopacity="0"
     inkscape:pageshadow="2"
     inkscape:window-width="1087"
     inkscape:window-height="480"
     id="namedview15"
     showgrid="false"
     inkscape:zoom="4.9166667"
     inkscape:cx="2.1355932"
     inkscape:cy="24"
     inkscape:window-x="0"
     inkscape:window-y="25"
     inkscape:window-maximized="0"
     inkscape:current-layer="svg13" />
  <defs
     id="defs7">
    <linearGradient
       id="a">
      <stop
         offset="0"
         stop-color="#fcfcfc"
         id="stop2" />
      <stop
         offset="1"
         stop-color="#fbc2bb"
         id="stop4" />
    </linearGradient>
  </defs>
  <path
     d="M 6.34,0.07 A 6.29,6.29 0 0 0 0.05,6.37 6.29,6.29 0 0 0 6.35,12.65 6.29,6.29 0 0 0 12.63,6.36 6.29,6.29 0 0 0 6.34,0.07 Z M 6.33,1.01 a 5.4,5.4 0 0 1 5.4,5.4 5.4,5.4 0 0 1 -5.4,5.41 A 5.4,5.4 0 0 1 0.92,6.42 5.4,5.4 0 0 1 6.32,1 Z"
     id="path9"
     inkscape:connector-curvature="0"
     style="fill:#2ca02c" />
  <path
     d="M 4.44,3.51 H 4.37 L 2.22,3.91 C 2.09,3.96 1.98,4.04 1.96,4.11 1.91,4.24 2.04,4.65 2.22,4.93 2.92,5.77 3.7,5.98 4.46,6.43 4.56,6.53 4.59,6.58 3.91,6.88 2.86,7.34 2.52,7.74 2.32,8.32 2.26,8.49 2.24,8.95 2.28,9.07 2.33,9.22 2.36,9.25 3.38,9.05 4.4,8.85 4.31,8.85 4.4,8.77 4.47,8.7 4.47,8.69 4.5,8.37 L 4.58,7.76 C 4.64,7.55 4.8,7.32 4.97,7.2 5.6,6.76 6.8,6.98 7.44,7.67 c 0.25,0.25 0.4,0.62 0.52,1.03 0.07,0.23 0.15,0.33 0.26,0.35 0.1,0.02 0.1,-0.01 1.4,-0.26 0.72,-0.14 1.02,-0.2 1.06,-0.23 0.1,-0.08 0.1,-0.25 0,-0.54 A 2.3,2.3 0 0 0 9.76,6.82 6.25,6.25 0 0 0 8.66,6.2 C 8.16,5.96 7.92,5.9 7.92,5.82 7.92,5.76 8.12,5.73 8.52,5.62 9.4,5.35 9.82,4.98 9.82,4.3 9.82,4 9.76,3.76 9.67,3.68 9.56,3.58 9.35,3.58 8.87,3.66 7.29,3.95 7.4,3.94 7.33,4.06 7.29,4.12 7.29,4.13 7.36,4.42 L 7.44,4.83 C 7.44,4.93 7.3,5.1 7.24,5.16 7.08,5.31 6.73,5.4 6.37,5.4 A 1.4,1.4 0 0 1 5.27,4.9 C 5.03,4.65 4.91,4.4 4.75,3.96 4.61,3.56 4.59,3.51 4.45,3.51 Z"
     id="path11"
     inkscape:connector-curvature="0"
     style="opacity:0.75;fill:#ff0000" />
</svg>
