<svg xmlns="http://www.w3.org/2000/svg" width="24" height="24" version="1"><path d="M12 .16A11.84 11.84 0 0 0 .16 12 11.84 11.84 0 0 0 12 23.84a11.84 11.84 0 0 0 4.01-.71 5.02 4.99 0 0 1-.04-.04 5.02 4.99 0 0 1-.34-.36 5.02 4.99 0 0 1-.3-.4 5.02 4.99 0 0 1-.27-.42 5.02 4.99 0 0 1-.05-.12 10.18 10.18 0 0 1-2.69.48l2.17-2.17a5.02 4.99 0 0 1-.02-.08 5.02 4.99 0 0 1-.02-.5 5.02 4.99 0 0 1 .01-.36 5.02 4.99 0 0 1 .06-.5 5.02 4.99 0 0 1 .11-.48 5.02 4.99 0 0 1 .16-.47 5.02 4.99 0 0 1 .2-.46 5.02 4.99 0 0 1 .26-.43 5.02 4.99 0 0 1 .29-.4 5.02 4.99 0 0 1 .33-.38 5.02 4.99 0 0 1 .37-.34 5.02 4.99 0 0 1 .4-.3 5.02 4.99 0 0 1 .42-.26 5.02 4.99 0 0 1 .46-.22 5.02 4.99 0 0 1 .47-.17 5.02 4.99 0 0 1 .48-.12 5.02 4.99 0 0 1 .5-.07 5.02 4.99 0 0 1 .5-.03 5.02 4.99 0 0 1 .36.01 5.02 4.99 0 0 1 .2.03l2.09-2.1a10.18 10.18 0 0 1-.44 2.57 5.02 4.99 0 0 1 .07.03 5.02 4.99 0 0 1 .44.25 5.02 4.99 0 0 1 .4.3 5.02 4.99 0 0 1 .38.32 5.02 4.99 0 0 1 .13.14 11.84 11.84 0 0 0 .74-4.08A11.84 11.84 0 0 0 12 .16zm-.54 1.78L8.9 4.5H5.2a10.18 10.18 0 0 1 6.26-2.56zm1.19 0a10.18 10.18 0 0 1 6.08 2.56H15.2l-2.55-2.55zM4.44 5.26v3.7L1.8 11.6a10.18 10.18 0 0 1 2.63-6.33v-.02zm15.12.08a10.18 10.18 0 0 1 2.56 6.1l-2.56-2.56V5.33zM9.5 7.55h4.9v4.53h3.86l-6.3 6.29-6.3-6.3H9.5V7.55zM1.79 12.5l2.64 2.64v3.82a10.18 10.18 0 0 1-2.64-6.46zm17.68 3.03a4.02 4 0 0 0-4.02 4 4.02 4 0 0 0 4.02 3.99 4.02 4 0 0 0 4.02-4 4.02 4 0 0 0-4.02-3.99zm.01 1.25a.41.41 0 0 1 .42.42v3.4a.41.41 0 1 1-.82 0v-3.4a.41.41 0 0 1 .4-.42zm-14.5 2.72H8.8l2.77 2.78a10.18 10.18 0 0 1-6.6-2.78zm14.5 1.97a.42.42 0 1 1 0 .84.42.42 0 1 1 0-.84zm-.01.49a.52.52 0 0 1 .02 0 .52.52 0 0 0-.02 0z" fill="gray"/></svg>