<svg xmlns="http://www.w3.org/2000/svg" width="48" height="48"><path style="line-height:normal;text-indent:0;text-align:start;text-decoration-line:none;text-transform:none;marker:none" d="M29.705-.084c-2.047.008-4.121.088-4.517.098H7a2.938 2.938 0 0 0-.563 0C5.063.276 3.975 1.612 4 3.012V45c0 1.57 1.43 3 3 3h34c1.57 0 3-1.43 3-3V18.818c.018-.792.215-9.927-.336-10.496L34.054.248c-.284-.275-2.302-.34-4.349-.332zm1.49 3.094l.133 7.504c.012.681.638 1.29 1.317 1.279l7.771-.137c.133.018.268.017.4-.006l.082 3.03.102 4.09v26.227H7V3.021h18.672l5.523-.011zm-20.8 8.49v5h4v-5h-4zm11.34 5.643l-4.417 10.79h1.65c.352-.922.702-1.844 1.053-2.767h5.213l1.055 2.768h1.625l-4.406-10.791h-1.774zm.882 1.439l2.13 5.37h-4.253l2.123-5.37zm-12.222.918v5h4v-5h-4zm22.431.143c-1.085-.04-2.199.212-3.199.564v1.229c1.157-.583 2.553-.837 3.842-.538.915.204 1.523 1.063 1.424 1.926-1.462.043-2.992-.168-4.373.39-1.274.463-1.752 1.885-1.452 3.05.236 1.208 1.573 1.947 2.828 1.879 1.182.05 2.408-.447 2.997-1.438v1.229h1.425v-4.618c.015-1.22-.341-2.629-1.603-3.242a4.892 4.892 0 0 0-1.889-.431zm.65 4.222h1.372c.145.517-.03 1.304-.295 1.842-.48 1.042-1.817 1.547-2.961 1.244-1.172-.216-1.538-1.714-.801-2.5.716-.61 1.777-.55 2.686-.586zM10.396 27.5v5h4v-5h-4zm0 8v5h4v-5h-4z" color="#000" font-weight="400" font-family="Andale Mono" overflow="visible" fill="#a02c2c"/></svg>