<?xml version="1.0" encoding="UTF-8" standalone="no"?><svg xmlns:dc="http://purl.org/dc/elements/1.1/" xmlns:cc="http://creativecommons.org/ns#" xmlns:rdf="http://www.w3.org/1999/02/22-rdf-syntax-ns#" xmlns="http://www.w3.org/2000/svg" width="48" height="48" viewBox="0 0 12.7 12.7"><metadata><rdf:RDF><cc:Work><dc:format>image/svg+xml</dc:format><dc:type rdf:resource="http://purl.org/dc/dcmitype/StillImage"/><dc:title/></cc:Work></rdf:RDF></metadata><path d="M1.21.86L.14 3.66h6.04V.86H1.21zm5.18 0v2.8h6.11L11.4.86H6.4zM.19 3.89v6.31c0 .64.25 1.18.74 1.64.5.45 1.08.67 1.78.67h7.25c.7 0 1.28-.22 1.78-.67.49-.46.73-1 .73-1.64V3.9h-1.12v6.3c0 .36-.13.66-.4.91a1.4 1.4 0 0 1-.99.38H2.71a1.4 1.4 0 0 1-.99-.38 1.19 1.19 0 0 1-.41-.9V3.88H.19zm1.53 1.4v1.06H2v1.06h.53V6.35h.26V5.29H1.72zm1.32.05v.53h.53v-.53h-.53zm.53.53v.53h.53v-.53h-.53zm.53 0h.53v-.53H4.1v.53zm.53 0v.53h.53v-.53h-.53zm.53 0h.52v-.53h-.52v.53zm.52 0v.53h.53v-.53h-.53zm.53 0h.53v-.53h-.53v.53zm.53 0v.53h.53v-.53h-.53zm.53 0h.53v-.53h-.53v.53zm.53 0v.53h.53v-.53H7.8zm.53 0h.53v-.53h-.53v.53zm.53 0v.53h.53v-.53h-.53zm.53 0h.53v-.53h-.53v.53zm.53 0v.53h.53v-.53h-.53zm.53 0h.53v-.53h-.53v.53zm-8.46-.31h.53v.53h-.53v-.53zm8.37 2.34h-.09c-.4.02-.71.43-.67.86h.38c-.09-.55.74-.62.65-.04-.09.35-.4.54-.62.8-.13.14-.3.27-.4.43v.35h1.4c-.01-.13.03-.31-.02-.4h-.83c.29-.32.68-.56.83-1 .15-.46-.19-.98-.63-1zm-8.18.03a.23.23 0 0 0-.06.02c-.13 0-.3-.05-.25.16v.43c-.16-.04-.23.02-.19.2-.04.18.05.21.2.18v1.37h.38V8.92c.13 0 .3.04.24-.16.02-.16 0-.28-.17-.22-.14.01-.04-.24-.07-.34 0-.12.03-.27-.08-.27zm4.2.02v2.34c.11-.01.28.04.36-.02-.07-.45.31.22.56.07.55.03.9-.64.76-1.17-.09-.62-.89-.95-1.3-.47v-.75h-.38zm-2.85.52a.16.16 0 0 0-.08.03c-.5-.03-.9.5-.82 1.02.01.58.62.99 1.1.75.23-.2.25-.22.27.02.1-.02.3.07.34-.04V8.54c-.11.01-.28-.04-.36.02.06.4-.2-.06-.43-.09a.16.16 0 0 0-.02 0zm1.79.01c-.12 0-.38.24-.34.16.05-.19-.19-.07-.29-.1-.14-.02-.03.23-.06.33v1.42h.39c0-.38-.03-.77.02-1.15.1-.26.43-.18.32-.53.01-.09 0-.12-.04-.13zm2.97.06c.03.11-.05.34.04.37h.6l-.72 1v.38h1.24c-.03-.1.05-.33-.04-.37h-.73l.71-1c-.02-.12.05-.34-.04-.38H8.29zm-1.07.32c.45-.03.64.68.31.97-.28.27-.78.05-.78-.37-.04-.3.17-.61.47-.6zm-3.73.02c.42-.02.62.6.36.91-.25.32-.83.14-.83-.3-.04-.3.17-.62.47-.6zm2.13 1v.01zm0 .01v.4H6v-.4h-.38z" fill="#a02c2c"/></svg>