<svg xmlns="http://www.w3.org/2000/svg" width="48" height="48"><path style="line-height:normal;text-indent:0;text-align:start;text-decoration-line:none;text-transform:none;marker:none" d="M29.705-.084c-2.047.008-4.121.088-4.517.098H7a2.938 2.938 0 0 0-.563 0C5.063.276 3.975 1.612 4 3.012V45c0 1.57 1.43 3 3 3h34c1.57 0 3-1.43 3-3V18.818c.018-.792.215-9.927-.336-10.496L34.054.248c-.284-.275-2.302-.34-4.349-.332zm1.49 3.094l.133 7.504c.012.681.638 1.29 1.317 1.279l7.771-.137c.133.018.268.017.4-.006l.082 3.03.102 4.09v26.227H7V3.021h18.672l5.523-.011zm-2.703 3.242c-4.127.658-8.872 1.336-12.988 2.031-1.09.526-.844 1.882-.893 2.865v13.163c-2.8-.642-5.874 1.45-5.996 4.423-.198 1.852 1.46 3.463 3.264 3.506 3.23.078 5.684-2.042 5.719-4.724-.036-4.505.01-9.011 0-13.516.5-.037 8.319-1.465 9-1.56v10.12c-2.584-.76-5.165.83-5.801 3.497-.47 1.544.24 3.369 1.771 4.002 2.991 1.36 7.197-1.396 7.03-4.63-.047-6.006.038-12.014 0-18.02-.079-.565-.464-1.198-1.106-1.157zm-7.363 28.73c-.956-.037-1.966.444-2.455 1.262-.92 1.425-.446 3.686 1.21 4.332.992.417 2.277.256 2.96-.637.06.211-.12.66.09.721h1.13v-5.539h-1.22c-.046.216.128 1.03-.178.527-.41-.433-.964-.643-1.537-.666zm-11.123.14l1.98 5.538h.82l1.071-3.59 1.049 3.59h.83l2-5.539h-1.42l-1.01 3.379-.91-3.379h-1.06l-.93 3.379-.99-3.379h-1.43zm14.52 0l2.23 5.538h1.06l2.229-5.539h-1.5l-1.26 3.67c-.427-1.223-.852-2.447-1.28-3.67h-1.48zm-3.352 1.089c1.12-.066 1.883 1.17 1.566 2.182-.223 1.28-2.072 1.57-2.832.613-.785-.95-.218-2.717 1.092-2.787l.174-.008z" color="#000" font-weight="400" font-family="Andale Mono" overflow="visible" fill="#a02c2c"/></svg>