<svg xmlns="http://www.w3.org/2000/svg" width="48" height="48"><path d="M10.213 2.354c-.778-.018-1.566.039-2.334.003v11.34c-.136.568.145.729.666.621 1.477-.073 3.024.213 4.422-.404 1.785-.774 2.484-3.305 1.271-4.89-.193-.783-2.17-1.02-1.484-1.463 1.646-1.075 1.473-3.893-.274-4.766-.722-.333-1.489-.424-2.267-.441zm8.27.029l-1.64 11.986h1.114l1.121-8.637 3.719 7.772c.234.29.225.985.703.865l4.078-8.572 1.12 8.504c.26.166.787.018 1.146.068L28.34 3.477c-.142-.33.063-1.075-.338-1.094l-4.643 9.834-4.216-8.844c-.239-.299-.254-.972-.66-.99zm16.898 0c-.845-.005-1.694.033-2.537.008v11.912c.24.166.76.013 1.11.062V9.812c.1-.315-.214-1.083.233-1.029 1.593-.074 3.39.26 4.729-.873 1.593-1.444 1.058-4.674-1.021-5.27-.828-.203-1.669-.252-2.514-.257zM9.029 3.512c.798.022 1.609-.066 2.393.123 1.157.187 1.623 1.663 1.03 2.617-.694 1.234-2.226 1.08-3.423 1.09v-3.83zm26.67.023c.582.001 1.16.032 1.729.166 1.466.42 1.706 2.834.379 3.586-1.202.57-2.577.292-3.854.342V3.545c.578.018 1.164-.01 1.746-.01zM9.03 8.557c1.11.028 2.287-.096 3.33.373 1.363.533 1.717 2.54.606 3.521-1.086.974-2.61.612-3.936.684V8.557zm-1.968 7.869L3.79 18.834l-2.787 2.049 2.049 2.787 13.836 18.805v4.072h.011v1.305h28.61v-.055h.015v-29.79h-.093v-.003H34.44l-1.096-1.49-4.307-.014 1.108 1.506H16.887V36.63L5.84 21.619l7.03-5.172 16.167.053-21.976-.074zm13.283 5.039h21.722V41.39H20.39l-.045-.063V21.465z" fill="#a02c2c"/></svg>