<svg xmlns="http://www.w3.org/2000/svg" width="48" height="48"><path style="line-height:normal;text-indent:0;text-align:start;text-decoration-line:none;text-transform:none;marker:none" d="M32.938-.012c-.999.32-1.335 1.84-.565 2.555l9.035 9.082c.835.796 2.497.115 2.541-1.041V1.502c0-.793-.717-1.514-1.506-1.514h-9.035a1.548 1.548 0 0 0-.47 0zm-26.5.026C5.062.276 3.974 1.612 4 3.012V45c0 1.57 1.43 3 3 3h34c1.57 0 3-1.43 3-3V18.818a3.038 3.038 0 0 0-.844-2.156L27.344.857a3.038 3.038 0 0 0-2.157-.843H7a2.938 2.938 0 0 0-.563 0zM7 3.02h18.672l.187.188 14.907 15 .234.234v26.555H7V3.021zm5.832 15.897a1.1 1.1 0 0 0-1.1 1.1v3.533a1.1 1.1 0 0 0 1.1 1.1H35.39a1.1 1.1 0 0 0 1.1-1.1v-3.533a1.1 1.1 0 0 0-1.1-1.1H12.833zm0 8.156a1.1 1.1 0 0 0-1.1 1.1v3.533a1.1 1.1 0 0 0 1.1 1.1h10.057v-5.733H12.832zm12.48 0v5.733h10.079a1.1 1.1 0 0 0 1.1-1.1v-3.533a1.1 1.1 0 0 0-1.1-1.1H25.313zm-15.05 8.156a1.1 1.1 0 0 0-1.1 1.1v5.076a1.1 1.1 0 0 0 1.1 1.1h12.627V35.23H10.262zm15.05 0v7.276h12.649a1.1 1.1 0 0 0 1.1-1.1V36.33a1.1 1.1 0 0 0-1.1-1.1H25.313z" color="#000" font-weight="400" font-family="Andale Mono" overflow="visible" fill="#a02c2c"/></svg>