<?xml version="1.0" encoding="UTF-8" standalone="no"?>
<svg
   xmlns:dc="http://purl.org/dc/elements/1.1/"
   xmlns:cc="http://creativecommons.org/ns#"
   xmlns:rdf="http://www.w3.org/1999/02/22-rdf-syntax-ns#"
   xmlns:svg="http://www.w3.org/2000/svg"
   xmlns="http://www.w3.org/2000/svg"
   xmlns:sodipodi="http://sodipodi.sourceforge.net/DTD/sodipodi-0.dtd"
   xmlns:inkscape="http://www.inkscape.org/namespaces/inkscape"
   width="48"
   height="48"
   viewBox="0 0 12.7 12.7"
   version="1.1"
   id="svg6"
   sodipodi:docname="application-x-shar.svg"
   inkscape:version="0.92.5 (2060ec1f9f, 2020-04-08)">
  <metadata
     id="metadata12">
    <rdf:RDF>
      <cc:Work
         rdf:about="">
        <dc:format>image/svg+xml</dc:format>
        <dc:type
           rdf:resource="http://purl.org/dc/dcmitype/StillImage" />
        <dc:title></dc:title>
      </cc:Work>
    </rdf:RDF>
  </metadata>
  <defs
     id="defs10" />
  <sodipodi:namedview
     pagecolor="#ffffff"
     bordercolor="#666666"
     borderopacity="1"
     objecttolerance="10"
     gridtolerance="10"
     guidetolerance="10"
     inkscape:pageopacity="0"
     inkscape:pageshadow="2"
     inkscape:window-width="1087"
     inkscape:window-height="480"
     id="namedview8"
     showgrid="false"
     inkscape:zoom="4.9166667"
     inkscape:cx="2.1355932"
     inkscape:cy="24"
     inkscape:window-x="0"
     inkscape:window-y="25"
     inkscape:window-maximized="0"
     inkscape:current-layer="svg6" />
  <path
     style="fill:#7f7f7f;stroke-width:1"
     d="M 1.3229166,0.79374999 0.26510009,3.4401 H 6.0848999 V 0.79374999 Z m 5.2921834,0 V 3.4401 h 5.8198 L 11.377084,0.79374999 Z M 0.26510009,3.96875 v 6.35 c 0,1.172 0.94414991,2.11615 2.11614991,2.11615 h 7.9375 a 2.112,2.112 0 0 0 2.11615,-2.11615 v -6.35 h -0.792716 v 6.35 A 1.32,1.32 0 0 1 10.31875,11.642183 H 2.3802165 A 1.32,1.32 0 0 1 1.056783,10.31875 v -6.35 z M 1.8531169,4.9769572 V 6.0368407 H 2.1332031 V 7.0972412 H 2.6628865 V 6.0368407 H 2.922819 V 4.9769572 Z m 1.3198162,0.050126 V 5.5567667 H 3.7031332 V 5.0270833 Z M 3.7031332,5.5567667 V 6.0869668 H 4.2328166 V 5.5567667 Z m 0.5296834,0 H 4.7630167 V 5.0270833 H 4.2328166 Z m 0.5302001,0 V 6.0869668 H 5.2932168 V 5.5567667 Z m 0.5302001,0 h 0.519865 V 5.0270833 h -0.519865 z m 0.519865,0 V 6.0869668 H 6.3427652 V 5.5567667 Z m 0.5296834,0 H 6.8729653 V 5.0270833 H 6.3427652 Z m 0.5302001,0 V 6.0869668 H 7.4031657 V 5.5567667 Z m 0.5302004,0 H 7.9328491 V 5.0270833 H 7.4031657 Z m 0.5296834,0 V 6.0869668 H 8.4630492 V 5.5567667 Z m 0.5302001,0 H 8.9932493 V 5.0270833 H 8.4630492 Z m 0.5302001,0 V 6.0869668 H 9.522933 V 5.5567667 Z m 0.5296837,0 h 0.5302 V 5.0270833 h -0.5302 z m 0.5302,0 v 0.5302001 h 0.529684 V 5.5567667 Z m 0.529684,0 h 0.5302 V 5.0270833 h -0.5302 z M 2.1228678,5.2472248 H 2.6530681 V 5.7769082 H 2.1228678 Z m 2.3001181,2.2996014 v 0.010335 z m 0.1669147,0.8821166 -0.020154,0.00982 h 0.020154 z m 0,0.00982 V 10.779187 H 5.0002117 V 9.8789835 c 0,-0.17 0.00994,-0.2698496 0.059944,-0.3498495 0.06,-0.1000001 0.1697233,-0.160197 0.2997232,-0.160197 0.2600002,0 0.3503663,0.1400463 0.3503663,0.5100465 V 10.779187 H 6.1298584 V 9.7792481 c 0,-0.2500001 -0.029889,-0.4003818 -0.1198893,-0.5203817 -0.11,-0.1900002 -0.319991,-0.2899048 -0.5699911,-0.2899048 A 0.63,0.63 0 0 0 5.0002117,9.138977 V 8.4387612 Z m -0.8598958,0.5302004 -0.00982,0.00982 c -0.3200001,0 -0.5803262,0.2302002 -0.5803262,0.5302002 0,0.2599999 0.1402278,0.399865 0.5002275,0.5198646 0.1500003,0.06 0.159988,0.07025 0.199988,0.100252 0.06,0.03 0.089917,0.07971 0.089917,0.129708 0,0.1 -0.079988,0.170016 -0.199988,0.170016 -0.1199999,0 -0.18996,-0.05981 -0.22996,-0.209807 H 3.0799154 c 0.02,0.17 0.049889,0.25985 0.1198893,0.34985 A 0.65999999,0.65999999 0 0 0 3.7201864,10.818978 0.59999998,0.59999998 0 0 0 4.350122,10.219014 0.44999999,0.44999999 0 0 0 4.1899252,9.849011 0.96,0.96 0 0 0 3.8602295,9.7089678 L 3.6499064,9.6288695 c -0.06,-0.02 -0.089917,-0.059889 -0.089917,-0.1198893 0,-0.08 0.070197,-0.1400432 0.160197,-0.1400432 0.1,0 0.1500153,0.040043 0.1700154,0.1400432 H 4.2999959 A 0.47000001,0.47000001 0 0 0 4.1801066,9.1689493 0.59999998,0.59999998 0 0 0 3.7300048,8.9689616 Z m 3.5801432,0.00982 c -0.5199999,0 -0.9002033,0.3901758 -0.9002035,0.9301758 0,0.53 0.3698682,0.910022 0.8898683,0.910022 0.2399999,0 0.4103262,-0.07975 0.5803263,-0.269751 v 0.22996 H 8.2697793 V 9.0201212 H 7.8801391 V 9.2598998 A 0.64999999,0.64999999 0 0 0 7.3241008,8.9798135 V 8.97878 a 0.64999999,0.64999999 0 0 0 -0.013953,0 z m 2.2096843,0 c -0.18,0 -0.2698218,0.050323 -0.3798218,0.2103231 V 9.0289061 H 8.7400349 V 10.789005 H 9.1699828 V 9.8092203 c 0,-0.2700001 0.1198218,-0.4101295 0.3798218,-0.4201295 V 8.9891152 H 9.5198323 Z M 7.3499389,9.368937 c 0.3,0 0.519865,0.2200188 0.519865,0.5400188 A 0.59999998,0.59999998 0 0 1 7.7400959,10.26914 0.48999999,0.48999999 0 0 1 7.3597574,10.428821 0.5,0.5 0 0 1 6.8398924,9.9089558 c 0,-0.32 0.2100466,-0.5400188 0.5100465,-0.5400188 z"
     id="path2"
     inkscape:connector-curvature="0" />
</svg>
