<?xml version="1.0" encoding="UTF-8" standalone="no"?>
<svg
   xmlns:dc="http://purl.org/dc/elements/1.1/"
   xmlns:cc="http://creativecommons.org/ns#"
   xmlns:rdf="http://www.w3.org/1999/02/22-rdf-syntax-ns#"
   xmlns:svg="http://www.w3.org/2000/svg"
   xmlns="http://www.w3.org/2000/svg"
   xmlns:sodipodi="http://sodipodi.sourceforge.net/DTD/sodipodi-0.dtd"
   xmlns:inkscape="http://www.inkscape.org/namespaces/inkscape"
   width="48"
   height="48"
   viewBox="0 0 12.7 12.7"
   version="1.1"
   id="svg4"
   sodipodi:docname="application-x-deb.svg"
   inkscape:version="0.92.5 (2060ec1f9f, 2020-04-08)">
  <metadata
     id="metadata10">
    <rdf:RDF>
      <cc:Work
         rdf:about="">
        <dc:format>image/svg+xml</dc:format>
        <dc:type
           rdf:resource="http://purl.org/dc/dcmitype/StillImage" />
        <dc:title></dc:title>
      </cc:Work>
    </rdf:RDF>
  </metadata>
  <defs
     id="defs8" />
  <sodipodi:namedview
     pagecolor="#ffffff"
     bordercolor="#666666"
     borderopacity="1"
     objecttolerance="10"
     gridtolerance="10"
     guidetolerance="10"
     inkscape:pageopacity="0"
     inkscape:pageshadow="2"
     inkscape:window-width="1087"
     inkscape:window-height="480"
     id="namedview6"
     showgrid="false"
     inkscape:zoom="4.9166667"
     inkscape:cx="2.1355932"
     inkscape:cy="24"
     inkscape:window-x="0"
     inkscape:window-y="25"
     inkscape:window-maximized="0"
     inkscape:current-layer="svg4" />
  <path
     d="M 1.323,0.794 0.265,3.44 h 5.82 V 0.794 Z m 5.292,0 V 3.44 h 5.82 L 11.377,0.794 Z m -6.35,3.175 v 6.35 c 0,1.172 0.944,2.116 2.116,2.116 h 7.938 a 2.112,2.112 0 0 0 2.116,-2.116 v -6.35 h -0.793 v 6.35 a 1.32,1.32 0 0 1 -1.323,1.323 H 2.38 A 1.32,1.32 0 0 1 1.057,10.319 V 3.969 Z M 6.66,5.018 6.504,5.031 C 6.242,5.055 6.646,5.035 6.66,5.018 Z M 6.275,5.058 C 6.245,5.03 5.939,5.161 5.989,5.076 A 4.26,4.26 0 0 0 5.218,5.444 1.964,1.964 0 0 0 4.693,5.866 C 4.51,6.03 4.475,6.293 4.309,6.462 4.166,6.628 4.09,6.966 4.007,7.207 c 0.044,0.212 0,0.43 0.016,0.646 -0.05,0.885 0.35,1.765 0.997,2.361 0.44,0.423 1.04,0.709 1.66,0.67 C 6.477,10.808 6.22,10.836 6.042,10.682 5.98,10.635 5.882,10.509 5.847,10.5 5.935,10.663 5.633,10.406 5.571,10.41 5.685,10.302 5.391,10.28 5.371,10.145 5.208,10.202 5.169,9.844 5.116,9.905 5.07,9.835 4.804,9.555 4.913,9.545 4.791,9.425 4.783,9.265 4.681,9.085 4.807,9.229 4.785,9.076 4.702,8.968 4.596,8.893 4.35,8.744 4.437,8.613 4.383,8.533 4.357,8.45 4.386,8.355 4.259,8.105 4.316,7.803 4.342,7.533 4.35,7.351 4.37,7.17 4.47,7.013 4.481,6.939 4.636,6.793 4.533,6.772 A 2.33,2.33 0 0 1 5.086,6.19 C 5.133,6.147 5.472,6.035 5.299,6.063 5.328,5.918 5.652,5.883 5.789,5.813 5.537,5.871 5.809,5.775 5.909,5.713 5.949,5.638 6.429,5.566 6.174,5.649 6.204,5.639 6.612,5.559 6.798,5.612 7.275,5.654 7.678,5.976 7.917,6.377 8.039,6.559 8.085,6.807 8.132,6.995 8.126,7.215 8.162,7.441 8.091,7.654 8.2,7.423 8.097,7.851 8.051,7.91 7.873,7.975 7.988,8.216 7.778,8.278 7.718,8.348 7.423,8.564 7.569,8.386 7.449,8.499 7.307,8.592 7.156,8.606 6.576,8.79 5.936,8.244 5.952,7.652 5.91,7.724 5.912,7.582 5.928,7.502 5.976,7.012 6.495,6.652 6.97,6.772 7.07,6.744 7.439,7.068 7.25,6.872 6.92,6.505 6.248,6.568 6.011,7.006 5.876,7.108 5.861,7.286 5.783,7.422 5.731,7.701 5.763,8.01 5.933,8.245 6.028,8.451 6.321,8.547 6.386,8.737 6.264,8.728 5.906,8.317 6.089,8.56 6.311,8.788 6.002,8.524 5.942,8.43 5.779,8.248 5.912,8.476 5.992,8.54 6.289,8.82 6.727,9.039 7.14,8.916 6.894,8.902 6.577,8.932 6.4,8.713 6.741,8.83 7.154,8.866 7.499,8.707 7.731,8.618 7.918,8.432 8.091,8.279 8.056,8.519 8.113,8.131 8.182,8.079 8.272,8.248 8.232,8.027 8.301,7.959 8.377,7.865 8.441,7.387 8.426,7.734 8.364,7.977 8.471,7.677 8.441,7.594 8.424,7.424 8.466,7.547 8.493,7.638 8.443,7.518 8.593,7.278 8.526,7.253 8.466,7.093 8.529,6.996 8.431,6.835 8.578,7.055 8.457,6.695 8.44,6.609 8.363,6.639 8.272,6.398 8.44,6.437 8.525,6.426 8.603,6.766 8.65,6.881 8.735,7.187 8.632,6.726 8.599,6.655 8.58,6.6 8.523,6.301 8.621,6.483 8.525,6.14 8.298,5.846 8.029,5.618 7.961,5.553 7.577,5.285 7.806,5.501 7.67,5.436 7.572,5.256 7.39,5.341 7.253,5.297 7.115,5.217 6.97,5.181 6.778,5.087 6.78,5.168 6.608,5.155 6.528,5.172 6.234,5.197 6.475,5.137 6.735,5.095 6.267,5.077 6.493,5.112 6.558,5.135 6.348,5.138 6.307,5.126 6.172,5.126 6.132,5.133 6.275,5.06 V 5.059 Z M 4.132,6.272 4.13,6.322 C 4.003,6.561 4.296,6.272 4.132,6.272 Z M 4.029,6.716 c -0.127,0.248 -0.01,0.28 0,0 z m 3.455,0.653 -0.022,0.03 c -0.01,0.208 0.1,0.03 0.022,-0.03 z M 8.556,7.663 C 8.5,7.857 8.464,8.06 8.37,8.243 8.467,8.068 8.528,7.863 8.556,7.663 Z M 7.43,7.73 C 7.392,7.804 7.37,7.923 7.27,7.944 7.293,8.019 7.448,7.847 7.43,7.73 Z M 7.334,7.79 A 0.818,0.818 0 0 0 7.273,7.866 0.149,0.149 0 0 0 7.269,7.944 C 7.284,7.883 7.357,7.767 7.334,7.79 Z m -0.3,0.312 A 0.558,0.558 0 0 1 6.873,8.118 c -0.277,-0.04 0.112,0.17 0.16,-0.016 z m -1.23,0.012 c 0,0.04 0.024,0.077 0.042,0.112 C 5.971,8.448 5.863,8.186 5.804,8.114 Z M 5.725,8.251 C 5.681,8.376 5.845,8.478 5.912,8.568 A 3.81,3.81 0 0 0 5.725,8.251 Z"
     id="path2"
     inkscape:connector-curvature="0"
     style="fill:#7f7f7f" />
</svg>
