<?xml version="1.0" encoding="UTF-8" standalone="no"?>
<svg
   xmlns:dc="http://purl.org/dc/elements/1.1/"
   xmlns:cc="http://creativecommons.org/ns#"
   xmlns:rdf="http://www.w3.org/1999/02/22-rdf-syntax-ns#"
   xmlns:svg="http://www.w3.org/2000/svg"
   xmlns="http://www.w3.org/2000/svg"
   xmlns:sodipodi="http://sodipodi.sourceforge.net/DTD/sodipodi-0.dtd"
   xmlns:inkscape="http://www.inkscape.org/namespaces/inkscape"
   width="48"
   height="48"
   version="1.1"
   id="svg6"
   sodipodi:docname="application-msoutlook.svg"
   inkscape:version="0.92.4 (5da689c313, 2019-01-14)">
  <metadata
     id="metadata12">
    <rdf:RDF>
      <cc:Work
         rdf:about="">
        <dc:format>image/svg+xml</dc:format>
        <dc:type
           rdf:resource="http://purl.org/dc/dcmitype/StillImage" />
        <dc:title></dc:title>
      </cc:Work>
    </rdf:RDF>
  </metadata>
  <defs
     id="defs10" />
  <sodipodi:namedview
     pagecolor="#ffffff"
     bordercolor="#666666"
     borderopacity="1"
     objecttolerance="10"
     gridtolerance="10"
     guidetolerance="10"
     inkscape:pageopacity="0"
     inkscape:pageshadow="2"
     inkscape:window-width="1138"
     inkscape:window-height="480"
     id="namedview8"
     showgrid="false"
     inkscape:zoom="4.9166667"
     inkscape:cx="2.1355932"
     inkscape:cy="24"
     inkscape:window-x="0"
     inkscape:window-y="25"
     inkscape:window-maximized="0"
     inkscape:current-layer="svg6" />
  <path
     d="M 29.705078 -0.083984375 C 27.658078 -0.075984375 25.5835 0.003671875 25.1875 0.013671875 L 7 0.013671875 A 2.938 2.938 0 0 0 6.4375 0.013671875 C 5.0645 0.27567188 3.975 1.6117188 4 3.0117188 L 4 45 C 4 46.57 5.43 48 7 48 L 41 48 C 42.57 48 44 46.57 44 45 L 44 18.818359 C 44.018 18.026359 44.215062 8.8912656 43.664062 8.3222656 L 34.054688 0.24804688 C 33.773688 -0.026953125 31.752078 -0.091984375 29.705078 -0.083984375 z M 31.195312 3.0097656 L 31.328125 10.513672 C 31.340125 11.193672 31.965531 11.803969 32.644531 11.792969 L 40.416016 11.65625 C 40.549016 11.67425 40.684406 11.674391 40.816406 11.650391 L 40.898438 14.679688 L 41 18.769531 L 41 44.996094 L 7 44.996094 L 7 3.0214844 L 25.671875 3.0214844 L 31.195312 3.0097656 z M 15.599609 19.535156 C 15.209609 19.535156 14.513672 20.0685 14.513672 20.8125 L 21.763672 25.699219 L 21.763672 25.728516 L 22.464844 26.169922 L 23.835938 27.09375 C 23.857937 27.10075 23.892734 27.09275 23.927734 27.09375 C 23.981734 27.09575 24.038266 27.10375 24.072266 27.09375 C 24.107266 27.09275 24.143016 27.10075 24.166016 27.09375 L 25.535156 26.169922 L 26.234375 25.730469 L 26.234375 25.699219 L 33.486328 20.8125 C 33.486328 20.0685 32.789438 19.535156 32.398438 19.535156 L 21.763672 19.535156 L 15.599609 19.535156 z M 33.486328 23.316406 C 33.486328 23.316406 28.535234 26.611531 26.240234 28.144531 L 24.259766 29.400391 A 0.454 0.454 0 0 1 24.060547 29.480469 C 24.040547 29.482469 24.021 29.486328 24 29.486328 C 23.979 29.486328 23.960453 29.482469 23.939453 29.480469 A 0.454 0.454 0 0 1 23.740234 29.400391 L 21.763672 28.044922 C 19.469672 26.511922 14.513672 23.318359 14.513672 23.318359 L 14.513672 34.705078 C 14.513672 35.945078 15.309172 36.464844 16.201172 36.464844 L 31.800781 36.464844 C 32.692781 36.464844 33.486328 35.945078 33.486328 34.705078 L 33.486328 23.316406 z "
     id="path2"
     style="fill:#7f7f7f" />
</svg>
