<?xml version="1.0" encoding="UTF-8" standalone="no"?>
<svg
   xmlns:dc="http://purl.org/dc/elements/1.1/"
   xmlns:cc="http://creativecommons.org/ns#"
   xmlns:rdf="http://www.w3.org/1999/02/22-rdf-syntax-ns#"
   xmlns:svg="http://www.w3.org/2000/svg"
   xmlns="http://www.w3.org/2000/svg"
   xmlns:sodipodi="http://sodipodi.sourceforge.net/DTD/sodipodi-0.dtd"
   xmlns:inkscape="http://www.inkscape.org/namespaces/inkscape"
   width="48"
   height="48"
   viewBox="0 0 12.7 12.7"
   version="1.1"
   id="svg6"
   sodipodi:docname="application-x-xz-compressed-tar.svg"
   inkscape:version="0.92.5 (2060ec1f9f, 2020-04-08)">
  <metadata
     id="metadata12">
    <rdf:RDF>
      <cc:Work
         rdf:about="">
        <dc:format>image/svg+xml</dc:format>
        <dc:type
           rdf:resource="http://purl.org/dc/dcmitype/StillImage" />
        <dc:title></dc:title>
      </cc:Work>
    </rdf:RDF>
  </metadata>
  <defs
     id="defs10" />
  <sodipodi:namedview
     pagecolor="#ffffff"
     bordercolor="#666666"
     borderopacity="1"
     objecttolerance="10"
     gridtolerance="10"
     guidetolerance="10"
     inkscape:pageopacity="0"
     inkscape:pageshadow="2"
     inkscape:window-width="1087"
     inkscape:window-height="480"
     id="namedview8"
     showgrid="false"
     inkscape:zoom="4.9166667"
     inkscape:cx="2.1355932"
     inkscape:cy="24"
     inkscape:window-x="0"
     inkscape:window-y="25"
     inkscape:window-maximized="0"
     inkscape:current-layer="svg6" />
  <path
     style="fill:#7f7f7f;stroke-width:1"
     d="M 1.3229166,0.79374999 0.26510009,3.4401 H 6.0848999 V 0.79374999 Z m 5.2921834,0 V 3.4401 h 5.8198 L 11.377084,0.79374999 Z M 0.26510009,3.96875 v 6.35 c 0,1.172 0.94414991,2.11615 2.11614991,2.11615 h 7.9375 a 2.112,2.112 0 0 0 2.11615,-2.11615 v -6.35 h -0.792716 v 6.35 A 1.32,1.32 0 0 1 10.31875,11.642183 H 2.3802165 A 1.32,1.32 0 0 1 1.056783,10.31875 v -6.35 z M 1.8531169,4.9769572 V 6.0368407 H 2.1332031 V 7.0972412 H 2.6628865 V 6.0368407 H 2.922819 V 4.9769572 Z m 1.3198162,0.050126 V 5.5567667 H 3.7031332 V 5.0270833 Z M 3.7031332,5.5567667 V 6.0869668 H 4.2328166 V 5.5567667 Z m 0.5296834,0 H 4.7630167 V 5.0270833 H 4.2328166 Z m 0.5302001,0 V 6.0869668 H 5.2932168 V 5.5567667 Z m 0.5302001,0 h 0.519865 V 5.0270833 h -0.519865 z m 0.519865,0 V 6.0869668 H 6.3427652 V 5.5567667 Z m 0.5296834,0 H 6.8729653 V 5.0270833 H 6.3427652 Z m 0.5302001,0 V 6.0869668 H 7.4031657 V 5.5567667 Z m 0.5302004,0 H 7.9328491 V 5.0270833 H 7.4031657 Z m 0.5296834,0 V 6.0869668 H 8.4630492 V 5.5567667 Z m 0.5302001,0 H 8.9932493 V 5.0270833 H 8.4630492 Z m 0.5302001,0 V 6.0869668 H 9.522933 V 5.5567667 Z m 0.5296837,0 h 0.5302 V 5.0270833 h -0.5302 z m 0.5302,0 v 0.5302001 h 0.529684 V 5.5567667 Z m 0.529684,0 h 0.5302 V 5.0270833 h -0.5302 z M 2.1228678,5.2472248 H 2.6530681 V 5.7769082 H 2.1228678 Z m 2.3001181,2.2996014 v 0.010335 z M 2.0401856,8.2439411 V 8.9038492 H 1.7998902 V 9.3337971 H 2.0298503 V 10.854118 H 2.5001058 V 9.3337971 H 2.7801919 V 8.8940306 H 2.5001058 V 8.2439411 Z m 1.8996256,0.5999633 c -0.58,0 -0.999939,0.4502468 -0.999939,1.0402467 0,0.5999999 0.4201205,1.0200929 0.9901206,1.0200929 a 0.79999998,0.79999998 0 0 0 0.6500894,-0.30024 v 0.250114 H 5.0002117 V 8.9038492 H 4.5697468 V 9.1637817 A 0.72999999,0.72999999 0 0 0 3.9299928,8.8640583 l 0.00982,-0.00982 z m 2.2701456,0 c -0.1999999,0 -0.3001293,0.070114 -0.4201295,0.2501141 V 8.8940306 H 5.3598794 V 10.854118 H 5.830135 V 9.7637451 c 0,-0.3000002 0.1296127,-0.459739 0.4196127,-0.4697389 V 8.8439044 Z m 1.1699544,0.050126 0.5999633,0.9498128 -0.6996988,0.9999386 h 0.5699911 l 0.3999756,-0.659908 0.4196125,0.670244 H 9.2299276 L 8.5302285,9.8541788 9.1301918,8.9038492 H 8.5999917 L 8.2599609,9.4939939 7.9101113,8.8940306 Z m 2.0500041,0 V 9.3239785 H 10.190076 L 9.3301798,10.42417 v 0.429948 h 1.4898322 v -0.42013 H 9.8898355 L 10.750248,9.3239785 V 8.8940306 Z m -5.439978,0.3901572 c 0.33,0 0.5699911,0.2499632 0.5699911,0.5999633 0,0.1499999 -0.050043,0.2999759 -0.1400432,0.3999759 a 0.54,0.54 0 0 1 -0.4299479,0.189652 c -0.3399999,0 -0.5699911,-0.229809 -0.5699911,-0.5798095 0,-0.3499998 0.2299912,-0.5999633 0.5699911,-0.5999633 z m 2.5600503,1.1198282 v 0.450102 h 0.4702556 v -0.450102 z"
     id="path2"
     inkscape:connector-curvature="0" />
</svg>
