<?xml version="1.0" encoding="UTF-8" standalone="no"?>
<svg
   xmlns:dc="http://purl.org/dc/elements/1.1/"
   xmlns:cc="http://creativecommons.org/ns#"
   xmlns:rdf="http://www.w3.org/1999/02/22-rdf-syntax-ns#"
   xmlns:svg="http://www.w3.org/2000/svg"
   xmlns="http://www.w3.org/2000/svg"
   xmlns:sodipodi="http://sodipodi.sourceforge.net/DTD/sodipodi-0.dtd"
   xmlns:inkscape="http://www.inkscape.org/namespaces/inkscape"
   width="48"
   height="48"
   viewBox="0 0 12.7 12.7"
   version="1.1"
   id="svg6"
   sodipodi:docname="application-x-compressed-tar.svg"
   inkscape:version="0.92.5 (2060ec1f9f, 2020-04-08)">
  <metadata
     id="metadata12">
    <rdf:RDF>
      <cc:Work
         rdf:about="">
        <dc:format>image/svg+xml</dc:format>
        <dc:type
           rdf:resource="http://purl.org/dc/dcmitype/StillImage" />
        <dc:title></dc:title>
      </cc:Work>
    </rdf:RDF>
  </metadata>
  <defs
     id="defs10" />
  <sodipodi:namedview
     pagecolor="#ffffff"
     bordercolor="#666666"
     borderopacity="1"
     objecttolerance="10"
     gridtolerance="10"
     guidetolerance="10"
     inkscape:pageopacity="0"
     inkscape:pageshadow="2"
     inkscape:window-width="1087"
     inkscape:window-height="480"
     id="namedview8"
     showgrid="false"
     inkscape:zoom="4.9166667"
     inkscape:cx="2.1355932"
     inkscape:cy="24"
     inkscape:window-x="0"
     inkscape:window-y="25"
     inkscape:window-maximized="0"
     inkscape:current-layer="svg6" />
  <path
     style="fill:#7f7f7f;stroke-width:1"
     d="M 1.3229166,0.79374999 0.26510009,3.4401 H 6.0848999 V 0.79374999 Z m 5.2921834,0 V 3.4401 h 5.8198 L 11.377084,0.79374999 Z M 0.26510009,3.96875 v 6.35 c 0,1.172 0.94414991,2.11615 2.11614991,2.11615 h 7.9375 a 2.112,2.112 0 0 0 2.11615,-2.11615 v -6.35 h -0.792716 v 6.35 A 1.32,1.32 0 0 1 10.31875,11.642183 H 2.3802165 A 1.32,1.32 0 0 1 1.056783,10.31875 v -6.35 z M 1.8531169,4.9769572 V 6.0368407 H 2.1332031 V 7.0972412 H 2.6628865 V 6.0368407 H 2.922819 V 4.9769572 Z m 1.3198162,0.050126 V 5.5567667 H 3.7031332 V 5.0270833 Z M 3.7031332,5.5567667 V 6.0869668 H 4.2328166 V 5.5567667 Z m 0.5296834,0 H 4.7630167 V 5.0270833 H 4.2328166 Z m 0.5302001,0 V 6.0869668 H 5.2932168 V 5.5567667 Z m 0.5302001,0 h 0.519865 V 5.0270833 h -0.519865 z m 0.519865,0 V 6.0869668 H 6.3427652 V 5.5567667 Z m 0.5296834,0 H 6.8729653 V 5.0270833 H 6.3427652 Z m 0.5302001,0 V 6.0869668 H 7.4031657 V 5.5567667 Z m 0.5302004,0 H 7.9328491 V 5.0270833 H 7.4031657 Z m 0.5296834,0 V 6.0869668 H 8.4630492 V 5.5567667 Z m 0.5302001,0 H 8.9932493 V 5.0270833 H 8.4630492 Z m 0.5302001,0 V 6.0869668 H 9.522933 V 5.5567667 Z m 0.5296837,0 h 0.5302 V 5.0270833 h -0.5302 z m 0.5302,0 v 0.5302001 h 0.529684 V 5.5567667 Z m 0.529684,0 h 0.5302 V 5.0270833 h -0.5302 z M 2.1228678,5.2472248 H 2.6530681 V 5.7769082 H 2.1228678 Z m 2.3001181,2.2996014 v 0.010335 z m -2.0029786,0.578259 v 0.590145 c -0.11,0 -0.2599878,-0.040292 -0.1999878,0.129708 0.02,0.09 -0.070083,0.3001137 0.089917,0.2501138 0.16,-0.05 0.1000708,0.1201414 0.1100708,0.2201415 V 10.474813 H 2.8401367 V 9.095052 c 0.1000001,-0.02 0.2999325,0.070083 0.2599325,-0.089917 -0.03,-0.09 0.060055,-0.3002399 -0.059945,-0.3002399 -0.1299996,0.02 -0.2399875,0.019957 -0.1999875,-0.1400433 V 8.1250852 Z m 3.7098511,0.5296837 a 0.25,0.25 0 0 0 -0.1198893,0.040307 c -0.22,0.1600002 -0.180114,0.2001539 -0.2501141,0.020154 H 5.4001871 v 1.7595831 h 0.4196127 c 0,-0.38 -0.00966,-0.7498289 0.010335,-1.1198288 0,-0.3 0.4500033,-0.1697665 0.3700034,-0.4397666 0,-0.12 0.019754,-0.2484491 -0.069247,-0.260449 z m -2.0500041,0.010335 c -0.35,0.03 -0.6999512,0.2599634 -0.7999512,0.5999633 -0.1699999,0.4799999 0.090299,1.1000808 0.6102987,1.2200808 0.2999999,0.08 0.6295882,-2.95e-4 0.8195881,-0.240295 0,0.1 -0.059748,0.27996 0.1002525,0.22996 0.09,-0.03 0.3000862,0.06006 0.2800861,-0.05994 V 8.7152302 H 4.7097899 c 0,0.1499999 0.020111,0.3197354 -0.1198893,0.099735 A 0.71999998,0.71999998 0 0 0 4.2302327,8.6749225 H 4.0798543 Z m 3.9801189,0 c -0.3400002,0.03 -0.6799789,0.2499632 -0.7699791,0.5999633 -0.18,0.4799999 0.079936,1.1298998 0.6299359,1.2298998 0.2699999,0.06 0.5901603,-0.01993 0.7601604,-0.259933 A 0.51000001,0.51000001 0 0 1 7.99021,10.775053 c -0.1700001,-0.1 -0.300228,-0.200197 -0.5002279,-0.160197 -0.1700001,-0.02 -0.3202247,3.5e-4 -0.1302247,0.180351 0.3699999,0.52 1.3300561,0.519901 1.6200561,-0.0801 0.1600002,-0.4 0.080252,-0.8302345 0.1002522,-1.2402344 V 8.7152302 H 8.6800904 c 0,0.1300001 0.029929,0.3097355 -0.1100709,0.099735 A 0.71999998,0.71999998 0 0 0 8.2098348,8.6749225 H 8.0599732 Z m 1.3301511,0.050126 V 9.0852332 H 10.070186 L 9.3002075,10.085173 v 0.38964 H 10.640178 V 10.094991 H 9.8102538 L 10.580233,9.095052 V 8.7152302 Z M 4.1697714,9.0547443 h 0.010335 c 0.4099999,-0.02 0.6497663,0.5002588 0.4397666,0.840259 C 4.4198728,10.275003 3.72006,10.165169 3.6700601,9.7151691 c -0.07,-0.32 0.1597109,-0.6704247 0.4997113,-0.6604248 z m 3.9801186,0 c 0.39,-0.02 0.6102556,0.4301604 0.4702556,0.7601603 -0.1299999,0.4300004 -0.8599943,0.3998734 -0.9399942,-0.050126 -0.09,-0.32 0.099739,-0.7296988 0.4697386,-0.6996988 z M 6.4802247,10.065019 v 0.399975 h 0.4299479 v -0.399975 z"
     id="path2"
     inkscape:connector-curvature="0" />
</svg>
