<?xml version="1.0" encoding="UTF-8" standalone="no"?>
<svg
   xmlns:dc="http://purl.org/dc/elements/1.1/"
   xmlns:cc="http://creativecommons.org/ns#"
   xmlns:rdf="http://www.w3.org/1999/02/22-rdf-syntax-ns#"
   xmlns:svg="http://www.w3.org/2000/svg"
   xmlns="http://www.w3.org/2000/svg"
   xmlns:sodipodi="http://sodipodi.sourceforge.net/DTD/sodipodi-0.dtd"
   xmlns:inkscape="http://www.inkscape.org/namespaces/inkscape"
   width="48"
   height="48"
   version="1.1"
   id="svg35"
   sodipodi:docname="libreoffice-oasis-text-template.svg"
   inkscape:version="0.92.4 (5da689c313, 2019-01-14)">
  <metadata
     id="metadata39">
    <rdf:RDF>
      <cc:Work
         rdf:about="">
        <dc:format>image/svg+xml</dc:format>
        <dc:type
           rdf:resource="http://purl.org/dc/dcmitype/StillImage" />
        <dc:title></dc:title>
      </cc:Work>
    </rdf:RDF>
  </metadata>
  <sodipodi:namedview
     pagecolor="#ffffff"
     bordercolor="#666666"
     borderopacity="1"
     objecttolerance="10"
     gridtolerance="10"
     guidetolerance="10"
     inkscape:pageopacity="0"
     inkscape:pageshadow="2"
     inkscape:window-width="1087"
     inkscape:window-height="480"
     id="namedview37"
     showgrid="false"
     inkscape:zoom="4.9166667"
     inkscape:cx="2.1355932"
     inkscape:cy="24"
     inkscape:window-x="0"
     inkscape:window-y="25"
     inkscape:window-maximized="0"
     inkscape:current-layer="svg35" />
  <defs
     id="defs31">
    <linearGradient
       id="a">
      <stop
         offset="0"
         stop-color="#dc85e9"
         id="stop2" />
      <stop
         offset="1"
         stop-color="#f2cbf8"
         id="stop4" />
    </linearGradient>
    <linearGradient
       id="b">
      <stop
         offset="0"
         stop-color="#dc85e9"
         id="stop7" />
      <stop
         offset="1"
         stop-color="#f2cbf8"
         id="stop9" />
    </linearGradient>
    <linearGradient
       id="c">
      <stop
         offset="0"
         stop-color="#fff"
         stop-opacity=".588"
         id="stop12" />
      <stop
         offset="1"
         stop-color="#fff"
         stop-opacity=".863"
         id="stop14" />
    </linearGradient>
    <linearGradient
       id="d">
      <stop
         offset="0"
         stop-color="#b3b3b3"
         id="stop17" />
      <stop
         offset="1"
         stop-color="#e6e6e6"
         id="stop19" />
    </linearGradient>
    <linearGradient
       id="e">
      <stop
         offset="0"
         stop-color="#e694bb"
         id="stop22" />
      <stop
         offset=".262"
         stop-color="#d3819a"
         id="stop24" />
      <stop
         offset=".705"
         stop-color="#b25a64"
         id="stop26" />
      <stop
         offset="1"
         stop-color="#98313d"
         id="stop28" />
    </linearGradient>
  </defs>
  <path
     style="color:#000000;font-weight:400;line-height:normal;font-family:'Andale Mono';text-indent:0;text-align:start;text-decoration:none;text-decoration-line:none;text-transform:none;overflow:visible;fill:#7f7f7f;marker:none"
     d="m 32.938,-0.012 c -0.999,0.32 -1.335,1.84 -0.565,2.555 l 9.035,9.082 c 0.835,0.796 2.497,0.115 2.541,-1.041 V 1.502 c 0,-0.793 -0.717,-1.514 -1.506,-1.514 h -9.035 a 1.548,1.548 0 0 0 -0.47,0 z M 6.438,0.014 C 5.062,0.276 3.974,1.612 4,3.012 V 45 c 0,1.57 1.43,3 3,3 h 34 c 1.57,0 3,-1.43 3,-3 V 18.818 A 3.038,3.038 0 0 0 43.156,16.662 L 27.344,0.857 A 3.038,3.038 0 0 0 25.187,0.014 H 7 a 2.938,2.938 0 0 0 -0.563,0 z m 3.748,3.007 h 15.486 l 0.187,0.188 14.907,15 L 41,18.443 V 44.998 H 10.186 Z m 1.654,4.82 a 0.284,0.284 0 0 0 -0.283,0.286 v 13.596 c 0,0.157 0.126,0.285 0.283,0.285 h 17.39 a 0.286,0.286 0 0 0 0.286,-0.285 V 8.127 A 0.286,0.286 0 0 0 29.23,7.842 H 11.84 Z m 1.424,1.708 h 14.545 v 10.19 l -3.914,-4.053 a 0.116,0.116 0 0 0 -0.16,-0.006 l -2.715,2.388 -3.47,-4.271 a 0.116,0.116 0 0 0 -0.183,0.004 l -4.103,5.506 z m 10.246,1.318 a 1.397,1.397 0 1 0 0,2.794 1.397,1.397 0 0 0 0,-2.794 z m -9.528,14.485 c -1.13,0 -2.04,0.058 -2.04,0.13 v 1.57 c 0,0.073 0.91,0.13 2.04,0.13 H 36.85 c 1.13,0 2.043,-0.057 2.043,-0.13 v -1.57 c 0,-0.072 -0.912,-0.13 -2.043,-0.13 z m -0.015,3.974 c -1.131,0 -2.043,0.059 -2.043,0.131 v 1.568 c 0,0.073 0.912,0.131 2.043,0.131 h 22.867 c 1.131,0 2.041,-0.058 2.041,-0.13 v -1.569 c 0,-0.072 -0.91,-0.13 -2.041,-0.13 H 13.967 Z m 0.039,3.86 c -1.131,0 -2.041,0.058 -2.041,0.13 v 1.57 c 0,0.073 0.91,0.132 2.04,0.132 h 22.868 c 1.131,0 2.043,-0.059 2.043,-0.131 v -1.57 c 0,-0.073 -0.912,-0.131 -2.043,-0.131 z"
     font-weight="400"
     overflow="visible"
     id="path33"
     inkscape:connector-curvature="0" />
</svg>
