<svg xmlns="http://www.w3.org/2000/svg" width="48" height="48" viewBox="0 0 12.7 12.7">
  <path fill="#1a1a1a" d="M6.34431561.07286377a6.28928043 6.28928043 0 0 0-6.2895386 6.2895385 6.28928043 6.28928043 0 0 0 6.2895386 6.28902166 6.28928043 6.28928043 0 0 0 6.28902167-6.28902167A6.28928043 6.28928043 0 0 0 6.3443156.07286376zm-.01808691.93637693a5.40704372 5.40704372 0 0 1 5.40690507 5.40690505 5.40704372 5.40704372 0 0 1-5.40690507 5.40690508A5.40704372 5.40704372 0 0 1 .91880694 6.41614575 5.40704372 5.40704372 0 0 1 6.3262287 1.0092407zm.05219329 1.13326414c-1.24424518-.14699998-4.5857917 6.67215283-3.50211174 7.24710272 1.3914104.7382301 5.69907334-2.41505604 5.58260481-2.32595602.01177131-.05666-4.86560515 2.06289458-4.46174304.57102454.41102359-1.51832996 2.06570313-4.17824333 2.43137608-3.93309338 1.61486504 1.08262022 3.46641574 5.55795094 3.57394214 5.3500612.30332177.30011978-1.45521043-5.73513551-3.51038023-6.87296554-.03555286-.0197-.073551-.0311735-.11368802-.03617352z"/>
</svg>
