<svg xmlns="http://www.w3.org/2000/svg" width="48" height="48" viewBox="0 0 12.7 12.7">
  <path fill="#1a1a1a" d="M6.34431561.07286377a6.28928043 6.28928043 0 0 0-6.2895386 6.2895385 6.28928043 6.28928043 0 0 0 6.2895386 6.28902166 6.28928043 6.28928043 0 0 0 6.28902167-6.28902167A6.28928043 6.28928043 0 0 0 6.3443156.07286376zm-.01808691.93637693a5.40704372 5.40704372 0 0 1 5.40690507 5.40690505 5.40704372 5.40704372 0 0 1-5.40690507 5.40690508A5.40704372 5.40704372 0 0 1 .91880694 6.41614575 5.40704372 5.40704372 0 0 1 6.3262287 1.0092407zM4.29637846 2.94348955c-.64263084.00414999-1.27014233.28938537-1.74459628.55810546-.2774342.17063005-.29949417.24201014-.30437417.58291015l-.01963704 4.61212162c.00289979.15646003.04923595.33032885.21239012.24132884.05093652-.03420004.10145673-.06666839.15192872-.09766856 1.68964793-1.03751987 3.10820749-.29915008 3.59719637.91673996l-.05736087-5.68389074c-.53530578-.85673988-1.19291575-1.1336467-1.83554685-1.12964673zm4.10724292 0c-.64263084-.0041701-1.30024212.27290685-1.83554685 1.12964673l-.05736087 5.68389074c.48898862-1.21589004 1.90754923-1.95425983 3.59719637-.91673996.05047191.03100017.10098881.06346852.15192877.09766856.16315002.089.20948994-.08487886.21239004-.24132884l-.01963711-4.61212162c-.00488183-.34090001-.02694014-.4122801-.30437402-.58291015-.47445427-.2687201-1.1019655-.5541055-1.74459633-.55810546z"/>
</svg>
