<svg xmlns="http://www.w3.org/2000/svg" width="48" height="48" viewBox="0 0 12.7 12.7">
  <defs>
    <linearGradient id="a">
      <stop offset="0" stop-color="#272b2d"/>
      <stop offset="1" stop-color="#33393e"/>
    </linearGradient>
    <linearGradient id="b">
      <stop offset="0" stop-color="#279646"/>
      <stop offset="1" stop-color="#76ff68"/>
    </linearGradient>
  </defs>
  <path fill="#1a1a1a" d="M6.35051665.06097819A6.28928043 6.28928043 0 0 0 .0609782 6.35051665a6.28928043 6.28928043 0 0 0 6.28953846 6.28850493 6.28928043 6.28928043 0 0 0 6.28850493-6.28850493A6.28928043 6.28928043 0 0 0 6.35051665.0609782zM6.33243.99735512a5.40704372 5.40704372 0 0 1 5.40690508 5.40638829A5.40704372 5.40704372 0 0 1 6.33243 11.8111652a5.40704372 5.40704372 0 0 1-5.40742186-5.4074218A5.40704372 5.40704372 0 0 1 6.33243.9973551zm-.0062013.75550944c-2.10421509 0-3.80958652 1.23531311-3.80958647 3.68556324 0 2.45026944 2.02271792 5.83943664 3.80958647 5.83943664 1.68216472 0 3.8101034-3.3891672 3.8101034-5.83943664 0-2.45025013-1.70588567-3.68556324-3.8101034-3.68556324zm2.34507666 4.7635334c.15757657-.00551047.31588207.00808937.47077206.04082442.13093303.61955997-.04440052 1.29083486-.52554927 1.77198494-.48114558.48114002-1.15242656.6559825-1.77198468.52503254-.1309497-.61958007.04440079-1.29084491.52554928-1.77198494.36086123-.36085488.82848158-.549325 1.30121261-.56585696zm-4.68963634.03307292c.47273051.01631315.94035324.20230544 1.30121262.55810546.48114822.47446009.65597986 1.13674709.52503255 1.74769699-.61955812.1291201-1.29083646-.04382453-1.77198495-.51831451-.48114796-.4744802-.65596557-1.1362203-.52503254-1.74718026.15488973-.0322826.31319549-.0457454.47077232-.04030768z"/>
</svg>
