<svg xmlns="http://www.w3.org/2000/svg" width="48" height="48" viewBox="0 0 12.7 12.7"><path fill="#1a1a1a" d="M6.344.077A6.267 6.267 0 0 0 .076 6.344a6.267 6.267 0 0 0 6.268 6.267 6.267 6.267 0 0 0 6.267-6.267A6.267 6.267 0 0 0 6.344.077zm-.018.932a5.388 5.388 0 0 1 5.388 5.39 5.388 5.388 0 0 1-5.388 5.387A5.388 5.388 0 0 1 .937 6.398a5.388 5.388 0 0 1 5.39-5.389zm.11 1.832c-.884-.016-1.823.322-2.109.988-.165.37-.012 1.034.544 1.034.325 0 .475-.21.5-.402.018-.145-.042-.274-.077-.395-.04-.136.131-.402.318-.51.156-.09.32-.12.343-.126.56-.135 1.12.163 1.353.525.233.362-.024.91-.393 1.445-.369.534-.764 1.14-.762 1.785 0 .245-.022.328-.007.428.013.079.275.07.476.033-.018-.625.122-1.23.712-1.66.623-.485 1.223-1.092 1.16-1.808-.014-.69-.819-1.232-1.685-1.31a3.315 3.315 0 0 0-.373-.027zm-.07 5.645c-.535-.03-.906.578-.584.965.287.427 1.093.322 1.231-.162.144-.376-.202-.81-.647-.803z"/></svg>