<svg xmlns="http://www.w3.org/2000/svg" width="48" height="48" viewBox="0 0 12.7 12.7">
  <defs>
    <linearGradient id="a">
      <stop offset="0" stop-color="#054e87"/>
      <stop offset="1" stop-color="#1d99f3"/>
    </linearGradient>
  </defs>
  <path fill="#a40" d="M6.3497188 1.85209c-.8433594 0-1.4055988.56224-1.4055988.56224s.3353758 1.1391.5622394 1.68672c.2406386.58079.8433594 1.68671.8433594 1.68671s.6027208-1.10592.8433592-1.68671c.2268638-.54762.5622397-1.68672.5622397-1.68672s-.5622397-.56224-1.4055989-.56224m-1.7887651.72078s-.7955689 0-1.391824.59625c-.596255.59625-.596255 1.39183-.596255 1.39183s1.0429543.56787 1.5905757.79501c.5807934.24063 1.788765.59625 1.788765.59625s-.3556165-1.20798-.5962549-1.78877c-.2268637-.54761-.7950068-1.59057-.7950068-1.59057m3.5778113 0s-.5678621 1.04296-.7950067 1.59057c-.2406385.58079-.5962551 1.78878-.5962551 1.78878s1.2079717-.35562 1.7887651-.59625c.5476214-.22687 1.5905757-.79501 1.5905757-.79501s0-.79558-.5962549-1.39183c-.5962551-.59625-1.3918241-.59625-1.3918241-.59625M2.4143232 4.94441s-.5622396.56223-.5622396 1.40559c0 .84336.5622396 1.4056.5622396 1.4056s1.1390972-.33538 1.6867186-.56224C4.6818352 6.95272 5.7877604 6.35 5.7877604 6.35s-1.1059252-.60271-1.6867186-.84336c-.5476214-.22686-1.6867186-.56223-1.6867186-.56223m7.8713538 0s-1.1390976.33537-1.6867189.56223c-.5807935.24065-1.6867186.84336-1.6867186.84336s1.1059251.60272 1.6867186.84336c.5476213.22686 1.6867189.56224 1.6867189.56224s.562239-.56224.562239-1.4056-.562239-1.40559-.562239-1.40559M5.9524966 6.7475s-1.2079717.35562-1.7887652.59627c-.5476213.22685-1.5905755.795-1.5905755.795s0 .79557.5962549 1.39182c.596255.59626 1.391824.59626 1.391824.59626s.567862-1.04295.7950067-1.59058c.2406385-.58079.5962551-1.78877.5962551-1.78877m.7950066 0s.3556166 1.20798.5962551 1.78877c.2268637.54763.7950067 1.59058.7950067 1.59058s.795569 0 1.3918241-.59626c.5962549-.59625.5962549-1.39182.5962549-1.39182s-1.0429543-.56786-1.5905757-.795c-.5807934-.24065-1.7887651-.59627-1.7887651-.59627m-.3975033.16474s-.6027207 1.10593-.8433594 1.68672c-.2268635.54762-.5622395 1.68672-.5622395 1.68672s.5622395.56224 1.4055989.56224c.8433592 0 1.4055989-.56224 1.4055989-.56224s-.3353759-1.1391-.5622397-1.68672c-.2406385-.58079-.8433592-1.68672-.8433592-1.68672" opacity=".75"/>
  <path fill="#1a1a1a" d="M6.3502587.06072A6.2892805 6.2892805 0 0 0 .06072 6.35026a6.2892805 6.2892805 0 0 0 6.2895387 6.28902A6.2892805 6.2892805 0 0 0 12.63928 6.35026 6.2892805 6.2892805 0 0 0 6.3502587.06072zm-.018087.93638A5.4070438 5.4070438 0 0 1 11.739077 6.404a5.4070438 5.4070438 0 0 1-5.4069053 5.40691A5.4070438 5.4070438 0 0 1 .92474985 6.404 5.4070438 5.4070438 0 0 1 6.3321717.9971z"/>
</svg>
