<svg xmlns="http://www.w3.org/2000/svg" width="48" height="48" viewBox="0 0 12.7 12.7">
  <g fill="#1a1a1a">
    <path d="M6.3443558.07295A6.2892804 6.2892804 0 0 0 .05494145 6.36237a6.2892804 6.2892804 0 0 0 6.28941435 6.28914 6.2892804 6.2892804 0 0 0 6.2891432-6.28914A6.2892804 6.2892804 0 0 0 6.3443558.07295zm-.018184.9363a5.4070438 5.4070438 0 0 1 5.4071322 5.40711 5.4070438 5.4070438 0 0 1-5.4071322 5.40686A5.4070438 5.4070438 0 0 1 .91903946 6.41636 5.4070438 5.4070438 0 0 1 6.3261718 1.00925z"/>
    <path d="M6.35 2.97656l3.175 6.74688c-1.1832556-.86417-2.3810169-.95922-3.5698081-1.75287C5.2030738 7.46845 4.130798 8.18765 3.175 9.72344z"/>
  </g>
</svg>
