<?xml version="1.0" encoding="UTF-8" standalone="no"?>
<!-- Created with Inkscape (http://www.inkscape.org/) -->

<svg
   xmlns:dc="http://purl.org/dc/elements/1.1/"
   xmlns:cc="http://creativecommons.org/ns#"
   xmlns:rdf="http://www.w3.org/1999/02/22-rdf-syntax-ns#"
   xmlns:svg="http://www.w3.org/2000/svg"
   xmlns="http://www.w3.org/2000/svg"
   xmlns:sodipodi="http://sodipodi.sourceforge.net/DTD/sodipodi-0.dtd"
   xmlns:inkscape="http://www.inkscape.org/namespaces/inkscape"
   width="48"
   height="48"
   viewBox="0 0 12.7 12.7"
   version="1.1"
   id="svg829"
   inkscape:version="0.92.3 (2405546, 2018-03-11)"
   sodipodi:docname="audacity.svg">
  <defs
     id="defs823" />
  <sodipodi:namedview
     id="base"
     pagecolor="#ffffff"
     bordercolor="#666666"
     borderopacity="1.0"
     inkscape:pageopacity="0.0"
     inkscape:pageshadow="2"
     inkscape:zoom="5.59375"
     inkscape:cx="24"
     inkscape:cy="24"
     inkscape:document-units="mm"
     inkscape:current-layer="layer1"
     showgrid="false"
     showguides="true"
     inkscape:guide-bbox="true"
     inkscape:window-width="1366"
     inkscape:window-height="714"
     inkscape:window-x="0"
     inkscape:window-y="25"
     inkscape:window-maximized="1"
     scale-x="1.9"
     units="px"
     inkscape:snap-global="false" />
  <metadata
     id="metadata826">
    <rdf:RDF>
      <cc:Work
         rdf:about="">
        <dc:format>image/svg+xml</dc:format>
        <dc:type
           rdf:resource="http://purl.org/dc/dcmitype/StillImage" />
        <dc:title></dc:title>
      </cc:Work>
    </rdf:RDF>
  </metadata>
  <g
     inkscape:label="Capa 1"
     inkscape:groupmode="layer"
     id="layer1"
     transform="translate(0,-284.3)">
    <path
       style="fill:#1a1a1a;fill-opacity:1;stroke-width:0.52516764"
       d="M 23.978516 0.27539062 A 23.770509 23.770509 0 0 0 0.20703125 24.046875 A 23.770509 23.770509 0 0 0 23.978516 47.816406 A 23.770509 23.770509 0 0 0 47.748047 24.046875 A 23.770509 23.770509 0 0 0 23.978516 0.27539062 z M 23.910156 3.8144531 A 20.436071 20.436071 0 0 1 44.345703 24.25 A 20.436071 20.436071 0 0 1 23.910156 44.685547 A 20.436071 20.436071 0 0 1 3.4726562 24.25 A 20.436071 20.436071 0 0 1 23.910156 3.8144531 z M 24.011719 6.8378906 L 24.011719 6.8398438 C 22.810704 6.8398438 21.577072 7.007999 20.363281 7.328125 C 12.595048 9.3669156 7.9986008 17.152068 10.080078 24.759766 L 12.457031 24.166016 C 12.186411 23.179861 12.017578 22.149911 12.017578 21.080078 C 12.017578 14.516815 17.423112 9.2207031 24.125 9.2207031 C 30.826894 9.2207031 36.285156 14.516815 36.285156 21.080078 C 36.285156 22.149911 36.116295 23.179861 35.845703 24.166016 L 38.222656 24.759766 C 38.884236 22.341851 38.884236 19.816806 38.222656 17.398438 C 36.466392 10.979704 30.497185 6.7736387 24.011719 6.8378906 z M 27.052734 24.923828 L 27.052734 24.933594 C 26.944417 24.916208 26.840382 24.984701 26.777344 25.041016 C 26.714362 25.096197 26.694249 25.144606 26.666016 25.205078 C 26.609636 25.323264 26.588842 25.467018 26.556641 25.636719 C 26.492109 25.976725 26.426228 26.428445 26.390625 26.990234 C 26.319362 28.113775 26.263602 29.605677 26.226562 31.105469 C 26.189614 32.605072 26.150625 34.101824 26.058594 35.21875 C 26.012525 35.77744 25.964068 36.269967 25.892578 36.574219 C 25.884448 36.613904 25.846961 36.610009 25.837891 36.628906 C 25.774773 36.396239 25.711345 36.040567 25.671875 35.599609 C 25.592747 34.718035 25.593946 33.544016 25.5625 32.349609 C 25.53093 31.155316 25.476124 29.956758 25.394531 29.046875 C 25.353724 28.59182 25.309026 28.200046 25.230469 27.910156 C 25.191116 27.764418 25.134907 27.639722 25.064453 27.53125 C 24.993988 27.422022 24.905854 27.314453 24.730469 27.314453 C 24.597323 27.314453 24.430145 27.396059 24.345703 27.476562 C 24.261268 27.557822 24.225178 27.64411 24.179688 27.748047 C 24.08862 27.957773 24.054567 28.203497 24.011719 28.505859 C 23.926048 29.110659 23.876267 29.895371 23.847656 30.671875 C 23.81875 31.448379 23.810297 32.22251 23.736328 32.783203 C 23.699387 33.063531 23.626029 33.300113 23.572266 33.431641 C 23.545291 33.494003 23.524507 33.533457 23.515625 33.541016 C 23.50378 33.541016 23.479608 33.501446 23.460938 33.486328 C 23.429382 33.448155 23.382555 33.341836 23.351562 33.214844 C 23.289537 32.961993 23.258917 32.579739 23.238281 32.1875 C 23.217505 31.79545 23.225186 31.38445 23.128906 31.048828 C 23.080611 30.881924 23.031544 30.745313 22.908203 30.617188 C 22.784915 30.48755 22.5529 30.392832 22.355469 30.400391 C 22.116773 30.415887 21.95844 30.591391 21.859375 30.777344 C 21.760344 30.962314 21.6797 31.177215 21.636719 31.429688 C 21.550825 31.933461 21.548786 32.587404 21.525391 33.214844 C 21.50226 33.842397 21.487014 34.455816 21.416016 34.892578 C 21.384082 35.089869 21.292716 35.231684 21.25 35.326172 C 21.234168 35.288755 21.211451 35.273931 21.195312 35.21875 C 21.13069 34.996703 21.070325 34.662686 21.027344 34.244141 C 20.941337 33.406219 20.898405 32.289718 20.861328 31.158203 C 20.823964 30.026461 20.829373 28.878668 20.751953 28.017578 C 20.713202 27.587279 20.657669 27.207609 20.585938 26.933594 C 20.55013 26.796019 20.486516 26.713312 20.421875 26.609375 C 20.357222 26.505438 20.263752 26.337891 20.087891 26.337891 C 19.921785 26.337891 19.768617 26.457932 19.703125 26.554688 C 19.637618 26.651821 19.626014 26.75267 19.589844 26.878906 C 19.517643 27.130283 19.464254 27.466858 19.423828 27.855469 C 19.342973 28.633333 19.302614 29.653078 19.259766 30.669922 C 19.217008 31.686728 19.179035 32.685499 19.09375 33.429688 C 19.051128 33.801971 18.985725 34.108277 18.925781 34.296875 C 18.88997 34.200157 18.789536 34.085716 18.761719 33.916016 C 18.692036 33.491083 18.685578 32.94215 18.650391 32.345703 C 18.615339 31.749331 18.581096 31.144064 18.486328 30.669922 C 18.438978 30.432341 18.36613 30.19339 18.265625 30.019531 C 18.165163 29.845673 17.999138 29.693359 17.767578 29.693359 C 17.604427 29.693359 17.450978 29.80855 17.378906 29.912109 C 17.306936 30.016046 17.24993 30.101336 17.212891 30.234375 C 17.138653 30.500303 17.081294 30.852245 17.048828 31.261719 C 16.984138 32.080894 17.010178 33.170427 16.992188 34.242188 C 16.97453 35.313797 16.916362 36.378324 16.828125 37.166016 C 16.783939 37.56022 16.732772 37.883291 16.660156 38.083984 C 16.634678 38.155417 16.627692 38.207606 16.605469 38.248047 C 16.578536 38.199291 16.5257 38.141612 16.494141 38.03125 C 16.452286 37.883811 16.412621 37.608072 16.384766 37.382812 L 16.494141 37.382812 L 16.330078 36.839844 C 16.327012 36.810363 16.332078 36.772863 16.330078 36.732422 C 16.242658 35.724762 16.187004 34.389742 16.164062 33.052734 C 16.14052 31.676344 16.118505 30.301933 16.054688 29.259766 C 16.022754 28.738758 16.008342 28.285599 15.941406 27.960938 C 15.907855 27.801063 15.836415 27.700772 15.775391 27.583984 C 15.74495 27.524268 15.727149 27.469812 15.666016 27.419922 C 15.604867 27.367386 15.49028 27.309023 15.390625 27.3125 C 15.198901 27.3125 15.115741 27.470599 15.056641 27.583984 C 14.997521 27.69548 14.980336 27.808623 14.947266 27.960938 C 14.881411 28.266815 14.813716 28.666561 14.78125 29.152344 C 14.75033 29.615563 14.742285 30.262242 14.726562 30.830078 L 13.398438 25.849609 L 10.414062 26.662109 C 8.7906507 27.088251 7.8775021 28.699507 8.3125 30.289062 L 9.8613281 36.029297 C 10.296311 37.61942 11.941041 38.567863 13.564453 38.140625 C 14.433053 37.998364 15.005637 37.780386 15.886719 37.544922 C 15.923286 37.740097 15.951295 37.983019 15.996094 38.140625 C 16.042881 38.306508 16.082171 38.454786 16.164062 38.574219 C 16.246028 38.69403 16.423458 38.849483 16.605469 38.845703 C 16.761911 38.845703 16.904072 38.731331 16.992188 38.628906 C 17.080322 38.526519 17.108971 38.384866 17.158203 38.248047 C 17.256735 37.974825 17.332528 37.632079 17.378906 37.21875 C 17.471535 36.391109 17.470328 35.316178 17.488281 34.242188 C 17.505951 33.168159 17.539291 32.10658 17.601562 31.318359 C 17.632747 30.924079 17.654381 30.602154 17.710938 30.398438 C 17.730618 30.327004 17.750457 30.274816 17.767578 30.234375 C 17.771868 30.234375 17.772126 30.202889 17.822266 30.289062 C 17.872405 30.375425 17.88996 30.567517 17.931641 30.775391 C 18.014975 31.19231 18.06262 31.751637 18.097656 32.345703 C 18.132715 32.940034 18.18802 33.552194 18.265625 34.025391 C 18.304456 34.261876 18.346364 34.445282 18.429688 34.619141 C 18.471349 34.706448 18.518389 34.821838 18.595703 34.890625 C 18.672976 34.956767 18.754257 34.99622 18.871094 35 C 19.032125 35 19.187165 34.879959 19.259766 34.783203 C 19.332344 34.686069 19.383996 34.58289 19.423828 34.457031 C 19.503395 34.206146 19.545328 33.87223 19.589844 33.484375 C 19.678761 32.70874 19.714968 31.738076 19.757812 30.720703 C 19.800669 29.703179 19.84589 28.65573 19.923828 27.90625 C 19.955376 27.603434 19.990139 27.395125 20.033203 27.203125 C 20.079559 27.420712 20.167584 27.718061 20.199219 28.070312 C 20.27414 28.904643 20.326204 30.023715 20.363281 31.15625 C 20.4006 32.288634 20.442193 33.429171 20.53125 34.296875 C 20.575803 34.730765 20.615745 35.097646 20.697266 35.376953 C 20.737982 35.516796 20.79033 35.598432 20.861328 35.703125 C 20.932304 35.80933 21.026232 35.965097 21.195312 35.972656 C 21.432121 35.988379 21.649686 35.775609 21.746094 35.595703 C 21.842502 35.416478 21.87403 35.190163 21.914062 34.943359 C 21.994185 34.450471 22.054994 33.839839 22.078125 33.212891 C 22.101259 32.586245 22.113156 31.980208 22.189453 31.533203 C 22.227528 31.311118 22.24655 31.144387 22.298828 31.046875 C 22.35111 30.947095 22.3998 30.939453 22.410156 30.939453 C 22.472768 30.939453 22.485591 30.94784 22.519531 30.988281 C 22.553441 31.023809 22.597852 31.085708 22.632812 31.207031 C 22.702477 31.449526 22.721702 31.847301 22.742188 32.236328 C 22.762593 32.625808 22.771035 33.034338 22.853516 33.371094 C 22.894758 33.538035 22.964699 33.669317 23.074219 33.802734 C 23.183767 33.936152 23.378553 34.021484 23.572266 34.021484 C 23.706186 34.021484 23.821084 33.995637 23.902344 33.912109 C 23.983634 33.830472 24.027506 33.689875 24.070312 33.585938 C 24.155987 33.377308 24.194505 33.130109 24.234375 32.828125 C 24.314248 32.224572 24.37178 31.440188 24.400391 30.664062 C 24.429293 29.888088 24.432318 29.11218 24.511719 28.552734 C 24.551362 28.272369 24.6193 28.085913 24.675781 27.957031 C 24.688968 27.992559 24.717354 28.016516 24.730469 28.066406 C 24.793583 28.299074 24.858968 28.652755 24.898438 29.09375 C 24.977603 29.975363 24.97832 31.147504 25.009766 32.341797 C 25.040954 33.536241 25.092134 34.732543 25.173828 35.642578 C 25.214692 36.09752 25.261294 36.49136 25.339844 36.78125 C 25.379208 36.926346 25.437305 37.053637 25.507812 37.162109 C 25.578274 37.271338 25.717144 37.378906 25.892578 37.378906 C 25.993767 37.378906 26.050946 37.324334 26.113281 37.269531 C 26.175662 37.215484 26.24697 37.169406 26.28125 37.107422 C 26.349637 36.982017 26.405759 36.848379 26.447266 36.671875 C 26.530162 36.318036 26.564318 35.836031 26.611328 35.265625 C 26.705367 34.124208 26.740304 32.598771 26.777344 31.097656 C 26.814663 29.596617 26.87535 28.086838 26.945312 26.982422 C 26.97152 26.56932 26.962023 26.286742 27 26.007812 C 27.052362 26.340524 27.129316 26.737774 27.166016 27.253906 C 27.252004 28.463015 27.339646 30.08672 27.384766 31.693359 C 27.429923 33.300112 27.469151 34.926576 27.550781 36.132812 C 27.591653 36.735647 27.651138 37.227136 27.71875 37.59375 C 27.752664 37.777624 27.773813 37.901863 27.828125 38.027344 C 27.855421 38.09084 27.883509 38.182849 27.939453 38.242188 C 27.995413 38.301526 28.098136 38.355342 28.214844 38.351562 C 28.37979 38.334177 28.481188 38.233853 28.544922 38.136719 C 28.608648 38.039963 28.676191 37.936783 28.712891 37.810547 C 28.786195 37.558717 28.835888 37.222961 28.878906 36.835938 C 28.964962 36.061475 28.995248 35.031299 29.042969 34.021484 C 29.090666 33.011481 29.126133 32.003778 29.208984 31.257812 C 29.250423 30.885038 29.319841 30.58798 29.376953 30.392578 C 29.410251 30.485932 29.459909 30.557679 29.486328 30.716797 C 29.555191 31.137647 29.563376 31.740814 29.597656 32.341797 C 29.631906 32.942855 29.666837 33.541711 29.761719 34.021484 C 29.809209 34.260842 29.881316 34.494552 29.982422 34.669922 C 30.08353 34.845292 30.303765 34.994141 30.537109 34.994141 C 30.669756 34.994141 30.781822 34.914803 30.869141 34.832031 C 30.95644 34.751905 30.987538 34.666437 31.035156 34.5625 C 31.130412 34.351867 31.2119 34.103521 31.255859 33.800781 C 31.343869 33.194696 31.339269 32.413563 31.365234 31.636719 C 31.391124 30.859837 31.462326 30.086386 31.533203 29.525391 C 31.568651 29.244836 31.589797 29.006528 31.642578 28.875 C 31.654431 28.889362 31.685247 28.889247 31.697266 28.929688 C 31.757421 29.110765 31.826393 29.437442 31.863281 29.796875 C 31.937114 30.517971 31.951214 31.463594 31.974609 32.449219 C 31.997929 33.434731 32.000816 34.45318 32.083984 35.210938 C 32.115732 35.50026 32.185664 35.706188 32.251953 35.914062 L 31.863281 37.376953 L 34.792969 38.134766 C 36.4166 38.560945 38.063053 37.613334 38.498047 36.023438 L 40.044922 30.283203 C 40.479828 28.693572 39.566772 27.081711 37.943359 26.65625 L 34.958984 25.84375 L 34.462891 27.683594 C 34.442065 27.631058 34.440065 27.570304 34.408203 27.523438 C 34.321928 27.402115 34.19932 27.304688 34.019531 27.304688 C 33.855314 27.304688 33.706076 27.419878 33.630859 27.523438 C 33.555594 27.626619 33.506709 27.707687 33.466797 27.84375 C 33.386939 28.11735 33.337632 28.505259 33.300781 28.927734 C 33.227088 29.772194 33.211853 30.85656 33.191406 31.960938 C 33.187249 32.158871 33.194473 32.304598 33.191406 32.5 L 32.636719 34.560547 C 32.596081 33.913189 32.545448 33.217786 32.527344 32.449219 C 32.504194 31.463972 32.438756 30.497274 32.361328 29.740234 C 32.322637 29.361866 32.280313 29.017027 32.197266 28.767578 C 32.155729 28.642098 32.107945 28.53854 32.029297 28.441406 C 31.950668 28.34465 31.850212 28.279297 31.697266 28.279297 C 31.563338 28.279297 31.39164 28.303191 31.310547 28.386719 C 31.229453 28.470246 31.186733 28.608954 31.144531 28.712891 C 31.060097 28.921521 31.016613 29.168719 30.978516 29.470703 C 30.902298 30.074331 30.895068 30.86116 30.869141 31.636719 C 30.843206 32.412429 30.782171 33.189395 30.701172 33.748047 C 30.660636 34.027203 30.650089 34.213293 30.591797 34.341797 C 30.569963 34.39282 30.49502 34.385146 30.480469 34.396484 C 30.429513 34.309328 30.358178 34.121432 30.316406 33.910156 C 30.232841 33.487529 30.184406 32.883947 30.150391 32.285156 C 30.116394 31.686366 30.059354 31.130783 29.982422 30.660156 C 29.943969 30.424692 29.903758 30.182553 29.818359 30.011719 C 29.775685 29.926679 29.735066 29.862197 29.652344 29.794922 C 29.569527 29.72878 29.439113 29.68372 29.322266 29.6875 C 29.157259 29.6875 29.052193 29.805588 28.988281 29.902344 C 28.924358 29.999478 28.915605 30.102279 28.878906 30.228516 C 28.805602 30.479816 28.755909 30.816101 28.712891 31.203125 C 28.626819 31.97721 28.537955 33.009604 28.490234 34.019531 C 28.442537 35.029421 28.407145 36.03502 28.324219 36.78125 C 28.293332 37.05999 28.25527 37.242601 28.214844 37.429688 C 28.157429 37.103099 28.08753 36.649438 28.048828 36.078125 C 27.968366 34.890031 27.929886 33.300377 27.884766 31.693359 C 27.839634 30.086342 27.804017 28.479846 27.716797 27.251953 C 27.673208 26.637667 27.622604 26.116183 27.550781 25.734375 C 27.514963 25.543962 27.496002 25.379574 27.441406 25.248047 C 27.414107 25.181905 27.378811 25.145276 27.330078 25.085938 C 27.281375 25.026599 27.163475 24.935167 27.052734 24.923828 z "
       transform="matrix(0.26458333,0,0,0.26458333,0,284.3)"
       id="path822" />
  </g>
</svg>
