<svg xmlns="http://www.w3.org/2000/svg" width="48" height="48" viewBox="0 0 12.7 12.7">
  <path fill="#1a1a1a" d="M6.34431561.07286377a6.28928043 6.28928043 0 0 0-6.2895386 6.2895385 6.28928043 6.28928043 0 0 0 6.2895386 6.28902166 6.28928043 6.28928043 0 0 0 6.28902167-6.28902167A6.28928043 6.28928043 0 0 0 6.3443156.07286376zm-.01808691.93637693a5.40704372 5.40704372 0 0 1 5.40690507 5.40690505 5.40704372 5.40704372 0 0 1-5.40690507 5.40690508A5.40704372 5.40704372 0 0 1 .91880694 6.41614575 5.40704372 5.40704372 0 0 1 6.3262287 1.0092407zm.34778235 1.99160972v.00361738c-.11280828-.0030001-.22786128.0011004-.3467489.00310065-.70597287.03069987-1.9555748.00300964-2.44274468.5813597-.2976962.35133014-.15853675 1.16714003.29765624 1.25211997.56832023.10562986 1.5291747-.15553055 2.14508845-.09095052.42944758.04490005.55540115.38962885.20567226.62941887-.37030421.25387008-1.21113178.17671415-1.6355589.30437428C3.43000063 6.12479082 2.902522 7.0593031 3.26181638 8.3250732c.23428007.82536003 1.06318789 1.4375614 1.96783851 1.4722615 1.7402352-.00199998 1.41615079-.88173029 2.25877673-.42478033.27730185.32007995.83591558.42282083 1.12551288.19792077.46559681-.36157005 1.16756734-.55549826.67231021-1.29552804-.23717012-.35437021.31563257-.81309712.19120273-2.57658708-.1103802-1.5643799-1.11129232-2.6374595-2.80344638-2.6975096zm-.22634257 3.78374826c.39193998 0 .701249.27451314.701249.61598306 0 .34151014-.30930902.6227011-.701249.6227011-.3919384 0-.71520182-.28119096-.71520182-.6227011 0-.34146992.32326342-.61598306.71520182-.61598306z"/>
</svg>
