<svg xmlns="http://www.w3.org/2000/svg" width="48" height="48" viewBox="0 0 12.7 12.7">
  <path fill="#1a1a1a" d="M6.34431561.07286377a6.28928043 6.28928043 0 0 0-6.2895386 6.2895385 6.28928043 6.28928043 0 0 0 6.2895386 6.28902166 6.28928043 6.28928043 0 0 0 6.28902167-6.28902167A6.28928043 6.28928043 0 0 0 6.3443156.07286376zm-.01808691.93637693a5.40704372 5.40704372 0 0 1 5.40690507 5.40690505 5.40704372 5.40704372 0 0 1-5.40690507 5.40690508A5.40704372 5.40704372 0 0 1 .91880694 6.41614575 5.40704372 5.40704372 0 0 1 6.3262287 1.0092407zm-.37878808.59996337c-2.4237701.20651001-4.32738448 2.23831512-4.32738448 4.71857508 0 2.61734985 2.11879444 4.73976218 4.73304443 4.73976218 2.32176 0 4.24889237-1.67540382 4.65191231-3.88348374-.01019995.03459983-.02017236.07118403-.02997226.09198399l-5.05188796-.9477457.02428796-4.71909181zm.77721353.27440186c-.0827479-.00039137-.16701161.00104328-.25321471.00516765v.00051676L6.45231932 5.599658l3.81785464-1.25470363c-.0624766-.33052781-.98034024-2.4492161-3.54551981-2.46134844zm3.64732248 2.74866927l-3.8793499 1.30069588 4.01887633.7539593c.08854202-.18851006.22187244-1.13095509-.13952643-2.05465518z"/>
</svg>
