<?xml version="1.0" encoding="UTF-8" standalone="no"?>
<!-- Created with Inkscape (http://www.inkscape.org/) -->

<svg
   xmlns:dc="http://purl.org/dc/elements/1.1/"
   xmlns:cc="http://creativecommons.org/ns#"
   xmlns:rdf="http://www.w3.org/1999/02/22-rdf-syntax-ns#"
   xmlns:svg="http://www.w3.org/2000/svg"
   xmlns="http://www.w3.org/2000/svg"
   xmlns:sodipodi="http://sodipodi.sourceforge.net/DTD/sodipodi-0.dtd"
   xmlns:inkscape="http://www.inkscape.org/namespaces/inkscape"
   width="48"
   height="48"
   viewBox="0 0 12.7 12.7"
   version="1.1"
   id="svg829"
   inkscape:version="0.92.3 (2405546, 2018-03-11)"
   sodipodi:docname="blender.svg">
  <defs
     id="defs823" />
  <sodipodi:namedview
     id="base"
     pagecolor="#ffffff"
     bordercolor="#666666"
     borderopacity="1.0"
     inkscape:pageopacity="0.0"
     inkscape:pageshadow="2"
     inkscape:zoom="3.9627443"
     inkscape:cx="24"
     inkscape:cy="24"
     inkscape:document-units="mm"
     inkscape:current-layer="layer1"
     showgrid="false"
     showguides="true"
     inkscape:guide-bbox="true"
     inkscape:window-width="1366"
     inkscape:window-height="719"
     inkscape:window-x="0"
     inkscape:window-y="25"
     inkscape:window-maximized="1"
     scale-x="1.9"
     units="px"
     inkscape:snap-global="false" />
  <metadata
     id="metadata826">
    <rdf:RDF>
      <cc:Work
         rdf:about="">
        <dc:format>image/svg+xml</dc:format>
        <dc:type
           rdf:resource="http://purl.org/dc/dcmitype/StillImage" />
        <dc:title></dc:title>
      </cc:Work>
    </rdf:RDF>
  </metadata>
  <g
     inkscape:label="Capa 1"
     inkscape:groupmode="layer"
     id="layer1"
     transform="translate(0,-284.3)">
    <path
       style="fill:#1a1a1a;fill-opacity:1;stroke-width:0.52516764"
       d="M 23.978516 0.27539062 A 23.770509 23.770509 0 0 0 0.20703125 24.046875 A 23.770509 23.770509 0 0 0 23.978516 47.816406 A 23.770509 23.770509 0 0 0 47.748047 24.046875 A 23.770509 23.770509 0 0 0 23.978516 0.27539062 z M 23.910156 3.8144531 A 20.436071 20.436071 0 0 1 44.345703 24.25 A 20.436071 20.436071 0 0 1 23.910156 44.685547 A 20.436071 20.436071 0 0 1 3.4726562 24.25 A 20.436071 20.436071 0 0 1 23.910156 3.8144531 z M 21.570312 9.2753906 A 2.2061079 2.2078015 0 0 0 20.316406 13.248047 L 22.822266 15.179688 L 10.632812 15.179688 A 2.2062551 2.2079487 0 1 0 10.632812 19.59375 L 16.162109 19.59375 L 7.1289062 26.162109 A 2.2061079 2.2078015 0 1 0 9.7207031 29.732422 L 14.337891 26.376953 A 11.764682 11.773518 0 0 0 14.308594 26.951172 A 11.764682 11.773518 0 0 0 26.072266 38.726562 A 11.764682 11.773518 0 0 0 37.837891 26.951172 A 11.764682 11.773518 0 0 0 32.722656 17.240234 A 2.2061079 2.2078015 0 0 0 32.564453 17.107422 L 23.005859 9.7480469 A 2.2061079 2.2078015 0 0 0 21.570312 9.2753906 z M 26.101562 19.582031 A 7.3635111 7.3635111 0 0 1 33.464844 26.945312 A 7.3635111 7.3635111 0 0 1 26.101562 34.308594 A 7.3635111 7.3635111 0 0 1 18.738281 26.945312 A 7.3635111 7.3635111 0 0 1 26.101562 19.582031 z M 26.101562 23.263672 A 3.6817553 3.6817553 0 0 0 22.419922 26.945312 A 3.6817553 3.6817553 0 0 0 26.101562 30.626953 A 3.6817553 3.6817553 0 0 0 29.783203 26.945312 A 3.6817553 3.6817553 0 0 0 26.101562 23.263672 z "
       transform="matrix(0.26458333,0,0,0.26458333,0,284.3)"
       id="path822" />
  </g>
</svg>
