<svg xmlns="http://www.w3.org/2000/svg" width="48" height="48" viewBox="0 0 12.7 12.7">
  <g fill="#1a1a1a">
    <path d="M6.34431561.07286377a6.28928043 6.28928043 0 0 0-6.2895386 6.2895385 6.28928043 6.28928043 0 0 0 6.2895386 6.28902166 6.28928043 6.28928043 0 0 0 6.28902167-6.28902167A6.28928043 6.28928043 0 0 0 6.3443156.07286376zm-.01808691.93637693a5.40704372 5.40704372 0 0 1 5.40690507 5.40690505 5.40704372 5.40704372 0 0 1-5.40690507 5.40690508A5.40704372 5.40704372 0 0 1 .91880694 6.41614575 5.40704372 5.40704372 0 0 1 6.3262287 1.0092407z"/>
    <path d="M5.1505903 3.79711c-1.9474757.0365-3.2959237 1.11709-3.2959237 2.51613 0 1.39907 1.537398 2.57127 3.3227947 2.5895 1.615694.0151 3.353948-1.15196 3.931543-2.05775.268679.43973.796133 1.00668 1.7363287 1.00665 0 0-.438733-.79408-.438733-1.52342s.438733-1.48001.438733-1.48001c-.9573087 0-1.4883697.58-1.7523477 1.01647-.58417-.78746-2.268707-2.05292-3.942395-2.06757zm-1.7037727.91364a.68340171.857934 0 0 1 .664043.85783.683421.85795821 0 1 1-1.366842 0 .68340171.857934 0 0 1 .702799-.85783zm-.01292.58394a.22780051.27486038 0 0 0-.08061.0145.11390036.13743032 0 0 1 .131258.13643.11394655.13748605 0 0 1-.227893 0 .11390036.13743032 0 0 1 .02584-.0884.22780051.27486038 0 0 0-.08268.21188.22780051.27486038 0 0 0 .455269 0 .22780051.27486038 0 0 0-.221176-.27441zm-.08268.015a.11390036.13743032 0 0 0-.06563.0444.22780051.27486038 0 0 1 .06563-.0444z"/>
  </g>
</svg>
