<?xml version="1.0" encoding="UTF-8" standalone="no"?>
<!-- Created with Inkscape (http://www.inkscape.org/) -->

<svg
   xmlns:dc="http://purl.org/dc/elements/1.1/"
   xmlns:cc="http://creativecommons.org/ns#"
   xmlns:rdf="http://www.w3.org/1999/02/22-rdf-syntax-ns#"
   xmlns:svg="http://www.w3.org/2000/svg"
   xmlns="http://www.w3.org/2000/svg"
   xmlns:sodipodi="http://sodipodi.sourceforge.net/DTD/sodipodi-0.dtd"
   xmlns:inkscape="http://www.inkscape.org/namespaces/inkscape"
   width="48"
   height="48"
   viewBox="0 0 12.7 12.7"
   version="1.1"
   id="svg829"
   inkscape:version="0.92.3 (2405546, 2018-03-11)"
   sodipodi:docname="bluefish.svg">
  <defs
     id="defs823" />
  <sodipodi:namedview
     id="base"
     pagecolor="#ffffff"
     bordercolor="#666666"
     borderopacity="1.0"
     inkscape:pageopacity="0.0"
     inkscape:pageshadow="2"
     inkscape:zoom="3.7196763"
     inkscape:cx="24"
     inkscape:cy="24"
     inkscape:document-units="mm"
     inkscape:current-layer="layer1"
     showgrid="false"
     showguides="true"
     inkscape:guide-bbox="true"
     inkscape:window-width="1366"
     inkscape:window-height="714"
     inkscape:window-x="0"
     inkscape:window-y="25"
     inkscape:window-maximized="1"
     scale-x="1.9"
     units="px"
     inkscape:snap-global="false" />
  <metadata
     id="metadata826">
    <rdf:RDF>
      <cc:Work
         rdf:about="">
        <dc:format>image/svg+xml</dc:format>
        <dc:type
           rdf:resource="http://purl.org/dc/dcmitype/StillImage" />
        <dc:title></dc:title>
      </cc:Work>
    </rdf:RDF>
  </metadata>
  <g
     inkscape:label="Capa 1"
     inkscape:groupmode="layer"
     id="layer1"
     transform="translate(0,-284.3)">
    <g
       id="g837">
      <path
         id="path832"
         transform="matrix(0.26458333,0,0,0.26458333,0,284.3)"
         d="M 23.978516 0.27539062 A 23.770509 23.770509 0 0 0 0.20703125 24.046875 A 23.770509 23.770509 0 0 0 23.978516 47.816406 A 23.770509 23.770509 0 0 0 47.748047 24.046875 A 23.770509 23.770509 0 0 0 23.978516 0.27539062 z M 23.910156 3.8144531 A 20.436071 20.436071 0 0 1 44.345703 24.25 A 20.436071 20.436071 0 0 1 23.910156 44.685547 A 20.436071 20.436071 0 0 1 3.4726562 24.25 A 20.436071 20.436071 0 0 1 23.910156 3.8144531 z "
         style="fill:#1a1a1a;fill-opacity:1;stroke-width:0.52516764" />
      <path
         id="path41"
         d="m 5.1505903,288.09711 c -1.9474757,0.0365 -3.2959237,1.11709 -3.2959237,2.51613 0,1.39907 1.537398,2.57127 3.3227947,2.5895 1.615694,0.0151 3.353948,-1.15196 3.931543,-2.05775 0.268679,0.43973 0.796133,1.00668 1.7363287,1.00665 0,0 -0.438733,-0.79408 -0.438733,-1.52342 0,-0.72934 0.438733,-1.48001 0.438733,-1.48001 -0.9573087,0 -1.4883697,0.58 -1.7523477,1.01647 -0.58417,-0.78746 -2.268707,-2.05292 -3.942395,-2.06757 z m -1.7037727,0.91364 a 0.68340171,0.857934 0 0 1 0.664043,0.85783 0.683421,0.85795821 0 1 1 -1.366842,0 0.68340171,0.857934 0 0 1 0.702799,-0.85783 z m -0.01292,0.58394 a 0.22780051,0.27486038 0 0 0 -0.08061,0.0145 0.11390036,0.13743032 0 0 1 0.131258,0.13643 0.11394655,0.13748605 0 0 1 -0.227893,0 0.11390036,0.13743032 0 0 1 0.02584,-0.0884 0.22780051,0.27486038 0 0 0 -0.08268,0.21188 0.22780051,0.27486038 0 0 0 0.455269,0 0.22780051,0.27486038 0 0 0 -0.221176,-0.27441 z m -0.08268,0.015 a 0.11390036,0.13743032 0 0 0 -0.06563,0.0444 0.22780051,0.27486038 0 0 1 0.06563,-0.0444 z"
         style="opacity:1;fill:#1a1a1a;fill-opacity:1;stroke-width:0.18146281"
         inkscape:connector-curvature="0" />
    </g>
  </g>
</svg>
