<svg xmlns="http://www.w3.org/2000/svg" width="48" height="48" viewBox="0 0 12.7 12.7">
  <path fill="#1a1a1a" d="M5.5644792.17062v6.16311h1.5409872V.17062zm-.7700718 1.76451C2.5671131 2.59808.94320555 4.66116.94320555 7.1038c0 2.97807 2.41414265 5.39219 5.39218915 5.39219 2.9780952 0 5.3921893-2.41412 5.3921893-5.39219 0-2.44264-1.624727-4.50572-3.8520458-5.16867v1.63629c.4358104.19023.8370304.46256 1.183363.80887.7274747.72748 1.1276958 1.69473 1.1276958 2.72351s-.4002211 1.99604-1.1276958 2.72349C8.3314033 10.55477 7.36421 10.955 6.3353947 10.955c-1.0288152 0-1.9960324-.40023-2.7235069-1.12771C2.8844134 9.09984 2.483349 8.13258 2.483349 7.1038s.4010644-1.99603 1.1285388-2.72351c.3463329-.34633.7467333-.61864 1.1825196-.80887z"/>
</svg>
