<?xml version="1.0" encoding="UTF-8" standalone="no"?>
<svg
   xmlns:dc="http://purl.org/dc/elements/1.1/"
   xmlns:cc="http://creativecommons.org/ns#"
   xmlns:rdf="http://www.w3.org/1999/02/22-rdf-syntax-ns#"
   xmlns:svg="http://www.w3.org/2000/svg"
   xmlns="http://www.w3.org/2000/svg"
   xmlns:sodipodi="http://sodipodi.sourceforge.net/DTD/sodipodi-0.dtd"
   xmlns:inkscape="http://www.inkscape.org/namespaces/inkscape"
   width="48"
   height="48"
   viewBox="0 0 12.7 12.7"
   version="1.1"
   id="svg4"
   sodipodi:docname="com.github.themix_project.Oomox.svg"
   inkscape:version="0.92.3 (2405546, 2018-03-11)">
  <metadata
     id="metadata10">
    <rdf:RDF>
      <cc:Work
         rdf:about="">
        <dc:format>image/svg+xml</dc:format>
        <dc:type
           rdf:resource="http://purl.org/dc/dcmitype/StillImage" />
        <dc:title></dc:title>
      </cc:Work>
    </rdf:RDF>
  </metadata>
  <defs
     id="defs8" />
  <sodipodi:namedview
     pagecolor="#ffffff"
     bordercolor="#666666"
     borderopacity="1"
     objecttolerance="10"
     gridtolerance="10"
     guidetolerance="10"
     inkscape:pageopacity="0"
     inkscape:pageshadow="2"
     inkscape:window-width="1308"
     inkscape:window-height="742"
     id="namedview6"
     showgrid="false"
     inkscape:zoom="4.9166667"
     inkscape:cx="24"
     inkscape:cy="24"
     inkscape:window-x="58"
     inkscape:window-y="-4"
     inkscape:window-maximized="1"
     inkscape:current-layer="svg4" />
  <path
     id="path2"
     transform="scale(0.26458333)"
     style="fill:#1a1a1a;stroke-width:3.77952766"
     d="M 23.962891,0.26367188 A 23.773228,23.773228 0 0 0 0.18945312,24.076172 23.773228,23.773228 0 0 0 24,47.810547 23.773228,23.773228 0 0 0 47.736328,24.037109 23.773228,23.773228 0 0 0 23.962891,0.26367188 Z m -0.07617,3.51562502 0.03711,0.037109 A 20.409449,20.409449 0 0 1 44.333984,24.226562 20.409449,20.409449 0 0 1 23.923828,44.673828 20.409449,20.409449 0 0 1 3.4765625,24.263672 20.409449,20.409449 0 0 1 23.886719,3.7792969 Z" />
  <ellipse
     style="fill:#f57c00;stroke-width:0.2480461"
     cx="6.283854"
     cy="6.4179921"
     id="circle2"
     rx="4.8369145"
     ry="4.8368845" />
  <path
     inkscape:connector-curvature="0"
     style="fill:#479ae1;stroke-width:0.2480461;fill-opacity:1"
     d="M 6.2838527,6.4170839 11.080218,5.1329546 A 4.9656934,4.9618602 0 0 0 7.5674844,1.6298814 Z"
     id="path6" />
  <path
     inkscape:connector-curvature="0"
     style="fill:#4fae53;stroke-width:0.2480461;fill-opacity:1"
     d="M 6.2838527,6.4170839 9.7950946,9.9256155 A 4.9656934,4.9618602 0 0 0 11.074756,5.1344431 Z"
     id="path8" />
  <path
     inkscape:connector-curvature="0"
     style="fill:#e0ad2f;stroke-width:0.2480461;fill-opacity:1"
     d="M 6.2838527,6.4170839 4.9987312,11.209745 A 4.9656934,4.9618602 0 0 0 9.7911244,9.9213978 Z"
     id="path10" />
  <path
     inkscape:connector-curvature="0"
     style="fill:#e98928;stroke-width:0.2480461;fill-opacity:1"
     d="M 6.2838527,6.4170839 1.4874908,7.7012134 a 4.9656934,4.9618602 0 0 0 3.5127301,3.5030736 z"
     id="path12" />
  <path
     inkscape:connector-curvature="0"
     style="fill:#d74845;stroke-width:0.2480461;fill-opacity:1"
     d="M 6.2838527,6.4170839 2.7726123,2.9085528 A 4.9656934,4.9618602 0 0 0 1.4929532,7.6997247 Z"
     id="path14" />
  <path
     inkscape:connector-curvature="0"
     style="fill:#a458b8;stroke-width:0.2480461;fill-opacity:1"
     d="M 6.2838527,6.4170839 7.5689742,1.6244233 a 4.9656934,4.9618602 0 0 0 -4.7923894,1.288347 z"
     id="path16" />
  <path
     inkscape:connector-curvature="0"
     d="m 6.283854,3.4429457 c -1.6438045,0 -2.9765622,1.3325037 -2.9765622,2.9759995 0,1.6434955 1.3327577,2.9759996 2.9765622,2.9759996 1.643807,0 2.9765632,-1.3325041 2.9765632,-2.9759996 V 4.1869455 c 0,-0.412176 -0.3318844,-0.7439998 -0.7441407,-0.7439998 z M 8.2682295,3.9389455 A 0.49609387,0.49599992 0 0 1 8.7643233,4.4349454 0.49609387,0.49599992 0 0 1 8.2682295,4.9309455 0.49609387,0.49599992 0 0 1 7.7721355,4.4349454 0.49609387,0.49599992 0 0 1 8.2682295,3.9389455 Z"
     style="fill:#ececec;stroke-width:0.2480461;fill-opacity:1"
     id="path20" />
</svg>
