<svg xmlns="http://www.w3.org/2000/svg" width="48" height="48" viewBox="0 0 12.7 12.7">
  <path fill="#1a1a1a" d="M6.34431561.07286377a6.28928043 6.28928043 0 0 0-6.2895386 6.2895385 6.28928043 6.28928043 0 0 0 6.2895386 6.28902166 6.28928043 6.28928043 0 0 0 6.28902167-6.28902167A6.28928043 6.28928043 0 0 0 6.3443156.07286376zm-.01808691.93637693a5.40704372 5.40704372 0 0 1 5.40690507 5.40690505 5.40704372 5.40704372 0 0 1-5.40690507 5.40690508A5.40704372 5.40704372 0 0 1 .91880694 6.41614575 5.40704372 5.40704372 0 0 1 6.3262287 1.0092407zm.31832681.40049236c-.49816543.00457999-1.0004647.1204668-1.46761065.35346679l.47077232.70590004c1.10203587-.49411998 2.4332107-.13634947 3.12487386.90227064.69166342 1.03863986.5082098 2.40498707-.37258704 3.2313271L7.48998207 5.2353392l-.55500481 2.61637777 2.65048414.53123385-.71468508-1.07383632c1.2643125-1.09182004 1.55167725-2.9765487.60151353-4.4033487-.65323745-.98092003-1.73177012-1.50663274-2.82773434-1.49603273zm.66920983 1.54512537c-.16183107-.00105013-.32534648.04447672-.4702556.14107662-.386425.25733005-.49091346.77836685-.23357734 1.16478684.25733587.38642977.7788783.49144422 1.16530357.23409407.38642422-.25733004.49091347-.77888358.23357734-1.16530357-.16083465-.24150981-.42532935-.37265398-.69504797-.37465396zM3.1140217 4.31756576l.71520182 1.07383632c-1.26431221 1.09182004-1.5516772 2.97605208-.60151353 4.40283198.95016345 1.42677989 2.7994443 1.88869264 4.29431153 1.1430828l-.46973886-.70590013c-1.1020356.49413001-2.43372743.1358228-3.12539059-.90278742-.69166289-1.03863986-.50872627-2.40448039.37207031-3.23081038l.9110554 1.36684172.55448807-2.61586104-2.65048415-.53123385zM5.3955362 8.064624c-.16183108-.00106998-.32586269.04447672-.47077233.14107662-.38642422.25735994-.4909132.77834675-.23357734 1.16478684.25733586.38642977.77836182.49141406 1.16478657.23409407.38642501-.25733004.49143046-.77889337.23409434-1.16530357-.16083518-.24152992-.42481288-.37265398-.69453125-.37465396z"/>
</svg>
