<svg xmlns="http://www.w3.org/2000/svg" width="48" height="48" viewBox="0 0 12.7 12.7">
  <defs>
    <linearGradient id="a">
      <stop offset="0" stop-color="#054e87"/>
      <stop offset="1" stop-color="#1d99f3"/>
    </linearGradient>
  </defs>
  <g transform="translate(0 -284.3)">
    <path fill="#1a1a1a" d="M6.3443159 284.37286a6.2892804 6.2892804 0 0 0-6.28953853 6.28954 6.2892804 6.2892804 0 0 0 6.28953853 6.28902 6.2892804 6.2892804 0 0 0 6.2890211-6.28902 6.2892804 6.2892804 0 0 0-6.2890211-6.28954zm-.018087.93638a5.4070437 5.4070437 0 0 1 5.4069051 5.40691 5.4070437 5.4070437 0 0 1-5.4069051 5.4069 5.4070437 5.4070437 0 0 1-5.40742183-5.4069 5.4070437 5.4070437 0 0 1 5.40742183-5.40691z"/>
    <path fill="#cd7223" d="M7.1688321 286.04955l-1.1354698 3.21092 4.4704277-.74723c-.662338-1.26347-1.8826567-2.1918-3.3358985-2.46368" opacity=".75"/>
    <path fill="#ffa92d" d="M10.797821 289.21295l-3.3669215.62869 2.8872095 3.47292c.770455-1.20138.969768-2.71535.479712-4.10161" opacity=".75"/>
    <path fill="#2b4d37" d="M9.8835237 293.84164l-2.2314538-2.58222-1.5841574 4.22038c1.4325578.0619 2.852189-.52355 3.8158462-1.63816" opacity=".75"/>
    <path fill="#375a7d" d="M5.4060452 295.3963l1.1354697-3.21091-4.4704276.74721c.6623379 1.26349 1.8826561 2.19182 3.3358975 2.4637" opacity=".75"/>
    <path fill="#68377d" d="M1.8065089 292.22819l3.3669232-.62867-2.8872097-3.47293c-.7704557 1.20137-.9697679 2.71534-.4797135 4.1016" opacity=".75"/>
    <circle cx="6.3021646" cy="290.72177" r=".71437496" fill="#1a1a1a" opacity=".99999999"/>
    <path fill="#bf4231" d="M2.7101566 287.60185l2.2314526 2.58223 1.5841575-4.22038c-1.4325579-.0619-2.8521889.52354-3.8158449 1.63815" opacity=".75"/>
  </g>
</svg>
