<svg xmlns="http://www.w3.org/2000/svg" width="48" height="48" viewBox="0 0 12.7 12.7">
  <path fill="#1a1a1a" d="M6.34431561.07286377a6.28928043 6.28928043 0 0 0-6.2895386 6.2895385 6.28928043 6.28928043 0 0 0 6.2895386 6.28902166 6.28928043 6.28928043 0 0 0 6.28902167-6.28902167A6.28928043 6.28928043 0 0 0 6.3443156.07286376zm-.01808691.93637693a5.40704372 5.40704372 0 0 1 5.40690507 5.40690505 5.40704372 5.40704372 0 0 1-5.40690507 5.40690508A5.40704372 5.40704372 0 0 1 .91880694 6.41614575 5.40704372 5.40704372 0 0 1 6.3262287 1.0092407zM2.8484049 2.57555335v2.18591313H4.7805866V2.57555335H2.84840491zm2.13423656.5281332v.54105227a5.1720035 2.41180564 0 0 1 5.10976556 2.41122224 5.1720035 2.41180564 0 0 1-5.10976556 2.41173896v.55758873a6.34913182 2.96072398 0 0 0 .00568458 0 6.34913182 2.96072398 0 0 0 6.34896619-2.96105946 6.34913182 2.96072398 0 0 0-6.3489662-2.96054274 6.34913182 2.96072398 0 0 1-.00568457 0zm-1.19320864 1.891874v4.5805989H3.1372762l1.1425658 1.26865643 1.14153234-1.26865643H4.7960896v-4.5805989H3.78943283zm-1.1771892 3.47834078v.55138742h.87591557v-.55138742h-.87591557z"/>
</svg>
