<svg xmlns="http://www.w3.org/2000/svg" width="48" height="48" viewBox="0 0 12.7 12.7">
  <path fill="#1a1a1a" d="M6.34431561.07286377a6.28928043 6.28928043 0 0 0-6.2895386 6.2895385 6.28928043 6.28928043 0 0 0 6.2895386 6.28902166 6.28928043 6.28928043 0 0 0 6.28902167-6.28902167A6.28928043 6.28928043 0 0 0 6.3443156.07286376zm-.01808691.93637693a5.40704372 5.40704372 0 0 1 5.40690507 5.40690505 5.40704372 5.40704372 0 0 1-5.40690507 5.40690508A5.40704372 5.40704372 0 0 1 .91880694 6.41614575 5.40704372 5.40704372 0 0 1 6.3262287 1.0092407zm.14779466 1.75493173c-.06827811 0-.12402344.05576332-.12402344.12402343v.24701315c0 .06820006.0557456.1235067.12402344.1235067.0682781 0 .1235067-.05530664.1235067-.1235067v-.24701315c0-.06820005-.0552286-.12402343-.1235067-.12402343zm2.36161286.24701314c-.34505397 0-.65656724.20778285-.78858242.526583-.13201359.3188499-.05859674.68622571.18551843.93017578.33329191.33246985.87283659.33246985 1.20612798 0 .24406013-.24395007.3170158-.61132587.18500169-.93017577-.13201491-.31880016-.44295642-.526583-.78806568-.526583zm-3.59822984.12402344c-.06827811 0-.12402344.05530665-.12402344.1235067 0 .06820006.05574533.12402344.12402344.12402344.06827784 0 .12402344-.05576332.12402344-.12402344 0-.06820005-.0557456-.1235067-.12402344-.1235067zm.74207343.1235067c-.06827785 0-.12402344.05566357-.12402344.12402344 0 .06820006.05574586.1235067.12402344.1235067h.2470134c.06827811 0 .12350671-.05523653.12350671-.1235067 0-.06839982-.05522886-.12402344-.1235067-.12402344H5.9794798zm.74155696 0c-.06827706 0-.1235067.05566357-.1235067.12402344 0 .06820006.05522964.1235067.1235067.1235067h.2470134c.06827785 0 .12402344-.05523653.12402344-.1235067 0-.06839982-.05574559-.12402344-.12402344-.12402344h-.2470134zm2.34869378 0c.06833288 0 .12402344.05566357.12402344.12402344 0 .06820006-.0556903.1235067-.12402344.1235067-.0682781 0-.12298997-.05523653-.12298997-.1235067 0-.06839982.05471186-.12402344.12298997-.12402344zm-.47542317.1255739c.04744085.00799994.08868939.04196715.10128567.09146725.01679417.06600005-.02306531.13269171-.08888333.14986158-.06729306.0203999-.12311512.0684948-.15347897.13177494-.03982905.09889992-.00383698.2464673.10438633.42684726.02369.03789997.02557304.0857869.00413411.1250569-.02139288.03920013-.06278985.06367885-.10748697.0640789-.04469792.00056992-.0856279-.02321163-.10800371-.06201172-.15367979-.25515993-.19360753-.4737764-.12040606-.65060617.06028902-.13470017.17706023-.2352921.31936029-.27440202.01649412-.00399997.0332785-.0040669.04909264-.00206692zm-2.12028402.12195624c-.06827811 0-.12402344.0553167-.12402344.1235067v.24701342c0 .06820006.0557456.12402343.12402344.12402343.0682781 0 .1235067-.05576358.1235067-.12402343v-.24701341c0-.06820006-.0552286-.1235067-.1235067-.1235067zm1.1275798.7420737c.05618692.24433979-.0176948.50048794-.19533684.67747805l-.53330104.53588443.18293476.1829345c.0321048.03110018.04491673.07673948.03358965.11988932-.01132708.0432001-.04514585.07665006-.0883666.08785013-.043221.01129983-.08886904-.00108982-.11988959-.03358964l-.18241777-.18241804L4.2819092 8.06307353l.34984928.34984954.81287037-.81648749-.1710489-.17053242c-.04682119-.04849998-.04565702-.1253961.00206693-.17311608.04770702-.04769987.12458912-.04866693.17311608-.00206692l.17053216.17053215.68884693-.69246405-.16846523-.16846523c-.0468339-.04849998-.04667938-.12598294.00103346-.17363281.04770702-.04770014.12510506-.04856718.17363281-.00206719l.16846524.16846523 1.27330727-1.27847485c.18015955-.17890013.44143162-.24974206.68729648-.18655188-.11751548-.14305995-.29286967-.2259629-.47800683-.22634284-.03419316.00100012-.06720549-.01189038-.09095052-.0366903-.02412709-.02409984-.03766132-.0569505-.0366903-.09095052-.00068527-.18943664-.08774562-.3680251-.23616126-.48575833zm-1.0040731.1235067c-.0682781 0-.1235067.05530665-.1235067.12350644 0 .06820006.0552286.1235067.1235067.1235067.06827785 0 .1235067-.05525664.1235067-.1235067-7.9e-7-.0681998-.05522859-.12350644-.1235067-.12350644zm-1.23610024.12350644c-.06827811 0-.12402344.05525664-.12402344.1235067v.24753014c0 .06820006.05574453.1235067.12402344.1235067.06827784 0 .12298997-.05524658.12298997-.1235067V4.6188394c0-.06820005-.05471213-.1235067-.12298997-.1235067zm-.49506029.49454355c-.06827784 0-.12298997.0552966-.12298997.1235067 0 .06820006.05471186.12402344.12298997.12402344h.24701341c.06827785 0 .12402344-.05576358.12402344-.12402344 0-.06820005-.0557456-.1235067-.12402344-.1235067h-.2470134zm.7420737 0c-.06827811 0-.12402344.0552966-.12402344.1235067 0 .06820006.05574533.12402344.12402344.12402344h.24701314c.06827811 0 .12402344-.05576358.12402344-.12402344 0-.06820005-.0557456-.1235067-.12402344-.1235067h-.24701314zm3.9563476.1235067c-.06827705 0-.12402343.05576332-.12402343.12402344 0 .06830007.05574638.1235067.12402343.1235067.06827785 0 .12402344-.05514683.12402344-.1235067 0-.06820006-.05574586-.12402344-.12402344-.12402344zm-4.20336101.12402344c-.06827811 0-.12402344.05524659-.12402344.1235067v.24753015c0 .06819979.05574453.1229897.12402344.1229897.06827784 0 .12298997-.0547997.12298997-.1229897v-.24753015c0-.06820005-.05471213-.1235067-.12298997-.1235067zm3.0907672.61804999c-.06827784 0-.12402316.05575353-.12402343.12402344 0 .06820005.05574586.12298997.12402344.12298997.0682781 0 .1235067-.05478992.1235067-.12298997 0-.0681998-.0552286-.12402344-.1235067-.12402344zm.8655804 0c-.0682781 0-.12402343.05575353-.12402343.12402344v.2470134c0 .06820006.0557448.12298998.12402343.12298998.06827785 0 .12298998-.05477986.12298998-.12298997V5.9794798c0-.0681998-.05471187-.12402344-.12298998-.12402344zm-.49506028.49402682c-.06827784 0-.1235067.05576332-.1235067.12402343 0 .06820006.05522886.12402344.1235067.12402344h.24701341c.06833288 0 .12402344-.05576358.12402344-.12402344 0-.06820005-.0556903-.12402343-.12402344-.12402343h-.2470134zm.7420737 0c-.06827706 0-.12402344.05576332-.12402344.12402343 0 .06820006.05574638.12402344.12402343.12402344h.24701315c.0682781 0 .12402343-.05576358.12402343-.12402344 0-.06820005-.05574532-.12402343-.12402343-.12402343h-.24701315zm-.24701342.24804687c-.0682781 0-.12402343.05478992-.12402343.12298997v.24753014c0 .0681998.0557448.12350644.12402343.12350644.06827785 0 .12298998-.05524658.12298998-.12350644v-.24753014c0-.06820005-.05471187-.12298997-.12298998-.12298997zM4.10724292 8.2382568l-.56585696.56792388.17621647.17621673c.03216195.03109992.04491672.07673922.03358964.11988933-.01126992.04319984-.04514559.07748349-.0883666.08888333-.04327498.01130008-.08886904-.00158962-.11988932-.03358965l-.17621673-.17621673-.53020012.53175058c-.07090383.0707001-.09157864.17723088-.05322676.2697509.03840718.09250019.12823613.15317232.22840976.15296224.0657061.00022014.12895421-.02668032.17518327-.07338033L4.4570922 8.58758934l-.34984928-.34933254z"/>
</svg>
