<?xml version="1.0" encoding="UTF-8" standalone="no"?>
<svg
   xmlns:dc="http://purl.org/dc/elements/1.1/"
   xmlns:cc="http://creativecommons.org/ns#"
   xmlns:rdf="http://www.w3.org/1999/02/22-rdf-syntax-ns#"
   xmlns:svg="http://www.w3.org/2000/svg"
   xmlns="http://www.w3.org/2000/svg"
   xmlns:sodipodi="http://sodipodi.sourceforge.net/DTD/sodipodi-0.dtd"
   xmlns:inkscape="http://www.inkscape.org/namespaces/inkscape"
   width="48"
   height="48"
   viewBox="0 0 12.7 12.7"
   version="1.1"
   id="svg6"
   sodipodi:docname="doublecmd.svg"
   inkscape:version="0.92.3 (2405546, 2018-03-11)">
  <metadata
     id="metadata12">
    <rdf:RDF>
      <cc:Work
         rdf:about="">
        <dc:format>image/svg+xml</dc:format>
        <dc:type
           rdf:resource="http://purl.org/dc/dcmitype/StillImage" />
        <dc:title></dc:title>
      </cc:Work>
    </rdf:RDF>
  </metadata>
  <defs
     id="defs10" />
  <sodipodi:namedview
     pagecolor="#ffffff"
     bordercolor="#666666"
     borderopacity="1"
     objecttolerance="10"
     gridtolerance="10"
     guidetolerance="10"
     inkscape:pageopacity="0"
     inkscape:pageshadow="2"
     inkscape:window-width="1308"
     inkscape:window-height="742"
     id="namedview8"
     showgrid="false"
     inkscape:zoom="4.9166667"
     inkscape:cx="-11.815368"
     inkscape:cy="7.5974656"
     inkscape:window-x="58"
     inkscape:window-y="-4"
     inkscape:window-maximized="1"
     inkscape:current-layer="svg6" />
  <path
     d="M6.344.337A6.025 6.025 0 0 0 .32 6.362a6.025 6.025 0 0 0 6.025 6.025 6.025 6.025 0 0 0 6.025-6.025A6.025 6.025 0 0 0 6.344.337zm-.017.897a5.18 5.18 0 0 1 5.18 5.18 5.18 5.18 0 0 1-5.18 5.18 5.18 5.18 0 0 1-5.18-5.18 5.18 5.18 0 0 1 5.18-5.18z"
     id="path2"
     style="fill:#1a1a1a;fill-opacity:0.99215686"
     fill="#1a1a1a" />
  <path
     inkscape:connector-curvature="0"
     d="m 2.3561146,4.1276642 v 0.3800365 c 0,0 0,0.1900196 0.1900187,0.1900196 h 0.5700574 c 1.0494452,0 1.9001888,0.8507444 1.9001888,1.9001895 0,1.0494455 -0.8507437,1.900189 -1.9001889,1.900189 H 2.926171 2.5461333 c -0.1900187,0 -0.1900187,0.1900194 -0.1900187,0.1900194 v 0.3800377 c 0,0 0,0.1900186 0.1900187,0.1900186 h 0.5700574 c 1.4692244,0 2.6602646,-1.1910411 2.6602646,-2.6602647 0,-1.4692242 -1.1910402,-2.6602654 -2.6602646,-2.6602654 H 2.5461333 c -0.1900187,0 -0.1900187,0.1900198 -0.1900187,0.1900198 z"
     style="opacity:1;fill:#191919;fill-opacity:0.99215686;stroke-width:0.190019"
     id="path8" />
  <path
     inkscape:connector-curvature="0"
     style="opacity:1;fill:#191919;fill-opacity:0.99215686;stroke-width:0.190019"
     d="m 10.399523,4.1276642 v 0.3800365 c 0,0 0,0.1900196 -0.19002,0.1900196 H 9.6394448 c -1.0494463,0 -1.9001898,0.8507444 -1.9001898,1.9001895 0,1.0494455 0.8507435,1.900189 1.9001898,1.900189 h 0.1900224 0.3800358 c 0.19002,0 0.19002,0.1900194 0.19002,0.1900194 v 0.3800377 c 0,0 0,0.1900186 -0.19002,0.1900186 H 9.6394448 c -1.469225,0 -2.6602656,-1.1910411 -2.6602656,-2.6602647 0,-1.4692242 1.1910406,-2.6602654 2.6602656,-2.6602654 h 0.5700582 c 0.19002,0 0.19002,0.1900198 0.19002,0.1900198 z"
     id="path12" />
  <rect
     style="opacity:1;fill:#191919;fill-opacity:0.99215686;stroke:#1a1a1a;stroke-width:0.80338001;stroke-miterlimit:4;stroke-dasharray:none;stroke-opacity:1"
     id="rect1089"
     width="0.1144286"
     height="4.4146991"
     x="-2.8709102"
     y="4.3937626"
     ry="0.11870278"
     transform="scale(-1,1)" />
</svg>
