<?xml version="1.0" encoding="UTF-8" standalone="no"?>
<!-- Created with Inkscape (http://www.inkscape.org/) -->

<svg
   xmlns:dc="http://purl.org/dc/elements/1.1/"
   xmlns:cc="http://creativecommons.org/ns#"
   xmlns:rdf="http://www.w3.org/1999/02/22-rdf-syntax-ns#"
   xmlns:svg="http://www.w3.org/2000/svg"
   xmlns="http://www.w3.org/2000/svg"
   xmlns:sodipodi="http://sodipodi.sourceforge.net/DTD/sodipodi-0.dtd"
   xmlns:inkscape="http://www.inkscape.org/namespaces/inkscape"
   width="48"
   height="48"
   viewBox="0 0 12.7 12.7"
   version="1.1"
   id="svg829"
   inkscape:version="0.92.3 (2405546, 2018-03-11)"
   sodipodi:docname="easytag.svg">
  <defs
     id="defs823" />
  <sodipodi:namedview
     id="base"
     pagecolor="#ffffff"
     bordercolor="#666666"
     borderopacity="1.0"
     inkscape:pageopacity="0.0"
     inkscape:pageshadow="2"
     inkscape:zoom="2.8020833"
     inkscape:cx="24"
     inkscape:cy="24"
     inkscape:document-units="mm"
     inkscape:current-layer="layer1"
     showgrid="false"
     showguides="true"
     inkscape:guide-bbox="true"
     inkscape:window-width="1366"
     inkscape:window-height="719"
     inkscape:window-x="0"
     inkscape:window-y="25"
     inkscape:window-maximized="1"
     scale-x="1.9"
     units="px"
     inkscape:snap-global="false" />
  <metadata
     id="metadata826">
    <rdf:RDF>
      <cc:Work
         rdf:about="">
        <dc:format>image/svg+xml</dc:format>
        <dc:type
           rdf:resource="http://purl.org/dc/dcmitype/StillImage" />
        <dc:title></dc:title>
      </cc:Work>
    </rdf:RDF>
  </metadata>
  <g
     inkscape:label="Capa 1"
     inkscape:groupmode="layer"
     id="layer1"
     transform="translate(0,-284.3)">
    <path
       style="fill:#1a1a1a;fill-opacity:1;stroke-width:0.52516764"
       d="M 23.978516 0.27539062 A 23.770509 23.770509 0 0 0 0.20703125 24.046875 A 23.770509 23.770509 0 0 0 23.978516 47.816406 A 23.770509 23.770509 0 0 0 47.748047 24.046875 A 23.770509 23.770509 0 0 0 23.978516 0.27539062 z M 23.910156 3.8144531 A 20.436071 20.436071 0 0 1 44.345703 24.25 A 20.436071 20.436071 0 0 1 23.910156 44.685547 A 20.436071 20.436071 0 0 1 3.4726562 24.25 A 20.436071 20.436071 0 0 1 23.910156 3.8144531 z M 30.662109 9.703125 C 30.510924 9.7069045 30.359486 9.722475 30.212891 9.7636719 L 19.396484 12.939453 L 6.8769531 28.390625 C 6.1869482 29.242379 6.3452791 30.462562 7.2324219 31.125 L 12.037109 34.712891 L 16.841797 38.298828 L 21.642578 41.886719 C 22.529722 42.549119 23.802183 42.395177 24.492188 41.542969 L 35.701172 27.708984 L 36.960938 26.154297 L 37.087891 23.798828 L 37.552734 15.263672 C 37.560823 14.675426 37.292645 14.089909 36.769531 13.699219 L 31.964844 10.113281 C 31.577088 9.8237694 31.115681 9.6910305 30.662109 9.703125 z M 29.941406 14.066406 A 3.1578497 3.1578497 0 0 1 29.943359 14.066406 A 3.1578497 3.1578497 0 0 1 31.912109 14.730469 A 3.1578497 3.1578497 0 0 1 32.464844 19.162109 A 3.1578497 3.1578497 0 0 1 28.035156 19.714844 A 3.1578497 3.1578497 0 0 1 27.478516 15.285156 A 3.1578497 3.1578497 0 0 1 29.941406 14.066406 z M 23.699219 19.060547 L 23.699219 19.0625 C 23.738235 19.058834 23.786132 19.063007 23.841797 19.078125 C 23.942181 19.081905 24.028087 19.132065 24.113281 19.179688 C 23.987627 20.812368 24.665979 22.556365 25.546875 23.964844 C 26.811173 25.719792 26.913733 28.167022 25.966797 30.09375 C 25.943591 30.074852 26.242517 29.174801 26.248047 28.789062 C 26.496112 26.882404 25.391863 25.113546 24.011719 23.912109 C 23.847086 23.647164 23.395279 23.581338 23.269531 23.916016 C 22.632241 27.068255 22.019969 30.226126 21.392578 33.380859 C 21.28674 35.108103 19.587411 36.554214 17.875 36.316406 C 16.619973 36.198485 15.518519 34.818639 16.021484 33.566406 C 16.59775 31.88652 18.661426 31.105949 20.283203 31.578125 C 20.533113 31.701716 20.955887 31.859496 21.099609 31.501953 C 21.886165 27.602841 22.644433 23.694915 23.419922 19.792969 C 23.521088 19.562796 23.425796 19.085983 23.699219 19.060547 z "
       transform="matrix(0.26458333,0,0,0.26458333,0,284.3)"
       id="path827" />
    <path
       inkscape:connector-curvature="0"
       style="opacity:1;fill:#1a1a1a;fill-opacity:1;stroke:none;stroke-width:0.0263895"
       d="m 54.450447,341.5109 c -0.699603,0 -1.262802,0.5632 -1.262802,1.26281 0,0.6996 0.563199,1.26286 1.262802,1.26286 h 2.915902 v 4.54958 h 2.621599 v -4.54958 h 2.678879 c 0.699604,0 1.262802,-0.56326 1.262802,-1.26286 0,-0.69961 -0.563198,-1.26281 -1.262802,-1.26281 z m 2.915902,7.07525 h -3.762466 c -0.505822,0 -0.987151,0.40041 -1.079176,0.89779 l -1.570602,8.48895 c -0.09203,0.49738 0.241128,0.89779 0.746949,0.89779 h 4.58579 v 0.032 h 4.539768 v -0.032 h 4.597049 c 0.505821,0 0.838974,-0.40041 0.746949,-0.89779 l -1.570668,-8.48895 c -0.09202,-0.49738 -0.573289,-0.89779 -1.07911,-0.89779 h -3.489167 l -0.0068,3.70486 2.545423,0.002 -3.981976,3.2663 -3.815203,-3.25385 2.593287,0.009 z"
       id="rect827" />
  </g>
</svg>
