<svg xmlns="http://www.w3.org/2000/svg" width="48" height="48" viewBox="0 0 12.7 12.7">
  <path fill="#1a1a1a" d="M6.34431561.07286377a6.28928043 6.28928043 0 0 0-6.2895386 6.2895385 6.28928043 6.28928043 0 0 0 6.2895386 6.28902166 6.28928043 6.28928043 0 0 0 6.28902167-6.28902167A6.28928043 6.28928043 0 0 0 6.3443156.07286376zm-.01808691.93637693a5.40704372 5.40704372 0 0 1 5.40690507 5.40690505 5.40704372 5.40704372 0 0 1-5.40690507 5.40690508A5.40704372 5.40704372 0 0 1 .91880694 6.41614575 5.40704372 5.40704372 0 0 1 6.3262287 1.0092407zm.05271002.695048c-2.56152964 0-4.64519443 2.08418131-4.64519443 4.64571122 0 .52776992.09291804 1.03320796.25579831 1.50636788l5.895764-5.89628075c-.47315966-.16287999-.9786043-.25579835-1.50636788-.25579835zm1.90117595.41134442l.05322676.0532267-6.15362956 6.1541462c.14948072.31685017.332116.61391772.5462198.8867677l6.51329758-6.51278085c-.29359675-.2303899-.61500464-.42621975-.95911458-.58135975zm1.31103104.88625076l-6.56032303 6.5598063c.2740234.28552007.58478658.53413024.92345774.74259016l6.37325441-6.37325415.02532142.02480469c-.21214397-.35082004-.46747694-.6715469-.76171054-.953947zm.97461757 1.34823807l-6.18670253 6.1861858c.60669302.29101996 1.28321804.4588867 1.99987797.4588867 2.5615299 0 4.64571127-2.08366462 4.64571127-4.64519453 0-.71663003-.16786172-1.39317781-.45888671-1.99987797z"/>
</svg>
