<svg xmlns="http://www.w3.org/2000/svg" width="48" height="48" viewBox="0 0 12.7 12.7">
  <path fill="#1a1a1a" d="M6.34431561.07286377a6.28928043 6.28928043 0 0 0-6.2895386 6.2895385 6.28928043 6.28928043 0 0 0 6.2895386 6.28902166 6.28928043 6.28928043 0 0 0 6.28902167-6.28902167A6.28928043 6.28928043 0 0 0 6.3443156.07286376zm-.01808691.93637693a5.40704372 5.40704372 0 0 1 5.40690507 5.40690505 5.40704372 5.40704372 0 0 1-5.40690507 5.40690508A5.40704372 5.40704372 0 0 1 .91880694 6.41614575 5.40704372 5.40704372 0 0 1 6.3262287 1.0092407zm.19430338 1.11362711v.00103354c-.15646162.00199999-.31485602.01112145-.47438971.02532145-.11965014.0112-.23667984.01493938-.35346666.03203937-2.3746539.3501-4.13150222 1.98642005-3.97185055 3.75791022.10338102 1.14710976.98368717 2.09134601 2.24275721 2.58950589l-.52554927 2.04793688 2.32492256-1.68155088.01653645-.00103373c.2869229.01380014.57523962.01754796.87436536-.01085188 2.55253672-.23288017 4.49282232-1.93132946 4.32531726-3.78994957-.15703417-1.74245003-2.1117102-3.0104613-4.45864265-2.97036129zm-.42788072.91105552c.02757805-.00100012.05536009-.00093292.08319902.00206693.00215.00006006.00405103.00006006.00620104 0 .22491911.02050018.34736695.22515697.32917897.40617695-.0000778.00199999-.0000778.0031676 0 .00516758.01106196.9297699.09483698 1.8440622.12247324 2.76417216-.12752202.01370013-.31711238.03877654-.43873314.05167656-.20059729-.9324099-.26856398-1.88594574-.4697386-2.83548583-.00034316-.00199999.00034264-.00216773 0-.00516758-.00348006-.02980002-.00789807-.05019569-.00671803-.06459564.00007752-.00199998.00007752-.00316759 0-.00516758.00540014-.15659999.18110993-.30550352.3741375-.31884355zm.40772688 3.91242254c.03091497-.00199998.06282002-.00096652.0945679.00103347.12591309.01280001.24115633.07314406.30902513.17983411.00203993.00199999.0044479.00416772.00671803.00516758.14801083.20504996.05029227.537378-.18086757.62476802-.00215-.00006985-.00456804-.00006985-.00671804 0-.23732754.11107023-.5649751-.0663231-.5854938-.33486327.00007725-.00199999.00007725-.00416745 0-.00516758-.01694207-.12359005.0339709-.25580234.12247297-.34778235.00007779-.00199999.00007779-.0031676 0-.00516758.06185906-.07159995.14754357-.10886546.24029538-.11730566v-.00051674z"/>
</svg>
