<svg xmlns="http://www.w3.org/2000/svg" width="48" height="48" viewBox="0 0 12.7 12.7">
  <path fill="#1a1a1a" d="M6.34431561.07286377a6.28928043 6.28928043 0 0 0-6.2895386 6.2895385 6.28928043 6.28928043 0 0 0 6.2895386 6.28902166 6.28928043 6.28928043 0 0 0 6.28902167-6.28902167A6.28928043 6.28928043 0 0 0 6.3443156.07286376zm-.01808691.93637693a5.40704372 5.40704372 0 0 1 5.40690507 5.40690505 5.40704372 5.40704372 0 0 1-5.40690507 5.40690508A5.40704372 5.40704372 0 0 1 .91880694 6.41614575 5.40704372 5.40704372 0 0 1 6.3262287 1.0092407zM4.2142129 2.35334468c-.27952885 0-.5048787.22535875-.5048787.50487865v.80718607h1.00924067v-.80718607c0-.2795199-.22483233-.50487865-.50436197-.50487865zm4.2669232 0c-.27952965 0-.50487898.22535875-.50487898.50487865v.80718607h1.00924095v-.80718607c0-.2795199-.22483313-.50487865-.50436198-.50487865zM2.32182206 3.89330243v1.3792438h.00826823v3.55843914c0 .41749.16123184.7741957.4831745 1.07073566.32204475.29652992.70982072.44493418 1.16323665.44493418h4.7557819c.45341593 0 .84109215-.14840426 1.16323664-.44493418.32202385-.29653997.48265768-.65324565.48265768-1.07073566V4.69428718h-.00516758v-.80098475H2.32182207zm.7400066 1.3792438H9.6469564v3.55843914h-.000517c0 .23149004-.08911801.42977567-.2682007.59479576-.17907741.16488013-.39436278.24701341-.64595534.24701341h-4.7557819c-.25151212 0-.46683586-.08207348-.64595533-.2470134-.17908058-.16498994-.26871745-.36330573-.26871745-.59479577V5.27254622zm2.05672185.73793957c-.10767986 0-.22634548.01477512-.35605058.04547526-.12970536.03069987-.26929582.0758489-.41857903.13590905v.37465396c.14683555-.08199993.28441306-.14309116.41289472-.18345123.12970484-.04030001.25272497-.06046153.36896966-.06046153.16396705 0 .29686355.04571947.39842519.1374595.10278506.09179984.1539957.21095732.15399596.35656732 0 .08930005-.02359448.18037836-.07131367.2733683-.04649894.09180009-.12935453.20407708-.24804688.33744719-.06240488.07089986-.21538405.22947312-.4588867.47542317-.2422795.2447298-.43340735.43989386-.5741252.5854938v.31212578h1.73942876v-.3126425H4.77180163c.29856641-.30467988.529531-.54065726.69349778-.70951725.16396679-.17009004.26138081-.27353524.29197194-.30902512.11135016-.1370502.18783988-.25572059.22944322-.35605059.04282705-.1015701.06407891-.2083308.06407891-.32091074 0-.23737993-.0843542-.4270076-.25321471-.5689576-.16886132-.14193997-.39514568-.21290677-.67902825-.21290677zm2.39313558.04909264l-.65474029.13229167v.33744693l.6588744-.13177467v2.0903115h-.60564764v.31212577H8.4883706v-.31212578h-.60564765V6.05957844H7.5116861z"/>
</svg>
