<svg xmlns="http://www.w3.org/2000/svg" width="48" height="48" viewBox="0 0 12.7 12.7">
  <path fill="#1a1a1a" d="M6.3443558.07295A6.2892804 6.2892804 0 0 0 .05494145 6.36237a6.2892804 6.2892804 0 0 0 6.28941435 6.28914 6.2892804 6.2892804 0 0 0 6.2891432-6.28914A6.2892804 6.2892804 0 0 0 6.3443558.07295zm-.018184.9363a5.4070438 5.4070438 0 0 1 5.4071322 5.40711 5.4070438 5.4070438 0 0 1-5.4071322 5.40686A5.4070438 5.4070438 0 0 1 .91903946 6.41636 5.4070438 5.4070438 0 0 1 6.3261718 1.00925z"/>
  <path fill="#04a" d="M7.0858724 2.24985c.1121515-.004.2232421 0 .3224609 0h1.0583333v1.5875H7.4083333s-.5291667 0-.5291667.52917v1.05833h1.5875l-.2645833 1.5875H6.8791666v3.43958h-1.5875V7.01235H4.2333333v-1.5875h1.0583333V4.36652c0-1.85209 1.0092399-2.08772 1.7942058-2.11667z" opacity=".75"/>
</svg>
