<svg xmlns="http://www.w3.org/2000/svg" width="48" height="48" viewBox="0 0 12.7 12.7">
  <path fill="#1a1a1a" d="M6.34999992.06097819A6.28928043 6.28928043 0 0 0 .06097819 6.34999992a6.28928043 6.28928043 0 0 0 6.28902173 6.28902166 6.28928043 6.28928043 0 0 0 6.28902166-6.28902166A6.28928043 6.28928043 0 0 0 6.34999992.06097819zm-.01808665.93586017a5.40704372 5.40704372 0 0 1 5.4074218 5.40742178 5.40704372 5.40704372 0 0 1-5.4074218 5.40690508A5.40704372 5.40704372 0 0 1 .92500814 6.40426014 5.40704372 5.40704372 0 0 1 6.33191327.99683836zM9.12812488 2.6458333l-5.0932291.00051673L2.6458333 9.12812488h1.38906248l.60254726-2.77812496H8.0475708L4.96093744 9.12812488l.92604165.92604166c1.38901936-.9260099 2.77816783.74104764 4.16718745-.64802252L9.7761474 8.29458394l-.4165121.32452813c-.629226.36162006-1.14617684-.04505325-1.88050538-.15761309l2.1120158-2.1120158.46302082-1.38854574h-5.0932291l.23151041-.92604166h3.4726562l.46302083-1.38906248z"/>
</svg>
