<?xml version="1.0" encoding="UTF-8" standalone="no"?>
<!-- Created with Inkscape (http://www.inkscape.org/) -->

<svg
   xmlns:dc="http://purl.org/dc/elements/1.1/"
   xmlns:cc="http://creativecommons.org/ns#"
   xmlns:rdf="http://www.w3.org/1999/02/22-rdf-syntax-ns#"
   xmlns:svg="http://www.w3.org/2000/svg"
   xmlns="http://www.w3.org/2000/svg"
   xmlns:sodipodi="http://sodipodi.sourceforge.net/DTD/sodipodi-0.dtd"
   xmlns:inkscape="http://www.inkscape.org/namespaces/inkscape"
   width="48"
   height="48"
   viewBox="0 0 12.7 12.7"
   version="1.1"
   id="svg829"
   inkscape:version="0.92.3 (2405546, 2018-03-11)"
   sodipodi:docname="filezilla.svg">
  <defs
     id="defs823" />
  <sodipodi:namedview
     id="base"
     pagecolor="#ffffff"
     bordercolor="#666666"
     borderopacity="1.0"
     inkscape:pageopacity="0.0"
     inkscape:pageshadow="2"
     inkscape:zoom="3.9627443"
     inkscape:cx="24"
     inkscape:cy="24"
     inkscape:document-units="mm"
     inkscape:current-layer="layer1"
     showgrid="false"
     showguides="true"
     inkscape:guide-bbox="true"
     inkscape:window-width="1366"
     inkscape:window-height="719"
     inkscape:window-x="0"
     inkscape:window-y="25"
     inkscape:window-maximized="1"
     scale-x="1.9"
     units="px"
     inkscape:snap-global="false" />
  <metadata
     id="metadata826">
    <rdf:RDF>
      <cc:Work
         rdf:about="">
        <dc:format>image/svg+xml</dc:format>
        <dc:type
           rdf:resource="http://purl.org/dc/dcmitype/StillImage" />
        <dc:title></dc:title>
      </cc:Work>
    </rdf:RDF>
  </metadata>
  <g
     inkscape:label="Capa 1"
     inkscape:groupmode="layer"
     id="layer1"
     transform="translate(0,-284.3)">
    <path
       style="fill:#1a1a1a;fill-opacity:1;stroke-width:0.52516764"
       d="M 24 0.23046875 A 23.770509 23.770509 0 0 0 0.23046875 24 A 23.770509 23.770509 0 0 0 24 47.769531 A 23.770509 23.770509 0 0 0 47.769531 24 A 23.770509 23.770509 0 0 0 24 0.23046875 z M 23.931641 3.7675781 A 20.436071 20.436071 0 0 1 44.369141 24.205078 A 20.436071 20.436071 0 0 1 23.931641 44.640625 A 20.436071 20.436071 0 0 1 3.4960938 24.205078 A 20.436071 20.436071 0 0 1 23.931641 3.7675781 z M 34.5 10 L 15.25 10.001953 L 10 34.5 L 15.25 34.5 L 17.527344 24 L 30.416016 24 L 18.75 34.5 L 22.25 38 C 27.499837 34.50012 32.750162 40.80081 38 35.550781 L 36.949219 31.349609 L 35.375 32.576172 C 32.996823 33.942925 31.042993 32.405892 28.267578 31.980469 L 36.25 23.998047 L 38 18.75 L 18.75 18.75 L 19.625 15.25 L 32.75 15.25 L 34.5 10 z "
       transform="matrix(0.26458333,0,0,0.26458333,0,284.3)"
       id="path1374" />
  </g>
</svg>
