<svg xmlns="http://www.w3.org/2000/svg" width="48" height="48" viewBox="0 0 12.7 12.7"><path fill="#1a1a1a" d="M6.35.061A6.29 6.29 0 0 0 .061 6.35a6.29 6.29 0 0 0 6.289 6.289 6.29 6.29 0 0 0 6.289-6.289A6.29 6.29 0 0 0 6.35.061zm-.018.936a5.407 5.407 0 0 1 5.407 5.407 5.407 5.407 0 0 1-5.407 5.407A5.407 5.407 0 0 1 .925 6.404 5.407 5.407 0 0 1 6.332.997zm-.119 1.012c-.869-.003-1.614.157-2.291.496-.226.113-.26.153-.246.275.03.248.158.273.538.102.708-.317 1.052-.385 1.944-.386 1.024 0 1.401.086 2.241.521.144.075.601.427.771.238.17-.169.08-.308-.355-.555-.857-.488-1.606-.687-2.602-.691zm-.026 1.005a4.248 4.248 0 0 0-3.133 1.36c-.325.35-.704.926-.704 1.069 0 .165.068.257.192.257.098 0 .197-.105.432-.459.526-.791 1.209-1.316 2.088-1.606.682-.223 1.48-.197 2.248 0a4.022 4.022 0 0 1 2.306 1.969c.102.2.163.26.262.26.17 0 .27-.126.224-.284-.075-.255-.477-.872-.78-1.2a4.261 4.261 0 0 0-3.135-1.366zm.054.998v.001a3.412 3.412 0 0 0-.74.07c-1.177.247-2.161 1.2-2.476 2.4-.168.636-.09 1.676.185 2.508.083.248.122.3.24.314.272.031.298-.098.136-.66-.465-1.609-.064-2.977 1.09-3.723 1.14-.738 2.708-.52 3.6.5.56.64.867 1.722.623 2.194-.162.311-.554.499-.877.418-.235-.06-.515-.349-.55-.57-.127-.785-.305-1.092-.756-1.302-.384-.18-.705-.174-1.082.017-.352.178-.621.538-.676.902-.02.13-.01.414.02.63a3.258 3.258 0 0 0 2.468 2.729c.165.04.436.07.602.064l.302-.01c.17-.086.18-.286 0-.384l-.427-.065c-.537-.081-.759-.152-1.128-.36-.802-.451-1.377-1.43-1.377-2.345 0-.404.153-.639.509-.786.257-.107.26-.107.518 0 .325.134.482.36.522.751.074.717.572 1.19 1.254 1.19.548 0 1.009-.356 1.172-.904.16-.537-.055-1.437-.506-2.123a3.224 3.224 0 0 0-2.646-1.456zm-.036 1.04a2.876 2.876 0 0 0-.978.18c-.444.216-.866.65-1.085 1.11-.166.352-.175.406-.175 1.002 0 .733.088 1.122.404 1.78.272.567.649 1.062 1.067 1.4.363.295.402.309.553.198.155-.113.068-.307-.244-.547-.339-.26-.705-.73-.952-1.223-.406-.81-.508-1.81-.244-2.382.192-.416.485-.726.858-.91.449-.22 1.104-.22 1.552 0 .536.263.878.742.999 1.399.072.392.181.522.349.414.077-.05.094-.133.087-.431-.018-.726-.526-1.454-1.269-1.82-.25-.12-.58-.174-.922-.17zm-.002 1.983a.275.275 0 0 0-.135.039c-.105.056-.113.096-.087.399A2.252 2.252 0 0 0 7.719 9.46c.416.091.527.089.627-.011.199-.2.066-.358-.348-.414a1.812 1.812 0 0 1-1.574-1.616c-.03-.255-.103-.382-.221-.384z"/></svg>