<svg xmlns="http://www.w3.org/2000/svg" width="48" height="48" viewBox="0 0 12.7 12.7">
  <path fill="#1a1a1a" d="M6.34999992.06097819A6.28928043 6.28928043 0 0 0 .06097819 6.34999992a6.28928043 6.28928043 0 0 0 6.28902173 6.28902166 6.28928043 6.28928043 0 0 0 6.28902166-6.28902166A6.28928043 6.28928043 0 0 0 6.34999992.06097819zm-.01808665.93586017a5.40704372 5.40704372 0 0 1 5.4074218 5.40742178 5.40704372 5.40704372 0 0 1-5.4074218 5.40690508A5.40704372 5.40704372 0 0 1 .92500814 6.40426014 5.40704372 5.40704372 0 0 1 6.33191327.99683836zM6.2130574 2.0086629c-.8688734-.003-1.61386783.15741052-2.29133291.4966105-.2255311.11292002-.26057966.15250187-.24597995.27440176.02981801.24880014.15798959.27300951.53846835.1023194.70733337-.31743996 1.05185976-.38506291 1.94406756-.3860229 1.0239703-.00085 1.40091555.08650518 2.24069007.52141522.14428259.07460006.60104125.42709147.77152896.23771145.1688502-.16883988.07979675-.3083216-.35501712-.55552154-.8575106-.48752-1.60684948-.6861939-2.60242496-.69091389zm-.02635515 1.00562332c-1.14641231-.0008599-2.29248411.45214699-3.13262508 1.35960695-.32500623.3510399-.70383307.92639858-.70383307 1.06866848 0 .1658702.06822003.25734883.19223633.25734883.09721199 0 .1961126-.10506684.4314981-.45888672.52644119-.79119014 1.20898945-1.3159835 2.08824457-1.60610362.6818966-.22252993 1.48055831-.19678994 2.24792484 0 .99080769.32569017 1.8406803 1.05113215 2.30631918 1.96887224.10132377.19968977.16223668.26096595.26148268.26096595.17092321 0 .27096481-.12724395.22427591-.2852539-.0752901-.2547702-.47673894-.8720037-.78083091-1.20044368-.84131017-.90874981-1.98828023-1.36391437-3.13469255-1.36477453zm.05426049.9978718v.00103373c-.244348-.00300011-.49227052.01857983-.7400065.07027994-1.17722305.24609002-2.16136085 1.19911997-2.4763346 2.3988199-.16715132.63664993-.09026949 1.67660397.18551815 2.50837405.08242115.24856996.12214728.30043252.24029564.3141927.27163633.03159999.2979367-.09772808.13539205-.65990812-.46510971-1.60861003-.06422363-2.97706676 1.08933931-3.723287 1.14050365-.73777977 2.70876445-.51908842 3.6013305.50126158.5593199.6393799.86625878 1.72066107.6221841 2.1926309-.16123365.31180008-.55396659.4990023-.87643228.4180623-.23565035-.0592-.51511411-.34831787-.5508707-.5705078-.12618773-.78409006-.30414383-1.09130253-.7549925-1.30121262-.38458775-.17907-.7052077-.17407652-1.08262128.01705345-.35166379.17811988-.62084954.53788362-.67541112.9017537-.019685.13111982-.01093894.41457562.0196371.6299356.1902558 1.34145997 1.14961987 2.40258227 2.46754965 2.72903232.16574611.04110011.43680088.07019555.60254726.06459564l.30179036-.01033542c.17033584-.08639995.17965764-.28586588 0-.38395565l-.42684752-.06459564c-.53676126-.08170016-.7586284-.15249472-1.12757954-.3601847-.80233493-.45166993-1.37717687-1.43085342-1.37717687-2.3455934 0-.40313.15264606-.63850836.50849608-.78599849.25712394-.10654982.26067385-.10654982.51779778 0 .3254068.13487003.48213777.36057549.52244863.75137539.07402618.7172301.57176087 1.18907479 1.25418716 1.18907479.54767876 0 1.00854588-.3553042 1.17202134-.90330416.15999989-.5363001-.0547489-1.4372111-.50591217-2.12235095-.59791837-.90803014-1.5875132-1.43785191-2.64635003-1.45624204zM6.2053059 5.05188796c-.34101378.00399997-.6913491.06765713-.97875168.17931712-.4431448.21701997-.86575317.65044028-1.08417147 1.11156007-.16620146.35084993-.17580292.4052726-.17569973 1.00097245.00012276.73284.08853408 1.1221233.4041095 1.78025317.27192419.56708992.64887103 1.06213803 1.06763527 1.4009481.36297578.29370998.40131655.30789403.55242089.19740403.15469314-.11304005.06864244-.30762363-.24391276-.54725358-.33889235-.25979992-.70482406-.72983433-.9518798-1.22266417-.40580601-.8095001-.50844-1.81003044-.24391276-2.38280043.19198378-.41569004.48509528-.72569836.85834536-.90898846.44844573-.22023996 1.10339795-.22023996 1.5518434 0 .53524944.26285004.87721387.74182418.99838854 1.39836443.07232914.39190983.1817616.52213483.34881608.41444492.07740782-.04990015.09453615-.13303832.08733313-.43149837-.01750007-.72551977-.52582497-1.4542103-1.26865643-1.8190104-.24935894-.12132997-.58089243-.17535895-.92190754-.17104888zM6.202722 7.03471274c-.03955494-.00081016-.0843989.012074-.13435859.03927395-.10489512.05620015-.11294745.09604217-.08733314.39894219.08102283.95861001.80212988 1.78324534 1.73839503 1.98747536.41526671.09070023.52653961.08833141.62631849-.01136862.1992868-.19931009.06634585-.35787514-.34726562-.41444518-.8453882-.11560995-1.47355823-.76028522-1.57406418-1.61540505-.02997703-.25506018-.10302848-.38206283-.22169199-.38447265z"/>
</svg>
