<?xml version="1.0" encoding="UTF-8" standalone="no"?>
<!-- Created with Inkscape (http://www.inkscape.org/) -->

<svg
   xmlns:dc="http://purl.org/dc/elements/1.1/"
   xmlns:cc="http://creativecommons.org/ns#"
   xmlns:rdf="http://www.w3.org/1999/02/22-rdf-syntax-ns#"
   xmlns:svg="http://www.w3.org/2000/svg"
   xmlns="http://www.w3.org/2000/svg"
   xmlns:sodipodi="http://sodipodi.sourceforge.net/DTD/sodipodi-0.dtd"
   xmlns:inkscape="http://www.inkscape.org/namespaces/inkscape"
   width="48"
   height="48"
   viewBox="0 0 12.7 12.7"
   version="1.1"
   id="svg829"
   inkscape:version="0.92.3 (2405546, 2018-03-11)"
   sodipodi:docname="fingerprint-gui.svg">
  <defs
     id="defs823" />
  <sodipodi:namedview
     id="base"
     pagecolor="#ffffff"
     bordercolor="#666666"
     borderopacity="1.0"
     inkscape:pageopacity="0.0"
     inkscape:pageshadow="2"
     inkscape:zoom="3.9627443"
     inkscape:cx="24"
     inkscape:cy="24"
     inkscape:document-units="mm"
     inkscape:current-layer="layer1"
     showgrid="false"
     showguides="true"
     inkscape:guide-bbox="true"
     inkscape:window-width="1366"
     inkscape:window-height="719"
     inkscape:window-x="0"
     inkscape:window-y="25"
     inkscape:window-maximized="1"
     scale-x="1.9"
     units="px"
     inkscape:snap-global="false" />
  <metadata
     id="metadata826">
    <rdf:RDF>
      <cc:Work
         rdf:about="">
        <dc:format>image/svg+xml</dc:format>
        <dc:type
           rdf:resource="http://purl.org/dc/dcmitype/StillImage" />
        <dc:title></dc:title>
      </cc:Work>
    </rdf:RDF>
  </metadata>
  <g
     inkscape:label="Capa 1"
     inkscape:groupmode="layer"
     id="layer1"
     transform="translate(0,-284.3)">
    <path
       style="fill:#1a1a1a;fill-opacity:1;stroke-width:0.52516764"
       d="M 24 0.23046875 A 23.770509 23.770509 0 0 0 0.23046875 24 A 23.770509 23.770509 0 0 0 24 47.769531 A 23.770509 23.770509 0 0 0 47.769531 24 A 23.770509 23.770509 0 0 0 24 0.23046875 z M 23.931641 3.7675781 A 20.436071 20.436071 0 0 1 44.369141 24.205078 A 20.436071 20.436071 0 0 1 23.931641 44.640625 A 20.436071 20.436071 0 0 1 3.4960938 24.205078 A 20.436071 20.436071 0 0 1 23.931641 3.7675781 z M 23.482422 7.5917969 C 20.198491 7.5804583 17.382764 8.1867343 14.822266 9.46875 C 13.969865 9.8955343 13.837398 10.045135 13.892578 10.505859 C 14.005276 11.446206 14.489704 11.537706 15.927734 10.892578 C 18.60112 9.6928049 19.903267 9.4372221 23.275391 9.4335938 C 27.145515 9.4303812 28.57019 9.7605425 31.744141 11.404297 C 32.289461 11.68625 34.015793 13.018501 34.660156 12.302734 C 35.29833 11.664599 34.96175 11.137424 33.318359 10.203125 C 30.077374 8.3605297 27.245227 7.6096362 23.482422 7.5917969 z M 23.382812 11.392578 C 19.049915 11.389328 14.718305 13.10148 11.542969 16.53125 C 10.314599 17.858015 8.8828125 20.032599 8.8828125 20.570312 C 8.8828125 21.197223 9.140652 21.542969 9.609375 21.542969 C 9.9767904 21.542969 10.350588 21.145866 11.240234 19.808594 C 13.229933 16.818269 15.809643 14.834798 19.132812 13.738281 C 21.710059 12.897223 24.728623 12.994508 27.628906 13.738281 C 31.373691 14.969236 34.585808 17.711064 36.345703 21.179688 C 36.728659 21.934421 36.958881 22.166016 37.333984 22.166016 C 37.979993 22.166016 38.358103 21.685094 38.181641 21.087891 C 37.89708 20.12498 36.379793 17.792129 35.230469 16.550781 C 32.050714 13.116136 27.715709 11.395829 23.382812 11.392578 z M 23.587891 15.164062 L 23.587891 15.167969 C 22.664371 15.15663 21.727341 15.238192 20.791016 15.433594 C 16.341669 16.363698 12.622093 19.965701 11.431641 24.5 C 10.799888 26.906236 11.090465 30.836771 12.132812 33.980469 C 12.444325 34.919946 12.594471 35.115962 13.041016 35.167969 C 14.067673 35.287402 14.167076 34.798603 13.552734 32.673828 C 11.794839 26.594042 13.309999 21.421922 17.669922 18.601562 C 21.980487 15.813103 27.907772 16.639653 31.28125 20.496094 C 33.395215 22.912648 34.555299 26.99938 33.632812 28.783203 C 33.023425 29.96166 31.53908 30.669196 30.320312 30.363281 C 29.429665 30.139533 28.373424 29.046804 28.238281 28.207031 C 27.761351 25.243541 27.088761 24.082423 25.384766 23.289062 C 23.931206 22.612262 22.719414 22.631135 21.292969 23.353516 C 19.963846 24.026725 18.946451 25.386462 18.740234 26.761719 C 18.665834 27.25729 18.69889 28.328619 18.814453 29.142578 C 19.53353 34.212663 23.159473 38.223204 28.140625 39.457031 C 28.767067 39.61237 29.791526 39.722337 30.417969 39.701172 L 31.558594 39.662109 C 32.202383 39.335558 32.237615 38.581671 31.558594 38.210938 L 29.945312 37.966797 C 27.916608 37.658009 27.078055 37.390439 25.683594 36.605469 C 22.651147 34.89837 20.478516 31.197519 20.478516 27.740234 C 20.478516 26.216593 21.055446 25.326974 22.400391 24.769531 C 23.372198 24.366823 23.385615 24.366823 24.357422 24.769531 C 25.587306 25.279276 26.179675 26.132336 26.332031 27.609375 C 26.611815 30.320166 28.493017 32.103516 31.072266 32.103516 C 33.142233 32.103516 34.884093 30.760634 35.501953 28.689453 C 36.106677 26.662492 35.295028 23.257474 33.589844 20.667969 C 31.329995 17.236044 27.589794 15.233568 23.587891 15.164062 z M 23.453125 19.09375 C 22.164254 19.108868 20.840152 19.349462 19.753906 19.771484 C 18.079028 20.591717 16.481768 22.229841 15.65625 23.972656 C 15.028087 25.298703 14.991798 25.504395 14.992188 27.755859 C 14.992652 30.525648 15.326805 31.996955 16.519531 34.484375 C 17.547276 36.627707 18.971957 38.498755 20.554688 39.779297 C 21.926565 40.889382 22.071475 40.942991 22.642578 40.525391 C 23.227245 40.098153 22.902014 39.362719 21.720703 38.457031 C 20.43985 37.47511 19.056801 35.698602 18.123047 33.835938 C 16.589292 30.77641 16.201384 26.994878 17.201172 24.830078 C 17.92678 23.258966 19.034603 22.087281 20.445312 21.394531 C 22.140225 20.562128 24.615635 20.562128 26.310547 21.394531 C 28.333537 22.38798 29.626001 24.198276 30.083984 26.679688 C 30.357354 28.160922 30.770957 28.653111 31.402344 28.246094 C 31.694909 28.057495 31.759646 27.743272 31.732422 26.615234 C 31.66628 23.873112 29.745052 21.119006 26.9375 19.740234 C 25.995041 19.281664 24.742001 19.07746 23.453125 19.09375 z M 23.443359 26.587891 C 23.29386 26.584829 23.124371 26.633525 22.935547 26.736328 C 22.539093 26.948738 22.508659 27.099322 22.605469 28.244141 C 22.911697 31.867234 25.637141 34.983966 29.175781 35.755859 C 30.745293 36.098663 31.165852 36.08971 31.542969 35.712891 C 32.296179 34.959593 31.793725 34.360292 30.230469 34.146484 C 27.035301 33.709533 24.661115 31.272965 24.28125 28.041016 C 24.167951 27.077009 23.891851 26.596999 23.443359 26.587891 z "
       transform="matrix(0.26458333,0,0,0.26458333,0,284.3)"
       id="path1374" />
  </g>
</svg>
