<?xml version="1.0" encoding="UTF-8" standalone="no"?>
<svg
   xmlns:dc="http://purl.org/dc/elements/1.1/"
   xmlns:cc="http://creativecommons.org/ns#"
   xmlns:rdf="http://www.w3.org/1999/02/22-rdf-syntax-ns#"
   xmlns:svg="http://www.w3.org/2000/svg"
   xmlns="http://www.w3.org/2000/svg"
   xmlns:sodipodi="http://sodipodi.sourceforge.net/DTD/sodipodi-0.dtd"
   xmlns:inkscape="http://www.inkscape.org/namespaces/inkscape"
   width="48"
   height="48"
   viewBox="0 0 12.7 12.7"
   version="1.1"
   id="svg6"
   sodipodi:docname="waterfox.svg"
   inkscape:version="0.92.3 (2405546, 2018-03-11)">
  <metadata
     id="metadata12">
    <rdf:RDF>
      <cc:Work
         rdf:about="">
        <dc:format>image/svg+xml</dc:format>
        <dc:type
           rdf:resource="http://purl.org/dc/dcmitype/StillImage" />
        <dc:title></dc:title>
      </cc:Work>
    </rdf:RDF>
  </metadata>
  <defs
     id="defs10" />
  <sodipodi:namedview
     pagecolor="#ffffff"
     bordercolor="#666666"
     borderopacity="1"
     objecttolerance="10"
     gridtolerance="10"
     guidetolerance="10"
     inkscape:pageopacity="0"
     inkscape:pageshadow="2"
     inkscape:window-width="855"
     inkscape:window-height="480"
     id="namedview8"
     showgrid="false"
     inkscape:zoom="4.9166667"
     inkscape:cx="24"
     inkscape:cy="24"
     inkscape:window-x="58"
     inkscape:window-y="26"
     inkscape:window-maximized="0"
     inkscape:current-layer="svg6" />
  <path
     fill="#1a1a1a"
     d="M6.344.337A6.025 6.025 0 0 0 .32 6.362a6.025 6.025 0 0 0 6.025 6.025 6.025 6.025 0 0 0 6.025-6.025A6.025 6.025 0 0 0 6.344.337zm-.017.897a5.18 5.18 0 0 1 5.18 5.18 5.18 5.18 0 0 1-5.18 5.18 5.18 5.18 0 0 1-5.18-5.18 5.18 5.18 0 0 1 5.18-5.18z"
     id="path2" />
  <path
     fill="#a40"
     d="M7.976 2.054l.013.064c.236.517.684.981 1.045 1.448.05-.128.095-.538.189-.643.003-.002.004-.004.007-.004.005 0 .019.03.03.065.074.16.166.322.272.47.002 0 .002.001.002.002.718 1.061 1.443 1.838 1.443 3.35 0 2.385-2.072 4.319-4.627 4.319-2.556 0-4.628-1.934-4.628-4.319 0-.853.267-1.647.724-2.317 0-.007.003-.011.003-.022 0-.07.024-.271.044-.374.054-.26.27-1.02.587-1.174.136.274.178.76.352 1.034a.452.452 0 0 1 .18-.04l.018-.003a.572.572 0 0 1 .044-.004h.004l.046-.003.006-.001h.044l.01-.001a1.924 1.924 0 0 1 .108 0c.059 0 .12.004.182.01.056.004.111.012.165.02.006 0 .012 0 .018.002l.025.003c.008 0 .015.003.023.004.007 0 .014.002.02.003l.029.005.016.003.041.007c.201.049.18.05.247-.011.207-.181.854-.492 1.201-.315-.218.187-.829.541-.656.913a.493.493 0 0 0 .412.258c.495.041.7.084.73.152.025.055-.015.206-.075.288a.796.796 0 0 1-.186.168c-.023.013-.14.065-.261.116-.184.077-.63.196-.63.4.044.164.32.343.193.46-.133-.085-.56-.216-.77-.207-.348.434.016 1.027.733 1.187.172.045.327.033.606-.046.28-.079.411-.086.567-.086.152 0 .221.012.349.06.151.057.332.195.384.295.04.079.02.096-.05.137-.033.02-.052.02-.205.003-.103-.011-.29.024-.669.212-.254.126-.462.17-.68.17-.236.002-.483.02-.814-.028.125.661 1.046.88 1.732.877 1.083-.005 1.855-.805 2.088-1.822.01-.063.016-.17.016-.273 0-.343-.065-.62-.22-.93-.111-.226-.411-.535-.687-.815a2.218 2.218 0 0 1-.472-.986 2.436 2.436 0 0 1 .005-.636 2.8 2.8 0 0 1 .13-.465c.127-.321.249-.62.463-.886l.028-.034z"
     opacity=".75"
     id="path4"
     style="fill:#007caa;fill-opacity:1" />
</svg>
