<?xml version="1.0" encoding="UTF-8" standalone="no"?>
<!-- Created with Inkscape (http://www.inkscape.org/) -->

<svg
   xmlns:dc="http://purl.org/dc/elements/1.1/"
   xmlns:cc="http://creativecommons.org/ns#"
   xmlns:rdf="http://www.w3.org/1999/02/22-rdf-syntax-ns#"
   xmlns:svg="http://www.w3.org/2000/svg"
   xmlns="http://www.w3.org/2000/svg"
   xmlns:sodipodi="http://sodipodi.sourceforge.net/DTD/sodipodi-0.dtd"
   xmlns:inkscape="http://www.inkscape.org/namespaces/inkscape"
   width="48"
   height="48"
   viewBox="0 0 12.7 12.7"
   version="1.1"
   id="svg829"
   inkscape:version="0.92.3 (2405546, 2018-03-11)"
   sodipodi:docname="firefox.svg">
  <defs
     id="defs823" />
  <sodipodi:namedview
     id="base"
     pagecolor="#ffffff"
     bordercolor="#666666"
     borderopacity="1.0"
     inkscape:pageopacity="0.0"
     inkscape:pageshadow="2"
     inkscape:zoom="7.8812941"
     inkscape:cx="7.4018687"
     inkscape:cy="24"
     inkscape:document-units="mm"
     inkscape:current-layer="layer1"
     showgrid="false"
     showguides="true"
     inkscape:guide-bbox="true"
     inkscape:window-width="1366"
     inkscape:window-height="714"
     inkscape:window-x="0"
     inkscape:window-y="25"
     inkscape:window-maximized="1"
     scale-x="1.9"
     units="px"
     inkscape:snap-global="false" />
  <metadata
     id="metadata826">
    <rdf:RDF>
      <cc:Work
         rdf:about="">
        <dc:format>image/svg+xml</dc:format>
        <dc:type
           rdf:resource="http://purl.org/dc/dcmitype/StillImage" />
        <dc:title />
      </cc:Work>
    </rdf:RDF>
  </metadata>
  <g
     inkscape:label="Capa 1"
     inkscape:groupmode="layer"
     id="layer1"
     transform="translate(0,-284.3)">
    <g
       id="g819">
      <path
         id="path823"
         d="m 6.3443047,284.63744 a 6.0246971,6.0246971 0 0 0 -6.02494435,6.02495 6.0246971,6.0246971 0 0 0 6.02494435,6.02445 6.0246971,6.0246971 0 0 0 6.0244493,-6.02445 6.0246971,6.0246971 0 0 0 -6.0244493,-6.02495 z m -0.017326,0.89699 a 5.1795751,5.1795751 0 0 1 5.1794423,5.17945 5.1795751,5.1795751 0 0 1 -5.1794423,5.17944 5.1795751,5.1795751 0 0 1 -5.1799372,-5.17944 5.1795751,5.1795751 0 0 1 5.1799372,-5.17945 z"
         style="fill:#1a1a1a;fill-opacity:1;stroke-width:0.1331051"
         inkscape:connector-curvature="0" />
      <path
         inkscape:connector-curvature="0"
         id="path2"
         d="m 7.9759903,286.35414 0.013087,0.0634 c 0.2358591,0.51737 0.6837414,0.98177 1.0449134,1.44872 0.050023,-0.12799 0.095489,-0.53795 0.1887944,-0.64324 0.00277,-0.002 0.00453,-0.004 0.00683,-0.004 0.00498,0 0.018964,0.0291 0.030529,0.0647 0.074174,0.16082 0.1658349,0.32277 0.2716655,0.47049 0.00237,6.5e-4 0.00184,8.5e-4 0.00184,0.002 0.7180804,1.06107 1.4436884,1.83816 1.4436884,3.34985 0,2.38543 -2.0719755,4.31877 -4.6276512,4.31877 -2.5556712,-7e-5 -4.6276455,-1.93343 -4.6276455,-4.31885 0,-0.85295 0.2668423,-1.64728 0.7240245,-2.31697 4.148e-4,-0.007 0.0031,-0.0114 0.00312,-0.0217 1.158e-4,-0.0708 0.023648,-0.27145 0.044239,-0.37453 0.053841,-0.25925 0.2705203,-1.01944 0.5869461,-1.17422 0.1352838,0.27481 0.1779575,0.75966 0.3520425,1.03406 0.051875,-0.0223 0.1125364,-0.0396 0.1788252,-0.0395 0.00603,-8.4e-4 0.012438,-0.002 0.018691,-0.003 h 5.996e-4 c 0.013931,-0.002 0.028344,-0.003 0.043616,-0.004 0.00114,-2.1e-4 0.00141,-4.7e-4 0.00372,-5.7e-4 0.014877,-8.5e-4 0.030143,-0.002 0.04611,-0.003 0.00184,-2.1e-4 0.00329,-4.8e-4 0.00563,-5.9e-4 0.014414,-6.5e-4 0.029199,-7.1e-4 0.044239,-8.5e-4 0.00348,-2.3e-4 0.00713,-5e-4 0.010594,-5.9e-4 0.017909,-4.7e-4 0.035463,-6.3e-4 0.05421,-6e-4 0.017305,0 0.035148,1.4e-4 0.052963,6e-4 0.05937,8.5e-4 0.1212733,0.004 0.1825639,0.0105 0.056035,0.004 0.1112322,0.012 0.1644942,0.0195 0.00603,8.5e-4 0.012058,8.5e-4 0.018069,0.002 0.00839,8.4e-4 0.016597,0.002 0.024924,0.003 0.00791,8.4e-4 0.015811,0.003 0.023676,0.004 0.00694,8.5e-4 0.01385,0.002 0.020559,0.003 0.0095,0.002 0.018785,0.003 0.02804,0.005 0.0051,8.5e-4 0.010487,0.002 0.015576,0.003 0.014252,0.003 0.028326,0.005 0.041746,0.007 0.2011327,0.0495 0.1804068,0.0509 0.2467416,-0.0105 0.2070785,-0.18148 0.8535766,-0.49235 1.201307,-0.31522 -0.218624,0.18756 -0.8292442,0.54134 -0.6567311,0.91366 0.098472,0.16207 0.2256946,0.24211 0.412482,0.25763 0.4949066,0.041 0.6998528,0.0839 0.7302555,0.15238 0.024224,0.0547 -0.015493,0.20554 -0.075394,0.28729 -0.039264,0.0534 -0.1356563,0.1413 -0.1856795,0.16866 -0.02302,0.0125 -0.1408722,0.0646 -0.2616955,0.11515 -0.1834095,0.0771 -0.6299389,0.19614 -0.6299389,0.40071 0.044238,0.16387 0.3202261,0.34287 0.1931566,0.45942 -0.1328097,-0.0846 -0.5591239,-0.21606 -0.7688867,-0.20703 -0.3487714,0.43403 0.015608,1.02752 0.7321246,1.18759 0.1722805,0.0448 0.3269249,0.033 0.6062612,-0.0461 0.2798226,-0.0792 0.4111793,-0.0861 0.5663844,-0.086 0.1524055,7e-5 0.2217415,0.0123 0.3489271,0.0599 0.1518503,0.0568 0.3328242,0.19534 0.3844436,0.29486 0.040882,0.0788 0.020905,0.0958 -0.049847,0.13725 -0.033365,0.0195 -0.052428,0.0202 -0.2049946,0.003 -0.1035395,-0.0115 -0.2908061,0.0234 -0.6691932,0.21169 -0.2539589,0.12578 -0.4624506,0.16953 -0.6804088,0.17097 -0.2358625,8.5e-4 -0.4829044,0.0185 -0.8131254,-0.0285 0.1242709,0.66096 1.0459884,0.8794 1.7315526,0.87699 1.0829983,-0.005 1.8548967,-0.80492 2.0879566,-1.82205 0.0095,-0.0635 0.015576,-0.16986 0.015576,-0.27335 -2e-7,-0.34337 -0.064955,-0.61956 -0.2187025,-0.92994 -0.1118227,-0.22559 -0.4118575,-0.53484 -0.6878858,-0.81536 -0.2381289,-0.28677 -0.4007361,-0.62612 -0.4716752,-0.98576 -0.026836,-0.13576 -0.023848,-0.48039 0.00498,-0.63567 0.028759,-0.15485 0.080203,-0.34127 0.1289786,-0.46469 0.1279493,-0.32167 0.2494626,-0.62124 0.4635751,-0.88631 0.0097,-0.012 0.019173,-0.0227 0.028661,-0.0339 z"
         style="opacity:0.75;fill:#aa4400;stroke-width:0.02847929" />
    </g>
  </g>
</svg>
