<svg xmlns="http://www.w3.org/2000/svg" width="48" height="48" viewBox="0 0 12.7 12.7">
  <g fill="#1a1a1a">
    <path d="M6.34431561.07286377a6.28928043 6.28928043 0 0 0-6.2895386 6.2895385 6.28928043 6.28928043 0 0 0 6.2895386 6.28902166 6.28928043 6.28928043 0 0 0 6.28902167-6.28902167A6.28928043 6.28928043 0 0 0 6.3443156.07286376zm-.01808691.93637693a5.40704372 5.40704372 0 0 1 5.40690507 5.40690505 5.40704372 5.40704372 0 0 1-5.40690507 5.40690508A5.40704372 5.40704372 0 0 1 .91880694 6.41614575 5.40704372 5.40704372 0 0 1 6.3262287 1.0092407zm.02325449.96428223c-1.08142033 0-1.9580201.87736668-1.9580201 1.95853672 0 .55404993.23269628 1.0522196.60254726 1.4086996C3.3617651 5.6756892 2.0882445 6.53619911 2.0882446 7.13909905c0 .35480995 1.4475941.15167081 1.4975829.46302083l.35966796 2.4318928c0 .23269999.12285927.41496192.28111978.41496192 1.44256944.37269975 2.85900915.36722976 4.23953459 0 .15826052 0 .2878373-.18226193.28783782-.41496191l.3596677-2.4318928c.0664435-.26228993 1.49809992-.10810082 1.49809992-.46302084 0-.60279993-1.2738502-1.46279312-2.90576578-1.79782309.36997401-.3565001.60203052-.85508622.60203052-1.40921632 0-1.08117004-.87711649-1.95853672-1.95853682-1.95853672zM54.450447 57.2109c-.699603 0-1.262802.5632-1.262802 1.26281 0 .6996.563199 1.26286 1.262802 1.26286h2.915902v4.54958h2.621599v-4.54958h2.678879c.699604 0 1.262802-.56326 1.262802-1.26286 0-.69961-.563198-1.26281-1.262802-1.26281zm2.915902 7.07525h-3.762466c-.505822 0-.987151.40041-1.079176.89779l-1.570602 8.48895c-.09203.49738.241128.89779.746949.89779h4.58579v.032h4.539768v-.032h4.597049c.505821 0 .838974-.40041.746949-.89779l-1.570668-8.48895c-.09202-.49738-.573289-.89779-1.07911-.89779h-3.489167l-.0068 3.70486 2.545423.002-3.981976 3.2663-3.815203-3.25385 2.593287.009z"/>
  </g>
</svg>
