<svg xmlns="http://www.w3.org/2000/svg" width="48" height="48" viewBox="0 0 12.7 12.7">
  <path fill="#1a1a1a" d="M6.3443159.07286A6.2892804 6.2892804 0 0 0 .05477737 6.3624a6.2892804 6.2892804 0 0 0 6.28953853 6.28902A6.2892804 6.2892804 0 0 0 12.633337 6.3624 6.2892804 6.2892804 0 0 0 6.3443159.07286zm-.018087.93638a5.4070437 5.4070437 0 0 1 5.4069051 5.40691 5.4070437 5.4070437 0 0 1-5.4069051 5.4069 5.4070437 5.4070437 0 0 1-5.40742183-5.4069A5.4070437 5.4070437 0 0 1 6.3262289 1.00924z" opacity=".99999999"/>
  <path d="M49.690566 59.1349l-2.388959-3.02984c-.05992-.0755-.148496-.11984-.244888-.11984h-6.273298c-.09639 0-.184969.0443-.244888.11984l-2.38896 3.02984c-.04429.0547-.06773.12244-.06773.19278v8.51637c0 .17194.14068.31262.312623.31262h11.048612c.171943 0 .312623-.14068.312623-.31262v-8.51637c.0026-.0703-.02084-.13807-.06513-.19278zm-.849291-.0677h-4.608582v-2.45669h2.672925zm-7.906753-2.45669h2.672925v2.45669h-4.608582zm-2.227438 10.92095v-7.83901H49.13045v7.83901z"/>
  <path fill="#1a1a1a" fill-rule="evenodd" d="M2.4238406 3.05234c-.2115262 0-.3818159.17029-.3818159.38183v5.91815c0 .21153.1702897.38182.3818159.38182h7.8272224c.211527 0 .381814-.17029.381814-.38182V3.43417c0-.21154-.170287-.38183-.381814-.38183zm.3911369.46834h7.0225769c.1897816 0 .3426646.14773.3426646.33108v5.12992c0 .18334-.152883.33109-.3426646.33109H2.8149775c-.1897812 0-.3426647-.14775-.3426647-.33109V3.85176c0-.18335.1528835-.33108.3426647-.33108z" color="#000" opacity=".99999999" overflow="visible" style="marker:none"/>
  <path fill="#1a1a1a" d="M4.7437235 4.3649c-.1596489 0-.2885213.1209-.3043742.27626.024056-.0627.083772-.10784.1552935-.10784h3.5328303c.071519 0 .1312347.0451.1552929.10784-.015853-.15531-.1447251-.27626-.304374-.27626zm3.5390425.27626c.00106.009.00329.0209.00329.0316v1.226c0 .0116-.00204.0227-.00329.0338.00744-.0192.012101-.0394.012101-.061V4.70087c0-.021-.00497-.0407-.012101-.0595zm0 1.29138c-.024366.0622-.084228.10627-.1552929.10627H4.5946428c-.07107 0-.1309248-.0442-.1552935-.10627.017027.1541.1456135.27366.3043742.27366H7.978392c.1587606 0 .2873438-.11953.304374-.27366zm-3.8434167 0c-.00125-.0116-.00329-.0225-.00329-.0338V4.67271c0-.0108.00224-.0209.00329-.0314-.00711.0189-.012101.0387-.012101.0595v1.17072c0 .0216.00466.0425.012101.061zM5.19914 4.94195a.33477873.33477873 0 0 0-.3445863.33477.33477876.33477876 0 0 0 .6695572 0 .33477873.33477873 0 0 0-.3249709-.33477zm1.171726 0a.33477873.33477873 0 0 0-.3445871.33477.33477884.33477884 0 0 0 .6695576 0 .33477873.33477873 0 0 0-.3249705-.33477zm1.1717253.00034a.33477879.33477879 0 0 0-.3445866.33443.33477879.33477879 0 0 0 .6695573 0 .33477879.33477879 0 0 0-.3249707-.33446z" opacity=".99999999"/>
  <path fill="#1a1a1a" fill-rule="evenodd" d="M6.0080978 6.59306c-.010461-.00055-.022645.003-.032724.009-.2787107.14579-.5147508.38614-.5949249.62154-.1094832.32146.054153.66167.3775967.85756.074021.12895.1383251.32848.1370747.6301l-.015671 3.76557.8316319.008.015662-3.76555c.00115-.27193.054916-.45933.1205008-.58731.1866931-.0938.331389-.2412.39486-.42754.080134-.2353.031481-.54672-.110371-.80086-.011657-.0223-.036611-.0365-.065981-.0336-.027946.002-.052099.0183-.059679.0417l-.2192359.64153c-.019591.0576-.088319.0939-.1845481.10863-.097057.0148-.2202233.007-.3496642-.0262-.1293145-.0335-.2380761-.0843-.3102086-.14258-.073561-.0564-.1065686-.1215-.086971-.17916l.2203395-.6452c.00616-.018.00187-.0369-.011643-.0516-.011736-.0162-.035719-.0224-.056032-.0227z" opacity=".99999999"/>
</svg>
