<svg xmlns="http://www.w3.org/2000/svg" width="48" height="48" viewBox="0 0 12.7 12.7"><path fill="#1a1a1a" d="M6.344.073a6.29 6.29 0 0 0-6.29 6.29 6.29 6.29 0 0 0 6.29 6.288 6.29 6.29 0 0 0 6.29-6.289 6.29 6.29 0 0 0-6.29-6.29zm-.018.936a5.407 5.407 0 0 1 5.407 5.407 5.407 5.407 0 0 1-5.407 5.407A5.407 5.407 0 0 1 .92 6.416 5.407 5.407 0 0 1 6.326 1.01z"/><path d="M49.69 59.135l-2.388-3.03a.311.311 0 0 0-.245-.12h-6.274a.311.311 0 0 0-.244.12l-2.39 3.03a.305.305 0 0 0-.067.193v8.516c0 .172.14.313.312.313h11.05c.171 0 .312-.141.312-.313v-8.516a.289.289 0 0 0-.065-.193zm-.849-.068h-4.608v-2.456h2.673zm-7.906-2.456h2.672v2.456H39zm-2.228 10.92v-7.839H49.13v7.84z"/><path fill="#1a1a1a" fill-rule="evenodd" d="M2.424 3.052a.381.381 0 0 0-.382.382v5.918c0 .212.17.382.382.382h7.827c.212 0 .382-.17.382-.382V3.434a.381.381 0 0 0-.382-.382zm.391.469h7.023c.19 0 .342.147.342.33v5.13a.336.336 0 0 1-.342.332H2.815a.336.336 0 0 1-.343-.331v-5.13c0-.184.153-.331.343-.331z" color="#000" overflow="visible" style="marker:none"/><path fill="#1a1a1a" d="M4.744 4.365c-.16 0-.289.12-.305.276a.166.166 0 0 1 .156-.108h3.532c.072 0 .132.045.156.108a.306.306 0 0 0-.305-.276zm3.539.276c0 .01.003.021.003.032v1.226l-.003.034a.167.167 0 0 0 .012-.061V4.7a.167.167 0 0 0-.012-.06zm0 1.292a.166.166 0 0 1-.156.106H4.595a.167.167 0 0 1-.156-.106.306.306 0 0 0 .305.273h3.234c.16 0 .288-.12.305-.273zm-3.844 0c0-.012-.003-.023-.003-.034V4.673c0-.011.002-.021.003-.032a.169.169 0 0 0-.012.06v1.17c0 .022.005.043.012.062zm.76-.991a.335.335 0 0 0-.344.335.335.335 0 0 0 .67 0 .335.335 0 0 0-.326-.335zm1.172 0a.335.335 0 0 0-.345.335.335.335 0 0 0 .67 0 .335.335 0 0 0-.325-.335zm1.172 0a.335.335 0 0 0-.345.335.335.335 0 0 0 .67 0 .335.335 0 0 0-.325-.335z"/><path fill="#1a1a1a" fill-rule="evenodd" d="M6.008 6.593a.061.061 0 0 0-.033.01c-.278.145-.514.385-.595.62-.109.322.055.662.378.858.074.13.138.329.137.63l-.016 3.766.832.008.016-3.766c0-.272.055-.459.12-.587a.765.765 0 0 0 .395-.428c.08-.235.032-.546-.11-.8a.066.066 0 0 0-.066-.034c-.028.002-.052.018-.06.042l-.22.641c-.019.058-.087.094-.184.109a.905.905 0 0 1-.35-.026.84.84 0 0 1-.31-.143c-.073-.056-.106-.121-.087-.18l.22-.644a.05.05 0 0 0-.01-.052c-.013-.016-.037-.022-.057-.023z"/></svg>