<svg xmlns="http://www.w3.org/2000/svg" width="48" height="48" viewBox="0 0 12.7 12.7">
  <path fill="#1a1a1a" d="M6.34431561.07286377a6.28928043 6.28928043 0 0 0-6.2895386 6.2895385 6.28928043 6.28928043 0 0 0 6.2895386 6.28902166 6.28928043 6.28928043 0 0 0 6.28902167-6.28902167A6.28928043 6.28928043 0 0 0 6.3443156.07286376zm-.01808691.93637693a5.40704372 5.40704372 0 0 1 5.40690507 5.40690505 5.40704372 5.40704372 0 0 1-5.40690507 5.40690508A5.40704372 5.40704372 0 0 1 .91880694 6.41614575 5.40704372 5.40704372 0 0 1 6.3262287 1.0092407z"/>
  <path fill="purple" d="M6.4611048 7.68072a.33874155.52759 0 1 0 0 1.05518h3.116605a.33874155.52759 0 1 0 0-1.05518zM3.4979181 3.72802a.3387427.52759181 45 0 0-.568957.81649L4.715932 6.33148 2.9289611 8.11897a.52759178.33874268 45 1 0 .746207.74569l2.2034836-2.20349a.52759178.33874268 45 0 0 .05374-.0863.52759178.33874268 45 0 0 .000516-.001.18361118.32966554 0 0 0 .06305-.24701.18361118.32966554 0 0 0-.07493-.26562.33874268.52759178 45 0 0-.04237-.0589l-2.2034836-2.204a.3387427.52759181 45 0 0-.17725-.0703z" opacity=".75"/>
</svg>
