<svg xmlns="http://www.w3.org/2000/svg" width="48" height="48" viewBox="0 0 12.7 12.7"><path d="M6.344.073a6.29 6.29 0 0 0-6.29 6.29 6.29 6.29 0 0 0 6.29 6.288 6.29 6.29 0 0 0 6.29-6.289 6.29 6.29 0 0 0-6.29-6.29zm-.018.936a5.407 5.407 0 0 1 5.407 5.407 5.407 5.407 0 0 1-5.407 5.407A5.407 5.407 0 0 1 .92 6.416 5.407 5.407 0 0 1 6.326 1.01zm.023 1.124c-.5 0-.921.322-1.079.767H3.666a.766.766 0 0 0-.766.767V9.8c0 .424.343.767.766.767h5.368A.766.766 0 0 0 9.8 9.8V3.667a.766.766 0 0 0-.766-.767H7.43a1.147 1.147 0 0 0-1.08-.767zm0 .767a.384.384 0 1 1 0 .768.384.384 0 0 1 0-.768zm-2.683.767h.767v1.15h3.834v-1.15h.767V9.8H3.666V3.667z" fill="#1a1a1a"/></svg>