<svg xmlns="http://www.w3.org/2000/svg" width="48" height="48" viewBox="0 0 12.7 12.7">
  <path fill="#1a1a1a" d="M6.34431561.07286377a6.28928043 6.28928043 0 0 0-6.2895386 6.2895385 6.28928043 6.28928043 0 0 0 6.2895386 6.28902166 6.28928043 6.28928043 0 0 0 6.28902167-6.28902167A6.28928043 6.28928043 0 0 0 6.3443156.07286376zm-.01808691.93637693a5.40704372 5.40704372 0 0 1 5.40690507 5.40690505 5.40704372 5.40704372 0 0 1-5.40690507 5.40690508A5.40704372 5.40704372 0 0 1 .91880694 6.41614575 5.40704372 5.40704372 0 0 1 6.3262287 1.0092407z"/>
  <path fill="red" d="M9.6300667 3.24215c-.037358 0-.073346.0125-.1032216.0348L6.3500058 5.6175 3.1731657 3.27695c-.029878-.0224-.065866-.0342-.103232-.0342-.4767431-.00002-.8633493.38607-.8633493.86279v4.48898c0 .47676.3866062.86335.8633493.86335h.3450079c.095349 0 .1727812-.0773.1727812-.17276v-.0828L6.35 7.25211l-.097154-.069c.059425.0405.1376337.0405.1965168-.00088l-.099365.0701 2.7622768 1.94972v.0833c0 .0954.077435.17277.1727813.17277h.3450081c.476758 0 .86335-.38663.86335-.86335V4.1058c0-.47673-.386606-.86335-.86335-.86335zm-6.042344 2.06012l2.4619819 1.73829-2.4619819 1.73828zm5.5245546 0v3.47715L6.6497439 7.04056z" opacity=".753"/>
</svg>
