<svg xmlns="http://www.w3.org/2000/svg" width="48" height="48" viewBox="0 0 12.7 12.7">
  <path fill="#1a1a1a" d="M6.34431561.07286377a6.28928043 6.28928043 0 0 0-6.2895386 6.2895385 6.28928043 6.28928043 0 0 0 6.2895386 6.28902166 6.28928043 6.28928043 0 0 0 6.28902167-6.28902167A6.28928043 6.28928043 0 0 0 6.3443156.07286376zm-.01808691.93637693a5.40704372 5.40704372 0 0 1 5.40690507 5.40690505 5.40704372 5.40704372 0 0 1-5.40690507 5.40690508A5.40704372 5.40704372 0 0 1 .91880694 6.41614575 5.40704372 5.40704372 0 0 1 6.3262287 1.0092407zm1.20199386.74414062v.00103354c-.23535216-.02300002-.10893636.25463852-.1405599.39790851-.00230002 2.02316009.00503953 4.0460801-.00310064 6.06888024-.03648499.19253993-.26312283.15624254-.39997539.11937259-.8556564-.07540016-1.80870699.51742683-1.93063175 1.41231671-.1275109.6743401.55852774 1.25425146 1.19630956 1.18959152.87778033-.05019992 1.58246999-.93957562 1.46502674-1.81177562.00204999-1.63577004-.00417936-3.27219095.00310065-4.90771068.02976113-.17912.26227405-.19036427.37052011-.07441407.80698498.46338993 1.53212005 1.2371046 1.59628494 2.21278474.03525097.19302994-.02622946.67246155-.01240234.67851152.28253531-1.05459-.00861272-2.26489654-.81235364-3.01583669-.5783183-.61588993-1.08877786-1.41995115-1.1870076-2.24689114-.04715007-.01770002-.09445254-.02877116-.14521074-.02377117zm-1.36890864 3.7465412c-2.04921165.0312002-3.7029542 1.68694918-3.73413899 3.73413915h.65680759c.03134677-1.68301007 1.392587-3.0422876 3.0773314-3.07319756v-.66094159zm0 1.51153572C4.9423785 7.04265818 3.96789535 8.01818169 3.9367105 9.23406167h.59117837c.03091419-.88834012.74234066-1.60103183 1.63142505-1.63194178v-.59066165z"/>
</svg>
