<svg xmlns="http://www.w3.org/2000/svg" width="48" height="48" viewBox="0 0 12.7 12.7">
  <g fill="#1a1a1a" color="#bebebe" font-family="sans-serif" font-weight="400" white-space="normal">
    <path d="M6.34435561.07294653c-3.43312103 0-6.25503571 2.82191468-6.25503571 6.25503571 0 3.43312103 2.82191468 6.25503571 6.25503571 6.25503571 3.43312103 0 6.25503571-2.82191468 6.25503571-6.25503571 0-3.43312103-2.82191468-6.25503571-6.25503571-6.25503571zm0 3.57430612c1.50120857 0 2.68072959 1.17952102 2.68072959 2.68072959S7.84556418 9.00871183 6.34435561 9.00871183 3.66362602 7.82919081 3.66362602 6.32798224s1.17952102-2.68072959 2.68072959-2.68072959z" overflow="visible" style="font-variant-ligatures:normal;font-variant-position:normal;font-variant-caps:normal;font-variant-numeric:normal;font-variant-alternates:normal;font-feature-settings:normal;text-indent:0;text-decoration-line:none;text-decoration-style:solid;text-decoration-color:#000;text-transform:none;text-orientation:mixed;shape-padding:0;isolation:auto;mix-blend-mode:normal"/>
    <path d="M6.34435561 4.54082918c-.9820406 0-1.78715306.80511245-1.78715306 1.78715306 0 .9820406.80511245 1.78715306 1.78715306 1.78715306.9820406 0 1.78715306-.80511245 1.78715306-1.78715306 0-.9820406-.80511245-1.78715306-1.78715306-1.78715306zm0 .89357653c.4986157 0 .89357653.39496083.89357653.89357653 0 .4986157-.39496083.89357653-.89357653.89357653-.4986157 0-.89357653-.39496083-.89357653-.89357653 0-.4986157.39496083-.89357653.89357653-.89357653z" overflow="visible" style="font-variant-ligatures:normal;font-variant-position:normal;font-variant-caps:normal;font-variant-numeric:normal;font-variant-alternates:normal;font-feature-settings:normal;text-indent:0;text-decoration-line:none;text-decoration-style:solid;text-decoration-color:#000;text-transform:none;text-orientation:mixed;shape-padding:0;isolation:auto;mix-blend-mode:normal"/>
  </g>
</svg>
