<?xml version="1.0" encoding="UTF-8" standalone="no"?>
<!-- Created with Inkscape (http://www.inkscape.org/) -->

<svg
   xmlns:dc="http://purl.org/dc/elements/1.1/"
   xmlns:cc="http://creativecommons.org/ns#"
   xmlns:rdf="http://www.w3.org/1999/02/22-rdf-syntax-ns#"
   xmlns:svg="http://www.w3.org/2000/svg"
   xmlns="http://www.w3.org/2000/svg"
   xmlns:sodipodi="http://sodipodi.sourceforge.net/DTD/sodipodi-0.dtd"
   xmlns:inkscape="http://www.inkscape.org/namespaces/inkscape"
   width="48"
   height="48"
   viewBox="0 0 12.7 12.7"
   version="1.1"
   id="svg829"
   inkscape:version="0.92.3 (2405546, 2018-03-11)"
   sodipodi:docname="gnome-mines.svg">
  <defs
     id="defs823" />
  <sodipodi:namedview
     id="base"
     pagecolor="#ffffff"
     bordercolor="#666666"
     borderopacity="1.0"
     inkscape:pageopacity="0.0"
     inkscape:pageshadow="2"
     inkscape:zoom="5.6041667"
     inkscape:cx="24"
     inkscape:cy="24"
     inkscape:document-units="mm"
     inkscape:current-layer="layer1"
     showgrid="false"
     showguides="true"
     inkscape:guide-bbox="true"
     inkscape:window-width="1366"
     inkscape:window-height="719"
     inkscape:window-x="0"
     inkscape:window-y="25"
     inkscape:window-maximized="1"
     scale-x="1.9"
     units="px"
     inkscape:snap-global="true" />
  <metadata
     id="metadata826">
    <rdf:RDF>
      <cc:Work
         rdf:about="">
        <dc:format>image/svg+xml</dc:format>
        <dc:type
           rdf:resource="http://purl.org/dc/dcmitype/StillImage" />
        <dc:title></dc:title>
      </cc:Work>
    </rdf:RDF>
  </metadata>
  <g
     inkscape:label="Capa 1"
     inkscape:groupmode="layer"
     id="layer1"
     transform="translate(0,-284.3)">
    <path
       style="fill:#1a1a1a;fill-opacity:1;stroke-width:0.52331072"
       d="M 23.976562 0.29101562 A 23.68646 23.68646 0 0 0 0.2890625 23.978516 A 23.68646 23.68646 0 0 0 23.976562 47.662109 A 23.68646 23.68646 0 0 0 47.664062 23.978516 A 23.68646 23.68646 0 0 0 23.976562 0.29101562 z M 23.910156 3.8144531 A 20.363814 20.363814 0 0 1 44.273438 24.181641 A 20.363814 20.363814 0 0 1 23.910156 44.544922 A 20.363814 20.363814 0 0 1 3.5429688 24.181641 A 20.363814 20.363814 0 0 1 23.910156 3.8144531 z M 22.285156 8 L 21.943359 12.761719 A 11.428578 11.428578 0 0 0 17.513672 14.607422 L 13.900391 11.472656 L 11.472656 13.900391 L 14.597656 17.503906 A 11.428578 11.428578 0 0 0 12.767578 21.943359 L 8 22.285156 L 8 25.712891 L 12.761719 26.054688 A 11.428578 11.428578 0 0 0 14.607422 30.486328 L 11.472656 34.099609 L 13.900391 36.525391 L 17.503906 33.400391 A 11.428578 11.428578 0 0 0 21.943359 35.230469 L 22.285156 39.998047 L 25.714844 39.998047 L 26.056641 35.238281 A 11.428578 11.428578 0 0 0 30.486328 33.392578 L 34.099609 36.525391 L 36.527344 34.099609 L 33.402344 30.494141 A 11.428578 11.428578 0 0 0 35.232422 26.056641 L 40 25.714844 L 40 22.287109 L 35.238281 21.945312 A 11.428578 11.428578 0 0 0 33.392578 17.513672 L 36.527344 13.900391 L 34.099609 11.472656 L 30.496094 14.597656 A 11.428578 11.428578 0 0 0 26.056641 12.767578 L 25.714844 8 L 22.285156 8 z M 21.830078 16.599609 A 4.0000021 4.0000021 0 0 1 25.830078 20.599609 A 4.0000021 4.0000021 0 0 1 21.830078 24.599609 A 4.0000021 4.0000021 0 0 1 17.830078 20.599609 A 4.0000021 4.0000021 0 0 1 21.830078 16.599609 z "
       transform="matrix(0.26458333,0,0,0.26458333,0,284.3)"
       id="path822" />
  </g>
</svg>
