<svg xmlns="http://www.w3.org/2000/svg" width="48" height="48" viewBox="0 0 12.7 12.7"><g fill="#1a1a1a"><path d="M10.535 4.685C9.885 2.457 7.867.833 5.476.833 2.561.833.199 3.248.199 6.226c0 2.978 2.362 5.392 5.277 5.392 2.39 0 4.41-1.625 5.059-3.852H8.933a3.857 3.857 0 0 1-.792 1.183 3.705 3.705 0 0 1-2.665 1.128c-1.007 0-1.954-.4-2.666-1.128a3.869 3.869 0 0 1-1.103-2.723c0-1.03.391-1.996 1.103-2.724a3.705 3.705 0 0 1 2.666-1.128c1.007 0 1.953.4 2.665 1.128.34.346.606.747.792 1.183z"/><path d="M10.754 4.44l1.718 1.83-1.718 1.829v-1.24H6.261V5.606h4.493z"/></g></svg>