<svg xmlns="http://www.w3.org/2000/svg" width="48" height="48" viewBox="0 0 12.7 12.7">
  <path fill="#1a1a1a" d="M6.34379862.07699788a6.26704246 6.26704246 0 0 0-6.2673175 6.26731773 6.26704246 6.26704246 0 0 0 6.2673175 6.2662839 6.26704246 6.26704246 0 0 0 6.26731763-6.2662839A6.26704246 6.26704246 0 0 0 6.34379862.07699788zm-.01756992.93224282a5.38792572 5.38792572 0 0 1 5.38778496 5.3888184 5.38792572 5.38792572 0 0 1-5.38778496 5.3877847A5.38792572 5.38792572 0 0 1 .93741048 6.3980591 5.38792572 5.38792572 0 0 1 6.3262287 1.0092407zm-.42994792 1.10742594L5.805847 3.37653811a3.02381122 3.02381122 0 0 0-1.17202134.48834225l-.95601392-.82940683-.64233821.6423382.8268229.95343A3.02381122 3.02381122 0 0 0 3.3780883 5.805847l-1.26142166.09043378v.90692154l1.25987147.0904338a3.02381122 3.02381122 0 0 0 .48834225 1.17253806l-.82940683.95601392.6423382.64182148.95343-.8268229A3.02381122 3.02381122 0 0 0 5.805847 9.3213948l.09043378 1.26142166h.90743828l.09043378-1.25935474a3.02381122 3.02381122 0 0 0 1.17202134-.48834225l.95601392.8288901.64233821-.64182148-.8268229-.95394673a3.02381122 3.02381122 0 0 0 .48420813-1.17408853l1.26142166-.09043378v-.90692154l-1.25987147-.0904338a3.02381122 3.02381122 0 0 0-.48834225-1.17253806l.82940683-.95601392-.6423382-.64233821-.95343.8268229a3.02381122 3.02381122 0 0 0-1.17460527-.48420813l-.09043378-1.26142166h-.90743828zm-.12040605 2.27531319a1.05833388 1.05833388 0 0 1 1.05833332 1.05833332 1.05833388 1.05833388 0 0 1-1.05833332 1.05833332 1.05833388 1.05833388 0 0 1-1.05833332-1.05833332 1.05833388 1.05833388 0 0 1 1.05833332-1.05833332z"/>
</svg>
