<svg xmlns="http://www.w3.org/2000/svg" width="48" height="48" viewBox="0 0 12.7 12.7">
  <g fill="#1a1a1a">
    <path d="M6.34431561.07286377a6.28928043 6.28928043 0 0 0-6.2895386 6.2895385 6.28928043 6.28928043 0 0 0 6.2895386 6.28902166 6.28928043 6.28928043 0 0 0 6.28902167-6.28902167A6.28928043 6.28928043 0 0 0 6.3443156.07286376zm-.01808691.93637693a5.40704372 5.40704372 0 0 1 5.40690507 5.40690505 5.40704372 5.40704372 0 0 1-5.40690507 5.40690508A5.40704372 5.40704372 0 0 1 .91880694 6.41614575 5.40704372 5.40704372 0 0 1 6.3262287 1.0092407zM3.72948804 2.35282793c-.1528228 0-.27595221.13085537-.27595221.29300537v6.99492179c0 .16213005.12312914.29248867.2759522.29248867 0 0 1.31021375.41392818 2.62051189.41392818 1.31029788 0 2.62051188-.41392818 2.62051188-.41392818.15282254 0 .27595221-.13034857.27595221-.29248867V2.6458333c0-.16214-.12312967-.29300537-.2759522-.29300537H3.72948803zm.6087483.59944658H8.3617635c.15809145 0 .28577064.12769082.28577064.28577063v5.0219157c0 .15808007-.12767919.2852539-.28577064.2852539H4.33823634c-.15809145 0-.28577064-.12717383-.28577064-.2852539v-5.0219157c0-.1580798.12767919-.28577063.28577064-.28577063zm.11420501 5.99291587a.39951024.39951024 0 0 1 .39945892.39894192.39951024.39951024 0 0 1-.39945892.39945892.39951024.39951024 0 0 1-.39997565-.39945892.39951024.39951024 0 0 1 .39997565-.39894192zm1.19837648 0a.39951024.39951024 0 0 1 .39945892.39894192.39951024.39951024 0 0 1-.39945892.39945892.39951024.39951024 0 0 1-.39894218-.39945892.39951024.39951024 0 0 1 .39894218-.39894192zm1.39836418 0a.39951024.39951024 0 0 1 .39997564.39894192.39951024.39951024 0 0 1-.39997564.39945892.39951024.39951024 0 0 1-.39945892-.39945892.39951024.39951024 0 0 1 .39945892-.39894192zm1.19837648 0a.39951024.39951024 0 0 1 .39997565.39894192.39951024.39951024 0 0 1-.39997565.39945892.39951024.39951024 0 0 1-.39945892-.39945892.39951024.39951024 0 0 1 .39945892-.39894192zM54.450447 57.2109c-.699603 0-1.262802.5632-1.262802 1.26281 0 .6996.563199 1.26286 1.262802 1.26286h2.915902v4.54958h2.621599v-4.54958h2.678879c.699604 0 1.262802-.56326 1.262802-1.26286 0-.69961-.563198-1.26281-1.262802-1.26281zm2.915902 7.07525h-3.762466c-.505822 0-.987151.40041-1.079176.89779l-1.570602 8.48895c-.09203.49738.241128.89779.746949.89779h4.58579v.032h4.539768v-.032h4.597049c.505821 0 .838974-.40041.746949-.89779l-1.570668-8.48895c-.09202-.49738-.573289-.89779-1.07911-.89779h-3.489167l-.0068 3.70486 2.545423.002-3.981976 3.2663-3.815203-3.25385 2.593287.009z"/>
  </g>
</svg>
