<svg xmlns="http://www.w3.org/2000/svg" width="48" height="48" viewBox="0 0 12.7 12.7">
  <path fill="#1a1a1a" d="M6.34431561.07286377a6.28928043 6.28928043 0 0 0-6.2895386 6.2895385 6.28928043 6.28928043 0 0 0 6.2895386 6.28902166 6.28928043 6.28928043 0 0 0 6.28902167-6.28902167A6.28928043 6.28928043 0 0 0 6.3443156.07286376zm-.01808691.93637693a5.40704372 5.40704372 0 0 1 5.40690507 5.40690505 5.40704372 5.40704372 0 0 1-5.40690507 5.40690508A5.40704372 5.40704372 0 0 1 .91880694 6.41614575 5.40704372 5.40704372 0 0 1 6.3262287 1.0092407zm.02325449 1.6365926c-.11642037 0-.23244307.002903-.3467489.015503l-.21497395 1.10845942a2.65231242 2.65231242 0 0 0-.5126302.16536458l-.81028645-.7766968c-.20585588.12179988-.38494757.272238-.5627563.42994791l.47955728 1.00872395a2.67612597 2.67612597 0 0 0-.31367597.42994791l-1.10845943-.1483114a3.65671942 3.65671942 0 0 0-.21445722.67747806l.9751343.52916666a2.55388266 2.55388266 0 0 0-.01601973.26458333c0 .09130003.0070157.17577329.01601973.26458333l-.9751343.52916666c.05133393.23547996.12026106.46156483.21445722.67799478l1.10845943-.14882812c.08996098.15354988.19619462.298128.31367597.42994791L3.9020874 9.11210516c.17780873.15771997.35690042.30767125.5627563.42943118l.81028645-.77721353c.1619324.07260007.33535038.12698465.5126302.16536458l.21497396 1.1079427a3.76679164 3.76679164 0 0 0 .6940145 0l.2154907-1.1079427c.17675066-.0389001.3507097-.09334447.51211347-.16536458l.81080318.77773026c.20532671-.12166997.38496027-.27220783.56223957-.42994791l-.47955728-1.00924068c.11748214-.13174.22423014-.27649778.3141927-.42994791l1.1079427.14882812a3.65671942 3.65671942 0 0 0 .21497395-.67799478l-.97565103-.52916666c.00897996-.08849995.01653646-.17309332.01653646-.26458333 0-.09130003-.00755041-.17562327-.01653646-.26458333l.97565103-.52916666a3.65566109 3.65566109 0 0 0-.21497395-.67799478l-1.1079427.14882812a2.67612597 2.67612597 0 0 0-.3141927-.43046464l.47955728-1.00820722c-.17727877-.15761996-.35691286-.30818798-.56223957-.4299479l-.81131991.77721352a2.65389965 2.65389965 0 0 0-.51211347-.16536458l-.2154907-1.1079427a3.76679164 3.76679164 0 0 0-.34674888-.01550299V2.6458333zm0 2.11666664a1.58775835 1.58775835 0 1 1 0 3.1755167 1.58775835 1.58775835 0 0 1 0-3.1755167z"/>
</svg>
