<svg xmlns="http://www.w3.org/2000/svg" width="48" height="48" viewBox="0 0 12.7 12.7"><path fill="#1a1a1a" d="M6.19.035A6.267 6.267 0 0 0 .058 6.316a6.27 6.27 0 0 0 6.285 6.286c2.036 0 3.835-.96 4.982-2.452L8.099 7.808l.015-.018a2.285 2.285 0 0 1-1.77.826c-1.317 0-2.3-1.06-2.3-2.3 0-1.244.903-2.263 2.234-2.296l-.088-.003V.035zm.113 4.616A1.654 1.667 0 0 0 4.65 6.318a1.654 1.667 0 0 0 1.654 1.667 1.654 1.667 0 0 0 1.654-1.667 1.654 1.667 0 0 0-1.654-1.667zm.012.661A1.027 1.035 0 0 1 7.34 6.347 1.027 1.035 0 0 1 6.315 7.38a1.027 1.035 0 0 1-1.027-1.034 1.027 1.035 0 0 1 1.027-1.035z"/><path fill="#d4ff2a" d="M6.19.03v3.987c1.358-.033 2.677 1.248 2.427 2.64-.078.454-.227.835-.517 1.151l3.225 2.342c1.377-1.713 1.686-4.216.826-6.249C11.411 2.113 9.812.654 7.896.257 7.336.14 6.766.015 6.19.031z" opacity=".75"/></svg>