<svg xmlns="http://www.w3.org/2000/svg" width="48" height="48" viewBox="0 0 12.7 12.7"><path fill="#1a1a1a" d="M6.344.073a6.29 6.29 0 0 0-6.29 6.29 6.29 6.29 0 0 0 6.29 6.288 6.29 6.29 0 0 0 6.29-6.289 6.29 6.29 0 0 0-6.29-6.29zm-.03.937v2.029H3.3V1.97c0-.009-.004-.017-.006-.025a5.407 5.407 0 0 1 3.02-.935zm.238.01a5.407 5.407 0 0 1 2.923 1.007l-.003.015v.997h-2.92V1.02zm-3.49 1.091v.928H2.11a5.407 5.407 0 0 1 .952-.928zm6.647.094a5.407 5.407 0 0 1 .838.834H9.71v-.834zm-7.78 1.07h1.133v2.968H.928A5.407 5.407 0 0 1 1.93 3.276zm1.37 0h3.015v2.968H3.3V3.276zm3.253 0h2.92v2.968h-2.92V3.276zm3.157 0h1.01a5.407 5.407 0 0 1 1.008 2.968H9.709V3.276zm-4.799.436l-.855 1.304v.268h.929v.486h.277v-.486h.293v-.231h-.293V3.71h-.35zm.074.243v1.098H4.28l.703-1.098zM.92 6.48h2.141V9.4h-1.24A5.407 5.407 0 0 1 .92 6.48zm2.379 0h3.014V9.4H3.3V6.48zm3.252 0h2.92V9.4h-2.92V6.48zm3.157 0h2.021a5.407 5.407 0 0 1-.9 2.92H9.71V6.48zm-1.8.398c-.082 0-.17.007-.262.021-.092.015-.19.037-.296.066v.249c.105-.035.2-.06.288-.077.087-.017.169-.025.245-.025a.52.52 0 0 1 .321.085.285.285 0 0 1 .113.243.28.28 0 0 1-.109.237.519.519 0 0 1-.314.081h-.25v.229h.24c.15 0 .269.034.353.103a.343.343 0 0 1 .128.284.352.352 0 0 1-.137.3c-.091.07-.224.104-.398.104-.1 0-.196-.012-.288-.035a.965.965 0 0 1-.254-.102v.27c.097.033.192.059.283.075.092.018.18.026.267.026.257 0 .455-.055.595-.167a.568.568 0 0 0 .21-.47.503.503 0 0 0-.113-.335.534.534 0 0 0-.312-.177.513.513 0 0 0 .279-.163.44.44 0 0 0 .097-.289.466.466 0 0 0-.184-.389c-.123-.096-.29-.144-.502-.144zM1.991 9.638h1.071v1.08a5.407 5.407 0 0 1-1.07-1.08zm1.309 0h3.014v2.185a5.407 5.407 0 0 1-3.014-.928V9.638zm3.252 0h2.92v1.168a5.407 5.407 0 0 1-2.92 1.01V9.637zm3.157 0h.951a5.407 5.407 0 0 1-.951.994v-.994z"/></svg>