<svg xmlns="http://www.w3.org/2000/svg" width="48" height="48" viewBox="0 0 12.7 12.7">
  <path fill="#1a1a1a" d="M6.34431561.07286377a6.28928043 6.28928043 0 0 0-6.2895386 6.2895385 6.28928043 6.28928043 0 0 0 6.2895386 6.28902166 6.28928043 6.28928043 0 0 0 6.28902167-6.28902167A6.28928043 6.28928043 0 0 0 6.3443156.07286376zm-.01808691.93637693a5.40704372 5.40704372 0 0 1 5.4058716 5.37641606h-5.393986v5.43687734a5.40704372 5.40704372 0 0 1-.0118856.00051673A5.40704372 5.40704372 0 0 1 .91880694 6.41614575a5.40704372 5.40704372 0 0 1 .0015503-.030489h5.41775707L6.3262287 1.0092407z"/>
</svg>
