<svg xmlns="http://www.w3.org/2000/svg" width="48" height="48" viewBox="0 0 12.7 12.7">
  <path fill="#1a1a1a" d="M6.34431561.07286377a6.28928043 6.28928043 0 0 0-6.2895386 6.2895385 6.28928043 6.28928043 0 0 0 6.2895386 6.28902166 6.28928043 6.28928043 0 0 0 6.28902167-6.28902167A6.28928043 6.28928043 0 0 0 6.3443156.07286376zm-.01808691.93637693a5.40704372 5.40704372 0 0 1 5.40690507 5.40690505 5.40704372 5.40704372 0 0 1-5.40690507 5.40690508A5.40704372 5.40704372 0 0 1 .91880694 6.41614575 5.40704372 5.40704372 0 0 1 6.3262287 1.0092407zm-.84129218.54208576c-.18434526-.01279998-.3669223.08370893-.45578633.25889895-.11848464.23354998-.02529972.5186804.20825619.6371704l.20825592.10541991c.26542127.13457992.42994791.40316242.42994791.70073242v.6361369H4.0162924c-.14307979 0-.27893671.06392307-.36896992.175183-.09003295.1112102-.12489524.25740175-.09508464.39739173l.48679206 2.28719907c.04662805.21891995.23971937.3751707.46353756.3751707H5.8756102v3.55068764c0 .26188008.21199263.47438971.47387298.47438971.26188061 0 .4743897-.21250963.4743897-.4743897V7.12462952h1.3735595c.22381791 0 .41690871-.15625074.46353755-.3751707L9.147762 4.46225978c.02981086-.13995982-.0050517-.28615163-.09508464-.39739172-.09003294-.11121999-.22589013-.175183-.36896992-.175183H6.8238729v-.63613691c0-.65682-.36357428-1.24912883-.94929615-1.54615884l-.20773919-.10541992c-.05838904-.0296-.12045288-.0463429-.18190104-.05064292zm-.88315032 3.286621h1.27382401v1.33841965h-.98908683L4.6017862 4.83794746zm2.2220867 0h1.27434074l-.28473718 1.33841965H6.8238729V4.83794746z"/>
</svg>
