<svg xmlns="http://www.w3.org/2000/svg" width="48" height="48" viewBox="0 0 12.7 12.7">
  <path fill="#1a1a1a" d="M6.34431561.07286377a6.28928043 6.28928043 0 0 0-6.2895386 6.2895385 6.28928043 6.28928043 0 0 0 6.2895386 6.28902166 6.28928043 6.28928043 0 0 0 6.28902167-6.28902167A6.28928043 6.28928043 0 0 0 6.3443156.07286376zm-.01808691.93637693a5.40704372 5.40704372 0 0 1 5.40690507 5.40690505 5.40704372 5.40704372 0 0 1-5.40690507 5.40690508A5.40704372 5.40704372 0 0 1 .91880694 6.41614575 5.40704372 5.40704372 0 0 1 6.3262287 1.0092407zM8.24755849 2.247408v.00051679c-.5761273-.01540002-1.12992428.25335886-1.47639562.7172688-.16931084.22670002-.1242306.6441342.0227375.88573423l.923458 1.51980369c.14677972.2417101.49769341.47345414.7766968.42736399.61166136-.10120974 1.15247577-.51831557 1.3833779-1.14101561.34335773-.9251598-.12786147-1.9538672-1.05316574-2.29701725-.19016768-.07100001-.38466685-.10757463-.57670884-.11265463zM5.80326334 4.2571045c-.09049702.00646113-.1812954.04399122-.26148294.1131713L2.05465492 7.38404527c-.2138332.1850001-.27795725.53631835-.14262695.7844483l.0113688.02015384c.13517221.24834003.4526811.35393789.71003419.236678l1.7885214-.81597076c.2573528-.11719004.46560448-.02287032.46560448.21083984 0 .23399988.06849718.42426334.15296224.42426334.08431212 0 .15296223.22881669.15296223.51159674v2.19624828c0 .28275994.11552211.51159674.2583823.51159674.14285753 0 .25889875-.22885665.25889875-.51159674V8.75605458c0-.2827999.07927208-.51159674.17673346-.51159674.09727115 0 .175183-.2294935.175183-.51211347V7.3726764c0-.28282979.2092849-.60674672.46663822-.72398677l.3141927-.14417728c.25735333-.11718978.34639435-.40794595.1989545-.64905598l-.84697675-1.38337791c-.07375022-.12056004-.18388462-.19190308-.3023071-.21032311v-.00051673c-.02960581-.00470006-.05975138-.00628782-.08991705-.00413412z"/>
</svg>
