<svg xmlns="http://www.w3.org/2000/svg" width="48" height="48" viewBox="0 0 12.7 12.7">
  <path fill="#1a1a1a" d="M6.19031965.03513997C2.77805035.11613997.0578776 2.8838403.0578776 6.31641027c0 3.48399995 2.80140275 6.28540428 6.28540428 6.28540428 2.03618251 0 3.8346742-.9607399 4.98160801-2.45152991L8.0992471 7.80830889c.00545016-.00599996.00913951-.0127037.01446954-.01860365-.41833614.50436012-1.05013309.82630617-1.77043475.82630617-1.31636636 0-2.29960114-1.05945118-2.29960114-2.29960114 0-1.24488997.903723-2.26362072 2.23448904-2.29650075l-.08785013-.00310039c0-1.32723015.00003254-2.65442916 0-3.98166916zm.11317155 4.6162556a1.65434048 1.66682587 0 0 0-1.65467954 1.6665649A1.65434048 1.66682587 0 0 0 6.3034912 7.98452535 1.65434048 1.66682587 0 0 0 7.957137 6.31796047a1.65434048 1.66682587 0 0 0-1.65364581-1.6665649zm.01136888.6609416a1.0268037 1.0345531 0 0 1 1.02629387 1.0345621 1.0268037 1.0345531 0 0 1-1.02629387 1.03404536 1.0268037 1.0345531 0 0 1-1.0273276-1.03404536 1.0268037 1.0345531 0 0 1 1.0273276-1.0345621z"/>
  <path fill="#d4ff2a" d="M6.1901823.03086c.000033 1.32862 0 2.65728 0 3.98592 1.358156-.0331 2.677282 1.24817 2.427211 2.64048-.07802.45366-.227213.83459-.517801 1.15074l3.2258367 2.3425c1.376124-1.71393 1.685799-4.21619.825699-6.24932C11.411493 2.11341 9.8120973.65389 7.8960023.25743c-.560788-.11886-1.129671-.24249-1.705913-.22637z" opacity=".75"/>
</svg>
