<svg xmlns="http://www.w3.org/2000/svg" width="48" height="48"><defs><linearGradient id="a"><stop offset="0" stop-color="#fff"/><stop offset="1" stop-color="#d3eefc"/></linearGradient></defs><path d="M23.95 3.1A20.86 20.86 0 0 0 3.1 23.95a20.86 20.86 0 0 0 20.85 20.86 20.86 20.86 0 0 0 20.86-20.86A20.86 20.86 0 0 0 23.95 3.1zM24 5.58a18.23 18.23 0 0 1 18.24 18.24 18.23 18.23 0 0 1-18.24 18.23A18.23 18.23 0 0 1 5.76 23.82 18.23 18.23 0 0 1 24 5.58zM8.2 22.48a15.86 15.86 0 0 0-.07 1.3 15.86 15.86 0 0 0 .07 1.34h31.57a15.86 15.86 0 0 0 .07-1.34 15.86 15.86 0 0 0-.06-1.3H8.2z" fill="#1a1a1a"/></svg>