<svg xmlns="http://www.w3.org/2000/svg" width="48" height="48" viewBox="0 0 12.7 12.7">
  <defs>
    <clipPath id="a"/>
  </defs>
  <path fill="#1a1a1a" d="M6.34431561.07286377a6.28928043 6.28928043 0 0 0-6.2895386 6.2895385 6.28928043 6.28928043 0 0 0 6.2895386 6.28902166 6.28928043 6.28928043 0 0 0 6.28902167-6.28902167A6.28928043 6.28928043 0 0 0 6.3443156.07286376zm-.02997253.9368937v2.02881671H3.29954013V1.97042233c0-.00895702-.00330438-.01694153-.00516758-.02532144a5.40704372 5.40704372 0 0 1 3.01997053-.93534343zm.23719499.01085206a5.40704372 5.40704372 0 0 1 2.9233357 1.0061401c-.0006678.00511612-.00310065.00968222-.00310065.0149862v.99683835H6.55153807V1.02060953zm-3.48919266 1.0903727v.92759195h-.9523967a5.40704372 5.40704372 0 0 1 .9523967-.92759195zm6.64662243.09353433a5.40704372 5.40704372 0 0 1 .8381918.83405762h-.8381918v-.83405762zM1.92959797 3.2757689h1.13274744v2.96726077H.92759195A5.40704372 5.40704372 0 0 1 1.92959797 3.2757689zm1.36994216 0h3.01480295v2.96726077H3.29954013V3.2757689zm3.25199794 0h2.92023505v2.96726077H6.55153807V3.2757689zm3.15742977 0h1.0102744a5.40704372 5.40704372 0 0 1 1.0076905 2.96726077h-2.0179649V3.2757689zm-4.79867324.43511576l-.8557617 1.30379627v.26871744h.9291423v.4852416h.2769854v-.4852416h.2935224v-.23151041h-.2935224v-1.3410033h-.350366zm.0733806.24287903v1.09812427h-.70279947l.70279947-1.09812427zM.92087403 6.48074139H3.0623454v2.91971832H1.82107745A5.40704372 5.40704372 0 0 1 .92087403 6.4807414zm2.3786661 0h3.01480295v2.91971832H3.29954013V6.4807414zm3.25199794 0h2.92023505v2.91971832H6.55153807V6.4807414zm3.15742977 0h2.02106528a5.40704372 5.40704372 0 0 1-.89916978 2.91971832h-1.1218955V6.4807414zm-1.79989001.39790846c-.08176366 0-.16921162.0070051-.26199941.02170403-.09186915.0146992-.19045634.03674772-.29610605.06614584v.24804687c.10473081-.03491018.2005621-.06046126.28783782-.07699798.08727572-.01653646.16921162-.0248047.24546295-.0248047.13964126 2.7e-7.24649668.02830725.32091074.08526622.0753327.05604034.11317129.13722958.11317129.2428793 0 .10289354-.03646064.18155655-.10903717.23667799-.0725768.0542028-.17730761.08164882-.3141927.08164882h-.2506308v.22840977h.23977864c.15158429 0 .26946384.03445086.35398366.10335286.08543819.06798336.12815755.16295317.12815755.28422044 0 .13137303-.04559009.23133817-.1374595.3002399-.09095053.068902-.22387375.10335313-.3984252.10335313-.10013738 0-.1959684-.01165595-.28783782-.03462338-.09186915-.02296715-.17656095-.05678672-.25373118-.10180266v.2687177c.09738148.03399155.19171946.0594278.28267025.07596426.09186915.0174551.1808099.02583815.26716698.02583815.25723374 0 .45567123-.05523627.5953125-.16639804.13964126-.11116178.20928964-.26825813.20928964-.47128906 0-.13229167-.03732186-.24379793-.11265455-.33382982-.07441433-.09003188-.17839875-.14928744-.31160905-.17776692.12034864-.03031675.21330893-.08417507.27853613-.16226393.06522694-.0790075.0976683-.17547034.0976683-.28938802 0-.16352731-.06138017-.29306281-.18448497-.38860676-.12310454-.09646259-.2904789-.14469401-.50177805-.14469401zM1.9910929 9.63765443h1.0712525v1.08107109a5.40704372 5.40704372 0 0 1-1.0712525-1.08107109zm1.30844723 0h3.01480295v2.18487967a5.40704372 5.40704372 0 0 1-3.01480295-.92759212V9.63765443zm3.25199794 0h2.92023505v1.1678875a5.40704372 5.40704372 0 0 1-2.92023505 1.0097574v-2.1776449zm3.15742977 0h.95136334a5.40704372 5.40704372 0 0 1-.95136334.99477141v-.9947714z"/>
</svg>
