<svg xmlns="http://www.w3.org/2000/svg" width="48" height="48" viewBox="0 0 12.7 12.7">
  <g fill="#1a1a1a">
    <path d="M10.53455065 4.6846673C9.88571905 2.4573731 7.8665751.83346553 5.4759544.83346553c-2.914648 0-5.27735609 2.41414267-5.27735609 5.39218877 0 2.978096 2.36270808 5.3921897 5.2773561 5.3921897 2.3906207 0 4.40976465-1.624727 5.05859624-3.8520457H8.93310764c-.1861788.43581-.45270917.83703-.79164403 1.183363-.71198734.727475-1.65863846 1.1276957-2.6655092 1.1276957-1.00687076 0-1.95353166-.4002207-2.66548964-1.1276957-.71198734-.727498-1.1036939-1.694691-1.1036939-2.723507 0-1.028815.39170656-1.996032 1.1036939-2.7235065.71195798-.7274744 1.65861888-1.1285388 2.66548963-1.1285388 1.00687075 0 1.95352187.4010644 2.6655092 1.1285388.33895445.3463329.60546524.7467333.79164404 1.1825195z"/>
    <path d="M10.75409345 4.4400434l1.71812407 1.8293756-1.71812407 1.82939V6.8585436H6.26104112V5.606372h4.49305233z"/>
  </g>
</svg>
