<svg xmlns="http://www.w3.org/2000/svg" width="48" height="48" viewBox="0 0 12.7 12.7">
  <path fill="#1a1a1a" d="M6.34431561.07286377a6.28928043 6.28928043 0 0 0-6.2895386 6.2895385 6.28928043 6.28928043 0 0 0 6.2895386 6.28902166 6.28928043 6.28928043 0 0 0 6.28902167-6.28902167A6.28928043 6.28928043 0 0 0 6.3443156.07286376zm-.01808691.93637693a5.40704372 5.40704372 0 0 1 5.40690507 5.40690505 5.40704372 5.40704372 0 0 1-5.40690507 5.40690508A5.40704372 5.40704372 0 0 1 .91880694 6.41614575 5.40704372 5.40704372 0 0 1 6.3262287 1.0092407zM2.83393564 2.78897711v4.25297013l2.41897374 1.06453462.04444153-.05426022c.10584577-.13099996.26302837-.20567226.4304649-.20567226.30703626 0 .55758847.25290674.55758847.5643065 0 .31111005-.2505374.5648235-.55758846.5648235-.27546194 0-.51204442-.20864486-.55087096-.48472486l-.0077515-.05115957-2.33525772-1.0273276v2.49907237H9.8660642v-7.1225626H8.765873v2.15387367l.04134115.02790507c.15093023.09880018.24081237.266328.24081237.4475181 0 .29414998-.23642373.53278404-.526583.53278404-.29015902 0-.52658275-.23865416-.52658275-.53278404 0-.23030021.14555258-.43351238.36121816-.50591243l.06252845-.0211873V2.7889771H4.6095377v2.3621296h1.1368815l.02222076-.0594278c.0798031-.21318008.28427363-.35656758.5084961-.35656758.30065926 0 .54415292.2474677.54415292.5513877 0 .30393004-.24349366.55087069-.54415293.55087069-.20216918 0-.38659223-.11256566-.48110748-.2945556l-.02635488-.04960937H4.2720905V2.78897711H2.83393564zm3.43648264 2.24844131a.27581801.27937497 0 0 0-.27595221.27905287.27581801.27937497 0 0 0 .27595221.2795696.27581801.27937497 0 0 0 .27595221-.2795696.27581801.27937497 0 0 0-.2759522-.27905287zm2.25102523.10697025a.27569938.2792548 0 0 0-.27543521.27905286.27569938.2792548 0 0 0 .27543521.28008633.27569938.2792548 0 0 0 .27543548-.28008633.27569938.2792548 0 0 0-.27543548-.27905286zm-1.7208251 1.14928384h2.50630686v.32917897l-2.01693116 2.4975219h2.0660238v.36328535H6.75152577v-.32917896l2.01693116-2.49752191H6.8006184V6.2936725zM5.713863 8.13490394c-.15165678 0-.27543548.12520268-.27543521.2790526 0 .15436002.12377843.27956959.27543521.27956959.15238386 0 .27646895-.12520957.27646895-.2795696 0-.15384991-.12410017-.2790526-.27646895-.2790526z"/>
</svg>
