<svg xmlns="http://www.w3.org/2000/svg" width="48" height="48" viewBox="0 0 12.7 12.7">
  <path fill="#1a1a1a" d="M6.34431561.07286377a6.28928043 6.28928043 0 0 0-6.2895386 6.2895385 6.28928043 6.28928043 0 0 0 6.2895386 6.28902166 6.28928043 6.28928043 0 0 0 6.28902167-6.28902167A6.28928043 6.28928043 0 0 0 6.3443156.07286376zm-.01808691.93637693a5.40704372 5.40704372 0 0 1 5.40690507 5.40690505 5.40704372 5.40704372 0 0 1-5.40690507 5.40690508A5.40704372 5.40704372 0 0 1 .91880694 6.41614575 5.40704372 5.40704372 0 0 1 6.3262287 1.0092407zM3.08559963 3.00705146c-.50312898.45190012-.70671919.57759308-.7038329.8268229.00282.24235013.340796.4484751.62890211.29145521.03318219.10845985.0422476.23016157-.11368802.32556159.01276403-.00023998.41237773 0 .41237773 0-.14153674-.09770004-.14951578-.2236687-.1095539-.3451987.32291522.17893003.62834016-.0255516.62476802-.3079914-.00363987-.29573008-.1932268-.38716955-.73897304-.7906496zM6.2895384 4.08967273c-1.76136642 1.58086-2.47455132 2.02070677-2.464449 2.89284671.00978006.84779987 1.19336554 1.56943265 2.20193286 1.02009283.11616478.37965988.14902259.80520856-.396875 1.13894842.0446659-.00074983 1.4433227 0 1.4433227 0-.49548017-.34215996-.5243531-.78298489-.38447265-1.2081949 1.13044366.62593986 2.2004996-.09159717 2.18798005-1.07848717-.01277805-1.03474995-.67695603-1.35362577-2.58743896-2.76520589zm3.10213635 4.6891196c.15594065.09539976.14635321.21761821.11317129.32607806-.28810585-.15701989-.62608221.04910508-.62890214.2914552-.00288608.2492301.20070392.37493284.70383293.82682291.54574625-.40348005.73588985-.49491952.73948977-.79064933.00357214-.28244006-.30236927-.4869217-.62528476-.30799167-.03996187-.12153-.03198283-.24801538.1095539-.34571516 0 0-.39909696.00023998-.41186099 0z"/>
</svg>
