<svg xmlns="http://www.w3.org/2000/svg" width="48" height="48" viewBox="0 0 12.7 12.7">
  <g fill="#1a1a1a">
    <path d="M10.377735 2.52248l-.26423 1.56292-1.562967.21947 1.562967.30114.285049 1.56293.235404-1.56293 1.562967-.24186-1.562967-.27871zM3.5802271.53614c-.322248.77286-.490178 1.62915-.490178 2.52083 0 3.56645 2.849145 6.45853 6.3629114 6.45853 1.0261745 0 1.9866335-.24294 2.8453325-.6813-.96673 2.31875-3.2351521 3.9352-5.8704004 3.9352-3.5136895 0-6.36291023-2.88979-6.36291023-6.45623 0-2.52476 1.43365873-4.71427 3.51524273-5.77701z"/>
    <path d="M7.4922046 4.83404L7.2279742 6.3937l-1.5629672.22272 1.5629672.29938.2866509 1.56143.2338042-1.56143 1.5629668-.24173-1.5629668-.2802zM5.673015 1.40466l-.26423 1.56305-1.5629659.22118 1.5629659.2995.288252 1.56294.2322009-1.56294 1.5629667-.24186-1.5629667-.27856z"/>
  </g>
</svg>
