<svg xmlns="http://www.w3.org/2000/svg" width="48" height="48" viewBox="0 0 12.7 12.7">
  <path fill="#1a1a1a" d="M6.3443156.07286A6.2892804 6.2892804 0 0 0 .05477702 6.3624a6.2892804 6.2892804 0 0 0 6.28953858 6.28902A6.2892804 6.2892804 0 0 0 12.633337 6.3624 6.2892804 6.2892804 0 0 0 6.3443156.07286zm-.018087.93638a5.4070437 5.4070437 0 0 1 5.4069054 5.40691 5.4070437 5.4070437 0 0 1-5.4069054 5.4069 5.4070437 5.4070437 0 0 1-5.40742176-5.4069A5.4070437 5.4070437 0 0 1 6.3262286 1.00924z"/>
  <path fill="#447821" d="M6.3502521 2.26187c-2.5381086 0-4.5906041 1.51542-4.5906041 3.39005 0 1.87464 2.0524955 3.39058 4.5906041 3.39058h.2697983v1.39563c2.6461132-.91739 4.3203016-2.99135 4.3203016-4.78621 0-1.87463-2.051991-3.39005-4.5900999-3.39005zM4.4601516 4.65498h1.6197978v1.19655l-.5401004.79788h-.8098991l.5401008-.79788h-.8098991zm2.1598988 0h1.6203022v1.19655l-.5401009.79788h-.8104033l.5401009-.79788h-.8098989z" opacity=".75"/>
</svg>
