<svg xmlns="http://www.w3.org/2000/svg" width="48" height="48" viewBox="0 0 12.7 12.7">
  <path fill="#1a1a1a" d="M6.3443159.07286A6.2892804 6.2892804 0 0 0 .05477737 6.3624a6.2892804 6.2892804 0 0 0 6.28953853 6.28902A6.2892804 6.2892804 0 0 0 12.633337 6.3624 6.2892804 6.2892804 0 0 0 6.3443159.07286zm-.018087.93638a5.4070437 5.4070437 0 0 1 5.4069051 5.40691 5.4070437 5.4070437 0 0 1-5.4069051 5.4069 5.4070437 5.4070437 0 0 1-5.40742183-5.4069A5.4070437 5.4070437 0 0 1 6.3262289 1.00924z"/>
  <path fill="#006680" d="M6.9835365 2.38432c-.8548012 0-1.4466392.18741-1.9792082.62735-.418843.36136-.668693.8862-.668693 1.40457.000001.79864.609008 1.64744 1.737362 1.64744.108491 0 .228348-.0113.334347-.0212l-.0155.0382c-.04536.10866-.08837.21105-.08837.37104 0 .31152.150298.5037.2955889.68937l.0186.0232-.03256.003c-.4659459.0319-1.3333059.0912-1.9668049.48059-.748221.44454-.806152 1.09154-.806152 1.2792 0 .74664.695401 1.50069 2.249992 1.50069 1.8076249 0 2.7538353-.99777 2.7538353-1.98283.000166-.72862-.4270807-1.08832-.8805654-1.47019l-.382922-.29714c-.1182097-.0979-.2650997-.22018-.2650997-.44597 0-.22197.147063-.36839.2769857-.49765l.01343-.0134c.413112-.32539.8815987-.69444.8815987-1.49242 0-.8023-.5015177-1.21716-.7425897-1.41645h.6366537c.0078 0 .01574-.002.02222-.006l.5482857-.34468c.01561-.01.02272-.0287.01757-.0465-.0049-.0178-.02135-.03-.03979-.03zm-.7637782.39584c.8490692 0 1.3187829 1.14136 1.3187829 1.93012 0 .12444.000025.50292-.2614827.76584-.175861.17553-.4617073.29352-.7115843.29352-.9247469 0-1.3089649-1.21569-1.3089649-1.86655 0-.33095.07563-.58489.230477-.7767.168053-.21025.455481-.34623.732772-.34623zm.5131469 4.67879c.10442 0 .156892-.00014.2402953.0103.7709827.54868 1.1415314.83676 1.1415314 1.38545-.000082.69896-.5896707 1.13326-1.5389227 1.13326-1.1018539 0-1.8422649-.51454-1.8422649-1.28054 0-.50017.302803-.86346.89917-1.07952.477575-.16075 1.0940449-.16898 1.1001909-.16898z" opacity=".75"/>
</svg>
