<svg xmlns="http://www.w3.org/2000/svg" width="48" height="48" viewBox="0 0 12.7 12.7">
  <defs>
    <linearGradient id="a" x2="0" y1="36" y2="12" gradientTransform="translate(2.6458227 286.94582) scale(.15434)" gradientUnits="userSpaceOnUse">
      <stop stop-color="#06a370"/>
      <stop offset="1" stop-color="#22d1b0"/>
    </linearGradient>
  </defs>
  <path fill="#1a1a1a" d="M6.3443156.07286A6.2892804 6.2892804 0 0 0 .05477702 6.3624a6.2892804 6.2892804 0 0 0 6.28953858 6.28902A6.2892804 6.2892804 0 0 0 12.633337 6.3624 6.2892804 6.2892804 0 0 0 6.3443156.07286zm-.018087.93638a5.4070437 5.4070437 0 0 1 5.4069054 5.40691 5.4070437 5.4070437 0 0 1-5.4069054 5.4069 5.4070437 5.4070437 0 0 1-5.40742176-5.4069A5.4070437 5.4070437 0 0 1 6.3262286 1.00924z"/>
  <path fill="#1a1a1a" d="M6.3500002 1.32291c-2.785004 0-5.0270831 2.24208-5.0270831 5.0271h1.7594791c0-1.81023 1.4573513-3.26762 3.267604-3.26762zm3.2676039 5.0271c0 1.81025-1.4573514 3.26759-3.2676039 3.26759v1.75948c2.7850039 0 5.0270828-2.24207 5.0270828-5.02707z"/>
  <path fill="#1a1a1a" d="M6.3500002 3.17498c-1.758951 0-3.1750019 1.41608-3.1750019 3.17503 0 1.75894 1.4160509 3.175 3.1750019 3.175s3.1750025-1.41607 3.1750025-3.175H8.2176484c0 1.03469-.8329711 1.86762-1.8676482 1.86762-1.034677 0-1.8676481-.83294-1.8676481-1.86762 0-1.0347.8329711-1.86765 1.8676481-1.86765z" opacity=".75"/>
  <path fill="url(#a)" d="M6.3500002 288.7979c-1.0260572 0-1.8520888.82605-1.8520888 1.85211 0 1.02605.8260316 1.8521 1.8520888 1.8521s1.8520888-.82605 1.8520888-1.8521c0-1.02606-.8260316-1.85211-1.8520888-1.85211m0 .77171c.5985333 0 1.0803851.48185 1.0803851 1.08039 0 .59855-.4818518 1.08038-1.0803851 1.08038-.5985333 0-1.0803851-.48183-1.0803851-1.08038 0-.59854.4818518-1.08039 1.0803851-1.08039" opacity=".7" transform="translate(0 -284.3)"/>
</svg>
