<svg xmlns="http://www.w3.org/2000/svg" width="48" height="48" viewBox="0 0 12.7 12.7">
  <path fill="#1a1a1a" d="M6.34431561.07286377c-3.4331211 0-6.25491538 2.82179534-6.25491538 6.25491538 0 3.43311926 2.82179427 6.25543202 6.25491538 6.25543202 1.08024214 0 2.09965261-.28007204 2.98999827-.76997876L6.67039393 9.14931219h1.685685V8.11216617c-.48793055.5516925-1.20205181.89658612-2.01176332.89658612-1.50120877 0-2.68045667-1.1797633-2.68045667-2.68097314 0-1.5012101 1.1792479-2.68045667 2.68045667-2.68045667 1.50120851 0 2.68097314 1.17924658 2.68097314 2.68045667 0 .09922695-.0059608.19683677-.01601972.2930054h1.8753378V9.1493122h1.0330119c.43448472-.84970222.68161217-1.80865725.68161217-2.82153304 0-3.43312004-2.82179498-6.25491538-6.25491529-6.25491538zm0 4.46794418c-.98204072 0-1.7869712.80493102-1.7869712 1.7869712 0 .98203993.80493048 1.78748767 1.7869712 1.78748767.98204045 0 1.78697094-.80544774 1.78697094-1.78748767 0-.98204018-.80493049-1.7869712-1.78697094-1.7869712zm0 .89348547c.49861549 0 .89348547.39487554.89348547.89348573 0 .49861999-.39486998.8940022-.89348547.8940022-.49861575 0-.89348573-.39538221-.89348573-.8940022 0-.4986102.39486998-.89348573.89348573-.89348573zm2.37814932 1.55287687v1.0386962h.00103346v1.48879824H7.53132321L9.6175006 11.6008421l2.08617765-2.08617738h-1.19217518V7.72666006h-.00671804v-.73948977H8.72246493z" color="#bebebe" font-family="sans-serif" font-weight="400" overflow="visible" style="font-variant-ligatures:normal;font-variant-position:normal;font-variant-caps:normal;font-variant-numeric:normal;font-variant-alternates:normal;font-feature-settings:normal;text-indent:0;text-decoration-line:none;text-decoration-style:solid;text-decoration-color:#000;text-transform:none;text-orientation:mixed;shape-padding:0;isolation:auto;mix-blend-mode:normal" white-space="normal"/>
</svg>
