<?xml version="1.0" encoding="UTF-8" standalone="no"?>
<!-- Created with Inkscape (http://www.inkscape.org/) -->

<svg
   xmlns:dc="http://purl.org/dc/elements/1.1/"
   xmlns:cc="http://creativecommons.org/ns#"
   xmlns:rdf="http://www.w3.org/1999/02/22-rdf-syntax-ns#"
   xmlns:svg="http://www.w3.org/2000/svg"
   xmlns="http://www.w3.org/2000/svg"
   xmlns:sodipodi="http://sodipodi.sourceforge.net/DTD/sodipodi-0.dtd"
   xmlns:inkscape="http://www.inkscape.org/namespaces/inkscape"
   width="48"
   height="48"
   viewBox="0 0 12.7 12.7"
   version="1.1"
   id="svg829"
   inkscape:version="0.92.3 (2405546, 2018-03-11)"
   sodipodi:docname="gtkhash.svg">
  <defs
     id="defs823" />
  <sodipodi:namedview
     id="base"
     pagecolor="#ffffff"
     bordercolor="#666666"
     borderopacity="1.0"
     inkscape:pageopacity="0.0"
     inkscape:pageshadow="2"
     inkscape:zoom="11.208333"
     inkscape:cx="24"
     inkscape:cy="24"
     inkscape:document-units="mm"
     inkscape:current-layer="layer1"
     showgrid="false"
     showguides="true"
     inkscape:guide-bbox="true"
     inkscape:window-width="1366"
     inkscape:window-height="719"
     inkscape:window-x="0"
     inkscape:window-y="25"
     inkscape:window-maximized="1"
     scale-x="1.9"
     units="px"
     inkscape:snap-global="true" />
  <metadata
     id="metadata826">
    <rdf:RDF>
      <cc:Work
         rdf:about="">
        <dc:format>image/svg+xml</dc:format>
        <dc:type
           rdf:resource="http://purl.org/dc/dcmitype/StillImage" />
        <dc:title></dc:title>
      </cc:Work>
    </rdf:RDF>
  </metadata>
  <g
     inkscape:label="Capa 1"
     inkscape:groupmode="layer"
     id="layer1"
     transform="translate(0,-284.3)">
    <path
       style="fill:#1a1a1a;fill-opacity:1;stroke-width:0.52331072"
       d="M 23.976562 0.29101562 A 23.68646 23.68646 0 0 0 0.2890625 23.978516 A 23.68646 23.68646 0 0 0 23.976562 47.662109 A 23.68646 23.68646 0 0 0 47.664062 23.978516 A 23.68646 23.68646 0 0 0 23.976562 0.29101562 z M 23.910156 3.8144531 A 20.363814 20.363814 0 0 1 44.273438 24.181641 A 20.363814 20.363814 0 0 1 23.910156 44.544922 A 20.363814 20.363814 0 0 1 3.5429688 24.181641 A 20.363814 20.363814 0 0 1 23.910156 3.8144531 z "
       transform="matrix(0.26458333,0,0,0.26458333,0,284.3)"
       id="path822" />
    <path
       inkscape:connector-curvature="0"
       style="fill:#1a1a1a;stroke-width:0.02809756"
       d="M 5.6652305,286.57584 5.0998356,288.8766 H 3.0989788 v 0.85346 h 1.7846765 l -0.4656194,1.85119 h -1.950969 v 0.84808 h 1.7460728 l -0.5766793,2.29484 h 0.8926351 l 0.5707401,-2.29484 h 1.6243227 l -0.5707399,2.29484 h 0.8866961 l 0.5766791,-2.29484 h 1.9788825 v -0.84808 H 7.8329738 l 0.4543354,-1.85119 H 10.232933 V 288.8766 H 8.5034897 l 0.5707401,-2.30076 H 8.1875336 l -0.582024,2.30076 H 5.9871257 l 0.576085,-2.30076 z m 0.1164057,3.15422 h 1.6130385 l -0.4543352,1.85119 H 5.3160163 Z"
       id="path829" />
  </g>
</svg>
