<svg xmlns="http://www.w3.org/2000/svg" width="48" height="48" viewBox="0 0 12.7 12.7">
  <g fill="#1a1a1a">
    <path d="M6.34379862.07699788a6.26704246 6.26704246 0 0 0-6.2673175 6.26731773 6.26704246 6.26704246 0 0 0 6.2673175 6.2662839 6.26704246 6.26704246 0 0 0 6.26731763-6.2662839A6.26704246 6.26704246 0 0 0 6.34379862.07699788zm-.01756992.93224282a5.38792572 5.38792572 0 0 1 5.38778496 5.3888184 5.38792572 5.38792572 0 0 1-5.38778496 5.3877847A5.38792572 5.38792572 0 0 1 .93741048 6.3980591 5.38792572 5.38792572 0 0 1 6.3262287 1.0092407z"/>
    <path d="M5.6652305 2.27584L5.0998356 4.5766H3.0989788v.85346h1.7846765l-.4656194 1.85119h-1.950969v.84808h1.7460728l-.5766793 2.29484h.8926351l.5707401-2.29484h1.6243227l-.5707399 2.29484h.8866961l.5766791-2.29484h1.9788825v-.84808H7.8329738l.4543354-1.85119h1.9456238V4.5766H8.5034897l.5707401-2.30076h-.8866962l-.582024 2.30076H5.9871257l.576085-2.30076zm.1164057 3.15422h1.6130385l-.4543352 1.85119H5.3160163z"/>
  </g>
</svg>
