<?xml version="1.0" encoding="UTF-8" standalone="no"?>
<!-- Created with Inkscape (http://www.inkscape.org/) -->

<svg
   xmlns:dc="http://purl.org/dc/elements/1.1/"
   xmlns:cc="http://creativecommons.org/ns#"
   xmlns:rdf="http://www.w3.org/1999/02/22-rdf-syntax-ns#"
   xmlns:svg="http://www.w3.org/2000/svg"
   xmlns="http://www.w3.org/2000/svg"
   xmlns:sodipodi="http://sodipodi.sourceforge.net/DTD/sodipodi-0.dtd"
   xmlns:inkscape="http://www.inkscape.org/namespaces/inkscape"
   width="48"
   height="48"
   viewBox="0 0 12.7 12.7"
   version="1.1"
   id="svg829"
   inkscape:version="0.92.3 (2405546, 2018-03-11)"
   sodipodi:docname="gx_head.svg">
  <defs
     id="defs823" />
  <sodipodi:namedview
     id="base"
     pagecolor="#ffffff"
     bordercolor="#666666"
     borderopacity="1.0"
     inkscape:pageopacity="0.0"
     inkscape:pageshadow="2"
     inkscape:zoom="7.9107571"
     inkscape:cx="24"
     inkscape:cy="23.127435"
     inkscape:document-units="mm"
     inkscape:current-layer="layer1"
     showgrid="false"
     showguides="true"
     inkscape:guide-bbox="true"
     inkscape:window-width="1366"
     inkscape:window-height="714"
     inkscape:window-x="0"
     inkscape:window-y="25"
     inkscape:window-maximized="1"
     scale-x="1.9"
     units="px"
     inkscape:snap-global="false"
     inkscape:snap-smooth-nodes="true"
     inkscape:measure-start="0,0"
     inkscape:measure-end="0,0" />
  <metadata
     id="metadata826">
    <rdf:RDF>
      <cc:Work
         rdf:about="">
        <dc:format>image/svg+xml</dc:format>
        <dc:type
           rdf:resource="http://purl.org/dc/dcmitype/StillImage" />
        <dc:title></dc:title>
      </cc:Work>
    </rdf:RDF>
  </metadata>
  <g
     inkscape:label="Capa 1"
     inkscape:groupmode="layer"
     id="layer1"
     transform="translate(0,-284.3)">
    <path
       style="fill:#1a1a1a;fill-opacity:1;stroke-width:0.42237759"
       d="M 23.978516 0.27539062 A 23.770509 23.770509 0 0 0 0.20703125 24.046875 A 23.770509 23.770509 0 0 0 23.978516 47.816406 A 23.770509 23.770509 0 0 0 47.748047 24.046875 A 23.770509 23.770509 0 0 0 23.978516 0.27539062 z M 23.910156 3.8144531 A 20.436071 20.436071 0 0 1 44.345703 24.25 A 20.436071 20.436071 0 0 1 23.910156 44.685547 A 20.436071 20.436071 0 0 1 3.4726562 24.25 A 20.436071 20.436071 0 0 1 23.910156 3.8144531 z M 23.908203 7.8144531 A 16.436159 16.436159 0 0 0 7.4726562 24.25 A 16.436159 16.436159 0 0 0 23.908203 40.685547 A 16.436159 16.436159 0 0 0 40.345703 24.25 A 16.436159 16.436159 0 0 0 23.908203 7.8144531 z M 19.917969 13.890625 C 19.969401 13.890625 20.020934 13.912743 20.068359 13.931641 L 21.71875 14.933594 C 21.84553 15.011074 21.885621 15.174167 21.808594 15.300781 L 21.3125 16.115234 C 21.235526 16.242982 21.071919 16.282558 20.945312 16.205078 L 20.498047 15.933594 L 20.382812 16.121094 C 20.311995 16.246952 20.16813 16.281429 20.046875 16.228516 L 19.730469 16.748047 L 22.140625 18.160156 L 22.513672 17.550781 C 22.453181 17.463474 22.444383 17.350662 22.501953 17.253906 L 22.617188 17.064453 L 22.169922 16.792969 C 22.043145 16.715488 22.003074 16.552017 22.080078 16.425781 L 22.576172 15.611328 C 22.65327 15.48358 22.816723 15.443248 22.943359 15.521484 L 24.59375 16.525391 C 24.720568 16.603249 24.758641 16.765964 24.681641 16.892578 L 24.185547 17.705078 C 24.108437 17.832826 23.946949 17.872402 23.820312 17.794922 L 23.373047 17.525391 L 23.257812 17.712891 C 23.186995 17.838749 23.042914 17.873226 22.921875 17.820312 L 22.5625 18.410156 L 25.097656 19.896484 L 25.419922 19.365234 C 25.359249 19.280195 25.352586 19.167068 25.410156 19.070312 L 25.525391 18.880859 L 25.078125 18.609375 C 24.951345 18.531895 24.911285 18.368802 24.988281 18.242188 L 25.484375 17.425781 C 25.561311 17.297655 25.724929 17.258835 25.851562 17.335938 L 27.5 18.339844 C 27.626814 18.416946 27.666655 18.580795 27.589844 18.707031 L 27.09375 19.523438 C 27.01681 19.651186 26.853196 19.691517 26.726562 19.613281 L 26.279297 19.341797 L 26.164062 19.529297 C 26.093125 19.655155 25.949357 19.689632 25.828125 19.636719 L 25.517578 20.144531 L 27.960938 21.576172 L 28.257812 21.087891 C 28.197132 21.000961 28.188547 20.889725 28.246094 20.792969 L 28.361328 20.603516 L 27.916016 20.332031 C 27.789496 20.254551 27.749206 20.091458 27.826172 19.964844 L 28.320312 19.150391 C 28.397438 19.022265 28.560863 18.982689 28.6875 19.060547 L 30.337891 20.060547 C 30.464373 20.137271 30.504731 20.303073 30.427734 20.429688 L 29.931641 21.242188 C 29.854512 21.369936 29.69109 21.409134 29.564453 21.332031 L 29.117188 21.060547 L 29.001953 21.25 C 28.931098 21.373969 28.78721 21.408382 28.666016 21.355469 L 28.382812 21.820312 L 30.863281 23.275391 L 31.119141 22.853516 C 31.058774 22.768854 31.051828 22.654594 31.109375 22.558594 L 31.224609 22.369141 L 30.775391 22.097656 C 30.64838 22.020176 30.60855 21.85513 30.685547 21.728516 L 31.183594 20.916016 C 31.260534 20.788646 31.424088 20.748692 31.550781 20.826172 L 33.199219 21.828125 C 33.325663 21.905983 33.366059 22.068698 33.289062 22.195312 L 32.792969 23.009766 C 32.71587 23.137892 32.552418 23.179421 32.425781 23.101562 L 31.978516 22.830078 L 31.863281 23.019531 C 31.792283 23.1435 31.648394 23.17596 31.527344 23.123047 L 31.285156 23.523438 L 33.779297 24.984375 L 34.082031 24.486328 C 34.021506 24.401667 34.012584 24.288162 34.070312 24.191406 L 34.185547 24.003906 L 33.738281 23.732422 C 33.611769 23.65532 33.571433 23.491849 33.648438 23.365234 L 34.144531 22.548828 C 34.221414 22.42108 34.385086 22.381126 34.511719 22.458984 L 36.160156 23.462891 C 36.287163 23.540371 36.326845 23.703464 36.25 23.830078 L 35.755859 24.642578 C 35.678886 24.770326 35.515305 24.81028 35.388672 24.732422 L 34.939453 24.460938 L 34.826172 24.650391 C 34.755173 24.776249 34.611281 24.812616 34.490234 24.757812 L 34.201172 25.232422 L 35.517578 26.001953 C 36.57306 26.69973 36.671998 27.586163 35.890625 28.376953 C 35.669634 28.937608 35.253665 29.092301 36.355469 30.423828 L 32.726562 34.982422 C 30.793738 33.26576 29.100268 31.069281 24.771484 34.144531 C 23.5581 33.708412 22.99354 33.489146 20.585938 26.330078 C 19.13291 22.224642 18.72637 23.389339 17.097656 23.583984 C 16.890395 23.631228 16.67513 23.68618 16.455078 23.705078 A 4.2099912 4.3262884 0 0 1 15.724609 23.771484 A 4.2099912 4.3262884 0 0 1 11.513672 19.445312 A 4.2099912 4.3262884 0 0 1 15.724609 15.119141 A 4.2099912 4.3262884 0 0 1 17.144531 15.378906 C 17.236238 15.378906 17.327221 15.37954 17.421875 15.398438 L 19.310547 16.505859 L 19.640625 15.960938 C 19.580508 15.87552 19.573312 15.762016 19.630859 15.666016 L 19.746094 15.476562 L 19.298828 15.205078 C 19.172392 15.127598 19.131897 14.964505 19.208984 14.837891 L 19.705078 14.023438 C 19.753207 13.9418 19.834289 13.903917 19.919922 13.892578 L 19.917969 13.890625 z M 18.285156 17.488281 A 0.86060606 0.88386565 0 0 0 17.423828 18.373047 A 0.86060606 0.88386565 0 0 0 18.285156 19.257812 A 0.86060606 0.88386565 0 0 0 19.146484 18.373047 A 0.86060606 0.88386565 0 0 0 18.285156 17.488281 z M 21.330078 19.210938 A 0.86060606 0.88386565 0 0 0 20.470703 20.095703 A 0.86060606 0.88386565 0 0 0 21.330078 20.978516 A 0.86060606 0.88386565 0 0 0 22.191406 20.095703 A 0.86060606 0.88386565 0 0 0 21.330078 19.210938 z M 24.121094 20.884766 A 0.86060606 0.88386565 0 0 0 23.261719 21.769531 A 0.86060606 0.88386565 0 0 0 24.121094 22.652344 A 0.86060606 0.88386565 0 0 0 24.982422 21.769531 A 0.86060606 0.88386565 0 0 0 24.121094 20.884766 z M 27.099609 22.607422 A 0.86060606 0.88386565 0 0 0 26.240234 23.492188 A 0.86060606 0.88386565 0 0 0 27.099609 24.375 A 0.86060606 0.88386565 0 0 0 27.958984 23.492188 A 0.86060606 0.88386565 0 0 0 27.099609 22.607422 z M 29.890625 24.28125 A 0.86060606 0.88386565 0 0 0 29.03125 25.166016 A 0.86060606 0.88386565 0 0 0 29.890625 26.048828 A 0.86060606 0.88386565 0 0 0 30.751953 25.166016 A 0.86060606 0.88386565 0 0 0 29.890625 24.28125 z M 32.914062 26.095703 A 0.86060606 0.88386565 0 0 0 32.052734 26.980469 A 0.86060606 0.88386565 0 0 0 32.914062 27.863281 A 0.86060606 0.88386565 0 0 0 33.775391 26.980469 A 0.86060606 0.88386565 0 0 0 32.914062 26.095703 z "
       transform="matrix(0.26458333,0,0,0.26458333,0,284.3)"
       id="path829-3" />
  </g>
</svg>
