<svg xmlns="http://www.w3.org/2000/svg" width="48" height="48" viewBox="0 0 12.7 12.7">
  <defs>
    <clipPath id="a"/>
  </defs>
  <path fill="#1a1a1a" d="M6.34431561.07286377a6.28928043 6.28928043 0 0 0-6.2895386 6.2895385 6.28928043 6.28928043 0 0 0 6.2895386 6.28902166 6.28928043 6.28928043 0 0 0 6.28902167-6.28902167A6.28928043 6.28928043 0 0 0 6.3443156.07286376zm-.01808691.93637693a5.40704372 5.40704372 0 0 1 5.40690507 5.40690505 5.40704372 5.40704372 0 0 1-5.40690507 5.40690508A5.40704372 5.40704372 0 0 1 .91880694 6.41614575 5.40704372 5.40704372 0 0 1 6.3262287 1.0092407zM3.01325276 3.32486155c-.55867392 0-1.00872397.17969626-1.00872397.4030763V8.972062c0 .22338003.45005005.4030763 1.00872397.4030763.558673 0 1.00820722-.17969627 1.00820722-.4030763V7.5969523h1.37510968v1.319816c0 .24372993.70730903.44028307 1.58594978.44028307H9.1095215c.87864393 0 1.58594952-.19655314 1.58594952-.44028307V3.76462814c0-.24385005-.70730559-.4397666-1.58594952-.4397666H6.98251944c-.87864075 0-1.58594978.1959065-1.58594978.4397666v1.87016997H4.02145998V3.72793784c0-.22338003-.44953423-.4030763-1.00820722-.4030763zm3.13520901.73328873h3.86849774v2.96260966H7.39489743v.6164998h2.62206208V8.8103148H6.14846177V5.84770487h2.69492594v-.6159828H6.14846177v-1.1735718z"/>
</svg>
