<svg xmlns="http://www.w3.org/2000/svg" width="48" height="48" viewBox="0 0 12.7 12.7">
  <path fill="#1a1a1a" d="M6.34431561.07286377a6.28928043 6.28928043 0 0 0-6.2895386 6.2895385 6.28928043 6.28928043 0 0 0 6.2895386 6.28902166 6.28928043 6.28928043 0 0 0 6.28902167-6.28902167A6.28928043 6.28928043 0 0 0 6.3443156.07286376zm-.01808691.93637693a5.40704372 5.40704372 0 0 1 4.49119883 2.4039877c-.0252185-.01382659-.06037818-.0242927-.11730566-.0253214-1.01966658-.01911007-1.6644977.81442055-1.6644977.81442029-.30588452-.4074795-.95254576-.62427008-1.3492718-.72346978-.18168407-.04538001-.20104231-.00328956-.07441406.10852044.00421005.00399997.00783564.00785204.01188562.01085189.01975511.00199998.03580844.00485219.06252845.01085215.39672603.0990899 1.04338727.31547328 1.3492718.7229533 0 0 .6448311-.83352056 1.66449769-.81442056.04129008.00079984.07253182.00695273.09715182.01395254.0376018-.02786168.05023591-.05351806.0501261-.07648098a5.40704372 5.40704372 0 0 1 .41857904.77876372c-.37961543-.22736571-.7357618-.29393435-1.02060956-.2930054-.36207276.0015502-.601894.1062236-.64027102.12402344-.00728001.04433014-.01210098.08962575-.01291908.13642578 0 0 .81466901-.40388937 1.75389803.21135657a5.40704372 5.40704372 0 0 1 .38705657 2.00349535 5.40704372 5.40704372 0 0 1-5.40690507 5.40690508A5.40704372 5.40704372 0 0 1 .91880694 6.41614575 5.40704372 5.40704372 0 0 1 6.3262287 1.0092407zm.57619237 2.71301257l-5.18159591.01188561 2.26704517 3.36051839v2.60862627H3.0163534v.25993248H5.6074095v-.25993248h-.97203365V7.11067699l2.26704522-3.38842372zm.47438945.17104916c-.17099598-.00767001-.18305489.05162523-.07958164.13332512.02185908-.00281993.0467098-.0041005.07958164-.00310065.1849231.00831003.43739249.04819174.7405235.16743177 0 0-.01574298-.0575445-.046509-.14624446-.2819183-.1049999-.51896908-.14441197-.6940145-.15141178zm.69349778.87178143a2.43722593 2.7570607 44.855071 0 0-.67851152.1193726l.10748698.15141177c.06408023.09029991.20503118.12041293.31625963.06821302l.4015261-.18810234c.06949467-.0326599.10584445-.09017847.1111041-.15037832a2.43722593 2.7570607 44.855071 0 0-.2578653-.00051673zm.7885824.09146725c-.04687013.05751989-.05464968.1322705-.00930168.19637031l.23099342.32607832c.06408181.0902999.20503065.1214464.31625989.06924648l.30024017-.14107662a2.43722593 2.7570607 44.855071 0 0-.8381918-.45061849zm-1.68206787.1023194a2.43722593 2.7570607 44.855071 0 0-.75912688.43976634l.07751471.10903717c.06407864.09030017.20503091.12092966.3162599.06872975l.40152583-.1891358c.11121787-.05224992.14934803-.16704866.08526595-.25734857l-.12143951-.17104889zm1.24281828.0961181c-.02985506.00299985-.05952755.01067144-.08733314.02377096l-.40100937.18810234c-.11121972.05224013-.14986476.16704866-.08578268.25734857l.23151041.32711178c.06407706.09030017.20503118.12041293.31625963.06821302l.40152584-.18861908c.1112192-.05224991.14934724-.16704865.08526621-.25734856l-.23099368-.32607832c-.03206194-.04529984-.08323686-.07534989-.1405599-.08784986v.00051673c-.0285959-.00599996-.05902853-.0081677-.08888332-.00516758zm1.43040362.39739173l-.3374472.15864654c-.11121892.05225018-.14882812.16704866-.08474947.25734883l.23151041.32607805c.06408182.09030018.20503118.12092966.3162599.06872975l.30850839-.144694a2.43722593 2.7570607 44.855071 0 0-.43408203-.66559244v-.00051673zm-2.43396.07389733c-.02985505.00299984-.05952727.01128791-.08733313.02428795l-.40152584.18913554c-.11121919.05223008-.14883156.1665322-.08474948.25683184l.23099368.32556158c.06408023.09030017.20554765.1214464.31677663.06924649l.4010091-.18861908c.11121893-.05224992.14934804-.16704865.08526595-.25734856l-.2315104-.32659505c-.03186457-.0452001-.0832628-.07493317-.1405599-.08733314-.02859696-.00599995-.05851155-.00816768-.0883666-.00516757zm-1.16530356.0134358a2.43722593 2.7570607 44.855071 0 0-.44906829.50901282c.00177006-.00114009.00442119-.00120703.0062013-.00206692l.40152585-.18810235c.11121892-.05224991.14934406-.16704865.0852662-.25734856l-.04392506-.06149499zm2.74763597.33021243c-.02985558.00299985-.06004401.01077119-.08785013.02377123l-.40152584.18913554c-.11121496.05224013-.14882839.16704865-.08474922.25734883l.23099368.32607805c.06407732.09030017.20503092.12092966.31625963.06872975l.40204258-.1891358c.11121919-.05223987.14883156-.16704866.08474948-.25734857l-.23099369-.32607831c-.03190001-.04529984-.08339878-.07483317-.14055989-.08733314-.02859802-.00599996-.05851181-.00816769-.0883666-.00516758zM6.41252837 5.99705v.00051672c-.02988284.00309986-.0595302.01128792-.08733314.02428796l-.40152584.18810208c-.11121707.05224991-.14935808.16704865-.0852662.25734856l.2315104.32607832c.06407865.09030017.20503065.12041293.3162599.06821302l.40152584-.18810234c.11121496-.05222981.14934406-.16704866.08526595-.25734857l-.23151042-.32556158c-.03176614-.04480005-.0832559-.07586663-.1400429-.0883666h-.000517c-.02843661-.00599996-.05866843-.00816769-.0883666-.00516758zm3.93929442.30695793l-.26044922.12247298c-.1112139.05225018-.14934723.16704865-.08526621.25734882l.23151041.32607832c.0476422.06709992.1374828.10150078.22634284.09250071a2.43722593 2.7570607 44.855071 0 0-.11213782-.79840083zm-2.35747875.0366903c-.02988416.00309986-.05901346.01128792-.0868164.02428795L7.5060018 6.553605c-.1112192.05223008-.14934433.16704866-.08526622.25734883l.23099369.32556132c.06408023.09030018.20554738.12092967.31677662.06872976l.40100885-.18810235c.11121919-.05223986.14934723-.16704865.0852662-.25734856l-.23099367-.32659505c-.03190002-.04510008-.08323792-.07596663-.1405599-.0883666v.00051673c-.0285959-.00599995-.05899944-.00765095-.08888333-.00465084zM5.54333086 6.49211a2.43722593 2.7570607 44.855071 0 0-.13745925.33486327 2.43722593 2.7570607 44.855071 0 0-.11678893.52968366c.0318971-.00260006.06386142-.0092546.09353444-.0232545l.40152584-.18861907c.11121998-.05223986.14934803-.16704865.08526621-.25734856l-.23151041-.32607832c-.02269596-.03200003-.05731695-.05324633-.0945679-.06924648zm4.03334532.19171972c-.02988363.00309986-.06004692.01118791-.08784987.02428796l-.40152584.18861881c-.11121892.05224013-.1488313.16653192-.08474921.25683183l.2315104.32659505c.06408183.09030017.2050304.1214464.31625964.06924649l.40204257-.18913581c.11120702-.05224992.14882945-.16704865.08474948-.25734856l-.23202714-.32659505c-.03208973-.04490006-.08249338-.07473315-.13952644-.08733314-.02859696-.00599995-.05899943-.00765095-.0888836-.00465084v-.00051674zM6.9913044 6.8119873c-.02988389.00309985-.06004692.01067117-.08784986.02377122l-.40152584.18861881c-.1112192.05224013-.1488284.16704865-.08474949.25734856l.23151042.32659505c.06407838.09030018.20503065.12092966.3162599.06872975l.40152583-.1891358c.11121893-.05224992.14883024-.16653192.08474922-.25683183L7.21971417 6.904488c-.03206195-.04500007-.08323686-.0753499-.1405599-.08784987v.00051673c-.0285959-.00599995-.0579657-.00816769-.08784987-.00516757zm1.58181568.34364823c-.0298831.00309986-.06004693.01077119-.08785014.02377123l-.40100884.18913554c-.1112192.05224012-.14934512.16653219-.08526621.25683183l.23099368.32556159c.06407679.09030017.20554712.12092966.31677636.06872975l.40152584-.18810234c.11121416-.05224992.14934512-.16704866.08526621-.25734857l-.23151041-.32607831c-.03222413-.04529985-.08323792-.07596664-.1405599-.0883666-.02859696-.00599996-.0584827-.00713423-.0883666-.00413412zm-2.58588878.12815755c-.02985505.00299985-.05952701.0111879-.08733313.02428796l-.40152584.18810208c-.11121999.05224012-.14934512.16704865-.08526621.25734883l.2315104.32607805c.064085.09030017.20503092.12041293.3162599.06821302l.4025593-.18810234c.11121602-.05224992.14882734-.16704866.08474949-.25734857l-.23099369-.32556158c-.03206168-.04519983-.08323685-.0753499-.14055989-.08784987l-.00103346-.00051673c-.02859617-.00599996-.05851181-.00765096-.08836687-.00465085zm4.16770418.21497396v.00051673c-.02987992.00310012-.05901637.0111879-.0868164.02428796l-.40204257.18810207c-.11121893.05225019-.14934803.16704866-.08526595.25734883l.23202714.32607805c.06334046.08920004.20152942.12007983.31212552.07028022a2.43722593 2.7570607 44.855071 0 0 .20360507-.46973887 2.43722593 2.7570607 44.855071 0 0 .07389733-.27853613l-.01756992-.02480469c-.032172-.04519956-.08325987-.07586662-.1405599-.0883666h-.00051672c-.02860993-.00599995-.0590034-.00816768-.0888836-.00516757zm-2.5858885.12867428c-.02985506.00300011-.05901055.01077119-.08681641.02377122l-.40152584.18810208c-.1112192.05224013-.14934512.16704892-.08526621.25734857l.23099368.32607831c.06408182.09030018.20554738.1214464.31677663.06924649l.4010091-.18861908c.11121999-.05224965.14934698-.16704839.08526595-.25734856l-.23047695-.32607832c-.03206168-.04529984-.0835607-.07586662-.1405599-.0883666l-.00051672.00103347c-.0285959-.00599996-.05902828-.00816769-.08888333-.00516758zm-2.2856486.31987701a2.43722593 2.7570607 44.855071 0 0 .09766855.46767194c.09148392-.0567301.12203218-.15812902.06304518-.2413291l-.16071374-.22634284zm3.867981.0232545v.00051673c-.02985506.0030001-.06004401.01128792-.08785013.02428795l-.40152584.18810235c-.11121893.05224965-.14882733.16704839-.08474922.25734856l.23151041.32607832c.06407997.0902999.20503092.12041266.31625963.06821275l.40204257-.1886188c.1112192-.05224013.1488276-.16704866.08474949-.25734883l-.23202715-.32607832c-.03204263-.04519983-.08336703-.07483316-.1405599-.08733314-.0285959-.00599995-.05799507-.00816768-.08784986-.00516757zm-2.58588877.12764082v.00051673c-.02985506.0030001-.05952702.01077118-.08733314.02377122l-.40152584.18861881c-.11121893.05225018-.14882839.16704866-.08474948.25734883l.23099368.32659505c.06408208.0902999.20554791.12041266.31677663.06821275l.40152584-.18861907c.11121892-.0522396.14882706-.16704839.08474948-.25734856l-.23099368-.32556132c-.03206221-.04540012-.08272013-.0758669-.14004317-.08836687h-.00103346c-.02859617-.00599995-.0585118-.00816768-.08836686-.00516757zm1.5823324.34416496c-.02985505.00300011-.06004401.01025446-.08784987.0232545l-.4010091.1891358c-.11122.05224965-.14934433.1670484-.08526622.25734857l.23099368.32607831c.0640797.09029991.20503065.12092967.31625963.0687295l.40204284-.18861882c.11121893-.05223007.14934697-.16704865.08526595-.25734883l-.23151042-.32607831c-.03204236-.04519957-.08336676-.0754499-.1405599-.08784987-.02859695-.00599996-.05851154-.0076507-.08836659-.00465085zm-2.58588877.12764082c-.0296934.00304007-.05967915.0113591-.08733314.02428796l-.02428795.01136888a2.43722593 2.7570607 44.855071 0 0 .43356529.66559244l.05322676-.02480469c.11121892-.05224012.14934512-.16704865.08526621-.25734883l-.23099368-.32659504c-.0317381-.04529984-.08323686-.07493318-.1405599-.08733314H5.6503011c-.02842948-.00596503-.05817129-.00809228-.08784987-.00516758h-.000517zm4.16770444.21600742v.00051673c-.02985505.00300011-.05901055.01067118-.08681667.02377123l-.40204257.18861907c-.11121787.05222981-.14934803.16704866-.08526595.25734857l.08940006.12609062a2.43722593 2.7570607 44.855071 0 0 .59479577-.58239342c-.00749406-.0030001-.01344719-.00730197-.0211873-.00930195-.02859591-.00599996-.05902881-.0076507-.08888334-.00465085zm-2.58588877.12764082v.00051673c-.02985505.00300011-.05901028.01077119-.0868164.02377123l-.40152585.18861907c-.11121892.0522298-.14986502.16704866-.08578294.25734856l.23151042.32607832c.06407837.09029991.20554738.12092966.31677662.06872949l.40100911-.18913554c.11121496-.05224013.14934406-.16704866.08526595-.25734883l-.23047669-.32607832c-.03216883-.04519956-.08378005-.0749329-.14107663-.08733313-.02859801-.00599996-.05902854-.00816743-.08888359-.00516758zm1.5823324.3431315v.00051674c-.0298561.0030001-.06004427.01067117-.08784986.02377122l-.40152611.1891358c-.11121893.05223987-.1488313.16704866-.08474922.25734857l.09973548.14107663a2.43722593 2.7570607 44.855071 0 0 .8133871-.36431881l-.1100709-.15451243c-.03206167-.0452001-.08288205-.07535016-.14004316-.08785014h-.00103346c-.0285959-.00599995-.05799481-.00816742-.08784987-.00516757zm-2.58588877.12867429c-.0298839.00310012-.05953019.01128792-.08733314.02428795l-.01601972.00723477a2.43722593 2.7570607 44.855071 0 0 .53071712.34054759l-.1984375-.27956933c-.03204263-.0452001-.08336306-.0754499-.1405599-.08785014-.02859722-.00599995-.0584827-.00765069-.08836686-.00465084zm1.5823324.3431315c-.02988389.00310013-.06004692.01128792-.08784986.02428796l-.40100911.1891358c-.00079005.0002601-.00127715.00066358-.0020672.00103347a2.43722593 2.7570607 44.855071 0 0 .78909915-.02377123l-.06872949-.09818502c-.03222387-.04500007-.08323818-.0759669-.1405599-.08836686l-.00051699.00103346c-.0285959-.00599969-.0584827-.00816742-.0883666-.00516758z"/>
</svg>
