<svg xmlns="http://www.w3.org/2000/svg" width="48" height="48" viewBox="0 0 12.7 12.7">
  <path fill="#1a1a1a" d="M6.34431561.07286377a6.28928043 6.28928043 0 0 0-6.2895386 6.2895385 6.28928043 6.28928043 0 0 0 6.2895386 6.28902166 6.28928043 6.28928043 0 0 0 6.28902167-6.28902167A6.28928043 6.28928043 0 0 0 6.3443156.07286376zm-.01808691.93637693a5.40704372 5.40704372 0 0 1 5.40690507 5.40690505 5.40704372 5.40704372 0 0 1-5.40690507 5.40690508A5.40704372 5.40704372 0 0 1 .91880694 6.41614575 5.40704372 5.40704372 0 0 1 6.3262287 1.0092407zm.04909264 2.03398433a.87034858.87034858 0 0 0-.8955524.86971424.87034858.87034858 0 0 0 1.74046196 0 .87034858.87034858 0 0 0-.84490956-.86971424zM4.7831705 5.47925195v.69711516h.69659843v2.784843h-.69659843v.69608144h3.13365882V8.9612101l-.69659843-.01498626v-3.4669719H4.7831705z"/>
</svg>
