<?xml version="1.0" encoding="UTF-8" standalone="no"?>
<svg
   xmlns:dc="http://purl.org/dc/elements/1.1/"
   xmlns:cc="http://creativecommons.org/ns#"
   xmlns:rdf="http://www.w3.org/1999/02/22-rdf-syntax-ns#"
   xmlns:svg="http://www.w3.org/2000/svg"
   xmlns="http://www.w3.org/2000/svg"
   xmlns:sodipodi="http://sodipodi.sourceforge.net/DTD/sodipodi-0.dtd"
   xmlns:inkscape="http://www.inkscape.org/namespaces/inkscape"
   width="48"
   height="48"
   viewBox="0 0 12.7 12.7"
   version="1.1"
   id="svg6"
   sodipodi:docname="icecat.svg"
   inkscape:version="0.92.3 (2405546, 2018-03-11)">
  <metadata
     id="metadata12">
    <rdf:RDF>
      <cc:Work
         rdf:about="">
        <dc:format>image/svg+xml</dc:format>
        <dc:type
           rdf:resource="http://purl.org/dc/dcmitype/StillImage" />
        <dc:title></dc:title>
      </cc:Work>
    </rdf:RDF>
  </metadata>
  <defs
     id="defs10" />
  <sodipodi:namedview
     pagecolor="#ffffff"
     bordercolor="#666666"
     borderopacity="1"
     objecttolerance="10"
     gridtolerance="10"
     guidetolerance="10"
     inkscape:pageopacity="0"
     inkscape:pageshadow="2"
     inkscape:window-width="1308"
     inkscape:window-height="742"
     id="namedview8"
     showgrid="false"
     inkscape:zoom="1.2291667"
     inkscape:cx="123.86976"
     inkscape:cy="42.412751"
     inkscape:window-x="58"
     inkscape:window-y="-4"
     inkscape:window-maximized="1"
     inkscape:current-layer="svg6" />
  <path
     fill="#1a1a1a"
     d="M6.344.337A6.025 6.025 0 0 0 .32 6.362a6.025 6.025 0 0 0 6.025 6.025 6.025 6.025 0 0 0 6.025-6.025A6.025 6.025 0 0 0 6.344.337zm-.017.897a5.18 5.18 0 0 1 5.18 5.18 5.18 5.18 0 0 1-5.18 5.18 5.18 5.18 0 0 1-5.18-5.18 5.18 5.18 0 0 1 5.18-5.18z"
     id="path2" />
  <path
     d="M 7.976,2.054 7.989,2.118 C 8.225,2.635 8.673,3.099 9.034,3.566 9.084,3.438 9.129,3.028 9.223,2.923 9.226,2.921 9.227,2.919 9.23,2.919 c 0.005,0 0.019,0.03 0.03,0.065 0.074,0.16 0.166,0.322 0.272,0.47 0.002,0 0.002,10e-4 0.002,0.002 0.718,1.061 1.443,1.838 1.443,3.35 0,2.385 -2.072,4.319 -4.627,4.319 -2.556,0 -4.628,-1.934 -4.628,-4.319 0,-0.853 0.267,-1.647 0.724,-2.317 0,-0.007 0.003,-0.011 0.003,-0.022 0,-0.07 0.024,-0.271 0.044,-0.374 0.054,-0.26 0.27,-1.02 0.587,-1.174 0.2570805,0.2336398 0.178,0.76 0.352,1.034 0.056614,-0.02556 0.1178889,-0.039177 0.18,-0.04 L 3.63,3.91 C 3.64461,3.9081 3.659287,3.90677 3.674,3.906 H 3.678 L 3.724,3.903 3.73,3.902 h 0.044 l 0.01,-0.001 c 0.035993,-0.00101 0.072007,-0.00101 0.108,0 0.059,0 0.12,0.004 0.182,0.01 0.056,0.004 0.111,0.012 0.165,0.02 0.006,0 0.012,0 0.018,0.002 l 0.025,0.003 c 0.008,0 0.015,0.003 0.023,0.004 0.007,0 0.014,0.002 0.02,0.003 L 4.354,3.948 4.37,3.951 4.411,3.958 C 4.612,4.007 4.591,4.008 4.658,3.947 4.865,3.766 4.892666,3.3437705 5.239666,3.2517027 5.3524282,3.500059 5.1497284,4.0570141 5.1752771,4.3766926 5.2577181,4.5291289 5.4418658,4.8236505 5.615,4.8312589 c 0.495,0.041 0.3703919,0.2777218 0.4003919,0.345722 0.025,0.055 -0.00827,0.1790933 -0.068273,0.2610933 C 5.8943794,5.5035451 5.818148,5.6746017 5.7476653,5.720428 5.6170381,5.8814153 5.5000381,5.872875 5.3790381,5.923875 4.9953721,6.0966096 4.8793541,6.0259618 4.616,6.18 4.268,6.614 4.632,7.207 5.349,7.367 5.521,7.412 5.676,7.4 5.955,7.321 6.235,7.242 6.366,7.235 6.522,7.235 c 0.152,0 0.221,0.012 0.349,0.06 C 7.022,7.352 7.203,7.49 7.255,7.59 7.295,7.669 7.275,7.686 7.205,7.727 7.172,7.747 7.153,7.747 7,7.73 6.897,7.719 6.71,7.754 6.331,7.942 6.077,8.068 5.869,8.112 5.651,8.112 5.415,8.114 5.168,8.132 4.837,8.084 4.962,8.745 5.883,8.964 6.569,8.961 6.83975,8.95975 7.7037149,8.9029097 7.8398427,8.5762649 7.9162087,8.393021 7.826638,8.2270374 7.8641509,8.0544274 7.8956847,7.9093292 7.9098681,7.8212716 8.1008737,7.6615947 8.5598946,7.2778624 8.2537584,7.4131718 8.5605181,7.6371715 8.8635527,7.8107391 8.0812498,7.4883257 7.6929916,7.3223717 7.2425137,7.129823 6.808244,6.6393544 7.0905805,6.5146957 7.295716,6.4241231 7.3536063,6.4781119 7.6980311,6.6377964 8.0818295,6.8157355 8.3687136,6.9537815 8.5583188,7.0154196 9.0266133,7.3207616 7.9423834,5.6379402 7.6718263,5.1882669 7.4346961,4.9041258 7.3666085,4.4978979 7.294,4.135 7.2678648,3.9236925 7.2695458,3.7098705 7.299,3.499 7.3288635,3.340546 7.3723585,3.1849677 7.429,3.034 7.556,2.713 7.678,2.414 7.892,2.148 L 7.92,2.114 Z"
     id="path4"
     style="opacity:0.75;fill:#007caa;fill-opacity:1"
     inkscape:connector-curvature="0"
     sodipodi:nodetypes="ccccscccssscsccccccccccccccccccccccccccccccccsccccccccssscssscccccccc" />
</svg>
