<svg xmlns="http://www.w3.org/2000/svg" width="48" height="48" viewBox="0 0 12.7 12.7">
  <path fill="#1a1a1a" d="M6.34431561.07286377a6.28928043 6.28928043 0 0 0-6.2895386 6.2895385 6.28928043 6.28928043 0 0 0 6.2895386 6.28902166 6.28928043 6.28928043 0 0 0 6.28902167-6.28902167A6.28928043 6.28928043 0 0 0 6.3443156.07286376zm-.01808691.93637693a5.40704372 5.40704372 0 0 1 5.40690507 5.40690505 5.40704372 5.40704372 0 0 1-5.40690507 5.40690508A5.40704372 5.40704372 0 0 1 .91880694 6.41614575 5.40704372 5.40704372 0 0 1 6.3262287 1.0092407zm0 2.9104166a2.49669212 2.49669212 0 0 0-2.49700518 2.49648845A2.49669212 2.49669212 0 0 0 6.3262287 8.9126342a2.49669212 2.49669212 0 0 0 2.49648844-2.49648845A2.49669212 2.49669212 0 0 0 6.3262287 3.91965731zm-1.05833332.52916667a.90922783.90922783 0 0 1 .90898846.90898846.90922783.90922783 0 0 1-.90898846.90898847.90922783.90922783 0 0 1-.9095052-.90898847.90922783.90922783 0 0 1 .9095052-.90898846z"/>
</svg>
