<svg xmlns="http://www.w3.org/2000/svg" width="48" height="48" viewBox="0 0 12.7 12.7"><path fill="#1a1a1a" d="M6.34.07a6.29 6.29 0 0 0-6.29 6.3 6.29 6.29 0 0 0 6.3 6.28 6.29 6.29 0 0 0 6.28-6.29A6.29 6.29 0 0 0 6.34.07zm-.01.94a5.4 5.4 0 0 1 5.4 5.4 5.4 5.4 0 0 1-5.4 5.41 5.4 5.4 0 0 1-5.41-5.4A5.4 5.4 0 0 1 6.32 1zm.02.76c-.84 0-1.53.68-1.53 1.53v3.63a2.29 2.29 0 1 0 3.06 0V3.3c0-.85-.69-1.53-1.53-1.53zm-.38 3.05h.76v2.74a1.15 1.15 0 0 1 .77 1.08 1.15 1.15 0 0 1-1.15 1.14 1.15 1.15 0 0 1-1.14-1.14 1.15 1.15 0 0 1 .76-1.08V4.82z"/><path fill="#ff2a2a" d="M5.97 4.82v2.74a1.15 1.15 0 0 0-.76 1.08 1.15 1.15 0 0 0 1.14 1.14A1.15 1.15 0 0 0 7.5 8.64a1.15 1.15 0 0 0-.77-1.08V4.82z" opacity=".75"/></svg>