<?xml version="1.0" encoding="UTF-8" standalone="no"?>
<!-- Created with Inkscape (http://www.inkscape.org/) -->

<svg
   xmlns:dc="http://purl.org/dc/elements/1.1/"
   xmlns:cc="http://creativecommons.org/ns#"
   xmlns:rdf="http://www.w3.org/1999/02/22-rdf-syntax-ns#"
   xmlns:svg="http://www.w3.org/2000/svg"
   xmlns="http://www.w3.org/2000/svg"
   xmlns:sodipodi="http://sodipodi.sourceforge.net/DTD/sodipodi-0.dtd"
   xmlns:inkscape="http://www.inkscape.org/namespaces/inkscape"
   width="48"
   height="48"
   viewBox="0 0 12.7 12.7"
   version="1.1"
   id="svg829"
   inkscape:version="0.92.3 (2405546, 2018-03-11)"
   sodipodi:docname="inkscape.svg">
  <defs
     id="defs823" />
  <sodipodi:namedview
     id="base"
     pagecolor="#ffffff"
     bordercolor="#666666"
     borderopacity="1.0"
     inkscape:pageopacity="0.0"
     inkscape:pageshadow="2"
     inkscape:zoom="3.9627443"
     inkscape:cx="24"
     inkscape:cy="24"
     inkscape:document-units="mm"
     inkscape:current-layer="layer1"
     showgrid="false"
     showguides="true"
     inkscape:guide-bbox="true"
     inkscape:window-width="1366"
     inkscape:window-height="719"
     inkscape:window-x="0"
     inkscape:window-y="25"
     inkscape:window-maximized="1"
     scale-x="1.9"
     units="px"
     inkscape:snap-global="false" />
  <metadata
     id="metadata826">
    <rdf:RDF>
      <cc:Work
         rdf:about="">
        <dc:format>image/svg+xml</dc:format>
        <dc:type
           rdf:resource="http://purl.org/dc/dcmitype/StillImage" />
        <dc:title></dc:title>
      </cc:Work>
    </rdf:RDF>
  </metadata>
  <g
     inkscape:label="Capa 1"
     inkscape:groupmode="layer"
     id="layer1"
     transform="translate(0,-284.3)">
    <path
       style="fill:#1a1a1a;fill-opacity:1;stroke-width:0.52516764"
       d="M 23.978516 0.27539062 A 23.770509 23.770509 0 0 0 0.20703125 24.046875 A 23.770509 23.770509 0 0 0 23.978516 47.816406 A 23.770509 23.770509 0 0 0 47.748047 24.046875 A 23.770509 23.770509 0 0 0 23.978516 0.27539062 z M 23.910156 3.8144531 A 20.436071 20.436071 0 0 1 44.345703 24.25 A 20.436071 20.436071 0 0 1 23.910156 44.685547 A 20.436071 20.436071 0 0 1 3.4726562 24.25 A 20.436071 20.436071 0 0 1 23.910156 3.8144531 z M 23.910156 5.5996094 C 22.578161 5.5996094 21.244361 6.2400111 20.220703 7.5253906 C 20.220703 7.5253906 7.1884625 23.973212 7.1289062 24.046875 C 7.0939708 24.090172 7.0649889 24.136811 7.0332031 24.181641 C 7.0145236 24.207976 6.9943043 24.232739 6.9765625 24.259766 C 6.9635802 24.279569 6.9479691 24.298246 6.9355469 24.318359 C 6.891899 24.388756 6.8626038 24.464018 6.8261719 24.537109 C 6.795564 24.598345 6.7603277 24.65691 6.734375 24.720703 C 6.6918498 24.825621 6.6634191 24.934335 6.6347656 25.042969 C 6.6194324 25.100633 6.5994118 25.155723 6.5878906 25.214844 C 6.5862063 25.223519 6.5816775 25.231543 6.5800781 25.240234 C 6.5500687 25.401998 6.5350013 25.567042 6.5351562 25.730469 C 6.5351562 25.951793 6.5705865 26.1634 6.6210938 26.369141 C 6.6325887 26.415578 6.6481052 26.459962 6.6621094 26.505859 C 6.7132066 26.674263 6.7798123 26.83373 6.8613281 26.986328 C 6.8760552 27.013982 6.8807395 27.045022 6.8964844 27.072266 L 6.9082031 27.072266 C 7.3732227 27.871026 8.2279474 28.414062 9.21875 28.414062 L 15.929688 28.414062 C 16.670839 28.414062 17.271484 29.014732 17.271484 29.755859 C 17.271484 30.497063 16.670839 31.097656 15.929688 31.097656 C 15.188536 31.097656 14.587891 31.698288 14.587891 32.439453 C 14.587891 33.180543 15.188536 33.78125 15.929688 33.78125 L 21.298828 33.78125 C 22.03998 33.78125 22.640625 34.383872 22.640625 35.125 C 22.640625 35.866165 22.03998 36.466797 21.298828 36.466797 C 19.816521 36.466797 18.613281 37.66806 18.613281 39.150391 C 18.613281 40.632684 19.816521 41.833984 21.298828 41.833984 L 28.007812 41.833984 C 28.748964 41.833984 29.349609 41.233353 29.349609 40.492188 C 29.349609 39.751022 28.748964 39.150391 28.007812 39.150391 C 27.266657 39.150391 26.666016 38.549721 26.666016 37.808594 C 26.666016 37.067428 27.266657 36.466797 28.007812 36.466797 L 32.035156 36.466797 C 32.776307 36.466797 33.376953 35.866165 33.376953 35.125 C 33.376953 34.383872 32.776307 33.78125 32.035156 33.78125 C 31.294004 33.78125 30.693359 33.180543 30.693359 32.439453 C 30.693359 31.698288 31.294004 31.097656 32.035156 31.097656 L 37.402344 31.097656 C 39.625797 31.097656 41.429688 29.295875 41.429688 27.072266 C 41.429688 26.824671 41.401156 26.578054 41.355469 26.333984 C 41.348205 26.29485 41.342371 26.255525 41.333984 26.216797 C 41.286485 25.998981 41.218628 25.785223 41.134766 25.576172 C 41.113537 25.523246 41.091743 25.471709 41.068359 25.419922 C 41.041719 25.360838 41.019841 25.300199 40.990234 25.242188 C 40.946754 25.15684 40.887569 25.078721 40.837891 24.996094 C 40.788417 24.914414 40.742482 24.831651 40.6875 24.753906 C 40.667395 24.725413 40.653805 24.694099 40.632812 24.666016 C 40.517877 24.512189 27.648437 7.6015625 27.648438 7.6015625 C 26.630135 6.2672759 25.27067 5.5996094 23.910156 5.5996094 z M 23.818359 7.1757812 L 23.818359 7.1777344 C 24.070511 7.1753533 24.321822 7.3088915 24.515625 7.5507812 L 29.789062 14.140625 L 32.042969 16.955078 C 32.743613 17.830341 31.590792 18.073591 31.177734 18.150391 C 29.768415 18.411934 28.914556 15.368297 27.492188 15.304688 C 25.546669 15.21738 23.738028 18.845091 22.265625 18.738281 C 20.932759 18.641525 21.050409 15.1684 19.882812 15.316406 C 18.985434 15.430548 19.632062 17.958984 18.464844 18.357422 C 17.995954 18.48706 14.434112 18.015551 15.671875 16.826172 C 15.72706 16.755495 15.784162 16.684588 15.84375 16.609375 C 16.440609 15.858118 17.239209 14.912442 17.857422 14.140625 L 23.130859 7.5507812 C 23.321608 7.312671 23.570176 7.1784269 23.818359 7.1757812 z M 21.298828 28.414062 L 25.324219 28.414062 C 26.065375 28.414062 26.666016 29.014732 26.666016 29.755859 C 26.666016 30.497063 26.065375 31.097656 25.324219 31.097656 L 21.298828 31.097656 C 20.557673 31.097656 19.955078 30.497063 19.955078 29.755859 C 19.955078 29.014732 20.557673 28.414062 21.298828 28.414062 z M 37.402344 33.78125 A 1.3420608 1.3420608 0 0 0 36.060547 35.125 A 1.3420608 1.3420608 0 0 0 37.402344 36.466797 A 1.3420608 1.3420608 0 0 0 38.744141 35.125 A 1.3420608 1.3420608 0 0 0 37.402344 33.78125 z M 15.929688 37.136719 A 0.6710304 0.6710304 0 0 0 15.257812 37.808594 A 0.6710304 0.6710304 0 0 0 15.929688 38.478516 A 0.6710304 0.6710304 0 0 0 16.601562 37.808594 A 0.6710304 0.6710304 0 0 0 15.929688 37.136719 z M 34.71875 37.136719 A 0.6710304 0.6710304 0 0 0 34.046875 37.808594 A 0.6710304 0.6710304 0 0 0 34.71875 38.478516 A 0.6710304 0.6710304 0 0 0 35.390625 37.808594 A 0.6710304 0.6710304 0 0 0 34.71875 37.136719 z "
       transform="matrix(0.26458333,0,0,0.26458333,0,284.3)"
       id="path822" />
  </g>
</svg>
