<svg xmlns="http://www.w3.org/2000/svg" width="48" height="48" viewBox="0 0 12.7 12.7">
  <path fill="#1a1a1a" d="M6.34431561.07286377a6.28928043 6.28928043 0 0 0-6.2895386 6.2895385 6.28928043 6.28928043 0 0 0 6.2895386 6.28902166 6.28928043 6.28928043 0 0 0 6.28902167-6.28902167A6.28928043 6.28928043 0 0 0 6.3443156.07286376zm-.01808691.93637693a5.40704372 5.40704372 0 0 1 5.40690507 5.40690505 5.40704372 5.40704372 0 0 1-5.40690507 5.40690508A5.40704372 5.40704372 0 0 1 .91880694 6.41614575 5.40704372 5.40704372 0 0 1 6.3262287 1.0092407zm-.79736738.97513428c-.45350694 0-2.82825107 2.60416698-2.82825107 2.85925706v4.8136595H9.9993896l-.01188561-4.79040527c-.00067363-.27052005-2.33900528-2.8825113-2.77037347-2.8825113H5.52886132zm3.22099195 2.38124997l.59427903 1.24695239-1.48104646 1.98695863H7.7907387l2.05000408 1.89962576-2.34300921-1.8985923-2.04018566.00568458-2.61999515 1.9192626 2.20916762-1.83296293-2.23242185-2.81016442-.00258392-.00413411h.00051673l.0020672.00413411 1.48156319 1.6050699-.56378977-.68729647 5.01778131-1.43453775z"/>
</svg>
