<svg xmlns="http://www.w3.org/2000/svg" width="48" height="48" viewBox="0 0 12.7 12.7">
  <path fill="#1a1a1a" d="M6.34431561.07286377a6.28928043 6.28928043 0 0 0-6.2895386 6.2895385 6.28928043 6.28928043 0 0 0 6.2895386 6.28902166 6.28928043 6.28928043 0 0 0 6.28902167-6.28902167A6.28928043 6.28928043 0 0 0 6.3443156.07286376zm-.01808691.93637693a5.40704372 5.40704372 0 0 1 4.64571127 2.65358477l-2.02209874-.8650634L6.62698559 6.7200033 4.5883504 4.62607416 2.83290193 8.384501 1.13481444 4.91856283A5.40704372 5.40704372 0 0 1 6.3262287 1.0092407zm2.83186845 2.47995196l2.15904151.85886236a5.40704372 5.40704372 0 0 1 .41599511 2.06809073 5.40704372 5.40704372 0 0 1-5.40690507 5.40690508A5.40704372 5.40704372 0 0 1 .91880694 6.41614575 5.40704372 5.40704372 0 0 1 .9399943 5.9908487l1.86551927 3.91138907L4.7712849 5.7329834l2.00246163 2.04793689 2.38435062-4.29172762z"/>
</svg>
