<svg xmlns="http://www.w3.org/2000/svg" xmlns:xlink="http://www.w3.org/1999/xlink" width="48" height="48" viewBox="0 0 12.7 12.7">
  <defs>
    <radialGradient id="b" cx="22.5" cy="28.116049" r="14.537862" fx="22.5" fy="28.116049" gradientTransform="matrix(.34637 0 0 .3467 -3.6996796 281.79869)" gradientUnits="userSpaceOnUse" xlink:href="#a"/>
    <linearGradient id="a">
      <stop offset="0" stop-color="#ef2929"/>
      <stop offset="1" stop-color="#c00"/>
    </linearGradient>
  </defs>
  <g transform="translate(0 -284.3)">
    <path fill="#1a1a1a" d="M6.34431561 284.37286377a6.28928043 6.28928043 0 0 0-6.2895386 6.2895385 6.28928043 6.28928043 0 0 0 6.2895386 6.28902166 6.28928043 6.28928043 0 0 0 6.28902167-6.28902167 6.28928043 6.28928043 0 0 0-6.28902167-6.2895385zm-.01808691.93637693a5.40704372 5.40704372 0 0 1 5.40690507 5.40690505 5.40704372 5.40704372 0 0 1-5.40690507 5.40690508 5.40704372 5.40704372 0 0 1-5.40742176-5.40690508 5.40704372 5.40704372 0 0 1 5.40742176-5.40690505zm.59996333 3.58272708v3.72948804l3.73000504-1.86448565-3.73000504-1.86500239z"/>
    <ellipse cx="4.0937262" cy="290.64999" fill="url(#b)" fill-rule="evenodd" opacity=".75" overflow="visible" rx="2.0499253" ry="2.045995" style="marker:none"/>
  </g>
</svg>
