<svg xmlns="http://www.w3.org/2000/svg" width="48" height="48" viewBox="0 0 12.7 12.7">
  <path fill="#1a1a1a" d="M6.34431561.07286377a6.28928043 6.28928043 0 0 0-6.2895386 6.2895385 6.28928043 6.28928043 0 0 0 6.2895386 6.28902166 6.28928043 6.28928043 0 0 0 6.28902167-6.28902167A6.28928043 6.28928043 0 0 0 6.3443156.07286376zm-.01808691.93637693a5.40704372 5.40704372 0 0 1 5.40690507 5.40690505 5.40704372 5.40704372 0 0 1-5.40690507 5.40690508A5.40704372 5.40704372 0 0 1 .91880694 6.41614575 5.40704372 5.40704372 0 0 1 6.3262287 1.0092407zm-1.29759524.4966105a5.02205883 5.02205883 0 0 0-3.70106594 4.84466545 5.02205883 5.02205883 0 0 0 5.02294913 5.0219157 5.02205883 5.02205883 0 0 0 5.0219157-5.0219157 5.02205883 5.02205883 0 0 0-3.65300706-4.8276122v5.99549969l1.99315994-.02997253-3.36206858 3.88245028L3.00550126 7.4884316l2.0231322.02997253V1.5058512z"/>
</svg>
