<svg xmlns="http://www.w3.org/2000/svg" width="48" height="48" viewBox="0 0 12.7 12.7">
  <path fill="#d45500" fill-rule="evenodd" d="M3.0071504 2.7514l-.033267.66225c.7518129 1.23444 1.7137727 2.82253 2.7289515 4.51448L4.1278403 3.01604c-.3422662-.0701-.7847541-.18065-1.1206899-.26464zm2.695686 5.17673l2.0506123-4.77957c-.3835493.0548-.8081963.10672-1.2397239.11698-.229052 1.33572-.5069343 2.95388-.8108884 4.66262zm0 0l3.9764724-1.27871V5.51885C8.535266 6.21454 7.1603524 7.0536 5.7028364 7.92813zm0 0l3.5164491 1.50483c.1520978-.25685.2731256-.53163.3508652-.82648-1.1622804-.20047-2.4869779-.4328-3.8673143-.67835zm0 0l1.0058137 3.12659c.2663907-.0302.528207-.0913.7719034-.17933-.5485235-.90491-1.1529498-1.90598-1.7777171-2.94726zm0 0l-1.1383626 2.65098c.1961871.12015.4033534.22548.6237605.30408.1605368-.92455.3311676-1.92386.5146021-2.95506zm0 0l-2.5730113.82648c.063602.20163.1420857.39393.2417069.57698.7353583-.44487 1.5213932-.91751 2.3313044-1.40346zm0 0L2.9738849 6.75855v.68617c.8615185.14984 1.7801618.31464 2.7289515.48341z" opacity=".751"/>
  <path fill="#1a1a1a" d="M6.3443159.07286A6.2892804 6.2892804 0 0 0 .05477737 6.3624a6.2892804 6.2892804 0 0 0 6.28953853 6.28902A6.2892804 6.2892804 0 0 0 12.633337 6.3624 6.2892804 6.2892804 0 0 0 6.3443159.07286zm-.018087.93638a5.4070437 5.4070437 0 0 1 5.4069051 5.40691 5.4070437 5.4070437 0 0 1-5.4069051 5.4069 5.4070437 5.4070437 0 0 1-5.40742183-5.4069A5.4070437 5.4070437 0 0 1 6.3262289 1.00924zm3.233911 1.40715s-1.6308522.50074-3.2473468.50074c-1.6164942 0-3.2184083-.48059-3.2184083-.48059-.252525 0-.4547526.10152-.4547526.35295v5.0059c0 2.00954 1.6515849 3.6406 3.6865967 3.6406 2.0350117 0 3.6865961-1.63106 3.6865961-3.6406v-5.0059c0-.25156-.2001594-.3731-.4526851-.3731zm-.6914306.96273c.1985902 0 .3570843.0959.3570843.29404v3.93671c0 1.58033-1.2992015 2.86339-2.8995647 2.86339-1.6003628 0-2.8990478-1.28306-2.8990478-2.86339V3.67316c0-.19785.1579785-.2775.3565673-.2775 0 0 1.2609107.37724 2.5321453.37724 1.2712348 0 2.5528156-.39378 2.5528156-.39378zm-.1467609.32401l-1.3115481.27596v4.05763c-8e-7.2609-.070568.45878-.2113565.59324-.1385203.13446-.3440002.20206-.6164998.20206h-.2041218v.8754h.2656167c.6971433 0 1.2166981-.13801 1.5595947-.41496.345164-.27692.5183124-.69583.5183148-1.25574z"/>
</svg>
