<svg xmlns="http://www.w3.org/2000/svg" width="48" height="48" viewBox="0 0 12.7 12.7">
  <path fill="#1a1a1a" d="M6.34431561.07286377a6.28928043 6.28928043 0 0 0-6.2895386 6.2895385 6.28928043 6.28928043 0 0 0 6.2895386 6.28902166 6.28928043 6.28928043 0 0 0 6.28902167-6.28902167A6.28928043 6.28928043 0 0 0 6.3443156.07286376zm-.01808691.93637693a5.40704372 5.40704372 0 0 1 5.40690507 5.40690505 5.40704372 5.40704372 0 0 1-5.40690507 5.40690508A5.40704372 5.40704372 0 0 1 .91880694 6.41614575 5.40704372 5.40704372 0 0 1 6.3262287 1.0092407zM3.24011233 3.00343407c-.32755178 0-.59117838.15848648-.59117838.35501712 0 .19653091.2636266.35450039.59117838.35450039h2.1755777c.32755152 0 .59117838-.15796948.59117838-.35450039 0-.19653064-.26362686-.35501712-.59117837-.35501712H3.24011233zm6.62130102 1.24488547c-.0970309 0-.19404991.03679746-.26768372.11058737l-.572575.5705078 1.25056979 1.24746913.57154126-.56947434c.14776-.14759993.14776-.38723411 0-.53433424l-.71416835-.71416835c-.07379996-.07379996-.17081394-.11058737-.26768398-.11058737zm-6.62130102.34261451c-.32755178 0-.59117838.15848648-.59117838.35501712 0 .19653091.2636266.35450039.59117838.35450039h2.1755777c.32755152 0 .59117838-.15796948.59117838-.35450039 0-.19653064-.26362686-.35501712-.59117837-.35501712H3.24011233zm5.51439205.60513118l-3.4437174 3.4375161 1.24953605 1.24746913 3.4437174-3.43648264-1.24953605-1.24850259zm-5.51439205.9823688c-.32755178 0-.59117838.15848648-.59117838.35501712 0 .19653091.2636266.35450039.59117838.35450039h2.1755777c.32755152 0 .59117838-.15796948.59117838-.35450039 0-.19653064-.26362686-.35501712-.59117837-.35501712H3.24011233zm1.80092348 2.72179782l-.26768372 1.51411939 1.51722003-.2656168-1.24953631-1.24850259z"/>
</svg>
