<?xml version="1.0" encoding="UTF-8" standalone="no"?>
<!-- Created with Inkscape (http://www.inkscape.org/) -->

<svg
   xmlns:dc="http://purl.org/dc/elements/1.1/"
   xmlns:cc="http://creativecommons.org/ns#"
   xmlns:rdf="http://www.w3.org/1999/02/22-rdf-syntax-ns#"
   xmlns:svg="http://www.w3.org/2000/svg"
   xmlns="http://www.w3.org/2000/svg"
   xmlns:sodipodi="http://sodipodi.sourceforge.net/DTD/sodipodi-0.dtd"
   xmlns:inkscape="http://www.inkscape.org/namespaces/inkscape"
   width="48"
   height="48"
   viewBox="0 0 12.7 12.7"
   version="1.1"
   id="svg829"
   inkscape:version="0.92.3 (2405546, 2018-03-11)"
   sodipodi:docname="libreoffice-draw.svg">
  <defs
     id="defs823" />
  <sodipodi:namedview
     id="base"
     pagecolor="#ffffff"
     bordercolor="#666666"
     borderopacity="1.0"
     inkscape:pageopacity="0.0"
     inkscape:pageshadow="2"
     inkscape:zoom="3.9553786"
     inkscape:cx="24"
     inkscape:cy="24"
     inkscape:document-units="mm"
     inkscape:current-layer="layer1"
     showgrid="false"
     showguides="true"
     inkscape:guide-bbox="true"
     inkscape:window-width="1366"
     inkscape:window-height="714"
     inkscape:window-x="0"
     inkscape:window-y="25"
     inkscape:window-maximized="1"
     scale-x="1.9"
     units="px"
     inkscape:snap-global="false" />
  <metadata
     id="metadata826">
    <rdf:RDF>
      <cc:Work
         rdf:about="">
        <dc:format>image/svg+xml</dc:format>
        <dc:type
           rdf:resource="http://purl.org/dc/dcmitype/StillImage" />
        <dc:title></dc:title>
      </cc:Work>
    </rdf:RDF>
  </metadata>
  <g
     inkscape:label="Capa 1"
     inkscape:groupmode="layer"
     id="layer1"
     transform="translate(0,-284.3)">
    <path
       style="fill:#1a1a1a;fill-opacity:1;stroke-width:0.52516764"
       d="M 23.978516 0.27539062 A 23.770509 23.770509 0 0 0 0.20703125 24.046875 A 23.770509 23.770509 0 0 0 23.978516 47.816406 A 23.770509 23.770509 0 0 0 47.748047 24.046875 A 23.770509 23.770509 0 0 0 23.978516 0.27539062 z M 23.910156 3.8144531 A 20.436071 20.436071 0 0 1 44.345703 24.25 A 20.436071 20.436071 0 0 1 23.910156 44.685547 A 20.436071 20.436071 0 0 1 3.4726562 24.25 A 20.436071 20.436071 0 0 1 23.910156 3.8144531 z "
       transform="matrix(0.26458333,0,0,0.26458333,0,284.3)"
       id="path820" />
    <path
       id="path2879"
       d="m 2.7781251,292.89896 c 3.5718752,0.13229 3.8364582,-4.36563 7.1437502,-4.23333"
       style="fill:none;stroke:#1a1a1a;stroke-width:0.26458332px"
       inkscape:connector-curvature="0" />
    <circle
       id="circle3164"
       cx="6.4822917"
       cy="287.34271"
       r="0.66145831"
       style="stroke-width:0.13229166;stroke:#1a1a1a;fill:#1a1a1a" />
    <circle
       id="circle3168"
       cx="6.4822917"
       cy="293.95731"
       r="0.66145831"
       style="stroke-width:0.13229166;stroke:#1a1a1a;fill:#1a1a1a" />
    <g
       id="g3174"
       transform="matrix(0.13229167,0,0,0.09338204,-3.3072916,283.59973)"
       style="stroke:#1a1a1a;fill:#1a1a1a">
      <rect
         id="rect3176"
         x="73"
         y="43"
         width="2"
         height="66"
         style="stroke:#1a1a1a;fill:#1a1a1a" />
    </g>
    <path
       id="path3178"
       d="m 6.0854168,290.78229 c 0,0.21878 0.1780963,0.39688 0.396875,0.39688 0.218776,0 0.396875,-0.1781 0.396875,-0.39688 0,-0.21878 -0.1780964,-0.39687 -0.396875,-0.39687 -0.2187787,0 -0.396875,0.17809 -0.396875,0.39687 z"
       inkscape:connector-curvature="0"
       style="stroke-width:0.26458332;stroke:#1a1a1a;fill:#1a1a1a" />
    <rect
       id="rect3186"
       x="2.3812501"
       y="292.25311"
       width="1.0583333"
       height="1.0583333"
       style="stroke-width:0.26458332;stroke:#1a1a1a;fill:#1a1a1a" />
    <rect
       id="rect3653"
       x="9.260417"
       y="288.01978"
       width="1.0583333"
       height="1.0583333"
       style="stroke-width:0.26458332;stroke:#1a1a1a;fill:#1a1a1a" />
  </g>
</svg>
