<svg xmlns="http://www.w3.org/2000/svg" width="48" height="48" viewBox="0 0 12.7 12.7">
  <g transform="translate(0 -284.3)">
    <path fill="#1a1a1a" d="M6.34431561 284.37286377a6.28928043 6.28928043 0 0 0-6.2895386 6.2895385 6.28928043 6.28928043 0 0 0 6.2895386 6.28902166 6.28928043 6.28928043 0 0 0 6.28902167-6.28902167 6.28928043 6.28928043 0 0 0-6.28902167-6.2895385zm-.01808691.93637693a5.40704372 5.40704372 0 0 1 5.40690507 5.40690505 5.40704372 5.40704372 0 0 1-5.40690507 5.40690508 5.40704372 5.40704372 0 0 1-5.40742176-5.40690508 5.40704372 5.40704372 0 0 1 5.40742176-5.40690505z"/>
    <path fill="none" stroke="#1a1a1a" stroke-width=".26458332" d="M2.7781251 292.89896c3.5718752.13229 3.8364582-4.36563 7.1437502-4.23333"/>
    <circle cx="6.4822917" cy="287.34271" r=".66145831" fill="#1a1a1a" stroke="#1a1a1a" stroke-width=".13229166"/>
    <circle cx="6.4822917" cy="293.95731" r=".66145831" fill="#1a1a1a" stroke="#1a1a1a" stroke-width=".13229166"/>
    <path fill="#1a1a1a" stroke="#1a1a1a" d="M73 43h2v66h-2z" transform="matrix(.1323 0 0 .09338 -3.3072916 283.59973)"/>
    <path fill="#1a1a1a" stroke="#1a1a1a" stroke-width=".26458332" d="M6.0854168 290.78229c0 .21878.1780963.39688.396875.39688.218776 0 .396875-.1781.396875-.39688s-.1780964-.39687-.396875-.39687c-.2187787 0-.396875.17809-.396875.39687zM2.3812501 292.25311h1.0583333v1.0583333H2.3812501zM9.260417 288.01978h1.0583333v1.0583333H9.260417z"/>
  </g>
</svg>
