<svg xmlns="http://www.w3.org/2000/svg" width="48" height="48" viewBox="0 0 12.7 12.7">
  <path fill="#1a1a1a" d="M6.34431561.07286377a6.28928043 6.28928043 0 0 0-6.2895386 6.2895385 6.28928043 6.28928043 0 0 0 6.2895386 6.28902166 6.28928043 6.28928043 0 0 0 6.28902167-6.28902167A6.28928043 6.28928043 0 0 0 6.3443156.07286376zm-.01808691.93637693a5.40704372 5.40704372 0 0 1 5.40690507 5.40690505 5.40704372 5.40704372 0 0 1-5.40690507 5.40690508A5.40704372 5.40704372 0 0 1 .91880694 6.41614575 5.40704372 5.40704372 0 0 1 6.3262287 1.0092407zM2.2753133 3.18068427v6.3386313h8.14937335v-6.3386313H2.2753133zm.90537097.90588781h2.71611325v.90537135H3.18068427v-.90537135zm3.62200132 0h2.71662998v.90537135H6.8026856v-.90537135zM3.18068427 5.89679752h2.71611325v.90588807H3.18068427v-.90588807zm3.62200132 0h2.71662998v.90588807H6.8026856v-.90588807zm-3.62200132 1.8112589h2.71611325v.90537134H3.18068427V7.7080564zm3.62200132 0h2.71662998v.90537134H6.8026856V7.7080564z"/>
</svg>
