<svg xmlns="http://www.w3.org/2000/svg" width="48" height="48" viewBox="0 0 12.7 12.7">
  <path fill="#1a1a1a" d="M6.34431561.07286377a6.28928043 6.28928043 0 0 0-6.2895386 6.2895385 6.28928043 6.28928043 0 0 0 6.2895386 6.28902166 6.28928043 6.28928043 0 0 0 6.28902167-6.28902167A6.28928043 6.28928043 0 0 0 6.3443156.07286376zm-.01808691.93637693a5.40704372 5.40704372 0 0 1 5.40690507 5.40690505 5.40704372 5.40704372 0 0 1-5.40690507 5.40690508A5.40704372 5.40704372 0 0 1 .91880694 6.41614575 5.40704372 5.40704372 0 0 1 6.3262287 1.0092407zM2.29495032 3.62200106c-.06146358 0-.11110433.04908762-.11110433.11058763 0 .0614799.04964133.11110436.11110433.11110436H7.6755005c.06146139 0 .11110436-.04960435.11110436-.11110436 0-.06152012-.04964139-.11058763-.11110436-.11058763H2.29495032zm6.35155035.3157429v2.3895182h2.39003493c0-1.59315995-.79686969-2.3895182-2.39003493-2.3895182zm-.81080344.71210143a2.48236626 2.47427668 0 0 0-2.46806637 2.48356937A2.48236626 2.47427668 0 0 0 7.8548176 9.59838048a2.48236626 2.47427668 0 0 0 2.47736807-2.47426768H7.84965003l-.0139528-2.47426741zm-5.5407469.09766829c-.06146359 0-.11110434.04908761-.11110434.11058763 0 .0614799.04964133.11110436.11110433.11110436h3.57807624c.0614619 0 .11007063-.04960435.11007063-.11110436 0-.06150002-.04860766-.11058763-.11007063-.11058763H2.29495032zm0 1.1260296c-.06146359 0-.11110434.04908762-.11110434.11058764 0 .06135978.04964133.11058736.11110433.11058736H4.9852254c.0614635 0 .11110436-.04908761.11110436-.11058736 0-.06152013-.04964138-.11058763-.11110436-.11058763H2.29495032zm0 1.12551262c-.06146359 0-.11110434.04908762-.11110434.11058763 0 .0614799.04964133.11110436.11110433.11110436H4.8462157c.06146377 0 .11110436-.04960434.11110436-.11110436 0-.06152012-.04964138-.11058763-.11110436-.11058763H2.29495032z"/>
</svg>
