<svg xmlns="http://www.w3.org/2000/svg" width="48" height="48" viewBox="0 0 12.7 12.7"><path d="M6.344.073a6.29 6.29 0 0 0-6.29 6.29 6.29 6.29 0 0 0 6.29 6.288 6.29 6.29 0 0 0 6.29-6.289 6.29 6.29 0 0 0-6.29-6.29zm-.018.936a5.407 5.407 0 0 1 5.407 5.407 5.407 5.407 0 0 1-5.407 5.407A5.407 5.407 0 0 1 .92 6.416 5.407 5.407 0 0 1 6.326 1.01zM8.31 2.358l-.353.707A3.153 3.153 0 0 1 9.7 5.882a3.153 3.153 0 0 1-1.743 2.82l.35.701a3.941 3.941 0 0 0 2.181-3.52A3.941 3.941 0 0 0 8.31 2.357zm-3.917.003a3.941 3.941 0 0 0-2.18 3.521A3.941 3.941 0 0 0 4.39 9.406l.353-.706A3.153 3.153 0 0 1 3 5.882a3.153 3.153 0 0 1 1.743-2.819l-.35-.702zm3.212 1.407l-.353.706a1.577 1.577 0 0 1 .873 1.408 1.577 1.577 0 0 1-.872 1.41l.351.702a2.365 2.365 0 0 0 1.309-2.112 2.365 2.365 0 0 0-1.308-2.114zm-2.507.002a2.365 2.365 0 0 0-1.31 2.112 2.365 2.365 0 0 0 1.309 2.115l.352-.706a1.577 1.577 0 0 1-.872-1.409 1.577 1.577 0 0 1 .872-1.41l-.351-.702zM6.35 4.897a.985.985 0 0 0-.985.985.985.985 0 0 0 .59.903v4.582a3.941 5.43 0 0 0 .395.033 3.941 5.43 0 0 0 .394-.027V6.785h-.001a.985.985 0 0 0 .592-.903.985.985 0 0 0-.985-.985zm48.1 52.314c-.7 0-1.262.563-1.262 1.263s.563 1.263 1.262 1.263h2.916v4.55h2.622v-4.55h2.679c.7 0 1.263-.564 1.263-1.263 0-.7-.564-1.263-1.263-1.263zm2.916 7.075h-3.762c-.506 0-.987.4-1.08.898l-1.57 8.489c-.092.497.241.898.747.898h4.586v.032h4.54v-.032h4.597c.505 0 .839-.4.747-.898l-1.571-8.49a1.137 1.137 0 0 0-1.08-.897h-3.488l-.007 3.705 2.545.002-3.982 3.266-3.815-3.254 2.593.01z" fill="#1a1a1a"/></svg>