<?xml version="1.0" encoding="UTF-8" standalone="no"?>
<!-- Created with Inkscape (http://www.inkscape.org/) -->

<svg
   xmlns:dc="http://purl.org/dc/elements/1.1/"
   xmlns:cc="http://creativecommons.org/ns#"
   xmlns:rdf="http://www.w3.org/1999/02/22-rdf-syntax-ns#"
   xmlns:svg="http://www.w3.org/2000/svg"
   xmlns="http://www.w3.org/2000/svg"
   xmlns:sodipodi="http://sodipodi.sourceforge.net/DTD/sodipodi-0.dtd"
   xmlns:inkscape="http://www.inkscape.org/namespaces/inkscape"
   width="48"
   height="48"
   viewBox="0 0 12.7 12.7"
   version="1.1"
   id="svg829"
   inkscape:version="0.92.3 (2405546, 2018-03-11)"
   sodipodi:docname="linssid48.svg">
  <defs
     id="defs823" />
  <sodipodi:namedview
     id="base"
     pagecolor="#ffffff"
     bordercolor="#666666"
     borderopacity="1.0"
     inkscape:pageopacity="0.0"
     inkscape:pageshadow="2"
     inkscape:zoom="3.9627443"
     inkscape:cx="24"
     inkscape:cy="24"
     inkscape:document-units="mm"
     inkscape:current-layer="layer1"
     showgrid="false"
     showguides="true"
     inkscape:guide-bbox="true"
     inkscape:window-width="1366"
     inkscape:window-height="719"
     inkscape:window-x="0"
     inkscape:window-y="25"
     inkscape:window-maximized="1"
     scale-x="1.9"
     units="px"
     inkscape:snap-global="false" />
  <metadata
     id="metadata826">
    <rdf:RDF>
      <cc:Work
         rdf:about="">
        <dc:format>image/svg+xml</dc:format>
        <dc:type
           rdf:resource="http://purl.org/dc/dcmitype/StillImage" />
        <dc:title></dc:title>
      </cc:Work>
    </rdf:RDF>
  </metadata>
  <g
     inkscape:label="Capa 1"
     inkscape:groupmode="layer"
     id="layer1"
     transform="translate(0,-284.3)">
    <path
       style="fill:#1a1a1a;fill-opacity:1;stroke-width:0.52516764"
       d="M 23.978516 0.27539062 A 23.770509 23.770509 0 0 0 0.20703125 24.046875 A 23.770509 23.770509 0 0 0 23.978516 47.816406 A 23.770509 23.770509 0 0 0 47.748047 24.046875 A 23.770509 23.770509 0 0 0 23.978516 0.27539062 z M 23.910156 3.8144531 A 20.436071 20.436071 0 0 1 44.345703 24.25 A 20.436071 20.436071 0 0 1 23.910156 44.685547 A 20.436071 20.436071 0 0 1 3.4726562 24.25 A 20.436071 20.436071 0 0 1 23.910156 3.8144531 z M 31.404297 8.9121094 L 30.068359 11.583984 A 11.917027 11.917027 0 0 1 36.662109 22.232422 A 11.917027 11.917027 0 0 1 30.072266 32.886719 L 31.398438 35.539062 A 14.896283 14.896283 0 0 0 39.640625 22.232422 A 14.896283 14.896283 0 0 0 31.404297 8.9121094 z M 16.601562 8.9238281 A 14.896283 14.896283 0 0 0 8.359375 22.232422 A 14.896283 14.896283 0 0 0 16.595703 35.550781 L 17.929688 32.880859 A 11.917027 11.917027 0 0 1 11.337891 22.232422 A 11.917027 11.917027 0 0 1 17.927734 11.578125 L 16.601562 8.9238281 z M 28.738281 14.240234 L 27.40625 16.908203 A 5.9585133 5.9585133 0 0 1 30.703125 22.232422 A 5.9585133 5.9585133 0 0 1 27.410156 27.558594 L 28.736328 30.214844 A 8.9377701 8.9377701 0 0 0 33.681641 22.232422 A 8.9377701 8.9377701 0 0 0 28.738281 14.240234 z M 19.263672 14.248047 A 8.9377701 8.9377701 0 0 0 14.316406 22.232422 A 8.9377701 8.9377701 0 0 0 19.259766 30.224609 L 20.591797 27.556641 A 5.9585133 5.9585133 0 0 1 17.296875 22.232422 A 5.9585133 5.9585133 0 0 1 20.589844 16.904297 L 19.263672 14.248047 z M 24 18.507812 A 3.7240708 3.7240708 0 0 0 20.275391 22.232422 A 3.7240708 3.7240708 0 0 0 22.509766 25.642578 L 22.509766 42.962891 A 14.896283 20.521403 0 0 0 24 43.087891 A 14.896283 20.521403 0 0 0 25.490234 42.984375 L 25.490234 25.642578 L 25.484375 25.642578 A 3.7240708 3.7240708 0 0 0 27.724609 22.232422 A 3.7240708 3.7240708 0 0 0 24 18.507812 z "
       transform="matrix(0.26458333,0,0,0.26458333,0,284.3)"
       id="path822" />
    <path
       inkscape:connector-curvature="0"
       style="opacity:1;fill:#1a1a1a;fill-opacity:1;stroke:none;stroke-width:0.0263895"
       d="m 54.450447,341.5109 c -0.699603,0 -1.262802,0.5632 -1.262802,1.26281 0,0.6996 0.563199,1.26286 1.262802,1.26286 h 2.915902 v 4.54958 h 2.621599 v -4.54958 h 2.678879 c 0.699604,0 1.262802,-0.56326 1.262802,-1.26286 0,-0.69961 -0.563198,-1.26281 -1.262802,-1.26281 z m 2.915902,7.07525 h -3.762466 c -0.505822,0 -0.987151,0.40041 -1.079176,0.89779 l -1.570602,8.48895 c -0.09203,0.49738 0.241128,0.89779 0.746949,0.89779 h 4.58579 v 0.032 h 4.539768 v -0.032 h 4.597049 c 0.505821,0 0.838974,-0.40041 0.746949,-0.89779 l -1.570668,-8.48895 c -0.09202,-0.49738 -0.573289,-0.89779 -1.07911,-0.89779 h -3.489167 l -0.0068,3.70486 2.545423,0.002 -3.981976,3.2663 -3.815203,-3.25385 2.593287,0.009 z"
       id="rect827" />
  </g>
</svg>
