<svg xmlns="http://www.w3.org/2000/svg" width="48" height="48" viewBox="0 0 12.7 12.7">
  <defs>
    <clipPath id="a"/>
  </defs>
  <path fill="#1a1a1a" d="M6.34431561.07286377a6.28928043 6.28928043 0 0 0-6.2895386 6.2895385 6.28928043 6.28928043 0 0 0 6.2895386 6.28902166 6.28928043 6.28928043 0 0 0 6.28902167-6.28902167A6.28928043 6.28928043 0 0 0 6.3443156.07286376zm-.01808691.93637693a5.40704372 5.40704372 0 0 1 4.10827638 1.90117593l-8.22223705-.00103346A5.40704372 5.40704372 0 0 1 6.3262287 1.0092407zM1.60817055 3.77961414h1.08572193c.02973388 0 .06144366.00618596.0883666.01808692.04216003.01939925.0850384.05818505.1157552.09818502.01419755.01980142.03009848.04781365.04082442.07131368.02406915.05579983.04082441.12825386.04082441.19740377v4.39249682c0 .06919992-.01676135.14159388-.04082441.19740403-.0107262.0235003-.02663746.05183003-.04082441.07183014-.03071998.04080008-.0735936.0796851-.11575521.09818529-.02692003.008001-.05863458.01808665-.0883666.01808665H1.5497762a5.40704372 5.40704372 0 0 1-.30695802-.6976319V4.59196779a5.40704372 5.40704372 0 0 1 .36535238-.81235364zm2.05930577.00155046c.01196446-.00201083.0217223 0 .03410638 0h7.33857002a5.40704372 5.40704372 0 0 1 .69298105 2.63498115 5.40704372 5.40704372 0 0 1-.63096906 2.52801117H3.7015827c-.02973388 0-.06144763-.00566923-.0883666-.01757018-.04216612-.01860021-.08503946-.05808557-.1157552-.09818503-.01419755-.0198993-.03009133-.04791366-.04082442-.07131367-.02406915-.05579983-.04082441-.12830387-.04082441-.19740404V4.16718745c0-.0690999.01676135-.14160394.0408244-.19740404.01071828-.02350029.02662344-.05183028.04082442-.07183014.03071204-.04080007.07359439-.07960201.11575521-.09870202.01570567-.00600075.0375113-.0155866.05426022-.01808665zm2.74091793.24701315c-.73900875 0-1.39486823.34837793-1.81952712.88831789l.29042148.18396823c.36230004-.44343002.91587319-.72553723 1.53272303-.72553723 1.09029684 0 1.97507328.88476321 1.97507328 1.97507328S7.50230874 8.3250732 6.41201164 8.3250732c-.61507105 0-1.16728239-.28071973-1.52962238-.72191985l-.28990475.18396823c.42475996.5376799 1.07868587.88470051 1.81590974.88470051 1.279829 0 2.3182048-1.0400522 2.3182048-2.32182217 0-1.28176997-1.03837607-2.32182217-2.3182048-2.32182217zm-5.16764313.56947434v3.64112144a5.40704372 5.40704372 0 0 1-.32194418-1.82262778 5.40704372 5.40704372 0 0 1 .32194418-1.81849366zm2.73420013.2914552L3.9734008 7.78298748l2.45256338-1.44745708-2.45101293-1.4464231zm2.433443.04495854c-.4171516 0-.79183758.18035481-1.05161528.46715467l.30127363.18758562c.19352498-.19114003.45801147-.30799167.75034165-.30799167.59204304 0 1.07228586.48407743 1.07228613 1.08003762 0 .59594987-.48024309 1.07952062-1.07228613 1.07952062-.29777954 0-.56679675-.12136358-.7611938-.31884355l-.29042148.18396797c.2597777.28678002.63446368.46767167 1.05161528.46767167.78352888 0 1.41955148-.6360414 1.41955175-1.41955148 0-.78352014-.63602287-1.41955147-1.41955175-1.41955147zM2.102714 9.79061667h8.44134498a5.40704372 5.40704372 0 0 1-4.21783028 2.03243416A5.40704372 5.40704372 0 0 1 2.102714 9.79061667z"/>
</svg>
