<svg xmlns="http://www.w3.org/2000/svg" width="48" height="48" viewBox="0 0 12.7 12.7"><path fill="#1a1a1a" d="M6.344.073a6.29 6.29 0 0 0-6.29 6.29 6.29 6.29 0 0 0 6.29 6.288 6.29 6.29 0 0 0 6.29-6.289 6.29 6.29 0 0 0-6.29-6.29zm-.018.936a5.407 5.407 0 0 1 5.407 5.407 5.407 5.407 0 0 1-5.407 5.407A5.407 5.407 0 0 1 .92 6.416 5.407 5.407 0 0 1 6.326 1.01zm-.037.994c-1.234 0-2.241.998-2.241 2.231 0 .712.358 1.324.877 1.733-.27.409-.574.863-.667 1.025-.273.471-1.5 2.701-1.235 3.177.259.465 2.753.527 3.286.528.544 0 3.086-.061 3.365-.528.274-.457-.919-2.645-1.185-3.107a31.67 31.67 0 0 0-.746-1.155c.471-.41.776-1 .776-1.673 0-1.233-.997-2.23-2.23-2.23zm.117 5.166c.392 0 .665.144.82.432.116.216.177.539.181.967H5.982c.02.142.045.248.078.32.114.25.331.374.65.374.2 0 .432-.05.697-.152v.459c-.281.091-.55.137-.808.137-.406 0-.724-.117-.957-.35-.233-.23-.349-.548-.349-.95 0-.375.101-.675.305-.898.201-.226.471-.339.808-.339zm.005.409c-.147 0-.26.076-.336.228-.044.088-.078.22-.1.393h.79c-.005-.193-.028-.336-.07-.428-.058-.129-.153-.193-.284-.193z"/></svg>