<svg xmlns="http://www.w3.org/2000/svg" width="48" height="48" viewBox="0 0 12.7 12.7">
  <path fill="#1a1a1a" d="M6.34431561.07286377a6.28928043 6.28928043 0 0 0-6.2895386 6.2895385 6.28928043 6.28928043 0 0 0 6.2895386 6.28902166 6.28928043 6.28928043 0 0 0 6.28902167-6.28902167A6.28928043 6.28928043 0 0 0 6.3443156.07286376zm-.01808691.93637693a5.40704372 5.40704372 0 0 1 5.40690507 5.40690505 5.40704372 5.40704372 0 0 1-5.40690507 5.40690508A5.40704372 5.40704372 0 0 1 .91880694 6.41614575 5.40704372 5.40704372 0 0 1 6.3262287 1.0092407zM3.19101969 2.58382158c-.33364302 0-.60203048.26877407-.60203048.603064v6.32622869c0 .33428992.26838746.60306399.60203048.60306399h6.31744373c.33364302 0 .60254726-.26877407.60254726-.603064V3.18688558c0-.33428992-.26890424-.60306399-.60254726-.60306399H3.1910197zm.28266998.3369302h5.7526205c.30378532 0 .54828678.2454574.54828678.5498375v5.75882128c0 .3043801-.24450146.5498375-.54828678.5498375h-5.7526205c-.30378585 0-.5488035-.2454574-.5488035-.5498375V3.47058928c0-.3043801.24501765-.5498375.5488035-.5498375zm1.62315682.43149837l-1.7399455.00051673c-5.2e-7 1.35288998.0000016 2.66622024 0 4.02301017l.31522618.22996023c.00045534.00030982.0011004.00082338.00155045.00103346.86734385.58921993 1.4439167.78220648 2.15335694.7400065 1.01441329-.06030013 1.78479475-.76460825 1.78542049-1.59576821.00023283-.30180994-.11282045-.6024065-.27440176-.81028645-.16198294-.20839006-.36290302-.31470943-.52348235-.31470943-.10971424 0-.18114645.0459978-.27078437.07699798.01336702.00031988.02574-.00513424.03927396-.00413438.1876634.01520005.35299543.10565712.4898927.23047695.19066166.17365.28525232.41622345.2852539.68781347 0 .7493799-.61438339 1.3503677-1.40973305 1.34668761-1.12546287-.00499983-1.94224987-1.0510676-1.93734952-2.24585765.00357002-.87052996.33665397-1.59447704 1.08572193-2.36574698zm2.03295088.99580487c-.08131915-.0030001-.16456104-.00031247-.2568321.00516758-1.01440825.06030013-1.78479447.76407141-1.78542048 1.59525148-.00023256.30179989.11282045.60291318.27440176.81080318.16198294.20839006.36290329.3141927.52348235.3141927.10971212 0 .18114645-.04619783.27078437-.07699798-.01336596-.00030983-.02574105.00513424-.03927396.00413412-.18766181-.01519979-.35299358-.10626355-.4898927-.23099342-.19066351-.17365001-.2852539-.41569666-.2852539-.68729674 0-.7493799.61438868-1.35089449 1.40973305-1.3472046 1.12546473.00500009 1.94224987 1.05159464 1.93734952 2.24637464-.00357002.87052996-.33665318 1.5944871-1.08572193 2.36574698h1.7399455c0-1.35290003.00000158-2.66673698 0-4.0235269l-.3157429-.22892676H9.0268392c-.75862338-.51539986-1.30222068-.72521074-1.89704184-.74569081v-.00103347z"/>
</svg>
