<svg xmlns="http://www.w3.org/2000/svg" width="48" height="48" viewBox="0 0 12.7 12.7">
  <g fill="#1a1a1a">
    <path d="M6.34431561.07286377a6.28928043 6.28928043 0 0 0-6.2895386 6.2895385 6.28928043 6.28928043 0 0 0 6.2895386 6.28902166 6.28928043 6.28928043 0 0 0 6.28902167-6.28902167A6.28928043 6.28928043 0 0 0 6.3443156.07286376zm-.01808691.93637693a5.40704372 5.40704372 0 0 1 4.19354259 1.99832775H2.13371986A5.40704372 5.40704372 0 0 1 6.3262287 1.0092407zm-2.29391684.8356079v.89865326h.89865331V1.8448486h-.8986533zm1.39526379.25993245v.3550171h3.09800198v-.3550171H5.42757565zm-3.60701496 1.3280842h1.09450679v6.1939373c0 .3675999.25637198.66352525.57464192.66352525H7.3923135c.3182702 0 .57464192-.29592534.57464192-.66352525v-2.1621419l1.64021-1.64021-.99218748-.9921875-.64802252.64802252V3.43286525h2.86442464a5.40704372 5.40704372 0 0 1 .9017537 2.9832805 5.40704372 5.40704372 0 0 1-5.40690507 5.40690508A5.40704372 5.40704372 0 0 1 .91880694 6.41614575a5.40704372 5.40704372 0 0 1 .90175375-2.9832805zm1.50636805 0h4.22868243c.0115488.04800018.01963684.09800855.01963684.15037859v2.28874899l-.82785636.82785663H6.3381143V6.713802H5.06118965v.35450039H6.3381143v.04030768l-.65060618.6511229v.37310378h-.6382041v.35450038h.6382041v.26458333h.99218749l.26458333-.26458333h.23357734v-.2335776L7.575248 7.8563678v1.2624554c0 .31057002-.21686255.56068911-.48575832.56068911H3.79253322c-.26889577 0-.4852416-.25011909-.4852416-.56068912V3.58324384c0-.05239994.00809996-.1023485.01963712-.15037859zm.33899739.37465423v.89865305h.89865304v-.89865305h-.89865304zm5.90093163.18241777c-.06779895 0-.1354746.02591462-.18706862.07751472l-.48420813.48420813.99218749.99218749.48420813-.48420813c.10318697-.10319015.10318697-.27094736 0-.3741375l-.61805026-.61805c-.05159401-.0516001-.11926887-.0775147-.18706861-.0775147zm-4.50566811.07803145v.35450039H7.1897419v-.3545004H5.06118965zM3.66592613 5.08496087v.89865305h.89865304v-.89865305h-.89865304zm1.39526352.25993249v.35450038H7.1897419v-.35450038H5.06118965zM3.66592613 6.45335278v.89865305h.89865304v-.89865305h-.89865304zM3.6540405 7.87238753v.89865331h.89865305v-.89865331h-.89865305zM54.450447 57.2109c-.699603 0-1.262802.5632-1.262802 1.26281 0 .6996.563199 1.26286 1.262802 1.26286h2.915902v4.54958h2.621599v-4.54958h2.678879c.699604 0 1.262802-.56326 1.262802-1.26286 0-.69961-.563198-1.26281-1.262802-1.26281zm2.915902 7.07525h-3.762466c-.505822 0-.987151.40041-1.079176.89779l-1.570602 8.48895c-.09203.49738.241128.89779.746949.89779h4.58579v.032h4.539768v-.032h4.597049c.505821 0 .838974-.40041.746949-.89779l-1.570668-8.48895c-.09202-.49738-.573289-.89779-1.07911-.89779h-3.489167l-.0068 3.70486 2.545423.002-3.981976 3.2663-3.815203-3.25385 2.593287.009z"/>
  </g>
</svg>
