<?xml version="1.0" encoding="UTF-8" standalone="no"?>
<!-- Created with Inkscape (http://www.inkscape.org/) -->

<svg
   xmlns:dc="http://purl.org/dc/elements/1.1/"
   xmlns:cc="http://creativecommons.org/ns#"
   xmlns:rdf="http://www.w3.org/1999/02/22-rdf-syntax-ns#"
   xmlns:svg="http://www.w3.org/2000/svg"
   xmlns="http://www.w3.org/2000/svg"
   xmlns:sodipodi="http://sodipodi.sourceforge.net/DTD/sodipodi-0.dtd"
   xmlns:inkscape="http://www.inkscape.org/namespaces/inkscape"
   width="48"
   height="48"
   viewBox="0 0 12.7 12.7"
   version="1.1"
   id="svg829"
   inkscape:version="0.92.3 (2405546, 2018-03-11)"
   sodipodi:docname="mkvtoolnix-gui.svg">
  <defs
     id="defs823">
    <clipPath
       clipPathUnits="userSpaceOnUse"
       id="clipPath927">
      <g
         id="use929"
         inkscape:label="Clip">
        <path
           inkscape:connector-curvature="0"
           style="fill:#2ca089;stroke-width:0.04113208"
           d="m -5.7439193,283.47477 -10.9563497,10.95625 0.303419,0.30344 0.772914,-0.77193 0.772904,0.77193 -0.772904,0.77291 1.158933,1.15899 0.772903,-0.77206 0.772915,0.77206 -0.772915,0.7729 0.386017,0.38597 10.9563553,-10.95542 z m -0.6077207,1.2145 0.7729092,0.7729 -0.7729092,0.77303 -0.7720389,-0.77303 z m -1.5449483,1.54593 0.7729094,0.77193 -0.7729094,0.77291 -0.7729089,-0.77291 z m 3.4767859,0.38596 0.772909,0.7729 -0.772909,0.77291 -0.7720391,-0.77291 z m -5.0226039,1.15888 0.7729091,0.7729 -0.7729091,0.7729 -0.7729097,-0.7729 z m 3.4776558,0.38693 0.772909,0.77205 -0.772909,0.77291 -0.7729089,-0.77291 z m -5.0226005,1.15887 0.772035,0.7729 -0.772035,0.77206 -0.772914,-0.77206 z m 3.4767826,0.38609 0.772909,0.7729 -0.772909,0.7729 -0.7729089,-0.7729 z m -5.0225996,1.15887 0.772903,0.77291 -0.772903,0.7729 -0.772915,-0.7729 z m 3.4776512,0.38693 0.7720395,0.77291 -0.7720395,0.77205 -0.7729089,-0.77205 z m -5.0234692,1.15888 0.772903,0.7729 -0.772903,0.77302 -0.772046,-0.77302 z m 3.477653,0.38608 0.7729073,0.77291 -0.7729073,0.7729 -0.772915,-0.7729 z m -1.545818,1.54581 0.772903,0.7729 -0.772903,0.77291 -0.772034,-0.77291 z"
           id="path970" />
        <path
           inkscape:connector-curvature="0"
           style="fill:#1a1a1a;fill-opacity:1;stroke-width:0.1389506"
           d="m -9.5487714,285.30924 a 5.4070438,5.4070438 0 0 1 5.4069053,5.40691 5.4070438,5.4070438 0 0 1 -5.4069053,5.4069 5.4070438,5.4070438 0 0 1 -5.4074216,-5.4069 5.4070438,5.4070438 0 0 1 5.4074216,-5.40691 z"
           id="path972" />
      </g>
    </clipPath>
    <clipPath
       clipPathUnits="userSpaceOnUse"
       id="clipPath944">
      <g
         inkscape:label="Clip"
         id="use946"
         transform="translate(0,-3.9583333e-6)">
        <g
           clip-path="url(#clipPath927)"
           id="g959">
          <g
             id="g957"
             inkscape:label="Clip">
            <path
               inkscape:connector-curvature="0"
               style="fill:#2ca089;stroke-width:0.04113208"
               d="m -5.7439193,283.47477 -10.9563497,10.95625 0.303419,0.30344 0.772914,-0.77193 0.772904,0.77193 -0.772904,0.77291 1.158933,1.15899 0.772903,-0.77206 0.772915,0.77206 -0.772915,0.7729 0.386017,0.38597 10.9563553,-10.95542 z m -0.6077207,1.2145 0.7729092,0.7729 -0.7729092,0.77303 -0.7720389,-0.77303 z m -1.5449483,1.54593 0.7729094,0.77193 -0.7729094,0.77291 -0.7729089,-0.77291 z m 3.4767859,0.38596 0.772909,0.7729 -0.772909,0.77291 -0.7720391,-0.77291 z m -5.0226039,1.15888 0.7729091,0.7729 -0.7729091,0.7729 -0.7729097,-0.7729 z m 3.4776558,0.38693 0.772909,0.77205 -0.772909,0.77291 -0.7729089,-0.77291 z m -5.0226005,1.15887 0.772035,0.7729 -0.772035,0.77206 -0.772914,-0.77206 z m 3.4767826,0.38609 0.772909,0.7729 -0.772909,0.7729 -0.7729089,-0.7729 z m -5.0225996,1.15887 0.772903,0.77291 -0.772903,0.7729 -0.772915,-0.7729 z m 3.4776512,0.38693 0.7720395,0.77291 -0.7720395,0.77205 -0.7729089,-0.77205 z m -5.0234692,1.15888 0.772903,0.7729 -0.772903,0.77302 -0.772046,-0.77302 z m 3.477653,0.38608 0.7729073,0.77291 -0.7729073,0.7729 -0.772915,-0.7729 z m -1.545818,1.54581 0.772903,0.7729 -0.772903,0.77291 -0.772034,-0.77291 z"
               id="path953" />
            <path
               inkscape:connector-curvature="0"
               style="fill:#1a1a1a;fill-opacity:1;stroke-width:0.1389506"
               d="m -9.5487714,285.30924 a 5.4070438,5.4070438 0 0 1 5.4069053,5.40691 5.4070438,5.4070438 0 0 1 -5.4069053,5.4069 5.4070438,5.4070438 0 0 1 -5.4074216,-5.4069 5.4070438,5.4070438 0 0 1 5.4074216,-5.40691 z"
               id="path955" />
          </g>
        </g>
      </g>
    </clipPath>
    <clipPath
       clipPathUnits="userSpaceOnUse"
       id="clipPath978">
      <path
         inkscape:connector-curvature="0"
         style="fill:#1a1a1a;fill-opacity:1;stroke-width:0.1389506"
         d="m -9.5487715,285.30924 a 5.4070438,5.4070438 0 0 1 5.4069054,5.40691 5.4070438,5.4070438 0 0 1 -5.4069054,5.4069 5.4070438,5.4070438 0 0 1 -5.4074215,-5.4069 5.4070438,5.4070438 0 0 1 5.4074215,-5.40691 z"
         id="path980" />
    </clipPath>
  </defs>
  <sodipodi:namedview
     id="base"
     pagecolor="#ffffff"
     bordercolor="#666666"
     borderopacity="1.0"
     inkscape:pageopacity="0.0"
     inkscape:pageshadow="2"
     inkscape:zoom="11.145833"
     inkscape:cx="24"
     inkscape:cy="24"
     inkscape:document-units="mm"
     inkscape:current-layer="layer1"
     showgrid="false"
     showguides="true"
     inkscape:guide-bbox="true"
     inkscape:window-width="1366"
     inkscape:window-height="714"
     inkscape:window-x="0"
     inkscape:window-y="25"
     inkscape:window-maximized="1"
     scale-x="1.9"
     units="px"
     inkscape:snap-global="true" />
  <metadata
     id="metadata826">
    <rdf:RDF>
      <cc:Work
         rdf:about="">
        <dc:format>image/svg+xml</dc:format>
        <dc:type
           rdf:resource="http://purl.org/dc/dcmitype/StillImage" />
        <dc:title></dc:title>
      </cc:Work>
    </rdf:RDF>
  </metadata>
  <g
     inkscape:label="Capa 1"
     inkscape:groupmode="layer"
     id="layer1"
     transform="translate(0,-284.3)">
    <path
       style="fill:#1a1a1a;fill-opacity:1;stroke-width:0.52516764"
       d="M 23.978516 0.27539062 A 23.770509 23.770509 0 0 0 0.20703125 24.046875 A 23.770509 23.770509 0 0 0 23.978516 47.816406 A 23.770509 23.770509 0 0 0 47.748047 24.046875 A 23.770509 23.770509 0 0 0 23.978516 0.27539062 z M 23.910156 3.8144531 A 20.436071 20.436071 0 0 1 44.345703 24.25 A 20.436071 20.436071 0 0 1 23.910156 44.685547 A 20.436071 20.436071 0 0 1 3.4726562 24.25 A 20.436071 20.436071 0 0 1 23.910156 3.8144531 z M 22.509766 9.8320312 A 15.122715 11.220607 59 0 0 15.935547 29.779297 A 15.122715 11.220607 59 0 0 16.5 30.630859 C 14.685764 31.033269 13.020056 31.279585 11.640625 31.314453 C 9.8391449 31.359807 7.3321284 30.971638 6.6152344 29.318359 C 5.9782033 27.849181 8.3393752 24.873378 8.3769531 24.826172 C 8.3338892 24.867369 5.1044958 27.962906 5.359375 29.910156 C 5.7135923 32.613766 9.1096708 33.044929 11.789062 33.013672 C 13.120638 32.998412 15.170936 32.651015 17.558594 32.054688 A 15.122715 11.220607 59 0 0 37.214844 23.044922 C 39.722857 20.956394 41.365677 18.656609 41.345703 16.240234 C 41.324538 13.664184 37.267857 13.143012 36.253906 13.169922 C 36.109056 13.173701 36.025391 13.188638 36.025391 13.210938 C 36.025391 13.210938 39.954724 14.19741 39.869141 16.09375 C 39.79114 17.82037 38.56584 19.596098 36.652344 21.300781 A 15.122715 11.220607 59 0 0 35.169922 18.220703 A 15.122715 11.220607 59 0 0 34.703125 17.509766 A 4.0909269 4.0909269 0 0 0 34.800781 16.636719 A 4.0909269 4.0909269 0 0 0 30.070312 12.595703 A 15.122715 11.220607 59 0 0 22.509766 9.8320312 z M 22.71875 10.828125 A 14.055941 10.429092 59 0 1 29.029297 12.910156 A 4.0909269 4.0909269 0 0 0 26.619141 16.636719 A 4.0909269 4.0909269 0 0 0 34.375 18.439453 A 14.055941 10.429092 59 0 1 34.492188 18.628906 A 14.055941 10.429092 59 0 1 36.003906 21.853516 C 35.10405 22.590488 34.09314 23.312381 32.980469 24.005859 C 32.799573 23.128707 32.49405 22.29633 32.058594 21.544922 L 32.058594 21.542969 A 5.0909269 5.0909269 0 0 1 25.695312 17.490234 C 25.459659 17.471337 25.223385 17.457031 24.982422 17.457031 C 20.4626 17.457031 16.800781 21.117903 16.800781 25.638672 C 16.800781 27.336889 17.318402 28.913667 18.203125 30.220703 C 17.9032 30.299096 17.616184 30.362598 17.322266 30.433594 A 14.055941 10.429092 59 0 1 16.613281 29.371094 A 14.055941 10.429092 59 0 1 22.71875 10.828125 z M 23.517578 21.779297 C 26.204166 21.779297 28.463883 23.673525 28.990234 26.203125 C 27.097097 27.131868 25.100006 27.9628 23.111328 28.683594 A 2.4545564 2.4545564 0 0 0 18.443359 29.591797 C 18.137981 28.899463 17.964844 28.135786 17.964844 27.332031 C 17.964844 24.258482 20.443982 21.779297 23.517578 21.779297 z M 36.539062 23.601562 A 14.055941 10.429092 59 0 1 18.400391 31.833984 C 18.704647 31.753015 18.991489 31.686317 19.304688 31.597656 A 2.4545564 2.4545564 0 0 0 19.671875 31.857422 C 21.101233 33.079154 22.953328 33.820312 24.982422 33.820312 C 29.427301 33.820312 33.032226 30.279017 33.152344 25.863281 C 34.376553 25.14786 35.514935 24.390431 36.539062 23.601562 z M 8.3886719 24.808594 C 8.3886719 24.808594 8.3772555 24.824219 8.3769531 24.824219 C 8.3788216 24.822191 8.390625 24.810547 8.390625 24.810547 L 8.3886719 24.808594 z M 29.060547 28.001953 C 28.72607 30.761764 26.363736 32.919922 23.517578 32.919922 C 22.512151 32.919922 21.572001 32.647416 20.759766 32.177734 A 2.4545564 2.4545564 0 0 0 23.267578 30.332031 C 25.190024 29.657121 27.156246 28.883755 29.060547 28.001953 z "
       transform="matrix(0.26458333,0,0,0.26458333,0,284.3)"
       id="path862" />
  </g>
</svg>
