<svg xmlns="http://www.w3.org/2000/svg" width="48" height="48" viewBox="0 0 12.7 12.7">
  <defs>
    <clipPath id="a"/>
  </defs>
  <path fill="#1a1a1a" d="M6.34431561.07286377a6.28928043 6.28928043 0 0 0-6.2895386 6.2895385 6.28928043 6.28928043 0 0 0 6.2895386 6.28902166 6.28928043 6.28928043 0 0 0 6.28902167-6.28902167A6.28928043 6.28928043 0 0 0 6.3443156.07286376zm-.01808691.93637693a5.40704372 5.40704372 0 0 1 5.40690507 5.40690505 5.40704372 5.40704372 0 0 1-5.40690507 5.40690508A5.40704372 5.40704372 0 0 1 .91880694 6.41614575 5.40704372 5.40704372 0 0 1 6.3262287 1.0092407zm-.37051985 1.59215086a4.0012183 2.96878556 59 0 0-1.73942876 5.277714 4.0012183 2.96878556 59 0 0 .14934486.22530911c-.4800166.10647098-.92073518.17164209-1.28570962.18086758-.4766416.01199991-1.13995638-.09070313-1.32963458-.5281332-.16854781-.38872.45617891-1.17606787.4661214-1.1885578-.011394.01090005-.86583765.82992754-.79840087 1.34513743.09372.71533013.99226576.82940867 1.701188.8211386.35231281-.00403755.89478749-.095953 1.526522-.25373119A4.0012183 2.96878556 59 0 0 9.84642734 6.0973022c.66357843-.5525897 1.09824122-1.16107446 1.09295643-1.800407-.0055999-.6815799-1.07893007-.81947332-1.3472046-.81235338-.0383249.00099986-.06046126.00495194-.06046126.01085215 0 0 1.039636.26100405 1.01699217.762744-.02063776.45683487-.34483172.9266629-.85111086 1.3776936a4.0012183 2.96878556 59 0 0-.39222415-.8149373 4.0012183 2.96878556 59 0 0-.1235067-.18810207 1.08239106 1.08239106 0 0 0 .02583814-.23099369 1.08239106 1.08239106 0 0 0-1.25160324-1.06918547 4.0012183 2.96878556 59 0 0-2.00039443-.73122148zm.05529368.26354981a3.71896768 2.75936389 59 0 1 1.66966554.5508707 1.08239106 1.08239106 0 0 0-.6376871.98598644 1.08239106 1.08239106 0 0 0 2.052071.47697337 3.71896768 2.75936389 59 0 1 .03100599.0501261 3.71896768 2.75936389 59 0 1 .39997538.85317806c-.2380869.1949905-.50555683.38599136-.79995103.56947407-.04786206-.2320798-.12869836-.45231287-.24391275-.6511229v-.00051673A1.3469744 1.3469744 0 0 1 6.7985512 4.62762435c-.06234985-.00499983-.12486401-.00878496-.1886188-.00878496-1.19586956 0-2.16472583.9686057-2.16472583 2.16472582 0 .44931991.1369539.86650909.37103685 1.21232902-.07935516.02074149-.1552948.03754306-.2330606.05632741a3.71896768 2.75936389 59 0 1-.18758562-.28111978 3.71896768 2.75936389 59 0 1 1.61540532-4.90616049zm.21135657 2.89749756c.7108264 0 1.30870985.50118115 1.44797355 1.17047114-.5008925.24572991-1.02928948.46558067-1.55546053.65629075a.6494347.6494347 0 0 0-1.23506678.24029537c-.08079793-.18318003-.1266071-.38523624-.1266071-.59789641 0-.81320983.6559386-1.46916085 1.46916086-1.46916085zm3.4452676.48214094a3.71896768 2.75936389 59 0 1-4.79918998 2.17816162c.08050107-.02142304.15639468-.03907022.23926192-.06252845a.6494347.6494347 0 0 0 .09715155.06872976c.3781843.32324992.86821777.51934797 1.40508221.51934797 1.1760409 0 2.12984395-.93696762 2.16162517-2.10529776.3239053-.18928847.6251022-.38969156.89606913-.59841314zm-7.44812395.31936054s-.0030206.00413412-.0031006.00413412c.00049437-.00053658.00361735-.00361739.00361735-.00361739l-.00051675-.00051673zm5.46943355.84490956c-.08849704.73019999-.71353124 1.30121262-1.4665772 1.30121262-.26601922 0-.51476724-.07210055-.72967108-.19637058a.6494347.6494347 0 0 0 .66352525-.48834224c.50864716-.17856994 1.02887673-.38318969 1.53272303-.6164998z"/>
</svg>
