<?xml version="1.0" encoding="UTF-8" standalone="no"?>
<svg
   xmlns:dc="http://purl.org/dc/elements/1.1/"
   xmlns:cc="http://creativecommons.org/ns#"
   xmlns:rdf="http://www.w3.org/1999/02/22-rdf-syntax-ns#"
   xmlns:svg="http://www.w3.org/2000/svg"
   xmlns="http://www.w3.org/2000/svg"
   xmlns:sodipodi="http://sodipodi.sourceforge.net/DTD/sodipodi-0.dtd"
   xmlns:inkscape="http://www.inkscape.org/namespaces/inkscape"
   width="48"
   height="48"
   viewBox="0 0 12.7 12.7"
   version="1.1"
   id="svg6"
   sodipodi:docname="nicotine-plus.svg"
   inkscape:version="0.92.3 (2405546, 2018-03-11)">
  <metadata
     id="metadata12">
    <rdf:RDF>
      <cc:Work
         rdf:about="">
        <dc:format>image/svg+xml</dc:format>
        <dc:type
           rdf:resource="http://purl.org/dc/dcmitype/StillImage" />
        <dc:title></dc:title>
      </cc:Work>
    </rdf:RDF>
  </metadata>
  <defs
     id="defs10" />
  <sodipodi:namedview
     pagecolor="#ffffff"
     bordercolor="#666666"
     borderopacity="1"
     objecttolerance="10"
     gridtolerance="10"
     guidetolerance="10"
     inkscape:pageopacity="0"
     inkscape:pageshadow="2"
     inkscape:window-width="1308"
     inkscape:window-height="742"
     id="namedview8"
     showgrid="false"
     inkscape:zoom="4.9166667"
     inkscape:cx="24"
     inkscape:cy="24"
     inkscape:window-x="58"
     inkscape:window-y="-4"
     inkscape:window-maximized="1"
     inkscape:current-layer="svg6" />
  <path
     fill="#1a1a1a"
     d="M6.344.337A6.025 6.025 0 0 0 .32 6.362a6.025 6.025 0 0 0 6.025 6.025 6.025 6.025 0 0 0 6.025-6.025A6.025 6.025 0 0 0 6.344.337zm-.017.897a5.18 5.18 0 0 1 5.18 5.18 5.18 5.18 0 0 1-5.18 5.18 5.18 5.18 0 0 1-5.18-5.18 5.18 5.18 0 0 1 5.18-5.18z"
     id="path2"
     style="fill:#1a1a1a;fill-opacity:0.99215686" />
  <path
     inkscape:connector-curvature="0"
     d="M 4.169239,2.9068349 C 4.022916,2.9061323 3.8702718,2.9073031 3.7091998,2.9073031 H 3.0068484 V 9.4625795 H 4.4115507 V 4.324414 C 4.6813468,4.334354 4.90144,4.350545 5.0261077,4.382027 5.2445649,4.437189 5.2282276,4.416555 5.3196673,4.6243853 5.502512,5.039942 5.5821118,6.5361845 5.5821118,9.462647 h 1.4047023 c 0,-0.4529935 0.00165,-0.8107711 0.00324,-1.1961974 h 1.167356 v 1.1705848 h 1.404691 V 8.2664501 H 10.732682 V 6.8617485 H 9.562094 V 5.6911627 H 8.1573925 V 6.8617485 H 6.9881884 C 6.9739072,5.5726996 6.9022676,4.7326882 6.6054069,4.0581972 6.3750355,3.5344773 5.8756647,3.1479499 5.3699711,3.0201217 5.0630442,2.9428637 4.7504981,2.9194517 4.4114968,2.9119603 v -0.00465 H 4.1902559 c -0.0073,-3.81e-5 -0.013742,-4.215e-4 -0.021034,-4.684e-4 z"
     id="path8"
     style="opacity:1;fill:#1a1a1a;fill-opacity:0.99215686;stroke-width:0.23411694" />
</svg>
