<?xml version="1.0" encoding="UTF-8" standalone="no"?>
<svg
   xmlns:dc="http://purl.org/dc/elements/1.1/"
   xmlns:cc="http://creativecommons.org/ns#"
   xmlns:rdf="http://www.w3.org/1999/02/22-rdf-syntax-ns#"
   xmlns:svg="http://www.w3.org/2000/svg"
   xmlns="http://www.w3.org/2000/svg"
   xmlns:sodipodi="http://sodipodi.sourceforge.net/DTD/sodipodi-0.dtd"
   xmlns:inkscape="http://www.inkscape.org/namespaces/inkscape"
   width="48"
   height="48"
   viewBox="0 0 12.7 12.7"
   version="1.1"
   id="svg6"
   sodipodi:docname="nvidia-settings.svg"
   inkscape:version="0.92.3 (2405546, 2018-03-11)">
  <metadata
     id="metadata12">
    <rdf:RDF>
      <cc:Work
         rdf:about="">
        <dc:format>image/svg+xml</dc:format>
        <dc:type
           rdf:resource="http://purl.org/dc/dcmitype/StillImage" />
        <dc:title></dc:title>
      </cc:Work>
    </rdf:RDF>
  </metadata>
  <defs
     id="defs10" />
  <sodipodi:namedview
     pagecolor="#ffffff"
     bordercolor="#666666"
     borderopacity="1"
     objecttolerance="10"
     gridtolerance="10"
     guidetolerance="10"
     inkscape:pageopacity="0"
     inkscape:pageshadow="2"
     inkscape:window-width="1308"
     inkscape:window-height="742"
     id="namedview8"
     showgrid="false"
     inkscape:zoom="3.4766084"
     inkscape:cx="-3.8692888"
     inkscape:cy="26.552043"
     inkscape:window-x="58"
     inkscape:window-y="-4"
     inkscape:window-maximized="1"
     inkscape:current-layer="svg6" />
  <path
     fill="#1a1a1a"
     d="M6.344.337A6.025 6.025 0 0 0 .32 6.362a6.025 6.025 0 0 0 6.025 6.025 6.025 6.025 0 0 0 6.025-6.025A6.025 6.025 0 0 0 6.344.337zm-.017.897a5.18 5.18 0 0 1 5.18 5.18 5.18 5.18 0 0 1-5.18 5.18 5.18 5.18 0 0 1-5.18-5.18 5.18 5.18 0 0 1 5.18-5.18z"
     id="path2" />
  <g
     transform="matrix(0.52366501,0,0,0.52366501,0.07589619,1.2900079)"
     id="g6"
     style="fill:#1a1a1a;fill-opacity:1">
    <path
       inkscape:connector-curvature="0"
       d="M 10.312,5.269 C 6.543,5.601 3.317,8.766 3.317,8.766 c 0,0 1.835,5.417 7.05,5.909 0.208,0.018 0.447,0.06 0.663,0.06 2.753,0 7.56,-1.446 9.648,-3.196 C 20.371,11.23 18.93,10.504 18.568,10.212 16.376,12.105 14.1,13.77 10.97,13.77 10.772,13.772 10.553,13.73 10.367,13.71 6.537,13.23 5.242,9.007 5.242,9.007 c 0,0 1.68,-2.545 5.065,-2.834 0.083,-0.006 0.156,0.004 0.241,0 3.101,-0.096 5.186,2.653 5.186,2.653 0,0 -2.227,3.075 -4.583,3.075 -0.307,0 -0.591,-0.104 -0.844,-0.181 C 8.673,11.17 8.136,9.248 8.136,9.248 c 0,0 0.755,-0.843 1.749,-0.965 0.143,-0.015 0.27,-0.017 0.422,0 1.131,0.162 1.404,0.753 2.11,1.93 l 1.628,-1.387 c 0,0 -1.206,-1.568 -3.196,-1.568 -0.185,0.002 -0.365,0.043 -0.543,0.06 -2.31,0.247 -3.678,1.809 -3.678,1.809 0,0 0.784,2.98 3.678,3.497 0.245,0.041 0.506,0.06 0.784,0.06 3.363,0 6.572,-3.919 6.572,-3.919 0,0 -2.799,-3.642 -7.115,-3.497 -0.083,0.002 -0.158,-0.006 -0.241,0 z"
       style="fill:#1a1a1a;fill-opacity:1;stroke:none"
       id="path2-3" />
    <rect
       width="0.066"
       height="0.033"
       x="13.667"
       y="9.7690001"
       style="fill:#1a1a1a;stroke:none;fill-opacity:1"
       id="rect4" />
  </g>
</svg>
