<svg xmlns="http://www.w3.org/2000/svg" width="48" height="48" viewBox="0 0 12.7 12.7">
  <path fill="#1a1a1a" d="M6.34431561.07286377a6.28928043 6.28928043 0 0 0-6.2895386 6.2895385 6.28928043 6.28928043 0 0 0 6.2895386 6.28902166 6.28928043 6.28928043 0 0 0 6.28902167-6.28902167A6.28928043 6.28928043 0 0 0 6.3443156.07286376zm-.01808691.93637693a5.40704372 5.40704372 0 0 1 5.40690507 5.40690505 5.40704372 5.40704372 0 0 1-5.40690507 5.40690508A5.40704372 5.40704372 0 0 1 .91880694 6.41614575 5.40704372 5.40704372 0 0 1 6.3262287 1.0092407zM3.12642405 2.4706502c-.30267751 0-.54621982.24405653-.54621982.54673669v6.66522608c0 .30271006.2435423.54673658.54621982.54673658h6.44715174c.30267725 0 .54621985-.24402652.54621985-.54673658V3.01738688c0-.3026701-.2435426-.54673669-.54621985-.54673669H3.12642405zm1.38802902.53381761c.39664533 0 .71388128.13292323.95136307.39945865.23748206.26527257.35605058.6214954.35605058 1.06866874 0 .44591023-.11856852.80213305-.35605058 1.06866848-.2374818.26527257-.55471774.39790872-.95136307.39790872-.39790846 0-.71623528-.13263615-.95498046-.39790872-.2374818-.2652723-.35605058-.62149513-.35605058-1.06866848 0-.44717334.11856879-.80339617.35605058-1.06866874.23874518-.26653542.557072-.39945865.95498046-.39945865zm1.8536335.00361739h2.75900485c.26075613 0 .47025533.20998232.4702556.47077232v2.85305576H6.36808657v3.36000138H3.57290842c-.26075693 0-.47025533-.20952539-.4702556-.47025532V6.33191327h3.26543375V3.00808519zm-1.8536335.30695793c-.2779043 0-.4987925.10341028-.66300852.31057532-.16295317.20716505-.24442949.48949054-.24442975.84697675 0 .35622283.08147658.63826125.24442975.8454263.16421602.2071653.38510421.31057558.66300852.31057558.2779043 0 .49770135-.10341028.6593914-.31057559.16295264-.20716504.24442949-.48920346.24442949-.84542629 0-.3574862-.08147685-.6398117-.2444295-.84697675-.16169004-.20716504-.38148708-.31057532-.6593914-.31057532zm2.66288649 3.51658101h.97771822c.29179943 0 .51699397.06063403.67489413.18190104.15790015.12126754.23667799.29369464.23667799.51728131 0 .1730584-.04059476.31057532-.12143952.41289472-.08084502.10231888-.19941354.16593873-.35605058.19120274.18821691.0404225.33411663.12540138.43769941.2542479.10484538.12758341.15709609.28703403.15709635.47904056 0 .2526403-.08555328.4478049-.25734882.58549407-.17179528.1376889-.41622477.20670573-.73328847.20670573H7.17733956V6.83162413zm.38292246.3141927v.85266133h.56637369c.18695378 0 .32607831-.03439372.41702883-.1038696.09221364-.07073926.1384927-.17845616.1384927-.32246093 0-.14274192-.04627906-.24913802-.1384927-.31987728-.09095052-.07073926-.23007505-.10645352-.41702883-.10645352H7.560262zm0 1.16375338v1.03611255h.61391587c.20590192 0 .35829002-.04197297.45681979-.12660736.0997929-.08589777.14934485-.21663897.14934485-.39222414 0-.1768483-.04955196-.30730243-.14934485-.3906737-.09852977-.08463465-.25091787-.12660735-.45681979-.12660735h-.61391587z"/>
</svg>
