<svg xmlns="http://www.w3.org/2000/svg" width="48" height="48" viewBox="0 0 12.7 12.7"><path d="M6.35.083A6.267 6.267 0 0 0 .084 6.35a6.267 6.267 0 0 0 6.268 6.267 6.267 6.267 0 0 0 6.266-6.267A6.267 6.267 0 0 0 6.351.083zm-.017.932a5.388 5.388 0 0 1 5.388 5.39 5.388 5.388 0 0 1-5.388 5.387 5.388 5.388 0 0 1-5.39-5.388 5.388 5.388 0 0 1 5.39-5.389z" fill="#1a1a1a"/><path d="M6.335 9.592c1.32 0 1.44-2 1.44-3.346 0-1.549-.232-3.239-1.44-3.239-1.207 0-1.41 1.797-1.41 3.24 0 1.333.108 3.345 1.41 3.345zm0-7.235c2.162 0 3.78 1.563 3.78 3.956 0 2.113-1.533 4.03-3.78 4.03-2.225 0-3.75-1.918-3.75-4.03 0-2.374 1.568-3.956 3.75-3.956z" clip-rule="evenodd" opacity=".752" fill="red" fill-rule="evenodd"/></svg>