<?xml version="1.0" encoding="UTF-8" standalone="no"?>
<!-- Created with Inkscape (http://www.inkscape.org/) -->

<svg
   xmlns:dc="http://purl.org/dc/elements/1.1/"
   xmlns:cc="http://creativecommons.org/ns#"
   xmlns:rdf="http://www.w3.org/1999/02/22-rdf-syntax-ns#"
   xmlns:svg="http://www.w3.org/2000/svg"
   xmlns="http://www.w3.org/2000/svg"
   xmlns:sodipodi="http://sodipodi.sourceforge.net/DTD/sodipodi-0.dtd"
   xmlns:inkscape="http://www.inkscape.org/namespaces/inkscape"
   width="48"
   height="48"
   viewBox="0 0 12.7 12.7"
   version="1.1"
   id="svg829"
   inkscape:version="0.92.3 (2405546, 2018-03-11)"
   sodipodi:docname="orca.svg">
  <defs
     id="defs823" />
  <sodipodi:namedview
     id="base"
     pagecolor="#ffffff"
     bordercolor="#666666"
     borderopacity="1.0"
     inkscape:pageopacity="0.0"
     inkscape:pageshadow="2"
     inkscape:zoom="5.59375"
     inkscape:cx="24"
     inkscape:cy="24"
     inkscape:document-units="mm"
     inkscape:current-layer="layer1"
     showgrid="false"
     showguides="true"
     inkscape:guide-bbox="true"
     inkscape:window-width="1366"
     inkscape:window-height="714"
     inkscape:window-x="0"
     inkscape:window-y="25"
     inkscape:window-maximized="1"
     scale-x="1.9"
     units="px"
     inkscape:snap-global="false" />
  <metadata
     id="metadata826">
    <rdf:RDF>
      <cc:Work
         rdf:about="">
        <dc:format>image/svg+xml</dc:format>
        <dc:type
           rdf:resource="http://purl.org/dc/dcmitype/StillImage" />
        <dc:title></dc:title>
      </cc:Work>
    </rdf:RDF>
  </metadata>
  <g
     inkscape:label="Capa 1"
     inkscape:groupmode="layer"
     id="layer1"
     transform="translate(0,-284.3)">
    <path
       style="fill:#1a1a1a;fill-opacity:1;stroke-width:0.52516764"
       d="M 23.978516 0.27539062 A 23.770509 23.770509 0 0 0 0.20703125 24.046875 A 23.770509 23.770509 0 0 0 23.978516 47.816406 A 23.770509 23.770509 0 0 0 47.748047 24.046875 A 23.770509 23.770509 0 0 0 23.978516 0.27539062 z M 23.910156 3.8144531 A 20.436071 20.436071 0 0 1 44.345703 24.25 A 20.436071 20.436071 0 0 1 23.910156 44.685547 A 20.436071 20.436071 0 0 1 3.4726562 24.25 A 20.436071 20.436071 0 0 1 23.910156 3.8144531 z M 34.908203 8.484375 C 32.300879 8.4541388 29.704592 9.2728406 27.162109 10.648438 C 25.836148 11.365716 24.667319 12.397276 23.839844 12.783203 C 16.368797 11.301742 8.1336692 17.4682 7.3027344 28.289062 C 7.2356478 29.162398 7.2497393 31.262627 7.6816406 31.533203 C 11.920263 32.80914 17.876826 31.400267 21.355469 29.935547 C 22.321541 30.244688 23.579926 30.469896 25.302734 30.533203 C 26.289434 30.276176 25.950055 29.392123 25.115234 28.365234 C 29.385988 27.324675 31.317249 30.536575 32.017578 31.007812 C 33.290255 32.09832 29.3937 35.08089 29.640625 37.509766 C 29.777671 38.857848 30.326172 39.515625 30.326172 39.515625 C 31.400866 36.472916 34.79907 37.722675 34.603516 34.556641 C 37.182496 36.012174 37.734163 33.694241 40.726562 34.15625 C 40.30366 33.512143 39.757452 32.553496 38.583984 32.050781 C 37.333235 31.581591 35.218975 31.646536 34.669922 30.050781 C 34.569674 28.245717 34.599193 18.616984 30.242188 15.673828 C 29.605636 14.39151 30.290443 12.562642 31.529297 11.314453 C 32.649476 10.185735 34.332288 9.1473041 34.908203 8.484375 z M 14.990234 23.671875 C 15.055322 23.683214 15.115984 23.702564 15.169922 23.732422 C 15.697686 24.498041 13.469193 27.338615 12.371094 26.4375 C 11.906191 25.776385 14.013896 23.536266 14.990234 23.671875 z M 29.539062 23.734375 C 30.47043 23.768391 31.229379 23.937754 31.390625 24.349609 C 31.764364 25.304809 24.728774 25.328352 30.273438 27.929688 C 31.652434 28.813946 31.652931 30.158637 31.525391 29.986328 C 30.522876 29.02494 28.631777 27.006113 24.8125 28.001953 C 24.128106 27.23954 23.243632 26.444361 22.390625 25.757812 C 23.164889 25.21802 24.103753 24.624766 25.449219 24.162109 C 25.961101 23.986361 27.986782 23.675566 29.539062 23.734375 z M 16.279297 27.117188 C 16.823615 27.134378 17.399137 27.202335 18.009766 27.234375 C 18.494017 27.986477 19.022639 28.960259 20.626953 29.664062 C 17.721076 30.835831 13.961106 31.966586 10.253906 31.564453 C 9.7780157 31.512296 10.299659 32.145362 13.345703 28.341797 C 14.216933 27.25386 15.184545 27.082614 16.279297 27.117188 z "
       transform="matrix(0.26458333,0,0,0.26458333,0,284.3)"
       id="path829" />
  </g>
</svg>
