<svg xmlns="http://www.w3.org/2000/svg" width="48" height="48" viewBox="0 0 12.7 12.7"><path d="M6.34.07a6.29 6.29 0 0 0-6.29 6.3 6.29 6.29 0 0 0 6.3 6.28 6.29 6.29 0 0 0 6.28-6.29A6.29 6.29 0 0 0 6.34.07zm-.01.94a5.4 5.4 0 0 1 5.4 5.4 5.4 5.4 0 0 1-5.4 5.41 5.4 5.4 0 0 1-5.41-5.4 5.4 5.4 0 0 1 1.71-3.94L3.77 3.6a.98.98 0 0 0-.1.42.98.98 0 0 0 .65.93v3.07a.98.98 0 0 0-.65.92.98.98 0 0 0 .98.99.98.98 0 0 0 .99-.99.98.98 0 0 0-.66-.92V4.96a.98.98 0 0 0 .1-.04l1.3 1.31a.98.98 0 0 0-.09.43.98.98 0 0 0 .99.98.98.98 0 0 0 .98-.98.98.98 0 0 0-.98-.99.98.98 0 0 0-.43.1L5.54 4.46a.98.98 0 0 0 .1-.43.98.98 0 0 0-.99-.98.98.98 0 0 0-.42.1l-1.1-1.1a5.4 5.4 0 0 1 3.2-1.04z" fill="#1a1a1a"/></svg>