<svg xmlns="http://www.w3.org/2000/svg" width="48" height="48" viewBox="0 0 12.7 12.7">
  <g fill="#1a1a1a">
    <path d="M6.3443558.07295A6.2892804 6.2892804 0 0 0 .05494145 6.36237a6.2892804 6.2892804 0 0 0 6.28941435 6.28914 6.2892804 6.2892804 0 0 0 6.2891432-6.28914A6.2892804 6.2892804 0 0 0 6.3443558.07295zm-.018184.9363a5.4070438 5.4070438 0 0 1 5.4071322 5.40711 5.4070438 5.4070438 0 0 1-5.4071322 5.40686A5.4070438 5.4070438 0 0 1 .91903946 6.41636 5.4070438 5.4070438 0 0 1 6.3261718 1.00925z"/>
    <path d="M6.35258384 1.83554685c-2.08662955 0-3.77651373 1.68987362-3.77651373 3.77651376 0 1.73388203 1.1682727 3.19030743 2.76003829 3.6344034a1.88001296 1.67923483 0 0 0-.88211686 1.44590636l3.75946057-.02428795a1.88001296 1.67923483 0 0 0-.86816405-1.41541737c1.60391817-.43612434 2.784326-1.89809303 2.784326-3.64060444 0-2.08664014-1.69040093-3.77651376-3.77703022-3.77651376zm0 2.07687569c.93851094 0 1.6996378.76112792 1.6996378 1.69963807 0 .93850988-.76112686 1.6996378-1.6996378 1.6996378-.9385112 0-1.69912107-.76112792-1.69912107-1.6996378 0-.93851015.76060987-1.69963807 1.69912107-1.69963807zm0 1.32188319c-.20771882 0-.37775488.17003474-.37775488.37775488 0 .20770982.17003606.37775461.37775488.37775461.20771855 0 .37775462-.1700448.37775462-.37775461 0-.20772014-.17003607-.37775488-.37775462-.37775488z"/>
  </g>
</svg>
