<svg xmlns="http://www.w3.org/2000/svg" width="48" height="48" version="1">
  <defs>
    <linearGradient id="a">
      <stop offset="0"/>
      <stop offset="1" stop-opacity="0"/>
    </linearGradient>
  </defs>
  <path fill="none" stroke="#1a1a1a" stroke-width=".98225111" d="M6.7121252 37.341918l7.2510568-11.314747 6.035579 5.201253 7.963479-11.72949 8.136132 4.223041 5.095987-15.7071573"/>
  <path fill="none" stroke="#1a1a1a" d="M6.7175 37.338l7.2363-4.5238 5.9212 3.3338 7.9485-9.2916 8.0622 3.057 5.3033-3.3588"/>
  <path fill="#1a1a1a" d="M15.936913 26.0008a1.9686875 2.00005 0 1 1-3.937375 0 1.9686875 2.00005 0 1 1 3.937375 0zM21.936912 31.0008a1.9686875 2.00005 0 1 1-3.937375 0 1.9686875 2.00005 0 1 1 3.937375 0zM29.999812 19.81333a1.9686875 2.00005 0 1 1-3.937374 0 1.9686875 2.00005 0 1 1 3.937374 0zM37.936813 23.0013a1.968688 2.0000505 0 1 1-3.937376 0 1.968688 2.0000505 0 1 1 3.937376 0zM15.936913 33.00084a1.9686875 2.00005 0 1 1-3.937375 0 1.9686875 2.00005 0 1 1 3.937375 0zM21.936912 36.0008a1.9686875 2.00005 0 1 1-3.937375 0 1.9686875 2.00005 0 1 1 3.937375 0zM29.936813 27.0008a1.968688 2.0000505 0 1 1-3.937376 0 1.968688 2.0000505 0 1 1 3.937376 0zM37.936813 30.0008a1.968688 2.0000505 0 1 1-3.937376 0 1.968688 2.0000505 0 1 1 3.937376 0z" color="#000"/>
  <path fill="#1a1a1a" d="M24.000977.22949251A23.770509 23.770509 0 0 0 .229492 24.000976a23.770509 23.770509 0 0 0 23.771485 23.769531 23.770509 23.770509 0 0 0 23.769531-23.769531A23.770509 23.770509 0 0 0 24.000977.22949251zm-.06836 3.53906249a20.436071 20.436071 0 0 1 20.435547 20.435546 20.436071 20.436071 0 0 1-20.435547 20.435547 20.436071 20.436071 0 0 1-20.4375-20.435547 20.436071 20.436071 0 0 1 20.4375-20.435546z"/>
</svg>
