<svg xmlns="http://www.w3.org/2000/svg" width="48" height="48" viewBox="0 0 12.7 12.7">
  <path fill="#1a1a1a" d="M6.34431561.07286377a6.28928043 6.28928043 0 0 0-6.2895386 6.2895385 6.28928043 6.28928043 0 0 0 6.2895386 6.28902166 6.28928043 6.28928043 0 0 0 6.28902167-6.28902167A6.28928043 6.28928043 0 0 0 6.3443156.07286376zm-.01808691.93637693a5.40704372 5.40704372 0 0 1 5.40690507 5.40690505 5.40704372 5.40704372 0 0 1-5.40690507 5.40690508A5.40704372 5.40704372 0 0 1 .91880694 6.41614575 5.40704372 5.40704372 0 0 1 6.3262287 1.0092407zm2.92436943 1.36167398c-.03288506-.002-.06700996.00090234-.10025248.01240235L2.81584873 4.49895007c-.13296503.0444-.20463351.18787084-.160197.32091074l.15037857.44906803c-.14963192.13887-.2439128.33671536-.2439128.55655527 0 .28468002.1573893.53380216.38964028.66404224v3.58634423c2.6e-7.14032018.1135372.25373144.25373118.25373144H9.8841511c.14013656 0 .25373118-.11343137.25373118-.25373144V5.73556705H4.0772704c-.0144579-.12154985-.05798555-.23412582-.12298997-.3312459l5.82290045-1.94458402-.30540775-.9157064c-.03332797-.0997-.12251901-.16539603-.221175-.17311605zm-.69091413.50901295l-.18603488.74982493-.77049577.25734856.18551843-.75034165.77101222-.25683184zm-1.90479307.63613665l-.18603515.74982519-.77049576.25734856.18500169-.74982493.77152922-.25734882zm-1.90479333.63562017l-.18551843.74982519-.77101222.2578653.18500142-.74982493.77152923-.25786556zM3.32176116 5.43894453c.2135468 0 .38757304.1729896.38757304.38653958 0 .21354996-.17402625.3875733-.38757304.3875733-.21348991 0-.38653984-.17402334-.38653984-.3875733 0-.21354997.17304993-.38653958.38653984-.38653958zm1.01544171.50177805h.81287037l-.41392818.65267337h-.81287037l.41392818-.65267337zm2.00762947 0h.8128701l-.41341145.65267337h-.81235337l.41289472-.65267337zm2.00814594 0h.81287037l-.41289472.65267337h-.8128701l.41289445-.65267337zM6.14536112 7.3726764l1.37097583.86092955-1.37097583.86041256V7.3726764z"/>
</svg>
