<svg xmlns="http://www.w3.org/2000/svg" width="48" height="48" viewBox="0 0 12.7 12.7">
  <path fill="#1a1a1a" d="M6.3443558.07295A6.2892804 6.2892804 0 0 0 .05494145 6.36237a6.2892804 6.2892804 0 0 0 6.28941435 6.28914 6.2892804 6.2892804 0 0 0 6.2891432-6.28914A6.2892804 6.2892804 0 0 0 6.3443558.07295zm-.018184.9363a5.4070438 5.4070438 0 0 1 5.4071322 5.40711 5.4070438 5.4070438 0 0 1-5.4071322 5.40686A5.4070438 5.4070438 0 0 1 .91903946 6.41636 5.4070438 5.4070438 0 0 1 6.3261718 1.00925z"/>
  <path fill="#4a0" d="M6.361825 6.33818H2.171933c0-2.29362 1.8962822-4.14116 4.189892-4.14116" opacity=".6"/>
  <path fill="#ff0" d="M6.361825 6.33818V2.19702c2.293617 0 4.139068 1.84755 4.139068 4.14116" opacity=".6"/>
  <path fill="red" d="M6.3618249 6.33818H2.171933c0 2.29362 1.8962819 4.14116 4.1898919 4.14116" opacity=".6"/>
  <path fill="#06f" d="M6.3618249 6.33818v4.14116c2.2936171 0 4.1390681-1.84755 4.1390681-4.14116" opacity=".6"/>
</svg>
