<svg xmlns="http://www.w3.org/2000/svg" width="48" height="48" viewBox="0 0 12.7 12.7"><path fill="#1a1a1a" d="M6.344.073a6.29 6.29 0 0 0-6.29 6.29 6.29 6.29 0 0 0 6.29 6.288 6.29 6.29 0 0 0 6.29-6.289 6.29 6.29 0 0 0-6.29-6.29zm-.018.936a5.407 5.407 0 0 1 5.407 5.407 5.407 5.407 0 0 1-5.407 5.407A5.407 5.407 0 0 1 .92 6.416 5.407 5.407 0 0 1 6.326 1.01zm.073.968c-.569 0-1.03.46-1.03 1.027a1.03 1.03 0 1 0 2.06 0 1.03 1.03 0 0 0-1.03-1.027zm-3.74 2.178a.281.281 0 0 0-.127.04c-.101.05-.168.126-.17.235 0 .11.07.204.17.255l2.742.822-.019 1.992-.942 2.983c-.047.167-.028.295.05.401.098.134.337.063.43-.073l1.562-3.22 1.532 3.214c.083.141.268.19.413.11.145-.08.151-.26.1-.401l-.937-2.997-.038-1.875 2.781-.967a.294.294 0 0 0 .112-.346c-.048-.125-.143-.158-.28-.143a.502.502 0 0 0-.17.016v-.003l-3.518.5-3.5-.508a.72.72 0 0 0-.19-.036z"/></svg>