<svg xmlns="http://www.w3.org/2000/svg" width="48" height="48" viewBox="0 0 12.7 12.7">
  <path fill="#1a1a1a" d="M6.3437318.07701A6.2670426 6.2670426 0 0 0 .07641397 6.34433a6.2670426 6.2670426 0 0 0 6.26731783 6.26628A6.2670426 6.2670426 0 0 0 12.61105 6.34433 6.2670426 6.2670426 0 0 0 6.3437318.07701zm-.01756.93224a5.3879258 5.3879258 0 0 1 5.3877832 5.38882 5.3879258 5.3879258 0 0 1-5.3877848 5.38778A5.3879258 5.3879258 0 0 1 .93735177 6.39807 5.3879258 5.3879258 0 0 1 6.3261718 1.00925zM3.3444401 2.47997v.52606h.7844481v-.52606zm2.6220619 0v1.56476h.7844482V2.47997zm2.622062 0v3.92326h.78444V2.47997zm-6.0089351.7276v1.45728H4.874054V3.20757zm2.6220622 1.16582v1.45728H7.496116V4.37339zm-1.857251.62322v5.49526h.7844481V4.99661zM5.966502 6.13143v4.36044h.7844482V6.13143zm1.8572512.57256v1.45728h2.2954588V6.70399zm.7648108 1.78078v2.0071h.78444v-2.0071z"/>
</svg>
