<svg xmlns="http://www.w3.org/2000/svg" width="48" height="48" viewBox="0 0 12.7 12.7">
  <path fill="#1a1a1a" d="M6.34431561.07286377a6.28928043 6.28928043 0 0 0-6.2895386 6.2895385 6.28928043 6.28928043 0 0 0 6.2895386 6.28902166 6.28928043 6.28928043 0 0 0 6.28902167-6.28902167A6.28928043 6.28928043 0 0 0 6.3443156.07286376zm-.01808691.93637693a5.40704372 5.40704372 0 0 1 5.40690507 5.40690505 5.40704372 5.40704372 0 0 1-5.40690507 5.40690508A5.40704372 5.40704372 0 0 1 .91880694 6.41614575 5.40704372 5.40704372 0 0 1 6.3262287 1.0092407zM5.07100834 2.6840738c-.18892467 0-.34106459.15213461-.34106459.34106457V5.2415405h-1.8753378c-.18892387 0-.34106432.15213436-.34106432.34106432v4.09225666c0 .18892996.15214045.34106458.34106432.34106458H7.6289915c.1889244 0 .34106459-.15213462.34106459-.34106458V7.4656941l1.8753378-.00723476c.1889244-.00062998.34106432-.15213436.34106432-.34106432V3.0256551c0-.18892996-.1521378-.34106459-.34106432-.34106459L5.07100834 2.6840738zm0 1.10845942h4.77438555c.04721384 0 .08526595.03826616.08526595.08526621v3.2395956c0 .04719981-.03804312.08506592-.08526595.08526595l-1.8753378.00671803v-1.6267742c0-.1889199-.15214018-.34106432-.34106459-.34106432H4.96868894l.01705318-1.3642578c.0005797-.04720007.03803703-.08474947.08526622-.08474947zm-2.21640239 2.5574667H7.6289915c.04723421 0 .08526622.03826616.08526622.08526621v3.23959534c0 .04710006-.0380381.0852662-.08526622.0852662H2.85460595c-.04723289 0-.08526595-.03826615-.08526595-.0852662V6.43526613c0-.04710006.03803703-.08526621.08526595-.08526621z"/>
</svg>
