<svg xmlns="http://www.w3.org/2000/svg" width="48" height="48" viewBox="0 0 12.7 12.7">
  <path fill="#1a1a1a" d="M6.34431561.07286377a6.28928043 6.28928043 0 0 0-6.2895386 6.2895385 6.28928043 6.28928043 0 0 0 6.2895386 6.28902166 6.28928043 6.28928043 0 0 0 6.28902167-6.28902167A6.28928043 6.28928043 0 0 0 6.3443156.07286376zm-.01808691.93637693a5.40704372 5.40704372 0 0 1 5.40690507 5.40690505 5.40704372 5.40704372 0 0 1-5.40690507 5.40690508A5.40704372 5.40704372 0 0 1 .91880694 6.41614575 5.40704372 5.40704372 0 0 1 6.3262287 1.0092407zM3.325895 2.87114241c-.55844306 0-1.00820705.45756406-1.00820705 1.02629413v5.13353652c0 .56873007.44976399 1.02629413 1.00820706 1.02629413h6.04820982c.55844307 0 1.00820695-.45756406 1.00820695-1.02629413V3.89743654c0-.56873007-.44976388-1.02629413-1.00820695-1.02629413H3.32589501zm.41754584.57360846h5.23688938c.48351546 0 .8728149.38926505.8728149.8728149v4.36407475c0 .48354005-.38929944.87229816-.8728149.87229816H3.74344084c-.48351572 0-.87281516-.3887581-.87281516-.87229816V4.31756576c0-.48354984.38929944-.8728149.87281516-.8728149zm1.96370414.43666594l-.8728149 1.30896412h.65474056v1.30896384h-.8728149v-.65422355l-1.30896412.8728149 1.30896412.87229816v-.65422356h.8728149v.8728149h-.65474056l.8728149 1.30896411.87281516-1.30896411h-.65422382v-.8728149h2.181779v.65422356l1.30896412-.87229817-1.30896411-.8728149v.65422356H5.92573632V5.19038093h.65422382L5.70714498 3.8814168z"/>
</svg>
