<svg xmlns="http://www.w3.org/2000/svg" width="48" height="48" viewBox="0 0 12.7 12.7">
  <path fill="#1a1a1a" d="M6.34431561.07286377a6.28928043 6.28928043 0 0 0-6.2895386 6.2895385 6.28928043 6.28928043 0 0 0 6.2895386 6.28902166 6.28928043 6.28928043 0 0 0 6.28902167-6.28902167A6.28928043 6.28928043 0 0 0 6.3443156.07286376zm-.01808691.93637693a5.40704372 5.40704372 0 0 1 5.40690507 5.40690505 5.40704372 5.40704372 0 0 1-5.40690507 5.40690508A5.40704372 5.40704372 0 0 1 .91880694 6.41614575 5.40704372 5.40704372 0 0 1 6.3262287 1.0092407zM3.63388667 2.71094567c-.11184625.00788987-.22190921.04350517-.31936028.10697025-.03692498.02439987-.07212912.05278278-.10490332.08578267l-.13229167.1312582c-.26223091.26031005-.26315114.68009452-.00206692.94154466L5.61671145 6.5215658c.1818767.18214974.44029603.23429727.66972656.16329739l2.22208643 2.2200195.0656291.24236256a.16795382.16805404 89.982474 0 0 .0656291.09301745l.72915435.5048787a.16795382.16805404 89.982474 0 0 .21445722-.01860338l.31729336-.3162599a.16795382.16805404 89.982474 0 0 .01756992-.21600741l-.49402655-.72708743a.16795382.16805404 89.982474 0 0-.09405117-.06511237l-.25114753-.07389733-2.21950277-2.21691885c.06785319-.2260899.0151093-.47968111-.16433085-.65939114L4.15426837 2.90679925c-.11422274-.11456009-.25934616-.17877975-.40824387-.19326992v-.00103347c-.03722423-.00362505-.07485565-.00418015-.11213783-.00155019zm4.66379793.0501261v.00206693c-.00880005 0-.0213143.00098081-.02997227.00310065-.40110462.14074008-.77679628.42872898-.95601392.75240885-.14192011.25640003-.17047421.54298717-.10128594.8133871-.07748402.19619991-.21259588.46078536-.50281178.75137538l.28680437.31987701c.15196714.27179005.1758016.4884404.14831139.67231048.3219479-.32235008.90515227-.72882786 1.11052635-.79891783.50372988.0868 1.01812512-.12521724 1.26297212-.56740716.1792904-.32385.22267174-.79584099.12557363-1.20561098-.00348007-.01450023-.01058863-.03110786-.02067057-.04030769-.01882193-.0212-.04686274-.02902161-.0749308-.02532141-.02806805.00199998-.0519459.01624091-.0656291.04134114l-.49247636.89038482c-.04393988.0791001-.1441032.11498421-.27130136.11110436-.1279615-.00199998-.27910843-.05070528-.43253157-.13332513-.15338954-.08270001-.27439805-.18531495-.34674889-.28990475-.07166398-.10387012-.09549844-.20712747-.0516763-.28628763l.48782552-.88004966c.01821074-.0318.01786757-.0723421-.00568458-.10025221-.01767893-.0212-.04395893-.03127243-.07027994-.02997226zM5.20640039 6.49469394l-2.0887613 1.9730061c-.22317075.22504002-.19282913.60904992.06459564.86402993.2574229.25501018.6419035.2823509.8650634.05736087l2.24017334-2.4107055c-.41039705.13104997-.76653283-.05858457-1.08107108-.48317467v-.00051673zM3.6421549 8.5390137v.00103346c.0838589-.0003601.16752305.03146769.23151042.0945679.12798186.12676981.12891399.33460399.00206719.46250383-.12684734.12779005-.3345315.12948365-.4625041.00103373-.1279861-.12677007-.12891558-.3346241-.00206719-.4625041.06342115-.06400006.14713452-.09633505.23099368-.09663482z"/>
</svg>
