<svg xmlns="http://www.w3.org/2000/svg" width="48" height="48" viewBox="0 0 12.7 12.7">
  <path fill="#1a1a1a" d="M6.34431561.07286377a6.28928043 6.28928043 0 0 0-6.2895386 6.2895385 6.28928043 6.28928043 0 0 0 6.2895386 6.28902166 6.28928043 6.28928043 0 0 0 6.28902167-6.28902167A6.28928043 6.28928043 0 0 0 6.3443156.07286376zm-.01808691.93637693a5.40704372 5.40704372 0 0 1 5.40690507 5.40690505 5.40704372 5.40704372 0 0 1-5.40690507 5.40690508A5.40704372 5.40704372 0 0 1 .91880694 6.41614575 5.40704372 5.40704372 0 0 1 6.3262287 1.0092407zM3.29798993 3.7325887a1.12447907 1.12447907 0 0 0-1.1244792 1.12447915 1.12447907 1.12447907 0 0 0 .33899739.80305168h-.1157552c-.30165921 0-.54466961.24298963-.54466961.54466966v1.159619c0 .30163002.2430104.54466965.5446696.54466965h1.90944424c.3016586 0 .54466939-.24303963.54466939-.54466966V6.20478918c0-.30168003-.2430108-.54466966-.5446694-.54466966H4.0850219a1.12447907 1.12447907 0 0 0 .3374472-.80305168A1.12447907 1.12447907 0 0 0 3.29798993 3.7325887zM6.1448444 5.66011952c-.30165913 0-.5446694.24298963-.5446694.54466966v.40979407c0 .30169008.24301027.54466966.5446694.54466966h4.15840248c.30166019 0 .54466966-.24297958.54466966-.54466966v-.40979407c0-.30168003-.24300947-.54466966-.54466966-.54466966H6.1448444z"/>
</svg>
