<svg xmlns="http://www.w3.org/2000/svg" width="48" height="48" viewBox="0 0 12.7 12.7">
  <defs>
    <linearGradient id="a">
      <stop offset="0"/>
      <stop offset="1" stop-opacity="0"/>
    </linearGradient>
    <linearGradient id="b">
      <stop offset="0" stop-color="#888a85"/>
      <stop offset="1" stop-color="#555753"/>
    </linearGradient>
  </defs>
  <path fill="#1a1a1a" d="M6.34431561.07286377a6.28928043 6.28928043 0 0 0-6.2895386 6.2895385 6.28928043 6.28928043 0 0 0 6.2895386 6.28902166 6.28928043 6.28928043 0 0 0 6.28902167-6.28902167A6.28928043 6.28928043 0 0 0 6.3443156.07286376zm-.01808691.93637693a5.40704372 5.40704372 0 0 1 5.40690507 5.40690505 5.40704372 5.40704372 0 0 1-5.40690507 5.40690508A5.40704372 5.40704372 0 0 1 .91880694 6.41614575 5.40704372 5.40704372 0 0 1 6.3262287 1.0092407zM3.882967 2.52646074c-.1826215-.004-.36808382.0144938-.54363592.05529378-.01644094.004-.03329437.01133764-.04547526.02273763-.02132118.0213-.0365379.05378292-.0289388.08578295.00334989.03210004.01746514.05871395.04547526.07441406l1.01389152.56740715c.09056396.05059998.13519044.16439171.12609036.30954186-.00491993.14601005-.05938308.31781644-.15451243.49247636-.09510104.17463003-.21248925.3133246-.33227936.3953248-.11855688.08129985-.23633509.10771082-.32659504.05736087l-1.00252286-.5612061c-.03622699-.02069995-.08291187-.02099893-.11472166.00620103-.02484001.02010013-.03710644.05009859-.03410646.08009863h-.00206703c0 .00999993.00015285.02420647.00775144.03410638.1589078.45845994.48516153.88833668.85369463 1.0945069.2918489.16320002.61918187.19800595.92810884.12040604.21070252.08429996.49144158.23271639.7994343.5276162l-.00051673.00051674.27336829.23099368c.27060736-.34107993.49759896-.55660924.73690585-.79064934l-.21497396-.22944322-.00310065-.00310065c-.30972469-.34537994-.43498822-.70416763-.5079791-.92190754.1016307-.5744001-.13833844-1.16215953-.64182147-1.44383944-.23043726-.1289001-.52710476-.197462-.83147375-.20412202v-.00051675zm5.72988275.26820068v.00051673c-.47085012-.01330007-1.10951803.12066244-1.21336248.94826269l-1.6634645 1.27124009-.19430339.18345123C5.04773347 6.4943423 2.76623935 9.67951231 2.76623935 9.67951231c-.09907984.23468012.18848943.40464105.34726562.25218099 0 0 2.85355106-2.59518755 4.17855633-3.93877742v-.00051673l.18965254-.21549096 1.39784744-1.66501443c.00696992-.00086016.01660578-.00074718.02222077-.00206718.25067683-.04129988.46678585-.24545502.58394361-.62683522.13412311-.43588992.45272589-.64696207.5203817-.64647206-.09309391-.01639993-.2333842-.03725783-.39325761-.04185788zM7.22539874 6.3722207c-.26330301.29284003-.55218144.58565943-.87849947.87849947l2.62206234 2.80189619c.25565285.25587986.69374172.22223994.98598618-.07027995.29249978-.29247015.3259328-.73070322.07027995-.98650318l-2.799829-2.62361253zm2.20193258 2.70887874c.095649 0 .19094477.03629713.26354987.10903717.14536155.14540997.14536155.38272323 0 .5281332-.14528297.14538986-.38225412.14538986-.52761646 0-.14521207-.14542002-.14521207-.38273328 0-.5281332.07267019-.07270009.16841655-.10903717.2640666-.10903717z"/>
</svg>
