<svg xmlns="http://www.w3.org/2000/svg" width="48" height="48" viewBox="0 0 12.7 12.7"><path fill="#1a1a1a" d="M6.344.073a6.29 6.29 0 0 0-6.29 6.29 6.29 6.29 0 0 0 6.29 6.288 6.29 6.29 0 0 0 6.29-6.289 6.29 6.29 0 0 0-6.29-6.29zm-.018.936a5.407 5.407 0 0 1 5.407 5.407 5.407 5.407 0 0 1-5.407 5.407A5.407 5.407 0 0 1 .92 6.416 5.407 5.407 0 0 1 6.326 1.01zm2.727 2.38v.008a.446.446 0 0 0-.064 0v.001a.446.446 0 0 0-.223.14L6.397 5.901l-1.476-1.47a.446.446 0 1 0-.614.613L6.091 6.83a.446.446 0 0 0 .613 0l2.675-2.675a.446.446 0 0 0-.326-.766z"/></svg>