<svg xmlns="http://www.w3.org/2000/svg" width="48" height="48" viewBox="0 0 12.7 12.7">
  <path fill="#1a1a1a" d="M6.34431561.07286377a6.28928043 6.28928043 0 0 0-6.2895386 6.2895385 6.28928043 6.28928043 0 0 0 6.2895386 6.28902166 6.28928043 6.28928043 0 0 0 6.28902167-6.28902167A6.28928043 6.28928043 0 0 0 6.3443156.07286376zm-.01808691.93637693a5.40704372 5.40704372 0 0 1 5.40690507 5.40690505 5.40704372 5.40704372 0 0 1-5.40690507 5.40690508A5.40704372 5.40704372 0 0 1 .91880694 6.41614575 5.40704372 5.40704372 0 0 1 6.3262287 1.0092407zm.84904393.84232585l-3.49849462 2.6241293H1.9275309V8.224304H3.676778l3.49849462 2.62412926v-8.9968667zm2.6106932 2.11253255l-.53020013.53020013c1.023153 1.02317998 1.023153 2.6881415 0 3.71140138l.53020013.53020013c1.31562023-1.31544985 1.31562023-3.4563518 0-4.77180164zM8.72556558 5.02501635l-.53020039.52968339c.21232257.21235987.3296957.49479014.3296957.79530018 0 .30051004-.11737313.58294031-.3296957.79530018l.5302004.5296834c.35396777-.35363997.5488035-.82419348.5488035-1.32498358s-.19483573-.97134361-.5488035-1.32498357z"/>
</svg>
