<svg xmlns="http://www.w3.org/2000/svg" width="48" height="48" viewBox="0 0 12.7 12.7">
  <path fill="#1a1a1a" d="M6.34431561.07286377a6.28928043 6.28928043 0 0 0-6.2895386 6.2895385 6.28928043 6.28928043 0 0 0 6.2895386 6.28902166 6.28928043 6.28928043 0 0 0 6.28902167-6.28902167A6.28928043 6.28928043 0 0 0 6.3443156.07286376zm-.01808691.93637693a5.40704372 5.40704372 0 0 1 5.40690507 5.40690505 5.40704372 5.40704372 0 0 1-5.40690507 5.40690508A5.40704372 5.40704372 0 0 1 .91880694 6.41614575 5.40704372 5.40704372 0 0 1 6.3262287 1.0092407zM3.4085773 3.04374176c-.37085217 0-.66920956.2988765-.66920956.66972655v4.57956544c0 .3708601.2983574.66920982.66920956.66920982h1.68000096v.80098476H3.52174885v.61856672h5.8347858v-.61856672H7.74836409v-.80098476h1.63969328c.37085243 0 .66920982-.29834972.66920982-.66920982V3.71346831c0-.37085005-.29835739-.66972655-.66920982-.66972655H3.4085773zm.50797935.66662616h5.0007284c.28646569 0 .51728104.23030445.51728104.51676406v3.53725184c0 .28646014-.23081535.51728105-.51728105.51728105H3.91655665c-.28646542 0-.51728104-.23082091-.51728104-.51728105V4.22713198c0-.28645961.23081562-.51676406.51728104-.51676406zm.66145833.43666569l-.08526595.50436197-.50436197.07079668.50436197.09715182.09198399.50436197.07596425-.50436197.50436197-.07803144-.50436197-.08991706-.08268229-.50436197zm2.35231117.41444491l-.08474922.50436197-.50384524.07079668.50384524.09715183.09250072.50384524.07596452-.50384524.50384497-.07803145-.50384497-.08991706-.08371602-.50436197zm1.58388286.49971113c.07134278.17112006.10852044.36068555.10852044.55810546 0 .78958995-.63077883 1.4298869-1.4086996 1.4298869-.22718764 0-.43982533-.05379509-.6299356-.15089505.21402755.51334987.71623846.87126444 1.29966216.87126444.7779041 0 1.4086996-.63979001 1.4086996-1.4293699 0-.55900002-.31740105-1.04371192-.778247-1.27899185zm-2.92798682.2625164l-.08526594.50332851-.50436198.07183014.50436198.09663483.09250071.50384524.07544752-.50384524.50436198-.07803144-.50436198-.09043353-.08268229-.5033285zm-1.51256918.83974198l-.08526595.50436198-.50436197.0713134.50436197.0966351.09301744.50436197.0749308-.50436197.50436197-.07803145-.50436197-.08991705-.0826823-.50436198z"/>
</svg>
