<svg xmlns="http://www.w3.org/2000/svg" width="48" height="48" viewBox="0 0 12.7 12.7"><g transform="translate(0 -284.3)"><path fill="#1a1a1a" d="M6.344 284.373a6.29 6.29 0 0 0-6.29 6.29 6.29 6.29 0 0 0 6.29 6.289 6.29 6.29 0 0 0 6.29-6.29 6.29 6.29 0 0 0-6.29-6.289zm-.018.936a5.407 5.407 0 0 1 5.407 5.407 5.407 5.407 0 0 1-5.407 5.407 5.407 5.407 0 0 1-5.407-5.407 5.407 5.407 0 0 1 5.407-5.407z"/><circle cx="-8.136" cy="292.096" r="2.679" fill="#0ff" color="#000" opacity=".6" overflow="visible" style="marker:none" transform="scale(-1 1)"/><circle cx="-4.564" cy="292.096" r="2.679" fill="#f0f" color="#000" opacity=".4" overflow="visible" style="marker:none" transform="scale(-1 1)"/><circle cx="-6.31" cy="288.513" r="2.679" fill="#ff0" color="#000" opacity=".6" overflow="visible" style="marker:none" transform="scale(-1 1)"/></g></svg>