<svg xmlns="http://www.w3.org/2000/svg" width="48" height="48" viewBox="0 0 12.7 12.7">
  <g transform="translate(0 -284.3)">
    <path fill="#1a1a1a" d="M6.3443558 284.37295a6.2892804 6.2892804 0 0 0-6.28941435 6.28942 6.2892804 6.2892804 0 0 0 6.28941435 6.28914 6.2892804 6.2892804 0 0 0 6.2891432-6.28914 6.2892804 6.2892804 0 0 0-6.2891432-6.28942zm-.018184.9363a5.4070438 5.4070438 0 0 1 5.4071322 5.40711 5.4070438 5.4070438 0 0 1-5.4071322 5.40686 5.4070438 5.4070438 0 0 1-5.40713234-5.40686 5.4070438 5.4070438 0 0 1 5.40713234-5.40711z"/>
    <circle cx="-8.1359377" cy="292.09555" r="2.6789067" fill="#0ff" color="#000" opacity=".6" overflow="visible" style="marker:none" transform="scale(-1 1)"/>
    <circle cx="-4.5640616" cy="292.09555" r="2.6789067" fill="#f0f" color="#000" opacity=".4" overflow="visible" style="marker:none" transform="scale(-1 1)"/>
    <circle cx="-6.3096414" cy="288.51328" r="2.6789067" fill="#ff0" color="#000" opacity=".6" overflow="visible" style="marker:none" transform="scale(-1 1)"/>
  </g>
</svg>
