<svg xmlns="http://www.w3.org/2000/svg" width="48" height="48" viewBox="0 0 12.7 12.7"><path fill="#1a1a1a" d="M6.344.073a6.29 6.29 0 0 0-6.29 6.29 6.29 6.29 0 0 0 6.29 6.288 6.29 6.29 0 0 0 6.29-6.289 6.29 6.29 0 0 0-6.29-6.29zm-.018.936a5.407 5.407 0 0 1 5.407 5.407 5.407 5.407 0 0 1-5.407 5.407A5.407 5.407 0 0 1 .92 6.416 5.407 5.407 0 0 1 6.326 1.01zm.024.765A4.582 4.582 0 0 0 1.773 6.35a4.582 4.582 0 0 0 4.577 4.576 4.582 4.582 0 0 0 4.576-4.576A4.582 4.582 0 0 0 6.35 1.774zm0 1.982a1.376 1.376 0 0 1 .836 2.463l.408 2.877H5.107l.407-2.877a1.37 1.37 0 0 1-.537-1.089c0-.757.616-1.374 1.373-1.374z"/></svg>