<svg xmlns="http://www.w3.org/2000/svg" width="48" height="48" viewBox="0 0 12.7 12.7">
  <path fill="#1a1a1a" d="M6.34431561.07286377a6.28928043 6.28928043 0 0 0-6.2895386 6.2895385 6.28928043 6.28928043 0 0 0 6.2895386 6.28902166 6.28928043 6.28928043 0 0 0 6.28902167-6.28902167A6.28928043 6.28928043 0 0 0 6.3443156.07286376zm-.01808691.93637693a5.40704372 5.40704372 0 0 1 5.40690507 5.40690505 5.40704372 5.40704372 0 0 1-5.40690507 5.40690508A5.40704372 5.40704372 0 0 1 .91880694 6.41614575 5.40704372 5.40704372 0 0 1 6.3262287 1.0092407zm.02377122.76429443c-2.52356326 0-4.57698154 2.05341165-4.57698154 4.57698152 0 2.52356008 2.05341828 4.57646479 4.57698154 4.57646479 2.523563 0 4.57646479-2.0529047 4.57646479-4.57646479 0-2.52356987-2.0529018-4.57698152-4.57646479-4.57698152zm0 1.98282479c.75697714 0 1.37304276.61694614 1.37304276 1.37407621 0 .4292899-.19870394.82944255-.53691816 1.08882232l.40772714 2.87682698H5.10666491l.40772714-2.87682698c-.33821422-.25938983-.53743489-.65953242-.53743489-1.08882232 0-.75713986.61606535-1.37407621 1.37304276-1.37407621z"/>
</svg>
