<?xml version="1.0" encoding="UTF-8" standalone="no"?>
<!-- Created with Inkscape (http://www.inkscape.org/) -->

<svg
   xmlns:dc="http://purl.org/dc/elements/1.1/"
   xmlns:cc="http://creativecommons.org/ns#"
   xmlns:rdf="http://www.w3.org/1999/02/22-rdf-syntax-ns#"
   xmlns:svg="http://www.w3.org/2000/svg"
   xmlns="http://www.w3.org/2000/svg"
   xmlns:sodipodi="http://sodipodi.sourceforge.net/DTD/sodipodi-0.dtd"
   xmlns:inkscape="http://www.inkscape.org/namespaces/inkscape"
   width="48"
   height="48"
   viewBox="0 0 12.7 12.7"
   version="1.1"
   id="svg829"
   inkscape:version="0.92.3 (2405546, 2018-03-11)"
   sodipodi:docname="preferences-desktop-screensaver.svg">
  <defs
     id="defs823">
    <linearGradient
       id="linearGradient6112"
       x1="12.938"
       x2="15.25"
       y1="8.4375"
       y2="19.812"
       gradientTransform="matrix(0.12436024,0,0,0.1649413,3.365346,288.53634)"
       gradientUnits="userSpaceOnUse">
      <stop
         id="stop6594"
         style="stop-color:#fff;stop-opacity:.27451"
         offset="0" />
      <stop
         id="stop6596"
         style="stop-color:#fff;stop-opacity:0"
         offset="1" />
    </linearGradient>
  </defs>
  <sodipodi:namedview
     id="base"
     pagecolor="#ffffff"
     bordercolor="#666666"
     borderopacity="1.0"
     inkscape:pageopacity="0.0"
     inkscape:pageshadow="2"
     inkscape:zoom="5.5729167"
     inkscape:cx="24"
     inkscape:cy="24"
     inkscape:document-units="mm"
     inkscape:current-layer="layer1"
     showgrid="false"
     showguides="true"
     inkscape:guide-bbox="true"
     inkscape:window-width="1366"
     inkscape:window-height="714"
     inkscape:window-x="0"
     inkscape:window-y="25"
     inkscape:window-maximized="1"
     scale-x="1.9"
     units="px" />
  <metadata
     id="metadata826">
    <rdf:RDF>
      <cc:Work
         rdf:about="">
        <dc:format>image/svg+xml</dc:format>
        <dc:type
           rdf:resource="http://purl.org/dc/dcmitype/StillImage" />
        <dc:title></dc:title>
      </cc:Work>
    </rdf:RDF>
  </metadata>
  <g
     inkscape:label="Capa 1"
     inkscape:groupmode="layer"
     id="layer1"
     transform="translate(0,-284.3)">
    <path
       style="fill:#1a1a1a;fill-opacity:1;stroke-width:0.52516764"
       d="M 23.978516 0.27539062 A 23.770509 23.770509 0 0 0 0.20703125 24.046875 A 23.770509 23.770509 0 0 0 23.978516 47.816406 A 23.770509 23.770509 0 0 0 47.748047 24.046875 A 23.770509 23.770509 0 0 0 23.978516 0.27539062 z M 23.910156 3.8144531 A 20.436071 20.436071 0 0 1 44.345703 24.25 A 20.436071 20.436071 0 0 1 23.910156 44.685547 A 20.436071 20.436071 0 0 1 3.4726562 24.25 A 20.436071 20.436071 0 0 1 23.910156 3.8144531 z M 12.882812 11.503906 C 11.481166 11.503906 10.353516 12.633518 10.353516 14.035156 L 10.353516 31.34375 C 10.353516 32.745426 11.481166 33.873047 12.882812 33.873047 L 19.232422 33.873047 L 19.232422 36.900391 L 13.310547 36.900391 L 13.310547 39.238281 L 35.363281 39.238281 L 35.363281 36.900391 L 29.285156 36.900391 L 29.285156 33.873047 L 35.482422 33.873047 C 36.884069 33.873047 38.011719 32.745426 38.011719 31.34375 L 38.011719 14.035156 C 38.011719 12.633518 36.884069 11.503906 35.482422 11.503906 L 12.882812 11.503906 z M 14.802734 14.023438 L 33.703125 14.023438 C 34.78583 14.023438 35.658203 14.89388 35.658203 15.976562 L 35.658203 29.345703 C 35.658203 30.428387 34.78583 31.300781 33.703125 31.300781 L 14.802734 31.300781 C 13.72003 31.300781 12.847656 30.428387 12.847656 29.345703 L 12.847656 15.976562 C 12.847656 14.89388 13.72003 14.023438 14.802734 14.023438 z M 17.302734 15.673828 L 16.980469 17.580078 L 15.074219 17.847656 L 16.980469 18.214844 L 17.328125 20.121094 L 17.615234 18.214844 L 19.521484 17.919922 L 17.615234 17.580078 L 17.302734 15.673828 z M 26.193359 17.240234 L 25.873047 19.146484 L 23.96875 19.414062 L 25.873047 19.78125 L 26.222656 21.685547 L 26.509766 19.78125 L 28.414062 19.486328 L 26.509766 19.146484 L 26.193359 17.240234 z M 32.179688 19.128906 C 32.44933 19.775659 32.589844 20.492127 32.589844 21.238281 C 32.589844 24.222558 30.205798 26.642578 27.265625 26.642578 C 26.406963 26.642578 25.603293 26.439258 24.884766 26.072266 C 25.693689 28.012486 27.591809 29.365234 29.796875 29.365234 C 32.736985 29.365234 35.121094 26.94713 35.121094 23.962891 C 35.121094 21.850135 33.921468 20.018153 32.179688 19.128906 z M 21.113281 20.121094 L 20.791016 22.023438 L 18.884766 22.294922 L 20.791016 22.660156 L 21.140625 24.564453 L 21.425781 22.660156 L 23.332031 22.365234 L 21.425781 22.023438 L 21.113281 20.121094 z M 15.396484 23.294922 L 15.074219 25.201172 L 13.167969 25.470703 L 15.074219 25.835938 L 15.425781 27.742188 L 15.708984 25.835938 L 17.615234 25.541016 L 15.708984 25.201172 L 15.396484 23.294922 z "
       transform="matrix(0.26458333,0,0,0.26458333,0,284.3)"
       id="path1374" />
  </g>
</svg>
