<svg xmlns="http://www.w3.org/2000/svg" width="48" height="48" viewBox="0 0 12.7 12.7">
  <path fill="#1a1a1a" d="M6.34431561.07286377a6.28928043 6.28928043 0 0 0-6.2895386 6.2895385 6.28928043 6.28928043 0 0 0 6.2895386 6.28902166 6.28928043 6.28928043 0 0 0 6.28902167-6.28902167A6.28928043 6.28928043 0 0 0 6.3443156.07286376zm-.01808691.93637693a5.40704372 5.40704372 0 0 1 5.40690507 5.40690505 5.40704372 5.40704372 0 0 1-5.40690507 5.40690508A5.40704372 5.40704372 0 0 1 .91880694 6.41614575 5.40704372 5.40704372 0 0 1 6.3262287 1.0092407zm-.14159336 2.39571948c-.07285196.00499983-.12688252.04319773-.15347897.12970774-.93016916 1.55442998-1.8493589 3.11541818-2.78690993 4.66534839-.22816899.32474984-.43406059.74736773-.85059413.85317778-.15481829-.0537001-.15878661.20537831-.09250082.23822845h1.69085295c.03103986-.17055015-.0152691-.27107382-.21445722-.23099368-.38682083.0614-.34600964-.39278983-.20050469-.61650006.17623367-.35310974.38355825-.6902524.57360846-1.0361123H6.0874835c.06301026.42546985.16263726.84719795.19378666 1.27640794.08010816.35057-.31285074.38265364-.5586222.39067369-.0723339-.01530006-.0967449.25827434.01291908.21652441H7.7602497v-.0124026c.0329213.0030652.06509332.00826822.09921875.00826822.21864134 0 .448741-.06861624.69039712-.20670572.16110426-.0920594.34780167-.23335721.56068938-.42322988 0 .2704248.07467891.45460787.22427565.55242115.08055213.05178346.19308736.07751445.33693047.07751445.1035669 0 .20397708-.02018532.3017901-.06046126.15535063-.06329098.3107711-.1869178.46612147-.37103684V8.6315144c-.06329071.05178346-.12384695.0921541-.1813843.12092278-.05753709.02876868-.1261536.0428916-.20670573.0428916-.11507417 0-.18723874-.03733958-.21600742-.11213808-.02301478-.08055187-.0346231-.20972462-.0346231-.38809004V6.61199933c0-.40276012-.0544936-.69896169-.1638144-.88883463-.18987267-.32796188-.56378447-.49195962-1.12189523-.49195962-.44879021 0-.80857909.11808115-1.0790039.35398365-.21864134.18987267-.3276285.39121-.3276285.60409745 0 .08630576.03127692.17259327.09456764.25889903.06329098.08055213.15564088.12092278.27646894.12092278.1093208 0 .20115397-.03785632.27595221-.11265455.07479824-.0747985.11213782-.16108574.11213782-.25889903-.01150752-.04602982-.02311585-.09749207-.0346231-.15502916-.0057539-.06329098-.00826823-.12384722-.00826823-.1813843 0-.12658196.06307058-.22750886.18965253-.3023071.1265817-.08055213.26787951-.12040605.42322988-.12040605.17261152 0 .31642393.04288525.4314981.12919101.15535063.12082806.23306088.31661946.23306088.58704426v.52658274c-.81702804.32220826-1.35242325.56946191-1.6055869.7420737-.22806263.15679313-.38499018.3400761-.47180579.54983723-.1233514-.71659776-.23859754-1.4346039-.36121816-2.15129002-.13349022-.80377981-.26701009-1.60795888-.40049238-2.41173896-.02818288-.0050001-.05426418-.00716757-.07854817-.00516758zm-.52864993 1.2908772c.1291246.76299985.25792932 1.52571924.38705657 2.28874925H4.33513595c.44021348-.76301017.88066217-1.52571924 1.32084946-2.28874925zm3.44630133 2.19211416v1.25160324c0 .13808922-.017671.24153071-.0521933.31057532-.0345223.06329098-.11474714.12384696-.24132884.18138431-.06329097.0345223-.14706388.0693473-.25063079.1038696-.10356691.0345223-.19843141.05167656-.28473717.05167656-.161104 0-.29633915-.06358758-.40565996-.19016927-.10932054-.12658196-.16381412-.29309404-.16381412-.50022812-2.6e-7-.20713383.07164758-.3913169.21549069-.5524209.21864134-.24741001.6132552-.46641807 1.18287349-.65629074z"/>
</svg>
