<svg xmlns="http://www.w3.org/2000/svg" width="48" height="48" viewBox="0 0 12.7 12.7">
  <path fill="#1a1a1a" d="M6.34431561.07286377a6.28928043 6.28928043 0 0 0-6.2895386 6.2895385 6.28928043 6.28928043 0 0 0 6.2895386 6.28902166 6.28928043 6.28928043 0 0 0 6.28902167-6.28902167A6.28928043 6.28928043 0 0 0 6.3443156.07286376zm-.01808691.93637693a5.40704372 5.40704372 0 0 1 5.40690507 5.40690505 5.40704372 5.40704372 0 0 1-5.40690507 5.40690508A5.40704372 5.40704372 0 0 1 .91880694 6.41614575 5.40704372 5.40704372 0 0 1 6.3262287 1.0092407zM2.79569489 3.10368655c-.24940284 0-.45010165.20120848-.45010165.45061848v5.5205931c0 .24939995.2006991.4497218.45010165.45010175l3.86126297.0062013c-.15902093-.13123015-.25282975-.32212438-.29042148-.62218437h-2.9176514c-.20412392 0-.36845292-.16432291-.36845292-.36845292V4.02197671c0-.20413001.164329-.36845293.36845292-.36845293h5.77897538c.40729879 0 .25706255.35618896.31160905.48885898.39255224-.01730005.57936844.10697713.76636139.3374472l.00103346-.69556497v-.22995996c0-.24941-.2006981-.45061848-.45010176-.45061848H2.7956949zm4.98987623 1.30689692c-.60172175 0-1.08623865.48394858-1.08623865 1.08623866v1.0862384h1.62935812V4.41058347h-.54311947zm1.08623866 0v2.17247706h1.62935786v-1.0862384c0-.60229008-.48451637-1.08623866-1.08623866-1.08623866h-.5431192zM6.69933247 7.12566326V8.3478107c0 1.20290007.84710216 2.03656827 1.90065922 2.03656827 1.05301308 0 1.90117595-.83365815 1.90117595-2.03656827V7.12566326H6.69933247z"/>
</svg>
