<svg xmlns="http://www.w3.org/2000/svg" width="48" height="48" viewBox="0 0 12.7 12.7">
  <path fill="#1a1a1a" d="M6.34431561.07286377a6.28928043 6.28928043 0 0 0-6.2895386 6.2895385 6.28928043 6.28928043 0 0 0 6.2895386 6.28902166 6.28928043 6.28928043 0 0 0 6.28902167-6.28902167A6.28928043 6.28928043 0 0 0 6.3443156.07286376zm-.01808691.93637693a5.40704372 5.40704372 0 0 1 5.40690507 5.40690505 5.40704372 5.40704372 0 0 1-5.40690507 5.40690508A5.40704372 5.40704372 0 0 1 .91880694 6.41614575 5.40704372 5.40704372 0 0 1 6.3262287 1.0092407zM3.4085773 3.04374176c-.37085217 0-.66920956.2988765-.66920956.66972655v4.57956544c0 .3708601.2983574.66920982.66920956.66920982h1.68000096v.80098476H3.52174885v.61856672h5.8347858v-.61856672H7.74836409v-.80098476h1.63969328c.37085243 0 .66920982-.29834972.66920982-.66920982V3.71346831c0-.37085005-.29835739-.66972655-.66920982-.66972655H3.4085773zm.50797935.66662616h3.77961441v1.69498696H9.4345661v2.35902894c0 .28646014-.23081535.51728105-.51728105.51728105H3.91655665c-.28646542 0-.51728104-.23082091-.51728104-.51728105V4.22713198c0-.28645961.23081562-.51676406.51728104-.51676406zm4.01939306 0h.98133533c.2864657 0 .51728105.23030445.51728105.51676406v.98236906L7.93594971 3.71036792z"/>
</svg>
