<svg xmlns="http://www.w3.org/2000/svg" width="48" height="48" viewBox="0 0 12.7 12.7">
  <path fill="#1a1a1a" d="M6.34431561.07286377a6.28928043 6.28928043 0 0 0-6.2895386 6.2895385 6.28928043 6.28928043 0 0 0 6.2895386 6.28902166 6.28928043 6.28928043 0 0 0 6.28902167-6.28902167A6.28928043 6.28928043 0 0 0 6.3443156.07286376zm-.01808691.93637693a5.40704372 5.40704372 0 0 1 5.40690507 5.40690505 5.40704372 5.40704372 0 0 1-5.40690507 5.40690508A5.40704372 5.40704372 0 0 1 .91880694 6.41614575 5.40704372 5.40704372 0 0 1 6.3262287 1.0092407zm.9017537 1.76991773c-.63600541-.03374999-.96816306.991217-.36380208 1.27175708.49032609.20108994 1.02411449-.30159536.90433762-.8040854-.03717396-.26167001-.27232742-.47667148-.54053555-.46767168zm-.27285156 2.25722653c-.1024308-.00841004-.22132026.02757382-.35139974.1255739-.62335859.27149-1.14505448.71510338-1.68930238 1.11259354.06825826.18542.14539356.33584461.30902512.13022447.20302802-.12076985.88350486-.65043472.81545403-.13177493-.21782087.9597202-.48302254 1.90946614-.68574628 2.87217613-.21197888.52711006.26946992 1.00373153.77204595.6609416.5342202-.2202299.99386733-.57889483 1.46347655-.907955-.0640768-.1571498-.10664455-.38276-.28370371-.17724993-.23247615.10554996-.74022426.60305287-.8345744.19275292.19527837-1.03919998.55679339-2.04031027.78806567-3.07113036.15962313-.35549999.0039534-.78095236-.30334081-.80615234z"/>
</svg>
