<svg xmlns="http://www.w3.org/2000/svg" width="48" height="48" viewBox="0 0 12.7 12.7">
  <defs>
    <clipPath id="a"/>
  </defs>
  <path fill="#1a1a1a" d="M6.34431561.07286377a6.28928043 6.28928043 0 0 0-6.2895386 6.2895385 6.28928043 6.28928043 0 0 0 6.2895386 6.28902166 6.28928043 6.28928043 0 0 0 6.28902167-6.28902167A6.28928043 6.28928043 0 0 0 6.3443156.07286376zm-.01808691.93637693a5.40704372 5.40704372 0 0 1 5.40690507 5.40690505 5.40704372 5.40704372 0 0 1-5.40690507 5.40690508A5.40704372 5.40704372 0 0 1 .91880694 6.41614575 5.40704372 5.40704372 0 0 1 6.3262287 1.0092407zm3.33364677 1.49861652L8.44547926 3.72225327C5.98740355 1.2168134 1.5187593 2.77908487 2.6763223 6.78201476c.27107197.93740021 1.20432775.53892925 1.08055435-.11007064-.43246172-2.26785987 1.40283404-2.74569604 2.8809611-1.1425658l-1.3141317 1.3136147 4.63950997.20153814-.30334055-4.53667394zM8.04033603 7.5349406v2.63859853h1.12913c.3510616 0 .61245167-.06276552.7844483-.18758535.17199636-.12488015.2578653-.31448771.2578653-.5689576 0-.16610992-.0397854-.30637613-.11988933-.42064623-.08011-.11426005-.19343475-.19272779-.33951412-.2351278.11427116-.04359989.20191836-.11041776.2619994-.19998769.06008-.09069996.08940033-.200252.08940033-.32866223 0-.2438699-.08208142-.4210103-.2470134-.53175032-.16375063-.11077998-.42892371-.16588131-.79530019-.16588131H8.04033603zm-4.49326576.01860338l-.97720133 2.63859853h.6836792l.16743177-.48110748h1.06453436l.1658813.48110748h.6836791l-.97720122-2.63859853h-.81080318zm5.17384447.44390045h.37568742c.10720414 0 .18906093.02404718.24442976.07234714.05536882.04710006.08268202.11604571.08268229.20670572 0 .09190011-.02731241.16113601-.0826823.20825592-.05536723.04710007-.13722614.07079694-.24442975.07079694h-.37568742v-.55810572zm-4.76715105.17466654l.36018496 1.05006509h-.72295332l.36276836-1.0500651zm4.76715105.84697674h.39945865c.13783283 0 .24018107.02879963.3085084.08629941.06832705.0566002.10283613.14205532.10283613.2563151 0 .11670004-.03488161.20377282-.1043866.26148295-.068326.05789982-.17030302.08629967-.30695793.08629967h-.39945865v-.69039713z"/>
</svg>
