<svg xmlns="http://www.w3.org/2000/svg" width="48" height="48" viewBox="0 0 12.7 12.7">
  <path fill="#1a1a1a" d="M6.34431561.07286377a6.28928043 6.28928043 0 0 0-6.2895386 6.2895385 6.28928043 6.28928043 0 0 0 6.2895386 6.28902166 6.28928043 6.28928043 0 0 0 6.28902167-6.28902167A6.28928043 6.28928043 0 0 0 6.3443156.07286376zm-.01808691.93637693a5.40704372 5.40704372 0 0 1 5.40690507 5.40690505 5.40704372 5.40704372 0 0 1-5.40690507 5.40690508A5.40704372 5.40704372 0 0 1 .91880694 6.41614575 5.40704372 5.40704372 0 0 1 6.3262287 1.0092407zm-.82475572 1.8655191v.00051699c-1.843528.0097499-3.19760628 1.03622077-2.89336347 3.10937086.40344013-2.46936019 3.12399864-2.46286414 5.44462887-.7978841L7.03884685 6.2668009l3.09593506.0015502-.01291934-3.30315752-1.0252604.98340253c-1.20649708-.71934995-2.48901212-1.07783629-3.5951292-1.07383632zM2.56521807 6.52673337l.0129191 3.30315751 1.0252605-.98391926c3.21732536 1.91822994 6.97528177 1.2809884 6.48849263-2.03605153-.4034393 2.46936997-3.12400126 2.46337081-5.44462884.79840083L5.661153 6.52880031l-3.09593492-.00206693z"/>
</svg>
