<svg xmlns="http://www.w3.org/2000/svg" width="48" height="48"><defs><linearGradient id="a"><stop offset="0" stop-color="#fff"/><stop offset="1" stop-color="#d3eefc"/></linearGradient></defs><path d="M23.95 3.1A20.86 20.86 0 0 0 3.1 23.95a20.86 20.86 0 0 0 20.85 20.86 20.86 20.86 0 0 0 20.86-20.86A20.86 20.86 0 0 0 23.95 3.1zM24 5.58a18.23 18.23 0 0 1 18.24 18.24 18.23 18.23 0 0 1-18.24 18.23A18.23 18.23 0 0 1 5.76 23.82 18.23 18.23 0 0 1 24 5.58zm.45 4.58A13.86 13.86 0 0 0 14.2 14.2a13.86 13.86 0 0 0 0 19.6 13.86 13.86 0 0 0 19.6 0 13.86 13.86 0 0 0 1.37-17.99L33.3 17.7a11.23 11.23 0 0 1-1.35 14.25 11.23 11.23 0 0 1-15.89 0 11.23 11.23 0 0 1 0-15.9A11.23 11.23 0 0 1 30.3 14.7l1.88-1.87a13.86 13.86 0 0 0-7.74-2.67z" fill="#1a1a1a"/></svg>