<?xml version="1.0" encoding="UTF-8" standalone="no"?>
<svg
   xmlns:dc="http://purl.org/dc/elements/1.1/"
   xmlns:cc="http://creativecommons.org/ns#"
   xmlns:rdf="http://www.w3.org/1999/02/22-rdf-syntax-ns#"
   xmlns:svg="http://www.w3.org/2000/svg"
   xmlns="http://www.w3.org/2000/svg"
   xmlns:sodipodi="http://sodipodi.sourceforge.net/DTD/sodipodi-0.dtd"
   xmlns:inkscape="http://www.inkscape.org/namespaces/inkscape"
   width="48"
   height="48"
   viewBox="0 0 12.7 12.7"
   version="1.1"
   id="svg6"
   sodipodi:docname="ring.svg"
   inkscape:version="0.92.3 (2405546, 2018-03-11)">
  <metadata
     id="metadata12">
    <rdf:RDF>
      <cc:Work
         rdf:about="">
        <dc:format>image/svg+xml</dc:format>
        <dc:type
           rdf:resource="http://purl.org/dc/dcmitype/StillImage" />
        <dc:title></dc:title>
      </cc:Work>
    </rdf:RDF>
  </metadata>
  <defs
     id="defs10" />
  <sodipodi:namedview
     pagecolor="#ffffff"
     bordercolor="#666666"
     borderopacity="1"
     objecttolerance="10"
     gridtolerance="10"
     guidetolerance="10"
     inkscape:pageopacity="0"
     inkscape:pageshadow="2"
     inkscape:window-width="1308"
     inkscape:window-height="742"
     id="namedview8"
     showgrid="false"
     inkscape:zoom="1.2291667"
     inkscape:cx="-106.05777"
     inkscape:cy="57.566684"
     inkscape:window-x="58"
     inkscape:window-y="-4"
     inkscape:window-maximized="1"
     inkscape:current-layer="svg6" />
  <path
     fill="#1a1a1a"
     d="M6.344.337A6.025 6.025 0 0 0 .32 6.362a6.025 6.025 0 0 0 6.025 6.025 6.025 6.025 0 0 0 6.025-6.025A6.025 6.025 0 0 0 6.344.337zm-.017.897a5.18 5.18 0 0 1 5.18 5.18 5.18 5.18 0 0 1-5.18 5.18 5.18 5.18 0 0 1-5.18-5.18 5.18 5.18 0 0 1 5.18-5.18z"
     id="path2"
     style="fill:#1a1a1a;fill-opacity:0.99215686" />
  <rect
     style="fill:#005f6d;stroke-width:0.20565344;fill-opacity:1"
     width="2.4678407"
     height="9.048748"
     x="1.024507"
     y="4.1438327"
     rx="0.82261378"
     ry="0.90487456"
     transform="rotate(-30)"
     id="rect4" />
  <rect
     style="fill:#2c808d;stroke-width:0.20565344;fill-opacity:1"
     width="2.4678407"
     height="9.048748"
     x="-9.8703661"
     y="-2.1474223"
     rx="0.82261378"
     ry="0.90487456"
     transform="matrix(-0.8660254,-0.5,-0.5,0.8660254,0,0)"
     id="rect10" />
  <rect
     style="fill:#2e96a5;stroke-width:0.20565344;fill-opacity:1"
     width="2.4678407"
     height="9.048748"
     x="-7.611939"
     y="-10.815627"
     rx="0.82261378"
     ry="0.90487456"
     transform="matrix(0,-1,-1,0,0,0)"
     id="rect16" />
</svg>
