<?xml version="1.0" encoding="UTF-8" standalone="no"?>
<!-- Created with Inkscape (http://www.inkscape.org/) -->

<svg
   xmlns:dc="http://purl.org/dc/elements/1.1/"
   xmlns:cc="http://creativecommons.org/ns#"
   xmlns:rdf="http://www.w3.org/1999/02/22-rdf-syntax-ns#"
   xmlns:svg="http://www.w3.org/2000/svg"
   xmlns="http://www.w3.org/2000/svg"
   xmlns:sodipodi="http://sodipodi.sourceforge.net/DTD/sodipodi-0.dtd"
   xmlns:inkscape="http://www.inkscape.org/namespaces/inkscape"
   width="48"
   height="48"
   viewBox="0 0 12.7 12.7"
   version="1.1"
   id="svg829"
   inkscape:version="0.92.3 (2405546, 2018-03-11)"
   sodipodi:docname="scim-setup.svg">
  <defs
     id="defs823" />
  <sodipodi:namedview
     id="base"
     pagecolor="#ffffff"
     bordercolor="#666666"
     borderopacity="1.0"
     inkscape:pageopacity="0.0"
     inkscape:pageshadow="2"
     inkscape:zoom="3.9627443"
     inkscape:cx="24"
     inkscape:cy="24"
     inkscape:document-units="mm"
     inkscape:current-layer="layer1"
     showgrid="false"
     showguides="true"
     inkscape:guide-bbox="true"
     inkscape:window-width="1366"
     inkscape:window-height="719"
     inkscape:window-x="0"
     inkscape:window-y="25"
     inkscape:window-maximized="1"
     scale-x="1.9"
     units="px"
     inkscape:snap-global="false" />
  <metadata
     id="metadata826">
    <rdf:RDF>
      <cc:Work
         rdf:about="">
        <dc:format>image/svg+xml</dc:format>
        <dc:type
           rdf:resource="http://purl.org/dc/dcmitype/StillImage" />
        <dc:title></dc:title>
      </cc:Work>
    </rdf:RDF>
  </metadata>
  <g
     inkscape:label="Capa 1"
     inkscape:groupmode="layer"
     id="layer1"
     transform="translate(0,-284.3)">
    <path
       style="fill:#1a1a1a;fill-opacity:1;stroke-width:0.52516764"
       d="M 23.978516 0.27539062 A 23.770509 23.770509 0 0 0 0.20703125 24.046875 A 23.770509 23.770509 0 0 0 23.978516 47.816406 A 23.770509 23.770509 0 0 0 47.748047 24.046875 A 23.770509 23.770509 0 0 0 23.978516 0.27539062 z M 23.910156 3.8144531 A 20.436071 20.436071 0 0 1 44.345703 24.25 A 20.436071 20.436071 0 0 1 23.910156 44.685547 A 20.436071 20.436071 0 0 1 3.4726562 24.25 A 20.436071 20.436071 0 0 1 23.910156 3.8144531 z M 18.939453 10 L 18.939453 13.9375 L 12.150391 13.9375 L 12.150391 16.347656 L 18.939453 16.347656 L 18.939453 20.845703 C 15.890673 21.8709 12.989245 23.898654 11.65625 26.912109 C 10.627515 29.357766 10.478998 32.498041 12.210938 34.666016 C 14.073916 36.778507 17.295955 36.694238 19.746094 35.810547 C 24.290632 34.046944 27.634034 30.068106 29.632812 25.726562 C 30.291793 24.833876 30.261658 22.322944 31.710938 23.710938 C 33.993096 24.993709 34.771856 27.969758 34.013672 30.367188 C 33.055652 33.347534 29.962207 34.965544 27.054688 35.46875 C 27.295725 36.312416 27.536312 37.156447 27.777344 38 C 29.494303 37.682406 31.185482 37.124888 32.675781 36.201172 C 35.40914 34.591962 37.276755 31.52089 37.09375 28.308594 C 37.124691 25.599315 35.633306 22.992595 33.304688 21.617188 C 29.839829 19.514372 25.554493 19.576338 21.671875 20.123047 L 21.671875 16.347656 L 35.851562 16.347656 L 35.851562 13.9375 L 21.671875 13.9375 L 21.671875 10 L 18.939453 10 z M 24.875 22.341797 C 25.952159 22.301214 27.03344 22.351841 28.099609 22.494141 C 26.81749 26.091457 24.753834 29.523651 21.671875 31.855469 L 21.671875 22.736328 C 22.724605 22.51447 23.797841 22.38238 24.875 22.341797 z M 18.939453 23.619141 L 18.939453 33.419922 L 18.939453 33.421875 C 17.979892 33.771935 16.923987 33.9975 15.908203 33.771484 C 14.303006 33.4887 13.641339 31.741207 13.716797 30.287109 C 13.676477 27.16556 16.246974 24.760936 18.939453 23.619141 z "
       transform="matrix(0.26458333,0,0,0.26458333,0,284.3)"
       id="path828" />
    <path
       inkscape:connector-curvature="0"
       style="opacity:1;fill:#1a1a1a;fill-opacity:1;stroke:none;stroke-width:0.0263895"
       d="m 54.450447,341.5109 c -0.699603,0 -1.262802,0.5632 -1.262802,1.26281 0,0.6996 0.563199,1.26286 1.262802,1.26286 h 2.915902 v 4.54958 h 2.621599 v -4.54958 h 2.678879 c 0.699604,0 1.262802,-0.56326 1.262802,-1.26286 0,-0.69961 -0.563198,-1.26281 -1.262802,-1.26281 z m 2.915902,7.07525 h -3.762466 c -0.505822,0 -0.987151,0.40041 -1.079176,0.89779 l -1.570602,8.48895 c -0.09203,0.49738 0.241128,0.89779 0.746949,0.89779 h 4.58579 v 0.032 h 4.539768 v -0.032 h 4.597049 c 0.505821,0 0.838974,-0.40041 0.746949,-0.89779 l -1.570668,-8.48895 c -0.09202,-0.49738 -0.573289,-0.89779 -1.07911,-0.89779 h -3.489167 l -0.0068,3.70486 2.545423,0.002 -3.981976,3.2663 -3.815203,-3.25385 2.593287,0.009 z"
       id="rect827" />
  </g>
</svg>
