<svg xmlns="http://www.w3.org/2000/svg" width="48" height="48" viewBox="0 0 12.7 12.7">
  <g fill="#1a1a1a">
    <path d="M6.3443156.07286A6.2892804 6.2892804 0 0 0 .05477702 6.3624a6.2892804 6.2892804 0 0 0 6.28953858 6.28902A6.2892804 6.2892804 0 0 0 12.633337 6.3624 6.2892804 6.2892804 0 0 0 6.3443156.07286zm-.018087.93638a5.4070437 5.4070437 0 0 1 5.4069054 5.40691 5.4070437 5.4070437 0 0 1-5.4069054 5.4069 5.4070437 5.4070437 0 0 1-5.40742176-5.4069A5.4070437 5.4070437 0 0 1 6.3262286 1.00924z"/>
    <path d="M7.6491068 2.38271c-.2172733-.015-.4492808.0433-.6810381.19748-1.0101856 1.7088-1.8115227 3.23418-2.3288983 4.94363-.274092.91498-.5213438 1.862-.7614452 2.7813.3912074.0331.316166-.00094.6180688.00093.2221787-.4972.6661798-.97042.9745724-1.31557.7654181-.79635 1.4946851-1.153 2.4248053-1.46573.013608-.93753-.05458-1.86796.3255035-2.69027.155742-.34176.4001249-.70787.6015995-1.01813 0-.69525-.5213499-1.39033-1.1731679-1.43382z"/>
  </g>
</svg>
