<svg xmlns="http://www.w3.org/2000/svg" width="48" height="48" viewBox="0 0 12.7 12.7">
  <path fill="#1a1a1a" d="M6.34431561.07286377a6.28928043 6.28928043 0 0 0-6.2895386 6.2895385 6.28928043 6.28928043 0 0 0 6.2895386 6.28902166 6.28928043 6.28928043 0 0 0 6.28902167-6.28902167A6.28928043 6.28928043 0 0 0 6.3443156.07286376zm-.01808691.93637693a5.40704372 5.40704372 0 0 1 5.40690507 5.40690505 5.40704372 5.40704372 0 0 1-5.40690507 5.40690508A5.40704372 5.40704372 0 0 1 .91880694 6.41614575 5.40704372 5.40704372 0 0 1 6.3262287 1.0092407zm.02325449.8154541c-1.08797539 0-2.08295899.38349658-2.86494137 1.02267665l1.6613973 2.87630999.0248047-.045475 2.1600747-3.74240732c-.31505947-.0702-.6436098-.11110431-.98133533-.11110431zm1.60713709.29920655L6.29728989 4.99814447h4.37699383c-.41705688-1.32596994-1.4279594-2.38465315-2.71766344-2.87424312zM3.01066884 3.29798993c-.73891652.8069199-1.19424226 1.87937826-1.19424226 3.06027822 0 .31053008.03150174.61401456.09043373.90640454h3.39565844l-.52399908-.90640454-1.76785083-3.06027822zm4.38577879 2.15335694l.13177493.22685957 2.16007498 3.7398232c.73891536-.80690984 1.1942421-1.87885148 1.1942421-3.0597615 0-.31052001-.03150367-.6145215-.09043379-.90692127H7.39644763zm.15657962 1.541508l-.41909576.72502023-1.76836756 3.0623454c.31732617.07019978.64619345.1111041.98391926.1111041 1.08797538 0 2.08295925-.38296982 2.86494137-1.02215975L7.55302725 6.99285486zM2.0246826 7.7178751c.41705718 1.32596994 1.42795946 2.38465304 2.7176635 2.87424306L6.40167622 7.7178751H2.0246826z"/>
</svg>
