<svg xmlns="http://www.w3.org/2000/svg" width="48" height="48" viewBox="0 0 12.7 12.7"><path fill="#1a1a1a" d="M6.344.073a6.29 6.29 0 0 0-6.29 6.29 6.29 6.29 0 0 0 6.29 6.288 6.29 6.29 0 0 0 6.29-6.289 6.29 6.29 0 0 0-6.29-6.29zm-.018.936a5.407 5.407 0 0 1 5.407 5.407 5.407 5.407 0 0 1-5.407 5.407A5.407 5.407 0 0 1 .92 6.416 5.407 5.407 0 0 1 6.326 1.01zm-2.094.73a.21.21 0 0 0-.165.08L2.46 3.857a.205.205 0 0 0-.046.13V9.71c0 .115.095.21.21.21h7.428c.115 0 .21-.095.21-.21V3.986a.195.195 0 0 0-.044-.13L8.613 1.82a.21.21 0 0 0-.164-.081H4.232zm.101.42H6.13v1.652H3.032l1.301-1.652zm2.218 0h1.796L9.65 3.811H6.55V2.159zM2.836 4.231h7.007V9.5H2.836V4.23zm3.52.16c-1.05 0-1.947.652-2.309 1.57-.019.048-.035.096-.052.144l-.01.03c-.079.24-.124.496-.124.762a2.478 2.478 0 0 0 2.482 2.47c1.04 0 1.931-.639 2.3-1.544a2.448 2.448 0 0 0 .195-.961A2.48 2.48 0 0 0 6.358 4.39zm-.178.385v.832a4.59 4.59 0 0 1-.673-.073c.032-.073.064-.144.1-.209.166-.297.366-.482.573-.55zm.355.013c.019.002.037.003.056.01.186.08.366.257.517.527.035.063.067.133.098.205-.208.04-.434.066-.671.076v-.818zm-1.111.17a2.022 2.022 0 0 0-.266.492 2.85 2.85 0 0 1-.29-.101c.162-.159.35-.29.556-.39zm1.906.054c.097.038.17.074.245.11.095.066.184.14.266.219a2.8 2.8 0 0 1-.286.103 2.113 2.113 0 0 0-.225-.432zm.743.595c.226.307.371.676.404 1.077h-.667a3.914 3.914 0 0 0-.14-.905c.141-.043.274-.093.396-.15l.007-.022zm-3.446.024c.127.059.268.11.417.154-.078.276-.126.58-.139.9h-.665c.032-.392.17-.752.387-1.054zm2.699.235c.07.248.116.524.129.819h-.92V5.96a4.79 4.79 0 0 0 .79-.093zm-1.938.003c.247.05.513.08.792.088v.725h-.92c.013-.292.059-.567.128-.813zM4.238 7.036h.665c.013.33.063.64.145.923a3.14 3.14 0 0 0-.407.15 2.1 2.1 0 0 1-.403-1.073zm1.02 0h.92v.75c-.276.01-.54.038-.786.087a3.578 3.578 0 0 1-.134-.837zm1.274 0h.92a3.576 3.576 0 0 1-.135.842 4.805 4.805 0 0 0-.785-.09v-.752zm1.276 0h.667a2.1 2.1 0 0 1-.41 1.083l-.001-.003a3.084 3.084 0 0 0-.403-.15c.082-.284.133-.598.147-.93zM6.178 8.14v.806c-.207-.068-.407-.253-.573-.55a2.198 2.198 0 0 1-.09-.186c.206-.038.43-.062.663-.07zm.354 0c.234.01.457.035.663.074a2.207 2.207 0 0 1-.09.182c-.165.298-.366.482-.573.55V8.14zm-1.367.153a2.027 2.027 0 0 0 .252.465 2.124 2.124 0 0 1-.53-.368c.087-.035.179-.068.278-.097zm2.379.007c.098.029.189.063.274.098a2.12 2.12 0 0 1-.525.362 2.109 2.109 0 0 0 .25-.46z"/></svg>