<?xml version="1.0" encoding="UTF-8" standalone="no"?>
<!-- Created with Inkscape (http://www.inkscape.org/) -->

<svg
   xmlns:dc="http://purl.org/dc/elements/1.1/"
   xmlns:cc="http://creativecommons.org/ns#"
   xmlns:rdf="http://www.w3.org/1999/02/22-rdf-syntax-ns#"
   xmlns:svg="http://www.w3.org/2000/svg"
   xmlns="http://www.w3.org/2000/svg"
   xmlns:sodipodi="http://sodipodi.sourceforge.net/DTD/sodipodi-0.dtd"
   xmlns:inkscape="http://www.inkscape.org/namespaces/inkscape"
   width="48"
   height="48"
   viewBox="0 0 12.7 12.7"
   version="1.1"
   id="svg829"
   inkscape:version="0.92.3 (2405546, 2018-03-11)"
   sodipodi:docname="software-properties.svg">
  <defs
     id="defs823" />
  <sodipodi:namedview
     id="base"
     pagecolor="#ffffff"
     bordercolor="#666666"
     borderopacity="1.0"
     inkscape:pageopacity="0.0"
     inkscape:pageshadow="2"
     inkscape:zoom="1.9813721"
     inkscape:cx="24"
     inkscape:cy="24"
     inkscape:document-units="mm"
     inkscape:current-layer="layer1"
     showgrid="false"
     showguides="true"
     inkscape:guide-bbox="true"
     inkscape:window-width="1366"
     inkscape:window-height="719"
     inkscape:window-x="0"
     inkscape:window-y="25"
     inkscape:window-maximized="1"
     scale-x="1.9"
     units="px"
     inkscape:snap-global="false" />
  <metadata
     id="metadata826">
    <rdf:RDF>
      <cc:Work
         rdf:about="">
        <dc:format>image/svg+xml</dc:format>
        <dc:type
           rdf:resource="http://purl.org/dc/dcmitype/StillImage" />
        <dc:title></dc:title>
      </cc:Work>
    </rdf:RDF>
  </metadata>
  <g
     inkscape:label="Capa 1"
     inkscape:groupmode="layer"
     id="layer1"
     transform="translate(0,-284.3)">
    <path
       style="fill:#1a1a1a;fill-opacity:1;stroke-width:0.52516764"
       d="M 23.978516 0.27539062 A 23.770509 23.770509 0 0 0 0.20703125 24.046875 A 23.770509 23.770509 0 0 0 23.978516 47.816406 A 23.770509 23.770509 0 0 0 47.748047 24.046875 A 23.770509 23.770509 0 0 0 23.978516 0.27539062 z M 23.910156 3.8144531 A 20.436071 20.436071 0 0 1 44.345703 24.25 A 20.436071 20.436071 0 0 1 23.910156 44.685547 A 20.436071 20.436071 0 0 1 3.4726562 24.25 A 20.436071 20.436071 0 0 1 23.910156 3.8144531 z M 15.994141 6.5722656 C 15.749242 6.5722656 15.523331 6.6849531 15.371094 6.8769531 L 9.3007812 14.574219 C 9.1882534 14.713305 9.1289063 14.885681 9.1289062 15.064453 L 9.1289062 36.701172 C 9.1289062 37.13801 9.4869703 37.496094 9.9238281 37.496094 L 37.994141 37.496094 C 38.430997 37.496094 38.789062 37.137896 38.789062 36.701172 L 38.789062 15.064453 C 38.795488 14.885681 38.735563 14.713305 38.623047 14.574219 L 32.554688 6.8769531 C 32.402448 6.6849531 32.176545 6.5722656 31.931641 6.5722656 L 15.994141 6.5722656 z M 16.376953 8.1601562 L 23.167969 8.1601562 L 23.167969 14.402344 L 11.458984 14.402344 L 16.376953 8.1601562 z M 24.757812 8.1601562 L 31.548828 8.1601562 L 36.466797 14.402344 L 24.757812 14.402344 L 24.757812 8.1601562 z M 10.71875 15.990234 L 37.201172 15.990234 L 37.201172 35.908203 L 10.71875 35.908203 L 10.71875 15.990234 z M 24.025391 16.59375 C 20.057559 16.59375 16.665556 19.060838 15.296875 22.533203 C 15.224028 22.710085 15.161688 22.892764 15.099609 23.074219 C 15.087515 23.112392 15.072294 23.147752 15.060547 23.185547 C 14.76289 24.094939 14.59375 25.061229 14.59375 26.068359 C 14.59375 31.219969 18.800228 35.40625 23.974609 35.40625 C 27.905015 35.40625 31.273082 32.988 32.667969 29.568359 C 32.667969 29.568359 32.667969 29.566406 32.667969 29.566406 C 32.768172 29.330942 32.852719 29.086332 32.933594 28.841797 C 33.23627 27.925261 33.40625 26.94972 33.40625 25.933594 C 33.40625 20.783194 29.198697 16.59375 24.025391 16.59375 z M 23.349609 18.050781 L 23.349609 21.195312 C 22.453886 21.161297 21.598219 21.069213 20.806641 20.919922 C 20.925533 20.642505 21.049598 20.374639 21.185547 20.130859 C 21.812224 19.007848 22.568649 18.307789 23.349609 18.050781 z M 24.691406 18.101562 C 24.76183 18.109122 24.832385 18.112088 24.902344 18.134766 C 25.607985 18.442797 26.285553 19.109593 26.855469 20.130859 C 26.988897 20.369726 27.11149 20.632813 27.228516 20.904297 C 26.440498 21.05699 25.586188 21.155501 24.691406 21.191406 L 24.691406 18.101562 z M 20.492188 18.744141 C 20.324104 18.978093 20.161794 19.220274 20.015625 19.482422 C 19.821062 19.830894 19.646416 20.207547 19.486328 20.601562 C 19.094096 20.487043 18.731489 20.35863 18.392578 20.21875 C 19.00417 19.62098 19.713578 19.123454 20.492188 18.744141 z M 27.695312 18.945312 C 28.061235 19.09158 28.341731 19.22766 28.623047 19.365234 C 28.980231 19.613549 29.317543 19.888225 29.628906 20.189453 C 29.294108 20.331185 28.933553 20.463404 28.544922 20.580078 C 28.387372 20.195209 28.21798 19.824053 28.027344 19.482422 C 27.923248 19.294957 27.810153 19.120633 27.695312 18.947266 L 27.695312 18.945312 z M 30.503906 21.197266 C 31.358844 22.355993 31.908429 23.748699 32.033203 25.267578 L 29.509766 25.267578 C 29.460488 24.047736 29.277382 22.894522 28.980469 21.845703 C 29.515563 21.682428 30.017178 21.495625 30.476562 21.28125 C 30.488997 21.251014 30.495931 21.225612 30.503906 21.197266 z M 17.480469 21.285156 C 17.96143 21.508148 18.491425 21.701178 19.054688 21.869141 C 18.761649 22.911761 18.580136 24.058722 18.53125 25.269531 L 16.017578 25.269531 C 16.139218 23.789355 16.662653 22.428111 17.480469 21.287109 L 17.480469 21.285156 z M 27.679688 22.175781 C 27.946307 23.110043 28.117883 24.156763 28.167969 25.269531 L 24.689453 25.269531 L 24.689453 22.525391 C 25.742268 22.487217 26.749629 22.367781 27.679688 22.175781 z M 20.357422 22.1875 C 21.289697 22.374965 22.296591 22.486271 23.349609 22.519531 L 23.349609 25.259766 L 19.873047 25.259766 C 19.922774 24.154632 20.093895 23.11681 20.357422 22.1875 z M 16.017578 26.59375 L 18.53125 26.59375 C 18.581525 27.837819 18.770765 29.014554 19.078125 30.080078 C 18.527571 30.243354 18.01202 30.433193 17.539062 30.648438 C 16.690037 29.493716 16.143292 28.105145 16.017578 26.59375 z M 19.873047 26.59375 L 23.349609 26.59375 L 23.349609 29.429688 C 22.305529 29.463703 21.306484 29.571418 20.380859 29.755859 C 20.103174 28.804401 19.924349 27.733618 19.873047 26.59375 z M 24.689453 26.59375 L 28.167969 26.59375 C 28.116306 27.74129 27.935141 28.819095 27.654297 29.775391 C 26.730823 29.586036 25.733468 29.470192 24.689453 29.431641 L 24.689453 26.59375 z M 29.509766 26.59375 L 32.033203 26.59375 C 31.906041 28.122871 31.348582 29.52488 30.482422 30.6875 C 30.479755 30.68372 30.479224 30.679561 30.476562 30.675781 C 30.010567 30.459214 29.498855 30.270521 28.955078 30.105469 C 29.266386 29.033859 29.459168 27.848843 29.509766 26.595703 L 29.509766 26.59375 z M 23.349609 30.763672 L 23.349609 33.8125 C 22.56905 33.555492 21.812105 32.857084 21.185547 31.734375 C 21.063502 31.516296 20.950194 31.277373 20.841797 31.03125 C 21.623296 30.886116 22.46766 30.79542 23.349609 30.763672 z M 24.689453 30.765625 C 25.571268 30.799641 26.414749 30.897584 27.193359 31.046875 C 27.086724 31.288009 26.975242 31.519698 26.855469 31.734375 C 26.228711 32.857499 25.47075 33.555379 24.689453 33.8125 L 24.689453 30.765625 z M 19.521484 31.34375 C 19.67256 31.706963 19.832918 32.056954 20.013672 32.380859 C 20.155786 32.635977 20.311855 32.873317 20.474609 33.101562 C 19.734971 32.739106 19.060035 32.269791 18.470703 31.708984 C 18.798861 31.577079 19.145551 31.452978 19.521484 31.34375 z M 28.511719 31.369141 C 28.883662 31.479503 29.225371 31.607195 29.548828 31.740234 C 28.963414 32.291894 28.296299 32.752172 27.564453 33.109375 C 27.727861 32.878824 27.88428 32.640942 28.027344 32.384766 C 28.204248 32.068041 28.363216 31.723887 28.511719 31.369141 z "
       transform="matrix(0.26458333,0,0,0.26458333,0,284.3)"
       id="path826" />
  </g>
</svg>
