<svg xmlns="http://www.w3.org/2000/svg" width="48" height="48" viewBox="0 0 12.7 12.7">
  <path fill="#1a1a1a" d="M6.34431561.07286377a6.28928043 6.28928043 0 0 0-6.2895386 6.2895385 6.28928043 6.28928043 0 0 0 6.2895386 6.28902166 6.28928043 6.28928043 0 0 0 6.28902167-6.28902167A6.28928043 6.28928043 0 0 0 6.3443156.07286376zm-.01808691.93637693a5.40704372 5.40704372 0 0 1 5.40690507 5.40690505 5.40704372 5.40704372 0 0 1-5.40690507 5.40690508A5.40704372 5.40704372 0 0 1 .91880694 6.41614575 5.40704372 5.40704372 0 0 1 6.3262287 1.0092407zM4.70823972 2.14353838v.00051676c-.1947201-.01906-.09010809.21064887-.11627194.32917887-.00189759 1.67386998.00413623 3.3478289-.00258392 5.0213989-.03018525.15930007-.2175031.12920186-.33072916.09870202-.70793239-.06265016-1.49644336.42799396-1.5973184 1.16840396-.10549716.5579102.46193074 1.03793606.98960356.98443625.7262368-.0414901 1.3094962-.77752336 1.21232902-1.49913338.00169598-1.35336993-.00342609-2.70705735.00258392-4.0602172.02462213-.1482.2168832-.15749508.30644121-.06149499.6676644.38337992 1.26776267 1.02315908 1.32084972 1.83037928.0291629.1597099-.02177732.55672275-.01033541.56172258.23375752-.8725199-.00732843-1.8741747-.67231021-2.49545472-.47847461-.50958009-.90058133-1.17464124-.98185234-1.8588013-.03901175-.01469998-.07841112-.02363702-.12040605-.01963703zm3.96513257 1.47691249L7.05021547 5.24360742h.92759211v1.1580688h-.00051673v.80821952h.0015502v.35036628H7.0512492l1.62315655 1.62263982 1.62264008-1.62263982h-.92707538V6.16913234H9.368937v-.92552492h.92759211L8.6733723 3.62045087z"/>
</svg>
