<?xml version="1.0" encoding="UTF-8" standalone="no"?>
<!-- Created with Inkscape (http://www.inkscape.org/) -->

<svg
   xmlns:dc="http://purl.org/dc/elements/1.1/"
   xmlns:cc="http://creativecommons.org/ns#"
   xmlns:rdf="http://www.w3.org/1999/02/22-rdf-syntax-ns#"
   xmlns:svg="http://www.w3.org/2000/svg"
   xmlns="http://www.w3.org/2000/svg"
   xmlns:sodipodi="http://sodipodi.sourceforge.net/DTD/sodipodi-0.dtd"
   xmlns:inkscape="http://www.inkscape.org/namespaces/inkscape"
   width="48"
   height="48"
   viewBox="0 0 12.7 12.7"
   version="1.1"
   id="svg829"
   inkscape:version="0.92.3 (2405546, 2018-03-11)"
   sodipodi:docname="spotify-client.svg">
  <defs
     id="defs823" />
  <sodipodi:namedview
     id="base"
     pagecolor="#ffffff"
     bordercolor="#666666"
     borderopacity="1.0"
     inkscape:pageopacity="0.0"
     inkscape:pageshadow="2"
     inkscape:zoom="3.9627443"
     inkscape:cx="24"
     inkscape:cy="24"
     inkscape:document-units="mm"
     inkscape:current-layer="layer1"
     showgrid="false"
     showguides="true"
     inkscape:guide-bbox="true"
     inkscape:window-width="1366"
     inkscape:window-height="719"
     inkscape:window-x="0"
     inkscape:window-y="25"
     inkscape:window-maximized="1"
     scale-x="1.9"
     units="px"
     inkscape:snap-global="false" />
  <metadata
     id="metadata826">
    <rdf:RDF>
      <cc:Work
         rdf:about="">
        <dc:format>image/svg+xml</dc:format>
        <dc:type
           rdf:resource="http://purl.org/dc/dcmitype/StillImage" />
        <dc:title></dc:title>
      </cc:Work>
    </rdf:RDF>
  </metadata>
  <g
     inkscape:label="Capa 1"
     inkscape:groupmode="layer"
     id="layer1"
     transform="translate(0,-284.3)">
    <g
       id="g4595">
      <ellipse
         ry="4.481195"
         rx="4.4979181"
         cy="290.6264"
         cx="6.3499994"
         id="path79"
         style="opacity:0.75;fill:#008000;stroke-width:0.18741329" />
      <path
         id="path16"
         transform="matrix(0.26458333,0,0,0.26458333,0,284.3)"
         d="M 23.978516 0.27539062 A 23.770509 23.770509 0 0 0 0.20703125 24.046875 A 23.770509 23.770509 0 0 0 23.978516 47.816406 A 23.770509 23.770509 0 0 0 47.748047 24.046875 A 23.770509 23.770509 0 0 0 23.978516 0.27539062 z M 23.910156 3.8144531 A 20.436071 20.436071 0 0 1 44.345703 24.25 A 20.436071 20.436071 0 0 1 23.910156 44.685547 A 20.436071 20.436071 0 0 1 3.4726562 24.25 A 20.436071 20.436071 0 0 1 23.910156 3.8144531 z M 20.935547 14.5625 C 18.261725 14.562387 15.675209 14.835499 13.470703 15.382812 C 12.337917 15.665105 12.252512 15.698324 11.9375 15.962891 C 11.549877 16.289102 11.385006 16.64512 11.384766 17.160156 C 11.38445 17.798065 11.689195 18.291132 12.263672 18.574219 C 12.73396 18.824046 13.036506 18.816231 14.064453 18.554688 C 15.104031 18.290725 16.576996 18.038407 17.867188 17.902344 C 19.179144 17.770816 23.320378 17.791864 24.644531 17.945312 C 28.233853 18.360153 30.794245 19.042806 33.271484 20.246094 C 33.90533 20.553596 34.531638 20.84243 34.666016 20.861328 C 35.375153 21.02347 36.219069 20.590749 36.513672 19.914062 C 36.66025 19.577004 36.646409 18.95407 36.488281 18.621094 C 36.292955 18.210032 35.894758 17.916926 34.833984 17.402344 C 33.031861 16.527685 31.091548 15.87083 28.927734 15.40625 C 26.373749 14.859201 23.611367 14.586089 20.9375 14.585938 L 20.935547 14.585938 L 20.935547 14.5625 z M 20.337891 20.894531 C 19.863245 20.897555 19.452647 20.904179 19.175781 20.947266 C 17.37702 21.128759 15.042238 21.623367 14.300781 21.982422 C 13.520761 22.359619 13.242135 23.414373 13.722656 24.191406 C 13.906842 24.489951 14.458509 24.820312 14.771484 24.820312 C 14.889418 24.820312 15.457007 24.687218 16.033203 24.527344 C 17.7141 24.060043 18.840426 23.918779 20.892578 23.873047 C 22.22283 23.847724 22.917414 23.867078 23.693359 23.957031 C 26.987866 24.337592 29.409828 25.144855 32.203125 26.789062 C 32.587197 27.014663 32.981691 27.199408 33.083984 27.199219 C 33.915444 27.197329 34.638144 26.328813 34.496094 25.5 C 34.370974 24.775502 34.063639 24.471913 32.634766 23.673828 C 30.26803 22.354244 27.670939 21.508016 24.583984 21.052734 C 24.055122 20.975632 22.979292 20.919415 21.898438 20.904297 C 21.358971 20.896738 20.815363 20.896611 20.339844 20.900391 L 20.337891 20.900391 L 20.337891 20.894531 z M 21.070312 27.205078 C 20.688723 27.208102 20.36274 27.214726 20.140625 27.257812 C 18.701657 27.439343 16.831488 27.933914 16.238281 28.292969 C 15.614227 28.670128 15.394869 29.727062 15.779297 30.503906 C 15.926672 30.802451 16.36486 31.130859 16.615234 31.130859 C 16.709583 31.130859 17.165965 30.995812 17.626953 30.835938 C 18.971714 30.369052 19.870037 30.227373 21.511719 30.181641 C 22.575856 30.156318 23.133149 30.175672 23.753906 30.265625 C 26.389488 30.646034 28.325866 31.453448 30.560547 33.097656 C 30.86778 33.323218 31.187788 33.508039 31.269531 33.507812 C 31.934752 33.505961 32.510464 32.637369 32.396484 31.808594 C 32.297143 31.084701 32.051366 30.7796 30.908203 29.982422 C 29.015235 28.662271 26.938103 27.81811 24.46875 27.363281 C 24.045628 27.285801 23.185208 27.228009 22.320312 27.212891 C 21.887916 27.205332 21.451901 27.205205 21.070312 27.208984 L 21.070312 27.205078 z "
         style="fill:#1a1a1a;fill-opacity:1;stroke-width:0.52516764" />
    </g>
  </g>
</svg>
