<svg xmlns="http://www.w3.org/2000/svg" width="48" height="48" viewBox="0 0 12.7 12.7">
  <defs>
    <linearGradient id="a">
      <stop offset="0" stop-color="#054e87"/>
      <stop offset="1" stop-color="#1d99f3"/>
    </linearGradient>
  </defs>
  <path fill="#1a1a1a" d="M6.34431561.07286377a6.28928043 6.28928043 0 0 0-6.2895386 6.2895385 6.28928043 6.28928043 0 0 0 6.2895386 6.28902166 6.28928043 6.28928043 0 0 0 6.28902167-6.28902167A6.28928043 6.28928043 0 0 0 6.3443156.07286376zm-.01808691.93637693a5.40704372 5.40704372 0 0 1 5.40690507 5.40690505 5.40704372 5.40704372 0 0 1-5.40690507 5.40690508A5.40704372 5.40704372 0 0 1 .91880694 6.41614575 5.40704372 5.40704372 0 0 1 6.3262287 1.0092407zm.02377122.36173502A5.027083 5.027083 0 0 0 1.32291665 6.3980591a5.027083 5.027083 0 0 0 5.02708327 5.02708327 5.027083 5.027083 0 0 0 5.02708327-5.02708327 5.027083 5.027083 0 0 0-5.02708327-5.02708338zm1.6340087 1.75803225v.00103346c1.04114281 0 1.88515623.84402638 1.88515623 1.88515623 0 1.0411399-.84401342 1.88515622-1.88515623 1.88515622-.05113496-.0003601-.1025443-.0027514-.15347897-.0077515L6.34844973 8.17676182c-.00209021.18591-.03851804.36995258-.10748698.54260247-.31095553.77275-1.18942986 1.14715474-1.96215421.8361246-.51753187-.2082599-.85469835-.67136089-.92862558-1.18649088l-1.58233224-.63665363a4.77572884 4.77572884 0 0 1-.1937866-1.335319 4.77572884 4.77572884 0 0 1 .01860349-.36121815l2.32388904.93534334c.25412488-.19799987.56829192-.31686738.90433762-.32142747.07737608-.08929978.96103757-1.0875703 1.2851929-1.48363012-.00448999-.05050023-.00681462-.1012788-.00723477-.15192877 2.6e-7-1.0411399.84401341-1.88515623 1.88515622-1.88515623zm0 .7555095c-.6246852 0-1.13119692.50599021-1.13119692 1.13068019 0 .62467992.50651171 1.13119719 1.13119692 1.13119719.62468548 0 1.1306802-.50650722 1.13068046-1.1311972-2.7e-7-.62468997-.50599498-1.13068018-1.13068046-1.13068018zm0 .25114725a.87973955.87973955 0 0 1 .87953293.87953294.87973955.87973955 0 0 1-.87953293.88004966.87973955.87973955 0 0 1-.88004966-.88004966.87973955.87973955 0 0 1 .88004966-.87953294zM4.85345046 7.15201814c-.1197237-.00094007-.23538338.02071105-.34416497.05891106l.61391588.24701341a.7540625.7540625 0 0 1 .4180623.98081861.7540625.7540625 0 0 1-.98081861.4180623l-.61133222-.24597968c.10627995.20944998.28227364.38445042.51728105.47904055.51515062.2074799 1.1010794-.0418719 1.30844738-.557072.2074844-.5151501-.04239048-1.10108734-.55758873-1.30844711-.1157023-.0466-.2390865-.07094723-.36380208-.07234714z"/>
</svg>
