<svg xmlns="http://www.w3.org/2000/svg" width="48" height="48" viewBox="0 0 12.7 12.7">
  <path fill="#1a1a1a" d="M6.34431561.07286377a6.28928043 6.28928043 0 0 0-6.2895386 6.2895385 6.28928043 6.28928043 0 0 0 6.2895386 6.28902166 6.28928043 6.28928043 0 0 0 6.28902167-6.28902167A6.28928043 6.28928043 0 0 0 6.3443156.07286376zm-.01808691.93637693a5.40704372 5.40704372 0 0 1 5.40690507 5.40690505 5.40704372 5.40704372 0 0 1-5.40690507 5.40690508A5.40704372 5.40704372 0 0 1 .91880694 6.41614575 5.40704372 5.40704372 0 0 1 6.3262287 1.0092407zm.04754244.43201497c-.929604 0-1.68671872.75717868-1.68671872 1.68671884v.56223957h-1.0717694c-.3406804 0-.61494933.27423957-.61494933.61494934V9.8221394c0 .34068993.27424062.6149496.61494934.6149496H9.132259c.34068226 0 .6149496-.27423957.6149496-.6149496V4.30516342c0-.34068993-.2742393-.61494934-.6149496-.61494934H8.06048987v-.56223957c0-.92960017-.75711498-1.68671884-1.68671873-1.68671884zm0 .56223958c.6277946 0 1.12447916.49665908 1.12447916 1.12447926v.56223957H5.249292v-.56223957c0-.62779018.49665624-1.12447926 1.12447914-1.12447926zm-1.42316886 2.2489584c.16124211 0 .29868971.12585965.29868971.2811198 0 .15524982-.1374476.28111979-.2986897.28111979-.16124423 0-.2811198-.12586997-.2811198-.2811198 0-.15526014.11987557-.28111978.2811198-.28111978zm2.81119788 0c.16124211 0 .29868971.12585965.29868971.2811198 0 .15524982-.1374476.28111979-.2986897.28111979-.1612445 0-.2811198-.12586997-.2811198-.2811198 0-.15526014.1198753-.28111978.2811198-.28111978zM5.3681476 5.98361393h1.96370466v1.19785975h.7565427L6.3458658 9.29762358l-1.73426092-2.1161499h.7565427V5.98361391z"/>
  <path fill="green" d="M7.5971193 7.40265L6.3424503 8.9261l-1.248358-1.52345h.544566V6.20551h1.413894v1.19714z" opacity=".75"/>
</svg>
