<svg xmlns="http://www.w3.org/2000/svg" width="48" height="48"><path d="M23.95 3.1A20.86 20.86 0 0 0 3.1 23.95 20.86 20.86 0 0 0 23.95 44.8 20.86 20.86 0 0 0 44.8 23.95 20.86 20.86 0 0 0 23.95 3.1zM24 6.58a17.23 17.23 0 0 1 17.24 17.24A17.23 17.23 0 0 1 24 41.05 17.23 17.23 0 0 1 6.76 23.82 17.23 17.23 0 0 1 24 6.58zm-.26 3.53a13.86 13.86 0 0 0-6.16 1.56l2.48 2.48a10.45 10.45 0 0 1 11.25 2.33 10.45 10.45 0 0 1 2.3 11.23l2.64 2.63a13.86 13.86 0 0 0-2.5-16.19 13.86 13.86 0 0 0-10-4.04zM11.76 17.4a13.86 13.86 0 0 0 2.4 16.36 13.86 13.86 0 0 0 16.36 2.4l-2.62-2.62a10.45 10.45 0 0 1-11.38-2.27 10.45 10.45 0 0 1-2.26-11.38l-2.5-2.5z" fill="#1a1a1a"/></svg>