<svg xmlns="http://www.w3.org/2000/svg" width="48" height="48" viewBox="0 0 12.7 12.7">
  <path fill="#1a1a1a" d="M6.3443156.07286A6.2892804 6.2892804 0 0 0 .05477707 6.3624a6.2892804 6.2892804 0 0 0 6.28953853 6.28902A6.2892804 6.2892804 0 0 0 12.633337 6.3624 6.2892804 6.2892804 0 0 0 6.3443156.07286zm-.018087.93638a5.4070437 5.4070437 0 0 1 5.4069054 5.40691 5.4070437 5.4070437 0 0 1-5.4069054 5.4069 5.4070437 5.4070437 0 0 1-5.40742173-5.4069A5.4070437 5.4070437 0 0 1 6.3262286 1.00924zm.8702313 1.01596c-.9264148 0-1.6763836.71125-1.6763836 1.58905.00726.32488.034148.71092.2232421 1.58957.053465.16285.3107772.45519.5643068.72863-.00625.0616-.00952.11992-.020671.18501-.1236438.10271-.2899902.19341-.4692222.27853-.2848583-.11564-.5576175-.23804-.7276041-.38602l-.0031-.17208c.1245632-.16264.2433965-.32571.2728515-.42168.134415-.61734.1343843-.8441.1415937-1.07436 0-.59341-.4746549-1.07487-1.0598838-1.07487-.5852287 0-1.0593667.48146-1.0593667 1.07487.00458.21961.022145.48039.1415933 1.07436.027266.0889.1433507.23631.2692344.38654l-.00517.20722c-.5173308.42966-1.9253888.62232-1.9233967 1.06712l-.1772502 1.33428c0 .38107.9175838.69892 2.144572.7798.1984877.48927 1.627757.8692 3.3646525.8692 1.8726221 0 3.3910076-.44123 3.3910076-.98547l-.218592-1.64228c-.0027-.46853-1.640702-.76769-2.2696285-1.31516-.00526-.0434-.00583-.0856-.0093-.12868.2426724-.28929.5033817-.61044.5606892-.78496.212785-.91314.2118283-1.24898.2232421-1.58957 0-.8778-.751002-1.58905-1.6774159-1.58905z"/>
</svg>
