<svg xmlns="http://www.w3.org/2000/svg" width="48" height="48" viewBox="0 0 12.7 12.7"><path fill="#1a1a1a" d="M6.344.073a6.29 6.29 0 0 0-6.29 6.29 6.29 6.29 0 0 0 6.29 6.288 6.29 6.29 0 0 0 6.29-6.289 6.29 6.29 0 0 0-6.29-6.29zm-.018.936a5.407 5.407 0 0 1 5.407 5.407 5.407 5.407 0 0 1-5.407 5.407A5.407 5.407 0 0 1 .92 6.416 5.407 5.407 0 0 1 6.326 1.01zm-2.094.73a.21.21 0 0 0-.165.08L2.46 3.857a.205.205 0 0 0-.046.13V9.71c0 .115.095.21.21.21h7.428c.115 0 .21-.095.21-.21V3.986a.195.195 0 0 0-.044-.13L8.613 1.82a.21.21 0 0 0-.164-.081H4.232zm.101.42H6.13v1.652H3.032l1.301-1.652zm2.218 0h1.796L9.65 3.811H6.55V2.159zM2.836 4.231h7.007V9.5H2.836V4.23zm2.395.494v1.896h-.863l1.977 2.412 1.987-2.412h-.863V4.725H5.231z"/></svg>