<svg xmlns="http://www.w3.org/2000/svg" width="48" height="48" viewBox="0 0 12.7 12.7">
  <path fill="#1a1a1a" d="M6.34431561.07286377a6.28928043 6.28928043 0 0 0-6.2895386 6.2895385 6.28928043 6.28928043 0 0 0 6.2895386 6.28902166 6.28928043 6.28928043 0 0 0 6.28902167-6.28902167A6.28928043 6.28928043 0 0 0 6.3443156.07286376zm-.01808691.93637693a5.40704372 5.40704372 0 0 1 5.40690507 5.40690505 5.40704372 5.40704372 0 0 1-5.40690507 5.40690508A5.40704372 5.40704372 0 0 1 .91880694 6.41614575 5.40704372 5.40704372 0 0 1 6.3262287 1.0092407zm-2.09444561.72967122c-.06480017 0-.12456901.02981523-.16484785.08061523L2.46083166 3.8560954c-.02976999.03679983-.04547523.08240765-.04547526.12970774V9.7105183c0 .11558006.09473999.21032311.21032309.21032311h7.42693686c.11558481 0 .21032284-.09480312.21032284-.2103231V3.98580313c.00170021-.0473001-.01417479-.0929079-.0439248-.12970774L8.61342776 1.81952715c-.04028017-.0508-.10005087-.08061523-.16484785-.08061523H4.23178309zm.10128567.42012938h1.79678963v1.65157884H3.03185615L4.33306876 2.1590413zm2.21743558 0h1.79678963l1.30121261 1.65157884H6.55050434V2.1590413zM2.83600257 4.23074936h7.0068074v5.26996256h-7.0068074V4.23074936zm2.39468577.49454355v1.89549164h-.86247947l1.97662347 2.4122557 1.98695863-2.4122557H7.4693115V4.72529291H5.23068834z"/>
</svg>
