<?xml version="1.0" encoding="UTF-8" standalone="no"?>
<!-- Created with Inkscape (http://www.inkscape.org/) -->

<svg
   xmlns:dc="http://purl.org/dc/elements/1.1/"
   xmlns:cc="http://creativecommons.org/ns#"
   xmlns:rdf="http://www.w3.org/1999/02/22-rdf-syntax-ns#"
   xmlns:svg="http://www.w3.org/2000/svg"
   xmlns="http://www.w3.org/2000/svg"
   xmlns:sodipodi="http://sodipodi.sourceforge.net/DTD/sodipodi-0.dtd"
   xmlns:inkscape="http://www.inkscape.org/namespaces/inkscape"
   width="48"
   height="48"
   viewBox="0 0 12.7 12.7"
   version="1.1"
   id="svg829"
   inkscape:version="0.92.3 (2405546, 2018-03-11)"
   sodipodi:docname="thunderbird.svg">
  <defs
     id="defs823">
    <linearGradient
       id="linearGradient2252">
      <stop
         style="stop-color:#ffffff;stop-opacity:1;"
         offset="0"
         id="stop2254" />
      <stop
         style="stop-color:#d0d0d0;stop-opacity:1;"
         offset="1"
         id="stop2256" />
    </linearGradient>
    <linearGradient
       id="SVGID_1_"
       gradientUnits="userSpaceOnUse"
       x1="199.533"
       y1="201.907"
       x2="39.678699"
       y2="42.0527">
      <stop
         offset="0"
         style="stop-color:#130036"
         id="stop4" />
      <stop
         offset="0.2297"
         style="stop-color:#18023B"
         id="stop6" />
      <stop
         offset="0.5122"
         style="stop-color:#26094A"
         id="stop8" />
      <stop
         offset="0.8211"
         style="stop-color:#3D1563"
         id="stop10" />
      <stop
         offset="1"
         style="stop-color:#4E1D75"
         id="stop12" />
    </linearGradient>
    <linearGradient
       id="SVGID_2_"
       gradientUnits="userSpaceOnUse"
       x1="10.2428"
       y1="95.311302"
       x2="57.703899"
       y2="95.311302">
      <stop
         offset="0"
         style="stop-color:#3156A8"
         id="stop27" />
      <stop
         offset="0.2474"
         style="stop-color:#3351A4"
         id="stop29" />
      <stop
         offset="0.5365"
         style="stop-color:#3B4397"
         id="stop31" />
      <stop
         offset="0.8453"
         style="stop-color:#472C82"
         id="stop33" />
      <stop
         offset="1"
         style="stop-color:#4E1D75"
         id="stop35" />
    </linearGradient>
    <radialGradient
       id="SVGID_3_"
       cx="59.0732"
       cy="113.9232"
       r="85.246597"
       gradientTransform="matrix(1,0,0,1.45,0,-51.2654)"
       gradientUnits="userSpaceOnUse">
      <stop
         offset="0.1654"
         style="stop-color:#14CDDA"
         id="stop40" />
      <stop
         offset="0.5478"
         style="stop-color:#2061BD"
         id="stop42" />
      <stop
         offset="0.6546"
         style="stop-color:#2658AC"
         id="stop44" />
      <stop
         offset="0.864"
         style="stop-color:#373F81"
         id="stop46" />
      <stop
         offset="1"
         style="stop-color:#432D62"
         id="stop48" />
    </radialGradient>
    <linearGradient
       id="SVGID_4_"
       gradientUnits="userSpaceOnUse"
       x1="44.5387"
       y1="57.897499"
       x2="191.515"
       y2="57.897499">
      <stop
         offset="0"
         style="stop-color:#2061BD"
         id="stop53" />
      <stop
         offset="0.1846"
         style="stop-color:#2B51AC"
         id="stop55" />
      <stop
         offset="0.6826"
         style="stop-color:#442C84"
         id="stop57" />
      <stop
         offset="0.9409"
         style="stop-color:#4E1D75"
         id="stop59" />
    </linearGradient>
    <linearGradient
       id="SVGID_5_"
       gradientUnits="userSpaceOnUse"
       x1="66.173599"
       y1="23.205601"
       x2="167.26421"
       y2="111.0823">
      <stop
         offset="0.0202"
         style="stop-color:#48A8E0"
         id="stop68" />
      <stop
         offset="0.3883"
         style="stop-color:#2061BD"
         id="stop70" />
      <stop
         offset="0.4968"
         style="stop-color:#2B51AC"
         id="stop72" />
      <stop
         offset="0.7892"
         style="stop-color:#442C84"
         id="stop74" />
      <stop
         offset="0.9409"
         style="stop-color:#4E1D75"
         id="stop76" />
    </linearGradient>
    <linearGradient
       id="SVGID_6_"
       gradientUnits="userSpaceOnUse"
       x1="19.676201"
       y1="337.41391"
       x2="217.8353"
       y2="43.630901">
      <stop
         offset="0.3787"
         style="stop-color:#3156A8"
         id="stop81" />
      <stop
         offset="1"
         style="stop-color:#4E1D75"
         id="stop83" />
    </linearGradient>
    <linearGradient
       id="SVGID_7_"
       gradientUnits="userSpaceOnUse"
       x1="96.745201"
       y1="278.64581"
       x2="206.3175"
       y2="32.542301">
      <stop
         offset="0"
         style="stop-color:#29ABE2"
         id="stop88" />
      <stop
         offset="0.7733"
         style="stop-color:#385AA6"
         id="stop90" />
      <stop
         offset="0.8575"
         style="stop-color:#414293"
         id="stop92" />
      <stop
         offset="1"
         style="stop-color:#4E1D75"
         id="stop94" />
    </linearGradient>
    <linearGradient
       id="SVGID_8_"
       gradientUnits="userSpaceOnUse"
       x1="48.2686"
       y1="92.033699"
       x2="54.241402"
       y2="95.4683">
      <stop
         offset="0"
         style="stop-color:#B0DCD6"
         id="stop99" />
      <stop
         offset="1"
         style="stop-color:#53ACE0"
         id="stop101" />
    </linearGradient>
    <mask
       maskUnits="userSpaceOnUse"
       x="162.68"
       y="18.355"
       width="14.927"
       height="6.629"
       id="SVGID_9_">
      <g
         class="st13"
         id="g118">
        <radialGradient
           id="SVGID_10_"
           cx="154.384"
           cy="67.998497"
           r="51.967499"
           gradientUnits="userSpaceOnUse">
          <stop
             offset="0.868"
             style="stop-color:#FFFFFF"
             id="stop111" />
          <stop
             offset="1"
             style="stop-color:#000000"
             id="stop113" />
        </radialGradient>
        <rect
           x="91.294998"
           y="-7.2179999"
           class="st14"
           width="100.015"
           height="93.338997"
           id="rect116" />
      </g>
    </mask>
    <filter
       id="Adobe_OpacityMaskFilter"
       filterUnits="userSpaceOnUse"
       x="162.67999"
       y="18.355"
       width="14.927"
       height="6.6290002">
      <feColorMatrix
         type="matrix"
         values="1 0 0 0 0  0 1 0 0 0  0 0 1 0 0  0 0 0 1 0"
         id="feColorMatrix106" />
    </filter>
    <radialGradient
       id="radialGradient1070"
       cx="154.384"
       cy="67.998497"
       r="51.967499"
       gradientUnits="userSpaceOnUse">
      <stop
         offset="0.868"
         style="stop-color:#FFFFFF"
         id="stop1066" />
      <stop
         offset="1"
         style="stop-color:#000000"
         id="stop1068" />
    </radialGradient>
    <linearGradient
       id="SVGID_11_"
       gradientUnits="userSpaceOnUse"
       x1="176.2139"
       y1="23.0851"
       x2="164.2403"
       y2="20.555401">
      <stop
         offset="0"
         style="stop-color:#3092B9"
         id="stop121" />
      <stop
         offset="0.2199"
         style="stop-color:#258DB6"
         id="stop123" />
      <stop
         offset="0.6564"
         style="stop-color:#1685B1"
         id="stop125" />
      <stop
         offset="1"
         style="stop-color:#1082AF"
         id="stop127" />
    </linearGradient>
    <linearGradient
       id="SVGID_12_"
       gradientUnits="userSpaceOnUse"
       x1="80.783798"
       y1="38.0252"
       x2="90.637001"
       y2="77.544296">
      <stop
         offset="0.0074"
         style="stop-color:#1398D1;stop-opacity:0"
         id="stop138" />
      <stop
         offset="0.2482"
         style="stop-color:#1187C2;stop-opacity:0.6197"
         id="stop140" />
      <stop
         offset="0.6422"
         style="stop-color:#3F6499;stop-opacity:0.71"
         id="stop142" />
      <stop
         offset="1"
         style="stop-color:#2F4282;stop-opacity:0.5"
         id="stop144" />
    </linearGradient>
    <linearGradient
       id="SVGID_13_"
       gradientUnits="userSpaceOnUse"
       x1="48.7383"
       y1="14.373"
       x2="43.199299"
       y2="11.3027"
       gradientTransform="matrix(0.9994,0.0349,-0.0349,0.9994,24.5906,57.1202)">
      <stop
         offset="0"
         style="stop-color:#F9C21B"
         id="stop153" />
      <stop
         offset="0.1479"
         style="stop-color:#F3BA1B"
         id="stop155" />
      <stop
         offset="0.3787"
         style="stop-color:#E3A41B"
         id="stop157" />
      <stop
         offset="0.6634"
         style="stop-color:#C9801C"
         id="stop159" />
      <stop
         offset="0.9884"
         style="stop-color:#A44E1C"
         id="stop161" />
      <stop
         offset="1"
         style="stop-color:#A34C1C"
         id="stop163" />
    </linearGradient>
    <linearGradient
       id="SVGID_14_"
       gradientUnits="userSpaceOnUse"
       x1="206.2113"
       y1="130.1391"
       x2="169.42979"
       y2="47.526402">
      <stop
         offset="0"
         style="stop-color:#409EC3"
         id="stop174" />
      <stop
         offset="0.62"
         style="stop-color:#2061BD"
         id="stop176" />
    </linearGradient>
    <linearGradient
       id="SVGID_15_"
       gradientUnits="userSpaceOnUse"
       x1="176.7603"
       y1="103.061"
       x2="150.40691"
       y2="21.9536">
      <stop
         offset="0"
         style="stop-color:#14B2DA"
         id="stop181" />
      <stop
         offset="0.4028"
         style="stop-color:#297CCC"
         id="stop183" />
      <stop
         offset="0.5077"
         style="stop-color:#256FC5"
         id="stop185" />
      <stop
         offset="0.6492"
         style="stop-color:#2164BF"
         id="stop187" />
      <stop
         offset="0.8162"
         style="stop-color:#2061BD"
         id="stop189" />
      <stop
         offset="0.9835"
         style="stop-color:#2061BD"
         id="stop191" />
    </linearGradient>
    <filter
       id="filter1196"
       filterUnits="userSpaceOnUse"
       x="162.67999"
       y="18.355"
       width="14.927"
       height="6.6290002">
      <feColorMatrix
         type="matrix"
         values="1 0 0 0 0  0 1 0 0 0  0 0 1 0 0  0 0 0 1 0"
         id="feColorMatrix1194" />
    </filter>
    <linearGradient
       id="SVGID_12_-2"
       gradientUnits="userSpaceOnUse"
       x1="80.783798"
       y1="38.0252"
       x2="90.637001"
       y2="77.544296"
       gradientTransform="matrix(0.26458333,0,0,0.26458333,-16.075058,275.69592)">
      <stop
         offset="0.0074"
         style="stop-color:#1398D1;stop-opacity:0"
         id="stop138-7" />
      <stop
         offset="0.2482"
         style="stop-color:#1187C2;stop-opacity:0.6197"
         id="stop140-0" />
      <stop
         offset="0.6422"
         style="stop-color:#3F6499;stop-opacity:0.71"
         id="stop142-9" />
      <stop
         offset="1"
         style="stop-color:#2F4282;stop-opacity:0.5"
         id="stop144-3" />
    </linearGradient>
    <linearGradient
       id="SVGID_6_-0"
       gradientUnits="userSpaceOnUse"
       x1="19.676201"
       y1="337.41391"
       x2="217.8353"
       y2="43.630901"
       gradientTransform="matrix(0.26458333,0,0,0.26458333,-40.39838,256.42506)">
      <stop
         offset="0.3787"
         style="stop-color:#3156A8"
         id="stop81-6" />
      <stop
         offset="1"
         style="stop-color:#4E1D75"
         id="stop83-2" />
    </linearGradient>
    <linearGradient
       id="SVGID_13_-1"
       gradientUnits="userSpaceOnUse"
       x1="48.7383"
       y1="14.373"
       x2="43.199299"
       y2="11.3027"
       gradientTransform="matrix(0.04825744,0.0016852,-0.0016852,0.04825744,14.696655,291.82647)">
      <stop
         offset="0"
         style="stop-color:#F9C21B"
         id="stop153-8" />
      <stop
         offset="0.1479"
         style="stop-color:#F3BA1B"
         id="stop155-7" />
      <stop
         offset="0.3787"
         style="stop-color:#E3A41B"
         id="stop157-9" />
      <stop
         offset="0.6634"
         style="stop-color:#C9801C"
         id="stop159-2" />
      <stop
         offset="0.9884"
         style="stop-color:#A44E1C"
         id="stop161-0" />
      <stop
         offset="1"
         style="stop-color:#A34C1C"
         id="stop163-2" />
    </linearGradient>
    <linearGradient
       id="SVGID_12_-3"
       gradientUnits="userSpaceOnUse"
       x1="80.783798"
       y1="38.0252"
       x2="90.637001"
       y2="77.544296"
       gradientTransform="matrix(0.04828641,0,0,0.04828641,13.509264,289.06834)">
      <stop
         offset="0.0074"
         style="stop-color:#1398D1;stop-opacity:0"
         id="stop138-75" />
      <stop
         offset="0.2482"
         style="stop-color:#1187C2;stop-opacity:0.6197"
         id="stop140-9" />
      <stop
         offset="0.6422"
         style="stop-color:#3F6499;stop-opacity:0.71"
         id="stop142-2" />
      <stop
         offset="1"
         style="stop-color:#2F4282;stop-opacity:0.5"
         id="stop144-2" />
    </linearGradient>
    <linearGradient
       id="SVGID_12_-3-3"
       gradientUnits="userSpaceOnUse"
       x1="80.783798"
       y1="38.0252"
       x2="90.637001"
       y2="77.544296"
       gradientTransform="matrix(0.04828641,0,0,0.04828641,-7.657403,289.06834)">
      <stop
         offset="0.0074"
         style="stop-color:#1398D1;stop-opacity:0"
         id="stop138-75-6" />
      <stop
         offset="0.2482"
         style="stop-color:#1187C2;stop-opacity:0.6197"
         id="stop140-9-7" />
      <stop
         offset="0.6422"
         style="stop-color:#3F6499;stop-opacity:0.71"
         id="stop142-2-5" />
      <stop
         offset="1"
         style="stop-color:#2F4282;stop-opacity:0.5"
         id="stop144-2-3" />
    </linearGradient>
  </defs>
  <sodipodi:namedview
     id="base"
     pagecolor="#ffffff"
     bordercolor="#666666"
     borderopacity="1.0"
     inkscape:pageopacity="0.0"
     inkscape:pageshadow="2"
     inkscape:zoom="7.8812943"
     inkscape:cx="24"
     inkscape:cy="24"
     inkscape:document-units="mm"
     inkscape:current-layer="layer1"
     showgrid="false"
     showguides="true"
     inkscape:guide-bbox="true"
     inkscape:window-width="1366"
     inkscape:window-height="714"
     inkscape:window-x="0"
     inkscape:window-y="25"
     inkscape:window-maximized="1"
     scale-x="1.9"
     units="px"
     inkscape:snap-global="false" />
  <metadata
     id="metadata826">
    <rdf:RDF>
      <cc:Work
         rdf:about="">
        <dc:format>image/svg+xml</dc:format>
        <dc:type
           rdf:resource="http://purl.org/dc/dcmitype/StillImage" />
        <dc:title />
      </cc:Work>
    </rdf:RDF>
  </metadata>
  <g
     inkscape:label="Capa 1"
     inkscape:groupmode="layer"
     id="layer1"
     transform="translate(0,-284.3)">
    <path
       style="fill:#1a1a1a;fill-opacity:1;stroke-width:0.52516764"
       d="M 23.978516 0.27539062 A 23.770509 23.770509 0 0 0 0.20703125 24.046875 A 23.770509 23.770509 0 0 0 23.978516 47.816406 A 23.770509 23.770509 0 0 0 47.748047 24.046875 A 23.770509 23.770509 0 0 0 23.978516 0.27539062 z M 23.910156 3.8144531 A 20.436071 20.436071 0 0 1 44.345703 24.25 A 20.436071 20.436071 0 0 1 23.910156 44.685547 A 20.436071 20.436071 0 0 1 3.4726562 24.25 A 20.436071 20.436071 0 0 1 23.910156 3.8144531 z M 21.414062 5.765625 C 20.537846 5.7010577 18.094341 6.264532 15.957031 8.6113281 C 9.3920294 11.342582 5.4628906 17.379411 5.4628906 23.945312 C 5.4628906 31.216772 9.5209431 35.459717 12.460938 37.384766 C 12.467702 37.389195 12.473716 37.394033 12.480469 37.398438 C 12.924851 37.715707 13.409181 37.986936 13.925781 38.212891 C 14.457605 38.459927 14.895984 38.606967 15.15625 38.636719 C 15.255633 38.666955 13.848601 36.442728 13.226562 33.767578 C 14.437766 34.999629 15.881871 35.973671 17.501953 36.142578 C 17.665833 36.165117 16.927679 35.248872 16.113281 34.042969 L 29.220703 38.402344 C 28.026849 39.623454 26.436018 40.799347 24.28125 41.847656 C 24.28125 41.847656 29.141129 41.450886 31.550781 38.738281 C 30.570886 40.991673 27.880859 42.208984 27.880859 42.208984 C 29.859557 41.919095 35.058108 40.385029 38.369141 36.244141 C 42.116686 31.557111 43.243578 27.16029 42.115234 21.265625 C 40.972833 15.297338 35.827628 9.836175 31.269531 8.7402344 C 29.50635 7.7388542 27.678973 7.2243591 26.384766 7.0566406 C 24.236905 6.7788453 22.442444 6.8329059 20.916016 7.1269531 C 21.396051 6.6667578 21.949219 6.4394531 21.949219 6.4394531 C 21.229459 6.5033271 20.331488 6.9732039 19.560547 7.4707031 C 19.482612 7.4954974 19.41439 7.5286304 19.337891 7.5546875 C 19.073418 7.6116002 18.824583 7.6913833 18.566406 7.7578125 C 18.755202 7.5176485 18.957683 7.2686206 19.162109 7.0742188 C 20.068603 6.2122219 21.414062 5.765625 21.414062 5.765625 z M 22.025391 10.376953 C 21.568206 10.601844 21.105727 10.903652 20.646484 11.261719 C 20.416863 11.440752 20.187701 11.634624 19.960938 11.837891 C 18.827116 12.854226 17.743411 14.135538 16.849609 15.304688 C 16.897758 15.39796 16.916557 15.508356 16.925781 15.621094 C 16.929034 15.665113 16.929659 15.710089 16.927734 15.755859 C 16.925227 15.82841 16.914317 15.901727 16.900391 15.976562 C 16.890362 16.028138 16.883834 16.079252 16.869141 16.130859 C 16.842463 16.226581 16.807574 16.320616 16.767578 16.412109 C 16.763951 16.420388 16.761527 16.429278 16.757812 16.4375 C 16.691105 16.585206 16.615461 16.72388 16.527344 16.839844 C 16.36019 17.059434 15.925447 17.373715 15.361328 17.375 C 14.904082 18.055428 14.626953 18.507812 14.626953 18.507812 C 14.542943 18.268047 14.271179 17.178757 14.347656 16.054688 C 14.354843 15.949034 14.373022 15.843847 14.386719 15.738281 C 14.400808 15.631522 14.415623 15.525237 14.4375 15.419922 C 14.455698 15.330919 14.479571 15.243294 14.503906 15.15625 C 14.540151 15.028568 14.585665 14.90444 14.636719 14.783203 C 14.671889 14.698946 14.702972 14.613268 14.746094 14.533203 C 14.758604 14.510101 14.771957 14.487548 14.785156 14.464844 C 14.867723 14.322195 14.959974 14.184486 15.072266 14.060547 C 17.160988 11.755073 22.351571 10.21277 22.025391 10.376953 z M 11.224609 15.544922 L 11.792969 15.650391 L 12.431641 15.751953 C 12.468209 15.987962 12.505382 16.222854 12.560547 16.472656 C 12.688435 17.053192 12.712112 17.979334 12.585938 18.578125 C 12.560766 18.698314 12.232945 19.008437 12.148438 19.84375 C 12.145501 19.872558 12.150531 19.892053 12.148438 19.919922 C 11.270066 18.623292 10.14442 16.95788 9.9394531 16.683594 C 10.343873 16.199298 10.775468 15.826582 11.224609 15.544922 z M 15.839844 15.921875 C 15.640276 15.914556 15.472502 16.024381 15.373047 16.179688 A 0.17052023 0.17052023 0 0 1 15.476562 16.142578 A 0.17052023 0.17052023 0 0 1 15.648438 16.314453 A 0.17052023 0.17052023 0 0 1 15.476562 16.484375 A 0.17052023 0.17052023 0 0 1 15.308594 16.326172 C 15.297761 16.363791 15.280799 16.400018 15.279297 16.441406 C 15.268714 16.738855 15.503104 16.983659 15.802734 16.996094 C 16.101725 17.007432 16.354354 16.775889 16.365234 16.478516 C 16.375439 16.181445 16.138881 15.934272 15.839844 15.921875 z M 15.359375 16.191406 A 0.17052023 0.17052023 0 0 0 15.306641 16.314453 A 0.17052023 0.17052023 0 0 0 15.308594 16.322266 C 15.321369 16.276155 15.335322 16.231469 15.359375 16.191406 z M 9.609375 17.115234 C 10.872682 18.917285 17.266288 28.533203 17.658203 28.533203 C 17.6607 28.533203 17.662249 28.531817 17.664062 28.53125 C 17.69324 28.519911 17.723319 28.505606 17.753906 28.498047 L 17.753906 28.511719 C 20.525553 27.526484 27.951116 24.971404 32.339844 23.462891 C 32.269672 25.582846 31.585257 27.452799 30.550781 28.417969 C 31.46988 28.20367 32.467619 27.080463 33.382812 25.316406 C 33.27295 26.056513 33.178205 26.963461 33.041016 27.976562 C 32.734523 30.240615 32.92603 34.307819 29.570312 38.021484 L 8.2617188 30.9375 C 7.6373706 29.005216 7.3606913 26.744852 7.5195312 24.097656 C 7.8877427 24.803332 9.0219715 25.383319 9.7285156 25.398438 C 8.8783237 24.597193 7.1080418 20.651656 9.609375 17.115234 z M 19.339844 17.25 L 31.644531 19.298828 C 32.051189 20.375578 32.270971 21.484163 32.324219 22.560547 C 27.096125 24.540082 20.500629 26.991609 17.75 27.724609 C 17.744746 27.726008 17.741695 27.728364 17.736328 27.728516 C 17.521752 27.785774 15.168782 24.364559 12.976562 21.134766 C 13.97567 19.862442 14.884766 19.583984 14.884766 19.583984 C 16.43536 18.948759 17.082314 18.270556 18.742188 17.423828 C 18.909303 17.338549 19.114656 17.285833 19.339844 17.25 z "
       transform="matrix(0.26458333,0,0,0.26458333,0,284.3)"
       id="path834" />
  </g>
</svg>
