<svg xmlns="http://www.w3.org/2000/svg" width="48" height="48" viewBox="0 0 12.7 12.7">
  <defs>
    <clipPath id="a"/>
  </defs>
  <path fill="#1a1a1a" d="M6.34431561.07286377a6.28928043 6.28928043 0 0 0-6.2895386 6.2895385 6.28928043 6.28928043 0 0 0 6.2895386 6.28902166 6.28928043 6.28928043 0 0 0 6.28902167-6.28902167A6.28928043 6.28928043 0 0 0 6.3443156.07286376zm-.01808691.93637693a5.40704372 5.40704372 0 0 1 5.40690507 5.40690505 5.40704372 5.40704372 0 0 1-5.40690507 5.40690508A5.40704372 5.40704372 0 0 1 .91880694 6.41614575 5.40704372 5.40704372 0 0 1 6.3262287 1.0092407zM3.99613856 2.28409828L2.5502319 3.75584292H10.1497679L8.69766024 2.28409828H3.99613856zM2.5502319 3.89123524V9.9973224h7.59488515V3.89123524H2.55023191zm.3364135.27078463h6.92205818v5.5650349H2.8866454v-5.5650349zm.37775488.42167968v4.71754141h6.14484438v-4.7175414H3.2644003zm3.6421549.2656168l.20980611.50797935a1.29158115 1.29158115 0 0 1 .26096595.0289388l.31160905-.44906829c.11005793.03826008.20990507.09227847.31005859.15037858l-.13074147.52813294a1.30317765 1.30317765 0 0 1 .190686.17466653l.51469739-.17828365a1.78069166 1.78069166 0 0 1 .16794823.30282382l-.41392818.3467489a1.24364947 1.24364947 0 0 1 .03358965.12505689c.00877808.04365995.01377685.08444071.01808691.12764082l.51676432.15761308c-.00156607.1173599-.01274022.2317451-.0366903.34416497l-.54363593.0366903c-.02804027.08193987-.06472.16082777-.10800397.2351278l.32711178.43563222c-.06954732.09253008-.14095836.18141579-.22737604.25941575l-.46198736-.29248867c-.07022306.05029015-.1475359.09327436-.22841003.12867428l.00516784.54983723a1.83429294 1.83429294 0 0 1-.3312459.06717956L7.080188 7.92819821c-.08810413-.00240004-.17590161-.01127231-.25993249-.02997253l-.31160904.45010175c-.10979283-.03813995-.21015854-.09217818-.3100586-.15037831l.13074148-.5281332c-.06884908-.0517099-.13389266-.10964942-.19171946-.17414954l-.51366393.17776692a1.78069166 1.78069166 0 0 1-.16639805-.29662278l-.09818528.20670572a.76015891.76015891 0 0 1 .0888836.12195652l.31522616-.04237461a1.03869838 1.03869838 0 0 1 .06097825.19326965l-.27698567.14986185a.72543542.72543542 0 0 1 .00413411.07544753c0 .02590006-.00165417.0496308-.00413411.07493079l.27698567.14986159c-.014578.06700017-.03422015.13125317-.06097825.19275319l-.31522617-.04185788c-.0255561.04353983-.05551143.08455633-.0888836.12195624l.13642579.28680437c-.0505095.04505986-.10172277.08807317-.16019674.12247297l-.2294435-.221175c-.04599436.02089997-.09536138.0356087-.14572746.04650873l-.06097826.31522617a1.06996456 1.06996456 0 0 1-.19740403 0l-.061495-.31522617c-.0502113-.01090004-.09936267-.02610882-.14521073-.04650872l-.23047669.221175c-.05833268-.03435986-.10932636-.0775732-.15968027-.12247298l.13590905-.28680437c-.03337613-.03723983-.06332643-.07845636-.0888836-.12195624l-.31470943.04185788a1.03869838 1.03869838 0 0 1-.06149499-.1927532l.2775024-.14986158c-.00252968-.0254-.00465084-.04873096-.00465084-.0749308 0-.02590005.00199125-.05024754.00465085-.07544752l-.2775024-.14986185a1.03839779 1.03839779 0 0 1 .06149498-.19326965l.31470943.0423746a.76015891.76015891 0 0 1 .0888836-.1219565l-.13590905-.28732083c.0503682-.04512998.10134917-.08755645.15968027-.12195651l.23047669.22117526a.7538455.7538455 0 0 1 .14521074-.04754245l.06149499-.3141927a1.06996456 1.06996456 0 0 1 .09818528-.00516759c.03307503 0 .06674591.00439764.09921875.00516758l.06097826.3147097a.75339455.75339455 0 0 1 .14572747.04702546l.22944349-.22065827c.05847344.03433948.10969492.0770562.16019674.12195625l-.0320392.06666256.40565996-.33899739c-.01287013-.04114985-.02466975-.08177371-.03358965-.12557363-.00887597-.04396-.01326012-.08444098-.01757018-.12764082l-.51728105-.15709635a1.78017644 1.78017644 0 0 1 .03720703-.3451987l.54311946-.0361733a1.30317765 1.30317765 0 0 1 .10800371-.2351278l-.32659504-.43563248c.06933115-.09242002.14017889-.18141553.22634257-.25941549l.46302082.29197167a1.29235444 1.29235444 0 0 1 .22841003-.12815755l-.00516784-.54983723a1.83429294 1.83429294 0 0 1 .16381439-.04134115c.05555906-.01090003.1123807-.0178382.16743177-.02583814zm.19171946 1.02112628a.77309662.77309662 0 0 0-.15347897.01498627.77332286.77332286 0 0 0 .3079914 1.51566957.77309662.77309662 0 0 0-.12764055-1.5301391.77309662.77309662 0 0 0-.02687188-.00051674zM4.8002237 7.63002523a.45113522.45113522 0 1 0 0 .90227043.45113522.45113522 0 0 0 0-.90227043z"/>
</svg>
