<svg xmlns="http://www.w3.org/2000/svg" width="48" height="48" viewBox="0 0 12.7 12.7"><path fill="#1a1a1a" d="M6.344.073a6.29 6.29 0 0 0-6.29 6.29 6.29 6.29 0 0 0 6.29 6.288 6.29 6.29 0 0 0 6.29-6.289 6.29 6.29 0 0 0-6.29-6.29zm-.018.936a5.407 5.407 0 0 1 5.407 5.407 5.407 5.407 0 0 1-5.407 5.407A5.407 5.407 0 0 1 .92 6.416 5.407 5.407 0 0 1 6.326 1.01zM5.111 2.474a.471.471 0 0 0-.471.472V3.7h.943v-.754a.47.47 0 0 0-.472-.472zm3.987 0a.471.471 0 0 0-.472.472V3.7h.943v-.754a.47.47 0 0 0-.47-.472zM3.343 3.913V5.2h.008v1.596a2.056 2.056 0 0 0-1.185 1.86 2.056 2.056 0 0 0 2.056 2.056 2.056 2.056 0 0 0 1.604-.771h3.507c.423 0 .786-.138 1.087-.415.3-.278.45-.61.45-1V4.66h-.004v-.748zM4.034 5.2h6.153v3.325a.728.728 0 0 1-.25.556.86.86 0 0 1-.604.23H6.168a2.056 2.056 0 0 0 .11-.655 2.056 2.056 0 0 0-.009-.16h.572v-.291h-.616a2.056 2.056 0 0 0-.157-.447l.212-.216c.153-.16.244-.256.273-.29.104-.127.176-.238.215-.332a.763.763 0 0 0 .06-.3.658.658 0 0 0-.237-.53c-.158-.134-.37-.2-.635-.2-.1 0-.211.014-.333.043a2.759 2.759 0 0 0-.39.127v.35a2.08 2.08 0 0 1 .385-.172c.121-.038.236-.056.345-.056.153 0 .277.042.372.128a.427.427 0 0 1 .144.333.556.556 0 0 1-.067.255 1.607 1.607 0 0 1-.232.316c-.036.041-.164.172-.266.276a2.056 2.056 0 0 0-1.692-.89 2.056 2.056 0 0 0-.188.009zm4.158.736l-.612.124v.315l.616-.124v1.953H7.63v.292h1.475v-.292h-.566V5.937zm-4.212.68a2.056 2.056 0 0 0-.07.01 2.056 2.056 0 0 1 .07-.01zm-.23.04a2.056 2.056 0 0 0-.031.008 2.056 2.056 0 0 1 .031-.008zm.466.25a1.768 1.768 0 0 1 1.768 1.767 1.768 1.768 0 0 1-1.768 1.768 1.768 1.768 0 0 1-1.768-1.768 1.768 1.768 0 0 1 1.768-1.767zm.862.95v.004a.146.146 0 0 0-.02 0 .146.146 0 0 0-.074.046l-.774.773-.483-.48a.146.146 0 1 0-.2.2l.583.583a.146.146 0 0 0 .2 0l.874-.874a.146.146 0 0 0-.106-.25zm1.018 1.638a2.056 2.056 0 0 1-.008.017 2.056 2.056 0 0 0 .008-.017zm-.083.165a2.056 2.056 0 0 1-.03.052 2.056 2.056 0 0 0 .03-.052zm-.104.167a2.056 2.056 0 0 1-.063.09 2.056 2.056 0 0 0 .063-.09z"/></svg>