<svg xmlns="http://www.w3.org/2000/svg" width="48" height="48" viewBox="0 0 12.7 12.7">
  <path fill="#1a1a1a" d="M6.34431561.07286377a6.28928043 6.28928043 0 0 0-6.2895386 6.2895385 6.28928043 6.28928043 0 0 0 6.2895386 6.28902166 6.28928043 6.28928043 0 0 0 6.28902167-6.28902167A6.28928043 6.28928043 0 0 0 6.3443156.07286376zm-.01808691.93637693a5.40704372 5.40704372 0 0 1 5.40690507 5.40690505 5.40704372 5.40704372 0 0 1-5.40690507 5.40690508A5.40704372 5.40704372 0 0 1 .91880694 6.41614575 5.40704372 5.40704372 0 0 1 6.3262287 1.0092407zM2.21226803 3.96719976v3.78633218l8.27494707.00516757.00051673-1.24850259H3.59151207V5.1257853h6.89621976V3.99975594l-8.2754638-.03255618zm1.6717327 4.98109101v.84284263h.81958814v-.84284263h-.81958814zm1.96422114 0v.84284263H6.66781v-.84284263h-.81958814zm1.96422113 0v.84284263h.81958814v-.84284263H7.812443z"/>
</svg>
