<?xml version="1.0" encoding="UTF-8" standalone="no"?>
<!-- Created with Inkscape (http://www.inkscape.org/) -->

<svg
   xmlns:dc="http://purl.org/dc/elements/1.1/"
   xmlns:cc="http://creativecommons.org/ns#"
   xmlns:rdf="http://www.w3.org/1999/02/22-rdf-syntax-ns#"
   xmlns:svg="http://www.w3.org/2000/svg"
   xmlns="http://www.w3.org/2000/svg"
   xmlns:sodipodi="http://sodipodi.sourceforge.net/DTD/sodipodi-0.dtd"
   xmlns:inkscape="http://www.inkscape.org/namespaces/inkscape"
   width="48"
   height="48"
   viewBox="0 0 12.7 12.7"
   version="1.1"
   id="svg829"
   inkscape:version="0.92.3 (2405546, 2018-03-11)"
   sodipodi:docname="transmission.svg">
  <defs
     id="defs823" />
  <sodipodi:namedview
     id="base"
     pagecolor="#ffffff"
     bordercolor="#666666"
     borderopacity="1.0"
     inkscape:pageopacity="0.0"
     inkscape:pageshadow="2"
     inkscape:zoom="5.6041667"
     inkscape:cx="24"
     inkscape:cy="24"
     inkscape:document-units="mm"
     inkscape:current-layer="layer1"
     showgrid="false"
     showguides="true"
     inkscape:guide-bbox="true"
     inkscape:window-width="1366"
     inkscape:window-height="719"
     inkscape:window-x="0"
     inkscape:window-y="25"
     inkscape:window-maximized="1"
     scale-x="1.9"
     units="px"
     inkscape:snap-global="false" />
  <metadata
     id="metadata826">
    <rdf:RDF>
      <cc:Work
         rdf:about="">
        <dc:format>image/svg+xml</dc:format>
        <dc:type
           rdf:resource="http://purl.org/dc/dcmitype/StillImage" />
        <dc:title></dc:title>
      </cc:Work>
    </rdf:RDF>
  </metadata>
  <g
     inkscape:label="Capa 1"
     inkscape:groupmode="layer"
     id="layer1"
     transform="translate(0,-284.3)">
    <path
       style="fill:#1a1a1a;fill-opacity:1;stroke-width:0.52516764"
       d="M 23.978516 0.27539062 A 23.770509 23.770509 0 0 0 0.20703125 24.046875 A 23.770509 23.770509 0 0 0 23.978516 47.816406 A 23.770509 23.770509 0 0 0 47.748047 24.046875 A 23.770509 23.770509 0 0 0 23.978516 0.27539062 z M 23.910156 3.8144531 A 20.436071 20.436071 0 0 1 44.345703 24.25 A 20.436071 20.436071 0 0 1 23.910156 44.685547 A 20.436071 20.436071 0 0 1 3.4726562 24.25 A 20.436071 20.436071 0 0 1 23.910156 3.8144531 z M 16.466797 8.34375 C 15.24981 8.34375 14.271484 9.3240455 14.271484 10.541016 C 14.271484 11.758023 15.24981 12.738281 16.466797 12.738281 L 21.539062 12.738281 L 21.539062 20.652344 L 26.099609 20.652344 L 26.099609 12.738281 L 30.759766 12.738281 C 31.976752 12.738281 32.957031 11.758023 32.957031 10.541016 C 32.957031 9.3240455 31.976752 8.34375 30.759766 8.34375 L 16.466797 8.34375 z M 21.539062 20.652344 L 14.994141 20.652344 C 14.114245 20.652344 13.277269 21.347681 13.117188 22.212891 L 10.384766 36.980469 C 10.224672 37.845716 10.805651 38.542969 11.685547 38.542969 L 19.662109 38.542969 L 19.662109 38.597656 L 27.558594 38.597656 L 27.558594 38.542969 L 35.556641 38.542969 C 36.436535 38.542969 37.015546 37.845716 36.855469 36.980469 L 34.123047 22.212891 C 33.96298 21.347681 33.125989 20.652344 32.246094 20.652344 L 26.175781 20.652344 L 26.164062 27.095703 L 30.591797 27.099609 L 23.666016 32.78125 L 17.029297 27.121094 L 21.541016 27.136719 L 21.539062 20.652344 z "
       transform="matrix(0.26458333,0,0,0.26458333,0,284.3)"
       id="path822" />
  </g>
</svg>
