<svg xmlns="http://www.w3.org/2000/svg" width="48" height="48" viewBox="0 0 12.7 12.7">
  <path fill="#1a1a1a" d="M6.34431561.07286377a6.28928043 6.28928043 0 0 0-6.2895386 6.2895385 6.28928043 6.28928043 0 0 0 6.2895386 6.28902166 6.28928043 6.28928043 0 0 0 6.28902167-6.28902167A6.28928043 6.28928043 0 0 0 6.3443156.07286376zm-.01808691.93637693a5.40704372 5.40704372 0 0 1 5.40690507 5.40690505 5.40704372 5.40704372 0 0 1-5.40690507 5.40690508A5.40704372 5.40704372 0 0 1 .91880694 6.41614575 5.40704372 5.40704372 0 0 1 6.3262287 1.0092407zm.04754244.43201497c-.929604 0-1.68671872.75717844-1.68671872 1.68671884v.56223957h-1.0717694c-.3406812 0-.61494933.27423957-.61494933.61494934V9.8221394c0 .34068993.27424009.6149496.61494934.6149496H9.132259c.34068226 0 .6149496-.27423957.6149496-.6149496V4.30516342c0-.34068993-.2742393-.61494934-.6149496-.61494934H8.06048987v-.56223957c0-.92960041-.75711498-1.68671884-1.68671873-1.68671884zm0 .56223958c.6277946 0 1.12447916.49665884 1.12447916 1.12447926v.56223957H5.249292v-.56223957c0-.62779042.49665624-1.12447926 1.12447914-1.12447926zm-1.42316886 2.2489584c.1612429 0 .29868971.12585965.29868971.2811198 0 .15524982-.1374468.28111979-.2986897.28111979-.16124423 0-.2811198-.12586997-.2811198-.2811198 0-.15526014.11987557-.28111978.2811198-.28111978zm2.81119788 0c.1612429 0 .29868971.12585965.29868971.2811198 0 .15524982-.1374468.28111979-.2986897.28111979-.16124423 0-.2811198-.12586997-.2811198-.2811198 0-.15526014.11987557-.28111978.2811198-.28111978zM6.39134106 6.1510457a1.46038145 1.42463785 0 0 1 1.4603759 1.42471906 1.46038145 1.42463785 0 0 1-1.4603759 1.42471932 1.46038145 1.42463785 0 0 1-1.46037589-1.42471932 1.46038145 1.42463785 0 0 1 1.4603759-1.42471906z"/>
  <path fill="#d45500" d="M5.7479694 6.72879c-.11961 0-.2165242.0968-.2165242.21652 0 .11974.09691.21653.2165242.21653.1196101 0 .2165244-.0969.2165244-.21653 0-.11973-.09691-.21652-.2165244-.21652zm.649573 0c-.1196102 0-.2165245.0968-.2165245.21652 0 .11974.09691.21653.2165245.21653.1196099 0 .2160074-.0969.2160074-.21653 0-.11973-.096401-.21652-.2160074-.21652zm.6490557 0c-.1196099 0-.2165241.0968-.2165241.21652 0 .11974.09691.21653.2165241.21653.1196102 0 .2165244-.0969.2165244-.21653 0-.11973-.09691-.21652-.2165244-.21652zm-1.2986287.64957c-.11961 0-.2165242.0968-.2165242.21653s.09691.216.2165242.216c.1196101 0 .2165244-.0963.2165244-.216 0-.11975-.09691-.21653-.2165244-.21653zm.649573 0c-.1196102 0-.2165245.0968-.2165245.21653s.09691.216.2165245.216c.1196099 0 .2160074-.0963.2160074-.216 0-.11975-.096401-.21653-.2160074-.21653zm.6490557 0c-.1196099 0-.2165241.0968-.2165241.21653s.09691.216.2165241.216c.1196102 0 .2165244-.0963.2165244-.216 0-.11975-.09691-.21653-.2165244-.21653zm-1.2986287.64906c-.11961 0-.2165242.0968-.2165242.21652 0 .11974.09691.21653.2165242.21653.1196101 0 .2165244-.097.2165244-.21653 0-.11973-.09691-.21652-.2165244-.21652zm.649573 0c-.1196102 0-.2165245.0968-.2165245.21652 0 .11974.09691.21653.2165245.21653.1196099 0 .2160074-.097.2160074-.21653 0-.11973-.096401-.21652-.2160074-.21652zm.6490557 0c-.1196099 0-.2165241.0968-.2165241.21652 0 .11974.09691.21653.2165241.21653.1196102 0 .2165244-.097.2165244-.21653 0-.11973-.09691-.21652-.2165244-.21652z" opacity=".75"/>
</svg>
