<svg xmlns="http://www.w3.org/2000/svg" width="48" height="48" viewBox="0 0 12.7 12.7">
  <path fill="#1a1a1a" d="M6.34431561.07286377a6.28928043 6.28928043 0 0 0-6.2895386 6.2895385 6.28928043 6.28928043 0 0 0 6.2895386 6.28902166 6.28928043 6.28928043 0 0 0 6.28902167-6.28902167A6.28928043 6.28928043 0 0 0 6.3443156.07286376zm-.01808691.93637693a5.40704372 5.40704372 0 0 1 5.40690507 5.40690505 5.40704372 5.40704372 0 0 1-5.40690507 5.40690508A5.40704372 5.40704372 0 0 1 .91880694 6.41614575 5.40704372 5.40704372 0 0 1 6.3262287 1.0092407zm.0444418.8387085c-.92142812 0-1.67173247.6647074-1.67173247 1.4856973.00721995.30392.03878791.66395759.22685957 1.48569758.07902971.22639496.59564507.71580057.89606912 1.02267648-.0006596.12749398-.01725639.24345635-.07027994.33176263-.95411739.33349009-2.67419373.94193015-2.76572263 1.3415203-.06760395.62075006-.16889174 1.5267789-.24753014 2.1466389 1.67267703.90353011 5.60790956.8598699 7.22333182 0-.05698517-.43979994-.10837386-1.70684902-.16536458-2.1466389-.4316513-.51540013-1.56820128-.81715027-2.7652059-1.3415203-.05176017-.06732005-.08023357-.14925543-.09508463-.23977864.2374392-.28975606.7918016-.86478453.87901594-1.11466047.21163967-.85413002.21550762-1.16706754.22685957-1.48569757 0-.8209899-.7497871-1.48569731-1.67121574-1.48569731z"/>
</svg>
