<svg xmlns="http://www.w3.org/2000/svg" width="48" height="48" viewBox="0 0 12.7 12.7">
  <path fill="#1a1a1a" d="M6.34431561.07286377a6.28928043 6.28928043 0 0 0-6.2895386 6.2895385 6.28928043 6.28928043 0 0 0 6.2895386 6.28902166 6.28928043 6.28928043 0 0 0 6.28902167-6.28902167A6.28928043 6.28928043 0 0 0 6.3443156.07286376zm-.01808691.93637693a5.40704372 5.40704372 0 0 1 5.40690507 5.40690505 5.40704372 5.40704372 0 0 1-5.40690507 5.40690508A5.40704372 5.40704372 0 0 1 .91880694 6.41614575 5.40704372 5.40704372 0 0 1 6.3262287 1.0092407zM3.120223 2.80913096v.00103346c-.211995 0-.35996958.00213413-.3782716.00413411-.0376928.00709983-.04960938.01612424-.04960938.04082442 0 .03606985 2.25612693 8.02535797 2.27841384 8.06875784.0131617.02510022.08817663.0262546 1.32343338.02325449l1.30948085-.00310065.34571542-1.15290123c-.14041649-.09970981-.23202714-.26346123-.23202714-.4485513 0-.0859901.01953895-.16686185.05477695-.2392619-.09920102-.09951006-.16071374-.23713678-.16071374-.38860677 0-.22766998.13836544-.42241231.33589674-.50591216-.0001741-.00390023 0-.01150303 0-.015503 0-.25622012.17431888-.47148405.41186126-.53278404.0691642-.1042199.17356429-.18349198.29558932-.221692l.16278066-.54260246c1.16659236-3.88858993 1.21291058-4.04818554 1.18494068-4.06848543-.02437791-.0178001-.20932113-.01953657-1.13946542-.01653646-.61094196.00119989-1.11543172.00943584-1.12086177.0134358-.00544221.00545016-.32896095 1.21110295-.7188192 2.67942295-.38986035 1.46832001-.71207549 2.67487291-.71623527 2.67787276-.00415607.00379994-.01204674-.01249019-.01808692-.0366903-.00605313-.02411995-.30105773-1.22787885-.65525702-2.67528883-.35420088-1.44743989-.6493539-2.63928301-.65577401-2.64428285-.01024758-.01180015-1.22178153-.01753658-1.85776762-.01653645z"/>
</svg>
