<?xml version="1.0" encoding="UTF-8" standalone="no"?>
<!-- Created with Inkscape (http://www.inkscape.org/) -->

<svg
   xmlns:dc="http://purl.org/dc/elements/1.1/"
   xmlns:cc="http://creativecommons.org/ns#"
   xmlns:rdf="http://www.w3.org/1999/02/22-rdf-syntax-ns#"
   xmlns:svg="http://www.w3.org/2000/svg"
   xmlns="http://www.w3.org/2000/svg"
   xmlns:sodipodi="http://sodipodi.sourceforge.net/DTD/sodipodi-0.dtd"
   xmlns:inkscape="http://www.inkscape.org/namespaces/inkscape"
   width="48"
   height="48"
   viewBox="0 0 12.7 12.7"
   version="1.1"
   id="svg829"
   inkscape:version="0.92.3 (2405546, 2018-03-11)"
   sodipodi:docname="viewnior.svg">
  <defs
     id="defs823" />
  <sodipodi:namedview
     id="base"
     pagecolor="#ffffff"
     bordercolor="#666666"
     borderopacity="1.0"
     inkscape:pageopacity="0.0"
     inkscape:pageshadow="2"
     inkscape:zoom="2.8020833"
     inkscape:cx="24"
     inkscape:cy="52.550186"
     inkscape:document-units="mm"
     inkscape:current-layer="layer1"
     showgrid="false"
     showguides="true"
     inkscape:guide-bbox="true"
     inkscape:window-width="1366"
     inkscape:window-height="719"
     inkscape:window-x="0"
     inkscape:window-y="25"
     inkscape:window-maximized="1"
     scale-x="1.9"
     units="px"
     inkscape:snap-global="true" />
  <metadata
     id="metadata826">
    <rdf:RDF>
      <cc:Work
         rdf:about="">
        <dc:format>image/svg+xml</dc:format>
        <dc:type
           rdf:resource="http://purl.org/dc/dcmitype/StillImage" />
        <dc:title></dc:title>
      </cc:Work>
    </rdf:RDF>
  </metadata>
  <g
     inkscape:label="Capa 1"
     inkscape:groupmode="layer"
     id="layer1"
     transform="translate(0,-284.3)">
    <path
       style="fill:#1a1a1a;fill-opacity:1;stroke-width:0.52516764"
       d="M 23.978516 0.27539062 A 23.770509 23.770509 0 0 0 0.20703125 24.046875 A 23.770509 23.770509 0 0 0 23.978516 47.816406 A 23.770509 23.770509 0 0 0 47.748047 24.046875 A 23.770509 23.770509 0 0 0 23.978516 0.27539062 z M 23.910156 3.8144531 A 20.436071 20.436071 0 0 1 44.345703 24.25 A 20.436071 20.436071 0 0 1 23.910156 44.685547 A 20.436071 20.436071 0 0 1 3.4726562 24.25 A 20.436071 20.436071 0 0 1 23.910156 3.8144531 z M 11.792969 10.617188 L 11.792969 10.621094 C 10.991728 10.621094 10.432454 10.62916 10.363281 10.636719 C 10.22082 10.663553 10.175781 10.697661 10.175781 10.791016 C 10.175781 10.927343 18.702875 41.123078 18.787109 41.287109 C 18.836854 41.381976 19.120375 41.386339 23.789062 41.375 L 28.738281 41.363281 L 30.044922 37.005859 C 29.514214 36.629003 29.167969 36.0101 29.167969 35.310547 C 29.167969 34.985545 29.241817 34.679888 29.375 34.40625 C 29.000067 34.030149 28.767578 33.509985 28.767578 32.9375 C 28.767578 32.077015 29.290534 31.340981 30.037109 31.025391 C 30.036451 31.01065 30.037109 30.981915 30.037109 30.966797 C 30.037109 29.998406 30.695952 29.18481 31.59375 28.953125 C 31.855158 28.559223 32.249741 28.259612 32.710938 28.115234 L 33.326172 26.064453 C 37.73534 11.36742 37.910401 10.764224 37.804688 10.6875 C 37.712551 10.620224 37.013553 10.613661 33.498047 10.625 C 31.188975 10.629535 29.282242 10.660663 29.261719 10.675781 C 29.24115 10.69638 28.018402 15.253178 26.544922 20.802734 C 25.071434 26.35229 23.853613 30.91249 23.837891 30.923828 C 23.822183 30.93819 23.79236 30.876621 23.769531 30.785156 C 23.746653 30.693994 22.631675 26.144354 21.292969 20.673828 C 19.954257 15.203189 18.838718 10.698585 18.814453 10.679688 C 18.775722 10.635089 14.196696 10.613408 11.792969 10.617188 z "
       transform="matrix(0.26458333,0,0,0.26458333,0,284.3)"
       id="path822" />
  </g>
</svg>
