<?xml version="1.0" encoding="UTF-8" standalone="no"?>
<svg
   xmlns:dc="http://purl.org/dc/elements/1.1/"
   xmlns:cc="http://creativecommons.org/ns#"
   xmlns:rdf="http://www.w3.org/1999/02/22-rdf-syntax-ns#"
   xmlns:svg="http://www.w3.org/2000/svg"
   xmlns="http://www.w3.org/2000/svg"
   xmlns:sodipodi="http://sodipodi.sourceforge.net/DTD/sodipodi-0.dtd"
   xmlns:inkscape="http://www.inkscape.org/namespaces/inkscape"
   width="48"
   height="48"
   viewBox="0 0 12.7 12.7"
   version="1.1"
   id="svg6"
   sodipodi:docname="vkaudiosaver.svg"
   inkscape:version="0.92.3 (2405546, 2018-03-11)">
  <metadata
     id="metadata12">
    <rdf:RDF>
      <cc:Work
         rdf:about="">
        <dc:format>image/svg+xml</dc:format>
        <dc:type
           rdf:resource="http://purl.org/dc/dcmitype/StillImage" />
        <dc:title></dc:title>
      </cc:Work>
    </rdf:RDF>
  </metadata>
  <defs
     id="defs10">
    <linearGradient
       id="linearGradient3764"
       x1="1"
       x2="47"
       gradientUnits="userSpaceOnUse"
       gradientTransform="rotate(-90,23.999998,24)">
      <stop
         style="stop-color:#a64e73;stop-opacity:1"
         id="stop2" />
      <stop
         offset="1"
         style="stop-color:#b0587d;stop-opacity:1"
         id="stop4" />
    </linearGradient>
  </defs>
  <sodipodi:namedview
     pagecolor="#ffffff"
     bordercolor="#666666"
     borderopacity="1"
     objecttolerance="10"
     gridtolerance="10"
     guidetolerance="10"
     inkscape:pageopacity="0"
     inkscape:pageshadow="2"
     inkscape:window-width="1308"
     inkscape:window-height="742"
     id="namedview8"
     showgrid="false"
     inkscape:zoom="1.7383042"
     inkscape:cx="8.5051486"
     inkscape:cy="88.275607"
     inkscape:window-x="58"
     inkscape:window-y="-4"
     inkscape:window-maximized="1"
     inkscape:current-layer="svg6" />
  <path
     d="M6.344.337A6.025 6.025 0 0 0 .32 6.362a6.025 6.025 0 0 0 6.025 6.025 6.025 6.025 0 0 0 6.025-6.025A6.025 6.025 0 0 0 6.344.337zm-.017.897a5.18 5.18 0 0 1 5.18 5.18 5.18 5.18 0 0 1-5.18 5.18 5.18 5.18 0 0 1-5.18-5.18 5.18 5.18 0 0 1 5.18-5.18z"
     id="path2"
     style="fill:#1a1a1a;fill-opacity:0.99215686"
     fill="#1a1a1a" />
  <g
     style="opacity:1;fill:#191919;fill-opacity:0.99215686"
     transform="matrix(0.21852173,0,0,0.21852173,1.1495776,0.75411257)"
     id="g22">
    <path
       style="fill:#191919;fill-opacity:0.99215686;fill-rule:evenodd"
       inkscape:connector-curvature="0"
       d="m 23.189,25.929 h 1.7334 c 0,0 0.52346,-0.05929 0.79111,-0.35519 0.246,-0.27198 0.23814,-0.78236 0.23814,-0.78236 0,0 -0.03391,-2.3899 1.0454,-2.7418 1.0644,-0.3469 2.4308,2.3097 3.8791,3.3314 1.0952,0.77282 1.9275,0.60366 1.9275,0.60366 l 3.8728,-0.05561 c 0,0 2.0258,-0.12844 1.0652,-1.7652 -0.07863,-0.13368 -0.55961,-1.2107 -2.8796,-3.4235 -2.4286,-2.316 -2.103,-1.9413 0.82215,-5.9475 1.7815,-2.4398 2.4935,-3.9291 2.271,-4.567 -0.212,-0.60776 -1.5224,-0.44722 -1.5224,-0.44722 l -4.3605,0.02771 c 0,0 -0.32351,-0.04523 -0.56308,0.1021 -0.23436,0.14407 -0.38478,0.48069 -0.38478,0.48069 0,0 -0.69042,1.8878 -1.6105,3.4936 -1.9417,3.3878 -2.7182,3.5671 -3.0356,3.3564 -0.73842,-0.49034 -0.55389,-1.9694 -0.55389,-3.0205 0,-3.2833 0.48465,-4.6522 -0.94378,-5.0066 -0.47393,-0.11752 -0.82307,-0.19528 -2.0353,-0.20797 -1.556,-0.01628 -2.8726,0.0049 -3.6183,0.38027 -0.49609,0.24963 -0.87883,0.80577 -0.64559,0.83777 0.28828,0.03944 0.94082,0.18101 1.2868,0.66474 0.44697,0.62486 0.43135,2.0276 0.43135,2.0276 0,0 0.25683,3.8649 -0.59964,4.3449 -0.58769,0.32927 -1.394,-0.34292 -3.1251,-3.4166 -0.8868,-1.5744 -1.5566,-3.3149 -1.5566,-3.3149 0,0 -0.12898,-0.32518 -0.35936,-0.49926 -0.2794,-0.21091 -0.66979,-0.27775 -0.66979,-0.27775 l -4.1438,0.0278 c 0,0 -0.6219,0.01785 -0.85045,0.2958 -0.20332,0.24743 -0.01625,0.75854 -0.01625,0.75854 0,0 3.2439,7.7987 6.9173,11.729 3.3686,3.6038 7.193,3.3672 7.193,3.3672"
       id="path8" />
    <g
       id="g20"
       style="fill:#191919;fill-opacity:0.99215686">
      <path
         inkscape:connector-curvature="0"
         d="m 12.743,37.733 q 0,0.52162 -0.18097,0.94212 -0.17565,0.41517 -0.52162,0.71324 -0.34065,0.29275 -0.84098,0.45243 -0.49501,0.15968 -1.1391,0.15968 -0.5642,0 -1.0912,-0.1171 -0.52162,-0.1171 -0.96873,-0.3513 v -1.5329 q 0.25549,0.12242 0.5163,0.23952 0.26081,0.11178 0.52695,0.20226 0.27146,0.09049 0.53759,0.14371 0.27146,0.05323 0.53759,0.05323 0.27146,0 0.46307,-0.05855 0.19694,-0.06387 0.31404,-0.17033 0.12242,-0.11178 0.17565,-0.26081 0.05855,-0.15436 0.05855,-0.33533 0,-0.21823 -0.09581,-0.38323 -0.091,-0.17 -0.261,-0.314 -0.165,-0.149 -0.404,-0.287 -0.235,-0.139 -0.5274,-0.293 -0.2448,-0.128 -0.5482,-0.309 -0.3034,-0.181 -0.5748,-0.447 -0.2662,-0.271 -0.4471,-0.649 -0.181,-0.383 -0.181,-0.916 0,-0.52162 0.17033,-0.93147 0.17565,-0.41517 0.49501,-0.69727 0.31936,-0.28742 0.77179,-0.43646 0.45775,-0.14904 1.022,-0.14904 0.2821,0 0.54824,0.03726 0.27146,0.03726 0.53227,0.10645 0.26613,0.0692 0.53227,0.17033 0.26613,0.10113 0.54824,0.2342 l -0.53227,1.2828 q -0.23952,-0.11178 -0.44711,-0.19694 -0.20758,-0.08516 -0.40452,-0.14371 -0.19694,-0.05855 -0.38856,-0.08516 -0.18629,-0.03194 -0.37791,-0.03194 -0.41517,0 -0.63872,0.22355 -0.21823,0.21823 -0.21823,0.5855 0,0.19694 0.063872,0.3513 0.069195,0.14904 0.21291,0.2821 0.14904,0.13307 0.37791,0.27146 0.2342,0.13839 0.5642,0.31404 0.3992,0.21291 0.73453,0.43646 0.33533,0.21823 0.57485,0.48969 0.24484,0.26614 0.37791,0.60679 0.13307,0.34065 0.13307,0.7984 z"
         id="path10"
         style="fill:#191919;fill-opacity:0.99215686" />
      <path
         inkscape:connector-curvature="0"
         d="m 18.624,39.894 -0.53227,-1.8523 h -2.6826 l -0.53759,1.8523 h -1.666 l 2.5283,-7.8137 h 2.0173 l 2.5389,7.8137 h -1.666 z m -0.9155,-3.2362 -0.50033,-1.7033 q -0.03194,-0.09581 -0.09581,-0.31404 -0.06387,-0.21823 -0.13839,-0.47904 -0.0692,-0.26613 -0.13307,-0.53227 -0.06387,-0.26614 -0.09049,-0.45243 -0.02129,0.1171 -0.05855,0.27678 -0.03194,0.15968 -0.07984,0.34065 -0.04258,0.17565 -0.09049,0.35662 -0.0479,0.18097 -0.09049,0.34065 -0.04258,0.15968 -0.07984,0.2821 -0.03194,0.12242 -0.0479,0.18097 l -0.49501,1.7033 h 1.9002 z"
         id="path12"
         style="fill:#191919;fill-opacity:0.99215686" />
      <path
         inkscape:connector-curvature="0"
         d="m 24.958,32.112 h 1.666 l -2.4271,7.7818 H 22.3978 L 19.976,32.112 h 1.666 l 1.32,4.684 q 0.02661,0.09049 0.0692,0.30339 0.0479,0.21291 0.09581,0.4684 0.05323,0.25549 0.10113,0.51098 0.0479,0.25549 0.07452,0.43114 0.02661,-0.17565 0.07452,-0.43114 0.0479,-0.25549 0.10113,-0.50566 0.05323,-0.25549 0.10113,-0.4684 0.05323,-0.21291 0.07984,-0.30872 l 1.2987,-4.684 z"
         id="path14"
         style="fill:#191919;fill-opacity:0.99215686" />
      <path
         inkscape:connector-curvature="0"
         d="M 32.08,39.894 H 27.5983 V 32.1122 H 32.08 v 1.352 h -2.8317 v 1.7086 h 2.6347 v 1.352 h -2.6347 v 2.0067 H 32.08 v 1.3626 z"
         id="path16"
         style="fill:#191919;fill-opacity:0.99215686" />
      <path
         inkscape:connector-curvature="0"
         d="m 35.359,35.566 h 0.44711 q 0.68663,0 0.9847,-0.27146 0.29807,-0.27678 0.29807,-0.80905 0,-0.55356 -0.31936,-0.78776 -0.31936,-0.2342 -0.99002,-0.2342 h -0.42049 v 2.1025 z m 0,1.3413 v 2.986 h -1.65 v -7.7818 h 2.1291 q 1.4957,0 2.2089,0.58017 0.71324,0.57485 0.71324,1.7512 0,0.3992 -0.10645,0.72388 -0.10645,0.32468 -0.28743,0.58017 -0.17565,0.25017 -0.40985,0.44178 -0.22888,0.18629 -0.48436,0.31404 0.59082,0.94744 1.0592,1.6926 0.20226,0.31936 0.38856,0.62275 0.19162,0.30339 0.34065,0.54291 0.14904,0.23952 0.24484,0.38323 l 0.09049,0.14904 h -1.831 l -1.6873,-2.986 h -0.71856 z"
         id="path18"
         style="fill:#191919;fill-opacity:0.99215686" />
    </g>
  </g>
</svg>
