<svg xmlns="http://www.w3.org/2000/svg" width="48" height="48" viewBox="0 0 12.7 12.7">
  <path fill="#1a1a1a" d="M6.3443156.07286A6.2892804 6.2892804 0 0 0 .05477702 6.3624a6.2892804 6.2892804 0 0 0 6.28953858 6.28902A6.2892804 6.2892804 0 0 0 12.633337 6.3624 6.2892804 6.2892804 0 0 0 6.3443156.07286zm-.018087.93638a5.4070437 5.4070437 0 0 1 5.4069054 5.40691 5.4070437 5.4070437 0 0 1-5.4069054 5.4069 5.4070437 5.4070437 0 0 1-5.40742176-5.4069A5.4070437 5.4070437 0 0 1 6.3262286 1.00924z"/>
  <path fill="#f60" d="M6.394391 1.86768c-.2385824.00066-.493317.0654-.7689659.20953L5.236004 3.45218c.786253.39287 1.5407335.33284 2.2751506 0L7.0660013 2.0377c-.2105289-.10808-.4330282-.17066-.6716103-.17002zM4.7689808 5.03173l-.4380985 1.4815c1.457682.67451 2.8203201.62386 4.0705793-.0508l-.4232838-1.42999c-1.0484423.34177-2.1091708.48284-3.209197-.00073zm3.6324808 1.4307l.3576752 1.24022c-1.1161844.99057-3.4729915 1.35834-4.7802857.0136l.3520312-1.20355-.749918.002-1.1873111 2.78379c-.00256.16524.024552.39817.3216958.46351l7.309406.0116c.314095-.19251.290817-.32647.272313-.49455L9.1295099 6.47636z" opacity=".75"/>
</svg>
