<svg xmlns="http://www.w3.org/2000/svg" width="48" height="48" viewBox="0 0 12.7 12.7">
  <defs>
    <clipPath id="a"/>
  </defs>
  <path fill="#1a1a1a" d="M6.3443156.07286A6.2892804 6.2892804 0 0 0 .05477702 6.3624a6.2892804 6.2892804 0 0 0 6.28953858 6.28902A6.2892804 6.2892804 0 0 0 12.633338 6.3624 6.2892804 6.2892804 0 0 0 6.3443156.07286zm-.018087.93638a5.4070437 5.4070437 0 0 1 5.4069054 5.40691 5.4070437 5.4070437 0 0 1-5.4069054 5.4069 5.4070437 5.4070437 0 0 1-5.40742176-5.4069A5.4070437 5.4070437 0 0 1 6.3262286 1.00924zM3.82819 2.16989c-.026925 0-.048059.0219-.048059.0486v2.64273H2.41639c-.026925 0-.048576.0217-.048576.0486v4.95422c0 .027.021653.0486.048576.0486h5.1381875c.026923 0 .048576-.0219.048576-.0486V8.2383h2.6809735c.02693 0 .04858-.0217.04858-.0486V3.23548c0-.027-.02166-.0486-.04858-.0486H9.0149536v-.96842c0-.027-.021654-.0486-.048576-.0486H3.8287068zm.4252971.41238h4.3299681c.022821 0 .041341.018.041341.0408v.56379h-3.479374c-.026925 0-.048059.0218-.048059.0486V4.8612H4.212146V2.6231c0-.0228.018521-.0408.041341-.0408zm1.3172323 1.01699h3.0540769v3.22306c0 .0229-.018008.0419-.040824.0419h-.9808189V4.91033c0-.027-.021651-.0491-.048576-.0491H5.5304118V3.64012c0-.0228.017485-.0408.040308-.0408zm3.4447509 0h.8862507c.022821 0 .040824.018.040824.0408v4.19922c0 .0229-.018007.0413-.040824.0413H7.6031534V7.2217h1.3632243c.026923 0 .049093-.0218.049093-.0486zM2.8416868 5.27358h.938444v1.89911c0 .027.021654.0486.048576.0486h1.2686565v.96842c0 .0269.021138.0486.048059.0486h2.067574v1.27537c0 .0229-.018008.0413-.040824.0413H2.8416869c-.02282 0-.040824-.0183-.040824-.0413V5.31445c2e-7-.0228.018004-.0408.040824-.0408zm1.3709758 0h.8847006v1.5906h-.843876c-.022821 0-.040825-.0189-.040825-.0419zm1.3177491 0h1.6412435c.022821 0 .041341.018.041341.0408v1.54926H5.5304118zm0 1.9482h1.682068v.65888H5.5707195c-.02282 0-.040308-.0183-.040308-.0413z"/>
</svg>
