<?xml version="1.0" encoding="UTF-8" standalone="no"?>
<!-- Created with Inkscape (http://www.inkscape.org/) -->

<svg
   xmlns:dc="http://purl.org/dc/elements/1.1/"
   xmlns:cc="http://creativecommons.org/ns#"
   xmlns:rdf="http://www.w3.org/1999/02/22-rdf-syntax-ns#"
   xmlns:svg="http://www.w3.org/2000/svg"
   xmlns="http://www.w3.org/2000/svg"
   xmlns:sodipodi="http://sodipodi.sourceforge.net/DTD/sodipodi-0.dtd"
   xmlns:inkscape="http://www.inkscape.org/namespaces/inkscape"
   width="48"
   height="48"
   viewBox="0 0 12.7 12.7"
   version="1.1"
   id="svg829"
   inkscape:version="0.92.3 (2405546, 2018-03-11)"
   sodipodi:docname="vmware-player.svg">
  <defs
     id="defs823" />
  <sodipodi:namedview
     id="base"
     pagecolor="#ffffff"
     bordercolor="#666666"
     borderopacity="1.0"
     inkscape:pageopacity="0.0"
     inkscape:pageshadow="2"
     inkscape:zoom="5.5729167"
     inkscape:cx="24"
     inkscape:cy="24"
     inkscape:document-units="mm"
     inkscape:current-layer="layer1"
     showgrid="false"
     showguides="true"
     inkscape:guide-bbox="true"
     inkscape:window-width="1366"
     inkscape:window-height="714"
     inkscape:window-x="0"
     inkscape:window-y="25"
     inkscape:window-maximized="1"
     scale-x="1.9"
     units="px"
     inkscape:snap-global="false" />
  <metadata
     id="metadata826">
    <rdf:RDF>
      <cc:Work
         rdf:about="">
        <dc:format>image/svg+xml</dc:format>
        <dc:type
           rdf:resource="http://purl.org/dc/dcmitype/StillImage" />
        <dc:title></dc:title>
      </cc:Work>
    </rdf:RDF>
  </metadata>
  <g
     inkscape:label="Capa 1"
     inkscape:groupmode="layer"
     id="layer1"
     transform="translate(0,-284.3)">
    <path
       style="fill:#1a1a1a;fill-opacity:1;stroke-width:0.52516764"
       d="M 23.978516 0.27539062 A 23.770509 23.770509 0 0 0 0.20703125 24.046875 A 23.770509 23.770509 0 0 0 23.978516 47.816406 A 23.770509 23.770509 0 0 0 47.748047 24.046875 A 23.770509 23.770509 0 0 0 23.978516 0.27539062 z M 23.910156 3.8144531 A 20.436071 20.436071 0 0 1 44.345703 24.25 A 20.436071 20.436071 0 0 1 23.910156 44.685547 A 20.436071 20.436071 0 0 1 3.4726562 24.25 A 20.436071 20.436071 0 0 1 23.910156 3.8144531 z M 12.480469 9.0917969 C 10.603507 9.0917969 9.09375 10.60348 9.09375 12.480469 L 9.09375 35.519531 C 9.09375 37.396482 10.603507 38.908203 12.480469 38.908203 L 35.521484 38.908203 C 37.398446 38.908203 38.90625 37.396482 38.90625 35.519531 L 38.90625 12.480469 C 38.90625 10.603518 37.398446 9.0917969 35.521484 9.0917969 L 12.480469 9.0917969 z M 13.185547 10.003906 L 34.818359 10.003906 C 36.580659 10.003906 37.998047 11.421276 37.998047 13.183594 L 37.998047 34.816406 C 37.998047 36.578762 36.580659 37.996094 34.818359 37.996094 L 13.185547 37.996094 C 11.423246 37.996094 10.003906 36.578724 10.003906 34.816406 L 10.003906 13.183594 C 10.003906 11.421238 11.423246 10.003906 13.185547 10.003906 z M 26.851562 11.892578 C 25.973594 11.892578 25.261719 12.608344 25.261719 13.486328 C 25.261719 14.364237 25.973594 15.076172 26.851562 15.076172 C 28.035534 15.076172 29.322475 15.076323 30.589844 15.076172 L 27.410156 18.257812 L 26.535156 18.257812 L 24.636719 18.257812 L 24.636719 21.4375 L 25.261719 21.4375 C 26.534047 21.4375 26.535156 21.435359 26.535156 22.708984 L 26.535156 23.363281 L 29.716797 23.363281 L 29.716797 21.4375 L 29.716797 20.443359 L 32.898438 17.261719 L 32.898438 21.119141 C 32.898436 21.997087 33.610313 22.708984 34.488281 22.708984 C 35.36625 22.708984 36.078125 21.997125 36.078125 21.119141 C 36.077994 18.598876 36.04324 15.931834 36.078125 13.486328 C 36.078125 12.608344 35.366251 11.892578 34.488281 11.892578 C 31.967869 11.893032 29.297068 11.930336 26.851562 11.892578 z M 13.501953 11.908203 C 12.623985 11.908203 11.912109 12.620063 11.912109 13.498047 C 11.946994 15.943552 11.91224 18.614539 11.912109 21.134766 C 11.912109 22.012788 12.623986 22.724609 13.501953 22.724609 C 14.379922 22.724609 15.09375 22.012788 15.09375 21.134766 L 15.09375 17.277344 L 18.275391 20.457031 L 18.275391 21.453125 L 18.275391 23.378906 L 21.457031 23.378906 L 21.457031 22.724609 C 21.457031 21.451022 21.456189 21.453125 22.728516 21.453125 L 23.353516 21.453125 L 23.353516 18.273438 L 21.457031 18.273438 L 20.582031 18.273438 L 17.400391 15.091797 C 18.66776 15.091986 19.954702 15.091797 21.138672 15.091797 C 22.016641 15.091797 22.728517 14.3799 22.728516 13.501953 C 22.728516 12.623969 22.016641 11.910156 21.138672 11.910156 C 18.693167 11.947952 16.022366 11.910572 13.501953 11.910156 L 13.501953 11.908203 z M 26.535156 24.615234 L 26.535156 25.269531 C 26.535156 26.543119 26.534047 26.541016 25.261719 26.541016 L 24.636719 26.541016 L 24.636719 29.722656 L 26.535156 29.722656 L 27.410156 29.722656 L 30.589844 32.904297 C 29.322475 32.904108 28.035534 32.904297 26.851562 32.904297 C 25.973594 32.904297 25.261719 33.618072 25.261719 34.496094 C 25.261719 35.37404 25.973594 36.085938 26.851562 36.085938 C 29.297068 36.048142 31.967869 36.085484 34.488281 36.085938 C 35.366251 36.085938 36.078125 35.374078 36.078125 34.496094 C 36.04324 32.050513 36.077994 29.37964 36.078125 26.859375 C 36.078125 25.981466 35.36625 25.269531 34.488281 25.269531 C 33.610313 25.269531 32.898436 25.981429 32.898438 26.859375 L 32.898438 30.716797 L 29.716797 27.537109 L 29.716797 26.542969 L 29.716797 24.615234 L 26.535156 24.615234 z M 18.275391 24.630859 L 18.275391 27.810547 C 18.275391 28.86409 19.130028 29.71875 20.183594 29.71875 L 23.365234 29.71875 L 23.365234 26.539062 L 22.113281 26.539062 C 21.468849 26.539062 21.457031 26.527137 21.457031 25.902344 L 21.457031 24.630859 L 18.275391 24.630859 z "
       transform="matrix(0.26458333,0,0,0.26458333,0,284.3)"
       id="path830" />
  </g>
</svg>
