<svg xmlns="http://www.w3.org/2000/svg" width="48" height="48" viewBox="0 0 12.7 12.7">
  <path fill="#1a1a1a" d="M6.34431561.07286377a6.28928043 6.28928043 0 0 0-6.2895386 6.2895385 6.28928043 6.28928043 0 0 0 6.2895386 6.28902166 6.28928043 6.28928043 0 0 0 6.28902167-6.28902167A6.28928043 6.28928043 0 0 0 6.3443156.07286376zm-.01808691.93637693a5.40704372 5.40704372 0 0 1 5.40690507 5.40690505 5.40704372 5.40704372 0 0 1-5.40690507 5.40690508A5.40704372 5.40704372 0 0 1 .91880694 6.41614575 5.40704372 5.40704372 0 0 1 6.3262287 1.0092407zM3.4132284 2.54971515c-.47847063 0-.8629965.38556993-.8629965.86402999V9.2862547c0 .47850001.38452587.86402994.8629965.86402994h5.87354303c.47847038 0 .86299648-.38552993.86299648-.86402994V3.41374514c0-.47846006-.3845261-.86402999-.86299648-.86402999H3.41322841zm3.40599365.51831456h2.67528883c.1197737 0 .13745925.00870612.13745925.12040606v2.7099122c0 .11514005.00009895.10593652-.15141205.10593652H6.84557693c-.15301012 0-.14986158.00511043-.14986158-.15657962V3.20858961c0-.14085993.0037322-.1405599.1235067-.1405599zm-3.31917724.00051673c.68430034.00012013 1.4087787.0100002 2.07274158 0 .23837159 0 .4314981.19313816.4314981.43149837 0 .2383798-.19312651.4314981-.4314981.4314981-.32145208 0-.67082987.00005002-1.01492525 0l.8635132.86402995h.75292584v.8635132H6.0042845c-.34544132 0-.34519843-.00008466-.34519843.34571516v.1772502h-.8635132V5.38933516l-.86351321-.86402994v1.04748117c0 .23838005-.19364378.43201483-.43201484.43201483-.23837132 0-.4320151-.19363478-.4320151-.43201483.0000352-.68426012.00946997-1.40876177 0-2.07274158 0-.2383602.19364325-.43149837.4320151-.43149837zm3.8865844.69039713v1.5549438h1.55442706v-1.5549438H7.3866292zm-.34829935 2.75900485h.8635132V7.31118142l.8635132.8635132V7.12773018c-2.6e-7-.23838005.19364352-.43201483.43201511-.43201483.23837132 0 .4314981.19363478.4314981.43201483-.00003545.68426012-.0094599 1.40824504 0 2.07222485 0 .2383602-.19312651.4320151-.4314981.4320151-.68430086-.00012012-1.40929543-.00999993-2.07325857 0-.23837132 0-.4314981-.1936549-.4314981-.4320151 0-.2383798.19312678-.4314981.4314981-.4314981.32145234 0 .6713466-.00005002 1.01544198 0l-.86402994-.86351322H6.52259926v-.86402993h.17001543c.34543894 0 .34571543.0006215.34571517-.34519843v-.17776693zm-3.84627671.1772502h2.6747721c.1197737 0 .13745924.00922284.13745924.12092278v2.70991194c0 .11511994.00061622.10593679-.15089504.10593679H3.21840803c-.15301013 0-.15037832.00460348-.15037832-.15709636V6.83575851c0-.14085014.00424921-.1405599.12402344-.1405599zm.56689042.69091385v1.5549438h1.55442707v-1.5549438H3.75894357z"/>
</svg>
