<svg xmlns="http://www.w3.org/2000/svg" width="48" height="48" viewBox="0 0 12.7 12.7">
  <path fill="#1a1a1a" d="M6.34431561.07286377a6.28928043 6.28928043 0 0 0-6.2895386 6.2895385 6.28928043 6.28928043 0 0 0 6.2895386 6.28902166 6.28928043 6.28928043 0 0 0 6.28902167-6.28902167A6.28928043 6.28928043 0 0 0 6.3443156.07286376zm-.01808691.93637693a5.40704372 5.40704372 0 0 1 5.40690507 5.40690505 5.40704372 5.40704372 0 0 1-5.40690507 5.40690508A5.40704372 5.40704372 0 0 1 .91880694 6.41614575 5.40704372 5.40704372 0 0 1 6.3262287 1.0092407zM3.30212405 2.4055379c-.49661286 0-.8960694.39996615-.8960694.89658615v6.09575174c0 .49660995.39945654.89658612.8960694.89658612h6.09626847c.49661286 0 .89555266-.39997617.89555266-.89658612V3.30212405c0-.49660995-.3989398-.89658615-.89555266-.89658615H3.30212405zm.18655188.24132886h5.72368144c.4662752 0 .84129244.37501248.84129244.84129244v5.72368144c0 .46629002-.37501724.84129244-.84129244.84129244H3.48867593c-.46627546 0-.84180917-.37501248-.84180917-.84129244V3.4881592c0-.46629002.3755337-.84129244.84180917-.84129244zm3.61579976.49971113c-.2322957 0-.42064596.18937975-.42064596.42167968 0 .23228009.18835026.42064622.42064596.42064622.31325925 0 .65376239.00003995.9890871 0l-.84129244.8418089H6.51846515v.84129245h.16536458c.33663678 0 .3369302-.00056648.3369302.33641347v.17311608h.84180918V5.408972l.84180917-.8418089v1.02060955c-5.3e-7.23228988.18835026.42064596.42064595.42064596.23229596 0 .42064622-.18834603.42064622-.42064596-.00003466-.6668201-.00922999-1.37247496 0-2.01951508 0-.23229993-.18835-.42167968-.42064622-.42167968-.666859.00012012-1.37350842.00999014-2.02054854 0zm-3.532084.00413411c-.2322957 0-.42064622.1883463-.42064622.42064622.00922999.64703986.00003466 1.3537385 0 2.02054855 0 .23230998.18835078.42064595.42064622.42064595.23229596 0 .42116295-.18833597.42116295-.42064595V4.5712972l.84180917.84129217v.77307942h.8418089v-.17311608c0-.33696989-.00022278-.33641347.33641374-.33641347h.16536458v-.84129217H5.4456623l-.8418089-.84180917c.3353247.00005.6758281 0 .98908683 0 .23229596 0 .42064648-.18835608.42064622-.42064622 0-.23229993-.18835026-.42116295-.42064622-.42116295-.64703986.01000019-1.35368928.00011006-2.02054854 0V3.150712zm3.44836825 3.36206858v.17311608c0 .33697015-.00029343.33641373-.3369302.33641373h-.16536459v.84180891H7.25227035l.84129244.84180917c-.33532471-.00005-.67582785 0-.9890871 0-.2322957 0-.42064596.18885297-.42064596.42116295 0 .23228988.18835026.42064622.42064596.42064622.64704012-.01000019 1.35368954-.00012012 2.02054854 0 .23229623 0 .42064622-.18834629.42064622-.42064622-.00922999-.64705996-.00003466-1.35372843 0-2.02054854 0-.23228009-.18835026-.42064622-.42064622-.42064622-.2322957 0-.42064648.18835634-.42064595.42064622v1.02060956L7.8625691 7.28586v-.77307942h-.84180917zm-2.18539613.00413411v.84129244c0 .27874992.2261227.5048787.5048787.5048787h.8418089V7.0217934h-.33124589c-.17050596 0-.1736328-.00315516-.1736328-.16846497v-.33641374H4.8353638z"/>
</svg>
