<?xml version="1.0" encoding="UTF-8" standalone="no"?>
<!-- Created with Inkscape (http://www.inkscape.org/) -->

<svg
   xmlns:dc="http://purl.org/dc/elements/1.1/"
   xmlns:cc="http://creativecommons.org/ns#"
   xmlns:rdf="http://www.w3.org/1999/02/22-rdf-syntax-ns#"
   xmlns:svg="http://www.w3.org/2000/svg"
   xmlns="http://www.w3.org/2000/svg"
   xmlns:sodipodi="http://sodipodi.sourceforge.net/DTD/sodipodi-0.dtd"
   xmlns:inkscape="http://www.inkscape.org/namespaces/inkscape"
   width="48"
   height="48"
   viewBox="0 0 12.7 12.7"
   version="1.1"
   id="svg829"
   inkscape:version="0.92.3 (2405546, 2018-03-11)"
   sodipodi:docname="vmware-server.svg">
  <defs
     id="defs823" />
  <sodipodi:namedview
     id="base"
     pagecolor="#ffffff"
     bordercolor="#666666"
     borderopacity="1.0"
     inkscape:pageopacity="0.0"
     inkscape:pageshadow="2"
     inkscape:zoom="5.5729167"
     inkscape:cx="24"
     inkscape:cy="24"
     inkscape:document-units="mm"
     inkscape:current-layer="layer1"
     showgrid="false"
     showguides="true"
     inkscape:guide-bbox="true"
     inkscape:window-width="1366"
     inkscape:window-height="714"
     inkscape:window-x="0"
     inkscape:window-y="25"
     inkscape:window-maximized="1"
     scale-x="1.9"
     units="px"
     inkscape:snap-global="false" />
  <metadata
     id="metadata826">
    <rdf:RDF>
      <cc:Work
         rdf:about="">
        <dc:format>image/svg+xml</dc:format>
        <dc:type
           rdf:resource="http://purl.org/dc/dcmitype/StillImage" />
        <dc:title></dc:title>
      </cc:Work>
    </rdf:RDF>
  </metadata>
  <g
     inkscape:label="Capa 1"
     inkscape:groupmode="layer"
     id="layer1"
     transform="translate(0,-284.3)">
    <path
       style="fill:#1a1a1a;fill-opacity:1;stroke-width:0.52516764"
       d="M 23.978516 0.27539062 A 23.770509 23.770509 0 0 0 0.20703125 24.046875 A 23.770509 23.770509 0 0 0 23.978516 47.816406 A 23.770509 23.770509 0 0 0 47.748047 24.046875 A 23.770509 23.770509 0 0 0 23.978516 0.27539062 z M 23.910156 3.8144531 A 20.436071 20.436071 0 0 1 44.345703 24.25 A 20.436071 20.436071 0 0 1 23.910156 44.685547 A 20.436071 20.436071 0 0 1 3.4726562 24.25 A 20.436071 20.436071 0 0 1 23.910156 3.8144531 z M 12.900391 9.6367188 C 11.091998 9.6367188 9.6386719 11.093991 9.6386719 12.902344 L 9.6386719 35.097656 C 9.6386719 36.90616 11.091998 38.363281 12.900391 38.363281 L 35.099609 38.363281 C 36.908001 38.363281 38.361328 36.90616 38.361328 35.097656 L 38.361328 12.902344 C 38.361328 11.093991 36.908001 9.6367188 35.099609 9.6367188 L 12.900391 9.6367188 z M 25.773438 11.595703 L 35.884766 11.595703 C 36.337454 11.595703 36.404297 11.628608 36.404297 12.050781 L 36.404297 22.292969 C 36.404297 22.728144 36.404671 22.693359 35.832031 22.693359 L 25.873047 22.693359 C 25.294741 22.693359 25.306641 22.712674 25.306641 22.101562 L 25.306641 12.126953 C 25.306641 11.594569 25.320747 11.595703 25.773438 11.595703 z M 13.228516 11.597656 C 15.814848 11.59811 18.553034 11.635452 21.0625 11.597656 C 21.963432 11.597656 22.693359 12.327627 22.693359 13.228516 C 22.693359 14.129479 21.963432 14.859375 21.0625 14.859375 C 19.847563 14.859375 18.52708 14.859564 17.226562 14.859375 L 20.490234 18.125 L 21.388672 18.125 L 23.335938 18.125 L 23.335938 21.388672 L 22.693359 21.388672 C 21.387754 21.388672 21.388672 21.388352 21.388672 22.695312 L 21.388672 23.365234 L 18.125 23.365234 L 18.125 21.388672 L 18.125 20.369141 L 14.861328 17.103516 L 14.861328 21.0625 C 14.861328 21.963464 14.129446 22.695312 13.228516 22.695312 C 12.327585 22.695312 11.595703 21.963464 11.595703 21.0625 C 11.595836 18.47632 11.631495 15.738046 11.595703 13.228516 C 11.595703 12.327627 12.327583 11.597656 13.228516 11.597656 z M 27.917969 14.207031 L 27.917969 20.083984 L 33.792969 20.083984 L 33.792969 14.207031 L 27.917969 14.207031 z M 26.601562 24.634766 L 29.865234 24.634766 L 29.865234 26.611328 L 29.865234 27.632812 L 33.128906 30.896484 L 33.128906 26.939453 C 33.128905 26.038489 33.860787 25.306641 34.761719 25.306641 C 35.66265 25.306641 36.392578 26.038489 36.392578 26.939453 C 36.392444 29.525633 36.356824 32.261954 36.392578 34.771484 C 36.392578 35.672373 35.662651 36.404297 34.761719 36.404297 C 32.175385 36.403843 29.435248 36.366502 26.925781 36.404297 C 26.02485 36.404297 25.294922 35.672373 25.294922 34.771484 C 25.294922 33.870521 26.02485 33.140625 26.925781 33.140625 C 28.140719 33.140625 29.463154 33.140436 30.763672 33.140625 L 27.498047 29.876953 L 26.601562 29.876953 L 24.652344 29.876953 L 24.652344 26.611328 L 25.294922 26.611328 C 26.600518 26.611328 26.601563 26.613677 26.601562 25.306641 L 26.601562 24.634766 z M 12.064453 25.304688 L 22.173828 25.304688 C 22.626516 25.304688 22.693359 25.339546 22.693359 25.761719 L 22.693359 36.003906 C 22.693359 36.439005 22.695688 36.404297 22.123047 36.404297 L 12.164062 36.404297 C 11.585756 36.404297 11.595703 36.421696 11.595703 35.810547 L 11.595703 25.835938 C 11.595703 25.303591 11.611763 25.304688 12.064453 25.304688 z M 14.207031 27.916016 L 14.207031 33.792969 L 20.082031 33.792969 L 20.082031 27.916016 L 14.207031 27.916016 z "
       transform="matrix(0.26458333,0,0,0.26458333,0,284.3)"
       id="path829" />
  </g>
</svg>
