<svg xmlns="http://www.w3.org/2000/svg" width="48" height="48" viewBox="0 0 12.7 12.7">
  <defs>
    <clipPath id="a"/>
  </defs>
  <path fill="#1a1a1a" d="M6.34431561.07286377a6.28928043 6.28928043 0 0 0-6.2895386 6.2895385 6.28928043 6.28928043 0 0 0 6.2895386 6.28902166 6.28928043 6.28928043 0 0 0 6.28902167-6.28902167A6.28928043 6.28928043 0 0 0 6.3443156.07286376zm-.01808691.93637693a5.40704372 5.40704372 0 0 1 5.40690507 5.40690505 5.40704372 5.40704372 0 0 1-5.40690507 5.40690508A5.40704372 5.40704372 0 0 1 .91880694 6.41614575 5.40704372 5.40704372 0 0 1 6.3262287 1.0092407zm3.4514689 1.49241535c-.02004325.00037489-.03894773.00522044-.05529368.01550294-.05332016.16892008-.62051565.73325436-.95032962 1.0996745l-.40152584-.37775462c-.5721461-.51325012-.59457933.36077868-.58239341.38188873.10453396-.20746006.3355488-.28207943.7456908.14366054l-.43098137.40876061c.13584872.05999983.2713617.08959956.40721015.08629941l.28215352-.23719472c.43938295.43074007.34357574.47132186.160197.75034165.27630887.07340018.78394003-.22648491.33072916-.60926503l-.31574316-.3446817c.35714093-.33443994.7990406-.82986482 1.07952062-.96066503.0769739-.1405075-.12893198-.35919144-.26923417-.35656728zm-6.9272255.02997234c-.14030219-.00262419-.34620808.21605997-.26923433.35656747.28047992.13079995.72237959.6257081 1.07952078.96014804l-.3162599.3446817c-.4532114.3827801.05493703.6826652.3312459.6092653-.183379-.27902006-.27918595-.31908512.160197-.7498252l.28215325.23719499c.13584846.00329988.27136196-.02629985.40721042-.08629967l-.43149837-.40876061c.410142-.42573998.64115684-.35163733.74569107-.14417728.01218592-.02111004-.0097311-.89462212-.58187668-.381372l-.40152584.37723789c-.32981397-.36641987-.89700972-.93023769-.95032962-1.09915771-.01634595-.0102825-.0352507-.01512803-.05529368-.01550292zm3.50624586 1.09967436c-.78756457.50278003-1.64178084.66448807-2.47530115.80046803-.13235728 2.8556799.24413157 4.69019249 2.47530115 6.50451235 2.2311693-1.81431986 2.60765789-3.64883246 2.47530087-6.50451235-.8335203-.13597996-1.6877371-.297688-2.47530087-.80046803zm.00155019.24339603c.71979286.45952012 1.50008323.60746824 2.26187738.73173827.1209667 2.60993993-.22270482 4.28614993-2.26187738 5.94433996-2.0391715-1.65819003-2.38336188-3.33440003-2.26239411-5.94433996.76179414-.12427003 1.54260177-.27221815 2.2623941-.73173827zm-.0015502 1.03559582c-.44965698.20309999-.907946.32871727-1.37510994.44441718-.0735449 1.58677.13535025 2.84692192 1.37510995 3.85506193 1.2397589-1.00814 1.44917052-2.26829193 1.3756264-3.85506193-.38754816-.10752005-.93342829-.2587072-1.3756264-.44441718zM4.27932528 8.62066226c-.43665854.47069004-1.01488847 1.01384972-1.04283032 1.55080968.45797654-.22120992.75939067-.6871319 1.20457752-1.17512199l-.1617472-.37568769zm4.1413493.00051673l-.1617472.37517096c.44518685.48799009.74660098.95391207 1.20457752 1.175122-.02794185-.53695997-.60617178-1.07960292-1.04283032-1.55029296z"/>
</svg>
