<svg xmlns="http://www.w3.org/2000/svg" width="48" height="48" viewBox="0 0 12.7 12.7">
  <defs>
    <clipPath id="a"/>
  </defs>
  <path fill="#1a1a1a" d="M6.34431561.07286377a6.28928043 6.28928043 0 0 0-6.2895386 6.2895385 6.28928043 6.28928043 0 0 0 6.2895386 6.28902166 6.28928043 6.28928043 0 0 0 6.28902167-6.28902167A6.28928043 6.28928043 0 0 0 6.3443156.07286376zm-.01808691.93637693a5.40704372 5.40704372 0 0 1 5.40690507 5.40690505 5.40704372 5.40704372 0 0 1-5.40690507 5.40690508A5.40704372 5.40704372 0 0 1 .91880694 6.41614575 5.40704372 5.40704372 0 0 1 6.3262287 1.0092407zm.19016926 1.22731526v.00103352c-.15229125.0028-.30618958.01122145-.46147037.02532147-.11646058.01049999-.23049123.01420585-.34416523.03100586-2.3113542.34074999-4.0218261 1.93338794-3.86643052 3.65765792.10062601 1.11653001.9573048 2.03578299 2.18281244 2.52129313l-.51159673 1.99315994 2.26342783-1.63710935.01601973-.00103373c.27927432.01150011.55944187.01594802.85059413-.01085189 2.48449568-.22667012 4.3731198-1.87959389 4.21007879-3.68866389-.15284794-1.69598946-2.0548986-2.93091297-4.33927007-2.89181298zm1.0350791 1.03404537l.85369451.6149496-1.08572192 1.50740134L8.82736799 6.4786742l-.6149496.85369478-1.50740135-1.0852052L5.6192951 7.7545654l-.85369452-.61443287 1.08572167-1.50791834-1.50791808-1.08520494.61494934-.85421151 1.5074016 1.08572193 1.08572193-1.50791834z"/>
</svg>
