<svg xmlns="http://www.w3.org/2000/svg" width="48" height="48" viewBox="0 0 12.7 12.7">
  <path fill="#1a1a1a" d="M6.34431561.07286377a6.28928043 6.28928043 0 0 0-6.2895386 6.2895385 6.28928043 6.28928043 0 0 0 6.2895386 6.28902166 6.28928043 6.28928043 0 0 0 6.28902167-6.28902167A6.28928043 6.28928043 0 0 0 6.3443156.07286376zm-.01808691.93637693a5.40704372 5.40704372 0 0 1 5.40690507 5.40690505 5.40704372 5.40704372 0 0 1-5.40690507 5.40690508A5.40704372 5.40704372 0 0 1 .91880694 6.41614575 5.40704372 5.40704372 0 0 1 6.3262287 1.0092407zm.02428795.76119383c-.84314426 0-1.52703845.68338168-1.52703845 1.52652194v3.6359536c-.4684993.41930002-.76377773 1.02919925-.76377773 1.7073893 0 1.26474986 1.02609993 2.28927604 2.29081618 2.28926599 1.264716 0 2.28978272-1.02451613 2.28978272-2.28926599 0-.67819005-.29476197-1.28809934-.763261-1.7073893v-3.6359536c0-.84314026-.68337746-1.5265219-1.52652172-1.52652194zM5.96862792 4.8234782h.76326073v2.738334a1.14499251 1.14499251 0 0 1 .763261 1.07797044 1.14499251 1.14499251 0 0 1-1.14514973 1.14514972 1.14499251 1.14499251 0 0 1-1.144633-1.14514972 1.14499251 1.14499251 0 0 1 .763261-1.07848716V4.8234782z"/>
  <path fill="#ff2a2a" d="M5.9686283 4.82348V7.5613a1.1449926 1.1449926 0 0 0-.763261 1.07848 1.1449926 1.1449926 0 0 0 1.144633 1.14515 1.1449926 1.1449926 0 0 0 1.145149-1.14515 1.1449926 1.1449926 0 0 0-.763261-1.07797V4.82348z" opacity=".75"/>
</svg>
