<svg xmlns="http://www.w3.org/2000/svg" width="48" height="48" viewBox="0 0 12.7 12.7">
  <path fill="#1a1a1a" d="M6.34431561.07286377a6.28928043 6.28928043 0 0 0-6.2895386 6.2895385 6.28928043 6.28928043 0 0 0 6.2895386 6.28902166 6.28928043 6.28928043 0 0 0 6.28902167-6.28902167A6.28928043 6.28928043 0 0 0 6.3443156.07286376zm-.01808691.93637693a5.40704372 5.40704372 0 0 1 5.40690507 5.40690505 5.40704372 5.40704372 0 0 1-5.40690507 5.40690508A5.40704372 5.40704372 0 0 1 .91880694 6.41614575 5.40704372 5.40704372 0 0 1 6.3262287 1.0092407z"/>
  <path fill="#ff2a2a" d="M3.1342441 3.67749c-.4475789 0-.8080294.36045-.8080294.80804v3.72896c0 .44757.3604505.80801.8080294.80801h6.4315117c.4475792 0 .8080292-.36044.8080292-.80801V4.48553c0-.44758-.36045-.80804-.8080292-.80804zm2.344952 1.32154l2.0117441 1.29118-2.0718405 1.41077z" opacity=".75" paint-order="markers fill stroke"/>
</svg>
