<svg xmlns="http://www.w3.org/2000/svg" width="24" height="24" viewBox="0 0 6.35 6.35"><path d="M4.67.67a.83.83 0 0 0-.01 0c-.55.02-.67.43-.7.68l-.03.2c-.7.11-.63.83-.2.84a.83.83 0 0 1 .21-.67.8.8 0 0 0 1.59.06c.07.12.18.36.16.61.67 0 .34-.78-.13-.87l-.02-.11a.83.83 0 0 0-.87-.74zM1.6.8zm0 0c-.2 0-.45.15-.58.27-.17.15-.04.27-.04.52a.8.8 0 1 0 1.58 0c0-.27.1-.52-.11-.66-.13-.1-.67-.13-.85-.13zm2.6 1.7l-.95 1.14-.91-1.13H1.28L.18 3.7l.24.24.78-.67v1.3h.16v.98h-.1v.13h.46v-1.1h.17v1.1h.45v-.12h-.1v-.99h.2V3.3l.62.66.26-.07.14.03.71-.81.04.32-.66 1.13h.76v1h-.1v.1h.46V4.57h.17v1.1h.46v-.1h-.1v-1h.58l-.57-1.14.03-.4.56.75.36-.1-.88-1.19z" fill="gray"/></svg>