<svg xmlns="http://www.w3.org/2000/svg" width="24" height="24" viewBox="0 0 6.35 6.35"><path d="M.96.94V3.6l1.52.67.04-.04a.35.35 0 0 1 .27-.12c.18 0 .34.15.34.35 0 .2-.16.36-.34.36a.35.35 0 0 1-.35-.31v-.03L.95 3.84v1.57H5.4V.94h-.7v1.35l.03.02c.1.06.15.17.15.28a.33.33 0 0 1-.33.33.33.33 0 0 1-.33-.33c0-.14.09-.28.23-.31l.04-.02V.94h-2.4V2.4h.71l.01-.03a.35.35 0 0 1 .32-.23c.19 0 .34.16.34.35a.34.34 0 1 1-.64.16l-.02-.03h-.94V.93zm2.16 1.4a.18.18 0 0 0-.18.18.18.18 0 0 0 .18.17.18.18 0 0 0 .17-.17.18.18 0 0 0-.17-.17zm1.41.07a.18.18 0 0 0-.17.17.18.18 0 0 0 .17.18.18.18 0 0 0 .18-.18.18.18 0 0 0-.18-.17zM2.78 4.29a.18.18 0 0 0-.18.17c0 .1.07.18.17.18a.18.18 0 0 0 .19-.18.18.18 0 0 0-.18-.17z" fill="gray"/></svg>