<svg xmlns="http://www.w3.org/2000/svg" width="48" height="48" viewBox="0 0 12.7 12.7"><path d="M6.344.073a6.29 6.29 0 0 0-6.29 6.29 6.29 6.29 0 0 0 6.29 6.288 6.29 6.29 0 0 0 6.29-6.289 6.29 6.29 0 0 0-6.29-6.29zm-.018.936a5.407 5.407 0 0 1 5.407 5.407 5.407 5.407 0 0 1-5.407 5.407A5.407 5.407 0 0 1 .92 6.416 5.407 5.407 0 0 1 6.326 1.01zM3.788 2.078a.832.832 0 1 0 0 1.665.832.832 0 0 0 0-1.665zm2.497 0a.832.832 0 1 0 0 1.665.832.832 0 0 0 0-1.665zm2.498 0a.832.832 0 1 0 0 1.665.832.832 0 0 0 0-1.665zM3.788 4.575a.832.832 0 1 0 0 1.665.832.832 0 0 0 0-1.665zm2.497 0a.832.832 0 1 0 0 1.665.832.832 0 0 0 0-1.665zm2.498 0a.832.832 0 1 0 0 1.665.832.832 0 0 0 0-1.665zM3.788 7.073a.832.832 0 1 0 0 1.665.832.832 0 0 0 0-1.665zm2.497 0a.832.832 0 1 0 0 1.665.832.832 0 0 0 0-1.665zm2.498 0a.832.832 0 1 0 0 1.665.832.832 0 0 0 0-1.665zM6.285 9.57a.832.832 0 1 0 0 1.665.832.832 0 0 0 0-1.665z" fill="#5beedc"/></svg>
