<svg xmlns="http://www.w3.org/2000/svg" width="48" height="48" viewBox="0 0 12.7 12.7"><path d="M6.344.073a6.29 6.29 0 0 0-6.29 6.29 6.29 6.29 0 0 0 6.29 6.288 6.29 6.29 0 0 0 6.29-6.289 6.29 6.29 0 0 0-6.29-6.29zm-.018.936a5.407 5.407 0 0 1 5.407 5.407 5.407 5.407 0 0 1-1.355 3.574H6.776V8.21h1.388v-.94H4.41v.94h1.49v1.78H2.276A5.407 5.407 0 0 1 .92 6.416 5.407 5.407 0 0 1 6.326 1.01zM4.191 2.361V4.9h-.517V3.867h-.517c-.259 0-.517.259-.517.518v2.07c0 .258.258.517.517.517h6.208c.259 0 .518-.259.518-.518v-2.07c0-.258-.259-.517-.518-.517h-.517v1.036h-.517V2.36H4.19zm.466.438h3.215v2.103H4.657V2.799zm-1.5 7.991h6.336a5.407 5.407 0 0 1-3.167 1.033 5.407 5.407 0 0 1-3.17-1.033z" fill="#5beedc"/></svg>
