<?xml version="1.0" encoding="UTF-8" standalone="no"?>
<svg
   xmlns:dc="http://purl.org/dc/elements/1.1/"
   xmlns:cc="http://creativecommons.org/ns#"
   xmlns:rdf="http://www.w3.org/1999/02/22-rdf-syntax-ns#"
   xmlns:svg="http://www.w3.org/2000/svg"
   xmlns="http://www.w3.org/2000/svg"
   xmlns:sodipodi="http://sodipodi.sourceforge.net/DTD/sodipodi-0.dtd"
   xmlns:inkscape="http://www.inkscape.org/namespaces/inkscape"
   width="48"
   height="48"
   viewBox="0 0 12.7 12.7"
   version="1.1"
   id="svg6"
   sodipodi:docname="firefox-trunk.svg"
   inkscape:version="0.92.4 (5da689c313, 2019-01-14)">
  <metadata
     id="metadata12">
    <rdf:RDF>
      <cc:Work
         rdf:about="">
        <dc:format>image/svg+xml</dc:format>
        <dc:type
           rdf:resource="http://purl.org/dc/dcmitype/StillImage" />
        <dc:title></dc:title>
      </cc:Work>
    </rdf:RDF>
  </metadata>
  <defs
     id="defs10" />
  <sodipodi:namedview
     pagecolor="#ffffff"
     bordercolor="#666666"
     borderopacity="1"
     objecttolerance="10"
     gridtolerance="10"
     guidetolerance="10"
     inkscape:pageopacity="0"
     inkscape:pageshadow="2"
     inkscape:window-width="1087"
     inkscape:window-height="480"
     id="namedview8"
     showgrid="false"
     inkscape:zoom="4.9166667"
     inkscape:cx="2.1355932"
     inkscape:cy="24"
     inkscape:window-x="0"
     inkscape:window-y="25"
     inkscape:window-maximized="0"
     inkscape:current-layer="svg6" />
  <path
     d="M 6.3397804,0.07541667 A 6.2948029,6.2948029 0 0 0 0.05541667,6.3597804 6.2948029,6.2948029 0 0 0 6.3502196,12.654583 6.2948029,6.2948029 0 0 0 12.634583,6.3597804 6.2948029,6.2948029 0 0 0 6.3397804,0.07541667 Z M 6.3293413,1.0149395 A 5.4074758,5.4074758 0 0 1 11.726378,6.401537 5.4074758,5.4074758 0 0 1 6.3189021,11.809013 5.4074758,5.4074758 0 0 1 0.91142635,6.401537 5.4074758,5.4074758 0 0 1 6.3189021,0.9940612 Z"
     id="path2"
     inkscape:connector-curvature="0"
     style="fill:#ff78cb;stroke-width:1.0439142" />
  <path
     d="m 8.0517998,1.86051 v 0.073074 c 0.2505394,0.5323963 0.73074,1.023036 1.09611,1.5136757 C 9.2001055,3.3115508 9.2523012,2.883546 9.3566926,2.7687154 l 0.031317,0.062635 a 3.0482296,3.0482296 0 0 0 0.2818569,0.5010788 c 0.7516185,1.1065491 1.5136765,1.9103631 1.5136765,3.4971127 0,2.4845159 -2.1713425,4.4992701 -4.8333238,4.4992701 -2.6724205,0 -4.833323,-2.0147542 -4.833323,-4.4992701 0,-0.8977662 0.2818569,-1.7224585 0.7620574,-2.421881 V 4.3867825 L 2.3207106,3.9900951 C 2.3833454,3.7186774 2.6025674,2.9253026 2.93662,2.7687154 3.082768,3.0505723 3.1245246,3.5620902 3.30199,3.8439471 a 0.46976141,0.46976141 0 0 1 0.1879045,-0.041757 h 0.020878 a 0.59503112,0.59503112 0 0 1 0.041757,0 H 3.66736 a 2.0043154,2.0043154 0 0 1 0.1148305,0 1.9834371,1.9834371 0 0 1 0.3862483,0.020878 h 0.020878 l 0.020878,0.010439 h 0.052196 l 0.020878,0.010439 h 0.041756 c 0.2087829,0.062635 0.1879046,0.062635 0.2609786,0 C 4.7947873,3.6560425 5.4733316,3.32199 5.8387016,3.5098945 5.6090405,3.7082382 4.9722528,4.0736082 5.1497182,4.4702956 A 0.52195712,0.52195712 0 0 0 5.577723,4.7312742 c 0.5219572,0.041757 0.73074,0.093952 0.7620574,0.1670263 0.031317,0.052196 -0.010439,0.2087828 -0.073074,0.292296 A 0.8351314,0.8351314 0 0 1 6.0683627,5.3680619 L 5.796945,5.4933316 C 5.6090405,5.5664056 5.139279,5.7021145 5.139279,5.9108973 5.1914748,6.0779236 5.4733316,6.2658281 5.3480619,6.3910979 a 2.0147545,2.0147545 0 0 0 -0.803814,-0.219222 c -0.36537,0.4488831 0.010439,1.0752316 0.7620574,1.2422579 0.1774654,0.041757 0.3444917,0.031317 0.6263486,-0.052196 0.292296,-0.083513 0.438444,-0.083513 0.5950311,-0.083513 0.1565871,0 0.2296611,0 0.36537,0.062635 0.1565871,0.052196 0.3444917,0.1983437 0.3966874,0.3027352 0.041757,0.083513 0.020878,0.1043914 -0.052196,0.1461479 -0.031317,0.020878 -0.052196,0.020878 -0.2087829,0 C 6.9243721,7.7795039 6.7260284,7.8108209 6.329341,8.0091649 6.0683624,8.1448738 5.8491404,8.1866304 5.6194793,8.1866304 c -0.2505394,0 -0.5010788,0.020878 -0.8455705,-0.031318 0.1252697,0.6889834 1.0856708,0.9186446 1.8059716,0.9186446 1.1274274,0 1.9312414,-0.8351314 2.1817808,-1.899924 A 2.0356328,2.0356328 0 0 0 8.5528786,5.9213364 4.3009267,4.3009267 0 0 0 7.8221387,5.0653268 2.3174896,2.3174896 0 0 1 7.331499,4.0422908 a 2.5471508,2.5471508 0 0 1 0,-0.6681051 A 2.9229599,2.9229599 0 0 1 7.477647,2.883546 C 7.6133558,2.5494934 7.7386255,2.2363192 7.9578475,1.9649015 l 0.031317,-0.041757 z"
     id="path4"
     inkscape:connector-curvature="0"
     style="opacity:0.75;fill:#442178;stroke-width:1.0439142" />
</svg>
