<?xml version="1.0" encoding="UTF-8" standalone="no"?>
<svg
   xmlns:dc="http://purl.org/dc/elements/1.1/"
   xmlns:cc="http://creativecommons.org/ns#"
   xmlns:rdf="http://www.w3.org/1999/02/22-rdf-syntax-ns#"
   xmlns:svg="http://www.w3.org/2000/svg"
   xmlns="http://www.w3.org/2000/svg"
   xmlns:sodipodi="http://sodipodi.sourceforge.net/DTD/sodipodi-0.dtd"
   xmlns:inkscape="http://www.inkscape.org/namespaces/inkscape"
   width="48"
   height="48"
   viewBox="0 0 12.7 12.7"
   version="1.1"
   id="svg4"
   sodipodi:docname="idevice.svg"
   inkscape:version="0.92.4 (5da689c313, 2019-01-14)">
  <metadata
     id="metadata10">
    <rdf:RDF>
      <cc:Work
         rdf:about="">
        <dc:format>image/svg+xml</dc:format>
        <dc:type
           rdf:resource="http://purl.org/dc/dcmitype/StillImage" />
        <dc:title></dc:title>
      </cc:Work>
    </rdf:RDF>
  </metadata>
  <defs
     id="defs8" />
  <sodipodi:namedview
     pagecolor="#ffffff"
     bordercolor="#666666"
     borderopacity="1"
     objecttolerance="10"
     gridtolerance="10"
     guidetolerance="10"
     inkscape:pageopacity="0"
     inkscape:pageshadow="2"
     inkscape:window-width="862"
     inkscape:window-height="480"
     id="namedview6"
     showgrid="false"
     inkscape:zoom="4.9166667"
     inkscape:cx="2.1355932"
     inkscape:cy="24"
     inkscape:window-x="0"
     inkscape:window-y="25"
     inkscape:window-maximized="0"
     inkscape:current-layer="svg4" />
  <path
     d="m 6.344,0.072 a 6.29,6.29 0 0 0 -6.29,6.29 6.29,6.29 0 0 0 6.29,6.289 6.29,6.29 0 0 0 6.29,-6.29 6.29,6.29 0 0 0 -6.29,-6.29 z M 6.326,1.009 A 5.407,5.407 0 0 1 11.733,6.416 5.407,5.407 0 0 1 6.326,11.823 5.407,5.407 0 0 1 0.92,6.416 5.407,5.407 0 0 1 6.326,1.01 Z M 4.729,1.986 c -0.643,0 -1.167,0.539 -1.167,1.202 v 6.41 c 0,0.663 0.524,1.202 1.167,1.202 H 7.84 c 0.644,0 1.168,-0.54 1.168,-1.202 V 3.188 C 9.008,2.525 8.484,1.986 7.84,1.986 Z M 4.243,3.188 H 8.328 V 8.797 H 4.243 V 3.187 Z M 6.35,3.711 5.85,4.544 H 6.267 V 6.91 L 5.767,6.568 C 5.697,6.502 5.687,6.468 5.687,6.381 V 5.861 A 0.332,0.332 0 0 0 5.93,5.541 0.332,0.332 0 0 0 5.599,5.21 0.332,0.332 0 0 0 5.267,5.54 0.332,0.332 0 0 0 5.543,5.867 V 6.392 H 5.542 c 0,0.195 0.122,0.267 0.122,0.267 L 6.267,7.087 V 7.384 A 0.416,0.416 0 0 0 5.933,7.791 0.416,0.416 0 0 0 6.35,8.208 0.416,0.416 0 0 0 6.767,7.791 0.416,0.416 0 0 0 6.433,7.384 V 6.63 L 7.078,6.163 c 0,0 0.122,-0.074 0.122,-0.273 V 5.71 H 7.433 V 5.043 H 6.767 v 0.666 h 0.289 v 0.17 c 0,0.088 -0.01,0.123 -0.08,0.19 L 6.433,6.449 V 4.544 H 6.85 Z M 5.507,9.598 h 1.557 v 0.4 H 5.507 Z"
     id="path2"
     inkscape:connector-curvature="0"
     style="fill:#ff78cb" />
</svg>
