<?xml version="1.0" encoding="UTF-8" standalone="no"?>
<svg
   xmlns:dc="http://purl.org/dc/elements/1.1/"
   xmlns:cc="http://creativecommons.org/ns#"
   xmlns:rdf="http://www.w3.org/1999/02/22-rdf-syntax-ns#"
   xmlns:svg="http://www.w3.org/2000/svg"
   xmlns="http://www.w3.org/2000/svg"
   xmlns:sodipodi="http://sodipodi.sourceforge.net/DTD/sodipodi-0.dtd"
   xmlns:inkscape="http://www.inkscape.org/namespaces/inkscape"
   width="48"
   height="48"
   viewBox="0 0 12.7 12.7"
   version="1.1"
   id="svg4"
   sodipodi:docname="jockey.svg"
   inkscape:version="0.92.4 (5da689c313, 2019-01-14)">
  <metadata
     id="metadata10">
    <rdf:RDF>
      <cc:Work
         rdf:about="">
        <dc:format>image/svg+xml</dc:format>
        <dc:type
           rdf:resource="http://purl.org/dc/dcmitype/StillImage" />
        <dc:title></dc:title>
      </cc:Work>
    </rdf:RDF>
  </metadata>
  <defs
     id="defs8" />
  <sodipodi:namedview
     pagecolor="#ffffff"
     bordercolor="#666666"
     borderopacity="1"
     objecttolerance="10"
     gridtolerance="10"
     guidetolerance="10"
     inkscape:pageopacity="0"
     inkscape:pageshadow="2"
     inkscape:window-width="1087"
     inkscape:window-height="480"
     id="namedview6"
     showgrid="false"
     inkscape:zoom="4.9166667"
     inkscape:cx="2.1355932"
     inkscape:cy="24"
     inkscape:window-x="0"
     inkscape:window-y="25"
     inkscape:window-maximized="0"
     inkscape:current-layer="svg4" />
  <path
     d="m 6.344,0.073 a 6.29,6.29 0 0 0 -6.29,6.29 6.29,6.29 0 0 0 6.29,6.288 6.29,6.29 0 0 0 6.29,-6.289 6.29,6.29 0 0 0 -6.29,-6.29 z M 6.326,1.009 A 5.407,5.407 0 0 1 11.733,6.416 5.407,5.407 0 0 1 6.326,11.823 5.407,5.407 0 0 1 0.92,6.416 5.407,5.407 0 0 1 6.326,1.01 Z M 6.342,1.748 C 5.797,1.747 5.251,1.932 4.887,2.305 4.301,2.905 4.19,3.973 4.168,5.161 h -0.8 v 5.205 H 9.332 V 9.55 H 7.528 L 7.505,9.581 A 0.463,0.463 0 0 1 7.13,9.76 c -0.246,0 -0.446,-0.176 -0.446,-0.39 0,-0.215 0.2,-0.39 0.446,-0.39 0.193,0 0.363,0.107 0.424,0.267 l 0.017,0.047 h 1.76 V 6.476 H 7.355 v 0.841 l 0.05,0.016 c 0.178,0.06 0.298,0.21 0.298,0.377 0,0.222 -0.207,0.402 -0.462,0.402 -0.254,0 -0.46,-0.18 -0.46,-0.402 0,-0.15 0.094,-0.287 0.246,-0.356 L 7.068,7.334 V 6.226 H 9.333 V 5.161 H 8.517 C 8.494,3.994 8.382,2.927 7.798,2.319 7.435,1.939 6.889,1.749 6.343,1.748 Z M 6.333,2.29 C 6.756,2.291 7.179,2.457 7.461,2.788 7.897,3.301 7.994,4.185 8.016,5.161 H 5.771 L 4.88,6.952 4.925,6.985 c 0.11,0.078 0.173,0.195 0.173,0.318 0,0.228 -0.212,0.413 -0.472,0.413 -0.261,0 -0.473,-0.185 -0.473,-0.413 0,-0.203 0.174,-0.38 0.405,-0.408 L 4.6,6.89 5.46,5.161 H 4.65 C 4.672,4.168 4.768,3.284 5.206,2.778 5.488,2.452 5.911,2.289 6.333,2.291 Z m -1.711,4.8 c -0.13,0 -0.234,0.092 -0.234,0.204 0,0.113 0.105,0.204 0.234,0.204 0.129,0 0.234,-0.091 0.234,-0.204 C 4.856,7.182 4.751,7.09 4.622,7.09 Z M 7.215,7.501 A 0.234,0.204 0 0 0 6.981,7.705 0.234,0.204 0 0 0 7.215,7.91 0.234,0.204 0 0 0 7.45,7.705 0.234,0.204 0 0 0 7.215,7.501 Z M 7.125,9.167 A 0.234,0.204 0 0 0 6.892,9.371 0.234,0.204 0 0 0 7.126,9.576 0.234,0.204 0 0 0 7.359,9.371 0.234,0.204 0 0 0 7.126,9.167 Z"
     id="path2"
     inkscape:connector-curvature="0"
     style="fill:#ff78cb" />
</svg>
