<?xml version="1.0" encoding="UTF-8" standalone="no"?>
<svg
   xmlns:dc="http://purl.org/dc/elements/1.1/"
   xmlns:cc="http://creativecommons.org/ns#"
   xmlns:rdf="http://www.w3.org/1999/02/22-rdf-syntax-ns#"
   xmlns:svg="http://www.w3.org/2000/svg"
   xmlns="http://www.w3.org/2000/svg"
   xmlns:sodipodi="http://sodipodi.sourceforge.net/DTD/sodipodi-0.dtd"
   xmlns:inkscape="http://www.inkscape.org/namespaces/inkscape"
   width="48"
   height="48"
   viewBox="0 0 12.7 12.7"
   version="1.1"
   id="svg4"
   sodipodi:docname="livewallpaper-config.svg"
   inkscape:version="0.92.4 (5da689c313, 2019-01-14)">
  <metadata
     id="metadata10">
    <rdf:RDF>
      <cc:Work
         rdf:about="">
        <dc:format>image/svg+xml</dc:format>
        <dc:type
           rdf:resource="http://purl.org/dc/dcmitype/StillImage" />
        <dc:title></dc:title>
      </cc:Work>
    </rdf:RDF>
  </metadata>
  <defs
     id="defs8" />
  <sodipodi:namedview
     pagecolor="#ffffff"
     bordercolor="#666666"
     borderopacity="1"
     objecttolerance="10"
     gridtolerance="10"
     guidetolerance="10"
     inkscape:pageopacity="0"
     inkscape:pageshadow="2"
     inkscape:window-width="862"
     inkscape:window-height="480"
     id="namedview6"
     showgrid="false"
     inkscape:zoom="4.9166667"
     inkscape:cx="2.1355932"
     inkscape:cy="24"
     inkscape:window-x="0"
     inkscape:window-y="25"
     inkscape:window-maximized="0"
     inkscape:current-layer="svg4" />
  <path
     d="m 6.344,0.072 a 6.29,6.29 0 0 0 -6.29,6.29 6.29,6.29 0 0 0 6.29,6.289 6.29,6.29 0 0 0 6.29,-6.29 6.29,6.29 0 0 0 -6.29,-6.29 z M 6.326,1.009 A 5.407,5.407 0 0 1 11.733,6.416 5.407,5.407 0 0 1 6.326,11.823 5.407,5.407 0 0 1 0.92,6.416 5.407,5.407 0 0 1 6.326,1.01 Z M 3.408,3.043 H 3.41 A 0.67,0.67 0 0 0 2.74,3.714 v 4.579 c 0,0.37 0.3,0.67 0.67,0.67 h 1.68 v 0.8 H 3.522 v 0.619 H 9.357 V 9.763 h -1.61 v -0.8 h 1.641 c 0.37,0 0.67,-0.3 0.67,-0.67 v -4.58 c 0,-0.37 -0.3,-0.67 -0.67,-0.67 z m 0.51,0.667 h 3.78 v 1.695 h 1.738 v 2.36 A 0.517,0.517 0 0 1 8.918,8.282 h -5 A 0.516,0.516 0 0 1 3.4,7.764 V 4.227 C 3.4,3.941 3.631,3.71 3.918,3.71 Z m 4.018,0 h 0.981 c 0.288,0 0.52,0.23 0.52,0.517 V 5.21 Z M 5.65,4.412 5.5,4.416 5.409,4.894 A 1.144,1.144 0 0 0 5.185,4.968 L 4.836,4.633 C 4.749,4.687 4.667,4.748 4.592,4.817 L 4.8,5.253 C 4.75,5.31 4.704,5.371 4.666,5.437 L 4.186,5.373 A 1.58,1.58 0 0 0 4.093,5.668 l 0.422,0.225 a 1.102,1.102 0 0 0 0,0.227 L 4.093,6.348 c 0.023,0.1 0.05,0.2 0.094,0.294 L 4.666,6.575 C 4.703,6.642 4.749,6.706 4.8,6.763 L 4.592,7.199 C 4.669,7.266 4.746,7.333 4.836,7.386 L 5.185,7.051 c 0.07,0.03 0.147,0.054 0.224,0.067 l 0.09,0.483 c 0.1,0.009 0.201,0.009 0.302,0 l 0.09,-0.48 C 5.968,7.105 6.044,7.08 6.116,7.048 L 6.464,7.382 C 6.554,7.332 6.632,7.269 6.709,7.199 L 6.5,6.763 C 6.55,6.706 6.595,6.645 6.634,6.579 L 7.113,6.642 C 7.153,6.548 7.185,6.449 7.206,6.348 L 6.785,6.127 6.791,6.013 c 0,-0.04 0,-0.077 -0.006,-0.114 L 7.206,5.668 A 1.575,1.575 0 0 0 7.113,5.373 L 6.633,5.44 A 1.156,1.156 0 0 0 6.5,5.253 L 6.708,4.817 A 1.584,1.584 0 0 0 6.463,4.63 L 6.115,4.965 A 1.148,1.148 0 0 0 5.89,4.898 L 5.8,4.412 c -0.05,-0.004 -0.1,0 -0.15,0 z m 0,0.911 a 0.686,0.686 0 1 1 0,1.372 0.686,0.686 0 0 1 0,-1.372 z"
     id="path2"
     inkscape:connector-curvature="0"
     style="fill:#ff78cb" />
</svg>
