<?xml version="1.0" encoding="UTF-8" standalone="no"?>
<svg
   xmlns:dc="http://purl.org/dc/elements/1.1/"
   xmlns:cc="http://creativecommons.org/ns#"
   xmlns:rdf="http://www.w3.org/1999/02/22-rdf-syntax-ns#"
   xmlns:svg="http://www.w3.org/2000/svg"
   xmlns="http://www.w3.org/2000/svg"
   xmlns:sodipodi="http://sodipodi.sourceforge.net/DTD/sodipodi-0.dtd"
   xmlns:inkscape="http://www.inkscape.org/namespaces/inkscape"
   width="48"
   height="48"
   version="1"
   id="svg11"
   sodipodi:docname="rider.svg"
   inkscape:version="0.92.4 (5da689c313, 2019-01-14)">
  <metadata
     id="metadata15">
    <rdf:RDF>
      <cc:Work
         rdf:about="">
        <dc:format>image/svg+xml</dc:format>
        <dc:type
           rdf:resource="http://purl.org/dc/dcmitype/StillImage" />
        <dc:title></dc:title>
      </cc:Work>
    </rdf:RDF>
  </metadata>
  <sodipodi:namedview
     pagecolor="#ffffff"
     bordercolor="#666666"
     borderopacity="1"
     objecttolerance="10"
     gridtolerance="10"
     guidetolerance="10"
     inkscape:pageopacity="0"
     inkscape:pageshadow="2"
     inkscape:window-width="1087"
     inkscape:window-height="480"
     id="namedview13"
     showgrid="false"
     inkscape:zoom="4.9166667"
     inkscape:cx="2.1355932"
     inkscape:cy="24"
     inkscape:window-x="0"
     inkscape:window-y="25"
     inkscape:window-maximized="0"
     inkscape:current-layer="svg11" />
  <defs
     id="defs7">
    <linearGradient
       id="a">
      <stop
         offset="0"
         stop-color="#040000"
         id="stop2" />
      <stop
         offset="1"
         stop-opacity="0"
         id="stop4" />
    </linearGradient>
  </defs>
  <path
     d="M 24,0.23 A 23.77,23.77 0 0 0 0.23,24.01 23.77,23.77 0 0 0 24,47.77 23.77,23.77 0 0 0 47.77,24 23.77,23.77 0 0 0 24,0.23 Z M 23.93,3.77 A 20.44,20.44 0 0 1 44.37,24.21 20.44,20.44 0 0 1 23.93,44.64 20.44,20.44 0 0 1 3.5,24.21 20.44,20.44 0 0 1 23.93,3.77 Z m 0,3 A 17.44,17.44 0 0 0 6.5,24.22 17.44,17.44 0 0 0 23.93,41.66 17.44,17.44 0 0 0 41.37,24.2 17.44,17.44 0 0 0 23.93,6.77 Z m 0.58,6.6 h 0.41 c 1.5,0 2.77,0.75 3.84,2.26 v -2.2 l 0.07,-0.07 h 0.5 l 0.06,0.07 v 4.61 c 0,1.8 -0.86,3.18 -2.58,4.16 -0.65,0.33 -1.34,0.5 -2.06,0.5 h -0.08 c -1.6,0 -2.9,-0.75 -3.94,-2.24 A 4.47,4.47 0 0 1 20.06,18.22 V 17.8 c 0,-1.4 0.68,-2.6 2.03,-3.64 0.8,-0.53 1.61,-0.8 2.42,-0.8 z m -8.9,0.07 h 0.45 c 1.05,0 2.02,0.37 2.93,1.1 v 0.04 c -0.16,0.28 -0.29,0.45 -0.38,0.5 a 4.5,4.5 0 0 0 -2.67,-0.96 h -0.1 c -1.8,0 -3.15,0.9 -4.04,2.67 a 4.1,4.1 0 0 0 -0.35,1.71 v 0.12 c 0,1.38 0.64,2.56 1.9,3.54 -0.19,0.3 -0.33,0.49 -0.41,0.53 -1.45,-1.13 -2.17,-2.45 -2.17,-3.96 v -0.45 c 0,-1.52 0.73,-2.84 2.2,-3.97 a 4.75,4.75 0 0 1 2.64,-0.87 z m 9.1,0.55 c -1.65,0 -2.88,0.82 -3.7,2.44 -0.2,0.47 -0.31,1 -0.31,1.58 v 0.1 c 0,1.54 0.79,2.75 2.37,3.6 0.56,0.23 1.12,0.35 1.68,0.35 1.63,0 2.87,-0.84 3.73,-2.51 0.19,-0.58 0.28,-1.1 0.28,-1.58 0,-1.51 -0.75,-2.7 -2.26,-3.6 a 4.36,4.36 0 0 0 -1.68,-0.38 h -0.1 z M 10.38,24.5 h 19.75 c 0.15,0 0.28,0.13 0.28,0.29 0,0.15 -0.13,0.28 -0.28,0.28 H 10.38 a 0.28,0.28 0 0 1 -0.29,-0.28 c 0,-0.16 0.13,-0.29 0.29,-0.29 z"
     id="path9"
     inkscape:connector-curvature="0"
     style="fill:#ff78cb" />
</svg>
