<svg xmlns="http://www.w3.org/2000/svg" width="24" height="24" version="1"><path d="M12 1.502C6.207 1.502 1.502 6.208 1.502 12c0 5.792 4.706 10.498 10.498 10.498 5.793 0 10.498-4.706 10.498-10.498 0-5.793-4.706-10.498-10.498-10.498z" fill="#540"/><path d="M7.672 5.63c-.334 0-.632.154-.83.39l-.995 1.206c-.208.252-.33.568-.33.916v8.982c0 .793.643 1.436 1.437 1.436h10.058c.794 0 1.437-.643 1.437-1.436V8.142a1.44 1.44 0 0 0-.327-.916l-.995-1.206a1.095 1.095 0 0 0-.835-.39H7.673zm-.042.717h8.621L17.32 7.86H6.58z" fill="#fff"/></svg>