<svg xmlns="http://www.w3.org/2000/svg" width="48" height="48" viewBox="0 0 12.7 12.7"><path d="M1.215.856L.142 3.66h6.04V.856H1.215zm5.174 0V3.66h6.115L11.402.856H6.39zM.194 3.893v6.31c0 .636.246 1.181.737 1.633.491.453 1.083.679 1.775.679H9.96c.692 0 1.283-.226 1.775-.679.49-.452.736-.997.736-1.634v-6.31h-1.116v6.31c0 .354-.136.656-.41.908a1.403 1.403 0 0 1-.985.377H2.706c-.384 0-.712-.126-.986-.377a1.19 1.19 0 0 1-.41-.908v-6.31H.195zm5.86 3.992a.93.93 0 0 0-.93.92c0 .509.42.922.934.922.51 0 .936-.413.936-.908a.924.924 0 0 0-.94-.934zm2.034 0a.93.93 0 0 0-.93.92c0 .509.42.922.933.922.512 0 .937-.413.937-.908a.925.925 0 0 0-.94-.934zm-4.37.041v.378h.685L3.63 9.307v.378h1.34v-.378h-.835l.774-1.003v-.378h-1.19zm2.34.346c.282 0 .51.242.51.534a.521.521 0 0 1-.507.533c-.286 0-.511-.238-.511-.54 0-.288.231-.527.508-.527zm2.033 0c.283 0 .512.242.512.534a.521.521 0 0 1-.508.533c-.286 0-.511-.238-.511-.54 0-.288.231-.527.507-.527z" fill="#a02c2c"/></svg>