<svg xmlns="http://www.w3.org/2000/svg" width="48" height="48" viewBox="0 0 12.7 12.7"><path d="M1.215.856L.142 3.66h6.04V.856H1.215zm5.174 0V3.66h6.115L11.402.856H6.39zM.194 3.893v6.31c0 .636.246 1.181.737 1.633.491.453 1.083.679 1.775.679H9.96c.692 0 1.283-.226 1.775-.679.49-.452.736-.997.736-1.634v-6.31h-1.116v6.31c0 .354-.136.656-.41.908a1.403 1.403 0 0 1-.985.377H2.706c-.384 0-.712-.126-.986-.377a1.19 1.19 0 0 1-.41-.908v-6.31H.195zM3.467 7.9v.397h.936l-.888 1.95h.476l.857-1.95V7.9H3.467zm3.208 0v.397h.423V7.9h-.423zm1.683.547a.74.74 0 0 0-.533.247c-.021-.067.053-.23-.058-.207h-.33v2.346h.424v-.752c.397.386 1.14.203 1.335-.31.21-.46.023-1.103-.482-1.272a.918.918 0 0 0-.356-.052zm-3.165.04v.378h.686L5.104 9.87v.377h1.34V9.87h-.836l.776-1.004v-.378H5.193zm1.482 0v1.76h.423v-1.76h-.423zm1.674.347c.392-.015.627.467.446.791-.151.346-.686.365-.874.044-.224-.334.004-.85.428-.835z" fill="#a02c2c"/></svg>