<svg xmlns="http://www.w3.org/2000/svg" width="48" height="48" viewBox="0 0 12.7 12.7"><path d="M1.215.856L.142 3.66h6.04V.856H1.215zm5.174 0V3.66h6.115L11.402.856H6.39zM.194 3.893v6.31c0 .636.246 1.181.737 1.633.491.453 1.083.679 1.775.679H9.96c.692 0 1.283-.226 1.775-.679.49-.452.736-.997.736-1.634v-6.31h-1.116v6.31c0 .354-.136.656-.41.908a1.403 1.403 0 0 1-.985.377H2.706c-.384 0-.712-.126-.986-.377a1.19 1.19 0 0 1-.41-.908v-6.31H.195zM7.98 7.846v.397h.42v-.397h-.422zm-2.752.546a.843.843 0 0 0-.201.01.87.87 0 0 0-.74.747c-.07.388.106.831.478.999.305.144.716.119.947-.15.06-.078.021.092.032.136-.028.09.076.05.13.059h.257v-1.76h-.387v.236a.665.665 0 0 0-.516-.277zm2.237 0a.417.417 0 0 0-.413.213c-.007-.053.015-.135-.01-.171h-.377v1.759h.422c.004-.358-.007-.717.006-1.074.007-.193.186-.332.372-.32v-.407zm.515.042c-.002.583.003 1.166-.003 1.75.05.182-.215.127-.172.276v.32a.567.567 0 0 0 .583-.504c.025-.613.014-1.228.014-1.842H7.98zm-2.766.346a.51.51 0 0 1 .514.487c.028.25-.126.534-.392.57-.253.056-.552-.082-.615-.346-.084-.276.06-.629.358-.695a.548.548 0 0 1 .135-.016z" fill="#a02c2c"/></svg>