<svg xmlns="http://www.w3.org/2000/svg" width="48" height="48" viewBox="0 0 12.7 12.7"><path d="M1.215.856L.142 3.66h6.04V.856H1.215zm5.174 0V3.66h6.115L11.402.856H6.39zM.194 3.893v6.31c0 .636.246 1.181.737 1.633.491.453 1.083.679 1.775.679H9.96c.692 0 1.283-.226 1.775-.679.49-.452.736-.997.736-1.634v-6.31h-1.116v6.31c0 .354-.136.656-.41.908a1.403 1.403 0 0 1-.985.377H2.706c-.384 0-.712-.126-.986-.377a1.19 1.19 0 0 1-.41-.908v-6.31H.195zM5.736 7.85v.46h.488v-.46h-.488zm2.007.631a.87.87 0 0 0-.678.287c-.009-.075.018-.186-.014-.238h-.434v2.713h.488v-.87c.446.432 1.274.25 1.524-.312.255-.506.095-1.23-.444-1.48a1.052 1.052 0 0 0-.442-.1zM4.02 8.53v.436h.793l-.896 1.16v.438h1.55v-.437h-.966l.896-1.16V8.53H4.02zm1.715 0v2.034h.488V8.53h-.488zm1.935.4c.367-.014.643.368.578.715-.032.34-.394.6-.725.5-.406-.088-.573-.62-.349-.95a.584.584 0 0 1 .496-.265z" fill="#a02c2c"/></svg>