<svg xmlns="http://www.w3.org/2000/svg" width="48" height="48" viewBox="0 0 12.7 12.7"><path d="M1.215.856L.142 3.66h6.04V.856H1.215zm5.174 0V3.66h6.115L11.402.856H6.39zM.194 3.893v6.31c0 .636.246 1.181.737 1.633.491.453 1.083.679 1.775.679H9.96c.692 0 1.283-.226 1.775-.679.49-.452.736-.997.736-1.634v-6.31h-1.116v6.31c0 .354-.136.656-.41.908a1.403 1.403 0 0 1-.985.377H2.706c-.384 0-.712-.126-.986-.377a1.19 1.19 0 0 1-.41-.908v-6.31H.195zM2.422 7.86v.587c-.113 0-.26-.036-.207.129.023.093-.065.297.092.255.166-.054.105.118.115.22v1.155h.422V8.832c.092-.023.296.066.254-.092-.027-.089.06-.291-.055-.292-.129.013-.247.016-.2-.147v-.44h-.421zm3.715.528a.253.253 0 0 0-.13.042c-.213.157-.181.195-.248.017h-.35v1.759h.422c.007-.373-.015-.746.013-1.117-.01-.304.449-.165.365-.442.01-.116.02-.252-.072-.259zm-1.912.02c-.393-.046-.828.201-.937.596-.175.48.08 1.105.605 1.216.29.077.626.002.814-.243.012.1-.055.281.11.229.082-.03.285.063.277-.055V8.448h-.387c0 .147.028.325-.116.11a.718.718 0 0 0-.366-.149zm3.982 0c-.387-.045-.812.195-.92.586-.175.489.087 1.14.632 1.235.276.063.587-.022.759-.255a.51.51 0 0 1-.686.539c-.167-.095-.3-.208-.505-.164-.166-.019-.315-.007-.123.182.369.518 1.326.52 1.62-.077.156-.395.078-.83.097-1.244v-.763h-.403c0 .136.03.315-.109.106a.725.725 0 0 0-.362-.145zm1.183.04v.377h.685l-.774 1.003v.378h1.34v-.378h-.835l.774-1.003v-.378H9.39zm-5.214.345c.419-.024.65.5.443.832-.207.387-.895.273-.947-.172-.069-.32.158-.675.504-.66zm3.975 0c.386-.025.609.428.472.756-.133.433-.86.405-.941-.049-.092-.319.097-.726.469-.707zM6.483 9.8v.407h.423V9.8h-.423z" fill="#a02c2c"/></svg>