<svg xmlns="http://www.w3.org/2000/svg" width="48" height="48" viewBox="0 0 12.7 12.7"><path d="M1.215.856L.142 3.66h6.04V.856H1.215zm5.174 0V3.66h6.115L11.402.856H6.39zM.194 3.893v6.31c0 .636.246 1.181.737 1.633.491.453 1.083.679 1.775.679H9.96c.692 0 1.283-.226 1.775-.679.49-.452.736-.997.736-1.634v-6.31h-1.116v6.31c0 .354-.136.656-.41.908a1.403 1.403 0 0 1-.985.377H2.706c-.384 0-.712-.126-.986-.377a1.19 1.19 0 0 1-.41-.908v-6.31H.195zm10.167 4.011c-.03 0-.06.001-.09.005-.4.006-.712.425-.67.85h.383c-.094-.546.734-.617.646-.04-.087.353-.405.546-.622.802-.126.144-.291.27-.392.425v.35h1.398c-.014-.125.029-.311-.02-.397h-.831c.287-.318.679-.56.828-.994.153-.46-.19-.988-.63-1zm-8.184.03a.23.23 0 0 0-.06.015c-.129 0-.304-.048-.244.158v.43c-.162-.04-.229.024-.19.203-.045.177.045.21.19.18v1.375h.39V8.92c.127.001.294.045.233-.157.02-.158.011-.283-.166-.227-.14.016-.035-.236-.068-.338.002-.12.032-.271-.085-.263zm4.203.015v2.346c.11-.016.282.033.357-.022-.07-.448.316.218.562.063.547.033.902-.638.765-1.17-.091-.617-.891-.943-1.295-.468v-.75H6.38zm-2.832.524a.159.159 0 0 0-.099.022c-.496-.028-.89.506-.82 1.025.012.58.625.989 1.108.753.224-.2.242-.223.263.022.099-.029.306.06.336-.045V8.536c-.111.017-.281-.032-.357.023.062.407-.195-.063-.43-.086zm1.768.012c-.112-.012-.372.24-.333.155.042-.186-.19-.073-.291-.104-.139-.013-.033.238-.066.339v1.42h.39c.01-.385-.025-.775.02-1.157.102-.26.43-.182.327-.53.012-.085-.01-.119-.047-.123zm2.978.051c.025.114-.052.339.041.378h.59l-.713 1.004v.377h1.234c-.025-.113.052-.338-.041-.377h-.728l.714-1.004c-.025-.114.052-.338-.042-.378H8.294zm-1.077.324c.453-.026.643.676.315.972-.278.272-.784.046-.784-.37-.039-.302.175-.616.469-.602zm-3.727.023c.422-.027.622.588.36.908-.251.317-.825.137-.831-.303-.038-.303.175-.62.471-.605zm2.126 1.006v.406h.389V9.89h-.39z" fill="#a02c2c"/></svg>