<?xml version="1.0" encoding="UTF-8" standalone="no"?><svg xmlns:dc="http://purl.org/dc/elements/1.1/" xmlns:cc="http://creativecommons.org/ns#" xmlns:rdf="http://www.w3.org/1999/02/22-rdf-syntax-ns#" xmlns="http://www.w3.org/2000/svg" width="48" height="48"><metadata><rdf:RDF><cc:Work><dc:format>image/svg+xml</dc:format><dc:type rdf:resource="http://purl.org/dc/dcmitype/StillImage"/><dc:title/></cc:Work></rdf:RDF></metadata><path style="line-height:normal;text-indent:0;text-align:start;text-decoration-line:none;text-transform:none;marker:none" d="M29.7-.08c-2.04 0-4.12.08-4.51.1H7a2.94 2.94 0 0 0-.56 0 3.1 3.1 0 0 0-2.44 3V45c0 1.57 1.43 3 3 3h34c1.57 0 3-1.43 3-3V18.82c.02-.8.22-9.93-.34-10.5L34.06.25c-.29-.28-2.3-.34-4.35-.33zM31.2 3l.13 7.5c.01.68.64 1.3 1.31 1.28l7.78-.13c.13.01.26.01.4-.01l.08 3.03.1 4.09V45H7V3.02h18.67l5.53-.01zm-2.57 3.1c-4.13.67-8.87 1.35-12.99 2.04-1.09.53-.85 1.88-.9 2.87v13.16c-2.8-.64-5.87 1.45-5.99 4.42-.2 1.85 1.46 3.47 3.27 3.5 3.23.09 5.68-2.03 5.71-4.72-.03-4.5.01-9 0-13.51.5-.04 8.32-1.47 9-1.56v10.12a4.62 4.62 0 0 0-5.8 3.5c-.47 1.54.24 3.36 1.77 4 3 1.36 7.2-1.4 7.03-4.63-.04-6 .04-12.02 0-18.02-.07-.57-.46-1.2-1.1-1.16zM12.12 35.3c-.65 0-1.05.18-1.44.65v-.52H9.46v5.53h1.33v-2.73c0-.55.05-.91.14-1.14.16-.36.5-.57.94-.57.36 0 .67.13.85.35.16.2.23.53.23 1.05v3.04h1.32v-2.73c0-.62.05-.93.2-1.19.16-.33.5-.52.92-.52.33 0 .61.12.79.34.18.2.25.51.25 1.06v3.04h1.33v-3.2c0-.66-.12-1.2-.36-1.58-.35-.56-1.05-.88-1.88-.88-.78 0-1.33.26-1.78.86-.38-.6-.86-.86-1.62-.86zm9.75 0c-.75 0-1.39.28-1.82.78v-.65h-1.21v7.37h1.33v-2.36c.5.45 1.01.65 1.7.65 1.59 0 2.75-1.24 2.75-2.92 0-1.66-1.15-2.87-2.75-2.87zm6.23 0a2.9 2.9 0 1 0 .08 5.79 2.74 2.74 0 0 0 2.63-1.77h-1.44c-.34.4-.67.55-1.22.55-.79 0-1.37-.42-1.53-1.09h4.28c.04-.19.05-.3.05-.5 0-1.72-1.2-2.98-2.85-2.98zm6.2 0c-1.56 0-2.72 1.22-2.72 2.85 0 1.71 1.14 2.94 2.71 2.94.78 0 1.3-.25 1.82-.86-.05 1.19-.56 1.77-1.55 1.77-.62 0-1-.16-1.38-.6h-1.51c.45 1.11 1.48 1.76 2.84 1.76 1 0 1.79-.35 2.3-1 .4-.51.57-1.2.57-2.25v-4.48H36.1v.7c-.41-.56-1-.83-1.8-.83zm-12.6 1.22c.9 0 1.59.73 1.59 1.68 0 .94-.69 1.67-1.57 1.67-.94 0-1.63-.72-1.63-1.69 0-.94.7-1.66 1.61-1.66zm6.42 0c.82 0 1.36.39 1.53 1.1h-3.07c.21-.71.75-1.1 1.54-1.1zm6.33 0c.95 0 1.6.69 1.6 1.7 0 1-.63 1.65-1.58 1.65-.95 0-1.55-.65-1.55-1.66 0-1.01.6-1.7 1.53-1.7z" fill="#a02c2c"/></svg>