<svg xmlns="http://www.w3.org/2000/svg" width="48" height="48"><path d="M9.113 2.64v1.17h2.684v10.83h1.224V3.809h2.676V2.64H9.113zm8.688 0v12H19v-12h-1.2zm3.99 0v12h1.191V8.76h4.823V7.576h-4.823V3.824h4.823V2.641H21.79zm8.027 0v12h1.192V8.76h4.82V7.576h-4.82V3.824h4.82V2.641h-6.012zM7.061 16.427l-3.272 2.408-2.787 2.049 2.049 2.787 13.836 18.805v4.072h.011v1.305h28.61v-.055h.015v-29.79h-.093v-.003H34.44l-1.096-1.49-4.307-.014 1.108 1.506H16.887V36.63L5.84 21.619l7.03-5.172 16.167.053-21.976-.074zm13.283 5.039h21.722V41.39H20.39l-.045-.063V21.465z" fill="#a02c2c"/></svg>