<svg xmlns="http://www.w3.org/2000/svg" width="48" height="48"><path style="line-height:normal;text-indent:0;text-align:start;text-decoration-line:none;text-transform:none;marker:none" d="M29.705-.084c-2.047.008-4.121.088-4.517.098H7a2.938 2.938 0 0 0-.563 0C5.063.276 3.975 1.612 4 3.012V45c0 1.57 1.43 3 3 3h34c1.57 0 3-1.43 3-3V18.818c.018-.792.215-9.927-.336-10.496L34.054.248c-.284-.275-2.302-.34-4.349-.332zm1.49 3.094l.133 7.504c.012.681.638 1.29 1.317 1.279l7.771-.137c.133.018.268.017.4-.006l.082 3.03.102 4.09v26.227H7V3.021h18.672l5.523-.011zM12.713 14.566c-.755 0-1.361.663-1.361 1.487v5.025c0 .823.606 1.486 1.36 1.486h22.276c.755 0 1.364-.663 1.364-1.486v-5.025c0-.824-.61-1.487-1.364-1.487H12.713zm18.348 2.631a.575.575 0 0 1 .382.219l.975 1.254.975-1.254a.573.573 0 0 1 .806-.102l.115.088a.575.575 0 0 1 .1.809l-1.5 1.93a.564.564 0 0 1-.496.21.566.566 0 0 1-.498-.21l-1.5-1.93a.576.576 0 0 1 .101-.809l.114-.088a.576.576 0 0 1 .426-.117zM11.344 32.564v8h8v-8h-8zm21 0c-2.208 0-4 1.792-4 4s1.792 4 4 4 4-1.792 4-4-1.792-4-4-4zm0 2a2 2 0 1 1-.002 4.002 2 2 0 0 1 .002-4.002zm-14.309.045a.518.518 0 0 1 .375.18.595.595 0 0 1-.033.809l-3.363 3.306a.514.514 0 0 1-.559.332.516.516 0 0 1-.508-.43l-1.638-2.261a.604.604 0 0 1 .101-.809.51.51 0 0 1 .752.094l1.416 1.951 3.067-3.015a.534.534 0 0 1 .39-.157z" color="#000" font-weight="400" font-family="Andale Mono" overflow="visible" fill="#a02c2c"/></svg>