<svg xmlns="http://www.w3.org/2000/svg" width="48" height="48"><path style="line-height:normal;text-indent:0;text-align:start;text-decoration-line:none;text-transform:none;marker:none" d="M29.705-.084c-2.047.008-4.121.088-4.517.098H7a2.938 2.938 0 0 0-.563 0C5.063.276 3.975 1.612 4 3.012V45c0 1.57 1.43 3 3 3h34c1.57 0 3-1.43 3-3V18.818c.018-.792.215-9.927-.336-10.496L34.054.248c-.284-.275-2.302-.34-4.349-.332zm1.49 3.094l.133 7.504c.012.681.638 1.29 1.317 1.279l7.771-.137c.133.018.268.017.4-.006l.082 3.03.102 4.09v26.227H10.486V3.021h15.186l5.523-.011zm-4.97 13.369c-1.494 0-2.937.29-4.33.871-1.386.58-2.602 1.4-3.647 2.459a11.2 11.2 0 0 0-2.414 3.713 11.84 11.84 0 0 0-.846 4.443c0 1.614.278 3.125.834 4.533a10.89 10.89 0 0 0 2.426 3.702 10.88 10.88 0 0 0 3.633 2.433 11.23 11.23 0 0 0 4.344.846c1.26 0 2.5-.222 3.72-.666a11.647 11.647 0 0 0 3.397-1.895l-1.332-2.076c-.739.683-1.629 1.226-2.674 1.627a8.7 8.7 0 0 1-3.137.602 8.967 8.967 0 0 1-3.447-.666 8.47 8.47 0 0 1-2.848-1.909 8.947 8.947 0 0 1-1.93-2.945 9.713 9.713 0 0 1-.66-3.586c0-1.545.342-2.98 1.022-4.302a8.658 8.658 0 0 1 5.313-4.393 9.542 9.542 0 0 1 2.763-.397c1.377 0 2.654.283 3.832.846a7.922 7.922 0 0 1 2.961 2.408 6.54 6.54 0 0 1 1.096 2.06c.24.744.361 1.542.361 2.395 0 1.34-.296 2.443-.885 3.305-.589.854-1.397 1.361-2.425 1.524v-8.875H28.75v1.677a2.937 2.937 0 0 0-1.207-1.422c-.548-.341-1.19-.511-1.928-.511-1.418 0-2.577.534-3.472 1.601-.896 1.067-1.344 2.455-1.344 4.162 0 1.708.444 3.095 1.332 4.162.896 1.06 2.057 1.588 3.484 1.588.739 0 1.38-.167 1.928-.5a2.937 2.937 0 0 0 1.207-1.422v1.973h.486c2.464 0 4.37-.641 5.723-1.922 1.352-1.28 2.03-3.077 2.03-5.39a9.707 9.707 0 0 0-.487-3.075 9.31 9.31 0 0 0-1.406-2.726 10.113 10.113 0 0 0-3.807-3.15c-1.518-.735-3.206-1.102-5.064-1.102zm-.174 8.183c.746 0 1.34.303 1.78.909.447.597.67 1.414.671 2.447 0 1.042-.22 1.87-.66 2.484-.44.607-1.03.909-1.768.909-.746 0-1.34-.302-1.78-.909-.43-.606-.646-1.434-.646-2.484 0-1.033.216-1.85.647-2.447.44-.606 1.026-.908 1.756-.909z" color="#000" font-weight="400" font-family="Andale Mono" overflow="visible" fill="#a02c2c"/></svg>