<svg xmlns="http://www.w3.org/2000/svg" width="48" height="48" viewBox="0 0 12.7 12.7"><path style="marker:none" d="M6.34.07a6.29 6.29 0 0 0-6.29 6.3 6.29 6.29 0 0 0 6.3 6.28 6.29 6.29 0 0 0 6.28-6.29A6.29 6.29 0 0 0 6.34.07zM6.32 1l.01.01a5.4 5.4 0 0 1 5.4 5.4 5.4 5.4 0 0 1-5.4 5.41 5.4 5.4 0 0 1-5.41-5.4A5.4 5.4 0 0 1 6.32 1zM4.24 3.15c-.68 0-1.22 1.07-1.54 1.73.59-.5 1.42-2.21 2.53-.9-.35-.6-.68-.82-.99-.83zm4.22 0c-.3 0-.64.24-1 .83 1.12-1.31 1.95.4 2.53.9-.31-.66-.86-1.74-1.53-1.73zM4.38 4.82c-.35 0-.88.52-.88.52 0 .84.31 2.47.67 2.47.35 0 .64-.67.64-1.5 0-.54.15-1.49-.43-1.49zm3.9 0c-.59 0-.43.95-.43 1.49 0 .83.28 1.5.64 1.5.35 0 .67-1.63.67-2.46 0 0-.53-.53-.89-.53zm-4.08.3a.21.33 0 0 1 .21.33.21.33 0 0 1-.21.33.21.33 0 0 1-.22-.33.21.33 0 0 1 .22-.33zm4.26 0a.21.33 0 0 1 .21.33.21.33 0 0 1-.21.33.21.33 0 0 1-.22-.33.21.33 0 0 1 .22-.32zm-.99 4.86c-.54 0-1.2.08-1.7.2 1.82.3 2.62.1 2.62.1.03-.2-.38-.3-.92-.3z" overflow="visible" fill="#2ca02c"/><path d="M2.9 7.65a.77.79 0 0 0-.77.8.77.79 0 0 0 .76.78.77.79 0 0 0 .77-.79.77.79 0 0 0-.77-.79zm6.87 0a.77.79 0 0 0-.76.8.77.79 0 0 0 .76.78.77.79 0 0 0 .77-.79.77.79 0 0 0-.77-.79z" fill="#ff2a2a" opacity=".75"/></svg>
