<svg xmlns="http://www.w3.org/2000/svg" width="48" height="48" viewBox="0 0 12.7 12.7"><path d="M6.34.07a6.29 6.29 0 0 0-6.29 6.3 6.29 6.29 0 0 0 6.3 6.28 6.29 6.29 0 0 0 6.28-6.29A6.29 6.29 0 0 0 6.34.07zM6.32 1l.01.01a5.4 5.4 0 0 1 5.4 5.4 5.4 5.4 0 0 1-5.4 5.41 5.4 5.4 0 0 1-5.41-5.4A5.4 5.4 0 0 1 6.32 1zm2.02 1.61a.66 1.55 0 0 0-.65 1.55.66 1.55 0 0 0 .65 1.54A.66 1.55 0 0 0 9 4.17a.66 1.55 0 0 0-.66-1.55zm-3.99.03a.66 1.55 0 0 1 .01 0h-.01zm0 0A.66 1.55 0 0 0 3.7 4.2a.66 1.55 0 0 0 .66 1.54A.66 1.55 0 0 0 5 4.2a.66 1.55 0 0 0-.64-1.55zm3.98.41a.2.3 0 0 1 .2.3.2.3 0 0 1-.2.3.2.3 0 0 1-.2-.3.2.3 0 0 1 .2-.3zm-3.99.03a.2.3 0 0 1 .2.3.2.3 0 0 1-.2.3.2.3 0 0 1-.2-.3.2.3 0 0 1 .2-.3zm5.2 4.43c-.02 0-.03 0-.05.02-2 1.94-4.09 2.2-6.29 0-.07-.08-.07.08-.07.2 0 .1 0 .1.07.18 2.1 2.13 4.2 2.1 6.3 0 .06-.08.04-.1.04-.22 0-.08.02-.17 0-.18zm-3.98 2.61v.01c-.06.13-.1.26 0 .4.59.24 1.1.18 1.6 0a.4.4 0 0 0 0-.4c-.5.2-1.02.26-1.6 0z" fill="#2ca02c"/><path d="M6.34 5.27A1.32 1.32 0 0 0 5.02 6.6a1.32 1.32 0 0 0 1.32 1.32A1.32 1.32 0 0 0 7.65 6.6a1.32 1.32 0 0 0-1.31-1.32zm-.4 1.9a.2.15 0 0 1 .2.16.2.15 0 0 1-.2.15.2.15 0 0 1-.2-.15.2.15 0 0 1 .2-.15zm.82 0a.2.15 0 0 1 .2.16.2.15 0 0 1-.2.15.2.15 0 0 1-.2-.15.2.15 0 0 1 .2-.15z" opacity=".75" fill="#d40000"/></svg>
