<svg xmlns="http://www.w3.org/2000/svg" width="48" height="48" viewBox="0 0 12.7 12.7"><path d="M6.34.07a6.29 6.29 0 0 0-6.29 6.3 6.29 6.29 0 0 0 6.3 6.28 6.29 6.29 0 0 0 6.28-6.29A6.29 6.29 0 0 0 6.34.07zM6.32 1l.01.01a5.4 5.4 0 0 1 5.4 5.4 5.4 5.4 0 0 1-5.4 5.41 5.4 5.4 0 0 1-5.41-5.4A5.4 5.4 0 0 1 6.32 1zm2.02 2.54a.66 1.55 0 0 0-.65 1.55.66 1.55 0 0 0 .65 1.54A.66 1.55 0 0 0 9 5.1a.66 1.55 0 0 0-.66-1.55zm-3.98.03a.66 1.55 0 0 0-.66 1.55.66 1.55 0 0 0 .66 1.54A.66 1.55 0 0 0 5 5.12a.66 1.55 0 0 0-.65-1.55zm3.97.41a.2.3 0 0 1 .2.3.2.3 0 0 1-.2.3.2.3 0 0 1-.2-.3.2.3 0 0 1 .2-.3zm-3.99.03a.2.3 0 0 1 .2.3.2.3 0 0 1-.2.3.2.3 0 0 1-.2-.3.2.3 0 0 1 .2-.3zm1.93 3.96c-.44 0-.7.29-.88.53-.18.23-.28.4-.54.4-.1 0-.22-.1-.36-.25-.14-.14-.29-.32-.46-.44-.18-.13-.42-.17-.62.04-.21.2-.46.88-.62 1.58.32-.7.63-1.04.8-1.19.15-.15.18-.1.3-.03.12.08.26.26.41.42.16.16.33.33.55.33.36 0 .58-.3.76-.52.17-.22.3-.4.66-.4.35 0 .48.18.66.4.17.23.39.52.76.52.21 0 .38-.18.51-.34.13-.17.24-.33.34-.4.09-.08.14-.1.28.02.55.7.6.72.92 1.19-.16-.7-.5-1.4-.75-1.58-.23-.17-.45-.17-.61-.04-.17.13-.28.32-.39.46-.1.14-.2.23-.3.23-.27 0-.36-.17-.55-.4-.18-.24-.44-.53-.87-.53z" fill="#2ca02c"/></svg>
