<?xml version="1.0" encoding="UTF-8" standalone="no"?>
<svg
   xmlns:dc="http://purl.org/dc/elements/1.1/"
   xmlns:cc="http://creativecommons.org/ns#"
   xmlns:rdf="http://www.w3.org/1999/02/22-rdf-syntax-ns#"
   xmlns:svg="http://www.w3.org/2000/svg"
   xmlns="http://www.w3.org/2000/svg"
   xmlns:sodipodi="http://sodipodi.sourceforge.net/DTD/sodipodi-0.dtd"
   xmlns:inkscape="http://www.inkscape.org/namespaces/inkscape"
   width="48"
   height="48"
   version="1.1"
   id="svg4"
   sodipodi:docname="text-x-sass.svg"
   inkscape:version="0.92.4 (5da689c313, 2019-01-14)">
  <metadata
     id="metadata10">
    <rdf:RDF>
      <cc:Work
         rdf:about="">
        <dc:format>image/svg+xml</dc:format>
        <dc:type
           rdf:resource="http://purl.org/dc/dcmitype/StillImage" />
        <dc:title></dc:title>
      </cc:Work>
    </rdf:RDF>
  </metadata>
  <defs
     id="defs8" />
  <sodipodi:namedview
     pagecolor="#ffffff"
     bordercolor="#666666"
     borderopacity="1"
     objecttolerance="10"
     gridtolerance="10"
     guidetolerance="10"
     inkscape:pageopacity="0"
     inkscape:pageshadow="2"
     inkscape:window-width="1138"
     inkscape:window-height="480"
     id="namedview6"
     showgrid="false"
     inkscape:zoom="4.9166667"
     inkscape:cx="2.1355932"
     inkscape:cy="24"
     inkscape:window-x="0"
     inkscape:window-y="25"
     inkscape:window-maximized="0"
     inkscape:current-layer="svg4" />
  <path
     d="m 29.705,-0.084 c -2.047,0.008 -4.121,0.088 -4.517,0.098 H 7 a 2.938,2.938 0 0 0 -0.563,0 C 5.064,0.276 3.975,1.612 4,3.012 V 45 c 0,1.57 1.43,3 3,3 h 34 c 1.57,0 3,-1.43 3,-3 V 18.818 C 44.018,18.026 44.215,8.891 43.664,8.322 l -9.61,-8.074 c -0.281,-0.275 -2.302,-0.34 -4.349,-0.332 z m 1.49,3.094 0.133,7.504 c 0.012,0.68 0.638,1.29 1.317,1.279 l 7.771,-0.137 c 0.133,0.018 0.268,0.018 0.4,-0.006 L 40.898,14.68 41,18.77 V 44.996 H 7 V 3.021 h 18.672 z m -2.277,11.062 c -1.513,0.025 -3.147,0.31 -4.752,0.881 -3.057,1.086 -6.365,2.792 -8.744,5.018 -2.83,2.646 -3.282,4.948 -3.096,5.91 0.656,3.396 5.31,5.615 7.223,7.262 v 0.011 c -0.564,0.278 -4.692,2.367 -5.658,4.502 -1.02,2.253 0.16,3.87 0.943,4.088 2.424,0.674 4.911,-0.54 6.248,-2.533 1.29,-1.924 1.182,-4.409 0.621,-5.645 0.773,-0.204 1.675,-0.296 2.82,-0.162 3.233,0.378 3.868,2.398 3.747,3.242 -0.122,0.845 -0.8,1.31 -1.026,1.45 -0.227,0.14 -0.296,0.188 -0.277,0.293 0.027,0.151 0.133,0.146 0.326,0.113 0.266,-0.045 1.697,-0.687 1.758,-2.246 0.078,-1.98 -1.819,-4.195 -5.178,-4.137 -1.383,0.024 -2.254,0.155 -2.883,0.389 A 6.466,6.466 0 0 0 20.848,32.35 c -2.077,-2.216 -5.915,-3.783 -5.752,-6.762 0.059,-1.083 0.435,-3.934 7.377,-7.393 5.686,-2.833 10.238,-2.054 11.025,-0.326 1.124,2.469 -2.432,7.057 -8.338,7.719 -2.25,0.252 -3.436,-0.619 -3.73,-0.943 -0.31,-0.342 -0.357,-0.36 -0.473,-0.295 -0.189,0.104 -0.07,0.408 0,0.587 0.176,0.46 0.901,1.272 2.135,1.676 1.085,0.356 3.725,0.552 6.92,-0.683 3.578,-1.384 6.373,-5.233 5.552,-8.451 -0.573,-2.25 -3.318,-3.462 -6.646,-3.407 z m -8.576,20.086 c 0.268,0.992 0.238,1.917 -0.04,2.754 -0.03,0.093 -0.062,0.185 -0.099,0.276 a 5.137,5.137 0 0 1 -0.97,1.51 c -1.071,1.167 -2.568,1.61 -3.21,1.238 -0.692,-0.402 -0.344,-2.05 0.897,-3.362 1.335,-1.412 3.256,-2.318 3.256,-2.318 L 20.174,34.25 Z"
     id="path2"
     inkscape:connector-curvature="0"
     style="fill:#2ca02c" />
</svg>
