<?xml version="1.0" encoding="UTF-8" standalone="no"?>
<svg
   xmlns:dc="http://purl.org/dc/elements/1.1/"
   xmlns:cc="http://creativecommons.org/ns#"
   xmlns:rdf="http://www.w3.org/1999/02/22-rdf-syntax-ns#"
   xmlns:svg="http://www.w3.org/2000/svg"
   xmlns="http://www.w3.org/2000/svg"
   xmlns:sodipodi="http://sodipodi.sourceforge.net/DTD/sodipodi-0.dtd"
   xmlns:inkscape="http://www.inkscape.org/namespaces/inkscape"
   width="48"
   height="48"
   version="1.1"
   id="svg35"
   sodipodi:docname="x-office-address-book.svg"
   inkscape:version="0.92.4 (5da689c313, 2019-01-14)">
  <metadata
     id="metadata39">
    <rdf:RDF>
      <cc:Work
         rdf:about="">
        <dc:format>image/svg+xml</dc:format>
        <dc:type
           rdf:resource="http://purl.org/dc/dcmitype/StillImage" />
        <dc:title></dc:title>
      </cc:Work>
    </rdf:RDF>
  </metadata>
  <sodipodi:namedview
     pagecolor="#ffffff"
     bordercolor="#666666"
     borderopacity="1"
     objecttolerance="10"
     gridtolerance="10"
     guidetolerance="10"
     inkscape:pageopacity="0"
     inkscape:pageshadow="2"
     inkscape:window-width="1087"
     inkscape:window-height="480"
     id="namedview37"
     showgrid="false"
     inkscape:zoom="4.9166667"
     inkscape:cx="2.1355932"
     inkscape:cy="24"
     inkscape:window-x="0"
     inkscape:window-y="25"
     inkscape:window-maximized="0"
     inkscape:current-layer="svg35" />
  <defs
     id="defs31">
    <linearGradient
       id="a">
      <stop
         offset="0"
         stop-color="#dc85e9"
         id="stop2" />
      <stop
         offset="1"
         stop-color="#f2cbf8"
         id="stop4" />
    </linearGradient>
    <linearGradient
       id="b">
      <stop
         offset="0"
         stop-color="#dc85e9"
         id="stop7" />
      <stop
         offset="1"
         stop-color="#f2cbf8"
         id="stop9" />
    </linearGradient>
    <linearGradient
       id="c">
      <stop
         offset="0"
         stop-color="#fff"
         stop-opacity=".588"
         id="stop12" />
      <stop
         offset="1"
         stop-color="#fff"
         stop-opacity=".863"
         id="stop14" />
    </linearGradient>
    <linearGradient
       id="d">
      <stop
         offset="0"
         stop-color="#b3b3b3"
         id="stop17" />
      <stop
         offset="1"
         stop-color="#e6e6e6"
         id="stop19" />
    </linearGradient>
    <linearGradient
       id="e">
      <stop
         offset="0"
         stop-color="#e694bb"
         id="stop22" />
      <stop
         offset=".262"
         stop-color="#d3819a"
         id="stop24" />
      <stop
         offset=".705"
         stop-color="#b25a64"
         id="stop26" />
      <stop
         offset="1"
         stop-color="#98313d"
         id="stop28" />
    </linearGradient>
  </defs>
  <path
     style="color:#000000;font-weight:400;line-height:normal;font-family:'Andale Mono';text-indent:0;text-align:start;text-decoration:none;text-decoration-line:none;text-transform:none;overflow:visible;fill:#2ca02c;marker:none"
     d="m 29.705,-0.084 c -2.047,0.008 -4.121,0.088 -4.517,0.098 H 7 a 2.938,2.938 0 0 0 -0.563,0 C 5.063,0.276 3.975,1.612 4,3.012 V 45 c 0,1.57 1.43,3 3,3 h 34 c 1.57,0 3,-1.43 3,-3 V 18.818 C 44.018,18.026 44.215,8.891 43.664,8.322 l -9.61,-8.074 c -0.284,-0.275 -2.302,-0.34 -4.349,-0.332 z m 1.49,3.094 0.133,7.504 c 0.012,0.681 0.638,1.29 1.317,1.279 l 7.771,-0.137 c 0.133,0.018 0.268,0.017 0.4,-0.006 L 40.898,14.68 41,18.77 V 44.997 H 10.486 V 3.021 h 15.186 z m -4.97,13.369 c -1.494,0 -2.937,0.29 -4.33,0.871 -1.386,0.58 -2.602,1.4 -3.647,2.459 a 11.2,11.2 0 0 0 -2.414,3.713 11.84,11.84 0 0 0 -0.846,4.443 c 0,1.614 0.278,3.125 0.834,4.533 a 10.89,10.89 0 0 0 2.426,3.702 10.88,10.88 0 0 0 3.633,2.433 c 1.36,0.564 2.809,0.846 4.344,0.846 1.26,0 2.5,-0.222 3.72,-0.666 a 11.647,11.647 0 0 0 3.397,-1.895 L 32.01,34.742 c -0.739,0.683 -1.629,1.226 -2.674,1.627 a 8.7,8.7 0 0 1 -3.137,0.602 8.967,8.967 0 0 1 -3.447,-0.666 8.47,8.47 0 0 1 -2.848,-1.909 8.947,8.947 0 0 1 -1.93,-2.945 9.713,9.713 0 0 1 -0.66,-3.586 c 0,-1.545 0.342,-2.98 1.022,-4.302 a 8.658,8.658 0 0 1 5.313,-4.393 9.542,9.542 0 0 1 2.763,-0.397 c 1.377,0 2.654,0.283 3.832,0.846 a 7.922,7.922 0 0 1 2.961,2.408 6.54,6.54 0 0 1 1.096,2.06 c 0.24,0.744 0.361,1.542 0.361,2.395 0,1.34 -0.296,2.443 -0.885,3.305 -0.589,0.854 -1.397,1.361 -2.425,1.524 V 22.436 H 28.75 v 1.677 a 2.937,2.937 0 0 0 -1.207,-1.422 c -0.548,-0.341 -1.19,-0.511 -1.928,-0.511 -1.418,0 -2.577,0.534 -3.472,1.601 -0.896,1.067 -1.344,2.455 -1.344,4.162 0,1.708 0.444,3.095 1.332,4.162 0.896,1.06 2.057,1.588 3.484,1.588 0.739,0 1.38,-0.167 1.928,-0.5 a 2.937,2.937 0 0 0 1.207,-1.422 v 1.973 h 0.486 c 2.464,0 4.37,-0.641 5.723,-1.922 1.352,-1.28 2.03,-3.077 2.03,-5.39 0,-1.076 -0.164,-2.101 -0.487,-3.075 a 9.31,9.31 0 0 0 -1.406,-2.726 10.113,10.113 0 0 0 -3.807,-3.15 c -1.518,-0.735 -3.206,-1.102 -5.064,-1.102 z m -0.174,8.183 c 0.746,0 1.34,0.303 1.78,0.909 0.447,0.597 0.67,1.414 0.671,2.447 0,1.042 -0.22,1.87 -0.66,2.484 -0.44,0.607 -1.03,0.909 -1.768,0.909 -0.746,0 -1.34,-0.302 -1.78,-0.909 -0.43,-0.606 -0.646,-1.434 -0.646,-2.484 0,-1.033 0.216,-1.85 0.647,-2.447 0.44,-0.606 1.026,-0.908 1.756,-0.909 z"
     font-weight="400"
     overflow="visible"
     id="path33"
     inkscape:connector-curvature="0" />
</svg>
