<?xml version="1.0" encoding="UTF-8" standalone="no"?>
<!-- Created with Inkscape (http://www.inkscape.org/) -->

<svg
   xmlns:dc="http://purl.org/dc/elements/1.1/"
   xmlns:cc="http://creativecommons.org/ns#"
   xmlns:rdf="http://www.w3.org/1999/02/22-rdf-syntax-ns#"
   xmlns:svg="http://www.w3.org/2000/svg"
   xmlns="http://www.w3.org/2000/svg"
   xmlns:sodipodi="http://sodipodi.sourceforge.net/DTD/sodipodi-0.dtd"
   xmlns:inkscape="http://www.inkscape.org/namespaces/inkscape"
   width="48"
   height="48"
   viewBox="0 0 12.7 12.7"
   version="1.1"
   id="svg926"
   inkscape:version="0.92.3 (2405546, 2018-03-11)"
   sodipodi:docname="application-x-jar.svg">
  <defs
     id="defs920" />
  <sodipodi:namedview
     id="base"
     pagecolor="#ffffff"
     bordercolor="#666666"
     borderopacity="1.0"
     inkscape:pageopacity="0.0"
     inkscape:pageshadow="2"
     inkscape:zoom="7.2920387"
     inkscape:cx="10.323632"
     inkscape:cy="24"
     inkscape:document-units="mm"
     inkscape:current-layer="layer1"
     showgrid="false"
     units="px"
     inkscape:window-width="1366"
     inkscape:window-height="690"
     inkscape:window-x="0"
     inkscape:window-y="28"
     inkscape:window-maximized="1"
     showguides="true"
     inkscape:guide-bbox="true"
     inkscape:snap-global="false" />
  <metadata
     id="metadata923">
    <rdf:RDF>
      <cc:Work
         rdf:about="">
        <dc:format>image/svg+xml</dc:format>
        <dc:type
           rdf:resource="http://purl.org/dc/dcmitype/StillImage" />
        <dc:title></dc:title>
      </cc:Work>
    </rdf:RDF>
  </metadata>
  <g
     inkscape:label="Capa 1"
     inkscape:groupmode="layer"
     id="layer1"
     transform="translate(0,-284.29998)">
    <path
       style="opacity:1;fill:#1a1a1a;fill-opacity:1;stroke:none;stroke-width:1.13564169"
       d="M 4.5917969 3.234375 L 0.53515625 13.837891 L 23.365234 13.837891 L 23.365234 3.234375 L 4.5917969 3.234375 z M 24.146484 3.234375 L 24.146484 13.837891 L 47.259766 13.837891 L 43.095703 3.234375 L 24.146484 3.234375 z M 0.734375 14.712891 L 0.734375 38.560547 C 0.734375 40.967577 1.6633574 43.026545 3.5195312 44.736328 C 5.3762887 46.445922 7.6123767 47.300781 10.226562 47.300781 L 37.644531 47.300781 C 40.25872 47.300781 42.494235 46.445922 44.351562 44.736328 C 46.208203 43.026545 47.134766 40.967652 47.134766 38.560547 L 47.134766 14.712891 L 42.917969 14.712891 L 42.917969 38.560547 L 42.916016 38.560547 C 42.916016 39.895363 42.401636 41.039003 41.369141 41.990234 C 40.336653 42.940937 39.095098 43.414062 37.644531 43.414062 L 10.226562 43.414062 C 8.7764598 43.414062 7.534675 42.940937 6.5019531 41.990234 C 5.469458 41.039078 4.953125 39.895363 4.953125 38.560547 L 4.953125 14.712891 L 0.734375 14.712891 z M 17.316406 29.792969 L 17.316406 31.292969 L 18.912109 31.292969 L 18.912109 29.792969 L 17.316406 29.792969 z M 31.162109 31.855469 C 30.529139 31.782524 29.911015 32.099955 29.603516 32.660156 C 29.575585 32.459463 29.656504 32.148273 29.564453 32.011719 L 28.138672 32.011719 L 28.138672 38.660156 L 29.734375 38.660156 C 29.747188 37.307463 29.707103 35.952857 29.755859 34.601562 C 29.78156 33.873852 30.457499 33.348282 31.162109 33.392578 L 31.162109 31.855469 z M 23.537109 31.857422 C 23.282048 31.839421 23.024916 31.851681 22.775391 31.894531 C 21.337491 32.060453 20.158716 33.293616 19.978516 34.716797 C 19.714187 36.183405 20.379233 37.85821 21.783203 38.492188 C 22.939503 39.035948 24.491334 38.941189 25.365234 37.925781 C 25.587603 37.628332 25.443586 38.270622 25.484375 38.439453 C 25.380653 38.780744 25.770712 38.628408 25.976562 38.660156 L 26.949219 38.660156 L 26.949219 32.011719 L 25.484375 32.011719 L 25.484375 32.900391 C 25.044643 32.245134 24.302295 31.911424 23.537109 31.857422 z M 17.316406 32.011719 C 17.31051 34.215901 17.328184 36.421082 17.306641 38.625 C 17.49124 39.313857 16.49428 39.109016 16.65625 39.673828 L 16.65625 40.880859 C 17.74505 40.933017 18.769575 40.072146 18.859375 38.974609 C 18.953693 36.656625 18.912109 34.332197 18.912109 32.011719 L 17.316406 32.011719 z M 23.480469 33.320312 C 24.500469 33.271557 25.393035 34.155772 25.427734 35.162109 C 25.532544 36.106651 24.949339 37.179687 23.943359 37.3125 C 22.987599 37.528311 21.860341 37.007145 21.619141 36.009766 C 21.30448 34.965558 21.844026 33.632425 22.972656 33.380859 C 23.138517 33.338907 23.30952 33.320312 23.480469 33.320312 z "
       transform="matrix(0.26458333,0,0,0.26458333,0,284.29998)"
       id="path828" />
  </g>
</svg>
