<?xml version="1.0" encoding="UTF-8" standalone="no"?>
<!-- Created with Inkscape (http://www.inkscape.org/) -->

<svg
   xmlns:dc="http://purl.org/dc/elements/1.1/"
   xmlns:cc="http://creativecommons.org/ns#"
   xmlns:rdf="http://www.w3.org/1999/02/22-rdf-syntax-ns#"
   xmlns:svg="http://www.w3.org/2000/svg"
   xmlns="http://www.w3.org/2000/svg"
   xmlns:sodipodi="http://sodipodi.sourceforge.net/DTD/sodipodi-0.dtd"
   xmlns:inkscape="http://www.inkscape.org/namespaces/inkscape"
   width="48"
   height="48"
   viewBox="0 0 12.7 12.7"
   version="1.1"
   id="svg926"
   inkscape:version="0.92.3 (2405546, 2018-03-11)"
   sodipodi:docname="application-x-cpio.svg">
  <defs
     id="defs920" />
  <sodipodi:namedview
     id="base"
     pagecolor="#ffffff"
     bordercolor="#666666"
     borderopacity="1.0"
     inkscape:pageopacity="0.0"
     inkscape:pageshadow="2"
     inkscape:zoom="7.2920387"
     inkscape:cx="10.323632"
     inkscape:cy="24"
     inkscape:document-units="mm"
     inkscape:current-layer="layer1"
     showgrid="false"
     units="px"
     inkscape:window-width="1366"
     inkscape:window-height="690"
     inkscape:window-x="0"
     inkscape:window-y="28"
     inkscape:window-maximized="1"
     showguides="true"
     inkscape:guide-bbox="true"
     inkscape:snap-global="false" />
  <metadata
     id="metadata923">
    <rdf:RDF>
      <cc:Work
         rdf:about="">
        <dc:format>image/svg+xml</dc:format>
        <dc:type
           rdf:resource="http://purl.org/dc/dcmitype/StillImage" />
        <dc:title></dc:title>
      </cc:Work>
    </rdf:RDF>
  </metadata>
  <g
     inkscape:label="Capa 1"
     inkscape:groupmode="layer"
     id="layer1"
     transform="translate(0,-284.29998)">
    <path
       style="opacity:1;fill:#1a1a1a;fill-opacity:1;stroke:none;stroke-width:1.13564169"
       d="M 4.5917969 3.234375 L 0.53515625 13.837891 L 23.365234 13.837891 L 23.365234 3.234375 L 4.5917969 3.234375 z M 24.146484 3.234375 L 24.146484 13.837891 L 47.259766 13.837891 L 43.095703 3.234375 L 24.146484 3.234375 z M 0.734375 14.712891 L 0.734375 38.560547 C 0.734375 40.967577 1.6633574 43.026545 3.5195312 44.736328 C 5.3762887 46.445922 7.6123767 47.300781 10.226562 47.300781 L 37.644531 47.300781 C 40.25872 47.300781 42.494235 46.445922 44.351562 44.736328 C 46.208203 43.026545 47.134766 40.967652 47.134766 38.560547 L 47.134766 14.712891 L 42.917969 14.712891 L 42.917969 38.560547 L 42.916016 38.560547 C 42.916016 39.895363 42.401636 41.039003 41.369141 41.990234 C 40.336653 42.940937 39.095098 43.414062 37.644531 43.414062 L 10.226562 43.414062 C 8.7764598 43.414062 7.534675 42.940937 6.5019531 41.990234 C 5.469458 41.039078 4.953125 39.895363 4.953125 38.560547 L 4.953125 14.712891 L 0.734375 14.712891 z M 27.115234 29.794922 L 27.115234 31.294922 L 28.710938 31.294922 L 28.710938 29.794922 L 27.115234 29.794922 z M 14.722656 31.859375 C 12.754656 31.859375 11.21875 33.381872 11.21875 35.337891 C 11.21875 37.269872 12.803484 38.818359 14.771484 38.818359 C 16.319484 38.818359 17.518313 37.966516 18.070312 36.478516 L 16.271484 36.478516 C 15.875484 37.090535 15.417813 37.355469 14.757812 37.355469 C 13.653812 37.355469 12.826172 36.490191 12.826172 35.326172 C 12.826172 34.162191 13.618656 33.322266 14.722656 33.322266 C 15.442656 33.322266 15.947484 33.622469 16.271484 34.234375 L 18.070312 34.234375 C 17.842313 33.562375 17.625922 33.214903 17.169922 32.794922 C 16.521922 32.194922 15.646656 31.859375 14.722656 31.859375 z M 22.84375 31.859375 C 21.94375 31.859375 21.174203 32.194922 20.658203 32.794922 L 20.658203 32.015625 L 19.195312 32.015625 L 19.195312 40.882812 L 20.791016 40.882812 L 20.791016 38.039062 C 21.391016 38.579081 22.014078 38.818359 22.830078 38.818359 C 24.750078 38.818359 26.154297 37.330453 26.154297 35.314453 C 26.154297 33.310434 24.76375 31.859375 22.84375 31.859375 z M 33.226562 31.859375 C 31.294562 31.859375 29.710938 33.429872 29.710938 35.337891 C 29.710938 37.257891 31.294281 38.818359 33.238281 38.818359 C 35.170281 38.818359 36.779297 37.258719 36.779297 35.386719 C 36.779297 33.4067 35.230562 31.859375 33.226562 31.859375 z M 27.115234 32.015625 L 27.115234 38.662109 L 28.710938 38.662109 L 28.710938 32.015625 L 27.115234 32.015625 z M 22.638672 33.322266 C 23.718672 33.322266 24.546875 34.199562 24.546875 35.351562 C 24.546875 36.479563 23.718109 37.355469 22.662109 37.355469 C 21.534109 37.355469 20.695312 36.490191 20.695312 35.326172 C 20.695312 34.186191 21.534672 33.322266 22.638672 33.322266 z M 33.238281 33.322266 C 34.306281 33.322266 35.169922 34.233891 35.169922 35.337891 C 35.169922 36.453872 34.306 37.355469 33.25 37.355469 C 32.17 37.355469 31.318359 36.454434 31.318359 35.314453 C 31.318359 34.222434 32.194281 33.322266 33.238281 33.322266 z "
       transform="matrix(0.26458333,0,0,0.26458333,0,284.29998)"
       id="path828" />
  </g>
</svg>
