<?xml version="1.0" encoding="UTF-8" standalone="no"?>
<!-- Created with Inkscape (http://www.inkscape.org/) -->

<svg
   xmlns:dc="http://purl.org/dc/elements/1.1/"
   xmlns:cc="http://creativecommons.org/ns#"
   xmlns:rdf="http://www.w3.org/1999/02/22-rdf-syntax-ns#"
   xmlns:svg="http://www.w3.org/2000/svg"
   xmlns="http://www.w3.org/2000/svg"
   xmlns:sodipodi="http://sodipodi.sourceforge.net/DTD/sodipodi-0.dtd"
   xmlns:inkscape="http://www.inkscape.org/namespaces/inkscape"
   width="48"
   height="48"
   viewBox="0 0 12.7 12.7"
   version="1.1"
   id="svg926"
   inkscape:version="0.92.3 (2405546, 2018-03-11)"
   sodipodi:docname="application-x-bzip-compressed-tar.svg">
  <defs
     id="defs920" />
  <sodipodi:namedview
     id="base"
     pagecolor="#ffffff"
     bordercolor="#666666"
     borderopacity="1.0"
     inkscape:pageopacity="0.0"
     inkscape:pageshadow="2"
     inkscape:zoom="7.2920387"
     inkscape:cx="10.323632"
     inkscape:cy="22.118722"
     inkscape:document-units="mm"
     inkscape:current-layer="layer1"
     showgrid="false"
     units="px"
     inkscape:window-width="1366"
     inkscape:window-height="690"
     inkscape:window-x="0"
     inkscape:window-y="28"
     inkscape:window-maximized="1"
     showguides="true"
     inkscape:guide-bbox="true"
     inkscape:snap-global="false" />
  <metadata
     id="metadata923">
    <rdf:RDF>
      <cc:Work
         rdf:about="">
        <dc:format>image/svg+xml</dc:format>
        <dc:type
           rdf:resource="http://purl.org/dc/dcmitype/StillImage" />
        <dc:title></dc:title>
      </cc:Work>
    </rdf:RDF>
  </metadata>
  <g
     inkscape:label="Capa 1"
     inkscape:groupmode="layer"
     id="layer1"
     transform="translate(0,-284.29998)">
    <path
       style="opacity:1;fill:#1a1a1a;fill-opacity:1;stroke:none;stroke-width:1.13564169"
       d="M 4.5917969 3.234375 L 0.53515625 13.837891 L 23.365234 13.837891 L 23.365234 3.234375 L 4.5917969 3.234375 z M 24.146484 3.234375 L 24.146484 13.837891 L 47.259766 13.837891 L 43.095703 3.234375 L 24.146484 3.234375 z M 0.734375 14.712891 L 0.734375 38.560547 C 0.734375 40.967577 1.6633574 43.026545 3.5195312 44.736328 C 5.3762887 46.445922 7.6123767 47.300781 10.226562 47.300781 L 37.644531 47.300781 C 40.25872 47.300781 42.494235 46.445922 44.351562 44.736328 C 46.208203 43.026545 47.134766 40.967652 47.134766 38.560547 L 47.134766 14.712891 L 42.917969 14.712891 L 42.917969 38.560547 L 42.916016 38.560547 C 42.916016 39.895363 42.401636 41.039003 41.369141 41.990234 C 40.336653 42.940937 39.095098 43.414062 37.644531 43.414062 L 10.226562 43.414062 C 8.7764598 43.414062 7.534675 42.940937 6.5019531 41.990234 C 5.469458 41.039078 4.953125 39.895363 4.953125 38.560547 L 4.953125 14.712891 L 0.734375 14.712891 z M 39.158203 29.875 C 39.047072 29.871945 38.934313 29.877647 38.820312 29.892578 C 37.309785 29.915255 36.129367 31.49801 36.287109 33.103516 L 37.736328 33.103516 C 37.37798 31.042615 40.507959 30.772616 40.177734 32.957031 C 39.846156 34.287765 38.643976 35.016476 37.824219 35.984375 C 37.349041 36.529043 36.723915 37.002795 36.34375 37.591797 L 36.34375 38.912109 L 41.628906 38.912109 C 41.574405 38.442843 41.737188 37.738283 41.550781 37.412109 L 38.410156 37.412109 C 39.496846 36.212298 40.977107 35.29494 41.539062 33.65625 C 42.119297 31.918045 40.825177 29.920828 39.158203 29.875 z M 8.2265625 29.990234 C 8.1633533 29.994754 8.0896347 30.011892 8.0019531 30.042969 C 7.5148979 30.04637 6.8536655 29.863138 7.0800781 30.640625 L 7.0800781 32.263672 C 6.4662674 32.113247 6.2147996 32.356491 6.3613281 33.03125 C 6.1920242 33.703212 6.5300832 33.823543 7.0800781 33.714844 L 7.0800781 38.912109 L 8.5507812 38.912109 L 8.5507812 33.714844 C 9.0339481 33.718623 9.6634985 33.885289 9.4355469 33.119141 C 9.5115305 32.524243 9.4764243 32.049146 8.8066406 32.263672 C 8.2750085 32.321877 8.6739901 31.369547 8.5507812 30.984375 C 8.5584206 30.527501 8.6690268 29.958597 8.2265625 29.990234 z M 24.113281 30.042969 L 24.113281 38.912109 C 24.531454 38.849747 25.177721 39.03329 25.462891 38.826172 C 25.201068 37.132679 26.655151 39.650268 27.585938 39.066406 C 29.654178 39.188107 30.994659 36.654017 30.476562 34.640625 C 30.133612 32.311113 27.109619 31.08048 25.583984 32.875 L 25.583984 30.042969 L 24.113281 30.042969 z M 13.410156 32.025391 C 13.282962 32.013265 13.157155 32.035852 13.037109 32.107422 C 11.161071 32.002729 9.6743151 34.019272 9.9335938 35.980469 C 9.9813065 38.171499 12.298716 39.718808 14.125 38.828125 C 14.969038 38.071955 15.039533 37.9845 15.117188 38.912109 C 15.490756 38.800991 16.275047 39.135195 16.386719 38.740234 L 16.386719 32.263672 C 15.968547 32.326412 15.324232 32.142491 15.039062 32.349609 C 15.27417 33.889091 14.300514 32.110273 13.410156 32.025391 z M 20.09375 32.070312 C 19.669445 32.022655 18.686705 32.975544 18.832031 32.65625 C 18.993746 31.952124 18.112485 32.379968 17.732422 32.263672 C 17.209295 32.21227 17.6082 33.160934 17.484375 33.542969 L 17.484375 38.912109 L 18.955078 38.912109 C 18.995867 37.455631 18.864378 35.981116 19.035156 34.537109 C 19.418795 33.551598 20.655317 33.850545 20.269531 32.535156 C 20.314631 32.212763 20.235185 32.086198 20.09375 32.070312 z M 31.345703 32.263672 C 31.440414 32.693744 31.150747 33.541775 31.503906 33.691406 L 33.734375 33.691406 C 32.8351 34.955394 31.936384 36.22035 31.037109 37.484375 L 31.037109 38.912109 L 35.703125 38.912109 C 35.608402 38.482075 35.898062 37.633969 35.544922 37.484375 L 32.794922 37.484375 C 33.694197 36.22035 34.592912 34.955394 35.492188 33.691406 C 35.397476 33.261334 35.689097 32.413266 35.335938 32.263672 L 31.345703 32.263672 z M 27.275391 33.488281 C 28.989542 33.387746 29.708386 36.040471 28.46875 37.160156 C 27.414958 38.189964 25.502893 37.333095 25.503906 35.761719 C 25.357113 34.621624 26.167513 33.434083 27.275391 33.488281 z M 13.191406 33.572266 C 14.787159 33.472864 15.542767 35.797292 14.552734 37.003906 C 13.601309 38.201676 11.432914 37.522242 11.410156 35.861328 C 11.265204 34.714128 12.072666 33.513645 13.191406 33.572266 z M 21.224609 37.375 L 21.224609 38.912109 L 22.695312 38.912109 L 22.695312 37.375 L 21.224609 37.375 z "
       transform="matrix(0.26458333,0,0,0.26458333,0,284.29998)"
       id="path828" />
  </g>
</svg>
