<?xml version="1.0" encoding="UTF-8" standalone="no"?>
<!-- Created with Inkscape (http://www.inkscape.org/) -->

<svg
   xmlns:dc="http://purl.org/dc/elements/1.1/"
   xmlns:cc="http://creativecommons.org/ns#"
   xmlns:rdf="http://www.w3.org/1999/02/22-rdf-syntax-ns#"
   xmlns:svg="http://www.w3.org/2000/svg"
   xmlns="http://www.w3.org/2000/svg"
   xmlns:xlink="http://www.w3.org/1999/xlink"
   xmlns:sodipodi="http://sodipodi.sourceforge.net/DTD/sodipodi-0.dtd"
   xmlns:inkscape="http://www.inkscape.org/namespaces/inkscape"
   version="1.1"
   width="48"
   height="48"
   id="svg21744"
   sodipodi:docname="gnome-mime-application-x-font-bdf.svg"
   inkscape:version="0.92.3 (2405546, 2018-03-11)">
  <sodipodi:namedview
     pagecolor="#ffffff"
     bordercolor="#666666"
     borderopacity="1"
     objecttolerance="10"
     gridtolerance="10"
     guidetolerance="10"
     inkscape:pageopacity="0"
     inkscape:pageshadow="2"
     inkscape:window-width="1366"
     inkscape:window-height="719"
     id="namedview44"
     showgrid="false"
     inkscape:zoom="3.9627443"
     inkscape:cx="24"
     inkscape:cy="24"
     inkscape:window-x="0"
     inkscape:window-y="25"
     inkscape:window-maximized="1"
     inkscape:current-layer="svg21744"
     inkscape:snap-global="false" />
  <defs
     id="defs21746">
    <linearGradient
       x1="525.4375"
       y1="836.1875"
       x2="516.65625"
       y2="828.5"
       id="linearGradient14113"
       xlink:href="#linearGradient14494-2-7"
       gradientUnits="userSpaceOnUse"
       gradientTransform="translate(-125.5,-1702.64)" />
    <linearGradient
       id="linearGradient14494-2-7">
      <stop
         id="stop14496-9-3"
         style="stop-color:#dc85e9;stop-opacity:1"
         offset="0" />
      <stop
         id="stop14498-9-7"
         style="stop-color:#f2cbf8;stop-opacity:1"
         offset="1" />
    </linearGradient>
    <linearGradient
       x1="520.58502"
       y1="735.05206"
       x2="516.15179"
       y2="720.86298"
       id="linearGradient14115"
       xlink:href="#linearGradient14494-5"
       gradientUnits="userSpaceOnUse" />
    <linearGradient
       id="linearGradient14494-5">
      <stop
         id="stop14496-5"
         style="stop-color:#dc85e9;stop-opacity:1"
         offset="0" />
      <stop
         id="stop14498-1"
         style="stop-color:#f2cbf8;stop-opacity:1"
         offset="1" />
    </linearGradient>
    <linearGradient
       x1="525.4375"
       y1="836.1875"
       x2="516.65625"
       y2="828.5"
       id="linearGradient54948"
       xlink:href="#linearGradient14494-2-7"
       gradientUnits="userSpaceOnUse"
       gradientTransform="translate(-462.50049,-802.00385)" />
    <linearGradient
       x1="520.58502"
       y1="735.05206"
       x2="516.15179"
       y2="720.86298"
       id="linearGradient14109"
       xlink:href="#linearGradient14494-5"
       gradientUnits="userSpaceOnUse"
       gradientTransform="matrix(0.512535,0,0,0.615385,-202.35949,-422.92385)" />
    <linearGradient
       x1="525.4375"
       y1="836.1875"
       x2="516.65625"
       y2="828.5"
       id="linearGradient54952"
       xlink:href="#linearGradient14494-2-7"
       gradientUnits="userSpaceOnUse"
       gradientTransform="translate(-462.50049,-797.50385)" />
    <linearGradient
       x1="209.0625"
       y1="-765.46082"
       x2="209.0625"
       y2="-781.62268"
       id="linearGradient44039"
       xlink:href="#linearGradient15606-1"
       gradientUnits="userSpaceOnUse"
       gradientTransform="matrix(1.5,0,0,1.5,-364.99949,1176.9562)" />
    <linearGradient
       id="linearGradient15606-1">
      <stop
         id="stop15608-0"
         style="stop-color:#ffffff;stop-opacity:0.58823502"
         offset="0" />
      <stop
         id="stop15610-5"
         style="stop-color:#ffffff;stop-opacity:0.86274499"
         offset="1" />
    </linearGradient>
    <linearGradient
       x1="294.3429"
       y1="256.58133"
       x2="294.41818"
       y2="243.13852"
       id="linearGradient44042"
       xlink:href="#linearGradient10286-3"
       gradientUnits="userSpaceOnUse"
       gradientTransform="matrix(2.99213,0,0,3.00466,-830.71149,-727.44385)" />
    <linearGradient
       id="linearGradient10286-3">
      <stop
         id="stop10288-8"
         style="stop-color:#b3b3b3;stop-opacity:1"
         offset="0" />
      <stop
         id="stop10290-7"
         style="stop-color:#e6e6e6;stop-opacity:1"
         offset="1" />
    </linearGradient>
    <linearGradient
       x1="110.96875"
       y1="976.29968"
       x2="110.96875"
       y2="992.375"
       id="linearGradient43236"
       xlink:href="#linearGradient4145-42"
       gradientUnits="userSpaceOnUse" />
    <linearGradient
       id="linearGradient4145-42">
      <stop
         id="stop4953"
         style="stop-color:#e694bb;stop-opacity:1"
         offset="0" />
      <stop
         id="stop4955"
         style="stop-color:#d3819a;stop-opacity:1"
         offset="0.26238" />
      <stop
         id="stop4957"
         style="stop-color:#b25a64;stop-opacity:1"
         offset="0.704952" />
      <stop
         id="stop4959"
         style="stop-color:#98313d;stop-opacity:1"
         offset="1" />
    </linearGradient>
    <linearGradient
       x1="110.96875"
       y1="976.29968"
       x2="110.99982"
       y2="991.87488"
       id="linearGradient14097-7"
       xlink:href="#linearGradient4145-42"
       gradientUnits="userSpaceOnUse"
       gradientTransform="matrix(1,0,0,1.00011,0,-0.10551)" />
    <linearGradient
       x1="110.96875"
       y1="976.29968"
       x2="110.96875"
       y2="992.375"
       id="linearGradient21742"
       xlink:href="#linearGradient4145-42"
       gradientUnits="userSpaceOnUse"
       gradientTransform="matrix(1.00399,0,0,1.00959,-1.1658,-9.36636)" />
    <clipPath
       clipPathUnits="userSpaceOnUse"
       id="clipPath867">
      <g
         inkscape:label="Clip"
         id="use869">
        <path
           d="m 47.000614,3.0210706 v 0.75 40.5000404 0.72723 h 0.75 32.499399 0.75 v -0.72723 -25.50003 -0.3282 l -0.2344,-0.2343 -14.9059,-15.0000104 -0.1875,-0.1875 h -0.3282 -17.593399 z"
           id="path875"
           style="color:#000000;font-style:normal;font-variant:normal;font-weight:normal;font-stretch:normal;font-size:medium;line-height:normal;font-family:'Andale Mono';text-indent:0pt;text-align:start;text-decoration:none;text-decoration-line:none;letter-spacing:normal;word-spacing:normal;text-transform:none;direction:ltr;text-anchor:start;display:inline;overflow:visible;visibility:visible;fill:#000000;fill-opacity:1;fill-rule:nonzero;stroke:none;stroke-width:1;marker:none"
           inkscape:connector-curvature="0" />
      </g>
    </clipPath>
  </defs>
  <metadata
     id="metadata21749">
    <rdf:RDF>
      <cc:Work
         rdf:about="">
        <dc:format>image/svg+xml</dc:format>
        <dc:type
           rdf:resource="http://purl.org/dc/dcmitype/StillImage" />
        <dc:title />
      </cc:Work>
    </rdf:RDF>
  </metadata>
  <path
     style="color:#000000;font-style:normal;font-variant:normal;font-weight:normal;font-stretch:normal;font-size:medium;line-height:normal;font-family:'Andale Mono';text-indent:0pt;text-align:start;text-decoration:none;text-decoration-line:none;letter-spacing:normal;word-spacing:normal;text-transform:none;direction:ltr;text-anchor:start;display:inline;overflow:visible;visibility:visible;fill:#1a1a1a;fill-opacity:1;stroke:none;stroke-width:5.99873972;marker:none"
     d="M 29.705078 -0.083984375 C 27.658234 -0.075805275 25.583576 0.004495415 25.1875 0.013671875 L 7 0.013671875 C 6.813106 -0.004321185 6.624454 -0.004321185 6.4375 0.013671875 C 5.062346 0.27607034 3.975341 1.6123101 4 3.0117188 L 4 45 C 4.00015 46.570313 5.429312 47.99985 7 48 L 41 48 C 42.570687 47.99985 43.99985 46.570313 44 45 L 44 18.818359 C 44.018 18.026395 44.215294 8.8914456 43.664062 8.3222656 L 34.054688 0.24804688 C 33.770027 -0.027426595 31.751922 -0.092163505 29.705078 -0.083984375 z M 31.195312 3.0097656 L 31.328125 10.513672 C 31.340155 11.195372 31.966379 11.80479 32.644531 11.792969 L 40.416016 11.65625 C 40.548988 11.67436 40.684161 11.672851 40.816406 11.650391 L 40.898438 14.679688 L 41 18.771484 L 41 44.271484 L 41 44.998047 L 40.25 44.998047 L 7.75 44.998047 L 7 44.998047 L 7 44.271484 L 7 3.7714844 L 7 3.0214844 L 7.75 3.0214844 L 25.34375 3.0214844 L 25.671875 3.0214844 L 31.195312 3.0097656 z M 23.904297 18.082031 C 23.628951 18.101121 23.424741 18.245424 23.324219 18.572266 C 19.808619 24.447266 16.334516 30.347078 12.791016 36.205078 C 11.928646 37.432478 11.150472 39.029787 9.5761719 39.429688 C 8.9910319 39.226686 8.9760335 40.205918 9.2265625 40.330078 L 15.617188 40.330078 C 15.734505 39.685478 15.559478 39.305561 14.806641 39.457031 C 13.344641 39.688921 13.498888 37.972453 14.048828 37.126953 C 14.714908 35.792353 15.498497 34.518138 16.216797 33.210938 L 23.537109 33.210938 C 23.775259 34.819038 24.151801 36.412956 24.269531 38.035156 C 24.572301 39.360156 23.087103 39.481419 22.158203 39.511719 C 21.884813 39.453919 21.792553 40.487868 22.207031 40.330078 L 29.859375 40.330078 L 29.859375 40.283203 C 29.983802 40.294787 30.105397 40.314453 30.234375 40.314453 C 31.060736 40.314453 31.930404 40.055115 32.84375 39.533203 C 33.452648 39.185262 34.160229 38.651223 34.964844 37.933594 C 34.964844 38.955672 35.247095 39.651797 35.8125 40.021484 C 36.116949 40.217201 36.540326 40.314453 37.083984 40.314453 C 37.475418 40.314453 37.856875 40.240115 38.226562 40.087891 C 38.813714 39.848681 39.40113 39.379477 39.988281 38.683594 L 39.988281 37.835938 C 39.749072 38.031655 39.520198 38.184237 39.302734 38.292969 C 39.085271 38.4017 38.82398 38.457031 38.519531 38.457031 C 38.084604 38.457031 37.811857 38.313952 37.703125 38.03125 C 37.61614 37.726801 37.574219 37.23859 37.574219 36.564453 L 37.574219 30.203125 C 37.574219 28.680881 37.366305 27.561379 36.953125 26.84375 C 36.235496 25.604209 34.822286 24.984375 32.712891 24.984375 C 31.016676 24.984375 29.658797 25.430666 28.636719 26.322266 C 27.810358 27.039895 27.396484 27.800854 27.396484 28.605469 C 27.396484 28.931664 27.51665 29.257789 27.755859 29.583984 C 27.995069 29.888433 28.342155 30.041016 28.798828 30.041016 C 29.212009 30.041016 29.561048 29.89989 29.84375 29.617188 C 30.126452 29.334485 30.267578 29.006407 30.267578 28.636719 C 30.224085 28.462748 30.180211 28.268245 30.136719 28.050781 C 30.114972 27.811572 30.103516 27.582698 30.103516 27.365234 C 30.103516 26.886815 30.343846 26.507312 30.822266 26.224609 C 31.300685 25.920161 31.832771 25.767578 32.419922 25.767578 C 33.072312 25.767578 33.615854 25.929664 34.050781 26.255859 C 34.637932 26.712533 34.931641 27.452531 34.931641 28.474609 L 34.931641 30.464844 C 31.84366 31.682639 29.82012 32.617141 28.863281 33.269531 C 28.001298 33.862145 27.408196 34.554843 27.080078 35.347656 C 26.613868 32.639256 26.178291 29.92554 25.714844 27.216797 C 25.210314 24.178897 24.705672 21.139463 24.201172 18.101562 C 24.094652 18.081992 23.996079 18.075661 23.904297 18.082031 z M 21.90625 22.960938 C 22.39428 25.844738 22.881101 28.727428 23.369141 31.611328 L 16.914062 31.611328 C 18.577862 28.727528 20.24255 25.844836 21.90625 22.960938 z M 34.931641 31.248047 L 34.931641 35.976562 C 34.931641 36.498475 34.866806 36.889435 34.736328 37.150391 C 34.60585 37.3896 34.300685 37.618474 33.822266 37.835938 C 33.583056 37.966416 33.268387 38.098038 32.876953 38.228516 C 32.485519 38.358994 32.126976 38.423828 31.800781 38.423828 C 31.191884 38.423828 30.680759 38.183498 30.267578 37.705078 C 29.854398 37.226659 29.646484 36.597321 29.646484 35.814453 C 29.646484 35.031585 29.919232 34.33546 30.462891 33.726562 C 31.289252 32.79147 32.778753 31.965676 34.931641 31.248047 z "
     id="path848" />
</svg>
