<?xml version="1.0" encoding="UTF-8" standalone="no"?>
<!-- Created with Inkscape (http://www.inkscape.org/) -->

<svg
   xmlns:dc="http://purl.org/dc/elements/1.1/"
   xmlns:cc="http://creativecommons.org/ns#"
   xmlns:rdf="http://www.w3.org/1999/02/22-rdf-syntax-ns#"
   xmlns:svg="http://www.w3.org/2000/svg"
   xmlns="http://www.w3.org/2000/svg"
   xmlns:sodipodi="http://sodipodi.sourceforge.net/DTD/sodipodi-0.dtd"
   xmlns:inkscape="http://www.inkscape.org/namespaces/inkscape"
   width="48"
   height="48"
   viewBox="0 0 12.7 12.7"
   version="1.1"
   id="svg926"
   inkscape:version="0.92.3 (2405546, 2018-03-11)"
   sodipodi:docname="x-office-calendar.svg">
  <defs
     id="defs920" />
  <sodipodi:namedview
     id="base"
     pagecolor="#ffffff"
     bordercolor="#666666"
     borderopacity="1.0"
     inkscape:pageopacity="0.0"
     inkscape:pageshadow="2"
     inkscape:zoom="3.6460194"
     inkscape:cx="17.811374"
     inkscape:cy="21.421601"
     inkscape:document-units="mm"
     inkscape:current-layer="layer1"
     showgrid="false"
     units="px"
     inkscape:window-width="1366"
     inkscape:window-height="690"
     inkscape:window-x="0"
     inkscape:window-y="28"
     inkscape:window-maximized="1"
     showguides="true"
     inkscape:guide-bbox="true"
     inkscape:snap-global="true" />
  <metadata
     id="metadata923">
    <rdf:RDF>
      <cc:Work
         rdf:about="">
        <dc:format>image/svg+xml</dc:format>
        <dc:type
           rdf:resource="http://purl.org/dc/dcmitype/StillImage" />
        <dc:title></dc:title>
      </cc:Work>
    </rdf:RDF>
  </metadata>
  <g
     inkscape:label="Capa 1"
     inkscape:groupmode="layer"
     id="layer1"
     transform="translate(0,-284.29998)">
    <path
       style="fill:#1a1a1a;fill-opacity:1;stroke:none;stroke-width:0.11076113;stroke-opacity:1"
       d="M 11.595703 1.2148438 C 9.9840672 1.2148438 8.6855469 2.5133717 8.6855469 4.125 L 8.6855469 8.7792969 L 14.503906 8.7792969 L 14.503906 4.125 C 14.503906 2.5133717 13.207341 1.2148438 11.595703 1.2148438 z M 36.197266 1.2148438 C 34.585627 1.2148438 33.287109 2.5133717 33.287109 4.125 L 33.287109 8.7792969 L 39.105469 8.7792969 L 39.105469 4.125 C 39.105469 2.5133717 37.8089 1.2148438 36.197266 1.2148438 z M 0.68554688 10.09375 L 0.68554688 18.046875 L 0.734375 18.046875 L 0.734375 38.560547 C 0.734375 40.967577 1.6633574 43.026545 3.5195312 44.736328 C 5.3762887 46.445922 7.6123767 47.300781 10.226562 47.300781 L 37.644531 47.300781 C 40.25872 47.300781 42.494235 46.445922 44.351562 44.736328 C 46.208203 43.026545 47.134766 40.967652 47.134766 38.560547 L 47.134766 14.712891 L 47.105469 14.712891 L 47.105469 10.09375 L 0.68554688 10.09375 z M 4.953125 18.046875 L 42.917969 18.046875 L 42.917969 38.560547 L 42.916016 38.560547 C 42.916016 39.895363 42.401636 41.039003 41.369141 41.990234 C 40.336653 42.940937 39.095098 43.414062 37.644531 43.414062 L 10.226562 43.414062 C 8.7764598 43.414062 7.534675 42.940937 6.5019531 41.990234 C 5.469458 41.039078 4.953125 39.895363 4.953125 38.560547 L 4.953125 18.046875 z M 16.810547 22.298828 C 16.189716 22.298828 15.505632 22.386128 14.757812 22.5625 C 14.009993 22.738872 13.204448 23.000013 12.34375 23.345703 L 12.34375 25.505859 C 13.190338 25.033181 13.983845 24.680077 14.724609 24.447266 C 15.472429 24.214454 16.181347 24.097656 16.851562 24.097656 C 17.796919 24.097656 18.562881 24.361508 19.148438 24.890625 C 19.741049 25.419742 20.037109 26.10578 20.037109 26.945312 C 20.037109 27.46032 19.900141 27.985312 19.625 28.521484 C 19.356914 29.050602 18.879638 29.699766 18.195312 30.46875 C 17.835513 30.877934 16.954706 31.79095 15.550781 33.208984 C 14.153911 34.619964 13.049595 35.744451 12.238281 36.583984 L 12.238281 38.384766 L 22.269531 38.384766 L 22.269531 36.583984 L 14.810547 36.583984 C 16.531942 34.827315 17.86519 33.46381 18.810547 32.490234 C 19.755903 31.509603 20.315815 30.91553 20.492188 30.710938 C 21.134183 29.920789 21.574587 29.236705 21.814453 28.658203 C 22.061375 28.072647 22.185547 27.455691 22.185547 26.806641 C 22.185547 25.43799 21.698185 24.343759 20.724609 23.525391 C 19.751033 22.707022 18.447283 22.298828 16.810547 22.298828 z M 30.609375 22.583984 L 26.832031 23.345703 L 26.832031 25.292969 L 30.630859 24.53125 L 30.630859 36.583984 L 27.138672 36.583984 L 27.138672 38.384766 L 36.238281 38.384766 L 36.238281 36.583984 L 32.746094 36.583984 L 32.746094 22.583984 L 30.609375 22.583984 z "
       transform="matrix(0.26458333,0,0,0.26458333,0,284.29998)"
       id="path869" />
  </g>
</svg>
