<?xml version="1.0" encoding="UTF-8" standalone="no"?>
<svg
   xmlns:dc="http://purl.org/dc/elements/1.1/"
   xmlns:cc="http://creativecommons.org/ns#"
   xmlns:rdf="http://www.w3.org/1999/02/22-rdf-syntax-ns#"
   xmlns:svg="http://www.w3.org/2000/svg"
   xmlns="http://www.w3.org/2000/svg"
   xmlns:sodipodi="http://sodipodi.sourceforge.net/DTD/sodipodi-0.dtd"
   xmlns:inkscape="http://www.inkscape.org/namespaces/inkscape"
   width="48"
   height="48"
   viewBox="0 0 12.7 12.7"
   version="1.1"
   id="svg4"
   sodipodi:docname="ipython.svg"
   inkscape:version="0.92.4 (5da689c313, 2019-01-14)">
  <metadata
     id="metadata10">
    <rdf:RDF>
      <cc:Work
         rdf:about="">
        <dc:format>image/svg+xml</dc:format>
        <dc:type
           rdf:resource="http://purl.org/dc/dcmitype/StillImage" />
        <dc:title></dc:title>
      </cc:Work>
    </rdf:RDF>
  </metadata>
  <defs
     id="defs8" />
  <sodipodi:namedview
     pagecolor="#ffffff"
     bordercolor="#666666"
     borderopacity="1"
     objecttolerance="10"
     gridtolerance="10"
     guidetolerance="10"
     inkscape:pageopacity="0"
     inkscape:pageshadow="2"
     inkscape:window-width="862"
     inkscape:window-height="480"
     id="namedview6"
     showgrid="false"
     inkscape:zoom="4.9166667"
     inkscape:cx="2.1355932"
     inkscape:cy="24"
     inkscape:window-x="0"
     inkscape:window-y="25"
     inkscape:window-maximized="0"
     inkscape:current-layer="svg4" />
  <path
     d="m 6.34,0.07 a 6.29,6.29 0 1 0 0,12.58 6.29,6.29 0 0 0 0,-12.58 z M 6.32,1 a 5.417,5.417 0 0 1 5.41,5.41 5.4,5.4 0 0 1 -5.4,5.41 5.38,5.38 0 0 1 -3.917,-1.679 V 2.678 A 5.38,5.38 0 0 1 6.32,1 Z M 3.672,4.105 V 8.744 H 4.86 V 8.374 H 4.11 V 4.472 H 4.86 V 4.106 H 3.672 Z m 4.633,0.018 v 0.366 h 0.75 v 3.904 h -0.75 v 0.37 H 9.492 V 4.123 Z M 10.629,5 c -0.204,0 -0.306,0.117 -0.306,0.35 0,0.125 0.029,0.215 0.086,0.27 0.059,0.055 0.132,0.081 0.22,0.081 0.099,0 0.177,-0.03 0.234,-0.09 C 10.921,5.55 10.949,5.463 10.949,5.351 10.949,5.117 10.842,5 10.629,5 Z M 5.295,5.055 6.444,7.917 6.284,8.323 C 6.158,8.655 5.947,8.821 5.651,8.821 5.534,8.821 5.427,8.811 5.331,8.79 v 0.345 c 0.129,0.03 0.258,0.044 0.39,0.044 A 0.894,0.894 0 0 0 6.316,8.977 C 6.479,8.843 6.621,8.617 6.742,8.297 L 7.966,5.055 H 7.504 C 7.106,6.156 6.869,6.815 6.796,7.029 A 7.586,7.586 0 0 0 6.656,7.481 H 6.636 A 6.16,6.16 0 0 0 6.382,6.678 L 5.758,5.055 Z m 5.334,2.236 a 0.288,0.288 0 0 0 -0.228,0.091 c -0.052,0.059 -0.078,0.146 -0.078,0.262 0,0.125 0.029,0.215 0.086,0.27 0.059,0.054 0.132,0.08 0.22,0.08 0.099,0 0.177,-0.03 0.234,-0.09 0.058,-0.06 0.086,-0.147 0.086,-0.26 0,-0.116 -0.028,-0.203 -0.086,-0.262 a 0.301,0.301 0 0 0 -0.234,-0.09 z"
     id="path2"
     inkscape:connector-curvature="0"
     style="fill:#ff7f2a" />
</svg>
