<svg xmlns="http://www.w3.org/2000/svg" width="48" height="48" viewBox="0 0 12.7 12.7"><path d="M6.34.07a6.29 6.29 0 0 0-6.29 6.3 6.29 6.29 0 0 0 6.3 6.28 6.29 6.29 0 0 0 6.28-6.29A6.29 6.29 0 0 0 6.34.07zm-.01.94a5.4 5.4 0 0 1 5.4 5.4 5.4 5.4 0 0 1-5.4 5.41 5.4 5.4 0 0 1-5.41-5.4A5.4 5.4 0 0 1 6.32 1zm-.04 1.01l-.9 2.5-.51-1.9c-.05-.17-.43-.2-.87-.1-.42.13-.74.35-.7.52l.45 1.69h-.07c-.3 0-.35-.04-.43.15l-.53 1.21V10c0 .24-.02.2.28.2h6.6c.3 0 .28.04.28-.2V6.1l-.1-.22v-.41h-.17l-.25-.58a.35.35 0 0 0-.03-.06l.13-.13s0-.02 0 0l-.58-.6h-.02l-.44.45-.09-.04a1.64 1.64 0 0 0-.14-.07l-.1-.03v-.63h-.84v.63l-.1.03-.14.07-.09.04-.22-.22.7-1.89-1.13-.4zm-.13.7l.44.17-.07.19-.45-.16zm-.21.57l.44.16-.07.2-.44-.17zm-.21.56l.45.17-.08.2-.44-.17zm-.2.57l.44.16-.01.03-.07.07v.01l.03.03h-.16l-.3-.1zm-1.78.5h.05l.33 1.27H3.2l.35-1.1a.28.28 0 0 1 .08-.13c.02-.02.05-.04.14-.04zm1.76.14l.25.09-.07.2-.11-.05zm2.16.12c.39 0 .7.32.7.7a.69.69 0 0 1-.07.3H7.05a.69.69 0 0 1-.07-.3c0-.38.31-.7.7-.7z" fill="#ff7f2a"/></svg>