<svg xmlns="http://www.w3.org/2000/svg" width="48" height="48" viewBox="0 0 12.7 12.7"><path fill="#2ca02c" d="M6.34.07a6.29 6.29 0 0 0-6.28 6.3 6.29 6.29 0 0 0 6.29 6.28 6.29 6.29 0 0 0 6.28-6.29A6.29 6.29 0 0 0 6.34.07zm-.01.94a5.4 5.4 0 0 1 5.4 5.4 5.4 5.4 0 0 1-5.4 5.41 5.4 5.4 0 0 1-5.41-5.4A5.4 5.4 0 0 1 6.32 1zM5.2 3.07H2.76a.64.64 0 0 0-.64.64V8.98c0 .23.12.39.28.5L6.9 5H3.35v.95c0 .19-.12.33-.27.33-.15 0-.27-.14-.27-.33V4.84l.01-.05v-.03c0-.13.09-.23.21-.24l.03-.01h7.52v-.73H5.92l-.72-.71zM10.58 5H8.4L3.76 9.63h2.22l4.6-4.6V5zm0 1.5L7.46 9.63h2.49a.64.64 0 0 0 .64-.65V6.5z"/></svg>
