<svg xmlns="http://www.w3.org/2000/svg" width="48" height="48" viewBox="0 0 12.7 12.7"><path fill="#2ca02c" d="M6.34.07a6.29 6.29 0 0 0-6.28 6.3 6.29 6.29 0 0 0 6.29 6.28 6.29 6.29 0 0 0 6.28-6.29A6.29 6.29 0 0 0 6.34.07zm-.01.94a5.4 5.4 0 0 1 5.4 5.4 5.4 5.4 0 0 1-5.4 5.41 5.4 5.4 0 0 1-5.41-5.4A5.4 5.4 0 0 1 6.32 1zM2.89 2.78a.18.18 0 0 0-.18.17V10c0 .1.08.18.18.18h6.77a.18.18 0 0 0 .18-.18V2.95a.18.18 0 0 0-.18-.17H2.9zm1.2.76h4.33v2.73H4.08V3.54zm-.97.06h.55v.28h-.55V3.6zm5.76 0h.55v.28h-.55V3.6zm-5.76.82h.55v.28h-.54v-.28zm5.76 0h.55v.28h-.55v-.28zm-5.76.83h.55v.27h-.54v-.27zm5.76 0h.55v.27h-.55v-.27zm-5.76.82h.55v.27h-.54v-.27zm5.76 0h.55v.27h-.55v-.27zm-4.8.77h4.34v2.58H4.08V6.84zm-.96.05h.55v.27h-.55V6.9zm5.76 0h.55v.27h-.55V6.9zm-5.76.82h.55V8h-.54V7.7zm5.76 0h.55V8h-.55V7.7zm-5.76.83h.55v.27h-.54v-.27zm5.76 0h.55v.27h-.55v-.27zm-5.76.82h.55v.27h-.54v-.27zm5.76 0h.55v.27h-.55v-.27z"/></svg>
