<svg xmlns="http://www.w3.org/2000/svg" width="48" height="48" viewBox="0 0 12.7 12.7"><path d="M6.34.07A6.29 6.29 0 0 0 .05 6.36a6.29 6.29 0 0 0 6.3 6.29 6.29 6.29 0 0 0 6.28-6.3A6.29 6.29 0 0 0 6.34.08zm-.01.94a5.4 5.4 0 0 1 5.4 5.4 5.4 5.4 0 0 1-5.4 5.41 5.4 5.4 0 0 1-5.41-5.4A5.4 5.4 0 0 1 6.32 1z" fill="#2ca02c"/><g fill-rule="evenodd"><path d="M3.38 9.9h5.94l1.49-2.57H4.86L3.38 9.91z" opacity=".75" fill="#3176d5"/><path d="M4.86 2.18l2.98 5.15h2.97L7.84 2.18z" opacity=".75" fill="#f3ba3c"/><path d="M4.86 2.18L1.9 7.33l1.49 2.58 2.97-5.15z" opacity=".75" fill="#20a869"/></g></svg>
