<svg xmlns="http://www.w3.org/2000/svg" width="48" height="48" viewBox="0 0 12.7 12.7"><path d="M6.34.07a6.29 6.29 0 0 0-6.29 6.3 6.29 6.29 0 0 0 6.3 6.28 6.29 6.29 0 0 0 6.28-6.29A6.29 6.29 0 0 0 6.34.07zM6.32 1l.01.01a5.4 5.4 0 0 1 5.4 5.4 5.4 5.4 0 0 1-5.4 5.41 5.4 5.4 0 0 1-5.41-5.4A5.4 5.4 0 0 1 6.32 1zm0 1.76a1.7 1.7 0 0 0-1.7 1.7v.69H3.59v4.1c0 .39.3.69.69.69h4.1c.38 0 .68-.3.68-.69l.05-4.09-.73-.01h-.34v-.68a1.7 1.7 0 0 0-1.71-1.71zm0 .64h.01c.58 0 1.06.48 1.06 1.07v.68H5.28v-.68c0-.58.46-1.06 1.05-1.07z" fill="green"/></svg>