<svg xmlns="http://www.w3.org/2000/svg" width="48" height="48" viewBox="0 0 12.7 12.7"><g fill="#2ca02c"><path d="M6.34.07A6.29 6.29 0 0 0 .05 6.36a6.29 6.29 0 0 0 6.3 6.29 6.29 6.29 0 0 0 6.28-6.3A6.29 6.29 0 0 0 6.34.08zm-.01.94a5.4 5.4 0 0 1 5.4 5.4 5.4 5.4 0 0 1-5.4 5.41 5.4 5.4 0 0 1-5.41-5.4A5.4 5.4 0 0 1 6.32 1z"/><path d="M9.12 2.14c-1.35.22-2.92.44-4.27.67-.36.17-.28.62-.3.94v4.33c-.92-.2-1.93.48-1.97 1.46-.07.61.48 1.14 1.07 1.15 1.07.03 1.88-.67 1.89-1.55V4.69c.16-.01 2.74-.48 2.96-.51V7.5c-.85-.25-1.7.27-1.91 1.15-.15.5.08 1.1.58 1.32.99.44 2.37-.46 2.32-1.53-.02-1.98.01-3.95 0-5.93-.03-.19-.16-.4-.37-.38z"/></g></svg>
