<svg xmlns="http://www.w3.org/2000/svg" width="48" height="48" viewBox="0 0 12.7 12.7"><path fill="#2ca02c" d="M6.34.07a6.29 6.29 0 0 0-6.29 6.3 6.29 6.29 0 0 0 6.3 6.28 6.29 6.29 0 0 0 6.28-6.29A6.29 6.29 0 0 0 6.34.07zm-.01.94a5.4 5.4 0 0 1 5.4 5.4 5.4 5.4 0 0 1-5.4 5.41 5.4 5.4 0 0 1-5.41-5.4A5.4 5.4 0 0 1 6.32 1zM2.78 3.06a.64.64 0 0 0-.64.64V8.97c0 .36.29.65.64.65h7.18a.64.64 0 0 0 .65-.64v-5.2H5.95l-.72-.72H2.78zm.29 1.38h6.59a.31.31 0 0 1 .31.3v.3H3.25h-.03a.24.24 0 0 0-.2.24V6.47c0 .19.11.33.25.33.15 0 .26-.14.26-.33v-.95h6.44v3.1a.31.31 0 0 1-.31.32h-6.6a.31.31 0 0 1-.3-.31V4.75a.31.31 0 0 1 .3-.31z"/></svg>
