<?xml version="1.0" encoding="UTF-8" standalone="no"?><svg xmlns:dc="http://purl.org/dc/elements/1.1/" xmlns:cc="http://creativecommons.org/ns#" xmlns:rdf="http://www.w3.org/1999/02/22-rdf-syntax-ns#" xmlns="http://www.w3.org/2000/svg" width="48" height="48" viewBox="0 0 12.7 12.7"><metadata><rdf:RDF><cc:Work><dc:format>image/svg+xml</dc:format><dc:type rdf:resource="http://purl.org/dc/dcmitype/StillImage"/><dc:title/></cc:Work></rdf:RDF></metadata><path d="M1.21.86L.14 3.66h6.04V.86H1.21zm5.18 0v2.8h6.11L11.4.86H6.4zM.19 3.89v6.31c0 .64.25 1.18.74 1.64.5.45 1.08.67 1.78.67h7.25c.7 0 1.28-.22 1.78-.67.49-.46.73-1 .73-1.64V3.9h-1.12v6.3c0 .36-.13.66-.4.91a1.4 1.4 0 0 1-.99.38H2.71a1.4 1.4 0 0 1-.99-.38 1.19 1.19 0 0 1-.41-.9V3.88H.19zm1.53 1.4v1.06H2v1.06h.53V6.35h.26V5.29H1.72zm1.32.05v.53h.53v-.53h-.53zm.53.53v.53h.53v-.53h-.53zm.53 0h.53v-.53H4.1v.53zm.53 0v.53h.53v-.53h-.53zm.53 0h.52v-.53h-.52v.53zm.52 0v.53h.53v-.53h-.53zm.53 0h.53v-.53h-.53v.53zm.53 0v.53h.53v-.53h-.53zm.53 0h.53v-.53h-.53v.53zm.53 0v.53h.53v-.53H7.8zm.53 0h.53v-.53h-.53v.53zm.53 0v.53h.53v-.53h-.53zm.53 0h.53v-.53h-.53v.53zm.53 0v.53h.53v-.53h-.53zm.53 0h.53v-.53h-.53v.53zm-8.46-.31h.53v.53h-.53v-.53zM7.37 8v.74a.74.74 0 0 0-.55-.21c-.49 0-.88.4-.88.93s.39.93.89.93c.23 0 .4-.08.58-.27v.23h.38V8h-.42zM9.9 8v.4h.43V8h-.43zm-6.64.55c-.5 0-.87.38-.87.9 0 .55.37.94.87.94.24 0 .4-.08.57-.27-.01.37-.17.56-.49.56a.53.53 0 0 1-.44-.19h-.48c.14.35.47.56.9.56.32 0 .57-.11.74-.32.12-.16.18-.38.18-.72V8.6h-.4v.22c-.14-.18-.33-.26-.58-.26zm1.29.04v.38h.68l-.77 1v.38h1.34v-.38h-.84l.78-1v-.38h-1.2zm3.4 0l.71 1.76H9l.7-1.76h-.47l-.4 1.16-.4-1.16h-.47zm1.95 0v1.76h.43V8.59h-.43zm-3 .32c.29 0 .51.24.51.55 0 .3-.22.54-.5.54-.3 0-.53-.24-.53-.55 0-.3.22-.54.51-.54zm-3.6.02c.3 0 .52.22.52.54 0 .32-.2.53-.5.53s-.5-.2-.5-.53c0-.32.2-.54.49-.54z" fill="#5beedc"/></svg>
