<svg xmlns="http://www.w3.org/2000/svg" width="48" height="48"><defs><linearGradient id="a"><stop offset="0" stop-color="#dc85e9"/><stop offset="1" stop-color="#f2cbf8"/></linearGradient><linearGradient id="b"><stop offset="0" stop-color="#dc85e9"/><stop offset="1" stop-color="#f2cbf8"/></linearGradient><linearGradient id="c"><stop offset="0" stop-color="#fff" stop-opacity=".588"/><stop offset="1" stop-color="#fff" stop-opacity=".863"/></linearGradient><linearGradient id="d"><stop offset="0" stop-color="#b3b3b3"/><stop offset="1" stop-color="#e6e6e6"/></linearGradient><linearGradient id="e"><stop offset="0" stop-color="#e694bb"/><stop offset=".262" stop-color="#d3819a"/><stop offset=".705" stop-color="#b25a64"/><stop offset="1" stop-color="#98313d"/></linearGradient></defs><path style="line-height:normal;text-indent:0;text-align:start;text-decoration-line:none;text-transform:none;marker:none" d="M29.705-.084c-2.047.008-4.121.088-4.517.098H7a2.938 2.938 0 0 0-.563 0C5.063.276 3.975 1.612 4 3.012V45c0 1.57 1.43 3 3 3h34c1.57 0 3-1.43 3-3V18.818c.018-.792.215-9.927-.336-10.496L34.054.248c-.284-.275-2.302-.34-4.349-.332zm1.49 3.094l.133 7.504c.012.681.638 1.29 1.317 1.279l7.771-.137c.133.018.268.017.4-.006l.082 3.03L41 18.77v26.227H7V3.021h18.672l5.523-.011zm-7.379 8.867c-.598 0-1.197.229-1.656.687L9.535 25.19a2.336 2.336 0 0 0 0 3.311L21.98 40.945a2.336 2.336 0 0 0 3.311 0l12.625-12.627a2.334 2.334 0 0 0 0-3.308L25.471 12.564a2.331 2.331 0 0 0-1.655-.687zm.045 2.728c.478 0 .956.183 1.323.55l9.048 9.05a.635.635 0 0 0-.375.174l-1.1 1.098a7.864 7.864 0 0 0-1.357-.579v-1.56a.626.626 0 0 0-.636-.635h-3.352a.626.626 0 0 0-.637.635v1.56c-.473.146-.926.35-1.357.579l-1.1-1.098a.655.655 0 0 0-.923 0l-2.342 2.342a.655.655 0 0 0 0 .924l1.1 1.097c-.228.43-.433.886-.579 1.36h-1.56a.626.626 0 0 0-.637.634v3.354c0 .359.277.635.637.635h1.56c.146.473.35.928.578 1.359l-.752.75-8.947-8.95a1.866 1.866 0 0 1 0-2.644L22.54 15.154a1.863 1.863 0 0 1 1.322-.549zm5.227 15.034c1.12 0 2.079.667 2.517 1.623l-3.67 3.67a2.772 2.772 0 0 1-1.622-2.518 2.777 2.777 0 0 1 2.775-2.775z" color="#000" font-weight="400" font-family="Andale Mono" overflow="visible" fill="#5beedc"/></svg>
