<?xml version="1.0" encoding="UTF-8" standalone="no"?><svg xmlns:dc="http://purl.org/dc/elements/1.1/" xmlns:cc="http://creativecommons.org/ns#" xmlns:rdf="http://www.w3.org/1999/02/22-rdf-syntax-ns#" xmlns="http://www.w3.org/2000/svg" width="48" height="48" viewBox="0 0 12.7 12.7"><metadata><rdf:RDF><cc:Work><dc:format>image/svg+xml</dc:format><dc:type rdf:resource="http://purl.org/dc/dcmitype/StillImage"/><dc:title/></cc:Work></rdf:RDF></metadata><path d="M1.21.86L.14 3.66h6.04V.86H1.21zm5.18 0v2.8h6.11L11.4.86H6.4zM.19 3.89v6.31c0 .64.25 1.18.74 1.64.5.45 1.08.67 1.78.67h7.25c.7 0 1.28-.22 1.78-.67.49-.46.73-1 .73-1.64V3.9h-1.12v6.3c0 .36-.13.66-.4.91a1.4 1.4 0 0 1-.99.38H2.71a1.4 1.4 0 0 1-.99-.38 1.19 1.19 0 0 1-.41-.9V3.88H.19zm1.53 1.4v1.06H2v1.06h.53V6.35h.26V5.29H1.72zm1.32.05v.53h.53v-.53h-.53zm.53.53v.53h.53v-.53h-.53zm.53 0h.53v-.53H4.1v.53zm.53 0v.53h.53v-.53h-.53zm.53 0h.52v-.53h-.52v.53zm.52 0v.53h.53v-.53h-.53zm.53 0h.53v-.53h-.53v.53zm.53 0v.53h.53v-.53h-.53zm.53 0h.53v-.53h-.53v.53zm.53 0v.53h.53v-.53H7.8zm.53 0h.53v-.53h-.53v.53zm.53 0v.53h.53v-.53h-.53zm.53 0h.53v-.53h-.53v.53zm.53 0v.53h.53v-.53h-.53zm.53 0h.53v-.53h-.53v.53zm-8.46-.31h.53v.53h-.53v-.53zm-.16 2.32v.5h-.15v.31h.16v1.15h.32V8.69h.2v-.32h-.2v-.49h-.32zm3.76 0v1.96h.32V7.88H5.6zm-2.41.46a.49.49 0 0 0-.03 0c-.4 0-.69.32-.69.77 0 .44.28.76.68.76.19 0 .32-.06.45-.22v.19h.3V8.37h-.3v.2a.49.49 0 0 0-.41-.23zm4.72 0a.4.4 0 0 0-.3.17v-.14h-.3v1.47h.32v-.72c0-.15.01-.25.03-.3a.24.24 0 0 1 .23-.16c.09 0 .17.04.21.1.04.05.06.14.06.28v.8h.32v-.72c0-.17.01-.25.05-.32a.24.24 0 0 1 .22-.14c.08 0 .15.03.2.1.04.05.05.13.05.28v.8h.33v-.85a.85.85 0 0 0-.09-.42c-.08-.15-.25-.23-.46-.23a.48.48 0 0 0-.43.23.41.41 0 0 0-.4-.23.4.4 0 0 0-.04 0zm2.35 0a.49.49 0 0 0-.04 0c-.4 0-.68.32-.68.77 0 .44.28.76.68.76.19 0 .31-.06.44-.22v.19h.3V8.37h-.3v.2a.49.49 0 0 0-.4-.23zm-5.53 0c-.14 0-.21.04-.3.18v-.15h-.3v1.47h.33v-.82c0-.22.1-.34.3-.34v-.34h-.03zm1.44.03v.32h.52l-.59.83v.32h1.03v-.32h-.64l.6-.83v-.32h-.92zm-2.98.3c.23 0 .4.18.4.45 0 .1-.04.22-.1.3a.36.36 0 0 1-.3.13c-.23 0-.4-.17-.4-.43 0-.27.17-.46.4-.46zm7.07 0c.23 0 .4.18.4.45a.52.52 0 0 1-.1.3.36.36 0 0 1-.3.13c-.23 0-.4-.17-.4-.43 0-.27.16-.46.4-.46zm-5.3.83v.34h.33V9.5h-.33z" fill="#5beedc"/></svg>
