<?xml version="1.0" encoding="UTF-8" standalone="no"?><svg xmlns:dc="http://purl.org/dc/elements/1.1/" xmlns:cc="http://creativecommons.org/ns#" xmlns:rdf="http://www.w3.org/1999/02/22-rdf-syntax-ns#" xmlns="http://www.w3.org/2000/svg" width="48" height="48"><metadata><rdf:RDF><cc:Work><dc:format>image/svg+xml</dc:format><dc:type rdf:resource="http://purl.org/dc/dcmitype/StillImage"/><dc:title/></cc:Work></rdf:RDF></metadata><path style="line-height:normal;text-indent:0;text-align:start;text-decoration-line:none;text-transform:none;marker:none" d="M29.7-.08c-2.04 0-4.12.08-4.51.1H7a2.94 2.94 0 0 0-.56 0 3.1 3.1 0 0 0-2.44 3V45c0 1.57 1.43 3 3 3h34c1.57 0 3-1.43 3-3V18.82c.02-.8.22-9.93-.34-10.5L34.06.25c-.29-.28-2.3-.34-4.35-.33zM31.2 3l.13 7.5c.01.68.64 1.3 1.31 1.28l7.78-.13c.13.01.26.01.4-.01l.08 3.03.1 4.09V45H7V3.02h18.67l5.53-.01zm-7.93 2.71a.75.75 0 0 0-.63.35c-.05.08-.17.56-.28 1.06l-.2.92-.23-.04c-.34-.05-.6.02-.79.24-.13.14-.28.8-1.22 5.23-.6 2.79-1.07 5.08-1.05 5.1 0 .03.87.23 1.9.45l1.89.4.7-3.3c.38-1.82.72-3.3.75-3.3.09.02.7 1.02.83 1.38.08.19.16.55.2.8.05.46.05.49-.82 4.6-.48 2.26-.86 4.18-.86 4.25.02.18.22.44.41.55.33.2.86.06 1.04-.27a169 169 0 0 0 1.82-8.79c0-1.1-.45-2.3-1.25-3.31-.31-.4-.65-.78-.93-1.02-.08-.07-.06-.2.1-.97.15-.73.17-.92.11-1.07-.12-.3-.3-.43-.7-.52l-.36-.09.2-.98c.17-.8.19-1 .13-1.15a.82.82 0 0 0-.76-.52zm-4.75 14.4l-1.42 6.61c-1.23 5.83-1.4 6.68-1.44 7.37-.09 1.37.04 3.34.32 5.07.18 1.1.12 1.02.41.64.9-1.2 1.98-2.98 2.53-4.18.54-1.16.6-1.43 2.04-8.2l1.38-6.51-1.9-.4-1.92-.4zm11.67 2.4l-.21.03c-.12.05-.01.26-.02.38-.03.78-.07 1.55-.08 2.32a80.7 80.7 0 0 1-.11 3.13l-.5.1c-.18.05-.33.2-.48.34-.45.42-.69 1-.92 1.56l-.35-.06c-.39 0-.2 0-.57.02-.02 0-.36 0-.32.16.02.06.1.06.15.07l.45.1.53.1a4.58 4.58 0 0 0-.29 1.72l.08.37c.06.1.1.22.17.32s.15.19.25.26c.38.26 1.11.1 1.42 0 .32-.1.47-1.06.5-1.16l.13-1.1.39.08.01.76c0 3.21.04 6.43-.15 9.63a.47.47 0 0 0-.04.17c-.06.14-.13.3-.01.34a.9.9 0 0 0 .47.03c.1 0 .21 0 .3-.03.05-.02.05-.07.04-.13l.07-.04c.18-.17.03-.5.07-.75.05-.34.11-.7.19-1.03.23-1.01.33-1.22.68-2.19a13.65 13.65 0 0 1 3.3-4.35c.36-.36.82-.62 1.23-.92.14-.1.37-.26.32-.35-.05-.1-.18-.14-.27-.2-.22-.04-.43-.09-.65-.12l-2.3-.37c-.98-.16-1.96-.36-2.94-.56l.01-2.58c.8.18 1.65.4 2.18 1.06l.1.17.88-.03c-.63-.88-1.74-1.13-2.73-1.36l-.43-.03v-.35c0-1.8-.02-3.6.12-5.4l-.04-.01a.06.06 0 0 0-.04-.06.6.6 0 0 0-.32 0 1.41 1.41 0 0 0-.27-.04zm.15 5.13l.01.38v.32h-.07v-.1l.06-.6zm-.07.83l.09.01.05 2.6-.37-.08.23-2.53zm-.52.28a22.3 22.3 0 0 1-.26 2.15c-.32-.08-.64-.14-.97-.2l.08-.28c.22-.56.45-1.13.92-1.54.07-.06.15-.09.23-.13zm-2.25 1.65c.04 0 .06.04.1.06H27.84l-.02.07-.26-.07c-.02-.01-.09-.06-.06-.06zm.97.48l.55.1.44.09c-.07.4-.15.79-.25 1.18-.1.25-.18.52-.31.76-.05.09-.2.14-.27.21-.11-.11-.2-.24-.28-.4-.02-.1-.06-.22-.07-.34-.03-.2 0-.52.02-.72.04-.3.1-.59.17-.88zm2.26.43l5.07.97c.08.02.18.01.23.07.06.06-.1.2-.25.31-.38.31-.8.59-1.14.95A13.97 13.97 0 0 0 31.46 38l-.38 1.08c-.15.48-.19.65-.24.85-.1-2.64-.1-5.27-.11-7.9v-.7z" fill="#5beedc"/></svg>
