<svg xmlns="http://www.w3.org/2000/svg" width="48" height="48"><defs><linearGradient id="a"><stop offset="0" stop-color="#dc85e9"/><stop offset="1" stop-color="#f2cbf8"/></linearGradient><linearGradient id="b"><stop offset="0" stop-color="#dc85e9"/><stop offset="1" stop-color="#f2cbf8"/></linearGradient><linearGradient id="c"><stop offset="0" stop-color="#fff" stop-opacity=".588"/><stop offset="1" stop-color="#fff" stop-opacity=".863"/></linearGradient><linearGradient id="d"><stop offset="0" stop-color="#b3b3b3"/><stop offset="1" stop-color="#e6e6e6"/></linearGradient><linearGradient id="e"><stop offset="0" stop-color="#e694bb"/><stop offset=".262" stop-color="#d3819a"/><stop offset=".705" stop-color="#b25a64"/><stop offset="1" stop-color="#98313d"/></linearGradient></defs><path style="line-height:normal;text-indent:0;text-align:start;text-decoration-line:none;text-transform:none;marker:none" d="M32.938-.012c-.999.32-1.335 1.84-.565 2.555l9.035 9.082c.835.796 2.497.115 2.541-1.041V1.502c0-.793-.717-1.514-1.506-1.514h-9.035a1.548 1.548 0 0 0-.47 0zm-26.5.026C5.062.276 3.974 1.612 4 3.012V45c0 1.57 1.43 3 3 3h34c1.57 0 3-1.43 3-3V18.818a3.038 3.038 0 0 0-.844-2.156L27.344.857a3.038 3.038 0 0 0-2.157-.843H7a2.938 2.938 0 0 0-.563 0zM7 3.02h18.672l.187.188 14.907 15 .234.234v26.555H7V3.021zm10.35 16.17c-.074 0-.144.04-.207.112-.117.03-.205.08-.221.17l-2.317 13.324-2.912-7.78c-.065-.173-.647.156-1.304.74l-.248.223c-.657.585-1.134 1.196-1.069 1.37l4.48 11.966c.004.008.013.01.018.016.154.273.603.609 1.172.844l.278.115c.732.303 1.36.317 1.41.031l3.146-18.105H37.47c.292 0 .527-.61.527-1.37v-.286c0-.759-.235-1.37-.527-1.37h-20.12zm7.484 7c-.234.06-.639.342-1.041.745l-.203.2c-.536.537-.86 1.078-.725 1.214l3.594 3.593-3.594 3.592c-.135.136.189.677.725 1.213l.203.203c.536.536 1.077.86 1.213.725l3.592-3.594 3.593 3.594c.136.135.677-.189 1.213-.725l.201-.203c.537-.536.86-1.077.725-1.213l-3.592-3.592 3.592-3.593c.136-.136-.188-.677-.725-1.213l-.2-.201c-.537-.537-1.078-.86-1.214-.725l-3.593 3.592-3.592-3.592c-.034-.034-.094-.04-.172-.02z" color="#000" font-weight="400" font-family="Andale Mono" overflow="visible" fill="#5beedc"/></svg>
