<svg xmlns="http://www.w3.org/2000/svg" width="48" height="48"><defs><linearGradient id="a"><stop offset="0" stop-color="#dc85e9"/><stop offset="1" stop-color="#f2cbf8"/></linearGradient><linearGradient id="b"><stop offset="0" stop-color="#dc85e9"/><stop offset="1" stop-color="#f2cbf8"/></linearGradient><linearGradient id="c"><stop offset="0" stop-color="#fff" stop-opacity=".588"/><stop offset="1" stop-color="#fff" stop-opacity=".863"/></linearGradient><linearGradient id="d"><stop offset="0" stop-color="#b3b3b3"/><stop offset="1" stop-color="#e6e6e6"/></linearGradient><linearGradient id="e"><stop offset="0" stop-color="#e694bb"/><stop offset=".262" stop-color="#d3819a"/><stop offset=".705" stop-color="#b25a64"/><stop offset="1" stop-color="#98313d"/></linearGradient></defs><path style="line-height:normal;text-indent:0;text-align:start;text-decoration-line:none;text-transform:none;marker:none" d="M29.705-.084c-2.047.008-4.121.088-4.517.098H7a2.938 2.938 0 0 0-.563 0C5.063.276 3.975 1.612 4 3.012V45c0 1.57 1.43 3 3 3h34c1.57 0 3-1.43 3-3V18.818c.018-.792.215-9.927-.336-10.496L34.054.248c-.284-.275-2.302-.34-4.349-.332zm1.49 3.094l.133 7.504c.012.681.638 1.29 1.317 1.279l7.771-.137c.133.018.268.017.4-.006l.082 3.03L41 18.77v26.227H7V3.021h18.672l5.523-.011zM9.357 15.5c-.277 0-.5.223-.5.5v2c0 .277.223.5.5.5h2c.277 0 .5-.223.5-.5v-2c0-.277-.223-.5-.5-.5h-2zm4.922 0c-.229.016-.425.195-.422.385v2.232c-.002.202.22.385.463.383h17.075c.243.002.465-.181.462-.383v-2.232c.003-.202-.22-.387-.462-.385H14.28zm-2.922 6c-.277 0-.5.223-.5.5v2c0 .277.223.5.5.5h2c.277 0 .5-.223.5-.5v-2c0-.277-.223-.5-.5-.5h-2zm4.922 0c-.229.016-.425.195-.422.385v2.232c-.002.202.22.385.463.383h17.075c.243.002.465-.181.462-.383v-2.232c.003-.202-.22-.387-.462-.385H16.28zm-4.922 6c-.277 0-.5.223-.5.5v2c0 .277.223.5.5.5h2c.277 0 .5-.223.5-.5v-2c0-.277-.223-.5-.5-.5h-2zm4.922 0c-.229.016-.425.195-.422.385v2.232c-.002.202.22.385.463.383h17.075c.243.002.465-.181.462-.383v-2.232c.003-.202-.22-.387-.462-.385H16.28zm-6.922 6c-.277 0-.5.223-.5.5v2c0 .277.223.5.5.5h2c.277 0 .5-.223.5-.5v-2c0-.277-.223-.5-.5-.5h-2zm4.922 0c-.229.016-.425.195-.422.385v2.232c-.002.202.22.385.463.383h17.075c.243.002.465-.181.462-.383v-2.232c.003-.202-.22-.387-.462-.385H14.28z" color="#000" font-weight="400" font-family="Andale Mono" overflow="visible" fill="#5beedc"/></svg>
