<svg xmlns="http://www.w3.org/2000/svg" width="48" height="48"><path d="M22.8 13.6l-6 20.4-3.6-12H6v2.4h4.8l6 18 6-20.4 3.6 12 4.8-12 3.6 12H42v-2.4h-4.8l-6-16.8-4.8 12-3.6-13.2z" stroke-width="3.78" fill="#2c2ca0" opacity=".75"/><path style="line-height:normal;text-indent:0;text-align:start;text-decoration-line:none;text-transform:none;marker:none" d="M29.7-.08c-2.04 0-4.12.08-4.51.1H7a2.94 2.94 0 0 0-.56 0 3.1 3.1 0 0 0-2.44 3V45c0 1.57 1.43 3 3 3h34c1.57 0 3-1.43 3-3V18.82c.02-.8.22-9.93-.34-10.5L34.06.25c-.29-.28-2.3-.34-4.35-.33h-.01zm1.5 3.09l.13 7.49c.01.68.64 1.3 1.31 1.28l7.78-.13h.4l.08 3.02.1 4.09V45H7V3.02h18.67l5.53-.01z" fill="#5beedc"/></svg>
