<?xml version="1.0" encoding="UTF-8" standalone="no"?>
<!-- Created with Inkscape (http://www.inkscape.org/) -->

<svg
   xmlns:dc="http://purl.org/dc/elements/1.1/"
   xmlns:cc="http://creativecommons.org/ns#"
   xmlns:rdf="http://www.w3.org/1999/02/22-rdf-syntax-ns#"
   xmlns:svg="http://www.w3.org/2000/svg"
   xmlns="http://www.w3.org/2000/svg"
   xmlns:sodipodi="http://sodipodi.sourceforge.net/DTD/sodipodi-0.dtd"
   xmlns:inkscape="http://www.inkscape.org/namespaces/inkscape"
   width="24"
   height="24"
   viewBox="0 0 6.35 6.35"
   version="1.1"
   id="svg829"
   inkscape:version="0.92.3 (2405546, 2018-03-11)"
   sodipodi:docname="applications-development-symbolic.svg">
  <defs
     id="defs823" />
  <sodipodi:namedview
     id="base"
     pagecolor="#ffffff"
     bordercolor="#666666"
     borderopacity="1.0"
     inkscape:pageopacity="0.0"
     inkscape:pageshadow="2"
     inkscape:zoom="18.291667"
     inkscape:cx="11.261959"
     inkscape:cy="11.781321"
     inkscape:document-units="mm"
     inkscape:current-layer="layer1"
     showgrid="false"
     showguides="true"
     inkscape:guide-bbox="true"
     inkscape:window-width="1366"
     inkscape:window-height="719"
     inkscape:window-x="0"
     inkscape:window-y="25"
     inkscape:window-maximized="1"
     scale-x="1.9"
     units="px" />
  <metadata
     id="metadata826">
    <rdf:RDF>
      <cc:Work
         rdf:about="">
        <dc:format>image/svg+xml</dc:format>
        <dc:type
           rdf:resource="http://purl.org/dc/dcmitype/StillImage" />
        <dc:title></dc:title>
      </cc:Work>
    </rdf:RDF>
  </metadata>
  <g
     inkscape:label="Capa 1"
     inkscape:groupmode="layer"
     id="layer1"
     transform="translate(0,-290.65)">
    <path
       style="fill:#808080;fill-opacity:1;stroke-width:0.0688048"
       d="m 4.3180824,291.80598 -1.106909,2.02831 0.08785,0.13487 0.8092529,0.003 v 0.35605 h -0.034106 c -0.06738,0 -0.1214398,0.0541 -0.1214398,0.12144 v 1.22421 c 0,0.0675 0.054062,0.12144 0.1214398,0.12144 H 4.504635 c 0.06738,0 0.1214394,-0.0541 0.1214394,-0.12144 v -1.22421 c 0,-0.0675 -0.054058,-0.12144 -0.1214394,-0.12144 h -0.05116 v -0.35554 l 0.800468,0.002 0.099736,-0.14469 z m -2.1693764,0.23204 c -0.32766,0.0159 -0.7411054,0.27906 -1.1342976,0.82785 0,0 1.1704711,-0.59849 1.1704711,0.35966 v 0.9276 H 2.067574 c 0,0 -0.1167888,-2.2e-4 -0.1167888,0.11678 v 1.40457 c 0,0.11701 0.1167888,0.11679 0.1167888,0.11679 h 0.7022827 c 0,0 0.1173054,2.2e-4 0.1173054,-0.11679 v -1.40457 c 0,-0.117 -0.1173054,-0.11678 -0.1173054,-0.11678 H 2.653068 v -0.97979 c 0.00232,-0.10934 0.067586,-0.40255 0.3472657,-0.40255 l 0.2377114,0.21239 h 0.350883 v -0.93638 h -0.350883 l -0.2377114,0.1607 c 0,0 -0.5239681,-0.1852 -0.8516277,-0.16948 z"
       id="path833"
       inkscape:connector-curvature="0" />
  </g>
</svg>
