<svg xmlns="http://www.w3.org/2000/svg" width="48" height="48" viewBox="0 0 12.7 12.7"><path fill="#1a1a1a" d="M6.344.073a6.29 6.29 0 0 0-6.29 6.29 6.29 6.29 0 0 0 6.29 6.288 6.29 6.29 0 0 0 6.29-6.289 6.29 6.29 0 0 0-6.29-6.29zm-.018.936a5.407 5.407 0 0 1 5.407 5.407 5.407 5.407 0 0 1-5.407 5.407A5.407 5.407 0 0 1 .92 6.416 5.407 5.407 0 0 1 6.326 1.01zm.023.213c-.26 0-.643.133-1.013.739H5.26a.602.602 0 0 0-.38 1.071 7.903 7.903 0 0 0-.125.458c-1.353-.45-2.408-.42-2.769.164-.286.463-.073 1.178.604 2.005.197.243.41.475.636.693a7.82 7.82 0 0 0-.636.686c-.677.833-.89 1.547-.604 2.004.138.225.45.475 1.143.475h.173a.602.602 0 0 0 1.152-.213c.096-.027.193-.057.291-.09.336 1.383.912 2.264 1.603 2.264.69 0 1.265-.876 1.6-2.256a5.338 5.338 0 0 0 1.603.3c.547 0 .96-.155 1.159-.476.23-.364.14-.893-.25-1.518a.599.599 0 0 0 .122-.357.603.603 0 0 0-.847-.547 8.827 8.827 0 0 0-.263-.266c.226-.215.439-.445.637-.685.676-.834.89-1.548.603-2.006-.364-.583-1.41-.614-2.762-.182C7.614 2.1 7.034 1.223 6.35 1.223zm.002.361c.456 0 .944.762 1.247 2.016-.427.164-.844.353-1.249.566-.404-.21-.82-.395-1.247-.556.036-.157.077-.307.12-.449h.04a.603.603 0 0 0 .409-1.047c.217-.343.454-.53.68-.53zm3.238 1.965c.408.002.692.104.812.298.193.312-.022.911-.576 1.59-.193.233-.4.455-.62.664-.313-.28-.641-.545-.982-.79-.034-.49-.097-.977-.191-1.46.617-.207 1.149-.305 1.557-.302zm-6.475.005c.41 0 .942.095 1.552.297a11.83 11.83 0 0 0-.187 1.456c-.342.248-.672.513-.987.795a7.536 7.536 0 0 1-.62-.662c-.546-.684-.768-1.276-.575-1.59.12-.193.407-.294.817-.296zm4.562.413c.066.331.119.689.155 1.069a12.35 12.35 0 0 0-.477-.31 16.396 16.396 0 0 0-.61-.356c.324-.157.635-.292.932-.403zm-2.654.003c.297.111.609.247.932.403a14.458 14.458 0 0 0-1.087.666c.036-.376.09-.731.155-1.069zm1.327.602a13.034 13.034 0 0 1 1.52.933 13.887 13.887 0 0 1-.002 1.692v.001c-.228.16-.462.317-.707.469-.244.151-.54.324-.811.463a13.05 13.05 0 0 1-1.52-.933 13.835 13.835 0 0 1 .002-1.692 13.56 13.56 0 0 1 1.518-.933zm0 .931a.848.848 0 1 0 0 1.697.848.848 0 0 0 0-1.697zm-1.898.28c0 .182-.013.377-.013.568 0 .191.004.381.011.567a12.291 12.291 0 0 1-.689-.567c.216-.191.447-.38.691-.568zm3.798.002c.244.186.47.384.688.566-.213.19-.443.38-.688.567a14.416 14.416 0 0 0 0-1.133zm-4.758.819c.314.28.641.544.982.79.033.49.097.977.191 1.459-.1.04-.2.07-.3.098a.603.603 0 0 0-1.105.203c-.488.024-.83-.08-.964-.295-.193-.312.022-.912.576-1.59.193-.234.4-.456.62-.665zm5.715.004c.09.086.175.172.257.257a.601.601 0 0 0-.09.31c0 .334.271.605.606.605a.585.585 0 0 0 .182-.033c.3.478.38.872.24 1.11-.239.389-1.144.403-2.37 0 .095-.481.158-.968.192-1.458.34-.246.67-.51.983-.791zm-4.34 1.058c.158.106.317.209.479.31.204.12.406.242.607.364-.316.153-.627.286-.93.401a11.175 11.175 0 0 1-.155-1.075zm2.965.001c-.036.38-.09.737-.155 1.065v.002a10.786 10.786 0 0 1-.931-.403c.204-.113.406-.23.609-.354.164-.1.322-.204.477-.31zm-1.482.872c.406.21.824.396 1.251.557-.306 1.265-.795 2.02-1.251 2.02-.458 0-.946-.763-1.249-2.023.427-.16.844-.346 1.249-.554z"/></svg>