<svg xmlns="http://www.w3.org/2000/svg" width="48" height="48" viewBox="0 0 12.7 12.7"><path d="M6.34.07a6.29 6.29 0 0 0-6.29 6.3 6.29 6.29 0 0 0 6.3 6.28 6.29 6.29 0 0 0 6.28-6.29A6.29 6.29 0 0 0 6.34.07zM6.32 1l.01.01a5.4 5.4 0 0 1 5.4 5.4 5.4 5.4 0 0 1-5.4 5.41 5.4 5.4 0 0 1-5.41-5.4A5.4 5.4 0 0 1 6.32 1zm-2.8 1.46c-.24.08.54 1.52.35 1.62l-.74.28v-.32h-.95V6.9h.95v-.32l2.53.32c.22.02-3.48 2.21-3.48 2.21 1.1 0 12.25-2.94 7.83-5.02a7.72 7.72 0 0 0-4.82-.48c-.25.06-1.46-1.22-1.68-1.14zm4.44 1.26a8.33 8.33 0 0 1 .78.17l.09.03a6.02 6.02 0 0 1 .62.21c.79.3 1.21.64 1.34 1.02-1.52.05-2.76-.35-2.83-1.25v-.18z" fill="#1a1a1a"/></svg>