<svg xmlns="http://www.w3.org/2000/svg" width="48" height="48" viewBox="0 0 12.7 12.7"><path d="M6.34.07a6.29 6.29 0 0 0-6.29 6.3 6.29 6.29 0 0 0 6.3 6.28 6.29 6.29 0 0 0 6.28-6.29A6.29 6.29 0 0 0 6.34.07zM6.32 1l.01.01a5.4 5.4 0 0 1 5.4 5.4 5.4 5.4 0 0 1-5.4 5.41 5.4 5.4 0 0 1-5.41-5.4A5.4 5.4 0 0 1 6.32 1zm-.22.72A4.7 4.7 0 0 0 2.97 3.1a4.7 4.7 0 0 0-1.23 4.54 4.7 4.7 0 0 0 3.33 3.31A4.7 4.7 0 0 0 9.6 9.73a4.7 4.7 0 0 0 1.2-4.53h.01A4.7 4.7 0 0 0 7.5 1.88L7.04 3.6H8.4a.7.7 0 0 1 .06 0 .7.7 0 0 1 .07.01.7.7 0 0 1 .07.02.7.7 0 0 1 .06.02.7.7 0 0 1 .07.03.7.7 0 0 1 .06.03.7.7 0 0 1 .05.05.7.7 0 0 1 .06.04.7.7 0 0 1 .04.05.7.7 0 0 1 .04.06.7.7 0 0 1 .04.06.7.7 0 0 1 .03.06.7.7 0 0 1 .02.07.7.7 0 0 1 .02.07.7.7 0 0 1 0 .07.7.7 0 0 1 .01.07V6.42a2.82 2.82 0 0 1 0 .03 2.82 2.82 0 0 1-.02.29 2.82 2.82 0 0 1-.04.27 2.82 2.82 0 0 1-.08.28 2.82 2.82 0 0 1-.1.26 2.82 2.82 0 0 1-.12.25 2.82 2.82 0 0 1-.15.24 2.82 2.82 0 0 1-.18.22 2.82 2.82 0 0 1-.13.15 2.82 2.82 0 0 1-.06.06 2.82 2.82 0 0 1-.21.18 2.82 2.82 0 0 1-.24.16 2.82 2.82 0 0 1-.24.14 2.82 2.82 0 0 1-.26.11 2.82 2.82 0 0 1-.27.09 2.82 2.82 0 0 1-.28.06 2.82 2.82 0 0 1-.28.03 2.82 2.82 0 0 1-.28 0 2.82 2.82 0 0 1-.28-.03 2.82 2.82 0 0 1-.28-.05 2.82 2.82 0 0 1-.05-.02 2.82 2.82 0 0 1-.21-.06 2.82 2.82 0 0 1-.27-.11 2.82 2.82 0 0 1-.24-.13 2.82 2.82 0 0 1-.24-.16 2.82 2.82 0 0 1-.22-.18 2.82 2.82 0 0 1-.2-.2A2.82 2.82 0 0 1 4 8.08a2.82 2.82 0 0 1-.16-.24 2.82 2.82 0 0 1-.13-.25 2.82 2.82 0 0 1-.1-.26 2.82 2.82 0 0 1-.05-.18 2.82 2.82 0 0 1-.03-.09 2.82 2.82 0 0 1-.05-.28 2.82 2.82 0 0 1-.02-.28 2.82 2.82 0 0 1 0-.28 2.82 2.82 0 0 1 .04-.28 2.82 2.82 0 0 1 .06-.28 2.82 2.82 0 0 1 .09-.26 2.82 2.82 0 0 1 .12-.26 2.82 2.82 0 0 1 .14-.24 2.82 2.82 0 0 1 .16-.23 2.82 2.82 0 0 1 .19-.22 2.82 2.82 0 0 1 .02-.02 2.82 2.82 0 0 1 .01-.01 2.82 2.82 0 0 1 .17-.16 2.82 2.82 0 0 1 .23-.17 2.82 2.82 0 0 1 .24-.15 2.82 2.82 0 0 1 .25-.12 2.82 2.82 0 0 1 .27-.1 2.82 2.82 0 0 1 .27-.07A2.82 2.82 0 0 1 6 3.61a2.82 2.82 0 0 1 .28-.01h.76l.46-1.72a4.7 4.7 0 0 0-1.4-.16zm2.06 2.35a.47.47 0 0 0-.03 0 .47.47 0 0 0-.05 0 .47.47 0 0 0-.04.02.47.47 0 0 0-.05.01.47.47 0 0 0-.04.02.47.47 0 0 0-.04.03.47.47 0 0 0-.04.02.47.47 0 0 0-.04.04.47.47 0 0 0-.03.03.47.47 0 0 0-.03.04.47.47 0 0 0-.02.04.47.47 0 0 0-.02.04.47.47 0 0 0-.02.04.47.47 0 0 0-.01.05.47.47 0 0 0 0 .05.47.47 0 0 0-.01.04.47.47 0 0 0 0 .04.47.47 0 0 0 0 .05.47.47 0 0 0 .02.04.47.47 0 0 0 .01.05.47.47 0 0 0 .02.04.47.47 0 0 0 .03.04.47.47 0 0 0 .02.04.47.47 0 0 0 .03.03.47.47 0 0 0 .04.04.47.47 0 0 0 .04.03.47.47 0 0 0 .04.02.47.47 0 0 0 .04.02.47.47 0 0 0 .04.02.47.47 0 0 0 .05 0 .47.47 0 0 0 .05.02.47.47 0 0 0 .04 0 .47.47 0 0 0 .04 0 .47.47 0 0 0 .04 0A.47.47 0 0 0 8.3 5 .47.47 0 0 0 8.34 5a.47.47 0 0 0 .04-.02.47.47 0 0 0 .04-.03.47.47 0 0 0 .04-.02.47.47 0 0 0 .03-.04.47.47 0 0 0 .04-.03.47.47 0 0 0 .02-.04.47.47 0 0 0 .03-.04.47.47 0 0 0 .02-.04.47.47 0 0 0 .02-.05.47.47 0 0 0 0-.04.47.47 0 0 0 .01-.05.47.47 0 0 0 0-.05.47.47 0 0 0 0-.03.47.47 0 0 0 0-.05.47.47 0 0 0-.01-.04.47.47 0 0 0-.02-.05.47.47 0 0 0-.01-.04.47.47 0 0 0-.03-.04.47.47 0 0 0-.03-.04.47.47 0 0 0-.03-.03.47.47 0 0 0-.03-.04.47.47 0 0 0-.04-.03.47.47 0 0 0-.04-.02.47.47 0 0 0-.04-.02.47.47 0 0 0-.05-.02.47.47 0 0 0-.04 0 .47.47 0 0 0-.05-.02.47.47 0 0 0-.05 0z" fill="#1a1a1a"/><path d="M7.5 1.88L7.04 3.6H8.4a.7.7 0 0 1 .06 0 .7.7 0 0 1 .07.01.7.7 0 0 1 .07.02.7.7 0 0 1 .06.02.7.7 0 0 1 .07.03.7.7 0 0 1 .06.03.7.7 0 0 1 .05.05.7.7 0 0 1 .06.04.7.7 0 0 1 .04.05.7.7 0 0 1 .04.06.7.7 0 0 1 .04.06.7.7 0 0 1 .03.06.7.7 0 0 1 .02.07.7.7 0 0 1 .02.07.7.7 0 0 1 0 .07.7.7 0 0 1 .01.07v1.35l1.72-.46A4.7 4.7 0 0 0 7.5 1.88z" fill="#479ae1"/><path d="M8.28 8.4L9.6 9.74a4.7 4.7 0 0 0 1.2-4.53l-1.7.46v.76a2.82 2.82 0 0 1 0 .03 2.82 2.82 0 0 1-.03.29 2.82 2.82 0 0 1-.04.27 2.82 2.82 0 0 1-.08.28 2.82 2.82 0 0 1-.1.26 2.82 2.82 0 0 1-.12.25 2.82 2.82 0 0 1-.15.24 2.82 2.82 0 0 1-.17.22 2.82 2.82 0 0 1-.14.15z" fill="#4fae53"/><path d="M5.55 9.14l-.48 1.8A4.7 4.7 0 0 0 9.6 9.72L8.28 8.4a2.82 2.82 0 0 1-.06.07 2.82 2.82 0 0 1-.21.18 2.82 2.82 0 0 1-.24.16 2.82 2.82 0 0 1-.24.14 2.82 2.82 0 0 1-.26.11 2.82 2.82 0 0 1-.27.09 2.82 2.82 0 0 1-.28.06 2.82 2.82 0 0 1-.28.03 2.82 2.82 0 0 1-.28 0 2.82 2.82 0 0 1-.28-.03 2.82 2.82 0 0 1-.28-.05 2.82 2.82 0 0 1-.05-.02z" fill="#e0ad2f"/><path d="M3.56 7.15l-1.82.48a4.7 4.7 0 0 0 3.33 3.31l.48-1.8a2.82 2.82 0 0 1-.22-.06 2.82 2.82 0 0 1-.26-.11 2.82 2.82 0 0 1-.24-.13 2.82 2.82 0 0 1-.24-.16 2.82 2.82 0 0 1-.22-.18 2.82 2.82 0 0 1-.2-.2A2.82 2.82 0 0 1 4 8.08a2.82 2.82 0 0 1-.16-.24 2.82 2.82 0 0 1-.13-.25 2.82 2.82 0 0 1-.1-.26 2.82 2.82 0 0 1-.05-.18z" fill="#e98928"/><path d="M2.97 3.09a4.7 4.7 0 0 0-1.23 4.54l1.82-.48a2.82 2.82 0 0 1-.03-.09 2.82 2.82 0 0 1-.05-.28 2.82 2.82 0 0 1-.02-.28 2.82 2.82 0 0 1 0-.28 2.82 2.82 0 0 1 .04-.28 2.82 2.82 0 0 1 .06-.28 2.82 2.82 0 0 1 .09-.26 2.82 2.82 0 0 1 .12-.26 2.82 2.82 0 0 1 .14-.24 2.82 2.82 0 0 1 .16-.23 2.82 2.82 0 0 1 .19-.22 2.82 2.82 0 0 1 .03-.03z" fill="#d74845"/><path d="M6.1 1.72a4.7 4.7 0 0 0-3.14 1.39l1.32 1.32a2.82 2.82 0 0 1 .18-.17 2.82 2.82 0 0 1 .23-.17 2.82 2.82 0 0 1 .24-.15 2.82 2.82 0 0 1 .25-.12 2.82 2.82 0 0 1 .27-.1 2.82 2.82 0 0 1 .27-.07A2.82 2.82 0 0 1 6 3.61a2.82 2.82 0 0 1 .28-.01h.76l.46-1.72a4.7 4.7 0 0 0-1.4-.16z" fill="#a458b8"/></svg>