<svg xmlns="http://www.w3.org/2000/svg" width="48" height="48" viewBox="0 0 12.7 12.7"><path d="M6.34.07a6.29 6.29 0 0 0-6.29 6.3 6.29 6.29 0 0 0 6.3 6.28 6.29 6.29 0 0 0 6.28-6.29A6.29 6.29 0 0 0 6.34.07zM6.32 1l.01.01a5.4 5.4 0 0 1 5.4 5.4 5.4 5.4 0 0 1-5.4 5.41 5.4 5.4 0 0 1-5.41-5.4A5.4 5.4 0 0 1 6.32 1zm.35 1.05a.15.15 0 0 0-.1.05c-.11.1-.07.37.14.94l.3.75c.49 1.22.62 1.7.62 2.16 0 .3-.05.46-.19.6-.13.15-.32.22-.62.24-.16 0-.17 0-.14.02l.17.03c.17.03.53.02.68-.01.7-.15 1.2-.7 1.46-1.59.11-.38.15-.7.16-1.17 0-.5-.05-.77-.18-1.16-.15-.46-.29-.69-.47-.78-.1-.05-.25-.06-.56-.02a4.26 4.26 0 0 1-1.27-.06zm-3.06.71l-.2.01c-.38.04-.55.13-.63.34-.02.04-.06.2-.08.33-.1.43-.16.64-.32.91-.13.24-.13.25-.13.3 0 .14.13.2.47.23.23.02.53.01 1.43-.04.44-.03 1.32-.04 1.55-.02.56.04.9.15 1.1.35.2.2.23.45.11.8l-.03.12c0 .05.1-.13.17-.3a1.6 1.6 0 0 0-.21-1.65 4.07 4.07 0 0 0-3.23-1.38zm1.32 2.25c-.2 0-.42.04-.64.12a4.03 4.03 0 0 0-2.37 2.8c-.06.28-.02.44.12.58.05.05.15.1.35.22.36.19.52.3.8.58l.21.19c.19.1.35-.15.55-.81l.18-.64c.29-1.08.41-1.47.61-1.88.12-.24.22-.4.36-.53.17-.17.32-.24.51-.24a.9.9 0 0 1 .18.02c.1.03.26.1.38.2.06.03.1.06.11.05.01-.01-.28-.28-.39-.35-.3-.2-.62-.31-.96-.3zm5.46.24c-.11 0-.28.08-.52.24-.2.14-.37.27-.9.7-.82.65-1.23.93-1.63 1.13-.54.26-.92.26-1.17-.02a.95.95 0 0 1-.2-.32 6.07 6.07 0 0 0-.05-.15L5.9 6.8v.06a1.84 1.84 0 0 0 .31.88c.1.13.28.3.4.39.27.18.65.3 1.02.35a4.35 4.35 0 0 0 2.96-.85c.34-.27.46-.43.46-.62 0-.1-.02-.17-.16-.45a2.9 2.9 0 0 1-.3-1.03c-.03-.16-.05-.2-.1-.24a.18.18 0 0 0-.1-.03zm-4.73.85l-.15.06c-.62.3-.96.8-1 1.47-.02.49.16 1.1.49 1.66a4.85 4.85 0 0 0 .96 1.15c.25.2.6.41.8.47.16.06.3.04.44-.06.04-.02.14-.11.24-.2.33-.3.49-.4.84-.58.13-.06.23-.12.25-.14.09-.09.05-.2-.1-.35a6.88 6.88 0 0 0-1.2-.82c-.74-.46-1.17-.76-1.45-1-.55-.48-.72-.86-.55-1.21.05-.1.23-.3.36-.39.05-.03.08-.05.07-.06z" fill="#1a1a1a"/></svg>