<?xml version="1.0" encoding="UTF-8" standalone="no"?><svg xmlns:dc="http://purl.org/dc/elements/1.1/" xmlns:cc="http://creativecommons.org/ns#" xmlns:rdf="http://www.w3.org/1999/02/22-rdf-syntax-ns#" xmlns="http://www.w3.org/2000/svg" width="48" height="48" viewBox="0 0 12.7 12.7"><metadata><rdf:RDF><cc:Work><dc:format>image/svg+xml</dc:format><dc:type rdf:resource="http://purl.org/dc/dcmitype/StillImage"/><dc:title/></cc:Work></rdf:RDF></metadata><path d="M6.34.07a6.29 6.29 0 0 0-6.29 6.3 6.29 6.29 0 0 0 6.3 6.28 6.29 6.29 0 0 0 6.28-6.29A6.29 6.29 0 0 0 6.34.07zm-.01.94a5.4 5.4 0 0 1 5.4 5.4 5.4 5.4 0 0 1-5.4 5.41 5.4 5.4 0 0 1-5.41-5.4A5.4 5.4 0 0 1 6.32 1zm-.28 2a.77.77 0 0 0-.76.76v1.48c-.4-.15-.83-.23-1.3-.23-1.62 0-2.94.97-2.94 2.18 0 1.03.97 1.89 2.26 2.12l-.17 1.2 1.33-1.17c1.4-.17 2.46-1.07 2.46-2.15 0-.07 0-.14-.02-.21h.34l1.42 1.06a.38.38 0 0 0 .6-.37l-.12-.7h.88c.41 0 .76-.34.76-.75V3.77a.77.77 0 0 0-.76-.76zm0 .76h3.98v2.46H8.7a.38.38 0 0 0-.37.44l.03.21-.76-.57a.38.38 0 0 0-.23-.08h-.75a2.35 2.35 0 0 0-.57-.59zm2.08.34c-.28 0-.5.08-.65.24a.82.82 0 0 0-.24.6c0 .27.1.47.3.6H7.2v.33h.8v-.36a.34.34 0 0 1-.09-.06.68.68 0 0 1-.2-.5.6.6 0 0 1 .12-.37c.07-.1.18-.15.31-.15.14 0 .24.05.32.15.08.1.11.22.11.37 0 .2-.06.36-.2.5a.35.35 0 0 1-.08.06v.36h.8v-.34h-.36c.2-.12.3-.32.3-.59a.82.82 0 0 0-.23-.6.88.88 0 0 0-.66-.24zM3.9 6.01h.72l.87 2.34h-.6l-.15-.43h-.95l-.15.43h-.6zm.36.54l-.32.94h.64z" fill="#1a1a1a"/></svg>