<svg xmlns="http://www.w3.org/2000/svg" width="48" height="48" viewBox="0 0 12.7 12.7"><path fill="#1a1a1a" d="M6.344.073a6.29 6.29 0 0 0-6.29 6.29 6.29 6.29 0 0 0 6.29 6.288 6.29 6.29 0 0 0 6.29-6.289 6.29 6.29 0 0 0-6.29-6.29zm-.018.936a5.407 5.407 0 0 1 5.407 5.407 5.407 5.407 0 0 1-5.407 5.407A5.407 5.407 0 0 1 .92 6.416 5.407 5.407 0 0 1 6.326 1.01zm-3.43 1.886V4.11a5.802 5.802 0 0 1 5.686 5.695h1.223a7.02 7.02 0 0 0-6.91-6.91zm0 2.797v1.093a3.129 3.129 0 0 1 3.019 3.02h1.093a4.217 4.217 0 0 0-4.113-4.113zm.718 2.768a.633.633 0 0 0-.474.201.614.614 0 0 0-.202.468c0 .19.069.336.202.467.133.13.28.194.474.194.188 0 .33-.063.46-.194a.627.627 0 0 0 .202-.467.614.614 0 0 0-.202-.468.607.607 0 0 0-.46-.201z"/></svg>