<?xml version="1.0" encoding="UTF-8" standalone="no"?>
<svg
   xmlns:dc="http://purl.org/dc/elements/1.1/"
   xmlns:cc="http://creativecommons.org/ns#"
   xmlns:rdf="http://www.w3.org/1999/02/22-rdf-syntax-ns#"
   xmlns:svg="http://www.w3.org/2000/svg"
   xmlns="http://www.w3.org/2000/svg"
   xmlns:sodipodi="http://sodipodi.sourceforge.net/DTD/sodipodi-0.dtd"
   xmlns:inkscape="http://www.inkscape.org/namespaces/inkscape"
   width="48"
   height="48"
   version="1"
   id="svg11"
   sodipodi:docname="intellij.svg"
   inkscape:version="0.92.4 (5da689c313, 2019-01-14)">
  <metadata
     id="metadata15">
    <rdf:RDF>
      <cc:Work
         rdf:about="">
        <dc:format>image/svg+xml</dc:format>
        <dc:type
           rdf:resource="http://purl.org/dc/dcmitype/StillImage" />
        <dc:title></dc:title>
      </cc:Work>
    </rdf:RDF>
  </metadata>
  <sodipodi:namedview
     pagecolor="#ffffff"
     bordercolor="#666666"
     borderopacity="1"
     objecttolerance="10"
     gridtolerance="10"
     guidetolerance="10"
     inkscape:pageopacity="0"
     inkscape:pageshadow="2"
     inkscape:window-width="1087"
     inkscape:window-height="480"
     id="namedview13"
     showgrid="false"
     inkscape:zoom="4.9166667"
     inkscape:cx="2.1355932"
     inkscape:cy="24"
     inkscape:window-x="0"
     inkscape:window-y="25"
     inkscape:window-maximized="0"
     inkscape:current-layer="svg11" />
  <defs
     id="defs7">
    <linearGradient
       id="a">
      <stop
         offset="0"
         stop-color="#040000"
         id="stop2" />
      <stop
         offset="1"
         stop-opacity="0"
         id="stop4" />
    </linearGradient>
  </defs>
  <path
     d="M 24,0.23 A 23.77,23.77 0 0 0 0.23,24.01 23.77,23.77 0 0 0 24,47.77 23.77,23.77 0 0 0 47.77,24 23.77,23.77 0 0 0 24,0.23 Z M 23.93,3.77 A 20.44,20.44 0 0 1 44.37,24.21 20.44,20.44 0 0 1 23.93,44.64 20.44,20.44 0 0 1 3.5,24.21 20.44,20.44 0 0 1 23.93,3.77 Z m 0,3 A 17.44,17.44 0 0 0 6.5,24.22 17.44,17.44 0 0 0 23.93,41.66 17.44,17.44 0 0 0 41.37,24.2 17.44,17.44 0 0 0 23.93,6.77 Z m -8.8,6.47 h 0.13 c 0.24,0 0.4,0.17 0.47,0.51 v 0.1 c -0.08,0.34 -0.23,0.5 -0.47,0.5 h -0.13 c -0.31,-0.04 -0.47,-0.2 -0.47,-0.47 v -0.17 c 0.05,-0.31 0.2,-0.47 0.47,-0.47 z m 6.02,0 A 5.74,5.74 0 0 1 22.59,17 c 0,1.85 -0.82,3.38 -2.48,4.59 a 5.3,5.3 0 0 1 -2.85,0.91 h -0.12 l -0.09,-0.08 v -3.19 l 0.09,-0.08 h 0.58 l 0.08,0.08 v 2.48 c 0.53,0 1.31,-0.35 2.35,-1.07 1.1,-1.06 1.66,-2.2 1.66,-3.4 v -0.53 c 0,-1.12 -0.5,-2.2 -1.49,-3.23 0.44,-0.16 0.71,-0.24 0.83,-0.24 z m -6.23,2.37 h 0.56 l 0.08,0.08 v 6.73 l -0.08,0.08 h -0.56 l -0.1,-0.08 v -6.73 z m -1.66,8.9 h 10.02 c 0.08,0 0.14,0.12 0.14,0.28 0,0.15 -0.06,0.28 -0.14,0.28 H 13.26 c -0.08,0 -0.14,-0.13 -0.14,-0.28 0,-0.16 0.06,-0.29 0.14,-0.29 z"
     id="path9"
     inkscape:connector-curvature="0"
     style="fill:#1a1a1a" />
</svg>
