<svg xmlns="http://www.w3.org/2000/svg" width="48" height="48" viewBox="0 0 12.7 12.7"><path d="M6.34.07a6.29 6.29 0 0 0-6.29 6.3 6.29 6.29 0 0 0 6.3 6.28 6.29 6.29 0 0 0 6.28-6.29A6.29 6.29 0 0 0 6.34.07zm-.37.94v.49l.38.19.38.19V1.03a5.4 5.4 0 0 1 5 5.38 5.4 5.4 0 0 1-5.4 5.41 5.4 5.4 0 0 1-5.41-5.4 5.4 5.4 0 0 1 5.05-5.4zm-.39.63l-.1.01a.4.4 0 0 0-.27.27.45.45 0 0 0 0 .2.4.4 0 0 0 .1.17l.04.04.83.42.87.43c.17.06.37-.03.45-.2a.38.38 0 0 0-.09-.45 49.73 49.73 0 0 0-1.73-.87.4.4 0 0 0-.1-.02zm-.03 1.1l-.1.02a.35.35 0 0 0-.15.1.35.35 0 0 0-.1.17.37.37 0 0 0 .02.26c.03.06.07.1.12.14l1.71.86a.5.5 0 0 0 .2 0 .46.46 0 0 0 .15-.08c.05-.03.1-.1.12-.15a.4.4 0 0 0-.03-.33.44.44 0 0 0-.16-.15 274.24 274.24 0 0 1-1.67-.82.43.43 0 0 0-.11-.01zm.04 1.08h-.12a.39.39 0 0 0-.12.7 5.97 5.97 0 0 0 .55.27l-.1.2c-.1.17-.22.32-.68.88-.6.72-.8 1-1.01 1.34a2.92 2.92 0 0 0-.39.96 2.18 2.18 0 0 0 1.47 2.52c.5.19 1.13.24 1.72.16a2.6 2.6 0 0 0 1.47-.66c.37-.36.58-.82.63-1.38V8.4c-.03-.4-.17-.8-.43-1.23a8.16 8.16 0 0 0-.78-1.05l-.48-.6-.14-.17h.03a.38.38 0 0 0 .18-.1.38.38 0 0 0 0-.54l-.05-.06-.8-.4-.84-.41a.49.49 0 0 0-.11-.02zm.76 1.74v.01l.07.08c.1.14.22.29.53.65l.4.49c.54.67.83 1.2.9 1.64v.4c-.05.39-.19.65-.45.86a2 2 0 0 1-.91.38c-.54.1-1.1.05-1.56-.14a1.6 1.6 0 0 1-.53-.35 1 1 0 0 1-.21-.29c-.1-.2-.14-.4-.14-.67 0-.15 0-.2.04-.34.1-.36.33-.77.71-1.29l.48-.58.35-.42.3-.41.02-.02z" fill="#1a1a1a"/></svg>