<svg xmlns="http://www.w3.org/2000/svg" width="48" height="48" viewBox="0 0 12.7 12.7"><path d="M6.35.06a6.29 6.29 0 0 0-6.29 6.3 6.29 6.29 0 0 0 6.3 6.28 6.29 6.29 0 0 0 6.28-6.29A6.29 6.29 0 0 0 6.35.06zM6.33 1a5.4 5.4 0 0 1 5.4 5.4 5.4 5.4 0 0 1-5.4 5.41 5.4 5.4 0 0 1-5.4-5.4A5.4 5.4 0 0 1 6.33 1zm1.68 1.4l-.54.37a5.63 5.63 0 0 1 1.19 3.58 5.63 5.63 0 0 1-1.19 3.58l.54.36a6.34 6.34 0 0 0 1.4-3.94A6.31 6.31 0 0 0 8 2.41zM3.97 4.56c-.16 0-.3.05-.4.16-.1.11-.14.24-.14.38 0 .15.05.28.15.39.1.1.23.16.4.16.16 0 .3-.05.4-.16.1-.11.14-.24.14-.39a.55.55 0 0 0-.15-.38.51.51 0 0 0-.4-.16zM5.2 5.99v.71H7.2V6H5.2zM3.6 7.86v.18l.02.2c0 .26-.03.52-.07.8a2.9 2.9 0 0 1-.27.86l.59.18a4.4 4.4 0 0 0 .56-1.97V8v-.13H3.6z" fill="#1a1a1a"/></svg>