<?xml version="1.0" encoding="UTF-8" standalone="no"?>
<svg
   xmlns:dc="http://purl.org/dc/elements/1.1/"
   xmlns:cc="http://creativecommons.org/ns#"
   xmlns:rdf="http://www.w3.org/1999/02/22-rdf-syntax-ns#"
   xmlns:svg="http://www.w3.org/2000/svg"
   xmlns="http://www.w3.org/2000/svg"
   xmlns:sodipodi="http://sodipodi.sourceforge.net/DTD/sodipodi-0.dtd"
   xmlns:inkscape="http://www.inkscape.org/namespaces/inkscape"
   width="48"
   height="48"
   viewBox="0 0 12.7 12.7"
   version="1.1"
   id="svg8"
   sodipodi:docname="kuiviewer.svg"
   inkscape:version="0.92.4 (5da689c313, 2019-01-14)">
  <metadata
     id="metadata14">
    <rdf:RDF>
      <cc:Work
         rdf:about="">
        <dc:format>image/svg+xml</dc:format>
        <dc:type
           rdf:resource="http://purl.org/dc/dcmitype/StillImage" />
        <dc:title></dc:title>
      </cc:Work>
    </rdf:RDF>
  </metadata>
  <defs
     id="defs12" />
  <sodipodi:namedview
     pagecolor="#ffffff"
     bordercolor="#666666"
     borderopacity="1"
     objecttolerance="10"
     gridtolerance="10"
     guidetolerance="10"
     inkscape:pageopacity="0"
     inkscape:pageshadow="2"
     inkscape:window-width="862"
     inkscape:window-height="480"
     id="namedview10"
     showgrid="false"
     inkscape:zoom="4.9166667"
     inkscape:cx="2.1355932"
     inkscape:cy="24"
     inkscape:window-x="0"
     inkscape:window-y="25"
     inkscape:window-maximized="0"
     inkscape:current-layer="svg8" />
  <path
     d="m 6.344,0.072 a 6.29,6.29 0 0 0 -6.29,6.29 6.29,6.29 0 0 0 6.29,6.289 6.29,6.29 0 0 0 6.29,-6.29 6.29,6.29 0 0 0 -6.29,-6.29 z M 6.326,1.009 A 5.407,5.407 0 0 1 11.733,6.416 5.407,5.407 0 0 1 6.326,11.823 5.407,5.407 0 0 1 0.92,6.416 5.407,5.407 0 0 1 6.326,1.01 Z"
     id="path2"
     inkscape:connector-curvature="0"
     style="fill:#1a1a1a" />
  <path
     d="M 4.604,5.38 C 4.526,5.38 4.448,5.381 4.371,5.39 L 4.227,6.134 A 1.781,1.781 0 0 0 3.882,6.245 L 3.338,5.723 A 2.47,2.47 0 0 0 2.96,6.013 L 3.283,6.691 A 1.797,1.797 0 0 0 3.072,6.979 L 2.327,6.879 A 2.456,2.456 0 0 0 2.183,7.334 L 2.838,7.69 a 1.715,1.715 0 0 0 -0.01,0.177 c 0,0.061 0.004,0.119 0.01,0.178 L 2.183,8.4 c 0.034,0.158 0.08,0.31 0.144,0.456 l 0.745,-0.1 c 0.06,0.103 0.131,0.2 0.21,0.288 L 2.96,9.722 c 0.12,0.107 0.24,0.207 0.378,0.29 L 3.882,9.489 C 3.992,9.538 4.107,9.574 4.227,9.6 l 0.144,0.744 a 2.53,2.53 0 0 0 0.466,0 L 4.982,9.6 C 5.101,9.573 5.217,9.537 5.325,9.489 L 5.87,10.011 C 6.008,9.929 6.129,9.829 6.248,9.722 L 5.925,9.044 C 6.005,8.957 6.076,8.859 6.137,8.755 l 0.744,0.1 A 2.456,2.456 0 0 0 7.025,8.4 L 6.37,8.045 a 1.541,1.541 0 0 0 0,-0.356 L 7.025,7.334 A 2.456,2.456 0 0 0 6.881,6.879 l -0.744,0.1 A 1.797,1.797 0 0 0 5.926,6.69 L 6.248,6.012 A 2.47,2.47 0 0 0 5.87,5.723 L 5.325,6.246 A 1.783,1.783 0 0 0 4.982,6.134 L 4.837,5.39 A 2.53,2.53 0 0 0 4.604,5.38 Z m 0,1.42 a 1.067,1.067 0 0 1 0,2.134 1.067,1.067 0 0 1 0,-2.133 z"
     id="path4"
     inkscape:connector-curvature="0"
     style="opacity:0.75;fill:#1a1a1a" />
  <path
     d="M 8.34,2.362 A 2.223,2.223 0 0 0 8.108,2.345 L 7.878,3.068 A 1.781,1.781 0 0 0 7.522,3.138 L 7.042,2.556 A 2.47,2.47 0 0 0 6.633,2.799 L 6.875,3.51 A 1.797,1.797 0 0 0 6.631,3.772 L 5.904,3.586 A 2.456,2.456 0 0 0 5.708,4.021 l 0.609,0.43 A 1.715,1.715 0 0 0 6.285,4.626 C 6.278,4.686 6.276,4.744 6.275,4.804 L 5.583,5.08 c 0.016,0.16 0.044,0.317 0.09,0.47 L 6.424,5.536 C 6.472,5.646 6.532,5.751 6.6,5.847 L 6.2,6.484 c 0.107,0.12 0.215,0.233 0.343,0.33 L 7.144,6.359 C 7.246,6.42 7.357,6.47 7.473,6.51 L 7.53,7.266 A 2.53,2.53 0 0 0 7.993,7.32 L 8.223,6.598 C 8.344,6.585 8.463,6.562 8.577,6.528 L 9.057,7.11 C 9.204,7.044 9.336,6.959 9.467,6.867 L 9.225,6.155 C 9.314,6.078 9.397,5.989 9.469,5.893 L 10.196,6.08 A 2.456,2.456 0 0 0 10.393,5.645 L 9.783,5.215 A 1.541,1.541 0 0 0 9.824,4.862 l 0.693,-0.276 a 2.456,2.456 0 0 0 -0.09,-0.47 L 9.676,4.13 A 1.797,1.797 0 0 0 9.5,3.818 L 9.9,3.182 A 2.47,2.47 0 0 0 9.558,2.852 L 8.955,3.307 A 1.783,1.783 0 0 0 8.627,3.156 L 8.57,2.4 A 2.53,2.53 0 0 0 8.34,2.363 Z M 8.174,3.774 A 1.067,1.067 0 0 1 7.925,5.892 1.067,1.067 0 0 1 8.174,3.774 Z"
     id="path6"
     inkscape:connector-curvature="0"
     style="opacity:0.75;fill:#aa8800" />
</svg>
