<svg xmlns="http://www.w3.org/2000/svg" width="48" height="48" viewBox="0 0 12.7 12.7"><path fill="#1a1a1a" d="M6.344.073a6.29 6.29 0 0 0-6.29 6.29 6.29 6.29 0 0 0 6.29 6.288 6.29 6.29 0 0 0 6.29-6.289 6.29 6.29 0 0 0-6.29-6.29zm-.018.936a5.407 5.407 0 0 1 5.407 5.407 5.407 5.407 0 0 1-5.407 5.407A5.407 5.407 0 0 1 .92 6.416 5.407 5.407 0 0 1 6.326 1.01zM4.202 3.161c-.022 0-.043.012-.063.034-.035.009-.061.024-.066.05L3.376 7.26l-.877-2.343c-.02-.052-.196.047-.394.223l-.074.067c-.198.176-.342.36-.322.412l1.35 3.604c0 .002.003.003.004.005.047.083.182.184.353.255l.084.034c.22.091.41.095.425.009l.948-5.453h5.388c.088 0 .159-.183.159-.412v-.087c0-.228-.071-.412-.16-.412H4.203zm2.285 2.105c-.009 0-.02 0-.031.003-.07.018-.193.104-.314.225l-.06.06c-.162.162-.26.325-.219.366l1.082 1.082-1.082 1.081c-.04.041.057.204.218.366l.061.061c.162.162.325.259.366.218l1.081-1.082 1.083 1.082c.04.04.204-.056.365-.218l.06-.061c.162-.162.26-.325.219-.366L8.234 7.002 9.316 5.92c.04-.041-.057-.204-.218-.366l-.06-.06c-.162-.162-.325-.26-.366-.219L7.589 6.357 6.508 5.275a.033.033 0 0 0-.021-.009z"/></svg>