<svg xmlns="http://www.w3.org/2000/svg" width="48" height="48" viewBox="0 0 12.7 12.7"><path d="M6.34.07a6.29 6.29 0 0 0-6.29 6.3 6.29 6.29 0 0 0 6.3 6.28 6.29 6.29 0 0 0 6.28-6.29A6.29 6.29 0 0 0 6.34.07zM6.32 1l.01.01a5.4 5.4 0 0 1 5.4 5.4 5.4 5.4 0 0 1-5.4 5.41 5.4 5.4 0 0 1-5.41-5.4A5.4 5.4 0 0 1 6.32 1z" fill="#1a1a1a"/><path d="M1.594 7.34h1.017a3.908 3.908 0 0 0 3.8 3.011 3.914 3.914 0 0 0 .76-7.754c-.76-.074-.76.83-.059.911a3.012 3.012 0 0 1-.7 5.94A3.011 3.011 0 0 1 3.54 7.34h1.064L3.1 5.534z" fill="#e95420" opacity=".75"/></svg>