<svg xmlns="http://www.w3.org/2000/svg" width="48" height="48" viewBox="0 0 12.7 12.7"><path fill="#1a1a1a" d="M6.344.073a6.29 6.29 0 0 0-6.29 6.29 6.29 6.29 0 0 0 6.29 6.288 6.29 6.29 0 0 0 6.29-6.289 6.29 6.29 0 0 0-6.29-6.29zm-.018.936a5.407 5.407 0 0 1 5.407 5.407 5.407 5.407 0 0 1-5.407 5.407A5.407 5.407 0 0 1 .92 6.416 5.407 5.407 0 0 1 6.326 1.01zm-.452.757c-2.466.053-2.27 1.174-3.55 1.958 1.616-.064 1.48-.845 2.542-.818l.003 2.236a3.537 3.304 0 0 0-1.505 2.702 3.537 3.304 0 0 0 3.537 3.305 3.537 3.304 0 0 0 3.537-3.305A3.537 3.304 0 0 0 6.9 4.54a3.537 3.304 0 0 0-1.026.143V1.766zM6.905 4.8a3.239 3.026 0 0 1 3.239 3.026 3.239 3.026 0 0 1-3.239 3.026 3.239 3.026 0 0 1-3.239-3.026A3.239 3.026 0 0 1 4.87 5.475l.004 3.873c3.312.358 4.414-.824 4.414-1.695 0-.854-.552-1.786-3.412-.88V4.962a3.239 3.026 0 0 1 1.03-.16zm.414 2.3c.432.014.787.157.787.57 0 .845-1.673 1.082-2.23 1.045V7.39c.21-.11.889-.306 1.443-.289z"/></svg>