<?xml version="1.0" encoding="UTF-8" standalone="no"?>
<svg
   xmlns:dc="http://purl.org/dc/elements/1.1/"
   xmlns:cc="http://creativecommons.org/ns#"
   xmlns:rdf="http://www.w3.org/1999/02/22-rdf-syntax-ns#"
   xmlns:svg="http://www.w3.org/2000/svg"
   xmlns="http://www.w3.org/2000/svg"
   xmlns:sodipodi="http://sodipodi.sourceforge.net/DTD/sodipodi-0.dtd"
   xmlns:inkscape="http://www.inkscape.org/namespaces/inkscape"
   width="48"
   height="48"
   version="1"
   id="svg4"
   sodipodi:docname="mintsources-additional.svg"
   inkscape:version="0.92.4 (5da689c313, 2019-01-14)">
  <metadata
     id="metadata10">
    <rdf:RDF>
      <cc:Work
         rdf:about="">
        <dc:format>image/svg+xml</dc:format>
        <dc:type
           rdf:resource="http://purl.org/dc/dcmitype/StillImage" />
        <dc:title></dc:title>
      </cc:Work>
    </rdf:RDF>
  </metadata>
  <defs
     id="defs8" />
  <sodipodi:namedview
     pagecolor="#ffffff"
     bordercolor="#666666"
     borderopacity="1"
     objecttolerance="10"
     gridtolerance="10"
     guidetolerance="10"
     inkscape:pageopacity="0"
     inkscape:pageshadow="2"
     inkscape:window-width="862"
     inkscape:window-height="480"
     id="namedview6"
     showgrid="false"
     inkscape:zoom="4.9166667"
     inkscape:cx="2.1355932"
     inkscape:cy="24"
     inkscape:window-x="0"
     inkscape:window-y="25"
     inkscape:window-maximized="0"
     inkscape:current-layer="svg4" />
  <path
     d="M 23.98,0.227 A 23.773,23.773 0 0 0 0.246,24.037 23.773,23.773 0 0 0 24.02,47.773 23.773,23.773 0 0 0 47.754,24 23.773,23.773 0 0 0 23.98,0.227 Z m -0.074,3.515 0.037,0.037 A 20.41,20.41 0 0 1 44.353,24.189 20.41,20.41 0 0 1 23.943,44.637 20.41,20.41 0 0 1 3.496,24.227 20.41,20.41 0 0 1 23.906,3.742 Z m -0.814,2.63 v 0.03 A 13.63,13.63 0 0 0 10.396,19.09 h -0.025 v 1.818 h 0.027 a 13.63,13.63 0 0 0 8.852,11.846 v -5.24 C 19.06,27.1 18.793,26.823 18.635,26.364 H 29.36 c -0.158,0.455 -0.421,0.73 -0.61,1.14 v 5.264 a 13.623,13.623 0 0 0 8.844,-11.86 h 0.035 V 19.09 H 37.594 A 13.623,13.623 0 0 0 24.906,6.402 v -0.03 z m 0,1.933 v 5.336 h -4.46 c 0.982,-2.828 2.592,-4.835 4.46,-5.336 z m 1.814,0 c 1.866,0.499 3.477,2.508 4.453,5.336 H 24.906 Z M 18.9,9.344 c -0.876,1.166 -1.609,2.629 -2.138,4.297 H 14.037 A 11.886,11.886 0 0 1 18.9,9.344 Z m 10.192,0 h 0.004 a 11.886,11.886 0 0 1 4.861,4.297 H 31.232 C 30.7,11.973 29.975,10.511 29.092,9.344 Z m -16,6.111 h 3.195 A 21.582,21.582 0 0 0 15.84,19.09 h -3.621 a 11.711,11.711 0 0 1 0.873,-3.635 z m 5.033,0 h 4.969 v 3.635 h -5.438 a 20.316,20.316 0 0 1 0.469,-3.635 z m 6.783,0 h 4.961 c 0.257,1.134 0.418,2.355 0.475,3.635 h -5.438 z m 6.805,0 h 3.195 c 0.471,1.134 0.773,2.355 0.87,3.635 H 32.16 a 21.576,21.576 0 0 0 -0.447,-3.635 z m -19.494,5.451 h 3.619 c 0.05,1.269 0.205,2.488 0.447,3.637 h -3.193 a 11.713,11.713 0 0 1 -0.873,-3.635 z m 5.437,0 h 5.436 v 3.64 h -4.967 a 20.314,20.314 0 0 1 -0.469,-3.634 z m 7.25,0 h 5.436 a 20.137,20.137 0 0 1 -0.475,3.637 h -4.96 v -3.637 z m 7.252,0 h 3.613 a 11.654,11.654 0 0 1 -0.865,3.637 h -3.195 a 21.582,21.582 0 0 0 0.447,-3.635 z M 14.04,26.363 h 2.723 c 0.53,1.67 1.26,3.133 2.138,4.3 a 11.872,11.872 0 0 1 -4.86,-4.3 z m 17.197,0 h 2.717 a 11.872,11.872 0 0 1 -4.857,4.3 c 0.878,-1.17 1.608,-2.63 2.14,-4.3 z M 20.29,28.86 v 6.286 h -2.86 l 6.555,7.996 6.586,-7.996 h -2.86 V 28.86 h -7.42 z"
     id="path2"
     inkscape:connector-curvature="0"
     style="fill:#1a1a1a;fill-opacity:0.98999999" />
</svg>
