<?xml version="1.0" encoding="UTF-8" standalone="no"?>
<svg
   xmlns:dc="http://purl.org/dc/elements/1.1/"
   xmlns:cc="http://creativecommons.org/ns#"
   xmlns:rdf="http://www.w3.org/1999/02/22-rdf-syntax-ns#"
   xmlns:svg="http://www.w3.org/2000/svg"
   xmlns="http://www.w3.org/2000/svg"
   xmlns:sodipodi="http://sodipodi.sourceforge.net/DTD/sodipodi-0.dtd"
   xmlns:inkscape="http://www.inkscape.org/namespaces/inkscape"
   width="48"
   height="48"
   viewBox="0 0 12.7 12.7"
   version="1.1"
   id="svg15"
   sodipodi:docname="mnotify-some-wireframe-pkexec.svg"
   inkscape:version="0.92.4 (5da689c313, 2019-01-14)">
  <metadata
     id="metadata19">
    <rdf:RDF>
      <cc:Work
         rdf:about="">
        <dc:format>image/svg+xml</dc:format>
        <dc:type
           rdf:resource="http://purl.org/dc/dcmitype/StillImage" />
        <dc:title></dc:title>
      </cc:Work>
    </rdf:RDF>
  </metadata>
  <sodipodi:namedview
     pagecolor="#ffffff"
     bordercolor="#666666"
     borderopacity="1"
     objecttolerance="10"
     gridtolerance="10"
     guidetolerance="10"
     inkscape:pageopacity="0"
     inkscape:pageshadow="2"
     inkscape:window-width="862"
     inkscape:window-height="480"
     id="namedview17"
     showgrid="false"
     inkscape:zoom="4.9166667"
     inkscape:cx="2.1355932"
     inkscape:cy="24"
     inkscape:window-x="0"
     inkscape:window-y="25"
     inkscape:window-maximized="0"
     inkscape:current-layer="svg15" />
  <defs
     id="defs11">
    <linearGradient
       id="a">
      <stop
         offset="0"
         stop-color="#f89b7e"
         id="stop2" />
      <stop
         offset=".262"
         stop-color="#e35d4f"
         id="stop4" />
      <stop
         offset=".661"
         stop-color="#c6262e"
         id="stop6" />
      <stop
         offset="1"
         stop-color="#690b2c"
         id="stop8" />
    </linearGradient>
  </defs>
  <path
     d="m 6.34,0.07 a 6.29,6.29 0 1 0 0,12.58 6.29,6.29 0 0 0 0,-12.58 z M 6.32,1 A 5.417,5.417 0 0 1 11.73,6.41 5.4,5.4 0 0 1 6.33,11.82 5.4,5.4 0 0 1 0.92,6.42 5.4,5.4 0 0 1 6.32,1 Z m -2.895,2.01 -0.61,1.6 h 3.45 v -1.6 z m 2.96,0 v 1.6 h 3.5 l -0.63,-1.6 z m -3.54,1.75 v 3.6 c 0,0.36 0.14,0.68 0.42,0.93 0.28,0.26 0.62,0.4 1.01,0.4 h 4.15 c 0.4,0 0.74,-0.14 1.02,-0.4 0.28,-0.25 0.42,-0.57 0.42,-0.93 v -3.6 h -0.64 v 3.6 c 0,0.2 -0.08,0.37 -0.23,0.52 A 0.8,0.8 0 0 1 8.425,9.09 H 4.275 A 0.8,0.8 0 0 1 3.715,8.88 0.68,0.68 0 0 1 3.485,8.36 v -3.6 z"
     id="path13"
     inkscape:connector-curvature="0"
     style="fill:#1a1a1a" />
</svg>
