<svg xmlns="http://www.w3.org/2000/svg" width="48" height="48" viewBox="0 0 12.7 12.7"><path fill="#1a1a1a" d="M6.344.073a6.29 6.29 0 0 0-6.29 6.29 6.29 6.29 0 0 0 6.29 6.288 6.29 6.29 0 0 0 6.29-6.289 6.29 6.29 0 0 0-6.29-6.29zm-.018.936a5.407 5.407 0 0 1 5.407 5.407 5.407 5.407 0 0 1-5.407 5.407A5.407 5.407 0 0 1 .92 6.416 5.407 5.407 0 0 1 6.326 1.01zM3.678 2.514l-.879.884.013 5.201 1.763-.004-.012-5.202-.885-.879zm5.32 0l-.88.884.014 5.201 1.762-.004-.012-5.202-.884-.879zm-3.19 0a.333.333 0 0 0-.332.332l-.003.86 1.763.005.002-.861a.333.333 0 0 0-.331-.333l-1.098-.002zm-.336 1.69l-.013 5.203.88.883.883-.88.013-5.201-1.763-.004zm-.896 4.89l-1.762.004.002.86c0 .183.15.332.333.332l1.098-.002c.184 0 .333-.15.332-.334l-.003-.86zm5.32 0l-1.763.004.002.86c0 .183.15.332.333.332l1.098-.002c.184 0 .333-.15.332-.334l-.002-.86z"/></svg>