<svg xmlns="http://www.w3.org/2000/svg" width="48" height="48" viewBox="0 0 12.7 12.7"><path fill="#1a1a1a" d="M6.344.073a6.29 6.29 0 0 0-6.29 6.29 6.29 6.29 0 0 0 6.29 6.288 6.29 6.29 0 0 0 6.29-6.289 6.29 6.29 0 0 0-6.29-6.29zm-.018.936a5.407 5.407 0 0 1 5.407 5.407 5.407 5.407 0 0 1-5.407 5.407A5.407 5.407 0 0 1 .92 6.416 5.407 5.407 0 0 1 6.326 1.01zm2.91 1.236c-.69-.008-1.377.208-2.05.572-.35.19-.66.463-.878.565-1.977-.392-4.156 1.24-4.376 4.103-.018.23-.014.787.1.858 1.122.338 2.698-.035 3.618-.423.256.082.589.142 1.045.159.26-.068.171-.302-.05-.574 1.13-.275 1.641.574 1.826.7.337.288-.694 1.077-.629 1.72.037.356.182.53.182.53.284-.805 1.183-.474 1.132-1.312.682.385.828-.228 1.62-.106-.112-.17-.257-.424-.567-.557-.331-.124-.89-.107-1.036-.53-.026-.477-.019-3.024-1.171-3.803-.169-.34.012-.823.34-1.153.297-.299.742-.574.894-.75zm-5.27 4.018a.151.151 0 0 1 .048.016c.14.203-.45.954-.74.716-.124-.175.434-.768.692-.732zm3.85.017c.246.009.447.054.49.163.098.252-1.763.258-.296.947.365.234.365.59.331.544-.265-.254-.766-.789-1.776-.525a5.654 5.654 0 0 0-.64-.594c.204-.143.452-.3.808-.422.136-.047.672-.129 1.083-.113zm-3.509.895c.144.004.297.022.458.03.128.2.268.457.693.644-.77.31-1.764.609-2.745.502-.126-.013.012.154.818-.852.23-.288.487-.333.776-.324z"/></svg>