<?xml version="1.0" encoding="UTF-8" standalone="no"?>
<svg
   xmlns:dc="http://purl.org/dc/elements/1.1/"
   xmlns:cc="http://creativecommons.org/ns#"
   xmlns:rdf="http://www.w3.org/1999/02/22-rdf-syntax-ns#"
   xmlns:svg="http://www.w3.org/2000/svg"
   xmlns="http://www.w3.org/2000/svg"
   xmlns:sodipodi="http://sodipodi.sourceforge.net/DTD/sodipodi-0.dtd"
   xmlns:inkscape="http://www.inkscape.org/namespaces/inkscape"
   width="48"
   height="48"
   viewBox="0 0 12.7 12.7"
   version="1.1"
   id="svg6"
   sodipodi:docname="postman.svg"
   inkscape:version="0.92.5 (2060ec1f9f, 2020-04-08)">
  <metadata
     id="metadata12">
    <rdf:RDF>
      <cc:Work
         rdf:about="">
        <dc:format>image/svg+xml</dc:format>
        <dc:type
           rdf:resource="http://purl.org/dc/dcmitype/StillImage" />
        <dc:title></dc:title>
      </cc:Work>
    </rdf:RDF>
  </metadata>
  <defs
     id="defs10" />
  <sodipodi:namedview
     pagecolor="#ffffff"
     bordercolor="#666666"
     borderopacity="1"
     objecttolerance="10"
     gridtolerance="10"
     guidetolerance="10"
     inkscape:pageopacity="0"
     inkscape:pageshadow="2"
     inkscape:window-width="1087"
     inkscape:window-height="480"
     id="namedview8"
     showgrid="false"
     inkscape:zoom="4.9166667"
     inkscape:cx="2.1355932"
     inkscape:cy="24"
     inkscape:window-x="0"
     inkscape:window-y="25"
     inkscape:window-maximized="0"
     inkscape:current-layer="svg6" />
  <path
     d="M 6.344,0.077 A 6.267,6.267 0 0 0 0.076,6.344 6.267,6.267 0 0 0 1.233,9.964 L 1.825,9.357 A 5.388,5.388 0 0 1 0.937,6.398 5.388,5.388 0 0 1 6.327,1.009 5.388,5.388 0 0 1 11.714,6.399 5.388,5.388 0 0 1 6.326,11.786 5.388,5.388 0 0 1 3.384,10.907 C 3.204,11.02 3.065,11.151 2.87,11.252 l 0.085,0.365 A 6.267,6.267 0 0 0 6.344,12.611 6.267,6.267 0 0 0 12.611,6.344 6.267,6.267 0 0 0 6.344,0.077 Z M 8.303,2.705 A 1.221,1.221 0 0 0 7.077,3.787 C 7.042,4.102 7.134,4.399 7.307,4.636 6.821,4.432 6.14,4.696 6.14,4.696 c 0,0 -1.047,0.373 -2.667,2.377 L 4.25,7.834 4.244,7.839 1.19,10.975 l 1.224,1.2 -0.288,-1.23 C 3.426,10.275 4.381,9.315 5.128,8.703 7.045,7.13 7.38,5.917 7.38,5.917 c 0,0 0.097,-0.253 0.134,-0.542 L 7.517,5.365 C 7.55,5.159 7.539,4.997 7.474,4.853 A 0.671,0.671 0 0 0 7.452,4.81 L 7.442,4.788 A 1.215,1.215 0 0 0 8.856,5.002 L 8.862,5.008 C 8.872,5.01 9.127,4.893 9.333,4.594 9.559,4.266 9.548,3.776 9.503,3.63 9.447,3.452 9.323,3.163 9.105,3.012 V 3.014 A 1.22,1.22 0 0 0 8.303,2.704 Z M 9.014,3.263 C 9.177,3.376 9.27,3.593 9.312,3.726 9.346,3.835 9.355,4.202 9.185,4.448 A 0.869,0.869 0 0 1 8.833,4.758 C 8.815,4.755 8.156,4.05 8.156,4.05 Z"
     id="path2"
     inkscape:connector-curvature="0"
     style="fill:#1a1a1a" />
  <path
     d="M 3.477,7.07 2.5,8.211 4.252,7.834 3.494,7.082 3.477,7.068 Z M 1.3,10.955 0.288,11.998 H 2.295 L 2.263,11.912 1.301,10.956 Z"
     id="path4"
     inkscape:connector-curvature="0"
     style="opacity:0.8;fill:#ff6600" />
</svg>
