<svg xmlns="http://www.w3.org/2000/svg" width="48" height="48" viewBox="0 0 12.7 12.7"><path d="M6.35.06a6.29 6.29 0 0 0-6.29 6.3 6.29 6.29 0 0 0 6.3 6.28 6.29 6.29 0 0 0 6.28-6.29A6.29 6.29 0 0 0 6.35.06zm-.02.93l.01.01a5.4 5.4 0 0 1 5.4 5.4 5.4 5.4 0 0 1-5.4 5.41 5.4 5.4 0 0 1-5.41-5.4A5.4 5.4 0 0 1 6.33.99zm-.93.6a.32.32 0 0 0-.32.31v1.91c0 .18.14.32.32.32h1.9c.18 0 .32-.14.32-.32v-1.9a.32.32 0 0 0-.32-.32zm-1.3.25a5.05 5.05 0 0 0-.09.04 5.05 5.05 0 0 0-.43.26 5.05 5.05 0 0 0-.41.3 5.05 5.05 0 0 0-.38.33 5.05 5.05 0 0 0-.34.37 5.05 5.05 0 0 0-.3.4 5.05 5.05 0 0 0-.27.43 5.05 5.05 0 0 0-.06.12c.03.01.05.04.08.04h1.91c.18 0 .32-.14.32-.32v-1.9c0-.03-.02-.04-.03-.07zm4.49.03c0 .02-.02.02-.02.03v1.91c0 .18.14.32.32.32h1.9l.05-.02a5.05 5.05 0 0 0 0-.01 5.05 5.05 0 0 0-.26-.44 5.05 5.05 0 0 0-.3-.41 5.05 5.05 0 0 0-.33-.38 5.05 5.05 0 0 0-.37-.35 5.05 5.05 0 0 0-.4-.3 5.05 5.05 0 0 0-.43-.27 5.05 5.05 0 0 0-.16-.08zM1.9 5.08a.32.32 0 0 0-.31.32v1.9c0 .18.14.32.31.32h1.91c.18 0 .32-.14.32-.32V5.4a.32.32 0 0 0-.32-.32zm3.5 0a.32.32 0 0 0-.32.32v1.9c0 .18.14.32.32.32h1.9c.18 0 .32-.14.32-.32V5.4a.32.32 0 0 0-.32-.32zm3.49 0a.32.32 0 0 0-.32.32v1.9c0 .18.14.32.32.32h1.9c.18 0 .32-.14.32-.32V5.4a.32.32 0 0 0-.31-.32zM1.9 8.58c-.04 0-.07.02-.11.04a5.05 5.05 0 0 0 .03.08 5.05 5.05 0 0 0 .26.43 5.05 5.05 0 0 0 .29.41 5.05 5.05 0 0 0 .33.38 5.05 5.05 0 0 0 .37.35 5.05 5.05 0 0 0 .4.3 5.05 5.05 0 0 0 .44.26 5.05 5.05 0 0 0 .17.09c.02-.04.05-.08.05-.12V8.89a.32.32 0 0 0-.32-.32zm3.5 0a.32.32 0 0 0-.32.31v1.9c0 .18.14.32.32.32h1.9c.18 0 .32-.14.32-.31V8.89a.32.32 0 0 0-.32-.32zm3.49 0a.32.32 0 0 0-.32.31v1.9c0 .05.03.07.05.11a5.05 5.05 0 0 0 .01 0 5.05 5.05 0 0 0 .44-.26 5.05 5.05 0 0 0 .4-.3 5.05 5.05 0 0 0 .39-.33 5.05 5.05 0 0 0 .34-.37 5.05 5.05 0 0 0 .3-.4 5.05 5.05 0 0 0 .27-.43 5.05 5.05 0 0 0 .1-.2l-.07-.04z" fill="#1a1a1a"/></svg>