<svg xmlns="http://www.w3.org/2000/svg" width="48" height="48" viewBox="0 0 12.7 12.7"><path d="M6.34.07a6.29 6.29 0 0 0-6.29 6.3 6.29 6.29 0 0 0 6.3 6.28 6.29 6.29 0 0 0 6.28-6.29A6.29 6.29 0 0 0 6.34.07zM6.32 1l.01.01a5.4 5.4 0 0 1 5.4 5.4 5.4 5.4 0 0 1-5.4 5.41 5.4 5.4 0 0 1-5.41-5.4A5.4 5.4 0 0 1 6.32 1zm.48 1.58c-.91 0-1.75.52-2.15 1.34A1.2 1.2 0 0 0 2.9 5.1c-.54.2-.92.75-.92 1.4 0 .82.63 1.5 1.4 1.5h5.63c.13 0 .24-.03.36-.06a1.65 1.65 0 0 0-.19-3.26v-.01a2.4 2.4 0 0 0-2.38-2.1zm-.6 1.2l.9.91.9.9H6.8v1.8H5.6V5.6H4.4l.9-.9.9-.9z" fill="#1a1a1a"/></svg>