<svg xmlns="http://www.w3.org/2000/svg" width="48" height="48" viewBox="0 0 12.7 12.7"><path d="M6.34.07a6.29 6.29 0 0 0-6.29 6.3 6.29 6.29 0 0 0 6.3 6.28 6.29 6.29 0 0 0 6.28-6.29A6.29 6.29 0 0 0 6.34.07zm-.42.94V2.1a4.27 4.27 0 0 0-3.75 3.4h.87a3.42 3.42 0 0 1 3.31-2.57 3.42 3.42 0 0 1 3.3 2.57h.89a4.27 4.27 0 0 0-3.76-3.4V1.03a5.4 5.4 0 0 1 4.95 5.38 5.4 5.4 0 0 1-4.95 5.39v-1.2a4.27 4.27 0 0 0 3.75-3.4h-.87a3.42 3.42 0 0 1-3.31 2.57 3.42 3.42 0 0 1-3.3-2.57h-.89a4.27 4.27 0 0 0 3.76 3.4v1.2a5.4 5.4 0 0 1-5-5.38 5.4 5.4 0 0 1 5-5.4zm.43 2.78a2.56 2.56 0 0 0-2.56 2.56 2.56 2.56 0 0 0 .03.43H8a1.71 1.71 0 0 1-1.65 1.28 1.71 1.71 0 0 1-1.13-.43H4.13a2.56 2.56 0 0 0 2.22 1.28 2.56 2.56 0 0 0 2.56-2.56 2.56 2.56 0 0 0-.03-.43H4.7a1.71 1.71 0 0 1 1.65-1.28 1.71 1.71 0 0 1 1.13.43h1.09a2.56 2.56 0 0 0-2.22-1.28z" fill="#1a1a1a"/></svg>