<svg xmlns="http://www.w3.org/2000/svg" width="48" height="48" viewBox="0 0 12.7 12.7"><path d="M6.34.07a6.29 6.29 0 0 0-6.29 6.3 6.29 6.29 0 0 0 6.3 6.28 6.29 6.29 0 0 0 6.28-6.29A6.29 6.29 0 0 0 6.34.07zm-.01.94a5.4 5.4 0 0 1 5.4 5.4 5.4 5.4 0 0 1-5.4 5.41 5.4 5.4 0 0 1-5.41-5.4A5.4 5.4 0 0 1 6.32 1zm.01 1.18a4.17 4.17 0 0 0-3.9 2.73h-.02l-.03.13a4.17 4.17 0 0 0-.04.1h.01a5.55 5.55 0 0 0 .17 3.14l.06.03 2.26-3.4h-1.5a3.34 3.34 0 0 1 2.98-1.86A3.34 3.34 0 0 1 9.67 6.4a3.34 3.34 0 0 1-3.32 3.34v.8a4.17 4.17 0 0 0 4.17-4.18A4.17 4.17 0 0 0 6.34 2.2z" fill="#1a1a1a"/></svg>