<svg xmlns="http://www.w3.org/2000/svg" width="48" height="48" viewBox="0 0 12.7 12.7"><path d="M6.34.07a6.29 6.29 0 0 0-6.29 6.3 6.29 6.29 0 0 0 6.3 6.28 6.29 6.29 0 0 0 6.28-6.29A6.29 6.29 0 0 0 6.34.07zM6.32 1l.01.01a5.4 5.4 0 0 1 5.4 5.4 5.4 5.4 0 0 1-5.4 5.41 5.4 5.4 0 0 1-5.41-5.4A5.4 5.4 0 0 1 6.32 1zm.22.85h-.18C4.79 1.99 5.2 3.64 5.19 4.2a2 2 0 0 1-.4 1.12 5.53 5.53 0 0 0-1 1.67 2 2 0 0 0-.1.92.69.69 0 0 0-.05.04c-.1.1-.16.23-.24.31-.08.07-.18.1-.3.14a.53.53 0 0 0-.32.25.45.45 0 0 0-.04.22c0 .07 0 .14.02.2.02.14.04.27.01.36-.1.25-.1.43-.04.55.07.13.2.18.35.22.3.06.7.04 1.03.21.34.18.69.25.96.18.2-.04.37-.16.45-.35.22 0 .46-.1.84-.11.26-.02.58.09.95.07l.04.12a.7.7 0 0 0 .7.4c.29-.03.6-.2.84-.49l-.05-.04.05.04c.23-.28.62-.4.88-.56.13-.07.23-.17.24-.31 0-.14-.08-.3-.27-.51-.06-.08-.09-.2-.12-.35-.03-.14-.07-.29-.18-.38a.47.47 0 0 0-.15-.09 2 2 0 0 0-.06-1.37 4.6 4.6 0 0 0-.8-1.28c-.3-.38-.59-.73-.58-1.25 0-.8.09-2.27-1.31-2.27zm.18 1.22c.08 0 .15.03.22.08a.5.5 0 0 1 .17.2c.04.09.06.18.06.28a.67.67 0 0 1-.14.42A2.6 2.6 0 0 0 6.9 4l-.08-.02c.02-.03.06-.05.07-.09.02-.04.03-.1.03-.15 0-.06 0-.1-.02-.16a.28.28 0 0 0-.07-.11.14.14 0 0 0-.1-.05.15.15 0 0 0-.1.04.28.28 0 0 0-.08.11.46.46 0 0 0-.03.25 1.13 1.13 0 0 0-.22-.07v-.09c0-.11.01-.2.05-.3a.5.5 0 0 1 .16-.2.35.35 0 0 1 .22-.08zm-1.08.09c.05 0 .1.02.15.06.05.04.09.1.12.17.04.07.06.15.06.24v.1a.66.66 0 0 0-.18.09.42.42 0 0 0-.03-.22.23.23 0 0 0-.06-.1.1.1 0 0 0-.07-.02c-.03 0-.05.01-.07.04a.23.23 0 0 0-.05.1.4.4 0 0 0 .02.26.23.23 0 0 0 .08.1l-.07.05-.04.03a.45.45 0 0 1-.1-.15.68.68 0 0 1-.06-.24c0-.1 0-.17.03-.25a.43.43 0 0 1 .1-.19.23.23 0 0 1 .17-.07zm.5.62c.12 0 .26.04.44.16.11.07.2.07.4.16.09.04.14.09.17.14a.2.2 0 0 1 0 .17c-.04.12-.19.25-.39.31-.1.04-.18.1-.29.17-.1.05-.21.1-.37.1a.48.48 0 0 1-.28-.12c-.08-.06-.14-.13-.23-.18-.15-.09-.23-.18-.26-.27-.02-.08 0-.15.08-.2l.17-.14.07-.05c.06-.06.16-.17.31-.22.05-.02.1-.03.17-.03zm-.16.15h-.06c-.02.02-.06.03-.05.06l.05.02c.02 0 .03-.02.05-.03.02 0 .05 0 .06-.03l-.01-.02h-.04zm.3 0h-.03l-.02.02c.01.02.05.02.07.03.01.01.03.03.05.03.02 0 .04 0 .05-.02 0-.03-.04-.04-.06-.05a.15.15 0 0 0-.06-.01zm.66.32c-.04 0-.04.04-.1.08l-.24.17a1.2 1.2 0 0 1-.52.18.7.7 0 0 1-.43-.17l-.13-.12c-.03-.02-.03-.08-.08-.08-.02 0-.03.06.03.11l.14.12c.11.1.27.19.47.19.2 0 .4-.1.55-.19.09-.04.2-.12.26-.18.07-.06.1-.1.05-.11zm.23.28c.13.53.44 1.28.64 1.65.1.2.32.62.4 1.12.07 0 .13 0 .2.03.24-.62-.2-1.29-.4-1.47-.09-.08-.09-.12-.05-.11.22.19.5.58.61 1.02.05.2.06.4 0 .61l.08.04c.38.18.53.35.46.57h-.07c.05-.18-.07-.3-.4-.46-.34-.14-.6-.13-.65.17l-.01.05a.52.52 0 0 0-.08.04c-.16.08-.24.24-.3.43-.04.2-.05.43-.07.7 0 .13-.06.3-.11.5-.56.4-1.33.56-1.98.12a2.91 2.91 0 0 0-.25-.34c.06 0 .12-.01.17-.03.05-.03.1-.07.11-.12.04-.11 0-.26-.12-.44a2.34 2.34 0 0 0-.67-.56.94.94 0 0 1-.42-.52c-.06-.19-.05-.4 0-.6.08-.4.32-.79.46-1.03.04-.03.02.06-.15.36-.14.28-.42.92-.04 1.43a3 3 0 0 1 .24-1.07c.2-.47.64-1.3.68-1.95l.1.07c.09.05.15.12.22.18a.54.54 0 0 0 .37.13c.15 0 .27-.05.37-.1.1-.07.19-.14.27-.16.17-.06.31-.15.39-.26zm.8 3.35c.02.23.13.46.33.5.22.07.53-.12.67-.27h.07c.12 0 .22 0 .32.08.08.07.11.2.14.33.04.14.06.29.16.4.18.2.24.33.23.42 0 .09-.07.15-.18.22-.24.14-.65.27-.91.59-.23.27-.51.42-.76.44a.57.57 0 0 1-.58-.34c-.08-.15-.05-.38.02-.62.06-.25.16-.5.17-.7.01-.27.03-.5.07-.68.05-.17.12-.3.24-.36l.02-.01zm-4 .02a.4.4 0 0 1 .07 0c.14.02.26.12.38.28l.33.61c.1.2.28.4.44.61.17.21.29.42.27.58-.02.28-.17.43-.41.49-.24.05-.57 0-.89-.17-.36-.2-.78-.17-1.06-.23-.13-.03-.22-.07-.26-.15-.04-.08-.05-.22.04-.46.05-.13.01-.28 0-.41-.03-.14-.04-.26 0-.35.07-.12.16-.16.26-.2.11-.03.24-.06.34-.17.1-.1.17-.22.25-.3.07-.08.14-.13.24-.13z" fill="#1a1a1a"/></svg>