<?xml version="1.0" encoding="UTF-8" standalone="no"?>
<svg
   xmlns:dc="http://purl.org/dc/elements/1.1/"
   xmlns:cc="http://creativecommons.org/ns#"
   xmlns:rdf="http://www.w3.org/1999/02/22-rdf-syntax-ns#"
   xmlns:svg="http://www.w3.org/2000/svg"
   xmlns="http://www.w3.org/2000/svg"
   xmlns:sodipodi="http://sodipodi.sourceforge.net/DTD/sodipodi-0.dtd"
   xmlns:inkscape="http://www.inkscape.org/namespaces/inkscape"
   width="48"
   height="48"
   viewBox="0 0 12.7 12.7"
   version="1.1"
   id="svg4"
   sodipodi:docname="vmpk.svg"
   inkscape:version="0.92.4 (5da689c313, 2019-01-14)">
  <metadata
     id="metadata10">
    <rdf:RDF>
      <cc:Work
         rdf:about="">
        <dc:format>image/svg+xml</dc:format>
        <dc:type
           rdf:resource="http://purl.org/dc/dcmitype/StillImage" />
        <dc:title></dc:title>
      </cc:Work>
    </rdf:RDF>
  </metadata>
  <defs
     id="defs8" />
  <sodipodi:namedview
     pagecolor="#ffffff"
     bordercolor="#666666"
     borderopacity="1"
     objecttolerance="10"
     gridtolerance="10"
     guidetolerance="10"
     inkscape:pageopacity="0"
     inkscape:pageshadow="2"
     inkscape:window-width="1112"
     inkscape:window-height="480"
     id="namedview6"
     showgrid="false"
     inkscape:zoom="4.9166667"
     inkscape:cx="2.1355932"
     inkscape:cy="24"
     inkscape:window-x="0"
     inkscape:window-y="25"
     inkscape:window-maximized="0"
     inkscape:current-layer="svg4" />
  <path
     d="m 6.34,0.07 a 6.29,6.29 0 0 0 0,12.58 6.29,6.29 0 0 0 0,-12.58 z M 6.32,1 A 5.417,5.417 0 0 1 11.73,6.41 5.4,5.4 0 0 1 6.33,11.82 5.4,5.4 0 0 1 0.92,6.42 5.4,5.4 0 0 1 6.32,1 Z M 3.716,2.96 A 0.932,0.932 0 0 0 2.778,3.897 V 8.855 A 0.932,0.932 0 0 0 3.716,9.793 H 8.984 A 0.932,0.932 0 0 0 9.922,8.855 V 3.897 A 0.932,0.932 0 0 0 8.984,2.96 Z M 4.02,3.258 v 0.54 H 4.027 V 5.91 c 0,0.205 0.124,0.373 0.304,0.435 V 9.494 H 4.027 A 0.932,0.932 0 0 1 3.089,8.559 V 4.193 A 0.932,0.932 0 0 1 4.02,3.258 Z m 0.932,0 H 5.896 V 3.823 H 5.9 v 2.112 c 0,0.202 0.127,0.373 0.307,0.435 V 9.494 H 4.63 V 6.351 A 0.464,0.464 0 0 0 4.952,5.913 Z m 1.876,0 H 7.76 v 0.565 h 0.003 v 2.112 c 0,0.202 0.127,0.373 0.307,0.435 V 9.494 H 6.506 V 6.376 A 0.464,0.464 0 0 0 6.828,5.938 Z m 1.863,0 a 0.932,0.932 0 0 1 0.92,0.935 V 8.559 A 0.932,0.932 0 0 1 8.673,9.494 H 8.37 V 6.376 A 0.464,0.464 0 0 0 8.692,5.938 v -2.68 z"
     id="path2"
     inkscape:connector-curvature="0"
     style="fill:#1a1a1a" />
</svg>
