<svg xmlns="http://www.w3.org/2000/svg" width="48" height="48" viewBox="0 0 12.7 12.7"><path fill="#1a1a1a" d="M6.344.073a6.29 6.29 0 0 0-6.29 6.29 6.29 6.29 0 0 0 6.29 6.288 6.29 6.29 0 0 0 6.29-6.289 6.29 6.29 0 0 0-6.29-6.29zm-.018.936a5.407 5.407 0 0 1 5.407 5.407 5.407 5.407 0 0 1-5.407 5.407A5.407 5.407 0 0 1 .92 6.416 5.407 5.407 0 0 1 6.326 1.01zM3.828 2.17a.048.048 0 0 0-.048.05V4.86H2.416a.048.048 0 0 0-.048.049v4.954c0 .027.021.049.048.049h5.139a.049.049 0 0 0 .048-.049V8.238h2.681a.048.048 0 0 0 .049-.048V3.235a.048.048 0 0 0-.049-.048H9.015v-.969a.048.048 0 0 0-.049-.048H3.83zm.425.413h4.33a.04.04 0 0 1 .042.041v.564h-3.48a.048.048 0 0 0-.048.048v1.626h-.885V2.623a.04.04 0 0 1 .041-.04zM5.571 3.6h3.054v3.223a.041.041 0 0 1-.041.042h-.98V4.91a.049.049 0 0 0-.05-.049H5.53v-1.22a.04.04 0 0 1 .04-.042zm3.444 0h.887a.04.04 0 0 1 .04.041v4.2a.04.04 0 0 1-.04.04H7.603v-.658h1.363c.027 0 .05-.022.05-.049zM2.842 5.274h.938v1.899c0 .027.022.048.049.048h1.268v.969c0 .027.022.048.048.048h2.068v1.276a.04.04 0 0 1-.04.041H2.841a.04.04 0 0 1-.041-.041v-4.2a.04.04 0 0 1 .04-.04zm1.37 0h.885v1.59h-.844a.041.041 0 0 1-.04-.042zm1.318 0h1.642a.04.04 0 0 1 .041.04v1.55H5.53zm0 1.948h1.682v.659H5.571a.04.04 0 0 1-.04-.042z"/></svg>