<svg xmlns="http://www.w3.org/2000/svg" width="48" height="48" viewBox="0 0 12.7 12.7"><path fill="#1a1a1a" d="M6.35.061a6.29 6.29 0 0 0-6.289 6.29 6.29 6.29 0 0 0 6.289 6.288 6.29 6.29 0 0 0 6.289-6.288A6.29 6.29 0 0 0 6.35.06zm-.018.936a5.407 5.407 0 0 1 5.407 5.407 5.407 5.407 0 0 1-5.407 5.407A5.407 5.407 0 0 1 .924 6.404 5.407 5.407 0 0 1 6.332.997zm.018.638a4.752 4.752 0 0 0-4.763 4.762A4.752 4.752 0 0 0 6.35 11.16a4.752 4.752 0 0 0 4.762-4.763c0-1.348-.557-2.56-1.452-3.425l-.125 1.065h.048l.104-.082h.028v.024c-.143.105-.281.391-.415.859-.051.402-.137.773-.257 1.115a3.39 3.39 0 0 0-.159.973l-.2.587c0 .05.075.098.228.148-.028.116-.07.174-.125.174v.033h.049v.025c0 .06-.08.09-.236.09l.028.034v.115H8.58c.032.115.1.173.207.173v.058H8.58v.033c.07 0 .103.05.103.15l-.29.114.027.034v.024c0 .039-.034.058-.104.058v.033c.088 0 .132.02.132.058-.125.05-.288.295-.491.735-.208.39-.388.586-.54.586H7.36c-.116-.088-.21-.38-.284-.875-.295-.754-.443-1.197-.443-1.329 0-.341-.095-.705-.284-1.09a3.063 3.063 0 0 1-.104-.644l-.124-.033c-.314.567-.478 1.01-.492 1.33a2.879 2.879 0 0 0-.208.676c.19.06.284.118.284.173v.033c-.148-.022-.251-.063-.311-.123-.065.149-.15.56-.257 1.238-.083.313-.187.47-.311.47a1.992 1.992 0 0 1-.88-.676c-.036 0-.097-.157-.18-.47-.05 0-.085-.158-.103-.472a6.007 6.007 0 0 1-.36-1.527V6.01h-.028l-.125.034V6.01c0-.038.042-.057.125-.057l-.028-.495v-.389l-.2-1.238v-.528c.087-.33.24-.495.457-.495 0 0 .019-.003.082.082l-.082-.025c.337.44.535.812.595 1.115h.235v.057h-.18v.067c.07.253.12.38.152.38h.056l.124-.034.028.033.028-.033.028.033v.025a.485.485 0 0 0-.187.273h-.021v.057h.049c.064.92.184 1.615.36 2.089l.103.082h.055c.07 0 .215-.322.437-.965a4.97 4.97 0 0 0 .311-.768l-.028-.09c.143-.215.291-.323.444-.323h.048c.097 0 .166.06.208.182.13.181.233.454.312.817l.388.859c.05.06.075.129.075.206.143.324.273.54.388.644h.083c.097 0 .226-.402.388-1.205.028 0 .104-.215.229-.644v-.033l-.437-.058-.104.033h-.13v-.066l.262-.025h.512c.199-.71.381-1.26.548-1.651.055-.804.131-1.205.228-1.205l.175-.084a4.742 4.742 0 0 0-2.917-.998zm.415 1.643h.076v.025c0 .038-.025.057-.076.057l-.027.033v.033l-.076-.033v-.057l.103-.058zm-.387.322v.033c0 .044-.111.09-.333.14v-.058l.153-.082.027.024h.021l.132-.057zm-.748.297v.025c-.097.088-.254.167-.471.239v-.058c.037 0 .056-.03.056-.09l.415-.116zm1.315.289l.028.033v.025l-.048.065h-.028l-.056-.065v-.025l.104-.033zm.956.033h.028v.025l-.049.065h-.028v-.033l.05-.057zm-.436.413l.104.082c-.019.06-.07.09-.152.09l-.056-.09c0-.028.034-.055.104-.082zm.623.38l.02.033v.024l-.02.033h-.055v-.033l.055-.057zm-.983.296v.025l-.132.125h-.076v-.034c0-.05.07-.088.208-.116zm-.907 2.527h.027v.058l-.208.123-.027-.033v-.057l.208-.091zm-.076.768h.02l.083.09-.027.025H6.17l-.048-.082v-.033z"/></svg>