<svg xmlns="http://www.w3.org/2000/svg" width="48" height="48" viewBox="0 0 12.7 12.7"><path d="M6.34.07a6.29 6.29 0 0 0-6.29 6.3 6.29 6.29 0 0 0 6.3 6.28 6.29 6.29 0 0 0 6.28-6.29A6.29 6.29 0 0 0 6.34.07zm-.01.94a5.4 5.4 0 0 1 5.4 5.4 5.4 5.4 0 0 1-5.4 5.41 5.4 5.4 0 0 1-5.41-5.4A5.4 5.4 0 0 1 6.32 1zm3.44 1.5a.1.1 0 0 0-.05 0c-.05.18-.62.74-.95 1.1l-.4-.37c-.57-.51-.6.36-.58.38.1-.2.33-.28.74.15l-.43.4c.14.06.27.1.41.09l.28-.24c.44.43.35.47.16.75.28.08.79-.22.33-.6l-.31-.35c.35-.34.8-.83 1.08-.96.07-.14-.13-.36-.27-.36a.1.1 0 0 0-.01 0zm-6.92.02c-.14 0-.35.22-.27.36.28.13.72.62 1.08.96l-.32.34c-.45.39.06.69.34.61-.19-.28-.28-.32.16-.75l.28.24a.94.94 0 0 0 .4-.09l-.43-.4c.41-.43.64-.36.75-.15.01-.02-.01-.9-.58-.38l-.4.38c-.33-.37-.9-.93-.95-1.1a.1.1 0 0 0-.06-.02zm3.5 1.1a6.3 6.3 0 0 1-2.47.8c-.13 2.86.25 4.7 2.48 6.5 2.23-1.8 2.6-3.64 2.47-6.5a6.28 6.28 0 0 1-2.47-.8zm0 .25c.73.46 1.5.6 2.27.73.12 2.6-.22 4.28-2.26 5.94C4.32 8.9 3.97 7.22 4.1 4.61a5.74 5.74 0 0 0 2.26-.73zM4.29 8.62c-.44.47-1.02 1.01-1.04 1.55.45-.22.76-.69 1.2-1.17l-.16-.38zm4.14 0L8.26 9c.44.48.75.95 1.2 1.17-.02-.54-.6-1.08-1.04-1.55z" fill="#1a1a1a"/><path d="M6.36 4.91c-.45.2-.91.33-1.38.45-.07 1.58.14 2.84 1.38 3.85 1.24-1 1.45-2.27 1.37-3.85-.38-.11-.93-.26-1.37-.45z" fill="teal" opacity=".75"/></svg>