<svg xmlns="http://www.w3.org/2000/svg" width="48" height="48" viewBox="0 0 12.7 12.7"><path d="M6.34.07a6.29 6.29 0 0 0-6.29 6.3 6.29 6.29 0 0 0 6.3 6.28 6.29 6.29 0 0 0 6.28-6.29A6.29 6.29 0 0 0 6.34.07zM6.32 1l.01.01a5.4 5.4 0 0 1 5.4 5.4 5.4 5.4 0 0 1-5.4 5.41 5.4 5.4 0 0 1-5.41-5.4A5.4 5.4 0 0 1 6.32 1zm.03 4.12a1.23 1.23 0 0 0-1.23 1.23 1.23 1.23 0 0 0 1.23 1.23 1.23 1.23 0 0 0 1.23-1.23 1.23 1.23 0 0 0-1.23-1.23zm0 .06a.41.41 0 0 1 .41.41.41.41 0 0 1-.41.41.41.41 0 0 1-.41-.4.41.41 0 0 1 .41-.42z" fill="#1a1a1a"/><path d="M6.35 2.65a3.7 3.7 0 0 0-3.7 3.7 3.7 3.7 0 0 0 3.7 3.7 3.7 3.7 0 0 0 3.7-3.7 3.7 3.7 0 0 0-3.7-3.7zm0 2.47a1.23 1.23 0 0 1 1.23 1.23 1.23 1.23 0 0 1-1.23 1.23 1.23 1.23 0 0 1-1.23-1.23 1.23 1.23 0 0 1 1.23-1.23z" opacity=".75" fill="#478be5"/></svg>