<svg xmlns="http://www.w3.org/2000/svg" width="48" height="48" viewBox="0 0 12.7 12.7"><path d="M6.34.07a6.29 6.29 0 0 0-6.29 6.3 6.29 6.29 0 0 0 6.3 6.28 6.29 6.29 0 0 0 6.28-6.29A6.29 6.29 0 0 0 6.34.07zM6.32 1l.01.01a5.4 5.4 0 0 1 5.4 5.4 5.4 5.4 0 0 1-5.4 5.41 5.4 5.4 0 0 1-5.41-5.4A5.4 5.4 0 0 1 6.32 1zM4.5 2.43c-.31-.02-.69.21-1.15.9-.08.12-.02.3.15.23.78-.95 1.21-.8 1.9-.01.14.05.19-.19.14-.22-.31-.44-.63-.88-1.04-.9zm3.65 0c-.41.02-.73.46-1.04.9-.05.03 0 .27.15.22.68-.79 1.1-.94 1.89.01.17.08.23-.1.15-.23-.47-.69-.84-.92-1.15-.9zM4.47 3.57a.66 1.55 0 0 0-.65 1.55.66 1.55 0 0 0 .65 1.54.66 1.55 0 0 0 .66-1.54.66 1.55 0 0 0-.66-1.55zm3.7 0a.66 1.55 0 0 0-.65 1.55.66 1.55 0 0 0 .65 1.54.66 1.55 0 0 0 .66-1.54.66 1.55 0 0 0-.66-1.55zM4.46 4a.2.3 0 0 1 .2.3.2.3 0 0 1-.2.3.2.3 0 0 1-.2-.3.2.3 0 0 1 .2-.3zm3.73 0a.2.3 0 0 1 .2.3.2.3 0 0 1-.2.3.2.3 0 0 1-.2-.3.2.3 0 0 1 .2-.3zm1.66 2.25C8.7 9.18 6.72 9.65 4.35 9l.13.3c2.34.76 4.28.47 5.5-2.74l-.13-.31zM8.36 9.49c-.52.55-1.12.62-1.74.63l.1.32c.62 0 1.21-.13 1.74-.63l-.1-.32z" fill="#ff7f2a"/></svg>