<svg xmlns="http://www.w3.org/2000/svg" xmlns:xlink="http://www.w3.org/1999/xlink" width="48" height="48" viewBox="0 0 12.7 12.7"><defs><linearGradient id="a"><stop offset="0" stop-color="#ff7f2a" stop-opacity="0"/><stop offset="1" stop-color="#ff7f2a"/></linearGradient><radialGradient xlink:href="#a" id="b" cx="6.34" cy="9.12" fx="6.34" fy="9.12" r="1.15" gradientTransform="matrix(1.06588 0 0 1.08775 -.42 -.25)" gradientUnits="userSpaceOnUse"/></defs><path style="marker:none" d="M6.34 7.1A1.15 1.57 0 0 1 7.5 8.66a1.15 1.57 0 0 1-1.15 1.57A1.15 1.57 0 0 1 5.2 8.66 1.15 1.57 0 0 1 6.34 7.1z" overflow="visible" fill="url(#b)"/><path style="marker:none" d="M6.34.07a6.29 6.29 0 0 0-6.29 6.3 6.29 6.29 0 0 0 6.3 6.28 6.29 6.29 0 0 0 6.28-6.29A6.29 6.29 0 0 0 6.34.07zM6.32 1l.01.01a5.4 5.4 0 0 1 5.4 5.4 5.4 5.4 0 0 1-5.4 5.41 5.4 5.4 0 0 1-5.41-5.4A5.4 5.4 0 0 1 6.32 1zm-1.35.72l-.07.02c-.2.04-.38.09-.56.17-.53.24-1 .72-1.32 1.72-.05.15-.12.34-.1.35 0 0 .05-.14.15-.32.66-1.15 1.3-1.55 2.1-1.5.1 0 .08-.22 0-.34-.05-.09-.12-.1-.2-.1zm2.7 0a.22.22 0 0 0-.15.1c-.07.12-.1.34.02.33.78-.04 1.43.36 2.09 1.5l.16.33-.1-.35c-.33-1-.8-1.48-1.33-1.72a2.64 2.64 0 0 0-.69-.19zm.67 1.82a.66 1.55 0 0 0-.65 1.55.66 1.55 0 0 0 .65 1.54A.66 1.55 0 0 0 9 5.1a.66 1.55 0 0 0-.66-1.55zm-3.98.03a.66 1.55 0 0 0-.66 1.55.66 1.55 0 0 0 .66 1.54A.66 1.55 0 0 0 5 5.12a.66 1.55 0 0 0-.65-1.55zm3.97.41a.2.3 0 0 1 .2.3.2.3 0 0 1-.2.3.2.3 0 0 1-.2-.3.2.3 0 0 1 .2-.3zm-3.99.03a.2.3 0 0 1 .2.3.2.3 0 0 1-.2.3.2.3 0 0 1-.2-.3.2.3 0 0 1 .2-.3zm2 2.99a1.22 1.66 0 0 0-1.22 1.66 1.22 1.66 0 0 0 1.22 1.66 1.22 1.66 0 0 0 1.23-1.66A1.22 1.66 0 0 0 6.34 7zm0 .36a.96 1.3 0 0 1 .96 1.3.96 1.3 0 0 1-.96 1.3.96 1.3 0 0 1-.95-1.3.96 1.3 0 0 1 .95-1.3zm-.55 3.42c-.02.1-.15.11 0 .33a1.19 1.19 0 0 0 .8.12 1.17 1.17 0 0 0 .3-.12c.16-.11.1-.22 0-.33a1 1 0 0 1-.2.12.92.92 0 0 1-.9-.12z" overflow="visible" fill="#ff7f2a"/></svg>