<svg xmlns="http://www.w3.org/2000/svg" width="24" height="24"><path d="M9.01 8.08l-5.11.05C1.86 8.21 2 10.01 2 10.41v6.14c-.15 1.72 3.02 1.8 2.9.02l.02-5.87z" fill="#ff7f2a" fill-rule="evenodd" opacity=".6"/><path d="M15.71 1.26c-1.85-.04-3.7.91-3.7 2.86v1.42L3.88 10.4l6.42 11.48c.5.8 1.29 1.11 2.06.7l9.32-5.56c.7-.5 1.04-1.43.58-2.25l-2.85-5.1v-5.4c0-1.97-1.85-2.98-3.7-3.01zm.05 1.05c1.32.03 2.65.92 2.65 2.65v2.9l-2.58-4.59-2.71 1.62v-.06c0-1.72 1.32-2.55 2.64-2.52zm-3.13 7.48h.02a2.07 2.1 87.07 0 1 1.86 1.04 2.07 2.1 87.07 0 1-.78 2.83 2.07 2.1 87.07 0 1-2.87-.76 2.07 2.1 87.07 0 1 .78-2.84 2.07 2.1 87.07 0 1 1-.27z" fill="#ff7f2a" fill-rule="evenodd"/></svg>
