<svg xmlns="http://www.w3.org/2000/svg" xmlns:xlink="http://www.w3.org/1999/xlink" viewBox="0 0 24 24"><path fill="#ff7f2a" stroke="#ff7f2a" stroke-linejoin="round" stroke-width=".49" d="M.61 3.28v7.5l12.57 13v.03l10.18-5.64v-7.53l-10.18 4.78v-.06z"/><path fill="none" stroke="#ff7f2a" stroke-linejoin="round" stroke-width=".49" d="M10.54.4s-1.11.17-.85.8c.26.64-.62.95-1.81 1.43-2.32.91-3.38 1.08-5.28.3C1.9 2.65.6 3.26.6 3.26l12.61 12.15 10.14-4.76z"/><g fill="#ff7f2a"><path d="M5.08 5.81c.77.78 1.78 1.08 5.13-.24 3.42-1.35 3.07-1.55 2.31-2.23-.76-.67-1.1-1-3.92.05C4.7 4.83 4.32 5.04 5.08 5.8z" id="a"/><use xlink:href="#a" transform="translate(3.59 3.01)" height="48" width="48" id="b"/><use xlink:href="#b" transform="rotate(-2.95 77.55 -63.17)" height="48" width="48"/></g></svg>