<svg xmlns="http://www.w3.org/2000/svg" width="24" height="24"><path d="M12 2.54a9.46 9.46 0 0 0-8.3 4.93l8.14 8h.76l7.86-7.7A9.46 9.46 0 0 0 12 2.54zM3.15 8.67A9.46 9.46 0 0 0 2.54 12a9.46 9.46 0 0 0 1.24 4.66l3.72-3.7-4.35-4.29zm17.82.35L17 12.97l2.25 2.25a3.67 3.67 0 0 1 .19.01 3.67 3.67 0 0 1 .36.05 3.67 3.67 0 0 1 .36.08 3.67 3.67 0 0 1 .35.11 3.67 3.67 0 0 1 .23.1 9.46 9.46 0 0 0 .72-3.57 9.46 9.46 0 0 0-.49-2.98zm-12.55 4.8l-3.94 3.91A9.46 9.46 0 0 0 12 21.46a9.46 9.46 0 0 0 3.92-.86 3.67 3.67 0 0 1-.13-.27 3.67 3.67 0 0 1-.12-.35 3.67 3.67 0 0 1-.1-.35 3.67 3.67 0 0 1-.05-.37 3.67 3.67 0 0 1-.02-.36 3.67 3.67 0 0 1 .01-.26 3.67 3.67 0 0 1 .05-.37 3.67 3.67 0 0 1 .08-.36 3.67 3.67 0 0 1 .11-.34 3.67 3.67 0 0 1 .15-.34 3.67 3.67 0 0 1 .19-.32 3.67 3.67 0 0 1 .2-.3 3.67 3.67 0 0 1 .25-.27 3.67 3.67 0 0 1 .27-.25 3.67 3.67 0 0 1 .3-.22 3.67 3.67 0 0 1 .3-.2 3.67 3.67 0 0 1 .34-.16 3.67 3.67 0 0 1 .02 0l-1.7-1.68-2.91 2.9h-1.84l-2.9-2.9v-.01zm10.76 3.08a2 2 0 0 0-2 2 2 2 0 0 0 2 2 2 2 0 0 0 2-2 2 2 0 0 0-2-2z" fill="#ff7f2a"/></svg>
