<svg xmlns="http://www.w3.org/2000/svg" width="24" height="24"><path d="M17.44 2.36v2.76a6.27 7 0 0 0-.16 0 6.27 7 0 0 0-4.5 2.12 7.5 8.37 0 0 1 .1.14 7.5 8.37 0 0 1 .39.71 7.5 8.37 0 0 1 .33.76 7.5 8.37 0 0 1 .2.6 4.22 4.7 0 0 1 3.48-2.05 4.22 4.7 0 0 1 .16 0v3.22l5.51-4.13zM6.8 5.1a6.27 7 0 0 0-5.48 3.62h2.54A4.22 4.7 0 0 1 6.8 7.4a4.22 4.7 0 0 1 4.22 4.7 6.27 7 0 0 0 6.27 7 6.27 7 0 0 0 .16-.01v2.55l5.51-4.13-5.5-4.13v3.42a4.22 4.7 0 0 1-.17.01 4.22 4.7 0 0 1-4.22-4.7 6.27 7 0 0 0-6.27-7zm3.7 9.25a4.22 4.7 0 0 1-3.7 2.45 4.22 4.7 0 0 1-3.39-1.92H1.05a6.27 7 0 0 0 5.74 4.2 6.27 7 0 0 0 4.68-2.34 7.5 8.37 0 0 1-.35-.63 7.5 8.37 0 0 1-.32-.76 7.5 8.37 0 0 1-.26-.78 7.5 8.37 0 0 1-.05-.22z" fill="#ff7f2a"/></svg>