<svg xmlns="http://www.w3.org/2000/svg" width="24" height="24" id="svg7"><defs id="defs3"><style id="current-color-scheme"></style></defs><path style="font-variant-ligatures:normal;font-variant-position:normal;font-variant-caps:normal;font-variant-numeric:normal;font-variant-alternates:normal;font-feature-settings:normal;text-indent:0;text-decoration-line:none;text-decoration-style:solid;text-decoration-color:#000;text-transform:none;text-orientation:mixed;shape-padding:0;isolation:auto;mix-blend-mode:normal" d="M12 1.36C6.16 1.36 1.36 6.16 1.36 12c0 5.84 4.8 10.64 10.64 10.64 1.04 0 1.98-.32 2.93-.6l-1.52-.87c-.24-.14-.21-.64.06-1.12l5-8.66c.21-.36.5-.6.73-.65a.3.3 0 0 1 .2.03l3.12 1.8c.01-.2.12-.37.12-.57 0-5.84-4.8-10.64-10.64-10.64zm0 6.08c2.55 0 4.56 2 4.56 4.56 0 2.55-2 4.56-4.56 4.56-2.55 0-4.56-2-4.56-4.56 0-2.55 2-4.56 4.56-4.56zm0 1.52A3.05 3.05 0 0 0 8.96 12 3.05 3.05 0 0 0 12 15.04 3.05 3.05 0 0 0 15.04 12 3.05 3.05 0 0 0 12 8.96zm0 1.52c.85 0 1.52.67 1.52 1.52A1.5 1.5 0 0 1 12 13.52 1.5 1.5 0 0 1 10.48 12c0-.85.67-1.52 1.52-1.52zm7.52 1.3c-.2.04-.44.25-.61.55l-.92 1.59 4.42 2.5.9-1.55c.23-.4.25-.83.05-.94L19.7 11.8a.26.26 0 0 0-.18-.02zm-1.93 2.84l-2.91 5.04c-.24.4-.26.83-.06.94l3.66 2.12c.2.11.56-.12.8-.52L22 17.13l-4.41-2.5z" id="path2-3" color="#bebebe" font-weight="400" font-family="sans-serif" white-space="normal" overflow="visible" fill="#ff7f2a" stroke-width="1.7"/></svg>
