<?xml version="1.0" encoding="UTF-8" standalone="no"?>
<svg
   xmlns:dc="http://purl.org/dc/elements/1.1/"
   xmlns:cc="http://creativecommons.org/ns#"
   xmlns:rdf="http://www.w3.org/1999/02/22-rdf-syntax-ns#"
   xmlns:svg="http://www.w3.org/2000/svg"
   xmlns="http://www.w3.org/2000/svg"
   xmlns:xlink="http://www.w3.org/1999/xlink"
   xmlns:sodipodi="http://sodipodi.sourceforge.net/DTD/sodipodi-0.dtd"
   xmlns:inkscape="http://www.inkscape.org/namespaces/inkscape"
   width="48"
   height="48"
   viewBox="0 0 12.7 12.7"
   version="1.1"
   id="svg8"
   sodipodi:docname="logo.svg"
   inkscape:version="0.92.3 (2405546, 2018-03-11)">
  <metadata
     id="metadata14">
    <rdf:RDF>
      <cc:Work
         rdf:about="">
        <dc:format>image/svg+xml</dc:format>
        <dc:type
           rdf:resource="http://purl.org/dc/dcmitype/StillImage" />
        <dc:title></dc:title>
      </cc:Work>
    </rdf:RDF>
  </metadata>
  <defs
     id="defs12">
    <linearGradient
       inkscape:collect="always"
       id="linearGradient819">
      <stop
         style="stop-color:#216778;stop-opacity:1"
         offset="0"
         id="stop815" />
      <stop
         style="stop-color:#37abc8;stop-opacity:1"
         offset="1"
         id="stop817" />
    </linearGradient>
    <linearGradient
       inkscape:collect="always"
       xlink:href="#linearGradient819"
       id="linearGradient821"
       x1="5.4893265"
       y1="12.111509"
       x2="9.1851091"
       y2="1.2473515"
       gradientUnits="userSpaceOnUse" />
  </defs>
  <sodipodi:namedview
     pagecolor="#ffffff"
     bordercolor="#666666"
     borderopacity="1"
     objecttolerance="10"
     gridtolerance="10"
     guidetolerance="10"
     inkscape:pageopacity="0"
     inkscape:pageshadow="2"
     inkscape:window-width="1366"
     inkscape:window-height="714"
     id="namedview10"
     showgrid="false"
     inkscape:zoom="5.2604167"
     inkscape:cx="24"
     inkscape:cy="24"
     inkscape:window-x="0"
     inkscape:window-y="25"
     inkscape:window-maximized="1"
     inkscape:current-layer="svg8" />
  <path
     style="fill:#1a1a1a;stroke:#1a1a1a;stroke-width:0.155"
     d="M 6.37,0.298 A 6.01,6.055 0 0 0 0.35800037,6.352 6.01,6.055 0 0 0 6.37,12.407 6.01,6.055 0 0 0 12.38,6.352 6.01,6.055 0 0 0 6.37,0.298 Z"
     id="path823"
     inkscape:connector-curvature="0" />
  <path
     style="fill:url(#linearGradient821);stroke:none;stroke-width:0.155;fill-opacity:1"
     d="M 6.3700003,0.805 A 5.507,5.547 0 0 1 11.876,6.352 5.507,5.547 0 0 1 6.3700003,11.9 5.507,5.547 0 0 1 0.86199993,6.352 5.507,5.547 0 0 1 6.3700003,0.805 Z"
     id="path2"
     inkscape:connector-curvature="0" />
  <path
     d="M6.37 1.566c-2.633 0-4.77 1.873-4.77 4.505l.003.28v.305h8.842a4.097 4.097 0 0 1-8.062.756l-.663.122a4.766 4.766 0 0 0 4.622 3.6c2.628 0 4.753-1.852 4.759-4.478v-.011V6.054H2.266a4.097 4.097 0 0 1 8.062-.766l.662-.121a4.766 4.766 0 0 0-4.62-3.601z"
     fill="maroon"
     id="path4"
     style="fill:#ffffff" />
  <path
     d="M6.472 3.057a3.125 3.125 0 0 0-2.297.966c-1.242 1.288-1.242 3.377 0 4.665l.002.004a3.208 3.208 0 0 0 4.5 0l.002-.004-.335-.331c-1.061 1.044-2.8 1.062-3.87.026a2.91 2.91 0 0 1 .004-4.006 2.668 2.668 0 0 1 3.865-.007l.334-.348-.002-.004a3.128 3.128 0 0 0-2.203-.965zM8.68 8.692z"
     fill="#1a1a1a"
     stroke="#1a1a1a"
     stroke-width=".236"
     id="path6" />
</svg>
