<svg xmlns="http://www.w3.org/2000/svg" width="48" height="48" viewBox="0 0 12.7 12.7"><path d="M6.37.298A6.01 6.055 0 0 0 .358 6.352a6.01 6.055 0 0 0 6.012 6.055 6.01 6.055 0 0 0 6.01-6.055A6.01 6.055 0 0 0 6.37.298zm0 .507a5.507 5.547 0 0 1 5.506 5.547A5.507 5.547 0 0 1 6.37 11.9 5.507 5.547 0 0 1 .862 6.352 5.507 5.547 0 0 1 6.37.805z" fill="#1a1a1a" stroke="#1a1a1a" stroke-width=".155"/><path d="M6.37 1.566c-2.633 0-4.77 1.873-4.77 4.505l.003.28v.305h8.842a4.097 4.097 0 0 1-8.062.756l-.663.122a4.766 4.766 0 0 0 4.622 3.6c2.628 0 4.753-1.852 4.759-4.478v-.011V6.054H2.266a4.097 4.097 0 0 1 8.062-.766l.662-.121a4.766 4.766 0 0 0-4.62-3.601z" fill="maroon"/><path d="M6.472 3.057a3.125 3.125 0 0 0-2.297.966c-1.242 1.288-1.242 3.377 0 4.665l.002.004a3.208 3.208 0 0 0 4.5 0l.002-.004-.335-.331c-1.061 1.044-2.8 1.062-3.87.026a2.91 2.91 0 0 1 .004-4.006 2.668 2.668 0 0 1 3.865-.007l.334-.348-.002-.004a3.128 3.128 0 0 0-2.203-.965zM8.68 8.692z" fill="#1a1a1a" stroke="#1a1a1a" stroke-width=".236"/></svg>