<svg xmlns="http://www.w3.org/2000/svg" xmlns:xlink="http://www.w3.org/1999/xlink" width="48" height="48" viewBox="0 0 12.7 12.7"><defs><linearGradient id="a"><stop offset="0" stop-color="#216778"/><stop offset="1" stop-color="#37abc8"/></linearGradient><linearGradient gradientTransform="matrix(.87898 0 0 .87898 -15.123 .766)" xlink:href="#a" id="c" x1="5.489" y1="12.112" x2="9.185" y2="1.247" gradientUnits="userSpaceOnUse"/><filter id="e" x="-.054" width="1.108" y="-.046" height="1.091" color-interpolation-filters="sRGB"><feGaussianBlur stdDeviation=".131"/></filter><filter id="b" x="-.032" width="1.065" y="-.032" height="1.064" color-interpolation-filters="sRGB"><feGaussianBlur stdDeviation=".131"/></filter><filter id="d" x="-.024" width="1.048" y="-.024" height="1.048" color-interpolation-filters="sRGB"><feGaussianBlur stdDeviation=".131"/></filter></defs><path d="M6.351.215A6.09 6.134 0 0 1 12.44 6.35a6.09 6.134 0 0 1-6.089 6.136A6.09 6.134 0 0 1 .26 6.349 6.09 6.134 0 0 1 6.351.215z" fill="#1a1a1a"/><path d="M6.351.876a5.434 5.474 0 0 1 5.433 5.474 5.434 5.474 0 0 1-5.433 5.474A5.434 5.474 0 0 1 .916 6.35 5.434 5.474 0 0 1 6.35.876z" fill="teal"/><path d="M6.35 1.474A4.84 4.876 0 0 0 1.51 6.349a4.84 4.876 0 0 0 .02.38H10.52a4.189 4.219 0 0 1-4.17 3.84 4.189 4.219 0 0 1-4.045-3.14l-.632.16a4.84 4.876 0 0 0 4.677 3.637 4.84 4.876 0 0 0 4.84-4.877 4.84 4.876 0 0 0-.016-.33H2.177a4.189 4.219 0 0 1 4.174-3.888 4.189 4.219 0 0 1 4.048 3.154l.629-.167A4.84 4.876 0 0 0 6.35 1.474z" fill="#f9f9f9"/><path d="M6.35 2.92a3.406 3.43 0 0 0-3.406 3.43 3.406 3.43 0 0 0 3.407 3.43 3.406 3.43 0 0 0 2.41-1.008l-.509-.508a2.69 2.71 0 0 1-1.901.796 2.69 2.71 0 0 1-2.692-2.71 2.69 2.71 0 0 1 2.692-2.71 2.69 2.71 0 0 1 1.915.807l.506-.506A3.406 3.43 0 0 0 6.35 2.92zM22.226.215a6.09 6.134 0 0 0-6.091 6.134 6.09 6.134 0 0 0 6.091 6.136 6.09 6.134 0 0 0 6.09-6.136 6.09 6.134 0 0 0-6.09-6.134zm0 .66a5.434 5.474 0 0 1 5.433 5.474 5.434 5.474 0 0 1-5.433 5.475 5.434 5.474 0 0 1-5.435-5.475A5.434 5.474 0 0 1 22.226.876z" fill="#1a1a1a"/><path d="M22.226 1.474a4.84 4.876 0 0 0-4.842 4.875 4.84 4.876 0 0 0 .02.38H26.395a4.189 4.219 0 0 1-4.17 3.84 4.189 4.219 0 0 1-4.045-3.14l-.632.16a4.84 4.876 0 0 0 4.677 3.637 4.84 4.876 0 0 0 4.84-4.877 4.84 4.876 0 0 0-.016-.33H18.052a4.189 4.219 0 0 1 4.174-3.888 4.189 4.219 0 0 1 4.048 3.154l.629-.167a4.84 4.876 0 0 0-4.677-3.644z" fill="#a02c2c"/><path d="M22.226 2.92a3.406 3.43 0 0 0-3.407 3.43 3.406 3.43 0 0 0 3.407 3.43 3.406 3.43 0 0 0 2.41-1.008l-.509-.508a2.69 2.71 0 0 1-1.901.796 2.69 2.71 0 0 1-2.692-2.71 2.69 2.71 0 0 1 2.692-2.71 2.69 2.71 0 0 1 1.915.807l.506-.506a3.406 3.43 0 0 0-2.421-1.022z" fill="#1a1a1a"/><path d="M-9.524 1.62a4.84 4.876 0 0 0-4.842 4.876 4.84 4.876 0 0 0 .02.38H-5.355a4.189 4.219 0 0 1-4.17 3.84 4.189 4.219 0 0 1-4.045-3.14l-.632.16a4.84 4.876 0 0 0 4.677 3.637 4.84 4.876 0 0 0 4.84-4.877 4.84 4.876 0 0 0-.016-.33H-13.698a4.189 4.219 0 0 1 4.174-3.889 4.189 4.219 0 0 1 4.048 3.155l.629-.167A4.84 4.876 0 0 0-9.524 1.62z" opacity=".2" filter="url(#b)"/><path d="M-9.524 1.474a4.84 4.876 0 0 0-4.842 4.875 4.84 4.876 0 0 0 .02.38H-5.355a4.189 4.219 0 0 1-4.17 3.84 4.189 4.219 0 0 1-4.045-3.14l-.632.16a4.84 4.876 0 0 0 4.677 3.637 4.84 4.876 0 0 0 4.84-4.877 4.84 4.876 0 0 0-.016-.33H-13.698a4.189 4.219 0 0 1 4.174-3.888 4.189 4.219 0 0 1 4.048 3.154l.629-.167a4.84 4.876 0 0 0-4.677-3.644z" fill="url(#c)"/><path d="M-9.5.396a6.059 6.104 0 0 0-2.356.48l.001.002a6.1 6.1 0 0 0-.556.264l-.007-.007-.638-.638a6.97 6.97 0 0 0-2.465 2.464l.455.455.19.19a6.1 6.1 0 0 0-.477 1.148h-.914a6.971 6.971 0 0 0-.226 1.743 6.98 6.98 0 0 0 .231 1.743h.911a6.1 6.1 0 0 0 .475 1.147l-.19.19-.455.455a6.973 6.973 0 0 0 2.465 2.465l.455-.454.19-.19a6.1 6.1 0 0 0 1.148.476v.914c.569.148 1.154.225 1.743.227a6.996 6.996 0 0 0 1.743-.227v-.914a6.1 6.1 0 0 0 1.147-.477l.19.19.455.455a6.972 6.972 0 0 0 2.465-2.465l-.455-.454-.19-.19a6.1 6.1 0 0 0 .316-.703l.009-.016a6.059 6.104 0 0 0 .398-2.17A6.059 6.104 0 0 0-9.501.396zm-.02.627a5.434 5.474 0 0 1 .543.027 5.434 5.474 0 0 1 .537.082 5.434 5.474 0 0 1 .526.136 5.434 5.474 0 0 1 .51.187 5.434 5.474 0 0 1 .49.238 5.434 5.474 0 0 1 .462.286 5.434 5.474 0 0 1 .433.332 5.434 5.474 0 0 1 .397.373 5.434 5.474 0 0 1 .358.41 5.434 5.474 0 0 1 .316.446 5.434 5.474 0 0 1 .27.474 5.434 5.474 0 0 1 .222.5 5.434 5.474 0 0 1 .171.52 5.434 5.474 0 0 1 .12.533 5.434 5.474 0 0 1 .064.543 5.434 5.474 0 0 1 .014.386 5.434 5.474 0 0 1-.027.547 5.434 5.474 0 0 1-.081.54 5.434 5.474 0 0 1-.134.53 5.434 5.474 0 0 1-.028.077 5.434 5.474 0 0 1-.03.082 5.443 5.443 0 0 1-.09.247 5.434 5.474 0 0 1-.039.109 5.434 5.474 0 0 1-.129.27 5.443 5.443 0 0 1-.033.069 5.434 5.474 0 0 1-.074.153 5.434 5.474 0 0 1-.283.467 5.434 5.474 0 0 1-.049.064l.053.053.59.59.002.002c-.364.487-.795.92-1.281 1.284l-.004-.003-.59-.59-.046-.046a5.434 5.474 0 0 1-.224.162 5.434 5.474 0 0 1-.47.272 5.434 5.474 0 0 1-.497.223 5.434 5.474 0 0 1-.515.173 5.434 5.474 0 0 1-.53.12 5.434 5.474 0 0 1-.018.002v.886c-.3.044-.603.067-.907.067a6.35 6.35 0 0 1-.907-.066v-.892a5.434 5.474 0 0 1-.171-.026 5.434 5.474 0 0 1-.527-.135 5.434 5.474 0 0 1-.51-.188 5.434 5.474 0 0 1-.49-.238 5.434 5.474 0 0 1-.462-.286 5.434 5.474 0 0 1-.096-.072l-.044.043-.59.59-.003.004a6.343 6.343 0 0 1-1.281-1.285v-.002l.591-.59.055-.054a5.434 5.474 0 0 1-.137-.194 5.434 5.474 0 0 1-.153-.268 5.434 5.474 0 0 1-.117-.206 5.434 5.474 0 0 1-.095-.212 5.443 5.443 0 0 1-.063-.143 5.434 5.474 0 0 1-.064-.144 5.434 5.474 0 0 1-.047-.141 5.443 5.443 0 0 1-.1-.302 5.434 5.474 0 0 1-.025-.077 5.434 5.474 0 0 1-.017-.079 5.443 5.443 0 0 1-.001-.003 5.443 5.443 0 0 1-.11-.476H-15.802a6.37 6.37 0 0 1-.07-.907c0-.304.024-.607.067-.907H-14.882a5.443 5.443 0 0 1 .025-.113 5.434 5.474 0 0 1 .01-.068 5.434 5.474 0 0 1 .038-.147 5.443 5.443 0 0 1 .073-.292 5.434 5.474 0 0 1 .024-.091 5.434 5.474 0 0 1 .073-.201 5.443 5.443 0 0 1 .069-.192 5.434 5.474 0 0 1 .044-.121A5.434 5.474 0 0 1-14.4 4.1a5.443 5.443 0 0 1 .038-.079 5.434 5.474 0 0 1 .071-.149 5.434 5.474 0 0 1 .284-.466 5.434 5.474 0 0 1 .048-.064l-.053-.052-.59-.59-.003-.003a6.35 6.35 0 0 1 1.285-1.282v.002l.591.59.046.046a5.434 5.474 0 0 1 .225-.163 5.434 5.474 0 0 1 .471-.272 5.434 5.474 0 0 1 .496-.223 5.434 5.474 0 0 1 .123-.042 5.434 5.474 0 0 1 .392-.13 5.434 5.474 0 0 1 .127-.03 5.434 5.474 0 0 1 .004 0 5.434 5.474 0 0 1 .4-.09 5.434 5.474 0 0 1 .114-.015 5.434 5.474 0 0 1 .072-.008 5.434 5.474 0 0 1 .353-.043 5.434 5.474 0 0 1 .124-.005 5.434 5.474 0 0 1 .044-.002 5.434 5.474 0 0 1 .217-.007z" opacity=".2" filter="url(#d)"/><path d="M-9.505.25a6.059 6.104 0 0 0-2.355.479l.001.002a6.1 6.1 0 0 0-.556.264l-.007-.007-.638-.638a6.97 6.97 0 0 0-2.465 2.464l.455.455.19.19a6.1 6.1 0 0 0-.477 1.148h-.914a6.971 6.971 0 0 0-.226 1.743 6.98 6.98 0 0 0 .231 1.743h.911a6.1 6.1 0 0 0 .475 1.147l-.19.19-.455.455a6.973 6.973 0 0 0 2.465 2.465l.455-.454.19-.19a6.1 6.1 0 0 0 1.147.476v.914c.57.149 1.155.225 1.743.227a6.996 6.996 0 0 0 1.744-.227v-.914a6.1 6.1 0 0 0 1.147-.477l.19.19.455.455a6.972 6.972 0 0 0 2.465-2.465l-.455-.454-.19-.19a6.1 6.1 0 0 0 .316-.703l.009-.016a6.059 6.104 0 0 0 .398-2.17A6.059 6.104 0 0 0-9.505.25zm-.019.626a5.434 5.474 0 0 1 .543.027 5.434 5.474 0 0 1 .537.082 5.434 5.474 0 0 1 .526.136 5.434 5.474 0 0 1 .51.187 5.434 5.474 0 0 1 .489.239 5.434 5.474 0 0 1 .463.285 5.434 5.474 0 0 1 .433.332 5.434 5.474 0 0 1 .397.373 5.434 5.474 0 0 1 .358.41 5.434 5.474 0 0 1 .316.446 5.434 5.474 0 0 1 .27.474 5.434 5.474 0 0 1 .222.5 5.434 5.474 0 0 1 .171.52 5.434 5.474 0 0 1 .12.533 5.434 5.474 0 0 1 .064.543 5.434 5.474 0 0 1 .014.386 5.434 5.474 0 0 1-.027.547 5.434 5.474 0 0 1-.081.54 5.434 5.474 0 0 1-.134.531 5.434 5.474 0 0 1-.028.076 5.434 5.474 0 0 1-.03.082 5.443 5.443 0 0 1-.09.247 5.434 5.474 0 0 1-.039.11 5.434 5.474 0 0 1-.129.268 5.443 5.443 0 0 1-.033.07 5.434 5.474 0 0 1-.074.154 5.434 5.474 0 0 1-.283.466 5.434 5.474 0 0 1-.05.064l.054.053.59.59.002.002c-.364.487-.795.92-1.281 1.284l-.004-.003-.59-.59-.046-.046a5.434 5.474 0 0 1-.224.162 5.434 5.474 0 0 1-.471.272 5.434 5.474 0 0 1-.496.223 5.434 5.474 0 0 1-.515.174 5.434 5.474 0 0 1-.53.12 5.434 5.474 0 0 1-.018.002v.885c-.3.044-.603.067-.907.067a6.35 6.35 0 0 1-.907-.066v-.892a5.434 5.474 0 0 1-.171-.026 5.434 5.474 0 0 1-.527-.135 5.434 5.474 0 0 1-.51-.187 5.434 5.474 0 0 1-.49-.239 5.434 5.474 0 0 1-.463-.285 5.434 5.474 0 0 1-.095-.073l-.044.044-.59.59-.003.003a6.343 6.343 0 0 1-1.281-1.285v-.001l.591-.59.055-.055a5.434 5.474 0 0 1-.137-.194 5.434 5.474 0 0 1-.153-.268 5.434 5.474 0 0 1-.118-.206 5.434 5.474 0 0 1-.094-.212 5.443 5.443 0 0 1-.063-.142 5.434 5.474 0 0 1-.064-.145 5.434 5.474 0 0 1-.047-.141 5.443 5.443 0 0 1-.1-.301 5.434 5.474 0 0 1-.025-.077 5.434 5.474 0 0 1-.017-.08 5.443 5.443 0 0 1-.001-.003 5.443 5.443 0 0 1-.111-.476H-15.805a6.37 6.37 0 0 1-.07-.907c0-.304.023-.607.067-.907H-14.886a5.443 5.443 0 0 1 .025-.113 5.434 5.474 0 0 1 .01-.068 5.434 5.474 0 0 1 .037-.147 5.443 5.443 0 0 1 .074-.292 5.434 5.474 0 0 1 .024-.091 5.434 5.474 0 0 1 .072-.201 5.443 5.443 0 0 1 .07-.192 5.434 5.474 0 0 1 .044-.121 5.434 5.474 0 0 1 .127-.265 5.443 5.443 0 0 1 .037-.079 5.434 5.474 0 0 1 .072-.149 5.434 5.474 0 0 1 .284-.466 5.434 5.474 0 0 1 .048-.064l-.053-.052-.59-.59-.003-.003a6.35 6.35 0 0 1 1.285-1.281v.001l.59.59.046.046a5.434 5.474 0 0 1 .226-.162 5.434 5.474 0 0 1 .471-.273 5.434 5.474 0 0 1 .496-.223 5.434 5.474 0 0 1 .123-.041 5.434 5.474 0 0 1 .392-.132 5.434 5.474 0 0 1 .127-.028 5.434 5.474 0 0 1 .004-.001 5.434 5.474 0 0 1 .4-.09 5.434 5.474 0 0 1 .114-.014 5.434 5.474 0 0 1 .072-.01A5.434 5.474 0 0 1-9.91.89a5.434 5.474 0 0 1 .125-.005 5.434 5.474 0 0 1 .044-.001 5.434 5.474 0 0 1 .217-.008z" fill="#1a1a1a"/><path d="M-9.524 3.066a3.406 3.43 0 0 0-3.407 3.43 3.406 3.43 0 0 0 3.407 3.432 3.406 3.43 0 0 0 2.41-1.01l-.509-.507a2.69 2.71 0 0 1-1.901.796 2.69 2.71 0 0 1-2.692-2.71 2.69 2.71 0 0 1 2.692-2.71 2.69 2.71 0 0 1 1.915.807l.506-.506a3.406 3.43 0 0 0-2.421-1.022z" opacity=".2" filter="url(#e)"/><path d="M-9.524 2.92a3.406 3.43 0 0 0-3.407 3.43 3.406 3.43 0 0 0 3.407 3.43 3.406 3.43 0 0 0 2.41-1.008l-.509-.508a2.69 2.71 0 0 1-1.901.796 2.69 2.71 0 0 1-2.692-2.71 2.69 2.71 0 0 1 2.692-2.71 2.69 2.71 0 0 1 1.915.807l.506-.506A3.406 3.43 0 0 0-9.524 2.92z" fill="#1a1a1a"/></svg>