<?xml version="1.0" encoding="UTF-8" standalone="no"?>
<svg
   xmlns:dc="http://purl.org/dc/elements/1.1/"
   xmlns:cc="http://creativecommons.org/ns#"
   xmlns:rdf="http://www.w3.org/1999/02/22-rdf-syntax-ns#"
   xmlns:svg="http://www.w3.org/2000/svg"
   xmlns="http://www.w3.org/2000/svg"
   xmlns:xlink="http://www.w3.org/1999/xlink"
   xmlns:sodipodi="http://sodipodi.sourceforge.net/DTD/sodipodi-0.dtd"
   xmlns:inkscape="http://www.inkscape.org/namespaces/inkscape"
   width="48"
   height="48"
   viewBox="0 0 12.7 12.7"
   version="1.1"
   id="svg8"
   sodipodi:docname="logo.svg"
   inkscape:version="0.92.4 (5da689c313, 2019-01-14)">
  <metadata
     id="metadata14">
    <rdf:RDF>
      <cc:Work
         rdf:about="">
        <dc:format>image/svg+xml</dc:format>
        <dc:type
           rdf:resource="http://purl.org/dc/dcmitype/StillImage" />
        <dc:title></dc:title>
      </cc:Work>
    </rdf:RDF>
  </metadata>
  <defs
     id="defs12">
    <linearGradient
       inkscape:collect="always"
       id="linearGradient819">
      <stop
         style="stop-color:#216778;stop-opacity:1"
         offset="0"
         id="stop815" />
      <stop
         style="stop-color:#37abc8;stop-opacity:1"
         offset="1"
         id="stop817" />
    </linearGradient>
    <linearGradient
       gradientTransform="matrix(0.87897537,0,0,0.87897537,-15.123193,0.76630922)"
       inkscape:collect="always"
       xlink:href="#linearGradient819"
       id="linearGradient821-9"
       x1="5.4893265"
       y1="12.111509"
       x2="9.1851091"
       y2="1.2473515"
       gradientUnits="userSpaceOnUse" />
    <filter
       inkscape:collect="always"
       style="color-interpolation-filters:sRGB"
       id="filter1762"
       x="-0.053795178"
       width="1.1075904"
       y="-0.045688224"
       height="1.0913764">
      <feGaussianBlur
         inkscape:collect="always"
         stdDeviation="0.13062257"
         id="feGaussianBlur1764" />
    </filter>
    <filter
       inkscape:collect="always"
       style="color-interpolation-filters:sRGB"
       id="filter1766"
       x="-0.032378751"
       width="1.0647575"
       y="-0.032145416"
       height="1.0642908">
      <feGaussianBlur
         inkscape:collect="always"
         stdDeviation="0.13062257"
         id="feGaussianBlur1768" />
    </filter>
    <filter
       inkscape:collect="always"
       style="color-interpolation-filters:sRGB"
       id="filter1770"
       x="-0.024020903"
       width="1.0480418"
       y="-0.023979134"
       height="1.0479583">
      <feGaussianBlur
         inkscape:collect="always"
         stdDeviation="0.13062257"
         id="feGaussianBlur1772" />
    </filter>
  </defs>
  <sodipodi:namedview
     pagecolor="#ffffff"
     bordercolor="#666666"
     borderopacity="1"
     objecttolerance="10"
     gridtolerance="10"
     guidetolerance="10"
     inkscape:pageopacity="0"
     inkscape:pageshadow="2"
     inkscape:window-width="1366"
     inkscape:window-height="707"
     id="namedview10"
     showgrid="false"
     inkscape:zoom="2.703125"
     inkscape:cx="-28.186933"
     inkscape:cy="24"
     inkscape:window-x="0"
     inkscape:window-y="0"
     inkscape:window-maximized="1"
     inkscape:current-layer="svg8"
     showguides="true"
     inkscape:guide-bbox="true"
     inkscape:snap-smooth-nodes="true"
     inkscape:snap-bbox="true" />
  <path
     style="opacity:1;fill:#1a1a1a;fill-opacity:1;stroke:none;stroke-width:0.17140904"
     d="M 6.3511063,0.21521737 A 6.0899959,6.1342298 0 0 1 12.439984,6.3494474 6.0899959,6.1342298 0 0 1 6.3511063,12.48478 6.0899959,6.1342298 0 0 1 0.26000463,6.3494474 6.0899959,6.1342298 0 0 1 6.3511063,0.21521737 Z"
     id="path2-5"
     inkscape:connector-curvature="0" />
  <path
     style="fill:#008080;fill-opacity:1;stroke:none;stroke-width:0.15294887"
     d="M 6.3509873,0.87591007 A 5.4341254,5.4735965 0 0 1 11.784127,6.3495068 5.4341254,5.4735965 0 0 1 6.3509873,11.82409 5.4341254,5.4735965 0 0 1 0.91587463,6.3495068 5.4341254,5.4735965 0 0 1 6.3509873,0.87591007 Z"
     id="path2-9"
     inkscape:connector-curvature="0" />
  <path
     style="fill:#f9f9f9;fill-opacity:1;stroke:none;stroke-width:0.13624111"
     d="m 6.3505163,1.4738121 a 4.8405169,4.8756763 0 0 0 -4.8415647,4.8756713 4.8405169,4.8756763 0 0 0 0.01912,0.3798218 h 0.65319 8.3390264 A 4.1885814,4.2190046 0 0 1 6.3510333,10.569381 4.1885814,4.2190046 0 0 1 2.3058026,7.429004 L 1.6737996,7.5897177 A 4.8405169,4.8756763 0 0 0 6.3505163,11.226188 4.8405169,4.8756763 0 0 0 11.191048,6.3494834 4.8405169,4.8756763 0 0 0 11.174508,6.0197876 H 10.524419 2.1771246 A 4.1885814,4.2190046 0 0 1 6.3510303,2.1306191 4.1885814,4.2190046 0 0 1 10.399362,5.285465 L 11.02775,5.118034 A 4.8405169,4.8756763 0 0 0 6.3505163,1.4738121 Z"
     id="path1543-1"
     inkscape:connector-curvature="0" />
  <path
     inkscape:connector-curvature="0"
     style="fill:#1a1a1a;fill-opacity:1;stroke:none;stroke-width:0.09585923"
     d="M 6.3505163,2.9192021 A 3.4057865,3.4305245 0 0 0 2.9440056,6.3494834 3.4057865,3.4305245 0 0 0 6.3505163,9.7807985 3.4057865,3.4305245 0 0 0 8.7601883,8.7715578 L 8.2522093,8.2640951 a 2.6907061,2.7102501 0 0 1 -1.901693,0.796334 2.6907061,2.7102501 0 0 1 -2.6913087,-2.710429 2.6907061,2.7102501 0 0 1 2.6913087,-2.710429 2.6907061,2.7102501 0 0 1 1.915129,0.8077029 l 0.505912,-0.5059129 a 3.4057865,3.4305245 0 0 0 -2.421041,-1.022159 z"
     id="path2-2" />
  <path
     style="opacity:1;fill:#1a1a1a;fill-opacity:1;stroke:none;stroke-width:0.64784521"
     d="M 84.003906 0.8125 A 23.017308 23.184491 0 0 0 60.982422 23.998047 A 23.017308 23.184491 0 0 0 84.003906 47.1875 A 23.017308 23.184491 0 0 0 107.01758 23.998047 A 23.017308 23.184491 0 0 0 84.003906 0.8125 z M 84.003906 3.3105469 A 20.538427 20.687609 0 0 1 104.53906 23.998047 A 20.538427 20.687609 0 0 1 84.003906 44.689453 A 20.538427 20.687609 0 0 1 63.460938 23.998047 A 20.538427 20.687609 0 0 1 84.003906 3.3105469 z "
     transform="scale(0.26458333)"
     id="path2-5-9" />
  <path
     style="fill:#a02c2c;fill-opacity:1;stroke:none;stroke-width:0.13624111"
     d="m 22.225522,1.4738136 a 4.8405169,4.8756763 0 0 0 -4.841565,4.8756715 4.8405169,4.8756763 0 0 0 0.01912,0.3798218 h 0.65319 8.339028 A 4.1885814,4.2190046 0 0 1 22.226039,10.569382 4.1885814,4.2190046 0 0 1 18.180808,7.4290057 l -0.632003,0.1607138 a 4.8405169,4.8756763 0 0 0 4.676717,3.6364695 4.8405169,4.8756763 0 0 0 4.840532,-4.8767039 4.8405169,4.8756763 0 0 0 -0.01654,-0.329696 h -0.650089 -8.347296 a 4.1885814,4.2190046 0 0 1 4.173906,-3.889168 4.1885814,4.2190046 0 0 1 4.048332,3.1548458 l 0.62839,-0.1674315 A 4.8405169,4.8756763 0 0 0 22.225522,1.4738136 Z"
     id="path1543-1-1"
     inkscape:connector-curvature="0" />
  <path
     inkscape:connector-curvature="0"
     style="fill:#1a1a1a;fill-opacity:1;stroke:none;stroke-width:0.09585923"
     d="m 22.225522,2.9192032 a 3.4057865,3.4305245 0 0 0 -3.406511,3.4302819 3.4057865,3.4305245 0 0 0 3.406511,3.4313151 3.4057865,3.4305245 0 0 0 2.409672,-1.0092407 L 24.127216,8.2640969 a 2.6907061,2.7102501 0 0 1 -1.901694,0.7963339 2.6907061,2.7102501 0 0 1 -2.691308,-2.710429 2.6907061,2.7102501 0 0 1 2.691308,-2.7104292 2.6907061,2.7102501 0 0 1 1.915129,0.807703 l 0.505913,-0.5059124 a 3.4057865,3.4305245 0 0 0 -2.421042,-1.02216 z"
     id="path2-2-9" />
  <g
     id="g849">
    <path
       inkscape:connector-curvature="0"
       id="path1543-0"
       d="m -9.5244836,1.6206323 a 4.8405169,4.8756763 0 0 0 -4.8415644,4.8756715 4.8405169,4.8756763 0 0 0 0.01912,0.3798218 h 0.65319 8.339026 A 4.1885814,4.2190046 0 0 1 -9.5239666,10.716201 4.1885814,4.2190046 0 0 1 -13.569197,7.5758244 L -14.2012,7.7365381 A 4.8405169,4.8756763 0 0 0 -9.5244836,11.373008 4.8405169,4.8756763 0 0 0 -4.683952,6.4963038 4.8405169,4.8756763 0 0 0 -4.700492,6.166608 h -0.650089 -8.347294 a 4.1885814,4.2190046 0 0 1 4.1739052,-3.8891682 4.1885814,4.2190046 0 0 1 4.0483318,3.154846 L -4.84725,5.2648543 a 4.8405169,4.8756763 0 0 0 -4.6772336,-3.644222 z"
       style="opacity:0.2;fill:#000000;fill-opacity:1;stroke:none;stroke-width:0.13624111;filter:url(#filter1766)" />
    <path
       inkscape:connector-curvature="0"
       id="path1543"
       d="m -9.5244838,1.4738118 a 4.8405168,4.8756763 0 0 0 -4.8415642,4.8756714 4.8405168,4.8756763 0 0 0 0.01912,0.3798218 h 0.65319 8.339026 A 4.1885814,4.2190045 0 0 1 -9.5239668,10.569381 4.1885814,4.2190045 0 0 1 -13.569197,7.4290038 L -14.2012,7.5897175 a 4.8405168,4.8756763 0 0 0 4.6767162,3.6364705 4.8405168,4.8756763 0 0 0 4.8405318,-4.8767048 4.8405168,4.8756763 0 0 0 -0.01654,-0.3296957 h -0.650089 -8.347294 a 4.1885814,4.2190045 0 0 1 4.1739052,-3.8891682 4.1885814,4.2190045 0 0 1 4.0483318,3.154846 L -4.84725,5.1180338 a 4.8405168,4.8756763 0 0 0 -4.6772338,-3.644222 z"
       style="fill:url(#linearGradient821-9);fill-opacity:1;stroke:none;stroke-width:0.13624111" />
    <path
       inkscape:connector-curvature="0"
       id="path1048-7"
       d="m -9.5007461,0.39590128 a 6.0585805,6.1039444 0 0 0 -2.3554119,0.4795573 l 0.0015,0.00259 A 6.1008935,6.1008935 0 0 0 -12.411213,1.141597 l -0.0067,-0.00672 -0.638204,-0.63820372 C -14.073162,1.0963442 -14.92089,1.9440588 -15.520566,2.9611221 l 0.454236,0.4547526 0.190686,0.190686 a 6.1008935,6.1008935 0 0 0 -0.476974,1.1472167 h -0.01189 -0.902271 c -0.148715,0.5691619 -0.224709,1.1547896 -0.226342,1.7430462 0.0035,0.588483 0.08106,1.1741025 0.23151,1.7430461 h 0.90072 0.01034 a 6.1008935,6.1008935 0 0 0 0.474906,1.1472167 l -0.190686,0.190686 -0.454236,0.4542356 c 0.599674,1.01707 1.447895,1.865295 2.464966,2.464966 l 0.454236,-0.454235 0.190686,-0.190687 a 6.1008935,6.1008935 0 0 0 1.147217,0.476974 v 0.268718 0.644921 c 0.569161,0.148692 1.15478,0.225234 1.7430457,0.22686 0.5882651,-0.0021 1.1738851,-0.0782 1.7430462,-0.22686 v -0.644924 -0.268718 a 6.1008935,6.1008935 0 0 0 1.1472167,-0.476974 l 0.1906856,0.190687 0.4547531,0.454235 c 1.0170697,-0.599675 1.8647806,-1.447894 2.4644536,-2.464966 l -0.454753,-0.4542356 -0.190686,-0.190686 a 6.1008935,6.1008935 0 0 0 0.316776,-0.701766 l 0.0088,-0.016536 A 6.0585805,6.1039444 0 0 0 -3.4422301,6.4988875 6.0585805,6.1039444 0 0 0 -9.500776,0.39590128 Z m -0.01912,0.62683512 a 5.4341255,5.4735963 0 0 1 0.542603,0.027389 5.4341255,5.4735963 0 0 1 0.5369179,0.082165 5.4341255,5.4735963 0 0 1 0.526066,0.1353923 5.4341255,5.4735963 0 0 1 0.5105633,0.1875854 5.4341255,5.4735963 0 0 1 0.4888587,0.2382284 5.4341255,5.4735963 0 0 1 0.4630215,0.2857707 5.4341255,5.4735963 0 0 1 0.4325311,0.3312459 5.4341255,5.4735963 0 0 1 0.3973916,0.3731038 5.4341255,5.4735963 0 0 1 0.358118,0.4108278 5.4341255,5.4735963 0 0 1 0.31626,0.4454509 5.4341255,5.4735963 0 0 1 0.270268,0.4743895 5.4341255,5.4735963 0 0 1 0.221691,0.4997109 5.4341255,5.4735963 0 0 1 0.1710499,0.5193482 5.4341255,5.4735963 0 0 1 0.118856,0.5338175 5.4341255,5.4735963 0 0 1 0.06511,0.5431192 5.4341255,5.4735963 0 0 1 0.01395,0.3860231 5.4341255,5.4735963 0 0 1 -0.02739,0.5462199 5.4341255,5.4735963 0 0 1 -0.08113,0.5410523 5.4341255,5.4735963 0 0 1 -0.1338419,0.5302001 5.4341255,5.4735963 0 0 1 -0.02791,0.076481 5.4341255,5.4735963 0 0 1 -0.02946,0.081648 5.44278,5.44278 0 0 1 -0.08992,0.2470137 5.4341255,5.4735963 0 0 1 -0.03927,0.1090372 5.4341255,5.4735963 0 0 1 -0.129191,0.2692341 5.44278,5.44278 0 0 1 -0.03359,0.069763 5.4341255,5.4735963 0 0 1 -0.07338,0.1534789 5.4341255,5.4735963 0 0 1 -0.283704,0.4666383 5.4341255,5.4735963 0 0 1 -0.04858,0.064079 l 0.05271,0.05271 0.590145,0.5901435 0.0021,0.0015 c -0.363696,0.487375 -0.794568,0.919951 -1.281061,1.284678 l -0.0036,-0.0036 -0.5901454,-0.590145 -0.04599,-0.04547 a 5.4341255,5.4735963 0 0 1 -0.2242756,0.161757 5.4341255,5.4735963 0 0 1 -0.4707723,0.272335 5.4341255,5.4735963 0 0 1 -0.4960938,0.223242 5.4341255,5.4735963 0 0 1 -0.5152138,0.173116 5.4341255,5.4735963 0 0 1 -0.5302002,0.11989 5.4341255,5.4735963 0 0 1 -0.017571,0.0021 v 0.04651 0.835607 0.0036 c -0.3003185,0.04388 -0.6026365,0.0668 -0.9069335,0.06717 -0.3042959,-4.5e-4 -0.6066074,-0.02292 -0.9069214,-0.06666 v -0.0036 -0.836641 -0.05168 a 5.4341255,5.4735963 0 0 1 -0.1716,-0.02584 5.4341255,5.4735963 0 0 1 -0.526583,-0.134875 5.4341255,5.4735963 0 0 1 -0.510046,-0.187586 5.4341255,5.4735963 0 0 1 -0.489375,-0.238228 5.4341255,5.4735963 0 0 1 -0.463021,-0.285771 5.4341255,5.4735963 0 0 1 -0.0956,-0.07286 l -0.04392,0.04392 -0.589628,0.590145 -0.0036,0.0031 c -0.486429,-0.36454 -0.91759,-0.797238 -1.281049,-1.284677 l 10e-4,-0.0016 0.590662,-0.5896266 0.05478,-0.055294 a 5.4341255,5.4735963 0 0 1 -0.137452,-0.193223 5.4341255,5.4735963 0 0 1 -0.152445,-0.2682007 5.4341255,5.4735963 0 0 1 -0.117822,-0.206189 5.4341255,5.4735963 0 0 1 -0.09405,-0.2118733 5.44278,5.44278 0 0 1 -0.06356,-0.1426271 5.4341255,5.4735963 0 0 1 -0.06408,-0.144694 5.4341255,5.4735963 0 0 1 -0.04651,-0.1410766 5.44278,5.44278 0 0 1 -0.09973,-0.3012737 5.4341255,5.4735963 0 0 1 -0.02532,-0.076998 5.4341255,5.4735963 0 0 1 -0.01757,-0.079065 5.44278,5.44278 0 0 1 -10e-4,-0.00362 5.44278,5.44278 0 0 1 -0.110588,-0.4759399 h -0.07803 -0.834057 -0.0031 c -0.04426,-0.2997621 -0.06867,-0.6031148 -0.06976,-0.9069213 4.55e-4,-0.3042978 0.02339,-0.6066073 0.06718,-0.9069213 h 0.0041 0.835608 0.08217 a 5.44278,5.44278 0 0 1 0.02481,-0.1131715 5.4341255,5.4735963 0 0 1 0.01033,-0.067696 5.4341255,5.4735963 0 0 1 0.03721,-0.147278 5.44278,5.44278 0 0 1 0.0739,-0.2919717 5.4341255,5.4735963 0 0 1 0.02325,-0.090951 5.4341255,5.4735963 0 0 1 0.07286,-0.2010215 5.44278,5.44278 0 0 1 0.06925,-0.1922362 5.4341255,5.4735963 0 0 1 0.04392,-0.120923 5.4341255,5.4735963 0 0 1 0.127641,-0.2651001 5.44278,5.44278 0 0 1 0.03721,-0.078548 5.4341255,5.4735963 0 0 1 0.07183,-0.1488281 5.4341255,5.4735963 0 0 1 0.283704,-0.4666382 5.4341255,5.4735963 0 0 1 0.04754,-0.063562 l -0.05219,-0.052193 -0.590145,-0.589628 -0.0031,-0.0031 c 0.364749,-0.486473 0.797239,-0.9181155 1.284676,-1.2815755 l 0.001,0.00155 0.590145,0.5901448 0.04547,0.045475 a 5.4341255,5.4735963 0 0 1 0.225309,-0.162264 5.4341255,5.4735963 0 0 1 0.471289,-0.2723348 5.4341255,5.4735963 0 0 1 0.496094,-0.2232422 5.4341255,5.4735963 0 0 1 0.12299,-0.041341 5.4341255,5.4735963 0 0 1 0.392224,-0.1312582 5.4341255,5.4735963 0 0 1 0.126607,-0.028422 5.4341255,5.4735963 0 0 1 0.0041,-0.00103 5.4341255,5.4735963 0 0 1 0.399459,-0.090434 5.4341255,5.4735963 0 0 1 0.114205,-0.013953 5.4341255,5.4735963 0 0 1 0.07183,-0.00879 5.4341255,5.4735963 0 0 1 0.3529497,-0.042891 5.4341255,5.4735963 0 0 1 0.1245402,-0.00465 5.4341255,5.4735963 0 0 1 0.043925,-0.00155 5.4341255,5.4735963 0 0 1 0.2170407,-0.00775 z"
       style="opacity:0.2;fill:#000000;stroke:none;stroke-width:0.15625292;filter:url(#filter1770)" />
    <path
       inkscape:connector-curvature="0"
       id="path1048"
       d="m -9.5048461,0.2490804 a 6.0585804,6.1039443 0 0 0 -2.3554119,0.47955727 l 0.0015,0.002584 a 6.1008934,6.1008934 0 0 0 -0.556555,0.26354963 l -0.0067,-0.006718 -0.638204,-0.63820393 c -1.017045,0.599671 -1.864773,1.44738573 -2.464449,2.46444903 l 0.454236,0.4547526 0.190686,0.190686 a 6.1008934,6.1008934 0 0 0 -0.476974,1.1472167 h -0.01189 -0.902271 c -0.148715,0.5691619 -0.224709,1.1547895 -0.226342,1.7430461 0.0035,0.5884831 0.08106,1.1741026 0.23151,1.7430462 h 0.90072 0.01034 a 6.1008934,6.1008934 0 0 0 0.474906,1.1472166 l -0.190686,0.190686 -0.454236,0.4542359 c 0.599674,1.0170695 1.447895,1.8652945 2.464966,2.4649655 l 0.454236,-0.454235 0.190686,-0.190687 a 6.1008934,6.1008934 0 0 0 1.147217,0.476974 v 0.268718 0.644921 c 0.569161,0.148692 1.15478,0.225234 1.7430458,0.22686 0.5882651,-0.0021 1.1738851,-0.0782 1.7430462,-0.22686 V 12.45092 12.182202 a 6.1008934,6.1008934 0 0 0 1.1472166,-0.476974 l 0.190686,0.190687 0.4547527,0.454235 c 1.0170697,-0.599675 1.8647796,-1.447894 2.4644526,-2.4649654 l -0.454753,-0.4542359 -0.190686,-0.190686 a 6.1008934,6.1008934 0 0 0 0.316776,-0.701766 l 0.0088,-0.016536 a 6.0585804,6.1039443 0 0 0 0.397894,-2.1698939 6.0585804,6.1039443 0 0 0 -6.058545,-6.1029864 z m -0.01912,0.62683512 a 5.4341254,5.4735962 0 0 1 0.5426028,0.0273885 5.4341254,5.4735962 0 0 1 0.5369179,0.0821655 5.4341254,5.4735962 0 0 1 0.5260662,0.13539228 5.4341254,5.4735962 0 0 1 0.5105631,0.1875854 5.4341254,5.4735962 0 0 1 0.4888589,0.2382284 5.4341254,5.4735962 0 0 1 0.4630209,0.2857707 5.4341254,5.4735962 0 0 1 0.4325319,0.3312459 5.4341254,5.4735962 0 0 1 0.3973914,0.3731038 5.4341254,5.4735962 0 0 1 0.358118,0.4108277 5.4341254,5.4735962 0 0 1 0.31626,0.4454509 5.4341254,5.4735962 0 0 1 0.270268,0.4743897 5.4341254,5.4735962 0 0 1 0.221691,0.4997108 5.4341254,5.4735962 0 0 1 0.1710489,0.5193483 5.4341254,5.4735962 0 0 1 0.118856,0.5338175 5.4341254,5.4735962 0 0 1 0.06511,0.5431192 5.4341254,5.4735962 0 0 1 0.01395,0.3860231 5.4341254,5.4735962 0 0 1 -0.02739,0.5462198 5.4341254,5.4735962 0 0 1 -0.08113,0.5410523 5.4341254,5.4735962 0 0 1 -0.1338419,0.5302001 5.4341254,5.4735962 0 0 1 -0.02791,0.076481 5.4341254,5.4735962 0 0 1 -0.02946,0.081648 5.4427799,5.4427799 0 0 1 -0.08992,0.2470135 5.4341254,5.4735962 0 0 1 -0.03927,0.1090374 5.4341254,5.4735962 0 0 1 -0.129191,0.2692342 5.4427799,5.4427799 0 0 1 -0.03359,0.069763 5.4341254,5.4735962 0 0 1 -0.07338,0.153479 5.4341254,5.4735962 0 0 1 -0.283704,0.4666382 5.4341254,5.4735962 0 0 1 -0.04858,0.064079 l 0.05271,0.05271 0.590145,0.5901443 0.0021,0.0015 c -0.363696,0.487374 -0.794568,0.91995 -1.281061,1.284677 l -0.0036,-0.0036 -0.590145,-0.590145 -0.045992,-0.04547 a 5.4341254,5.4735962 0 0 1 -0.2242759,0.161747 5.4341254,5.4735962 0 0 1 -0.4707723,0.272335 5.4341254,5.4735962 0 0 1 -0.4960938,0.223242 5.4341254,5.4735962 0 0 1 -0.5152138,0.173116 5.4341254,5.4735962 0 0 1 -0.5302002,0.11989 5.4341254,5.4735962 0 0 1 -0.01757,0.0021 v 0.04651 0.835607 0.0036 c -0.3003064,0.04389 -0.6026243,0.06681 -0.9069213,0.06718 -0.304296,-4.5e-4 -0.6066077,-0.02292 -0.9069217,-0.06666 v -0.0036 -0.836641 -0.05168 a 5.4341254,5.4735962 0 0 1 -0.171599,-0.02584 5.4341254,5.4735962 0 0 1 -0.526583,-0.134875 5.4341254,5.4735962 0 0 1 -0.510047,-0.187586 5.4341254,5.4735962 0 0 1 -0.489375,-0.238228 5.4341254,5.4735962 0 0 1 -0.463021,-0.285771 5.4341254,5.4735962 0 0 1 -0.0956,-0.07286 l -0.04392,0.04392 -0.589628,0.590145 -0.0036,0.0031 c -0.486439,-0.36454 -0.9176,-0.797238 -1.281059,-1.284676 l 0.001,-0.0016 0.590662,-0.5896273 0.05478,-0.055294 a 5.4341254,5.4735962 0 0 1 -0.137452,-0.193223 5.4341254,5.4735962 0 0 1 -0.152445,-0.2682007 5.4341254,5.4735962 0 0 1 -0.117822,-0.206189 5.4341254,5.4735962 0 0 1 -0.09405,-0.2118733 5.4427799,5.4427799 0 0 1 -0.06356,-0.1426271 5.4341254,5.4735962 0 0 1 -0.06408,-0.144694 5.4341254,5.4735962 0 0 1 -0.04651,-0.1410766 5.4427799,5.4427799 0 0 1 -0.09973,-0.3012736 5.4341254,5.4735962 0 0 1 -0.02532,-0.076998 5.4341254,5.4735962 0 0 1 -0.01757,-0.079065 5.4427799,5.4427799 0 0 1 -0.001,-0.00362 5.4427799,5.4427799 0 0 1 -0.110588,-0.4759399 h -0.07803 -0.834057 -0.0031 c -0.04426,-0.2997621 -0.06867,-0.6031148 -0.06976,-0.9069213 4.55e-4,-0.3042978 0.02339,-0.6066073 0.06718,-0.9069213 h 0.0041 0.835608 0.08217 a 5.4427799,5.4427799 0 0 1 0.02481,-0.1131715 5.4341254,5.4735962 0 0 1 0.01033,-0.067696 5.4341254,5.4735962 0 0 1 0.03721,-0.147278 5.4427799,5.4427799 0 0 1 0.0739,-0.2919716 5.4341254,5.4735962 0 0 1 0.02325,-0.090951 5.4341254,5.4735962 0 0 1 0.07286,-0.2010214 5.4427799,5.4427799 0 0 1 0.06925,-0.1922362 5.4341254,5.4735962 0 0 1 0.04392,-0.120923 5.4341254,5.4735962 0 0 1 0.127641,-0.2651001 5.4427799,5.4427799 0 0 1 0.03721,-0.078548 5.4341254,5.4735962 0 0 1 0.07183,-0.1488281 5.4341254,5.4735962 0 0 1 0.283704,-0.4666382 5.4341254,5.4735962 0 0 1 0.04754,-0.063562 l -0.05219,-0.052193 -0.590145,-0.589628 -0.0031,-0.0031 c 0.364749,-0.486473 0.797239,-0.9181155 1.284676,-1.2815755 l 10e-4,0.00155 0.590145,0.5901448 0.04547,0.045475 a 5.4341254,5.4735962 0 0 1 0.225309,-0.162264 5.4341254,5.4735962 0 0 1 0.471289,-0.2723348 5.4341254,5.4735962 0 0 1 0.496094,-0.2232422 5.4341254,5.4735962 0 0 1 0.12299,-0.041341 5.4341254,5.4735962 0 0 1 0.392224,-0.1312582 5.4341254,5.4735962 0 0 1 0.126607,-0.028422 5.4341254,5.4735962 0 0 1 0.0041,-0.00103 5.4341254,5.4735962 0 0 1 0.399459,-0.0904338 5.4341254,5.4735962 0 0 1 0.114205,-0.0139526 5.4341254,5.4735962 0 0 1 0.07183,-0.008785 5.4341254,5.4735962 0 0 1 0.3529495,-0.0428914 5.4341254,5.4735962 0 0 1 0.1245402,-0.004651 5.4341254,5.4735962 0 0 1 0.043925,-0.00155 5.4341254,5.4735962 0 0 1 0.2170411,-0.007751 z"
       style="fill:#1a1a1a;stroke:none;stroke-width:0.15625292" />
    <path
       inkscape:connector-curvature="0"
       id="path2-3"
       d="m -9.5244834,3.0660222 a 3.4057865,3.4305245 0 0 0 -3.4065106,3.4302816 3.4057865,3.4305245 0 0 0 3.4065106,3.4313151 3.4057865,3.4305245 0 0 0 2.4096721,-1.0092406 L -7.6227907,8.4109156 a 2.6907061,2.7102501 0 0 1 -1.9016927,0.7963339 2.6907061,2.7102501 0 0 1 -2.6913086,-2.7104289 2.6907061,2.7102501 0 0 1 2.6913086,-2.710429 2.6907061,2.7102501 0 0 1 1.9151285,0.8077029 L -7.1034425,4.0881819 A 3.4057865,3.4305245 0 0 0 -9.5244834,3.0660222 Z"
       style="opacity:0.2;fill:#000000;fill-opacity:1;stroke:none;stroke-width:0.09585923;filter:url(#filter1762)" />
    <path
       inkscape:connector-curvature="0"
       id="path2"
       d="m -9.5244834,2.9192016 a 3.4057865,3.4305245 0 0 0 -3.4065106,3.4302816 3.4057865,3.4305245 0 0 0 3.4065106,3.431315 3.4057865,3.4305245 0 0 0 2.409672,-1.0092406 L -7.6227907,8.2640949 a 2.6907061,2.7102501 0 0 1 -1.9016927,0.796334 2.6907061,2.7102501 0 0 1 -2.6913086,-2.710429 2.6907061,2.7102501 0 0 1 2.6913086,-2.7104289 2.6907061,2.7102501 0 0 1 1.9151285,0.8077028 L -7.1034425,3.9413613 A 3.4057865,3.4305245 0 0 0 -9.5244834,2.9192016 Z"
       style="fill:#1a1a1a;fill-opacity:1;stroke:none;stroke-width:0.09585923" />
  </g>
</svg>
