<svg xmlns="http://www.w3.org/2000/svg" width="48" height="48" viewBox="0 0 12.7 12.7"><path fill="#2ca02c" d="M6.34.07a6.29 6.29 0 0 0-6.28 6.3 6.29 6.29 0 0 0 6.29 6.28 6.29 6.29 0 0 0 6.28-6.29A6.29 6.29 0 0 0 6.34.07zm-.01.94a5.4 5.4 0 0 1 5.4 5.4 5.4 5.4 0 0 1-5.4 5.41 5.4 5.4 0 0 1-5.41-5.4A5.4 5.4 0 0 1 6.32 1zM2.78 3.06a.64.64 0 0 0-.64.64V8.97c0 .36.29.65.64.65h7.18a.64.64 0 0 0 .65-.64v-5.2H5.95l-.72-.72H2.78zm.3 1.44h7.52V5H3.38v.94c0 .19-.12.33-.27.33-.15 0-.27-.14-.27-.33V4.83v-.05-.03c0-.13.1-.23.22-.24h.03z"/></svg>
