<svg xmlns="http://www.w3.org/2000/svg" width="48" height="48" viewBox="0 0 12.7 12.7"><g fill="#2ca02c"><path d="M6.34.07A6.29 6.29 0 0 0 .05 6.36a6.29 6.29 0 0 0 6.3 6.29 6.29 6.29 0 0 0 6.28-6.3A6.29 6.29 0 0 0 6.34.08zm-.01.94a5.4 5.4 0 0 1 5.4 5.4 5.4 5.4 0 0 1-5.4 5.41 5.4 5.4 0 0 1-5.41-5.4A5.4 5.4 0 0 1 6.32 1z"/><g color="#000" solid-color="#000000" style="isolation:auto;mix-blend-mode:normal"><path d="M6.44 2.4c-2.14 0-3.9 1.41-4.1 3.48H1.3L2.84 7.8l1.53-1.93h-1c.19-1.5 1.5-2.47 3.07-2.47 1.7 0 3.1 1.36 3.1 3.04a3.07 3.07 0 0 1-3.1 3.05 3.11 3.11 0 0 1-2.32-1.04l-.76.69a4.14 4.14 0 0 0 3.08 1.36 4.09 4.09 0 0 0 4.12-4.06A4.09 4.09 0 0 0 6.44 2.4z" solid-color="#000000" style="isolation:auto;mix-blend-mode:normal"/><path d="M6.7 3.95h-.39l-.38 2.7 1.93 1.54V7.8L6.7 6.26z" solid-color="#000000" style="isolation:auto;mix-blend-mode:normal"/></g></g></svg>
