<?xml version="1.0" encoding="UTF-8" standalone="no"?>
<svg
   xmlns:dc="http://purl.org/dc/elements/1.1/"
   xmlns:cc="http://creativecommons.org/ns#"
   xmlns:rdf="http://www.w3.org/1999/02/22-rdf-syntax-ns#"
   xmlns:svg="http://www.w3.org/2000/svg"
   xmlns="http://www.w3.org/2000/svg"
   xmlns:sodipodi="http://sodipodi.sourceforge.net/DTD/sodipodi-0.dtd"
   xmlns:inkscape="http://www.inkscape.org/namespaces/inkscape"
   width="48"
   height="48"
   viewBox="0 0 12.7 12.7"
   version="1.1"
   id="svg4"
   sodipodi:docname="folder-development.svg"
   inkscape:version="0.92.4 (5da689c313, 2019-01-14)">
  <metadata
     id="metadata10">
    <rdf:RDF>
      <cc:Work
         rdf:about="">
        <dc:format>image/svg+xml</dc:format>
        <dc:type
           rdf:resource="http://purl.org/dc/dcmitype/StillImage" />
        <dc:title></dc:title>
      </cc:Work>
    </rdf:RDF>
  </metadata>
  <defs
     id="defs8" />
  <sodipodi:namedview
     pagecolor="#ffffff"
     bordercolor="#666666"
     borderopacity="1"
     objecttolerance="10"
     gridtolerance="10"
     guidetolerance="10"
     inkscape:pageopacity="0"
     inkscape:pageshadow="2"
     inkscape:window-width="1085"
     inkscape:window-height="480"
     id="namedview6"
     showgrid="false"
     inkscape:zoom="4.9166667"
     inkscape:cx="2.1355932"
     inkscape:cy="24"
     inkscape:window-x="0"
     inkscape:window-y="25"
     inkscape:window-maximized="0"
     inkscape:current-layer="svg4" />
  <path
     d="M 6.35,0.06 A 6.29,6.29 0 0 0 0.06,6.36 6.29,6.29 0 0 0 6.35,12.64 6.29,6.29 0 0 0 12.64,6.35 6.29,6.29 0 0 0 6.35,0.06 Z M 6.33,1 a 5.4,5.4 0 0 1 5.4,5.4 5.4,5.4 0 0 1 -5.4,5.41 A 5.4,5.4 0 0 1 0.93000003,6.41 5.4,5.4 0 0 1 6.33,1 Z M 8.66,2.27 6.42,6.37 6.6,6.64 H 8.24 V 7.36 H 8.17 A 0.24,0.24 0 0 0 7.92,7.61 v 2.47 c 0,0.14 0.11,0.25 0.25,0.25 h 0.87 c 0.13,0 0.24,-0.11 0.24,-0.25 V 7.61 A 0.24,0.24 0 0 0 9.04,7.36 H 8.94 V 6.65 h 1.6 l 0.21,-0.3 z M 4.28,2.74 c -0.66,0.03 -1.5,0.57 -2.3,1.67 0,0 2.37,-1.2 2.37,0.73 V 7.01 H 4.11 c 0,0 -0.23,0 -0.23,0.24 v 2.84 c 0,0.23 0.23,0.23 0.23,0.23 h 1.42 c 0,0 0.24,0 0.24,-0.23 V 7.25 C 5.77,7.01 5.53,7.01 5.53,7.01 H 5.3 V 5.03 C 5.3,4.81 5.43,4.23 6,4.23 l 0.48,0.42 h 0.7 V 2.75 H 6.48 L 6,3.09 C 6,3.09 4.94,2.72 4.28,2.75 Z"
     id="path2"
     inkscape:connector-curvature="0"
     style="fill:#2ca02c" />
</svg>
