<svg xmlns="http://www.w3.org/2000/svg" width="48" height="48" viewBox="0 0 12.7 12.7"><g fill="#2ca02c"><path d="M6.34.07A6.29 6.29 0 0 0 .05 6.36a6.29 6.29 0 0 0 6.3 6.29 6.29 6.29 0 0 0 6.28-6.3A6.29 6.29 0 0 0 6.34.08zm-.01.94a5.4 5.4 0 0 1 5.4 5.4 5.4 5.4 0 0 1-5.4 5.41 5.4 5.4 0 0 1-5.41-5.4A5.4 5.4 0 0 1 6.32 1z"/><path d="M3.62 3.3a.42.42 0 0 0-.42.42v.2c0 .24.19.42.42.42h5.46a.42.42 0 0 0 .42-.41v-.2a.42.42 0 0 0-.41-.43H3.62zm0 1.75a.42.42 0 0 0-.42.42v.2c0 .24.19.42.42.42h5.46a.42.42 0 0 0 .42-.42v-.2a.42.42 0 0 0-.41-.42H3.62zm0 1.75a.42.42 0 0 0-.42.42v.2c0 .23.19.42.42.42h5.46a.42.42 0 0 0 .42-.42v-.2a.42.42 0 0 0-.41-.42H3.62zm0 1.75a.42.42 0 0 0-.42.42v.2c0 .23.19.42.42.42h5.46a.42.42 0 0 0 .42-.42v-.2a.42.42 0 0 0-.41-.42H3.62z"/></g></svg>
