<svg xmlns="http://www.w3.org/2000/svg" width="48" height="48" viewBox="0 0 12.7 12.7"><path d="M6.34.07a6.29 6.29 0 0 0-6.29 6.3 6.29 6.29 0 0 0 6.3 6.28 6.29 6.29 0 0 0 6.28-6.29A6.29 6.29 0 0 0 6.34.07zm-.01.94a5.4 5.4 0 0 1 5.4 5.4 5.4 5.4 0 0 1-5.4 5.41 5.4 5.4 0 0 1-5.41-5.4A5.4 5.4 0 0 1 6.32 1zm-1.35.72c-.62 0-1.08.39-1.26.73-.18.35-.17.69-.17.69v7.41l2.83-1.41 2.82 1.41V3.15s.01-.33-.16-.68a1.42 1.42 0 0 0-1.25-.74H4.98zm1.4 1c.15 0 .65 1.27.78 1.36.13.09 1.47.18 1.52.33.05.15-.99 1.01-1.04 1.16-.05.15.29 1.47.16 1.56-.13.09-1.27-.63-1.42-.63-.16 0-1.3.72-1.43.63-.12-.1.2-1.4.16-1.56-.05-.15-1.09-1.01-1.04-1.16.05-.15 1.4-.24 1.52-.33.13-.1.63-1.35.79-1.35z" fill="#2ca02c"/></svg>
