<svg xmlns="http://www.w3.org/2000/svg" width="48" height="48" viewBox="0 0 12.7 12.7"><g fill="#2ca02c"><path d="M6.34.07a6.29 6.29 0 0 0-6.29 6.3 6.29 6.29 0 0 0 6.3 6.28 6.29 6.29 0 0 0 6.28-6.29A6.29 6.29 0 0 0 6.34.07zm-.01.94a5.4 5.4 0 0 1 5.4 5.4 5.4 5.4 0 0 1-5.4 5.41 5.4 5.4 0 0 1-5.41-5.4A5.4 5.4 0 0 1 6.32 1z"/><path d="M2.7 3.24c-.14 0-.26.02-.26.04v.74c0 .02.12.04.26.04h7.25c.14 0 .26-.02.26-.04v-.74c0-.02-.12-.04-.26-.04H2.7zm-.24 1.01v5.06c0 .14.11.26.26.26h7.24a.26.26 0 0 0 .26-.26V4.26zm.48.83h1.1v1.29h-1.1zm0 1.84h1.1v1.29h-1.1z"/></g></svg>
