<svg xmlns="http://www.w3.org/2000/svg" width="24" height="24" id="svg7"><defs id="defs3"><style id="current-color-scheme"/></defs><g transform="translate(1.2 1.23) scale(1.70119)" font-weight="400" id="g6" color="#bebebe" font-family="sans-serif" white-space="normal" fill="#ff7f2a"><path d="M6.34.07A6.28 6.28 0 0 0 .1 6.33a6.28 6.28 0 0 0 6.26 6.25 6.28 6.28 0 0 0 6.25-6.25A6.28 6.28 0 0 0 6.34.07zm0 3.58c1.5 0 2.69 1.18 2.69 2.68C9.03 7.83 7.85 9 6.35 9a2.66 2.66 0 0 1-2.69-2.68c0-1.5 1.18-2.68 2.68-2.68z" overflow="visible" style="font-variant-ligatures:normal;font-variant-position:normal;font-variant-caps:normal;font-variant-numeric:normal;font-variant-alternates:normal;font-feature-settings:normal;text-indent:0;text-decoration-line:none;text-decoration-style:solid;text-decoration-color:#000;text-transform:none;text-orientation:mixed;shape-padding:0;isolation:auto;mix-blend-mode:normal" id="path2-3"/><path d="M6.34 4.54a1.79 1.79 0 0 0 0 3.58 1.8 1.8 0 0 0 0-3.57zm0 .9c.5 0 .9.39.9.89a.89.89 0 0 1-.9.9.89.89 0 0 1-.89-.9c0-.5.4-.9.9-.9z" overflow="visible" style="font-variant-ligatures:normal;font-variant-position:normal;font-variant-caps:normal;font-variant-numeric:normal;font-variant-alternates:normal;font-feature-settings:normal;text-indent:0;text-decoration-line:none;text-decoration-style:solid;text-decoration-color:#000;text-transform:none;text-orientation:mixed;shape-padding:0;isolation:auto;mix-blend-mode:normal" id="path4"/></g></svg>
