<svg xmlns="http://www.w3.org/2000/svg" width="24" height="24"><defs><style id="current-color-scheme">.ColorScheme-Text{color:#ff7f2a}</style></defs><g id="layer12"><path class="ColorScheme-Text" d="M8 1C7.05 1 6.26 2 6.06 3.31c-1.09-.79-2.34-.93-3-.26-.68.67-.54 1.93.25 3.01C1.98 6.26 1 7.06 1 8s.98 1.74 2.31 1.95c-.79 1.08-.93 2.33-.26 3 .67.67 1.92.53 3-.26A4.43 4.43 0 0 1 6 12 6.2 6.2 0 0 1 7.1 9.8a2 2 0 0 1-.51-.37 2 2 0 0 1 0-2.83 2 2 0 0 1 2.82 0 2 2 0 0 1 0 2.83 2 2 0 0 1-.5.37A6.2 6.2 0 0 1 10 12c0 .24-.02.47-.06.7 1.09.78 2.34.92 3 .25.68-.67.54-1.92-.25-3 1.32-.21 2.3-1 2.3-1.95s-.98-1.73-2.3-1.94c.79-1.08.93-2.34.26-3-.67-.68-1.92-.54-3 .25-.21-1.32-1-2.3-1.95-2.3zm1.72 12.52l-.04.1.04-.1zm-2.77 1.02v.02l.17.13h.02c-.07-.04-.13-.09-.2-.15zm2.09.02l-.18.14.02-.01.16-.13zm-1.77.23h.01l.2.1a1.54 1.54 0 0 1-.21-.1zm1.46 0l-.2.1.19-.1h.01z" transform="rotate(30 2.08 17.2)" fill="currentColor"/><path class="ColorScheme-Text" d="M7.1 9.78A6.2 6.2 0 0 0 6 12c0 1.67.9 3 2 3s2-1.33 2-3A6.2 6.2 0 0 0 8.9 9.8 2 2 0 0 1 8 10a2 2 0 0 1-.9-.22z" transform="rotate(30 2.08 17.2)" fill="currentColor" opacity=".3"/></g></svg>
