<svg xmlns="http://www.w3.org/2000/svg" width="48" height="48" viewBox="0 0 12.7 12.7"><path fill="green" d="M6.34.08A6.27 6.27 0 0 0 .08 6.34a6.27 6.27 0 0 0 6.26 6.27 6.27 6.27 0 0 0 6.27-6.27A6.27 6.27 0 0 0 6.34.08zM6.33 1A5.39 5.39 0 0 1 11.7 6.4a5.39 5.39 0 0 1-5.38 5.39 5.39 5.39 0 0 1-5.4-5.4 5.39 5.39 0 0 1 5.4-5.38zM2.76 2.64l-.02.01-.02.03v5.88c.02.1-.04.25.04.32H5.1c-.28.24-.48.57-.48.95-.04.54.48.99 1 .94.72-.04 1.37-.73 1.3-1.46v-.43h1.08a1.19 1.19 0 0 0-.08.27c-.1.47.23.95.68 1.08.84.28 1.79-.54 1.69-1.41V3.9c-.02-.17-.15-.33-.33-.32l-1.75.27V2.64H3.67zm.9.25h3.6V4l-.72.12c-.3.15-.2.55-.22.82v.8H3.67zM3 2.92h.38v.38H3zm4.54 0h.38v.38h-.38zM3 3.68h.38v.38H3zm4.54 0h.38v.22l-.38.06zM3 4.44h.38v.38H3zm6.71.66v2.96a1.5 1.5 0 0 0-1.5.48V5.32a230.21 230.21 0 0 1 1.5-.22zm-6.7.1h.37v.37H3zm4.91.16v.21h-.38v-.15l.38-.06zm-.66.1v.28H6.9v-.22l.36-.06zM3 5.96h.38v.37H3zm4.54 0h.38v.37h-.38zm-3.87.02h2.65v2.57a1.4 1.4 0 0 0-.83.09H3.67zm3.23 0h.36v2.58a.36.36 0 0 1 0 .08H6.9zM3 6.71h.38v.38H3zm4.54 0h.38v.38h-.38zM3 7.46h.38v.38H3zm4.54 0h.38v.38h-.38zM3 8.22h.38v.38H3zm4.54 0h.38v.38h-.38z"/></svg>