<svg xmlns="http://www.w3.org/2000/svg" width="48" height="48" viewBox="0 0 12.7 12.7"><path fill="green" d="M6.34.08A6.27 6.27 0 0 0 .08 6.34a6.27 6.27 0 0 0 6.26 6.27 6.27 6.27 0 0 0 6.27-6.27A6.27 6.27 0 0 0 6.34.08zM6.33 1A5.39 5.39 0 0 1 11.7 6.4a5.39 5.39 0 0 1-5.38 5.39 5.39 5.39 0 0 1-5.4-5.4 5.39 5.39 0 0 1 5.4-5.38zM5 2.46a1.23 1.23 0 1 0 .5 2.36l3.82 3.8h.3V7.7L7.48 5.55l.72-.73A1.23 1.23 0 0 0 9.93 3.7a1.23 1.23 0 1 0-2.35.5l-.73.73-.73-.73a1.23 1.23 0 0 0 .11-.5C6.23 3 5.68 2.46 5 2.46zm0 .62A.62.62 0 1 1 5 4.3a.62.62 0 0 1 0-1.23zm3.7 0a.62.62 0 1 1 0 1.23.62.62 0 0 1 0-1.23zm-6.03 1.8v4.95H7.6L5.55 7.77h-.03l-.64.65.42.42H3.65V7.19l.3.3.64-.65v-.02zm2.86 2.9v-.01zm1.32-2.39a.15.15 0 1 1 0 .31.15.15 0 0 1 0-.3zm-.93.46L4.07 7.7v.93h.31l2.16-2.16z"/></svg>