<svg xmlns="http://www.w3.org/2000/svg" width="24" height="24"><path d="M12 .09C5.352.09 0 5.382 0 11.955S5.352 23.82 12 23.82s12-5.292 12-11.865S18.648.09 12 .09zm0 2.967c4.986 0 9 3.968 9 8.898s-4.014 8.899-9 8.899-9-3.97-9-8.899c0-4.93 4.014-8.898 9-8.898zm-.26 1.947c-2.298.129-4.064 1.9-3.935 4.2h2.799c-.045-.79.524-1.356 1.312-1.4a1.383 1.383 0 0 1 1.486 1.313v.041c.006.182-.043.457-.173.613-.318.381-.68.694-.963.918a5.347 5.347 0 0 0-1.008.965c-.342.429-.654 1.044-.654 1.748-.01.74.66 1.4 1.4 1.4.739 0 1.408-.66 1.398-1.4 0 .003-.025.044.045-.045.069-.086.256-.234.524-.435 1.702-1.29 2.232-2.018 2.232-3.98-.129-2.3-2.163-4.067-4.463-3.938zm.207 11.2a1.4 1.4 0 0 0 .057 2.798 1.4 1.4 0 1 0 0-2.799 1.4 1.4 0 0 0-.057 0z" fill="gray" fill-opacity=".996"/></svg>