<svg xmlns="http://www.w3.org/2000/svg" width="24" height="24"><path d="M12 2.07c-5.54 0-10 4.4-10 9.88a9.92 9.92 0 0 0 10 9.9c5.54 0 10-4.42 10-9.9a9.92 9.92 0 0 0-10-9.88zm0 2.47c4.16 0 7.5 3.3 7.5 7.42 0 4.1-3.35 7.41-7.5 7.41-4.16 0-7.5-3.3-7.5-7.42 0-4.1 3.34-7.41 7.5-7.41zm0 1.65a5.75 5.75 0 0 0-4.96 2.9h9.92A5.75 5.75 0 0 0 12 6.2zm-5.6 4.37c-.14.44-.23.9-.23 1.4 0 .54.17 1.03.31 1.54h11.04c.14-.5.31-1 .31-1.54 0-.5-.09-.96-.22-1.4H6.39zm.81 4.51a5.64 5.64 0 0 0 9.58 0z" fill="gray" stroke-width=".83"/></svg>