<svg xmlns="http://www.w3.org/2000/svg" width="24" height="24" version="1"><path d="M11.79 2.5c-.94 0-5.11.94-5.11.94-.4.23-.45.65-.45 1.38h5.1c0-.56.35-.46.92-.46v1.88h-.5c-.47 0-.46-.05-.46-.46h-5.1c0 .72.04 1.14.45 1.37l4.87.94c.18.09.23.23.23.46v2.32h-.46a.46.46 0 1 0 0 .93h.97v9.7h2.78v-9.7h.42V8.99h.97v.24c0 .12.1.23.23.23h.48c.12 0 .22-.1.22-.24v-1.4a.22.22 0 0 0-.22-.22h-.49a.22.22 0 0 0-.22.23v.23h-.96V6.24h-.43v-1.4c.15 0 .3-.02.46-.05v.5h2.32c0-.33-.42-.66-.95-.92.54-.26.95-.6.95-.94h-2.78V2.5H11.8z" fill="gray"/></svg>