<svg xmlns="http://www.w3.org/2000/svg" width="24" height="24" viewBox="0 0 6.35 6.35"><path d="M4.318 1.156L3.211 3.184l.088.135.81.003v.356h-.035a.121.121 0 0 0-.121.122v1.224c0 .067.054.121.121.121h.43a.121.121 0 0 0 .122-.121V3.8a.121.121 0 0 0-.121-.122h-.052v-.355l.8.002.1-.145zm-2.17.232c-.327.016-.74.28-1.134.828 0 0 1.17-.599 1.17.36v.927h-.116s-.117 0-.117.117v1.404c0 .117.117.117.117.117h.702s.117 0 .117-.117V3.62c0-.117-.117-.117-.117-.117h-.117v-.98c.002-.109.068-.402.347-.402l.238.212h.35v-.936h-.35L3 1.557s-.524-.185-.851-.169z" fill="gray"/></svg>