<svg xmlns="http://www.w3.org/2000/svg" width="48" height="48" viewBox="0 0 12.7 12.7"><path fill="#a02c2c" d="M6.344.073a6.29 6.29 0 0 0-6.29 6.29 6.29 6.29 0 0 0 6.29 6.288 6.29 6.29 0 0 0 6.29-6.289 6.29 6.29 0 0 0-6.29-6.29zm-.018.936a5.407 5.407 0 0 1 5.407 5.407 5.407 5.407 0 0 1-5.407 5.407A5.407 5.407 0 0 1 .92 6.416 5.407 5.407 0 0 1 6.326 1.01zm.108 1.24c-.532 0-1.047.104-1.544.31a3.96 3.96 0 0 0-2.16 2.203 4.222 4.222 0 0 0-.302 1.584c0 .576.1 1.115.297 1.617.199.5.487.94.866 1.32.379.38.81.67 1.295.868.486.2 1.002.301 1.55.301.449 0 .891-.08 1.326-.238.438-.155.842-.38 1.212-.675l-.475-.74a2.934 2.934 0 0 1-.954.58 3.1 3.1 0 0 1-1.119.215c-.434 0-.844-.08-1.228-.238a3.025 3.025 0 0 1-1.017-.68 3.189 3.189 0 0 1-.688-1.05 3.465 3.465 0 0 1-.235-1.28c0-.55.121-1.062.364-1.534a3.09 3.09 0 0 1 1.895-1.566c.314-.095.642-.142.985-.142.491 0 .947.1 1.367.301a2.82 2.82 0 0 1 1.056.859c.175.222.304.467.39.735.086.265.129.55.129.854 0 .478-.105.871-.315 1.179-.21.304-.499.485-.865.543V4.409h-.928v.598a1.048 1.048 0 0 0-.43-.506 1.272 1.272 0 0 0-.688-.183c-.506 0-.918.19-1.238.57-.32.381-.48.876-.48 1.485 0 .609.159 1.103.475 1.484.32.377.734.566 1.243.566.263 0 .493-.059.688-.178.198-.121.341-.29.43-.505v.701h.173c.879 0 1.56-.228 2.041-.684.482-.457.724-1.098.724-1.923a3.453 3.453 0 0 0-.675-2.069A3.608 3.608 0 0 0 8.24 2.642a4.093 4.093 0 0 0-1.806-.393zm-.062 2.918c.266 0 .478.108.635.325.16.213.24.503.24.871 0 .372-.079.667-.236.887a.74.74 0 0 1-.63.324.744.744 0 0 1-.635-.324c-.153-.216-.23-.512-.23-.887 0-.368.077-.658.23-.871a.737.737 0 0 1 .626-.325z"/></svg>