<svg xmlns="http://www.w3.org/2000/svg" width="48" height="48" version="1"><defs><linearGradient id="a"><stop offset="0" stop-color="#040000"/><stop offset="1" stop-opacity="0"/></linearGradient></defs><path d="M24 .23A23.77 23.77 0 0 0 .23 24.01 23.77 23.77 0 0 0 24 47.77 23.77 23.77 0 0 0 47.77 24 23.77 23.77 0 0 0 24 .23zm-.07 3.54a20.44 20.44 0 0 1 20.44 20.44 20.44 20.44 0 0 1-20.44 20.43A20.44 20.44 0 0 1 3.5 24.21 20.44 20.44 0 0 1 23.93 3.77zm0 3A17.44 17.44 0 0 0 6.5 24.22a17.44 17.44 0 0 0 17.43 17.44A17.44 17.44 0 0 0 41.37 24.2 17.44 17.44 0 0 0 23.93 6.77zm-8.7 6.56h.41c1.16 0 2.2.47 3.12 1.4-.24.21-.43.32-.56.32a3.88 3.88 0 0 0-2.67-1.09h-.1c-1.65 0-2.9.82-3.72 2.45-.2.47-.31 1-.31 1.58v.1c0 1.55.8 2.75 2.38 3.62a4.06 4.06 0 0 0 4.42-.73h.1l.46.24v.07a4.45 4.45 0 0 1-3.3 1.4h-.06c-1.6 0-2.93-.75-3.97-2.24a4.48 4.48 0 0 1-.66-2.24v-.43c0-1.4.67-2.61 2.03-3.64.81-.54 1.62-.81 2.42-.81zm6.61.1l.04.03v.87a4.55 4.55 0 0 0-1.21 3.02v.2c0 1.74.89 3.09 2.67 4.04.58.26 1.2.39 1.88.39h.04l.83-.08.04.04v.6c0 .1-.25.15-.75.15h-.4c-1.53 0-2.87-.72-4.04-2.16a5.02 5.02 0 0 1-.98-2.79v-.58c0-1.36.63-2.6 1.88-3.73zM10.38 24.5h19.75c.15 0 .28.13.28.29 0 .15-.13.28-.28.28H10.38a.28.28 0 0 1-.29-.28c0-.16.13-.29.29-.29z" fill="#a02c2c"/></svg>