<svg xmlns="http://www.w3.org/2000/svg" width="48" height="48" viewBox="0 0 12.7 12.7"><path d="M6.344.073a6.29 6.29 0 0 0-6.29 6.29 6.29 6.29 0 0 0 6.29 6.288 6.29 6.29 0 0 0 6.29-6.289 6.29 6.29 0 0 0-6.29-6.29zm-.018.936a5.407 5.407 0 0 1 5.407 5.407 5.407 5.407 0 0 1-5.407 5.407A5.407 5.407 0 0 1 .92 6.416 5.407 5.407 0 0 1 6.326 1.01zm.023.965a1.959 1.959 0 0 0-1.958 1.958c0 .554.233 1.052.603 1.409-1.632.335-2.906 1.195-2.906 1.798 0 .355 1.448.152 1.498.463l.36 2.432c0 .233.122.415.28.415a8.235 8.235 0 0 0 4.24 0c.158 0 .288-.182.288-.415l.36-2.432c.066-.262 1.498-.108 1.498-.463 0-.603-1.274-1.463-2.906-1.798a1.95 1.95 0 0 0 .602-1.409 1.959 1.959 0 0 0-1.959-1.958zM54.45 57.21c-.7 0-1.262.563-1.262 1.263s.563 1.263 1.262 1.263h2.916v4.55h2.622v-4.55h2.679c.7 0 1.263-.564 1.263-1.263 0-.7-.564-1.263-1.263-1.263zm2.916 7.075h-3.762c-.506 0-.987.4-1.08.898l-1.57 8.489c-.092.497.241.898.747.898h4.586v.032h4.54v-.032h4.597c.505 0 .839-.4.747-.898l-1.571-8.49a1.137 1.137 0 0 0-1.08-.897h-3.488l-.007 3.705 2.545.002-3.982 3.266-3.815-3.254 2.593.01z" fill="#a02c2c"/></svg>