<svg xmlns="http://www.w3.org/2000/svg" width="48" height="48" viewBox="0 0 12.7 12.7"><path fill="#a02c2c" d="M6.344.073a6.29 6.29 0 0 0-6.29 6.29 6.29 6.29 0 0 0 6.29 6.288 6.29 6.29 0 0 0 6.29-6.289 6.29 6.29 0 0 0-6.29-6.29zm-.018.936a5.407 5.407 0 0 1 5.407 5.407 5.407 5.407 0 0 1-5.407 5.407A5.407 5.407 0 0 1 .92 6.416 5.407 5.407 0 0 1 6.326 1.01zm-.841.542a.474.474 0 0 0-.248.896l.209.106c.265.134.43.403.43.7v.637h-1.86a.474.474 0 0 0-.464.572L4.04 6.75c.047.22.24.376.464.376h1.373v3.55a.474.474 0 1 0 .948 0v-3.55h1.373a.474.474 0 0 0 .464-.376l.487-2.287a.475.475 0 0 0-.464-.572h-1.86v-.636c0-.657-.364-1.25-.95-1.547l-.207-.105a.476.476 0 0 0-.182-.05zm-.883 3.287h1.274v1.338h-.99l-.284-1.338zm2.222 0h1.274l-.285 1.338h-.99V4.838z"/></svg>