<svg xmlns="http://www.w3.org/2000/svg" width="48" height="48" viewBox="0 0 12.7 12.7"><g fill="#a02c2c"><path d="M10.378 2.522l-.264 1.563-1.563.22 1.563.301.285 1.563.235-1.563 1.563-.242-1.563-.279zM3.58.536a6.546 6.546 0 0 0-.49 2.521c0 3.566 2.85 6.458 6.363 6.458a6.218 6.218 0 0 0 2.845-.68c-.966 2.318-3.235 3.934-5.87 3.934-3.514 0-6.363-2.89-6.363-6.456A6.48 6.48 0 0 1 3.58.536z"/><path d="M7.492 4.834l-.264 1.56-1.563.222 1.563.3.287 1.561.233-1.561 1.563-.242-1.563-.28zm-1.819-3.43l-.264 1.564-1.563.22 1.563.3.288 1.563.232-1.563 1.563-.241-1.563-.279z"/></g></svg>