<svg xmlns="http://www.w3.org/2000/svg" width="48" height="48" viewBox="0 0 12.7 12.7"><path fill="#a02c2c" d="M6.344.073a6.29 6.29 0 0 0-6.29 6.29 6.29 6.29 0 0 0 6.29 6.288 6.29 6.29 0 0 0 6.29-6.289 6.29 6.29 0 0 0-6.29-6.29zm-.018.936a5.407 5.407 0 0 1 5.407 5.407 5.407 5.407 0 0 1-5.407 5.407A5.407 5.407 0 0 1 .92 6.416 5.407 5.407 0 0 1 6.326 1.01z"/><path fill="#d40000" d="M5.58 2.155c-.892 0-1.51.195-2.066.654-.436.377-.697.925-.697 1.466 0 .833.635 1.72 1.812 1.72.113 0 .239-.014.35-.023l-.017.04c-.047.113-.092.22-.092.386 0 .325.157.526.308.72l.019.024-.033.002c-.486.033-1.391.095-2.052.501-.78.464-.841 1.139-.841 1.334 0 .78.726 1.566 2.347 1.566 1.886 0 2.872-1.04 2.872-2.068 0-.76-.445-1.135-.918-1.533l-.4-.31c-.123-.103-.275-.23-.275-.466 0-.231.153-.384.288-.519l.015-.014c.43-.34.92-.724.92-1.557 0-.837-.524-1.269-.775-1.477h.664c.008 0 .016 0 .023-.011l.571-.36c.016-.012.024-.03.019-.049a.044.044 0 0 0-.042-.031zm-.797.414c.886 0 1.375 1.19 1.375 2.013 0 .13 0 .525-.273.8a1.119 1.119 0 0 1-.742.306c-.965 0-1.365-1.269-1.365-1.948 0-.345.078-.61.24-.81a1.01 1.01 0 0 1 .765-.361zm4.051 2.41a.045.045 0 0 0-.044.045v1.05H7.742a.043.043 0 0 0-.044.044v.46c0 .023.02.043.044.043H8.79V7.68c0 .023.02.044.044.044h.454c.024 0 .042-.02.042-.044V6.62h1.055c.024 0 .044-.02.044-.044v-.46a.043.043 0 0 0-.044-.042H9.33v-1.05a.044.044 0 0 0-.042-.044zM5.318 7.45c.109 0 .163 0 .25.013.804.572 1.192.873 1.192 1.446 0 .729-.615 1.182-1.606 1.182-1.15 0-1.922-.537-1.922-1.336 0-.522.316-.9.938-1.126.498-.168 1.142-.176 1.148-.176z" opacity=".75"/></svg>