<svg xmlns="http://www.w3.org/2000/svg" width="48" height="48" viewBox="0 0 12.7 12.7"><path fill="#a02c2c" d="M6.344.073a6.29 6.29 0 0 0-6.29 6.29 6.29 6.29 0 0 0 6.29 6.288 6.29 6.29 0 0 0 6.29-6.289 6.29 6.29 0 0 0-6.29-6.29zm-.018.936a5.407 5.407 0 0 1 5.407 5.407 5.407 5.407 0 0 1-5.407 5.407A5.407 5.407 0 0 1 .92 6.416 5.407 5.407 0 0 1 6.326 1.01zM3.013 3.325c-.558 0-1.008.18-1.008.403v5.244c0 .223.45.403 1.008.403.559 0 1.008-.18 1.008-.403V7.597h1.376v1.32c0 .243.707.44 1.586.44H9.11c.878 0 1.585-.197 1.585-.44V3.765c0-.244-.707-.44-1.585-.44H6.983c-.88 0-1.586.196-1.586.44v1.87H4.02V3.728c0-.223-.45-.403-1.008-.403zm3.135.733h3.869v2.963H7.395v.616h2.622V8.81H6.148V5.848h2.695v-.616H6.148V4.058z"/></svg>