<svg xmlns="http://www.w3.org/2000/svg" width="48" height="48" viewBox="0 0 12.7 12.7"><path fill="#a02c2c" d="M6.344.073a6.29 6.29 0 0 0-6.29 6.29 6.29 6.29 0 0 0 6.29 6.288 6.29 6.29 0 0 0 6.29-6.289 6.29 6.29 0 0 0-6.29-6.29zm-.018.936a5.407 5.407 0 0 1 5.407 5.407 5.407 5.407 0 0 1-5.407 5.407A5.407 5.407 0 0 1 .92 6.416 5.407 5.407 0 0 1 6.326 1.01zM3.191 2.584a.601.601 0 0 0-.602.603v6.326a.6.6 0 0 0 .602.603h6.317a.601.601 0 0 0 .603-.603V3.187a.601.601 0 0 0-.603-.603H3.191zm.283.337h5.752c.304 0 .549.245.549.55v5.758c0 .305-.245.55-.549.55H3.474a.548.548 0 0 1-.55-.55V3.471a.55.55 0 0 1 .55-.55zm1.623.431h-1.74v4.024l.315.23h.002c.867.59 1.444.783 2.153.74 1.014-.06 1.785-.764 1.785-1.595a1.36 1.36 0 0 0-.274-.81c-.162-.209-.363-.315-.523-.315-.11 0-.182.046-.271.077.013 0 .026-.005.04-.004a.831.831 0 0 1 .489.23c.19.174.285.417.285.688 0 .75-.614 1.35-1.41 1.347-1.125-.005-1.942-1.051-1.937-2.246.004-.87.337-1.594 1.086-2.366zm2.033.996c-.082-.003-.165 0-.257.005-1.014.06-1.785.764-1.785 1.595 0 .302.112.603.274.811.162.209.363.314.523.314.11 0 .182-.046.271-.077-.013 0-.026.006-.04.005a.833.833 0 0 1-.489-.231.904.904 0 0 1-.285-.688c0-.75.614-1.35 1.41-1.347 1.125.005 1.942 1.052 1.937 2.246-.004.871-.337 1.595-1.086 2.366h1.74V5.324l-.316-.23C8.268 4.58 7.725 4.37 7.13 4.35z"/></svg>