<svg xmlns="http://www.w3.org/2000/svg" width="48" height="48" viewBox="0 0 12.7 12.7"><path d="M6.344.073a6.29 6.29 0 0 0-6.29 6.29 6.29 6.29 0 0 0 6.29 6.288 6.29 6.29 0 0 0 6.29-6.289 6.29 6.29 0 0 0-6.29-6.29zm-.018.936a5.407 5.407 0 0 1 4.194 1.999H2.134a5.407 5.407 0 0 1 4.192-1.999zm-2.294.836v.899h.899v-.9h-.899zm1.396.26v.355h3.098v-.355H5.428zM1.82 3.433h1.094v6.194c0 .367.256.663.575.663h3.902c.319 0 .575-.296.575-.663V7.465l1.64-1.64-.992-.993-.648.648V3.433h2.864a5.407 5.407 0 0 1 .902 2.983 5.407 5.407 0 0 1-5.407 5.407A5.407 5.407 0 0 1 .92 6.416a5.407 5.407 0 0 1 .902-2.983zm1.506 0h4.229a.64.64 0 0 1 .02.15v2.289l-.829.828h-.409v.014H5.061v.354h1.277v.04l-.65.652v.373h-.639v.354h.639v.265h.992l.264-.265h.234v-.233l.397-.398V9.12c0 .31-.217.56-.486.56H3.793c-.27 0-.486-.25-.486-.56V3.583a.64.64 0 0 1 .02-.15zm.339.375v.898h.899v-.898h-.9zm5.9.182a.264.264 0 0 0-.186.077l-.484.485.992.992.484-.484a.265.265 0 0 0 0-.374l-.618-.619a.264.264 0 0 0-.187-.077zm-4.505.078v.354h2.13v-.354H5.06zM3.666 5.085v.899h.899v-.899h-.9zm1.395.26v.354H7.19v-.354H5.06zM3.666 6.453v.899h.899v-.899h-.9zm-.012 1.42v.898h.899v-.899h-.899zM54.45 57.21c-.7 0-1.262.563-1.262 1.263s.563 1.263 1.262 1.263h2.916v4.55h2.622v-4.55h2.679c.7 0 1.263-.564 1.263-1.263 0-.7-.564-1.263-1.263-1.263zm2.916 7.075h-3.762c-.506 0-.987.4-1.08.898l-1.57 8.489c-.092.497.241.898.747.898h4.586v.032h4.54v-.032h4.597c.505 0 .839-.4.747-.898l-1.571-8.49a1.137 1.137 0 0 0-1.08-.897h-3.488l-.007 3.705 2.545.002-3.982 3.266-3.815-3.254 2.593.01z" fill="#a02c2c"/></svg>