<svg xmlns="http://www.w3.org/2000/svg" width="48" height="48" viewBox="0 0 12.7 12.7"><path fill="#a02c2c" d="M6.344.073a6.29 6.29 0 0 0-6.29 6.29 6.29 6.29 0 0 0 6.29 6.288 6.29 6.29 0 0 0 6.29-6.289 6.29 6.29 0 0 0-6.29-6.29zm-.018.936a5.407 5.407 0 0 1 5.407 5.407 5.407 5.407 0 0 1-5.407 5.407A5.407 5.407 0 0 1 .92 6.416 5.407 5.407 0 0 1 6.326 1.01zm1.6 1.794a4.733 4.733 0 0 0-2.135.527C3.411 4.568 1.75 7.677 1.75 7.677c3.52 3.65 6.308 2.152 6.308 2.152 2.696-1.254 2.359-5.71 2.359-5.71-.563-.953-1.517-1.314-2.49-1.316zm-3.38 2.22l3.423.001c.25 0 .308.025.51.091.352.175.484.555.499.9.01.568.001 1.139.004 1.708h-.964V6.195c0-.313-.022-.553-.387-.553-.407 0-.383.304-.385.55-.011.51.003 1.02 0 1.531H6.28V6.185c0-.356-.03-.543-.403-.543-.326 0-.366.247-.366.524-.016.518.004 1.038 0 1.557h-.965v-2.7z"/></svg>