<svg xmlns="http://www.w3.org/2000/svg" width="48" height="48" viewBox="0 0 12.7 12.7"><path fill="#a02c2c" d="M6.344.073a6.29 6.29 0 0 0-6.29 6.29 6.29 6.29 0 0 0 6.29 6.288 6.29 6.29 0 0 0 6.29-6.289 6.29 6.29 0 0 0-6.29-6.29zm-.018.936a5.407 5.407 0 0 1 5.407 5.407 5.407 5.407 0 0 1-5.407 5.407A5.407 5.407 0 0 1 .92 6.416 5.407 5.407 0 0 1 6.326 1.01zm.7 2.148A1.94 1.94 0 0 0 5.3 4.236a1.323 1.323 0 0 0-.723-.215c-.747 0-1.351.617-1.351 1.38 0 .121.018.238.047.35a2.082 2.082 0 0 0-.892 1.72c0 1.148.904 2.072 2.027 2.072h3.884c1.123 0 2.027-.924 2.027-2.071a2.06 2.06 0 0 0-1.383-1.963 2.02 2.02 0 0 0 .032-.367c0-1.096-.87-1.985-1.942-1.985z"/></svg>