<svg xmlns="http://www.w3.org/2000/svg" width="48" height="48" viewBox="0 0 12.7 12.7"><path fill="#a02c2c" d="M6.344.073a6.29 6.29 0 0 0-6.29 6.29 6.29 6.29 0 0 0 6.29 6.288 6.29 6.29 0 0 0 6.29-6.289 6.29 6.29 0 0 0-6.29-6.29zm-.018.936a5.407 5.407 0 0 1 5.407 5.407 5.407 5.407 0 0 1-5.407 5.407A5.407 5.407 0 0 1 .92 6.416 5.407 5.407 0 0 1 6.326 1.01zM3.893 2.495a.98.98 0 0 0-.983.983v4.914a.98.98 0 0 0 .983.983h4.914a.98.98 0 0 0 .983-.983V3.478a.98.98 0 0 0-.983-.983H3.893zm0 .492h4.914a.49.49 0 0 1 .491.49V7.9a.49.49 0 0 1-.491.492H3.893a.49.49 0 0 1-.491-.492V3.478a.49.49 0 0 1 .491-.491zm3.27 1.962c-.387 0-.76.126-1.12.369l.184.418a2.08 2.08 0 0 1 .445-.23c.147-.058.28-.078.43-.078.222 0 .39.051.507.17a.647.647 0 0 1 .215.475v.15a2.254 2.254 0 0 0-.384-.092 1.973 1.973 0 0 0-.384-.03 1.7 1.7 0 0 0-.476.061 1.27 1.27 0 0 0-.383.185.824.824 0 0 0-.231.276.89.89 0 0 0-.014.756.859.859 0 0 0 .183.276c.086.078.193.137.308.184.117.043.247.061.382.061.211 0 .403-.037.584-.123.186-.089.337-.22.461-.383l.015.169a.365.365 0 0 0 .108.214c.06.054.147.085.261.093.04 0 .092.003.138 0 .05-.003.097-.005.154-.016v-.507c-.061-.003-.149-.017-.174-.046a.245.245 0 0 1-.057-.153V6.1c0-.367-.046-.648-.26-.844-.214-.197-.506-.308-.891-.308zM7.12 6.457c.108 0 .3.025.41.047.114.022.196.052.295.091v.369c0 .071-.063.15-.138.214-.21.187-.462.212-.707.23-.16 0-.36.01-.464-.083a.46.46 0 0 1-.165-.346c0-.15.144-.28.276-.369a.82.82 0 0 1 .493-.152z"/></svg>