<svg xmlns="http://www.w3.org/2000/svg" width="48" height="48" viewBox="0 0 12.7 12.7"><path fill="#a02c2c" d="M6.344.073a6.29 6.29 0 0 0-6.29 6.29 6.29 6.29 0 0 0 6.29 6.288 6.29 6.29 0 0 0 6.29-6.289 6.29 6.29 0 0 0-6.29-6.29zm-.018.936a5.407 5.407 0 0 1 5.407 5.407 5.407 5.407 0 0 1-5.407 5.407A5.407 5.407 0 0 1 .92 6.416 5.407 5.407 0 0 1 6.326 1.01zM3.298 3.733a1.124 1.124 0 0 0-1.124 1.124 1.124 1.124 0 0 0 .339.803h-.116a.544.544 0 0 0-.545.545v1.16c0 .301.243.544.545.544h1.91a.544.544 0 0 0 .544-.545v-1.16a.544.544 0 0 0-.545-.544h-.221a1.124 1.124 0 0 0 .337-.803 1.124 1.124 0 0 0-1.124-1.124zM6.145 5.66a.544.544 0 0 0-.545.545v.41c0 .301.243.544.545.544h4.158a.544.544 0 0 0 .545-.544v-.41a.544.544 0 0 0-.545-.545H6.145z"/></svg>