<svg xmlns="http://www.w3.org/2000/svg" width="48" height="48" viewBox="0 0 12.7 12.7"><path fill="#a02c2c" d="M6.344.073a6.29 6.29 0 0 0-6.29 6.29 6.29 6.29 0 0 0 6.29 6.288 6.29 6.29 0 0 0 6.29-6.289 6.29 6.29 0 0 0-6.29-6.29zm-.018.936a5.407 5.407 0 0 1 5.407 5.407 5.407 5.407 0 0 1-5.407 5.407A5.407 5.407 0 0 1 .92 6.416 5.407 5.407 0 0 1 6.326 1.01zM5.071 2.684a.34.34 0 0 0-.341.341v2.217H2.855a.34.34 0 0 0-.341.34v4.093a.34.34 0 0 0 .34.34H7.63a.34.34 0 0 0 .341-.34v-2.21l1.875-.007a.34.34 0 0 0 .341-.34V3.025a.34.34 0 0 0-.34-.341H5.07zm0 1.109h4.774c.048 0 .086.038.086.085v3.24a.085.085 0 0 1-.086.085l-1.875.006V5.583a.34.34 0 0 0-.341-.341h-2.66l.017-1.365c0-.047.038-.084.085-.084zM2.855 6.35h4.774c.047 0 .085.038.085.085v3.24a.085.085 0 0 1-.085.085H2.855a.085.085 0 0 1-.086-.085v-3.24c0-.047.038-.085.086-.085z"/></svg>