<svg xmlns="http://www.w3.org/2000/svg" width="48" height="48" viewBox="0 0 12.7 12.7"><path fill="#a02c2c" d="M6.344.073a6.29 6.29 0 0 0-6.29 6.29 6.29 6.29 0 0 0 6.29 6.288 6.29 6.29 0 0 0 6.29-6.289 6.29 6.29 0 0 0-6.29-6.29zm-.018.936a5.407 5.407 0 0 1 5.407 5.407 5.407 5.407 0 0 1-1.168 3.347H8.207v-.09a.119.119 0 0 0-.12-.119h-.339v-.592h1.64c.37 0 .67-.298.67-.669v-4.58c0-.37-.3-.67-.67-.67h-5.98a.67.67 0 0 0-.669.67v4.58c0 .37.299.67.67.67h1.68v.591h-.477a.119.119 0 0 0-.119.12v.09H2.081A5.407 5.407 0 0 1 .919 6.415 5.407 5.407 0 0 1 6.326 1.01zM3.916 3.71h5.001c.287 0 .518.23.518.517v3.537a.517.517 0 0 1-.518.518h-5a.516.516 0 0 1-.518-.518V4.227c0-.286.231-.517.518-.517zm3.321.878a.119.119 0 0 0-.119.119v.945a.12.12 0 0 0 .12.119h1.346a.119.119 0 0 0 .12-.12v-.944a.119.119 0 0 0-.12-.12H7.237zm-2.862 1.04a.118.118 0 0 0-.118.12v1.56c0 .065.053.118.118.118h1.703a.118.118 0 0 0 .119-.118v-1.56a.119.119 0 0 0-.12-.12H4.376zm-1.714 4.754h1.832v.094c0 .066.053.12.12.12h3.475a.119.119 0 0 0 .119-.12v-.094h1.787a5.407 5.407 0 0 1-3.668 1.441 5.407 5.407 0 0 1-3.665-1.44z"/></svg>