<svg xmlns="http://www.w3.org/2000/svg" width="48" height="48" viewBox="0 0 12.7 12.7"><path fill="#a02c2c" d="M6.344.073a6.29 6.29 0 0 0-6.29 6.29 6.29 6.29 0 0 0 6.29 6.288 6.29 6.29 0 0 0 6.29-6.289 6.29 6.29 0 0 0-6.29-6.29zm-.018.936a5.407 5.407 0 0 1 5.407 5.407 5.407 5.407 0 0 1-5.407 5.407A5.407 5.407 0 0 1 .92 6.416 5.407 5.407 0 0 1 6.326 1.01zm-.825 1.866c-1.843.01-3.197 1.036-2.893 3.11.404-2.47 3.124-2.463 5.445-.798l-1.014 1.08 3.096.001-.013-3.303-1.025.984C7.89 3.229 6.607 2.87 5.5 2.875zM2.565 6.527l.013 3.303 1.025-.984c3.218 1.918 6.976 1.281 6.489-2.036-.404 2.47-3.124 2.463-5.445.798l1.014-1.08-3.096-.001z"/></svg>