<svg xmlns="http://www.w3.org/2000/svg" width="48" height="48" viewBox="0 0 12.7 12.7"><path d="M6.35.083A6.267 6.267 0 0 0 .084 6.35a6.267 6.267 0 0 0 6.268 6.267 6.267 6.267 0 0 0 6.266-6.267A6.267 6.267 0 0 0 6.351.083zm-.017.932a5.388 5.388 0 0 1 5.388 5.39 5.388 5.388 0 0 1-5.388 5.387 5.388 5.388 0 0 1-5.39-5.388 5.388 5.388 0 0 1 5.39-5.389zM5.556 3.71V9h1.588V7.15h.397a.33.33 0 0 1 .221.088c.396.529.66 1.17.97 1.764h1.851L9.582 7.228s-.03-.067-.093-.133a.761.761 0 0 0-.2-.146.634.634 0 0 0-.28-.069c.037-.01 1.046-.284 1.091-1.583-.046-1.323-1.369-1.587-1.68-1.587H5.557zm1.588 1.052l1.058.001s.265 0 .265.61c0 .712-.265.712-.265.712H7.144V4.762z" fill="#a02c2c"/><path d="M6.35 2.117a4.498 3.175 0 0 0-4.498 3.175A4.498 3.175 0 0 0 6.35 8.467a4.498 3.175 0 0 0 4.498-3.175A4.498 3.175 0 0 0 6.35 2.117zm.53 1.058a3.44 2.117 0 0 1 3.439 2.117 3.44 2.117 0 0 1-3.44 2.116 3.44 2.117 0 0 1-3.44-2.116 3.44 2.117 0 0 1 3.44-2.117z" opacity=".603" fill="#a02c2c"/></svg>