<svg xmlns="http://www.w3.org/2000/svg" width="48" height="48" viewBox="0 0 12.7 12.7"><path d="M6.34.07a6.29 6.29 0 0 0-6.29 6.3 6.29 6.29 0 0 0 6.3 6.28 6.29 6.29 0 0 0 6.28-6.29A6.29 6.29 0 0 0 6.34.07zm-.01.94a5.4 5.4 0 0 1 5.4 5.38h-5.4V1zM4.29 2.78a1.3 1.3 0 0 1 1.3 1.3 1.3 1.3 0 0 1-1.3 1.3A1.3 1.3 0 0 1 3 4.08a1.3 1.3 0 0 1 1.3-1.3zm3.9 0v.86h-.87v.87h.87v.87h.87V4.5h.86v-.87h-.86v-.86h-.87zM.92 6.38h5.42v5.44a5.4 5.4 0 0 1-.01 0 5.4 5.4 0 0 1-5.41-5.4 5.4 5.4 0 0 1 0-.03zm3.37.51l-.75 1.52-.76 1.51H5.8l-.76-1.51-.76-1.52zm5.63 0v3.03h-.86V8.7l-.44-.19-1.3-.54 1.3-.54 1.3-.54z" fill="#a02c2c"/></svg>