<svg xmlns="http://www.w3.org/2000/svg" width="48" height="48"><path d="M23.95 3.1A20.86 20.86 0 0 0 3.1 23.95a20.86 20.86 0 0 0 20.85 20.86 20.86 20.86 0 0 0 20.86-20.86A20.86 20.86 0 0 0 23.95 3.1zM24 5.58a18.23 18.23 0 0 1 18.24 18.24A18.23 18.23 0 0 1 24 42.05 18.23 18.23 0 0 1 5.76 23.82 18.23 18.23 0 0 1 24 5.58zm0 2.36A15.61 15.61 0 0 0 8.46 22.23h2.77a12.86 12.86 0 0 1 .15-.96 12.86 12.86 0 0 1 .32-1.25 12.86 12.86 0 0 1 .44-1.2 12.86 12.86 0 0 1 .56-1.16 12.86 12.86 0 0 1 .67-1.1 12.86 12.86 0 0 1 .78-1.02 12.86 12.86 0 0 1 .87-.94 12.86 12.86 0 0 1 .97-.85 12.86 12.86 0 0 1 1.04-.75 12.86 12.86 0 0 1 1.12-.64 12.86 12.86 0 0 1 1.17-.52 12.86 12.86 0 0 1 1.22-.4 12.86 12.86 0 0 1 1.25-.29 12.86 12.86 0 0 1 1.28-.15 12.86 12.86 0 0 1 .9-.04 12.86 12.86 0 0 1 1.3.07 12.86 12.86 0 0 1 1.26.2 12.86 12.86 0 0 1 1.25.3 12.86 12.86 0 0 1 1.2.45 12.86 12.86 0 0 1 1.16.56 12.86 12.86 0 0 1 1.1.67 12.86 12.86 0 0 1 1.02.78 12.86 12.86 0 0 1 .94.87 12.86 12.86 0 0 1 .85.97 12.86 12.86 0 0 1 .75 1.04 12.86 12.86 0 0 1 .64 1.12 12.86 12.86 0 0 1 .52 1.17 12.86 12.86 0 0 1 .4 1.22 12.86 12.86 0 0 1 .29 1.26 12.86 12.86 0 0 1 .07.59h2.83A15.61 15.61 0 0 0 24 7.93zM8.46 25.36A15.61 15.61 0 0 0 24 39.66a15.61 15.61 0 0 0 15.55-14.3H8.45z" fill="#a02c2c"/></svg>