<svg xmlns="http://www.w3.org/2000/svg" width="48" height="48" viewBox="0 0 12.7 12.7"><path fill="#a02c2c" d="M6.344.073a6.29 6.29 0 0 0-6.29 6.29 6.29 6.29 0 0 0 6.29 6.288 6.29 6.29 0 0 0 6.29-6.289 6.29 6.29 0 0 0-6.29-6.29zm-.018.936a5.407 5.407 0 0 1 5.407 5.407 5.407 5.407 0 0 1-5.407 5.407A5.407 5.407 0 0 1 .92 6.416 5.407 5.407 0 0 1 6.326 1.01zm.045.839c-.922 0-1.672.665-1.672 1.486.007.304.039.664.227 1.485.079.227.595.716.896 1.023a.655.655 0 0 1-.07.332c-.955.333-2.675.942-2.766 1.341-.068.621-.169 1.527-.248 2.147 1.673.903 5.608.86 7.224 0-.057-.44-.109-1.707-.166-2.147C9.365 7 8.228 6.698 7.031 6.174a.525.525 0 0 1-.095-.24c.237-.29.792-.865.879-1.115.212-.854.216-1.167.227-1.485 0-.821-.75-1.486-1.671-1.486z"/></svg>