<svg xmlns="http://www.w3.org/2000/svg" width="48" height="48" viewBox="0 0 12.7 12.7"><path fill="#a02c2c" d="M6.344.073a6.29 6.29 0 0 0-6.29 6.29 6.29 6.29 0 0 0 6.29 6.288 6.29 6.29 0 0 0 6.29-6.289 6.29 6.29 0 0 0-6.29-6.29zm-.018.936a5.407 5.407 0 0 1 5.407 5.407 5.407 5.407 0 0 1-5.407 5.407A5.407 5.407 0 0 1 .92 6.416 5.407 5.407 0 0 1 6.326 1.01zm3.452 1.493a.106.106 0 0 0-.056.015c-.053.17-.62.733-.95 1.1l-.401-.378c-.573-.513-.595.36-.583.382.105-.207.336-.282.746.144l-.431.408c.136.06.271.09.407.087l.282-.238c.44.431.344.472.16.75.277.074.784-.226.331-.608l-.316-.345c.358-.335.8-.83 1.08-.96.077-.141-.129-.36-.27-.357zm-6.928.03c-.14-.003-.346.216-.269.356.28.131.723.626 1.08.96l-.317.345c-.453.383.055.683.332.61-.184-.28-.28-.32.16-.75l.282.237a.944.944 0 0 0 .407-.087l-.431-.408c.41-.426.641-.352.745-.145.013-.02-.01-.894-.581-.38l-.402.376c-.33-.366-.897-.93-.95-1.099a.106.106 0 0 0-.056-.015zm3.507 1.1c-.788.502-1.642.664-2.476.8-.132 2.855.245 4.69 2.476 6.504 2.23-1.814 2.607-3.649 2.475-6.504-.834-.136-1.688-.298-2.475-.8zm.001.243c.72.46 1.5.607 2.262.731.121 2.61-.223 4.287-2.262 5.945C4.32 8.893 3.975 7.216 4.096 4.606c.762-.124 1.542-.272 2.262-.731zM6.357 4.91c-.45.203-.908.329-1.375.445-.074 1.586.135 2.847 1.375 3.855 1.24-1.008 1.449-2.269 1.375-3.855-.387-.108-.933-.259-1.375-.445zM4.279 8.62c-.436.471-1.015 1.015-1.043 1.551.458-.22.76-.687 1.205-1.175l-.162-.375zm4.142.001l-.162.375c.445.488.747.954 1.205 1.175-.028-.536-.607-1.08-1.043-1.55z"/></svg>