<svg xmlns="http://www.w3.org/2000/svg" width="48" height="48" viewBox="0 0 12.7 12.7"><path fill="#a02c2c" d="M6.344.073C2.911.073.09 2.895.09 6.328s2.822 6.255 6.255 6.255S12.6 9.761 12.6 6.328 9.777.073 6.344.073zm2.18 1.267s2.157 1.004 2.343 3.385c.132 1.696-.094 2.427-.235 2.71a.642.642 0 0 1-.097.15 4.483 4.483 0 0 0 1.113-3.236s1.188 1.678.78 3.35c-.41 1.671-1.712 2.678-1.712 2.678s.372-1.376.372-2.008c0 0-.705.52-1.074.632 0 0-1.004-1.376-.855-3.142 0 0-.069.045-.159.114a2.656 2.656 0 0 1-1.223 2.629c-.012.51.058 1.096.264 1.775 0 0-.727-.513-1.192-1.416a2.79 2.79 0 0 1-.505.048c-1.5 0-2.68-1.18-2.68-2.681s1.18-2.68 2.68-2.68c.529 0 1.015.148 1.427.402.631-1.192.886-1.67.753-2.71zm-2.18 3.2c-.982 0-1.787.806-1.787 1.788a1.794 1.794 0 0 0 1.964 1.778l-.015-.182a3.186 3.186 0 0 1-.026-.716.887.887 0 0 1-1.03-.88c0-.5.396-.894.894-.894.236 0 .446.09.604.236.136-.282.264-.54.383-.773l.012-.048a1.772 1.772 0 0 0-.999-.308z" color="#bebebe" font-family="sans-serif" font-weight="400" overflow="visible" style="font-variant-ligatures:normal;font-variant-position:normal;font-variant-caps:normal;font-variant-numeric:normal;font-variant-alternates:normal;font-feature-settings:normal;text-indent:0;text-decoration-line:none;text-decoration-style:solid;text-decoration-color:#000;text-transform:none;text-orientation:mixed;shape-padding:0;isolation:auto;mix-blend-mode:normal" white-space="normal"/><path fill="#333" d="M6.521 8.106c.006 0 .011 0 .017-.002l-.005-.023m.814-3.218a.049.049 0 0 1 .005-.008l-.009-.006" color="#bebebe" font-family="sans-serif" font-weight="400" overflow="visible" style="font-variant-ligatures:normal;font-variant-position:normal;font-variant-caps:normal;font-variant-numeric:normal;font-variant-alternates:normal;font-feature-settings:normal;text-indent:0;text-decoration-line:none;text-decoration-style:solid;text-decoration-color:#000;text-transform:none;text-orientation:mixed;shape-padding:0;isolation:auto;mix-blend-mode:normal" white-space="normal"/><path fill="#ffd42a" d="M8.524 1.34s2.157 1.004 2.343 3.385c.132 1.696-.094 2.428-.235 2.71a.642.642 0 0 1-.097.15 4.483 4.483 0 0 0 1.113-3.236s1.188 1.678.78 3.35c-.41 1.671-1.712 2.678-1.712 2.678s.372-1.376.372-2.008c0 0-.705.52-1.074.632 0 0-1.004-1.376-.855-3.142 0 0-2.123 1.208-1.118 4.518 0 0-2.5-1.747-1.194-4.5C8.152 3.126 8.71 2.792 8.524 1.342z" opacity=".75"/></svg>