<svg xmlns="http://www.w3.org/2000/svg" width="24" height="24" version="1"><path d="M12 .16A11.84 11.84 0 0 0 .16 12 11.84 11.84 0 0 0 12 23.84 11.84 11.84 0 0 0 23.84 12 11.84 11.84 0 0 0 12 .16zm-.03 1.76a10.18 10.18 0 0 1 3.56.65L12 4.2 8.1 2.7a10.18 10.18 0 0 1 3.87-.78zm3.87.77a10.18 10.18 0 0 1 5.4 5.23l-3.78-1.46-1.62-3.77zm-8 .12l-1.4 3.84-3.92 1.66a10.18 10.18 0 0 1 5.32-5.5zm.3 4.4c.21 0 .42.1.59.26L12 10.83l3.27-3.36a.82.82 0 0 1 1.19 0 .88.88 0 0 1 0 1.22l-3.27 3.35 3.27 3.36a.88.88 0 0 1 0 1.22.81.81 0 0 1-.6.25.8.8 0 0 1-.59-.25L12 13.26l-3.27 3.36a.8.8 0 0 1-.6.25.81.81 0 0 1-.59-.25.88.88 0 0 1 0-1.22l3.27-3.36L7.54 8.7a.88.88 0 0 1 0-1.22.83.83 0 0 1 .6-.25zm13.19.91a10.18 10.18 0 0 1 .82 3.98 10.18 10.18 0 0 1-.69 3.65l-1.65-3.82 1.52-3.8zM2.49 8.4l1.7 3.93-1.54 3.86a10.18 10.18 0 0 1-.87-4.08A10.18 10.18 0 0 1 2.5 8.4zm18.89 7.59a10.18 10.18 0 0 1-5.18 5.37l1.45-3.73 3.73-1.64zM2.7 16.3l3.84 1.48 1.62 3.76A10.18 10.18 0 0 1 2.7 16.3zm9.55 3.7l3.58 1.51a10.18 10.18 0 0 1-3.86.77 10.18 10.18 0 0 1-3.47-.62l3.75-1.65z" fill="#ff2a2a"/></svg>