<svg xmlns="http://www.w3.org/2000/svg" width="24" height="24" viewBox="0 0 6.35 6.35"><path d="M3.146 1.025L2.7 2.267l-.252-.948c-.021-.082-.211-.1-.425-.042-.213.058-.37.171-.348.253l.22.835h-.031c-.149 0-.176-.02-.217.075l-.26.602v1.932c0 .117-.009.099.14.099h3.265c.149 0 .14.018.14-.1V3.043l-.048-.11v-.204h-.087l-.124-.288a.177.177 0 0 0-.016-.028l.065-.065c-.002.004-.002-.007 0-.006l-.288-.287c.003.004-.009.004-.005 0l-.218.217-.045-.022c-.026-.012-.05-.024-.072-.031l-.046-.017v-.31H3.63v.31l-.046.017c-.022.007-.046.02-.073.032l-.044.022-.11-.11.343-.934-.553-.203zm-.065.348l.222.08-.036.097-.221-.08.035-.097zm-.102.28l.22.08-.035.097-.22-.08.035-.097zm-.103.28l.221.081-.035.096-.221-.08.035-.097zm-.103.28l.221.08-.005.016-.034.033c.003-.006.003.007 0 .006l.014.015v.006h-.08l-.151-.056.035-.1zm-.88.25h.027l.165.625H1.61l.173-.544a.141.141 0 0 1 .04-.065c.011-.008.026-.016.07-.016zm.875.067l.123.045-.035.096L2.8 2.65l-.032-.12zm1.07.06a.35.35 0 0 1 .348.348.342.342 0 0 1-.036.15h-.625a.341.341 0 0 1-.036-.15.35.35 0 0 1 .349-.348z" fill="gray"/></svg>