<?xml version="1.0" encoding="UTF-8" standalone="no"?>
<svg
   xmlns:dc="http://purl.org/dc/elements/1.1/"
   xmlns:cc="http://creativecommons.org/ns#"
   xmlns:rdf="http://www.w3.org/1999/02/22-rdf-syntax-ns#"
   xmlns:svg="http://www.w3.org/2000/svg"
   xmlns="http://www.w3.org/2000/svg"
   xmlns:sodipodi="http://sodipodi.sourceforge.net/DTD/sodipodi-0.dtd"
   xmlns:inkscape="http://www.inkscape.org/namespaces/inkscape"
   width="48"
   height="48"
   version="1.1"
   viewBox="0 0 12.7 12.7"
   id="svg18"
   sodipodi:docname="folder-playonlinux.svg"
   inkscape:version="0.92.3 (2405546, 2018-03-11)">
  <defs
     id="defs22" />
  <sodipodi:namedview
     pagecolor="#ffffff"
     bordercolor="#666666"
     borderopacity="1"
     objecttolerance="10"
     gridtolerance="10"
     guidetolerance="10"
     inkscape:pageopacity="0"
     inkscape:pageshadow="2"
     inkscape:window-width="883"
     inkscape:window-height="480"
     id="namedview20"
     showgrid="false"
     inkscape:zoom="4.9166667"
     inkscape:cx="4.1694915"
     inkscape:cy="24"
     inkscape:window-x="0"
     inkscape:window-y="25"
     inkscape:window-maximized="0"
     inkscape:current-layer="svg18" />
  <metadata
     id="metadata2">
    <rdf:RDF>
      <cc:Work
         rdf:about="">
        <dc:format>image/svg+xml</dc:format>
        <dc:type
           rdf:resource="http://purl.org/dc/dcmitype/StillImage" />
        <dc:title></dc:title>
      </cc:Work>
    </rdf:RDF>
  </metadata>
  <g
     transform="translate(0,-284.3)"
     id="g16">
    <g
       id="g14">
      <path
         d="m6.3444 284.37a6.2893 6.2893 0 0 0 -6.2894 6.2894 6.2893 6.2893 0 0 0 6.2894 6.2891 6.2893 6.2893 0 0 0 6.2891 -6.2891 6.2893 6.2893 0 0 0 -6.2891 -6.2894zm-0.018184 0.9363a5.407 5.407 0 0 1 5.4071 5.4071 5.407 5.407 0 0 1 -5.4071 5.4069 5.407 5.407 0 0 1 -5.4071 -5.4069 5.407 5.407 0 0 1 5.4071 -5.4071z"
         fill="#1a1a1a"
         stroke-width=".13895"
         id="path4" />
      <path
         d="m6.3618 290.64h-4.1899c0-2.2936 1.8963-4.1412 4.1899-4.1412"
         fill="#4a0"
         opacity=".6"
         id="path6" />
      <path
         d="m6.3618 290.64v-4.1412c2.2936 0 4.1391 1.8476 4.1391 4.1412"
         fill="#ff0"
         opacity=".6"
         id="path8" />
      <path
         d="m6.3618 290.64h-4.1899c0 2.2936 1.8963 4.1412 4.1899 4.1412"
         fill="#f00"
         opacity=".6"
         id="path10" />
      <path
         d="m6.3618 290.64v4.1412c2.2936 0 4.1391-1.8476 4.1391-4.1412"
         fill="#06f"
         opacity=".6"
         id="path12" />
    </g>
  </g>
</svg>
