<?xml version="1.0" encoding="UTF-8" standalone="no"?>
<svg
   xmlns:dc="http://purl.org/dc/elements/1.1/"
   xmlns:cc="http://creativecommons.org/ns#"
   xmlns:rdf="http://www.w3.org/1999/02/22-rdf-syntax-ns#"
   xmlns:svg="http://www.w3.org/2000/svg"
   xmlns="http://www.w3.org/2000/svg"
   xmlns:sodipodi="http://sodipodi.sourceforge.net/DTD/sodipodi-0.dtd"
   xmlns:inkscape="http://www.inkscape.org/namespaces/inkscape"
   width="48"
   height="48"
   version="1.1"
   viewBox="0 0 12.7 12.7"
   id="svg8"
   sodipodi:docname="folder-visiting.svg"
   inkscape:version="0.92.3 (2405546, 2018-03-11)">
  <defs
     id="defs12" />
  <sodipodi:namedview
     pagecolor="#ffffff"
     bordercolor="#666666"
     borderopacity="1"
     objecttolerance="10"
     gridtolerance="10"
     guidetolerance="10"
     inkscape:pageopacity="0"
     inkscape:pageshadow="2"
     inkscape:window-width="640"
     inkscape:window-height="480"
     id="namedview10"
     showgrid="false"
     inkscape:zoom="4.9166667"
     inkscape:cx="24"
     inkscape:cy="24"
     inkscape:window-x="0"
     inkscape:window-y="25"
     inkscape:window-maximized="0"
     inkscape:current-layer="svg8" />
  <metadata
     id="metadata2">
    <rdf:RDF>
      <cc:Work
         rdf:about="">
        <dc:format>image/svg+xml</dc:format>
        <dc:type
           rdf:resource="http://purl.org/dc/dcmitype/StillImage" />
        <dc:title></dc:title>
      </cc:Work>
    </rdf:RDF>
  </metadata>
  <g
     transform="translate(0,-284.3)"
     id="g6">
    <path
       transform="matrix(.26458 0 0 .26458 0 284.3)"
       d="m23.979 0.27539a23.771 23.771 0 0 0 -23.771 23.771 23.771 23.771 0 0 0 23.771 23.77 23.771 23.771 0 0 0 23.77 -23.77 23.771 23.771 0 0 0 -23.77 -23.771zm-0.06836 3.5391a20.436 20.436 0 0 1 20.436 20.436 20.436 20.436 0 0 1 -20.436 20.436 20.436 20.436 0 0 1 -20.437 -20.436 20.436 20.436 0 0 1 20.437 -20.436zm-4.2461 7.7793l-9.2324 0.009766c-1.3492 0-2.4355 1.0844-2.4355 2.4336v4.0605c0 0.060473 0.015109 0.12237 0.019531 0.18359v11.877h-0.023438v2.1035 1.7012c0 0.82647 0.47325 1.4446 1.0996 1.8848l16.941-16.941h-4.9355-8.4199v3.5957c0 0.6875-0.45283 1.2422-1.0176 1.2422-0.56476 0-1.0195-0.55446-1.0195-1.2422v-4.207c0-0.060473 0.020163-0.11569 0.027344-0.17578-0.007748-0.04989-0.027344-0.089538-0.027344-0.13867 0-0.47259 0.35952-0.84437 0.81641-0.90234 0.038861-0.003742 0.069093-0.044922 0.10938-0.044922h0.09375 28.303l0.041015 0.003906v-2.7324h-17.621l-2.7188-2.7109zm20.344 7.3066l-0.035156 0.003906h-8.2676l-17.492 17.492h8.3887l17.406-17.406v-0.089843zm0 5.6465l-11.854 11.854h9.4141c1.3492 0 2.4316-1.0886 2.4316-2.4375v-3.2578h0.007812v-6.1582z"
       fill="#1a1a1a"
       id="path4" />
  </g>
</svg>
