<?xml version="1.0" encoding="UTF-8" standalone="no"?>
<svg
   xmlns:dc="http://purl.org/dc/elements/1.1/"
   xmlns:cc="http://creativecommons.org/ns#"
   xmlns:rdf="http://www.w3.org/1999/02/22-rdf-syntax-ns#"
   xmlns:svg="http://www.w3.org/2000/svg"
   xmlns="http://www.w3.org/2000/svg"
   xmlns:sodipodi="http://sodipodi.sourceforge.net/DTD/sodipodi-0.dtd"
   xmlns:inkscape="http://www.inkscape.org/namespaces/inkscape"
   width="48"
   height="48"
   version="1.1"
   viewBox="0 0 12.7 12.7"
   id="svg8"
   sodipodi:docname="folder-publicshare.svg"
   inkscape:version="0.92.3 (2405546, 2018-03-11)">
  <defs
     id="defs12" />
  <sodipodi:namedview
     pagecolor="#ffffff"
     bordercolor="#666666"
     borderopacity="1"
     objecttolerance="10"
     gridtolerance="10"
     guidetolerance="10"
     inkscape:pageopacity="0"
     inkscape:pageshadow="2"
     inkscape:window-width="640"
     inkscape:window-height="480"
     id="namedview10"
     showgrid="false"
     inkscape:zoom="4.9166667"
     inkscape:cx="24"
     inkscape:cy="24"
     inkscape:window-x="0"
     inkscape:window-y="25"
     inkscape:window-maximized="0"
     inkscape:current-layer="svg8" />
  <metadata
     id="metadata2">
    <rdf:RDF>
      <cc:Work
         rdf:about="">
        <dc:format>image/svg+xml</dc:format>
        <dc:type
           rdf:resource="http://purl.org/dc/dcmitype/StillImage" />
        <dc:title></dc:title>
      </cc:Work>
    </rdf:RDF>
  </metadata>
  <g
     transform="translate(0,-284.3)"
     id="g6">
    <path
       transform="matrix(.26458 0 0 .26458 0 284.3)"
       d="m23.979 0.27539a23.771 23.771 0 0 0 -23.771 23.771 23.771 23.771 0 0 0 23.771 23.77 23.771 23.771 0 0 0 23.77 -23.77 23.771 23.771 0 0 0 -23.77 -23.771zm-0.06836 3.5391a20.436 20.436 0 0 1 20.436 20.436 20.436 20.436 0 0 1 -20.436 20.436 20.436 20.436 0 0 1 -20.437 -20.436 20.436 20.436 0 0 1 20.437 -20.436zm7.6797 5.2246a5.7422 5.7422 0 0 0 -5.7422 5.7422 5.7422 5.7422 0 0 0 0.050782 0.70703l-9.4688 4.7324a5.7422 5.7422 0 0 0 -3.9805 -1.6113 5.7422 5.7422 0 0 0 -5.7422 5.7422 5.7422 5.7422 0 0 0 5.7422 5.7422 5.7422 5.7422 0 0 0 3.9844 -1.6094l9.4629 4.7324a5.7422 5.7422 0 0 0 -0.048828 0.70508 5.7422 5.7422 0 0 0 5.7422 5.7422 5.7422 5.7422 0 0 0 5.7422 -5.7422 5.7422 5.7422 0 0 0 -5.7422 -5.7422 5.7422 5.7422 0 0 0 -3.9844 1.6094l-9.4609-4.7324a5.7422 5.7422 0 0 0 0.046875 -0.70508 5.7422 5.7422 0 0 0 -0.048828 -0.70508l9.4688-4.7344a5.7422 5.7422 0 0 0 3.9785 1.6113 5.7422 5.7422 0 0 0 5.7422 -5.7422 5.7422 5.7422 0 0 0 -5.7422 -5.7422z"
       fill="#1a1a1a"
       stroke-width=".52517"
       id="path4" />
  </g>
</svg>
