<svg xmlns="http://www.w3.org/2000/svg" width="48" height="48" viewBox="0 0 12.7 12.7">
  <path fill="#1a1a1a" d="M6.34436382.07286269A6.28933118 6.28933118 0 0 0 .05503264 6.36219387a6.28933118 6.28933118 0 0 0 6.28933118 6.2890666 6.28933118 6.28933118 0 0 0 6.2890666-6.2890666A6.28933118 6.28933118 0 0 0 6.34436382.07286269zm-.01808669.93637507a5.40695688 5.40695688 0 0 1 5.40695688 5.40695688 5.40695688 5.40695688 0 0 1-5.40695688 5.40695688A5.40695688 5.40695688 0 0 1 .91905567 6.41619464a5.40695688 5.40695688 0 0 1 5.40722146-5.40695688zm2.03189503 1.38232467a1.51927128 1.51927128 0 0 0-1.51927128 1.51927128 1.51927128 1.51927128 0 0 0 .0134359.187066L4.34708168 5.3499981a1.51927128 1.51927128 0 0 0-1.0531607-.42631776 1.51927128 1.51927128 0 0 0-1.51927127 1.51927128A1.51927128 1.51927128 0 0 0 3.293921 7.9622229a1.51927128 1.51927128 0 0 0 1.05419255-.42581506l2.50369408 1.2520984a1.51927128 1.51927128 0 0 0-.0129189.18655006 1.51927128 1.51927128 0 0 0 1.51927127 1.51927128A1.51927128 1.51927128 0 0 0 9.87743126 8.9750563 1.51927128 1.51927128 0 0 0 8.35816 7.45578503a1.51927128 1.51927128 0 0 0-1.05419256.42581505l-2.50316492-1.2520984a1.51927128 1.51927128 0 0 0 .01240219-.18655006 1.51927128 1.51927128 0 0 0-.01291891-.18655007L7.30554089 5.003774a1.51927128 1.51927128 0 0 0 1.05263153.42631776A1.51927128 1.51927128 0 0 0 9.8774437 3.91082048 1.51927128 1.51927128 0 0 0 8.35817242 2.3915492z"/>
</svg>
