<?xml version="1.0" encoding="UTF-8" standalone="no"?>
<!-- Created with Inkscape (http://www.inkscape.org/) -->

<svg
   xmlns:dc="http://purl.org/dc/elements/1.1/"
   xmlns:cc="http://creativecommons.org/ns#"
   xmlns:rdf="http://www.w3.org/1999/02/22-rdf-syntax-ns#"
   xmlns:svg="http://www.w3.org/2000/svg"
   xmlns="http://www.w3.org/2000/svg"
   xmlns:sodipodi="http://sodipodi.sourceforge.net/DTD/sodipodi-0.dtd"
   xmlns:inkscape="http://www.inkscape.org/namespaces/inkscape"
   width="48"
   height="48"
   viewBox="0 0 12.7 12.7"
   version="1.1"
   id="svg829"
   inkscape:version="0.92.3 (2405546, 2018-03-11)"
   sodipodi:docname="folder-github.svg">
  <defs
     id="defs823" />
  <sodipodi:namedview
     id="base"
     pagecolor="#ffffff"
     bordercolor="#666666"
     borderopacity="1.0"
     inkscape:pageopacity="0.0"
     inkscape:pageshadow="2"
     inkscape:zoom="7.9254883"
     inkscape:cx="24.000001"
     inkscape:cy="24.000001"
     inkscape:document-units="mm"
     inkscape:current-layer="layer1"
     showgrid="false"
     showguides="true"
     inkscape:guide-bbox="true"
     inkscape:window-width="1366"
     inkscape:window-height="719"
     inkscape:window-x="0"
     inkscape:window-y="25"
     inkscape:window-maximized="1"
     scale-x="1.9"
     units="px"
     inkscape:snap-global="false"
     inkscape:measure-start="14.7212,27.2119"
     inkscape:measure-end="0,0" />
  <metadata
     id="metadata826">
    <rdf:RDF>
      <cc:Work
         rdf:about="">
        <dc:format>image/svg+xml</dc:format>
        <dc:type
           rdf:resource="http://purl.org/dc/dcmitype/StillImage" />
        <dc:title></dc:title>
      </cc:Work>
    </rdf:RDF>
  </metadata>
  <g
     inkscape:label="Capa 1"
     inkscape:groupmode="layer"
     id="layer1"
     transform="translate(0,-284.3)">
    <g
       id="g825">
      <path
         id="path822"
         d="m 6.3443156,284.37286 a 6.2892804,6.2892804 0 0 0 -6.28953858,6.28954 6.2892804,6.2892804 0 0 0 6.28953858,6.28902 6.2892804,6.2892804 0 0 0 6.2890214,-6.28902 6.2892804,6.2892804 0 0 0 -6.2890214,-6.28954 z m -0.018087,0.93638 a 5.4070437,5.4070437 0 0 1 5.4069054,5.40691 5.4070437,5.4070437 0 0 1 -5.4069054,5.4069 5.4070437,5.4070437 0 0 1 -5.40742176,-5.4069 5.4070437,5.4070437 0 0 1 5.40742176,-5.40691 z"
         style="fill:#1a1a1a;fill-opacity:1;stroke-width:0.1389506"
         inkscape:connector-curvature="0" />
      <path
         id="path2-3"
         d="m 4.0028259,286.72864 c -0.055405,0.001 -0.08217,0.0124 -0.08217,0.0124 -0.2773392,0.70212 -0.1019873,1.22045 -0.049401,1.34941 -0.3261713,0.35658 -0.5252939,0.81148 -0.5252939,1.36804 0,1.95391 1.1905295,2.39169 2.3227384,2.52035 -0.1458687,0.12736 -0.277457,0.35197 -0.3237842,0.68128 -0.2904866,0.13053 -1.0291069,0.35558 -1.4839312,-0.42352 0,0 -0.2692991,-0.48934 -0.7810936,-0.52531 0,0 -0.4976894,-0.003 -0.034728,0.30959 0,0 0.3344275,0.15674 0.5663782,0.74591 0,0 0.298919,0.99175 1.7172324,0.68373 0.00251,0.42541 0.00683,0.74634 0.00683,0.86716 0,0.11687 -0.069772,0.24962 -0.2528651,0.25387 v 9.3e-4 h 3.0422055 c -0.1909787,0.001 -0.2611792,-0.13532 -0.2611792,-0.25482 0,-0.16718 0.00636,-0.71689 0.00636,-1.39831 0,-0.47581 -0.163163,-0.78701 -0.3462832,-0.94448 1.1359657,-0.12613 2.3281198,-0.55751 2.3281198,-2.51642 0,-0.55654 -0.1975179,-1.01146 -0.5243158,-1.36802 0.05259,-0.129 0.2279007,-0.6473 -0.05038,-1.34942 0,0 -0.4272787,-0.13733 -1.4007845,0.52286 -0.4072441,-0.11375 -0.8436387,-0.16978 -1.2765516,-0.17168 -0.4335385,10e-4 -0.8699339,0.0581 -1.2765522,0.17168 -0.7305985,-0.49489 -1.1543628,-0.54169 -1.3205711,-0.5341 z"
         style="fill:#1a1a1a;stroke-width:0.50083894;stroke-opacity:0.54117587"
         inkscape:connector-curvature="0" />
    </g>
  </g>
</svg>
