<?xml version="1.0" encoding="UTF-8" standalone="no"?>
<!-- Created with Inkscape (http://www.inkscape.org/) -->

<svg
   xmlns:dc="http://purl.org/dc/elements/1.1/"
   xmlns:cc="http://creativecommons.org/ns#"
   xmlns:rdf="http://www.w3.org/1999/02/22-rdf-syntax-ns#"
   xmlns:svg="http://www.w3.org/2000/svg"
   xmlns="http://www.w3.org/2000/svg"
   xmlns:sodipodi="http://sodipodi.sourceforge.net/DTD/sodipodi-0.dtd"
   xmlns:inkscape="http://www.inkscape.org/namespaces/inkscape"
   width="48"
   height="48"
   viewBox="0 0 12.7 12.7"
   version="1.1"
   id="svg829"
   inkscape:version="0.92.3 (2405546, 2018-03-11)"
   sodipodi:docname="gnome-fs-network.svg">
  <defs
     id="defs823" />
  <sodipodi:namedview
     id="base"
     pagecolor="#ffffff"
     bordercolor="#666666"
     borderopacity="1.0"
     inkscape:pageopacity="0.0"
     inkscape:pageshadow="2"
     inkscape:zoom="3.6239223"
     inkscape:cx="-76.662435"
     inkscape:cy="20.393116"
     inkscape:document-units="mm"
     inkscape:current-layer="layer1"
     showgrid="false"
     showguides="true"
     inkscape:guide-bbox="true"
     inkscape:window-width="1366"
     inkscape:window-height="690"
     inkscape:window-x="0"
     inkscape:window-y="28"
     inkscape:window-maximized="1"
     scale-x="1.9"
     units="px" />
  <metadata
     id="metadata826">
    <rdf:RDF>
      <cc:Work
         rdf:about="">
        <dc:format>image/svg+xml</dc:format>
        <dc:type
           rdf:resource="http://purl.org/dc/dcmitype/StillImage" />
        <dc:title></dc:title>
      </cc:Work>
    </rdf:RDF>
  </metadata>
  <g
     inkscape:label="Capa 1"
     inkscape:groupmode="layer"
     id="layer1"
     transform="translate(0,-284.3)">
    <path
       style="fill:#1a1a1a;fill-opacity:1;stroke-width:0.52516764"
       d="M 23.978516 0.27539062 A 23.770509 23.770509 0 0 0 0.20703125 24.046875 A 23.770509 23.770509 0 0 0 23.978516 47.816406 A 23.770509 23.770509 0 0 0 47.748047 24.046875 A 23.770509 23.770509 0 0 0 23.978516 0.27539062 z M 23.910156 3.8144531 A 20.436071 20.436071 0 0 1 44.345703 24.25 A 20.436071 20.436071 0 0 1 23.910156 44.685547 A 20.436071 20.436071 0 0 1 3.4726562 24.25 A 20.436071 20.436071 0 0 1 23.910156 3.8144531 z M 12.257812 9.6835938 C 10.220756 9.6835938 8.5800781 11.326267 8.5800781 13.363281 L 8.5800781 35.242188 C 8.5800781 37.279202 10.220756 38.917969 12.257812 38.917969 L 35.761719 38.917969 C 37.798779 38.917969 39.435547 37.279202 39.435547 35.242188 L 39.435547 13.363281 C 39.435547 11.326267 37.798779 9.6835938 35.761719 9.6835938 L 12.257812 9.6835938 z M 13.787109 11.451172 L 34.371094 11.451172 C 36.154964 11.451172 37.587891 12.886098 37.587891 14.669922 L 37.587891 33.830078 C 37.587891 35.61394 36.154964 37.050781 34.371094 37.050781 L 13.787109 37.050781 C 12.003233 37.050781 10.564453 35.61394 10.564453 33.830078 L 10.564453 14.669922 C 10.564453 12.886098 12.003233 11.451172 13.787109 11.451172 z M 22.839844 17.845703 C 22.096516 17.845703 21.496094 18.44423 21.496094 19.185547 L 21.496094 19.537109 C 21.496094 19.934149 21.169062 20.176294 20.865234 20.154297 L 19.052734 20.154297 C 18.309406 20.154297 17.705078 20.965438 17.705078 21.708984 L 17.705078 29.197266 C 17.705078 29.938318 18.309365 30.537109 19.052734 30.537109 L 28.998047 30.537109 C 29.739259 30.537109 30.34375 29.938733 30.34375 29.197266 L 30.34375 21.708984 C 30.34375 20.965438 29.739233 20.154297 28.998047 20.154297 L 27.183594 20.154297 C 26.817305 20.154297 26.552734 19.861793 26.552734 19.521484 L 26.552734 19.183594 C 26.552734 18.442504 25.950334 17.845703 25.207031 17.845703 L 22.839844 17.845703 z M 19.267578 25.318359 L 21.279297 25.318359 L 21.279297 28.728516 L 19.267578 28.728516 L 19.267578 25.318359 z M 21.679688 25.318359 L 23.689453 25.318359 L 23.689453 28.728516 L 21.679688 28.728516 L 21.679688 25.318359 z M 24.119141 25.318359 L 26.128906 25.318359 L 26.128906 28.728516 L 24.119141 28.728516 L 24.119141 25.318359 z M 26.525391 25.318359 L 28.541016 25.318359 L 28.541016 28.728516 L 26.525391 28.728516 L 26.525391 25.318359 z "
       transform="matrix(0.26458333,0,0,0.26458333,0,284.3)"
       id="path832" />
  </g>
</svg>
