<svg xmlns="http://www.w3.org/2000/svg" width="48" height="48" viewBox="0 0 12.7 12.7">
  <path fill="#1a1a1a" d="M6.34436382.07286269A6.28933118 6.28933118 0 0 0 .05503264 6.36219387a6.28933118 6.28933118 0 0 0 6.28933118 6.2890666 6.28933118 6.28933118 0 0 0 6.2890666-6.2890666A6.28933118 6.28933118 0 0 0 6.34436382.07286269zm-.01808669.93637507a5.40695688 5.40695688 0 0 1 5.40695688 5.40695688 5.40695688 5.40695688 0 0 1-5.40695688 5.40695688A5.40695688 5.40695688 0 0 1 .91905567 6.41619464a5.40695688 5.40695688 0 0 1 5.40722146-5.40695688zM5.202844 3.06748496l-2.44270839.00258389c-.35697133 0-.64438459.28691055-.64438459.64388188v1.0743271c0 .01599994.00399754.03237665.00516751.04857424v3.14241666H2.1147173v1.00664753c0 .21866743.12521248.38221226.29093217.49868038l4.48224978-4.48224978H3.3543275v.9513503c0 .18189875-.11980976.32866128-.2692366.32866128-.1494242 0-.26973931-.14669903-.26973931-.32866128V4.8406091c0-.01599994.00533472-.03060926.00723467-.04650787-.00204997-.0131999-.00723467-.02368996-.00723467-.0366893 0-.12503787.0951218-.22340342.21600575-.23874113.01028185-.00099005.01828063-.01188546.02893976-.01188546h7.51321212l.01085175.00103345v-.7229384H5.9221968l-.7193401-.71724991zm5.38261552 1.93318023l-.00930157.00103345h-2.1874416L3.76068296 9.629732h2.21948225l4.60527948-4.60527948v-.02377067zm0 1.49395097L7.4491282 9.63094748h2.49078258c.35697134 0 .64335273-.2880218.64335273-.64491375V8.124085h.0020669V6.49474845z"/>
</svg>
