<?xml version="1.0" encoding="UTF-8" standalone="no"?>
<svg
   xmlns:dc="http://purl.org/dc/elements/1.1/"
   xmlns:cc="http://creativecommons.org/ns#"
   xmlns:rdf="http://www.w3.org/1999/02/22-rdf-syntax-ns#"
   xmlns:svg="http://www.w3.org/2000/svg"
   xmlns="http://www.w3.org/2000/svg"
   xmlns:sodipodi="http://sodipodi.sourceforge.net/DTD/sodipodi-0.dtd"
   xmlns:inkscape="http://www.inkscape.org/namespaces/inkscape"
   width="48"
   height="48"
   version="1.1"
   viewBox="0 0 12.7 12.7"
   id="svg8"
   sodipodi:docname="folder-saved-search.svg"
   inkscape:version="0.92.3 (2405546, 2018-03-11)">
  <defs
     id="defs12" />
  <sodipodi:namedview
     pagecolor="#ffffff"
     bordercolor="#666666"
     borderopacity="1"
     objecttolerance="10"
     gridtolerance="10"
     guidetolerance="10"
     inkscape:pageopacity="0"
     inkscape:pageshadow="2"
     inkscape:window-width="640"
     inkscape:window-height="480"
     id="namedview10"
     showgrid="false"
     inkscape:zoom="4.9166667"
     inkscape:cx="24"
     inkscape:cy="24"
     inkscape:window-x="0"
     inkscape:window-y="25"
     inkscape:window-maximized="0"
     inkscape:current-layer="svg8" />
  <metadata
     id="metadata2">
    <rdf:RDF>
      <cc:Work
         rdf:about="">
        <dc:format>image/svg+xml</dc:format>
        <dc:type
           rdf:resource="http://purl.org/dc/dcmitype/StillImage" />
        <dc:title></dc:title>
      </cc:Work>
    </rdf:RDF>
  </metadata>
  <g
     transform="translate(0,-284.3)"
     id="g6">
    <path
       d="m6.3443 284.37a6.2893 6.2893 0 0 0 -6.2895 6.2895 6.2893 6.2893 0 0 0 6.2895 6.289 6.2893 6.2893 0 0 0 6.289 -6.289 6.2893 6.2893 0 0 0 -6.289 -6.2895zm-0.01809 0.93638a5.407 5.407 0 0 1 5.4069 5.4069 5.407 5.407 0 0 1 -5.4069 5.4069 5.407 5.407 0 0 1 -5.4074 -5.4069 5.407 5.407 0 0 1 5.4074 -5.4069zm-1.0733 1.1121c-1.716 0-3.1202 1.4023-3.1202 3.1171 0 1.7148 1.4043 3.1166 3.1202 3.1166 0.65457 0 1.2628-0.20487 1.7658-0.55243l2.0882 2.0867a0.56675 0.56675 0 1 0 0.8015 -0.8015l-2.0888-2.0862c0.34732-0.50241 0.55242-1.1096 0.55242-1.7632 0-1.7148-1.4032-3.1171-3.1192-3.1171zm0 1.1338a1.9755 1.9755 0 0 1 1.9854 1.9833c0 1.1017-0.88148 1.9833-1.9854 1.9833a1.9766 1.9766 0 0 1 -1.987 -1.9833c0-1.1017 0.88303-1.9833 1.987-1.9833z"
       fill="#1a1a1a"
       stroke-width=".13895"
       id="path4" />
  </g>
</svg>
