<?xml version="1.0" encoding="UTF-8" standalone="no"?>
<svg
   xmlns:dc="http://purl.org/dc/elements/1.1/"
   xmlns:cc="http://creativecommons.org/ns#"
   xmlns:rdf="http://www.w3.org/1999/02/22-rdf-syntax-ns#"
   xmlns:svg="http://www.w3.org/2000/svg"
   xmlns="http://www.w3.org/2000/svg"
   xmlns:sodipodi="http://sodipodi.sourceforge.net/DTD/sodipodi-0.dtd"
   xmlns:inkscape="http://www.inkscape.org/namespaces/inkscape"
   width="48"
   height="48"
   version="1.1"
   viewBox="0 0 12.7 12.7"
   id="svg8"
   sodipodi:docname="folder-system.svg"
   inkscape:version="0.92.3 (2405546, 2018-03-11)">
  <defs
     id="defs12" />
  <sodipodi:namedview
     pagecolor="#ffffff"
     bordercolor="#666666"
     borderopacity="1"
     objecttolerance="10"
     gridtolerance="10"
     guidetolerance="10"
     inkscape:pageopacity="0"
     inkscape:pageshadow="2"
     inkscape:window-width="883"
     inkscape:window-height="480"
     id="namedview10"
     showgrid="false"
     inkscape:zoom="4.9166667"
     inkscape:cx="4.1694915"
     inkscape:cy="24"
     inkscape:window-x="0"
     inkscape:window-y="25"
     inkscape:window-maximized="0"
     inkscape:current-layer="svg8" />
  <metadata
     id="metadata2">
    <rdf:RDF>
      <cc:Work
         rdf:about="">
        <dc:format>image/svg+xml</dc:format>
        <dc:type
           rdf:resource="http://purl.org/dc/dcmitype/StillImage" />
        <dc:title></dc:title>
      </cc:Work>
    </rdf:RDF>
  </metadata>
  <g
     transform="translate(0,-284.3)"
     id="g6">
    <path
       transform="matrix(.26458 0 0 .26458 0 284.3)"
       d="m23.979 0.27539a23.771 23.771 0 0 0 -23.771 23.771 23.771 23.771 0 0 0 23.771 23.77 23.771 23.771 0 0 0 23.77 -23.77 23.771 23.771 0 0 0 -23.77 -23.771zm-0.06836 3.5391a20.436 20.436 0 0 1 20.436 20.436 20.436 20.436 0 0 1 -20.436 20.436 20.436 20.436 0 0 1 -20.437 -20.436 20.436 20.436 0 0 1 20.437 -20.436zm-4.6445 4.9199l-1.4805 3.5781a9.0969 9.0969 0 0 0 -1.8359 0.20508l-2.1934-3.1641c-0.77513 0.26835-1.4782 0.65209-2.1836 1.0605l0.92188 3.7168a9.1785 9.1785 0 0 0 -1.3477 1.2324l-3.623-1.2578a12.542 12.542 0 0 0 -1.1855 2.1309l2.916 2.4453a8.7593 8.7593 0 0 0 -0.23438 0.87891c-0.062423 0.3069-0.096301 0.5958-0.12695 0.90039l-3.6406 1.1113c0.011603 0.82654 0.091021 1.634 0.25977 2.4258l3.8262 0.25781c0.19743 0.57759 0.45497 1.135 0.75977 1.6582l-2.3008 3.0645c0.48983 0.65159 0.98898 1.2783 1.5977 1.8281l3.2539-2.0586c0.49464 0.35452 1.0417 0.65608 1.6113 0.90625l-0.035157 3.873a12.919 12.919 0 0 0 2.332 0.47266l1.4824-3.5762c0.62051-0.007559 1.2422-0.074748 1.834-0.20703l2.1934 3.168c0.77326-0.26835 1.48-0.65156 2.1836-1.0605l-0.92188-3.7207c0.4849-0.36246 0.94236-0.7741 1.3496-1.2285l3.6211 1.2559a12.542 12.542 0 0 0 1.1719 -2.0996l0.69141 1.457a5.354 5.354 0 0 0 -0.62891 0.85938l-2.2168-0.29688a7.3158 7.3158 0 0 0 -0.42969 1.3555l1.9512 1.0586a5.1094 5.1094 0 0 0 -0.03125 0.5293c0 0.18331 0.013259 0.35181 0.03125 0.5293l-1.9512 1.0586c0.10267 0.47112 0.24122 0.9244 0.42969 1.3574l2.2168-0.29883c0.17998 0.3069 0.39387 0.59575 0.62891 0.85938l-0.95898 2.0195c0.35573 0.31521 0.71316 0.61586 1.125 0.85938l1.6211-1.5547c0.32396 0.14476 0.67072 0.25455 1.0254 0.33203l0.42969 2.2168a7.536 7.536 0 0 0 1.3887 0l0.43164-2.2188c0.35361-0.077102 0.70248-0.1869 1.0254-0.33203l1.6211 1.5566c0.41078-0.2434 0.77033-0.54581 1.125-0.86133l-0.95898-2.0195c0.23505-0.26381 0.44697-0.55236 0.62695-0.85938l2.2168 0.29883a7.3158 7.3158 0 0 0 0.43164 -1.3574l-1.9531-1.0566c0.018142-0.17764 0.033203-0.3461 0.033203-0.5293 0-0.18331-0.015061-0.35177-0.033203-0.5293l1.9531-1.0586a7.3136 7.3136 0 0 0 -0.43164 -1.3555l-2.2168 0.29688a5.354 5.354 0 0 0 -0.62695 -0.85938l0.95898-2.0195c-0.35471-0.31521-0.71422-0.61582-1.125-0.85938l-1.623 1.5547a5.3095 5.3095 0 0 0 -1.0254 -0.33008l-0.42969-2.2188a7.536 7.536 0 0 0 -0.69336 -0.029296c-0.23292 0-0.46663 0.010399-0.69531 0.029296l-0.42969 2.2168a5.3063 5.3063 0 0 0 -1.0254 0.33008l-1.6211-1.5527c-0.41184 0.24378-0.76927 0.54386-1.125 0.85938l0.23242 0.48828-2.8672-2.4023c0.09072-0.29178 0.17378-0.57129 0.23633-0.87891 0.062898-0.30916 0.094529-0.59584 0.125-0.90039l3.6426-1.1113a12.538 12.538 0 0 0 -0.26172 -2.4258l-3.8242-0.25781a9.1785 9.1785 0 0 0 -0.76172 -1.6602l2.3008-3.0625c-0.48835-0.64993-0.98879-1.2787-1.5957-1.8281l-3.2578 2.0566a9.1023 9.1023 0 0 0 -1.6094 -0.90625l0.033203-3.8711a12.919 12.919 0 0 0 -1.1523 -0.28906h-0.001953c-0.3907-0.079504-0.78871-0.12517-1.1758-0.18555zm-1.5762 7.1953a5.4451 5.4451 0 0 1 1.3066 0.10352 5.4451 5.4451 0 1 1 -2.1699 10.672 5.4451 5.4451 0 0 1 0.86328 -10.775zm16.41 12.391a3.1762 3.1762 0 1 1 0 6.3516 3.1762 3.1762 0 0 1 0 -6.3516z"
       fill="#1a1a1a"
       stroke-width=".52517"
       id="path4" />
  </g>
</svg>
