<?xml version="1.0" encoding="UTF-8" standalone="no"?>
<svg
   xmlns:dc="http://purl.org/dc/elements/1.1/"
   xmlns:cc="http://creativecommons.org/ns#"
   xmlns:rdf="http://www.w3.org/1999/02/22-rdf-syntax-ns#"
   xmlns:svg="http://www.w3.org/2000/svg"
   xmlns="http://www.w3.org/2000/svg"
   xmlns:sodipodi="http://sodipodi.sourceforge.net/DTD/sodipodi-0.dtd"
   xmlns:inkscape="http://www.inkscape.org/namespaces/inkscape"
   width="48"
   height="48"
   version="1.1"
   viewBox="0 0 12.7 12.7"
   id="svg14"
   sodipodi:docname="folder-recent.svg"
   inkscape:version="0.92.3 (2405546, 2018-03-11)">
  <defs
     id="defs18" />
  <sodipodi:namedview
     pagecolor="#ffffff"
     bordercolor="#666666"
     borderopacity="1"
     objecttolerance="10"
     gridtolerance="10"
     guidetolerance="10"
     inkscape:pageopacity="0"
     inkscape:pageshadow="2"
     inkscape:window-width="640"
     inkscape:window-height="480"
     id="namedview16"
     showgrid="false"
     inkscape:zoom="4.9166667"
     inkscape:cx="24"
     inkscape:cy="24"
     inkscape:window-x="0"
     inkscape:window-y="25"
     inkscape:window-maximized="0"
     inkscape:current-layer="svg14" />
  <metadata
     id="metadata2">
    <rdf:RDF>
      <cc:Work
         rdf:about="">
        <dc:format>image/svg+xml</dc:format>
        <dc:type
           rdf:resource="http://purl.org/dc/dcmitype/StillImage" />
        <dc:title></dc:title>
      </cc:Work>
    </rdf:RDF>
  </metadata>
  <g
     transform="translate(0,-284.3)"
     fill="#1a1a1a"
     id="g12">
    <path
       d="m6.3444 284.37a6.2893 6.2893 0 0 0 -6.2894 6.2894 6.2893 6.2893 0 0 0 6.2894 6.2891 6.2893 6.2893 0 0 0 6.2891 -6.2891 6.2893 6.2893 0 0 0 -6.2891 -6.2894zm-0.018184 0.9363a5.407 5.407 0 0 1 5.4071 5.4071 5.407 5.407 0 0 1 -5.4071 5.4069 5.407 5.407 0 0 1 -5.4071 -5.4069 5.407 5.407 0 0 1 5.4071 -5.4071z"
       stroke-width=".13895"
       id="path4" />
    <g
       transform="matrix(.18949 0 0 .22347 -8.257 285.15)"
       color="#000000"
       color-rendering="auto"
       image-rendering="auto"
       shape-rendering="auto"
       solid-color="#000000"
       style="isolation:auto;mix-blend-mode:normal"
       id="g10">
      <path
         d="m77.57 6.9454c-11.317 0-20.631 6.3194-21.649 15.54h-5.4896l8.1077 8.6332 8.1077-8.6332h-5.2925c1.0013-6.7222 7.8903-11.035 16.215-11.035 9.013 0 16.328 6.1042 16.328 13.625-3e-6 7.5212-7.3149 13.625-16.328 13.625-4.89 0-9.2808-1.7999-12.274-4.645l-3.9694 3.0685c3.9818 3.7358 9.7842 6.0808 16.244 6.0808 11.997 0 21.733-8.1221 21.733-18.13 0-10.008-9.7364-18.13-21.733-18.13z"
         color="#000000"
         color-rendering="auto"
         image-rendering="auto"
         solid-color="#000000"
         style="isolation:auto;mix-blend-mode:normal"
         id="path6" />
      <path
         d="m78.94 13.852h-2.0363l-2.0363 12.086 10.182 6.9065 2e-6 -1.7266-6.1089-6.9065z"
         color="#000000"
         color-rendering="auto"
         image-rendering="auto"
         solid-color="#000000"
         style="isolation:auto;mix-blend-mode:normal"
         id="path8" />
    </g>
  </g>
</svg>
