<svg xmlns="http://www.w3.org/2000/svg" width="48" height="48" viewBox="0 0 12.7 12.7"><path fill="#1a1a1a" d="M6.344.073a6.29 6.29 0 0 0-6.289 6.29 6.29 6.29 0 0 0 6.29 6.288 6.29 6.29 0 0 0 6.288-6.289A6.29 6.29 0 0 0 6.344.072zm-.018.936a5.407 5.407 0 0 1 5.407 5.407 5.407 5.407 0 0 1-5.407 5.407A5.407 5.407 0 0 1 .92 6.416 5.407 5.407 0 0 1 6.326 1.01zm3.396 1.426l-4.229.618v3.136l4.23-.043v-3.71zm-4.614.675l-3.19.434.003 2.659 3.188-.015-.001-3.078zM1.92 6.521l.001 2.662 3.188.438-.002-3.08-3.186-.02zm3.567.041l.006 3.106 4.23.597V6.57l-4.236-.008z"/></svg>