<svg xmlns="http://www.w3.org/2000/svg" width="48" height="48" viewBox="0 0 12.7 12.7">
  <path fill="#1a1a1a" d="M6.3443.07A6.2893 6.2893 0 0 0 .0548 6.3595a6.2893 6.2893 0 0 0 6.2895 6.289 6.2893 6.2893 0 0 0 6.289-6.289A6.2893 6.2893 0 0 0 6.3443.07zm-.01809.93638a5.407 5.407 0 0 1 5.4069 5.4069 5.407 5.407 0 0 1-5.4069 5.4069 5.407 5.407 0 0 1-5.4074-5.4069 5.407 5.407 0 0 1 5.4074-5.4069zm-1.0733 1.1121c-1.716 0-3.1202 1.4023-3.1202 3.1171s1.4043 3.1166 3.1202 3.1166c.65457 0 1.2628-.20487 1.7658-.55243l2.0882 2.0867a.56675.56675 0 1 0 .8015-.8015l-2.0888-2.0862c.34732-.50241.55242-1.1096.55242-1.7632 0-1.7148-1.4032-3.1171-3.1192-3.1171zm0 1.1338a1.9755 1.9755 0 0 1 1.9854 1.9833c0 1.1017-.88148 1.9833-1.9854 1.9833a1.9766 1.9766 0 0 1-1.987-1.9833c0-1.1017.88303-1.9833 1.987-1.9833z"/>
</svg>
