<?xml version="1.0" encoding="UTF-8" standalone="no"?>
<!-- Created with Inkscape (http://www.inkscape.org/) -->

<svg
   xmlns:dc="http://purl.org/dc/elements/1.1/"
   xmlns:cc="http://creativecommons.org/ns#"
   xmlns:rdf="http://www.w3.org/1999/02/22-rdf-syntax-ns#"
   xmlns:svg="http://www.w3.org/2000/svg"
   xmlns="http://www.w3.org/2000/svg"
   xmlns:sodipodi="http://sodipodi.sourceforge.net/DTD/sodipodi-0.dtd"
   xmlns:inkscape="http://www.inkscape.org/namespaces/inkscape"
   width="48"
   height="48"
   viewBox="0 0 12.7 12.7"
   version="1.1"
   id="svg829"
   inkscape:version="0.92.3 (2405546, 2018-03-11)"
   sodipodi:docname="folder-visiting.svg">
  <defs
     id="defs823" />
  <sodipodi:namedview
     id="base"
     pagecolor="#ffffff"
     bordercolor="#666666"
     borderopacity="1.0"
     inkscape:pageopacity="0.0"
     inkscape:pageshadow="2"
     inkscape:zoom="5.5416667"
     inkscape:cx="24"
     inkscape:cy="24"
     inkscape:document-units="mm"
     inkscape:current-layer="layer1"
     showgrid="false"
     showguides="true"
     inkscape:guide-bbox="true"
     inkscape:window-width="1366"
     inkscape:window-height="719"
     inkscape:window-x="0"
     inkscape:window-y="25"
     inkscape:window-maximized="1"
     scale-x="1.9"
     units="px"
     inkscape:snap-global="false" />
  <metadata
     id="metadata826">
    <rdf:RDF>
      <cc:Work
         rdf:about="">
        <dc:format>image/svg+xml</dc:format>
        <dc:type
           rdf:resource="http://purl.org/dc/dcmitype/StillImage" />
        <dc:title></dc:title>
      </cc:Work>
    </rdf:RDF>
  </metadata>
  <g
     inkscape:label="Capa 1"
     inkscape:groupmode="layer"
     id="layer1"
     transform="translate(0,-284.3)">
    <path
       style="opacity:1;fill:#1a1a1a;fill-opacity:1;stroke:none;stroke-width:2.10697174"
       d="M 23.978516 0.27539062 A 23.770509 23.770509 0 0 0 0.20703125 24.046875 A 23.770509 23.770509 0 0 0 23.978516 47.816406 A 23.770509 23.770509 0 0 0 47.748047 24.046875 A 23.770509 23.770509 0 0 0 23.978516 0.27539062 z M 23.910156 3.8144531 A 20.436071 20.436071 0 0 1 44.345703 24.25 A 20.436071 20.436071 0 0 1 23.910156 44.685547 A 20.436071 20.436071 0 0 1 3.4726562 24.25 A 20.436071 20.436071 0 0 1 23.910156 3.8144531 z M 19.664062 11.59375 L 10.431641 11.603516 C 9.082488 11.603516 7.9960938 12.687931 7.9960938 14.037109 L 7.9960938 18.097656 C 7.9960938 18.158129 8.011203 18.220022 8.015625 18.28125 L 8.015625 30.158203 L 7.9921875 30.158203 L 7.9921875 32.261719 L 7.9921875 33.962891 C 7.9921875 34.78936 8.4654373 35.407455 9.0917969 35.847656 L 26.033203 18.90625 L 21.097656 18.90625 L 12.677734 18.90625 L 12.677734 22.501953 C 12.677734 23.189449 12.224908 23.744141 11.660156 23.744141 C 11.095394 23.744141 10.640625 23.189676 10.640625 22.501953 L 10.640625 18.294922 C 10.640625 18.234449 10.660788 18.179235 10.667969 18.119141 C 10.660221 18.069251 10.640625 18.029603 10.640625 17.980469 C 10.640625 17.507877 11.000146 17.136103 11.457031 17.078125 C 11.495892 17.074383 11.526124 17.033203 11.566406 17.033203 L 11.660156 17.033203 L 39.962891 17.033203 L 40.003906 17.037109 L 40.003906 14.304688 L 22.382812 14.304688 L 19.664062 11.59375 z M 40.007812 18.900391 L 39.972656 18.904297 L 31.705078 18.904297 L 14.212891 36.396484 L 22.601562 36.396484 L 40.007812 18.990234 L 40.007812 18.900391 z M 40.007812 24.546875 L 28.154297 36.400391 L 37.568359 36.400391 C 38.917512 36.400391 40 35.311804 40 33.962891 L 40 30.705078 L 40.007812 30.705078 L 40.007812 24.546875 z "
       transform="matrix(0.26458333,0,0,0.26458333,0,284.3)"
       id="path822" />
  </g>
</svg>
