<?xml version="1.0" encoding="UTF-8" standalone="no"?>
<svg
   xmlns:dc="http://purl.org/dc/elements/1.1/"
   xmlns:cc="http://creativecommons.org/ns#"
   xmlns:rdf="http://www.w3.org/1999/02/22-rdf-syntax-ns#"
   xmlns:svg="http://www.w3.org/2000/svg"
   xmlns="http://www.w3.org/2000/svg"
   xmlns:sodipodi="http://sodipodi.sourceforge.net/DTD/sodipodi-0.dtd"
   xmlns:inkscape="http://www.inkscape.org/namespaces/inkscape"
   width="48"
   height="48"
   version="1.1"
   viewBox="0 0 12.7 12.7"
   id="svg12"
   sodipodi:docname="folder-mega.svg"
   inkscape:version="0.92.3 (2405546, 2018-03-11)">
  <defs
     id="defs16" />
  <sodipodi:namedview
     pagecolor="#ffffff"
     bordercolor="#666666"
     borderopacity="1"
     objecttolerance="10"
     gridtolerance="10"
     guidetolerance="10"
     inkscape:pageopacity="0"
     inkscape:pageshadow="2"
     inkscape:window-width="640"
     inkscape:window-height="480"
     id="namedview14"
     showgrid="false"
     inkscape:zoom="4.9166667"
     inkscape:cx="24"
     inkscape:cy="24"
     inkscape:window-x="0"
     inkscape:window-y="25"
     inkscape:window-maximized="0"
     inkscape:current-layer="svg12" />
  <metadata
     id="metadata2">
    <rdf:RDF>
      <cc:Work
         rdf:about="">
        <dc:format>image/svg+xml</dc:format>
        <dc:type
           rdf:resource="http://purl.org/dc/dcmitype/StillImage" />
        <dc:title></dc:title>
      </cc:Work>
    </rdf:RDF>
  </metadata>
  <g
     transform="translate(0,-284.3)"
     id="g10">
    <g
       id="g8">
      <path
         d="m6.3443 284.37a6.2893 6.2893 0 0 0 -6.2895 6.2895 6.2893 6.2893 0 0 0 6.2895 6.289 6.2893 6.2893 0 0 0 6.289 -6.289 6.2893 6.2893 0 0 0 -6.289 -6.2895zm-0.018087 0.93638a5.407 5.407 0 0 1 5.4069 5.4069 5.407 5.407 0 0 1 -5.4069 5.4069 5.407 5.407 0 0 1 -5.4074 -5.4069 5.407 5.407 0 0 1 5.4074 -5.4069z"
         fill="#1a1a1a"
         stroke-width=".13895"
         id="path4" />
      <path
         d="m2.6908 287.95h1.5406l2.1571 1.926 2.0801-1.926h1.5406v5.3925h-1.5406v-3.0813l-1.9259 1.5406h-0.38533l-1.9259-1.5406v3.0813h-1.5406z"
         fill="#800000"
         opacity=".75"
         id="path6" />
    </g>
  </g>
</svg>
