<svg xmlns="http://www.w3.org/2000/svg" width="48" height="48" viewBox="0 0 12.7 12.7">
  <path fill="#1a1a1a" d="M6.3443.07A6.2893 6.2893 0 0 0 .0548 6.3595a6.2893 6.2893 0 0 0 6.2895 6.289 6.2893 6.2893 0 0 0 6.289-6.289A6.2893 6.2893 0 0 0 6.3443.07zm-.018087.93638a5.407 5.407 0 0 1 5.4069 5.4069 5.407 5.407 0 0 1-5.4069 5.4069 5.407 5.407 0 0 1-5.4074-5.4069 5.407 5.407 0 0 1 5.4074-5.4069z"/>
  <path fill="maroon" d="M2.6908 3.65h1.5406l2.1571 1.926L8.4686 3.65h1.5406v5.3925H8.4686V5.9612L6.5427 7.5018h-.38533l-1.9259-1.5406v3.0813h-1.5406z" opacity=".75"/>
</svg>
