<?xml version="1.0" encoding="UTF-8" standalone="no"?>
<svg
   xmlns:dc="http://purl.org/dc/elements/1.1/"
   xmlns:cc="http://creativecommons.org/ns#"
   xmlns:rdf="http://www.w3.org/1999/02/22-rdf-syntax-ns#"
   xmlns:svg="http://www.w3.org/2000/svg"
   xmlns="http://www.w3.org/2000/svg"
   xmlns:sodipodi="http://sodipodi.sourceforge.net/DTD/sodipodi-0.dtd"
   xmlns:inkscape="http://www.inkscape.org/namespaces/inkscape"
   width="48"
   height="48"
   version="1.1"
   viewBox="0 0 12.7 12.7"
   id="svg10"
   sodipodi:docname="folder-music.svg"
   inkscape:version="0.92.3 (2405546, 2018-03-11)">
  <defs
     id="defs14" />
  <sodipodi:namedview
     pagecolor="#ffffff"
     bordercolor="#666666"
     borderopacity="1"
     objecttolerance="10"
     gridtolerance="10"
     guidetolerance="10"
     inkscape:pageopacity="0"
     inkscape:pageshadow="2"
     inkscape:window-width="640"
     inkscape:window-height="480"
     id="namedview12"
     showgrid="false"
     inkscape:zoom="4.9166667"
     inkscape:cx="24"
     inkscape:cy="24"
     inkscape:window-x="0"
     inkscape:window-y="25"
     inkscape:window-maximized="0"
     inkscape:current-layer="svg10" />
  <metadata
     id="metadata2">
    <rdf:RDF>
      <cc:Work
         rdf:about="">
        <dc:format>image/svg+xml</dc:format>
        <dc:type
           rdf:resource="http://purl.org/dc/dcmitype/StillImage" />
        <dc:title></dc:title>
      </cc:Work>
    </rdf:RDF>
  </metadata>
  <g
     transform="translate(0,-284.3)"
     fill="#1a1a1a"
     id="g8">
    <path
       d="m6.3444 284.37a6.2893 6.2893 0 0 0 -6.2894 6.2894 6.2893 6.2893 0 0 0 6.2894 6.2891 6.2893 6.2893 0 0 0 6.2891 -6.2891 6.2893 6.2893 0 0 0 -6.2891 -6.2894zm-0.018184 0.9363a5.407 5.407 0 0 1 5.4071 5.4071 5.407 5.407 0 0 1 -5.4071 5.4069 5.407 5.407 0 0 1 -5.4071 -5.4069 5.407 5.407 0 0 1 5.4071 -5.4071z"
       stroke-width=".13895"
       id="path4" />
    <path
       d="m9.1228 286.44c-1.3583 0.21658-2.9201 0.43973-4.2748 0.66847-0.35843 0.17313-0.27779 0.6191-0.29392 0.94264v4.3324c-0.92157-0.21097-1.9337 0.47758-1.9735 1.4561-0.065168 0.60955 0.48053 1.1398 1.0743 1.1543 1.0631 0.0254 1.8711-0.67242 1.8826-1.5552-0.011855-1.4828 0.0033-2.9658 0-4.4486 0.16457-0.0125 2.7381-0.48283 2.9622-0.5141v3.3315c-0.85048-0.25048-1.7003 0.27317-1.9096 1.1506-0.15502 0.50819 0.078663 1.1092 0.5829 1.3175 0.98444 0.44762 2.3691-0.45916 2.3141-1.5236-0.015469-1.9768 0.012507-3.9545 0-5.9316-0.026001-0.18563-0.15305-0.39397-0.36435-0.38048z"
       id="path6" />
  </g>
</svg>
