<svg xmlns="http://www.w3.org/2000/svg" width="48" height="48" viewBox="0 0 12.7 12.7">
  <path fill="#1a1a1a" d="M6.34436382.07286269A6.28933118 6.28933118 0 0 0 .05503264 6.36219387a6.28933118 6.28933118 0 0 0 6.28933118 6.2890666 6.28933118 6.28933118 0 0 0 6.2890666-6.2890666A6.28933118 6.28933118 0 0 0 6.34436382.07286269zm-.01808669.93637507a5.40695688 5.40695688 0 0 1 5.40695688 5.40695688 5.40695688 5.40695688 0 0 1-5.40695688 5.40695688A5.40695688 5.40695688 0 0 1 .91905567 6.41619464a5.40695688 5.40695688 0 0 1 5.40722146-5.40695688zm-1.2288418 1.30170715l-.3917107.9466937a2.4068578 2.4068578 0 0 0-.48574242.05426006l-.58032977-.83715758c-.2050839.07100005-.39110216.17252997-.5777369.2805871l.24391102.98339094a2.42844753 2.42844753 0 0 0-.35657447.32606839l-.95857334-.33278873a3.31836236 3.31836236 0 0 0-.31365959.56379353l.77151528.64697747a2.3175356 2.3175356 0 0 0-.06201226.232542c-.01651587.08119961-.02547932.15763677-.03358843.2382252l-.96322995.29402775c.00306993.21868595.02408234.43232372.06872995.64181816l1.012336.06821137c.05223603.15281876.12037596.3002983.20101994.43872656l-.60874566.8108054c.12959922.1723977.26166433.33821262.42271947.4836787l.86091686-.54466438c.13087185.0937989.27561298.17358564.42631775.23977562l-.00930184 1.02471834a3.41810902 3.41810902 0 0 0 .61700056.12505639l.3922134-.946191c.16417453-.00199996.32866127-.01977683.48523971-.054776l.58032978.83818944c.20458913-.07100004.3915784-.17238974.57773688-.28058709l-.243911-.9844228c.12829484-.09589967.2493296-.20481138.35707716-.32503653l.95807064.33228602a3.31836236 3.31836236 0 0 0 .3100613-.55551217l.18293326.38549306a1.41656132 1.41656132 0 0 0-.166397.22737476L7.22753 7.5539601a1.93561436 1.93561436 0 0 0-.11368738.35863818l.5162485.28008439a1.35184505 1.35184505 0 0 0-.00826813.1400422c0 .04850015.00350806.09308188.00826812.14004219l-.5162485.28008438c.02716444.12464893.063822.24457776.11368739.3591409l.58652094-.07906444c.04761911.0811996.10421013.15762353.16639701.22737476l-.25372693.5343193c.09411904.08339827.18868787.16294424.2976525.22737477l.42891064-.41134253c.08571334.0383006.1774591.06734884.27130033.0878485l.11368738.58652094a1.99387488 1.99387488 0 0 0 .36742225 0l.1142033-.5870501c.09355814-.02039965.18586217-.04945.27130034-.0878485l.42891064.41184523c.10868417-.06439877.20381391-.14441041.2976525-.2278907l-.25372693-.5343193c.06218953-.06979885.11825932-.14614341.16587843-.22737476l.58652095.07906444a1.93561436 1.93561436 0 0 0 .1142033-.3591409l-.5167512-.27955522c.00480002-.047.00878486-.09157114.00878486-.1400422 0-.04850016-.00398484-.0930713-.00878485-.14004219l.5167512-.28008439a1.93503229 1.93503229 0 0 0-.11420331-.35863819l-.58652095.07854851a1.41656132 1.41656132 0 0 0-.16587843-.22737476l.25372693-.5343193c-.09384917-.08339827-.18896833-.16293366-.2976525-.22737477l-.42941334.41134253a1.40478751 1.40478751 0 0 0-.27130033-.08733257l-.11368738-.5870501a1.99387488 1.99387488 0 0 0-.1834492-.00775114c-.06162597 0-.12346096.00275137-.18396511.00775114l-.11368738.58652094a1.40394085 1.40394085 0 0 0-.27130033.08733257l-.42891064-.41081337c-.10896463.06449931-.20353346.14389448-.2976525.22737476l.06149368.12918912-.75860377-.63560053c.0240027-.07719915.0459787-.1511519.06252819-.232542.01664155-.08179756.02501048-.15764735.0330725-.2382252l.9637591-.29402775a3.31730404 3.31730404 0 0 0-.06924587-.64181816L7.00793919 4.8895654a2.42844753 2.42844753 0 0 0-.20153588-.43925572l.60874567-.81027625c-.12920765-.17195848-.26161406-.33831844-.4221903-.4836787l-.86194873.54413523a2.40828653 2.40828653 0 0 0-.42581505-.23977562l.00878485-1.02421564a3.41810902 3.41810902 0 0 0-.30487554-.0764795H5.4085875c-.1033714-.02103516-.2086769-.03311747-.31109317-.04909281zm-.417031 1.90373247a1.44066456 1.44066456 0 0 1 .34570022.02738932 1.44068639 1.44068639 0 1 1-.57411214 2.82359776 1.44066456 1.44066456 0 0 1 .22840662-2.8508495zm4.3417578 3.27841078a.840359.840359 0 1 1 0 1.68050633.840359.840359 0 0 1 0-1.68050633z"/>
</svg>
