<?xml version="1.0" encoding="UTF-8" standalone="no"?>
<!-- Created with Inkscape (http://www.inkscape.org/) -->

<svg
   xmlns:dc="http://purl.org/dc/elements/1.1/"
   xmlns:cc="http://creativecommons.org/ns#"
   xmlns:rdf="http://www.w3.org/1999/02/22-rdf-syntax-ns#"
   xmlns:svg="http://www.w3.org/2000/svg"
   xmlns="http://www.w3.org/2000/svg"
   xmlns:sodipodi="http://sodipodi.sourceforge.net/DTD/sodipodi-0.dtd"
   xmlns:inkscape="http://www.inkscape.org/namespaces/inkscape"
   width="48"
   height="48"
   viewBox="0 0 12.7 12.7"
   version="1.1"
   id="svg829"
   inkscape:version="0.92.3 (2405546, 2018-03-11)"
   sodipodi:docname="folder-visiting.svg">
  <defs
     id="defs823" />
  <sodipodi:namedview
     id="base"
     pagecolor="#ffffff"
     bordercolor="#666666"
     borderopacity="1.0"
     inkscape:pageopacity="0.0"
     inkscape:pageshadow="2"
     inkscape:zoom="7.2478448"
     inkscape:cx="-3.0177226"
     inkscape:cy="18.781777"
     inkscape:document-units="mm"
     inkscape:current-layer="layer1"
     showgrid="false"
     showguides="true"
     inkscape:guide-bbox="true"
     inkscape:window-width="1366"
     inkscape:window-height="690"
     inkscape:window-x="0"
     inkscape:window-y="28"
     inkscape:window-maximized="1"
     scale-x="1.9"
     units="px"
     inkscape:snap-global="false" />
  <metadata
     id="metadata826">
    <rdf:RDF>
      <cc:Work
         rdf:about="">
        <dc:format>image/svg+xml</dc:format>
        <dc:type
           rdf:resource="http://purl.org/dc/dcmitype/StillImage" />
        <dc:title></dc:title>
      </cc:Work>
    </rdf:RDF>
  </metadata>
  <g
     inkscape:label="Capa 1"
     inkscape:groupmode="layer"
     id="layer1"
     transform="translate(0,-284.3)">
    <path
       style="opacity:1;fill:#1a1a1a;fill-opacity:1;stroke:none;stroke-width:2.10697174"
       d="M 23.978516 0.27539062 A 23.770509 23.770509 0 0 0 0.20703125 24.046875 A 23.770509 23.770509 0 0 0 23.978516 47.816406 A 23.770509 23.770509 0 0 0 47.748047 24.046875 A 23.770509 23.770509 0 0 0 23.978516 0.27539062 z M 23.910156 3.8144531 A 20.436071 20.436071 0 0 1 44.345703 24.25 A 20.436071 20.436071 0 0 1 23.910156 44.685547 A 20.436071 20.436071 0 0 1 3.4726562 24.25 A 20.436071 20.436071 0 0 1 23.910156 3.8144531 z "
       transform="matrix(0.26458333,0,0,0.26458333,0,284.3)"
       id="path822" />
    <path
       style="opacity:0.75;fill:#1a1a1a;fill-opacity:1;stroke:none;stroke-width:0.55746961"
       d="m 2.7843265,287.35924 c -0.356979,0 -0.6449218,0.2869 -0.6449218,0.64389 v 1.07436 c 0,0.0167 0.00397,0.0323 0.00517,0.0486 v 3.14296 h -0.00568 v 1.00614 c 0,0.35698 0.2869083,0.64441 0.6438884,0.64441 h 7.1814736 c 0.3569793,0 0.6438883,-0.28743 0.6438883,-0.64441 v -0.86196 h 0.001 v -4.33514 H 5.9458903 l -0.7193359,-0.71882 z m 0.3002399,1.44178 h 0.024288 7.4884316 l 0.0031,0.49041 H 3.3786046 v 0.95136 c 0,0.18201 -0.1203179,0.32866 -0.2697509,0.32866 -0.1494319,0 -0.2697509,-0.14665 -0.2697509,-0.32866 v -1.11363 c 0,-0.0163 0.00585,-0.0303 0.00775,-0.046 -0.002,-0.0127 -0.00775,-0.024 -0.00775,-0.0372 0,-0.12519 0.0946,-0.22339 0.2154907,-0.23874 0.0103,-10e-4 0.019312,-0.006 0.029972,-0.006 z"
       id="path818"
       inkscape:connector-curvature="0" />
  </g>
</svg>
