<svg xmlns="http://www.w3.org/2000/svg" width="48" height="48" viewBox="0 0 12.7 12.7">
  <path fill="#1a1a1a" d="M6.34431561.07286377a6.28928043 6.28928043 0 0 0-6.2895386 6.2895385 6.28928043 6.28928043 0 0 0 6.2895386 6.28902166 6.28928043 6.28928043 0 0 0 6.28902167-6.28902167A6.28928043 6.28928043 0 0 0 6.3443156.07286376zm-.01808691.93637693a5.40704372 5.40704372 0 0 1 5.40690507 5.40690505 5.40704372 5.40704372 0 0 1-5.40690507 5.40690508A5.40704372 5.40704372 0 0 1 .91880694 6.41614575 5.40704372 5.40704372 0 0 1 6.3262287 1.0092407zM2.78432627 3.05924475c-.35697813 0-.644922.2868983-.644922.6438884V4.7774862c0 .01669998.00396764.03227573.00516766.04857565v3.14296077H2.1388875v1.00614003c0 .35698006.28690834.64440513.6438883.64440513h7.18147367c.3569798 0 .6438884-.28742507.6438884-.64440513v-.86196301h.00103347V3.77806395h-4.6632812l-.71933592-.7188192H2.78432627zm.28318671 1.37717687h6.59236249c.17265279 0 .31160878.1389589.31160878.31160879v.28215351h-6.7200033c-.01004994 0-.01872086.00520118-.0284218.00620104-.1140558.01540007-.20308862.1135552-.20308862.23874518 0 .01320006.00537475.02460705.00723477.03720703-.00174995.01570011-.00723477.02969207-.00723477.045992v1.11362726c0 .18200978.11326548.32866197.25424818.32866197.14098481 0 .2547649-.14665219.2547649-.32866197V5.5205931h6.44250064v3.10575374c0 .17264989-.138956.31160879-.31160878.31160879H3.06751298c-.17265306 0-.31160878-.1389589-.31160878-.31160879V4.74803041c0-.17264989.13895572-.31160879.31160878-.31160879z"/>
</svg>
