<?xml version="1.0" encoding="UTF-8" standalone="no"?>
<svg
   xmlns:dc="http://purl.org/dc/elements/1.1/"
   xmlns:cc="http://creativecommons.org/ns#"
   xmlns:rdf="http://www.w3.org/1999/02/22-rdf-syntax-ns#"
   xmlns:svg="http://www.w3.org/2000/svg"
   xmlns="http://www.w3.org/2000/svg"
   xmlns:sodipodi="http://sodipodi.sourceforge.net/DTD/sodipodi-0.dtd"
   xmlns:inkscape="http://www.inkscape.org/namespaces/inkscape"
   width="48"
   height="48"
   viewBox="0 0 12.7 12.7"
   version="1.1"
   id="svg4"
   sodipodi:docname="network-server.svg"
   inkscape:version="0.92.3 (2405546, 2018-03-11)">
  <metadata
     id="metadata10">
    <rdf:RDF>
      <cc:Work
         rdf:about="">
        <dc:format>image/svg+xml</dc:format>
        <dc:type
           rdf:resource="http://purl.org/dc/dcmitype/StillImage" />
        <dc:title></dc:title>
      </cc:Work>
    </rdf:RDF>
  </metadata>
  <defs
     id="defs8" />
  <sodipodi:namedview
     pagecolor="#ffffff"
     bordercolor="#666666"
     borderopacity="1"
     objecttolerance="10"
     gridtolerance="10"
     guidetolerance="10"
     inkscape:pageopacity="0"
     inkscape:pageshadow="2"
     inkscape:window-width="640"
     inkscape:window-height="480"
     id="namedview6"
     showgrid="false"
     inkscape:zoom="4.9166667"
     inkscape:cx="24"
     inkscape:cy="24"
     inkscape:window-x="0"
     inkscape:window-y="25"
     inkscape:window-maximized="0"
     inkscape:current-layer="svg4" />
  <path
     d="M6.34431561.07286377a6.28928043 6.28928043 0 0 0-6.2895386 6.2895385 6.28928043 6.28928043 0 0 0 6.2895386 6.28902166 6.28928043 6.28928043 0 0 0 6.28902167-6.28902167A6.28928043 6.28928043 0 0 0 6.3443156.07286376zm-.01808691.93637693a5.40704372 5.40704372 0 0 1 5.40690507 5.40690505 5.40704372 5.40704372 0 0 1-1.0407634 3.18016754c-.08029786-.02725103-.1791933-.04547526-.29145494-.04547526h-2.8504721v-.29042148c0-.1251286-.17306766-.2258261-.38757304-.2258261h-.36121842V8.4408284H8.4408284c.21450538 0 .3870563-.1006975.3870563-.2258261V2.23913977c0-.1251286-.17255092-.225826-.3870563-.225826H4.33668614c-.21450538 0-.38705657.1006974-.38705657.225826V8.2150023c0 .1251286.1725512.22582611.38705657.22582611h1.56166183v.59376203H5.5112914c-.21450538 0-.3875733.1006975-.3875733.22582611v.29042148H2.19573157c-.09154247 0-.17203636.01325986-.24391275.03203945A5.40704372 5.40704372 0 0 1 .91880694 6.41614575 5.40704372 5.40704372 0 0 1 6.3262287 1.0092407zM4.7211588 2.68459052h3.25354813c.17006464 0 .30747467.07959593.30747467.17880066v4.73769525c0 .09920473-.13741003.17931712-.30747467.17931712H4.7211588c-.17006463 0-.30695793-.0801124-.30695793-.17931712V2.86339118c0-.09920473.1368933-.17880066.30695793-.17880066zm.23461106.30489102c-.15673467 0-.28318698.1264523-.28318698.28318698v.51107974c0 .15673467.12645231.28267025.28318698.28267025h2.79259423c.15673467 0 .28267025-.12593558.28267025-.28267025v-.51107974c0-.15673467-.12593558-.28318698-.28267025-.28318698H4.95576986zm0 1.58749998c-.15673467 0-.28318698.1264523-.28318698.28318698v.51107974c0 .15673467.12645231.28267025.28318698.28267025h2.79259423c.15673467 0 .28267025-.12593558.28267025-.28267025V4.8601685c0-.15673467-.12593558-.28318698-.28267025-.28318698H4.95576986zm0 1.58749998c-.15673467 0-.28318698.1264523-.28318698.28318698v.51107974c0 .15673467.12645231.28267025.28318698.28267025h2.79259423c.15673467 0 .28267025-.12593558.28267025-.28267025v-.51107974c0-.15673467-.12593558-.28318698-.28267025-.28318698H4.95576986zm-2.35592858 4.1609864H5.1237181v.23822819c0 .1251286.17306792.22634284.3875733.22634284H7.1628703c.21450538 0 .38757304-.10121424.38757304-.22634284v-.23822818h2.50837406a5.40704372 5.40704372 0 0 1-3.7325887 1.49758292 5.40704372 5.40704372 0 0 1-3.7263874-1.49758292z"
     fill="#1a1a1a"
     id="path2" />
</svg>
