<?xml version="1.0" encoding="UTF-8" standalone="no"?>
<!-- Created with Inkscape (http://www.inkscape.org/) -->

<svg
   xmlns:dc="http://purl.org/dc/elements/1.1/"
   xmlns:cc="http://creativecommons.org/ns#"
   xmlns:rdf="http://www.w3.org/1999/02/22-rdf-syntax-ns#"
   xmlns:svg="http://www.w3.org/2000/svg"
   xmlns="http://www.w3.org/2000/svg"
   xmlns:sodipodi="http://sodipodi.sourceforge.net/DTD/sodipodi-0.dtd"
   xmlns:inkscape="http://www.inkscape.org/namespaces/inkscape"
   width="48"
   height="48"
   viewBox="0 0 12.7 12.7"
   version="1.1"
   id="svg829"
   inkscape:version="0.92.3 (2405546, 2018-03-11)"
   sodipodi:docname="user-trash.svg">
  <defs
     id="defs823" />
  <sodipodi:namedview
     id="base"
     pagecolor="#ffffff"
     bordercolor="#666666"
     borderopacity="1.0"
     inkscape:pageopacity="0.0"
     inkscape:pageshadow="2"
     inkscape:zoom="11.208333"
     inkscape:cx="24"
     inkscape:cy="24"
     inkscape:document-units="mm"
     inkscape:current-layer="layer1"
     showgrid="false"
     showguides="true"
     inkscape:guide-bbox="true"
     inkscape:window-width="1366"
     inkscape:window-height="719"
     inkscape:window-x="0"
     inkscape:window-y="25"
     inkscape:window-maximized="1"
     scale-x="1.9"
     units="px" />
  <metadata
     id="metadata826">
    <rdf:RDF>
      <cc:Work
         rdf:about="">
        <dc:format>image/svg+xml</dc:format>
        <dc:type
           rdf:resource="http://purl.org/dc/dcmitype/StillImage" />
        <dc:title />
      </cc:Work>
    </rdf:RDF>
  </metadata>
  <g
     inkscape:label="Capa 1"
     inkscape:groupmode="layer"
     id="layer1"
     transform="translate(0,-284.3)">
    <path
       style="fill:#1a1a1a;fill-opacity:1;stroke-width:0.1389506"
       d="m 6.3443158,284.37286 a 6.2892804,6.2892804 0 0 0 -6.28953873,6.28954 6.2892804,6.2892804 0 0 0 6.28953873,6.28902 6.2892804,6.2892804 0 0 0 6.2890212,-6.28902 6.2892804,6.2892804 0 0 0 -6.2890212,-6.28954 z m -0.018087,0.93638 a 5.4070437,5.4070437 0 0 1 5.4069052,5.40691 5.4070437,5.4070437 0 0 1 -5.4069052,5.4069 5.4070437,5.4070437 0 0 1 -5.40742183,-5.4069 5.4070437,5.4070437 0 0 1 5.40742183,-5.40691 z"
       id="path4532"
       inkscape:connector-curvature="0" />
    <path
       style="fill:#008000;fill-opacity:1;stroke-width:0.52516764;opacity:0.75"
       d="M 28.771484 9.1679688 C 25.702349 9.1830869 22.631285 9.1981505 19.558594 9.2128906 C 20.774867 9.1667804 21.906596 10.267482 23.001953 11.894531 C 23.976395 13.567766 24.896561 15.301282 25.691406 17.152344 L 22.466797 19.005859 L 31.816406 19.902344 L 35.751953 11.359375 L 32.498047 13.230469 C 31.612515 11.43096 30.48387 9.9343436 28.771484 9.1679688 z M 19.527344 9.8242188 L 19.068359 9.8261719 C 18.636262 9.913479 18.286256 10.100167 18.019531 10.384766 C 15.860823 12.502586 14.539941 14.622098 13.457031 16.736328 C 15.484154 17.899251 17.512115 19.06364 19.541016 20.226562 L 23.693359 14.40625 C 23.307495 13.670074 22.90385 12.940892 22.482422 12.220703 C 21.94719 11.425868 20.91669 10.017482 19.851562 9.8398438 L 19.527344 9.8242188 z M 35.875 19.849609 C 33.867437 21.048098 31.857172 22.243095 29.849609 23.443359 L 30.146484 24.083984 L 30.183594 24.03125 L 30.183594 24.160156 L 32.585938 29.271484 C 33.556823 29.3055 34.531243 29.310986 35.503906 29.300781 C 36.510355 29.217254 38.381425 28.987469 38.962891 28.025391 C 38.985946 27.991375 38.999916 27.959419 39.019531 27.925781 L 39.255859 27.501953 C 39.255859 27.311843 39.230521 27.116926 39.173828 26.935547 C 38.386275 24.01823 37.186943 21.831914 35.875 19.849609 z M 15.677734 20.853516 L 6.4257812 22.550781 L 9.8300781 24.130859 C 8.8663058 25.89484 8.29458 27.67696 8.6484375 29.515625 C 10.426615 32.02285 12.204594 34.525624 13.986328 37.029297 C 13.250162 36.060188 13.502522 34.501266 14.203125 32.667969 C 15.010418 30.912907 15.898491 29.162855 16.951172 27.443359 L 20.326172 29.015625 L 15.677734 20.853516 z M 29.591797 25.955078 L 24.232422 33.666016 L 29.751953 41.285156 L 29.714844 37.533203 C 31.715294 37.645077 33.574487 37.390705 35.085938 36.279297 C 36.57783 33.592469 38.068831 30.908062 39.5625 28.226562 C 38.998817 29.307696 37.481561 29.751907 35.527344 29.910156 C 33.590908 29.944172 31.632913 29.887498 29.628906 29.677734 L 29.591797 25.955078 z M 15.964844 30.445312 C 15.545194 31.254396 15.147933 32.074427 14.765625 32.910156 C 14.402877 33.856172 13.802891 35.643159 14.419922 36.582031 C 14.441276 36.616047 14.463209 36.644033 14.486328 36.675781 L 14.777344 37.083984 C 15.022733 37.258221 15.289186 37.357555 15.568359 37.396484 C 18.543251 37.949467 21.032411 37.805381 23.386719 37.476562 C 23.171558 35.148903 22.955219 32.81981 22.738281 30.492188 L 15.964844 30.445312 z "
       transform="matrix(0.26458333,0,0,0.26458333,0,284.3)"
       id="path4528" />
  </g>
</svg>
