<svg xmlns="http://www.w3.org/2000/svg" width="48" height="48" viewBox="0 0 12.7 12.7">
  <g fill="#1a1a1a">
    <path d="M6.34431561.07286377a6.28928043 6.28928043 0 0 0-6.2895386 6.2895385 6.28928043 6.28928043 0 0 0 6.2895386 6.28902166 6.28928043 6.28928043 0 0 0 6.28902167-6.28902167A6.28928043 6.28928043 0 0 0 6.3443156.07286376zm-.01808691.93637693a5.40704372 5.40704372 0 0 1 5.40690507 5.40690505 5.40704372 5.40704372 0 0 1-5.40690507 5.40690508A5.40704372 5.40704372 0 0 1 .91880694 6.41614575 5.40704372 5.40704372 0 0 1 6.3262287 1.0092407z"/>
    <path d="M2.7026017 3.24355c-.1433803 0-.2588989.0153-.2588989.0341v.74671c0 .0188.1155186.0341.2588989.0341h7.2465861c.1433812 0 .2588992-.0153.2588992-.0341v-.74671c0-.0188-.115518-.0341-.2588992-.0341H2.7072567zm-.243396 1.01131v5.05085c0 .14333.1150611.2589.2583822.2589h7.2440022c.1433229 0 .2583819-.11557.2583819-.2589V4.25486zm.4826579.82734h1.1038086v1.28726H2.9418636zm0 1.83916h1.1038086v1.28726H2.9418636z"/>
  </g>
</svg>
