<?xml version="1.0" encoding="UTF-8" standalone="no"?>
<svg
   xmlns:dc="http://purl.org/dc/elements/1.1/"
   xmlns:cc="http://creativecommons.org/ns#"
   xmlns:rdf="http://www.w3.org/1999/02/22-rdf-syntax-ns#"
   xmlns:svg="http://www.w3.org/2000/svg"
   xmlns="http://www.w3.org/2000/svg"
   xmlns:sodipodi="http://sodipodi.sourceforge.net/DTD/sodipodi-0.dtd"
   xmlns:inkscape="http://www.inkscape.org/namespaces/inkscape"
   width="48"
   height="48"
   viewBox="0 0 12.7 12.7"
   version="1.1"
   id="svg6"
   sodipodi:docname="user-trash.svg"
   inkscape:version="0.92.3 (2405546, 2018-03-11)">
  <metadata
     id="metadata12">
    <rdf:RDF>
      <cc:Work
         rdf:about="">
        <dc:format>image/svg+xml</dc:format>
        <dc:type
           rdf:resource="http://purl.org/dc/dcmitype/StillImage" />
        <dc:title></dc:title>
      </cc:Work>
    </rdf:RDF>
  </metadata>
  <defs
     id="defs10" />
  <sodipodi:namedview
     pagecolor="#ffffff"
     bordercolor="#666666"
     borderopacity="1"
     objecttolerance="10"
     gridtolerance="10"
     guidetolerance="10"
     inkscape:pageopacity="0"
     inkscape:pageshadow="2"
     inkscape:window-width="883"
     inkscape:window-height="480"
     id="namedview8"
     showgrid="false"
     inkscape:zoom="4.9166667"
     inkscape:cx="4.1694915"
     inkscape:cy="24"
     inkscape:window-x="0"
     inkscape:window-y="25"
     inkscape:window-maximized="0"
     inkscape:current-layer="svg6" />
  <path
     d="M6.3443158.07286A6.2892804 6.2892804 0 0 0 .05477707 6.3624a6.2892804 6.2892804 0 0 0 6.28953873 6.28902A6.2892804 6.2892804 0 0 0 12.633337 6.3624 6.2892804 6.2892804 0 0 0 6.3443158.07286zm-.018087.93638a5.4070437 5.4070437 0 0 1 5.4069052 5.40691 5.4070437 5.4070437 0 0 1-5.4069052 5.4069 5.4070437 5.4070437 0 0 1-5.40742183-5.4069A5.4070437 5.4070437 0 0 1 6.3262288 1.00924z"
     fill="#1a1a1a"
     id="path2" />
  <path
     d="M7.61245505 2.42569171c-.81204196.004-1.6245943.00798558-2.43757712.01188556.32180556-.01219999.62124219.2790273.9110554.70951735.2578211.44271009.50128168.90136952.71158442 1.39112967l-.85317779.49040917 2.47375069.23719499 1.04128013-2.26032719-.86092929.49506029c-.234297-.47612009-.53291765-.87209984-.98598644-1.07486984zm-2.44584535.17363281l-.12143978.00051676c-.11432566.0231-.20693141.07249454-.2775024.14779469-.57115815.56033987-.92064151 1.12112741-1.20716145 1.68051742.53634296.30769004 1.07290763.61576796 1.60972101.92345774L6.26886782 3.8116536c-.10209318-.1947799-.20889092-.3877093-.32039374-.5782593-.14161347-.2103001-.41426659-.58293555-.6960817-.62993566l-.08578268-.00413412zm4.32531726 2.65255113c-.5311677.3171002-1.0630503.6332765-1.59421801.95084634l.07854817.1694987.0098187-.01395254v.03410638l.63562017 1.35237218c.25687998.00900007.51469527.01045157.77204569.0077515.26628963-.02209985.76134356-.08289713.91518977-.33744693.00609997-.00900007.0097962-.0174551.014986-.02635515l.06252845-.11213782c0-.05029994-.00670402-.10187173-.02170404-.14986159-.2083734-.77187345-.52569665-1.35033621-.8728149-1.87482107zm-5.3438599.26561706l-2.44791247.44906802.9007202.4180623c-.25499808.46671997-.4062672.93823921-.3126424 1.42471932.47047613.66336994.94089973 1.32556222 1.41231685 1.98799236-.19477726-.25641009-.128007-.66887486.05736087-1.15393469.21359627-.46436015.44856558-.92739473.72708743-1.3823447l.89296873.41599536-1.2298992-2.15955797zM7.8294962 6.86728097L6.41149491 8.90746662l1.46037589 2.01589743-.00981842-.99270421c.52928572.0296 1.0211972-.0377026 1.42110193-.33176263.39472976-.7108899.78922377-1.42113924 1.18442368-2.13061944-.14914112.28605003-.55058177.40358086-1.067635.4454509-.5123487.00900007-1.03040153-.00599492-1.56062838-.06149498l-.00981842-.98495272zM4.2240316 8.05532203c-.1110324.21407014-.21614103.43103667-.31729336.65215664-.09597707.25030006-.25472337.72310703-.09146725.97151691.00564991.00900007.01145302.0164047.01756992.02480469l.07699798.1080037c.06492584.04610021.13542486.07238233.20928939.0826823.78710683.14631008 1.44569707.10818733 2.06860772.0211873-.05692801-.61585977-.1141677-1.23209895-.17156588-1.84794893l-1.79213852-.0124026z"
     fill="green"
     opacity=".75"
     id="path4" />
</svg>
