<svg xmlns="http://www.w3.org/2000/svg" width="24" height="24" version="1"><path fill="gray" d="M3.65 1.01a1.53 1.53 0 0 0-1.533 1.533v18.4c0 .85.684 1.534 1.534 1.534h9.2v-1.549l-7.667.015v-18.4h13.033c.425 0 .767.342.767.767v9.954h1.533V2.544a1.53 1.53 0 0 0-1.533-1.534zm8.416 6.137c-.738-.05-1.46.383-1.89.966-.418.754-.076 1.65-.337 2.447-.16.57 0 1.177.414 1.59.356.447.793 1.032.55 1.633-.353.676-1.054 1.073-1.692 1.433a2.6 2.6 0 0 0-.567.327c-.163.046-.292.169-.292.345v1.605c0 .212.169.384.384.384h4.189a1.56 1.56 0 0 1 1.56-1.552h1.506v-.813c-.846-.457-1.794-.903-2.267-1.795-.163-.709.335-1.33.772-1.822.431-.547.261-1.27.11-1.883-.062-.677.156-1.48-.349-2.036-.547-.555-1.337-.782-2.09-.83zm5.385 7.678v3.061h-3.067v3.042l3.067.022v3.06h3.066v-3.06h3.067v-3.064h-3.067v-3.06z" color="#000" overflow="visible" style="isolation:auto;mix-blend-mode:normal;marker:none"/></svg>