<?xml version="1.0" encoding="UTF-8" standalone="no"?>
<svg
   xmlns:dc="http://purl.org/dc/elements/1.1/"
   xmlns:cc="http://creativecommons.org/ns#"
   xmlns:rdf="http://www.w3.org/1999/02/22-rdf-syntax-ns#"
   xmlns:svg="http://www.w3.org/2000/svg"
   xmlns="http://www.w3.org/2000/svg"
   xmlns:sodipodi="http://sodipodi.sourceforge.net/DTD/sodipodi-0.dtd"
   xmlns:inkscape="http://www.inkscape.org/namespaces/inkscape"
   width="48"
   height="48"
   version="1.1"
   id="svg4"
   sodipodi:docname="application-x-firmware.svg"
   inkscape:version="0.92.4 (5da689c313, 2019-01-14)">
  <metadata
     id="metadata10">
    <rdf:RDF>
      <cc:Work
         rdf:about="">
        <dc:format>image/svg+xml</dc:format>
        <dc:type
           rdf:resource="http://purl.org/dc/dcmitype/StillImage" />
        <dc:title></dc:title>
      </cc:Work>
    </rdf:RDF>
  </metadata>
  <defs
     id="defs8" />
  <sodipodi:namedview
     pagecolor="#ffffff"
     bordercolor="#666666"
     borderopacity="1"
     objecttolerance="10"
     gridtolerance="10"
     guidetolerance="10"
     inkscape:pageopacity="0"
     inkscape:pageshadow="2"
     inkscape:window-width="1138"
     inkscape:window-height="480"
     id="namedview6"
     showgrid="false"
     inkscape:zoom="4.9166667"
     inkscape:cx="2.1355932"
     inkscape:cy="24"
     inkscape:window-x="0"
     inkscape:window-y="25"
     inkscape:window-maximized="0"
     inkscape:current-layer="svg4" />
  <path
     d="m 29.705,-0.084 c -2.047,0.008 -4.121,0.088 -4.517,0.098 H 7 a 2.938,2.938 0 0 0 -0.563,0 C 5.064,0.276 3.975,1.612 4,3.012 V 45 c 0,1.57 1.43,3 3,3 h 34 c 1.57,0 3,-1.43 3,-3 V 18.818 C 44.018,18.026 44.215,8.891 43.664,8.322 l -9.61,-8.074 c -0.281,-0.275 -2.302,-0.34 -4.349,-0.332 z m 1.49,3.094 0.133,7.504 c 0.012,0.68 0.638,1.29 1.317,1.279 l 7.771,-0.137 c 0.133,0.018 0.268,0.018 0.4,-0.006 L 40.898,14.68 41,18.77 V 44.996 H 7 V 3.021 H 25.672 Z M 17.902,17.533 13.65,17.58 v 12.43 l 7.102,3.129 0.187,-0.186 a 1.635,1.635 0 0 1 1.262,-0.56 c 0.841,0 1.588,0.7 1.588,1.634 0,0.935 -0.747,1.682 -1.588,1.682 a 1.635,1.635 0 0 1 -1.635,-1.447 v -0.14 l -6.962,-2.991 v 7.336 H 34.396 V 17.58 h -3.271 v 6.309 l 0.14,0.093 c 0.468,0.28 0.702,0.793 0.702,1.307 a 1.542,1.542 0 0 1 -1.543,1.543 1.542,1.542 0 0 1 -1.541,-1.543 c 0,-0.654 0.42,-1.307 1.074,-1.447 l 0.188,-0.094 V 17.58 H 18.93 v 6.822 h 3.199 a 1.784,1.767 0 0 1 1.594,-0.974 1.784,1.767 0 0 1 1.783,1.767 1.784,1.767 0 0 1 -1.783,1.766 1.784,1.767 0 0 1 -1.768,-1.531 h -4.053 z m 5.82,6.654 a 1.017,1.008 0 0 0 -1.017,1.008 1.017,1.008 0 0 0 1.018,1.008 1.017,1.008 0 0 0 1.015,-1.008 1.017,1.008 0 0 0 -1.015,-1.008 z m 6.61,0.262 a 0.841,0.841 0 0 0 -0.795,0.795 0.841,0.841 0 0 0 0.795,0.84 0.841,0.841 0 0 0 0.84,-0.84 0.841,0.841 0 0 0 -0.84,-0.795 z M 22,24.732 A 1.784,1.767 0 0 0 21.941,25.08 1.784,1.767 0 0 1 22,24.732 Z m 0.154,8.5 a 0.841,0.841 0 0 0 -0.841,0.795 c 0,0.468 0.327,0.842 0.794,0.842 a 0.841,0.841 0 0 0 0.89,-0.842 0.841,0.841 0 0 0 -0.843,-0.795 z"
     id="path2"
     inkscape:connector-curvature="0"
     style="fill:#1e3f5a" />
</svg>
