<?xml version="1.0" encoding="UTF-8" standalone="no"?>
<svg
   xmlns:dc="http://purl.org/dc/elements/1.1/"
   xmlns:cc="http://creativecommons.org/ns#"
   xmlns:rdf="http://www.w3.org/1999/02/22-rdf-syntax-ns#"
   xmlns:svg="http://www.w3.org/2000/svg"
   xmlns="http://www.w3.org/2000/svg"
   xmlns:sodipodi="http://sodipodi.sourceforge.net/DTD/sodipodi-0.dtd"
   xmlns:inkscape="http://www.inkscape.org/namespaces/inkscape"
   width="48"
   height="48"
   viewBox="0 0 12.7 12.7"
   version="1.1"
   id="svg6"
   sodipodi:docname="application-x-rar.svg"
   inkscape:version="0.92.4 (5da689c313, 2019-01-14)">
  <defs
     id="defs10" />
  <sodipodi:namedview
     pagecolor="#ffffff"
     bordercolor="#666666"
     borderopacity="1"
     objecttolerance="10"
     gridtolerance="10"
     guidetolerance="10"
     inkscape:pageopacity="0"
     inkscape:pageshadow="2"
     inkscape:window-width="1087"
     inkscape:window-height="480"
     id="namedview8"
     showgrid="false"
     inkscape:zoom="4.9166667"
     inkscape:cx="2.1355932"
     inkscape:cy="24"
     inkscape:window-x="0"
     inkscape:window-y="25"
     inkscape:window-maximized="0"
     inkscape:current-layer="svg6" />
  <metadata
     id="metadata2">
    <rdf:RDF>
      <cc:Work>
        <dc:format>image/svg+xml</dc:format>
        <dc:type
           rdf:resource="http://purl.org/dc/dcmitype/StillImage" />
        <dc:title></dc:title>
      </cc:Work>
    </rdf:RDF>
  </metadata>
  <path
     d="m 1.21,0.86 -1.07,2.8 h 6.04 v -2.8 z m 5.18,0 v 2.8 h 6.11 l -1.1,-2.8 h -5 z m -6.2,3.03 v 6.31 c 0,0.64 0.25,1.18 0.74000003,1.64 C 1.43,12.29 2.01,12.51 2.71,12.51 H 9.9600003 C 10.66,12.51 11.24,12.29 11.74,11.84 c 0.49,-0.46 0.73,-1 0.73,-1.64 V 3.9 h -1.12 v 6.3 c 0,0.36 -0.13,0.66 -0.4,0.91 A 1.4,1.4 0 0 1 9.9600003,11.49 H 2.71 A 1.4,1.4 0 0 1 1.72,11.11 1.19,1.19 0 0 1 1.31,10.21 V 3.88 H 0.19 Z m 1.53,1.4 V 6.35 H 2 V 7.41 H 2.53 V 6.35 H 2.79 V 5.29 Z M 3.04,5.34 V 5.87 H 3.57 V 5.34 Z M 3.57,5.87 V 6.4 H 4.1 V 5.87 Z m 0.53,0 H 4.63 V 5.34 H 4.1 Z m 0.53,0 V 6.4 H 5.16 V 5.87 Z m 0.53,0 H 5.68 V 5.34 H 5.16 Z m 0.52,0 V 6.4 H 6.21 V 5.87 Z m 0.53,0 H 6.74 V 5.34 H 6.21 Z m 0.53,0 V 6.4 H 7.27 V 5.87 Z m 0.53,0 H 7.8 V 5.34 H 7.27 Z m 0.53,0 V 6.4 H 8.33 V 5.87 Z m 0.53,0 H 8.86 V 5.34 H 8.33 Z m 0.53,0 V 6.4 H 9.39 V 5.87 Z m 0.53,0 H 9.9200003 V 5.34 H 9.39 Z m 0.5300003,0 V 6.4 H 10.45 V 5.87 Z M 10.45,5.87 h 0.53 V 5.34 H 10.45 Z M 1.99,5.56 H 2.52 V 6.09 H 1.99 Z M 5.22,7.85 A 0.42,0.42 0 0 0 4.85,8.06 C 4.85,8.01 4.88,7.91 4.83,7.89 H 4.47 V 9.65 H 4.89 V 8.58 C 4.9,8.38 5.08,8.24 5.27,8.26 V 7.85 a 0.42,0.42 0 0 0 -0.05,0 z m 3.12,0 A 0.42,0.42 0 0 0 7.97,8.06 C 7.95,8.01 7.99,7.91 7.95,7.89 H 7.58 V 9.65 H 8 V 8.58 C 8.01,8.38 8.2,8.24 8.38,8.26 V 7.85 a 0.42,0.42 0 0 0 -0.04,0 z m -2.08,0 A 0.87,0.87 0 0 0 6.14,7.86 0.87,0.87 0 0 0 5.42,8.63 C 5.36,9.01 5.53,9.44 5.9,9.61 6.2,9.75 6.61,9.73 6.85,9.46 6.91,9.38 6.87,9.55 6.88,9.59 6.85,9.69 6.95,9.64 7.01,9.65 H 7.26 V 7.89 H 6.88 v 0.24 a 0.67,0.67 0 0 0 -0.54,-0.28 0.87,0.87 0 0 0 -0.08,0 z m 0.06,0.39 a 0.55,0.55 0 0 1 0.03,0 0.51,0.51 0 0 1 0.51,0.48 C 6.89,8.97 6.73,9.26 6.46,9.29 6.22,9.35 5.92,9.21 5.86,8.95 5.77,8.67 5.91,8.32 6.21,8.25 A 0.55,0.55 0 0 1 6.32,8.24 Z"
     id="path4"
     inkscape:connector-curvature="0"
     style="fill:#1e3f5a" />
</svg>
