<?xml version="1.0" encoding="UTF-8" standalone="no"?>
<svg
   xmlns:dc="http://purl.org/dc/elements/1.1/"
   xmlns:cc="http://creativecommons.org/ns#"
   xmlns:rdf="http://www.w3.org/1999/02/22-rdf-syntax-ns#"
   xmlns:svg="http://www.w3.org/2000/svg"
   xmlns="http://www.w3.org/2000/svg"
   xmlns:sodipodi="http://sodipodi.sourceforge.net/DTD/sodipodi-0.dtd"
   xmlns:inkscape="http://www.inkscape.org/namespaces/inkscape"
   width="48"
   height="48"
   viewBox="0 0 12.7 12.7"
   version="1.1"
   id="svg6"
   sodipodi:docname="application-x-bzip-compressed-tar.svg"
   inkscape:version="0.92.4 (5da689c313, 2019-01-14)">
  <defs
     id="defs10" />
  <sodipodi:namedview
     pagecolor="#ffffff"
     bordercolor="#666666"
     borderopacity="1"
     objecttolerance="10"
     gridtolerance="10"
     guidetolerance="10"
     inkscape:pageopacity="0"
     inkscape:pageshadow="2"
     inkscape:window-width="1087"
     inkscape:window-height="480"
     id="namedview8"
     showgrid="false"
     inkscape:zoom="4.9166667"
     inkscape:cx="2.1355932"
     inkscape:cy="24"
     inkscape:window-x="0"
     inkscape:window-y="25"
     inkscape:window-maximized="0"
     inkscape:current-layer="svg6" />
  <metadata
     id="metadata2">
    <rdf:RDF>
      <cc:Work>
        <dc:format>image/svg+xml</dc:format>
        <dc:type
           rdf:resource="http://purl.org/dc/dcmitype/StillImage" />
        <dc:title></dc:title>
      </cc:Work>
    </rdf:RDF>
  </metadata>
  <path
     d="m 1.21,0.86 -1.07,2.8 h 6.04 v -2.8 z m 5.18,0 v 2.8 h 6.11 l -1.1,-2.8 h -5 z m -6.2,3.03 v 6.31 c 0,0.64 0.25,1.18 0.74,1.64 0.5,0.45 1.08,0.67 1.78,0.67 h 7.25 c 0.7,0 1.28,-0.22 1.78,-0.67 0.49,-0.46 0.73,-1 0.73,-1.64 V 3.9 h -1.12 v 6.3 c 0,0.36 -0.13,0.66 -0.4,0.91 A 1.4,1.4 0 0 1 9.96,11.49 H 2.71 A 1.4,1.4 0 0 1 1.72,11.11 1.19,1.19 0 0 1 1.31,10.21 V 3.88 H 0.19 Z m 1.53,1.4 V 6.35 H 2 V 7.41 H 2.53 V 6.35 H 2.79 V 5.29 Z M 3.04,5.34 V 5.87 H 3.57 V 5.34 Z M 3.57,5.87 V 6.4 H 4.1 V 5.87 Z m 0.53,0 H 4.63 V 5.34 H 4.1 Z m 0.53,0 V 6.4 H 5.16 V 5.87 Z m 0.53,0 H 5.68 V 5.34 H 5.16 Z m 0.52,0 V 6.4 H 6.21 V 5.87 Z m 0.53,0 H 6.74 V 5.34 H 6.21 Z m 0.53,0 V 6.4 H 7.27 V 5.87 Z m 0.53,0 H 7.8 V 5.34 H 7.27 Z m 0.53,0 V 6.4 H 8.33 V 5.87 Z m 0.53,0 H 8.86 V 5.34 H 8.33 Z m 0.53,0 V 6.4 H 9.39 V 5.87 Z m 0.53,0 H 9.92 V 5.34 H 9.39 Z m 0.53,0 V 6.4 h 0.53 V 5.87 Z m 0.53,0 h 0.53 V 5.34 H 10.45 Z M 1.99,5.56 H 2.52 V 6.09 H 1.99 Z M 10.36,7.9 H 10.27 C 9.87,7.92 9.56,8.33 9.6,8.76 H 9.98 C 9.89,8.21 10.72,8.14 10.63,8.72 10.54,9.07 10.23,9.26 10.01,9.52 9.88,9.66 9.71,9.79 9.61,9.95 v 0.35 h 1.4 C 11,10.17 11.04,9.99 10.99,9.9 h -0.83 c 0.29,-0.32 0.68,-0.56 0.83,-1 0.15,-0.46 -0.19,-0.98 -0.63,-1 z M 2.18,7.93 A 0.23,0.23 0 0 0 2.12,7.95 C 1.99,7.95 1.82,7.9 1.87,8.11 V 8.54 C 1.71,8.5 1.64,8.56 1.68,8.74 1.64,8.92 1.73,8.95 1.88,8.92 v 1.37 H 2.26 V 8.92 C 2.39,8.92 2.56,8.96 2.5,8.76 2.52,8.6 2.5,8.48 2.33,8.54 2.19,8.55 2.29,8.3 2.26,8.2 2.26,8.08 2.29,7.93 2.18,7.93 Z m 4.2,0.02 v 2.34 C 6.49,10.28 6.66,10.33 6.74,10.27 6.67,9.82 7.05,10.49 7.3,10.34 7.85,10.37 8.2,9.7 8.06,9.17 7.97,8.55 7.17,8.22 6.76,8.7 V 7.95 Z M 3.53,8.47 A 0.16,0.16 0 0 0 3.45,8.5 C 2.95,8.47 2.55,9 2.63,9.52 c 0.01,0.58 0.62,0.99 1.1,0.75 0.23,-0.2 0.25,-0.22 0.27,0.02 0.1,-0.02 0.3,0.07 0.34,-0.04 V 8.54 C 4.23,8.55 4.06,8.5 3.98,8.56 4.04,8.96 3.78,8.5 3.55,8.47 a 0.16,0.16 0 0 0 -0.02,0 z M 5.32,8.48 C 5.2,8.48 4.94,8.72 4.98,8.64 5.03,8.45 4.79,8.57 4.69,8.54 4.55,8.52 4.66,8.77 4.63,8.87 v 1.42 H 5.02 C 5.02,9.91 4.99,9.52 5.04,9.14 5.14,8.88 5.47,8.96 5.36,8.61 5.37,8.52 5.36,8.49 5.32,8.48 Z M 8.29,8.54 C 8.32,8.65 8.24,8.88 8.33,8.91 h 0.6 l -0.72,1 v 0.38 H 9.45 C 9.42,10.19 9.5,9.96 9.41,9.92 H 8.68 l 0.71,-1 C 9.37,8.8 9.44,8.58 9.35,8.54 Z M 7.22,8.86 C 7.67,8.83 7.86,9.54 7.53,9.83 7.25,10.1 6.75,9.88 6.75,9.46 6.71,9.16 6.92,8.85 7.22,8.86 Z M 3.49,8.88 C 3.91,8.86 4.11,9.48 3.85,9.79 3.6,10.11 3.02,9.93 3.02,9.49 2.98,9.19 3.19,8.87 3.49,8.89 Z m 2.13,1 v 0.01 z m 0,0.01 v 0.4 H 6 v -0.4 z"
     id="path4"
     inkscape:connector-curvature="0"
     style="fill:#1e3f5a" />
</svg>
