<?xml version="1.0" encoding="UTF-8" standalone="no"?>
<svg
   xmlns:dc="http://purl.org/dc/elements/1.1/"
   xmlns:cc="http://creativecommons.org/ns#"
   xmlns:rdf="http://www.w3.org/1999/02/22-rdf-syntax-ns#"
   xmlns:svg="http://www.w3.org/2000/svg"
   xmlns="http://www.w3.org/2000/svg"
   xmlns:sodipodi="http://sodipodi.sourceforge.net/DTD/sodipodi-0.dtd"
   xmlns:inkscape="http://www.inkscape.org/namespaces/inkscape"
   width="48"
   height="48"
   viewBox="0 0 12.7 12.7"
   version="1.1"
   id="svg4"
   sodipodi:docname="application-zip.svg"
   inkscape:version="0.92.5 (2060ec1f9f, 2020-04-08)">
  <metadata
     id="metadata10">
    <rdf:RDF>
      <cc:Work
         rdf:about="">
        <dc:format>image/svg+xml</dc:format>
        <dc:type
           rdf:resource="http://purl.org/dc/dcmitype/StillImage" />
        <dc:title></dc:title>
      </cc:Work>
    </rdf:RDF>
  </metadata>
  <defs
     id="defs8" />
  <sodipodi:namedview
     pagecolor="#ffffff"
     bordercolor="#666666"
     borderopacity="1"
     objecttolerance="10"
     gridtolerance="10"
     guidetolerance="10"
     inkscape:pageopacity="0"
     inkscape:pageshadow="2"
     inkscape:window-width="1087"
     inkscape:window-height="480"
     id="namedview6"
     showgrid="false"
     inkscape:zoom="4.9166667"
     inkscape:cx="2.1355932"
     inkscape:cy="24"
     inkscape:window-x="0"
     inkscape:window-y="25"
     inkscape:window-maximized="0"
     inkscape:current-layer="svg4" />
  <path
     d="M 1.323,0.794 0.265,3.44 h 5.82 V 0.794 Z m 5.292,0 V 3.44 h 5.82 L 11.377,0.794 Z m -6.35,3.175 v 6.35 c 0,1.172 0.944,2.116 2.116,2.116 h 7.938 a 2.112,2.112 0 0 0 2.116,-2.116 v -6.35 h -0.793 v 6.35 a 1.32,1.32 0 0 1 -1.323,1.323 H 2.38 A 1.32,1.32 0 0 1 1.057,10.319 v -6.35 z m 1.588,1.008 v 1.06 h 0.28 v 1.06 h 0.53 v -1.06 h 0.26 v -1.06 z m 1.32,0.05 v 0.53 h 0.53 v -0.53 z m 0.53,0.53 v 0.53 h 0.53 v -0.53 z m 0.53,0 h 0.53 v -0.53 h -0.53 z m 0.53,0 v 0.53 h 0.53 v -0.53 z m 0.53,0 h 0.52 v -0.53 h -0.52 z m 0.52,0 v 0.53 h 0.53 v -0.53 z m 0.53,0 h 0.53 v -0.53 h -0.53 z m 0.53,0 v 0.53 h 0.53 v -0.53 z m 0.53,0 h 0.53 v -0.53 h -0.53 z m 0.53,0 v 0.53 h 0.53 v -0.53 z m 0.53,0 h 0.53 v -0.53 h -0.53 z m 0.53,0 v 0.53 h 0.53 v -0.53 z m 0.53,0 h 0.53 v -0.53 h -0.53 z m 0.53,0 v 0.53 h 0.53 v -0.53 z m 0.53,0 h 0.53 v -0.53 h -0.53 z m -8.46,-0.31 h 0.53 v 0.53 h -0.53 z m 3.612,2.476 v 0.46 h 0.48 V 7.723 Z M 4.424,7.811 v 0.01 z m 3.31,0.541 a 0.87,0.87 0 0 0 -0.67,0.29 c -0.01,-0.08 0.01,-0.19 -0.02,-0.24 h -0.43 v 2.71 h 0.48 v -0.87 c 0.45,0.44 1.28,0.25 1.53,-0.3 0.25,-0.52 0.1,-1.24 -0.44,-1.49 a 1.05,1.05 0 0 0 -0.45,-0.1 z m -3.72,0.05 v 0.44 h 0.8 l -0.9,1.16 v 0.43 h 1.55 v -0.43 h -0.97 l 0.9,-1.16 v -0.44 z m 1.72,0 v 2.03 h 0.48 v -2.03 z m 1.922,0.4 a 0.58,0.58 0 0 1 0.009,0 c 0.37,-0.01 0.64,0.37 0.58,0.71 -0.03,0.34 -0.4,0.6 -0.73,0.5 -0.4,-0.08 -0.57,-0.62 -0.35,-0.95 a 0.58,0.58 0 0 1 0.49,-0.26 z"
     id="path2"
     inkscape:connector-curvature="0"
     style="fill:#1e3f5a" />
</svg>
