<?xml version="1.0" encoding="UTF-8" standalone="no"?>
<svg
   xmlns:dc="http://purl.org/dc/elements/1.1/"
   xmlns:cc="http://creativecommons.org/ns#"
   xmlns:rdf="http://www.w3.org/1999/02/22-rdf-syntax-ns#"
   xmlns:svg="http://www.w3.org/2000/svg"
   xmlns="http://www.w3.org/2000/svg"
   xmlns:sodipodi="http://sodipodi.sourceforge.net/DTD/sodipodi-0.dtd"
   xmlns:inkscape="http://www.inkscape.org/namespaces/inkscape"
   width="48"
   height="48"
   version="1.1"
   id="svg4"
   sodipodi:docname="application-x-kmymoney.svg"
   inkscape:version="0.92.4 (5da689c313, 2019-01-14)">
  <metadata
     id="metadata10">
    <rdf:RDF>
      <cc:Work
         rdf:about="">
        <dc:format>image/svg+xml</dc:format>
        <dc:type
           rdf:resource="http://purl.org/dc/dcmitype/StillImage" />
        <dc:title></dc:title>
      </cc:Work>
    </rdf:RDF>
  </metadata>
  <defs
     id="defs8" />
  <sodipodi:namedview
     pagecolor="#ffffff"
     bordercolor="#666666"
     borderopacity="1"
     objecttolerance="10"
     gridtolerance="10"
     guidetolerance="10"
     inkscape:pageopacity="0"
     inkscape:pageshadow="2"
     inkscape:window-width="1366"
     inkscape:window-height="717"
     id="namedview6"
     showgrid="false"
     inkscape:zoom="10.835062"
     inkscape:cx="24.024194"
     inkscape:cy="24.042318"
     inkscape:window-x="0"
     inkscape:window-y="25"
     inkscape:window-maximized="1"
     inkscape:current-layer="svg4" />
  <path
     d="m 29.705,-0.084 c -2.047,0.008 -4.121,0.088 -4.517,0.098 H 7 a 2.938,2.938 0 0 0 -0.563,0 C 5.064,0.276 3.975,1.612 4,3.012 V 45 c 0,1.57 1.43,3 3,3 h 34 c 1.57,0 3,-1.43 3,-3 V 18.818 C 44.018,18.026 44.215,8.891 43.664,8.322 l -9.61,-8.074 c -0.282,-0.275 -2.302,-0.34 -4.349,-0.332 z m 1.49,3.094 0.133,7.504 c 0.012,0.68 0.638,1.29 1.317,1.279 l 7.771,-0.137 c 0.133,0.018 0.268,0.017 0.4,-0.006 L 40.898,14.68 41,18.77 V 44.996 H 7 V 3.021 H 25.672 Z M 13.732,16.633 v 1.457 l 1.788,0.13 c 0.242,0.023 0.419,0.112 0.529,0.266 a 0.767,0.767 0 0 1 0.183,0.479 v 18.07 a 0.767,0.767 0 0 1 -0.183,0.479 c -0.11,0.154 -0.287,0.243 -0.53,0.265 l -1.787,0.133 v 1.455 h 8.606 V 37.91 L 20.4,37.78 c -0.242,-0.023 -0.43,-0.112 -0.562,-0.266 a 0.764,0.764 0 0 1 -0.182,-0.479 v -7.762 h 2.367 l 6.303,9.051 v 1.043 h 5.942 V 37.91 l -2.45,-0.164 -7.595,-11.119 6.918,-8.273 c 0.055,-0.012 0.202,-0.027 0.445,-0.05 0.243,-0.032 0.502,-0.066 0.777,-0.099 0.32,-0.044 0.68,-0.084 1.076,-0.117 v -1.455 h -7.181 v 1.457 l 1.738,0.164 a 0.34,0.34 0 0 1 0.23,0.148 0.38,0.38 0 0 1 0.1,0.25 0.245,0.245 0 0 1 -0.066,0.182 l -7.38,9.018 h -1.224 v -8.885 a 0.77,0.77 0 0 1 0.182,-0.48 c 0.132,-0.155 0.32,-0.244 0.562,-0.266 l 1.938,-0.131 v -1.457 z"
     id="path2"
     inkscape:connector-curvature="0"
     style="fill:#1e3f5a" />
</svg>
