<?xml version="1.0" encoding="UTF-8" standalone="no"?>
<svg
   xmlns:dc="http://purl.org/dc/elements/1.1/"
   xmlns:cc="http://creativecommons.org/ns#"
   xmlns:rdf="http://www.w3.org/1999/02/22-rdf-syntax-ns#"
   xmlns:svg="http://www.w3.org/2000/svg"
   xmlns="http://www.w3.org/2000/svg"
   xmlns:sodipodi="http://sodipodi.sourceforge.net/DTD/sodipodi-0.dtd"
   xmlns:inkscape="http://www.inkscape.org/namespaces/inkscape"
   width="48"
   height="48"
   version="1.1"
   id="svg35"
   sodipodi:docname="audio-x-vorbis+ogg.svg"
   inkscape:version="0.92.4 (5da689c313, 2019-01-14)">
  <metadata
     id="metadata39">
    <rdf:RDF>
      <cc:Work
         rdf:about="">
        <dc:format>image/svg+xml</dc:format>
        <dc:type
           rdf:resource="http://purl.org/dc/dcmitype/StillImage" />
        <dc:title></dc:title>
      </cc:Work>
    </rdf:RDF>
  </metadata>
  <sodipodi:namedview
     pagecolor="#ffffff"
     bordercolor="#666666"
     borderopacity="1"
     objecttolerance="10"
     gridtolerance="10"
     guidetolerance="10"
     inkscape:pageopacity="0"
     inkscape:pageshadow="2"
     inkscape:window-width="1087"
     inkscape:window-height="480"
     id="namedview37"
     showgrid="false"
     inkscape:zoom="4.9166667"
     inkscape:cx="2.1355932"
     inkscape:cy="24"
     inkscape:window-x="0"
     inkscape:window-y="25"
     inkscape:window-maximized="0"
     inkscape:current-layer="svg35" />
  <defs
     id="defs31">
    <linearGradient
       id="a">
      <stop
         offset="0"
         stop-color="#dc85e9"
         id="stop2" />
      <stop
         offset="1"
         stop-color="#f2cbf8"
         id="stop4" />
    </linearGradient>
    <linearGradient
       id="b">
      <stop
         offset="0"
         stop-color="#dc85e9"
         id="stop7" />
      <stop
         offset="1"
         stop-color="#f2cbf8"
         id="stop9" />
    </linearGradient>
    <linearGradient
       id="c">
      <stop
         offset="0"
         stop-color="#fff"
         stop-opacity=".588"
         id="stop12" />
      <stop
         offset="1"
         stop-color="#fff"
         stop-opacity=".863"
         id="stop14" />
    </linearGradient>
    <linearGradient
       id="d">
      <stop
         offset="0"
         stop-color="#b3b3b3"
         id="stop17" />
      <stop
         offset="1"
         stop-color="#e6e6e6"
         id="stop19" />
    </linearGradient>
    <linearGradient
       id="e">
      <stop
         offset="0"
         stop-color="#e694bb"
         id="stop22" />
      <stop
         offset=".262"
         stop-color="#d3819a"
         id="stop24" />
      <stop
         offset=".705"
         stop-color="#b25a64"
         id="stop26" />
      <stop
         offset="1"
         stop-color="#98313d"
         id="stop28" />
    </linearGradient>
  </defs>
  <path
     style="color:#000000;font-weight:400;line-height:normal;font-family:'Andale Mono';text-indent:0;text-align:start;text-decoration:none;text-decoration-line:none;text-transform:none;overflow:visible;fill:#1e3f5a;marker:none"
     d="m 29.705,-0.084 c -2.047,0.008 -4.121,0.088 -4.517,0.098 H 7 a 2.938,2.938 0 0 0 -0.563,0 C 5.063,0.276 3.975,1.612 4,3.012 V 45 c 0,1.57 1.43,3 3,3 h 34 c 1.57,0 3,-1.43 3,-3 V 18.818 C 44.018,18.026 44.215,8.891 43.664,8.322 l -9.61,-8.074 c -0.284,-0.275 -2.302,-0.34 -4.349,-0.332 z m 1.49,3.094 0.133,7.504 c 0.012,0.681 0.638,1.29 1.317,1.279 l 7.771,-0.137 c 0.133,0.018 0.268,0.017 0.4,-0.006 L 40.898,14.68 41,18.77 V 44.997 H 7 V 3.021 H 25.672 Z M 28.418,5.855 C 24.291,6.514 19.545,7.192 15.43,7.887 14.34,8.413 14.585,9.769 14.537,10.752 v 13.16 c -2.8,-0.641 -5.874,1.452 -5.996,4.426 -0.198,1.851 1.46,3.462 3.264,3.506 3.23,0.077 5.685,-2.043 5.72,-4.725 -0.035,-4.504 0.01,-9.01 0,-13.515 0.5,-0.037 8.32,-1.468 9,-1.563 v 10.123 c -2.583,-0.761 -5.166,0.83 -5.802,3.496 -0.471,1.545 0.239,3.37 1.771,4.002 2.991,1.36 7.198,-1.395 7.031,-4.629 -0.046,-6.006 0.038,-12.014 0,-18.021 C 29.447,6.447 29.06,5.815 28.418,5.855 Z M 13.475,34.594 c -1.769,-0.058 -3.288,1.751 -2.87,3.484 0.307,1.698 2.29,2.774 3.887,2.14 1.477,-0.482 2.352,-2.25 1.768,-3.706 -0.395,-1.154 -1.573,-1.942 -2.785,-1.918 z m 5.97,0.006 c -0.998,0.096 -1.96,0.737 -2.287,1.714 -0.61,1.515 0.12,3.597 1.809,3.993 0.901,0.248 1.954,0.003 2.525,-0.774 0.068,0.94 -0.638,1.932 -1.664,1.768 -0.714,0.14 -1.05,-0.717 -1.713,-0.588 h -1.074 c 0.667,1.766 3.1,2.246 4.596,1.277 1.1,-0.693 1.157,-2.095 1.125,-3.261 v -4.006 h -1.27 c -0.004,0.423 0.096,0.99 -0.344,0.334 -0.492,-0.38 -1.104,-0.515 -1.703,-0.457 z m 6.602,0 c -0.998,0.096 -1.961,0.737 -2.287,1.714 -0.611,1.515 0.12,3.597 1.808,3.993 0.902,0.248 1.954,0.003 2.526,-0.774 0.067,0.94 -0.639,1.932 -1.664,1.768 -0.715,0.14 -1.05,-0.717 -1.713,-0.588 h -1.074 c 0.667,1.766 3.1,2.246 4.595,1.277 1.101,-0.693 1.157,-2.095 1.125,-3.261 v -4.006 h -1.27 c -0.003,0.423 0.097,0.99 -0.343,0.334 -0.493,-0.38 -1.104,-0.515 -1.703,-0.457 z m -6.215,1.212 v 0.002 c 1.145,-0.072 1.864,1.21 1.535,2.223 -0.254,1.344 -2.372,1.55 -2.904,0.309 -0.47,-0.961 0,-2.458 1.2,-2.524 z m 6.602,0 v 0.002 c 1.144,-0.072 1.864,1.21 1.535,2.223 -0.254,1.344 -2.372,1.55 -2.905,0.309 -0.47,-0.961 0,-2.458 1.2,-2.524 z m -12.948,0.002 c 1.28,-0.038 2.063,1.604 1.336,2.62 -0.554,0.974 -2.113,0.972 -2.664,-0.004 -0.708,-1.04 0.03,-2.628 1.328,-2.616 z"
     font-weight="400"
     overflow="visible"
     id="path33"
     inkscape:connector-curvature="0" />
</svg>
