<?xml version="1.0" encoding="UTF-8" standalone="no"?>
<svg
   xmlns:dc="http://purl.org/dc/elements/1.1/"
   xmlns:cc="http://creativecommons.org/ns#"
   xmlns:rdf="http://www.w3.org/1999/02/22-rdf-syntax-ns#"
   xmlns:svg="http://www.w3.org/2000/svg"
   xmlns="http://www.w3.org/2000/svg"
   xmlns:sodipodi="http://sodipodi.sourceforge.net/DTD/sodipodi-0.dtd"
   xmlns:inkscape="http://www.inkscape.org/namespaces/inkscape"
   width="48"
   height="48"
   version="1.1"
   id="svg35"
   sodipodi:docname="audio-x-ms-wma.svg"
   inkscape:version="0.92.4 (5da689c313, 2019-01-14)">
  <metadata
     id="metadata39">
    <rdf:RDF>
      <cc:Work
         rdf:about="">
        <dc:format>image/svg+xml</dc:format>
        <dc:type
           rdf:resource="http://purl.org/dc/dcmitype/StillImage" />
        <dc:title></dc:title>
      </cc:Work>
    </rdf:RDF>
  </metadata>
  <sodipodi:namedview
     pagecolor="#ffffff"
     bordercolor="#666666"
     borderopacity="1"
     objecttolerance="10"
     gridtolerance="10"
     guidetolerance="10"
     inkscape:pageopacity="0"
     inkscape:pageshadow="2"
     inkscape:window-width="1087"
     inkscape:window-height="480"
     id="namedview37"
     showgrid="false"
     inkscape:zoom="4.9166667"
     inkscape:cx="2.1355932"
     inkscape:cy="24"
     inkscape:window-x="0"
     inkscape:window-y="25"
     inkscape:window-maximized="0"
     inkscape:current-layer="svg35" />
  <defs
     id="defs31">
    <linearGradient
       id="a">
      <stop
         offset="0"
         stop-color="#dc85e9"
         id="stop2" />
      <stop
         offset="1"
         stop-color="#f2cbf8"
         id="stop4" />
    </linearGradient>
    <linearGradient
       id="b">
      <stop
         offset="0"
         stop-color="#dc85e9"
         id="stop7" />
      <stop
         offset="1"
         stop-color="#f2cbf8"
         id="stop9" />
    </linearGradient>
    <linearGradient
       id="c">
      <stop
         offset="0"
         stop-color="#fff"
         stop-opacity=".588"
         id="stop12" />
      <stop
         offset="1"
         stop-color="#fff"
         stop-opacity=".863"
         id="stop14" />
    </linearGradient>
    <linearGradient
       id="d">
      <stop
         offset="0"
         stop-color="#b3b3b3"
         id="stop17" />
      <stop
         offset="1"
         stop-color="#e6e6e6"
         id="stop19" />
    </linearGradient>
    <linearGradient
       id="e">
      <stop
         offset="0"
         stop-color="#e694bb"
         id="stop22" />
      <stop
         offset=".262"
         stop-color="#d3819a"
         id="stop24" />
      <stop
         offset=".705"
         stop-color="#b25a64"
         id="stop26" />
      <stop
         offset="1"
         stop-color="#98313d"
         id="stop28" />
    </linearGradient>
  </defs>
  <path
     style="color:#000000;font-weight:400;line-height:normal;font-family:'Andale Mono';text-indent:0;text-align:start;text-decoration:none;text-decoration-line:none;text-transform:none;overflow:visible;fill:#1e3f5a;marker:none"
     d="m 29.705,-0.084 c -2.047,0.008 -4.121,0.088 -4.517,0.098 H 7 a 2.938,2.938 0 0 0 -0.563,0 C 5.063,0.276 3.975,1.612 4,3.012 V 45 c 0,1.57 1.43,3 3,3 h 34 c 1.57,0 3,-1.43 3,-3 V 18.818 C 44.018,18.026 44.215,8.891 43.664,8.322 l -9.61,-8.074 c -0.284,-0.275 -2.302,-0.34 -4.349,-0.332 z m 1.49,3.094 0.133,7.504 c 0.012,0.681 0.638,1.29 1.317,1.279 l 7.771,-0.137 c 0.133,0.018 0.268,0.017 0.4,-0.006 L 40.898,14.68 41,18.77 V 44.997 H 7 V 3.021 H 25.672 Z M 28.473,6.293 C 24.346,6.951 19.6,7.629 15.484,8.324 14.394,8.85 14.64,10.206 14.592,11.189 v 13.163 c -2.801,-0.642 -5.875,1.45 -5.996,4.423 -0.199,1.852 1.46,3.463 3.263,3.506 3.23,0.078 5.684,-2.042 5.72,-4.724 -0.036,-4.505 0.009,-9.011 0,-13.516 0.5,-0.037 8.318,-1.465 9,-1.56 V 22.6 c -2.584,-0.76 -5.165,0.83 -5.802,3.497 -0.47,1.544 0.24,3.369 1.772,4.002 2.99,1.36 7.196,-1.396 7.03,-4.63 -0.047,-6.006 0.037,-12.014 0,-18.02 -0.08,-0.565 -0.465,-1.198 -1.106,-1.157 z m -5.815,28.705 c -0.686,0.006 -1.357,0.619 -1.713,0.785 -0.642,-0.978 -2.29,-1.023 -2.996,-0.101 0.047,-0.357 0.03,-0.65 -0.408,-0.52 -0.247,0.075 -0.81,-0.167 -0.812,0.152 v 5.387 h 1.33 c 0.028,-1.226 -0.07,-2.46 0.08,-3.68 0.147,-1.018 1.885,-1.027 2.025,-0.005 0.11,1.223 0.03,2.457 0.055,3.685 h 1.33 c 0.026,-1.197 -0.063,-2.401 0.068,-3.592 0.106,-0.992 1.694,-1.184 2,-0.232 0.172,1.014 0.06,2.055 0.092,3.082 0.076,0.24 -0.188,0.818 0.203,0.742 h 1.127 c -0.023,-1.299 0.052,-2.602 -0.05,-3.896 -0.064,-1.04 -1.034,-1.781 -2.036,-1.77 a 1.07,1.07 0 0 0 -0.295,-0.037 z m 5.768,0.037 c -1.015,0.101 -2.001,0.763 -2.332,1.748 -0.612,1.482 0.09,3.488 1.72,3.926 0.943,0.297 2.077,0.085 2.7,-0.729 0.077,0.23 -0.19,0.807 0.205,0.721 h 1.015 v -5.539 h -1.22 c -0.002,0.452 0.095,1.044 -0.366,0.346 -0.495,-0.392 -1.113,-0.533 -1.722,-0.473 z m -20.145,0.127 1.98,5.54 c 0.26,-0.065 0.711,0.13 0.848,-0.098 l 1.041,-3.493 1.051,3.59 c 0.267,-0.062 0.71,0.126 0.865,-0.096 0.656,-1.814 1.31,-3.628 1.965,-5.443 h -1.42 l -1.01,3.379 -0.91,-3.379 h -1.06 l -0.93,3.379 -0.99,-3.379 H 8.28 Z m 20.563,1.09 c 1.182,-0.07 1.949,1.3 1.52,2.334 -0.393,1.425 -2.748,1.33 -3.073,-0.094 -0.32,-1.033 0.39,-2.292 1.553,-2.24 z"
     font-weight="400"
     overflow="visible"
     id="path33"
     inkscape:connector-curvature="0" />
</svg>
