<?xml version="1.0" encoding="UTF-8" standalone="no"?>
<svg
   xmlns:dc="http://purl.org/dc/elements/1.1/"
   xmlns:cc="http://creativecommons.org/ns#"
   xmlns:rdf="http://www.w3.org/1999/02/22-rdf-syntax-ns#"
   xmlns:svg="http://www.w3.org/2000/svg"
   xmlns="http://www.w3.org/2000/svg"
   xmlns:sodipodi="http://sodipodi.sourceforge.net/DTD/sodipodi-0.dtd"
   xmlns:inkscape="http://www.inkscape.org/namespaces/inkscape"
   width="48"
   height="48"
   version="1.1"
   id="svg4"
   sodipodi:docname="text-x-go.svg"
   inkscape:version="0.92.4 (5da689c313, 2019-01-14)">
  <metadata
     id="metadata10">
    <rdf:RDF>
      <cc:Work
         rdf:about="">
        <dc:format>image/svg+xml</dc:format>
        <dc:type
           rdf:resource="http://purl.org/dc/dcmitype/StillImage" />
        <dc:title></dc:title>
      </cc:Work>
    </rdf:RDF>
  </metadata>
  <defs
     id="defs8" />
  <sodipodi:namedview
     pagecolor="#ffffff"
     bordercolor="#666666"
     borderopacity="1"
     objecttolerance="10"
     gridtolerance="10"
     guidetolerance="10"
     inkscape:pageopacity="0"
     inkscape:pageshadow="2"
     inkscape:window-width="1138"
     inkscape:window-height="480"
     id="namedview6"
     showgrid="false"
     inkscape:zoom="4.9166667"
     inkscape:cx="2.1355932"
     inkscape:cy="24"
     inkscape:window-x="0"
     inkscape:window-y="25"
     inkscape:window-maximized="0"
     inkscape:current-layer="svg4" />
  <path
     d="m 29.705,-0.084 c -2.047,0.008 -4.121,0.088 -4.517,0.098 H 7 a 2.938,2.938 0 0 0 -0.563,0 C 5.064,0.276 3.975,1.612 4,3.012 V 45 c 0,1.57 1.43,3 3,3 h 34 c 1.57,0 3,-1.43 3,-3 V 18.818 C 44.018,18.026 44.215,8.891 43.664,8.322 l -9.61,-8.074 c -0.281,-0.275 -2.302,-0.34 -4.349,-0.332 z m 1.49,3.094 0.133,7.504 c 0.012,0.68 0.638,1.29 1.317,1.279 l 7.771,-0.137 c 0.133,0.018 0.268,0.018 0.4,-0.006 L 40.898,14.68 41,18.77 V 44.996 H 7 V 3.021 H 25.672 Z M 18.5,17 A 5.5,5.5 0 0 0 13,22.5 5.5,5.5 0 0 0 18.5,28 5.5,5.5 0 0 0 24,22.5 5.5,5.5 0 0 0 18.5,17 Z M 24,22.5 A 5.5,5.5 0 0 0 29.5,28 5.5,5.5 0 0 0 35,22.5 5.5,5.5 0 0 0 29.5,17 5.5,5.5 0 0 0 24,22.5 Z M 18.5,18.834 A 3.667,3.667 0 0 1 22.166,22.5 3.667,3.667 0 0 1 18.5,26.166 3.667,3.667 0 0 1 14.834,22.5 3.667,3.667 0 0 1 18.5,18.834 Z m 11,0 A 3.667,3.667 0 0 1 33.166,22.5 3.667,3.667 0 0 1 29.5,26.166 3.667,3.667 0 0 1 25.834,22.5 3.667,3.667 0 0 1 29.5,18.834 Z m 1.98,11.28 c -1.714,0.973 -4.505,1.55 -7.48,1.552 -2.556,-0.002 -4.996,-0.428 -6.729,-1.182 l -1.152,1.348 c 0.704,0.363 1.521,0.65 2.381,0.898 v 2.604 a 3.667,3.667 0 0 0 3.666,3.666 3.667,3.667 0 0 0 2.75,-1.246 3.667,3.667 0 0 0 2.75,1.246 3.667,3.667 0 0 0 3.668,-3.666 v -3.252 c 0.499,-0.224 0.967,-0.465 1.38,-0.734 L 31.48,30.113 Z m -1.98,2.613 v 2.609 a 1.833,1.833 0 0 1 -1.834,1.834 1.833,1.833 0 0 1 -1.832,-1.834 v -1.94 a 18.885,18.885 0 0 0 3.666,-0.67 z m -9.166,0.437 c 1.17,0.21 2.4,0.338 3.666,0.34 v 1.832 a 1.833,1.833 0 0 1 -1.834,1.834 1.833,1.833 0 0 1 -1.832,-1.834 z"
     id="path2"
     inkscape:connector-curvature="0"
     style="fill:#1e3f5a" />
</svg>
