<svg xmlns="http://www.w3.org/2000/svg" width="24" height="24" version="1"><defs><linearGradient id="b"><stop offset="0" stop-color="#262626"/><stop offset="1" stop-color="#828282"/></linearGradient><linearGradient id="c"><stop offset="0" stop-color="#f3f7fa"/><stop offset="1" stop-color="#fdfeff"/></linearGradient><linearGradient id="d"><stop offset="0"/><stop offset="1" stop-opacity="0"/></linearGradient><linearGradient id="a"><stop offset="0" stop-color="#f6b2ee"/><stop offset=".262" stop-color="#d979cd"/><stop offset=".661" stop-color="#753da6"/><stop offset="1" stop-color="#0f1027"/></linearGradient></defs><path d="M17.82 2.688a3.492 3.492 0 0 0-3.492 3.492 3.492 3.492 0 0 0 .031.43L8.6 9.488a3.492 3.492 0 0 0-2.42-.98A3.492 3.492 0 0 0 2.688 12a3.492 3.492 0 0 0 3.492 3.492 3.492 3.492 0 0 0 2.423-.979l5.755 2.879a3.492 3.492 0 0 0-.03.428 3.492 3.492 0 0 0 3.492 3.492 3.492 3.492 0 0 0 3.493-3.492 3.492 3.492 0 0 0-3.493-3.492 3.492 3.492 0 0 0-2.423.979l-5.754-2.878A3.492 3.492 0 0 0 9.672 12a3.492 3.492 0 0 0-.03-.429l5.759-2.88a3.492 3.492 0 0 0 2.42.98 3.492 3.492 0 0 0 3.491-3.491 3.492 3.492 0 0 0-3.492-3.492z" fill="gray"/></svg>