<svg xmlns="http://www.w3.org/2000/svg" width="24" height="24" version="1"><defs><linearGradient id="a"><stop offset="0"/><stop offset="1" stop-opacity="0"/></linearGradient></defs><path d="M10.069 3C6.176 3 2.99 6.181 2.99 10.071c0 3.89 3.186 7.07 7.079 7.07a7.026 7.026 0 0 0 4.006-1.252l4.737 4.733a1.286 1.286 0 1 0 1.818-1.818l-4.738-4.733a7.013 7.013 0 0 0 1.253-4c0-3.89-3.183-7.071-7.076-7.071zm0 2.572a4.482 4.482 0 0 1 4.504 4.5c0 2.499-2 4.499-4.504 4.499a4.484 4.484 0 0 1-4.508-4.5c0-2.499 2.003-4.499 4.508-4.499z" fill="gray"/></svg>