<?xml version="1.0" encoding="UTF-8" standalone="no"?>
<svg
   xmlns:dc="http://purl.org/dc/elements/1.1/"
   xmlns:cc="http://creativecommons.org/ns#"
   xmlns:rdf="http://www.w3.org/1999/02/22-rdf-syntax-ns#"
   xmlns:svg="http://www.w3.org/2000/svg"
   xmlns="http://www.w3.org/2000/svg"
   xmlns:sodipodi="http://sodipodi.sourceforge.net/DTD/sodipodi-0.dtd"
   xmlns:inkscape="http://www.inkscape.org/namespaces/inkscape"
   width="48"
   height="48"
   version="1"
   id="svg21"
   sodipodi:docname="applications-engineering.svg"
   inkscape:version="0.92.4 (5da689c313, 2019-01-14)">
  <metadata
     id="metadata25">
    <rdf:RDF>
      <cc:Work
         rdf:about="">
        <dc:format>image/svg+xml</dc:format>
        <dc:type
           rdf:resource="http://purl.org/dc/dcmitype/StillImage" />
        <dc:title></dc:title>
      </cc:Work>
    </rdf:RDF>
  </metadata>
  <sodipodi:namedview
     pagecolor="#ffffff"
     bordercolor="#666666"
     borderopacity="1"
     objecttolerance="10"
     gridtolerance="10"
     guidetolerance="10"
     inkscape:pageopacity="0"
     inkscape:pageshadow="2"
     inkscape:window-width="1087"
     inkscape:window-height="480"
     id="namedview23"
     showgrid="false"
     inkscape:zoom="4.9166667"
     inkscape:cx="2.1355932"
     inkscape:cy="24"
     inkscape:window-x="0"
     inkscape:window-y="25"
     inkscape:window-maximized="0"
     inkscape:current-layer="svg21" />
  <defs
     id="defs17">
    <linearGradient
       id="a">
      <stop
         offset="0"
         id="stop2" />
      <stop
         offset="1"
         stop-opacity="0"
         id="stop4" />
    </linearGradient>
    <linearGradient
       id="c">
      <stop
         offset="0"
         stop-color="#fff"
         id="stop7" />
      <stop
         offset="1"
         stop-color="#fff"
         stop-opacity="0"
         id="stop9" />
    </linearGradient>
    <linearGradient
       id="b">
      <stop
         offset="0"
         stop-color="#bb5e12"
         id="stop12" />
      <stop
         offset="1"
         stop-color="#cd8033"
         id="stop14" />
    </linearGradient>
  </defs>
  <path
     d="M 24,0.23 A 23.77,23.77 0 0 0 0.23,24.01 23.77,23.77 0 0 0 24,47.77 23.77,23.77 0 0 0 47.77,24 23.77,23.77 0 0 0 24,0.23 Z M 23.93,3.77 A 20.44,20.44 0 0 1 44.37,24.21 20.44,20.44 0 0 1 23.93,44.64 20.44,20.44 0 0 1 3.5,24.21 20.44,20.44 0 0 1 23.93,3.77 Z m 1.83,4.36 c -1.64,0 -8.88,1.63 -8.88,1.63 -0.7,0.4 -0.78,1.14 -0.78,2.4 h 8.85 c 0,-0.97 0.62,-0.8 1.61,-0.8 v 3.26 h -0.87 c -0.82,0 -0.8,-0.08 -0.8,-0.8 h -8.86 c 0,1.25 0.08,1.98 0.78,2.39 l 8.47,1.63 c 0.3,0.15 0.4,0.4 0.4,0.8 v 4.03 h -0.8 a 0.805,0.805 0 1 0 0,1.61 h 1.68 v 16.85 h 4.83 V 24.28 h 0.73 V 19.4 h 1.68 v 0.42 c 0,0.21 0.18,0.39 0.4,0.39 h 0.83 c 0.21,0 0.38,-0.18 0.38,-0.4 v -2.43 a 0.39,0.39 0 0 0 -0.38,-0.4 h -0.84 a 0.39,0.39 0 0 0 -0.39,0.4 v 0.41 h -1.67 v -3.17 h -0.74 v -2.44 c 0.25,0 0.52,-0.02 0.8,-0.07 v 0.85 h 4.03 c 0,-0.56 -0.74,-1.13 -1.65,-1.58 0.94,-0.45 1.65,-1.04 1.65,-1.64 H 31.39 V 8.14 H 25.76 Z M 19.07,19 v 2.49 h -0.35 a 8.39,8.39 0 0 0 0,16.76 l 0.34,-0.02 v 2.5 h 3.1 L 22.18,19 h -3.1 z m -0.35,5.6 h 0.35 v 10.55 h -0.36 a 5.2800024,5.2800024 0 0 1 0.01,-10.56 z"
     id="path19"
     inkscape:connector-curvature="0"
     style="fill:#1e3f5a" />
</svg>
