<svg xmlns="http://www.w3.org/2000/svg" width="24" height="24" version="1"><defs><linearGradient id="a"><stop offset="0"/><stop offset="1" stop-opacity="0"/></linearGradient></defs><path d="M12 .158A11.843 11.843 0 0 0 .156 12.002 11.843 11.843 0 0 0 12 23.842a11.843 11.843 0 0 0 11.844-11.84A11.843 11.843 0 0 0 12 .158zm-.68 1.783l-9.504 9.504a10.182 10.182 0 0 1 9.504-9.504zm1.496.02a10.182 10.182 0 0 1 9.291 9.291l-9.29-9.291zm-.705 3.582c.257.004.512.024.76.057 1.764.158 3.4 1.259 3.428 2.664.129 1.456-1.092 2.694-2.36 3.681-1.2.874-1.484 2.105-1.449 3.375-.409.076-.943.095-.969-.066-.031-.202.014-.372.014-.871-.003-1.311.802-2.546 1.553-3.633.75-1.087 1.273-2.203.799-2.94-.475-.736-1.614-1.342-2.754-1.068-.05.012-.38.072-.697.256-.38.22-.73.76-.649 1.04.072.244.194.508.156.804-.05.39-.355.816-1.017.816-1.132 0-1.443-1.35-1.106-2.103.582-1.356 2.494-2.045 4.291-2.012zm10.02 6.912a10.182 10.182 0 0 1-9.819 9.818l9.819-9.818zm-20.317.422l9.37 9.37a10.182 10.182 0 0 1-9.37-9.37zm10.157 4.154c.905-.012 1.608.87 1.316 1.635-.281.984-1.923 1.2-2.508.33-.655-.788.101-2.024 1.192-1.965z" fill="gray"/></svg>