<?xml version="1.0" encoding="UTF-8" standalone="no"?>
<svg
   xmlns:dc="http://purl.org/dc/elements/1.1/"
   xmlns:cc="http://creativecommons.org/ns#"
   xmlns:rdf="http://www.w3.org/1999/02/22-rdf-syntax-ns#"
   xmlns:svg="http://www.w3.org/2000/svg"
   xmlns="http://www.w3.org/2000/svg"
   xmlns:sodipodi="http://sodipodi.sourceforge.net/DTD/sodipodi-0.dtd"
   xmlns:inkscape="http://www.inkscape.org/namespaces/inkscape"
   width="48"
   height="48"
   viewBox="0 0 12.7 12.7"
   version="1.1"
   id="svg4"
   sodipodi:docname="applications-internet.svg"
   inkscape:version="0.92.4 (5da689c313, 2019-01-14)">
  <metadata
     id="metadata10">
    <rdf:RDF>
      <cc:Work
         rdf:about="">
        <dc:format>image/svg+xml</dc:format>
        <dc:type
           rdf:resource="http://purl.org/dc/dcmitype/StillImage" />
        <dc:title></dc:title>
      </cc:Work>
    </rdf:RDF>
  </metadata>
  <defs
     id="defs8" />
  <sodipodi:namedview
     pagecolor="#ffffff"
     bordercolor="#666666"
     borderopacity="1"
     objecttolerance="10"
     gridtolerance="10"
     guidetolerance="10"
     inkscape:pageopacity="0"
     inkscape:pageshadow="2"
     inkscape:window-width="1087"
     inkscape:window-height="480"
     id="namedview6"
     showgrid="false"
     inkscape:zoom="4.9166667"
     inkscape:cx="2.1355932"
     inkscape:cy="24"
     inkscape:window-x="0"
     inkscape:window-y="25"
     inkscape:window-maximized="0"
     inkscape:current-layer="svg4" />
  <path
     d="M 5.895,0.073 V 0.087 A 6.252,6.252 0 0 0 0.072,5.907 H 0.06 v 0.834 h 0.013 a 6.252,6.252 0 0 0 5.823,5.82 v 0.015 h 0.833 v -0.014 a 6.249,6.249 0 0 0 5.819,-5.821 h 0.016 V 5.907 H 12.548 A 6.249,6.249 0 0 0 6.728,0.087 V 0.073 H 6.311 Z m 0,0.887 V 3.407 H 3.85 C 4.3,2.11 5.038,1.19 5.895,0.96 Z m 0.833,0 C 7.584,1.189 8.322,2.11 8.77,3.407 H 6.728 Z M 3.973,1.436 C 3.571,1.971 3.235,2.642 2.992,3.407 H 1.742 A 5.452,5.452 0 0 1 3.973,1.436 Z m 4.676,0 a 5.452,5.452 0 0 1 2.23,1.971 H 9.63 C 9.386,2.642 9.053,1.971 8.648,1.436 Z M 1.31,4.24 H 2.774 A 9.9,9.9 0 0 0 2.569,5.907 H 0.908 a 5.372,5.372 0 0 1 0.4,-1.667 z m 2.308,0 H 5.896 V 5.907 H 3.402 A 9.319,9.319 0 0 1 3.617,4.24 Z m 3.111,0 H 9.004 C 9.122,4.76 9.196,5.32 9.222,5.907 H 6.728 Z m 3.121,0 h 1.466 c 0.216,0.52 0.354,1.08 0.398,1.667 H 10.055 A 9.897,9.897 0 0 0 9.85,4.24 Z m -8.942,2.5 h 1.66 C 2.591,7.322 2.662,7.881 2.773,8.408 H 1.308 a 5.373,5.373 0 0 1 -0.4,-1.667 z m 2.494,0 H 5.895 V 8.41 H 3.617 A 9.318,9.318 0 0 1 3.402,6.743 Z m 3.326,0 H 9.221 A 9.237,9.237 0 0 1 9.003,8.408 H 6.728 Z m 3.326,0 h 1.658 A 5.346,5.346 0 0 1 11.315,8.408 H 9.849 A 9.9,9.9 0 0 0 10.054,6.741 Z M 1.743,9.243 h 1.249 c 0.243,0.766 0.578,1.437 0.981,1.972 A 5.446,5.446 0 0 1 1.743,9.243 Z m 2.108,0 h 2.044 v 2.448 C 5.038,11.461 4.299,10.541 3.851,9.243 Z m 2.877,0 H 8.77 c -0.448,1.298 -1.186,2.218 -2.042,2.448 z m 2.903,0 h 1.247 A 5.446,5.446 0 0 1 8.649,11.215 C 9.052,10.679 9.387,10.009 9.631,9.243 Z"
     font-weight="400"
     overflow="visible"
     style="color:#000000;font-weight:400;line-height:normal;font-family:'Andale Mono';text-indent:0;text-align:start;text-decoration:none;text-decoration-line:none;text-transform:none;overflow:visible;fill:#2ca02c;marker:none"
     id="path2"
     inkscape:connector-curvature="0" />
</svg>
