<svg xmlns="http://www.w3.org/2000/svg" width="48" height="48" viewBox="0 0 12.7 12.7"><path fill="#2ca02c" d="M6.34.08A6.27 6.27 0 0 0 .08 6.34a6.27 6.27 0 0 0 6.26 6.27 6.27 6.27 0 0 0 6.27-6.27A6.27 6.27 0 0 0 6.34.08zM6.33 1A5.39 5.39 0 0 1 11.7 6.4a5.39 5.39 0 0 1-5.38 5.39 5.39 5.39 0 0 1-5.4-5.4 5.39 5.39 0 0 1 5.4-5.38zm2.92 1.42a.38.38 0 0 0-.27.11l-.57.57 1.25 1.25.57-.57a.38.38 0 0 0 0-.53l-.72-.72a.38.38 0 0 0-.26-.1zm-1.11.95L4.69 6.82l1.25 1.24L9.4 4.63zm-5.26.36a.53.53 0 0 0-.53.53v5.29c0 .3.24.53.53.53h5.29c.29 0 .53-.24.53-.53V5.78l-.82.81v2.68H3.17V4.56H6.5l.82-.82zm1.55 3.34L4.16 8.6l1.52-.27z"/></svg>
