<?xml version="1.0" encoding="UTF-8" standalone="no"?>
<svg
   xmlns:dc="http://purl.org/dc/elements/1.1/"
   xmlns:cc="http://creativecommons.org/ns#"
   xmlns:rdf="http://www.w3.org/1999/02/22-rdf-syntax-ns#"
   xmlns:svg="http://www.w3.org/2000/svg"
   xmlns="http://www.w3.org/2000/svg"
   xmlns:sodipodi="http://sodipodi.sourceforge.net/DTD/sodipodi-0.dtd"
   xmlns:inkscape="http://www.inkscape.org/namespaces/inkscape"
   width="48"
   height="48"
   viewBox="0 0 12.7 12.7"
   version="1.1"
   id="svg4"
   sodipodi:docname="applications-system.svg"
   inkscape:version="0.92.4 (5da689c313, 2019-01-14)">
  <metadata
     id="metadata10">
    <rdf:RDF>
      <cc:Work
         rdf:about="">
        <dc:format>image/svg+xml</dc:format>
        <dc:type
           rdf:resource="http://purl.org/dc/dcmitype/StillImage" />
        <dc:title></dc:title>
      </cc:Work>
    </rdf:RDF>
  </metadata>
  <defs
     id="defs8" />
  <sodipodi:namedview
     pagecolor="#ffffff"
     bordercolor="#666666"
     borderopacity="1"
     objecttolerance="10"
     gridtolerance="10"
     guidetolerance="10"
     inkscape:pageopacity="0"
     inkscape:pageshadow="2"
     inkscape:window-width="1087"
     inkscape:window-height="480"
     id="namedview6"
     showgrid="false"
     inkscape:zoom="4.9166667"
     inkscape:cx="2.1355932"
     inkscape:cy="24"
     inkscape:window-x="0"
     inkscape:window-y="25"
     inkscape:window-maximized="0"
     inkscape:current-layer="svg4" />
  <path
     d="m 6.344,0.073 a 6.29,6.29 0 0 0 -6.29,6.29 6.29,6.29 0 0 0 6.29,6.288 6.29,6.29 0 0 0 6.29,-6.289 6.29,6.29 0 0 0 -6.29,-6.29 z M 6.326,1.009 A 5.407,5.407 0 0 1 11.733,6.416 5.407,5.407 0 0 1 6.326,11.823 5.407,5.407 0 0 1 0.92,6.416 5.407,5.407 0 0 1 6.326,1.01 Z M 5.097,2.311 4.706,3.258 A 2.407,2.407 0 0 0 4.22,3.312 L 3.64,2.475 A 3.329,3.329 0 0 0 3.062,2.755 L 3.306,3.739 A 2.428,2.428 0 0 0 2.949,4.065 L 1.991,3.732 A 3.318,3.318 0 0 0 1.677,4.296 L 2.448,4.943 A 2.318,2.318 0 0 0 2.386,5.175 2.343,2.343 0 0 0 2.353,5.414 L 1.39,5.708 C 1.393,5.926 1.414,6.14 1.458,6.349 l 1.013,0.069 c 0.052,0.153 0.12,0.3 0.2,0.438 L 2.063,7.667 C 2.193,7.84 2.325,8.005 2.486,8.151 L 3.346,7.606 C 3.477,7.7 3.622,7.78 3.773,7.846 L 3.763,8.871 A 3.418,3.418 0 0 0 4.381,8.996 L 4.773,8.05 C 4.937,8.048 5.101,8.03 5.258,7.995 l 0.58,0.838 A 3.32,3.32 0 0 0 6.416,8.553 L 6.172,7.568 C 6.301,7.472 6.422,7.363 6.529,7.243 L 7.487,7.575 A 3.318,3.318 0 0 0 7.797,7.02 L 7.98,7.405 A 1.417,1.417 0 0 0 7.814,7.633 L 7.227,7.554 A 1.936,1.936 0 0 0 7.114,7.913 l 0.516,0.28 a 1.352,1.352 0 0 0 -0.008,0.14 c 0,0.048 0.003,0.093 0.008,0.14 l -0.516,0.28 c 0.027,0.125 0.064,0.245 0.113,0.36 L 7.814,9.033 C 7.862,9.114 7.918,9.191 7.98,9.26 L 7.727,9.795 c 0.094,0.083 0.188,0.163 0.297,0.227 l 0.43,-0.411 c 0.085,0.038 0.177,0.067 0.27,0.088 l 0.114,0.586 a 1.994,1.994 0 0 0 0.368,0 L 9.32,9.698 C 9.413,9.678 9.506,9.648 9.591,9.61 l 0.43,0.412 C 10.129,9.958 10.224,9.878 10.318,9.794 L 10.064,9.26 A 1.43,1.43 0 0 0 10.23,9.033 l 0.586,0.079 a 1.936,1.936 0 0 0 0.115,-0.36 l -0.517,-0.28 c 0.005,-0.046 0.009,-0.09 0.009,-0.14 0,-0.048 -0.004,-0.092 -0.01,-0.14 l 0.518,-0.28 A 1.935,1.935 0 0 0 10.816,7.554 L 10.23,7.633 A 1.417,1.417 0 0 0 10.064,7.405 L 10.318,6.871 A 1.947,1.947 0 0 0 10.02,6.644 L 9.59,7.054 A 1.405,1.405 0 0 0 9.32,6.968 L 9.206,6.38 A 1.994,1.994 0 0 0 9.022,6.373 C 8.961,6.373 8.899,6.375 8.838,6.38 L 8.725,6.967 A 1.404,1.404 0 0 0 8.453,7.054 L 8.024,6.644 A 1.945,1.945 0 0 0 7.727,6.871 L 7.788,7.001 7.03,6.364 C 7.054,6.287 7.076,6.214 7.092,6.132 7.109,6.05 7.117,5.974 7.125,5.894 L 8.09,5.6 A 3.317,3.317 0 0 0 8.02,4.958 L 7.009,4.89 A 2.428,2.428 0 0 0 6.807,4.45 L 7.417,3.64 A 3.35,3.35 0 0 0 6.994,3.156 L 6.132,3.701 A 2.408,2.408 0 0 0 5.706,3.461 L 5.715,2.437 A 3.418,3.418 0 0 0 5.41,2.36 C 5.306,2.339 5.2,2.327 5.098,2.311 Z M 4.68,4.215 A 1.44,1.44 0 0 1 5.026,4.242 1.4408723,1.4408723 0 1 1 4.452,7.066 1.44,1.44 0 0 1 4.68,4.215 Z m 4.342,3.278 a 0.84,0.84 0 1 1 0,1.68 0.84,0.84 0 0 1 0,-1.68 z"
     id="path2"
     inkscape:connector-curvature="0"
     style="fill:#2ca02c" />
</svg>
