<?xml version="1.0" encoding="UTF-8" standalone="no"?>
<svg
   xmlns:dc="http://purl.org/dc/elements/1.1/"
   xmlns:cc="http://creativecommons.org/ns#"
   xmlns:rdf="http://www.w3.org/1999/02/22-rdf-syntax-ns#"
   xmlns:svg="http://www.w3.org/2000/svg"
   xmlns="http://www.w3.org/2000/svg"
   xmlns:sodipodi="http://sodipodi.sourceforge.net/DTD/sodipodi-0.dtd"
   xmlns:inkscape="http://www.inkscape.org/namespaces/inkscape"
   width="48"
   height="48"
   viewBox="0 0 12.7 12.7"
   version="1.1"
   id="svg4"
   sodipodi:docname="black.svg"
   inkscape:version="0.92.4 (5da689c313, 2019-01-14)">
  <metadata
     id="metadata10">
    <rdf:RDF>
      <cc:Work
         rdf:about="">
        <dc:format>image/svg+xml</dc:format>
        <dc:type
           rdf:resource="http://purl.org/dc/dcmitype/StillImage" />
        <dc:title></dc:title>
      </cc:Work>
    </rdf:RDF>
  </metadata>
  <defs
     id="defs8" />
  <sodipodi:namedview
     pagecolor="#ffffff"
     bordercolor="#666666"
     borderopacity="1"
     objecttolerance="10"
     gridtolerance="10"
     guidetolerance="10"
     inkscape:pageopacity="0"
     inkscape:pageshadow="2"
     inkscape:window-width="1366"
     inkscape:window-height="711"
     id="namedview6"
     showgrid="false"
     inkscape:zoom="10.729167"
     inkscape:cx="24"
     inkscape:cy="24"
     inkscape:window-x="0"
     inkscape:window-y="25"
     inkscape:window-maximized="1"
     inkscape:current-layer="svg4" />
  <path
     style="stroke-width:3.77952766;fill:#1a1a1a"
     d="M 24 0.2265625 A 23.773228 23.773228 0 0 0 0.2265625 24.037109 A 23.773228 23.773228 0 0 0 24.037109 47.773438 A 23.773228 23.773228 0 0 0 47.773438 24 A 23.773228 23.773228 0 0 0 24 0.2265625 z M 23.923828 3.7421875 L 23.962891 3.7792969 A 20.409449 20.409449 0 0 1 44.371094 24.189453 A 20.409449 20.409449 0 0 1 23.962891 44.636719 A 20.409449 20.409449 0 0 1 3.515625 24.226562 A 20.409449 20.409449 0 0 1 23.923828 3.7421875 z "
     transform="scale(0.26458333)"
     id="path823" />
  <path
     style="opacity:1;fill:#1a1a1a;fill-opacity:1;fill-rule:evenodd;stroke:none;stroke-width:2.99499989;stroke-miterlimit:4;stroke-dasharray:none;stroke-opacity:1"
     d="M 3.2148438 12.535156 L 3.2148438 35.464844 L 44.785156 35.464844 L 44.785156 12.535156 L 3.2148438 12.535156 z M 30.814453 15.970703 C 31.202251 15.970703 31.574867 16.068217 31.931641 16.261719 C 32.288414 16.45522 32.632085 16.741002 32.960938 17.121094 L 32.960938 20.326172 C 32.628983 19.821686 32.301163 19.451763 31.978516 19.216797 C 31.655868 18.981831 31.315758 18.863281 30.958984 18.863281 C 30.319894 18.863281 29.817253 19.320201 29.451172 20.232422 C 29.085091 21.144643 28.902344 22.402562 28.902344 24.005859 C 28.902344 25.602246 29.085091 26.855357 29.451172 27.767578 C 29.817253 28.679799 30.319894 29.136719 30.958984 29.136719 C 31.315758 29.136719 31.655868 29.018169 31.978516 28.783203 C 32.301163 28.548237 32.628983 28.178314 32.960938 27.673828 L 32.960938 30.878906 C 32.632085 31.258998 32.288414 31.54478 31.931641 31.738281 C 31.574867 31.931783 31.202251 32.029297 30.814453 32.029297 C 29.657265 32.029297 28.740772 31.310486 28.064453 29.873047 C 27.388134 28.428697 27.050781 26.473002 27.050781 24.005859 C 27.050781 21.531806 27.388134 19.576111 28.064453 18.138672 C 28.740772 16.694322 29.657265 15.970703 30.814453 15.970703 z M 6.7519531 16.251953 L 9.4414062 16.251953 C 10.406247 16.251953 11.103925 16.576951 11.535156 17.226562 C 11.96949 17.876174 12.1875 18.915175 12.1875 20.345703 C 12.1875 21.098976 12.10744 21.741309 11.949219 22.273438 C 11.790997 22.798655 11.56265 23.189614 11.261719 23.445312 C 11.646414 23.6941 11.943335 24.153875 12.154297 24.824219 C 12.365259 25.494563 12.470703 26.316598 12.470703 27.291016 C 12.470703 28.78374 12.243963 29.896365 11.791016 30.628906 C 11.338068 31.361447 10.649119 31.728516 9.7246094 31.728516 L 6.7519531 31.728516 L 6.7519531 16.251953 z M 14.011719 16.251953 L 15.802734 16.251953 L 15.802734 28.710938 L 18.949219 28.710938 L 18.949219 31.728516 L 14.011719 31.728516 L 14.011719 16.251953 z M 21.824219 16.251953 L 23.960938 16.251953 L 26.533203 31.728516 L 24.732422 31.728516 L 24.294922 28.908203 L 21.494141 28.908203 L 21.052734 31.728516 L 19.251953 31.728516 L 21.824219 16.251953 z M 34.449219 16.251953 L 36.242188 16.251953 L 36.242188 21.900391 L 38.824219 16.251953 L 40.904297 16.251953 L 37.558594 23.580078 L 41.248047 31.728516 L 39.005859 31.728516 L 36.242188 25.632812 L 36.242188 31.728516 L 34.449219 31.728516 L 34.449219 16.251953 z M 8.5429688 18.966797 L 8.5429688 22.242188 L 9.5351562 22.242188 C 9.8174729 22.242188 10.029969 22.104556 10.175781 21.828125 C 10.321593 21.551694 10.394531 21.144508 10.394531 20.605469 C 10.394531 20.07334 10.321593 19.669009 10.175781 19.392578 C 10.029969 19.109237 9.8174729 18.966797 9.5351562 18.966797 L 8.5429688 18.966797 z M 22.894531 19.878906 L 21.941406 26.037109 L 23.84375 26.037109 L 22.894531 19.878906 z M 8.5429688 24.958984 L 8.5429688 29.011719 L 9.5957031 29.011719 C 9.9555793 29.011719 10.224359 28.842534 10.404297 28.503906 C 10.587337 28.165279 10.679688 27.654869 10.679688 26.970703 C 10.679688 26.300359 10.590094 25.798513 10.410156 25.466797 C 10.230218 25.12817 9.9586817 24.958984 9.5957031 24.958984 L 8.5429688 24.958984 z "
     transform="scale(0.26458333)"
     id="rect828" />
</svg>
