<svg xmlns="http://www.w3.org/2000/svg" width="48" height="48" viewBox="0 0 12.7 12.7"><path d="M6.35.06a6.29 6.29 0 0 0-6.29 6.3 6.29 6.29 0 0 0 6.3 6.28 6.29 6.29 0 0 0 6.28-6.29A6.29 6.29 0 0 0 6.35.06zm-.02.93l.01.01a5.4 5.4 0 0 1 4.425 2.317H1.893A5.4 5.4 0 0 1 6.33.99zM1.795 4.263h.954c.343 0 .59.086.743.258.154.172.231.446.231.825 0 .2-.028.37-.084.51a.632.632 0 0 1-.244.31c.136.066.242.188.317.365.075.177.112.395.112.653 0 .394-.08.689-.24.883-.161.194-.406.29-.734.29H1.795V4.264zm2.576 0h.635V7.56h1.117v.798H4.371V4.263zm2.034 0h.636v2.454c0 .339.033.581.1.728.066.144.175.216.326.216.152 0 .261-.072.327-.216.068-.147.101-.39.101-.728V4.263h.636v2.454c0 .58-.088 1.012-.263 1.295-.175.283-.442.425-.8.425-.359 0-.625-.142-.8-.425-.175-.283-.263-.715-.263-1.295V4.263zm2.748 0h1.716v.798H9.79v.762h1.016v.798H9.789v.939h1.116v.798H9.153V4.263zm-6.723.719v.866h.352c.1 0 .176-.037.228-.11.052-.073.078-.18.078-.323a.554.554 0 0 0-.078-.321.259.259 0 0 0-.228-.112H2.43zm0 1.585v1.072h.373c.128 0 .224-.045.288-.135.065-.09.097-.224.097-.405 0-.178-.032-.31-.096-.398-.064-.09-.16-.134-.289-.134H2.43zm-.605 2.816h9.019A5.4 5.4 0 0 1 6.34 11.81a5.4 5.4 0 0 1-4.515-2.427z" fill="#2c89a0"/></svg>