<?xml version="1.0" encoding="UTF-8" standalone="no"?>
<svg
   xmlns:dc="http://purl.org/dc/elements/1.1/"
   xmlns:cc="http://creativecommons.org/ns#"
   xmlns:rdf="http://www.w3.org/1999/02/22-rdf-syntax-ns#"
   xmlns:svg="http://www.w3.org/2000/svg"
   xmlns="http://www.w3.org/2000/svg"
   xmlns:sodipodi="http://sodipodi.sourceforge.net/DTD/sodipodi-0.dtd"
   xmlns:inkscape="http://www.inkscape.org/namespaces/inkscape"
   width="48"
   height="48"
   viewBox="0 0 12.7 12.7"
   version="1.1"
   id="svg4"
   sodipodi:docname="green.svg"
   inkscape:version="0.92.4 (5da689c313, 2019-01-14)">
  <metadata
     id="metadata10">
    <rdf:RDF>
      <cc:Work
         rdf:about="">
        <dc:format>image/svg+xml</dc:format>
        <dc:type
           rdf:resource="http://purl.org/dc/dcmitype/StillImage" />
        <dc:title></dc:title>
      </cc:Work>
    </rdf:RDF>
  </metadata>
  <defs
     id="defs8" />
  <sodipodi:namedview
     pagecolor="#ffffff"
     bordercolor="#666666"
     borderopacity="1"
     objecttolerance="10"
     gridtolerance="10"
     guidetolerance="10"
     inkscape:pageopacity="0"
     inkscape:pageshadow="2"
     inkscape:window-width="1366"
     inkscape:window-height="711"
     id="namedview6"
     showgrid="false"
     inkscape:zoom="10.729167"
     inkscape:cx="24"
     inkscape:cy="24"
     inkscape:window-x="0"
     inkscape:window-y="25"
     inkscape:window-maximized="1"
     inkscape:current-layer="svg4" />
  <path
     style="stroke-width:3.77952766;fill:#2ca02c;fill-opacity:1"
     d="M 24 0.2265625 A 23.773228 23.773228 0 0 0 0.2265625 24.037109 A 23.773228 23.773228 0 0 0 24.037109 47.773438 A 23.773228 23.773228 0 0 0 47.773438 24 A 23.773228 23.773228 0 0 0 24 0.2265625 z M 23.923828 3.7421875 L 23.962891 3.7792969 A 20.409449 20.409449 0 0 1 40.6875 12.535156 L 7.15625 12.535156 A 20.409449 20.409449 0 0 1 23.923828 3.7421875 z M 9.2851562 15.970703 C 9.7811042 15.970703 10.254354 16.068217 10.707031 16.261719 C 11.163037 16.45522 11.593344 16.741002 11.996094 17.121094 L 11.996094 20.326172 C 11.58003 19.835508 11.164688 19.468439 10.751953 19.226562 C 10.342546 18.984686 9.9322664 18.863281 9.5195312 18.863281 C 8.7539741 18.863281 8.1621574 19.309684 7.7460938 20.201172 C 7.3333586 21.085749 7.1269531 22.354188 7.1269531 24.005859 C 7.1269531 25.64371 7.3271414 26.90734 7.7265625 27.798828 C 8.1259836 28.690316 8.6940869 29.136719 9.4296875 29.136719 C 9.6293981 29.136719 9.814621 29.112828 9.984375 29.064453 C 10.157457 29.009167 10.310797 28.925025 10.447266 28.814453 L 10.447266 25.808594 L 9.2753906 25.808594 L 9.2753906 23.134766 L 12.269531 23.134766 L 12.269531 30.578125 C 11.790226 31.061878 11.293263 31.424139 10.777344 31.666016 C 10.261425 31.907892 9.7288916 32.029297 9.1796875 32.029297 C 7.9381534 32.029297 6.9541307 31.310485 6.2285156 29.873047 C 5.5029005 28.428698 5.140625 26.473001 5.140625 24.005859 C 5.140625 21.511075 5.5110709 19.547715 6.25 18.117188 C 6.9889291 16.68666 8.0003516 15.970703 9.2851562 15.970703 z M 13.957031 16.251953 L 16.894531 16.251953 C 17.876442 16.251953 18.594775 16.593178 19.050781 17.277344 C 19.510116 17.961509 19.740234 19.042582 19.740234 20.521484 C 19.740234 21.544277 19.620512 22.384493 19.380859 23.041016 C 19.144535 23.697538 18.785946 24.181203 18.306641 24.492188 C 18.569593 24.616581 18.803398 24.899508 19.009766 25.341797 C 19.219462 25.777175 19.431507 26.440543 19.644531 27.332031 L 20.6875 31.728516 L 18.640625 31.728516 L 17.732422 27.882812 C 17.549354 27.108807 17.363553 26.580216 17.173828 26.296875 C 16.987432 26.013534 16.736708 25.871094 16.423828 25.871094 L 15.880859 25.871094 L 15.880859 31.728516 L 13.957031 31.728516 L 13.957031 16.251953 z M 21.826172 16.251953 L 27.013672 16.251953 L 27.013672 19.267578 L 23.748047 19.267578 L 23.748047 22.150391 L 26.818359 22.150391 L 26.818359 25.166016 L 23.748047 25.166016 L 23.748047 28.710938 L 27.123047 28.710938 L 27.123047 31.728516 L 21.826172 31.728516 L 21.826172 16.251953 z M 28.816406 16.251953 L 34.003906 16.251953 L 34.003906 19.267578 L 30.738281 19.267578 L 30.738281 22.150391 L 33.808594 22.150391 L 33.808594 25.166016 L 30.738281 25.166016 L 30.738281 28.710938 L 34.113281 28.710938 L 34.113281 31.728516 L 28.816406 31.728516 L 28.816406 16.251953 z M 35.806641 16.251953 L 37.953125 16.251953 L 40.664062 26.867188 L 40.664062 16.251953 L 42.486328 16.251953 L 42.486328 31.728516 L 40.339844 31.728516 L 37.628906 21.113281 L 37.628906 31.728516 L 35.806641 31.728516 L 35.806641 16.251953 z M 15.880859 19.142578 L 15.880859 23.113281 L 16.689453 23.113281 C 17.092203 23.113281 17.379652 22.957469 17.552734 22.646484 C 17.729145 22.3355 17.816406 21.82509 17.816406 21.113281 C 17.816406 20.408384 17.729145 19.903683 17.552734 19.599609 C 17.379652 19.295536 17.092203 19.142578 16.689453 19.142578 L 15.880859 19.142578 z M 6.8984375 35.464844 L 40.984375 35.464844 A 20.409449 20.409449 0 0 1 23.962891 44.636719 A 20.409449 20.409449 0 0 1 6.8984375 35.464844 z "
     transform="scale(0.26458333)"
     id="path823" />
</svg>
