<svg xmlns="http://www.w3.org/2000/svg" width="48" height="48" viewBox="0 0 12.7 12.7"><path d="M6.35.06a6.29 6.29 0 0 0-6.29 6.3 6.29 6.29 0 0 0 6.3 6.28 6.29 6.29 0 0 0 6.28-6.29A6.29 6.29 0 0 0 6.35.06zm-.02.93l.01.01a5.4 5.4 0 0 1 4.425 2.317H1.893A5.4 5.4 0 0 1 6.33.99zM2.457 4.226c.13 0 .256.025.376.077.12.05.234.126.341.227v.848c-.11-.13-.22-.227-.33-.291a.636.636 0 0 0-.325-.096c-.203 0-.36.118-.47.354-.109.234-.163.57-.163 1.007 0 .433.053.767.158 1.003.106.236.256.354.45.354a.534.534 0 0 0 .148-.019.373.373 0 0 0 .122-.066v-.795h-.31V6.12h.792v1.97a1.394 1.394 0 0 1-.394.287.985.985 0 0 1-.423.096c-.329 0-.59-.19-.781-.57-.192-.382-.288-.9-.288-1.552 0-.66.098-1.18.294-1.558.195-.379.463-.568.803-.568zm1.236.074h.777c.26 0 .45.09.57.271.122.181.183.467.183.859 0 .27-.032.493-.095.666a.735.735 0 0 1-.284.384c.07.033.131.108.186.225.055.115.111.29.168.527l.276 1.163h-.542l-.24-1.018c-.049-.204-.098-.344-.148-.42a.228.228 0 0 0-.199-.112h-.143v1.55h-.51V4.3zm2.082 0h1.372v.798h-.864v.763h.813v.798h-.813v.937h.893v.799H5.775V4.3zm1.85 0h1.372v.798h-.864v.763h.812v.798h-.812v.937h.893v.799H7.624V4.3zm1.849 0h.568l.717 2.809V4.3h.482v4.095h-.568l-.717-2.809v2.809h-.482V4.3zm-5.272.765v1.05h.214c.106 0 .182-.04.228-.123.047-.082.07-.217.07-.406 0-.186-.023-.32-.07-.4-.046-.08-.122-.121-.228-.121h-.214zM1.825 9.383h9.019A5.4 5.4 0 0 1 6.34 11.81a5.4 5.4 0 0 1-4.515-2.427z" fill="#2ca02c"/></svg>