<svg xmlns="http://www.w3.org/2000/svg" width="48" height="48" viewBox="0 0 12.7 12.7"><path d="M6.35.06a6.29 6.29 0 0 0-6.29 6.3 6.29 6.29 0 0 0 6.3 6.28 6.29 6.29 0 0 0 6.28-6.29A6.29 6.29 0 0 0 6.35.06zm-.02.93l.01.01a5.4 5.4 0 0 1 4.425 2.317H1.893A5.4 5.4 0 0 1 6.33.99zM2.81 4.226c.136 0 .267.025.392.077a1.3 1.3 0 0 1 .361.227v.848a1.31 1.31 0 0 0-.345-.294.733.733 0 0 0-.357-.093c-.225 0-.401.12-.53.362-.128.242-.193.574-.193.999 0 .422.065.753.193.995.129.241.305.362.53.362a.733.733 0 0 0 .357-.093 1.31 1.31 0 0 0 .345-.294v.848a1.3 1.3 0 0 1-.361.227 1.025 1.025 0 0 1-.392.077c-.406 0-.728-.19-.966-.57-.237-.382-.356-.9-.356-1.552 0-.655.119-1.172.356-1.553.238-.382.56-.573.966-.573zm.936.074h.688l.556 1.459.555-1.459h.69l-.93 2.37v1.725h-.629V6.669L3.746 4.3zm3.058 0h.75l.903 4.095h-.632l-.154-.746h-.984l-.155.746H5.9L6.804 4.3zm1.975 0h.703l.887 2.809V4.3h.596v4.095h-.702l-.887-2.809v2.809h-.597V4.3zm-1.6.96l-.334 1.629h.668l-.334-1.63zM1.825 9.383h9.019A5.4 5.4 0 0 1 6.34 11.81a5.4 5.4 0 0 1-4.515-2.427z" fill="#5beedc"/></svg>