<?xml version="1.0" encoding="UTF-8" standalone="no"?>
<svg
   xmlns:dc="http://purl.org/dc/elements/1.1/"
   xmlns:cc="http://creativecommons.org/ns#"
   xmlns:rdf="http://www.w3.org/1999/02/22-rdf-syntax-ns#"
   xmlns:svg="http://www.w3.org/2000/svg"
   xmlns="http://www.w3.org/2000/svg"
   xmlns:sodipodi="http://sodipodi.sourceforge.net/DTD/sodipodi-0.dtd"
   xmlns:inkscape="http://www.inkscape.org/namespaces/inkscape"
   width="48"
   height="48"
   viewBox="0 0 12.7 12.7"
   version="1.1"
   id="svg4"
   sodipodi:docname="cyan.svg"
   inkscape:version="0.92.4 (5da689c313, 2019-01-14)">
  <metadata
     id="metadata10">
    <rdf:RDF>
      <cc:Work
         rdf:about="">
        <dc:format>image/svg+xml</dc:format>
        <dc:type
           rdf:resource="http://purl.org/dc/dcmitype/StillImage" />
        <dc:title></dc:title>
      </cc:Work>
    </rdf:RDF>
  </metadata>
  <defs
     id="defs8" />
  <sodipodi:namedview
     pagecolor="#ffffff"
     bordercolor="#666666"
     borderopacity="1"
     objecttolerance="10"
     gridtolerance="10"
     guidetolerance="10"
     inkscape:pageopacity="0"
     inkscape:pageshadow="2"
     inkscape:window-width="1366"
     inkscape:window-height="711"
     id="namedview6"
     showgrid="false"
     inkscape:zoom="10.729167"
     inkscape:cx="24"
     inkscape:cy="24"
     inkscape:window-x="0"
     inkscape:window-y="25"
     inkscape:window-maximized="1"
     inkscape:current-layer="svg4" />
  <path
     style="stroke-width:3.77952766;fill:#5beedc;fill-opacity:1"
     d="M 24 0.2265625 A 23.773228 23.773228 0 0 0 0.2265625 24.037109 A 23.773228 23.773228 0 0 0 24.037109 47.773438 A 23.773228 23.773228 0 0 0 47.773438 24 A 23.773228 23.773228 0 0 0 24 0.2265625 z M 23.923828 3.7421875 L 23.962891 3.7792969 A 20.409449 20.409449 0 0 1 40.6875 12.535156 L 7.15625 12.535156 A 20.409449 20.409449 0 0 1 23.923828 3.7421875 z M 10.621094 15.970703 C 11.135751 15.970703 11.628078 16.068217 12.101562 16.261719 C 12.575047 16.45522 13.030368 16.741002 13.466797 17.121094 L 13.466797 20.326172 C 13.02625 19.821686 12.592257 19.451763 12.164062 19.216797 C 11.735868 18.981831 11.285985 18.863281 10.8125 18.863281 C 9.9643451 18.863281 9.2963832 19.320201 8.8105469 20.232422 C 8.3247106 21.144642 8.0820312 22.402563 8.0820312 24.005859 C 8.0820312 25.602245 8.3247106 26.855358 8.8105469 27.767578 C 9.2963832 28.679799 9.9643451 29.136719 10.8125 29.136719 C 11.285985 29.136719 11.735868 29.018169 12.164062 28.783203 C 12.592257 28.548237 13.02625 28.178314 13.466797 27.673828 L 13.466797 30.878906 C 13.030368 31.258998 12.575047 31.54478 12.101562 31.738281 C 11.628078 31.931783 11.135751 32.029297 10.621094 32.029297 C 9.0853569 32.029297 7.8682651 31.310485 6.9707031 29.873047 C 6.0731411 28.428698 5.6230469 26.473001 5.6230469 24.005859 C 5.6230469 21.531807 6.0731411 19.57611 6.9707031 18.138672 C 7.8682651 16.694323 9.0853569 15.970703 10.621094 15.970703 z M 14.158203 16.251953 L 16.759766 16.251953 L 18.859375 21.765625 L 20.958984 16.251953 L 23.564453 16.251953 L 20.050781 25.207031 L 20.050781 31.728516 L 17.673828 31.728516 L 17.673828 25.207031 L 14.158203 16.251953 z M 25.714844 16.251953 L 28.548828 16.251953 L 31.964844 31.728516 L 29.574219 31.728516 L 28.994141 28.908203 L 25.275391 28.908203 L 24.689453 31.728516 L 22.298828 31.728516 L 25.714844 16.251953 z M 33.181641 16.251953 L 35.835938 16.251953 L 39.189453 26.867188 L 39.189453 16.251953 L 41.443359 16.251953 L 41.443359 31.728516 L 38.789062 31.728516 L 35.435547 21.113281 L 35.435547 31.728516 L 33.181641 31.728516 L 33.181641 16.251953 z M 27.134766 19.878906 L 25.869141 26.037109 L 28.394531 26.037109 L 27.134766 19.878906 z M 6.8984375 35.464844 L 40.984375 35.464844 A 20.409449 20.409449 0 0 1 23.962891 44.636719 A 20.409449 20.409449 0 0 1 6.8984375 35.464844 z "
     transform="scale(0.26458333)"
     id="path823" />
</svg>
