<?xml version="1.0" encoding="UTF-8" standalone="no"?>
<svg
   xmlns:dc="http://purl.org/dc/elements/1.1/"
   xmlns:cc="http://creativecommons.org/ns#"
   xmlns:rdf="http://www.w3.org/1999/02/22-rdf-syntax-ns#"
   xmlns:svg="http://www.w3.org/2000/svg"
   xmlns="http://www.w3.org/2000/svg"
   xmlns:sodipodi="http://sodipodi.sourceforge.net/DTD/sodipodi-0.dtd"
   xmlns:inkscape="http://www.inkscape.org/namespaces/inkscape"
   width="48"
   height="48"
   viewBox="0 0 12.7 12.7"
   version="1.1"
   id="svg4"
   sodipodi:docname="purple.svg"
   inkscape:version="0.92.4 (5da689c313, 2019-01-14)">
  <metadata
     id="metadata10">
    <rdf:RDF>
      <cc:Work
         rdf:about="">
        <dc:format>image/svg+xml</dc:format>
        <dc:type
           rdf:resource="http://purl.org/dc/dcmitype/StillImage" />
        <dc:title></dc:title>
      </cc:Work>
    </rdf:RDF>
  </metadata>
  <defs
     id="defs8" />
  <sodipodi:namedview
     pagecolor="#ffffff"
     bordercolor="#666666"
     borderopacity="1"
     objecttolerance="10"
     gridtolerance="10"
     guidetolerance="10"
     inkscape:pageopacity="0"
     inkscape:pageshadow="2"
     inkscape:window-width="1366"
     inkscape:window-height="711"
     id="namedview6"
     showgrid="false"
     inkscape:zoom="10.729167"
     inkscape:cx="24"
     inkscape:cy="24"
     inkscape:window-x="0"
     inkscape:window-y="25"
     inkscape:window-maximized="1"
     inkscape:current-layer="svg4" />
  <path
     style="stroke-width:3.77952766;fill:#963996;fill-opacity:1"
     d="M 24 0.2265625 A 23.773228 23.773228 0 0 0 0.2265625 24.037109 A 23.773228 23.773228 0 0 0 24.037109 47.773438 A 23.773228 23.773228 0 0 0 47.773438 24 A 23.773228 23.773228 0 0 0 24 0.2265625 z M 23.923828 3.7421875 L 23.962891 3.7792969 A 20.409449 20.409449 0 0 1 40.6875 12.535156 L 7.15625 12.535156 A 20.409449 20.409449 0 0 1 23.923828 3.7421875 z M 4.8945312 16.111328 L 7.7324219 16.111328 C 8.5760912 16.111328 9.2238712 16.550068 9.6738281 17.427734 C 10.126745 18.29849 10.351562 19.543038 10.351562 21.160156 C 10.351562 22.784185 10.126745 24.034443 9.6738281 24.912109 C 9.2238712 25.782865 8.5760912 26.21875 7.7324219 26.21875 L 6.6054688 26.21875 L 6.6054688 31.587891 L 4.8945312 31.587891 L 4.8945312 16.111328 z M 11.556641 16.111328 L 13.265625 16.111328 L 13.265625 25.388672 C 13.265625 26.667163 13.353635 27.583858 13.53125 28.136719 C 13.711825 28.682669 14.004603 28.955078 14.410156 28.955078 C 14.81867 28.955078 15.113401 28.682669 15.291016 28.136719 C 15.47159 27.583858 15.560547 26.667163 15.560547 25.388672 L 15.560547 16.111328 L 17.271484 16.111328 L 17.271484 25.388672 C 17.271484 27.579383 17.035132 29.210082 16.564453 30.28125 C 16.093774 31.352418 15.375196 31.888672 14.410156 31.888672 C 13.448077 31.888672 12.732397 31.352418 12.261719 30.28125 C 11.79104 29.210082 11.556641 27.579383 11.556641 25.388672 L 11.556641 16.111328 z M 18.945312 16.111328 L 21.554688 16.111328 C 22.427959 16.111328 23.069056 16.452553 23.474609 17.136719 C 23.883123 17.820884 24.085938 18.90391 24.085938 20.382812 C 24.085938 21.405605 23.980716 22.243868 23.767578 22.900391 C 23.557401 23.556913 23.238775 24.040578 22.8125 24.351562 C 23.046359 24.475956 23.253965 24.760836 23.4375 25.203125 C 23.623995 25.638503 23.812498 26.301871 24.001953 27.193359 L 24.929688 31.587891 L 23.109375 31.587891 L 22.300781 27.742188 C 22.137968 26.968182 21.973421 26.439591 21.804688 26.15625 C 21.638914 25.872909 21.416935 25.730469 21.138672 25.730469 L 20.654297 25.730469 L 20.654297 31.587891 L 18.945312 31.587891 L 18.945312 16.111328 z M 25.943359 16.111328 L 28.779297 16.111328 C 29.622966 16.111328 30.270746 16.550068 30.720703 17.427734 C 31.17362 18.29849 31.400391 19.543038 31.400391 21.160156 C 31.400391 22.784185 31.17362 24.034443 30.720703 24.912109 C 30.270746 25.782865 29.622966 26.21875 28.779297 26.21875 L 27.652344 26.21875 L 27.652344 31.587891 L 25.943359 31.587891 L 25.943359 16.111328 z M 32.603516 16.111328 L 34.3125 16.111328 L 34.3125 28.572266 L 37.314453 28.572266 L 37.314453 31.587891 L 32.603516 31.587891 L 32.603516 16.111328 z M 38.392578 16.111328 L 43.007812 16.111328 L 43.007812 19.126953 L 40.103516 19.126953 L 40.103516 22.009766 L 42.833984 22.009766 L 42.833984 25.025391 L 40.103516 25.025391 L 40.103516 28.572266 L 43.105469 28.572266 L 43.105469 31.587891 L 38.392578 31.587891 L 38.392578 16.111328 z M 6.6054688 19.003906 L 6.6054688 23.326172 L 7.5507812 23.326172 C 7.8823285 23.326172 8.1377845 23.138806 8.3183594 22.765625 C 8.4989342 22.385533 8.5898437 21.851232 8.5898438 21.160156 C 8.5898438 20.46908 8.4989342 19.935681 8.3183594 19.5625 C 8.1377845 19.189319 7.8823285 19.003906 7.5507812 19.003906 L 6.6054688 19.003906 z M 20.654297 19.003906 L 20.654297 22.974609 L 21.373047 22.974609 C 21.731236 22.974609 21.988645 22.818797 22.142578 22.507812 C 22.299471 22.196828 22.376953 21.684465 22.376953 20.972656 C 22.376953 20.267759 22.299471 19.763058 22.142578 19.458984 C 21.988645 19.154911 21.731236 19.003906 21.373047 19.003906 L 20.654297 19.003906 z M 27.652344 19.003906 L 27.652344 23.326172 L 28.597656 23.326172 C 28.929203 23.326172 29.18466 23.138806 29.365234 22.765625 C 29.545809 22.385533 29.636719 21.851232 29.636719 21.160156 C 29.636719 20.46908 29.545809 19.935681 29.365234 19.5625 C 29.18466 19.189319 28.929203 19.003906 28.597656 19.003906 L 27.652344 19.003906 z M 6.8984375 35.464844 L 40.984375 35.464844 A 20.409449 20.409449 0 0 1 23.962891 44.636719 A 20.409449 20.409449 0 0 1 6.8984375 35.464844 z "
     transform="scale(0.26458333)"
     id="path823" />
</svg>
