<svg xmlns="http://www.w3.org/2000/svg" width="48" height="48" viewBox="0 0 12.7 12.7"><path d="M6.35.06a6.29 6.29 0 0 0-6.29 6.3 6.29 6.29 0 0 0 6.3 6.28 6.29 6.29 0 0 0 6.28-6.29A6.29 6.29 0 0 0 6.35.06zm-.02.93l.01.01a5.4 5.4 0 0 1 4.425 2.317H1.893A5.4 5.4 0 0 1 6.33.99zM1.295 4.263h.75c.224 0 .395.116.515.348.12.23.179.56.179.988 0 .43-.06.76-.18.992-.119.23-.29.346-.513.346h-.298v1.42h-.453V4.264zm1.763 0h.452v2.454c0 .339.023.581.07.728.048.144.125.216.233.216.108 0 .186-.072.233-.216.048-.147.071-.39.071-.728V4.263h.453v2.454c0 .58-.063 1.012-.187 1.295-.125.283-.315.425-.57.425-.255 0-.444-.142-.569-.425-.124-.283-.186-.715-.186-1.295V4.263zm1.955 0h.69c.231 0 .4.09.508.271.108.181.162.468.162.859 0 .27-.028.492-.084.666a.733.733 0 0 1-.253.384c.062.033.117.108.165.225.05.116.1.291.15.527l.245 1.163h-.482L5.9 7.34c-.043-.205-.086-.345-.13-.42-.045-.074-.103-.112-.177-.112h-.128v1.55h-.452V4.263zm1.851 0h.75c.224 0 .395.116.514.348.12.23.18.56.18.988 0 .43-.06.76-.18.992-.119.23-.29.346-.513.346h-.299v1.42h-.452V4.264zm1.762 0h.453V7.56h.794v.798H8.626V4.263zm1.532 0h1.221v.798h-.768v.762h.722v.798h-.722v.939h.794v.798h-1.247V4.263zm-8.41.765v1.144h.25c.088 0 .155-.05.203-.149.048-.1.072-.242.072-.424a.996.996 0 0 0-.072-.423c-.048-.099-.115-.148-.203-.148h-.25zm3.717 0v1.05h.19a.21.21 0 0 0 .204-.123c.041-.082.062-.218.062-.406 0-.186-.02-.32-.062-.4-.041-.08-.11-.12-.204-.12h-.19zm1.851 0v1.144h.25c.088 0 .156-.05.204-.149.047-.1.071-.242.071-.424a.996.996 0 0 0-.071-.423c-.048-.099-.116-.148-.204-.148h-.25zm-5.49 4.355h9.018A5.4 5.4 0 0 1 6.34 11.81a5.4 5.4 0 0 1-4.515-2.427z" fill="#963996"/></svg>