<svg xmlns="http://www.w3.org/2000/svg" width="48" height="48" viewBox="0 0 12.7 12.7"><path d="M6.35.06a6.29 6.29 0 0 0-6.29 6.3 6.29 6.29 0 0 0 6.3 6.28 6.29 6.29 0 0 0 6.28-6.29A6.29 6.29 0 0 0 6.35.06zm-.02.93l.01.01a5.4 5.4 0 0 1 4.425 2.317H1.893A5.4 5.4 0 0 1 6.33.99zM1.746 4.303h1.27c.424 0 .734.09.932.27.198.182.297.468.297.86 0 .27-.052.492-.155.666a.905.905 0 0 1-.464.384.595.595 0 0 1 .304.225c.09.115.182.29.274.527l.451 1.162H3.77L3.378 7.38c-.08-.205-.16-.345-.242-.42a.456.456 0 0 0-.324-.112h-.235v1.55h-.83V4.302zm3.401 0h2.242V5.1H5.978v.763h1.327v.798H5.978V7.6h1.459v.797h-2.29V4.303zm3.021 0h.876c.49 0 .854.044 1.092.134.24.088.447.237.618.45.15.184.263.397.336.639.074.241.11.515.11.82 0 .309-.036.585-.11.828a1.845 1.845 0 0 1-.336.64c-.173.212-.38.362-.622.452-.242.087-.604.131-1.088.131h-.876V4.303zm-5.59.765v1.05h.348c.175 0 .3-.04.374-.123.076-.082.114-.218.114-.406 0-.187-.038-.32-.114-.4-.075-.081-.2-.121-.374-.121h-.349zm6.421.032v2.5h.298c.34 0 .598-.107.777-.321.18-.214.27-.525.27-.933 0-.406-.09-.715-.268-.927-.179-.212-.438-.319-.779-.319H9zM1.825 9.383h9.019A5.4 5.4 0 0 1 6.34 11.81a5.4 5.4 0 0 1-4.515-2.427z" fill="#a02c2c"/></svg>