<?xml version="1.0" encoding="UTF-8" standalone="no"?>
<svg
   xmlns:dc="http://purl.org/dc/elements/1.1/"
   xmlns:cc="http://creativecommons.org/ns#"
   xmlns:rdf="http://www.w3.org/1999/02/22-rdf-syntax-ns#"
   xmlns:svg="http://www.w3.org/2000/svg"
   xmlns="http://www.w3.org/2000/svg"
   xmlns:sodipodi="http://sodipodi.sourceforge.net/DTD/sodipodi-0.dtd"
   xmlns:inkscape="http://www.inkscape.org/namespaces/inkscape"
   width="48"
   height="48"
   viewBox="0 0 12.7 12.7"
   version="1.1"
   id="svg4"
   sodipodi:docname="red.svg"
   inkscape:version="0.92.4 (5da689c313, 2019-01-14)">
  <metadata
     id="metadata10">
    <rdf:RDF>
      <cc:Work
         rdf:about="">
        <dc:format>image/svg+xml</dc:format>
        <dc:type
           rdf:resource="http://purl.org/dc/dcmitype/StillImage" />
        <dc:title></dc:title>
      </cc:Work>
    </rdf:RDF>
  </metadata>
  <defs
     id="defs8" />
  <sodipodi:namedview
     pagecolor="#ffffff"
     bordercolor="#666666"
     borderopacity="1"
     objecttolerance="10"
     gridtolerance="10"
     guidetolerance="10"
     inkscape:pageopacity="0"
     inkscape:pageshadow="2"
     inkscape:window-width="1366"
     inkscape:window-height="711"
     id="namedview6"
     showgrid="false"
     inkscape:zoom="10.729167"
     inkscape:cx="24"
     inkscape:cy="24"
     inkscape:window-x="0"
     inkscape:window-y="25"
     inkscape:window-maximized="1"
     inkscape:current-layer="svg4" />
  <path
     style="stroke-width:3.77952766;fill:#a02c2c;fill-opacity:1"
     d="M 24 0.2265625 A 23.773228 23.773228 0 0 0 0.2265625 24.037109 A 23.773228 23.773228 0 0 0 24.037109 47.773438 A 23.773228 23.773228 0 0 0 47.773438 24 A 23.773228 23.773228 0 0 0 24 0.2265625 z M 23.923828 3.7421875 L 23.962891 3.7792969 A 20.409449 20.409449 0 0 1 40.6875 12.535156 L 7.15625 12.535156 A 20.409449 20.409449 0 0 1 23.923828 3.7421875 z M 6.5996094 16.261719 L 11.396484 16.261719 C 13.000559 16.261719 14.174979 16.602944 14.919922 17.287109 C 15.670303 17.971275 16.044922 19.0543 16.044922 20.533203 C 16.044922 21.555996 15.848534 22.394259 15.457031 23.050781 C 15.070966 23.707304 14.486131 24.190969 13.703125 24.501953 C 14.132691 24.626347 14.516388 24.911227 14.853516 25.353516 C 15.196081 25.788894 15.542622 26.452262 15.890625 27.34375 L 17.59375 31.738281 L 14.25 31.738281 L 12.765625 27.892578 C 12.46656 27.118573 12.161502 26.589982 11.851562 26.306641 C 11.54706 26.023299 11.140035 25.880859 10.628906 25.880859 L 9.7402344 25.880859 L 9.7402344 31.738281 L 6.5996094 31.738281 L 6.5996094 16.261719 z M 19.453125 16.261719 L 27.927734 16.261719 L 27.927734 19.277344 L 22.59375 19.277344 L 22.59375 22.160156 L 27.609375 22.160156 L 27.609375 25.175781 L 22.59375 25.175781 L 22.59375 28.722656 L 28.107422 28.722656 L 28.107422 31.738281 L 19.453125 31.738281 L 19.453125 16.261719 z M 30.873047 16.261719 L 34.183594 16.261719 C 36.032358 16.261719 37.407915 16.430904 38.310547 16.769531 C 39.218616 17.101248 39.997464 17.667102 40.644531 18.46875 C 41.215473 19.166737 41.638701 19.972545 41.916016 20.884766 C 42.19333 21.796986 42.332031 22.830278 42.332031 23.984375 C 42.332031 25.152294 42.19333 26.196103 41.916016 27.115234 C 41.638701 28.027455 41.215473 28.833263 40.644531 29.53125 C 39.992026 30.332898 39.208429 30.901607 38.294922 31.240234 C 37.381415 31.571951 36.010608 31.738281 34.183594 31.738281 L 30.873047 31.738281 L 30.873047 16.261719 z M 9.7402344 19.154297 L 9.7402344 23.125 L 11.060547 23.125 C 11.718489 23.125 12.189904 22.969187 12.472656 22.658203 C 12.760846 22.347219 12.904297 21.834855 12.904297 21.123047 C 12.904297 20.418149 12.760846 19.913449 12.472656 19.609375 C 12.189904 19.305301 11.718489 19.154297 11.060547 19.154297 L 9.7402344 19.154297 z M 34.013672 19.277344 L 34.013672 28.722656 L 35.138672 28.722656 C 36.421932 28.722656 37.399964 28.318325 38.074219 27.509766 C 38.753911 26.701207 39.09375 25.525475 39.09375 23.984375 C 39.09375 22.450186 38.756286 21.282117 38.082031 20.480469 C 37.407776 19.67882 36.427369 19.277344 35.138672 19.277344 L 34.013672 19.277344 z M 6.8984375 35.464844 L 40.984375 35.464844 A 20.409449 20.409449 0 0 1 23.962891 44.636719 A 20.409449 20.409449 0 0 1 6.8984375 35.464844 z "
     transform="scale(0.26458333)"
     id="path823" />
</svg>
