<svg xmlns="http://www.w3.org/2000/svg" width="48" height="48" viewBox="0 0 12.7 12.7"><path d="M6.35.06a6.29 6.29 0 0 0-6.29 6.3 6.29 6.29 0 0 0 6.3 6.28 6.29 6.29 0 0 0 6.28-6.29A6.29 6.29 0 0 0 6.35.06zm-.02.93l.01.01a5.4 5.4 0 0 1 4.425 2.317H1.893A5.4 5.4 0 0 1 6.33.99zM1.897 4.226c.27 0 .481.188.635.565.153.377.23.897.23 1.56 0 .662-.077 1.181-.23 1.558-.154.377-.365.565-.635.565s-.482-.188-.636-.565c-.153-.377-.23-.896-.23-1.557 0-.664.077-1.184.23-1.561.154-.377.366-.565.636-.565zm7.522 0c.112 0 .219.025.321.077.103.05.2.126.29.227v.848a1.205 1.205 0 0 0-.28-.291.485.485 0 0 0-.278-.096c-.172 0-.306.118-.4.354-.093.234-.14.57-.14 1.007 0 .433.046.767.136 1.003.09.236.218.354.384.354a.392.392 0 0 0 .125-.019.309.309 0 0 0 .105-.066v-.795h-.265V6.12h.676v1.97c-.108.127-.22.223-.337.287a.74.74 0 0 1-.36.096c-.28 0-.503-.19-.666-.57-.164-.382-.246-.9-.246-1.552 0-.66.084-1.18.25-1.558.167-.379.395-.568.685-.568zM3.09 4.3h.662a.52.52 0 0 1 .486.271c.104.181.155.467.155.859 0 .27-.027.493-.08.666a.735.735 0 0 1-.242.384c.059.033.112.108.158.225.047.115.095.29.143.527l.236 1.163h-.462L3.94 7.377c-.041-.204-.083-.344-.126-.42-.042-.074-.099-.112-.17-.112h-.122v1.55h-.434V4.3zm2.197 0h.517l.623 4.095H5.99l-.106-.746h-.678l-.107.746h-.436L5.286 4.3zm1.362 0h.484l.612 2.809V4.3h.411v4.095h-.484l-.612-2.809v2.809h-.41V4.3zm3.825 0h1.17v.798h-.736v.763h.693v.798h-.693v.937h.762v.799h-1.196V4.3zm-8.576.69c-.133 0-.235.12-.308.357-.073.238-.11.573-.11 1.005 0 .43.037.763.11 1 .073.238.175.357.308.357.132 0 .235-.119.308-.356.073-.238.11-.572.11-1.001 0-.432-.037-.767-.11-1.005-.073-.237-.176-.356-.308-.356zm1.625.075v1.05h.183a.2.2 0 0 0 .195-.123c.04-.082.059-.217.059-.406 0-.186-.02-.32-.06-.4a.201.201 0 0 0-.194-.121h-.183zm2.023.195l-.23 1.629h.46l-.23-1.63zm-3.72 4.123h9.019A5.4 5.4 0 0 1 6.34 11.81a5.4 5.4 0 0 1-4.515-2.427z" fill="#ff7f2a"/></svg>