<svg xmlns="http://www.w3.org/2000/svg" width="48" height="48" viewBox="0 0 12.7 12.7"><path d="M6.35.06a6.29 6.29 0 0 0-6.29 6.3 6.29 6.29 0 0 0 6.3 6.28 6.29 6.29 0 0 0 6.28-6.29A6.29 6.29 0 0 0 6.35.06zm-.02.93l.01.01a5.4 5.4 0 0 1 4.425 2.317H1.893A5.4 5.4 0 0 1 6.33.99zM1.513 4.303H2l.34 2.976.339-2.976h.49l.338 2.976.34-2.976h.485l-.466 4.094H3.28l-.358-3.113-.354 3.113H1.98l-.468-4.094zm3.153 0h.508v1.56h.75v-1.56h.51v4.094h-.51V6.661h-.75v1.736h-.508V4.303zm2.266 0h.509v4.094h-.509V4.303zm.775 0h1.817V5.1H8.87v3.297h-.508V5.1h-.655v-.797zm2.079 0h1.372V5.1h-.864v.763h.813v.798h-.813V7.6h.893v.797H9.786V4.303zm-7.96 5.08h9.018A5.4 5.4 0 0 1 6.34 11.81a5.4 5.4 0 0 1-4.515-2.427z" fill="#e6e6e6"/></svg>