<?xml version="1.0" encoding="UTF-8" standalone="no"?>
<svg
   xmlns:dc="http://purl.org/dc/elements/1.1/"
   xmlns:cc="http://creativecommons.org/ns#"
   xmlns:rdf="http://www.w3.org/1999/02/22-rdf-syntax-ns#"
   xmlns:svg="http://www.w3.org/2000/svg"
   xmlns="http://www.w3.org/2000/svg"
   xmlns:sodipodi="http://sodipodi.sourceforge.net/DTD/sodipodi-0.dtd"
   xmlns:inkscape="http://www.inkscape.org/namespaces/inkscape"
   width="48"
   height="48"
   viewBox="0 0 12.7 12.7"
   version="1.1"
   id="svg4"
   sodipodi:docname="white.svg"
   inkscape:version="0.92.4 (5da689c313, 2019-01-14)">
  <metadata
     id="metadata10">
    <rdf:RDF>
      <cc:Work
         rdf:about="">
        <dc:format>image/svg+xml</dc:format>
        <dc:type
           rdf:resource="http://purl.org/dc/dcmitype/StillImage" />
        <dc:title></dc:title>
      </cc:Work>
    </rdf:RDF>
  </metadata>
  <defs
     id="defs8" />
  <sodipodi:namedview
     pagecolor="#ffffff"
     bordercolor="#666666"
     borderopacity="1"
     objecttolerance="10"
     gridtolerance="10"
     guidetolerance="10"
     inkscape:pageopacity="0"
     inkscape:pageshadow="2"
     inkscape:window-width="1366"
     inkscape:window-height="711"
     id="namedview6"
     showgrid="false"
     inkscape:zoom="10.729167"
     inkscape:cx="24"
     inkscape:cy="24"
     inkscape:window-x="0"
     inkscape:window-y="25"
     inkscape:window-maximized="1"
     inkscape:current-layer="svg4" />
  <path
     style="stroke-width:3.77952766;fill:#e6e6e6;fill-opacity:1"
     d="M 24 0.2265625 A 23.773228 23.773228 0 0 0 0.2265625 24.037109 A 23.773228 23.773228 0 0 0 24.037109 47.773438 A 23.773228 23.773228 0 0 0 47.773438 24 A 23.773228 23.773228 0 0 0 24 0.2265625 z M 23.923828 3.7421875 L 23.962891 3.7792969 A 20.409449 20.409449 0 0 1 40.6875 12.535156 L 7.15625 12.535156 A 20.409449 20.409449 0 0 1 23.923828 3.7421875 z M 5.7167969 16.261719 L 7.5585938 16.261719 L 8.8476562 27.509766 L 10.125 16.261719 L 11.976562 16.261719 L 13.255859 27.509766 L 14.542969 16.261719 L 16.371094 16.261719 L 14.613281 31.738281 L 12.396484 31.738281 L 11.042969 19.972656 L 9.7050781 31.738281 L 7.4882812 31.738281 L 5.7167969 16.261719 z M 17.634766 16.261719 L 19.556641 16.261719 L 19.556641 22.160156 L 22.392578 22.160156 L 22.392578 16.261719 L 24.314453 16.261719 L 24.314453 31.738281 L 22.392578 31.738281 L 22.392578 25.175781 L 19.556641 25.175781 L 19.556641 31.738281 L 17.634766 31.738281 L 17.634766 16.261719 z M 26.201172 16.261719 L 28.123047 16.261719 L 28.123047 31.738281 L 26.201172 31.738281 L 26.201172 16.261719 z M 29.126953 16.261719 L 35.998047 16.261719 L 35.998047 19.277344 L 33.525391 19.277344 L 33.525391 31.738281 L 31.603516 31.738281 L 31.603516 19.277344 L 29.126953 19.277344 L 29.126953 16.261719 z M 36.986328 16.261719 L 42.173828 16.261719 L 42.173828 19.277344 L 38.908203 19.277344 L 38.908203 22.160156 L 41.978516 22.160156 L 41.978516 25.175781 L 38.908203 25.175781 L 38.908203 28.722656 L 42.283203 28.722656 L 42.283203 31.738281 L 36.986328 31.738281 L 36.986328 16.261719 z M 6.8984375 35.464844 L 40.984375 35.464844 A 20.409449 20.409449 0 0 1 23.962891 44.636719 A 20.409449 20.409449 0 0 1 6.8984375 35.464844 z "
     transform="scale(0.26458333)"
     id="path823" />
</svg>
