<svg xmlns="http://www.w3.org/2000/svg" width="48" height="48" viewBox="0 0 12.7 12.7"><path fill="#2c89a0" d="M6.34.08A6.27 6.27 0 0 0 .08 6.34a6.27 6.27 0 0 0 6.26 6.27 6.27 6.27 0 0 0 6.27-6.27A6.27 6.27 0 0 0 6.34.08zM6.33 1a5.39 5.39 0 0 1 5.37 5.4 5.39 5.39 0 0 1-5.38 5.39 5.39 5.39 0 0 1-5.4-5.4 5.39 5.39 0 0 1 5.4-5.38zM4.7 2.44a.53.53 0 0 0-.25 1l.26.14V5l-.24.37-.5.9A272.32 272.32 0 0 0 2.8 8.4a1.69 1.69 0 0 0 .16 1.86c.35.48.92.6 1.38.6h3.9c.46 0 1.02-.12 1.38-.6.45-.56.46-1.3.15-1.86-.61-1.25-1.3-2.23-1.88-3.38V3.58l.26-.15a.53.53 0 0 0-.26-.99zM5.77 3.5h1.07v1.64a.53.53 0 0 0 .06.24c.63 1.3 1.36 2.3 1.95 3.5a.53.53 0 0 0 0 .02c.13.23.14.47-.05.7a.53.53 0 0 0-.02.02c-.07.1-.25.18-.54.18H4.35c-.28 0-.47-.08-.54-.18a.53.53 0 0 0-.02-.02c-.19-.23-.18-.47-.05-.7A271.17 271.17 0 0 1 4.9 6.8a67.9 67.9 0 0 1 .5-.9l.27-.44a.53.53 0 0 0 .1-.32z"/><path fill="#2c89a0" d="M6.77 1.28a.47.49 0 0 0-.47.49.47.49 0 0 0 .47.49.47.49 0 0 0 .47-.5.47.49 0 0 0-.47-.48zm-1.65.25a.24.25 0 0 0-.24.26.24.25 0 0 0 .24.25.24.25 0 0 0 .23-.25.24.25 0 0 0-.23-.26zm1 4.46a.4.4 0 0 0-.4.4.4.4 0 0 0 .4.4.4.4 0 0 0 .4-.4.4.4 0 0 0-.4-.4zm1.12 1.16H5.35L4.18 9.27H8.4z" opacity=".45" overflow="visible"/></svg>