<svg xmlns="http://www.w3.org/2000/svg" width="48" height="48" viewBox="0 0 12.7 12.7"><path d="M5.7 4.51c-1.82 0-3.36.43-3.8 1 .45.56 1.98.98 3.8.98 1.83 0 3.37-.42 3.82-.98-.45-.57-1.99-1-3.81-1z" opacity=".75" fill="#f60"/><path d="M6.34.08A6.27 6.27 0 0 0 .08 6.34a6.27 6.27 0 0 0 6.26 6.27 6.27 6.27 0 0 0 6.27-6.27A6.27 6.27 0 0 0 6.34.08zM6.33 1A5.39 5.39 0 0 1 11.7 6.4a5.39 5.39 0 0 1-5.38 5.39 5.39 5.39 0 0 1-5.4-5.4 5.39 5.39 0 0 1 5.4-5.38zM5.7 3.6c-2.08 0-3.79.6-3.91 1.36h-.01V5.9c.03 2.43 1.77 4.39 3.92 4.39 1.28 0 2.42-.71 3.14-1.8.8-.08 2.31-.34 2.2-2.2a.7.7 0 0 0-.08-.29.73.73 0 0 0-.2-.22c-.29-.2-.73-.24-1.15-.24V4.97c-.13-.76-1.83-1.36-3.91-1.36zm0 .97c1.62 0 2.98.4 3.38.94-.4.54-1.77.94-3.38.94-1.62 0-2.98-.4-3.38-.94.4-.54 1.76-.94 3.38-.94zM9.6 6.2h.8c.03 1.3-.7 1.46-1.13 1.45.18-.45.29-.93.33-1.45z" fill="#2c89a0"/></svg>