<?xml version="1.0" encoding="UTF-8" standalone="no"?><svg xmlns:dc="http://purl.org/dc/elements/1.1/" xmlns:cc="http://creativecommons.org/ns#" xmlns:rdf="http://www.w3.org/1999/02/22-rdf-syntax-ns#" xmlns="http://www.w3.org/2000/svg" width="48" height="48" viewBox="0 0 12.7 12.7"><metadata><rdf:RDF><cc:Work><dc:format>image/svg+xml</dc:format><dc:type rdf:resource="http://purl.org/dc/dcmitype/StillImage"/><dc:title/></cc:Work></rdf:RDF></metadata><path d="M1.21.86L.14 3.66h6.04V.86H1.21zm5.18 0v2.8h6.11L11.4.86H6.4zM.19 3.89v6.31c0 .64.25 1.18.74 1.64.5.45 1.08.67 1.78.67h7.25c.7 0 1.28-.22 1.78-.67.49-.46.73-1 .73-1.64V3.9h-1.12v6.3c0 .36-.13.66-.4.91a1.4 1.4 0 0 1-.99.38H2.71a1.4 1.4 0 0 1-.99-.38 1.19 1.19 0 0 1-.41-.9V3.88H.19zm1.53 1.4v1.06H2v1.06h.53V6.35h.26V5.29H1.72zm1.32.05v.53h.53v-.53h-.53zm.53.53v.53h.53v-.53h-.53zm.53 0h.53v-.53H4.1v.53zm.53 0v.53h.53v-.53h-.53zm.53 0h.52v-.53h-.52v.53zm.52 0v.53h.53v-.53h-.53zm.53 0h.53v-.53h-.53v.53zm.53 0v.53h.53v-.53h-.53zm.53 0h.53v-.53h-.53v.53zm.53 0v.53h.53v-.53H7.8zm.53 0h.53v-.53h-.53v.53zm.53 0v.53h.53v-.53h-.53zm.53 0h.53v-.53h-.53v.53zm.53 0v.53h.53v-.53h-.53zm.53 0h.53v-.53h-.53v.53zm-8.46-.31h.53v.53h-.53v-.53zm6.17 2.32a.67.67 0 0 0-.1 0c-.43.01-.77.43-.72.85h.41c-.1-.54.8-.61.7-.03-.1.35-.44.54-.67.8-.14.14-.32.27-.43.42v.35h1.52c-.02-.12.03-.3-.02-.4h-.9c.3-.31.73-.56.9-.99.16-.46-.21-.99-.69-1zm-4.32.04v2.35c.12-.01.3.03.39-.02-.08-.45.34.22.6.06.6.04.99-.64.84-1.17-.1-.61-.97-.94-1.4-.47v-.75h-.43zm2.08.6c.02.1-.06.33.04.37h.64l-.77 1v.38h1.34c-.03-.11.06-.34-.04-.38h-.8l.78-1c-.03-.11.06-.34-.05-.38H5.92zm-1.17.32c.5-.03.7.67.34.97-.3.27-.85.04-.85-.37-.04-.3.19-.62.5-.6z" fill="#2c89a0"/></svg>