<svg xmlns="http://www.w3.org/2000/svg" width="48" height="48" viewBox="0 0 12.7 12.7"><path d="M1.215.856L.142 3.66h6.04V.856H1.215zm5.174 0V3.66h6.115L11.402.856H6.39zM.194 3.893v6.31c0 .636.246 1.181.737 1.633.491.453 1.083.679 1.775.679H9.96c.692 0 1.283-.226 1.775-.679.49-.452.736-.997.736-1.634v-6.31h-1.116v6.31c0 .354-.136.656-.41.908a1.403 1.403 0 0 1-.985.377H2.706c-.384 0-.712-.126-.986-.377a1.19 1.19 0 0 1-.41-.908v-6.31H.195zm7.281 3.983v2.346h.388v-.225c.18.193.349.266.61.266a.782.782 0 0 0 .65-.308c.133-.171.207-.39.207-.625 0-.53-.382-.93-.887-.93a.697.697 0 0 0-.545.225v-.749h-.423zm-3.279.546a.913.913 0 0 0-.927.92c0 .512.42.921.94.921.41 0 .727-.225.873-.619h-.476c-.105.162-.225.232-.4.232-.292 0-.512-.229-.512-.537 0-.307.21-.53.502-.53.19 0 .324.08.41.242h.476a.792.792 0 0 0-.238-.381.953.953 0 0 0-.648-.248zm2.003 0c-.521 0-.896.39-.896.927 0 .53.372.914.886.914a.706.706 0 0 0 .584-.27v.23h.388v-1.76h-.388v.235c-.146-.194-.32-.276-.574-.276zm2.184.365c.302 0 .52.232.52.546 0 .321-.209.543-.51.543-.305 0-.521-.225-.521-.546 0-.317.216-.543.511-.543zm-2.14.022c.302 0 .518.226.518.547a.595.595 0 0 1-.127.361.49.49 0 0 1-.385.159.494.494 0 0 1-.52-.517c0-.321.212-.55.514-.55z" fill="#2c89a0"/></svg>