<svg xmlns="http://www.w3.org/2000/svg" width="48" height="48"><path style="line-height:normal;text-indent:0;text-align:start;text-decoration-line:none;text-transform:none;marker:none" d="M29.705-.084c-2.047.008-4.121.088-4.517.098H7a2.938 2.938 0 0 0-.563 0C5.063.276 3.975 1.612 4 3.012V45c0 1.57 1.43 3 3 3h34c1.57 0 3-1.43 3-3V18.818c.018-.792.215-9.927-.336-10.496L34.054.248c-.284-.275-2.302-.34-4.349-.332zm1.49 3.094l.133 7.504c.012.681.638 1.29 1.317 1.279l7.771-.137c.133.018.268.017.4-.006l.082 3.03.102 4.09v26.227H7V3.021h18.672l5.523-.011zM20.51 12.162c-6.486 0-11.793 5.3-11.793 11.781 0 6.482 5.307 11.78 11.793 11.78 2.474 0 4.772-.775 6.674-2.088l7.892 7.886a2.142 2.142 0 1 0 3.03-3.029l-7.895-7.885a11.684 11.684 0 0 0 2.088-6.664c0-6.48-5.304-11.78-11.79-11.78zm0 4.285a7.467 7.467 0 0 1 7.504 7.496 7.467 7.467 0 0 1-7.504 7.496A7.47 7.47 0 0 1 13 23.943a7.472 7.472 0 0 1 7.51-7.496z" color="#000" font-weight="400" font-family="Andale Mono" overflow="visible" fill="#2c89a0"/></svg>