<svg xmlns="http://www.w3.org/2000/svg" width="48" height="48" viewBox="0 0 12.7 12.7"><path d="M1.215.856L.142 3.66h6.04V.856H1.215zm5.174 0V3.66h6.115L11.402.856H6.39zM.194 3.893v6.31c0 .636.246 1.181.737 1.633.491.453 1.083.679 1.775.679H9.96c.692 0 1.283-.226 1.775-.679.49-.452.736-.997.736-1.634v-6.31h-1.116v6.31c0 .354-.136.656-.41.908a1.403 1.403 0 0 1-.985.377H2.706c-.384 0-.712-.126-.986-.377a1.19 1.19 0 0 1-.41-.908v-6.31H.195zM4.371 7.88c-.485 0-.835.392-.835.932 0 .533.347.92.827.92.23 0 .387-.08.544-.272v.23h.362V7.92h-.362v.236a.595.595 0 0 0-.536-.277zm1.985 0c-.486 0-.864.405-.864.926 0 .514.39.926.876.926.382 0 .679-.227.815-.623h-.444c-.098.163-.21.233-.373.233-.273 0-.477-.23-.477-.54 0-.31.195-.533.467-.533.178 0 .303.08.383.243h.444a.854.854 0 0 0-.827-.632zm1.898 0c-.483 0-.865.411-.865.932 0 .517.388.92.889.92a.79.79 0 0 0 .652-.32.756.756 0 0 0 .13-.246h-.43a.406.406 0 0 1-.361.176c-.234 0-.406-.134-.453-.348h1.27a.739.739 0 0 0 .015-.163c0-.55-.358-.951-.847-.951zm-3.841.389c.281 0 .482.227.482.55a.63.63 0 0 1-.118.363.441.441 0 0 1-.358.16c-.287 0-.486-.211-.486-.52 0-.323.198-.553.48-.553zm3.847 0c.243 0 .403.124.453.351h-.91c.063-.227.223-.351.457-.351z" fill="#2c89a0"/></svg>