<svg xmlns="http://www.w3.org/2000/svg" width="48" height="48" viewBox="0 0 12.7 12.7"><path d="M1.215.856L.142 3.66h6.04V.856H1.215zm5.174 0V3.66h6.115L11.402.856H6.39zM.194 3.893v6.31c0 .636.246 1.181.737 1.633.491.453 1.083.679 1.775.679H9.96c.692 0 1.283-.226 1.775-.679.49-.452.736-.997.736-1.634v-6.31h-1.116v6.31c0 .354-.136.656-.41.908a1.403 1.403 0 0 1-.985.377H2.706c-.384 0-.712-.126-.986-.377a1.19 1.19 0 0 1-.41-.908v-6.31H.195zm6.98 3.99v.397h.422v-.397h-.422zm-3.279.546a.912.912 0 0 0-.927.92c0 .512.42.922.94.922.41 0 .727-.226.873-.62h-.476c-.105.163-.226.233-.4.233-.292 0-.511-.23-.511-.537 0-.308.21-.53.501-.53.19 0 .324.079.41.24h.476a.793.793 0 0 0-.238-.38.951.951 0 0 0-.648-.248zm2.15 0a.743.743 0 0 0-.58.248v-.206H5.08v2.346h.42v-.752a.751.751 0 0 0 .54.206c.507 0 .879-.394.879-.927 0-.53-.368-.915-.876-.915zm2.746 0a.93.93 0 0 0-.93.92c0 .509.419.922.933.922.511 0 .937-.413.937-.908a.924.924 0 0 0-.94-.934zm-1.617.042v1.758h.422V8.471h-.422zm-1.184.346c.286 0 .505.232.505.536 0 .299-.22.53-.499.53a.514.514 0 0 1-.52-.536c0-.302.222-.53.514-.53zm2.804 0c.283 0 .511.24.511.533a.522.522 0 0 1-.508.534c-.285 0-.51-.239-.51-.54a.52.52 0 0 1 .507-.527z" fill="#2c89a0"/></svg>