<svg xmlns="http://www.w3.org/2000/svg" width="48" height="48"><path style="line-height:normal;text-indent:0;text-align:start;text-decoration-line:none;text-transform:none;marker:none" d="M29.705-.084c-2.047.008-4.121.088-4.517.098H7a2.938 2.938 0 0 0-.563 0C5.063.276 3.975 1.612 4 3.012V45c0 1.57 1.43 3 3 3h34c1.57 0 3-1.43 3-3V18.818c.018-.792.215-9.927-.336-10.496L34.054.248c-.284-.275-2.302-.34-4.349-.332zm1.49 3.094l.133 7.504c.012.681.638 1.29 1.317 1.279l7.771-.137c.133.018.268.017.4-.006l.082 3.03.102 4.09v26.227H7V3.021h18.672l5.523-.011zm-3.133 15.08c-2.345.01-4.69.02-7.039.033.93-.035 1.794.806 2.631 2.049.745 1.278 1.448 2.603 2.055 4.017l-2.463 1.418 7.145.684 3.005-6.527-2.486 1.43c-.676-1.376-1.54-2.519-2.848-3.104zm-7.412.502c-.33.066-.599.21-.802.428-1.65 1.618-2.66 3.236-3.487 4.851 1.55.889 3.098 1.78 4.649 2.668l3.174-4.45a40.926 40.926 0 0 0-.926-1.67c-.41-.606-1.196-1.68-2.01-1.815L21 18.592h-.35zm12.84 7.658c-1.534.916-3.07 1.829-4.603 2.746l.228.49.028-.039v.098l1.836 3.906c.741.027 1.485.03 2.228.022.77-.064 2.2-.24 2.645-.975.017-.026.028-.05.043-.076l.18-.324a1.45 1.45 0 0 0-.063-.432c-.602-2.23-1.519-3.901-2.522-5.416zm-15.431.77l-7.07 1.294 2.6 1.21c-.736 1.347-1.172 2.708-.902 4.113 1.36 1.916 2.717 3.829 4.079 5.742-.563-.74-.37-1.931.166-3.332.616-1.341 1.295-2.678 2.1-3.992l2.577 1.2-3.55-6.235zm10.63 3.896l-4.093 5.893 4.216 5.822-.029-2.867c1.529.085 2.949-.11 4.104-.96 1.14-2.052 2.28-4.103 3.422-6.152-.431.826-1.59 1.167-3.082 1.287a36.742 36.742 0 0 1-4.508-.18l-.03-2.843zm-10.412 3.432c-.32.618-.624 1.244-.916 1.882-.277.723-.735 2.09-.263 2.807.016.026.033.048.05.072l.223.31c.188.134.39.21.604.24 2.273.422 4.175.313 5.974.062a4597.1 4597.1 0 0 0-.496-5.338l-5.176-.035z" color="#000" font-weight="400" font-family="Andale Mono" overflow="visible" fill="#2c89a0"/></svg>