<svg xmlns="http://www.w3.org/2000/svg" width="48" height="48" viewBox="0 0 12.7 12.7"><path d="M1.215.856L.142 3.66h6.04V.856H1.215zm5.174 0V3.66h6.115L11.402.856H6.39zM.194 3.893v6.31c0 .636.246 1.181.737 1.633.491.453 1.083.679 1.775.679H9.96c.692 0 1.283-.226 1.775-.679.49-.452.736-.997.736-1.634v-6.31h-1.116v6.31c0 .354-.136.656-.41.908a1.403 1.403 0 0 1-.985.377H2.706c-.384 0-.712-.126-.986-.377a1.19 1.19 0 0 1-.41-.908v-6.31H.195zM4.25 8.107v2.347h.422V8.107H4.25zm3.212.546a.93.93 0 0 0-.93.921c0 .508.419.92.933.92.511 0 .937-.412.937-.908a.924.924 0 0 0-.94-.933zm-2.336.042v.377h.685l-.774 1.003v.379h1.34v-.379H5.54l.774-1.003v-.377h-1.19zm2.34.346c.282 0 .51.241.51.533a.521.521 0 0 1-.507.533c-.286 0-.512-.238-.512-.54 0-.289.232-.526.508-.526z" fill="#2c89a0"/></svg>