<svg xmlns="http://www.w3.org/2000/svg" width="48" height="48" viewBox="0 0 12.7 12.7"><path d="M1.215.856L.142 3.66h6.04V.856H1.215zm5.174 0V3.66h6.115L11.402.856H6.39zM.194 3.893v6.31c0 .636.246 1.181.737 1.633.491.453 1.083.679 1.775.679H9.96c.692 0 1.283-.226 1.775-.679.49-.452.736-.997.736-1.634v-6.31h-1.116v6.31c0 .354-.136.656-.41.908a1.403 1.403 0 0 1-.985.377H2.706c-.384 0-.712-.126-.986-.377a1.19 1.19 0 0 1-.41-.908v-6.31H.195zm6.15 3.956a.866.866 0 0 0-.207.014.872.872 0 0 0-.72.767c-.061.382.117.81.48.975.306.144.717.12.948-.15.06-.078.02.093.032.138-.028.09.078.048.13.057h.257V7.891h-.387v.235a.668.668 0 0 0-.533-.277zm-1.078 0a.417.417 0 0 0-.413.214c-.012-.052.025-.153-.02-.172h-.367v1.76h.422c.003-.359-.007-.718.006-1.075.007-.193.185-.332.372-.32V7.85zm3.113 0a.417.417 0 0 0-.413.214c-.012-.052.025-.153-.02-.172h-.367v1.76H8c.003-.359-.007-.718.006-1.075.007-.193.185-.332.372-.32V7.85zm-2.033.388a.51.51 0 0 1 .516.487c.027.25-.127.534-.393.57-.253.057-.551-.082-.615-.346-.083-.276.06-.628.358-.695a.553.553 0 0 1 .134-.016z" fill="#2c89a0"/></svg>