<svg xmlns="http://www.w3.org/2000/svg" width="48" height="48" version="1"><path d="M21 6.5a4.502 4.502 0 0 0-4.5 4.5c0 1.552.803 2.91 2 3.719v.781h-10c-1.108 0-2 .892-2 2v9.719C7.325 26.184 8.575 25.5 10 25.5c2.484 0 4.5 2.016 4.5 4.5s-2.016 4.5-4.5 4.5c-1.425 0-2.675-.684-3.5-1.719v9.72c0 1.107.892 2 2 2h9.719c-1.035-.826-1.72-2.076-1.72-3.5a4.5 4.5 0 0 1 9 0c0 1.424-.683 2.674-1.718 3.5H33.5c1.108 0 2-.893 2-2v-10h.781c.81 1.196 2.166 2 3.719 2a4.501 4.501 0 0 0 0-9c-1.553 0-2.91.802-3.719 2H35.5v-10c0-1.109-.892-2-2-2h-10v-.782c1.197-.81 2-2.166 2-3.719 0-2.484-2.016-4.5-4.5-4.5z" fill="#2c89a0"/></svg>