<svg xmlns="http://www.w3.org/2000/svg" width="48" height="48"><path style="line-height:normal;text-indent:0;text-align:start;text-decoration-line:none;text-transform:none;marker:none" d="M29.705-.084c-2.047.008-4.121.088-4.517.098H7a2.938 2.938 0 0 0-.563 0C5.063.276 3.975 1.612 4 3.012V45c0 1.57 1.43 3 3 3h34c1.57 0 3-1.43 3-3V18.818c.018-.792.215-9.927-.336-10.496L34.054.248c-.284-.275-2.302-.34-4.349-.332zm1.49 3.094l.133 7.504c.012.681.638 1.29 1.317 1.279l7.771-.137c.133.018.268.017.4-.006l.082 3.03.102 4.09v26.227H7V3.021h18.672l5.523-.011zM10.242 6.908v2.037h6.207V6.908h-6.207zm8 0v2.037h6.207V6.908h-6.207zm-6 4v2.037H28.34v-2.037H12.242zm-2 4v2.037H24.11v-2.037H10.242zm16 0v2.037h10.28v-2.037h-10.28zm-16 4v2.037h6.4v-2.037h-6.4zm8 0v2.037h11.83v-2.037h-11.83zm14 0v2.037h4.17v-2.037h-4.17zm-20 4v2.037h21.72v-2.037h-21.72zm0 4v1.94H29.6v-1.94H12.242zm20 0v1.94h3.977v-1.94h-3.977zm-22.219 4v1.94H26.22v-1.94H10.023zm19.602 0v1.94h6.594v-1.94h-6.594zm-3.1 5.016l-.453 1.812H24.48v1.004h1.332l-.328 1.29H23.94v1.013h1.315l-.453 1.803h1.05l.452-1.803h1.244l-.453 1.803h1.04l.454-1.803h1.582v-1.014h-1.338l.324-1.289h1.555v-1.004h-1.305l.457-1.812h-1.04l-.458 1.812h-1.242l.451-1.812h-1.049zm-5.843 1.531c-.22.015-.44.044-.655.092-1.004.194-1.866 1.021-2.004 2.05-.186 1.04.088 2.262 1.022 2.866 1.054.68 2.439.63 3.586.226v-1.058c.091-.479-.199-.167-.485-.037-.715.303-1.757.291-2.197-.455-.34-.656-.324-1.582.22-2.125.692-.6 1.77-.396 2.462.097v-1.375a4.778 4.778 0 0 0-1.95-.28zm6.181 1.285h1.244l-.33 1.29h-1.244l.33-1.29z" color="#000" font-weight="400" font-family="Andale Mono" overflow="visible" fill="#2c89a0"/></svg>