<svg xmlns="http://www.w3.org/2000/svg" width="48" height="48"><path style="line-height:normal;text-indent:0;text-align:start;text-decoration-line:none;text-transform:none;marker:none" d="M29.705-.084c-2.047.008-4.121.088-4.517.098H7a2.938 2.938 0 0 0-.563 0C5.063.276 3.975 1.612 4 3.012V45c0 1.57 1.43 3 3 3h34c1.57 0 3-1.43 3-3V18.818c.018-.792.215-9.927-.336-10.496L34.054.248c-.284-.275-2.302-.34-4.349-.332zm1.49 3.094l.133 7.504c.012.681.638 1.29 1.317 1.279l7.771-.137c.133.018.268.017.4-.006l.082 3.03.102 4.09v26.227H7V3.021h18.672l5.523-.011zm-7.134 10.513c-3.339-.06-6.887 1.22-7.967 3.737-.626 1.4-.047 3.91 2.054 3.91 1.23 0 1.794-.793 1.887-1.52.07-.55-.156-1.04-.289-1.494-.152-.517.497-1.52 1.203-1.927.59-.342 1.206-.457 1.297-.479 2.118-.509 4.23.616 5.111 1.984.881 1.369-.088 3.445-1.482 5.463-1.394 2.019-2.89 4.311-2.885 6.746 0 .927-.082 1.242-.023 1.618.047.3 1.039.263 1.799.123-.066-2.36.463-4.648 2.691-6.27 2.354-1.834 4.62-4.13 4.38-6.836-.051-2.609-3.091-4.653-6.366-4.947a11.9 11.9 0 0 0-1.41-.108zm-.262 21.336c-2.025-.11-3.428 2.186-2.211 3.649 1.086 1.615 4.134 1.215 4.656-.613.543-1.423-.764-3.06-2.445-3.036z" color="#000" font-weight="400" font-family="Andale Mono" overflow="visible" fill="#2c89a0"/></svg>