<svg xmlns="http://www.w3.org/2000/svg" version="1" width="24" height="24"><defs><linearGradient id="a"><stop offset="0" stop-color="#0d0d0d"/><stop offset="1" stop-color="#0d0d0d" stop-opacity="0"/></linearGradient><linearGradient id="b"><stop offset="0"/><stop offset="1" stop-opacity="0"/></linearGradient><linearGradient id="c"><stop offset="0" stop-color="#b4b4b4"/><stop offset="1" stop-color="#969696"/></linearGradient><linearGradient x1="12.274" y1="32.416" x2="35.391" y2="14.203" id="d" gradientUnits="userSpaceOnUse"><stop offset="0" stop-color="#dedbde"/><stop offset=".5" stop-color="#e6e6e6"/><stop offset="1" stop-color="#d2d2d2"/></linearGradient><linearGradient id="e"><stop offset="0" stop-color="#aaa"/><stop offset="1" stop-color="#d4d4d4"/></linearGradient><linearGradient id="f"><stop offset="0" stop-color="#fff"/><stop offset="1" stop-color="#fff" stop-opacity="0"/></linearGradient><linearGradient id="g"><stop offset="0" stop-color="#fcd9cd"/><stop offset="1" stop-color="#fcd9cd" stop-opacity="0"/></linearGradient><linearGradient id="h"><stop offset="0" stop-color="#ebeec7"/><stop offset="1" stop-color="#ebeec7" stop-opacity="0"/></linearGradient><linearGradient id="i"><stop offset="0" stop-color="#c4ebdd"/><stop offset="1" stop-color="#c4ebdd" stop-opacity="0"/></linearGradient><linearGradient id="j"><stop offset="0" stop-color="#c1cbe4"/><stop offset="1" stop-color="#c1cbe4" stop-opacity="0"/></linearGradient><linearGradient id="k"><stop offset="0" stop-color="#e6cde2"/><stop offset="1" stop-color="#e6cde2" stop-opacity="0"/></linearGradient><linearGradient id="l"><stop offset="0" stop-color="#d7e866"/><stop offset="1" stop-color="#8cab2a"/></linearGradient><linearGradient id="m"><stop offset="0" stop-color="#fff"/><stop offset="1" stop-color="#fff" stop-opacity="0"/></linearGradient></defs><g fill="none" stroke="#1a1a1a"><path d="M21.433 11.885a9.419 9.419 0 0 0-9.443-9.443 9.419 9.419 0 0 0-9.443 9.443 9.419 9.419 0 0 0 9.443 9.444 9.419 9.419 0 0 0 9.443-9.444zm-5.988 0a3.439 3.439 0 0 1-3.455 3.455 3.439 3.439 0 0 1-3.455-3.455c0-1.9 1.401-3.454 3.455-3.454 2.054 0 3.455 1.59 3.455 3.454z" stroke-width="1.382"/><path d="M11.99 8.43a3.456 3.456 0 0 0-3.455 3.455 3.456 3.456 0 0 0 3.455 3.455 3.456 3.456 0 0 0 3.455-3.455 3.456 3.456 0 0 0-3.455-3.454zm0 1.728a1.728 1.728 0 1 1-.001 3.456 1.728 1.728 0 0 1 0-3.456z" style="marker:none" overflow="visible" stroke-width=".461" stroke-linejoin="round"/></g><path d="M14.358 22.249c-1.75-5.763 1.946-7.868 1.946-7.868-.258 3.075 1.49 5.471 1.49 5.471.642-.194 1.869-1.1 1.869-1.1 0 1.1-.647 3.495-.647 3.495s2.266-1.752 2.979-4.662c.712-2.91-1.357-5.832-1.357-5.832a7.804 7.804 0 0 1-1.937 5.633c.068-.078.125-.166.17-.261.245-.49.638-1.765.408-4.718-.325-4.144-4.08-5.892-4.08-5.892.324 2.525-.647 3.107-2.92 7.9-2.274 4.792 2.079 7.834 2.079 7.834zm0 0" opacity=".8" fill="#ff2a2a"/></svg>