<svg xmlns="http://www.w3.org/2000/svg" version="1" width="24" height="24"><defs><linearGradient id="l"><stop offset="0" stop-color="#ececec"/><stop offset="1" stop-color="#979797"/></linearGradient><linearGradient id="j"><stop offset="0"/><stop offset="1" stop-opacity="0"/></linearGradient><linearGradient id="i"><stop offset="0" stop-color="#b4b4b4"/><stop offset="1" stop-color="#969696"/></linearGradient><linearGradient x1="12.274" y1="32.416" x2="35.391" y2="14.203" id="h" gradientUnits="userSpaceOnUse"><stop offset="0" stop-color="#dedbde"/><stop offset=".5" stop-color="#e6e6e6"/><stop offset="1" stop-color="#d2d2d2"/></linearGradient><linearGradient id="g"><stop offset="0" stop-color="#aaa"/><stop offset="1" stop-color="#d4d4d4"/></linearGradient><linearGradient id="f"><stop offset="0" stop-color="#fff"/><stop offset="1" stop-color="#fff" stop-opacity="0"/></linearGradient><linearGradient id="a"><stop offset="0" stop-color="#fcd9cd"/><stop offset="1" stop-color="#fcd9cd" stop-opacity="0"/></linearGradient><linearGradient id="b"><stop offset="0" stop-color="#ebeec7"/><stop offset="1" stop-color="#ebeec7" stop-opacity="0"/></linearGradient><linearGradient id="c"><stop offset="0" stop-color="#c4ebdd"/><stop offset="1" stop-color="#c4ebdd" stop-opacity="0"/></linearGradient><linearGradient id="d"><stop offset="0" stop-color="#c1cbe4"/><stop offset="1" stop-color="#c1cbe4" stop-opacity="0"/></linearGradient><linearGradient id="e"><stop offset="0" stop-color="#e6cde2"/><stop offset="1" stop-color="#e6cde2" stop-opacity="0"/></linearGradient><linearGradient id="k"><stop offset="0" stop-color="#ddd"/><stop offset="1" stop-color="#ccc"/></linearGradient><linearGradient id="m"><stop offset="0" stop-color="#81aac3"/><stop offset="1" stop-color="#4e82a3"/></linearGradient><linearGradient id="n"><stop offset="0" stop-opacity="0"/><stop offset=".5"/><stop offset="1" stop-opacity="0"/></linearGradient><linearGradient id="o"><stop offset="0"/><stop offset="1" stop-opacity="0"/></linearGradient><linearGradient id="p"><stop offset="0"/><stop offset="1" stop-opacity="0"/></linearGradient></defs><g fill="none" stroke="#1a1a1a"><path d="M21.318 12A9.294 9.294 0 0 0 12 2.682 9.294 9.294 0 0 0 2.682 12 9.294 9.294 0 0 0 12 21.318 9.294 9.294 0 0 0 21.318 12zm-5.909 0A3.393 3.393 0 0 1 12 15.41 3.393 3.393 0 0 1 8.59 12c0-1.876 1.383-3.41 3.41-3.41s3.41 1.571 3.41 3.41z" stroke-width="1.36365"/><path style="marker:none" d="M12 8.59a3.41 3.41 0 0 0 0 6.82 3.41 3.41 0 0 0 0-6.82zm0 1.705a1.705 1.705 0 1 1-.001 3.41 1.705 1.705 0 0 1 .001-3.41z" overflow="visible" stroke-linejoin="round" stroke-width=".45455"/></g><g transform="matrix(.45455 0 0 .45455 -17.091 1.09)"><path fill="#009e80" paint-order="markers fill stroke" d="M66.33 22.66h19.16v22.726H66.33z"/><path style="marker:none" d="M69.04 45.541h-2.637c-.214-.271-.052-.81-.102-1.194V22.754l.03-.094.072-.038h2.6M82.791 22.622h2.646c.125 0 .103.72.103 1.194V45.41c0 .123-.407.132-.933.132h-1.794" display="block" overflow="visible" fill="none" stroke="navy" stroke-width=".917" stroke-linejoin="round"/><rect y="22.622" x="69.039" ry="0" rx="0" height="22.92" width="13.752" fill="none" stroke="navy" stroke-width=".917"/><path d="M66.747 23.997h1.834v1.833h-1.834zm0 3.667h1.834v1.834h-1.834zm0 3.667h1.834v1.834h-1.834zm0 3.667h1.834v1.834h-1.834zm0 3.668h1.834v1.833h-1.834zm0 3.667h1.834v1.833h-1.834z" fill="navy"/><path style="marker:none" d="M69.956 33.623h11.918" display="block" overflow="visible" fill="none" stroke="navy" stroke-width=".917" stroke-linecap="square" stroke-linejoin="round"/><path d="M83.25 23.997h1.833v1.833H83.25zm0 3.667h1.833v1.834H83.25zm0 3.667h1.833v1.834H83.25zm0 3.667h1.833v1.834H83.25zm0 3.668h1.833v1.833H83.25zm0 3.667h1.833v1.833H83.25z" fill="navy"/></g></svg>