<svg xmlns="http://www.w3.org/2000/svg" version="1" width="24" height="24"><defs><linearGradient id="j"><stop offset="0"/><stop offset="1" stop-opacity="0"/></linearGradient><linearGradient id="i"><stop offset="0" stop-color="#b4b4b4"/><stop offset="1" stop-color="#969696"/></linearGradient><linearGradient x1="12.274" y1="32.416" x2="35.391" y2="14.203" id="h" gradientUnits="userSpaceOnUse"><stop offset="0" stop-color="#dedbde"/><stop offset=".5" stop-color="#e6e6e6"/><stop offset="1" stop-color="#d2d2d2"/></linearGradient><linearGradient id="g"><stop offset="0" stop-color="#aaa"/><stop offset="1" stop-color="#d4d4d4"/></linearGradient><linearGradient id="f"><stop offset="0" stop-color="#fff"/><stop offset="1" stop-color="#fff" stop-opacity="0"/></linearGradient><linearGradient id="a"><stop offset="0" stop-color="#fcd9cd"/><stop offset="1" stop-color="#fcd9cd" stop-opacity="0"/></linearGradient><linearGradient id="b"><stop offset="0" stop-color="#ebeec7"/><stop offset="1" stop-color="#ebeec7" stop-opacity="0"/></linearGradient><linearGradient id="c"><stop offset="0" stop-color="#c4ebdd"/><stop offset="1" stop-color="#c4ebdd" stop-opacity="0"/></linearGradient><linearGradient id="d"><stop offset="0" stop-color="#c1cbe4"/><stop offset="1" stop-color="#c1cbe4" stop-opacity="0"/></linearGradient><linearGradient id="e"><stop offset="0" stop-color="#e6cde2"/><stop offset="1" stop-color="#e6cde2" stop-opacity="0"/></linearGradient><linearGradient id="k"><stop offset="0" stop-color="#fefefe"/><stop offset="1" stop-color="#cbcbcb"/></linearGradient><linearGradient id="l"><stop offset="0" stop-color="#fff"/><stop offset="1" stop-color="#fff" stop-opacity="0"/></linearGradient><radialGradient cx="102" cy="112.305" r="139.559" id="m" gradientUnits="userSpaceOnUse"><stop offset="0" stop-color="#b7b8b9"/><stop offset=".189" stop-color="#ececec"/><stop offset=".257" stop-color="#fafafa" stop-opacity="0"/><stop offset=".301" stop-color="#fff" stop-opacity="0"/><stop offset=".531" stop-color="#fafafa" stop-opacity="0"/><stop offset=".845" stop-color="#ebecec" stop-opacity="0"/><stop offset="1" stop-color="#e1e2e3" stop-opacity="0"/></radialGradient><linearGradient id="n"><stop offset="0" stop-color="#f4f4f4"/><stop offset="1" stop-color="#dbdbdb"/></linearGradient><linearGradient id="o"><stop offset="0" stop-color="#9a9a9a"/><stop offset="1" stop-color="#afafaf"/></linearGradient><linearGradient id="p"><stop offset="0"/><stop offset="1" stop-opacity="0"/></linearGradient><linearGradient id="q"><stop offset="0" stop-opacity="0"/><stop offset=".5"/><stop offset="1" stop-opacity="0"/></linearGradient><linearGradient id="r"><stop offset="0"/><stop offset="1" stop-opacity="0"/></linearGradient></defs><g fill="none" stroke="#1a1a1a"><path d="M21.567 11.767A9.542 9.542 0 0 0 12 2.2a9.542 9.542 0 0 0-9.567 9.567A9.542 9.542 0 0 0 12 21.333a9.542 9.542 0 0 0 9.567-9.566zm-6.067 0c0 1.926-1.535 3.5-3.5 3.5a3.484 3.484 0 0 1-3.5-3.5c0-1.926 1.42-3.5 3.5-3.5s3.5 1.612 3.5 3.5z" stroke-width="1.4"/><path style="marker:none" d="M12 8.267a3.501 3.501 0 0 0-3.5 3.5c0 1.932 1.568 3.5 3.5 3.5s3.5-1.568 3.5-3.5-1.568-3.5-3.5-3.5zm0 1.75a1.75 1.75 0 1 1-.001 3.5 1.75 1.75 0 0 1 .001-3.5z" overflow="visible" stroke-width=".467" stroke-linejoin="round"/></g><path d="M18.964 10.688h-6.362v11.597h9.45v-8.872c-.881-1.279-1.978-2.017-3.088-2.725z" opacity=".8" fill="#999"/><path d="M12.602 10.688h6.362c.397.134 2.53 1.665 3.088 2.725v8.872h-9.45V10.688z" fill="none" stroke="gray" stroke-width=".429" stroke-linejoin="round"/><path d="M18.964 10.688l-.046 2.85 3.134-.125" fill="none" stroke="#999" stroke-width=".43"/></svg>