<svg xmlns="http://www.w3.org/2000/svg" version="1" width="24" height="24"><defs><linearGradient id="a"><stop offset="0" stop-color="#0d0d0d"/><stop offset="1" stop-color="#0d0d0d" stop-opacity="0"/></linearGradient><linearGradient id="b"><stop offset="0"/><stop offset="1" stop-opacity="0"/></linearGradient><linearGradient id="c"><stop offset="0" stop-color="#b4b4b4"/><stop offset="1" stop-color="#969696"/></linearGradient><linearGradient x1="12.274" y1="32.416" x2="35.391" y2="14.203" id="d" gradientUnits="userSpaceOnUse"><stop offset="0" stop-color="#dedbde"/><stop offset=".5" stop-color="#e6e6e6"/><stop offset="1" stop-color="#d2d2d2"/></linearGradient><linearGradient id="e"><stop offset="0" stop-color="#aaa"/><stop offset="1" stop-color="#d4d4d4"/></linearGradient><linearGradient id="f"><stop offset="0" stop-color="#fff"/><stop offset="1" stop-color="#fff" stop-opacity="0"/></linearGradient><linearGradient id="g"><stop offset="0" stop-color="#fcd9cd"/><stop offset="1" stop-color="#fcd9cd" stop-opacity="0"/></linearGradient><linearGradient id="h"><stop offset="0" stop-color="#ebeec7"/><stop offset="1" stop-color="#ebeec7" stop-opacity="0"/></linearGradient><linearGradient id="i"><stop offset="0" stop-color="#c4ebdd"/><stop offset="1" stop-color="#c4ebdd" stop-opacity="0"/></linearGradient><linearGradient id="j"><stop offset="0" stop-color="#c1cbe4"/><stop offset="1" stop-color="#c1cbe4" stop-opacity="0"/></linearGradient><linearGradient id="k"><stop offset="0" stop-color="#e6cde2"/><stop offset="1" stop-color="#e6cde2" stop-opacity="0"/></linearGradient><linearGradient id="l"><stop offset="0" stop-color="#d7e866"/><stop offset="1" stop-color="#8cab2a"/></linearGradient><linearGradient id="m"><stop offset="0" stop-color="#fff"/><stop offset="1" stop-color="#fff" stop-opacity="0"/></linearGradient></defs><g fill="none" stroke="#1a1a1a"><path d="M21.318 12A9.294 9.294 0 0 0 12 2.682 9.294 9.294 0 0 0 2.682 12 9.294 9.294 0 0 0 12 21.318 9.294 9.294 0 0 0 21.318 12zm-5.909 0A3.393 3.393 0 0 1 12 15.41 3.393 3.393 0 0 1 8.59 12c0-1.876 1.383-3.41 3.41-3.41s3.41 1.571 3.41 3.41z" stroke-width="1.364"/><path d="M12 8.59a3.41 3.41 0 0 0 0 6.82 3.41 3.41 0 0 0 0-6.82zm0 1.705a1.705 1.705 0 1 1-.001 3.41 1.705 1.705 0 0 1 .001-3.41z" style="marker:none" overflow="visible" stroke-width=".455" stroke-linejoin="round"/></g><path style="marker:none" d="M21.776 16.773l-4.332 5.003-4.31-5.003h1.82v-4.094h5v4.094z" overflow="visible" opacity=".82" fill="green"/></svg>