<svg xmlns="http://www.w3.org/2000/svg" version="1" width="24" height="24"><g fill="none" stroke="#1a1a1a"><path d="M21.625 11.704a9.605 9.605 0 0 0-9.63-9.63 9.605 9.605 0 0 0-9.629 9.63 9.605 9.605 0 0 0 9.63 9.63 9.605 9.605 0 0 0 9.63-9.63zm-6.106 0a3.507 3.507 0 0 1-3.523 3.523 3.507 3.507 0 0 1-3.523-3.523c0-1.939 1.428-3.523 3.523-3.523 2.094 0 3.523 1.623 3.523 3.523z" stroke-width="1.409"/><path d="M11.996 8.18a3.524 3.524 0 0 0-3.523 3.524 3.524 3.524 0 0 0 3.523 3.523 3.524 3.524 0 0 0 3.523-3.523 3.524 3.524 0 0 0-3.523-3.523zm0 1.762a1.762 1.762 0 1 1-.001 3.525 1.762 1.762 0 0 1 0-3.525z" style="marker:none" overflow="visible" stroke-linejoin="round" stroke-width=".47"/></g><path d="M21.551 4.12l-4.309 9.803m-3.339-1.357l6.68 2.937" fill="#ff0" stroke="#ffd42a" stroke-width="1.565" stroke-linecap="round" stroke-linejoin="round"/><path d="M13.337 13.994l6.65 2.923-1.49 3.387c-.174 1.014 2.338.124 3.543.16l-4.565 2.166c-2.156.033-6.646-1.806-6.478-3.313z" fill="#ffd42a"/></svg>