<svg xmlns="http://www.w3.org/2000/svg" version="1" width="24" height="24"><defs><linearGradient id="a"><stop offset="0" stop-color="#0d0d0d"/><stop offset="1" stop-color="#0d0d0d" stop-opacity="0"/></linearGradient><linearGradient id="b"><stop offset="0"/><stop offset="1" stop-opacity="0"/></linearGradient><linearGradient id="c"><stop offset="0" stop-color="#b4b4b4"/><stop offset="1" stop-color="#969696"/></linearGradient><linearGradient x1="12.274" y1="32.416" x2="35.391" y2="14.203" id="d" gradientUnits="userSpaceOnUse"><stop offset="0" stop-color="#dedbde"/><stop offset=".5" stop-color="#e6e6e6"/><stop offset="1" stop-color="#d2d2d2"/></linearGradient><linearGradient id="e"><stop offset="0" stop-color="#aaa"/><stop offset="1" stop-color="#d4d4d4"/></linearGradient><linearGradient id="f"><stop offset="0" stop-color="#fff"/><stop offset="1" stop-color="#fff" stop-opacity="0"/></linearGradient><linearGradient id="g"><stop offset="0" stop-color="#fcd9cd"/><stop offset="1" stop-color="#fcd9cd" stop-opacity="0"/></linearGradient><linearGradient id="h"><stop offset="0" stop-color="#ebeec7"/><stop offset="1" stop-color="#ebeec7" stop-opacity="0"/></linearGradient><linearGradient id="i"><stop offset="0" stop-color="#c4ebdd"/><stop offset="1" stop-color="#c4ebdd" stop-opacity="0"/></linearGradient><linearGradient id="j"><stop offset="0" stop-color="#c1cbe4"/><stop offset="1" stop-color="#c1cbe4" stop-opacity="0"/></linearGradient><linearGradient id="k"><stop offset="0" stop-color="#e6cde2"/><stop offset="1" stop-color="#e6cde2" stop-opacity="0"/></linearGradient><linearGradient id="l"><stop offset="0" stop-color="#d7e866"/><stop offset="1" stop-color="#8cab2a"/></linearGradient><linearGradient id="m"><stop offset="0" stop-color="#fff"/><stop offset="1" stop-color="#fff" stop-opacity="0"/></linearGradient></defs><g fill="none" stroke="#1a1a1a"><path d="M21.443 11.682a9.627 9.627 0 0 0-9.651-9.652 9.627 9.627 0 0 0-9.652 9.652 9.627 9.627 0 0 0 9.652 9.651 9.627 9.627 0 0 0 9.651-9.651zm-6.12 0a3.515 3.515 0 0 1-3.531 3.53 3.515 3.515 0 0 1-3.531-3.53c0-1.944 1.432-3.532 3.53-3.532 2.1 0 3.532 1.627 3.532 3.532z" stroke-width="1.41246"/><path d="M11.792 8.15a3.532 3.532 0 0 0-3.531 3.532 3.532 3.532 0 0 0 3.53 3.53 3.532 3.532 0 0 0 3.532-3.53 3.532 3.532 0 0 0-3.531-3.532zm0 1.766a1.766 1.766 0 1 1-.002 3.532 1.766 1.766 0 0 1 .002-3.532z" style="marker:none" overflow="visible" stroke-linejoin="round" stroke-width=".47082"/></g><path d="M15.206 18.887l-.045 3.79H18.8l-.045-3.747 3.812-.021V15.27l-3.812-.021.045-3.746H15.16v3.79l-3.767-.023v3.638l2.278-.022z" opacity=".78" fill="#800033"/></svg>