<svg xmlns="http://www.w3.org/2000/svg" version="1" width="24" height="24"><defs><linearGradient id="a"><stop offset="0" stop-color="#0d0d0d"/><stop offset="1" stop-color="#0d0d0d" stop-opacity="0"/></linearGradient><linearGradient id="b"><stop offset="0"/><stop offset="1" stop-opacity="0"/></linearGradient><linearGradient id="c"><stop offset="0" stop-color="#b4b4b4"/><stop offset="1" stop-color="#969696"/></linearGradient><linearGradient x1="12.274" y1="32.416" x2="35.391" y2="14.203" id="d" gradientUnits="userSpaceOnUse"><stop offset="0" stop-color="#dedbde"/><stop offset=".5" stop-color="#e6e6e6"/><stop offset="1" stop-color="#d2d2d2"/></linearGradient><linearGradient id="e"><stop offset="0" stop-color="#aaa"/><stop offset="1" stop-color="#d4d4d4"/></linearGradient><linearGradient id="f"><stop offset="0" stop-color="#fff"/><stop offset="1" stop-color="#fff" stop-opacity="0"/></linearGradient><linearGradient id="g"><stop offset="0" stop-color="#fcd9cd"/><stop offset="1" stop-color="#fcd9cd" stop-opacity="0"/></linearGradient><linearGradient id="h"><stop offset="0" stop-color="#ebeec7"/><stop offset="1" stop-color="#ebeec7" stop-opacity="0"/></linearGradient><linearGradient id="i"><stop offset="0" stop-color="#c4ebdd"/><stop offset="1" stop-color="#c4ebdd" stop-opacity="0"/></linearGradient><linearGradient id="j"><stop offset="0" stop-color="#c1cbe4"/><stop offset="1" stop-color="#c1cbe4" stop-opacity="0"/></linearGradient><linearGradient id="k"><stop offset="0" stop-color="#e6cde2"/><stop offset="1" stop-color="#e6cde2" stop-opacity="0"/></linearGradient><linearGradient id="l"><stop offset="0" stop-color="#d7e866"/><stop offset="1" stop-color="#8cab2a"/></linearGradient><linearGradient id="m"><stop offset="0" stop-color="#fff"/><stop offset="1" stop-color="#fff" stop-opacity="0"/></linearGradient></defs><g fill="none" stroke="#1a1a1a"><path d="M21.625 11.704a9.605 9.605 0 0 0-9.63-9.63 9.605 9.605 0 0 0-9.629 9.63 9.605 9.605 0 0 0 9.63 9.63 9.605 9.605 0 0 0 9.63-9.63zm-6.106 0a3.507 3.507 0 0 1-3.523 3.523 3.507 3.507 0 0 1-3.523-3.523c0-1.939 1.428-3.523 3.523-3.523 2.094 0 3.523 1.623 3.523 3.523z" stroke-width="1.40922"/><path d="M11.996 8.18a3.524 3.524 0 0 0-3.523 3.524 3.524 3.524 0 0 0 3.523 3.523 3.524 3.524 0 0 0 3.523-3.523 3.524 3.524 0 0 0-3.523-3.523zm0 1.762a1.762 1.762 0 1 1-.001 3.525 1.762 1.762 0 0 1 0-3.525z" style="marker:none" overflow="visible" stroke-linejoin="round" stroke-width=".46974"/></g><g opacity=".8"><path d="M21.551 4.12l-4.309 9.803M13.903 12.566l6.68 2.937" fill="#ff0" stroke="#ffd42a" stroke-width="1.5649038000000002" stroke-linecap="round" stroke-linejoin="round"/><path d="M13.337 13.994l6.65 2.923-1.49 3.387c-.174 1.014 2.338.124 3.543.16l-4.565 2.166c-2.156.033-6.646-1.806-6.478-3.313z" fill="#ffd42a"/></g></svg>