<svg xmlns="http://www.w3.org/2000/svg" version="1" width="24" height="24"><defs><linearGradient id="a"><stop offset="0" stop-color="#0d0d0d"/><stop offset="1" stop-color="#0d0d0d" stop-opacity="0"/></linearGradient><linearGradient id="b"><stop offset="0"/><stop offset="1" stop-opacity="0"/></linearGradient><linearGradient id="c"><stop offset="0" stop-color="#b4b4b4"/><stop offset="1" stop-color="#969696"/></linearGradient><linearGradient x1="12.274" y1="32.416" x2="35.391" y2="14.203" id="d" gradientUnits="userSpaceOnUse"><stop offset="0" stop-color="#dedbde"/><stop offset=".5" stop-color="#e6e6e6"/><stop offset="1" stop-color="#d2d2d2"/></linearGradient><linearGradient id="e"><stop offset="0" stop-color="#aaa"/><stop offset="1" stop-color="#d4d4d4"/></linearGradient><linearGradient id="f"><stop offset="0" stop-color="#fff"/><stop offset="1" stop-color="#fff" stop-opacity="0"/></linearGradient><linearGradient id="g"><stop offset="0" stop-color="#fcd9cd"/><stop offset="1" stop-color="#fcd9cd" stop-opacity="0"/></linearGradient><linearGradient id="h"><stop offset="0" stop-color="#ebeec7"/><stop offset="1" stop-color="#ebeec7" stop-opacity="0"/></linearGradient><linearGradient id="i"><stop offset="0" stop-color="#c4ebdd"/><stop offset="1" stop-color="#c4ebdd" stop-opacity="0"/></linearGradient><linearGradient id="j"><stop offset="0" stop-color="#c1cbe4"/><stop offset="1" stop-color="#c1cbe4" stop-opacity="0"/></linearGradient><linearGradient id="k"><stop offset="0" stop-color="#e6cde2"/><stop offset="1" stop-color="#e6cde2" stop-opacity="0"/></linearGradient><linearGradient id="l"><stop offset="0" stop-color="#d7e866"/><stop offset="1" stop-color="#8cab2a"/></linearGradient><linearGradient id="m"><stop offset="0" stop-color="#fff"/><stop offset="1" stop-color="#fff" stop-opacity="0"/></linearGradient></defs><g fill="none" stroke="#1a1a1a"><path d="M13.233 7.74A5.28 5.28 0 0 0 7.94 2.447 5.28 5.28 0 0 0 2.648 7.74a5.28 5.28 0 0 0 5.292 5.293 5.28 5.28 0 0 0 5.293-5.293zm-3.356 0c0 1.066-.85 1.936-1.937 1.936A1.927 1.927 0 0 1 6.004 7.74c0-1.066.785-1.936 1.936-1.936 1.151 0 1.937.892 1.937 1.936z" stroke-width=".7746591599999999"/><path d="M7.94 5.804a1.937 1.937 0 1 0 .002 3.874 1.937 1.937 0 0 0-.002-3.874zm0 .968a.969.969 0 1 1 0 1.937.969.969 0 0 1 0-1.937z" style="marker:none" overflow="visible" stroke-width=".25821972" stroke-linejoin="round"/><path d="M21.7 16.26a5.28 5.28 0 0 0-5.293-5.293 5.28 5.28 0 0 0-5.292 5.293 5.28 5.28 0 0 0 5.292 5.293A5.28 5.28 0 0 0 21.7 16.26zm-3.356 0c0 1.066-.85 1.936-1.937 1.936a1.927 1.927 0 0 1-1.936-1.936c0-1.066.785-1.936 1.936-1.936 1.151 0 1.937.891 1.937 1.936z" stroke-width=".7746591599999999"/><path d="M16.407 14.324a1.937 1.937 0 1 0 .002 3.874 1.937 1.937 0 0 0-.002-3.874zm0 .968a.969.969 0 1 1 0 1.937.969.969 0 0 1 0-1.937z" style="marker:none" overflow="visible" stroke-width=".25821972" stroke-linejoin="round"/></g><path style="marker:none" d="M10.22 17.015l-4.164 4.81-4.143-4.81h1.75V13.08H8.47v3.935z" overflow="visible" opacity=".82" fill="green"/></svg>