<svg xmlns="http://www.w3.org/2000/svg" width="48" height="48" viewBox="0 0 12.7 12.7"><path style="marker:none" d="M6.34.07a6.29 6.29 0 0 0-6.29 6.3 6.29 6.29 0 0 0 6.3 6.28 6.29 6.29 0 0 0 6.28-6.29A6.29 6.29 0 0 0 6.34.07zM6.32 1l.01.01a5.4 5.4 0 0 1 5.4 5.4 5.4 5.4 0 0 1-5.4 5.41 5.4 5.4 0 0 1-5.41-5.4A5.4 5.4 0 0 1 6.32 1zM5.23 3.77a9.2 9.2 0 0 0-1.96.59c-.14.47 0 1.22.25 1.37.36.22.98-.17 1.39-.85.23-.4.34-.8.32-1.11zm2.22 0c-.02.31.1.72.33 1.1.4.7 1.02 1.08 1.38.86.26-.15.39-.9.25-1.37a9.2 9.2 0 0 0-1.96-.6zm-3.79.77a.2.3 0 0 1 .2.3.2.3 0 0 1-.2.3.2.3 0 0 1-.19-.3.2.3 0 0 1 .2-.3zm5.36 0a.2.3 0 0 1 .2.3.2.3 0 0 1-.2.3.2.3 0 0 1-.2-.3.2.3 0 0 1 .2-.3zM3.2 5.9l-.15.02c.02.24.1.48.3.54.38.13.87 0 1.33-.37l-.2-.11c-.36.21-.76.35-1.02.26-.14-.05-.22-.18-.26-.34zm6.28 0c-.04.16-.12.3-.25.34-.27.09-.67-.05-1.03-.26l-.2.11c.46.37.95.5 1.33.37.2-.06.28-.3.3-.54l-.15-.02zM3.41 7.24c-.11 0-.18.02-.2.01 1.87.55 2.97 2.3 5.07 2.28.3 0 .62-.04.97-.13l.13-.44C6.82 9.65 6.08 7.9 3.9 7.3a1.59 1.59 0 0 0-.49-.06zm2 1.71l-.12.3c.55.43 1.11.82 1.83.81.05-.15.05-.2.09-.35-.72.03-1.25-.35-1.8-.76z" overflow="visible" fill="#963996"/></svg>
