<svg xmlns="http://www.w3.org/2000/svg" width="48" height="48" viewBox="0 0 12.7 12.7"><defs><radialGradient id="a" gradientUnits="userSpaceOnUse" cy="10.05" cx="12.05" gradientTransform="matrix(2.4092 0 0 1.2046 -5.02 23.4)" r="9.55"><stop offset="0"/><stop stop-opacity="0" offset="1"/></radialGradient><linearGradient id="b" y2="9.67" gradientUnits="userSpaceOnUse" y1="8.31" x2="19.35" x1="19.1"><stop stop-color="#edd400" offset="0"/><stop stop-color="#fce94f" stop-opacity="0" offset="1"/></linearGradient><radialGradient id="c" gradientUnits="userSpaceOnUse" cy="10.05" cx="12.05" gradientTransform="matrix(2.4092 0 0 1.2046 -5.02 23.4)" r="9.55"><stop offset="0"/><stop stop-opacity="0" offset="1"/></radialGradient></defs><path d="M6.32.05a6.29 6.29 0 0 0-6.3 6.3 6.29 6.29 0 0 0 6.3 6.28 6.29 6.29 0 0 0 6.29-6.3A6.29 6.29 0 0 0 6.3.06zM6.3.98a5.4 5.4 0 0 1 5.4 5.4 5.4 5.4 0 0 1-5.4 5.42A5.4 5.4 0 0 1 .9 6.4 5.4 5.4 0 0 1 6.3.98zM4.22 2.82c-.32-.02-.7.22-1.16.9-.08.13-.01.31.15.24.79-.95 1.22-.8 1.9-.02.15.05.2-.18.15-.22-.32-.44-.64-.88-1.04-.9zm4.37 0c-.31-.02-.68.22-1.15.9-.08.13-.02.31.15.24.78-.95 1.21-.8 1.9-.02.14.05.19-.18.15-.22-.32-.44-.64-.88-1.05-.9zm2.1 2.47c-2.56.74-5.2.66-8.76.03-.21 7.47 9.17 6.97 8.76-.03zm-.4.53a4.9 4.9 0 0 1-.15 1.66l-1.12.02-.13-1.4c.48-.06.94-.15 1.4-.28zm-7.96.02l1.4.2L3.6 7.5l-1.08-.02a5.48 5.48 0 0 1-.19-1.64zm1.44.2c.9.12 1.72.19 2.51.2l-.15 1.48-1.01.1-1.15-.27-.2-1.5zm5.07.08l-.19 1.43-1.15.27-1.01-.1-.18-1.47c.89.02 1.72-.02 2.53-.13zm1.3 1.36a3.8 3.8 0 0 1-1.26 1.95l.15-1.54 1.1-.4zm-7.62.02l1.07.4.15 1.53A3.84 3.84 0 0 1 2.52 7.5zm2.62.4l.97.23.17 2.2c-.9 0-1.8-.29-2.52-.88l.23-1.5 1.15-.05zm2.34 0l1.15.05.23 1.49c-.72.59-1.64.89-2.56.9l.2-2.2.98-.24z" fill="#963996"/></svg>
