<svg xmlns="http://www.w3.org/2000/svg" width="48" height="48" viewBox="0 0 12.7 12.7"><path d="M6.34.07a6.29 6.29 0 0 0-6.29 6.3 6.29 6.29 0 0 0 6.3 6.28 6.29 6.29 0 0 0 6.28-6.29A6.29 6.29 0 0 0 6.34.07zM6.32 1l.01.01a5.4 5.4 0 0 1 5.4 5.4 5.4 5.4 0 0 1-5.4 5.41 5.4 5.4 0 0 1-5.41-5.4A5.4 5.4 0 0 1 6.32 1zm2.02 2.54a.66 1.55 0 0 0-.65 1.55.66 1.55 0 0 0 .65 1.54A.66 1.55 0 0 0 9 5.1a.66 1.55 0 0 0-.66-1.55zm-3.98.03a.66 1.55 0 0 0-.66 1.55.66 1.55 0 0 0 .66 1.54A.66 1.55 0 0 0 5 5.12a.66 1.55 0 0 0-.65-1.55zm3.97.41a.2.3 0 0 1 .2.3.2.3 0 0 1-.2.3.2.3 0 0 1-.2-.3.2.3 0 0 1 .2-.3zm-3.99.03a.2.3 0 0 1 .2.3.2.3 0 0 1-.2.3.2.3 0 0 1-.2-.3.2.3 0 0 1 .2-.3zm-1.5 3.57v.33h4.64c.44.27.97.82.97 1.62 0 .33.15.3.15-.02 0-.8-.35-1.34-.61-1.6h1.87v-.33H2.84z" fill="#963996"/><path d="M5.74 7.74c.34 0 1.37.52 1.37 1.73 0 .57.61 1.03 1.37 1.03.76 0 1.37-.46 1.37-1.03 0-1.21-1.37-1.73-1.71-1.73z" fill="none" stroke="#963996" stroke-width=".33" stroke-linecap="round" stroke-linejoin="round" stroke-dashoffset=".7"/></svg>
