<svg xmlns="http://www.w3.org/2000/svg" width="48" height="48" viewBox="0 0 12.7 12.7"><path d="M1.215.856L.142 3.66h6.04V.856H1.215zm5.174 0V3.66h6.115L11.402.856H6.39zM.194 3.893v6.31c0 .636.246 1.181.737 1.633.491.453 1.083.679 1.775.679H9.96c.692 0 1.283-.226 1.775-.679.49-.452.736-.997.736-1.634v-6.31h-1.116v6.31c0 .354-.136.656-.41.908a1.403 1.403 0 0 1-.985.377H2.706c-.384 0-.712-.126-.986-.377a1.19 1.19 0 0 1-.41-.908v-6.31H.195zm4.094 3.976v.673H4.05v.44h.237v1.573h.483V8.981h.29v-.44h-.29V7.87h-.483zm1.986.624a1.015 1.015 0 0 0-.243.022c-.434.072-.768.467-.803.9-.06.438.157.923.577 1.1.347.152.803.12 1.062-.182.068-.09.024.108.036.16-.03.102.094.05.153.062h.29V8.542h-.443v.268c-.14-.211-.384-.31-.63-.317zm2.35.002a.477.477 0 0 0-.473.243c-.014-.06.029-.176-.024-.196h-.42v2.013h.484c.004-.41-.008-.82.006-1.229.008-.22.213-.38.426-.366v-.465zm-2.328.443c.31-.015.58.253.59.558.032.286-.144.611-.45.651-.289.065-.63-.092-.704-.395-.095-.316.069-.72.41-.795a.625.625 0 0 1 .154-.019z" fill="#1a1a1a"/></svg>