<?xml version="1.0" encoding="UTF-8" standalone="no"?>
<!-- Created with Inkscape (http://www.inkscape.org/) -->

<svg
   xmlns:dc="http://purl.org/dc/elements/1.1/"
   xmlns:cc="http://creativecommons.org/ns#"
   xmlns:rdf="http://www.w3.org/1999/02/22-rdf-syntax-ns#"
   xmlns:svg="http://www.w3.org/2000/svg"
   xmlns="http://www.w3.org/2000/svg"
   xmlns:sodipodi="http://sodipodi.sourceforge.net/DTD/sodipodi-0.dtd"
   xmlns:inkscape="http://www.inkscape.org/namespaces/inkscape"
   width="48"
   height="48"
   viewBox="0 0 12.7 12.7"
   version="1.1"
   id="svg926"
   inkscape:version="0.92.3 (2405546, 2018-03-11)"
   sodipodi:docname="application-x-arj.svg">
  <defs
     id="defs920" />
  <sodipodi:namedview
     id="base"
     pagecolor="#ffffff"
     bordercolor="#666666"
     borderopacity="1.0"
     inkscape:pageopacity="0.0"
     inkscape:pageshadow="2"
     inkscape:zoom="10.3125"
     inkscape:cx="24"
     inkscape:cy="24"
     inkscape:document-units="mm"
     inkscape:current-layer="layer1"
     showgrid="false"
     units="px"
     inkscape:window-width="1366"
     inkscape:window-height="690"
     inkscape:window-x="0"
     inkscape:window-y="28"
     inkscape:window-maximized="1"
     showguides="true"
     inkscape:guide-bbox="true"
     inkscape:snap-global="false" />
  <metadata
     id="metadata923">
    <rdf:RDF>
      <cc:Work
         rdf:about="">
        <dc:format>image/svg+xml</dc:format>
        <dc:type
           rdf:resource="http://purl.org/dc/dcmitype/StillImage" />
        <dc:title></dc:title>
      </cc:Work>
    </rdf:RDF>
  </metadata>
  <g
     inkscape:label="Capa 1"
     inkscape:groupmode="layer"
     id="layer1"
     transform="translate(0,-284.29998)">
    <path
       style="opacity:1;fill:#1a1a1a;fill-opacity:1;stroke:none;stroke-width:1.13564169"
       d="M 4.5917969 3.234375 L 0.53515625 13.837891 L 23.365234 13.837891 L 23.365234 3.234375 L 4.5917969 3.234375 z M 24.146484 3.234375 L 24.146484 13.837891 L 47.259766 13.837891 L 43.095703 3.234375 L 24.146484 3.234375 z M 0.734375 14.712891 L 0.734375 38.560547 C 0.734375 40.967577 1.6633573 43.026545 3.5195312 44.736328 C 5.3762885 46.445922 7.6123767 47.300781 10.226562 47.300781 L 37.644531 47.300781 C 40.258718 47.300781 42.494235 46.445922 44.351562 44.736328 C 46.208203 43.026545 47.134766 40.967652 47.134766 38.560547 L 47.134766 14.712891 L 42.917969 14.712891 L 42.917969 38.560547 L 42.916016 38.560547 C 42.916016 39.895363 42.401636 41.039003 41.369141 41.990234 C 40.336653 42.940937 39.095098 43.414062 37.644531 43.414062 L 10.226562 43.414062 C 8.7764598 43.414062 7.534675 42.940937 6.5019531 41.990234 C 5.469458 41.039078 4.953125 39.895363 4.953125 38.560547 L 4.953125 14.712891 L 0.734375 14.712891 z M 30.15625 29.654297 L 30.15625 31.154297 L 31.751953 31.154297 L 31.751953 29.654297 L 30.15625 29.654297 z M 19.755859 31.71875 C 19.500798 31.700749 19.243666 31.714962 18.994141 31.757812 C 17.556242 31.923734 16.379419 33.154944 16.199219 34.578125 C 15.934879 36.044733 16.599936 37.719538 18.003906 38.353516 C 19.160204 38.897276 20.712039 38.80447 21.585938 37.789062 C 21.808325 37.491614 21.664297 38.133903 21.705078 38.302734 C 21.601368 38.644026 21.991399 38.491689 22.197266 38.523438 L 23.167969 38.523438 L 23.167969 31.875 L 21.705078 31.875 L 21.705078 32.763672 C 21.265345 32.108415 20.521045 31.772752 19.755859 31.71875 z M 28.210938 31.71875 C 27.577969 31.645805 26.957893 31.963236 26.650391 32.523438 C 26.622422 32.322745 26.705313 32.011554 26.613281 31.875 L 25.185547 31.875 L 25.185547 38.523438 L 25.1875 38.523438 L 26.783203 38.523438 C 26.796054 37.170745 26.755932 35.816138 26.804688 34.464844 C 26.830388 33.737134 27.506328 33.211563 28.210938 33.255859 L 28.210938 31.71875 z M 30.15625 31.875 C 30.150203 34.079183 30.168028 36.284363 30.146484 38.488281 C 30.331077 39.177138 29.334126 38.970344 29.496094 39.535156 L 29.496094 40.742188 C 30.584896 40.794345 31.609421 39.935428 31.699219 38.837891 C 31.793518 36.519906 31.751953 34.195479 31.751953 31.875 L 30.15625 31.875 z M 19.701172 33.183594 C 20.721172 33.134838 21.611785 34.0171 21.646484 35.023438 C 21.751291 35.967979 21.170044 37.042969 20.164062 37.175781 C 19.208303 37.391592 18.079093 36.868473 17.837891 35.871094 C 17.523245 34.826886 18.064721 33.495706 19.193359 33.244141 C 19.359205 33.202188 19.530213 33.183594 19.701172 33.183594 z "
       transform="matrix(0.26458333,0,0,0.26458333,0,284.29998)"
       id="path828" />
  </g>
</svg>
