<?xml version="1.0" encoding="UTF-8" standalone="no"?>
<!-- Created with Inkscape (http://www.inkscape.org/) -->

<svg
   xmlns:dc="http://purl.org/dc/elements/1.1/"
   xmlns:cc="http://creativecommons.org/ns#"
   xmlns:rdf="http://www.w3.org/1999/02/22-rdf-syntax-ns#"
   xmlns:svg="http://www.w3.org/2000/svg"
   xmlns="http://www.w3.org/2000/svg"
   xmlns:sodipodi="http://sodipodi.sourceforge.net/DTD/sodipodi-0.dtd"
   xmlns:inkscape="http://www.inkscape.org/namespaces/inkscape"
   width="48"
   height="48"
   viewBox="0 0 12.7 12.7"
   version="1.1"
   id="svg926"
   inkscape:version="0.92.3 (2405546, 2018-03-11)"
   sodipodi:docname="application-x-ace.svg">
  <defs
     id="defs920" />
  <sodipodi:namedview
     id="base"
     pagecolor="#ffffff"
     bordercolor="#666666"
     borderopacity="1.0"
     inkscape:pageopacity="0.0"
     inkscape:pageshadow="2"
     inkscape:zoom="7.2920387"
     inkscape:cx="29.209324"
     inkscape:cy="24"
     inkscape:document-units="mm"
     inkscape:current-layer="layer1"
     showgrid="false"
     units="px"
     inkscape:window-width="1366"
     inkscape:window-height="690"
     inkscape:window-x="0"
     inkscape:window-y="28"
     inkscape:window-maximized="1"
     showguides="true"
     inkscape:guide-bbox="true"
     inkscape:snap-global="false" />
  <metadata
     id="metadata923">
    <rdf:RDF>
      <cc:Work
         rdf:about="">
        <dc:format>image/svg+xml</dc:format>
        <dc:type
           rdf:resource="http://purl.org/dc/dcmitype/StillImage" />
        <dc:title></dc:title>
      </cc:Work>
    </rdf:RDF>
  </metadata>
  <g
     inkscape:label="Capa 1"
     inkscape:groupmode="layer"
     id="layer1"
     transform="translate(0,-284.29998)">
    <path
       style="opacity:1;fill:#1a1a1a;fill-opacity:1;stroke:none;stroke-width:1.13564169"
       d="M 4.5917969 3.234375 L 0.53515625 13.837891 L 23.365234 13.837891 L 23.365234 3.234375 L 4.5917969 3.234375 z M 24.146484 3.234375 L 24.146484 13.837891 L 47.259766 13.837891 L 43.095703 3.234375 L 24.146484 3.234375 z M 0.734375 14.712891 L 0.734375 38.560547 C 0.734375 40.967577 1.6633573 43.026545 3.5195312 44.736328 C 5.3762885 46.445922 7.6123767 47.300781 10.226562 47.300781 L 37.644531 47.300781 C 40.258718 47.300781 42.494235 46.445922 44.351562 44.736328 C 46.208203 43.026545 47.134766 40.967652 47.134766 38.560547 L 47.134766 14.712891 L 42.917969 14.712891 L 42.917969 38.560547 L 42.916016 38.560547 C 42.916016 39.895363 42.401636 41.039003 41.369141 41.990234 C 40.336653 42.940937 39.095098 43.414062 37.644531 43.414062 L 10.226562 43.414062 C 8.7764598 43.414062 7.534675 42.940937 6.5019531 41.990234 C 5.469458 41.039078 4.953125 39.895363 4.953125 38.560547 L 4.953125 14.712891 L 0.734375 14.712891 z M 16.521484 29.78125 C 14.685373 29.78125 13.363281 31.26499 13.363281 33.304688 C 13.363281 35.320234 14.674562 36.78125 16.488281 36.78125 C 17.361554 36.78125 17.953497 36.478177 18.546875 35.753906 L 18.546875 36.623047 L 19.914062 36.623047 L 19.914062 29.9375 L 18.546875 29.9375 L 18.546875 30.830078 C 18.031868 30.093864 17.417149 29.78125 16.521484 29.78125 z M 24.023438 29.78125 C 22.187326 29.78125 20.755859 31.313968 20.755859 33.28125 C 20.755859 35.224419 22.232248 36.78125 24.068359 36.78125 C 25.512617 36.78125 26.63343 35.924314 27.148438 34.427734 L 25.46875 34.427734 C 25.09929 35.043268 24.674363 35.308594 24.058594 35.308594 C 23.02858 35.308594 22.255859 34.438287 22.255859 33.267578 C 22.255859 32.096869 22.993424 31.251953 24.023438 31.251953 C 24.695185 31.251953 25.166463 31.554275 25.46875 32.169922 L 27.148438 32.169922 C 26.935718 31.494029 26.734034 31.145094 26.308594 30.722656 C 25.704021 30.119217 24.885514 29.78125 24.023438 29.78125 z M 31.197266 29.78125 C 29.37235 29.78125 27.927734 31.337406 27.927734 33.304688 C 27.927734 35.259913 29.395019 36.78125 31.287109 36.78125 C 32.305927 36.78125 33.100644 36.382849 33.75 35.574219 C 33.985113 35.260518 34.141425 34.982459 34.242188 34.644531 L 32.619141 34.644531 C 32.238484 35.12729 31.867722 35.308594 31.251953 35.308594 C 30.367485 35.308594 29.718195 34.800817 29.539062 33.992188 L 34.34375 33.992188 C 34.388534 33.76277 34.398438 33.618314 34.398438 33.376953 C 34.398438 31.301048 33.044572 29.78125 31.197266 29.78125 z M 16.677734 31.251953 C 17.741335 31.251953 18.501953 32.109114 18.501953 33.328125 C 18.501953 33.810884 18.323385 34.367151 18.054688 34.705078 C 17.752401 35.091308 17.272158 35.308594 16.701172 35.308594 C 15.615179 35.308594 14.863281 34.510552 14.863281 33.339844 C 14.863281 32.120871 15.614133 31.251953 16.677734 31.251953 z M 31.21875 31.251953 C 32.136806 31.251953 32.741312 31.723184 32.931641 32.580078 L 29.494141 32.580078 C 29.729254 31.723184 30.334282 31.251953 31.21875 31.251953 z "
       transform="matrix(0.26458333,0,0,0.26458333,0,284.29998)"
       id="path828" />
  </g>
</svg>
