<?xml version="1.0" encoding="UTF-8" standalone="no"?>
<svg
   xmlns:dc="http://purl.org/dc/elements/1.1/"
   xmlns:cc="http://creativecommons.org/ns#"
   xmlns:rdf="http://www.w3.org/1999/02/22-rdf-syntax-ns#"
   xmlns:svg="http://www.w3.org/2000/svg"
   xmlns="http://www.w3.org/2000/svg"
   xmlns:sodipodi="http://sodipodi.sourceforge.net/DTD/sodipodi-0.dtd"
   xmlns:inkscape="http://www.inkscape.org/namespaces/inkscape"
   width="48"
   height="48"
   viewBox="0 0 12.7 12.7"
   version="1.1"
   id="svg4"
   sodipodi:docname="application-vnd.android.package-archive.svg"
   inkscape:version="0.92.3 (2405546, 2018-03-11)">
  <metadata
     id="metadata10">
    <rdf:RDF>
      <cc:Work
         rdf:about="">
        <dc:format>image/svg+xml</dc:format>
        <dc:type
           rdf:resource="http://purl.org/dc/dcmitype/StillImage" />
        <dc:title></dc:title>
      </cc:Work>
    </rdf:RDF>
  </metadata>
  <defs
     id="defs8" />
  <sodipodi:namedview
     pagecolor="#ffffff"
     bordercolor="#666666"
     borderopacity="1"
     objecttolerance="10"
     gridtolerance="10"
     guidetolerance="10"
     inkscape:pageopacity="0"
     inkscape:pageshadow="2"
     inkscape:window-width="879"
     inkscape:window-height="480"
     id="namedview6"
     showgrid="false"
     inkscape:zoom="4.9166667"
     inkscape:cx="70.169492"
     inkscape:cy="24"
     inkscape:window-x="58"
     inkscape:window-y="26"
     inkscape:window-maximized="0"
     inkscape:current-layer="svg4" />
  <path
     d="M1.215.856L.142 3.66h6.04V.856H1.215zm5.174 0V3.66h6.115L11.402.856H6.39zM.194 3.893v6.31c0 .636.246 1.181.737 1.633.491.453 1.083.679 1.775.679H9.96c.692 0 1.283-.226 1.775-.679.49-.452.736-.997.736-1.634v-6.31h-1.116v6.31c0 .354-.136.656-.41.908a1.403 1.403 0 0 1-.985.377H2.706c-.384 0-.712-.126-.986-.377a1.19 1.19 0 0 1-.41-.908v-6.31H.195z"
     fill="#1a1a1a"
     id="path2" />
  <path
     inkscape:connector-curvature="0"
     style="fill:#1a1a1a;fill-opacity:1;stroke-width:1.22115386"
     d="m 5.4938883,5.1288034 c -0.011398,-0.0024 -0.024016,-8.21e-4 -0.034192,0.0061 -0.020352,0.01303 -0.024016,0.04152 -0.00855,0.06309 l 0.2104453,0.293077 c -0.4668877,0.174625 -0.7900863,0.55074 -0.7900863,1.108401 h 2.8493588 c 0,-0.57435 -0.3419229,-0.958199 -0.8316058,-1.12509 l 0.1986412,-0.276388 c 0.015468,-0.02157 0.011803,-0.04966 -0.00773,-0.06309 -0.020352,-0.01343 -0.048846,-0.0069 -0.064314,0.01465 l -0.2132988,0.297961 c -0.1575287,-0.04396 -0.3276761,-0.0692 -0.5063717,-0.0692 -0.1953848,0 -0.3822211,0.02727 -0.5515544,0.07938 l -0.221029,-0.308138 c -0.00814,-0.01099 -0.018317,-0.01791 -0.029714,-0.02076 z m 0.3960609,0.656573 c 0.1127532,0 0.2027115,0.09077 0.2027115,0.202712 0,0.111939 -0.091179,0.20434 -0.2027115,0.20434 -0.112753,0 -0.2043396,-0.09118 -0.2043396,-0.20434 0,-0.111939 0.091587,-0.202712 0.2043396,-0.202712 z m 0.8141025,0 c 0.1127532,0 0.2027116,0.09077 0.2027116,0.202712 0,0.111939 -0.091179,0.20434 -0.2027116,0.20434 -0.112753,0 -0.2043396,-0.09118 -0.2043396,-0.20434 0,-0.111939 0.091587,-0.202712 0.2043396,-0.202712 z m -2.6283301,1.221154 c -0.2340951,0 -0.4253685,0.123337 -0.4253685,0.275167 v 1.077057 c 0,0.15183 0.1912734,0.275981 0.4253685,0.275981 0.2340546,0 0.388734,-0.124151 0.388734,-0.275981 v -1.077057 c 0,-0.152237 -0.1542724,-0.275167 -0.388734,-0.275167 z m 0.7957854,0 v 2.238782 c 0,0.112753 0.090772,0.203526 0.2035255,0.203526 H 5.2785582 V 10.01179 c 0,0.166484 0.2609199,0.25115 0.4070514,0.25115 0.1461312,0 0.4290319,-0.0867 0.4070511,-0.25115 V 9.4488384 H 6.4997121 V 10.01179 c 0,0.166484 0.2609199,0.25115 0.4070512,0.25115 0.1461315,0 0.4180416,-0.08548 0.4070514,-0.25115 V 9.4488384 h 0.2035257 c 0.112753,0 0.2035254,-0.09077 0.2035254,-0.203526 v -2.238782 z m 3.6817787,0 c -0.2340544,0 -0.4253685,0.123337 -0.4253685,0.275167 v 1.077057 c 0,0.15183 0.1913141,0.275981 0.4253685,0.275981 0.2340547,0 0.3887341,-0.124151 0.3887341,-0.275981 v -1.077057 c 0,-0.152237 -0.1542725,-0.275167 -0.3887341,-0.275167 z"
     id="path8" />
</svg>
