<?xml version="1.0" encoding="UTF-8" standalone="no"?><svg xmlns:dc="http://purl.org/dc/elements/1.1/" xmlns:cc="http://creativecommons.org/ns#" xmlns:rdf="http://www.w3.org/1999/02/22-rdf-syntax-ns#" xmlns="http://www.w3.org/2000/svg" width="48" height="48" viewBox="0 0 12.7 12.7"><metadata><rdf:RDF><cc:Work><dc:format>image/svg+xml</dc:format><dc:type rdf:resource="http://purl.org/dc/dcmitype/StillImage"/><dc:title/></cc:Work></rdf:RDF></metadata><path d="M1.21.86L.14 3.66h6.04V.86H1.21zm5.18 0v2.8h6.11L11.4.86H6.4zM.19 3.89v6.31c0 .64.25 1.18.74 1.64.5.45 1.08.67 1.78.67h7.25c.7 0 1.28-.22 1.78-.67.49-.46.73-1 .73-1.64V3.9h-1.12v6.3c0 .36-.13.66-.4.91a1.4 1.4 0 0 1-.99.38H2.71a1.4 1.4 0 0 1-.99-.38 1.19 1.19 0 0 1-.41-.9V3.88H.19zm1.53 1.4v1.06H2v1.06h.53V6.35h.26V5.29H1.72zm1.32.05v.53h.53v-.53h-.53zm.53.53v.53h.53v-.53h-.53zm.53 0h.53v-.53H4.1v.53zm.53 0v.53h.53v-.53h-.53zm.53 0h.52v-.53h-.52v.53zm.52 0v.53h.53v-.53h-.53zm.53 0h.53v-.53h-.53v.53zm.53 0v.53h.53v-.53h-.53zm.53 0h.53v-.53h-.53v.53zm.53 0v.53h.53v-.53H7.8zm.53 0h.53v-.53h-.53v.53zm.53 0v.53h.53v-.53h-.53zm.53 0h.53v-.53h-.53v.53zm.53 0v.53h.53v-.53h-.53zm.53 0h.53v-.53h-.53v.53zm-8.46-.31h.53v.53h-.53v-.53zM6.3 7.9v.4h.43v-.4H6.3zm.88 0v.59H7v.38h.2v1.38h.43V8.87h.25V8.5h-.25V7.9h-.43zm-1.79.55c-.32 0-.58.23-.58.53 0 .26.14.4.49.52.16.06.17.07.22.1.05.03.08.08.08.13 0 .1-.09.17-.2.17-.12 0-.19-.06-.23-.21h-.42c.02.17.04.26.11.35a.66.66 0 0 0 .53.25.6.6 0 0 0 .63-.6.45.45 0 0 0-.17-.37.94.94 0 0 0-.32-.14l-.21-.08c-.06-.02-.09-.06-.09-.12 0-.08.07-.14.16-.14.1 0 .15.04.17.14h.41a.47.47 0 0 0-.13-.34.6.6 0 0 0-.45-.2zm.91.04v1.76h.43V8.49H6.3z" fill="#1a1a1a"/></svg>