<svg xmlns="http://www.w3.org/2000/svg" width="48" height="48"><defs><linearGradient id="a"><stop offset="0" stop-color="#dc85e9"/><stop offset="1" stop-color="#f2cbf8"/></linearGradient><linearGradient id="b"><stop offset="0" stop-color="#dc85e9"/><stop offset="1" stop-color="#f2cbf8"/></linearGradient><linearGradient id="c"><stop offset="0" stop-color="#fff" stop-opacity=".588"/><stop offset="1" stop-color="#fff" stop-opacity=".863"/></linearGradient><linearGradient id="d"><stop offset="0" stop-color="#b3b3b3"/><stop offset="1" stop-color="#e6e6e6"/></linearGradient><linearGradient id="e"><stop offset="0" stop-color="#e694bb"/><stop offset=".262" stop-color="#d3819a"/><stop offset=".705" stop-color="#b25a64"/><stop offset="1" stop-color="#98313d"/></linearGradient></defs><path style="line-height:normal;text-indent:0;text-align:start;text-decoration-line:none;text-transform:none;marker:none" d="M29.705-.084c-2.047.008-4.121.088-4.517.098H7a2.938 2.938 0 0 0-.563 0C5.063.276 3.975 1.612 4 3.012V45c0 1.57 1.43 3 3 3h34c1.57 0 3-1.43 3-3V18.818c.018-.792.215-9.927-.336-10.496L34.054.248c-.284-.275-2.302-.34-4.349-.332zm1.49 3.094l.133 7.504c.012.681.638 1.29 1.317 1.279l7.771-.137c.133.018.268.017.4-.006l.082 3.03L41 18.77v26.227H7V3.021h18.672l5.523-.011zm-7.283 11.853c-7.21 0-13.01 5.798-13.01 13.008 0 7.21 5.8 13.01 13.01 13.01s13.008-5.8 13.008-13.01-5.797-13.008-13.008-13.008zm0 10.18c1.486 0 2.863 1.118 2.863 2.828 0 1.71-1.153 2.83-2.863 2.83s-2.83-1.12-2.83-2.83 1.19-2.828 2.83-2.828z" color="#000" font-weight="400" font-family="Andale Mono" overflow="visible" fill="#1a1a1a"/><path d="M23.911 21.085c-3.79 0-6.787 3.085-6.787 6.787 0 3.79 3.085 6.787 6.787 6.787 3.79 0 6.787-3.085 6.787-6.787 0-3.79-3.085-6.787-6.787-6.787zm0 10.18c-2.027 0-3.393-1.366-3.393-3.393 0-2.027 1.366-3.394 3.393-3.394 2.028 0 3.394 1.367 3.394 3.394s-1.366 3.393-3.394 3.393z" opacity=".511" fill="#eeeeec"/></svg>