<?xml version="1.0" encoding="UTF-8" standalone="no"?>
<!-- Created with Inkscape (http://www.inkscape.org/) -->

<svg
   xmlns:dc="http://purl.org/dc/elements/1.1/"
   xmlns:cc="http://creativecommons.org/ns#"
   xmlns:rdf="http://www.w3.org/1999/02/22-rdf-syntax-ns#"
   xmlns:svg="http://www.w3.org/2000/svg"
   xmlns="http://www.w3.org/2000/svg"
   xmlns:sodipodi="http://sodipodi.sourceforge.net/DTD/sodipodi-0.dtd"
   xmlns:inkscape="http://www.inkscape.org/namespaces/inkscape"
   width="48"
   height="48"
   viewBox="0 0 12.7 12.7"
   version="1.1"
   id="svg926"
   inkscape:version="0.92.3 (2405546, 2018-03-11)"
   sodipodi:docname="application-x-bzip.svg">
  <defs
     id="defs920" />
  <sodipodi:namedview
     id="base"
     pagecolor="#ffffff"
     bordercolor="#666666"
     borderopacity="1.0"
     inkscape:pageopacity="0.0"
     inkscape:pageshadow="2"
     inkscape:zoom="10.3125"
     inkscape:cx="24"
     inkscape:cy="24"
     inkscape:document-units="mm"
     inkscape:current-layer="layer1"
     showgrid="false"
     units="px"
     inkscape:window-width="1366"
     inkscape:window-height="690"
     inkscape:window-x="0"
     inkscape:window-y="28"
     inkscape:window-maximized="1"
     showguides="true"
     inkscape:guide-bbox="true"
     inkscape:snap-global="false" />
  <metadata
     id="metadata923">
    <rdf:RDF>
      <cc:Work
         rdf:about="">
        <dc:format>image/svg+xml</dc:format>
        <dc:type
           rdf:resource="http://purl.org/dc/dcmitype/StillImage" />
        <dc:title></dc:title>
      </cc:Work>
    </rdf:RDF>
  </metadata>
  <g
     inkscape:label="Capa 1"
     inkscape:groupmode="layer"
     id="layer1"
     transform="translate(0,-284.29998)">
    <path
       style="opacity:1;fill:#1a1a1a;fill-opacity:1;stroke:none;stroke-width:1.13564169"
       d="M 4.5917969 3.234375 L 0.53515625 13.837891 L 23.365234 13.837891 L 23.365234 3.234375 L 4.5917969 3.234375 z M 24.146484 3.234375 L 24.146484 13.837891 L 47.259766 13.837891 L 43.095703 3.234375 L 24.146484 3.234375 z M 0.734375 14.712891 L 0.734375 38.560547 C 0.734375 40.967577 1.6633573 43.026545 3.5195312 44.736328 C 5.3762885 46.445922 7.6123767 47.300781 10.226562 47.300781 L 37.644531 47.300781 C 40.258718 47.300781 42.494235 46.445922 44.351562 44.736328 C 46.208203 43.026545 47.134766 40.967652 47.134766 38.560547 L 47.134766 14.712891 L 42.917969 14.712891 L 42.917969 38.560547 L 42.916016 38.560547 C 42.916016 39.895363 42.401636 41.039003 41.369141 41.990234 C 40.336653 42.940937 39.095098 43.414062 37.644531 43.414062 L 10.226562 43.414062 C 8.7764598 43.414062 7.534675 42.940937 6.5019531 41.990234 C 5.469458 41.039078 4.953125 39.895363 4.953125 38.560547 L 4.953125 14.712891 L 0.734375 14.712891 z M 30.84375 29.783203 C 30.723137 29.780148 30.600289 29.78585 30.476562 29.800781 C 28.837162 29.823458 27.557314 31.406213 27.728516 33.011719 L 29.300781 33.011719 C 28.91186 30.950818 32.309573 30.680819 31.951172 32.865234 C 31.591323 34.195968 30.286185 34.924679 29.396484 35.892578 C 28.880764 36.437246 28.201662 36.912952 27.789062 37.501953 L 27.789062 38.820312 L 33.525391 38.820312 C 33.466241 38.351046 33.641733 37.646486 33.439453 37.320312 L 30.033203 37.320312 C 31.212601 36.120501 32.817832 35.203143 33.427734 33.564453 C 34.057472 31.826248 32.652948 29.829031 30.84375 29.783203 z M 14.515625 29.951172 L 14.515625 38.820312 C 14.969474 38.75795 15.670971 38.941493 15.980469 38.734375 C 15.696324 37.040882 17.274957 39.560424 18.285156 38.976562 C 20.529855 39.098263 21.984178 36.56222 21.421875 34.548828 C 21.049667 32.219316 17.767128 30.988683 16.111328 32.783203 L 16.111328 29.951172 L 14.515625 29.951172 z M 22.365234 32.171875 C 22.468038 32.601947 22.153827 33.449978 22.537109 33.599609 L 24.958984 33.599609 C 23.982982 34.863597 23.005296 36.128553 22.029297 37.392578 L 22.029297 38.820312 L 27.09375 38.820312 C 26.990947 38.390278 27.30711 37.542172 26.923828 37.392578 L 23.9375 37.392578 C 24.913503 36.128553 25.889236 34.863597 26.865234 33.599609 C 26.762431 33.169537 27.078594 32.321469 26.695312 32.171875 L 22.365234 32.171875 z M 17.947266 33.396484 C 19.807666 33.295949 20.589543 35.948674 19.244141 37.068359 C 18.10044 38.098167 16.024291 37.241298 16.025391 35.669922 C 15.866084 34.529827 16.744866 33.342286 17.947266 33.396484 z "
       transform="matrix(0.26458333,0,0,0.26458333,0,284.29998)"
       id="path828" />
  </g>
</svg>
