<svg xmlns="http://www.w3.org/2000/svg" width="48" height="48" viewBox="0 0 12.7 12.7"><path d="M1.215.856L.142 3.66h6.04V.856H1.215zm5.174 0V3.66h6.115L11.402.856H6.39zM.194 3.893v6.31c0 .636.246 1.181.737 1.633.491.453 1.083.679 1.775.679H9.96c.692 0 1.283-.226 1.775-.679.49-.452.736-.997.736-1.634v-6.31h-1.116v6.31c0 .354-.136.656-.41.908a1.403 1.403 0 0 1-.985.377H2.706c-.384 0-.712-.126-.986-.377a1.19 1.19 0 0 1-.41-.908v-6.31H.195zM8.161 7.88a.67.67 0 0 0-.097.005c-.434.006-.773.425-.727.85h.415c-.102-.546.797-.617.702-.04-.095.353-.44.545-.676.802-.137.144-.316.27-.425.425v.35H8.87c-.015-.125.031-.311-.022-.398h-.902c.312-.317.737-.56.898-.993.167-.46-.205-.989-.683-1zm-4.32.045v2.346c.12-.016.305.032.387-.023-.075-.448.343.219.61.065.594.032.979-.64.83-1.172-.099-.616-.967-.942-1.405-.467v-.75H3.84zm2.076.587c.028.114-.055.338.046.378h.64L5.83 9.893v.378h1.34c-.028-.114.056-.338-.045-.378h-.79l.774-1.003c-.027-.114.057-.338-.045-.378H5.917zm-1.168.324c.492-.026.699.675.343.972-.303.272-.852.045-.852-.37-.042-.302.19-.616.509-.602z" fill="#1a1a1a"/></svg>