<?xml version="1.0" encoding="UTF-8" standalone="no"?>
<!-- Created with Inkscape (http://www.inkscape.org/) -->

<svg
   xmlns:dc="http://purl.org/dc/elements/1.1/"
   xmlns:cc="http://creativecommons.org/ns#"
   xmlns:rdf="http://www.w3.org/1999/02/22-rdf-syntax-ns#"
   xmlns:svg="http://www.w3.org/2000/svg"
   xmlns="http://www.w3.org/2000/svg"
   xmlns:sodipodi="http://sodipodi.sourceforge.net/DTD/sodipodi-0.dtd"
   xmlns:inkscape="http://www.inkscape.org/namespaces/inkscape"
   width="48"
   height="48"
   viewBox="0 0 12.7 12.7"
   version="1.1"
   id="svg926"
   inkscape:version="0.92.3 (2405546, 2018-03-11)"
   sodipodi:docname="application-x-zoo.svg">
  <defs
     id="defs920" />
  <sodipodi:namedview
     id="base"
     pagecolor="#ffffff"
     bordercolor="#666666"
     borderopacity="1.0"
     inkscape:pageopacity="0.0"
     inkscape:pageshadow="2"
     inkscape:zoom="7.2920387"
     inkscape:cx="10.323632"
     inkscape:cy="24"
     inkscape:document-units="mm"
     inkscape:current-layer="layer1"
     showgrid="false"
     units="px"
     inkscape:window-width="1366"
     inkscape:window-height="690"
     inkscape:window-x="0"
     inkscape:window-y="28"
     inkscape:window-maximized="1"
     showguides="true"
     inkscape:guide-bbox="true"
     inkscape:snap-global="false" />
  <metadata
     id="metadata923">
    <rdf:RDF>
      <cc:Work
         rdf:about="">
        <dc:format>image/svg+xml</dc:format>
        <dc:type
           rdf:resource="http://purl.org/dc/dcmitype/StillImage" />
        <dc:title></dc:title>
      </cc:Work>
    </rdf:RDF>
  </metadata>
  <g
     inkscape:label="Capa 1"
     inkscape:groupmode="layer"
     id="layer1"
     transform="translate(0,-284.29998)">
    <path
       style="opacity:1;fill:#1a1a1a;fill-opacity:1;stroke:none;stroke-width:1.13564169"
       d="M 4.5917969 3.234375 L 0.53515625 13.837891 L 23.365234 13.837891 L 23.365234 3.234375 L 4.5917969 3.234375 z M 24.146484 3.234375 L 24.146484 13.837891 L 47.259766 13.837891 L 43.095703 3.234375 L 24.146484 3.234375 z M 0.734375 14.712891 L 0.734375 38.560547 C 0.734375 40.967577 1.6633574 43.026545 3.5195312 44.736328 C 5.3762887 46.445922 7.6123767 47.300781 10.226562 47.300781 L 37.644531 47.300781 C 40.25872 47.300781 42.494235 46.445922 44.351562 44.736328 C 46.208203 43.026545 47.134766 40.967652 47.134766 38.560547 L 47.134766 14.712891 L 42.917969 14.712891 L 42.917969 38.560547 L 42.916016 38.560547 C 42.916016 39.895363 42.401636 41.039003 41.369141 41.990234 C 40.336653 42.940937 39.095098 43.414062 37.644531 43.414062 L 10.226562 43.414062 C 8.7764598 43.414062 7.534675 42.940937 6.5019531 41.990234 C 5.469458 41.039078 4.953125 39.895363 4.953125 38.560547 L 4.953125 14.712891 L 0.734375 14.712891 z M 22.882812 29.800781 C 20.950812 29.800781 19.365234 31.373269 19.365234 33.28125 C 19.365234 35.20125 20.950531 36.761719 22.894531 36.761719 C 24.826531 36.761719 26.433594 35.202078 26.433594 33.330078 C 26.433594 31.350097 24.886812 29.800781 22.882812 29.800781 z M 30.570312 29.800781 C 28.638313 29.800781 27.054688 31.373269 27.054688 33.28125 C 27.054688 35.20125 28.638031 36.761719 30.582031 36.761719 C 32.514031 36.761719 34.123047 35.202078 34.123047 33.330078 C 34.123047 31.350097 32.574312 29.800781 30.570312 29.800781 z M 14.050781 29.957031 L 14.050781 31.384766 L 16.642578 31.384766 L 13.714844 35.177734 L 13.714844 36.605469 L 18.779297 36.605469 L 18.779297 35.177734 L 15.623047 35.177734 L 18.550781 31.384766 L 18.550781 29.957031 L 14.050781 29.957031 z M 22.894531 31.265625 C 23.962531 31.265625 24.826172 32.17725 24.826172 33.28125 C 24.826172 34.397269 23.96225 35.296875 22.90625 35.296875 C 21.82625 35.296875 20.974609 34.397831 20.974609 33.257812 C 20.974609 32.165831 21.850531 31.265625 22.894531 31.265625 z M 30.582031 31.265625 C 31.650031 31.265625 32.513672 32.17725 32.513672 33.28125 C 32.513672 34.397269 31.64975 35.296875 30.59375 35.296875 C 29.51375 35.296875 28.662109 34.397831 28.662109 33.257812 C 28.662109 32.165831 29.538031 31.265625 30.582031 31.265625 z "
       transform="matrix(0.26458333,0,0,0.26458333,0,284.29998)"
       id="path828" />
  </g>
</svg>
