<svg xmlns="http://www.w3.org/2000/svg" width="48" height="48"><defs><linearGradient id="a"><stop offset="0" stop-color="#dc85e9"/><stop offset="1" stop-color="#f2cbf8"/></linearGradient><linearGradient id="b"><stop offset="0" stop-color="#dc85e9"/><stop offset="1" stop-color="#f2cbf8"/></linearGradient><linearGradient id="c"><stop offset="0" stop-color="#fff" stop-opacity=".588"/><stop offset="1" stop-color="#fff" stop-opacity=".863"/></linearGradient><linearGradient id="d"><stop offset="0" stop-color="#b3b3b3"/><stop offset="1" stop-color="#e6e6e6"/></linearGradient><linearGradient id="e"><stop offset="0" stop-color="#e694bb"/><stop offset=".262" stop-color="#d3819a"/><stop offset=".705" stop-color="#b25a64"/><stop offset="1" stop-color="#98313d"/></linearGradient></defs><path style="line-height:normal;text-indent:0;text-align:start;text-decoration-line:none;text-transform:none;marker:none" d="M29.705-.084c-2.047.008-4.121.088-4.517.098H7a2.938 2.938 0 0 0-.563 0C5.063.276 3.975 1.612 4 3.012V45c0 1.57 1.43 3 3 3h34c1.57 0 3-1.43 3-3V18.818c.018-.792.215-9.927-.336-10.496L34.054.248c-.284-.275-2.302-.34-4.349-.332zm1.49 3.094l.133 7.504c.012.681.638 1.29 1.317 1.279l7.771-.137c.133.018.268.017.4-.006l.082 3.03L41 18.77v26.227H7V3.021h18.672l5.523-.011zm-2.722 3.283c-4.127.658-8.873 1.336-12.989 2.031-1.09.526-.844 1.882-.892 2.865v13.163c-2.801-.642-5.875 1.45-5.996 4.423-.199 1.852 1.46 3.463 3.263 3.506 3.23.078 5.684-2.042 5.72-4.724-.036-4.505.009-9.011 0-13.516.5-.037 8.318-1.465 9-1.56V22.6c-2.584-.76-5.165.83-5.802 3.497-.47 1.544.24 3.369 1.772 4.002 2.99 1.36 7.196-1.396 7.03-4.63-.047-6.006.037-12.014 0-18.02-.08-.565-.465-1.198-1.106-1.157zm-5.815 28.705c-.686.006-1.357.619-1.713.785-.642-.978-2.29-1.023-2.996-.101.047-.357.03-.65-.408-.52-.247.075-.81-.167-.812.152v5.387h1.33c.028-1.226-.07-2.46.08-3.68.147-1.018 1.885-1.027 2.025-.005.11 1.223.03 2.457.055 3.685h1.33c.026-1.197-.063-2.401.068-3.592.106-.992 1.694-1.184 2-.232.172 1.014.06 2.055.092 3.082.076.24-.188.818.203.742h1.127c-.023-1.299.052-2.602-.05-3.896-.064-1.04-1.034-1.781-2.036-1.77a1.07 1.07 0 0 0-.295-.037zm5.768.037c-1.015.101-2.001.763-2.332 1.748-.612 1.482.09 3.488 1.72 3.926.943.297 2.077.085 2.7-.729.077.23-.19.807.205.721h1.015v-5.539h-1.22c-.002.452.095 1.044-.366.346-.495-.392-1.113-.533-1.722-.473zm-20.145.127l1.98 5.54c.26-.065.711.13.848-.098l1.041-3.493 1.051 3.59c.267-.062.71.126.865-.096.656-1.814 1.31-3.628 1.965-5.443h-1.42l-1.01 3.379-.91-3.379h-1.06l-.93 3.379-.99-3.379H8.28zm20.563 1.09c1.182-.07 1.949 1.3 1.52 2.334-.393 1.425-2.748 1.33-3.073-.094-.32-1.033.39-2.292 1.553-2.24z" color="#000" font-weight="400" font-family="Andale Mono" overflow="visible" fill="#1a1a1a"/></svg>