<svg xmlns="http://www.w3.org/2000/svg" width="48" height="48" viewBox="0 0 12.7 12.7"><path d="M1.215.856L.142 3.66h6.04V.856H1.215zm5.174 0V3.66h6.115L11.402.856H6.39zM.194 3.893v6.31c0 .636.246 1.181.737 1.633.491.453 1.083.679 1.775.679H9.96c.692 0 1.283-.226 1.775-.679.49-.452.736-.997.736-1.634v-6.31h-1.116v6.31c0 .354-.136.656-.41.908a1.403 1.403 0 0 1-.985.377H2.706c-.384 0-.712-.126-.986-.377a1.19 1.19 0 0 1-.41-.908v-6.31H.195zm5.39 4.027c-.388-.045-.813.194-.92.585-.175.49.087 1.14.631 1.236.276.063.587-.022.76-.255a.51.51 0 0 1-.686.538c-.168-.095-.3-.208-.506-.164-.166-.018-.314-.007-.122.183.369.518 1.326.52 1.619-.077.156-.395.079-.83.097-1.244v-.764h-.403c0 .136.031.315-.109.107a.725.725 0 0 0-.361-.145zm1.182.038v.378h.686L6.677 9.34v.378h1.34V9.34h-.835l.775-1.003v-.378H6.766zm-1.239.346c.386-.024.61.428.473.756-.133.434-.86.405-.942-.048-.092-.319.097-.726.47-.708z" fill="#1a1a1a"/></svg>