<svg xmlns="http://www.w3.org/2000/svg" width="48" height="48" viewBox="0 0 12.7 12.7"><path d="M1.215.856L.142 3.66h6.04V.856H1.215zm5.174 0V3.66h6.115L11.402.856H6.39zM.194 3.893v6.31c0 .636.246 1.181.737 1.633.491.453 1.083.679 1.775.679H9.96c.692 0 1.283-.226 1.775-.679.49-.452.736-.997.736-1.634v-6.31h-1.116v6.31c0 .354-.136.656-.41.908a1.403 1.403 0 0 1-.985.377H2.706c-.384 0-.712-.126-.986-.377a1.19 1.19 0 0 1-.41-.908v-6.31H.195zM3.93 7.886v2.347h.423V7.886h-.423zm1.006 0v2.347h.422v-.892c0-.175.016-.274.06-.353.061-.108.172-.168.312-.168.247 0 .342.146.342.514v.899h.423v-.994c0-.257-.032-.4-.118-.53-.117-.181-.32-.28-.571-.28a.626.626 0 0 0-.448.166v-.709h-.422zm2.8.505c-.52 0-.895.39-.895.927 0 .53.371.915.886.915.247 0 .416-.08.584-.27v.229h.387v-1.76H8.31v.236c-.146-.194-.32-.277-.575-.277zm.045.388c.302 0 .517.225.517.546 0 .127-.05.273-.127.362a.49.49 0 0 1-.384.158c-.308 0-.52-.209-.52-.517 0-.32.212-.55.514-.55z" fill="#1a1a1a"/></svg>