<svg xmlns="http://www.w3.org/2000/svg" width="48" height="48"><defs><linearGradient id="a"><stop offset="0" stop-color="#dc85e9"/><stop offset="1" stop-color="#f2cbf8"/></linearGradient><linearGradient id="b"><stop offset="0" stop-color="#dc85e9"/><stop offset="1" stop-color="#f2cbf8"/></linearGradient><linearGradient id="c"><stop offset="0" stop-color="#fff" stop-opacity=".588"/><stop offset="1" stop-color="#fff" stop-opacity=".863"/></linearGradient><linearGradient id="d"><stop offset="0" stop-color="#b3b3b3"/><stop offset="1" stop-color="#e6e6e6"/></linearGradient><linearGradient id="e"><stop offset="0" stop-color="#e694bb"/><stop offset=".262" stop-color="#d3819a"/><stop offset=".705" stop-color="#b25a64"/><stop offset="1" stop-color="#98313d"/></linearGradient></defs><path style="line-height:normal;text-indent:0;text-align:start;text-decoration-line:none;text-transform:none;marker:none" d="M29.705-.084c-2.047.008-4.121.088-4.517.098H7a2.938 2.938 0 0 0-.563 0C5.063.276 3.975 1.612 4 3.012V45c0 1.57 1.43 3 3 3h34c1.57 0 3-1.43 3-3V18.818c.018-.792.215-9.927-.336-10.496L34.054.248c-.284-.275-2.302-.34-4.349-.332zm1.49 3.094l.133 7.504c.012.681.638 1.29 1.317 1.279l7.771-.137c.133.018.268.017.4-.006l.082 3.03L41 18.77v26.227H7V3.021h18.672l5.523-.011zM15.838 7.643a.546.546 0 0 0-.193.027c-.777 0-1.177 1.23-1.915 1.437-.299 1.182.753.574 1.293.036v3.41c-.165.62.635.272 1 .361V8.61c-.069-.315.174-.941-.185-.966zm0 9.117a.553.553 0 0 0-.193.03c-.777 0-1.177 1.227-1.915 1.435-.299 1.181.753.573 1.293.035v3.412c-.165.62.635.27 1 .36v-4.305c-.069-.316.174-.942-.185-.967zm3.377.03c-1.414-.057-1.727 1.552-1.695 2.655-.076 1.115.303 2.716 1.695 2.676 1.383.053 1.755-1.563 1.695-2.664.061-1.103-.312-2.717-1.695-2.668zm0 .83c.528.01.59.67.625 1.062.08.763.189 3.274-1.076 2.324-.188-1.032-.598-2.79.45-3.387zm-3.377 8.259a.546.546 0 0 0-.193.027c-.777 0-1.177 1.228-1.915 1.436-.299 1.182.753.575 1.293.037v3.41c-.165.62.635.272 1 .361v-4.304c-.069-.315.174-.942-.185-.967zm8.121 0a.546.546 0 0 0-.193.027c-.777 0-1.177 1.228-1.914 1.436-.3 1.182.752.575 1.293.037v3.41c-.166.62.635.272 1 .361v-4.304c-.07-.315.173-.942-.186-.967zm-4.744.027c-1.414-.056-1.727 1.555-1.695 2.658-.076 1.115.303 2.714 1.695 2.674 1.383.053 1.755-1.562 1.695-2.664.061-1.102-.312-2.717-1.695-2.668zm0 .83c.528.01.59.674.625 1.065.08.763.189 3.274-1.076 2.324-.188-1.032-.598-2.792.45-3.389zm-3.377 8.26a.553.553 0 0 0-.193.03c-.777 0-1.177 1.227-1.915 1.435-.299 1.182.753.573 1.293.035v3.412c-.165.62.635.27 1 .36v-4.305c-.069-.315.174-.942-.185-.967zm8.121 0a.553.553 0 0 0-.193.03c-.777 0-1.177 1.227-1.914 1.435-.3 1.182.752.573 1.293.035v3.412c-.166.62.635.27 1 .36v-4.305c-.07-.315.173-.942-.186-.967zm-4.744.03c-1.414-.057-1.727 1.552-1.695 2.656-.076 1.114.303 2.716 1.695 2.675 1.383.053 1.755-1.562 1.695-2.664.061-1.102-.312-2.717-1.695-2.668zm8.12 0c-1.413-.057-1.726 1.552-1.694 2.656-.076 1.114.303 2.716 1.695 2.675 1.383.053 1.755-1.562 1.695-2.664.061-1.102-.312-2.717-1.695-2.668zm-8.12.83c.528.01.59.671.625 1.062.08.763.189 3.274-1.076 2.324-.188-1.031-.598-2.79.45-3.387zm8.12 0c.53.01.59.671.626 1.062.08.763.19 3.274-1.076 2.324-.187-1.031-.598-2.79.45-3.387z" color="#000" font-weight="400" font-family="Andale Mono" overflow="visible" fill="#1a1a1a"/></svg>