<svg xmlns="http://www.w3.org/2000/svg" width="24" height="24"><path d="M12 1.08c-6.1 0-11 4.84-11 10.87a10.91 10.91 0 0 0 11 10.89c6.1 0 11-4.86 11-10.9A10.91 10.91 0 0 0 12 1.09zm0 2.72a8.18 8.18 0 0 1 8.25 8.16A8.19 8.19 0 0 1 12 20.11a8.18 8.18 0 0 1-8.25-8.16A8.18 8.18 0 0 1 12 3.8zm0 1.81a6.33 6.33 0 0 0-5.46 3.2h10.92A6.33 6.33 0 0 0 12 5.61zm-6.16 4.81c-.15.48-.25.99-.25 1.54 0 .6.18 1.13.34 1.7h12.14c.16-.56.34-1.1.34-1.7 0-.55-.1-1.06-.24-1.54H5.83zm.9 4.96a6.2 6.2 0 0 0 10.53 0z" fill="#e6e6e6"/></svg>