<svg xmlns="http://www.w3.org/2000/svg" width="24" height="24"><path d="M11.662 1.988c-.179 0-.318.161-.318.34v1.99c0 .2.14.338.318.338h.676c.179 0 .318-.14.318-.318v-2.01c0-.199-.14-.34-.318-.34h-.676zm-6.27 2.588a.338.338 0 0 0-.238.12l-.459.458a.338.338 0 0 0 0 .477L6.09 7.045a.338.338 0 0 0 .476 0l.479-.479a.338.338 0 0 0 0-.457L5.65 4.695a.318.318 0 0 0-.257-.1v-.019zm13.215 0a.318.318 0 0 0-.238.12L16.955 6.09a.338.338 0 0 0 0 .476l.479.479a.338.338 0 0 0 .457 0l1.414-1.395a.338.338 0 0 0 0-.496l-.46-.459a.338.338 0 0 0-.238-.1v-.019zM12 5.957A6.044 6.044 0 0 0 5.957 12a6.044 6.044 0 0 0 4.313 5.775 2.667 2.667 0 0 0-.534 1.594 2.667 2.667 0 0 0 2.666 2.666h6a3.333 3.333 0 0 0 3.334-3.332 3.333 3.333 0 0 0-2.162-3.117 4 4 0 0 0-1.687-2.25A6.044 6.044 0 0 0 18.043 12 6.044 6.044 0 0 0 12 5.957zm0 1A5.044 5.044 0 0 1 17.043 12a5.044 5.044 0 0 1-.088.898 4 4 0 0 0-1.219-.195 4 4 0 0 0-4 4 4 4 0 0 0 .002.086 2.667 2.667 0 0 0-.508.188A5.044 5.044 0 0 1 6.957 12 5.044 5.044 0 0 1 12 6.957zm-9.672 4.387c-.199 0-.34.14-.34.318v.676c0 .179.161.318.34.318h1.99c.2 0 .338-.14.338-.318v-.676a.314.314 0 0 0-.318-.318h-2.01zm17.334 0a.314.314 0 0 0-.318.318v.676c0 .179.14.318.318.318h2.01c.199 0 .34-.14.34-.318v-.676c0-.179-.161-.318-.34-.318h-2.01zm-3.904 2.515a3.056 3.022 0 0 1 3.008 2.487 2.445 2.418 0 0 1 1.882 2.35 2.445 2.418 0 0 1-2.445 2.417h-5.5a1.834 1.813 0 0 1-1.834-1.812 1.834 1.813 0 0 1 1.834-1.815 1.834 1.813 0 0 1 .065.004 3.056 3.022 0 0 1-.065-.607 3.056 3.022 0 0 1 3.055-3.022v-.002zm-9.43 2.996a.338.338 0 0 0-.219.1L4.695 18.35a.338.338 0 0 0 0 .496l.46.459a.338.338 0 0 0 .476 0l1.414-1.395a.338.338 0 0 0 0-.476l-.479-.479a.338.338 0 0 0-.218-.1h-.02z" fill="#e6e6e6"/></svg>
