<svg xmlns="http://www.w3.org/2000/svg" width="24" height="24"><path d="M11.662 1.988c-.179 0-.318.161-.318.34v1.99c0 .2.14.338.318.338h.676c.179 0 .318-.14.318-.318v-2.01c0-.199-.14-.34-.318-.34h-.676zm-6.27 2.588a.338.338 0 0 0-.238.12l-.459.458a.338.338 0 0 0 0 .477L6.09 7.045a.338.338 0 0 0 .476 0l.479-.479a.338.338 0 0 0 0-.457L5.65 4.695a.318.318 0 0 0-.257-.1v-.019zm13.215 0a.318.318 0 0 0-.238.12L16.955 6.09a.338.338 0 0 0 0 .476l.479.479a.338.338 0 0 0 .457 0l1.414-1.395a.338.338 0 0 0 0-.496l-.46-.459a.338.338 0 0 0-.238-.1v-.019zM12 5.957A6.044 6.044 0 0 0 5.957 12a6.044 6.044 0 0 0 1.389 3.848 3.556 3.556 0 0 0-.84 1.06.338.338 0 0 0-.158-.053h-.02a.338.338 0 0 0-.219.1L4.695 18.35a.338.338 0 0 0 0 .496l.46.459a.338.338 0 0 0 .476 0l.484-.479a3.556 3.556 0 0 0 3.541 3.272h8a4.444 4.444 0 0 0 4.446-4.446 4.444 4.444 0 0 0-2.883-4.154 5.333 5.333 0 0 0-1.211-2.129A6.044 6.044 0 0 0 12 5.957zm0 1a5.044 5.044 0 0 1 4.762 3.416 5.333 5.333 0 0 0-2.66-.719 5.333 5.333 0 0 0-5.334 5.332 5.333 5.333 0 0 0 .003.116 3.556 3.556 0 0 0-.57.203A5.044 5.044 0 0 1 6.957 12 5.044 5.044 0 0 1 12 6.957zm2.102 3.586a4.444 4.444 0 0 1 4.373 3.654 3.556 3.556 0 0 1 2.738 3.457 3.556 3.556 0 0 1-3.557 3.555h-8a2.667 2.667 0 0 1-2.666-2.666 2.667 2.667 0 0 1 2.666-2.668 2.667 2.667 0 0 1 .096.006 4.444 4.444 0 0 1-.096-.895 4.444 4.444 0 0 1 4.446-4.443zm-11.774.8c-.199 0-.34.14-.34.32v.675c0 .179.161.318.34.318h1.99c.2 0 .338-.14.338-.318v-.676a.314.314 0 0 0-.318-.318h-2.01zm17.334 0a.314.314 0 0 0-.318.32v.675c0 .179.14.318.318.318h2.01c.199 0 .34-.14.34-.318v-.676c0-.179-.161-.318-.34-.318h-2.01z" fill="#e6e6e6"/></svg>
