<svg xmlns="http://www.w3.org/2000/svg" width="48" height="48" viewBox="0 0 12.7 12.7"><path fill="#2c89a0" d="M6.344.077A6.267 6.267 0 0 0 .076 6.344a6.267 6.267 0 0 0 6.268 6.267 6.267 6.267 0 0 0 6.267-6.267A6.267 6.267 0 0 0 6.344.077zm-.018.932a5.388 5.388 0 0 1 5.388 5.39 5.388 5.388 0 0 1-5.388 5.387A5.388 5.388 0 0 1 .937 6.398a5.388 5.388 0 0 1 5.39-5.389zM4.714 2.442a.53.53 0 0 0-.257.99l.259.145v1.42c-.069.109-.132.205-.232.378-.144.249-.32.562-.512.904a272.317 272.317 0 0 0-1.166 2.114 1.688 1.688 0 0 0 .16 1.86c.356.475.919.603 1.385.603h3.89c.467 0 1.03-.128 1.386-.605.45-.56.46-1.304.157-1.858C9.17 7.139 8.474 6.159 7.9 5.007V3.579l.26-.146a.53.53 0 0 0-.258-.991zM5.774 3.5h1.067v1.644a.53.53 0 0 0 .054.233c.636 1.3 1.361 2.298 1.95 3.502a.53.53 0 0 0 .01.02c.127.233.134.469-.052.697a.53.53 0 0 0-.02.024c-.076.105-.256.177-.543.177H4.351c-.286 0-.467-.072-.544-.177a.53.53 0 0 0-.018-.024c-.187-.228-.18-.463-.054-.696a271.17 271.17 0 0 1 1.16-2.105 67.892 67.892 0 0 1 .504-.89c.14-.24.26-.429.274-.448a.53.53 0 0 0 .101-.313z"/><path fill="#2c89a0" d="M6.767 1.278a.472.49 0 0 0-.472.49.472.49 0 0 0 .472.49.472.49 0 0 0 .472-.49.472.49 0 0 0-.472-.49zm-1.65.254a.236.254 0 0 0-.237.254.236.254 0 0 0 .237.255.236.254 0 0 0 .236-.255.236.254 0 0 0-.236-.254zm.997 4.463a.4.4 0 0 0-.399.399.4.4 0 0 0 .4.4.4.4 0 0 0 .398-.4.4.4 0 0 0-.399-.399zm1.124 1.157H5.354L4.178 9.269h4.234z" opacity=".45" overflow="visible"/></svg>