<svg xmlns="http://www.w3.org/2000/svg" version="1" viewBox="0 0 24 24"><g fill="#2c89a0"><path d="M11.307 1.005C5.63 1.005.995 5.639.995 11.318S5.629 21.63 11.308 21.63c.706 0 1.395-.07 2.062-.206V18.59a7.664 7.664 0 0 1-2.063.289c-4.193 0-7.562-3.369-7.562-7.563s3.369-7.562 7.562-7.562a7.542 7.542 0 0 1 7.274 9.625h2.833a10.31 10.31 0 0 0 .206-2.063c0-5.678-4.634-10.312-10.313-10.312zm4.077 5.503a.688.688 0 0 0-.099.01v.012a.688.688 0 0 0-.343.214l-3.654 3.643-2.277-2.268a.688.688 0 1 0-.944.946l2.75 2.75a.688.688 0 0 0 .944 0l4.125-4.125a.688.688 0 0 0-.502-1.182z" color="#000" font-weight="400" overflow="visible" style="font-feature-settings:normal;font-variant-alternates:normal;font-variant-caps:normal;font-variant-ligatures:normal;font-variant-numeric:normal;font-variant-position:normal;isolation:auto;mix-blend-mode:normal;shape-padding:0;text-decoration-color:#000;text-decoration-line:none;text-decoration-style:solid;text-indent:0;text-orientation:mixed;text-transform:none" white-space="normal"/><path d="M17.495 14.76v2.744h-2.75v2.747h2.75v2.744h2.75v-2.744h2.75v-2.747h-2.75v-2.745z" color="#bebebe" overflow="visible"/></g></svg>