<svg xmlns="http://www.w3.org/2000/svg" width="24" height="24"><defs><style id="current-color-scheme"></style></defs><path d="M18.57 5a1.75 7.88 44.99 0 0-6.51 4.47 1.75 7.88 44.99 0 0-3.1 3.6c.94.3 1.68 1.03 1.98 1.97a1.75 7.88 44.99 0 0 3.6-3.1 1.75 7.88 44.99 0 0 4.32-6.8 1.75 7.88 44.99 0 0-.29-.13zM17 13c-.39 1.28-1.36 2.37-1.78 3.25-.15.26-.22.56-.22.88 0 1.03.9 1.87 2 1.87s2-.84 2-1.88c0-.31-.1-.6-.25-.87-.42-.88-1.36-1.97-1.75-3.25zm-8.5 1.33C5 15.27 7.62 17.5 5 19c3.5 0 5.25-1.75 5.25-2.92 0-.58.06-1.65-1.75-1.75z" fill="currentColor" color="#2c89a0"/></svg>
