<svg xmlns="http://www.w3.org/2000/svg" viewBox="0 0 24 24"><path d="M12 1c-1.3 0-2.4.84-2.81 2H5a2 2 0 0 0-2 2v16a2 2 0 0 0 2 2h14a2 2 0 0 0 2-2V5a2 2 0 0 0-2-2h-4.19c-.4-1.16-1.5-2-2.81-2zm-.04 2A1 1 0 0 1 12 3a1 1 0 0 1 0 2 1 1 0 0 1-.04-2zM5 5h2v3h10V5h2v16H5z" fill="#5beedc"/><path d="M12 9.1c-.6 0-1.07.31-1.07.71v5.9c0 .4.48.72 1.07.72.6 0 1.07-.32 1.07-.72v-5.9c0-.4-.48-.72-1.07-.72zm0 8.14c-.6 0-1.07.43-1.07.97s.48.97 1.07.97c.6 0 1.07-.43 1.07-.97s-.48-.97-1.07-.97z" fill="#5beedc"/></svg>
