<?xml version="1.0" encoding="UTF-8" standalone="no"?>
<svg
   xmlns:dc="http://purl.org/dc/elements/1.1/"
   xmlns:cc="http://creativecommons.org/ns#"
   xmlns:rdf="http://www.w3.org/1999/02/22-rdf-syntax-ns#"
   xmlns:svg="http://www.w3.org/2000/svg"
   xmlns="http://www.w3.org/2000/svg"
   xmlns:sodipodi="http://sodipodi.sourceforge.net/DTD/sodipodi-0.dtd"
   xmlns:inkscape="http://www.inkscape.org/namespaces/inkscape"
   height="24"
   width="24"
   version="1.1"
   id="svg4"
   sodipodi:docname="aptdaemon-resolve.svg"
   inkscape:version="0.92.5 (2060ec1f9f, 2020-04-08)">
  <defs
     id="defs8">
  <style
     id="current-color-scheme"
     type="text/css">
      .ColorScheme-Highlight {
        color:#FFFFFF;
      }
  </style>
  </defs>
  <path
     class="ColorScheme-Highlight"
     style="fill:currentColor"
     d="M 12 1 A 11 11 0 0 0 1 12 A 11 11 0 0 0 12 23 A 11 11 0 0 0 23 12 A 11 11 0 0 0 12 1 z M 14.5 4 A 5.5 5.5 0 0 1 20 9.5 A 5.5 5.5 0 0 1 14.5 15 A 5.5 5.5 0 0 1 11.746094 14.253906 L 7 19 L 5 19 L 5 17 L 9.7460938 12.253906 A 5.5 5.5 0 0 1 9 9.5 A 5.5 5.5 0 0 1 14.5 4 z M 14.5 6 A 3.5 3.5 0 0 0 11 9.5 A 3.5 3.5 0 0 0 14.5 13 A 3.5 3.5 0 0 0 18 9.5 A 3.5 3.5 0 0 0 14.5 6 z "
     id="path835" />
</svg>
