<?xml version="1.0" encoding="UTF-8" standalone="no"?>
<svg
   xmlns:dc="http://purl.org/dc/elements/1.1/"
   xmlns:cc="http://creativecommons.org/ns#"
   xmlns:rdf="http://www.w3.org/1999/02/22-rdf-syntax-ns#"
   xmlns:svg="http://www.w3.org/2000/svg"
   xmlns="http://www.w3.org/2000/svg"
   xmlns:sodipodi="http://sodipodi.sourceforge.net/DTD/sodipodi-0.dtd"
   xmlns:inkscape="http://www.inkscape.org/namespaces/inkscape"
   height="24"
   width="24"
   version="1.1"
   id="svg4"
   sodipodi:docname="aptdaemon-working.svg"
   inkscape:version="0.92.5 (2060ec1f9f, 2020-04-08)">
  <defs
     id="defs8">
  <style
     id="current-color-scheme"
     type="text/css">
      .ColorScheme-Highlight {
        color:#FFFFFF;
      }
  </style>
  </defs>
  <path
     class="ColorScheme-Highlight"
     style="fill:currentColor"
     d="M 12 1 A 11 11 0 0 0 1 12 A 11 11 0 0 0 12 23 A 11 11 0 0 0 23 12 A 11 11 0 0 0 12 1 z M 11 3 L 13 3 L 13.71875 7.3105469 A 5 5 0 0 1 14.101562 7.46875 L 17.65625 4.9296875 L 19.070312 6.34375 L 16.529297 9.8984375 A 5 5 0 0 1 16.691406 10.28125 L 21 11 L 21 13 L 16.689453 13.71875 A 5 5 0 0 1 16.53125 14.101562 L 19.070312 17.65625 L 17.65625 19.070312 L 14.101562 16.529297 A 5 5 0 0 1 13.71875 16.691406 L 13 21 L 11 21 L 10.28125 16.689453 A 5 5 0 0 1 9.8984375 16.53125 L 6.34375 19.070312 L 4.9296875 17.65625 L 7.4707031 14.101562 A 5 5 0 0 1 7.3085938 13.71875 L 3 13 L 3 11 L 7.3105469 10.28125 A 5 5 0 0 1 7.46875 9.8984375 L 4.9296875 6.34375 L 6.34375 4.9296875 L 9.8984375 7.4707031 A 5 5 0 0 1 10.28125 7.3085938 L 11 3 z M 12 10 A 2 2 0 0 0 10 12 A 2 2 0 0 0 12 14 A 2 2 0 0 0 14 12 A 2 2 0 0 0 12 10 z "
     id="path817" />
</svg>
