<?xml version="1.0" encoding="UTF-8" standalone="no"?>
<svg
   xmlns:dc="http://purl.org/dc/elements/1.1/"
   xmlns:cc="http://creativecommons.org/ns#"
   xmlns:rdf="http://www.w3.org/1999/02/22-rdf-syntax-ns#"
   xmlns:svg="http://www.w3.org/2000/svg"
   xmlns="http://www.w3.org/2000/svg"
   xmlns:sodipodi="http://sodipodi.sourceforge.net/DTD/sodipodi-0.dtd"
   xmlns:inkscape="http://www.inkscape.org/namespaces/inkscape"
   height="24"
   width="24"
   version="1.1"
   id="svg4"
   sodipodi:docname="computer-fail.svg"
   inkscape:version="0.92.5 (2060ec1f9f, 2020-04-08)">
  <defs
     id="defs8">
  <style
     id="current-color-scheme"
     type="text/css">
      .ColorScheme-Highlight {
        color:#FFFFFF;
      }
  </style>
  </defs>
  <path
     class="ColorScheme-Highlight"
     style="fill:currentColor"
     d="M 12 1 A 11 11 0 0 0 1 12 A 11 11 0 0 0 12 23 A 11 11 0 0 0 23 12 A 11 11 0 0 0 12 1 z M 12 3 A 9 9 0 0 1 21 12 A 9 9 0 0 1 12 21 A 9 9 0 0 1 3 12 A 9 9 0 0 1 12 3 z M 6.3789062 6.671875 L 5.671875 7.3789062 L 7.7929688 9.5 L 5.671875 11.621094 L 6.3789062 12.328125 L 8.5 10.207031 L 10.621094 12.328125 L 11.328125 11.621094 L 9.2070312 9.5 L 11.328125 7.3789062 L 10.621094 6.671875 L 8.5 8.7929688 L 6.3789062 6.671875 z M 13.378906 6.671875 L 12.671875 7.3789062 L 14.792969 9.5 L 12.671875 11.621094 L 13.378906 12.328125 L 15.5 10.207031 L 17.621094 12.328125 L 18.328125 11.621094 L 16.207031 9.5 L 18.328125 7.3789062 L 17.621094 6.671875 L 15.5 8.7929688 L 13.378906 6.671875 z M 6 14 L 6 16 L 6 18 L 7 18 L 7 16 L 17 16 L 17 18 L 18 18 L 18 16 L 18 14 L 6 14 z "
     id="path814" />
</svg>
