<?xml version="1.0" encoding="UTF-8" standalone="no"?>
<svg
   xmlns:dc="http://purl.org/dc/elements/1.1/"
   xmlns:cc="http://creativecommons.org/ns#"
   xmlns:rdf="http://www.w3.org/1999/02/22-rdf-syntax-ns#"
   xmlns:svg="http://www.w3.org/2000/svg"
   xmlns="http://www.w3.org/2000/svg"
   xmlns:sodipodi="http://sodipodi.sourceforge.net/DTD/sodipodi-0.dtd"
   xmlns:inkscape="http://www.inkscape.org/namespaces/inkscape"
   height="24"
   width="24"
   version="1.1"
   id="svg4"
   sodipodi:docname="dialog-error.svg"
   inkscape:version="0.92.5 (2060ec1f9f, 2020-04-08)">
  <defs
     id="defs8">
  <style
     id="current-color-scheme"
     type="text/css">
      .ColorScheme-Highlight {
        color:#FFFFFF;
      }
  </style>
  </defs>
  <path
     class="ColorScheme-Highlight"
     style="fill:currentColor"
     d="M 12 1 A 11 11 0 0 0 1 12 A 11 11 0 0 0 12 23 A 11 11 0 0 0 23 12 A 11 11 0 0 0 12 1 z M 12 2 A 10 10 0 0 1 22 12 A 10 10 0 0 1 12 22 A 10 10 0 0 1 2 12 A 10 10 0 0 1 12 2 z M 12 2.0996094 L 9.0996094 5 L 5 5 L 5 9.0996094 L 2.0996094 12 L 5 14.900391 L 5 19 L 9.0996094 19 L 12 21.900391 L 14.900391 19 L 19 19 L 19 14.900391 L 21.900391 12 L 19 9.0996094 L 19 5 L 14.900391 5 L 12 2.0996094 z M 8.4648438 7.0507812 L 12 10.585938 L 15.535156 7.0507812 L 16.949219 8.4648438 L 13.414062 12 L 16.949219 15.535156 L 15.535156 16.949219 L 12 13.414062 L 8.4648438 16.949219 L 7.0507812 15.535156 L 10.585938 12 L 7.0507812 8.4648438 L 8.4648438 7.0507812 z "
     id="path838" />
</svg>
