<?xml version="1.0" encoding="UTF-8" standalone="no"?>
<svg
   xmlns:dc="http://purl.org/dc/elements/1.1/"
   xmlns:cc="http://creativecommons.org/ns#"
   xmlns:rdf="http://www.w3.org/1999/02/22-rdf-syntax-ns#"
   xmlns:svg="http://www.w3.org/2000/svg"
   xmlns="http://www.w3.org/2000/svg"
   xmlns:sodipodi="http://sodipodi.sourceforge.net/DTD/sodipodi-0.dtd"
   xmlns:inkscape="http://www.inkscape.org/namespaces/inkscape"
   height="24"
   width="24"
   version="1.1"
   id="svg4"
   sodipodi:docname="laptopdisconnected.svg"
   inkscape:version="0.92.5 (2060ec1f9f, 2020-04-08)">
  <defs
     id="defs8">
  <style
     id="current-color-scheme"
     type="text/css">
      .ColorScheme-Highlight {
        color:#FFFFFF;
      }
  </style>
  </defs>
  <path
     class="ColorScheme-Highlight"
     style="fill:currentColor"
     d="M 5 6 L 5 16 L 4 16 L 4 18 L 13.423828 18 A 5 5 0 0 0 18 21 A 5 5 0 0 0 23 16 A 5 5 0 0 0 19 11.101562 L 19 6 L 5 6 z M 6 7 L 18 7 L 18 11 A 5 5 0 0 0 13.101562 15 L 6 15 L 6 7 z M 15 13 L 16 13 L 18 15 L 20 13 L 21 13 L 21 14 L 19 16 L 21 18 L 21 19 L 20 19 L 18 17 L 16 19 L 15 19 L 15 18 L 17 16 L 15 14 L 15 13 z M 10 16 L 13 16 A 5 5 0 0 0 13.105469 17 L 10 17 L 10 16 z "
     id="rect823" />
</svg>
