<?xml version="1.0" encoding="UTF-8" standalone="no"?>
<svg
   xmlns:dc="http://purl.org/dc/elements/1.1/"
   xmlns:cc="http://creativecommons.org/ns#"
   xmlns:rdf="http://www.w3.org/1999/02/22-rdf-syntax-ns#"
   xmlns:svg="http://www.w3.org/2000/svg"
   xmlns="http://www.w3.org/2000/svg"
   xmlns:sodipodi="http://sodipodi.sourceforge.net/DTD/sodipodi-0.dtd"
   xmlns:inkscape="http://www.inkscape.org/namespaces/inkscape"
   width="24"
   height="24"
   viewBox="0 0 6.35 6.35"
   version="1.1"
   id="svg4"
   sodipodi:docname="livepatch_warning.svg"
   inkscape:version="0.92.5 (2060ec1f9f, 2020-04-08)">
  <defs
     id="defs8">
  <style
     id="current-color-scheme"
     type="text/css">
      .ColorScheme-Highlight {
        color:#FFFFFF;
      }
  </style>
  </defs>
  <path
     class="ColorScheme-Highlight"
     style="fill:currentColor"
     d="M 12 1 C 9 3.9999998 6.9999992 5.0000004 3 5 C 2.9999996 16.990772 6.5302074 19.994778 11.994141 23.117188 C 11.994143 23.117149 11.994139 23.125044 11.994141 23.125 C 11.996244 23.123798 11.997897 23.122295 12 23.121094 C 12.002103 23.122295 12.003756 23.123798 12.005859 23.125 C 12.005861 23.125044 12.005857 23.117149 12.005859 23.117188 C 17.469792 19.994778 21 16.990772 21 5 C 17.000001 5.0000004 15 3.9999999 12 1 z M 12 6 C 12.554 6 13 6.446 13 7 L 13 14 C 13 14.554 12.554 15 12 15 C 11.446 15 11 14.554 11 14 L 11 7 C 11 6.446 11.446 6 12 6 z M 12 17 C 12.554 17 13 17.446 13 18 C 13 18.554 12.554 19 12 19 C 11.446 19 11 18.554 11 18 C 11 17.446 11.446 17 12 17 z "
     transform="scale(0.26458333)"
     id="path816" />
</svg>
