<?xml version="1.0" encoding="UTF-8" standalone="no"?>
<svg
   xmlns:dc="http://purl.org/dc/elements/1.1/"
   xmlns:cc="http://creativecommons.org/ns#"
   xmlns:rdf="http://www.w3.org/1999/02/22-rdf-syntax-ns#"
   xmlns:svg="http://www.w3.org/2000/svg"
   xmlns="http://www.w3.org/2000/svg"
   xmlns:sodipodi="http://sodipodi.sourceforge.net/DTD/sodipodi-0.dtd"
   xmlns:inkscape="http://www.inkscape.org/namespaces/inkscape"
   width="24"
   height="24"
   viewBox="0 0 6.35 6.35"
   version="1.1"
   id="svg4"
   sodipodi:docname="livepatch_on.svg"
   inkscape:version="0.92.5 (2060ec1f9f, 2020-04-08)">
  <defs
     id="defs8">
  <style
     id="current-color-scheme"
     type="text/css">
      .ColorScheme-Highlight {
        color:#FFFFFF;
      }
  </style>
  </defs>
  <path
     class="ColorScheme-Highlight"
     style="fill:currentColor"
     d="M 12 1 C 9 3.9999998 6.9999994 5.0000004 3 5 C 2.9999996 16.990772 6.530208 19.994778 11.994141 23.117188 C 11.994143 23.117149 11.994139 23.125044 11.994141 23.125 C 11.996244 23.123798 11.997897 23.122295 12 23.121094 C 12.002103 23.122295 12.003756 23.123798 12.005859 23.125 C 12.005861 23.125044 12.005857 23.117149 12.005859 23.117188 C 17.469792 19.994778 21 16.990772 21 5 C 17.000001 5.0000004 15 3.9999999 12 1 z M 17 8 L 18 8 L 18 9 L 12 15 L 11 16 L 7 13 L 7 12 L 8 12 L 11 14.25 L 11 14 L 17 8 z "
     transform="scale(0.26458333)"
     id="path816" />
</svg>
