<?xml version="1.0" encoding="UTF-8" standalone="no"?>
<svg
   xmlns:dc="http://purl.org/dc/elements/1.1/"
   xmlns:cc="http://creativecommons.org/ns#"
   xmlns:rdf="http://www.w3.org/1999/02/22-rdf-syntax-ns#"
   xmlns:svg="http://www.w3.org/2000/svg"
   xmlns="http://www.w3.org/2000/svg"
   xmlns:sodipodi="http://sodipodi.sourceforge.net/DTD/sodipodi-0.dtd"
   xmlns:inkscape="http://www.inkscape.org/namespaces/inkscape"
   width="24"
   height="24"
   viewBox="0 0 6.35 6.35"
   version="1.1"
   id="svg4"
   sodipodi:docname="mail-attachment.svg"
   inkscape:version="0.92.5 (2060ec1f9f, 2020-04-08)">
  <defs
     id="defs8">
  <style
     id="current-color-scheme"
     type="text/css">
      .ColorScheme-Highlight {
        color:#FFFFFF;
      }
  </style>
  </defs>
  <path
     class="ColorScheme-Highlight"
     style="fill:currentColor"
     d="M 12 2 C 8.676 2 6 4.676 6 8 L 6 13 L 8 13 L 8 8 C 8 5.7840001 9.7840001 4 12 4 C 14.216 4 16 5.7840001 16 8 L 16 13 L 16 18 C 16 19.108 15.108 20 14 20 C 12.892 20 12 19.108 12 18 L 12 13 L 12 12 L 12 9.5 C 12 9.2229984 12.223 9 12.5 9 C 12.777002 9 13 9.2229999 13 9.5 L 13 13 L 15 13 L 15 9.5 C 15 8.1150001 13.885 7 12.5 7 C 11.115 7 10 8.1150001 10 9.5 L 10 12 L 10 13 L 10 18 C 10 20.216 11.784 22 14 22 C 16.216 22 18 20.216 18 18 L 18 12 L 18 8 C 18 4.676 15.324 2 12 2 z "
     transform="scale(0.26458333)"
     id="rect826" />
</svg>
