<?xml version="1.0" encoding="UTF-8" standalone="no"?>
<svg
   xmlns:dc="http://purl.org/dc/elements/1.1/"
   xmlns:cc="http://creativecommons.org/ns#"
   xmlns:rdf="http://www.w3.org/1999/02/22-rdf-syntax-ns#"
   xmlns:svg="http://www.w3.org/2000/svg"
   xmlns="http://www.w3.org/2000/svg"
   xmlns:sodipodi="http://sodipodi.sourceforge.net/DTD/sodipodi-0.dtd"
   xmlns:inkscape="http://www.inkscape.org/namespaces/inkscape"
   width="48"
   height="48"
   viewBox="0 0 12.7 12.7"
   version="1.1"
   id="svg4"
   sodipodi:docname="osd-shutd-screen.svg"
   inkscape:version="0.92.5 (2060ec1f9f, 2020-04-08)">
  <defs
     id="defs8">
  <style
     id="current-color-scheme"
     type="text/css">
      .ColorScheme-Highlight {
        color:#FFFFFF;
      }
  </style>
  </defs>
  <path
     class="ColorScheme-Highlight"
     style="fill:currentColor"
     d="M 19 5 C 17.892 5 17 5.8920001 17 7 L 17 15 L 5 15 C 3.8920001 15 3 15.892 3 17 L 3 35 C 3 36.108 3.8920001 37 5 37 L 12 37 L 12 41 L 6 41 L 6 43 L 28 43 L 28 41 L 22 41 L 22 37 L 29 37 C 30.108 37 31 36.108 31 35 L 31 33 L 42 33 L 42 31 L 36 31 L 36 27 L 43 27 C 44.108003 27 45 26.108 45 25 L 45 7 C 45 5.8920001 44.108003 5 43 5 L 19 5 z M 20 7 L 42 7 C 42.553999 7 43 7.4459999 43 8 L 43 24 C 43 24.554 42.553999 25 42 25 L 31 25 L 31 17 L 36 22 L 37 22 L 37 21 L 32 16 L 37 11 L 37 10 L 36 10 L 31 15 L 26 10 L 25 10 L 25 11 L 29 15 L 19 15 L 19 8 C 19 7.4459999 19.446001 7 20 7 z M 6 17 L 28 17 C 28.553999 17 29 17.446 29 18 L 29 34 C 29 34.554 28.553999 35 28 35 L 6 35 C 5.446001 35 5 34.554 5 34 L 5 18 C 5 17.446 5.446001 17 6 17 z M 10 20 C 9.4459997 20 9 20.446 9 21 L 9 32 C 9 32.554 9.4459997 33 10 33 L 24 33 C 24.554 33 25 32.554 25 32 L 25 21 C 25 20.446 24.554 20 24 20 L 10 20 z M 10 22 L 24 22 L 24 32 L 10 32 L 10 22 z "
     transform="scale(0.26458333)"
     id="path822" />
</svg>
