<?xml version="1.0" encoding="UTF-8" standalone="no"?>
<svg
   xmlns:dc="http://purl.org/dc/elements/1.1/"
   xmlns:cc="http://creativecommons.org/ns#"
   xmlns:rdf="http://www.w3.org/1999/02/22-rdf-syntax-ns#"
   xmlns:svg="http://www.w3.org/2000/svg"
   xmlns="http://www.w3.org/2000/svg"
   xmlns:sodipodi="http://sodipodi.sourceforge.net/DTD/sodipodi-0.dtd"
   xmlns:inkscape="http://www.inkscape.org/namespaces/inkscape"
   height="24"
   width="24"
   version="1.1"
   id="svg4"
   sodipodi:docname="tabletdisconnected.svg"
   inkscape:version="0.92.5 (2060ec1f9f, 2020-04-08)">
  <defs
     id="defs8">
  <style
     id="current-color-scheme"
     type="text/css">
      .ColorScheme-Highlight {
        color:#FFFFFF;
      }
  </style>
  </defs>
  <path
     class="ColorScheme-Highlight"
     style="fill:currentColor"
     d="M 4 6 L 4 18 L 13 18 A 5 5 0 0 0 18 23 A 5 5 0 0 0 23 18 A 5 5 0 0 0 20 13.419922 L 20 6 L 4 6 z M 6 7 L 18 7 L 18 13 A 5 5 0 0 0 13.101562 17 L 6 17 L 6 7 z M 15 15 L 16 15 L 18 17 L 20 15 L 21 15 L 21 16 L 19 18 L 21 20 L 21 21 L 20 21 L 18 19 L 16 21 L 15 21 L 15 20 L 17 18 L 15 16 L 15 15 z "
     id="path852" />
</svg>
