<?xml version="1.0" encoding="UTF-8" standalone="no"?>
<svg
   xmlns:dc="http://purl.org/dc/elements/1.1/"
   xmlns:cc="http://creativecommons.org/ns#"
   xmlns:rdf="http://www.w3.org/1999/02/22-rdf-syntax-ns#"
   xmlns:svg="http://www.w3.org/2000/svg"
   xmlns="http://www.w3.org/2000/svg"
   xmlns:sodipodi="http://sodipodi.sourceforge.net/DTD/sodipodi-0.dtd"
   xmlns:inkscape="http://www.inkscape.org/namespaces/inkscape"
   width="48"
   height="48"
   version="1.1"
   id="svg6"
   sodipodi:docname="text-html.svg"
   inkscape:version="0.92.4 (5da689c313, 2019-01-14)">
  <defs
     id="defs10" />
  <sodipodi:namedview
     pagecolor="#ffffff"
     bordercolor="#666666"
     borderopacity="1"
     objecttolerance="10"
     gridtolerance="10"
     guidetolerance="10"
     inkscape:pageopacity="0"
     inkscape:pageshadow="2"
     inkscape:window-width="1087"
     inkscape:window-height="480"
     id="namedview8"
     showgrid="false"
     inkscape:zoom="4.9166667"
     inkscape:cx="2.1355932"
     inkscape:cy="24"
     inkscape:window-x="0"
     inkscape:window-y="25"
     inkscape:window-maximized="0"
     inkscape:current-layer="svg6" />
  <metadata
     id="metadata2">
    <rdf:RDF>
      <cc:Work>
        <dc:format>image/svg+xml</dc:format>
        <dc:type
           rdf:resource="http://purl.org/dc/dcmitype/StillImage" />
        <dc:title></dc:title>
      </cc:Work>
    </rdf:RDF>
  </metadata>
  <path
     style="line-height:normal;text-indent:0;text-align:start;text-decoration:none;text-decoration-line:none;text-transform:none;fill:#a02c2c;marker:none"
     d="m 29.7,-0.08 c -2.04,0 -4.12,0.08 -4.51,0.1 H 7 a 2.94,2.94 0 0 0 -0.56,0 3.1,3.1 0 0 0 -2.44,3 V 45 c 0,1.57 1.43,3 3,3 h 34 c 1.57,0 3,-1.43 3,-3 V 18.82 c 0.02,-0.8 0.22,-9.93 -0.34,-10.5 l -9.6,-8.07 c -0.29,-0.28 -2.3,-0.34 -4.35,-0.33 z m 1.5,3.08 0.13,7.5 c 0.01,0.68 0.64,1.3 1.31,1.28 l 7.78,-0.13 c 0.13,0.01 0.26,0.01 0.4,-0.01 l 0.08,3.03 0.1,4.09 V 45 H 7 V 3.02 H 25.67 L 31.2,3.01 Z m -8.1,11.36 v 0.03 A 13.63,13.63 0 0 0 10.4,27.1 h -0.03 v 1.82 H 10.4 A 13.63,13.63 0 0 0 23.1,41.6 v 0.03 h 1.8 V 41.6 A 13.62,13.62 0 0 0 37.6,28.9 h 0.03 V 27.1 H 37.59 A 13.62,13.62 0 0 0 24.91,14.4 V 14.37 H 23.1 Z m 0,1.93 v 5.34 h -4.47 c 0.98,-2.83 2.6,-4.83 4.46,-5.34 z m 1.8,0 c 1.87,0.5 3.48,2.51 4.46,5.34 H 24.9 V 16.3 Z m -6,1.04 a 14.46,14.46 0 0 0 -2.14,4.3 h -2.72 a 11.89,11.89 0 0 1 4.86,-4.3 z m 10.2,0 a 11.89,11.89 0 0 1 4.86,4.3 h -2.73 a 14.36,14.36 0 0 0 -2.14,-4.3 z m -16,6.12 h 3.19 a 21.58,21.58 0 0 0 -0.45,3.63 h -3.62 a 11.71,11.71 0 0 1 0.87,-3.63 z m 5.03,0 h 4.96 v 3.63 h -5.43 a 20.32,20.32 0 0 1 0.46,-3.63 z m 6.78,0 h 4.96 c 0.26,1.13 0.42,2.35 0.47,3.63 h -5.43 z m 6.8,0 h 3.2 c 0.47,1.13 0.77,2.35 0.87,3.63 h -3.62 a 21.58,21.58 0 0 0 -0.45,-3.63 z m -19.5,5.45 h 3.63 c 0.05,1.27 0.2,2.48 0.45,3.63 h -3.2 A 11.71,11.71 0 0 1 12.22,28.9 Z m 5.45,0 h 5.43 v 3.64 H 18.13 A 20.31,20.31 0 0 1 17.66,28.9 Z m 7.25,0 h 5.43 a 20.14,20.14 0 0 1 -0.47,3.63 H 24.9 V 28.9 Z m 7.25,0 h 3.61 a 11.65,11.65 0 0 1 -0.86,3.63 h -3.2 a 21.58,21.58 0 0 0 0.45,-3.63 z m -18.12,5.45 h 2.72 a 14.4,14.4 0 0 0 2.14,4.3 11.87,11.87 0 0 1 -4.86,-4.3 z m 4.6,0 h 4.45 v 5.34 c -1.87,-0.5 -3.48,-2.5 -4.46,-5.34 z m 6.27,0 h 4.45 c -0.98,2.83 -2.59,4.84 -4.45,5.34 z m 6.33,0 h 2.71 a 11.87,11.87 0 0 1 -4.85,4.3 c 0.87,-1.17 1.6,-2.63 2.14,-4.3 z"
     id="path4"
     inkscape:connector-curvature="0" />
</svg>
