<svg xmlns="http://www.w3.org/2000/svg" width="24" height="24" version="1"><path d="M12 1.502C6.207 1.502 1.502 6.208 1.502 12c0 5.792 4.706 10.498 10.498 10.498 5.793 0 10.498-4.706 10.498-10.498 0-5.793-4.706-10.498-10.498-10.498z" fill="#501616"/><g font-weight="400" font-family="Sans" fill="#fff"><path d="M18.8 6a1.047 1.047 0 0 0-.125.032c-.447.1-.793.542-.782 1v1.687c.005 1.313.005 1.313-1.562 1.313h-1.438c-.523 0-1 .476-1 1a1 1 0 0 0 0 .218v.782h6v-5a.979.979 0 0 0 0-.188v-.812h-.812a1.002 1.002 0 0 0-.28-.032zM3.903 12v5a.979.979 0 0 0 0 .188V18h.812a.99.99 0 0 0 .281.031c.043-.008.084-.018.125-.031.447-.1.793-.542.782-1v-1.688C5.898 14 5.898 14 7.465 14h1.438c.523 0 1-.476 1-1a1 1 0 0 0 0-.219V12z" overflow="visible" style="text-indent:0;text-decoration-line:none;text-transform:none" color="#bebebe"/><path d="M11.898 5c-3.153 0-5.82 2.126-6.688 5h2.094a5.013 5.013 0 0 1 4.594-3 5.013 5.013 0 0 1 4.594 3h2.094c-.869-2.874-3.536-5-6.688-5zM5.21 14c.87 2.874 3.535 5 6.688 5 3.153 0 5.82-2.126 6.688-5h-2.094a5.013 5.013 0 0 1-4.594 3 5.013 5.013 0 0 1-4.594-3z" overflow="visible" style="text-indent:0;text-decoration-line:none;text-transform:none"/></g></svg>