<svg xmlns="http://www.w3.org/2000/svg" width="48" height="48" viewBox="0 0 12.7 12.7"><path fill="#ff7f2a" d="M6.34.07a6.29 6.29 0 0 0-6.29 6.3 6.29 6.29 0 0 0 6.3 6.28 6.29 6.29 0 0 0 6.28-6.29A6.29 6.29 0 0 0 6.34.07zm-.01.94a5.4 5.4 0 0 1 5.4 5.4A5.4 5.4 0 0 1 10.7 9.6a.91.91 0 0 0-.29-.05H7.55v-.29c0-.12-.17-.22-.39-.22H6.8v-.6h1.64c.21 0 .39-.1.39-.23V2.24c0-.13-.18-.23-.39-.23h-4.1c-.22 0-.39.1-.39.23V8.2c0 .13.17.23.39.23H5.9v.6H5.5c-.21 0-.39.1-.39.22v.29H2.2a.95.95 0 0 0-.25.03A5.4 5.4 0 0 1 .92 6.42 5.4 5.4 0 0 1 6.32 1zm-1.6 1.68h3.24c.17 0 .31.08.31.17V7.6c0 .1-.13.18-.3.18H4.71c-.17 0-.3-.08-.3-.18V2.86c0-.1.13-.18.3-.18zm.23.3a.28.28 0 0 0-.29.28v.51c0 .16.13.29.29.29h2.79a.28.28 0 0 0 .28-.29v-.5a.28.28 0 0 0-.28-.3h-2.8zm0 1.59a.28.28 0 0 0-.29.28v.51c0 .16.13.28.29.28h2.79a.28.28 0 0 0 .28-.28v-.5a.28.28 0 0 0-.28-.3h-2.8zm0 1.58a.28.28 0 0 0-.29.29v.5c0 .16.13.3.29.3h2.79a.28.28 0 0 0 .28-.3v-.5a.28.28 0 0 0-.28-.29h-2.8zM2.6 10.32h2.52v.24c0 .13.18.23.4.23h1.64c.22 0 .39-.1.39-.23v-.24h2.5a5.4 5.4 0 0 1-3.72 1.5 5.4 5.4 0 0 1-3.73-1.5z"/></svg>