<svg xmlns="http://www.w3.org/2000/svg" height="24" width="24"><path d="M12 1.136A10.818 10.864 0 0 0 1.182 12 10.818 10.864 0 0 0 12 22.864 10.818 10.864 0 0 0 22.818 12 10.818 10.864 0 0 0 12 1.136zm.055 2.317c4.685 0 8.496 3.811 8.496 8.496 0 4.685-3.81 8.496-8.496 8.496-4.684 0-8.495-3.811-8.495-8.496 0-4.685 3.81-8.496 8.495-8.496zm0 1.556a6.948 6.948 0 0 0-6.94 6.94c0 1.724.634 3.303 1.68 4.518l9.778-9.779a6.908 6.908 0 0 0-4.518-1.679zm5.579 2.818l-9.701 9.701a6.904 6.904 0 0 0 4.122 1.361 6.948 6.948 0 0 0 6.94-6.94 6.902 6.902 0 0 0-1.361-4.122z" fill="gray" fill-opacity=".981" paint-order="markers fill stroke"/></svg>