<?xml version="1.0" encoding="UTF-8" standalone="no"?>
<svg
   xmlns:dc="http://purl.org/dc/elements/1.1/"
   xmlns:cc="http://creativecommons.org/ns#"
   xmlns:rdf="http://www.w3.org/1999/02/22-rdf-syntax-ns#"
   xmlns:svg="http://www.w3.org/2000/svg"
   xmlns="http://www.w3.org/2000/svg"
   xmlns:sodipodi="http://sodipodi.sourceforge.net/DTD/sodipodi-0.dtd"
   xmlns:inkscape="http://www.inkscape.org/namespaces/inkscape"
   width="24"
   height="24"
   version="1"
   id="svg10"
   sodipodi:docname="emblem-synchronizing.svg"
   inkscape:version="0.92.4 (5da689c313, 2019-01-14)">
  <metadata
     id="metadata16">
    <rdf:RDF>
      <cc:Work
         rdf:about="">
        <dc:format>image/svg+xml</dc:format>
        <dc:type
           rdf:resource="http://purl.org/dc/dcmitype/StillImage" />
        <dc:title></dc:title>
      </cc:Work>
    </rdf:RDF>
  </metadata>
  <defs
     id="defs14" />
  <sodipodi:namedview
     pagecolor="#ffffff"
     bordercolor="#666666"
     borderopacity="1"
     objecttolerance="10"
     gridtolerance="10"
     guidetolerance="10"
     inkscape:pageopacity="0"
     inkscape:pageshadow="2"
     inkscape:window-width="1087"
     inkscape:window-height="480"
     id="namedview12"
     showgrid="false"
     inkscape:zoom="9.8333333"
     inkscape:cx="1.0677966"
     inkscape:cy="12"
     inkscape:window-x="0"
     inkscape:window-y="25"
     inkscape:window-maximized="0"
     inkscape:current-layer="svg10" />
  <path
     d="M12 1.502C6.207 1.502 1.502 6.208 1.502 12c0 5.792 4.706 10.498 10.498 10.498 5.793 0 10.498-4.706 10.498-10.498 0-5.793-4.706-10.498-10.498-10.498z"
     fill="#501616"
     id="path2"
     style="fill:#1a1a1a;fill-opacity:1" />
  <g
     font-weight="400"
     font-family="Sans"
     fill="#fff"
     id="g8">
    <path
       d="M18.8 6a1.047 1.047 0 0 0-.125.032c-.447.1-.793.542-.782 1v1.687c.005 1.313.005 1.313-1.562 1.313h-1.438c-.523 0-1 .476-1 1a1 1 0 0 0 0 .218v.782h6v-5a.979.979 0 0 0 0-.188v-.812h-.812a1.002 1.002 0 0 0-.28-.032zM3.903 12v5a.979.979 0 0 0 0 .188V18h.812a.99.99 0 0 0 .281.031c.043-.008.084-.018.125-.031.447-.1.793-.542.782-1v-1.688C5.898 14 5.898 14 7.465 14h1.438c.523 0 1-.476 1-1a1 1 0 0 0 0-.219V12z"
       overflow="visible"
       style="text-indent:0;text-decoration-line:none;text-transform:none"
       color="#bebebe"
       id="path4" />
    <path
       d="M11.898 5c-3.153 0-5.82 2.126-6.688 5h2.094a5.013 5.013 0 0 1 4.594-3 5.013 5.013 0 0 1 4.594 3h2.094c-.869-2.874-3.536-5-6.688-5zM5.21 14c.87 2.874 3.535 5 6.688 5 3.153 0 5.82-2.126 6.688-5h-2.094a5.013 5.013 0 0 1-4.594 3 5.013 5.013 0 0 1-4.594-3z"
       overflow="visible"
       style="text-indent:0;text-decoration-line:none;text-transform:none"
       id="path6" />
  </g>
</svg>
