<?xml version="1.0" encoding="UTF-8" standalone="no"?>
<svg
   xmlns:dc="http://purl.org/dc/elements/1.1/"
   xmlns:cc="http://creativecommons.org/ns#"
   xmlns:rdf="http://www.w3.org/1999/02/22-rdf-syntax-ns#"
   xmlns:svg="http://www.w3.org/2000/svg"
   xmlns="http://www.w3.org/2000/svg"
   xmlns:sodipodi="http://sodipodi.sourceforge.net/DTD/sodipodi-0.dtd"
   xmlns:inkscape="http://www.inkscape.org/namespaces/inkscape"
   width="24"
   height="24"
   version="1"
   id="svg6"
   sodipodi:docname="emblem-shared.svg"
   inkscape:version="0.92.4 (5da689c313, 2019-01-14)">
  <metadata
     id="metadata12">
    <rdf:RDF>
      <cc:Work
         rdf:about="">
        <dc:format>image/svg+xml</dc:format>
        <dc:type
           rdf:resource="http://purl.org/dc/dcmitype/StillImage" />
        <dc:title></dc:title>
      </cc:Work>
    </rdf:RDF>
  </metadata>
  <defs
     id="defs10" />
  <sodipodi:namedview
     pagecolor="#ffffff"
     bordercolor="#666666"
     borderopacity="1"
     objecttolerance="10"
     gridtolerance="10"
     guidetolerance="10"
     inkscape:pageopacity="0"
     inkscape:pageshadow="2"
     inkscape:window-width="1087"
     inkscape:window-height="480"
     id="namedview8"
     showgrid="false"
     inkscape:zoom="9.8333333"
     inkscape:cx="1.0677966"
     inkscape:cy="12"
     inkscape:window-x="0"
     inkscape:window-y="25"
     inkscape:window-maximized="0"
     inkscape:current-layer="svg6" />
  <path
     d="M12 1.502C6.207 1.502 1.502 6.208 1.502 12c0 5.792 4.706 10.498 10.498 10.498 5.793 0 10.498-4.706 10.498-10.498 0-5.793-4.706-10.498-10.498-10.498z"
     fill="#373748"
     id="path2"
     style="fill:#1a1a1a;fill-opacity:1" />
  <path
     d="M15.597 5.488a2.456 2.456 0 0 0-2.011 1.225 2.456 2.456 0 0 0-.237 1.884l-3.251 1.878a2.456 2.456 0 0 0-1.753-.736 2.456 2.456 0 0 0-2.456 2.456 2.456 2.456 0 0 0 2.456 2.456 2.456 2.456 0 0 0 1.751-.736l3.251 1.878a2.456 2.456 0 0 0 .238 1.883 2.456 2.456 0 0 0 3.356.9 2.456 2.456 0 0 0 .9-3.356 2.456 2.456 0 0 0-3.356-.898 2.456 2.456 0 0 0-.525.407l-3.251-1.877a2.456 2.456 0 0 0 .092-.657 2.456 2.456 0 0 0-.09-.657l3.251-1.877a2.456 2.456 0 0 0 .523.406 2.456 2.456 0 0 0 3.355-.898 2.456 2.456 0 0 0-.9-3.355 2.456 2.456 0 0 0-1.343-.326z"
     fill="#fff"
     id="path4" />
</svg>
