<?xml version="1.0" encoding="UTF-8" standalone="no"?>
<svg
   xmlns:dc="http://purl.org/dc/elements/1.1/"
   xmlns:cc="http://creativecommons.org/ns#"
   xmlns:rdf="http://www.w3.org/1999/02/22-rdf-syntax-ns#"
   xmlns:svg="http://www.w3.org/2000/svg"
   xmlns="http://www.w3.org/2000/svg"
   xmlns:sodipodi="http://sodipodi.sourceforge.net/DTD/sodipodi-0.dtd"
   xmlns:inkscape="http://www.inkscape.org/namespaces/inkscape"
   width="24"
   height="24"
   version="1"
   id="svg6"
   sodipodi:docname="emblem-default.svg"
   inkscape:version="0.92.4 (5da689c313, 2019-01-14)">
  <metadata
     id="metadata12">
    <rdf:RDF>
      <cc:Work
         rdf:about="">
        <dc:format>image/svg+xml</dc:format>
        <dc:type
           rdf:resource="http://purl.org/dc/dcmitype/StillImage" />
        <dc:title></dc:title>
      </cc:Work>
    </rdf:RDF>
  </metadata>
  <defs
     id="defs10" />
  <sodipodi:namedview
     pagecolor="#ffffff"
     bordercolor="#666666"
     borderopacity="1"
     objecttolerance="10"
     gridtolerance="10"
     guidetolerance="10"
     inkscape:pageopacity="0"
     inkscape:pageshadow="2"
     inkscape:window-width="1087"
     inkscape:window-height="480"
     id="namedview8"
     showgrid="false"
     inkscape:zoom="9.8333333"
     inkscape:cx="1.0677966"
     inkscape:cy="12"
     inkscape:window-x="0"
     inkscape:window-y="25"
     inkscape:window-maximized="0"
     inkscape:current-layer="svg6" />
  <path
     d="M12 1.502C6.207 1.502 1.502 6.208 1.502 12c0 5.792 4.706 10.498 10.498 10.498 5.793 0 10.498-4.706 10.498-10.498 0-5.793-4.706-10.498-10.498-10.498z"
     fill="#501616"
     id="path2"
     style="fill:#1a1a1a;fill-opacity:1" />
  <path
     d="M11.986 5c-3.84 0-6.942 3.135-6.942 7s3.103 7 6.942 7c3.838 0 6.97-3.135 6.97-7a7.04 7.04 0 0 0-.116-1.137l-6.434 5.763-4.053-4.055 2.126-2.086 1.928 2.06 5.062-4.862A6.93 6.93 0 0 0 11.986 5z"
     fill="#fff"
     fill-rule="evenodd"
     id="path4" />
</svg>
