<?xml version="1.0" encoding="UTF-8" standalone="no"?>
<svg
   xmlns:dc="http://purl.org/dc/elements/1.1/"
   xmlns:cc="http://creativecommons.org/ns#"
   xmlns:rdf="http://www.w3.org/1999/02/22-rdf-syntax-ns#"
   xmlns:svg="http://www.w3.org/2000/svg"
   xmlns="http://www.w3.org/2000/svg"
   xmlns:sodipodi="http://sodipodi.sourceforge.net/DTD/sodipodi-0.dtd"
   xmlns:inkscape="http://www.inkscape.org/namespaces/inkscape"
   width="24"
   height="24"
   version="1"
   id="svg6"
   sodipodi:docname="emblem-github.svg"
   inkscape:version="0.92.4 (5da689c313, 2019-01-14)">
  <metadata
     id="metadata12">
    <rdf:RDF>
      <cc:Work
         rdf:about="">
        <dc:format>image/svg+xml</dc:format>
        <dc:type
           rdf:resource="http://purl.org/dc/dcmitype/StillImage" />
        <dc:title></dc:title>
      </cc:Work>
    </rdf:RDF>
  </metadata>
  <defs
     id="defs10" />
  <sodipodi:namedview
     pagecolor="#ffffff"
     bordercolor="#666666"
     borderopacity="1"
     objecttolerance="10"
     gridtolerance="10"
     guidetolerance="10"
     inkscape:pageopacity="0"
     inkscape:pageshadow="2"
     inkscape:window-width="1087"
     inkscape:window-height="480"
     id="namedview8"
     showgrid="false"
     inkscape:zoom="9.8333333"
     inkscape:cx="1.0677966"
     inkscape:cy="12"
     inkscape:window-x="0"
     inkscape:window-y="25"
     inkscape:window-maximized="0"
     inkscape:current-layer="svg6" />
  <path
     d="M12 1.502C6.207 1.502 1.502 6.208 1.502 12c0 5.792 4.706 10.498 10.498 10.498 5.793 0 10.498-4.706 10.498-10.498 0-5.793-4.706-10.498-10.498-10.498z"
     fill="#445016"
     id="path2"
     style="fill:#1a1a1a;fill-opacity:1" />
  <path
     d="M6.999 4.826c-.11.005-.164.023-.164.023-.553 1.4-.203 2.434-.098 2.691-.651.711-1.048 1.619-1.048 2.729 0 3.897 2.374 4.77 4.633 5.027-.291.254-.554.702-.646 1.36-.58.26-2.053.708-2.96-.846 0 0-.537-.976-1.558-1.047 0 0-.993-.014-.07.617 0 0 .668.313 1.13 1.488 0 0 .597 1.978 3.426 1.364.005.848.013 1.488.013 1.73 0 .232-.139.497-.504.506v.002h6.068c-.38.002-.52-.27-.52-.509 0-.333.012-1.43.012-2.789 0-.949-.326-1.57-.69-1.884 2.265-.251 4.643-1.112 4.643-5.02 0-1.11-.394-2.017-1.046-2.728.105-.257.455-1.291-.1-2.691 0 0-.853-.274-2.794 1.042a9.73 9.73 0 0 0-2.547-.342 9.714 9.714 0 0 0-2.546.342c-1.457-.987-2.303-1.08-2.634-1.065z"
     fill="#fff"
     id="path4" />
</svg>
