<svg xmlns="http://www.w3.org/2000/svg" version="1" viewBox="0 0 24 24"><path fill="#a02c2c" d="M4.5.5c-.833 0-1.9.642-2 1.432L.523 17.67c-.015 0-.023.003-.023.015h23c0-.012-.009-.015-.023-.015L21.5 1.932C21.4 1.142 20.333.5 19.5.5h-15zm4 2.094h7v6h3.111l-6.611 7-6.611-7H8.5v-6zm15 15.906l-23 .002c.464 4.044.233 3.98 1.15 3.98 7.317 0 20.324.048 20.654 0 .845 0 .73-.602 1.196-3.982zM6 18.91a1.711 1.578 0 0 1 1.71 1.578A1.711 1.578 0 0 1 6 22.066a1.711 1.578 0 0 1-1.71-1.578A1.711 1.578 0 0 1 6 18.91zm6 0a1.711 1.578 0 0 1 1.71 1.578A1.711 1.578 0 0 1 12 22.066a1.711 1.578 0 0 1-1.71-1.578A1.711 1.578 0 0 1 12 18.91zm6 0a1.711 1.578 0 0 1 1.71 1.578A1.711 1.578 0 0 1 18 22.066a1.711 1.578 0 0 1-1.71-1.578A1.711 1.578 0 0 1 18 18.91z"/></svg>