<svg xmlns="http://www.w3.org/2000/svg" version="1" viewBox="0 0 24 24"><path fill="#a02c2c" d="M11.999 1c-.346 0-.691.018-1.03.05l-.639 3.29a7.876 7.876 0 0 0-1.523.49L6.401 2.525c-.61.361-1.142.807-1.67 1.276l1.424 2.995a7.947 7.947 0 0 0-.932 1.278l-3.29-.442a10.859 10.859 0 0 0-.639 2.011l2.896 1.572a7.584 7.584 0 0 0-.047.786c0 .272.02.521.047.785l-2.896 1.572c.153.7.359 1.37.638 2.013l3.29-.442c.268.456.584.885.933 1.276L4.73 20.202c.528.468 1.06.915 1.67 1.276l2.406-2.308a7.8 7.8 0 0 0 1.523.491l.638 3.291a11.186 11.186 0 0 0 2.062 0l.64-3.29a7.787 7.787 0 0 0 1.52-.492l2.408 2.31c.61-.362 1.143-.81 1.67-1.278l-1.425-2.997c.35-.391.667-.82.934-1.276l3.289.442a10.859 10.859 0 0 0 .64-2.013l-2.898-1.572c.026-.264.048-.514.048-.785s-.022-.522-.048-.786l2.898-1.572a10.856 10.856 0 0 0-.64-2.013l-3.29.442a7.947 7.947 0 0 0-.933-1.278L19.267 3.8c-.526-.468-1.06-.914-1.669-1.276L15.19 4.83a7.88 7.88 0 0 0-1.521-.49l-.64-3.29A11.186 11.186 0 0 0 12 1zm0 6.286a4.714 4.714 0 1 1 0 9.429 4.714 4.714 0 0 1 0-9.429z" overflow="visible"/></svg>