<svg xmlns="http://www.w3.org/2000/svg" version="1" viewBox="0 0 24 24"><path fill="#a02c2c" d="M1.922.592C1.162.592.55 1.202.55 1.96v2.285c0 .036.01.069.012.104v6.683H.549v2.139c0 .76.61 1.371 1.369 1.371h3.619v5.389h-.012v2.138c0 .76.61 1.372 1.37 1.372h15.272c.76 0 1.37-.612 1.37-1.372v-1.832h.001v-9.22h-4.976V2.12H8.646L7.115.591H1.92zm.603 2.928h14.02c.368 0 .663.296.663.664v.6H2.917c-.022 0-.04.009-.06.01a.503.503 0 0 0-.432.509c0 .028.011.053.015.08-.004.033-.015.063-.015.097v2.37c0 .387.24.697.54.697.3 0 .542-.31.542-.697V5.826h13.7v5.192h-3.585l-1.53-1.53H6.9a1.37 1.37 0 0 0-1.373 1.371v2.235h-3a.664.664 0 0 1-.664-.664V4.182c0-.367.297-.662.664-.662zm5.012 9.035h15.977l.006 1.043H8.163v2.023c0 .387-.257.7-.574.7-.318 0-.575-.313-.575-.7v-2.367c0-.035.014-.064.018-.098-.004-.027-.018-.052-.018-.08 0-.266.202-.475.46-.508.021-.002.041-.013.064-.013z"/></svg>