<svg xmlns="http://www.w3.org/2000/svg" width="24" height="24" id="svg9"><defs id="defs3"><style id="current-color-scheme"></style></defs><path d="M12 3a4.38 4.38 0 1 0-.01 8.76A4.38 4.38 0 0 0 12 3zm6.01 11.12a4.5 4.5 0 0 0-4.5 4.5 4.5 4.5 0 0 0 4.5 4.5 4.5 4.5 0 0 0 4.5-4.5 4.5 4.5 0 0 0-4.5-4.5zm.1.46l4 4-4 4-1.5-1.5 1.5-1.5h-4v-2h4l-1.5-1.5 1.5-1.5zM12 14.7c-8.77 0-8.77 5.85-8.77 5.85V22h10.45a5.5 5.5 0 0 1-.2-.28 5.5 5.5 0 0 1-.3-.47 5.5 5.5 0 0 1-.23-.49 5.5 5.5 0 0 1-.2-.52 5.5 5.5 0 0 1-.13-.53 5.5 5.5 0 0 1-.08-.54 5.5 5.5 0 0 1-.03-.55 5.5 5.5 0 0 1 .02-.4 5.5 5.5 0 0 1 .06-.54 5.5 5.5 0 0 1 .12-.53 5.5 5.5 0 0 1 .17-.52 5.5 5.5 0 0 1 .23-.5 5.5 5.5 0 0 1 .27-.48 5.5 5.5 0 0 1 .32-.45 5.5 5.5 0 0 1 .3-.34c-.63-.08-1.24-.17-2-.17z" id="path830" color="#dfdfdf" fill="#a02c2c" stroke-width="1.46"/></svg>
