<svg xmlns="http://www.w3.org/2000/svg" width="24" height="24" id="svg7"><defs id="defs3"><style id="current-color-scheme"></style></defs><path d="M2 0a2 2 0 0 0-2 2v12c0 1.1.9 2 2 2h12a2 2 0 0 0 2-2V2a2 2 0 0 0-2-2H2zm1.71 2h8.58c.95 0 1.71.77 1.71 1.71v8.58c0 .95-.76 1.71-1.71 1.71H3.7C2.77 14 2 13.24 2 12.29V3.7C2 2.77 2.77 2 3.71 2zm3.03 1l-.11 1.32a3.96 3.93 0 0 0-1.16.66l-1.2-.56L3 6.58l1.1.76a3.96 3.93 0 0 0-.06.66 3.96 3.93 0 0 0 .06.67L3 9.42l1.26 2.16 1.2-.56a3.96 3.93 0 0 0 1.17.66L6.74 13h2.52l.11-1.32a3.96 3.93 0 0 0 1.16-.66l1.21.56L13 9.42l-1.1-.76a3.96 3.93 0 0 0 .06-.66 3.96 3.93 0 0 0-.05-.67l1.1-.75-1.27-2.16-1.2.56a3.96 3.93 0 0 0-1.17-.66L9.27 3H6.73zM8 6.57A1.44 1.43 0 0 1 9.44 8 1.44 1.43 0 0 1 8 9.43 1.44 1.43 0 0 1 6.56 8 1.44 1.43 0 0 1 8 6.57z" transform="translate(4 4)" id="path5" fill="#2c89a0" color="#4285f4"/></svg>
