<svg xmlns="http://www.w3.org/2000/svg" width="24" height="24" id="svg9"><defs id="defs3"><style id="current-color-scheme"/></defs><path d="M3.52 4.25A1.52 1.52 0 0 0 2 5.77v2.54l.02.11v7.42H2v2.39c0 .85.68 1.52 1.52 1.52H20.5a1.52 1.52 0 0 0 1.5-1.52V5.95H11l-1.7-1.7H3.52zm.7 3.4h17.76v1.17H4.92v2.25c0 .42-.28.77-.64.77-.35 0-.63-.35-.63-.77V8.43l.02-.1-.02-.09c0-.3.22-.53.5-.57l.08-.01v-.01zm13.28 3.29a4.33 4.33 0 0 1 4.33 4.32v.54a1.62 1.62 0 0 1-2.87 1.05 2.15 2.15 0 0 1-3.62-1.59 2.16 2.16 0 0 1 4.32 0v.54a.54.54 0 0 0 1.08 0v-.54a3.24 3.24 0 1 0-3.24 3.25h2.7s.54 0 .54.54c-.03.54-.54.54-.54.54h-2.7a4.33 4.33 0 1 1 0-8.65zm0 3.24a1.08 1.08 0 1 0 0 2.16 1.08 1.08 0 0 0 0-2.16z" id="path826" fill="#a02c2c"/></svg>
