<svg xmlns="http://www.w3.org/2000/svg" width="24" height="24" id="svg7"><defs id="defs3"><style id="current-color-scheme"></style></defs><path d="M17.44 2.36v2.76a6.27 7 0 0 0-.16 0 6.27 7 0 0 0-4.5 2.12 7.5 8.37 0 0 1 .1.14 7.5 8.37 0 0 1 .39.71 7.5 8.37 0 0 1 .33.76 7.5 8.37 0 0 1 .2.6 4.22 4.7 0 0 1 3.48-2.05 4.22 4.7 0 0 1 .16 0v3.22l5.5-4.13-5.5-4.13zM6.79 5.1a6.27 7 0 0 0-5.48 3.62h2.55A4.22 4.7 0 0 1 6.79 7.4a4.22 4.7 0 0 1 4.23 4.7 6.27 7 0 0 0 6.27 7 6.27 7 0 0 0 .16-.01v2.55l5.5-4.13-5.5-4.13v3.42a4.22 4.7 0 0 1-.16.01 4.22 4.7 0 0 1-4.23-4.7 6.27 7 0 0 0-6.27-7V5.1zm-.86 3.7l-2.16 5.83h1.5l.38-1.06H8l.37 1.06h1.51L7.72 8.8h-1.8zm.9 1.37l.8 2.32h-1.6l.8-2.32zm3.65 4.18a7.5 8.37 0 0 0 0 .01 4.22 4.7 0 0 0 .01-.01zm0 .01A4.22 4.7 0 0 1 6.8 16.8a4.22 4.7 0 0 1-3.39-1.92H1.04a6.27 7 0 0 0 5.75 4.2 6.27 7 0 0 0 4.67-2.34 7.5 8.37 0 0 1-.34-.63 7.5 8.37 0 0 1-.33-.76 7.5 8.37 0 0 1-.25-.78 7.5 8.37 0 0 1-.05-.2z" id="path2" fill="#a02c2c"/></svg>
