<svg xmlns="http://www.w3.org/2000/svg" width="24" height="24" id="svg7"><defs id="defs3"><style id="current-color-scheme"></style></defs><path d="M9.25 3.38a4.13 4.13 0 1 0 0 8.25 4.13 4.13 0 0 0 0-8.26zm6.88 2.68c-.54 0-1.04.12-1.5.33a5.46 5.46 0 0 1-1.5 5 3.58 3.58 0 0 0 3 1.62 3.52 3.52 0 0 0 3.56-3.48c0-1.92-1.6-3.47-3.57-3.47zm-6.88 8.32C1 14.38 1 19.88 1 19.88v1.38c1.21 0 18.59 0 13.75-.01-.76 0-1.37-.62-1.38-1.38v-2.75c0-.75.62-1.37 1.38-1.37h.21c-1.22-.79-3.02-1.38-5.71-1.38zm8.25 0v2.74h-2.75v2.75h2.75v2.75h2.75v-2.75H23v-2.75h-2.75v-2.75z" id="path5" color="#dfdfdf" fill="#a02c2c" stroke-width="1.38"/></svg>
