<svg xmlns="http://www.w3.org/2000/svg" width="24" height="24"><path d="M12 1.14A10.86 10.86 0 0 0 1.14 12 10.86 10.86 0 0 0 12 22.86 10.86 10.86 0 0 0 22.86 12 10.86 10.86 0 0 0 12 1.14zm.02 1.82A8.97 8.97 0 0 1 21 11.93a8.97 8.97 0 0 1-8.98 8.97 8.97 8.97 0 0 1-8.97-8.97 8.97 8.97 0 0 1 8.97-8.97zm.33 1.9A7.21 7.21 0 0 0 7 6.95a7.21 7.21 0 0 0 0 10.2 7.21 7.21 0 0 0 10.2 0 7.21 7.21 0 0 0 1.04-8.87l-1.26 1.26a5.44 5.44 0 0 1-1 6.33 5.44 5.44 0 0 1-7.68 0 5.44 5.44 0 0 1 0-7.7 5.44 5.44 0 0 1 6.2-1.04l1.28-1.28a7.21 7.21 0 0 0-3.43-1z" fill="gray"/></svg>