<svg xmlns="http://www.w3.org/2000/svg" width="48" height="48" viewBox="0 0 12.7 12.7"><path d="M8.5 9.69H4.2v.6c1.44 1.03 3.1.72 4.3-.02z" fill="maroon"/><path d="M6.42 1.93a4.5 4.5 0 0 0-2.22.56v7.2h4.3l.01-7.2a4.83 4.83 0 0 0-2.1-.56zm.37 1.44v2.46h.86L5.92 9.2V6.73h-.87L6.8 3.37z" opacity=".5" fill="maroon"/><path d="M6.35 1.35a5 5 0 0 0-5 5 5 5 0 0 0 5 5 5 5 0 0 0 5-5 5 5 0 0 0-5-5zm-.01.75a4.3 4.3 0 0 1 4.3 4.3 4.3 4.3 0 0 1-4.3 4.29 4.3 4.3 0 0 1-4.3-4.3 4.3 4.3 0 0 1 4.3-4.3z" fill="maroon"/></svg>