<svg xmlns="http://www.w3.org/2000/svg" width="48" height="48"><path style="line-height:normal;text-indent:0;text-align:start;text-decoration-line:none;text-transform:none;marker:none" d="M29.7-.08c-2.04 0-4.12.08-4.51.1H7a2.94 2.94 0 0 0-.56 0 3.1 3.1 0 0 0-2.44 3V45c0 1.57 1.43 3 3 3h34c1.57 0 3-1.43 3-3V18.82c.02-.8.21-9.93-.34-10.5L34.06.25c-.29-.28-2.3-.34-4.36-.33zM31.2 3l.13 7.5c.01.68.64 1.3 1.31 1.28l7.78-.13c.13.01.26.01.4-.01l.08 3.03.1 4.09V45H7V3.02h18.67l5.52-.01zm-3.14 15.08l-7.04.03c.93-.03 1.8.8 2.63 2.05.75 1.28 1.45 2.6 2.06 4.02l-2.46 1.42 7.14.68 3-6.53-2.48 1.43c-.68-1.37-1.54-2.52-2.85-3.1zm-7.41.5c-.33.07-.6.21-.8.43a17.91 17.91 0 0 0-3.49 4.85l4.65 2.67 3.17-4.45a40.93 40.93 0 0 0-.92-1.67c-.41-.6-1.2-1.68-2.01-1.82h-.6zm12.84 7.66L28.89 29l.22.49.03-.04v.1l1.84 3.9c.74.03 1.48.03 2.23.02.77-.06 2.2-.24 2.64-.97l.04-.08.18-.32a1.45 1.45 0 0 0-.06-.43c-.6-2.23-1.52-3.9-2.52-5.42zm-15.43.77l-7.07 1.3 2.6 1.2c-.74 1.35-1.17 2.71-.9 4.12 1.36 1.91 2.71 3.83 4.08 5.74-.57-.74-.37-1.93.16-3.33.62-1.34 1.3-2.68 2.1-4l2.58 1.2-3.55-6.23zm10.63 3.9l-4.1 5.89 4.22 5.82-.03-2.87c1.53.09 2.95-.1 4.1-.96l3.43-6.15c-.43.83-1.6 1.17-3.08 1.29-1.48.03-2.98-.02-4.51-.18l-.03-2.84zm-10.41 3.43c-.32.62-.63 1.24-.92 1.88-.28.72-.73 2.09-.26 2.8l.05.08.22.3c.19.14.4.22.6.25 2.28.42 4.18.31 5.98.06l-.5-5.34-5.17-.03z" color="#000" font-weight="400" font-family="Andale Mono" overflow="visible" fill="#2ca02c"/></svg>
