<svg xmlns="http://www.w3.org/2000/svg" width="48" height="48"><path style="line-height:normal;text-indent:0;text-align:start;text-decoration-line:none;text-transform:none;marker:none" d="M29.7-.08c-2.04 0-4.12.08-4.51.1H7a2.94 2.94 0 0 0-.56 0 3.1 3.1 0 0 0-2.44 3V45c0 1.57 1.43 3 3 3h34c1.57 0 3-1.43 3-3V18.82c.02-.8.21-9.93-.34-10.5L34.06.25c-.29-.28-2.3-.34-4.36-.33zM31.2 3l.13 7.5c.01.68.64 1.3 1.31 1.28l7.78-.13c.13.01.26.01.4-.01l.08 3.03.1 4.09V45H7V3.02h18.67l5.52-.01zm-7.38 8.87c-.6 0-1.2.23-1.66.68L9.53 25.2a2.34 2.34 0 0 0 0 3.31l12.45 12.45a2.34 2.34 0 0 0 3.31 0l12.63-12.63a2.33 2.33 0 0 0 0-3.31L25.47 12.56a2.33 2.33 0 0 0-1.65-.68zm.04 2.73c.48 0 .96.18 1.32.55l9.05 9.05a.64.64 0 0 0-.37.17l-1.1 1.1a7.86 7.86 0 0 0-1.36-.58v-1.56a.63.63 0 0 0-.64-.64h-3.35a.63.63 0 0 0-.64.64v1.56c-.47.14-.92.35-1.35.58l-1.1-1.1a.66.66 0 0 0-.93 0l-2.34 2.34a.66.66 0 0 0 0 .93l1.1 1.1c-.22.42-.43.88-.58 1.35h-1.56a.63.63 0 0 0-.63.64v3.35c0 .36.27.64.63.64h1.56c.15.47.35.92.58 1.35l-.75.75-8.95-8.95a1.87 1.87 0 0 1 0-2.64l10.09-10.09a1.86 1.86 0 0 1 1.32-.55zm5.23 15.03c1.12 0 2.08.67 2.51 1.62l-3.67 3.67a2.77 2.77 0 0 1-1.62-2.52 2.78 2.78 0 0 1 2.78-2.77z" color="#000" font-weight="400" font-family="Andale Mono" overflow="visible" fill="#2ca02c"/></svg>
