<svg xmlns="http://www.w3.org/2000/svg" width="48" height="48" viewBox="0 0 12.7 12.7"><path d="M1.21.86L.14 3.66h6.04V.86H1.21zm5.18 0v2.8h6.11L11.4.86h-5zM.19 3.89v6.31c0 .64.25 1.18.74 1.64.5.45 1.08.67 1.78.67h7.25c.7 0 1.28-.22 1.78-.67.49-.46.73-1 .73-1.64V3.9h-1.12v6.3c0 .36-.13.66-.4.91a1.4 1.4 0 0 1-.99.38H2.71a1.4 1.4 0 0 1-.99-.38 1.19 1.19 0 0 1-.41-.9V3.88H.19zm1.53 1.4v1.06H2v1.06h.53V6.35h.26V5.29H1.72zm1.32.05v.53h.53v-.53h-.53zm.53.53v.53h.53v-.53h-.53zm.53 0h.53v-.53H4.1v.53zm.53 0v.53h.53v-.53h-.53zm.53 0h.52v-.53h-.52v.53zm.52 0v.53h.53v-.53h-.53zm.53 0h.53v-.53h-.53v.53zm.53 0v.53h.53v-.53h-.53zm.53 0h.53v-.53h-.53v.53zm.53 0v.53h.53v-.53H7.8zm.53 0h.53v-.53h-.53v.53zm.53 0v.53h.53v-.53h-.53zm.53 0h.53v-.53h-.53v.53zm.53 0v.53h.53v-.53h-.53zm.53 0h.53v-.53h-.53v.53zm-8.46-.31h.53v.53h-.53v-.53zm4.06 2.32a.93.93 0 0 0-.93.93.93.93 0 0 0 1.87.01.92.92 0 0 0-.94-.94zm2.04 0a.93.93 0 0 0-.93.93c0 .5.42.92.93.92s.94-.42.94-.91a.92.92 0 0 0-.94-.94zm-4.37.05v.37h.68l-.77 1v.39h1.34V9.3h-.83l.77-1v-.38H3.7zm2.34.34c.28 0 .5.24.5.54a.52.52 0 0 1-.5.53.53.53 0 0 1-.51-.54c0-.29.23-.53.5-.53zm2.03 0c.28 0 .51.24.51.54a.52.52 0 0 1-.5.53.52.52 0 0 1-.52-.54c0-.29.23-.53.51-.53z" fill="#2ca02c"/></svg>
