<?xml version="1.0" encoding="UTF-8" standalone="no"?>
<svg
   xmlns:dc="http://purl.org/dc/elements/1.1/"
   xmlns:cc="http://creativecommons.org/ns#"
   xmlns:rdf="http://www.w3.org/1999/02/22-rdf-syntax-ns#"
   xmlns:svg="http://www.w3.org/2000/svg"
   xmlns="http://www.w3.org/2000/svg"
   xmlns:sodipodi="http://sodipodi.sourceforge.net/DTD/sodipodi-0.dtd"
   xmlns:inkscape="http://www.inkscape.org/namespaces/inkscape"
   width="48"
   height="48"
   version="1.1"
   id="svg4"
   sodipodi:docname="application-geo+json.svg"
   inkscape:version="0.92.4 (5da689c313, 2019-01-14)">
  <metadata
     id="metadata10">
    <rdf:RDF>
      <cc:Work
         rdf:about="">
        <dc:format>image/svg+xml</dc:format>
        <dc:type
           rdf:resource="http://purl.org/dc/dcmitype/StillImage" />
        <dc:title></dc:title>
      </cc:Work>
    </rdf:RDF>
  </metadata>
  <defs
     id="defs8" />
  <sodipodi:namedview
     pagecolor="#ffffff"
     bordercolor="#666666"
     borderopacity="1"
     objecttolerance="10"
     gridtolerance="10"
     guidetolerance="10"
     inkscape:pageopacity="0"
     inkscape:pageshadow="2"
     inkscape:window-width="1136"
     inkscape:window-height="480"
     id="namedview6"
     showgrid="false"
     inkscape:zoom="4.9166667"
     inkscape:cx="2.1355932"
     inkscape:cy="24"
     inkscape:window-x="0"
     inkscape:window-y="25"
     inkscape:window-maximized="0"
     inkscape:current-layer="svg4" />
  <path
     d="m 29.705,-0.083984 c -2.047,0.008 -4.1216,0.087656 -4.5176,0.097656 H 6.9994 a 2.938,2.938 0 0 0 -0.5625,0 c -1.374,0.262 -2.4625,1.598 -2.4375,2.998 v 41.988 c 0,1.57 1.43,3 3,3 h 34 c 1.57,0 3,-1.43 3,-3 v -26.182 c 0.018,-0.792 0.21506,-9.9271 -0.33594,-10.496 l -9.6094,-8.0742 c -0.284,-0.275 -2.3026,-0.34003 -4.3496,-0.33203 z m 1.4902,3.0937 0.13281,7.5039 c 0.012,0.681 0.63741,1.2903 1.3164,1.2793 l 7.7715,-0.13672 c 0.133,0.018 0.26839,0.01714 0.40039,-0.0059 l 0.08203,3.0293 0.10156,4.0898 v 26.227 h -34 v -41.975 h 18.672 l 5.5234,-0.011719 z m -11.195,12.49 c -5.0208,0 -9.0918,3.9957 -9.0918,8.9258 0,0.30811 0.02573,0.5925 0.05664,0.89258 0.02492,0.29864 0.06669,0.60008 0.11523,0.89258 1.0409,6.2743 5.2837,10.719 8.9199,14.289 3.6364,-3.5705 7.879,-8.0141 8.9199,-14.289 0.04856,-0.2925 0.09032,-0.59394 0.11523,-0.89258 0.03108,-0.30008 0.05664,-0.58447 0.05664,-0.89258 7e-6,-4.93 -4.071,-8.9258 -9.0918,-8.9258 z m 0,4.5449 c 2.092,0 3.7871,1.6971 3.7871,3.7891 0,2.092 -1.6951,3.7871 -3.7871,3.7871 -2.092,0 -3.7871,-1.6951 -3.7871,-3.7871 0,-2.092 1.6951,-3.7891 3.7871,-3.7891 z"
     style="color:#000000;text-indent:0;text-decoration:none;text-decoration-line:none;text-transform:none;fill:#2ca02c"
     id="path2"
     inkscape:connector-curvature="0" />
</svg>
