<svg xmlns="http://www.w3.org/2000/svg" width="48" height="48" viewBox="0 0 12.7 12.7"><path d="M1.21.86L.14 3.66h6.04V.86H1.21zm5.18 0v2.8h6.11L11.4.86h-5zM.19 3.89v6.31c0 .64.25 1.18.74 1.64.5.45 1.08.67 1.78.67h7.25c.7 0 1.28-.22 1.78-.67.49-.46.73-1 .73-1.64V3.9h-1.12v6.3c0 .36-.13.66-.4.91a1.4 1.4 0 0 1-.99.38H2.71a1.4 1.4 0 0 1-.99-.38 1.19 1.19 0 0 1-.41-.9V3.88H.19zm1.53 1.4v1.06H2v1.06h.53V6.35h.26V5.29H1.72zm1.32.05v.53h.53v-.53h-.53zm.53.53v.53h.53v-.53h-.53zm.53 0h.53v-.53H4.1v.53zm.53 0v.53h.53v-.53h-.53zm.53 0h.52v-.53h-.52v.53zm.52 0v.53h.53v-.53h-.53zm.53 0h.53v-.53h-.53v.53zm.53 0v.53h.53v-.53h-.53zm.53 0h.53v-.53h-.53v.53zm.53 0v.53h.53v-.53H7.8zm.53 0h.53v-.53h-.53v.53zm.53 0v.53h.53v-.53h-.53zm.53 0h.53v-.53h-.53v.53zm.53 0v.53h.53v-.53h-.53zm.53 0h.53v-.53h-.53v.53zm-8.46-.31h.53v.53h-.53v-.53zm.8 2.34v2.35h.43V7.9H2.8zm4.42.55a.65.65 0 0 0-.56.27c-.12-.19-.28-.27-.52-.27-.2 0-.33.06-.46.2V8.5h-.39v1.76h.43v-.87c0-.17.01-.29.04-.36.05-.12.16-.18.3-.18.11 0 .21.04.27.1.05.07.07.18.07.34v.97h.43v-.87c0-.2.01-.3.06-.38.05-.1.16-.16.3-.16.1 0 .18.03.24.1s.08.17.08.34v.97h.42V9.23a.95.95 0 0 0-.11-.5c-.11-.18-.33-.28-.6-.28zm1.88 0c-.52 0-.9.39-.9.93 0 .53.37.91.89.91a.7.7 0 0 0 .58-.27v.23h.39V8.49h-.39v.24a.65.65 0 0 0-.57-.28zm-5.37.04v.38h.69l-.78 1v.38h1.34v-.38h-.83l.77-1v-.38H3.72zm5.41.35c.3 0 .52.22.52.54a.6.6 0 0 1-.13.36.49.49 0 0 1-.38.16.5.5 0 0 1-.52-.52c0-.32.21-.54.51-.54z" fill="#2ca02c"/></svg>
