<?xml version="1.0" encoding="UTF-8" standalone="no"?>
<svg
   xmlns:dc="http://purl.org/dc/elements/1.1/"
   xmlns:cc="http://creativecommons.org/ns#"
   xmlns:rdf="http://www.w3.org/1999/02/22-rdf-syntax-ns#"
   xmlns:svg="http://www.w3.org/2000/svg"
   xmlns="http://www.w3.org/2000/svg"
   xmlns:sodipodi="http://sodipodi.sourceforge.net/DTD/sodipodi-0.dtd"
   xmlns:inkscape="http://www.inkscape.org/namespaces/inkscape"
   width="48"
   height="48"
   version="1.1"
   id="svg4"
   sodipodi:docname="application-msonenote.svg"
   inkscape:version="0.92.4 (5da689c313, 2019-01-14)">
  <metadata
     id="metadata10">
    <rdf:RDF>
      <cc:Work
         rdf:about="">
        <dc:format>image/svg+xml</dc:format>
        <dc:type
           rdf:resource="http://purl.org/dc/dcmitype/StillImage" />
        <dc:title></dc:title>
      </cc:Work>
    </rdf:RDF>
  </metadata>
  <defs
     id="defs8" />
  <sodipodi:namedview
     pagecolor="#ffffff"
     bordercolor="#666666"
     borderopacity="1"
     objecttolerance="10"
     gridtolerance="10"
     guidetolerance="10"
     inkscape:pageopacity="0"
     inkscape:pageshadow="2"
     inkscape:window-width="1138"
     inkscape:window-height="480"
     id="namedview6"
     showgrid="false"
     inkscape:zoom="4.9166667"
     inkscape:cx="2.1355932"
     inkscape:cy="24"
     inkscape:window-x="0"
     inkscape:window-y="25"
     inkscape:window-maximized="0"
     inkscape:current-layer="svg4" />
  <path
     style="color:#000000;font-weight:400;line-height:normal;font-family:'Andale Mono';text-indent:0;text-align:start;text-decoration:none;text-decoration-line:none;text-transform:none;overflow:visible;fill:#2ca02c;marker:none"
     d="m 29.705,-0.084 c -2.047,0.008 -4.121,0.088 -4.517,0.098 H 7 a 2.938,2.938 0 0 0 -0.563,0 C 5.064,0.276 3.975,1.612 4,3.012 V 45 c 0,1.57 1.43,3 3,3 h 34 c 1.57,0 3,-1.43 3,-3 V 18.818 C 44.018,18.026 44.215,8.891 43.664,8.322 l -9.61,-8.074 c -0.283,-0.275 -2.302,-0.34 -4.349,-0.332 z m 1.49,3.094 0.133,7.504 c 0.012,0.68 0.638,1.29 1.317,1.279 l 7.771,-0.137 c 0.133,0.018 0.268,0.017 0.4,-0.006 L 40.898,14.68 41,18.77 V 44.996 H 7 V 3.021 H 25.672 Z M 19.06,17.373 a 1.46,1.46 0 0 0 -1.461,1.463 v 0.244 a 1.46,1.46 0 0 0 -0.006,0.125 v 16.602 a 1.46,1.46 0 0 0 0.097,0.521 1.46,1.46 0 0 0 -0.091,0.508 v 0.328 c 0,0.81 0.652,1.463 1.463,1.463 h 16.6 a 1.46,1.46 0 0 0 1.46,-1.463 v -0.328 a 1.46,1.46 0 0 0 -0.105,-0.545 c 0.053,-0.152 0.088,-0.313 0.088,-0.484 v -4.422 a 1.46,1.46 0 0 0 0.017,-0.22 v -0.33 a 1.46,1.46 0 0 0 -0.017,-0.212 v -5.238 a 1.46,1.46 0 0 0 0.017,-0.22 v -0.33 a 1.46,1.46 0 0 0 -0.017,-0.212 v -5.238 a 1.46,1.46 0 0 0 0.017,-0.22 v -0.33 a 1.46,1.46 0 0 0 -1.463,-1.462 z m 1.787,3.254 H 33.85 v 2.746 H 20.846 v -2.746 z m 0,6 H 33.85 v 2.746 H 20.846 v -2.746 z m 0,6 H 33.85 v 2.746 H 20.846 v -2.746 z"
     font-weight="400"
     overflow="visible"
     id="path2"
     inkscape:connector-curvature="0" />
</svg>
