<svg xmlns="http://www.w3.org/2000/svg" width="48" height="48" viewBox="0 0 12.7 12.7"><path d="M1.21.86L.14 3.66h6.04V.86H1.21zm5.18 0v2.8h6.11L11.4.86h-5zM.19 3.89v6.31c0 .64.25 1.18.74 1.64.5.45 1.08.67 1.78.67h7.25c.7 0 1.28-.22 1.78-.67.49-.46.73-1 .73-1.64V3.9h-1.12v6.3c0 .36-.13.66-.4.91a1.4 1.4 0 0 1-.99.38H2.71a1.4 1.4 0 0 1-.99-.38 1.19 1.19 0 0 1-.41-.9V3.88H.19zm1.53 1.4v1.06H2v1.06h.53V6.35h.26V5.29H1.72zm1.32.05v.53h.53v-.53h-.53zm.53.53v.53h.53v-.53h-.53zm.53 0h.53v-.53H4.1v.53zm.53 0v.53h.53v-.53h-.53zm.53 0h.52v-.53h-.52v.53zm.52 0v.53h.53v-.53h-.53zm.53 0h.53v-.53h-.53v.53zm.53 0v.53h.53v-.53h-.53zm.53 0h.53v-.53h-.53v.53zm.53 0v.53h.53v-.53H7.8zm.53 0h.53v-.53h-.53v.53zm.53 0v.53h.53v-.53h-.53zm.53 0h.53v-.53h-.53v.53zm.53 0v.53h.53v-.53h-.53zm.53 0h.53v-.53h-.53v.53zm-8.46-.31h.53v.53h-.53v-.53zM3.47 7.9v.4h.93l-.88 1.95h.47l.86-1.95v-.4H3.47zm3.2 0v.4h.43v-.4h-.42zm1.77.55a.92.92 0 0 0-.08 0 .74.74 0 0 0-.54.24c-.02-.06.06-.23-.05-.2h-.33v2.34h.42v-.75c.4.39 1.14.2 1.34-.3.2-.47.02-1.11-.49-1.28a.92.92 0 0 0-.27-.05zm-1.76.04v1.76h.42V8.49h-.42zm-1.49 0v.38h.69l-.78 1v.38h1.34v-.38h-.83l.77-1v-.38H5.2zm3.16.34c.4-.01.63.47.44.8-.15.34-.68.36-.87.04-.22-.33 0-.85.43-.84z" fill="#2ca02c"/></svg>
