<?xml version="1.0" encoding="UTF-8" standalone="no"?>
<svg
   xmlns:dc="http://purl.org/dc/elements/1.1/"
   xmlns:cc="http://creativecommons.org/ns#"
   xmlns:rdf="http://www.w3.org/1999/02/22-rdf-syntax-ns#"
   xmlns:svg="http://www.w3.org/2000/svg"
   xmlns="http://www.w3.org/2000/svg"
   xmlns:sodipodi="http://sodipodi.sourceforge.net/DTD/sodipodi-0.dtd"
   xmlns:inkscape="http://www.inkscape.org/namespaces/inkscape"
   width="48"
   height="48"
   viewBox="0 0 12.7 12.7"
   version="1.1"
   id="svg6"
   sodipodi:docname="application-x-ace.svg"
   inkscape:version="0.92.5 (2060ec1f9f, 2020-04-08)">
  <metadata
     id="metadata12">
    <rdf:RDF>
      <cc:Work
         rdf:about="">
        <dc:format>image/svg+xml</dc:format>
        <dc:type
           rdf:resource="http://purl.org/dc/dcmitype/StillImage" />
        <dc:title></dc:title>
      </cc:Work>
    </rdf:RDF>
  </metadata>
  <defs
     id="defs10" />
  <sodipodi:namedview
     pagecolor="#ffffff"
     bordercolor="#666666"
     borderopacity="1"
     objecttolerance="10"
     gridtolerance="10"
     guidetolerance="10"
     inkscape:pageopacity="0"
     inkscape:pageshadow="2"
     inkscape:window-width="1087"
     inkscape:window-height="480"
     id="namedview8"
     showgrid="false"
     inkscape:zoom="4.9166667"
     inkscape:cx="2.1355932"
     inkscape:cy="24"
     inkscape:window-x="0"
     inkscape:window-y="25"
     inkscape:window-maximized="0"
     inkscape:current-layer="svg6" />
  <path
     style="fill:#2ca02c;stroke-width:1"
     d="M 1.3229166,0.79374999 0.26510009,3.4401 H 6.0848999 V 0.79374999 Z m 5.2921834,0 V 3.4401 h 5.8198 L 11.377084,0.79374999 Z M 0.26510009,3.96875 v 6.35 c 0,1.172 0.94414991,2.11615 2.11614991,2.11615 h 7.9375 a 2.112,2.112 0 0 0 2.11615,-2.11615 v -6.35 h -0.792716 v 6.35 A 1.32,1.32 0 0 1 10.31875,11.642183 H 2.3802165 A 1.32,1.32 0 0 1 1.056783,10.31875 v -6.35 z M 1.8531169,4.9769572 V 6.0368407 H 2.1332031 V 7.0972412 H 2.6628865 V 6.0368407 H 2.922819 V 4.9769572 Z m 1.3198162,0.050126 V 5.5567667 H 3.7031332 V 5.0270833 Z M 3.7031332,5.5567667 V 6.0869668 H 4.2328166 V 5.5567667 Z m 0.5296834,0 H 4.7630167 V 5.0270833 H 4.2328166 Z m 0.5302001,0 V 6.0869668 H 5.2932168 V 5.5567667 Z m 0.5302001,0 h 0.519865 V 5.0270833 h -0.519865 z m 0.519865,0 V 6.0869668 H 6.3427652 V 5.5567667 Z m 0.5296834,0 H 6.8729653 V 5.0270833 H 6.3427652 Z m 0.5302001,0 V 6.0869668 H 7.4031657 V 5.5567667 Z m 0.5302004,0 H 7.9328491 V 5.0270833 H 7.4031657 Z m 0.5296834,0 V 6.0869668 H 8.4630492 V 5.5567667 Z m 0.5302001,0 H 8.9932493 V 5.0270833 H 8.4630492 Z m 0.5302001,0 V 6.0869668 H 9.522933 V 5.5567667 Z m 0.5296837,0 h 0.5302 V 5.0270833 h -0.5302 z m 0.5302,0 v 0.5302001 h 0.529684 V 5.5567667 Z m 0.529684,0 h 0.5302 V 5.0270833 h -0.5302 z M 2.1228678,5.2472248 H 2.6530681 V 5.7769082 H 2.1228678 Z m 2.3001181,2.2996014 v 0.010335 z M 4.3599407,8.673889 c -0.4800002,0 -0.8299236,0.400176 -0.8299236,0.9301758 0,0.5300002 0.3401049,0.9198402 0.8201049,0.9198402 0.2300002,0 0.3898373,-0.07975 0.5498372,-0.269751 v 0.22996 H 5.2601439 V 8.7141967 H 4.8999592 V 8.9539753 A 0.59999998,0.59999998 0 0 0 4.4002481,8.673889 a 0.59999998,0.59999998 0 0 0 -0.040307,0 z m 1.9900593,0 c -0.4900002,0 -0.870231,0.400176 -0.870231,0.9301758 0,0.5100002 0.4000494,0.9198402 0.8800494,0.9198402 0.3800001,0 0.6802866,-0.220117 0.8102864,-0.6201168 H 6.7298218 C 6.6298217,10.063788 6.5198185,10.133748 6.3598184,10.133748 c -0.2799998,0 -0.480074,-0.2295018 -0.480074,-0.5395016 0,-0.3000002 0.2002557,-0.5302004 0.4702556,-0.5302004 0.17,0 0.2998218,0.079779 0.3798218,0.2397786 h 0.440283 A 0.84999998,0.84999998 0 0 0 6.35,8.673889 Z m 1.8949746,0 c -0.487,0.003 -0.8650634,0.4111757 -0.8650634,0.9301758 0,0.5200002 0.3898683,0.9198402 0.8898681,0.9198402 A 0.79,0.79 0 0 0 8.919869,10.204028 0.75999998,0.75999998 0 0 0 9.0500935,9.9642495 H 8.6201456 A 0.39999999,0.39999999 0 0 1 8.2599609,10.133748 c -0.2400001,0 -0.4001016,-0.129849 -0.4501018,-0.3498491 h 1.2702066 a 0.73999999,0.73999999 0 0 0 0.00982,-0.1596803 c 0,-0.5479999 -0.3579098,-0.9473295 -0.8449098,-0.9503296 z M 4.4002481,9.064046 c 0.2800001,0 0.4795573,0.2298374 0.4795573,0.5498375 A 0.63,0.63 0 0 1 4.7702515,9.9740682 0.43999999,0.43999999 0 0 1 4.4100668,10.133748 c -0.29,0 -0.4898927,-0.1998647 -0.4898927,-0.5198645 0,-0.3200001 0.2000742,-0.5498373 0.480074,-0.5498375 z m 3.8498943,0 c 0.2399999,0 0.4001016,0.1198496 0.4501015,0.3498495 H 7.8000407 c 0.06,-0.2299999 0.2201016,-0.3498493 0.4501017,-0.3498495 z"
     id="path2"
     inkscape:connector-curvature="0" />
</svg>
