<svg xmlns="http://www.w3.org/2000/svg" width="48" height="48"><path style="line-height:normal;text-indent:0;text-align:start;text-decoration-line:none;text-transform:none;marker:none" d="M29.7-.08c-2.04 0-4.12.08-4.51.1H7a2.94 2.94 0 0 0-.56 0 3.1 3.1 0 0 0-2.44 3V45c0 1.57 1.43 3 3 3h34c1.57 0 3-1.43 3-3V18.82c.02-.8.22-9.93-.34-10.5L34.06.25c-.29-.28-2.3-.34-4.35-.33h-.01zm1.5 3.09l.13 7.49c.01.68.64 1.3 1.31 1.28l7.78-.13h.4l.08 3.02.1 4.09V45H7V3.02h18.67l5.53-.01zM12.72 13.73a2.53 2.53 0 0 0-2.53 2.53v17.3c0 1.4 1.13 2.54 2.53 2.54h6.35v2.23h-1.8a.45.45 0 0 0-.45.46v.34h-6.66v.07a.9.9 0 0 0-.56.84v.51c0 .38.23.7.56.84v.07h6.64v.36c0 .25.21.45.46.45H30.4a.45.45 0 0 0 .45-.45v-.36h6.75v-.02a.9.9 0 0 0 .79-.89v-.51a.9.9 0 0 0-.61-.85v-.06h-6.93v-.35a.45.45 0 0 0-.46-.45h-1.28V36.1h6.2c1.4 0 2.53-1.13 2.53-2.53V16.26c0-1.4-1.13-2.53-2.53-2.53h-22.6zm1.92 2.52h18.9c1.08 0 1.96.87 1.96 1.95v13.37c0 1.08-.88 1.96-1.96 1.96h-18.9a1.95 1.95 0 0 1-1.96-1.96V18.2c0-1.08.88-1.95 1.96-1.95zm12.55 3.31a.45.45 0 0 0-.45.46v3.57c0 .25.2.45.45.45h5.1a.45.45 0 0 0 .44-.46v-3.56a.45.45 0 0 0-.45-.46h-5.1zM16.37 23.5a.45.45 0 0 0-.44.45v5.9c0 .24.2.44.44.44h6.44a.45.45 0 0 0 .45-.44v-5.9a.45.45 0 0 0-.45-.45h-6.43z" fill="#2ca02c"/></svg>
