<svg xmlns="http://www.w3.org/2000/svg" width="48" height="48"><path style="line-height:normal;text-indent:0;text-align:start;text-decoration-line:none;text-transform:none;marker:none" d="M29.7-.08c-2.04 0-4.12.08-4.51.1H7a2.94 2.94 0 0 0-.56 0 3.1 3.1 0 0 0-2.44 3V45c0 1.57 1.43 3 3 3h34c1.57 0 3-1.43 3-3V18.82c.02-.8.21-9.93-.34-10.5L34.06.25c-.29-.28-2.3-.34-4.36-.33zM31.2 3l.13 7.5c.01.68.64 1.3 1.31 1.28l7.78-.13c.13.01.26.01.4-.01l.08 3.03.1 4.09V45H7V3.02h18.67l5.52-.01zM21 16.47h-3.82v22h4.9v-6.99c.08-.25-.17-.8.14-.83 2.44.06 5.04-.13 7.1-1.51 2-1.26 2.9-3.6 2.86-5.8 0-1.3-.25-2.65-.96-3.78-1.32-2.1-3.98-2.9-6.42-3.05-1.27-.04-2.54-.04-3.8-.04zm1.08 3.83h1.08c1.4-.04 3.15.25 3.76 1.63.46 1.2.46 2.73-.4 3.79-1.12 1.17-2.9 1.12-4.44 1.1V20.3z" color="#000" font-weight="400" font-family="Andale Mono" overflow="visible" fill="#2ca02c"/></svg>
