<svg xmlns="http://www.w3.org/2000/svg" width="48" height="48"><path style="line-height:normal;text-indent:0;text-align:start;text-decoration-line:none;text-transform:none;marker:none" d="M29.705-.084c-2.047.008-4.121.088-4.517.098H7a2.938 2.938 0 0 0-.563 0C5.064.276 3.975 1.612 4 3.012V45c0 1.57 1.43 3 3 3h34c1.57 0 3-1.43 3-3V18.818c.018-.792.215-9.927-.336-10.496L34.054.248c-.283-.275-2.302-.34-4.349-.332zm1.49 3.094l.133 7.504c.012.68.638 1.29 1.317 1.279l7.771-.137c.133.018.268.017.4-.006l.082 3.03.102 4.09v26.226H7V3.021h18.672l5.523-.011zM21.27 16.006c-1.882 0-3.145.313-3.786.94-.636.617-.95 1.86-.95 3.732v3.045c0 1.26-.206 2.137-.614 2.629-.4.48-1.141.722-2.223.722h-.691v1.815h.691c1.073 0 1.815.245 2.223.736.408.49.613 1.375.613 2.652v3.034c0 1.87.317 3.12.951 3.746.642.626 1.904.937 3.786.937h.703v-1.826H21.2c-1.064 0-1.76-.189-2.086-.56-.324-.373-.488-1.153-.488-2.346v-3.149c0-1.32-.167-2.281-.508-2.883-.34-.6-.93-1.012-1.77-1.242.832-.21 1.419-.618 1.758-1.218.348-.6.52-1.566.52-2.895v-3.146c0-1.193.163-1.977.488-2.35.324-.372 1.02-.557 2.086-.557h.772v-1.816h-.703zm4.757 0v1.816h.795c1.058 0 1.745.185 2.063.557.324.365.488 1.148.488 2.35v3.146c0 1.329.167 2.293.508 2.895.34.6.93 1.008 1.77 1.218-.84.228-1.43.642-1.77 1.242-.341.602-.508 1.563-.508 2.883v3.149c0 1.21-.164 1.996-.488 2.361-.318.364-1.006.545-2.065.545h-.793v1.826h.715c1.88 0 3.135-.312 3.762-.937.636-.627.951-1.877.951-3.746v-3.032c0-1.278.207-2.163.615-2.654.408-.492 1.148-.736 2.221-.736h.703v-1.815h-.703c-1.073 0-1.813-.242-2.22-.724-.409-.491-.616-1.368-.616-2.63v-3.042c0-1.871-.316-3.115-.951-3.733-.627-.626-1.881-.94-3.762-.94h-.715z" fill="#2ca02c"/></svg>
