<svg xmlns="http://www.w3.org/2000/svg" width="48" height="48" viewBox="0 0 12.7 12.7"><path d="M1.21.86L.14 3.66h6.04V.86H1.21zm5.18 0v2.8h6.11L11.4.86h-5zM.19 3.89v6.31c0 .64.25 1.18.74 1.64.5.45 1.08.67 1.78.67h7.25c.7 0 1.28-.22 1.78-.67.49-.46.73-1 .73-1.64V3.9h-1.12v6.3c0 .36-.13.66-.4.91a1.4 1.4 0 0 1-.99.38H2.71a1.4 1.4 0 0 1-.99-.38 1.19 1.19 0 0 1-.41-.9V3.88H.19zm4.6 4.72c-.52 0-.9.39-.9.92s.38.91.89.91a.7.7 0 0 0 .58-.27v.23h.39V8.65h-.39v.23a.65.65 0 0 0-.57-.27zm2.04 0c-.18 0-.27.05-.38.21v-.17h-.39v1.75h.42v-.97c0-.28.12-.41.38-.42v-.4h-.03zm1.1 0C7.4 8.6 7 9 7 9.52s.42.92.93.92a.9.9 0 0 0 .87-.61h-.47a.44.44 0 0 1-.4.23c-.29 0-.5-.23-.5-.54 0-.3.2-.53.5-.53.18 0 .31.08.4.24h.47a.8.8 0 0 0-.23-.38.95.95 0 0 0-.65-.24zm-3.1.38c.3 0 .52.23.52.55a.6.6 0 0 1-.13.36.49.49 0 0 1-.38.16.5.5 0 0 1-.52-.52c0-.32.21-.55.51-.55z" fill="#2ca02c"/><path d="M1.72 5.3v1.05H2v1.06h.53V6.35h.26V5.29H1.72zm1.32.04v.53h.53v-.53h-.53zm.53.53v.53h.53v-.53h-.53zm.53 0h.53v-.53H4.1v.53zm.53 0v.53h.53v-.53h-.53zm.53 0h.52v-.53h-.52v.53zm.52 0v.53h.53v-.53h-.53zm.53 0h.53v-.53h-.53v.53zm.53 0v.53h.53v-.53h-.53zm.53 0h.53v-.53h-.53v.53zm.53 0v.53h.53v-.53H7.8zm.53 0h.53v-.53h-.53v.53zm.53 0v.53h.53v-.53h-.53zm.53 0h.53v-.53h-.53v.53zm.53 0v.53h.53v-.53h-.53zm.53 0h.53v-.53h-.53v.53zm-8.46-.31h.53v.53h-.53v-.53z" fill="#2ca02c"/></svg>
