<?xml version="1.0" encoding="UTF-8" standalone="no"?>
<svg
   xmlns:dc="http://purl.org/dc/elements/1.1/"
   xmlns:cc="http://creativecommons.org/ns#"
   xmlns:rdf="http://www.w3.org/1999/02/22-rdf-syntax-ns#"
   xmlns:svg="http://www.w3.org/2000/svg"
   xmlns="http://www.w3.org/2000/svg"
   xmlns:sodipodi="http://sodipodi.sourceforge.net/DTD/sodipodi-0.dtd"
   xmlns:inkscape="http://www.inkscape.org/namespaces/inkscape"
   width="48"
   height="48"
   version="1.1"
   id="svg4"
   sodipodi:docname="application-x-remote-connection.svg"
   inkscape:version="0.92.4 (5da689c313, 2019-01-14)">
  <metadata
     id="metadata10">
    <rdf:RDF>
      <cc:Work
         rdf:about="">
        <dc:format>image/svg+xml</dc:format>
        <dc:type
           rdf:resource="http://purl.org/dc/dcmitype/StillImage" />
        <dc:title></dc:title>
      </cc:Work>
    </rdf:RDF>
  </metadata>
  <defs
     id="defs8" />
  <sodipodi:namedview
     pagecolor="#ffffff"
     bordercolor="#666666"
     borderopacity="1"
     objecttolerance="10"
     gridtolerance="10"
     guidetolerance="10"
     inkscape:pageopacity="0"
     inkscape:pageshadow="2"
     inkscape:window-width="1087"
     inkscape:window-height="480"
     id="namedview6"
     showgrid="false"
     inkscape:zoom="4.9166667"
     inkscape:cx="2.1355932"
     inkscape:cy="24"
     inkscape:window-x="0"
     inkscape:window-y="25"
     inkscape:window-maximized="0"
     inkscape:current-layer="svg4" />
  <path
     style="line-height:normal;text-indent:0;text-align:start;text-decoration:none;text-decoration-line:none;text-transform:none;fill:#2ca02c;marker:none"
     d="m 29.7,-0.08 c -2.04,0 -4.12,0.08 -4.51,0.1 H 7 a 2.94,2.94 0 0 0 -0.56,0 3.1,3.1 0 0 0 -2.44,3 V 45 c 0,1.57 1.43,3 3,3 h 34 c 1.57,0 3,-1.43 3,-3 V 18.82 c 0.02,-0.8 0.22,-9.93 -0.34,-10.5 l -9.6,-8.07 c -0.29,-0.28 -2.3,-0.34 -4.35,-0.33 z m 1.5,3.09 0.13,7.49 c 0.01,0.68 0.64,1.3 1.31,1.28 l 7.78,-0.13 h 0.4 l 0.08,3.02 0.1,4.09 V 45 H 7 V 3.02 H 25.67 Z M 12.72,13.73 a 2.53,2.53 0 0 0 -2.53,2.53 v 17.3 c 0,1.4 1.13,2.54 2.53,2.54 h 6.35 v 2.23 h -1.8 a 0.45,0.45 0 0 0 -0.45,0.46 v 0.34 H 10.16 V 39.2 A 0.9,0.9 0 0 0 9.6,40.04 v 0.51 c 0,0.38 0.23,0.7 0.56,0.84 v 0.07 h 6.64 v 0.36 c 0,0.25 0.21,0.45 0.46,0.45 H 30.4 a 0.45,0.45 0 0 0 0.45,-0.45 v -0.36 h 6.75 v -0.02 a 0.9,0.9 0 0 0 0.79,-0.89 V 40.04 A 0.9,0.9 0 0 0 37.78,39.19 V 39.13 H 30.85 V 38.78 A 0.45,0.45 0 0 0 30.39,38.33 H 29.11 V 36.1 h 6.2 c 1.4,0 2.53,-1.13 2.53,-2.53 V 16.26 c 0,-1.4 -1.13,-2.53 -2.53,-2.53 h -22.6 z m 1.92,2.52 h 18.9 c 1.08,0 1.96,0.87 1.96,1.95 v 13.37 c 0,1.08 -0.88,1.96 -1.96,1.96 H 14.64 A 1.95,1.95 0 0 1 12.68,31.57 V 18.2 c 0,-1.08 0.88,-1.95 1.96,-1.95 z m 12.55,3.31 a 0.45,0.45 0 0 0 -0.45,0.46 v 3.57 c 0,0.25 0.2,0.45 0.45,0.45 h 5.1 a 0.45,0.45 0 0 0 0.44,-0.46 v -3.56 a 0.45,0.45 0 0 0 -0.45,-0.46 h -5.1 z M 16.37,23.5 a 0.45,0.45 0 0 0 -0.44,0.45 v 5.9 c 0,0.24 0.2,0.44 0.44,0.44 h 6.44 a 0.45,0.45 0 0 0 0.45,-0.44 v -5.9 A 0.45,0.45 0 0 0 22.81,23.5 h -6.43 z"
     id="path2"
     inkscape:connector-curvature="0" />
</svg>
