<svg xmlns="http://www.w3.org/2000/svg" width="48" height="48"><path style="line-height:normal;text-indent:0;text-align:start;text-decoration-line:none;text-transform:none;marker:none" d="M29.7-.08c-2.04 0-4.12.08-4.51.1H7a2.94 2.94 0 0 0-.56 0 3.1 3.1 0 0 0-2.44 3V45c0 1.57 1.43 3 3 3h34c1.57 0 3-1.43 3-3V18.82c.02-.8.21-9.93-.34-10.5L34.06.25c-.29-.28-2.3-.34-4.36-.33zM31.2 3l.13 7.5c.01.68.64 1.3 1.31 1.28l7.78-.13c.13.01.26.01.4-.01l.08 3.03.1 4.09V45H7V3.02h18.67l5.52-.01zm-2.73 3.28c-4.12.66-8.87 1.34-12.99 2.03-1.09.53-.84 1.89-.89 2.87v13.16c-2.8-.64-5.87 1.45-6 4.42-.2 1.86 1.47 3.47 3.27 3.51 3.23.08 5.68-2.04 5.72-4.72-.04-4.5 0-9.01 0-13.52.5-.04 8.32-1.46 9-1.56V22.6a4.62 4.62 0 0 0-5.8 3.5c-.47 1.54.24 3.37 1.77 4 2.99 1.36 7.2-1.4 7.03-4.63-.05-6 .04-12.01 0-18.02-.08-.57-.47-1.2-1.1-1.16zM22.66 35c-.69.01-1.36.63-1.72.8-.64-.99-2.29-1.03-3-.1.06-.37.04-.66-.4-.53-.25.08-.8-.17-.81.15v5.4h1.33c.03-1.24-.07-2.47.08-3.69.15-1.02 1.88-1.03 2.02 0 .11 1.22.03 2.45.06 3.68h1.33c.02-1.2-.06-2.4.07-3.6.1-.98 1.7-1.18 2-.22.17 1.01.06 2.05.09 3.08.07.24-.19.82.2.74h1.13c-.02-1.3.05-2.6-.05-3.9-.07-1.04-1.04-1.78-2.04-1.77a1.07 1.07 0 0 0-.3-.03zm5.77.04c-1.02.1-2 .77-2.34 1.75-.6 1.48.1 3.5 1.72 3.93.95.3 2.08.08 2.7-.73.08.23-.19.8.2.72h1.02v-5.54h-1.22c0 .45.1 1.05-.36.35-.5-.4-1.12-.54-1.72-.48zm-20.15.13l1.98 5.54c.26-.06.71.13.85-.1l1.04-3.49 1.05 3.6c.27-.07.71.12.87-.1l1.96-5.45h-1.42l-1 3.38-.92-3.38h-1.06l-.93 3.38-.99-3.38H8.28zm20.56 1.1c1.19-.08 1.95 1.3 1.52 2.33-.39 1.42-2.74 1.33-3.07-.1-.32-1.03.4-2.29 1.55-2.24z" color="#000" font-weight="400" font-family="Andale Mono" overflow="visible" fill="#2ca02c"/></svg>
