<?xml version="1.0" encoding="UTF-8" standalone="no"?>
<svg
   xmlns:dc="http://purl.org/dc/elements/1.1/"
   xmlns:cc="http://creativecommons.org/ns#"
   xmlns:rdf="http://www.w3.org/1999/02/22-rdf-syntax-ns#"
   xmlns:svg="http://www.w3.org/2000/svg"
   xmlns="http://www.w3.org/2000/svg"
   xmlns:sodipodi="http://sodipodi.sourceforge.net/DTD/sodipodi-0.dtd"
   xmlns:inkscape="http://www.inkscape.org/namespaces/inkscape"
   width="48"
   height="48"
   version="1"
   id="svg18"
   sodipodi:docname="extension.svg"
   inkscape:version="0.92.4 (5da689c313, 2019-01-14)">
  <metadata
     id="metadata22">
    <rdf:RDF>
      <cc:Work
         rdf:about="">
        <dc:format>image/svg+xml</dc:format>
        <dc:type
           rdf:resource="http://purl.org/dc/dcmitype/StillImage" />
        <dc:title></dc:title>
      </cc:Work>
    </rdf:RDF>
  </metadata>
  <sodipodi:namedview
     pagecolor="#ffffff"
     bordercolor="#666666"
     borderopacity="1"
     objecttolerance="10"
     gridtolerance="10"
     guidetolerance="10"
     inkscape:pageopacity="0"
     inkscape:pageshadow="2"
     inkscape:window-width="1087"
     inkscape:window-height="480"
     id="namedview20"
     showgrid="false"
     inkscape:zoom="4.9166667"
     inkscape:cx="2.1355932"
     inkscape:cy="24"
     inkscape:window-x="0"
     inkscape:window-y="25"
     inkscape:window-maximized="0"
     inkscape:current-layer="svg18" />
  <defs
     id="defs14">
    <linearGradient
       id="b">
      <stop
         offset="0"
         stop-opacity="0"
         id="stop2" />
      <stop
         offset=".5"
         id="stop4" />
      <stop
         offset="1"
         stop-opacity="0"
         id="stop6" />
    </linearGradient>
    <linearGradient
       id="a">
      <stop
         offset="0"
         id="stop9" />
      <stop
         offset="1"
         stop-opacity="0"
         id="stop11" />
    </linearGradient>
  </defs>
  <path
     d="M 21,6.5 A 4.502,4.502 0 0 0 16.5,11 c 0,1.552 0.803,2.91 2,3.719 V 15.5 h -10 c -1.108,0 -2,0.892 -2,2 v 9.719 C 7.325,26.184 8.575,25.5 10,25.5 c 2.484,0 4.5,2.016 4.5,4.5 0,2.484 -2.016,4.5 -4.5,4.5 -1.425,0 -2.675,-0.684 -3.5,-1.719 v 9.72 c 0,1.107 0.892,2 2,2 h 9.719 c -1.035,-0.826 -1.72,-2.076 -1.72,-3.5 0,-2.485 2.017,-4.5 4.5,-4.5 2.485,0 4.5,2.015 4.5,4.5 0,1.424 -0.683,2.674 -1.718,3.5 H 33.5 c 1.108,0 2,-0.893 2,-2 v -10 h 0.781 c 0.81,1.196 2.166,2 3.719,2 2.484,0 4.5,-2.017 4.5,-4.5 0,-2.485 -2.016,-4.5 -4.5,-4.5 -1.553,0 -2.91,0.802 -3.719,2 H 35.5 v -10 c 0,-1.109 -0.892,-2 -2,-2 h -10 v -0.782 c 1.197,-0.81 2,-2.166 2,-3.719 0,-2.484 -2.016,-4.5 -4.5,-4.5 z"
     id="path16"
     inkscape:connector-curvature="0"
     style="fill:#2ca02c" />
</svg>
