<?xml version="1.0" encoding="UTF-8" standalone="no"?>
<svg
   xmlns:dc="http://purl.org/dc/elements/1.1/"
   xmlns:cc="http://creativecommons.org/ns#"
   xmlns:rdf="http://www.w3.org/1999/02/22-rdf-syntax-ns#"
   xmlns:svg="http://www.w3.org/2000/svg"
   xmlns="http://www.w3.org/2000/svg"
   xmlns:sodipodi="http://sodipodi.sourceforge.net/DTD/sodipodi-0.dtd"
   xmlns:inkscape="http://www.inkscape.org/namespaces/inkscape"
   width="48"
   height="48"
   version="1.1"
   id="svg35"
   sodipodi:docname="libreoffice-oasis-database.svg"
   inkscape:version="0.92.4 (5da689c313, 2019-01-14)">
  <metadata
     id="metadata39">
    <rdf:RDF>
      <cc:Work
         rdf:about="">
        <dc:format>image/svg+xml</dc:format>
        <dc:type
           rdf:resource="http://purl.org/dc/dcmitype/StillImage" />
        <dc:title></dc:title>
      </cc:Work>
    </rdf:RDF>
  </metadata>
  <sodipodi:namedview
     pagecolor="#ffffff"
     bordercolor="#666666"
     borderopacity="1"
     objecttolerance="10"
     gridtolerance="10"
     guidetolerance="10"
     inkscape:pageopacity="0"
     inkscape:pageshadow="2"
     inkscape:window-width="1087"
     inkscape:window-height="480"
     id="namedview37"
     showgrid="false"
     inkscape:zoom="4.9166667"
     inkscape:cx="2.1355932"
     inkscape:cy="24"
     inkscape:window-x="0"
     inkscape:window-y="25"
     inkscape:window-maximized="0"
     inkscape:current-layer="svg35" />
  <defs
     id="defs31">
    <linearGradient
       id="a">
      <stop
         offset="0"
         stop-color="#dc85e9"
         id="stop2" />
      <stop
         offset="1"
         stop-color="#f2cbf8"
         id="stop4" />
    </linearGradient>
    <linearGradient
       id="b">
      <stop
         offset="0"
         stop-color="#dc85e9"
         id="stop7" />
      <stop
         offset="1"
         stop-color="#f2cbf8"
         id="stop9" />
    </linearGradient>
    <linearGradient
       id="c">
      <stop
         offset="0"
         stop-color="#fff"
         stop-opacity=".588"
         id="stop12" />
      <stop
         offset="1"
         stop-color="#fff"
         stop-opacity=".863"
         id="stop14" />
    </linearGradient>
    <linearGradient
       id="d">
      <stop
         offset="0"
         stop-color="#b3b3b3"
         id="stop17" />
      <stop
         offset="1"
         stop-color="#e6e6e6"
         id="stop19" />
    </linearGradient>
    <linearGradient
       id="e">
      <stop
         offset="0"
         stop-color="#e694bb"
         id="stop22" />
      <stop
         offset=".262"
         stop-color="#d3819a"
         id="stop24" />
      <stop
         offset=".705"
         stop-color="#b25a64"
         id="stop26" />
      <stop
         offset="1"
         stop-color="#98313d"
         id="stop28" />
    </linearGradient>
  </defs>
  <path
     style="color:#000000;font-weight:400;line-height:normal;font-family:'Andale Mono';text-indent:0;text-align:start;text-decoration:none;text-decoration-line:none;text-transform:none;overflow:visible;fill:#2ca02c;marker:none"
     d="m 32.938,-0.012 c -0.999,0.32 -1.335,1.84 -0.565,2.555 l 9.035,9.082 c 0.835,0.796 2.497,0.115 2.541,-1.041 V 1.502 c 0,-0.793 -0.717,-1.514 -1.506,-1.514 h -9.035 a 1.548,1.548 0 0 0 -0.47,0 z M 6.438,0.014 C 5.062,0.276 3.974,1.612 4,3.012 V 45 c 0,1.57 1.43,3 3,3 h 34 c 1.57,0 3,-1.43 3,-3 V 18.818 A 3.038,3.038 0 0 0 43.156,16.662 L 27.344,0.857 A 3.038,3.038 0 0 0 25.187,0.014 H 7 a 2.938,2.938 0 0 0 -0.563,0 z M 7,3.02 h 18.672 l 0.187,0.188 14.907,15 L 41,18.442 V 44.997 H 7 V 3.021 Z m 16.713,13 c -6.948,0 -10.922,1.945 -11.455,3.922 a 0.442,0.442 0 0 0 -0.067,0.225 v 1.062 c 1.308,1.365 5.677,2.625 11.522,2.625 5.845,0 10.212,-1.26 11.52,-2.625 V 20.167 A 0.422,0.422 0 0 0 35.172,19.956 C 34.655,17.974 30.679,16.02 23.712,16.02 Z M 12.19,22.883 v 4.332 c 1.216,1.269 5.084,2.446 10.27,2.611 l 0.162,0.004 a 36.705,36.705 0 0 0 1.09,0.016 c 0.214,0 0.426,0 0.637,-0.004 0.152,-0.003 0.302,-0.008 0.453,-0.012 l 0.16,-0.004 c 5.186,-0.165 9.054,-1.342 10.27,-2.611 v -4.332 c -2.244,1.54 -6.984,2.355 -11.52,2.355 -4.537,0 -9.278,-0.815 -11.522,-2.355 z m 0,6.04 v 4.333 c 1.312,1.369 5.712,2.633 11.522,2.633 5.81,0 10.208,-1.264 11.52,-2.633 v -4.332 c -0.608,0.417 -1.395,0.783 -2.315,1.092 -1.94,0.678 -4.63,1.154 -8.004,1.246 a 38.76,38.76 0 0 1 -2.406,0 C 19.124,31.169 16.428,30.689 14.487,30.008 13.575,29.7 12.794,29.338 12.19,28.924 Z m 0,5.993 v 3.78 a 0.43,0.43 0 0 0 0.053,0.206 c 0.544,2.256 5.415,3.94 11.469,3.94 6.04,0 10.9,-1.676 11.463,-3.924 a 0.455,0.455 0 0 0 0.056,-0.223 v -3.779 c -1.905,1.342 -5.83,2.397 -11.52,2.397 -5.689,0 -9.615,-1.055 -11.52,-2.397 z"
     font-weight="400"
     overflow="visible"
     id="path33"
     inkscape:connector-curvature="0" />
</svg>
