<svg xmlns="http://www.w3.org/2000/svg" width="48" height="48"><path style="line-height:normal;text-indent:0;text-align:start;text-decoration-line:none;text-transform:none;marker:none" d="M32.94-.01c-1 .32-1.34 1.84-.57 2.55l9.04 9.09c.83.8 2.5.11 2.54-1.05V1.5c0-.8-.72-1.51-1.5-1.51H33.4a1.55 1.55 0 0 0-.47 0zM6.44 0a3.1 3.1 0 0 0-2.44 3V45c0 1.57 1.43 3 3 3h34c1.57 0 3-1.43 3-3V18.82a3.04 3.04 0 0 0-.84-2.16L27.34.86A3.04 3.04 0 0 0 25.2 0H7a2.94 2.94 0 0 0-.56 0zM7 3.02h18.67l.19.19 14.9 15 .24.23V45H7V3.02zm10 4.53v.02a7.5 7.5 0 0 0-7 6.98v1a7.5 7.5 0 0 0 7 6.98v.02h1v-.02a7.5 7.5 0 0 0 6.97-6.98H25v-1h-.02A7.5 7.5 0 0 0 18 7.57v-.02h-1zm0 1.06v2.94h-2.46c.54-1.56 1.42-2.66 2.45-2.94zm1 0c1.02.28 1.9 1.38 2.44 2.94H18V8.61zm-3.31.57a8 8 0 0 0-1.18 2.37h-1.5a6.54 6.54 0 0 1 2.68-2.37zm5.6 0a6.54 6.54 0 0 1 2.68 2.37h-1.5c-.29-.92-.69-1.72-1.17-2.37zm-8.8 3.37h1.76c-.14.63-.22 1.3-.25 2h-1.99c.05-.7.22-1.38.48-2zm2.77 0h2.73v2H14c.03-.7.12-1.38.26-2zm3.73 0h2.73c.14.62.23 1.3.26 2H18v-2zm3.75 0h1.75c.26.62.43 1.3.48 2h-1.99a11.88 11.88 0 0 0-.24-2zm-10.73 3h2c.02.7.1 1.37.24 2h-1.76a6.45 6.45 0 0 1-.48-2zm3 0h2.98v2h-2.73a11.18 11.18 0 0 1-.26-2zm3.98 0h3c-.04.7-.13 1.38-.27 2H18v-2zm4 0h1.98a6.41 6.41 0 0 1-.48 2h-1.75c.13-.63.22-1.3.24-2zm-9.98 3h1.5c.3.92.7 1.72 1.18 2.37A6.53 6.53 0 0 1 12 18.54zm2.53 0H17v2.94c-1.03-.28-1.91-1.38-2.45-2.94zm3.45 0h2.45c-.54 1.56-1.42 2.66-2.45 2.94v-2.94zm3.48 0h1.5a6.53 6.53 0 0 1-2.67 2.37c.48-.65.88-1.45 1.17-2.37zm-9.37 6.8c-1.2 0-2.16.06-2.16.13v1.57c0 .07.96.13 2.16.13h24.16c1.2 0 2.16-.06 2.16-.13v-1.57c0-.07-.97-.13-2.16-.13H12.1zm-.02 3.98a9 9 0 0 0-2.16.13v1.56c0 .08.97.14 2.16.14h24.16c1.2 0 2.16-.06 2.16-.13v-1.57a9 9 0 0 0-2.16-.13H12.08zm.04 3.86c-1.2 0-2.15.05-2.15.13v1.57c0 .07.96.13 2.15.13h24.16a9 9 0 0 0 2.16-.13v-1.57c0-.08-.96-.13-2.16-.13H12.12z" color="#000" font-weight="400" font-family="Andale Mono" overflow="visible" fill="#2ca02c"/></svg>
