<svg xmlns="http://www.w3.org/2000/svg" width="48" height="48"><path style="line-height:normal;text-indent:0;text-align:start;text-decoration-line:none;text-transform:none;marker:none" d="M32.94-.01c-1 .32-1.34 1.84-.57 2.55l9.04 9.09c.83.8 2.5.11 2.54-1.05V1.5c0-.8-.72-1.51-1.5-1.51H33.4a1.55 1.55 0 0 0-.47 0zM6.44 0a3.1 3.1 0 0 0-2.44 3V45c0 1.57 1.43 3 3 3h34c1.57 0 3-1.43 3-3V18.82a3.04 3.04 0 0 0-.84-2.16L27.34.86A3.04 3.04 0 0 0 25.2 0H7a2.94 2.94 0 0 0-.56 0zM7 3.02h18.67l.19.19 14.9 15 .24.23V45H7V3.02zm10.35 16.17c-.07 0-.14.04-.2.11-.12.03-.21.08-.23.17L14.6 32.8l-2.9-7.78c-.07-.18-.65.15-1.31.74l-.25.22c-.66.58-1.13 1.2-1.07 1.37l4.48 11.96.02.02c.15.27.6.61 1.17.84l.28.12c.73.3 1.36.32 1.41.03l3.15-18.1h17.89c.3 0 .53-.61.53-1.37v-.29c0-.76-.24-1.37-.53-1.37H17.35zm7.48 7c-.23.06-.63.34-1.04.74l-.2.2c-.54.54-.86 1.08-.72 1.22l3.59 3.6-3.6 3.58c-.13.14.2.68.73 1.22l.2.2c.54.54 1.08.86 1.22.72l3.59-3.59 3.6 3.6c.13.13.67-.2 1.2-.73l.2-.2c.54-.54.87-1.08.73-1.22l-3.6-3.59 3.6-3.6c.14-.13-.19-.67-.72-1.2l-.2-.2c-.54-.54-1.08-.87-1.22-.73l-3.6 3.6-3.58-3.6c-.04-.03-.1-.04-.18-.02z" color="#000" font-weight="400" font-family="Andale Mono" overflow="visible" fill="#2ca02c"/></svg>
