<svg xmlns="http://www.w3.org/2000/svg" width="48" height="48"><path style="line-height:normal;text-indent:0;text-align:start;text-decoration-line:none;text-transform:none;marker:none" d="M29.7-.08c-2.04 0-4.12.08-4.51.1H7a2.94 2.94 0 0 0-.56 0 3.1 3.1 0 0 0-2.44 3V45c0 1.57 1.43 3 3 3h34c1.57 0 3-1.43 3-3V18.82c.02-.8.21-9.93-.34-10.5L34.06.25c-.29-.28-2.3-.34-4.36-.33zM31.2 3l.13 7.5c.01.68.64 1.3 1.31 1.28l7.78-.13c.13.01.26.01.4-.01l.08 3.03.1 4.09V45H7V3.02h18.67l5.52-.01zM15.83 7.64a.55.55 0 0 0-.2.03c-.77 0-1.17 1.23-1.91 1.44-.3 1.18.75.57 1.3.03v3.41c-.17.62.63.27 1 .36v-4.3c-.08-.32.17-.94-.2-.97zm0 9.12a.55.55 0 0 0-.2.03c-.77 0-1.17 1.23-1.91 1.44-.3 1.18.75.57 1.3.03v3.41c-.17.62.63.27 1 .36v-4.3c-.08-.32.17-.95-.2-.97zm3.37.03c-1.4-.06-1.72 1.55-1.69 2.66-.08 1.11.3 2.71 1.7 2.67 1.38.05 1.75-1.56 1.69-2.66.06-1.1-.31-2.72-1.7-2.67zm0 .83c.53.01.6.67.63 1.06.08.77.19 3.28-1.08 2.33-.18-1.04-.6-2.8.45-3.4zm-3.37 8.26a.55.55 0 0 0-.2.03c-.77 0-1.17 1.22-1.91 1.43-.3 1.18.75.58 1.3.04v3.4c-.17.63.63.28 1 .37v-4.3c-.08-.32.17-.95-.2-.97zm8.12 0a.55.55 0 0 0-.2.03c-.77 0-1.17 1.22-1.9 1.43-.3 1.18.74.58 1.29.04v3.4c-.17.63.63.28 1 .37v-4.3c-.07-.32.17-.95-.2-.97zm-4.74.03c-1.42-.06-1.73 1.55-1.7 2.65-.08 1.12.3 2.72 1.7 2.68 1.38.05 1.75-1.56 1.69-2.67.06-1.1-.31-2.71-1.7-2.66zm0 .83c.52 0 .59.67.62 1.06.08.76.19 3.28-1.08 2.33-.18-1.04-.6-2.8.45-3.4zM15.84 35a.55.55 0 0 0-.2.03c-.77 0-1.17 1.22-1.91 1.43-.3 1.18.75.57 1.3.04v3.4c-.17.63.63.28 1 .37v-4.3c-.08-.32.17-.95-.2-.97zm8.12 0a.55.55 0 0 0-.2.03c-.77 0-1.17 1.22-1.9 1.43-.3 1.18.74.57 1.29.04v3.4c-.17.63.63.28 1 .37v-4.3c-.07-.32.17-.95-.2-.97zm-4.74.03c-1.42-.06-1.73 1.55-1.7 2.65-.08 1.12.3 2.72 1.7 2.68 1.38.05 1.75-1.57 1.69-2.67.06-1.1-.31-2.71-1.7-2.67zm8.12 0c-1.42-.06-1.73 1.55-1.7 2.65-.07 1.12.3 2.72 1.7 2.68 1.38.05 1.75-1.57 1.7-2.67.05-1.1-.32-2.71-1.7-2.67zm-8.12.83c.52 0 .59.67.62 1.06.08.76.19 3.27-1.08 2.32-.18-1.03-.6-2.79.45-3.39zm8.12 0c.53 0 .59.67.62 1.06.08.76.2 3.27-1.07 2.32-.2-1.03-.6-2.79.45-3.39z" color="#000" font-weight="400" font-family="Andale Mono" overflow="visible" fill="#2ca02c"/></svg>
