<svg xmlns="http://www.w3.org/2000/svg" width="48" height="48"><path style="line-height:normal;text-indent:0;text-align:start;text-decoration-line:none;text-transform:none;marker:none" d="M29.7-.08c-2.04 0-4.12.08-4.51.1H7a2.94 2.94 0 0 0-.56 0 3.1 3.1 0 0 0-2.44 3V45c0 1.57 1.43 3 3 3h34c1.57 0 3-1.43 3-3V18.82c.02-.8.21-9.93-.34-10.5L34.06.25c-.29-.28-2.3-.34-4.36-.33zM31.2 3l.13 7.5c.01.68.64 1.3 1.31 1.28l7.78-.13c.13.01.26.01.4-.01l.08 3.03.1 4.09V45H7V3.02h18.67l5.52-.01zM15.5 15.32a.43.43 0 0 0-.37.2l-3.43 5.53a.5.5 0 0 0 0 .5l12 20.26c.08.13.22.21.36.21a.42.42 0 0 0 .36-.2l12.01-20.26a.47.47 0 0 0 0-.5l-3.42-5.53a.43.43 0 0 0-.36-.2H15.49zm.37.92h7.99v4.84h-6.38l-1.61-4.84zm8.42 0h7.98l-1.61 4.84h-6.37v-4.84zm-8.76.33l1.5 4.5h-4.3l2.8-4.5zm17.09 0l2.8 4.5h-4.3l1.5-4.5zM12.7 21.54h4.46l5.73 17.2-10.2-17.2zm4.93 0h6.22v18.7l-6.22-18.7zm6.65 0h6.21l-6.21 18.7v-18.7zm6.67 0h4.47l-10.2 17.2 5.73-17.2z" color="#000" font-weight="400" font-family="Andale Mono" overflow="visible" fill="#2ca02c"/></svg>
