<svg xmlns="http://www.w3.org/2000/svg" width="48" height="48"><path style="line-height:normal;text-indent:0;text-align:start;text-decoration-line:none;text-transform:none;marker:none" d="M29.7-.08c-2.04 0-4.12.08-4.51.1H7a2.94 2.94 0 0 0-.56 0 3.1 3.1 0 0 0-2.44 3V45c0 1.57 1.43 3 3 3h34c1.57 0 3-1.43 3-3V18.82c.02-.8.21-9.93-.34-10.5L34.06.25c-.29-.28-2.3-.34-4.36-.33zM31.2 3l.13 7.5c.01.68.64 1.3 1.31 1.28l7.78-.13c.13.01.26.01.4-.01l.08 3.03.1 4.09V45H7V3.02h18.67l5.52-.01zM13.4 13.19a4 4 0 0 0-4.01 4v21.27a4 4 0 0 0 4 4h1.37a4 4 0 0 0 4-4V17.2a4 4 0 0 0-4-4H13.4zm11.77 0a4 4 0 0 0-4 4v1.37a4 4 0 0 0 4 4h9.5a4 4 0 0 0 4-4V17.2a4 4 0 0 0-4-4h-9.5zM13.4 15.47h1.37c.95 0 1.72.77 1.72 1.72v21.27c0 .95-.77 1.72-1.72 1.72H13.4c-.95 0-1.72-.77-1.72-1.72V17.2c0-.95.77-1.72 1.72-1.72zm11.78 0h9.5c.94 0 1.71.77 1.71 1.72v1.37c0 .95-.77 1.72-1.71 1.72h-9.5c-.94 0-1.71-.77-1.71-1.72V17.2c0-.95.77-1.72 1.71-1.72zm0 9.55a4 4 0 0 0-4 4v9.44a4 4 0 0 0 4 4h9.5a4 4 0 0 0 4-4 1.14 1.14 0 0 0-2.29 0c0 .95-.77 1.72-1.71 1.72h-9.5c-.94 0-1.71-.77-1.71-1.72v-9.43c0-.95.77-1.72 1.71-1.72h9.5c.94 0 1.71.77 1.71 1.72v3.71a1.15 1.15 0 0 0 2.29 0v-3.71a4 4 0 0 0-4-4h-9.5z" color="#000" font-weight="400" font-family="Andale Mono" overflow="visible" fill="#2ca02c"/></svg>
