<svg xmlns="http://www.w3.org/2000/svg" width="48" height="48"><path style="line-height:normal;text-indent:0;text-align:start;text-decoration-line:none;text-transform:none;marker:none" d="M29.7-.08c-2.04 0-4.12.08-4.51.1H7a2.94 2.94 0 0 0-.56 0 3.1 3.1 0 0 0-2.44 3V45c0 1.57 1.43 3 3 3h34c1.57 0 3-1.43 3-3V18.82c.02-.8.21-9.93-.34-10.5L34.06.25c-.29-.28-2.3-.34-4.36-.33zM31.2 3l.13 7.5c.01.68.64 1.3 1.31 1.28l7.78-.13c.13.01.26.01.4-.01l.08 3.03.1 4.09V45H7V3.02h18.67l5.52-.01zm2.69 11.76c-2.4-.13-3.66 3.75-1.38 4.8 1.85.77 3.87-1.14 3.42-3.03a2.06 2.06 0 0 0-2.04-1.77zm-1.04 8.53c-.38-.03-.83.1-1.32.47-2.36 1.03-4.33 2.7-6.39 4.2.26.71.55 1.28 1.17.5.77-.46 3.34-2.46 3.08-.5-.82 3.63-1.82 7.22-2.59 10.86-.8 1.99 1.02 3.8 2.92 2.5 2.02-.84 3.76-2.2 5.53-3.43-.24-.6-.4-1.45-1.07-.67-.88.4-2.8 2.27-3.16.72.74-3.92 2.1-7.7 2.98-11.6.6-1.35.02-2.96-1.14-3.05z" color="#000" font-weight="400" font-family="Andale Mono" overflow="visible" fill="#2ca02c"/></svg>
