<svg xmlns="http://www.w3.org/2000/svg" width="48" height="48"><path style="line-height:normal;text-indent:0;text-align:start;text-decoration-line:none;text-transform:none;marker:none" d="M29.7-.08c-2.04 0-4.12.08-4.51.1H7a2.94 2.94 0 0 0-.56 0 3.1 3.1 0 0 0-2.44 3V45c0 1.57 1.43 3 3 3h34c1.57 0 3-1.43 3-3V18.82c.02-.8.21-9.93-.34-10.5L34.06.25c-.29-.28-2.3-.34-4.36-.33zM31.2 3l.13 7.5c.01.68.64 1.3 1.31 1.28l7.78-.13c.13.01.26.01.4-.01l.08 3.03.1 4.09V45H7V3.02h18.67l5.52-.01zm-20.96 3.9v2.04h6.2V6.9h-6.2zm8 0v2.04h6.2V6.9h-6.2zm-6 4v2.04h16.1V10.9h-16.1zm-2 4v2.04h13.87V14.9H10.24zm16 0v2.04h10.28V14.9H26.24zm-16 4v2.04h6.4V18.9h-6.4zm8 0v2.04h11.83V18.9H18.24zm14 0v2.04h4.17V18.9h-4.17zm-20 4v2.04h21.72V22.9H12.24zm0 4v1.94H29.6V26.9H12.24zm20 0v1.94h3.98V26.9h-3.98zm-22.22 4v1.94h16.2V30.9h-16.2zm19.6 0v1.94h6.6V30.9h-6.6zm-2.7 4.33v7.5h1.73v-7.5h-1.73zm-14.57.3l2.67 7.2h2.22l2.67-7.2h-1.87l-1.9 5.32-1.92-5.32h-1.87zm10.02 1.66c-.7.02-1.4.15-2.06.29v.98c-.1.73.93-.27 1.39-.08.69-.08 1.95-.1 1.87.9-.87.01-1.76-.07-2.6.2-.92.24-1.33 1.32-1.06 2.18.43 1.45 2.6 1.6 3.48.5.3-.53.13.35.18.58h1.74v-3.09c0-.77-.2-1.66-.92-2.07a4.23 4.23 0 0 0-2.02-.39zm10.08 0c-.7.02-1.4.15-2.06.29v.98c-.1.73.93-.27 1.39-.08.69-.08 1.95-.1 1.87.9-.87.01-1.76-.07-2.6.2-.92.24-1.33 1.32-1.06 2.18.43 1.45 2.6 1.6 3.48.5.3-.53.13.35.18.58h1.74v-3.09c0-.77-.2-1.66-.93-2.07a4.23 4.23 0 0 0-2-.39zM22.28 40.3a.86.86 0 0 1 .39.03h.9c.1.69-.42 1.45-1.16 1.42-1.12.08-.94-1.31-.13-1.45zm10.08 0a.86.86 0 0 1 .39.03h.9c.1.69-.42 1.45-1.16 1.42-1.12.08-.94-1.31-.13-1.45z" color="#000" font-weight="400" font-family="Andale Mono" overflow="visible" fill="#2ca02c"/></svg>
