<svg xmlns="http://www.w3.org/2000/svg" width="48" height="48"><path style="line-height:normal;text-indent:0;text-align:start;text-decoration-line:none;text-transform:none;marker:none" d="M29.7-.08c-2.04 0-4.12.08-4.51.1H7a2.94 2.94 0 0 0-.56 0 3.1 3.1 0 0 0-2.44 3V45c0 1.57 1.43 3 3 3h34c1.57 0 3-1.43 3-3V18.82c.02-.8.21-9.93-.34-10.5L34.06.25c-.29-.28-2.3-.34-4.36-.33zM31.2 3l.13 7.5c.01.68.64 1.3 1.31 1.28l7.78-.13c.13.01.26.01.4-.01l.08 3.03.1 4.09V45H7V3.02h18.67l5.52-.01zM18.76 16.77a1.05 1.05 0 0 0-.97 1.07v7.93h-3.44a1.05 1.05 0 0 0-.81 1.75l9.5 11a1.05 1.05 0 0 0 1.62 0l9.5-11a1.05 1.05 0 0 0-.8-1.75h-3.45v-7.93a1.05 1.05 0 0 0-1.06-1.07h-10a1.05 1.05 0 0 0-.1 0zm.6 1.57h9v9h4l-8.5 10-8.5-10h4v-9z" color="#000" font-weight="400" font-family="Andale Mono" overflow="visible" fill="#2ca02c"/></svg>
