<svg xmlns="http://www.w3.org/2000/svg" width="48" height="48"><path style="line-height:normal;text-indent:0;text-align:start;text-decoration-line:none;text-transform:none;marker:none" d="M29.7-.08c-2.04 0-4.12.08-4.51.1H7a2.94 2.94 0 0 0-.56 0 3.1 3.1 0 0 0-2.44 3V45c0 1.57 1.43 3 3 3h34c1.57 0 3-1.43 3-3V18.82c.02-.8.21-9.93-.34-10.5L34.06.25c-.29-.28-2.3-.34-4.36-.33zM31.2 3l.13 7.5c.01.68.64 1.3 1.31 1.28l7.78-.13c.13.01.26.01.4-.01l.08 3.03.1 4.09V45H7V3.02h18.67l5.52-.01zm-7.14 10.51c-3.34-.06-6.89 1.22-7.97 3.74-.62 1.4-.04 3.91 2.06 3.91 1.23 0 1.8-.8 1.88-1.52.07-.55-.15-1.04-.28-1.5-.16-.51.5-1.51 1.2-1.92.59-.34 1.2-.46 1.3-.48 2.11-.5 4.23.62 5.1 1.98.89 1.37-.08 3.45-1.48 5.47-1.39 2.02-2.89 4.3-2.88 6.74 0 .93-.08 1.25-.02 1.62.04.3 1.04.26 1.8.12-.07-2.36.46-4.64 2.69-6.27 2.35-1.83 4.62-4.13 4.38-6.83-.05-2.61-3.1-4.65-6.37-4.95-.46-.06-.93-.1-1.4-.1zm-.26 21.34c-2.03-.11-3.43 2.18-2.21 3.65 1.08 1.61 4.13 1.21 4.65-.62.55-1.42-.76-3.06-2.44-3.03z" color="#000" font-weight="400" font-family="Andale Mono" overflow="visible" fill="#2ca02c"/></svg>
