<svg xmlns="http://www.w3.org/2000/svg" width="48" height="48"><path style="line-height:normal;text-indent:0;text-align:start;text-decoration-line:none;text-transform:none;marker:none" d="M29.7-.08c-2.04 0-4.12.08-4.51.1H7a2.94 2.94 0 0 0-.56 0 3.1 3.1 0 0 0-2.44 3V45c0 1.57 1.43 3 3 3h34c1.57 0 3-1.43 3-3V18.82c.02-.8.21-9.93-.34-10.5L34.06.25c-.29-.28-2.3-.34-4.36-.33zM31.2 3l.13 7.5c.01.68.64 1.3 1.31 1.28l7.78-.13c.13.01.26.01.4-.01l.08 3.03.1 4.09V45H7V3.02h18.67l5.52-.01zm-9.77 5.56a.58.58 0 0 0-.39.2l-1.67 2.07c-.2.25-.16.61.09.81l.65.54a11.86 11.86 0 0 0-1.34 5.35 10.97 10.97 0 0 0 1.07 4.85l-1.87.35a.58.58 0 0 0-.42.33l-.8 1.78a.58.58 0 0 0 1.05.47l.68-1.5 5.89-1.08-2.99 3.68a2.1 2.1 0 0 0-2.46.6 2.1 2.1 0 0 0 3.27 2.66 2.1 2.1 0 0 0 .09-2.53l2.98-3.69.16 5.99-6.27 4.59-3.87-3.14.62-1.37a.58.58 0 0 0-1.05-.48l-.77 1.71-1.8 2.22-.88-.72a.58.58 0 0 0-.81.08l-2.2 2.72a.58.58 0 0 0 .08.81l7.22 5.86c.25.2.61.17.81-.08l2.2-2.72a.58.58 0 0 0-.08-.81l-.88-.72 1.8-2.21 6.8-4.99a.58.58 0 0 0 .24-.48l-.05-1.9a11.18 11.18 0 0 0 4.98.02 11.82 11.82 0 0 0 4.95-2.4l.66.54c.25.2.61.16.81-.08l1.68-2.07a.58.58 0 0 0-.09-.8l-2.06-1.68a.58.58 0 0 0-.8.08l-1.68 2.07a.58.58 0 0 0 .08.8l.49.4a10.47 10.47 0 0 1-9.05 1.92l-.12-4.75v-.02-.03l-.01-.03v-.03l-.01-.02-.01-.04-.01-.02a.58.58 0 0 0-.02-.04v-.02l-.03-.03v-.02l-.03-.03-.01-.02-.03-.03-.01-.01a.6.6 0 0 0-.05-.04l-.05-.04a.59.59 0 0 0-.05-.03h-.01a.54.54 0 0 0-.04-.02h-.02l-.04-.02h-.02a1 1 0 0 0-.04-.01h-.12-.08l-4.67.86a10.22 10.22 0 0 1 .01-9.25l.49.4c.25.2.61.16.81-.1L24 11.19a.58.58 0 0 0-.08-.81l-2.07-1.68a.57.57 0 0 0-.42-.13zm.15 1.38l1.16.95-.94 1.16-1.17-.94.95-1.17zm15.6 12.66l1.17.95-.95 1.16-1.16-.94.94-1.17zm-20.91 4zm4.19.8a.95.95 0 1 1-.5 1.68.95.95 0 0 1 .5-1.68zm-5.8 4.47l3.66 2.97-1.48 1.82-3.66-2.97 1.48-1.82zm-3.54 1.64l6.33 5.13-1.48 1.82-6.33-5.13 1.48-1.82z" color="#000" font-weight="400" font-family="Andale Mono" overflow="visible" fill="#2ca02c"/></svg>
