<svg xmlns="http://www.w3.org/2000/svg" width="48" height="48"><path style="line-height:normal;text-indent:0;text-align:start;text-decoration-line:none;text-transform:none;marker:none" d="M29.7-.08c-2.04 0-4.12.08-4.51.1H7a2.94 2.94 0 0 0-.56 0 3.1 3.1 0 0 0-2.44 3V45c0 1.57 1.43 3 3 3h34c1.57 0 3-1.43 3-3V18.82c.02-.8.21-9.93-.34-10.5L34.06.25c-.29-.28-2.3-.34-4.36-.33zM31.2 3l.13 7.5c.01.68.64 1.3 1.31 1.28l7.78-.13c.13.01.26.01.4-.01l.08 3.03.1 4.09V45H7V3.02h18.67l5.52-.01zM10.5 9.76c-.56 0-1.02.46-1.02 1.02v11.19c0 .56.46 1.02 1.02 1.02h4.58v14.39c0 .56.46 1.02 1.02 1.02h21.02c.57 0 1.02-.45 1.02-1.02V16.36c0-.56-.45-1.02-1.02-1.02H22.73v-4.56c0-.56-.46-1.02-1.02-1.02H10.5zm1.02 2.05h9.16v1.69h-9.16v-1.7zm0 3.73h3.56v1.67h-3.56v-1.67zm5.6 0h3.57v1.67h-3.56v-1.67zm5.61 1.85H36.1v18.97H17.13V22.99h4.16l5.29 5.3-.84.84a1.02 1.02 0 0 0 .46 1.71l4.27 1.14c.77.2 1.46-.5 1.25-1.25l-1.14-4.27a1.02 1.02 0 0 0-1.71-.46l-.84.84-5.3-5.3V17.4zm-11.2 1.87h3.55v1.69h-3.56v-1.7zm5.6 0h3.56v1.69h-3.56v-1.7z" color="#000" font-weight="400" font-family="Andale Mono" overflow="visible" fill="#2ca02c"/></svg>
