<svg xmlns="http://www.w3.org/2000/svg" version="1" width="24" height="24"><g fill="none" stroke="#ff7f2a"><path d="M21.63 11.7A9.6 9.6 0 0 0 12 2.07a9.6 9.6 0 0 0-9.63 9.63A9.6 9.6 0 0 0 12 21.33a9.6 9.6 0 0 0 9.63-9.63zm-6.11 0A3.5 3.5 0 0 1 12 15.23a3.5 3.5 0 0 1-3.53-3.53A3.44 3.44 0 0 1 12 8.18c2.09 0 3.52 1.62 3.52 3.52z" stroke-width="1.41"/><path d="M12 8.18a3.52 3.52 0 0 0-3.53 3.52A3.52 3.52 0 0 0 12 15.23a3.52 3.52 0 0 0 3.52-3.53A3.52 3.52 0 0 0 12 8.18zm0 1.76a1.76 1.76 0 1 1 0 3.53 1.76 1.76 0 0 1 0-3.53z" style="marker:none" overflow="visible" stroke-linejoin="round" stroke-width=".47"/></g><path d="M21.55 4.12l-4.3 9.8m-3.35-1.35l6.68 2.93" fill="#ff0" stroke="#ffd42a" stroke-width="1.57" stroke-linecap="round" stroke-linejoin="round"/><path d="M13.34 14l6.65 2.92-1.5 3.38c-.17 1.02 2.35.13 3.55.16l-4.56 2.17c-2.16.03-6.65-1.8-6.48-3.31z" fill="#ffd42a"/></svg>