<svg xmlns="http://www.w3.org/2000/svg" version="1" width="24" height="24"><g fill="none" stroke="#ff7f2a"><path d="M21.56 11.78A9.53 9.53 0 0 0 12 2.21a9.53 9.53 0 0 0-9.56 9.55A9.53 9.53 0 0 0 12 21.34a9.53 9.53 0 0 0 9.56-9.55zm-6.06 0a3.48 3.48 0 0 1-3.5 3.5 3.48 3.48 0 0 1-3.5-3.5c0-1.93 1.42-3.5 3.5-3.5s3.5 1.6 3.5 3.5z" stroke-width="1.4"/><path d="M12 8.28a3.5 3.5 0 0 0-3.5 3.5 3.5 3.5 0 0 0 3.5 3.5 3.5 3.5 0 0 0 3.5-3.5 3.5 3.5 0 0 0-3.5-3.5zm0 1.75a1.75 1.75 0 1 1 0 3.5 1.75 1.75 0 0 1 0-3.5z" style="marker:none" overflow="visible" stroke-linejoin="round" stroke-width=".47"/></g><path d="M19.86 8.8L15.98 19.5M20.9 5.93l-.65 1.8" fill="#447821" fill-rule="evenodd" stroke="#447821" stroke-width="2.69"/><path d="M14.4 19.95l2.5.9-2.2 1.63z" fill="#447821" fill-opacity=".99" fill-rule="evenodd"/></svg>