<svg xmlns="http://www.w3.org/2000/svg" width="24" height="24"><path d="M11.99 1.09a10.9 10.9 0 0 0-11 10.86 10.9 10.9 0 0 0 11 10.87c.47 0 .87-.2 1.32-.26l1.8-3.09a8.32 8.32 0 0 1-3.12.63 8.17 8.17 0 0 1-8.24-8.15 8.17 8.17 0 0 1 8.24-8.15A8.2 8.2 0 0 1 19.6 8.9l1.98-1.97a10.87 10.87 0 0 0-9.6-5.85zm0 4.36c-.73 0-1.33.6-1.33 1.32v6.55a1.32 1.32 0 0 0 2.64 0V6.76c0-.71-.6-1.3-1.32-1.3zm9.6 4.63l-7.27 6.78h4.15l-3.11 5.8 7.27-7.74H19.5zm-9.6 5.83a1.31 1.31 0 0 0-1.33 1.33 1.31 1.31 0 0 0 1.33 1.3 1.31 1.31 0 0 0 1.3-1.31 1.31 1.31 0 0 0-1.31-1.32z" fill="#ff7f2a"/></svg>