<svg xmlns="http://www.w3.org/2000/svg" width="24" height="24"><path d="M11.99 1.09a10.9 10.9 0 0 0-11 10.87 10.9 10.9 0 0 0 11 10.86c.47 0 .87-.2 1.32-.26l1.8-3.09a8.32 8.32 0 0 1-3.12.63 8.17 8.17 0 0 1-8.24-8.15 8.17 8.17 0 0 1 8.24-8.15A8.2 8.2 0 0 1 19.6 8.9l1.98-1.97a10.87 10.87 0 0 0-9.6-5.85zm0 4.53a6.32 6.32 0 0 0-5.46 3.2h10.9A6.32 6.32 0 0 0 12 5.61zm9.6 4.47l-7.27 6.77h4.15l-3.11 5.8 7.27-7.74H19.5zm-15.77.33c-.14.5-.24.99-.24 1.54 0 .6.18 1.13.34 1.69h8.95l3.23-3.22zm.9 4.95a6.17 6.17 0 0 0 3.88 2.56l2.53-2.54z" fill="#ff7f2a"/></svg>