<svg xmlns="http://www.w3.org/2000/svg" width="24" height="24"><path d="M12 1.08c-6.1 0-11 4.84-11 10.87a10.91 10.91 0 0 0 11 10.89c6.1 0 11-4.86 11-10.9A10.91 10.91 0 0 0 12 1.09zm0 2.72a8.18 8.18 0 0 1 8.25 8.16A8.19 8.19 0 0 1 12 20.11a8.18 8.18 0 0 1-8.25-8.16A8.18 8.18 0 0 1 12 3.8zm-.24 1.78c-2.1.12-3.72 1.75-3.61 3.85h2.57c-.04-.73.48-1.24 1.2-1.28a1.26 1.26 0 0 1 1.37 1.2v.04c0 .17-.05.42-.17.57-.28.34-.61.62-.88.83a4.9 4.9 0 0 0-.92.88c-.31.4-.6.96-.6 1.61 0 .68.6 1.29 1.28 1.29a1.32 1.32 0 0 0 1.29-1.29s-.02.04.04-.04.22-.22.47-.4c1.57-1.18 2.05-1.85 2.05-3.65a3.88 3.88 0 0 0-4.1-3.61zm.2 10.27a1.29 1.29 0 0 0 .04 2.57 1.29 1.29 0 1 0 0-2.57 1.29 1.29 0 0 0-.04 0z" fill="#ff7f2a"/></svg>