<svg xmlns="http://www.w3.org/2000/svg" width="24" height="24"><path d="M11.662 1.988c-.179 0-.318.161-.318.34v1.99c0 .2.139.338.318.338h.676c.179 0 .318-.139.318-.318v-2.01c0-.199-.139-.34-.318-.34h-.676zm-6.27 2.588a.338.338 0 0 0-.238.12l-.459.458a.338.338 0 0 0 0 .477L6.09 7.045a.338.338 0 0 0 .476 0l.479-.479a.338.338 0 0 0 0-.457L5.65 4.695a.318.318 0 0 0-.257-.1v-.019zm13.215 0a.318.318 0 0 0-.238.12L16.955 6.09a.338.338 0 0 0 0 .476l.479.479a.338.338 0 0 0 .457 0l1.414-1.395a.338.338 0 0 0 0-.496l-.46-.459a.338.338 0 0 0-.238-.1v-.019zM12 5.957A6.044 6.044 0 0 0 5.957 12 6.044 6.044 0 0 0 12 18.043 6.044 6.044 0 0 0 18.043 12 6.044 6.044 0 0 0 12 5.957zm0 1A5.044 5.044 0 0 1 17.043 12 5.044 5.044 0 0 1 12 17.043 5.044 5.044 0 0 1 6.957 12 5.044 5.044 0 0 1 12 6.957zm-9.672 4.387c-.199 0-.34.139-.34.318v.676c0 .179.161.318.34.318h1.99c.2 0 .338-.139.338-.318v-.676c0-.179-.139-.318-.318-.318h-2.01zm17.334 0c-.179 0-.318.139-.318.318v.676c0 .179.139.318.318.318h2.01c.199 0 .34-.139.34-.318v-.676c0-.179-.161-.318-.34-.318h-2.01zM6.328 16.855a.338.338 0 0 0-.219.1L4.695 18.35a.338.338 0 0 0 0 .496l.46.459a.338.338 0 0 0 .476 0l1.414-1.395a.338.338 0 0 0 0-.476l-.479-.479a.338.338 0 0 0-.218-.1h-.02zm11.34 0a.338.338 0 0 0-.234.1l-.479.479a.338.338 0 0 0 0 .457l1.414 1.414a.338.338 0 0 0 .477 0l.459-.46a.338.338 0 0 0 0-.476l-1.395-1.414a.338.338 0 0 0-.238-.1h-.004zm-6.006 2.489c-.179 0-.318.139-.318.318v2.01c0 .199.139.34.318.34h.676c.179 0 .318-.161.318-.34v-1.99c0-.2-.139-.338-.318-.338h-.676z" fill="#ff7f2a"/></svg>
