<svg xmlns="http://www.w3.org/2000/svg" version="1" viewBox="0 0 24 24"><path style="font-variant-ligatures:normal;font-variant-position:normal;font-variant-caps:normal;font-variant-numeric:normal;font-variant-alternates:normal;font-feature-settings:normal;text-indent:0;text-decoration-line:none;text-decoration-style:solid;text-decoration-color:#000;text-transform:none;text-orientation:mixed;shape-padding:0;isolation:auto;mix-blend-mode:normal" d="M11.3 1A10.33 10.33 0 0 0 1 11.33a10.34 10.34 0 0 0 12.37 10.1V18.6a7.66 7.66 0 0 1-2.06.29 7.54 7.54 0 0 1-7.57-7.56c0-4.2 3.37-7.57 7.57-7.57a7.54 7.54 0 0 1 7.27 9.63h2.83A10.3 10.3 0 0 0 11.31 1zm4.08 5.5a.69.69 0 0 0-.1.02.69.69 0 0 0-.34.22L11.3 10.4 9 8.12a.69.69 0 1 0-.94.94l2.75 2.75a.69.69 0 0 0 .94 0L15.9 7.7a.69.69 0 0 0-.5-1.18zm1.08 8.34v5.3h2.67v-5.3h-2.67zm0 6.62v1.33h2.67v-1.33h-2.67z" color="#000" font-weight="400" white-space="normal" overflow="visible" fill="#a02c2c"/></svg>