<svg xmlns="http://www.w3.org/2000/svg" width="24" height="24"><defs><style id="current-color-scheme"></style></defs><path d="M12 5a7 7 0 0 0-7 7 7 7 0 0 0 7 7 7 7 0 0 0 7-7 7 7 0 0 0-7-7zm0 2c.17 0 .33.02.5.04h.04a5 5 0 0 1 .3.04 6.6 6.6 0 0 1 1.1.33l.37.19v.03c.03.01.05.07.1.1l.03.03c.03.01.07.03.06.06 0 .04-.07.03-.1.06.01.06-.04.05-.06.1.01.02.06.03.07.06 0 .03-.08.02-.07.06.06.04.1 0 .16 0 .11-.02.21-.01.28-.06 0-.06.1-.05.1-.1l.09.06-.03.04c-.02 0-.05.01-.06.03l-.1.06c-.02.01-.07.1-.1.1l-.09-.04c-.03.01-.02.05-.06.06-.06.03-.2-.03-.22.07.03.05.14.03.19.06.03.02.09.09.1.12v.2c-.04.07-.13.06-.22.05h-.07c-.15 0-.3-.08-.37.04 0 .08.02.14 0 .21-.02.06-.1.11-.1.16 0 .02.06.06.07.1v.06c.02.05.08-.01.12 0 .05 0 .1.07.1.12 0 .03-.01.1-.04.12-.04.07-.12.06-.18.1-.06.03-.07.1-.1.15-.03.06-.07.08-.06.16a.37.37 0 0 1-.19.19c-.02.01-.07.01-.1.03l-.05.1-.1.09-.03.1c-.02.03-.06.04-.1.09l-.02.09c-.04.06-.07.1-.07.16 0 .04.06.05.07.09 0 .02-.04.04-.04.06 0 .04.03.07.04.1 0 .07-.05.1-.07.15v.06c0 .04-.06.08-.06.13 0 .03.06.05.06.1l-.03.09c.01.05.12.11.16.15.06.06.13.1.15.16.03.05.03.15.07.19.03.02.09.03.12.06l.1.06c.06.05.15.16.25.16.05-.01.1-.06.15-.07l.19-.03c.05.01.1.04.16.03.05 0 .1 0 .15-.03.1-.04.26-.11.4-.1.12.03.12.15.2.2.08 0 .15-.02.21 0 .06.01.13.08.13.12 0 .04-.06.1-.06.13-.02.05 0 .12 0 .15l-.03.1c0 .02.03.09.06.12l.12.13c.08.08.1.17.16.28v.1c-.02.16-.08.27-.19.46-.05.06-.12.11-.12.19 0 .18.1.3.1.47-.03.23 0 .25 0 .37.07.04.01.17 0 .25-.04.1-.08.13-.1.2h.19a5 5 0 0 1-.01 0l-.09.08c-.21.22-.46.42-.71.6a5 5 0 0 1-.07.04c-.2.13-.4.25-.62.35a5 5 0 0 1-.31.14c-.17.07-.35.12-.52.17a5 5 0 0 1-.93.16 7.62 7.62 0 0 1-.91-.02 5 5 0 0 1-.59-.1c-.23-.06-.46-.16-.68-.24-.01-.02-.04-.04-.03-.06.05-.03.15.07.18 0 .02-.04-.02-.13 0-.16s.12-.03.16-.03l.16-.03c.03-.03.06-.1.06-.16 0-.03-.04-.04-.06-.06-.02-.03 0-.04 0-.06-.03-.04-.09-.05-.1-.1.07-.01.18.06.28.03.05-.01.14-.1.16-.15v-.06l.03-.07v-.03c.02-.05.07-.09.1-.12l.09-.1.03-.06c.01-.1-.05-.17-.03-.25.02-.09.16-.15.25-.19l.1-.03.18-.06c.1-.04.11-.1.16-.19l.06-.12v-.07-.09l.03-.19c0-.04-.03-.06-.03-.1 0-.12.04-.1.1-.18l.05-.12c.09-.12.23-.17.22-.35 0-.06-.05-.2-.09-.22l-.1-.03c-.11-.04-.21-.17-.34-.18h-.06c-.05 0-.1-.03-.16-.04h-.12c-.03-.01-.04-.07-.06-.09l-.1-.03c-.05-.02-.07-.06-.12-.06h-.06l-.1-.04c-.03-.02-.08-.03-.1-.06.04-.1-.06-.12-.09-.18v-.13c0-.04-.05-.06-.09-.1a.37.37 0 0 0-.22-.09h-.15a.35.35 0 0 1-.2-.1c-.03-.04-.05-.1-.09-.12l-.09-.06c-.01 0-.02 0-.03-.03-.02-.04-.05-.05-.03-.1-.04-.01-.02.04-.06.04-.04-.06-.07-.11-.16-.1-.04.01-.08.1-.13.1-.04 0-.07-.09-.12-.1-.04 0-.1.04-.13.04-.04-.01-.05-.04-.09-.07-.03-.02-.08-.06-.1-.06-.04 0-.08.1-.15.06-.03-.04.07-.05.03-.1-.03-.02-.04.03-.06.04-.03.02-.06.02-.1.03l-.18.06a.19.19 0 0 0-.1.1c-.02.04-.06.12-.09.12-.04 0-.06-.04-.1-.06-.1-.05-.18.03-.28.03-.08 0-.22-.13-.21-.22l.03-.18c0-.06.06-.12.06-.16 0-.06-.12-.09-.16-.1-.09-.01-.2.05-.3 0-.03-.03.01-.05.02-.09v-.06c.01-.03.08-.06.1-.1v-.09c0-.03.06-.07.06-.1s-.04-.06-.06-.09c-.09.01-.14.01-.2.04-.1.05-.07.18-.18.22a1 1 0 0 1-.12.03H7.1a5 5 0 0 1 0-.06l.02-.04a5 5 0 0 1 .32-.93h.03c.04 0 .06.06.1.06.08 0 .1-.09.18-.13h.19c.05.01.12.06.15.06.04 0 .04-.03.07-.03.03.01.09.06.09.1 0 .04-.04.1-.03.15.05.05.15.07.22.1.04-.04 0-.1 0-.16v-.1l-.03-.09c0-.14.12-.2.21-.25.05-.02.1-.07.13-.1.05-.02.08 0 .13-.02l.18-.16c.03-.06 0-.15 0-.22h.1c.04 0 .06-.06.09-.1.01 0 .04 0 .06-.02.05-.04.06-.08.1-.1a.28.28 0 0 1 .06-.03l.12-.03.13-.03v-.1c.02-.1.18-.11.28-.15.07-.03.14-.1.22-.1-.02.06-.08.07-.06.13.01.1.12-.02.15-.03l.25-.1c.07-.02.2-.04.13-.12-.06 0-.08.04-.13.06-.03.01-.03-.03-.06-.03s-.04.04-.06.03c-.03 0-.06-.06-.06-.1-.02-.08.05-.09.09-.15-.02-.07-.12-.03-.19-.06 0-.04.04-.08.1-.1.04 0 .16.02.18.04.02.01-.02.04 0 .06.03.02.06.01.1 0 0-.06-.08-.02-.07-.06.07-.05.2-.02.29-.03a.7.7 0 0 0 .15-.06c.04-.03.05-.07.1-.04 0 .05-.01.08-.04.1-.07.07-.16.14-.21.22.03.03.09.02.15.03h.19c.04 0 .05.1.1.1.06 0 .03-.09 0-.13 0-.05.04-.1.02-.13-.03-.06-.15.02-.15-.06 0-.05.04-.06.06-.1 0-.1.07-.1.06-.18 0-.04-.04-.03-.06-.06l-.03-.1c-.05-.04-.15 0-.16-.1v-.15c0-.05-.05-.2-.1-.22-.05 0-.08.1-.15.13a.37.37 0 0 1-.15.03c-.03-.01-.06-.02-.07-.06 0-.05.05-.07.07-.1V7.2l.07-.02a5 5 0 0 1 .32-.07h.04A4.85 4.85 0 0 1 12 7zm-2.03.47c-.03.19-.2.26-.4.25-.05.05-.01.13-.04.19-.02.05-.1.1-.15.1-.04 0-.1-.06-.1-.1 0-.04.07-.04.03-.1l.03-.02.07-.04.56-.28zm4.19.19l-.04.03-.09.06c-.04.02-.09.03-.1.07 0 .03.04.03.04.06l-.03.1c.05.08.15-.03.22-.04.02 0 .04 0 .06-.03.02-.03.02-.06.03-.1.01-.04.07-.05.06-.09 0-.04-.1-.07-.15-.06zm-5.47.63c.04.03.11.12.03.15a.54.54 0 0 1-.16.03l-.03-.03.16-.15zm.19.18c.02 0 .03.06.06.07.02 0 .04-.04.06-.04.04.02.07.1.03.13-.03 0-.04-.04-.06-.03-.07.01-.1.16-.16.15-.05 0-.08-.12-.03-.15v-.06c.02-.02.06-.07.1-.07zm-.26.03h.04c-.01.06-.03.07-.07.1-.07.04-.13.1-.15.19 0 .02-.1.1-.13.09-.08-.02.05-.17.06-.19l.07-.06.06-.1a.25.25 0 0 1 .13-.03zm6.79.16c.08-.01.12.08.15.13.03.03.11.1.16.12.03.02.06.05.1.06.06.03.18.13.18.19 0 .03-.04.06-.03.1.05 0 .1-.08.1-.13l.24.4c.04.07.1.13.13.2-.05 0-.06.01-.07.06 0 .05.03.14-.06.15-.05.01-.11-.04-.18-.06h-.1c-.05-.02-.05-.1-.1-.13a.5.5 0 0 0-.15-.06h-.06c-.04 0-.1.02-.13 0a.32.32 0 0 1-.09-.1c-.01-.03.1-.05.1-.09l-.04-.09v-.06c0-.03-.05-.03-.1-.03h-.58a.62.62 0 0 0-.2.06l-.05.03a.45.45 0 0 1-.07.03c-.02.01-.06.06-.1.06h-.15c-.05 0-.12-.03-.12-.09 0-.1.16-.05.25-.06l.1-.06.02-.04c.03-.02.1-.07.1-.09V9.1c0-.02.03-.04.06-.06.04-.05.07-.1.12-.13.04-.02.08-.03.1-.06v-.06a.13.13 0 0 1 .06-.03c.05-.02.1 0 .16 0h.09l.06-.07a.25.25 0 0 1 .1-.03zm.56.6h-.13c-.04 0-.1-.03-.12 0 .04.05.1.07.19.09a.2.2 0 0 0 .06-.1zm-6.85-.57h.16c-.01.07-.17.06-.22.03 0-.02.03-.02.06-.03zm-.21.13c-.05.03-.1.07-.16.09-.04.01-.09.01-.1-.03 0-.05.07-.03.1-.03.04-.01.1-.03.16-.03zm6.5 0c-.04 0-.05.08 0 .09.02-.01.03-.05.03-.1h-.03zm-.07.15v.16c.04.06.11.01.13-.03.02-.1-.02-.14-.06-.13-.02.01-.05-.01-.07 0zm-8.28 2.35c.06.05.1.12.16.15a.5.5 0 0 0 .1.03h.05l.16.07c.07.02.13.12.19.15v.1a.3.3 0 0 0 .1.09l.12.1c.01 0 .03-.02.06 0 .07.01.1.1.16.09.03-.01.02-.06.03-.1.02-.02.05-.06.1-.06s.06.1.09.16c0 .03.05.06.06.1v.27c-.02.05-.09.05-.13.1-.02.02-.01.07-.03.09l-.06.06a.45.45 0 0 0-.03.07c-.03.06-.09.1-.06.18 0 .03.06.06.06.1 0 .04-.09.07-.1.12 0 .04.02.08.04.13 0 .03.07.07.09.09l.1.16c.06.1.09.21.15.3.03.06.1.08.12.13v.1c.04.08.2.18.29.22.03.02.09 0 .12.03.05.03.16.1.19.15.02.05.02.16.03.22v.25c0 .05.03.08.03.13v.38c0 .02.03.03.03.06l-.03.09c0 .06.05.1.06.16.01.04.04.16.03.21l-.03.1v.11a5 5 0 0 1-.11-.06 5.2 5.2 0 0 1-.73-.61l-.1-.1c-.18-.19-.35-.4-.5-.62a4.81 4.81 0 0 1-.47-.87c0-.03-.02-.05-.03-.07a5.02 5.02 0 0 1-.3-2.56zm1.94.53c.05-.02.04.05 0 .06-.04.01-.04-.04 0-.06z" fill="currentColor" color="#a02c2c"/></svg>
