<svg xmlns="http://www.w3.org/2000/svg" version="1" viewBox="0 0 24 24"><g fill="#a02c2c" color="#000"><path d="M9.83.384C8.544.298 7.284 1.053 6.535 2.07c-.731 1.316-.134 2.882-.59 4.27-.277.996 0 2.056.723 2.776.621.781 1.384 1.8.958 2.85-.615 1.18-1.838 1.873-2.951 2.502-.295.12-.675.327-.99.57-.284.08-.509.294-.509.602v2.802c0 .37.294.67.67.67h7.31a2.722 2.722 0 0 1 2.722-2.71h2.63v-1.417c-1.477-.798-3.13-1.577-3.958-3.134-.283-1.237.586-2.32 1.35-3.18.751-.955.454-2.215.192-3.286-.11-1.182.27-2.585-.61-3.554C12.525.863 11.147.467 9.833.384z" style="isolation:auto;mix-blend-mode:normal"/><path d="M17.451 14.825v3.06h-3.067v3.043l3.067.021v3.06h3.067v-3.06h3.066v-3.064h-3.066v-3.06z" style="isolation:auto;mix-blend-mode:normal"/></g></svg>