<svg xmlns="http://www.w3.org/2000/svg" width="24" height="24" id="svg7"><defs id="defs3"><style id="current-color-scheme"></style></defs><path d="M20.58 2.87a.45.45 0 0 0-.13.03l-3.17 1.05a.47.47 0 0 0-.18.78l.46.46-7.55 7.54a.74.74 0 0 0-.08.08l-.02.02-.02.02-.51.52.15-3.06 1.15-1.16a1.96 1.96 0 1 0-1.19-1.2l-1.4 1.4a.84.84 0 0 0-.24.55l-.25 5.24-.85.85a2.7 2.7 0 0 0-3.15.5 2.69 2.69 0 0 0 0 3.84 2.7 2.7 0 0 0 3.84 0 2.7 2.7 0 0 0 .5-3.15l1-1a.83.83 0 0 0 .15-.15l1.82-1.82 5.23-.25a.84.84 0 0 0 .56-.24l1.52-1.52.33.32a.47.47 0 0 0 .66 0l1.86-1.84a.47.47 0 0 0 0-.66L19.2 8.16a.46.46 0 0 0-.66 0l-1.86 1.85a.47.47 0 0 0 0 .66l.33.33-1.3 1.3-3.04.14 6.06-6.07.46.47a.47.47 0 0 0 .78-.18l1.06-3.18a.47.47 0 0 0-.33-.6.44.44 0 0 0-.13 0z" id="path2" fill="#a02c2c" stroke-width=".82"/></svg>
