<svg xmlns="http://www.w3.org/2000/svg" width="24" height="24"><defs><style id="current-color-scheme"></style></defs><path d="M16.5 5a2.5 2.5 0 0 0-2.45 2H6v1c1.86.96 3.17 2.48 3.36 3.3.2.9-.03 1.91-.65 3.01A2.5 2.5 0 0 0 7.5 14 2.5 2.5 0 0 0 5 16.5 2.5 2.5 0 0 0 7.5 19a2.5 2.5 0 0 0 2.45-2H13v2h5v-5h-5v2H9.95a2.5 2.5 0 0 0-.45-1c.85-1.34 1.21-2.62.93-3.86-.3-1.28-1.19-2.28-2.46-3.14h6.08a2.5 2.5 0 0 0 2.45 2A2.5 2.5 0 0 0 19 7.5 2.5 2.5 0 0 0 16.5 5z" fill="currentColor" color="#a02c2c"/></svg>
