<svg xmlns="http://www.w3.org/2000/svg" xmlns:xlink="http://www.w3.org/1999/xlink" viewBox="0 0 24 24"><path d="M.611 3.277v7.506L13.177 23.78v.03l10.18-5.645v-7.527l-10.18 4.78v-.06z" fill="#a02c2c" stroke="#a02c2c" stroke-width=".494" stroke-linejoin="round"/><path d="M10.537.4s-1.112.175-.85.807c.261.633-.613.943-1.811 1.418-2.312.916-3.379 1.08-5.28.306-.686-.28-1.984.334-1.984.334L13.22 15.408l10.144-4.755z" fill="none" stroke="#a02c2c" stroke-width=".494" stroke-linejoin="round"/><g transform="translate(20)" fill="#a02c2c"><path d="M-14.917 5.81c.764.775 1.78 1.082 5.126-.24 3.425-1.352 3.076-1.548 2.313-2.225-.764-.676-1.105-.997-3.927.044-3.904 1.44-4.275 1.647-3.512 2.421z" id="a"/><use xlink:href="#a" transform="translate(3.586 3.01)" height="48" width="48" id="b"/><use xlink:href="#b" transform="rotate(-2.947 57.549 -63.172)" height="48" width="48"/></g></svg>