<svg xmlns="http://www.w3.org/2000/svg" width="24" height="24"><path fill="#a02c2c" d="M3.78 1.17a1.97 1.97 0 0 0-1.272.58l-.398.394a1.99 1.99 0 0 0-.006 2.827l7.631 7.644a1.995 1.995 0 0 0 2.012.489l6.673 6.666.197.73a.504.505 89.982 0 0 .198.28l2.187 1.516a.504.505 89.982 0 0 .646-.056l.953-.95a.504.505 89.982 0 0 .053-.649l-1.485-2.184a.504.505 89.982 0 0-.283-.194l-.752-.223-6.666-6.657a1.983 1.983 0 0 0-.495-1.98L5.344 1.757a1.996 1.996 0 0 0-1.225-.58v-.003a2.043 2.043 0 0 0-.339-.006zm14.007.15v.006a.432.432 0 0 0-.091.01c-1.205.422-2.333 1.287-2.87 2.259a3.307 3.307 0 0 0-.305 2.445c-.233.589-.639 1.383-1.51 2.256l.861.96c.457.815.528 1.465.445 2.018.967-.969 2.718-2.188 3.335-2.398 1.513.26 3.06-.377 3.795-1.705.539-.973.668-2.39.377-3.62a.258.258 0 0 0-.063-.122.252.252 0 0 0-.226-.075.238.238 0 0 0-.197.125l-1.476 2.673c-.132.238-.433.344-.815.333-.385-.006-.84-.15-1.3-.398-.462-.249-.824-.558-1.041-.872-.216-.312-.289-.624-.157-.862l1.467-2.642a.264.264 0 0 0-.02-.3.255.255 0 0 0-.21-.091zM8.504 12.533L2.229 18.46c-.67.676-.579 1.83.194 2.595.773.766 1.928.845 2.599.17l6.729-7.24c-1.233.393-2.303-.173-3.247-1.448zm-4.698 6.14v.003a.982.982 0 0 1 .695.282.987.987 0 0 1 .007 1.392.98.98 0 0 1-1.389.003.987.987 0 0 1-.006-1.391.975.975 0 0 1 .693-.289z"/></svg>