<?xml version="1.0" encoding="UTF-8" standalone="no"?>
<svg
   xmlns:dc="http://purl.org/dc/elements/1.1/"
   xmlns:cc="http://creativecommons.org/ns#"
   xmlns:rdf="http://www.w3.org/1999/02/22-rdf-syntax-ns#"
   xmlns:svg="http://www.w3.org/2000/svg"
   xmlns="http://www.w3.org/2000/svg"
   xmlns:sodipodi="http://sodipodi.sourceforge.net/DTD/sodipodi-0.dtd"
   xmlns:inkscape="http://www.inkscape.org/namespaces/inkscape"
   width="24"
   height="24"
   id="svg11"
   version="1.1"
   sodipodi:docname="itmages-error.svg"
   inkscape:version="0.92.4 (5da689c313, 2019-01-14)">
  <metadata
     id="metadata8">
    <rdf:RDF>
      <cc:Work
         rdf:about="">
        <dc:format>image/svg+xml</dc:format>
        <dc:type
           rdf:resource="http://purl.org/dc/dcmitype/StillImage" />
        <dc:title></dc:title>
      </cc:Work>
    </rdf:RDF>
  </metadata>
  <sodipodi:namedview
     pagecolor="#ffffff"
     bordercolor="#666666"
     borderopacity="1"
     objecttolerance="10"
     gridtolerance="10"
     guidetolerance="10"
     inkscape:pageopacity="0"
     inkscape:pageshadow="2"
     inkscape:window-width="1366"
     inkscape:window-height="717"
     id="namedview6"
     showgrid="false"
     inkscape:zoom="21.583333"
     inkscape:cx="12"
     inkscape:cy="12"
     inkscape:window-x="0"
     inkscape:window-y="25"
     inkscape:window-maximized="1"
     inkscape:current-layer="svg11" />
  <defs
     id="defs3">
    <style
       id="current-color-scheme" />
  </defs>
  <path
     style="stroke-width:1.10368061;fill:#a02c2c"
     d="M 12.044922 1.3613281 L 8.8886719 4.4960938 L 4.4394531 4.4960938 L 4.4394531 8.9550781 L 1.3496094 12.033203 L 4.4394531 15.123047 L 4.4394531 19.484375 L 8.8007812 19.484375 L 11.945312 22.628906 L 15.091797 19.484375 L 19.548828 19.484375 L 19.548828 15.025391 L 22.640625 11.933594 L 19.548828 8.84375 L 19.548828 4.4960938 L 15.179688 4.4960938 L 12.044922 1.3613281 z M 11.933594 6.1464844 A 0.93 0.93 0 0 1 12.023438 6.1464844 A 0.93 0.93 0 0 1 12.261719 6.1796875 C 12.826719 6.3096875 13.101 6.9483751 13 7.484375 C 12.802 9.7473745 12.531328 11.999625 12.361328 14.265625 L 11.705078 14.265625 C 11.500078 11.905626 11.227328 9.5707035 10.986328 7.2207031 C 10.986328 7.1467031 10.991906 7.073 11.003906 7 C 11.059906 6.566 11.423844 6.2321563 11.839844 6.1601562 L 11.839844 6.1582031 A 0.93 0.93 0 0 1 11.933594 6.1464844 z M 11.9375 15.691406 A 0.969 0.969 0 0 1 11.978516 15.691406 C 12.375516 15.690406 12.779891 15.904484 12.962891 16.271484 C 13.287891 16.841484 12.9505 17.641687 12.3125 17.804688 C 11.6565 18.026688 10.886109 17.475344 10.912109 16.777344 A 1.069 1.069 0 0 1 11.322266 15.939453 A 0.969 0.969 0 0 1 11.9375 15.691406 z "
     id="path817" />
</svg>
