<svg xmlns="http://www.w3.org/2000/svg" width="24" height="24" id="svg7"><defs id="defs3"><style id="current-color-scheme"></style></defs><path d="M7.42 3.55v2.22H5.2C3.27 5.8 2.13 7.3 1.98 8.83a9.92 9.92 0 0 0 .01 1l.02.13.07.54.03.31.03.14.13.6c.03.07.04.16.06.24l.04.1.2.63.08.22.04.1.26.58.1.24.06.08.33.6.12.2.04.05.37.52.17.23.06.07.38.43.22.26.05.04.4.38.29.26.05.04c.49.4 1.1.65 1.66.96-.1-.4-.25-.8-.25-1.24 0-.4.14-.76.23-1.13l-.2-.15-.34-.3-.23-.2A7.89 7.89 0 0 1 4.09 9.1c0-.62.5-1.12 1.1-1.12h2.23v2.23l4.44-3.34-4.44-3.33zm5.84 2.22v2.24h5.54c.62 0 1.11.5 1.11 1.1 0 2.17-.87 4.13-2.28 5.56l-.1.1-.22.2a4.97 4.97 0 0 1-.54.44c.09.38.23.74.23 1.14 0 .44-.15.84-.25 1.24.56-.3 1.17-.55 1.66-.96l.05-.04.29-.26.4-.38.05-.04.22-.26.38-.43.06-.07.17-.23.37-.52.04-.06.12-.2c.11-.2.23-.39.33-.59l.05-.08.11-.24.26-.58c0-.03.03-.07.04-.1l.07-.22c.08-.2.15-.4.21-.62l.04-.1c.02-.1.03-.18.06-.26l.13-.59.03-.14.03-.3.07-.55.02-.14a10.04 10.04 0 0 0 .01-1c-.15-1.52-1.29-3.03-3.22-3.05h-5.54zm-1.65 6.88a3.9 3.9 0 1 0 .39 7.8 3.9 3.9 0 0 0 0-7.8 3.9 3.9 0 0 0-.4 0zm-.63.69h1.64l1.97 5.34h-1.38l-.34-.98h-2.15l-.34.98H9l1.98-5.34zm.82 1.25l-.74 2.12h1.47l-.73-2.12z" id="path822" fill="#a02c2c" stroke-width="1.11"/></svg>
