<svg xmlns="http://www.w3.org/2000/svg" width="24" height="24" id="svg7"><defs id="defs3"><style id="current-color-scheme"></style></defs><path style="font-variant-ligatures:normal;font-variant-position:normal;font-variant-caps:normal;font-variant-numeric:normal;font-variant-alternates:normal;font-feature-settings:normal;text-indent:0;text-decoration-line:none;text-decoration-style:solid;text-decoration-color:#000;text-transform:none;text-orientation:mixed;shape-padding:0;isolation:auto;mix-blend-mode:normal" d="M12 1.36C6.16 1.36 1.36 6.16 1.36 12c0 5.16 3.81 9.3 8.71 10.25V16.1A4.5 4.5 0 0 1 7.44 12c0-2.55 2-4.56 4.56-4.56 2.55 0 4.56 2 4.56 4.56 0 1.24-.49 2.34-1.27 3.16h3.5c.44 0 .66.21.77.43.11.22.11.44.11.44v2.05l1.87-1.66c.66-1.35 1.1-2.82 1.1-4.42 0-5.84-4.8-10.64-10.64-10.64zm0 7.6A3.05 3.05 0 0 0 8.96 12 3.05 3.05 0 0 0 12 15.04 3.05 3.05 0 0 0 15.04 12 3.05 3.05 0 0 0 12 8.96zm0 1.52c.85 0 1.52.67 1.52 1.52A1.5 1.5 0 0 1 12 13.52 1.5 1.5 0 0 1 10.48 12c0-.85.67-1.52 1.52-1.52zm-.2 5.35c-.73 0-.73.74-.73.74v5.91c0 .74.74.74.74.74h6.65s.74 0 .74-.74v-2.95l2.96 2.95v-5.54l-2.96 2.58v-2.95s0-.74-.74-.74h-6.65z" id="path2" color="#bebebe" font-weight="400" font-family="sans-serif" white-space="normal" overflow="visible" fill="#a02c2c" stroke-width="1.7"/></svg>
