<svg xmlns="http://www.w3.org/2000/svg" width="24" height="24"><path fill="#a02c2c" d="M4.977 2.97a2 2 0 0 0-2 2v14a2 2 0 0 0 2 2h14a2 2 0 0 0 2-2v-14a2 2 0 0 0-2-2h-14zm7.025 1.067A7.978 7.963 0 0 1 19.977 12a7.978 7.963 0 0 1-7.975 7.963A7.978 7.963 0 0 1 4.023 12a7.978 7.963 0 0 1 7.979-7.963zm0 1.996A5.978 5.967 0 0 0 6.023 12a5.978 5.967 0 0 0 5.979 5.967A5.978 5.967 0 0 0 17.977 12a5.978 5.967 0 0 0-5.975-5.967zm0 1.996A3.978 3.97 0 0 1 15.977 12a3.978 3.97 0 0 1-3.975 3.97A3.978 3.97 0 0 1 8.023 12a3.978 3.97 0 0 1 3.979-3.97z"/></svg>