<?xml version="1.0" encoding="UTF-8" standalone="no"?>
<svg
   xmlns:dc="http://purl.org/dc/elements/1.1/"
   xmlns:cc="http://creativecommons.org/ns#"
   xmlns:rdf="http://www.w3.org/1999/02/22-rdf-syntax-ns#"
   xmlns:svg="http://www.w3.org/2000/svg"
   xmlns="http://www.w3.org/2000/svg"
   xmlns:sodipodi="http://sodipodi.sourceforge.net/DTD/sodipodi-0.dtd"
   xmlns:inkscape="http://www.inkscape.org/namespaces/inkscape"
   width="24"
   height="24"
   id="svg7"
   version="1.1"
   sodipodi:docname="tools-media-optical-burn.svg"
   inkscape:version="0.92.4 (5da689c313, 2019-01-14)">
  <metadata
     id="metadata9">
    <rdf:RDF>
      <cc:Work
         rdf:about="">
        <dc:format>image/svg+xml</dc:format>
        <dc:type
           rdf:resource="http://purl.org/dc/dcmitype/StillImage" />
        <dc:title></dc:title>
      </cc:Work>
    </rdf:RDF>
  </metadata>
  <sodipodi:namedview
     pagecolor="#ffffff"
     bordercolor="#666666"
     borderopacity="1"
     objecttolerance="10"
     gridtolerance="10"
     guidetolerance="10"
     inkscape:pageopacity="0"
     inkscape:pageshadow="2"
     inkscape:window-width="1078"
     inkscape:window-height="480"
     id="namedview7"
     showgrid="false"
     inkscape:zoom="9.8333333"
     inkscape:cx="-0.81355932"
     inkscape:cy="12"
     inkscape:window-x="0"
     inkscape:window-y="28"
     inkscape:window-maximized="0"
     inkscape:current-layer="svg7" />
  <defs
     id="defs3">
    <style
       id="current-color-scheme" />
  </defs>
  <path
     d="M 11.97,1.36 A 10.68,10.68 0 0 0 1.36,12 c 0,5.83 4.8,10.63 10.63,10.63 A 10.7,10.7 0 0 0 22.64,12 C 22.64,6.16 17.83,1.35 11.97,1.35 Z m 3.71,2.16 c 0,0 3.68,1.7 4,5.75 0.22,2.9 -0.17,4.13 -0.4,4.61 A 1.09,1.09 0 0 1 19.1,14.13 7.62,7.62 0 0 0 21,8.64 c 0,0 2.03,2.86 1.33,5.7 a 9.08,9.08 0 0 1 -2.9,4.56 c 0,0 0.63,-2.35 0.63,-3.42 0,0 -1.2,0.88 -1.84,1.07 0,0 -1.7,-2.35 -1.45,-5.34 L 16.5,11.4 a 4.53,4.53 0 0 1 -2.08,4.47 c -0.03,0.87 0.09,1.87 0.45,3.03 0,0 -1.25,-0.89 -2.04,-2.42 A 4.53,4.53 0 0 1 7.4,12.01 4.56,4.56 0 0 1 12,7.45 c 0.88,0 1.7,0.25 2.4,0.68 1.08,-2.04 1.52,-2.84 1.28,-4.61 z m -3.7,5.44 a 3.04,3.04 0 0 0 -3.03,3.05 3.06,3.06 0 0 0 3.33,3.01 L 12.26,14.7 a 5.43,5.43 0 0 1 -0.05,-1.21 1.51,1.51 0 0 1 -1.75,-1.5 c 0,-0.85 0.68,-1.53 1.53,-1.53 0.4,0 0.75,0.17 1.02,0.4 l 0.65,-1.3 0.02,-0.09 a 3.01,3.01 0 0 0 -1.7,-0.5 z"
     font-weight="400"
     overflow="visible"
     style="color:#bebebe;font-weight:400;font-family:sans-serif;font-variant-ligatures:normal;font-variant-position:normal;font-variant-caps:normal;font-variant-numeric:normal;font-variant-alternates:normal;font-feature-settings:normal;text-indent:0;text-decoration:none;text-decoration-line:none;text-decoration-style:solid;text-decoration-color:#000000;text-transform:none;text-orientation:mixed;white-space:normal;shape-padding:0;overflow:visible;isolation:auto;mix-blend-mode:normal;fill:#a02c2c;stroke-width:1.70000005"
     id="path2"
     inkscape:connector-curvature="0" />
  <path
     d="m 15.68,3.52 c 0,0 3.68,1.7 4,5.75 0.22,2.9 -0.17,4.13 -0.4,4.61 A 1.09,1.09 0 0 1 19.1,14.13 7.62,7.62 0 0 0 21,8.64 c 0,0 2.03,2.86 1.33,5.7 a 9.08,9.08 0 0 1 -2.9,4.56 c 0,0 0.63,-2.35 0.63,-3.42 0,0 -1.2,0.88 -1.84,1.07 0,0 -1.7,-2.35 -1.45,-5.34 0,0 -3.6,2.04 -1.9,7.69 0,0 -4.26,-2.98 -2.04,-7.66 C 15.05,6.56 16,6 15.68,3.52 Z"
     id="path6"
     inkscape:connector-curvature="0"
     style="fill:#ffff00;stroke-width:1.70000005" />
</svg>
