<svg xmlns="http://www.w3.org/2000/svg" width="24" height="24" id="svg7"><defs id="defs3"><style id="current-color-scheme"></style></defs><path d="M9.25 3.75A8.25 8.25 0 0 0 1 12a8.25 8.25 0 0 0 8.25 8.25 8.25 8.25 0 0 0 2.75-.48 8.25 8.25 0 0 0 2.75.48A8.25 8.25 0 0 0 23 12a8.25 8.25 0 0 0-8.25-8.25 8.25 8.25 0 0 0-2.75.48 8.25 8.25 0 0 0-2.75-.48zm-.68 2.8A8.25 8.25 0 0 0 6.5 12a8.25 8.25 0 0 0 2.07 5.45A5.5 5.5 0 0 1 3.75 12a5.5 5.5 0 0 1 4.82-5.45zm6.86 0A5.5 5.5 0 0 1 20.25 12a5.5 5.5 0 0 1-4.82 5.45A8.25 8.25 0 0 0 17.5 12a8.25 8.25 0 0 0-2.07-5.45zm-3.42.7A5.5 5.5 0 0 1 14.75 12 5.5 5.5 0 0 1 12 16.76 5.5 5.5 0 0 1 9.25 12a5.5 5.5 0 0 1 2.76-4.76z" id="path5" color="#dfdfdf" fill="#a02c2c" stroke-width="1.38"/></svg>