<svg xmlns="http://www.w3.org/2000/svg" width="48" height="48" viewBox="0 0 12.7 12.7"><g fill="teal"><path d="M4.22 6.5h.95L6.8 3.37v2.45h.88l-.34.66H8.5v-4a4.83 4.83 0 0 0-2.1-.58 4.49 4.49 0 0 0-2.2.57z" fill-opacity=".47"/><path d="M6.35 1.35a5 5 0 0 0-4.98 4.98 5 5 0 0 0 4.98 5.02 5 5 0 0 0 5.02-5.02 5 5 0 0 0-5.02-4.98zm0 .74a4.3 4.3 0 0 1 4.3 4.3 4.3 4.3 0 0 1-4.3 4.3 4.3 4.3 0 0 1-4.29-4.3 4.3 4.3 0 0 1 4.3-4.3z"/><path d="M4.22 6.5v3.76c1.45 1.05 3.09.73 4.3 0V6.5h-1.2l-.85 1.64-.54 1.04V6.7h-.85l.11-.2z"/></g></svg>