<svg xmlns="http://www.w3.org/2000/svg" width="24" height="24" viewBox="0 0 6.35 6.35"><path d="M1.26.83a.43.43 0 0 0-.43.43v2.92c0 .24.2.43.43.43h1.08v.52h-1v.4h3.73v-.4H4.04V4.6h1.05a.43.43 0 0 0 .43-.43V1.26a.43.43 0 0 0-.43-.43H1.26zm.33.42h3.2a.33.33 0 0 1 .33.33v2.27a.33.33 0 0 1-.33.33h-3.2a.33.33 0 0 1-.33-.33V1.58a.33.33 0 0 1 .33-.33zm.6.4v.67h.32v-.67h-.33zm1.65 0v.67h.33v-.67h-.33zM2.18 2.98v.33h1.99v-.33H2.18zm1.99.33v.33h.33V3.3h-.33zm-1.99 0h-.33v.33h.33V3.3z" fill="#ff2a2a"/></svg>