<svg xmlns="http://www.w3.org/2000/svg" width="24" height="24" viewBox="0 0 6.35 6.35"><path d="M3.175.306a2.869 2.869 0 0 0-2.87 2.87 2.869 2.869 0 0 0 2.87 2.868 2.869 2.869 0 0 0 2.87-2.869A2.869 2.869 0 0 0 3.174.306zm-.008.427A2.467 2.467 0 0 1 5.633 3.2a2.467 2.467 0 0 1-2.466 2.467A2.467 2.467 0 0 1 .7 3.2 2.467 2.467 0 0 1 3.167.733zm.017.401c-.422 0-.766.305-.766.681.004.14.018.304.105.681.036.104.272.328.41.469a.3.3 0 0 1-.032.152c-.438.153-1.226.431-1.267.614-.031.285-.078.7-.114.984.766.414 2.57.394 3.31 0-.026-.201-.05-.782-.076-.984-.197-.236-.718-.374-1.267-.614a.243.243 0 0 1-.042-.11c.107-.132.361-.395.401-.511.097-.391.1-.535.104-.68 0-.377-.343-.682-.766-.682z" fill="#ab37c8"/></svg>