<svg xmlns="http://www.w3.org/2000/svg" width="24" height="24" viewBox="0 0 6.35 6.35"><path d="M2.05 3.26h.5l.85-1.64V2.9h.46l-.18.35h.62v-2.1a2.53 2.53 0 0 0-1.1-.3 2.35 2.35 0 0 0-1.15.3z" fill="#fd5" fill-opacity=".5"/><path d="M3.17.56A2.62 2.62 0 0 0 .56 3.17 2.62 2.62 0 0 0 3.17 5.8 2.62 2.62 0 0 0 5.8 3.17 2.62 2.62 0 0 0 3.17.56zm0 .39A2.25 2.25 0 0 1 5.42 3.2a2.25 2.25 0 0 1-2.25 2.25A2.25 2.25 0 0 1 .92 3.2 2.25 2.25 0 0 1 3.17.95z" fill="#ffd42a"/><path d="M2.05 3.26V5.23c.76.55 1.62.38 2.25 0V3.26h-.62l-.45.86-.28.54V3.37H2.5l.06-.11z" fill="#ffd42a"/></svg>