<svg xmlns="http://www.w3.org/2000/svg" width="24" height="24" id="svg7"><defs id="defs3"><style id="current-color-scheme"></style></defs><path d="M12 3c-4.2605 0-7.7143 3.4538-7.7143 7.7143 0 2.6833 1.3768 5.0465 3.4554 6.4286h-.884c-2.5714 0-2.5714 2.5714-2.5714 2.5714V21h15.4286v-1.2857s0-2.5714-2.5714-2.5714h-.884c2.0786-1.382 3.4554-3.7453 3.4554-6.4286C19.7143 6.4538 16.2605 3 12 3zm0 5.1479a2.5714 2.5714 0 0 1 2.5714 2.5714A2.5714 2.5714 0 0 1 12 13.2907a2.5714 2.5714 0 0 1-2.5714-2.5714A2.5714 2.5714 0 0 1 12 8.148z" id="path5" color="#dfdfdf" fill="#a02c2c" fill-opacity=".302" stroke-width="1.2857"/></svg>
