<svg xmlns="http://www.w3.org/2000/svg" height="24" width="24"><g fill="#a02c2c" color="#bebebe" stroke-width="1.13"><path style="marker:none" d="M18.23 3a.56.56 0 0 0-.56.57v15.86c0 .32.25.57.56.57h1.14c.31 0 .56-.25.56-.57V3.57a.56.56 0 0 0-.56-.57zm-3.4 3.4a.56.56 0 0 0-.56.57v12.46c0 .32.25.57.56.57h1.14c.31 0 .56-.25.56-.57V6.97a.56.56 0 0 0-.56-.57z" overflow="visible" fill-opacity=".3"/><path style="marker:none" d="M11.43 9.8a.56.56 0 0 0-.56.57v9.06c0 .32.25.57.56.57h1.14c.31 0 .56-.25.56-.57v-9.06a.56.56 0 0 0-.56-.57zm-3.4 3.4a.56.56 0 0 0-.56.57v5.66c0 .32.25.57.56.57h1.14c.31 0 .56-.25.56-.57v-5.66a.56.56 0 0 0-.56-.57zm-3.4 3.4a.56.56 0 0 0-.56.57v2.26c0 .32.25.57.56.57h1.14c.31 0 .56-.25.56-.57v-2.26a.56.56 0 0 0-.56-.57z" overflow="visible"/></g></svg>