<svg xmlns="http://www.w3.org/2000/svg" width="24" height="24"><defs><clipPath id="a"><ellipse cx="7.991" cy="40.183" rx="7.548" ry="7.491" fill="#ccc" stroke-width=".379" stroke-linecap="round" stroke-linejoin="round"/></clipPath><clipPath id="b"><ellipse cx="23.621" cy="24.5" rx="21.007" ry="21.05" fill="#ccc" stroke-width=".297" stroke-linecap="round" stroke-linejoin="round"/></clipPath><clipPath id="c"><ellipse cx="23.621" cy="24.5" rx="21.007" ry="21.05" fill="#ccc" stroke-width=".297" stroke-linecap="round" stroke-linejoin="round"/></clipPath><clipPath id="d"><ellipse cx="23.621" cy="24.5" rx="21.007" ry="21.05" fill="#ccc" stroke-width=".297" stroke-linecap="round" stroke-linejoin="round"/></clipPath></defs><g fill="#216778" fill-opacity=".302"><path transform="rotate(-45 9.029 5.163) scale(.38115)" clip-path="url(#a)" d="M2.123 33.967v11.91h11.91z"/><path transform="rotate(-45 9.029 5.163) scale(.38115)" clip-path="url(#b)" d="M2.123 26.695V19.12L28.88 45.877h-7.576z"/><path transform="translate(2.997 3.072) scale(.38115)" d="M-3.455 14.703l5.11 5.11h43.402l5.111-5.11H18.859z" clip-path="url(#c)"/><path transform="translate(2.997 3.072) scale(.38115)" d="M3.127 3.906l-5.523 5.522h51.644l-5.521-5.522H20.998z" clip-path="url(#d)"/></g><path d="M11.795 6.503c-1.804.101-3.193 1.493-3.092 3.3h2.2c-.036-.62.411-1.065 1.03-1.099a1.087 1.087 0 0 1 1.169 1.031v.033c.004.143-.035.358-.138.481-.249.3-.533.545-.756.721a4.202 4.202 0 0 0-.792.759c-.268.336-.513.82-.513 1.373-.008.58.518 1.1 1.1 1.1.58 0 1.106-.52 1.099-1.1 0 .003-.02.034.035-.036.053-.068.2-.183.41-.341 1.338-1.015 1.755-1.586 1.755-3.128-.101-1.806-1.7-3.195-3.506-3.094zm.163 8.8a1.1 1.1 0 0 0 .044 2.198 1.1 1.1 0 1 0 0-2.198 1.1 1.1 0 0 0-.044 0z" fill="#216778"/></svg>