<svg xmlns="http://www.w3.org/2000/svg" version="1" width="24" height="24"><defs><linearGradient id="a"><stop offset="0" stop-color="#0d0d0d"/><stop offset="1" stop-color="#0d0d0d" stop-opacity="0"/></linearGradient><linearGradient id="b"><stop offset="0"/><stop offset="1" stop-opacity="0"/></linearGradient><linearGradient id="c"><stop offset="0" stop-color="#b4b4b4"/><stop offset="1" stop-color="#969696"/></linearGradient><linearGradient x1="12.274" y1="32.416" x2="35.391" y2="14.203" id="d" gradientUnits="userSpaceOnUse"><stop offset="0" stop-color="#dedbde"/><stop offset=".5" stop-color="#e6e6e6"/><stop offset="1" stop-color="#d2d2d2"/></linearGradient><linearGradient id="e"><stop offset="0" stop-color="#aaa"/><stop offset="1" stop-color="#d4d4d4"/></linearGradient><linearGradient id="f"><stop offset="0" stop-color="#fff"/><stop offset="1" stop-color="#fff" stop-opacity="0"/></linearGradient><linearGradient id="g"><stop offset="0" stop-color="#fcd9cd"/><stop offset="1" stop-color="#fcd9cd" stop-opacity="0"/></linearGradient><linearGradient id="h"><stop offset="0" stop-color="#ebeec7"/><stop offset="1" stop-color="#ebeec7" stop-opacity="0"/></linearGradient><linearGradient id="i"><stop offset="0" stop-color="#c4ebdd"/><stop offset="1" stop-color="#c4ebdd" stop-opacity="0"/></linearGradient><linearGradient id="j"><stop offset="0" stop-color="#c1cbe4"/><stop offset="1" stop-color="#c1cbe4" stop-opacity="0"/></linearGradient><linearGradient id="k"><stop offset="0" stop-color="#e6cde2"/><stop offset="1" stop-color="#e6cde2" stop-opacity="0"/></linearGradient><linearGradient id="l"><stop offset="0" stop-color="#d7e866"/><stop offset="1" stop-color="#8cab2a"/></linearGradient><linearGradient id="m"><stop offset="0" stop-color="#fff"/><stop offset="1" stop-color="#fff" stop-opacity="0"/></linearGradient></defs><g stroke="#e6e6e6" fill="none"><path d="M21.559 11.775A9.534 9.534 0 0 0 12 2.216a9.534 9.534 0 0 0-9.559 9.559A9.534 9.534 0 0 0 12 21.333a9.534 9.534 0 0 0 9.559-9.558zm-6.062 0A3.48 3.48 0 0 1 12 15.272a3.48 3.48 0 0 1-3.497-3.497c0-1.925 1.418-3.497 3.497-3.497 2.079 0 3.497 1.61 3.497 3.497z" stroke-width="1.39881"/><path d="M12 8.278a3.498 3.498 0 0 0-3.497 3.497A3.498 3.498 0 0 0 12 15.272a3.498 3.498 0 0 0 3.497-3.497A3.498 3.498 0 0 0 12 8.278zm0 1.748a1.75 1.75 0 1 1-.001 3.498A1.75 1.75 0 0 1 12 10.026z" style="marker:none" overflow="visible" stroke-linejoin="round" stroke-width=".46627"/></g><g fill-rule="evenodd" fill="#447821" stroke="#447821"><path d="M19.856 8.793l-3.874 10.718M20.89 5.935l-.646 1.786" opacity=".8" stroke-width="2.68618147"/><path d="M14.408 19.952l2.501.904-2.204 1.627z" opacity=".8" fill-opacity=".986" stroke="none"/></g></svg>