<svg xmlns="http://www.w3.org/2000/svg" height="24" width="24"><path d="M18.53 10.17a3.23 3.23 0 0 0-3.23 3.23v1.29H13.35v7.75c0 .72.59 1.3 1.3 1.3h7.76a1.3 1.3 0 0 0 1.29-1.3l.08-7.72-1.37-.03h-.65v-1.3a3.23 3.23 0 0 0-3.23-3.22zm0 1.22a2 2 0 0 1 2 2v1.3h-4v-1.3c0-1.1.9-2 2-2zM7.97 3.45c-.85 0-1.53.7-1.53 1.6v8.1c0 .9.68 1.61 1.53 1.61s1.54-.72 1.54-1.61v-8.1c0-.9-.69-1.6-1.54-1.6zM8 16.76a1.89 1.89 0 0 0-1.9 1.89 1.89 1.89 0 0 0 1.9 1.9 1.89 1.89 0 0 0 1.9-1.9A1.89 1.89 0 0 0 8 16.77z" fill="gray"/></svg>