<svg xmlns="http://www.w3.org/2000/svg" width="24" height="24" version="1"><defs><linearGradient id="b"><stop offset="0"/><stop offset="1" stop-opacity="0"/></linearGradient><linearGradient id="a"><stop offset="0" stop-color="#edb763"/><stop offset=".5" stop-color="#de7f32"/><stop offset="1" stop-color="#d24413"/></linearGradient><linearGradient id="c"><stop offset="0" stop-color="#f6b2ee"/><stop offset=".262" stop-color="#d979cd"/><stop offset="1" stop-color="#753da6"/></linearGradient></defs><path d="M3.779 3.012a.43.43 0 0 0-.433.428v17.12a.43.43 0 0 0 .433.428H20.22a.43.43 0 0 0 .433-.428V3.44a.43.43 0 0 0-.433-.428H5.942zm.507 1.354h1.448v.725H4.286zm13.98 0h1.448v.725h-1.448zm-11.592.503h10.52v6.63H6.674zM4.286 6.54h1.448v.723H4.286zm13.98 0h1.448v.723h-1.448zM4.286 8.712h1.448v.725H4.286zm13.98 0h1.448v.725h-1.448zm-13.98 2.173h1.448v.723H4.286zm13.98 0h1.448v.723h-1.448zM6.674 12.887h10.52v6.249H6.674zm-2.388.168h1.448v.726H4.286zm13.98 0h1.448v.726h-1.448zM4.286 15.23h1.448v.724H4.286zm13.98 0h1.448v.724h-1.448zm-13.98 2.173h1.448v.724H4.286zm13.98 0h1.448v.724h-1.448zm-13.98 2.172h1.448v.725H4.286zm13.98 0h1.448v.725h-1.448z" fill="gray"/></svg>