<svg xmlns="http://www.w3.org/2000/svg" width="24" height="24" version="1"><defs><linearGradient id="a"><stop offset="0" stop-color="#fff"/><stop offset="1" stop-color="#fff" stop-opacity=".379"/></linearGradient><linearGradient id="b"><stop offset="0" stop-color="#aaa"/><stop offset="1" stop-color="#4d4d4d"/></linearGradient><linearGradient id="c"><stop offset="0"/><stop offset="1" stop-opacity="0"/></linearGradient></defs><path d="M18.622 2.834c-2.911.464-6.258.943-9.161 1.433-.768.37-.596 1.327-.63 2.02v9.285c-1.975-.453-4.144 1.023-4.23 3.12-.14 1.306 1.03 2.443 2.303 2.474 2.278.054 4.01-1.441 4.034-3.333-.025-3.178.007-6.356 0-9.534.353-.027 5.868-1.034 6.349-1.102v7.14c-1.823-.537-3.644.586-4.093 2.466-.332 1.09.169 2.377 1.25 2.824 2.11.959 5.077-.984 4.959-3.265-.033-4.237.027-8.475 0-12.712-.056-.398-.328-.845-.781-.816z" fill="gray"/></svg>