<svg xmlns="http://www.w3.org/2000/svg" width="24" height="24" version="1"><defs><linearGradient id="a"><stop offset="0"/><stop offset="1" stop-opacity="0"/></linearGradient></defs><path d="M4.366 5.024c-.76 0-1.372.61-1.372 1.37v2.284c0 .036.009.069.011.104v6.684h-.012v2.14c0 .759.61 1.37 1.37 1.37h15.272c.76 0 1.37-.611 1.37-1.37v-1.834h.002v-9.22h-9.918L9.56 5.025zm.602 2.929h14.02c.367 0 .663.295.663.663v.6H5.359c-.021 0-.04.01-.06.013a.504.504 0 0 0-.432.508c0 .028.011.052.015.079-.003.033-.015.063-.015.098v2.368c0 .387.24.699.54.699.3 0 .542-.312.542-.7V10.26h13.702v6.605a.661.661 0 0 1-.663.662H4.968a.661.661 0 0 1-.663-.662V8.616c0-.368.296-.663.663-.663z" fill="gray"/></svg>