<svg xmlns="http://www.w3.org/2000/svg" width="24" height="24" version="1"><defs><linearGradient id="a"><stop offset="0"/><stop offset="1" stop-opacity="0"/></linearGradient></defs><path d="M4.366 5.024c-.76 0-1.372.61-1.372 1.37v2.284c0 .036.009.069.011.104v6.684h-.012v2.14c0 .759.61 1.37 1.37 1.37h15.272c.76 0 1.37-.611 1.37-1.37v-1.834h.002V9.13l-.019.004H5.63v2.023c0 .388-.256.7-.574.7-.318 0-.574-.312-.574-.7V8.788c0-.034.013-.064.017-.098-.005-.027-.017-.05-.017-.079 0-.266.201-.475.459-.508.022-.002.04-.013.063-.013h15.978l.025.003v-1.54h-9.918L9.56 5.024z" fill="gray"/></svg>