<svg xmlns="http://www.w3.org/2000/svg" height="24" width="24"><path d="M12 1.136A10.818 10.864 0 0 0 1.182 12 10.818 10.864 0 0 0 12 22.864 10.818 10.864 0 0 0 22.818 12 10.818 10.864 0 0 0 12 1.136zm5.893 4.349l.895.891-6.43 6.453 1.833 1.803-.926.942-4.587-4.508.927-.943 1.852 1.82zm-6.436 6.458l-.02.02.895.892.026-.026zm-3.318-.436l4.759 4.758-2.425 2.424c-.49.816 1.977.892 3.005 1.329l-4.669.335c-1.873-.697-5.13-3.792-4.479-5.037z" fill="gray" fill-opacity=".995" paint-order="markers fill stroke"/></svg>