<svg xmlns="http://www.w3.org/2000/svg" width="24" height="24" id="svg7"><defs id="defs3"><style id="current-color-scheme"/></defs><g transform="matrix(.01806 0 0 -.01806 .44 23.68)" id="g6" fill="#e6e6e6"><path d="M579 1170c-108-19-196-90-224-182-18-61-22-387-5-419 14-25 56-25 70 0 6 12 10 97 10 206 0 198 4 217 52 262 73 69 243 69 316 0 52-48 52-52 52-422V270l-33-36c-28-31-41-37-83-41-63-5-113 19-136 67-15 30-18 65-18 243v207l29 41 30 40 25-38c19-28 26-51 26-86 0-61 14-87 45-87 32 0 45 27 45 96 0 52-4 64-47 126-26 37-55 75-64 84-32 29-64 10-119-71l-51-76 3-248 3-249 30-43C637 54 876 88 925 254c22 75 22 660-1 735-38 128-190 208-345 181z" id="path4"/></g></svg>