<svg xmlns="http://www.w3.org/2000/svg" width="24" height="24" viewBox="0 0 6.35 6.35"><path d="M2.498.948l-.215.52a1.325 1.325 0 0 0-.267.03l-.32-.46a1.804 1.804 0 0 0-.318.154l.134.542a1.337 1.337 0 0 0-.196.179L.788 1.73a1.827 1.827 0 0 0-.173.31l.425.357a1.276 1.276 0 0 0-.034.128 1.3 1.3 0 0 0-.018.131l-.53.162c.001.12.012.238.037.353l.557.037c.029.085.067.166.111.242l-.335.447c.071.095.144.186.233.266l.474-.3c.072.052.151.096.234.132l-.005.564a1.882 1.882 0 0 0 .34.07l.216-.522c.09-.002.18-.011.267-.03l.32.462c.112-.04.215-.095.318-.155l-.135-.543c.071-.053.138-.112.197-.178l.528.183a1.827 1.827 0 0 0 .17-.306l.101.212a.78.78 0 0 0-.091.126l-.324-.044a1.066 1.066 0 0 0-.062.198l.284.154a.744.744 0 0 0-.004.077c0 .026.002.051.004.077l-.284.154c.015.069.035.135.062.198l.324-.044a.778.778 0 0 0 .091.126l-.14.294c.052.046.104.089.164.124l.237-.226a.757.757 0 0 0 .149.048l.063.323a1.098 1.098 0 0 0 .202 0l.063-.323a.744.744 0 0 0 .149-.048l.236.226c.06-.035.113-.079.164-.125l-.14-.294a.794.794 0 0 0 .092-.125l.323.044a1.066 1.066 0 0 0 .063-.198l-.285-.154a.728.728 0 0 0 0-.154l.285-.154a1.066 1.066 0 0 0-.063-.197l-.323.043a.78.78 0 0 0-.092-.126l.14-.294a1.071 1.071 0 0 0-.164-.125l-.236.227a.774.774 0 0 0-.15-.048l-.062-.323a1.098 1.098 0 0 0-.101-.007c-.034 0-.068.004-.101.007l-.063.323a.773.773 0 0 0-.15.047l-.236-.226c-.06.036-.112.08-.163.125l.033.071-.417-.35a1.28 1.28 0 0 0 .034-.127c.01-.045.014-.087.018-.132l.531-.161a1.827 1.827 0 0 0-.038-.354l-.557-.037a1.337 1.337 0 0 0-.111-.242l.335-.446a1.839 1.839 0 0 0-.232-.266l-.475.299a1.326 1.326 0 0 0-.234-.132l.004-.564A1.882 1.882 0 0 0 2.67.975C2.613.963 2.555.957 2.498.948zM2.27 1.996a.793.793 0 0 1 .19.015.793.793 0 1 1-.316 1.555.793.793 0 0 1 .126-1.57zM4.653 3.8a.463.463 0 0 1 .007 0 .463.463 0 1 1 0 .925.463.463 0 0 1-.007-.925z" fill="gray"/></svg>