<svg xmlns="http://www.w3.org/2000/svg" width="48" height="48" viewBox="0 0 12.7 12.7"><g fill="#ff7f2a"><path d="M1.22.86L.14 3.66h6.04V.86H1.22zm5.17 0v2.8h6.11L11.4.86H6.4zM.19 3.89v6.31c0 .64.25 1.18.74 1.64.5.45 1.08.67 1.78.67h7.25c.7 0 1.28-.22 1.77-.67.5-.46.74-1 .74-1.64V3.9h-1.11v6.3c0 .36-.14.66-.41.91a1.4 1.4 0 0 1-.99.38H2.71a1.4 1.4 0 0 1-.99-.38 1.19 1.19 0 0 1-.41-.9V3.88H.2zm5.95.9c-1.79 0-3.43.65-4.17 1.66-.24.33-.42.76-.42 1.02a.51.51 0 0 0 .01.17A47.14 47.14 0 0 0 3 7.4c.01 0 .02-.16.02-.36 0-.29.03-.42.12-.61.57-1.17 2.76-1.76 4.43-1.2l.35.11.22-.26L7.93 5a7.3 7.3 0 0 0-1.8-.2zm.01 1.92a.32.32 0 0 0-.06.01.9.9 0 0 1-.27.03h-.15l.15.05c.08.03.19.09.23.13.06.05.11.06.18.02.07-.04.66.05 2.41.36 2.45.44 2.55.46 2.47.39-.02-.02-.38-.1-.8-.17-3.75-.66-3.99-.7-4.04-.77a.11.11 0 0 0-.12-.05zm-2.4 1.17v2.42l.3-.03c.53-.06.55-.07.55-.28v-.18l.35-.05c.43-.07.95-.32 1.12-.54.1-.12.13-.23.13-.4 0-.23-.02-.27-.22-.45-.32-.3-.73-.43-1.57-.47l-.66-.03zm3.04 0V9.8h.85v-1.7H8c.27 0 .35.02.37.08.02.04.03.42.03.85v.77h.8v-1.7l.73.03.01.83.02.84h.84v-1.7L10.61 8c-.17-.07-.45-.08-2-.1l-1.82-.02zm-4.5.03h-.77l-.01.94-.01.94h.85V8.25l.14-.03a.85.85 0 0 1 .33.02c.15.05.2.04.39-.07l.2-.12-.16-.08a3.04 3.04 0 0 0-.95-.06zm2.3.17l.12.04c.16.05.36.2.5.38.25.29.15.7-.25.94a1.1 1.1 0 0 1-.3.15c-.05 0-.06-.17-.06-.75v-.76z"/><path d="M8.12 5.07l-.2.26a2.4 2.4 0 0 1 1.22 1.04c.12.24.14.65.13.78l-.02.24 1.56.27s0-.08-.04-.31a2.66 2.66 0 0 0-.66-1.18 3.96 3.96 0 0 0-2-1.1z" opacity=".75"/></g></svg>