<svg xmlns="http://www.w3.org/2000/svg" width="48" height="48"><path style="line-height:normal;text-indent:0;text-align:start;text-decoration-line:none;text-transform:none;marker:none" d="M29.7-.08c-2.04 0-4.12.08-4.51.1H7a2.94 2.94 0 0 0-.56 0 3.1 3.1 0 0 0-2.44 3V45c0 1.57 1.43 3 3 3h34c1.57 0 3-1.43 3-3V18.82c.02-.8.21-9.93-.34-10.5L34.06.25c-.29-.28-2.3-.34-4.36-.33zM31.2 3l.13 7.5c.01.68.64 1.3 1.31 1.28l7.78-.13c.13.01.26.01.4-.01l.08 3.03.1 4.09V45H7V3.02h18.67l5.52-.01zM10.4 11.5v5h4v-5h-4zm11.33 5.64l-4.41 10.8h1.65l1.05-2.77h5.21l1.06 2.76h1.62l-4.4-10.79h-1.78zm.89 1.44l2.13 5.37h-4.26l2.13-5.37zm-12.23.92v5h4v-5h-4zm22.44.14a8.85 8.85 0 0 0-3.2.57v1.23a5.8 5.8 0 0 1 3.84-.54c.91.2 1.52 1.06 1.42 1.92-1.46.05-2.99-.16-4.37.4-1.27.46-1.75 1.88-1.45 3.04.23 1.21 1.57 1.95 2.83 1.88 1.18.05 2.4-.44 3-1.43v1.22h1.42v-4.61c.01-1.22-.34-2.63-1.6-3.25a4.9 4.9 0 0 0-1.9-.43zm.65 4.23h1.37c.14.51-.03 1.3-.3 1.84-.48 1.04-1.81 1.54-2.96 1.24-1.17-.21-1.54-1.71-.8-2.5.72-.6 1.78-.55 2.69-.58zM10.4 27.5v5h4v-5h-4zm0 8v5h4v-5h-4z" color="#000" font-weight="400" font-family="Andale Mono" overflow="visible" fill="#ff7f2a"/></svg>