<?xml version="1.0" encoding="UTF-8" standalone="no"?><svg xmlns:dc="http://purl.org/dc/elements/1.1/" xmlns:cc="http://creativecommons.org/ns#" xmlns:rdf="http://www.w3.org/1999/02/22-rdf-syntax-ns#" xmlns="http://www.w3.org/2000/svg" width="48" height="48"><metadata><rdf:RDF><cc:Work><dc:format>image/svg+xml</dc:format><dc:type rdf:resource="http://purl.org/dc/dcmitype/StillImage"/><dc:title/></cc:Work></rdf:RDF></metadata><path style="line-height:normal;text-indent:0;text-align:start;text-decoration-line:none;text-transform:none;marker:none" d="M29.7-.08c-2.04 0-4.12.08-4.51.1H7a2.94 2.94 0 0 0-.56 0 3.1 3.1 0 0 0-2.44 3V45c0 1.57 1.43 3 3 3h34c1.57 0 3-1.43 3-3V18.82c.02-.8.22-9.93-.34-10.5L34.06.25c-.29-.28-2.3-.34-4.35-.33zM31.2 3l.13 7.5c.01.68.64 1.3 1.31 1.28l7.78-.13c.13.01.26.01.4-.01l.08 3.03.1 4.09V45H7V3.02h18.67l5.53-.01zm-12.57 10.5a9.12 9.12 0 0 0-9.12 9.12 9.12 9.12 0 0 0 9.12 9.13c1.18 0 2.26-.21 3.22-.54l4.83 4.83h3.22v3.22h3.23v3.22h5.36v-5.36L27.22 25.85c.32-1.07.54-2.14.54-3.22a9.12 9.12 0 0 0-9.13-9.12zm-2.68 3.22c1.82 0 3.22 1.4 3.22 3.22a3.16 3.16 0 0 1-3.22 3.22 3.16 3.16 0 0 1-3.22-3.22c0-1.83 1.39-3.22 3.22-3.22z" fill="#ff7f2a"/></svg>