<?xml version="1.0" encoding="UTF-8" standalone="no"?><svg xmlns:dc="http://purl.org/dc/elements/1.1/" xmlns:cc="http://creativecommons.org/ns#" xmlns:rdf="http://www.w3.org/1999/02/22-rdf-syntax-ns#" xmlns="http://www.w3.org/2000/svg" width="48" height="48"><metadata><rdf:RDF><cc:Work><dc:format>image/svg+xml</dc:format><dc:type rdf:resource="http://purl.org/dc/dcmitype/StillImage"/><dc:title/></cc:Work></rdf:RDF></metadata><path style="line-height:normal;text-indent:0;text-align:start;text-decoration-line:none;text-transform:none;marker:none" d="M29.7-.08c-2.04 0-4.12.08-4.51.1H7a2.94 2.94 0 0 0-.56 0 3.1 3.1 0 0 0-2.44 3V45c0 1.57 1.43 3 3 3h34c1.57 0 3-1.43 3-3V18.82c.02-.8.22-9.93-.34-10.5L34.06.25c-.29-.28-2.3-.34-4.35-.33zM31.2 3l.13 7.5c.01.68.64 1.3 1.31 1.28l7.78-.13c.13.01.26.01.4-.01l.08 3.03.1 4.09V45H7V3.02h18.67l5.53-.01zm-2.76 19.77c-3.32 0-6.43 2.6-6.43 5.8v2.95h-1.07c-.83 0-1.5.46-1.5 1.25v8.57c0 .8.67 1.43 1.5 1.43h15c.83 0 1.5-.64 1.5-1.43v-8.57c0-.8-.67-1.25-1.5-1.25h-1.07v-2.95c0-3.2-3.1-5.8-6.43-5.8zm0 3.75a2.53 2.53 0 0 1 2.57 2.5v2.5h-5.14v-2.5c0-1.39 1.15-2.5 2.57-2.5z" color="#000" font-weight="400" font-family="Andale Mono" overflow="visible" fill="#ff7f2a"/></svg>