<svg xmlns="http://www.w3.org/2000/svg" width="48" height="48"><path style="line-height:normal;text-indent:0;text-align:start;text-decoration-line:none;text-transform:none;marker:none" d="M29.7-.08c-2.04 0-4.12.08-4.51.1H7a2.94 2.94 0 0 0-.56 0 3.1 3.1 0 0 0-2.44 3V45c0 1.57 1.43 3 3 3h34c1.57 0 3-1.43 3-3V18.82c.02-.8.21-9.93-.34-10.5L34.06.25c-.29-.28-2.3-.34-4.36-.33zM31.2 3l.13 7.5c.01.68.64 1.3 1.31 1.28l7.78-.13c.13.01.26.01.4-.01l.08 3.03.1 4.09V45H7V3.02h18.67l5.52-.01zM20.5 12.16c-6.49 0-11.8 5.3-11.8 11.78 0 6.49 5.31 11.78 11.8 11.78 2.47 0 4.77-.77 6.67-2.08l7.9 7.88a2.14 2.14 0 1 0 3.03-3.03l-7.9-7.88a11.68 11.68 0 0 0 2.09-6.67c0-6.48-5.3-11.78-11.8-11.78zm0 4.29a7.47 7.47 0 0 1 7.5 7.5 7.47 7.47 0 0 1-7.5 7.49 7.47 7.47 0 0 1-7.51-7.5 7.47 7.47 0 0 1 7.51-7.5z" color="#000" font-weight="400" font-family="Andale Mono" overflow="visible" fill="#ff7f2a"/></svg>