<svg xmlns="http://www.w3.org/2000/svg" width="48" height="48"><path style="line-height:normal;text-indent:0;text-align:start;text-decoration-line:none;text-transform:none;marker:none" d="M32.938-.012c-.999.32-1.335 1.84-.565 2.555l9.035 9.082c.835.796 2.497.115 2.541-1.041V1.502c0-.793-.717-1.514-1.506-1.514h-9.035a1.548 1.548 0 0 0-.47 0zm-26.5.026C5.062.276 3.974 1.612 4 3.012V45c0 1.57 1.43 3 3 3h34c1.57 0 3-1.43 3-3V18.818a3.038 3.038 0 0 0-.844-2.156L27.344.857a3.038 3.038 0 0 0-2.157-.843H7a2.938 2.938 0 0 0-.563 0zM7 3.02h18.672l.187.188 14.907 15 .234.234v26.555H7V3.021zm16.713 13c-6.948 0-10.922 1.945-11.455 3.922a.442.442 0 0 0-.067.225v1.062c1.308 1.365 5.677 2.625 11.522 2.625 5.845 0 10.212-1.26 11.52-2.625v-1.062a.422.422 0 0 0-.061-.211c-.517-1.982-4.493-3.936-11.46-3.936zM12.19 22.883v4.332c1.216 1.269 5.084 2.446 10.27 2.611l.162.004a36.705 36.705 0 0 0 1.09.016c.214 0 .426 0 .637-.004.152-.003.302-.008.453-.012l.16-.004c5.186-.165 9.054-1.342 10.27-2.611v-4.332c-2.244 1.54-6.984 2.355-11.52 2.355-4.537 0-9.278-.815-11.522-2.355zm0 6.04v4.333c1.312 1.369 5.712 2.633 11.522 2.633 5.81 0 10.208-1.264 11.52-2.633v-4.332c-.608.417-1.395.783-2.315 1.092-1.94.678-4.63 1.154-8.004 1.246a38.76 38.76 0 0 1-2.406 0c-3.383-.093-6.079-.573-8.02-1.254-.912-.308-1.693-.67-2.297-1.084zm0 5.993v3.78a.43.43 0 0 0 .053.206c.544 2.256 5.415 3.94 11.469 3.94 6.04 0 10.9-1.676 11.463-3.924a.455.455 0 0 0 .056-.223v-3.779c-1.905 1.342-5.83 2.397-11.52 2.397-5.689 0-9.615-1.055-11.52-2.397z" color="#000" font-weight="400" font-family="Andale Mono" overflow="visible" fill="#ff7f2a"/></svg>