<svg xmlns="http://www.w3.org/2000/svg" width="48" height="48"><path style="line-height:normal;text-indent:0;text-align:start;text-decoration-line:none;text-transform:none;marker:none" d="M29.7-.08c-2.04 0-4.12.08-4.51.1H7a2.94 2.94 0 0 0-.56 0 3.1 3.1 0 0 0-2.44 3V45c0 1.57 1.43 3 3 3h34c1.57 0 3-1.43 3-3V18.82c.02-.8.21-9.93-.34-10.5L34.06.25c-.29-.28-2.3-.34-4.36-.33zM31.2 3l.13 7.5c.01.68.64 1.3 1.31 1.28l7.78-.13c.13.01.26.01.4-.01l.08 3.03.1 4.09V45H7V3.02h18.67l5.52-.01zm-20.96 3.9v2.04h6.2V6.9h-6.2zm8 0v2.04h6.2V6.9h-6.2zm-6 4v2.04h16.1V10.9h-16.1zm-2 4v2.04h13.87V14.9H10.24zm16 0v2.04h10.28V14.9H26.24zm-16 4v2.04h6.4V18.9h-6.4zm8 0v2.04h11.83V18.9H18.24zm14 0v2.04h4.17V18.9h-4.17zm-20 4v2.04h21.72V22.9H12.24zm0 4v1.94H29.6V26.9H12.24zm20 0v1.94h3.98V26.9h-3.98zm-22.22 4v1.94h16.2V30.9h-16.2zm19.6 0v1.94h6.6V30.9h-6.6zM16.7 35.2v7.6h1.75v-7.6h-1.75zm12.47 2a11.25 11.25 0 0 0-1.84.27v1.33c.7-.37 1.5-.48 2.27-.43.53-.02 1.14.33 1.03.92-.84.01-1.7-.06-2.51.18a1.6 1.6 0 0 0-1.26 1.56c-.1.9.6 1.77 1.5 1.87.85.15 1.8-.16 2.27-.92v.81h1.76v-3.12c0-.13 0-.26-.02-.4-.02-.83-.52-1.68-1.37-1.9a5.64 5.64 0 0 0-1.83-.17zm-9.1.12v3.34c-.01.83.26 1.8 1.11 2.13.94.38 2.06.02 2.65-.79v.8h1.75v-5.48h-1.75v1.58c-.04.77.15 1.62-.31 2.3-.37.6-1.54.56-1.64-.23-.11-1.21-.02-2.43-.04-3.65h-1.76zm9.65 3.01h.73c.44.01.05.9-.16 1.09-.4.46-1.4.53-1.64-.13-.23-.65.51-1.04 1.07-.96z" color="#000" font-weight="400" font-family="Andale Mono" overflow="visible" fill="#ff7f2a"/></svg>