<svg xmlns="http://www.w3.org/2000/svg" width="48" height="48"><path style="line-height:normal;text-indent:0;text-align:start;text-decoration-line:none;text-transform:none;marker:none" d="M29.7-.08c-2.04 0-4.12.08-4.51.1H7a2.94 2.94 0 0 0-.56 0 3.1 3.1 0 0 0-2.44 3V45c0 1.57 1.43 3 3 3h34c1.57 0 3-1.43 3-3V18.82c.02-.8.21-9.93-.34-10.5L34.06.25c-.29-.28-2.3-.34-4.36-.33zM31.2 3l.13 7.5c.01.68.64 1.3 1.31 1.28l7.78-.13c.13.01.26.01.4-.01l.08 3.03.1 4.09V45H7V3.02h18.67l5.52-.01zm-7.55 12.73c-.96 0-1.95.12-3.06.44-1.48.42-3.22 1.26-3.22 2.93v1.83h9v.87h-9l2.8.02h-5.43c-1.7 0-2.34 1.38-2.93 3.13-.61 1.8-.59 3.54 0 5.86.42 1.66 1.22 2.92 2.93 2.92h2.57v-2.3c0-2 2.15-3.67 3.68-3.67h5.45c1.6 0 2.92-1.6 2.92-3.17v-5.5c0-1.55-1.38-2.47-2.92-2.92-.93-.27-1.84-.42-2.8-.44zm-6.28 6.07v-.87.87zm2.33-3.86a.97.8 0 0 1 .97.8.97.8 0 0 1-.97.8.97.8 0 0 1-.97-.8.97.8 0 0 1 .97-.8zm10.7 4.74V25c0 1.99-2.15 3.66-3.68 3.66h-5.45c-1.6 0-2.92 1.6-2.92 3.18v5.49c0 1.56 1.38 2.48 2.92 2.92.93.27 1.84.43 2.8.44.95.01 1.94-.12 3.05-.44 1.48-.42 3.22-1.26 3.22-2.92V35.5h-9v-.88h9l-2.79-.01h5.43c1.7 0 2.33-1.38 2.92-3.14.61-1.8.59-3.53 0-5.85-.42-1.67-1.22-2.93-2.92-2.93H30.4zm-.06 11.93v.88-.88zm-2.33 2.26a.97.8 0 0 1 .97.8.97.8 0 0 1-.97.8.97.8 0 0 1-.97-.8.97.8 0 0 1 .97-.8z" color="#000" font-weight="400" font-family="Andale Mono" overflow="visible" fill="#ff7f2a"/></svg>