<svg xmlns="http://www.w3.org/2000/svg" width="48" height="48"><path style="line-height:normal;text-indent:0;text-align:start;text-decoration-line:none;text-transform:none;marker:none" d="M29.7-.08c-2.04 0-4.12.08-4.51.1H7a2.94 2.94 0 0 0-.56 0 3.1 3.1 0 0 0-2.44 3V45c0 1.57 1.43 3 3 3h34c1.57 0 3-1.43 3-3V18.82c.02-.8.21-9.93-.34-10.5L34.06.25c-.29-.28-2.3-.34-4.36-.33zM31.2 3l.13 7.5c.01.68.64 1.3 1.31 1.28l7.78-.13c.13.01.26.01.4-.01l.08 3.03.1 4.09V45H7V3.02h18.67l5.52-.01zm-20.96 3.9v2.04h6.2V6.9h-6.2zm8 0v2.04h6.2V6.9h-6.2zm-6 4v2.04h16.1V10.9h-16.1zm-2 4v2.04h13.87V14.9H10.24zm16 0v2.04h10.28V14.9H26.24zm-16 4v2.04h6.4V18.9h-6.4zm8 0v2.04h11.83V18.9H18.24zm14 0v2.04h4.17V18.9h-4.17zm-20 4v2.04h21.72V22.9H12.24zm0 4v1.94H29.6V26.9H12.24zm20 0v1.94h3.98V26.9h-3.98zm-22.22 4v1.94h16.2V30.9h-16.2zm19.6 0v1.94h6.6V30.9h-6.6zm2.87 4.5v7.4h1.7v-7.4h-1.7zm-16.65.3H14v7.1h1.83v-2.46c.89-.02 1.81.1 2.66-.24 1.02-.33 1.52-1.47 1.33-2.48-.08-1.08-1.12-1.82-2.14-1.88a28.2 28.2 0 0 0-1.84-.05zm0 1.32c.41.01.84 0 1.26.02.8.02 1.13 1.08.64 1.65-.5.5-1.27.27-1.9.32v-1.99zm7.53.32a2.8 2.8 0 0 0-2.34 1.27c-.66 1.23-.49 3.05.76 3.85 1.32.77 2.97.51 4.34.02V41.3c-.33-.11-1.23.56-1.85.5-.81.17-1.87-.22-1.88-1.18h3.68c.39.12.3-.22.3-.48.04-1.01-.46-2.04-1.39-2.49a3.57 3.57 0 0 0-1.62-.3zm7.6 0c-.66.06-1.28.4-1.6 1v-.87h-1.7v5.33h1.7V42c.04-.83-.1-1.68.14-2.48.3-.86 1.4-.95 2.12-.58v-1.55a2.27 2.27 0 0 0-.66-.04zm-7.45 1.13c.6-.04 1.17.46 1.11 1.09h-1.95c-.62.01.15-1.07.58-1.04a.97.97 0 0 1 .26-.05z" color="#000" font-weight="400" font-family="Andale Mono" overflow="visible" fill="#ff7f2a"/></svg>