<svg xmlns="http://www.w3.org/2000/svg" height="24" width="24"><g color="#bebebe" fill="#5beedc" stroke-width="1.13"><path style="marker:none" d="M19.21 13.12a2.28 2.28 0 0 0-2.27 2.28v.91h-1.37v5.47c0 .5.4.91.91.91h5.47a.92.92 0 0 0 .9-.91l.07-5.45-.97-.02h-.46v-.91a2.28 2.28 0 0 0-2.28-2.28zm0 .87c.78 0 1.42.63 1.42 1.41v.91H17.8v-.91c0-.78.64-1.41 1.41-1.41zM4.63 16.6a.56.56 0 0 0-.56.57v2.26c0 .32.25.57.56.57h1.14c.31 0 .56-.25.56-.57v-2.26a.56.56 0 0 0-.56-.57H4.63z" overflow="visible"/><path style="marker:none" d="M18.23 3a.56.56 0 0 0-.56.57v9.03a2.76 2.76 0 0 1 .22-.14 2.76 2.76 0 0 1 .24-.12 2.76 2.76 0 0 1 .26-.1 2.76 2.76 0 0 1 .27-.06 2.76 2.76 0 0 1 .27-.04 2.76 2.76 0 0 1 .28-.02 2.76 2.76 0 0 1 .19 0 2.76 2.76 0 0 1 .27.04 2.76 2.76 0 0 1 .26.06V3.57a.56.56 0 0 0-.56-.57h-1.14zm-3.4 3.4a.56.56 0 0 0-.56.57v12.46c0 .3.24.51.53.54v-3.99h1.65v-1.1a2.76 2.76 0 0 1 .01-.2 2.76 2.76 0 0 1 .03-.27 2.76 2.76 0 0 1 .04-.17V6.97a.56.56 0 0 0-.56-.57h-1.14zm-3.4 3.4a.56.56 0 0 0-.56.57v9.06c0 .32.25.57.56.57h1.14c.31 0 .56-.25.56-.57v-9.06a.56.56 0 0 0-.56-.57h-1.14zm-3.4 3.4a.56.56 0 0 0-.56.57v5.66c0 .32.25.57.56.57h1.14c.31 0 .56-.25.56-.57v-5.66a.56.56 0 0 0-.56-.57H8.03z" overflow="visible" fill-opacity=".3"/></g></svg>
