<svg xmlns="http://www.w3.org/2000/svg" width="24" height="24"><path d="M12 2.02a6 6 0 0 0-6 6 6 6 0 0 0 .004.128A4 4 0 0 0 3 12.02a4 4 0 0 0 4 4h2v-1H7a3 3 0 0 1-3-3 3 3 0 0 1 3-3 3 3 0 0 1 .107.005A5 5 0 0 1 7 8.02a5 5 0 0 1 5-5 5 5 0 0 1 4.92 4.11A4 4 0 0 1 20 11.02a4 4 0 0 1-4 4h-1v1h1a5 5 0 0 0 5-5 5 5 0 0 0-3.242-4.676A6 6 0 0 0 12 2.02zM11.984 12a.982.982 0 0 0-.984.984v5.032c0 .545.439.984.984.984h.032a.982.982 0 0 0 .984-.984v-5.032a.982.982 0 0 0-.984-.984h-.032zm0 8a.982.982 0 0 0-.984.984v.032c0 .545.439.984.984.984h.032a.982.982 0 0 0 .984-.984v-.032a.982.982 0 0 0-.984-.984h-.032z" fill="#5beedc"/></svg>
