<svg xmlns="http://www.w3.org/2000/svg" width="24" height="24" viewBox="0 0 6.35 6.35">
  <path fill="gray" d="M3.1751279.06068A3.1142915 3.1142915 0 0 0 .06070868 3.17514 3.1142915 3.1142915 0 0 0 3.1751279 6.28932a3.1142915 3.1142915 0 0 0 3.1141635-3.11418A3.1142915 3.1142915 0 0 0 3.1751279.06068zm-.00896.4637a2.6774302 2.6774302 0 0 1 2.6773616 2.67738 2.6774302 2.6774302 0 0 1-2.6773616 2.67737A2.6774302 2.6774302 0 0 1 .48855012 3.20176 2.6774302 2.6774302 0 0 1 3.1661679.52438zm1.3500678 1.1781l.00051.005a.22062148.22062148 0 0 0-.032244.00051v.00027a.22062148.22062148 0 0 0-.110032.0688L3.2012209 2.948l-.7308176-.72749a.22062148.22062148 0 1 0-.3039956.30322l.883327.88335a.22062148.22062148 0 0 0 .3034841 0l1.3244797-1.32451a.22062148.22062148 0 0 0-.1614656-.37963z"/>
</svg>
