<svg xmlns="http://www.w3.org/2000/svg" width="24" height="24" version="1"><path fill="gray" d="M1.922.592C1.162.592.55 1.202.55 1.96v2.285c0 .036.01.069.011.104v6.683H.55v2.139c0 .76.61 1.371 1.369 1.371h3.62v5.389h-.013v2.138c0 .76.61 1.371 1.37 1.371h15.273c.76 0 1.37-.612 1.37-1.37v-1.833h.001v-9.22h-4.977V2.12H8.646L7.116.591H1.921zm.603 2.928h14.02c.367 0 .662.296.662.664v.6H2.916c-.021 0-.04.009-.06.01a.503.503 0 0 0-.432.509c0 .028.012.053.015.08-.004.033-.015.063-.015.097v2.37c0 .387.241.697.54.697.3 0 .542-.31.542-.697V5.826h13.701v5.192h-3.586l-1.53-1.53H6.899a1.37 1.37 0 0 0-1.373 1.371v2.235h-3a.664.664 0 0 1-.664-.664V4.182c0-.368.297-.662.664-.662zm5.012 9.035h15.977l.006 1.043H8.162v2.023c0 .387-.256.7-.574.7-.318 0-.574-.313-.574-.7v-2.367c0-.035.013-.064.017-.098-.004-.027-.017-.052-.017-.08 0-.266.202-.475.459-.508.022-.002.041-.013.064-.013z"/></svg>