<svg xmlns="http://www.w3.org/2000/svg" width="24" height="24" version="1">
  <defs>
    <linearGradient id="a">
      <stop offset="0"/>
      <stop offset="1" stop-opacity="0"/>
    </linearGradient>
  </defs>
  <path fill="gray" d="M1.921875.59179688c-.759179 0-1.37109375.60993362-1.37109375 1.36914062v2.2851563c0 .0355199.00929875.06885.01171875.1035156v6.6835936H.54882812v2.138672c0 .759184.60995458 1.371094 1.36914068 1.371094h3.6191406V19.9375h-.0136719v2.140625c0 .465065.2666798.812838.6191406 1.060547l9.5332029-9.533203H8.1601562v2.023437c0 .386865-.2544719.699219-.5722656.699219-.3178 0-.5742187-.312228-.5742187-.699219v-2.367187c0-.03403.011587-.0658.015625-.09961-.00427-.02807-.015625-.050475-.015625-.078125 0-.265934.2018833-.475186.4589843-.507812.0218611-.0021.0398311-.025391.0625-.025391H23.513672l.023437.001953v-1.537109H18.5625V2.1210938H8.6464844L7.1152344.59179688H1.921875zm.6035156 2.92773432H16.544922c.367179 0 .662109.2968905.662109.6640626v.5996093H2.9160156c-.02139 0-.0399168.0095298-.0605468.0117188-.242562.03275-.4316407.2415725-.4316407.5078125 0 .02807.011795.0532881.015625.0800781-.004.03339-.015625.0629863-.015625.0976563v2.3691406c0 .38708.2411886.6972656.5410157.6972656.299831 0 .5410156-.3101856.5410156-.6972656V5.8261719H17.207031v5.1894531h-3.585937l-1.529297-1.5273438-5.1953126.0078126c-.7591861 0-1.3710938.6099402-1.3710938 1.3691402v2.228516h-3c-.367178 0-.6640625-.296889-.6640625-.664062V4.1816406c0-.367172.2968845-.6621094.6640625-.6621094zM23.539062 13.601562l-.019531.001954h-4.652343l-9.8437505 9.841796h4.7207035l9.794921-9.794921v-.048829zm0 3.175782l-6.669921 6.669922h5.296875c.759189 0 1.36914-.61204 1.36914-1.371094v-1.832031h.003906v-3.466797z"/>
</svg>
