<svg xmlns="http://www.w3.org/2000/svg" width="24" height="24">
  <path fill="gray" d="M14.9589425 4.68308278v2.67696476c.71292267.31117515 1.36843033.75623988 1.93498017 1.32275035 1.19004215 1.19004214 1.84543167 2.77230201 1.84543167 4.45525473 0 1.68291334-.65538952 3.26521259-1.84543167 4.45525473-1.19008152 1.19004215-2.77226263 1.84543167-4.45525473 1.84543167-1.6829921 0-3.26521259-.65538952-4.45525473-1.84543167-1.19004215-1.19004214-1.84543167-2.7723414-1.84543167-4.45525473 0-1.68295272.65538952-3.26521259 1.84543167-4.45525473.56654984-.56654985 1.22209688-1.01161458 1.93498017-1.32278973V4.68308278c-3.64352943 1.08450565-6.3006864 4.45915328-6.3006864 8.45496984 0 4.87169072 3.94930961 8.82096096 8.82096096 8.82096096 4.8717301 0 8.82096096-3.94927024 8.82096096-8.82096096 0-3.99581656-2.6571176-7.3704642-6.3006864-8.45496984zM11.17853066 1.7968171h2.52027456v10.08109824h-2.52027456z"/>
</svg>
