<?xml version="1.0" encoding="UTF-8" standalone="no"?>
<!-- Generator: Adobe Illustrator 16.0.0, SVG Export Plug-In . SVG Version: 6.00 Build 0)  -->

<svg
   xmlns:dc="http://purl.org/dc/elements/1.1/"
   xmlns:cc="http://creativecommons.org/ns#"
   xmlns:rdf="http://www.w3.org/1999/02/22-rdf-syntax-ns#"
   xmlns:svg="http://www.w3.org/2000/svg"
   xmlns="http://www.w3.org/2000/svg"
   xmlns:sodipodi="http://sodipodi.sourceforge.net/DTD/sodipodi-0.dtd"
   xmlns:inkscape="http://www.inkscape.org/namespaces/inkscape"
   version="1.1"
   id="Capa_1"
   x="0px"
   y="0px"
   width="24"
   height="24"
   viewBox="0 0 24 24"
   xml:space="preserve"
   sodipodi:docname="system-shutdown-symbolic.svg"
   inkscape:version="0.92.3 (2405546, 2018-03-11)"><metadata
   id="metadata41"><rdf:RDF><cc:Work
       rdf:about=""><dc:format>image/svg+xml</dc:format><dc:type
         rdf:resource="http://purl.org/dc/dcmitype/StillImage" /><dc:title></dc:title></cc:Work></rdf:RDF></metadata><defs
   id="defs39" /><sodipodi:namedview
   pagecolor="#ffffff"
   bordercolor="#666666"
   borderopacity="1"
   objecttolerance="10"
   gridtolerance="10"
   guidetolerance="10"
   inkscape:pageopacity="0"
   inkscape:pageshadow="2"
   inkscape:window-width="1366"
   inkscape:window-height="719"
   id="namedview37"
   showgrid="false"
   inkscape:zoom="5.923391"
   inkscape:cx="-23.26723"
   inkscape:cy="10.482097"
   inkscape:window-x="0"
   inkscape:window-y="25"
   inkscape:window-maximized="1"
   inkscape:current-layer="Capa_1" />
<g
   id="g4"
   style="fill:#808080"
   transform="matrix(0.03937929,0,0,0.03937929,2.3575697,1.7968171)">
	<path
   d="m 320,73.294 v 67.979 c 18.104,7.902 34.75,19.204 49.137,33.59 30.22,30.22 46.863,70.4 46.863,113.137 0,42.736 -16.643,82.917 -46.863,113.137 C 338.916,431.357 298.738,448 256,448 213.262,448 173.083,431.357 142.863,401.137 112.643,370.917 96,330.736 96,288 96,245.263 112.643,205.083 142.863,174.863 157.25,160.476 173.897,149.174 192,141.272 V 73.294 C 99.476,100.834 32,186.53 32,288 32,411.712 132.289,512 256,512 379.713,512 480,411.712 480,288 480,186.53 412.525,100.834 320,73.294 Z M 224,0 h 64 v 256 h -64 z"
   id="path2"
   style="fill:#808080"
   inkscape:connector-curvature="0" />
</g>
<g
   id="g6"
   transform="translate(0,-488)">
</g>
<g
   id="g8"
   transform="translate(0,-488)">
</g>
<g
   id="g10"
   transform="translate(0,-488)">
</g>
<g
   id="g12"
   transform="translate(0,-488)">
</g>
<g
   id="g14"
   transform="translate(0,-488)">
</g>
<g
   id="g16"
   transform="translate(0,-488)">
</g>
<g
   id="g18"
   transform="translate(0,-488)">
</g>
<g
   id="g20"
   transform="translate(0,-488)">
</g>
<g
   id="g22"
   transform="translate(0,-488)">
</g>
<g
   id="g24"
   transform="translate(0,-488)">
</g>
<g
   id="g26"
   transform="translate(0,-488)">
</g>
<g
   id="g28"
   transform="translate(0,-488)">
</g>
<g
   id="g30"
   transform="translate(0,-488)">
</g>
<g
   id="g32"
   transform="translate(0,-488)">
</g>
<g
   id="g34"
   transform="translate(0,-488)">
</g>
</svg>