<svg xmlns="http://www.w3.org/2000/svg" width="24" height="24" viewBox="0 0 6.35 6.35">
  <path fill="gray" d="M3.175.3064A2.8689495 2.8689495 0 0 0 .3059245 3.17548 2.8689495 2.8689495 0 0 0 3.175 6.0436a2.8689495 2.8689495 0 0 0 2.8690755-2.86812A2.8689495 2.8689495 0 0 0 3.175.3064zm-.00805.42629A2.4665043 2.4665043 0 0 1 5.633392 3.1996a2.4665043 2.4665043 0 0 1-2.4664398 2.46691A2.4665043 2.4665043 0 0 1 .70003923 3.1996 2.4665043 2.4665043 0 0 1 3.1669522.73269zm.00805.26921c-.068297 0-.1368649.005-.2039202.01l-.1258531.65009a1.5559328 1.5559328 0 0 0-.3009123.0965l-.4754982-.45516c-.1207618.0714-.225465.15919-.3297733.25171l.2810407.59189a1.5699027 1.5699027 0 0 0-.1840486.25265l-.650084-.0875a2.1451508 2.1451508 0 0 0-.1258533.39743l.5720172.31038a1.4981907 1.4981907 0 0 0-.00899.15519c0 .0537.00372.10303.00899.15518l-.5720172.31038c.030113.13814.070595.27093.1258533.3979l.650084-.0871c.052775.09.1151305.17441.1840486.25171l-.2810407.59236c.1043083.0925.2090115.1803.3297733.25171l.4754982-.4561c.094995.0425.1969144.0747.3009123.0975l.1258531.65008a2.2097225 2.2097225 0 0 0 .4073672 0l.1263263-.65008c.1036877-.0226.2057546-.0548.300439-.0975l.4759714.45656c.1204514-.0714.2253025-.15965.3293002-.25217l-.2810406-.59236c.068917-.0773.1317464-.16168.1845217-.25171l.6496108.0871a2.1451508 2.1451508 0 0 0 .1263265-.3979l-.5724902-.31038c.00528-.0521.00946-.10147.00946-.15518 0-.0537-.00418-.10304-.00946-.15519l.5724902-.31038a2.1445299 2.1445299 0 0 0-.1263265-.3979l-.6496108.0875a1.5699027 1.5699027 0 0 0-.1845217-.25266l.2810406-.59141c-.1039977-.0925-.2088488-.18077-.3293002-.25218l-.4759714.45563a1.5568641 1.5568641 0 0 0-.300912-.0965l-.1263264-.65011A2.2097225 2.2097225 0 0 0 3.175 1.0019zm0 1.24198a.93136127.93136127 0 0 1 0 1.86272.93136127.93136127 0 0 1 0-1.86272z"/>
</svg>
