<?xml version="1.0" encoding="UTF-8" standalone="no"?>
<svg
   xmlns:dc="http://purl.org/dc/elements/1.1/"
   xmlns:cc="http://creativecommons.org/ns#"
   xmlns:rdf="http://www.w3.org/1999/02/22-rdf-syntax-ns#"
   xmlns:svg="http://www.w3.org/2000/svg"
   xmlns="http://www.w3.org/2000/svg"
   xmlns:sodipodi="http://sodipodi.sourceforge.net/DTD/sodipodi-0.dtd"
   xmlns:inkscape="http://www.inkscape.org/namespaces/inkscape"
   viewBox="0 0 24 24"
   version="1.1"
   id="svg4"
   sodipodi:docname="zoom-in.svg"
   inkscape:version="0.92.3 (2405546, 2018-03-11)"
   width="24"
   height="24"
   style="fill:#000000">
  <metadata
     id="metadata10">
    <rdf:RDF>
      <cc:Work
         rdf:about="">
        <dc:format>image/svg+xml</dc:format>
        <dc:type
           rdf:resource="http://purl.org/dc/dcmitype/StillImage" />
        <dc:title></dc:title>
      </cc:Work>
    </rdf:RDF>
  </metadata>
  <defs
     id="defs8" />
  <sodipodi:namedview
     pagecolor="#ffffff"
     bordercolor="#666666"
     borderopacity="1"
     objecttolerance="10"
     gridtolerance="10"
     guidetolerance="10"
     inkscape:pageopacity="0"
     inkscape:pageshadow="2"
     inkscape:window-width="1366"
     inkscape:window-height="719"
     id="namedview6"
     showgrid="false"
     inkscape:zoom="22.416667"
     inkscape:cx="2.0966549"
     inkscape:cy="11.643122"
     inkscape:window-x="0"
     inkscape:window-y="25"
     inkscape:window-maximized="1"
     inkscape:current-layer="svg4"
     showguides="true"
     inkscape:guide-bbox="true" />
  <path
     inkscape:connector-curvature="0"
     d="m 9.6821004,3.4591146 c -3.4853169,0 -6.3104624,2.8251455 -6.3104624,6.3104628 0,3.4853196 2.8251455,6.3104626 6.3104624,6.3104626 1.5679066,0 2.9994136,-0.573279 4.1013156,-1.519848 l 0.267467,0.267464 v 0.766968 l 4.854202,4.844491 1.446553,-1.446553 -4.844491,-4.854202 h -0.77182 l -0.267468,-0.267467 c 0.951425,-1.101902 1.524704,-2.533409 1.524704,-4.1013156 0,-3.4853173 -2.825143,-6.3104628 -6.3104626,-6.3104628 m 0,1.941681 c 2.4125406,0 4.3687826,1.9562435 4.3687826,4.3687818 0,2.4125406 -1.956242,4.3687826 -4.3687826,4.3687826 -2.4125379,0 -4.3687814,-1.956242 -4.3687814,-4.3687826 0,-2.4125383 1.9562435,-4.3687818 4.3687814,-4.3687818 M 9.196681,7.3424766 v 1.941681 H 7.255 V 10.255 h 1.941681 v 1.94168 h 0.970842 V 10.255 h 1.94168 V 9.2841576 h -1.94168 V 7.3424766 H 9.196681"
     id="path2"
     style="fill:#808080;stroke-width:0.48542032" />
</svg>
