<svg xmlns="http://www.w3.org/2000/svg" width="24" height="24"><path fill="gray" fill-opacity=".3" stroke-width="2.98" d="M19.93 3.98h2.86v20.1h-2.86z"/><path d="M2.98 2.86L1.45 4.3 4.8 7.84A5.55 5.68 0 0 0 4.5 9.6a5.55 5.68 0 0 0 5.56 5.67 5.55 5.68 0 0 0 1.54-.23l1.06 1.12a6.53 6.68 0 0 1-2.6.56 6.53 6.68 0 0 1-6.53-6.67 6.53 6.68 0 0 1 0-.06H1.58a8.49 8.68 0 0 0 0 .06A8.49 8.68 0 0 0 9 18.65V24h2.17v-5.36a8.49 8.68 0 0 0 2.91-.97l2.53 2.66 1.52-1.44zm7.09 1.06a5.55 5.68 0 0 0-3.3 1.11l7.65 8.1a5.55 5.68 0 0 0 1.2-3.53 5.55 5.68 0 0 0-5.55-5.68zm6.53 6.07a6.53 6.68 0 0 1 0 .06 6.53 6.68 0 0 1-1.3 4l1.36 1.44a8.49 8.68 0 0 0 1.9-5.44 8.49 8.68 0 0 0 0-.06z" fill="gray" stroke-width="5.82"/></svg>