<svg xmlns="http://www.w3.org/2000/svg" width="24" height="24" id="svg9"><defs id="defs3"><style id="current-color-scheme"/></defs><path d="M12 4.23A7.77 7.77 0 0 0 4.23 12a7.77 7.77 0 0 0 2.31 5.52l-4.6 2.24h9.8a7.77 7.77 0 0 0 .27 0A7.77 7.77 0 0 0 19.77 12 7.77 7.77 0 0 0 12 4.23zm-.03 1.15H12a6.67 6.67 0 0 1 6.67 6.68A6.67 6.67 0 0 1 12 18.75a6.67 6.67 0 0 1-4.3-1.56 6.67 6.67 0 0 1-.15-.14 6.67 6.67 0 0 1-2.24-4.98 6.67 6.67 0 0 1 6.67-6.7zM8 10.58A1.38 1.42 0 0 0 6.62 12 1.38 1.42 0 0 0 8 13.42 1.38 1.42 0 0 0 9.38 12 1.38 1.42 0 0 0 8 10.58zm4 0A1.38 1.42 0 0 0 10.62 12 1.38 1.42 0 0 0 12 13.42 1.38 1.42 0 0 0 13.38 12 1.38 1.42 0 0 0 12 10.58zm4 0A1.38 1.42 0 0 0 14.62 12 1.38 1.42 0 0 0 16 13.42 1.38 1.42 0 0 0 17.38 12 1.38 1.42 0 0 0 16 10.58z" id="path849" fill="gray" stroke-width="1.24"/></svg>