<svg xmlns="http://www.w3.org/2000/svg" width="24" height="24"><path d="M12 2.15A9.86 9.86 0 0 0 2.14 12 9.86 9.86 0 0 0 12 21.86 9.86 9.86 0 0 0 21.86 12 9.86 9.86 0 0 0 12 2.14zm.02 1.17a8.61 8.61 0 0 1 8.62 8.62 8.61 8.61 0 0 1-8.62 8.61 8.61 8.61 0 0 1-8.62-8.61 8.61 8.61 0 0 1 8.62-8.62zm.21 2.16A6.55 6.55 0 0 0 7.4 7.4a6.55 6.55 0 0 0 0 9.26 6.55 6.55 0 0 0 9.26 0 6.55 6.55 0 0 0 .65-8.5l-.88.9a5.3 5.3 0 0 1-.64 6.73 5.3 5.3 0 0 1-7.51 0 5.3 5.3 0 0 1 0-7.52A5.3 5.3 0 0 1 15 7.63l.89-.89a6.55 6.55 0 0 0-3.66-1.26z" fill="gray"/></svg>