<svg xmlns="http://www.w3.org/2000/svg" width="24" height="24"><g fill="gray"><path d="M16.552 2.491a1.462 1.462 0 0 0-.78 2.735 7.304 7.304 0 0 1 3.486 7.767 7.3 7.3 0 0 1-6.224 5.805 7.296 7.296 0 0 1-7.497-4.026 7.3 7.3 0 0 1 1.387-8.396 1.463 1.463 0 1 0-2.069-2.069 10.246 10.246 0 0 0-1.944 11.756 10.243 10.243 0 0 0 10.498 5.63 10.243 10.243 0 0 0 8.712-8.123A10.244 10.244 0 0 0 17.243 2.7a1.462 1.462 0 0 0-.693-.207z" font-family="sans-serif" font-weight="400" overflow="visible" style="font-variant-ligatures:normal;font-variant-position:normal;font-variant-caps:normal;font-variant-numeric:normal;font-variant-alternates:normal;font-feature-settings:normal;text-indent:0;text-decoration-line:none;text-decoration-style:solid;text-decoration-color:#000;text-transform:none;text-orientation:mixed;shape-padding:0;isolation:auto;mix-blend-mode:normal" white-space="normal"/><path d="M8.206 1.807c.807 0 1.462.695 1.462 1.454v5.857l-7.311-7.31z"/></g></svg>