<svg xmlns="http://www.w3.org/2000/svg" width="24" height="24"><g fill="gray"><path d="M11.403 2.754a10.404 10.404 0 0 0-1.173.084 10.404 10.404 0 0 0-8.848 8.25 10.405 10.405 0 0 0 4.954 11.04 1.485 1.485 0 0 0 .704.212l-.001.001a1.485 1.485 0 0 0 .791-2.777 7.418 7.418 0 0 1-3.54-7.89 7.415 7.415 0 0 1 6.322-5.895 7.411 7.411 0 0 1 .791-.06" font-family="sans-serif" font-weight="400" overflow="visible" style="font-variant-ligatures:normal;font-variant-position:normal;font-variant-caps:normal;font-variant-numeric:normal;font-variant-alternates:normal;font-feature-settings:normal;text-indent:0;text-decoration-line:none;text-decoration-style:solid;text-decoration-color:#000;text-transform:none;text-orientation:mixed;shape-padding:0;isolation:auto;mix-blend-mode:normal" white-space="normal"/><path d="M10.035 1.553c.82 0 1.485.706 1.485 1.477v5.95L4.094 1.552z"/><path d="M12.493 21.142a10.404 10.404 0 0 0 1.173-.084 10.404 10.404 0 0 0 8.848-8.25 10.405 10.405 0 0 0-4.954-11.04 1.485 1.485 0 0 0-.704-.212l.001-.001a1.485 1.485 0 0 0-.791 2.777 7.418 7.418 0 0 1 3.54 7.89 7.415 7.415 0 0 1-6.322 5.895 7.411 7.411 0 0 1-.791.06" font-family="sans-serif" font-weight="400" overflow="visible" style="font-variant-ligatures:normal;font-variant-position:normal;font-variant-caps:normal;font-variant-numeric:normal;font-variant-alternates:normal;font-feature-settings:normal;text-indent:0;text-decoration-line:none;text-decoration-style:solid;text-decoration-color:#000;text-transform:none;text-orientation:mixed;shape-padding:0;isolation:auto;mix-blend-mode:normal" white-space="normal"/><path d="M13.861 22.343c-.82 0-1.485-.706-1.485-1.477v-5.95l7.426 7.427z"/></g></svg>