<svg xmlns="http://www.w3.org/2000/svg" width="24" height="24"><path d="M12 .09C5.352.09 0 5.382 0 11.955S5.352 23.82 12 23.82s12-5.292 12-11.865S18.648.09 12 .09zm0 2.967c4.986 0 9 3.968 9 8.898s-4.014 8.899-9 8.899-9-3.97-9-8.899c0-4.93 4.014-8.898 9-8.898zm0 1.798c-.79 0-1.432.642-1.432 1.432v7.156a1.43 1.43 0 0 0 2.864 0V6.287c0-.79-.642-1.432-1.432-1.432zm0 11.426a1.431 1.431 0 0 0-1.432 1.432A1.431 1.431 0 0 0 12 19.145a1.431 1.431 0 0 0 1.432-1.432A1.431 1.431 0 0 0 12 16.28z" fill="gray" fill-opacity=".996"/></svg>