<svg xmlns="http://www.w3.org/2000/svg" width="24" height="24"><path d="M12 .09C5.352.09 0 5.382 0 11.955S5.352 23.82 12 23.82c.514 0 .95-.225 1.447-.287l1.977-3.36a9.081 9.081 0 0 1-3.424.68c-4.986 0-9-3.968-9-8.898s4.014-8.898 9-8.898a8.953 8.953 0 0 1 8.326 5.578l2.156-2.156C20.472 2.724 16.612.089 12 .089zm10.486 9.824l-7.941 7.397h4.537l-3.402 6.34 7.941-8.454h-3.404l2.27-5.283zm-17.215.371c-.16.53-.271 1.08-.271 1.67 0 .657.206 1.248.377 1.85h9.781l3.52-3.52H5.27zm.981 5.414c.94 1.468 2.485 2.358 4.232 2.78l2.778-2.78h-7.01z" fill="gray" fill-opacity=".996"/></svg>