<?xml version="1.0" encoding="UTF-8" standalone="no"?>
<svg
   xmlns:dc="http://purl.org/dc/elements/1.1/"
   xmlns:cc="http://creativecommons.org/ns#"
   xmlns:rdf="http://www.w3.org/1999/02/22-rdf-syntax-ns#"
   xmlns:svg="http://www.w3.org/2000/svg"
   xmlns="http://www.w3.org/2000/svg"
   xmlns:sodipodi="http://sodipodi.sourceforge.net/DTD/sodipodi-0.dtd"
   xmlns:inkscape="http://www.inkscape.org/namespaces/inkscape"
   width="48"
   height="48"
   viewBox="0 0 12.7 12.7"
   version="1.1"
   id="svg4"
   sodipodi:docname="AppImage.svg"
   inkscape:version="0.92.4 (5da689c313, 2019-01-14)">
  <metadata
     id="metadata10">
    <rdf:RDF>
      <cc:Work
         rdf:about="">
        <dc:format>image/svg+xml</dc:format>
        <dc:type
           rdf:resource="http://purl.org/dc/dcmitype/StillImage" />
        <dc:title></dc:title>
      </cc:Work>
    </rdf:RDF>
  </metadata>
  <defs
     id="defs8" />
  <sodipodi:namedview
     pagecolor="#ffffff"
     bordercolor="#666666"
     borderopacity="1"
     objecttolerance="10"
     gridtolerance="10"
     guidetolerance="10"
     inkscape:pageopacity="0"
     inkscape:pageshadow="2"
     inkscape:window-width="862"
     inkscape:window-height="480"
     id="namedview6"
     showgrid="false"
     inkscape:zoom="4.9166667"
     inkscape:cx="2.1355932"
     inkscape:cy="24"
     inkscape:window-x="0"
     inkscape:window-y="25"
     inkscape:window-maximized="0"
     inkscape:current-layer="svg4" />
  <path
     d="m 6.34,0.07 a 6.29,6.29 0 1 0 0,12.58 6.29,6.29 0 0 0 0,-12.58 z M 6.32,1 A 5.417,5.417 0 0 1 11.73,6.41 5.4,5.4 0 0 1 6.33,11.82 5.4,5.4 0 0 1 0.92,6.42 5.4,5.4 0 0 1 6.32,1 Z M 5.467,1.645 V 3.411 H 4.529 L 6.35,5.471 8.171,3.411 H 7.233 V 1.645 Z m 0.561,4.121 c -0.05,0 -0.083,0.087 -0.083,0.193 V 6.631 C 5.74,6.677 5.547,6.761 5.375,6.87 L 4.897,6.391 C 4.822,6.316 4.74,6.282 4.704,6.318 L 4.253,6.768 C 4.217,6.805 4.251,6.887 4.326,6.962 L 4.805,7.44 A 1.833,1.833 0 0 0 4.565,8.01 H 3.894 c -0.107,0 -0.193,0.032 -0.193,0.083 v 0.644 c 0,0.05 0.086,0.083 0.193,0.083 h 0.672 c 0.046,0.205 0.13,0.398 0.239,0.57 L 4.326,9.869 C 4.251,9.944 4.217,10.026 4.253,10.062 l 0.45,0.45 c 0.037,0.037 0.119,0.002 0.194,-0.073 L 5.375,9.961 c 0.172,0.109 0.365,0.192 0.57,0.239 v 0.671 c 0,0.107 0.032,0.193 0.083,0.193 h 0.644 c 0.05,0 0.083,-0.086 0.083,-0.193 V 10.2 C 6.96,10.153 7.153,10.07 7.325,9.96 l 0.478,0.479 c 0.075,0.075 0.157,0.11 0.193,0.074 L 8.447,10.062 C 8.483,10.026 8.449,9.944 8.374,9.869 L 7.895,9.39 C 8.005,9.218 8.088,9.025 8.135,8.82 h 0.671 c 0.107,0 0.193,-0.032 0.193,-0.083 V 8.093 C 8.999,8.043 8.913,8.01 8.806,8.01 H 8.134 A 1.833,1.833 0 0 0 7.895,7.44 L 8.374,6.962 C 8.449,6.887 8.483,6.805 8.447,6.769 L 7.997,6.318 C 7.96,6.282 7.878,6.316 7.803,6.391 L 7.325,6.87 A 1.836,1.836 0 0 0 6.755,6.63 V 5.96 C 6.755,5.853 6.723,5.766 6.672,5.766 Z m 0.322,1.83 c 0.45,0 0.819,0.369 0.819,0.819 0,0.45 -0.37,0.82 -0.819,0.82 A 0.822,0.822 0 0 1 5.531,8.415 c 0,-0.45 0.37,-0.819 0.819,-0.819 z"
     id="path2"
     inkscape:connector-curvature="0"
     style="fill:#963996" />
</svg>
