<?xml version="1.0" encoding="UTF-8" standalone="no"?>
<svg
   xmlns:dc="http://purl.org/dc/elements/1.1/"
   xmlns:cc="http://creativecommons.org/ns#"
   xmlns:rdf="http://www.w3.org/1999/02/22-rdf-syntax-ns#"
   xmlns:svg="http://www.w3.org/2000/svg"
   xmlns="http://www.w3.org/2000/svg"
   xmlns:sodipodi="http://sodipodi.sourceforge.net/DTD/sodipodi-0.dtd"
   xmlns:inkscape="http://www.inkscape.org/namespaces/inkscape"
   width="48"
   height="48"
   viewBox="0 0 12.7 12.7"
   version="1.1"
   id="svg4"
   sodipodi:docname="hwbrowser.svg"
   inkscape:version="0.92.4 (5da689c313, 2019-01-14)">
  <metadata
     id="metadata10">
    <rdf:RDF>
      <cc:Work
         rdf:about="">
        <dc:format>image/svg+xml</dc:format>
        <dc:type
           rdf:resource="http://purl.org/dc/dcmitype/StillImage" />
        <dc:title></dc:title>
      </cc:Work>
    </rdf:RDF>
  </metadata>
  <defs
     id="defs8" />
  <sodipodi:namedview
     pagecolor="#ffffff"
     bordercolor="#666666"
     borderopacity="1"
     objecttolerance="10"
     gridtolerance="10"
     guidetolerance="10"
     inkscape:pageopacity="0"
     inkscape:pageshadow="2"
     inkscape:window-width="1087"
     inkscape:window-height="480"
     id="namedview6"
     showgrid="false"
     inkscape:zoom="4.9166667"
     inkscape:cx="2.1355932"
     inkscape:cy="24"
     inkscape:window-x="0"
     inkscape:window-y="25"
     inkscape:window-maximized="0"
     inkscape:current-layer="svg4" />
  <path
     d="m 6.344,0.073 a 6.29,6.29 0 0 0 -6.29,6.29 6.29,6.29 0 0 0 6.29,6.288 6.29,6.29 0 0 0 6.29,-6.289 6.29,6.29 0 0 0 -6.29,-6.29 z M 6.326,1.009 A 5.407,5.407 0 0 1 11.733,6.416 5.407,5.407 0 0 1 6.326,11.823 5.407,5.407 0 0 1 0.92,6.416 5.407,5.407 0 0 1 6.326,1.01 Z M 4.272,2.79 H 2.834 V 7.043 L 5.253,8.107 5.297,8.053 a 0.551,0.551 0 0 1 0.43,-0.205 c 0.308,0 0.558,0.252 0.558,0.564 0,0.311 -0.25,0.565 -0.557,0.565 A 0.562,0.562 0 0 1 5.177,8.492 L 5.169,8.441 2.834,7.413 v 2.5 H 9.866 V 2.789 h -1.1 V 4.943 L 8.807,4.971 C 8.958,5.07 9.048,5.237 9.048,5.418 A 0.53,0.53 0 0 1 8.521,5.951 0.53,0.53 0 0 1 7.995,5.418 c 0,-0.23 0.145,-0.433 0.361,-0.506 L 8.419,4.892 V 2.788 H 4.609 V 5.15 H 5.746 L 5.769,5.09 A 0.548,0.548 0 0 1 6.277,4.734 c 0.3,0 0.544,0.248 0.544,0.551 A 0.541,0.541 0 1 1 5.796,5.541 L 5.77,5.492 H 4.272 V 2.788 Z M 6.27,5.036 A 0.276,0.28 0 0 0 5.994,5.316 0.276,0.28 0 0 0 6.27,5.595 0.276,0.28 0 0 0 6.546,5.315 0.276,0.28 0 0 0 6.27,5.036 Z m 2.251,0.107 a 0.276,0.28 0 0 0 -0.275,0.28 0.276,0.28 0 0 0 0.275,0.28 0.276,0.28 0 0 0 0.276,-0.28 0.276,0.28 0 0 0 -0.276,-0.28 z m -0.4,1.515 A 1.478,1.49 0 0 1 9.599,8.148 1.478,1.49 0 0 1 8.12,9.637 1.478,1.49 0 0 1 6.642,8.147 1.478,1.49 0 0 1 8.12,6.657 Z m 0.207,0.5 C 8.141,7.148 8.043,7.407 8.221,7.478 8.365,7.528 8.522,7.401 8.487,7.275 8.476,7.209 8.407,7.155 8.327,7.157 Z M 8.248,7.724 A 0.18,0.18 0 0 0 8.144,7.756 C 7.96,7.824 7.808,7.936 7.648,8.036 7.668,8.082 7.69,8.12 7.738,8.068 7.798,8.038 7.998,7.905 7.978,8.035 7.914,8.276 7.836,8.515 7.777,8.757 7.714,8.889 7.855,9.009 8.003,8.922 8.16,8.867 8.296,8.777 8.433,8.695 8.415,8.655 8.403,8.598 8.35,8.65 8.282,8.676 8.133,8.801 8.105,8.698 8.162,8.438 8.268,8.186 8.336,7.927 8.383,7.837 8.338,7.73 8.248,7.724 Z M 5.714,8.134 A 0.278,0.278 0 0 0 5.438,8.413 c 0,0.154 0.124,0.28 0.276,0.28 A 0.278,0.278 0 0 0 5.99,8.413 0.278,0.278 0 0 0 5.714,8.133 Z"
     id="path2"
     inkscape:connector-curvature="0"
     style="fill:#963996" />
</svg>
