<?xml version="1.0" encoding="UTF-8" standalone="no"?>
<svg
   xmlns:dc="http://purl.org/dc/elements/1.1/"
   xmlns:cc="http://creativecommons.org/ns#"
   xmlns:rdf="http://www.w3.org/1999/02/22-rdf-syntax-ns#"
   xmlns:svg="http://www.w3.org/2000/svg"
   xmlns="http://www.w3.org/2000/svg"
   xmlns:sodipodi="http://sodipodi.sourceforge.net/DTD/sodipodi-0.dtd"
   xmlns:inkscape="http://www.inkscape.org/namespaces/inkscape"
   width="48"
   height="48"
   version="1"
   id="svg4"
   sodipodi:docname="kwalletmanager.svg"
   inkscape:version="0.92.4 (5da689c313, 2019-01-14)">
  <metadata
     id="metadata10">
    <rdf:RDF>
      <cc:Work
         rdf:about="">
        <dc:format>image/svg+xml</dc:format>
        <dc:type
           rdf:resource="http://purl.org/dc/dcmitype/StillImage" />
        <dc:title></dc:title>
      </cc:Work>
    </rdf:RDF>
  </metadata>
  <defs
     id="defs8" />
  <sodipodi:namedview
     pagecolor="#ffffff"
     bordercolor="#666666"
     borderopacity="1"
     objecttolerance="10"
     gridtolerance="10"
     guidetolerance="10"
     inkscape:pageopacity="0"
     inkscape:pageshadow="2"
     inkscape:window-width="1087"
     inkscape:window-height="480"
     id="namedview6"
     showgrid="false"
     inkscape:zoom="4.9166667"
     inkscape:cx="2.1355932"
     inkscape:cy="24"
     inkscape:window-x="0"
     inkscape:window-y="25"
     inkscape:window-maximized="0"
     inkscape:current-layer="svg4" />
  <path
     d="M 24,0.23 A 23.77,23.77 0 0 0 0.23,24.01 23.77,23.77 0 0 0 24,47.77 23.77,23.77 0 0 0 47.77,24 23.77,23.77 0 0 0 24,0.23 Z M 23.93,3.77 A 20.44,20.44 0 0 1 44.37,24.21 20.44,20.44 0 0 1 23.93,44.64 20.44,20.44 0 0 1 3.5,24.21 20.44,20.44 0 0 1 23.93,3.77 Z M 19.25,6.08 A 1.5,1.5 0 0 0 17.98,6.71 L 5.7,23.74 a 1.5,1.5 0 0 0 0.34,2.09 l 21.9,15.8 c 0.67,0.49 1.6,0.34 2.09,-0.34 L 42.3,24.26 A 1.5,1.5 0 0 0 41.96,22.17 L 20.06,6.37 A 1.5,1.5 0 0 0 19.24,6.08 Z m 0.87,1.64 h 0.07 l -0.07,0.56 0.01,0.19 H 20.1 l -0.22,0.01 -0.2,0.06 -0.2,0.1 -0.18,0.13 -0.17,0.19 -0.42,0.58 -0.6,-0.43 0.44,-0.63 0.01,-0.01 0.2,-0.23 0.03,-0.03 0.03,-0.02 0.24,-0.18 0.03,-0.02 0.03,-0.02 0.26,-0.12 0.03,-0.02 h 0.04 l 0.28,-0.08 0.03,-0.01 h 0.03 l 0.3,-0.02 z M 21.04,8 21.13,8.05 21.14,8.06 22.9,9.33 22.46,9.93 20.74,8.7 20.66,8.65 Z m -3.38,1.71 0.61,0.44 -1.32,1.83 -0.6,-0.44 z m 5.85,0.06 1.82,1.32 -0.44,0.6 -1.82,-1.31 z m 2.43,1.76 1.57,1.13 -0.44,0.6 -1.57,-1.13 z m -10.03,0.62 0.6,0.44 -1.31,1.82 -0.61,-0.44 z m 11.99,0.04 0.29,0.2 -0.33,0.47 -0.29,-0.21 z m -0.58,0.8 0.29,0.22 -0.51,0.7 -0.29,-0.21 0.5,-0.7 z m -0.76,1.06 0.29,0.21 -0.51,0.7 -0.3,-0.2 0.52,-0.7 z m -12.41,0.53 0.6,0.44 -1.09,1.52 -0.6,-0.44 z m 11.65,0.52 0.29,0.21 -0.51,0.7 -0.29,-0.2 0.5,-0.7 z m 2.96,0.71 a 1.5,1.5 0 0 1 0.95,0.28 1.5,1.5 0 0 1 0.33,2.1 1.5,1.5 0 0 1 -2.09,0.34 1.5,1.5 0 0 1 -0.34,-2.1 1.5,1.5 0 0 1 1.15,-0.62 z m -3.72,0.35 0.29,0.2 -0.51,0.7 -0.03,0.06 -0.31,-0.17 0.04,-0.07 0.15,0.08 -0.14,-0.1 0.5,-0.7 z m 8.47,0.46 0.3,0.2 -0.19,0.25 1.44,1.04 -0.44,0.6 -1.43,-1.03 0.1,-0.15 -0.28,-0.21 z m -20.9,0.09 0.61,0.44 -1.22,1.69 -0.6,-0.44 1.22,-1.7 z m 11.66,0.66 0.34,0.09 h 0.01 v 0.02 l -0.04,0.22 v 0.2 l 0.04,0.23 -0.14,0.05 -0.23,0.14 V 18.29 L 24.24,18.27 24.19,18.03 V 17.7 l 0.06,-0.25 v -0.04 z m 8.48,0.3 0.3,0.2 -0.51,0.71 -0.3,-0.2 z m -7.99,0.73 0.04,0.06 0.16,0.15 0.3,0.22 -0.25,0.35 -0.31,-0.23 H 24.69 L 24.51,18.78 H 24.5 l -0.01,-0.02 -0.06,-0.08 z m 10.9,0.15 1.83,1.32 -0.44,0.6 -1.82,-1.31 0.44,-0.61 z m -3.67,0.17 0.3,0.21 -0.51,0.7 -0.3,-0.2 0.51,-0.7 z M 10.96,19 l 0.6,0.44 -1.31,1.83 -0.61,-0.44 z m 14.6,0.04 0.57,0.42 -0.25,0.35 -0.58,-0.42 0.25,-0.35 z m 0.86,0.62 0.58,0.42 -0.25,0.35 -0.58,-0.41 z m 4.81,0.12 0.3,0.2 -0.51,0.7 -0.3,-0.2 z m -3.94,0.51 0.58,0.42 -0.25,0.35 -0.58,-0.42 z m 10.81,0.01 1.83,1.32 -0.44,0.6 -1.83,-1.3 z m -7.63,0.53 0.3,0.2 -0.16,0.23 H 30.6 l -0.19,0.22 -0.01,0.01 -0.02,0.02 -0.2,0.17 -0.02,0.01 -0.02,0.01 -0.04,0.03 -0.13,-0.36 h 0.02 l 0.17,-0.15 0.16,-0.18 z m -2.31,0.09 0.58,0.42 -0.26,0.35 -0.57,-0.42 z M 9.2,21.44 9.8,21.88 8.5,23.7 7.88,23.26 Z m 19.8,0.05 0.2,0.06 0.2,0.01 0.2,-0.03 h 0.03 l 0.06,0.38 -0.05,0.02 H 29.6 l -0.24,0.04 h -0.04 l -0.24,-0.01 h -0.03 l -0.21,-0.07 z m 11.53,0.57 0.1,0.07 0.02,0.01 0.23,0.2 0.02,0.03 0.03,0.03 0.17,0.24 0.03,0.03 0.01,0.03 0.13,0.26 0.01,0.03 0.01,0.04 0.08,0.28 v 0.07 l 0.02,0.28 v 0.08 l -0.03,0.28 v 0.04 l -0.02,0.03 -0.1,0.29 v 0.03 l -0.03,0.03 -0.04,0.09 -0.65,-0.38 0.03,-0.05 0.07,-0.21 0.02,-0.22 v -0.2 l -0.06,-0.21 -0.1,-0.2 -0.13,-0.18 -0.19,-0.17 -0.06,-0.04 z M 7.44,23.9 8.07,24.27 7.3,25.34 7.24,25.12 V 25.09 L 7.23,25.05 7.21,24.77 v -0.08 l 0.04,-0.28 v -0.04 l 0.02,-0.04 0.1,-0.28 V 24.02 L 7.4,24 7.45,23.91 Z m 32.68,0.83 0.6,0.44 -1.31,1.83 -0.61,-0.44 1.32,-1.82 z m -1.76,2.43 0.6,0.44 -1.3,1.82 -0.62,-0.43 z m -1.75,2.43 0.6,0.44 -1.21,1.7 -0.6,-0.44 1.22,-1.69 z m -1.66,2.3 0.6,0.44 -1.1,1.52 -0.6,-0.44 z m -1.54,2.13 0.61,0.44 -1.32,1.82 -0.6,-0.44 z m -1.76,2.43 0.61,0.44 -1.31,1.82 -0.61,-0.43 z m -1.75,2.45 0.6,0.44 -0.44,0.63 -0.02,0.01 -0.2,0.23 -0.02,0.03 -0.03,0.02 -0.24,0.18 -0.03,0.02 -0.03,0.01 -0.26,0.13 -0.03,0.02 h -0.04 l -0.28,0.08 h -0.03 l -0.04,0.01 -0.23,0.01 z"
     id="path2"
     inkscape:connector-curvature="0"
     style="fill:#963996" />
</svg>
