<?xml version="1.0" encoding="UTF-8" standalone="no"?>
<!-- Created with Inkscape (http://www.inkscape.org/) -->

<svg
   xmlns:dc="http://purl.org/dc/elements/1.1/"
   xmlns:cc="http://creativecommons.org/ns#"
   xmlns:rdf="http://www.w3.org/1999/02/22-rdf-syntax-ns#"
   xmlns:svg="http://www.w3.org/2000/svg"
   xmlns="http://www.w3.org/2000/svg"
   xmlns:sodipodi="http://sodipodi.sourceforge.net/DTD/sodipodi-0.dtd"
   xmlns:inkscape="http://www.inkscape.org/namespaces/inkscape"
   width="48"
   height="48"
   viewBox="0 0 12.7 12.7"
   version="1.1"
   id="svg829"
   inkscape:version="0.92.3 (2405546, 2018-03-11)"
   sodipodi:docname="accessories-text-editor.svg">
  <defs
     id="defs823" />
  <sodipodi:namedview
     id="base"
     pagecolor="#ffffff"
     bordercolor="#666666"
     borderopacity="1.0"
     inkscape:pageopacity="0.0"
     inkscape:pageshadow="2"
     inkscape:zoom="10.25"
     inkscape:cx="-14.97561"
     inkscape:cy="22.829268"
     inkscape:document-units="mm"
     inkscape:current-layer="layer1"
     showgrid="false"
     showguides="true"
     inkscape:guide-bbox="true"
     inkscape:window-width="1366"
     inkscape:window-height="719"
     inkscape:window-x="0"
     inkscape:window-y="25"
     inkscape:window-maximized="1"
     scale-x="1.9"
     units="px"
     inkscape:snap-global="true" />
  <metadata
     id="metadata826">
    <rdf:RDF>
      <cc:Work
         rdf:about="">
        <dc:format>image/svg+xml</dc:format>
        <dc:type
           rdf:resource="http://purl.org/dc/dcmitype/StillImage" />
        <dc:title></dc:title>
      </cc:Work>
    </rdf:RDF>
  </metadata>
  <g
     inkscape:label="Capa 1"
     inkscape:groupmode="layer"
     id="layer1"
     transform="translate(0,-284.3)">
    <path
       inkscape:connector-curvature="0"
       style="fill:#e6e6e6;fill-opacity:1;stroke-width:0.1384593"
       d="m 6.3437318,284.37701 a 6.2670426,6.2670426 0 0 0 -6.26731783,6.26732 6.2670426,6.2670426 0 0 0 6.26731783,6.26628 6.2670426,6.2670426 0 0 0 6.2673172,-6.26628 6.2670426,6.2670426 0 0 0 -6.2673172,-6.26732 z m -0.01756,0.93224 a 5.3879258,5.3879258 0 0 1 5.3877832,5.38882 5.3879258,5.3879258 0 0 1 -5.3877848,5.38778 5.3879258,5.3879258 0 0 1 -5.38881853,-5.38778 5.3879258,5.3879258 0 0 1 5.38882013,-5.38882 z m 2.9197168,1.4211 c -0.097034,0 -0.19405,0.0368 -0.2676839,0.1106 l -0.5725751,0.5705 1.2505699,1.24746 0.5715415,-0.56946 c 0.14776,-0.1476 0.14776,-0.38724 0,-0.53434 l -0.7141689,-0.71416 c -0.073798,-0.0738 -0.170814,-0.1106 -0.2676835,-0.1106 z m -1.1069094,0.94776 -3.4437173,3.4375 1.2495363,1.24748 3.4437172,-3.43648 z m -5.2606606,0.36172 c -0.2911002,0 -0.5291666,0.23808 -0.5291666,0.52918 v 5.29062 c 0,0.29094 0.2380664,0.52918 0.5291666,0.52918 h 5.2916666 c 0.290773,0 0.5291668,-0.23824 0.5291668,-0.52918 v -3.7827 l -0.8185548,0.81648 v 2.67788 h -4.712899 v -4.71394 h 3.325895 l 0.8195882,-0.81752 z m 1.5471923,3.34244 -0.2676839,1.51412 1.51722,-0.26562 z"
       id="path822" />
  </g>
</svg>
