<svg xmlns="http://www.w3.org/2000/svg" width="48" height="48" viewBox="0 0 12.7 12.7">
  <path fill="#e6e6e6" d="M6.34431561.07286377a6.28928043 6.28928043 0 0 0-6.2895386 6.2895385 6.28928043 6.28928043 0 0 0 6.2895386 6.28902166 6.28928043 6.28928043 0 0 0 6.28902167-6.28902167A6.28928043 6.28928043 0 0 0 6.3443156.07286376zm-.01808691.93637693a5.40704372 5.40704372 0 0 1 5.40690507 5.40690505 5.40704372 5.40704372 0 0 1-5.40690507 5.40690508A5.40704372 5.40704372 0 0 1 .91880694 6.41614575 5.40704372 5.40704372 0 0 1 6.3262287 1.0092407zm2.34817705.80925294c-.09164796-.01410002-.27003798.16292123-.41496165.3240112-.33037806.3673-.6479397.77555825-1.00665702 1.29552826-.2397215.34747728-.32814471.454846-.40152584.83922525-.07174071-.01683544-.14183518-.03098165-.20773919-.04082442v.00051673c-.34192977-.01694259-.64388338.03746712-.91157238.14417728-.43183254-.66787024-1.05948664-1.31624994-1.8205606-1.9084107-.08222958-.06381657-.1444191-.09463772-.19016926-.0981852h-.00051673c-.31910681-.02397956.17587436 1.26834835.32866224 1.60093595.12792154.27845225.45204061.77655683.73690584 1.19217517-.0645242.14081363-.1135999.29753322-.1390097.47335599-.09455097.65423017.03461385 1.18902557-.11937259 1.84536553-.20868163.88947995-.95538394 1.33705123-.7761798 2.19418136.00325993.02099998.00238786.03884454.00671777.05994453.03641302.18101997.1327957.37730694.27543548.60099706.02307299.03639979.05137388.0682588.08113183.10076894.11842142.13190988.28517876.23576307.48265794.3157429.13502613.05489999.28345527.0998392.43821614.13590905.052637.0127.10551292.02508964.15968027.03358965h.04754219c.54678288.10136002 1.13215074.12258225 1.47174477.15296224.08105801.00799994.16307144.00978508.24546322.00878496.25463394-.00399997.51233413-.04961784.7549925-.12970775h.00103346c.01180915-.00399997.02297536-.01005258.03462337-.01395253.09269704-.03220006.18388621-.0677709.27078437-.1100709.27809852-.13514996.52118313-.31963307.69504798-.54570312.14837277-.19291009.24599582-.4161319.27233482-.66249179.03364918-.25422013-.00500353-.53330395-.14055989-.83147375-.44165705-.97141002-.90236436-2.1519856-.762744-3.34501565.00775997-.17566984-.03136238-.33512019-.10645351-.4774901-.04115938-.06941264-.09330267-.1317715-.14986159-.190686.37242459-.7387492.63233008-1.69361298.84335937-2.48460286.09108995-.34143.07325095-.46830728.00206692-.47955728h-.00051673zM5.49837233 5.66632083c.09916212.00039.2055532.04082865.31470943.13435859.17286631.1481201.41934923.57177463.41754557.80098476-.00460005.58833992-.37035528.75072-.80770253.88159985-.43734434.13086-.486147-.79673634-.4687054-1.12809653.01758897-.3344299.24666919-.69005688.54415293-.68884667zm1.79110505.27233456c.04090194-.00499983.08906695-.00338243.1390097.00361739.14983195.02130001.32039613.0897575.39119069.16329765.15022724.15593007.18978165.4727141.20773919.6397543.0052623.04895452.00601345.1065305.00465084.16794823a.26256156.26256156 0 0 0-.21600742-.19482012.26256156.26256156 0 0 0-.29765624.22220873.26256156.26256156 0 0 0 .22272519.29765624.26256156.26256156 0 0 0 .28215351-.16484785c-.00945965.11261778-.0245311.23584244-.04495853.37052012-.0441309.29073977-.87351101.01583796-1.03249517-.13384213-.15897357-.14977983-.23676953-.2678422-.1968873-.54105227.03049905-.20906978.3770839-.81193004.54053554-.83044029zm-1.60713709.02273776a.26256156.26256156 0 0 0-.25269772.22479238.26256156.26256156 0 0 0 .22220873.29765625.26256156.26256156 0 0 0 .29765624-.22220846.26256156.26256156 0 0 0-.22220872-.29765625.26256156.26256156 0 0 0-.04495853-.00258392zm2.42569177 2.00452882c.20924837.10955999.32429185.2984156.27130136.6650757-.048455.33528-.63591333.75258824-.8557617 1.19010826.00179996-.13256021.01149217-.2643542.02997226-.39222415.05782416-.4001.30876134-1.08139996.55448808-1.46295981zm-3.42873114.16123047c.24875992.44354008.43600898.84674947.59221184 1.30327954.07423996.21696997.07814945.44608934.05374349.68367909.02602706-.56034992-.96385802-.81248011-.8516276-1.58905018.02327593-.16105002.09677374-.29177852.20567227-.39790845z"/>
</svg>
