<?xml version="1.0" encoding="UTF-8" standalone="no"?>
<!-- Created with Inkscape (http://www.inkscape.org/) -->

<svg
   xmlns:dc="http://purl.org/dc/elements/1.1/"
   xmlns:cc="http://creativecommons.org/ns#"
   xmlns:rdf="http://www.w3.org/1999/02/22-rdf-syntax-ns#"
   xmlns:svg="http://www.w3.org/2000/svg"
   xmlns="http://www.w3.org/2000/svg"
   xmlns:sodipodi="http://sodipodi.sourceforge.net/DTD/sodipodi-0.dtd"
   xmlns:inkscape="http://www.inkscape.org/namespaces/inkscape"
   width="48"
   height="48"
   viewBox="0 0 12.7 12.7"
   version="1.1"
   id="svg829"
   inkscape:version="0.92.3 (2405546, 2018-03-11)"
   sodipodi:docname="amule.svg">
  <defs
     id="defs823" />
  <sodipodi:namedview
     id="base"
     pagecolor="#ffffff"
     bordercolor="#666666"
     borderopacity="1.0"
     inkscape:pageopacity="0.0"
     inkscape:pageshadow="2"
     inkscape:zoom="3.9406472"
     inkscape:cx="24"
     inkscape:cy="24"
     inkscape:document-units="mm"
     inkscape:current-layer="layer1"
     showgrid="false"
     showguides="true"
     inkscape:guide-bbox="true"
     inkscape:window-width="1366"
     inkscape:window-height="714"
     inkscape:window-x="0"
     inkscape:window-y="25"
     inkscape:window-maximized="1"
     scale-x="1.9"
     units="px"
     inkscape:snap-global="false" />
  <metadata
     id="metadata826">
    <rdf:RDF>
      <cc:Work
         rdf:about="">
        <dc:format>image/svg+xml</dc:format>
        <dc:type
           rdf:resource="http://purl.org/dc/dcmitype/StillImage" />
        <dc:title></dc:title>
      </cc:Work>
    </rdf:RDF>
  </metadata>
  <g
     inkscape:label="Capa 1"
     inkscape:groupmode="layer"
     id="layer1"
     transform="translate(0,-284.3)">
    <path
       style="fill:#1a1a1a;fill-opacity:1;stroke-width:0.52516764"
       d="M 23.978516 0.27539062 A 23.770509 23.770509 0 0 0 0.20703125 24.046875 A 23.770509 23.770509 0 0 0 23.978516 47.816406 A 23.770509 23.770509 0 0 0 47.748047 24.046875 A 23.770509 23.770509 0 0 0 23.978516 0.27539062 z M 23.910156 3.8144531 A 20.436071 20.436071 0 0 1 44.345703 24.25 A 20.436071 20.436071 0 0 1 23.910156 44.685547 A 20.436071 20.436071 0 0 1 3.4726562 24.25 A 20.436071 20.436071 0 0 1 23.910156 3.8144531 z M 32.785156 6.8730469 C 32.43877 6.8197555 31.76454 7.4888122 31.216797 8.0976562 C 29.968124 9.4858767 28.767891 11.0289 27.412109 12.994141 C 26.506075 14.307441 26.171877 14.713244 25.894531 16.166016 C 25.623385 16.102386 25.358461 16.04892 25.109375 16.011719 L 25.109375 16.013672 C 23.817042 15.949637 22.6758 16.15528 21.664062 16.558594 C 20.031939 14.03436 17.659703 11.583791 14.783203 9.3457031 C 14.472414 9.1045066 14.237367 8.9880172 14.064453 8.9746094 L 14.0625 8.9746094 C 12.856427 8.883978 14.727222 13.768367 15.304688 15.025391 C 15.788171 16.077809 17.013188 17.960409 18.089844 19.53125 C 17.845973 20.063459 17.66049 20.655785 17.564453 21.320312 C 17.207095 23.792993 17.695277 25.814267 17.113281 28.294922 C 16.324563 31.656736 13.502381 33.348344 14.179688 36.587891 C 14.192009 36.667261 14.188713 36.734705 14.205078 36.814453 C 14.342702 37.498623 14.706983 38.240495 15.246094 39.085938 C 15.333299 39.223512 15.440263 39.343924 15.552734 39.466797 C 16.000311 39.965354 16.630575 40.35787 17.376953 40.660156 C 17.887288 40.867652 18.44828 41.037501 19.033203 41.173828 C 19.232146 41.221828 19.431992 41.268655 19.636719 41.300781 L 19.816406 41.300781 C 21.882987 41.683874 24.095401 41.764084 25.378906 41.878906 C 25.685267 41.909142 25.995239 41.915889 26.306641 41.912109 C 27.269037 41.896991 28.243022 41.724577 29.160156 41.421875 L 29.164062 41.421875 C 29.208695 41.406757 29.250898 41.383881 29.294922 41.369141 C 29.645273 41.24744 29.989925 41.112999 30.318359 40.953125 C 31.36944 40.442322 32.288185 39.745063 32.945312 38.890625 C 33.506091 38.161516 33.87506 37.317843 33.974609 36.386719 C 34.101787 35.425887 33.955698 34.371082 33.443359 33.244141 C 31.774104 29.57267 30.032848 25.110652 30.560547 20.601562 C 30.589876 19.937613 30.442012 19.334966 30.158203 18.796875 C 30.00264 18.534528 29.805563 18.298841 29.591797 18.076172 C 30.999386 15.284049 31.981706 11.675115 32.779297 8.6855469 C 33.123574 7.3951028 33.056151 6.9155666 32.787109 6.8730469 L 32.785156 6.8730469 z M 20.78125 21.416016 C 21.156036 21.41749 21.558144 21.570329 21.970703 21.923828 C 22.624056 22.483652 23.555645 24.084866 23.548828 24.951172 C 23.531442 27.174819 22.14906 27.788539 20.496094 28.283203 C 18.843139 28.777792 18.658688 25.271916 18.724609 24.019531 C 18.791087 22.755544 19.656902 21.411442 20.78125 21.416016 z M 27.550781 22.445312 C 27.705371 22.426415 27.887412 22.432528 28.076172 22.458984 C 28.642466 22.539488 29.287118 22.798225 29.554688 23.076172 C 30.122476 23.665514 30.271973 24.862808 30.339844 25.494141 C 30.359733 25.679166 30.362572 25.896776 30.357422 26.128906 A 0.99235865 0.99235865 0 0 0 29.541016 25.392578 A 0.99235865 0.99235865 0 0 0 28.416016 26.232422 A 0.99235865 0.99235865 0 0 0 29.257812 27.357422 A 0.99235865 0.99235865 0 0 0 30.324219 26.734375 C 30.288466 27.160017 30.231503 27.625748 30.154297 28.134766 C 29.987503 29.233625 26.852838 28.194626 26.251953 27.628906 C 25.651108 27.062809 25.357076 26.616589 25.507812 25.583984 C 25.623084 24.793799 26.933011 22.515272 27.550781 22.445312 z M 21.476562 22.53125 A 0.99235865 0.99235865 0 0 0 20.521484 23.380859 A 0.99235865 0.99235865 0 0 0 21.361328 24.505859 A 0.99235865 0.99235865 0 0 0 22.486328 23.666016 A 0.99235865 0.99235865 0 0 0 21.646484 22.541016 A 0.99235865 0.99235865 0 0 0 21.476562 22.53125 z M 30.644531 30.107422 C 31.435391 30.521507 31.870201 31.235292 31.669922 32.621094 C 31.486785 33.888294 29.26647 35.465522 28.435547 37.119141 C 28.44235 36.618126 28.478982 36.120007 28.548828 35.636719 C 28.767376 34.12453 29.7158 31.549538 30.644531 30.107422 z M 17.685547 30.716797 C 18.625742 32.393169 19.333455 33.91711 19.923828 35.642578 C 20.20442 36.462622 20.219196 37.328585 20.126953 38.226562 C 20.225323 36.108704 16.484025 35.155771 16.908203 32.220703 C 16.996175 31.61201 17.273962 31.117918 17.685547 30.716797 z "
       transform="matrix(0.26458333,0,0,0.26458333,0,284.3)"
       id="path829" />
  </g>
</svg>
