<?xml version="1.0" encoding="UTF-8" standalone="no"?>
<!-- Created with Inkscape (http://www.inkscape.org/) -->

<svg
   xmlns:dc="http://purl.org/dc/elements/1.1/"
   xmlns:cc="http://creativecommons.org/ns#"
   xmlns:rdf="http://www.w3.org/1999/02/22-rdf-syntax-ns#"
   xmlns:svg="http://www.w3.org/2000/svg"
   xmlns="http://www.w3.org/2000/svg"
   xmlns:sodipodi="http://sodipodi.sourceforge.net/DTD/sodipodi-0.dtd"
   xmlns:inkscape="http://www.inkscape.org/namespaces/inkscape"
   width="48"
   height="48"
   viewBox="0 0 12.7 12.7"
   version="1.1"
   id="svg829"
   inkscape:version="0.92.3 (2405546, 2018-03-11)"
   sodipodi:docname="application-community.svg">
  <defs
     id="defs823" />
  <sodipodi:namedview
     id="base"
     pagecolor="#ffffff"
     bordercolor="#666666"
     borderopacity="1.0"
     inkscape:pageopacity="0.0"
     inkscape:pageshadow="2"
     inkscape:zoom="10.25"
     inkscape:cx="5.2682927"
     inkscape:cy="23.219512"
     inkscape:document-units="mm"
     inkscape:current-layer="layer1"
     showgrid="false"
     showguides="true"
     inkscape:guide-bbox="true"
     inkscape:window-width="1366"
     inkscape:window-height="719"
     inkscape:window-x="0"
     inkscape:window-y="25"
     inkscape:window-maximized="1"
     scale-x="1.9"
     units="px" />
  <metadata
     id="metadata826">
    <rdf:RDF>
      <cc:Work
         rdf:about="">
        <dc:format>image/svg+xml</dc:format>
        <dc:type
           rdf:resource="http://purl.org/dc/dcmitype/StillImage" />
        <dc:title></dc:title>
      </cc:Work>
    </rdf:RDF>
  </metadata>
  <g
     inkscape:label="Capa 1"
     inkscape:groupmode="layer"
     id="layer1"
     transform="translate(0,-284.3)">
    <path
       inkscape:connector-curvature="0"
       style="fill:#e6e6e6;fill-opacity:1;stroke-width:0.1384593"
       d="m 6.3437318,284.37701 a 6.2670426,6.2670426 0 0 0 -6.26731783,6.26732 6.2670426,6.2670426 0 0 0 6.26731783,6.26628 6.2670426,6.2670426 0 0 0 6.2673172,-6.26628 6.2670426,6.2670426 0 0 0 -6.2673172,-6.26732 z m -0.01756,0.93224 a 5.3879258,5.3879258 0 0 1 5.3877832,5.38882 5.3879258,5.3879258 0 0 1 -5.3877848,5.38778 5.3879258,5.3879258 0 0 1 -5.38881853,-5.38778 5.3879258,5.3879258 0 0 1 5.38882013,-5.38882 z m 1.7962726,2.4505 v 10e-4 c -0.5380656,-0.01 -1.103131,0.1984 -1.6267758,0.7369 a 0.21646166,0.22263624 0 0 1 -0.289388,0.012 c -0.5358272,-0.47452 -1.0620722,-0.69548 -1.5440916,-0.73794 -0.160686,-0.014 -0.3206784,-0.01 -0.4702557,0.012 -0.9980863,0.1534 -1.7518167,1.09028 -1.7611327,2.21484 -0.00772,0.9035 0.2226752,1.45024 0.861963,2.14664 0.6161222,0.67116 1.6441204,1.4752 3.112988,2.71714 1.405618,-1.3367 2.4167776,-2.23174 3.0458092,-2.93418 0.6528022,-0.72896 0.9098462,-1.2425 0.9167402,-1.9854 0.0071,-0.76578 -0.5517416,-1.56902 -1.32085,-1.94718 -0.2884158,-0.1418 -0.60217,-0.22908 -0.9250082,-0.23564 z"
       id="path820" />
  </g>
</svg>
