<svg xmlns="http://www.w3.org/2000/svg" width="48" height="48" viewBox="0 0 12.7 12.7">
  <path fill="#e6e6e6" d="M6.3437318.07701A6.2670426 6.2670426 0 0 0 .07641397 6.34433a6.2670426 6.2670426 0 0 0 6.26731783 6.26628 6.2670426 6.2670426 0 0 0 6.2673172-6.26628A6.2670426 6.2670426 0 0 0 6.3437318.07701zm-.01756.93224a5.3879258 5.3879258 0 0 1 5.3877832 5.38882 5.3879258 5.3879258 0 0 1-5.3877848 5.38778A5.3879258 5.3879258 0 0 1 .93735167 6.39807 5.3879258 5.3879258 0 0 1 6.3261718 1.00925zm1.7962726 2.4505v.001c-.5380656-.01-1.103131.1984-1.6267758.7369a.21646166.22263624 0 0 1-.289388.012c-.5358272-.47452-1.0620722-.69548-1.5440916-.73794-.160686-.014-.3206784-.01-.4702557.012-.9980863.1534-1.7518167 1.09028-1.7611327 2.21484-.00772.9035.2226752 1.45024.861963 2.14664.6161222.67116 1.6441204 1.4752 3.112988 2.71714 1.405618-1.3367 2.4167776-2.23174 3.0458092-2.93418.6528022-.72896.9098462-1.2425.9167402-1.9854.0071-.76578-.5517416-1.56902-1.32085-1.94718-.2884158-.1418-.60217-.22908-.9250082-.23564z"/>
</svg>
