<?xml version="1.0" encoding="UTF-8" standalone="no"?>
<!-- Created with Inkscape (http://www.inkscape.org/) -->

<svg
   xmlns:dc="http://purl.org/dc/elements/1.1/"
   xmlns:cc="http://creativecommons.org/ns#"
   xmlns:rdf="http://www.w3.org/1999/02/22-rdf-syntax-ns#"
   xmlns:svg="http://www.w3.org/2000/svg"
   xmlns="http://www.w3.org/2000/svg"
   xmlns:xlink="http://www.w3.org/1999/xlink"
   xmlns:sodipodi="http://sodipodi.sourceforge.net/DTD/sodipodi-0.dtd"
   xmlns:inkscape="http://www.inkscape.org/namespaces/inkscape"
   width="48"
   height="48"
   viewBox="0 0 12.7 12.7"
   version="1.1"
   id="svg829"
   inkscape:version="0.92.3 (2405546, 2018-03-11)"
   sodipodi:docname="application-x-clementine.svg">
  <defs
     id="defs823">
    <linearGradient
       xlink:href="#blue-gradient-5"
       id="linearGradient4351"
       x1="24"
       y1="1008.362"
       x2="24"
       y2="1048.3621"
       gradientUnits="userSpaceOnUse"
       gradientTransform="matrix(0.25135416,0,0,0.25135416,0.31750034,32.214723)" />
    <linearGradient
       id="blue-gradient-5">
      <stop
         style="stop-color:#054e87;stop-opacity:1"
         offset="0"
         id="stop2" />
      <stop
         style="stop-color:#1d99f3;stop-opacity:1"
         offset="1"
         id="stop4" />
    </linearGradient>
  </defs>
  <sodipodi:namedview
     id="base"
     pagecolor="#ffffff"
     bordercolor="#666666"
     borderopacity="1.0"
     inkscape:pageopacity="0.0"
     inkscape:pageshadow="2"
     inkscape:zoom="11.0625"
     inkscape:cx="9.4011299"
     inkscape:cy="23.638418"
     inkscape:document-units="mm"
     inkscape:current-layer="layer1"
     showgrid="false"
     showguides="true"
     inkscape:guide-bbox="true"
     inkscape:window-width="1366"
     inkscape:window-height="719"
     inkscape:window-x="0"
     inkscape:window-y="25"
     inkscape:window-maximized="1"
     scale-x="1.9"
     units="px"
     inkscape:snap-global="false" />
  <metadata
     id="metadata826">
    <rdf:RDF>
      <cc:Work
         rdf:about="">
        <dc:format>image/svg+xml</dc:format>
        <dc:type
           rdf:resource="http://purl.org/dc/dcmitype/StillImage" />
        <dc:title />
      </cc:Work>
    </rdf:RDF>
  </metadata>
  <g
     inkscape:label="Capa 1"
     inkscape:groupmode="layer"
     id="layer1"
     transform="translate(0,-284.3)">
    <path
       d="m 6.3497188,286.15209 c -0.8433594,0 -1.4055988,0.56224 -1.4055988,0.56224 0,0 0.3353758,1.1391 0.5622394,1.68672 0.2406386,0.58079 0.8433594,1.68671 0.8433594,1.68671 0,0 0.6027208,-1.10592 0.8433592,-1.68671 0.2268638,-0.54762 0.5622397,-1.68672 0.5622397,-1.68672 0,0 -0.5622397,-0.56224 -1.4055989,-0.56224 m -1.7887651,0.72078 c 0,0 -0.7955689,0 -1.391824,0.59625 -0.596255,0.59625 -0.596255,1.39183 -0.596255,1.39183 0,0 1.0429543,0.56787 1.5905757,0.79501 0.5807934,0.24063 1.788765,0.59625 1.788765,0.59625 0,0 -0.3556165,-1.20798 -0.5962549,-1.78877 -0.2268637,-0.54761 -0.7950068,-1.59057 -0.7950068,-1.59057 m 3.5778113,0 c 0,0 -0.5678621,1.04296 -0.7950067,1.59057 -0.2406385,0.58079 -0.5962551,1.78878 -0.5962551,1.78878 0,0 1.2079717,-0.35562 1.7887651,-0.59625 0.5476214,-0.22687 1.5905757,-0.79501 1.5905757,-0.79501 0,0 0,-0.79558 -0.5962549,-1.39183 C 8.934334,286.87288 8.138765,286.87288 8.138765,286.87288 m -5.7244418,2.37153 c 0,0 -0.5622396,0.56223 -0.5622396,1.40559 0,0.84336 0.5622396,1.4056 0.5622396,1.4056 0,0 1.1390972,-0.33538 1.6867186,-0.56224 0.5807934,-0.24064 1.6867186,-0.84336 1.6867186,-0.84336 0,0 -1.1059252,-0.60271 -1.6867186,-0.84336 -0.5476214,-0.22686 -1.6867186,-0.56223 -1.6867186,-0.56223 m 7.8713538,0 c 0,0 -1.1390976,0.33537 -1.6867189,0.56223 -0.5807935,0.24065 -1.6867186,0.84336 -1.6867186,0.84336 0,0 1.1059251,0.60272 1.6867186,0.84336 0.5476213,0.22686 1.6867189,0.56224 1.6867189,0.56224 0,0 0.562239,-0.56224 0.562239,-1.4056 0,-0.84336 -0.562239,-1.40559 -0.562239,-1.40559 m -4.3331804,1.80309 c 0,0 -1.2079717,0.35562 -1.7887652,0.59627 -0.5476213,0.22685 -1.5905755,0.795 -1.5905755,0.795 0,0 0,0.79557 0.5962549,1.39182 0.596255,0.59626 1.391824,0.59626 1.391824,0.59626 0,0 0.567862,-1.04295 0.7950067,-1.59058 0.2406385,-0.58079 0.5962551,-1.78877 0.5962551,-1.78877 m 0.7950066,0 c 0,0 0.3556166,1.20798 0.5962551,1.78877 0.2268637,0.54763 0.7950067,1.59058 0.7950067,1.59058 0,0 0.795569,0 1.3918241,-0.59626 0.5962549,-0.59625 0.5962549,-1.39182 0.5962549,-1.39182 0,0 -1.0429543,-0.56786 -1.5905757,-0.795 -0.5807934,-0.24065 -1.7887651,-0.59627 -1.7887651,-0.59627 m -0.3975033,0.16474 c 0,0 -0.6027207,1.10593 -0.8433594,1.68672 -0.2268635,0.54762 -0.5622395,1.68672 -0.5622395,1.68672 0,0 0.5622395,0.56224 1.4055989,0.56224 0.8433592,0 1.4055989,-0.56224 1.4055989,-0.56224 0,0 -0.3353759,-1.1391 -0.5622397,-1.68672 -0.2406385,-0.58079 -0.8433592,-1.68672 -0.8433592,-1.68672"
       id="path34"
       style="fill:#aa4400;fill-opacity:1;stroke-width:0.56223953;stroke-linejoin:round;opacity:0.75"
       inkscape:connector-curvature="0" />
    <path
       inkscape:connector-curvature="0"
       style="fill:#e6e6e6;fill-opacity:1;stroke-width:0.1389506"
       d="m 6.3502587,284.36072 a 6.2892805,6.2892805 0 0 0 -6.2895387,6.28954 6.2892805,6.2892805 0 0 0 6.2895387,6.28902 6.2892805,6.2892805 0 0 0 6.2890213,-6.28902 6.2892805,6.2892805 0 0 0 -6.2890213,-6.28954 z m -0.018087,0.93638 a 5.4070438,5.4070438 0 0 1 5.4069053,5.4069 5.4070438,5.4070438 0 0 1 -5.4069053,5.40691 5.4070438,5.4070438 0 0 1 -5.40742185,-5.40691 5.4070438,5.4070438 0 0 1 5.40742185,-5.4069 z"
       id="path821" />
  </g>
</svg>
