<svg xmlns="http://www.w3.org/2000/svg" width="48" height="48" viewBox="0 0 12.7 12.7">
  <defs>
    <clipPath id="a"/>
  </defs>
  <path fill="#e6e6e6" d="M6.34431561.07286377a6.28928043 6.28928043 0 0 0-6.2895386 6.2895385 6.28928043 6.28928043 0 0 0 6.2895386 6.28902166 6.28928043 6.28928043 0 0 0 6.28902167-6.28902167A6.28928043 6.28928043 0 0 0 6.3443156.07286376zm-.2702679.94516192v.32194418h-.81958814c-.14841114 0-.26768398.11927286-.26768398.26768392v.38033854c0 .14841104.11927284.2676839.26768398.2676839h.81958814v.25269778c-.00032438.00542279-.00310065.0099958-.00310065.01550291v.3803384c0 .0055073.00277627.01008037.00310065.015503v.23667826h-.81958814c-.14841114 0-.26768398.11978957-.26768398.26820045v.38033853c0 .14841114.11927284.26768398.26768398.26768398h.81958814v.22220873c-.00032438.0054229-.00310065.00999569-.00310065.015503v.38033853c0 .00550704.00277627.0100801.00310065.01550273v.26716725h-.81958814c-.14841114 0-.26768398.11978957-.26768398.26820071v.38033854c0 .14841114.11927284.26768398.26768398.26768398h.81958814V6.8988037c-.45700553.11585152-.79426672.52446766-.79426672 1.01854237v2.14302178c0 .58470985.47051965 1.0557494 1.05523267 1.0557494.58471513 0 1.05574966-.47103955 1.05574966-1.0557494V7.91734606c0-.47656697-.31494994-.87182324-.74724127-1.00355637v-.08009837h.80201822c.14841114 0 .26768398-.11927284.26768398-.26768398V6.1856688c0-.14841087-.11927284-.26820071-.26768398-.26820071h-.80201822V4.9588705h.79891757c.14841114 0 .26820071-.11978984.26820071-.26820071v-.38033854c0-.14841114-.11978957-.26768398-.26820071-.26768398h-.79891757v-.87074797h.79891757c.14841114 0 .26820071-.11927284.26820071-.26768398v-.3803384c0-.14841104-.11978957-.2682007-.26820071-.2682007h-.79891757V1.0252604a5.40704372 5.40704372 0 0 1 5.08961172 5.39088535 5.40704372 5.40704372 0 0 1-5.40690507 5.40690508A5.40704372 5.40704372 0 0 1 .91880694 6.41614575 5.40704372 5.40704372 0 0 1 6.07404771 1.0180257zm.26923417 6.40581055c.29075803 0 .526583.2104927.526583.52658273 0 .2633001-.23582523.52658274-.526583.52658274-.29075776 0-.52658273-.26318262-.52658273-.52658274 0-.31601991.2358247-.52658273.52658273-.52658273zm0 1.57974848c.29075803 0 .526583.2110097.526583.52709947v.526583c0 .26329984-.23582523.52658274-.526583.52658274-.29075776 0-.52658273-.26318289-.52658273-.52658274v-.526583c0-.31602997.2358247-.52709947.52658273-.52709947z"/>
</svg>
