<?xml version="1.0" encoding="UTF-8" standalone="no"?>
<!-- Created with Inkscape (http://www.inkscape.org/) -->

<svg
   xmlns:dc="http://purl.org/dc/elements/1.1/"
   xmlns:cc="http://creativecommons.org/ns#"
   xmlns:rdf="http://www.w3.org/1999/02/22-rdf-syntax-ns#"
   xmlns:svg="http://www.w3.org/2000/svg"
   xmlns="http://www.w3.org/2000/svg"
   xmlns:sodipodi="http://sodipodi.sourceforge.net/DTD/sodipodi-0.dtd"
   xmlns:inkscape="http://www.inkscape.org/namespaces/inkscape"
   width="48"
   height="48"
   viewBox="0 0 12.7 12.7"
   version="1.1"
   id="svg829"
   inkscape:version="0.92.3 (2405546, 2018-03-11)"
   sodipodi:docname="atom.svg">
  <defs
     id="defs823" />
  <sodipodi:namedview
     id="base"
     pagecolor="#ffffff"
     bordercolor="#666666"
     borderopacity="1.0"
     inkscape:pageopacity="0.0"
     inkscape:pageshadow="2"
     inkscape:zoom="7.9107571"
     inkscape:cx="24"
     inkscape:cy="24"
     inkscape:document-units="mm"
     inkscape:current-layer="layer1"
     showgrid="false"
     showguides="true"
     inkscape:guide-bbox="true"
     inkscape:window-width="1366"
     inkscape:window-height="714"
     inkscape:window-x="0"
     inkscape:window-y="25"
     inkscape:window-maximized="1"
     scale-x="1.9"
     units="px"
     inkscape:snap-global="false" />
  <metadata
     id="metadata826">
    <rdf:RDF>
      <cc:Work
         rdf:about="">
        <dc:format>image/svg+xml</dc:format>
        <dc:type
           rdf:resource="http://purl.org/dc/dcmitype/StillImage" />
        <dc:title></dc:title>
      </cc:Work>
    </rdf:RDF>
  </metadata>
  <g
     inkscape:label="Capa 1"
     inkscape:groupmode="layer"
     id="layer1"
     transform="translate(0,-284.3)">
    <path
       style="fill:#1a1a1a;fill-opacity:1;stroke-width:0.52516764"
       d="M 23.978516 0.27539062 A 23.770509 23.770509 0 0 0 0.20703125 24.046875 A 23.770509 23.770509 0 0 0 23.978516 47.816406 A 23.770509 23.770509 0 0 0 47.748047 24.046875 A 23.770509 23.770509 0 0 0 23.978516 0.27539062 z M 23.910156 3.8144531 A 20.436071 20.436071 0 0 1 44.345703 24.25 A 20.436071 20.436071 0 0 1 23.910156 44.685547 A 20.436071 20.436071 0 0 1 3.4726562 24.25 A 20.436071 20.436071 0 0 1 23.910156 3.8144531 z M 23.996094 4.6191406 C 23.010678 4.6191406 21.564489 5.1229751 20.166016 7.4101562 C 20.071577 7.4065657 19.977267 7.4065657 19.882812 7.4101562 C 18.627616 7.4025972 17.603893 8.414514 17.595703 9.6699219 C 17.590752 10.367094 17.906187 11.025952 18.451172 11.460938 C 18.281014 12.012068 18.121333 12.58997 17.974609 13.191406 C 12.862333 11.489561 8.8737132 11.605759 7.5097656 13.810547 C 6.4279284 15.56043 7.2347605 18.26081 9.7910156 21.388672 C 10.539201 22.308495 11.342322 23.183875 12.195312 24.007812 C 11.343062 24.822754 10.539694 25.688857 9.7910156 26.599609 C 7.2347545 29.748145 6.4279284 32.446345 7.5097656 34.175781 C 8.0332978 35.023151 9.2102144 35.96875 11.828125 35.96875 L 12.482422 35.96875 C 12.985242 37.119389 14.327877 37.642558 15.478516 37.138672 C 16.271583 36.792845 16.795993 36.028667 16.835938 35.164062 C 17.201157 35.060881 17.567333 34.948565 17.939453 34.824219 C 19.207226 40.05346 21.384841 43.380859 23.996094 43.380859 C 26.607346 43.380859 28.777396 40.069075 30.044922 34.853516 C 31.993559 35.540218 34.036776 35.923866 36.101562 35.990234 C 38.168322 35.990234 39.731275 35.403879 40.482422 34.191406 C 41.350455 32.813428 41.008534 30.816275 39.541016 28.453125 C 39.836726 28.06459 39.995839 27.589122 40 27.101562 C 39.989795 25.841846 38.960809 24.829488 37.701172 24.839844 C 37.389206 24.842716 37.084145 24.908542 36.798828 25.035156 C 36.481945 24.699156 36.149189 24.366796 35.804688 24.03125 C 36.656939 23.216195 37.462015 22.35013 38.210938 21.439453 C 40.766956 18.29088 41.572071 15.590764 40.490234 13.861328 C 39.112479 11.656843 35.158106 11.539195 30.052734 13.171875 C 28.778058 7.9355285 26.586631 4.6210938 23.996094 4.6210938 L 23.996094 4.6191406 z M 24.003906 5.984375 C 25.726165 5.984375 27.573064 8.8636101 28.716797 13.603516 C 27.103043 14.222489 25.526497 14.936858 23.996094 15.740234 C 22.467417 14.948348 20.893504 14.247062 19.283203 13.638672 C 19.421054 13.04608 19.572825 12.480733 19.738281 11.943359 L 19.890625 11.943359 C 21.150013 11.944947 22.171383 10.923439 22.171875 9.6640625 C 22.172614 9.0238861 21.905103 8.416375 21.433594 7.984375 C 22.253541 6.6891687 23.149427 5.984375 24.003906 5.984375 z M 36.242188 13.408203 C 37.784643 13.415762 38.855813 13.804611 39.310547 14.535156 C 40.040729 15.713462 39.229122 17.979807 37.134766 20.542969 C 36.405815 21.427567 35.623767 22.266455 34.792969 23.056641 C 33.608548 21.995765 32.367847 20.997039 31.078125 20.066406 C 30.952116 18.215647 30.711071 16.374832 30.355469 14.554688 C 32.687692 13.769264 34.699732 13.399624 36.242188 13.408203 z M 11.769531 13.429688 C 13.318029 13.426097 15.328663 13.789206 17.636719 14.550781 C 17.286515 16.369225 17.049948 18.207368 16.927734 20.054688 C 15.63407 20.990272 14.388571 21.99472 13.199219 23.060547 C 12.369111 22.275085 11.587114 21.436288 10.857422 20.556641 C 8.7906674 17.972729 7.9514559 15.735512 8.6816406 14.550781 C 9.1363722 13.816948 10.221033 13.436717 11.769531 13.429688 z M 29.011719 14.990234 C 29.259369 16.242052 29.459832 17.592245 29.597656 19.029297 C 29.005075 18.628932 28.412922 18.236131 27.792969 17.857422 C 27.021357 17.382184 26.257142 16.940796 25.492188 16.513672 C 26.711874 15.921155 27.888701 15.410518 29.011719 14.990234 z M 18.980469 15.001953 C 20.103486 15.42167 21.282515 15.933063 22.501953 16.525391 C 21.744151 16.945183 20.97969 17.3871 20.201172 17.869141 C 19.588123 18.24853 18.986866 18.641217 18.394531 19.041016 C 18.53214 17.621803 18.732395 16.276599 18.980469 15.001953 z M 23.996094 17.275391 C 25.002224 17.80581 26.030153 18.385581 27.070312 19.033203 C 27.986679 19.598091 28.880814 20.189695 29.742188 20.802734 C 29.804081 21.829292 29.837891 22.869997 29.837891 24 C 29.837891 25.129928 29.803193 26.17067 29.734375 27.197266 L 29.734375 27.203125 C 28.873246 27.809286 27.985773 28.400738 27.0625 28.972656 C 26.139228 29.544537 25.022444 30.199041 23.996094 30.722656 C 22.990209 30.1922 21.964236 29.616296 20.923828 28.96875 C 20.000556 28.396945 19.111128 27.803426 18.25 27.197266 C 18.187861 26.17067 18.154297 25.129965 18.154297 24 C 18.154297 22.870035 18.188995 21.850004 18.257812 20.802734 C 19.112284 20.196574 20.000555 19.605083 20.923828 19.033203 C 21.963988 18.385581 22.990211 17.805772 23.996094 17.275391 z M 23.996094 20.794922 C 22.226735 20.794922 20.791016 22.230614 20.791016 24 C 20.791016 25.769272 22.226735 27.203125 23.996094 27.203125 C 25.765453 27.203125 27.201172 25.769272 27.201172 24 C 27.201172 22.230614 25.765453 20.794922 23.996094 20.794922 z M 16.824219 21.851562 C 16.82422 22.54057 16.775391 23.27675 16.775391 24 C 16.775391 24.723213 16.789111 25.439813 16.816406 26.142578 C 15.898066 25.439888 15.03062 24.725556 14.212891 24 C 15.025686 23.276447 15.901191 22.561282 16.824219 21.851562 z M 31.175781 21.859375 C 32.099054 22.562292 32.952446 23.310992 33.779297 24 C 32.971187 24.721361 32.10374 25.435013 31.175781 26.142578 C 31.203447 25.439813 31.216797 24.725518 31.216797 24 C 31.216797 23.274557 31.203455 22.562292 31.175781 21.859375 z M 13.195312 24.955078 C 14.380228 26.015462 15.617269 27.013621 16.90625 27.945312 C 17.032259 29.795807 17.273546 31.634669 17.628906 33.455078 C 17.25013 33.607015 16.871213 33.718141 16.492188 33.828125 C 15.827352 32.758179 14.421562 32.428818 13.351562 33.09375 C 12.81348 33.428616 12.440422 33.972244 12.318359 34.59375 C 10.472062 34.682947 9.1835518 34.291794 8.6738281 33.478516 C 7.9433974 32.300512 8.7569449 30.031648 10.851562 27.46875 C 11.581007 26.583963 12.364267 25.745453 13.195312 24.955078 z M 34.792969 24.970703 C 35.132544 25.29801 35.457621 25.619655 35.765625 25.941406 C 35.548627 26.29328 35.429179 26.699385 35.425781 27.113281 C 35.425781 28.377004 36.451265 29.400391 37.714844 29.400391 C 37.949862 29.3968 38.180652 29.35369 38.402344 29.277344 C 39.539415 31.082484 39.840981 32.570143 39.310547 33.472656 C 38.407984 34.940285 34.985394 34.995466 30.355469 33.472656 C 30.711062 31.652511 30.951865 29.811545 31.078125 27.960938 C 32.367106 27.029549 33.607806 26.031125 34.792969 24.970703 z M 18.394531 28.970703 C 18.986866 29.369821 19.588123 29.759963 20.201172 30.138672 C 20.972784 30.598225 21.736337 31.058063 22.494141 31.517578 C 21.302321 32.096337 20.124201 32.5992 18.980469 33.033203 C 18.732384 31.75852 18.532132 30.410628 18.394531 28.970703 z M 29.597656 28.974609 C 29.459806 30.407693 29.259804 31.757908 29.011719 32.998047 L 29.011719 33.005859 C 27.888701 32.586105 26.711874 32.075014 25.492188 31.482422 C 26.264047 31.055373 27.028261 30.614957 27.792969 30.146484 C 28.412923 29.767095 29.011981 29.374105 29.597656 28.974609 z M 23.996094 32.269531 C 25.528963 33.063761 27.108882 33.765476 28.724609 34.375 C 27.567067 39.156707 25.718598 42.009766 23.996094 42.009766 C 22.266685 42.009766 20.420831 39.124088 19.277344 34.363281 C 20.889371 33.756365 22.464458 33.057563 23.996094 32.269531 z "
       transform="matrix(0.26458333,0,0,0.26458333,0,284.3)"
       id="path820" />
  </g>
</svg>
