<svg xmlns="http://www.w3.org/2000/svg" width="48" height="48" viewBox="0 0 12.7 12.7">
  <path fill="#e6e6e6" d="M6.34431561.07286377a6.28928043 6.28928043 0 0 0-6.2895386 6.2895385 6.28928043 6.28928043 0 0 0 6.2895386 6.28902166 6.28928043 6.28928043 0 0 0 6.28902167-6.28902167A6.28928043 6.28928043 0 0 0 6.3443156.07286376zm-.01808691.93637693a5.40704372 5.40704372 0 0 1 5.40690507 5.40690505 5.40704372 5.40704372 0 0 1-5.40690507 5.40690508A5.40704372 5.40704372 0 0 1 .91880694 6.41614575 5.40704372 5.40704372 0 0 1 6.3262287 1.0092407zm.02273776.2129069c-.26072465 0-.64336215.13330621-1.0133748.7384562-.02498698-.00094998-.04993983-.00094998-.07493105 0-.33210394-.00199998-.60296398.26573633-.60513092.59789634-.00130995.18446011.0821489.35878296.22634284.473873-.04502097.14581981-.0872699.29872305-.12609063.45785299-1.352623-.45027982-2.40794531-.41953577-2.76882311.16381438-.28623609.46298988-.07276177 1.1774654.60358072 2.00504555.19795739.24336983.41044981.47498079.63613675.69298078-.22549114.21562007-.43804892.44477649-.63613675.68574629-.67634407.83305014-.8898168 1.54694888-.60358072 2.00452881.1385179.22419998.4499104.47438971 1.14256591.47438971h.17311608c.13303779.3044399.48827663.4428617.79271653.30954186.2098323-.09150006.34858245-.29368882.35915123-.52244889.09663086-.02729997.19351492-.05701691.29197167-.0899168.3354316 1.38357.91159223 2.26394431 1.60248625 2.26394431.69089375 0 1.2650528-.87624284 1.60041905-2.2561928.51557687.1816899 1.05617803.28319676 1.60248598.30075663.54683025 0 .96036155-.15513976 1.15910253-.4759399.22966706-.36459001.13920046-.8930034-.24908034-1.5182535.07823994-.10279988.12033859-.22860079.12143952-.35760104-.00270007-.33329985-.27495262-.6011529-.60823157-.59841288-.082541.00075989-.16325506.01817635-.23874518.0516763-.08384196-.0889-.17188365-.17683691-.26303287-.2656168.2254914-.21564996.4385011-.44479632.63665364-.68574627.67627975-.83305993.88929976-1.54746561.60306372-2.00504555-.364531-.58326998-1.41079218-.61439768-2.7615885-.18241777-.33725802-1.38545-.91707308-2.26239416-1.60248598-2.26239416V1.2221476zm.00206692.36121827c.45568102 0 .94433971.7617976 1.2469524 2.0158977-.42697241.16376993-.8441002.35278006-1.24901932.56533996-.40446245-.20951984-.8208936-.39506842-1.2469524-.55603828.03647308-.15678996.07662916-.30637135.12040606-.44855155h.04030768c.33321307.00042015.60345054-.26985383.60358072-.60306386.00019553-.16938-.07058342-.33011732-.19533685-.44441731.21694431-.34269.45398081-.52916666.68006171-.52916666zM9.58907878 3.547587c.40810789.00199998.69152161.10488295.81183665.29817298.19319398.31176012-.0215437.91139723-.57567538 1.58956717-.19286829.23404988-.39978515.45600566-.61960045.6650757-.31337805-.2806901-.64164686-.54493635-.9828858-.79116633-.03333988-.48967998-.09711637-.97672894-.19120273-1.4583087.61706733-.2078101 1.14941957-.30561068 1.55752772-.30334082zm-6.47505708.00568457c.40970676-.00095012.941687.09512247 1.55236014.29662252-.09265814.48112997-.15524982.96747197-.1875856 1.45624204-.34228194.24753993-.67182021.51330013-.98650292.79530019-.21963274-.20782015-.42653611-.42975186-.61960045-.6624918-.54682882-.68366003-.76887019-1.27559036-.57567549-1.58905043.1203144-.19415998.40729757-.29476276.81700432-.29662252zm4.56199552.41289446c.06552406.33121017.11856323.68844873.15502916 1.06866874-.15678705-.1059299-.31346086-.2098585-.4774901-.3100586-.20415566-.12574004-.40635421-.24252395-.60874829-.35553384.32270858-.15677012.63407739-.29187616.93120923-.4030763zm-2.65410153.00310065c.29713158.11105012.609083.24635619.93172597.4030763-.20050178.11106997-.40276542.22799384-.6087483.35553385-.16220255.10038-.32128513.20427844-.4780071.31005859.03640905-.3755001.08939319-.73141866.15502943-1.06866874zm1.32705077.6015138c.26620522.14034002.5381781.29373776.81338683.46508775.24245544.14945995.47902865.3059885.70693385.4681884.01637586.27161014.02532142.54696333.02532142.84594329 0 .29896011-.00918051.5743231-.0273886.84594329v.00155019c-.22784039.1603801-.46265095.31686843-.7069336.4681884-.24428237.15131018-.5397648.32448103-.8113199.46302083-.2661404-.14034981-.53759576-.29272441-.81287037-.46405429-.24428238-.15129007-.4796102-.3083253-.70745032-.46870513-.01644094-.2716202-.02532142-.54697339-.02532142-.84594329s.00918052-.5688531.02738835-.84594329c.22607904-.16037983.46110074-.31687848.70538339-.4681884.275209-.17134999.5467305-.32475778.81287037-.46508775zm0 .93120923c-.4681429 0-.84801021.37986017-.84801021.84801021 0 .46811988.37986731.84749348.8480102.84749348.4681429 0 .84801022-.3793736.84801022-.84749348 0-.46815004-.37986732-.84801021-.84801021-.84801021zm-1.89755857.27956933c2.6e-7.18230003-.01291908.37708099-.01291908.56844088 0 .1913501.00363009.38095052.01085189.56689042-.24297746-.18592006-.4724892-.3749204-.68884667-.56689042.215052-.19144006.44669604-.3806608.69091386-.56844088zm3.79718406.00206719c.24428265.18598012.47007594.38407366.68884694.56637369-.21381244.1908601-.44332446.37968052-.68884694.56689042.00731996-.1859399.01085215-.37493045.01085215-.56689042 0-.19194012-.00353007-.38039357-.01085215-.5663737zm-4.75733236.8190714c.31350902.28055994.64080945.54465617.98185233.79116608.03333988.48961013.0971804.97614236.19120273 1.45779223-.10021781.0402-.20047293.06960209-.30075663.09870202-.17590452-.28308988-.54785312-.3702333-.83095729-.19430338-.14236752.08859996-.24107245.23243487-.27336829.396875-.4884994.02360003-.82941772-.07989253-.96428212-.29507233-.19325978-.31168022.02199132-.91198382.57619209-1.5900839.19299899-.2340999.40023653-.45595566.62011718-.66507571zm5.71438.00413412c.0898459.08659998.17585585.17170188.25734857.25683183-.05741405.0931-.089018.20054861-.08991706.3100586 0 .33436003.27132598.60513117.60564792.60513117.06218184-.00095011.12324503-.0123563.18190104-.03255618.30085003.47760995.38063936.87121972.24029537 1.11000962-.23880312.38831017-1.14436338.40291014-2.36936436 0 .09408398-.48158003.15779644-.96866894.19120273-1.4583087.34104289-.24643.66931143-.51059635.9828858-.79116634zM4.86688628 7.66516507c.15672196.10559997.31580454.20882504.47800709.30902513.20415567.12159006.40617907.24325553.60668137.36483554-.3153357.15312998-.62704662.28617915-.92965904.40100911-.06563915-.33725987-.1186225-.69388963-.15502942-1.07486978zm2.96416011.00103346c-.0364728.37917014-.08939.73641452-.15502916 1.06453463v.00206692c-.29713184-.1110599-.60850065-.24628607-.93120923-.40307603.20422102-.11299005.4064193-.22951678.6087483-.35346693.1640295-.10038.32253025-.2043586.4774901-.31005859zm-1.48207992.87178144c.40557158.21014002.82359181.3958021 1.25108624.557072-.30626631 1.26515996-.7953404 2.02003181-1.25108624 2.02003181-.4575728 0-.945955-.7635023-1.2485026-2.02313246.42651548-.16057986.84325724-.34547122 1.2485026-.55397135z"/>
</svg>
