<svg xmlns="http://www.w3.org/2000/svg" width="48" height="48" viewBox="0 0 12.7 12.7">
  <path fill="#e6e6e6" d="M6.34431561.07286377a6.28928043 6.28928043 0 0 0-6.2895386 6.2895385 6.28928043 6.28928043 0 0 0 6.2895386 6.28902166 6.28928043 6.28928043 0 0 0 6.28902167-6.28902167A6.28928043 6.28928043 0 0 0 6.3443156.07286376zm-.01808691.93637693a5.40704372 5.40704372 0 0 1 5.40690507 5.40690505 5.40704372 5.40704372 0 0 1-5.40690507 5.40690508A5.40704372 5.40704372 0 0 1 .91880694 6.41614575 5.40704372 5.40704372 0 0 1 6.3262287 1.0092407zm.02687187.79995117v.00051678c-.31776855 0-.644167.04449106-.96531587.12919107-2.05534496.53943-3.27148826 2.59925155-2.7207641 4.61212162l.62890214-.15709635c-.07160154-.26092018-.11627193-.53342778-.11627193-.81648776 0-1.73652998 1.43021418-3.1377929 3.20342203-3.1377929 1.77320943 0 3.21737456 1.40126292 3.21737456 3.1377929 0 .28305998-.0446778.55556758-.11627193.81648776l.62890214.15709635c.17504304-.63974.17504304-1.30782482 0-1.94768468-.46467818-1.69829001-2.04403085-2.81114478-3.75997704-2.7941448zm.80460188 4.78523754v.00258392c-.02865888-.00460005-.0561848.01352206-.0728636.02842207-.016664.01459997-.02198556.02740819-.02945554.04340807-.0149172.03127005-.02041895.06930496-.0289388.11420501-.0170741.08995992-.0345051.2094775-.04392507.3581175-.018855.29727023-.03360817.69200263-.04340833 1.08882259-.00977583.39676995-.02009167.79278558-.04444153 1.08830558-.0121891.14782006-.02501.2781345-.04392507.3586345-.00215106.0105-.0120695.00946944-.01446927.01446927-.01669997-.0615598-.03348196-.15566469-.04392507-.27233482-.02093594-.23324979-.0206187-.54387565-.0289388-.85989583-.0083529-.31599002-.02285365-.63310848-.0444418-.87384836-.01079685-.12039996-.0226232-.22405683-.04340806-.3007569-.01041215-.03855984-.02528412-.07155232-.04392507-.1002522-.01864386-.02889991-.04196265-.05736088-.0883666-.05736088-.03522821 0-.07946072.02159159-.10180267.04289134-.0223401.02150004-.0318889.0443304-.0439248.0718304-.02409508.05549001-.03310493.12050448-.0444418.20050443-.02266712.16002-.03583834.36764171-.04340833.57309172-.00764805.20545002-.00988457.41027218-.02945554.5586222-.00977397.07417011-.02918327.13676577-.04340807.17156588-.00713713.01649995-.01263623.02693882-.01498626.0289388-.00313399 0-.0095295-.01046956-.01446927-.01446953-.0083492-.01009994-.02073883-.03823017-.02893907-.07183014-.01641078-.06690016-.02451232-.1680382-.02997226-.2718181-.00549698-.10372989-.00346472-.21247364-.0289388-.30127363-.01277805-.04416001-.02576036-.080305-.05839434-.11420474-.03261995-.03430006-.09400725-.05936086-.1462442-.05736088-.06315498.00409999-.10504725.05053542-.1312582.09973548-.02620195.04893998-.04753901.1057992-.05891107.17259935-.02272612.13328994-.0232656.30631236-.02945553.47232252-.00612008.16604006-.01015391.3283405-.0289388.44390045-.0084492.0521999-.03262313.0897218-.04392507.11472174-.00418888-.00989991-.01019942-.0138221-.01446953-.02842207-.0170979-.05874993-.03306948-.14712526-.04444153-.2578653-.02275602-.22170018-.03411511-.51710774-.04392507-.81648774-.0098859-.29944007-.00845476-.60312696-.0289388-.83095702-.01025287-.11384995-.02494598-.2143043-.0439248-.2868041-.0094742-.03640005-.0263054-.05828295-.04340834-.08578294-.0171061-.0275-.0418367-.07183014-.0883666-.07183014-.04394888 0-.08447457.03176084-.10180267.05736087-.01733206.02569977-.02040228.05238273-.02997226.08578268-.01910318.06651016-.03322902.1555623-.04392507.25838229-.02139288.20580984-.0320712.47561737-.04340807.74465734-.01131305.26902992-.02136007.53328808-.04392506.73018808-.01127707.09849988-.02858162.17954334-.0444418.22944323-.009475-.02558997-.03604816-.05586916-.04340807-.10076895-.01843696-.11243018-.02014564-.2576687-.02945553-.41547864-.00927418-.15779009-.0183343-.31793365-.04340834-.44338372-.01252802-.06285997-.03180239-.12608242-.05839433-.17208261-.02658057-.04599993-.07050802-.08629968-.13177494-.08629968-.04316703 0-.08376708.03047762-.10283613.0578776-.01904206.0275-.0341249.05006632-.0439248.08526622-.01964214.07036011-.03481837.1634781-.04340834.2718181-.0171159.21674004-.01022614.50501231-.014986.7885824-.004672.28352989-.0200623.56518598-.04340833.77359616-.01169088.1042998-.02522881.189779-.0444418.24287903-.00674105.01889998-.00858943.03270832-.01446927.04340833-.00712602-.01290002-.02110554-.02816093-.02945553-.05736087-.01107413-.0390099-.02156883-.11196585-.0289388-.17156589h.0289388l-.04340833-.14366028c-.00081122-.00780018.00052916-.01772205 0-.02842207-.02312988-.26661004-.037855-.61983407-.04392507-.9735841-.00622882-.36416985-.01205362-.7278161-.02893854-1.0035561-.0084492-.13785004-.01226238-.25774836-.02997253-.34364824-.00887703-.04230026-.02777886-.0688356-.0439248-.09973575-.00805418-.01579986-.01276403-.030208-.0289388-.04340807-.016179-.01390015-.04649681-.02934203-.07286387-.02842207-.05072697 0-.07272972.04183036-.0883666.07183014-.01564216.02949998-.02018903.05943574-.0289388.09973575-.01742413.08092995-.0353351.18669608-.04392506.31522616-.00818092.12256003-.0103095.29366051-.01446954.44390045l-.35139947-1.31774907-.78961614.21497395c-.42952756.11275007-.67113146.53906155-.55603827.9596313l.4097941 1.5187705c.11508922.42072004.55025736.67166224.97978511.5586222.22981708-.0376399.38131327-.09531324.61443288-.1576131.00967501.05164006.01708573.11591317.0289388.1576131.01237906.04388987.02277454.08312175.04444153.11472174.02168684.03169999.06863186.07283026.11678893.07183014.04139195 0 .07900538-.03026093.1023194-.05736088.0233188-.02708989.03089884-.06456891.0439248-.10076894.02606993-.07228999.0461235-.16297486.05839434-.27233483.0245081-.21898.02418874-.50338883.0289388-.78754868.00467519-.28417017.0134964-.56504628.02997227-.77359642.00825103-.10431991.01397502-.1894959.02893906-.24339576.005207-.01890024.01045607-.03270832.014986-.04340833.00113507 0 .00120333-.00833067.01446954.01446927.01326594.0228502.0179107.07367455.0289388.12867454.02204879.11030982.03465486.25829842.0439248.41547838.00927603.15725008.0239088.3192174.0444418.44441745.01027403.06256998.0213622.11109615.04340833.15709635.0110228.02309997.0234688.05363024.0439248.07183014.02044515.01750007.04195075.02793868.07286387.0289388.04260612 0 .08362712-.03176085.10283613-.05736087.01920293-.02570004.03286919-.05299948.04340807-.08629968.0210521-.06637998.03214688-.1547286.04392507-.25734856.02352596-.2052201.03310572-.4620416.04444153-.73122154.01133925-.26921989.02330397-.54635743.04392507-.74465735.00834707-.08012006.01754478-.13523515.0289388-.18603515.01226503.0575699.03555497.13624348.04392507.22944322.01982284.22075008.03359811.51683787.04340807.81648776.00987398.29960992.0208788.601377.0444418.83095702.01178798.11480006.02235596.21187065.04392506.28577063.01077278.03700013.02462318.05859965.04340807.08629967.01877907.02810008.04363085.06931343.0883666.07131341.06265571.00416005.12021979-.05213535.14572774-.09973548.02550794-.04741994.03384973-.10729912.04444153-.17259934.0211992-.13040995.03728826-.291973.04340833-.45785299.00612087-.16580009.00926862-.32614737.02945554-.44441744.010074-.05876.01510691-.10287424.0289388-.12867429.01383294-.02640012.0267155-.02842207.02945553-.02842207.0165661 0 .01995884.00221906.0289388.01291908.00897202.00940011.02072243.02577756.02997227.0578776.0184322.06416014.0235188.16940477.02893906.27233483.00539883.10304991.00763244.21114014.02945554.30024017.01091194.0441698.02941716.07890483.05839433.11420474.02898457.03530018.0805217.0578776.13177493.0578776.035433 0 .0658331-.00683868.08733314-.0289388.02150798-.02159978.03311578-.0587994.04444153-.0862994.02266818-.05520002.0328594-.12060476.04340834-.20050469.02113306-.15969006.03635507-.367225.04392506-.572575.007647-.20530978.00844736-.4106021.02945554-.55862219.01048887-.0741799.02846414-.12351305.04340807-.15761308.00348906.00940012.01099952.01573874.01446953.0289388.01669891.06156007.0339987.15513817.0444418.2718181.02094574.2332601.02113544.54338907.02945553.85937909.00825183.31602997.0217932.63255154.04340807.87333163.01081193.12037007.02314205.22457357.04392507.30127363.01041506.03838998.02578655.07206906.04444153.10076894.01864307.02890017.05538576.05736087.10180267.05736087.02677292 0 .04190153-.01443884.05839433-.0289388.01650498-.01429994.03537189-.0264914.0444418-.04289134.01809406-.03318007.032943-.06853846.04392507-.11523848.0219329-.0936199.03097-.22115038.04340807-.3720703.02488115-.30199991.0341249-.70560511.04392506-1.10277512.00987399-.3971499.02593076-.79661225.04444154-1.08882232.0069342-.1092999.00442145-.18406533.01446953-.25786556.01385411.08803005.03421486.19313578.04392507.3296957.02275099.3199101.0459396.74951537.0578776 1.17460526.01194779.42512006.02232686.85545532.0439248 1.17460526.01081405.1595001.02655279.28953989.0444418.38653984.00897308.04865.01456875.08152157.0289388.11472175.00722207.01679998.01465368.04114403.02945553.05684414.01480609.01569984.04198488.02993866.07286387.02893853.04364196-.00459978.07047018-.03114383.08733314-.05684387.01686083-.02560003.03473159-.05289973.0444418-.08629968.01939501-.06663002.03254295-.15546546.0439248-.25786529.02276898-.20491.03078215-.4774774.04340833-.74465761.01261983-.26722996.0220038-.53385137.0439248-.73122154.01096407-.09862979.02933092-.17722638.0444418-.2289265.0088101.02469992.02194877.04368298.0289388.08578295.01822.1113499.02038562.27093783.02945553.4299479.00906198.15902994.01830414.31747725.04340834.44441719.01256506.06333013.03164337.1251659.05839433.17156588.0267515.04639998.085022.08578295.14676094.08578295.03509618 0 .06474698-.02099152.08785013-.0428916.02309786-.02120001.03132587-.04381342.0439248-.07131342.02520315-.05572998.04676352-.12143819.05839434-.20153815.02328598-.16035998.0220689-.36703475.0289388-.57257473.00685006-.20555002.02568892-.41019226.0444418-.55862219.00937895-.07423018.01497382-.1372825.0289388-.17208262.0031361.00379995.0112895.00376952.01446953.01446954.01591601.04790995.03416485.13434324.0439248.22944322.01953498.19078998.0232656.44098606.02945553.701766.00617009.26075006.00693394.53021468.0289388.73070482.0084.07654978.02690284.1310349.0444418.18603489l-.10283613.38705657.7751466.20050469c.4295857.11275986.86520972-.13796222.98030188-.5586222l.40927734-1.51877049c.11506888-.42058986-.12651052-.84706141-.55603853-.9596313l-.78961588-.21497396-.13125794.48679206c-.00551021-.01390015-.00603938-.02997465-.01446953-.04237461-.02282693-.03210004-.05526696-.0578776-.10283613-.0578776-.04344908 0-.08293497.03047735-.10283614.0578776-.01991386.02729997-.03284802.04874921-.04340807.08474921-.0211291.07239-.0341749.17502426-.04392506.2868041-.01949794.22343004-.02352887.5103352-.0289388.80253522-.00109988.05236977.00081147.0909267 0 .14262682l-.14676094.54518638c-.01075213-.17128013-.02414878-.35527217-.0289388-.5586222-.0061251-.26067992-.0234389-.5164521-.04392506-.71675226-.010237-.10010987-.02143522-.19134852-.04340807-.25734857-.01099-.03319991-.02363285-.06059963-.0444418-.08629967-.02080392-.02560003-.0473829-.04289134-.08784987-.04289134-.03543512 0-.08086354.00632195-.1023194.02842207-.02145612.02209985-.03275912.05879968-.04392507.08629967-.02233983.05520002-.03384497.1206045-.0439248.20050443-.02016601.1597099-.02207895.36789174-.0289388.57309172-.00686197.20523994-.02301081.41081219-.0444418.5586222-.01072515.07386002-.0135157.12309633-.0289388.15709635-.00577691.01349983-.02560558.01146942-.02945553.01446927-.01348211-.02306003-.03235616-.07277418-.04340834-.12867428-.0221099-.11182006-.034925-.2715178-.0439248-.42994792-.00899504-.15842985-.02408687-.30542785-.0444418-.4299479-.01017402-.06229986-.02081318-.1263658-.04340833-.17156563-.01129083-.02250016-.02203794-.03956103-.0439248-.05736087-.021912-.01750007-.05641737-.0294222-.08733314-.02842207-.0436581 0-.07145681.03124412-.08836686.05684414-.01691296.02570004-.01922886.05289947-.0289388.08629967-.01939502.0664898-.03254296.1554652-.0439248.2578653-.02277322.20480999-.04628515.47796423-.05891134.74517408-.01261983.26720006-.02198396.53326479-.0439248.7307048-.00817218.07374996-.01824275.12206579-.0289388.1715659-.01519105-.08641001-.03368516-.20644115-.04392507-.35760105-.0212889-.31434986-.03147007-.73494581-.04340807-1.16013599-.01194117-.4251899-.02136483-.85024197-.0444418-1.17512199-.01153292-.16252983-.02492189-.3005058-.04392506-.40152584-.00947684-.0503801-.0144936-.09387443-.0289388-.12867428-.00722286-.01750007-.0165616-.0271915-.02945553-.04289134-.012886-.0157001-.04408038-.0398915-.0733806-.0428916z"/>
</svg>
