<svg xmlns="http://www.w3.org/2000/svg" width="48" height="48" viewBox="0 0 12.7 12.7">
  <path fill="#e6e6e6" d="M6.34431561.07286377a6.28928043 6.28928043 0 0 0-6.2895386 6.2895385 6.28928043 6.28928043 0 0 0 6.2895386 6.28902166 6.28928043 6.28928043 0 0 0 6.28902167-6.28902167A6.28928043 6.28928043 0 0 0 6.3443156.07286376zm-.01808691.93637693a5.40704372 5.40704372 0 0 1 5.40690507 5.40690505 5.40704372 5.40704372 0 0 1-5.40690507 5.40690508A5.40704372 5.40704372 0 0 1 .91880694 6.41614575 5.40704372 5.40704372 0 0 1 6.3262287 1.0092407zm.12712408 1.76475015A3.57145586 3.57145586 0 0 0 2.7786417 6.34534907a3.57145586 3.57145586 0 1 0 7.14271644 0 3.57145586 3.57145586 0 0 0-3.46800536-3.57135822zM5.36608066 4.34598783c.03097107-.01879996 1.52743586.9008237 1.55856118.91932389.03142588.01869996 1.5691207.90010032 1.56941333.93741027.00031406.03690011-1.52327979.91014549-1.55442707.92862558-.03142906.01869995-1.54197471.94697548-1.57354744.92862557-.03127401-.01840018-.00517763-1.81152612-.00516758-1.84846619.00000741-.0372999-.02608632-1.84657892.00516758-1.86551912z"/>
</svg>
