<svg xmlns="http://www.w3.org/2000/svg" width="48" height="48" viewBox="0 0 12.7 12.7"><path fill="#e6e6e6" d="M6.344.073a6.29 6.29 0 0 0-6.29 6.29 6.29 6.29 0 0 0 6.29 6.288 6.29 6.29 0 0 0 6.29-6.289 6.29 6.29 0 0 0-6.29-6.29zm-.018.936a5.407 5.407 0 0 1 5.407 5.407 5.407 5.407 0 0 1-5.407 5.407A5.407 5.407 0 0 1 .92 6.416 5.407 5.407 0 0 1 6.326 1.01zM8.88 2.153c-.106.008-.224.077-.32.23l-.436.817-.378.834-.461.91-.319.749-.354-.149-.51-.218h-.125l-.107.03-.172.224-.498.654.024.065.053.077.368.218.462.284c.558.338.883.78 1.485.95l.75.086h.126l.008-.033.109-.667.09-.54.008-.116-.065-.12-.44-.201-.254-.11-.156-.099-.018-.007.021-.033.26-.643.235-.568.294-.767.227-.543.192-.484.158-.468c.06-.22-.08-.375-.257-.362zm-3.784 4.29l-.545.62-.421.407-.469.314-.563.295-.653.24-.409.096-.018.053.024.141.095.236.202.39.195.288.38.397.172.17.154.054.7-.006-.415.283-.006.071.248.195.338.195c.437.242.832-.237.832-.237s-.212.363-.2.49h.416l.22-.034.248-.125-.083.13.451.005c.477-.01.792-.285 1.074-.578l.296-.349.231-.347.172-.32.273-.63.208-.514.1-.272h-.098l-.75-.085c-.602-.17-.926-.613-1.484-.95l-.463-.285-.367-.217-.053-.078-.012-.03-.02-.012z"/></svg>