<svg xmlns="http://www.w3.org/2000/svg" width="48" height="48" viewBox="0 0 12.7 12.7">
  <path fill="#e6e6e6" d="M6.34431561.07286377a6.28928043 6.28928043 0 0 0-6.2895386 6.2895385 6.28928043 6.28928043 0 0 0 6.2895386 6.28902166 6.28928043 6.28928043 0 0 0 6.28902167-6.28902167A6.28928043 6.28928043 0 0 0 6.3443156.07286376zm-.01808691.93637693a5.40704372 5.40704372 0 0 1 5.40690507 5.40690505 5.40704372 5.40704372 0 0 1-5.40690507 5.40690508A5.40704372 5.40704372 0 0 1 .91880694 6.41614575 5.40704372 5.40704372 0 0 1 6.3262287 1.0092407zM8.880078 2.15284016c-.10564891.00789312-.22438889.07700742-.320394.22944333l-.43614896.81752116-.37723788.8345744-.46147063.9095052-.31884355.74879146-.35398366-.1483114-.51056301-.21859133h-.12454017l-.10645352.02945553-.17208261.22427591-.49816067.6547403.02377122.06511236.0532265.07648099.36741946.21859134.4625041.28318698c.55805333.33823989.88250155.78013268 1.48466384.94981261l.7498252.0868164h.12609035l.00826823-.03307291.10903744-.66765936.08940006-.53950208.00878496-.11575521-.0651121-.12092278-.43924987-.20050443-.25476465-.10903743-.15606289-.09973548-.01756992-.00723477.02067058-.03307292.26044921-.64285467.23461107-.56740716.29352186-.7673951.22685957-.5431192.1927532-.4836914.1581298-.46870535c.05923519-.21881872-.08112177-.37490111-.25734856-.361735zm-3.78374826 4.2906942l-.54570311.61960018-.42064622.40721042-.46870514.31315924-.5632733.29507233-.65319.2408121-.40876057.09560163-.01757.05270976.02377117.14159336.09508463.23616152.2015381.38964023.1953369.28835456.3798218.39635826.17156562.17104889.1545127.05322676.69969882-.0062013-.41496165.28318697-.0062013.07131341.2485636.19430338.33796393.19482012c.4369173.24230012.83147375-.23616126.83147375-.23616126s-.21192834.3626694-.19895423.49040943h.41496165l.21962507-.0351401.24908033-.12454017-.08319902.13022448.45113521.00516784c.47627698-.01121013.79142325-.28513934 1.07331932-.5782593l.29610606-.34881582.2315104-.34778262.17208263-.31884355.27285156-.6314858.20773918-.51314719.10076895-.27181783h-.09870202l-.74982492-.08578295c-.60205276-.16952991-.92607209-.61214951-1.48414712-.9503296l-.46302083-.28370372-.36690273-.2175576-.05322676-.07751472-.01136861-.02997226-.02015385-.01291908z"/>
</svg>
