<svg xmlns="http://www.w3.org/2000/svg" width="48" height="48" viewBox="0 0 12.7 12.7">
  <path fill="#e6e6e6" d="M6.34431561.07286377a6.28928043 6.28928043 0 0 0-6.2895386 6.2895385 6.28928043 6.28928043 0 0 0 6.2895386 6.28902166 6.28928043 6.28928043 0 0 0 6.28902167-6.28902167A6.28928043 6.28928043 0 0 0 6.3443156.07286376zm-.01808691.93637693a5.40704372 5.40704372 0 0 1 5.40690507 5.40690505 5.40704372 5.40704372 0 0 1-5.40690507 5.40690508A5.40704372 5.40704372 0 0 1 .91880694 6.41614575 5.40704372 5.40704372 0 0 1 6.3262287 1.0092407zm-.61908372 1.44487303a.58369937.58414747 0 0 0-.33176263 1.05109866l.66300879.51108H2.8132648a.58373832.58418642 0 1 0 0 1.16788723h1.4629598l-2.39003487 1.7378783a.58369937.58414747 0 1 0 .68574626.9446453l1.22163095-.88780116a3.11273874 3.1150766 0 0 0-.0077515.15192878 3.11273874 3.1150766 0 0 0 3.1124715 3.1155719 3.11273874 3.1150766 0 0 0 3.11298825-3.1155719 3.11273874 3.1150766 0 0 0-1.3534059-2.56935232.58369937.58414747 0 0 0-.04185789-.03513984L6.08696678 2.57917071a.58369937.58414747 0 0 0-.3798218-.12505698zm1.19889321 2.72696524a1.94826229 1.94826229 0 0 1 1.94820167 1.9482014A1.94826229 1.94826229 0 0 1 6.9060382 9.07748206a1.94826229 1.94826229 0 0 1-1.9482014-1.94820167 1.94826229 1.94826229 0 0 1 1.9482014-1.94820141zm0 .97410084a.97413108.97413108 0 0 0-.97410057.97410057.97413108.97413108 0 0 0 .97410057.97410083.97413108.97413108 0 0 0 .97410084-.97410083.97413108.97413108 0 0 0-.97410084-.97410057z"/>
</svg>
