<svg xmlns="http://www.w3.org/2000/svg" width="48" height="48" viewBox="0 0 12.7 12.7">
  <path fill="#e6e6e6" d="M6.34431561.07286377a6.28928043 6.28928043 0 0 0-6.2895386 6.2895385 6.28928043 6.28928043 0 0 0 6.2895386 6.28902166 6.28928043 6.28928043 0 0 0 6.28902167-6.28902167A6.28928043 6.28928043 0 0 0 6.3443156.07286376zm-.01808691.93637693a5.40704372 5.40704372 0 0 1 5.40690507 5.40690505 5.40704372 5.40704372 0 0 1-5.40690507 5.40690508A5.40704372 5.40704372 0 0 1 .91880694 6.41614575 5.40704372 5.40704372 0 0 1 6.3262287 1.0092407zm-.52916666.30954184V5.2151856l-2.4262085-2.35489509-.74879141.7265707 2.9553751 2.86907548-2.9553751 2.86855876.7487914.72708716 2.4262085-2.35541156v3.89640282h.52916667L9.34516577 8.6620034 7.07502016 6.4559367l2.2701456-2.2065837L6.3262287 1.31878254h-.52916666zm1.05833332 1.96783851l.9947714.96531561-.9947714.96324895V3.28662105zm0 4.4069661l.9947714.96841626-.9947714.96324868V7.69358714z"/>
</svg>
