<?xml version="1.0" encoding="UTF-8" standalone="no"?>
<!-- Created with Inkscape (http://www.inkscape.org/) -->

<svg
   xmlns:dc="http://purl.org/dc/elements/1.1/"
   xmlns:cc="http://creativecommons.org/ns#"
   xmlns:rdf="http://www.w3.org/1999/02/22-rdf-syntax-ns#"
   xmlns:svg="http://www.w3.org/2000/svg"
   xmlns="http://www.w3.org/2000/svg"
   xmlns:xlink="http://www.w3.org/1999/xlink"
   xmlns:sodipodi="http://sodipodi.sourceforge.net/DTD/sodipodi-0.dtd"
   xmlns:inkscape="http://www.inkscape.org/namespaces/inkscape"
   width="48"
   height="48"
   viewBox="0 0 12.7 12.7"
   version="1.1"
   id="svg829"
   inkscape:version="0.92.3 (2405546, 2018-03-11)"
   sodipodi:docname="bluegriffon.svg">
  <defs
     id="defs823">
    <linearGradient
       xlink:href="#blue-gradient-5"
       id="linearGradient4351"
       x1="24"
       y1="1008.362"
       x2="24"
       y2="1048.3621"
       gradientUnits="userSpaceOnUse"
       gradientTransform="matrix(0.25135416,0,0,0.25135416,0.31750034,32.214723)" />
    <linearGradient
       id="blue-gradient-5">
      <stop
         style="stop-color:#054e87;stop-opacity:1"
         offset="0"
         id="stop2" />
      <stop
         style="stop-color:#1d99f3;stop-opacity:1"
         offset="1"
         id="stop4" />
    </linearGradient>
  </defs>
  <sodipodi:namedview
     id="base"
     pagecolor="#ffffff"
     bordercolor="#666666"
     borderopacity="1.0"
     inkscape:pageopacity="0.0"
     inkscape:pageshadow="2"
     inkscape:zoom="3.9111844"
     inkscape:cx="-24.962151"
     inkscape:cy="22.977292"
     inkscape:document-units="mm"
     inkscape:current-layer="layer1"
     showgrid="false"
     showguides="true"
     inkscape:guide-bbox="true"
     inkscape:window-width="1366"
     inkscape:window-height="719"
     inkscape:window-x="0"
     inkscape:window-y="25"
     inkscape:window-maximized="1"
     scale-x="1.9"
     units="px"
     inkscape:snap-global="false" />
  <metadata
     id="metadata826">
    <rdf:RDF>
      <cc:Work
         rdf:about="">
        <dc:format>image/svg+xml</dc:format>
        <dc:type
           rdf:resource="http://purl.org/dc/dcmitype/StillImage" />
        <dc:title></dc:title>
      </cc:Work>
    </rdf:RDF>
  </metadata>
  <g
     inkscape:label="Capa 1"
     inkscape:groupmode="layer"
     id="layer1"
     transform="translate(0,-284.3)">
    <path
       style="fill:#e6e6e6;fill-opacity:1;stroke-width:0.52516764"
       d="M 24.001953 0.23046875 A 23.770509 23.770509 0 0 0 0.23046875 24.001953 A 23.770509 23.770509 0 0 0 24.001953 47.769531 A 23.770509 23.770509 0 0 0 47.769531 24.001953 A 23.770509 23.770509 0 0 0 43.021484 9.7910156 L 40.601562 12.427734 A 20.436071 20.436071 0 0 1 44.369141 24.203125 A 20.436071 20.436071 0 0 1 23.933594 44.640625 A 20.436071 20.436071 0 0 1 3.4960938 24.203125 A 20.436071 20.436071 0 0 1 23.933594 3.7695312 A 20.436071 20.436071 0 0 1 33.525391 6.171875 L 37.015625 4.1210938 A 23.770509 23.770509 0 0 0 24.001953 0.23046875 z M 42.349609 3.2011719 C 42.349609 3.1505262 41.774616 3.5449215 41.070312 4.0761719 C 34.444955 9.0725939 26.162281 13.44224 21.525391 14.388672 L 20.652344 14.566406 L 20.320312 15.4375 C 19.165532 18.473292 15.882771 20.626404 10.736328 21.722656 C 9.9232229 21.895759 9.0516649 22.142943 8.7988281 22.271484 C 8.0177271 22.668599 7.1095379 23.576965 6.6992188 24.373047 C 6.3677315 25.015982 6.3171106 25.292579 6.3671875 26.164062 C 6.4093066 26.897593 6.5095654 27.286572 6.7167969 27.511719 C 6.9954803 27.814459 7.691161 27.974771 7.515625 27.695312 C 7.3776004 27.475722 8.0311294 26.773578 8.6777344 26.449219 C 9.7247225 25.924091 11.350861 25.676315 13.052734 25.699219 C 13.356612 25.702998 13.722456 25.719006 13.974609 25.738281 C 15.249063 25.828612 16.516754 26.068018 17.568359 26.460938 C 18.133829 26.672213 18.611326 26.925734 19 27.210938 C 20.451034 27.954182 21.67186 28.920486 22.697266 30.037109 C 22.698139 29.999314 22.703125 29.96553 22.703125 29.927734 C 22.709437 29.193637 22.734512 28.592099 22.757812 28.591797 C 22.781208 28.591495 22.873622 28.781016 22.962891 29.011719 C 23.179359 29.570673 23.293159 30.158239 23.314453 30.75 C 25.260748 33.167008 26.410245 36.145012 27.085938 39.019531 C 27.986594 37.485194 28.839943 35.455577 28.84375 34.626953 C 28.849155 33.400307 29.713511 35.808002 29.986328 37.810547 L 30.175781 39.197266 L 30.517578 38.357422 C 31.089141 36.95363 31.357773 35.486606 31.359375 33.757812 C 31.360239 32.864143 31.315027 31.988966 31.257812 31.8125 C 31.200934 31.635996 31.216743 31.490234 31.292969 31.490234 C 31.480131 31.490234 32.96827 32.981471 33.349609 33.550781 C 33.709458 34.087928 33.736804 33.854481 33.441406 32.763672 C 32.660305 29.879401 30.419375 27.161528 27.222656 25.220703 L 25.988281 24.470703 L 26.601562 24.453125 C 26.93946 24.441786 27.42551 24.387149 27.681641 24.330078 L 28.148438 24.226562 L 27.527344 24.019531 L 26.90625 23.810547 L 27.900391 23.611328 C 28.447761 23.501344 29.390979 23.180352 29.996094 22.898438 L 31.097656 22.386719 L 29.699219 22.441406 L 28.302734 22.496094 L 29.388672 22.134766 C 30.90069 21.633071 33.802974 20.135827 33.617188 19.953125 C 33.590995 19.926668 33.047185 20.038274 32.410156 20.201172 C 30.537346 20.67932 30.339064 20.575914 31.802734 19.880859 C 33.227596 19.204211 35.233421 17.929778 36.21875 17.076172 L 36.839844 16.539062 L 35.675781 17.054688 C 34.68714 17.493075 32.431625 18.214844 32.046875 18.214844 C 31.981984 18.214844 32.379031 17.983276 32.929688 17.701172 C 34.506334 16.893222 35.931186 15.82318 37.693359 14.125 L 39.324219 12.552734 L 38.003906 13.238281 C 36.756333 13.885828 34.123047 15.049503 34.123047 14.953125 C 34.123047 14.930448 34.455815 14.676257 34.861328 14.394531 C 36.434852 13.301038 39.220261 10.412352 40.869141 8.1640625 L 41.46875 7.3476562 L 40 8.4765625 C 38.432554 9.6812113 35.230092 11.722116 35.103516 11.597656 C 35.061846 11.556459 35.219007 11.401244 35.451172 11.251953 C 36.136612 10.810391 39.153873 7.45816 40.8125 5.296875 C 41.658555 4.1943868 42.349609 3.251742 42.349609 3.2011719 z "
       transform="matrix(0.26458333,0,0,0.26458333,0,284.3)"
       id="path821" />
  </g>
</svg>
