<?xml version="1.0" encoding="UTF-8" standalone="no"?>
<!-- Created with Inkscape (http://www.inkscape.org/) -->

<svg
   xmlns:dc="http://purl.org/dc/elements/1.1/"
   xmlns:cc="http://creativecommons.org/ns#"
   xmlns:rdf="http://www.w3.org/1999/02/22-rdf-syntax-ns#"
   xmlns:svg="http://www.w3.org/2000/svg"
   xmlns="http://www.w3.org/2000/svg"
   xmlns:sodipodi="http://sodipodi.sourceforge.net/DTD/sodipodi-0.dtd"
   xmlns:inkscape="http://www.inkscape.org/namespaces/inkscape"
   width="48"
   height="48"
   viewBox="0 0 12.7 12.7"
   version="1.1"
   id="svg829"
   inkscape:version="0.92.3 (2405546, 2018-03-11)"
   sodipodi:docname="bluefish.svg">
  <defs
     id="defs823" />
  <sodipodi:namedview
     id="base"
     pagecolor="#ffffff"
     bordercolor="#666666"
     borderopacity="1.0"
     inkscape:pageopacity="0.0"
     inkscape:pageshadow="2"
     inkscape:zoom="11.1875"
     inkscape:cx="22.793296"
     inkscape:cy="23.642458"
     inkscape:document-units="mm"
     inkscape:current-layer="layer1"
     showgrid="false"
     showguides="true"
     inkscape:guide-bbox="true"
     inkscape:window-width="1366"
     inkscape:window-height="719"
     inkscape:window-x="0"
     inkscape:window-y="25"
     inkscape:window-maximized="1"
     scale-x="1.9"
     units="px"
     inkscape:snap-global="false" />
  <metadata
     id="metadata826">
    <rdf:RDF>
      <cc:Work
         rdf:about="">
        <dc:format>image/svg+xml</dc:format>
        <dc:type
           rdf:resource="http://purl.org/dc/dcmitype/StillImage" />
        <dc:title></dc:title>
      </cc:Work>
    </rdf:RDF>
  </metadata>
  <g
     inkscape:label="Capa 1"
     inkscape:groupmode="layer"
     id="layer1"
     transform="translate(0,-284.3)">
    <path
       style="fill:#e6e6e6;fill-opacity:1;stroke-width:0.52516764"
       d="M 23.978516 0.27539062 A 23.770509 23.770509 0 0 0 0.20703125 24.046875 A 23.770509 23.770509 0 0 0 23.978516 47.816406 A 23.770509 23.770509 0 0 0 47.748047 24.046875 A 23.770509 23.770509 0 0 0 23.978516 0.27539062 z M 23.910156 3.8144531 A 20.436071 20.436071 0 0 1 44.345703 24.25 A 20.436071 20.436071 0 0 1 23.910156 44.685547 A 20.436071 20.436071 0 0 1 3.4726562 24.25 A 20.436071 20.436071 0 0 1 23.910156 3.8144531 z M 20.710938 16.355469 L 20.710938 16.359375 C 20.502033 16.341989 20.289847 16.44724 20.185547 16.644531 C 19.018876 18.846673 18.36724 21.319223 18.285156 23.824219 L 17.880859 23.824219 C 17.839954 22.864483 17.690356 21.913586 17.433594 20.994141 C 17.353695 20.708786 17.057621 20.540968 16.771484 20.621094 C 16.485287 20.700917 16.318523 20.996715 16.398438 21.283203 C 16.676847 22.27994 16.818359 23.314336 16.818359 24.359375 C 16.818359 26.708654 16.113878 28.952176 14.78125 30.867188 C 12.259586 30.386734 10.015906 29.499783 8.4335938 28.351562 C 7.2964356 27.526417 5.9414062 26.161718 5.9414062 24.359375 C 5.9414062 22.557069 7.2962957 21.196202 8.4335938 20.371094 C 10.015906 19.222873 12.259514 18.33562 14.78125 17.855469 C 15.176648 18.424401 15.521857 19.027601 15.806641 19.65625 C 15.929355 19.926562 16.246881 20.048616 16.517578 19.925781 C 16.788319 19.803136 16.909755 19.483883 16.787109 19.212891 C 16.425395 18.414465 15.97592 17.650622 15.453125 16.943359 C 15.331967 16.78084 15.130327 16.705965 14.929688 16.732422 C 8.9105687 17.783546 4.8652344 20.850449 4.8652344 24.361328 C 4.8652344 27.872169 8.9105676 30.935758 14.929688 31.988281 C 14.960641 31.994102 14.988728 31.996094 15.019531 31.996094 C 15.188321 31.996094 15.350571 31.917628 15.453125 31.779297 C 16.942867 29.76428 17.777996 27.394134 17.882812 24.898438 L 18.285156 24.898438 C 18.367248 27.403583 19.018879 29.875908 20.185547 32.078125 C 20.282153 32.260676 20.471217 32.363281 20.664062 32.363281 C 20.749068 32.363281 20.833805 32.345065 20.914062 32.302734 C 21.176657 32.16361 21.277808 31.836518 21.138672 31.574219 C 20.053885 29.526622 19.442943 27.228364 19.361328 24.898438 L 21.087891 24.898438 C 21.117397 25.812553 21.218779 26.725685 21.396484 27.615234 C 21.447579 27.870957 21.674401 28.046875 21.925781 28.046875 C 21.960734 28.046875 21.995685 28.044668 22.03125 28.037109 C 22.322754 27.978867 22.509422 27.696076 22.451172 27.404297 C 22.287261 26.583988 22.19324 25.743754 22.164062 24.900391 L 23.886719 24.900391 C 23.959899 27.223364 24.505573 29.455007 25.515625 31.542969 C 25.60855 31.734213 25.800063 31.845703 26 31.845703 C 26.078626 31.845703 26.158796 31.819425 26.234375 31.792969 C 26.501845 31.663558 26.613816 31.341809 26.484375 31.074219 C 25.545658 29.133809 25.035647 27.057605 24.962891 24.898438 L 26.685547 24.898438 C 26.751364 26.974531 27.19978 28.988994 28.019531 30.890625 C 28.107216 31.093964 28.305318 31.216797 28.513672 31.216797 C 28.584799 31.216797 28.657137 31.198332 28.726562 31.171875 C 28.999475 31.054256 29.125503 30.738104 29.007812 30.464844 C 28.24638 28.698482 27.829182 26.827016 27.763672 24.898438 L 29.488281 24.898438 C 29.543268 26.617025 29.860456 28.30135 30.435547 29.912109 C 30.514105 30.132078 30.720311 30.269531 30.941406 30.269531 C 31.001421 30.269531 31.061324 30.247413 31.121094 30.228516 C 31.400979 30.128547 31.549142 29.823032 31.449219 29.542969 C 30.915679 28.048468 30.619003 26.485321 30.564453 24.890625 L 32.287109 24.890625 C 32.325395 26.079475 32.490121 27.260335 32.779297 28.40625 C 32.84087 28.650483 33.060161 28.814453 33.300781 28.814453 C 33.344299 28.814453 33.387428 28.806387 33.431641 28.798828 C 33.719757 28.726186 33.895033 28.430578 33.822266 28.142578 C 33.554823 27.082572 33.403079 25.99261 33.365234 24.892578 L 35.007812 24.892578 L 35.007812 26.716797 C 35.007812 29.779537 37.499863 32.271484 40.5625 32.271484 C 40.859688 32.271484 41.099609 32.029115 41.099609 31.732422 L 41.099609 29.371094 C 41.099609 27.160826 39.803006 25.247034 37.929688 24.353516 C 39.803149 23.459922 41.099609 21.548045 41.099609 19.337891 L 41.099609 16.978516 C 41.099609 16.680878 40.859684 16.439453 40.5625 16.439453 C 39.449463 16.439453 38.373907 16.76796 37.455078 17.388672 C 37.208804 17.555047 37.144172 17.890294 37.310547 18.136719 C 37.476929 18.383144 37.810291 18.445218 38.056641 18.279297 C 38.647664 17.879725 39.320181 17.634687 40.023438 17.550781 L 40.023438 19.337891 C 40.023437 21.62511 38.300483 23.518322 36.083984 23.785156 L 36.083984 21.994141 C 36.083984 21.039697 36.381388 20.130008 36.941406 19.361328 C 37.116436 19.121101 37.062455 18.784367 36.822266 18.609375 C 36.581999 18.433627 36.245263 18.486563 36.070312 18.726562 C 35.375338 19.680515 35.007812 20.810468 35.007812 21.994141 L 35.007812 23.818359 L 33.365234 23.818359 C 33.40317 22.718252 33.554819 21.62645 33.822266 20.566406 C 33.895014 20.278784 33.71983 19.985432 33.431641 19.912109 C 33.143249 19.839202 32.852045 20.014734 32.779297 20.302734 C 32.490198 21.448763 32.325392 22.629509 32.287109 23.818359 L 30.564453 23.818359 C 30.619016 22.223588 30.915673 20.658677 31.449219 19.164062 C 31.549147 18.883963 31.400998 18.579051 31.121094 18.478516 C 30.841405 18.379303 30.53547 18.524625 30.435547 18.804688 C 29.860534 20.415483 29.543285 22.099846 29.488281 23.818359 L 27.763672 23.818359 C 27.78497 23.200142 27.841784 22.582307 27.935547 21.976562 C 27.981053 21.68297 27.780028 21.409014 27.486328 21.363281 C 27.192485 21.317851 26.918447 21.518831 26.873047 21.8125 C 26.770848 22.472557 26.707317 23.145188 26.685547 23.818359 L 24.962891 23.818359 C 25.035642 21.659153 25.545657 19.585167 26.484375 17.644531 C 26.613809 17.377092 26.501966 17.055419 26.234375 16.925781 C 25.966861 16.796143 25.645066 16.906238 25.515625 17.173828 C 24.505573 19.261753 23.959898 21.495462 23.886719 23.818359 L 22.162109 23.818359 C 22.239317 21.518101 22.811279 19.317696 23.867188 17.275391 C 24.003639 17.011391 23.900764 16.689175 23.636719 16.552734 C 23.372804 16.416293 23.046612 16.51977 22.910156 16.783203 C 21.791328 18.946869 21.164386 21.368659 21.083984 23.818359 L 19.361328 23.818359 C 19.442934 21.488281 20.053956 19.190137 21.138672 17.142578 C 21.277883 16.880241 21.176706 16.554724 20.914062 16.416016 C 20.848447 16.377842 20.780567 16.359248 20.710938 16.355469 z M 28.517578 17.501953 L 28.517578 17.505859 C 28.307857 17.503214 28.107806 17.625228 28.019531 17.830078 C 27.748191 18.459634 27.512425 19.113166 27.322266 19.771484 C 27.239815 20.056877 27.403963 20.355106 27.689453 20.4375 C 27.739358 20.452618 27.790389 20.457031 27.839844 20.457031 C 28.073388 20.457031 28.289341 20.30458 28.357422 20.068359 C 28.535055 19.453317 28.754241 18.842114 29.007812 18.253906 C 29.12551 17.980949 28.99952 17.664418 28.726562 17.546875 C 28.658313 17.512481 28.587484 17.502482 28.517578 17.501953 z M 36.083984 24.925781 C 38.300411 25.192238 40.023438 27.083988 40.023438 29.371094 L 40.023438 31.162109 C 37.807013 30.895577 36.083984 29.00394 36.083984 26.716797 L 36.083984 24.925781 z M 22.386719 28.576172 L 22.386719 28.580078 C 22.317119 28.572519 22.246851 28.580712 22.175781 28.599609 C 21.892067 28.687975 21.731914 28.990351 21.820312 29.273438 C 22.104603 30.186117 22.472401 31.079256 22.912109 31.929688 C 23.007651 32.114505 23.195798 32.220703 23.390625 32.220703 C 23.47385 32.220703 23.557662 32.200534 23.636719 32.158203 C 23.900764 32.0218 24.003639 31.700114 23.867188 31.435547 C 23.456356 30.640863 23.113195 29.8059 22.847656 28.953125 C 22.781309 28.740338 22.595492 28.59507 22.386719 28.576172 z "
       transform="matrix(0.26458333,0,0,0.26458333,0,284.3)"
       id="path822" />
  </g>
</svg>
