<svg xmlns="http://www.w3.org/2000/svg" width="48" height="48" viewBox="0 0 12.7 12.7"><g fill="#e6e6e6"><path d="M6.344.073a6.29 6.29 0 0 0-6.29 6.29 6.29 6.29 0 0 0 6.29 6.288 6.29 6.29 0 0 0 6.29-6.289 6.29 6.29 0 0 0-6.29-6.29zm-.018.936a5.407 5.407 0 0 1 5.407 5.407 5.407 5.407 0 0 1-5.407 5.407A5.407 5.407 0 0 1 .92 6.416 5.407 5.407 0 0 1 6.326 1.01z"/><path d="M5.15 3.797c-1.947.037-3.295 1.117-3.295 2.516 0 1.4 1.537 2.572 3.322 2.59 1.616.015 3.354-1.152 3.932-2.058.269.44.796 1.007 1.736 1.007 0 0-.438-.794-.438-1.524s.438-1.48.438-1.48c-.957 0-1.488.58-1.752 1.017-.584-.788-2.269-2.053-3.942-2.068zm-1.703.914a.683.858 0 0 1 .664.858.683.858 0 1 1-1.367 0 .683.858 0 0 1 .703-.858zm-.013.584a.228.275 0 0 0-.08.014.114.137 0 0 1 .13.137.114.137 0 0 1-.227 0 .114.137 0 0 1 .025-.089.228.275 0 0 0-.082.212.228.275 0 0 0 .455 0 .228.275 0 0 0-.221-.274zm-.083.015a.114.137 0 0 0-.065.044.228.275 0 0 1 .065-.044z"/></g></svg>