<svg xmlns="http://www.w3.org/2000/svg" width="48" height="48" viewBox="0 0 12.7 12.7">
  <path fill="#e6e6e6" d="M6.3443558.07295A6.2892804 6.2892804 0 0 0 .05494145 6.36237a6.2892804 6.2892804 0 0 0 6.28941435 6.28914 6.2892804 6.2892804 0 0 0 6.2891432-6.28914A6.2892804 6.2892804 0 0 0 6.3443558.07295zm-.018184.9363a5.4070438 5.4070438 0 0 1 5.4071322 5.40711 5.4070438 5.4070438 0 0 1-5.4071322 5.40686A5.4070438 5.4070438 0 0 1 .91903946 6.41636 5.4070438 5.4070438 0 0 1 6.3261718 1.00925z"/>
  <path fill="#faa" fill-rule="evenodd" d="M4.98005782 1.73271075c-.61742478 0-1.08280173.38452504-1.26090494.73225503-.17753753.34771006-.17001569.68109538-.17001569.68109538v7.41660147L6.3763548 9.14879546l2.82515068 1.41386717.00568431-4.30671388h-.00206692l-.0020672-3.1098876s.00769012-.33036112-.1658813-.67696126c-.17358202-.34714997-.63564981-.73638914-1.24798586-.73638914H4.9800578zM6.37583807 2.738334c.15559378 0 .65702417 1.25748176.7828981 1.3492718.12587473.09179983 1.47279068.18221907 1.52083742.33072916.04807797.14851988-.98851084 1.0157899-1.03662928 1.16426984-.0481211.14847014.28245328 1.4621105.15657962 1.55391033-.12587473.0918001-1.26817436-.6299356-1.42368586-.6299356-.15559378 0-1.29788283.72172565-1.4236856.6299356-.12587392-.09179983.20465733-1.40547035.15657963-1.55391033-.04807797-.14851988-1.08467603-1.0157899-1.03662929-1.16426984.04808088-.1485101 1.39493227-.23894917 1.52083742-.33072916.12587393-.0918001.62730406-1.3492718.78289784-1.3492718z" font-family="sans-serif" font-weight="400" opacity=".75" overflow="visible" style="font-variant-ligatures:normal;font-variant-position:normal;font-variant-caps:normal;font-variant-numeric:normal;font-variant-alternates:normal;font-feature-settings:normal;text-indent:0;text-decoration-line:none;text-decoration-style:solid;text-decoration-color:#000;text-transform:none;text-orientation:mixed;shape-padding:0;isolation:auto;mix-blend-mode:normal" white-space="normal"/>
</svg>
