<?xml version="1.0" encoding="UTF-8" standalone="no"?>
<!-- Created with Inkscape (http://www.inkscape.org/) -->

<svg
   xmlns:dc="http://purl.org/dc/elements/1.1/"
   xmlns:cc="http://creativecommons.org/ns#"
   xmlns:rdf="http://www.w3.org/1999/02/22-rdf-syntax-ns#"
   xmlns:svg="http://www.w3.org/2000/svg"
   xmlns="http://www.w3.org/2000/svg"
   xmlns:sodipodi="http://sodipodi.sourceforge.net/DTD/sodipodi-0.dtd"
   xmlns:inkscape="http://www.inkscape.org/namespaces/inkscape"
   width="48"
   height="48"
   viewBox="0 0 12.7 12.7"
   version="1.1"
   id="svg829"
   inkscape:version="0.92.3 (2405546, 2018-03-11)"
   sodipodi:docname="boot.svg">
  <defs
     id="defs823" />
  <sodipodi:namedview
     id="base"
     pagecolor="#ffffff"
     bordercolor="#666666"
     borderopacity="1.0"
     inkscape:pageopacity="0.0"
     inkscape:pageshadow="2"
     inkscape:zoom="7.9254885"
     inkscape:cx="22.296635"
     inkscape:cy="23.495299"
     inkscape:document-units="mm"
     inkscape:current-layer="layer1"
     showgrid="false"
     showguides="true"
     inkscape:guide-bbox="true"
     inkscape:window-width="1366"
     inkscape:window-height="719"
     inkscape:window-x="0"
     inkscape:window-y="25"
     inkscape:window-maximized="1"
     scale-x="1.9"
     units="px"
     inkscape:snap-global="false" />
  <metadata
     id="metadata826">
    <rdf:RDF>
      <cc:Work
         rdf:about="">
        <dc:format>image/svg+xml</dc:format>
        <dc:type
           rdf:resource="http://purl.org/dc/dcmitype/StillImage" />
        <dc:title></dc:title>
      </cc:Work>
    </rdf:RDF>
  </metadata>
  <g
     inkscape:label="Capa 1"
     inkscape:groupmode="layer"
     id="layer1"
     transform="translate(0,-284.3)">
    <path
       inkscape:connector-curvature="0"
       style="fill:#e6e6e6;stroke-width:0.03990378"
       d="m 5.5644792,284.47062 v 6.16311 h 1.5409872 v -6.16311 z m -0.7700718,1.76451 c -2.2272943,0.66295 -3.85120185,2.72603 -3.85120185,5.16867 0,2.97807 2.41414265,5.39219 5.39218915,5.39219 2.9780952,0 5.3921893,-2.41412 5.3921893,-5.39219 0,-2.44264 -1.624727,-4.50572 -3.8520458,-5.16867 v 1.63629 c 0.4358104,0.19023 0.8370304,0.46256 1.183363,0.80887 0.7274747,0.72748 1.1276958,1.69473 1.1276958,2.72351 0,1.02878 -0.4002211,1.99604 -1.1276958,2.72349 -0.7274979,0.72748 -1.6946912,1.12771 -2.7235065,1.12771 -1.0288152,0 -1.9960324,-0.40023 -2.7235069,-1.12771 -0.7274744,-0.72745 -1.1285388,-1.69471 -1.1285388,-2.72349 0,-1.02878 0.4010644,-1.99603 1.1285388,-2.72351 0.3463329,-0.34633 0.7467333,-0.61864 1.1825196,-0.80887 z"
       id="path836" />
  </g>
</svg>
