<svg xmlns="http://www.w3.org/2000/svg" width="48" height="48" viewBox="0 0 12.7 12.7">
  <path fill="#e6e6e6" d="M6.3443153.07286A6.2892802 6.2892802 0 0 0 .05477663 6.3624a6.2892802 6.2892802 0 0 0 6.28953867 6.28902A6.2892802 6.2892802 0 0 0 12.633337 6.3624 6.2892802 6.2892802 0 0 0 6.3443153.07286zm-.01809.93638a5.4070435 5.4070435 0 0 1 5.4069037 5.40691 5.4070435 5.4070435 0 0 1-5.4069037 5.4069 5.4070435 5.4070435 0 0 1-5.40742167-5.4069A5.4070435 5.4070435 0 0 1 6.3262253 1.00924zm-.0124 3.65559a1.7116008 1.7116008 0 0 0-1.7120397 1.71152 1.7116008 1.7116008 0 0 0 1.7120397 1.71153 1.7116008 1.7116008 0 0 0 1.711524-1.71153 1.7116008 1.7116008 0 0 0-1.711524-1.71152z"/>
  <g fill="#2995cc">
    <path d="M6.3257099 1.57588s2.8080502-.1261 4.2963241 2.69107H6.0869636s-.8564633-.027-1.5865611 1.00913c-.2106054.43439-.435208.88294-.1824772 1.76588-.3650185-.61653-1.9376012-3.3496-1.9376012-3.3496S3.489578 1.68815 6.3257099 1.57588z"/>
    <path d="M10.475888 8.72828s-1.2948761 2.4901-4.4830485 2.36782c.393289-.67953 2.2680827-3.92004 2.2680827-3.92004s.4526087-.72648-.081865-1.87622c-.6283458-.91097-1.269353-1.0683-1.987173-1.04097.7176777-.014 4.4212078.003 4.4212078.003s1.183822 1.96129-.137217 4.46895z" opacity=".4"/>
    <path d="M2.1955307 8.74718s-1.51297072-2.36472.1875374-5.0595c.3929902.67977 2.2667451 3.92094 2.2667451 3.92094s.4036402.75442 1.6685153.86729c.4821539-.0345.9837348-.0663 1.6234901-.72472-.3527441.62391-1.9380519 3.34926-1.9380519 3.34926s-2.2933998.0429-3.808236-2.35327z" opacity=".7"/>
  </g>
</svg>
