<svg xmlns="http://www.w3.org/2000/svg" width="48" height="48" viewBox="0 0 12.7 12.7">
  <path fill="#e6e6e6" d="M6.34431561.07286377a6.28928043 6.28928043 0 0 0-6.2895386 6.2895385 6.28928043 6.28928043 0 0 0 6.2895386 6.28902166 6.28928043 6.28928043 0 0 0 6.28902167-6.28902167A6.28928043 6.28928043 0 0 0 6.3443156.07286376zm-.01808691.93637693a5.40704372 5.40704372 0 0 1 5.40690507 5.40690505 5.40704372 5.40704372 0 0 1-5.40690507 5.40690508A5.40704372 5.40704372 0 0 1 .91880694 6.41614575 5.40704372 5.40704372 0 0 1 6.3262287 1.0092407zm-.93586008.57825928c-.09938491.0112-.18699136.09390663-.20515554.19378663l-.19740403 1.01905912c-.35504331.14107001-.68905728.3349617-.98185207.57309173l-.97410083-.33486328c-.10120948-.03549994-.22415844.0113964-.27853587.10438633l-.93741049 1.65209562c-.05281297.09509998-.02976554.22647618.05167646.29765624l.77618.69194732c-.027324.18555996-.04392497.37203036-.04392497.56534023-4e-7.19330008.01658496.38028694.04392496.56585696l-.77617999.69194732c-.081432.0714002-.10448985.20264622-.05167646.29765625l.93741049 1.65209562c.0543769.09370006.17732692.13931952.27853587.10386959l.97410083-.33486328c.2927985.23810013.62680823.43201166.98185207.57309173l.19792077 1.01957583c.02005806.10666015.11993139.19178005.22685956.19326992h1.8753378c.10692766-.00100012.20681263-.0864899.22685958-.19326992l.19792076-1.01957583c.35504358-.14107001.68854055-.33498181.98133534-.57309173l.97461757.33486328c.10120762.03549994.22312523-.01087967.2775024-.1038696l.93792727-1.65209561c.05279998-.09509998.03027018-.22650609-.05115983-.29765625l-.7761798-.69194732c.0273198-.18555996.04340806-.37253703.04340806-.56585696 0-.19330987-.0161081-.37977021-.04340807-.56534023l.7761798-.69194732c.08142023-.07110015.10398866-.20263617.05115984-.29765624L9.94616283 3.1429605c-.0543769-.0936998-.1762969-.13984632-.2775024-.10438633l-.97461757.33486328c-.29299614-.23827-.62639257-.43201166-.98133534-.57309173l-.19792076-1.01905912c-.0200586-.10664-.11993113-.19228663-.22685957-.19378663h-1.8753378c-.00733981-.00018-.01440313-.00018-.02170404 0h-.00051673zm.97978514 2.54454763a2.22249616 2.22249616 0 0 1 2.22260316 2.22260316 2.22249616 2.22249616 0 0 1-2.22260316 2.22208669 2.22249616 2.22249616 0 0 1-2.22260342-2.2220867 2.22249616 2.22249616 0 0 1 2.22260342-2.22260315zm.06666257.65990786a1.56684168 1.56684168 0 0 0-1.56682941 1.56682941 1.56684168 1.56684168 0 0 0 1.5668294 1.5668294 1.56684168 1.56684168 0 0 0 .98546946-.34829908l-.37051985-.36948638a1.03767619 1.03767619 0 0 1-.60461419.19378638 1.03767619 1.03767619 0 0 1-1.037663-1.03766274 1.03767619 1.03767619 0 0 1 1.037663-1.03766275 1.03767619 1.03767619 0 0 1 .63096907.2139405l.3860231-.36431882a1.56684168 1.56684168 0 0 0-1.02732758-.38395592z"/>
</svg>
