<?xml version="1.0" encoding="UTF-8" standalone="no"?>
<!-- Created with Inkscape (http://www.inkscape.org/) -->

<svg
   xmlns:dc="http://purl.org/dc/elements/1.1/"
   xmlns:cc="http://creativecommons.org/ns#"
   xmlns:rdf="http://www.w3.org/1999/02/22-rdf-syntax-ns#"
   xmlns:svg="http://www.w3.org/2000/svg"
   xmlns="http://www.w3.org/2000/svg"
   xmlns:sodipodi="http://sodipodi.sourceforge.net/DTD/sodipodi-0.dtd"
   xmlns:inkscape="http://www.inkscape.org/namespaces/inkscape"
   width="48"
   height="48"
   viewBox="0 0 12.7 12.7"
   version="1.1"
   id="svg829"
   inkscape:version="0.92.3 (2405546, 2018-03-11)"
   sodipodi:docname="compton.svg">
  <defs
     id="defs823" />
  <sodipodi:namedview
     id="base"
     pagecolor="#ffffff"
     bordercolor="#666666"
     borderopacity="1.0"
     inkscape:pageopacity="0.0"
     inkscape:pageshadow="2"
     inkscape:zoom="1.9813721"
     inkscape:cx="17.18654"
     inkscape:cy="21.981197"
     inkscape:document-units="mm"
     inkscape:current-layer="layer1"
     showgrid="false"
     showguides="true"
     inkscape:guide-bbox="true"
     inkscape:window-width="1366"
     inkscape:window-height="719"
     inkscape:window-x="0"
     inkscape:window-y="25"
     inkscape:window-maximized="1"
     scale-x="1.9"
     units="px"
     inkscape:snap-global="false"
     inkscape:snap-bbox="false"
     inkscape:snap-nodes="true"
     inkscape:snap-others="true" />
  <metadata
     id="metadata826">
    <rdf:RDF>
      <cc:Work
         rdf:about="">
        <dc:format>image/svg+xml</dc:format>
        <dc:type
           rdf:resource="http://purl.org/dc/dcmitype/StillImage" />
        <dc:title></dc:title>
      </cc:Work>
    </rdf:RDF>
  </metadata>
  <g
     inkscape:label="Capa 1"
     inkscape:groupmode="layer"
     id="layer1"
     transform="translate(0,-284.3)">
    <path
       style="fill:#e6e6e6;fill-opacity:1;stroke-width:0.52516764"
       d="M 23.978516 0.27539062 A 23.770509 23.770509 0 0 0 0.20703125 24.046875 A 23.770509 23.770509 0 0 0 23.978516 47.816406 A 23.770509 23.770509 0 0 0 47.748047 24.046875 A 23.770509 23.770509 0 0 0 23.978516 0.27539062 z M 23.910156 3.8144531 A 20.436071 20.436071 0 0 1 44.345703 24.25 A 20.436071 20.436071 0 0 1 23.910156 44.685547 A 20.436071 20.436071 0 0 1 3.4726562 24.25 A 20.436071 20.436071 0 0 1 23.910156 3.8144531 z M 20.373047 6 C 19.997419 6.0423307 19.666308 6.3549227 19.597656 6.7324219 L 18.851562 10.583984 C 17.509666 11.117162 16.247251 11.849981 15.140625 12.75 L 11.458984 11.484375 C 11.07646 11.350202 10.611771 11.527448 10.40625 11.878906 L 6.8632812 18.123047 C 6.6636731 18.48248 6.7507815 18.97902 7.0585938 19.248047 L 9.9921875 21.863281 C 9.8889157 22.56461 9.8261719 23.26938 9.8261719 24 C 9.8261704 24.730583 9.8888552 25.437305 9.9921875 26.138672 L 7.0585938 28.753906 C 6.7508193 29.023765 6.6636715 29.519813 6.8632812 29.878906 L 10.40625 36.123047 C 10.611769 36.477189 11.076462 36.649609 11.458984 36.515625 L 15.140625 35.25 C 16.247265 36.149906 17.509664 36.8828 18.851562 37.416016 L 19.599609 41.269531 C 19.675419 41.672656 20.052893 41.994369 20.457031 42 L 27.544922 42 C 27.949058 41.99622 28.326576 41.673109 28.402344 41.269531 L 29.150391 37.416016 C 30.492288 36.882838 31.752749 36.149943 32.859375 35.25 L 36.542969 36.515625 C 36.925486 36.649798 37.386277 36.474505 37.591797 36.123047 L 41.136719 29.878906 C 41.336278 29.519473 41.251126 29.02282 40.943359 28.753906 L 38.009766 26.138672 C 38.113022 25.437343 38.173828 24.730658 38.173828 24 C 38.173828 23.26938 38.112947 22.564648 38.009766 21.863281 L 40.943359 19.248047 C 41.251089 18.979322 41.336387 18.482178 41.136719 18.123047 L 37.591797 11.878906 C 37.386278 11.524765 36.925478 11.350353 36.542969 11.484375 L 32.859375 12.75 C 31.751988 11.849452 30.491907 11.1172 29.150391 10.583984 L 28.402344 6.7324219 C 28.326532 6.3293731 27.949061 6.0056693 27.544922 6 L 20.457031 6 C 20.42929 5.9993197 20.402594 5.9993197 20.375 6 L 20.373047 6 z M 24.076172 15.617188 A 8.3999856 8.3999856 0 0 1 32.476562 24.017578 A 8.3999856 8.3999856 0 0 1 24.076172 32.416016 A 8.3999856 8.3999856 0 0 1 15.675781 24.017578 A 8.3999856 8.3999856 0 0 1 24.076172 15.617188 z M 24.328125 18.111328 A 5.9219214 5.9219214 0 0 0 18.40625 24.033203 A 5.9219214 5.9219214 0 0 0 24.328125 29.955078 A 5.9219214 5.9219214 0 0 0 28.052734 28.638672 L 26.652344 27.242188 A 3.9219258 3.9219258 0 0 1 24.367188 27.974609 A 3.9219258 3.9219258 0 0 1 20.445312 24.052734 A 3.9219258 3.9219258 0 0 1 24.367188 20.130859 A 3.9219258 3.9219258 0 0 1 26.751953 20.939453 L 28.210938 19.5625 A 5.9219214 5.9219214 0 0 0 24.328125 18.111328 z "
       transform="matrix(0.26458333,0,0,0.26458333,0,284.3)"
       id="path861" />
  </g>
</svg>
