<svg xmlns="http://www.w3.org/2000/svg" width="48" height="48" viewBox="0 0 12.7 12.7"><path fill="#e6e6e6" d="M6.344.073a6.29 6.29 0 0 0-6.29 6.29 6.29 6.29 0 0 0 6.29 6.288 6.29 6.29 0 0 0 6.29-6.289 6.29 6.29 0 0 0-6.29-6.29zm-.018.936a5.407 5.407 0 0 1 5.407 5.407 5.407 5.407 0 0 1-5.407 5.407A5.407 5.407 0 0 1 .92 6.416 5.407 5.407 0 0 1 6.326 1.01zm-.024 4.698a.714.714 0 0 0-.714.715.714.714 0 0 0 .714.714.714.714 0 0 0 .715-.714.714.714 0 0 0-.715-.715z"/><path fill="#cd7223" d="M7.169 1.75L6.033 4.96l4.47-.747A4.76 4.76 0 0 0 7.169 1.75" opacity=".75"/><path fill="#ffa92d" d="M10.798 4.913l-3.367.629 2.887 3.473c.77-1.202.97-2.716.48-4.102" opacity=".75"/><path fill="#2b4d37" d="M9.884 9.542L7.652 6.959l-1.584 4.22a4.777 4.777 0 0 0 3.816-1.637" opacity=".75"/><path fill="#375a7d" d="M5.406 11.096l1.136-3.21-4.47.747a4.76 4.76 0 0 0 3.335 2.463" opacity=".75"/><path fill="#68377d" d="M1.807 7.928L5.173 7.3 2.286 3.827a4.702 4.702 0 0 0-.48 4.101" opacity=".75"/><path fill="#bf4231" d="M2.71 3.302l2.232 2.582 1.584-4.22A4.777 4.777 0 0 0 2.71 3.302" opacity=".75"/></svg>