<svg xmlns="http://www.w3.org/2000/svg" width="48" height="48" viewBox="0 0 12.7 12.7">
  <defs>
    <linearGradient id="a">
      <stop offset="0" stop-color="#054e87"/>
      <stop offset="1" stop-color="#1d99f3"/>
    </linearGradient>
  </defs>
  <path fill="#e6e6e6" d="M6.34431561.07286377a6.28928043 6.28928043 0 0 0-6.2895386 6.2895385 6.28928043 6.28928043 0 0 0 6.2895386 6.28902166 6.28928043 6.28928043 0 0 0 6.28902167-6.28902167A6.28928043 6.28928043 0 0 0 6.3443156.07286376zm-.01808691.93637693a5.40704372 5.40704372 0 0 1 5.40690507 5.40690505 5.40704372 5.40704372 0 0 1-5.40690507 5.40690508A5.40704372 5.40704372 0 0 1 .91880694 6.41614575 5.40704372 5.40704372 0 0 1 6.3262287 1.0092407zm-.02428796 4.69790428a.71437494.71437494 0 0 0-.71416809.71468508.71437494.71437494 0 0 0 .71416809.71416835.71437494.71437494 0 0 0 .71468508-.71416835.71437494.71437494 0 0 0-.71468508-.71468508z"/>
  <path fill="#cd7223" d="M7.1688321 1.74955L6.0333623 4.96047l4.4704277-.74723c-.662338-1.26347-1.8826567-2.1918-3.3358985-2.46368" opacity=".75"/>
  <path fill="#ffa92d" d="M10.797821 4.91295l-3.3669215.62869 2.8872095 3.47292c.770455-1.20138.969768-2.71535.479712-4.10161" opacity=".75"/>
  <path fill="#2b4d37" d="M9.8835237 9.54164L7.6520699 6.95942 6.0679125 11.1798c1.4325578.0619 2.852189-.52355 3.8158462-1.63816" opacity=".75"/>
  <path fill="#375a7d" d="M5.4060452 11.0963l1.1354697-3.21091-4.4704276.74721c.6623379 1.26349 1.8826561 2.19182 3.3358975 2.4637" opacity=".75"/>
  <path fill="#68377d" d="M1.8065089 7.92819l3.3669232-.62867-2.8872097-3.47293c-.7704557 1.20137-.9697679 2.71534-.4797135 4.1016" opacity=".75"/>
  <path fill="#bf4231" d="M2.7101566 3.30185l2.2314526 2.58223L6.5257667 1.6637c-1.4325579-.0619-2.8521889.52354-3.8158449 1.63815" opacity=".75"/>
</svg>
