<svg xmlns="http://www.w3.org/2000/svg" width="48" height="48" viewBox="0 0 12.7 12.7"><path fill="#e6e6e6" d="M6.344.073a6.29 6.29 0 0 0-6.29 6.29 6.29 6.29 0 0 0 6.29 6.288 6.29 6.29 0 0 0 6.29-6.289 6.29 6.29 0 0 0-6.29-6.29zm-.018.936a5.407 5.407 0 0 1 5.407 5.407 5.407 5.407 0 0 1-5.407 5.407A5.407 5.407 0 0 1 .92 6.416 5.407 5.407 0 0 1 6.326 1.01zM6.303 2.6c-.837 1.172-3.683 4.479-2.47 6.39.937 1.48 4.126 1.487 5.053 0 1.207-1.933-1.868-5.218-2.581-6.39h-.002zm1.73 4.434a.486.82-7.957 0 1 .048.002.486.82-7.957 0 1 .53.83.486.82-7.957 0 1-.404.797.486.82-7.957 0 1-.568-.751l-.013-.159a.486.82-7.957 0 1 .395-.718.486.82-7.957 0 1 .011 0z"/></svg>