<svg xmlns="http://www.w3.org/2000/svg" width="48" height="48" viewBox="0 0 12.7 12.7">
  <path fill="#e6e6e6" d="M6.34431561.07286377a6.28928043 6.28928043 0 0 0-6.2895386 6.2895385 6.28928043 6.28928043 0 0 0 6.2895386 6.28902166 6.28928043 6.28928043 0 0 0 6.28902167-6.28902167A6.28928043 6.28928043 0 0 0 6.3443156.07286376zm-.01808691.93637693a5.40704372 5.40704372 0 0 1 5.40690507 5.40690505 5.40704372 5.40704372 0 0 1-5.40690507 5.40690508A5.40704372 5.40704372 0 0 1 .91880694 6.41614575 5.40704372 5.40704372 0 0 1 6.3262287 1.0092407zm-.0227375 1.58905028C5.46575635 3.77101095 2.6198921 7.0778422 3.83232417 8.98963192c.93817227 1.4791502 4.12668424 1.48673024 5.05395515 0 1.20645024-1.93411976-1.86858617-5.21862097-2.58175466-6.39134094H6.3034912zm1.7285766 4.4348713a.48576004.81972011-7.956873 0 1 .04857591.00206719.48576004.81972011-7.956873 0 1 .5296834.8299233.48576004.81972011-7.956873 0 1-.4030763.79685064.48576004.81972011-7.956873 0 1-.56844062-.75137512l-.01291907-.15864681a.48576004.81972011-7.956873 0 1 .3948078-.71778547.48576004.81972011-7.956873 0 1 .00051673 0 .48576004.81972011-7.956873 0 1 .01085215-.000517v-.00051673z"/>
</svg>
