<svg xmlns="http://www.w3.org/2000/svg" width="48" height="48" viewBox="0 0 12.7 12.7">
  <path fill="#e6e6e6" d="M6.34431561.07286377a6.28928043 6.28928043 0 0 0-6.2895386 6.2895385 6.28928043 6.28928043 0 0 0 6.2895386 6.28902166 6.28928043 6.28928043 0 0 0 6.28902167-6.28902167A6.28928043 6.28928043 0 0 0 6.3443156.07286376zm-.01808691.93637693a5.40704372 5.40704372 0 0 1 5.40690507 5.40690505 5.40704372 5.40704372 0 0 1-5.40690507 5.40690508A5.40704372 5.40704372 0 0 1 .91880694 6.41614575 5.40704372 5.40704372 0 0 1 6.3262287 1.0092407zm1.7864542 1.55804442c-.04000103.001-.080069.0051197-.11885559.0160197l-2.86184098.84025874L1.81952715 7.5116861c-.1825638.22535991-.14067208.5482.09405112.72347005l1.27124011.94929614 1.27124035.94877916 1.27020663.94929615c.23472351.17526.57139548.1345295.7539593-.09095052l2.96571031-3.66024182.33331309-.41134427.03358964-.62321783.12298971-2.25826c.00214022-.15564008-.06881521-.31055812-.20722246-.41392818l-1.27124008-.94877942c-.10259378-.07659994-.22467438-.11172044-.34468197-.10852044zm-.190686 1.15445142a.83551439.83551439 0 0 1 .00051674 0 .83551439.83551439 0 0 1 .52089843.1757.83551439.83551439 0 0 1 .14624446 1.17253807.83551439.83551439 0 0 1-1.1720216.14624447.83551439.83551439 0 0 1-.14727766-1.1720216.83551439.83551439 0 0 1 .65163963-.32246094zM6.27041828 5.043103v.00051673c.01032298-.00096996.02299573.00013414.03772376.00413411.02655994.00100013.04928923.01427163.07183014.02687188-.03324595.43197991.14623468.89341244.37930508 1.2660725.33451217.46433.36164784 1.11182626.11110436 1.62160637-.00613992-.0050001.07295092-.24313859.07441406-.3451987.06563387-.50446992-.22653201-.97248026-.5916951-1.29036046-.04355916-.07010003-.16309976-.0875165-.19637058.00103372-.16861631.8340299-.33061328 1.66954992-.49661048 2.50423968-.02800297.45699997-.4776171.83961684-.9306925.7766968-.33205922-.03119993-.62348559-.39628418-.49040943-.72760415.15247038-.44446984.69848464-.65099591 1.1275798-.52606601.06612202.03270012.17798098.07444607.21600742-.02015384.2081096-1.03164004.40873468-2.06561212.61391614-3.09800198.02676684-.06089994.00155416-.18705671.07389733-.19378665z"/>
</svg>
