<?xml version="1.0" encoding="UTF-8" standalone="no"?>
<!-- Created with Inkscape (http://www.inkscape.org/) -->

<svg
   xmlns:dc="http://purl.org/dc/elements/1.1/"
   xmlns:cc="http://creativecommons.org/ns#"
   xmlns:rdf="http://www.w3.org/1999/02/22-rdf-syntax-ns#"
   xmlns:svg="http://www.w3.org/2000/svg"
   xmlns="http://www.w3.org/2000/svg"
   xmlns:xlink="http://www.w3.org/1999/xlink"
   xmlns:sodipodi="http://sodipodi.sourceforge.net/DTD/sodipodi-0.dtd"
   xmlns:inkscape="http://www.inkscape.org/namespaces/inkscape"
   width="48"
   height="48"
   viewBox="0 0 12.7 12.7"
   version="1.1"
   id="svg829"
   inkscape:version="0.92.3 (2405546, 2018-03-11)"
   sodipodi:docname="emacs.svg">
  <defs
     id="defs823">
    <linearGradient
       xlink:href="#blue-gradient-5"
       id="linearGradient4351"
       x1="24"
       y1="1008.362"
       x2="24"
       y2="1048.3621"
       gradientUnits="userSpaceOnUse"
       gradientTransform="matrix(0.25135416,0,0,0.25135416,0.31750034,32.214723)" />
    <linearGradient
       id="blue-gradient-5">
      <stop
         style="stop-color:#054e87;stop-opacity:1"
         offset="0"
         id="stop2" />
      <stop
         style="stop-color:#1d99f3;stop-opacity:1"
         offset="1"
         id="stop4" />
    </linearGradient>
  </defs>
  <sodipodi:namedview
     id="base"
     pagecolor="#ffffff"
     bordercolor="#666666"
     borderopacity="1.0"
     inkscape:pageopacity="0.0"
     inkscape:pageshadow="2"
     inkscape:zoom="3.9111844"
     inkscape:cx="-24.962151"
     inkscape:cy="22.977292"
     inkscape:document-units="mm"
     inkscape:current-layer="layer1"
     showgrid="false"
     showguides="true"
     inkscape:guide-bbox="true"
     inkscape:window-width="1366"
     inkscape:window-height="719"
     inkscape:window-x="0"
     inkscape:window-y="25"
     inkscape:window-maximized="1"
     scale-x="1.9"
     units="px"
     inkscape:snap-global="false" />
  <metadata
     id="metadata826">
    <rdf:RDF>
      <cc:Work
         rdf:about="">
        <dc:format>image/svg+xml</dc:format>
        <dc:type
           rdf:resource="http://purl.org/dc/dcmitype/StillImage" />
        <dc:title></dc:title>
      </cc:Work>
    </rdf:RDF>
  </metadata>
  <g
     inkscape:label="Capa 1"
     inkscape:groupmode="layer"
     id="layer1"
     transform="translate(0,-284.3)">
    <path
       style="fill:#e6e6e6;fill-opacity:1;stroke-width:0.52516764"
       d="M 23.978516 0.27539062 A 23.770509 23.770509 0 0 0 0.20703125 24.046875 A 23.770509 23.770509 0 0 0 23.978516 47.816406 A 23.770509 23.770509 0 0 0 47.748047 24.046875 A 23.770509 23.770509 0 0 0 23.978516 0.27539062 z M 23.910156 3.8144531 A 20.436071 20.436071 0 0 1 44.345703 24.25 A 20.436071 20.436071 0 0 1 23.910156 44.685547 A 20.436071 20.436071 0 0 1 3.4726562 24.25 A 20.436071 20.436071 0 0 1 23.910156 3.8144531 z M 33.419922 10.177734 C 32.263392 10.202264 31.396719 10.360944 30.494141 10.664062 C 31.521922 10.589946 33.646384 11.025705 33.650391 11.820312 C 33.655122 12.748262 32.582976 12.734737 30.980469 12.652344 C 25.920313 12.369144 18.362198 10.373523 16.208984 11.558594 C 15.288753 12.065088 14.898438 12.906614 14.898438 13.699219 C 14.898438 14.900164 15.998543 16.794101 17.771484 18.585938 C 19.266099 20.096463 21.836317 22.126622 23.5 23.109375 C 24.763946 23.855265 24.799186 23.931972 23.753906 23.685547 C 18.816583 22.521074 13.668552 22.925753 9.8691406 24.777344 C 7.9306531 25.721734 6.8263209 27.361011 7.0546875 28.951172 C 7.2207225 30.107481 7.7955396 31.071394 9.0683594 32.328125 C 10.126156 33.372975 11.086673 34.069814 13.064453 35.230469 C 15.738442 36.784799 19.585644 38.019869 23.685547 38.871094 C 24.193894 38.975787 32.617224 40.652703 35.429688 38.6875 C 37.166136 37.474158 37.34111 34.720253 34.667969 33.337891 C 34.984495 35.888618 33.261072 36.368784 29.896484 36.148438 C 26.183142 35.905036 23.193653 34.987687 20.734375 34.177734 C 17.712046 33.135341 14.473223 31.078278 15.0625 29.152344 C 16.731373 24.910164 28.845737 26.166865 31.113281 25.994141 C 28.396715 23.933126 19.600763 18.135316 22.115234 15.179688 C 23.180378 13.925943 26.328725 14.469468 29.996094 15.132812 C 33.320305 15.733984 38.3158 17.596739 38.443359 13.410156 C 38.482946 12.11117 37.6196 11.090768 36.669922 10.646484 C 36.198525 10.426365 35.732612 10.128601 33.419922 10.177734 z "
       transform="matrix(0.26458333,0,0,0.26458333,0,284.3)"
       id="path847" />
  </g>
</svg>
