<svg xmlns="http://www.w3.org/2000/svg" width="48" height="48" viewBox="0 0 12.7 12.7">
  <defs>
    <linearGradient id="a">
      <stop offset="0" stop-color="#054e87"/>
      <stop offset="1" stop-color="#1d99f3"/>
    </linearGradient>
  </defs>
  <path fill="#e6e6e6" d="M6.34431561.07286377a6.28928043 6.28928043 0 0 0-6.2895386 6.2895385 6.28928043 6.28928043 0 0 0 6.2895386 6.28902166 6.28928043 6.28928043 0 0 0 6.28902167-6.28902167A6.28928043 6.28928043 0 0 0 6.3443156.07286376zm-.01808691.93637693a5.40704372 5.40704372 0 0 1 5.40690507 5.40690505 5.40704372 5.40704372 0 0 1-5.40690507 5.40690508A5.40704372 5.40704372 0 0 1 .91880694 6.41614575 5.40704372 5.40704372 0 0 1 6.3262287 1.0092407zm2.51612555 1.68361805c-.30599856.00649023-.53530579.04847432-.77411288.12867429.27193372-.01960986.83403095.0956847.83509114.30592447.00125174.2455201-.28242022.24194161-.70641686.2201418-1.33883292-.07493-3.33858416-.60293805-3.90828869-.28938802-.24347778.13400987-.34674862.35666362-.34674862.5663737 0 .31775002.29106944.81885418.76016008 1.29294438.39545021.39965973 1.07548705.93680596 1.51566983 1.19682602.33441905.19735006.34374296.21764546.0671793.1524455-1.30633336-.30810014-2.66841655-.20102882-3.67367747.2888713-.51289147.24986985-.80507936.68359521-.74465737 1.1043253.0439301.3059401.19601712.5609754.53278402.89348548.27987534.27644989.53401213.46082187 1.05729975.76791184.70749291.4112498 1.72539843.73802874 2.81016442.96324868.13450014.02770002 2.36317284.47138404 3.10730393-.04857591.4594352-.32103007.5057304-1.04966742-.20153815-1.41541736.0837475.67487984-.3722415.80192376-1.26245539.74362388-.98248839-.06440011-1.77345734-.30711536-2.4241413-.52141543-.79965788-.2757998-1.65659645-.82006439-1.50068358-1.32963442.44155597-1.1224101 3.64681474-.78990797 4.24676908-.83560786-.71875807-.54531022-3.04602034-2.0793141-2.38073323-2.861324.28181934-.33172002 1.11481948-.18791236 2.08514418-.0124026.87953081.1590601 2.20125552.65191401 2.2350055-.45578606.01047406-.34369004-.2179529-.6136714-.46922187-.73122154-.12472378-.05823982-.2479966-.1370232-.85989582-.12402344z"/>
</svg>
