<?xml version="1.0" encoding="UTF-8" standalone="no"?>
<!-- Created with Inkscape (http://www.inkscape.org/) -->

<svg
   xmlns:dc="http://purl.org/dc/elements/1.1/"
   xmlns:cc="http://creativecommons.org/ns#"
   xmlns:rdf="http://www.w3.org/1999/02/22-rdf-syntax-ns#"
   xmlns:svg="http://www.w3.org/2000/svg"
   xmlns="http://www.w3.org/2000/svg"
   xmlns:sodipodi="http://sodipodi.sourceforge.net/DTD/sodipodi-0.dtd"
   xmlns:inkscape="http://www.inkscape.org/namespaces/inkscape"
   width="48"
   height="48"
   viewBox="0 0 12.7 12.7"
   version="1.1"
   id="svg829"
   inkscape:version="0.92.3 (2405546, 2018-03-11)"
   sodipodi:docname="empathy.svg">
  <defs
     id="defs823" />
  <sodipodi:namedview
     id="base"
     pagecolor="#ffffff"
     bordercolor="#666666"
     borderopacity="1.0"
     inkscape:pageopacity="0.0"
     inkscape:pageshadow="2"
     inkscape:zoom="3.9553786"
     inkscape:cx="24"
     inkscape:cy="24"
     inkscape:document-units="mm"
     inkscape:current-layer="layer1"
     showgrid="false"
     showguides="true"
     inkscape:guide-bbox="true"
     inkscape:window-width="1366"
     inkscape:window-height="714"
     inkscape:window-x="0"
     inkscape:window-y="25"
     inkscape:window-maximized="1"
     scale-x="1.9"
     units="px"
     inkscape:snap-global="false" />
  <metadata
     id="metadata826">
    <rdf:RDF>
      <cc:Work
         rdf:about="">
        <dc:format>image/svg+xml</dc:format>
        <dc:type
           rdf:resource="http://purl.org/dc/dcmitype/StillImage" />
        <dc:title></dc:title>
      </cc:Work>
    </rdf:RDF>
  </metadata>
  <g
     inkscape:label="Capa 1"
     inkscape:groupmode="layer"
     id="layer1"
     transform="translate(0,-284.3)">
    <path
       style="fill:#1a1a1a;fill-opacity:1;stroke-width:0.52516764"
       d="M 23.978516 0.27539062 A 23.770509 23.770509 0 0 0 0.20703125 24.046875 A 23.770509 23.770509 0 0 0 23.978516 47.816406 A 23.770509 23.770509 0 0 0 47.748047 24.046875 A 23.770509 23.770509 0 0 0 23.978516 0.27539062 z M 23.910156 3.8144531 A 20.436071 20.436071 0 0 1 44.345703 24.25 A 20.436071 20.436071 0 0 1 23.910156 44.685547 A 20.436071 20.436071 0 0 1 3.4726562 24.25 A 20.436071 20.436071 0 0 1 23.910156 3.8144531 z M 24.644531 8.0234375 L 24.644531 8.0273438 C 24.05318 8.0349028 23.454524 8.0693776 22.851562 8.1230469 C 22.399341 8.1653776 21.957024 8.1795107 21.515625 8.2441406 C 12.540555 9.5673532 5.9004983 15.75187 6.5039062 22.447266 C 6.8946376 26.782799 10.221779 30.351566 14.980469 32.234375 L 12.994141 39.974609 L 21.78125 33.619141 L 21.84375 33.615234 C 22.928183 33.667392 24.017884 33.681557 25.148438 33.574219 C 34.795821 32.694042 42.129184 26.274706 41.496094 19.25 C 40.902579 12.664362 33.514827 7.8718784 24.644531 8.0234375 z M 23.027344 11.466797 C 23.131576 11.463017 23.236579 11.463271 23.341797 11.474609 C 23.349923 11.474836 23.357108 11.474836 23.365234 11.474609 C 24.215322 11.55209 24.678117 12.325596 24.609375 13.009766 C 24.609081 13.017325 24.609081 13.021738 24.609375 13.029297 C 24.651184 16.543388 24.967814 19.998981 25.072266 23.476562 C 24.590293 23.528342 23.873731 23.623119 23.414062 23.671875 C 22.655899 20.147806 22.399017 16.543891 21.638672 12.955078 C 21.637375 12.947519 21.639967 12.946885 21.638672 12.935547 C 21.625519 12.822917 21.608821 12.745831 21.613281 12.691406 C 21.613574 12.683847 21.613574 12.679434 21.613281 12.671875 C 21.633691 12.080001 22.297791 11.517216 23.027344 11.466797 z M 24.568359 26.253906 C 24.685203 26.246347 24.805789 26.250253 24.925781 26.257812 C 25.401673 26.30619 25.837238 26.534262 26.09375 26.9375 C 26.10146 26.945059 26.110561 26.953252 26.119141 26.957031 C 26.678552 27.732023 26.309222 28.988066 25.435547 29.318359 C 25.427421 29.318095 25.418282 29.318095 25.410156 29.318359 C 24.51317 29.738152 23.274817 29.067689 23.197266 28.052734 C 23.197558 28.045175 23.197558 28.036983 23.197266 28.033203 C 23.133233 27.566091 23.32566 27.066391 23.660156 26.71875 C 23.66045 26.711191 23.66045 26.706778 23.660156 26.699219 C 23.893954 26.428605 24.217801 26.287759 24.568359 26.255859 L 24.568359 26.253906 z "
       transform="matrix(0.26458333,0,0,0.26458333,0,284.3)"
       id="path822" />
  </g>
</svg>
