<svg xmlns="http://www.w3.org/2000/svg" width="48" height="48" viewBox="0 0 12.7 12.7">
  <path fill="#e6e6e6" d="M6.34431561.07286377a6.28928043 6.28928043 0 0 0-6.2895386 6.2895385 6.28928043 6.28928043 0 0 0 6.2895386 6.28902166 6.28928043 6.28928043 0 0 0 6.28902167-6.28902167A6.28928043 6.28928043 0 0 0 6.3443156.07286376zm-.01808691.93637693a5.40704372 5.40704372 0 0 1 5.38881842 4.98522537c-1.04253637.93606196-3.90078114 2.8523763-6.55515545 1.71359034 2.68796396-1.56434973 3.1907633-2.8443552 2.95899254-3.69796531-.67263882-2.19320997-3.55695008-1.40527592-4.5573444.07441406-.91692854 1.2117501-.39103962 3.10498671.70693331 3.75687664v.00051673c-.55698971.45047985-1.6629224.90085862-2.49493799 1.35133873.028335.02319998 2.14852115-.78109286 2.74763597-1.1430828 2.90134936 1.62095283 5.90111129.30932146 7.04194724-.31522617a5.40704372 5.40704372 0 0 1-5.23688964 4.08812254A5.40704372 5.40704372 0 0 1 .91880694 6.41614575 5.40704372 5.40704372 0 0 1 6.3262287 1.0092407zm-.19740404 2.13940438c.62993534-.0156001 1.0640208.26602187 1.28829354.64492187.72779492 1.3901298-1.64787128 3.24163527-2.7326497 3.75067534-2.16942194-1.61631999-.73078816-4.27951736 1.44435616-4.39559721z"/>
</svg>
