<svg xmlns="http://www.w3.org/2000/svg" width="48" height="48" viewBox="0 0 12.7 12.7">
  <path fill="#e6e6e6" d="M6.34431561.07286377a6.28928043 6.28928043 0 0 0-6.2895386 6.2895385 6.28928043 6.28928043 0 0 0 6.2895386 6.28902166 6.28928043 6.28928043 0 0 0 6.28902167-6.28902167A6.28928043 6.28928043 0 0 0 6.3443156.07286376zm-.01808691.93637693a5.40704372 5.40704372 0 0 1 5.40690507 5.40690505 5.40704372 5.40704372 0 0 1-5.40690507 5.40690508A5.40704372 5.40704372 0 0 1 .91880694 6.41614575 5.40704372 5.40704372 0 0 1 6.3262287 1.0092407zM8.5214435 2.53886308c-.11803724-.01206-.23545879.04575635-.29610579.15709633L5.64151614 7.4424396 3.9796021 6.1159056c-.1479841-.08114983-.3325495-.02917746-.41341145.11937259l-.74465761.96066503c-.0808617.14854978-.02602707.33396157.1219565.41496164 0 0 3.03276711 2.51564216 3.036507 2.51664229.03468528.019.07113693.0300728.10800397.03307292.12043833.01527995.24349869-.04174623.30540748-.15554616L9.8784668 3.6054646c.08086196-.14853999.02602707-.33396184-.1219565-.41496164l-1.11776112-.61598312c-.03699748-.02020001-.0779616-.03265676-.11730567-.03565676z"/>
</svg>
