<?xml version="1.0" encoding="UTF-8" standalone="no"?>
<!-- Created with Inkscape (http://www.inkscape.org/) -->

<svg
   xmlns:dc="http://purl.org/dc/elements/1.1/"
   xmlns:cc="http://creativecommons.org/ns#"
   xmlns:rdf="http://www.w3.org/1999/02/22-rdf-syntax-ns#"
   xmlns:svg="http://www.w3.org/2000/svg"
   xmlns="http://www.w3.org/2000/svg"
   xmlns:sodipodi="http://sodipodi.sourceforge.net/DTD/sodipodi-0.dtd"
   xmlns:inkscape="http://www.inkscape.org/namespaces/inkscape"
   width="48"
   height="48"
   viewBox="0 0 12.7 12.7"
   version="1.1"
   id="svg829"
   inkscape:version="0.92.3 (2405546, 2018-03-11)"
   sodipodi:docname="evolution-calendar.svg">
  <defs
     id="defs823" />
  <sodipodi:namedview
     id="base"
     pagecolor="#ffffff"
     bordercolor="#666666"
     borderopacity="1.0"
     inkscape:pageopacity="0.0"
     inkscape:pageshadow="2"
     inkscape:zoom="3.9406472"
     inkscape:cx="20.574167"
     inkscape:cy="22.984938"
     inkscape:document-units="mm"
     inkscape:current-layer="layer1"
     showgrid="false"
     showguides="true"
     inkscape:guide-bbox="true"
     inkscape:window-width="1366"
     inkscape:window-height="719"
     inkscape:window-x="0"
     inkscape:window-y="25"
     inkscape:window-maximized="1"
     scale-x="1.9"
     units="px"
     inkscape:snap-global="false" />
  <metadata
     id="metadata826">
    <rdf:RDF>
      <cc:Work
         rdf:about="">
        <dc:format>image/svg+xml</dc:format>
        <dc:type
           rdf:resource="http://purl.org/dc/dcmitype/StillImage" />
        <dc:title></dc:title>
      </cc:Work>
    </rdf:RDF>
  </metadata>
  <g
     inkscape:label="Capa 1"
     inkscape:groupmode="layer"
     id="layer1"
     transform="translate(0,-284.3)">
    <path
       style="fill:#e6e6e6;fill-opacity:1;stroke-width:0.52516764"
       d="M 23.978516 0.27539062 A 23.770509 23.770509 0 0 0 0.20703125 24.046875 A 23.770509 23.770509 0 0 0 23.978516 47.816406 A 23.770509 23.770509 0 0 0 47.748047 24.046875 A 23.770509 23.770509 0 0 0 23.978516 0.27539062 z M 23.910156 3.8144531 A 20.436071 20.436071 0 0 1 44.345703 24.25 A 20.436071 20.436071 0 0 1 23.910156 44.685547 A 20.436071 20.436071 0 0 1 3.4726562 24.25 A 20.436071 20.436071 0 0 1 23.910156 3.8144531 z M 15.927734 8.8945312 C 14.871247 8.8945312 14.019531 9.7462808 14.019531 10.802734 L 14.019531 13.853516 L 17.833984 13.853516 L 17.833984 10.802734 C 17.833984 9.7462808 16.984224 8.8945312 15.927734 8.8945312 z M 32.054688 8.8945312 C 30.998198 8.8945312 30.146484 9.7462808 30.146484 10.802734 L 30.146484 13.853516 L 33.960938 13.853516 L 33.960938 10.802734 C 33.960938 9.7462808 33.111175 8.8945312 32.054688 8.8945312 z M 8.7753906 14.714844 L 8.7753906 19.927734 L 8.8066406 19.927734 L 8.8066406 33.376953 C 8.8066406 34.954868 9.4160208 36.303047 10.632812 37.423828 C 11.849989 38.544571 13.315599 39.105469 15.029297 39.105469 L 33.003906 39.105469 C 34.717604 39.105469 36.182837 38.544571 37.400391 37.423828 C 38.617489 36.303047 39.224609 34.954868 39.224609 33.376953 L 39.224609 17.742188 L 39.205078 17.742188 L 39.205078 14.714844 L 8.7753906 14.714844 z M 11.572266 19.927734 L 36.460938 19.927734 L 36.460938 33.376953 L 36.458984 33.376953 C 36.458984 34.251876 36.12216 35.001302 35.445312 35.625 C 34.768484 36.248169 33.954807 36.558594 33.003906 36.558594 L 15.029297 36.558594 C 14.0787 36.558594 13.264878 36.248395 12.587891 35.625 C 11.911051 35.001416 11.572266 34.251876 11.572266 33.376953 L 11.572266 19.927734 z M 19.345703 22.716797 C 18.938724 22.716797 18.490224 22.77264 18 22.888672 C 17.509775 23.004703 16.982189 23.175345 16.417969 23.402344 L 16.417969 24.818359 C 16.972938 24.508438 17.492916 24.277542 17.978516 24.125 C 18.468739 23.972685 18.933697 23.896484 19.373047 23.896484 C 19.992765 23.896484 20.495051 24.069282 20.878906 24.416016 C 21.267385 24.762976 21.460937 25.213335 21.460938 25.763672 C 21.460938 26.101184 21.371762 26.445417 21.191406 26.796875 C 21.015662 27.143836 20.702507 27.56819 20.253906 28.072266 C 20.018045 28.340234 19.439856 28.939566 18.519531 29.869141 C 17.603829 30.794104 16.881456 31.531732 16.349609 32.082031 L 16.349609 33.261719 L 22.923828 33.261719 L 22.923828 32.080078 L 18.035156 32.080078 C 19.163596 30.928532 20.036533 30.036649 20.65625 29.398438 C 21.275967 28.755578 21.644146 28.364604 21.759766 28.230469 C 22.180617 27.712484 22.469712 27.263966 22.626953 26.884766 C 22.788819 26.500879 22.869141 26.097374 22.869141 25.671875 C 22.869141 24.774691 22.550322 24.057988 21.912109 23.521484 C 21.273893 22.985018 20.418645 22.716797 19.345703 22.716797 z M 28.390625 22.902344 L 25.916016 23.402344 L 25.916016 24.677734 L 28.40625 24.179688 L 28.40625 32.080078 L 26.117188 32.080078 L 26.117188 33.259766 L 32.082031 33.259766 L 32.082031 32.080078 L 29.792969 32.080078 L 29.792969 22.902344 L 28.390625 22.902344 z "
       transform="matrix(0.26458333,0,0,0.26458333,0,284.3)"
       id="path820" />
  </g>
</svg>
