<?xml version="1.0" encoding="UTF-8" standalone="no"?>
<!-- Created with Inkscape (http://www.inkscape.org/) -->

<svg
   xmlns:dc="http://purl.org/dc/elements/1.1/"
   xmlns:cc="http://creativecommons.org/ns#"
   xmlns:rdf="http://www.w3.org/1999/02/22-rdf-syntax-ns#"
   xmlns:svg="http://www.w3.org/2000/svg"
   xmlns="http://www.w3.org/2000/svg"
   xmlns:sodipodi="http://sodipodi.sourceforge.net/DTD/sodipodi-0.dtd"
   xmlns:inkscape="http://www.inkscape.org/namespaces/inkscape"
   width="48"
   height="48"
   viewBox="0 0 12.7 12.7"
   version="1.1"
   id="svg829"
   inkscape:version="0.92.3 (2405546, 2018-03-11)"
   sodipodi:docname="firewall.svg">
  <defs
     id="defs823" />
  <sodipodi:namedview
     id="base"
     pagecolor="#ffffff"
     bordercolor="#666666"
     borderopacity="1.0"
     inkscape:pageopacity="0.0"
     inkscape:pageshadow="2"
     inkscape:zoom="3.9553786"
     inkscape:cx="20.586926"
     inkscape:cy="22.988719"
     inkscape:document-units="mm"
     inkscape:current-layer="layer1"
     showgrid="false"
     showguides="true"
     inkscape:guide-bbox="true"
     inkscape:window-width="1366"
     inkscape:window-height="719"
     inkscape:window-x="0"
     inkscape:window-y="25"
     inkscape:window-maximized="1"
     scale-x="1.9"
     units="px"
     inkscape:snap-global="false" />
  <metadata
     id="metadata826">
    <rdf:RDF>
      <cc:Work
         rdf:about="">
        <dc:format>image/svg+xml</dc:format>
        <dc:type
           rdf:resource="http://purl.org/dc/dcmitype/StillImage" />
        <dc:title></dc:title>
      </cc:Work>
    </rdf:RDF>
  </metadata>
  <g
     inkscape:label="Capa 1"
     inkscape:groupmode="layer"
     id="layer1"
     transform="translate(0,-284.3)">
    <path
       style="fill:#e6e6e6;fill-opacity:1;stroke-width:0.52516764"
       d="M 23.978516 0.27539062 A 23.770509 23.770509 0 0 0 0.20703125 24.046875 A 23.770509 23.770509 0 0 0 23.978516 47.816406 A 23.770509 23.770509 0 0 0 47.748047 24.046875 A 23.770509 23.770509 0 0 0 23.978516 0.27539062 z M 23.910156 3.8144531 A 20.436071 20.436071 0 0 1 44.345703 24.25 A 20.436071 20.436071 0 0 1 23.910156 44.685547 A 20.436071 20.436071 0 0 1 3.4726562 24.25 A 20.436071 20.436071 0 0 1 23.910156 3.8144531 z M 11.273438 11.283203 C 11.013251 11.283203 10.802734 11.495714 10.802734 11.755859 L 10.802734 22.546875 C 10.802734 37.315379 23.705844 42.315054 23.835938 42.363281 C 23.888722 42.378399 23.943439 42.396484 24 42.396484 C 24.056561 42.396484 24.11127 42.389738 24.164062 42.363281 C 24.294158 42.314525 37.197266 37.315379 37.197266 22.546875 L 37.197266 11.755859 C 37.197266 11.495828 36.986735 11.283203 36.726562 11.283203 L 11.273438 11.283203 z M 11.744141 12.226562 L 36.253906 12.226562 L 36.253906 22.546875 C 36.253906 35.751448 25.473455 40.787127 24 41.412109 C 22.5256 40.789016 11.744141 35.769325 11.744141 22.546875 L 11.744141 12.226562 z M 21.599609 12.962891 C 22.12046 17.02645 20.558879 17.960682 16.900391 25.673828 C 13.241902 33.385463 20.246094 38.28125 20.246094 38.28125 C 17.431589 29.007007 23.378906 25.621094 23.378906 25.621094 C 22.962815 30.569856 25.775391 34.423828 25.775391 34.423828 C 26.809713 34.111639 28.783203 32.654297 28.783203 32.654297 C 28.783203 34.42493 27.740234 38.279297 27.740234 38.279297 C 27.740234 38.279297 31.389174 35.458679 32.537109 30.775391 C 33.683568 26.092254 30.351563 21.390625 30.351562 21.390625 C 30.552229 24.705346 29.431387 27.964483 27.234375 30.455078 C 27.344295 30.327708 27.436977 30.187547 27.507812 30.035156 C 27.902506 29.245764 28.535146 27.194414 28.164062 22.443359 C 27.641738 15.774081 21.599609 12.962891 21.599609 12.962891 z "
       transform="matrix(0.26458333,0,0,0.26458333,0,284.3)"
       id="path820" />
  </g>
</svg>
