<svg xmlns="http://www.w3.org/2000/svg" width="48" height="48" viewBox="0 0 12.7 12.7">
  <path fill="#e6e6e6" d="M6.34431561.07286377a6.28928043 6.28928043 0 0 0-6.2895386 6.2895385 6.28928043 6.28928043 0 0 0 6.2895386 6.28902166 6.28928043 6.28928043 0 0 0 6.28902167-6.28902167A6.28928043 6.28928043 0 0 0 6.3443156.07286376zm-.01808691.93637693a5.40704372 5.40704372 0 0 1 5.40690507 5.40690505 5.40704372 5.40704372 0 0 1-5.40690507 5.40690508A5.40704372 5.40704372 0 0 1 .91880694 6.41614575 5.40704372 5.40704372 0 0 1 6.3262287 1.0092407zM2.98276377 2.98534742c-.06884115 0-.12454044.05622687-.12454044.1250569v2.85512295c0 3.90749997 3.41394782 5.23033063 3.44836852 5.24309069.01396577.00399997.02844297.00878496.04340807.00878496.0149651 0 .02944019-.00178488.04340807-.00878496.03442123-.01290003 3.44836852-1.33559072 3.44836852-5.2430907V3.11040433c0-.06879987-.055703-.1250569-.12454044-.1250569h-6.7344723zm.12454016.24959707h6.48487524v2.73058278c0 3.4937099-2.85232762 4.82606661-3.24217925 4.99142643-.39010166-.16486002-3.24269599-1.49298658-3.24269599-4.99142643V3.23494449zm2.60759255.19482038c.13780849 1.07514997-.27535981 1.32233218-1.24333475 3.36310204-.9679752 2.04037006.88521724 3.3357137.88521724 3.3357137-.7446711-2.4538101.82888983-3.34966624.82888983-3.34966624-.11009074 1.30935993.63406998 2.32905667.63406998 2.32905667.27366436-.0826.79581692-.4681884.79581692-.4681884 0 .46847997-.27595221 1.48828123-.27595221 1.48828123s.9654487-.7462885 1.26917316-1.98540844c.30333394-1.23907998-.57825904-2.48305264-.5782593-2.48305264.05309314.87701992-.24346297 1.73933324-.82475572 2.39830316.029083-.03369998.05360511-.07078424.07234687-.11110436.10442945-.20885996.27181545-.75161298.17363281-2.00866293-.13819822-1.76457978-1.73684483-2.5083738-1.73684483-2.5083738z"/>
</svg>
