<svg xmlns="http://www.w3.org/2000/svg" width="48" height="48" viewBox="0 0 12.7 12.7">
  <path fill="#e6e6e6" d="M6.3443047.33744A6.0246971 6.0246971 0 0 0 .31936035 6.36239a6.0246971 6.0246971 0 0 0 6.02494435 6.02445 6.0246971 6.0246971 0 0 0 6.0244493-6.02445A6.0246971 6.0246971 0 0 0 6.3443047.33744zm-.017326.89699a5.1795751 5.1795751 0 0 1 5.1794423 5.17945 5.1795751 5.1795751 0 0 1-5.1794423 5.17944 5.1795751 5.1795751 0 0 1-5.1799372-5.17944 5.1795751 5.1795751 0 0 1 5.1799372-5.17945z"/>
  <path fill="#a40" d="M7.9759903 2.05414l.013087.0634c.2358591.51737.6837414.98177 1.0449134 1.44872.050023-.12799.095489-.53795.1887944-.64324.00277-.002.00453-.004.00683-.004.00498 0 .018964.0291.030529.0647.074174.16082.1658349.32277.2716655.47049.00237.00065.00184.00085.00184.002.7180804 1.06107 1.4436884 1.83816 1.4436884 3.34985 0 2.38543-2.0719755 4.31877-4.6276512 4.31877-2.5556712-.00007-4.6276455-1.93343-4.6276455-4.31885 0-.85295.2668423-1.64728.7240245-2.31697.0004148-.007.0031-.0114.00312-.0217.0001158-.0708.023648-.27145.044239-.37453.053841-.25925.2705203-1.01944.5869461-1.17422.1352838.27481.1779575.75966.3520425 1.03406.051875-.0223.1125364-.0396.1788252-.0395.00603-.00084.012438-.002.018691-.003h.0005996c.013931-.002.028344-.003.043616-.004.00114-.00021.00141-.00047.00372-.00057.014877-.00085.030143-.002.04611-.003.00184-.00021.00329-.00048.00563-.00059.014414-.00065.029199-.00071.044239-.00085.00348-.00023.00713-.0005.010594-.00059.017909-.00047.035463-.00063.05421-.0006.017305 0 .035148.00014.052963.0006.05937.00085.1212733.004.1825639.0105.056035.004.1112322.012.1644942.0195.00603.00085.012058.00085.018069.002.00839.00084.016597.002.024924.003.00791.00084.015811.003.023676.004.00694.00085.01385.002.020559.003.0095.002.018785.003.02804.005.0051.00085.010487.002.015576.003.014252.003.028326.005.041746.007.2011327.0495.1804068.0509.2467416-.0105.2070785-.18148.8535766-.49235 1.201307-.31522-.218624.18756-.8292442.54134-.6567311.91366.098472.16207.2256946.24211.412482.25763.4949066.041.6998528.0839.7302555.15238.024224.0547-.015493.20554-.075394.28729-.039264.0534-.1356563.1413-.1856795.16866-.02302.0125-.1408722.0646-.2616955.11515-.1834095.0771-.6299389.19614-.6299389.40071.044238.16387.3202261.34287.1931566.45942-.1328097-.0846-.5591239-.21606-.7688867-.20703-.3487714.43403.015608 1.02752.7321246 1.18759.1722805.0448.3269249.033.6062612-.0461.2798226-.0792.4111793-.0861.5663844-.086.1524055.00007.2217415.0123.3489271.0599.1518503.0568.3328242.19534.3844436.29486.040882.0788.020905.0958-.049847.13725-.033365.0195-.052428.0202-.2049946.003-.1035395-.0115-.2908061.0234-.6691932.21169-.2539589.12578-.4624506.16953-.6804088.17097-.2358625.00085-.4829044.0185-.8131254-.0285.1242709.66096 1.0459884.8794 1.7315526.87699 1.0829983-.005 1.8548967-.80492 2.0879566-1.82205.0095-.0635.015576-.16986.015576-.27335-2e-7-.34337-.064955-.61956-.2187025-.92994-.1118227-.22559-.4118575-.53484-.6878858-.81536-.2381289-.28677-.4007361-.62612-.4716752-.98576-.026836-.13576-.023848-.48039.00498-.63567.028759-.15485.080203-.34127.1289786-.46469.1279493-.32167.2494626-.62124.4635751-.88631.0097-.012.019173-.0227.028661-.0339z" opacity=".75"/>
</svg>
