<?xml version="1.0" encoding="UTF-8" standalone="no"?>
<!-- Created with Inkscape (http://www.inkscape.org/) -->

<svg
   xmlns:dc="http://purl.org/dc/elements/1.1/"
   xmlns:cc="http://creativecommons.org/ns#"
   xmlns:rdf="http://www.w3.org/1999/02/22-rdf-syntax-ns#"
   xmlns:svg="http://www.w3.org/2000/svg"
   xmlns="http://www.w3.org/2000/svg"
   xmlns:sodipodi="http://sodipodi.sourceforge.net/DTD/sodipodi-0.dtd"
   xmlns:inkscape="http://www.inkscape.org/namespaces/inkscape"
   width="48"
   height="48"
   viewBox="0 0 12.7 12.7"
   version="1.1"
   id="svg829"
   inkscape:version="0.92.3 (2405546, 2018-03-11)"
   sodipodi:docname="fontforge.svg">
  <defs
     id="defs823">
    <linearGradient
       id="b"
       y1="41.938999"
       y2="5.9780002"
       gradientUnits="userSpaceOnUse"
       x2="0"
       gradientTransform="matrix(0.2204542,0,0,0.22011029,1.1250151,285.37101)">
      <stop
         stop-color="#d35400"
         id="stop7" />
      <stop
         offset="1"
         stop-color="#f67400"
         stop-opacity=".941"
         id="stop9" />
    </linearGradient>
  </defs>
  <sodipodi:namedview
     id="base"
     pagecolor="#ffffff"
     bordercolor="#666666"
     borderopacity="1.0"
     inkscape:pageopacity="0.0"
     inkscape:pageshadow="2"
     inkscape:zoom="2.8020833"
     inkscape:cx="-33.635688"
     inkscape:cy="22.572491"
     inkscape:document-units="mm"
     inkscape:current-layer="layer1"
     showgrid="false"
     showguides="true"
     inkscape:guide-bbox="true"
     inkscape:window-width="1366"
     inkscape:window-height="719"
     inkscape:window-x="0"
     inkscape:window-y="25"
     inkscape:window-maximized="1"
     scale-x="1.9"
     units="px"
     inkscape:snap-global="false" />
  <metadata
     id="metadata826">
    <rdf:RDF>
      <cc:Work
         rdf:about="">
        <dc:format>image/svg+xml</dc:format>
        <dc:type
           rdf:resource="http://purl.org/dc/dcmitype/StillImage" />
        <dc:title />
      </cc:Work>
    </rdf:RDF>
  </metadata>
  <g
     inkscape:label="Capa 1"
     inkscape:groupmode="layer"
     id="layer1"
     transform="translate(0,-284.3)">
    <path
       style="fill:#e6e6e6;fill-opacity:1;stroke-width:0.52516764"
       d="M 23.978516 0.27539062 A 23.770509 23.770509 0 0 0 0.20703125 24.046875 A 23.770509 23.770509 0 0 0 23.978516 47.816406 A 23.770509 23.770509 0 0 0 47.748047 24.046875 A 23.770509 23.770509 0 0 0 23.978516 0.27539062 z M 23.910156 3.8144531 A 20.436071 20.436071 0 0 1 44.345703 24.25 A 20.436071 20.436071 0 0 1 23.910156 44.685547 A 20.436071 20.436071 0 0 1 3.4726562 24.25 A 20.436071 20.436071 0 0 1 23.910156 3.8144531 z M 35.0625 9.015625 C 30.330685 9.015625 28.64195 14.554326 27.537109 18.173828 L 22.03125 18.173828 C 22.584504 16.057482 23.417587 10.642578 25.998047 10.642578 C 27.134549 10.642578 26.551044 12.759766 28.363281 12.759766 C 29.162332 12.759766 29.716797 12.145613 29.716797 11.470703 C 29.716797 10.090042 27.779492 9.4453125 26.611328 9.4453125 C 21.972 9.4453125 20.422079 14.555447 19.316406 18.175781 L 16.085938 18.175781 L 15.667969 19.007812 L 19.083984 19.003906 L 15.119141 32.849609 C 14.811687 34.107776 13.860538 37.974609 12.539062 37.974609 C 12.354924 37.974609 12.138672 37.789571 12.138672 37.544922 L 12.138672 37.517578 C 12.138672 37.057647 12.568359 36.721203 12.568359 36.230469 C 12.568359 35.678053 11.862268 35.339844 11.339844 35.339844 C 10.325824 35.340448 9.8339844 36.045974 9.8339844 36.8125 C 9.8339844 37.824884 10.694732 38.992188 12.445312 38.992188 C 15.794828 38.992188 17.516091 34.420934 18.222656 31.84375 L 21.818359 19.019531 L 27.332031 19.007812 L 23.353516 32.855469 C 23.046062 34.112766 22.094913 37.978516 20.773438 37.978516 C 20.589299 37.978516 20.373047 37.793855 20.373047 37.548828 L 20.373047 37.523438 C 20.373047 37.063507 20.804688 36.725147 20.804688 36.234375 C 20.804688 35.681959 20.096643 35.345703 19.574219 35.345703 C 18.560198 35.345703 18.068359 36.049805 18.068359 36.816406 C 18.068359 37.828715 18.929107 38.996094 20.679688 38.996094 C 24.029202 38.996094 25.750467 34.424803 26.457031 31.847656 L 30.052734 19.009766 L 33.164062 19.009766 L 33.582031 18.175781 L 30.248047 18.175781 C 30.801299 16.059397 31.864306 10.212891 34.447266 10.212891 C 35.583768 10.212891 35.000265 12.330078 36.8125 12.330078 C 37.611553 12.330078 38.166016 11.715888 38.166016 11.041016 C 38.166016 9.6603164 36.230663 9.015625 35.0625 9.015625 z "
       transform="matrix(0.26458333,0,0,0.26458333,0,284.3)"
       id="path1374" />
  </g>
</svg>
