<svg xmlns="http://www.w3.org/2000/svg" width="48" height="48" viewBox="0 0 12.7 12.7">
  <path fill="#e6e6e6" d="M6.34431561.07286377a6.28928043 6.28928043 0 0 0-6.2895386 6.2895385 6.28928043 6.28928043 0 0 0 6.2895386 6.28902166 6.28928043 6.28928043 0 0 0 6.28902167-6.28902167A6.28928043 6.28928043 0 0 0 6.3443156.07286376zm-.01808691.93637693a5.40704372 5.40704372 0 0 1 5.40690507 5.40690505 5.40704372 5.40704372 0 0 1-5.40690507 5.40690508A5.40704372 5.40704372 0 0 1 .91880694 6.41614575 5.40704372 5.40704372 0 0 1 6.3262287 1.0092407zM9.276953 2.38538408c-1.25195936 0-1.6987705 1.46544796-1.991093 2.42310785H5.82910149c.14638178-.55994987.36680166-1.9926432 1.04954836-1.9926432.30069948 0 .14631379.56017265.62580149.56017265.21141557 0 .35811777-.16249465.35811777-.34106458 0-.36529989-.51257861-.53588457-.82165533-.53588457-1.22748885 0-1.63757211 1.3520564-1.93011476 2.30993643h-.85472798l-.11058763.22014153.90382063-.00103346-1.04903137 3.6633422c-.0813472.33289002-.33300537 1.35598957-.6826459 1.35598957-.04871984 0-.10593651-.04895797-.10593651-.11368801v-.00723477c0-.12169007.11368802-.21070755.11368802-.34054758 0-.14616007-.18681991-.23564453-.3250446-.23564453-.26829278.0001598-.39842534.18683022-.39842534.38964023 0 .26785993.22773947.5767091.69091375.5767091.8862261 0 1.3416436-1.2094776 1.52858892-1.89135753l.95136307-3.39307456 1.4588257-.00310066-1.05264875 3.6638592c-.0813472.33265983-.33300537 1.35547284-.68264563 1.35547284-.0487201 0-.10593678-.04885822-.10593678-.11368828v-.00671777c0-.12169008.11420501-.2112145.11420501-.34106458 0-.14616007-.1873369-.2351278-.32556158-.2351278-.26829306 0-.39842546.18629365-.39842546.3891235 0 .26784008.22773957.5767091.69091412.5767091.88622557 0 1.3416436-1.20948739 1.52858865-1.89135752l.95136308-3.39669169h.82320552l.11058763-.22065853H8.003129c.14638126-.55995992.42763519-2.10684795 1.11104335-2.10684795.30069948 0 .14631431.56017239.62580149.56017239.2114161 0 .35811777-.16250444.35811777-.34106432 0-.3653101-.51206215-.5358847-.8211386-.5358847z"/>
</svg>
