<?xml version="1.0" encoding="UTF-8" standalone="no"?>
<!-- Created with Inkscape (http://www.inkscape.org/) -->

<svg
   xmlns:dc="http://purl.org/dc/elements/1.1/"
   xmlns:cc="http://creativecommons.org/ns#"
   xmlns:rdf="http://www.w3.org/1999/02/22-rdf-syntax-ns#"
   xmlns:svg="http://www.w3.org/2000/svg"
   xmlns="http://www.w3.org/2000/svg"
   xmlns:sodipodi="http://sodipodi.sourceforge.net/DTD/sodipodi-0.dtd"
   xmlns:inkscape="http://www.inkscape.org/namespaces/inkscape"
   width="48"
   height="48"
   viewBox="0 0 12.7 12.7"
   version="1.1"
   id="svg829"
   inkscape:version="0.92.3 (2405546, 2018-03-11)"
   sodipodi:docname="gdm-setup.svg">
  <defs
     id="defs823" />
  <sodipodi:namedview
     id="base"
     pagecolor="#ffffff"
     bordercolor="#666666"
     borderopacity="1.0"
     inkscape:pageopacity="0.0"
     inkscape:pageshadow="2"
     inkscape:zoom="3.9627443"
     inkscape:cx="20.59327"
     inkscape:cy="22.990599"
     inkscape:document-units="mm"
     inkscape:current-layer="layer1"
     showgrid="false"
     showguides="true"
     inkscape:guide-bbox="true"
     inkscape:window-width="1366"
     inkscape:window-height="719"
     inkscape:window-x="0"
     inkscape:window-y="25"
     inkscape:window-maximized="1"
     scale-x="1.9"
     units="px"
     inkscape:snap-global="false" />
  <metadata
     id="metadata826">
    <rdf:RDF>
      <cc:Work
         rdf:about="">
        <dc:format>image/svg+xml</dc:format>
        <dc:type
           rdf:resource="http://purl.org/dc/dcmitype/StillImage" />
        <dc:title></dc:title>
      </cc:Work>
    </rdf:RDF>
  </metadata>
  <g
     inkscape:label="Capa 1"
     inkscape:groupmode="layer"
     id="layer1"
     transform="translate(0,-284.3)">
    <path
       style="opacity:1;fill:#e6e6e6;fill-opacity:1;stroke-width:0.52516764"
       d="M 23.978516 0.27539062 A 23.770509 23.770509 0 0 0 0.20703125 24.046875 A 23.770509 23.770509 0 0 0 23.978516 47.816406 A 23.770509 23.770509 0 0 0 47.748047 24.046875 A 23.770509 23.770509 0 0 0 23.978516 0.27539062 z M 23.910156 3.8144531 A 20.436071 20.436071 0 0 1 44.345703 24.25 A 20.436071 20.436071 0 0 1 25.375 44.632812 L 25.408203 36.791016 L 38.744141 36.791016 C 39.543613 36.791016 40.1875 36.14714 40.1875 35.347656 L 40.1875 12.980469 C 40.1875 12.180947 39.543613 11.537109 38.744141 11.537109 L 9.1601562 11.537109 C 8.3606871 11.537109 7.71875 12.180947 7.71875 12.980469 L 7.71875 35.347656 C 7.71875 36.14714 8.3606871 36.791016 9.1601562 36.791016 L 22.265625 36.791016 L 22.232422 44.601562 A 20.436071 20.436071 0 0 1 3.4726562 24.25 A 20.436071 20.436071 0 0 1 23.910156 3.8144531 z M 10.638672 13.306641 L 37.181641 13.306641 C 37.898925 13.306641 38.476563 13.865617 38.476562 14.558594 L 38.476562 33.947266 C 38.476562 34.640204 37.898925 35.197266 37.181641 35.197266 L 25.414062 35.197266 L 25.423828 32.955078 C 25.428175 31.927311 25.631027 31.218079 25.878906 30.734375 C 26.584518 30.379855 27.131203 29.823418 27.371094 29.119141 C 27.673962 28.229818 27.491212 27.052326 26.955078 26.091797 C 26.91102 26.007513 26.816083 25.953883 26.705078 25.964844 C 26.599455 25.972403 26.509118 26.034606 26.480469 26.123047 L 25.650391 28.546875 C 25.576346 28.764576 25.316826 28.903312 24.953125 28.958984 C 24.586295 29.014921 24.122038 28.984855 23.632812 28.859375 C 23.144065 28.732761 22.731611 28.540583 22.458984 28.320312 C 22.180959 28.107147 22.05679 27.860506 22.130859 27.642578 L 22.962891 25.205078 C 22.986173 25.137047 22.970995 25.065325 22.919922 25.009766 C 22.875565 24.948537 22.783805 24.924962 22.707031 24.923828 L 22.707031 24.917969 C 22.667494 24.91589 22.622078 24.930448 22.583984 24.953125 C 21.53059 25.504142 20.638958 26.413034 20.335938 27.302734 C 19.922143 28.517701 20.539254 29.802597 21.761719 30.542969 C 22.041483 31.030339 22.285976 31.783847 22.28125 32.923828 L 22.271484 35.197266 L 10.638672 35.197266 C 9.9213886 35.197266 9.34375 34.640204 9.34375 33.947266 L 9.34375 14.558594 C 9.34375 13.865617 9.9213886 13.306641 10.638672 13.306641 z M 17.929688 16.498047 C 17.32629 16.498047 16.839213 16.953828 16.779297 17.541016 C 16.870217 17.304039 17.094917 17.134766 17.365234 17.134766 L 30.71875 17.134766 C 30.989058 17.134766 31.213759 17.303888 31.304688 17.541016 C 31.244771 16.954017 30.757694 16.498047 30.154297 16.498047 L 17.929688 16.498047 z M 16.779297 17.541016 C 16.752424 17.612449 16.732422 17.688964 16.732422 17.767578 L 16.732422 22.191406 C 16.732422 22.273044 16.751173 22.351954 16.779297 22.421875 C 16.774572 22.378032 16.765625 22.337631 16.765625 22.294922 L 16.765625 17.660156 C 16.765625 17.619337 16.775328 17.580701 16.779297 17.541016 z M 16.779297 22.421875 C 16.843651 23.0043 17.329647 23.457031 17.929688 23.457031 L 30.154297 23.457031 C 30.754337 23.457031 31.240321 23.004414 31.304688 22.421875 C 31.212596 22.656962 30.987342 22.824219 30.71875 22.824219 L 17.365234 22.824219 C 17.096623 22.824219 16.871399 22.65647 16.779297 22.421875 z M 31.304688 22.421875 C 31.332807 22.349308 31.351562 22.273044 31.351562 22.191406 L 31.351562 17.767578 C 31.351562 17.688869 31.331279 17.615441 31.304688 17.544922 C 31.308828 17.578506 31.316406 17.621029 31.316406 17.660156 L 31.316406 22.294922 C 31.316406 22.338764 31.309412 22.379922 31.304688 22.421875 z M 19.650391 18.677734 A 1.2653054 1.2653054 0 0 0 18.347656 19.943359 A 1.2653055 1.2653055 0 0 0 20.878906 19.943359 A 1.2653054 1.2653054 0 0 0 19.650391 18.677734 z M 24.078125 18.677734 A 1.2653054 1.2653054 0 0 0 22.777344 19.943359 A 1.2653059 1.2653059 0 0 0 25.306641 19.943359 A 1.2653054 1.2653054 0 0 0 24.078125 18.677734 z M 28.507812 18.679688 A 1.2653057 1.2653057 0 0 0 27.205078 19.943359 A 1.2653057 1.2653057 0 0 0 29.736328 19.943359 A 1.2653057 1.2653057 0 0 0 28.507812 18.679688 z "
       transform="matrix(0.26458333,0,0,0.26458333,0,284.3)"
       id="path826" />
    <path
       d="m 49.690566,343.4349 -2.388959,-3.02984 c -0.05992,-0.0755 -0.148496,-0.11984 -0.244888,-0.11984 h -6.273298 c -0.09639,0 -0.184969,0.0443 -0.244888,0.11984 l -2.38896,3.02984 c -0.04429,0.0547 -0.06773,0.12244 -0.06773,0.19278 v 8.51637 c 0,0.17194 0.14068,0.31262 0.312623,0.31262 h 11.048612 c 0.171943,0 0.312623,-0.14068 0.312623,-0.31262 v -8.51637 c 0.0026,-0.0703 -0.02084,-0.13807 -0.06513,-0.19278 z m -0.849291,-0.0677 h -4.608582 v -2.45669 h 2.672925 z m -7.906753,-2.45669 h 2.672925 v 2.45669 h -4.608582 z m -2.227438,10.92095 v -7.83901 H 49.13045 v 7.83901 z"
       id="path2"
       inkscape:connector-curvature="0"
       style="stroke-width:0.0260519" />
  </g>
</svg>
