<svg xmlns="http://www.w3.org/2000/svg" width="48" height="48" viewBox="0 0 12.7 12.7">
  <path fill="#e6e6e6" d="M6.34431561.07286377a6.28928043 6.28928043 0 0 0-6.2895386 6.2895385 6.28928043 6.28928043 0 0 0 6.2895386 6.28902166 6.28928043 6.28928043 0 0 0 6.28902167-6.28902167A6.28928043 6.28928043 0 0 0 6.3443156.07286376zm-.01808691.93637693a5.40704372 5.40704372 0 0 1 5.40690507 5.40690505A5.40704372 5.40704372 0 0 1 6.713802 11.80909803l.00878496-2.0748085h3.52846688c.21152697 0 .38188873-.17035886.38188873-.381889V3.43441571c0-.21154019-.17036176-.381889-.38188873-.381889h-7.8274292c-.2115262 0-.38137206.17034881-.38137206.381889v5.91798482c0 .21153014.16984585.381889.38137205.381889h3.46748858l-.00878496 2.06654027a5.40704372 5.40704372 0 0 1-4.9635213-5.38468405A5.40704372 5.40704372 0 0 1 6.3262287 1.0092407zM2.81481526 3.5207154H9.8376424c.18978139 0 .34261478.14789573.34261451.3312459v5.1299194c0 .18333984-.15283312.33072916-.3426145.33072916H6.72413714l.00258392-.59324557c.00115015-.27193002.0548214-.45958098.12040606-.587561.18669317-.09380008.3313369-.24102403.39480807-.42736399.08013382-.23530004.03178122-.5468448-.1100709-.80098475-.01165701-.02230015-.03677576-.03648975-.06614583-.03358965-.02794609.00199998-.05184775.01845786-.0594278.04185788l-.2196248.64130448c-.01959108.05760005-.08825574.09430729-.18448496.10903717-.0970571.0148-.21989177.00684504-.34933281-.02635488-.12931431-.03349995-.23844277-.08434705-.31057532-.14262708-.07356079-.05639991-.10641383-.121657-.08681641-.17931712l.2201418-.64492187c.00616003-.01799987.00214418-.03697631-.01136888-.0516763-.01173613-.01620017-.0360143-.02243772-.05632741-.02273776v-.0015502c-.01046083-.00055006-.02247715.00330174-.03255619.0093017-.2787105.1457899-.51462145.38626758-.5947955.62166737-.10948325.32146001.05379403.66142208.37723789.85731217.07402089.12894997.13870966.32831563.13745924.6299356l-.00258392.6015138H2.81481526c-.18978123 0-.34261477-.14738932-.34261477-.33072917v-5.1299194c0-.18335016.15283354-.3312459.34261477-.3312459zm1.9290813.84439282c-.15964906 0-.28852151.12059206-.30437428.27595221.02405591-.06270016.08350779-.10748697.15502916-.10748697h3.53311773c.07151899 0 .13097113.04474686.15502943.10748697-.01585304-.15531015-.1447255-.2759522-.30437429-.2759522H4.74389656zm-.30437428.27595221c-.00711015.01889999-.01240235.03914458-.01240235.05994453V5.8714761c0 .02160005.0049612.04247832.01240235.06097825-.00125016-.01160012-.00361739-.02228956-.00361739-.03358965V4.67258288c0-.01080002.00256725-.02102247.00361739-.03152246zm0 1.29139393c.017027.15409995.14561343.27388502.30437428.27388502H7.9783243c.15876059 0 .28734385-.1197549.30437429-.27388502-.02436601.0622001-.08396447.10645352-.15502943.10645352H4.59455144c-.07107 0-.13066051-.0443836-.15502916-.10645352zm3.84317632 0c.00743981-.01920002.01240207-.0393782.01240207-.06097825V4.70100495c0-.02082509-.00536654-.04025291-.01240207-.05891106.00109537.00888576.00310038.02013664.00310038.030489V5.8988647c0 .01159987-.0018505.02248959-.00310038.03358965zm-3.08353271-.9906373a.33477872.33477872 0 0 0-.34468197.33486329.33486328.33486328 0 0 0 .66972656 0 .33477872.33477872 0 0 0-.3250446-.33486328zm1.1715046 0a.33477872.33477872 0 0 0-.34416497.33486329.33477885.33477885 0 0 0 .66920983 0 .33477872.33477872 0 0 0-.32504486-.33486328zm1.17202134.000517a.3347788.3347788 0 0 0-.3446817.33434629.33486328.33486328 0 0 0 .66972655 0 .3347788.3347788 0 0 0-.32504485-.33434629z"/>
  <path d="M49.690566 59.1349l-2.388959-3.02984c-.05992-.0755-.148496-.11984-.244888-.11984h-6.273298c-.09639 0-.184969.0443-.244888.11984l-2.38896 3.02984c-.04429.0547-.06773.12244-.06773.19278v8.51637c0 .17194.14068.31262.312623.31262h11.048612c.171943 0 .312623-.14068.312623-.31262v-8.51637c.0026-.0703-.02084-.13807-.06513-.19278zm-.849291-.0677h-4.608582v-2.45669h2.672925zm-7.906753-2.45669h2.672925v2.45669h-4.608582zm-2.227438 10.92095v-7.83901H49.13045v7.83901z"/>
</svg>
