<svg xmlns="http://www.w3.org/2000/svg" width="48" height="48" viewBox="0 0 12.7 12.7">
  <path fill="#e6e6e6" d="M6.34431561.07286377a6.28928043 6.28928043 0 0 0-6.2895386 6.2895385 6.28928043 6.28928043 0 0 0 6.2895386 6.28902166 6.28928043 6.28928043 0 0 0 6.28902167-6.28902167A6.28928043 6.28928043 0 0 0 6.3443156.07286376zm-.01808691.93637693a5.40704372 5.40704372 0 0 1 5.40690507 5.40690505 5.40704372 5.40704372 0 0 1-5.40690507 5.40690508A5.40704372 5.40704372 0 0 1 .91880694 6.41614575 5.40704372 5.40704372 0 0 1 6.3262287 1.0092407zM3.26336656 2.70009352c-1.1280436.79352007.4141515 1.51112906 0 2.51715902.79808783-.53996007.60336456-1.45190896 0-2.51715902zm3.56205653 2.9967163c-.04564988 0-.09166516.0102878-.13229166.02428796-.11491225.04549987-.26354987.25114752-.26354987.25114752l-1.05523267.50384498h-.5281332c-.91522549.02860014-1.16709373-.89262266-1.84691547-.7549925.81554425.63379984.00275485 1.53627374.52813294 2.01331378.89766853.81511985 2.09142354 1.49368217 3.2514812 1.510502h-.3493328v.25166425l-1.31929927.50332851h3.4302816l-1.319816-.50332851v-.25166426h-.31057532c.88413907-.02580005 1.74042756-.44955194 2.42155739-1.510502 2.71306869 1.37821986 1.41423759-3.647468 0-1.258838h-.79116607l-1.319816-.50332825s-.14915409-.20624429-.2640666-.25166425c-.04062915-.01620017-.0856107-.02377123-.1312582-.02377123zm3.29023844.77773027v.00103346a.2638514.50345644 0 0 1 .00051673 0 .2638514.50345644 0 0 1 .01860365.00103373.2638514.50345644 0 0 1 .25269771.52296535l-.00103372.00310065a.2638514.50345644 0 0 1-.27595195.47852383.2638514.50345644 0 0 1-.25114752-.52503255.2638514.50345644 0 0 1 .2563151-.48162447z"/>
</svg>
