<?xml version="1.0" encoding="UTF-8" standalone="no"?>
<!-- Created with Inkscape (http://www.inkscape.org/) -->

<svg
   xmlns:dc="http://purl.org/dc/elements/1.1/"
   xmlns:cc="http://creativecommons.org/ns#"
   xmlns:rdf="http://www.w3.org/1999/02/22-rdf-syntax-ns#"
   xmlns:svg="http://www.w3.org/2000/svg"
   xmlns="http://www.w3.org/2000/svg"
   xmlns:sodipodi="http://sodipodi.sourceforge.net/DTD/sodipodi-0.dtd"
   xmlns:inkscape="http://www.inkscape.org/namespaces/inkscape"
   width="48"
   height="48"
   viewBox="0 0 12.7 12.7"
   version="1.1"
   id="svg829"
   inkscape:version="0.92.3 (2405546, 2018-03-11)"
   sodipodi:docname="geany.svg">
  <defs
     id="defs823" />
  <sodipodi:namedview
     id="base"
     pagecolor="#ffffff"
     bordercolor="#666666"
     borderopacity="1.0"
     inkscape:pageopacity="0.0"
     inkscape:pageshadow="2"
     inkscape:zoom="2.8020833"
     inkscape:cx="19.182156"
     inkscape:cy="22.572491"
     inkscape:document-units="mm"
     inkscape:current-layer="layer1"
     showgrid="false"
     showguides="true"
     inkscape:guide-bbox="true"
     inkscape:window-width="1366"
     inkscape:window-height="719"
     inkscape:window-x="0"
     inkscape:window-y="25"
     inkscape:window-maximized="1"
     scale-x="1.9"
     units="px"
     inkscape:snap-global="false" />
  <metadata
     id="metadata826">
    <rdf:RDF>
      <cc:Work
         rdf:about="">
        <dc:format>image/svg+xml</dc:format>
        <dc:type
           rdf:resource="http://purl.org/dc/dcmitype/StillImage" />
        <dc:title></dc:title>
      </cc:Work>
    </rdf:RDF>
  </metadata>
  <g
     inkscape:label="Capa 1"
     inkscape:groupmode="layer"
     id="layer1"
     transform="translate(0,-284.3)">
    <path
       style="fill:#e6e6e6;fill-opacity:1;stroke-width:0.52516764"
       d="M 23.978516 0.27539062 A 23.770509 23.770509 0 0 0 0.20703125 24.046875 A 23.770509 23.770509 0 0 0 23.978516 47.816406 A 23.770509 23.770509 0 0 0 47.748047 24.046875 A 23.770509 23.770509 0 0 0 23.978516 0.27539062 z M 23.910156 3.8144531 A 20.436071 20.436071 0 0 1 44.345703 24.25 A 20.436071 20.436071 0 0 1 23.910156 44.685547 A 20.436071 20.436071 0 0 1 3.4726562 24.25 A 20.436071 20.436071 0 0 1 23.910156 3.8144531 z M 12.333984 10.205078 C 8.0705121 13.204209 13.899281 15.916432 12.333984 19.71875 C 15.350379 17.677956 14.614417 14.23122 12.333984 10.205078 z M 25.796875 21.53125 C 25.62434 21.53125 25.450424 21.570133 25.296875 21.623047 C 24.862561 21.795015 24.300781 22.572266 24.300781 22.572266 L 20.3125 24.476562 L 18.316406 24.476562 C 14.857286 24.584657 13.905343 21.10287 11.335938 21.623047 C 14.41831 24.018511 11.34635 27.429436 13.332031 29.232422 C 16.724794 32.31319 21.236624 34.877835 25.621094 34.941406 L 24.300781 34.941406 L 24.300781 35.892578 L 19.314453 37.794922 L 32.279297 37.794922 L 27.291016 35.892578 L 27.291016 34.941406 L 26.117188 34.941406 C 29.458816 34.843894 32.695182 33.242312 35.269531 29.232422 C 45.523649 34.441442 40.614681 15.446716 35.269531 24.474609 L 32.279297 24.474609 L 27.291016 22.572266 C 27.291016 22.572266 26.727284 21.79276 26.292969 21.621094 C 26.13941 21.559865 25.969401 21.53125 25.796875 21.53125 z M 38.232422 24.470703 L 38.232422 24.474609 A 0.99723368 1.9028275 0 0 1 38.234375 24.474609 A 0.99723368 1.9028275 0 0 1 38.304688 24.478516 A 0.99723368 1.9028275 0 0 1 39.259766 26.455078 L 39.255859 26.466797 A 0.99723368 1.9028275 0 0 1 38.212891 28.275391 A 0.99723368 1.9028275 0 0 1 37.263672 26.291016 A 0.99723368 1.9028275 0 0 1 38.232422 24.470703 z "
       transform="matrix(0.26458333,0,0,0.26458333,0,284.3)"
       id="path822" />
  </g>
</svg>
