<?xml version="1.0" encoding="UTF-8" standalone="no"?>
<!-- Created with Inkscape (http://www.inkscape.org/) -->

<svg
   xmlns:dc="http://purl.org/dc/elements/1.1/"
   xmlns:cc="http://creativecommons.org/ns#"
   xmlns:rdf="http://www.w3.org/1999/02/22-rdf-syntax-ns#"
   xmlns:svg="http://www.w3.org/2000/svg"
   xmlns="http://www.w3.org/2000/svg"
   xmlns:sodipodi="http://sodipodi.sourceforge.net/DTD/sodipodi-0.dtd"
   xmlns:inkscape="http://www.inkscape.org/namespaces/inkscape"
   width="48"
   height="48"
   viewBox="0 0 12.7 12.7"
   version="1.1"
   id="svg829"
   inkscape:version="0.92.3 (2405546, 2018-03-11)"
   sodipodi:docname="gimp.svg">
  <defs
     id="defs823" />
  <sodipodi:namedview
     id="base"
     pagecolor="#ffffff"
     bordercolor="#666666"
     borderopacity="1.0"
     inkscape:pageopacity="0.0"
     inkscape:pageshadow="2"
     inkscape:zoom="3.9406472"
     inkscape:cx="20.574167"
     inkscape:cy="22.984938"
     inkscape:document-units="mm"
     inkscape:current-layer="layer1"
     showgrid="false"
     showguides="true"
     inkscape:guide-bbox="true"
     inkscape:window-width="1366"
     inkscape:window-height="719"
     inkscape:window-x="0"
     inkscape:window-y="25"
     inkscape:window-maximized="1"
     scale-x="1.9"
     units="px"
     inkscape:snap-global="false" />
  <metadata
     id="metadata826">
    <rdf:RDF>
      <cc:Work
         rdf:about="">
        <dc:format>image/svg+xml</dc:format>
        <dc:type
           rdf:resource="http://purl.org/dc/dcmitype/StillImage" />
        <dc:title></dc:title>
      </cc:Work>
    </rdf:RDF>
  </metadata>
  <g
     inkscape:label="Capa 1"
     inkscape:groupmode="layer"
     id="layer1"
     transform="translate(0,-284.3)">
    <path
       style="fill:#e6e6e6;fill-opacity:1;stroke-width:0.52516764"
       d="M 23.978516 0.27539062 A 23.770509 23.770509 0 0 0 0.20703125 24.046875 A 23.770509 23.770509 0 0 0 23.978516 47.816406 A 23.770509 23.770509 0 0 0 47.748047 24.046875 A 23.770509 23.770509 0 0 0 23.978516 0.27539062 z M 23.910156 3.8144531 A 20.436071 20.436071 0 0 1 44.345703 24.25 A 20.436071 20.436071 0 0 1 23.910156 44.685547 A 20.436071 20.436071 0 0 1 3.4726562 24.25 A 20.436071 20.436071 0 0 1 23.910156 3.8144531 z M 38.318359 11.195312 C 38.057118 11.152226 37.82467 11.302514 37.683594 11.470703 C 37.542504 11.638892 37.442688 11.846849 37.357422 12.109375 C 37.209983 12.562994 36.669052 14.245879 34.716797 15.910156 C 32.764543 17.574471 29.399349 20.052964 23.564453 20.203125 C 20.016447 20.245834 17.569087 18.416759 16.154297 15.617188 C 15.801213 14.918504 15.285156 13.618793 15.285156 14.447266 L 15.285156 15.728516 L 15.267578 22.355469 L 15.349609 23.480469 C 15.013749 24.431851 15.778708 25.267718 13.810547 26.742188 C 14.312808 29.440468 12.513889 30.527273 12.181641 30.550781 C 13.147762 31.519361 14.417554 32.606228 15.923828 33.492188 C 18.936374 35.264068 22.794063 36.661139 26.542969 36.726562 C 30.291873 36.792326 33.959737 35.482517 36.386719 31.851562 C 38.813699 28.220684 39.99683 21.290834 39.027344 12.265625 L 39.025391 12.265625 C 38.994398 12.017688 38.939649 11.806442 38.841797 11.621094 C 38.743907 11.435897 38.579559 11.244246 38.318359 11.203125 L 38.318359 11.195312 z M 19.537109 20.34375 C 20.481271 20.34375 21.42992 20.64548 22.152344 21.265625 C 22.339241 21.425499 22.509895 21.607435 22.660156 21.810547 C 22.810177 21.607964 22.981246 21.426066 23.167969 21.265625 C 23.890391 20.645405 24.839042 20.34375 25.783203 20.34375 C 26.727366 20.34375 27.676013 20.64548 28.398438 21.265625 C 29.120861 21.885808 29.599609 22.829675 29.599609 24.029297 C 29.599609 25.228881 29.120861 26.172786 28.398438 26.792969 C 27.676013 27.413076 26.727366 27.714844 25.783203 27.714844 C 24.839042 27.714844 23.890391 27.413076 23.167969 26.792969 C 22.981241 26.632339 22.81018 26.450025 22.660156 26.248047 C 22.509894 26.45063 22.339244 26.632528 22.152344 26.792969 C 21.42992 27.413076 20.481271 27.714844 19.537109 27.714844 C 18.592947 27.714844 17.644299 27.413076 16.921875 26.792969 C 16.199451 26.172786 15.720703 25.228881 15.720703 24.029297 C 15.720703 22.829675 16.199451 21.885808 16.921875 21.265625 C 17.644299 20.645405 18.592947 20.34375 19.537109 20.34375 z M 8.1386719 21.162109 C 7.9386529 21.162109 7.7453533 21.178621 7.5546875 21.205078 C 7.0462473 21.284864 6.5718704 21.476113 6.1660156 21.765625 C 4.5425921 22.925335 4.1178359 25.55638 6.1230469 28.308594 C 8.128262 31.060921 10.78088 31.485882 12.404297 30.326172 C 14.027725 29.166386 14.456385 26.539399 12.451172 23.787109 C 11.135251 21.980949 9.5387997 21.175401 8.1386719 21.164062 L 8.1386719 21.162109 z M 19.457031 22.455078 C 18.996799 22.455078 18.532266 22.606903 18.173828 22.925781 C 17.815393 23.244395 17.578125 23.735874 17.578125 24.333984 C 17.578125 24.932057 17.815391 25.423573 18.173828 25.742188 C 18.532267 26.06118 18.996799 26.212891 19.457031 26.212891 C 19.917263 26.212891 20.381798 26.061066 20.740234 25.742188 C 21.098673 25.423195 21.335938 24.932057 21.335938 24.333984 C 21.335938 23.735874 21.098674 23.244433 20.740234 22.925781 C 20.381795 22.606789 19.917263 22.455078 19.457031 22.455078 z M 26.21875 22.455078 C 25.758518 22.455078 25.293983 22.606903 24.935547 22.925781 C 24.577112 23.244395 24.341797 23.735874 24.341797 24.333984 C 24.341797 24.932057 24.577107 25.423573 24.935547 25.742188 C 25.293986 26.06118 25.758518 26.212891 26.21875 26.212891 C 26.678982 26.212891 27.14547 26.061066 27.503906 25.742188 C 27.862345 25.423195 28.097656 24.932057 28.097656 24.333984 C 28.097656 23.735874 27.862346 23.244433 27.503906 22.925781 C 27.145467 22.606789 26.678982 22.455078 26.21875 22.455078 z M 29.599609 29.21875 C 29.599609 29.21875 30.852373 29.727905 31.501953 30.5625 C 32.149672 31.394828 31.273027 31.907812 31.103516 32.972656 C 30.726149 32.037412 30.489889 31.686132 30.394531 31.314453 C 29.708669 32.258277 28.526429 32.935692 26.9375 32.972656 C 25.246195 33.012719 23.09284 32.35442 20.583984 31.472656 L 20.583984 31.470703 C 22.193883 31.470703 23.660926 31.551207 24.992188 31.470703 C 27.203697 31.334262 29.148054 31.093267 30.130859 30.337891 C 29.715141 29.803428 29.599609 29.21875 29.599609 29.21875 z "
       transform="matrix(0.26458333,0,0,0.26458333,0,284.3)"
       id="path829" />
  </g>
</svg>
