<svg xmlns="http://www.w3.org/2000/svg" width="48" height="48" viewBox="0 0 12.7 12.7">
  <path fill="#e6e6e6" d="M6.34431561.07286377a6.28928043 6.28928043 0 0 0-6.2895386 6.2895385 6.28928043 6.28928043 0 0 0 6.2895386 6.28902166 6.28928043 6.28928043 0 0 0 6.28902167-6.28902167A6.28928043 6.28928043 0 0 0 6.3443156.07286376zm-.01808691.93637693a5.40704372 5.40704372 0 0 1 5.40690507 5.40690505 5.40704372 5.40704372 0 0 1-5.40690507 5.40690508A5.40704372 5.40704372 0 0 1 .91880694 6.41614575 5.40704372 5.40704372 0 0 1 6.3262287 1.0092407zm3.81217032 1.95285223c-.06912-.01139984-.13062188.02836386-.16794823.07286387-.03733007.0445-.06373971.09952196-.08629968.16898196-.0390099.12002003-.18213122.56528334-.69866535 1.0056233-.51653387.44035-1.4069081 1.09611793-2.95072432 1.13584803-.93874324.01130009-1.5862739-.47264267-1.96060375-1.21336248-.09342014-.18486014-.22996022-.528742-.22996022-.30954186v.33899739l-.00465084 1.7533813.02170403.29765624c-.08886295.25171982.11353245.47287629-.40721015.86299647.1328899.71391991-.34307409 1.0014704-.43098137 1.00769022.25561951.25627012.5915853.54383701.9901203.77824726.79706945.46880991 1.81774965.8384516 2.80964769.85576144.9918975.01740006 1.96235317-.32915357 2.60449215-1.28984373.64213845-.9606698.9551752-2.79419258.69866536-5.18211243h-.00051673c-.00820024-.0656-.0226859-.12149217-.04857592-.17053216-.02590006-.04900004-.0693838-.0997077-.13849297-.11058763v-.0020672zM5.16919336 5.38261712c.24980952 0 .50080624.07983273.69194758.24391276.04944983.0423.09460204.09043723.1343586.14417727.03969305-.05360008.08495505-.10172726.13435885-.14417727.19114082-.16409988.44213806-.24391276.69194732-.24391276.24980979 0 .50080597.07983273.69194758.24391276.19114109.16409008.31780983.41382155.31780983.73122154 0 .31738993-.12666874.56713146-.31780983.73122154-.1911416.16406997-.4421378.24391276-.69194758.24391276-.24980926 0-.5008065-.07984279-.69194732-.24391276-.04940512-.04250002-.094665-.09073727-.13435886-.14417728-.03975682.05360009-.08490796.10172726-.13435859.14417728-.19114134.16406997-.44213806.24391276-.69194758.24391276-.24980953 0-.50080598-.07984279-.69194732-.24391276-.19114135-.16409008-.31781009-.41383161-.31781009-.73122154 0-.31739999.12666874-.56713146.31781009-.73122154.19114134-.16409988.4421378-.24391276.69194732-.24391276zm-3.01583645.21652415c-.05292169 0-.10406554.0043688-.15451253.01136888-.1345248.02111005-.26003703.07171134-.36741944.1483114-.4295308.30683993-.5419142 1.00297057-.0113688 1.73116052.53054649.72821984 1.232385.84065744 1.66191407.5338175.42953198-.30686004.54294827-1.001917.01240234-1.73012706-.34817076-.47787983-.77056516-.6910144-1.14101564-.69401451v-.00051673zm2.99464914.34209804c-.12176971 0-.2446774.04017037-.33951412.12454017-.09483592.08429995-.15761308.2143371-.15761308.37258704 0 .15824014.06277663.28828708.15761308.3725873.09483699.08439997.2177444.12454017.33951412.12454017.12176972 0 .24467794-.04017036.33951413-.12454017.09483698-.08440023.15761334-.21434716.15761334-.3725873 0-.15824994-.0627761-.28827703-.15761334-.37258704-.09483699-.08439997-.21774441-.12454017-.33951413-.12454017zm1.78903813 0c-.12176971 0-.24467793.04017037-.33951412.12454017-.09483593.08429995-.15709635.2143371-.15709635.37258704 0 .15824014.0622591.28828708.15709635.3725873.09483698.08439997.2177444.12454017.33951412.12454017.12176972 0 .24519467-.04017036.34003086-.12454017.09483698-.08440023.15709635-.21434716.15709635-.3725873 0-.15824994-.0622591-.28827703-.15709635-.37258704-.09483699-.08439997-.21826114-.12454017-.34003086-.12454017zm.89451894 1.78955486s.33146047.13471393.5033285.35553385c.17137566.22022012-.06057.35594713-.10541978.6376871-.09984502-.24744997-.16235548-.3403928-.18758561-.43873287-.18146766.2497201-.49426865.42895282-.91467278.43873287-.4474911.0106-1.01723294-.16357494-1.68103442-.396875V8.3266234c.42595244 0 .81410756.02130001 1.1663373 0 .58512841-.03610002 1.09957286-.09986328 1.35960668-.29972317-.10999205-.14141-.1405599-.29610606-.1405599-.29610606z"/>
</svg>
