<?xml version="1.0" encoding="UTF-8" standalone="no"?>
<!-- Created with Inkscape (http://www.inkscape.org/) -->

<svg
   xmlns:dc="http://purl.org/dc/elements/1.1/"
   xmlns:cc="http://creativecommons.org/ns#"
   xmlns:rdf="http://www.w3.org/1999/02/22-rdf-syntax-ns#"
   xmlns:svg="http://www.w3.org/2000/svg"
   xmlns="http://www.w3.org/2000/svg"
   xmlns:sodipodi="http://sodipodi.sourceforge.net/DTD/sodipodi-0.dtd"
   xmlns:inkscape="http://www.inkscape.org/namespaces/inkscape"
   width="48"
   height="48"
   viewBox="0 0 12.7 12.7"
   version="1.1"
   id="svg829"
   inkscape:version="0.92.3 (2405546, 2018-03-11)"
   sodipodi:docname="gksu-root-terminal.svg">
  <defs
     id="defs823" />
  <sodipodi:namedview
     id="base"
     pagecolor="#ffffff"
     bordercolor="#666666"
     borderopacity="1.0"
     inkscape:pageopacity="0.0"
     inkscape:pageshadow="2"
     inkscape:zoom="2.8020833"
     inkscape:cx="-14.817427"
     inkscape:cy="-0.21407856"
     inkscape:document-units="mm"
     inkscape:current-layer="layer1"
     showgrid="false"
     showguides="true"
     inkscape:guide-bbox="true"
     inkscape:window-width="1366"
     inkscape:window-height="719"
     inkscape:window-x="0"
     inkscape:window-y="25"
     inkscape:window-maximized="1"
     scale-x="1.9"
     units="px"
     inkscape:snap-global="false" />
  <metadata
     id="metadata826">
    <rdf:RDF>
      <cc:Work
         rdf:about="">
        <dc:format>image/svg+xml</dc:format>
        <dc:type
           rdf:resource="http://purl.org/dc/dcmitype/StillImage" />
        <dc:title></dc:title>
      </cc:Work>
    </rdf:RDF>
  </metadata>
  <g
     inkscape:label="Capa 1"
     inkscape:groupmode="layer"
     id="layer1"
     transform="translate(0,-284.3)">
    <g
       id="g883">
      <path
         id="path822"
         transform="matrix(0.26458333,0,0,0.26458333,0,284.3)"
         d="M 23.978516 0.27539062 A 23.770509 23.770509 0 0 0 0.20703125 24.046875 A 23.770509 23.770509 0 0 0 23.978516 47.816406 A 23.770509 23.770509 0 0 0 47.748047 24.046875 A 23.770509 23.770509 0 0 0 23.978516 0.27539062 z M 23.910156 3.8144531 A 20.436071 20.436071 0 0 1 44.345703 24.25 A 20.436071 20.436071 0 0 1 23.910156 44.685547 A 20.436071 20.436071 0 0 1 3.4726562 24.25 A 20.436071 20.436071 0 0 1 23.910156 3.8144531 z "
         style="fill:#1a1a1a;fill-opacity:1;stroke-width:0.52516764" />
      <path
         inkscape:connector-curvature="0"
         id="path1374"
         d="m 6.4611048,291.98072 a 0.33874155,0.52759 0 1 0 0,1.05518 h 3.116605 a 0.33874155,0.52759 0 1 0 0,-1.05518 z"
         style="fill:#800080;fill-opacity:1;stroke-width:0.17341013;opacity:0.75" />
      <path
         inkscape:connector-curvature="0"
         id="path1374-3"
         d="m 3.4979181,288.02802 a 0.3387427,0.52759181 45 0 0 -0.568957,0.81649 l 1.7869709,1.78697 -1.7869709,1.78749 a 0.52759178,0.33874268 45 1 0 0.746207,0.74569 l 2.2034836,-2.20349 a 0.52759178,0.33874268 45 0 0 0.05374,-0.0863 0.52759178,0.33874268 45 0 0 5.16e-4,-10e-4 0.18361118,0.32966554 0 0 0 0.06305,-0.24701 0.18361118,0.32966554 0 0 0 -0.07493,-0.26562 0.33874268,0.52759178 45 0 0 -0.04237,-0.0589 l -2.2034836,-2.204 a 0.3387427,0.52759181 45 0 0 -0.17725,-0.0703 z"
         style="fill:#800080;fill-opacity:1;stroke-width:0.17341013;opacity:0.75" />
    </g>
  </g>
</svg>
