<?xml version="1.0" encoding="UTF-8" standalone="no"?>
<!-- Created with Inkscape (http://www.inkscape.org/) -->

<svg
   xmlns:dc="http://purl.org/dc/elements/1.1/"
   xmlns:cc="http://creativecommons.org/ns#"
   xmlns:rdf="http://www.w3.org/1999/02/22-rdf-syntax-ns#"
   xmlns:svg="http://www.w3.org/2000/svg"
   xmlns="http://www.w3.org/2000/svg"
   xmlns:sodipodi="http://sodipodi.sourceforge.net/DTD/sodipodi-0.dtd"
   xmlns:inkscape="http://www.inkscape.org/namespaces/inkscape"
   width="48"
   height="48"
   viewBox="0 0 12.7 12.7"
   version="1.1"
   id="svg829"
   inkscape:version="0.92.3 (2405546, 2018-03-11)"
   sodipodi:docname="glipper.svg">
  <defs
     id="defs823" />
  <sodipodi:namedview
     id="base"
     pagecolor="#ffffff"
     bordercolor="#666666"
     borderopacity="1.0"
     inkscape:pageopacity="0.0"
     inkscape:pageshadow="2"
     inkscape:zoom="3.9627443"
     inkscape:cx="20.59327"
     inkscape:cy="22.990599"
     inkscape:document-units="mm"
     inkscape:current-layer="layer1"
     showgrid="false"
     showguides="true"
     inkscape:guide-bbox="true"
     inkscape:window-width="1366"
     inkscape:window-height="719"
     inkscape:window-x="0"
     inkscape:window-y="25"
     inkscape:window-maximized="1"
     scale-x="1.9"
     units="px"
     inkscape:snap-global="false"
     inkscape:measure-start="24.3569,28.2825"
     inkscape:measure-end="0,0" />
  <metadata
     id="metadata826">
    <rdf:RDF>
      <cc:Work
         rdf:about="">
        <dc:format>image/svg+xml</dc:format>
        <dc:type
           rdf:resource="http://purl.org/dc/dcmitype/StillImage" />
        <dc:title></dc:title>
      </cc:Work>
    </rdf:RDF>
  </metadata>
  <g
     inkscape:label="Capa 1"
     inkscape:groupmode="layer"
     id="layer1"
     transform="translate(0,-284.3)">
    <path
       style="fill:#e6e6e6;fill-opacity:1;stroke-width:0.52516764"
       d="M 23.978516 0.27539062 A 23.770509 23.770509 0 0 0 0.20703125 24.046875 A 23.770509 23.770509 0 0 0 23.978516 47.816406 A 23.770509 23.770509 0 0 0 47.748047 24.046875 A 23.770509 23.770509 0 0 0 23.978516 0.27539062 z M 23.910156 3.8144531 A 20.436071 20.436071 0 0 1 44.345703 24.25 A 20.436071 20.436071 0 0 1 23.910156 44.685547 A 20.436071 20.436071 0 0 1 3.4726562 24.25 A 20.436071 20.436071 0 0 1 23.910156 3.8144531 z M 23.998047 8.0625 C 22.107248 8.0625 20.513966 9.2802572 19.919922 10.960938 L 13.857422 10.960938 C 12.256402 10.960938 10.960937 12.258329 10.960938 13.859375 L 10.960938 37.041016 C 10.960938 38.642023 12.256402 39.9375 13.857422 39.9375 L 34.142578 39.9375 C 35.743601 39.9375 37.039062 38.642061 37.039062 37.041016 L 37.039062 13.859375 C 37.039062 12.258329 35.743601 10.960938 34.142578 10.960938 L 28.080078 10.960938 C 27.486034 9.2802194 25.888847 8.0625 23.998047 8.0625 z M 23.998047 10.960938 C 24.794936 10.960938 25.449219 11.606024 25.449219 12.410156 C 25.449219 13.214289 24.794936 13.859375 23.998047 13.859375 C 23.201159 13.859375 22.550781 13.214289 22.550781 12.410156 C 22.550781 11.606024 23.201159 10.960938 23.998047 10.960938 z M 13.857422 13.859375 L 16.753906 13.859375 L 16.753906 18.207031 L 31.244141 18.207031 L 31.244141 13.859375 L 34.142578 13.859375 L 34.142578 37.041016 L 13.857422 37.041016 L 13.857422 13.859375 z M 24.65625 20.703125 C 22.596952 20.703125 20.973425 21.254921 19.789062 22.359375 C 18.604699 23.463677 18.011719 24.978401 18.011719 26.904297 C 18.011719 28.808914 18.594789 30.320548 19.757812 31.435547 C 20.920835 32.545292 22.496385 33.099609 24.486328 33.099609 C 25.366598 33.099609 26.219955 33.005068 27.046875 32.818359 C 27.873796 32.631651 28.671218 32.351971 29.439453 31.978516 L 29.439453 26.232422 L 24.638672 26.232422 L 24.638672 28.296875 L 26.517578 28.296875 L 26.517578 30.619141 C 26.298846 30.70418 26.052807 30.768216 25.775391 30.810547 C 25.503306 30.850988 25.206816 30.867188 24.886719 30.867188 C 23.707692 30.867188 22.7984 30.522236 22.158203 29.833984 C 21.518008 29.145808 21.197266 28.1687 21.197266 26.904297 C 21.197266 25.629273 21.527915 24.651635 22.189453 23.96875 C 22.856324 23.280536 23.804207 22.935547 25.03125 22.935547 C 25.692786 22.935547 26.349658 23.028135 27.005859 23.214844 C 27.667396 23.401552 28.333128 23.685442 29 24.064453 L 29 21.589844 C 28.354468 21.296174 27.664484 21.075148 26.933594 20.925781 C 26.208039 20.776112 25.45116 20.703125 24.65625 20.703125 z "
       transform="matrix(0.26458333,0,0,0.26458333,0,284.3)"
       id="path16" />
  </g>
</svg>
