<svg xmlns="http://www.w3.org/2000/svg" width="48" height="48" viewBox="0 0 12.7 12.7">
  <path fill="#e6e6e6" d="M6.34431561.07286377a6.28928043 6.28928043 0 0 0-6.2895386 6.2895385 6.28928043 6.28928043 0 0 0 6.2895386 6.28902166 6.28928043 6.28928043 0 0 0 6.28902167-6.28902167A6.28928043 6.28928043 0 0 0 6.3443156.07286376zm-.01808691.93637693a5.40704372 5.40704372 0 0 1 5.40690507 5.40690505 5.40704372 5.40704372 0 0 1-5.40690507 5.40690508A5.40704372 5.40704372 0 0 1 .91880694 6.41614575 5.40704372 5.40704372 0 0 1 6.3262287 1.0092407zm.02325449 1.1239624c-.5002739 0-.92182975.32219825-1.0790039.76687838H3.66644287c-.4236032 0-.76636165.34326803-.76636138.7668781v6.13347578c0 .42359976.34275817.76636138.76636138.76636138h5.36711412c.423604 0 .76636138-.34275156.76636138-.76636138V3.66695959c0-.42361008-.34275738-.76687811-.76636138-.76687811H7.42952054c-.15717414-.44469013-.5797632-.76687838-1.08003735-.76687838zm0 .76687838c.21084354 0 .38395592.170679.38395592.38343892 0 .21276019-.17311238.38343919-.38395592.38343919-.21084328 0-.38292246-.170679-.38292246-.38343919 0-.21275992.17207918-.38343892.38292246-.38343892zm-2.68304033.7668781h.76636138V4.8172769h3.83387463V3.6669596h.76687811v6.13347577H3.66644286V3.66695959zm2.85718987 1.81074217c-.54485592 0-.9744141.14599603-1.2877768.43821614-.31336271.2921799-.47025534.69295062-.47025534 1.2025106 0 .50392991.1542706.90388307.4619871 1.19889322.3077165.29362002.72458077.44028306 1.25108651.44028306.23290477 0 .4586888-.02501397.67747805-.07441406.21878952-.04939983.42977408-.1233985.63303626-.22220846V6.94066157H6.51898188v.54621985h.49712721v.61443287c-.05787284.0224999-.12297066.03944276-.1963703.05064283-.07198916.01070002-.15043547.01498627-.2351278.01498627-.3119509 0-.5525344-.09126855-.72191985-.27336856-.16938493-.1820799-.25424791-.44060638-.25424791-.77514634 0-.3373501.0874842-.59601681.26251614-.7766968.17644295-.18208995.42723699-.27336829.7518921-.27336829.1750314 0 .34882879.02449724.52244863.07389733.17503167.04939983.35117326.12451239.52761647.22479238v-.65474029c-.170797-.07770019-.35335527-.13617998-.54673658-.1757-.19196976-.03959992-.39222732-.05891107-.60254726-.05891107z"/>
</svg>
