<svg xmlns="http://www.w3.org/2000/svg" width="48" height="48" viewBox="0 0 12.7 12.7"><path d="M6.34431561.07286377a6.28928043 6.28928043 0 0 0-6.2895386 6.2895385 6.28928043 6.28928043 0 0 0 6.2895386 6.28902166 6.28928043 6.28928043 0 0 0 6.28902167-6.28902167A6.28928043 6.28928043 0 0 0 6.3443156.07286376zm-.01808691.93637693a5.40704372 5.40704372 0 0 1 5.40690507 5.40690505 5.40704372 5.40704372 0 0 1-5.40690507 5.40690508A5.40704372 5.40704372 0 0 1 .91880694 6.41614575 5.40704372 5.40704372 0 0 1 6.3262287 1.0092407zm.02325449 1.1239624c-.5002739 0-.92182896.32219796-1.0790039.76687838H3.66644287c-.42360294 0-.76636191.34326803-.76636138.7668781v6.13347578c0 .4235995.34275844.76636138.76636138.76636138h5.36711412c.423604 0 .76636138-.34275183.76636138-.76636138V3.66695959c0-.42361008-.34275738-.76687811-.76636138-.76687811H7.42952054c-.15717387-.44469042-.5797624-.76687838-1.08003735-.76687838zm0 .76687838c.21084407 0 .38395592.170679.38395592.38343892 0 .21276019-.17311185.38343919-.38395592.38343919-.21084302 0-.38292246-.170679-.38292246-.38343919 0-.21275992.17207944-.38343919.38292246-.38343892zm-2.68304033.7668781h.76636138V4.8172769h3.83387463V3.6669596h.76687811v6.13347577H3.66644286V3.66695959z" fill="#e6e6e6"/></svg>