<svg xmlns="http://www.w3.org/2000/svg" width="48" height="48" viewBox="0 0 12.7 12.7">
  <path fill="#e6e6e6" d="M6.3443156.07286A6.2892804 6.2892804 0 0 0 .05477702 6.3624a6.2892804 6.2892804 0 0 0 6.28953858 6.28902A6.2892804 6.2892804 0 0 0 12.633337 6.3624 6.2892804 6.2892804 0 0 0 6.3443156.07286zm-.018087.93638a5.4070437 5.4070437 0 0 1 5.4069054 5.40691 5.4070437 5.4070437 0 0 1-5.4069054 5.4069 5.4070437 5.4070437 0 0 1-5.40742176-5.4069A5.4070437 5.4070437 0 0 1 6.3262286 1.00924z"/>
  <path fill="red" d="M9.6300667 3.24215c-.037358 0-.073346.0125-.1032216.0348L6.3500058 5.6175 3.1731657 3.27695c-.029878-.0224-.065866-.0342-.103232-.0342-.4767431-.00002-.8633493.38607-.8633493.86279v4.48898c0 .47676.3866062.86335.8633493.86335h.3450079c.095349 0 .1727812-.0773.1727812-.17276v-.0828L6.35 7.25211l-.097154-.069c.059425.0405.1376337.0405.1965168-.00088l-.099365.0701 2.7622768 1.94972v.0833c0 .0954.077435.17277.1727813.17277h.3450081c.476758 0 .86335-.38663.86335-.86335V4.1058c0-.47673-.386606-.86335-.86335-.86335zm-6.042344 2.06012l2.4619819 1.73829-2.4619819 1.73828zm5.5245546 0v3.47715L6.6497439 7.04056z" opacity=".753"/>
</svg>
