<?xml version="1.0" encoding="UTF-8" standalone="no"?>
<!-- Created with Inkscape (http://www.inkscape.org/) -->

<svg
   xmlns:dc="http://purl.org/dc/elements/1.1/"
   xmlns:cc="http://creativecommons.org/ns#"
   xmlns:rdf="http://www.w3.org/1999/02/22-rdf-syntax-ns#"
   xmlns:svg="http://www.w3.org/2000/svg"
   xmlns="http://www.w3.org/2000/svg"
   xmlns:sodipodi="http://sodipodi.sourceforge.net/DTD/sodipodi-0.dtd"
   xmlns:inkscape="http://www.inkscape.org/namespaces/inkscape"
   width="48"
   height="48"
   viewBox="0 0 12.7 12.7"
   version="1.1"
   id="svg829"
   inkscape:version="0.92.3 (2405546, 2018-03-11)"
   sodipodi:docname="gmail.svg">
  <defs
     id="defs823" />
  <sodipodi:namedview
     id="base"
     pagecolor="#ffffff"
     bordercolor="#666666"
     borderopacity="1.0"
     inkscape:pageopacity="0.0"
     inkscape:pageshadow="2"
     inkscape:zoom="3.9627443"
     inkscape:cx="20.59327"
     inkscape:cy="22.990599"
     inkscape:document-units="mm"
     inkscape:current-layer="layer1"
     showgrid="false"
     showguides="true"
     inkscape:guide-bbox="true"
     inkscape:window-width="1366"
     inkscape:window-height="719"
     inkscape:window-x="0"
     inkscape:window-y="25"
     inkscape:window-maximized="1"
     scale-x="1.9"
     units="px"
     inkscape:snap-global="true" />
  <metadata
     id="metadata826">
    <rdf:RDF>
      <cc:Work
         rdf:about="">
        <dc:format>image/svg+xml</dc:format>
        <dc:type
           rdf:resource="http://purl.org/dc/dcmitype/StillImage" />
        <dc:title></dc:title>
      </cc:Work>
    </rdf:RDF>
  </metadata>
  <g
     inkscape:label="Capa 1"
     inkscape:groupmode="layer"
     id="layer1"
     transform="translate(0,-284.3)">
    <path
       inkscape:connector-curvature="0"
       style="fill:#e6e6e6;fill-opacity:1;stroke-width:0.1389506"
       d="m 6.3443156,284.37286 a 6.2892804,6.2892804 0 0 0 -6.28953858,6.28954 6.2892804,6.2892804 0 0 0 6.28953858,6.28902 6.2892804,6.2892804 0 0 0 6.2890214,-6.28902 6.2892804,6.2892804 0 0 0 -6.2890214,-6.28954 z m -0.018087,0.93638 a 5.4070437,5.4070437 0 0 1 5.4069054,5.40691 5.4070437,5.4070437 0 0 1 -5.4069054,5.4069 5.4070437,5.4070437 0 0 1 -5.40742176,-5.4069 5.4070437,5.4070437 0 0 1 5.40742176,-5.40691 z"
       id="path834" />
    <path
       style="opacity:0.753;fill:#ff0000;stroke-width:0.02611582"
       d="m 9.6300667,287.54215 c -0.037358,0 -0.073346,0.0125 -0.1032216,0.0348 l -3.1768393,2.34055 -3.1768401,-2.34055 c -0.029878,-0.0224 -0.065866,-0.0342 -0.103232,-0.0342 -0.4767431,-2e-5 -0.8633493,0.38607 -0.8633493,0.86279 v 4.48898 c 0,0.47676 0.3866062,0.86335 0.8633493,0.86335 h 0.3450079 c 0.095349,0 0.1727812,-0.0773 0.1727812,-0.17276 v -0.0828 L 6.35,291.55211 l -0.097154,-0.069 c 0.059425,0.0405 0.1376337,0.0405 0.1965168,-8.8e-4 l -0.099365,0.0701 2.7622768,1.94972 v 0.0833 c 0,0.0954 0.077435,0.17277 0.1727813,0.17277 H 9.630064 c 0.476758,0 0.86335,-0.38663 0.86335,-0.86335 v -4.48897 c 0,-0.47673 -0.386606,-0.86335 -0.86335,-0.86335 z m -6.042344,2.06012 2.4619819,1.73829 -2.4619819,1.73828 z m 5.5245546,0 v 3.47715 l -2.4625334,-1.73886 z"
       id="path832-6"
       inkscape:connector-curvature="0" />
  </g>
</svg>
