<svg xmlns="http://www.w3.org/2000/svg" width="48" height="48" viewBox="0 0 12.7 12.7"><path fill="#e6e6e6" d="M6.344.077A6.267 6.267 0 0 0 .076 6.344a6.267 6.267 0 0 0 6.268 6.267 6.267 6.267 0 0 0 6.267-6.267A6.267 6.267 0 0 0 6.344.077zm-.018.932a5.388 5.388 0 0 1 5.388 5.39 5.388 5.388 0 0 1-5.388 5.387A5.388 5.388 0 0 1 .937 6.398a5.388 5.388 0 0 1 5.39-5.389zM3.654 2.717c-.253 0-.397.035-.45.234l-1.22 4.527 8.732.005L9.397 2.95c-.037-.13-.232-.234-.396-.234H3.654zm2.068.32a.119.119 0 0 1 .062 0c.432.133.83.43 1.011.775.144.272.159.58.071.88.076.21.232.481.537.783l1.505 1.487H7.183L6.54 6.33c-.338-.335-.632-.48-.854-.546-.554.122-1.107-.084-1.355-.554-.182-.345-.203-.86-.08-1.312.005-.016.007-.032.019-.044a.114.114 0 0 1 .087-.035c.03.002.057.018.071.044l.493.95c.044.085.15.117.29.106a1.22 1.22 0 0 0 .484-.167 1.26 1.26 0 0 0 .397-.335c.082-.117.106-.232.061-.316l-.493-.942c-.018-.034-.01-.074.018-.106.013-.015.025-.03.044-.035zM1.986 7.784l.194 1.14h8.359l.175-1.14H1.986z"/></svg>