<svg xmlns="http://www.w3.org/2000/svg" width="48" height="48" viewBox="0 0 12.7 12.7">
  <path fill="#e6e6e6" d="M6.34379862.07699788a6.26704246 6.26704246 0 0 0-6.2673175 6.26731773 6.26704246 6.26704246 0 0 0 6.2673175 6.2662839 6.26704246 6.26704246 0 0 0 6.26731763-6.2662839A6.26704246 6.26704246 0 0 0 6.34379862.07699788zm-.01756992.93224282a5.38792572 5.38792572 0 0 1 5.38778496 5.3888184 5.38792572 5.38792572 0 0 1-5.38778496 5.3877847A5.38792572 5.38792572 0 0 1 .93741048 6.3980591 5.38792572 5.38792572 0 0 1 6.3262287 1.0092407zM3.65352378 2.71714671c-.2522384 0-.39692606.0352044-.45010175.23409433L1.98385822 7.47809646l8.73228338.00465084-1.31878254-4.53150626c-.0372819-.12942014-.23217531-.23409433-.39635826-.23409433H3.65352378zm2.06809073.31987728c.01849411-.0050001.04347872-.00600022.06201172 0 .43222042.13258985.83015295.43057973 1.0118246.7746296.143864.27247004.15828565.5809697.07079668.88004967.07608093.21012997.23193798.48152473.53640142.78341457L8.90798335 6.9623656H7.18302413l-.64285494-.63355298c-.33774062-.33489-.6322941-.48018303-.85369452-.54570312-.55439918.12179009-1.10726721-.08439812-1.35547283-.55448808-.18174256-.34420995-.20318624-.85870784-.07906518-1.31154777.00447014-.01590013.0059772-.03162512.01757019-.04392507.0214839-.02360003.05733891-.03734011.08784987-.0351401.0305271.00199998.0569198.01772497.07079667.04392506l.49247636.95032962c.04454102.08439996.15122605.1168466.29042148.10593652.14002253-.01139984.31288752-.06899143.4842084-.16743151.1712841-.09849988.31269834-.2162765.39635826-.33434655.08286592-.1169699.1059217-.23263648.06149473-.31677662l-.4929931-.94206112c-.01857295-.03360023-.00942287-.0740201.01756993-.10542005.01348819-.0156001.025432-.02963995.04392506-.03513984zM1.98644203 7.7835042l.19378663 1.14101561h8.35866274l.17466654-1.14101561h-8.7271159z"/>
</svg>
