<svg xmlns="http://www.w3.org/2000/svg" width="48" height="48" viewBox="0 0 12.7 12.7"><path fill="#e6e6e6" d="M6.344.073a6.29 6.29 0 0 0-6.29 6.29 6.29 6.29 0 0 0 6.29 6.288 6.29 6.29 0 0 0 6.29-6.289 6.29 6.29 0 0 0-6.29-6.29zm-.018.936a5.407 5.407 0 0 1 5.407 5.407 5.407 5.407 0 0 1-5.407 5.407A5.407 5.407 0 0 1 .92 6.416 5.407 5.407 0 0 1 6.326 1.01zm-3.24 1.998c-.504.452-.707.578-.704.827.003.242.34.448.629.291.033.109.042.23-.114.326h.412c-.141-.098-.15-.224-.11-.345.324.179.63-.026.626-.308-.004-.296-.194-.387-.74-.79zM6.29 4.09C4.528 5.67 3.815 6.11 3.825 6.983c.01.847 1.193 1.569 2.202 1.02.116.38.149.805-.397 1.139h1.443c-.495-.343-.524-.783-.384-1.209 1.13.626 2.2-.091 2.188-1.078C8.864 5.82 8.2 5.5 6.29 4.09zm3.102 4.689c.156.095.146.217.113.326-.288-.157-.626.049-.63.291-.002.25.202.375.705.827.546-.403.736-.495.74-.79.003-.283-.303-.487-.626-.308-.04-.122-.032-.249.11-.346h-.412z"/></svg>