<svg xmlns="http://www.w3.org/2000/svg" xmlns:xlink="http://www.w3.org/1999/xlink" width="48" height="48" viewBox="0 0 12.7 12.7">
  <defs>
    <clipPath id="a"/>
    <linearGradient id="b" x1="44" x2="50" y1="24" y2="24" gradientTransform="translate(-1.3361 .48051)" gradientUnits="userSpaceOnUse" xlink:href="#c"/>
    <linearGradient id="c">
      <stop offset="0" stop-color="#fff"/>
      <stop offset=".51514"/>
      <stop offset="1"/>
    </linearGradient>
  </defs>
  <path fill="#e6e6e6" d="M6.34431561.07286377a6.28928043 6.28928043 0 0 0-6.2895386 6.2895385 6.28928043 6.28928043 0 0 0 6.2895386 6.28902166 6.28928043 6.28928043 0 0 0 6.28902167-6.28902167A6.28928043 6.28928043 0 0 0 6.3443156.07286376zm-.01808691.93637693a5.40704372 5.40704372 0 0 1 4.10827638 1.90117593l-8.22223705-.00103346A5.40704372 5.40704372 0 0 1 6.3262287 1.0092407zM1.60817055 3.77961414h1.08572193c.02973388 0 .06144366.00618596.0883666.01808692.04216003.01939925.0850384.05818505.1157552.09818502.01419755.01980142.03009848.04781365.04082442.07131368.02406915.05579983.04082441.12825386.04082441.19740377v4.39249682c0 .06919992-.01676135.14159388-.04082441.19740403-.0107262.0235003-.02663746.05183003-.04082441.07183014-.03071998.04080008-.0735936.0796851-.11575521.09818529-.02692003.008001-.05863458.01808665-.0883666.01808665H1.5497762a5.40704372 5.40704372 0 0 1-.30695802-.6976319V4.59196779a5.40704372 5.40704372 0 0 1 .36535238-.81235364zm2.05930577.00155046c.01196446-.00201083.0217223 0 .03410638 0h7.33857002a5.40704372 5.40704372 0 0 1 .69298105 2.63498115 5.40704372 5.40704372 0 0 1-.63096906 2.52801117H3.7015827c-.02973388 0-.06144763-.00566923-.0883666-.01757018-.04216612-.01860021-.08503946-.05808557-.1157552-.09818503-.01419755-.0198993-.03009133-.04791366-.04082442-.07131367-.02406915-.05579983-.04082441-.12830387-.04082441-.19740404V4.16718745c0-.0690999.01676135-.14160394.0408244-.19740404.01071828-.02350029.02662344-.05183028.04082442-.07183014.03071204-.04080007.07359439-.07960201.11575521-.09870202.01570567-.00600075.0375113-.0155866.05426022-.01808665zm4.13566499.30489075c-.94181982 0-1.11843078 1.3415203-.58859472 1.3415203.52976462 0 1.5304619-1.3415203.58859472-1.3415203zm-1.50275076.1679485c-.53002682.06879987-.34319554.99047034-.06097826 1.00769049.28209795.01720003.59119584-1.07649036.06097826-1.00769049zm-5.05963943.34364824v3.64112144a5.40704372 5.40704372 0 0 1-.32194418-1.82262778 5.40704372 5.40704372 0 0 1 .32194418-1.81849366zm4.17183826.01860365c-.02324258.00246803-.04831053.00916755-.07493079.02015384-.42601805.17578996-.06450277.90144096.17414954.85266106.22392243-.04565624.24942112-.90983858-.09921875-.8728149zm-.66145832.56792388c-.03703955-.00124724-.07724193.01085877-.11988932.04030769-.3410241.23562997.1145839.80503208.31522616.716752.17556004-.07726256.0639408-.74832923-.19533684-.75705969zm1.94716794.43563222c-.73108978-.0123698-1.6952735.35437074-1.8598348 1.0908895-.1781273.79710994.73321305 1.90324315 1.68413507 1.90324315.46781216 0 1.00698404-.42246444 1.1079427-.95756438.07710196-.40804993-.90716576-.24472847-.87178144.02532142.04237804.32363013-.23704285.48355858-.51108001.27491875-.87233785-.6641502 1.44410666-.99582313 1.2913942-1.90324314-.0475332-.28243874-.4021217-.4261432-.84077572-.4335653zM2.102714 9.79061667h8.44134498a5.40704372 5.40704372 0 0 1-4.21783028 2.03243416A5.40704372 5.40704372 0 0 1 2.102714 9.79061667z"/>
</svg>
