<?xml version="1.0" encoding="UTF-8" standalone="no"?>
<!-- Created with Inkscape (http://www.inkscape.org/) -->

<svg
   xmlns:dc="http://purl.org/dc/elements/1.1/"
   xmlns:cc="http://creativecommons.org/ns#"
   xmlns:rdf="http://www.w3.org/1999/02/22-rdf-syntax-ns#"
   xmlns:svg="http://www.w3.org/2000/svg"
   xmlns="http://www.w3.org/2000/svg"
   xmlns:sodipodi="http://sodipodi.sourceforge.net/DTD/sodipodi-0.dtd"
   xmlns:inkscape="http://www.inkscape.org/namespaces/inkscape"
   width="48"
   height="48"
   viewBox="0 0 12.7 12.7"
   version="1.1"
   id="svg829"
   inkscape:version="0.92.3 (2405546, 2018-03-11)"
   sodipodi:docname="mate-panel.svg">
  <defs
     id="defs823">
    <clipPath
       clipPathUnits="userSpaceOnUse"
       id="clipPath927">
      <g
         id="use929"
         inkscape:label="Clip">
        <path
           inkscape:connector-curvature="0"
           style="fill:#2ca089;stroke-width:0.04113208"
           d="m -5.7439193,283.47477 -10.9563497,10.95625 0.303419,0.30344 0.772914,-0.77193 0.772904,0.77193 -0.772904,0.77291 1.158933,1.15899 0.772903,-0.77206 0.772915,0.77206 -0.772915,0.7729 0.386017,0.38597 10.9563553,-10.95542 z m -0.6077207,1.2145 0.7729092,0.7729 -0.7729092,0.77303 -0.7720389,-0.77303 z m -1.5449483,1.54593 0.7729094,0.77193 -0.7729094,0.77291 -0.7729089,-0.77291 z m 3.4767859,0.38596 0.772909,0.7729 -0.772909,0.77291 -0.7720391,-0.77291 z m -5.0226039,1.15888 0.7729091,0.7729 -0.7729091,0.7729 -0.7729097,-0.7729 z m 3.4776558,0.38693 0.772909,0.77205 -0.772909,0.77291 -0.7729089,-0.77291 z m -5.0226005,1.15887 0.772035,0.7729 -0.772035,0.77206 -0.772914,-0.77206 z m 3.4767826,0.38609 0.772909,0.7729 -0.772909,0.7729 -0.7729089,-0.7729 z m -5.0225996,1.15887 0.772903,0.77291 -0.772903,0.7729 -0.772915,-0.7729 z m 3.4776512,0.38693 0.7720395,0.77291 -0.7720395,0.77205 -0.7729089,-0.77205 z m -5.0234692,1.15888 0.772903,0.7729 -0.772903,0.77302 -0.772046,-0.77302 z m 3.477653,0.38608 0.7729073,0.77291 -0.7729073,0.7729 -0.772915,-0.7729 z m -1.545818,1.54581 0.772903,0.7729 -0.772903,0.77291 -0.772034,-0.77291 z"
           id="path970" />
        <path
           inkscape:connector-curvature="0"
           style="fill:#1a1a1a;fill-opacity:1;stroke-width:0.1389506"
           d="m -9.5487714,285.30924 a 5.4070438,5.4070438 0 0 1 5.4069053,5.40691 5.4070438,5.4070438 0 0 1 -5.4069053,5.4069 5.4070438,5.4070438 0 0 1 -5.4074216,-5.4069 5.4070438,5.4070438 0 0 1 5.4074216,-5.40691 z"
           id="path972" />
      </g>
    </clipPath>
    <clipPath
       clipPathUnits="userSpaceOnUse"
       id="clipPath944">
      <g
         inkscape:label="Clip"
         id="use946"
         transform="translate(0,-3.9583333e-6)">
        <g
           clip-path="url(#clipPath927)"
           id="g959">
          <g
             id="g957"
             inkscape:label="Clip">
            <path
               inkscape:connector-curvature="0"
               style="fill:#2ca089;stroke-width:0.04113208"
               d="m -5.7439193,283.47477 -10.9563497,10.95625 0.303419,0.30344 0.772914,-0.77193 0.772904,0.77193 -0.772904,0.77291 1.158933,1.15899 0.772903,-0.77206 0.772915,0.77206 -0.772915,0.7729 0.386017,0.38597 10.9563553,-10.95542 z m -0.6077207,1.2145 0.7729092,0.7729 -0.7729092,0.77303 -0.7720389,-0.77303 z m -1.5449483,1.54593 0.7729094,0.77193 -0.7729094,0.77291 -0.7729089,-0.77291 z m 3.4767859,0.38596 0.772909,0.7729 -0.772909,0.77291 -0.7720391,-0.77291 z m -5.0226039,1.15888 0.7729091,0.7729 -0.7729091,0.7729 -0.7729097,-0.7729 z m 3.4776558,0.38693 0.772909,0.77205 -0.772909,0.77291 -0.7729089,-0.77291 z m -5.0226005,1.15887 0.772035,0.7729 -0.772035,0.77206 -0.772914,-0.77206 z m 3.4767826,0.38609 0.772909,0.7729 -0.772909,0.7729 -0.7729089,-0.7729 z m -5.0225996,1.15887 0.772903,0.77291 -0.772903,0.7729 -0.772915,-0.7729 z m 3.4776512,0.38693 0.7720395,0.77291 -0.7720395,0.77205 -0.7729089,-0.77205 z m -5.0234692,1.15888 0.772903,0.7729 -0.772903,0.77302 -0.772046,-0.77302 z m 3.477653,0.38608 0.7729073,0.77291 -0.7729073,0.7729 -0.772915,-0.7729 z m -1.545818,1.54581 0.772903,0.7729 -0.772903,0.77291 -0.772034,-0.77291 z"
               id="path953" />
            <path
               inkscape:connector-curvature="0"
               style="fill:#1a1a1a;fill-opacity:1;stroke-width:0.1389506"
               d="m -9.5487714,285.30924 a 5.4070438,5.4070438 0 0 1 5.4069053,5.40691 5.4070438,5.4070438 0 0 1 -5.4069053,5.4069 5.4070438,5.4070438 0 0 1 -5.4074216,-5.4069 5.4070438,5.4070438 0 0 1 5.4074216,-5.40691 z"
               id="path955" />
          </g>
        </g>
      </g>
    </clipPath>
    <clipPath
       clipPathUnits="userSpaceOnUse"
       id="clipPath978">
      <path
         inkscape:connector-curvature="0"
         style="fill:#1a1a1a;fill-opacity:1;stroke-width:0.1389506"
         d="m -9.5487715,285.30924 a 5.4070438,5.4070438 0 0 1 5.4069054,5.40691 5.4070438,5.4070438 0 0 1 -5.4069054,5.4069 5.4070438,5.4070438 0 0 1 -5.4074215,-5.4069 5.4070438,5.4070438 0 0 1 5.4074215,-5.40691 z"
         id="path980" />
    </clipPath>
  </defs>
  <sodipodi:namedview
     id="base"
     pagecolor="#ffffff"
     bordercolor="#666666"
     borderopacity="1.0"
     inkscape:pageopacity="0.0"
     inkscape:pageshadow="2"
     inkscape:zoom="2.7864583"
     inkscape:cx="24"
     inkscape:cy="24"
     inkscape:document-units="mm"
     inkscape:current-layer="layer1"
     showgrid="false"
     showguides="true"
     inkscape:guide-bbox="true"
     inkscape:window-width="1366"
     inkscape:window-height="714"
     inkscape:window-x="0"
     inkscape:window-y="25"
     inkscape:window-maximized="1"
     scale-x="1.9"
     units="px"
     inkscape:snap-global="true" />
  <metadata
     id="metadata826">
    <rdf:RDF>
      <cc:Work
         rdf:about="">
        <dc:format>image/svg+xml</dc:format>
        <dc:type
           rdf:resource="http://purl.org/dc/dcmitype/StillImage" />
        <dc:title></dc:title>
      </cc:Work>
    </rdf:RDF>
  </metadata>
  <g
     inkscape:label="Capa 1"
     inkscape:groupmode="layer"
     id="layer1"
     transform="translate(0,-284.3)">
    <path
       style="fill:#1a1a1a;fill-opacity:1;stroke-width:0.52516764"
       d="M 23.978516 0.27539062 A 23.770509 23.770509 0 0 0 0.20703125 24.046875 A 23.770509 23.770509 0 0 0 23.978516 47.816406 A 23.770509 23.770509 0 0 0 47.748047 24.046875 A 23.770509 23.770509 0 0 0 23.978516 0.27539062 z M 23.910156 3.8144531 A 20.436071 20.436071 0 0 1 39.4375 11 L 8.3613281 10.996094 A 20.436071 20.436071 0 0 1 23.910156 3.8144531 z M 6.078125 14.285156 L 10.181641 14.285156 C 10.294021 14.285156 10.413869 14.308539 10.515625 14.353516 C 10.67497 14.426838 10.83703 14.573428 10.953125 14.724609 C 11.006787 14.799444 11.066883 14.905322 11.107422 14.994141 C 11.198395 15.205038 11.261719 15.47888 11.261719 15.740234 L 11.261719 32.341797 C 11.261719 32.60334 11.198369 32.876955 11.107422 33.087891 C 11.066879 33.17671 11.006745 33.283784 10.953125 33.359375 C 10.837018 33.51358 10.674976 33.660547 10.515625 33.730469 C 10.41388 33.760705 10.294014 33.798828 10.181641 33.798828 L 5.8574219 33.798828 A 20.436071 20.436071 0 0 1 4.6972656 31.162109 L 4.6972656 17.355469 A 20.436071 20.436071 0 0 1 6.078125 14.285156 z M 13.861328 14.291016 C 13.906546 14.283457 13.943432 14.291016 13.990234 14.291016 L 41.726562 14.291016 A 20.436071 20.436071 0 0 1 44.345703 24.25 A 20.436071 20.436071 0 0 1 41.960938 33.804688 L 13.990234 33.804688 C 13.877854 33.804688 13.757991 33.783258 13.65625 33.738281 C 13.496882 33.667982 13.334841 33.518747 13.21875 33.367188 C 13.165088 33.291975 13.105019 33.186097 13.064453 33.097656 C 12.97348 32.886759 12.910156 32.612728 12.910156 32.351562 L 12.910156 15.75 C 12.910156 15.488835 12.973503 15.214804 13.064453 15.003906 C 13.104966 14.915087 13.165077 14.808012 13.21875 14.732422 C 13.334827 14.578217 13.496902 14.431564 13.65625 14.359375 C 13.715607 14.336698 13.798025 14.300464 13.861328 14.291016 z M 16.125 16.125 C 15.50175 16.125 15 16.62668 15 17.25 L 15 30.75 C 15 31.373282 15.50175 31.875 16.125 31.875 L 31.875 31.875 C 32.498248 31.875 33 31.373282 33 30.75 L 33 17.25 C 33 16.62668 32.498248 16.125 31.875 16.125 L 16.125 16.125 z M 4.6894531 17.376953 L 4.6894531 31.138672 A 20.436071 20.436071 0 0 1 3.4726562 24.25 A 20.436071 20.436071 0 0 1 4.6894531 17.376953 z M 16.125 19.78125 L 31.875 19.78125 C 32.030811 19.78125 32.15625 19.906783 32.15625 20.0625 L 32.15625 30.75 C 32.15625 30.905339 32.030815 31.03125 31.875 31.03125 L 16.125 31.03125 C 15.969189 31.03125 15.84375 30.905717 15.84375 30.75 L 15.84375 20.0625 C 15.84375 19.907161 15.969181 19.78125 16.125 19.78125 z M 7.9472656 37.003906 L 39.851562 37.003906 A 20.436071 20.436071 0 0 1 23.910156 44.685547 A 20.436071 20.436071 0 0 1 7.9472656 37.003906 z "
       transform="matrix(0.26458333,0,0,0.26458333,0,284.3)"
       id="path862" />
  </g>
</svg>
