<?xml version="1.0" encoding="UTF-8" standalone="no"?>
<!-- Created with Inkscape (http://www.inkscape.org/) -->

<svg
   xmlns:dc="http://purl.org/dc/elements/1.1/"
   xmlns:cc="http://creativecommons.org/ns#"
   xmlns:rdf="http://www.w3.org/1999/02/22-rdf-syntax-ns#"
   xmlns:svg="http://www.w3.org/2000/svg"
   xmlns="http://www.w3.org/2000/svg"
   xmlns:sodipodi="http://sodipodi.sourceforge.net/DTD/sodipodi-0.dtd"
   xmlns:inkscape="http://www.inkscape.org/namespaces/inkscape"
   width="48"
   height="48"
   viewBox="0 0 12.7 12.7"
   version="1.1"
   id="svg829"
   inkscape:version="0.92.3 (2405546, 2018-03-11)"
   sodipodi:docname="gnome-session-switch.svg">
  <defs
     id="defs823" />
  <sodipodi:namedview
     id="base"
     pagecolor="#ffffff"
     bordercolor="#666666"
     borderopacity="1.0"
     inkscape:pageopacity="0.0"
     inkscape:pageshadow="2"
     inkscape:zoom="7.9254885"
     inkscape:cx="22.296635"
     inkscape:cy="23.495299"
     inkscape:document-units="mm"
     inkscape:current-layer="layer1"
     showgrid="false"
     showguides="true"
     inkscape:guide-bbox="true"
     inkscape:window-width="1366"
     inkscape:window-height="719"
     inkscape:window-x="0"
     inkscape:window-y="25"
     inkscape:window-maximized="1"
     scale-x="1.9"
     units="px"
     inkscape:snap-global="false" />
  <metadata
     id="metadata826">
    <rdf:RDF>
      <cc:Work
         rdf:about="">
        <dc:format>image/svg+xml</dc:format>
        <dc:type
           rdf:resource="http://purl.org/dc/dcmitype/StillImage" />
        <dc:title></dc:title>
      </cc:Work>
    </rdf:RDF>
  </metadata>
  <g
     inkscape:label="Capa 1"
     inkscape:groupmode="layer"
     id="layer1"
     transform="translate(0,-284.3)">
    <path
       inkscape:connector-curvature="0"
       style="fill:#e6e6e6;stroke-width:0.03917905"
       d="m 11.8997,284.5641 v 4.78578 H 7.1139193 l 1.9220969,-1.9221 c -0.736532,-0.61953 -1.6799358,-1.00286 -2.7195889,-1.00286 -1.8852031,0 -3.4812516,1.22589 -4.0396339,2.92496 l -1.2571059,-0.41489 c 0.7312137,-2.2282 2.8239067,-3.83922 5.2967398,-3.83922 1.4065896,0 2.6883012,0.5233 3.6694582,1.38215 z m -1.257106,7.44491 1.257106,0.41491 c -0.731214,2.22821 -2.8239058,3.83922 -5.2967389,3.83922 -1.4065897,0 -2.6883017,-0.52414 -3.6694579,-1.38299 l -1.9138157,1.91465 v -4.78579 h 4.7857813 l -1.922097,1.92211 c 0.7365317,0.61954 1.6799363,1.00286 2.7195893,1.00286 1.8852027,0 3.4812519,-1.22589 4.0396329,-2.92497 z"
       id="path836" />
  </g>
</svg>
