<svg xmlns="http://www.w3.org/2000/svg" width="48" height="48" viewBox="0 0 12.7 12.7">
  <path fill="#e6e6e6" d="M6.34431561.07286377a6.28928043 6.28928043 0 0 0-6.2895386 6.2895385 6.28928043 6.28928043 0 0 0 6.2895386 6.28902166 6.28928043 6.28928043 0 0 0 6.28902167-6.28902167A6.28928043 6.28928043 0 0 0 6.3443156.07286376zm-.01808691.93637693a5.40704372 5.40704372 0 0 1 5.40690507 5.40690505 5.40704372 5.40704372 0 0 1-5.40690507 5.40690508A5.40704372 5.40704372 0 0 1 .91880694 6.41614575 5.40704372 5.40704372 0 0 1 6.3262287 1.0092407zM4.28449285 2.47891842c-.6865858 0-1.23920063.55261096-1.23920063 1.23920074v5.28753248c0 .68659004.55261482 1.23971763 1.23920063 1.23971763h4.24883627c.68658607 0 1.23971763-.55312759 1.23971763-1.23971763V3.71811916c0-.68658978-.55313156-1.23920074-1.23971763-1.23920074H4.28449285zm4.8508668 2.33629155v2.17144359h.00413412v1.04903163c-.59005232.03213893-1.32251766.02517113-1.48104673-.90692154L3.89950347 9.18031818c-.15035715-.17611301-.2444295-.40187483-.2444295-.65267336V4.8157267l5.48028568-.00051673zm.00413412 3.3336465v.46663821h-.01291908c-.04378298.5016799-.44736384.89342303-.95498046.91622324v.00516757H4.66483138c-.23825623 0-.45396996-.08522996-.62631821-.22220872l5.1009806-1.1658203z"/>
</svg>
