<svg xmlns="http://www.w3.org/2000/svg" width="48" height="48" viewBox="0 0 12.7 12.7"><path fill="#e6e6e6" d="M6.344.073a6.29 6.29 0 0 0-6.29 6.29 6.29 6.29 0 0 0 6.29 6.288 6.29 6.29 0 0 0 6.29-6.289 6.29 6.29 0 0 0-6.29-6.29zm-.018.936a5.407 5.407 0 0 1 5.407 5.407 5.407 5.407 0 0 1-5.407 5.407A5.407 5.407 0 0 1 .92 6.416 5.407 5.407 0 0 1 6.326 1.01zM2.874 3.032a.42.42 0 0 0-.421.422v.743h2.632l1.298-1.165zm4.456 0L6.034 4.197h4.212v-.743a.42.42 0 0 0-.42-.422z"/><path fill="none" stroke="#e6e6e6" stroke-width=".296" d="M7.212 3.138h2.613a.42.42 0 0 1 .422.42v5.583a.42.42 0 0 1-.422.421H7.607l-.889-1.27 1.553-1.284.363-.31-.422-.217-2.988-1.553z"/><path fill="none" stroke="#e6e6e6" stroke-width=".294" d="M2.874 3.138h3.39L4.46 4.764l-.336.302.402.21 2.976 1.548-1.41 1.172-.223.184.171.237.803 1.145h-3.97a.42.42 0 0 1-.42-.42V3.558a.42.42 0 0 1 .42-.421z"/></svg>