<svg xmlns="http://www.w3.org/2000/svg" width="48" height="48" viewBox="0 0 12.7 12.7">
  <path fill="#e6e6e6" d="M6.34431561.07286377a6.28928043 6.28928043 0 0 0-6.2895386 6.2895385 6.28928043 6.28928043 0 0 0 6.2895386 6.28902166 6.28928043 6.28928043 0 0 0 6.28902167-6.28902167A6.28928043 6.28928043 0 0 0 6.3443156.07286376zm-.01808691.93637693a5.40704372 5.40704372 0 0 1 5.40690507 5.40690505 5.40704372 5.40704372 0 0 1-5.40690507 5.40690508A5.40704372 5.40704372 0 0 1 .91880694 6.41614575 5.40704372 5.40704372 0 0 1 6.3262287 1.0092407zM5.07100834 2.6840738c-.18892467 0-.34106459.15213461-.34106459.34106457V5.2415405h-1.8753378c-.1889236 0-.34106432.15213436-.34106432.34106432v4.09225666c0 .18892996.15214071.34106458.34106432.34106458H7.6289915c.1889244 0 .34106459-.15213462.34106459-.34106458V7.4656941l1.8753378-.00723476c.18892414-.00062998.34106432-.15213436.34106432-.34106432V3.0256551c0-.18892996-.15213807-.34106459-.34106432-.34106459L5.07100834 2.6840738zm0 1.10845942h4.77438555c.04721357 0 .08526595.03826616.08526595.08526621v3.2395956c0 .04719981-.03804338.08506592-.08526595.08526595l-1.8753378.00671803v-1.6267742c0-.1889199-.15214018-.34106432-.34106459-.34106432H4.96868894l.01705318-1.3642578c.0005797-.04720007.03803703-.08474947.08526622-.08474947zm-2.21640239 2.5574667H7.6289915c.04723421 0 .08526622.03826616.08526622.08526621v3.23959534c0 .04710006-.0380381.0852662-.08526622.0852662H2.85460595c-.04723262 0-.08526595-.03826615-.08526595-.0852662V6.43526613c0-.04710006.0380373-.08526621.08526595-.08526621zm2.38590108.15968027c-.40763348-.0080002-.84115512.148386-.97306737.45578606-.07645585.17090999-.00543957.4774901.25114752.4774901.15008463 0 .21864082-.0969682.22996022-.18551816.0085598-.06710018-.01886902-.1264711-.0351401-.18190104-.01853486-.06320022.06057212-.18574464.1467612-.23564479.0720209-.0415999.14754674-.05569426.15864654-.05839434.25864-.0619998.5166725.07524248.6242513.24236257.10757296.16708993-.01114346.42063272-.18138431.66714263-.17023292.24649007-.3526491.52635255-.35191647.82372252 0 .11315991-.00975572.15160387-.00258392.19740377.00572003.03650007.12630467.0321863.21910807.01498627-.00806-.28802013.05653855-.56726799.32866224-.76532792.28743486-.22399017.56462532-.50421434.5353677-.8345744-.0063799-.31859009-.37778452-.5687142-.77773027-.6046142-.05623586-.00799993-.1138494-.0119192-.17208235-.01291907zm-.01860365 2.60552562c-.24730868-.01340009-.41832185.26684076-.2697509.4454509.13268404.19719.50467497.14829896.56844061-.07493105.06628898-.17363995-.09339156-.37338979-.2986897-.37051985z"/>
</svg>
