<svg xmlns="http://www.w3.org/2000/svg" width="48" height="48" viewBox="0 0 12.7 12.7">
  <path fill="#e6e6e6" d="M6.3443159.07286A6.2892804 6.2892804 0 0 0 .05477737 6.3624a6.2892804 6.2892804 0 0 0 6.28953853 6.28902A6.2892804 6.2892804 0 0 0 12.633337 6.3624 6.2892804 6.2892804 0 0 0 6.3443159.07286zm-.018087.93638a5.4070437 5.4070437 0 0 1 5.4069051 5.40691 5.4070437 5.4070437 0 0 1-5.4069051 5.4069 5.4070437 5.4070437 0 0 1-5.40742183-5.4069A5.4070437 5.4070437 0 0 1 6.3262289 1.00924zM2.8737265 3.03237c-.2334059 0-.421163.18776-.421163.42117v.74362h2.6329142l1.2970786-1.16479zm4.4565755 0L6.0337404 4.19716h4.2126626v-.74362c0-.23341-.187757-.42117-.4211628-.42117z"/>
  <path fill="none" stroke="#e6e6e6" stroke-width=".29626635" d="M7.2118445 3.13757h2.6135478c.2334057 0 .4211247.18772.4211247.4211v5.58267c0 .23338-.187719.4211-.4211247.4211h-2.218783L6.718067 8.29201l1.5533411-1.28395.3626177-.30925-.4217684-.21733-2.9883809-1.55333z"/>
  <path fill="none" stroke="#e6e6e6" stroke-width=".29363284" d="M2.8739342 3.13757H6.264152L4.460065 4.76355l-.3356144.30283.4018372.21023L7.50181 6.82418 6.0924871 7.99561l-.2237423.18453.1716645.2366.803031 1.1457H2.8739342c-.2334059 0-.421768-.18772-.421768-.4211V3.55867c0-.23338.1883621-.4211.421768-.4211z"/>
</svg>
