<svg xmlns="http://www.w3.org/2000/svg" width="48" height="48" viewBox="0 0 12.7 12.7">
  <path fill="#e6e6e6" d="M11.8997.2641v4.78578H7.1139193l1.9220969-1.9221c-.736532-.61953-1.6799358-1.00286-2.7195889-1.00286-1.8852031 0-3.4812516 1.22589-4.0396339 2.92496l-1.2571059-.41489C1.7509012 2.40679 3.8435942.79577 6.3164273.79577c1.4065896 0 2.6883012.5233 3.6694582 1.38215zm-1.257106 7.44491l1.257106.41491c-.731214 2.22821-2.8239058 3.83922-5.2967389 3.83922-1.4065897 0-2.6883017-.52414-3.6694579-1.38299L1.0196875 12.4948V7.70901h4.7857813l-1.922097 1.92211c.7365317.61954 1.6799363 1.00286 2.7195893 1.00286 1.8852027 0 3.4812519-1.22589 4.0396329-2.92497z"/>
</svg>
