<svg xmlns="http://www.w3.org/2000/svg" width="48" height="48"><path d="M23.95 3.1A20.86 20.86 0 0 0 3.1 23.95a20.86 20.86 0 0 0 20.85 20.86 20.86 20.86 0 0 0 20.86-20.86A20.86 20.86 0 0 0 23.95 3.1zM24 5.58a18.23 18.23 0 0 1 18.24 18.24A18.23 18.23 0 0 1 24 42.05 18.23 18.23 0 0 1 5.76 23.82 18.23 18.23 0 0 1 24 5.58zm-.04 4.64a13.63 13.63 0 0 0-7.76 2.58l1.76 1.76a11.23 11.23 0 0 1 .84-.5 11.23 11.23 0 0 1 1.02-.46 11.23 11.23 0 0 1 1.06-.37 11.23 11.23 0 0 1 1.1-.27 11.23 11.23 0 0 1 1.1-.15 11.23 11.23 0 0 1 1.12-.03 11.23 11.23 0 0 1 1.12.07 11.23 11.23 0 0 1 1.11.18 11.23 11.23 0 0 1 1.08.3 11.23 11.23 0 0 1 1.05.4 11.23 11.23 0 0 1 1 .5 11.23 11.23 0 0 1 .95.6 11.23 11.23 0 0 1 .89.69 11.23 11.23 0 0 1 .58.54 11.23 11.23 0 0 1 .75.83 11.23 11.23 0 0 1 .67.9 11.23 11.23 0 0 1 .57.97 11.23 11.23 0 0 1 .47 1.02 11.23 11.23 0 0 1 .37 1.06 11.23 11.23 0 0 1 .26 1.09 11.23 11.23 0 0 1 .16 1.11 11.23 11.23 0 0 1 .04 1.12 11.23 11.23 0 0 1-.08 1.12 11.23 11.23 0 0 1-.18 1.1 11.23 11.23 0 0 1-.3 1.1 11.23 11.23 0 0 1-.4 1.04 11.23 11.23 0 0 1-.5 1 11.23 11.23 0 0 1-.34.55l1.74 1.74a13.63 13.63 0 0 0-1.4-17.6 13.63 13.63 0 0 0-9.85-3.99zM12.8 16.2a13.63 13.63 0 0 0 1.4 17.6 13.63 13.63 0 0 0 17.61 1.4l-1.74-1.73a11.23 11.23 0 0 1-.8.47 11.23 11.23 0 0 1-1.02.47 11.23 11.23 0 0 1-1.06.37 11.23 11.23 0 0 1-1.09.26 11.23 11.23 0 0 1-1.11.15 11.23 11.23 0 0 1-1.12.04 11.23 11.23 0 0 1-1.12-.07 11.23 11.23 0 0 1-1.1-.18 11.23 11.23 0 0 1-1.1-.3 11.23 11.23 0 0 1-1.04-.4 11.23 11.23 0 0 1-1-.5 11.23 11.23 0 0 1-.95-.6 11.23 11.23 0 0 1-.89-.7 11.23 11.23 0 0 1-.58-.53 11.23 11.23 0 0 1-.75-.83 11.23 11.23 0 0 1-.67-.9 11.23 11.23 0 0 1-.57-.97 11.23 11.23 0 0 1-.47-1.02 11.23 11.23 0 0 1-.37-1.06 11.23 11.23 0 0 1-.26-1.1 11.23 11.23 0 0 1-.16-1.1 11.23 11.23 0 0 1-.04-1.12 11.23 11.23 0 0 1 .08-1.13 11.23 11.23 0 0 1 .18-1.1 11.23 11.23 0 0 1 .3-1.09 11.23 11.23 0 0 1 .4-1.04 11.23 11.23 0 0 1 .5-1 11.23 11.23 0 0 1 .32-.51L12.8 16.2z" fill="#e6e6e6"/></svg>