<svg xmlns="http://www.w3.org/2000/svg" width="48" height="48" viewBox="0 0 12.7 12.7"><path fill="#e6e6e6" d="M6.344.073a6.29 6.29 0 0 0-6.29 6.29 6.29 6.29 0 0 0 6.29 6.288 6.29 6.29 0 0 0 6.29-6.289 6.29 6.29 0 0 0-6.29-6.29zm-.018.936a5.407 5.407 0 0 1 5.407 5.407 5.407 5.407 0 0 1-5.407 5.407A5.407 5.407 0 0 1 .92 6.416 5.407 5.407 0 0 1 6.326 1.01zM3.73 2.353c-.152 0-.275.13-.275.293V9.64c0 .162.123.292.275.292 0 0 1.31.414 2.621.414 1.31 0 2.62-.414 2.62-.414.153 0 .276-.13.276-.292V2.646c0-.162-.123-.293-.275-.293H3.729zm.61.6h4.023c.158 0 .286.127.286.285V8.26a.285.285 0 0 1-.286.285H4.338a.285.285 0 0 1-.286-.285V3.238c0-.158.128-.286.286-.286zm.113 5.992a.4.4 0 0 1 .4.4.4.4 0 0 1-.4.399.4.4 0 0 1-.4-.4.4.4 0 0 1 .4-.399zm1.199 0a.4.4 0 0 1 .4.4.4.4 0 0 1-.4.399.4.4 0 0 1-.4-.4.4.4 0 0 1 .4-.399zm1.398 0a.4.4 0 0 1 .4.4.4.4 0 0 1-.4.399.4.4 0 0 1-.4-.4.4.4 0 0 1 .4-.399zm1.199 0a.4.4 0 0 1 .4.4.4.4 0 0 1-.4.399.4.4 0 0 1-.4-.4.4.4 0 0 1 .4-.399z"/><path fill="#1a1a1a" d="M54.45 57.21c-.7 0-1.262.564-1.262 1.264 0 .7.563 1.263 1.262 1.263h2.916v4.55h2.622v-4.55h2.679c.7 0 1.263-.564 1.263-1.263 0-.7-.564-1.263-1.263-1.263zm2.916 7.076h-3.762c-.506 0-.987.4-1.08.898l-1.57 8.489c-.092.497.241.898.747.898h4.586v.032h4.54v-.032h4.597c.505 0 .839-.4.747-.898l-1.571-8.49a1.137 1.137 0 0 0-1.08-.897h-3.488l-.007 3.705 2.545.002-3.982 3.266-3.815-3.254 2.593.01z"/></svg>