<?xml version="1.0" encoding="UTF-8" standalone="no"?>
<!-- Created with Inkscape (http://www.inkscape.org/) -->

<svg
   xmlns:dc="http://purl.org/dc/elements/1.1/"
   xmlns:cc="http://creativecommons.org/ns#"
   xmlns:rdf="http://www.w3.org/1999/02/22-rdf-syntax-ns#"
   xmlns:svg="http://www.w3.org/2000/svg"
   xmlns="http://www.w3.org/2000/svg"
   xmlns:sodipodi="http://sodipodi.sourceforge.net/DTD/sodipodi-0.dtd"
   xmlns:inkscape="http://www.inkscape.org/namespaces/inkscape"
   width="48"
   height="48"
   viewBox="0 0 12.7 12.7"
   version="1.1"
   id="svg829"
   inkscape:version="0.92.3 (2405546, 2018-03-11)"
   sodipodi:docname="do.svg">
  <defs
     id="defs823" />
  <sodipodi:namedview
     id="base"
     pagecolor="#ffffff"
     bordercolor="#666666"
     borderopacity="1.0"
     inkscape:pageopacity="0.0"
     inkscape:pageshadow="2"
     inkscape:zoom="11.1875"
     inkscape:cx="24"
     inkscape:cy="24"
     inkscape:document-units="mm"
     inkscape:current-layer="layer1"
     showgrid="false"
     showguides="true"
     inkscape:guide-bbox="true"
     inkscape:window-width="1366"
     inkscape:window-height="714"
     inkscape:window-x="0"
     inkscape:window-y="25"
     inkscape:window-maximized="1"
     scale-x="1.9"
     units="px"
     inkscape:snap-global="false"
     inkscape:measure-start="22.6145,29.0503"
     inkscape:measure-end="0,0" />
  <metadata
     id="metadata826">
    <rdf:RDF>
      <cc:Work
         rdf:about="">
        <dc:format>image/svg+xml</dc:format>
        <dc:type
           rdf:resource="http://purl.org/dc/dcmitype/StillImage" />
        <dc:title></dc:title>
      </cc:Work>
    </rdf:RDF>
  </metadata>
  <g
     inkscape:label="Capa 1"
     inkscape:groupmode="layer"
     id="layer1"
     transform="translate(0,-284.3)">
    <path
       style="fill:#1a1a1a;fill-opacity:1;stroke-width:0.52516764"
       d="M 23.978516 0.27539062 A 23.770509 23.770509 0 0 0 0.20703125 24.046875 A 23.770509 23.770509 0 0 0 23.978516 47.816406 A 23.770509 23.770509 0 0 0 47.748047 24.046875 A 23.770509 23.770509 0 0 0 23.978516 0.27539062 z M 23.910156 3.8144531 A 20.436071 20.436071 0 0 1 44.345703 24.25 A 20.436071 20.436071 0 0 1 23.910156 44.685547 A 20.436071 20.436071 0 0 1 3.4726562 24.25 A 20.436071 20.436071 0 0 1 23.910156 3.8144531 z M 23.998047 10 C 23.558033 10 23.119522 10.010972 22.6875 10.058594 L 21.875 14.248047 A 10.024488 10.024488 0 0 0 19.9375 14.873047 L 16.875 11.9375 C 16.096962 12.397846 15.42008 12.966431 14.748047 13.5625 L 16.560547 17.375 A 10.114492 10.114492 0 0 0 15.375 19 L 11.185547 18.439453 A 13.820672 13.820672 0 0 0 10.375 21 L 14.060547 23 A 9.65247 9.65247 0 0 0 14 24 C 14 24.345071 14.026516 24.66434 14.060547 25 L 10.375 27 C 10.569018 27.890003 10.82953 28.744497 11.185547 29.5625 L 15.375 29 C 15.71501 29.580346 16.116523 30.126783 16.560547 30.625 L 14.748047 34.439453 C 15.42008 35.03556 16.096962 35.602305 16.875 36.0625 L 19.9375 33.125 C 20.549528 33.399394 21.204966 33.604942 21.875 33.75 L 22.6875 37.9375 A 14.236693 14.236693 0 0 0 25.310547 37.9375 L 26.125 33.75 C 26.793034 33.602976 27.450517 33.397202 28.060547 33.125 L 31.125 36.064453 C 31.901038 35.604598 32.579968 35.035636 33.25 34.439453 L 31.4375 30.625 C 31.881527 30.127085 32.284984 29.579969 32.625 29 L 36.8125 29.5625 A 13.820672 13.820672 0 0 0 37.625 27 L 33.9375 25 C 33.97144 24.665512 34 24.345789 34 24 C 34 23.654929 33.971463 23.336227 33.9375 23 L 37.625 21 A 13.816672 13.816672 0 0 0 36.8125 18.4375 L 32.625 19 A 10.114492 10.114492 0 0 0 31.4375 17.373047 L 33.25 13.5625 C 32.57997 12.966771 31.901038 12.397695 31.125 11.9375 L 28.058594 14.875 A 10.030487 10.030487 0 0 0 26.123047 14.25 L 25.308594 10.0625 A 14.236693 14.236693 0 0 0 23.998047 10.003906 L 23.998047 10 z M 23.998047 18 A 6.0003024 6.0003024 0 1 1 23.998047 30.001953 A 6.0003024 6.0003024 0 0 1 23.998047 18 z "
       transform="matrix(0.26458333,0,0,0.26458333,0,284.3)"
       id="path822" />
  </g>
</svg>
