<?xml version="1.0" encoding="UTF-8" standalone="no"?>
<!-- Created with Inkscape (http://www.inkscape.org/) -->

<svg
   xmlns:dc="http://purl.org/dc/elements/1.1/"
   xmlns:cc="http://creativecommons.org/ns#"
   xmlns:rdf="http://www.w3.org/1999/02/22-rdf-syntax-ns#"
   xmlns:svg="http://www.w3.org/2000/svg"
   xmlns="http://www.w3.org/2000/svg"
   xmlns:sodipodi="http://sodipodi.sourceforge.net/DTD/sodipodi-0.dtd"
   xmlns:inkscape="http://www.inkscape.org/namespaces/inkscape"
   width="48"
   height="48"
   viewBox="0 0 12.7 12.7"
   version="1.1"
   id="svg829"
   inkscape:version="0.92.3 (2405546, 2018-03-11)"
   sodipodi:docname="gnome-sudoku.svg">
  <defs
     id="defs823">
    <clipPath
       clipPathUnits="userSpaceOnUse"
       id="clipPath927">
      <g
         id="use929"
         inkscape:label="Clip">
        <path
           inkscape:connector-curvature="0"
           style="fill:#2ca089;stroke-width:0.04113208"
           d="m -5.7439193,283.47477 -10.9563497,10.95625 0.303419,0.30344 0.772914,-0.77193 0.772904,0.77193 -0.772904,0.77291 1.158933,1.15899 0.772903,-0.77206 0.772915,0.77206 -0.772915,0.7729 0.386017,0.38597 10.9563553,-10.95542 z m -0.6077207,1.2145 0.7729092,0.7729 -0.7729092,0.77303 -0.7720389,-0.77303 z m -1.5449483,1.54593 0.7729094,0.77193 -0.7729094,0.77291 -0.7729089,-0.77291 z m 3.4767859,0.38596 0.772909,0.7729 -0.772909,0.77291 -0.7720391,-0.77291 z m -5.0226039,1.15888 0.7729091,0.7729 -0.7729091,0.7729 -0.7729097,-0.7729 z m 3.4776558,0.38693 0.772909,0.77205 -0.772909,0.77291 -0.7729089,-0.77291 z m -5.0226005,1.15887 0.772035,0.7729 -0.772035,0.77206 -0.772914,-0.77206 z m 3.4767826,0.38609 0.772909,0.7729 -0.772909,0.7729 -0.7729089,-0.7729 z m -5.0225996,1.15887 0.772903,0.77291 -0.772903,0.7729 -0.772915,-0.7729 z m 3.4776512,0.38693 0.7720395,0.77291 -0.7720395,0.77205 -0.7729089,-0.77205 z m -5.0234692,1.15888 0.772903,0.7729 -0.772903,0.77302 -0.772046,-0.77302 z m 3.477653,0.38608 0.7729073,0.77291 -0.7729073,0.7729 -0.772915,-0.7729 z m -1.545818,1.54581 0.772903,0.7729 -0.772903,0.77291 -0.772034,-0.77291 z"
           id="path970" />
        <path
           inkscape:connector-curvature="0"
           style="fill:#1a1a1a;fill-opacity:1;stroke-width:0.1389506"
           d="m -9.5487714,285.30924 a 5.4070438,5.4070438 0 0 1 5.4069053,5.40691 5.4070438,5.4070438 0 0 1 -5.4069053,5.4069 5.4070438,5.4070438 0 0 1 -5.4074216,-5.4069 5.4070438,5.4070438 0 0 1 5.4074216,-5.40691 z"
           id="path972" />
      </g>
    </clipPath>
    <clipPath
       clipPathUnits="userSpaceOnUse"
       id="clipPath944">
      <g
         inkscape:label="Clip"
         id="use946"
         transform="translate(0,-3.9583333e-6)">
        <g
           clip-path="url(#clipPath927)"
           id="g959">
          <g
             id="g957"
             inkscape:label="Clip">
            <path
               inkscape:connector-curvature="0"
               style="fill:#2ca089;stroke-width:0.04113208"
               d="m -5.7439193,283.47477 -10.9563497,10.95625 0.303419,0.30344 0.772914,-0.77193 0.772904,0.77193 -0.772904,0.77291 1.158933,1.15899 0.772903,-0.77206 0.772915,0.77206 -0.772915,0.7729 0.386017,0.38597 10.9563553,-10.95542 z m -0.6077207,1.2145 0.7729092,0.7729 -0.7729092,0.77303 -0.7720389,-0.77303 z m -1.5449483,1.54593 0.7729094,0.77193 -0.7729094,0.77291 -0.7729089,-0.77291 z m 3.4767859,0.38596 0.772909,0.7729 -0.772909,0.77291 -0.7720391,-0.77291 z m -5.0226039,1.15888 0.7729091,0.7729 -0.7729091,0.7729 -0.7729097,-0.7729 z m 3.4776558,0.38693 0.772909,0.77205 -0.772909,0.77291 -0.7729089,-0.77291 z m -5.0226005,1.15887 0.772035,0.7729 -0.772035,0.77206 -0.772914,-0.77206 z m 3.4767826,0.38609 0.772909,0.7729 -0.772909,0.7729 -0.7729089,-0.7729 z m -5.0225996,1.15887 0.772903,0.77291 -0.772903,0.7729 -0.772915,-0.7729 z m 3.4776512,0.38693 0.7720395,0.77291 -0.7720395,0.77205 -0.7729089,-0.77205 z m -5.0234692,1.15888 0.772903,0.7729 -0.772903,0.77302 -0.772046,-0.77302 z m 3.477653,0.38608 0.7729073,0.77291 -0.7729073,0.7729 -0.772915,-0.7729 z m -1.545818,1.54581 0.772903,0.7729 -0.772903,0.77291 -0.772034,-0.77291 z"
               id="path953" />
            <path
               inkscape:connector-curvature="0"
               style="fill:#1a1a1a;fill-opacity:1;stroke-width:0.1389506"
               d="m -9.5487714,285.30924 a 5.4070438,5.4070438 0 0 1 5.4069053,5.40691 5.4070438,5.4070438 0 0 1 -5.4069053,5.4069 5.4070438,5.4070438 0 0 1 -5.4074216,-5.4069 5.4070438,5.4070438 0 0 1 5.4074216,-5.40691 z"
               id="path955" />
          </g>
        </g>
      </g>
    </clipPath>
    <clipPath
       clipPathUnits="userSpaceOnUse"
       id="clipPath978">
      <path
         inkscape:connector-curvature="0"
         style="fill:#1a1a1a;fill-opacity:1;stroke-width:0.1389506"
         d="m -9.5487715,285.30924 a 5.4070438,5.4070438 0 0 1 5.4069054,5.40691 5.4070438,5.4070438 0 0 1 -5.4069054,5.4069 5.4070438,5.4070438 0 0 1 -5.4074215,-5.4069 5.4070438,5.4070438 0 0 1 5.4074215,-5.40691 z"
         id="path980" />
    </clipPath>
    <linearGradient
       id="linearGradient23362">
      <stop
         style="stop-color:#efb66b;stop-opacity:1;"
         offset="0"
         id="stop23364" />
      <stop
         style="stop-color:#553e23;stop-opacity:0;"
         offset="1"
         id="stop23366" />
    </linearGradient>
    <linearGradient
       id="linearGradient23397">
      <stop
         style="stop-color:#efb66b;stop-opacity:1;"
         offset="0"
         id="stop23399" />
      <stop
         style="stop-color:#efb66b;stop-opacity:0;"
         offset="1"
         id="stop23401" />
    </linearGradient>
  </defs>
  <sodipodi:namedview
     id="base"
     pagecolor="#ffffff"
     bordercolor="#666666"
     borderopacity="1.0"
     inkscape:pageopacity="0.0"
     inkscape:pageshadow="2"
     inkscape:zoom="3.9406472"
     inkscape:cx="20.574167"
     inkscape:cy="22.984938"
     inkscape:document-units="mm"
     inkscape:current-layer="layer1"
     showgrid="false"
     showguides="true"
     inkscape:guide-bbox="true"
     inkscape:window-width="1366"
     inkscape:window-height="719"
     inkscape:window-x="0"
     inkscape:window-y="25"
     inkscape:window-maximized="1"
     scale-x="1.9"
     units="px"
     inkscape:snap-global="false" />
  <metadata
     id="metadata826">
    <rdf:RDF>
      <cc:Work
         rdf:about="">
        <dc:format>image/svg+xml</dc:format>
        <dc:type
           rdf:resource="http://purl.org/dc/dcmitype/StillImage" />
        <dc:title></dc:title>
      </cc:Work>
    </rdf:RDF>
  </metadata>
  <g
     inkscape:label="Capa 1"
     inkscape:groupmode="layer"
     id="layer1"
     transform="translate(0,-284.3)">
    <path
       style="fill:#e6e6e6;fill-opacity:1;stroke-width:0.52516764"
       d="M 23.978516 0.27539062 A 23.770509 23.770509 0 0 0 0.20703125 24.046875 A 23.770509 23.770509 0 0 0 23.978516 47.816406 A 23.770509 23.770509 0 0 0 47.748047 24.046875 A 23.770509 23.770509 0 0 0 23.978516 0.27539062 z M 23.865234 3.8164062 L 23.865234 11.484375 L 12.470703 11.484375 L 12.470703 7.4472656 C 12.470703 7.4134123 12.458214 7.3832346 12.451172 7.3515625 A 20.436071 20.436071 0 0 1 23.865234 3.8164062 z M 24.761719 3.8574219 A 20.436071 20.436071 0 0 1 35.810547 7.6601562 C 35.808023 7.6794927 35.798828 7.6967504 35.798828 7.7167969 L 35.798828 11.484375 L 24.761719 11.484375 L 24.761719 3.8574219 z M 11.574219 7.9785156 L 11.574219 11.484375 L 7.9746094 11.484375 A 20.436071 20.436071 0 0 1 11.574219 7.9785156 z M 36.695312 8.3320312 A 20.436071 20.436071 0 0 1 39.863281 11.484375 L 36.695312 11.484375 L 36.695312 8.3320312 z M 7.2929688 12.380859 L 11.574219 12.380859 L 11.574219 23.595703 L 3.5058594 23.595703 A 20.436071 20.436071 0 0 1 7.2929688 12.380859 z M 12.470703 12.380859 L 23.865234 12.380859 L 23.865234 23.595703 L 12.470703 23.595703 L 12.470703 12.380859 z M 24.761719 12.380859 L 35.798828 12.380859 L 35.798828 23.595703 L 24.761719 23.595703 L 24.761719 12.380859 z M 36.695312 12.380859 L 40.513672 12.380859 A 20.436071 20.436071 0 0 1 44.322266 23.595703 L 36.695312 23.595703 L 36.695312 12.380859 z M 18.558594 14.025391 L 15.324219 18.953125 L 15.324219 19.96875 L 18.835938 19.96875 L 18.835938 21.802734 L 19.882812 21.802734 L 19.882812 19.96875 L 20.992188 19.96875 L 20.992188 19.09375 L 19.882812 19.09375 L 19.882812 14.025391 L 18.558594 14.025391 z M 18.835938 14.943359 L 18.835938 19.09375 L 16.179688 19.09375 L 18.835938 14.943359 z M 3.4804688 24.494141 L 11.574219 24.494141 L 11.574219 35.529297 L 6.8828125 35.529297 A 20.436071 20.436071 0 0 1 3.4804688 24.494141 z M 12.470703 24.494141 L 23.865234 24.494141 L 23.865234 35.529297 L 12.470703 35.529297 L 12.470703 24.494141 z M 24.761719 24.494141 L 35.798828 24.494141 L 35.798828 35.529297 L 24.761719 35.529297 L 24.761719 24.494141 z M 36.695312 24.494141 L 44.333984 24.494141 A 20.436071 20.436071 0 0 1 40.935547 35.529297 L 36.695312 35.529297 L 36.695312 24.494141 z M 29.892578 25.998047 C 29.58355 25.998047 29.253038 26.024523 28.902344 26.080078 C 28.555122 26.135634 28.182509 26.218967 27.783203 26.330078 L 27.783203 27.267578 C 28.179036 27.135634 28.541233 27.039063 28.871094 26.976562 C 29.200955 26.914062 29.510634 26.882812 29.798828 26.882812 C 30.326606 26.882813 30.730469 26.9898 31.011719 27.205078 C 31.296441 27.416884 31.439453 27.723741 31.439453 28.123047 C 31.439453 28.511936 31.301649 28.809245 31.027344 29.017578 C 30.753038 29.222439 30.357205 29.326172 29.839844 29.326172 L 28.892578 29.326172 L 28.892578 30.189453 L 29.798828 30.189453 C 30.371745 30.189453 30.817274 30.319661 31.136719 30.580078 C 31.459635 30.837023 31.621094 31.195964 31.621094 31.654297 C 31.621094 32.150825 31.448785 32.528646 31.101562 32.789062 C 30.757812 33.049479 30.255425 33.179688 29.595703 33.179688 C 29.217231 33.179688 28.855035 33.135634 28.507812 33.048828 C 28.16059 32.962023 27.840495 32.834201 27.548828 32.664062 L 27.548828 33.679688 C 27.916884 33.80816 28.273437 33.904297 28.617188 33.966797 C 28.96441 34.032769 29.300564 34.064453 29.626953 34.064453 C 30.599175 34.064453 31.349175 33.855686 31.876953 33.435547 C 32.404731 33.015408 32.667969 32.421658 32.667969 31.654297 C 32.667969 31.154297 32.52691 30.732856 32.242188 30.392578 C 31.960937 30.0523 31.567925 29.828342 31.064453 29.720703 C 31.519314 29.60612 31.87066 29.402561 32.117188 29.107422 C 32.363715 28.808811 32.486328 28.444227 32.486328 28.013672 C 32.486328 27.395616 32.25434 26.906033 31.789062 26.544922 C 31.323785 26.180339 30.691189 25.998047 29.892578 25.998047 z M 7.5253906 36.425781 L 11.574219 36.425781 L 11.574219 40.511719 A 20.436071 20.436071 0 0 1 7.5253906 36.425781 z M 12.470703 36.425781 L 23.865234 36.425781 L 23.865234 44.683594 A 20.436071 20.436071 0 0 1 12.470703 41.177734 L 12.470703 36.425781 z M 24.761719 36.425781 L 35.798828 36.425781 L 35.798828 40.839844 A 20.436071 20.436071 0 0 1 24.761719 44.65625 L 24.761719 36.425781 z M 36.695312 36.425781 L 40.291016 36.425781 A 20.436071 20.436071 0 0 1 36.695312 40.185547 L 36.695312 36.425781 z "
       transform="matrix(0.26458333,0,0,0.26458333,0,284.3)"
       id="path834" />
  </g>
</svg>
