<?xml version="1.0" encoding="UTF-8" standalone="no"?>
<!-- Created with Inkscape (http://www.inkscape.org/) -->

<svg
   xmlns:dc="http://purl.org/dc/elements/1.1/"
   xmlns:cc="http://creativecommons.org/ns#"
   xmlns:rdf="http://www.w3.org/1999/02/22-rdf-syntax-ns#"
   xmlns:svg="http://www.w3.org/2000/svg"
   xmlns="http://www.w3.org/2000/svg"
   xmlns:sodipodi="http://sodipodi.sourceforge.net/DTD/sodipodi-0.dtd"
   xmlns:inkscape="http://www.inkscape.org/namespaces/inkscape"
   width="48"
   height="48"
   viewBox="0 0 12.7 12.7"
   version="1.1"
   id="svg829"
   inkscape:version="0.92.3 (2405546, 2018-03-11)"
   sodipodi:docname="gnome-session-hibernate.svg">
  <defs
     id="defs823">
    <linearGradient
       id="linearGradient6112"
       x1="12.938"
       x2="15.25"
       y1="8.4375"
       y2="19.812"
       gradientTransform="matrix(0.12436024,0,0,0.1649413,3.365346,288.53634)"
       gradientUnits="userSpaceOnUse">
      <stop
         id="stop6594"
         style="stop-color:#fff;stop-opacity:.27451"
         offset="0" />
      <stop
         id="stop6596"
         style="stop-color:#fff;stop-opacity:0"
         offset="1" />
    </linearGradient>
  </defs>
  <sodipodi:namedview
     id="base"
     pagecolor="#ffffff"
     bordercolor="#666666"
     borderopacity="1.0"
     inkscape:pageopacity="0.0"
     inkscape:pageshadow="2"
     inkscape:zoom="3.9406472"
     inkscape:cx="-17.93204"
     inkscape:cy="21.969876"
     inkscape:document-units="mm"
     inkscape:current-layer="layer1"
     showgrid="false"
     showguides="true"
     inkscape:guide-bbox="true"
     inkscape:window-width="1366"
     inkscape:window-height="719"
     inkscape:window-x="0"
     inkscape:window-y="25"
     inkscape:window-maximized="1"
     scale-x="1.9"
     units="px" />
  <metadata
     id="metadata826">
    <rdf:RDF>
      <cc:Work
         rdf:about="">
        <dc:format>image/svg+xml</dc:format>
        <dc:type
           rdf:resource="http://purl.org/dc/dcmitype/StillImage" />
        <dc:title></dc:title>
      </cc:Work>
    </rdf:RDF>
  </metadata>
  <g
     inkscape:label="Capa 1"
     inkscape:groupmode="layer"
     id="layer1"
     transform="translate(0,-284.3)">
    <path
       style="fill:#e6e6e6;fill-opacity:1;stroke-width:1.62744093"
       d="M 13.53125 2.0273438 C 5.6638459 6.0439989 0.24609375 14.318928 0.24609375 23.861328 C 0.24609375 37.340786 11.014836 48.261719 24.294922 48.261719 C 34.254915 48.261719 42.828639 42.152451 46.482422 33.388672 C 43.236945 35.045466 39.60697 35.964844 35.728516 35.964844 C 22.448139 35.964844 11.679688 25.034184 11.679688 11.554688 C 11.679688 8.1852024 12.31376 4.9479517 13.53125 2.0273438 z M 21.441406 5.3085938 L 20.443359 11.216797 L 14.535156 12.052734 L 20.443359 13.183594 L 21.53125 19.091797 L 22.410156 13.183594 L 28.316406 12.269531 L 22.410156 11.216797 L 21.441406 5.3085938 z M 39.222656 9.5332031 L 38.224609 15.441406 L 32.316406 16.269531 L 38.224609 17.408203 L 39.300781 23.316406 L 40.191406 17.408203 L 46.097656 16.494141 L 40.191406 15.441406 L 39.222656 9.5332031 z M 28.316406 18.269531 L 27.318359 24.166016 L 21.410156 25.007812 L 27.318359 26.138672 L 28.402344 32.039062 L 29.285156 26.138672 L 35.193359 25.224609 L 29.285156 24.166016 L 28.316406 18.269531 z "
       transform="matrix(0.26458333,0,0,0.26458333,0,284.3)"
       id="path827" />
  </g>
</svg>
