<?xml version="1.0" encoding="UTF-8" standalone="no"?>
<!-- Created with Inkscape (http://www.inkscape.org/) -->

<svg
   xmlns:dc="http://purl.org/dc/elements/1.1/"
   xmlns:cc="http://creativecommons.org/ns#"
   xmlns:rdf="http://www.w3.org/1999/02/22-rdf-syntax-ns#"
   xmlns:svg="http://www.w3.org/2000/svg"
   xmlns="http://www.w3.org/2000/svg"
   xmlns:sodipodi="http://sodipodi.sourceforge.net/DTD/sodipodi-0.dtd"
   xmlns:inkscape="http://www.inkscape.org/namespaces/inkscape"
   width="48"
   height="48"
   viewBox="0 0 12.7 12.7"
   version="1.1"
   id="svg829"
   inkscape:version="0.92.3 (2405546, 2018-03-11)"
   sodipodi:docname="gnome-sticky-notes-applet.svg">
  <defs
     id="defs823" />
  <sodipodi:namedview
     id="base"
     pagecolor="#ffffff"
     bordercolor="#666666"
     borderopacity="1.0"
     inkscape:pageopacity="0.0"
     inkscape:pageshadow="2"
     inkscape:zoom="3.9627443"
     inkscape:cx="20.59327"
     inkscape:cy="22.990599"
     inkscape:document-units="mm"
     inkscape:current-layer="layer1"
     showgrid="false"
     showguides="true"
     inkscape:guide-bbox="true"
     inkscape:window-width="1366"
     inkscape:window-height="719"
     inkscape:window-x="0"
     inkscape:window-y="25"
     inkscape:window-maximized="1"
     scale-x="1.9"
     units="px"
     inkscape:snap-global="false" />
  <metadata
     id="metadata826">
    <rdf:RDF>
      <cc:Work
         rdf:about="">
        <dc:format>image/svg+xml</dc:format>
        <dc:type
           rdf:resource="http://purl.org/dc/dcmitype/StillImage" />
        <dc:title></dc:title>
      </cc:Work>
    </rdf:RDF>
  </metadata>
  <g
     inkscape:label="Capa 1"
     inkscape:groupmode="layer"
     id="layer1"
     transform="translate(0,-284.3)">
    <path
       style="fill:#e6e6e6;fill-opacity:1;stroke-width:0.52516764"
       d="M 23.978516 0.27539062 A 23.770509 23.770509 0 0 0 0.20703125 24.046875 A 23.770509 23.770509 0 0 0 23.978516 47.816406 A 23.770509 23.770509 0 0 0 47.748047 24.046875 A 23.770509 23.770509 0 0 0 23.978516 0.27539062 z M 23.910156 3.8144531 A 20.436071 20.436071 0 0 1 44.345703 24.25 A 20.436071 20.436071 0 0 1 23.910156 44.685547 A 20.436071 20.436071 0 0 1 3.4726562 24.25 A 20.436071 20.436071 0 0 1 23.910156 3.8144531 z M 16.193359 9.3691406 C 13.598389 9.3691406 11.509766 11.457749 11.509766 14.052734 L 11.509766 34.037109 C 11.509766 36.632095 13.598389 38.722656 16.193359 38.722656 L 32.251953 38.722656 C 34.846924 38.722656 36.9375 36.632095 36.9375 34.037109 L 36.9375 14.052734 C 36.9375 11.457749 34.846924 9.3691406 32.251953 9.3691406 L 16.193359 9.3691406 z M 34.527344 18.199219 L 34.527344 26.40625 L 34.542969 26.40625 L 34.542969 30.371094 C 32.31285 30.492564 29.544477 30.466229 28.945312 26.943359 L 14.738281 34.697266 C 14.170002 34.031642 13.814453 33.178369 13.814453 32.230469 L 13.814453 18.201172 L 34.527344 18.199219 z M 34.542969 30.798828 L 34.542969 32.5625 L 34.494141 32.5625 C 34.328662 34.458613 32.803317 35.939217 30.884766 36.025391 L 30.884766 36.044922 L 26.945312 36.044922 L 23.568359 36.044922 L 17.630859 36.044922 C 16.730363 36.044922 15.915067 35.722793 15.263672 35.205078 L 34.542969 30.798828 z "
       transform="matrix(0.26458333,0,0,0.26458333,0,284.3)"
       id="path827" />
  </g>
</svg>
