<?xml version="1.0" encoding="UTF-8" standalone="no"?>
<!-- Created with Inkscape (http://www.inkscape.org/) -->

<svg
   xmlns:dc="http://purl.org/dc/elements/1.1/"
   xmlns:cc="http://creativecommons.org/ns#"
   xmlns:rdf="http://www.w3.org/1999/02/22-rdf-syntax-ns#"
   xmlns:svg="http://www.w3.org/2000/svg"
   xmlns="http://www.w3.org/2000/svg"
   xmlns:sodipodi="http://sodipodi.sourceforge.net/DTD/sodipodi-0.dtd"
   xmlns:inkscape="http://www.inkscape.org/namespaces/inkscape"
   width="48"
   height="48"
   viewBox="0 0 12.7 12.7"
   version="1.1"
   id="svg829"
   inkscape:version="0.92.3 (2405546, 2018-03-11)"
   sodipodi:docname="gnomebaker.svg">
  <defs
     id="defs823">
    <radialGradient
       id="radialGradient2539"
       cx="8.8913002"
       cy="12.123"
       r="11"
       gradientTransform="matrix(0,0.95303665,-1.2453213,0,21.45613,279.94167)"
       gradientUnits="userSpaceOnUse">
      <stop
         id="stop3841"
         style="stop-color:#ffed8c"
         offset="0" />
      <stop
         id="stop3843"
         style="stop-color:#fb9858"
         offset=".26238" />
      <stop
         id="stop3845"
         style="stop-color:#dc572a"
         offset=".66094" />
      <stop
         id="stop3847"
         style="stop-color:#9f3110"
         offset="1" />
    </radialGradient>
    <radialGradient
       id="radialGradient2539-6"
       cx="8.8913002"
       cy="12.123"
       r="11"
       gradientTransform="matrix(0,1.0448327,-1.3652702,0,22.757511,279.54008)"
       gradientUnits="userSpaceOnUse">
      <stop
         id="stop3841-2"
         style="stop-color:#ffed8c"
         offset="0" />
      <stop
         id="stop3843-9"
         style="stop-color:#fb9858"
         offset=".26238" />
      <stop
         id="stop3845-1"
         style="stop-color:#dc572a"
         offset=".66094" />
      <stop
         id="stop3847-2"
         style="stop-color:#9f3110"
         offset="1" />
    </radialGradient>
  </defs>
  <sodipodi:namedview
     id="base"
     pagecolor="#ffffff"
     bordercolor="#666666"
     borderopacity="1.0"
     inkscape:pageopacity="0.0"
     inkscape:pageshadow="2"
     inkscape:zoom="5.6041667"
     inkscape:cx="21.591078"
     inkscape:cy="23.286245"
     inkscape:document-units="mm"
     inkscape:current-layer="layer1"
     showgrid="false"
     showguides="true"
     inkscape:guide-bbox="true"
     inkscape:window-width="1366"
     inkscape:window-height="719"
     inkscape:window-x="0"
     inkscape:window-y="25"
     inkscape:window-maximized="1"
     scale-x="1.9"
     units="px"
     inkscape:snap-global="true" />
  <metadata
     id="metadata826">
    <rdf:RDF>
      <cc:Work
         rdf:about="">
        <dc:format>image/svg+xml</dc:format>
        <dc:type
           rdf:resource="http://purl.org/dc/dcmitype/StillImage" />
        <dc:title></dc:title>
      </cc:Work>
    </rdf:RDF>
  </metadata>
  <g
     inkscape:label="Capa 1"
     inkscape:groupmode="layer"
     id="layer1"
     transform="translate(0,-284.3)">
    <path
       inkscape:connector-curvature="0"
       style="fill:#e6e6e6;stroke:none;stroke-width:0.30660933"
       d="m 6.1903196,284.33514 c -3.4122692,0.081 -6.132442,2.8487 -6.132442,6.28127 0,3.484 2.8014027,6.2854 6.2854043,6.2854 2.0361825,0 3.8346741,-0.96074 4.9816081,-2.45153 l -3.2256429,-2.34197 c 0.00545,-0.006 0.00914,-0.0127 0.01447,-0.0186 -0.4183362,0.50436 -1.0501331,0.8263 -1.7704348,0.8263 -1.3163663,0 -2.2996011,-1.05945 -2.2996011,-2.2996 0,-1.24489 0.903723,-2.26362 2.234489,-2.2965 l -0.08785,-0.003 c 0,-1.32723 3.25e-5,-2.65443 0,-3.98167 z m 0.1131716,4.61626 a 1.6543405,1.6668259 0 0 0 -1.6546795,1.66656 1.6543405,1.6668259 0 0 0 1.6546795,1.66657 1.6543405,1.6668259 0 0 0 1.6536458,-1.66657 1.6543405,1.6668259 0 0 0 -1.6536458,-1.66656 z m 0.011369,0.66094 a 1.0268037,1.0345531 0 0 1 1.0262939,1.03456 1.0268037,1.0345531 0 0 1 -1.0262939,1.03404 1.0268037,1.0345531 0 0 1 -1.0273275,-1.03404 1.0268037,1.0345531 0 0 1 1.0273275,-1.03456 z"
       id="path989" />
    <path
       id="path2559-7"
       d="m 6.1901823,284.33086 c 3.3e-5,1.32862 0,2.65728 0,3.98592 1.358156,-0.0331 2.677282,1.24817 2.427211,2.64048 -0.07802,0.45366 -0.227213,0.83459 -0.517801,1.15074 l 3.2258367,2.3425 c 1.376124,-1.71393 1.685799,-4.21619 0.825699,-6.24932 -0.739635,-1.78777 -2.3390307,-3.24729 -4.2551257,-3.64375 -0.560788,-0.11886 -1.129671,-0.24249 -1.705913,-0.22637 z"
       style="opacity:0.75;fill:#d4ff2a;stroke:none;stroke-width:0.30660933;stroke-linecap:round;stroke-linejoin:round"
       inkscape:connector-curvature="0" />
  </g>
</svg>
