<?xml version="1.0" encoding="UTF-8" standalone="no"?>
<!-- Created with Inkscape (http://www.inkscape.org/) -->

<svg
   xmlns:dc="http://purl.org/dc/elements/1.1/"
   xmlns:cc="http://creativecommons.org/ns#"
   xmlns:rdf="http://www.w3.org/1999/02/22-rdf-syntax-ns#"
   xmlns:svg="http://www.w3.org/2000/svg"
   xmlns="http://www.w3.org/2000/svg"
   xmlns:sodipodi="http://sodipodi.sourceforge.net/DTD/sodipodi-0.dtd"
   xmlns:inkscape="http://www.inkscape.org/namespaces/inkscape"
   width="48"
   height="48"
   viewBox="0 0 12.7 12.7"
   version="1.1"
   id="svg829"
   inkscape:version="0.92.3 (2405546, 2018-03-11)"
   sodipodi:docname="gnome-palm.svg">
  <defs
     id="defs823" />
  <sodipodi:namedview
     id="base"
     pagecolor="#ffffff"
     bordercolor="#666666"
     borderopacity="1.0"
     inkscape:pageopacity="0.0"
     inkscape:pageshadow="2"
     inkscape:zoom="3.9627443"
     inkscape:cx="20.59327"
     inkscape:cy="22.990599"
     inkscape:document-units="mm"
     inkscape:current-layer="layer1"
     showgrid="false"
     showguides="true"
     inkscape:guide-bbox="true"
     inkscape:window-width="1366"
     inkscape:window-height="719"
     inkscape:window-x="0"
     inkscape:window-y="25"
     inkscape:window-maximized="1"
     scale-x="1.9"
     units="px"
     inkscape:snap-global="false" />
  <metadata
     id="metadata826">
    <rdf:RDF>
      <cc:Work
         rdf:about="">
        <dc:format>image/svg+xml</dc:format>
        <dc:type
           rdf:resource="http://purl.org/dc/dcmitype/StillImage" />
        <dc:title></dc:title>
      </cc:Work>
    </rdf:RDF>
  </metadata>
  <g
     inkscape:label="Capa 1"
     inkscape:groupmode="layer"
     id="layer1"
     transform="translate(0,-284.3)">
    <path
       style="fill:#e6e6e6;fill-opacity:1;stroke-width:0.52516764"
       d="M 23.978516 0.27539062 A 23.770509 23.770509 0 0 0 0.20703125 24.046875 A 23.770509 23.770509 0 0 0 23.978516 47.816406 A 23.770509 23.770509 0 0 0 47.748047 24.046875 A 23.770509 23.770509 0 0 0 23.978516 0.27539062 z M 23.910156 3.8144531 A 20.436071 20.436071 0 0 1 44.345703 24.25 A 20.436071 20.436071 0 0 1 23.910156 44.685547 A 20.436071 20.436071 0 0 1 3.4726562 24.25 A 20.436071 20.436071 0 0 1 23.910156 3.8144531 z M 14.095703 8.8925781 C 13.518105 8.8925781 13.052734 9.3871496 13.052734 10 L 13.052734 36.4375 C 13.052734 37.050275 13.518104 37.542969 14.095703 37.542969 C 14.095703 37.542969 19.047692 39.107422 24 39.107422 C 28.952307 39.107422 33.904297 37.542969 33.904297 37.542969 C 34.481894 37.542969 34.947266 37.050313 34.947266 36.4375 L 34.947266 10 C 34.947266 9.3871874 34.481894 8.8925781 33.904297 8.8925781 L 14.095703 8.8925781 z M 16.396484 11.158203 L 31.603516 11.158203 C 32.201027 11.158203 32.683594 11.640814 32.683594 12.238281 L 32.683594 31.21875 C 32.683594 31.816218 32.201027 32.296875 31.603516 32.296875 L 16.396484 32.296875 C 15.798973 32.296875 15.316406 31.816218 15.316406 31.21875 L 15.316406 12.238281 C 15.316406 11.640814 15.798973 11.158203 16.396484 11.158203 z M 16.828125 33.808594 A 1.50996 1.50996 0 0 1 18.337891 35.316406 A 1.50996 1.50996 0 0 1 16.828125 36.826172 A 1.50996 1.50996 0 0 1 15.316406 35.316406 A 1.50996 1.50996 0 0 1 16.828125 33.808594 z M 21.357422 33.808594 A 1.50996 1.50996 0 0 1 22.867188 35.316406 A 1.50996 1.50996 0 0 1 21.357422 36.826172 A 1.50996 1.50996 0 0 1 19.849609 35.316406 A 1.50996 1.50996 0 0 1 21.357422 33.808594 z M 26.642578 33.808594 A 1.50996 1.50996 0 0 1 28.154297 35.316406 A 1.50996 1.50996 0 0 1 26.642578 36.826172 A 1.50996 1.50996 0 0 1 25.132812 35.316406 A 1.50996 1.50996 0 0 1 26.642578 33.808594 z M 31.171875 33.808594 A 1.50996 1.50996 0 0 1 32.683594 35.316406 A 1.50996 1.50996 0 0 1 31.171875 36.826172 A 1.50996 1.50996 0 0 1 29.662109 35.316406 A 1.50996 1.50996 0 0 1 31.171875 33.808594 z "
       transform="matrix(0.26458333,0,0,0.26458333,0,284.3)"
       id="path827" />
    <path
       inkscape:connector-curvature="0"
       style="opacity:1;fill:#1a1a1a;fill-opacity:1;stroke:none;stroke-width:0.0263895"
       d="m 54.450447,341.5109 c -0.699603,0 -1.262802,0.5632 -1.262802,1.26281 0,0.6996 0.563199,1.26286 1.262802,1.26286 h 2.915902 v 4.54958 h 2.621599 v -4.54958 h 2.678879 c 0.699604,0 1.262802,-0.56326 1.262802,-1.26286 0,-0.69961 -0.563198,-1.26281 -1.262802,-1.26281 z m 2.915902,7.07525 h -3.762466 c -0.505822,0 -0.987151,0.40041 -1.079176,0.89779 l -1.570602,8.48895 c -0.09203,0.49738 0.241128,0.89779 0.746949,0.89779 h 4.58579 v 0.032 h 4.539768 v -0.032 h 4.597049 c 0.505821,0 0.838974,-0.40041 0.746949,-0.89779 l -1.570668,-8.48895 c -0.09202,-0.49738 -0.573289,-0.89779 -1.07911,-0.89779 h -3.489167 l -0.0068,3.70486 2.545423,0.002 -3.981976,3.2663 -3.815203,-3.25385 2.593287,0.009 z"
       id="rect827" />
  </g>
</svg>
