<?xml version="1.0" encoding="UTF-8" standalone="no"?>
<!-- Created with Inkscape (http://www.inkscape.org/) -->

<svg
   xmlns:dc="http://purl.org/dc/elements/1.1/"
   xmlns:cc="http://creativecommons.org/ns#"
   xmlns:rdf="http://www.w3.org/1999/02/22-rdf-syntax-ns#"
   xmlns:svg="http://www.w3.org/2000/svg"
   xmlns="http://www.w3.org/2000/svg"
   xmlns:sodipodi="http://sodipodi.sourceforge.net/DTD/sodipodi-0.dtd"
   xmlns:inkscape="http://www.inkscape.org/namespaces/inkscape"
   width="48"
   height="48"
   viewBox="0 0 12.7 12.7"
   version="1.1"
   id="svg829"
   inkscape:version="0.92.3 (2405546, 2018-03-11)"
   sodipodi:docname="gnome-sound-recorder.svg">
  <defs
     id="defs823" />
  <sodipodi:namedview
     id="base"
     pagecolor="#ffffff"
     bordercolor="#666666"
     borderopacity="1.0"
     inkscape:pageopacity="0.0"
     inkscape:pageshadow="2"
     inkscape:zoom="3.9627443"
     inkscape:cx="20.59327"
     inkscape:cy="22.990599"
     inkscape:document-units="mm"
     inkscape:current-layer="layer1"
     showgrid="false"
     showguides="true"
     inkscape:guide-bbox="true"
     inkscape:window-width="1366"
     inkscape:window-height="719"
     inkscape:window-x="0"
     inkscape:window-y="25"
     inkscape:window-maximized="1"
     scale-x="1.9"
     units="px"
     inkscape:snap-global="false" />
  <metadata
     id="metadata826">
    <rdf:RDF>
      <cc:Work
         rdf:about="">
        <dc:format>image/svg+xml</dc:format>
        <dc:type
           rdf:resource="http://purl.org/dc/dcmitype/StillImage" />
        <dc:title></dc:title>
      </cc:Work>
    </rdf:RDF>
  </metadata>
  <g
     inkscape:label="Capa 1"
     inkscape:groupmode="layer"
     id="layer1"
     transform="translate(0,-284.3)">
    <path
       style="fill:#e6e6e6;fill-opacity:1;stroke-width:0.52516764"
       d="M 23.978516 0.27539062 A 23.770509 23.770509 0 0 0 0.20703125 24.046875 A 23.770509 23.770509 0 0 0 23.978516 47.816406 A 23.770509 23.770509 0 0 0 47.748047 24.046875 A 23.770509 23.770509 0 0 0 23.978516 0.27539062 z M 23.910156 3.8144531 A 20.436071 20.436071 0 0 1 44.345703 24.25 A 20.436071 20.436071 0 0 1 23.910156 44.685547 A 20.436071 20.436071 0 0 1 3.4726562 24.25 A 20.436071 20.436071 0 0 1 23.910156 3.8144531 z M 31.171875 8.4941406 L 31.171875 8.4960938 C 28.994386 8.437889 26.901295 9.4536706 25.591797 11.207031 C 24.951882 12.06385 25.122264 13.641554 25.677734 14.554688 L 29.167969 20.298828 C 29.722727 21.212378 31.049015 22.088261 32.103516 21.914062 C 34.415307 21.531537 36.45933 19.955074 37.332031 17.601562 C 38.629761 14.104895 36.848775 10.216867 33.351562 8.9199219 C 32.632818 8.6515754 31.897703 8.5133406 31.171875 8.4941406 z M 21.933594 16.089844 C 21.591558 16.114264 21.248383 16.25611 20.945312 16.517578 L 7.765625 27.908203 C 6.9574365 28.607416 6.7150779 29.935233 7.2265625 30.873047 L 7.2695312 30.949219 C 7.7804183 31.887827 8.9804519 32.286937 9.953125 31.84375 L 16.712891 28.759766 C 17.685563 28.316843 18.472656 28.673327 18.472656 29.556641 C 18.472656 30.44105 18.731543 31.160156 19.050781 31.160156 C 19.369441 31.160156 19.628906 32.024975 19.628906 33.09375 L 19.628906 41.394531 C 19.628906 42.46323 20.065525 43.328125 20.605469 43.328125 C 21.145403 43.328125 21.583984 42.463155 21.583984 41.394531 L 21.583984 33.09375 C 21.583984 32.0249 21.883595 31.160156 22.251953 31.160156 C 22.619592 31.160156 22.914062 30.292779 22.914062 29.224609 L 22.914062 27.865234 C 22.914062 26.796271 23.70506 25.572018 24.677734 25.128906 L 25.865234 24.583984 C 26.837908 24.141062 27.174441 23.042141 26.617188 22.130859 L 23.416016 16.902344 C 23.137275 16.446684 22.721019 16.177041 22.273438 16.107422 L 22.273438 16.105469 C 22.161542 16.087705 22.047606 16.081704 21.933594 16.089844 z "
       transform="matrix(0.26458333,0,0,0.26458333,0,284.3)"
       id="path822" />
  </g>
</svg>
