<?xml version="1.0" encoding="UTF-8" standalone="no"?>
<!-- Created with Inkscape (http://www.inkscape.org/) -->

<svg
   xmlns:dc="http://purl.org/dc/elements/1.1/"
   xmlns:cc="http://creativecommons.org/ns#"
   xmlns:rdf="http://www.w3.org/1999/02/22-rdf-syntax-ns#"
   xmlns:svg="http://www.w3.org/2000/svg"
   xmlns="http://www.w3.org/2000/svg"
   xmlns:sodipodi="http://sodipodi.sourceforge.net/DTD/sodipodi-0.dtd"
   xmlns:inkscape="http://www.inkscape.org/namespaces/inkscape"
   width="48"
   height="48"
   viewBox="0 0 12.7 12.7"
   version="1.1"
   id="svg829"
   inkscape:version="0.92.3 (2405546, 2018-03-11)"
   sodipodi:docname="gnome-inhibit-applet.svg">
  <defs
     id="defs823" />
  <sodipodi:namedview
     id="base"
     pagecolor="#ffffff"
     bordercolor="#666666"
     borderopacity="1.0"
     inkscape:pageopacity="0.0"
     inkscape:pageshadow="2"
     inkscape:zoom="5.5729167"
     inkscape:cx="21.57757"
     inkscape:cy="23.282243"
     inkscape:document-units="mm"
     inkscape:current-layer="layer1"
     showgrid="false"
     showguides="true"
     inkscape:guide-bbox="true"
     inkscape:window-width="1366"
     inkscape:window-height="719"
     inkscape:window-x="0"
     inkscape:window-y="25"
     inkscape:window-maximized="1"
     scale-x="1.9"
     units="px"
     inkscape:snap-global="false" />
  <metadata
     id="metadata826">
    <rdf:RDF>
      <cc:Work
         rdf:about="">
        <dc:format>image/svg+xml</dc:format>
        <dc:type
           rdf:resource="http://purl.org/dc/dcmitype/StillImage" />
        <dc:title></dc:title>
      </cc:Work>
    </rdf:RDF>
  </metadata>
  <g
     inkscape:label="Capa 1"
     inkscape:groupmode="layer"
     id="layer1"
     transform="translate(0,-284.3)">
    <path
       style="fill:#e6e6e6;fill-opacity:1;stroke-width:0.52516764"
       d="M 23.978516 0.27539062 A 23.770509 23.770509 0 0 0 0.20703125 24.046875 A 23.770509 23.770509 0 0 0 23.978516 47.816406 A 23.770509 23.770509 0 0 0 47.748047 24.046875 A 23.770509 23.770509 0 0 0 23.978516 0.27539062 z M 23.910156 3.8144531 A 20.436071 20.436071 0 0 1 44.345703 24.25 A 20.436071 20.436071 0 0 1 23.910156 44.685547 A 20.436071 20.436071 0 0 1 3.4726562 24.25 A 20.436071 20.436071 0 0 1 23.910156 3.8144531 z M 10.710938 10.541016 L 10.710938 26.615234 L 19.853516 30.638672 L 20.021484 30.433594 C 20.421531 29.938476 21.015607 29.65625 21.648438 29.65625 C 22.80889 29.65625 23.755859 30.612118 23.755859 31.789062 C 23.755859 32.964911 22.808946 33.923828 21.648438 33.923828 C 20.607322 33.923828 19.713152 33.135249 19.566406 32.091797 L 19.537109 31.898438 L 10.710938 28.015625 L 10.710938 37.460938 L 37.289062 37.460938 L 37.289062 10.541016 L 33.130859 10.541016 L 33.130859 18.681641 L 33.287109 18.787109 C 33.857554 19.160527 34.197266 19.793703 34.197266 20.478516 C 34.197266 21.590264 33.303696 22.492188 32.207031 22.492188 C 31.110367 22.492188 30.216797 21.590188 30.216797 20.478516 C 30.216797 19.60809 30.766917 18.840044 31.582031 18.566406 L 31.818359 18.486328 L 31.818359 10.541016 L 17.421875 10.541016 L 17.421875 19.46875 L 21.71875 19.46875 L 21.802734 19.244141 C 22.104352 18.438421 22.877154 17.896484 23.724609 17.896484 C 24.860959 17.896484 25.78125 18.831795 25.78125 19.980469 C 25.78125 21.129181 24.860959 22.0625 23.724609 22.0625 C 22.960505 22.0625 22.263473 21.637055 21.90625 20.949219 L 21.806641 20.761719 L 16.146484 20.761719 L 16.146484 10.541016 L 10.710938 10.541016 z M 23.699219 19.039062 A 1.0424618 1.0559054 0 0 0 22.65625 20.09375 A 1.0424618 1.0559054 0 0 0 23.699219 21.150391 A 1.0424618 1.0559054 0 0 0 24.742188 20.09375 A 1.0424618 1.0559054 0 0 0 23.699219 19.039062 z M 32.207031 19.443359 A 1.0420134 1.0554512 0 0 0 31.166016 20.498047 A 1.0420134 1.0554512 0 0 0 32.207031 21.556641 A 1.0420134 1.0554512 0 0 0 33.248047 20.498047 A 1.0420134 1.0554512 0 0 0 32.207031 19.443359 z M 25.703125 23.787109 L 35.175781 23.787109 L 35.175781 25.03125 L 27.552734 34.470703 L 35.361328 34.470703 L 35.361328 35.84375 L 25.517578 35.84375 L 25.517578 34.599609 L 33.140625 25.160156 L 25.703125 25.160156 L 25.703125 23.787109 z M 21.595703 30.746094 C 21.022512 30.746094 20.554687 31.219301 20.554688 31.800781 C 20.554688 32.384189 21.022512 32.857422 21.595703 32.857422 C 22.171642 32.857422 22.640625 32.384189 22.640625 31.800781 C 22.640625 31.219301 22.171585 30.746094 21.595703 30.746094 z "
       transform="matrix(0.26458333,0,0,0.26458333,0,284.3)"
       id="path826" />
  </g>
</svg>
