<?xml version="1.0" encoding="UTF-8" standalone="no"?>
<!-- Created with Inkscape (http://www.inkscape.org/) -->

<svg
   xmlns:dc="http://purl.org/dc/elements/1.1/"
   xmlns:cc="http://creativecommons.org/ns#"
   xmlns:rdf="http://www.w3.org/1999/02/22-rdf-syntax-ns#"
   xmlns:svg="http://www.w3.org/2000/svg"
   xmlns="http://www.w3.org/2000/svg"
   xmlns:sodipodi="http://sodipodi.sourceforge.net/DTD/sodipodi-0.dtd"
   xmlns:inkscape="http://www.inkscape.org/namespaces/inkscape"
   width="48"
   height="48"
   viewBox="0 0 12.7 12.7"
   version="1.1"
   id="svg829"
   inkscape:version="0.92.3 (2405546, 2018-03-11)"
   sodipodi:docname="gnome-panel-window-menu.svg">
  <defs
     id="defs823" />
  <sodipodi:namedview
     id="base"
     pagecolor="#ffffff"
     bordercolor="#666666"
     borderopacity="1.0"
     inkscape:pageopacity="0.0"
     inkscape:pageshadow="2"
     inkscape:zoom="5.6041667"
     inkscape:cx="21.591078"
     inkscape:cy="12.224707"
     inkscape:document-units="mm"
     inkscape:current-layer="layer1"
     showgrid="false"
     showguides="true"
     inkscape:guide-bbox="true"
     inkscape:window-width="1366"
     inkscape:window-height="719"
     inkscape:window-x="0"
     inkscape:window-y="25"
     inkscape:window-maximized="1"
     scale-x="1.9"
     units="px"
     inkscape:snap-global="true" />
  <metadata
     id="metadata826">
    <rdf:RDF>
      <cc:Work
         rdf:about="">
        <dc:format>image/svg+xml</dc:format>
        <dc:type
           rdf:resource="http://purl.org/dc/dcmitype/StillImage" />
        <dc:title></dc:title>
      </cc:Work>
    </rdf:RDF>
  </metadata>
  <g
     inkscape:label="Capa 1"
     inkscape:groupmode="layer"
     id="layer1"
     transform="translate(0,-284.3)">
    <path
       style="fill:#e6e6e6;fill-opacity:1;stroke-width:0.52516764"
       d="M 23.978516 0.27539062 A 23.770509 23.770509 0 0 0 0.20703125 24.046875 A 23.770509 23.770509 0 0 0 23.978516 47.816406 A 23.770509 23.770509 0 0 0 47.748047 24.046875 A 23.770509 23.770509 0 0 0 23.978516 0.27539062 z M 23.910156 3.8144531 A 20.436071 20.436071 0 0 1 44.345703 24.25 A 20.436071 20.436071 0 0 1 23.910156 44.685547 A 20.436071 20.436071 0 0 1 3.4726562 24.25 A 20.436071 20.436071 0 0 1 23.910156 3.8144531 z M 19.166016 10.144531 C 18.45197 10.144531 17.876953 10.719528 17.876953 11.433594 L 17.876953 19.810547 L 10.789062 19.810547 C 10.07502 19.810547 9.5 20.385543 9.5 21.099609 L 9.5 36.566406 C 9.5 37.280472 10.07502 37.855469 10.789062 37.855469 L 28.833984 37.855469 C 29.548029 37.855469 30.123047 37.280472 30.123047 36.566406 L 30.123047 28.216797 L 37.210938 28.189453 C 37.924982 28.187072 38.5 27.614457 38.5 26.900391 L 38.5 11.435547 C 38.5 10.721481 37.92499 10.146484 37.210938 10.146484 L 19.166016 10.144531 z M 19.166016 14.333984 L 37.210938 14.333984 C 37.389383 14.333984 37.533203 14.478612 37.533203 14.65625 L 37.533203 26.900391 C 37.533203 27.078784 37.389417 27.2219 37.210938 27.222656 L 30.123047 27.248047 L 30.123047 21.099609 C 30.123047 20.385581 29.548029 19.810547 28.833984 19.810547 L 18.779297 19.810547 L 18.84375 14.654297 C 18.845941 14.475903 18.987512 14.333984 19.166016 14.333984 z M 10.789062 24 L 28.833984 24 C 29.012507 24 29.15625 24.144628 29.15625 24.322266 L 29.15625 36.566406 C 29.15625 36.744422 29.012484 36.888672 28.833984 36.888672 L 10.789062 36.888672 C 10.610545 36.888672 10.466797 36.744044 10.466797 36.566406 L 10.466797 24.322266 C 10.466797 24.14425 10.61056 24 10.789062 24 z M 19.806641 24.603516 C 18.265979 24.573279 16.627472 25.164345 16.128906 26.326172 C 15.839939 26.972131 16.108347 28.130859 17.078125 28.130859 C 17.645374 28.130859 17.904484 27.764365 17.947266 27.429688 C 17.979618 27.176081 17.87595 26.951687 17.814453 26.742188 C 17.7444 26.503321 18.043387 26.040161 18.369141 25.851562 C 18.641346 25.694334 18.926798 25.641064 18.96875 25.630859 C 19.946287 25.396529 20.921528 25.91524 21.328125 26.546875 C 21.7347 27.178396 21.286008 28.136668 20.642578 29.068359 C 19.999178 29.999975 19.309731 31.057723 19.3125 32.181641 C 19.3125 32.609332 19.275628 32.754632 19.302734 32.927734 C 19.324353 33.065687 19.780106 33.049383 20.130859 32.984375 C 20.100396 31.895795 20.344548 30.84037 21.373047 30.091797 C 22.459415 29.24522 23.507064 28.186105 23.396484 26.9375 C 23.372371 25.73338 21.968637 24.788029 20.457031 24.652344 C 20.244486 24.622108 20.026734 24.607295 19.806641 24.603516 z M 19.736328 34.451172 C 18.801618 34.400526 18.155269 35.459704 18.716797 36.134766 C 19.21828 36.880051 20.62423 36.695266 20.865234 35.851562 C 21.115775 35.195285 20.512258 34.440325 19.736328 34.451172 z "
       transform="matrix(0.26458333,0,0,0.26458333,0,284.3)"
       id="path822" />
  </g>
</svg>
