<svg xmlns="http://www.w3.org/2000/svg" width="48" height="48" viewBox="0 0 12.7 12.7"><path fill="#e6e6e6" d="M3.58.536A6.48 6.48 0 0 0 .065 6.313c0 3.567 2.85 6.456 6.363 6.456 2.635 0 4.904-1.616 5.87-3.935a6.218 6.218 0 0 1-2.845.682c-3.514 0-6.363-2.892-6.363-6.459 0-.891.168-1.748.49-2.52zm2.093.869l-.264 1.563-1.563.221 1.563.3.288 1.562.232-1.563 1.563-.242-1.563-.278-.256-1.563zm4.705 1.117l-.264 1.564-1.564.219 1.564.3.284 1.564.236-1.563 1.563-.242-1.563-.278-.256-1.564zM7.492 4.834l-.264 1.56-1.563.223 1.563.299.287 1.561.233-1.561 1.564-.242-1.564-.28-.256-1.56z"/></svg>