<?xml version="1.0" encoding="UTF-8" standalone="no"?>
<!-- Created with Inkscape (http://www.inkscape.org/) -->

<svg
   xmlns:dc="http://purl.org/dc/elements/1.1/"
   xmlns:cc="http://creativecommons.org/ns#"
   xmlns:rdf="http://www.w3.org/1999/02/22-rdf-syntax-ns#"
   xmlns:svg="http://www.w3.org/2000/svg"
   xmlns="http://www.w3.org/2000/svg"
   xmlns:sodipodi="http://sodipodi.sourceforge.net/DTD/sodipodi-0.dtd"
   xmlns:inkscape="http://www.inkscape.org/namespaces/inkscape"
   width="48"
   height="48"
   viewBox="0 0 12.7 12.7"
   version="1.1"
   id="svg829"
   inkscape:version="0.92.3 (2405546, 2018-03-11)"
   sodipodi:docname="google.svg">
  <defs
     id="defs823" />
  <sodipodi:namedview
     id="base"
     pagecolor="#ffffff"
     bordercolor="#666666"
     borderopacity="1.0"
     inkscape:pageopacity="0.0"
     inkscape:pageshadow="2"
     inkscape:zoom="5.6041667"
     inkscape:cx="24"
     inkscape:cy="24"
     inkscape:document-units="mm"
     inkscape:current-layer="layer1"
     showgrid="false"
     showguides="true"
     inkscape:guide-bbox="true"
     inkscape:window-width="1366"
     inkscape:window-height="719"
     inkscape:window-x="0"
     inkscape:window-y="25"
     inkscape:window-maximized="1"
     scale-x="1.9"
     units="px"
     inkscape:snap-global="false" />
  <metadata
     id="metadata826">
    <rdf:RDF>
      <cc:Work
         rdf:about="">
        <dc:format>image/svg+xml</dc:format>
        <dc:type
           rdf:resource="http://purl.org/dc/dcmitype/StillImage" />
        <dc:title></dc:title>
      </cc:Work>
    </rdf:RDF>
  </metadata>
  <g
     inkscape:label="Capa 1"
     inkscape:groupmode="layer"
     id="layer1"
     transform="translate(0,-284.3)">
    <g
       id="g837">
      <path
         inkscape:connector-curvature="0"
         id="path832"
         d="m 6.3443159,284.37286 a 6.2892804,6.2892804 0 0 0 -6.28953853,6.28954 6.2892804,6.2892804 0 0 0 6.28953853,6.28902 6.2892804,6.2892804 0 0 0 6.2890211,-6.28902 6.2892804,6.2892804 0 0 0 -6.2890211,-6.28954 z m -0.018087,0.93638 a 5.4070437,5.4070437 0 0 1 5.4069051,5.40691 5.4070437,5.4070437 0 0 1 -5.4069051,5.4069 5.4070437,5.4070437 0 0 1 -5.40742183,-5.4069 5.4070437,5.4070437 0 0 1 5.40742183,-5.40691 z"
         style="fill:#1a1a1a;fill-opacity:1;stroke-width:0.1389506" />
      <path
         id="path833"
         d="m 6.9835365,286.68432 c -0.8548012,0 -1.4466392,0.18741 -1.9792082,0.62735 -0.418843,0.36136 -0.668693,0.8862 -0.668693,1.40457 1e-6,0.79864 0.609008,1.64744 1.737362,1.64744 0.108491,0 0.228348,-0.0113 0.334347,-0.0212 l -0.0155,0.0382 c -0.04536,0.10866 -0.08837,0.21105 -0.08837,0.37104 0,0.31152 0.150298,0.5037 0.2955889,0.68937 l 0.0186,0.0232 -0.03256,0.003 c -0.4659459,0.0319 -1.3333059,0.0912 -1.9668049,0.48059 -0.748221,0.44454 -0.806152,1.09154 -0.806152,1.2792 0,0.74664 0.695401,1.50069 2.249992,1.50069 1.8076249,0 2.7538353,-0.99777 2.7538353,-1.98283 1.66e-4,-0.72862 -0.4270807,-1.08832 -0.8805654,-1.47019 l -0.382922,-0.29714 c -0.1182097,-0.0979 -0.2650997,-0.22018 -0.2650997,-0.44597 0,-0.22197 0.147063,-0.36839 0.2769857,-0.49765 l 0.01343,-0.0134 c 0.413112,-0.32539 0.8815987,-0.69444 0.8815987,-1.49242 0,-0.8023 -0.5015177,-1.21716 -0.7425897,-1.41645 h 0.6366537 c 0.0078,0 0.01574,-0.002 0.02222,-0.006 l 0.5482857,-0.34468 c 0.01561,-0.01 0.02272,-0.0287 0.01757,-0.0465 -0.0049,-0.0178 -0.02135,-0.03 -0.03979,-0.03 z m -0.7637782,0.39584 c 0.8490692,0 1.3187829,1.14136 1.3187829,1.93012 0,0.12444 2.5e-5,0.50292 -0.2614827,0.76584 -0.175861,0.17553 -0.4617073,0.29352 -0.7115843,0.29352 -0.9247469,0 -1.3089649,-1.21569 -1.3089649,-1.86655 0,-0.33095 0.07563,-0.58489 0.230477,-0.7767 0.168053,-0.21025 0.455481,-0.34623 0.732772,-0.34623 z m 0.5131469,4.67879 c 0.10442,0 0.156892,-1.4e-4 0.2402953,0.0103 0.7709827,0.54868 1.1415314,0.83676 1.1415314,1.38545 -8.2e-5,0.69896 -0.5896707,1.13326 -1.5389227,1.13326 -1.1018539,0 -1.8422649,-0.51454 -1.8422649,-1.28054 0,-0.50017 0.302803,-0.86346 0.89917,-1.07952 0.477575,-0.16075 1.0940449,-0.16898 1.1001909,-0.16898 z"
         style="fill:#006680;stroke-width:0.02444816;opacity:0.75"
         inkscape:connector-curvature="0" />
    </g>
  </g>
</svg>
