<svg xmlns="http://www.w3.org/2000/svg" width="48" height="48" viewBox="0 0 12.7 12.7"><path fill="#e6e6e6" d="M6.344.073a6.29 6.29 0 0 0-6.29 6.29 6.29 6.29 0 0 0 6.29 6.288 6.29 6.29 0 0 0 6.29-6.289 6.29 6.29 0 0 0-6.29-6.29zm-.018.936a5.407 5.407 0 0 1 5.407 5.407 5.407 5.407 0 0 1-5.407 5.407A5.407 5.407 0 0 1 .92 6.416 5.407 5.407 0 0 1 6.326 1.01z"/><path fill="#006680" d="M6.984 2.384c-.855 0-1.447.188-1.98.628-.419.361-.668.886-.668 1.404 0 .799.609 1.648 1.737 1.648.108 0 .228-.012.334-.022l-.015.039c-.046.108-.089.21-.089.37 0 .312.15.504.296.69l.019.023-.033.003c-.466.032-1.333.091-1.967.48-.748.445-.806 1.092-.806 1.28 0 .747.696 1.5 2.25 1.5 1.808 0 2.754-.997 2.754-1.982 0-.729-.427-1.088-.88-1.47l-.384-.297c-.118-.098-.265-.22-.265-.446 0-.222.147-.369.277-.498l.014-.013c.413-.326.881-.695.881-1.493 0-.802-.501-1.217-.742-1.416h.636a.043.043 0 0 0 .023-.006l.548-.345a.041.041 0 0 0 .018-.046.041.041 0 0 0-.04-.03zm-.764.396c.849 0 1.319 1.142 1.319 1.93 0 .125 0 .503-.262.766a1.073 1.073 0 0 1-.712.294c-.924 0-1.308-1.216-1.308-1.867 0-.33.075-.585.23-.777a.97.97 0 0 1 .733-.346zm.513 4.679c.104 0 .157 0 .24.01.771.549 1.142.837 1.142 1.386 0 .699-.59 1.133-1.54 1.133-1.101 0-1.841-.515-1.841-1.28 0-.5.302-.864.899-1.08.477-.16 1.094-.17 1.1-.17z" opacity=".75"/></svg>