<svg xmlns="http://www.w3.org/2000/svg" width="48" height="48" viewBox="0 0 12.7 12.7">
  <path fill="#e6e6e6" d="M6.3443156.07286A6.2892804 6.2892804 0 0 0 .05477702 6.3624a6.2892804 6.2892804 0 0 0 6.28953858 6.28902A6.2892804 6.2892804 0 0 0 12.633337 6.3624 6.2892804 6.2892804 0 0 0 6.3443156.07286zm-.018087.93638a5.4070437 5.4070437 0 0 1 5.4069054 5.40691 5.4070437 5.4070437 0 0 1-5.4069054 5.4069 5.4070437 5.4070437 0 0 1-5.40742176-5.4069A5.4070437 5.4070437 0 0 1 6.3262286 1.00924z"/>
  <path fill="#d40000" d="M5.5796121 2.15478c-.8917477 0-1.509557.19566-2.0651452.65466-.4369474.37697-.6974159.92494-.6974159 1.46573 0 .83317.6346978 1.71903 1.8118229 1.71903.1131788 0 .2386494-.0132.3492295-.0221l-.015647.0396c-.047315.11374-.09278.21985-.09278.38676 0 .32497.1570007.52561.3085727.7193l.018764.0239-.033359.002c-.4860853.0333-1.3907112.0952-2.0515932.50143-.7805609.46409-.8412777 1.13863-.8412777 1.33438 0 .77892.7258704 1.56576 2.347656 1.56576 1.8857568 0 2.8720212-1.04059 2.8720212-2.06822.0001739-.76013-.4453351-1.1351-.9184212-1.5335l-.399264-.3101c-.1233174-.10195-.2762563-.2294-.2762563-.46494 0-.23156.1532265-.38431.2887663-.51915l.014587-.0145c.4309693-.33945.9194644-.72393.9194644-1.55641 0-.83697-.5230679-1.26928-.7745598-1.47721h.6640574c.00812 0 .01618-.001.022937-.0114l.5712773-.35966c.016323-.0124.024136-.0303.018764-.0491-.0051-.0178-.022464-.0315-.041701-.0315zm-.7964515.41385c.8857689 0 1.375025 1.19017 1.3750261 2.01303 0 .12982-.0003182.52529-.2731289.79958-.1834627.18317-.4815647.30645-.7422429.30645-.964717 0-1.3646013-1.26832-1.3646013-1.94732 0-.34527.078231-.61093.2397695-.81104.175317-.21935.4759013-.3607.7651775-.3607zm4.0510616 2.41124c-.02392 0-.043785.0204-.043785.0441V6.0748H7.7417071c-.02392 0-.043785.0178-.043785.0428v.45973c0 .0238.019873.0441.043785.0441h1.0487313v1.05708c0 .0238.019874.0441.043785.0441h.4534773c.023832 0 .042743-.0204.042743-.0441V6.62143h1.0549853c.02392 0 .04378-.0204.04378-.0441V6.1176c0-.0239-.01979-.0428-.04378-.0428H9.3304417V5.02397c0-.0238-.018905-.0441-.042743-.0441zM5.3179508 7.44952c.1089325 0 .1631866-.00052.2501942.0124.8043066.57244 1.1915504.87355 1.1915504 1.44595-.0000867.72914-.6151318 1.18216-1.6054134 1.18216-1.1494797 0-1.9223257-.53735-1.9223257-1.33647 0-.52179.3160843-.90047.9382281-1.12587.498218-.16769 1.1413561-.1761 1.1477664-.1761z" opacity=".75"/>
</svg>
