<svg xmlns="http://www.w3.org/2000/svg" width="48" height="48" viewBox="0 0 12.7 12.7">
  <defs>
    <linearGradient id="a" x2="0" y1="36" y2="12" gradientTransform="translate(2.6458227 286.94582) scale(.15434)" gradientUnits="userSpaceOnUse">
      <stop stop-color="#06a370"/>
      <stop offset="1" stop-color="#22d1b0"/>
    </linearGradient>
  </defs>
  <path fill="#e6e6e6" d="M6.34431561.07286377a6.28928043 6.28928043 0 0 0-6.2895386 6.2895385 6.28928043 6.28928043 0 0 0 6.2895386 6.28902166 6.28928043 6.28928043 0 0 0 6.28902167-6.28902167A6.28928043 6.28928043 0 0 0 6.3443156.07286376zm-.01808691.93637693a5.40704372 5.40704372 0 0 1 5.40690507 5.40690505 5.40704372 5.40704372 0 0 1-5.40690507 5.40690508A5.40704372 5.40704372 0 0 1 .91880694 6.41614575 5.40704372 5.40704372 0 0 1 6.3262287 1.0092407zm.02377122.31367595c-2.78500387 0-5.02708327 2.24206326-5.02708327 5.02708327h1.7595826c0-1.81022993 1.45724798-3.26750067 3.26750067-3.26750067v-1.7595826zm3.26750067 5.02708327c0 1.81025004-1.45724825 3.26750067-3.26750067 3.26750067v1.7595826c2.78500387 0 5.02708327-2.24208337 5.02708327-5.02708327h-1.7595826z"/>
  <path fill="#e6e6e6" d="M6.3500002 3.17498c-1.758951 0-3.1750019 1.41608-3.1750019 3.17503 0 1.75894 1.4160509 3.175 3.1750019 3.175s3.1750025-1.41607 3.1750025-3.175H8.2176484c0 1.03469-.8329711 1.86762-1.8676482 1.86762-1.034677 0-1.8676481-.83294-1.8676481-1.86762 0-1.0347.8329711-1.86765 1.8676481-1.86765z" opacity=".75"/>
  <path fill="url(#a)" d="M6.3500002 288.7979c-1.0260572 0-1.8520888.82605-1.8520888 1.85211 0 1.02605.8260316 1.8521 1.8520888 1.8521s1.8520888-.82605 1.8520888-1.8521c0-1.02606-.8260316-1.85211-1.8520888-1.85211m0 .77171c.5985333 0 1.0803851.48185 1.0803851 1.08039 0 .59855-.4818518 1.08038-1.0803851 1.08038-.5985333 0-1.0803851-.48183-1.0803851-1.08038 0-.59854.4818518-1.08039 1.0803851-1.08039" opacity=".7" transform="translate(0 -284.3)"/>
</svg>
