<?xml version="1.0" encoding="UTF-8" standalone="no"?>
<!-- Created with Inkscape (http://www.inkscape.org/) -->

<svg
   xmlns:dc="http://purl.org/dc/elements/1.1/"
   xmlns:cc="http://creativecommons.org/ns#"
   xmlns:rdf="http://www.w3.org/1999/02/22-rdf-syntax-ns#"
   xmlns:svg="http://www.w3.org/2000/svg"
   xmlns="http://www.w3.org/2000/svg"
   xmlns:sodipodi="http://sodipodi.sourceforge.net/DTD/sodipodi-0.dtd"
   xmlns:inkscape="http://www.inkscape.org/namespaces/inkscape"
   width="48"
   height="48"
   viewBox="0 0 12.7 12.7"
   version="1.1"
   id="svg829"
   inkscape:version="0.92.3 (2405546, 2018-03-11)"
   sodipodi:docname="gtkhash.svg">
  <defs
     id="defs823" />
  <sodipodi:namedview
     id="base"
     pagecolor="#ffffff"
     bordercolor="#666666"
     borderopacity="1.0"
     inkscape:pageopacity="0.0"
     inkscape:pageshadow="2"
     inkscape:zoom="5.6041665"
     inkscape:cx="22.795539"
     inkscape:cy="23.643123"
     inkscape:document-units="mm"
     inkscape:current-layer="layer1"
     showgrid="false"
     showguides="true"
     inkscape:guide-bbox="true"
     inkscape:window-width="1366"
     inkscape:window-height="719"
     inkscape:window-x="0"
     inkscape:window-y="25"
     inkscape:window-maximized="1"
     scale-x="1.9"
     units="px"
     inkscape:snap-global="true" />
  <metadata
     id="metadata826">
    <rdf:RDF>
      <cc:Work
         rdf:about="">
        <dc:format>image/svg+xml</dc:format>
        <dc:type
           rdf:resource="http://purl.org/dc/dcmitype/StillImage" />
        <dc:title></dc:title>
      </cc:Work>
    </rdf:RDF>
  </metadata>
  <g
     inkscape:label="Capa 1"
     inkscape:groupmode="layer"
     id="layer1"
     transform="translate(0,-284.3)">
    <path
       style="fill:#e6e6e6;fill-opacity:1;stroke-width:0.52331072"
       d="M 23.976562 0.29101562 A 23.68646 23.68646 0 0 0 0.2890625 23.978516 A 23.68646 23.68646 0 0 0 23.976562 47.662109 A 23.68646 23.68646 0 0 0 47.664062 23.978516 A 23.68646 23.68646 0 0 0 23.976562 0.29101562 z M 23.910156 3.8144531 A 20.363814 20.363814 0 0 1 44.273438 24.181641 A 20.363814 20.363814 0 0 1 23.910156 44.544922 A 20.363814 20.363814 0 0 1 3.5429688 24.181641 A 20.363814 20.363814 0 0 1 23.910156 3.8144531 z M 21.412109 8.6015625 L 19.275391 17.296875 L 11.712891 17.296875 L 11.712891 20.523438 L 18.457031 20.523438 L 16.697266 27.519531 L 9.3242188 27.519531 L 9.3242188 30.724609 L 15.923828 30.724609 L 13.744141 39.398438 L 17.117188 39.398438 L 19.275391 30.724609 L 25.414062 30.724609 L 23.257812 39.398438 L 26.607422 39.398438 L 28.787109 30.724609 L 36.267578 30.724609 L 36.267578 27.519531 L 29.605469 27.519531 L 31.322266 20.523438 L 38.675781 20.523438 L 38.675781 17.296875 L 32.138672 17.296875 L 34.296875 8.6015625 L 30.945312 8.6015625 L 28.746094 17.296875 L 22.628906 17.296875 L 24.806641 8.6015625 L 21.412109 8.6015625 z M 21.851562 20.523438 L 27.949219 20.523438 L 26.230469 27.519531 L 20.091797 27.519531 L 21.851562 20.523438 z "
       transform="matrix(0.26458333,0,0,0.26458333,0,284.3)"
       id="path822" />
  </g>
</svg>
