<svg xmlns="http://www.w3.org/2000/svg" width="48" height="48" viewBox="0 0 12.7 12.7">
  <path fill="#e6e6e6" d="M6.34379862.07699788a6.26704246 6.26704246 0 0 0-6.2673175 6.26731773 6.26704246 6.26704246 0 0 0 6.2673175 6.2662839 6.26704246 6.26704246 0 0 0 6.26731763-6.2662839A6.26704246 6.26704246 0 0 0 6.34379862.07699788zm-.01756992.93224282a5.38792572 5.38792572 0 0 1 5.38778496 5.3888184 5.38792572 5.38792572 0 0 1-5.38778496 5.3877847A5.38792572 5.38792572 0 0 1 .93741048 6.3980591 5.38792572 5.38792572 0 0 1 6.3262287 1.0092407zm-.6609416 1.26658935l-.56533996 2.30063474H3.0990357v.85369478h1.78438702l-.46560448 1.85104958H2.46703286v.84801021h1.74614658l-.57670885 2.29495056h.89245201l.57102454-2.29495056h1.62419001l-.5705078 2.29495056h.88625097l.57670884-2.29495056h1.9792074v-.8480102H7.83311357l.45423587-1.8510496h1.94561749V4.5764648H8.50335686l.57102454-2.30063474h-.8867677l-.58187642 2.30063474H5.9872313l.57619238-2.30063474H5.6652871zm.11627194 3.15432952h1.6133384l-.4547526 1.85104958H5.31595456l.46560448-1.85104958z"/>
</svg>
