<svg xmlns="http://www.w3.org/2000/svg" width="48" height="48" viewBox="0 0 12.7 12.7"><path fill="#e6e6e6" d="M6.344.077A6.267 6.267 0 0 0 .076 6.344a6.267 6.267 0 0 0 6.268 6.267 6.267 6.267 0 0 0 6.267-6.267A6.267 6.267 0 0 0 6.344.077zm-.018.932a5.388 5.388 0 0 1 5.388 5.39 5.388 5.388 0 0 1-5.388 5.387A5.388 5.388 0 0 1 .937 6.398a5.388 5.388 0 0 1 5.39-5.389zm-.66 1.267l-.566 2.3H3.099v.854h1.784l-.465 1.851H2.467v.848h1.746l-.577 2.295h.893l.57-2.295h1.625l-.57 2.295h.886l.577-2.295h1.979v-.848H7.833l.454-1.85h1.946v-.855h-1.73l.571-2.3h-.886l-.582 2.3H5.987l.576-2.3h-.898zm.116 3.154h1.613L6.94 7.281H5.316l.466-1.85z"/></svg>