<svg xmlns="http://www.w3.org/2000/svg" width="48" height="48" viewBox="0 0 12.7 12.7">
  <path fill="#e6e6e6" d="M6.35051665.06097819A6.28928043 6.28928043 0 0 0 .0609782 6.35051665a6.28928043 6.28928043 0 0 0 6.28953846 6.28850493 6.28928043 6.28928043 0 0 0 6.28850493-6.28850493A6.28928043 6.28928043 0 0 0 6.35051665.0609782zM6.33243.99735512a5.40704372 5.40704372 0 0 1 5.40690508 5.40638829A5.40704372 5.40704372 0 0 1 6.33243 11.8111652a5.40704372 5.40704372 0 0 1-5.40742186-5.4074218A5.40704372 5.40704372 0 0 1 6.33243.9973551zm-.06356218.55035401c-1.86090557 0-3.31279257.91072305-4.35528955 2.73213287-.311775.68363994-.4676717 1.4060564-.4676717 2.16782648 0 .88872984.22937652 1.69472343.68729653 2.41742327l.6573242-.6299356h.0366903c.03896996.00969989.05839434.03194579.05839434.06614583v.09508463c-.04871508 0-.25815342.19771572-.6283854.5932453v.0366903l.6940145-.65939113c.02922985 0 .07095014.04154011.12454017.12454017l-.69453124.71778573h.03669027c0-.02441998.22885985-.25373012.68677977-.6883302.05359003.04389993.09531033.0656291.12454017.0656291v.08784987c-.45791887.46388998-.6872965.70603718-.6872965.72553723h.02945556c0-.02929996.2411931-.2714072.72347004-.72553723l.09508464.13229166v.0289388l-.72347005.75447604h.0289388c0-.02929996.24119311-.27089047.72347005-.7250205h.02945553c.02922005 0 .0609846.03158463.09508463.09508463v.02945554l-.68729647.7250205v.02945553l.75292558-.71778573c.02922402 0 .0704334.04154037.12402343.12454043l-.72347004.75447577h.0366903c0-.02929996.23883037-.2714072.71623527-.72553724l.0289388.06614584-.74517407.78393156c1.02788295.83989994 2.0703455 1.25987147 3.1274575 1.25987147 2.03628015 0 3.56349296-.97443897 4.58163264-2.92281897.27280287-.7227099.40927734-1.38426188.40927734-1.9848917 0-1.5626101-.71124736-2.90321997-2.1337201-4.02145998-.86225246-.54202999-1.78293604-.81287027-2.76210524-.81287027zm2.13371983 1.8236614h.0656291c.02922905-2.6e-7.07095464.05144955.12454017.1539957v.06614584l-.09508437.12454016v.0289388l.02893854.06614584c.26793163-.1269619.509125-.190686.7234703-.190686.49689067 0 .7992319.33456509.90640455 1.0035561-.15588747.58597826-.44825866.8790162-.87694901.8790162H9.1549965c-.1656297 0-.34331328-.01932913-.53330051-.05839433-.26793163 0-.44561416.15618354-.53330104.46870513-.19973025.7764211-.54327954 1.43562756-1.03042798 1.9776572l-.13125794.09508464h-.0294558c-.43843336-.20997545-.76255985-.31470943-.97203364-.31470943h-.05839434c-.3312607 0-.67717299.17786429-1.03766275.53433423-.0438433 0-.0656291-.01932913-.0656291-.05839433.02922905 0 1.1593515-1.13297704 3.39049065-3.39875888.170502-.1757934.34818452-.30037351.53330077-.37362076V4.279842c-.01948576-.1464945-.08248041-.2196248-.18965227-.2196248-.08768688.0292989-.151198.08023172-.19016927.15347897v.13177493l.09508437.12454017c-1.2227417 1.25008665-2.44525056 2.47603986-3.66799305 3.677295-.0341003 0-.07582535-.04387823-.12454017-.13177493 2.07525194-2.11440418 3.14238054-3.1718993 3.20083811-3.1718993.10230115 0 .15347924-.06320737.15347897-.19016927v-.05891133c-.03409976-.08301355-.10758064-.12454017-.2196248-.12454017-.09742964.0390652-.14860799.08059182-.15347897.12454017v.12454043l.08785013.12454017c-.93045331.96198053-1.41047653 1.4433227-1.43970558 1.4433227 0 .0390652-.16771276.20752329-.50384524.50539543 0 .02441575-.2511626.28533381-.75292558.78341458-.2484456.22462516-.37258704.36147956-.37258704.41031106h-.0289388c-.0341003 0-.07582535-.04152662-.12454017-.12454017v-.0294558c1.67579038-1.71886824 2.54293367-2.578137 2.6013915-2.578137.0876869 0 .14883422-.04152662.18293477-.12454017v-.0656291c-2.6e-7-.11231245-.06114759-.18595948-.18293476-.22014153-.12665842.03418205-.19016927.10782908-.19016927.22014153v.0656291l.09508463.12454017c-.75995132.78618714-1.60767234 1.63369755-2.54299716 2.5419637h-.05839434c0-.03906467-.0217858-.05891106-.0656291-.05891106v-.0656291C5.64039113 6.26990208 6.37106049 5.569169 6.48797589 5.569169l.0366903-.06614583v-.12454016c-.0341003-.08301355-.1070639-.12454017-.21910807-.12454017-.10717265.0292989-.16071373.1024292-.16071373.2196248 0 .0488315.03123856.1125556.0945679.190686-1.31042885 1.31845075-1.97758735 1.9776572-2.0019449 1.97765694l-.13177493-.12454017c0-.0292989.37766757-.4077417 1.13274738-1.13533104.13640144-.195326.32405373-.3421036.56275631-.4397666v-.15347896c0-.03418205-.04120806-.07570867-.12402344-.12454017h-.12454016c-.0341003 0-.07530862.04152662-.12402344.12454017v.12454016l.08784987.12454017c0 .02929916-.48002295.51012433-1.43970532 1.44280624-.0341003-2.7e-7-.07582535-.04152689-.12454017-.12454044.54560602-.60062744.91145756-.935192 1.09657382-1.0035561.01948523-.03418205.0289388-.07570867.0289388-.12454043 0-.12696137-.07296362-.19016927-.21910807-.19016927-.09255813.03906546-.14373701.08059208-.15347897.12454043v.16123047l.05839433.09508463v.0289388c-.5407345.5469128-.8113199.83995074-.8113199.87901594h-.02893881c-.0341003 0-.06585585-.03160368-.09508463-.09508463v-.02945554c.31177494-.23927434.46767167-.59552019.46767167-1.0691852.31177494-.18555996.46767167-.29029395.46767167-.3147097-.01948524 0-.0289388-.009924-.0289388-.02945553l-.15347897.02945553c-.08281511-.0292989-.12454017-.12227507-.12454017-.27853587.14127295-.1464945.29716968-.2196248.46767168-.2196248.05358632 0 .09531138.08305324.12454017.24908033l-.09508464.12454017v.0289388h.0656291c.29228891-.1562608.43821614-.24872023.43821614-.27801913v-.0366903h-.18965253c-.05358633 0-.09531112-.08305324-.12454017-.24908034.15101596-.1464945.27567413-.2196248.37310377-.2196248h.1312582c.05358633 0 .09479465.08305324.12402344.24908034-.0341003 0-.07530862.04387823-.12402344.13177493l.05839434.0289388c.31177494-.17091025.46767167-.26572236.46767167-.2852539l-.0289388-.05891107-.15347897.02945554c-.05358633 0-.09531112-.08305377-.12454017-.24908034.10230115-.17091051.25819788-.2563151.46767167-.2563151.02435755 0 .07553537.0731303.15347897.2196248l-.12402343.16123047v.02945553c.35561825-.1269619.53330077-.22228968.53330077-.28577063-.22895956-.02441575-.34364824-.11739219-.34364824-.27853613.14127322-.1464945.28771691-.2196248.43873288-.2196248h.0656291c.05358632 0 .09531138.08305323.12454016.24908033-.03410029 0-.07582534.04152662-.12454016.12454043l.05839433.03669004c.2143453-.09277985.3726053-.18810764.47490644-.28577064v-.06614583l-.16071373.0366903h-.0289388c-.05358633 0-.09531112-.09532779-.12454017-.28577063.15588747-.1464945.3117842-.2196248.46767167-.2196248.06332934 0 .1145077.09532778.15347897.28577063-.08281458.0292989-.12402317.06090258-.12402344.09508463l.0366903.05891107.49661074-.24908034v-.09560136h-.19016927c-.08281537-.03418205-.12402343-.10731235-.12402343-.2196248v-.0289388c.0974291-.1464945.23390436-.2201418.40927707-.22014154zM3.73310542 7.29774561c.0341003 0 .07582535.04152662.12454017.12454017-.04871482.00488315-.29987769.2464718-.75292558.7250205-.06332934.03418205-.09508463.07570867-.09508463.12454017h-.05839434c-.03410029 0-.06585585-.03160369-.09508463-.09508464 0-.02441575.29237093-.31745396.87694901-.8790162zm.15347897.15347897c.08768662.03418205.13177493.06630246.13177493.09560163 0 .02441522-.29473418.3174537-.88418377.87901594H3.10472c-.02922878 0-.06098434-.03212042-.09508463-.09560137v-.0289388c.52612025-.5664454.81849118-.8500774.87694901-.8500774zm.16071374.12454017c.04871481 2.6e-7.08046905.05380116.09508463.16123073 0 .02929837-.2411931.28081022-.72347004.75447577-.06332935.0390652-.09508464.08059181-.09508464.12454016h-.0289388c-.05358633-.04394729-.09531138-.06614583-.12454017-.06614583v-.09508463c0-.02441575.29237093-.3174537.87694902-.8790162zm.15347896.19068626c.0341003 0 .07582535.04152662.12454017.12454017 0 .02441575-.29237093.3174537-.87694901.87901593-.02922878 0-.07095384-.04152661-.12454017-.12454016 0-.02441575.29237093-.3174537.87694901-.87901594zm.16071374.16123047c.02435754 0 .07553537.05093282.15347897.15347897-.05358633 0-.19951356.1368544-.43821614.4103108-.27767438.292989-.44590414.43976633-.50436197.43976633l-.08733314-.12454017c0-.0292989.2918542-.32233684.87643228-.87901593zm.15347897.1829345h.06614583c.03897127.0097663.05839434.03196378.05839434.06614583v.05839434c0 .0292989-.29237093.32468846-.87694902.8862507h-.02945553c0-.0390652-.03175529-.09286637-.09508463-.16123047l.876949-.8495604zm.19016927.12454017l.02945553.06614583c0 .02441575-.29237093.3169375-.87694901.8784992h-.02945553v-.05839433c0-.02441575.29237093-.31980531.876949-.8862507z" font-family="Electric Guitar Icons" font-size="14.98310661" font-weight="400" letter-spacing="0" style="line-height:1.25;-inkscape-font-specification:'Electric Guitar Icons'" word-spacing="0"/>
</svg>
