<?xml version="1.0" encoding="UTF-8" standalone="no"?>
<!-- Created with Inkscape (http://www.inkscape.org/) -->

<svg
   xmlns:dc="http://purl.org/dc/elements/1.1/"
   xmlns:cc="http://creativecommons.org/ns#"
   xmlns:rdf="http://www.w3.org/1999/02/22-rdf-syntax-ns#"
   xmlns:svg="http://www.w3.org/2000/svg"
   xmlns="http://www.w3.org/2000/svg"
   xmlns:sodipodi="http://sodipodi.sourceforge.net/DTD/sodipodi-0.dtd"
   xmlns:inkscape="http://www.inkscape.org/namespaces/inkscape"
   width="48"
   height="48"
   viewBox="0 0 12.7 12.7"
   version="1.1"
   id="svg829"
   inkscape:version="0.92.3 (2405546, 2018-03-11)"
   sodipodi:docname="hb-icon.svg">
  <defs
     id="defs823" />
  <sodipodi:namedview
     id="base"
     pagecolor="#ffffff"
     bordercolor="#666666"
     borderopacity="1.0"
     inkscape:pageopacity="0.0"
     inkscape:pageshadow="2"
     inkscape:zoom="3.9553786"
     inkscape:cx="20.586926"
     inkscape:cy="22.988719"
     inkscape:document-units="mm"
     inkscape:current-layer="layer1"
     showgrid="false"
     showguides="true"
     inkscape:guide-bbox="true"
     inkscape:window-width="1366"
     inkscape:window-height="719"
     inkscape:window-x="0"
     inkscape:window-y="25"
     inkscape:window-maximized="1"
     scale-x="1.9"
     units="px"
     inkscape:snap-global="false" />
  <metadata
     id="metadata826">
    <rdf:RDF>
      <cc:Work
         rdf:about="">
        <dc:format>image/svg+xml</dc:format>
        <dc:type
           rdf:resource="http://purl.org/dc/dcmitype/StillImage" />
        <dc:title></dc:title>
      </cc:Work>
    </rdf:RDF>
  </metadata>
  <g
     inkscape:label="Capa 1"
     inkscape:groupmode="layer"
     id="layer1"
     transform="translate(0,-284.3)">
    <path
       style="fill:#e6e6e6;fill-opacity:1;stroke-width:0.52516764"
       d="M 23.978516 0.27539062 A 23.770509 23.770509 0 0 0 0.20703125 24.046875 A 23.770509 23.770509 0 0 0 23.978516 47.816406 A 23.770509 23.770509 0 0 0 47.748047 24.046875 A 23.770509 23.770509 0 0 0 23.978516 0.27539062 z M 23.910156 3.8144531 A 20.436071 20.436071 0 0 1 40.884766 12.900391 C 40.789452 12.848133 40.656565 12.808576 40.441406 12.804688 C 36.587548 12.732461 34.150391 15.882813 34.150391 15.882812 C 32.994292 14.342732 30.550218 13.523366 29.050781 13.148438 C 28.364101 12.976923 28.290936 13.136005 28.769531 13.558594 C 28.785443 13.573712 28.799146 13.588271 28.814453 13.599609 C 28.889118 13.607168 28.949792 13.617948 29.050781 13.640625 C 30.550218 14.015138 32.994292 14.832965 34.150391 16.373047 C 34.150391 16.373047 36.587548 13.222733 40.441406 13.294922 C 40.597463 13.297945 40.715542 13.3212 40.808594 13.347656 C 40.950711 13.242352 40.998462 13.145383 40.998047 13.058594 A 20.436071 20.436071 0 0 1 42.580078 16.001953 C 41.145311 15.142618 39.799246 14.89102 38.722656 14.894531 C 37.354192 14.90039 36.447781 15.296006 36.302734 15.363281 C 36.275219 15.530828 36.256998 15.702024 36.253906 15.878906 C 36.253906 15.878906 39.33297 14.352395 42.882812 16.677734 A 20.436071 20.436071 0 0 1 44.345703 24.25 A 20.436071 20.436071 0 0 1 23.910156 44.685547 A 20.436071 20.436071 0 0 1 3.4726562 24.25 A 20.436071 20.436071 0 0 1 23.910156 3.8144531 z M 26.087891 14.068359 L 6.5039062 14.113281 L 15.072266 26.814453 L 15.072266 36.673828 L 11.400391 36.673828 L 11.400391 37.65625 L 21.193359 37.65625 L 21.193359 36.673828 L 17.519531 36.673828 L 17.519531 26.875 L 26.087891 14.068359 z M 27.880859 14.714844 C 27.234575 14.685855 27.188998 14.909963 27.580078 15.21875 C 27.662695 15.208092 27.756619 15.203252 27.880859 15.207031 C 28.579781 15.238439 29.533996 15.389173 30.679688 15.839844 C 30.679688 15.839844 30.620187 15.622353 30.503906 15.287109 C 29.438388 14.890259 28.542448 14.7413 27.880859 14.714844 z M 30.501953 18.009766 A 9.2115627 10.420387 44.855071 0 0 27.9375 18.460938 L 28.34375 19.033203 C 28.585943 19.374494 29.118671 19.488307 29.539062 19.291016 L 31.056641 18.580078 C 31.319298 18.456639 31.456683 18.239246 31.476562 18.011719 A 9.2115627 10.420387 44.855071 0 0 30.501953 18.009766 z M 33.482422 18.355469 C 33.305275 18.572867 33.275872 18.855389 33.447266 19.097656 L 34.320312 20.330078 C 34.562511 20.671369 35.095231 20.789088 35.515625 20.591797 L 36.650391 20.058594 A 9.2115627 10.420387 44.855071 0 0 33.482422 18.355469 z M 27.125 18.742188 A 9.2115627 10.420387 44.855071 0 0 24.255859 20.404297 L 24.548828 20.816406 C 24.791015 21.157698 25.323748 21.273463 25.744141 21.076172 L 27.261719 20.361328 C 27.68207 20.163848 27.826184 19.729963 27.583984 19.388672 L 27.125 18.742188 z M 31.822266 19.105469 C 31.709428 19.116807 31.59728 19.145802 31.492188 19.195312 L 29.976562 19.90625 C 29.556204 20.103693 29.410144 20.537615 29.652344 20.878906 L 30.527344 22.115234 C 30.769525 22.456526 31.302265 22.570338 31.722656 22.373047 L 33.240234 21.660156 C 33.66059 21.462676 33.804696 21.028791 33.5625 20.6875 L 32.689453 19.455078 C 32.568274 19.283866 32.374857 19.170291 32.158203 19.123047 L 32.158203 19.125 C 32.050124 19.102323 31.935103 19.09413 31.822266 19.105469 z M 37.228516 20.607422 L 35.953125 21.207031 C 35.53277 21.404512 35.390625 21.838396 35.632812 22.179688 L 36.507812 23.412109 C 36.750011 23.753401 37.282733 23.869166 37.703125 23.671875 L 38.869141 23.125 A 9.2115627 10.420387 44.855071 0 0 37.228516 20.609375 L 37.228516 20.607422 z M 28.029297 20.886719 C 27.916459 20.898057 27.804312 20.929382 27.699219 20.978516 L 26.181641 21.693359 C 25.761285 21.890764 25.619128 22.322772 25.861328 22.664062 L 26.734375 23.894531 C 26.976568 24.235823 27.511248 24.353541 27.931641 24.15625 L 29.447266 23.443359 C 29.867621 23.245879 30.011731 22.811994 29.769531 22.470703 L 28.894531 21.236328 C 28.774098 21.065493 28.579837 20.953116 28.363281 20.90625 C 28.255198 20.883573 28.142135 20.87538 28.029297 20.886719 z M 23.625 20.9375 A 9.2115627 10.420387 44.855071 0 0 21.927734 22.861328 C 21.934424 22.857019 21.944444 22.856766 21.951172 22.853516 L 23.46875 22.142578 C 23.889105 21.945098 24.0332 21.511213 23.791016 21.169922 L 23.625 20.9375 z M 34.009766 22.185547 C 33.896926 22.196885 33.782828 22.226257 33.677734 22.275391 L 32.160156 22.990234 C 31.739816 23.187677 31.597655 23.621599 31.839844 23.962891 L 32.712891 25.195312 C 32.955073 25.536604 33.487811 25.652369 33.908203 25.455078 L 35.427734 24.740234 C 35.84809 24.542792 35.990247 24.108869 35.748047 23.767578 L 34.875 22.535156 C 34.754433 22.363944 34.559792 22.252322 34.34375 22.205078 C 34.235663 22.182401 34.122603 22.174208 34.009766 22.185547 z M 24.236328 22.666016 L 24.236328 22.667969 C 24.123385 22.679685 24.011332 22.710632 23.90625 22.759766 L 22.388672 23.470703 C 21.968324 23.668183 21.824169 24.102068 22.066406 24.443359 L 22.941406 25.675781 C 23.183593 26.017073 23.716325 26.130885 24.136719 25.933594 L 25.654297 25.222656 C 26.074637 25.025252 26.218747 24.591291 25.976562 24.25 L 25.101562 23.019531 C 24.981501 22.850208 24.786894 22.732791 24.572266 22.685547 L 24.570312 22.685547 C 24.462835 22.66287 24.348573 22.654677 24.236328 22.666016 z M 39.125 23.826172 L 38.140625 24.289062 C 37.720289 24.486543 37.576163 24.920427 37.818359 25.261719 L 38.693359 26.494141 C 38.873424 26.747747 39.212979 26.877766 39.548828 26.84375 A 9.2115627 10.420387 44.855071 0 0 39.125 23.826172 z M 30.214844 23.964844 C 30.101896 23.97656 29.991801 24.007507 29.886719 24.056641 L 28.369141 24.769531 C 27.948785 24.966936 27.80469 25.400896 28.046875 25.742188 L 28.919922 26.972656 C 29.162115 27.313948 29.696794 27.429713 30.117188 27.232422 L 31.632812 26.521484 C 32.053168 26.324042 32.197274 25.890119 31.955078 25.548828 L 31.082031 24.314453 C 30.961464 24.143996 30.767431 24.027335 30.550781 23.980469 L 30.550781 23.982422 C 30.442702 23.959745 30.327791 23.953505 30.214844 23.964844 z M 20.951172 24.537109 A 9.2115627 10.420387 44.855071 0 0 20.431641 25.802734 A 9.2115627 10.420387 44.855071 0 0 19.990234 27.804688 C 20.11079 27.794861 20.2316 27.76971 20.34375 27.716797 L 21.861328 27.003906 C 22.281687 26.806464 22.425793 26.372541 22.183594 26.03125 L 21.308594 24.798828 C 21.222814 24.677883 21.091963 24.597582 20.951172 24.537109 z M 36.195312 25.261719 C 36.082366 25.273435 35.968363 25.304004 35.863281 25.353516 L 34.345703 26.066406 C 33.925348 26.263849 33.783191 26.695818 34.025391 27.037109 L 34.900391 28.271484 C 35.14259 28.612776 35.675309 28.730494 36.095703 28.533203 L 37.615234 27.818359 C 38.035544 27.620879 38.177739 27.186994 37.935547 26.845703 L 37.058594 25.611328 C 36.93731 25.441627 36.746808 25.328872 36.53125 25.28125 C 36.423167 25.258573 36.30826 25.252333 36.195312 25.263672 L 36.195312 25.261719 z M 26.423828 25.746094 C 26.310881 25.75781 26.196879 25.786426 26.091797 25.835938 L 24.574219 26.548828 C 24.153863 26.746271 24.011718 27.180193 24.253906 27.521484 L 25.128906 28.755859 C 25.371092 29.097151 25.903825 29.212916 26.324219 29.015625 L 27.841797 28.300781 C 28.262152 28.103301 28.404305 27.671369 28.162109 27.330078 L 27.287109 26.095703 C 27.16593 25.925624 26.972513 25.810916 26.755859 25.763672 L 26.755859 25.765625 C 26.64778 25.742948 26.536776 25.734755 26.423828 25.746094 z M 32.402344 27.044922 C 32.2894 27.056638 32.175395 27.085632 32.070312 27.134766 L 30.554688 27.849609 C 30.134332 28.047052 29.990234 28.479022 30.232422 28.820312 L 31.105469 30.050781 C 31.347649 30.392073 31.88234 30.507838 32.302734 30.310547 L 33.820312 29.599609 C 34.240649 29.402129 34.384766 28.968244 34.142578 28.626953 L 33.267578 27.394531 C 33.145786 27.223319 32.952978 27.107413 32.736328 27.060547 C 32.628245 27.03787 32.515291 27.033583 32.402344 27.044922 z M 22.628906 27.529297 C 22.516068 27.540635 22.403922 27.571582 22.298828 27.621094 L 20.78125 28.332031 C 20.360891 28.529474 20.216796 28.963396 20.458984 29.304688 L 21.333984 30.537109 C 21.576195 30.878401 22.108904 30.992213 22.529297 30.794922 L 24.050781 30.083984 C 24.471125 29.886504 24.613278 29.452619 24.371094 29.111328 L 23.498047 27.880859 C 23.376869 27.710025 23.183451 27.596072 22.966797 27.548828 L 22.962891 27.546875 C 22.854811 27.524198 22.741744 27.517958 22.628906 27.529297 z M 38.380859 28.341797 L 38.380859 28.34375 C 38.267927 28.355467 38.157805 28.386035 38.052734 28.435547 L 36.533203 29.146484 C 36.112848 29.343965 35.968738 29.777849 36.210938 30.119141 L 37.087891 31.351562 C 37.327288 31.688696 37.849577 31.805407 38.267578 31.617188 A 9.2115627 10.420387 44.855071 0 0 39.037109 29.841797 A 9.2115627 10.420387 44.855071 0 0 39.316406 28.789062 L 39.25 28.695312 C 39.128405 28.524479 38.935317 28.408572 38.71875 28.361328 L 38.716797 28.361328 C 38.608665 28.338651 38.493792 28.330458 38.380859 28.341797 z M 28.607422 28.828125 C 28.494584 28.839464 28.38439 28.868835 28.279297 28.917969 L 26.761719 29.628906 C 26.341363 29.826349 26.197265 30.260272 26.439453 30.601562 L 27.3125 31.833984 C 27.554699 32.175276 28.089372 32.292994 28.509766 32.095703 L 30.025391 31.382812 C 30.44575 31.185333 30.589852 30.751448 30.347656 30.410156 L 29.476562 29.177734 C 29.355384 29.006522 29.160742 28.890994 28.945312 28.84375 L 28.943359 28.847656 C 28.83528 28.824979 28.72026 28.816786 28.607422 28.828125 z M 19.96875 30.037109 A 9.2115627 10.420387 44.855071 0 0 20.337891 31.804688 C 20.683657 31.590275 20.799115 31.207035 20.576172 30.892578 L 19.96875 30.037109 z M 34.587891 30.125 L 34.587891 30.126953 C 34.475053 30.138292 34.360953 30.169616 34.255859 30.21875 L 32.738281 30.929688 C 32.317926 31.127167 32.175784 31.561052 32.417969 31.902344 L 33.292969 33.134766 C 33.535161 33.476057 34.067889 33.589869 34.488281 33.392578 L 36.007812 32.679688 C 36.428168 32.482245 36.57031 32.048323 36.328125 31.707031 L 35.451172 30.474609 C 35.330066 30.303775 35.136084 30.191775 34.919922 30.144531 C 34.811843 30.121854 34.700728 30.113661 34.587891 30.125 z M 24.814453 30.607422 L 24.814453 30.609375 C 24.701615 30.620714 24.589469 30.650085 24.484375 30.699219 L 22.966797 31.412109 C 22.546442 31.60959 22.404296 32.043474 22.646484 32.384766 L 23.519531 33.619141 C 23.761731 33.960432 24.296405 34.074244 24.716797 33.876953 L 26.234375 33.164062 C 26.65473 32.966621 26.796871 32.532698 26.554688 32.191406 L 25.681641 30.960938 C 25.560461 30.789347 25.368998 30.674197 25.152344 30.626953 L 25.148438 30.626953 C 25.040358 30.604276 24.927291 30.596083 24.814453 30.607422 z M 30.794922 31.908203 C 30.682084 31.919542 30.567984 31.94696 30.462891 31.996094 L 28.947266 32.710938 C 28.526907 32.908417 28.382815 33.342302 28.625 33.683594 L 29.498047 34.916016 C 29.740238 35.257307 30.272966 35.373073 30.693359 35.175781 L 32.212891 34.462891 C 32.633246 34.265486 32.777352 33.831526 32.535156 33.490234 L 31.660156 32.257812 C 31.539051 32.086979 31.345069 31.972647 31.128906 31.925781 C 31.020823 31.903104 30.90776 31.896865 30.794922 31.908203 z M 21.021484 32.390625 C 20.909257 32.402115 20.795925 32.433557 20.691406 32.482422 L 20.599609 32.525391 A 9.2115627 10.420387 44.855071 0 0 22.238281 35.041016 L 22.439453 34.947266 C 22.859808 34.749823 23.003907 34.315901 22.761719 33.974609 L 21.888672 32.740234 C 21.768717 32.569022 21.574076 32.457022 21.357422 32.410156 L 21.355469 32.410156 C 21.248019 32.387611 21.135609 32.379571 21.023438 32.390625 L 21.021484 32.390625 z M 36.773438 33.207031 L 36.773438 33.208984 C 36.6606 33.220323 36.550406 33.249316 36.445312 33.298828 L 34.925781 34.011719 C 34.50543 34.209123 34.361316 34.643084 34.603516 34.984375 L 34.941406 35.460938 A 9.2115627 10.420387 44.855071 0 0 37.189453 33.259766 C 37.161129 33.248427 37.138629 33.232168 37.109375 33.224609 C 37.001296 33.201932 36.886274 33.195693 36.773438 33.207031 z M 27 33.689453 L 27 33.691406 C 26.887162 33.702745 26.776969 33.732116 26.671875 33.78125 L 25.154297 34.494141 C 24.733942 34.691545 24.587878 35.125506 24.830078 35.466797 L 25.705078 36.699219 C 25.947264 37.04051 26.48195 37.156276 26.902344 36.958984 L 28.417969 36.244141 C 28.838309 36.046698 28.982419 35.612776 28.740234 35.271484 L 27.869141 34.039062 C 27.747558 33.868229 27.552492 33.755851 27.335938 33.708984 C 27.227851 33.686307 27.112838 33.678115 27 33.689453 z M 32.980469 34.986328 L 32.980469 34.988281 C 32.867627 34.99962 32.75353 35.028613 32.648438 35.078125 L 31.130859 35.792969 C 30.710504 35.990411 30.568347 36.424334 30.810547 36.765625 L 31.1875 37.298828 A 9.2115627 10.420387 44.855071 0 0 34.261719 35.921875 L 33.845703 35.337891 C 33.724525 35.167056 33.532448 35.053103 33.316406 35.005859 L 33.3125 35.005859 C 33.204421 34.983182 33.093307 34.97499 32.980469 34.986328 z M 23.207031 35.472656 C 23.094084 35.484373 22.982035 35.515319 22.876953 35.564453 L 22.816406 35.591797 A 9.2115627 10.420387 44.855071 0 0 24.822266 36.878906 L 24.072266 35.822266 C 23.95116 35.651431 23.757193 35.537101 23.541016 35.490234 C 23.432932 35.467557 23.319979 35.461318 23.207031 35.472656 z M 29.1875 36.769531 C 29.074553 36.781248 28.960551 36.812194 28.855469 36.861328 L 27.339844 37.576172 C 27.336858 37.577155 27.335017 37.57868 27.332031 37.580078 A 9.2115627 10.420387 44.855071 0 0 30.314453 37.490234 L 30.054688 37.119141 C 29.932897 36.949062 29.740087 36.832022 29.523438 36.785156 L 29.521484 36.789062 C 29.413405 36.766386 29.300447 36.758193 29.1875 36.769531 z "
       transform="matrix(0.26458333,0,0,0.26458333,0,284.3)"
       id="path829" />
  </g>
</svg>
