<svg xmlns="http://www.w3.org/2000/svg" width="48" height="48" viewBox="0 0 12.7 12.7">
  <path fill="#e6e6e6" d="M6.34431561.07286377a6.28928043 6.28928043 0 0 0-6.2895386 6.2895385 6.28928043 6.28928043 0 0 0 6.2895386 6.28902166 6.28928043 6.28928043 0 0 0 6.28902167-6.28902167A6.28928043 6.28928043 0 0 0 6.3443156.07286376zm-.01808691.93637693a5.40704372 5.40704372 0 0 1 5.40690507 5.40690505 5.40704372 5.40704372 0 0 1-5.40690507 5.40690508A5.40704372 5.40704372 0 0 1 .91880694 6.41614575 5.40704372 5.40704372 0 0 1 6.3262287 1.0092407zm.05839433 1.18855793c-.3513164-.0171128-.69645212.24718706-.74259016.60616448-.00875003.0515001-.01240234.10388283-.01240234.1560629.17070467 1.66745997.36629525 3.32357778.51159674 4.99762773h.46353756c.12053437-1.60759006.3150317-3.2055559.45526933-4.81107585.07148883-.38018005-.1235681-.83161456-.52503255-.92397457-.04958715-.0144975-.1001903-.02236-.15037858-.02480469zm-.0501261 6.77219644c-.16893514.00060748-.33608592.05650918-.46715495.17621647-.17668107.1451602-.29404256.36192221-.28835429.5937623-.0180512.49633001.52793794.88494419.99425441.72760415.4516403-.11528001.68984521-.6827086.45836999-1.08623866-.12950375-.26068734-.41555643-.41235708-.69711517-.41134426z"/>
</svg>
