<svg xmlns="http://www.w3.org/2000/svg" width="48" height="48" viewBox="0 0 12.7 12.7">
  <path fill="#e6e6e6" d="M6.34431561.07286377a6.28928043 6.28928043 0 0 0-6.2895386 6.2895385 6.28928043 6.28928043 0 0 0 6.2895386 6.28902166 6.28928043 6.28928043 0 0 0 6.28902167-6.28902167A6.28928043 6.28928043 0 0 0 6.3443156.07286376zm-.01808691.93637693a5.40704372 5.40704372 0 0 1 5.40690507 5.40690505 5.40704372 5.40704372 0 0 1-5.40690507 5.40690508A5.40704372 5.40704372 0 0 1 .91880694 6.41614575 5.40704372 5.40704372 0 0 1 6.3262287 1.0092407zM5.17332747 2.18126217l-2.09289541.12402344v.4867919h.54260246c.41861105 0 .48679206.07832354.48679206.56482349v6.22339256c0 .45252005-.12444201.53123385-.84852695.53123385h-.04547526v.40721015h2.86235745v-.40721015H6.0332233c-.73539851 0-.85989582-.07868364-.85989582-.53123385v-1.6185057c0-.56567996.07915328-1.0740755.20360534-1.33428554.23759028-.50911997.74650493-.86041255 1.2329996-.86041255.29415977 0 .63386095.17007813.8035684.39635826.16970878.24892.24856361.5876491.24856361 1.14204908v2.27479645c0 .45252005-.12449704.53123385-.85989582.53123385h-.04495853v.40721015h2.86235771v-.40721015h-.04495853c-.7240852 0-.84852694-.07868364-.84852694-.53123385V7.35097236c0-.81459994-.03406272-1.0178182-.23771171-1.40249828-.28284593-.54305993-.84872538-.8712647-1.5275552-.8712647-.7240852 0-1.27836557.33906062-1.78748793 1.0970908v-3.993038z"/>
</svg>
