<?xml version="1.0" encoding="UTF-8" standalone="no"?>
<!-- Created with Inkscape (http://www.inkscape.org/) -->

<svg
   xmlns:dc="http://purl.org/dc/elements/1.1/"
   xmlns:cc="http://creativecommons.org/ns#"
   xmlns:rdf="http://www.w3.org/1999/02/22-rdf-syntax-ns#"
   xmlns:svg="http://www.w3.org/2000/svg"
   xmlns="http://www.w3.org/2000/svg"
   xmlns:sodipodi="http://sodipodi.sourceforge.net/DTD/sodipodi-0.dtd"
   xmlns:inkscape="http://www.inkscape.org/namespaces/inkscape"
   width="48"
   height="48"
   viewBox="0 0 12.7 12.7"
   version="1.1"
   id="svg829"
   inkscape:version="0.92.3 (2405546, 2018-03-11)"
   sodipodi:docname="hwbrowser.svg">
  <defs
     id="defs823">
    <clipPath
       clipPathUnits="userSpaceOnUse"
       id="clipPath927">
      <g
         id="use929"
         inkscape:label="Clip">
        <path
           inkscape:connector-curvature="0"
           style="fill:#2ca089;stroke-width:0.04113208"
           d="m -5.7439193,283.47477 -10.9563497,10.95625 0.303419,0.30344 0.772914,-0.77193 0.772904,0.77193 -0.772904,0.77291 1.158933,1.15899 0.772903,-0.77206 0.772915,0.77206 -0.772915,0.7729 0.386017,0.38597 10.9563553,-10.95542 z m -0.6077207,1.2145 0.7729092,0.7729 -0.7729092,0.77303 -0.7720389,-0.77303 z m -1.5449483,1.54593 0.7729094,0.77193 -0.7729094,0.77291 -0.7729089,-0.77291 z m 3.4767859,0.38596 0.772909,0.7729 -0.772909,0.77291 -0.7720391,-0.77291 z m -5.0226039,1.15888 0.7729091,0.7729 -0.7729091,0.7729 -0.7729097,-0.7729 z m 3.4776558,0.38693 0.772909,0.77205 -0.772909,0.77291 -0.7729089,-0.77291 z m -5.0226005,1.15887 0.772035,0.7729 -0.772035,0.77206 -0.772914,-0.77206 z m 3.4767826,0.38609 0.772909,0.7729 -0.772909,0.7729 -0.7729089,-0.7729 z m -5.0225996,1.15887 0.772903,0.77291 -0.772903,0.7729 -0.772915,-0.7729 z m 3.4776512,0.38693 0.7720395,0.77291 -0.7720395,0.77205 -0.7729089,-0.77205 z m -5.0234692,1.15888 0.772903,0.7729 -0.772903,0.77302 -0.772046,-0.77302 z m 3.477653,0.38608 0.7729073,0.77291 -0.7729073,0.7729 -0.772915,-0.7729 z m -1.545818,1.54581 0.772903,0.7729 -0.772903,0.77291 -0.772034,-0.77291 z"
           id="path970" />
        <path
           inkscape:connector-curvature="0"
           style="fill:#1a1a1a;fill-opacity:1;stroke-width:0.1389506"
           d="m -9.5487714,285.30924 a 5.4070438,5.4070438 0 0 1 5.4069053,5.40691 5.4070438,5.4070438 0 0 1 -5.4069053,5.4069 5.4070438,5.4070438 0 0 1 -5.4074216,-5.4069 5.4070438,5.4070438 0 0 1 5.4074216,-5.40691 z"
           id="path972" />
      </g>
    </clipPath>
    <clipPath
       clipPathUnits="userSpaceOnUse"
       id="clipPath944">
      <g
         inkscape:label="Clip"
         id="use946"
         transform="translate(0,-3.9583333e-6)">
        <g
           clip-path="url(#clipPath927)"
           id="g959">
          <g
             id="g957"
             inkscape:label="Clip">
            <path
               inkscape:connector-curvature="0"
               style="fill:#2ca089;stroke-width:0.04113208"
               d="m -5.7439193,283.47477 -10.9563497,10.95625 0.303419,0.30344 0.772914,-0.77193 0.772904,0.77193 -0.772904,0.77291 1.158933,1.15899 0.772903,-0.77206 0.772915,0.77206 -0.772915,0.7729 0.386017,0.38597 10.9563553,-10.95542 z m -0.6077207,1.2145 0.7729092,0.7729 -0.7729092,0.77303 -0.7720389,-0.77303 z m -1.5449483,1.54593 0.7729094,0.77193 -0.7729094,0.77291 -0.7729089,-0.77291 z m 3.4767859,0.38596 0.772909,0.7729 -0.772909,0.77291 -0.7720391,-0.77291 z m -5.0226039,1.15888 0.7729091,0.7729 -0.7729091,0.7729 -0.7729097,-0.7729 z m 3.4776558,0.38693 0.772909,0.77205 -0.772909,0.77291 -0.7729089,-0.77291 z m -5.0226005,1.15887 0.772035,0.7729 -0.772035,0.77206 -0.772914,-0.77206 z m 3.4767826,0.38609 0.772909,0.7729 -0.772909,0.7729 -0.7729089,-0.7729 z m -5.0225996,1.15887 0.772903,0.77291 -0.772903,0.7729 -0.772915,-0.7729 z m 3.4776512,0.38693 0.7720395,0.77291 -0.7720395,0.77205 -0.7729089,-0.77205 z m -5.0234692,1.15888 0.772903,0.7729 -0.772903,0.77302 -0.772046,-0.77302 z m 3.477653,0.38608 0.7729073,0.77291 -0.7729073,0.7729 -0.772915,-0.7729 z m -1.545818,1.54581 0.772903,0.7729 -0.772903,0.77291 -0.772034,-0.77291 z"
               id="path953" />
            <path
               inkscape:connector-curvature="0"
               style="fill:#1a1a1a;fill-opacity:1;stroke-width:0.1389506"
               d="m -9.5487714,285.30924 a 5.4070438,5.4070438 0 0 1 5.4069053,5.40691 5.4070438,5.4070438 0 0 1 -5.4069053,5.4069 5.4070438,5.4070438 0 0 1 -5.4074216,-5.4069 5.4070438,5.4070438 0 0 1 5.4074216,-5.40691 z"
               id="path955" />
          </g>
        </g>
      </g>
    </clipPath>
    <clipPath
       clipPathUnits="userSpaceOnUse"
       id="clipPath978">
      <path
         inkscape:connector-curvature="0"
         style="fill:#1a1a1a;fill-opacity:1;stroke-width:0.1389506"
         d="m -9.5487715,285.30924 a 5.4070438,5.4070438 0 0 1 5.4069054,5.40691 5.4070438,5.4070438 0 0 1 -5.4069054,5.4069 5.4070438,5.4070438 0 0 1 -5.4074215,-5.4069 5.4070438,5.4070438 0 0 1 5.4074215,-5.40691 z"
         id="path980" />
    </clipPath>
  </defs>
  <sodipodi:namedview
     id="base"
     pagecolor="#ffffff"
     bordercolor="#666666"
     borderopacity="1.0"
     inkscape:pageopacity="0.0"
     inkscape:pageshadow="2"
     inkscape:zoom="7.8812943"
     inkscape:cx="24"
     inkscape:cy="24"
     inkscape:document-units="mm"
     inkscape:current-layer="layer1"
     showgrid="false"
     showguides="true"
     inkscape:guide-bbox="true"
     inkscape:window-width="1366"
     inkscape:window-height="714"
     inkscape:window-x="0"
     inkscape:window-y="25"
     inkscape:window-maximized="1"
     scale-x="1.9"
     units="px"
     inkscape:snap-global="true" />
  <metadata
     id="metadata826">
    <rdf:RDF>
      <cc:Work
         rdf:about="">
        <dc:format>image/svg+xml</dc:format>
        <dc:type
           rdf:resource="http://purl.org/dc/dcmitype/StillImage" />
        <dc:title></dc:title>
      </cc:Work>
    </rdf:RDF>
  </metadata>
  <g
     inkscape:label="Capa 1"
     inkscape:groupmode="layer"
     id="layer1"
     transform="translate(0,-284.3)">
    <path
       style="fill:#1a1a1a;fill-opacity:1;stroke-width:0.52516764"
       d="M 23.978516 0.27539062 A 23.770509 23.770509 0 0 0 0.20703125 24.046875 A 23.770509 23.770509 0 0 0 23.978516 47.816406 A 23.770509 23.770509 0 0 0 47.748047 24.046875 A 23.770509 23.770509 0 0 0 23.978516 0.27539062 z M 23.910156 3.8144531 A 20.436071 20.436071 0 0 1 44.345703 24.25 A 20.436071 20.436071 0 0 1 23.910156 44.685547 A 20.436071 20.436071 0 0 1 3.4726562 24.25 A 20.436071 20.436071 0 0 1 23.910156 3.8144531 z M 16.146484 10.539062 L 10.710938 10.541016 L 10.710938 26.615234 L 19.853516 30.638672 L 20.021484 30.433594 C 20.421531 29.938438 21.015607 29.656288 21.648438 29.65625 C 22.80889 29.65625 23.755859 30.612155 23.755859 31.789062 C 23.755859 32.964949 22.808946 33.923828 21.648438 33.923828 C 20.607321 33.923828 19.713151 33.135249 19.566406 32.091797 L 19.537109 31.898438 L 10.710938 28.015625 L 10.710938 37.460938 L 37.289062 37.460938 L 37.289062 10.541016 L 33.130859 10.541016 L 33.130859 18.681641 L 33.287109 18.787109 C 33.857555 19.160527 34.197266 19.793703 34.197266 20.478516 C 34.197266 21.590264 33.303696 22.492188 32.207031 22.492188 C 31.110366 22.492188 30.216797 21.590226 30.216797 20.478516 C 30.216797 19.60809 30.766917 18.840044 31.582031 18.566406 L 31.818359 18.486328 L 31.818359 10.541016 L 17.421875 10.541016 L 17.421875 19.46875 L 21.71875 19.46875 L 21.802734 19.244141 C 22.104352 18.438383 22.877154 17.894531 23.724609 17.894531 C 24.860959 17.894531 25.78125 18.831795 25.78125 19.980469 C 25.78125 21.129181 24.860959 22.0625 23.724609 22.0625 C 22.960504 22.0625 22.263474 21.637055 21.90625 20.949219 L 21.806641 20.761719 L 16.146484 20.761719 L 16.146484 10.539062 z M 23.699219 19.039062 A 1.042462 1.0559057 0 0 0 22.65625 20.09375 A 1.042462 1.0559057 0 0 0 23.699219 21.150391 A 1.042462 1.0559057 0 0 0 24.742188 20.09375 A 1.042462 1.0559057 0 0 0 23.699219 19.039062 z M 32.207031 19.443359 A 1.0420136 1.0554514 0 0 0 31.166016 20.498047 A 1.0420136 1.0554514 0 0 0 32.207031 21.556641 A 1.0420136 1.0554514 0 0 0 33.248047 20.498047 A 1.0420136 1.0554514 0 0 0 32.207031 19.443359 z M 30.693359 25.166016 A 5.5865374 5.6301823 0 0 1 36.279297 30.796875 A 5.5865374 5.6301823 0 0 1 30.693359 36.425781 A 5.5865374 5.6301823 0 0 1 25.107422 30.796875 A 5.5865374 5.6301823 0 0 1 30.693359 25.166016 z M 31.474609 27.054688 C 30.767976 27.020672 30.398833 27.997253 31.070312 28.263672 C 31.615088 28.45416 32.20925 27.977241 32.076172 27.5 C 32.034884 27.251307 31.772601 27.046373 31.474609 27.054688 z M 31.171875 29.197266 C 31.058066 29.189707 30.923822 29.228407 30.779297 29.318359 C 30.086715 29.576501 29.508983 29.995661 28.904297 30.373047 C 28.980186 30.549551 29.066082 30.69307 29.248047 30.498047 C 29.47362 30.383527 30.229904 29.881104 30.154297 30.373047 C 29.912286 31.284442 29.617815 32.185417 29.392578 33.099609 C 29.157061 33.60017 29.689658 34.052093 30.248047 33.726562 C 30.84159 33.517555 31.353241 33.177764 31.875 32.865234 C 31.803813 32.716321 31.75726 32.499533 31.560547 32.695312 C 31.302254 32.79547 30.73764 33.268424 30.632812 32.878906 C 30.849776 31.892034 31.250858 30.941788 31.507812 29.962891 C 31.685163 29.625379 31.513314 29.221266 31.171875 29.197266 z M 21.595703 30.746094 C 21.022511 30.746094 20.554688 31.219301 20.554688 31.800781 C 20.55469 32.384151 21.022511 32.857422 21.595703 32.857422 C 22.171641 32.857422 22.640625 32.384151 22.640625 31.800781 C 22.640625 31.219301 22.171584 30.746094 21.595703 30.746094 z "
       transform="matrix(0.26458333,0,0,0.26458333,0,284.3)"
       id="path862" />
  </g>
</svg>
