<svg xmlns="http://www.w3.org/2000/svg" width="48" height="48" viewBox="0 0 12.7 12.7">
  <defs>
    <clipPath id="a"/>
  </defs>
  <path fill="#e6e6e6" d="M6.34431561.07286377a6.28928043 6.28928043 0 0 0-6.2895386 6.2895385 6.28928043 6.28928043 0 0 0 6.2895386 6.28902166 6.28928043 6.28928043 0 0 0 6.28902167-6.28902167A6.28928043 6.28928043 0 0 0 6.3443156.07286376zm-.01808691.93637693a5.40704372 5.40704372 0 0 1 5.40690507 5.40690505 5.40704372 5.40704372 0 0 1-5.40690507 5.40690508A5.40704372 5.40704372 0 0 1 .91880694 6.41614575 5.40704372 5.40704372 0 0 1 6.3262287 1.0092407zM4.2720905 2.78846012l-1.43815486.000517v4.25297012l2.41897374 1.06453462.04444153-.05426022c.10584577-.13101002.26302837-.2056622.4304649-.20567226.30703626 0 .55758847.25291653.55758847.5643065 0 .3111201-.2505374.5648235-.55758846.5648235-.2754622 0-.51204468-.20864486-.55087096-.48472486l-.0077515-.05115957-2.33525772-1.0273276v2.49907237H9.8660642v-7.1225626H8.765873v2.15387367l.04134115.02790507c.1509305.09880018.24081237.266328.24081237.4475181 0 .29414998-.23642373.53278404-.526583.53278404-.29015929 0-.52658275-.2386441-.52658275-.53278404 0-.23030021.14555258-.43351238.36121816-.50591243l.06252845-.0211873V2.7889771H4.6095377v2.3621296h1.1368815l.02222076-.0594278c.0798031-.21319014.28427363-.3570843.5084961-.3570843.30065926 0 .54415292.24798442.54415292.55190441 0 .30393005-.24349366.5508707-.54415293.5508707-.20216944 0-.38659196-.11256566-.48110748-.2945556l-.02635488-.04960937H4.2720905V2.78846012zm1.99832778 2.2489583a.27581807.27937505 0 0 0-.27595221.27905287.27581807.27937505 0 0 0 .27595221.2795696.27581807.27937505 0 0 0 .27595221-.2795696.27581807.27937505 0 0 0-.2759522-.27905287zm2.25102523.10697025a.27569943.27925485 0 0 0-.27543521.27905286.27569943.27925485 0 0 0 .27543521.28008633.27569943.27925485 0 0 0 .27543548-.28008633.27569943.27925485 0 0 0-.27543548-.27905286zm-.40049238 1.51411965a1.47810467 1.48965238 0 0 1 1.47794608 1.48983142 1.47810467 1.48965238 0 0 1-1.47794608 1.4893147 1.47810467 1.48965238 0 0 1-1.47794581-1.4893147 1.47810467 1.48965238 0 0 1 1.47794581-1.48983142zm.20670573.49971112c-.18696331-.00900006-.2846324.24938699-.10697025.31987702.14413865.05039995.30134401-.07578487.2661338-.20205488-.01092413-.06580003-.08031983-.12002215-.15916355-.11782214zm-.08009837.56689043c-.03011196-.00199999-.06563069.00823938-.1038696.03203918-.18324565.06830007-.3361039.17920282-.49609374.27905287.02007897.04670001.04280562.08467275.09095052.03307291.05968286-.03030008.259783-.16323283.23977864-.03307291-.06403207.24113992-.14194419.47952289-.20153815.72140285-.06231387.1324401.07860242.25201139.22634284.16588131.15704158-.05529976.29241591-.1452028.43046464-.22789303-.01883489-.0393999-.03115204-.09675839-.08319902-.04495853-.06834002.02650014-.21772747.15163589-.24546321.04857592.05740505-.26110988.16352466-.51252913.23151041-.77152896.04692412-.08930005.00145574-.19622161-.08888333-.20257161zm-2.53369548.40979407c-.15165704 0-.27543521.12520268-.27543521.2790526 5.3e-7.15434997.12377817.27956959.27543521.27956959.1523836 0 .27646895-.12521962.27646895-.2795696 0-.15384991-.12410043-.2790526-.27646895-.2790526z"/>
</svg>
