<svg xmlns="http://www.w3.org/2000/svg" width="48" height="48" viewBox="0 0 12.7 12.7"><path fill="#e6e6e6" d="M6.344.073a6.29 6.29 0 0 0-6.29 6.29 6.29 6.29 0 0 0 6.29 6.288 6.29 6.29 0 0 0 6.29-6.289 6.29 6.29 0 0 0-6.29-6.29zm-.018.936a5.407 5.407 0 0 1 5.407 5.407 5.407 5.407 0 0 1-5.407 5.407A5.407 5.407 0 0 1 .92 6.416 5.407 5.407 0 0 1 6.326 1.01zm0 2.91A2.497 2.497 0 0 0 3.83 6.417a2.497 2.497 0 0 0 2.497 2.497 2.497 2.497 0 0 0 2.497-2.497A2.497 2.497 0 0 0 6.326 3.92zm-1.058.53a.91.91 0 0 1 .909.909.91.91 0 0 1-.91.909.91.91 0 0 1-.909-.91.91.91 0 0 1 .91-.908z"/></svg>