<svg xmlns="http://www.w3.org/2000/svg" width="48" height="48" viewBox="0 0 12.7 12.7"><path d="M6.344.072a6.29 6.29 0 0 0-6.29 6.29 6.29 6.29 0 0 0 6.29 6.289 6.29 6.29 0 0 0 6.29-6.29 6.29 6.29 0 0 0-6.29-6.29zm-.018.937a5.407 5.407 0 0 1 5.407 5.407 5.407 5.407 0 0 1-5.407 5.407A5.407 5.407 0 0 1 .92 6.416 5.407 5.407 0 0 1 6.326 1.01zm-3.19 1.579a.207.207 0 0 0-.207.208v6.323c0 .115.092.208.207.208h5.03l-.513-.514c-.149.089-.3.176-.467.23a2.292 2.292 0 0 1-1.6-.074 2.336 2.336 0 0 1-1.237-1.235c-.031-.073-.025-.162-.048-.24h-.735a.136.136 0 0 1-.135-.135V3.237c0-.075.06-.135.135-.135h5.317c.075 0 .135.06.135.135v4.122c0 .075-.06.136-.135.136h-.178c-.004.011-.002.025-.006.036a2.209 2.209 0 0 1-.24.489l1.06 1.054V2.796a.207.207 0 0 0-.206-.208H3.136zM6.493 4.72a2.124 2.124 0 0 0-2.118 2.117c0 1.166.954 2.117 2.12 2.117.444 0 .857-.139 1.198-.375l1.42 1.419a.385.385 0 1 0 .544-.545L8.238 8.035c.237-.34.375-.753.375-1.198A2.124 2.124 0 0 0 6.495 4.72h-.001zm.002.77a1.343 1.343 0 0 1 1.349 1.347c0 .75-.6 1.348-1.35 1.348a1.343 1.343 0 0 1-1.35-1.348c0-.747.6-1.347 1.35-1.347z" fill="#e6e6e6"/></svg>