<svg xmlns="http://www.w3.org/2000/svg" width="48" height="48" viewBox="0 0 12.7 12.7">
  <path fill="#e6e6e6" d="M6.34431561.07286377a6.28928043 6.28928043 0 0 0-6.2895386 6.2895385 6.28928043 6.28928043 0 0 0 6.2895386 6.28902166 6.28928043 6.28928043 0 0 0 6.28902167-6.28902167A6.28928043 6.28928043 0 0 0 6.3443156.07286376zm-.01808691.93637693a5.40704372 5.40704372 0 0 1 5.40690507 5.40690505 5.40704372 5.40704372 0 0 1-5.40690507 5.40690508A5.40704372 5.40704372 0 0 1 .91880694 6.41614575 5.40704372 5.40704372 0 0 1 6.3262287 1.0092407zm0 .4723226c-.35242368 0-.70532492.16943962-.97616777.5095296 0 0-3.44811358 4.35181936-3.46387119 4.37130936-.00924332.01145567-.01691145.02379557-.02532144.03565684-.00494229.0069678-.01029198.01351968-.01498616.02067057-.0034349.00523955-.00756534.01018117-.01085205.01550273-.0115485.01862588-.01929952.03853895-.0289388.0578776-.00809834.01620203-.01742128.03169736-.02428793.04857592-.01125146.02775955-.01877375.05652347-.02635498.08526621-.00405691.01525693-.00935403.02983283-.01240235.04547526-.00044564.00229526-.00164388.00441828-.00206705.00671777-.00794.04280006-.01192657.08646795-.0118856.12970801 0 .05855864.00937428.11454633.02273767.16898197.00304135.01228645.00714676.02402972.01085204.0361733.01351947.04455689.03114223.0867492.05270995.12712409.00389654.00731678.00513593.01552945.00930177.02273776h.00310057c.12303643.21133858.34918234.35501685.6113322.35501685H4.2147299c.1960962 0 .35501685.15892727.35501685.35501712 0 .19611022-.15892065.35501712-.35501685.35501712-.19609647 0-.35501712.15891721-.35501712.35501712 0 .19608006.15892065.35501712.35501712.35501712h1.42058494c.19609646 0 .35501712.15944373.35501712.35553385 0 .1960999-.15892066.35501711-.35501712.35501711-.39219372 0-.71055097.31783417-.71055097.71003424 0 .39219002.31835725.71003397.71055097.71003397h1.77508532c.19609647 0 .35501712-.15891695.35501712-.35501685 0-.19610017-.15892065-.35501712-.35501712-.35501712-.19609725 0-.35501685-.15892727-.35501685-.35501712 0-.19610017.1589196-.35501712.35501685-.35501712h1.0655681c.1960962 0 .35501711-.15891721.35501711-.35501711 0-.19609012-.15892092-.35553385-.35501712-.35553385-.19609646 0-.35501712-.15893706-.35501712-.35501712 0-.1960999.15892066-.35501712.35501712-.35501712h1.42006848c.5882886 0 1.06556808-.47672122 1.06556808-1.0650511 0-.0655095-.00754909-.13076025-.0196371-.1953371-.00192194-.0103542-.00346552-.02075894-.00568458-.03100573-.01256744-.05763048-.03052128-.11418728-.05270976-.1694987-.00561684-.01400333-.01138317-.02763916-.01757019-.04134114-.0070485-.01563264-.01283705-.0316767-.02067057-.04702545-.01150408-.02258166-.02716345-.04325065-.04030742-.06511237-.01309-.02161117-.02524363-.04350888-.03979095-.06407891-.00531945-.00753877-.00891514-.01582394-.01446953-.02325423-.03040989-.04070006-3.43544918-4.51496993-3.43544891-4.51496993-.269426-.35303-.62911778-.52968342-.9890871-.52968342zm-.02428796.41702879v.00051678c.06671522-.00063.13320792.03470198.18448496.09870196l1.39526352 1.74356282.59634622.74465735c.18537872.23158-.1196385.2959399-.22892676.3162599-.37288231.0691999-.59879917-.7360957-.97513403-.75292558-.5147519-.02310025-.99328815.93673161-1.38286144.90847147-.35265413-.02560003-.3215259-.944531-.6304526-.90537109-.23743126.03020007-.06634427.69918209-.3751707.80460214-.12406047.03430006-1.0664645-.09045336-.73897304-.40514322.01460104-.01869996.02970927-.03746077.04547526-.05736087.15791895-.19877008.3692152-.44898019.53278405-.6531901L6.1200397 1.99781083c.050469-.06299999.11623595-.09851874.18190104-.09921874zm-.6666259 5.61929505h1.06505135c.19609753 0 .35501712.15892727.35501712.35501712 0 .19611022-.1589196.35501712-.35501712.35501712H5.63531484c-.19609726 0-.35553385-.1589069-.35553385-.35501712 0-.19608985.15943659-.35501712.35553385-.35501712zm4.26072189 1.42006848a.35508692.35508692 0 0 0-.35501712.35553385.35508692.35508692 0 0 0 .35501712.35501711.35508692.35508692 0 0 0 .35501711-.35501711.35508692.35508692 0 0 0-.35501711-.35553385zm-5.68130683.88780116a.17754346.17754346 0 0 0-.1777672.17776692.17754346.17754346 0 0 0 .1777672.1772502.17754346.17754346 0 0 0 .17776666-.1772502.17754346.17754346 0 0 0-.17776666-.17776692zm4.97127259 0a.17754346.17754346 0 0 0-.17776693.17776692.17754346.17754346 0 0 0 .17776693.1772502.17754346.17754346 0 0 0 .17776692-.1772502.17754346.17754346 0 0 0-.17776692-.17776692z"/>
</svg>
