<svg xmlns="http://www.w3.org/2000/svg" width="48" height="48" viewBox="0 0 12.7 12.7">
  <path fill="#e6e6e6" d="M6.34431561.07286377a6.28928043 6.28928043 0 0 0-6.2895386 6.2895385 6.28928043 6.28928043 0 0 0 6.2895386 6.28902166 6.28928043 6.28928043 0 0 0 6.28902167-6.28902167A6.28928043 6.28928043 0 0 0 6.3443156.07286376zm-.01808691.93637693a5.40704372 5.40704372 0 0 1 5.40690507 5.40690505 5.40704372 5.40704372 0 0 1-5.40690507 5.40690508A5.40704372 5.40704372 0 0 1 .91880694 6.41614575 5.40704372 5.40704372 0 0 1 6.3262287 1.0092407zM2.89543037 2.89543037V4.1103433c3.114027.05803 5.62928974 2.57700618 5.68647467 5.69422616h1.22266443c-.05778182-3.79157992-3.12128266-6.85143904-6.9091391-6.9091391zm0 2.7967286v1.09295644c1.6436771.05718995 2.96226887 1.37441409 3.01945406 3.01945406h1.09295643c-.05771991-2.25165017-1.86271215-4.05471042-4.1124105-4.1124105zm.7188192 2.76778955c-.19274764 0-.34089843.06791828-.47438945.20153815-.13368232.13142013-.20153815.27423507-.20153815.46715495 0 .18992003.06833208.33620498.20153815.46715494.13281104.13059992.28017231.19430338.47438944.19430338.18819786 0 .32913823-.06339337.45992044-.19430338.13392468-.13405009.20153789-.28028503.20153789-.46715494-.00000212-.19291988-.0678606-.33573482-.20153789-.46715495-.13147463-.13404003-.27322753-.20153815-.45992044-.20153815z"/>
</svg>
