<svg xmlns="http://www.w3.org/2000/svg" xmlns:xlink="http://www.w3.org/1999/xlink" width="48" height="48" viewBox="0 0 12.7 12.7">
  <defs>
    <radialGradient id="b" cx="22.5" cy="28.116049" r="14.537862" fx="22.5" fy="28.116049" gradientTransform="matrix(.34637 0 0 .3467 -3.6996796 281.79869)" gradientUnits="userSpaceOnUse" xlink:href="#a"/>
    <linearGradient id="a">
      <stop offset="0" stop-color="#ef2929"/>
      <stop offset="1" stop-color="#c00"/>
    </linearGradient>
  </defs>
  <g transform="translate(0 -284.3)">
    <path fill="#e6e6e6" d="M6.3443156 284.37286a6.2892804 6.2892804 0 0 0-6.28953858 6.28954 6.2892804 6.2892804 0 0 0 6.28953858 6.28902 6.2892804 6.2892804 0 0 0 6.2890214-6.28902 6.2892804 6.2892804 0 0 0-6.2890214-6.28954zm-.018087.93638a5.4070437 5.4070437 0 0 1 5.4069054 5.40691 5.4070437 5.4070437 0 0 1-5.4069054 5.4069 5.4070437 5.4070437 0 0 1-5.40742176-5.4069 5.4070437 5.4070437 0 0 1 5.40742176-5.40691zm.5999633 3.58273v3.72949l3.7300051-1.86449z"/>
    <ellipse cx="4.0937262" cy="290.64999" fill="url(#b)" fill-rule="evenodd" opacity=".75" overflow="visible" rx="2.0499253" ry="2.045995" style="marker:none"/>
  </g>
</svg>
