<svg xmlns="http://www.w3.org/2000/svg" width="48" height="48" viewBox="0 0 12.7 12.7">
  <path fill="#e6e6e6" d="M6.34431561.07286377a6.28928043 6.28928043 0 0 0-6.2895386 6.2895385 6.28928043 6.28928043 0 0 0 6.2895386 6.28902166 6.28928043 6.28928043 0 0 0 6.28902167-6.28902167A6.28928043 6.28928043 0 0 0 6.3443156.07286376zm-.01808691.93637693a5.40704372 5.40704372 0 0 1 5.40690507 5.40690505 5.40704372 5.40704372 0 0 1-5.40690507 5.40690508A5.40704372 5.40704372 0 0 1 .91880694 6.41614575 5.40704372 5.40704372 0 0 1 6.3262287 1.0092407zm.01601972.73845623c-.54571529-.00094001-1.09144486.1845587-1.45520831.55758868-.58570706.60052992-.69657594 1.66766645-.7188192 2.85615625h-.79995103v5.20433346h5.96346008v-.81442056h-1.8035074l-.0232545.031006c-.08270583.1118399-.22293605.17828365-.37465396.17828365-.24628527 0-.44648437-.175387-.44648437-.39015696 0-.21473001.2002118-.3896405.44648437-.3896405.19281987 0 .36312501.1075272.42374661.26716726l.01705319.04650872h1.76061606V6.47609028H7.35355629v.84129244l.0501261.01601973c.17849427.05899996.29868971.21024426.29868971.37620442 0 .22251987-.20752699.4025593-.46198736.4025593-.2544601 0-.46095364-.18003943-.46095364-.4025593 0-.14964013.09416044-.28611062.24649668-.35605058l.04134114-.01963711v-1.1079427h2.26446104V5.16144186H8.5157592c-.0229481-1.16715988-.13513567-2.23464038-.71830246-2.84272037-.36366106-.37917-.9094925-.56949458-1.45520832-.57102456zm-.00878496.54260252c.42286502.00094001.84582766.1669208 1.1275798.49816067.43563514.51218014.53268933 1.39640176.55500482 2.37298174h-2.2448242l-.89193527 1.79058859.04495853.03255618c.10969836.0783.17311608.19491351.17311608.31884355 0 .22722999-.21214106.41237773-.47283925.41237773-.26049764 0-.47283899-.18513795-.47283952-.41237773 0-.20390008.17450514-.38003056.40565996-.4087606l.0428916-.00361739.86041255-1.7285766h-.81028644c.02182495-.99396999.1176192-1.8775939.55552154-2.3838339.28183178-.32582995.70471452-.48815195 1.1275798-.48679194v-.0015503zm-1.71152341 4.7986735c-.12921774 0-.2335776.09162178-.23357734.20412181 0 .11274002.10436304.20412207.23357734.20412207.12881504 0 .23357733-.09130215.23357733-.20412207 0-.1123-.10476176-.2041218-.23357733-.2041218zm2.59312327.41134427a.23390929.20414199 0 0 0-.23357734.20412207.23390929.20414199 0 0 0 .23357734.2041218.23390929.20414199 0 0 0 .23461107-.2041218.23390929.20414199 0 0 0-.23461107-.20412207zm-.08940006 1.66604816a.2338087.20405417 0 0 0-.2335776.20412207.2338087.20405417 0 0 0 .2335776.2041218.2338087.20405417 0 0 0 .23357734-.2041218.2338087.20405417 0 0 0-.23357734-.20412207z"/>
</svg>
