<?xml version="1.0" encoding="UTF-8" standalone="no"?>
<!-- Created with Inkscape (http://www.inkscape.org/) -->

<svg
   xmlns:dc="http://purl.org/dc/elements/1.1/"
   xmlns:cc="http://creativecommons.org/ns#"
   xmlns:rdf="http://www.w3.org/1999/02/22-rdf-syntax-ns#"
   xmlns:svg="http://www.w3.org/2000/svg"
   xmlns="http://www.w3.org/2000/svg"
   xmlns:sodipodi="http://sodipodi.sourceforge.net/DTD/sodipodi-0.dtd"
   xmlns:inkscape="http://www.inkscape.org/namespaces/inkscape"
   width="48"
   height="48"
   viewBox="0 0 12.7 12.7"
   version="1.1"
   id="svg829"
   inkscape:version="0.92.3 (2405546, 2018-03-11)"
   sodipodi:docname="jockey.svg">
  <defs
     id="defs823" />
  <sodipodi:namedview
     id="base"
     pagecolor="#ffffff"
     bordercolor="#666666"
     borderopacity="1.0"
     inkscape:pageopacity="0.0"
     inkscape:pageshadow="2"
     inkscape:zoom="5.6041667"
     inkscape:cx="21.591078"
     inkscape:cy="23.286245"
     inkscape:document-units="mm"
     inkscape:current-layer="layer1"
     showgrid="false"
     showguides="true"
     inkscape:guide-bbox="true"
     inkscape:window-width="1366"
     inkscape:window-height="719"
     inkscape:window-x="0"
     inkscape:window-y="25"
     inkscape:window-maximized="1"
     scale-x="1.9"
     units="px"
     inkscape:snap-global="true" />
  <metadata
     id="metadata826">
    <rdf:RDF>
      <cc:Work
         rdf:about="">
        <dc:format>image/svg+xml</dc:format>
        <dc:type
           rdf:resource="http://purl.org/dc/dcmitype/StillImage" />
        <dc:title></dc:title>
      </cc:Work>
    </rdf:RDF>
  </metadata>
  <g
     inkscape:label="Capa 1"
     inkscape:groupmode="layer"
     id="layer1"
     transform="translate(0,-284.3)">
    <path
       style="fill:#e6e6e6;fill-opacity:1;stroke-width:0.52516764"
       d="M 23.978516 0.27539062 A 23.770509 23.770509 0 0 0 0.20703125 24.046875 A 23.770509 23.770509 0 0 0 23.978516 47.816406 A 23.770509 23.770509 0 0 0 47.748047 24.046875 A 23.770509 23.770509 0 0 0 23.978516 0.27539062 z M 23.910156 3.8144531 A 20.436071 20.436071 0 0 1 44.345703 24.25 A 20.436071 20.436071 0 0 1 23.910156 44.685547 A 20.436071 20.436071 0 0 1 3.4726562 24.25 A 20.436071 20.436071 0 0 1 23.910156 3.8144531 z M 23.970703 6.6054688 C 21.908157 6.601916 19.845557 7.3030135 18.470703 8.7128906 C 16.257007 10.98261 15.837975 15.015882 15.753906 19.507812 L 12.730469 19.507812 L 12.730469 39.177734 L 35.269531 39.177734 L 35.269531 36.099609 L 28.453125 36.099609 L 28.365234 36.216797 C 28.052645 36.639499 27.522641 36.890625 26.949219 36.890625 C 26.018377 36.890625 25.261719 36.227745 25.261719 35.416016 C 25.261719 34.604438 26.018425 33.943359 26.949219 33.943359 C 27.677987 33.943359 28.32166 34.349761 28.550781 34.953125 L 28.615234 35.128906 L 35.269531 35.128906 L 35.269531 24.476562 L 27.792969 24.476562 L 27.792969 27.65625 L 27.982422 27.716797 C 28.657046 27.939789 29.111328 28.511421 29.111328 29.138672 C 29.111328 29.979692 28.326974 30.660156 27.365234 30.660156 C 26.403495 30.660156 25.623047 29.979692 25.623047 29.138672 C 25.623047 28.573103 25.978929 28.057309 26.554688 27.792969 L 26.710938 27.71875 L 26.710938 23.53125 L 35.269531 23.53125 L 35.269531 19.507812 L 32.185547 19.507812 C 32.098814 15.096499 31.674798 11.061927 29.470703 8.7636719 C 28.096236 7.3305884 26.033251 6.6112514 23.970703 6.6054688 z M 23.9375 8.65625 C 25.53573 8.6598028 27.134329 9.2871318 28.199219 10.539062 C 29.845714 12.474861 30.212533 15.816801 30.296875 19.507812 L 21.8125 19.507812 L 18.441406 26.275391 L 18.611328 26.398438 C 19.025936 26.694375 19.265625 27.135119 19.265625 27.603516 C 19.265625 28.462338 18.463832 29.162109 17.478516 29.162109 C 16.493958 29.162109 15.691408 28.462375 15.691406 27.603516 C 15.691406 26.83287 16.350953 26.16718 17.224609 26.058594 L 17.386719 26.044922 L 20.638672 19.511719 L 17.576172 19.511719 C 17.65866 15.754982 18.020717 12.415301 19.675781 10.501953 C 20.740972 9.2704697 22.339269 8.6569692 23.9375 8.6621094 L 23.9375 8.65625 z M 17.46875 26.792969 C 16.980368 26.792969 16.585937 27.139256 16.585938 27.564453 C 16.585938 27.990557 16.980381 28.335938 17.46875 28.335938 C 17.95561 28.335938 18.351562 27.990859 18.351562 27.564453 C 18.351562 27.140012 17.955612 26.792969 17.46875 26.792969 z M 27.269531 28.347656 A 0.88406661 0.77156028 0 0 0 26.386719 29.119141 A 0.88406661 0.77156028 0 0 0 27.269531 29.890625 A 0.88406661 0.77156028 0 0 0 28.15625 29.119141 A 0.88406661 0.77156028 0 0 0 27.269531 28.347656 z M 26.931641 34.644531 A 0.88368643 0.77122836 0 0 0 26.048828 35.416016 A 0.88368643 0.77122836 0 0 0 26.931641 36.1875 A 0.88368643 0.77122836 0 0 0 27.814453 35.416016 A 0.88368643 0.77122836 0 0 0 26.931641 34.644531 z "
       transform="matrix(0.26458333,0,0,0.26458333,0,284.3)"
       id="path834" />
  </g>
</svg>
