<?xml version="1.0" encoding="UTF-8" standalone="no"?>
<!-- Created with Inkscape (http://www.inkscape.org/) -->

<svg
   xmlns:dc="http://purl.org/dc/elements/1.1/"
   xmlns:cc="http://creativecommons.org/ns#"
   xmlns:rdf="http://www.w3.org/1999/02/22-rdf-syntax-ns#"
   xmlns:svg="http://www.w3.org/2000/svg"
   xmlns="http://www.w3.org/2000/svg"
   xmlns:sodipodi="http://sodipodi.sourceforge.net/DTD/sodipodi-0.dtd"
   xmlns:inkscape="http://www.inkscape.org/namespaces/inkscape"
   width="48"
   height="48"
   viewBox="0 0 12.7 12.7"
   version="1.1"
   id="svg829"
   inkscape:version="0.92.3 (2405546, 2018-03-11)"
   sodipodi:docname="jokosher.svg">
  <defs
     id="defs823" />
  <sodipodi:namedview
     id="base"
     pagecolor="#ffffff"
     bordercolor="#666666"
     borderopacity="1.0"
     inkscape:pageopacity="0.0"
     inkscape:pageshadow="2"
     inkscape:zoom="3.9627443"
     inkscape:cx="-17.763987"
     inkscape:cy="24"
     inkscape:document-units="mm"
     inkscape:current-layer="layer1"
     showgrid="false"
     showguides="true"
     inkscape:guide-bbox="true"
     inkscape:window-width="1366"
     inkscape:window-height="719"
     inkscape:window-x="0"
     inkscape:window-y="25"
     inkscape:window-maximized="1"
     scale-x="1.9"
     units="px"
     inkscape:snap-global="true" />
  <metadata
     id="metadata826">
    <rdf:RDF>
      <cc:Work
         rdf:about="">
        <dc:format>image/svg+xml</dc:format>
        <dc:type
           rdf:resource="http://purl.org/dc/dcmitype/StillImage" />
        <dc:title></dc:title>
      </cc:Work>
    </rdf:RDF>
  </metadata>
  <g
     inkscape:label="Capa 1"
     inkscape:groupmode="layer"
     id="layer1"
     transform="translate(0,-284.3)">
    <g
       id="g861">
      <path
         inkscape:connector-curvature="0"
         sodipodi:nodetypes="ccccccccccccccccccccccccccccccccc"
         id="path4642"
         d="m 3.0071504,287.0514 -0.033267,0.66225 c 0.7518129,1.23444 1.7137727,2.82253 2.7289515,4.51448 l -1.5749946,-4.91209 c -0.3422662,-0.0701 -0.7847541,-0.18065 -1.1206899,-0.26464 z m 2.695686,5.17673 2.0506123,-4.77957 c -0.3835493,0.0548 -0.8081963,0.10672 -1.2397239,0.11698 -0.229052,1.33572 -0.5069343,2.95388 -0.8108884,4.66262 z m 0,0 3.9764724,-1.27871 v -1.13057 c -1.1440428,0.69569 -2.5189564,1.53475 -3.9764724,2.40928 z m 0,0 3.5164491,1.50483 c 0.1520978,-0.25685 0.2731256,-0.53163 0.3508652,-0.82648 -1.1622804,-0.20047 -2.4869779,-0.4328 -3.8673143,-0.67835 z m 0,0 1.0058137,3.12659 c 0.2663907,-0.0302 0.528207,-0.0913 0.7719034,-0.17933 -0.5485235,-0.90491 -1.1529498,-1.90598 -1.7777171,-2.94726 z m 0,0 -1.1383626,2.65098 c 0.1961871,0.12015 0.4033534,0.22548 0.6237605,0.30408 0.1605368,-0.92455 0.3311676,-1.92386 0.5146021,-2.95506 z m 0,0 -2.5730113,0.82648 c 0.063602,0.20163 0.1420857,0.39393 0.2417069,0.57698 0.7353583,-0.44487 1.5213932,-0.91751 2.3313044,-1.40346 z m 0,0 -2.7289515,-1.16958 v 0.68617 c 0.8615185,0.14984 1.7801618,0.31464 2.7289515,0.48341 z"
         style="opacity:0.751;fill:#d45500;fill-opacity:1;fill-rule:evenodd;stroke:none;stroke-width:0.23041348px;stroke-linecap:butt;stroke-linejoin:miter;stroke-opacity:1" />
      <path
         inkscape:connector-curvature="0"
         id="path22"
         d="m 6.3443159,284.37286 a 6.2892804,6.2892804 0 0 0 -6.28953853,6.28954 6.2892804,6.2892804 0 0 0 6.28953853,6.28902 6.2892804,6.2892804 0 0 0 6.2890211,-6.28902 6.2892804,6.2892804 0 0 0 -6.2890211,-6.28954 z m -0.018087,0.93638 a 5.4070437,5.4070437 0 0 1 5.4069051,5.40691 5.4070437,5.4070437 0 0 1 -5.4069051,5.4069 5.4070437,5.4070437 0 0 1 -5.40742183,-5.4069 5.4070437,5.4070437 0 0 1 5.40742183,-5.40691 z m 3.233911,1.40715 c 0,0 -1.6308522,0.50074 -3.2473468,0.50074 -1.6164942,0 -3.2184083,-0.48059 -3.2184083,-0.48059 -0.252525,0 -0.4547526,0.10152 -0.4547526,0.35295 v 5.0059 c 0,2.00954 1.6515849,3.6406 3.6865967,3.6406 2.0350117,0 3.6865961,-1.63106 3.6865961,-3.6406 v -5.0059 c 0,-0.25156 -0.2001594,-0.3731 -0.4526851,-0.3731 z m -0.6914306,0.96273 c 0.1985902,0 0.3570843,0.0959 0.3570843,0.29404 v 3.93671 c 0,1.58033 -1.2992015,2.86339 -2.8995647,2.86339 -1.6003628,0 -2.8990478,-1.28306 -2.8990478,-2.86339 v -3.93671 c 0,-0.19785 0.1579785,-0.2775 0.3565673,-0.2775 0,0 1.2609107,0.37724 2.5321453,0.37724 1.2712348,0 2.5528156,-0.39378 2.5528156,-0.39378 z m -0.1467609,0.32401 -1.3115481,0.27596 v 4.05763 c -8e-7,0.2609 -0.070568,0.45878 -0.2113565,0.59324 -0.1385203,0.13446 -0.3440002,0.20206 -0.6164998,0.20206 H 6.3784222 v 0.8754 h 0.2656167 c 0.6971433,0 1.2166981,-0.13801 1.5595947,-0.41496 0.345164,-0.27692 0.5183124,-0.69583 0.5183148,-1.25574 z"
         style="fill:#1a1a1a;fill-opacity:1;stroke-width:0.1389506" />
    </g>
  </g>
</svg>
