<svg xmlns="http://www.w3.org/2000/svg" width="48" height="48" viewBox="0 0 12.7 12.7"><path d="M6.34.07a6.29 6.29 0 0 0-6.29 6.3 6.29 6.29 0 0 0 6.3 6.28 6.29 6.29 0 0 0 6.28-6.29A6.29 6.29 0 0 0 6.34.07zm-.01.94a5.4 5.4 0 0 1 2.98.9H3.35A5.4 5.4 0 0 1 6.33 1zm-3.02.92v8.86H9.4V1.96a5.4 5.4 0 0 1 2.34 4.46 5.4 5.4 0 0 1-5.4 5.4 5.4 5.4 0 0 1-5.41-5.4 5.4 5.4 0 0 1 2.4-4.49zm.35 1.11h5.38v6.7H3.66v-6.7zm3.1.66l-.87.09V7.4l.87-.13V5.74l1.17 1.7.91-.28-1.2-1.65 1.21-1.55-.93-.22L6.76 5.3V3.7zm-1.99.89h-.03l-.34.35a.04.04 0 0 0 0 .06l.4.67c-.08.12-.13.25-.17.38l-.75.16a.05.05 0 0 0-.03.04v.5c0 .01.01.03.03.03l.72.18c.04.16.1.3.18.45l-.42.63a.04.04 0 0 0 0 .06l.35.35h.06l.65-.4c.13.08.27.14.42.18l.15.73c0 .02.02.04.04.04h.49c.02 0 .04-.02.04-.04l.18-.73c.15-.05.3-.1.43-.18l.64.42h.06l.34-.35a.04.04 0 0 0 .01-.06l-.23-.38-.08.02-.03-.01-.34-.5A1.4 1.4 0 1 1 5.7 5.28V4.9c-.08.04-.17.07-.25.12l-.66-.44h-.03z" fill="#e6e6e6"/></svg>