<svg xmlns="http://www.w3.org/2000/svg" width="48" height="48" viewBox="0 0 12.7 12.7">
  <g fill="none" stroke="#e6e6e6" stroke-linecap="round">
    <path stroke-width=".66145831" d="M2.244576 4.5722855c3.299568.0571 5.5597041-2.5250793 8.173267-.7544555M2.0857407 6.1660665l3.5538848-.2860582c1.4489186-1.563156 3.0620277-1.8831568 4.9794055.1005943-1.4499467.1766443-2.4449943 2.0121861-4.9794055-.1005943"/>
    <path stroke-width=".63446003" d="M8.1438625 6.9870555C6.7113574 8.2685364 5.3591194 9.8887256 3.514589 9.4315574 2.3935848 8.944893 2.0967623 8.2310948 2.4139226 7.706027c.6765223-.3707999.8940896.3325228.7445684.5032798"/>
  </g>
  <g fill="#e6e6e6">
    <path d="M6.3443156.07286377A6.2892804 6.2892804 0 0 0 .05477702 6.3624023 6.2892804 6.2892804 0 0 0 6.3443156 12.651424a6.2892804 6.2892804 0 0 0 6.2890214-6.2890217A6.2892804 6.2892804 0 0 0 6.3443156.07286377zm-.0180869.93637693a5.4070437 5.4070437 0 0 1 5.4069053 5.4069051 5.4070437 5.4070437 0 0 1-5.4069053 5.4069052A5.4070437 5.4070437 0 0 1 .91880694 6.4161458 5.4070437 5.4070437 0 0 1 6.3262287 1.0092407z"/>
    <path d="M8.6948053 6.5108342l.294554 3.0339101 1.0611647-1.6906936c-.5872607-.3699875-.6394527-.8164134-.5690457-1.2803534z"/>
    <ellipse cx="7.9246945" cy="5.7420449" rx=".77011138" ry=".76878923"/>
  </g>
</svg>
