<svg xmlns="http://www.w3.org/2000/svg" width="48" height="48" viewBox="0 0 12.7 12.7">
  <path fill="#e6e6e6" d="M6.34431561.07286377a6.28928043 6.28928043 0 0 0-6.2895386 6.2895385 6.28928043 6.28928043 0 0 0 6.2895386 6.28902166 6.28928043 6.28928043 0 0 0 6.28902167-6.28902167A6.28928043 6.28928043 0 0 0 6.3443156.07286376zm-.01808691.93637693a5.40704372 5.40704372 0 0 1 5.40690507 5.40690505 5.40704372 5.40704372 0 0 1-5.40690507 5.40690508A5.40704372 5.40704372 0 0 1 .91880694 6.41614575 5.40704372 5.40704372 0 0 1 6.3262287 1.0092407zm.02428795.99890545c-2.24964013 0-3.53618134.62957992-3.70881746 1.26968994-.012683.02180008-.02170412.04586367-.0217041.0728636v.34416524c.42330905.44179992 1.83809035.8495604 3.73052156.8495604s3.30632907-.40776048 3.72948804-.8495604V3.3506997c0-.02499995-.0078269-.04792954-.01963685-.0687295-.16741113-.64175-1.45454077-1.27382405-3.70985119-1.27382405zM2.6199951 4.23074935V5.6322142c.3936159.41087013 1.64580097.79200665 3.3248616.84542655.01716087.00057997.0354039.00083344.05271002.00103346.04864206.00100013.09633956.00210053.14572747.00310065.06818789.00099986.13783972.00206693.20722246.00206693.06938301 0 .13800032-.00022331.206189-.00103346.04924107-.00072999.09760161-.00210053.1462442-.00310066.0173101-.00044.03503242-.00083343.0521933-.00103346 1.67906089-.0537001 2.93124515-.43464638 3.32486154-.84542629V4.23074936c-.72620557.49882001-2.26066453.76274426-3.72948804.76274426-1.46882404 0-3.00416697-.26392425-3.73052155-.76274426zm0 1.95491945v1.40249855c.42465153.44323979 1.8495796.85214433 3.73052155.85214433 1.8809422 0 3.3048363-.40884448 3.72948804-.85214433V6.1856688c-.1966587.13502005-.4513355.25348697-.7493082.35346693-.62817426.21962982-1.49935536.37324611-2.59157307.40307603-.12981279.00300011-.25939115.00516758-.38860677.00516758-.12966356 0-.26004546-.0011676-.39015696-.00516758-1.09535117-.02990003-1.96826793-.18496994-2.59674066-.40565995-.29543612-.09970003-.5483082-.21675302-.74362393-.350883zm0 1.93993344v1.2236979c0 .02419985.0060212.04667912.01705321.0671793.17621703.7304 1.75344509 1.2753742 3.71346834 1.2753742 1.95554703 0 3.52936488-.54252653 3.71140139-1.27020662.01193985-.02150004.01808665-.04624705.01808665-.07234688v-1.2236979c-.61698425.43434979-1.88748985.7761798-3.72948804.7761798-1.84214741 0-3.11368753-.34183001-3.73052155-.7761798z"/>
</svg>
