<svg xmlns="http://www.w3.org/2000/svg" width="48" height="48" viewBox="0 0 12.7 12.7">
  <path fill="#e6e6e6" d="M6.34431561.07286377a6.28928043 6.28928043 0 0 0-6.2895386 6.2895385 6.28928043 6.28928043 0 0 0 6.2895386 6.28902166 6.28928043 6.28928043 0 0 0 6.28902167-6.28902167A6.28928043 6.28928043 0 0 0 6.3443156.07286376zm-.01808691.93637693a5.40704372 5.40704372 0 0 1 5.40690507 5.40690505 5.40704372 5.40704372 0 0 1-5.40690507 5.40690508A5.40704372 5.40704372 0 0 1 .91880694 6.41614575 5.40704372 5.40704372 0 0 1 6.3262287 1.0092407zM4.20181056 3.16104742c-.02228691 0-.0433033.01218962-.06252845.03358965-.03507.0089998-.06143387.0239596-.06614583.05115957l-.6976319 4.01319175-.8769489-2.34300948c-.019601-.05239994-.19544165.0465955-.39325767.22272545l-.07441406.0671793c-.197816.17612016-.34154856.360018-.32194415.41237799l1.3492717 3.6039144c.0009038.002.00368749.0031676.00516757.00516758.04622509.08219996.1816637.18346817.35294993.25424818l.08371601.03462311c.22063578.09120002.4098462.09518491.42478007.00878496l.94774596-5.45289707h5.38830143c.08803005 0 .15916327-.18344118.15916327-.41186126v-.0868164c0-.22841003-.07112529-.41237773-.15916327-.41237773H4.20181056zm2.28513187 2.10529776c-.00871776-.00092498-.01924182.00025056-.03100573.00310065-.07059506.01769983-.19253834.1031756-.31367597.22427565l-.06097825.06046153c-.16151675.16150986-.2588768.3245522-.21807461.36535227L6.9453124 7.00163982 5.86320787 8.08322737c-.04080695.04080007.05655495.2038424.2180746.36535254l.06097826.06149472c.16151675.16151013.32455008.25886463.36535227.2180746l1.08158782-1.08262127 1.08262127 1.08262128c.04080695.04080007.2038358-.05654437.36535228-.21807461l.06046152-.06149472c.16151622-.16151013.2588768-.32454241.21807434-.36535254L8.23412268 7.00163982l1.08158755-1.08210454c.0408022-.04090009-.05655865-.2038424-.21807434-.36535227l-.06046152-.06046153c-.16151649-.16151992-.32455009-.25940146-.36535228-.21859134L7.58920082 6.3572347 6.507613 5.27513014c-.00512207-.00515011-.01195281-.00785998-.02067057-.00878496z"/>
</svg>
