<?xml version="1.0" encoding="UTF-8" standalone="no"?>
<!-- Created with Inkscape (http://www.inkscape.org/) -->

<svg
   xmlns:dc="http://purl.org/dc/elements/1.1/"
   xmlns:cc="http://creativecommons.org/ns#"
   xmlns:rdf="http://www.w3.org/1999/02/22-rdf-syntax-ns#"
   xmlns:svg="http://www.w3.org/2000/svg"
   xmlns="http://www.w3.org/2000/svg"
   xmlns:sodipodi="http://sodipodi.sourceforge.net/DTD/sodipodi-0.dtd"
   xmlns:inkscape="http://www.inkscape.org/namespaces/inkscape"
   width="48"
   height="48"
   viewBox="0 0 12.7 12.7"
   version="1.1"
   id="svg829"
   inkscape:version="0.92.3 (2405546, 2018-03-11)"
   sodipodi:docname="libreoffice-math.svg">
  <defs
     id="defs823" />
  <sodipodi:namedview
     id="base"
     pagecolor="#ffffff"
     bordercolor="#666666"
     borderopacity="1.0"
     inkscape:pageopacity="0.0"
     inkscape:pageshadow="2"
     inkscape:zoom="3.9185501"
     inkscape:cx="20.554848"
     inkscape:cy="22.979214"
     inkscape:document-units="mm"
     inkscape:current-layer="layer1"
     showgrid="false"
     showguides="true"
     inkscape:guide-bbox="true"
     inkscape:window-width="1366"
     inkscape:window-height="719"
     inkscape:window-x="0"
     inkscape:window-y="25"
     inkscape:window-maximized="1"
     scale-x="1.9"
     units="px"
     inkscape:snap-global="false" />
  <metadata
     id="metadata826">
    <rdf:RDF>
      <cc:Work
         rdf:about="">
        <dc:format>image/svg+xml</dc:format>
        <dc:type
           rdf:resource="http://purl.org/dc/dcmitype/StillImage" />
        <dc:title></dc:title>
      </cc:Work>
    </rdf:RDF>
  </metadata>
  <g
     inkscape:label="Capa 1"
     inkscape:groupmode="layer"
     id="layer1"
     transform="translate(0,-284.3)">
    <path
       style="fill:#e6e6e6;fill-opacity:1;stroke-width:0.52516764"
       d="M 23.978516 0.27539062 A 23.770509 23.770509 0 0 0 0.20703125 24.046875 A 23.770509 23.770509 0 0 0 23.978516 47.816406 A 23.770509 23.770509 0 0 0 47.748047 24.046875 A 23.770509 23.770509 0 0 0 23.978516 0.27539062 z M 23.910156 3.8144531 A 20.436071 20.436071 0 0 1 44.345703 24.25 A 20.436071 20.436071 0 0 1 23.910156 44.685547 A 20.436071 20.436071 0 0 1 3.4726562 24.25 A 20.436071 20.436071 0 0 1 23.910156 3.8144531 z M 15.880859 11.947266 C 15.796625 11.947266 15.717193 11.993337 15.644531 12.074219 C 15.511983 12.108234 15.41234 12.164775 15.394531 12.267578 L 12.757812 27.435547 L 9.4433594 18.580078 C 9.3692769 18.382031 8.7046823 18.756187 7.9570312 19.421875 L 7.6757812 19.675781 C 6.9281302 20.341432 6.384889 21.036479 6.4589844 21.234375 L 11.558594 34.855469 C 11.56201 34.863028 11.572531 34.867441 11.578125 34.875 C 11.752834 35.185677 12.264728 35.568423 12.912109 35.835938 L 13.228516 35.966797 C 14.062415 36.31149 14.777541 36.326551 14.833984 36 L 18.416016 15.390625 L 38.78125 15.390625 C 39.113962 15.390625 39.382812 14.697304 39.382812 13.833984 L 39.382812 13.505859 C 39.382812 12.642577 39.113992 11.947266 38.78125 11.947266 L 15.880859 11.947266 z M 24.517578 19.904297 C 24.484629 19.900801 24.444853 19.905244 24.400391 19.916016 C 24.133575 19.982913 23.672687 20.305971 23.214844 20.763672 L 22.984375 20.992188 C 22.373918 21.602619 22.005943 22.218842 22.160156 22.373047 L 26.25 26.462891 L 22.160156 30.550781 C 22.005925 30.704986 22.373907 31.321209 22.984375 31.931641 L 23.214844 32.164062 C 23.825301 32.774494 24.44149 33.142448 24.595703 32.988281 L 28.683594 28.896484 L 32.775391 32.988281 C 32.929622 33.142486 33.545794 32.77457 34.15625 32.164062 L 34.384766 31.931641 C 34.995221 31.321209 35.363198 30.705024 35.208984 30.550781 L 31.121094 26.462891 L 35.208984 22.373047 C 35.363197 22.218464 34.995219 21.602619 34.384766 20.992188 L 34.15625 20.763672 C 33.545794 20.153203 32.929604 19.783257 32.775391 19.9375 L 28.683594 24.027344 L 24.595703 19.9375 C 24.576344 19.918035 24.550527 19.907793 24.517578 19.904297 z "
       transform="matrix(0.26458333,0,0,0.26458333,0,284.3)"
       id="path849" />
  </g>
</svg>
