<?xml version="1.0" encoding="UTF-8" standalone="no"?>
<!-- Created with Inkscape (http://www.inkscape.org/) -->

<svg
   xmlns:dc="http://purl.org/dc/elements/1.1/"
   xmlns:cc="http://creativecommons.org/ns#"
   xmlns:rdf="http://www.w3.org/1999/02/22-rdf-syntax-ns#"
   xmlns:svg="http://www.w3.org/2000/svg"
   xmlns="http://www.w3.org/2000/svg"
   xmlns:sodipodi="http://sodipodi.sourceforge.net/DTD/sodipodi-0.dtd"
   xmlns:inkscape="http://www.inkscape.org/namespaces/inkscape"
   width="48"
   height="48"
   viewBox="0 0 12.7 12.7"
   version="1.1"
   id="svg829"
   inkscape:version="0.92.3 (2405546, 2018-03-11)"
   sodipodi:docname="libreoffice-draw.svg">
  <defs
     id="defs823" />
  <sodipodi:namedview
     id="base"
     pagecolor="#ffffff"
     bordercolor="#666666"
     borderopacity="1.0"
     inkscape:pageopacity="0.0"
     inkscape:pageshadow="2"
     inkscape:zoom="3.9553786"
     inkscape:cx="20.586926"
     inkscape:cy="22.988719"
     inkscape:document-units="mm"
     inkscape:current-layer="layer1"
     showgrid="false"
     showguides="true"
     inkscape:guide-bbox="true"
     inkscape:window-width="1366"
     inkscape:window-height="719"
     inkscape:window-x="0"
     inkscape:window-y="25"
     inkscape:window-maximized="1"
     scale-x="1.9"
     units="px"
     inkscape:snap-global="false" />
  <metadata
     id="metadata826">
    <rdf:RDF>
      <cc:Work
         rdf:about="">
        <dc:format>image/svg+xml</dc:format>
        <dc:type
           rdf:resource="http://purl.org/dc/dcmitype/StillImage" />
        <dc:title></dc:title>
      </cc:Work>
    </rdf:RDF>
  </metadata>
  <g
     inkscape:label="Capa 1"
     inkscape:groupmode="layer"
     id="layer1"
     transform="translate(0,-284.3)">
    <g
       id="g830">
      <path
         id="path820"
         transform="matrix(0.26458333,0,0,0.26458333,0,284.3)"
         d="M 23.978516 0.27539062 A 23.770509 23.770509 0 0 0 0.20703125 24.046875 A 23.770509 23.770509 0 0 0 23.978516 47.816406 A 23.770509 23.770509 0 0 0 47.748047 24.046875 A 23.770509 23.770509 0 0 0 23.978516 0.27539062 z M 23.910156 3.8144531 A 20.436071 20.436071 0 0 1 44.345703 24.25 A 20.436071 20.436071 0 0 1 23.910156 44.685547 A 20.436071 20.436071 0 0 1 3.4726562 24.25 A 20.436071 20.436071 0 0 1 23.910156 3.8144531 z "
         style="fill:#e6e6e6;fill-opacity:1;stroke-width:0.52516764" />
      <path
         inkscape:connector-curvature="0"
         style="fill:none;stroke:#e6e6e6;stroke-width:0.26458332px"
         d="m 2.7781251,292.89896 c 3.5718752,0.13229 3.8364582,-4.36563 7.1437502,-4.23333"
         id="path2879" />
      <circle
         style="stroke-width:0.13229166;stroke:#e6e6e6;fill:#e6e6e6"
         r="0.66145831"
         cy="287.34271"
         cx="6.4822917"
         id="circle3164" />
      <circle
         style="stroke-width:0.13229166;stroke:#e6e6e6;fill:#e6e6e6"
         r="0.66145831"
         cy="293.95731"
         cx="6.4822917"
         id="circle3168" />
      <g
         style="fill:#e6e6e6;stroke:#e6e6e6"
         transform="matrix(0.13229167,0,0,0.09338204,-3.3072916,283.59973)"
         id="g3174">
        <rect
           style="fill:#e6e6e6;stroke:#e6e6e6"
           height="66"
           width="2"
           y="43"
           x="73"
           id="rect3176" />
      </g>
      <path
         style="stroke-width:0.26458332;stroke:#e6e6e6;fill:#e6e6e6"
         inkscape:connector-curvature="0"
         d="m 6.0854168,290.78229 c 0,0.21878 0.1780963,0.39688 0.396875,0.39688 0.218776,0 0.396875,-0.1781 0.396875,-0.39688 0,-0.21878 -0.1780964,-0.39687 -0.396875,-0.39687 -0.2187787,0 -0.396875,0.17809 -0.396875,0.39687 z"
         id="path3178" />
      <rect
         style="stroke-width:0.26458332;stroke:#e6e6e6;fill:#e6e6e6"
         height="1.0583333"
         width="1.0583333"
         y="292.25311"
         x="2.3812501"
         id="rect3186" />
      <rect
         style="stroke-width:0.26458332;stroke:#e6e6e6;fill:#e6e6e6"
         height="1.0583333"
         width="1.0583333"
         y="288.01978"
         x="9.260417"
         id="rect3653" />
    </g>
  </g>
</svg>
