<?xml version="1.0" encoding="UTF-8" standalone="no"?>
<!-- Created with Inkscape (http://www.inkscape.org/) -->

<svg
   xmlns:dc="http://purl.org/dc/elements/1.1/"
   xmlns:cc="http://creativecommons.org/ns#"
   xmlns:rdf="http://www.w3.org/1999/02/22-rdf-syntax-ns#"
   xmlns:svg="http://www.w3.org/2000/svg"
   xmlns="http://www.w3.org/2000/svg"
   xmlns:sodipodi="http://sodipodi.sourceforge.net/DTD/sodipodi-0.dtd"
   xmlns:inkscape="http://www.inkscape.org/namespaces/inkscape"
   width="48"
   height="48"
   viewBox="0 0 12.7 12.7"
   version="1.1"
   id="svg829"
   inkscape:version="0.92.3 (2405546, 2018-03-11)"
   sodipodi:docname="libreoffice-base.svg">
  <defs
     id="defs823" />
  <sodipodi:namedview
     id="base"
     pagecolor="#ffffff"
     bordercolor="#666666"
     borderopacity="1.0"
     inkscape:pageopacity="0.0"
     inkscape:pageshadow="2"
     inkscape:zoom="3.9553786"
     inkscape:cx="24"
     inkscape:cy="24"
     inkscape:document-units="mm"
     inkscape:current-layer="layer1"
     showgrid="false"
     showguides="true"
     inkscape:guide-bbox="true"
     inkscape:window-width="1366"
     inkscape:window-height="714"
     inkscape:window-x="0"
     inkscape:window-y="25"
     inkscape:window-maximized="1"
     scale-x="1.9"
     units="px"
     inkscape:snap-global="false" />
  <metadata
     id="metadata826">
    <rdf:RDF>
      <cc:Work
         rdf:about="">
        <dc:format>image/svg+xml</dc:format>
        <dc:type
           rdf:resource="http://purl.org/dc/dcmitype/StillImage" />
        <dc:title></dc:title>
      </cc:Work>
    </rdf:RDF>
  </metadata>
  <g
     inkscape:label="Capa 1"
     inkscape:groupmode="layer"
     id="layer1"
     transform="translate(0,-284.3)">
    <path
       style="fill:#1a1a1a;fill-opacity:1;stroke-width:0.52516764"
       d="M 23.978516 0.27539062 A 23.770509 23.770509 0 0 0 0.20703125 24.046875 A 23.770509 23.770509 0 0 0 23.978516 47.816406 A 23.770509 23.770509 0 0 0 47.748047 24.046875 A 23.770509 23.770509 0 0 0 23.978516 0.27539062 z M 23.910156 3.8144531 A 20.436071 20.436071 0 0 1 44.345703 24.25 A 20.436071 20.436071 0 0 1 23.910156 44.685547 A 20.436071 20.436071 0 0 1 3.4726562 24.25 A 20.436071 20.436071 0 0 1 23.910156 3.8144531 z M 24.001953 7.5898438 C 15.499376 7.5898438 10.636858 9.9693585 9.984375 12.388672 C 9.9364393 12.471066 9.9023437 12.562015 9.9023438 12.664062 L 9.9023438 12.945312 L 9.9023438 13.964844 C 11.502252 15.634639 16.849457 17.175781 24.001953 17.175781 C 31.154449 17.175781 36.498315 15.634639 38.097656 13.964844 L 38.097656 12.945312 L 38.097656 12.664062 C 38.097656 12.569574 38.068074 12.482911 38.023438 12.404297 C 37.390703 9.9787851 32.525961 7.5898438 24.001953 7.5898438 z M 9.9023438 15.990234 L 9.9023438 19.996094 L 9.9023438 20.277344 L 9.9023438 20.560547 L 9.9023438 21.287109 C 11.390026 22.840004 16.122694 24.28052 22.46875 24.482422 C 22.53361 24.484614 22.60256 24.485572 22.667969 24.486328 C 22.851813 24.490108 23.032087 24.494267 23.21875 24.498047 C 23.476468 24.501826 23.739719 24.505859 24.001953 24.505859 C 24.264188 24.505859 24.523529 24.505015 24.78125 24.501953 C 24.967358 24.499194 25.150138 24.494014 25.333984 24.490234 C 25.399408 24.488571 25.46639 24.487084 25.53125 24.486328 C 31.877307 24.283367 36.609972 22.84357 38.097656 21.291016 L 38.097656 20.5625 L 38.097656 20.283203 L 38.097656 20 L 38.097656 15.990234 C 35.352942 17.875538 29.553412 18.873047 24.001953 18.873047 C 18.450492 18.873047 12.647621 17.875538 9.9023438 15.990234 z M 9.9023438 23.378906 L 9.9023438 27.388672 L 9.9023438 27.671875 L 9.9023438 27.953125 L 9.9023438 28.679688 C 11.507326 30.354925 16.892881 31.900391 24.001953 31.900391 C 31.111026 31.900391 36.492673 30.355152 38.097656 28.679688 L 38.097656 27.953125 L 38.097656 27.669922 L 38.097656 27.388672 L 38.097656 23.378906 C 37.354379 23.889218 36.391821 24.336967 35.265625 24.714844 C 32.891423 25.544941 29.59877 26.125538 25.470703 26.238281 C 24.980072 26.24962 24.490327 26.257812 24.001953 26.257812 C 23.511886 26.257812 23.019104 26.253399 22.527344 26.238281 C 18.387434 26.125273 15.088221 25.539182 12.712891 24.705078 C 11.596282 24.328259 10.640545 23.885854 9.9023438 23.378906 z M 9.9023438 30.710938 L 9.9023438 35.335938 C 9.9023438 35.427402 9.9251011 35.512363 9.9667969 35.589844 C 10.632814 38.350411 16.593991 40.410156 24.001953 40.410156 C 31.392997 40.410156 37.341285 38.359662 38.029297 35.609375 C 38.074424 35.528115 38.097656 35.434583 38.097656 35.335938 L 38.097656 30.710938 C 35.765747 32.352575 30.963836 33.644531 24.001953 33.644531 C 17.039506 33.644531 12.233685 32.352575 9.9023438 30.710938 z "
       transform="matrix(0.26458333,0,0,0.26458333,0,284.3)"
       id="path820" />
  </g>
</svg>
