<svg xmlns="http://www.w3.org/2000/svg" width="48" height="48" viewBox="0 0 12.7 12.7">
  <path fill="#e6e6e6" d="M6.34431561.07286377a6.28928043 6.28928043 0 0 0-6.2895386 6.2895385 6.28928043 6.28928043 0 0 0 6.2895386 6.28902166 6.28928043 6.28928043 0 0 0 6.28902167-6.28902167A6.28928043 6.28928043 0 0 0 6.3443156.07286376zm-.01808691.93637693a5.40704372 5.40704372 0 0 1 5.40690507 5.40690505 5.40704372 5.40704372 0 0 1-5.40690507 5.40690508A5.40704372 5.40704372 0 0 1 .91880694 6.41614575 5.40704372 5.40704372 0 0 1 6.3262287 1.0092407zm1.98282478 1.34875488l-.35346693.70693348a3.15304669 3.15304669 0 0 1 1.74459633 2.81739919 3.15304669 3.15304669 0 0 1-1.7435626 2.81894938l.350883.70176574a3.94130816 3.94130816 0 0 0 2.18074529-3.52071512 3.94130816 3.94130816 0 0 0-2.1791951-3.52433267zm-3.91655692.00310058a3.94130816 3.94130816 0 0 0-2.18074529 3.52123209 3.94130816 3.94130816 0 0 0 2.1791951 3.52381577l.35295019-.70641685a3.15304669 3.15304669 0 0 1-1.7440796-2.81739892 3.15304669 3.15304669 0 0 1 1.7435626-2.81894938l-.350883-.70228271zm3.21117353 1.40663237l-.3524332.70590012a1.5765233 1.5765233 0 0 1 .87229816 1.4086996 1.5765233 1.5765233 0 0 1-.8712647 1.40921632l.350883.70279947a2.36478498 2.36478498 0 0 0 1.30844739-2.1120158 2.36478498 2.36478498 0 0 0-1.30793065-2.1145997zm-2.5068236.0020672a2.36478498 2.36478498 0 0 0-1.30896412 2.11253252A2.36478498 2.36478498 0 0 0 5.09581302 7.9969277l.3524332-.70589986a1.5765233 1.5765233 0 0 1-.87178143-1.4086996 1.5765233 1.5765233 0 0 1 .8712647-1.40973305l-.350883-.70279947zm1.25315343 1.1270628a.98532705.98532705 0 0 0-.98546945.98546972.98532705.98532705 0 0 0 .59117838.90227043v4.58266609a3.94130816 5.42962114 0 0 0 .39429107.03307291 3.94130816 5.42962114 0 0 0 .39429107-.0273886v-4.5883504H6.7427408a.98532705.98532705 0 0 0 .59272857-.90227043.98532705.98532705 0 0 0-.98546945-.98546972z"/>
  <path fill="#1a1a1a" d="M54.450447 57.2109c-.699603 0-1.262802.5632-1.262802 1.26281 0 .6996.563199 1.26286 1.262802 1.26286h2.915902v4.54958h2.621599v-4.54958h2.678879c.699604 0 1.262802-.56326 1.262802-1.26286 0-.69961-.563198-1.26281-1.262802-1.26281zm2.915902 7.07525h-3.762466c-.505822 0-.987151.40041-1.079176.89779l-1.570602 8.48895c-.09203.49738.241128.89779.746949.89779h4.58579v.032h4.539768v-.032h4.597049c.505821 0 .838974-.40041.746949-.89779l-1.570668-8.48895c-.09202-.49738-.573289-.89779-1.07911-.89779h-3.489167l-.0068 3.70486 2.545423.002-3.981976 3.2663-3.815203-3.25385 2.593287.009z"/>
</svg>
