<svg xmlns="http://www.w3.org/2000/svg" width="48" height="48" viewBox="0 0 12.7 12.7">
  <path fill="#e6e6e6" d="M6.34431561.07286377a6.28928043 6.28928043 0 0 0-6.2895386 6.2895385 6.28928043 6.28928043 0 0 0 6.2895386 6.28902166 6.28928043 6.28928043 0 0 0 6.28902167-6.28902167A6.28928043 6.28928043 0 0 0 6.3443156.07286376zm-.01808691.93637693a5.40704372 5.40704372 0 0 1 5.40690507 5.40690505 5.40704372 5.40704372 0 0 1-5.40690507 5.40690508A5.40704372 5.40704372 0 0 1 .91880694 6.41614575 5.40704372 5.40704372 0 0 1 6.3262287 1.0092407zm.02325449 1.55339355L2.4603149 4.91701237l.00361736 1.48259692-.00361736 3.12332367 1.29656175.6144326 1.36477452-.6144326V8.09046214L3.89381916 7.0662352V5.83840318L6.34948319 4.2007771l2.25205896 1.6376261v1.227832L7.57834867 8.09046215v1.43247082l1.3642578.6144326 1.2970785-.6144326V5.01933177L6.34948318 2.56263425z"/>
</svg>
