<svg xmlns="http://www.w3.org/2000/svg" width="48" height="48" viewBox="0 0 12.7 12.7">
  <path fill="#e6e6e6" d="M6.34431561.07286377a6.28928043 6.28928043 0 0 0-6.2895386 6.2895385 6.28928043 6.28928043 0 0 0 6.2895386 6.28902166 6.28928043 6.28928043 0 0 0 6.28902167-6.28902167A6.28928043 6.28928043 0 0 0 6.3443156.07286376zm-.01808691.93637693a5.40704372 5.40704372 0 0 1 5.40690507 5.40690505 5.40704372 5.40704372 0 0 1-5.40690507 5.40690508A5.40704372 5.40704372 0 0 1 .91880694 6.41614575 5.40704372 5.40704372 0 0 1 6.3262287 1.0092407zM3.24424644 2.22932125c-.1619496 0-.29093847.69253967-.29093847 1.55080963v4.84673268h-.97926828c0 .64443001.11170227 1.16323638.44648437 1.16323638h7.8114094c.33478205 0 .44648437-.51880637.44648437-1.16323638h-.93947746V3.78013088c0-.85826996-.12898755-1.55080963-.29093847-1.55080963h-.32711178l.08474948.19378662h-.3875733l-.08474949-.19378662H3.95324695l-.08526594.19378662h-.3875733l.08474921-.19378662h-.32091048zm.14521074.5813599h.38809004l-.0366903.38809003h-.3875733l.03617356-.38809003zm5.5133586 0h.38757303l.04237488.38809003h-.3875733l-.04237461-.38809003zm-2.70164398.24597968c.1728216.00600022.3476535.03503454.51934823.09353444.91570465.31284995 1.40868848 1.31682515 1.09605709 2.23190512-.11916199.34882005-.33904502.63546883-.61598307.84025871l.73432193 1.49448254a.3196365.3196365 0 1 1-.57412519.28111978l-.7338052-1.4939658c-.33178987.09380008-.69404573.0920115-1.04334705-.02738834-.91570492-.3128301-1.40869033-1.31679525-1.09605708-2.23190512.25401349-.74352996.96469622-1.20781126 1.71359034-1.18804133zM3.341398 3.5863445h.3875733v.38757304H3.341398v-.38757304zm5.62187903 0h.3875733v.38757304h-.3875733v-.38757304zm-2.78225907.1080037c-.47816347-.0144002-.92563658.27941958-1.08882232.7570597A1.1146728 1.1146728 0 0 0 5.790861 5.87199283c.58909901.20125002 1.21973894-.10872814 1.42058494-.69659817A1.11403377 1.11403377 0 0 0 6.5138143 3.7553262c-.11045613-.03769995-.22245161-.0575781-.33279635-.060978zM3.341398 4.36200757h.3875733v.3875733H3.341398v-.3875733zm5.62187903 0h.3875733v.3875733h-.3875733v-.3875733zm-5.62187903.7751466h.3875733v.38808978H3.341398v-.38808977zm5.62187903 0h.3875733v.38808978h-.3875733v-.38808977zM3.341398 5.91281725h.3875733v.3875733H3.341398v-.3875733zm5.62187903 0h.3875733v.3875733h-.3875733v-.3875733zM3.341398 6.68848058h.3875733v.3875733H3.341398v-.3875733zm5.62187903 0h.3875733v.3875733h-.3875733v-.3875733zM3.341398 7.46362692h.3875733v.3875733H3.341398v-.3875733zm5.62187903 0h.3875733v.3875733h-.3875733v-.3875733zM3.341398 8.23929026h.3875733v.3875733H3.341398v-.3875733zm5.62187903 0h.3875733v.3875733h-.3875733v-.3875733zm-6.54275297.77514634h.4464845c-.00615024.19983.01899338.31057003.05581041.38809004H2.4763346c-.04047-.07220003-.04785735-.19173984-.05581054-.38809004zm7.36544177 0h.44596763c-.00789992.1963502-.01534054.31582016-.0558104.38809004h-.43718269V9.3730711c.03088243-.07625053.05253514-.17866836.04702546-.3586345z"/>
</svg>
