<svg xmlns="http://www.w3.org/2000/svg" width="48" height="48" viewBox="0 0 12.7 12.7">
  <path fill="#e6e6e6" d="M6.34431561.07286377a6.28928043 6.28928043 0 0 0-6.2895386 6.2895385 6.28928043 6.28928043 0 0 0 6.2895386 6.28902166 6.28928043 6.28928043 0 0 0 6.28902167-6.28902167A6.28928043 6.28928043 0 0 0 6.3443156.07286376zm-.01808691.93637693a5.40704372 5.40704372 0 0 1 5.40690507 5.40690505 5.40704372 5.40704372 0 0 1-5.40690507 5.40690508A5.40704372 5.40704372 0 0 1 .91880694 6.41614575 5.40704372 5.40704372 0 0 1 6.3262287 1.0092407zM3.4974609 2.3864176c-.56879252 0-.56895762.56895756-.56895762.56895756v6.82542309s.0001651.56895761.56895761.56895761h5.68802487s.5689576-.00014764.5689576-.56895761v-6.8254231s-.00016536-.56895755-.5689576-.56895755H3.49746089zm2.8442708 1.13739817a2.27531332 2.27531332 0 1 1 0 4.55062664H4.0664185V5.79912922a2.27517007 2.27517007 0 0 1 2.2753132-2.27531345zm0 1.13791523a1.1376566 1.1376566 0 1 0 0 2.27531318 1.1376566 1.1376566 0 0 0 0-2.27531318z"/>
</svg>
