<svg xmlns="http://www.w3.org/2000/svg" width="48" height="48" viewBox="0 0 12.7 12.7">
  <path fill="#e6e6e6" d="M6.34431561.07286377a6.28928043 6.28928043 0 0 0-6.2895386 6.2895385 6.28928043 6.28928043 0 0 0 6.2895386 6.28902166 6.28928043 6.28928043 0 0 0 6.28902167-6.28902167A6.28928043 6.28928043 0 0 0 6.3443156.07286376zm-.01808691.93637693a5.40704372 5.40704372 0 0 1 5.40690507 5.40690505 5.40704372 5.40704372 0 0 1-5.40690507 5.40690508A5.40704372 5.40704372 0 0 1 .91880694 6.41614575 5.40704372 5.40704372 0 0 1 6.3262287 1.0092407zm-.45216868.75654296c-2.46592563.05362001-2.2697797 1.17415994-3.55068765 1.95802007 1.61627368-.06356006 1.48129411-.84483786 2.54299716-.81803795l.00258393 2.23603923a3.53678195 3.30436507 0 0 0-1.5048177 2.70267745 3.53678195 3.30436507 0 0 0 3.53673486 3.30419097 3.53678195 3.30436507 0 0 0 3.5367351-3.30419097 3.53678195 3.30436507 0 0 0-3.5367351-3.30470797 3.53678195 3.30436507 0 0 0-1.02629387.14314381l-.00051673-2.91713464zM6.90500473 4.8002237a3.23856134 3.02574136 0 0 1 3.23856214 3.02617184 3.23856134 3.02574136 0 0 1-3.23856214 3.0256551 3.23856134 3.02574136 0 0 1-3.23856187-3.0256551 3.23856134 3.02574136 0 0 1 1.2025106-2.35179444l.00413411 3.87314859c3.31202396.35776005 4.4142006-.82364685 4.4142006-1.69498696 0-.85386994-.55195523-1.78580598-3.41219469-.8790162l-.00051673-1.81229236a3.23856134 3.02574136 0 0 1 1.03042798-.16123047zm.41444492 2.30011814c.4312785.01370383.78703221.15667196.78703221.5705078 0 .84439998-1.67307575 1.0809806-2.23138838 1.04438052v-1.3260173c.21025458-.11009233.88985565-.30649068 1.44435617-.28887102z"/>
</svg>
