<?xml version="1.0" encoding="UTF-8" standalone="no"?>
<!-- Created with Inkscape (http://www.inkscape.org/) -->

<svg
   xmlns:dc="http://purl.org/dc/elements/1.1/"
   xmlns:cc="http://creativecommons.org/ns#"
   xmlns:rdf="http://www.w3.org/1999/02/22-rdf-syntax-ns#"
   xmlns:svg="http://www.w3.org/2000/svg"
   xmlns="http://www.w3.org/2000/svg"
   xmlns:sodipodi="http://sodipodi.sourceforge.net/DTD/sodipodi-0.dtd"
   xmlns:inkscape="http://www.inkscape.org/namespaces/inkscape"
   width="48"
   height="48"
   viewBox="0 0 12.7 12.7"
   version="1.1"
   id="svg829"
   inkscape:version="0.92.3 (2405546, 2018-03-11)"
   sodipodi:docname="media-player-banshee.svg">
  <defs
     id="defs823">
    <linearGradient
       id="linearGradient2252">
      <stop
         style="stop-color:#ffffff;stop-opacity:1;"
         offset="0"
         id="stop2254" />
      <stop
         style="stop-color:#d0d0d0;stop-opacity:1;"
         offset="1"
         id="stop2256" />
    </linearGradient>
  </defs>
  <sodipodi:namedview
     id="base"
     pagecolor="#ffffff"
     bordercolor="#666666"
     borderopacity="1.0"
     inkscape:pageopacity="0.0"
     inkscape:pageshadow="2"
     inkscape:zoom="5.6041667"
     inkscape:cx="24"
     inkscape:cy="22.725575"
     inkscape:document-units="mm"
     inkscape:current-layer="layer1"
     showgrid="false"
     showguides="true"
     inkscape:guide-bbox="true"
     inkscape:window-width="1366"
     inkscape:window-height="719"
     inkscape:window-x="0"
     inkscape:window-y="25"
     inkscape:window-maximized="1"
     scale-x="1.9"
     units="px"
     inkscape:snap-global="true" />
  <metadata
     id="metadata826">
    <rdf:RDF>
      <cc:Work
         rdf:about="">
        <dc:format>image/svg+xml</dc:format>
        <dc:type
           rdf:resource="http://purl.org/dc/dcmitype/StillImage" />
        <dc:title></dc:title>
      </cc:Work>
    </rdf:RDF>
  </metadata>
  <g
     inkscape:label="Capa 1"
     inkscape:groupmode="layer"
     id="layer1"
     transform="translate(0,-284.3)">
    <path
       style="fill:#1a1a1a;fill-opacity:1;stroke-width:0.52516764"
       d="M 23.978516 0.27539062 A 23.770509 23.770509 0 0 0 0.20703125 24.046875 A 23.770509 23.770509 0 0 0 23.978516 47.816406 A 23.770509 23.770509 0 0 0 47.748047 24.046875 A 23.770509 23.770509 0 0 0 23.978516 0.27539062 z M 23.910156 3.8144531 A 20.436071 20.436071 0 0 1 44.345703 24.25 A 20.436071 20.436071 0 0 1 23.910156 44.685547 A 20.436071 20.436071 0 0 1 3.4726562 24.25 A 20.436071 20.436071 0 0 1 23.910156 3.8144531 z M 22.201172 6.6738281 C 12.881138 6.8764864 13.622477 11.111598 8.78125 14.074219 C 14.890001 13.833992 14.379842 10.881131 18.392578 10.982422 L 18.402344 19.433594 A 13.367365 12.488939 0 0 0 12.714844 29.648438 A 13.367365 12.488939 0 0 0 26.082031 42.136719 A 13.367365 12.488939 0 0 0 39.449219 29.648438 A 13.367365 12.488939 0 0 0 26.082031 17.158203 A 13.367365 12.488939 0 0 0 22.203125 17.699219 L 22.201172 6.6738281 z M 26.097656 18.142578 A 12.240232 11.435873 0 0 1 38.337891 29.580078 A 12.240232 11.435873 0 0 1 26.097656 41.015625 A 12.240232 11.435873 0 0 1 13.857422 29.580078 A 12.240232 11.435873 0 0 1 18.402344 20.691406 L 18.417969 35.330078 C 30.935855 36.682242 35.101562 32.217082 35.101562 28.923828 C 35.101562 25.696603 33.015432 22.174325 22.205078 25.601562 L 22.203125 18.751953 A 12.240232 11.435873 0 0 1 26.097656 18.142578 z M 27.664062 26.835938 C 29.294091 26.887732 30.638672 27.428084 30.638672 28.992188 C 30.638672 32.183621 24.315236 33.077784 22.205078 32.939453 L 22.205078 27.927734 C 22.999741 27.511637 25.568312 26.769344 27.664062 26.835938 z "
       transform="matrix(0.26458333,0,0,0.26458333,0,284.3)"
       id="path834" />
  </g>
</svg>
