<svg xmlns="http://www.w3.org/2000/svg" width="48" height="48" viewBox="0 0 12.7 12.7">
  <path fill="#e6e6e6" d="M6.3443156.07286A6.2892804 6.2892804 0 0 0 .05477702 6.3624a6.2892804 6.2892804 0 0 0 6.28953858 6.28902A6.2892804 6.2892804 0 0 0 12.633337 6.3624 6.2892804 6.2892804 0 0 0 6.3443156.07286zm-.018087.93638a5.4070437 5.4070437 0 0 1 5.4069054 5.40691 5.4070437 5.4070437 0 0 1-5.4069054 5.4069 5.4070437 5.4070437 0 0 1-5.40742176-5.4069A5.4070437 5.4070437 0 0 1 6.3262286 1.00924z"/>
  <path fill="maroon" d="M2.690792 3.65373h1.5406044l2.157137 1.92596 2.0800702-1.92596h1.5406044v5.39254H8.4686036V5.96501L6.5426665 7.50564h-.385333L4.2313964 5.96501v3.08126H2.690792z" opacity=".75"/>
</svg>
