<?xml version="1.0" encoding="UTF-8" standalone="no"?>
<!-- Created with Inkscape (http://www.inkscape.org/) -->

<svg
   xmlns:dc="http://purl.org/dc/elements/1.1/"
   xmlns:cc="http://creativecommons.org/ns#"
   xmlns:rdf="http://www.w3.org/1999/02/22-rdf-syntax-ns#"
   xmlns:svg="http://www.w3.org/2000/svg"
   xmlns="http://www.w3.org/2000/svg"
   xmlns:sodipodi="http://sodipodi.sourceforge.net/DTD/sodipodi-0.dtd"
   xmlns:inkscape="http://www.inkscape.org/namespaces/inkscape"
   width="48"
   height="48"
   viewBox="0 0 12.7 12.7"
   version="1.1"
   id="svg829"
   inkscape:version="0.92.3 (2405546, 2018-03-11)"
   sodipodi:docname="meld.svg">
  <defs
     id="defs823" />
  <sodipodi:namedview
     id="base"
     pagecolor="#ffffff"
     bordercolor="#666666"
     borderopacity="1.0"
     inkscape:pageopacity="0.0"
     inkscape:pageshadow="2"
     inkscape:zoom="5.6041667"
     inkscape:cx="21.591078"
     inkscape:cy="23.286245"
     inkscape:document-units="mm"
     inkscape:current-layer="layer1"
     showgrid="false"
     showguides="true"
     inkscape:guide-bbox="true"
     inkscape:window-width="1366"
     inkscape:window-height="719"
     inkscape:window-x="0"
     inkscape:window-y="25"
     inkscape:window-maximized="1"
     scale-x="1.9"
     units="px"
     inkscape:snap-global="true" />
  <metadata
     id="metadata826">
    <rdf:RDF>
      <cc:Work
         rdf:about="">
        <dc:format>image/svg+xml</dc:format>
        <dc:type
           rdf:resource="http://purl.org/dc/dcmitype/StillImage" />
        <dc:title></dc:title>
      </cc:Work>
    </rdf:RDF>
  </metadata>
  <g
     inkscape:label="Capa 1"
     inkscape:groupmode="layer"
     id="layer1"
     transform="translate(0,-284.3)">
    <path
       style="fill:#e6e6e6;fill-opacity:1;stroke-width:0.52516764"
       d="M 23.978516 0.27539062 A 23.770509 23.770509 0 0 0 0.20703125 24.046875 A 23.770509 23.770509 0 0 0 23.978516 47.816406 A 23.770509 23.770509 0 0 0 47.748047 24.046875 A 23.770509 23.770509 0 0 0 23.978516 0.27539062 z M 23.910156 3.8144531 A 20.436071 20.436071 0 0 1 44.345703 24.25 A 20.436071 20.436071 0 0 1 23.910156 44.685547 A 20.436071 20.436071 0 0 1 3.4726562 24.25 A 20.436071 20.436071 0 0 1 23.910156 3.8144531 z M 12.060547 9.765625 C 10.799534 9.765625 9.7851562 10.781464 9.7851562 12.044922 L 9.7851562 35.955078 C 9.7851562 37.218536 10.799534 38.234375 12.060547 38.234375 L 35.9375 38.234375 C 37.198513 38.234375 38.214844 37.218536 38.214844 35.955078 L 38.214844 12.044922 C 38.214844 10.781464 37.198513 9.765625 35.9375 9.765625 L 12.060547 9.765625 z M 13.128906 11.039062 L 34.871094 11.039062 C 36.019259 11.039062 36.943359 11.966775 36.943359 13.117188 L 36.943359 34.882812 C 36.943359 36.033225 36.019259 36.960938 34.871094 36.960938 L 13.128906 36.960938 C 11.980739 36.960938 11.054688 36.033225 11.054688 34.882812 L 11.054688 13.117188 C 11.054688 11.966775 11.980739 11.039062 13.128906 11.039062 z M 19.263672 12.669922 L 12.6875 12.671875 C 12.687498 17.78516 12.687506 22.748928 12.6875 27.876953 L 13.878906 28.746094 C 13.880627 28.747265 13.883065 28.749206 13.884766 28.75 C 17.162916 30.976973 19.342089 31.706371 22.023438 31.546875 C 25.857441 31.318969 28.769119 28.657017 28.771484 25.515625 C 28.772364 24.374926 28.345076 23.238813 27.734375 22.453125 C 27.122156 21.665509 26.362773 21.263672 25.755859 21.263672 C 25.341191 21.263672 25.071211 21.437522 24.732422 21.554688 C 24.782943 21.555897 24.829707 21.535283 24.880859 21.539062 C 25.590138 21.596511 26.215015 21.938396 26.732422 22.410156 C 27.453033 23.066471 27.810541 23.983284 27.810547 25.009766 C 27.810547 27.842068 25.488468 30.113518 22.482422 30.099609 C 18.228704 30.080712 15.141635 26.12707 15.160156 21.611328 C 15.173649 18.321136 16.432549 15.584958 19.263672 12.669922 z M 26.947266 16.433594 C 26.639918 16.422255 26.325303 16.432413 25.976562 16.453125 C 22.142578 16.681031 19.230882 19.340954 19.228516 22.482422 C 19.227637 23.623083 19.654924 24.761149 20.265625 25.546875 C 20.877844 26.334491 21.637228 26.734375 22.244141 26.734375 C 22.658801 26.734375 22.928789 26.559769 23.267578 26.443359 C 23.217061 26.442188 23.170289 26.462764 23.119141 26.458984 C 22.409868 26.401536 21.784992 26.057358 21.267578 25.585938 C 20.54696 24.929623 20.189453 24.014801 20.189453 22.988281 C 20.189453 20.155979 22.511552 17.882538 25.517578 17.896484 C 29.771303 17.915382 32.858365 21.871015 32.839844 26.386719 C 32.826351 29.676911 31.567454 32.413127 28.736328 35.328125 L 35.3125 35.328125 C 35.3125 30.214802 35.312506 25.249119 35.3125 20.121094 L 34.119141 19.255859 L 34.117188 19.255859 C 31.24995 17.307891 29.195409 16.514905 26.947266 16.4375 L 26.947266 16.433594 z "
       transform="matrix(0.26458333,0,0,0.26458333,0,284.3)"
       id="path834" />
  </g>
</svg>
