<?xml version="1.0" encoding="UTF-8" standalone="no"?>
<!-- Created with Inkscape (http://www.inkscape.org/) -->

<svg
   xmlns:dc="http://purl.org/dc/elements/1.1/"
   xmlns:cc="http://creativecommons.org/ns#"
   xmlns:rdf="http://www.w3.org/1999/02/22-rdf-syntax-ns#"
   xmlns:svg="http://www.w3.org/2000/svg"
   xmlns="http://www.w3.org/2000/svg"
   xmlns:sodipodi="http://sodipodi.sourceforge.net/DTD/sodipodi-0.dtd"
   xmlns:inkscape="http://www.inkscape.org/namespaces/inkscape"
   width="48"
   height="48"
   viewBox="0 0 12.7 12.7"
   version="1.1"
   id="svg829"
   inkscape:version="0.92.3 (2405546, 2018-03-11)"
   sodipodi:docname="menu-editor.svg">
  <defs
     id="defs823" />
  <sodipodi:namedview
     id="base"
     pagecolor="#ffffff"
     bordercolor="#666666"
     borderopacity="1.0"
     inkscape:pageopacity="0.0"
     inkscape:pageshadow="2"
     inkscape:zoom="3.9553786"
     inkscape:cx="20.586926"
     inkscape:cy="22.988719"
     inkscape:document-units="mm"
     inkscape:current-layer="layer1"
     showgrid="false"
     showguides="true"
     inkscape:guide-bbox="true"
     inkscape:window-width="1366"
     inkscape:window-height="719"
     inkscape:window-x="0"
     inkscape:window-y="25"
     inkscape:window-maximized="1"
     scale-x="1.9"
     units="px"
     inkscape:snap-global="false" />
  <metadata
     id="metadata826">
    <rdf:RDF>
      <cc:Work
         rdf:about="">
        <dc:format>image/svg+xml</dc:format>
        <dc:type
           rdf:resource="http://purl.org/dc/dcmitype/StillImage" />
        <dc:title></dc:title>
      </cc:Work>
    </rdf:RDF>
  </metadata>
  <g
     inkscape:label="Capa 1"
     inkscape:groupmode="layer"
     id="layer1"
     transform="translate(0,-284.3)">
    <path
       style="fill:#e6e6e6;fill-opacity:1;stroke-width:0.52516764"
       d="M 23.978516 0.27539062 A 23.770509 23.770509 0 0 0 0.20703125 24.046875 A 23.770509 23.770509 0 0 0 23.978516 47.816406 A 23.770509 23.770509 0 0 0 47.748047 24.046875 A 23.770509 23.770509 0 0 0 23.978516 0.27539062 z M 23.910156 3.8144531 A 20.436071 20.436071 0 0 1 39.759766 11.367188 L 8.0644531 11.367188 A 20.436071 20.436071 0 0 1 23.910156 3.8144531 z M 15.240234 6.9726562 L 15.240234 10.369141 L 18.636719 10.369141 L 18.636719 6.9726562 L 15.240234 6.9726562 z M 20.513672 7.9550781 L 20.513672 9.296875 L 32.222656 9.296875 L 32.222656 7.9550781 L 20.513672 7.9550781 z M 6.8808594 12.974609 L 11.017578 12.974609 L 11.017578 36.384766 C 11.017578 37.77412 11.986543 38.892578 13.189453 38.892578 L 27.939453 38.892578 C 29.142364 38.892578 30.111328 37.77412 30.111328 36.384766 L 30.111328 28.212891 L 36.310547 22.013672 L 32.560547 18.263672 L 30.111328 20.712891 L 30.111328 12.974609 L 40.9375 12.974609 A 20.436071 20.436071 0 0 1 44.345703 24.25 A 20.436071 20.436071 0 0 1 23.910156 44.685547 A 20.436071 20.436071 0 0 1 3.4726562 24.25 A 20.436071 20.436071 0 0 1 6.8808594 12.974609 z M 12.574219 12.974609 L 28.556641 12.974609 C 28.60029 13.156027 28.630859 13.345035 28.630859 13.542969 L 28.630859 22.193359 L 25.501953 25.322266 L 23.955078 25.322266 L 23.955078 25.375 L 19.128906 25.375 L 19.128906 26.714844 L 23.955078 26.714844 L 23.955078 26.867188 L 21.496094 29.328125 L 21.496094 30.738281 L 19.083984 30.738281 L 19.083984 32.078125 L 21.496094 32.078125 L 21.496094 33.078125 L 25.246094 33.078125 L 26.246094 32.078125 L 27.128906 32.078125 L 27.128906 31.195312 L 28.630859 29.693359 L 28.630859 34.464844 C 28.630859 35.638652 27.811221 36.583984 26.794922 36.583984 L 14.333984 36.583984 C 13.317685 36.583984 12.5 35.638652 12.5 34.464844 L 12.5 13.542969 C 12.5 13.344922 12.530614 13.15614 12.574219 12.974609 z M 13.855469 14.390625 L 13.855469 17.787109 L 17.251953 17.787109 L 17.251953 14.390625 L 13.855469 14.390625 z M 36.158203 15.080078 C 35.901955 15.080078 35.646173 15.178023 35.451172 15.373047 L 33.621094 17.203125 L 37.371094 20.953125 L 39.201172 19.123047 C 39.59117 18.733037 39.59117 18.098994 39.201172 17.708984 L 36.865234 15.373047 C 36.670233 15.178023 36.414454 15.080078 36.158203 15.080078 z M 19.128906 15.375 L 19.128906 16.714844 L 27.173828 16.714844 L 27.173828 15.375 L 19.128906 15.375 z M 13.855469 19.21875 L 13.855469 22.615234 L 17.251953 22.615234 L 17.251953 19.21875 L 13.855469 19.21875 z M 19.128906 20.201172 L 19.128906 21.541016 L 27.173828 21.541016 L 27.173828 20.201172 L 19.128906 20.201172 z M 13.855469 24.390625 L 13.855469 27.787109 L 17.251953 27.787109 L 17.251953 24.390625 L 13.855469 24.390625 z M 13.810547 29.753906 L 13.810547 33.150391 L 17.207031 33.150391 L 17.207031 29.753906 L 13.810547 29.753906 z "
       transform="matrix(0.26458333,0,0,0.26458333,0,284.3)"
       id="path877" />
    <path
       inkscape:connector-curvature="0"
       style="opacity:1;fill:#1a1a1a;fill-opacity:1;stroke:none;stroke-width:0.0263895"
       d="m 54.450447,341.5109 c -0.699603,0 -1.262802,0.5632 -1.262802,1.26281 0,0.6996 0.563199,1.26286 1.262802,1.26286 h 2.915902 v 4.54958 h 2.621599 v -4.54958 h 2.678879 c 0.699604,0 1.262802,-0.56326 1.262802,-1.26286 0,-0.69961 -0.563198,-1.26281 -1.262802,-1.26281 z m 2.915902,7.07525 h -3.762466 c -0.505822,0 -0.987151,0.40041 -1.079176,0.89779 l -1.570602,8.48895 c -0.09203,0.49738 0.241128,0.89779 0.746949,0.89779 h 4.58579 v 0.032 h 4.539768 v -0.032 h 4.597049 c 0.505821,0 0.838974,-0.40041 0.746949,-0.89779 l -1.570668,-8.48895 c -0.09202,-0.49738 -0.573289,-0.89779 -1.07911,-0.89779 h -3.489167 l -0.0068,3.70486 2.545423,0.002 -3.981976,3.2663 -3.815203,-3.25385 2.593287,0.009 z"
       id="rect827" />
  </g>
</svg>
