<svg xmlns="http://www.w3.org/2000/svg" width="48" height="48" viewBox="0 0 12.7 12.7">
  <defs>
    <clipPath id="a"/>
  </defs>
  <path fill="#e6e6e6" d="M6.34431561.07286377a6.28928043 6.28928043 0 0 0-6.2895386 6.2895385 6.28928043 6.28928043 0 0 0 6.2895386 6.28902166 6.28928043 6.28928043 0 0 0 6.28902167-6.28902167A6.28928043 6.28928043 0 0 0 6.3443156.07286376zm-.01808691.93637693a5.40704372 5.40704372 0 0 1 5.40690507 5.40690505 5.40704372 5.40704372 0 0 1-5.40690507 5.40690508A5.40704372 5.40704372 0 0 1 .91880694 6.41614575 5.40704372 5.40704372 0 0 1 6.3262287 1.0092407zM3.67832847 2.5140584l-.8790162.88366701.01291907 5.20174955 1.76319998-.00413412-.01291907-5.20226627-.88418378-.87901618zm5.31957167 0l-.87953266.88366701.0134358 5.20174955 1.76268299-.00413412-.01291908-5.20226627-.88366705-.87901618zm-3.1889525.00051675c-.18336233-.00047998-.33285244.14840262-.33331308.33176257l-.00258365.86041282 1.76319971.00413412.0020672-.86092955c.00046063-.18337001-.14840056-.3328429-.33176263-.33331288l-1.09760754-.00206708zm-.3369302 1.69033606l-.01343607 5.20174954.87953294.88366705.88366704-.87953293.01343581-5.20226628-1.76319971-.00361738zM4.5764648 9.09350178l-1.76268299.00413411.00206693.86041255c.00046064.18335996.14995075.33224258.33331308.33176263l1.098124-.0020672c.18336234-.0004699.33222327-.1499428.3317629-.33331281l-.00258392-.86092928zm5.31957194 0l-1.76319998.00413411.00206719.86041255c.00046063.18335996.14995075.33224258.33331281.33176263l1.09812428-.0020672c.1833626-.0004699.33222352-.1499428.33176262-.33331281l-.00206692-.86092928z"/>
</svg>
