<?xml version="1.0" encoding="UTF-8" standalone="no"?>
<!-- Created with Inkscape (http://www.inkscape.org/) -->

<svg
   xmlns:dc="http://purl.org/dc/elements/1.1/"
   xmlns:cc="http://creativecommons.org/ns#"
   xmlns:rdf="http://www.w3.org/1999/02/22-rdf-syntax-ns#"
   xmlns:svg="http://www.w3.org/2000/svg"
   xmlns="http://www.w3.org/2000/svg"
   xmlns:sodipodi="http://sodipodi.sourceforge.net/DTD/sodipodi-0.dtd"
   xmlns:inkscape="http://www.inkscape.org/namespaces/inkscape"
   width="48"
   height="48"
   viewBox="0 0 12.7 12.7"
   version="1.1"
   id="svg829"
   inkscape:version="0.92.3 (2405546, 2018-03-11)"
   sodipodi:docname="mtpaint.svg">
  <defs
     id="defs823">
    <clipPath
       clipPathUnits="userSpaceOnUse"
       id="clipPath927">
      <g
         id="use929"
         inkscape:label="Clip">
        <path
           inkscape:connector-curvature="0"
           style="fill:#2ca089;stroke-width:0.04113208"
           d="m -5.7439193,283.47477 -10.9563497,10.95625 0.303419,0.30344 0.772914,-0.77193 0.772904,0.77193 -0.772904,0.77291 1.158933,1.15899 0.772903,-0.77206 0.772915,0.77206 -0.772915,0.7729 0.386017,0.38597 10.9563553,-10.95542 z m -0.6077207,1.2145 0.7729092,0.7729 -0.7729092,0.77303 -0.7720389,-0.77303 z m -1.5449483,1.54593 0.7729094,0.77193 -0.7729094,0.77291 -0.7729089,-0.77291 z m 3.4767859,0.38596 0.772909,0.7729 -0.772909,0.77291 -0.7720391,-0.77291 z m -5.0226039,1.15888 0.7729091,0.7729 -0.7729091,0.7729 -0.7729097,-0.7729 z m 3.4776558,0.38693 0.772909,0.77205 -0.772909,0.77291 -0.7729089,-0.77291 z m -5.0226005,1.15887 0.772035,0.7729 -0.772035,0.77206 -0.772914,-0.77206 z m 3.4767826,0.38609 0.772909,0.7729 -0.772909,0.7729 -0.7729089,-0.7729 z m -5.0225996,1.15887 0.772903,0.77291 -0.772903,0.7729 -0.772915,-0.7729 z m 3.4776512,0.38693 0.7720395,0.77291 -0.7720395,0.77205 -0.7729089,-0.77205 z m -5.0234692,1.15888 0.772903,0.7729 -0.772903,0.77302 -0.772046,-0.77302 z m 3.477653,0.38608 0.7729073,0.77291 -0.7729073,0.7729 -0.772915,-0.7729 z m -1.545818,1.54581 0.772903,0.7729 -0.772903,0.77291 -0.772034,-0.77291 z"
           id="path970" />
        <path
           inkscape:connector-curvature="0"
           style="fill:#1a1a1a;fill-opacity:1;stroke-width:0.1389506"
           d="m -9.5487714,285.30924 a 5.4070438,5.4070438 0 0 1 5.4069053,5.40691 5.4070438,5.4070438 0 0 1 -5.4069053,5.4069 5.4070438,5.4070438 0 0 1 -5.4074216,-5.4069 5.4070438,5.4070438 0 0 1 5.4074216,-5.40691 z"
           id="path972" />
      </g>
    </clipPath>
    <clipPath
       clipPathUnits="userSpaceOnUse"
       id="clipPath944">
      <g
         inkscape:label="Clip"
         id="use946"
         transform="translate(0,-3.9583333e-6)">
        <g
           clip-path="url(#clipPath927)"
           id="g959">
          <g
             id="g957"
             inkscape:label="Clip">
            <path
               inkscape:connector-curvature="0"
               style="fill:#2ca089;stroke-width:0.04113208"
               d="m -5.7439193,283.47477 -10.9563497,10.95625 0.303419,0.30344 0.772914,-0.77193 0.772904,0.77193 -0.772904,0.77291 1.158933,1.15899 0.772903,-0.77206 0.772915,0.77206 -0.772915,0.7729 0.386017,0.38597 10.9563553,-10.95542 z m -0.6077207,1.2145 0.7729092,0.7729 -0.7729092,0.77303 -0.7720389,-0.77303 z m -1.5449483,1.54593 0.7729094,0.77193 -0.7729094,0.77291 -0.7729089,-0.77291 z m 3.4767859,0.38596 0.772909,0.7729 -0.772909,0.77291 -0.7720391,-0.77291 z m -5.0226039,1.15888 0.7729091,0.7729 -0.7729091,0.7729 -0.7729097,-0.7729 z m 3.4776558,0.38693 0.772909,0.77205 -0.772909,0.77291 -0.7729089,-0.77291 z m -5.0226005,1.15887 0.772035,0.7729 -0.772035,0.77206 -0.772914,-0.77206 z m 3.4767826,0.38609 0.772909,0.7729 -0.772909,0.7729 -0.7729089,-0.7729 z m -5.0225996,1.15887 0.772903,0.77291 -0.772903,0.7729 -0.772915,-0.7729 z m 3.4776512,0.38693 0.7720395,0.77291 -0.7720395,0.77205 -0.7729089,-0.77205 z m -5.0234692,1.15888 0.772903,0.7729 -0.772903,0.77302 -0.772046,-0.77302 z m 3.477653,0.38608 0.7729073,0.77291 -0.7729073,0.7729 -0.772915,-0.7729 z m -1.545818,1.54581 0.772903,0.7729 -0.772903,0.77291 -0.772034,-0.77291 z"
               id="path953" />
            <path
               inkscape:connector-curvature="0"
               style="fill:#1a1a1a;fill-opacity:1;stroke-width:0.1389506"
               d="m -9.5487714,285.30924 a 5.4070438,5.4070438 0 0 1 5.4069053,5.40691 5.4070438,5.4070438 0 0 1 -5.4069053,5.4069 5.4070438,5.4070438 0 0 1 -5.4074216,-5.4069 5.4070438,5.4070438 0 0 1 5.4074216,-5.40691 z"
               id="path955" />
          </g>
        </g>
      </g>
    </clipPath>
    <clipPath
       clipPathUnits="userSpaceOnUse"
       id="clipPath978">
      <path
         inkscape:connector-curvature="0"
         style="fill:#1a1a1a;fill-opacity:1;stroke-width:0.1389506"
         d="m -9.5487715,285.30924 a 5.4070438,5.4070438 0 0 1 5.4069054,5.40691 5.4070438,5.4070438 0 0 1 -5.4069054,5.4069 5.4070438,5.4070438 0 0 1 -5.4074215,-5.4069 5.4070438,5.4070438 0 0 1 5.4074215,-5.40691 z"
         id="path980" />
    </clipPath>
  </defs>
  <sodipodi:namedview
     id="base"
     pagecolor="#ffffff"
     bordercolor="#666666"
     borderopacity="1.0"
     inkscape:pageopacity="0.0"
     inkscape:pageshadow="2"
     inkscape:zoom="2.7864583"
     inkscape:cx="19.15514"
     inkscape:cy="22.564486"
     inkscape:document-units="mm"
     inkscape:current-layer="layer1"
     showgrid="false"
     showguides="true"
     inkscape:guide-bbox="true"
     inkscape:window-width="1366"
     inkscape:window-height="719"
     inkscape:window-x="0"
     inkscape:window-y="25"
     inkscape:window-maximized="1"
     scale-x="1.9"
     units="px"
     inkscape:snap-global="true" />
  <metadata
     id="metadata826">
    <rdf:RDF>
      <cc:Work
         rdf:about="">
        <dc:format>image/svg+xml</dc:format>
        <dc:type
           rdf:resource="http://purl.org/dc/dcmitype/StillImage" />
        <dc:title></dc:title>
      </cc:Work>
    </rdf:RDF>
  </metadata>
  <g
     inkscape:label="Capa 1"
     inkscape:groupmode="layer"
     id="layer1"
     transform="translate(0,-284.3)">
    <path
       style="fill:#e6e6e6;fill-opacity:1;stroke-width:0.52516764"
       d="M 23.978516 0.27539062 A 23.770509 23.770509 0 0 0 0.20703125 24.046875 A 23.770509 23.770509 0 0 0 23.978516 47.816406 A 23.770509 23.770509 0 0 0 47.748047 24.046875 A 23.770509 23.770509 0 0 0 23.978516 0.27539062 z M 23.910156 3.8144531 A 20.436071 20.436071 0 0 1 44.345703 24.25 A 20.436071 20.436071 0 0 1 23.910156 44.685547 A 20.436071 20.436071 0 0 1 3.4726562 24.25 A 20.436071 20.436071 0 0 1 23.910156 3.8144531 z M 13.902344 9.5019531 L 10.580078 12.841797 L 10.628906 32.501953 L 17.292969 32.486328 L 17.244141 12.824219 L 13.902344 9.5019531 z M 34.007812 9.5019531 L 30.683594 12.841797 L 30.734375 32.501953 L 37.396484 32.486328 L 37.347656 12.824219 L 34.007812 9.5019531 z M 21.955078 9.5039062 C 21.262055 9.5020921 20.697053 10.064798 20.695312 10.757812 L 20.685547 14.009766 L 27.349609 14.025391 L 27.357422 10.771484 C 27.359163 10.078432 26.796538 9.5134951 26.103516 9.5117188 L 21.955078 9.5039062 z M 20.681641 15.892578 L 20.630859 35.552734 L 23.955078 38.892578 L 27.294922 35.568359 L 27.345703 15.90625 L 20.681641 15.892578 z M 17.296875 34.369141 L 10.634766 34.384766 L 10.642578 37.636719 C 10.644319 38.329733 11.209321 38.892439 11.902344 38.890625 L 16.052734 38.882812 C 16.745757 38.881036 17.308381 38.316099 17.306641 37.623047 L 17.296875 34.369141 z M 37.402344 34.369141 L 30.738281 34.384766 L 30.746094 37.636719 C 30.747835 38.329733 31.312837 38.892439 32.005859 38.890625 L 36.15625 38.882812 C 36.849274 38.881036 37.411898 38.316099 37.410156 37.623047 L 37.402344 34.369141 z "
       transform="matrix(0.26458333,0,0,0.26458333,0,284.3)"
       id="path862" />
  </g>
</svg>
