<?xml version="1.0" encoding="UTF-8" standalone="no"?>
<!-- Created with Inkscape (http://www.inkscape.org/) -->

<svg
   xmlns:dc="http://purl.org/dc/elements/1.1/"
   xmlns:cc="http://creativecommons.org/ns#"
   xmlns:rdf="http://www.w3.org/1999/02/22-rdf-syntax-ns#"
   xmlns:svg="http://www.w3.org/2000/svg"
   xmlns="http://www.w3.org/2000/svg"
   xmlns:sodipodi="http://sodipodi.sourceforge.net/DTD/sodipodi-0.dtd"
   xmlns:inkscape="http://www.inkscape.org/namespaces/inkscape"
   width="48"
   height="48"
   viewBox="0 0 12.7 12.7"
   version="1.1"
   id="svg829"
   inkscape:version="0.92.3 (2405546, 2018-03-11)"
   sodipodi:docname="nomacs.svg">
  <defs
     id="defs823" />
  <sodipodi:namedview
     id="base"
     pagecolor="#ffffff"
     bordercolor="#666666"
     borderopacity="1.0"
     inkscape:pageopacity="0.0"
     inkscape:pageshadow="2"
     inkscape:zoom="5.6041667"
     inkscape:cx="21.591078"
     inkscape:cy="23.286245"
     inkscape:document-units="mm"
     inkscape:current-layer="layer1"
     showgrid="false"
     showguides="true"
     inkscape:guide-bbox="true"
     inkscape:window-width="1366"
     inkscape:window-height="719"
     inkscape:window-x="0"
     inkscape:window-y="25"
     inkscape:window-maximized="1"
     scale-x="1.9"
     units="px"
     inkscape:snap-global="false" />
  <metadata
     id="metadata826">
    <rdf:RDF>
      <cc:Work
         rdf:about="">
        <dc:format>image/svg+xml</dc:format>
        <dc:type
           rdf:resource="http://purl.org/dc/dcmitype/StillImage" />
        <dc:title></dc:title>
      </cc:Work>
    </rdf:RDF>
  </metadata>
  <g
     inkscape:label="Capa 1"
     inkscape:groupmode="layer"
     id="layer1"
     transform="translate(0,-284.3)">
    <path
       style="fill:#e6e6e6;fill-opacity:1;stroke-width:0.52516764"
       d="M 23.978516 0.27539062 A 23.770509 23.770509 0 0 0 0.20703125 24.046875 A 23.770509 23.770509 0 0 0 23.978516 47.816406 A 23.770509 23.770509 0 0 0 47.748047 24.046875 A 23.770509 23.770509 0 0 0 23.978516 0.27539062 z M 23.910156 3.8144531 A 20.436071 20.436071 0 0 1 44.345703 24.25 A 20.436071 20.436071 0 0 1 23.910156 44.685547 A 20.436071 20.436071 0 0 1 3.4726562 24.25 A 20.436071 20.436071 0 0 1 23.910156 3.8144531 z M 11.138672 9.8496094 L 11.138672 16.923828 L 12.746094 16.923828 L 12.746094 11.621094 L 17.568359 11.621094 L 17.568359 9.8496094 L 11.138672 9.8496094 z M 30.431641 9.8496094 L 30.431641 11.621094 L 35.253906 11.621094 L 35.253906 16.923828 L 36.861328 16.923828 L 36.861328 9.8496094 L 30.431641 9.8496094 z M 29.294922 13.695312 C 29.088718 13.695312 28.882522 13.779959 28.726562 13.951172 L 26.021484 16.923828 L 16.765625 16.923828 L 23.197266 24.882812 L 23.197266 32.841797 L 19.982422 32.841797 C 19.540271 32.841797 19.175781 33.240326 19.175781 33.726562 C 19.175781 34.21295 19.540272 34.611328 19.982422 34.611328 L 28.019531 34.611328 C 28.461682 34.611328 28.824219 34.212837 28.824219 33.726562 C 28.824219 33.240213 28.461685 32.841797 28.019531 32.841797 L 24.804688 32.841797 L 24.804688 24.882812 L 31.236328 16.923828 L 28.294922 16.923828 L 29.861328 15.201172 C 30.173241 14.857991 30.173241 14.29424 29.861328 13.951172 C 29.70537 13.779581 29.501127 13.695312 29.294922 13.695312 z M 11.138672 31.076172 L 11.138672 38.150391 L 17.568359 38.150391 L 17.568359 36.378906 L 12.746094 36.378906 L 12.746094 31.076172 L 11.138672 31.076172 z M 35.253906 31.076172 L 35.253906 36.378906 L 30.431641 36.378906 L 30.431641 38.150391 L 36.861328 38.150391 L 36.861328 31.076172 L 35.253906 31.076172 z "
       transform="matrix(0.26458333,0,0,0.26458333,0,284.3)"
       id="path822" />
  </g>
</svg>
