<svg xmlns="http://www.w3.org/2000/svg" width="48" height="48" viewBox="0 0 12.7 12.7">
  <path fill="#e6e6e6" d="M6.34431561.07286377a6.28928043 6.28928043 0 0 0-6.2895386 6.2895385 6.28928043 6.28928043 0 0 0 6.2895386 6.28902166 6.28928043 6.28928043 0 0 0 6.28902167-6.28902167A6.28928043 6.28928043 0 0 0 6.3443156.07286376zm-.01808691.93637693a5.40704372 5.40704372 0 0 1 5.40690507 5.40690505 5.40704372 5.40704372 0 0 1-5.40690507 5.40690508A5.40704372 5.40704372 0 0 1 .91880694 6.41614575 5.40704372 5.40704372 0 0 1 6.3262287 1.0092407zM2.94710693 2.60604245v1.87172032H3.372404V3.07474775h1.27589093v-.4687053h-1.701188zm5.10459798 0v.4687053h1.27589093v1.40301502h.42529707V2.60604245h-1.701188zm-.3007569 1.0175088c-.05455814 0-.10911416.02239619-.15037858.0676963l-.71571854.78651522h-2.448946l1.701705 2.10581449V8.689392h-.85059414c-.11698578 0-.21342376.10544413-.21342376.23409407 0 .12869016.09643824.23409434.21342376.23409434h2.12648507c.11698578 0 .21290703-.10543408.21290703-.23409434 0-.12867983-.09592046-.23409407-.21290703-.23409407h-.85059387V6.58357726l1.70170473-2.1058145h-.778247l.41444492-.45578605c.08252698-.09079997.08252698-.2399591 0-.33072916-.04126389-.04540012-.09530318-.0676963-.14986159-.0676963zM2.94710693 8.22223707v1.87172042h1.701188v-.4687054H3.372404V8.22223707h-.42529707zm6.38048891 0V9.6252521H8.05170491v.4687054h1.701188V8.22223707h-.42529707z"/>
</svg>
