<?xml version="1.0" encoding="UTF-8" standalone="no"?>
<!-- Created with Inkscape (http://www.inkscape.org/) -->

<svg
   xmlns:dc="http://purl.org/dc/elements/1.1/"
   xmlns:cc="http://creativecommons.org/ns#"
   xmlns:rdf="http://www.w3.org/1999/02/22-rdf-syntax-ns#"
   xmlns:svg="http://www.w3.org/2000/svg"
   xmlns="http://www.w3.org/2000/svg"
   xmlns:sodipodi="http://sodipodi.sourceforge.net/DTD/sodipodi-0.dtd"
   xmlns:inkscape="http://www.inkscape.org/namespaces/inkscape"
   width="48"
   height="48"
   viewBox="0 0 12.7 12.7"
   version="1.1"
   id="svg829"
   inkscape:version="0.92.3 (2405546, 2018-03-11)"
   sodipodi:docname="onboard.svg">
  <defs
     id="defs823" />
  <sodipodi:namedview
     id="base"
     pagecolor="#ffffff"
     bordercolor="#666666"
     borderopacity="1.0"
     inkscape:pageopacity="0.0"
     inkscape:pageshadow="2"
     inkscape:zoom="5.78125"
     inkscape:cx="24"
     inkscape:cy="24"
     inkscape:document-units="mm"
     inkscape:current-layer="layer1"
     showgrid="false"
     showguides="false"
     inkscape:guide-bbox="true"
     inkscape:window-width="1366"
     inkscape:window-height="714"
     inkscape:window-x="0"
     inkscape:window-y="25"
     inkscape:window-maximized="1"
     scale-x="1.9"
     units="px" />
  <metadata
     id="metadata826">
    <rdf:RDF>
      <cc:Work
         rdf:about="">
        <dc:format>image/svg+xml</dc:format>
        <dc:type
           rdf:resource="http://purl.org/dc/dcmitype/StillImage" />
        <dc:title></dc:title>
      </cc:Work>
    </rdf:RDF>
  </metadata>
  <g
     inkscape:label="Capa 1"
     inkscape:groupmode="layer"
     id="layer1"
     transform="translate(0,-284.3)">
    <path
       style="fill:#1a1a1a;fill-opacity:1;stroke-width:0.52516764"
       d="M 23.978516 0.27539062 A 23.770509 23.770509 0 0 0 0.20703125 24.046875 A 23.770509 23.770509 0 0 0 23.978516 47.816406 A 23.770509 23.770509 0 0 0 47.748047 24.046875 A 23.770509 23.770509 0 0 0 23.978516 0.27539062 z M 23.910156 3.8144531 A 20.436071 20.436071 0 0 1 44.345703 24.25 A 20.436071 20.436071 0 0 1 23.910156 44.685547 A 20.436071 20.436071 0 0 1 3.4726562 24.25 A 20.436071 20.436071 0 0 1 23.910156 3.8144531 z M 11.816406 9.3378906 C 10.672428 9.3378906 9.7519531 10.260309 9.7519531 11.404297 L 9.7519531 36.595703 C 9.7519531 37.739804 10.672428 38.662109 11.816406 38.662109 L 36.183594 38.662109 C 37.327571 38.662109 38.248047 37.739804 38.248047 36.595703 L 38.248047 11.404297 C 38.248047 10.260347 37.327571 9.3378906 36.183594 9.3378906 L 11.816406 9.3378906 z M 17.0625 11.355469 C 18.561632 11.355469 19.760634 11.857856 20.658203 12.865234 C 21.555773 13.867839 22.003906 15.214193 22.003906 16.904297 C 22.003906 18.589627 21.555773 19.935981 20.658203 20.943359 C 19.760634 21.945964 18.561632 22.447266 17.0625 22.447266 C 15.558594 22.447266 14.355469 21.945964 13.453125 20.943359 C 12.555556 19.940755 12.107422 18.594401 12.107422 16.904297 C 12.107422 15.214193 12.555556 13.867839 13.453125 12.865234 C 14.355469 11.857856 15.558594 11.355469 17.0625 11.355469 z M 24.068359 11.369141 L 34.496094 11.369141 C 35.481629 11.369141 36.273437 12.162775 36.273438 13.148438 L 36.273438 23.931641 L 24.068359 23.931641 L 24.068359 36.630859 L 13.503906 36.630859 C 12.518368 36.630859 11.726563 35.838952 11.726562 34.853516 L 11.726562 23.931641 L 24.068359 23.931641 L 24.068359 11.369141 z M 17.0625 12.529297 C 16.012153 12.529297 15.1773 12.920139 14.556641 13.703125 C 13.940755 14.486111 13.632813 15.553168 13.632812 16.904297 C 13.632812 18.250651 13.940755 19.316623 14.556641 20.099609 C 15.1773 20.882596 16.012153 21.273438 17.0625 21.273438 C 18.112847 21.273438 18.943576 20.882596 19.554688 20.099609 C 20.170572 19.316623 20.478516 18.250651 20.478516 16.904297 C 20.478516 15.553168 20.170572 14.486111 19.554688 13.703125 C 18.943576 12.920139 18.112847 12.529297 17.0625 12.529297 z M 27.126953 25.820312 L 30.822266 25.820312 C 31.92513 25.820312 32.776259 26.04948 33.373047 26.507812 C 33.969835 26.966146 34.267578 27.617839 34.267578 28.462891 C 34.267578 29.11697 34.114149 29.636719 33.808594 30.023438 C 33.503038 30.410155 33.054905 30.650608 32.462891 30.746094 C 33.174262 30.898872 33.725694 31.220052 34.117188 31.707031 C 34.513454 32.189236 34.710937 32.791884 34.710938 33.517578 C 34.710938 34.472439 34.387587 35.210069 33.738281 35.730469 C 33.088976 36.250868 32.165148 36.511719 30.966797 36.511719 L 27.126953 36.511719 L 27.126953 25.820312 z M 28.574219 27.007812 L 28.574219 30.230469 L 30.714844 30.230469 C 31.421441 30.230469 31.947266 30.100477 32.291016 29.837891 C 32.63954 29.57053 32.814453 29.163411 32.814453 28.619141 C 32.814453 28.079644 32.63954 27.677517 32.291016 27.410156 C 31.947266 27.142795 31.421441 27.007812 30.714844 27.007812 L 28.574219 27.007812 z M 28.574219 31.40625 L 28.574219 35.322266 L 30.894531 35.322266 C 31.672743 35.322266 32.248698 35.163628 32.621094 34.84375 C 32.998264 34.519097 33.185547 34.024957 33.185547 33.361328 C 33.185547 32.692925 32.998264 32.19987 32.621094 31.884766 C 32.248698 31.564887 31.672743 31.40625 30.894531 31.40625 L 28.574219 31.40625 z "
       transform="matrix(0.26458333,0,0,0.26458333,0,284.3)"
       id="path824" />
  </g>
</svg>
