<?xml version="1.0" encoding="UTF-8" standalone="no"?>
<!-- Created with Inkscape (http://www.inkscape.org/) -->

<svg
   xmlns:dc="http://purl.org/dc/elements/1.1/"
   xmlns:cc="http://creativecommons.org/ns#"
   xmlns:rdf="http://www.w3.org/1999/02/22-rdf-syntax-ns#"
   xmlns:svg="http://www.w3.org/2000/svg"
   xmlns="http://www.w3.org/2000/svg"
   xmlns:sodipodi="http://sodipodi.sourceforge.net/DTD/sodipodi-0.dtd"
   xmlns:inkscape="http://www.inkscape.org/namespaces/inkscape"
   width="48"
   height="48"
   viewBox="0 0 12.7 12.7"
   version="1.1"
   id="svg829"
   inkscape:version="0.92.3 (2405546, 2018-03-11)"
   sodipodi:docname="openbox.svg">
  <defs
     id="defs823" />
  <sodipodi:namedview
     id="base"
     pagecolor="#ffffff"
     bordercolor="#666666"
     borderopacity="1.0"
     inkscape:pageopacity="0.0"
     inkscape:pageshadow="2"
     inkscape:zoom="3.9627443"
     inkscape:cx="20.59327"
     inkscape:cy="22.990599"
     inkscape:document-units="mm"
     inkscape:current-layer="layer1"
     showgrid="false"
     showguides="true"
     inkscape:guide-bbox="true"
     inkscape:window-width="1366"
     inkscape:window-height="719"
     inkscape:window-x="0"
     inkscape:window-y="25"
     inkscape:window-maximized="1"
     scale-x="1.9"
     units="px"
     inkscape:snap-global="false" />
  <metadata
     id="metadata826">
    <rdf:RDF>
      <cc:Work
         rdf:about="">
        <dc:format>image/svg+xml</dc:format>
        <dc:type
           rdf:resource="http://purl.org/dc/dcmitype/StillImage" />
        <dc:title></dc:title>
      </cc:Work>
    </rdf:RDF>
  </metadata>
  <g
     inkscape:label="Capa 1"
     inkscape:groupmode="layer"
     id="layer1"
     transform="translate(0,-284.3)">
    <path
       style="fill:#e6e6e6;fill-opacity:1;stroke-width:0.52516764"
       d="M 23.978516 0.27539062 A 23.770509 23.770509 0 0 0 0.20703125 24.046875 A 23.770509 23.770509 0 0 0 23.978516 47.816406 A 23.770509 23.770509 0 0 0 47.748047 24.046875 A 23.770509 23.770509 0 0 0 23.978516 0.27539062 z M 23.910156 3.8144531 A 20.436071 20.436071 0 0 1 44.345703 24.25 A 20.436071 20.436071 0 0 1 23.910156 44.685547 A 20.436071 20.436071 0 0 1 3.4726562 24.25 A 20.436071 20.436071 0 0 1 23.910156 3.8144531 z M 10.875 10.875 C 9.8362501 10.875 9 11.711235 9 12.75 L 9 35.25 C 9 36.288765 9.8362501 37.125 10.875 37.125 L 37.125 37.125 C 38.163748 37.125 39 36.288765 39 35.25 L 39 12.75 C 39 11.711235 38.163748 10.875 37.125 10.875 L 10.875 10.875 z M 10.875 16.96875 L 37.125 16.96875 C 37.384688 16.96875 37.59375 17.177733 37.59375 17.4375 L 37.59375 35.25 C 37.59375 35.509654 37.384691 35.71875 37.125 35.71875 L 10.875 35.71875 C 10.615312 35.71875 10.40625 35.509729 10.40625 35.25 L 10.40625 17.4375 C 10.40625 17.177846 10.615311 16.96875 10.875 16.96875 z M 17.423828 18.091797 L 17.423828 18.09375 C 17.159314 18.105089 16.898441 18.197609 16.667969 18.347656 C 16.580643 18.406617 16.497436 18.471789 16.419922 18.550781 L 16.107422 18.861328 C 15.487247 19.4769 15.484079 20.46956 16.101562 21.087891 L 22.113281 27.107422 C 22.543421 27.538137 23.154663 27.662216 23.697266 27.494141 L 28.951172 32.744141 L 29.107422 33.316406 A 0.39721051 0.39744756 89.982474 0 0 29.261719 33.537109 L 30.986328 34.730469 A 0.39721051 0.39744756 89.982474 0 0 31.494141 34.6875 L 32.244141 33.939453 A 0.39721051 0.39744756 89.982474 0 0 32.285156 33.427734 L 31.117188 31.707031 A 0.39721051 0.39744756 89.982474 0 0 30.894531 31.554688 L 30.300781 31.380859 L 25.052734 26.136719 C 25.213206 25.602105 25.088422 25.003133 24.664062 24.578125 L 18.654297 18.558594 C 18.384163 18.28798 18.039643 18.135767 17.6875 18.101562 L 17.6875 18.099609 C 17.599463 18.088271 17.511986 18.088017 17.423828 18.091797 z M 28.453125 18.21875 C 28.432338 18.21875 28.403294 18.221398 28.382812 18.230469 C 27.434201 18.564201 26.544944 19.24426 26.121094 20.009766 C 25.785453 20.616153 25.717227 21.294098 25.880859 21.933594 C 25.697613 22.397606 25.379719 23.023744 24.693359 23.710938 L 25.371094 24.466797 C 25.730497 25.109581 25.785719 25.621806 25.720703 26.056641 C 26.48211 25.294272 27.861947 24.333701 28.347656 24.167969 C 29.538976 24.373197 30.754922 23.872118 31.333984 22.826172 C 31.758007 22.060213 31.860491 20.943718 31.630859 19.974609 C 31.62262 19.940594 31.605744 19.900828 31.582031 19.878906 C 31.537516 19.829016 31.472637 19.81162 31.40625 19.820312 C 31.33987 19.827872 31.282364 19.859008 31.25 19.917969 L 30.085938 22.023438 C 29.982019 22.210902 29.744186 22.294227 29.443359 22.285156 C 29.140729 22.277597 28.784721 22.166105 28.421875 21.970703 C 28.059116 21.775302 27.772672 21.53264 27.601562 21.285156 C 27.432073 21.039865 27.374866 20.794584 27.478516 20.607422 L 28.632812 18.527344 C 28.675884 18.452509 28.674764 18.354826 28.619141 18.289062 C 28.577328 18.239173 28.51537 18.215726 28.453125 18.21875 z M 21.142578 27.041016 L 16.203125 31.708984 C 15.675326 32.241331 15.746658 33.148816 16.355469 33.751953 C 16.964274 34.354939 17.872619 34.418687 18.400391 33.886719 L 23.699219 28.185547 C 22.72863 28.495468 21.886461 28.047416 21.142578 27.042969 L 21.142578 27.041016 z M 17.443359 31.875 L 17.443359 31.876953 L 17.443359 31.878906 C 17.641686 31.878113 17.838907 31.951893 17.990234 32.101562 C 18.292907 32.401279 18.294144 32.892837 17.994141 33.195312 C 17.694148 33.496541 17.203045 33.502942 16.900391 33.199219 C 16.597703 32.899502 16.596469 32.407869 16.896484 32.105469 C 17.046479 31.954288 17.245034 31.876512 17.443359 31.875 z "
       transform="matrix(0.26458333,0,0,0.26458333,0,284.3)"
       id="path822" />
  </g>
</svg>
