<svg xmlns="http://www.w3.org/2000/svg" width="48" height="48" viewBox="0 0 12.7 12.7">
  <path fill="#e6e6e6" d="M6.34431561.07286377a6.28928043 6.28928043 0 0 0-6.2895386 6.2895385 6.28928043 6.28928043 0 0 0 6.2895386 6.28902166 6.28928043 6.28928043 0 0 0 6.28902167-6.28902167A6.28928043 6.28928043 0 0 0 6.3443156.07286376zm-.01808691.93637693a5.40704372 5.40704372 0 0 1 5.40690507 5.40690505 5.40704372 5.40704372 0 0 1-5.40690507 5.40690508A5.40704372 5.40704372 0 0 1 .91880694 6.41614575 5.40704372 5.40704372 0 0 1 6.3262287 1.0092407zM2.8773437 2.87734371c-.2748359 0-.49609374.22125384-.49609374.49609375v5.95312492c0 .2748399.22125784.49609375.49609374.49609375h6.94531242c.2748354 0 .49609374-.22125384.49609374-.49609375V3.37343746c0-.2748399-.22125834-.49609375-.49609374-.49609375H2.8773437zm0 1.61230467h6.94531242c.06870911 0 .12402343.05529342.12402343.12402344v4.71289056c0 .06870012-.05531352.12402344-.12402343.12402344H2.8773437c-.06870911 0-.12402343-.05530347-.12402343-.12402344V4.61367182c0-.06870012.05531405-.12402344.12402343-.12402344zm1.73271072.29713952v.00051673c-.069986.0030001-.13900864.02747936-.19998769.0671793-.023105.01560009-.04512019.03284351-.0656291.05374348l-.08268229.08216556c-.16408797.16287009-.16492617.42551138-.00155046.58911145l1.59060063 1.59266756c.11380788.11396.27553232.14678924.41909603.1023194L7.6599975 8.66355386l.04134114.15141178a.10509528.105158 89.982474 0 0 .04082441.05839434l.4563028.31574316a.10509528.105158 89.982474 0 0 .13435885-.01136888l.1984375-.19792077a.10509528.105158 89.982474 0 0 .01085188-.13539231l-.30902486-.45526933a.10509528.105158 89.982474 0 0-.05891133-.04030742l-.15709635-.04599226-1.38854575-1.38751202c.04245821-.14144995.00944245-.29992796-.10283613-.412378L4.93561602 4.9102946c-.07147295-.07159995-.1626272-.11187298-.25579837-.12092305v-.00051673c-.02329312-.00299984-.04643808-.00306705-.06976322-.00206692zm2.91816813.03358964c-.0054999 0-.01318445.00070062-.01860365.00310066-.25098665.08829992-.48626923.2682322-.59841288.47077232-.08880501.1604399-.10685647.33981284-.06356217.50901282-.04848384.12276984-.1325933.28843552-.3141927.4702556l.17931738.19998768c.09509204.17006994.10970286.30559613.09250071.42064622.2014556-.20171012.56653747-.4558612.69504797-.49971112.31520341.0542999.63692246-.07827725.7901326-.35501712.11218943-.20265998.13930498-.49806595.07854818-.75447604-.0021799-.0089998-.006645-.01952122-.01291907-.02532141-.01177793-.01320007-.02894383-.01780276-.04650872-.015503-.01756304.00200025-.03277817.01023832-.04134115.02583841l-.3079914.557072c-.02749523.04959985-.09042188.07164626-.17001569.06924622-.08007085-.00199998-.17426463-.0314989-.27026764-.08319902-.09597998-.05169985-.17176829-.11590417-.21704114-.1813843-.04484397-.06489992-.05997999-.12979718-.03255592-.17931712l.30540748-.55035397c.01139613-.0198001.0110998-.04564539-.00361712-.06304544-.01106303-.0131998-.02745608-.01940349-.04392507-.01860339zM5.5939737 7.15460206L4.28707677 8.38966858c-.13964682.14085014-.12077356.38095554.04030768.54053554.16107966.15954004.4014126.1764067.54105227.03565684l1.40198156-1.50843508c-.25680167.08199993-.47962555-.03654716-.67644459-.30230709v-.00051673zm-.97875168 1.27899158V8.43462711c.05247402-.00020982.1046554.01931114.144694.05891106.08008224.07930012.08040953.20935818.00103374.28938802-.07937315.07970017-.20931082.08139377-.28938802.00103373-.0800862-.07930013-.0804127-.20937802-.00103373-.28938802.03968618-.03999997.09222052-.0605782.14469401-.06097826z"/>
</svg>
