<svg xmlns="http://www.w3.org/2000/svg" width="48" height="48" version="1"><g fill="none" stroke="#e6e6e6"><path stroke-width=".982" d="M6.712 37.342l7.251-11.315L20 31.228l7.963-11.73 8.136 4.224 5.096-15.707"/><path d="M6.718 37.338l7.236-4.524 5.921 3.334 7.949-9.292 8.062 3.057 5.303-3.358"/></g><path fill="#e6e6e6" d="M24.002.23A23.77 23.77 0 0 0 .229 24a23.77 23.77 0 0 0 23.773 23.77A23.77 23.77 0 0 0 47.772 24 23.77 23.77 0 0 0 24.001.23zm-.07 3.54a20.436 20.436 0 0 1 20.435 20.433A20.436 20.436 0 0 1 23.932 44.64 20.436 20.436 0 0 1 3.494 24.203 20.436 20.436 0 0 1 23.932 3.77zm4.156 14.043a1.969 2 0 0 0-2.026 2 1.969 2 0 1 0 3.938 0 1.969 2 0 0 0-1.912-2zm7.937 3.189a1.969 2 0 0 0-2.025 2 1.969 2 0 1 0 3.938 0 1.969 2 0 0 0-1.913-2zm-22 3A1.969 2 0 0 0 12 26a1.969 2 0 1 0 3.938 0 1.969 2 0 0 0-1.913-1.998zm14 1A1.969 2 0 0 0 26 27a1.969 2 0 1 0 3.938 0 1.969 2 0 0 0-1.913-1.998zm8 3A1.969 2 0 0 0 34 30a1.969 2 0 1 0 3.938 0 1.969 2 0 0 0-1.913-1.998zm-16 1A1.969 2 0 0 0 18 31a1.969 2 0 1 0 3.938 0 1.969 2 0 0 0-1.913-1.998zm-6 2A1.969 2 0 0 0 12 33a1.969 2 0 1 0 3.938 0 1.969 2 0 0 0-1.913-1.998zm6 3A1.969 2 0 0 0 18 36a1.969 2 0 1 0 3.938 0 1.969 2 0 0 0-1.913-1.998z" color="#000"/></svg>