<svg xmlns="http://www.w3.org/2000/svg" width="48" height="48" version="1">
  <defs>
    <linearGradient id="a">
      <stop offset="0"/>
      <stop offset="1" stop-opacity="0"/>
    </linearGradient>
  </defs>
  <g fill="none" stroke="#e6e6e6">
    <path stroke-width=".98225111" d="M6.712125 37.341918l7.251057-11.314747 6.035579 5.201253 7.963479-11.72949 8.136132 4.223041 5.095987-15.7071573"/>
    <path d="M6.7175 37.338l7.2363-4.5238 5.9212 3.3338 7.9485-9.2916 8.0622 3.057 5.3033-3.3588"/>
  </g>
  <path fill="#e6e6e6" d="M24.001953.23046875A23.770509 23.770509 0 0 0 .22851562 24 23.770509 23.770509 0 0 0 24.001953 47.769531 23.770509 23.770509 0 0 0 47.771484 24 23.770509 23.770509 0 0 0 24.001953.23046875zm-.070312 3.53906245A20.436071 20.436071 0 0 1 44.367188 24.203125a20.436071 20.436071 0 0 1-20.435547 20.435547A20.436071 20.436071 0 0 1 3.4941406 24.203125 20.436071 20.436071 0 0 1 23.931641 3.7695312zM28.087891 17.8125a1.9686875 2.00005 0 0 0-2.025391 2 1.9686875 2.00005 0 1 0 3.9375 0 1.9686875 2.00005 0 0 0-1.912109-2zm7.9375 3.189453a1.968688 2.0000505 0 0 0-2.025391 2 1.968688 2.0000505 0 1 0 3.9375 0 1.968688 2.0000505 0 0 0-1.912109-2zm-22 3A1.9686875 2.00005 0 0 0 12 26a1.9686875 2.00005 0 1 0 3.9375 0 1.9686875 2.00005 0 0 0-1.912109-1.998047zm14 1A1.968688 2.0000505 0 0 0 26 27a1.968688 2.0000505 0 1 0 3.9375 0 1.968688 2.0000505 0 0 0-1.912109-1.998047zm8 3A1.968688 2.0000505 0 0 0 34 30a1.968688 2.0000505 0 1 0 3.9375 0 1.968688 2.0000505 0 0 0-1.912109-1.998047zm-16 1A1.9686875 2.00005 0 0 0 18 31a1.9686875 2.00005 0 1 0 3.9375 0 1.9686875 2.00005 0 0 0-1.912109-1.998047zm-6 2A1.9686875 2.00005 0 0 0 12 33a1.9686875 2.00005 0 1 0 3.9375 0 1.9686875 2.00005 0 0 0-1.912109-1.998047zm6 3A1.9686875 2.00005 0 0 0 18 36a1.9686875 2.00005 0 1 0 3.9375 0 1.9686875 2.00005 0 0 0-1.912109-1.998047z" color="#000"/>
</svg>
