<svg xmlns="http://www.w3.org/2000/svg" width="48" height="48" viewBox="0 0 12.7 12.7">
  <path fill="#e6e6e6" d="M6.34431561.07286377a6.28928043 6.28928043 0 0 0-6.2895386 6.2895385 6.28928043 6.28928043 0 0 0 6.2895386 6.28902166 6.28928043 6.28928043 0 0 0 6.28902167-6.28902167A6.28928043 6.28928043 0 0 0 6.3443156.07286376zm-.01808691.93637693a5.40704372 5.40704372 0 0 1 5.40690507 5.40690505 5.40704372 5.40704372 0 0 1-5.40690507 5.40690508A5.40704372 5.40704372 0 0 1 .91880694 6.41614575 5.40704372 5.40704372 0 0 1 6.3262287 1.0092407zm.02377122.31367595c-.61784309 0-1.11743012.50054446-1.11724439 1.11724444-.00013943.46528005.292413.84912537.69814863 1.01647539v.3798218H4.25555405c-.0741778 0-.14004317.06068643-.1400429.13952644v.41909576c0 .07890007.06105472.13952643.1400429.13952643h1.6753501v5.16712643c0 .14347005-.23928863.1462204-.37517095.16123047-.19907858-.00199999-.32008974-.05197634-.51056328-.1043866-.43014979-.12576994-.84085614-.3001129-1.23506652-.510563-.16597524-.09219989-.32774625-.18188358-.47542317-.30127363-.06365107-.0541999-.1380228-.1330153-.1312582-.22272546.00861007-.0677.0429969-.14000532.11782213-.1524455.06744018-.0105.12795197.02567596.18758561.0485759.05140987.02200011.08677302-.04038229.07854818-.08268228-.00826003-.11259-.04606607-.21673264-.10438659-.3141927-.12133395-.19956992-.30797658-.34832-.50177805-.4759399-.20691528-.13215991-.4275325-.27750903-.5586222-.48885899-.02608-.03920013-.05526566-.10343223-.11368814-.08268229-.08121899.02609983-.12610116.10605638-.16588134.17466628-.11192452.2129999-.16761156.44278443-.21807456.67644459-.041484.1859198-.04962596.38210119-.03513997.57154126.01500301.1895401.02814277.38161224.10490316.5586222.048342.11629998.13332523.21025352.21807453.30127363.054078-.05730002.11055715-.11867648.16588137-.17466628.07169499-.07189999.16120422-.11893338.26613362-.10490332.14281473.01810015.2722407.10487554.3844727.18758561.15808617.12292992.30556597.2516767.46663822.37103658.25487444.19478017.5359609.33764008.82475572.4759399.24060705.11174016.4877374.22333294.73742284.31419271.0447159.0198001.09451949.01824011.1400429.0351401.44937706.18686992.82789526.40442674 1.13894869.79426673.00041883.00999993-.00041884.01610413 0 .02170403.00353986-.00999992.00932603-.01001897.01291907-.01291907.00354012.01000019.0093652.01001924.01291907.01291907.00237014-.01070001-.00232992-.02363999 0-.03513984.31007738-.38528995.69229737-.59560776 1.13894869-.78134764.04551997-.01610016.09532593-.01544003.1400429-.03514011.24968544-.09089998.49681579-.2024626.73742284-.3141927.28879588-.13830988.5698826-.2811698.82475572-.4759399.16107119-.11936995.3085539-.24758994.46663821-.37051986.11223281-.08280003.2416585-.16921559.38447265-.1875856.10492899-.01409992.19443859.03297634.2661338.10438658.05534977.05619988.11180417.11748611.1658813.17466628.08475001-.091.1697326-.18494375.21807461-.30127363.07675986-.17698006.08991203-.36909216.10490306-.5586222.01453991-.18944007.0063201-.38564131-.0351401-.57154127-.05046002-.2336702-.10614846-.46344469-.21807435-.67644458-.03981-.06870012-.08466958-.14832648-.16588131-.17466628-.05844011-.0207002-.08761519.04439894-.11368829.08319902-.13108992.2113399-.35170612.35619214-.55862219.48834225-.1938004.12762997-.38044437.27635993-.50177805.4759399-.05831602.0974-.09611201.2016326-.1043866.3141927-.00826002.04280006.0271333.1050224.07854819.0826823.05963205-.02220013.12014676-.05867585.1875856-.04857591.0748218.01239996.10922556.08492225.11782214.15296223.00670004.08980011-.0676074.16842555-.1312582.22272546-.1476764.1194001-.30944846.20873693-.47542317.3007569-.39421012.2104599-.80491673.38528994-1.23506652.51107974-.19047328.05230019-.3114847.1032264-.51056328.10438659-.17104439.03059985-.37517096-.0619506-.37517096-.16123047V4.53460691h1.67586684c.0645639 0 .13952617-.0558665.13952617-.13952643v-.41909576c0-.0812001-.06534388-.13952644-.13952617-.13952644H6.76909568v-.3798218c.4057343-.16731985.69828806-.55167212.69814863-1.01699215.00013943-.61663997-.49940395-1.11672768-1.11724439-1.11672768zm-.02170404.54518636c.2999232 0 .5452774.23757813.5451864.53691813.00008916.29935995-.2452632.54570317-.5451864.54570317-.29992504 0-.54992798-.24634322-.54983723-.54570317-.00009075-.29934.24991377-.53691813.54983723-.53691813z"/>
</svg>
