<?xml version="1.0" encoding="UTF-8" standalone="no"?>
<!-- Created with Inkscape (http://www.inkscape.org/) -->

<svg
   xmlns:dc="http://purl.org/dc/elements/1.1/"
   xmlns:cc="http://creativecommons.org/ns#"
   xmlns:rdf="http://www.w3.org/1999/02/22-rdf-syntax-ns#"
   xmlns:svg="http://www.w3.org/2000/svg"
   xmlns="http://www.w3.org/2000/svg"
   xmlns:sodipodi="http://sodipodi.sourceforge.net/DTD/sodipodi-0.dtd"
   xmlns:inkscape="http://www.inkscape.org/namespaces/inkscape"
   width="48"
   height="48"
   viewBox="0 0 12.7 12.7"
   version="1.1"
   id="svg829"
   inkscape:version="0.92.3 (2405546, 2018-03-11)"
   sodipodi:docname="postscript-viewer.svg">
  <defs
     id="defs823" />
  <sodipodi:namedview
     id="base"
     pagecolor="#ffffff"
     bordercolor="#666666"
     borderopacity="1.0"
     inkscape:pageopacity="0.0"
     inkscape:pageshadow="2"
     inkscape:zoom="2.8020833"
     inkscape:cx="19.182156"
     inkscape:cy="22.572491"
     inkscape:document-units="mm"
     inkscape:current-layer="layer1"
     showgrid="false"
     showguides="true"
     inkscape:guide-bbox="true"
     inkscape:window-width="1366"
     inkscape:window-height="719"
     inkscape:window-x="0"
     inkscape:window-y="25"
     inkscape:window-maximized="1"
     scale-x="1.9"
     units="px"
     inkscape:snap-global="false" />
  <metadata
     id="metadata826">
    <rdf:RDF>
      <cc:Work
         rdf:about="">
        <dc:format>image/svg+xml</dc:format>
        <dc:type
           rdf:resource="http://purl.org/dc/dcmitype/StillImage" />
        <dc:title></dc:title>
      </cc:Work>
    </rdf:RDF>
  </metadata>
  <g
     inkscape:label="Capa 1"
     inkscape:groupmode="layer"
     id="layer1"
     transform="translate(0,-284.3)">
    <path
       style="fill:#e6e6e6;fill-opacity:1;stroke-width:0.52516764"
       d="M 23.978516 0.27539062 A 23.770509 23.770509 0 0 0 0.20703125 24.046875 A 23.770509 23.770509 0 0 0 23.978516 47.816406 A 23.770509 23.770509 0 0 0 47.748047 24.046875 A 23.770509 23.770509 0 0 0 23.978516 0.27539062 z M 23.910156 3.8144531 A 20.436071 20.436071 0 0 1 44.345703 24.25 A 20.436071 20.436071 0 0 1 23.910156 44.685547 A 20.436071 20.436071 0 0 1 3.4726562 24.25 A 20.436071 20.436071 0 0 1 23.910156 3.8144531 z M 23.443359 6.1386719 C 23.176532 6.1386719 22.452146 6.2582082 22.164062 6.3515625 C 21.438538 6.5908066 21.046514 7.144743 20.734375 7.8652344 C 19.84439 9.9220911 21.067835 13.426506 22.324219 16.128906 C 21.249634 20.350034 19.447381 25.403043 17.552734 29.503906 C 12.777799 31.664284 10.242462 33.786685 10.013672 35.810547 C 9.9303333 36.54729 10.106761 37.628221 11.417969 38.601562 C 11.777096 38.866885 12.198159 39.005859 12.636719 39.005859 C 13.739272 39.005859 14.852356 38.172835 16.140625 36.382812 C 17.080956 35.078309 18.089251 33.300541 19.142578 31.09375 C 22.516244 29.637082 26.689743 28.322391 30.263672 27.583984 C 32.253413 29.471367 34.034519 30.425781 35.568359 30.425781 C 36.697202 30.425781 37.663759 29.914724 38.365234 28.945312 C 39.094672 27.936708 39.262417 27.031444 38.857422 26.257812 C 38.370755 25.323627 37.171895 24.869141 35.201172 24.869141 C 34.04324 24.869141 32.623134 25.018037 30.970703 25.3125 C 28.664907 22.897042 26.260241 19.368297 24.5625 15.90625 C 24.742065 15.161683 24.911751 14.41479 25.060547 13.664062 C 25.264161 12.642645 25.440074 11.609078 25.527344 10.570312 C 25.617402 9.500744 25.613823 8.393507 25.044922 7.4414062 C 24.739498 6.9285622 24.104557 6.1386719 23.443359 6.1386719 z M 22.992188 8.3847656 C 23.04701 8.3696475 24.309252 9.755903 23.113281 12.386719 C 21.317088 10.571487 22.868563 8.4250554 22.992188 8.3847656 z M 23.757812 18.914062 C 25.171944 21.424576 26.872284 23.861886 28.572266 25.8125 C 25.884967 26.435631 23.020591 27.315614 20.388672 28.324219 C 21.666873 25.315828 22.85608 21.992337 23.757812 18.914062 z M 35.449219 26.96875 C 36.569112 26.96875 36.775855 27.130497 36.929688 27.212891 C 36.902286 27.300198 36.829136 27.467653 36.640625 27.728516 C 36.252409 28.264415 35.411425 28.277344 35.117188 28.277344 C 34.444245 28.277344 34.194445 27.881355 33.167969 27.101562 C 34.013763 26.995358 34.812076 26.96875 35.449219 26.96875 z M 15.990234 32.630859 C 13.948469 36.352485 12.852576 36.844996 12.664062 36.904297 C 12.075025 36.459598 12.108234 36.158207 12.121094 36.042969 C 12.199402 35.350446 13.297341 34.123886 15.990234 32.630859 z "
       transform="matrix(0.26458333,0,0,0.26458333,0,284.3)"
       id="path822" />
  </g>
</svg>
