<svg xmlns="http://www.w3.org/2000/svg" width="48" height="48" viewBox="0 0 12.7 12.7">
  <path fill="#e6e6e6" d="M6.34431561.07286377a6.28928043 6.28928043 0 0 0-6.2895386 6.2895385 6.28928043 6.28928043 0 0 0 6.2895386 6.28902166 6.28928043 6.28928043 0 0 0 6.28902167-6.28902167A6.28928043 6.28928043 0 0 0 6.3443156.07286376zm-.01808691.93637693a5.40704372 5.40704372 0 0 1 5.40690507 5.40690505 5.40704372 5.40704372 0 0 1-5.40690507 5.40690508A5.40704372 5.40704372 0 0 1 .91880694 6.41614575 5.40704372 5.40704372 0 0 1 6.3262287 1.0092407zm-.1235067.61494955c-.07059799 0-.26225845.03162732-.33848067.0563273-.19196156.0633-.29568457.20986234-.37827135.40049236-.2354752.54421.08822796 1.47141976.42064622 2.18642975-.28431727 1.1168401-.76116338 2.45378205-1.26245539 3.53880204-1.2633682.5716-1.9341761 1.13315193-1.99471013 1.66863207-.02205003.19492992.0246298.48092624.37155358.73845605.09501902.07020004.20642527.10697024.32246093.10697024.29171715 0 .58622062-.22040426.92707512-.6940145.2487959-.34514975.51557396-.81551753.79426672-1.39939764.89261579-.38541007 1.99685405-.7332554 2.94245609-.92862558.5264523.49937008.99770325.75189211 1.40353175.75189211.29867304 0 .5544079-.13521716.7400065-.39170741.19299713-.2668598.23737966-.50637757.13022474-.7110677-.12876398-.24716978-.44596235-.3674192-.9673828-.3674192-.3063695 0-.68210588.0393954-1.11931158.1173054-.61007518-.63908992-1.24630972-1.57273702-1.69550369-2.48873695.0475099-.19700001.092406-.39461545.13177494-.59324556.05387287-.27024992.10041651-.54371451.1235067-.81855468.02382785-.28298987.0228809-.57594632-.12764082-.82785632-.0808101-.13568997-.2488049-.34468178-.42374687-.34468178zm-.11937233.59427895c.01450498-.004.34847317.3627801.03203918 1.05885016-.47524272-.48028013-.0647483-1.04819015-.03203918-1.05885016zM6.285921 5.0043455c.37415576.66424016.82403738 1.30911176 1.27382427 1.8252117-.71101451.16487008-1.46888065.39769891-2.16524255.66455898.33819068-.7959701.65283503-1.67531042.89141828-2.48977067zm3.0933514 2.13113618c.29630502 0 .35100577.04279556.39170742.06459564-.00725012.02309998-.02660439.06740578-.07648125.13642578-.10271549.14178994-.32522583.14521074-.40307604.14521074-.1780495 0-.24414241-.10477209-.51573085-.31109232.22378299-.0280998.4350033-.03513984.60358072-.03513984zM4.23074936 8.63358133c-.54021698.9846802-.830172 1.1149904-.88004966 1.13068046-.15584938-.11765994-.14706283-.19740298-.14366029-.22789303.020719-.18323004.31121535-.50775737 1.02370995-.90278743z"/>
</svg>
