<?xml version="1.0" encoding="UTF-8" standalone="no"?>
<!-- Created with Inkscape (http://www.inkscape.org/) -->

<svg
   xmlns:dc="http://purl.org/dc/elements/1.1/"
   xmlns:cc="http://creativecommons.org/ns#"
   xmlns:rdf="http://www.w3.org/1999/02/22-rdf-syntax-ns#"
   xmlns:svg="http://www.w3.org/2000/svg"
   xmlns="http://www.w3.org/2000/svg"
   xmlns:sodipodi="http://sodipodi.sourceforge.net/DTD/sodipodi-0.dtd"
   xmlns:inkscape="http://www.inkscape.org/namespaces/inkscape"
   width="48"
   height="48"
   viewBox="0 0 12.7 12.7"
   version="1.1"
   id="svg829"
   inkscape:version="0.92.3 (2405546, 2018-03-11)"
   sodipodi:docname="preferences-system-notifications.svg">
  <defs
     id="defs823" />
  <sodipodi:namedview
     id="base"
     pagecolor="#ffffff"
     bordercolor="#666666"
     borderopacity="1.0"
     inkscape:pageopacity="0.0"
     inkscape:pageshadow="2"
     inkscape:zoom="7.9254885"
     inkscape:cx="22.296635"
     inkscape:cy="27.064072"
     inkscape:document-units="mm"
     inkscape:current-layer="layer1"
     showgrid="false"
     showguides="true"
     inkscape:guide-bbox="true"
     inkscape:window-width="1366"
     inkscape:window-height="719"
     inkscape:window-x="0"
     inkscape:window-y="25"
     inkscape:window-maximized="1"
     scale-x="1.9"
     units="px"
     inkscape:snap-global="false" />
  <metadata
     id="metadata826">
    <rdf:RDF>
      <cc:Work
         rdf:about="">
        <dc:format>image/svg+xml</dc:format>
        <dc:type
           rdf:resource="http://purl.org/dc/dcmitype/StillImage" />
        <dc:title></dc:title>
      </cc:Work>
    </rdf:RDF>
  </metadata>
  <g
     inkscape:label="Capa 1"
     inkscape:groupmode="layer"
     id="layer1"
     transform="translate(0,-284.3)">
    <path
       style="fill:#e6e6e6;fill-opacity:1;stroke-width:0.52516764"
       d="M 23.978516 0.27539062 A 23.770509 23.770509 0 0 0 0.20703125 24.046875 A 23.770509 23.770509 0 0 0 23.978516 47.816406 A 23.770509 23.770509 0 0 0 47.748047 24.046875 A 23.770509 23.770509 0 0 0 23.978516 0.27539062 z M 23.910156 3.8144531 A 20.436071 20.436071 0 0 1 44.345703 24.25 A 20.436071 20.436071 0 0 1 23.910156 44.685547 A 20.436071 20.436071 0 0 1 3.4726562 24.25 A 20.436071 20.436071 0 0 1 23.910156 3.8144531 z M 23.998047 7.6230469 C 22.492617 7.6230469 21.269531 8.8461389 21.269531 10.351562 L 21.269531 12.800781 C 17.327943 13.978671 14.447266 17.63538 14.447266 21.955078 L 14.447266 25.375 C 14.447266 27.476795 13.873915 29.540764 12.792969 31.34375 L 10.449219 35.25 C 10.322253 35.461578 10.321878 35.723201 10.443359 35.9375 C 10.56485 36.151799 10.787534 36.285156 11.033203 36.285156 L 36.966797 36.285156 C 37.212464 36.285156 37.437101 36.152241 37.558594 35.939453 C 37.680128 35.726477 37.676379 35.460142 37.550781 35.25 L 35.208984 31.34375 C 34.126695 29.540802 33.552734 27.474842 33.552734 25.373047 L 33.552734 21.955078 C 33.552734 17.63538 30.672121 13.978671 26.730469 12.800781 L 26.730469 10.351562 C 26.730469 8.8461389 25.503476 7.6230469 23.998047 7.6230469 z M 19.701172 37.648438 C 20.470936 39.256249 22.099609 40.378906 23.998047 40.378906 C 25.896484 40.378906 27.529064 39.256249 28.298828 37.648438 L 19.701172 37.648438 z "
       transform="matrix(0.26458333,0,0,0.26458333,0,284.3)"
       id="path822" />
  </g>
</svg>
