<svg xmlns="http://www.w3.org/2000/svg" width="48" height="48" viewBox="0 0 12.7 12.7">
  <path fill="#e6e6e6" d="M6.34431561.07286377a6.28928043 6.28928043 0 0 0-6.2895386 6.2895385 6.28928043 6.28928043 0 0 0 6.2895386 6.28902166 6.28928043 6.28928043 0 0 0 6.28902167-6.28902167A6.28928043 6.28928043 0 0 0 6.3443156.07286376zm-.01808691.93637693a5.40704372 5.40704372 0 0 1 5.40690507 5.40690505 5.40704372 5.40704372 0 0 1-5.40690507 5.40690508A5.40704372 5.40704372 0 0 1 .91880694 6.41614575 5.40704372 5.40704372 0 0 1 6.3262287 1.0092407zm2.72644866 2.37918302l.00103346.00826823a.44554288.44554288 0 0 0-.06511237.00103346v.00051673a.44554288.44554288 0 0 0-.22220872.1390097L6.39702537 5.90196537 4.9211465 4.43280424a.44554288.44554288 0 1 0-.61391588.61236568L6.0911009 6.82904047a.44554288.44554288 0 0 0 .61288268 0l2.6747721-2.6747721a.44554288.44554288 0 0 0-.32607832-.76584465z"/>
</svg>
