<svg xmlns="http://www.w3.org/2000/svg" width="48" height="48" viewBox="0 0 12.7 12.7">
  <path fill="#e6e6e6" d="M6.3437348.07889A6.2670426 6.2670426 0 0 0 .07641737 6.34621a6.2670426 6.2670426 0 0 0 6.26731743 6.26628 6.2670426 6.2670426 0 0 0 6.2673172-6.26628 6.2670426 6.2670426 0 0 0-1.620573-4.1951l.134358-.50746c.06616-.24968-.0819-.50304-.331762-.56844l-.12609-.033c-.03123-.008-.06305-.012-.09405-.014v-.001c-.206044-.012-.394571.1176-.463021.3173A6.2670426 6.2670426 0 0 0 6.3437368.07893zm-.01756.93224a5.3879258 5.3879258 0 0 1 3.5191646 1.31156l-.3927422 1.48208c-.045466.1716.0119.3429.132292.45578l-.164332.61392c-.036084-.016-.090134-.016-.139526-.02l-.2284096-.22842c-.06415-.0642-.169426-.0642-.2335778 0l-.114722.1148-.3162596-.96428c-.088246-.27022-.10083-.4728-.082682-.62012.140538-.151.2251476-.34212.2222086-.54672-.0037-.25834-.15122-.55242-.3648354-.76068-.0181-.018-.046132-.023-.071314-.014-.025188.01-.042186.0344-.041344.06l.0093.70486c.0008996.0632-.049864.12-.133326.1644-.08426.0448-.19994.0756-.3296956.0826-.129774.008-.2454286-.01-.3307292-.0454-.084796-.0354-.138618-.0874-.139524-.1508l-.0093-.70798c-.0003038-.02-.01068-.038-.027902-.0486-.01724-.01-.039274-.012-.058912-.006v.001c-.01046.004-.01952.01-.026872.018-.2078948.23102-.3458168.54252-.3420982.80098.00508.35296.2672396.63956.6283854.7338.110144.1052.2349054.2832.3327966.58292l.057878.1758h-.4888658c-.090722 0-.160198.0694-.160198.1602v.3948c-.074536.023-.143392.0586-.2139406.091h-.18397l-.2222088-.22222c-.064152-.0642-.169426-.0642-.2335774 0l-.2222086.22222h-.8040846c.08593-.1974.1803-.34352.2687174-.43098.2047166-.031.3893618-.129.5136636-.29146.15694-.20524.2232136-.52792.182934-.82476-.00302-.0256-.022108-.0476-.048578-.0548-.026452-.008-.055162.001-.07028.0218l-.4289144.55914c-.038396.0502-.114154.0638-.2077392.0466-.09451-.018-.2051229-.065-.3121241-.1406-.107064-.0756-.188016-.1616-.2335775-.24288-.045288-.0806-.054986-.1544-.01654-.20464l.4309815-.56224c.0119-.016.01432-.036.00724-.0548-.00742-.018-.023176-.0352-.043408-.0414v-.001c-.01066-.004-.022038-.004-.033072-.002-.307628.0518-.6098648.2112-.7668784.41652-.2144242.28042-.184278.66912.043408.9684.0221.1514.01084.3691-.097152.6656l-.063046.1736H3.2545177c-.098414 0-.13775.002-.19637.002l-.19017-.67386.040308-.1788a.1174087.11747878 29.197515 0 0-.00826-.0796l-.2749186-.54984a.1174087.11747878 29.197515 0 0-.13746-.062l-.3017904.0858a.1174087.11747878 29.197515 0 0-.08475.124l.058912.61598a.1174087.11747878 29.197515 0 0 .03514.0724l.125056.122.2955892 1.0449-.4289144.99426v3.47678A5.3879258 5.3879258 0 0 1 .93735337 6.39807 5.3879258 5.3879258 0 0 1 6.3261719 1.00925zm4.3697592 2.24792a5.3879258 5.3879258 0 0 1 1.018025 3.1409 5.3879258 5.3879258 0 0 1-1.584399 3.81166V6.36585l-.3203954-.74312.3234944-1.21438c.163586-.0376.301182-.1608.347266-.33488zM3.4467624 4.96127h.7885821l-.5084959 1.40148H3.468458c-.0001036-.014.00354-.0264.00103-.0414a.1174087.11747878 29.197515 0 0 .00103-.014l-.3038542-1.07488.028938-.0898c.03014-.0836.06437-.1258.09095-.1458.0266-.02.059436-.0362.160198-.0362zm1.6515787 0h.7431069l-.256315.25632c-.06416.0642-.06416.1694 0 .23358l.2780194.27698c-.05752.1088-.109008.2236-.145728.34314h-.3948158c-.09072 0-.160198.0704-.160198.1612v.1302h-.5725741zm2.5166423.99324c.2815628 0 .5211366.1686.6325194.40824H6.9824552c.111384-.2397.3509572-.40824.6325198-.40824zm-4.7635336.24908l.044442.1592h-.096127zm.5457032 4.71288h5.8642416a5.3879258 5.3879258 0 0 1-2.9352214.87126 5.3879258 5.3879258 0 0 1-2.9290202-.87126z"/>
</svg>
