<?xml version="1.0" encoding="UTF-8" standalone="no"?>
<!-- Created with Inkscape (http://www.inkscape.org/) -->

<svg
   xmlns:dc="http://purl.org/dc/elements/1.1/"
   xmlns:cc="http://creativecommons.org/ns#"
   xmlns:rdf="http://www.w3.org/1999/02/22-rdf-syntax-ns#"
   xmlns:svg="http://www.w3.org/2000/svg"
   xmlns="http://www.w3.org/2000/svg"
   xmlns:xlink="http://www.w3.org/1999/xlink"
   xmlns:sodipodi="http://sodipodi.sourceforge.net/DTD/sodipodi-0.dtd"
   xmlns:inkscape="http://www.inkscape.org/namespaces/inkscape"
   width="48"
   height="48"
   viewBox="0 0 12.7 12.7"
   version="1.1"
   id="svg829"
   inkscape:version="0.92.3 (2405546, 2018-03-11)"
   sodipodi:docname="gnome-settings-theme.svg">
  <defs
     id="defs823">
    <radialGradient
       id="radialGradient2912"
       cx="21.959999"
       cy="34.498001"
       r="12.728"
       gradientTransform="matrix(0.02854055,0,0,0.01091235,0.32764239,289.18082)"
       gradientUnits="userSpaceOnUse"
       xlink:href="#linearGradient6221" />
    <linearGradient
       id="linearGradient6221">
      <stop
         id="stop6223"
         offset="0" />
      <stop
         id="stop6225"
         style="stop-opacity:0"
         offset="1" />
    </linearGradient>
    <linearGradient
       id="linearGradient4737"
       x1="304.76001"
       x2="335.29999"
       y1="64.294998"
       y2="81.926003"
       gradientTransform="matrix(0.16417282,0,0,0.16401627,-47.793181,276.02181)"
       gradientUnits="userSpaceOnUse">
      <stop
         id="stop4436"
         style="stop-color:#d3d7cf"
         offset="0" />
      <stop
         id="stop4438"
         style="stop-color:#babdb6"
         offset=".18304" />
      <stop
         id="stop4440"
         style="stop-color:#fff"
         offset=".31893" />
      <stop
         id="stop4442"
         style="stop-color:#babdb6"
         offset=".87644" />
      <stop
         id="stop4444"
         style="stop-color:#eeeeec"
         offset="1" />
    </linearGradient>
    <linearGradient
       id="linearGradient4739"
       x1="324.5"
       x2="330.06"
       y1="70.281998"
       y2="99.274002"
       gradientTransform="matrix(0.16417282,0,0,0.16401627,-47.793181,276.02181)"
       gradientUnits="userSpaceOnUse"
       xlink:href="#linearGradient7444" />
    <linearGradient
       id="linearGradient7444">
      <stop
         id="stop7446"
         style="stop-color:#888a85"
         offset="0" />
      <stop
         id="stop7448"
         style="stop-color:#555753"
         offset="1" />
    </linearGradient>
  </defs>
  <sodipodi:namedview
     id="base"
     pagecolor="#ffffff"
     bordercolor="#666666"
     borderopacity="1.0"
     inkscape:pageopacity="0.0"
     inkscape:pageshadow="2"
     inkscape:zoom="3.9553786"
     inkscape:cx="24"
     inkscape:cy="24"
     inkscape:document-units="mm"
     inkscape:current-layer="layer1"
     showgrid="false"
     showguides="true"
     inkscape:guide-bbox="true"
     inkscape:window-width="1366"
     inkscape:window-height="714"
     inkscape:window-x="0"
     inkscape:window-y="25"
     inkscape:window-maximized="1"
     scale-x="1.9"
     units="px"
     inkscape:snap-global="false" />
  <metadata
     id="metadata826">
    <rdf:RDF>
      <cc:Work
         rdf:about="">
        <dc:format>image/svg+xml</dc:format>
        <dc:type
           rdf:resource="http://purl.org/dc/dcmitype/StillImage" />
        <dc:title></dc:title>
      </cc:Work>
    </rdf:RDF>
  </metadata>
  <g
     inkscape:label="Capa 1"
     inkscape:groupmode="layer"
     id="layer1"
     transform="translate(0,-284.3)">
    <path
       style="fill:#1a1a1a;fill-opacity:1;stroke-width:0.52516764"
       d="M 23.978516 0.27539062 A 23.770509 23.770509 0 0 0 0.20703125 24.046875 A 23.770509 23.770509 0 0 0 23.978516 47.816406 A 23.770509 23.770509 0 0 0 47.748047 24.046875 A 23.770509 23.770509 0 0 0 23.978516 0.27539062 z M 23.910156 3.8144531 A 20.436071 20.436071 0 0 1 44.345703 24.25 A 20.436071 20.436071 0 0 1 23.910156 44.685547 A 20.436071 20.436071 0 0 1 3.4726562 24.25 A 20.436071 20.436071 0 0 1 23.910156 3.8144531 z M 14.675781 9.5488281 C 13.985558 9.53371 13.284598 9.6036078 12.621094 9.7578125 C 12.558955 9.7729306 12.495257 9.8006634 12.449219 9.84375 C 12.368635 9.9242539 12.311123 10.047024 12.339844 10.167969 C 12.352505 10.289292 12.405854 10.38988 12.511719 10.449219 L 16.34375 12.59375 C 16.686039 12.784994 16.854706 13.215073 16.820312 13.763672 C 16.801717 14.315521 16.595872 14.964868 16.236328 15.625 C 15.876891 16.285019 15.433219 16.809219 14.980469 17.119141 C 14.53238 17.426416 14.087234 17.526237 13.746094 17.335938 L 9.9570312 15.214844 C 9.8201103 15.136608 9.6436635 15.135478 9.5234375 15.238281 C 9.429554 15.31425 9.3831927 15.42763 9.3945312 15.541016 L 9.3867188 15.541016 C 9.3867188 15.578811 9.3872965 15.632505 9.4160156 15.669922 C 10.016612 17.402684 11.249697 19.027415 12.642578 19.806641 C 13.745629 20.42346 14.982793 20.55501 16.150391 20.261719 C 16.946747 20.580333 18.007808 21.141277 19.171875 22.255859 L 19.169922 22.257812 L 20.203125 23.130859 C 21.225893 21.841738 22.083814 21.027139 22.988281 20.142578 L 22.175781 19.275391 L 22.164062 19.263672 C 20.993449 17.958299 20.520012 16.602251 20.244141 15.779297 C 20.628257 13.608336 19.721287 11.386883 17.818359 10.322266 C 16.947415 9.8350845 15.826152 9.5759529 14.675781 9.5507812 L 14.675781 9.5488281 z M 36.332031 10.5625 L 36.332031 10.564453 C 34.55244 10.514185 32.138577 11.0205 31.746094 14.148438 L 25.458984 18.953125 L 24.724609 19.646484 C 19.078048 24.545546 10.455078 36.583984 10.455078 36.583984 C 10.080603 37.470964 11.167479 38.113336 11.767578 37.537109 C 11.767578 37.537109 22.552653 27.728526 27.560547 22.650391 L 27.560547 22.648438 L 28.277344 21.833984 L 33.560547 15.541016 C 33.58689 15.537765 33.623309 15.538192 33.644531 15.533203 C 34.591971 15.377109 35.408761 14.605499 35.851562 13.164062 C 36.358484 11.516604 37.562652 10.718851 37.818359 10.720703 C 37.466508 10.658719 36.936277 10.579886 36.332031 10.5625 z M 27.308594 24.083984 C 26.313433 25.190781 25.221609 26.2975 23.988281 27.404297 L 33.898438 37.994141 C 34.864685 38.961246 36.520454 38.834103 37.625 37.728516 C 38.730511 36.623117 38.856872 34.966803 37.890625 34 L 27.308594 24.083984 z M 35.630859 34.322266 C 35.992367 34.322266 36.35254 34.459452 36.626953 34.734375 C 37.176351 35.283956 37.176351 36.180888 36.626953 36.730469 C 36.077852 37.279974 35.182213 37.279974 34.632812 36.730469 C 34.083979 36.18085 34.083979 35.283918 34.632812 34.734375 C 34.907471 34.459603 35.269347 34.322266 35.630859 34.322266 z "
       transform="matrix(0.26458333,0,0,0.26458333,0,284.3)"
       id="path824" />
  </g>
</svg>
