<?xml version="1.0" encoding="UTF-8" standalone="no"?>
<!-- Created with Inkscape (http://www.inkscape.org/) -->

<svg
   xmlns:dc="http://purl.org/dc/elements/1.1/"
   xmlns:cc="http://creativecommons.org/ns#"
   xmlns:rdf="http://www.w3.org/1999/02/22-rdf-syntax-ns#"
   xmlns:svg="http://www.w3.org/2000/svg"
   xmlns="http://www.w3.org/2000/svg"
   xmlns:sodipodi="http://sodipodi.sourceforge.net/DTD/sodipodi-0.dtd"
   xmlns:inkscape="http://www.inkscape.org/namespaces/inkscape"
   width="48"
   height="48"
   viewBox="0 0 12.7 12.7"
   version="1.1"
   id="svg829"
   inkscape:version="0.92.3 (2405546, 2018-03-11)"
   sodipodi:docname="preferences-system-search.svg">
  <defs
     id="defs823" />
  <sodipodi:namedview
     id="base"
     pagecolor="#ffffff"
     bordercolor="#666666"
     borderopacity="1.0"
     inkscape:pageopacity="0.0"
     inkscape:pageshadow="2"
     inkscape:zoom="11.208333"
     inkscape:cx="5.4869883"
     inkscape:cy="23.643123"
     inkscape:document-units="mm"
     inkscape:current-layer="layer1"
     showgrid="false"
     showguides="true"
     inkscape:guide-bbox="true"
     inkscape:window-width="1366"
     inkscape:window-height="719"
     inkscape:window-x="0"
     inkscape:window-y="25"
     inkscape:window-maximized="1"
     scale-x="1.9"
     units="px" />
  <metadata
     id="metadata826">
    <rdf:RDF>
      <cc:Work
         rdf:about="">
        <dc:format>image/svg+xml</dc:format>
        <dc:type
           rdf:resource="http://purl.org/dc/dcmitype/StillImage" />
        <dc:title></dc:title>
      </cc:Work>
    </rdf:RDF>
  </metadata>
  <g
     inkscape:label="Capa 1"
     inkscape:groupmode="layer"
     id="layer1"
     transform="translate(0,-284.3)">
    <path
       style="fill:#1a1a1a;fill-opacity:1;stroke-width:0.1389506"
       d="m 6.3443153,284.37286 a 6.2892804,6.2892804 0 0 0 -6.28953827,6.28954 6.2892804,6.2892804 0 0 0 6.28953827,6.28902 6.2892804,6.2892804 0 0 0 6.2890217,-6.28902 6.2892804,6.2892804 0 0 0 -6.2890217,-6.28954 z m -0.01809,0.93638 a 5.4070437,5.4070437 0 0 1 5.4069047,5.40691 5.4070437,5.4070437 0 0 1 -5.4069047,5.4069 5.4070437,5.4070437 0 0 1 -5.40742137,-5.4069 5.4070437,5.4070437 0 0 1 5.40742137,-5.40691 z m -1.073319,1.11208 c -1.7159649,0 -3.120223,1.40229 -3.120223,3.11712 0,1.71484 1.4042581,3.11661 3.120223,3.11661 0.654566,0 1.262772,-0.20487 1.765784,-0.55243 l 2.088244,2.0867 a 0.56674714,0.56674714 0 1 0 0.801502,-0.8015 l -2.088762,-2.08618 c 0.347321,-0.50241 0.552421,-1.10958 0.552421,-1.7632 0,-1.71483 -1.403224,-3.11712 -3.119189,-3.11712 z m 0,1.13378 a 1.9755131,1.9755131 0 0 1 1.985408,1.98334 c 0,1.10167 -0.881478,1.98334 -1.985408,1.98334 a 1.9766465,1.9766465 0 0 1 -1.9869589,-1.98334 c 0,-1.10166 0.8830289,-1.98334 1.9869589,-1.98334 z"
       id="path1374"
       inkscape:connector-curvature="0" />
  </g>
</svg>
