<svg xmlns="http://www.w3.org/2000/svg" width="48" height="48" viewBox="0 0 12.7 12.7">
  <path fill="#e6e6e6" d="M6.3443153.07286A6.2892804 6.2892804 0 0 0 .05477703 6.3624a6.2892804 6.2892804 0 0 0 6.28953827 6.28902A6.2892804 6.2892804 0 0 0 12.633337 6.3624 6.2892804 6.2892804 0 0 0 6.3443153.07286zm-.01809.93638A5.4070437 5.4070437 0 0 1 11.73313 6.41615a5.4070437 5.4070437 0 0 1-5.4069047 5.4069 5.4070437 5.4070437 0 0 1-5.40742137-5.4069A5.4070437 5.4070437 0 0 1 6.3262253 1.00924zm-1.073319 1.11208c-1.7159649 0-3.120223 1.40229-3.120223 3.11712 0 1.71484 1.4042581 3.11661 3.120223 3.11661.654566 0 1.262772-.20487 1.765784-.55243l2.088244 2.0867a.56674714.56674714 0 1 0 .801502-.8015l-2.088762-2.08618c.347321-.50241.552421-1.10958.552421-1.7632 0-1.71483-1.403224-3.11712-3.119189-3.11712zm0 1.13378a1.9755131 1.9755131 0 0 1 1.985408 1.98334c0 1.10167-.881478 1.98334-1.985408 1.98334a1.9766465 1.9766465 0 0 1-1.9869589-1.98334c0-1.10166.8830289-1.98334 1.9869589-1.98334z"/>
</svg>
