<svg xmlns="http://www.w3.org/2000/svg" width="48" height="48" viewBox="0 0 12.7 12.7"><path fill="#e6e6e6" d="M6.344.073a6.29 6.29 0 0 0-6.29 6.29 6.29 6.29 0 0 0 6.29 6.289 6.29 6.29 0 0 0 6.29-6.29 6.29 6.29 0 0 0-6.29-6.29zm-.018.936a5.407 5.407 0 0 1 5.407 5.407 5.407 5.407 0 0 1-5.407 5.407A5.407 5.407 0 0 1 .92 6.416 5.407 5.407 0 0 1 6.326 1.01z"/><g color="#000" transform="matrix(-1 0 0 1 0 -284.3)"><circle cx="-8.136" cy="292.096" r="2.679" fill="#0ff" opacity=".6" overflow="visible" style="marker:none"/><circle cx="-4.564" cy="292.096" r="2.679" fill="#f0f" opacity=".4" overflow="visible" style="marker:none"/><circle cx="-6.31" cy="288.513" r="2.679" fill="#ff0" opacity=".6" overflow="visible" style="marker:none"/></g></svg>