<svg xmlns="http://www.w3.org/2000/svg" width="48" height="48" viewBox="0 0 12.7 12.7">
  <path fill="#e6e6e6" d="M6.34431561.07286377a6.28928043 6.28928043 0 0 0-6.2895386 6.2895385 6.28928043 6.28928043 0 0 0 6.2895386 6.28902166 6.28928043 6.28928043 0 0 0 6.28902167-6.28902167A6.28928043 6.28928043 0 0 0 6.3443156.07286376zm-.01808691.93637693a5.40704372 5.40704372 0 0 1 5.40690507 5.40690505 5.40704372 5.40704372 0 0 1-5.40690507 5.40690508A5.40704372 5.40704372 0 0 1 .91880694 6.41614575 5.40704372 5.40704372 0 0 1 6.3262287 1.0092407zM3.89330243 2.49545488c-.5444371 0-.9828858.4379289-.9828858.9823689v4.91391199c0 .54444.4384487.9828858.9828858.9828858H8.8066974c.5444371 0 .9828858-.4384458.9828858-.9828858V3.47782378c0-.54444-.4384487-.9823689-.9828858-.9823689H3.89330243zm0 .49144274H8.8066974c.27221868 0 .4914429.21870616.4914429.49092616v4.42246909c0 .27222-.21922422.4914429-.4914429.4914429H3.89330243c-.27221842 0-.4914429-.2192229-.4914429-.4914429V3.47782378c0-.27222.21922448-.49092616.4914429-.49092616zm3.27060132 1.9621542c-.38818158 0-.76117952.12621287-1.12086177.36845293l.18396797.4180623c.15330725-.10318988.302954-.17691682.4454509-.23047669.1464281-.05699998.2800805-.07699798.42994791-.07699798.221116 0 .38901714.05105188.5069459.16898196.11743716.11399997.21497395.26955988.21497395.4759399v.15089532c-.1031875-.03930015-.25570867-.07090093-.38395592-.09250098a1.97284668 1.97284668 0 0 0-.38395592-.030489c-.17492741 0-.3300288.01879495-.47645663.061495-.14249717.04279979-.2768121.10586481-.38343919.18448469-.1031875.07860003-.17350343.16932222-.23099368.2759522-.05650706.10712001-.09146725.2703793-.09146725.40255931 0 .12481004.0303178.2458302.07699798.3529502.0496279.10661993.1019093.1983388.18396796.27646894.085498.07859977.19298576.13728805.30747467.18396796.11743743.04280006.24779605.06149499.38292246.06149499.2107975 0 .40262836-.03744992.58394361-.12298997.18524617-.0889.33614624-.21980896.4609539-.3834392l.014986.16898197a.36508719.36508719 0 0 0 .10800398.21445723c.06043797.05360008.1469681.08510084.26096595.09250097.03930888 0 .0917874.00299985.13797597 0 .05012002-.0030001.09648057-.00480298.15347897-.015503v-.50694589c-.06092984-.00299984-.1485728-.01749186-.17363281-.04599199a.24470179.24470179 0 0 1-.05684414-.15347897V6.1009196c0-.36706016-.0467032-.64833288-.26044922-.84439283-.2137455-.19605016-.50615955-.30747493-.89090155-.30747493zm-.0444418 1.50843508c.10711842 0 .29871935.02490867.40927734.04650872.11399758.02160005.1958414.05216737.29558932.09146725v.36845293c0 .07120016-.06380532.15057728-.13849297.21445722-.20981458.18672016-.46220644.21131688-.70641685.23047695-.16018642 0-.36086679.00928423-.46405429-.08371575-.1031875-.09630013-.16536458-.20717219-.16536458-.34623216 0-.14986.14429052-.27952303.27646894-.36845292a.8205863.8205863 0 0 1 .4929931-.15244551V6.4574869z"/>
</svg>
