<svg xmlns="http://www.w3.org/2000/svg" width="48" height="48" viewBox="0 0 12.7 12.7">
  <path fill="#e6e6e6" d="M6.34431561.07286377a6.28928043 6.28928043 0 0 0-6.2895386 6.2895385 6.28928043 6.28928043 0 0 0 6.2895386 6.28902166 6.28928043 6.28928043 0 0 0 6.28902167-6.28902167A6.28928043 6.28928043 0 0 0 6.3443156.07286376zm-.01808691.93637693a5.40704372 5.40704372 0 0 1 5.40690507 5.40690505 5.40704372 5.40704372 0 0 1-5.40690507 5.40690508A5.40704372 5.40704372 0 0 1 .91880694 6.41614575 5.40704372 5.40704372 0 0 1 6.3262287 1.0092407zm.02325449.31367595c-.15800096 0-.3156458.01488734-.47077233.02118733l-.29197193 1.5037842a3.59954693 3.59954693 0 0 0-.6955647.22427565L3.79149975 2.01899819c-.27937592.1653-.52195068.3694069-.763261.5834269l.65060644 1.36890878a3.63186526 3.63186526 0 0 0-.4258138.58394361L1.74873045 4.3532226a4.96266358 4.96266358 0 0 0-.29145508.91984062l1.32395025.7183022a3.46596436 3.46596436 0 0 0-.02170404.35915123c0 .12501007.00944007.23807446.02170404.3586345l-1.32395025.71830247c.069668.31957988.16361929.62611026.29145508.91984035l1.50430095-.20153815c.12209145.2083001.2663743.40412035.4258138.58291015l-.65060644 1.36994237c.24130979.21342984.48388693.4177702.763261.58291015l1.09967446-1.05471594c.21976265.09859989.454973.17208553.6955647.22427565l.29197194 1.50430095a5.11204653 5.11204653 0 0 0 .94206139 0L7.1132609 9.8510782c.23987601-.05170012.4760005-.1264457.69504798-.22427565l1.1001912 1.0557494c.27865625-.1651201.5221515-.36997375.762744-.58394361L9.0206379 8.72866597c.1594395-.1787898.30423855-.37463994.42633053-.58291015l1.5032675.20153815a4.96266358 4.96266358 0 0 0 .29248866-.91984035l-1.3244671-.71778574c.01217903-.1212199.02222076-.2349111.02222076-.35915123 0-.12378002-.01003168-.2381213-.02222077-.35915123l1.32446711-.71778547a4.96122769 4.96122769 0 0 0-.29248867-.92035735l-1.5032675.20205488a3.63186526 3.63186526 0 0 0-.42633052-.5839436l.65060617-1.36890878c-.2405933-.21375-.484088-.41776015-.762744-.58291015L7.80779216 3.07371429a3.60170196 3.60170196 0 0 0-.69556497-.22427592L6.8202555 1.34565428a5.11204653 5.11204653 0 0 0-.47077232-.02118733v-.0015503zm.03203945 1.99677732a3.02584693 3.02584693 0 0 1 3.0256551 3.0256551 3.02584693 3.02584693 0 0 1-3.0256551 3.02565511 3.02584693 3.02584693 0 0 1-3.02617183-3.0256551 3.02584693 3.02584693 0 0 1 3.02617183-3.02565511zm-.21910807.2180746v.00465085c-1.40394714.09219988-2.52671418 1.21448485-2.61896169 2.6184447h-.0056843v.37517095h.0056843c.09224698 1.40397996 1.21501349 2.52565797 2.6189617 2.61792796v.00516785H6.53758526v-.00516785c1.40394714-.09219988 2.52516637-1.213948 2.61741123-2.61792796h.00723476v-.37517096H9.1549965c-.09223984-1.40394-1.21346409-2.5261747-2.61741123-2.61844469v-.00465084h-.3751707zm0 .39894193v1.10070792h-.91880715c.20136802-.58386979.53332194-.99795778.91880715-1.10070792zm.3751707 0c.38511109.10275014.7169232.51683813.91829042 1.10070792h-.91829042V3.9367105zm-1.23920063.21394049c-.1811192.24072003-.33233757.54253764-.44183353.88676743h-.56172284c.2444906-.38136988.59257114-.68990738 1.00355637-.88676743zm2.10323056 0c.41061005.19686005.75803283.50539755 1.00252291.88676743h-.56068938c-.10987088-.34422979-.25996556-.6460474-.44183353-.88676743zm-3.30212378 1.2619384h.6588744c-.05024887.23697008-.08186102.48845522-.09198398.74982518h-.74724126c.01987206-.26399013.0828532-.51623515.18035084-.74982519zm1.03817948 0h1.02474367v.74982518H5.04103581c.0108802-.26399013.04377504-.51623515.09663509-.74982519zm1.39991437 0h1.02319348c.05325004.23359003.08655526.48583505.09818528.74982518H6.53758527v-.74982519zm1.40404874 0h.6588744c.09750002.23359003.15995915.48583505.17983412.74982518H8.033618c-.01011-.26136996-.041733-.5128551-.09198399-.74982519zM3.91914058 6.53758526h.74724126c.01011397.26136017.04173511.5128252.09198399.74982519h-.6588744c-.09749711-.23361994-.16047694-.48584511-.18035085-.7498252zm1.12189523 0h1.12137876v.74982519H5.1376709c-.05288015-.23361994-.08576495-.48584511-.0966351-.7498252zm1.49654946 0h1.12137876c-.01087014.26398008-.04493524.51620525-.09818528.74982519H6.53758527v-.7498252zm1.49603273 0h.74569107c-.01950006.26398008-.08129746.51620525-.17880065.74982519h-.6588744c.05024993-.237.08186314-.48846502.09198398-.7498252zM4.29482827 7.66258142h.56172284c.10949596.34422979.26034047.64602756.44183353.88676743-.41098523-.1968799-.75906577-.50502766-1.00355637-.88676743zm.94877915 0h.91880715v1.10070792c-.3854852-.10319014-.71743913-.51685798-.91880715-1.10070792zm1.29397785 0h.91829042c-.20136723.58384994-.53317933.99757784-.91829042 1.10070792V7.66258142zm1.30586346 0h.56068938c-.24449008.38173977-.59191286.68988754-1.0025229.88676743.18111813-.24112987.33196264-.54253764.44183352-.88676743z"/>
</svg>
