<?xml version="1.0" encoding="UTF-8" standalone="no"?>
<!-- Created with Inkscape (http://www.inkscape.org/) -->

<svg
   xmlns:dc="http://purl.org/dc/elements/1.1/"
   xmlns:cc="http://creativecommons.org/ns#"
   xmlns:rdf="http://www.w3.org/1999/02/22-rdf-syntax-ns#"
   xmlns:svg="http://www.w3.org/2000/svg"
   xmlns="http://www.w3.org/2000/svg"
   xmlns:sodipodi="http://sodipodi.sourceforge.net/DTD/sodipodi-0.dtd"
   xmlns:inkscape="http://www.inkscape.org/namespaces/inkscape"
   width="48"
   height="48"
   viewBox="0 0 12.7 12.7"
   version="1.1"
   id="svg829"
   inkscape:version="0.92.3 (2405546, 2018-03-11)"
   sodipodi:docname="preferences-desktop-display.svg">
  <defs
     id="defs823" />
  <sodipodi:namedview
     id="base"
     pagecolor="#ffffff"
     bordercolor="#666666"
     borderopacity="1.0"
     inkscape:pageopacity="0.0"
     inkscape:pageshadow="2"
     inkscape:zoom="5.6041667"
     inkscape:cx="21.591078"
     inkscape:cy="26.855018"
     inkscape:document-units="mm"
     inkscape:current-layer="layer1"
     showgrid="false"
     showguides="true"
     inkscape:guide-bbox="true"
     inkscape:window-width="1366"
     inkscape:window-height="719"
     inkscape:window-x="0"
     inkscape:window-y="25"
     inkscape:window-maximized="1"
     scale-x="1.9"
     units="px"
     inkscape:snap-global="false" />
  <metadata
     id="metadata826">
    <rdf:RDF>
      <cc:Work
         rdf:about="">
        <dc:format>image/svg+xml</dc:format>
        <dc:type
           rdf:resource="http://purl.org/dc/dcmitype/StillImage" />
        <dc:title></dc:title>
      </cc:Work>
    </rdf:RDF>
  </metadata>
  <g
     inkscape:label="Capa 1"
     inkscape:groupmode="layer"
     id="layer1"
     transform="translate(0,-284.3)">
    <path
       style="fill:#e6e6e6;fill-opacity:1;stroke-width:0.52516764"
       d="M 23.978516 0.27539062 A 23.770509 23.770509 0 0 0 0.20703125 24.046875 A 23.770509 23.770509 0 0 0 23.978516 47.816406 A 23.770509 23.770509 0 0 0 47.748047 24.046875 A 23.770509 23.770509 0 0 0 23.978516 0.27539062 z M 23.910156 3.8144531 A 20.436071 20.436071 0 0 1 44.345703 24.25 A 20.436071 20.436071 0 0 1 23.910156 44.685547 A 20.436071 20.436071 0 0 1 3.4726562 24.25 A 20.436071 20.436071 0 0 1 23.910156 3.8144531 z M 12.570312 10.851562 C 10.459661 10.851562 8.7597656 12.580938 8.7597656 14.730469 L 8.7597656 34.132812 C 8.7597656 36.282343 10.459661 38.011719 12.570312 38.011719 L 35.429688 38.011719 C 37.540339 38.011719 39.240234 36.282343 39.240234 34.132812 L 39.240234 14.730469 C 39.240234 12.580938 37.540339 10.851562 35.429688 10.851562 L 12.570312 10.851562 z M 14.148438 13.019531 L 33.941406 13.019531 C 35.768866 13.019531 37.240234 14.490769 37.240234 16.318359 L 37.240234 32.8125 C 37.240234 34.640053 35.768866 36.109375 33.941406 36.109375 L 14.148438 36.109375 C 12.320977 36.109375 10.849609 34.640053 10.849609 32.8125 L 10.849609 16.318359 C 10.849609 14.490769 12.320977 13.019531 14.148438 13.019531 z M 21.570312 14.669922 L 18.271484 19.617188 L 20.746094 19.617188 L 20.746094 24.564453 L 17.447266 24.564453 L 17.447266 22.091797 L 12.5 25.390625 L 17.447266 28.6875 L 17.447266 26.214844 L 20.746094 26.214844 L 20.746094 29.513672 L 18.271484 29.513672 L 21.570312 34.460938 L 24.869141 29.513672 L 22.396484 29.513672 L 22.396484 26.214844 L 30.642578 26.214844 L 30.642578 28.6875 L 35.589844 25.390625 L 30.642578 22.091797 L 30.642578 24.564453 L 22.396484 24.564453 L 22.396484 19.617188 L 24.869141 19.617188 L 21.570312 14.669922 z "
       transform="matrix(0.26458333,0,0,0.26458333,0,284.3)"
       id="path1374" />
  </g>
</svg>
