<?xml version="1.0" encoding="UTF-8" standalone="no"?>
<!-- Created with Inkscape (http://www.inkscape.org/) -->

<svg
   xmlns:dc="http://purl.org/dc/elements/1.1/"
   xmlns:cc="http://creativecommons.org/ns#"
   xmlns:rdf="http://www.w3.org/1999/02/22-rdf-syntax-ns#"
   xmlns:svg="http://www.w3.org/2000/svg"
   xmlns="http://www.w3.org/2000/svg"
   xmlns:sodipodi="http://sodipodi.sourceforge.net/DTD/sodipodi-0.dtd"
   xmlns:inkscape="http://www.inkscape.org/namespaces/inkscape"
   width="48"
   height="48"
   viewBox="0 0 12.7 12.7"
   version="1.1"
   id="svg829"
   inkscape:version="0.92.3 (2405546, 2018-03-11)"
   sodipodi:docname="preferences-system-windows.svg">
  <defs
     id="defs823" />
  <sodipodi:namedview
     id="base"
     pagecolor="#ffffff"
     bordercolor="#666666"
     borderopacity="1.0"
     inkscape:pageopacity="0.0"
     inkscape:pageshadow="2"
     inkscape:zoom="2.8020833"
     inkscape:cx="19.182156"
     inkscape:cy="22.572491"
     inkscape:document-units="mm"
     inkscape:current-layer="layer1"
     showgrid="false"
     showguides="true"
     inkscape:guide-bbox="true"
     inkscape:window-width="1366"
     inkscape:window-height="719"
     inkscape:window-x="0"
     inkscape:window-y="25"
     inkscape:window-maximized="1"
     scale-x="1.9"
     units="px"
     inkscape:snap-global="true" />
  <metadata
     id="metadata826">
    <rdf:RDF>
      <cc:Work
         rdf:about="">
        <dc:format>image/svg+xml</dc:format>
        <dc:type
           rdf:resource="http://purl.org/dc/dcmitype/StillImage" />
        <dc:title></dc:title>
      </cc:Work>
    </rdf:RDF>
  </metadata>
  <g
     inkscape:label="Capa 1"
     inkscape:groupmode="layer"
     id="layer1"
     transform="translate(0,-284.3)">
    <path
       style="fill:#e6e6e6;fill-opacity:1;stroke-width:0.52516764"
       d="M 23.978516 0.27539062 A 23.770509 23.770509 0 0 0 0.20703125 24.046875 A 23.770509 23.770509 0 0 0 23.978516 47.816406 A 23.770509 23.770509 0 0 0 47.748047 24.046875 A 23.770509 23.770509 0 0 0 23.978516 0.27539062 z M 23.910156 3.8144531 A 20.436071 20.436071 0 0 1 44.345703 24.25 A 20.436071 20.436071 0 0 1 23.910156 44.685547 A 20.436071 20.436071 0 0 1 3.4726562 24.25 A 20.436071 20.436071 0 0 1 23.910156 3.8144531 z M 19.166016 10.144531 C 18.45197 10.144531 17.876953 10.719528 17.876953 11.433594 L 17.876953 19.810547 L 10.789062 19.810547 C 10.075019 19.810547 9.5 20.385543 9.5 21.099609 L 9.5 36.566406 C 9.5 37.280472 10.075019 37.855469 10.789062 37.855469 L 28.833984 37.855469 C 29.548029 37.855469 30.123047 37.280472 30.123047 36.566406 L 30.123047 28.216797 L 37.210938 28.189453 C 37.924983 28.187072 38.5 27.614457 38.5 26.900391 L 38.5 11.435547 C 38.5 10.721481 37.924991 10.146484 37.210938 10.146484 L 19.166016 10.144531 z M 19.166016 14.333984 L 37.210938 14.333984 C 37.389384 14.333984 37.533203 14.478612 37.533203 14.65625 L 37.533203 26.900391 C 37.533203 27.078784 37.389418 27.2219 37.210938 27.222656 L 30.123047 27.248047 L 30.123047 21.099609 C 30.123047 20.385581 29.548029 19.810547 28.833984 19.810547 L 18.779297 19.810547 L 18.84375 14.654297 C 18.845941 14.475903 18.987512 14.333984 19.166016 14.333984 z M 10.789062 24 L 28.833984 24 C 29.012507 24 29.15625 24.144628 29.15625 24.322266 L 29.15625 36.566406 C 29.15625 36.744422 29.012484 36.888672 28.833984 36.888672 L 10.789062 36.888672 C 10.610544 36.888672 10.466797 36.744044 10.466797 36.566406 L 10.466797 24.322266 C 10.466797 24.14425 10.610559 24 10.789062 24 z "
       transform="matrix(0.26458333,0,0,0.26458333,0,284.3)"
       id="path822" />
  </g>
</svg>
