<svg xmlns="http://www.w3.org/2000/svg" width="48" height="48" viewBox="0 0 12.7 12.7">
  <path fill="#e6e6e6" d="M6.34431561.07286377a6.28928043 6.28928043 0 0 0-6.2895386 6.2895385 6.28928043 6.28928043 0 0 0 6.2895386 6.28902166 6.28928043 6.28928043 0 0 0 6.28902167-6.28902167A6.28928043 6.28928043 0 0 0 6.3443156.07286376zm-.01808691.93637693a5.40704372 5.40704372 0 0 1 5.40690507 5.40690505 5.40704372 5.40704372 0 0 1-1.16788722 3.34708258H8.20673408v-.08991706c0-.06575504-.05310056-.11885586-.11885586-.11885586h-.33951413v-.59221184h1.63969328c.37085243 0 .66920982-.29834972.66920982-.66920982V3.71346831c0-.37085005-.29835739-.66972655-.66920982-.66972655H3.4085773c-.37085217 0-.66920956.2988765-.66920956.66972655v4.57956544c0 .3708601.2983574.66920982.66920956.66920982h1.68000096v.59221184h-.47645664c-.0657553 0-.11885586.05310082-.11885586.11885586v.08991706H2.08100991A5.40704372 5.40704372 0 0 1 .91880694 6.41614575 5.40704372 5.40704372 0 0 1 6.3262287 1.0092407zM3.91655665 3.71036792h5.0007284c.28646569 0 .51728104.23030445.51728104.51676406v3.53725184c0 .28646014-.23081535.51728105-.51728105.51728105H3.91655665c-.28646542 0-.51728104-.23082091-.51728104-.51728105V4.22713198c0-.28645961.23081562-.51676406.51728104-.51676406zm3.3207277.87746575c-.0657553 0-.11885586.05310055-.11885586.1188556v.94516203c0 .06575504.05310055.11885585.11885586.11885585h1.34720434c.0657553 0 .11885586-.05310081.11885586-.11885585v-.94516204c0-.06575504-.05310055-.1188556-.11885586-.1188556H7.23728435zm-2.86184098 1.0407634c-.06575505 0-.11833887.05310055-.11833887.1188556V7.3075643c0 .06575504.05258382.11833886.11833887.11833886h1.70222172c.06575505 0 .11885586-.05258382.11885586-.11833886V5.74745266c0-.06575504-.05310081-.1188556-.11885586-.1188556H4.37544337zm-1.7146238 4.75371471h1.8324462v.09405117c0 .06575505.05310055.11885586.11885585.11885586h3.4757566c.0657553 0 .11885586-.05310081.11885586-.11885586v-.09405117h1.78697094a5.40704372 5.40704372 0 0 1-3.66747632 1.44073905 5.40704372 5.40704372 0 0 1-3.66540914-1.44073905z"/>
</svg>
