<?xml version="1.0" encoding="UTF-8" standalone="no"?>
<!-- Created with Inkscape (http://www.inkscape.org/) -->

<svg
   xmlns:dc="http://purl.org/dc/elements/1.1/"
   xmlns:cc="http://creativecommons.org/ns#"
   xmlns:rdf="http://www.w3.org/1999/02/22-rdf-syntax-ns#"
   xmlns:svg="http://www.w3.org/2000/svg"
   xmlns="http://www.w3.org/2000/svg"
   xmlns:sodipodi="http://sodipodi.sourceforge.net/DTD/sodipodi-0.dtd"
   xmlns:inkscape="http://www.inkscape.org/namespaces/inkscape"
   width="48"
   height="48"
   viewBox="0 0 12.7 12.7"
   version="1.1"
   id="svg829"
   inkscape:version="0.92.3 (2405546, 2018-03-11)"
   sodipodi:docname="preferences-system.svg">
  <defs
     id="defs823" />
  <sodipodi:namedview
     id="base"
     pagecolor="#ffffff"
     bordercolor="#666666"
     borderopacity="1.0"
     inkscape:pageopacity="0.0"
     inkscape:pageshadow="2"
     inkscape:zoom="5.125"
     inkscape:cx="-12.04878"
     inkscape:cy="22.829268"
     inkscape:document-units="mm"
     inkscape:current-layer="layer1"
     showgrid="false"
     showguides="true"
     inkscape:guide-bbox="true"
     inkscape:window-width="1366"
     inkscape:window-height="719"
     inkscape:window-x="0"
     inkscape:window-y="25"
     inkscape:window-maximized="1"
     scale-x="1.9"
     units="px"
     inkscape:snap-global="false" />
  <metadata
     id="metadata826">
    <rdf:RDF>
      <cc:Work
         rdf:about="">
        <dc:format>image/svg+xml</dc:format>
        <dc:type
           rdf:resource="http://purl.org/dc/dcmitype/StillImage" />
        <dc:title></dc:title>
      </cc:Work>
    </rdf:RDF>
  </metadata>
  <g
     inkscape:label="Capa 1"
     inkscape:groupmode="layer"
     id="layer1"
     transform="translate(0,-284.3)">
    <path
       style="fill:#e6e6e6;fill-opacity:1;stroke-width:0.52516764"
       d="M 23.978516 0.27539062 A 23.770509 23.770509 0 0 0 0.20703125 24.046875 A 23.770509 23.770509 0 0 0 23.978516 47.816406 A 23.770509 23.770509 0 0 0 47.748047 24.046875 A 23.770509 23.770509 0 0 0 23.978516 0.27539062 z M 23.910156 3.8144531 A 20.436071 20.436071 0 0 1 44.345703 24.25 A 20.436071 20.436071 0 0 1 23.910156 44.685547 A 20.436071 20.436071 0 0 1 3.4726562 24.25 A 20.436071 20.436071 0 0 1 23.910156 3.8144531 z M 13.734375 10.246094 C 13.311649 10.275914 12.895663 10.410523 12.527344 10.650391 C 12.387785 10.742611 12.25473 10.849885 12.130859 10.974609 L 11.630859 11.470703 C 10.63975 12.454552 10.636272 14.041139 11.623047 15.029297 L 21.228516 24.648438 C 21.915924 25.336878 22.892627 25.533971 23.759766 25.265625 L 32.158203 33.65625 L 32.40625 34.572266 A 0.63478609 0.63516488 89.982474 0 0 32.654297 34.923828 L 35.410156 36.832031 A 0.63478609 0.63516488 89.982474 0 0 36.220703 36.761719 L 37.419922 35.566406 A 0.63478609 0.63516488 89.982474 0 0 37.486328 34.75 L 35.619141 32.001953 A 0.63478609 0.63516488 89.982474 0 0 35.263672 31.755859 L 34.314453 31.476562 L 25.925781 23.097656 C 26.182234 22.243143 25.982887 21.284688 25.304688 20.605469 L 15.701172 10.986328 C 15.269464 10.553345 14.720966 10.310625 14.158203 10.255859 L 14.158203 10.251953 C 14.017513 10.238252 13.875284 10.236154 13.734375 10.246094 z M 31.361328 10.435547 L 31.361328 10.443359 C 31.328068 10.443359 31.28077 10.447066 31.248047 10.455078 C 29.732061 10.987009 28.312124 12.075471 27.634766 13.298828 C 27.098375 14.267899 26.990454 15.351063 27.251953 16.373047 C 26.9591 17.11459 26.448441 18.114598 25.351562 19.212891 L 26.435547 20.421875 C 27.009911 21.449113 27.099994 22.267949 26.996094 22.962891 C 28.212905 21.74456 30.417142 20.208266 31.193359 19.943359 C 33.09722 20.271422 35.041391 19.470097 35.966797 17.798828 C 36.64443 16.574828 36.808391 14.790925 36.441406 13.242188 C 36.428253 13.187384 36.401386 13.124615 36.363281 13.089844 C 36.292143 13.009718 36.186162 12.980156 36.080078 12.994141 C 35.973994 13.0017 35.883747 13.055524 35.832031 13.150391 L 33.970703 16.515625 C 33.804631 16.814586 33.426061 16.950211 32.945312 16.935547 C 32.461678 16.927988 31.890414 16.743905 31.310547 16.431641 C 30.730807 16.119074 30.273452 15.731238 30 15.335938 C 29.729144 14.943358 29.639061 14.553094 29.804688 14.253906 L 31.648438 10.927734 C 31.717266 10.807545 31.715969 10.654315 31.626953 10.548828 C 31.560135 10.468702 31.460809 10.430633 31.361328 10.435547 z M 19.677734 24.546875 L 11.783203 32.003906 C 10.939723 32.854451 11.0544 34.305827 12.027344 35.269531 C 13.000281 36.233349 14.453436 36.336684 15.296875 35.486328 L 23.763672 26.375 C 22.212565 26.870307 20.86654 26.153578 19.677734 24.548828 L 19.677734 24.546875 z M 13.765625 32.273438 L 13.765625 32.277344 C 14.082572 32.275983 14.398783 32.396277 14.640625 32.634766 C 15.124336 33.113896 15.127859 33.899411 14.648438 34.382812 C 14.169015 34.865798 13.384067 34.872199 12.900391 34.386719 C 12.416664 33.907588 12.413151 33.121998 12.892578 32.638672 C 13.13228 32.396782 13.448677 32.274571 13.765625 32.273438 z "
       transform="matrix(0.26458333,0,0,0.26458333,0,284.3)"
       id="path1374" />
  </g>
</svg>
