<?xml version="1.0" encoding="UTF-8" standalone="no"?>
<!-- Created with Inkscape (http://www.inkscape.org/) -->

<svg
   xmlns:dc="http://purl.org/dc/elements/1.1/"
   xmlns:cc="http://creativecommons.org/ns#"
   xmlns:rdf="http://www.w3.org/1999/02/22-rdf-syntax-ns#"
   xmlns:svg="http://www.w3.org/2000/svg"
   xmlns="http://www.w3.org/2000/svg"
   xmlns:sodipodi="http://sodipodi.sourceforge.net/DTD/sodipodi-0.dtd"
   xmlns:inkscape="http://www.inkscape.org/namespaces/inkscape"
   width="48"
   height="48"
   viewBox="0 0 12.7 12.7"
   version="1.1"
   id="svg829"
   inkscape:version="0.92.3 (2405546, 2018-03-11)"
   sodipodi:docname="preferences-other.svg">
  <defs
     id="defs823" />
  <sodipodi:namedview
     id="base"
     pagecolor="#ffffff"
     bordercolor="#666666"
     borderopacity="1.0"
     inkscape:pageopacity="0.0"
     inkscape:pageshadow="2"
     inkscape:zoom="10.25"
     inkscape:cx="5.5609756"
     inkscape:cy="23.609756"
     inkscape:document-units="mm"
     inkscape:current-layer="layer1"
     showgrid="false"
     showguides="true"
     inkscape:guide-bbox="true"
     inkscape:window-width="1366"
     inkscape:window-height="719"
     inkscape:window-x="0"
     inkscape:window-y="25"
     inkscape:window-maximized="1"
     scale-x="1.9"
     units="px" />
  <metadata
     id="metadata826">
    <rdf:RDF>
      <cc:Work
         rdf:about="">
        <dc:format>image/svg+xml</dc:format>
        <dc:type
           rdf:resource="http://purl.org/dc/dcmitype/StillImage" />
        <dc:title></dc:title>
      </cc:Work>
    </rdf:RDF>
  </metadata>
  <g
     inkscape:label="Capa 1"
     inkscape:groupmode="layer"
     id="layer1"
     transform="translate(0,-284.3)">
    <path
       inkscape:connector-curvature="0"
       style="fill:#1a1a1a;fill-opacity:1;stroke-width:0.1384593"
       d="m 6.3437348,284.37889 a 6.2670426,6.2670426 0 0 0 -6.26731743,6.26732 6.2670426,6.2670426 0 0 0 6.26731743,6.26628 6.2670426,6.2670426 0 0 0 6.2673172,-6.26628 6.2670426,6.2670426 0 0 0 -1.620573,-4.1951 l 0.134358,-0.50746 c 0.06616,-0.24968 -0.0819,-0.50304 -0.331762,-0.56844 l -0.12609,-0.033 c -0.03123,-0.008 -0.06305,-0.012 -0.09405,-0.014 v -0.001 c -0.206044,-0.012 -0.394571,0.1176 -0.463021,0.3173 a 6.2670426,6.2670426 0 0 0 -3.7661772,-1.26558 z m -0.01756,0.93224 a 5.3879258,5.3879258 0 0 1 3.5191646,1.31156 l -0.3927422,1.48208 c -0.045466,0.1716 0.0119,0.3429 0.132292,0.45578 l -0.164332,0.61392 c -0.036084,-0.016 -0.090134,-0.016 -0.139526,-0.02 l -0.2284096,-0.22842 c -0.06415,-0.0642 -0.169426,-0.0642 -0.2335778,0 l -0.114722,0.1148 -0.3162596,-0.96428 c -0.088246,-0.27022 -0.10083,-0.4728 -0.082682,-0.62012 0.140538,-0.151 0.2251476,-0.34212 0.2222086,-0.54672 -0.0037,-0.25834 -0.15122,-0.55242 -0.3648354,-0.76068 -0.0181,-0.018 -0.046132,-0.023 -0.071314,-0.014 -0.025188,0.01 -0.042186,0.0344 -0.041344,0.06 l 0.0093,0.70486 c 8.996e-4,0.0632 -0.049864,0.12 -0.133326,0.1644 -0.08426,0.0448 -0.19994,0.0756 -0.3296956,0.0826 -0.129774,0.008 -0.2454286,-0.01 -0.3307292,-0.0454 -0.084796,-0.0354 -0.138618,-0.0874 -0.139524,-0.1508 l -0.0093,-0.70798 c -3.038e-4,-0.02 -0.01068,-0.038 -0.027902,-0.0486 -0.01724,-0.01 -0.039274,-0.012 -0.058912,-0.006 v 10e-4 c -0.01046,0.004 -0.01952,0.01 -0.026872,0.018 -0.2078948,0.23102 -0.3458168,0.54252 -0.3420982,0.80098 0.00508,0.35296 0.2672396,0.63956 0.6283854,0.7338 0.110144,0.1052 0.2349054,0.2832 0.3327966,0.58292 l 0.057878,0.1758 H 7.1912306 c -0.090722,0 -0.160198,0.0694 -0.160198,0.1602 v 0.3948 c -0.074536,0.023 -0.143392,0.0586 -0.2139406,0.091 h -0.18397 l -0.2222088,-0.22222 c -0.064152,-0.0642 -0.169426,-0.0642 -0.2335774,0 l -0.2222086,0.22222 H 5.1510426 c 0.08593,-0.1974 0.1803,-0.34352 0.2687174,-0.43098 0.2047166,-0.031 0.3893618,-0.129 0.5136636,-0.29146 0.15694,-0.20524 0.2232136,-0.52792 0.182934,-0.82476 -0.00302,-0.0256 -0.022108,-0.0476 -0.048578,-0.0548 -0.026452,-0.008 -0.055162,0.001 -0.07028,0.0218 l -0.4289144,0.55914 c -0.038396,0.0502 -0.114154,0.0638 -0.2077392,0.0466 -0.09451,-0.018 -0.2051229,-0.065 -0.3121241,-0.1406 -0.107064,-0.0756 -0.188016,-0.1616 -0.2335775,-0.24288 -0.045288,-0.0806 -0.054986,-0.1544 -0.01654,-0.20464 l 0.4309815,-0.56224 c 0.0119,-0.016 0.01432,-0.036 0.00724,-0.0548 -0.00742,-0.018 -0.023176,-0.0352 -0.043408,-0.0414 v -0.001 c -0.01066,-0.004 -0.022038,-0.004 -0.033072,-0.002 -0.307628,0.0518 -0.6098648,0.2112 -0.7668784,0.41652 -0.2144242,0.28042 -0.184278,0.66912 0.043408,0.9684 0.0221,0.1514 0.01084,0.3691 -0.097152,0.6656 l -0.063046,0.1736 H 3.2545177 c -0.098414,0 -0.13775,0.002 -0.19637,0.002 l -0.19017,-0.67386 0.040308,-0.1788 a 0.1174087,0.11747878 29.197515 0 0 -0.00826,-0.0796 l -0.2749186,-0.54984 a 0.1174087,0.11747878 29.197515 0 0 -0.13746,-0.062 l -0.3017904,0.0858 a 0.1174087,0.11747878 29.197515 0 0 -0.08475,0.124 l 0.058912,0.61598 a 0.1174087,0.11747878 29.197515 0 0 0.03514,0.0724 l 0.125056,0.122 0.2955892,1.0449 -0.4289144,0.99426 v 3.47678 a 5.3879258,5.3879258 0 0 1 -1.24953613,-3.44268 5.3879258,5.3879258 0 0 1 5.38881853,-5.38882 z m 4.3697592,2.24792 a 5.3879258,5.3879258 0 0 1 1.018025,3.1409 5.3879258,5.3879258 0 0 1 -1.584399,3.81166 v -3.84576 l -0.3203954,-0.74312 0.3234944,-1.21438 c 0.163586,-0.0376 0.301182,-0.1608 0.347266,-0.33488 z m -7.2491716,1.70222 h 0.7885821 l -0.5084959,1.40148 H 3.468458 c -1.036e-4,-0.014 0.00354,-0.0264 0.00103,-0.0414 a 0.1174087,0.11747878 29.197515 0 0 0.00103,-0.014 l -0.3038542,-1.07488 0.028938,-0.0898 c 0.03014,-0.0836 0.06437,-0.1258 0.09095,-0.1458 0.0266,-0.02 0.059436,-0.0362 0.160198,-0.0362 z m 1.6515787,0 H 5.841448 l -0.256315,0.25632 c -0.06416,0.0642 -0.06416,0.1694 0,0.23358 l 0.2780194,0.27698 c -0.05752,0.1088 -0.109008,0.2236 -0.145728,0.34314 H 5.3226086 c -0.09072,0 -0.160198,0.0704 -0.160198,0.1612 v 0.1302 H 4.5898365 Z m 2.5166423,0.99324 c 0.2815628,0 0.5211366,0.1686 0.6325194,0.40824 H 6.9824552 c 0.111384,-0.2397 0.3509572,-0.40824 0.6325198,-0.40824 z m -4.7635336,0.24908 0.044442,0.1592 h -0.096127 z m 0.5457032,4.71288 h 5.8642416 a 5.3879258,5.3879258 0 0 1 -2.9352214,0.87126 5.3879258,5.3879258 0 0 1 -2.9290202,-0.87126 z"
       id="path838" />
  </g>
</svg>
