<svg xmlns="http://www.w3.org/2000/svg" width="48" height="48" viewBox="0 0 12.7 12.7">
  <path fill="#e6e6e6" d="M6.34431561.07286377a6.28928043 6.28928043 0 0 0-6.2895386 6.2895385 6.28928043 6.28928043 0 0 0 6.2895386 6.28902166 6.28928043 6.28928043 0 0 0 6.28902167-6.28902167A6.28928043 6.28928043 0 0 0 6.3443156.07286376zm-.01808691.93637693a5.40704372 5.40704372 0 0 1 5.40690507 5.40690505 5.40704372 5.40704372 0 0 1-5.40690507 5.40690508A5.40704372 5.40704372 0 0 1 .91880694 6.41614575 5.40704372 5.40704372 0 0 1 6.3262287 1.0092407zm.02325449 1.00769043c-.39831168 0-.72191985.32360976-.72191985.72191961v.64802252c-1.04287848.31165006-1.8050576 1.2791543-1.8050576 2.42207439V6.713802c0 .55609992-.1516991 1.10219171-.4376994 1.57923175l-.62011718 1.03352863c-.03359309.05598001-.0336923.1252011-.00155046.18190104.0321445.05669994.09106297.09198398.15606289.09198398h6.86159666c.0649994 0 .1244346-.03516709.15657962-.09146725.03215587-.0563499.03116395-.1268177-.00206719-.18241777l-.61960045-1.03352863c-.28635563-.47702999-.43821614-1.02364856-.43821614-1.57974848v-.90433762c0-1.14292008-.76216218-2.11042433-1.80505759-2.42207439v-.64802252c0-.39830985-.3246419-.7219196-.72295331-.7219196zM5.21260169 9.9611491c.20366673.42539998.63458645.72243631 1.1368815.72243631.50229478 0 .93424823-.29703633 1.13791496-.72243631H5.21260169z"/>
</svg>
