<svg xmlns="http://www.w3.org/2000/svg" width="48" height="48" viewBox="0 0 12.7 12.7">
  <path fill="#e6e6e6" d="M6.3443156.07286A6.2892804 6.2892804 0 0 0 .05477707 6.3624a6.2892804 6.2892804 0 0 0 6.28953853 6.28902A6.2892804 6.2892804 0 0 0 12.633337 6.3624 6.2892804 6.2892804 0 0 0 6.3443156.07286zm-.018087.93638a5.4070437 5.4070437 0 0 1 5.4069054 5.40691 5.4070437 5.4070437 0 0 1-5.4069054 5.4069 5.4070437 5.4070437 0 0 1-5.40742173-5.4069A5.4070437 5.4070437 0 0 1 6.3262286 1.00924zm.072347.96738c-.5685992 0-1.0299113.46068-1.0299113 1.02785 0 .56719.4613121 1.02733 1.0299113 1.02733.5685988 0 1.0304279-.46014 1.0304279-1.02733 0-.56717-.4618291-1.02785-1.0304279-1.02785zm-3.73879 2.17817c-.043986.001-.077612.015-.1281575.0408-.1010844.0485-.1675955.12502-.1689819.23461-.00127.10946.06916.20376.1689819.25477l2.7424683.82165-.01912 1.99213-.9420614 2.98328c-.046712.16689-.028205.29489.049609.40101.098532.13428.3377726.0631.4309816-.0729l1.5616616-3.22047 1.5322063 3.21479c.082847.1409.267411.1901.412378.10955.1449668-.0806.151592-.26013.099735-.40101l-.9368938-2.99671-.037207-1.87534 2.7807083-.96687c.112356-.0767.160805-.22154.112138-.34623-.04865-.12471-.14323-.15825-.279569-.14314-.048803-.008-.127441.005-.1700156.016v-.003l-3.5186482.50075-3.4995279-.5085c-.092253-.025-.1467003-.0367-.1906862-.0356z"/>
</svg>
