<svg xmlns="http://www.w3.org/2000/svg" width="48" height="48" viewBox="0 0 12.7 12.7"><path fill="#e6e6e6" d="M6.344.073a6.29 6.29 0 0 0-6.29 6.29 6.29 6.29 0 0 0 6.29 6.288 6.29 6.29 0 0 0 6.29-6.289 6.29 6.29 0 0 0-6.29-6.29zm-.018.936a5.407 5.407 0 0 1 5.407 5.407 5.407 5.407 0 0 1-5.407 5.407A5.407 5.407 0 0 1 .92 6.416 5.407 5.407 0 0 1 6.326 1.01zm-.141 2.396c-.073.005-.127.043-.154.13-.93 1.554-1.85 3.115-2.787 4.665-.228.325-.434.747-.85.853-.155-.054-.16.206-.093.238h1.691c.031-.17-.015-.27-.214-.23-.387.06-.346-.393-.201-.617.176-.353.384-.69.574-1.036h1.936c.063.425.163.847.194 1.276.08.35-.313.383-.558.39-.073-.014-.097.26.013.217H7.76V9.28c.033.003.065.008.1.008.218 0 .448-.068.69-.206.161-.092.348-.234.56-.424 0 .27.075.455.225.553.08.052.193.077.337.077.103 0 .204-.02.302-.06.155-.063.31-.187.466-.371v-.224a.992.992 0 0 1-.182.12.457.457 0 0 1-.206.043c-.115 0-.188-.037-.216-.112a1.553 1.553 0 0 1-.035-.388V6.612c0-.403-.055-.699-.164-.889-.19-.328-.564-.492-1.122-.492-.449 0-.808.118-1.079.354-.218.19-.327.391-.327.604 0 .087.03.173.094.26.063.08.156.12.277.12.109 0 .2-.038.276-.113a.356.356 0 0 0 .112-.258 3.344 3.344 0 0 1-.035-.155 2.003 2.003 0 0 1-.008-.182c0-.126.063-.227.19-.302a.772.772 0 0 1 .423-.12c.172 0 .316.042.431.129.156.12.233.316.233.587v.526c-.817.322-1.352.57-1.605.742-.228.157-.385.34-.472.55-.123-.716-.239-1.434-.361-2.151l-.4-2.412a.308.308 0 0 0-.08-.005zm-.529 1.29l.387 2.29H4.335l1.321-2.29zm3.446 2.193V8.14a.72.72 0 0 1-.052.31c-.034.063-.115.124-.241.182-.064.034-.147.069-.25.103a.906.906 0 0 1-.286.052.515.515 0 0 1-.405-.19.738.738 0 0 1-.164-.5c0-.207.072-.392.215-.553.22-.247.614-.466 1.183-.656z"/></svg>