<?xml version="1.0" encoding="UTF-8" standalone="no"?>
<!-- Created with Inkscape (http://www.inkscape.org/) -->

<svg
   xmlns:dc="http://purl.org/dc/elements/1.1/"
   xmlns:cc="http://creativecommons.org/ns#"
   xmlns:rdf="http://www.w3.org/1999/02/22-rdf-syntax-ns#"
   xmlns:svg="http://www.w3.org/2000/svg"
   xmlns="http://www.w3.org/2000/svg"
   xmlns:sodipodi="http://sodipodi.sourceforge.net/DTD/sodipodi-0.dtd"
   xmlns:inkscape="http://www.inkscape.org/namespaces/inkscape"
   width="48"
   height="48"
   viewBox="0 0 12.7 12.7"
   version="1.1"
   id="svg829"
   inkscape:version="0.92.3 (2405546, 2018-03-11)"
   sodipodi:docname="preferences-desktop-font.svg">
  <defs
     id="defs823" />
  <sodipodi:namedview
     id="base"
     pagecolor="#ffffff"
     bordercolor="#666666"
     borderopacity="1.0"
     inkscape:pageopacity="0.0"
     inkscape:pageshadow="2"
     inkscape:zoom="5.6041667"
     inkscape:cx="21.591078"
     inkscape:cy="23.286245"
     inkscape:document-units="mm"
     inkscape:current-layer="layer1"
     showgrid="false"
     showguides="true"
     inkscape:guide-bbox="true"
     inkscape:window-width="1366"
     inkscape:window-height="719"
     inkscape:window-x="0"
     inkscape:window-y="25"
     inkscape:window-maximized="1"
     scale-x="1.9"
     units="px"
     inkscape:snap-global="false" />
  <metadata
     id="metadata826">
    <rdf:RDF>
      <cc:Work
         rdf:about="">
        <dc:format>image/svg+xml</dc:format>
        <dc:type
           rdf:resource="http://purl.org/dc/dcmitype/StillImage" />
        <dc:title></dc:title>
      </cc:Work>
    </rdf:RDF>
  </metadata>
  <g
     inkscape:label="Capa 1"
     inkscape:groupmode="layer"
     id="layer1"
     transform="translate(0,-284.3)">
    <path
       style="fill:#e6e6e6;fill-opacity:1;stroke-width:0.52516764"
       d="M 23.978516 0.27539062 A 23.770509 23.770509 0 0 0 0.20703125 24.046875 A 23.770509 23.770509 0 0 0 23.978516 47.816406 A 23.770509 23.770509 0 0 0 47.748047 24.046875 A 23.770509 23.770509 0 0 0 23.978516 0.27539062 z M 23.910156 3.8144531 A 20.436071 20.436071 0 0 1 44.345703 24.25 A 20.436071 20.436071 0 0 1 23.910156 44.685547 A 20.436071 20.436071 0 0 1 3.4726562 24.25 A 20.436071 20.436071 0 0 1 23.910156 3.8144531 z M 23.375 12.869141 C 23.099654 12.888038 22.895444 13.032408 22.794922 13.359375 C 19.279322 19.234386 15.805219 25.134184 12.261719 30.992188 C 11.399348 32.219589 10.621175 33.816885 9.046875 34.216797 C 8.461735 34.013836 8.4467366 34.99303 8.6972656 35.117188 L 15.087891 35.117188 C 15.205207 34.472589 15.030181 34.092657 14.277344 34.244141 C 12.815344 34.476204 12.969591 32.759581 13.519531 31.914062 C 14.185611 30.579474 14.9692 29.305234 15.6875 27.998047 L 23.007812 27.998047 C 23.245961 29.606122 23.622504 31.200055 23.740234 32.822266 C 24.043005 34.147255 22.557806 34.268516 21.628906 34.298828 C 21.355518 34.241001 21.263256 35.274983 21.677734 35.117188 L 29.330078 35.117188 L 29.330078 35.070312 C 29.454505 35.081897 29.5761 35.101562 29.705078 35.101562 C 30.531439 35.101562 31.401107 34.842225 32.314453 34.320312 C 32.923351 33.972371 33.628979 33.438332 34.433594 32.720703 C 34.433594 33.742781 34.715845 34.438906 35.28125 34.808594 C 35.585699 35.004311 36.011029 35.101562 36.554688 35.101562 C 36.946122 35.101562 37.325625 35.025271 37.695312 34.873047 C 38.282464 34.633837 38.86988 34.166586 39.457031 33.470703 L 39.457031 32.623047 C 39.217822 32.818764 38.988948 32.971346 38.771484 33.080078 C 38.554021 33.18881 38.294683 33.242188 37.990234 33.242188 C 37.555308 33.242188 37.28256 33.101062 37.173828 32.818359 C 37.086843 32.513911 37.042969 32.025699 37.042969 31.351562 L 37.042969 24.990234 C 37.042969 23.467991 36.837009 22.348489 36.423828 21.630859 C 35.706199 20.391318 34.292989 19.771484 32.183594 19.771484 C 30.487379 19.771484 29.127547 20.217775 28.105469 21.109375 C 27.279108 21.827004 26.867188 22.587964 26.867188 23.392578 C 26.867188 23.718773 26.9854 24.044899 27.224609 24.371094 C 27.463819 24.675543 27.812858 24.828125 28.269531 24.828125 C 28.682712 24.828125 29.029798 24.685046 29.3125 24.402344 C 29.595202 24.119641 29.736328 23.793516 29.736328 23.423828 C 29.692835 23.249857 29.648961 23.055354 29.605469 22.837891 C 29.583722 22.598681 29.574219 22.369807 29.574219 22.152344 C 29.574219 21.673924 29.812596 21.292468 30.291016 21.009766 C 30.769435 20.705317 31.303474 20.554688 31.890625 20.554688 C 32.543015 20.554688 33.086558 20.716774 33.521484 21.042969 C 34.108636 21.499642 34.402344 22.239641 34.402344 23.261719 L 34.402344 25.251953 C 31.314364 26.469748 29.290823 27.40425 28.333984 28.056641 C 27.472015 28.649245 26.878903 29.341968 26.550781 30.134766 C 26.084571 27.426365 25.648995 24.712641 25.185547 22.003906 C 24.681017 18.965998 24.176375 15.926581 23.671875 12.888672 C 23.565357 12.869774 23.466782 12.861582 23.375 12.869141 z M 21.376953 17.748047 C 21.864983 20.631826 22.351804 23.514545 22.839844 26.398438 L 16.384766 26.398438 C 18.048565 23.51462 19.713253 20.63194 21.376953 17.748047 z M 34.402344 26.033203 L 34.402344 30.763672 C 34.402344 31.285584 34.335556 31.676544 34.205078 31.9375 C 34.0746 32.17671 33.771388 32.405583 33.292969 32.623047 C 33.053759 32.753525 32.737137 32.885147 32.345703 33.015625 C 31.954269 33.146103 31.595726 33.210938 31.269531 33.210938 C 30.660634 33.210938 30.149509 32.970607 29.736328 32.492188 C 29.323148 32.013768 29.117188 31.384431 29.117188 30.601562 C 29.117187 29.818694 29.387982 29.122569 29.931641 28.513672 C 30.758002 27.578579 32.249456 26.750832 34.402344 26.033203 z "
       transform="matrix(0.26458333,0,0,0.26458333,0,284.3)"
       id="path822" />
  </g>
</svg>
