<svg xmlns="http://www.w3.org/2000/svg" width="48" height="48" viewBox="0 0 12.7 12.7"><path fill="#e6e6e6" d="M6.344.073a6.29 6.29 0 0 0-6.29 6.29 6.29 6.29 0 0 0 6.29 6.288 6.29 6.29 0 0 0 6.29-6.289 6.29 6.29 0 0 0-6.29-6.29zm-.018.936a5.407 5.407 0 0 1 5.407 5.407 5.407 5.407 0 0 1-5.407 5.407A5.407 5.407 0 0 1 .92 6.416 5.407 5.407 0 0 1 6.326 1.01zM3.883 2.526a2.206 2.206 0 0 0-.544.056.103.103 0 0 0-.045.022c-.021.022-.037.054-.03.086a.091.091 0 0 0 .046.075l1.014.567c.09.05.135.164.126.31-.005.146-.059.317-.154.492a1.14 1.14 0 0 1-.332.395c-.119.082-.237.108-.327.058l-1.003-.561c-.036-.021-.082-.021-.114.006a.091.091 0 0 0-.034.08h-.002c0 .01 0 .024.007.034.16.458.485.888.854 1.095.292.163.62.198.928.12.21.084.492.233.8.528h-.001l.273.231c.271-.341.498-.557.737-.79l-.215-.23-.003-.003a2.497 2.497 0 0 1-.508-.922c.102-.574-.138-1.162-.642-1.444a1.815 1.815 0 0 0-.831-.204zm5.73.269c-.471-.013-1.11.12-1.214.948L6.736 5.015l-.194.183C5.048 6.494 2.766 9.68 2.766 9.68c-.099.234.189.404.348.252 0 0 2.853-2.595 4.178-3.94l.19-.215L8.88 4.112c.007-.001.016 0 .022-.002.25-.041.467-.246.584-.627.134-.436.452-.647.52-.646a2.734 2.734 0 0 0-.393-.042zM7.225 6.372c-.263.293-.552.586-.878.879l2.622 2.802c.256.255.694.222.986-.07.292-.293.326-.731.07-.987l-2.8-2.624zm2.202 2.71a.374.374 0 0 1 .264.637.374.374 0 1 1-.264-.638z"/></svg>