<svg xmlns="http://www.w3.org/2000/svg" width="48" height="48" viewBox="0 0 12.7 12.7">
  <path fill="#e6e6e6" d="M6.34431561.07286377a6.28928043 6.28928043 0 0 0-6.2895386 6.2895385 6.28928043 6.28928043 0 0 0 6.2895386 6.28902166 6.28928043 6.28928043 0 0 0 6.28902167-6.28902167A6.28928043 6.28928043 0 0 0 6.3443156.07286376zm-.01808691.93637693a5.40704372 5.40704372 0 0 1 5.40690507 5.40690505 5.40704372 5.40704372 0 0 1-5.40690507 5.40690508A5.40704372 5.40704372 0 0 1 .91880694 6.41614575 5.40704372 5.40704372 0 0 1 6.3262287 1.0092407zm.69969908 2.14818934c-.7520768 0-1.40303645.44001716-1.72599295 1.07848716a1.32307947 1.32307947 0 0 0-.72295331-.21497395c-.74661976 0-1.35133872.61727052-1.35133872 1.37976052 0 .12155011.01876848.23827317.04754245.350883a2.08160527 2.08160527 0 0 0-.89193528 1.72030838c0 1.14696.90409156 2.07067465 2.02674958 2.07067465H8.2920003c1.12265802 0 2.02674958-.92371464 2.02674958-2.07067465 0-.05723678-.0022815-.11398514-.00671804-.17001543-.0665472-.84045291-.62270242-1.53546173-1.37614314-1.79265524.02182786-.11906012.0320392-.24189955.0320392-.36741947 0-1.09585996-.86944755-1.98437497-1.94200011-1.98437497z"/>
</svg>
