<?xml version="1.0" encoding="UTF-8" standalone="no"?>
<!-- Created with Inkscape (http://www.inkscape.org/) -->

<svg
   xmlns:dc="http://purl.org/dc/elements/1.1/"
   xmlns:cc="http://creativecommons.org/ns#"
   xmlns:rdf="http://www.w3.org/1999/02/22-rdf-syntax-ns#"
   xmlns:svg="http://www.w3.org/2000/svg"
   xmlns="http://www.w3.org/2000/svg"
   xmlns:sodipodi="http://sodipodi.sourceforge.net/DTD/sodipodi-0.dtd"
   xmlns:inkscape="http://www.inkscape.org/namespaces/inkscape"
   width="48"
   height="48"
   viewBox="0 0 12.7 12.7"
   version="1.1"
   id="svg829"
   inkscape:version="0.92.3 (2405546, 2018-03-11)"
   sodipodi:docname="preferences-desktop-wallpaper.svg">
  <defs
     id="defs823" />
  <sodipodi:namedview
     id="base"
     pagecolor="#ffffff"
     bordercolor="#666666"
     borderopacity="1.0"
     inkscape:pageopacity="0.0"
     inkscape:pageshadow="2"
     inkscape:zoom="5.6041667"
     inkscape:cx="21.591078"
     inkscape:cy="23.286245"
     inkscape:document-units="mm"
     inkscape:current-layer="layer1"
     showgrid="false"
     showguides="true"
     inkscape:guide-bbox="true"
     inkscape:window-width="1366"
     inkscape:window-height="719"
     inkscape:window-x="0"
     inkscape:window-y="25"
     inkscape:window-maximized="1"
     scale-x="1.9"
     units="px" />
  <metadata
     id="metadata826">
    <rdf:RDF>
      <cc:Work
         rdf:about="">
        <dc:format>image/svg+xml</dc:format>
        <dc:type
           rdf:resource="http://purl.org/dc/dcmitype/StillImage" />
        <dc:title></dc:title>
      </cc:Work>
    </rdf:RDF>
  </metadata>
  <g
     inkscape:label="Capa 1"
     inkscape:groupmode="layer"
     id="layer1"
     transform="translate(0,-284.3)">
    <path
       style="fill:#e6e6e6;fill-opacity:1;stroke-width:0.52516764"
       d="M 23.978516 0.27539062 A 23.770509 23.770509 0 0 0 0.20703125 24.046875 A 23.770509 23.770509 0 0 0 23.978516 47.816406 A 23.770509 23.770509 0 0 0 47.748047 24.046875 A 23.770509 23.770509 0 0 0 23.978516 0.27539062 z M 23.910156 3.8144531 A 20.436071 20.436071 0 0 1 44.345703 24.25 A 20.436071 20.436071 0 0 1 23.910156 44.685547 A 20.436071 20.436071 0 0 1 3.4726562 24.25 A 20.436071 20.436071 0 0 1 23.910156 3.8144531 z M 12.882812 11.503906 C 11.481166 11.503906 10.353516 12.633518 10.353516 14.035156 L 10.353516 31.34375 C 10.353516 32.745426 11.481166 33.873047 12.882812 33.873047 L 19.232422 33.873047 L 19.232422 36.900391 L 13.310547 36.900391 L 13.310547 39.238281 L 35.363281 39.238281 L 35.363281 36.900391 L 29.285156 36.900391 L 29.285156 33.873047 L 35.482422 33.873047 C 36.884069 33.873047 38.011719 32.745426 38.011719 31.34375 L 38.011719 14.035156 C 38.011719 12.633518 36.884069 11.503906 35.482422 11.503906 L 12.882812 11.503906 z M 14.802734 14.023438 L 29.087891 14.023438 L 29.087891 20.429688 L 35.658203 20.429688 L 35.658203 29.345703 C 35.658203 30.428387 34.78583 31.300781 33.703125 31.300781 L 14.802734 31.300781 C 13.72003 31.300781 12.847656 30.428387 12.847656 29.345703 L 12.847656 15.976562 C 12.847656 14.89388 13.72003 14.023438 14.802734 14.023438 z M 29.994141 14.023438 L 33.703125 14.023438 C 34.78583 14.023438 35.658203 14.89388 35.658203 15.976562 L 35.658203 19.689453 L 29.994141 14.023438 z "
       transform="matrix(0.26458333,0,0,0.26458333,0,284.3)"
       id="path1374" />
  </g>
</svg>
