<?xml version="1.0" encoding="UTF-8" standalone="no"?>
<!-- Created with Inkscape (http://www.inkscape.org/) -->

<svg
   xmlns:dc="http://purl.org/dc/elements/1.1/"
   xmlns:cc="http://creativecommons.org/ns#"
   xmlns:rdf="http://www.w3.org/1999/02/22-rdf-syntax-ns#"
   xmlns:svg="http://www.w3.org/2000/svg"
   xmlns="http://www.w3.org/2000/svg"
   xmlns:sodipodi="http://sodipodi.sourceforge.net/DTD/sodipodi-0.dtd"
   xmlns:inkscape="http://www.inkscape.org/namespaces/inkscape"
   width="48"
   height="48"
   viewBox="0 0 12.7 12.7"
   version="1.1"
   id="svg829"
   inkscape:version="0.92.3 (2405546, 2018-03-11)"
   sodipodi:docname="preferences-desktop-accessibility.svg">
  <defs
     id="defs823" />
  <sodipodi:namedview
     id="base"
     pagecolor="#ffffff"
     bordercolor="#666666"
     borderopacity="1.0"
     inkscape:pageopacity="0.0"
     inkscape:pageshadow="2"
     inkscape:zoom="11.145833"
     inkscape:cx="22.788785"
     inkscape:cy="23.641121"
     inkscape:document-units="mm"
     inkscape:current-layer="layer1"
     showgrid="false"
     showguides="true"
     inkscape:guide-bbox="true"
     inkscape:window-width="1366"
     inkscape:window-height="719"
     inkscape:window-x="0"
     inkscape:window-y="25"
     inkscape:window-maximized="1"
     scale-x="1.9"
     units="px"
     inkscape:snap-global="false" />
  <metadata
     id="metadata826">
    <rdf:RDF>
      <cc:Work
         rdf:about="">
        <dc:format>image/svg+xml</dc:format>
        <dc:type
           rdf:resource="http://purl.org/dc/dcmitype/StillImage" />
        <dc:title></dc:title>
      </cc:Work>
    </rdf:RDF>
  </metadata>
  <g
     inkscape:label="Capa 1"
     inkscape:groupmode="layer"
     id="layer1"
     transform="translate(0,-284.3)">
    <path
       style="fill:#e6e6e6;fill-opacity:1;stroke-width:0.1389506"
       d="m 6.3443156,284.37286 a 6.2892804,6.2892804 0 0 0 -6.28953853,6.28954 6.2892804,6.2892804 0 0 0 6.28953853,6.28902 6.2892804,6.2892804 0 0 0 6.2890214,-6.28902 6.2892804,6.2892804 0 0 0 -6.2890214,-6.28954 z m -0.018087,0.93638 a 5.4070437,5.4070437 0 0 1 5.4069054,5.40691 5.4070437,5.4070437 0 0 1 -5.4069054,5.4069 5.4070437,5.4070437 0 0 1 -5.40742173,-5.4069 5.4070437,5.4070437 0 0 1 5.40742173,-5.40691 z m 0.072347,0.96738 c -0.5685992,0 -1.0299113,0.46068 -1.0299113,1.02785 0,0.56719 0.4613121,1.02733 1.0299113,1.02733 0.5685988,0 1.0304279,-0.46014 1.0304279,-1.02733 0,-0.56717 -0.4618291,-1.02785 -1.0304279,-1.02785 z m -3.73879,2.17817 c -0.043986,10e-4 -0.077612,0.015 -0.1281575,0.0408 -0.1010844,0.0485 -0.1675955,0.12502 -0.1689819,0.23461 -0.00127,0.10946 0.06916,0.20376 0.1689819,0.25477 l 2.7424683,0.82165 -0.01912,1.99213 -0.9420614,2.98328 c -0.046712,0.16689 -0.028205,0.29489 0.049609,0.40101 0.098532,0.13428 0.3377726,0.0631 0.4309816,-0.0729 l 1.5616616,-3.22047 1.5322063,3.21479 c 0.082847,0.1409 0.267411,0.1901 0.412378,0.10955 0.1449668,-0.0806 0.151592,-0.26013 0.099735,-0.40101 l -0.9368938,-2.99671 -0.037207,-1.87534 2.7807083,-0.96687 c 0.112356,-0.0767 0.160805,-0.22154 0.112138,-0.34623 -0.04865,-0.12471 -0.14323,-0.15825 -0.279569,-0.14314 -0.048803,-0.008 -0.127441,0.005 -0.1700156,0.016 v -0.003 l -3.5186482,0.50075 -3.4995279,-0.5085 c -0.092253,-0.025 -0.1467003,-0.0367 -0.1906862,-0.0356 z"
       id="path1374"
       inkscape:connector-curvature="0" />
  </g>
</svg>
