<svg xmlns="http://www.w3.org/2000/svg" width="48" height="48" viewBox="0 0 12.7 12.7">
  <path fill="#e6e6e6" d="M6.3443156.07286A6.2892804 6.2892804 0 0 0 .05477702 6.3624a6.2892804 6.2892804 0 0 0 6.28953858 6.28902A6.2892804 6.2892804 0 0 0 12.633337 6.3624 6.2892804 6.2892804 0 0 0 6.3443156.07286zm-.018087.93638a5.4070437 5.4070437 0 0 1 5.4069054 5.40691 5.4070437 5.4070437 0 0 1-5.4069054 5.4069 5.4070437 5.4070437 0 0 1-5.40742176-5.4069A5.4070437 5.4070437 0 0 1 6.3262286 1.00924z"/>
  <path fill="teal" d="M5.5319101 1.85184c-.6795345 0-1.226939.54702-1.226939 1.22695v.81767h2.0446542v.40922H3.4872559c-.9061665 0-1.6354303.72965-1.6354303 1.63546v.81772c0 .90617.7296249 1.6354 1.6354303 1.6354v-.81767c4e-7-.75272.5062086-1.37789 1.1961924-1.56955.06017-.0167.121416-.029.1837478-.0404.083592-.0132.1679363-.0256.2554904-.0256h2.9538769c.1952852-.21692.3169837-.50137.3169837-.81773v-2.0446c0-.67958-.5470434-1.22695-1.2269388-1.22695zm-.065884.57686a.41801109.43473155 0 0 1 .4180087.43486.41801109.43473155 0 0 1-.4180087.43409.41801109.43473155 0 0 1-.4180081-.43409.41801109.43473155 0 0 1 .4180081-.43486z" opacity=".75"/>
  <path fill="#d4aa00" d="M7.1680898 10.84816c.6795347 0 1.2269389-.54703 1.2269389-1.22695v-.8177H6.3503746v-.40925H9.212744c.906167 0 1.63543-.72959 1.63543-1.6354v-.81772c0-.90617-.729624-1.63546-1.63543-1.63546v.81773c-3e-7.75266-.5062086 1.37788-1.1961925 1.56954-.06017.0167-.1214159.029-.1837476.0404-.083592.0132-.1679363.0256-.2554905.0256H4.6234365c-.1952851.21691-.3169836.50137-.3169836.81773V9.6213c0 .67953.5470433 1.22695 1.2269385 1.22695zm.065884-.57686a.41801109.43473155 0 0 1-.4180086-.43486.41801109.43473155 0 0 1 .4180086-.43409.41801109.43473155 0 0 1 .4180082.43409.41801109.43473155 0 0 1-.4180082.43486z" opacity=".75"/>
</svg>
