<?xml version="1.0" encoding="UTF-8" standalone="no"?>
<!-- Created with Inkscape (http://www.inkscape.org/) -->

<svg
   xmlns:dc="http://purl.org/dc/elements/1.1/"
   xmlns:cc="http://creativecommons.org/ns#"
   xmlns:rdf="http://www.w3.org/1999/02/22-rdf-syntax-ns#"
   xmlns:svg="http://www.w3.org/2000/svg"
   xmlns="http://www.w3.org/2000/svg"
   xmlns:sodipodi="http://sodipodi.sourceforge.net/DTD/sodipodi-0.dtd"
   xmlns:inkscape="http://www.inkscape.org/namespaces/inkscape"
   width="48"
   height="48"
   viewBox="0 0 12.7 12.7"
   version="1.1"
   id="svg829"
   inkscape:version="0.92.3 (2405546, 2018-03-11)"
   sodipodi:docname="python.svg">
  <defs
     id="defs823" />
  <sodipodi:namedview
     id="base"
     pagecolor="#ffffff"
     bordercolor="#666666"
     borderopacity="1.0"
     inkscape:pageopacity="0.0"
     inkscape:pageshadow="2"
     inkscape:zoom="3.9627443"
     inkscape:cx="20.59327"
     inkscape:cy="22.990599"
     inkscape:document-units="mm"
     inkscape:current-layer="layer1"
     showgrid="false"
     showguides="true"
     inkscape:guide-bbox="true"
     inkscape:window-width="1366"
     inkscape:window-height="719"
     inkscape:window-x="0"
     inkscape:window-y="25"
     inkscape:window-maximized="1"
     scale-x="1.9"
     units="px"
     inkscape:snap-global="true" />
  <metadata
     id="metadata826">
    <rdf:RDF>
      <cc:Work
         rdf:about="">
        <dc:format>image/svg+xml</dc:format>
        <dc:type
           rdf:resource="http://purl.org/dc/dcmitype/StillImage" />
        <dc:title></dc:title>
      </cc:Work>
    </rdf:RDF>
  </metadata>
  <g
     inkscape:label="Capa 1"
     inkscape:groupmode="layer"
     id="layer1"
     transform="translate(0,-284.3)">
    <path
       inkscape:connector-curvature="0"
       style="fill:#e6e6e6;fill-opacity:1;stroke-width:0.1389506"
       d="m 6.3443156,284.37286 a 6.2892804,6.2892804 0 0 0 -6.28953858,6.28954 6.2892804,6.2892804 0 0 0 6.28953858,6.28902 6.2892804,6.2892804 0 0 0 6.2890214,-6.28902 6.2892804,6.2892804 0 0 0 -6.2890214,-6.28954 z m -0.018087,0.93638 a 5.4070437,5.4070437 0 0 1 5.4069054,5.40691 5.4070437,5.4070437 0 0 1 -5.4069054,5.4069 5.4070437,5.4070437 0 0 1 -5.40742176,-5.4069 5.4070437,5.4070437 0 0 1 5.40742176,-5.40691 z"
       id="path822" />
    <g
       id="g824">
      <path
         id="path829"
         d="m 5.5319101,286.15184 c -0.6795345,0 -1.226939,0.54702 -1.226939,1.22695 v 0.81767 h 2.0446542 v 0.40922 H 4.3049711 3.4872559 c -0.9061665,0 -1.6354303,0.72965 -1.6354303,1.63546 v 0.81772 c 0,0.90617 0.7296249,1.6354 1.6354303,1.6354 v -0.81767 c 4e-7,-0.75272 0.5062086,-1.37789 1.1961924,-1.56955 0.06017,-0.0167 0.121416,-0.029 0.1837478,-0.0404 0.083592,-0.0132 0.1679363,-0.0256 0.2554904,-0.0256 h 1.6354304 1.3184465 c 0.1952852,-0.21692 0.3169837,-0.50137 0.3169837,-0.81773 v -2.0446 c 0,-0.67958 -0.5470434,-1.22695 -1.2269388,-1.22695 z m -0.065884,0.57686 a 0.41801109,0.43473155 0 0 1 0.4180087,0.43486 0.41801109,0.43473155 0 0 1 -0.4180087,0.43409 0.41801109,0.43473155 0 0 1 -0.4180081,-0.43409 0.41801109,0.43473155 0 0 1 0.4180081,-0.43486 z"
         style="opacity:0.75;fill:#008080;stroke-width:0.03463399"
         inkscape:connector-curvature="0" />
      <path
         id="path829-3"
         d="m 7.1680898,295.14816 c 0.6795347,0 1.2269389,-0.54703 1.2269389,-1.22695 v -0.8177 H 6.3503746 v -0.40925 H 8.3950287 9.212744 c 0.906167,0 1.63543,-0.72959 1.63543,-1.6354 v -0.81772 c 0,-0.90617 -0.729624,-1.63546 -1.63543,-1.63546 v 0.81773 c -3e-7,0.75266 -0.5062086,1.37788 -1.1961925,1.56954 -0.06017,0.0167 -0.1214159,0.029 -0.1837476,0.0404 -0.083592,0.0132 -0.1679363,0.0256 -0.2554905,0.0256 H 5.9418831 4.6234365 c -0.1952851,0.21691 -0.3169836,0.50137 -0.3169836,0.81773 v 2.04462 c 0,0.67953 0.5470433,1.22695 1.2269385,1.22695 z m 0.065884,-0.57686 a 0.41801109,0.43473155 0 0 1 -0.4180086,-0.43486 0.41801109,0.43473155 0 0 1 0.4180086,-0.43409 0.41801109,0.43473155 0 0 1 0.4180082,0.43409 0.41801109,0.43473155 0 0 1 -0.4180082,0.43486 z"
         style="opacity:0.75;fill:#d4aa00;stroke-width:0.03463399"
         inkscape:connector-curvature="0" />
    </g>
  </g>
</svg>
