<svg xmlns="http://www.w3.org/2000/svg" width="48" height="48" viewBox="0 0 12.7 12.7">
  <path fill="#e6e6e6" d="M6.34379862.07699788a6.26704246 6.26704246 0 0 0-6.2673175 6.26731773 6.26704246 6.26704246 0 0 0 6.2673175 6.2662839 6.26704246 6.26704246 0 0 0 6.26731763-6.2662839A6.26704246 6.26704246 0 0 0 6.34379862.07699788zm-.01756992.93224282a5.38792572 5.38792572 0 0 1 5.38778496 5.3888184 5.38792572 5.38792572 0 0 1-5.38778496 5.3877847A5.38792572 5.38792572 0 0 1 .93741048 6.3980591 5.38792572 5.38792572 0 0 1 6.3262287 1.0092407zm3.02358818 1.80505783l-.23254414.46870514.32091073.32091074.4681884-.23254388-.05684413-.49971112-.49971086-.05736088zm-.42064622.48730879l-.11420502.11420475.49040944.49040943.11420475-.11420501-.49040917-.49040917zm-.19171947.19171946l-.67851177.67851151.49040943.49040944.67851151-.67851152-.49040917-.49040943zm-.73793957.73742258l-.91467278.91467304-.45371913-.4532024-2.1833292 2.1833292-.40876061.87591555-.58962819.58962818.21497396.21549069-.97358384.97978514.45216868.45268541.97410083-.97978514.21239004.2123903.58291015-.58239342.00723476.00671777.88521724-.41289446 2.18384594-2.1838462L7.575248 5.6363483l.91518977-.91467277-.49092616-.49092617z"/>
</svg>
