<?xml version="1.0" encoding="UTF-8" standalone="no"?>
<!-- Created with Inkscape (http://www.inkscape.org/) -->

<svg
   xmlns:dc="http://purl.org/dc/elements/1.1/"
   xmlns:cc="http://creativecommons.org/ns#"
   xmlns:rdf="http://www.w3.org/1999/02/22-rdf-syntax-ns#"
   xmlns:svg="http://www.w3.org/2000/svg"
   xmlns="http://www.w3.org/2000/svg"
   xmlns:sodipodi="http://sodipodi.sourceforge.net/DTD/sodipodi-0.dtd"
   xmlns:inkscape="http://www.inkscape.org/namespaces/inkscape"
   width="48"
   height="48"
   viewBox="0 0 12.7 12.7"
   version="1.1"
   id="svg829"
   inkscape:version="0.92.3 (2405546, 2018-03-11)"
   sodipodi:docname="qjackctl.svg">
  <defs
     id="defs823" />
  <sodipodi:namedview
     id="base"
     pagecolor="#ffffff"
     bordercolor="#666666"
     borderopacity="1.0"
     inkscape:pageopacity="0.0"
     inkscape:pageshadow="2"
     inkscape:zoom="5.125"
     inkscape:cx="-13.512195"
     inkscape:cy="22.829268"
     inkscape:document-units="mm"
     inkscape:current-layer="layer1"
     showgrid="false"
     showguides="true"
     inkscape:guide-bbox="true"
     inkscape:window-width="1366"
     inkscape:window-height="719"
     inkscape:window-x="0"
     inkscape:window-y="25"
     inkscape:window-maximized="1"
     scale-x="1.9"
     units="px"
     inkscape:snap-global="true" />
  <metadata
     id="metadata826">
    <rdf:RDF>
      <cc:Work
         rdf:about="">
        <dc:format>image/svg+xml</dc:format>
        <dc:type
           rdf:resource="http://purl.org/dc/dcmitype/StillImage" />
        <dc:title></dc:title>
      </cc:Work>
    </rdf:RDF>
  </metadata>
  <g
     inkscape:label="Capa 1"
     inkscape:groupmode="layer"
     id="layer1"
     transform="translate(0,-284.3)">
    <path
       style="fill:#e6e6e6;fill-opacity:1;stroke-width:0.52331072"
       d="M 23.976562 0.29101562 A 23.68646 23.68646 0 0 0 0.2890625 23.978516 A 23.68646 23.68646 0 0 0 23.976562 47.662109 A 23.68646 23.68646 0 0 0 47.664062 23.978516 A 23.68646 23.68646 0 0 0 23.976562 0.29101562 z M 23.910156 3.8144531 A 20.363814 20.363814 0 0 1 44.273438 24.181641 A 20.363814 20.363814 0 0 1 23.910156 44.544922 A 20.363814 20.363814 0 0 1 3.5429688 24.181641 A 20.363814 20.363814 0 0 1 23.910156 3.8144531 z M 35.337891 10.636719 L 34.458984 12.408203 L 35.671875 13.621094 L 37.441406 12.742188 L 37.226562 10.853516 L 35.337891 10.636719 z M 33.748047 12.478516 L 33.316406 12.910156 L 35.169922 14.763672 L 35.601562 14.332031 L 33.748047 12.478516 z M 33.023438 13.203125 L 30.458984 15.767578 L 32.3125 17.621094 L 34.876953 15.056641 L 33.023438 13.203125 z M 30.234375 15.990234 L 26.777344 19.447266 L 25.0625 17.734375 L 16.810547 25.986328 L 15.265625 29.296875 L 13.037109 31.525391 L 13.849609 32.339844 L 10.169922 36.042969 L 11.878906 37.753906 L 15.560547 34.050781 L 16.363281 34.853516 L 18.566406 32.652344 L 18.59375 32.677734 L 21.939453 31.117188 L 30.193359 22.863281 L 28.630859 21.302734 L 32.089844 17.845703 L 30.234375 15.990234 z "
       transform="matrix(0.26458333,0,0,0.26458333,0,284.3)"
       id="path822" />
  </g>
</svg>
