<?xml version="1.0" encoding="UTF-8" standalone="no"?>
<!-- Created with Inkscape (http://www.inkscape.org/) -->

<svg
   xmlns:dc="http://purl.org/dc/elements/1.1/"
   xmlns:cc="http://creativecommons.org/ns#"
   xmlns:rdf="http://www.w3.org/1999/02/22-rdf-syntax-ns#"
   xmlns:svg="http://www.w3.org/2000/svg"
   xmlns="http://www.w3.org/2000/svg"
   xmlns:sodipodi="http://sodipodi.sourceforge.net/DTD/sodipodi-0.dtd"
   xmlns:inkscape="http://www.inkscape.org/namespaces/inkscape"
   width="48"
   height="48"
   viewBox="0 0 12.7 12.7"
   version="1.1"
   id="svg829"
   inkscape:version="0.92.3 (2405546, 2018-03-11)"
   sodipodi:docname="reboot-notifier.svg">
  <defs
     id="defs823" />
  <sodipodi:namedview
     id="base"
     pagecolor="#ffffff"
     bordercolor="#666666"
     borderopacity="1.0"
     inkscape:pageopacity="0.0"
     inkscape:pageshadow="2"
     inkscape:zoom="11.208333"
     inkscape:cx="22.795539"
     inkscape:cy="23.643123"
     inkscape:document-units="mm"
     inkscape:current-layer="layer1"
     showgrid="false"
     showguides="true"
     inkscape:guide-bbox="true"
     inkscape:window-width="1366"
     inkscape:window-height="719"
     inkscape:window-x="0"
     inkscape:window-y="25"
     inkscape:window-maximized="1"
     scale-x="1.9"
     units="px"
     inkscape:snap-global="false" />
  <metadata
     id="metadata826">
    <rdf:RDF>
      <cc:Work
         rdf:about="">
        <dc:format>image/svg+xml</dc:format>
        <dc:type
           rdf:resource="http://purl.org/dc/dcmitype/StillImage" />
        <dc:title></dc:title>
      </cc:Work>
    </rdf:RDF>
  </metadata>
  <g
     inkscape:label="Capa 1"
     inkscape:groupmode="layer"
     id="layer1"
     transform="translate(0,-284.3)">
    <path
       inkscape:connector-curvature="0"
       style="fill:#e6e6e6;stroke-width:0.04005471"
       d="m 6.3705309,284.80928 c 1.6071894,0 3.0578996,0.65403 4.1087541,1.70852 l 1.709371,-1.70852 v 5.09002 H 7.0977963 l 2.3451987,-2.34521 c -0.7890497,-0.78903 -1.8688899,-1.29027 -3.0724641,-1.29027 -2.4107839,0 -4.3635941,1.95196 -4.3635941,4.36275 0,2.41078 1.9528102,4.36359 4.3635941,4.36359 1.9017196,0 3.5087852,-1.21461 4.1087541,-2.90907 h 1.51295 c -0.643604,2.50896 -2.9127533,4.36359 -5.6217041,4.36359 -3.2143788,0 -5.81050538,-2.60373 -5.81050538,-5.81811 0,-3.21438 2.59612658,-5.81729 5.81050538,-5.81729 z"
       id="path2" />
  </g>
</svg>
