<?xml version="1.0" encoding="UTF-8" standalone="no"?>
<!-- Created with Inkscape (http://www.inkscape.org/) -->

<svg
   xmlns:dc="http://purl.org/dc/elements/1.1/"
   xmlns:cc="http://creativecommons.org/ns#"
   xmlns:rdf="http://www.w3.org/1999/02/22-rdf-syntax-ns#"
   xmlns:svg="http://www.w3.org/2000/svg"
   xmlns="http://www.w3.org/2000/svg"
   xmlns:sodipodi="http://sodipodi.sourceforge.net/DTD/sodipodi-0.dtd"
   xmlns:inkscape="http://www.inkscape.org/namespaces/inkscape"
   width="48"
   height="48"
   viewBox="0 0 12.7 12.7"
   version="1.1"
   id="svg829"
   inkscape:version="0.92.3 (2405546, 2018-03-11)"
   sodipodi:docname="redshift-status-off.svg">
  <defs
     id="defs823" />
  <sodipodi:namedview
     id="base"
     pagecolor="#ffffff"
     bordercolor="#666666"
     borderopacity="1.0"
     inkscape:pageopacity="0.0"
     inkscape:pageshadow="2"
     inkscape:zoom="5.5416667"
     inkscape:cx="24"
     inkscape:cy="38.43609"
     inkscape:document-units="mm"
     inkscape:current-layer="layer1"
     showgrid="false"
     showguides="true"
     inkscape:guide-bbox="true"
     inkscape:window-width="1366"
     inkscape:window-height="719"
     inkscape:window-x="0"
     inkscape:window-y="25"
     inkscape:window-maximized="1"
     scale-x="1.9"
     units="px"
     inkscape:snap-global="true" />
  <metadata
     id="metadata826">
    <rdf:RDF>
      <cc:Work
         rdf:about="">
        <dc:format>image/svg+xml</dc:format>
        <dc:type
           rdf:resource="http://purl.org/dc/dcmitype/StillImage" />
        <dc:title></dc:title>
      </cc:Work>
    </rdf:RDF>
  </metadata>
  <g
     inkscape:label="Capa 1"
     inkscape:groupmode="layer"
     id="layer1"
     transform="translate(0,-284.3)">
    <g
       id="g835">
      <path
         inkscape:connector-curvature="0"
         id="path841"
         d="m 6.3443159,284.37286 a 6.2892804,6.2892804 0 0 0 -6.28953853,6.28954 6.2892804,6.2892804 0 0 0 6.28953853,6.28902 6.2892804,6.2892804 0 0 0 6.2890211,-6.28902 6.2892804,6.2892804 0 0 0 -6.2890211,-6.28954 z m -0.018087,0.93638 a 5.4070437,5.4070437 0 0 1 5.4069051,5.40691 5.4070437,5.4070437 0 0 1 -5.4069051,5.4069 5.4070437,5.4070437 0 0 1 -5.40742183,-5.4069 5.4070437,5.4070437 0 0 1 5.40742183,-5.40691 z"
         style="fill:#e6e6e6;fill-opacity:1;stroke-width:0.1389506" />
      <path
         id="path2895"
         d="m 5.0461632,292.50245 c -0.019727,5e-4 -0.029812,0.0118 -0.028779,0.0376 -0.1106889,0.0449 -0.076697,0.13632 -0.058046,0.3707 0.010298,0.12244 0.1394275,0.1975 0.3160816,0.25267 -0.2002637,0.14112 -0.3276488,0.29026 -0.3160816,0.42779 0.01018,0.121 0.1362106,0.20413 0.3092526,0.2595 -0.1952173,0.13948 -0.3206614,0.29215 -0.3092526,0.42777 0.012402,0.14747 0.245859,0.30561 0.7238658,0.37609 v 0.2356 c 0,0.30757 0.3138465,0.58094 0.6667956,0.58094 0.3529497,0 0.6667958,-0.27337 0.6667958,-0.58094 v -0.25364 c 0.3981307,-0.062 0.6902747,-0.1766 0.7228904,-0.35805 0.018976,-0.10556 -0.067012,-0.20409 -0.1999898,-0.29169 0.099547,-0.10083 0.1694539,-0.20291 0.1614551,-0.29802 -0.010224,-0.12154 -0.1352595,-0.20421 -0.3097403,-0.25951 0.195217,-0.13948 0.3211491,-0.29215 0.3097403,-0.42778 -0.00924,-0.1098 0.04207,-0.24026 -0.076094,-0.30535 -0.018746,0.0108 -0.035053,0.0108 -0.04195,-0.019 0,0 -5.027e-4,0 -5.027e-4,0 -9.789e-4,-0.004 -0.00296,-0.005 -0.00342,-0.0108 -0.012766,-0.15173 -0.4385927,0.31283 -1.145308,0.26339 -0.6356903,0.10213 -1.2496368,-0.43074 -1.3877352,-0.42728 z m 2.5369453,0.17463 c 0.016695,0.005 0.0294,0.012 0.04195,0.019 0.045944,-0.0256 0.092217,-0.11412 -0.04195,-0.019 z"
         style="fill:#e6e6e6;fill-opacity:1;stroke:none;stroke-width:0.22239047"
         inkscape:connector-curvature="0" />
      <path
         d="m 6.3500004,286.12967 c -1.6602872,0 -3.0084962,1.31532 -3.0084962,2.93511 0,1.66039 1.2186939,1.8443 1.2186939,2.45621 0,0.71901 0.7145198,1.53431 1.8894114,1.50487 1.2493201,-0.0312 1.7649002,-0.7404 1.7649002,-1.50487 0,-0.65357 1.1439861,-0.67099 1.1439861,-2.45621 0,-1.61979 -1.348209,-2.93511 -3.0084954,-2.93511 z"
         style="opacity:0.75;fill:#008080;fill-opacity:1;stroke:#e6e6e6;stroke-width:0.21961062;stroke-opacity:1"
         id="path2919-7"
         inkscape:connector-curvature="0" />
      <path
         id="path2923"
         d="m 7.5318915,290.76255 c -0.034201,0.004 -0.063824,0.0256 -0.084386,0.0551 -0.4064947,0.39081 -0.9466043,0.3909 -1.4057826,0.28828 -0.4597568,-0.10267 -0.8145935,-0.30926 -0.8145935,-0.30926 -0.024902,-0.0165 -0.055202,-0.0231 -0.084874,-0.0191 -0.030641,0.005 -0.054298,0.0235 -0.072679,0.0464 -0.033224,0.0305 -0.050699,0.0743 -0.035608,0.11902 l 0.8043498,2.38573 c 0.021735,0.0645 0.086983,0.10729 0.1521875,0.0859 0.065203,-0.0213 0.1085593,-0.0858 0.086824,-0.15023 l -0.7204509,-2.13648 c 0.158897,0.0698 0.380686,0.15344 0.6326509,0.20974 0.4003982,0.0894 0.8888744,0.10769 1.3165191,-0.1239 l -0.6824046,2.02478 c -0.021736,0.0645 0.021619,0.12891 0.086825,0.15024 0.065204,0.0214 0.1304521,-0.0213 0.1521873,-0.0859 l 0.80435,-2.38525 c 0.021735,-0.0645 -0.021619,-0.1293 -0.086825,-0.15072 -0.016301,-0.005 -0.032668,-0.006 -0.04829,-0.004 z"
         style="opacity:0.75;fill:#e6e6e6;stroke:none;stroke-width:0.22239047"
         inkscape:connector-curvature="0" />
      <path
         d="m 6.3500004,286.12967 c -1.6602872,0 -3.0084962,1.31532 -3.0084962,2.93511 0,1.66039 1.2186939,1.8443 1.2186939,2.45621 0,0.71901 0.7145198,1.53431 1.8894114,1.50487 1.2493204,-0.0312 1.7649002,-0.7404 1.7649002,-1.50487 0,-0.65357 1.1439861,-0.67099 1.1439861,-2.45621 0,-1.61979 -1.348209,-2.93511 -3.0084954,-2.93511 z"
         style="opacity:1;fill:none;fill-opacity:1;stroke:#e6e6e6;stroke-width:0.21961062;stroke-opacity:1"
         id="path2919-7-3"
         inkscape:connector-curvature="0" />
    </g>
  </g>
</svg>
