<svg xmlns="http://www.w3.org/2000/svg" width="48" height="48" viewBox="0 0 12.7 12.7">
  <path fill="#e6e6e6" d="M6.3443159.07286A6.2892804 6.2892804 0 0 0 .05477737 6.3624a6.2892804 6.2892804 0 0 0 6.28953853 6.28902A6.2892804 6.2892804 0 0 0 12.633337 6.3624 6.2892804 6.2892804 0 0 0 6.3443159.07286zm-.018087.93638a5.4070437 5.4070437 0 0 1 5.4069051 5.40691 5.4070437 5.4070437 0 0 1-5.4069051 5.4069 5.4070437 5.4070437 0 0 1-5.40742183-5.4069A5.4070437 5.4070437 0 0 1 6.3262289 1.00924z"/>
  <path fill="#e6e6e6" d="M5.0461632 8.20245c-.019727.0005-.029812.0118-.028779.0376-.1106889.0449-.076697.13632-.058046.3707.010298.12244.1394275.1975.3160816.25267-.2002637.14112-.3276488.29026-.3160816.42779.01018.121.1362106.20413.3092526.2595-.1952173.13948-.3206614.29215-.3092526.42777.012402.14747.245859.30561.7238658.37609v.2356c0 .30757.3138465.58094.6667956.58094.3529497 0 .6667958-.27337.6667958-.58094v-.25364c.3981307-.062.6902747-.1766.7228904-.35805.018976-.10556-.067012-.20409-.1999898-.29169.099547-.10083.1694539-.20291.1614551-.29802-.010224-.12154-.1352595-.20421-.3097403-.25951.195217-.13948.3211491-.29215.3097403-.42778-.00924-.1098.04207-.24026-.076094-.30535-.018746.0108-.035053.0108-.04195-.019h-.0005027c-.0009789-.004-.00296-.005-.00342-.0108-.012766-.15173-.4385927.31283-1.145308.26339-.6356903.10213-1.2496368-.43074-1.3877352-.42728zm2.5369453.17463c.016695.005.0294.012.04195.019.045944-.0256.092217-.11412-.04195-.019z"/>
  <path fill="#ff2a2a" stroke="#e6e6e6" stroke-width=".21961062" d="M6.3500004 1.82967c-1.6602872 0-3.0084962 1.31532-3.0084962 2.93511 0 1.66039 1.2186939 1.8443 1.2186939 2.45621 0 .71901.7145198 1.53431 1.8894114 1.50487 1.2493201-.0312 1.7649002-.7404 1.7649002-1.50487 0-.65357 1.1439861-.67099 1.1439861-2.45621 0-1.61979-1.348209-2.93511-3.0084954-2.93511z" opacity=".75"/>
  <path fill="#e6e6e6" d="M7.5318915 6.46255c-.034201.004-.063824.0256-.084386.0551-.4064947.39081-.9466043.3909-1.4057826.28828-.4597568-.10267-.8145935-.30926-.8145935-.30926-.024902-.0165-.055202-.0231-.084874-.0191-.030641.005-.054298.0235-.072679.0464-.033224.0305-.050699.0743-.035608.11902l.8043498 2.38573c.021735.0645.086983.10729.1521875.0859.065203-.0213.1085593-.0858.086824-.15023l-.7204509-2.13648c.158897.0698.380686.15344.6326509.20974.4003982.0894.8888744.10769 1.3165191-.1239l-.6824046 2.02478c-.021736.0645.021619.12891.086825.15024.065204.0214.1304521-.0213.1521873-.0859l.80435-2.38525c.021735-.0645-.021619-.1293-.086825-.15072-.016301-.005-.032668-.006-.04829-.004z" opacity=".75"/>
  <path fill="none" stroke="#e6e6e6" stroke-width=".21961062" d="M6.3500004 1.82967c-1.6602872 0-3.0084962 1.31532-3.0084962 2.93511 0 1.66039 1.2186939 1.8443 1.2186939 2.45621 0 .71901.7145198 1.53431 1.8894114 1.50487 1.2493204-.0312 1.7649002-.7404 1.7649002-1.50487 0-.65357 1.1439861-.67099 1.1439861-2.45621 0-1.61979-1.348209-2.93511-3.0084954-2.93511z"/>
</svg>
