<svg xmlns="http://www.w3.org/2000/svg" width="48" height="48" viewBox="0 0 12.7 12.7">
  <path fill="#e6e6e6" d="M6.34431561.07286377a6.28928043 6.28928043 0 0 0-6.2895386 6.2895385 6.28928043 6.28928043 0 0 0 6.2895386 6.28902166 6.28928043 6.28928043 0 0 0 6.28902167-6.28902167A6.28928043 6.28928043 0 0 0 6.3443156.07286376zm-.01808691.93637693a5.40704372 5.40704372 0 0 1 5.40690507 5.40690505 5.40704372 5.40704372 0 0 1-5.40690507 5.40690508A5.40704372 5.40704372 0 0 1 .91880694 6.41614575 5.40704372 5.40704372 0 0 1 6.3262287 1.0092407zm.03255618.63923748c-1.2671663 0-2.29443356 1.02730357-2.29443356 2.29443362 0 1.26718984 1.02726726 2.29443357 2.29443356 2.29443357 1.26705094 0 2.29443357-1.02723367 2.29443357-2.29443357 0-1.26713005-1.02738263-2.29443362-2.29443357-2.29443362zm0 .12402344c1.19504432 0 2.16420909.97479806 2.16420909 2.17712795 0 1.20238016-.96916477 2.17712817-2.16420909 2.17712817-1.19515306 0-2.1636921-.97476812-2.1636921-2.17712817 0-1.20232989.96853904-2.17712795 2.1636921-2.17712795zm.02635488.3953247l-.24132884.0273885-.24649667.06769613c.01802923-.00600001.03517556-.01405382.05374375-.02015382l-.03203945-.05477703-.1038696.01498619-.04909264.04909261-.08061537.0113688-.07183014.03410646-.0351401.01653646-.00826823.0113688-.0501261.0129191-.0320392.06356202-.04030768-.08216553-.01601973.03669027.00826823.09095052-.06459564.05426025-.04030768.10025229h.08061537l.04030768-.09095052c.03465195-.02450002.06909302-.04926378.10438632-.07286376l.08009837.0273885c.0535432.0364.10711789.07269726.16071374.10903728l.08061537-.0728638-.08836687-.03617348-.04030742-.08164878-.1524455-.01860351-.00258392-.01498616.06356217.01085205.04030742-.03669028.08009864-.01808673c.01820095-.00900001.03745653-.01388734.0558104-.02118733L5.790861 2.3316406l.18500169.12712403v.07286376l-.07234714.07286376.0961181.190686.06459564-.03617356.08009837-.1276407c.11547051-.03569998.2202053-.07629373.32917896-.12557373l-.00723476.0480591.0563274.03669025.0961181-.06356202-.04805918-.054777-.06407864.03669027-.02428795-.00671795c.00504004-.00199999.00993007-.00420116.01498626-.00620115l.09663483-.24546306-.20877292-.08268229zm-1.13533104.1462443l-.03772376.08940022s-.06285891.01170292-.0790649.01550292c-.20697931.18106-.62527735.57207755-.72243659 1.30999755.00384996.01710002.07027995.11627194.07027995.11627194l.15864655.08888359.15812981.04030742.0676963.0811321.10541978.07286386.06046152-.00826823.04495853.01912012v.01291907l-.05994479.15399597-.04547526.0651121.01498626.03203946-.03720703.12143951.13539232.2351278.13590905.11317155.05994453.08113183-.00671777.1700157.04495826.09715155-.04495826.18655189s-.00420979-.00103002.0015502.01756992c.00583008.01870022.24133174.14286177.2563151.13229166.0149299-.01080002.02790533-.02067057.02790533-.02067057l-.01498626-.04030742.05994479-.0563274.0227375-.05684415.09818528-.03255618.07544753-.17828366-.0227375-.04857565.05270976-.07286386.11317155-.02428796.06046126-.12970774-.015503-.1617472.0904338-.12143978.01550299-.12143952c-.12374377-.05780008-.24666337-.11778694-.36948639-.17776692l-.06046152-.11368828-.11317129-.02428796-.05994479-.15347897-.15089505.01601973-.12815755-.08888333-.13539232.11317128v.01808666c-.041062-.01119982-.0915961-.01280637-.12815755-.03410638l-.030489-.08113183V3.8772827l-.09043378.0077515c.00754989-.05669995.01513866-.11330543.0227375-.17001543h-.05271003l-.05270976.06459537-.05271003.02428796-.07544752-.03979095-.00723477-.08940006.01498627-.09663483.11317128-.0811321h.0904338l.01498626-.04857591.11317128.02428796.08319902.09715182.01498627-.1622642.14314355-.11317128.05271002-.12143951.10542006-.04082442.06046126-.08061536.13539231-.02428796.06821276-.09715156h-.2041218l.12815755-.05684414h.09043378l.12815756-.04082441.01498626-.04805892-.04547552-.04082441-.05270977-.01601973.015503-.04857591-.03772403-.07286377-.09043379.03203938.01085215-.04754232h.01343581V2.5269775l-.0806151-.03669024-.06459564.04547526.0134358.00878498-.06614583.10955404.0077515.04857591-.08319902.03255619-.05270976.10490305-.02273776-.09715156-.14314382-.05684414-.0227375-.07286384.18861908-.10490313.08319902-.0728638.0072345-.08940021-.04495853-.02428793-.06046126-.00775145zm2.0251994.04082436l-.14004317.0335897-.0888836.05839436v.05012614l-.13952616.09146727.02945553.13384184.08113183-.05839434.05167657.05839434.05891106.03307291.03720703-.09973548-.02222076-.05839428.02222076-.0418579.0811321-.07544758h.0366903l-.0366903.0837158v.07493083c.03389604-.009.06814794-.01223645.10283613-.01653646l-.09560163.0666625-.0072345.04185789-.11058763.09198424-.11058763-.02532142v-.06666282l-.05219303.0335899.02222077.05839434h-.0811321l-.0439248.0749308-.05529395.06252844-.09973548.0211873.05891107.05839434.01498626.05839434h-.07389733l-.0961181.05012637v.14986158h.0444418l.04082442.045992.09198398-.045992.0366903-.09146725.06666256-.04185787.01446927-.03358992.11110436-.02480468.05839434.06666283.06666282.03358964-.0366903.0749308.05891107-.01653646.02945553-.07544753-.07389733-.08319928h.02997227l.0733806.0583946.01498626.08319902.06614583.07544752.014986-.10852044.0366903-.01705319c.03647414.03779996.0648814.0830035.09560137.12557363l.11110436.0077515.06614583.04185788-.02945553.04134114-.06614583.05839434h-.0961181l-.1255739-.04134115-.06614583.00826823-.04805891.05426022-.13642578-.13797597-.0961181-.02480469-.14004316.01653646-.1255739.03358965c-.0703699.0796999-.13958437.15902569-.206189.24184556l-.08113182.19223646.0366903.04134115-.06614584.1002522.0733806.17518328c.06272795.07089986.12546753.14193678.18810208.21290676l.09250071-.0790649.04030769.04599199.09973548-.06304518.03307291.03772376h.09973548l.05736088.06459537-.03513985.11472175.07027995.0795819-.00413411.13745924.05219303.10025221-.03720703.08371576c-.00366977.0614-.0072345.12203138-.0072345.1834515.03023182.0831998.05981858.16630385.0883666.25011379l.02222076.13384186v.06666283h.05167656l.0811321-.05012637h.09560137l.14417727-.16278066-.01860364-.05426022.0961181-.08319903-.07027995-.07958163.08474948-.07079668.08113183-.05012637.03720703-.04185788-.02222077-.09146725v-.23357734l.06614583-.14211035.0811321-.09198398.08888333-.21704088V4.073653c-.04246007.0050001-.08405812.00681857-.12557363.00981868l.08474922-.08474948.12143978-.08371575.06666256-.0749308v-.08319901c-.01476613-.02780004-.02957486-.05591599-.0444418-.08371602l-.05891106.06666283-.04392507-.05012637-.06666256-.0501261v-.10852045l.07751471.08784987.08474922-.01240235c.03864504.03510016.07669106.06860064.11058763.10852071l.05529368-.06252845c0-.0664001-.07554886-.39349018-.23719472-.67076028-.1616456-.27717988-.44493418-.53020012-.44493418-.53020012l-.02222076.03669027-.07389733.08319905-.09560137-.10025227h.09560137l.0444418-.04960937-.1772502-.0335897-.0961181-.03307292zm-.59944661.3446818v.05426023l.03203918.0366903v.08164883l-.01601946.10903717.0883666-.01808665.0640789-.06356218-.0563274-.05477695c-.01889099-.05029994-.04043574-.09700075-.0640789-.14521074H6.6755615zm-.07389733.10903718l-.05581068.01808692.01601972.1002522.07234714-.0366903-.03255618-.08164882zm-.92139081.22634284l.02480468.12712409.04805918-.07286387-.07286386-.05426022zm1.93373213.53846835l.08526595.09611836.09973548.21290677.0583946.06666256-.02945553.0749308.05426022.06097825c-.02517008.00199998-.05009647.0062013-.07596452.0062013-.04697783-.09870016-.08256588-.19753685-.11833887-.3007569l-.0625287-.0713134-.03358966-.12040632.02222103-.02532142zM4.96300436 6.45076886c-.43393677.00300011-.85733042.19578796-1.17770564.37723815-.1873369.11521996-.2023782.16304763-.20567227.39325761l-.0134358 3.11453844c.00195977.10566003.03349095.2228707.14366028.16278092.03439504-.02310024.06823921-.04524586.1023194-.06614583 1.1409365-.7005902 2.09911894-.2019464 2.42930915.61908345l-.03875749-3.83800847c-.36146448-.57856014-.80578033-.76555414-1.23971763-.76274427zm2.77347412 0c-.43377378-.0028485-.87787823.18446247-1.23920063.76274427l-.03824076 3.83800847c.33018968-.8210399 1.28785671-1.31967365 2.42879242-.61908345.03408098.02089997.0684411.0431456.10283613.06614583.11016986.06009984.14066917-.057091.14262682-.16278092l-.0134358-3.11453844c-.00329989-.23020998-.01730349-.27803765-.2046388-.3932576-.32024796-.18138802-.74446606-.37426847-1.17822238-.37723816h-.000517z"/>
</svg>
