<?xml version="1.0" encoding="UTF-8" standalone="no"?>
<!-- Created with Inkscape (http://www.inkscape.org/) -->

<svg
   xmlns:dc="http://purl.org/dc/elements/1.1/"
   xmlns:cc="http://creativecommons.org/ns#"
   xmlns:rdf="http://www.w3.org/1999/02/22-rdf-syntax-ns#"
   xmlns:svg="http://www.w3.org/2000/svg"
   xmlns="http://www.w3.org/2000/svg"
   xmlns:sodipodi="http://sodipodi.sourceforge.net/DTD/sodipodi-0.dtd"
   xmlns:inkscape="http://www.inkscape.org/namespaces/inkscape"
   width="48"
   height="48"
   viewBox="0 0 12.7 12.7"
   version="1.1"
   id="svg829"
   inkscape:version="0.92.3 (2405546, 2018-03-11)"
   sodipodi:docname="referencer.svg">
  <defs
     id="defs823" />
  <sodipodi:namedview
     id="base"
     pagecolor="#ffffff"
     bordercolor="#666666"
     borderopacity="1.0"
     inkscape:pageopacity="0.0"
     inkscape:pageshadow="2"
     inkscape:zoom="2.796875"
     inkscape:cx="24"
     inkscape:cy="24"
     inkscape:document-units="mm"
     inkscape:current-layer="layer1"
     showgrid="false"
     showguides="true"
     inkscape:guide-bbox="true"
     inkscape:window-width="1366"
     inkscape:window-height="714"
     inkscape:window-x="0"
     inkscape:window-y="25"
     inkscape:window-maximized="1"
     scale-x="1.9"
     units="px"
     inkscape:snap-global="false" />
  <metadata
     id="metadata826">
    <rdf:RDF>
      <cc:Work
         rdf:about="">
        <dc:format>image/svg+xml</dc:format>
        <dc:type
           rdf:resource="http://purl.org/dc/dcmitype/StillImage" />
        <dc:title></dc:title>
      </cc:Work>
    </rdf:RDF>
  </metadata>
  <g
     inkscape:label="Capa 1"
     inkscape:groupmode="layer"
     id="layer1"
     transform="translate(0,-284.3)">
    <path
       style="fill:#1a1a1a;fill-opacity:1;stroke-width:0.52516764"
       d="M 23.978516 0.27539062 A 23.770509 23.770509 0 0 0 0.20703125 24.046875 A 23.770509 23.770509 0 0 0 23.978516 47.816406 A 23.770509 23.770509 0 0 0 47.748047 24.046875 A 23.770509 23.770509 0 0 0 23.978516 0.27539062 z M 23.910156 3.8144531 A 20.436071 20.436071 0 0 1 44.345703 24.25 A 20.436071 20.436071 0 0 1 23.910156 44.685547 A 20.436071 20.436071 0 0 1 3.4726562 24.25 A 20.436071 20.436071 0 0 1 23.910156 3.8144531 z M 24.033203 6.2304688 C 19.243913 6.2304688 15.361328 10.113191 15.361328 14.902344 C 15.361328 19.691723 19.243913 23.574219 24.033203 23.574219 C 28.822057 23.574219 32.705078 19.691761 32.705078 14.902344 C 32.705078 10.113191 28.822057 6.2304688 24.033203 6.2304688 z M 24.033203 6.6992188 C 28.549906 6.6992188 32.212891 10.383495 32.212891 14.927734 C 32.212891 19.472163 28.549906 23.15625 24.033203 23.15625 C 19.516089 23.15625 15.855469 19.472087 15.855469 14.927734 C 15.855469 10.383495 19.516089 6.6992188 24.033203 6.6992188 z M 24.132812 8.1933594 L 23.220703 8.296875 L 22.289062 8.5527344 C 22.357204 8.5300572 22.422009 8.4996176 22.492188 8.4765625 L 22.371094 8.2695312 L 21.978516 8.3261719 L 21.792969 8.5117188 L 21.488281 8.5546875 L 21.216797 8.6835938 L 21.083984 8.7460938 L 21.052734 8.7890625 L 20.863281 8.8378906 L 20.742188 9.078125 L 20.589844 8.7675781 L 20.529297 8.90625 L 20.560547 9.25 L 20.316406 9.4550781 L 20.164062 9.8339844 L 20.46875 9.8339844 L 20.621094 9.4902344 C 20.752062 9.3976359 20.882233 9.3040406 21.015625 9.2148438 L 21.318359 9.3183594 C 21.520727 9.4559342 21.723214 9.5931207 21.925781 9.7304688 L 22.230469 9.4550781 L 21.896484 9.3183594 L 21.744141 9.0097656 L 21.167969 8.9394531 L 21.158203 8.8828125 L 21.398438 8.9238281 L 21.550781 8.7851562 L 21.853516 8.7167969 C 21.922307 8.6827811 21.995084 8.6643093 22.064453 8.6367188 L 21.886719 8.8125 L 22.585938 9.2929688 L 22.585938 9.5683594 L 22.3125 9.84375 L 22.675781 10.564453 L 22.919922 10.427734 L 23.222656 9.9453125 C 23.65908 9.8103834 24.054928 9.6569582 24.466797 9.4707031 L 24.439453 9.6523438 L 24.652344 9.7910156 L 25.015625 9.5507812 L 24.833984 9.34375 L 24.591797 9.4824219 L 24.5 9.4570312 C 24.519049 9.4494722 24.537531 9.4411528 24.556641 9.4335938 L 24.921875 8.5058594 L 24.132812 8.1933594 z M 19.841797 8.7460938 L 19.699219 9.0839844 C 19.699219 9.0839844 19.461642 9.1282159 19.400391 9.1425781 C 18.618107 9.8268994 17.037138 11.304761 16.669922 14.09375 C 16.684473 14.15838 16.935547 14.533203 16.935547 14.533203 L 17.535156 14.869141 L 18.132812 15.021484 L 18.388672 15.328125 L 18.787109 15.603516 L 19.015625 15.572266 L 19.185547 15.644531 L 19.185547 15.693359 L 18.958984 16.275391 L 18.787109 16.521484 L 18.84375 16.642578 L 18.703125 17.101562 L 19.214844 17.990234 L 19.728516 18.417969 L 19.955078 18.724609 L 19.929688 19.367188 L 20.099609 19.734375 L 19.929688 20.439453 C 19.929688 20.439453 19.913777 20.43556 19.935547 20.505859 C 19.957582 20.576537 20.847667 21.045809 20.904297 21.005859 C 20.960725 20.96504 21.009766 20.927734 21.009766 20.927734 L 20.953125 20.775391 L 21.179688 20.5625 L 21.265625 20.347656 L 21.636719 20.224609 L 21.921875 19.550781 L 21.835938 19.367188 L 22.035156 19.091797 L 22.462891 19 L 22.691406 18.509766 L 22.632812 17.898438 L 22.974609 17.439453 L 23.033203 16.980469 C 22.56551 16.762012 22.100932 16.53529 21.636719 16.308594 L 21.408203 15.878906 L 20.980469 15.787109 L 20.753906 15.207031 L 20.183594 15.267578 L 19.699219 14.931641 L 19.1875 15.359375 L 19.1875 15.427734 C 19.032305 15.385404 18.84131 15.379332 18.703125 15.298828 L 18.587891 14.992188 L 18.587891 14.654297 L 18.246094 14.683594 C 18.274629 14.469295 18.303311 14.255353 18.332031 14.041016 L 18.132812 14.041016 L 17.933594 14.285156 L 17.734375 14.376953 L 17.449219 14.226562 L 17.421875 13.888672 L 17.478516 13.523438 L 17.90625 13.216797 L 18.248047 13.216797 L 18.304688 13.033203 L 18.732422 13.125 L 19.046875 13.492188 L 19.103516 12.878906 L 19.644531 12.451172 L 19.84375 11.992188 L 20.242188 11.837891 L 20.470703 11.533203 L 20.982422 11.441406 L 21.240234 11.074219 L 20.46875 11.074219 L 20.953125 10.859375 L 21.294922 10.859375 L 21.779297 10.705078 L 21.835938 10.523438 L 21.664062 10.369141 L 21.464844 10.308594 L 21.523438 10.125 L 21.380859 9.8496094 L 21.039062 9.9707031 L 21.080078 9.7910156 L 21.130859 9.7910156 L 21.130859 9.5507812 L 20.826172 9.4121094 L 20.582031 9.5839844 L 20.632812 9.6171875 L 20.382812 10.03125 L 20.412109 10.214844 L 20.097656 10.337891 L 19.898438 10.734375 L 19.8125 10.367188 L 19.271484 10.152344 L 19.185547 9.8769531 L 19.898438 9.4804688 L 20.212891 9.2050781 L 20.240234 8.8671875 L 20.070312 8.7753906 L 19.841797 8.7460938 z M 27.496094 8.9003906 L 26.966797 9.0273438 L 26.630859 9.2480469 L 26.630859 9.4375 L 26.103516 9.7832031 L 26.214844 10.289062 L 26.521484 10.068359 L 26.716797 10.289062 L 26.939453 10.414062 L 27.080078 10.037109 L 26.996094 9.8164062 L 27.080078 9.6582031 L 27.386719 9.3730469 L 27.525391 9.3730469 L 27.386719 9.6894531 L 27.386719 9.9726562 C 27.51483 9.9386405 27.644286 9.9264082 27.775391 9.9101562 L 27.414062 10.162109 L 27.386719 10.320312 L 26.96875 10.667969 L 26.550781 10.572266 L 26.550781 10.320312 L 26.353516 10.447266 L 26.4375 10.667969 L 26.130859 10.667969 L 25.964844 10.951172 L 25.755859 11.1875 L 25.378906 11.267578 L 25.601562 11.488281 L 25.658203 11.708984 L 25.378906 11.708984 L 25.015625 11.898438 L 25.015625 12.464844 L 25.183594 12.464844 L 25.337891 12.638672 L 25.685547 12.464844 L 25.824219 12.119141 L 26.076172 11.960938 L 26.130859 11.833984 L 26.550781 11.740234 L 26.771484 11.992188 L 27.023438 12.119141 L 26.884766 12.402344 L 27.107422 12.339844 L 27.21875 12.054688 L 26.939453 11.740234 L 27.052734 11.740234 L 27.330078 11.960938 L 27.386719 12.275391 L 27.636719 12.560547 L 27.693359 12.150391 L 27.832031 12.085938 C 27.969886 12.228804 28.077252 12.399652 28.193359 12.560547 L 28.613281 12.589844 L 28.863281 12.748047 L 28.751953 12.904297 L 28.501953 13.125 L 28.138672 13.125 L 27.664062 12.96875 L 27.414062 13 L 27.232422 13.205078 L 26.716797 12.683594 L 26.353516 12.589844 L 25.824219 12.652344 L 25.349609 12.779297 C 25.083644 13.080525 24.822046 13.380339 24.570312 13.693359 L 24.263672 14.419922 L 24.402344 14.576172 L 24.152344 14.955078 L 24.429688 15.617188 C 24.66677 15.885156 24.903896 16.153642 25.140625 16.421875 L 25.490234 16.123047 L 25.642578 16.296875 L 26.019531 16.058594 L 26.144531 16.201172 L 26.521484 16.201172 L 26.738281 16.445312 L 26.605469 16.878906 L 26.871094 17.179688 L 26.855469 17.699219 L 27.052734 18.078125 L 26.912109 18.394531 C 26.898239 18.626594 26.884766 18.855752 26.884766 19.087891 C 26.999028 19.402347 27.110852 19.716441 27.21875 20.033203 L 27.302734 20.539062 L 27.302734 20.791016 L 27.498047 20.791016 L 27.804688 20.601562 L 28.166016 20.601562 L 28.710938 19.986328 L 28.640625 19.78125 L 29.003906 19.466797 L 28.738281 19.166016 L 29.058594 18.898438 L 29.365234 18.708984 L 29.505859 18.550781 L 29.421875 18.205078 L 29.421875 17.322266 L 29.671875 16.785156 L 29.978516 16.4375 L 30.314453 15.617188 L 30.314453 15.396484 C 30.153974 15.415382 29.996753 15.422255 29.839844 15.433594 L 30.160156 15.113281 L 30.619141 14.796875 L 30.871094 14.513672 L 30.871094 14.199219 C 30.815285 14.094148 30.759315 13.987883 30.703125 13.882812 L 30.480469 14.134766 L 30.314453 13.945312 L 30.0625 13.755859 L 30.0625 13.345703 L 30.355469 13.677734 L 30.675781 13.630859 C 30.821841 13.763521 30.965637 13.890137 31.09375 14.041016 L 31.302734 13.804688 C 31.302734 13.553727 31.017195 12.317481 30.40625 11.269531 C 29.795306 10.221922 28.724609 9.265625 28.724609 9.265625 L 28.640625 9.4042969 L 28.361328 9.71875 L 28 9.3398438 L 28.361328 9.3398438 L 28.529297 9.1523438 L 27.859375 9.0253906 L 27.496094 8.9003906 z M 25.230469 10.203125 L 25.230469 10.408203 L 25.351562 10.546875 L 25.351562 10.855469 L 25.291016 11.267578 L 25.625 11.199219 L 25.867188 10.958984 L 25.654297 10.751953 C 25.582898 10.561843 25.501469 10.385336 25.412109 10.203125 L 25.230469 10.203125 z M 24.951172 10.615234 L 24.740234 10.683594 L 24.800781 11.0625 L 25.074219 10.923828 L 24.951172 10.615234 z M 21.46875 11.470703 L 21.5625 11.951172 L 21.744141 11.675781 L 21.46875 11.470703 z M 28.777344 13.505859 L 29.099609 13.869141 L 29.476562 14.673828 L 29.697266 14.925781 L 29.585938 15.208984 L 29.791016 15.439453 C 29.695885 15.447012 29.601675 15.462891 29.503906 15.462891 C 29.326352 15.089851 29.191846 14.716295 29.056641 14.326172 L 28.820312 14.056641 L 28.693359 13.601562 L 28.777344 13.505859 z M 18.757812 24.380859 C 17.117736 24.392198 15.517508 25.120845 14.306641 25.806641 C 13.598596 26.242118 13.541747 26.422884 13.529297 27.292969 L 13.478516 39.064453 C 13.485923 39.463798 13.605096 39.906799 14.021484 39.679688 C 14.151481 39.59238 14.279396 39.50868 14.408203 39.429688 C 18.720404 36.781788 22.341881 38.666426 23.589844 41.769531 L 23.443359 27.263672 C 22.077194 25.076988 20.39789 24.370239 18.757812 24.380859 z M 29.240234 24.380859 C 27.600774 24.370093 25.922269 25.07804 24.556641 27.263672 L 24.412109 41.769531 C 25.66007 38.666388 29.279599 36.781788 33.591797 39.429688 C 33.720607 39.50868 33.850472 39.592758 33.980469 39.679688 C 34.396859 39.906837 34.512132 39.463911 34.519531 39.064453 L 34.46875 27.292969 C 34.456278 26.422884 34.403351 26.242118 33.695312 25.806641 C 32.484926 25.12108 30.881582 24.392083 29.242188 24.380859 L 29.240234 24.380859 z "
       transform="matrix(0.26458333,0,0,0.26458333,0,284.3)"
       id="path820" />
  </g>
</svg>
