<svg xmlns="http://www.w3.org/2000/svg" width="48" height="48" viewBox="0 0 12.7 12.7">
  <path fill="#e6e6e6" d="M6.34431561.07286377a6.28928043 6.28928043 0 0 0-6.2895386 6.2895385 6.28928043 6.28928043 0 0 0 6.2895386 6.28902166 6.28928043 6.28928043 0 0 0 6.28902167-6.28902167A6.28928043 6.28928043 0 0 0 6.3443156.07286376zm-.01808691.93637693a5.40704372 5.40704372 0 0 1 5.40690507 5.40690505 5.40704372 5.40704372 0 0 1-5.40690507 5.40690508A5.40704372 5.40704372 0 0 1 .91880694 6.41614575 5.40704372 5.40704372 0 0 1 6.3262287 1.0092407zm-2.58123767.8691976l-.06046152 1.63555905 2.21123454 1.69602042-1.69602042 1.72702641 4.27054031-1.75699867-4.7252929-3.30160721zm4.7557819 3.88451736L4.2297159 7.51995433l4.7252929 3.30160732.06046153-1.63555916-2.21071781-1.69602042 1.69602042-1.72702641z"/>
</svg>
