<svg xmlns="http://www.w3.org/2000/svg" width="48" height="48" viewBox="0 0 12.7 12.7">
  <path fill="#e6e6e6" d="M6.34431561.07286377a6.28928043 6.28928043 0 0 0-6.2895386 6.2895385 6.28928043 6.28928043 0 0 0 6.2895386 6.28902166 6.28928043 6.28928043 0 0 0 6.28902167-6.28902167A6.28928043 6.28928043 0 0 0 6.3443156.07286376zm-.01808691.93637693a5.40704372 5.40704372 0 0 1 5.40690507 5.40690505 5.40704372 5.40704372 0 0 1-5.40690507 5.40690508A5.40704372 5.40704372 0 0 1 .91880694 6.41614575 5.40704372 5.40704372 0 0 1 6.3262287 1.0092407zm.02377122 1.1224121c-1.63574834 0-2.9522745.10585807-2.9522745.23667807v7.96333807c0 .13081 1.31652616.236678 2.9522745.236678 1.6357486 0 2.9522745-.105868 2.9522745-.236678V2.36833087c0-.13082-1.3165259-.23667807-2.9522745-.23667807zm-1.67793377.82630628a.83651483.8436039 0 0 1 .83664133.84335936.83651483.8436039 0 0 1-.83664133.84335937.83651483.8436039 0 0 1-.83664133-.84335937.83651483.8436039 0 0 1 .83664133-.84335936zm3.33829762 0a.83651483.8436039 0 0 1 .83664133.84335936.83651483.8436039 0 0 1-.83664133.84335937.83651483.8436039 0 0 1-.8366416-.84335937.83651483.8436039 0 0 1 .8366416-.84335936zM6.3593016 5.4885539a2.11798466 2.13593347 0 0 1 2.1177001 2.13630349 2.11798466 2.13593347 0 0 1-2.1177001 2.13578702 2.11798466 2.13593347 0 0 1-2.11821683-2.13578702A2.11798466 2.13593347 0 0 1 6.3593016 5.4885539zm.00671804 1.27434074a.83651483.8436039 0 0 0-.83664133.84335937.83651483.8436039 0 0 0 .83664133.8438761.83651483.8436039 0 0 0 .83664133-.8438761.83651483.8436039 0 0 0-.83664133-.84335937z"/>
</svg>
