<svg xmlns="http://www.w3.org/2000/svg" width="48" height="48" viewBox="0 0 12.7 12.7">
  <path fill="#e6e6e6" d="M6.34431561.07286377a6.28928043 6.28928043 0 0 0-6.2895386 6.2895385 6.28928043 6.28928043 0 0 0 6.2895386 6.28902166 6.28928043 6.28928043 0 0 0 6.28902167-6.28902167A6.28928043 6.28928043 0 0 0 6.3443156.07286376zm-.01808691.93637693a5.40704372 5.40704372 0 0 1 5.40690507 5.40690505 5.40704372 5.40704372 0 0 1-5.40690507 5.40690508A5.40704372 5.40704372 0 0 1 .91880694 6.41614575 5.40704372 5.40704372 0 0 1 6.3262287 1.0092407zM5.01106354 2.6458333v1.04179686H3.21479091v.6376871h1.79627263v1.19010826c-.80665636.27125003-1.57432584.80775994-1.9270141 1.6050699-.27218613.64708007-.31148125 1.47794449.1467612 2.05155453.49291292.5589299 1.34541073.53663373 1.99367667.30282382 1.202409-.46661995 2.08701743-1.51935416 2.61586077-2.66805433.17435538-.23618983.16638216-.90054058.5498375-.5333005.60382096.33939982.80986787 1.12681277.60926502 1.76113278C8.74597448 8.8232016 7.9275005 9.25130007 7.15821944 9.38444c.06377438.22321996.12742968.44653649.19120273.66972655.45427873-.08403008.9017365-.23154005 1.29604478-.4759399.72320122-.42577014 1.21734102-1.2383246 1.16892095-2.08824457.00818647-.71683006-.38640914-1.40652472-1.00252264-1.77043448-.91674394-.55637006-2.0505724-.5399749-3.0778484-.3953248v-.99890553h3.7517088v-.6376871h-3.7517088V2.6458333h-.72295332zm1.5704468 3.26543375c.2849983-.01073759.57108724.00265747.85317778.04030768-.33922731.95178985-.88523629 1.85989117-1.70067127 2.47685134v-2.4127727c.27853481-.05869992.56249517-.09364874.84749348-.10438632zm-1.5704468.33796393v2.59364c-.25388384.09262004-.5332587.15230078-.80201822.09250072-.42470836-.07481994-.59977442-.53717745-.5798095-.92190754-.010668-.82590983.66944266-1.46213326 1.38182772-1.76423318z"/>
  <path fill="#1a1a1a" d="M54.450447 57.2109c-.699603 0-1.262802.5632-1.262802 1.26281 0 .6996.563199 1.26286 1.262802 1.26286h2.915902v4.54958h2.621599v-4.54958h2.678879c.699604 0 1.262802-.56326 1.262802-1.26286 0-.69961-.563198-1.26281-1.262802-1.26281zm2.915902 7.07525h-3.762466c-.505822 0-.987151.40041-1.079176.89779l-1.570602 8.48895c-.09203.49738.241128.89779.746949.89779h4.58579v.032h4.539768v-.032h4.597049c.505821 0 .838974-.40041.746949-.89779l-1.570668-8.48895c-.09202-.49738-.573289-.89779-1.07911-.89779h-3.489167l-.0068 3.70486 2.545423.002-3.981976 3.2663-3.815203-3.25385 2.593287.009z"/>
</svg>
