<svg xmlns="http://www.w3.org/2000/svg" width="48" height="48" viewBox="0 0 12.7 12.7"><path fill="#e6e6e6" d="M6.344.073a6.29 6.29 0 0 0-6.29 6.29 6.29 6.29 0 0 0 6.29 6.288 6.29 6.29 0 0 0 6.29-6.289 6.29 6.29 0 0 0-6.29-6.29zm-.018.936a5.407 5.407 0 0 1 5.407 5.407 5.407 5.407 0 0 1-5.407 5.407A5.407 5.407 0 0 1 .92 6.416 5.407 5.407 0 0 1 6.326 1.01zM5.011 2.646v1.042H3.215v.637H5.01v1.19c-.807.272-1.574.808-1.927 1.605-.272.648-.311 1.478.147 2.052.493.559 1.345.537 1.993.303 1.203-.467 2.088-1.52 2.616-2.668.175-.236.167-.9.55-.533.604.339.81 1.126.61 1.76-.254.79-1.072 1.217-1.842 1.35l.191.67a3.743 3.743 0 0 0 1.296-.476c.724-.426 1.218-1.238 1.17-2.088a2.059 2.059 0 0 0-1.003-1.77c-.917-.557-2.05-.54-3.078-.396v-.999h3.752v-.637H5.734V2.646h-.723zm1.57 3.265c.286-.01.572.003.854.04-.34.952-.886 1.86-1.701 2.477V6.016c.279-.059.563-.094.848-.105zm-1.57.338v2.594c-.254.092-.533.152-.802.092-.425-.074-.6-.537-.58-.922-.01-.825.67-1.462 1.382-1.764z"/><path fill="#1a1a1a" d="M54.45 57.21c-.7 0-1.262.564-1.262 1.264 0 .7.563 1.263 1.262 1.263h2.916v4.55h2.622v-4.55h2.679c.7 0 1.263-.564 1.263-1.263 0-.7-.564-1.263-1.263-1.263zm2.916 7.076h-3.762c-.506 0-.987.4-1.08.898l-1.57 8.489c-.092.497.241.898.747.898h4.586v.032h4.54v-.032h4.597c.505 0 .839-.4.747-.898l-1.571-8.49a1.137 1.137 0 0 0-1.08-.897h-3.488l-.007 3.705 2.545.002-3.982 3.266-3.815-3.254 2.593.01z"/></svg>