<svg xmlns="http://www.w3.org/2000/svg" width="48" height="48" viewBox="0 0 12.7 12.7">
  <path fill="#e6e6e6" d="M6.34431561.07286377a6.28928043 6.28928043 0 0 0-6.2895386 6.2895385 6.28928043 6.28928043 0 0 0 6.2895386 6.28902166 6.28928043 6.28928043 0 0 0 6.28902167-6.28902167A6.28928043 6.28928043 0 0 0 6.3443156.07286376zm-.01808691.93637693a5.40704372 5.40704372 0 0 1 5.40690507 5.40690505 5.40704372 5.40704372 0 0 1-5.40690507 5.40690508A5.40704372 5.40704372 0 0 1 .91880694 6.41614575 5.40704372 5.40704372 0 0 1 6.3262287 1.0092407zM7.64914535 2.3822835v.00051678c-.21727319-.015-.4493379.04322397-.68109518.19740396-1.01018576 1.70880003-1.81168143 3.23391734-2.32905693 4.94336749-.27409193.91497995-.52109238 1.86244227-.76119381 2.78174234.39120736.0330999.31614745-.00135334.61805026.00051674.22217855-.49719997.66622479-.97001514.9746173-1.31516516.76541814-.79635005 1.4945381-1.15333037 2.4246583-1.46606046.01360805-.93752987-.05452216-1.86796493.32556132-2.6902751.15574222-.3417599.40003915-.7077657.6015138-1.01802564 0-.69524985-.5212371-1.39053094-1.17305506-1.43402095z"/>
</svg>
