<svg xmlns="http://www.w3.org/2000/svg" width="48" height="48" viewBox="0 0 12.7 12.7">
  <path fill="#e6e6e6" d="M6.34431561.07286377a6.28928043 6.28928043 0 0 0-6.2895386 6.2895385 6.28928043 6.28928043 0 0 0 6.2895386 6.28902166 6.28928043 6.28928043 0 0 0 6.28902167-6.28902167A6.28928043 6.28928043 0 0 0 6.3443156.07286376zm-.01808691.93637693a5.40704372 5.40704372 0 0 1 5.40690507 5.40690505 5.40704372 5.40704372 0 0 1-5.40690507 5.40690508A5.40704372 5.40704372 0 0 1 .91880694 6.41614575 5.40704372 5.40704372 0 0 1 6.3262287 1.0092407zM2.70267744 3.24372971c-.14338035 0-.258899.01530641-.258899.03410638v.74672454c0 .01879997.11551865.03410638.258899.03410638h7.24658604c.14338115 0 .25889876-.01530641.25889876-.03410638v-.74672454c0-.01879997-.11551761-.03410638-.25889876-.03410638H2.70267744zm-.24339605 1.0113076v5.0508545c0 .14333008.11506104.25889902.25838205.25889902h7.24400239c.14332267 0 .25838202-.11556894.25838202-.25889902v-5.0508545H2.4592814zm4.82399495.44648437v.96841653H9.4118286v2.51405837H7.28327634v.96841626L4.5749146 6.9215412l2.70836175-2.2200195zm-4.34133699.38085527h1.10380858v1.28726008H2.94193935V5.08237695zm0 1.83916424h1.10380858v1.28726008H2.94193935V6.92154119z"/>
</svg>
