<svg xmlns="http://www.w3.org/2000/svg" width="48" height="48" viewBox="0 0 12.7 12.7">
  <path fill="#e6e6e6" d="M6.34431561.07286377a6.28928043 6.28928043 0 0 0-6.2895386 6.2895385 6.28928043 6.28928043 0 0 0 6.2895386 6.28902166 6.28928043 6.28928043 0 0 0 6.28902167-6.28902167A6.28928043 6.28928043 0 0 0 6.3443156.07286376zm-.01808691.93637693a5.40704372 5.40704372 0 0 1 5.40690507 5.40690505 5.40704372 5.40704372 0 0 1-5.40690507 5.40690508A5.40704372 5.40704372 0 0 1 .91880694 6.41614575 5.40704372 5.40704372 0 0 1 6.3262287 1.0092407zM3.96616603 2.4778849c-.28396776 0-.5197774.0984589-.7203694.27646884a.83375697.83375697 0 0 0-.24546294.3679362c-.05394907.16283013-.0548222.37924765.03100572.55138768l.49040944.98081861c.0431591.0868.09961113.20942035.18396796.3369302.11770678-.03579997.24238241-.06097799.3679362-.06097799h4.68963633c.12555405 0 .25022942.025078.3679362.060978.08435684-.12750986.14080886-.25014688.18396796-.33744694l.49040944-.98081887c.08583004-.17165981.08443912-.38804056.030489-.5508707a.83375697.83375697 0 0 0-.24494623-.36793619 1.04759108 1.04759108 0 0 0-.72036939-.27646884h-4.9046103zm.06149499.9813355h4.78162031l-.38292245.76636138c-.05787205.11623993-.08688864.1815973-.10748698.21445723H4.51807045c-.02059913-.03240008-.04912466-.09825408-.10748698-.21497396l-.38292245-.76584465zm.42891444 1.96163721c-.23933731 0-.45850015.07076414-.6438884.21497396-.18489771.14320996-.3369302.382211-.3369302.65784094v4.0317954h5.88542863V6.29418924c0-.27562995-.15205868-.5146577-.33744693-.65835767a1.02748288 1.02748288 0 0 0-.64337167-.21497396H4.45657546zm0 .49040944H8.3803669v2.94245608H4.45657546V5.91126705zm3.433382 3.43286525h.49040943v.49040944h-.49040944V9.3441323z"/>
</svg>
