<?xml version="1.0" encoding="UTF-8" standalone="no"?>
<!-- Created with Inkscape (http://www.inkscape.org/) -->

<svg
   xmlns:dc="http://purl.org/dc/elements/1.1/"
   xmlns:cc="http://creativecommons.org/ns#"
   xmlns:rdf="http://www.w3.org/1999/02/22-rdf-syntax-ns#"
   xmlns:svg="http://www.w3.org/2000/svg"
   xmlns="http://www.w3.org/2000/svg"
   xmlns:sodipodi="http://sodipodi.sourceforge.net/DTD/sodipodi-0.dtd"
   xmlns:inkscape="http://www.inkscape.org/namespaces/inkscape"
   width="48"
   height="48"
   viewBox="0 0 12.7 12.7"
   version="1.1"
   id="svg829"
   inkscape:version="0.92.3 (2405546, 2018-03-11)"
   sodipodi:docname="simple-scan.svg">
  <defs
     id="defs823" />
  <sodipodi:namedview
     id="base"
     pagecolor="#ffffff"
     bordercolor="#666666"
     borderopacity="1.0"
     inkscape:pageopacity="0.0"
     inkscape:pageshadow="2"
     inkscape:zoom="5.125"
     inkscape:cx="-36.147711"
     inkscape:cy="23.219512"
     inkscape:document-units="mm"
     inkscape:current-layer="layer1"
     showgrid="false"
     showguides="true"
     inkscape:guide-bbox="true"
     inkscape:window-width="1366"
     inkscape:window-height="719"
     inkscape:window-x="0"
     inkscape:window-y="25"
     inkscape:window-maximized="1"
     scale-x="1.9"
     units="px" />
  <metadata
     id="metadata826">
    <rdf:RDF>
      <cc:Work
         rdf:about="">
        <dc:format>image/svg+xml</dc:format>
        <dc:type
           rdf:resource="http://purl.org/dc/dcmitype/StillImage" />
        <dc:title></dc:title>
      </cc:Work>
    </rdf:RDF>
  </metadata>
  <g
     inkscape:label="Capa 1"
     inkscape:groupmode="layer"
     id="layer1"
     transform="translate(0,-284.3)">
    <path
       style="fill:#1a1a1a;fill-opacity:1;stroke-width:0.52516764"
       d="M 23.978516 0.27539062 A 23.770509 23.770509 0 0 0 0.20703125 24.046875 A 23.770509 23.770509 0 0 0 23.978516 47.816406 A 23.770509 23.770509 0 0 0 47.748047 24.046875 A 23.770509 23.770509 0 0 0 23.978516 0.27539062 z M 23.910156 3.8144531 A 20.436071 20.436071 0 0 1 44.345703 24.25 A 20.436071 20.436071 0 0 1 23.910156 44.685547 A 20.436071 20.436071 0 0 1 3.4726562 24.25 A 20.436071 20.436071 0 0 1 23.910156 3.8144531 z M 14.990234 9.3652344 C 13.91697 9.3652344 13.025721 9.7373625 12.267578 10.410156 A 3.1512075 3.1512075 0 0 0 11.339844 11.800781 C 11.135942 12.416202 11.132642 13.234158 11.457031 13.884766 L 13.310547 17.591797 C 13.473668 17.91986 13.68703 18.383307 14.005859 18.865234 C 14.450735 18.729927 14.92195 18.634766 15.396484 18.634766 L 33.121094 18.634766 C 33.595629 18.634766 34.066843 18.729549 34.511719 18.865234 C 34.830548 18.383307 35.04391 17.919797 35.207031 17.589844 L 37.060547 13.882812 C 37.384944 13.234019 37.379687 12.416202 37.175781 11.800781 A 3.1512075 3.1512075 0 0 0 36.25 10.410156 A 3.9593994 3.9593994 0 0 0 33.527344 9.3652344 L 14.990234 9.3652344 z M 15.222656 13.074219 L 33.294922 13.074219 L 31.847656 15.970703 C 31.628927 16.410035 31.519258 16.657055 31.441406 16.78125 L 17.076172 16.78125 C 16.998317 16.658793 16.890504 16.409896 16.669922 15.96875 L 15.222656 13.074219 z M 16.84375 20.488281 C 15.939168 20.488281 15.110836 20.755736 14.410156 21.300781 C 13.71133 21.842047 13.136719 22.745358 13.136719 23.787109 L 13.136719 39.025391 L 35.380859 39.025391 L 35.380859 23.789062 C 35.380859 22.747311 34.806149 21.843899 34.105469 21.300781 A 3.8833999 3.8833999 0 0 0 31.673828 20.488281 L 16.84375 20.488281 z M 16.84375 22.341797 L 31.673828 22.341797 L 31.673828 33.462891 L 16.84375 33.462891 L 16.84375 22.341797 z M 29.820312 35.316406 L 31.673828 35.316406 L 31.673828 37.169922 L 29.820312 37.169922 L 29.820312 35.316406 z "
       transform="matrix(0.26458333,0,0,0.26458333,0,284.3)"
       id="path1374" />
  </g>
</svg>
