<?xml version="1.0" encoding="UTF-8" standalone="no"?>
<!-- Created with Inkscape (http://www.inkscape.org/) -->

<svg
   xmlns:dc="http://purl.org/dc/elements/1.1/"
   xmlns:cc="http://creativecommons.org/ns#"
   xmlns:rdf="http://www.w3.org/1999/02/22-rdf-syntax-ns#"
   xmlns:svg="http://www.w3.org/2000/svg"
   xmlns="http://www.w3.org/2000/svg"
   xmlns:sodipodi="http://sodipodi.sourceforge.net/DTD/sodipodi-0.dtd"
   xmlns:inkscape="http://www.inkscape.org/namespaces/inkscape"
   width="48"
   height="48"
   viewBox="0 0 12.7 12.7"
   version="1.1"
   id="svg829"
   inkscape:version="0.92.3 (2405546, 2018-03-11)"
   sodipodi:docname="skype.svg">
  <defs
     id="defs823" />
  <sodipodi:namedview
     id="base"
     pagecolor="#ffffff"
     bordercolor="#666666"
     borderopacity="1.0"
     inkscape:pageopacity="0.0"
     inkscape:pageshadow="2"
     inkscape:zoom="7.9107571"
     inkscape:cx="22.293463"
     inkscape:cy="23.494359"
     inkscape:document-units="mm"
     inkscape:current-layer="layer1"
     showgrid="false"
     showguides="true"
     inkscape:guide-bbox="true"
     inkscape:window-width="1366"
     inkscape:window-height="719"
     inkscape:window-x="0"
     inkscape:window-y="25"
     inkscape:window-maximized="1"
     scale-x="1.9"
     units="px"
     inkscape:snap-global="false" />
  <metadata
     id="metadata826">
    <rdf:RDF>
      <cc:Work
         rdf:about="">
        <dc:format>image/svg+xml</dc:format>
        <dc:type
           rdf:resource="http://purl.org/dc/dcmitype/StillImage" />
        <dc:title></dc:title>
      </cc:Work>
    </rdf:RDF>
  </metadata>
  <g
     inkscape:label="Capa 1"
     inkscape:groupmode="layer"
     id="layer1"
     transform="translate(0,-284.3)">
    <path
       style="fill:#e6e6e6;fill-opacity:1;stroke-width:0.52516764"
       d="M 23.978516 0.27539062 A 23.770509 23.770509 0 0 0 0.20703125 24.046875 A 23.770509 23.770509 0 0 0 23.978516 47.816406 A 23.770509 23.770509 0 0 0 47.748047 24.046875 A 23.770509 23.770509 0 0 0 23.978516 0.27539062 z M 23.910156 3.8144531 A 20.436071 20.436071 0 0 1 44.345703 24.25 A 20.436071 20.436071 0 0 1 23.910156 44.685547 A 20.436071 20.436071 0 0 1 3.4726562 24.25 A 20.436071 20.436071 0 0 1 23.910156 3.8144531 z M 16.679688 7.9628906 C 11.86865 7.9628906 7.9628906 11.868689 7.9628906 16.679688 C 7.9628906 18.165722 8.3296666 19.572044 8.9863281 20.796875 C 8.7671004 21.828913 8.6601562 22.902992 8.6601562 24 C 8.6601562 32.467465 15.532573 39.339844 24 39.339844 C 25.097035 39.339844 26.171123 39.232884 27.203125 39.013672 C 28.43201 39.676374 29.827191 40.037109 31.320312 40.037109 C 36.13135 40.037109 40.037109 36.131311 40.037109 31.320312 C 40.037109 29.827097 39.676253 28.432001 39.013672 27.203125 C 39.232922 26.171125 39.339844 25.097046 39.339844 24 C 39.339844 15.532573 32.467425 8.6621094 24 8.6621094 C 22.902704 8.6621094 21.829105 8.7901751 20.796875 9.0097656 C 19.572073 8.3527703 18.165857 7.9628906 16.679688 7.9628906 z M 23.716797 14.314453 C 28.510403 14.314453 30.972656 16.842531 30.972656 18.324219 C 30.972655 19.805907 30.252784 20.044922 29.076172 20.044922 C 26.792305 20.044922 27.741155 17.298828 23.455078 17.298828 C 22.035498 17.298828 20.273438 17.93596 20.273438 19.589844 C 20.273438 20.916798 21.816817 21.39951 24.587891 22.072266 C 28.753898 23.188549 31.910156 24.317505 31.910156 28.130859 C 31.910156 31.834985 28.85806 33.685547 24.064453 33.685547 C 19.270847 33.685547 16.220703 30.831146 16.220703 29.349609 C 16.220703 27.867921 16.788231 27.476562 17.964844 27.476562 C 20.248709 27.476562 19.932674 30.591797 24.21875 30.591797 C 25.638329 30.591797 27.726563 29.956618 27.726562 28.302734 C 27.726564 26.975742 27.625696 26.503412 24.587891 25.689453 C 21.342426 25.246908 16.089844 24.207164 16.089844 20.177734 C 16.089844 16.473608 18.923191 14.314453 23.716797 14.314453 z "
       transform="matrix(0.26458333,0,0,0.26458333,0,284.3)"
       id="path820" />
  </g>
</svg>
