<svg xmlns="http://www.w3.org/2000/svg" width="48" height="48" viewBox="0 0 12.7 12.7">
  <path fill="#e6e6e6" d="M6.34431561.07286377a6.28928043 6.28928043 0 0 0-6.2895386 6.2895385 6.28928043 6.28928043 0 0 0 6.2895386 6.28902166 6.28928043 6.28928043 0 0 0 6.28902167-6.28902167A6.28928043 6.28928043 0 0 0 6.3443156.07286376zm-.01808691.93637693a5.40704372 5.40704372 0 0 1 5.40690507 5.40690505 5.40704372 5.40704372 0 0 1-5.40690507 5.40690508A5.40704372 5.40704372 0 0 1 .91880694 6.41614575 5.40704372 5.40704372 0 0 1 6.3262287 1.0092407zM4.4131674 2.10684811c-1.27292046 0-2.30631929 1.03340915-2.30631929 2.30631928 0 .39317983.09704282.76526919.2707845 1.08933905-.058004.27306005-.08629964.55724345-.08629964.84749348 0 2.24035009 1.81832692 4.058667 4.05866695 4.058667.29025717 0 .57444295-.02829983.84749348-.08629967.32514248.1753399.69428412.27078437 1.08933905.27078437 1.27292045 0 2.30631917-1.03340904 2.30631917-2.30631917 0-.3950798-.09547648-.76419895-.27078437-1.08933905.0580099-.27305.08629968-.5572334.08629968-.84749348 0-2.24034003-1.8183275-4.05815017-4.05866701-4.05815017-.29032623 0-.57438263.03388405-.84749348.09198403-.3240622-.17383-.6961235-.27698567-1.08933905-.27698567zm1.86190173 1.68051753c1.26830824 0 1.91977933.6688873 1.91977933 1.06091724-2.6e-7.39202995-.19046613.45526933-.50177805.45526933-.60427313 0-.35322324-.7265707-1.48724777-.7265707-.3755972 0-.8418089.16857451-.8418089.60616465 0 .3510899.40835235.47880746 1.14153234.65680748 1.102256.29534987 1.93734926.59405281 1.93734926 1.60300271 0 .98005-.80753373 1.46967785-2.07584223 1.46967785-1.26830824 0-2.0753255-.75522692-2.0753255-1.14721692 0-.39202994.15015845-.495577.46147064-.495577.6042726 0 .52065501.82423924 1.65467927.82423924.37559694 0 .92810885-.16805777.92810858-.60564791 5.3e-7-.35109996-.02668746-.4760706-.83044002-.69143059C5.64685014 6.679911 4.2571045 6.40481206 4.2571045 5.33869205c0-.98004999.74965639-1.5513264 2.01796463-1.5513264z"/>
</svg>
