<svg xmlns="http://www.w3.org/2000/svg" width="48" height="48" viewBox="0 0 12.7 12.7">
  <path fill="#e6e6e6" d="M6.34431561.07286377a6.28928043 6.28928043 0 0 0-6.2895386 6.2895385 6.28928043 6.28928043 0 0 0 6.2895386 6.28902166 6.28928043 6.28928043 0 0 0 6.28902167-6.28902167A6.28928043 6.28928043 0 0 0 6.3443156.07286376zm-.01808691.93637693a5.40704372 5.40704372 0 0 1 5.40690507 5.40690505 5.40704372 5.40704372 0 0 1-5.40690507 5.40690508A5.40704372 5.40704372 0 0 1 .91880694 6.41614575 5.40704372 5.40704372 0 0 1 6.3262287 1.0092407zm-2.09444561.72967122c-.0647962 0-.12456848.02981523-.16484785.08061523L2.46083166 3.8560954c-.02977298.03679983-.04547523.08240765-.04547526.12970774V9.7105183c0 .11558006.0947378.21032311.21032309.21032311h7.42693686c.11558481 0 .21032284-.09477322.21032284-.2103231V3.98580313c.00170021-.0473001-.01415494-.0929079-.0439248-.12970774L8.61342776 1.81952715c-.04028017-.0508-.10005034-.08061523-.16484785-.08061523H4.23178309zm.10128567.42012938h1.79678963v1.65157884H3.03185615L4.33306876 2.1590413zm2.21743558 0h1.79678963l1.30121261 1.65157884H6.55050434V2.1590413zM2.83600257 4.23074936h7.0068074v5.26996256h-7.0068074V4.23074936zm3.52071539.15968027c-1.0498222 0-1.94728966.65275036-2.30941983 1.57148026-.0192741.04680002-.03576823.09513384-.0521933.14314381-.00319987.01009994-.0072271.0194556-.01033515.02945553-.07875508.24060997-.1235067.4962742-.1235067.762744 0 1.36303013 1.11296395 2.4706503 2.4820189 2.4706503 1.03991991 0 1.9310543-.63982864 2.30011814-1.54460864v-.00051673c.02651205-.06229985.04888177-.12701958.07027995-.19171947.08008302-.24250014.1250569-.50061203.1250569-.76946203 0-1.36270998-1.11324839-2.47116703-2.48201891-2.47116703zm-.17880066.38550612v.83199048c-.23699337-.0089998-.4633886-.0333637-.67282694-.0728636.03145684-.07339992.06428237-.1442728.10025221-.20877292.1658083-.29712999.36594574-.48235393.57257473-.55035396zm.35501712.0134358c.01863302.00200025.0373007.002785.05581068.00878523.18670085.08149986.36597404.25792297.51676432.52813293.03530282.06320023.06773889.13280866.09870201.2046388-.20849642.04040002-.4345326.0664644-.671277.07596426v-.81752122zm-1.11104308.1700157c-.04447222.0618998-.08741674.12597685-.12609063.19533684-.05147812.09219988-.09768654.19185599-.14004316.29610579-.10377805-.03029982-.19971781-.06427576-.28938802-.10128568.16181705-.15815997.34951458-.28979706.55552181-.39015696zm1.90582653.05322649c.09681713.03870007.1710317.07470457.24546322.11110436.09450493.0657.18375206.1383747.26613352.2180746-.08858197.03749993-.1839788.07248287-.2868041.10335287-.0416851-.10182992-.0865034-.20003161-.1369425-.29042148-.02754207-.04960011-.05746512-.09572334-.08785014-.14159336v-.000517zm.74310716.59582949c.22620234.30657984.37161337.67506663.40462649 1.0769367h-.66765936c-.01303814-.32274986-.06148494-.62787106-.14004317-.90537108.14157696-.04319985.27429592-.0926248.39584127-.14934486.0032901-.00799994.00512472-.01472089.00723477-.02222076zm-3.44578433.02325422c.12725426.05899997.2674821.11007249.4165121.1545127-.07753323.27585987-.12555855.57932663-.13849297.89968651h-.6650757c.03218391-.3916299.17067609-.75179237.38705657-1.05368247v-.00051674zm2.69854332.23564453c.07054295.24719015.1159391.52413482.12919102.81855468h-.92035735v-.7260537c.2785573-.0101002.54508823-.04170098.79116633-.09250098zm-1.93734952.00310065c.24666443.04960012.5130718.07904983.7916828.08784987v.7250205h-.91984035c.01315694-.29240003.0584327-.56699043.12815755-.81287037zm-1.14825037 1.1658203h.6650757c.01330193.32915992.06337168.64050439.14469401.92242427-.1456674.04320011-.2820736.09342835-.40721041.15037859-.22463786-.3055202-.36929748-.67291294-.4025593-1.07280286zm1.02009282 0h.91984035v.75034192c-.27624616.0089998-.54057681.0374994-.78548176.08629941-.07347082-.25173992-.12078493-.53505126-.13435859-.83664133zm1.27434074 0h.92035735c-.01366917.30361996-.06160241.5887892-.13590905.84180917-.24433583-.05010017-.50821933-.08075056-.7844483-.09095052v-.75085865zm1.27537447 0h.66765936c-.03364495.40457993-.1811393.77552814-.4103108 1.083138-.00070564-.00100012-.00084614-.00210052-.00155046-.00310064-.1232945-.05730002-.25868497-.10722504-.4025593-.15089505.0823669-.28353014.1333738-.59706562.1467612-.92862558v-.00051673zM6.1779173 8.13955478v.80666907c-.2065229-.06800004-.40679792-.25278715-.57257473-.54983724-.03229107-.05770007-.06227048-.1209151-.09095052-.18603515.20677161-.03840004.43017625-.06239669.66352525-.07079668zm.3545004.00051673c.23331354.00900007.45648455.03491415.66249178.07441406-.02821385.06380004-.05771012.12510109-.08940006.18190104-.16582972.2971599-.36637357.4818073-.57309173.54983724V8.1400715zm-1.36735846.15296224c.0399722.0961001.08240025.18870189.13022474.27440175.037601.06749997.07889425.13029618.12195625.190686-.19569589-.09589981-.3742727-.22007274-.53020012-.36845292.08682513-.03489987.17855353-.06773492.27801913-.09663483zm2.37866632.00671804c.09840991.02919994.18882042.06298512.27440175.09818502-.15489079.14596004-.3313983.26774192-.52503255.36225188.04323504-.06099995.0846209-.12393956.12247325-.19171946.04680585-.08380016.08886613-.17485757.12815755-.26871744z"/>
</svg>
