<svg xmlns="http://www.w3.org/2000/svg" width="48" height="48" viewBox="0 0 12.7 12.7">
  <path fill="green" d="M6.34999992 1.84536538A4.4979182 4.48119494 0 0 0 1.85208331 6.3262287a4.4979182 4.48119494 0 0 0 4.49791661 4.48138015 4.4979182 4.48119494 0 0 0 4.49791661-4.48138015 4.4979182 4.48119494 0 0 0-4.49791661-4.48086332zm-.81080318 2.00762936v.0062013h.00051673c.70746064.00003996 1.43834087.07230084 2.11408272.21704089.57250911.12292012 1.08588359.296713 1.5626953.5281332.28066338.13614981.3860194.21370078.4376994.32246093.04184015.0880999.04550013.252898.00671804.34209778-.07794704.17903004-.30123315.29353086-.48885898.25063079-.03555418-.0050001-.20126483-.0813808-.36896992-.16278066-.65543588-.31836995-1.33287318-.49898855-2.28254795-.60874856-.35034881-.04059979-1.44605003-.04616874-1.79317198-.01136862-.34136303.036-.73108528.1027991-1.0061403.17259935-.2719779.0689999-.35202679.07126763-.47645662.00516758-.15199413-.0749001-.23262696-.20535741-.23254388-.3741375.00006403-.13626994.04368615-.23047642.1462442-.31677636.08334693-.06997012.10594393-.07877916.40565996-.15347924.58327606-.14484984 1.26762429-.21707077 1.97507328-.21704088zM5.38106693 5.5283446v.00155046h.00051673c.12581387-.00100013.26964375-.00096652.41237799.00103346.28597542.00399997.57062263.01887405.7105507.03927396.81675683.12046002 1.50390382.34435785 2.13010271.69349778.37805571.21115998.45937117.29148457.49247636.48317467.03758406.2192901-.1536303.4490749-.37362076.44958502-.02706503.00005-.13144156-.04882066-.23306061-.1085207-.73905982-.43502977-1.37987033-.6486181-2.25154223-.7493082-.2053021-.02419985-.38907772-.02922085-.74103996-.02222077-.54296495.01209993-.84097176.04946597-1.28570962.17311608-.15245186.0423-.30262962.07751445-.33382981.07751445-.08280797 0-.22877225-.08739796-.2775024-.16639804-.12713786-.20558998-.0534178-.4846603.15296223-.58446035.19617716-.09499996.81392182-.2258851 1.28984373-.27388502.07325413-.01100005.18189072-.0131527.30747494-.0139528zm.19378638 1.66966554v.00103346c.1009621-.00099986.21632492-.00096626.33072917.00103373.22883706.00399997.45648985.01929077.56844088.03979069.65334964.12034017 1.20292414.3436911 1.70377191.69298104.30246135.21092001.36749037.29164465.39377435.48317467.0301572.21928005-.1221666.4490749-.29817298.44958476-.02162784.00006006-.10629635-.04882039-.18758535-.10852044-.59125934-.43503003-1.10359268-.64865831-1.80092374-.7493082-.16424195-.0242001-.3116924-.02922084-.5932453-.02222076-.43436116.01209993-.67204325.04958583-1.02784433.17311608-.12197.0423-.24272398.07803118-.26768398.07803118-.06624479 0-.18218494-.08688123-.221175-.16588131-.10171297-.20553997-.04367424-.48517704.12143952-.58497708.15695295-.09499996.65176823-.2258851 1.03249517-.27388528.05876793-.01089978.14501786-.0131625.24597968-.01395254z" opacity=".75"/>
  <path fill="#e6e6e6" d="M6.3443168.07286A6.2892804 6.2892804 0 0 0 .05477837 6.3624a6.2892804 6.2892804 0 0 0 6.28953843 6.28902A6.2892804 6.2892804 0 0 0 12.633337 6.3624 6.2892804 6.2892804 0 0 0 6.3443168.07286zm-.01809.93638a5.4070437 5.4070437 0 0 1 5.4069042 5.40691 5.4070437 5.4070437 0 0 1-5.4069042 5.4069 5.4070437 5.4070437 0 0 1-5.40742073-5.4069A5.4070437 5.4070437 0 0 1 6.3262268 1.00924z"/>
</svg>
