<?xml version="1.0" encoding="UTF-8" standalone="no"?>
<!-- Created with Inkscape (http://www.inkscape.org/) -->

<svg
   xmlns:dc="http://purl.org/dc/elements/1.1/"
   xmlns:cc="http://creativecommons.org/ns#"
   xmlns:rdf="http://www.w3.org/1999/02/22-rdf-syntax-ns#"
   xmlns:svg="http://www.w3.org/2000/svg"
   xmlns="http://www.w3.org/2000/svg"
   xmlns:sodipodi="http://sodipodi.sourceforge.net/DTD/sodipodi-0.dtd"
   xmlns:inkscape="http://www.inkscape.org/namespaces/inkscape"
   width="48"
   height="48"
   viewBox="0 0 12.7 12.7"
   version="1.1"
   id="svg829"
   inkscape:version="0.92.3 (2405546, 2018-03-11)"
   sodipodi:docname="spotify-client.svg">
  <defs
     id="defs823" />
  <sodipodi:namedview
     id="base"
     pagecolor="#ffffff"
     bordercolor="#666666"
     borderopacity="1.0"
     inkscape:pageopacity="0.0"
     inkscape:pageshadow="2"
     inkscape:zoom="3.9627443"
     inkscape:cx="17.18654"
     inkscape:cy="21.981198"
     inkscape:document-units="mm"
     inkscape:current-layer="layer1"
     showgrid="false"
     showguides="true"
     inkscape:guide-bbox="true"
     inkscape:window-width="1366"
     inkscape:window-height="719"
     inkscape:window-x="0"
     inkscape:window-y="25"
     inkscape:window-maximized="1"
     scale-x="1.9"
     units="px"
     inkscape:snap-global="false" />
  <metadata
     id="metadata826">
    <rdf:RDF>
      <cc:Work
         rdf:about="">
        <dc:format>image/svg+xml</dc:format>
        <dc:type
           rdf:resource="http://purl.org/dc/dcmitype/StillImage" />
        <dc:title></dc:title>
      </cc:Work>
    </rdf:RDF>
  </metadata>
  <g
     inkscape:label="Capa 1"
     inkscape:groupmode="layer"
     id="layer1"
     transform="translate(0,-284.3)">
    <path
       style="opacity:0.75;fill:#008000;stroke-width:0.70833367"
       d="M 24 6.9746094 A 17.000006 16.9368 0 0 0 7 23.910156 A 17.000006 16.9368 0 0 0 24 40.847656 A 17.000006 16.9368 0 0 0 41 23.910156 A 17.000006 16.9368 0 0 0 24 6.9746094 z M 20.935547 14.5625 L 20.935547 14.585938 L 20.9375 14.585938 C 23.611367 14.586089 26.373749 14.859201 28.927734 15.40625 C 31.091548 15.87083 33.031861 16.527685 34.833984 17.402344 C 35.894759 17.916926 36.292955 18.210032 36.488281 18.621094 C 36.646417 18.95407 36.66025 19.576929 36.513672 19.914062 C 36.219069 20.590711 35.375153 21.02347 34.666016 20.861328 C 34.531638 20.84243 33.90533 20.553747 33.271484 20.246094 C 30.794246 19.042806 28.233853 18.360153 24.644531 17.945312 C 23.320378 17.791864 19.179145 17.770816 17.867188 17.902344 C 16.576997 18.038407 15.104031 18.290876 14.064453 18.554688 C 13.036505 18.815475 12.733958 18.824046 12.263672 18.574219 C 11.689206 18.291132 11.384452 17.798065 11.384766 17.160156 C 11.385008 16.64512 11.549879 16.289064 11.9375 15.962891 C 12.252512 15.698437 12.337918 15.665143 13.470703 15.382812 C 15.675211 14.835348 18.261724 14.562387 20.935547 14.5625 z M 20.337891 20.894531 L 20.337891 20.900391 L 20.339844 20.900391 C 20.815361 20.896611 21.35897 20.896738 21.898438 20.904297 C 22.97929 20.919415 24.055122 20.975632 24.583984 21.052734 C 27.670939 21.508016 30.26803 22.354244 32.634766 23.673828 C 34.063638 24.471913 34.370972 24.775502 34.496094 25.5 C 34.638144 26.328813 33.915444 27.197291 33.083984 27.199219 C 32.981691 27.199408 32.587197 27.0147 32.203125 26.789062 C 29.409828 25.144855 26.987867 24.337592 23.693359 23.957031 C 22.917414 23.865567 22.222829 23.84659 20.892578 23.873047 C 18.840427 23.918779 17.714102 24.060005 16.033203 24.527344 C 15.457007 24.687218 14.889406 24.820312 14.771484 24.820312 C 14.458509 24.820312 13.906833 24.489989 13.722656 24.191406 C 13.242135 23.414373 13.520762 22.359619 14.300781 21.982422 C 15.042238 21.623367 17.377021 21.128683 19.175781 20.947266 C 19.452647 20.905691 19.863242 20.897555 20.337891 20.894531 z M 21.070312 27.205078 L 21.070312 27.208984 C 21.451901 27.205205 21.887918 27.205332 22.320312 27.212891 C 23.185208 27.228009 24.045628 27.285801 24.46875 27.363281 C 26.938103 27.81811 29.015235 28.662271 30.908203 29.982422 C 32.051364 30.7796 32.297143 31.084701 32.396484 31.808594 C 32.510464 32.637369 31.934752 33.505885 31.269531 33.507812 C 31.187788 33.508039 30.867781 33.323294 30.560547 33.097656 C 28.325866 31.453448 26.389488 30.646034 23.753906 30.265625 C 23.133149 30.17416 22.575856 30.155184 21.511719 30.181641 C 19.870039 30.227373 18.971713 30.369052 17.626953 30.835938 C 17.165964 30.995812 16.709571 31.130859 16.615234 31.130859 C 16.36486 31.130859 15.926661 30.802489 15.779297 30.503906 C 15.39487 29.727062 15.614229 28.670166 16.238281 28.292969 C 16.831489 27.933914 18.701657 27.43923 20.140625 27.257812 C 20.36274 27.216616 20.688724 27.208064 21.070312 27.205078 z "
       transform="matrix(0.26458333,0,0,0.26458333,0,284.3)"
       id="path79" />
    <path
       style="fill:#e6e6e6;fill-opacity:1;stroke-width:0.1389506"
       d="m 6.3443168,284.37286 a 6.2892804,6.2892804 0 0 0 -6.28953843,6.28954 6.2892804,6.2892804 0 0 0 6.28953843,6.28902 6.2892804,6.2892804 0 0 0 6.2890202,-6.28902 6.2892804,6.2892804 0 0 0 -6.2890202,-6.28954 z m -0.01809,0.93638 a 5.4070437,5.4070437 0 0 1 5.4069042,5.40691 5.4070437,5.4070437 0 0 1 -5.4069042,5.4069 5.4070437,5.4070437 0 0 1 -5.40742073,-5.4069 5.4070437,5.4070437 0 0 1 5.40742073,-5.40691 z"
       id="path822"
       inkscape:connector-curvature="0" />
  </g>
</svg>
