<?xml version="1.0" encoding="UTF-8" standalone="no"?>
<!-- Created with Inkscape (http://www.inkscape.org/) -->

<svg
   xmlns:dc="http://purl.org/dc/elements/1.1/"
   xmlns:cc="http://creativecommons.org/ns#"
   xmlns:rdf="http://www.w3.org/1999/02/22-rdf-syntax-ns#"
   xmlns:svg="http://www.w3.org/2000/svg"
   xmlns="http://www.w3.org/2000/svg"
   xmlns:xlink="http://www.w3.org/1999/xlink"
   xmlns:sodipodi="http://sodipodi.sourceforge.net/DTD/sodipodi-0.dtd"
   xmlns:inkscape="http://www.inkscape.org/namespaces/inkscape"
   width="48"
   height="48"
   viewBox="0 0 12.7 12.7"
   version="1.1"
   id="svg829"
   inkscape:version="0.92.3 (2405546, 2018-03-11)"
   sodipodi:docname="steam.svg">
  <defs
     id="defs823">
    <linearGradient
       xlink:href="#blue-gradient-5"
       id="linearGradient4351"
       x1="24"
       y1="1008.362"
       x2="24"
       y2="1048.3621"
       gradientUnits="userSpaceOnUse"
       gradientTransform="matrix(0.25135416,0,0,0.25135416,0.31750034,32.214723)" />
    <linearGradient
       id="blue-gradient-5">
      <stop
         style="stop-color:#054e87;stop-opacity:1"
         offset="0"
         id="stop2" />
      <stop
         style="stop-color:#1d99f3;stop-opacity:1"
         offset="1"
         id="stop4" />
    </linearGradient>
  </defs>
  <sodipodi:namedview
     id="base"
     pagecolor="#ffffff"
     bordercolor="#666666"
     borderopacity="1.0"
     inkscape:pageopacity="0.0"
     inkscape:pageshadow="2"
     inkscape:zoom="5.53125"
     inkscape:cx="-5.1977401"
     inkscape:cy="23.276836"
     inkscape:document-units="mm"
     inkscape:current-layer="layer1"
     showgrid="false"
     showguides="true"
     inkscape:guide-bbox="true"
     inkscape:window-width="1366"
     inkscape:window-height="719"
     inkscape:window-x="0"
     inkscape:window-y="25"
     inkscape:window-maximized="1"
     scale-x="1.9"
     units="px"
     inkscape:snap-global="false" />
  <metadata
     id="metadata826">
    <rdf:RDF>
      <cc:Work
         rdf:about="">
        <dc:format>image/svg+xml</dc:format>
        <dc:type
           rdf:resource="http://purl.org/dc/dcmitype/StillImage" />
        <dc:title />
      </cc:Work>
    </rdf:RDF>
  </metadata>
  <g
     inkscape:label="Capa 1"
     inkscape:groupmode="layer"
     id="layer1"
     transform="translate(0,-284.3)">
    <path
       style="fill:#e6e6e6;fill-opacity:1;stroke-width:0.52516764"
       d="M 23.978516 0.27539062 A 23.770509 23.770509 0 0 0 0.20703125 24.046875 A 23.770509 23.770509 0 0 0 23.978516 47.816406 A 23.770509 23.770509 0 0 0 47.748047 24.046875 A 23.770509 23.770509 0 0 0 23.978516 0.27539062 z M 23.910156 3.8144531 A 20.436071 20.436071 0 0 1 44.345703 24.25 A 20.436071 20.436071 0 0 1 23.910156 44.685547 A 20.436071 20.436071 0 0 1 3.4726562 24.25 A 20.436071 20.436071 0 0 1 23.910156 3.8144531 z M 24 5.1816406 A 18.999999 18.999999 0 0 0 5 24.181641 A 18.999999 18.999999 0 0 0 24 43.181641 A 18.999999 18.999999 0 0 0 43 24.181641 A 18.999999 18.999999 0 0 0 24 5.1816406 z M 30.175781 11.826172 L 30.175781 11.830078 C 34.110809 11.830078 37.300781 15.020099 37.300781 18.955078 C 37.300781 22.890095 34.110809 26.080078 30.175781 26.080078 C 29.982515 26.078717 29.788212 26.069679 29.595703 26.050781 L 23.994141 30.904297 C 23.986241 31.606949 23.848561 32.302543 23.587891 32.955078 C 22.412626 35.875708 19.092408 37.290781 16.171875 36.115234 C 14.215849 35.32811 12.941519 33.577807 12.662109 31.630859 L 6.6816406 29.224609 A 18.049999 18.049999 0 0 1 5.9492188 24.177734 A 18.049999 18.049999 0 0 1 6.0195312 22.8125 L 14.802734 26.347656 C 15.763206 25.59931 16.950609 25.150047 18.220703 25.132812 C 18.513148 24.795301 21.852971 21.02231 23.078125 19.525391 C 23.061155 19.334524 23.052369 19.142605 23.050781 18.951172 C 23.050782 15.016155 26.240753 11.826172 30.175781 11.826172 z M 30.175781 14.681641 C 27.814766 14.681641 25.900391 16.594045 25.900391 18.955078 C 25.900391 21.316073 27.814766 23.230469 30.175781 23.230469 C 32.536797 23.230469 34.449218 21.316111 34.449219 18.955078 C 34.449218 16.594045 32.536797 14.681641 30.175781 14.681641 z M 30.175781 15.630859 A 3.3249999 3.3249999 0 0 1 33.5 18.955078 A 3.3249999 3.3249999 0 0 1 30.175781 22.28125 A 3.3249999 3.3249999 0 0 1 26.849609 18.955078 A 3.3249999 3.3249999 0 0 1 30.175781 15.630859 z M 18.34375 27.03125 C 17.891251 27.027697 17.454112 27.109528 17.042969 27.253906 L 19.363281 28.1875 A 2.85 2.85 0 0 1 20.943359 31.894531 A 2.85 2.85 0 0 1 17.236328 33.474609 L 14.925781 32.544922 C 15.327469 33.336544 15.992642 33.997963 16.880859 34.355469 C 18.827885 35.139645 21.042419 34.197213 21.826172 32.25 C 22.610365 30.302976 21.665956 28.08841 19.71875 27.304688 C 19.28145 27.128562 18.815116 27.036541 18.34375 27.03125 z "
       transform="matrix(0.26458333,0,0,0.26458333,0,284.3)"
       id="path820" />
  </g>
</svg>
