<svg xmlns="http://www.w3.org/2000/svg" width="48" height="48" viewBox="0 0 12.7 12.7">
  <path fill="#e6e6e6" d="M6.34431561.07286377a6.28928043 6.28928043 0 0 0-6.2895386 6.2895385 6.28928043 6.28928043 0 0 0 6.2895386 6.28902166 6.28928043 6.28928043 0 0 0 6.28902167-6.28902167A6.28928043 6.28928043 0 0 0 6.3443156.07286376zm-.01808691.93637693a5.40704372 5.40704372 0 0 1 5.40690507 5.40690505 5.40704372 5.40704372 0 0 1-5.40690507 5.40690508A5.40704372 5.40704372 0 0 1 .91880694 6.41614575 5.40704372 5.40704372 0 0 1 6.3262287 1.0092407zm1.41541762 1.15083414c-1.33518776 0-2.41483961 1.07964961-2.41483988 2.41483975 0 .28407995.05689283.56806438.14211035.85214433L2.48615313 8.41033915v1.42006847h1.4205851V8.9782633h.85214433v-.85214433h.85214432l1.27847485-1.27847511c.25568328.08520006.53965951.14211035.8521446.14211035 1.33520257 0 2.41483961-1.07964974 2.41483961-2.41483962 0-1.33519014-1.07963704-2.41483975-2.41483962-2.41483975zm.7105507.8526612c.4829503 0 .8521446.36919428.8521446.85214432 0 .48295003-.3691943.85214432-.8521446.85214432-.4829503 0-.85266105-.36919429-.85266105-.85214432 0-.48295004.36971075-.85214433.85266106-.85214433z"/>
</svg>
