<svg xmlns="http://www.w3.org/2000/svg" width="48" height="48" viewBox="0 0 12.7 12.7">
  <path fill="#e6e6e6" d="M6.34431561.07286377a6.28928043 6.28928043 0 0 0-6.2895386 6.2895385 6.28928043 6.28928043 0 0 0 6.2895386 6.28902166 6.28928043 6.28928043 0 0 0 6.28902167-6.28902167A6.28928043 6.28928043 0 0 0 6.3443156.07286376zm-.01808691.93637693a5.40704372 5.40704372 0 0 1 5.40690507 5.40690505 5.40704372 5.40704372 0 0 1-5.40690507 5.40690508A5.40704372 5.40704372 0 0 1 .91880694 6.41614575 5.40704372 5.40704372 0 0 1 6.3262287 1.0092407zm1.33841964 1.6365926c-1.1119551-.02439-2.4059467.52299631-3.45043544 1.56734614C2.742892 5.68503957 2.25848717 7.65244973 2.9693277 8.90694963c.30756224-.76411984 1.10449967-1.91545208 3.16879892-2.639632 2.25408513-.79025008 3.00605636-2.25196873 3.24217925-2.9388387-.00189997-.00099986-.002744-.003134-.00413411-.00413412-.4423918-.44238994-1.04435036-.66297809-1.71152342-.67747805V2.6458333zM9.70793438 3.753776c-.1788697.41714948-.49074651.96262453-1.0268106 1.49861638-.53907292.53931026-1.30513585 1.06892406-2.39055166 1.449524-2.20264325.77237008-2.8177053 2.03665083-2.9894818 2.64945069.00811107.00819997.01487779.01580462.02273776.02480469 1.1797342 1.1796699 3.49077646.78144183 5.16195886-.88986809C9.97269578 6.99938372 10.45127596 5.006196 9.70793438 3.75377599z"/>
</svg>
