<?xml version="1.0" encoding="UTF-8" standalone="no"?>
<!-- Created with Inkscape (http://www.inkscape.org/) -->

<svg
   xmlns:dc="http://purl.org/dc/elements/1.1/"
   xmlns:cc="http://creativecommons.org/ns#"
   xmlns:rdf="http://www.w3.org/1999/02/22-rdf-syntax-ns#"
   xmlns:svg="http://www.w3.org/2000/svg"
   xmlns="http://www.w3.org/2000/svg"
   xmlns:sodipodi="http://sodipodi.sourceforge.net/DTD/sodipodi-0.dtd"
   xmlns:inkscape="http://www.inkscape.org/namespaces/inkscape"
   width="48"
   height="48"
   viewBox="0 0 12.7 12.7"
   version="1.1"
   id="svg829"
   inkscape:version="0.92.3 (2405546, 2018-03-11)"
   sodipodi:docname="sun-java6.svg">
  <defs
     id="defs823" />
  <sodipodi:namedview
     id="base"
     pagecolor="#ffffff"
     bordercolor="#666666"
     borderopacity="1.0"
     inkscape:pageopacity="0.0"
     inkscape:pageshadow="2"
     inkscape:zoom="7.9254885"
     inkscape:cx="22.296635"
     inkscape:cy="23.495299"
     inkscape:document-units="mm"
     inkscape:current-layer="layer1"
     showgrid="false"
     showguides="true"
     inkscape:guide-bbox="true"
     inkscape:window-width="1366"
     inkscape:window-height="719"
     inkscape:window-x="0"
     inkscape:window-y="25"
     inkscape:window-maximized="1"
     scale-x="1.9"
     units="px"
     inkscape:snap-global="false" />
  <metadata
     id="metadata826">
    <rdf:RDF>
      <cc:Work
         rdf:about="">
        <dc:format>image/svg+xml</dc:format>
        <dc:type
           rdf:resource="http://purl.org/dc/dcmitype/StillImage" />
        <dc:title></dc:title>
      </cc:Work>
    </rdf:RDF>
  </metadata>
  <g
     inkscape:label="Capa 1"
     inkscape:groupmode="layer"
     id="layer1"
     transform="translate(0,-284.3)">
    <path
       style="fill:#e6e6e6;fill-opacity:1;stroke-width:0.52516764"
       d="M 23.978516 0.27539062 A 23.770509 23.770509 0 0 0 0.20703125 24.046875 A 23.770509 23.770509 0 0 0 23.978516 47.816406 A 23.770509 23.770509 0 0 0 47.748047 24.046875 A 23.770509 23.770509 0 0 0 23.978516 0.27539062 z M 23.910156 3.8144531 A 20.436071 20.436071 0 0 1 44.345703 24.25 A 20.436071 20.436071 0 0 1 23.910156 44.685547 A 20.436071 20.436071 0 0 1 3.4726562 24.25 A 20.436071 20.436071 0 0 1 23.910156 3.8144531 z M 28.96875 10 C 24.766085 9.9078173 19.875408 11.976679 15.927734 15.923828 C 10.366836 21.486764 8.5360146 28.922645 11.222656 33.664062 C 12.385096 30.77605 15.397143 26.424558 23.199219 23.6875 C 31.718596 20.700728 34.560692 15.176122 35.453125 12.580078 C 35.445944 12.576299 35.442754 12.568233 35.4375 12.564453 C 33.765468 10.892428 31.490349 10.058709 28.96875 10.003906 L 28.96875 10 z M 36.691406 14.1875 C 36.015363 15.764128 34.836616 17.825766 32.810547 19.851562 C 30.773106 21.8899 27.87775 23.89159 23.775391 25.330078 C 15.45044 28.249272 13.125796 33.027656 12.476562 35.34375 C 12.507218 35.374742 12.532793 35.403484 12.5625 35.4375 C 17.021338 39.896095 25.755986 38.390981 32.072266 32.074219 C 37.692079 26.454364 39.500886 18.921056 36.691406 14.1875 z "
       transform="matrix(0.26458333,0,0,0.26458333,0,284.3)"
       id="path822" />
  </g>
</svg>
