<svg xmlns="http://www.w3.org/2000/svg" width="48" height="48" viewBox="0 0 12.7 12.7">
  <path fill="#e6e6e6" d="M6.3443156.07286A6.2892804 6.2892804 0 0 0 .05477702 6.3624a6.2892804 6.2892804 0 0 0 6.28953858 6.28902A6.2892804 6.2892804 0 0 0 12.633337 6.3624 6.2892804 6.2892804 0 0 0 6.3443156.07286zm-.018087.93638a5.4070437 5.4070437 0 0 1 5.4069054 5.40691 5.4070437 5.4070437 0 0 1-5.4069054 5.4069 5.4070437 5.4070437 0 0 1-5.40742176-5.4069A5.4070437 5.4070437 0 0 1 6.3262286 1.00924zm.047542.43202c-.929604 0-1.6867187.75717-1.6867187 1.68671v.56224H3.615283c-.3406804 0-.6149493.27424-.6149493.61495v5.51698c0 .34069.2742406.61495.6149493.61495h5.516976c.3406823 0 .6149496-.27424.6149496-.61495V4.30516c0-.34069-.2742393-.61495-.6149496-.61495H8.0604899v-.56224c0-.9296-.757115-1.68671-1.6867193-1.68671zm0 .56224c.6277946 0 1.1244792.49665 1.1244792 1.12447v.56224H5.249292v-.56224c0-.62779.4966562-1.12447 1.1244786-1.12447zM4.9506018 4.25245c.1612421 0 .2986897.12586.2986897.28112 0 .15525-.1374476.28112-.2986897.28112-.1612442 0-.2811198-.12587-.2811198-.28112 0-.15526.1198756-.28112.2811198-.28112zm2.8111979 0c.1612421 0 .2986897.12586.2986897.28112 0 .15525-.1374476.28112-.2986897.28112-.1612445 0-.2811198-.12587-.2811198-.28112 0-.15526.1198753-.28112.2811198-.28112zM5.3681471 5.98361h1.9637047v1.19786h.7565426L6.3458653 9.29762 4.6116044 7.18147h.7565427z"/>
  <path fill="green" d="M7.5971193 7.40265L6.3424503 8.9261l-1.248358-1.52345h.544566V6.20551h1.413894v1.19714z" opacity=".75"/>
</svg>
