<?xml version="1.0" encoding="UTF-8" standalone="no"?>
<!-- Created with Inkscape (http://www.inkscape.org/) -->

<svg
   xmlns:dc="http://purl.org/dc/elements/1.1/"
   xmlns:cc="http://creativecommons.org/ns#"
   xmlns:rdf="http://www.w3.org/1999/02/22-rdf-syntax-ns#"
   xmlns:svg="http://www.w3.org/2000/svg"
   xmlns="http://www.w3.org/2000/svg"
   xmlns:sodipodi="http://sodipodi.sourceforge.net/DTD/sodipodi-0.dtd"
   xmlns:inkscape="http://www.inkscape.org/namespaces/inkscape"
   width="48"
   height="48"
   viewBox="0 0 12.7 12.7"
   version="1.1"
   id="svg829"
   inkscape:version="0.92.3 (2405546, 2018-03-11)"
   sodipodi:docname="synaptic.svg">
  <defs
     id="defs823" />
  <sodipodi:namedview
     id="base"
     pagecolor="#ffffff"
     bordercolor="#666666"
     borderopacity="1.0"
     inkscape:pageopacity="0.0"
     inkscape:pageshadow="2"
     inkscape:zoom="7.9107571"
     inkscape:cx="24"
     inkscape:cy="24"
     inkscape:document-units="mm"
     inkscape:current-layer="layer1"
     showgrid="false"
     showguides="true"
     inkscape:guide-bbox="true"
     inkscape:window-width="1366"
     inkscape:window-height="714"
     inkscape:window-x="0"
     inkscape:window-y="25"
     inkscape:window-maximized="1"
     scale-x="1.9"
     units="px"
     inkscape:snap-global="false" />
  <metadata
     id="metadata826">
    <rdf:RDF>
      <cc:Work
         rdf:about="">
        <dc:format>image/svg+xml</dc:format>
        <dc:type
           rdf:resource="http://purl.org/dc/dcmitype/StillImage" />
        <dc:title></dc:title>
      </cc:Work>
    </rdf:RDF>
  </metadata>
  <g
     inkscape:label="Capa 1"
     inkscape:groupmode="layer"
     id="layer1"
     transform="translate(0,-284.3)">
    <g
       id="g1776">
      <path
         id="path1737"
         transform="matrix(0.26458333,0,0,0.26458333,0,284.3)"
         d="M 23.978516 0.27539062 A 23.770509 23.770509 0 0 0 0.20703125 24.046875 A 23.770509 23.770509 0 0 0 23.978516 47.816406 A 23.770509 23.770509 0 0 0 47.748047 24.046875 A 23.770509 23.770509 0 0 0 23.978516 0.27539062 z M 23.910156 3.8144531 A 20.436071 20.436071 0 0 1 44.345703 24.25 A 20.436071 20.436071 0 0 1 23.910156 44.685547 A 20.436071 20.436071 0 0 1 3.4726562 24.25 A 20.436071 20.436071 0 0 1 23.910156 3.8144531 z M 24.089844 5.4472656 C 20.57638 5.4472656 17.714844 8.3090433 17.714844 11.822266 L 17.714844 13.947266 L 13.664062 13.947266 C 12.376451 13.947266 11.339844 14.983762 11.339844 16.271484 L 11.339844 37.123047 C 11.339844 38.410694 12.376344 39.447266 13.664062 39.447266 L 34.515625 39.447266 C 35.803243 39.447266 36.839844 38.41077 36.839844 37.123047 L 36.839844 16.271484 C 36.839844 14.983837 35.803349 13.947266 34.515625 13.947266 L 30.464844 13.947266 L 30.464844 11.822266 C 30.464844 8.3088165 27.603307 5.4472656 24.089844 5.4472656 z M 24.089844 7.5722656 C 26.462611 7.5722656 28.339844 9.4494023 28.339844 11.822266 L 28.339844 13.947266 L 19.839844 13.947266 L 19.839844 11.822266 C 19.839844 9.4495157 21.71697 7.5722656 24.089844 7.5722656 z M 18.710938 16.072266 C 19.320357 16.072266 19.839844 16.547956 19.839844 17.134766 C 19.839844 17.721537 19.320357 18.197266 18.710938 18.197266 C 18.101511 18.197266 17.648438 17.721537 17.648438 17.134766 C 17.648438 16.547956 18.101511 16.072266 18.710938 16.072266 z M 29.335938 16.072266 C 29.945357 16.072266 30.464844 16.547956 30.464844 17.134766 C 30.464844 17.721537 29.945357 18.197266 29.335938 18.197266 C 28.72651 18.197266 28.273438 17.721537 28.273438 17.134766 C 28.273438 16.547956 28.72651 16.072266 29.335938 16.072266 z M 20.289062 22.615234 L 27.710938 22.615234 L 27.710938 27.142578 L 30.570312 27.142578 L 23.984375 35.140625 L 17.429688 27.142578 L 20.289062 27.142578 L 20.289062 22.615234 z "
         style="fill:#1a1a1a;fill-opacity:1;stroke-width:0.52516764" />
      <path
         id="path3288-7"
         style="fill:#008000;fill-opacity:1;stroke:none;stroke-width:0.10717635;stroke-linecap:round;stroke-linejoin:round;opacity:0.75"
         d="m 7.5971193,291.70265 -1.254669,1.52345 -1.248358,-1.52345 h 0.544566 v -1.19714 h 1.413894 v 1.19714 z"
         inkscape:connector-curvature="0" />
    </g>
  </g>
</svg>
