<?xml version="1.0" encoding="UTF-8" standalone="no"?>
<!-- Created with Inkscape (http://www.inkscape.org/) -->

<svg
   xmlns:dc="http://purl.org/dc/elements/1.1/"
   xmlns:cc="http://creativecommons.org/ns#"
   xmlns:rdf="http://www.w3.org/1999/02/22-rdf-syntax-ns#"
   xmlns:svg="http://www.w3.org/2000/svg"
   xmlns="http://www.w3.org/2000/svg"
   xmlns:sodipodi="http://sodipodi.sourceforge.net/DTD/sodipodi-0.dtd"
   xmlns:inkscape="http://www.inkscape.org/namespaces/inkscape"
   width="48"
   height="48"
   viewBox="0 0 12.7 12.7"
   version="1.1"
   id="svg829"
   inkscape:version="0.92.3 (2405546, 2018-03-11)"
   sodipodi:docname="synaptic.svg">
  <defs
     id="defs823" />
  <sodipodi:namedview
     id="base"
     pagecolor="#ffffff"
     bordercolor="#666666"
     borderopacity="1.0"
     inkscape:pageopacity="0.0"
     inkscape:pageshadow="2"
     inkscape:zoom="7.9107571"
     inkscape:cx="22.293463"
     inkscape:cy="23.494359"
     inkscape:document-units="mm"
     inkscape:current-layer="layer1"
     showgrid="false"
     showguides="true"
     inkscape:guide-bbox="true"
     inkscape:window-width="1366"
     inkscape:window-height="719"
     inkscape:window-x="0"
     inkscape:window-y="25"
     inkscape:window-maximized="1"
     scale-x="1.9"
     units="px"
     inkscape:snap-global="false" />
  <metadata
     id="metadata826">
    <rdf:RDF>
      <cc:Work
         rdf:about="">
        <dc:format>image/svg+xml</dc:format>
        <dc:type
           rdf:resource="http://purl.org/dc/dcmitype/StillImage" />
        <dc:title></dc:title>
      </cc:Work>
    </rdf:RDF>
  </metadata>
  <g
     inkscape:label="Capa 1"
     inkscape:groupmode="layer"
     id="layer1"
     transform="translate(0,-284.3)">
    <path
       inkscape:connector-curvature="0"
       style="fill:#e6e6e6;fill-opacity:1;stroke-width:0.1389506"
       d="m 6.3443156,284.37286 a 6.2892804,6.2892804 0 0 0 -6.28953858,6.28954 6.2892804,6.2892804 0 0 0 6.28953858,6.28902 6.2892804,6.2892804 0 0 0 6.2890214,-6.28902 6.2892804,6.2892804 0 0 0 -6.2890214,-6.28954 z m -0.018087,0.93638 a 5.4070437,5.4070437 0 0 1 5.4069054,5.40691 5.4070437,5.4070437 0 0 1 -5.4069054,5.4069 5.4070437,5.4070437 0 0 1 -5.40742176,-5.4069 5.4070437,5.4070437 0 0 1 5.40742176,-5.40691 z m 0.047542,0.43202 c -0.929604,0 -1.6867187,0.75717 -1.6867187,1.68671 v 0.56224 H 3.615283 c -0.3406804,0 -0.6149493,0.27424 -0.6149493,0.61495 v 5.51698 c 0,0.34069 0.2742406,0.61495 0.6149493,0.61495 h 5.516976 c 0.3406823,0 0.6149496,-0.27424 0.6149496,-0.61495 v -5.51698 c 0,-0.34069 -0.2742393,-0.61495 -0.6149496,-0.61495 H 8.0604899 v -0.56224 c 0,-0.9296 -0.757115,-1.68671 -1.6867193,-1.68671 z m 0,0.56224 c 0.6277946,0 1.1244792,0.49665 1.1244792,1.12447 v 0.56224 H 5.249292 v -0.56224 c 0,-0.62779 0.4966562,-1.12447 1.1244786,-1.12447 z m -1.4231688,2.24895 c 0.1612421,0 0.2986897,0.12586 0.2986897,0.28112 0,0.15525 -0.1374476,0.28112 -0.2986897,0.28112 -0.1612442,0 -0.2811198,-0.12587 -0.2811198,-0.28112 0,-0.15526 0.1198756,-0.28112 0.2811198,-0.28112 z m 2.8111979,0 c 0.1612421,0 0.2986897,0.12586 0.2986897,0.28112 0,0.15525 -0.1374476,0.28112 -0.2986897,0.28112 -0.1612445,0 -0.2811198,-0.12587 -0.2811198,-0.28112 0,-0.15526 0.1198753,-0.28112 0.2811198,-0.28112 z m -2.3936526,1.73116 h 1.9637047 v 1.19786 h 0.7565426 l -1.7425291,2.11615 -1.7342609,-2.11615 h 0.7565427 z"
       id="path1737" />
    <path
       inkscape:connector-curvature="0"
       d="m 7.5971193,291.70265 -1.254669,1.52345 -1.248358,-1.52345 h 0.544566 v -1.19714 h 1.413894 v 1.19714 z"
       style="opacity:0.75;fill:#008000;fill-opacity:1;stroke:none;stroke-width:0.10717635;stroke-linecap:round;stroke-linejoin:round"
       id="path3288-7" />
  </g>
</svg>
