<svg xmlns="http://www.w3.org/2000/svg" width="48" height="48" viewBox="0 0 12.7 12.7">
  <defs>
    <clipPath id="a"/>
  </defs>
  <path fill="#e6e6e6" d="M6.34431561.07286377a6.28928043 6.28928043 0 0 0-6.2895386 6.2895385 6.28928043 6.28928043 0 0 0 6.2895386 6.28902166 6.28928043 6.28928043 0 0 0 6.28902167-6.28902167A6.28928043 6.28928043 0 0 0 6.3443156.07286376zm-.01808691.93637693a5.40704372 5.40704372 0 0 1 5.40690507 5.40690505 5.40704372 5.40704372 0 0 1-5.40690507 5.40690508A5.40704372 5.40704372 0 0 1 .91880694 6.41614575 5.40704372 5.40704372 0 0 1 6.3262287 1.0092407zM3.99613856 2.28409828L2.5502319 3.75584292H10.1497679L8.69766024 2.28409828H3.99613856zM2.5502319 3.89123524V9.9973224h7.59488515V3.89123524H2.55023191zm.3364135.27078463h6.92205818v5.5650349H2.8866454v-5.5650349zm.37775488.42167968v2.18539613h6.14484438V4.58369955H3.2644003zm2.16369209.71416835h1.83916423v.41082754H5.42809238V5.2978679zm-2.1636921 1.81797667v2.1853964h6.1448444v-2.1853964h-6.1448444zm2.1636921.71416835h1.83916423v.41134453H5.42809238v-.41134453z"/>
</svg>
