<svg xmlns="http://www.w3.org/2000/svg" width="48" height="48" viewBox="0 0 12.7 12.7">
  <defs>
    <clipPath id="a"/>
  </defs>
  <path fill="#e6e6e6" d="M6.34431561.07286377a6.28928043 6.28928043 0 0 0-6.2895386 6.2895385 6.28928043 6.28928043 0 0 0 6.2895386 6.28902166 6.28928043 6.28928043 0 0 0 6.28902167-6.28902167A6.28928043 6.28928043 0 0 0 6.3443156.07286376zm-.01808691.93637693a5.40704372 5.40704372 0 0 1 5.40690507 5.40690505 5.40704372 5.40704372 0 0 1-5.40690507 5.40690508A5.40704372 5.40704372 0 0 1 .91880694 6.41614575 5.40704372 5.40704372 0 0 1 6.3262287 1.0092407zm.02325449.57825928c-.14968537 0-.29900112.0031538-.44596764.02015381l-.27646894 1.42471935a3.4101595 3.4101595 0 0 0-.65939114.21239004l-1.04179686-.99787193c-.26467514.15661-.49433903.3496311-.72295331.55242102l.6164998 1.29656177a3.44077735 3.44077735 0 0 0-.40359303.55345461l-1.42471917-.191203a4.70155634 4.70155634 0 0 0-.27646888.87126471l1.25418694.6805787a3.28360533 3.28360533 0 0 0-.02067057.34003086c0 .1173599.00909056.22582081.02067057.34003085l-1.25418694.6805787c.06600192.30276007.15535809.59351148.27646888.87178144l1.42471917-.19120273c.1156655.19742944.25254373.38292087.40359303.5524209L3.2029053 9.9012043c.22861428.20279995.45827817.39586111.72295331.55242116l1.04179686-.99942226c.20820115.09340003.4314571.16305.65939114.21239004l.27646894 1.42523605a4.84307985 4.84307985 0 0 0 .892452 0l.27698568-1.42523605c.2272538-.05009992.45083597-.11980995.65835767-.21239004l1.04283033.99993899c.2639949-.15643013.49450307-.35011783.72243658-.55293789l-.6164998-1.29759523c.15105063-.1693799.28844187-.35513168.40410976-.55242089l1.42420233.19120273a4.70155634 4.70155634 0 0 0 .27698567-.87178143L9.73067214 6.6905475c.01154298-.11375999.0211873-.22293765.0211873-.34054759 0-.1173599-.00963744-.2256708-.0211873-.34003085l1.25470363-.6805787a4.7001956 4.7001956 0 0 0-.27698567-.87126471l-1.42420233.190686a3.44077735 3.44077735 0 0 0-.40410976-.55293762l.6164998-1.29656177c-.22793272-.2026599-.45844168-.39586103-.72243658-.55242102l-1.04334706.99890539a3.4122005 3.4122005 0 0 0-.65835767-.21290677l-.27698567-1.42420256a4.84307985 4.84307985 0 0 0-.44596764-.02015381v-.00103352zM6.3443156 4.12791323c.9378389.00005 1.74002963.58468603 2.06602354 1.40766613l.87694901.876949h-.72295304c-.03354917 1.19613997-1.01548273 2.15955825-2.2200195 2.15955825-.84981097 0-1.58882317-.4795901-1.96267095-1.18184002l-.968933-.96893326h.7126179c-.00070009-.02389981-.00361738-.0472133-.00361738-.07131341 0-1.22510998.9968624-2.2220867 2.22260342-2.2220867zm0 .4547526c-.97514197 0-1.76836756.79279405-1.76836756 1.76733409 0 .0241001.00266542.04751335.00361739.07131341h.80615233l-.65267336.65267336c.27738599.61411008.89443215 1.04334732 1.6112712 1.04334732.953956 0 1.7319167-.75931552 1.7652669-1.70480564h-.79581717l.68367909-.68419582c-.25249664-.66823007-.89719996-1.14561672-1.65312882-1.14566672z"/>
</svg>
