<svg xmlns="http://www.w3.org/2000/svg" width="48" height="48" viewBox="0 0 12.7 12.7">
  <path fill="#e6e6e6" d="M6.3437318.07701A6.2670426 6.2670426 0 0 0 .07641397 6.34433a6.2670426 6.2670426 0 0 0 6.26731783 6.26628 6.2670426 6.2670426 0 0 0 6.2673172-6.26628A6.2670426 6.2670426 0 0 0 6.3437318.07701zm-.01756.93224a5.3879258 5.3879258 0 0 1 5.3877842 5.38882 5.3879258 5.3879258 0 0 1-5.3877842 5.3878 5.3879258 5.3879258 0 0 1-5.38881873-5.3878A5.3879258 5.3879258 0 0 1 6.3261718 1.00925zm.109554 1.83142c-.883247-.016-1.8225754.32196-2.1083985.98806-.1656639.37026-.01234 1.03456.543636 1.03456.3251988 0 .4746674-.20988.4991942-.40204.01856-.1454-.041226-.27472-.076482-.39482-.040164-.1368.1315719-.4025.3183266-.51056.156052-.0902.3190812-.1202.3431318-.126.5604138-.1346 1.1197912.163 1.3528892.52502.2330846.36208-.02386.9108-.3927412 1.44488-.3688556.53412-.7643316 1.14056-.762744 1.7849 0 .2453-.021734.32864-.0062.42788.0124.0792.2743396.0702.4754234.033-.01748-.6241.12247-1.22966.7121012-1.65882.6228048-.48534 1.2230152-1.09288 1.159621-1.80868-.01384-.69032-.818062-1.2317-1.6846518-1.30948-.121848-.016-.2469256-.0258-.3731038-.028zm-.069246 5.64514c-.5358608-.029-.9068961.57828-.5849768.96532.2874956.42732 1.0938002.32156 1.2319656-.1622.143632-.3763-.2021556-.8093-.6469888-.80304z"/>
</svg>
