<svg xmlns="http://www.w3.org/2000/svg" width="48" height="48" viewBox="0 0 12.7 12.7">
  <path fill="#e6e6e6" d="M6.21770825.59892985A5.77090533 5.74053222 0 0 0 .44700113 6.33966477a5.77090533 5.74053222 0 0 0 5.77070712 5.74073462 5.77090533 5.74053222 0 0 0 5.77070716-5.74073462A5.77090533 5.74053222 0 0 0 6.21770825.59892985zM6.187736 1.81177568a4.52129413 4.4974983 0 0 1 4.52117084 4.49791656 4.52129413 4.4974983 0 0 1-4.52117084 4.49688314 4.52129413 4.4974983 0 0 1-4.52168783-4.49688314 4.52129413 4.4974983 0 0 1 4.52168783-4.49791656zM8.7798258 3.55172111v.00051673l.00103346.0077515a.42358376.42358376 0 0 0-.06201171.00103347v.000517a.42358376.42358376 0 0 0-.21135658.13177466L6.2549153 5.94123931 4.85190027 4.54442533a.42358376.42358376 0 1 0-.58342715.58239342l1.69550395 1.69602042a.42358376.42358376 0 0 0 .58291015 0L9.0898844 4.279842a.42358376.42358376 0 0 0-.31005859-.72812089z"/>
</svg>
