<svg xmlns="http://www.w3.org/2000/svg" width="48" height="48" viewBox="0 0 12.7 12.7"><path fill="#e6e6e6" d="M6.218.599a5.77 5.74 0 0 0-5.771 5.74 5.77 5.74 0 0 0 5.77 5.741 5.77 5.74 0 0 0 5.771-5.74A5.77 5.74 0 0 0 6.218.599zm-.03 1.213a4.521 4.497 0 0 1 4.52 4.498 4.521 4.497 0 0 1-4.52 4.497A4.521 4.497 0 0 1 1.666 6.31a4.521 4.497 0 0 1 4.522-4.498zm2.592 1.74v.008a.424.424 0 0 0-.061.001.424.424 0 0 0-.212.132L6.255 5.941 4.852 4.544a.424.424 0 1 0-.584.583l1.696 1.696a.424.424 0 0 0 .583 0L9.09 4.28a.424.424 0 0 0-.31-.728z"/></svg>