<?xml version="1.0" encoding="UTF-8" standalone="no"?>
<!-- Created with Inkscape (http://www.inkscape.org/) -->

<svg
   xmlns:dc="http://purl.org/dc/elements/1.1/"
   xmlns:cc="http://creativecommons.org/ns#"
   xmlns:rdf="http://www.w3.org/1999/02/22-rdf-syntax-ns#"
   xmlns:svg="http://www.w3.org/2000/svg"
   xmlns="http://www.w3.org/2000/svg"
   xmlns:sodipodi="http://sodipodi.sourceforge.net/DTD/sodipodi-0.dtd"
   xmlns:inkscape="http://www.inkscape.org/namespaces/inkscape"
   width="48"
   height="48"
   viewBox="0 0 12.7 12.7"
   version="1.1"
   id="svg829"
   inkscape:version="0.92.3 (2405546, 2018-03-11)"
   sodipodi:docname="system-users.svg">
  <defs
     id="defs823" />
  <sodipodi:namedview
     id="base"
     pagecolor="#ffffff"
     bordercolor="#666666"
     borderopacity="1.0"
     inkscape:pageopacity="0.0"
     inkscape:pageshadow="2"
     inkscape:zoom="3.9553786"
     inkscape:cx="-28.839442"
     inkscape:cy="22.988719"
     inkscape:document-units="mm"
     inkscape:current-layer="layer1"
     showgrid="false"
     showguides="true"
     inkscape:guide-bbox="true"
     inkscape:window-width="1366"
     inkscape:window-height="719"
     inkscape:window-x="0"
     inkscape:window-y="25"
     inkscape:window-maximized="1"
     scale-x="1.9"
     units="px"
     inkscape:snap-global="false" />
  <metadata
     id="metadata826">
    <rdf:RDF>
      <cc:Work
         rdf:about="">
        <dc:format>image/svg+xml</dc:format>
        <dc:type
           rdf:resource="http://purl.org/dc/dcmitype/StillImage" />
        <dc:title></dc:title>
      </cc:Work>
    </rdf:RDF>
  </metadata>
  <g
     inkscape:label="Capa 1"
     inkscape:groupmode="layer"
     id="layer1"
     transform="translate(0,-284.3)">
    <path
       style="fill:#e6e6e6;fill-opacity:1;stroke-width:0.1389506"
       d="m 6.3443156,284.37286 a 6.2892804,6.2892804 0 0 0 -6.28953853,6.28954 6.2892804,6.2892804 0 0 0 6.28953853,6.28902 6.2892804,6.2892804 0 0 0 6.2890214,-6.28902 6.2892804,6.2892804 0 0 0 -6.2890214,-6.28954 z m -0.018087,0.93638 a 5.4070437,5.4070437 0 0 1 5.4069054,5.40691 5.4070437,5.4070437 0 0 1 -5.4069054,5.4069 5.4070437,5.4070437 0 0 1 -5.40742173,-5.4069 5.4070437,5.4070437 0 0 1 5.40742173,-5.40691 z m 0.8702313,1.01596 c -0.9264148,0 -1.6763836,0.71125 -1.6763836,1.58905 0.00726,0.32488 0.034148,0.71092 0.2232421,1.58957 0.053465,0.16285 0.3107772,0.45519 0.5643068,0.72863 -0.00625,0.0616 -0.00952,0.11992 -0.020671,0.18501 -0.1236438,0.10271 -0.2899902,0.19341 -0.4692222,0.27853 -0.2848583,-0.11564 -0.5576175,-0.23804 -0.7276041,-0.38602 l -0.0031,-0.17208 c 0.1245632,-0.16264 0.2433965,-0.32571 0.2728515,-0.42168 0.134415,-0.61734 0.1343843,-0.8441 0.1415937,-1.07436 0,-0.59341 -0.4746549,-1.07487 -1.0598838,-1.07487 -0.5852287,0 -1.0593667,0.48146 -1.0593667,1.07487 0.00458,0.21961 0.022145,0.48039 0.1415933,1.07436 0.027266,0.0889 0.1433507,0.23631 0.2692344,0.38654 l -0.00517,0.20722 c -0.5173308,0.42966 -1.9253888,0.62232 -1.9233967,1.06712 l -0.1772502,1.33428 c 0,0.38107 0.9175838,0.69892 2.144572,0.7798 0.1984877,0.48927 1.627757,0.8692 3.3646525,0.8692 1.8726221,0 3.3910076,-0.44123 3.3910076,-0.98547 l -0.218592,-1.64228 c -0.0027,-0.46853 -1.640702,-0.76769 -2.2696285,-1.31516 -0.00526,-0.0434 -0.00583,-0.0856 -0.0093,-0.12868 0.2426724,-0.28929 0.5033817,-0.61044 0.5606892,-0.78496 0.212785,-0.91314 0.2118283,-1.24898 0.2232421,-1.58957 0,-0.8778 -0.751002,-1.58905 -1.6774159,-1.58905 z"
       id="path820"
       inkscape:connector-curvature="0" />
  </g>
</svg>
