<?xml version="1.0" encoding="UTF-8" standalone="no"?>
<!-- Created with Inkscape (http://www.inkscape.org/) -->

<svg
   xmlns:dc="http://purl.org/dc/elements/1.1/"
   xmlns:cc="http://creativecommons.org/ns#"
   xmlns:rdf="http://www.w3.org/1999/02/22-rdf-syntax-ns#"
   xmlns:svg="http://www.w3.org/2000/svg"
   xmlns="http://www.w3.org/2000/svg"
   xmlns:sodipodi="http://sodipodi.sourceforge.net/DTD/sodipodi-0.dtd"
   xmlns:inkscape="http://www.inkscape.org/namespaces/inkscape"
   width="48"
   height="48"
   viewBox="0 0 12.7 12.7"
   version="1.1"
   id="svg829"
   inkscape:version="0.92.3 (2405546, 2018-03-11)"
   sodipodi:docname="system-software-install.svg">
  <defs
     id="defs823" />
  <sodipodi:namedview
     id="base"
     pagecolor="#ffffff"
     bordercolor="#666666"
     borderopacity="1.0"
     inkscape:pageopacity="0.0"
     inkscape:pageshadow="2"
     inkscape:zoom="5.59375"
     inkscape:cx="24"
     inkscape:cy="24"
     inkscape:document-units="mm"
     inkscape:current-layer="layer1"
     showgrid="false"
     showguides="true"
     inkscape:guide-bbox="true"
     inkscape:window-width="1366"
     inkscape:window-height="714"
     inkscape:window-x="0"
     inkscape:window-y="25"
     inkscape:window-maximized="1"
     scale-x="1.9"
     units="px"
     inkscape:snap-global="false" />
  <metadata
     id="metadata826">
    <rdf:RDF>
      <cc:Work
         rdf:about="">
        <dc:format>image/svg+xml</dc:format>
        <dc:type
           rdf:resource="http://purl.org/dc/dcmitype/StillImage" />
        <dc:title></dc:title>
      </cc:Work>
    </rdf:RDF>
  </metadata>
  <g
     inkscape:label="Capa 1"
     inkscape:groupmode="layer"
     id="layer1"
     transform="translate(0,-284.3)">
    <path
       style="fill:#1a1a1a;fill-opacity:1;stroke-width:0.52516764"
       d="M 23.978516 0.27539062 A 23.770509 23.770509 0 0 0 0.20703125 24.046875 A 23.770509 23.770509 0 0 0 23.978516 47.816406 A 23.770509 23.770509 0 0 0 47.748047 24.046875 A 23.770509 23.770509 0 0 0 23.978516 0.27539062 z M 23.910156 3.8144531 A 20.436071 20.436071 0 0 1 44.345703 24.25 A 20.436071 20.436071 0 0 1 23.910156 44.685547 A 20.436071 20.436071 0 0 1 3.4726562 24.25 A 20.436071 20.436071 0 0 1 23.910156 3.8144531 z M 15.994141 6.5722656 C 15.749227 6.5722656 15.523329 6.6849531 15.371094 6.8769531 L 9.3007812 14.574219 C 9.1882647 14.713305 9.1289063 14.885681 9.1289062 15.064453 L 9.1289062 36.701172 C 9.1289062 37.13801 9.4869786 37.496094 9.9238281 37.496094 L 37.994141 37.496094 C 38.430997 37.496094 38.789062 37.137783 38.789062 36.701172 L 38.789062 15.064453 C 38.795488 14.885681 38.735488 14.713305 38.623047 14.574219 L 32.554688 6.8769531 C 32.402448 6.6849531 32.176543 6.5722656 31.931641 6.5722656 L 15.994141 6.5722656 z M 16.376953 8.1601562 L 23.167969 8.1601562 L 23.167969 14.402344 L 11.458984 14.402344 L 16.376953 8.1601562 z M 24.757812 8.1601562 L 31.548828 8.1601562 L 36.466797 14.402344 L 24.757812 14.402344 L 24.757812 8.1601562 z M 10.71875 15.990234 L 37.201172 15.990234 L 37.201172 35.908203 L 10.71875 35.908203 L 10.71875 15.990234 z M 19.769531 17.859375 L 19.769531 25.023438 L 16.509766 25.023438 L 23.980469 34.140625 L 31.490234 25.023438 L 28.230469 25.023438 L 28.230469 17.859375 L 19.769531 17.859375 z "
       transform="matrix(0.26458333,0,0,0.26458333,0,284.3)"
       id="path861" />
  </g>
</svg>
