<svg xmlns="http://www.w3.org/2000/svg" width="48" height="48" viewBox="0 0 12.7 12.7"><path fill="#e6e6e6" d="M6.344.073a6.29 6.29 0 0 0-6.29 6.29 6.29 6.29 0 0 0 6.29 6.288 6.29 6.29 0 0 0 6.29-6.289 6.29 6.29 0 0 0-6.29-6.29zm-.018.936a5.407 5.407 0 0 1 5.407 5.407 5.407 5.407 0 0 1-5.407 5.407A5.407 5.407 0 0 1 .92 6.416 5.407 5.407 0 0 1 6.326 1.01zm0 1.059a4.28 4.28 0 0 0-2.775 1.019c-.321.31.524 1.019.81.723a3.194 3.194 0 0 1 1.965-.67 3.21 3.21 0 0 1 3.219 3.218 3.21 3.21 0 0 1-3.219 3.218 3.2 3.2 0 0 1-2.275-.942 3.213 3.213 0 0 1-.795-1.31h1.22l-1.73-2.012-1.728 2.011h1.129a4.293 4.293 0 0 0 4.18 3.326 4.3 4.3 0 0 0 4.29-4.291 4.299 4.299 0 0 0-4.29-4.29z"/></svg>