<svg xmlns="http://www.w3.org/2000/svg" width="48" height="48" viewBox="0 0 12.7 12.7">
  <defs>
    <clipPath id="a"/>
  </defs>
  <path fill="#e6e6e6" d="M6.34431561.07286377a6.28928043 6.28928043 0 0 0-6.2895386 6.2895385 6.28928043 6.28928043 0 0 0 6.2895386 6.28902166 6.28928043 6.28928043 0 0 0 6.28902167-6.28902167A6.28928043 6.28928043 0 0 0 6.3443156.07286376zm-.01808691.93637693a5.40704372 5.40704372 0 0 1 5.40690507 5.40690505 5.40704372 5.40704372 0 0 1-5.40690507 5.40690508A5.40704372 5.40704372 0 0 1 .91880694 6.41614575 5.40704372 5.40704372 0 0 1 6.3262287 1.0092407zm2.89026278 1.63142497c-1.67672647.061653-2.53673474.90025753-2.8117146 1.2267986-.1908945-.02771192-.38495976-.04599225-.58394362-.04599225-2.12263114 0-3.84731033 1.6356298-3.84731033 3.64938967-3.2e-7 2.01376013 1.72467919 3.6499064 3.84731033 3.6499064 2.12263035 0 3.84731176-1.63614627 3.84731043-3.6499064 0-1.62001542-1.11718247-2.99367148-2.65875237-3.46955555 1.81748137-.14431143 2.639632-1.35857344 2.639632-1.35857344-.14975152-.00640622-.29389705-.00716462-.43253184-.00206703zM7.29877934 4.8963418c.12657613-.00699982.20309257.1175266.21859107.22892676.00750015 1.1851698-.00914003 2.37029833 0 3.5553385.03293322.63797999-.79741764 1.18146246-1.38751202.91312257-.302278-.12485-.4422095-.4849061-.34933281-.78961587.12552336-.52601018.63493093-.84003038 1.144633-.6898804V6.11745604c-.13436627.01879997-1.67695217.30166813-1.77560207.30850814.00195977.88884997-.00695007 1.77728719 0 2.66598714-.00691012.5291701-.49087484.94756286-1.12809653.93224296-.35589898-.00700009-.6835267-.3266776-.64440514-.69194759.02396596-.58672994.63078518-.9987981 1.18339022-.87229817V5.86269114c.00950992-.1939999-.0393155-.46148016.1757-.56534023.81197555-.13711 1.74839469-.27114897 2.56263428-.40100911z"/>
</svg>
