<?xml version="1.0" encoding="UTF-8" standalone="no"?>
<!-- Created with Inkscape (http://www.inkscape.org/) -->

<svg
   xmlns:dc="http://purl.org/dc/elements/1.1/"
   xmlns:cc="http://creativecommons.org/ns#"
   xmlns:rdf="http://www.w3.org/1999/02/22-rdf-syntax-ns#"
   xmlns:svg="http://www.w3.org/2000/svg"
   xmlns="http://www.w3.org/2000/svg"
   xmlns:sodipodi="http://sodipodi.sourceforge.net/DTD/sodipodi-0.dtd"
   xmlns:inkscape="http://www.inkscape.org/namespaces/inkscape"
   width="48"
   height="48"
   viewBox="0 0 12.7 12.7"
   version="1.1"
   id="svg829"
   inkscape:version="0.92.3 (2405546, 2018-03-11)"
   sodipodi:docname="nautilus-actions.svg">
  <defs
     id="defs823">
    <clipPath
       clipPathUnits="userSpaceOnUse"
       id="clipPath927">
      <g
         id="use929"
         inkscape:label="Clip">
        <path
           inkscape:connector-curvature="0"
           style="fill:#2ca089;stroke-width:0.04113208"
           d="m -5.7439193,283.47477 -10.9563497,10.95625 0.303419,0.30344 0.772914,-0.77193 0.772904,0.77193 -0.772904,0.77291 1.158933,1.15899 0.772903,-0.77206 0.772915,0.77206 -0.772915,0.7729 0.386017,0.38597 10.9563553,-10.95542 z m -0.6077207,1.2145 0.7729092,0.7729 -0.7729092,0.77303 -0.7720389,-0.77303 z m -1.5449483,1.54593 0.7729094,0.77193 -0.7729094,0.77291 -0.7729089,-0.77291 z m 3.4767859,0.38596 0.772909,0.7729 -0.772909,0.77291 -0.7720391,-0.77291 z m -5.0226039,1.15888 0.7729091,0.7729 -0.7729091,0.7729 -0.7729097,-0.7729 z m 3.4776558,0.38693 0.772909,0.77205 -0.772909,0.77291 -0.7729089,-0.77291 z m -5.0226005,1.15887 0.772035,0.7729 -0.772035,0.77206 -0.772914,-0.77206 z m 3.4767826,0.38609 0.772909,0.7729 -0.772909,0.7729 -0.7729089,-0.7729 z m -5.0225996,1.15887 0.772903,0.77291 -0.772903,0.7729 -0.772915,-0.7729 z m 3.4776512,0.38693 0.7720395,0.77291 -0.7720395,0.77205 -0.7729089,-0.77205 z m -5.0234692,1.15888 0.772903,0.7729 -0.772903,0.77302 -0.772046,-0.77302 z m 3.477653,0.38608 0.7729073,0.77291 -0.7729073,0.7729 -0.772915,-0.7729 z m -1.545818,1.54581 0.772903,0.7729 -0.772903,0.77291 -0.772034,-0.77291 z"
           id="path970" />
        <path
           inkscape:connector-curvature="0"
           style="fill:#1a1a1a;fill-opacity:1;stroke-width:0.1389506"
           d="m -9.5487714,285.30924 a 5.4070438,5.4070438 0 0 1 5.4069053,5.40691 5.4070438,5.4070438 0 0 1 -5.4069053,5.4069 5.4070438,5.4070438 0 0 1 -5.4074216,-5.4069 5.4070438,5.4070438 0 0 1 5.4074216,-5.40691 z"
           id="path972" />
      </g>
    </clipPath>
    <clipPath
       clipPathUnits="userSpaceOnUse"
       id="clipPath944">
      <g
         inkscape:label="Clip"
         id="use946"
         transform="translate(0,-3.9583333e-6)">
        <g
           clip-path="url(#clipPath927)"
           id="g959">
          <g
             id="g957"
             inkscape:label="Clip">
            <path
               inkscape:connector-curvature="0"
               style="fill:#2ca089;stroke-width:0.04113208"
               d="m -5.7439193,283.47477 -10.9563497,10.95625 0.303419,0.30344 0.772914,-0.77193 0.772904,0.77193 -0.772904,0.77291 1.158933,1.15899 0.772903,-0.77206 0.772915,0.77206 -0.772915,0.7729 0.386017,0.38597 10.9563553,-10.95542 z m -0.6077207,1.2145 0.7729092,0.7729 -0.7729092,0.77303 -0.7720389,-0.77303 z m -1.5449483,1.54593 0.7729094,0.77193 -0.7729094,0.77291 -0.7729089,-0.77291 z m 3.4767859,0.38596 0.772909,0.7729 -0.772909,0.77291 -0.7720391,-0.77291 z m -5.0226039,1.15888 0.7729091,0.7729 -0.7729091,0.7729 -0.7729097,-0.7729 z m 3.4776558,0.38693 0.772909,0.77205 -0.772909,0.77291 -0.7729089,-0.77291 z m -5.0226005,1.15887 0.772035,0.7729 -0.772035,0.77206 -0.772914,-0.77206 z m 3.4767826,0.38609 0.772909,0.7729 -0.772909,0.7729 -0.7729089,-0.7729 z m -5.0225996,1.15887 0.772903,0.77291 -0.772903,0.7729 -0.772915,-0.7729 z m 3.4776512,0.38693 0.7720395,0.77291 -0.7720395,0.77205 -0.7729089,-0.77205 z m -5.0234692,1.15888 0.772903,0.7729 -0.772903,0.77302 -0.772046,-0.77302 z m 3.477653,0.38608 0.7729073,0.77291 -0.7729073,0.7729 -0.772915,-0.7729 z m -1.545818,1.54581 0.772903,0.7729 -0.772903,0.77291 -0.772034,-0.77291 z"
               id="path953" />
            <path
               inkscape:connector-curvature="0"
               style="fill:#1a1a1a;fill-opacity:1;stroke-width:0.1389506"
               d="m -9.5487714,285.30924 a 5.4070438,5.4070438 0 0 1 5.4069053,5.40691 5.4070438,5.4070438 0 0 1 -5.4069053,5.4069 5.4070438,5.4070438 0 0 1 -5.4074216,-5.4069 5.4070438,5.4070438 0 0 1 5.4074216,-5.40691 z"
               id="path955" />
          </g>
        </g>
      </g>
    </clipPath>
    <clipPath
       clipPathUnits="userSpaceOnUse"
       id="clipPath978">
      <path
         inkscape:connector-curvature="0"
         style="fill:#1a1a1a;fill-opacity:1;stroke-width:0.1389506"
         d="m -9.5487715,285.30924 a 5.4070438,5.4070438 0 0 1 5.4069054,5.40691 5.4070438,5.4070438 0 0 1 -5.4069054,5.4069 5.4070438,5.4070438 0 0 1 -5.4074215,-5.4069 5.4070438,5.4070438 0 0 1 5.4074215,-5.40691 z"
         id="path980" />
    </clipPath>
  </defs>
  <sodipodi:namedview
     id="base"
     pagecolor="#ffffff"
     bordercolor="#666666"
     borderopacity="1.0"
     inkscape:pageopacity="0.0"
     inkscape:pageshadow="2"
     inkscape:zoom="5.5729167"
     inkscape:cx="24"
     inkscape:cy="24"
     inkscape:document-units="mm"
     inkscape:current-layer="layer1"
     showgrid="false"
     showguides="true"
     inkscape:guide-bbox="true"
     inkscape:window-width="1366"
     inkscape:window-height="714"
     inkscape:window-x="0"
     inkscape:window-y="25"
     inkscape:window-maximized="1"
     scale-x="1.9"
     units="px"
     inkscape:snap-global="false" />
  <metadata
     id="metadata826">
    <rdf:RDF>
      <cc:Work
         rdf:about="">
        <dc:format>image/svg+xml</dc:format>
        <dc:type
           rdf:resource="http://purl.org/dc/dcmitype/StillImage" />
        <dc:title></dc:title>
      </cc:Work>
    </rdf:RDF>
  </metadata>
  <g
     inkscape:label="Capa 1"
     inkscape:groupmode="layer"
     id="layer1"
     transform="translate(0,-284.3)">
    <path
       style="fill:#1a1a1a;fill-opacity:1;stroke-width:0.52516764"
       d="M 23.978516 0.27539062 A 23.770509 23.770509 0 0 0 0.20703125 24.046875 A 23.770509 23.770509 0 0 0 23.978516 47.816406 A 23.770509 23.770509 0 0 0 47.748047 24.046875 A 23.770509 23.770509 0 0 0 23.978516 0.27539062 z M 23.910156 3.8144531 A 20.436071 20.436071 0 0 1 44.345703 24.25 A 20.436071 20.436071 0 0 1 23.910156 44.685547 A 20.436071 20.436071 0 0 1 3.4726562 24.25 A 20.436071 20.436071 0 0 1 23.910156 3.8144531 z M 15.103516 8.6328125 L 9.6386719 14.195312 L 20.576172 14.195312 L 27.34375 14.195312 L 38.361328 14.195312 L 32.873047 8.6328125 L 27.34375 8.6328125 L 20.576172 8.6328125 L 15.103516 8.6328125 z M 9.6386719 14.707031 L 9.6386719 37.785156 L 38.34375 37.785156 L 38.34375 14.707031 L 9.6386719 14.707031 z M 10.910156 15.730469 L 37.072266 15.730469 L 37.072266 36.763672 L 10.910156 36.763672 L 10.910156 15.730469 z M 12.337891 17.324219 L 12.337891 35.154297 L 35.5625 35.154297 L 35.5625 17.324219 L 12.337891 17.324219 z M 26.103516 18.328125 L 26.896484 20.248047 A 4.8815666 4.8815666 0 0 1 27.882812 20.357422 L 29.060547 18.660156 C 29.476514 18.804761 29.853889 19.008925 30.232422 19.228516 L 29.738281 21.224609 A 4.9253959 4.9253959 0 0 1 30.458984 21.884766 L 32.404297 21.210938 A 6.7301733 6.7301733 0 0 1 33.039062 22.355469 L 31.474609 23.666016 A 4.7004075 4.7004075 0 0 1 31.601562 24.138672 C 31.634739 24.303686 31.653632 24.457818 31.669922 24.621094 L 33.623047 25.216797 C 33.617128 25.660362 33.574895 26.092684 33.484375 26.517578 L 31.429688 26.65625 C 31.323709 26.965944 31.185077 27.264103 31.021484 27.544922 L 32.257812 29.191406 C 31.994956 29.541126 31.725056 29.877072 31.398438 30.171875 L 29.652344 29.066406 C 29.386934 29.256479 29.094728 29.418939 28.789062 29.552734 L 28.808594 31.630859 A 6.9327608 6.9327608 0 0 1 27.556641 31.884766 L 26.759766 29.964844 C 26.426774 29.955773 26.094941 29.92224 25.777344 29.851562 L 24.599609 31.552734 C 24.184644 31.408583 23.805309 31.204344 23.427734 30.984375 L 23.921875 28.988281 C 23.661658 28.792842 23.415824 28.573858 23.197266 28.330078 L 21.255859 29.001953 A 6.7301733 6.7301733 0 0 1 20.626953 27.880859 L 20.255859 28.662109 A 2.8730416 2.8730416 0 0 1 20.591797 29.123047 L 21.783203 28.962891 A 3.9257892 3.9257892 0 0 1 22.013672 29.693359 L 20.966797 30.259766 A 2.7418032 2.7418032 0 0 1 20.982422 30.544922 C 20.982422 30.642812 20.97617 30.732503 20.966797 30.828125 L 22.013672 31.394531 C 21.958574 31.64776 21.884336 31.890606 21.783203 32.123047 L 20.591797 31.964844 C 20.495207 32.129404 20.38199 32.284427 20.255859 32.425781 L 20.771484 33.509766 C 20.580582 33.680071 20.38702 33.842641 20.166016 33.972656 L 19.298828 33.136719 C 19.124991 33.215711 18.938407 33.271303 18.748047 33.3125 L 18.517578 34.503906 A 4.0439606 4.0439606 0 0 1 17.771484 34.503906 L 17.539062 33.3125 C 17.349287 33.271303 17.163518 33.213821 16.990234 33.136719 L 16.119141 33.972656 C 15.898671 33.842792 15.705939 33.679466 15.515625 33.509766 L 16.029297 32.425781 C 15.903151 32.285032 15.789953 32.129253 15.693359 31.964844 L 14.503906 32.123047 A 3.9257892 3.9257892 0 0 1 14.271484 31.394531 L 15.320312 30.828125 C 15.310751 30.732125 15.302734 30.643945 15.302734 30.544922 C 15.302734 30.447032 15.31026 30.35501 15.320312 30.259766 L 14.271484 29.693359 A 3.9246531 3.9246531 0 0 1 14.503906 28.962891 L 15.693359 29.123047 A 2.8730416 2.8730416 0 0 1 16.029297 28.662109 L 15.515625 27.576172 C 15.705993 27.405602 15.898677 27.24525 16.119141 27.115234 L 16.990234 27.951172 A 2.8491799 2.8491799 0 0 1 17.539062 27.771484 L 17.771484 26.583984 A 4.0439606 4.0439606 0 0 1 18.142578 26.564453 C 18.267586 26.564453 18.394846 26.581074 18.517578 26.583984 L 18.748047 27.773438 A 2.8474755 2.8474755 0 0 1 19.298828 27.951172 L 20.166016 27.117188 C 20.387018 27.246975 20.580611 27.408424 20.771484 27.578125 L 20.650391 27.830078 L 22.183594 26.548828 C 22.134951 26.393301 22.090354 26.239762 22.056641 26.074219 C 22.023094 25.908071 22.006524 25.755072 21.990234 25.591797 L 20.035156 24.998047 A 6.728226 6.728226 0 0 1 20.175781 23.693359 L 22.228516 23.556641 A 4.9253959 4.9253959 0 0 1 22.636719 22.667969 L 21.402344 21.021484 C 21.664383 20.67218 21.932154 20.335819 22.257812 20.041016 L 24.007812 21.144531 A 4.8844893 4.8844893 0 0 1 24.871094 20.660156 L 24.851562 18.582031 A 6.9327608 6.9327608 0 0 1 25.470703 18.425781 C 25.68069 18.384584 25.895449 18.358361 26.103516 18.328125 z M 26.828125 22.1875 A 2.92194 2.92194 0 0 0 26.248047 22.244141 A 2.922795 2.922795 0 0 0 27.412109 27.972656 A 2.92194 2.92194 0 0 0 26.929688 22.189453 A 2.92194 2.92194 0 0 0 26.828125 22.1875 z M 18.142578 28.837891 A 1.705078 1.705078 0 1 0 18.142578 32.248047 A 1.705078 1.705078 0 0 0 18.142578 28.837891 z "
       transform="matrix(0.26458333,0,0,0.26458333,0,284.3)"
       id="path885" />
  </g>
</svg>
