<svg xmlns="http://www.w3.org/2000/svg" width="48" height="48" viewBox="0 0 12.7 12.7">
  <path fill="#e6e6e6" d="M6.34431561.07286377a6.28928043 6.28928043 0 0 0-6.2895386 6.2895385 6.28928043 6.28928043 0 0 0 6.2895386 6.28902166 6.28928043 6.28928043 0 0 0 6.28902167-6.28902167A6.28928043 6.28928043 0 0 0 6.3443156.07286376zm-.01808691.93637693a5.40704372 5.40704372 0 0 1 5.40690507 5.40690505 5.40704372 5.40704372 0 0 1-5.40690507 5.40690508A5.40704372 5.40704372 0 0 1 .91880694 6.41614575 5.40704372 5.40704372 0 0 1 6.3262287 1.0092407zm-.66042487.51624756c-.23183214-.01708343-.87834283.13200248-1.44383943.7529256-1.73698999.72264426-2.77657461 2.31988858-2.77657461 4.05711653 0 1.9239071 1.07369304 3.04651961 1.85156668 3.55585549.00178964.00117184.00338085.0024519.00516758.00361738.11757607.0839441.24572171.15570676.38240546.21549069.14071176.0653616.25669954.10426594.32556159.11213782.02629508.00799994-.34598213-.58049344-.51056328-1.28829354.32046439.32598016.7025505.58369544 1.13119719.62838541.04335991.00596345-.15194333-.2364597-.36741947-.55552154l3.46800536 1.15341796c-.31587386.32308535-.73678123.63420703-1.30689692.91157212 0 0 1.28584297-.10497873 1.92339672-.8226888-.25926388.59620996-.97100018.91829016-.97100018.91829016.5235305-.0766998 1.89898044-.48258809 2.77502458-1.57819802.99153793-1.24011 1.28969477-2.40343555.99115376-3.96306564-.30226027-1.57910925-1.66359574-3.02404194-2.86959222-3.31400956-.4665083-.2649485-.9500018-.40107533-1.29242739-.44545085-.56828822-.0735-1.04307268-.05919647-1.44694009.01860351.12700926-.12176.2733683-.18190104.2733683-.18190104-.1904365.0169-.42802466.14122157-.6320028.27285156-.0206203.00656016-.0386707.0153266-.05891106.02222088-.06997515.01505815-.13581274.03616743-.20412207.05374348.04995227-.06354339.10352537-.12943202.15761308-.1808675.2398432-.22807.59582922-.3462321.59582922-.3462321zm.16174747 1.22008052c-.12096353.05950241-.24332777.13935578-.36483581.23409433-.06075389.04736915-.12138633.09866445-.18138404.15244551-.2999904.2689053-.58672068.6079191-.8232058.9172567.01273943.02467821.01771333.05388715.02015385.08371575.00086069.0116467.00102605.0235466.00051673.03565657-.0006633.01919579-.00354991.03859424-.0072345.05839434-.0026535.01364615-.0043807.02717006-.00826823.04082441-.00705855.02532645-.0162896.05020654-.02687188.07441406-.00095964.00219049-.00160099.00454263-.00258392.00671804-.01764956.03908054-.0376637.07577137-.06097799.10645351-.04422616.05809986-.15925191.14125337-.3085084.14159336-.12097966.1800299-.19430338.29972317-.19430338.29972317-.02222764-.06343782-.09413187-.3516458-.07389733-.64905572.00190156-.02795428.00671142-.05578501.01033542-.08371601.00372772-.02824666.00764752-.0563679.0134358-.08423249.0048149-.0235487.0111313-.04673282.01756993-.06976321.00958982-.03378253.02163207-.06662473.0351401-.09870202.0093054-.022293.01752944-.04496197.0289388-.06614583.00330994-.0061124.00684292-.01207956.01033516-.01808666.02184585-.03774254.04625393-.07417805.07596452-.10697024.55264102-.60999 1.92598276-1.01805765 1.83968097-.97461757zM2.96984443 4.11292723l.15037858.02790534.16898196.0268716c.00967529.06244406.01951064.12459256.03410638.190686.03383703.15360016.04010157.3986419.00671804.557072-.0066601.03180001-.09339607.11385339-.11575521.33486328-.00077708.00762212.00055377.01278017 0 .02015385-.23240259-.34306669-.53022976-.78370694-.58446058-.85627844.10700276-.12813665.2211956-.2267511.34003083-.30127363zm1.22111424.09973548c-.05280236-.00193649-.09719257.02712138-.1235067.06821302a.04511681.04511681 0 0 1 .02738834-.00981869.04511681.04511681 0 0 1 .04547553.04547526.04511681.04511681 0 0 1-.04547553.04495853.04511681.04511681 0 0 1-.04444153-.04185788c-.00286623.00995336-.0073541.01953842-.0077515.030489-.00280009.07870005.0592156.1434711.1384927.1467612.07910804.00299984.14594946-.05826257.14882813-.13694251.00270007-.07860004-.05988923-.1439979-.13900944-.14727793zm-.12712409.0713134a.04511681.04511681 0 0 0-.01395253.0325562.04511681.04511681 0 0 0 .00051673.00206718c.00338005-.0122002.00707178-.02402337.0134358-.03462337zm-1.52135414.2444295c.33424997.47679265 2.02589154 3.02100426 2.12958571 3.02100426.00066067 0 .0010705-.00036672.0015502-.00051674.00772-.0030001.01567841-.00678497.02377122-.00878496v.00361739c.7333316-.26067676 2.69801178-.93670833 3.85919605-1.33583573-.01856634.56090476-.19965114 1.05566315-.47335625 1.31103104.24317828-.05669994.50716338-.3538818.7493082-.82062187-.02906766.19581998-.0541356.4357833-.09043353.70383294-.08109294.59903068-.03042338 1.67514506-.91829042 2.6577189L2.18591307 8.18554678c-.16519212-.51125013-.23839685-1.10930477-.19637047-1.8097087.09742263.1867101.39752066.340165.58446045.34416523-.2249466-.21199607-.69333368-1.25591939-.03152261-2.1915977zm2.57451989.03565683l3.25561506.54208574c.10759493.2848901.16574558.5782032.17983411.86299647-1.38326652.52375196-3.12832481 1.17238514-3.8560954 1.36632472-.00139011.00037015-.00219736.00099351-.00361738.00103373-.05677323.01514951-.67932987-.89004695-1.25935473-1.74459633.26434732-.33663572.50487896-.41031107.50487896-.41031107.41026133-.16806994.58143457-.34751115 1.02060956-.57154127.04421585-.0225634.09854883-.03651117.15812982-.04599199z"/>
</svg>
