<svg xmlns="http://www.w3.org/2000/svg" width="48" height="48" viewBox="0 0 12.7 12.7">
  <path fill="#e6e6e6" d="M6.34431561.07286377a6.28928043 6.28928043 0 0 0-6.2895386 6.2895385 6.28928043 6.28928043 0 0 0 6.2895386 6.28902166 6.28928043 6.28928043 0 0 0 6.28902167-6.28902167A6.28928043 6.28928043 0 0 0 6.3443156.07286376zm-.01808691.93637693a5.40704372 5.40704372 0 0 1 5.40690507 5.40690505 5.40704372 5.40704372 0 0 1-5.40690507 5.40690508A5.40704372 5.40704372 0 0 1 .91880694 6.41614575 5.40704372 5.40704372 0 0 1 6.3262287 1.0092407zM4.35683998 2.20761716c-.32199447 0-.58084322.25936985-.58084322.58135995 0 .32199977.25884875.5813597.58084322.5813597h1.34203677v2.09392914h1.20664471V3.3703368h1.23299986c.3219942 0 .58135969-.25935993.58135969-.5813597 0-.3219901-.25936548-.58135995-.5813597-.58135995H4.35683999zm1.34203677 3.25664879h-1.731677c-.2328058 0-.4542557.18397458-.49661047.41289472l-.72295331 3.90725496c-.0423582.22892994.11135915.41341146.34416497.41341146h2.11046533v.01446926h2.0892783v-.01446926h2.1161499c.2328053 0 .38600195-.18448152.34364825-.41341146L9.0283894 5.87716067c-.04235106-.22892014-.26380493-.41289472-.49661048-.41289472H6.9256753l-.00310065 1.70480538 1.17150487.00103346-1.8324462 1.5032675-1.75596521-1.49758293 1.19372563.00413412-.000517-1.71565753z"/>
</svg>
