<svg xmlns="http://www.w3.org/2000/svg" width="48" height="48" viewBox="0 0 12.7 12.7">
  <path fill="#e6e6e6" d="M6.34431561.07286377a6.28928043 6.28928043 0 0 0-6.2895386 6.2895385 6.28928043 6.28928043 0 0 0 6.2895386 6.28902166 6.28928043 6.28928043 0 0 0 6.28902167-6.28902167A6.28928043 6.28928043 0 0 0 6.3443156.07286376zm-.01808691.93637693a5.40704372 5.40704372 0 0 1 5.40690507 5.40690505 5.40704372 5.40704372 0 0 1-5.40690507 5.40690508A5.40704372 5.40704372 0 0 1 .91880694 6.41614575 5.40704372 5.40704372 0 0 1 6.3262287 1.0092407zm3.52588296 1.8732706c-.01749187.00065007-.03504062.00401848-.0521933.00981868l-1.2965615.43201483c-.06277372.02096003-.11035665.07264268-.1255739.13694252-.0152019.0643501.00436669.13251735.05115984.17931738l.1886188.1886188-3.08146551 3.0814658c-.0130609.01039997-.02529417.0219231-.0366903.0346231-.00148987.00100013-.0027141.00261726-.00413412.00361739-.00323003.00260006-.00671856.0088855-.00981842.0118856l-.20928965.20877266.05942807-1.24746913.47490644-.47438944c.28744174.10271998.61420691.03383783.8361246-.18810234.15149009-.15148005.2346108-.35267027.2346108-.56689043 0-.21424-.08312124-.41541038-.2346108-.56689042-.15148957-.15149988-.35317404-.2351278-.56740742-.2351278-.2142334 0-.41540086.08364776-.56689043.2351278-.2219325.22194996-.29132714.54870455-.1886188.8361246l-.56792416.56792415c-.06086554.06089994-.0964721.14207622-.1002522.2273763l-.10180241 2.13527002-.34984954.34984954c-.42209587-.21574019-.93977856-.14026806-1.28415943.2041218-.20919201.20922007-.3250447.48755485-.3250447.78341484 0 .29584994.11585321.57368784.3250447.78289784.20919202.20912005.48705373.32504486.7828981.32504486.29585973 0 .57422283-.11585496.78341458-.32504486.34438034-.34437002.41933574-.86209927.20360507-1.28415942l.4108278-.41082753c.02245704-.01740006.04301437-.03744463.06046126-.05994453l.74310715-.74310715 2.13423656-.1023194c.08602636-.00369994.16740796-.03883555.22841003-.09973549l.62115064-.62115064.13487532.13487532c.07456832.07470008.19518207.07470008.26975117 0l.7570597-.75654296c.03581003-.03572986.0558104-.08417533.0558104-.13487532 0-.05056002-.02000037-.09959234-.0558104-.13539231l-.7570597-.75602623c-.0358259-.03610002-.08369987-.05632741-.13435885-.05632741-.0506603 0-.09958229.02052743-.13539232.0563274l-.75602596.75602624c-.07458419.0745699-.07458419.19556782 0 .27026763l.13487532.13539232-.526066.526066-1.24798587.0599448 2.4763346-2.47685133.18861908.18913554c.04680956.04710006.11493818.0664599.17931712.05115983.06440832-.01519.11652832-.06287373.13745924-.1255739l.43149837-1.2965615c.02287006-.06864006.00567373-.14413706-.04547526-.1953371-.02558203-.02549976-.05758338-.04164278-.09146725-.05064284v.00155045c-.01694365-.00440002-.03418443-.00633439-.05167656-.00568457z"/>
</svg>
