<?xml version="1.0" encoding="UTF-8" standalone="no"?>
<!-- Created with Inkscape (http://www.inkscape.org/) -->

<svg
   xmlns:dc="http://purl.org/dc/elements/1.1/"
   xmlns:cc="http://creativecommons.org/ns#"
   xmlns:rdf="http://www.w3.org/1999/02/22-rdf-syntax-ns#"
   xmlns:svg="http://www.w3.org/2000/svg"
   xmlns="http://www.w3.org/2000/svg"
   xmlns:sodipodi="http://sodipodi.sourceforge.net/DTD/sodipodi-0.dtd"
   xmlns:inkscape="http://www.inkscape.org/namespaces/inkscape"
   width="48"
   height="48"
   viewBox="0 0 12.7 12.7"
   version="1.1"
   id="svg829"
   inkscape:version="0.92.3 (2405546, 2018-03-11)"
   sodipodi:docname="ubiquity.svg">
  <defs
     id="defs823" />
  <sodipodi:namedview
     id="base"
     pagecolor="#ffffff"
     bordercolor="#666666"
     borderopacity="1.0"
     inkscape:pageopacity="0.0"
     inkscape:pageshadow="2"
     inkscape:zoom="1.9813721"
     inkscape:cx="-80.094531"
     inkscape:cy="21.981197"
     inkscape:document-units="mm"
     inkscape:current-layer="layer1"
     showgrid="false"
     showguides="true"
     inkscape:guide-bbox="true"
     inkscape:window-width="1366"
     inkscape:window-height="719"
     inkscape:window-x="0"
     inkscape:window-y="25"
     inkscape:window-maximized="1"
     scale-x="1.9"
     units="px"
     inkscape:snap-global="false" />
  <metadata
     id="metadata826">
    <rdf:RDF>
      <cc:Work
         rdf:about="">
        <dc:format>image/svg+xml</dc:format>
        <dc:type
           rdf:resource="http://purl.org/dc/dcmitype/StillImage" />
        <dc:title />
      </cc:Work>
    </rdf:RDF>
  </metadata>
  <g
     inkscape:label="Capa 1"
     inkscape:groupmode="layer"
     id="layer1"
     transform="translate(0,-284.3)">
    <path
       style="fill:#e6e6e6;fill-opacity:1;stroke-width:0.52516764"
       d="M 23.978516 0.27539062 A 23.770509 23.770509 0 0 0 0.20703125 24.046875 A 23.770509 23.770509 0 0 0 23.978516 47.816406 A 23.770509 23.770509 0 0 0 47.748047 24.046875 A 23.770509 23.770509 0 0 0 23.978516 0.27539062 z M 23.910156 3.8144531 A 20.436071 20.436071 0 0 1 44.345703 24.25 A 20.436071 20.436071 0 0 1 23.910156 44.685547 A 20.436071 20.436071 0 0 1 3.4726562 24.25 A 20.436071 20.436071 0 0 1 23.910156 3.8144531 z M 37.236328 10.894531 C 37.170217 10.896988 37.103891 10.909719 37.039062 10.931641 L 32.138672 12.564453 C 31.901417 12.643672 31.721576 12.839008 31.664062 13.082031 C 31.606606 13.325244 31.680566 13.582884 31.857422 13.759766 L 32.570312 14.472656 L 20.923828 26.119141 C 20.874464 26.158448 20.828228 26.202 20.785156 26.25 C 20.779525 26.25378 20.774898 26.259892 20.769531 26.263672 C 20.757323 26.273499 20.744138 26.297255 20.732422 26.308594 L 19.941406 27.097656 L 20.166016 22.382812 L 21.960938 20.589844 C 23.047332 20.978077 24.28235 20.717735 25.121094 19.878906 C 25.693655 19.306383 26.007812 18.545979 26.007812 17.736328 C 26.007812 16.926602 25.693653 16.166273 25.121094 15.59375 C 24.548535 15.021152 23.786263 14.705078 22.976562 14.705078 C 22.166861 14.705078 21.406543 15.021227 20.833984 15.59375 C 19.995184 16.432616 19.732905 17.667594 20.121094 18.753906 L 17.974609 20.900391 C 17.744566 21.130564 17.60999 21.437372 17.595703 21.759766 L 17.210938 29.830078 L 15.888672 31.152344 C 14.293349 30.336948 12.336753 30.622197 11.035156 31.923828 C 10.244509 32.714581 9.8066406 33.766555 9.8066406 34.884766 C 9.8066406 36.002939 10.244511 37.053035 11.035156 37.84375 C 11.825803 38.634125 12.875989 39.072266 13.994141 39.072266 C 15.112351 39.072266 16.164432 38.634389 16.955078 37.84375 C 18.256673 36.542194 18.539969 34.585422 17.724609 32.990234 L 19.277344 31.4375 C 19.362221 31.371736 19.439918 31.295977 19.505859 31.210938 L 22.314453 28.402344 L 30.380859 28.015625 C 30.705998 28.001641 31.013582 27.868845 31.244141 27.638672 L 33.591797 25.291016 L 34.101562 25.800781 C 34.383395 26.083112 34.839258 26.083112 35.121094 25.800781 L 37.982422 22.941406 C 38.117767 22.806364 38.193359 22.623263 38.193359 22.431641 C 38.193359 22.240548 38.117767 22.055229 37.982422 21.919922 L 35.121094 19.0625 C 34.985689 18.926059 34.804748 18.849609 34.613281 18.849609 C 34.421809 18.849609 34.236907 18.927193 34.101562 19.0625 L 31.244141 21.919922 C 30.962248 22.201761 30.962248 22.659076 31.244141 22.941406 L 31.753906 23.453125 L 29.765625 25.441406 L 25.048828 25.667969 L 34.408203 16.306641 L 35.121094 17.021484 C 35.298012 17.1995 35.555506 17.272671 35.798828 17.214844 C 36.042261 17.157433 36.23925 16.977211 36.318359 16.740234 L 37.949219 11.839844 C 38.035657 11.580417 37.970663 11.295074 37.777344 11.101562 C 37.680656 11.005185 37.559706 10.944172 37.431641 10.910156 L 37.431641 10.916016 C 37.367602 10.899386 37.30244 10.892075 37.236328 10.894531 z "
       transform="matrix(0.26458333,0,0,0.26458333,0,284.3)"
       id="path832" />
  </g>
</svg>
