<svg xmlns="http://www.w3.org/2000/svg" width="48" height="48" viewBox="0 0 12.7 12.7">
  <path fill="#e6e6e6" d="M6.3443156.07286A6.2892804 6.2892804 0 0 0 .05477702 6.3624a6.2892804 6.2892804 0 0 0 6.28953858 6.28902A6.2892804 6.2892804 0 0 0 12.633337 6.3624 6.2892804 6.2892804 0 0 0 6.3443156.07286zm-.018087.93638a5.4070437 5.4070437 0 0 1 5.4069054 5.40691 5.4070437 5.4070437 0 0 1-5.4069054 5.4069 5.4070437 5.4070437 0 0 1-5.40742176-5.4069A5.4070437 5.4070437 0 0 1 6.3262286 1.00924zm.047542.43202c-.929604 0-1.6867187.75717-1.6867187 1.68671v.56224H3.615283c-.3406812 0-.6149493.27424-.6149493.61495v5.51698c0 .34069.2742401.61495.6149493.61495h5.516976c.3406823 0 .6149496-.27424.6149496-.61495V4.30516c0-.34069-.2742393-.61495-.6149496-.61495H8.0604899v-.56224c0-.9296-.757115-1.68671-1.6867193-1.68671zm0 .56224c.6277946 0 1.1244792.49665 1.1244792 1.12447v.56224H5.249292v-.56224c0-.62779.4966562-1.12447 1.1244786-1.12447zM4.9506018 4.25245c.1612429 0 .2986897.12586.2986897.28112 0 .15525-.1374468.28112-.2986897.28112-.1612442 0-.2811198-.12587-.2811198-.28112 0-.15526.1198756-.28112.2811198-.28112zm2.8111979 0c.1612429 0 .2986897.12586.2986897.28112 0 .15525-.1374468.28112-.2986897.28112-.1612443 0-.2811198-.12587-.2811198-.28112 0-.15526.1198755-.28112.2811198-.28112zm-1.3704591 1.8986a1.4603814 1.4246379 0 0 1 1.4603759 1.42471 1.4603814 1.4246379 0 0 1-1.4603759 1.42472 1.4603814 1.4246379 0 0 1-1.4603759-1.42472 1.4603814 1.4246379 0 0 1 1.4603759-1.42471z"/>
  <path fill="#d45500" d="M5.7479694 6.72879c-.11961 0-.2165242.0968-.2165242.21652 0 .11974.09691.21653.2165242.21653.1196101 0 .2165244-.0969.2165244-.21653 0-.11973-.09691-.21652-.2165244-.21652zm.649573 0c-.1196102 0-.2165245.0968-.2165245.21652 0 .11974.09691.21653.2165245.21653.1196099 0 .2160074-.0969.2160074-.21653 0-.11973-.096401-.21652-.2160074-.21652zm.6490557 0c-.1196099 0-.2165241.0968-.2165241.21652 0 .11974.09691.21653.2165241.21653.1196102 0 .2165244-.0969.2165244-.21653 0-.11973-.09691-.21652-.2165244-.21652zm-1.2986287.64957c-.11961 0-.2165242.0968-.2165242.21653s.09691.216.2165242.216c.1196101 0 .2165244-.0963.2165244-.216 0-.11975-.09691-.21653-.2165244-.21653zm.649573 0c-.1196102 0-.2165245.0968-.2165245.21653s.09691.216.2165245.216c.1196099 0 .2160074-.0963.2160074-.216 0-.11975-.096401-.21653-.2160074-.21653zm.6490557 0c-.1196099 0-.2165241.0968-.2165241.21653s.09691.216.2165241.216c.1196102 0 .2165244-.0963.2165244-.216 0-.11975-.09691-.21653-.2165244-.21653zm-1.2986287.64906c-.11961 0-.2165242.0968-.2165242.21652 0 .11974.09691.21653.2165242.21653.1196101 0 .2165244-.097.2165244-.21653 0-.11973-.09691-.21652-.2165244-.21652zm.649573 0c-.1196102 0-.2165245.0968-.2165245.21652 0 .11974.09691.21653.2165245.21653.1196099 0 .2160074-.097.2160074-.21653 0-.11973-.096401-.21652-.2160074-.21652zm.6490557 0c-.1196099 0-.2165241.0968-.2165241.21652 0 .11974.09691.21653.2165241.21653.1196102 0 .2165244-.097.2165244-.21653 0-.11973-.09691-.21652-.2165244-.21652z" opacity=".75"/>
</svg>
