<?xml version="1.0" encoding="UTF-8" standalone="no"?>
<!-- Created with Inkscape (http://www.inkscape.org/) -->

<svg
   xmlns:dc="http://purl.org/dc/elements/1.1/"
   xmlns:cc="http://creativecommons.org/ns#"
   xmlns:rdf="http://www.w3.org/1999/02/22-rdf-syntax-ns#"
   xmlns:svg="http://www.w3.org/2000/svg"
   xmlns="http://www.w3.org/2000/svg"
   xmlns:sodipodi="http://sodipodi.sourceforge.net/DTD/sodipodi-0.dtd"
   xmlns:inkscape="http://www.inkscape.org/namespaces/inkscape"
   width="48"
   height="48"
   viewBox="0 0 12.7 12.7"
   version="1.1"
   id="svg829"
   inkscape:version="0.92.3 (2405546, 2018-03-11)"
   sodipodi:docname="ubuntusoftware.svg">
  <defs
     id="defs823" />
  <sodipodi:namedview
     id="base"
     pagecolor="#ffffff"
     bordercolor="#666666"
     borderopacity="1.0"
     inkscape:pageopacity="0.0"
     inkscape:pageshadow="2"
     inkscape:zoom="5.59375"
     inkscape:cx="21.586592"
     inkscape:cy="23.284916"
     inkscape:document-units="mm"
     inkscape:current-layer="layer1"
     showgrid="false"
     showguides="true"
     inkscape:guide-bbox="true"
     inkscape:window-width="1366"
     inkscape:window-height="719"
     inkscape:window-x="0"
     inkscape:window-y="25"
     inkscape:window-maximized="1"
     scale-x="1.9"
     units="px"
     inkscape:snap-global="false" />
  <metadata
     id="metadata826">
    <rdf:RDF>
      <cc:Work
         rdf:about="">
        <dc:format>image/svg+xml</dc:format>
        <dc:type
           rdf:resource="http://purl.org/dc/dcmitype/StillImage" />
        <dc:title></dc:title>
      </cc:Work>
    </rdf:RDF>
  </metadata>
  <g
     inkscape:label="Capa 1"
     inkscape:groupmode="layer"
     id="layer1"
     transform="translate(0,-284.3)">
    <path
       inkscape:connector-curvature="0"
       style="fill:#e6e6e6;fill-opacity:1;stroke-width:0.1389506"
       d="m 6.3443156,284.37286 a 6.2892804,6.2892804 0 0 0 -6.28953858,6.28954 6.2892804,6.2892804 0 0 0 6.28953858,6.28902 6.2892804,6.2892804 0 0 0 6.2890214,-6.28902 6.2892804,6.2892804 0 0 0 -6.2890214,-6.28954 z m -0.018087,0.93638 a 5.4070437,5.4070437 0 0 1 5.4069054,5.40691 5.4070437,5.4070437 0 0 1 -5.4069054,5.4069 5.4070437,5.4070437 0 0 1 -5.40742176,-5.4069 5.4070437,5.4070437 0 0 1 5.40742176,-5.40691 z m 0.047542,0.43202 c -0.929604,0 -1.6867187,0.75717 -1.6867187,1.68671 v 0.56224 H 3.615283 c -0.3406812,0 -0.6149493,0.27424 -0.6149493,0.61495 v 5.51698 c 0,0.34069 0.2742401,0.61495 0.6149493,0.61495 h 5.516976 c 0.3406823,0 0.6149496,-0.27424 0.6149496,-0.61495 v -5.51698 c 0,-0.34069 -0.2742393,-0.61495 -0.6149496,-0.61495 H 8.0604899 v -0.56224 c 0,-0.9296 -0.757115,-1.68671 -1.6867193,-1.68671 z m 0,0.56224 c 0.6277946,0 1.1244792,0.49665 1.1244792,1.12447 v 0.56224 H 5.249292 v -0.56224 c 0,-0.62779 0.4966562,-1.12447 1.1244786,-1.12447 z m -1.4231688,2.24895 c 0.1612429,0 0.2986897,0.12586 0.2986897,0.28112 0,0.15525 -0.1374468,0.28112 -0.2986897,0.28112 -0.1612442,0 -0.2811198,-0.12587 -0.2811198,-0.28112 0,-0.15526 0.1198756,-0.28112 0.2811198,-0.28112 z m 2.8111979,0 c 0.1612429,0 0.2986897,0.12586 0.2986897,0.28112 0,0.15525 -0.1374468,0.28112 -0.2986897,0.28112 -0.1612443,0 -0.2811198,-0.12587 -0.2811198,-0.28112 0,-0.15526 0.1198755,-0.28112 0.2811198,-0.28112 z m -1.3704591,1.8986 a 1.4603814,1.4246379 0 0 1 1.4603759,1.42471 1.4603814,1.4246379 0 0 1 -1.4603759,1.42472 1.4603814,1.4246379 0 0 1 -1.4603759,-1.42472 1.4603814,1.4246379 0 0 1 1.4603759,-1.42471 z"
       id="path846" />
    <path
       style="opacity:0.75;fill:#d45500;fill-opacity:1;stroke-width:0.1389506"
       d="m 5.7479694,291.02879 c -0.11961,0 -0.2165242,0.0968 -0.2165242,0.21652 0,0.11974 0.09691,0.21653 0.2165242,0.21653 0.1196101,0 0.2165244,-0.0969 0.2165244,-0.21653 0,-0.11973 -0.09691,-0.21652 -0.2165244,-0.21652 z m 0.649573,0 c -0.1196102,0 -0.2165245,0.0968 -0.2165245,0.21652 0,0.11974 0.09691,0.21653 0.2165245,0.21653 0.1196099,0 0.2160074,-0.0969 0.2160074,-0.21653 0,-0.11973 -0.096401,-0.21652 -0.2160074,-0.21652 z m 0.6490557,0 c -0.1196099,0 -0.2165241,0.0968 -0.2165241,0.21652 0,0.11974 0.09691,0.21653 0.2165241,0.21653 0.1196102,0 0.2165244,-0.0969 0.2165244,-0.21653 0,-0.11973 -0.09691,-0.21652 -0.2165244,-0.21652 z m -1.2986287,0.64957 c -0.11961,0 -0.2165242,0.0968 -0.2165242,0.21653 0,0.11973 0.09691,0.216 0.2165242,0.216 0.1196101,0 0.2165244,-0.0963 0.2165244,-0.216 0,-0.11975 -0.09691,-0.21653 -0.2165244,-0.21653 z m 0.649573,0 c -0.1196102,0 -0.2165245,0.0968 -0.2165245,0.21653 0,0.11973 0.09691,0.216 0.2165245,0.216 0.1196099,0 0.2160074,-0.0963 0.2160074,-0.216 0,-0.11975 -0.096401,-0.21653 -0.2160074,-0.21653 z m 0.6490557,0 c -0.1196099,0 -0.2165241,0.0968 -0.2165241,0.21653 0,0.11973 0.09691,0.216 0.2165241,0.216 0.1196102,0 0.2165244,-0.0963 0.2165244,-0.216 0,-0.11975 -0.09691,-0.21653 -0.2165244,-0.21653 z m -1.2986287,0.64906 c -0.11961,0 -0.2165242,0.0968 -0.2165242,0.21652 0,0.11974 0.09691,0.21653 0.2165242,0.21653 0.1196101,0 0.2165244,-0.097 0.2165244,-0.21653 0,-0.11973 -0.09691,-0.21652 -0.2165244,-0.21652 z m 0.649573,0 c -0.1196102,0 -0.2165245,0.0968 -0.2165245,0.21652 0,0.11974 0.09691,0.21653 0.2165245,0.21653 0.1196099,0 0.2160074,-0.097 0.2160074,-0.21653 0,-0.11973 -0.096401,-0.21652 -0.2160074,-0.21652 z m 0.6490557,0 c -0.1196099,0 -0.2165241,0.0968 -0.2165241,0.21652 0,0.11974 0.09691,0.21653 0.2165241,0.21653 0.1196102,0 0.2165244,-0.097 0.2165244,-0.21653 0,-0.11973 -0.09691,-0.21652 -0.2165244,-0.21652 z"
       id="path832"
       inkscape:connector-curvature="0" />
  </g>
</svg>
