<svg xmlns="http://www.w3.org/2000/svg" width="48" height="48" viewBox="0 0 12.7 12.7">
  <path fill="#e6e6e6" d="M6.34431561.07286377a6.28928043 6.28928043 0 0 0-6.2895386 6.2895385 6.28928043 6.28928043 0 0 0 6.2895386 6.28902166 6.28928043 6.28928043 0 0 0 6.28902167-6.28902167A6.28928043 6.28928043 0 0 0 6.3443156.07286376zm-.01808691.93637693a5.40704372 5.40704372 0 0 1 5.40690507 5.40690505 5.40704372 5.40704372 0 0 1-5.40690507 5.40690508A5.40704372 5.40704372 0 0 1 .91880694 6.41614575 5.40704372 5.40704372 0 0 1 6.3262287 1.0092407zM3.49797762 3.72793784a.3387427.5275918 45 0 0-.5689576.8164875l1.7869712 1.7869712-1.7869712 1.78748767a.52759178.33874268 45 1 0 .7462078.7456908l2.20348304-2.20348304a.52759178.33874268 45 0 0 .0537435-.08629967.52759178.33874268 45 0 0 .00051672-.00103346.18361118.32966554 0 0 0 .06304518-.24701341.18361118.32966554 0 0 0-.07493079-.2656168.33874268.52759178 45 0 0-.0423746-.05891106L3.67522781 3.79821779a.3387427.5275918 45 0 0-.1772502-.07027995zm2.96312666 3.95273023a.33875846.52761633 0 1 0 0 1.05523267h3.11660563a.33875846.52761633 0 0 0 0-1.05523267H6.46110428z"/>
</svg>
