<svg xmlns="http://www.w3.org/2000/svg" width="48" height="48" viewBox="0 0 12.7 12.7">
  <defs>
    <clipPath id="a"/>
    <clipPath id="b">
      <path fill="#1a1a1a" stroke-width=".1389506" d="M-9.5487715 285.30924a5.4070438 5.4070438 0 0 1 5.4069054 5.40691 5.4070438 5.4070438 0 0 1-5.4069054 5.4069 5.4070438 5.4070438 0 0 1-5.4074215-5.4069 5.4070438 5.4070438 0 0 1 5.4074215-5.40691z"/>
    </clipPath>
  </defs>
  <g fill="#e6e6e6">
    <path d="M6.34431561.07286377a6.28928043 6.28928043 0 0 0-6.2895386 6.2895385 6.28928043 6.28928043 0 0 0 6.2895386 6.28902166 6.28928043 6.28928043 0 0 0 6.28902167-6.28902167A6.28928043 6.28928043 0 0 0 6.3443156.07286376zm-.01808691.93637693a5.40704372 5.40704372 0 0 1 5.40690507 5.40690505 5.40704372 5.40704372 0 0 1-5.40690507 5.40690508A5.40704372 5.40704372 0 0 1 .91880694 6.41614575 5.40704372 5.40704372 0 0 1 6.3262287 1.0092407z"/>
    <path d="M-5.7439193 283.47477l-10.9563497 10.95625.303419.30344.772914-.77193.772904.77193-.772904.77291 1.158933 1.15899.772903-.77206.772915.77206-.772915.7729.386017.38597 10.9563553-10.95542zm-.6077207 1.2145l.7729092.7729-.7729092.77303-.7720389-.77303zm-1.5449483 1.54593l.7729094.77193-.7729094.77291-.7729089-.77291zm3.4767859.38596l.772909.7729-.772909.77291-.7720391-.77291zm-5.0226039 1.15888l.7729091.7729-.7729091.7729-.7729097-.7729zm3.4776558.38693l.772909.77205-.772909.77291-.7729089-.77291zm-5.0226005 1.15887l.772035.7729-.772035.77206-.772914-.77206zm3.4767826.38609l.772909.7729-.772909.7729-.7729089-.7729zm-5.0225996 1.15887l.772903.77291-.772903.7729-.772915-.7729zm3.4776512.38693l.7720395.77291-.7720395.77205-.7729089-.77205zm-5.0234692 1.15888l.772903.7729-.772903.77302-.772046-.77302zm3.477653.38608l.7729073.77291-.7729073.7729-.772915-.7729zm-1.545818 1.54581l.772903.7729-.772903.77291-.772034-.77291z" clip-path="url(#b)" transform="matrix(1.01965 0 0 1.01965 15.956369 -290.1175038)"/>
  </g>
</svg>
