<svg xmlns="http://www.w3.org/2000/svg" width="48" height="48" viewBox="0 0 12.7 12.7"><path fill="#e6e6e6" d="M6.344.073a6.29 6.29 0 0 0-6.29 6.29 6.29 6.29 0 0 0 6.29 6.288 6.29 6.29 0 0 0 6.29-6.289 6.29 6.29 0 0 0-6.29-6.29zm-.018.936a5.407 5.407 0 0 1 5.407 5.407 5.407 5.407 0 0 1-5.407 5.407A5.407 5.407 0 0 1 .92 6.416 5.407 5.407 0 0 1 6.326 1.01zm.19 1.271a.559.559 0 0 0-.396.165l-.479.478a.485.485 0 0 0-.338-.138H2.947a.49.49 0 0 0-.489.488v.214c0 .269.22.487.489.487h.146V5.47l-.53.53a.56.56 0 0 0 0 .794l.53.53v2.379c0 .268.024.488.292.488.36.02.399-.075 1.157-.836l.29-.293L6.12 10.35c.22.22.573.22.793 0l3.556-3.556a.56.56 0 0 0 0-.793L9.157 4.688l.79-.8a.48.48 0 0 0 .127-.213.477.477 0 0 0 .036-.188v-.214a.485.485 0 0 0-.483-.488H7.822a.477.477 0 0 0-.379.19l-.53-.53a.56.56 0 0 0-.397-.165zm0 .304c.132 0 .264.05.365.152l.465.464a.493.493 0 0 0-.007.074v.213c0 .269.183.487.451.487h.13s-1.6 1.64-2.76 2.8v-2.8h.143a.489.489 0 0 0 .487-.487v-.213a.482.482 0 0 0-.027-.151l.388-.387a.515.515 0 0 1 .365-.152zm2.48 2.266l1.157 1.157a.516.516 0 0 1 0 .731L6.881 10.01a.515.515 0 0 1-.73 0L5.016 8.875l3.98-4.025zm-5.903.943v1.16l-.214-.215a.516.516 0 0 1 0-.73l.214-.215z"/></svg>