<svg xmlns="http://www.w3.org/2000/svg" width="48" height="48" viewBox="0 0 12.7 12.7">
  <defs>
    <clipPath id="a"/>
  </defs>
  <path fill="#e6e6e6" d="M6.34431561.07286377a6.28928043 6.28928043 0 0 0-6.2895386 6.2895385 6.28928043 6.28928043 0 0 0 6.2895386 6.28902166 6.28928043 6.28928043 0 0 0 6.28902167-6.28902167A6.28928043 6.28928043 0 0 0 6.3443156.07286376zm-.01808691.93637693a5.40704372 5.40704372 0 0 1 5.40690507 5.40690505 5.40704372 5.40704372 0 0 1-5.40690507 5.40690508A5.40704372 5.40704372 0 0 1 .91880694 6.41614575 5.40704372 5.40704372 0 0 1 6.3262287 1.0092407zm.19016926 1.27072346c-.14350285 0-.28691522.05480783-.396875.16484783l-.47852381.47852371c-.08788982-.08520006-.2071042-.13797597-.3384804-.13797597H2.9465902c-.26844757 0-.48834235.21937557-.48834235.48782552v.21394049c0 .26844995.2198953.48730852.48834235.48730852h.14676093v1.49603273l-.52968336.53020038c-.219919.21991982-.219919.57380981 0 .79375l.52968336.53020012V9.7027668c0 .26844996.02352014.48834225.29197194.48834225.35914568.0191.39831697-.07475458 1.1565186-.8361246l.28990475-.2930054 1.28777655 1.28777681c.21991902.21990976.57383124.21990976.79374999 0l3.55585523-3.5553385c.21991901-.21994018.21991901-.57383017 0-.79374999l-1.31258123-1.3125815.79116606-.79995129c.06208607-.06209982.1051343-.13466365.12660736-.2134235.02444988-.0580001.03565684-.12048542.03565684-.18758534v-.2139405c0-.26844994-.21420931-.4878255-.48265794-.4878255H7.8217447c-.1553382 0-.29076385.07516573-.37878834.1891358l-.5296834-.52968355c-.10995924-.10995001-.25337213-.16484783-.39687499-.16484783zm0 .30385742c.1320546 0 .26364856.05062871.36483554.15192878l.46508802.46457102c-.00359013.02390008-.00723476.04838065-.00723476.0733806v.21342376c0 .26844995.18268632.48730852.45113521.48730852h.129708S6.3209066 5.6137833 5.1604084 6.77426352V3.97443426h.14211035c.26844836 0 .48782551-.21885857.48782551-.48730852v-.21342376c0-.0529-.01116991-.10307532-.02687187-.15089532l.3875733-.3870563c.10118699-.10120006.23329794-.15192878.36535227-.15192878zm2.47943526 2.2660115l1.15755207 1.15755207c.2023729.20237.2023729.52832475 0 .7307048L6.8812335 10.01024147c-.2023737.20237-.5278141.20237-.7301878 0L5.01571438 8.87491044l3.98011883-4.02507736zm-5.90248209.94309484v1.15961926l-.21445722-.21445723c-.2023737-.20238005-.2023737-.5283348 0-.7307048l.21445722-.21445723z"/>
</svg>
