<svg xmlns="http://www.w3.org/2000/svg" width="48" height="48" viewBox="0 0 12.7 12.7">
  <path fill="#e6e6e6" d="M6.34431561.07286377a6.28928043 6.28928043 0 0 0-6.2895386 6.2895385 6.28928043 6.28928043 0 0 0 6.2895386 6.28902166 6.28928043 6.28928043 0 0 0 6.28902167-6.28902167A6.28928043 6.28928043 0 0 0 6.3443156.07286376zm-.01808691.93637693a5.40704372 5.40704372 0 0 1 5.40690507 5.40690505 5.40704372 5.40704372 0 0 1-5.40690507 5.40690508A5.40704372 5.40704372 0 0 1 .91880694 6.41614575 5.40704372 5.40704372 0 0 1 6.3262287 1.0092407zm-.29352214 1.53065592L4.44520658 7.9374999l-.95291326-3.17499996H1.58749998v.63510344H2.8577066l1.58749998 4.76249994 1.58749998-5.39760338.9523968 3.17499996 1.2696899-3.17499996.95291326 3.17499996h1.90479334v-.63510344H9.84229324L8.25479326 2.8577066l-1.2696899 3.17499996-.9523968-3.49280994z"/>
</svg>
