<?xml version="1.0" encoding="UTF-8" standalone="no"?>
<!-- Created with Inkscape (http://www.inkscape.org/) -->

<svg
   xmlns:dc="http://purl.org/dc/elements/1.1/"
   xmlns:cc="http://creativecommons.org/ns#"
   xmlns:rdf="http://www.w3.org/1999/02/22-rdf-syntax-ns#"
   xmlns:svg="http://www.w3.org/2000/svg"
   xmlns="http://www.w3.org/2000/svg"
   xmlns:sodipodi="http://sodipodi.sourceforge.net/DTD/sodipodi-0.dtd"
   xmlns:inkscape="http://www.inkscape.org/namespaces/inkscape"
   width="48"
   height="48"
   viewBox="0 0 12.7 12.7"
   version="1.1"
   id="svg829"
   inkscape:version="0.92.3 (2405546, 2018-03-11)"
   sodipodi:docname="vlc.svg">
  <defs
     id="defs823" />
  <sodipodi:namedview
     id="base"
     pagecolor="#ffffff"
     bordercolor="#666666"
     borderopacity="1.0"
     inkscape:pageopacity="0.0"
     inkscape:pageshadow="2"
     inkscape:zoom="3.9627443"
     inkscape:cx="20.59327"
     inkscape:cy="22.990599"
     inkscape:document-units="mm"
     inkscape:current-layer="layer1"
     showgrid="false"
     showguides="true"
     inkscape:guide-bbox="true"
     inkscape:window-width="1366"
     inkscape:window-height="719"
     inkscape:window-x="0"
     inkscape:window-y="25"
     inkscape:window-maximized="1"
     scale-x="1.9"
     units="px"
     inkscape:snap-global="false" />
  <metadata
     id="metadata826">
    <rdf:RDF>
      <cc:Work
         rdf:about="">
        <dc:format>image/svg+xml</dc:format>
        <dc:type
           rdf:resource="http://purl.org/dc/dcmitype/StillImage" />
        <dc:title></dc:title>
      </cc:Work>
    </rdf:RDF>
  </metadata>
  <g
     inkscape:label="Capa 1"
     inkscape:groupmode="layer"
     id="layer1"
     transform="translate(0,-284.3)">
    <path
       inkscape:connector-curvature="0"
       style="fill:#e6e6e6;fill-opacity:1;stroke-width:0.1389506"
       d="m 6.3443156,284.37286 a 6.2892804,6.2892804 0 0 0 -6.28953858,6.28954 6.2892804,6.2892804 0 0 0 6.28953858,6.28902 6.2892804,6.2892804 0 0 0 6.2890214,-6.28902 6.2892804,6.2892804 0 0 0 -6.2890214,-6.28954 z m -0.018087,0.93638 a 5.4070437,5.4070437 0 0 1 5.4069054,5.40691 5.4070437,5.4070437 0 0 1 -5.4069054,5.4069 5.4070437,5.4070437 0 0 1 -5.40742176,-5.4069 5.4070437,5.4070437 0 0 1 5.40742176,-5.40691 z"
       id="path822" />
    <path
       inkscape:connector-curvature="0"
       style="opacity:0.75;fill:#ff6600;stroke-width:0.033376"
       d="m 6.394391,286.16768 c -0.2385824,6.6e-4 -0.493317,0.0654 -0.7689659,0.20953 l -0.3894211,1.37497 c 0.786253,0.39287 1.5407335,0.33284 2.2751506,0 L 7.0660013,286.3377 C 6.8554724,286.22962 6.6329731,286.16704 6.394391,286.16768 Z m -1.6254102,3.16405 -0.4380985,1.4815 c 1.457682,0.67451 2.8203201,0.62386 4.0705793,-0.0508 l -0.4232838,-1.42999 c -1.0484423,0.34177 -2.1091708,0.48284 -3.209197,-7.3e-4 z m 3.6324808,1.4307 0.3576752,1.24022 c -1.1161844,0.99057 -3.4729915,1.35834 -4.7802857,0.0136 l 0.3520312,-1.20355 -0.749918,0.002 -1.1873111,2.78379 c -0.00256,0.16524 0.024552,0.39817 0.3216958,0.46351 l 7.309406,0.0116 c 0.314095,-0.19251 0.290817,-0.32647 0.272313,-0.49455 l -1.1675581,-2.80269 z"
       id="path838" />
  </g>
</svg>
