<svg xmlns="http://www.w3.org/2000/svg" width="48" height="48" viewBox="0 0 12.7 12.7">
  <path fill="#e6e6e6" d="M6.34999992.06097819A6.28928043 6.28928043 0 0 0 .06097819 6.35051665a6.28928043 6.28928043 0 0 0 6.28902173 6.28850493 6.28928043 6.28928043 0 0 0 6.28902166-6.28850493A6.28928043 6.28928043 0 0 0 6.34999992.0609782zm-.01808665.93637693a5.40704372 5.40704372 0 0 1 5.40690507 5.40690502 5.40704372 5.40704372 0 0 1-5.40690507 5.40690508A5.40704372 5.40704372 0 0 1 .92449136 6.40426014 5.40704372 5.40704372 0 0 1 6.33191326.99735512zm.01808665.63717042c-2.6384292 0-4.76249994 2.12403994-4.76249994 4.76249983 0 2.63841994 2.12407074 4.76249994 4.76249994 4.76249994 2.63842894 0 4.76249994-2.12408 4.76249994-4.76249994 0-1.3485098-.557326-2.55973709-1.45210766-3.42459702L9.5348183 4.0374797h.04857591l.1038696-.08268229h.02790534v.0242877c-.14309434.10458-.28162832.39104251-.41547838.85886235-.05078307.4017801-.13630725.77342073-.2563151 1.11466073-.10616856.35224006-.15917069.676384-.15916354.97358384l-.20102142.58652754c-.0000045.04940008.0760804.09875149.22841003.14831139-.02770109.1155901-.06915362.1736328-.12454017.1736328v.03307292h.04857565v.0248047c-.00000477.06050014-.07871434.09095051-.23564453.09095051l.02790534.03307292v.11523847h-.04805918c.03230297.11559011.10105416.17364287.20722272.17363281v.0578776h-.20722272v.03307292c.06923008 0 .1033481.04970807.10335286.14882813l-.29042148.11523847.0273886.03307292v.02480469c-.00000714.03860006-.03463686.0578776-.10386959.0578776v.03307291c.08769086 0 .131767.01927755.13177494.0578776-.12463013.04949985-.2883482.29453893-.4914429.73483893-.20771194.39077-.38769951.58601054-.54001881.58601054h-.05581068c-.11540014-.08799989-.20985586-.38004855-.28370344-.87539855-.2954184-.75402016-.4433861-1.19650112-.44338372-1.32860123-.00000238-.34124-.09446075-.70512277-.28370371-1.0903725-.05077513-.17061022-.08541067-.38468168-.1038696-.64337168l-.12454016-.03307292c-.31387785.56691-.47760334 1.0098979-.4914429 1.3291177-.08770593.18713-.15748317.41225469-.20825592.67644458.18924534.0604999.28421806.11860292.28422018.17363281v.03307292c-.14770656-.02210012-.25161081-.06299676-.31160879-.1235067-.06462315.14862016-.1501566.5606907-.2563151 1.23765043-.08308604.3137101-.1869858.47077233-.31160878.47077233-.35080151-.1375799-.64361271-.36274428-.8790162-.67644433-.03692816 0-.0972693-.15706248-.18035085-.47077232-.05077592 0-.08489103-.15704238-.10335286-.47077233-.17539838-.44579989-.29556445-.95463861-.3601847-1.52703845V6.0104858H3.2757689l-.12454016.03307291V6.0104858c0-.03850005.04145253-.0578776.12454016-.0578776l-.02738834-.49506029v-.38809003L3.04735914 3.8312907v-.52864993c.08770197-.3302201.24039221-.49505023.45733652-.49506028 0 0 .0188812-.0021344.0826823.08216556l-.0826823-.02480469c.33694978.4403201.535305.81196073.5953125 1.11466073h.23512779v.0578776h-.17983411v.06614584c.06923801.25317978.1196197.3798316.15192877.37982154h.05581041l.12402344-.03307292.02790534.03307292.02790534-.03307292.02790534.03307292v.02428795c-.09231604.06600005-.1547577.15727177-.18706888.27285156h-.02067058v.05736087h.04857592c.06461998.91914.1842672 1.61545136.35966796 2.08876157l.1038696.08268229h.05529394c.06923696 0 .21458978-.3218926.43614895-.9658326.14308958-.29171.24698404-.54776185.31160905-.76791185l-.02790534-.09043379c.1430872-.21464005.29106204-.32193414.44338372-.3219442h.04857591c.09692905.00001006.16619326.06029431.20773919.18138431.12924023.1816301.23313945.45427132.31160878.81752122l.38809004.85834562c.0507701.0604999.07544461.1291389.07544779.206189.1430872.32472973.27269175.53983492.38808977.64440487h.08319928c.09692878 0 .2260145-.4020611.38757304-1.20561098.02768997.00001005.10429425-.21459852.22892676-.6438884V5.6885416l-.43666595-.05736088-.1038696.03307292h-.1312582V5.5981078l.26251641-.02532142h.5126302c.19847269-.70998.38107752-1.2602821.54725332-1.6510619.0553831-.80355015.13146907-1.20509451.22840976-1.20509451l.17466653-.08371578c-.80524613-.62395999-1.8146355-.99838866-2.91661793-.99838866zm.41547838 1.64331055h.07596452v.02480469c-.00000476.03860006-.02519045.05736087-.07596452.05736087l-.02738835.03307292v.03307291l-.07648125-.03307291V3.3357137l.1038696-.0578776zm-.38757304.3219442v.03307292c-.00000265.04399994-.11123718.09100979-.33279635.1405599v-.05839434l.15296223-.08216556.02738861.02428796h.02067058l.13177493-.05736088zm-.747758.29713952v.02480469c-.09693592.08799988-.25434766.1677318-.47128906.23926164v-.0578776c.03692605 0 .05581042-.03045037.05581042-.09095052l.41547864-.11523821zm1.31516515.28887102l.02790534.03307292v.02480468l-.04857591.0656291H6.8967365l-.05529368-.0656291v-.02480468l.1038696-.03307292zm.95601392.03307292h.02738861v.02480468l-.04857591.0656291h-.02790534v-.03307291l.04909264-.05736087zm-.43666568.41289472l.1038696.08216556c-.01845496.06050015-.06884776.09095052-.15192878.09095052l-.05529368-.09095052c-.00000503-.02760001.03411458-.05466556.10335286-.08216556zm.62321757.3798218l.02067057.03307292v.02428796l-.02067057.03307291h-.05529369v-.03307291l.05529369-.05736088zm-.98288553.29662279v.02480469l-.13177494.12454016H6.8967365v-.03358964c-.00000476-.04960012.06977777-.0882351.20825619-.11575521zm-.90692155 2.5264607h.02738861v.05787761l-.20825592.1235067-.0273886-.03307291v-.05736087l.20825591-.09095052zm-.07648098.76791185h.02067057l.08319902.09095052-.0273886.02428795H6.1701658l-.04857565-.08216556v-.03307291z"/>
</svg>
