<?xml version="1.0" encoding="UTF-8" standalone="no"?>
<!-- Created with Inkscape (http://www.inkscape.org/) -->

<svg
   xmlns:dc="http://purl.org/dc/elements/1.1/"
   xmlns:cc="http://creativecommons.org/ns#"
   xmlns:rdf="http://www.w3.org/1999/02/22-rdf-syntax-ns#"
   xmlns:svg="http://www.w3.org/2000/svg"
   xmlns="http://www.w3.org/2000/svg"
   xmlns:sodipodi="http://sodipodi.sourceforge.net/DTD/sodipodi-0.dtd"
   xmlns:inkscape="http://www.inkscape.org/namespaces/inkscape"
   width="48"
   height="48"
   viewBox="0 0 12.7 12.7"
   version="1.1"
   id="svg829"
   inkscape:version="0.92.3 (2405546, 2018-03-11)"
   sodipodi:docname="wayland.svg">
  <defs
     id="defs823">
    <linearGradient
       gradientTransform="matrix(1.25,0,0,1.26667,-92.14,-151.08)"
       gradientUnits="userSpaceOnUse"
       x2="392.89999"
       y2="546.58002"
       x1="400.57001"
       y1="537.59998"
       id="d">
      <stop
         stop-color="#ffc35a"
         id="stop3" />
      <stop
         stop-color="#faae2a"
         offset="1"
         id="stop5" />
    </linearGradient>
  </defs>
  <sodipodi:namedview
     id="base"
     pagecolor="#ffffff"
     bordercolor="#666666"
     borderopacity="1.0"
     inkscape:pageopacity="0.0"
     inkscape:pageshadow="2"
     inkscape:zoom="2.8020833"
     inkscape:cx="-33.635688"
     inkscape:cy="22.572491"
     inkscape:document-units="mm"
     inkscape:current-layer="layer1"
     showgrid="false"
     showguides="true"
     inkscape:guide-bbox="true"
     inkscape:window-width="1366"
     inkscape:window-height="719"
     inkscape:window-x="0"
     inkscape:window-y="25"
     inkscape:window-maximized="1"
     scale-x="1.9"
     units="px"
     inkscape:snap-global="false" />
  <metadata
     id="metadata826">
    <rdf:RDF>
      <cc:Work
         rdf:about="">
        <dc:format>image/svg+xml</dc:format>
        <dc:type
           rdf:resource="http://purl.org/dc/dcmitype/StillImage" />
        <dc:title />
      </cc:Work>
    </rdf:RDF>
  </metadata>
  <g
     inkscape:label="Capa 1"
     inkscape:groupmode="layer"
     id="layer1"
     transform="translate(0,-284.3)">
    <path
       style="fill:#e6e6e6;fill-opacity:1;stroke-width:0.52516764"
       d="M 24 0.23046875 A 23.770509 23.770509 0 0 0 0.23046875 24.001953 A 23.770509 23.770509 0 0 0 24 47.769531 A 23.770509 23.770509 0 0 0 47.769531 24.001953 A 23.770509 23.770509 0 0 0 24 0.23046875 z M 23.931641 3.7695312 A 20.436071 20.436071 0 0 1 44.367188 24.205078 A 20.436071 20.436071 0 0 1 23.931641 44.640625 A 20.436071 20.436071 0 0 1 3.4941406 24.205078 A 20.436071 20.436071 0 0 1 23.931641 3.7695312 z M 24 6.1777344 C 14.027984 6.1777344 6 14.205602 6 24.177734 C 6 34.149715 14.027984 42.177734 24 42.177734 C 33.972015 42.177734 42 34.149715 42 24.177734 C 42 19.081004 39.893571 14.503137 36.511719 11.234375 L 36.037109 15.259766 L 36.220703 15.259766 L 36.613281 14.947266 L 36.71875 14.947266 L 36.71875 15.039062 C 36.177921 15.434325 35.654328 16.517018 35.148438 18.285156 C 34.956502 19.803695 34.633261 21.208321 34.179688 22.498047 C 33.778421 23.829348 33.578098 25.054459 33.578125 26.177734 L 32.818359 28.394531 C 32.818342 28.58124 33.105907 28.767765 33.681641 28.955078 C 33.576944 29.391954 33.420273 29.611328 33.210938 29.611328 L 33.210938 29.736328 L 33.394531 29.736328 L 33.394531 29.830078 C 33.394513 30.05874 33.097028 30.173828 32.503906 30.173828 L 32.609375 30.298828 L 32.609375 30.734375 L 32.427734 30.734375 C 32.549824 31.171251 32.809671 31.390663 33.210938 31.390625 L 33.210938 31.609375 L 32.427734 31.609375 L 32.427734 31.734375 C 32.689391 31.734375 32.818341 31.922248 32.818359 32.296875 L 31.720703 32.732422 L 31.824219 32.857422 L 31.824219 32.951172 C 31.824192 33.097062 31.693308 33.169922 31.431641 33.169922 L 31.431641 33.294922 C 31.763071 33.294922 31.929658 33.367782 31.929688 33.513672 C 31.458645 33.700758 30.839868 34.62689 30.072266 36.291016 C 29.287213 37.767942 28.606945 38.505859 28.03125 38.505859 L 27.820312 38.505859 C 27.384154 38.173261 27.027156 37.069455 26.748047 35.197266 C 25.631505 32.347426 25.072257 30.675057 25.072266 30.175781 C 25.072257 28.886055 24.715249 27.51075 24 26.054688 C 23.808094 25.409862 23.677188 24.600773 23.607422 23.623047 L 23.136719 23.498047 C 21.950409 25.640699 21.331604 27.314984 21.279297 28.521484 C 20.94781 29.228747 20.684085 30.079612 20.492188 31.078125 C 21.207446 31.306786 21.566398 31.526388 21.566406 31.734375 L 21.566406 31.859375 C 21.008145 31.775847 20.615436 31.621277 20.388672 31.392578 C 20.144427 31.954292 19.821151 33.511724 19.419922 36.070312 C 19.105896 37.255988 18.713204 37.849609 18.242188 37.849609 C 16.916324 37.329622 15.809636 36.478607 14.919922 35.292969 C 14.780351 35.292969 14.55229 34.699347 14.238281 33.513672 C 14.046372 33.513672 13.917433 32.920126 13.847656 31.734375 C 13.184733 30.049462 12.730562 28.126292 12.486328 25.962891 L 12.486328 22.716797 L 12.380859 22.716797 L 11.910156 22.841797 L 11.910156 22.716797 C 11.910156 22.571285 12.066827 22.498047 12.380859 22.498047 L 12.277344 20.626953 L 12.277344 19.160156 L 11.517578 14.480469 L 11.517578 12.482422 C 11.84905 11.234346 12.426147 10.611366 13.246094 10.611328 C 13.246094 10.611328 13.317456 10.603261 13.558594 10.921875 L 13.246094 10.828125 C 14.519605 12.492327 15.269294 13.896953 15.496094 15.041016 L 16.384766 15.041016 L 16.384766 15.259766 L 15.705078 15.259766 L 15.705078 15.509766 C 15.966765 16.466666 16.157184 16.94535 16.279297 16.945312 L 16.490234 16.945312 L 16.958984 16.820312 L 17.064453 16.945312 L 17.169922 16.820312 L 17.275391 16.945312 L 17.275391 17.037109 C 16.92648 17.286558 16.69048 17.631522 16.568359 18.068359 L 16.490234 18.068359 L 16.490234 18.285156 L 16.673828 18.285156 C 16.918061 21.759071 17.370271 24.390799 18.033203 26.179688 L 18.425781 26.492188 L 18.634766 26.492188 C 18.896449 26.492188 19.445814 25.275586 20.283203 22.841797 C 20.824014 21.739271 21.216686 20.771516 21.460938 19.939453 L 21.355469 19.597656 C 21.896271 18.786418 22.455546 18.380897 23.03125 18.380859 L 23.214844 18.380859 C 23.58119 18.380897 23.842976 18.608743 24 19.066406 C 24.488467 19.752882 24.881157 20.783337 25.177734 22.15625 L 26.644531 25.400391 C 26.836418 25.629052 26.929676 25.888475 26.929688 26.179688 C 27.47049 27.407013 27.960334 28.220009 28.396484 28.615234 L 28.710938 28.615234 C 29.077283 28.615234 29.565166 27.095633 30.175781 24.058594 C 30.280436 24.058632 30.569964 23.247513 31.041016 21.625 L 31.041016 21.5 L 29.390625 21.283203 L 28.998047 21.408203 L 28.501953 21.408203 L 28.501953 21.158203 L 29.494141 21.0625 L 31.431641 21.0625 C 32.181774 18.379111 32.871934 16.299229 33.5 14.822266 C 33.709322 11.785226 33.996891 10.267578 34.363281 10.267578 L 35.023438 9.9511719 C 31.979988 7.5928979 28.164973 6.1777344 24 6.1777344 z M 25.570312 12.388672 L 25.857422 12.388672 L 25.857422 12.482422 C 25.857404 12.628312 25.762214 12.699219 25.570312 12.699219 L 25.466797 12.824219 L 25.466797 12.949219 L 25.177734 12.824219 L 25.177734 12.607422 L 25.570312 12.388672 z M 24.105469 13.605469 L 24.105469 13.730469 C 24.105459 13.896768 23.685045 14.074443 22.847656 14.261719 L 22.847656 14.041016 L 23.425781 13.730469 L 23.529297 13.822266 L 23.607422 13.822266 L 24.105469 13.605469 z M 21.279297 14.728516 L 21.279297 14.822266 C 20.912925 15.154864 20.317983 15.456213 19.498047 15.726562 L 19.498047 15.507812 C 19.63761 15.507812 19.708984 15.392724 19.708984 15.164062 L 21.279297 14.728516 z M 26.25 15.820312 L 26.355469 15.945312 L 26.355469 16.039062 L 26.171875 16.287109 L 26.066406 16.287109 L 25.857422 16.039062 L 25.857422 15.945312 L 26.25 15.820312 z M 29.863281 15.945312 L 29.966797 15.945312 L 29.966797 16.039062 L 29.783203 16.287109 L 29.677734 16.287109 L 29.677734 16.162109 L 29.863281 15.945312 z M 28.212891 17.505859 L 28.605469 17.816406 C 28.535718 18.045068 28.345257 18.160156 28.03125 18.160156 L 27.822266 17.816406 C 27.822247 17.712091 27.951203 17.609796 28.212891 17.505859 z M 30.568359 18.941406 L 30.646484 19.066406 L 30.646484 19.158203 L 30.568359 19.283203 L 30.359375 19.283203 L 30.359375 19.158203 L 30.568359 18.941406 z M 26.853516 20.0625 L 26.853516 20.064453 L 26.853516 20.15625 L 26.355469 20.626953 L 26.066406 20.626953 L 26.066406 20.5 C 26.066388 20.312535 26.330133 20.166513 26.853516 20.0625 z M 23.425781 29.611328 L 23.529297 29.611328 L 23.529297 29.830078 L 22.742188 30.296875 L 22.638672 30.171875 L 22.638672 29.955078 L 23.425781 29.611328 z M 23.136719 32.513672 L 23.214844 32.513672 L 23.529297 32.857422 L 23.425781 32.949219 L 23.320312 32.949219 L 23.136719 32.638672 L 23.136719 32.513672 z "
       transform="matrix(0.26458333,0,0,0.26458333,0,284.3)"
       id="path825" />
  </g>
</svg>
