<?xml version="1.0" encoding="UTF-8" standalone="no"?>
<!-- Created with Inkscape (http://www.inkscape.org/) -->

<svg
   xmlns:dc="http://purl.org/dc/elements/1.1/"
   xmlns:cc="http://creativecommons.org/ns#"
   xmlns:rdf="http://www.w3.org/1999/02/22-rdf-syntax-ns#"
   xmlns:svg="http://www.w3.org/2000/svg"
   xmlns="http://www.w3.org/2000/svg"
   xmlns:sodipodi="http://sodipodi.sourceforge.net/DTD/sodipodi-0.dtd"
   xmlns:inkscape="http://www.inkscape.org/namespaces/inkscape"
   width="48"
   height="48"
   viewBox="0 0 12.7 12.7"
   version="1.1"
   id="svg829"
   inkscape:version="0.92.3 (2405546, 2018-03-11)"
   sodipodi:docname="web-browser.svg">
  <defs
     id="defs823" />
  <sodipodi:namedview
     id="base"
     pagecolor="#ffffff"
     bordercolor="#666666"
     borderopacity="1.0"
     inkscape:pageopacity="0.0"
     inkscape:pageshadow="2"
     inkscape:zoom="10.25"
     inkscape:cx="-13.658537"
     inkscape:cy="23.219512"
     inkscape:document-units="mm"
     inkscape:current-layer="layer1"
     showgrid="false"
     showguides="true"
     inkscape:guide-bbox="true"
     inkscape:window-width="1366"
     inkscape:window-height="719"
     inkscape:window-x="0"
     inkscape:window-y="25"
     inkscape:window-maximized="1"
     scale-x="1.9"
     units="px"
     inkscape:snap-global="false" />
  <metadata
     id="metadata826">
    <rdf:RDF>
      <cc:Work
         rdf:about="">
        <dc:format>image/svg+xml</dc:format>
        <dc:type
           rdf:resource="http://purl.org/dc/dcmitype/StillImage" />
        <dc:title></dc:title>
      </cc:Work>
    </rdf:RDF>
  </metadata>
  <g
     inkscape:label="Capa 1"
     inkscape:groupmode="layer"
     id="layer1"
     transform="translate(0,-284.3)">
    <path
       inkscape:connector-curvature="0"
       style="color:#000000;font-style:normal;font-variant:normal;font-weight:normal;font-stretch:normal;font-size:medium;line-height:normal;font-family:'Andale Mono';text-indent:0pt;text-align:start;text-decoration:none;text-decoration-line:none;letter-spacing:normal;word-spacing:normal;text-transform:none;direction:ltr;text-anchor:start;display:inline;overflow:visible;visibility:visible;fill:#1a1a1a;fill-opacity:1;stroke:none;stroke-width:5.00055408;marker:none"
       d="m 5.8945084,284.37284 v 0.014 c -3.1210018,0.205 -5.61711353,2.69956 -5.82218163,5.82056 h -0.013 v 0.41678 0.41682 h 0.013 c 0.205068,3.12102 2.70117793,5.61548 5.82218163,5.82054 v 0.014 H 6.3113088 6.728109 v -0.014 c 3.1210011,-0.20502 5.613859,-2.69952 5.818925,-5.82054 h 0.0162 v -0.41682 -0.41678 h -0.0162 c -0.205064,-3.121 -2.6979239,-5.6155 -5.818925,-5.82056 v -0.014 H 6.3113088 Z m 0,0.88732 v 2.44706 H 3.8512088 c 0.447644,-1.29792 1.186358,-2.21866 2.0432996,-2.44706 z m 0.8336006,0 c 0.8561074,0.2284 1.5940278,1.14914 2.0416716,2.44706 H 6.728109 Z m -2.7547904,0.4754 c -0.40263,0.53516 -0.738348,1.20644 -0.98176,1.97166 H 1.7427848 c 0.5435079,-0.84776 1.3169078,-1.534 2.2305338,-1.97166 z m 4.6759801,0 c 0.9127934,0.43766 1.6853973,1.1239 2.2289053,1.97166 H 9.6310601 c -0.244246,-0.76522 -0.5774654,-1.4365 -0.9817614,-1.97166 z m -7.3412239,2.80528 h 1.465314 c -0.1117,0.52682 -0.18264,1.0862 -0.2051442,1.6672 H 0.90755887 c 0.04418,-0.58686 0.18377993,-1.1479 0.40051593,-1.6672 z m 2.3086838,0 h 2.2777498 v 1.6672 H 3.4018466 c 0.02418,-0.58686 0.09738,-1.1479 0.214912,-1.6672 z m 3.1113504,0 h 2.2744938 c 0.11838,0.5193 0.1923199,1.08034 0.2181699,1.6672 H 6.728109 Z m 3.1211191,0 h 1.4653139 c 0.216736,0.5193 0.35471,1.08034 0.39889,1.6672 h -1.65906 c -0.02248,-0.581 -0.09344,-1.14038 -0.2051439,-1.6672 z m -8.94167133,2.5008 H 2.5682445 c 0.02248,0.581 0.09344,1.14036 0.2051461,1.66718 H 1.3080748 c -0.216738,-0.51932 -0.35633803,-1.08036 -0.40051803,-1.66718 z m 2.49428983,0 h 2.4926618 v 1.66718 H 3.6167586 c -0.11754,-0.51932 -0.19074,-1.08036 -0.214912,-1.66718 z m 3.3262624,0 h 2.4926617 c -0.024162,0.58682 -0.0998,1.14786 -0.2181702,1.66718 H 6.728109 Z m 3.326263,0 h 1.657432 c -0.04334,0.58682 -0.18052,1.14786 -0.397262,1.66718 H 9.8492281 c 0.1117,-0.52682 0.1826399,-1.08618 0.2051439,-1.66718 z m -8.3115872,2.5008 h 1.2487738 c 0.243412,0.76524 0.578298,1.4365 0.98176,1.97166 -0.913626,-0.43764 -1.6870259,-1.12306 -2.2305338,-1.97166 z m 2.108424,0 h 2.0432996 v 2.44708 C 5.0375668,295.7601 4.2988528,294.84034 3.8512088,293.54244 Z m 2.8769002,0 h 2.0416716 c -0.4476438,1.2979 -1.1855642,2.21782 -2.0416716,2.44708 z m 2.902949,0 h 1.247146 c -0.543508,0.8486 -1.3161119,1.53402 -2.2289053,1.97166 0.4026282,-0.53602 0.7375134,-1.20642 0.9817593,-1.97166 z"
       id="path75" />
  </g>
</svg>
