<svg xmlns="http://www.w3.org/2000/svg" width="48" height="48" viewBox="0 0 12.7 12.7">
  <path fill="#e6e6e6" d="M6.34431561.07286377a6.28928043 6.28928043 0 0 0-6.2895386 6.2895385 6.28928043 6.28928043 0 0 0 6.2895386 6.28902166 6.28928043 6.28928043 0 0 0 6.28902167-6.28902167A6.28928043 6.28928043 0 0 0 6.3443156.07286376zm-.01808691.93637693a5.40704372 5.40704372 0 0 1 5.40690507 5.40690505 5.40704372 5.40704372 0 0 1-1.20664471 3.39772542l-.69608144-.6914306c.08392372-.06058587.1421101-.15424996.1421101-.26613378V3.17603342c0-.1850599-.1492512-.33382955-.33434655-.33382955h-6.5153645c-.18509589 0-.33382956.14876965-.33382956.33382955V8.8563068c0 .18513001.14873367.33382981.33382955.33382981H8.7296997l1.23041567 1.22163071a5.40704372 5.40704372 0 0 1-3.63388667 1.41128352A5.40704372 5.40704372 0 0 1 .91880694 6.41614575 5.40704372 5.40704372 0 0 1 6.3262287 1.0092407zM3.21530764 4.09484031h6.33036281c.09741694 0 .17621673.08030422.17621673.17983412v4.48551426c0 .06984603-.04022645.1284724-.09715182.15812982L7.48016338 6.78924952c-.22397243-.2223799-.34132414-.41275317-.40152584-.56327304.05223404-.20804002.03084512-.43031515-.0790649-.62683521-.13879566-.2482498-.4303178-.46758172-.73897305-.57464192-.02648585-.00999993-.05536353-.00439632-.07338033.01860365-.01801813.02160005-.02136484.05218112-.00723477.07648098l.37827135.67696132c.03394419.06079993.0159557.13923804-.03875722.21910807-.05522913.08050001-.14701335.16073253-.26458333.22479265-.1175938.06389978-.23501641.09950608-.33331309.10283586-.09771591.00600023-.17474247-.02384927-.20877265-.08474921l-.38033854-.68109544c-.01060106-.01879996-.02906395-.03160633-.05064283-.03410637-.02157201-.0050001-.04349062.00678735-.0578776.0211873-.00777002.00700008-.01335882.01897221-.01601973.02997226-.07320518.31529999-.03860007.677155.1002522.92552493.18962767.33909.58478658.5009917.97151692.43253183.15802875.05310002.36753138.17043876.61598307.41702884L8.4770017 8.9395058H3.21530764c-.0974201 0-.1757-.07980706-.1757-.17931712V4.27467443c0-.09929998.07827698-.17983412.1757-.17983412z"/>
</svg>
