<?xml version="1.0" encoding="UTF-8" standalone="no"?>
<!-- Created with Inkscape (http://www.inkscape.org/) -->

<svg
   xmlns:dc="http://purl.org/dc/elements/1.1/"
   xmlns:cc="http://creativecommons.org/ns#"
   xmlns:rdf="http://www.w3.org/1999/02/22-rdf-syntax-ns#"
   xmlns:svg="http://www.w3.org/2000/svg"
   xmlns="http://www.w3.org/2000/svg"
   xmlns:sodipodi="http://sodipodi.sourceforge.net/DTD/sodipodi-0.dtd"
   xmlns:inkscape="http://www.inkscape.org/namespaces/inkscape"
   width="48"
   height="48"
   viewBox="0 0 12.7 12.7"
   version="1.1"
   id="svg829"
   inkscape:version="0.92.3 (2405546, 2018-03-11)"
   sodipodi:docname="xfburn.svg">
  <defs
     id="defs823" />
  <sodipodi:namedview
     id="base"
     pagecolor="#ffffff"
     bordercolor="#666666"
     borderopacity="1.0"
     inkscape:pageopacity="0.0"
     inkscape:pageshadow="2"
     inkscape:zoom="2.8020833"
     inkscape:cx="24"
     inkscape:cy="24"
     inkscape:document-units="mm"
     inkscape:current-layer="layer1"
     showgrid="false"
     showguides="true"
     inkscape:guide-bbox="true"
     inkscape:window-width="1366"
     inkscape:window-height="719"
     inkscape:window-x="0"
     inkscape:window-y="25"
     inkscape:window-maximized="1"
     scale-x="1.9"
     units="px"
     inkscape:snap-global="true" />
  <metadata
     id="metadata826">
    <rdf:RDF>
      <cc:Work
         rdf:about="">
        <dc:format>image/svg+xml</dc:format>
        <dc:type
           rdf:resource="http://purl.org/dc/dcmitype/StillImage" />
        <dc:title></dc:title>
      </cc:Work>
    </rdf:RDF>
  </metadata>
  <g
     inkscape:label="Capa 1"
     inkscape:groupmode="layer"
     id="layer1"
     transform="translate(0,-284.3)">
    <g
       id="g906">
      <path
         inkscape:connector-curvature="0"
         id="path882"
         d="m 6.3443158,284.37286 c -3.4331209,0 -6.25491533,2.8218 -6.25491533,6.25492 0,3.43312 2.82179443,6.25543 6.25491533,6.25543 3.4331209,0 6.2549152,-2.82231 6.2549152,-6.25543 0,-3.43312 -2.8217943,-6.25492 -6.2549152,-6.25492 z m 2.1797118,1.26763 c 0,0 2.1565764,1.00385 2.3430094,3.38429 0.132451,1.6958 -0.09373,2.42764 -0.234611,2.70939 -0.02528,0.0545 -0.05792,0.10509 -0.09715,0.15038 0.784175,-0.88897 1.184217,-2.05288 1.112594,-3.23598 0,0 1.188485,1.67861 0.77928,3.35018 -0.409731,1.67157 -1.711007,2.67788 -1.711007,2.67788 0,0 0.371554,-1.37565 0.371554,-2.00763 0,0 -0.704658,0.52062 -1.073836,0.632 0,0 -1.0037602,-1.37607 -0.8552451,-3.14244 0,0 -0.06837,0.0459 -0.1586467,0.1142 0.01485,0.11627 0.025321,0.23413 0.025321,0.35502 0,0.9702 -0.4947495,1.80384 -1.2485026,2.27376 -0.01189,0.51008 0.05786,1.09613 0.2640666,1.7756 0,0 -0.7271191,-0.51329 -1.1921751,-1.41593 -0.1631781,0.03 -0.3313221,0.0475 -0.504362,0.0475 -1.501208,0 -2.6804567,-1.17976 -2.6804567,-2.68097 0,-1.50121 1.1792487,-2.68046 2.6804567,-2.68046 0.5283049,0 1.0150324,0.14831 1.4262695,0.40308 0.6313949,-1.19239 0.8865963,-1.67109 0.7534423,-2.70991 z m -2.1797118,3.20032 c -0.98204,0 -1.7869713,0.80493 -1.7869713,1.78697 0,0.98204 0.8049313,1.78749 1.7869713,1.78749 0.05972,0 0.1184804,-0.003 0.1767332,-0.009 l -0.015503,-0.18242 c -0.03389,-0.22548 -0.044342,-0.46407 -0.025321,-0.71571 -0.04464,0.007 -0.08921,0.0134 -0.135909,0.0134 -0.498615,0 -0.8934858,-0.39538 -0.8934858,-0.894 0,-0.49861 0.3948708,-0.89349 0.8934858,-0.89349 0.2353688,0 0.4455633,0.0903 0.6040974,0.23565 0.1357091,-0.28135 0.2637375,-0.54008 0.3824055,-0.77308 l 0.011886,-0.0475 c -0.2857855,-0.19399 -0.6292152,-0.30831 -0.9983891,-0.30831 z"
         style="color:#bebebe;font-weight:400;font-family:sans-serif;font-variant-ligatures:normal;font-variant-position:normal;font-variant-caps:normal;font-variant-numeric:normal;font-variant-alternates:normal;font-feature-settings:normal;text-indent:0;text-decoration:none;text-decoration-line:none;text-decoration-style:solid;text-decoration-color:#000000;text-transform:none;text-orientation:mixed;white-space:normal;shape-padding:0;overflow:visible;isolation:auto;mix-blend-mode:normal;fill:#1a1a1a;stroke-width:0.89357638" />
      <path
         inkscape:connector-curvature="0"
         id="path865"
         d="m 6.5212453,292.40613 c 0.0054,-5.5e-4 0.0109,-0.001 0.01634,-0.002 -0.0016,-0.008 -0.0032,-0.0154 -0.0048,-0.0231"
         style="color:#bebebe;font-weight:400;font-family:sans-serif;font-variant-ligatures:normal;font-variant-position:normal;font-variant-caps:normal;font-variant-numeric:normal;font-variant-alternates:normal;font-feature-settings:normal;text-indent:0;text-decoration:none;text-decoration-line:none;text-decoration-style:solid;text-decoration-color:#000000;text-transform:none;text-orientation:mixed;white-space:normal;shape-padding:0;overflow:visible;isolation:auto;mix-blend-mode:normal;fill:#333333;stroke-width:0.89357644" />
      <path
         inkscape:connector-curvature="0"
         id="path861"
         d="m 7.3472293,289.16334 c 0.0014,-0.003 0.0028,-0.006 0.0043,-0.008 -0.0028,-0.002 -0.0057,-0.004 -0.0085,-0.006"
         style="color:#bebebe;font-weight:400;font-family:sans-serif;font-variant-ligatures:normal;font-variant-position:normal;font-variant-caps:normal;font-variant-numeric:normal;font-variant-alternates:normal;font-feature-settings:normal;text-indent:0;text-decoration:none;text-decoration-line:none;text-decoration-style:solid;text-decoration-color:#000000;text-transform:none;text-orientation:mixed;white-space:normal;shape-padding:0;overflow:visible;isolation:auto;mix-blend-mode:normal;fill:#333333;stroke-width:0.89357644" />
      <path
         id="path2-3-6-7"
         d="m 8.5239793,285.64062 c 0,0 2.1565777,1.00385 2.3430097,3.38429 0.132451,1.6958 -0.09373,2.42764 -0.234611,2.70939 -0.02528,0.0545 -0.05792,0.10509 -0.09715,0.15038 0.784175,-0.88897 1.184217,-2.05287 1.112594,-3.23597 0,0 1.188484,1.67861 0.77928,3.35018 -0.40973,1.67157 -1.711006,2.67787 -1.711006,2.67787 0,0 0.371553,-1.37565 0.371553,-2.00763 0,0 -0.704658,0.52062 -1.073836,0.632 0,0 -1.0037597,-1.37607 -0.8552457,-3.14244 0,0 -2.122337,1.20836 -1.117761,4.51859 0,0 -2.500059,-1.74696 -1.194243,-4.49947 1.305817,-2.75304 1.863323,-3.08681 1.677418,-4.53719 z"
         style="opacity:0.75;fill:#ffd42a;stroke-width:0.02444816"
         inkscape:connector-curvature="0" />
    </g>
  </g>
</svg>
