<svg xmlns="http://www.w3.org/2000/svg" width="48" height="48" viewBox="0 0 12.7 12.7">
  <path fill="#e6e6e6" d="M6.3443158.07286c-3.4331209 0-6.25491533 2.8218-6.25491533 6.25492s2.82179443 6.25543 6.25491533 6.25543S12.599231 9.7609 12.599231 6.32778c0-3.43312-2.8217943-6.25492-6.2549152-6.25492zm2.1797118 1.26763s2.1565764 1.00385 2.3430094 3.38429c.132451 1.6958-.09373 2.42764-.234611 2.70939-.02528.0545-.05792.10509-.09715.15038.784175-.88897 1.184217-2.05288 1.112594-3.23598 0 0 1.188485 1.67861.77928 3.35018-.409731 1.67157-1.711007 2.67788-1.711007 2.67788s.371554-1.37565.371554-2.00763c0 0-.704658.52062-1.073836.632 0 0-1.0037602-1.37607-.8552451-3.14244 0 0-.06837.0459-.1586467.1142.01485.11627.025321.23413.025321.35502 0 .9702-.4947495 1.80384-1.2485026 2.27376-.01189.51008.05786 1.09613.2640666 1.7756 0 0-.7271191-.51329-1.1921751-1.41593-.1631781.03-.3313221.0475-.504362.0475-1.501208 0-2.6804567-1.17976-2.6804567-2.68097s1.1792487-2.68046 2.6804567-2.68046c.5283049 0 1.0150324.14831 1.4262695.40308.6313949-1.19239.8865963-1.67109.7534423-2.70991zM6.3443158 4.54081c-.98204 0-1.7869713.80493-1.7869713 1.78697 0 .98204.8049313 1.78749 1.7869713 1.78749.05972 0 .1184804-.003.1767332-.009l-.015503-.18242c-.03389-.22548-.044342-.46407-.025321-.71571-.04464.007-.08921.0134-.135909.0134-.498615 0-.8934858-.39538-.8934858-.894 0-.49861.3948708-.89349.8934858-.89349.2353688 0 .4455633.0903.6040974.23565.1357091-.28135.2637375-.54008.3824055-.77308l.011886-.0475c-.2857855-.19399-.6292152-.30831-.9983891-.30831z" color="#bebebe" font-family="sans-serif" font-weight="400" overflow="visible" style="font-variant-ligatures:normal;font-variant-position:normal;font-variant-caps:normal;font-variant-numeric:normal;font-variant-alternates:normal;font-feature-settings:normal;text-indent:0;text-decoration-line:none;text-decoration-style:solid;text-decoration-color:#000;text-transform:none;text-orientation:mixed;shape-padding:0;isolation:auto;mix-blend-mode:normal" white-space="normal"/>
  <path fill="#333" d="M6.5212453 8.10613c.0054-.00055.0109-.001.01634-.002-.0016-.008-.0032-.0154-.0048-.0231M7.3472293 4.86334c.0014-.003.0028-.006.0043-.008-.0028-.002-.0057-.004-.0085-.006" color="#bebebe" font-family="sans-serif" font-weight="400" overflow="visible" style="font-variant-ligatures:normal;font-variant-position:normal;font-variant-caps:normal;font-variant-numeric:normal;font-variant-alternates:normal;font-feature-settings:normal;text-indent:0;text-decoration-line:none;text-decoration-style:solid;text-decoration-color:#000;text-transform:none;text-orientation:mixed;shape-padding:0;isolation:auto;mix-blend-mode:normal" white-space="normal"/>
  <path fill="#ffd42a" d="M8.5239793 1.34062s2.1565777 1.00385 2.3430097 3.38429c.132451 1.6958-.09373 2.42764-.234611 2.70939-.02528.0545-.05792.10509-.09715.15038.784175-.88897 1.184217-2.05287 1.112594-3.23597 0 0 1.188484 1.67861.77928 3.35018-.40973 1.67157-1.711006 2.67787-1.711006 2.67787s.371553-1.37565.371553-2.00763c0 0-.704658.52062-1.073836.632 0 0-1.0037597-1.37607-.8552457-3.14244 0 0-2.122337 1.20836-1.117761 4.51859 0 0-2.500059-1.74696-1.194243-4.49947 1.305817-2.75304 1.863323-3.08681 1.677418-4.53719z" opacity=".75"/>
</svg>
