<svg xmlns="http://www.w3.org/2000/svg" width="48" height="48" viewBox="0 0 12.7 12.7"><path fill="#e6e6e6" d="M6.344.073a6.29 6.29 0 0 0-6.29 6.29 6.29 6.29 0 0 0 6.29 6.288 6.29 6.29 0 0 0 6.29-6.289 6.29 6.29 0 0 0-6.29-6.29zm-.018.936a5.407 5.407 0 0 1 5.407 5.407 5.407 5.407 0 0 1-5.407 5.407A5.407 5.407 0 0 1 .92 6.416 5.407 5.407 0 0 1 6.326 1.01zm.025.761c-.844 0-1.528.684-1.528 1.527v3.636a2.29 2.29 0 1 0 3.054 0V3.297c0-.843-.683-1.527-1.526-1.527zm-.382 3.053h.763v2.739a1.145 1.145 0 0 1 .763 1.078A1.145 1.145 0 0 1 6.35 9.785 1.145 1.145 0 0 1 5.205 8.64 1.145 1.145 0 0 1 5.97 7.56z"/><path fill="#ff2a2a" d="M5.969 4.823v2.738a1.145 1.145 0 0 0-.764 1.079A1.145 1.145 0 0 0 6.35 9.785 1.145 1.145 0 0 0 7.495 8.64a1.145 1.145 0 0 0-.763-1.078V4.823z" opacity=".75"/></svg>