<svg xmlns="http://www.w3.org/2000/svg" width="48" height="48" viewBox="0 0 12.7 12.7">
  <defs>
    <clipPath id="a"/>
  </defs>
  <path fill="#e6e6e6" d="M6.34431561.07286377a6.28928043 6.28928043 0 0 0-6.2895386 6.2895385 6.28928043 6.28928043 0 0 0 6.2895386 6.28902166 6.28928043 6.28928043 0 0 0 6.28902167-6.28902167A6.28928043 6.28928043 0 0 0 6.3443156.07286376zm-.01808691.93637693a5.40704372 5.40704372 0 0 1 4.10827638 1.90117593l-8.22223705-.00103346A5.40704372 5.40704372 0 0 1 6.3262287 1.0092407zM1.60817055 3.77961414h1.08572193c.02973388 0 .06144366.00618596.0883666.01808692.04216003.01939925.0850384.05818505.1157552.09818502.01419755.01980142.03009848.04781365.04082442.07131368.02406915.05579983.04082441.12825386.04082441.19740377v4.39249682c0 .06919992-.01676135.14159388-.04082441.19740403-.0107262.0235003-.02663746.05183003-.04082441.07183014-.03071998.04080008-.0735936.0796851-.11575521.09818529-.02692003.008001-.05863458.01808665-.0883666.01808665H1.5497762a5.40704372 5.40704372 0 0 1-.30695802-.6976319V4.59196779a5.40704372 5.40704372 0 0 1 .36535238-.81235364zm2.05930577.00155046c.01196446-.00201083.0217223 0 .03410638 0h7.33857002a5.40704372 5.40704372 0 0 1 .69298105 2.63498115 5.40704372 5.40704372 0 0 1-.63096906 2.52801117H3.7015827c-.02973388 0-.06144763-.00566923-.0883666-.01757018-.04216612-.01860021-.08503946-.05808557-.1157552-.09818503-.01419755-.0198993-.03009133-.04791366-.04082442-.07131367-.02406915-.05579983-.04082441-.12830387-.04082441-.19740404V4.25348712c.00487547.00752396.01221105.01366547.02222103.01395254.01571598.00020002.02165905-.0118716.01291907-.02687161-.01578028-.02678721-.02874248-.02696263-.0351401-.01240235v-.06097825c0-.0690999.01676135-.14160394.0408244-.19740404.01071828-.02350029.02662344-.05183028.04082442-.07183014.03071204-.04080007.07359439-.07960201.11575521-.09870202.01570567-.00600075.0375113-.0155866.05426022-.01808665zm-.08940006.54725331c-.00511784.00280009-.00378196.0102124.00258366.0211873.02522378.04360017.30789826.20303305.71468508.40359304.6269376.3091598 1.17637796.67985983 1.51618657 1.02215975.10454163.10537005.18956416.20359132.1891358.21859134-.0004392.01505003-.03659531.08254497-.08061536.14934485-.04402455.06708008-.11208808.20580826-.15089505.3085084-.06283007.16618003-.07183517.23307172-.08319929.60978176l-.01291907.42322988-.08526595.08629967c-.14564545.14721999-.2062861.23602394-.20825618.30282409-.00268314.09179983.04881456.1023583.21445722.04495853.07940702-.02370005.1546389-.04674024.16691504-.0351401.0345559.02275998.02437024.10252683-.04030768.31832681-.032698.10919989-.05260181.21781214-.0444418.2408121.00817192.02309998.02251948.04223465.03203946.04237461.00953002.00015002.14650164-.10173943.30437401-.2268593.15787158-.12491005.31510367-.24745156.34933281-.27285156.05983976-.04470003.07566316-.04316016.41754557.03513984.33995942.07559993.38406493.08381656 1.0040731.0868164.35670304.00320014.72227677-.00618727.81183664-.0211873l.16278066-.0268716.30540775.14159335c.41233803.19100985.63428747.27146461.69453124.25476464.12453038-.03551978.08708152-.1815539-.11472148-.44493391-.15581974-.20367016-.12485053-.22675876.17828365-.13435886.29855769.0918001.3961429.10714646.42116295.06924649.03803598-.05767996-.00699717-.15156815-.16433111-.34364824-.26647193-.32532002-.25217887-.3998034.10490305-.5648235.47215319-.21832993.83991026-.4254357.99270422-.55965565.13017606-.11416003.15304611-.14767692.15554616-.23047695.01074288-.36572005-.33600178-.59706404-1.19527583-.7978841-.17275254-.04060005-.32518059-.0778002-.33848066-.08940033-.0132961-.00876988-.02973017-.1106858-.0366903-.22582584-.02425383-.40152002-.0931979-.5599795-.25889902-.59737969-.07122742-.0161999-.09972913-.00638942-.16588131.05581068-.10701497.10092002-.1375582.28434903-.08474922.5064289.05106987.21475012.05123339.24336269.00361738.24236256-.02267505-.00067997-.08761227-.0959313-.14882812-.21859133-.1674659-.33561999-.26279924-.41873276-.40204257-.34933255-.12275106.0611198-.18090938.32916362-.12247324.5663737.02262293.09184983.01472565.11636797-.09766856.30695793l-.12195625.20773919-.22530937.00103346c-.15684394.00120015-.38045098-.02878508-.73742258-.09818502-.69360811-.13450014-.79006223-.13783998-1.0097574-.0351401-.09583262.0453001-.1874192.07441167-.20360535.06201171-.01618138-.01065-.14094169-.1190154-.27698567-.24029537-.4841711-.43198997-.81227109-.6259949-1.44435617-.85524498-.236134-.08564986-.52362152-.20179876-.63872056-.25889876-.16014118-.07912523-.23269363-.10968593-.24804687-.10128594zm-2.33732514.26923418v3.64112144a5.40704372 5.40704372 0 0 1-.32194418-1.82262778 5.40704372 5.40704372 0 0 1 .32194418-1.81849366zm10.15441872.52451581c-.009026.00007594-.02325555.0079711-.04340807.02377123-.05217504.04074001-.21449082.35641253-.21549069.4196125-.00110516.06635008.06889115-.02269623.1922362-.24494623.07122001-.12955508.09374081-.1986653.06666256-.1984375zm-.37878808.12298998c-.03051995-.00100013-.06171247.08761835-.06511237.18551842-.00329988.09462982.04416002.03778726.07027995-.08423275.01306989-.06160002.01113234-.10082583-.00516758-.10128567zm-1.083138.44286698c.05820357-.0046011.09454514.04977818.08423248.14262682-.00935963.08245581-.02241709.10191195-.0790649.10490332-.132216.01153002-.1823511-.14872546-.06976322-.22272545.02338705-.01537494.04515247-.02326772.06459564-.02480469zm-.31470944.21755762c.00683498-.01306619.03477154.00666459.07958164.06717956.02718329.03650006.08521594.07389944.12919101.08629967.04398301.01159986.07998143.03135842.07958164.04495826-.00040402.01070002-.0435303.0232209-.09560136.02222103-.07790154-.00260006-.10340684-.01908413-.14521074-.09198398-.03989123-.07015003-.05437744-.1156081-.04754219-.12867454zm.64905598.50642916c.02606993-.00225002.03433948.0096401.03358965.0351401-.0005961.02069995-.0618691.0614336-.13590905.09043353v.00155046c-.25397274.10016992-.28861623.031682-.03875722-.07699799.07104036-.03149996.11500643-.04787609.14107662-.0501261zm.10800371.1772502c.03278002.01225364.02855092.0744765-.0232545.12660708-.08959188.09027002-.21869187.1538224-.2392619.1178224-.01793584-.03095995.13115792-.19391153.21755787-.23771145.0187825-.0093726.03400743-.01081167.04495853-.00671804zM2.102714 9.79061666h8.44134498a5.40704372 5.40704372 0 0 1-4.21783028 2.03243416A5.40704372 5.40704372 0 0 1 2.102714 9.79061667z"/>
</svg>
