<?xml version="1.0" encoding="UTF-8" standalone="no"?>
<!-- Created with Inkscape (http://www.inkscape.org/) -->

<svg
   xmlns:dc="http://purl.org/dc/elements/1.1/"
   xmlns:cc="http://creativecommons.org/ns#"
   xmlns:rdf="http://www.w3.org/1999/02/22-rdf-syntax-ns#"
   xmlns:svg="http://www.w3.org/2000/svg"
   xmlns="http://www.w3.org/2000/svg"
   xmlns:sodipodi="http://sodipodi.sourceforge.net/DTD/sodipodi-0.dtd"
   xmlns:inkscape="http://www.inkscape.org/namespaces/inkscape"
   width="48"
   height="48"
   viewBox="0 0 12.7 12.7"
   version="1.1"
   id="svg829"
   inkscape:version="0.92.3 (2405546, 2018-03-11)"
   sodipodi:docname="xfce4-panel.svg">
  <defs
     id="defs823">
    <clipPath
       clipPathUnits="userSpaceOnUse"
       id="clipPath927">
      <g
         id="use929"
         inkscape:label="Clip">
        <path
           inkscape:connector-curvature="0"
           style="fill:#2ca089;stroke-width:0.04113208"
           d="m -5.7439193,283.47477 -10.9563497,10.95625 0.303419,0.30344 0.772914,-0.77193 0.772904,0.77193 -0.772904,0.77291 1.158933,1.15899 0.772903,-0.77206 0.772915,0.77206 -0.772915,0.7729 0.386017,0.38597 10.9563553,-10.95542 z m -0.6077207,1.2145 0.7729092,0.7729 -0.7729092,0.77303 -0.7720389,-0.77303 z m -1.5449483,1.54593 0.7729094,0.77193 -0.7729094,0.77291 -0.7729089,-0.77291 z m 3.4767859,0.38596 0.772909,0.7729 -0.772909,0.77291 -0.7720391,-0.77291 z m -5.0226039,1.15888 0.7729091,0.7729 -0.7729091,0.7729 -0.7729097,-0.7729 z m 3.4776558,0.38693 0.772909,0.77205 -0.772909,0.77291 -0.7729089,-0.77291 z m -5.0226005,1.15887 0.772035,0.7729 -0.772035,0.77206 -0.772914,-0.77206 z m 3.4767826,0.38609 0.772909,0.7729 -0.772909,0.7729 -0.7729089,-0.7729 z m -5.0225996,1.15887 0.772903,0.77291 -0.772903,0.7729 -0.772915,-0.7729 z m 3.4776512,0.38693 0.7720395,0.77291 -0.7720395,0.77205 -0.7729089,-0.77205 z m -5.0234692,1.15888 0.772903,0.7729 -0.772903,0.77302 -0.772046,-0.77302 z m 3.477653,0.38608 0.7729073,0.77291 -0.7729073,0.7729 -0.772915,-0.7729 z m -1.545818,1.54581 0.772903,0.7729 -0.772903,0.77291 -0.772034,-0.77291 z"
           id="path970" />
        <path
           inkscape:connector-curvature="0"
           style="fill:#1a1a1a;fill-opacity:1;stroke-width:0.1389506"
           d="m -9.5487714,285.30924 a 5.4070438,5.4070438 0 0 1 5.4069053,5.40691 5.4070438,5.4070438 0 0 1 -5.4069053,5.4069 5.4070438,5.4070438 0 0 1 -5.4074216,-5.4069 5.4070438,5.4070438 0 0 1 5.4074216,-5.40691 z"
           id="path972" />
      </g>
    </clipPath>
    <clipPath
       clipPathUnits="userSpaceOnUse"
       id="clipPath944">
      <g
         inkscape:label="Clip"
         id="use946"
         transform="translate(0,-3.9583333e-6)">
        <g
           clip-path="url(#clipPath927)"
           id="g959">
          <g
             id="g957"
             inkscape:label="Clip">
            <path
               inkscape:connector-curvature="0"
               style="fill:#2ca089;stroke-width:0.04113208"
               d="m -5.7439193,283.47477 -10.9563497,10.95625 0.303419,0.30344 0.772914,-0.77193 0.772904,0.77193 -0.772904,0.77291 1.158933,1.15899 0.772903,-0.77206 0.772915,0.77206 -0.772915,0.7729 0.386017,0.38597 10.9563553,-10.95542 z m -0.6077207,1.2145 0.7729092,0.7729 -0.7729092,0.77303 -0.7720389,-0.77303 z m -1.5449483,1.54593 0.7729094,0.77193 -0.7729094,0.77291 -0.7729089,-0.77291 z m 3.4767859,0.38596 0.772909,0.7729 -0.772909,0.77291 -0.7720391,-0.77291 z m -5.0226039,1.15888 0.7729091,0.7729 -0.7729091,0.7729 -0.7729097,-0.7729 z m 3.4776558,0.38693 0.772909,0.77205 -0.772909,0.77291 -0.7729089,-0.77291 z m -5.0226005,1.15887 0.772035,0.7729 -0.772035,0.77206 -0.772914,-0.77206 z m 3.4767826,0.38609 0.772909,0.7729 -0.772909,0.7729 -0.7729089,-0.7729 z m -5.0225996,1.15887 0.772903,0.77291 -0.772903,0.7729 -0.772915,-0.7729 z m 3.4776512,0.38693 0.7720395,0.77291 -0.7720395,0.77205 -0.7729089,-0.77205 z m -5.0234692,1.15888 0.772903,0.7729 -0.772903,0.77302 -0.772046,-0.77302 z m 3.477653,0.38608 0.7729073,0.77291 -0.7729073,0.7729 -0.772915,-0.7729 z m -1.545818,1.54581 0.772903,0.7729 -0.772903,0.77291 -0.772034,-0.77291 z"
               id="path953" />
            <path
               inkscape:connector-curvature="0"
               style="fill:#1a1a1a;fill-opacity:1;stroke-width:0.1389506"
               d="m -9.5487714,285.30924 a 5.4070438,5.4070438 0 0 1 5.4069053,5.40691 5.4070438,5.4070438 0 0 1 -5.4069053,5.4069 5.4070438,5.4070438 0 0 1 -5.4074216,-5.4069 5.4070438,5.4070438 0 0 1 5.4074216,-5.40691 z"
               id="path955" />
          </g>
        </g>
      </g>
    </clipPath>
    <clipPath
       clipPathUnits="userSpaceOnUse"
       id="clipPath978">
      <path
         inkscape:connector-curvature="0"
         style="fill:#1a1a1a;fill-opacity:1;stroke-width:0.1389506"
         d="m -9.5487715,285.30924 a 5.4070438,5.4070438 0 0 1 5.4069054,5.40691 5.4070438,5.4070438 0 0 1 -5.4069054,5.4069 5.4070438,5.4070438 0 0 1 -5.4074215,-5.4069 5.4070438,5.4070438 0 0 1 5.4074215,-5.40691 z"
         id="path980" />
    </clipPath>
  </defs>
  <sodipodi:namedview
     id="base"
     pagecolor="#ffffff"
     bordercolor="#666666"
     borderopacity="1.0"
     inkscape:pageopacity="0.0"
     inkscape:pageshadow="2"
     inkscape:zoom="2.796875"
     inkscape:cx="24"
     inkscape:cy="24"
     inkscape:document-units="mm"
     inkscape:current-layer="layer1"
     showgrid="false"
     showguides="true"
     inkscape:guide-bbox="true"
     inkscape:window-width="1366"
     inkscape:window-height="714"
     inkscape:window-x="0"
     inkscape:window-y="25"
     inkscape:window-maximized="1"
     scale-x="1.9"
     units="px"
     inkscape:snap-global="true" />
  <metadata
     id="metadata826">
    <rdf:RDF>
      <cc:Work
         rdf:about="">
        <dc:format>image/svg+xml</dc:format>
        <dc:type
           rdf:resource="http://purl.org/dc/dcmitype/StillImage" />
        <dc:title></dc:title>
      </cc:Work>
    </rdf:RDF>
  </metadata>
  <g
     inkscape:label="Capa 1"
     inkscape:groupmode="layer"
     id="layer1"
     transform="translate(0,-284.3)">
    <path
       style="fill:#1a1a1a;fill-opacity:1;stroke-width:0.52516764"
       d="M 23.978516 0.27539062 A 23.770509 23.770509 0 0 0 0.20703125 24.046875 A 23.770509 23.770509 0 0 0 23.978516 47.816406 A 23.770509 23.770509 0 0 0 47.748047 24.046875 A 23.770509 23.770509 0 0 0 23.978516 0.27539062 z M 23.910156 3.8144531 A 20.436071 20.436071 0 0 1 39.4375 11 L 8.3613281 10.996094 A 20.436071 20.436071 0 0 1 23.910156 3.8144531 z M 6.078125 14.285156 L 10.181641 14.285156 C 10.294021 14.285156 10.413869 14.308536 10.515625 14.353516 C 10.67497 14.426836 10.83703 14.573428 10.953125 14.724609 C 11.006785 14.799449 11.066883 14.905322 11.107422 14.994141 C 11.198392 15.205038 11.261719 15.47888 11.261719 15.740234 L 11.261719 32.341797 C 11.261719 32.60334 11.198369 32.876955 11.107422 33.087891 C 11.066882 33.176711 11.006745 33.283784 10.953125 33.359375 C 10.837018 33.51358 10.674976 33.660547 10.515625 33.730469 C 10.41388 33.760709 10.294014 33.798828 10.181641 33.798828 L 5.8574219 33.798828 A 20.436071 20.436071 0 0 1 4.6972656 31.162109 L 4.6972656 17.355469 A 20.436071 20.436071 0 0 1 6.078125 14.285156 z M 13.861328 14.291016 C 13.906548 14.283416 13.943428 14.291016 13.990234 14.291016 L 41.726562 14.291016 A 20.436071 20.436071 0 0 1 44.345703 24.25 A 20.436071 20.436071 0 0 1 41.960938 33.804688 L 13.990234 33.804688 C 13.877854 33.804688 13.757991 33.783261 13.65625 33.738281 C 13.496882 33.667981 13.334841 33.518745 13.21875 33.367188 C 13.16509 33.291978 13.105019 33.186097 13.064453 33.097656 C 12.973483 32.886759 12.910156 32.612728 12.910156 32.351562 L 12.910156 16.076172 C 12.928583 16.104609 12.956308 16.127821 12.994141 16.128906 C 13.05354 16.129662 13.076002 16.084037 13.042969 16.027344 C 12.983327 15.926101 12.934336 15.925438 12.910156 15.980469 L 12.910156 15.75 C 12.910156 15.488835 12.973506 15.214804 13.064453 15.003906 C 13.104963 14.915086 13.165077 14.808012 13.21875 14.732422 C 13.334827 14.578217 13.496902 14.431564 13.65625 14.359375 C 13.71561 14.336695 13.798025 14.300465 13.861328 14.291016 z M 13.523438 16.359375 C 13.504095 16.369958 13.509144 16.397973 13.533203 16.439453 C 13.628537 16.604241 14.696913 17.206822 16.234375 17.964844 C 18.603903 19.133322 20.680528 20.534393 21.964844 21.828125 C 22.359962 22.226374 22.681307 22.597604 22.679688 22.654297 C 22.678028 22.711179 22.541375 22.966278 22.375 23.21875 C 22.208608 23.472281 21.95136 23.996608 21.804688 24.384766 C 21.56722 25.012848 21.533185 25.265667 21.490234 26.689453 L 21.441406 28.289062 L 21.119141 28.615234 C 20.56867 29.171656 20.339477 29.507293 20.332031 29.759766 C 20.32189 30.106726 20.516527 30.146632 21.142578 29.929688 C 21.442699 29.840113 21.72704 29.753032 21.773438 29.796875 C 21.904043 29.882897 21.865546 30.184378 21.621094 31 C 21.497511 31.412724 21.422284 31.823227 21.453125 31.910156 C 21.484011 31.997463 21.538238 32.069783 21.574219 32.070312 C 21.610238 32.070879 22.127926 31.685785 22.724609 31.212891 C 23.321289 30.74079 23.915552 30.277641 24.044922 30.181641 C 24.271088 30.012696 24.330893 30.018516 25.623047 30.314453 C 26.907933 30.600185 27.074631 30.63124 29.417969 30.642578 C 30.766138 30.654673 32.147834 30.619193 32.486328 30.5625 L 33.101562 30.460938 L 34.255859 30.996094 C 35.814302 31.718021 36.653166 32.022102 36.880859 31.958984 C 37.351525 31.824736 37.209986 31.272796 36.447266 30.277344 C 35.858341 29.507567 35.97539 29.420303 37.121094 29.769531 C 38.249501 30.116492 38.618327 30.174494 38.712891 30.03125 C 38.856649 29.813247 38.686445 29.458394 38.091797 28.732422 C 37.084659 27.502866 37.13868 27.221354 38.488281 26.597656 C 40.272797 25.772472 41.662745 24.98971 42.240234 24.482422 C 42.732238 24.050951 42.818676 23.924273 42.828125 23.611328 C 42.868728 22.229079 41.558197 21.354708 38.310547 20.595703 C 37.657624 20.442254 37.081518 20.301655 37.03125 20.257812 C 36.980997 20.224666 36.918884 19.839472 36.892578 19.404297 C 36.80091 17.886741 36.540334 17.287839 35.914062 17.146484 C 35.644856 17.085256 35.537133 17.122335 35.287109 17.357422 C 34.882643 17.738852 34.767204 18.432127 34.966797 19.271484 C 35.159817 20.083138 35.160435 20.19128 34.980469 20.1875 C 34.894768 20.18493 34.649336 19.824925 34.417969 19.361328 C 33.785027 18.092843 33.424712 17.778716 32.898438 18.041016 C 32.434497 18.27202 32.214686 19.285099 32.435547 20.181641 C 32.521051 20.52879 32.491203 20.621457 32.066406 21.341797 L 31.605469 22.126953 L 30.753906 22.130859 C 30.16111 22.135395 29.315981 22.022065 27.966797 21.759766 C 25.345286 21.251419 24.980735 21.238796 24.150391 21.626953 C 23.788189 21.798166 23.442035 21.908194 23.380859 21.861328 C 23.319701 21.821076 22.848166 21.411506 22.333984 20.953125 C 20.504046 19.320407 19.263983 18.58716 16.875 17.720703 C 15.982525 17.396987 14.895958 16.957999 14.460938 16.742188 C 13.85568 16.443132 13.581466 16.327627 13.523438 16.359375 z M 4.6894531 17.376953 L 4.6894531 31.138672 A 20.436071 20.436071 0 0 1 3.4726562 24.25 A 20.436071 20.436071 0 0 1 4.6894531 17.376953 z M 43.068359 19.359375 C 43.034245 19.359662 42.980464 19.389502 42.904297 19.449219 C 42.7071 19.603197 42.093623 20.79629 42.089844 21.035156 C 42.085667 21.285928 42.35022 20.949375 42.816406 20.109375 C 43.085584 19.619718 43.170702 19.358514 43.068359 19.359375 z M 41.636719 19.824219 C 41.521368 19.820439 41.403475 20.155375 41.390625 20.525391 C 41.378153 20.883047 41.557529 20.668209 41.65625 20.207031 C 41.705648 19.974212 41.698325 19.825957 41.636719 19.824219 z M 37.542969 21.498047 C 37.762951 21.480657 37.900305 21.686185 37.861328 22.037109 C 37.825953 22.348753 37.776602 22.422288 37.5625 22.433594 C 37.062786 22.477172 36.873299 21.871482 37.298828 21.591797 C 37.38722 21.533687 37.469483 21.503856 37.542969 21.498047 z M 36.353516 22.320312 C 36.379349 22.270928 36.484936 22.345501 36.654297 22.574219 C 36.757037 22.712172 36.976373 22.853524 37.142578 22.900391 C 37.308813 22.944233 37.44487 23.018911 37.443359 23.070312 C 37.441832 23.110753 37.278835 23.158076 37.082031 23.154297 C 36.7876 23.14447 36.691202 23.082168 36.533203 22.806641 C 36.382433 22.541507 36.327682 22.369697 36.353516 22.320312 z M 38.806641 24.234375 C 38.905173 24.225871 38.936428 24.27081 38.933594 24.367188 C 38.931341 24.445424 38.699758 24.599378 38.419922 24.708984 L 38.419922 24.714844 C 37.460025 25.093439 37.329089 24.834587 38.273438 24.423828 C 38.541937 24.304773 38.708108 24.242879 38.806641 24.234375 z M 39.214844 24.904297 C 39.338737 24.95061 39.322753 25.185783 39.126953 25.382812 C 38.788338 25.72399 38.300401 25.964188 38.222656 25.828125 C 38.154867 25.711111 38.718371 25.095231 39.044922 24.929688 C 39.115911 24.894264 39.173454 24.888825 39.214844 24.904297 z M 7.9472656 37.003906 L 39.851562 37.003906 A 20.436071 20.436071 0 0 1 23.910156 44.685547 A 20.436071 20.436071 0 0 1 7.9472656 37.003906 z "
       transform="matrix(0.26458333,0,0,0.26458333,0,284.3)"
       id="path842" />
  </g>
</svg>
