<svg xmlns="http://www.w3.org/2000/svg" width="48" height="48" viewBox="0 0 12.7 12.7">
  <path fill="#e6e6e6" d="M6.3443156.07286A6.2892804 6.2892804 0 0 0 .05477702 6.3624a6.2892804 6.2892804 0 0 0 6.28953858 6.28902A6.2892804 6.2892804 0 0 0 12.633337 6.3624 6.2892804 6.2892804 0 0 0 6.3443156.07286zm-.018087.93638a5.4070437 5.4070437 0 0 1 5.4069054 5.40691 5.4070437 5.4070437 0 0 1-5.4069054 5.4069 5.4070437 5.4070437 0 0 1-5.40742176-5.4069A5.4070437 5.4070437 0 0 1 6.3262286 1.00924zm.024289.76119c-.8431442 0-1.5270384.68339-1.5270384 1.52653v3.63595c-.4684993.4193-.7637777 1.0292-.7637777 1.70739 0 1.26475 1.0260999 2.28928 2.2908161 2.28927 1.264716 0 2.2897828-1.02452 2.2897828-2.28927 0-.67819-.294762-1.2881-.763261-1.70739V3.29696c0-.84314-.6833775-1.52653-1.5265218-1.52653zm-.3818895 3.05305h.7632608v2.73833a1.1449925 1.1449925 0 0 1 .7632609 1.07797 1.1449925 1.1449925 0 0 1-1.1451497 1.14515 1.1449925 1.1449925 0 0 1-1.144633-1.14515 1.1449925 1.1449925 0 0 1 .763261-1.07848z"/>
  <path fill="#ff2a2a" d="M5.9686283 4.82348V7.5613a1.1449926 1.1449926 0 0 0-.763261 1.07848 1.1449926 1.1449926 0 0 0 1.144633 1.14515 1.1449926 1.1449926 0 0 0 1.145149-1.14515 1.1449926 1.1449926 0 0 0-.763261-1.07797V4.82348z" opacity=".75"/>
</svg>
