<svg xmlns="http://www.w3.org/2000/svg" width="48" height="48" viewBox="0 0 12.7 12.7">
  <path fill="#e6e6e6" d="M6.3443156.07286A6.2892804 6.2892804 0 0 0 .05477702 6.3624a6.2892804 6.2892804 0 0 0 6.28953858 6.28902A6.2892804 6.2892804 0 0 0 12.633337 6.3624 6.2892804 6.2892804 0 0 0 6.3443156.07286zm-.018087.93638a5.4070437 5.4070437 0 0 1 5.4069054 5.40691 5.4070437 5.4070437 0 0 1-5.4069054 5.4069 5.4070437 5.4070437 0 0 1-5.40742176-5.4069A5.4070437 5.4070437 0 0 1 6.3262286 1.00924z"/>
  <path fill="#ff2a2a" d="M3.1342441 3.67749c-.4475789 0-.8080294.36045-.8080294.80804v3.72896c0 .44757.3604505.80801.8080294.80801h6.4315117c.4475792 0 .8080292-.36044.8080292-.80801V4.48553c0-.44758-.36045-.80804-.8080292-.80804zm2.344952 1.32154l2.0117441 1.29118-2.0718405 1.41077z" opacity=".75" paint-order="markers fill stroke"/>
</svg>
