<svg xmlns="http://www.w3.org/2000/svg" version="1" viewBox="0 0 24 24"><g fill="gray"><path d="M11.37 2A9.4 9.4 0 0 0 2 11.38a9.4 9.4 0 0 0 11.25 9.19v-2.58a6.97 6.97 0 0 1-1.88.26 6.86 6.86 0 0 1-6.87-6.87 6.85 6.85 0 0 1 6.87-6.88A6.86 6.86 0 0 1 18 13.25h2.57A9.37 9.37 0 0 0 11.37 2zm3.71 5a.63.63 0 0 0-.09.02.63.63 0 0 0-.31.2l-3.32 3.31-2.07-2.06a.63.63 0 1 0-.86.86l2.5 2.5a.63.63 0 0 0 .86 0l3.75-3.75a.63.63 0 0 0-.46-1.07z" font-weight="400" overflow="visible" style="font-variant-ligatures:normal;font-variant-position:normal;font-variant-caps:normal;font-variant-numeric:normal;font-variant-alternates:normal;font-feature-settings:normal;text-indent:0;text-decoration-line:none;text-decoration-style:solid;text-decoration-color:#000;text-transform:none;text-orientation:mixed;shape-padding:0;isolation:auto;mix-blend-mode:normal" color="#000" white-space="normal"/><path d="M17 14.51v2.5h-2.5v2.5H17V22h2.5v-2.5H22V17h-2.5v-2.5z" overflow="visible" color="#bebebe"/></g></svg>