<svg xmlns="http://www.w3.org/2000/svg" width="24" height="24" version="1"><path fill="gray" d="M5.152 1.457c-.76 0-1.735.586-1.826 1.307l-1.805 14.37c-.013 0-.021.003-.021.014h21c0-.01-.008-.014-.021-.014l-1.805-14.37c-.09-.721-1.065-1.307-1.826-1.307zm3.652 1.911h6.392v5.479h2.84L12 15.237l-6.036-6.39h2.84zM22.5 17.891l-21 .002c.424 3.693.213 3.635 1.05 3.635 6.681 0 18.557.044 18.859 0 .77 0 .665-.55 1.091-3.637zm-15.978.375a1.562 1.44 0 0 1 1.562 1.44 1.562 1.44 0 0 1-1.562 1.442 1.562 1.44 0 0 1-1.562-1.441 1.562 1.44 0 0 1 1.562-1.441zm5.478 0a1.562 1.44 0 0 1 1.562 1.44A1.562 1.44 0 0 1 12 21.149a1.562 1.44 0 0 1-1.562-1.441A1.562 1.44 0 0 1 12 18.266zm5.478 0a1.562 1.44 0 0 1 1.562 1.44 1.562 1.44 0 0 1-1.562 1.442 1.562 1.44 0 0 1-1.562-1.441 1.562 1.44 0 0 1 1.562-1.441z"/></svg>