<?xml version="1.0" encoding="UTF-8" standalone="no"?>
<svg
   xmlns:dc="http://purl.org/dc/elements/1.1/"
   xmlns:cc="http://creativecommons.org/ns#"
   xmlns:rdf="http://www.w3.org/1999/02/22-rdf-syntax-ns#"
   xmlns:svg="http://www.w3.org/2000/svg"
   xmlns="http://www.w3.org/2000/svg"
   xmlns:sodipodi="http://sodipodi.sourceforge.net/DTD/sodipodi-0.dtd"
   xmlns:inkscape="http://www.inkscape.org/namespaces/inkscape"
   width="48"
   height="48"
   viewBox="0 0 12.7 12.7"
   version="1.1"
   id="svg8"
   inkscape:version="1.0.1 (3bc2e813f5, 2020-09-07)"
   sodipodi:docname="ncalayer-white.svg">
  <defs
     id="defs2" />
  <sodipodi:namedview
     id="base"
     pagecolor="#ffffff"
     bordercolor="#666666"
     borderopacity="1.0"
     inkscape:pageopacity="0.0"
     inkscape:pageshadow="2"
     inkscape:zoom="1.4142136"
     inkscape:cx="211.45381"
     inkscape:cy="73.123622"
     inkscape:document-units="px"
     inkscape:current-layer="layer3"
     showgrid="true"
     inkscape:window-width="1920"
     inkscape:window-height="1001"
     inkscape:window-x="0"
     inkscape:window-y="0"
     inkscape:window-maximized="1"
     showguides="true"
     inkscape:guide-bbox="true"
     inkscape:document-rotation="0"
     inkscape:showpageshadow="false"
     showborder="false"
     units="px">
    <inkscape:grid
       type="xygrid"
       id="grid917" />
  </sodipodi:namedview>
  <metadata
     id="metadata5">
    <rdf:RDF>
      <cc:Work
         rdf:about="">
        <dc:format>image/svg+xml</dc:format>
        <dc:type
           rdf:resource="http://purl.org/dc/dcmitype/StillImage" />
        <dc:title />
      </cc:Work>
    </rdf:RDF>
  </metadata>
  <g
     inkscape:groupmode="layer"
     id="layer3"
     inkscape:label="Задний фон"
     transform="translate(0,87)">
    <path
       id="path1040"
       style="fill:#e6e6e6;stroke:none;stroke-width:0.32508;fill-opacity:1"
       d="m 6.349999,-85.147916 a 4.3091359,4.0333183 0 0 0 -4.250903,4.032829 4.3091359,4.0333183 0 0 0 0.361218,1.616438 l 0.760677,-0.380338 a 3.4498176,3.229003 0 0 1 -0.262516,-1.2361 3.4498176,3.229003 0 0 1 3.449918,-3.228744 3.4498176,3.229003 0 0 1 3.449919,3.228744 3.4498176,3.229003 0 0 1 -1.690336,2.777607 l 0.365352,0.731222 a 4.3091359,4.0333183 0 0 0 2.184363,-3.508829 4.3091359,4.0333183 0 0 0 -4.309298,-4.032829 4.3091359,4.0333183 0 0 0 -0.05839,0 z m 0,1.769401 a 2.4966629,1.9873733 0 0 0 -2.495972,1.987475 2.4966629,1.9873733 0 0 0 1.437639,1.799374 v 3.621484 h 1.058333 0.529167 v -0.529167 H 6.349999 v -0.264583 h 0.529167 v -0.529167 H 6.349999 v -1.769401 -0.341581 -0.410828 a 1.9797468,1.575902 0 0 1 -1.979207,-1.576131 1.9797468,1.575902 0 0 1 1.943033,-1.575614 1.9797468,1.575902 0 0 1 0.03617,0 1.9797468,1.575902 0 0 1 1.979724,1.575614 1.9797468,1.575902 0 0 1 -0.974617,1.358057 l 0.223242,0.371553 a 2.4966629,1.9873733 0 0 0 1.268139,-1.72961 2.4966629,1.9873733 0 0 0 -2.496488,-1.987475 z m -0.05581,-3.621454 a 6.3499999,6.3499999 0 0 0 -6.294189,6.35 6.3499999,6.3499999 0 0 0 6.35,6.35 6.3499999,6.3499999 0 0 0 6.35,-6.35 6.3499999,6.3499999 0 0 0 -6.35,-6.35 6.3499999,6.3499999 0 0 0 -0.055811,0 z m 0.05581,0.796334 a 5.5534916,5.5534916 0 0 1 5.553666,5.553666 5.5534916,5.5534916 0 0 1 -5.553666,5.553666 5.5534916,5.5534916 0 0 1 -5.553666,-5.553666 5.5534916,5.5534916 0 0 1 5.553666,-5.553666 z" />
  </g>
</svg>
