<svg xmlns="http://www.w3.org/2000/svg" width="48" height="48" viewBox="0 0 12.7 12.7"><path fill="#e6e6e6" d="M6.344.07a6.29 6.29 0 0 0-6.29 6.29 6.29 6.29 0 0 0 6.29 6.288 6.29 6.29 0 0 0 6.29-6.289A6.29 6.29 0 0 0 6.343.07zm-.018.936a5.407 5.407 0 0 1 5.407 5.407 5.407 5.407 0 0 1-5.407 5.407A5.407 5.407 0 0 1 .92 6.413a5.407 5.407 0 0 1 5.407-5.407z"/><path fill="maroon" d="M2.69 3.65h1.541l2.157 1.926 2.08-1.926h1.541v5.393H8.47V5.96l-1.926 1.54h-.386l-1.926-1.54v3.081h-1.54z" opacity=".75"/></svg>