<svg xmlns="http://www.w3.org/2000/svg" width="48" height="48" viewBox="0 0 12.7 12.7"><g fill="#e6e6e6"><path d="M6.344.07A6.29 6.29 0 0 0 .055 6.36a6.29 6.29 0 0 0 6.29 6.288 6.29 6.29 0 0 0 6.288-6.289A6.29 6.29 0 0 0 6.345.07zm-.018.936a5.407 5.407 0 0 1 5.407 5.407 5.407 5.407 0 0 1-5.407 5.407A5.407 5.407 0 0 1 .92 6.413a5.407 5.407 0 0 1 5.407-5.407z"/><g color="#000" solid-color="#000000" style="isolation:auto;mix-blend-mode:normal"><path d="M6.442 2.402c-2.145 0-3.91 1.412-4.103 3.473H1.3l1.537 1.93 1.536-1.93H3.369c.19-1.502 1.495-2.466 3.073-2.466 1.707 0 3.094 1.364 3.094 3.045 0 1.68-1.387 3.044-3.094 3.044A3.11 3.11 0 0 1 4.116 8.46l-.752.686a4.136 4.136 0 0 0 3.078 1.359c2.273 0 4.118-1.815 4.118-4.052 0-2.236-1.845-4.051-4.118-4.051z" solid-color="#000000" style="isolation:auto;mix-blend-mode:normal"/><path d="M6.701 3.946h-.386l-.385 2.7L7.859 8.19v-.386L6.701 6.26z" solid-color="#000000" style="isolation:auto;mix-blend-mode:normal"/></g></g></svg>