<?xml version="1.0" encoding="UTF-8" standalone="no"?>
<svg
   xmlns:dc="http://purl.org/dc/elements/1.1/"
   xmlns:cc="http://creativecommons.org/ns#"
   xmlns:rdf="http://www.w3.org/1999/02/22-rdf-syntax-ns#"
   xmlns:svg="http://www.w3.org/2000/svg"
   xmlns="http://www.w3.org/2000/svg"
   xmlns:sodipodi="http://sodipodi.sourceforge.net/DTD/sodipodi-0.dtd"
   xmlns:inkscape="http://www.inkscape.org/namespaces/inkscape"
   width="48"
   height="48"
   viewBox="0 0 12.7 12.7"
   version="1.1"
   id="svg4"
   sodipodi:docname="folder-html.svg"
   inkscape:version="0.92.4 (5da689c313, 2019-01-14)">
  <metadata
     id="metadata10">
    <rdf:RDF>
      <cc:Work
         rdf:about="">
        <dc:format>image/svg+xml</dc:format>
        <dc:type
           rdf:resource="http://purl.org/dc/dcmitype/StillImage" />
        <dc:title></dc:title>
      </cc:Work>
    </rdf:RDF>
  </metadata>
  <defs
     id="defs8" />
  <sodipodi:namedview
     pagecolor="#ffffff"
     bordercolor="#666666"
     borderopacity="1"
     objecttolerance="10"
     gridtolerance="10"
     guidetolerance="10"
     inkscape:pageopacity="0"
     inkscape:pageshadow="2"
     inkscape:window-width="1085"
     inkscape:window-height="480"
     id="namedview6"
     showgrid="false"
     inkscape:zoom="4.9166667"
     inkscape:cx="2.1355932"
     inkscape:cy="24"
     inkscape:window-x="0"
     inkscape:window-y="25"
     inkscape:window-maximized="0"
     inkscape:current-layer="svg4" />
  <path
     d="M 5.9,0.07 V 0.1 A 6.25,6.25 0 0 0 0.06,5.9 v 0 0.83 h 0.01 a 6.25,6.25 0 0 0 5.83,5.82 v 0.02 h 0.83 v -0.02 a 6.25,6.25 0 0 0 5.82,-5.82 h 0.01 V 5.9 H 12.55 A 6.25,6.25 0 0 0 6.73,0.09 V 0.07 H 6.3 Z m 0,0.89 V 3.41 H 3.84 C 4.3,2.1 5.04,1.19 5.89,0.96 Z m 0.83,0 c 0.85,0.23 1.6,1.15 2.04,2.45 H 6.73 Z M 3.97,1.44 C 3.57,1.97 3.23,2.64 2.99,3.41 H 1.74 A 5.45,5.45 0 0 1 3.97,1.44 Z m 4.68,0 a 5.45,5.45 0 0 1 2.23,1.97 H 9.6300003 A 6.59,6.59 0 0 0 8.65,1.44 Z M 1.3,4.24 H 2.76 A 9.9,9.9 0 0 0 2.56,5.91 H 0.90000003 A 5.37,5.37 0 0 1 1.3,4.24 Z m 2.3,0 H 5.9 V 5.91 H 3.4 A 9.32,9.32 0 0 1 3.62,4.24 Z m 3.12,0 H 9 c 0.12,0.52 0.2,1.08 0.22,1.67 h -2.5 z m 3.1200003,0 H 11.31 c 0.21,0.52 0.35,1.08 0.4,1.67 H 10.04 A 9.9,9.9 0 0 0 9.8400003,4.24 Z M 0.91000003,6.74 H 2.57 c 0.02,0.58 0.1,1.14 0.2,1.67 H 1.31 A 5.37,5.37 0 0 1 0.91000003,6.74 Z M 3.41,6.74 H 5.89 V 8.41 H 3.62 A 9.32,9.32 0 0 1 3.4,6.74 Z m 3.32,0 h 2.5 A 9.24,9.24 0 0 1 9,8.41 H 6.73 Z m 3.32,0 h 1.66 a 5.35,5.35 0 0 1 -0.4,1.67 H 9.8600003 A 9.9,9.9 0 0 0 10.06,6.74 Z m -8.3,2.5 h 1.24 c 0.25,0.77 0.58,1.44 0.98,1.98 A 5.45,5.45 0 0 1 1.74,9.24 Z m 2.1,0 H 5.9 v 2.45 C 5.04,11.46 4.3,10.54 3.85,9.24 Z m 2.88,0 h 2.04 c -0.45,1.3 -1.19,2.22 -2.04,2.45 z m 2.9000003,0 H 10.88 a 5.45,5.45 0 0 1 -2.23,1.97 c 0.4,-0.53 0.74,-1.2 0.9800003,-1.97 z"
     font-weight="400"
     overflow="visible"
     style="color:#000000;font-weight:400;line-height:normal;font-family:'Andale Mono';text-indent:0;text-align:start;text-decoration:none;text-decoration-line:none;text-transform:none;overflow:visible;fill:#e6e6e6;marker:none"
     id="path2"
     inkscape:connector-curvature="0" />
</svg>
