<svg xmlns="http://www.w3.org/2000/svg" width="48" height="48" viewBox="0 0 12.7 12.7"><path fill="#963996" d="M6.344.073a6.29 6.29 0 0 0-6.289 6.29 6.29 6.29 0 0 0 6.29 6.288 6.29 6.29 0 0 0 6.288-6.289A6.29 6.29 0 0 0 6.344.072zm-.018.936a5.407 5.407 0 0 1 5.407 5.407 5.407 5.407 0 0 1-5.407 5.407A5.407 5.407 0 0 1 .92 6.416 5.407 5.407 0 0 1 6.326 1.01zM2.784 3.06a.643.643 0 0 0-.645.644v1.074c0 .017.004.033.006.049v3.143h-.006v1.006c0 .357.287.644.644.644h7.181a.643.643 0 0 0 .644-.644v-.862h.001V3.778H5.946l-.72-.719H2.785zm.3 1.442h7.513l.003.49H3.38v.952c0 .182-.12.328-.27.328-.15 0-.27-.146-.27-.328V4.829c0-.016.006-.03.008-.046-.002-.013-.008-.024-.008-.037 0-.125.095-.224.216-.239.01 0 .019-.006.03-.006z"/></svg>
