<?xml version="1.0" encoding="UTF-8" standalone="no"?>
<svg
   xmlns:dc="http://purl.org/dc/elements/1.1/"
   xmlns:cc="http://creativecommons.org/ns#"
   xmlns:rdf="http://www.w3.org/1999/02/22-rdf-syntax-ns#"
   xmlns:svg="http://www.w3.org/2000/svg"
   xmlns="http://www.w3.org/2000/svg"
   xmlns:sodipodi="http://sodipodi.sourceforge.net/DTD/sodipodi-0.dtd"
   xmlns:inkscape="http://www.inkscape.org/namespaces/inkscape"
   width="48"
   height="48"
   version="1"
   id="svg11"
   sodipodi:docname="hub.svg"
   inkscape:version="0.92.4 (5da689c313, 2019-01-14)">
  <metadata
     id="metadata15">
    <rdf:RDF>
      <cc:Work
         rdf:about="">
        <dc:format>image/svg+xml</dc:format>
        <dc:type
           rdf:resource="http://purl.org/dc/dcmitype/StillImage" />
        <dc:title></dc:title>
      </cc:Work>
    </rdf:RDF>
  </metadata>
  <sodipodi:namedview
     pagecolor="#ffffff"
     bordercolor="#666666"
     borderopacity="1"
     objecttolerance="10"
     gridtolerance="10"
     guidetolerance="10"
     inkscape:pageopacity="0"
     inkscape:pageshadow="2"
     inkscape:window-width="1087"
     inkscape:window-height="480"
     id="namedview13"
     showgrid="false"
     inkscape:zoom="4.9166667"
     inkscape:cx="2.1355932"
     inkscape:cy="24"
     inkscape:window-x="0"
     inkscape:window-y="25"
     inkscape:window-maximized="0"
     inkscape:current-layer="svg11" />
  <defs
     id="defs7">
    <linearGradient
       id="a">
      <stop
         offset="0"
         stop-color="#040000"
         id="stop2" />
      <stop
         offset="1"
         stop-opacity="0"
         id="stop4" />
    </linearGradient>
  </defs>
  <path
     d="M 24,0.23 A 23.77,23.77 0 0 0 0.23,24.01 23.77,23.77 0 0 0 24,47.77 23.77,23.77 0 0 0 47.77,24 23.77,23.77 0 0 0 24,0.23 Z M 23.93,3.77 A 20.44,20.44 0 0 1 44.37,24.21 20.44,20.44 0 0 1 23.93,44.64 20.44,20.44 0 0 1 3.5,24.21 20.44,20.44 0 0 1 23.93,3.77 Z m 0,3 A 17.44,17.44 0 0 0 6.5,24.22 17.44,17.44 0 0 0 23.93,41.66 17.44,17.44 0 0 0 41.37,24.2 17.44,17.44 0 0 0 23.93,6.77 Z m -0.4,6.59 H 24 l 0.07,0.07 v 2.2 h 0.04 c 0.48,-0.96 1.4,-1.67 2.75,-2.14 0.42,-0.09 0.74,-0.13 0.99,-0.13 h 0.45 c 1.4,0 2.6,0.66 3.64,1.99 0.56,0.82 0.84,1.7 0.84,2.62 v 0.07 c 0,1.8 -0.87,3.18 -2.59,4.16 -0.65,0.33 -1.34,0.5 -2.06,0.5 h -0.07 c -1.6,0 -2.92,-0.76 -3.95,-2.25 a 4.47,4.47 0 0 1 -0.67,-2.23 v -4.8 l 0.07,-0.06 z m -3.52,0.1 a 5.77,5.77 0 0 1 2.28,4.57 v 0.08 a 5.6,5.6 0 0 1 -2.33,4.58 l -0.04,-0.05 v -0.77 c 0,-0.12 0.15,-0.34 0.47,-0.64 a 4.65,4.65 0 0 0 1.08,-2.68 v -0.1 h -9.93 c 0,1.03 0.52,2.12 1.56,3.29 v 0.9 h -0.09 c -1.5,-1.25 -2.24,-2.7 -2.24,-4.31 v -0.52 c 0,-1.6 0.75,-3.04 2.24,-4.31 h 0.09 v 0.9 c -1.04,1.17 -1.56,2.27 -1.56,3.28 h 9.93 V 17.6 c 0,-1.03 -0.52,-2.1 -1.55,-3.2 v -0.86 l 0.09,-0.09 z m 8.09,0.53 c -1.65,0 -2.88,0.81 -3.7,2.44 -0.21,0.47 -0.32,1 -0.32,1.57 v 0.1 c 0,1.55 0.8,2.75 2.38,3.61 0.55,0.23 1.11,0.35 1.68,0.35 1.63,0 2.88,-0.84 3.73,-2.51 0.2,-0.58 0.28,-1.1 0.28,-1.58 0,-1.51 -0.75,-2.71 -2.27,-3.6 A 4.33,4.33 0 0 0 28.2,14 H 28.1 Z M 10.38,24.5 h 19.75 c 0.15,0 0.28,0.13 0.28,0.29 0,0.15 -0.13,0.28 -0.28,0.28 H 10.38 a 0.28,0.28 0 0 1 -0.29,-0.28 c 0,-0.16 0.13,-0.29 0.29,-0.29 z"
     id="path9"
     inkscape:connector-curvature="0"
     style="fill:#2ca02c" />
</svg>
