<svg xmlns="http://www.w3.org/2000/svg" width="48" height="48" viewBox="0 0 12.7 12.7"><path d="M6.34.07a6.29 6.29 0 0 0-6.29 6.3 6.29 6.29 0 0 0 6.3 6.28 6.29 6.29 0 0 0 6.28-6.29A6.29 6.29 0 0 0 6.34.07zM6.32 1l.01.01a5.4 5.4 0 0 1 5.4 5.4 5.4 5.4 0 0 1-5.4 5.41 5.4 5.4 0 0 1-5.41-5.4A5.4 5.4 0 0 1 6.32 1zm2.26 1.65c-.84.02-1.02.65-1.06 1.03l-.06.3c-1.08.18-.96 1.28-.3 1.3-.06-.57.21-.92.32-1.03.1.6.6 1.05 1.23 1.05.58 0 1.08-.4 1.2-.96.11.18.28.55.24.94 1.04 0 .53-1.2-.2-1.33l-.03-.18a1.27 1.27 0 0 0-1.34-1.12zm-4.68.17c-.3 0-.69.24-.9.42-.26.23-.06.42-.06.8a1.21 1.21 0 1 0 2.43 0c0-.42.15-.8-.18-1.02-.19-.14-1.04-.2-1.3-.2zm4.83.72v.48c.2.05.85-.02.85-.02l.02.02v.03a.9.9 0 0 1-1.79.02c.18-.07.31-.37.31-.37s.1.03.1.38c.2.06.51-.54.51-.54zm-4.67.23s-.2.27-.02.18c.38-.13.8-.08 1.02-.03l.01.14c0 .5-.4.9-.89.9a.9.9 0 0 1-.87-1.05c.22-.04.38.04.38.04l.37-.18zm3.82 1.65L6.42 7.18l-1.4-1.73H3.4L1.73 7.29l.35.36 1.2-1.02v1.99h.24v1.5h-.15v.19h.7V8.62h.26v1.69h.7v-.18h-.16V8.62h.3V6.66l.96 1 .39-.1.22.05 1.09-1.25.06.5-1.01 1.73h1.16v1.52H7.9v.17h.7V8.6h.26v1.69h.7v-.17h-.16V8.59h.9l-.88-1.73.04-.61.86 1.14.56-.14-1.35-1.83H7.87z" fill="#1a1a1a"/></svg>