<svg xmlns="http://www.w3.org/2000/svg" width="48" height="48" viewBox="0 0 12.7 12.7"><path fill="#1a1a1a" d="M6.344.073a6.29 6.29 0 0 0-6.29 6.29 6.29 6.29 0 0 0 6.29 6.288 6.29 6.29 0 0 0 6.29-6.289 6.29 6.29 0 0 0-6.29-6.29zm-.018.936a5.407 5.407 0 0 1 5.407 5.407 5.407 5.407 0 0 1-5.407 5.407A5.407 5.407 0 0 1 .92 6.416 5.407 5.407 0 0 1 6.326 1.01zm2.327 1.276L6.417 6.38l.177.273 1.635.003v.72H8.16a.245.245 0 0 0-.245.245v2.472c0 .137.11.246.245.246h.869c.136 0 .246-.11.246-.246V7.621a.245.245 0 0 0-.246-.246h-.103v-.718l1.616.003.202-.292-2.091-4.083zm-4.381.468c-.662.032-1.497.564-2.29 1.672 0 0 2.362-1.208 2.362.727v1.873h-.236s-.236 0-.236.236v2.836c0 .236.236.236.236.236h1.418s.236 0 .236-.236V7.261c0-.236-.236-.236-.236-.236H5.29V5.046c.004-.22.137-.813.701-.813l.48.429h.71V2.77h-.71l-.48.324s-1.058-.373-1.72-.342z"/></svg>