<svg xmlns="http://www.w3.org/2000/svg" version="1" viewBox="0 0 24 24"><path fill="#5beedc" d="M4.5.5c-.83 0-1.9.64-2 1.43L.52 17.67l-.02.01h23l-.02-.01L21.5 1.93c-.1-.79-1.17-1.43-2-1.43h-15zm4 2.1h7v6h3.11l-6.61 7-6.61-7H8.5v-6zm15 15.9H.5c.46 4.05.23 3.98 1.15 3.98 7.32 0 20.32.05 20.65 0 .85 0 .73-.6 1.2-3.98zM6 18.91a1.71 1.58 0 0 1 1.71 1.58A1.71 1.58 0 0 1 6 22.07a1.71 1.58 0 0 1-1.71-1.58A1.71 1.58 0 0 1 6 18.9zm6 0a1.71 1.58 0 0 1 1.71 1.58A1.71 1.58 0 0 1 12 22.07a1.71 1.58 0 0 1-1.71-1.58A1.71 1.58 0 0 1 12 18.9zm6 0a1.71 1.58 0 0 1 1.71 1.58A1.71 1.58 0 0 1 18 22.07a1.71 1.58 0 0 1-1.71-1.58A1.71 1.58 0 0 1 18 18.9z"/></svg>
