<svg xmlns="http://www.w3.org/2000/svg" width="24" height="24" id="svg9"><defs id="defs3"><style id="current-color-scheme"/></defs><path d="M3.52 4.25A1.52 1.52 0 0 0 2 5.77v2.54l.02.11v7.42H2v2.39c0 .85.68 1.52 1.52 1.52H20.5a1.52 1.52 0 0 0 1.5-1.52V5.95H11l-1.7-1.7zm.7 3.4h17.76v1.17H4.92v2.25c0 .42-.28.77-.64.77-.35 0-.63-.35-.63-.77V8.43l.02-.1-.02-.09c0-.3.22-.53.5-.57l.08-.01zm11.9 3.66h3.33v2.5h2.5v3.33h-2.5v2.5h-3.33v-2.5h-2.5v-3.33h2.5v-2.5z" id="path2" fill="#5beedc" stroke-width=".83"/></svg>
