<svg xmlns="http://www.w3.org/2000/svg" width="24" height="24" id="svg9"><defs id="defs3"><style id="current-color-scheme"/></defs><path d="M3.52 4.25A1.52 1.52 0 0 0 2 5.77v2.54l.02.11v7.42H2v2.39c0 .85.68 1.52 1.52 1.52H20.5a1.52 1.52 0 0 0 1.5-1.52V5.95H11l-1.7-1.7H3.52zm.7 3.4h17.76v1.17H4.92v2.25c0 .42-.28.77-.64.77-.35 0-.63-.35-.63-.77V8.43l.02-.1-.02-.09c0-.3.22-.53.5-.57l.08-.01v-.01zm15.3 3.69l2.37 2.33-1.75 1.78 1.78 1.75-2.33 2.38-1.78-1.75-1.75 1.79-2.38-2.34 1.75-1.78-1.79-1.75 2.34-2.38 1.78 1.75 1.75-1.78z" id="path819" fill="#5beedc"/></svg>
