<svg xmlns="http://www.w3.org/2000/svg" width="24" height="24"><defs><style id="current-color-scheme"></style></defs><path d="M6 4a2 2 0 0 0-2 2v12c0 1.1.9 2 2 2h12a2 2 0 0 0 2-2V6a2 2 0 0 0-2-2H6zm1.71 2h8.58c.95 0 1.71.77 1.71 1.71v8.58c0 .95-.76 1.71-1.71 1.71H7.7C6.77 18 6 17.24 6 16.29V7.7C6 6.77 6.77 6 7.71 6zm3.03 1l-.11 1.32a3.96 3.93 0 0 0-1.16.66l-1.2-.56L7 10.58l1.1.76a3.96 3.93 0 0 0-.06.66 3.96 3.93 0 0 0 .06.67l-1.1.75 1.26 2.16 1.2-.56a3.96 3.93 0 0 0 1.17.66l.11 1.32h2.52l.11-1.32a3.96 3.93 0 0 0 1.16-.66l1.21.56L17 13.42l-1.1-.76a3.96 3.93 0 0 0 .06-.66 3.96 3.93 0 0 0-.05-.67l1.1-.75-1.27-2.16-1.2.56a3.96 3.93 0 0 0-1.17-.66L13.27 7h-2.53zM12 10.57A1.44 1.43 0 0 1 13.44 12 1.44 1.43 0 0 1 12 13.43 1.44 1.43 0 0 1 10.56 12 1.44 1.43 0 0 1 12 10.57z" fill="currentColor" color="#5beedc"/></svg>
