<svg xmlns="http://www.w3.org/2000/svg" width="24" height="24"><path d="M12 2.02a6 6 0 0 0-6 6 6 6 0 0 0 .004.128A4 4 0 0 0 3 12.02a4 4 0 0 0 4 4h2v-1H7a3 3 0 0 1-3-3 3 3 0 0 1 3-3 3 3 0 0 1 .107.005A5 5 0 0 1 7 8.02a5 5 0 0 1 5-5 5 5 0 0 1 4.92 4.11A4 4 0 0 1 20 11.02a4 4 0 0 1-4 4v1a5 5 0 0 0 5-5 5 5 0 0 0-3.242-4.676A6 6 0 0 0 12 2.02zm0 8.255a3.429 3.429 0 0 0-3.428 3.428h1.713A1.72 1.72 0 0 1 12 11.988a1.714 1.714 0 0 1 1.715 1.715c0 .472-.189.9-.506 1.21l-1.063 1.08a3.454 3.454 0 0 0-1.003 2.425v.428h1.714c0-1.286.385-1.8 1.002-2.426l.772-.787a2.73 2.73 0 0 0 .797-1.93A3.429 3.429 0 0 0 12 10.275zM11.984 20a.982.982 0 0 0-.984.984v.032c0 .545.439.984.984.984h.032a.982.982 0 0 0 .984-.984v-.032a.982.982 0 0 0-.984-.984h-.032z" fill="#2c89a0"/></svg>
