<svg xmlns="http://www.w3.org/2000/svg" width="48" height="48" viewBox="0 0 12.7 12.7"><path d="M6.34.07a6.29 6.29 0 0 0-6.29 6.3 6.29 6.29 0 0 0 6.3 6.28 6.29 6.29 0 0 0 6.28-6.29A6.29 6.29 0 0 0 6.34.07zm-.01.94a5.4 5.4 0 0 1 5.4 5.4 5.4 5.4 0 0 1-5.4 5.41 5.4 5.4 0 0 1-5.41-5.4A5.4 5.4 0 0 1 6.32 1zm-.26.67c-1.95 0-3.55 1.77-3.52 3.37a8.17 8.17 0 0 0 .25 1.9c0 .06.02.13.04.19l.26.8c.18.57.73.93 1.22.79.5-.14.74-.72.56-1.3l-.25-.79c-.18-.56-.7-.91-1.19-.8-.03-.42-.02-.71-.02-.71a2.6 2.6 0 0 1 2.65-2.55 2.6 2.6 0 0 1 2.65 2.58 8.35 8.35 0 0 1-.03.67c-.47-.06-.95.28-1.12.81l-.25.8c-.18.57.07 1.15.56 1.29.5.14 1.04-.22 1.23-.8l.51.19v1.03c-.01.3-.1.5-.2.62a.53.53 0 0 1-.42.17H7.27a.59.59 0 0 0-.58-.6h-.01a.59.59 0 0 0-.59.6.59.59 0 0 0 .59.59H9c.32 0 .64-.12.86-.37.22-.24.34-.6.34-1.01l.02-1.45-.93-.34.05-.17.02-.05v-.01a7.1 7.1 0 0 0 .27-2.02c0-1.67-1.61-3.43-3.56-3.43z" fill="#ff7f2a"/></svg>