<svg xmlns="http://www.w3.org/2000/svg" width="48" height="48" viewBox="0 0 12.7 12.7"><g fill="#ff7f2a"><path d="M6.34.07a6.29 6.29 0 0 0-6.29 6.3 6.29 6.29 0 0 0 6.3 6.28 6.29 6.29 0 0 0 6.28-6.29A6.29 6.29 0 0 0 6.34.07zm-.01.94a5.4 5.4 0 0 1 5.4 5.4 5.4 5.4 0 0 1-5.4 5.41 5.4 5.4 0 0 1-5.41-5.4A5.4 5.4 0 0 1 6.32 1z"/><path d="M6.34 1.88c-1.78 0-3.22.37-3.22.83v7.24c0 .46 1.43.83 3.22.83 1.78 0 3.22-.37 3.22-.83V2.72c0-.47-1.44-.84-3.22-.84zM8.3 3.04a.52.54 0 0 1 .52.55.52.54 0 0 1-.52.54.52.54 0 0 1-.53-.54.52.54 0 0 1 .53-.55zm-3.9 0a.52.54 0 0 1 .52.55.52.54 0 0 1-.53.54.52.54 0 0 1-.52-.54.52.54 0 0 1 .52-.54zm1.94 2.11a2.08 2.08 0 0 1 2.09 2.09 2.08 2.08 0 0 1-2.09 2.08 2.08 2.08 0 0 1-2.08-2.08 2.08 2.08 0 0 1 2.08-2.09zm0 .31a1.8 1.8 0 0 0-1.8 1.8 1.8 1.8 0 0 0 1.8 1.79 1.8 1.8 0 0 0 1.8-1.8 1.8 1.8 0 0 0-1.8-1.79zm.01.57a1.22 1.24 0 0 1 1.22 1.24A1.22 1.24 0 0 1 6.35 8.5a1.22 1.24 0 0 1-1.22-1.24 1.22 1.24 0 0 1 1.22-1.24z"/></g></svg>