<?xml version="1.0" encoding="UTF-8" standalone="no"?><svg xmlns:dc="http://purl.org/dc/elements/1.1/" xmlns:cc="http://creativecommons.org/ns#" xmlns:rdf="http://www.w3.org/1999/02/22-rdf-syntax-ns#" xmlns="http://www.w3.org/2000/svg" width="48" height="48" viewBox="0 0 12.7 12.7"><metadata><rdf:RDF><cc:Work><dc:format>image/svg+xml</dc:format><dc:type rdf:resource="http://purl.org/dc/dcmitype/StillImage"/><dc:title/></cc:Work></rdf:RDF></metadata><path fill="#1a1a1a" d="M6.34.07a6.29 6.29 0 0 0-6.29 6.3 6.29 6.29 0 0 0 6.3 6.28 6.29 6.29 0 0 0 6.28-6.29A6.29 6.29 0 0 0 6.34.07zm-.01.94a5.4 5.4 0 0 1 5.4 5.4 5.4 5.4 0 0 1-5.4 5.41 5.4 5.4 0 0 1-5.41-5.4A5.4 5.4 0 0 1 6.32 1zm.02.31l-.47.02-.3 1.5a3.6 3.6 0 0 0-.69.23L3.8 2.02c-.28.16-.52.37-.76.58l.65 1.37a3.63 3.63 0 0 0-.43.59l-1.5-.2a4.96 4.96 0 0 0-.3.91L2.79 6a3.47 3.47 0 0 0-.02.36c0 .13 0 .24.02.36l-1.32.72c.07.32.16.62.29.92l1.5-.2c.13.2.27.4.43.58l-.65 1.37c.24.21.48.42.76.58l1.1-1.05c.22.1.46.17.7.22l.29 1.5a5.11 5.11 0 0 0 .94 0l.3-1.5c.23-.05.47-.12.69-.22l1.1 1.05c.28-.16.52-.37.76-.58l-.65-1.37c.16-.18.3-.38.43-.58l1.5.2a4.96 4.96 0 0 0 .3-.92L9.91 6.7a3.5 3.5 0 0 0 .02-.36l-.02-.36 1.32-.72a4.96 4.96 0 0 0-.29-.92l-1.5.2a3.63 3.63 0 0 0-.43-.58l.65-1.37a4.99 4.99 0 0 0-.76-.58L7.8 3.07a3.6 3.6 0 0 0-.7-.22l-.29-1.5a5.11 5.11 0 0 0-.47-.03zm.03 2a3.03 3.03 0 0 1 3.03 3.03 3.03 3.03 0 0 1-3.03 3.02 3.03 3.03 0 0 1-3.03-3.02 3.03 3.03 0 0 1 3.03-3.03zm-.22.22a2.81 2.81 0 0 0-2.62 2.62v.38a2.81 2.81 0 0 0 2.62 2.61h.38a2.81 2.81 0 0 0 2.62-2.61v-.38a2.81 2.81 0 0 0-2.62-2.62h-.38zm0 .4v1.1h-.92c.2-.59.54-1 .92-1.1zm.38 0c.38.1.72.51.92 1.1h-.92v-1.1zm-1.24.21c-.18.24-.33.54-.44.89H4.3c.24-.38.59-.7 1-.89zm2.1 0c.41.2.76.5 1 .89h-.56a2.97 2.97 0 0 0-.44-.89zM4.1 5.41h.66c-.05.24-.08.5-.1.75h-.74c.02-.26.08-.51.18-.75zm1.04 0h1.02v.75H5.04c.01-.26.05-.51.1-.75zm1.4 0h1.02c.05.24.09.49.1.75H6.54v-.75zm1.4 0h.66c.1.24.16.49.18.75h-.75a4.45 4.45 0 0 0-.09-.75zM3.92 6.54h.75c0 .26.04.51.09.75H4.1a2.42 2.42 0 0 1-.18-.75zm1.12 0h1.12v.75H5.14a4.19 4.19 0 0 1-.1-.75zm1.5 0h1.12a4.1 4.1 0 0 1-.1.75H6.54v-.75zm1.5 0h.74c-.02.26-.08.51-.18.75h-.66c.05-.24.08-.5.1-.75zM4.28 7.66h.57c.1.35.26.65.44.89a2.45 2.45 0 0 1-1-.89zm.95 0h.92v1.1c-.38-.1-.71-.51-.92-1.1zm1.3 0h.92c-.2.59-.54 1-.92 1.1v-1.1zm1.3 0h.56a2.45 2.45 0 0 1-1 .89c.18-.24.33-.54.44-.89z"/></svg>