<?xml version="1.0" encoding="UTF-8" standalone="no"?>
<!-- Created with Inkscape (http://www.inkscape.org/) -->

<svg
   xmlns:dc="http://purl.org/dc/elements/1.1/"
   xmlns:cc="http://creativecommons.org/ns#"
   xmlns:rdf="http://www.w3.org/1999/02/22-rdf-syntax-ns#"
   xmlns:svg="http://www.w3.org/2000/svg"
   xmlns="http://www.w3.org/2000/svg"
   xmlns:sodipodi="http://sodipodi.sourceforge.net/DTD/sodipodi-0.dtd"
   xmlns:inkscape="http://www.inkscape.org/namespaces/inkscape"
   id="svg2"
   width="24"
   height="24"
   version="1.0"
   sodipodi:docname="emblem-music.svg"
   inkscape:version="0.92.3 (2405546, 2018-03-11)">
  <metadata
     id="metadata25">
    <rdf:RDF>
      <cc:Work
         rdf:about="">
        <dc:format>image/svg+xml</dc:format>
        <dc:type
           rdf:resource="http://purl.org/dc/dcmitype/StillImage" />
        <dc:title></dc:title>
      </cc:Work>
    </rdf:RDF>
  </metadata>
  <sodipodi:namedview
     pagecolor="#ffffff"
     bordercolor="#666666"
     borderopacity="1"
     objecttolerance="10"
     gridtolerance="10"
     guidetolerance="10"
     inkscape:pageopacity="0"
     inkscape:pageshadow="2"
     inkscape:window-width="1366"
     inkscape:window-height="690"
     id="namedview23"
     showgrid="false"
     inkscape:zoom="19.666667"
     inkscape:cx="5.4486688"
     inkscape:cy="12"
     inkscape:window-x="0"
     inkscape:window-y="28"
     inkscape:window-maximized="1"
     inkscape:current-layer="svg2" />
  <defs
     id="defs4">
    <linearGradient
       id="linearGradient2407"
       x1="63.397"
       x2="63.397"
       y1="-12.489"
       y2="5.4676"
       gradientTransform="matrix(1.0863 0 0 1.0862 -55.567 15.814)"
       gradientUnits="userSpaceOnUse">
      <stop
         id="stop4875"
         style="stop-color:#fff"
         offset="0" />
      <stop
         id="stop4877"
         style="stop-color:#fff;stop-opacity:0"
         offset="1" />
    </linearGradient>
    <radialGradient
       id="radialGradient2410"
       cx="23.896"
       cy="3.99"
       r="20.397"
       gradientTransform="matrix(0,1.2316,-1.6257,0,-1.513,-28.721)"
       gradientUnits="userSpaceOnUse">
      <stop
         id="stop3244"
         style="stop-color:#f8b17e"
         offset="0" />
      <stop
         id="stop3246"
         style="stop-color:#e35d4f"
         offset=".26238" />
      <stop
         id="stop3248"
         style="stop-color:#c6262e"
         offset=".66094" />
      <stop
         id="stop3250"
         style="stop-color:#690b54"
         offset="1" />
    </radialGradient>
    <linearGradient
       id="linearGradient2412"
       x1="18.379"
       x2="18.379"
       y1="44.98"
       y2="3.0816"
       gradientTransform="matrix(0.51604,0,0,0.51604,-20.38499,-0.38499)"
       gradientUnits="userSpaceOnUse">
      <stop
         id="stop2492"
         style="stop-color:#791235"
         offset="0" />
      <stop
         id="stop2494"
         style="stop-color:#dd3b27"
         offset="1" />
    </linearGradient>
    <radialGradient
       id="radialGradient2415"
       cx="62.625"
       cy="4.625"
       r="10.625"
       gradientTransform="matrix(1.1294 0 0 .28235 -58.729 19.694)"
       gradientUnits="userSpaceOnUse">
      <stop
         id="stop8840"
         offset="0" />
      <stop
         id="stop8842"
         style="stop-opacity:0"
         offset="1" />
    </radialGradient>
  </defs>
  <g
     id="g834">
    <path
       inkscape:connector-curvature="0"
       id="path2555"
       d="m 12,1.5018 c -5.7926,0 -10.498,4.7057 -10.498,10.498 0,5.7926 4.7057,10.498 10.498,10.498 5.7926,0 10.498,-4.7057 10.498,-10.498 C 22.498,6.2072 17.7923,1.5018 12,1.5018 Z"
       style="fill:#666666;fill-opacity:1;stroke:none;stroke-width:1.00370002;stroke-linecap:round;stroke-linejoin:round" />
    <path
       style="opacity:1;fill:#ffffff;fill-opacity:1;stroke:none;stroke-width:0.54479635;stroke-linecap:round;stroke-linejoin:round;stroke-miterlimit:4;stroke-dasharray:none;stroke-opacity:1"
       id="path3406"
       d="m 16.574825,4.2899266 c -2.332734,0.3717826 -4.671928,0.705663 -7.0028307,1.0869424 -0.6344257,0.317296 -0.4074019,1.12315 -0.448279,1.6916017 0,2.4594443 0,4.9188893 0,7.3783323 -1.6288869,-0.361809 -3.5087739,0.904731 -3.5227005,2.625204 -0.073341,1.104856 0.9962912,2.020338 2.0723476,1.919154 1.4586339,-0.07455 2.6565546,-1.48275 2.5003736,-2.986406 0,-2.459711 0,-5.302743 0,-7.7624531 1.923742,-0.276451 4.069093,-0.5805039 5.992758,-0.8574771 0,1.89611 0,4.1755402 0,6.0716532 -1.560863,-0.448151 -3.527232,0.579179 -3.785877,2.221484 -0.216266,0.967831 0.462339,1.940594 1.389272,2.217193 1.735115,0.566844 3.690838,-1.104992 3.486199,-2.892804 -0.0048,-3.353421 0.01461,-6.7068491 0,-10.0602587 -0.04077,-0.3333242 -0.316977,-0.6690195 -0.681263,-0.6521657 z"
       inkscape:connector-curvature="0" />
  </g>
</svg>
