<?xml version="1.0" encoding="UTF-8" standalone="no"?>
<!-- Created with Inkscape (http://www.inkscape.org/) -->

<svg
   xmlns:dc="http://purl.org/dc/elements/1.1/"
   xmlns:cc="http://creativecommons.org/ns#"
   xmlns:rdf="http://www.w3.org/1999/02/22-rdf-syntax-ns#"
   xmlns:svg="http://www.w3.org/2000/svg"
   xmlns="http://www.w3.org/2000/svg"
   xmlns:sodipodi="http://sodipodi.sourceforge.net/DTD/sodipodi-0.dtd"
   xmlns:inkscape="http://www.inkscape.org/namespaces/inkscape"
   id="svg2"
   width="24"
   height="24"
   version="1.0"
   sodipodi:docname="emblem-synchronizing.svg"
   inkscape:version="0.92.3 (2405546, 2018-03-11)">
  <metadata
     id="metadata25">
    <rdf:RDF>
      <cc:Work
         rdf:about="">
        <dc:format>image/svg+xml</dc:format>
        <dc:type
           rdf:resource="http://purl.org/dc/dcmitype/StillImage" />
        <dc:title></dc:title>
      </cc:Work>
    </rdf:RDF>
  </metadata>
  <sodipodi:namedview
     pagecolor="#ffffff"
     bordercolor="#666666"
     borderopacity="1"
     objecttolerance="10"
     gridtolerance="10"
     guidetolerance="10"
     inkscape:pageopacity="0"
     inkscape:pageshadow="2"
     inkscape:window-width="1366"
     inkscape:window-height="690"
     id="namedview23"
     showgrid="false"
     inkscape:zoom="9.8333333"
     inkscape:cx="-13.06327"
     inkscape:cy="16.067797"
     inkscape:window-x="0"
     inkscape:window-y="28"
     inkscape:window-maximized="1"
     inkscape:current-layer="svg2" />
  <defs
     id="defs4">
    <linearGradient
       id="linearGradient2407"
       x1="63.397"
       x2="63.397"
       y1="-12.489"
       y2="5.4676"
       gradientTransform="matrix(1.0863 0 0 1.0862 -55.567 15.814)"
       gradientUnits="userSpaceOnUse">
      <stop
         id="stop4875"
         style="stop-color:#fff"
         offset="0" />
      <stop
         id="stop4877"
         style="stop-color:#fff;stop-opacity:0"
         offset="1" />
    </linearGradient>
    <radialGradient
       id="radialGradient2410"
       cx="23.896"
       cy="3.99"
       r="20.397"
       gradientTransform="matrix(0,1.2316,-1.6257,0,-1.513,-28.721)"
       gradientUnits="userSpaceOnUse">
      <stop
         id="stop3244"
         style="stop-color:#f8b17e"
         offset="0" />
      <stop
         id="stop3246"
         style="stop-color:#e35d4f"
         offset=".26238" />
      <stop
         id="stop3248"
         style="stop-color:#c6262e"
         offset=".66094" />
      <stop
         id="stop3250"
         style="stop-color:#690b54"
         offset="1" />
    </radialGradient>
    <linearGradient
       id="linearGradient2412"
       x1="18.379"
       x2="18.379"
       y1="44.98"
       y2="3.0816"
       gradientTransform="matrix(0.51604,0,0,0.51604,-20.38499,-0.38499)"
       gradientUnits="userSpaceOnUse">
      <stop
         id="stop2492"
         style="stop-color:#791235"
         offset="0" />
      <stop
         id="stop2494"
         style="stop-color:#dd3b27"
         offset="1" />
    </linearGradient>
    <radialGradient
       id="radialGradient2415"
       cx="62.625"
       cy="4.625"
       r="10.625"
       gradientTransform="matrix(1.1294 0 0 .28235 -58.729 19.694)"
       gradientUnits="userSpaceOnUse">
      <stop
         id="stop8840"
         offset="0" />
      <stop
         id="stop8842"
         style="stop-opacity:0"
         offset="1" />
    </radialGradient>
  </defs>
  <g
     id="g833">
    <path
       inkscape:connector-curvature="0"
       id="path2555"
       d="m 12,1.5018 c -5.7926,0 -10.498,4.7057 -10.498,10.498 0,5.7926 4.7057,10.498 10.498,10.498 5.7926,0 10.498,-4.7057 10.498,-10.498 C 22.498,6.2072 17.7923,1.5018 12,1.5018 Z"
       style="fill:#666666;fill-opacity:1;stroke:none;stroke-width:1.00370002;stroke-linecap:round;stroke-linejoin:round" />
    <g
       id="g6"
       font-weight="400"
       style="font-weight:400;font-family:Sans;fill:#ffffff"
       transform="translate(3.8983051,4.0000004)">
      <path
         id="path2"
         style="color:#bebebe;text-indent:0;text-decoration:none;text-decoration-line:none;text-transform:none;overflow:visible;fill:#ffffff"
         overflow="visible"
         d="m 14.902,2 a 1.047,1.047 0 0 0 -0.125,0.032 c -0.447,0.1 -0.793,0.542 -0.782,1 V 4.719 C 14,6.032 14,6.032 12.433,6.032 h -1.438 c -0.523,0 -1,0.476 -1,1 a 1,1 0 0 0 0,0.218 v 0.782 h 6 v -5 a 0.979,0.979 0 0 0 0,-0.188 V 2.032 H 15.183 A 1.002,1.002 0 0 0 14.902,2 Z M 0.005,8 v 5 a 0.979,0.979 0 0 0 0,0.188 V 14 h 0.812 c 0.092,0.024 0.187,0.034 0.281,0.031 C 1.141,14.023 1.182,14.013 1.223,14 1.67,13.9 2.016,13.458 2.005,13 V 11.312 C 2,10 2,10 3.567,10 h 1.438 c 0.523,0 1,-0.476 1,-1 a 1,1 0 0 0 0,-0.219 V 8 Z"
         inkscape:connector-curvature="0" />
      <path
         id="path4"
         style="text-indent:0;text-decoration:none;text-decoration-line:none;text-transform:none;overflow:visible;fill:#ffffff"
         overflow="visible"
         d="M 8,1 C 4.847,1 2.18,3.126 1.312,6 H 3.406 A 5.013,5.013 0 0 1 8,3 5.013,5.013 0 0 1 12.594,6 h 2.094 C 13.819,3.126 11.152,1 8,1 Z m -6.688,9 c 0.869,2.874 3.535,5 6.688,5 3.153,0 5.82,-2.126 6.688,-5 H 12.594 A 5.013,5.013 0 0 1 8,13 5.013,5.013 0 0 1 3.406,10 Z"
         inkscape:connector-curvature="0" />
    </g>
  </g>
</svg>
