<?xml version="1.0" encoding="UTF-8" standalone="no"?>
<!-- Created with Inkscape (http://www.inkscape.org/) -->

<svg
   xmlns:dc="http://purl.org/dc/elements/1.1/"
   xmlns:cc="http://creativecommons.org/ns#"
   xmlns:rdf="http://www.w3.org/1999/02/22-rdf-syntax-ns#"
   xmlns:svg="http://www.w3.org/2000/svg"
   xmlns="http://www.w3.org/2000/svg"
   xmlns:sodipodi="http://sodipodi.sourceforge.net/DTD/sodipodi-0.dtd"
   xmlns:inkscape="http://www.inkscape.org/namespaces/inkscape"
   id="svg2"
   width="24"
   height="24"
   version="1.0"
   sodipodi:docname="emblem-github.svg"
   inkscape:version="0.92.3 (2405546, 2018-03-11)">
  <metadata
     id="metadata25">
    <rdf:RDF>
      <cc:Work
         rdf:about="">
        <dc:format>image/svg+xml</dc:format>
        <dc:type
           rdf:resource="http://purl.org/dc/dcmitype/StillImage" />
        <dc:title></dc:title>
      </cc:Work>
    </rdf:RDF>
  </metadata>
  <sodipodi:namedview
     pagecolor="#ffffff"
     bordercolor="#666666"
     borderopacity="1"
     objecttolerance="10"
     gridtolerance="10"
     guidetolerance="10"
     inkscape:pageopacity="0"
     inkscape:pageshadow="2"
     inkscape:window-width="1366"
     inkscape:window-height="690"
     id="namedview23"
     showgrid="false"
     inkscape:zoom="13.906434"
     inkscape:cx="5.4486688"
     inkscape:cy="12"
     inkscape:window-x="0"
     inkscape:window-y="28"
     inkscape:window-maximized="1"
     inkscape:current-layer="svg2"
     inkscape:snap-global="false" />
  <defs
     id="defs4">
    <linearGradient
       id="linearGradient2407"
       x1="63.397"
       x2="63.397"
       y1="-12.489"
       y2="5.4676"
       gradientTransform="matrix(1.0863 0 0 1.0862 -55.567 15.814)"
       gradientUnits="userSpaceOnUse">
      <stop
         id="stop4875"
         style="stop-color:#fff"
         offset="0" />
      <stop
         id="stop4877"
         style="stop-color:#fff;stop-opacity:0"
         offset="1" />
    </linearGradient>
    <radialGradient
       id="radialGradient2410"
       cx="23.896"
       cy="3.99"
       r="20.397"
       gradientTransform="matrix(0,1.2316,-1.6257,0,-1.513,-28.721)"
       gradientUnits="userSpaceOnUse">
      <stop
         id="stop3244"
         style="stop-color:#f8b17e"
         offset="0" />
      <stop
         id="stop3246"
         style="stop-color:#e35d4f"
         offset=".26238" />
      <stop
         id="stop3248"
         style="stop-color:#c6262e"
         offset=".66094" />
      <stop
         id="stop3250"
         style="stop-color:#690b54"
         offset="1" />
    </radialGradient>
    <linearGradient
       id="linearGradient2412"
       x1="18.379"
       x2="18.379"
       y1="44.98"
       y2="3.0816"
       gradientTransform="matrix(0.51604,0,0,0.51604,-20.38499,-0.38499)"
       gradientUnits="userSpaceOnUse">
      <stop
         id="stop2492"
         style="stop-color:#791235"
         offset="0" />
      <stop
         id="stop2494"
         style="stop-color:#dd3b27"
         offset="1" />
    </linearGradient>
    <radialGradient
       id="radialGradient2415"
       cx="62.625"
       cy="4.625"
       r="10.625"
       gradientTransform="matrix(1.1294 0 0 .28235 -58.729 19.694)"
       gradientUnits="userSpaceOnUse">
      <stop
         id="stop8840"
         offset="0" />
      <stop
         id="stop8842"
         style="stop-opacity:0"
         offset="1" />
    </radialGradient>
  </defs>
  <g
     id="g844">
    <path
       inkscape:connector-curvature="0"
       id="path2555"
       d="m 12,1.5018 c -5.7926,0 -10.498,4.7057 -10.498,10.498 0,5.7926 4.7057,10.498 10.498,10.498 5.7926,0 10.498,-4.7057 10.498,-10.498 C 22.498,6.2072 17.7923,1.5018 12,1.5018 Z"
       style="fill:#666666;fill-opacity:1;stroke:none;stroke-width:1.00370002;stroke-linecap:round;stroke-linejoin:round" />
    <path
       id="path2-3"
       d="m 6.998946,4.8261627 c -0.1105098,0.005 -0.163899,0.02241 -0.163899,0.02241 -0.5531981,1.400478 -0.2034302,2.434403 -0.098534,2.691646 -0.650601,0.711166 -1.0477828,1.618585 -1.0477828,2.7287283 0,3.897362 2.3747016,4.770591 4.6330728,5.02721 -0.290959,0.254121 -0.5534316,0.702149 -0.6458392,1.358994 -0.579422,0.260365 -2.0527179,0.709217 -2.9599379,-0.844857 0,0 -0.5371597,-0.975983 -1.5580163,-1.047786 0,0 -0.9927209,-0.01305 -0.069266,0.617546 0,0 0.6670689,0.312701 1.1297323,1.487779 0,0 0.5962415,1.978257 3.4252942,1.36387 0.005,0.848529 0.013655,1.488709 0.013655,1.729719 0,0.232905 -0.1391761,0.49794 -0.50438,0.506332 v 0.0019 H 15.22121 c -0.380937,0.0025 -0.520964,-0.270087 -0.520964,-0.508287 0,-0.333417 0.01268,-1.429936 0.01268,-2.789205 0,-0.949053 -0.325457,-1.569802 -0.690717,-1.883864 2.265864,-0.251624 4.643807,-1.11206 4.643807,-5.019412 0,-1.1101423 -0.393982,-2.0175563 -1.045832,-2.7287213 0.104896,-0.257244 0.454584,-1.291175 -0.100487,-2.691652 0,0 -0.852276,-0.273278 -2.794089,1.042909 -0.812313,-0.226024 -1.682772,-0.338687 -2.546286,-0.342433 -0.864762,0.0037 -1.735222,0.116409 -2.5462874,0.342433 -1.4572962,-0.98714 -2.3025611,-1.080509 -2.634091,-1.065343 z"
       style="fill:#ffffff;stroke-width:0.99900341;stroke-opacity:0.54117587"
       inkscape:connector-curvature="0" />
  </g>
</svg>
