<svg xmlns="http://www.w3.org/2000/svg" width="24" height="24" version="1"><path d="M12 .158A11.843 11.843 0 0 0 .156 12.002 11.843 11.843 0 0 0 12 23.842a11.843 11.843 0 0 0 11.844-11.84A11.843 11.843 0 0 0 12 .158zm-.113 1.762L3.104 17.092a10.182 10.182 0 0 1-1.32-4.99A10.182 10.182 0 0 1 11.886 1.92zm.16.002a10.182 10.182 0 0 1 10.101 10.18 10.182 10.182 0 0 1-1.316 4.994L12.047 1.922zm-.248 2.71a.905.905 0 0 1 .41.022c.55.127.819.746.72 1.268-.192 2.202-.459 4.394-.624 6.6h-.637c-.2-2.297-.467-4.569-.701-6.856 0-.072.005-.144.017-.215.055-.422.41-.748.815-.818zm.135 9.278c.386-.001.779.207.957.565.317.553-.01 1.332-.63 1.49-.639.216-1.39-.32-1.365-1a1.04 1.04 0 0 1 .397-.815.943.943 0 0 1 .64-.24zM3.24 17.328h17.451a10.182 10.182 0 0 1-8.724 4.957 10.182 10.182 0 0 1-8.727-4.957z" fill="#a40"/></svg>