<svg xmlns="http://www.w3.org/2000/svg" version="1" viewBox="0 0 24 24"><path fill="#a02c2c" d="M3.61 1.01a1.53 1.53 0 0 0-1.533 1.534v18.4c0 .85.684 1.533 1.534 1.533h9.2v-1.549l-7.667.016v-18.4h13.033c.425 0 .767.342.767.767v9.954h1.533V2.544a1.53 1.53 0 0 0-1.533-1.533zm8.416 6.137c-.738-.05-1.46.383-1.89.966-.418.754-.076 1.651-.337 2.447-.16.57 0 1.178.414 1.59.356.448.793 1.032.55 1.633-.354.676-1.054 1.073-1.692 1.434a2.6 2.6 0 0 0-.567.326c-.163.046-.292.169-.292.345v1.606c0 .211.169.383.384.383h4.189a1.56 1.56 0 0 1 1.559-1.552h1.507v-.812c-.846-.457-1.794-.903-2.268-1.796-.162-.708.336-1.33.773-1.821.431-.548.26-1.27.11-1.883-.062-.678.155-1.481-.349-2.036-.547-.556-1.337-.782-2.09-.83zm5.384 7.679v3.06h-3.066v3.042l3.066.022v3.06h3.067v-3.06h3.067v-3.064h-3.067v-3.06z" color="#000" overflow="visible" style="isolation:auto;mix-blend-mode:normal"/></svg>