<svg xmlns="http://www.w3.org/2000/svg" width="24" height="24" viewBox="0 0 6.35 6.35"><path fill="#a02c2c" d="M3.175.04A3.134 3.134 0 0 0 .041 3.174a3.134 3.134 0 0 0 3.134 3.132 3.134 3.134 0 0 0 3.134-3.132A3.134 3.134 0 0 0 3.175.04zm-.009.466A2.694 2.694 0 0 1 5.86 3.2a2.694 2.694 0 0 1-2.694 2.694A2.694 2.694 0 0 1 .472 3.2 2.694 2.694 0 0 1 3.166.506zm-.535.577c-.858 0-1.56.701-1.56 1.558 0 .858.702 1.558 1.56 1.558.327 0 .631-.102.882-.276l1.045 1.044a.283.283 0 1 0 .4-.401L3.914 3.523c.174-.251.276-.555.276-.882 0-.857-.701-1.558-1.56-1.558zm0 .567a.988.988 0 0 1 .993.991.988.988 0 0 1-.993.992.988.988 0 0 1-.994-.992c0-.55.442-.991.994-.991z"/></svg>