<svg xmlns="http://www.w3.org/2000/svg" version="1" viewBox="0 0 24 24"><path fill="#a02c2c" fill-opacity=".995" d="M1.822 2.701A1.822 1.822 0 0 0-.006 4.525v3.047c0 .048.012.09.016.137v8.91h-.018v2.854c0 1.012.814 1.826 1.826 1.826h20.36a1.822 1.822 0 0 0 1.826-1.826v-2.444h.004V4.74H10.787L8.746 2.7H1.822zm.852 4.086h21.298l.01 1.39H3.507v2.698c0 .516-.342.932-.766.932-.423 0-.763-.416-.763-.932V7.719c0-.046.016-.087.021-.131-.005-.036-.021-.068-.021-.106 0-.354.268-.634.611-.677.03-.003.054-.018.084-.018zm14.27 4.379h4v3h3v4h-3v3h-4v-3h-2.99v-4h2.99v-3z"/></svg>