<svg xmlns="http://www.w3.org/2000/svg" version="1" viewBox="0 0 24 24"><path fill="#a02c2c" d="M1.922.592C1.162.592.55 1.202.55 1.96v2.285c0 .036.01.069.012.104v6.683H.549v2.139c0 .76.61 1.371 1.369 1.371h3.619v5.395h-.014v2.14c0 .465.267.813.62 1.06l9.533-9.533H8.16v2.024c0 .387-.254.7-.572.7-.318 0-.574-.313-.574-.7v-2.367c0-.034.011-.066.015-.1-.004-.028-.015-.05-.015-.078 0-.266.202-.475.459-.508.021-.002.04-.025.062-.025h15.979l.023.002v-1.537h-4.974V2.12H8.647L7.115.591H1.922zm.603 2.928h14.02c.368 0 .663.296.663.664v.6H2.917c-.022 0-.04.009-.06.01a.503.503 0 0 0-.432.509c0 .028.011.053.015.08-.004.033-.015.063-.015.097v2.37c0 .387.24.697.54.697.3 0 .542-.31.542-.697V5.826h13.7v5.19h-3.585l-1.53-1.528-5.195.008c-.76 0-1.371.61-1.371 1.37v2.228h-3a.664.664 0 0 1-.664-.664V4.182c0-.367.297-.662.664-.662zM23.54 13.602l-.02.001h-4.651l-9.844 9.842h4.72l9.795-9.795v-.048zm0 3.175l-6.67 6.67h5.297c.76 0 1.37-.612 1.37-1.37v-1.833h.003v-3.467z"/></svg>