<svg xmlns="http://www.w3.org/2000/svg" width="24" height="24"><g fill="#a02c2c"><path d="M11.977 6.023a2.859 2.859 0 0 0-2.858 2.858v1.142h-.572c-.632 0-1.143.513-1.143 1.145v5.713c0 .631.511 1.144 1.143 1.144h6.857c.632 0 1.143-.513 1.143-1.144v-5.713c0-.632-.511-1.145-1.143-1.145h-.572V8.881a2.857 2.857 0 0 0-2.855-2.858zm0 1.086c.977 0 1.771.795 1.771 1.772v1.142h-3.543V8.881c0-.977.795-1.772 1.772-1.772z"/><path d="M4.977 3.023a2 2 0 0 0-2 2v14a2 2 0 0 0 2 2h14a2 2 0 0 0 2-2v-14a2 2 0 0 0-2-2zm0 2h14v14h-14z"/></g></svg>