<svg xmlns="http://www.w3.org/2000/svg" width="24" height="24" viewBox="0 0 6.35 6.35"><path fill="#a02c2c" d="M3.175.042A3.134 3.134 0 0 0 .041 3.176a3.134 3.134 0 0 0 3.134 3.132 3.134 3.134 0 0 0 3.134-3.132A3.134 3.134 0 0 0 3.175.042zm-.009.465A2.694 2.694 0 0 1 5.86 3.202a2.694 2.694 0 0 1-2.694 2.694A2.694 2.694 0 0 1 .472 3.202 2.694 2.694 0 0 1 3.166.507zm.009.294c-.075 0-.15.005-.223.011l-.137.71a1.7 1.7 0 0 0-.329.106l-.52-.497a2.347 2.347 0 0 0-.36.275l.308.646a1.715 1.715 0 0 0-.201.276l-.71-.096a2.343 2.343 0 0 0-.138.435l.625.339a1.636 1.636 0 0 0-.01.17c0 .058.004.112.01.169l-.625.339c.033.15.077.295.138.434l.71-.095c.057.098.125.19.2.275l-.306.647c.114.101.228.197.36.275l.52-.498a1.7 1.7 0 0 0 .328.106l.137.71a2.414 2.414 0 0 0 .445 0l.138-.71a1.67 1.67 0 0 0 .328-.106l.52.498c.132-.078.246-.174.36-.275l-.307-.647a1.73 1.73 0 0 0 .201-.275l.71.095a2.343 2.343 0 0 0 .138-.434l-.625-.34c.005-.056.01-.11.01-.169 0-.059-.005-.112-.01-.17l.625-.338a2.342 2.342 0 0 0-.138-.435l-.71.096a1.715 1.715 0 0 0-.201-.276l.307-.646a2.347 2.347 0 0 0-.36-.276l-.52.498a1.7 1.7 0 0 0-.328-.106l-.138-.71a2.414 2.414 0 0 0-.222-.01zm0 1.357a1.017 1.017 0 0 1 0 2.035 1.017 1.017 0 0 1 0-2.035z"/></svg>