<svg xmlns="http://www.w3.org/2000/svg" width="24" height="24" viewBox="0 0 6.35 6.35"><path fill="#a02c2c" d="M3.175.008c-.1 0-.2.008-.297.014L2.694.97a2.268 2.268 0 0 0-.438.14L1.563.448a3.132 3.132 0 0 0-.48.367l.409.862a2.288 2.288 0 0 0-.268.369l-.948-.128a3.127 3.127 0 0 0-.183.58l.833.452a2.184 2.184 0 0 0-.013.226c0 .078.005.15.013.226l-.833.453a3.1 3.1 0 0 0 .183.58l.948-.127c.077.13.167.254.268.367l-.41.863c.152.134.305.262.48.367l.694-.665c.138.062.287.109.438.142l.184.947a3.22 3.22 0 0 0 .594 0l.184-.947c.15-.033.3-.08.437-.142l.694.666c.176-.105.329-.234.48-.368l-.41-.863c.101-.113.192-.236.27-.367l.947.126a3.127 3.127 0 0 0 .183-.58l-.834-.452c.008-.075.014-.148.014-.226 0-.078-.006-.15-.014-.226l.834-.453a3.126 3.126 0 0 0-.183-.58l-.948.128a2.288 2.288 0 0 0-.268-.368l.41-.862a3.133 3.133 0 0 0-.48-.368l-.695.665A2.27 2.27 0 0 0 3.655.97L3.471.022a3.22 3.22 0 0 0-.296-.014zm0 1.81a1.357 1.357 0 0 1 .542 2.6l.165-.997h.545L3.172 1.898 1.923 3.421h.545l.163.997a1.357 1.357 0 0 1 .544-2.6z"/></svg>