<svg xmlns="http://www.w3.org/2000/svg" width="24" height="24"><path fill="#e6e6e6" d="M22.235.48a1.5 1.5 0 0 0-1.062.442l-2.256 2.256L16.664.922a1.497 1.497 0 0 0-2.121 0 1.5 1.5 0 0 0 0 2.124l2.253 2.253-2.253 2.253a1.497 1.497 0 0 0 0 2.122 1.497 1.497 0 0 0 2.121 0l2.253-2.254 2.256 2.254a1.497 1.497 0 0 0 2.121 0 1.497 1.497 0 0 0 0-2.122L21.041 5.3l2.253-2.253a1.5 1.5 0 0 0 0-2.124 1.495 1.495 0 0 0-1.06-.442zM3.31 4.91a.79.79 0 0 0-.633.606L.285 16.129a.793.793 0 0 0 .6.95l1.907.428a.782.782 0 0 0 .3.92l7.517 4.96a.792.792 0 0 0 1.1-.223l5.991-9.08a.792.792 0 0 0-.226-1.1l-4.89-3.226.43-1.911a.793.793 0 0 0-.6-.95l-8.788-1.98a.794.794 0 0 0-.316-.006zm9.025 5.95l3.917 2.588c.305.2.387.606.186.91l-4.975 7.537a.656.656 0 0 1-.91.189l-6.24-4.12a.645.645 0 0 1-.148-.147l5.507 1.241a.791.791 0 0 0 .949-.598z"/></svg>