<svg xmlns="http://www.w3.org/2000/svg" width="24" height="24"><path fill="#e6e6e6" d="M3.566.5S2.033.5 2.033 2.033v15.334c0 1.534 1.533 1.533 1.533 1.533h12.268s1.533 0 1.533-1.533V2.033C17.367.5 15.834.5 15.834.5H3.566zm.768 1.533h10.732s.768.001.768.768V16.6s0 .767-.768.767H4.334s-.768 0-.768-.767V2.8c0-.766.768-.767.768-.767zM18.9 5.1v1.533h.766s.768 0 .768.767v13.8s-.001.767-.768.767H8.934s-.768-.001-.768-.768v-.765H6.633v1.533c0 1.533 1.533 1.533 1.533 1.533h12.268s1.533 0 1.533-1.533V6.633c0-1.534-1.533-1.533-1.533-1.533H18.9z" color="#bebebe" overflow="visible" style="marker:none"/></svg>