<svg xmlns="http://www.w3.org/2000/svg" width="48" height="48" viewBox="0 0 12.7 12.7"><path d="M6.34.07a6.29 6.29 0 0 0-6.29 6.3 6.29 6.29 0 0 0 6.3 6.28 6.29 6.29 0 0 0 6.28-6.29A6.29 6.29 0 0 0 6.34.07zm-.01.94a5.4 5.4 0 0 1 5.4 5.4 5.4 5.4 0 0 1-5.4 5.41 5.4 5.4 0 0 1-5.41-5.4A5.4 5.4 0 0 1 6.32 1zm-.06.78c-.86 0-1.56.7-1.56 1.56v1.56c-.48.2-.78.5-.78.83v1.43c0 .55.8 1 1.85 1.1v1.87H3.77a.15.15 0 0 0-.15.15v.18c0 .08.06.14.15.14H8.8c.08 0 .15-.06.15-.14v-.18a.15.15 0 0 0-.15-.15H6.82v-1.9c.99-.12 1.72-.55 1.72-1.07V5.74c0-.31-.27-.6-.7-.8V3.35c0-.87-.7-1.56-1.57-1.56zM4.71 5.37v.51a1.56 1.56 0 1 0 3.13 0v-.46c.12.08.19.18.19.32v1.43s-.84.64-1.84.64-1.76-.64-1.76-.64V5.74c0-.17.1-.29.28-.37z" fill="green"/></svg>