<svg xmlns="http://www.w3.org/2000/svg" width="48" height="48" viewBox="0 0 12.7 12.7"><g fill="green"><path d="M6.34.07a6.29 6.29 0 0 0-6.29 6.3 6.29 6.29 0 0 0 6.3 6.28 6.29 6.29 0 0 0 6.28-6.29A6.29 6.29 0 0 0 6.34.07zm-.01.94a5.4 5.4 0 0 1 5.4 5.4 5.4 5.4 0 0 1-5.4 5.41 5.4 5.4 0 0 1-5.41-5.4A5.4 5.4 0 0 1 6.32 1zM9.8 3.28a1.25 1.38 59.92 0 0-.72 1 1.56 1.56 0 0 0-.67-.16h-3.1c-.86 0-1.56.7-1.56 1.57v.4L1.7 4.5v4.4l2.06-1.59v.33c0 .86.7 1.56 1.56 1.56h3.1c.86 0 1.56-.7 1.56-1.56V5.69 5.6a1.25 1.38 59.92 0 0 1.07-.16L9.8 3.27z"/><path d="M6.34.07a6.29 6.29 0 0 0-6.29 6.3 6.29 6.29 0 0 0 6.3 6.28 6.29 6.29 0 0 0 6.28-6.29A6.29 6.29 0 0 0 6.34.07zm-.01.94a5.4 5.4 0 0 1 5.4 5.4 5.4 5.4 0 0 1-5.4 5.41 5.4 5.4 0 0 1-5.41-5.4A5.4 5.4 0 0 1 6.32 1zM9.8 3.28a1.25 1.38 59.92 0 0-.72 1 1.56 1.56 0 0 0-.67-.16h-3.1c-.86 0-1.56.7-1.56 1.57v.4L1.7 4.5v4.4l2.06-1.59v.33c0 .86.7 1.56 1.56 1.56h3.1c.86 0 1.56-.7 1.56-1.56V5.69 5.6a1.25 1.38 59.92 0 0 1.07-.16L9.8 3.27z"/></g></svg>