<svg xmlns="http://www.w3.org/2000/svg" width="48" height="48" viewBox="0 0 12.7 12.7"><path d="M6.34.07a6.29 6.29 0 0 0-6.29 6.3 6.29 6.29 0 0 0 6.3 6.28 6.29 6.29 0 0 0 6.28-6.29A6.29 6.29 0 0 0 6.34.07zm-.01.94a5.4 5.4 0 0 1 5.4 5.4 5.4 5.4 0 0 1-5.4 5.41 5.4 5.4 0 0 1-5.41-5.4A5.4 5.4 0 0 1 6.32 1zm-.37.94h-.14a1.47 1.47 0 0 0-.73.3 1.22 1.22 0 0 0-.48 1v2.24H3.27a.43.43 0 0 0-.43.43v3.86a.43.43 0 0 0 .43.43h3.27a.43.43 0 0 0 .42-.43V5.92a.43.43 0 0 0-.42-.43H5.2V3.25a.61.61 0 0 1 .25-.54c.16-.12.4-.18.63-.16a1 1 0 0 1 .63.24c.16.14.27.34.27.66 0 1.27.87 2.07 1.77 2.04.5-.01 1-.28 1.33-.77l-.33-.59c-.23.54-.63.76-1.02.77-.56.02-1.16-.43-1.16-1.45 0-.47-.2-.85-.48-1.1a1.57 1.57 0 0 0-1-.4 4.38 4.38 0 0 0-.13 0zm3.95 1.19v.07l.46.81.02-.07-.48-.81zm0 .2l-.02.18.43.72.03-.11-.44-.8zm-.04.3c0 .05-.02.1-.03.14l.38.66.06-.1-.4-.7zm-.05.25l-.06.15.35.6.08-.1-.37-.65z" fill="green"/></svg>