<svg xmlns="http://www.w3.org/2000/svg" width="48" height="48" viewBox="0 0 12.7 12.7"><path d="M6.34.07a6.29 6.29 0 0 0-6.29 6.3 6.29 6.29 0 0 0 6.3 6.28 6.29 6.29 0 0 0 6.28-6.29A6.29 6.29 0 0 0 6.34.07zm-.01.94a5.4 5.4 0 0 1 5.4 5.4 5.4 5.4 0 0 1-5.4 5.41 5.4 5.4 0 0 1-5.41-5.4A5.4 5.4 0 0 1 6.32 1zM3.5 2.39c-.57 0-.57.57-.57.57v6.82s0 .57.57.57h5.68s.57 0 .57-.57V2.96s0-.57-.57-.57H3.5zm2.84 1.13a2.27 2.27 0 1 1 0 4.55H4.07V5.8a2.27 2.27 0 0 1 2.27-2.27zm0 1.14a1.14 1.14 0 1 0 0 2.28 1.14 1.14 0 0 0 0-2.28z" fill="green"/></svg>