<?xml version="1.0" encoding="UTF-8" standalone="no"?>
<svg
   xmlns:dc="http://purl.org/dc/elements/1.1/"
   xmlns:cc="http://creativecommons.org/ns#"
   xmlns:rdf="http://www.w3.org/1999/02/22-rdf-syntax-ns#"
   xmlns:svg="http://www.w3.org/2000/svg"
   xmlns="http://www.w3.org/2000/svg"
   xmlns:sodipodi="http://sodipodi.sourceforge.net/DTD/sodipodi-0.dtd"
   xmlns:inkscape="http://www.inkscape.org/namespaces/inkscape"
   width="48"
   height="48"
   viewBox="0 0 12.7 12.7"
   version="1.1"
   id="svg4"
   sodipodi:docname="2048.svg"
   inkscape:version="0.92.4 (5da689c313, 2019-01-14)">
  <metadata
     id="metadata10">
    <rdf:RDF>
      <cc:Work
         rdf:about="">
        <dc:format>image/svg+xml</dc:format>
        <dc:type
           rdf:resource="http://purl.org/dc/dcmitype/StillImage" />
        <dc:title></dc:title>
      </cc:Work>
    </rdf:RDF>
  </metadata>
  <defs
     id="defs8" />
  <sodipodi:namedview
     pagecolor="#ffffff"
     bordercolor="#666666"
     borderopacity="1"
     objecttolerance="10"
     gridtolerance="10"
     guidetolerance="10"
     inkscape:pageopacity="0"
     inkscape:pageshadow="2"
     inkscape:window-width="1087"
     inkscape:window-height="480"
     id="namedview6"
     showgrid="false"
     inkscape:zoom="4.9166667"
     inkscape:cx="2.1355932"
     inkscape:cy="24"
     inkscape:window-x="0"
     inkscape:window-y="25"
     inkscape:window-maximized="0"
     inkscape:current-layer="svg4" />
  <path
     d="M 6.34,0.07 A 6.29,6.29 0 0 0 0.05,6.37 6.29,6.29 0 0 0 6.35,12.65 6.29,6.29 0 0 0 12.63,6.36 6.29,6.29 0 0 0 6.34,0.07 Z M 6.33,1.01 a 5.4,5.4 0 0 1 5.4,5.4 5.4,5.4 0 0 1 -5.4,5.41 A 5.4,5.4 0 0 1 0.92,6.42 5.4,5.4 0 0 1 6.32,1 Z M 2.57,5 A 3.1,3.1 0 0 0 1.7,5.15 V 5.72 C 1.84,5.64 1.97,5.57 2.1,5.52 A 1,1 0 0 1 2.43,5.46 c 0.14,0 0.24,0.04 0.32,0.1 0.09,0.08 0.13,0.18 0.13,0.3 0,0.08 -0.02,0.15 -0.06,0.23 A 0.9,0.9 0 0 1 2.63,6.31 L 1.69,7.14 V 7.62 H 3.56 V 7.14 H 2.43 L 2.98,6.65 C 3.21,6.45 3.36,6.29 3.44,6.17 3.51,6.05 3.54,5.92 3.54,5.77 A 0.68,0.68 0 0 0 3.29,5.21 C 3.12,5.07 2.88,5.01 2.57,5.01 Z m 2.52,0 c -0.33,0 -0.6,0.12 -0.78,0.35 -0.18,0.23 -0.28,0.56 -0.28,1 0,0.42 0.1,0.75 0.28,0.98 0.18,0.23 0.45,0.34 0.78,0.34 0.34,0 0.6,-0.11 0.79,-0.34 C 6.06,7.1 6.15,6.77 6.15,6.34 6.15,5.91 6.06,5.58 5.88,5.35 A 0.94,0.94 0 0 0 5.09,5.01 Z M 10,5 C 9.69,5 9.45,5.06 9.29,5.18 a 0.57,0.57 0 0 0 -0.25,0.5 c 0,0.14 0.04,0.26 0.12,0.36 0.08,0.1 0.2,0.17 0.36,0.21 A 0.76,0.76 0 0 0 9.12,6.49 0.63,0.63 0 0 0 8.99,6.9 c 0,0.26 0.08,0.45 0.25,0.58 0.17,0.13 0.43,0.2 0.76,0.2 0.33,0 0.58,-0.07 0.75,-0.2 0.17,-0.13 0.26,-0.32 0.26,-0.58 0,-0.16 -0.05,-0.3 -0.14,-0.4 a 0.74,0.74 0 0 0 -0.4,-0.25 0.7,0.7 0 0 0 0.36,-0.21 c 0.08,-0.1 0.12,-0.22 0.12,-0.37 A 0.57,0.57 0 0 0 10.71,5.17 C 10.55,5.07 10.31,5.01 10,5.01 Z M 7.5,5.05 6.49,6.6 V 7.17 H 7.63 V 7.63 H 8.25 V 7.17 H 8.62 V 6.68 H 8.25 V 5.06 H 7.52 Z M 10,5.42 c 0.1,0 0.18,0.03 0.24,0.09 0.06,0.05 0.08,0.13 0.08,0.23 0,0.1 -0.02,0.18 -0.08,0.24 C 10.18,6.03 10.1,6.06 10,6.06 9.9,6.06 9.81,6.03 9.76,5.98 9.7,5.92 9.67,5.84 9.67,5.74 9.67,5.64 9.7,5.56 9.76,5.51 9.81,5.45 9.89,5.42 10,5.42 Z M 5.1,5.46 c 0.14,0 0.24,0.06 0.3,0.2 0.06,0.13 0.09,0.35 0.09,0.68 0,0.32 -0.03,0.55 -0.1,0.68 a 0.31,0.31 0 0 1 -0.3,0.2 0.31,0.31 0 0 1 -0.3,-0.2 C 4.73,6.89 4.69,6.66 4.69,6.34 4.69,6.01 4.73,5.79 4.79,5.66 4.85,5.52 4.95,5.46 5.09,5.46 Z M 7.62,5.6 V 6.67 H 6.89 Z M 10,6.47 c 0.12,0 0.22,0.04 0.28,0.1 0.07,0.07 0.1,0.17 0.1,0.3 0,0.12 -0.03,0.22 -0.1,0.29 C 10.22,7.22 10.12,7.26 10,7.26 9.88,7.26 9.78,7.22 9.71,7.16 9.65,7.09 9.61,6.99 9.61,6.86 9.61,6.74 9.65,6.64 9.71,6.58 9.78,6.51 9.88,6.48 10,6.48 Z"
     id="path2"
     inkscape:connector-curvature="0"
     style="fill:#2c89a0" />
</svg>
