<svg xmlns="http://www.w3.org/2000/svg" width="48" height="48" viewBox="0 0 12.7 12.7"><path d="M6.34.07a6.29 6.29 0 0 0-6.29 6.3 6.29 6.29 0 0 0 6.3 6.28 6.29 6.29 0 0 0 6.28-6.29A6.29 6.29 0 0 0 6.34.07zM6.32 1l.01.01a5.4 5.4 0 0 1 5.4 5.4 5.4 5.4 0 0 1-5.4 5.41 5.4 5.4 0 0 1-5.41-5.4A5.4 5.4 0 0 1 6.32 1zM8.3 2.23c-.26 0-.5.15-.65.39a.75.75 0 0 0 .28 1.03c.36.2.85.08 1.06-.28a.76.76 0 0 0-.29-1.04.83.83 0 0 0-.4-.1zm-1.94.82c-.52 0-1.01.12-1.45.34l.54.95c.28-.14.58-.23.91-.23 1.17 0 2.14.91 2.24 2.05l1.07-.02a3.3 3.3 0 0 0-.99-2.15c-.29.11-.6.1-.9-.07a1.1 1.1 0 0 1-.51-.77c-.28-.08-.6-.1-.9-.1zm-1.82.55a3.3 3.3 0 0 0-1.37 1.92c.24.2.4.5.4.83 0 .34-.16.64-.4.84.2.8.7 1.46 1.37 1.9l.56-.92a2.22 2.22 0 0 1 0-3.64l-.56-.93zm-2.04 2a.76.76 0 0 0-.77.75c0 .42.35.77.77.77.42 0 .75-.35.75-.77a.75.75 0 0 0-.75-.75zm6.1.94A2.26 2.26 0 0 1 6.36 8.6c-.33 0-.63-.1-.91-.22l-.54.94a3.43 3.43 0 0 0 2.36.24c.05-.3.23-.6.52-.77.28-.17.6-.18.9-.07.56-.55.93-1.3.98-2.15L8.6 6.54zm-.3 2.4a.75.75 0 0 0-.37.12.75.75 0 0 0-.28 1.03c.21.36.69.49 1.05.28.37-.21.5-.67.29-1.04a.78.78 0 0 0-.7-.38z" fill="#2c89a0"/></svg>
