<svg xmlns="http://www.w3.org/2000/svg" width="48" height="48" viewBox="0 0 12.7 12.7"><path d="M6.34.07a6.29 6.29 0 0 0-6.29 6.3 6.29 6.29 0 0 0 6.3 6.28 6.29 6.29 0 0 0 6.28-6.29A6.29 6.29 0 0 0 6.34.07zM6.32 1l.01.01a5.4 5.4 0 0 1 5.4 5.4 5.4 5.4 0 0 1-5.4 5.41 5.4 5.4 0 0 1-5.41-5.4A5.4 5.4 0 0 1 6.32 1zm1.06 1.8c-1.28 0-2.33.95-2.5 2.18a2.52 2.52 0 0 0-2.19 2.5v2.16c0 .2.17.37.37.37h2.16c1.28 0 2.33-.96 2.5-2.2a2.52 2.52 0 0 0 2.19-2.5V3.16c0-.2-.16-.36-.36-.36H7.38zm0 .72h1.8v1.8c0 .88-.63 1.6-1.47 1.76a2.52 2.52 0 0 0-2.1-2.09 1.8 1.8 0 0 1 1.77-1.47zM5.22 5.68a1.8 1.8 0 1 1 0 3.6h-1.8v-1.8c0-1 .8-1.8 1.8-1.8z" fill="#2c89a0"/></svg>
