<svg xmlns="http://www.w3.org/2000/svg" width="48" height="48" version="1"><defs><linearGradient id="a"><stop offset="0" stop-color="#040000"/><stop offset="1" stop-opacity="0"/></linearGradient></defs><path d="M24 .23A23.77 23.77 0 0 0 .23 24.01 23.77 23.77 0 0 0 24 47.77 23.77 23.77 0 0 0 47.77 24 23.77 23.77 0 0 0 24 .23zm-.07 3.54a20.44 20.44 0 0 1 20.44 20.44 20.44 20.44 0 0 1-20.44 20.43A20.44 20.44 0 0 1 3.5 24.21 20.44 20.44 0 0 1 23.93 3.77zm0 3A17.44 17.44 0 0 0 6.5 24.22a17.44 17.44 0 0 0 17.43 17.44A17.44 17.44 0 0 0 41.37 24.2 17.44 17.44 0 0 0 23.93 6.77zm-8.72 6.6h.41c1.5 0 2.77.75 3.85 2.26v-2.2l.07-.07h.49l.07.07v4.61c0 1.8-.86 3.18-2.59 4.16-.65.33-1.34.5-2.06.5h-.07c-1.6 0-2.92-.75-3.95-2.24a4.47 4.47 0 0 1-.66-2.24v-.42c0-1.4.67-2.6 2.02-3.64.81-.53 1.62-.8 2.42-.8zm10.45.07h.42c1.38 0 2.59.66 3.6 1.97.56.82.83 1.69.83 2.6v.07c0 1.77-.85 3.15-2.56 4.12-.65.33-1.33.5-2.05.5h-.06c-1.59 0-2.9-.76-3.95-2.26v2.18l-.07.07h-.49l-.07-.07v-4.78c0-1.38.67-2.58 2.02-3.6.8-.54 1.59-.8 2.38-.8zm-10.24.55c-1.65 0-2.89.82-3.7 2.44-.22.47-.32 1-.32 1.58v.1c0 1.54.8 2.75 2.38 3.6.55.23 1.1.35 1.67.35 1.63 0 2.88-.84 3.74-2.51.18-.58.28-1.1.28-1.58 0-1.51-.76-2.7-2.27-3.6a4.36 4.36 0 0 0-1.68-.38zm10.45.07c-1.63 0-2.86.81-3.67 2.43-.2.46-.31.98-.31 1.56v.1c0 1.53.78 2.72 2.35 3.57.56.23 1.1.35 1.66.35 1.62 0 2.86-.84 3.72-2.5.18-.57.27-1.09.27-1.55 0-1.5-.75-2.7-2.25-3.58a4.31 4.31 0 0 0-1.66-.38zM10.37 24.5h19.76c.15 0 .28.13.28.29 0 .15-.13.28-.28.28H10.38a.28.28 0 0 1-.29-.28c0-.16.13-.29.29-.29z" fill="#2c89a0"/></svg>