<svg xmlns="http://www.w3.org/2000/svg" width="48" height="48" viewBox="0 0 12.7 12.7"><path fill="#2c89a0" d="M6.344.073a6.29 6.29 0 0 0-6.29 6.29 6.29 6.29 0 0 0 6.29 6.288 6.29 6.29 0 0 0 6.29-6.289 6.29 6.29 0 0 0-6.29-6.29zm-.018.936a5.407 5.407 0 0 1 5.407 5.407 5.407 5.407 0 0 1-5.407 5.407A5.407 5.407 0 0 1 .92 6.416 5.407 5.407 0 0 1 6.326 1.01zm2.516 1.684a2.46 2.46 0 0 0-.774.129c.272-.02.834.095.835.305.002.246-.282.242-.706.22-1.339-.074-3.339-.602-3.908-.289a.639.639 0 0 0-.347.567c0 .317.29.818.76 1.293.395.4 1.076.936 1.516 1.196.334.198.343.218.067.153-1.306-.308-2.669-.201-3.674.289-.513.25-.805.683-.744 1.104.043.306.196.561.532.893.28.277.534.461 1.058.768.707.412 1.725.738 2.81.964.134.027 2.363.471 3.107-.049.46-.321.506-1.05-.201-1.415.083.675-.373.802-1.263.743-.982-.064-1.773-.307-2.424-.521-.8-.276-1.657-.82-1.5-1.33.44-1.122 3.646-.79 4.246-.835-.719-.546-3.046-2.08-2.38-2.862.281-.331 1.114-.188 2.084-.012.88.159 2.202.652 2.235-.456.01-.344-.217-.614-.469-.731-.124-.058-.248-.137-.86-.124z"/></svg>