<svg xmlns="http://www.w3.org/2000/svg" width="48" height="48" viewBox="0 0 12.7 12.7"><path fill="#2c89a0" d="M6.19.04A6.27 6.27 0 0 0 .06 6.32a6.27 6.27 0 0 0 6.28 6.28c2.04 0 3.84-.96 4.99-2.45L8.1 7.81l.01-.02a2.29 2.29 0 0 1-1.77.83 2.29 2.29 0 0 1-2.3-2.3c0-1.25.9-2.27 2.24-2.3h-.09V.04zm.11 4.61a1.65 1.67 0 0 0-1.65 1.67A1.65 1.67 0 0 0 6.3 7.98a1.65 1.67 0 0 0 1.66-1.66A1.65 1.67 0 0 0 6.3 4.65zm.02.66a1.03 1.03 0 0 1 1.02 1.04 1.03 1.03 0 0 1-1.02 1.03 1.03 1.03 0 0 1-1.03-1.03A1.03 1.03 0 0 1 6.32 5.3z"/><path fill="#d4ff2a" d="M6.19.03v3.99c1.36-.04 2.68 1.25 2.43 2.64-.08.45-.23.83-.52 1.15l3.23 2.34a6.28 6.28 0 0 0 .82-6.25A6.08 6.08 0 0 0 7.9.26C7.34.14 6.77.02 6.19.03z" opacity=".75"/></svg>