<svg xmlns="http://www.w3.org/2000/svg" width="48" height="48" viewBox="0 0 12.7 12.7"><path d="M6.34.07a6.29 6.29 0 0 0-6.29 6.3 6.29 6.29 0 0 0 6.3 6.28 6.29 6.29 0 0 0 6.28-6.29A6.29 6.29 0 0 0 6.34.07zm-.01.94a5.4 5.4 0 0 1 5.4 5.4 5.4 5.4 0 0 1-5.4 5.41 5.4 5.4 0 0 1-5.41-5.4A5.4 5.4 0 0 1 6.32 1zm-3.2 1.58a.2.2 0 0 0-.2.2v6.33c0 .11.1.2.2.2h5.04l-.52-.5c-.15.08-.3.17-.46.22a2.3 2.3 0 0 1-1.6-.07 2.34 2.34 0 0 1-1.24-1.24c-.03-.07-.03-.16-.05-.24h-.73a.14.14 0 0 1-.14-.13V3.24c0-.08.06-.14.14-.14h5.31c.08 0 .14.06.14.14v4.12c0 .07-.06.13-.14.13H8.7v.04a2.2 2.2 0 0 1-.24.49l1.06 1.05V2.8a.2.2 0 0 0-.2-.21H3.13zM6.5 4.72a2.12 2.12 0 0 0-2.11 2.12 2.12 2.12 0 0 0 3.31 1.74L9.11 10a.39.39 0 1 0 .55-.55L8.24 8.04c.23-.34.37-.76.37-1.2A2.12 2.12 0 0 0 6.5 4.72zm0 .77a1.34 1.34 0 0 1 1.35 1.35c0 .75-.6 1.34-1.35 1.34a1.34 1.34 0 0 1-1.35-1.34c0-.75.6-1.35 1.35-1.35z" fill="#2c89a0"/></svg>