<svg xmlns="http://www.w3.org/2000/svg" width="48" height="48" viewBox="0 0 12.7 12.7"><path fill="#2c89a0" d="M6.344.073a6.29 6.29 0 0 0-6.29 6.29 6.29 6.29 0 0 0 6.29 6.288 6.29 6.29 0 0 0 6.29-6.289 6.29 6.29 0 0 0-6.29-6.29zm-.018.936a5.407 5.407 0 0 1 5.407 5.407 5.407 5.407 0 0 1-5.407 5.407A5.407 5.407 0 0 1 .92 6.416 5.407 5.407 0 0 1 6.326 1.01zM2.295 3.622a.111.111 0 0 0 0 .222h5.38a.111.111 0 1 0 0-.222h-5.38zm6.352.316v2.39h2.39c0-1.594-.797-2.39-2.39-2.39zm-.811.712a2.482 2.474 0 0 0-2.468 2.483 2.482 2.474 0 0 0 2.487 2.465 2.482 2.474 0 0 0 2.477-2.474H7.85L7.836 4.65zm-5.541.098a.111.111 0 0 0 0 .222h3.578a.11.11 0 0 0 .11-.112.11.11 0 0 0-.11-.11H2.295zm0 1.126a.11.11 0 1 0 0 .22h2.69a.11.11 0 1 0 0-.22h-2.69zm0 1.125a.111.111 0 0 0 0 .222h2.551a.111.111 0 1 0 0-.222H2.295z"/></svg>