<?xml version="1.0" encoding="UTF-8" standalone="no"?><svg xmlns:dc="http://purl.org/dc/elements/1.1/" xmlns:cc="http://creativecommons.org/ns#" xmlns:rdf="http://www.w3.org/1999/02/22-rdf-syntax-ns#" xmlns="http://www.w3.org/2000/svg" width="48" height="48" viewBox="0 0 12.7 12.7"><metadata><rdf:RDF><cc:Work><dc:format>image/svg+xml</dc:format><dc:type rdf:resource="http://purl.org/dc/dcmitype/StillImage"/><dc:title/></cc:Work></rdf:RDF></metadata><path d="M6.34.07a6.29 6.29 0 0 0-6.28 6.3 6.29 6.29 0 0 0 6.28 6.28 6.29 6.29 0 0 0 6.3-6.29A6.29 6.29 0 0 0 6.33.07zm-.01.94a5.4 5.4 0 0 1 5.4 5.4 5.4 5.4 0 0 1-5.4 5.41 5.4 5.4 0 0 1-5.41-5.4A5.4 5.4 0 0 1 6.32 1zM4.17 2.9H3v6.55h1.4V4.32c.27.01.5.03.62.06.21.06.2.04.29.24.18.42.26 1.92.26 4.84h1.4L7 8.26h1.17v1.18h1.4V8.27h1.17v-1.4H9.56V5.68h-1.4v1.17H6.99a7.25 7.25 0 0 0-.38-2.8 1.9 1.9 0 0 0-1.24-1.04c-.3-.08-.62-.1-.96-.1V2.9H4.2h-.02z" fill="#2c89a0"/></svg>