<svg xmlns="http://www.w3.org/2000/svg" width="48" height="48" viewBox="0 0 12.7 12.7"><path d="M6.34.07a6.29 6.29 0 0 0-6.29 6.3 6.29 6.29 0 0 0 6.3 6.28 6.29 6.29 0 0 0 6.28-6.29A6.29 6.29 0 0 0 6.34.07zm-.01.94a5.4 5.4 0 0 1 5.4 5.4 5.4 5.4 0 0 1-5.4 5.41 5.4 5.4 0 0 1-5.41-5.4A5.4 5.4 0 0 1 6.32 1z" fill="#2c89a0"/><g fill="#025" opacity=".75"><path d="M2.91 3.73s.8-.03 1.46-.03c.92 0 1.98.27 1.98 1.86 0 1.58-1.06 1.85-1.98 1.84l-.4.01V9H2.9zM3.97 6.6h.38c.57 0 .94-.5.94-1.05 0-.5-.3-1.04-.86-1.06h-.46zM6.88 7.67c.23.14.66.53 1.03.53s.69-.19.69-.4c0-.2-.13-.46-.6-.61-.81-.29-1.13-.62-1.12-1.1 0-.76.63-1.33 1.62-1.33.46 0 .78.14 1.03.27v.8c-.18-.1-.65-.27-1-.27-.3 0-.6.2-.6.4 0 .27.3.3.78.47.75.26 1.07.65 1.08 1.25 0 .75-.58 1.35-1.72 1.31-.4 0-.89-.1-1.2-.26V7.67z"/></g></svg>