<svg xmlns="http://www.w3.org/2000/svg" width="48" height="48" viewBox="0 0 12.7 12.7"><path d="M6.34.07a6.29 6.29 0 0 0-6.29 6.3 6.29 6.29 0 0 0 6.3 6.28 6.29 6.29 0 0 0 6.28-6.29A6.29 6.29 0 0 0 6.34.07zm-.01.94a5.4 5.4 0 0 1 5.4 5.4 5.4 5.4 0 0 1-5.4 5.41 5.4 5.4 0 0 1-5.41-5.4A5.4 5.4 0 0 1 6.32 1zM3.45 3.3c-.44 0-.8.4-.8.89 0 3.62.6 6.12 3.7 6.1 3.1-.01 3.7-2.48 3.7-6.1 0-.5-.36-.89-.8-.89h-5.8zm1.2 2c.12 0 .25.05.35.15l1.35 1.48L7.7 5.46c.1-.1.23-.16.35-.16.13 0 .26.06.36.16.2.22.2.56 0 .78L6.74 8.06a.47.47 0 0 1-.39.15.47.47 0 0 1-.39-.15L4.29 6.24a.58.58 0 0 1 0-.78c.1-.1.23-.16.35-.16z" fill="#2c89a0"/></svg>