<svg xmlns="http://www.w3.org/2000/svg" width="48" height="48" viewBox="0 0 12.7 12.7"><path d="M6.344.073a6.29 6.29 0 0 0-6.29 6.29 6.29 6.29 0 0 0 6.29 6.289 6.29 6.29 0 0 0 6.29-6.29A6.29 6.29 0 0 0 6.344.073zm-.018.936a5.407 5.407 0 0 1 5.407 5.407 5.407 5.407 0 0 1-5.407 5.407A5.407 5.407 0 0 1 .919 6.416a5.407 5.407 0 0 1 5.407-5.407z" fill="#2c89a0"/><circle transform="scale(-1 1)" style="marker:none" overflow="visible" r="2.679" cy="7.796" cx="-8.136" color="#000" opacity=".6" fill="#0ff"/><circle transform="scale(-1 1)" style="marker:none" overflow="visible" r="2.679" cy="7.796" cx="-4.564" color="#000" opacity=".4" fill="#f0f"/><circle transform="scale(-1 1)" style="marker:none" overflow="visible" r="2.679" cy="4.213" cx="-6.31" color="#000" opacity=".6" fill="#ff0"/></svg>