<svg xmlns="http://www.w3.org/2000/svg" width="48" height="48" viewBox="0 0 12.7 12.7"><path fill="#2c89a0" d="M6.344.073a6.29 6.29 0 0 0-6.29 6.29 6.29 6.29 0 0 0 6.29 6.288 6.29 6.29 0 0 0 6.29-6.289 6.29 6.29 0 0 0-6.29-6.29zm-.018.936a5.407 5.407 0 0 1 5.407 5.407 5.407 5.407 0 0 1-5.407 5.407A5.407 5.407 0 0 1 .92 6.416 5.407 5.407 0 0 1 6.326 1.01zm-3 1.862c-.559 0-1.008.458-1.008 1.026v5.134c0 .569.45 1.026 1.008 1.026h6.048c.559 0 1.008-.457 1.008-1.026V3.897c0-.568-.45-1.026-1.008-1.026H3.326zm.417.574H8.98a.87.87 0 0 1 .873.873v4.364a.87.87 0 0 1-.873.872H3.743a.87.87 0 0 1-.872-.872V4.318a.87.87 0 0 1 .872-.873zm1.964.436l-.873 1.31h.655v1.308h-.873v-.654l-1.309.873 1.31.872v-.654h.872v.873h-.655l.873 1.309.873-1.31h-.654v-.872h2.182v.654l1.308-.872-1.308-.873V6.5H5.926V5.19h.654l-.873-1.309z"/></svg>