<?xml version="1.0" encoding="UTF-8" standalone="no"?>
<svg
   xmlns:dc="http://purl.org/dc/elements/1.1/"
   xmlns:cc="http://creativecommons.org/ns#"
   xmlns:rdf="http://www.w3.org/1999/02/22-rdf-syntax-ns#"
   xmlns:svg="http://www.w3.org/2000/svg"
   xmlns="http://www.w3.org/2000/svg"
   xmlns:sodipodi="http://sodipodi.sourceforge.net/DTD/sodipodi-0.dtd"
   xmlns:inkscape="http://www.inkscape.org/namespaces/inkscape"
   width="48"
   height="48"
   viewBox="0 0 12.7 12.7"
   version="1.1"
   id="svg4"
   sodipodi:docname="preferences-virtualization-vm-migrate.svg"
   inkscape:version="0.92.4 (5da689c313, 2019-01-14)">
  <metadata
     id="metadata10">
    <rdf:RDF>
      <cc:Work
         rdf:about="">
        <dc:format>image/svg+xml</dc:format>
        <dc:type
           rdf:resource="http://purl.org/dc/dcmitype/StillImage" />
        <dc:title></dc:title>
      </cc:Work>
    </rdf:RDF>
  </metadata>
  <defs
     id="defs8" />
  <sodipodi:namedview
     pagecolor="#ffffff"
     bordercolor="#666666"
     borderopacity="1"
     objecttolerance="10"
     gridtolerance="10"
     guidetolerance="10"
     inkscape:pageopacity="0"
     inkscape:pageshadow="2"
     inkscape:window-width="1109"
     inkscape:window-height="480"
     id="namedview6"
     showgrid="false"
     inkscape:zoom="4.9166667"
     inkscape:cx="2.1355932"
     inkscape:cy="24"
     inkscape:window-x="0"
     inkscape:window-y="25"
     inkscape:window-maximized="0"
     inkscape:current-layer="svg4" />
  <path
     d="M 6.34,0.07 A 6.29,6.29 0 0 0 0.04999997,6.37 6.29,6.29 0 0 0 6.35,12.65 6.29,6.29 0 0 0 8.783,12.155 2.112,2.117 0 0 1 8.712,12.088 2.112,2.117 0 0 1 8.572,11.929 2.112,2.117 0 0 1 8.45,11.757 2.112,2.117 0 0 1 8.344,11.573 2.112,2.117 0 0 1 8.29,11.451 5.4,5.4 0 0 1 6.33,11.82 5.4,5.4 0 0 1 0.91999997,6.42 5.4,5.4 0 0 1 6.32,1 l 0.01,0.01 a 5.4,5.4 0 0 1 5.4,5.4 5.4,5.4 0 0 1 -0.53,2.327 2.112,2.117 0 0 1 0.04,0.02 2.112,2.117 0 0 1 0.18,0.11 2.112,2.117 0 0 1 0.168,0.127 2.112,2.117 0 0 1 0.154,0.144 2.112,2.117 0 0 1 0.14,0.16 A 2.112,2.117 0 0 1 11.89,9.31 6.29,6.29 0 0 0 12.63,6.36 6.29,6.29 0 0 0 6.34,0.07 Z M 1.66,4.39 V 4.4 H 1.663 Z M 1.663,4.4 3.06,8.31 H 3.9 L 5.3,4.4 H 4.47 L 3.48,7.2 2.5,4.4 Z M 5.99,4.39 4.6,8.3 H 5.44 L 6.42,5.55 7.4,8.3 H 8.24 L 9.23,5.55 10.21,8.3 h 0.84 L 9.64,4.4 H 8.8 L 7.8,7.14 6.82,4.39 Z m 4.237,4.362 A 1.852,1.848 0 0 0 8.375,10.6 1.852,1.848 0 0 0 10.227,12.447 1.852,1.848 0 0 0 12.079,10.6 1.852,1.848 0 0 0 10.227,8.75 Z m 0.129,0.928 0.728,0.727 0.198,0.2 -0.198,0.197 -0.728,0.728 -0.187,-0.187 0.607,-0.607 h -1.61 v -0.264 h 1.61 L 10.169,9.867 Z"
     id="path2"
     inkscape:connector-curvature="0"
     style="fill:#2c89a0" />
</svg>
