<svg xmlns="http://www.w3.org/2000/svg" width="48" height="48" viewBox="0 0 12.7 12.7"><path fill="#2c89a0" d="M6.344.079A6.267 6.267 0 0 0 .076 6.346a6.267 6.267 0 0 0 6.268 6.266 6.267 6.267 0 0 0 6.267-6.266 6.267 6.267 0 0 0-1.62-4.195l.134-.507a.463.463 0 0 0-.332-.569l-.126-.033a.463.463 0 0 0-.557.302A6.267 6.267 0 0 0 6.344.08zm-.018.932a5.388 5.388 0 0 1 3.52 1.312l-.393 1.482a.46.46 0 0 0 .132.456l-.164.613c-.037-.016-.09-.016-.14-.02l-.228-.228a.166.166 0 0 0-.234 0l-.115.115-.316-.964c-.088-.27-.1-.473-.083-.62a.787.787 0 0 0 .223-.547c-.004-.259-.152-.553-.365-.761a.068.068 0 0 0-.072-.014.064.064 0 0 0-.04.06l.008.705c.001.063-.05.12-.133.164a.811.811 0 0 1-.33.083.761.761 0 0 1-.33-.045c-.085-.036-.139-.088-.14-.151l-.01-.708c0-.02-.01-.038-.027-.049a.075.075 0 0 0-.059-.006v.001a.07.07 0 0 0-.027.018c-.208.231-.346.543-.342.801.005.353.267.64.628.734.11.105.235.283.333.583l.058.176h-.489c-.09 0-.16.069-.16.16v.395c-.075.023-.143.058-.214.09h-.184l-.222-.222a.166.166 0 0 0-.234 0l-.222.223h-.804c.086-.198.18-.344.269-.431a.784.784 0 0 0 .513-.292c.157-.205.224-.528.183-.825a.066.066 0 0 0-.048-.054.064.064 0 0 0-.07.021l-.43.56c-.038.05-.114.063-.207.046a.828.828 0 0 1-.312-.14.788.788 0 0 1-.234-.243c-.045-.08-.055-.155-.016-.205l.43-.562a.057.057 0 0 0 .008-.055.072.072 0 0 0-.044-.041v-.001a.062.062 0 0 0-.033-.002c-.307.051-.61.21-.767.416-.214.28-.184.67.044.969.022.15.01.369-.097.665l-.063.174H3.255c-.099 0-.138.002-.197.002l-.19-.674.04-.179a.117.117 29.198 0 0-.008-.08l-.275-.55a.117.117 29.198 0 0-.137-.061l-.302.085a.117.117 29.198 0 0-.085.124l.059.616a.117.117 29.198 0 0 .035.073l.125.122.296 1.045-.43.994v3.477A5.388 5.388 0 0 1 .938 6.398a5.388 5.388 0 0 1 5.39-5.389zm4.37 2.248A5.388 5.388 0 0 1 11.714 6.4a5.388 5.388 0 0 1-1.584 3.812V6.366l-.32-.743.323-1.215a.465.465 0 0 0 .347-.335zm-7.25 1.702h.79l-.51 1.402h-.258c0-.014.004-.027.001-.042a.117.117 29.198 0 0 .002-.014l-.304-1.075.029-.09a.309.309 0 0 1 .09-.145c.027-.02.06-.036.16-.036zm1.652 0h.743l-.256.257a.166.166 0 0 0 0 .233l.278.277a1.989 1.989 0 0 0-.146.343h-.394c-.091 0-.16.07-.16.161v.13H4.59zm2.517.994c.282 0 .521.168.633.408H6.982a.698.698 0 0 1 .633-.408zm-4.764.249l.045.159H2.8zm.546 4.712h5.864a5.388 5.388 0 0 1-2.935.872 5.388 5.388 0 0 1-2.929-.872z"/></svg>