<?xml version="1.0" encoding="UTF-8" standalone="no"?>
<svg
   xmlns:dc="http://purl.org/dc/elements/1.1/"
   xmlns:cc="http://creativecommons.org/ns#"
   xmlns:rdf="http://www.w3.org/1999/02/22-rdf-syntax-ns#"
   xmlns:svg="http://www.w3.org/2000/svg"
   xmlns="http://www.w3.org/2000/svg"
   xmlns:sodipodi="http://sodipodi.sourceforge.net/DTD/sodipodi-0.dtd"
   xmlns:inkscape="http://www.inkscape.org/namespaces/inkscape"
   width="48"
   height="48"
   viewBox="0 0 12.7 12.7"
   version="1.1"
   id="svg4"
   sodipodi:docname="preferences-desktop-gaming.svg"
   inkscape:version="0.92.4 (5da689c313, 2019-01-14)">
  <metadata
     id="metadata10">
    <rdf:RDF>
      <cc:Work
         rdf:about="">
        <dc:format>image/svg+xml</dc:format>
        <dc:type
           rdf:resource="http://purl.org/dc/dcmitype/StillImage" />
        <dc:title></dc:title>
      </cc:Work>
    </rdf:RDF>
  </metadata>
  <defs
     id="defs8" />
  <sodipodi:namedview
     pagecolor="#ffffff"
     bordercolor="#666666"
     borderopacity="1"
     objecttolerance="10"
     gridtolerance="10"
     guidetolerance="10"
     inkscape:pageopacity="0"
     inkscape:pageshadow="2"
     inkscape:window-width="1087"
     inkscape:window-height="480"
     id="namedview6"
     showgrid="false"
     inkscape:zoom="4.9166667"
     inkscape:cx="2.1355932"
     inkscape:cy="24"
     inkscape:window-x="0"
     inkscape:window-y="25"
     inkscape:window-maximized="0"
     inkscape:current-layer="svg4" />
  <path
     d="M 6.34,0.07 A 6.29,6.29 0 0 0 0.05,6.37 6.29,6.29 0 0 0 6.35,12.65 6.29,6.29 0 0 0 12.63,6.36 6.29,6.29 0 0 0 6.34,0.07 Z M 6.33,1.01 a 5.4,5.4 0 0 1 5.4,5.4 5.4,5.4 0 0 1 -5.4,5.41 A 5.4,5.4 0 0 1 0.92,6.42 5.4,5.4 0 0 1 6.32,1 Z M 3.04,3.4 C 2.95,3.4 2.89,3.45 2.87,3.52 L 1.9,8.47 C 1.77,8.95 2.8,9.53 3.47,9.14 L 5.04,6.85 h 2.58 l 1.58,2.3 c 0.67,0.38 1.7,-0.2 1.56,-0.68 L 9.8,3.53 C 9.78,3.46 9.72,3.41 9.64,3.41 H 3.04 Z M 4.18,4 h 0.3 A 0.14,0.14 0 0 1 4.62,4.14 V 4.57 H 5.05 A 0.14,0.14 0 0 1 5.19,4.71 V 5 A 0.14,0.14 0 0 1 5.05,5.14 H 4.62 V 5.57 A 0.14,0.14 0 0 1 4.47,5.72 H 4.2 A 0.14,0.14 0 0 1 4.05,5.57 V 5.14 H 3.62 A 0.14,0.14 0 0 1 3.47,5 V 4.7 A 0.14,0.14 0 0 1 3.61,4.56 H 4.04 V 4.13 A 0.14,0.14 0 0 1 4.18,3.99 Z M 8.32,4 A 0.29,0.29 0 0 1 8.34,4 0.29,0.29 0 0 1 8.63,4.28 0.29,0.29 0 0 1 8.34,4.57 0.29,0.29 0 0 1 8.05,4.28 0.29,0.29 0 0 1 8.32,4 Z M 7.75,4.57 a 0.29,0.29 0 0 1 0.02,0 A 0.29,0.29 0 0 1 8.05,4.86 0.29,0.29 0 0 1 7.77,5.14 0.29,0.29 0 0 1 7.48,4.86 0.29,0.29 0 0 1 7.75,4.57 Z m 1.14,0 a 0.29,0.29 0 0 1 0.02,0 A 0.29,0.29 0 0 1 9.2,4.86 0.29,0.29 0 0 1 8.91,5.14 0.29,0.29 0 0 1 8.63,4.86 0.29,0.29 0 0 1 8.89,4.57 Z M 8.32,5.14 a 0.29,0.29 0 0 1 0.02,0 A 0.29,0.29 0 0 1 8.63,5.43 0.29,0.29 0 0 1 8.34,5.72 0.29,0.29 0 0 1 8.05,5.42 0.29,0.29 0 0 1 8.32,5.14 Z"
     id="path2"
     inkscape:connector-curvature="0"
     style="fill:#2c89a0" />
</svg>
