<?xml version="1.0" encoding="UTF-8" standalone="no"?>
<svg
   xmlns:dc="http://purl.org/dc/elements/1.1/"
   xmlns:cc="http://creativecommons.org/ns#"
   xmlns:rdf="http://www.w3.org/1999/02/22-rdf-syntax-ns#"
   xmlns:svg="http://www.w3.org/2000/svg"
   xmlns="http://www.w3.org/2000/svg"
   xmlns:sodipodi="http://sodipodi.sourceforge.net/DTD/sodipodi-0.dtd"
   xmlns:inkscape="http://www.inkscape.org/namespaces/inkscape"
   width="48"
   height="48"
   viewBox="0 0 12.7 12.7"
   version="1.1"
   id="svg4"
   sodipodi:docname="preferences-system-parental-controls.svg"
   inkscape:version="0.92.5 (2060ec1f9f, 2020-04-08)">
  <metadata
     id="metadata10">
    <rdf:RDF>
      <cc:Work
         rdf:about="">
        <dc:format>image/svg+xml</dc:format>
        <dc:type
           rdf:resource="http://purl.org/dc/dcmitype/StillImage" />
        <dc:title></dc:title>
      </cc:Work>
    </rdf:RDF>
  </metadata>
  <defs
     id="defs8" />
  <sodipodi:namedview
     pagecolor="#ffffff"
     bordercolor="#666666"
     borderopacity="1"
     objecttolerance="10"
     gridtolerance="10"
     guidetolerance="10"
     inkscape:pageopacity="0"
     inkscape:pageshadow="2"
     inkscape:window-width="1085"
     inkscape:window-height="480"
     id="namedview6"
     showgrid="false"
     inkscape:zoom="4.9166667"
     inkscape:cx="2.1355932"
     inkscape:cy="24"
     inkscape:window-x="0"
     inkscape:window-y="25"
     inkscape:window-maximized="0"
     inkscape:current-layer="svg4" />
  <path
     d="M 6.34,0.075 A 6.295,6.295 0 0 0 0.055,6.36 6.295,6.295 0 0 0 6.34,12.655 6.295,6.295 0 0 0 12.634,6.36 6.295,6.295 0 0 0 6.34,0.075 Z m -0.011,0.94 a 5.408,5.408 0 0 1 5.397,5.387 5.407,5.407 0 0 1 -10.814,0 c 0,-2.987 2.43,-5.387 5.417,-5.387 z M 4.944,2.117 a 1.1755,1.1755 0 0 0 0,2.351 1.176,1.176 0 0 0 0,-2.352 z M 4.005,4.939 a 0.47,0.47 0 0 0 -0.433,0.29 l -1.173,2.35 c -0.26,0.587 0.633,0.96 0.866,0.363 L 3.785,6.692 3.769,6.82 v 3.293 c 0,0.26 0.21,0.47 0.47,0.47 h 0.002 c 0.26,0 0.469,-0.21 0.469,-0.47 L 4.708,8.232 h 0.47 l 0.001,1.881 a 0.47,0.47 0 1 0 0.939,0 L 6.116,6.82 6.099,6.68 6.623,7.942 A 0.47,0.47 0 0 0 7.294,8.178 L 8.012,8.14 C 8.006,8.17 7.993,8.199 7.993,8.232 v 2.116 a 0.235,0.235 0 1 0 0.47,0 L 8.46,9.172 h 0.472 l 0.002,1.176 a 0.235,0.235 0 1 0 0.47,0 V 8.565 L 9.94,9.103 c 0.221,0.231 0.562,-0.11 0.332,-0.332 L 9.335,7.83 A 0.234,0.234 0 0 0 9.169,7.761 H 8.294 L 7.53,7.771 A 0.47,0.47 0 0 0 7.49,7.581 L 6.315,5.227 A 0.47,0.47 0 0 0 5.882,4.937 H 4.005 Z m 4.693,0.823 a 0.824,0.824 0 0 0 0,1.646 0.824,0.824 0 0 0 0,-1.646 z"
     id="path2"
     inkscape:connector-curvature="0"
     style="fill:#2c89a0" />
</svg>
