<?xml version="1.0" encoding="UTF-8" standalone="no"?>
<svg
   xmlns:dc="http://purl.org/dc/elements/1.1/"
   xmlns:cc="http://creativecommons.org/ns#"
   xmlns:rdf="http://www.w3.org/1999/02/22-rdf-syntax-ns#"
   xmlns:svg="http://www.w3.org/2000/svg"
   xmlns="http://www.w3.org/2000/svg"
   xmlns:sodipodi="http://sodipodi.sourceforge.net/DTD/sodipodi-0.dtd"
   xmlns:inkscape="http://www.inkscape.org/namespaces/inkscape"
   width="48"
   height="48"
   viewBox="0 0 12.7 12.7"
   version="1.1"
   id="svg4"
   sodipodi:docname="texstudio.svg"
   inkscape:version="0.92.4 (5da689c313, 2019-01-14)">
  <metadata
     id="metadata10">
    <rdf:RDF>
      <cc:Work
         rdf:about="">
        <dc:format>image/svg+xml</dc:format>
        <dc:type
           rdf:resource="http://purl.org/dc/dcmitype/StillImage" />
        <dc:title></dc:title>
      </cc:Work>
    </rdf:RDF>
  </metadata>
  <defs
     id="defs8" />
  <sodipodi:namedview
     pagecolor="#ffffff"
     bordercolor="#666666"
     borderopacity="1"
     objecttolerance="10"
     gridtolerance="10"
     guidetolerance="10"
     inkscape:pageopacity="0"
     inkscape:pageshadow="2"
     inkscape:window-width="1112"
     inkscape:window-height="480"
     id="namedview6"
     showgrid="false"
     inkscape:zoom="4.9166667"
     inkscape:cx="2.1355932"
     inkscape:cy="24"
     inkscape:window-x="0"
     inkscape:window-y="25"
     inkscape:window-maximized="0"
     inkscape:current-layer="svg4" />
  <path
     d="m 6.34,0.07 a 6.29,6.29 0 0 0 0,12.58 6.29,6.29 0 0 0 0,-12.58 z M 6.32,1 A 5.417,5.417 0 0 1 11.73,6.41 5.4,5.4 0 0 1 6.33,11.82 5.4,5.4 0 0 1 0.92,6.42 5.4,5.4 0 0 1 6.32,1 Z M 2.27,4.268 V 5.143 H 2.589 L 2.664,4.63 A 0.112,0.112 0 0 1 2.694,4.563 0.087,0.087 0 0 1 2.757,4.536 h 0.79 V 7.57 c 0,0.026 -0.01,0.052 -0.03,0.077 C 3.5,7.672 3.471,7.687 3.432,7.69 L 3.082,7.711 V 7.947 H 4.567 V 7.71 L 4.217,7.689 A 0.12,0.12 0 0 1 4.127,7.646 0.132,0.132 0 0 1 4.101,7.569 V 4.536 h 0.784 c 0.025,0 0.045,0.01 0.06,0.027 A 0.123,0.123 0 0 1 4.976,4.63 L 5.054,5.143 H 5.378 V 4.268 H 2.271 Z m 4.865,0 V 4.504 L 7.496,4.568 8.495,6.131 7.392,7.643 7.062,7.71 V 7.946 H 8.227 V 7.71 L 7.897,7.683 C 7.867,7.68 7.847,7.673 7.834,7.663 A 0.062,0.062 0 0 1 7.817,7.622 0.08,0.08 0 0 1 7.831,7.579 L 8.676,6.418 9.405,7.563 c 0.007,0.012 0.01,0.025 0.01,0.038 0,0.02 -0.008,0.036 -0.024,0.05 A 0.097,0.097 0 0 1 9.337,7.678 L 9.022,7.71 v 0.236 h 1.407 V 7.71 L 10.089,7.643 9.011,5.957 10.028,4.557 10.381,4.504 V 4.268 H 9.233 v 0.236 l 0.281,0.037 a 0.08,0.08 0 0 1 0.05,0.025 0.058,0.058 0 0 1 0.025,0.048 c 0,0.016 -0.005,0.03 -0.016,0.043 L 8.834,5.67 8.165,4.64 A 0.084,0.084 0 0 1 8.152,4.594 C 8.152,4.578 8.157,4.564 8.168,4.551 8.18,4.539 8.202,4.531 8.232,4.529 L 8.511,4.503 V 4.267 H 7.135 Z M 4.756,5.813 V 6.048 L 5.04,6.069 A 0.12,0.12 0 0 1 5.128,6.112 C 5.15,6.137 5.16,6.163 5.16,6.19 V 9.113 C 5.16,9.139 5.15,9.165 5.128,9.19 A 0.12,0.12 0 0 1 5.04,9.233 L 4.756,9.254 V 9.49 H 7.6 V 8.575 H 7.305 L 7.206,9.118 A 0.163,0.163 0 0 1 7.171,9.185 C 7.151,9.21 7.131,9.222 7.107,9.222 H 5.72 v -1.51 h 0.821 c 0.023,0 0.046,0.013 0.067,0.036 C 6.63,7.771 6.64,7.792 6.64,7.812 l 0.057,0.38 H 6.975 V 6.969 H 6.697 L 6.64,7.346 c 0,0.02 -0.01,0.04 -0.032,0.062 A 0.09,0.09 0 0 1 6.541,7.44 H 5.72 V 6.075 H 6.908 A 0.08,0.08 0 0 1 6.972,6.107 0.13,0.13 0 0 1 7.007,6.179 L 7.09,6.629 H 7.42 V 5.813 H 4.755 Z"
     id="path2"
     inkscape:connector-curvature="0"
     style="fill:#2c89a0" />
</svg>
