<svg xmlns="http://www.w3.org/2000/svg" width="48" height="48" viewBox="0 0 12.7 12.7"><path d="M8.81 3.4c-.53-.01-.87.04-1.07.09a.12.12 0 0 0-.03.22c.63.37.8.85.85 1.17.01.12-.13.19-.21.1a2.17 2.17 0 0 0-1.43-.58.12.12 0 0 0-.12.13 3.38 3.38 0 0 1-.59 2.04.12.12 0 0 1-.2 0c-.3-.47-.3-1.7-.3-2.07a.12.12 0 0 0-.11-.12c-.54-.07-1.18.36-1.57.68-.1.08-.24-.02-.19-.14.3-.7.77-1.07 1.02-1.23a.12.12 0 0 0-.03-.22 1.18 1.18 0 0 0-.26-.06 10.48 10.48 0 0 0-1.35.29A4.07 4.07 0 0 0 1.7 6.83c0 2.34 2.08 4.24 4.65 4.24 2.57 0 4.65-1.9 4.65-4.24a4.12 4.12 0 0 0-1.9-3.4l-.21-.02-.08-.01zM2.6 5.49h.07c.1.04.14.15.1.24-.06.2-.1.4-.12.6 0 .1-.09.17-.18.17h-.01c-.1 0-.18-.1-.17-.2.01-.23.06-.47.14-.7.03-.06.1-.1.17-.11zM2.42 6.9c.1-.01.2.06.2.16.04.22.11.43.22.62a.18.18 0 1 1-.3.19 2.07 2.07 0 0 1-.28-.76c-.01-.1.06-.2.16-.2z" fill="red" opacity=".75"/><path d="M6.34.07a6.29 6.29 0 0 0-6.29 6.3 6.29 6.29 0 0 0 6.3 6.28 6.29 6.29 0 0 0 6.28-6.29A6.29 6.29 0 0 0 6.34.07zM6.32 1l.01.01a5.4 5.4 0 0 1 5.4 5.4 5.4 5.4 0 0 1-5.4 5.41 5.4 5.4 0 0 1-5.41-5.4A5.4 5.4 0 0 1 6.32 1zm-.37.48c-.16 0-.3.16-.3.36v.91c0 .09-.08.15-.16.14a3.3 3.3 0 0 0-2.32.36c-.13.08-.05.28.1.25a2.86 2.86 0 0 1 1.4.02c.11.04.12.18.03.24-.28.18-.79.6-1.12 1.37-.06.13.1.25.2.16.44-.36 1.14-.84 1.74-.76.07.01.13.07.13.14 0 .4 0 1.77.33 2.28.05.09.17.09.23.01.2-.29.67-1.06.65-2.26 0-.08.06-.15.14-.15.3.01 1.01.1 1.58.65.1.1.25.01.23-.11-.04-.36-.24-.89-.94-1.3-.1-.06-.09-.22.03-.25a5.1 5.1 0 0 1 1.35-.1c.14 0 .2-.17.08-.25-.52-.33-1.5-.8-2.43-.37a.14.14 0 0 1-.2-.12v-.86c0-.2-.13-.36-.3-.36h-.45z" fill="#2c89a0"/></svg>
