<?xml version="1.0" encoding="UTF-8" standalone="no"?><svg xmlns:dc="http://purl.org/dc/elements/1.1/" xmlns:cc="http://creativecommons.org/ns#" xmlns:rdf="http://www.w3.org/1999/02/22-rdf-syntax-ns#" xmlns="http://www.w3.org/2000/svg" width="48" height="48" viewBox="0 0 12.7 12.7"><metadata><rdf:RDF><cc:Work><dc:format>image/svg+xml</dc:format><dc:type rdf:resource="http://purl.org/dc/dcmitype/StillImage"/><dc:title/></cc:Work></rdf:RDF></metadata><path d="M6.34.07a6.29 6.29 0 0 0-6.28 6.3 6.29 6.29 0 0 0 6.29 6.28 6.29 6.29 0 0 0 6.28-6.29A6.29 6.29 0 0 0 6.34.07zm-.01.94a5.4 5.4 0 0 1 5.4 5.4 5.4 5.4 0 0 1-5.4 5.41 5.4 5.4 0 0 1-5.41-5.4A5.4 5.4 0 0 1 6.32 1z" fill="#2c89a0"/><rect width="9.55" height="9.55" x="-11.15" y="-11.1" rx="4.78" ry="4.78" transform="matrix(0 -1 -1 0 0 0)" fill="#7535a0"/><path d="M6.35 1.84l-.55.06-.69.19-.13.13.43.29v.16l-.28.17.33.44.15-.08.19-.3c.28-.08.54-.18.8-.3l.2-.57zm-1.31.04l-.24.04-.11.1-.19.03-.16.08-.08.04-.05.07.24.04.09-.09.18-.04c.13-.06.26-.1.4-.14zm-1.09.5l-.04.09.02.2-.15.13-.09.23h.19l.09-.2.24-.18.18.07.37.25.19-.17-.2-.08-.1-.2-.35-.03-.02-.1-.16.03-.08.15zm4.73.17l-.35.08-.23.15v.12l-.35.23.08.34.2-.15.13.15.15.08.09-.25-.06-.14.06-.1.2-.27h.1l-.1.28v.19l.26-.04-.24.17-.02.1-.27.23-.28-.06v-.17l-.13.08.06.2h-.2l-.12.14-.14.15-.25.06.15.14.04.15h-.19l-.23.12v.38h.1l.1.11.24-.11.09-.23.17-.1.03-.09.28-.06.15.17.16.08-.09.19.15-.04.07-.2-.18-.2h.07l.19.14.03.21.17.2.04-.28.09-.04.24.31.27.02.17.1-.07.11-.17.15H9.1l-.31-.1-.17.01-.12.14-.34-.34-.24-.07-.35.04-.32.09-.49.6-.2.48.1.1-.17.26.18.44c.16.17.29.35.45.53l.23-.2.1.12.25-.16.08.1h.25l.14.16-.08.28.17.2v.35l.12.25-.14.2v.46c.07.21.1.42.18.63l.06.33v.17h.2l.2-.12h.17l.2-.15.23-.26-.05-.14.24-.2-.17-.2.21-.18.18-.13.1-.1-.06-.23v-.59l.19-.35.2-.23.22-.54v-.15l-.32.03.22-.22.3-.2.17-.2v-.2l-.11-.21-.15.17-.11-.13-.17-.12v-.28l.2.22.21-.03c.1.09.2.17.28.27l.02-.02c-.1-1.1-.58-2.1-1.3-2.86-.05-.04-.1-.08-.12-.12l-.17-.15-.06.08-.18.21L9 2.8h.24l.1-.07-.43-.09zm-5.22 0l-.08.07.03.16-.26.03a4.76 4.76 0 0 0-1.6 3.56l.07.13.4.23.38.1.17.2.25.2.15-.02.11.05v.03l-.15.4-.1.16.03.09-.12.31.36.6.24.3.14.2-.01.45.2.25-.06.26c.21.15.44.27.68.39l.08-.1.06-.14.24-.08.22-.46-.1-.12.14-.26.27-.07.17-.26-.05-.42.26-.31.04-.31c-.3-.15-.65-.3-.95-.46l-.15-.3-.28-.06-.14-.27-.37.04-.32-.27-.33.21v.05c-.1-.03-.22-.04-.31-.1l-.08-.2v-.23l-.22.02.06-.44H2.4l-.13.17-.13.06-.18-.1-.02-.23.04-.25.27-.21h.22l.04-.13.28.07.18.25.03-.42.38-.3.13-.3.25-.02.15-.2.33-.07.17-.25h-.5l.32-.14h.22l.31-.2.04-.13-.11-.1-.13-.05.04-.12-.1-.19-.22.08.04-.16-.26-.15-.2.36.02.12-.2.09-.14.27-.05-.25-.35-.15-.06-.19.46-.27.2-.19.02-.23-.1-.06zm3.5.22l-.26.09-.12-.02-.02.12.18.08.34-.14-.11-.13zm-2.55.1l-.15.1.19.12h.15v-.14zm2.92.47v.13l.07.08v.19l-.04.25.2-.04.15-.15-.13-.12-.14-.34zm-.08.25l-.13.05.04.23.17-.09zm-2.54.38l.05.3.11-.18zM9.52 5.6l.22.24.25.53.14.17-.07.19.14.15-.2.01a7.2 7.2 0 0 1-.29-.75l-.2-.18-.09-.3z" opacity=".3"/></svg>