<svg xmlns="http://www.w3.org/2000/svg" width="48" height="48" viewBox="0 0 12.7 12.7"><path d="M6.34.07a6.29 6.29 0 0 0-6.29 6.3 6.29 6.29 0 0 0 6.3 6.28 6.29 6.29 0 0 0 6.28-6.29A6.29 6.29 0 0 0 6.34.07zM6.32 1l.01.01a5.4 5.4 0 0 1 5.4 5.4 5.4 5.4 0 0 1-5.4 5.41 5.4 5.4 0 0 1-5.41-5.4A5.4 5.4 0 0 1 6.32 1zm0 .78A4.6 4.6 0 0 0 1.7 6.41 4.6 4.6 0 0 0 6.32 11a4.6 4.6 0 0 0 4.6-4.61 4.6 4.6 0 0 0-4.6-4.6v-.02zm2.55 1.87a.81.81 0 0 1 .3.05.9.9 0 0 1 .47.49c.06.17.07.4.02.57-.04.16-2.59 4.8-2.71 4.94a.83.83 0 0 1-.25.18c-.34.16-.69.1-.94-.17a42.99 42.99 0 0 1-1.4-2.47c-1.43-2.6-1.4-2.55-1.34-2.85.07-.39.37-.73.82-.73a.8.8 0 0 1 .59.24c.05.05.3.48.57.97.82 1.49.84 1.54 1.02 1.7a1.28 1.28 0 0 0 1.84 0c.17-.19.32-.46.37-.72.04-.2.02-.6-.05-.76l-.1-.28c-.06-.16-.05-.48.02-.65a.93.93 0 0 1 .4-.42.85.85 0 0 1 .37-.09z" fill="#2c89a0"/></svg>