<svg xmlns="http://www.w3.org/2000/svg" width="48" height="48" viewBox="0 0 12.7 12.7"><path d="M6.34.07a6.29 6.29 0 0 0-6.29 6.3 6.29 6.29 0 0 0 6.3 6.28 6.29 6.29 0 0 0 6.28-6.29A6.29 6.29 0 0 0 6.34.07zM6.32 1l.01.01a5.4 5.4 0 0 1 5.4 5.4 5.4 5.4 0 0 1-5.4 5.41 5.4 5.4 0 0 1-5.41-5.4A5.4 5.4 0 0 1 6.32 1zm1.35 3.23h-.88l-.02.02v.15c0 .02 0 .03.02.04.02.02.04.02.05.02l.07.01c.18 0 .27.05.3.08.04.06.06.11-.05.34L6.54 6.1l-.56-1.13c-.18-.36-.23-.47.05-.5h.11c.05 0 .08-.02.08-.06v-.16l-.04-.01H4.67l-.02.01v.16c0 .04.04.05.1.06.27.03.26.06.52.56l.15.3L6 6.46l.17.37-.85 1.67h-.04s-1.32-2.75-1.7-3.67a.62.62 0 0 1-.06-.2c0-.1.09-.15.26-.15l.2-.01c.05 0 .07-.02.07-.07v-.14l-.01-.02h-1.9l-.02.02v.15c0 .03.03.05.1.06.2 0 .34.04.4.09.06.05.13.19.22.4.48 1.13 1.5 3.16 1.99 4.31.14.32.32.37.54 0l.98-1.94c0-.07 0 .06.06.02l.9 1.9c.15.34.34.37.52.02.5-1.07 1.92-4.3 1.92-4.3a.85.85 0 0 1 .25-.36.87.87 0 0 1 .51-.15c.05 0 .07-.02.07-.06v-.15l-.01-.02H8.82l-.03.02v.15c0 .02.01.03.03.04.01.02.03.02.05.02l.15.01c.17 0 .22.04.3.1.06.06.07.17.02.31L7.79 8.51l-.06-.01-.99-1.99.03-.05.8-1.48.23-.36c.09-.12.13-.15.36-.16.05 0 .07-.02.07-.06v-.15l-.01-.01h-.55z" fill="#2c89a0"/></svg>
