<svg xmlns="http://www.w3.org/2000/svg" width="48" height="48" viewBox="0 0 12.7 12.7"><path d="M6.34.07a6.29 6.29 0 0 0-6.29 6.3 6.29 6.29 0 0 0 6.3 6.28 6.29 6.29 0 0 0 6.28-6.29A6.29 6.29 0 0 0 6.34.07zm-.01.94a5.4 5.4 0 0 1 5.4 5.4 5.4 5.4 0 0 1-5.4 5.41 5.4 5.4 0 0 1-5.41-5.4A5.4 5.4 0 0 1 6.32 1zM4 2.28L2.55 3.76h7.6L8.7 2.28H4zM2.55 3.9V10h4.53a2.12 2.12 0 0 1-.06-.06 2.12 2.12 0 0 1-.13-.17 2.12 2.12 0 0 1-.02-.03H2.9V4.16H9.8V6.8a2.12 2.12 0 0 1 .15.11 2.12 2.12 0 0 1 .16.14 2.12 2.12 0 0 1 .03.03V3.9h-7.6zm.71.7v2.18h4.27a2.12 2.12 0 0 1 .1-.06 2.12 2.12 0 0 1 .19-.1 2.12 2.12 0 0 1 .2-.06 2.12 2.12 0 0 1 .2-.06 2.12 2.12 0 0 1 .21-.03 2.12 2.12 0 0 1 .21 0 2.12 2.12 0 0 1 .15 0 2.12 2.12 0 0 1 .21.02 2.12 2.12 0 0 1 .2.05 2.12 2.12 0 0 1 .2.07 2.12 2.12 0 0 1 .01 0V4.58H3.26zm2.17.7h1.84v.42H5.43V5.3zm3.21 1.43A1.85 1.85 0 0 0 6.8 8.57a1.85 1.85 0 0 0 1.85 1.85 1.85 1.85 0 0 0 1.85-1.85 1.85 1.85 0 0 0-1.85-1.85zm-5.38.4V9.3h3.4a2.12 2.12 0 0 1-.04-.1 2.12 2.12 0 0 1-.05-.21 2.12 2.12 0 0 1-.03-.21 2.12 2.12 0 0 1-.02-.21 2.12 2.12 0 0 1 .01-.15 2.12 2.12 0 0 1 .02-.18H5.43v-.41h1.23a2.12 2.12 0 0 1 0-.03 2.12 2.12 0 0 1 .1-.2 2.12 2.12 0 0 1 .1-.18 2.12 2.12 0 0 1 .12-.17 2.12 2.12 0 0 1 .12-.13H3.26zm4.51.52h.66c.03 0 .06.03.06.06v.66c0 .03-.03.05-.06.05h-.66a.06.06 0 0 1-.05-.05V7.7c0-.03.02-.06.05-.06zm1.08 0h.66c.03 0 .06.03.06.06v.66c0 .03-.03.05-.06.05h-.66a.05.05 0 0 1-.05-.05V7.7c0-.03.02-.06.05-.06zM7.77 8.72h.66c.03 0 .06.03.06.06v.66c0 .03-.03.05-.06.05h-.66a.06.06 0 0 1-.05-.05v-.66c0-.03.02-.06.05-.06zm1.08 0h.66c.03 0 .06.03.06.06v.66c0 .03-.03.05-.06.05h-.66a.05.05 0 0 1-.05-.05v-.66c0-.03.02-.06.05-.06z" fill="#2c89a0"/></svg>
