<svg xmlns="http://www.w3.org/2000/svg" width="48" height="48" viewBox="0 0 12.7 12.7"><path d="M6.34.07a6.29 6.29 0 0 0-6.29 6.3 6.29 6.29 0 0 0 6.3 6.28 6.29 6.29 0 0 0 6.28-6.29A6.29 6.29 0 0 0 6.34.07zm-.01.94a5.4 5.4 0 0 1 5.4 5.4 5.4 5.4 0 0 1-5.4 5.41 5.4 5.4 0 0 1-5.41-5.4A5.4 5.4 0 0 1 6.32 1zM9.26 2.7L5.93 7.05l1.54 2.14c.18-.03.37-.02.53-.07.34-.1.63-.26.9-.43L7.15 6.24l2.7-3.54h-.6zm-6.49 0l2.77 3.87-1.45 1.9c.04.05.06.1.11.13.08.06.2.08.3.14l2.26-3-2.2-3.04H2.76zm6.6 6.66c-.36.21-.74.41-1.2.54-.05.02-.12.01-.17.02l.12.18H9.9l-.52-.74zM3.4 9.4l-.54.7h.6l.39-.5c-.15-.06-.31-.12-.45-.2z" fill="#2c89a0"/><path d="M6.35 4.1c-.21 0-.44.03-.65.05l1.02 1.34c-.2-.42-.6-.83-.46-1.04.14-.2.4-.17.41-.17.41 0 .8.05 1.18.13l.08-.12a6.37 6.37 0 0 0-1.58-.18zm2.22.4l-.08.11c1.13.44 1.9 1.3 1.9 2.27 0 1.43-1.66 2.6-3.72 2.6-2.05 0-3.71-1.17-3.71-2.6 0-.78.5-1.48 1.27-1.96L4 4.55C2.77 5.07 1.95 6 1.95 7.02c0 1.62 1.97 2.93 4.4 2.93 2.43 0 4.4-1.31 4.4-2.93 0-1.07-.88-2.02-2.18-2.52z" opacity=".75" fill="#2c89a0"/></svg>