<svg xmlns="http://www.w3.org/2000/svg" width="48" height="48" viewBox="0 0 12.7 12.7"><path d="M6.34.07a6.29 6.29 0 0 0-6.29 6.3 6.29 6.29 0 0 0 6.3 6.28 6.29 6.29 0 0 0 6.28-6.29A6.29 6.29 0 0 0 6.34.07zM6.32 1l.01.01a5.4 5.4 0 0 1 4.9 3.15l-8.2-2.04A5.4 5.4 0 0 1 6.33 1zM2.51 2.58l3.92.98a1.88 2.36 0 0 0-.1.71 1.88 2.36 0 0 0 1.89 2.36 1.88 2.36 0 0 0 1.87-2.16l1.4.35a5.4 5.4 0 0 1 .24 1.59 5.4 5.4 0 0 1-5.4 5.41 5.4 5.4 0 0 1-5.41-5.4 5.4 5.4 0 0 1 1.59-3.84zm1.77 1.09a.66 1.55 0 0 0-.65 1.55.66 1.55 0 0 0 .65 1.54.66 1.55 0 0 0 .66-1.54.66 1.55 0 0 0-.66-1.55zm-.01.43a.2.3 0 0 1 .2.3.2.3 0 0 1-.2.3.2.3 0 0 1-.2-.3.2.3 0 0 1 .2-.3zm5.39 2.25C8.5 9.28 6.53 9.75 4.16 9.1l.13.3c2.34.76 4.28.47 5.5-2.74l-.13-.31zm-1.5 3.24c-.51.55-1.11.62-1.73.63l.1.32c.62 0 1.2-.13 1.74-.63l-.1-.32z" fill="#1a1a1a"/></svg>