<svg xmlns="http://www.w3.org/2000/svg" width="48" height="48" viewBox="0 0 12.7 12.7"><path d="M6.34.07a6.29 6.29 0 0 0-6.29 6.3 6.29 6.29 0 0 0 6.3 6.28 6.29 6.29 0 0 0 6.28-6.29A6.29 6.29 0 0 0 6.34.07zM6.32 1l.01.01a5.4 5.4 0 0 1 5.4 5.4 5.4 5.4 0 0 1-5.4 5.41 5.4 5.4 0 0 1-5.41-5.4A5.4 5.4 0 0 1 6.32 1zm3.22 6.38c-.02 0-.03 0-.05.02-2 1.94-4.09 2.2-6.29 0-.07-.08-.07.08-.07.19 0 .1 0 .1.07.19 2.1 2.13 4.2 2.09 6.3 0 .06-.08.04-.11.04-.22 0-.08.02-.17 0-.18zM5.56 9.99V10c-.06.13-.1.26 0 .39.59.25 1.1.19 1.6 0a.4.4 0 0 0 0-.4c-.5.2-1.02.27-1.6 0z" fill="#1a1a1a"/><path d="M5.04 3.19H4.9c-.15.04-.31.14-.49.32l-.06.06-.06-.06a1.27 1.27 0 0 0-.38-.28c-.23-.09-.52-.03-.75.15-.25.2-.4.51-.44.87v.42c.06.38.23.72.5 1.05.2.23.4.42.78.7.18.14.29.23.32.27l.03.03.03-.04.3-.22c.43-.3.62-.47.83-.73a2 2 0 0 0 .48-1.3c0-.21-.03-.39-.1-.56-.14-.34-.4-.58-.7-.66a.6.6 0 0 0-.15-.02zm3.97 0h-.14c-.15.04-.32.14-.49.32l-.06.06-.07-.06a1.27 1.27 0 0 0-.38-.28c-.22-.09-.51-.03-.74.15-.25.2-.4.51-.45.87l.01.42c.06.38.22.72.5 1.05.2.23.4.42.78.7.18.14.29.23.32.27l.03.03.03-.04.3-.22c.42-.3.62-.47.82-.73a2 2 0 0 0 .49-1.3c0-.21-.04-.39-.1-.56-.14-.34-.4-.58-.7-.66A.6.6 0 0 0 9 3.2z" fill="#ff2a2a" opacity=".75"/></svg>