<svg xmlns="http://www.w3.org/2000/svg" width="48" height="48" viewBox="0 0 12.7 12.7"><path d="M6.34.07a6.29 6.29 0 0 0-2.31.45 2.52 2.43 0 0 0-1.39-.4A2.52 2.43 0 0 0 .12 2.55 2.52 2.43 0 0 0 .55 3.9a6.29 6.29 0 0 0-.5 2.46 6.29 6.29 0 0 0 6.3 6.28 6.29 6.29 0 0 0 6.28-6.29 6.29 6.29 0 0 0-.49-2.43 2.52 2.43 0 0 0 .46-1.38A2.52 2.43 0 0 0 10.07.12a2.52 2.43 0 0 0-1.4.4A6.29 6.29 0 0 0 6.35.07zm3.73.95a1.58 1.52 0 0 1 1.59 1.53 1.58 1.52 0 0 1-.06.38 6.29 6.29 0 0 0-1.87-1.87 1.58 1.52 0 0 1 .34-.04zm-7.43 0a1.58 1.52 0 0 1 .33.04A6.29 6.29 0 0 0 1.1 2.89a1.58 1.52 0 0 1-.04-.34 1.58 1.52 0 0 1 1.58-1.53zM3 2.82c1.07-.03 2.39.88 3.34 2.35 1.27-1.95 3.17-2.92 4.3-2.01a5.4 5.4 0 0 1 1.08 2.96c-.02.6-.25 1.28-1.26 1.53a3.54 3.54 0 0 1-1.2 3.3 5.4 5.4 0 0 1-2.93.87 5.4 5.4 0 0 1-2.88-.83c-.76-.77-1.43-1.6-1.23-3.34C1.12 7.38.95 6.6.96 5.95l-.02.07a5.4 5.4 0 0 1 1-2.78c.3-.28.67-.42 1.06-.43zm.7 1.47a.9.97 0 0 0-.9.98.9.97 0 0 0 .9.98.9.97 0 0 0 .92-.98.9.97 0 0 0-.92-.96v-.02zm5.16 0a.9.97 0 0 0-.92.98.9.97 0 0 0 .92.98.9.97 0 0 0 .9-.98.9.97 0 0 0-.9-.96v-.02zm-5.19.3a.32.14 0 0 1 .03 0 .32.14 0 0 1 .31.13.32.14 0 0 1-.31.14.32.14 0 0 1-.32-.14.32.14 0 0 1 .3-.14zm5.15 0h.01a.32.14 0 0 1 .03 0 .32.14 0 0 1 .3.13.32.14 0 0 1-.3.14.32.14 0 0 1-.31-.14.32.14 0 0 1 .27-.14zm-3.1 2.36a.3.59 76.61 0 0-.23.03.3.59 76.61 0 0-.5.43.3.59 76.61 0 0 .64.15.3.59 76.61 0 0 .5-.42.3.59 76.61 0 0-.42-.19zm1.27 0a.59.3 13.39 0 0-.42.19.59.3 13.39 0 0 .5.42.59.3 13.39 0 0 .64-.15.59.3 13.39 0 0-.5-.43.59.3 13.39 0 0-.22-.03zm2.52.54l-.04.02c-2 1.95-4.09 2.2-6.29 0-.07-.07-.07.09-.07.2 0 .1 0 .1.07.18 2.1 2.14 4.2 2.09 6.3 0 .06-.08.04-.1.04-.22 0-.07.01-.17-.01-.18zm-3.96 2.63c-.06.14-.1.27 0 .39.59.26 1.1.19 1.6 0a.4.4 0 0 0 0-.39c-.5.2-1.03.26-1.6 0z" fill="#1a1a1a"/></svg>