<?xml version="1.0" encoding="UTF-8" standalone="no"?><svg xmlns:dc="http://purl.org/dc/elements/1.1/" xmlns:cc="http://creativecommons.org/ns#" xmlns:rdf="http://www.w3.org/1999/02/22-rdf-syntax-ns#" xmlns="http://www.w3.org/2000/svg" width="48" height="48" viewBox="0 0 12.7 12.7"><metadata><rdf:RDF><cc:Work><dc:format>image/svg+xml</dc:format><dc:type rdf:resource="http://purl.org/dc/dcmitype/StillImage"/><dc:title/></cc:Work></rdf:RDF></metadata><path d="M1.21.86L.14 3.66h6.04V.86H1.21zm5.18 0v2.8h6.11L11.4.86H6.4zM.19 3.89v6.31c0 .64.25 1.18.74 1.64.5.45 1.08.67 1.78.67h7.25c.7 0 1.28-.22 1.78-.67.49-.46.73-1 .73-1.64V3.9h-1.12v6.3c0 .36-.13.66-.4.91a1.4 1.4 0 0 1-.99.38H2.71a1.4 1.4 0 0 1-.99-.38 1.19 1.19 0 0 1-.41-.9V3.88H.19zm1.53 1.4v1.06H2v1.06h.53V6.35h.26V5.29H1.72zm1.32.05v.53h.53v-.53h-.53zm.53.53v.53h.53v-.53h-.53zm.53 0h.53v-.53H4.1v.53zm.53 0v.53h.53v-.53h-.53zm.53 0h.52v-.53h-.52v.53zm.52 0v.53h.53v-.53h-.53zm.53 0h.53v-.53h-.53v.53zm.53 0v.53h.53v-.53h-.53zm.53 0h.53v-.53h-.53v.53zm.53 0v.53h.53v-.53H7.8zm.53 0h.53v-.53h-.53v.53zm.53 0v.53h.53v-.53h-.53zm.53 0h.53v-.53h-.53v.53zm.53 0v.53h.53v-.53h-.53zm.53 0h.53v-.53h-.53v.53zm-8.46-.31h.53v.53h-.53v-.53zm2.6 2.34v2.35H5v-.9c0-.17.01-.27.06-.35.06-.1.17-.16.3-.16.26 0 .35.14.35.51v.9h.42v-1c0-.25-.03-.4-.12-.52-.11-.19-.32-.29-.57-.29a.63.63 0 0 0-.44.17v-.7h-.43zm4.93.55c-.18 0-.27.05-.38.21V8.5h-.4v1.76h.43v-.98c0-.27.12-.41.38-.42v-.4h-.03zm-5.8 0c-.32 0-.58.23-.58.53 0 .26.14.4.5.52.15.06.16.07.2.1.06.03.09.08.09.13 0 .1-.08.17-.2.17-.12 0-.19-.06-.23-.21h-.42c.02.17.05.26.12.35a.66.66 0 0 0 .52.25.6.6 0 0 0 .63-.6.45.45 0 0 0-.16-.37.96.96 0 0 0-.33-.14l-.21-.08c-.06-.02-.09-.06-.09-.12 0-.08.07-.14.16-.14.1 0 .15.04.17.14h.41a.47.47 0 0 0-.12-.34.6.6 0 0 0-.45-.2zm3.59 0c-.52 0-.9.39-.9.93 0 .53.37.91.89.91.24 0 .41-.08.58-.27v.23h.39V8.49h-.39v.24a.65.65 0 0 0-.57-.28zm.04.39c.3 0 .52.22.52.54a.6.6 0 0 1-.13.36.49.49 0 0 1-.38.16.5.5 0 0 1-.52-.52c0-.32.21-.54.51-.54z" fill="#2c89a0"/></svg>