<svg xmlns="http://www.w3.org/2000/svg" width="48" height="48"><path style="line-height:normal;text-indent:0;text-align:start;text-decoration-line:none;text-transform:none;marker:none" d="M29.705-.084c-2.047.008-4.121.088-4.517.098H7a2.938 2.938 0 0 0-.563 0C5.063.276 3.975 1.612 4 3.012V45c0 1.57 1.43 3 3 3h34c1.57 0 3-1.43 3-3V18.818c.018-.792.215-9.927-.336-10.496L34.054.248c-.284-.275-2.302-.34-4.349-.332zm1.49 3.094l.133 7.504c.012.681.638 1.29 1.317 1.279l7.771-.137c.133.018.268.017.4-.006l.082 3.03.102 4.09v26.227H7V3.021h18.672l5.523-.011zM10.242 6.908v2.037h6.207V6.908h-6.207zm8 0v2.037h6.207V6.908h-6.207zm-6 4v2.037H28.34v-2.037H12.242zm-2 4v2.037H24.11v-2.037H10.242zm16 0v2.037h10.28v-2.037h-10.28zm-16 4v2.037h6.4v-2.037h-6.4zm8 0v2.037h11.83v-2.037h-11.83zm14 0v2.037h4.17v-2.037h-4.17zm-20 4v2.037h21.72v-2.037h-21.72zm0 4v1.94H29.6v-1.94H12.242zm20 0v1.94h3.977v-1.94h-3.977zm-22.219 4v1.94H26.22v-1.94H10.023zm19.602 0v1.94h6.594v-1.94h-6.594zm-12.936 4.287v7.598h1.748v-7.598H16.69zm12.467 2.002a11.25 11.25 0 0 0-1.832.274v1.332c.689-.374 1.493-.488 2.268-.436.524-.02 1.134.328 1.023.924-.837.013-1.69-.061-2.506.176-.723.156-1.277.82-1.26 1.566-.102.903.6 1.77 1.5 1.87.854.151 1.799-.16 2.266-.92v.81h1.764v-3.121c0-.131-.004-.262-.016-.393-.026-.836-.523-1.689-1.375-1.902a5.636 5.636 0 0 0-1.832-.18zm-9.088.127v3.34c-.018.825.253 1.805 1.104 2.125.937.376 2.056.023 2.646-.787v.791h1.748v-5.469h-1.748v1.58c-.04.766.15 1.614-.312 2.287-.371.605-1.54.574-1.635-.222-.113-1.21-.02-2.43-.045-3.645h-1.758zm9.639 3.008h.734c.442.012.053.889-.162 1.088-.402.464-1.398.531-1.638-.127-.228-.65.51-1.046 1.066-.961z" color="#000" font-weight="400" font-family="Andale Mono" overflow="visible" fill="#2c89a0"/></svg>