<svg xmlns="http://www.w3.org/2000/svg" width="48" height="48"><path style="line-height:normal;text-indent:0;text-align:start;text-decoration-line:none;text-transform:none;marker:none" d="M29.705-.084c-2.047.008-4.121.088-4.517.098H7a2.938 2.938 0 0 0-.563 0C5.063.276 3.975 1.612 4 3.012V45c0 1.57 1.43 3 3 3h34c1.57 0 3-1.43 3-3V18.818c.018-.792.215-9.927-.336-10.496L34.054.248c-.284-.275-2.302-.34-4.349-.332zm1.49 3.094l.133 7.504c.012.681.638 1.29 1.317 1.279l7.771-.137c.133.018.268.017.4-.006l.082 3.03.102 4.09v26.227H7V3.021h18.672l5.523-.011zM10.242 6.908v2.037h6.207V6.908h-6.207zm8 0v2.037h6.207V6.908h-6.207zm-6 4v2.037H28.34v-2.037H12.242zm-2 4v2.037H24.11v-2.037H10.242zm16 0v2.037h10.28v-2.037h-10.28zm-16 4v2.037h6.4v-2.037h-6.4zm8 0v2.037h11.83v-2.037h-11.83zm14 0v2.037h4.17v-2.037h-4.17zm-20 4v2.037h21.72v-2.037h-21.72zm0 4v1.94H29.6v-1.94H12.242zm20 0v1.94h3.977v-1.94h-3.977zm-22.219 4v1.94H26.22v-1.94H10.023zm19.602 0v1.94h6.594v-1.94h-6.594zm2.86 4.5v7.404h1.703v-7.404h-1.704zm-16.643.297c-.614.002-1.229.012-1.842.004v7.103h1.832v-2.464c.888-.022 1.81.093 2.658-.235 1.019-.333 1.516-1.477 1.334-2.486-.087-1.081-1.121-1.812-2.144-1.88a28.201 28.201 0 0 0-1.838-.042zm-.01 1.33c.421.007.845-.014 1.266.018.802.02 1.127 1.081.64 1.642-.506.497-1.269.274-1.906.325v-1.985zm7.537.317c-.935.044-1.848.45-2.336 1.271-.66 1.224-.493 3.05.754 3.844 1.32.774 2.972.514 4.344.023v-1.185c-.335-.118-1.236.554-1.854.492-.811.176-1.87-.22-1.877-1.178h3.682c.387.125.304-.22.3-.484.033-1.005-.461-2.036-1.39-2.485a3.572 3.572 0 0 0-1.623-.298zm7.598.003c-.655.059-1.277.401-1.596 1.004v-.877h-1.703v5.33h1.703v-.816c.038-.825-.101-1.675.139-2.476.297-.862 1.405-.953 2.117-.584l-.004-1.543a2.267 2.267 0 0 0-.656-.038zm-7.45 1.122c.595-.04 1.172.461 1.114 1.091h-1.953c-.622.016.155-1.063.586-1.04a.975.975 0 0 1 .254-.051z" color="#000" font-weight="400" font-family="Andale Mono" overflow="visible" fill="#2c89a0"/></svg>