<svg xmlns="http://www.w3.org/2000/svg" width="48" height="48"><path style="line-height:normal;text-indent:0;text-align:start;text-decoration-line:none;text-transform:none;marker:none" d="M29.705-.084c-2.047.008-4.121.088-4.517.098H7a2.938 2.938 0 0 0-.563 0C5.063.276 3.975 1.612 4 3.012V45c0 1.57 1.43 3 3 3h34c1.57 0 3-1.43 3-3V18.818c.018-.792.215-9.927-.336-10.496L34.054.248c-.284-.275-2.302-.34-4.349-.332zm1.49 3.094l.133 7.504c.012.681.638 1.29 1.317 1.279l7.771-.137c.133.018.268.017.4-.006l.082 3.03.102 4.09v26.227H7V3.021h18.672l5.523-.011zM10.242 6.908v2.037h6.207V6.908h-6.207zm8 0v2.037h6.207V6.908h-6.207zm-6 4v2.037H28.34v-2.037H12.242zm-2 4v2.037H24.11v-2.037H10.242zm16 0v2.037h10.28v-2.037h-10.28zm-16 4v2.037h6.4v-2.037h-6.4zm8 0v2.037h11.83v-2.037h-11.83zm14 0v2.037h4.17v-2.037h-4.17zm-20 4v2.037h21.72v-2.037h-21.72zm0 4v1.94H29.6v-1.94H12.242zm20 0v1.94h3.977v-1.94h-3.977zm-22.219 4v1.94H26.22v-1.94H10.023zm19.602 0v1.94h6.594v-1.94h-6.594zm-9.967 6.487c-1.137-.057-2.424.385-2.916 1.496-.474 1.13-.338 2.638.66 3.449 1.067.82 2.572.78 3.79.353v-.8c-.046-.175.12-.757-.157-.485-.726.459-1.883.575-2.473-.162-.432-.645-.427-1.62.092-2.217.683-.667 1.823-.464 2.537.047v-1.389a4.865 4.865 0 0 0-1.533-.292zm5.39.003c-.604-.033-1.208.02-1.78.225-.902.31-1.123 1.48-.733 2.26.412.714 1.332.793 2.069.898.58-.123 1.438.551.652.969-.936.263-1.956.009-2.819-.389v.807c-.023.306-.045.618.37.584 1.171.256 2.464.419 3.59-.092.879-.416 1.024-1.673.498-2.416-.531-.578-1.383-.614-2.112-.734-.527.105-1.367-.501-.625-.89.895-.248 1.84.03 2.678.362v-1.294c-.577-.138-1.183-.256-1.787-.29zm5.806 0c-.605-.033-1.209.02-1.782.225-.901.31-1.12 1.48-.73 2.26.411.714 1.332.793 2.068.898.58-.123 1.437.551.65.969-.935.263-1.953.009-2.816-.389v.807c-.023.306-.046.618.37.584 1.171.256 2.463.419 3.59-.092.879-.416 1.022-1.673.495-2.416-.53-.578-1.383-.614-2.111-.734-.528.105-1.367-.501-.625-.89.894-.248 1.84.03 2.678.362v-1.294c-.577-.138-1.183-.256-1.787-.29z" color="#000" font-weight="400" font-family="Andale Mono" overflow="visible" fill="#2c89a0"/></svg>