<svg xmlns="http://www.w3.org/2000/svg" width="24" height="24" version="1"><path d="M12 1.502C6.207 1.502 1.502 6.208 1.502 12c0 5.792 4.706 10.498 10.498 10.498 5.793 0 10.498-4.706 10.498-10.498 0-5.793-4.706-10.498-10.498-10.498z" fill="#164450"/><path d="M11.957 4.523c-.232 0-.463.012-.69.033l-.428 2.203a5.274 5.274 0 0 0-1.02.328L8.21 5.544c-.41.242-.765.54-1.119.854l.953 2.006a5.321 5.321 0 0 0-.624.855l-2.203-.295a7.271 7.271 0 0 0-.427 1.347l1.939 1.052a5.078 5.078 0 0 0-.032.526c0 .182.014.35.032.526l-1.94 1.052c.103.469.24.918.428 1.348l2.203-.295c.18.305.39.592.624.854L7.09 17.38c.354.313.71.612 1.119.854l1.61-1.546c.322.144.668.253 1.02.33l.427 2.203a7.49 7.49 0 0 0 1.38 0l.43-2.203a5.213 5.213 0 0 0 1.018-.33l1.612 1.547c.408-.242.765-.542 1.117-.855l-.953-2.007c.234-.262.446-.55.625-.854l2.202.295a7.271 7.271 0 0 0 .429-1.348l-1.94-1.052c.017-.177.032-.344.032-.526 0-.182-.015-.35-.033-.526l1.94-1.052a7.269 7.269 0 0 0-.428-1.348l-2.202.295a5.321 5.321 0 0 0-.625-.855l.953-2.006c-.352-.313-.709-.612-1.117-.854l-1.613 1.544a5.277 5.277 0 0 0-1.019-.328l-.428-2.203a7.49 7.49 0 0 0-.69-.033zm0 4.21a3.157 3.157 0 1 1 0 6.313 3.157 3.157 0 0 1 0-6.314z" overflow="visible" fill="#fff"/></svg>