<?xml version="1.0" encoding="UTF-8" standalone="no"?>
<svg
   xmlns:dc="http://purl.org/dc/elements/1.1/"
   xmlns:cc="http://creativecommons.org/ns#"
   xmlns:rdf="http://www.w3.org/1999/02/22-rdf-syntax-ns#"
   xmlns:svg="http://www.w3.org/2000/svg"
   xmlns="http://www.w3.org/2000/svg"
   xmlns:sodipodi="http://sodipodi.sourceforge.net/DTD/sodipodi-0.dtd"
   xmlns:inkscape="http://www.inkscape.org/namespaces/inkscape"
   width="48"
   height="48"
   viewBox="0 0 12.7 12.7"
   version="1.1"
   id="svg4"
   sodipodi:docname="hifi.svg"
   inkscape:version="0.92.4 (5da689c313, 2019-01-14)">
  <metadata
     id="metadata10">
    <rdf:RDF>
      <cc:Work
         rdf:about="">
        <dc:format>image/svg+xml</dc:format>
        <dc:type
           rdf:resource="http://purl.org/dc/dcmitype/StillImage" />
        <dc:title></dc:title>
      </cc:Work>
    </rdf:RDF>
  </metadata>
  <defs
     id="defs8" />
  <sodipodi:namedview
     pagecolor="#ffffff"
     bordercolor="#666666"
     borderopacity="1"
     objecttolerance="10"
     gridtolerance="10"
     guidetolerance="10"
     inkscape:pageopacity="0"
     inkscape:pageshadow="2"
     inkscape:window-width="1138"
     inkscape:window-height="480"
     id="namedview6"
     showgrid="false"
     inkscape:zoom="4.9166667"
     inkscape:cx="2.1355932"
     inkscape:cy="24"
     inkscape:window-x="0"
     inkscape:window-y="25"
     inkscape:window-maximized="0"
     inkscape:current-layer="svg4" />
  <path
     d="m 6.344,0.072 a 6.29,6.29 0 0 0 -6.29,6.29 6.29,6.29 0 0 0 6.29,6.289 6.29,6.29 0 0 0 6.29,-6.29 6.29,6.29 0 0 0 -6.29,-6.29 z M 6.326,1.009 A 5.407,5.407 0 0 1 11.733,6.416 5.407,5.407 0 0 1 6.326,11.823 5.407,5.407 0 0 1 0.92,6.416 5.407,5.407 0 0 1 6.326,1.01 Z M 7.323,2.595 A 0.831,0.831 0 0 0 6.489,3.429 v 2.7 H 3.347 A 0.831,0.831 0 0 0 2.514,6.963 V 9.27 c 0,0.462 0.371,0.834 0.833,0.834 H 9.19 A 0.832,0.832 0 0 0 10.024,9.27 V 3.43 A 0.832,0.832 0 0 0 9.19,2.596 H 7.323 Z M 8.256,3.479 A 0.442,0.442 0 0 1 8.698,3.921 0.442,0.442 0 0 1 8.256,4.363 0.442,0.442 0 0 1 7.814,3.921 0.442,0.442 0 0 1 8.256,3.479 Z m 0,1.325 A 0.883,0.883 0 0 1 9.139,5.688 0.883,0.883 0 0 1 8.256,6.571 0.883,0.883 0 0 1 7.372,5.688 0.883,0.883 0 0 1 8.256,4.804 Z m 0,0.442 A 0.442,0.442 0 0 0 7.814,5.688 0.442,0.442 0 0 0 8.256,6.129 0.442,0.442 0 0 0 8.698,5.688 0.442,0.442 0 0 0 8.256,5.246 Z M 4.5,7.012 a 1.105,1.105 0 1 1 0,2.21 1.105,1.105 0 0 1 0,-2.21 z m 0,0.442 A 0.663,0.663 0 0 0 3.838,8.117 0.663,0.663 0 0 0 4.5,8.779 0.663,0.663 0 0 0 5.163,8.117 0.663,0.663 0 0 0 4.5,7.454 Z"
     id="path2"
     inkscape:connector-curvature="0"
     style="fill:#a02c2c" />
</svg>
