<svg xmlns="http://www.w3.org/2000/svg" width="24" height="24"><path d="M18.725 4.017l-3.87 3.869a4.805 4.805 0 0 0-2.673-.818A4.805 4.805 0 0 0 8.77 8.496l.45.453-.398.398-.489-.488a4.805 4.805 0 0 0-1.392 3.376 4.805 4.805 0 0 0 .818 2.677L3.71 18.96l1.383 1.385 4.062-4.062a4.805 4.805 0 0 0 2.59.758 4.805 4.805 0 0 0 3.378-1.39l-.454-.455.4-.399.49.492a4.805 4.805 0 0 0 1.428-3.417 4.805 4.805 0 0 0-.762-2.587l3.883-3.883zm-8.48 5.957l.583.582-.398.4-.583-.583zm1.609 1.608l.582.582-.399.399-.582-.583zm1.607 1.607l.583.583-.399.399-.582-.583z" fill="#216778" fill-opacity=".302"/></svg>