<svg xmlns="http://www.w3.org/2000/svg" width="48" height="48" viewBox="0 0 12.7 12.7"><path d="M6.42 1.93a4.49 4.49 0 0 0-2.22.56v7.8c1.44 1.03 3.1.72 4.3-.02l.01-7.77a4.84 4.84 0 0 0-2.1-.57zm-.05 2.03l.09.01c.23.05.34.31.3.53-.08.93-.2 1.85-.26 2.78h-.27c-.08-.97-.2-1.92-.3-2.88l.01-.1a.42.42 0 0 1 .34-.34h.1zm.01 3.9a.44.44 0 0 1 .1.87c-.27.08-.58-.14-.57-.43a.44.44 0 0 1 .16-.34.4.4 0 0 1 .27-.1.44.44 0 0 1 .04 0z" opacity=".5" fill="maroon"/><path d="M6.35 1.35a5 5 0 0 0-5 5 5 5 0 0 0 5 5 5 5 0 0 0 5-5 5 5 0 0 0-5-5zm-.01.75a4.3 4.3 0 0 1 4.3 4.3 4.3 4.3 0 0 1-4.3 4.29 4.3 4.3 0 0 1-4.3-4.3 4.3 4.3 0 0 1 4.3-4.3z" fill="maroon"/></svg>