<svg xmlns="http://www.w3.org/2000/svg" width="48" height="48" viewBox="0 0 12.7 12.7"><g fill="#963996"><path d="M6.344.073a6.29 6.29 0 0 0-6.29 6.29 6.29 6.29 0 0 0 6.29 6.289 6.29 6.29 0 0 0 6.29-6.29 6.29 6.29 0 0 0-6.29-6.29zm-.018.936a5.407 5.407 0 0 1 5.407 5.407 5.407 5.407 0 0 1-5.407 5.407A5.407 5.407 0 0 1 .92 6.416 5.407 5.407 0 0 1 6.326 1.01z"/><path d="M3.482 2.297a.549.549 0 0 0-.548.55v7.026c0 .305.245.55.548.55h5.754a.548.548 0 0 0 .548-.55V2.848a.549.549 0 0 0-.548-.551zm2.906 1.11a2.895 2.905 0 0 1 2.895 2.905 2.895 2.905 0 0 1-2.895 2.905 2.895 2.905 0 0 1-2.895-2.905 2.895 2.905 0 0 1 2.895-2.904zm-.072 1.794a1.18 1.183 0 0 0-1.179 1.183 1.18 1.183 0 0 0 1.18 1.184 1.18 1.183 0 0 0 1.179-1.184 1.18 1.183 0 0 0-1.18-1.183z"/></g></svg>
