<svg xmlns="http://www.w3.org/2000/svg" width="48" height="48" viewBox="0 0 12.7 12.7"><path d="M6.344.073a6.29 6.29 0 0 0-6.29 6.29 6.29 6.29 0 0 0 6.29 6.288 6.29 6.29 0 0 0 6.29-6.289 6.29 6.29 0 0 0-6.29-6.29zm-.018.936a5.407 5.407 0 0 1 5.407 5.407 5.407 5.407 0 0 1-1.04 3.18.912.912 0 0 0-.292-.045H7.55v-.29c0-.126-.174-.226-.388-.226h-.361V8.44H8.44c.214 0 .387-.1.387-.226V2.239c0-.125-.173-.226-.387-.226H4.337c-.215 0-.387.101-.387.226v5.976c0 .125.172.226.387.226h1.561v.594h-.387c-.214 0-.387.1-.387.225v.29H2.196a.954.954 0 0 0-.244.033A5.407 5.407 0 0 1 .919 6.416 5.407 5.407 0 0 1 6.326 1.01zM4.721 2.685h3.254c.17 0 .307.08.307.178v4.738c0 .1-.137.18-.307.18H4.72c-.17 0-.307-.08-.307-.18V2.863c0-.099.137-.178.307-.178zm.235.304a.283.283 0 0 0-.283.284v.51c0 .157.126.283.283.283h2.792a.282.282 0 0 0 .283-.282v-.511a.282.282 0 0 0-.283-.284H4.956zm0 1.588a.283.283 0 0 0-.283.283v.511c0 .157.126.283.283.283h2.792a.282.282 0 0 0 .283-.283v-.51a.282.282 0 0 0-.283-.284H4.956zm0 1.587a.283.283 0 0 0-.283.284v.51c0 .157.126.283.283.283h2.792a.282.282 0 0 0 .283-.282v-.511a.282.282 0 0 0-.283-.284H4.956zM2.6 10.325h2.524v.239c0 .125.173.226.387.226h1.652c.214 0 .387-.101.387-.226v-.239h2.509a5.407 5.407 0 0 1-3.733 1.498A5.407 5.407 0 0 1 2.6 10.325z" fill="#963996"/></svg>
