<?xml version="1.0" encoding="UTF-8" standalone="no"?>
<svg
   xmlns:dc="http://purl.org/dc/elements/1.1/"
   xmlns:cc="http://creativecommons.org/ns#"
   xmlns:rdf="http://www.w3.org/1999/02/22-rdf-syntax-ns#"
   xmlns:svg="http://www.w3.org/2000/svg"
   xmlns="http://www.w3.org/2000/svg"
   xmlns:sodipodi="http://sodipodi.sourceforge.net/DTD/sodipodi-0.dtd"
   xmlns:inkscape="http://www.inkscape.org/namespaces/inkscape"
   height="24"
   width="24"
   version="1.1"
   id="svg4"
   sodipodi:docname="dialog-warning.svg"
   inkscape:version="0.92.5 (2060ec1f9f, 2020-04-08)">
  <defs
     id="defs8">
  <style
     id="current-color-scheme"
     type="text/css">
      .ColorScheme-Text {
        color:#000000;
      }
  </style>
  </defs>
  <path
     class="ColorScheme-Text"
     style="fill:currentColor"
     d="M 12 1 A 11 11 0 0 0 1 12 A 11 11 0 0 0 12 23 A 11 11 0 0 0 23 12 A 11 11 0 0 0 12 1 z M 12 2 A 10 10 0 0 1 22 12 A 10 10 0 0 1 19.994141 17.988281 L 12 2 z M 12 2 L 4.0039062 17.990234 A 10 10 0 0 1 2 12 A 10 10 0 0 1 12 2 z M 11 6 L 13 6 L 13 13 L 11 13 L 11 6 z M 12 14 A 1 1 0 0 1 13 15 A 1 1 0 0 1 12 16 A 1 1 0 0 1 11 15 A 1 1 0 0 1 12 14 z M 4.0117188 18 L 19.984375 18 A 10 10 0 0 1 12 22 A 10 10 0 0 1 4.0117188 18 z "
     id="path821" />
</svg>
