<?xml version="1.0" encoding="UTF-8" standalone="no"?>
<svg
   xmlns:dc="http://purl.org/dc/elements/1.1/"
   xmlns:cc="http://creativecommons.org/ns#"
   xmlns:rdf="http://www.w3.org/1999/02/22-rdf-syntax-ns#"
   xmlns:svg="http://www.w3.org/2000/svg"
   xmlns="http://www.w3.org/2000/svg"
   xmlns:sodipodi="http://sodipodi.sourceforge.net/DTD/sodipodi-0.dtd"
   xmlns:inkscape="http://www.inkscape.org/namespaces/inkscape"
   height="24"
   width="24"
   version="1.1"
   id="svg4"
   sodipodi:docname="dialog-password.svg"
   inkscape:version="0.92.5 (2060ec1f9f, 2020-04-08)">
  <defs
     id="defs8">
  <style
     id="current-color-scheme"
     type="text/css">
      .ColorScheme-Text {
        color:#000000;
      }
  </style>
  </defs>
  <path
     class="ColorScheme-Text"
     style="fill:currentColor"
     d="M 12 1 A 11 11 0 0 0 1 12 A 11 11 0 0 0 12 23 A 11 11 0 0 0 23 12 A 11 11 0 0 0 12 1 z M 12 2 A 10 10 0 0 1 22 12 A 10 10 0 0 1 12 22 A 10 10 0 0 1 2 12 A 10 10 0 0 1 12 2 z M 12 4 A 8 8 0 0 0 4 12 A 8 8 0 0 0 12 20 A 8 8 0 0 0 20 12 A 8 8 0 0 0 12 4 z M 14 6 A 4 4 0 0 1 18 10 A 4 4 0 0 1 14 14 A 4 4 0 0 1 12.357422 13.642578 L 9 17 L 7 17 L 7 15 L 10.357422 11.642578 A 4 4 0 0 1 10 10 A 4 4 0 0 1 14 6 z M 14.5 8 A 1.5 1.5 0 0 0 13 9.5 A 1.5 1.5 0 0 0 14.5 11 A 1.5 1.5 0 0 0 16 9.5 A 1.5 1.5 0 0 0 14.5 8 z "
     id="path825" />
</svg>
