<?xml version="1.0" encoding="UTF-8" standalone="no"?>
<svg
   xmlns:dc="http://purl.org/dc/elements/1.1/"
   xmlns:cc="http://creativecommons.org/ns#"
   xmlns:rdf="http://www.w3.org/1999/02/22-rdf-syntax-ns#"
   xmlns:svg="http://www.w3.org/2000/svg"
   xmlns="http://www.w3.org/2000/svg"
   xmlns:sodipodi="http://sodipodi.sourceforge.net/DTD/sodipodi-0.dtd"
   xmlns:inkscape="http://www.inkscape.org/namespaces/inkscape"
   height="24"
   width="24"
   version="1.1"
   id="svg4"
   sodipodi:docname="image-missing.svg"
   inkscape:version="0.92.5 (2060ec1f9f, 2020-04-08)">
  <defs
     id="defs8">
  <style
     id="current-color-scheme"
     type="text/css">
      .ColorScheme-Text {
        color:#000000;
      }
  </style>
  </defs>
  <path
     class="ColorScheme-Text"
     style="fill:currentColor"
     d="M 11 4 L 11 16 L 13 16 L 13 4 L 11 4 z M 12 18 A 1 1 0 0 0 11 19 A 1 1 0 0 0 12 20 A 1 1 0 0 0 13 19 A 1 1 0 0 0 12 18 z "
     id="rect935" />
  <path
     class="ColorScheme-Text"
     style="fill:currentColor;opacity:0.6"
     d="M 10.9375,1.0625 A 11,11 0 0 0 1.0527344,10.947266 Z M 13.833984,1.1660156 12,3 h 2 V 5 L 16.855469,2.1445312 A 11,11 0 0 0 13.833984,1.1660156 Z M 18.703125,3.296875 14,8 v 4 L 20.708984,5.2910156 A 11,11 0 0 0 18.703125,3.296875 Z M 10,5 1.15625,13.84375 a 11,11 0 0 0 0.9824219,3.017578 L 10,9 Z M 21.861328,7.1386719 14,15 v 2 h -2 a 2,2 0 0 1 0.140625,0.0059 2,2 0 0 1 0.199219,0.02344 2,2 0 0 1 0.195312,0.04297 2,2 0 0 1 0.189453,0.06445 2,2 0 0 1 0.181641,0.08008 2,2 0 0 1 0.173828,0.09961 2,2 0 0 1 0.164063,0.117188 2,2 0 0 1 0.148437,0.130859 2,2 0 0 1 0.136719,0.146485 2,2 0 0 1 0.121094,0.160156 2,2 0 0 1 0.105468,0.169922 2,2 0 0 1 0.08594,0.179687 2,2 0 0 1 0.06836,0.1875 2,2 0 0 1 0.05078,0.195313 2,2 0 0 1 0.0293,0.197265 A 2,2 0 0 1 14,19 l 8.84375,-8.84375 A 11,11 0 0 0 21.861328,7.1386719 Z M 10,12 3.2910156,18.708984 A 11,11 0 0 0 5.296875,20.703125 L 10,16 Z M 22.947266,13.052734 13.0625,22.9375 a 11,11 0 0 0 9.884766,-9.884766 z M 10,19 7.144531,21.855469 a 11,11 0 0 0 3.021485,0.978515 L 12,21 a 2,2 0 0 1 -0.140625,-0.0059 2,2 0 0 1 -0.199219,-0.02344 2,2 0 0 1 -0.195312,-0.04297 2,2 0 0 1 -0.189453,-0.06445 2,2 0 0 1 -0.181641,-0.08008 2,2 0 0 1 -0.173828,-0.09961 2,2 0 0 1 -0.164063,-0.117188 2,2 0 0 1 -0.148437,-0.130859 2,2 0 0 1 -0.136719,-0.146485 2,2 0 0 1 -0.121094,-0.160156 2,2 0 0 1 -0.105468,-0.169922 2,2 0 0 1 -0.08594,-0.179687 2,2 0 0 1 -0.06836,-0.1875 2,2 0 0 1 -0.05078,-0.195313 2,2 0 0 1 -0.0293,-0.197265 A 2,2 0 0 1 10,19 Z"
     id="path961"
     inkscape:connector-curvature="0" />
</svg>
