<?xml version="1.0" encoding="UTF-8" standalone="no"?>
<svg
   xmlns:dc="http://purl.org/dc/elements/1.1/"
   xmlns:cc="http://creativecommons.org/ns#"
   xmlns:rdf="http://www.w3.org/1999/02/22-rdf-syntax-ns#"
   xmlns:svg="http://www.w3.org/2000/svg"
   xmlns="http://www.w3.org/2000/svg"
   xmlns:sodipodi="http://sodipodi.sourceforge.net/DTD/sodipodi-0.dtd"
   xmlns:inkscape="http://www.inkscape.org/namespaces/inkscape"
   width="24"
   height="24"
   viewBox="0 0 6.35 6.35"
   version="1.1"
   id="svg4"
   sodipodi:docname="keyboard-brightness.svg"
   inkscape:version="0.92.5 (2060ec1f9f, 2020-04-08)">
  <defs
     id="defs8">
  <style
     id="current-color-scheme"
     type="text/css">
      .ColorScheme-Text {
        color:#000000;
      }
  </style>
  </defs>
  <path
     class="ColorScheme-Text"
     style="fill:currentColor"
     d="M 11 6 L 11 10 L 13 10 L 13 6 L 11 6 z M 3.2929688 7.8789062 L 1.8789062 9.2929688 L 4.7070312 12.121094 L 6.1210938 10.707031 L 3.2929688 7.8789062 z M 20.707031 7.8789062 L 17.878906 10.707031 L 19.292969 12.121094 L 22.121094 9.2929688 L 20.707031 7.8789062 z M 7 15 C 6.446 15 6 15.446 6 16 L 6 19 C 6 19.554 6.446 20 7 20 L 17 20 C 17.554 20 18 19.554 18 19 L 18 16 C 18 15.446 17.554 15 17 15 L 7 15 z M 20 15.75 L 20 18 L 24 18 L 24 15.75 L 20 15.75 z M 0 16 L 0 18 L 4 18 L 4 16 L 0 16 z "
     transform="scale(0.26458333)"
     id="rect820" />
</svg>
