<?xml version="1.0" encoding="UTF-8" standalone="no"?>
<svg
   xmlns:dc="http://purl.org/dc/elements/1.1/"
   xmlns:cc="http://creativecommons.org/ns#"
   xmlns:rdf="http://www.w3.org/1999/02/22-rdf-syntax-ns#"
   xmlns:svg="http://www.w3.org/2000/svg"
   xmlns="http://www.w3.org/2000/svg"
   xmlns:sodipodi="http://sodipodi.sourceforge.net/DTD/sodipodi-0.dtd"
   xmlns:inkscape="http://www.inkscape.org/namespaces/inkscape"
   width="48"
   height="48"
   viewBox="0 0 12.7 12.7"
   version="1.1"
   id="svg4"
   sodipodi:docname="osd-shutd-laptop.svg"
   inkscape:version="0.92.5 (2060ec1f9f, 2020-04-08)">
  <defs
     id="defs8">
  <style
     id="current-color-scheme"
     type="text/css">
      .ColorScheme-Text {
        color:#000000;
      }
  </style>
  </defs>
  <path
     class="ColorScheme-Text"
     style="fill:currentColor"
     d="M 19 7 C 17.892 7 17 7.8920001 17 9 L 17 17 L 5 17 C 3.8920001 17 3 17.892 3 19 L 3 37 C 3 38.108001 3.8920001 39 5 39 L 1 39 L 1 42 L 33 42 L 33 39 L 29 39 C 30.108 39 31 38.108001 31 37 L 31 32 L 47 32 L 47 29 L 43 29 C 44.108003 29 45 28.108 45 27 L 45 9 C 45 7.8920001 44.108003 7 43 7 L 19 7 z M 20 9 L 42 9 C 42.553999 9 43 9.4459999 43 10 L 43 26 C 43 26.554 42.553999 27 42 27 L 31 27 L 31 25 L 38 25 C 38.553999 25 39 24.554 39 24 L 39 13 C 39 12.446 38.553999 12 38 12 L 24 12 C 23.446 12 23 12.446 23 13 L 23 17 L 19 17 L 19 10 C 19 9.4459999 19.446001 9 20 9 z M 24 14 L 38 14 L 38 24 L 31 24 L 31 19 C 31 17.892 30.108 17 29 17 L 24 17 L 24 14 z M 6 19 L 28 19 C 28.553999 19 29 19.446 29 20 L 29 36 C 29 36.554 28.553999 37 28 37 L 6 37 C 5.446001 37 5 36.554 5 36 L 5 20 C 5 19.446 5.446001 19 6 19 z M 11 22 L 11 23 L 16 28 L 11 33 L 11 34 L 12 34 L 17 29 L 22 34 L 23 34 L 23 33 L 18 28 L 23 23 L 23 22 L 22 22 L 17 27 L 12 22 L 11 22 z M 31 29 L 34 29 L 34 31 L 31 31 L 31 29 z M 13 39 L 20 39 L 20 41 L 13 41 L 13 39 z "
     transform="scale(0.26458333)"
     id="path822" />
</svg>
