<?xml version="1.0" encoding="UTF-8" standalone="no"?>
<svg
   xmlns:dc="http://purl.org/dc/elements/1.1/"
   xmlns:cc="http://creativecommons.org/ns#"
   xmlns:rdf="http://www.w3.org/1999/02/22-rdf-syntax-ns#"
   xmlns:svg="http://www.w3.org/2000/svg"
   xmlns="http://www.w3.org/2000/svg"
   xmlns:sodipodi="http://sodipodi.sourceforge.net/DTD/sodipodi-0.dtd"
   xmlns:inkscape="http://www.inkscape.org/namespaces/inkscape"
   width="48"
   height="48"
   viewBox="0 0 12.7 12.7"
   version="1.1"
   id="svg4"
   sodipodi:docname="osd-rotate-flip.svg"
   inkscape:version="0.92.5 (2060ec1f9f, 2020-04-08)">
  <defs
     id="defs8">
  <style
     id="current-color-scheme"
     type="text/css">
      .ColorScheme-Text {
        color:#000000;
      }
  </style>
  </defs>
  <path
     class="ColorScheme-Text"
     style="fill:currentColor"
     d="M 7 5 C 5.8919999 5 5 5.8919999 5 7 L 5 33 C 5 34.108 5.8919999 35 7 35 L 18 35 L 18 40 L 9 40 L 9 43 L 39 43 L 39 40 L 30 40 L 30 35 L 41 35 C 42.108 35 43 34.108 43 33 L 43 7 C 43 5.8919999 42.108 5 41 5 L 7 5 z M 8 7 L 40 7 C 40.277 7 40.526281 7.1122187 40.707031 7.2929688 C 40.887781 7.4737185 41 7.723 41 8 L 41 32 C 41 32.277 40.887781 32.526281 40.707031 32.707031 C 40.526281 32.887781 40.277 33 40 33 L 8 33 C 7.723 33 7.4737185 32.887781 7.2929688 32.707031 C 7.1122187 32.526281 7 32.277 7 32 L 7 8 C 7 7.723 7.1122187 7.4737185 7.2929688 7.2929688 C 7.4737185 7.1122187 7.723 7 8 7 z M 24 10 L 18 16 L 22 16 L 22 20 L 22 24 L 18 24 L 24 30 L 30 24 L 26 24 L 26 20 L 26 16 L 30 16 L 24 10 z "
     transform="scale(0.26458333)"
     id="path821" />
</svg>
