<?xml version="1.0" encoding="UTF-8" standalone="no"?>
<svg
   xmlns:dc="http://purl.org/dc/elements/1.1/"
   xmlns:cc="http://creativecommons.org/ns#"
   xmlns:rdf="http://www.w3.org/1999/02/22-rdf-syntax-ns#"
   xmlns:svg="http://www.w3.org/2000/svg"
   xmlns="http://www.w3.org/2000/svg"
   xmlns:sodipodi="http://sodipodi.sourceforge.net/DTD/sodipodi-0.dtd"
   xmlns:inkscape="http://www.inkscape.org/namespaces/inkscape"
   height="24"
   width="24"
   version="1.1"
   id="svg4"
   sodipodi:docname="security-medium.svg"
   inkscape:version="0.92.5 (2060ec1f9f, 2020-04-08)">
  <defs
     id="defs8">
  <style
     id="current-color-scheme"
     type="text/css">
      .ColorScheme-Text {
        color:#000000;
      }
  </style>
  </defs>
  <path
     class="ColorScheme-Text"
     style="fill:currentColor"
     d="M 12 23 C 21 17 21 16 21 5 C 18.135721 5 17.075088 3.6284265 15.246094 2.1992188 A 5 5 0 0 0 15.244141 2.1972656 A 5 5 0 0 0 15.175781 2.140625 A 5 5 0 0 0 15.160156 2.1289062 C 15.103055 2.0848815 15.058751 2.0440629 15 2 L 15 2.0078125 A 5 5 0 0 0 14.996094 2.0058594 A 5 5 0 0 0 14.605469 1.7402344 A 5 5 0 0 0 14.570312 1.71875 A 5 5 0 0 0 14.154297 1.4941406 A 5 5 0 0 0 14.138672 1.4863281 A 5 5 0 0 0 13.716797 1.3105469 A 5 5 0 0 0 13.658203 1.2890625 A 5 5 0 0 0 13.269531 1.1699219 A 5 5 0 0 0 13.146484 1.1386719 A 5 5 0 0 0 12.824219 1.0742188 A 5 5 0 0 0 12.623047 1.0429688 A 5 5 0 0 0 12.34375 1.0175781 A 5 5 0 0 0 12 1 L 12 23 z "
     id="path818" />
  <path
     class="ColorScheme-Text"
     style="fill:currentColor;opacity:0.6"
     d="M 12 23 L 12 1 A 5 5 0 0 0 11.65625 1.0175781 A 5 5 0 0 0 11.376953 1.0429688 A 5 5 0 0 0 11.175781 1.0742188 A 5 5 0 0 0 10.853516 1.1386719 A 5 5 0 0 0 10.730469 1.1699219 A 5 5 0 0 0 10.341797 1.2890625 A 5 5 0 0 0 10.283203 1.3105469 A 5 5 0 0 0 9.8613281 1.4863281 A 5 5 0 0 0 9.8457031 1.4941406 A 5 5 0 0 0 9.4296875 1.71875 A 5 5 0 0 0 9.3945312 1.7402344 A 5 5 0 0 0 9.0039062 2.0058594 A 5 5 0 0 0 9 2.0078125 L 9 2 C 8.941249 2.0440629 8.8969426 2.0848819 8.8398438 2.1289062 A 5 5 0 0 0 8.8242188 2.140625 A 5 5 0 0 0 8.7558594 2.1972656 A 5 5 0 0 0 8.7539062 2.1992188 C 6.9249123 3.6284265 5.864279 5 3 5 C 3 16 3 17 12 23 z "
     id="path814" />
</svg>
