<?xml version="1.0" encoding="UTF-8" standalone="no"?>
<svg
   xmlns:dc="http://purl.org/dc/elements/1.1/"
   xmlns:cc="http://creativecommons.org/ns#"
   xmlns:rdf="http://www.w3.org/1999/02/22-rdf-syntax-ns#"
   xmlns:svg="http://www.w3.org/2000/svg"
   xmlns="http://www.w3.org/2000/svg"
   xmlns:sodipodi="http://sodipodi.sourceforge.net/DTD/sodipodi-0.dtd"
   xmlns:inkscape="http://www.inkscape.org/namespaces/inkscape"
   height="24"
   width="24"
   version="1.1"
   id="svg4"
   sodipodi:docname="smartphonedisconnected.svg"
   inkscape:version="0.92.5 (2060ec1f9f, 2020-04-08)">
  <defs
     id="defs8">
  <style
     id="current-color-scheme"
     type="text/css">
      .ColorScheme-Text {
        color:#000000;
      }
  </style>
  </defs>
  <path
     class="ColorScheme-Text"
     style="fill:currentColor"
     d="M 7 4 L 7 20 L 13.423828 20 A 5 5 0 0 0 18 23 A 5 5 0 0 0 23 18 A 5 5 0 0 0 18 13 A 5 5 0 0 0 17 13.105469 L 17 4 L 7 4 z M 8 6 L 16 6 L 16 13.423828 A 5 5 0 0 0 13.101562 17 L 8 17 L 8 6 z M 15 15 L 16 15 L 18 17 L 20 15 L 21 15 L 21 16 L 19 18 L 21 20 L 21 21 L 20 21 L 18 19 L 16 21 L 15 21 L 15 20 L 17 18 L 15 16 L 15 15 z M 10 18 L 13 18 A 5 5 0 0 0 13.105469 19 L 10 19 L 10 18 z "
     id="path869" />
</svg>
