<?xml version="1.0" encoding="UTF-8" standalone="no"?>
<svg
   xmlns:dc="http://purl.org/dc/elements/1.1/"
   xmlns:cc="http://creativecommons.org/ns#"
   xmlns:rdf="http://www.w3.org/1999/02/22-rdf-syntax-ns#"
   xmlns:svg="http://www.w3.org/2000/svg"
   xmlns="http://www.w3.org/2000/svg"
   xmlns:sodipodi="http://sodipodi.sourceforge.net/DTD/sodipodi-0.dtd"
   xmlns:inkscape="http://www.inkscape.org/namespaces/inkscape"
   width="24"
   height="24"
   viewBox="0 0 6.35 6.35"
   version="1.1"
   id="svg4"
   sodipodi:docname="task-due.svg"
   inkscape:version="0.92.5 (2060ec1f9f, 2020-04-08)">
  <defs
     id="defs8">
  <style
     id="current-color-scheme"
     type="text/css">
      .ColorScheme-Text {
        color:#000000;
      }
  </style>
  </defs>
  <path
     class="ColorScheme-Text"
     style="fill:currentColor"
     d="M 12 1 A 3 3 0 0 0 9.1757812 3 L 3 3 L 3 23 L 21 23 L 21 21 L 21 4 L 21 3 L 14.826172 3 A 3 3 0 0 0 12 1 z M 12 3 A 0.99999991 0.99999991 0 0 1 13 4 A 0.99999991 0.99999991 0 0 1 12 5 A 0.99999991 0.99999991 0 0 1 11 4 A 0.99999991 0.99999991 0 0 1 12 3 z M 5 5 L 7 5 L 7 7 L 17 7 L 17 5 L 19 5 L 19 21 L 5 21 L 5 5 z M 11 9 L 11 15 L 13 15 L 13 9 L 11 9 z M 12 17 A 0.99999995 0.99999995 0 0 0 11 18 A 0.99999995 0.99999995 0 0 0 12 19 A 0.99999995 0.99999995 0 0 0 13 18 A 0.99999995 0.99999995 0 0 0 12 17 z "
     transform="scale(0.26458333)"
     id="path843" />
</svg>
