<svg xmlns="http://www.w3.org/2000/svg" width="48" height="48"><path style="line-height:normal;text-indent:0;text-align:start;text-decoration-line:none;text-transform:none;marker:none" d="M29.7-.08c-2.04 0-4.12.08-4.51.1H7a2.94 2.94 0 0 0-.56 0 3.1 3.1 0 0 0-2.44 3V45c0 1.57 1.43 3 3 3h34c1.57 0 3-1.43 3-3V18.82c.02-.8.21-9.93-.34-10.5L34.06.25c-.29-.28-2.3-.34-4.36-.33zM31.2 3l.13 7.5c.01.68.64 1.3 1.31 1.28l7.78-.13c.13.01.26.01.4-.01l.08 3.03.1 4.09V45H7V3.02h18.67l5.52-.01zm1.52 12.9c-1.36-.05-7.03.36-10.65 9.76-3.58 10.52-8.6 9.41-8.6 9.41l.55 4.55s7.35 2.45 11.03-8.73h6.42v-5h-4s1.86-5.21 6-5.66c0-.1-.45-4.32-.45-4.32l-.3-.02z" color="#000" font-weight="400" font-family="Andale Mono" overflow="visible" fill="green"/></svg>