<svg xmlns="http://www.w3.org/2000/svg" width="48" height="48"><path style="line-height:normal;text-indent:0;text-align:start;text-decoration-line:none;text-transform:none;marker:none" d="M29.7-.08c-2.04 0-4.12.08-4.51.1H7a2.94 2.94 0 0 0-.56 0 3.1 3.1 0 0 0-2.44 3V45c0 1.57 1.43 3 3 3h34c1.57 0 3-1.43 3-3V18.82c.02-.8.21-9.93-.34-10.5L34.06.25c-.29-.28-2.3-.34-4.36-.33zM31.2 3l.13 7.5c.01.68.64 1.3 1.31 1.28l7.78-.13c.13.01.26.01.4-.01l.08 3.03.1 4.09V45H7V3.02h18.67l5.52-.01zm-2.7 3.24c-4.14.66-8.88 1.34-13 2.03-1.09.53-.84 1.89-.89 2.87V24.3c-2.8-.64-5.87 1.45-6 4.42-.2 1.86 1.46 3.47 3.27 3.51 3.23.08 5.68-2.04 5.72-4.72-.04-4.5 0-9.01 0-13.52.5-.04 8.32-1.46 9-1.56v10.12a4.62 4.62 0 0 0-5.8 3.5c-.47 1.54.24 3.37 1.77 4 2.99 1.36 7.2-1.4 7.03-4.63-.05-6 .04-12.01 0-18.02-.08-.57-.47-1.2-1.1-1.16zm-7.37 28.73a2.79 2.79 0 0 0-2.46 1.26c-.92 1.43-.44 3.69 1.21 4.34 1 .41 2.28.25 2.96-.64.06.21-.12.66.1.72h1.12v-5.54h-1.22c-.04.22.13 1.03-.17.53a2.2 2.2 0 0 0-1.54-.67zM10 35.12l1.98 5.54h.82l1.07-3.59 1.05 3.59h.83l2-5.54h-1.42l-1.01 3.38-.91-3.38h-1.06l-.93 3.38-1-3.38h-1.42zm14.52 0l2.23 5.54h1.06l2.22-5.54h-1.5l-1.26 3.67L26 35.12h-1.48zm-3.36 1.1c1.12-.08 1.89 1.16 1.57 2.17-.22 1.28-2.07 1.57-2.83.62-.79-.95-.22-2.72 1.09-2.8h.17z" color="#000" font-weight="400" font-family="Andale Mono" overflow="visible" fill="green"/></svg>