<svg xmlns="http://www.w3.org/2000/svg" width="48" height="48"><path style="line-height:normal;text-indent:0;text-align:start;text-decoration-line:none;text-transform:none;marker:none" d="M29.7-.08c-2.04 0-4.12.08-4.51.1H7a2.94 2.94 0 0 0-.56 0 3.1 3.1 0 0 0-2.44 3V45c0 1.57 1.43 3 3 3h34c1.57 0 3-1.43 3-3V18.82c.02-.8.21-9.93-.34-10.5L34.06.25c-.29-.28-2.3-.34-4.36-.33zM31.2 3l.13 7.5c.01.68.64 1.3 1.31 1.28l7.78-.13c.13.01.26.01.4-.01l.08 3.03.1 4.09V45H7V3.02h18.67l5.52-.01zm-3.48 11.8c-3.08 0-5.58 2.37-5.58 5.3.02 1.08.11 2.36.74 5.29.18.54 1.03 1.51 1.88 2.42-.02.2-.03.4-.07.62-.41.34-.96.65-1.56.93a9.13 9.13 0 0 1-2.43-1.29v-.57c.4-.54.8-1.08.9-1.4.45-2.06.45-2.81.47-3.58a3.55 3.55 0 0 0-3.53-3.58 3.55 3.55 0 0 0-3.52 3.58c.01.73.07 1.6.47 3.57.09.3.48.8.9 1.3l-.02.68c-1.73 1.43-6.41 2.08-6.4 3.56l-.6 4.44c0 1.27 3.06 2.33 7.14 2.6.66 1.63 5.42 2.89 11.2 2.89 6.24 0 11.3-1.47 11.3-3.28l-.73-5.47c0-1.56-5.46-2.56-7.56-4.38l-.03-.43c.81-.96 1.68-2.03 1.87-2.61.7-3.04.7-4.16.74-5.3 0-2.92-2.5-5.29-5.58-5.29z" color="#000" font-weight="400" font-family="Andale Mono" overflow="visible" fill="green"/></svg>