<svg xmlns="http://www.w3.org/2000/svg" width="48" height="48" viewBox="0 0 12.7 12.7"><path d="M3.07.32a.77.77 0 0 0-.77.77v1.23h1.54V1.1a.77.77 0 0 0-.77-.77zm6.5 0a.77.77 0 0 0-.76.77v1.23h1.54V1.1a.77.77 0 0 0-.77-.77zM.19 2.67v2.1h.01v5.43c0 .64.25 1.18.74 1.64.5.45 1.08.68 1.77.68h7.26c.7 0 1.28-.23 1.77-.68.5-.46.74-1 .74-1.64V2.67H.17zm1.13 2.1h10.04v5.43c0 .36-.13.66-.4.91a1.4 1.4 0 0 1-1 .38H2.72a1.4 1.4 0 0 1-.99-.38 1.19 1.19 0 0 1-.41-.9V4.76zM4.45 5.9a2.38 2.38 0 0 0-.54.07 4.5 4.5 0 0 0-.64.2v.58c.22-.13.43-.22.63-.28.2-.06.38-.1.56-.1.25 0 .45.08.6.22a.7.7 0 0 1 .24.54.9.9 0 0 1-.1.42 2.62 2.62 0 0 1-.39.51 91.46 91.46 0 0 0-1.58 1.62v.48H5.9v-.48H3.92a352.95 352.95 0 0 0 1.5-1.55c.17-.21.29-.4.35-.55.07-.15.1-.32.1-.49 0-.36-.13-.65-.39-.87-.25-.21-.6-.32-1.03-.32zm3.65.07l-1 .2v.52l1-.2v3.19h-.92v.48h2.4v-.48h-.92v-3.7H8.1z" fill="green"/></svg>