<svg xmlns="http://www.w3.org/2000/svg" width="48" height="48"><path style="line-height:normal;text-indent:0;text-align:start;text-decoration-line:none;text-transform:none;marker:none" d="M32.94-.01c-1 .32-1.34 1.84-.57 2.55l9.04 9.09c.83.8 2.5.11 2.54-1.05V1.5c0-.8-.72-1.51-1.5-1.51H33.4a1.55 1.55 0 0 0-.47 0zM6.44 0a3.1 3.1 0 0 0-2.44 3V45c0 1.57 1.43 3 3 3h34c1.57 0 3-1.43 3-3V18.82a3.04 3.04 0 0 0-.84-2.16L27.34.86A3.04 3.04 0 0 0 25.2 0H7a2.94 2.94 0 0 0-.56 0zM7 3.02h18.67l.19.19 14.9 15 .24.23V45H7V3.02zm2.84 4.82a.28.28 0 0 0-.28.29v13.6c0 .15.12.28.28.28h17.39a.29.29 0 0 0 .29-.29V8.12a.29.29 0 0 0-.29-.28H9.84zm1.42 1.7h14.55v10.2l-3.92-4.05a.12.12 0 0 0-.16-.01l-2.71 2.39-3.47-4.27a.12.12 0 0 0-.18 0l-4.1 5.5V9.56zm10.25 1.33a1.4 1.4 0 1 0 0 2.79 1.4 1.4 0 0 0 0-2.8zM12.1 25.35c-1.2 0-2.16.06-2.16.13v1.57c0 .07.96.13 2.16.13h24.16c1.2 0 2.16-.06 2.16-.13v-1.57c0-.07-.97-.13-2.16-.13H12.1zm-.02 3.98a9 9 0 0 0-2.16.13v1.56c0 .08.97.14 2.16.14h24.16c1.2 0 2.16-.06 2.16-.13v-1.57a9 9 0 0 0-2.16-.13H12.08zm.04 3.86c-1.2 0-2.15.05-2.15.13v1.57c0 .07.96.13 2.15.13h24.16a9 9 0 0 0 2.16-.13v-1.57c0-.08-.96-.13-2.16-.13H12.12z" color="#000" font-weight="400" font-family="Andale Mono" overflow="visible" fill="green"/></svg>