<svg xmlns="http://www.w3.org/2000/svg" width="48" height="48"><path style="line-height:normal;text-indent:0;text-align:start;text-decoration-line:none;text-transform:none;marker:none" d="M32.94-.01c-1 .32-1.34 1.84-.57 2.55l9.04 9.09c.83.8 2.5.11 2.54-1.05V1.5c0-.8-.72-1.51-1.5-1.51H33.4a1.55 1.55 0 0 0-.47 0zM6.44 0a3.1 3.1 0 0 0-2.44 3V45c0 1.57 1.43 3 3 3h34c1.57 0 3-1.43 3-3V18.82a3.04 3.04 0 0 0-.84-2.16L27.34.86A3.04 3.04 0 0 0 25.2 0H7a2.94 2.94 0 0 0-.56 0zM7 3.02h18.67l.19.19 14.9 15 .24.23V45H7V3.02zm5.83 15.9a1.1 1.1 0 0 0-1.1 1.1v3.53a1.1 1.1 0 0 0 1.1 1.1H35.4a1.1 1.1 0 0 0 1.1-1.1v-3.53a1.1 1.1 0 0 0-1.1-1.1H12.83zm0 8.15a1.1 1.1 0 0 0-1.1 1.1v3.54a1.1 1.1 0 0 0 1.1 1.1H22.9v-5.74H12.83zm12.48 0v5.74H35.4a1.1 1.1 0 0 0 1.1-1.1v-3.54a1.1 1.1 0 0 0-1.1-1.1H25.31zm-15.05 8.16a1.1 1.1 0 0 0-1.1 1.1v5.08a1.1 1.1 0 0 0 1.1 1.1H22.9v-7.28H10.26zm15.05 0v7.28h12.65a1.1 1.1 0 0 0 1.1-1.1v-5.08a1.1 1.1 0 0 0-1.1-1.1H25.31z" color="#000" font-weight="400" font-family="Andale Mono" overflow="visible" fill="green"/></svg>