<svg xmlns="http://www.w3.org/2000/svg" width="48" height="48"><path style="line-height:normal;text-indent:0;text-align:start;text-decoration-line:none;text-transform:none;marker:none" d="M29.7-.08c-2.04 0-4.12.08-4.51.1H7a2.94 2.94 0 0 0-.56 0 3.1 3.1 0 0 0-2.44 3V45c0 1.57 1.43 3 3 3h34c1.57 0 3-1.43 3-3V18.82c.02-.8.21-9.93-.34-10.5L34.06.25c-.29-.28-2.3-.34-4.36-.33zM31.2 3l.13 7.5c.01.68.64 1.3 1.31 1.28l7.78-.13c.13.01.26.01.4-.01l.08 3.03.1 4.09V45H7V3.02h18.67l5.52-.01zm-20.96 3.9v2.04h6.2V6.9h-6.2zm8 0v2.04h6.2V6.9h-6.2zm-6 4v2.04h16.1V10.9h-16.1zm-2 4v2.04h13.87V14.9H10.24zm16 0v2.04h10.28V14.9H26.24zm-16 4v2.04h6.4V18.9h-6.4zm8 0v2.04h11.83V18.9H18.24zm14 0v2.04h4.17V18.9h-4.17zm-20 4v2.04h21.72V22.9H12.24zm0 4v1.94H29.6V26.9H12.24zm20 0v1.94h3.98V26.9h-3.98zm-22.22 4v1.94h16.2V30.9h-16.2zm19.6 0v1.94h6.6V30.9h-6.6zm-3.1 5.01l-.45 1.82h-1.59v1h1.33l-.33 1.29h-1.54v1.01h1.31l-.45 1.8h1.05l.45-1.8h1.25l-.45 1.8h1.04l.45-1.8h1.58v-1.01h-1.34l.33-1.29h1.55v-1h-1.3l.45-1.82h-1.04l-.45 1.82h-1.25l.46-1.82h-1.05zm-5.84 1.53c-.22.02-.44.05-.65.1a2.5 2.5 0 0 0-2 2.05c-.2 1.04.08 2.26 1.01 2.86 1.06.68 2.44.63 3.6.23v-1.06c.08-.48-.2-.17-.5-.04-.7.3-1.75.3-2.2-.45-.33-.66-.32-1.58.23-2.13.7-.6 1.77-.4 2.46.1v-1.37a4.78 4.78 0 0 0-1.95-.28zm6.18 1.29h1.25l-.33 1.29h-1.25l.33-1.29z" color="#000" font-weight="400" font-family="Andale Mono" overflow="visible" fill="green"/></svg>