<svg xmlns="http://www.w3.org/2000/svg" width="48" height="48"><path style="line-height:normal;text-indent:0;text-align:start;text-decoration-line:none;text-transform:none;marker:none" d="M29.7-.08c-2.04 0-4.12.08-4.51.1H7a2.94 2.94 0 0 0-.56 0 3.1 3.1 0 0 0-2.44 3V45c0 1.57 1.43 3 3 3h34c1.57 0 3-1.43 3-3V18.82c.02-.8.21-9.93-.34-10.5L34.06.25c-.29-.28-2.3-.34-4.36-.33zM31.2 3l.13 7.5c.01.68.64 1.3 1.31 1.28l7.78-.13c.13.01.26.01.4-.01l.08 3.03.1 4.09V45H7V3.02h18.67l5.52-.01zM19.03 6.95a8.57 8.57 0 0 0-8.57 8.57 8.57 8.57 0 0 0 8.57 8.57 8.6 8.6 0 0 0 7.92-5.49h-3.8a5.5 5.5 0 0 1-4.12 2.06 5.14 5.14 0 0 1 0-10.28c1.83 0 3.55 1.3 4.46 2.74h3.4c-.32-3.09-4.09-6.17-7.86-6.17zm-8.4 19.45a.6.6 0 0 0-.6.6v.83c0 .34.27.6.6.6h14.6a.6.6 0 0 0 .6-.6V27a.6.6 0 0 0-.6-.6h-14.6zm0 4a.6.6 0 0 0-.6.6v.83c0 .34.27.6.6.6h18.03a.6.6 0 0 0 .6-.6V31a.6.6 0 0 0-.6-.6H10.64zm0 4a.6.6 0 0 0-.6.6v.83c0 .34.27.6.6.6H33.2a.6.6 0 0 0 .6-.6V35a.6.6 0 0 0-.6-.6H10.64z" color="#000" font-weight="400" font-family="Andale Mono" overflow="visible" fill="green"/></svg>