<svg xmlns="http://www.w3.org/2000/svg" width="48" height="48"><path style="line-height:normal;text-indent:0;text-align:start;text-decoration-line:none;text-transform:none;marker:none" d="M29.7-.08c-2.04 0-4.12.08-4.51.1H7a2.94 2.94 0 0 0-.56 0 3.1 3.1 0 0 0-2.44 3V45c0 1.57 1.43 3 3 3h34c1.57 0 3-1.43 3-3V18.82c.02-.8.21-9.93-.34-10.5L34.06.25c-.29-.28-2.3-.34-4.36-.33zM31.2 3l.13 7.5c.01.68.64 1.3 1.31 1.28l7.78-.13c.13.01.26.01.4-.01l.08 3.03.1 4.09V45H10.49V3.02h15.18l5.52-.01zm-4.98 13.37a11.14 11.14 0 0 0-7.97 3.33 11.2 11.2 0 0 0-2.42 3.71 11.84 11.84 0 0 0-.84 4.44c0 1.62.28 3.13.83 4.54a10.89 10.89 0 0 0 2.43 3.7 10.88 10.88 0 0 0 3.63 2.43 11.23 11.23 0 0 0 8.06.18 11.65 11.65 0 0 0 3.4-1.9l-1.33-2.07a8.23 8.23 0 0 1-2.67 1.63 8.7 8.7 0 0 1-3.14.6 8.97 8.97 0 0 1-3.45-.67 8.47 8.47 0 0 1-2.85-1.9 8.95 8.95 0 0 1-1.93-2.95 9.71 9.71 0 0 1-.66-3.59c0-1.54.35-2.98 1.03-4.3a8.66 8.66 0 0 1 5.3-4.39 9.54 9.54 0 0 1 2.77-.4c1.38 0 2.66.29 3.83.85a7.92 7.92 0 0 1 2.97 2.4 6.54 6.54 0 0 1 1.1 2.07c.23.74.35 1.54.35 2.4 0 1.33-.3 2.43-.88 3.3a3.5 3.5 0 0 1-2.43 1.52v-8.87h-2.6v1.67a2.94 2.94 0 0 0-1.2-1.42 3.57 3.57 0 0 0-1.94-.51c-1.41 0-2.57.53-3.47 1.6a6.25 6.25 0 0 0-1.34 4.16c0 1.71.44 3.1 1.33 4.16a4.35 4.35 0 0 0 3.48 1.6c.74 0 1.38-.17 1.93-.5a2.94 2.94 0 0 0 1.21-1.43v1.97h.49c2.46 0 4.37-.64 5.72-1.92 1.35-1.28 2.03-3.08 2.03-5.39a9.7 9.7 0 0 0-.49-3.07 9.31 9.31 0 0 0-1.4-2.73 10.11 10.11 0 0 0-3.81-3.15c-1.52-.73-3.2-1.1-5.07-1.1zm-.17 8.18c.75 0 1.34.3 1.78.91a4 4 0 0 1 .67 2.45c0 1.04-.22 1.87-.66 2.48-.44.6-1.03.91-1.77.91s-1.34-.3-1.78-.9a4.22 4.22 0 0 1-.64-2.5c0-1.03.21-1.84.64-2.44.44-.6 1.03-.9 1.76-.9z" color="#000" font-weight="400" font-family="Andale Mono" overflow="visible" fill="green"/></svg>