<svg xmlns="http://www.w3.org/2000/svg" width="24" height="24"><path d="M9.01 8.08l-5.11.05C1.86 8.21 2 10.01 2 10.41v6.14c-.15 1.72 3.02 1.8 2.9.02l.02-5.87z" fill="#de8787" fill-rule="evenodd"/><path d="M15.56 4.27L4.83 10.66l5.77 10.3c.44.72 1.15 1 1.84.63l8.37-4.99c.63-.44.93-1.28.52-2.02zm-2.87 5.85a1.86 1.89 87.07 0 1 1.68.93 1.86 1.89 87.07 0 1-.7 2.54 1.86 1.89 87.07 0 1-2.57-.68 1.86 1.89 87.07 0 1 .7-2.55 1.86 1.89 87.07 0 1 .9-.24z" fill="#a02c2c" fill-rule="evenodd" stroke="#a02c2c" stroke-width=".98"/><path d="M12.76 10.14v-5.6c0-3.11 5.9-3.02 5.9.12v4.75" fill="none" stroke="#a02c2c" stroke-width=".98" stroke-linecap="round"/></svg>