<?xml version="1.0" encoding="UTF-8" standalone="no"?><svg xmlns:dc="http://purl.org/dc/elements/1.1/" xmlns:cc="http://creativecommons.org/ns#" xmlns:rdf="http://www.w3.org/1999/02/22-rdf-syntax-ns#" xmlns="http://www.w3.org/2000/svg" width="24" height="24"><metadata><rdf:RDF><cc:Work><dc:format>image/svg+xml</dc:format><dc:type rdf:resource="http://purl.org/dc/dcmitype/StillImage"/><dc:title/></cc:Work></rdf:RDF></metadata><path d="M4.99 1c-7.13 0-4.63 21.83 6.93 21.97.04 0 .07.03.1.03 11.45 0 14.2-22 7.05-22-2.22 0-4.8 1.77-7 4.11l-.02.01C9.83 2.78 7.25 1 5 1zm6.85 4.66a5.69 7.92 0 0 1 .23.02 5.69 7.92 0 0 1 5.46 7.9 5.69 7.92 0 0 1-5.58 7.92 5.69 7.92 0 0 1-.11 0 5.69 7.92 0 0 1-5.69-7.91 5.69 7.92 0 0 1 5.69-7.93z" fill="#a02c2c"/></svg>