<svg xmlns="http://www.w3.org/2000/svg" version="1" width="24" height="24"><g fill="none" stroke="#a02c2c"><path d="M21.567 11.767A9.542 9.542 0 0 0 12 2.2a9.542 9.542 0 0 0-9.567 9.567A9.542 9.542 0 0 0 12 21.333a9.542 9.542 0 0 0 9.567-9.566zm-6.067 0c0 1.926-1.535 3.5-3.5 3.5a3.484 3.484 0 0 1-3.5-3.5c0-1.926 1.42-3.5 3.5-3.5s3.5 1.612 3.5 3.5z" stroke-width="1.4"/><path style="marker:none" d="M12 8.267a3.501 3.501 0 0 0-3.5 3.5c0 1.932 1.568 3.5 3.5 3.5s3.5-1.568 3.5-3.5-1.568-3.5-3.5-3.5zm0 1.75a1.75 1.75 0 1 1-.001 3.5 1.75 1.75 0 0 1 .001-3.5z" overflow="visible" stroke-width=".467" stroke-linejoin="round"/></g><path d="M18.964 10.688h-6.362v11.597h9.45v-8.872c-.881-1.279-1.978-2.017-3.088-2.725z" fill="#999"/><path d="M12.602 10.688h6.362c.397.134 2.53 1.665 3.088 2.725v8.872h-9.45V10.688z" fill="none" stroke="#4d4d4d" stroke-width=".429" stroke-linejoin="round"/><path d="M18.964 10.688l-.046 2.85 3.134-.125" fill="none" stroke="#4d4d4d" stroke-width=".43"/></svg>