<svg xmlns="http://www.w3.org/2000/svg" version="1" width="24" height="24"><g fill="none" stroke="#a02c2c"><path d="M21.443 11.682a9.627 9.627 0 0 0-9.651-9.652 9.627 9.627 0 0 0-9.652 9.652 9.627 9.627 0 0 0 9.652 9.651 9.627 9.627 0 0 0 9.651-9.651zm-6.12 0a3.515 3.515 0 0 1-3.531 3.53 3.515 3.515 0 0 1-3.531-3.53c0-1.944 1.432-3.532 3.53-3.532 2.1 0 3.532 1.627 3.532 3.532z" stroke-width="1.412"/><path d="M11.792 8.15a3.532 3.532 0 0 0-3.531 3.532 3.532 3.532 0 0 0 3.53 3.53 3.532 3.532 0 0 0 3.532-3.53 3.532 3.532 0 0 0-3.531-3.532zm0 1.766a1.766 1.766 0 1 1-.002 3.532 1.766 1.766 0 0 1 .002-3.532z" style="marker:none" overflow="visible" stroke-linejoin="round" stroke-width=".471"/></g><path d="M15.206 18.887l-.045 3.79H18.8l-.045-3.747 3.812-.021V15.27l-3.812-.021.045-3.746h-3.64v3.79l-3.767-.023v3.638l2.278-.022z" opacity=".78" fill="#800033"/></svg>