<?xml version="1.0" encoding="UTF-8" standalone="no"?>
<svg
   xmlns:dc="http://purl.org/dc/elements/1.1/"
   xmlns:cc="http://creativecommons.org/ns#"
   xmlns:rdf="http://www.w3.org/1999/02/22-rdf-syntax-ns#"
   xmlns:svg="http://www.w3.org/2000/svg"
   xmlns="http://www.w3.org/2000/svg"
   xmlns:sodipodi="http://sodipodi.sourceforge.net/DTD/sodipodi-0.dtd"
   xmlns:inkscape="http://www.inkscape.org/namespaces/inkscape"
   width="48"
   height="48"
   viewBox="0 0 12.7 12.7"
   version="1.1"
   id="svg6"
   sodipodi:docname="application-x-gzdvi.svg"
   inkscape:version="0.92.5 (2060ec1f9f, 2020-04-08)">
  <metadata
     id="metadata12">
    <rdf:RDF>
      <cc:Work
         rdf:about="">
        <dc:format>image/svg+xml</dc:format>
        <dc:type
           rdf:resource="http://purl.org/dc/dcmitype/StillImage" />
        <dc:title></dc:title>
      </cc:Work>
    </rdf:RDF>
  </metadata>
  <defs
     id="defs10" />
  <sodipodi:namedview
     pagecolor="#ffffff"
     bordercolor="#666666"
     borderopacity="1"
     objecttolerance="10"
     gridtolerance="10"
     guidetolerance="10"
     inkscape:pageopacity="0"
     inkscape:pageshadow="2"
     inkscape:window-width="1087"
     inkscape:window-height="480"
     id="namedview8"
     showgrid="false"
     inkscape:zoom="4.9166667"
     inkscape:cx="2.1355932"
     inkscape:cy="24"
     inkscape:window-x="0"
     inkscape:window-y="25"
     inkscape:window-maximized="0"
     inkscape:current-layer="svg6" />
  <path
     style="fill:#1a1a1a;stroke-width:1"
     d="M 1.3229166,0.79374999 0.26510009,3.4401 H 6.0848999 V 0.79374999 Z m 5.2921834,0 V 3.4401 h 5.8198 L 11.377084,0.79374999 Z M 0.26510009,3.96875 v 6.35 c 0,1.172 0.94414991,2.11615 2.11614991,2.11615 h 7.9375 a 2.112,2.112 0 0 0 2.11615,-2.11615 v -6.35 h -0.792716 v 6.35 A 1.32,1.32 0 0 1 10.31875,11.642183 H 2.3802165 A 1.32,1.32 0 0 1 1.056783,10.31875 v -6.35 z M 1.8531169,4.9769572 V 6.0368407 H 2.1332031 V 7.0972412 H 2.6628865 V 6.0368407 H 2.922819 V 4.9769572 Z m 1.3198162,0.050126 V 5.5567667 H 3.7031332 V 5.0270833 Z M 3.7031332,5.5567667 V 6.0869668 H 4.2328166 V 5.5567667 Z m 0.5296834,0 H 4.7630167 V 5.0270833 H 4.2328166 Z m 0.5302001,0 V 6.0869668 H 5.2932168 V 5.5567667 Z m 0.5302001,0 h 0.519865 V 5.0270833 h -0.519865 z m 0.519865,0 V 6.0869668 H 6.3427652 V 5.5567667 Z m 0.5296834,0 H 6.8729653 V 5.0270833 H 6.3427652 Z m 0.5302001,0 V 6.0869668 H 7.4031657 V 5.5567667 Z m 0.5302004,0 H 7.9328491 V 5.0270833 H 7.4031657 Z m 0.5296834,0 V 6.0869668 H 8.4630492 V 5.5567667 Z m 0.5302001,0 H 8.9932493 V 5.0270833 H 8.4630492 Z m 0.5302001,0 V 6.0869668 H 9.522933 V 5.5567667 Z m 0.5296837,0 h 0.5302 V 5.0270833 h -0.5302 z m 0.5302,0 v 0.5302001 h 0.529684 V 5.5567667 Z m 0.529684,0 h 0.5302 V 5.0270833 h -0.5302 z M 2.1228678,5.2472248 H 2.6530681 V 5.7769082 H 2.1228678 Z m 2.3001181,2.2996014 v 0.010335 z M 7.3700928,8.0000283 V 8.7400349 A 0.73999999,0.73999999 0 0 0 6.8202555,8.5302285 c -0.4900001,0 -0.8800496,0.3996592 -0.8800496,0.929659 0,0.5300001 0.389868,0.9301755 0.8898681,0.9301755 0.2299999,0 0.3998095,-0.08027 0.5798095,-0.270267 v 0.22996 H 7.790222 V 8.0000283 Z m 2.5300781,0 V 8.400004 H 10.330119 V 8.0000283 Z M 3.2597492,8.5498656 c -0.4999998,0 -0.8697142,0.3802036 -0.8697142,0.9002035 0,0.5499999 0.3697144,0.9399939 0.8697142,0.9399939 0.2400001,0 0.400508,-0.08027 0.5705078,-0.270267 -0.01,0.37 -0.1704091,0.560172 -0.4904092,0.560172 A 0.52999999,0.52999999 0 0 1 2.9000815,10.489799 H 2.4200073 c 0.14,0.35 0.4702034,0.560172 0.9002034,0.560172 0.3200001,0 0.5700065,-0.109877 0.7400065,-0.319877 0.12,-0.16 0.1798341,-0.379852 0.1798341,-0.719853 V 8.5999917 H 3.8400757 v 0.2201418 c -0.14,-0.18 -0.3303265,-0.2599325 -0.5803265,-0.2599325 z m 1.2903607,0.040308 V 8.9699951 H 5.2301716 L 4.4601929,9.9699341 V 10.349756 H 5.8001627 V 9.9699341 H 4.959904 L 5.7402179,8.9699951 V 8.5901733 Z m 3.3997924,0 0.7100342,1.7595824 H 8.9999674 L 9.7001829,8.5901733 H 9.2299276 L 8.8299519,9.7497923 8.4299763,8.5901733 H 7.9602377 Z m 1.9502686,0 V 10.349756 H 10.330119 V 8.5901733 Z m -3.0101521,0.319877 h 0.00982 c 0.29,0 0.5100463,0.2398374 0.5100463,0.5498372 0,0.3000002 -0.2197111,0.5400188 -0.4997109,0.5400188 -0.3000002,0 -0.5302004,-0.2398374 -0.5302004,-0.5498372 0,-0.2999999 0.2200466,-0.5400188 0.5100466,-0.5400188 z m -3.5847941,0.020153 c 0.2969998,0.003 0.5146972,0.2220188 0.5146972,0.5400188 0,0.3200001 -0.1997112,0.5296834 -0.4997112,0.5296834 -0.2999999,0 -0.5002278,-0.1996834 -0.5002278,-0.5296834 0,-0.318 0.1982417,-0.5370187 0.4852418,-0.5400188 z"
     id="path2"
     inkscape:connector-curvature="0" />
</svg>
