<?xml version="1.0" encoding="UTF-8" standalone="no"?>
<svg
   xmlns:dc="http://purl.org/dc/elements/1.1/"
   xmlns:cc="http://creativecommons.org/ns#"
   xmlns:rdf="http://www.w3.org/1999/02/22-rdf-syntax-ns#"
   xmlns:svg="http://www.w3.org/2000/svg"
   xmlns="http://www.w3.org/2000/svg"
   xmlns:sodipodi="http://sodipodi.sourceforge.net/DTD/sodipodi-0.dtd"
   xmlns:inkscape="http://www.inkscape.org/namespaces/inkscape"
   width="48"
   height="48"
   viewBox="0 0 12.7 12.7"
   version="1.1"
   id="svg4"
   sodipodi:docname="application-x-zoo.svg"
   inkscape:version="0.92.5 (2060ec1f9f, 2020-04-08)">
  <metadata
     id="metadata10">
    <rdf:RDF>
      <cc:Work
         rdf:about="">
        <dc:format>image/svg+xml</dc:format>
        <dc:type
           rdf:resource="http://purl.org/dc/dcmitype/StillImage" />
        <dc:title></dc:title>
      </cc:Work>
    </rdf:RDF>
  </metadata>
  <defs
     id="defs8" />
  <sodipodi:namedview
     pagecolor="#ffffff"
     bordercolor="#666666"
     borderopacity="1"
     objecttolerance="10"
     gridtolerance="10"
     guidetolerance="10"
     inkscape:pageopacity="0"
     inkscape:pageshadow="2"
     inkscape:window-width="1087"
     inkscape:window-height="480"
     id="namedview6"
     showgrid="false"
     inkscape:zoom="4.9166667"
     inkscape:cx="2.1355932"
     inkscape:cy="24"
     inkscape:window-x="0"
     inkscape:window-y="25"
     inkscape:window-maximized="0"
     inkscape:current-layer="svg4" />
  <path
     d="M 1.323,0.794 0.265,3.44 h 5.82 V 0.794 Z m 5.292,0 V 3.44 h 5.82 L 11.377,0.794 Z m -6.35,3.175 v 6.35 c 0,1.172 0.944,2.116 2.116,2.116 h 7.938 a 2.112,2.112 0 0 0 2.116,-2.116 v -6.35 h -0.793 v 6.35 a 1.32,1.32 0 0 1 -1.323,1.323 H 2.38 A 1.32,1.32 0 0 1 1.057,10.319 v -6.35 z m 1.588,1.008 v 1.06 h 0.28 v 1.06 h 0.53 v -1.06 h 0.26 v -1.06 z m 1.32,0.05 v 0.53 h 0.53 v -0.53 z m 0.53,0.53 v 0.53 h 0.53 v -0.53 z m 0.53,0 h 0.53 v -0.53 h -0.53 z m 0.53,0 v 0.53 h 0.53 v -0.53 z m 0.53,0 h 0.52 v -0.53 h -0.52 z m 0.52,0 v 0.53 h 0.53 v -0.53 z m 0.53,0 h 0.53 v -0.53 h -0.53 z m 0.53,0 v 0.53 h 0.53 v -0.53 z m 0.53,0 h 0.53 v -0.53 h -0.53 z m 0.53,0 v 0.53 h 0.53 v -0.53 z m 0.53,0 h 0.53 v -0.53 h -0.53 z m 0.53,0 v 0.53 h 0.53 v -0.53 z m 0.53,0 h 0.53 v -0.53 h -0.53 z m 0.53,0 v 0.53 h 0.53 v -0.53 z m 0.53,0 h 0.53 v -0.53 h -0.53 z m -8.46,-0.31 h 0.53 v 0.53 h -0.53 z m 2.3,2.3 v 0.01 z m 1.64,1.126 a 0.92,0.92 0 0 0 -0.013,0 0.93,0.93 0 0 0 -0.93,0.93 0.93501337,0.93501337 0 0 0 1.87,0.01 0.92,0.92 0 0 0 -0.926,-0.94 z m 2.04,0 a 0.92,0.92 0 0 0 -0.013,0 0.93,0.93 0 0 0 -0.93,0.93 c 0,0.5 0.42,0.92 0.93,0.92 0.51,0 0.94,-0.42 0.94,-0.91 A 0.92,0.92 0 0 0 8.103,8.673 Z M 3.7,8.713 3.72,8.723 v 0.37 H 4.4 l -0.77,1.001 v 0.39 h 1.34 v -0.39 H 4.14 l 0.77,-1 V 8.714 H 3.7 Z m 2.35,0.35 h 0.01 c 0.28,0 0.5,0.24 0.5,0.54 a 0.52,0.52 0 0 1 -0.5,0.53 c -0.28,0 -0.51,-0.24 -0.51,-0.54 0,-0.29 0.23,-0.53 0.5,-0.53 z m 2.04,0 c 0.28,0 0.51,0.24 0.51,0.54 a 0.52,0.52 0 0 1 -0.5,0.53 c -0.3,0 -0.52,-0.24 -0.52,-0.54 0,-0.29 0.23,-0.53 0.51,-0.53 z"
     id="path2"
     inkscape:connector-curvature="0"
     style="fill:#1a1a1a" />
</svg>
