<svg xmlns="http://www.w3.org/2000/svg" width="48" height="48"><path style="line-height:normal;text-indent:0;text-align:start;text-decoration-line:none;text-transform:none;marker:none" d="M29.7-.08c-2.04 0-4.12.08-4.51.1H7a2.94 2.94 0 0 0-.56 0 3.1 3.1 0 0 0-2.44 3V45c0 1.57 1.43 3 3 3h34c1.57 0 3-1.43 3-3V18.82c.02-.8.22-9.93-.34-10.5L34.06.25c-.29-.28-2.3-.34-4.35-.33h-.01zm1.5 3.09l.13 7.49c.01.68.64 1.3 1.31 1.28l7.78-.13h.4l.08 3.02.1 4.09V45H7V3.02h18.67l5.53-.01zm-3.61 16.01H10.94c-.56 0-1.02.46-1.02 1.02v15.92c0 .56.46 1.02 1.02 1.02h26.12c.56 0 1.02-.46 1.02-1.02V29.5l-2.63-2.63-5.53-5.53-2.33-2.33zM13.3 21.35h14.3v7.14c0 .57.45 1.02 1.01 1.02h6.84v4.38c0 .42-.34.76-.75.76H13.3a.75.75 0 0 1-.75-.76V22.11c0-.42.34-.76.75-.76zm2.21 2.24a.65.65 0 1 0 0 1.3h8.24a.65.65 0 1 0 0-1.3h-8.24zm0 3.5a.65.65 0 1 0 0 1.3h8.24a.65.65 0 1 0 0-1.3h-8.24zm0 3.5a.65.65 0 1 0 0 1.31h8.24a.65.65 0 1 0 0-1.3h-8.24z" fill="#1a1a1a"/></svg>