<?xml version="1.0" encoding="UTF-8" standalone="no"?>
<svg
   xmlns:dc="http://purl.org/dc/elements/1.1/"
   xmlns:cc="http://creativecommons.org/ns#"
   xmlns:rdf="http://www.w3.org/1999/02/22-rdf-syntax-ns#"
   xmlns:svg="http://www.w3.org/2000/svg"
   xmlns="http://www.w3.org/2000/svg"
   xmlns:sodipodi="http://sodipodi.sourceforge.net/DTD/sodipodi-0.dtd"
   xmlns:inkscape="http://www.inkscape.org/namespaces/inkscape"
   width="48"
   height="48"
   viewBox="0 0 12.7 12.7"
   version="1.1"
   id="svg8"
   sodipodi:docname="application-x-arc.svg"
   inkscape:version="0.92.4 (5da689c313, 2019-01-14)">
  <defs
     id="defs12" />
  <sodipodi:namedview
     pagecolor="#ffffff"
     bordercolor="#666666"
     borderopacity="1"
     objecttolerance="10"
     gridtolerance="10"
     guidetolerance="10"
     inkscape:pageopacity="0"
     inkscape:pageshadow="2"
     inkscape:window-width="1087"
     inkscape:window-height="480"
     id="namedview10"
     showgrid="false"
     inkscape:zoom="4.9166667"
     inkscape:cx="2.1355932"
     inkscape:cy="24"
     inkscape:window-x="0"
     inkscape:window-y="25"
     inkscape:window-maximized="0"
     inkscape:current-layer="svg8" />
  <metadata
     id="metadata2">
    <rdf:RDF>
      <cc:Work>
        <dc:format>image/svg+xml</dc:format>
        <dc:type
           rdf:resource="http://purl.org/dc/dcmitype/StillImage" />
        <dc:title></dc:title>
      </cc:Work>
    </rdf:RDF>
  </metadata>
  <path
     d="m 1.21,0.86 -1.07,2.8 h 6.04 v -2.8 z m 5.18,0 v 2.8 h 6.11 l -1.1,-2.8 h -5 z m -6.2,3.03 v 6.31 c 0,0.64 0.25,1.18 0.74000003,1.64 C 1.43,12.29 2.01,12.51 2.71,12.51 H 9.9600003 C 10.66,12.51 11.24,12.29 11.74,11.84 c 0.49,-0.46 0.73,-1 0.73,-1.64 V 3.9 h -1.12 v 6.3 c 0,0.36 -0.13,0.66 -0.4,0.91 A 1.4,1.4 0 0 1 9.9600003,11.49 H 2.71 A 1.4,1.4 0 0 1 1.72,11.11 1.19,1.19 0 0 1 1.31,10.21 V 3.88 H 0.19 Z m 4.6,4.72 c -0.52,0 -0.9,0.39 -0.9,0.92 0,0.53 0.38,0.91 0.89,0.91 A 0.7,0.7 0 0 0 5.36,10.17 V 10.4 H 5.75 V 8.65 H 5.36 V 8.88 A 0.65,0.65 0 0 0 4.79,8.61 Z m 2.04,0 C 6.65,8.61 6.56,8.66 6.45,8.82 V 8.65 H 6.06 V 10.4 H 6.48 V 9.43 C 6.48,9.15 6.6,9.02 6.86,9.01 v -0.4 z m 1.1,0 C 7.4,8.6 7,9 7,9.52 c 0,0.52 0.42,0.92 0.93,0.92 A 0.9,0.9 0 0 0 8.8,9.83 H 8.33 c -0.1,0.16 -0.23,0.23 -0.4,0.23 -0.29,0 -0.5,-0.23 -0.5,-0.54 0,-0.3 0.2,-0.53 0.5,-0.53 0.18,0 0.31,0.08 0.4,0.24 H 8.8 A 0.8,0.8 0 0 0 8.57,8.85 0.95,0.95 0 0 0 7.92,8.61 Z m -3.1,0.38 c 0.3,0 0.52,0.23 0.52,0.55 A 0.6,0.6 0 0 1 5.22,9.9 0.49,0.49 0 0 1 4.84,10.06 c -0.3,0 -0.52,-0.21 -0.52,-0.52 0,-0.32 0.21,-0.55 0.51,-0.55 z"
     id="path4"
     inkscape:connector-curvature="0"
     style="fill:#1a1a1a" />
  <path
     d="M 1.72,5.3 V 6.35 H 2 V 7.41 H 2.53 V 6.35 H 2.79 V 5.29 H 1.72 Z M 3.04,5.34 V 5.87 H 3.57 V 5.34 Z M 3.57,5.87 V 6.4 H 4.1 V 5.87 Z m 0.53,0 H 4.63 V 5.34 H 4.1 Z m 0.53,0 V 6.4 H 5.16 V 5.87 Z m 0.53,0 H 5.68 V 5.34 H 5.16 Z m 0.52,0 V 6.4 H 6.21 V 5.87 Z m 0.53,0 H 6.74 V 5.34 H 6.21 Z m 0.53,0 V 6.4 H 7.27 V 5.87 Z m 0.53,0 H 7.8 V 5.34 H 7.27 Z m 0.53,0 V 6.4 H 8.33 V 5.87 Z m 0.53,0 H 8.86 V 5.34 H 8.33 Z m 0.53,0 V 6.4 H 9.39 V 5.87 Z m 0.53,0 H 9.9200003 V 5.34 H 9.39 Z m 0.5300003,0 V 6.4 H 10.45 V 5.87 Z M 10.45,5.87 h 0.53 V 5.34 H 10.45 Z M 1.99,5.56 H 2.52 V 6.09 H 1.99 Z"
     id="path6"
     inkscape:connector-curvature="0"
     style="fill:#1a1a1a" />
</svg>
