<?xml version="1.0" encoding="UTF-8" standalone="no"?>
<svg
   xmlns:dc="http://purl.org/dc/elements/1.1/"
   xmlns:cc="http://creativecommons.org/ns#"
   xmlns:rdf="http://www.w3.org/1999/02/22-rdf-syntax-ns#"
   xmlns:svg="http://www.w3.org/2000/svg"
   xmlns="http://www.w3.org/2000/svg"
   xmlns:sodipodi="http://sodipodi.sourceforge.net/DTD/sodipodi-0.dtd"
   xmlns:inkscape="http://www.inkscape.org/namespaces/inkscape"
   width="48"
   height="48"
   viewBox="0 0 12.7 12.7"
   version="1.1"
   id="svg6"
   sodipodi:docname="application-x-arj.svg"
   inkscape:version="0.92.5 (2060ec1f9f, 2020-04-08)">
  <metadata
     id="metadata12">
    <rdf:RDF>
      <cc:Work
         rdf:about="">
        <dc:format>image/svg+xml</dc:format>
        <dc:type
           rdf:resource="http://purl.org/dc/dcmitype/StillImage" />
        <dc:title></dc:title>
      </cc:Work>
    </rdf:RDF>
  </metadata>
  <defs
     id="defs10" />
  <sodipodi:namedview
     pagecolor="#ffffff"
     bordercolor="#666666"
     borderopacity="1"
     objecttolerance="10"
     gridtolerance="10"
     guidetolerance="10"
     inkscape:pageopacity="0"
     inkscape:pageshadow="2"
     inkscape:window-width="1087"
     inkscape:window-height="480"
     id="namedview8"
     showgrid="false"
     inkscape:zoom="4.9166667"
     inkscape:cx="2.1355932"
     inkscape:cy="24"
     inkscape:window-x="0"
     inkscape:window-y="25"
     inkscape:window-maximized="0"
     inkscape:current-layer="svg6" />
  <path
     style="fill:#1a1a1a;stroke-width:1"
     d="M 1.3229166,0.79374999 0.26510009,3.4401 H 6.0848999 V 0.79374999 Z m 5.2921834,0 V 3.4401 h 5.8198 L 11.377084,0.79374999 Z M 0.26510009,3.96875 v 6.35 c 0,1.172 0.94414991,2.11615 2.11614991,2.11615 h 7.9375 a 2.112,2.112 0 0 0 2.11615,-2.11615 v -6.35 h -0.792716 v 6.35 A 1.32,1.32 0 0 1 10.31875,11.642183 H 2.3802165 A 1.32,1.32 0 0 1 1.056783,10.31875 v -6.35 z M 1.8531169,4.9769572 V 6.0368407 H 2.1332031 V 7.0972412 H 2.6628865 V 6.0368407 H 2.922819 V 4.9769572 Z m 1.3198162,0.050126 V 5.5567667 H 3.7031332 V 5.0270833 Z M 3.7031332,5.5567667 V 6.0869668 H 4.2328166 V 5.5567667 Z m 0.5296834,0 H 4.7630167 V 5.0270833 H 4.2328166 Z m 0.5302001,0 V 6.0869668 H 5.2932168 V 5.5567667 Z m 0.5302001,0 h 0.519865 V 5.0270833 h -0.519865 z m 0.519865,0 V 6.0869668 H 6.3427652 V 5.5567667 Z m 0.5296834,0 H 6.8729653 V 5.0270833 H 6.3427652 Z m 0.5302001,0 V 6.0869668 H 7.4031657 V 5.5567667 Z m 0.5302004,0 H 7.9328491 V 5.0270833 H 7.4031657 Z m 0.5296834,0 V 6.0869668 H 8.4630492 V 5.5567667 Z m 0.5302001,0 H 8.9932493 V 5.0270833 H 8.4630492 Z m 0.5302001,0 V 6.0869668 H 9.522933 V 5.5567667 Z m 0.5296837,0 h 0.5302 V 5.0270833 h -0.5302 z m 0.5302,0 v 0.5302001 h 0.529684 V 5.5567667 Z m 0.529684,0 h 0.5302 V 5.0270833 h -0.5302 z M 2.1228678,5.2472248 H 2.6530681 V 5.7769082 H 2.1228678 Z m 2.3001181,2.2996014 v 0.010335 z M 7.9798745,8.1147501 V 8.5152425 H 8.400004 V 8.1147501 Z M 5.1402546,8.6547689 A 0.83999998,0.83999998 0 0 0 5.030184,8.6651041 0.87,0.87 0 0 0 4.2901775,9.414929 c -0.07,0.39 0.1000738,0.829939 0.480074,0.999939 0.2999999,0.14 0.7099943,0.120138 0.9399942,-0.149862 0.06,-0.08 0.019972,0.09023 0.029972,0.130225 -0.02,0.1 0.079708,0.04994 0.129708,0.05994 H 6.1298584 V 8.6950763 H 5.7402179 V 8.934855 a 0.65999999,0.65999999 0 0 0 -0.5100463,-0.2800861 0.83999998,0.83999998 0 0 0 -0.084232,0 0.83999998,0.83999998 0 0 0 -0.00568,0 z m 2.2799643,0 A 0.42,0.42 0 0 0 7.0502155,8.8749104 c 0,-0.06 0.02,-0.1398341 0,-0.1798341 H 6.669877 V 10.455176 H 7.0900065 V 9.3849567 c 0.01,-0.1999998 0.1898218,-0.3298772 0.3798218,-0.319877 V 8.6651041 a 0.42,0.42 0 0 0 -0.049609,-0.010335 z m 0.5596556,0.040307 V 10.44484 c 0.05,0.19 -0.2200153,0.130087 -0.1700154,0.280087 v 0.319877 a 0.56999999,0.56999999 0 0 0 0.5803265,-0.499711 c 0.02,-0.6200003 0.00982,-1.2300167 0.00982,-1.8500167 z M 5.1893472,9.0438924 a 0.55,0.55 0 0 1 5.168e-4,0 0.55,0.55 0 0 1 0.020154,0 0.51000001,0.51000001 0 0 1 0.519865,0.4898924 c 0.03,0.2500001 -0.1299755,0.5299912 -0.3999757,0.5699912 -0.25,0.05 -0.5499631,-0.08985 -0.5999633,-0.3498496 C 4.6299437,9.4739266 4.7797931,9.1242276 5.0797933,9.0542276 a 0.55,0.55 0 0 1 0.1095539,-0.010335 z"
     id="path2"
     inkscape:connector-curvature="0" />
</svg>
