<?xml version="1.0" encoding="UTF-8" standalone="no"?><svg xmlns:dc="http://purl.org/dc/elements/1.1/" xmlns:cc="http://creativecommons.org/ns#" xmlns:rdf="http://www.w3.org/1999/02/22-rdf-syntax-ns#" xmlns="http://www.w3.org/2000/svg" width="48" height="48" viewBox="0 0 12.7 12.7"><metadata><rdf:RDF><cc:Work><dc:format>image/svg+xml</dc:format><dc:type rdf:resource="http://purl.org/dc/dcmitype/StillImage"/><dc:title/></cc:Work></rdf:RDF></metadata><path d="M1.21.86L.14 3.66h6.04V.86H1.21zm5.18 0v2.8h6.11L11.4.86H6.4zM.19 3.89v6.31c0 .64.25 1.18.74 1.64.5.45 1.08.67 1.78.67h7.25c.7 0 1.28-.22 1.78-.67.49-.46.73-1 .73-1.64V3.9h-1.12v6.3c0 .36-.13.66-.4.91a1.4 1.4 0 0 1-.99.38H2.71a1.4 1.4 0 0 1-.99-.38 1.19 1.19 0 0 1-.41-.9V3.88H.19zm1.53 1.4v1.06H2v1.06h.53V6.35h.26V5.29H1.72zm1.32.05v.53h.53v-.53h-.53zm.53.53v.53h.53v-.53h-.53zm.53 0h.53v-.53H4.1v.53zm.53 0v.53h.53v-.53h-.53zm.53 0h.52v-.53h-.52v.53zm.52 0v.53h.53v-.53h-.53zm.53 0h.53v-.53h-.53v.53zm.53 0v.53h.53v-.53h-.53zm.53 0h.53v-.53h-.53v.53zm.53 0v.53h.53v-.53H7.8zm.53 0h.53v-.53h-.53v.53zm.53 0v.53h.53v-.53h-.53zm.53 0h.53v-.53h-.53v.53zm.53 0v.53h.53v-.53h-.53zm.53 0h.53v-.53h-.53v.53zm-8.46-.31h.53v.53h-.53v-.53zm.43 2.3v.59c-.11 0-.26-.04-.2.13.02.09-.07.3.09.25.16-.05.1.12.11.22v1.16h.42V8.83c.1-.02.3.07.26-.09-.03-.09.06-.3-.06-.3-.13.02-.24.02-.2-.14v-.44h-.42zm3.72.53a.25.25 0 0 0-.13.04c-.22.16-.18.2-.25.02H5.4v1.76h.42c0-.38-.01-.75.01-1.12 0-.3.45-.17.37-.44 0-.12.02-.25-.07-.26zm-2.06.01c-.35.03-.7.26-.8.6-.17.48.09 1.1.61 1.22.3.08.63 0 .82-.24 0 .1-.06.28.1.23.09-.03.3.06.28-.06v-1.7h-.38c0 .15.02.32-.12.1a.72.72 0 0 0-.36-.14h-.15zm3.98 0c-.34.03-.68.25-.77.6-.18.48.08 1.13.63 1.23.27.06.59-.02.76-.26a.51.51 0 0 1-.69.54c-.17-.1-.3-.2-.5-.16-.17-.02-.32 0-.13.18.37.52 1.33.52 1.62-.08.16-.4.08-.83.1-1.24v-.76h-.4c0 .13.03.31-.11.1a.72.72 0 0 0-.36-.14h-.15zm1.33.05v.37h.68l-.77 1v.39h1.34v-.38h-.83l.77-1v-.38H9.39zm-5.21.34c.41-.02.65.5.44.84-.2.38-.9.27-.95-.18-.07-.32.16-.67.5-.66zm3.97 0c.39-.02.61.43.47.76-.13.43-.86.4-.94-.05-.09-.32.1-.73.47-.7zM6.48 9.8v.4h.43v-.4h-.43z" fill="#1a1a1a"/></svg>