<?xml version="1.0" encoding="UTF-8" standalone="no"?>
<svg
   xmlns:dc="http://purl.org/dc/elements/1.1/"
   xmlns:cc="http://creativecommons.org/ns#"
   xmlns:rdf="http://www.w3.org/1999/02/22-rdf-syntax-ns#"
   xmlns:svg="http://www.w3.org/2000/svg"
   xmlns="http://www.w3.org/2000/svg"
   xmlns:sodipodi="http://sodipodi.sourceforge.net/DTD/sodipodi-0.dtd"
   xmlns:inkscape="http://www.inkscape.org/namespaces/inkscape"
   width="48"
   height="48"
   version="1.1"
   id="svg4"
   sodipodi:docname="cockos-reaper-backup.svg"
   inkscape:version="0.92.4 (5da689c313, 2019-01-14)">
  <metadata
     id="metadata10">
    <rdf:RDF>
      <cc:Work
         rdf:about="">
        <dc:format>image/svg+xml</dc:format>
        <dc:type
           rdf:resource="http://purl.org/dc/dcmitype/StillImage" />
        <dc:title></dc:title>
      </cc:Work>
    </rdf:RDF>
  </metadata>
  <defs
     id="defs8" />
  <sodipodi:namedview
     pagecolor="#ffffff"
     bordercolor="#666666"
     borderopacity="1"
     objecttolerance="10"
     gridtolerance="10"
     guidetolerance="10"
     inkscape:pageopacity="0"
     inkscape:pageshadow="2"
     inkscape:window-width="1136"
     inkscape:window-height="480"
     id="namedview6"
     showgrid="false"
     inkscape:zoom="4.9166667"
     inkscape:cx="2.1355932"
     inkscape:cy="24"
     inkscape:window-x="0"
     inkscape:window-y="25"
     inkscape:window-maximized="0"
     inkscape:current-layer="svg4" />
  <path
     d="m 29.705,-0.083984 c -2.047,0.008 -4.1216,0.087656 -4.5176,0.097656 H 6.9994 a 2.938,2.938 0 0 0 -0.5625,0 c -1.373,0.262 -2.4625,1.598 -2.4375,2.998 v 41.988 c 0,1.57 1.43,3 3,3 h 34 c 1.57,0 3,-1.43 3,-3 v -26.182 c 0.018,-0.792 0.21506,-9.9271 -0.33594,-10.496 l -9.6094,-8.0742 c -0.281,-0.275 -2.3026,-0.34003 -4.3496,-0.33203 z m 1.4902,3.0937 0.13281,7.5039 c 0.012,0.68 0.63741,1.2903 1.3164,1.2793 l 7.7715,-0.13672 c 0.133,0.018 0.26839,0.01818 0.40039,-0.0059 l 0.08203,3.0293 0.10156,4.0898 v 26.227 h -34 v -41.975 h 18.672 l 5.5234,-0.011719 z m -7.1953,13.99 c -5.5331,0 -10.086,4.0437 -10.877,9.3496 h 4.4922 c 0.7519,-2.9121 3.3771,-4.9468 6.3848,-4.9492 0.18142,2.03e-4 0.36076,0.0067 0.53906,0.02148 0.03401,0.0028 0.06772,0.0084 0.10156,0.01172 0.15081,0.0148 0.30117,0.0337 0.44922,0.05859 0.01875,0.003 0.03598,0.0084 0.05469,0.01172 0.15845,0.02805 0.31598,0.06038 0.4707,0.09961 0.02163,0.0054 0.04291,0.01188 0.06445,0.01758 0.1542,0.04076 0.30712,0.0852 0.45703,0.13672 0.01435,0.0049 0.02867,0.01066 0.04297,0.01563 0.16339,0.05742 0.32483,0.11972 0.48242,0.18945 1.0192,0.45102 1.9066,1.157 2.582,2.0449 l -1.1973,1.1973 a 0.6704,0.6704 0 0 0 0.47266,1.1445 h 1.8633 3.9473 a 0.6704,0.6704 0 0 0 0.66992,-0.66992 v -5.8086 a 0.6704,0.6704 0 0 0 -0.66016,-0.67188 0.6704,0.6704 0 0 0 -0.48438,0.19726 l -1.4727,1.4727 c -2.0146,-2.3685 -5.0156,-3.8691 -8.3828,-3.8691 z m -10.33,12.65 a 0.6704,0.6704 0 0 0 -0.66992,0.66992 v 5.8086 a 0.6704,0.6704 0 0 0 0.66016,0.67188 0.6704,0.6704 0 0 0 0.48438,-0.19726 l 1.4727,-1.4746 c 2.0132,2.3698 5.0152,3.8711 8.3828,3.8711 5.5331,0 10.086,-4.0437 10.877,-9.3496 h -4.4922 c -0.75191,2.9121 -3.3771,4.9468 -6.3848,4.9492 -0.18142,-2.04e-4 -0.36076,-0.0067 -0.53906,-0.02148 -0.03401,-0.0028 -0.06772,-0.0084 -0.10156,-0.01172 -0.15081,-0.0148 -0.30117,-0.0337 -0.44922,-0.05859 -0.01876,-0.003 -0.03598,-0.0084 -0.05469,-0.01172 -0.15845,-0.02805 -0.31598,-0.06038 -0.4707,-0.09961 -0.02163,-0.0054 -0.04291,-0.01188 -0.06445,-0.01758 -0.1542,-0.04076 -0.30712,-0.0852 -0.45703,-0.13672 -0.01435,-0.005 -0.02868,-0.01066 -0.04297,-0.01563 -0.16338,-0.05742 -0.32483,-0.11972 -0.48242,-0.18945 -1.0193,-0.45108 -1.9028,-1.1607 -2.5781,-2.0488 l 1.1934,-1.1934 a 0.6704,0.6704 0 0 0 -0.47266,-1.1445 h -1.8633 -3.9473 z"
     id="path2"
     inkscape:connector-curvature="0"
     style="fill:#1a1a1a" />
</svg>
