<svg xmlns="http://www.w3.org/2000/svg" width="48" height="48"><defs><linearGradient id="a"><stop offset="0" stop-color="#dc85e9"/><stop offset="1" stop-color="#f2cbf8"/></linearGradient><linearGradient id="b"><stop offset="0" stop-color="#dc85e9"/><stop offset="1" stop-color="#f2cbf8"/></linearGradient><linearGradient id="c"><stop offset="0" stop-color="#fff" stop-opacity=".588"/><stop offset="1" stop-color="#fff" stop-opacity=".863"/></linearGradient><linearGradient id="d"><stop offset="0" stop-color="#b3b3b3"/><stop offset="1" stop-color="#e6e6e6"/></linearGradient><linearGradient id="e"><stop offset="0" stop-color="#e694bb"/><stop offset=".262" stop-color="#d3819a"/><stop offset=".705" stop-color="#b25a64"/><stop offset="1" stop-color="#98313d"/></linearGradient></defs><path style="line-height:normal;text-indent:0;text-align:start;text-decoration-line:none;text-transform:none;marker:none" d="M29.705-.084c-2.047.008-4.121.088-4.517.098H7a2.938 2.938 0 0 0-.563 0C5.063.276 3.975 1.612 4 3.012V45c0 1.57 1.43 3 3 3h34c1.57 0 3-1.43 3-3V18.818c.018-.792.215-9.927-.336-10.496L34.054.248c-.284-.275-2.302-.34-4.349-.332zm1.49 3.094l.133 7.504c.012.681.638 1.29 1.317 1.279l7.771-.137c.133.018.268.017.4-.006l.082 3.03L41 18.77v26.227H7V3.021h18.672l5.523-.011zM22.57 8.844c-.267 0-.99.12-1.279.213-.726.24-1.118.793-1.43 1.513-.89 2.057.334 5.562 1.59 8.264-1.074 4.221-2.877 9.274-4.771 13.375-4.775 2.16-7.31 4.283-7.54 6.307-.083.736.094 1.817 1.405 2.79.359.266.78.405 1.219.405 1.102 0 2.215-.833 3.504-2.623.94-1.305 1.948-3.082 3.002-5.29 3.373-1.456 7.547-2.77 11.12-3.509 1.99 1.887 3.771 2.842 5.305 2.842 1.13 0 2.096-.511 2.797-1.48.73-1.01.897-1.914.492-2.688-.486-.934-1.685-1.389-3.656-1.389-1.158 0-2.578.15-4.23.444-2.306-2.416-4.71-5.945-6.409-9.407.18-.744.35-1.491.498-2.242.204-1.021.38-2.055.467-3.094.09-1.07.087-2.176-.482-3.129-.306-.512-.94-1.302-1.602-1.302zm-.45 2.246c.054-.017 1.316 1.371.12 4.002-1.796-1.815-.244-3.962-.12-4.002zm.765 10.53c1.414 2.51 3.114 4.947 4.814 6.898a63.565 63.565 0 0 0-8.183 2.511 88.165 88.165 0 0 0 3.369-9.41zm11.691 8.054c1.12 0 1.327.162 1.48.244-.027.087-.1.255-.288.516-.389.535-1.23.548-1.524.548-.673 0-.923-.396-1.95-1.175a18.45 18.45 0 0 1 2.282-.133zm-19.459 5.662c-2.042 3.722-3.137 4.214-3.326 4.273-.589-.444-.556-.746-.543-.861.078-.692 1.176-1.92 3.87-3.412z" color="#000" font-weight="400" font-family="Andale Mono" overflow="visible" fill="#1a1a1a"/></svg>