<?xml version="1.0" encoding="UTF-8" standalone="no"?>
<svg
   xmlns:dc="http://purl.org/dc/elements/1.1/"
   xmlns:cc="http://creativecommons.org/ns#"
   xmlns:rdf="http://www.w3.org/1999/02/22-rdf-syntax-ns#"
   xmlns:svg="http://www.w3.org/2000/svg"
   xmlns="http://www.w3.org/2000/svg"
   xmlns:sodipodi="http://sodipodi.sourceforge.net/DTD/sodipodi-0.dtd"
   xmlns:inkscape="http://www.inkscape.org/namespaces/inkscape"
   width="48"
   height="48"
   version="1.1"
   id="svg35"
   sodipodi:docname="gnome-mime-application-pdf.svg"
   inkscape:version="0.92.4 (5da689c313, 2019-01-14)">
  <metadata
     id="metadata39">
    <rdf:RDF>
      <cc:Work
         rdf:about="">
        <dc:format>image/svg+xml</dc:format>
        <dc:type
           rdf:resource="http://purl.org/dc/dcmitype/StillImage" />
        <dc:title></dc:title>
      </cc:Work>
    </rdf:RDF>
  </metadata>
  <sodipodi:namedview
     pagecolor="#ffffff"
     bordercolor="#666666"
     borderopacity="1"
     objecttolerance="10"
     gridtolerance="10"
     guidetolerance="10"
     inkscape:pageopacity="0"
     inkscape:pageshadow="2"
     inkscape:window-width="1087"
     inkscape:window-height="480"
     id="namedview37"
     showgrid="false"
     inkscape:zoom="4.9166667"
     inkscape:cx="2.1355932"
     inkscape:cy="24"
     inkscape:window-x="0"
     inkscape:window-y="25"
     inkscape:window-maximized="0"
     inkscape:current-layer="svg35" />
  <defs
     id="defs31">
    <linearGradient
       id="a">
      <stop
         offset="0"
         stop-color="#dc85e9"
         id="stop2" />
      <stop
         offset="1"
         stop-color="#f2cbf8"
         id="stop4" />
    </linearGradient>
    <linearGradient
       id="b">
      <stop
         offset="0"
         stop-color="#dc85e9"
         id="stop7" />
      <stop
         offset="1"
         stop-color="#f2cbf8"
         id="stop9" />
    </linearGradient>
    <linearGradient
       id="c">
      <stop
         offset="0"
         stop-color="#fff"
         stop-opacity=".588"
         id="stop12" />
      <stop
         offset="1"
         stop-color="#fff"
         stop-opacity=".863"
         id="stop14" />
    </linearGradient>
    <linearGradient
       id="d">
      <stop
         offset="0"
         stop-color="#b3b3b3"
         id="stop17" />
      <stop
         offset="1"
         stop-color="#e6e6e6"
         id="stop19" />
    </linearGradient>
    <linearGradient
       id="e">
      <stop
         offset="0"
         stop-color="#e694bb"
         id="stop22" />
      <stop
         offset=".262"
         stop-color="#d3819a"
         id="stop24" />
      <stop
         offset=".705"
         stop-color="#b25a64"
         id="stop26" />
      <stop
         offset="1"
         stop-color="#98313d"
         id="stop28" />
    </linearGradient>
  </defs>
  <path
     style="color:#000000;font-weight:400;line-height:normal;font-family:'Andale Mono';text-indent:0;text-align:start;text-decoration:none;text-decoration-line:none;text-transform:none;overflow:visible;fill:#1a1a1a;marker:none"
     d="m 29.705,-0.084 c -2.047,0.008 -4.121,0.088 -4.517,0.098 H 7 a 2.938,2.938 0 0 0 -0.563,0 C 5.063,0.276 3.975,1.612 4,3.012 V 45 c 0,1.57 1.43,3 3,3 h 34 c 1.57,0 3,-1.43 3,-3 V 18.818 C 44.018,18.026 44.215,8.891 43.664,8.322 l -9.61,-8.074 c -0.284,-0.275 -2.302,-0.34 -4.349,-0.332 z m 1.49,3.094 0.133,7.504 c 0.012,0.681 0.638,1.29 1.317,1.279 l 7.771,-0.137 c 0.133,0.018 0.268,0.017 0.4,-0.006 L 40.898,14.68 41,18.77 V 44.997 H 7 V 3.021 H 25.672 Z M 22.57,8.844 c -0.267,0 -0.99,0.12 -1.279,0.213 -0.726,0.24 -1.118,0.793 -1.43,1.513 -0.89,2.057 0.334,5.562 1.59,8.264 -1.074,4.221 -2.877,9.274 -4.771,13.375 -4.775,2.16 -7.31,4.283 -7.54,6.307 -0.083,0.736 0.094,1.817 1.405,2.79 0.359,0.266 0.78,0.405 1.219,0.405 1.102,0 2.215,-0.833 3.504,-2.623 0.94,-1.305 1.948,-3.082 3.002,-5.29 3.373,-1.456 7.547,-2.77 11.12,-3.509 1.99,1.887 3.771,2.842 5.305,2.842 1.13,0 2.096,-0.511 2.797,-1.48 0.73,-1.01 0.897,-1.914 0.492,-2.688 -0.486,-0.934 -1.685,-1.389 -3.656,-1.389 -1.158,0 -2.578,0.15 -4.23,0.444 -2.306,-2.416 -4.71,-5.945 -6.409,-9.407 0.18,-0.744 0.35,-1.491 0.498,-2.242 0.204,-1.021 0.38,-2.055 0.467,-3.094 0.09,-1.07 0.087,-2.176 -0.482,-3.129 C 23.866,9.634 23.232,8.844 22.57,8.844 Z m -0.45,2.246 c 0.054,-0.017 1.316,1.371 0.12,4.002 -1.796,-1.815 -0.244,-3.962 -0.12,-4.002 z m 0.765,10.53 c 1.414,2.51 3.114,4.947 4.814,6.898 a 63.565,63.565 0 0 0 -8.183,2.511 88.165,88.165 0 0 0 3.369,-9.41 z m 11.691,8.054 c 1.12,0 1.327,0.162 1.48,0.244 -0.027,0.087 -0.1,0.255 -0.288,0.516 -0.389,0.535 -1.23,0.548 -1.524,0.548 -0.673,0 -0.923,-0.396 -1.95,-1.175 a 18.45,18.45 0 0 1 2.282,-0.133 z m -19.459,5.662 c -2.042,3.722 -3.137,4.214 -3.326,4.273 -0.589,-0.444 -0.556,-0.746 -0.543,-0.861 0.078,-0.692 1.176,-1.92 3.87,-3.412 z"
     font-weight="400"
     overflow="visible"
     id="path33"
     inkscape:connector-curvature="0" />
</svg>
