<svg xmlns="http://www.w3.org/2000/svg" width="48" height="48"><path style="line-height:normal;text-indent:0;text-align:start;text-decoration-line:none;text-transform:none;marker:none" d="M29.705-.084c-2.047.008-4.121.088-4.517.098H7a2.938 2.938 0 0 0-.563 0C5.064.276 3.975 1.612 4 3.012V45c0 1.57 1.43 3 3 3h34c1.57 0 3-1.43 3-3V18.818c.018-.792.215-9.927-.336-10.496L34.054.248c-.283-.275-2.302-.34-4.349-.332zm1.49 3.094l.133 7.504c.012.68.638 1.29 1.317 1.279l7.771-.137c.133.018.268.017.4-.006l.082 3.03.102 4.09v26.226H7V3.021h18.672l5.523-.011zm-9.71 5.553a.571.571 0 0 0-.051.001v.002a.577.577 0 0 0-.39.211l-1.673 2.063c-.2.247-.162.61.086.81l.658.536a11.856 11.856 0 0 0-1.34 5.351 10.974 10.974 0 0 0 1.067 4.858l-1.87.343a.577.577 0 0 0-.421.33l-.801 1.778a.578.578 0 0 0 1.05.474l.679-1.502 5.888-1.082-2.986 3.682a2.109 2.109 0 0 0-2.461.61c-.73.9-.59 2.23.31 2.96.902.731 2.228.59 2.96-.31a2.105 2.105 0 0 0 .087-2.532l2.987-3.683.156 5.986-6.27 4.588-3.867-3.137.62-1.37a.578.578 0 0 0-1.053-.475l-.77 1.709-1.795 2.213-.885-.72a.578.578 0 0 0-.812.087l-2.205 2.718a.578.578 0 0 0 .084.813l7.224 5.857c.248.201.61.164.811-.084l2.207-2.718a.578.578 0 0 0-.086-.813l-.885-.717 1.795-2.212 6.813-4.987a.577.577 0 0 0 .236-.48l-.049-1.905a11.18 11.18 0 0 0 4.973.026 11.824 11.824 0 0 0 4.959-2.397l.66.535c.248.201.61.164.81-.084l1.674-2.062a.578.578 0 0 0-.084-.813l-2.064-1.671a.576.576 0 0 0-.81.084l-1.674 2.062a.578.578 0 0 0 .086.813l.486.394c-2.578 2.01-6.022 2.743-9.047 1.914l-.125-4.746-.002-.016c0-.013 0-.026-.002-.039 0-.007-.003-.015-.004-.023l-.006-.035a.086.086 0 0 0-.006-.022l-.011-.037-.008-.02a.58.58 0 0 0-.016-.036l-.008-.018c-.006-.013-.014-.025-.021-.037l-.008-.014c-.008-.013-.018-.025-.027-.037l-.008-.012-.031-.037-.01-.01a.596.596 0 0 0-.045-.04c-.016-.014-.035-.025-.05-.036l-.01-.007a.587.587 0 0 0-.043-.024l-.014-.006a.537.537 0 0 0-.041-.017l-.016-.006-.04-.014-.018-.004a1.008 1.008 0 0 0-.041-.008c-.007 0-.013 0-.02-.002l-.039-.003h-.059c-.007 0-.015 0-.023.002l-.04.003-.015.002-4.672.86c-1.475-2.802-1.468-6.257.008-9.25l.489.396c.247.201.61.162.81-.086l1.674-2.062a.576.576 0 0 0-.084-.81l-2.065-1.677a.571.571 0 0 0-.37-.127z" fill="#1a1a1a"/></svg>