<svg xmlns="http://www.w3.org/2000/svg" width="48" height="48"><defs><linearGradient id="a"><stop offset="0" stop-color="#dc85e9"/><stop offset="1" stop-color="#f2cbf8"/></linearGradient><linearGradient id="b"><stop offset="0" stop-color="#dc85e9"/><stop offset="1" stop-color="#f2cbf8"/></linearGradient><linearGradient id="c"><stop offset="0" stop-color="#fff" stop-opacity=".588"/><stop offset="1" stop-color="#fff" stop-opacity=".863"/></linearGradient><linearGradient id="d"><stop offset="0" stop-color="#b3b3b3"/><stop offset="1" stop-color="#e6e6e6"/></linearGradient><linearGradient id="e"><stop offset="0" stop-color="#e694bb"/><stop offset=".262" stop-color="#d3819a"/><stop offset=".705" stop-color="#b25a64"/><stop offset="1" stop-color="#98313d"/></linearGradient></defs><path style="line-height:normal;text-indent:0;text-align:start;text-decoration-line:none;text-transform:none;marker:none" d="M32.938-.012c-.999.32-1.335 1.84-.565 2.555l9.035 9.082c.835.796 2.497.115 2.541-1.041V1.502c0-.793-.717-1.514-1.506-1.514h-9.035a1.548 1.548 0 0 0-.47 0zm-26.5.026C5.062.276 3.974 1.612 4 3.012V45c0 1.57 1.43 3 3 3h34c1.57 0 3-1.43 3-3V18.818a3.038 3.038 0 0 0-.844-2.156L27.344.857a3.038 3.038 0 0 0-2.157-.843H7a2.938 2.938 0 0 0-.563 0zM7 3.02h18.672l.187.188 14.907 15 .234.234v26.555H7V3.021zm2.84 4.82a.284.284 0 0 0-.283.286v13.596c0 .157.126.285.283.285h17.39a.286.286 0 0 0 .286-.285V8.127a.286.286 0 0 0-.286-.285H9.84zm1.424 1.708h14.545v10.19l-3.914-4.053a.116.116 0 0 0-.16-.006l-2.715 2.388-3.47-4.271a.116.116 0 0 0-.183.004l-4.103 5.506V9.549zm10.246 1.318a1.397 1.397 0 1 0 0 2.794 1.397 1.397 0 0 0 0-2.794zM12.1 25.352c-1.196 0-2.159.058-2.159.13v1.57c0 .073.963.13 2.159.13h24.158c1.195 0 2.158-.057 2.158-.13v-1.57c0-.072-.963-.13-2.158-.13H12.1zm-.018 3.974c-1.195 0-2.158.059-2.158.131v1.568c0 .073.963.131 2.158.131h24.16c1.195 0 2.156-.058 2.156-.13v-1.569c0-.072-.96-.13-2.156-.13h-24.16zm.041 3.86c-1.195 0-2.156.058-2.156.13v1.57c0 .073.96.132 2.156.132h24.16c1.195 0 2.158-.059 2.158-.131v-1.57c0-.073-.963-.131-2.158-.131h-24.16z" color="#000" font-weight="400" font-family="Andale Mono" overflow="visible" fill="#1a1a1a"/></svg>