<?xml version="1.0" encoding="UTF-8" standalone="no"?>
<svg
   xmlns:dc="http://purl.org/dc/elements/1.1/"
   xmlns:cc="http://creativecommons.org/ns#"
   xmlns:rdf="http://www.w3.org/1999/02/22-rdf-syntax-ns#"
   xmlns:svg="http://www.w3.org/2000/svg"
   xmlns="http://www.w3.org/2000/svg"
   xmlns:sodipodi="http://sodipodi.sourceforge.net/DTD/sodipodi-0.dtd"
   xmlns:inkscape="http://www.inkscape.org/namespaces/inkscape"
   width="48"
   height="48"
   version="1.1"
   id="svg35"
   sodipodi:docname="text-css.svg"
   inkscape:version="0.92.4 (5da689c313, 2019-01-14)">
  <metadata
     id="metadata39">
    <rdf:RDF>
      <cc:Work
         rdf:about="">
        <dc:format>image/svg+xml</dc:format>
        <dc:type
           rdf:resource="http://purl.org/dc/dcmitype/StillImage" />
        <dc:title></dc:title>
      </cc:Work>
    </rdf:RDF>
  </metadata>
  <sodipodi:namedview
     pagecolor="#ffffff"
     bordercolor="#666666"
     borderopacity="1"
     objecttolerance="10"
     gridtolerance="10"
     guidetolerance="10"
     inkscape:pageopacity="0"
     inkscape:pageshadow="2"
     inkscape:window-width="1087"
     inkscape:window-height="480"
     id="namedview37"
     showgrid="false"
     inkscape:zoom="4.9166667"
     inkscape:cx="2.1355932"
     inkscape:cy="24"
     inkscape:window-x="0"
     inkscape:window-y="25"
     inkscape:window-maximized="0"
     inkscape:current-layer="svg35" />
  <defs
     id="defs31">
    <linearGradient
       id="a">
      <stop
         offset="0"
         stop-color="#dc85e9"
         id="stop2" />
      <stop
         offset="1"
         stop-color="#f2cbf8"
         id="stop4" />
    </linearGradient>
    <linearGradient
       id="b">
      <stop
         offset="0"
         stop-color="#dc85e9"
         id="stop7" />
      <stop
         offset="1"
         stop-color="#f2cbf8"
         id="stop9" />
    </linearGradient>
    <linearGradient
       id="c">
      <stop
         offset="0"
         stop-color="#fff"
         stop-opacity=".588"
         id="stop12" />
      <stop
         offset="1"
         stop-color="#fff"
         stop-opacity=".863"
         id="stop14" />
    </linearGradient>
    <linearGradient
       id="d">
      <stop
         offset="0"
         stop-color="#b3b3b3"
         id="stop17" />
      <stop
         offset="1"
         stop-color="#e6e6e6"
         id="stop19" />
    </linearGradient>
    <linearGradient
       id="e">
      <stop
         offset="0"
         stop-color="#e694bb"
         id="stop22" />
      <stop
         offset=".262"
         stop-color="#d3819a"
         id="stop24" />
      <stop
         offset=".705"
         stop-color="#b25a64"
         id="stop26" />
      <stop
         offset="1"
         stop-color="#98313d"
         id="stop28" />
    </linearGradient>
  </defs>
  <path
     style="color:#000000;font-weight:400;line-height:normal;font-family:'Andale Mono';text-indent:0;text-align:start;text-decoration:none;text-decoration-line:none;text-transform:none;overflow:visible;fill:#1a1a1a;marker:none"
     d="m 29.705,-0.084 c -2.047,0.008 -4.121,0.088 -4.517,0.098 H 7 a 2.938,2.938 0 0 0 -0.563,0 C 5.063,0.276 3.975,1.612 4,3.012 V 45 c 0,1.57 1.43,3 3,3 h 34 c 1.57,0 3,-1.43 3,-3 V 18.818 C 44.018,18.026 44.215,8.891 43.664,8.322 l -9.61,-8.074 c -0.284,-0.275 -2.302,-0.34 -4.349,-0.332 z m 1.49,3.094 0.133,7.504 c 0.012,0.681 0.638,1.29 1.317,1.279 l 7.771,-0.137 c 0.133,0.018 0.268,0.017 0.4,-0.006 L 40.898,14.68 41,18.77 V 44.997 H 7 V 3.021 H 25.672 Z M 10.242,6.908 v 2.037 h 6.207 V 6.908 Z m 8,0 v 2.037 h 6.207 V 6.908 Z m -6,4 v 2.037 H 28.34 v -2.037 z m -2,4 v 2.037 H 24.11 v -2.037 z m 16,0 v 2.037 h 10.28 v -2.037 z m -16,4 v 2.037 h 6.4 v -2.037 z m 8,0 v 2.037 h 11.83 v -2.037 z m 14,0 v 2.037 h 4.17 v -2.037 z m -20,4 v 2.037 h 21.72 v -2.037 z m 0,4 v 1.94 H 29.6 v -1.94 z m 20,0 v 1.94 h 3.977 v -1.94 z m -22.219,4 v 1.94 H 26.22 v -1.94 z m 19.602,0 v 1.94 h 6.594 v -1.94 z m -9.967,6.487 c -1.137,-0.057 -2.424,0.385 -2.916,1.496 -0.474,1.13 -0.338,2.638 0.66,3.449 1.067,0.82 2.572,0.78 3.79,0.353 v -0.8 c -0.046,-0.175 0.12,-0.757 -0.157,-0.485 -0.726,0.459 -1.883,0.575 -2.473,-0.162 -0.432,-0.645 -0.427,-1.62 0.092,-2.217 0.683,-0.667 1.823,-0.464 2.537,0.047 v -1.389 a 4.865,4.865 0 0 0 -1.533,-0.292 z m 5.39,0.003 c -0.604,-0.033 -1.208,0.02 -1.78,0.225 -0.902,0.31 -1.123,1.48 -0.733,2.26 0.412,0.714 1.332,0.793 2.069,0.898 0.58,-0.123 1.438,0.551 0.652,0.969 -0.936,0.263 -1.956,0.009 -2.819,-0.389 v 0.807 c -0.023,0.306 -0.045,0.618 0.37,0.584 1.171,0.256 2.464,0.419 3.59,-0.092 0.879,-0.416 1.024,-1.673 0.498,-2.416 -0.531,-0.578 -1.383,-0.614 -2.112,-0.734 -0.527,0.105 -1.367,-0.501 -0.625,-0.89 0.895,-0.248 1.84,0.03 2.678,0.362 v -1.294 c -0.577,-0.138 -1.183,-0.256 -1.787,-0.29 z m 5.806,0 c -0.605,-0.033 -1.209,0.02 -1.782,0.225 -0.901,0.31 -1.12,1.48 -0.73,2.26 0.411,0.714 1.332,0.793 2.068,0.898 0.58,-0.123 1.437,0.551 0.65,0.969 -0.935,0.263 -1.953,0.009 -2.816,-0.389 v 0.807 c -0.023,0.306 -0.046,0.618 0.37,0.584 1.171,0.256 2.463,0.419 3.59,-0.092 0.879,-0.416 1.022,-1.673 0.495,-2.416 -0.53,-0.578 -1.383,-0.614 -2.111,-0.734 -0.528,0.105 -1.367,-0.501 -0.625,-0.89 0.894,-0.248 1.84,0.03 2.678,0.362 v -1.294 c -0.577,-0.138 -1.183,-0.256 -1.787,-0.29 z"
     font-weight="400"
     overflow="visible"
     id="path33"
     inkscape:connector-curvature="0" />
</svg>
