<svg xmlns="http://www.w3.org/2000/svg" width="48" height="48" viewBox="0 0 12.7 12.7"><path fill="#a02c2c" d="M6.344.073a6.29 6.29 0 0 0-6.29 6.29 6.29 6.29 0 0 0 6.29 6.288 6.29 6.29 0 0 0 6.29-6.289 6.29 6.29 0 0 0-6.29-6.29zm-.018.936a5.407 5.407 0 0 1 5.407 5.407 5.407 5.407 0 0 1-5.407 5.407A5.407 5.407 0 0 1 .92 6.416a5.407 5.407 0 0 1 5.407-5.407zm.319.4a3.355 3.355 0 0 0-1.468.354l.47.706c1.103-.494 2.434-.136 3.126.902S9.28 5.776 8.4 6.603l-.91-1.368-.555 2.617 2.65.531-.714-1.074a3.36 3.36 0 0 0 .601-4.403A3.35 3.35 0 0 0 6.645 1.41zm.669 1.546a.835.835 0 0 0-.47.14.84.84 0 0 0-.234 1.166.84.84 0 0 0 1.165.234.84.84 0 0 0 .234-1.166.84.84 0 0 0-.695-.374zm-4.2 1.363l.715 1.073c-1.264 1.092-1.552 2.976-.601 4.403s2.8 1.889 4.294 1.143l-.47-.706c-1.102.495-2.433.136-3.125-.902s-.509-2.405.372-3.231l.911 1.367.554-2.616-2.65-.531zm2.281 3.747a.836.836 0 0 0-.47.14.84.84 0 0 0-.234 1.165.84.84 0 1 0 1.399-.93.84.84 0 0 0-.695-.375z"/></svg>