<svg xmlns="http://www.w3.org/2000/svg" width="48" height="48" viewBox="0 0 12.7 12.7"><path d="M6.34.07a6.29 6.29 0 0 0-6.29 6.3 6.29 6.29 0 0 0 6.3 6.28 6.29 6.29 0 0 0 6.28-6.29A6.29 6.29 0 0 0 6.34.07zM6.32 1l.01.01a5.4 5.4 0 0 1 5.4 5.4 5.4 5.4 0 0 1-5.4 5.41 5.4 5.4 0 0 1-5.41-5.4A5.4 5.4 0 0 1 6.32 1zm.03 1.131c-.798 0-1.53.282-2.12.753-.29-.025-.647.008-.647.33 0 .04.008.095.017.157a1.016 1.883 13.34 0 1 .155-.027 1.016 1.883 13.34 0 1 .172.021 1.016 1.883 13.34 0 1 .112.048 1.017 3.765 13.956 0 1-.326 1.848 1.017 3.765 13.956 0 1-.585 1.774 1.016 1.883 13.34 0 1-.118-.018 1.016 1.883 13.34 0 1-.195-.103c-.062.235.22.417.443.52.065.08.137.151.214.218-.002.155.002.303.022.429.126.81-.379 1.35 0 1.35.378 0 .755-.539.756-1.347.049.017.097.034.147.049-.023.292-.028.573.007.794.126.81-.379 1.35 0 1.35.378 0 .757-.54.757-1.35V8.28c.07.009.141.017.214.023-.047.4-.07.81-.023 1.11.126.81-.379 1.35 0 1.35.378 0 .757-.54.757-1.35V8.34l.24.003c.082 0 .162-.002.242-.003v1.075c0 .81.378 1.35.757 1.35.378 0-.126-.54 0-1.35.047-.3.024-.712-.023-1.11.072-.007.143-.016.214-.024v.647c0 .81.378 1.35.757 1.35.378 0-.127-.54 0-1.35.034-.22.03-.502.006-.794.05-.015.098-.032.147-.049 0 .808.379 1.346.757 1.346s-.127-.54 0-1.35c.02-.125.023-.273.022-.428.076-.066.148-.137.212-.216.224-.103.51-.286.447-.522a1.883 1.016 76.66 0 1-.198.103 1.883 1.016 76.66 0 1-.117.018 3.765 1.017 76.044 0 1-.585-1.774 3.765 1.017 76.044 0 1-.326-1.848 1.883 1.016 76.66 0 1 .111-.048 1.883 1.016 76.66 0 1 .173-.02 1.883 1.016 76.66 0 1 .171.032c.01-.065.018-.124.018-.165 0-.328-.372-.357-.665-.33a3.386 3.386 0 0 0-2.12-.75zm2.766 1.246a3.73 3.73 0 0 1-.024.136c.28.364.495.786.632 1.246-.178-.001-.221-.06-.373-.093-.214-.045-.616.382-.268.318.311-.058.426.408.786.502.015.14.024.281.024.425 0 .314-.035.588-.102.828.03.04.057.078.072.107.013.023.018.045.024.068a1.883 1.016 76.66 0 0 .322-2.003 1.883 1.016 76.66 0 0-1.093-1.534zM2.815 6.914c.006-.023.01-.045.023-.068a.881.881 0 0 1 .071-.105 3.064 3.064 0 0 1-.103-.83c0-.144.01-.285.025-.425.36-.094.475-.56.786-.502.348.064-.054-.363-.269-.318-.151.032-.194.092-.372.093.14-.467.359-.896.645-1.264a3.578 3.578 0 0 1-.02-.124 1.016 1.883 13.34 0 0-1.11 1.54 1.016 1.883 13.34 0 0 .324 2.003zM6.37 2.41c.368 0 .718.077 1.039.215a.525.525 0 0 1-.043.188c-.149.332-.618.553-.834.444-.2-.102-.3-.52-.195-.846l.033-.001zm-.185.01c.041.19.037.389-.04.531-.167.314-.634.288-.902.124A.545.545 0 0 1 5 2.798a2.63 2.63 0 0 1 1.185-.377zm1.31.488c.097 0 .014.128.014.22s.033.407-.063.407c-.097 0-.3-.234-.3-.326 0-.093.253-.301.35-.301zm-2.105.284a.124.124 0 0 1 .052.016c.126.073.009.343-.04.439-.05.096-.16.261-.286.188-.127-.073-.123-.324-.074-.42.042-.084.22-.235.348-.223zm.778.033c.14-.002.261.043.315.167.108.247-.167.74-.43.87-.263.131-.414.037-.522-.21-.108-.247-.057-.58.206-.711a1.06 1.06 0 0 1 .431-.116zm.748.111c.17-.015.314.097.408.285.125.25.163.674-.084.814-.247.14-.586.011-.71-.239-.126-.25-.039-.66.208-.8a.44.44 0 0 1 .178-.06zm.704.377c.143-.01.265.205.272.314.006.11-.093.392-.237.402-.143.009-.177-.286-.184-.395-.006-.11.005-.312.149-.321zm-1.39.572a.314.314 0 0 1 .18.057c.218.154.17.483.044.686-.126.203-.467.23-.686.075-.22-.154-.157-.324-.032-.527.094-.152.303-.294.494-.291zm-.652.05c.078 0 .092.063.092.174 0 .11-.076.16-.155.16-.078 0-.13-.05-.13-.16s.115-.174.193-.174zm1.248.24c.121 0 .332.126.332.28 0 .155-.161.281-.282.281-.12 0-.28-.005-.28-.16s.11-.4.23-.4z" stroke-width="3.78" fill="#a02c2c"/></svg>
