<svg xmlns="http://www.w3.org/2000/svg" width="48" height="48" viewBox="0 0 12.7 12.7"><path d="M6.34.08A6.27 6.27 0 0 0 .08 6.34a6.27 6.27 0 0 0 6.26 6.27 6.27 6.27 0 0 0 6.27-6.27A6.27 6.27 0 0 0 6.34.08zM6.33 1A5.39 5.39 0 0 1 11.7 6.4a5.39 5.39 0 0 1-5.38 5.39 5.39 5.39 0 0 1-5.4-5.4 5.39 5.39 0 0 1 5.4-5.38z" fill="#a02c2c"/><path d="M2.13 3.4v1.98h.99v2.25c0 1.35 1.1 2.45 2.45 2.45H9.8V5.85c0-1.36-1.1-2.45-2.45-2.45zm2.22.99h.5v3.46c0 .27.22.5.5.5h2.22a.5.5 0 0 0 .5-.5V6c0-.2-.17-.37-.37-.37-.21 0-.38.18-.38.37v1.49h-.5V5.99c0-.2-.16-.37-.36-.37-.2 0-.37.18-.37.37v1.49h-.5V5.99c0-.47.39-.86.87-.86.24 0 .46.1.62.27a.83.83 0 0 1 .62-.27c.47 0 .86.4.86.86v1.86c0 .55-.44 1-.99 1H5.34a.99.99 0 0 1-.99-1z" opacity=".75" fill="green"/></svg>