<svg xmlns="http://www.w3.org/2000/svg" width="48" height="48" viewBox="0 0 12.7 12.7"><path d="M6.34.07a6.29 6.29 0 0 0-6.29 6.3 6.29 6.29 0 0 0 1.61 4.18l-.6 1.1 1.08-.62a6.29 6.29 0 0 0 4.21 1.62 6.29 6.29 0 0 0 4.2-1.62l1.1.61-.61-1.11a6.29 6.29 0 0 0 1.59-4.17A6.29 6.29 0 0 0 6.34.07zM6.32 1l.01.01a5.4 5.4 0 0 1 5.4 5.4 5.4 5.4 0 0 1-1.2 3.4c-.38-.31-.83-.68-1.61-1.09.64.17 1.1.36 1.46.58-2.83-5.27-3.06-5.97-4.03-8.24-.47 1.15-.76 1.9-1.28 3.03.32.34.72.74 1.36 1.19a5.62 5.62 0 0 1-1.51-.87c-.55 1.15-1.4 2.75-2.83 5.37A5.4 5.4 0 0 1 .92 6.42 5.4 5.4 0 0 1 6.32 1zm.1 6.14c.65 0 1.28 1.06 1.25 2.14 0 .2-.02.4-.06.58.68.13 1.36.38 2.12.75a5.4 5.4 0 0 1-3.4 1.21 5.4 5.4 0 0 1-3.4-1.2 8.56 8.56 0 0 1 2.19-.77 3.07 3.07 0 0 1-.08-.72v-.05c.03-1.08.73-1.93 1.38-1.94z" fill="#a02c2c"/></svg>
