<svg xmlns="http://www.w3.org/2000/svg" width="48" height="48" viewBox="0 0 12.7 12.7"><path d="M6.34.07a6.29 6.29 0 0 0-6.29 6.3 6.29 6.29 0 0 0 6.3 6.28 6.29 6.29 0 0 0 6.28-6.29A6.29 6.29 0 0 0 6.34.07zm-.02.94a5.4 5.4 0 1 1-4.04 8.98c.4-.32 1.09-.24 1.92-.14.4.04.86.1 1.34.1a9.8 9.8 0 0 0 3.62-.61c.56-.25.93-.41 1.15-.62a.68.68 0 0 0 .17-.3l.03-.08c.04-.09.1-.3.11-.4.02-.05.02-.1-.01-.13l-.13.02c-.38.23-1.34.67-2.24.7-1.12.02-3.37-1.13-3.6-1.25l-.03-.03-.46-1.1C5.77 7.2 7.1 7.8 8.14 7.9c1.14.1 2.04-.53 2.42-.8l.15-.1.03-.03c-.07-.4-.67-2.35-1.12-2.82-.12-.13-.22-.25-.43-.37-1.63-.95-5.52-1.53-5.7-1.56l-.03.01v.03l-.03.9A15 15 0 0 0 2.3 2.8 4.82 4.82 0 0 1 6.32 1zm1.43 2.86h.09A1.67 1.67 0 0 1 8.9 6.74c-.32.3-.74.47-1.19.45a1.67 1.67 0 0 1-1.6-1.72 1.65 1.65 0 0 1 1.63-1.6zm-.04.49a1.15 1.15 0 0 0-1.08 1.12 1.16 1.16 0 0 0 1.94.89 1.16 1.16 0 0 0-.87-2zm.3.58c.29 0 .52.15.52.34 0 .2-.23.35-.52.35-.28 0-.51-.16-.51-.35 0-.19.23-.34.51-.34z" fill="#a02c2c"/></svg>
