<?xml version="1.0" encoding="UTF-8" standalone="no"?><svg xmlns:dc="http://purl.org/dc/elements/1.1/" xmlns:cc="http://creativecommons.org/ns#" xmlns:rdf="http://www.w3.org/1999/02/22-rdf-syntax-ns#" xmlns="http://www.w3.org/2000/svg" width="48" height="48" viewBox="0 0 12.7 12.7"><metadata><rdf:RDF><cc:Work><dc:format>image/svg+xml</dc:format><dc:type rdf:resource="http://purl.org/dc/dcmitype/StillImage"/><dc:title/></cc:Work></rdf:RDF></metadata><path d="M6.34.07a6.29 6.29 0 0 0-6.29 6.3 6.29 6.29 0 0 0 6.3 6.28 6.29 6.29 0 0 0 6.28-6.29A6.29 6.29 0 0 0 6.34.07zm-.01.94a5.4 5.4 0 0 1 5.4 5.4 5.4 5.4 0 0 1-5.4 5.41 5.4 5.4 0 0 1-5.41-5.4A5.4 5.4 0 0 1 6.32 1zM3.55 3.34c-.7 0-1.27.56-1.27 1.27v3.27c0 .7.56 1.28 1.27 1.28h1.83L4.8 10.9l2.52-1.74h1.83c.7 0 1.27-.57 1.27-1.28V4.61c0-.7-.56-1.27-1.27-1.27h-5.6zm-.5.58h1.37c.1 0 .18.08.18.18v.8c0 .1-.08.18-.18.18H3.04a.18.18 0 0 1-.18-.18v-.8c0-.1.08-.18.18-.18zm5.23 0h1.38c.1 0 .18.08.18.18v.8c0 .1-.08.18-.18.18H8.28a.18.18 0 0 1-.18-.18v-.8c0-.1.08-.18.18-.18zM3.04 5.66h1.38c.1 0 .18.09.18.19v.8c0 .1-.08.18-.18.18H3.04a.18.18 0 0 1-.18-.19v-.8c0-.1.08-.18.18-.18zm5.24 0h1.38c.1 0 .18.09.18.19v.8c0 .1-.08.18-.18.18H8.28a.18.18 0 0 1-.18-.19v-.8c0-.1.08-.18.18-.18zM3.04 7.41h1.38c.1 0 .18.08.18.18v.8c0 .1-.08.18-.18.18H3.04a.18.18 0 0 1-.18-.18v-.8c0-.1.08-.18.18-.18zm5.24 0h1.38c.1 0 .18.08.18.18v.8c0 .1-.08.18-.18.18H8.28a.18.18 0 0 1-.18-.18v-.8c0-.1.08-.18.18-.18z" fill="#a02c2c"/></svg>