<svg xmlns="http://www.w3.org/2000/svg" width="48" height="48" viewBox="0 0 12.7 12.7"><defs><linearGradient id="a" x2="0" y1="36" y2="12" gradientTransform="translate(2.646 286.946) scale(.15434)" gradientUnits="userSpaceOnUse"><stop stop-color="#06a370"/><stop offset="1" stop-color="#22d1b0"/></linearGradient></defs><path fill="#a02c2c" d="M6.344.073a6.29 6.29 0 0 0-6.29 6.29 6.29 6.29 0 0 0 6.29 6.288 6.29 6.29 0 0 0 6.29-6.289 6.29 6.29 0 0 0-6.29-6.29zm-.018.936a5.407 5.407 0 0 1 5.407 5.407 5.407 5.407 0 0 1-5.407 5.407A5.407 5.407 0 0 1 .92 6.416 5.407 5.407 0 0 1 6.326 1.01z"/><path fill="#a02c2c" d="M6.35 1.323A5.016 5.016 0 0 0 1.323 6.35h1.76A3.26 3.26 0 0 1 6.35 3.082zM9.618 6.35A3.26 3.26 0 0 1 6.35 9.618v1.76a5.016 5.016 0 0 0 5.027-5.028z"/><path fill="#a02c2c" d="M6.35 3.175A3.168 3.168 0 0 0 3.175 6.35c0 1.759 1.416 3.175 3.175 3.175S9.525 8.109 9.525 6.35H8.218A1.864 1.864 0 0 1 6.35 8.218 1.864 1.864 0 0 1 4.482 6.35c0-1.035.833-1.868 1.868-1.868z" opacity=".75"/><path fill="url(#a)" d="M6.35 288.798a1.848 1.848 0 0 0-1.852 1.852c0 1.026.826 1.852 1.852 1.852s1.852-.826 1.852-1.852a1.848 1.848 0 0 0-1.852-1.852m0 .772c.599 0 1.08.481 1.08 1.08 0 .599-.481 1.08-1.08 1.08-.599 0-1.08-.481-1.08-1.08 0-.599.481-1.08 1.08-1.08" opacity=".7" transform="translate(0 -284.3)"/></svg>