<svg xmlns="http://www.w3.org/2000/svg" width="48" height="48" viewBox="0 0 12.7 12.7"><path d="M6.34.07a6.29 6.29 0 0 0-6.29 6.3 6.29 6.29 0 0 0 6.3 6.28 6.29 6.29 0 0 0 6.28-6.29A6.29 6.29 0 0 0 6.34.07zM6.32 1l.01.01a5.4 5.4 0 0 1 5.4 5.4 5.4 5.4 0 0 1-5.4 5.41 5.4 5.4 0 0 1-5.41-5.4A5.4 5.4 0 0 1 6.32 1zM3.1 2.84h-.03c-.23.23 3.89 4.12 3.89 4.12L8.1 8.05c-.03.97.87.88 1.11 1.32.11.19-.1.43-.3.45.4.13.86-.62.7-1.05a1.2 1.2 0 0 0-.78-.81c-.15-.07-.41-.03-.56-.08L7.2 6.7S3.53 2.87 3.1 2.84zm1.6 3.84c-.1 0-.12.15-.12.35.02.4.27 1.55 1.5 2.39 1.05.7 2.97.45 2.94.05-.42-.52-1.13-.2-1.14-1.45-.4 0-.85-.06-.83.11.07.72-1.08.2-1.52-.53-.44-.68-.7-.92-.82-.92zm1.64.9c-.07 0-.12.02-.15.06-.05.1.03.24.19.32.15.1.32.1.37 0 .06-.08-.03-.23-.18-.32-.08-.04-.23 0-.23-.07z" fill="#a02c2c"/></svg>