<svg xmlns="http://www.w3.org/2000/svg" width="48" height="48" viewBox="0 0 12.7 12.7"><path d="M6.34.07a6.29 6.29 0 0 0-6.29 6.3 6.29 6.29 0 0 0 6.3 6.28 6.29 6.29 0 0 0 6.28-6.29A6.29 6.29 0 0 0 6.34.07zm-.01.94a5.4 5.4 0 0 1 5.4 5.4 5.4 5.4 0 0 1-5.4 5.41 5.4 5.4 0 0 1-5.41-5.4A5.4 5.4 0 0 1 6.32 1zM4.86 3.9a2.37 2.37 0 0 0-2.22 1.34 2.47 2.47 0 0 0 1.75 3.52 2.3 2.3 0 0 0 1.55-.31c.3-.2.63-.5.63-.58 0-.04-.07-.2-.15-.4l-.14-.32-.08.12c-.14.23-.49.54-.75.67-.22.1-.32.12-.7.12-.4 0-.47-.01-.72-.14-.35-.17-.66-.5-.82-.85-.1-.23-.12-.32-.12-.74 0-.44.01-.51.14-.76.15-.31.47-.65.76-.8.3-.16.74-.22 1.07-.15.64.14 1.02.48 1.32 1.2.73 1.71.95 2.18 1.17 2.43.33.37.6.48 1.19.48.41 0 .5-.01.75-.13.56-.27.83-.71.83-1.33 0-.72-.3-1.03-1.33-1.38-.73-.24-.88-.37-.88-.73s.23-.59.6-.59c.22 0 .35.05.53.23.09.08.15.11.23.09.15-.04.41-.21.41-.27 0-.11-.45-.52-.67-.6a1.37 1.37 0 0 0-1.43.3c-.23.25-.32.5-.32.86 0 .68.33 1.02 1.37 1.4.68.23.82.36.82.74 0 .45-.37.77-.9.77-.31 0-.48-.06-.66-.23-.16-.17-.26-.36-.78-1.59-.49-1.17-.63-1.44-.96-1.75-.43-.4-.96-.6-1.5-.62z" fill="#a02c2c"/></svg>