<?xml version="1.0" encoding="UTF-8" standalone="no"?>
<svg
   xmlns:dc="http://purl.org/dc/elements/1.1/"
   xmlns:cc="http://creativecommons.org/ns#"
   xmlns:rdf="http://www.w3.org/1999/02/22-rdf-syntax-ns#"
   xmlns:svg="http://www.w3.org/2000/svg"
   xmlns="http://www.w3.org/2000/svg"
   xmlns:sodipodi="http://sodipodi.sourceforge.net/DTD/sodipodi-0.dtd"
   xmlns:inkscape="http://www.inkscape.org/namespaces/inkscape"
   width="48"
   height="48"
   version="1"
   id="svg4"
   sodipodi:docname="libreoffice-chart.svg"
   inkscape:version="0.92.4 (5da689c313, 2019-01-14)">
  <metadata
     id="metadata10">
    <rdf:RDF>
      <cc:Work
         rdf:about="">
        <dc:format>image/svg+xml</dc:format>
        <dc:type
           rdf:resource="http://purl.org/dc/dcmitype/StillImage" />
        <dc:title></dc:title>
      </cc:Work>
    </rdf:RDF>
  </metadata>
  <defs
     id="defs8" />
  <sodipodi:namedview
     pagecolor="#ffffff"
     bordercolor="#666666"
     borderopacity="1"
     objecttolerance="10"
     gridtolerance="10"
     guidetolerance="10"
     inkscape:pageopacity="0"
     inkscape:pageshadow="2"
     inkscape:window-width="862"
     inkscape:window-height="480"
     id="namedview6"
     showgrid="false"
     inkscape:zoom="4.9166667"
     inkscape:cx="2.1355932"
     inkscape:cy="24"
     inkscape:window-x="0"
     inkscape:window-y="25"
     inkscape:window-maximized="0"
     inkscape:current-layer="svg4" />
  <path
     d="M 23.98,0.227 A 23.773,23.773 0 0 0 0.246,24.037 23.773,23.773 0 0 0 24.02,47.773 23.773,23.773 0 0 0 47.754,24 23.773,23.773 0 0 0 23.98,0.227 Z m -0.074,3.515 0.037,0.037 A 20.41,20.41 0 0 1 44.353,24.189 20.41,20.41 0 0 1 23.943,44.637 20.41,20.41 0 0 1 3.496,24.227 20.41,20.41 0 0 1 23.906,3.742 Z M 11.521,11.453 V 36.55 h 8.913 V 11.453 H 11.52 Z m 10.833,6.445 v 18.65 h 6.857 v -18.65 z m 9.326,7.815 v 10.836 h 4.799 V 25.713 h -4.8 z"
     id="path2"
     inkscape:connector-curvature="0"
     style="fill:#a02c2c;fill-opacity:0.99199997" />
</svg>
