<svg xmlns="http://www.w3.org/2000/svg" width="48" height="48" viewBox="0 0 12.7 12.7"><path fill="#a02c2c" d="M6.344.073a6.29 6.29 0 0 0-6.29 6.29 6.29 6.29 0 0 0 6.29 6.288 6.29 6.29 0 0 0 6.29-6.289 6.29 6.29 0 0 0-6.29-6.29zm-.018.936a5.407 5.407 0 0 1 5.407 5.407 5.407 5.407 0 0 1-5.407 5.407A5.407 5.407 0 0 1 .92 6.416 5.407 5.407 0 0 1 6.326 1.01zm.025 1c-2.25 0-3.537.629-3.71 1.269a.144.144 0 0 0-.021.073v.344c.423.442 1.838.85 3.73.85s3.307-.408 3.73-.85V3.35a.138.138 0 0 0-.02-.069c-.167-.642-1.454-1.274-3.71-1.274zM2.62 4.23v1.401c.394.411 1.646.792 3.325.846h.053l.145.004.208.002.206-.001c.049 0 .097-.002.146-.003l.052-.001c1.68-.054 2.931-.435 3.325-.846V4.231c-.726.499-2.26.762-3.73.762-1.468 0-3.004-.263-3.73-.762zm0 1.955v1.402c.425.443 1.85.852 3.73.852 1.881 0 3.305-.409 3.73-.852V6.186a3.054 3.054 0 0 1-.75.353c-.627.22-1.499.373-2.59.403a16.828 16.828 0 0 1-.78 0c-1.095-.03-1.968-.185-2.596-.405a3.05 3.05 0 0 1-.744-.351zm0 1.94v1.223a.14.14 0 0 0 .017.067c.176.73 1.753 1.276 3.714 1.276 1.955 0 3.529-.543 3.71-1.27a.148.148 0 0 0 .019-.073V8.126c-.617.434-1.887.776-3.73.776-1.842 0-3.113-.342-3.73-.776z"/></svg>