<svg xmlns="http://www.w3.org/2000/svg" width="48" height="48" viewBox="0 0 12.7 12.7"><path d="M6.48 1.59L5.42 3.24 3.74 4.52l-1.91.33 1.4 1.4.53 1.85-.34 2.13 1.94-.98 2.02.02 1.81.94-.04-2 .58-1.83 1.34-1.53-1.9-.35-1.74-1.24z" opacity=".5" fill="#a02c2c" fill-rule="evenodd"/><path d="M6.34.07a6.29 6.29 0 0 0-6.29 6.3 6.29 6.29 0 0 0 6.3 6.28 6.29 6.29 0 0 0 6.28-6.29A6.29 6.29 0 0 0 6.34.07zm-.01.94a5.4 5.4 0 0 1 5.4 5.4 5.4 5.4 0 0 1-5.4 5.41 5.4 5.4 0 0 1-5.41-5.4A5.4 5.4 0 0 1 6.32 1z" fill="#a02c2c"/><path d="M4.54 5.27l.15.42-.43.29-1.01 1.25 1.69.55h.4l.12.4.93 1.33.96-1.35.14-.42.37.02 1.68-.44-.92-1.17-.46-.33.15-.42.02-1.77-1.38.56-.58.4-.46-.36-1.43-.56z" opacity=".75" fill="#a02c2c" fill-rule="evenodd"/><path d="M3.53 2.47l.21 2.05.95 1.17-.06-1.8 1.74.7-.95-1.35zm2.84 2.11l1.81-.73-.02 1.97L9.17 4.5l.17-1.97-1.91.73zm1.79 1.24L9.3 7.26l-1.8.48 1.65.46 1.96-.23-1.38-1.59zm-.67 1.92L6.4 9.3 5.34 7.8l.02 1.46 1.01 1.86 1.01-1.84zm-2.15.04l-1.86-.6L4.7 5.69l-1.46.57-1.64 1.5 2.17.34z" fill="#a02c2c" fill-rule="evenodd"/></svg>