<svg xmlns="http://www.w3.org/2000/svg" xmlns:xlink="http://www.w3.org/1999/xlink" width="48" height="48" viewBox="0 0 12.7 12.7"><defs><linearGradient id="a"><stop offset="0" stop-color="#a02c2c"/><stop offset="1" stop-color="#a02c2c" stop-opacity="0"/></linearGradient><linearGradient xlink:href="#a" id="b" x1="1.487" y1="7.149" x2="5.062" y2="4.123" gradientUnits="userSpaceOnUse" gradientTransform="rotate(-163.367 6.336 6.31)"/></defs><path d="M6.336 6.31L4.68 11.88c4.09.607 5.934-1.503 7.405-3.853z" fill="url(#b)" stroke-width=".29"/><path d="M6.34.07a6.29 6.29 0 0 0-6.29 6.3 6.29 6.29 0 0 0 6.3 6.28 6.29 6.29 0 0 0 6.28-6.29A6.29 6.29 0 0 0 6.34.07zM6.32 1l.01.01a5.4 5.4 0 0 1 5.4 5.4 5.4 5.4 0 0 1-5.4 5.41 5.4 5.4 0 0 1-5.41-5.4A5.4 5.4 0 0 1 6.32 1zm.028 1.044a.306.306 0 0 0-.305.305v.669a3.342 3.342 0 0 0-3.025 3.028h-.669a.302.302 0 0 0-.305.306c0 .168.141.305.305.305h.669a3.342 3.342 0 0 0 3.028 3.025v.669c0 .164.134.305.306.305a.306.306 0 0 0 .305-.305v-.669a3.342 3.342 0 0 0 3.025-3.025h.669a.306.306 0 0 0 .305-.305.306.306 0 0 0-.305-.306h-.669a3.342 3.342 0 0 0-3.028-3.024v-.673a.306.306 0 0 0-.306-.305zm-.302 1.585v1.226c0 .164.134.305.306.305a.306.306 0 0 0 .305-.305V3.633a2.735 2.735 0 0 1 2.414 2.413H7.845a.306.306 0 0 0-.305.306c0 .164.133.305.305.305h1.226a2.735 2.735 0 0 1-2.414 2.414V7.85a.306.306 0 0 0-.305-.305.306.306 0 0 0-.306.305v1.222A2.735 2.735 0 0 1 3.63 6.657h1.226a.306.306 0 0 0 .305-.305.31.31 0 0 0-.305-.306H3.629A2.735 2.735 0 0 1 6.046 3.63z" stroke-width="3.78" fill="#a02c2c"/></svg>
