<?xml version="1.0" encoding="UTF-8" standalone="no"?>
<svg
   xmlns:dc="http://purl.org/dc/elements/1.1/"
   xmlns:cc="http://creativecommons.org/ns#"
   xmlns:rdf="http://www.w3.org/1999/02/22-rdf-syntax-ns#"
   xmlns:svg="http://www.w3.org/2000/svg"
   xmlns="http://www.w3.org/2000/svg"
   xmlns:xlink="http://www.w3.org/1999/xlink"
   xmlns:sodipodi="http://sodipodi.sourceforge.net/DTD/sodipodi-0.dtd"
   xmlns:inkscape="http://www.inkscape.org/namespaces/inkscape"
   width="48"
   height="48"
   viewBox="0 0 12.7 12.7"
   version="1.1"
   id="svg21"
   sodipodi:docname="offensive-security.svg"
   inkscape:version="0.92.5 (2060ec1f9f, 2020-04-08)">
  <metadata
     id="metadata25">
    <rdf:RDF>
      <cc:Work
         rdf:about="">
        <dc:format>image/svg+xml</dc:format>
        <dc:type
           rdf:resource="http://purl.org/dc/dcmitype/StillImage" />
        <dc:title></dc:title>
      </cc:Work>
    </rdf:RDF>
  </metadata>
  <sodipodi:namedview
     pagecolor="#ffffff"
     bordercolor="#666666"
     borderopacity="1"
     objecttolerance="10"
     gridtolerance="10"
     guidetolerance="10"
     inkscape:pageopacity="0"
     inkscape:pageshadow="2"
     inkscape:window-width="1366"
     inkscape:window-height="711"
     id="namedview23"
     showgrid="false"
     inkscape:zoom="10.75"
     inkscape:cx="-6.7906977"
     inkscape:cy="24"
     inkscape:window-x="0"
     inkscape:window-y="25"
     inkscape:window-maximized="1"
     inkscape:current-layer="svg21" />
  <defs
     id="defs11">
    <linearGradient
       id="a"
       x1="29.088"
       x2="29.088"
       y1="2.582"
       y2="64.479"
       gradientUnits="userSpaceOnUse"
       gradientTransform="matrix(.61733 0 0 .61733 5.558 2.832)">
      <stop
         stop-color="#fd3535"
         offset="0"
         id="stop2" />
      <stop
         stop-color="#e43030"
         offset=".639"
         id="stop4" />
      <stop
         stop-color="#d41919"
         offset=".639"
         id="stop6" />
      <stop
         stop-color="#bf1717"
         offset="1"
         id="stop8" />
    </linearGradient>
    <linearGradient
       inkscape:collect="always"
       xlink:href="#a"
       id="linearGradient834"
       gradientUnits="userSpaceOnUse"
       gradientTransform="matrix(0.16333317,0,0,0.16333317,1.4705356,0.74929056)"
       x1="29.088"
       y1="2.582"
       x2="29.088"
       y2="64.479" />
  </defs>
  <path
     d="m 2.6114046,10.318091 a 5.4069569,5.4069569 0 0 0 0.2370637,0.221189 5.4069569,5.4069569 0 0 0 0.4304717,0.327021 5.4069569,5.4069569 0 0 0 0.4608983,0.282836 5.4069569,5.4069569 0 0 0 0.4862981,0.234947 5.4069569,5.4069569 0 0 0 0.5079936,0.185735 5.4069569,5.4069569 0 0 0 0.5233392,0.133084 5.4069569,5.4069569 0 0 0 0.5344516,0.08123 5.4069569,5.4069569 0 0 0 0.5397432,0.02699 5.4069569,5.4069569 0 0 0 0.3831119,-0.01349 5.4069569,5.4069569 0 0 0 0.5363036,-0.06509 5.4069569,5.4069569 0 0 0 0.5270434,-0.119061 5.4069569,5.4069569 0 0 0 0.5132852,-0.169861 5.4069569,5.4069569 0 0 0 0.4934417,-0.221189 5.4069569,5.4069569 0 0 0 0.4688357,-0.268813 5.4069569,5.4069569 0 0 0 0.4392028,-0.31485 5.4069569,5.4069569 0 0 0 0.3926367,-0.344483 L 8.1678492,7.5730733 8.1683784,1.3255458 A 5.4069569,5.4069569 0 0 0 7.9297272,1.2382344 5.4069569,5.4069569 0 0 0 7.4061234,1.1048861 5.4069569,5.4069569 0 0 0 6.8716718,1.02366 5.4069569,5.4069569 0 0 0 6.3319286,0.99693744 5.4069569,5.4069569 0 0 0 5.9493459,1.0101664 5.4069569,5.4069569 0 0 0 5.4130423,1.0752531 5.4069569,5.4069569 0 0 0 4.8854697,1.193785 5.4069569,5.4069569 0 0 0 4.5298742,1.3120522 V 7.6328684 L 2.6114046,10.318355 Z"
     id="path15"
     style="clip-rule:evenodd;opacity:0.7;fill:url(#linearGradient834);fill-rule:evenodd;stroke-width:0.26458001"
     inkscape:connector-curvature="0" />
  <path
     style="clip-rule:evenodd;fill:#a02c2c;fill-rule:evenodd;stroke-width:1"
     d="M 6.35,0.06097819 A 6.2899998,6.2899998 0 0 0 0.06097819,6.3499999 6.2899998,6.2899998 0 0 0 6.35,12.639022 6.2899998,6.2899998 0 0 0 12.639022,6.3499999 6.2899998,6.2899998 0 0 0 6.35,0.06097819 Z M 6.3319133,0.99683836 A 5.4070001,5.4070001 0 0 1 11.738819,6.4037434 5.4070001,5.4070001 0 0 1 6.3319133,11.811165 5.4070001,5.4070001 0 0 1 0.92500814,6.4037434 5.4070001,5.4070001 0 0 1 6.3319133,0.99683836 Z"
     id="path829"
     inkscape:connector-curvature="0" />
  <path
     style="clip-rule:evenodd;fill:#280b0b;fill-rule:evenodd;stroke-width:1"
     d="m 6.1701658,1.6820679 c -0.077,-0.026 -0.1761217,0.088761 -0.2041218,0.146761 -0.049,0.096 -0.077093,0.3201768 -0.049093,0.4061768 0.03,0.087 0.1059368,0.1540271 0.1059368,0.2320272 0,0.077 0.010002,0.1350271 -0.076998,0.2320272 -0.085,0.094 -0.2606797,0.1050686 -0.4216797,0.1870686 a 0.078,0.078 0 0 0 -0.032039,0.029972 c -0.062,0.1000001 -0.062931,0.4250365 -0.074931,0.6330363 -0.004,0.057 0.00572,0.1176665 0.00672,0.1746665 a 1.99,1.99 0 0 1 0,0.1343586 c -0.004,0.08 -0.021972,0.1598123 -0.029972,0.2408124 a 0.38899999,0.38899999 0 0 0 0.00827,0.1162719 l 0.054777,0.2428791 c 0.03,0.1300001 0.05987,0.2610567 0.1038696,0.3870565 0.005,0.014 0.010154,0.027791 0.020154,0.039791 0.02,0.022 0.059199,0.019824 0.083199,0.040824 a 0.17,0.17 0 0 1 0.045992,0.071313 c 0.02,0.054 0.01559,0.1129149 0.03359,0.1669148 0.048,0.1450001 0.2119326,0.7919508 0.2599325,1.0619507 0.025,0.14 0.050481,0.4491209 0.076481,0.7281209 0.012,0.1240001 0.032791,0.2419305 0.039791,0.3369304 0.007,0.1060001 0.00307,0.1868062 0.00207,0.2098062 -0.005,0.082 0.039059,0.013247 0.048059,0.069246 0.004,0.022 -0.015025,0.039864 -0.047025,0.072864 -0.088,0.09 -0.2032479,0.1829461 -0.2542479,0.2449462 -0.044,0.056 -0.087134,0.1128755 -0.00413,0.1348756 a 0.068,0.068 0 0 0 -0.012919,0.048059 c 0.005,0.044 0.031079,0.057032 0.064079,0.078032 0.045,0.03 0.155915,0.081889 0.1669148,0.1198893 0.005,0.017 -0.017724,0.00309 -0.037724,0.018087 -0.006,0.004 -0.033891,0.074917 -0.042891,0.089917 A 2.254,2.254 0 0 0 5.8838785,8.5731201 0.87399999,0.87399999 0 0 1 5.7939617,8.719881 C 5.6719615,8.8728811 5.5582264,9.0349355 5.4322265,9.1839356 a 0.22,0.22 0 0 1 -0.1250569,0.067179 l -0.043408,0.00775 a 0.2,0.2 0 0 0 -0.064595,0.027905 c -0.006,0.004 -0.2303269,0.2324412 -0.3183268,0.3064412 a 0.089,0.089 0 0 0 -0.029973,0.057878 c -0.003,0.02 0.00213,0.033126 0.00413,0.050126 a 0.362,0.362 0 0 1 -0.01912,0.1617472 c -0.007,0.02 -0.019872,0.038878 -0.026872,0.057878 a 0.41399999,0.41399999 0 0 0 -0.020154,0.087334 c -0.011,0.064 -0.024972,0.125652 -0.029972,0.189652 a 0.33499999,0.33499999 0 0 0 0.00827,0.121956 c 0.005,0.02 0.015106,0.03926 0.034106,0.05426 0.02,0.014 0.1338479,0.02794 0.1648478,0.02894 0.1080001,0.004 0.2257293,0.005 0.3307292,0.01395 0.083,0.007 0.169396,0.0149 0.243396,0.0279 a 0.89299999,0.89299999 0 0 1 0.236678,0.07803 c 0.052,0.026 0.065964,0.06005 0.075964,0.09405 0.01,0.036 -0.025844,0.09 -0.056844,0.108004 -0.022,0.012 -0.1728062,0.08384 -0.2098064,0.102836 a 0.37600001,0.37600001 0 0 0 -0.1364258,0.136425 0.47899999,0.47899999 0 0 0 0.00207,0.254765 c 0.022,0.06 0.059306,0.108929 0.1173054,0.151929 a 0.88,0.88 0 0 0 0.4449342,0.141077 c 0.025,0 0.1330352,-0.006 0.1860352,10e-4 0.027,0.004 0.061883,0.01199 0.088883,0.01499 a 0.83899998,0.83899998 0 0 0 0.2247926,0.0083 c 0.09,-0.012 0.1901336,-0.04015 0.2661336,-0.06615 A 0.82899998,0.82899998 0 0 0 7.026961,11.339863 c 0.074,-0.059 0.083931,-0.106035 0.074931,-0.186035 -0.008,-0.08 -0.166759,-0.246991 -0.2237589,-0.307991 -0.044,-0.046 -0.1671498,-0.1607 -0.1741496,-0.1757 -0.006,-0.015 -0.00687,-0.01539 0.00413,-0.02739 0.011,-0.013 0.2520447,-0.125526 0.3250446,-0.139526 0.033,-0.007 0.4568904,-0.02039 0.5668904,-0.02739 0.08,-0.006 0.2151338,-0.02463 0.2661338,-0.09664 a 0.60299999,0.60299999 0 0 0 0.073897,-0.302307 c -0.012,-0.055 -0.077026,-0.2828099 -0.047026,-0.3178098 0.029,-0.034 0.035107,-0.04728 0.034107,-0.07028 -0.002,-0.026 -0.017188,-0.079856 -0.021188,-0.1188559 -0.004,-0.04 -0.029724,-0.1022109 -0.037724,-0.1452107 -0.01,-0.042 -0.052004,-0.1115542 -0.1080037,-0.1095542 -0.06,0.005 -0.050319,0.027598 -0.1023194,-0.012402 A 0.565,0.565 0 0 1 7.5111694,9.1301918 c -0.035,-0.068 -0.1461299,-0.270374 -0.1581298,-0.304374 -0.01,-0.03 -0.06328,-0.1638202 -0.07028,-0.1948201 A 1.753,1.753 0 0 1 7.2672566,8.4139565 c 0,-0.05 -0.03,-0.089769 0,-0.1007689 0.03,-0.01 0.1138558,-0.065258 0.1188559,-0.1312582 a 0.075,0.075 0 0 0 -0.01912,-0.059945 0.111,0.111 0 0 0 0.020154,-0.042892 c 0.02,-0.078 -0.1290963,-0.2813326 -0.1570964,-0.3493326 -0.013,-0.03 -0.029154,-0.080688 -0.020154,-0.1136883 0.002,-0.01 0.016321,0.00115 0.025321,-0.010852 a 0.503,0.503 0 0 0 -0.0093,-0.1539959 4.026,4.026 0 0 1 -0.044958,-0.3400309 c -0.002,-0.065 -0.013738,-0.451985 -0.022737,-0.5389851 -0.01,-0.087 -0.065361,-0.4804386 -0.057361,-0.6454386 0.019,-0.3320002 1.537e-4,-1.043923 0.020154,-1.0919229 0.019,-0.049 0.095842,-0.030032 0.1338421,-0.078031 0.039,-0.048 0.030274,-0.076814 0.039274,-0.1638144 a 0.86399999,0.86399999 0 0 0 -0.028939,-0.2800863 0.77999999,0.77999999 0 0 1 0,-0.2609659 c 0.01,-0.087 -0.068272,-0.1068142 -0.116272,-0.1638144 -0.048,-0.058 0.010181,-0.4551447 -0.00982,-0.5901447 l -0.00723,-0.050126 A 6.77,6.77 0 0 0 7.0838054,2.9920655 c -0.012,-0.057 -0.019791,-0.1201497 -0.039791,-0.1741496 -0.032,-0.092 -0.1680806,-0.1041577 -0.2490804,-0.1281575 a 6.3919999,6.3919999 0 0 0 -0.2418458,-0.06873 c -0.039,-0.01 -0.1543309,-0.1059957 -0.1643311,-0.1539957 -0.01,-0.049 0.1831162,-0.3288117 0.1731161,-0.5028117 A 0.31999999,0.31999999 0 0 0 6.4300983,1.7389119 0.294,0.294 0 0 0 6.3381143,1.6872355 c -0.045,-0.013 -0.081023,0.022953 -0.1240234,0.013953 -0.016,-0.003 -0.029925,-0.01412 -0.043925,-0.019121 z m 0.29869,3.7150188 h 0.00103 c 0.01,0.002 0.019355,0.012972 0.026355,0.029972 0.013,0.036 0.067897,0.2701176 0.073897,0.3581175 0.01,0.1320001 0.059878,0.4328038 0.057878,0.5488038 -0.003,0.1150001 0.05418,0.4967899 0.067179,0.5637898 0.014,0.067 0.024006,0.1722876 0.031006,0.2862876 0.008,0.1129998 -6.7e-5,0.2519164 -0.00207,0.3519165 0,0.04 0.031671,0.026777 0.020671,0.054777 -0.016,0.042 -0.036637,0.201477 -0.019637,0.230477 a 0.268,0.268 0 0 0 0.01602,0.022738 0.067,0.067 0 0 0 -0.025322,0.045992 c -0.006,0.066 0.061221,0.1750017 0.022221,0.1850016 -0.027,0.008 -0.023288,0.029897 -0.024288,0.073897 a 4.6599998,4.6599998 0 0 0 0,0.3002401 c 0.005,0.047 -0.00475,0.09201 -0.00775,0.1390095 -0.007,0.102 -0.03828,0.2457511 -0.07028,0.2697511 a 0.147,0.147 0 0 1 -0.091984,0.027905 0.102,0.102 0 0 1 -0.07183,-0.038757 c -0.083,-0.1159999 -0.028182,-0.3119538 0.00982,-0.4609539 9.998e-4,-0.009 -0.014919,-0.016805 -0.012919,-0.024805 0.013,-0.047 0.056045,-0.066353 0.063045,-0.1033526 0.023,-0.1240001 -0.015051,-0.1421498 -0.094051,-0.1741498 -0.034,-0.014 -0.098842,-0.014805 -0.1338418,-0.024805 A 1.34,1.34 0 0 1 6.1701658,7.9989949 c 0,0 0.092594,-0.054079 0.1415937,-0.064079 0.048,-0.01 0.1463032,-0.049079 0.1943033,-0.064079 0.074,-0.024 0.071065,-0.062976 0.079065,-0.1379762 0.007,-0.069 -0.051361,-0.1437055 -0.057361,-0.2067057 -0.003,-0.035 0.037107,-0.011375 0.034106,-0.042375 -0.006,-0.062 0.024919,-0.2045417 0.012919,-0.3095419 -0.018,-0.1599999 -0.070582,-0.3404034 -0.079582,-0.4594034 -0.003,-0.052 -0.030308,-0.3099102 -0.040308,-0.5829102 -0.003,-0.09 0.00723,-0.1816838 0.00723,-0.267684 -0.002,-0.2399998 -0.042972,-0.4304506 -0.029972,-0.4454506 0.014,-0.017 0.02669,-0.023704 0.03669,-0.021704 z"
     id="path825"
     inkscape:connector-curvature="0" />
</svg>
