<?xml version="1.0" encoding="UTF-8" standalone="no"?>
<svg
   xmlns:dc="http://purl.org/dc/elements/1.1/"
   xmlns:cc="http://creativecommons.org/ns#"
   xmlns:rdf="http://www.w3.org/1999/02/22-rdf-syntax-ns#"
   xmlns:svg="http://www.w3.org/2000/svg"
   xmlns="http://www.w3.org/2000/svg"
   xmlns:xlink="http://www.w3.org/1999/xlink"
   xmlns:sodipodi="http://sodipodi.sourceforge.net/DTD/sodipodi-0.dtd"
   xmlns:inkscape="http://www.inkscape.org/namespaces/inkscape"
   width="48"
   height="48"
   viewBox="0 0 12.7 12.7"
   version="1.1"
   id="svg21"
   sodipodi:docname="offensive-security.svg"
   inkscape:version="0.92.5 (2060ec1f9f, 2020-04-08)">
  <metadata
     id="metadata25">
    <rdf:RDF>
      <cc:Work
         rdf:about="">
        <dc:format>image/svg+xml</dc:format>
        <dc:type
           rdf:resource="http://purl.org/dc/dcmitype/StillImage" />
        <dc:title></dc:title>
      </cc:Work>
    </rdf:RDF>
  </metadata>
  <sodipodi:namedview
     pagecolor="#ffffff"
     bordercolor="#666666"
     borderopacity="1"
     objecttolerance="10"
     gridtolerance="10"
     guidetolerance="10"
     inkscape:pageopacity="0"
     inkscape:pageshadow="2"
     inkscape:window-width="1366"
     inkscape:window-height="711"
     id="namedview23"
     showgrid="false"
     inkscape:zoom="10.75"
     inkscape:cx="24"
     inkscape:cy="24"
     inkscape:window-x="0"
     inkscape:window-y="25"
     inkscape:window-maximized="1"
     inkscape:current-layer="svg21" />
  <defs
     id="defs11">
    <linearGradient
       id="a"
       x1="29.088"
       x2="29.088"
       y1="2.582"
       y2="64.479"
       gradientUnits="userSpaceOnUse"
       gradientTransform="matrix(.61733 0 0 .61733 5.558 2.832)">
      <stop
         stop-color="#fd3535"
         offset="0"
         id="stop2" />
      <stop
         stop-color="#e43030"
         offset=".639"
         id="stop4" />
      <stop
         stop-color="#d41919"
         offset=".639"
         id="stop6" />
      <stop
         stop-color="#bf1717"
         offset="1"
         id="stop8" />
    </linearGradient>
    <linearGradient
       inkscape:collect="always"
       xlink:href="#a"
       id="linearGradient834"
       gradientUnits="userSpaceOnUse"
       gradientTransform="matrix(0.16333317,0,0,0.16333317,1.4705356,0.74929056)"
       x1="29.088"
       y1="2.582"
       x2="29.088"
       y2="64.479" />
  </defs>
  <path
     d="m 2.6114046,10.318091 a 5.4069569,5.4069569 0 0 0 0.2370637,0.221189 5.4069569,5.4069569 0 0 0 0.4304717,0.327021 5.4069569,5.4069569 0 0 0 0.4608983,0.282836 5.4069569,5.4069569 0 0 0 0.4862981,0.234947 5.4069569,5.4069569 0 0 0 0.5079936,0.185735 5.4069569,5.4069569 0 0 0 0.5233392,0.133084 5.4069569,5.4069569 0 0 0 0.5344516,0.08123 5.4069569,5.4069569 0 0 0 0.5397432,0.02699 5.4069569,5.4069569 0 0 0 0.3831119,-0.01349 5.4069569,5.4069569 0 0 0 0.5363036,-0.06509 5.4069569,5.4069569 0 0 0 0.5270434,-0.119061 5.4069569,5.4069569 0 0 0 0.5132852,-0.169861 5.4069569,5.4069569 0 0 0 0.4934417,-0.221189 5.4069569,5.4069569 0 0 0 0.4688357,-0.268813 5.4069569,5.4069569 0 0 0 0.4392028,-0.31485 5.4069569,5.4069569 0 0 0 0.3926367,-0.344483 L 8.1678492,7.5730733 8.1683784,1.3255458 A 5.4069569,5.4069569 0 0 0 7.9297272,1.2382344 5.4069569,5.4069569 0 0 0 7.4061234,1.1048861 5.4069569,5.4069569 0 0 0 6.8716718,1.02366 5.4069569,5.4069569 0 0 0 6.3319286,0.99693744 5.4069569,5.4069569 0 0 0 5.9493459,1.0101664 5.4069569,5.4069569 0 0 0 5.4130423,1.0752531 5.4069569,5.4069569 0 0 0 4.8854697,1.193785 5.4069569,5.4069569 0 0 0 4.5298742,1.3120522 V 7.6328684 L 2.6114046,10.318355 Z"
     id="path15"
     style="clip-rule:evenodd;opacity:0.7;fill:url(#linearGradient834);fill-rule:evenodd;stroke-width:0.26458001"
     inkscape:connector-curvature="0" />
  <path
     style="clip-rule:evenodd;fill:#a02c2c;fill-rule:evenodd;stroke-width:3.77952766"
     d="M 24 0.23046875 A 23.773228 23.773228 0 0 0 0.23046875 24 A 23.773228 23.773228 0 0 0 24 47.769531 A 23.773228 23.773228 0 0 0 47.769531 24 A 23.773228 23.773228 0 0 0 24 0.23046875 z M 23.931641 3.7675781 A 20.435906 20.435906 0 0 1 44.367188 24.203125 A 20.435906 20.435906 0 0 1 23.931641 44.640625 A 20.435906 20.435906 0 0 1 3.4960938 24.203125 A 20.435906 20.435906 0 0 1 23.931641 3.7675781 z "
     transform="scale(0.26458333)"
     id="path829" />
  <path
     style="clip-rule:evenodd;fill:#280b0b;fill-rule:evenodd;stroke-width:3.77952766"
     d="M 23.320312 6.3574219 C 23.029289 6.2591542 22.654655 6.6928968 22.548828 6.9121094 C 22.363631 7.274944 22.257454 8.1222263 22.363281 8.4472656 C 22.476667 8.7760845 22.763672 9.0294156 22.763672 9.3242188 C 22.763672 9.6152424 22.801475 9.8345577 22.472656 10.201172 C 22.151396 10.556447 21.48741 10.598282 20.878906 10.908203 A 0.29480315 0.29480315 0 0 0 20.757812 11.021484 C 20.523482 11.399437 20.519964 12.627921 20.474609 13.414062 C 20.459491 13.629496 20.49622 13.858786 20.5 14.074219 A 7.5212598 7.5212598 0 0 1 20.5 14.582031 C 20.484882 14.884393 20.416955 15.186046 20.386719 15.492188 A 1.4702362 1.4702362 0 0 0 20.417969 15.931641 L 20.625 16.849609 C 20.738386 17.340948 20.851279 17.83628 21.017578 18.3125 C 21.036476 18.365413 21.055955 18.417536 21.09375 18.462891 C 21.169341 18.54604 21.317494 18.537817 21.408203 18.617188 A 0.64251969 0.64251969 0 0 1 21.582031 18.886719 C 21.657622 19.090813 21.640953 19.313484 21.708984 19.517578 C 21.890402 20.06561 22.509989 22.510778 22.691406 23.53125 C 22.785894 24.060384 22.882201 25.228715 22.980469 26.283203 C 23.025823 26.751865 23.104403 27.197586 23.130859 27.556641 C 23.157316 27.957271 23.142451 28.26268 23.138672 28.349609 C 23.119774 28.659531 23.286297 28.399675 23.320312 28.611328 C 23.335431 28.694478 23.263523 28.761994 23.142578 28.886719 C 22.80998 29.226876 22.374397 29.578169 22.181641 29.8125 C 22.015341 30.024154 21.852315 30.239116 22.166016 30.322266 A 0.25700787 0.25700787 0 0 0 22.117188 30.503906 C 22.136085 30.670205 22.234651 30.719458 22.359375 30.798828 C 22.529454 30.912214 22.94866 31.108331 22.990234 31.251953 C 23.009132 31.316205 22.923247 31.26362 22.847656 31.320312 C 22.824979 31.335431 22.719563 31.603463 22.685547 31.660156 A 8.5190551 8.5190551 0 0 0 22.238281 32.402344 A 3.3033071 3.3033071 0 0 1 21.898438 32.957031 C 21.437335 33.535299 21.00747 34.147788 20.53125 34.710938 A 0.83149606 0.83149606 0 0 1 20.058594 34.964844 L 19.894531 34.994141 A 0.75590551 0.75590551 0 0 0 19.650391 35.099609 C 19.627713 35.114727 18.779864 35.978127 18.447266 36.257812 A 0.33637795 0.33637795 0 0 0 18.333984 36.476562 C 18.322646 36.552153 18.34205 36.601764 18.349609 36.666016 A 1.368189 1.368189 0 0 1 18.277344 37.277344 C 18.250887 37.352934 18.202238 37.424283 18.175781 37.496094 A 1.5647244 1.5647244 0 0 0 18.099609 37.826172 C 18.058035 38.068062 18.005226 38.301079 17.986328 38.542969 A 1.2661417 1.2661417 0 0 0 18.017578 39.003906 C 18.036476 39.079497 18.074673 39.152291 18.146484 39.208984 C 18.222075 39.261898 18.652366 39.31458 18.769531 39.318359 C 19.17772 39.333477 19.622681 39.337078 20.019531 39.371094 C 20.333232 39.39755 20.659768 39.427429 20.939453 39.476562 A 3.3751181 3.3751181 0 0 1 21.833984 39.771484 C 22.03052 39.869752 22.083298 39.998449 22.121094 40.126953 C 22.158889 40.263016 22.023415 40.467125 21.90625 40.535156 C 21.8231 40.580511 21.253124 40.852017 21.113281 40.923828 A 1.4211024 1.4211024 0 0 0 20.597656 41.439453 A 1.8103937 1.8103937 0 0 0 20.605469 42.402344 C 20.688618 42.629115 20.829616 42.814043 21.048828 42.976562 A 3.3259843 3.3259843 0 0 0 22.730469 43.509766 C 22.824957 43.509766 23.233279 43.487215 23.433594 43.513672 C 23.535641 43.52879 23.667484 43.558974 23.769531 43.570312 A 3.1710236 3.1710236 0 0 0 24.619141 43.601562 C 24.959298 43.556208 25.337756 43.44983 25.625 43.351562 A 3.1332283 3.1332283 0 0 0 26.558594 42.859375 C 26.838279 42.636383 26.875813 42.458612 26.841797 42.15625 C 26.811561 41.853888 26.211527 41.222739 25.996094 40.992188 C 25.829795 40.818329 25.364347 40.384818 25.337891 40.328125 C 25.315213 40.271432 25.311941 40.269964 25.353516 40.224609 C 25.39509 40.175476 26.306126 39.750179 26.582031 39.697266 C 26.706756 39.670809 28.308861 39.620207 28.724609 39.59375 C 29.026972 39.571073 29.537713 39.500642 29.730469 39.228516 A 2.2790551 2.2790551 0 0 0 30.009766 38.085938 C 29.964411 37.878063 29.718645 37.017049 29.832031 36.884766 C 29.941638 36.756262 29.964717 36.70607 29.960938 36.619141 C 29.953378 36.520873 29.895977 36.317323 29.880859 36.169922 C 29.865741 36.018741 29.768517 35.783613 29.738281 35.621094 C 29.700486 35.462354 29.541732 35.199472 29.330078 35.207031 C 29.103306 35.225929 29.139895 35.311337 28.943359 35.160156 A 2.1354331 2.1354331 0 0 1 28.388672 34.507812 C 28.256388 34.250805 27.83637 33.485926 27.791016 33.357422 C 27.75322 33.244036 27.551847 32.738259 27.525391 32.621094 A 6.6255118 6.6255118 0 0 1 27.466797 31.800781 C 27.466797 31.611805 27.353411 31.461497 27.466797 31.419922 C 27.580183 31.382127 27.897118 31.173277 27.916016 30.923828 A 0.28346457 0.28346457 0 0 0 27.84375 30.697266 A 0.41952756 0.41952756 0 0 0 27.919922 30.535156 C 27.995512 30.240353 27.431999 29.471852 27.326172 29.214844 C 27.277038 29.101458 27.215984 28.909881 27.25 28.785156 C 27.257559 28.747361 27.311687 28.789495 27.345703 28.744141 A 1.9011024 1.9011024 0 0 0 27.310547 28.162109 A 15.216378 15.216378 0 0 1 27.140625 26.876953 C 27.133066 26.631284 27.088703 25.168663 27.054688 24.839844 C 27.016892 24.511025 26.807654 23.024013 26.837891 22.400391 C 26.909702 21.145587 26.838472 18.454855 26.914062 18.273438 C 26.985874 18.088241 27.2763 18.159933 27.419922 17.978516 C 27.567323 17.797098 27.534344 17.688194 27.568359 17.359375 A 3.2655118 3.2655118 0 0 0 27.458984 16.300781 A 2.9480315 2.9480315 0 0 1 27.458984 15.314453 C 27.49678 14.985634 27.200949 14.910746 27.019531 14.695312 C 26.838114 14.4761 27.058012 12.97508 26.982422 12.464844 L 26.955078 12.275391 A 25.587402 25.587402 0 0 0 26.773438 11.308594 C 26.728083 11.093161 26.698637 10.854485 26.623047 10.650391 C 26.502102 10.302674 25.987782 10.256724 25.681641 10.166016 A 24.15874 24.15874 0 0 0 24.767578 9.90625 C 24.620177 9.8684547 24.18428 9.5056361 24.146484 9.3242188 C 24.108689 9.1390219 24.838577 8.0814659 24.800781 7.4238281 A 1.2094488 1.2094488 0 0 0 24.302734 6.5722656 A 1.1111811 1.1111811 0 0 0 23.955078 6.3769531 C 23.784999 6.3278193 23.648848 6.4637032 23.486328 6.4296875 C 23.425856 6.4183489 23.373226 6.3763195 23.320312 6.3574219 z M 24.449219 20.398438 L 24.453125 20.398438 C 24.49092 20.405997 24.526278 20.447467 24.552734 20.511719 C 24.601868 20.647782 24.809354 21.532636 24.832031 21.865234 C 24.869827 22.364132 25.05834 23.501028 25.050781 23.939453 C 25.039443 24.374099 25.255554 25.817084 25.304688 26.070312 C 25.357601 26.323541 25.395418 26.721478 25.421875 27.152344 C 25.452111 27.57943 25.421622 28.104469 25.414062 28.482422 C 25.414062 28.633603 25.533762 28.583626 25.492188 28.689453 C 25.431715 28.848193 25.353717 29.450941 25.417969 29.560547 A 1.0129134 1.0129134 0 0 0 25.478516 29.646484 A 0.25322835 0.25322835 0 0 0 25.382812 29.820312 C 25.360135 30.069761 25.614198 30.481736 25.466797 30.519531 C 25.36475 30.549767 25.37878 30.632529 25.375 30.798828 A 17.612598 17.612598 0 0 0 25.375 31.933594 C 25.393898 32.111232 25.357042 32.281347 25.345703 32.458984 C 25.319246 32.844496 25.201023 33.387807 25.080078 33.478516 A 0.55559055 0.55559055 0 0 1 24.732422 33.583984 A 0.38551181 0.38551181 0 0 1 24.460938 33.4375 C 24.147237 32.999075 24.354425 32.258462 24.498047 31.695312 C 24.501826 31.661297 24.44166 31.631799 24.449219 31.601562 C 24.498353 31.423925 24.661043 31.35078 24.6875 31.210938 C 24.774429 30.742276 24.630614 30.673679 24.332031 30.552734 C 24.203527 30.499821 23.958455 30.49678 23.826172 30.458984 A 5.0645669 5.0645669 0 0 1 23.320312 30.232422 C 23.320312 30.232422 23.670272 30.02803 23.855469 29.990234 C 24.036886 29.952439 24.408426 29.80474 24.589844 29.748047 C 24.869529 29.657338 24.858436 29.510027 24.888672 29.226562 C 24.915129 28.965775 24.694552 28.683423 24.671875 28.445312 C 24.660536 28.313029 24.81212 28.402322 24.800781 28.285156 C 24.778104 28.050826 24.894964 27.512085 24.849609 27.115234 C 24.781578 26.51051 24.582844 25.82867 24.548828 25.378906 C 24.53749 25.182371 24.43428 24.207592 24.396484 23.175781 C 24.385146 22.835624 24.423828 22.489102 24.423828 22.164062 C 24.416269 21.256976 24.261413 20.537162 24.310547 20.480469 C 24.36346 20.416217 24.411423 20.390878 24.449219 20.398438 z "
     transform="scale(0.26458333)"
     id="path825" />
</svg>
