<?xml version="1.0" encoding="UTF-8" standalone="no"?>
<svg
   xmlns:dc="http://purl.org/dc/elements/1.1/"
   xmlns:cc="http://creativecommons.org/ns#"
   xmlns:rdf="http://www.w3.org/1999/02/22-rdf-syntax-ns#"
   xmlns:svg="http://www.w3.org/2000/svg"
   xmlns="http://www.w3.org/2000/svg"
   xmlns:sodipodi="http://sodipodi.sourceforge.net/DTD/sodipodi-0.dtd"
   xmlns:inkscape="http://www.inkscape.org/namespaces/inkscape"
   width="48"
   height="48"
   viewBox="0 0 12.7 12.7"
   version="1.1"
   id="svg4"
   sodipodi:docname="preferences-system-network-ldap.svg"
   inkscape:version="0.92.4 (5da689c313, 2019-01-14)">
  <metadata
     id="metadata10">
    <rdf:RDF>
      <cc:Work
         rdf:about="">
        <dc:format>image/svg+xml</dc:format>
        <dc:type
           rdf:resource="http://purl.org/dc/dcmitype/StillImage" />
        <dc:title></dc:title>
      </cc:Work>
    </rdf:RDF>
  </metadata>
  <defs
     id="defs8" />
  <sodipodi:namedview
     pagecolor="#ffffff"
     bordercolor="#666666"
     borderopacity="1"
     objecttolerance="10"
     gridtolerance="10"
     guidetolerance="10"
     inkscape:pageopacity="0"
     inkscape:pageshadow="2"
     inkscape:window-width="1109"
     inkscape:window-height="480"
     id="namedview6"
     showgrid="false"
     inkscape:zoom="4.9166667"
     inkscape:cx="2.1355932"
     inkscape:cy="24"
     inkscape:window-x="0"
     inkscape:window-y="25"
     inkscape:window-maximized="0"
     inkscape:current-layer="svg4" />
  <path
     d="M 6.34,0.07 A 6.29,6.29 0 0 0 0.04999997,6.37 6.29,6.29 0 0 0 6.35,12.65 6.29,6.29 0 0 0 12.63,6.36 6.29,6.29 0 0 0 6.34,0.07 Z M 6.32,1 6.33,1.01 a 5.4,5.4 0 0 1 5.4,5.4 5.4,5.4 0 0 1 -5.4,5.41 A 5.4,5.4 0 0 1 0.91999997,6.42 5.4,5.4 0 0 1 6.32,1 Z M 3.53,2.43 a 0.4,0.4 0 0 0 -0.4,0.4 V 3.4 h 0.53 a 0.37,0.37 0 1 1 0,0.74 H 3.13 v 0.55 h 0.53 a 0.37,0.37 0 1 1 0,0.74 H 3.13 v 0.55 h 0.53 a 0.37,0.37 0 0 1 0,0.74 H 3.13 v 0.55 h 0.53 a 0.37,0.37 0 0 1 0,0.74 H 3.13 v 0.55 h 0.53 a 0.37,0.37 0 0 1 0,0.74 H 3.13 v 0.74 c 0,0.22 0.19,0.4 0.4,0.4 h 5.63 a 0.4,0.4 0 0 0 0.4,-0.4 V 2.83 a 0.4,0.4 0 0 0 -0.4,-0.4 z m 1.06,0.56 h 2.59 l 1,0.01 h 0.46 c 0.18,0 0.33,0.16 0.33,0.35 v 6.19 c 0,0.19 -0.15,0.34 -0.33,0.34 H 4.59 Z M 2.84,3.47 a 0.3,0.3 0 1 0 0,0.6 h 0.8 a 0.3,0.3 0 0 0 0,-0.6 z m 3.938,0.638 c -0.586,0 -1.058,0.472 -1.058,1.058 0,0.586 0.472,1.058 1.058,1.058 0.587,0 1.059,-0.472 1.059,-1.058 0,-0.586 -0.472,-1.058 -1.059,-1.058 z m 0,2.116 A 1.848,1.848 0 0 0 4.926,8.077 H 8.63 A 1.848,1.848 0 0 0 6.778,6.224 Z M 2.85,4.77 a 0.3,0.3 0 1 0 0,0.6 h 0.79 a 0.3,0.3 0 1 0 0,-0.6 z m 0,1.27 a 0.3,0.3 0 1 0 0,0.6 h 0.79 a 0.3,0.3 0 1 0 0,-0.6 z m 0,1.3 a 0.3,0.3 0 1 0 0,0.6 h 0.79 a 0.3,0.3 0 1 0 0,-0.6 z M 2.83,8.62 a 0.3,0.3 0 0 0 0,0.6 h 0.8 a 0.3,0.3 0 1 0 0,-0.6 z"
     id="path2"
     inkscape:connector-curvature="0"
     style="fill:#a02c2c" />
</svg>
