<?xml version="1.0" encoding="UTF-8" standalone="no"?>
<svg
   xmlns:dc="http://purl.org/dc/elements/1.1/"
   xmlns:cc="http://creativecommons.org/ns#"
   xmlns:rdf="http://www.w3.org/1999/02/22-rdf-syntax-ns#"
   xmlns:svg="http://www.w3.org/2000/svg"
   xmlns="http://www.w3.org/2000/svg"
   xmlns:sodipodi="http://sodipodi.sourceforge.net/DTD/sodipodi-0.dtd"
   xmlns:inkscape="http://www.inkscape.org/namespaces/inkscape"
   width="48"
   height="48"
   viewBox="0 0 12.7 12.7"
   version="1.1"
   id="svg4"
   sodipodi:docname="preferences-desktop-theme-applications.svg"
   inkscape:version="0.92.4 (5da689c313, 2019-01-14)">
  <metadata
     id="metadata10">
    <rdf:RDF>
      <cc:Work
         rdf:about="">
        <dc:format>image/svg+xml</dc:format>
        <dc:type
           rdf:resource="http://purl.org/dc/dcmitype/StillImage" />
        <dc:title></dc:title>
      </cc:Work>
    </rdf:RDF>
  </metadata>
  <defs
     id="defs8" />
  <sodipodi:namedview
     pagecolor="#ffffff"
     bordercolor="#666666"
     borderopacity="1"
     objecttolerance="10"
     gridtolerance="10"
     guidetolerance="10"
     inkscape:pageopacity="0"
     inkscape:pageshadow="2"
     inkscape:window-width="1087"
     inkscape:window-height="480"
     id="namedview6"
     showgrid="false"
     inkscape:zoom="4.9166667"
     inkscape:cx="2.1355932"
     inkscape:cy="24"
     inkscape:window-x="0"
     inkscape:window-y="25"
     inkscape:window-maximized="0"
     inkscape:current-layer="svg4" />
  <path
     d="M 6.34,0.07 A 6.29,6.29 0 0 0 0.05,6.37 6.29,6.29 0 0 0 6.35,12.65 6.29,6.29 0 0 0 12.63,6.36 6.29,6.29 0 0 0 6.34,0.07 Z M 6.33,1.01 a 5.4,5.4 0 0 1 5.4,5.4 5.4,5.4 0 0 1 -5.4,5.41 A 5.4,5.4 0 0 1 0.92,6.42 5.4,5.4 0 0 1 6.32,1 Z M 3.4,2.87 c -0.2,0 -0.36,0.18 -0.36,0.4 v 0.8 c 0,0.22 0.16,0.4 0.36,0.4 h 5.9 c 0.2,0 0.36,-0.18 0.36,-0.4 V 3.27 C 9.66,3.05 9.5,2.87 9.3,2.87 Z m 0.19,0.24 h 3.75 v 1.1 H 3.59 C 3.41,4.21 3.26,4.08 3.26,3.93 V 3.38 C 3.26,3.23 3.41,3.11 3.59,3.11 Z M 7.87,3.3 h 1.2 l -0.6,0.8 z m 0.6,1.95 a 1.065,1.065 0 1 0 0,2.13 1.065,1.065 0 0 0 0,-2.13 z m -4.93,0 C 3.16,5.24 3.17,5.55 3.17,5.55 V 7 c -0.02,0.35 0.3,0.36 0.3,0.36 h 1.5 c 0,0 0.34,0.02 0.33,-0.35 V 5.61 C 5.3,5.26 4.93,5.26 4.93,5.26 h -1.4 z m 1.33,0.58 c 0.03,0 0.06,0.02 0.09,0.04 L 4.98,5.9 C 5.02,5.95 5.02,6.03 4.96,6.08 L 4.16,6.77 A 0.13,0.13 0 0 1 4.06,6.8 0.13,0.13 0 0 1 3.97,6.76 L 3.5,6.3 a 0.13,0.13 0 0 1 0,-0.2 L 3.51,6.09 a 0.14,0.14 0 0 1 0.2,0 l 0.37,0.37 0.7,-0.6 A 0.13,0.13 0 0 1 4.87,5.83 Z m 4.23,0 c 0.03,0 0.07,0.02 0.09,0.04 L 9.21,5.9 C 9.26,5.95 9.25,6.03 9.2,6.08 L 8.4,6.77 A 0.13,0.13 0 0 1 8.3,6.8 0.13,0.13 0 0 1 8.2,6.76 L 7.73,6.3 a 0.13,0.13 0 0 1 0,-0.2 L 7.75,6.09 a 0.14,0.14 0 0 1 0.19,0 L 8.32,6.46 9.01,5.86 A 0.13,0.13 0 0 1 9.1,5.83 Z M 8.47,7.9 a 1.06,1.06 0 1 0 0,2.12 1.06,1.06 0 0 0 0,-2.12 z m -4.93,0 C 3.16,7.88 3.17,8.2 3.17,8.2 v 1.45 c -0.02,0.36 0.3,0.37 0.3,0.37 h 1.5 c 0,0 0.34,0.02 0.33,-0.35 V 8.25 C 5.31,7.91 4.93,7.91 4.93,7.91 L 3.53,7.9 Z m 4.93,0.26 a 0.8,0.8 0 1 1 0,1.6 0.8,0.8 0 0 1 0,-1.6 z m -4.76,0 1.05,0.01 c 0,0 0.28,0 0.27,0.26 V 9.49 C 5.05,9.77 4.79,9.76 4.79,9.76 H 3.66 c 0,0 -0.24,-0.01 -0.23,-0.28 v -1.1 c 0,0 0,-0.23 0.28,-0.22 z"
     id="path2"
     inkscape:connector-curvature="0"
     style="fill:#a02c2c" />
</svg>
