<svg xmlns="http://www.w3.org/2000/svg" width="48" height="48" viewBox="0 0 12.7 12.7"><path d="M6.344.073a6.29 6.29 0 0 0-6.29 6.29 6.29 6.29 0 0 0 6.29 6.289 6.29 6.29 0 0 0 6.29-6.29A6.29 6.29 0 0 0 6.344.073zm-.018.936a5.407 5.407 0 0 1 5.407 5.407 5.407 5.407 0 0 1-5.407 5.407A5.407 5.407 0 0 1 .919 6.416a5.407 5.407 0 0 1 5.407-5.407z" fill="#a02c2c"/><g transform="scale(-1 1)" color="#000"><circle cx="-8.136" cy="7.796" r="2.679" overflow="visible" style="marker:none" opacity=".6" fill="#0ff"/><circle cx="-4.564" cy="7.796" r="2.679" overflow="visible" style="marker:none" opacity=".4" fill="#f0f"/><circle cx="-6.31" cy="4.213" r="2.679" overflow="visible" style="marker:none" opacity=".6" fill="#ff0"/></g></svg>