<svg xmlns="http://www.w3.org/2000/svg" width="48" height="48" viewBox="0 0 12.7 12.7"><path d="M6.344.072a6.29 6.29 0 0 0-6.29 6.29 6.29 6.29 0 0 0 6.29 6.289 6.29 6.29 0 0 0 6.29-6.29 6.29 6.29 0 0 0-6.29-6.29zm-.018.937a5.407 5.407 0 0 1 5.407 5.407 5.407 5.407 0 0 1-5.407 5.407A5.407 5.407 0 0 1 .92 6.416 5.407 5.407 0 0 1 6.326 1.01zM5.22 3.026c-.123 0-.222.099-.222.222v2.229c0 .123.099.222.222.222h2.228c.124 0 .223-.099.223-.222V3.248c0-.123-.1-.222-.223-.222H5.22zM2.34 5.942c-.124 0-.223.1-.223.223v2.228c0 .124.099.223.222.223h2.229c.123 0 .222-.1.222-.223V6.165c0-.123-.099-.223-.222-.223H2.339zm2.896 0c-.124 0-.223.1-.223.223v2.228c0 .124.1.223.223.223h2.228c.124 0 .223-.1.223-.223V6.165c0-.123-.1-.223-.223-.223H5.236zm2.896 0c-.123 0-.222.1-.222.223v2.228c0 .124.099.223.222.223h2.229c.123 0 .222-.1.222-.223V6.165c0-.123-.099-.223-.222-.223H8.132z" fill="#a02c2c"/></svg>