<svg xmlns="http://www.w3.org/2000/svg" width="48" height="48" viewBox="0 0 12.7 12.7"><path d="M6.34.07a6.29 6.29 0 0 0-6.29 6.3 6.29 6.29 0 0 0 6.3 6.28 6.29 6.29 0 0 0 6.28-6.29A6.29 6.29 0 0 0 6.34.07zM6.32 1l.01.01a5.4 5.4 0 0 1 5.4 5.4 5.4 5.4 0 0 1-5.4 5.41 5.4 5.4 0 0 1-5.41-5.4A5.4 5.4 0 0 1 6.32 1zM4.096 3.175l-.177.5 3.627 1.087h-4.9v4.763h7.408V4.762H9.53l-.987-.253-4.447-1.334zm-.392 2.646h2.117v.529H3.704v-.53zm3.969 0a1.323 1.323 0 0 1 1.323 1.323 1.323 1.323 0 0 1-1.323 1.323A1.323 1.323 0 0 1 6.35 7.144 1.323 1.323 0 0 1 7.673 5.82zM3.704 6.879h2.117v.53H3.704v-.53zm0 1.058h2.117v.53H3.704v-.53z" fill="#a02c2c"/></svg>
