<?xml version="1.0" encoding="UTF-8" standalone="no"?>
<svg
   xmlns:dc="http://purl.org/dc/elements/1.1/"
   xmlns:cc="http://creativecommons.org/ns#"
   xmlns:rdf="http://www.w3.org/1999/02/22-rdf-syntax-ns#"
   xmlns:svg="http://www.w3.org/2000/svg"
   xmlns="http://www.w3.org/2000/svg"
   xmlns:sodipodi="http://sodipodi.sourceforge.net/DTD/sodipodi-0.dtd"
   xmlns:inkscape="http://www.inkscape.org/namespaces/inkscape"
   width="48"
   height="48"
   viewBox="0 0 12.7 12.7"
   version="1.1"
   id="svg6"
   sodipodi:docname="reaver.svg"
   inkscape:version="0.92.5 (2060ec1f9f, 2020-04-08)">
  <metadata
     id="metadata12">
    <rdf:RDF>
      <cc:Work
         rdf:about="">
        <dc:format>image/svg+xml</dc:format>
        <dc:type
           rdf:resource="http://purl.org/dc/dcmitype/StillImage" />
        <dc:title></dc:title>
      </cc:Work>
    </rdf:RDF>
  </metadata>
  <defs
     id="defs10" />
  <sodipodi:namedview
     pagecolor="#ffffff"
     bordercolor="#666666"
     borderopacity="1"
     objecttolerance="10"
     gridtolerance="10"
     guidetolerance="10"
     inkscape:pageopacity="0"
     inkscape:pageshadow="2"
     inkscape:window-width="1085"
     inkscape:window-height="480"
     id="namedview8"
     showgrid="false"
     inkscape:zoom="4.9166667"
     inkscape:cx="2.1355932"
     inkscape:cy="24"
     inkscape:window-x="0"
     inkscape:window-y="25"
     inkscape:window-maximized="0"
     inkscape:current-layer="svg6" />
  <path
     d="m 6.344,0.07 v 0.002 a 6.29,6.29 0 0 0 -6.29,6.29 6.29,6.29 0 0 0 6.29,6.289 6.29,6.29 0 0 0 6.29,-6.29 A 6.29,6.29 0 0 0 6.344,0.07 Z M 6.326,1.01 A 5.407,5.407 0 0 1 11.733,6.416 5.407,5.407 0 0 1 6.326,11.823 5.407,5.407 0 0 1 0.92,6.416 5.407,5.407 0 0 1 6.326,1.01 Z"
     id="path2"
     inkscape:connector-curvature="0"
     style="fill:#a02c2c" />
  <path
     d="M 6.326,1.538 A 4.878,4.878 0 0 0 1.45,6.417 4.878,4.878 0 0 0 5.984,11.277 V 7.303 A 0.918,0.918 0 0 1 5.434,6.461 0.918,0.918 0 0 1 6.352,5.543 0.918,0.918 0 0 1 7.27,6.461 0.918,0.918 0 0 1 6.719,7.303 v 3.974 A 4.878,4.878 0 0 0 11.205,6.417 4.878,4.878 0 0 0 6.327,1.539 Z m 1.852,1.637 a 3.673,3.673 0 0 1 2.03,3.286 3.673,3.673 0 0 1 -2.033,3.28 L 7.849,9.088 A 2.938,2.938 0 0 0 9.473,6.46 2.938,2.938 0 0 0 7.85,3.835 L 8.179,3.176 V 3.175 Z M 4.528,3.179 V 3.18 L 4.853,3.832 A 2.938,2.938 0 0 0 3.23,6.46 2.938,2.938 0 0 0 4.854,9.087 L 4.526,9.745 A 3.673,3.673 0 0 1 2.496,6.46 3.673,3.673 0 0 1 4.527,3.18 Z M 7.52,4.49 A 2.204,2.204 0 0 1 8.74,6.46 2.204,2.204 0 0 1 7.52,8.428 L 7.192,7.774 A 1.47,1.47 0 0 0 8.005,6.46 1.47,1.47 0 0 0 7.192,5.148 L 7.521,4.49 Z M 5.183,4.492 5.51,5.146 A 1.47,1.47 0 0 0 4.7,6.459 1.47,1.47 0 0 0 5.512,7.773 L 5.184,8.431 a 2.204,2.204 0 0 1 -1.22,-1.97 2.204,2.204 0 0 1 1.221,-1.97 z"
     id="path4"
     inkscape:connector-curvature="0"
     style="opacity:0.75;fill:#ff2a2a" />
</svg>
