<svg xmlns="http://www.w3.org/2000/svg" width="48" height="48" viewBox="0 0 12.7 12.7"><path fill="#a02c2c" d="M6.344.073a6.29 6.29 0 0 0-6.29 6.29 6.29 6.29 0 0 0 6.29 6.288 6.29 6.29 0 0 0 6.29-6.289 6.29 6.29 0 0 0-6.29-6.29zm-.018.936a5.407 5.407 0 0 1 5.407 5.407 5.407 5.407 0 0 1-5.407 5.407A5.407 5.407 0 0 1 .92 6.416 5.407 5.407 0 0 1 6.326 1.01zm.033.64a2.294 2.294 0 1 0 0 4.588 2.294 2.294 0 0 0 0-4.589zm0 .124A2.17 2.17 0 0 1 8.523 3.95a2.17 2.17 0 0 1-2.164 2.177A2.17 2.17 0 0 1 4.195 3.95 2.17 2.17 0 0 1 6.36 1.773zm.026.395l-.241.027-.247.068.054-.02-.032-.055-.104.015-.049.05-.08.01-.072.035-.036.016-.008.011-.05.013-.032.064-.04-.082-.016.036.008.091-.065.055-.04.1h.08l.041-.091.104-.073.08.027.161.11.08-.073-.088-.037-.04-.081-.152-.019-.003-.015.064.011.04-.037.08-.018c.018-.009.038-.014.056-.02l-.047.046.185.127v.073l-.072.072.096.191.064-.036.08-.128a2.76 2.76 0 0 0 .33-.125l-.008.048.057.037.096-.064-.048-.055-.064.037-.025-.007.015-.006.097-.245-.209-.083zm-1.135.146l-.038.09-.079.015a2.021 2.021 0 0 0-.722 1.31 1.1 1.1 0 0 0 .07.116l.159.09.158.04.067.08.106.073.06-.008.045.02v.012l-.06.154-.045.065.015.032-.037.122.135.235.136.113.06.081-.007.17.045.097-.045.187s-.004-.001.002.018c.005.018.24.142.256.132l.028-.02-.015-.041.06-.057.023-.056.098-.033.075-.178-.023-.049.053-.073.113-.024.06-.13-.015-.161.09-.122.016-.121a23.71 23.71 0 0 1-.37-.178l-.06-.114-.113-.024-.06-.153-.15.016-.129-.09-.135.114v.018c-.041-.011-.092-.013-.128-.034l-.031-.081v-.09l-.09.008.022-.17h-.052l-.053.065-.053.024-.075-.04-.007-.09.015-.096.113-.081h.09l.015-.049.113.025.083.097.015-.162.144-.114.052-.121.106-.04.06-.082.136-.024.068-.097h-.204l.128-.057h.09l.128-.04.015-.049-.045-.04-.053-.017.016-.048-.038-.073-.09.032.01-.047h.014v-.064l-.08-.037-.065.046.013.009-.066.11.008.048-.083.032-.053.105-.023-.097-.143-.057-.023-.073.189-.105.083-.072.007-.09-.045-.024-.06-.008zm2.025.04l-.14.034-.089.059v.05l-.14.091.03.134.081-.058.052.058.059.033.037-.1-.022-.058.022-.042.081-.075h.037l-.037.084v.075c.034-.01.068-.013.103-.017l-.096.067-.007.042-.11.092-.111-.026v-.066l-.052.033.022.059h-.081l-.044.074-.055.063-.1.021.059.059.015.058h-.074l-.096.05v.15h.044l.041.046.092-.046.037-.091.066-.042.015-.034.11-.025.06.067.066.034-.037.074.06-.016.029-.076-.074-.083h.03l.073.059.015.083.066.075.015-.108.037-.017c.036.038.065.083.095.125l.112.008.066.042-.03.041-.066.059h-.096l-.126-.042-.066.009-.048.054-.136-.138-.096-.025-.14.017-.126.033c-.07.08-.14.16-.206.242l-.081.192.036.042-.066.1.074.175.188.213.092-.08.04.047.1-.063.033.038h.1l.058.064-.036.115.07.08-.003.137.052.1-.038.084a3.064 3.064 0 0 0-.007.183l.089.25.022.134v.067h.052l.08-.05h.096l.144-.163-.018-.054.096-.083-.07-.08.084-.07.082-.05.037-.043-.022-.091v-.234l.066-.142.08-.092.09-.217v-.058c-.043.005-.084.006-.126.01l.085-.085.121-.084.067-.075v-.083l-.044-.084-.06.067-.043-.05-.067-.05v-.11l.078.088.084-.013c.039.036.077.07.11.109l.056-.063c0-.066-.075-.393-.237-.67-.162-.277-.445-.53-.445-.53l-.022.036-.074.083-.096-.1h.096l.044-.05-.177-.033-.096-.033zm-.6.346v.054l.033.037v.081l-.016.11.088-.019.064-.063-.056-.055a1.619 1.619 0 0 0-.064-.145h-.048zm-.073.109l-.056.018.016.1.072-.037-.032-.081zm-.922.226l.025.127.048-.073-.073-.054zm1.934.538l.085.097.1.212.058.067-.03.075.055.061c-.025.002-.05.006-.076.006a2.884 2.884 0 0 1-.118-.3l-.063-.072-.033-.12.022-.026zM4.963 6.451c-.434.003-.857.196-1.178.377-.187.115-.202.163-.205.393l-.014 3.115c.002.105.034.223.144.163a1.98 1.98 0 0 1 .102-.067c1.141-.7 2.1-.202 2.43.62l-.04-3.838c-.36-.579-.805-.766-1.239-.763zm2.773 0c-.433-.003-.877.184-1.239.763l-.038 3.838c.33-.822 1.288-1.32 2.429-.62l.103.067c.11.06.14-.058.142-.163L9.12 7.22c-.003-.23-.017-.278-.205-.393-.32-.181-.744-.374-1.178-.377z"/></svg>