<svg xmlns="http://www.w3.org/2000/svg" width="48" height="48" viewBox="0 0 12.7 12.7"><path fill="#a02c2c" d="M6.344.073a6.29 6.29 0 0 0-6.29 6.29 6.29 6.29 0 0 0 6.29 6.288 6.29 6.29 0 0 0 6.29-6.289 6.29 6.29 0 0 0-6.29-6.29zm-.018.936a5.407 5.407 0 0 1 5.407 5.407 5.407 5.407 0 0 1-5.407 5.407A5.407 5.407 0 0 1 .92 6.416 5.407 5.407 0 0 1 6.326 1.01zM4.708 2.144c-.194-.019-.09.21-.116.33-.002 1.673.004 3.347-.003 5.02-.03.16-.217.13-.33.1-.708-.063-1.497.427-1.598 1.168-.105.558.462 1.038.99.984.726-.041 1.31-.777 1.212-1.499.002-1.353-.003-2.707.003-4.06.024-.148.217-.158.306-.062.668.384 1.268 1.023 1.321 1.83.03.16-.022.557-.01.562.234-.872-.008-1.874-.673-2.495-.478-.51-.9-1.175-.981-1.859a.266.266 0 0 0-.12-.02zM8.673 3.62L7.05 5.244h.928V7.56h-.927l1.623 1.623 1.623-1.623H9.37V6.17h-.001v-.926h.928L8.673 3.62z"/></svg>