<svg xmlns="http://www.w3.org/2000/svg" width="48" height="48" viewBox="0 0 12.7 12.7"><path fill="#a02c2c" d="M6.34.07a6.29 6.29 0 0 0-6.29 6.3 6.29 6.29 0 0 0 6.3 6.28 6.29 6.29 0 0 0 6.28-6.29A6.29 6.29 0 0 0 6.34.07zm-.01.94a5.4 5.4 0 0 1 5.4 5.4 5.4 5.4 0 0 1-5.4 5.41 5.4 5.4 0 0 1-5.41-5.4A5.4 5.4 0 0 1 6.32 1zM5.1 2.47a.47.47 0 0 0-.47.48v.75h.94v-.75a.47.47 0 0 0-.47-.48zm3.99 0a.47.47 0 0 0-.47.48v.75h.94v-.75a.47.47 0 0 0-.47-.48zM3.34 3.91V5.2h.01v1.6a2.06 2.06 0 0 0-1.18 1.86 2.06 2.06 0 0 0 2.05 2.05 2.06 2.06 0 0 0 1.6-.77h3.51c.43 0 .79-.14 1.09-.41.3-.28.45-.61.45-1V3.9zm.7 1.29h6.15v3.33a.73.73 0 0 1-.25.55.86.86 0 0 1-.6.23H6.16a2.06 2.06 0 0 0 .1-.65 2.06 2.06 0 0 0 0-.16h.57v-.3h-.61a2.06 2.06 0 0 0-.16-.44l.21-.22.27-.29c.1-.13.18-.24.22-.33a.76.76 0 0 0 .06-.3.66.66 0 0 0-.24-.53.95.95 0 0 0-.63-.2c-.1 0-.22.01-.34.04a2.76 2.76 0 0 0-.39.13v.35a2.08 2.08 0 0 1 .39-.17c.12-.04.23-.06.34-.06.16 0 .28.04.37.13a.43.43 0 0 1 .15.33.56.56 0 0 1-.07.26 1.6 1.6 0 0 1-.23.31l-.27.28a2.06 2.06 0 0 0-1.69-.89 2.06 2.06 0 0 0-.19 0zm4.15.74l-.61.12v.32l.62-.13V8.2h-.57v.3h1.48v-.3h-.57V5.94zm-4.21.68a2.06 2.06 0 0 0-.07 0 2.06 2.06 0 0 1 .07 0zm-.23.04a2.06 2.06 0 0 0-.03 0 2.06 2.06 0 0 1 .03 0zm.47.25a1.77 1.77 0 0 1 1.76 1.76 1.77 1.77 0 0 1-1.76 1.77 1.77 1.77 0 0 1-1.77-1.77 1.77 1.77 0 0 1 1.77-1.76zm.86.95a.15.15 0 0 0-.02 0 .15.15 0 0 0-.08.05l-.77.77-.48-.48a.15.15 0 1 0-.2.2l.58.58a.15.15 0 0 0 .2 0l.87-.87a.15.15 0 0 0-.1-.25zM6.1 9.49a2.06 2.06 0 0 1-.01.02 2.06 2.06 0 0 0 0-.02zM6 9.66a2.06 2.06 0 0 1-.03.05 2.06 2.06 0 0 0 .03-.05zm-.1.17a2.06 2.06 0 0 1-.06.09 2.06 2.06 0 0 0 .06-.1z"/></svg>