<svg xmlns="http://www.w3.org/2000/svg" width="48" height="48" viewBox="0 0 12.7 12.7"><defs><linearGradient id="a" y1="42" x1="19.01" y2="26" gradientUnits="userSpaceOnUse" x2="3.01"><stop stop-color="#cd1f03"/><stop offset="1" stop-color="#d94460"/></linearGradient></defs><path d="M6.34.07a6.29 6.29 0 0 0-6.29 6.3 6.29 6.29 0 0 0 6.3 6.28 6.29 6.29 0 0 0 6.28-6.29A6.29 6.29 0 0 0 6.34.07zm-.01.94a5.4 5.4 0 0 1 5.4 5.4 5.4 5.4 0 0 1-5.4 5.41 5.4 5.4 0 0 1-5.41-5.4A5.4 5.4 0 0 1 6.32 1zm.01.95c-.16 0-.31.11-.32.32v.3c-.8.05-1.55.24-2.24.62-1.16.62-1.95 2.43-2 3.68.01.11-.02.24.03.35.11.14.38.18.5.02.3-.34.76-.59 1.25-.56.46-.03.88.22 1.15.55.1.13.3.16.42.06.16-.14.29-.3.48-.42.13-.08.28-.14.43-.17.03 1.1 0 1.58 0 2.67.02.18-.03.36-.16.5a.85.85 0 0 1-1 .23.78.78 0 0 1-.47-.67c-.01-.13-.1-.27-.27-.28-.17-.02-.33.13-.3.3-.02.6.49 1.14 1.11 1.25.67.14 1.4-.25 1.61-.85.12-.33.06-.68.08-1.02 0-.91-.02-1.21.01-2.13.37.07.66.31.89.58.13.11.35.09.45-.05.22-.27.52-.48.88-.53.45-.09.92.08 1.27.35.13.09.23.23.39.29.2.06.43-.11.38-.31 0-1.17-.62-2.92-1.62-3.6a5.09 5.09 0 0 0-2.4-.84l-.24-.03v-.29c0-.21-.15-.32-.3-.32z" fill="#a02c2c"/></svg>