<svg xmlns="http://www.w3.org/2000/svg" width="48" height="48" viewBox="0 0 12.7 12.7"><path fill="#a02c2c" d="M6.34.07a6.29 6.29 0 0 0-6.29 6.3 6.29 6.29 0 0 0 6.3 6.28 6.29 6.29 0 0 0 6.28-6.29A6.29 6.29 0 0 0 6.34.07zm-.01.94a5.4 5.4 0 0 1 5.4 5.4 5.4 5.4 0 0 1-5.4 5.41 5.4 5.4 0 0 1-5.41-5.4A5.4 5.4 0 0 1 6.32 1zm.12 1.76a3.57 3.57 0 0 0-3.67 3.57 3.57 3.57 0 1 0 7.14 0 3.57 3.57 0 0 0-3.47-3.57zM5.37 4.35c.03-.02 1.52.9 1.55.92.04.01 1.57.9 1.57.93 0 .04-1.52.91-1.55.93-.03.02-1.54.95-1.57.93-.04-.02 0-1.81 0-1.85 0-.04-.04-1.84 0-1.86z"/></svg>