<svg xmlns="http://www.w3.org/2000/svg" width="48" height="48" viewBox="0 0 12.7 12.7"><path d="M6.34.07a6.29 6.29 0 0 0-6.29 6.3 6.29 6.29 0 0 0 6.3 6.28 6.29 6.29 0 0 0 6.28-6.29A6.29 6.29 0 0 0 6.34.07zm-.01.94a5.4 5.4 0 0 1 5.4 5.4 5.4 5.4 0 0 1-5.4 5.41 5.4 5.4 0 0 1-5.41-5.4A5.4 5.4 0 0 1 6.32 1z" fill="#a02c2c"/><path d="M9.31 3.18a1 1 0 0 0-.44.1c-.19.1-.38.3-.46.49-.09.2-.1.58-.03.77l.12.32c.08.2.11.65.06.9-.06.3-.23.62-.44.83a1.5 1.5 0 0 1-2.15.02c-.21-.2-.24-.26-1.2-2-.32-.58-.6-1.08-.67-1.14a.93.93 0 0 0-.69-.28c-.52 0-.88.4-.96.85-.06.36-.1.3 1.58 3.34a50.38 50.38 0 0 0 1.64 2.9c.29.31.7.39 1.1.2.1-.04.21-.13.29-.21.14-.17 3.13-5.6 3.18-5.79.05-.2.04-.47-.03-.67a1.06 1.06 0 0 0-.55-.57.95.95 0 0 0-.35-.06z" fill="#d40000" opacity=".75"/></svg>