<svg xmlns="http://www.w3.org/2000/svg" width="48" height="48" viewBox="0 0 12.7 12.7"><path fill="#a02c2c" d="M6.344.073a6.29 6.29 0 0 0-6.29 6.29 6.29 6.29 0 0 0 6.29 6.288 6.29 6.29 0 0 0 6.29-6.289 6.29 6.29 0 0 0-6.29-6.29zm-.018.936a5.407 5.407 0 0 1 5.407 5.407 5.407 5.407 0 0 1-5.407 5.407A5.407 5.407 0 0 1 .92 6.416 5.407 5.407 0 0 1 6.326 1.01zM3.413 2.55a.862.862 0 0 0-.863.865v5.872c0 .479.385.864.863.864h5.874a.861.861 0 0 0 .863-.864V3.414a.862.862 0 0 0-.863-.864H3.413zm3.406.519h2.676c.12 0 .137.009.137.12v2.71c0 .115 0 .106-.151.106H6.846c-.153 0-.15.005-.15-.156v-2.64c0-.14.003-.14.123-.14zm-3.319 0c.684 0 1.409.01 2.073 0a.431.431 0 1 1 0 .864H4.558l.863.864h.753v.863h-.17c-.345 0-.345 0-.345.346v.177h-.863V5.39l-.864-.864v1.048a.432.432 0 0 1-.864 0c0-.684.01-1.409 0-2.073 0-.238.194-.431.432-.431zm3.887.69v1.556H8.94V3.759H7.387zm-.349 2.76h.864v.793l.863.864V7.128a.432.432 0 0 1 .864 0c0 .684-.01 1.408 0 2.072a.432.432 0 0 1-.432.432c-.684 0-1.409-.01-2.073 0a.432.432 0 0 1 0-.864H8.14l-.864-.863h-.753V7.04h.17c.345 0 .345 0 .345-.345v-.178zm-3.846.177h2.675c.12 0 .137.01.137.121v2.71c0 .115 0 .106-.15.106H3.217c-.153 0-.15.005-.15-.157v-2.64c0-.14.004-.14.124-.14zm.567.691v1.555h1.554V7.386H3.76z"/></svg>