<?xml version="1.0" encoding="UTF-8" standalone="no"?>
<svg
   xmlns:dc="http://purl.org/dc/elements/1.1/"
   xmlns:cc="http://creativecommons.org/ns#"
   xmlns:rdf="http://www.w3.org/1999/02/22-rdf-syntax-ns#"
   xmlns:svg="http://www.w3.org/2000/svg"
   xmlns="http://www.w3.org/2000/svg"
   xmlns:sodipodi="http://sodipodi.sourceforge.net/DTD/sodipodi-0.dtd"
   xmlns:inkscape="http://www.inkscape.org/namespaces/inkscape"
   width="48"
   height="48"
   viewBox="0 0 12.7 12.7"
   version="1.1"
   id="svg4"
   sodipodi:docname="winefile.svg"
   inkscape:version="0.92.4 (5da689c313, 2019-01-14)">
  <metadata
     id="metadata10">
    <rdf:RDF>
      <cc:Work
         rdf:about="">
        <dc:format>image/svg+xml</dc:format>
        <dc:type
           rdf:resource="http://purl.org/dc/dcmitype/StillImage" />
        <dc:title></dc:title>
      </cc:Work>
    </rdf:RDF>
  </metadata>
  <defs
     id="defs8" />
  <sodipodi:namedview
     pagecolor="#ffffff"
     bordercolor="#666666"
     borderopacity="1"
     objecttolerance="10"
     gridtolerance="10"
     guidetolerance="10"
     inkscape:pageopacity="0"
     inkscape:pageshadow="2"
     inkscape:window-width="1087"
     inkscape:window-height="480"
     id="namedview6"
     showgrid="false"
     inkscape:zoom="4.9166667"
     inkscape:cx="2.1355932"
     inkscape:cy="24"
     inkscape:window-x="0"
     inkscape:window-y="25"
     inkscape:window-maximized="0"
     inkscape:current-layer="svg4" />
  <path
     d="M 6.34,0.07 A 6.29,6.29 0 0 0 0.05,6.37 6.29,6.29 0 0 0 6.35,12.65 6.29,6.29 0 0 0 12.63,6.36 6.29,6.29 0 0 0 6.34,0.07 Z M 6.33,1.01 a 5.4,5.4 0 0 1 5.4,5.4 5.4,5.4 0 0 1 -5.4,5.41 A 5.4,5.4 0 0 1 0.92,6.42 5.4,5.4 0 0 1 6.32,1 Z M 4,2.28 2.55,3.76 h 7.6 L 8.7,2.28 Z M 2.55,3.9 V 10 H 7.08 A 2.12,2.12 0 0 1 7.02,9.94 2.12,2.12 0 0 1 6.89,9.77 2.12,2.12 0 0 1 6.87,9.74 H 2.9 V 4.16 H 9.8 V 6.8 a 2.12,2.12 0 0 1 0.15,0.11 2.12,2.12 0 0 1 0.16,0.14 2.12,2.12 0 0 1 0.03,0.03 V 3.9 h -7.6 z m 0.71,0.7 v 2.18 h 4.27 a 2.12,2.12 0 0 1 0.1,-0.06 2.12,2.12 0 0 1 0.19,-0.1 2.12,2.12 0 0 1 0.2,-0.06 2.12,2.12 0 0 1 0.2,-0.06 2.12,2.12 0 0 1 0.21,-0.03 2.12,2.12 0 0 1 0.21,0 2.12,2.12 0 0 1 0.15,0 2.12,2.12 0 0 1 0.21,0.02 2.12,2.12 0 0 1 0.2,0.05 2.12,2.12 0 0 1 0.2,0.07 2.12,2.12 0 0 1 0.01,0 V 4.58 H 3.26 Z M 5.43,5.3 H 7.27 V 5.72 H 5.43 Z M 8.64,6.73 A 1.85,1.85 0 0 0 6.8,8.57 1.85,1.85 0 0 0 8.65,10.42 1.85,1.85 0 0 0 10.5,8.57 1.85,1.85 0 0 0 8.65,6.72 Z M 3.26,7.13 V 9.3 h 3.4 A 2.12,2.12 0 0 1 6.62,9.2 2.12,2.12 0 0 1 6.57,8.99 2.12,2.12 0 0 1 6.54,8.78 2.12,2.12 0 0 1 6.52,8.57 2.12,2.12 0 0 1 6.53,8.42 2.12,2.12 0 0 1 6.55,8.24 H 5.43 V 7.83 H 6.66 A 2.12,2.12 0 0 1 6.66,7.8 2.12,2.12 0 0 1 6.76,7.6 2.12,2.12 0 0 1 6.86,7.42 2.12,2.12 0 0 1 6.98,7.25 2.12,2.12 0 0 1 7.1,7.12 H 3.26 Z m 4.51,0.52 h 0.66 c 0.03,0 0.06,0.03 0.06,0.06 V 8.37 C 8.49,8.4 8.46,8.42 8.43,8.42 H 7.77 A 0.06,0.06 0 0 1 7.72,8.37 V 7.7 c 0,-0.03 0.02,-0.06 0.05,-0.06 z m 1.08,0 h 0.66 c 0.03,0 0.06,0.03 0.06,0.06 V 8.37 C 9.57,8.4 9.54,8.42 9.51,8.42 H 8.85 A 0.05,0.05 0 0 1 8.8,8.37 V 7.7 C 8.8,7.67 8.82,7.64 8.85,7.64 Z M 7.77,8.72 h 0.66 c 0.03,0 0.06,0.03 0.06,0.06 v 0.66 c 0,0.03 -0.03,0.05 -0.06,0.05 H 7.77 A 0.06,0.06 0 0 1 7.72,9.44 V 8.78 c 0,-0.03 0.02,-0.06 0.05,-0.06 z m 1.08,0 h 0.66 c 0.03,0 0.06,0.03 0.06,0.06 v 0.66 c 0,0.03 -0.03,0.05 -0.06,0.05 H 8.85 A 0.05,0.05 0 0 1 8.8,9.44 V 8.78 C 8.8,8.75 8.82,8.72 8.85,8.72 Z"
     id="path2"
     inkscape:connector-curvature="0"
     style="fill:#a02c2c" />
</svg>
