<?xml version="1.0" encoding="UTF-8" standalone="no"?>
<svg
   xmlns:dc="http://purl.org/dc/elements/1.1/"
   xmlns:cc="http://creativecommons.org/ns#"
   xmlns:rdf="http://www.w3.org/1999/02/22-rdf-syntax-ns#"
   xmlns:svg="http://www.w3.org/2000/svg"
   xmlns="http://www.w3.org/2000/svg"
   xmlns:sodipodi="http://sodipodi.sourceforge.net/DTD/sodipodi-0.dtd"
   xmlns:inkscape="http://www.inkscape.org/namespaces/inkscape"
   width="48"
   height="48"
   version="1.1"
   viewBox="0 0 12.7 12.7"
   id="svg4"
   sodipodi:docname="8tracks.svg"
   inkscape:version="0.92.4 (5da689c313, 2019-01-14)">
  <metadata
     id="metadata10">
    <rdf:RDF>
      <cc:Work
         rdf:about="">
        <dc:format>image/svg+xml</dc:format>
        <dc:type
           rdf:resource="http://purl.org/dc/dcmitype/StillImage" />
        <dc:title></dc:title>
      </cc:Work>
    </rdf:RDF>
  </metadata>
  <defs
     id="defs8" />
  <sodipodi:namedview
     pagecolor="#ffffff"
     bordercolor="#666666"
     borderopacity="1"
     objecttolerance="10"
     gridtolerance="10"
     guidetolerance="10"
     inkscape:pageopacity="0"
     inkscape:pageshadow="2"
     inkscape:window-width="1136"
     inkscape:window-height="480"
     id="namedview6"
     showgrid="false"
     inkscape:zoom="4.9166667"
     inkscape:cx="2.1355932"
     inkscape:cy="24"
     inkscape:window-x="0"
     inkscape:window-y="25"
     inkscape:window-maximized="0"
     inkscape:current-layer="svg4" />
  <path
     d="M 6.3396014,0.07544763 C 2.8712222,0.08119453 0.06111798,2.8913726 0.05529722,6.3597518 c -4.61e-6,3.4723479 2.81195628,6.2888022 6.28430418,6.2946232 3.4765812,0 6.2946226,-2.818042 6.2946226,-6.2946232 C 12.628466,2.8874039 9.8119493,0.07544763 6.3396014,0.07544763 Z M 6.3292661,1.0149183 c 2.9741438,0.00572 5.3855259,2.4125198 5.3969029,5.3865842 0,2.9865791 -2.4208806,5.4074865 -5.4074861,5.4074865 -2.986579,0 -5.40722147,-2.420881 -5.40722147,-5.4074865 0,-2.986579 2.43122567,-5.3865842 5.41780467,-5.3865842 z M 8.051629,2.5801736 c -1.1444143,4.222e-4 -2.0717672,0.926956 -2.0721906,2.0716878 0,0.5813617 -5.167e-4,0.5854891 -5.167e-4,0.5854891 H 6.7183964 V 4.6518614 c 6.485e-4,-0.368163 0.1508661,-0.6982001 0.3927425,-0.9405025 0.2416436,-0.2410112 0.5717045,-0.389647 0.9405025,-0.389647 0.3685864,0 0.6991527,0.1487046 0.9410053,0.3901497 0.2409821,0.2418711 0.3891178,0.5718103 0.3891178,0.9399734 0,0.3690097 -0.1483977,0.6985441 -0.389647,0.9399733 C 8.7505031,5.8332561 8.4202543,5.9753171 8.051615,5.9757668 H 4.6483224 c -1.1451551,0 -2.071873,0.9278292 -2.0721905,2.0716879 3.167e-4,1.1443085 0.9270354,2.0721903 2.0721905,2.0721903 1.1441763,0 2.0695977,-0.9279083 2.0701269,-2.0721903 V 7.4562771 H 5.9784455 V 8.0474547 C 5.977797,8.4160411 5.8300478,8.7460782 5.5887985,8.9879572 5.3469274,9.229405 5.0168824,9.3781069 4.648296,9.3781069 4.2792598,9.3781069 3.9498048,9.2293574 3.7072908,8.9879572 3.4659621,8.7460861 3.318173,8.4160411 3.3176438,8.0474547 3.3181716,7.6792916 3.4659673,7.3493604 3.7072908,7.1074813 3.9498101,6.8660018 4.2792863,6.717755 4.648296,6.7173317 h 3.4032925 c 1.1447319,0 2.0718735,-0.9211882 2.0721905,-2.0654703 C 10.123463,3.5071296 9.1963204,2.5805969 8.0515885,2.5801736 Z"
     id="path2"
     inkscape:connector-curvature="0"
     style="fill:#1a1a1a;stroke-width:1.04387391" />
</svg>
