<?xml version="1.0" encoding="UTF-8" standalone="no"?>
<svg
   xmlns:dc="http://purl.org/dc/elements/1.1/"
   xmlns:cc="http://creativecommons.org/ns#"
   xmlns:rdf="http://www.w3.org/1999/02/22-rdf-syntax-ns#"
   xmlns:svg="http://www.w3.org/2000/svg"
   xmlns="http://www.w3.org/2000/svg"
   xmlns:sodipodi="http://sodipodi.sourceforge.net/DTD/sodipodi-0.dtd"
   xmlns:inkscape="http://www.inkscape.org/namespaces/inkscape"
   width="48"
   height="48"
   viewBox="0 0 12.7 12.7"
   version="1.1"
   id="svg4"
   sodipodi:docname="mx-qsi.svg"
   inkscape:version="0.92.4 (5da689c313, 2019-01-14)">
  <metadata
     id="metadata10">
    <rdf:RDF>
      <cc:Work
         rdf:about="">
        <dc:format>image/svg+xml</dc:format>
        <dc:type
           rdf:resource="http://purl.org/dc/dcmitype/StillImage" />
        <dc:title></dc:title>
      </cc:Work>
    </rdf:RDF>
  </metadata>
  <defs
     id="defs8" />
  <sodipodi:namedview
     pagecolor="#ffffff"
     bordercolor="#666666"
     borderopacity="1"
     objecttolerance="10"
     gridtolerance="10"
     guidetolerance="10"
     inkscape:pageopacity="0"
     inkscape:pageshadow="2"
     inkscape:window-width="862"
     inkscape:window-height="480"
     id="namedview6"
     showgrid="false"
     inkscape:zoom="4.9166667"
     inkscape:cx="2.1355932"
     inkscape:cy="24"
     inkscape:window-x="0"
     inkscape:window-y="25"
     inkscape:window-maximized="0"
     inkscape:current-layer="svg4" />
  <path
     d="m 6.344,0.072 a 6.29,6.29 0 0 0 -6.29,6.29 6.29,6.29 0 0 0 6.29,6.289 6.29,6.29 0 0 0 6.29,-6.29 6.29,6.29 0 0 0 -6.29,-6.29 z M 6.326,1.009 A 5.407,5.407 0 0 1 11.733,6.416 5.407,5.407 0 0 1 6.326,11.823 5.407,5.407 0 0 1 0.92,6.416 5.407,5.407 0 0 1 6.326,1.01 Z M 3.408,3.043 H 3.41 A 0.67,0.67 0 0 0 2.74,3.714 v 4.579 c 0,0.37 0.3,0.67 0.67,0.67 h 1.68 v 0.8 H 3.522 v 0.619 H 9.357 V 9.763 h -1.61 v -0.8 h 1.641 c 0.37,0 0.67,-0.3 0.67,-0.67 v -4.58 c 0,-0.37 -0.3,-0.67 -0.67,-0.67 z m 0.51,0.667 h 5 c 0.287,0 0.518,0.23 0.518,0.517 V 7.764 A 0.517,0.517 0 0 1 8.918,8.282 h -5 A 0.516,0.516 0 0 1 3.4,7.764 V 4.227 C 3.4,3.941 3.631,3.71 3.918,3.71 Z M 6.521,4.115 A 1.852,1.852 0 0 0 4.668,5.967 1.852,1.852 0 0 0 6.521,7.82 1.852,1.852 0 0 0 8.373,5.968 1.852,1.852 0 0 0 6.52,4.115 Z m 0,0.185 A 1.667,1.667 0 0 1 8.188,5.967 1.667,1.667 0 0 1 6.52,7.634 1.667,1.667 0 0 1 4.853,5.967 1.667,1.667 0 0 1 6.521,4.3 Z m 0,0.186 A 0.37,0.37 0 0 0 6.15,4.856 0.37,0.37 0 0 0 6.52,5.226 0.37,0.37 0 0 0 6.891,4.856 0.37,0.37 0 0 0 6.521,4.486 Z M 6.15,5.412 V 7.264 H 6.891 V 5.412 Z"
     id="path2"
     inkscape:connector-curvature="0"
     style="fill:#1a1a1a" />
</svg>
