<svg xmlns="http://www.w3.org/2000/svg" width="24" height="24" viewBox="0 0 6.35 6.35"><g fill="#217821"><path d="M3.209.864a2.35 2.35 0 0 0-1.16.29l.005 4.081c.752.543 1.617.378 2.249-.008l.003-4.068A2.532 2.532 0 0 0 3.209.864zm.195.754v1.288h.453L2.95 4.66V3.374h-.453z"/><path d="M3.404 1.618v1.287h.453L2.95 4.661V3.373h-.453z" opacity=".5"/><path d="M3.175.56A2.615 2.615 0 0 0 .56 3.175 2.615 2.615 0 0 0 3.175 5.79 2.615 2.615 0 0 0 5.79 3.175 2.615 2.615 0 0 0 3.175.56zm-.007.389a2.249 2.249 0 0 1 2.248 2.248 2.249 2.249 0 0 1-2.248 2.249 2.249 2.249 0 0 1-2.25-2.249A2.249 2.249 0 0 1 3.169.95z"/></g></svg>