<svg xmlns="http://www.w3.org/2000/svg" width="24" height="24" version="1"><path d="M12 .16A11.84 11.84 0 0 0 .16 12 11.84 11.84 0 0 0 12 23.84 11.84 11.84 0 0 0 23.84 12 11.84 11.84 0 0 0 12 .16zm-.03 1.76A10.18 10.18 0 0 1 22.15 12.1a10.18 10.18 0 0 1-10.18 10.2A10.18 10.18 0 0 1 1.78 12.1 10.18 10.18 0 0 1 11.97 1.92zm.03 1.3A8.82 8.78 0 0 0 3.18 12 8.82 8.78 0 0 0 12 20.78 8.82 8.78 0 0 0 20.82 12 8.82 8.78 0 0 0 12 3.22zm2.13 3.2a3.46 3.46 0 0 1 3.45 3.46 3.46 3.46 0 0 1-3.45 3.45c-.45 0-.86-.08-1.23-.2l-1.83 1.83H9.85v1.23H8.63v1.22H6.59v-2.04l4.28-4.27c-.12-.41-.2-.82-.2-1.22a3.46 3.46 0 0 1 3.46-3.46zm1.01 1.22c-.7 0-1.22.53-1.22 1.22s.53 1.22 1.22 1.22c.7 0 1.22-.53 1.22-1.22 0-.7-.53-1.22-1.22-1.22z" fill="#2ca02c"/></svg>
