<svg xmlns="http://www.w3.org/2000/svg" width="24" height="24" viewBox="0 0 6.35 6.35"><path d="M1.73 1.02v.72h2.9v-.72h-2.9zM1 2.1a.39.39 0 0 0-.36.36v1.45c0 .18.18.36.36.36h.36v-.73h.37v1.78H3.8c-.05-.07-.11-.13-.15-.22l-.01-.09H2.05V3.55h1.92a1.42 1.42 0 0 1 1.54-.3c.08.04.13.1.2.14v-.92a.39.39 0 0 0-.36-.36H1z" fill="#2ca02c"/><path d="M4.96 3.45a1.12 1.12 0 1 0 0 2.23 1.12 1.12 0 0 0 0-2.23zm-.54.4l.53.52.53-.53.18.18-.53.53.53.53-.18.18-.53-.53-.53.53-.18-.18.53-.53-.53-.53z" fill="#ff2a2a"/></svg>
