<svg xmlns="http://www.w3.org/2000/svg" width="48" height="48" viewBox="0 0 12.7 12.7"><path d="M6.32.05a6.29 6.29 0 0 0-6.3 6.3 6.29 6.29 0 0 0 6.3 6.28 6.29 6.29 0 0 0 6.29-6.3A6.29 6.29 0 0 0 6.3.06l.02-.01zM6.3.98a5.4 5.4 0 0 1 5.4 5.4 5.4 5.4 0 0 1-5.4 5.42A5.4 5.4 0 0 1 .9 6.4 5.4 5.4 0 0 1 6.3.98zM4.22 2.82c-.32-.02-.7.22-1.16.9-.08.13-.01.31.15.24.79-.95 1.22-.8 1.9-.02.15.05.2-.18.15-.22-.32-.44-.64-.88-1.04-.9zm4.37 0c-.31-.02-.68.22-1.15.9-.08.13-.02.31.15.24.78-.95 1.21-.8 1.9-.02.14.05.19-.18.15-.22-.32-.44-.64-.88-1.05-.9zm.95 1.94l-.04.01c-2 1.95-4.09 2.2-6.29 0-.07-.07-.07.1-.07.2s0 .1.07.19c2.1 2.14 4.2 2.09 6.3 0 .06-.08.04-.1.04-.22v-.18zM5.58 7.39c-.06.14-.1.27 0 .39.6.26 1.1.19 1.6 0a.4.4 0 0 0 0-.4c-.5.2-1.03.27-1.6 0z" fill="green"/></svg>