<svg xmlns="http://www.w3.org/2000/svg" xmlns:xlink="http://www.w3.org/1999/xlink" width="48" height="48" viewBox="0 0 12.7 12.7"><defs><radialGradient xlink:href="#a" id="b" cx="7.52" cy="8.19" fx="7.52" fy="8.19" r="1.15" gradientTransform="matrix(.03838 1.61784 2.95912 -.0702 -18.2 -1.9)" gradientUnits="userSpaceOnUse"/><linearGradient id="a"><stop offset="0" stop-color="green" stop-opacity="0"/><stop offset="1" stop-color="green"/></linearGradient></defs><path d="M6.32.05a6.29 6.29 0 0 0-6.3 6.3 6.29 6.29 0 0 0 6.3 6.28 6.29 6.29 0 0 0 6.29-6.3A6.29 6.29 0 0 0 6.3.06l.02-.01zM6.3.98a5.4 5.4 0 0 1 5.4 5.4 5.4 5.4 0 0 1-5.4 5.42A5.4 5.4 0 0 1 .9 6.4 5.4 5.4 0 0 1 6.3.98zM4.22 2.82c-.32-.02-.7.22-1.16.9-.08.13-.01.31.15.24.79-.95 1.22-.8 1.9-.02.15.05.2-.18.15-.22-.32-.44-.64-.88-1.04-.9zm4.37 0c-.31-.02-.68.22-1.15.9-.08.13-.02.31.15.24.78-.95 1.21-.8 1.9-.02.14.05.19-.18.15-.22-.32-.44-.64-.88-1.05-.9zM6.3 5.39a2.98 2.2 0 0 0-2.98 2.2 2.98 2.2 0 0 0 2.98 2.2 2.98 2.2 0 0 0 2.98-2.2 2.98 2.2 0 0 0-2.98-2.2zm0 .29a2.6 1.92 0 0 1 2.6 1.9A2.6 1.92 0 0 1 6.3 9.5a2.6 1.92 0 0 1-2.6-1.92 2.6 1.92 0 0 1 2.6-1.9zm-.85 4.4c-.03.1-.23.1 0 .32a1.84 1.19 0 0 0 1.24.12 1.8 1.17 0 0 0 .46-.12c.25-.1.16-.22 0-.33a1.55 1 0 0 1-.3.12 1.42.92 0 0 1-1.4-.12z" fill="green"/><path style="marker:none" d="M3.5 7.58a2.82 2.07 0 0 0 2.8 2.09A2.82 2.07 0 0 0 9.12 7.6 2.82 2.07 0 0 0 6.3 5.53a2.82 2.07 0 0 0-2.8 2.05z" overflow="visible" fill="url(#b)"/></svg>