<svg xmlns="http://www.w3.org/2000/svg" width="48" height="48" viewBox="0 0 12.7 12.7"><path style="marker:none" d="M6.34.07a6.29 6.29 0 0 0-6.29 6.3 6.29 6.29 0 0 0 6.3 6.28 6.29 6.29 0 0 0 6.28-6.29A6.29 6.29 0 0 0 6.34.07zM6.32 1l.01.01a5.4 5.4 0 0 1 5.4 5.4 5.4 5.4 0 0 1-5.4 5.41 5.4 5.4 0 0 1-5.41-5.4A5.4 5.4 0 0 1 6.32 1zM4.17 3.69c-.22.28-.36.71-.36 1.2 0 .84.43 1.53.96 1.53.39 0 .72-.35.87-.85a6.4 6.4 0 0 1-1.47-1.88zm4.35 0a6.4 6.4 0 0 1-1.48 1.88c.16.5.5.85.87.85.54 0 .97-.69.97-1.54 0-.48-.14-.91-.36-1.2zM5 5.55a.2.22 0 0 1 .2.21.2.22 0 0 1-.2.22.2.22 0 0 1-.19-.22.2.22 0 0 1 .2-.21zm2.7 0a.2.22 0 0 1 .2.21.2.22 0 0 1-.2.22.2.22 0 0 1-.18-.22.2.22 0 0 1 .19-.21zM6.3 7.27c-2.11 0-3.04 2.38-2.48 2.2a9.72 9.72 0 0 1 5.04-.03c.6.18-.48-2.17-2.57-2.17zm-.02.21l.09.7h-.04a7.14 7.14 0 0 1-1.38-.27 2.4 2.4 0 0 1 1.33-.43zm.16 0c.49.03.91.19 1.25.4-.04.02-.85.28-1.31.29l.06-.68zm-1.89.78l.75.01-.08.7c-.35.04-.67.1-.96.18-.25.07-.14-.42.3-.89zm.77.01l1.05.02-.08.6c-.31 0-.62.02-.9.05l-.07-.67zm1.06.02H7.4l-.07.64a9.6 9.6 0 0 0-.9-.04l-.06-.6zm1.06 0l.76.02c.42.44.53.88.27.82a7.4 7.4 0 0 0-.97-.18l-.06-.65z" overflow="visible" fill="#2ca02c"/></svg>
