<svg xmlns="http://www.w3.org/2000/svg" width="24" height="24" viewBox="0 0 6.35 6.35"><g fill="#217821"><path d="M3.209.925a2.3 2.3 0 0 0-1.135.284l.005 3.992c.736.53 1.581.37 2.2-.008l.003-3.979A2.477 2.477 0 0 0 3.209.926z"/><path d="M3.175.56A2.615 2.615 0 0 0 .56 3.175 2.615 2.615 0 0 0 3.175 5.79 2.615 2.615 0 0 0 5.79 3.175 2.615 2.615 0 0 0 3.175.56zm-.007.389a2.249 2.249 0 0 1 2.248 2.248 2.249 2.249 0 0 1-2.248 2.249 2.249 2.249 0 0 1-2.25-2.249A2.249 2.249 0 0 1 3.169.95z"/></g></svg>