<svg xmlns="http://www.w3.org/2000/svg" width="48" height="48" viewBox="0 0 12.7 12.7"><path d="M6.34.07a6.29 6.29 0 0 0-6.29 6.3 6.29 6.29 0 0 0 6.3 6.28 6.29 6.29 0 0 0 6.28-6.29A6.29 6.29 0 0 0 6.34.07zm-.01.94a5.4 5.4 0 0 1 5.4 5.4 5.4 5.4 0 0 1-5.4 5.41 5.4 5.4 0 0 1-5.41-5.4A5.4 5.4 0 0 1 6.32 1zM3.78 2.3a1.13 1.13 0 0 0-1.11 1.12V7.3c0 .61.5 1.12 1.11 1.12h3.37A1.13 1.13 0 0 0 8.27 7.3V3.43c0-.6-.5-1.12-1.12-1.12H3.78zm1.69 1.02a1.79 1.79 0 0 1 1.78 1.78A1.79 1.79 0 0 1 5.47 6.9H3.68V5.1c0-.97.8-1.78 1.79-1.78zm0 1.02a.76.76 0 0 0-.77.76c0 .43.34.77.77.77a.76.76 0 0 0 .76-.77.76.76 0 0 0-.76-.76zm3.3 0v5c0 .06-.03.1-.09.1H5.31c-.06 0-.1-.04-.1-.1v-.42H4.2v.42c0 .6.5 1.11 1.12 1.11h3.37A1.12 1.12 0 0 0 9.8 9.35V5.47c0-.58-.45-1.07-1.02-1.12z" fill="#2ca02c"/></svg>
