<svg xmlns="http://www.w3.org/2000/svg" width="48" height="48" viewBox="0 0 12.7 12.7"><g fill="green"><path d="M6.34.07a6.29 6.29 0 0 0-6.29 6.3 6.29 6.29 0 0 0 6.3 6.28 6.29 6.29 0 0 0 6.28-6.29A6.29 6.29 0 0 0 6.34.07zm-.01.94a5.4 5.4 0 0 1 5.4 5.4 5.4 5.4 0 0 1-5.4 5.41 5.4 5.4 0 0 1-5.41-5.4A5.4 5.4 0 0 1 6.32 1z"/><path d="M3.48 2.3a.55.55 0 0 0-.55.55v7.02c0 .3.25.55.55.55h5.76a.55.55 0 0 0 .54-.55V2.85a.55.55 0 0 0-.54-.55zm2.9 1.1a2.9 2.9 0 0 1 2.9 2.91 2.9 2.9 0 0 1-2.9 2.9 2.9 2.9 0 0 1-2.89-2.9 2.9 2.9 0 0 1 2.9-2.9zm-.06 1.8a1.18 1.18 0 0 0-1.18 1.18 1.18 1.18 0 0 0 1.18 1.19A1.18 1.18 0 0 0 7.5 6.38 1.18 1.18 0 0 0 6.32 5.2z"/></g></svg>