<svg xmlns="http://www.w3.org/2000/svg" width="48" height="48" viewBox="0 0 12.7 12.7"><path d="M6.34.07a6.29 6.29 0 0 0-6.29 6.3 6.29 6.29 0 0 0 6.3 6.28 6.29 6.29 0 0 0 6.28-6.29A6.29 6.29 0 0 0 6.34.07zm-.01.94a5.4 5.4 0 0 1 5.4 5.4 5.4 5.4 0 0 1-5.4 5.41 5.4 5.4 0 0 1-5.41-5.4A5.4 5.4 0 0 1 6.32 1zm-.9 1.1L2.85 4.68v5.15a.86.86 0 0 0 .85.86h5.15a.86.86 0 0 0 .85-.86V2.97a.86.86 0 0 0-.85-.86H5.43zm0 .86h.85v1.71h-.86V2.97zm1.28 0h.86v1.71h-.86V2.97zm1.29 0h.86v1.71H8V2.97z" fill="#2ca02c"/></svg>
