<svg xmlns="http://www.w3.org/2000/svg" width="48" height="48" viewBox="0 0 12.7 12.7"><path d="M6.34.07a6.29 6.29 0 0 0-6.29 6.3 6.29 6.29 0 0 0 6.3 6.28 6.29 6.29 0 0 0 6.28-6.29A6.29 6.29 0 0 0 6.34.07zm-.01.94a5.4 5.4 0 0 1 5.4 5.4 5.4 5.4 0 0 1-5.4 5.41 5.4 5.4 0 0 1-5.41-5.4A5.4 5.4 0 0 1 6.32 1zm.95 1.65a.13.13 0 0 0-.13.13v7.07c0 .08.06.14.14.14h.41c.08 0 .14-.06.14-.14V8.58l.04.01H8.9c.09 0 .17-.08.17-.17V7.15c0-.1-.08-.17-.17-.17H7.84v-1.3l.04.02H8.9c.09 0 .17-.08.17-.18V4.25c0-.1-.08-.17-.17-.17H7.88l-.04.01v-.76h1.7c.07 0 .13-.06.13-.14v-.4a.13.13 0 0 0-.13-.13H7.29zm-2.9 1.86A.39.39 0 0 0 4 4.9V5a.18.18 0 0 1-.18.18h-.53c-.21 0-.39.24-.39.45V7.8c0 .2.18.38.39.38h2.9a.39.39 0 0 0 .38-.38V5.63c0-.21-.17-.45-.38-.45h-.53A.19.19 0 0 1 5.48 5V4.9a.39.39 0 0 0-.4-.38h-.7zm3.5.04h.73c.04 0 .07.03.07.07v.51c0 .04-.03.07-.07.07h-.73a.07.07 0 0 1-.06-.07v-.5c0-.05.03-.08.06-.08zM3.36 6.68h.58v.98h-.58v-.98zm.7 0h.59v.98h-.59v-.98zm.7 0h.59v.98h-.59v-.98zm.7 0h.59v.98h-.59v-.98zm2.42.78h.73c.04 0 .07.03.07.07v.5c0 .05-.03.08-.07.08h-.73a.07.07 0 0 1-.06-.07v-.51c0-.04.03-.07.06-.07z" fill="green"/></svg>