<svg xmlns="http://www.w3.org/2000/svg" width="48" height="48" viewBox="0 0 12.7 12.7"><path d="M6.34.07a6.29 6.29 0 0 0-6.29 6.3 6.29 6.29 0 0 0 6.3 6.28 6.29 6.29 0 0 0 6.28-6.29A6.29 6.29 0 0 0 6.34.07zm-.01.94a5.4 5.4 0 0 1 5.4 5.4 5.4 5.4 0 0 1-5.4 5.41 5.4 5.4 0 0 1-5.41-5.4A5.4 5.4 0 0 1 6.32 1zM4.18 2.44c-.92 0-1.62.7-1.62 1.54v5.14c0 .85.7 1.54 1.62 1.54h3.88c.93 0 1.67-.69 1.67-1.54V5.74L8.72 7.2v1.9c0 .3-.25.52-.56.52H4.1a.5.5 0 0 1-.53-.51V3.98a.5.5 0 0 1 .53-.5h3.93l.68-.9a1.84 1.84 0 0 0-.65-.14H4.19zm5.06.53s-1.3 1.8-2.08 3.07l-.72.6.02.8-.4.64h.37l.38-.3.86-.23.3-.76 2.15-3.27-.88-.55z" fill="green"/></svg>