<svg xmlns="http://www.w3.org/2000/svg" width="48" height="48" viewBox="0 0 12.7 12.7"><path d="M6.34.07a6.29 6.29 0 0 0-6.29 6.3 6.29 6.29 0 0 0 6.3 6.28 6.29 6.29 0 0 0 6.28-6.29A6.29 6.29 0 0 0 6.34.07zm-.01.94a5.4 5.4 0 0 1 5.4 5.4A5.4 5.4 0 0 1 10.38 10h-3.6V8.21h1.38v-.94H4.41v.94H5.9v1.78H2.28A5.4 5.4 0 0 1 .92 6.42 5.4 5.4 0 0 1 6.32 1zM4.19 2.36V4.9h-.52V3.87h-.51c-.26 0-.52.26-.52.51v2.07c0 .26.26.52.52.52h6.2c.26 0 .52-.26.52-.52V4.38c0-.25-.26-.51-.51-.51h-.52V4.9h-.52V2.36H4.2zm.47.44h3.21v2.1H4.66V2.8zm-1.5 7.99h6.33a5.4 5.4 0 0 1-3.16 1.03 5.4 5.4 0 0 1-3.17-1.03z" fill="#2ca02c"/></svg>
