<svg xmlns="http://www.w3.org/2000/svg" width="48" height="48" viewBox="0 0 12.7 12.7"><g fill="green"><path d="M6.34.07a6.29 6.29 0 0 0-6.29 6.3 6.29 6.29 0 0 0 6.3 6.28 6.29 6.29 0 0 0 6.28-6.29A6.29 6.29 0 0 0 6.34.07zm-.01.94a5.4 5.4 0 0 1 5.4 5.4 5.4 5.4 0 0 1-5.4 5.41 5.4 5.4 0 0 1-5.41-5.4A5.4 5.4 0 0 1 6.32 1z"/><path d="M2.58 3.07a.44.44 0 0 0-.44.45v5.22c0 .24.2.44.44.44h7.5a.44.44 0 0 0 .45-.44V3.52a.44.44 0 0 0-.44-.45zm.57.75H9.6c.19 0 .34.15.34.34v4.08a.35.35 0 0 1-.34.35H3.16a.35.35 0 0 1-.35-.35V4.16c0-.19.15-.34.34-.34zm4.81 6.68a1.59 1.22 0 0 0-.8-1.06 1.59 1.22 0 0 0-1.6.02 1.59 1.22 0 0 0-.77 1.07l1.59-.03z"/></g></svg>