<?xml version="1.0" encoding="UTF-8" standalone="no"?>
<svg
   xmlns:dc="http://purl.org/dc/elements/1.1/"
   xmlns:cc="http://creativecommons.org/ns#"
   xmlns:rdf="http://www.w3.org/1999/02/22-rdf-syntax-ns#"
   xmlns:svg="http://www.w3.org/2000/svg"
   xmlns="http://www.w3.org/2000/svg"
   xmlns:sodipodi="http://sodipodi.sourceforge.net/DTD/sodipodi-0.dtd"
   xmlns:inkscape="http://www.inkscape.org/namespaces/inkscape"
   width="48"
   height="48"
   viewBox="0 0 12.7 12.7"
   version="1.1"
   id="svg6"
   sodipodi:docname="application-x-lzma.svg"
   inkscape:version="0.92.4 (5da689c313, 2019-01-14)">
  <defs
     id="defs10" />
  <sodipodi:namedview
     pagecolor="#ffffff"
     bordercolor="#666666"
     borderopacity="1"
     objecttolerance="10"
     gridtolerance="10"
     guidetolerance="10"
     inkscape:pageopacity="0"
     inkscape:pageshadow="2"
     inkscape:window-width="1087"
     inkscape:window-height="480"
     id="namedview8"
     showgrid="false"
     inkscape:zoom="4.9166667"
     inkscape:cx="2.1355932"
     inkscape:cy="24"
     inkscape:window-x="0"
     inkscape:window-y="25"
     inkscape:window-maximized="0"
     inkscape:current-layer="svg6" />
  <metadata
     id="metadata2">
    <rdf:RDF>
      <cc:Work>
        <dc:format>image/svg+xml</dc:format>
        <dc:type
           rdf:resource="http://purl.org/dc/dcmitype/StillImage" />
        <dc:title></dc:title>
      </cc:Work>
    </rdf:RDF>
  </metadata>
  <path
     d="m 1.21,0.86 -1.07,2.8 h 6.04 v -2.8 z m 5.18,0 v 2.8 h 6.11 l -1.1,-2.8 h -5 z m -6.2,3.03 v 6.31 c 0,0.64 0.25,1.18 0.74,1.64 0.5,0.45 1.08,0.67 1.78,0.67 h 7.25 c 0.7,0 1.28,-0.22 1.78,-0.67 0.49,-0.46 0.73,-1 0.73,-1.64 V 3.9 h -1.12 v 6.3 c 0,0.36 -0.13,0.66 -0.4,0.91 A 1.4,1.4 0 0 1 9.96,11.49 H 2.71 A 1.4,1.4 0 0 1 1.72,11.11 1.19,1.19 0 0 1 1.31,10.21 V 3.88 H 0.19 Z m 1.53,1.4 V 6.35 H 2 V 7.41 H 2.53 V 6.35 H 2.79 V 5.29 Z M 3.04,5.34 V 5.87 H 3.57 V 5.34 Z M 3.57,5.87 V 6.4 H 4.1 V 5.87 Z m 0.53,0 H 4.63 V 5.34 H 4.1 Z m 0.53,0 V 6.4 H 5.16 V 5.87 Z m 0.53,0 H 5.68 V 5.34 H 5.16 Z m 0.52,0 V 6.4 H 6.21 V 5.87 Z m 0.53,0 H 6.74 V 5.34 H 6.21 Z m 0.53,0 V 6.4 H 7.27 V 5.87 Z m 0.53,0 H 7.8 V 5.34 H 7.27 Z m 0.53,0 V 6.4 H 8.33 V 5.87 Z m 0.53,0 H 8.86 V 5.34 H 8.33 Z m 0.53,0 V 6.4 H 9.39 V 5.87 Z m 0.53,0 H 9.92 V 5.34 H 9.39 Z m 0.53,0 V 6.4 h 0.53 V 5.87 Z m 0.53,0 h 0.53 V 5.34 H 10.45 Z M 1.99,5.56 H 2.52 V 6.09 H 1.99 Z m 0.8,2.34 v 2.35 H 3.22 V 7.9 H 2.8 Z M 7.21,8.45 A 0.65,0.65 0 0 0 6.65,8.72 C 6.53,8.53 6.37,8.45 6.13,8.45 5.93,8.45 5.8,8.51 5.67,8.65 V 8.5 H 5.28 v 1.76 H 5.71 V 9.39 C 5.71,9.22 5.72,9.1 5.75,9.03 5.8,8.91 5.91,8.85 6.05,8.85 c 0.11,0 0.21,0.04 0.27,0.1 0.05,0.07 0.07,0.18 0.07,0.34 v 0.97 H 6.82 V 9.39 c 0,-0.2 0.01,-0.3 0.06,-0.38 0.05,-0.1 0.16,-0.16 0.3,-0.16 0.1,0 0.18,0.03 0.24,0.1 0.06,0.07 0.08,0.17 0.08,0.34 v 0.97 H 7.92 V 9.23 A 0.95,0.95 0 0 0 7.81,8.73 C 7.7,8.55 7.48,8.45 7.21,8.45 Z m 1.88,0 c -0.52,0 -0.9,0.39 -0.9,0.93 0,0.53 0.37,0.91 0.89,0.91 a 0.7,0.7 0 0 0 0.58,-0.27 v 0.23 h 0.39 V 8.49 H 9.66 V 8.73 A 0.65,0.65 0 0 0 9.09,8.45 Z M 3.72,8.49 v 0.38 h 0.69 l -0.78,1 v 0.38 H 4.97 V 9.87 H 4.14 l 0.77,-1 V 8.49 Z m 5.41,0.35 c 0.3,0 0.52,0.22 0.52,0.54 A 0.6,0.6 0 0 1 9.52,9.74 0.49,0.49 0 0 1 9.14,9.9 0.5,0.5 0 0 1 8.62,9.38 c 0,-0.32 0.21,-0.54 0.51,-0.54 z"
     id="path4"
     inkscape:connector-curvature="0"
     style="fill:#ecec1c" />
</svg>
