<?xml version="1.0" encoding="UTF-8" standalone="no"?>
<svg
   xmlns:dc="http://purl.org/dc/elements/1.1/"
   xmlns:cc="http://creativecommons.org/ns#"
   xmlns:rdf="http://www.w3.org/1999/02/22-rdf-syntax-ns#"
   xmlns:svg="http://www.w3.org/2000/svg"
   xmlns="http://www.w3.org/2000/svg"
   xmlns:sodipodi="http://sodipodi.sourceforge.net/DTD/sodipodi-0.dtd"
   xmlns:inkscape="http://www.inkscape.org/namespaces/inkscape"
   width="48"
   height="48"
   viewBox="0 0 12.7 12.7"
   version="1.1"
   id="svg6"
   sodipodi:docname="application-x-xz-compressed-tar.svg"
   inkscape:version="0.92.4 (5da689c313, 2019-01-14)">
  <defs
     id="defs10" />
  <sodipodi:namedview
     pagecolor="#ffffff"
     bordercolor="#666666"
     borderopacity="1"
     objecttolerance="10"
     gridtolerance="10"
     guidetolerance="10"
     inkscape:pageopacity="0"
     inkscape:pageshadow="2"
     inkscape:window-width="1087"
     inkscape:window-height="480"
     id="namedview8"
     showgrid="false"
     inkscape:zoom="4.9166667"
     inkscape:cx="2.1355932"
     inkscape:cy="24"
     inkscape:window-x="0"
     inkscape:window-y="25"
     inkscape:window-maximized="0"
     inkscape:current-layer="svg6" />
  <metadata
     id="metadata2">
    <rdf:RDF>
      <cc:Work>
        <dc:format>image/svg+xml</dc:format>
        <dc:type
           rdf:resource="http://purl.org/dc/dcmitype/StillImage" />
        <dc:title></dc:title>
      </cc:Work>
    </rdf:RDF>
  </metadata>
  <path
     d="m 1.21,0.86 -1.07,2.8 h 6.04 v -2.8 z m 5.18,0 v 2.8 h 6.11 l -1.1,-2.8 z m -6.2,3.02 v 6.32 c 0,0.64 0.25,1.18 0.74,1.64 0.5,0.45 1.08,0.67 1.78,0.67 h 7.25 c 0.7,0 1.28,-0.22 1.78,-0.67 0.49,-0.46 0.73,-1 0.73,-1.64 V 3.9 h -1.12 v 6.3 c 0,0.36 -0.13,0.66 -0.4,0.91 A 1.4,1.4 0 0 1 9.96,11.49 H 2.71 A 1.4,1.4 0 0 1 1.72,11.11 1.19,1.19 0 0 1 1.31,10.21 V 3.88 Z M 1.72,5.29 V 6.35 H 2 V 7.41 H 2.53 V 6.35 H 2.79 V 5.29 Z M 3.04,5.34 V 5.87 H 3.57 V 5.34 Z M 3.57,5.87 V 6.4 H 4.1 V 5.87 Z m 0.53,0 H 4.63 V 5.34 H 4.1 Z m 0.53,0 V 6.4 H 5.16 V 5.87 Z m 0.53,0 H 5.68 V 5.34 H 5.16 Z m 0.52,0 V 6.4 H 6.21 V 5.87 Z m 0.53,0 H 6.74 V 5.34 H 6.21 Z m 0.53,0 V 6.4 H 7.27 V 5.87 Z m 0.53,0 H 7.8 V 5.34 H 7.27 Z m 0.53,0 V 6.4 H 8.33 V 5.87 Z m 0.53,0 H 8.86 V 5.34 H 8.33 Z m 0.53,0 V 6.4 H 9.39 V 5.87 Z m 0.53,0 H 9.92 V 5.34 H 9.39 Z m 0.53,0 V 6.4 h 0.53 V 5.87 Z m 0.53,0 h 0.53 V 5.34 H 10.45 Z M 1.99,5.56 H 2.52 V 6.09 H 1.99 Z M 2.03,7.98 H 2.04 V 8.64 H 1.8 v 0.43 h 0.23 v 1.52 H 2.5 V 9.07 H 2.78 V 8.63 H 2.5 V 7.98 Z m 1.91,0.6 c -0.58,0 -1,0.45 -1,1.04 0,0.6 0.42,1.02 0.99,1.02 a 0.8,0.8 0 0 0 0.65,-0.3 v 0.25 H 5 V 8.64 H 4.57 V 8.9 A 0.73,0.73 0 0 0 3.93,8.6 L 3.94,8.59 Z m 2.27,0 c -0.2,0 -0.3,0.07 -0.42,0.25 V 8.63 H 5.36 v 1.96 H 5.83 V 9.5 C 5.83,9.2 5.96,9.04 6.25,9.03 V 8.58 Z m 1.17,0.05 0.6,0.95 -0.7,1 h 0.57 l 0.4,-0.66 0.42,0.67 h 0.56 l -0.7,-1 0.6,-0.95 H 8.6 L 8.26,9.23 7.91,8.63 Z m 2.05,0 v 0.43 h 0.76 l -0.86,1.1 v 0.43 h 1.49 V 10.17 H 9.89 L 10.75,9.06 V 8.63 Z M 3.99,9.02 c 0.33,0 0.57,0.25 0.57,0.6 0,0.15 -0.05,0.3 -0.14,0.4 a 0.54,0.54 0 0 1 -0.43,0.19 c -0.34,0 -0.57,-0.23 -0.57,-0.58 0,-0.35 0.23,-0.6 0.57,-0.6 z m 2.56,1.12 v 0.45 h 0.47 v -0.45 z"
     id="path4"
     inkscape:connector-curvature="0"
     style="fill:#ecec1c" />
</svg>
