<?xml version="1.0" encoding="UTF-8" standalone="no"?>
<svg
   xmlns:dc="http://purl.org/dc/elements/1.1/"
   xmlns:cc="http://creativecommons.org/ns#"
   xmlns:rdf="http://www.w3.org/1999/02/22-rdf-syntax-ns#"
   xmlns:svg="http://www.w3.org/2000/svg"
   xmlns="http://www.w3.org/2000/svg"
   xmlns:sodipodi="http://sodipodi.sourceforge.net/DTD/sodipodi-0.dtd"
   xmlns:inkscape="http://www.inkscape.org/namespaces/inkscape"
   width="48"
   height="48"
   viewBox="0 0 12.7 12.7"
   version="1.1"
   id="svg6"
   sodipodi:docname="application-x-lzma-compressed-tar.svg"
   inkscape:version="0.92.5 (2060ec1f9f, 2020-04-08)">
  <metadata
     id="metadata12">
    <rdf:RDF>
      <cc:Work
         rdf:about="">
        <dc:format>image/svg+xml</dc:format>
        <dc:type
           rdf:resource="http://purl.org/dc/dcmitype/StillImage" />
        <dc:title></dc:title>
      </cc:Work>
    </rdf:RDF>
  </metadata>
  <defs
     id="defs10" />
  <sodipodi:namedview
     pagecolor="#ffffff"
     bordercolor="#666666"
     borderopacity="1"
     objecttolerance="10"
     gridtolerance="10"
     guidetolerance="10"
     inkscape:pageopacity="0"
     inkscape:pageshadow="2"
     inkscape:window-width="1087"
     inkscape:window-height="480"
     id="namedview8"
     showgrid="false"
     inkscape:zoom="4.9166667"
     inkscape:cx="2.1355932"
     inkscape:cy="24"
     inkscape:window-x="0"
     inkscape:window-y="25"
     inkscape:window-maximized="0"
     inkscape:current-layer="svg6" />
  <path
     style="fill:#ecec1c;stroke-width:1"
     d="M 1.3229166,0.79374999 0.26510009,3.4401 H 6.0848999 V 0.79374999 Z m 5.2921834,0 V 3.4401 h 5.8198 L 11.377084,0.79374999 Z M 0.26510009,3.96875 v 6.35 c 0,1.172 0.94414991,2.11615 2.11614991,2.11615 h 7.9375 a 2.112,2.112 0 0 0 2.11615,-2.11615 v -6.35 h -0.792716 v 6.35 A 1.32,1.32 0 0 1 10.31875,11.642183 H 2.3802165 A 1.32,1.32 0 0 1 1.056783,10.31875 v -6.35 z M 1.8531169,4.9769572 V 6.0368407 H 2.1332031 V 7.0972412 H 2.6628865 V 6.0368407 H 2.922819 V 4.9769572 Z m 1.3198162,0.050126 V 5.5567667 H 3.7031332 V 5.0270833 Z M 3.7031332,5.5567667 V 6.0869668 H 4.2328166 V 5.5567667 Z m 0.5296834,0 H 4.7630167 V 5.0270833 H 4.2328166 Z m 0.5302001,0 V 6.0869668 H 5.2932168 V 5.5567667 Z m 0.5302001,0 h 0.519865 V 5.0270833 h -0.519865 z m 0.519865,0 V 6.0869668 H 6.3427652 V 5.5567667 Z m 0.5296834,0 H 6.8729653 V 5.0270833 H 6.3427652 Z m 0.5302001,0 V 6.0869668 H 7.4031657 V 5.5567667 Z m 0.5302004,0 H 7.9328491 V 5.0270833 H 7.4031657 Z m 0.5296834,0 V 6.0869668 H 8.4630492 V 5.5567667 Z m 0.5302001,0 H 8.9932493 V 5.0270833 H 8.4630492 Z m 0.5302001,0 V 6.0869668 H 9.522933 V 5.5567667 Z m 0.5296837,0 h 0.5302 V 5.0270833 h -0.5302 z m 0.5302,0 v 0.5302001 h 0.529684 V 5.5567667 Z m 0.529684,0 h 0.5302 V 5.0270833 h -0.5302 z M 2.1228678,5.2472248 H 2.6530681 V 5.7769082 H 2.1228678 Z m 2.3001181,2.2996014 v 0.010335 z M 1.8298625,8.4098224 V 8.9090168 H 1.6800008 v 0.3100586 h 0.160197 V 10.368876 H 2.1600749 V 9.2201089 H 2.3600627 V 8.9002319 H 2.1600749 V 8.4098224 H 1.8401978 Z m 3.7599771,0 v 1.9600866 h 0.320394 V 8.4098224 H 5.600175 Z m 2.3890015,0.45837 a 0.41,0.41 0 0 0 -0.038757,0.00103 0.39999999,0.39999999 0 0 0 -0.040308,0 0.39999999,0.39999999 0 0 0 -0.2997234,0.1700189 V 8.9002319 H 7.2998128 V 10.369909 H 7.6202066 V 9.6500568 c 0,-0.15 0.00997,-0.25024 0.029972,-0.3002399 A 0.24,0.24 0 0 1 7.8801391,9.1901366 c 0.09,0 0.1698064,0.039735 0.2098063,0.099735 0.04,0.05 0.059945,0.1400863 0.059945,0.2800863 V 10.369909 H 8.4697672 V 9.6500568 c 0,-0.1699998 0.010126,-0.249877 0.050126,-0.319877 A 0.24,0.24 0 0 1 8.7400349,9.1901366 c 0.08,0 0.1499878,0.029735 0.1999877,0.099735 0.04,0.05 0.050126,0.1300863 0.050126,0.2800863 V 10.369909 H 9.3198444 V 9.5198323 A 0.84999998,0.84999998 0 0 0 9.2299276,9.1002195 C 9.1499274,8.9502196 8.9800072,8.8697426 8.7700071,8.8697429 A 0.47999999,0.47999999 0 0 0 8.3400592,9.1002195 0.41,0.41 0 0 0 7.9788411,8.8697429 Z m -4.8286458,0.00155 c -0.4,0 -0.6903971,0.3204953 -0.6903971,0.7704955 0,0.4399991 0.2800617,0.7596431 0.680062,0.7596431 0.1899999,0 0.3201016,-0.05963 0.4501014,-0.219625 v 0.189652 H 3.8902018 V 8.9002319 H 3.5899616 v 0.1999876 a 0.48999999,0.48999999 0 0 0 -0.409794,-0.2304766 0.48999999,0.48999999 0 0 0 -0.029972,-5e-7 z m 1.5699301,0 c -0.1400001,0 -0.2102401,0.04035 -0.3002402,0.1803505 V 8.9002319 H 4.120162 V 10.369909 H 4.4498575 V 9.5498046 c 0,-0.22 0.10024,-0.3400309 0.3002401,-0.3400309 V 8.8697429 Z m 5.4901036,0 c -0.3999995,0 -0.6800615,0.3204953 -0.6800615,0.7704955 0,0.4399991 0.280062,0.7596431 0.6800615,0.7596431 0.19,0 0.309767,-0.05963 0.439767,-0.219625 v 0.189652 h 0.30024 V 8.9002319 h -0.30024 v 0.1999876 a 0.48999999,0.48999999 0 0 0 -0.399976,-0.2304766 0.48999999,0.48999999 0 0 0 -0.03979,-5e-7 z m -4.0503983,0.030489 v 0.319877 H 6.6802124 L 6.0900675,10.050032 v 0.319877 H 7.1199787 V 10.050032 H 6.4802247 L 7.080188,9.2201089 V 8.9002319 Z M 3.1801676,9.1901366 v 0.00982 c 0.2300001,0 0.3999756,0.1801019 0.3999756,0.4501018 0,0.1 -0.040252,0.2197235 -0.1002522,0.2997234 A 0.35999999,0.35999999 0 0 1 3.1801676,10.080005 c -0.2299999,0 -0.3999754,-0.1699483 -0.3999757,-0.4299482 0,-0.2699999 0.1699758,-0.4599202 0.3999757,-0.4599202 z m 7.0698524,0 v 0.00982 c 0.23,0 0.399976,0.1801019 0.399976,0.4501018 A 0.51999999,0.51999999 0 0 1 10.549744,9.9497802 0.35999999,0.35999999 0 0 1 10.25002,10.080005 c -0.23,0 -0.3999752,-0.1699483 -0.3999752,-0.4299482 0,-0.2699999 0.1599752,-0.4599202 0.3999752,-0.4599202 z M 4.9500853,10.029879 v 0.34003 H 5.279781 v -0.34003 z"
     id="path2"
     inkscape:connector-curvature="0" />
</svg>
