<?xml version="1.0" encoding="UTF-8" standalone="no"?>
<svg
   xmlns:dc="http://purl.org/dc/elements/1.1/"
   xmlns:cc="http://creativecommons.org/ns#"
   xmlns:rdf="http://www.w3.org/1999/02/22-rdf-syntax-ns#"
   xmlns:svg="http://www.w3.org/2000/svg"
   xmlns="http://www.w3.org/2000/svg"
   xmlns:sodipodi="http://sodipodi.sourceforge.net/DTD/sodipodi-0.dtd"
   xmlns:inkscape="http://www.inkscape.org/namespaces/inkscape"
   width="48"
   height="48"
   version="1.1"
   id="svg6"
   sodipodi:docname="audio-x-flac.svg"
   inkscape:version="0.92.4 (5da689c313, 2019-01-14)">
  <defs
     id="defs10" />
  <sodipodi:namedview
     pagecolor="#ffffff"
     bordercolor="#666666"
     borderopacity="1"
     objecttolerance="10"
     gridtolerance="10"
     guidetolerance="10"
     inkscape:pageopacity="0"
     inkscape:pageshadow="2"
     inkscape:window-width="1087"
     inkscape:window-height="480"
     id="namedview8"
     showgrid="false"
     inkscape:zoom="4.9166667"
     inkscape:cx="2.1355932"
     inkscape:cy="24"
     inkscape:window-x="0"
     inkscape:window-y="25"
     inkscape:window-maximized="0"
     inkscape:current-layer="svg6" />
  <metadata
     id="metadata2">
    <rdf:RDF>
      <cc:Work>
        <dc:format>image/svg+xml</dc:format>
        <dc:type
           rdf:resource="http://purl.org/dc/dcmitype/StillImage" />
        <dc:title></dc:title>
      </cc:Work>
    </rdf:RDF>
  </metadata>
  <path
     style="line-height:normal;text-indent:0;text-align:start;text-decoration:none;text-decoration-line:none;text-transform:none;fill:#ecec1c;marker:none"
     d="m 29.7,-0.08 c -2.04,0 -4.12,0.08 -4.51,0.1 H 7 a 2.94,2.94 0 0 0 -0.56,0 3.1,3.1 0 0 0 -2.44,3 V 45 c 0,1.57 1.43,3 3,3 h 34 c 1.57,0 3,-1.43 3,-3 V 18.82 c 0.02,-0.8 0.22,-9.93 -0.34,-10.5 l -9.6,-8.07 c -0.29,-0.28 -2.3,-0.34 -4.35,-0.33 z m 1.5,3.08 0.13,7.5 c 0.01,0.68 0.64,1.3 1.31,1.28 l 7.78,-0.13 c 0.13,0.01 0.26,0.01 0.4,-0.01 l 0.08,3.03 0.1,4.09 V 45 H 7 V 3.02 H 25.67 L 31.2,3.01 Z m -2.57,3.1 c -4.13,0.67 -8.87,1.35 -12.99,2.04 -1.09,0.53 -0.85,1.88 -0.9,2.87 v 13.16 c -2.8,-0.64 -5.87,1.45 -5.99,4.42 -0.2,1.85 1.46,3.47 3.27,3.5 3.23,0.09 5.68,-2.03 5.71,-4.72 -0.03,-4.5 0.01,-9 0,-13.51 0.5,-0.04 8.32,-1.47 9,-1.56 v 10.12 a 4.62,4.62 0 0 0 -5.8,3.5 c -0.47,1.54 0.24,3.36 1.77,4 3,1.36 7.2,-1.4 7.03,-4.63 -0.04,-6 0.04,-12.02 0,-18.02 C 29.66,6.7 29.27,6.07 28.63,6.11 Z M 11.59,34 c -0.61,0 -1.12,0.22 -1.48,0.66 -0.3,0.34 -0.4,0.68 -0.47,1.42 H 9.12 v 1.18 h 0.52 v 4.62 h 1.41 v -4.62 h 0.8 v -1.18 h -0.8 c 0.02,-0.54 0.2,-0.72 0.75,-0.72 h 0.14 V 34.02 A 2.43,2.43 0 0 0 11.59,34 Z m 0.98,0 v 7.88 H 14 V 34 h -1.42 z m 5.32,1.83 c -1.75,0 -3.01,1.31 -3.01,3.12 0,1.78 1.25,3.07 2.98,3.07 0.83,0 1.4,-0.27 1.96,-0.9 v 0.76 h 1.3 v -5.9 h -1.3 v 0.78 a 2.2,2.2 0 0 0 -1.93,-0.93 z m 7.15,0 a 3.06,3.06 0 0 0 -3.12,3.1 c 0,1.71 1.4,3.09 3.16,3.09 A 3,3 0 0 0 28,39.94 h -1.6 c -0.35,0.54 -0.75,0.78 -1.34,0.78 -0.98,0 -1.72,-0.77 -1.72,-1.8 0,-1.04 0.7,-1.79 1.69,-1.79 0.64,0 1.08,0.27 1.37,0.81 H 28 c -0.2,-0.6 -0.4,-0.9 -0.8,-1.28 a 3.2,3.2 0 0 0 -2.17,-0.83 z m -7,1.3 c 1.01,0 1.74,0.76 1.74,1.84 a 2,2 0 0 1 -0.43,1.21 c -0.29,0.34 -0.75,0.54 -1.3,0.54 -1.03,0 -1.74,-0.7 -1.74,-1.74 0,-1.08 0.71,-1.85 1.73,-1.85 z"
     id="path4"
     inkscape:connector-curvature="0" />
</svg>
