<?xml version="1.0" encoding="UTF-8" standalone="no"?>
<svg
   xmlns:dc="http://purl.org/dc/elements/1.1/"
   xmlns:cc="http://creativecommons.org/ns#"
   xmlns:rdf="http://www.w3.org/1999/02/22-rdf-syntax-ns#"
   xmlns:svg="http://www.w3.org/2000/svg"
   xmlns="http://www.w3.org/2000/svg"
   xmlns:sodipodi="http://sodipodi.sourceforge.net/DTD/sodipodi-0.dtd"
   xmlns:inkscape="http://www.inkscape.org/namespaces/inkscape"
   width="48"
   height="48"
   version="1.1"
   id="svg35"
   sodipodi:docname="image-bmp.svg"
   inkscape:version="0.92.4 (5da689c313, 2019-01-14)">
  <metadata
     id="metadata39">
    <rdf:RDF>
      <cc:Work
         rdf:about="">
        <dc:format>image/svg+xml</dc:format>
        <dc:type
           rdf:resource="http://purl.org/dc/dcmitype/StillImage" />
        <dc:title></dc:title>
      </cc:Work>
    </rdf:RDF>
  </metadata>
  <sodipodi:namedview
     pagecolor="#ffffff"
     bordercolor="#666666"
     borderopacity="1"
     objecttolerance="10"
     gridtolerance="10"
     guidetolerance="10"
     inkscape:pageopacity="0"
     inkscape:pageshadow="2"
     inkscape:window-width="1087"
     inkscape:window-height="480"
     id="namedview37"
     showgrid="false"
     inkscape:zoom="4.9166667"
     inkscape:cx="2.1355932"
     inkscape:cy="24"
     inkscape:window-x="0"
     inkscape:window-y="25"
     inkscape:window-maximized="0"
     inkscape:current-layer="svg35" />
  <defs
     id="defs31">
    <linearGradient
       id="a">
      <stop
         offset="0"
         stop-color="#dc85e9"
         id="stop2" />
      <stop
         offset="1"
         stop-color="#f2cbf8"
         id="stop4" />
    </linearGradient>
    <linearGradient
       id="b">
      <stop
         offset="0"
         stop-color="#dc85e9"
         id="stop7" />
      <stop
         offset="1"
         stop-color="#f2cbf8"
         id="stop9" />
    </linearGradient>
    <linearGradient
       id="c">
      <stop
         offset="0"
         stop-color="#fff"
         stop-opacity=".588"
         id="stop12" />
      <stop
         offset="1"
         stop-color="#fff"
         stop-opacity=".863"
         id="stop14" />
    </linearGradient>
    <linearGradient
       id="d">
      <stop
         offset="0"
         stop-color="#b3b3b3"
         id="stop17" />
      <stop
         offset="1"
         stop-color="#e6e6e6"
         id="stop19" />
    </linearGradient>
    <linearGradient
       id="e">
      <stop
         offset="0"
         stop-color="#e694bb"
         id="stop22" />
      <stop
         offset=".262"
         stop-color="#d3819a"
         id="stop24" />
      <stop
         offset=".705"
         stop-color="#b25a64"
         id="stop26" />
      <stop
         offset="1"
         stop-color="#98313d"
         id="stop28" />
    </linearGradient>
  </defs>
  <path
     d="M 10.213,2.354 C 9.435,2.336 8.647,2.393 7.879,2.357 v 11.34 c -0.136,0.568 0.145,0.729 0.666,0.621 1.477,-0.073 3.024,0.213 4.422,-0.404 1.785,-0.774 2.484,-3.305 1.271,-4.89 C 14.045,8.241 12.068,8.004 12.754,7.561 14.4,6.486 14.227,3.668 12.48,2.795 11.758,2.462 10.991,2.371 10.213,2.354 Z m 8.27,0.029 -1.64,11.986 h 1.114 l 1.121,-8.637 3.719,7.772 c 0.234,0.29 0.225,0.985 0.703,0.865 l 4.078,-8.572 1.12,8.504 c 0.26,0.166 0.787,0.018 1.146,0.068 L 28.34,3.477 C 28.198,3.147 28.403,2.402 28.002,2.383 L 23.359,12.217 19.143,3.373 C 18.904,3.074 18.889,2.401 18.483,2.383 Z m 16.898,0 C 34.536,2.378 33.687,2.416 32.844,2.391 v 11.912 c 0.24,0.166 0.76,0.013 1.11,0.062 V 9.812 C 34.054,9.497 33.74,8.729 34.187,8.783 35.78,8.709 37.577,9.043 38.916,7.91 40.509,6.466 39.974,3.236 37.895,2.64 37.067,2.437 36.226,2.388 35.381,2.383 Z M 9.029,3.512 c 0.798,0.022 1.609,-0.066 2.393,0.123 1.157,0.187 1.623,1.663 1.03,2.617 -0.694,1.234 -2.226,1.08 -3.423,1.09 z m 26.67,0.023 c 0.582,10e-4 1.16,0.032 1.729,0.166 1.466,0.42 1.706,2.834 0.379,3.586 -1.202,0.57 -2.577,0.292 -3.854,0.342 V 3.545 c 0.578,0.018 1.164,-0.01 1.746,-0.01 z M 9.03,8.557 c 1.11,0.028 2.287,-0.096 3.33,0.373 1.363,0.533 1.717,2.54 0.606,3.521 -1.086,0.974 -2.61,0.612 -3.936,0.684 z M 7.062,16.426 3.79,18.834 1.003,20.883 3.052,23.67 16.888,42.475 v 4.072 h 0.011 v 1.305 h 28.61 v -0.055 h 0.015 V 18.007 H 45.431 V 18.004 H 34.44 l -1.096,-1.49 -4.307,-0.014 1.108,1.506 H 16.887 V 36.63 L 5.84,21.619 12.87,16.447 29.037,16.5 7.061,16.426 Z m 13.283,5.039 H 42.067 V 41.39 H 20.39 l -0.045,-0.063 z"
     id="path33"
     inkscape:connector-curvature="0"
     style="fill:#ecec1c" />
</svg>
