<?xml version="1.0" encoding="UTF-8" standalone="no"?>
<svg
   xmlns:dc="http://purl.org/dc/elements/1.1/"
   xmlns:cc="http://creativecommons.org/ns#"
   xmlns:rdf="http://www.w3.org/1999/02/22-rdf-syntax-ns#"
   xmlns:svg="http://www.w3.org/2000/svg"
   xmlns="http://www.w3.org/2000/svg"
   xmlns:sodipodi="http://sodipodi.sourceforge.net/DTD/sodipodi-0.dtd"
   xmlns:inkscape="http://www.inkscape.org/namespaces/inkscape"
   width="48"
   height="48"
   version="1.1"
   id="svg4"
   sodipodi:docname="openoffice4-formula.svg"
   inkscape:version="0.92.4 (5da689c313, 2019-01-14)">
  <metadata
     id="metadata10">
    <rdf:RDF>
      <cc:Work
         rdf:about="">
        <dc:format>image/svg+xml</dc:format>
        <dc:type
           rdf:resource="http://purl.org/dc/dcmitype/StillImage" />
        <dc:title></dc:title>
      </cc:Work>
    </rdf:RDF>
  </metadata>
  <defs
     id="defs8" />
  <sodipodi:namedview
     pagecolor="#ffffff"
     bordercolor="#666666"
     borderopacity="1"
     objecttolerance="10"
     gridtolerance="10"
     guidetolerance="10"
     inkscape:pageopacity="0"
     inkscape:pageshadow="2"
     inkscape:window-width="1121"
     inkscape:window-height="480"
     id="namedview6"
     showgrid="false"
     inkscape:zoom="4.9166667"
     inkscape:cx="3.0508475"
     inkscape:cy="24"
     inkscape:window-x="0"
     inkscape:window-y="25"
     inkscape:window-maximized="0"
     inkscape:current-layer="svg4" />
  <path
     d="m 29.705,-0.084 c -2.047,0.008 -4.121,0.088 -4.517,0.098 H 7 a 2.938,2.938 0 0 0 -0.563,0 C 5.064,0.276 3.975,1.612 4,3.012 V 45 c 0,1.57 1.43,3 3,3 h 34 c 1.57,0 3,-1.43 3,-3 V 18.818 C 44.018,18.026 44.215,8.891 43.664,8.322 l -9.61,-8.074 c -0.282,-0.275 -2.302,-0.34 -4.349,-0.332 z m 1.49,3.094 0.133,7.504 c 0.012,0.68 0.638,1.29 1.317,1.279 l 7.771,-0.137 c 0.133,0.018 0.268,0.017 0.4,-0.006 L 40.898,14.68 41,18.77 V 44.996 H 7 V 3.021 H 25.672 Z M 17.818,17.332 c -0.074,0 -0.144,0.04 -0.207,0.111 -0.117,0.03 -0.204,0.08 -0.22,0.17 l -2.317,13.325 -2.912,-7.78 c -0.065,-0.173 -0.648,0.156 -1.305,0.74 l -0.248,0.223 c -0.657,0.585 -1.133,1.195 -1.068,1.37 l 4.479,11.966 c 0.004,0.008 0.014,0.01 0.02,0.016 0.153,0.273 0.602,0.608 1.17,0.843 l 0.278,0.116 c 0.732,0.303 1.36,0.317 1.41,0.03 l 3.147,-18.105 h 17.892 c 0.293,0 0.528,-0.609 0.528,-1.369 v -0.287 c 0,-0.759 -0.236,-1.369 -0.528,-1.369 H 17.819 Z m 7.485,7 c -0.234,0.06 -0.64,0.341 -1.041,0.744 l -0.203,0.201 c -0.536,0.537 -0.86,1.077 -0.725,1.213 l 3.594,3.594 -3.594,3.592 c -0.135,0.136 0.189,0.677 0.725,1.213 l 0.203,0.203 c 0.536,0.536 1.077,0.86 1.213,0.724 l 3.591,-3.593 3.594,3.593 c 0.136,0.135 0.677,-0.188 1.213,-0.724 l 0.201,-0.203 c 0.537,-0.536 0.86,-1.077 0.725,-1.213 l -3.592,-3.592 3.592,-3.594 c 0.136,-0.136 -0.188,-0.677 -0.725,-1.213 l -0.201,-0.2 c -0.537,-0.538 -1.077,-0.86 -1.213,-0.725 l -3.594,3.591 -3.591,-3.591 c -0.034,-0.034 -0.094,-0.04 -0.172,-0.02 z"
     id="path2"
     inkscape:connector-curvature="0"
     style="fill:#ecec1c" />
</svg>
