<?xml version="1.0" encoding="UTF-8" standalone="no"?>
<svg
   xmlns:dc="http://purl.org/dc/elements/1.1/"
   xmlns:cc="http://creativecommons.org/ns#"
   xmlns:rdf="http://www.w3.org/1999/02/22-rdf-syntax-ns#"
   xmlns:svg="http://www.w3.org/2000/svg"
   xmlns="http://www.w3.org/2000/svg"
   xmlns:sodipodi="http://sodipodi.sourceforge.net/DTD/sodipodi-0.dtd"
   xmlns:inkscape="http://www.inkscape.org/namespaces/inkscape"
   width="48"
   height="48"
   version="1.1"
   id="svg6"
   sodipodi:docname="text-x-perl.svg"
   inkscape:version="0.92.5 (2060ec1f9f, 2020-04-08)">
  <metadata
     id="metadata12">
    <rdf:RDF>
      <cc:Work
         rdf:about="">
        <dc:format>image/svg+xml</dc:format>
        <dc:type
           rdf:resource="http://purl.org/dc/dcmitype/StillImage" />
        <dc:title></dc:title>
      </cc:Work>
    </rdf:RDF>
  </metadata>
  <defs
     id="defs10" />
  <sodipodi:namedview
     pagecolor="#ffffff"
     bordercolor="#666666"
     borderopacity="1"
     objecttolerance="10"
     gridtolerance="10"
     guidetolerance="10"
     inkscape:pageopacity="0"
     inkscape:pageshadow="2"
     inkscape:window-width="1366"
     inkscape:window-height="711"
     id="namedview8"
     showgrid="false"
     inkscape:zoom="10.729167"
     inkscape:cx="24"
     inkscape:cy="24"
     inkscape:window-x="0"
     inkscape:window-y="25"
     inkscape:window-maximized="1"
     inkscape:current-layer="svg6" />
  <path
     style="line-height:normal;text-indent:0;text-align:start;text-decoration:none;text-decoration-line:none;text-transform:none;marker:none;fill:#ecec1c"
     d="m 29.705078,-0.08398437 c -2.047,0.008 -4.121578,0.08765624 -4.517578,0.09765625 H 7 a 2.938,2.938 0 0 0 -0.5625,0 C 5.0645,0.27567188 3.975,1.6117188 4,3.0117188 V 45 c 0,1.57 1.43,3 3,3 h 34 c 1.57,0 3,-1.43 3,-3 V 18.818359 c 0.018,-0.792 0.215062,-9.9270934 -0.335938,-10.4960934 L 34.054688,0.24804688 c -0.283001,-0.27500001 -2.30261,-0.34003125 -4.34961,-0.33203125 z m 1.490234,3.09374997 0.132813,7.5039064 c 0.012,0.68 0.637406,1.290297 1.316406,1.279297 l 7.771485,-0.136719 c 0.133,0.018 0.26839,0.01714 0.40039,-0.0059 l 0.08203,3.029297 L 41,18.769531 V 44.996094 H 7 V 3.0214844 H 25.671875 Z M 10,7 v 2 h 6 V 7 Z m 8,0 v 2 h 6 V 7 Z m -6,4 v 2 h 16 v -2 z m -2,4 v 2 h 14 v -2 z m 16,0 v 2 h 11 v -2 z m -16,4 v 2 h 7 v -2 z m 9,0 v 2 h 11 v -2 z m 13,0 v 2 h 4 v -2 z m -20,4 v 2 h 22 v -2 z m 0,4 v 2 h 17.599609 v -2 z m 20,0 v 2 h 4 v -2 z m -22,4 v 2 h 17 v -2 z m 20,0 v 2 h 6 v -2 z m 2.484375,3.408203 V 41.8125 H 34.1875 v -7.404297 z m -16.642578,0.296875 c -0.614,0.002 -1.228797,0.01191 -1.841797,0.0039 V 41.8125 h 1.832031 v -2.464844 c 0.888,-0.022 1.810203,0.09362 2.658203,-0.234375 1.02,-0.333 1.515985,-1.477328 1.333985,-2.486328 -0.087,-1.081 -1.121531,-1.813859 -2.144531,-1.880859 a 28.201,28.201 0 0 0 -1.837891,-0.04102 z m -0.0098,1.330078 c 0.421,0.007 0.844625,-0.01442 1.265625,0.01758 0.802,0.02 1.127625,1.081578 0.640625,1.642578 -0.506,0.497 -1.26925,0.273219 -1.90625,0.324219 z m 15.339844,0.310547 a 2.267,2.267 0 0 0 -0.205078,0.0098 c -0.655,0.06 -1.276703,0.400906 -1.595703,1.003906 V 36.482422 H 27.667969 V 41.8125 h 1.703125 v -0.816406 c 0.038,-0.825 -0.101328,-1.675563 0.138672,-2.476563 0.297,-0.862 1.405187,-0.952984 2.117187,-0.583984 l -0.0039,-1.542969 a 2.267,2.267 0 0 0 -0.451172,-0.04687 z m -7.566406,0.002 a 3.572,3.572 0 0 0 -0.236328,0.0039 c -0.935,0.044 -1.847938,0.450485 -2.335938,1.271485 -0.66,1.224 -0.493094,3.04975 0.753906,3.84375 1.32,0.774 2.97175,0.514437 4.34375,0.02344 v -1.185546 c -0.335,-0.118001 -1.235515,0.554187 -1.853515,0.492187 -0.81,0.176 -1.869953,-0.219734 -1.876953,-1.177734 h 3.68164 c 0.387,0.125 0.305781,-0.220375 0.300781,-0.484375 0.034,-1.005 -0.460624,-2.035375 -1.390624,-2.484375 A 3.572,3.572 0 0 0 23.605435,36.3477 Z m -0.08789,1.128906 c 0.595,-0.04 1.170281,0.461797 1.113281,1.091797 h -1.953125 c -0.622,0.016 0.154938,-1.065015 0.585938,-1.041015 a 0.975,0.975 0 0 1 0.253906,-0.05078 z"
     id="path2"
     inkscape:connector-curvature="0" />
</svg>
