<svg xmlns="http://www.w3.org/2000/svg" version="1" viewBox="0 0 24 24"><path fill="#ff7f2a" d="M1.92.6C1.16.6.55 1.2.55 1.95v2.29l.01.1v6.68H.55v2.14c0 .76.6 1.37 1.37 1.37h3.62v5.4h-.01v2.13c0 .76.6 1.37 1.37 1.37h15.27c.76 0 1.37-.61 1.37-1.37V11.02h-4.98v-8.9H8.65L7.1.59H1.92zm.6 2.92h14.02c.37 0 .67.3.67.66v.6H2.9l-.05.01a.5.5 0 0 0-.44.51l.02.08-.01.1v2.37c0 .39.23.7.53.7.3 0 .55-.31.55-.7V5.83h13.7v5.19h-3.59L12.1 9.49H6.9a1.37 1.37 0 0 0-1.37 1.37v2.23h-3a.66.66 0 0 1-.67-.66V4.18c0-.36.3-.66.67-.66zm5.02 9.04H23.5l.01 1.04H8.16v2.02c0 .39-.25.7-.57.7-.32 0-.58-.31-.58-.7v-2.37l.02-.1-.02-.07c0-.27.2-.48.46-.51l.07-.02z"/></svg>