<svg xmlns="http://www.w3.org/2000/svg" version="1" width="24" height="24"><g fill="none" stroke="#2ca02c"><path d="M21.43 11.88A9.42 9.42 0 0 0 12 2.45a9.42 9.42 0 0 0-9.44 9.45 9.42 9.42 0 0 0 9.44 9.44 9.42 9.42 0 0 0 9.44-9.44zm-5.99 0A3.44 3.44 0 0 1 12 15.34a3.44 3.44 0 0 1-3.46-3.46c0-1.9 1.4-3.45 3.46-3.45a3.39 3.39 0 0 1 3.46 3.45z" stroke-width="1.38"/><path d="M11.99 8.43a3.46 3.46 0 0 0-3.46 3.46A3.46 3.46 0 0 0 12 15.34a3.46 3.46 0 0 0 3.46-3.46 3.46 3.46 0 0 0-3.46-3.45zm0 1.73a1.73 1.73 0 1 1 0 3.45 1.73 1.73 0 0 1 0-3.45z" style="marker:none" overflow="visible" stroke-width=".46" stroke-linejoin="round"/></g><path d="M14.36 22.25c-1.75-5.76 1.94-7.87 1.94-7.87-.25 3.08 1.5 5.47 1.5 5.47.64-.2 1.86-1.1 1.86-1.1 0 1.1-.64 3.5-.64 3.5s2.26-1.76 2.98-4.67c.7-2.9-1.36-5.83-1.36-5.83a7.8 7.8 0 0 1-1.94 5.64c.07-.08.13-.17.17-.27.25-.49.64-1.76.4-4.71-.32-4.15-4.07-5.9-4.07-5.9.32 2.53-.65 3.11-2.92 7.9-2.27 4.8 2.08 7.84 2.08 7.84zm0 0" fill="#ff2a2a"/></svg>
