<svg xmlns="http://www.w3.org/2000/svg" version="1" width="24" height="24"><g fill="none" stroke="green"><path d="M21.57 11.77A9.54 9.54 0 0 0 12 2.2a9.54 9.54 0 0 0-9.57 9.57A9.54 9.54 0 0 0 12 21.33a9.54 9.54 0 0 0 9.57-9.56zm-6.07 0c0 1.92-1.53 3.5-3.5 3.5a3.48 3.48 0 0 1-3.5-3.5c0-1.93 1.42-3.5 3.5-3.5s3.5 1.6 3.5 3.5z" stroke-width="1.4"/><path style="marker:none" d="M12 8.27a3.5 3.5 0 0 0-3.5 3.5 3.5 3.5 0 1 0 3.5-3.5zm0 1.75a1.75 1.75 0 1 1 0 3.5 1.75 1.75 0 0 1 0-3.5z" overflow="visible" stroke-width=".47" stroke-linejoin="round"/></g><path d="M18.96 10.69H12.6v11.6h9.45V13.4a9.85 9.85 0 0 0-3.09-2.72z" fill="#999"/><path d="M12.6 10.69h6.36c.4.13 2.53 1.66 3.1 2.72v8.88H12.6v-11.6z" fill="none" stroke="#4d4d4d" stroke-width=".43" stroke-linejoin="round"/><path d="M18.96 10.69l-.04 2.85 3.13-.13" fill="none" stroke="#4d4d4d" stroke-width=".43"/></svg>