<svg xmlns="http://www.w3.org/2000/svg" version="1" width="24" height="24"><g fill="none" stroke="#2ca02c"><path d="M21.32 12A9.3 9.3 0 0 0 12 2.68 9.3 9.3 0 0 0 2.68 12 9.3 9.3 0 0 0 12 21.32 9.3 9.3 0 0 0 21.32 12zm-5.91 0A3.4 3.4 0 0 1 12 15.41 3.4 3.4 0 0 1 8.59 12c0-1.88 1.38-3.41 3.41-3.41s3.41 1.57 3.41 3.41z" stroke-width="1.36"/><path style="marker:none" d="M12 8.59a3.41 3.41 0 0 0 0 6.82 3.41 3.41 0 0 0 0-6.82zm0 1.7a1.7 1.7 0 1 1 0 3.42 1.7 1.7 0 0 1 0-3.42z" overflow="visible" stroke-linejoin="round" stroke-width=".46"/></g><g transform="translate(-17.1 1.09) scale(.45455)"><path fill="#009e80" paint-order="markers fill stroke" d="M66.33 22.66h19.16v22.73H66.33z"/><path style="marker:none" d="M69.04 45.54H66.4c-.21-.27-.05-.8-.1-1.2V22.76l.03-.09.07-.04H69m13.8 0h2.64c.12 0 .1.72.1 1.2V45.4c0 .12-.4.13-.93.13h-1.8" display="block" overflow="visible" fill="none" stroke="navy" stroke-width=".92" stroke-linejoin="round"/><rect y="22.62" x="69.04" ry="0" rx="0" height="22.92" width="13.75" fill="none" stroke="navy" stroke-width=".92"/><path d="M66.75 24h1.83v1.83h-1.83zm0 3.66h1.83v1.84h-1.83zm0 3.67h1.83v1.84h-1.83zm0 3.67h1.83v1.83h-1.83zm0 3.67h1.83v1.83h-1.83zm0 3.66h1.83v1.84h-1.83z" fill="navy"/><path style="marker:none" d="M69.96 33.62h11.91" display="block" overflow="visible" fill="none" stroke="navy" stroke-width=".92" stroke-linecap="square" stroke-linejoin="round"/><path d="M83.25 24h1.83v1.83h-1.83zm0 3.66h1.83v1.84h-1.83zm0 3.67h1.83v1.84h-1.83zm0 3.67h1.83v1.83h-1.83zm0 3.67h1.83v1.83h-1.83zm0 3.66h1.83v1.84h-1.83z" fill="navy"/></g></svg>
