<svg xmlns="http://www.w3.org/2000/svg" version="1" width="24" height="24"><g fill="none" stroke="green"><path d="M13.23 7.74a5.28 5.28 0 0 0-5.29-5.3 5.28 5.28 0 0 0-5.3 5.3 5.28 5.28 0 0 0 5.3 5.3 5.28 5.28 0 0 0 5.3-5.3zm-3.35 0c0 1.07-.85 1.94-1.94 1.94A1.93 1.93 0 0 1 6 7.74C6 6.67 6.8 5.8 7.94 5.8s1.94.9 1.94 1.94z" stroke-width=".78"/><path d="M7.94 5.8a1.94 1.94 0 1 0 0 3.88 1.94 1.94 0 0 0 0-3.88zm0 .97a.97.97 0 1 1 0 1.94.97.97 0 0 1 0-1.94z" style="marker:none" overflow="visible" stroke-width=".26" stroke-linejoin="round"/><path d="M21.7 16.26a5.28 5.28 0 0 0-5.3-5.3 5.28 5.28 0 0 0-5.28 5.3 5.28 5.28 0 0 0 5.29 5.3 5.28 5.28 0 0 0 5.29-5.3zm-3.36 0c0 1.07-.85 1.94-1.93 1.94a1.93 1.93 0 0 1-1.94-1.94c0-1.07.79-1.94 1.94-1.94s1.93.9 1.93 1.94z" stroke-width=".78"/><path d="M16.4 14.32a1.94 1.94 0 1 0 0 3.88 1.94 1.94 0 0 0 0-3.88zm0 .97a.97.97 0 1 1 0 1.94.97.97 0 0 1 0-1.94z" style="marker:none" overflow="visible" stroke-width=".26" stroke-linejoin="round"/></g><path style="marker:none" d="M10.22 17.02l-4.16 4.8-4.15-4.8h1.75v-3.94h4.81v3.94z" overflow="visible" fill="green"/></svg>