<svg xmlns="http://www.w3.org/2000/svg" version="1" width="24" height="24"><g fill="none" stroke="#2ca02c"><path d="M21.44 11.68a9.63 9.63 0 0 0-9.65-9.65 9.63 9.63 0 0 0-9.65 9.65 9.63 9.63 0 0 0 9.65 9.65 9.63 9.63 0 0 0 9.65-9.65zm-6.12 0a3.52 3.52 0 0 1-3.53 3.53 3.52 3.52 0 0 1-3.53-3.53 3.44 3.44 0 0 1 3.53-3.53c2.1 0 3.53 1.63 3.53 3.53z" stroke-width="1.41"/><path d="M11.8 8.15a3.53 3.53 0 0 0-3.54 3.53 3.53 3.53 0 0 0 3.53 3.53 3.53 3.53 0 0 0 3.53-3.53 3.53 3.53 0 0 0-3.53-3.53zm0 1.77a1.77 1.77 0 1 1-.01 3.53 1.77 1.77 0 0 1 0-3.53z" style="marker:none" overflow="visible" stroke-linejoin="round" stroke-width=".47"/></g><path d="M15.2 18.89l-.04 3.79h3.64l-.04-3.75 3.8-.02v-3.64l-3.8-.02.04-3.75h-3.64v3.8l-3.77-.03v3.64l2.28-.02z" fill="#800033"/></svg>
