<svg xmlns="http://www.w3.org/2000/svg" width="24" height="24"><path style="line-height:1.25;-inkscape-font-specification:sans-serif" d="M12 1.71A10.18 10.29 0 0 0 1.82 12 10.18 10.29 0 0 0 12 22.29 10.18 10.29 0 0 0 22.18 12 10.18 10.29 0 0 0 12 1.71zm0 1A9.19 9.29 0 0 1 21.19 12 9.19 9.29 0 0 1 12 21.29 9.19 9.29 0 0 1 2.81 12 9.19 9.29 0 0 1 12 2.71zm4.48 5.18c-.28 0-.6.04-.93.13-.34.08-.7.2-1.1.36v.99a5.8 5.8 0 0 1 1.08-.49c.34-.1.67-.16.97-.16.43 0 .78.12 1.05.36.27.25.4.56.4.95 0 .23-.06.47-.18.72-.13.24-.34.54-.65.9L15.9 12.9l-1.51 1.55v.83h4.57v-.83h-3.4a628.92 628.92 0 0 0 2.59-2.7c.3-.36.5-.67.6-.94.12-.27.17-.55.17-.85 0-.63-.22-1.13-.66-1.5a2.67 2.67 0 0 0-1.79-.57zm-9.62.14l-1.72.35v.89l1.73-.35v5.53h-1.6v.83h4.16v-.83h-1.6V8.03h-.97zm4.64 2.1v1.24h1.02v-1.24H11.5zm0 3.91v1.24h1.02v-1.24H11.5z" font-weight="400" font-size="2.2" font-family="sans-serif" letter-spacing="0" word-spacing="0" fill="green"/></svg>