<?xml version="1.0" encoding="UTF-8" standalone="no"?>
<svg
   xmlns:dc="http://purl.org/dc/elements/1.1/"
   xmlns:cc="http://creativecommons.org/ns#"
   xmlns:rdf="http://www.w3.org/1999/02/22-rdf-syntax-ns#"
   xmlns:svg="http://www.w3.org/2000/svg"
   xmlns="http://www.w3.org/2000/svg"
   xmlns:sodipodi="http://sodipodi.sourceforge.net/DTD/sodipodi-0.dtd"
   xmlns:inkscape="http://www.inkscape.org/namespaces/inkscape"
   viewBox="0 0 422.4 48"
   width="528"
   version="1.1"
   id="svg22"
   sodipodi:docname="process-working.svg"
   inkscape:version="0.92.3 (2405546, 2018-03-11)">
  <metadata
     id="metadata28">
    <rdf:RDF>
      <cc:Work
         rdf:about="">
        <dc:format>image/svg+xml</dc:format>
        <dc:type
           rdf:resource="http://purl.org/dc/dcmitype/StillImage" />
      </cc:Work>
    </rdf:RDF>
  </metadata>
  <defs
     id="defs26" />
  <sodipodi:namedview
     pagecolor="#ffffff"
     bordercolor="#666666"
     borderopacity="1"
     objecttolerance="10"
     gridtolerance="10"
     guidetolerance="10"
     inkscape:pageopacity="0"
     inkscape:pageshadow="2"
     inkscape:window-width="640"
     inkscape:window-height="480"
     id="namedview24"
     showgrid="false"
     inkscape:zoom="0.78030303"
     inkscape:cx="102.39013"
     inkscape:cy="24"
     inkscape:window-x="0"
     inkscape:window-y="28"
     inkscape:window-maximized="0"
     inkscape:current-layer="svg22" />
  <g
     fill="#000000"
     id="g20"
     style="fill:#cccccc">
    <path
       d="m19.2 6v4a14 14 0 0 1 9.892578 4.107422l2.836-2.836a18 18 0 0 0 -12.728516-5.271484"
       id="path2"
       style="fill:#cccccc" />
    <path
       d="m73.35 6l-1.367 3.756a14 14 0 0 1 9.21875 13.13867h4a18 18 0 0 0 -5.271484-12.728516 18 18 0 0 0 -6.580078-4.166016"
       id="path4"
       style="fill:#cccccc" />
    <path
       d="m126.77 10.213l-2.57 3.064a14 14 0 0 1 5.00195 10.722656 14 14 0 0 1 -14 14v4a18 18 0 0 0 15.587891-9 18 18 0 0 0  0-18 18 18 0 0 0 -4.01953-4.787109"
       id="path6"
       style="fill:#cccccc" />
    <path
       d="m178.77 15.01l-3.459 1.996a14 14 0 0 1 1.890625 6.992188 14 14 0 0 1 -14 14 14 14 0 0 1 -14-14h-4a18 18 0 0 0 11.11133 16.628906 18 18 0 0 0  19.617188-3.900391 18 18 0 0 0  3.900391-19.617188 18 18 0 0 0 -1.060547-2.099609"
       id="path8"
       style="fill:#cccccc" />
    <path
       d="m211.2 6a18 18 0 0 0 -18 18 18 18 0 0 0  18 18 18 18 0 0 0  18-18 18 18 0 0 0 -.277344-3.125l-3.938.693a14 14 0 0 1  .214844 2.431641 14 14 0 0 1 -14 14 14 14 0 0 1 -14-14 14 14 0 0 1  14-14v-4"
       id="path10"
       style="fill:#cccccc" />
    <path
       d="m258.90684 6.00302a18 18 0 0 0 -13.988281 7.04102 18 18 0 0 0 -.462891 21.28125 18 18 0 0 0  20.15625 6.841797 18 18 0 0 0  12.587891-17.16602h-4a14 14 0 0 1 -14 14 14 14 0 0 1 -14-14 14 14 0 0 1  14-14 14 14 0 0 1  4.783203.861328l1.373-3.775a18 18 0 0 0 -6.449219-1.083984"
       id="path12"
       style="fill:#cccccc" />
    <path
       d="m307.52829 6.00391a18 18 0 0 0 -10.21875 2.957031 18 18 0 0 0 -7.353516 20.20117 18 18 0 0 0  17.244141 12.837891v-4a14 14 0 0 1 -14-14 14 14 0 0 1  14-14 14 14 0 0 1  8.998047 3.277344l2.572-3.066a18 18 0 0 0 -11.242188-4.207031"
       id="path14"
       style="fill:#cccccc" />
    <path
       d="m355.88751 6.01319a18 18 0 0 0 -5.345703.599609 18 18 0 0 0 -13.341797 17.386719h4a14 14 0 0 1 14-14 14 14 0 0 1  12.10938 7.00781l3.479-2.01a18 18 0 0 0 -14.900391-8.986328"
       id="path16"
       style="fill:#cccccc" />
    <path
       d="m403.31 6v4a14 14 0 0 1 13.785156 11.570313l3.941-.695a18 18 0 0 0 -17.726563-14.875"
       id="path18"
       style="fill:#cccccc" />
  </g>
</svg>
