<?xml version="1.0" encoding="UTF-8" standalone="no"?>
<!-- Created with Inkscape (http://www.inkscape.org/) -->

<svg
   xmlns:dc="http://purl.org/dc/elements/1.1/"
   xmlns:cc="http://creativecommons.org/ns#"
   xmlns:rdf="http://www.w3.org/1999/02/22-rdf-syntax-ns#"
   xmlns:svg="http://www.w3.org/2000/svg"
   xmlns="http://www.w3.org/2000/svg"
   xmlns:sodipodi="http://sodipodi.sourceforge.net/DTD/sodipodi-0.dtd"
   xmlns:inkscape="http://www.inkscape.org/namespaces/inkscape"
   width="24"
   height="24"
   viewBox="0 0 6.35 6.35"
   version="1.1"
   id="svg829"
   inkscape:version="0.92.3 (2405546, 2018-03-11)"
   sodipodi:docname="applications-games.svg">
  <defs
     id="defs823" />
  <sodipodi:namedview
     id="base"
     pagecolor="#ffffff"
     bordercolor="#666666"
     borderopacity="1.0"
     inkscape:pageopacity="0.0"
     inkscape:pageshadow="2"
     inkscape:zoom="19.708333"
     inkscape:cx="0.86257909"
     inkscape:cy="11.79704"
     inkscape:document-units="mm"
     inkscape:current-layer="layer1"
     showgrid="false"
     showguides="true"
     inkscape:guide-bbox="true"
     inkscape:window-width="1366"
     inkscape:window-height="672"
     inkscape:window-x="0"
     inkscape:window-y="27"
     inkscape:window-maximized="1"
     scale-x="1.9"
     units="px" />
  <metadata
     id="metadata826">
    <rdf:RDF>
      <cc:Work
         rdf:about="">
        <dc:format>image/svg+xml</dc:format>
        <dc:type
           rdf:resource="http://purl.org/dc/dcmitype/StillImage" />
        <dc:title></dc:title>
      </cc:Work>
    </rdf:RDF>
  </metadata>
  <g
     inkscape:label="Capa 1"
     inkscape:groupmode="layer"
     id="layer1"
     transform="translate(0,-290.65)">
    <path
       style="fill:#1a1a1a;fill-opacity:1;stroke-width:0.0694753"
       d="m 3.1758989,290.69921 a 3.1446402,3.1446402 0 0 0 -3.14476933,3.14477 3.1446402,3.1446402 0 0 0 3.14476933,3.14451 3.1446402,3.1446402 0 0 0 3.1445108,-3.14451 3.1446402,3.1446402 0 0 0 -3.1445108,-3.14477 z m -0.00904,0.46819 a 2.7035219,2.7035219 0 0 1 2.7034526,2.70345 2.7035219,2.7035219 0 0 1 -2.7034526,2.70346 2.7035219,2.7035219 0 0 1 -2.70371093,-2.70346 2.7035219,2.7035219 0 0 1 2.70371093,-2.70345 z m -1.6438272,1.20251 c -0.043816,0 -0.073433,0.0209 -0.083457,0.0581 l -0.48550013,2.4691 c -0.064437,0.24228 0.44705803,0.5317 0.78470653,0.33667 l 0.7875488,-1.14541 h 1.2888103 l 0.7875488,1.14541 c 0.3373619,0.19475 0.8491998,-0.0944 0.7841898,-0.33667 l -0.4849871,-2.4688 c -0.010065,-0.0376 -0.039955,-0.0584 -0.083199,-0.0584 z m 0.5686991,0.28655 a 0.07159641,0.07159641 0 0 1 0.00517,0 h 0.1431437 a 0.07159641,0.07159641 0 0 1 0.071572,0.0716 v 0.21472 h 0.2147156 a 0.07159641,0.07159641 0 0 1 0.07183,0.0716 v 0.14314 a 0.07159641,0.07159641 0 0 1 -0.07183,0.0716 H 2.3116104 v 0.21498 a 0.07159641,0.07159641 0 0 1 -0.071572,0.0713 H 2.096895 a 0.07159641,0.07159641 0 0 1 -0.071572,-0.0713 v -0.21498 H 1.810349 a 0.07159641,0.07159641 0 0 1 -0.071572,-0.0716 v -0.14314 a 0.07159641,0.07159641 0 0 1 0.071572,-0.0716 h 0.214974 v -0.21472 a 0.07159641,0.07159641 0 0 1 0.066404,-0.0716 z m 2.070933,0 a 0.14319283,0.14319283 0 0 1 2.584e-4,0 0.14319283,0.14319283 0 0 1 0.010335,0 0.14319283,0.14319283 0 0 1 0.1431437,0.14314 0.14319283,0.14319283 0 0 1 -0.1431437,0.14315 0.14319283,0.14319283 0 0 1 -0.143402,-0.14315 0.14319283,0.14319283 0 0 1 0.1328086,-0.14314 z m -0.2862874,0.28629 a 0.14319283,0.14319283 0 0 1 0.010335,0 0.14319283,0.14319283 0 0 1 0.1431438,0.14314 0.14319283,0.14319283 0 0 1 -0.1431438,0.14314 0.14319283,0.14319283 0 0 1 -0.1431437,-0.14314 0.14319283,0.14319283 0 0 1 0.1328087,-0.14314 z m 0.5725748,0 a 0.14319283,0.14319283 0 0 1 2.585e-4,0 0.14319283,0.14319283 0 0 1 0.010335,0 0.14319283,0.14319283 0 0 1 0.1431437,0.14314 0.14319283,0.14319283 0 0 1 -0.1431437,0.14314 0.14319283,0.14319283 0 0 1 -0.1431438,-0.14314 0.14319283,0.14319283 0 0 1 0.1325503,-0.14314 z m -0.286029,0.28628 a 0.14319283,0.14319283 0 0 1 0.010335,0 0.14319283,0.14319283 0 0 1 0.1431437,0.14341 0.14319283,0.14319283 0 0 1 -0.1431437,0.14314 0.14319283,0.14319283 0 0 1 -0.143402,-0.14314 0.14319283,0.14319283 0 0 1 0.133067,-0.14341 z"
       id="path1374"
       inkscape:connector-curvature="0" />
  </g>
</svg>
