<?xml version="1.0" encoding="UTF-8" standalone="no"?>
<!-- Created with Inkscape (http://www.inkscape.org/) -->

<svg
   xmlns:dc="http://purl.org/dc/elements/1.1/"
   xmlns:cc="http://creativecommons.org/ns#"
   xmlns:rdf="http://www.w3.org/1999/02/22-rdf-syntax-ns#"
   xmlns:svg="http://www.w3.org/2000/svg"
   xmlns="http://www.w3.org/2000/svg"
   xmlns:sodipodi="http://sodipodi.sourceforge.net/DTD/sodipodi-0.dtd"
   xmlns:inkscape="http://www.inkscape.org/namespaces/inkscape"
   width="24"
   height="24"
   viewBox="0 0 6.35 6.35"
   version="1.1"
   id="svg829"
   inkscape:version="0.92.3 (2405546, 2018-03-11)"
   sodipodi:docname="applications-system.svg">
  <defs
     id="defs823" />
  <sodipodi:namedview
     id="base"
     pagecolor="#ffffff"
     bordercolor="#666666"
     borderopacity="1.0"
     inkscape:pageopacity="0.0"
     inkscape:pageshadow="2"
     inkscape:zoom="19.708333"
     inkscape:cx="12"
     inkscape:cy="12"
     inkscape:document-units="mm"
     inkscape:current-layer="layer1"
     showgrid="false"
     showguides="true"
     inkscape:guide-bbox="true"
     inkscape:window-width="1366"
     inkscape:window-height="672"
     inkscape:window-x="0"
     inkscape:window-y="27"
     inkscape:window-maximized="1"
     scale-x="1.9"
     units="px"
     inkscape:snap-global="false" />
  <metadata
     id="metadata826">
    <rdf:RDF>
      <cc:Work
         rdf:about="">
        <dc:format>image/svg+xml</dc:format>
        <dc:type
           rdf:resource="http://purl.org/dc/dcmitype/StillImage" />
        <dc:title></dc:title>
      </cc:Work>
    </rdf:RDF>
  </metadata>
  <g
     inkscape:label="Capa 1"
     inkscape:groupmode="layer"
     id="layer1"
     transform="translate(0,-290.65)">
    <path
       style="fill:#1a1a1a;fill-opacity:1;stroke-width:0.0694753"
       d="m 3.1893238,290.69921 a 3.1446402,3.1446402 0 0 0 -3.14476928,3.14477 3.1446402,3.1446402 0 0 0 3.14476928,3.14451 3.1446402,3.1446402 0 0 0 3.1445108,-3.14451 3.1446402,3.1446402 0 0 0 -3.1445108,-3.14477 z m -0.00904,0.46819 a 2.7035219,2.7035219 0 0 1 2.7034526,2.70345 2.7035219,2.7035219 0 0 1 -2.7034526,2.70346 2.7035219,2.7035219 0 0 1 -2.70371088,-2.70346 2.7035219,2.7035219 0 0 1 2.70371088,-2.70345 z m -0.8787577,0.3328 c -0.073744,0 -0.1356507,0.0586 -0.1356505,0.13229 v 0.17234 c -0.046626,0.0157 -0.091835,0.0338 -0.1353923,0.0553 l -0.1198929,-0.11989 c -0.052145,-0.0522 -0.1356993,-0.0522 -0.1878438,0 l -0.301532,0.29843 c -0.052145,0.0521 -0.052145,0.1357 0,0.18784 l 0.1198893,0.12015 c -0.022095,0.0443 -0.039353,0.091 -0.055294,0.13849 H 1.3165698 c -0.073743,0 -0.1353927,0.0585 -0.1353922,0.13229 v 0.42478 c 0,0.0738 0.061649,0.13229 0.1353922,0.13229 h 0.1692403 c 0.015945,0.0475 0.033203,0.0942 0.055294,0.1385 l -0.1198893,0.11989 c -0.052145,0.0521 -0.052145,0.1357 0,0.18784 l 0.301532,0.29869 c 0.052144,0.0521 0.1356992,0.0521 0.1878438,0 L 2.03048,293.79928 c 0.043558,0.0216 0.088767,0.0396 0.1353923,0.0553 v 0.17234 c -2e-7,0.0737 0.061907,0.13255 0.1356505,0.13255 h 0.4216797 c 0.073744,0 0.1322917,-0.0588 0.1322917,-0.13255 v -0.17234 c 0.047504,-0.0159 0.094179,-0.0332 0.1384928,-0.0553 l 0.1198893,0.12015 c 0.052145,0.0521 0.1356991,0.0521 0.1878439,0 l 0.301532,-0.29869 c 0.052145,-0.0521 0.052144,-0.1357 0,-0.18784 l -0.12299,-0.12299 c 0.021579,-0.0435 0.039646,-0.0888 0.055294,-0.1354 h 0.172341 c 0.073744,0 0.13255,-0.0585 0.13255,-0.13229 v -0.42478 c 0,-0.0737 -0.058807,-0.13229 -0.13255,-0.13229 h -0.172341 c -0.015648,-0.0466 -0.033715,-0.0921 -0.055294,-0.13565 l 0.12299,-0.12299 c 0.052145,-0.0521 0.052145,-0.1357 0,-0.18784 l -0.301532,-0.29843 c -0.052145,-0.0522 -0.1356994,-0.0522 -0.1878439,0 l -0.1198893,0.11988 c -0.044314,-0.0221 -0.090989,-0.0393 -0.1384928,-0.0553 v -0.17234 c 0,-0.0737 -0.058548,-0.13229 -0.1322917,-0.13229 z m 0.2092895,0.54157 c 0.4344693,0 0.7878073,0.3536 0.7878073,0.78806 0,0.43447 -0.353338,0.78781 -0.7878073,0.78781 -0.4344689,0 -0.7880655,-0.35334 -0.7880655,-0.78781 0,-0.43446 0.3535966,-0.78806 0.7880655,-0.78806 z m 0.00775,0.0762 a 0.70823805,0.71177924 0 0 0 -0.707967,0.71184 0.70823805,0.71177924 0 0 0 0.707967,0.71159 0.70823805,0.71177924 0 0 0 0.7082256,-0.71159 0.70823805,0.71177924 0 0 0 -0.7082256,-0.71184 z m -0.00775,0.36716 c 0.190284,0 0.3446819,0.1544 0.3446819,0.34468 0,0.19029 -0.1543979,0.34468 -0.3446819,0.34468 -0.1902841,0 -0.3449402,-0.15439 -0.34494,-0.34468 -2e-7,-0.19028 0.1546562,-0.34468 0.34494,-0.34468 z m 1.1149191,1.3671 c -0.06767,0 -0.1242818,0.0538 -0.1242818,0.12144 v 0.15813 c -0.042785,0.0143 -0.084312,0.0308 -0.1242818,0.0506 l -0.1100709,-0.11007 c -0.04785,-0.0478 -0.1244911,-0.0478 -0.1723408,0 l -0.2767273,0.27389 c -0.04785,0.0478 -0.047849,0.12449 0,0.17234 l 0.1100707,0.11033 c -0.020274,0.0406 -0.036272,0.0833 -0.050901,0.12686 H 2.7219103 c -0.06767,0 -0.1242819,0.0538 -0.1242818,0.12144 v 0.3899 c 0,0.0677 0.056612,0.12144 0.1242818,0.12144 h 0.1552878 c 0.014629,0.0436 0.030627,0.0865 0.050901,0.12713 l -0.1100707,0.11007 c -0.04785,0.0479 -0.04785,0.12449 0,0.17234 l 0.2767273,0.27388 c 0.047849,0.0478 0.1244912,0.0478 0.1723408,0 l 0.1100709,-0.11007 c 0.03997,0.0198 0.081497,0.0366 0.1242818,0.0509 v 0.15813 c -1e-7,0.0677 0.056612,0.12144 0.1242818,0.12144 h 0.3870565 c 0.06767,0 0.1214396,-0.0538 0.1214396,-0.12144 v -0.15813 c 0.043591,-0.0146 0.08646,-0.0306 0.127124,-0.0509 l 0.1100707,0.11007 c 0.04785,0.0478 0.1244911,0.0478 0.172341,0 l 0.2767273,-0.27388 c 0.04785,-0.0478 0.04785,-0.12449 0,-0.17234 l -0.112913,-0.11292 c 0.019801,-0.04 0.036284,-0.0815 0.050643,-0.12428 h 0.1583883 c 0.06767,0 0.1214397,-0.0538 0.1214397,-0.12144 v -0.3899 c 0,-0.0677 -0.05377,-0.12144 -0.1214397,-0.12144 H 4.7582202 c -0.014359,-0.0428 -0.030842,-0.0843 -0.050643,-0.12428 l 0.112913,-0.11291 c 0.04785,-0.0478 0.04785,-0.12449 0,-0.17234 l -0.2767273,-0.27389 c -0.047849,-0.0478 -0.1244913,-0.0478 -0.172341,0 l -0.1100707,0.11007 c -0.040664,-0.0202 -0.083533,-0.036 -0.127124,-0.0506 v -0.15813 c 0,-0.0677 -0.05377,-0.12144 -0.1214396,-0.12144 z m 0.191978,0.49687 c 0.3986837,0 0.7232117,0.32454 0.7232115,0.72321 0,0.39869 -0.3245278,0.72296 -0.7232115,0.72296 -0.3986838,0 -0.7229533,-0.32427 -0.7229533,-0.72296 0,-0.39867 0.3242695,-0.72321 0.7229533,-0.72321 z m 0.00723,0.07 a 0.64990355,0.65315309 0 0 0 -0.6495727,0.65319 0.64990355,0.65315309 0 0 0 0.6495727,0.65293 0.64990355,0.65315309 0 0 0 0.6500896,-0.65293 0.64990355,0.65315309 0 0 0 -0.6500896,-0.65319 z m -0.00723,0.33667 c 0.174611,0 0.3165181,0.14192 0.3165181,0.31652 0,0.17462 -0.1419071,0.31626 -0.3165181,0.31626 -0.1746113,0 -0.3162598,-0.14164 -0.3162598,-0.31626 -10e-8,-0.1746 0.1416487,-0.31652 0.3162598,-0.31652 z"
       id="path1374"
       inkscape:connector-curvature="0" />
  </g>
</svg>
