<?xml version="1.0" encoding="UTF-8" standalone="no"?>
<!-- Created with Inkscape (http://www.inkscape.org/) -->

<svg
   xmlns:dc="http://purl.org/dc/elements/1.1/"
   xmlns:cc="http://creativecommons.org/ns#"
   xmlns:rdf="http://www.w3.org/1999/02/22-rdf-syntax-ns#"
   xmlns:svg="http://www.w3.org/2000/svg"
   xmlns="http://www.w3.org/2000/svg"
   xmlns:sodipodi="http://sodipodi.sourceforge.net/DTD/sodipodi-0.dtd"
   xmlns:inkscape="http://www.inkscape.org/namespaces/inkscape"
   width="24"
   height="24"
   viewBox="0 0 6.35 6.35"
   version="1.1"
   id="svg829"
   inkscape:version="0.92.3 (2405546, 2018-03-11)"
   sodipodi:docname="applications-graphics.svg">
  <defs
     id="defs823" />
  <sodipodi:namedview
     id="base"
     pagecolor="#ffffff"
     bordercolor="#666666"
     borderopacity="1.0"
     inkscape:pageopacity="0.0"
     inkscape:pageshadow="2"
     inkscape:zoom="10.3125"
     inkscape:cx="3.4181823"
     inkscape:cy="11.612122"
     inkscape:document-units="mm"
     inkscape:current-layer="layer1"
     showgrid="false"
     showguides="true"
     inkscape:guide-bbox="true"
     inkscape:window-width="1366"
     inkscape:window-height="719"
     inkscape:window-x="0"
     inkscape:window-y="25"
     inkscape:window-maximized="1"
     scale-x="1.9"
     units="px" />
  <metadata
     id="metadata826">
    <rdf:RDF>
      <cc:Work
         rdf:about="">
        <dc:format>image/svg+xml</dc:format>
        <dc:type
           rdf:resource="http://purl.org/dc/dcmitype/StillImage" />
        <dc:title></dc:title>
      </cc:Work>
    </rdf:RDF>
  </metadata>
  <g
     inkscape:label="Capa 1"
     inkscape:groupmode="layer"
     id="layer1"
     transform="translate(0,-290.65)">
    <path
       style="fill:#1a1a1a;fill-opacity:1;stroke-width:0.26165536"
       d="M 11.953125 0.13085938 A 11.84323 11.84323 0 0 0 0.109375 11.974609 A 11.84323 11.84323 0 0 0 11.953125 23.816406 A 11.84323 11.84323 0 0 0 23.796875 11.974609 A 11.84323 11.84323 0 0 0 11.953125 0.13085938 z M 11.919922 1.8925781 A 10.181907 10.181907 0 0 1 22.101562 12.076172 A 10.181907 10.181907 0 0 1 11.919922 22.257812 A 10.181907 10.181907 0 0 1 1.7363281 12.076172 A 10.181907 10.181907 0 0 1 11.919922 1.8925781 z M 11.867188 4.2324219 L 11.867188 4.234375 C 9.7571876 4.2646112 6.9227031 5.0356624 6.9707031 7.5136719 C 7.0207025 10.100645 9.8880934 9.1754014 10.121094 10.232422 C 10.156092 10.187445 10.209092 10.150508 10.246094 10.107422 C 10.443094 9.8935006 10.639891 9.7196939 10.837891 9.5136719 C 11.149891 9.1617979 11.475641 8.8344093 11.806641 8.4824219 C 12.91264 7.3044187 12.959562 7.2324345 15.601562 5.2324219 C 14.566562 4.6124282 13.343687 4.2674203 12.304688 4.2324219 C 12.170688 4.2286423 12.008187 4.2314014 11.867188 4.2324219 z M 18.013672 4.234375 C 16.213672 5.5333986 13.807438 7.5354015 11.898438 9.5664062 C 11.725437 9.7512251 11.558533 9.9291427 11.394531 10.113281 C 11.29053 10.221376 11.181125 10.310001 11.078125 10.421875 C 11.012127 10.498977 10.952671 10.585007 10.888672 10.662109 C 9.5865283 12.101191 8.3114756 13.793019 7.2441406 15.351562 C 6.9311523 15.192061 6.540713 15.169567 6.1230469 15.445312 C 5.3700471 15.943303 5.5285624 17.730469 3.9765625 17.730469 C 4.1235623 18.332547 5.7111563 18.324609 6.7851562 18.056641 C 7.7981569 17.802656 8.1060625 16.91391 7.9140625 16.171875 C 7.8872808 16.068946 7.8213536 15.964427 7.7597656 15.861328 C 9.7439281 14.218004 11.157233 12.843946 12.119141 11.824219 C 12.359141 11.578172 12.64875 11.256384 12.96875 10.900391 C 14.17275 9.5653859 15.89567 7.4633766 18.013672 4.234375 z M 9.9453125 5.7636719 A 1.499 1.499 0 0 1 9.9648438 5.7636719 C 10.791844 5.7636719 11.460938 6.4356908 11.460938 7.2636719 A 1.499 1.499 0 1 1 9.9453125 5.7636719 z M 17.234375 6.4257812 C 15.816375 8.6607671 14.865281 9.9816719 13.863281 11.013672 C 13.224281 11.670667 12.701188 12.32592 12.242188 12.794922 C 11.403188 13.685908 10.303797 14.736672 9.0917969 15.888672 C 9.1547978 17.357661 9.9019376 18.633444 12.335938 19.105469 C 16.233938 19.86145 20.363265 17.281949 19.947266 12.044922 C 19.769265 9.7969345 18.542375 7.7637718 17.234375 6.4257812 z M 17.576172 10.232422 A 1.0000063 1.0000063 0 0 1 17.576172 12.232422 A 1.0000063 1.0000063 0 0 1 17.576172 10.232422 z M 16.910156 13.232422 A 1.0000063 1.0000063 0 0 1 16.951172 13.232422 A 0.99999999 0.99999999 0 0 1 16.951172 15.232422 A 1.0000063 1.0000063 0 0 1 16.910156 13.232422 z M 11.960938 15.230469 A 0.99999999 0.99999999 0 0 1 11.960938 17.230469 A 0.99999999 0.99999999 0 0 1 11.960938 15.230469 z M 14.955078 15.230469 A 0.99999999 0.99999999 0 0 1 14.955078 17.230469 A 0.99999999 0.99999999 0 0 1 14.955078 15.230469 z "
       transform="matrix(0.26458333,0,0,0.26458333,0,290.65)"
       id="path1374" />
  </g>
</svg>
