<?xml version="1.0" encoding="UTF-8" standalone="no"?>
<!-- Created with Inkscape (http://www.inkscape.org/) -->

<svg
   xmlns:dc="http://purl.org/dc/elements/1.1/"
   xmlns:cc="http://creativecommons.org/ns#"
   xmlns:rdf="http://www.w3.org/1999/02/22-rdf-syntax-ns#"
   xmlns:svg="http://www.w3.org/2000/svg"
   xmlns="http://www.w3.org/2000/svg"
   xmlns:sodipodi="http://sodipodi.sourceforge.net/DTD/sodipodi-0.dtd"
   xmlns:inkscape="http://www.inkscape.org/namespaces/inkscape"
   width="24"
   height="24"
   viewBox="0 0 6.35 6.35"
   version="1.1"
   id="svg829"
   inkscape:version="0.92.3 (2405546, 2018-03-11)"
   sodipodi:docname="applications-multimedia.svg">
  <defs
     id="defs823" />
  <sodipodi:namedview
     id="base"
     pagecolor="#ffffff"
     bordercolor="#666666"
     borderopacity="1.0"
     inkscape:pageopacity="0.0"
     inkscape:pageshadow="2"
     inkscape:zoom="22.333333"
     inkscape:cx="12"
     inkscape:cy="12"
     inkscape:document-units="mm"
     inkscape:current-layer="layer1"
     showgrid="false"
     showguides="true"
     inkscape:guide-bbox="true"
     inkscape:window-width="1366"
     inkscape:window-height="717"
     inkscape:window-x="0"
     inkscape:window-y="25"
     inkscape:window-maximized="1"
     scale-x="1.9"
     units="px" />
  <metadata
     id="metadata826">
    <rdf:RDF>
      <cc:Work
         rdf:about="">
        <dc:format>image/svg+xml</dc:format>
        <dc:type
           rdf:resource="http://purl.org/dc/dcmitype/StillImage" />
        <dc:title></dc:title>
      </cc:Work>
    </rdf:RDF>
  </metadata>
  <g
     inkscape:label="Capa 1"
     inkscape:groupmode="layer"
     id="layer1"
     transform="translate(0,-290.65)">
    <path
       style="fill:#1a1a1a;fill-opacity:1;stroke-width:0.26165536"
       d="M 11.953125 0.13085938 A 11.84323 11.84323 0 0 0 0.109375 11.974609 A 11.84323 11.84323 0 0 0 11.953125 23.816406 A 11.84323 11.84323 0 0 0 23.796875 11.974609 A 11.84323 11.84323 0 0 0 11.953125 0.13085938 z M 11.919922 1.8925781 A 10.181907 10.181907 0 0 1 22.101562 12.076172 A 10.181907 10.181907 0 0 1 11.919922 22.257812 A 10.181907 10.181907 0 0 1 1.7363281 12.076172 A 10.181907 10.181907 0 0 1 11.919922 1.8925781 z M 5.1855469 4.9804688 L 5.1367188 5 L 5.1152344 5.0488281 L 5.1152344 16.154297 C 5.1499682 16.351966 5.0392867 16.628038 5.1855469 16.767578 L 6.8945312 16.767578 L 9.5839844 16.767578 C 9.0509425 17.214641 8.6816161 17.839921 8.6757812 18.5625 C 8.6083016 19.582519 9.5919693 20.427414 10.582031 20.333984 C 11.924135 20.264819 13.153469 18.966345 13.009766 17.578125 L 13.009766 16.767578 L 14.242188 16.767578 L 15.058594 16.767578 C 14.992204 16.929017 14.942075 17.096925 14.914062 17.275391 C 14.715078 18.168909 15.33851 19.066921 16.191406 19.322266 C 17.787903 19.845579 19.573059 18.302977 19.384766 16.652344 C 19.380306 13.556382 19.398259 10.461197 19.384766 7.3652344 C 19.347311 7.0582039 19.107553 6.7475683 18.773438 6.7617188 L 18.771484 6.7617188 C 17.671667 6.9375564 16.569858 7.1072831 15.46875 7.2753906 L 15.46875 4.9824219 L 13.933594 4.9824219 L 6.8945312 4.9824219 L 5.1855469 4.9804688 z M 6.8945312 5.4433594 L 13.691406 5.4433594 L 13.691406 7.5527344 C 13.237177 7.6240284 12.781818 7.6911618 12.328125 7.765625 C 11.744378 8.0581604 11.953637 8.8033376 11.916016 9.328125 L 11.916016 10.830078 L 6.8945312 10.830078 L 6.8945312 5.4433594 z M 5.6425781 5.5136719 L 6.3574219 5.5136719 L 6.3574219 6.2285156 L 5.6425781 6.2285156 L 5.6425781 5.5136719 z M 14.21875 5.5136719 L 14.933594 5.5136719 L 14.933594 6.2285156 L 14.21875 6.2285156 L 14.21875 5.5136719 z M 5.6425781 6.9433594 L 6.3574219 6.9433594 L 6.3574219 7.6582031 L 5.6425781 7.6582031 L 5.6425781 6.9433594 z M 14.21875 6.9433594 L 14.933594 6.9433594 L 14.933594 7.359375 C 14.69529 7.3959213 14.456986 7.4337556 14.21875 7.4707031 L 14.21875 6.9433594 z M 5.6425781 8.3730469 L 6.3574219 8.3730469 L 6.3574219 9.0878906 L 5.6425781 9.0878906 L 5.6425781 8.3730469 z M 18.314453 9.6191406 L 18.314453 15.224609 C 17.29776 14.931713 16.145771 15.330503 15.46875 16.121094 L 15.46875 10.042969 C 16.417236 9.8991875 17.365038 9.7563197 18.314453 9.6191406 z M 5.6425781 9.8007812 L 6.3574219 9.8007812 L 6.3574219 10.515625 L 5.6425781 10.515625 L 5.6425781 9.8007812 z M 14.933594 10.123047 L 14.933594 10.515625 L 14.21875 10.515625 L 14.21875 10.230469 C 14.457137 10.194861 14.695266 10.159044 14.933594 10.123047 z M 13.691406 10.308594 L 13.691406 10.830078 L 13.009766 10.830078 L 13.009766 10.410156 C 13.237212 10.377375 13.464071 10.342116 13.691406 10.308594 z M 5.6425781 11.230469 L 6.3574219 11.230469 L 6.3574219 11.945312 L 5.6425781 11.945312 L 5.6425781 11.230469 z M 14.21875 11.230469 L 14.933594 11.230469 L 14.933594 11.945312 L 14.21875 11.945312 L 14.21875 11.230469 z M 6.8945312 11.291016 L 11.916016 11.291016 L 11.916016 16.138672 C 11.387665 16.020888 10.834403 16.098235 10.333984 16.306641 L 6.8945312 16.306641 L 6.8945312 11.291016 z M 13.009766 11.291016 L 13.691406 11.291016 L 13.691406 16.154297 C 13.699683 16.201163 13.698147 16.253349 13.695312 16.306641 L 13.009766 16.306641 L 13.009766 11.291016 z M 5.6425781 12.660156 L 6.3574219 12.660156 L 6.3574219 13.375 L 5.6425781 13.375 L 5.6425781 12.660156 z M 14.21875 12.660156 L 14.933594 12.660156 L 14.933594 13.375 L 14.21875 13.375 L 14.21875 12.660156 z M 5.6425781 14.089844 L 6.3574219 14.089844 L 6.3574219 14.802734 L 5.6425781 14.802734 L 5.6425781 14.089844 z M 14.21875 14.089844 L 14.933594 14.089844 L 14.933594 14.802734 L 14.21875 14.802734 L 14.21875 14.089844 z M 5.6425781 15.517578 L 6.3574219 15.517578 L 6.3574219 16.232422 L 5.6425781 16.232422 L 5.6425781 15.517578 z M 14.21875 15.517578 L 14.933594 15.517578 L 14.933594 16.232422 L 14.21875 16.232422 L 14.21875 15.517578 z "
       transform="matrix(0.26458333,0,0,0.26458333,0,290.65)"
       id="path822" />
  </g>
</svg>
