<?xml version="1.0" encoding="UTF-8" standalone="no"?>
<!-- Created with Inkscape (http://www.inkscape.org/) -->

<svg
   xmlns:dc="http://purl.org/dc/elements/1.1/"
   xmlns:cc="http://creativecommons.org/ns#"
   xmlns:rdf="http://www.w3.org/1999/02/22-rdf-syntax-ns#"
   xmlns:svg="http://www.w3.org/2000/svg"
   xmlns="http://www.w3.org/2000/svg"
   xmlns:sodipodi="http://sodipodi.sourceforge.net/DTD/sodipodi-0.dtd"
   xmlns:inkscape="http://www.inkscape.org/namespaces/inkscape"
   width="24"
   height="24"
   viewBox="0 0 6.35 6.35"
   version="1.1"
   id="svg829"
   inkscape:version="0.92.3 (2405546, 2018-03-11)"
   sodipodi:docname="preferences-system-network.svg">
  <defs
     id="defs823" />
  <sodipodi:namedview
     id="base"
     pagecolor="#ffffff"
     bordercolor="#666666"
     borderopacity="1.0"
     inkscape:pageopacity="0.0"
     inkscape:pageshadow="2"
     inkscape:zoom="19.708333"
     inkscape:cx="12"
     inkscape:cy="12"
     inkscape:document-units="mm"
     inkscape:current-layer="layer1"
     showgrid="false"
     showguides="true"
     inkscape:guide-bbox="true"
     inkscape:window-width="1366"
     inkscape:window-height="672"
     inkscape:window-x="0"
     inkscape:window-y="27"
     inkscape:window-maximized="1"
     scale-x="1.9"
     units="px"
     inkscape:snap-global="false" />
  <metadata
     id="metadata826">
    <rdf:RDF>
      <cc:Work
         rdf:about="">
        <dc:format>image/svg+xml</dc:format>
        <dc:type
           rdf:resource="http://purl.org/dc/dcmitype/StillImage" />
        <dc:title></dc:title>
      </cc:Work>
    </rdf:RDF>
  </metadata>
  <g
     inkscape:label="Capa 1"
     inkscape:groupmode="layer"
     id="layer1"
     transform="translate(0,-290.65)">
    <path
       style="fill:#1a1a1a;fill-opacity:1;stroke-width:0.0694753"
       d="m 3.1758989,290.68579 a 3.1446402,3.1446402 0 0 0 -3.14476933,3.14477 3.1446402,3.1446402 0 0 0 3.14476933,3.14451 3.1446402,3.1446402 0 0 0 3.1445108,-3.14451 3.1446402,3.1446402 0 0 0 -3.1445108,-3.14477 z m -0.00904,0.46819 a 2.7035219,2.7035219 0 0 1 2.7034526,2.70345 2.7035219,2.7035219 0 0 1 -0.5601726,1.64254 H 4.1388891 c -0.00557,-0.0812 -0.071084,-0.14547 -0.1537374,-0.14547 h -0.518573 c 0.017478,-0.0252 0.029972,-0.054 0.029972,-0.0871 v -0.28035 c 0.4580514,-0.0819 0.8526875,-0.34747 1.1030334,-0.71933 0.1922531,-0.27484 0.3056661,-0.6081 0.3056661,-0.9679 0,-0.93849 -0.7668257,-1.70014 -1.7117818,-1.70016 -0.9449565,0 -1.7120032,0.76166 -1.7120401,1.70016 0,0.53055 0.2453016,1.00438 0.6291605,1.31619 0.2271217,0.19193 0.5055241,0.32379 0.8115784,0.3744 v 0.27699 c 0,0.0331 0.012494,0.0619 0.029972,0.0871 h -0.505137 c -0.082656,0 -0.1481701,0.0643 -0.1537374,0.14547 H 1.0220252 a 2.7035219,2.7035219 0 0 1 -0.55888073,-1.64254 2.7035219,2.7035219 0 0 1 2.70371093,-2.70345 z m 0.077256,0.52168 c 0.1644368,0.004 0.3227934,0.0324 0.4718058,0.0814 l 0.1043863,0.0767 0.032039,-0.0256 c 0.4746758,0.20453 0.8326676,0.6249 0.9492961,1.13636 -0.036975,-0.027 -0.075605,-0.0525 -0.1154969,-0.078 l -0.1198893,0.0124 -0.109554,-0.0873 v 0.108 l 0.093793,0.0504 0.062528,0.0499 0.083457,-0.0667 c 0.021003,0.0278 0.041882,0.0555 0.062787,0.0832 v 0.0832 l -0.094051,0.0752 -0.1723409,0.0832 -0.1247986,0.0879 c 0.060375,-0.003 0.1207095,-0.008 0.1824179,-0.0132 v 0.0587 l -0.1250571,0.21627 -0.1149799,0.0917 -0.094051,0.14186 v 0.23306 l 0.031523,0.0917 -0.052193,0.0413 -0.1149801,0.0501 -0.1198893,0.0708 0.099219,0.0791 -0.1356505,0.0835 0.026096,0.054 -0.2036051,0.16252 H 3.6112727 l -0.1147216,0.0499 h -0.073122 v -0.0664 l -0.031006,-0.13359 c -0.040368,-0.0836 -0.082539,-0.16655 -0.1253152,-0.24959 0,-0.0613 0.00513,-0.12192 0.010335,-0.1832 l 0.052452,-0.0832 -0.073122,-0.10025 0.00517,-0.13746 -0.099219,-0.0791 0.049609,-0.11447 -0.080874,-0.0646 H 2.9906388 l -0.046767,-0.0372 -0.1410766,0.0623 -0.057361,-0.0457 -0.130483,0.0791 c -0.088635,-0.0708 -0.1772397,-0.14157 -0.2658751,-0.21239 l -0.1043865,-0.17492 0.093793,-0.1 -0.051935,-0.0416 0.1144634,-0.19172 c 0.094127,-0.0827 0.1924496,-0.16175 0.2919718,-0.24133 l 0.1775085,-0.0333 0.1984375,-0.0168 0.1356506,0.0251 0.1930115,0.1372 0.067696,-0.054 0.094051,-0.008 0.1772502,0.0416 h 0.1359091 l 0.093793,-0.0581 0.041858,-0.0416 -0.094309,-0.0419 -0.1563212,-0.008 c -0.043451,-0.0425 -0.084011,-0.087 -0.1356507,-0.1248 l -0.052193,0.0165 -0.020929,0.10826 -0.094051,-0.0749 -0.020671,-0.0832 -0.1041281,-0.0581 h -0.041858 l 0.1043863,0.0832 -0.041858,0.0749 -0.083457,0.0165 0.052193,-0.0749 -0.094051,-0.0333 -0.083457,-0.0667 -0.1565797,0.0251 -0.02067,0.0333 -0.094051,0.0416 -0.051935,0.0917 -0.1304829,0.0457 -0.057361,-0.0457 h -0.062528 v -0.14986 l 0.1356506,-0.0501 h 0.1041281 l -0.020929,-0.0584 -0.083199,-0.0584 0.1408183,-0.0207 0.078031,-0.0625 0.062528,-0.0749 h 0.1149802 l -0.031264,-0.0581 0.072864,-0.0333 v 0.0667 l 0.1565796,0.0248 0.1563212,-0.0915 0.010594,-0.0418 0.1356505,-0.0664 c -0.049038,0.004 -0.098266,0.007 -0.1462442,0.0165 v -0.0749 l 0.052193,-0.0835 h -0.052193 l -0.1144633,0.0752 -0.031523,0.0416 0.031523,0.0584 -0.052193,0.0997 -0.083457,-0.0333 -0.073122,-0.0581 -0.1147216,0.0581 -0.041858,-0.13307 0.1981791,-0.0917 v -0.0501 z m 0.7325133,1.15781 -0.031523,0.0245 0.047026,0.12093 0.088625,0.0708 c 0.05058,0.10299 0.1006968,0.20126 0.1671733,0.29973 0.037394,0 0.073457,-10e-4 0.1098124,-0.003 l -0.078807,-0.0631 0.042116,-0.0752 -0.083716,-0.0664 -0.1405599,-0.21239 z m -2.6404072,3.00886 h 0.9549805 v 0.003 c 0,0.0863 0.069478,0.15606 0.1558044,0.15606 h 1.5381489 c 0.086326,0 0.1558046,-0.0697 0.1558046,-0.15606 v -0.003 H 4.998788 a 2.7035219,2.7035219 0 0 1 -1.8319295,0.71856 2.7035219,2.7035219 0 0 1 -1.8306375,-0.71856 z"
       id="path1374"
       inkscape:connector-curvature="0" />
  </g>
</svg>
