<?xml version="1.0" encoding="UTF-8" standalone="no"?>
<!-- Created with Inkscape (http://www.inkscape.org/) -->

<svg
   xmlns:dc="http://purl.org/dc/elements/1.1/"
   xmlns:cc="http://creativecommons.org/ns#"
   xmlns:rdf="http://www.w3.org/1999/02/22-rdf-syntax-ns#"
   xmlns:svg="http://www.w3.org/2000/svg"
   xmlns="http://www.w3.org/2000/svg"
   xmlns:sodipodi="http://sodipodi.sourceforge.net/DTD/sodipodi-0.dtd"
   xmlns:inkscape="http://www.inkscape.org/namespaces/inkscape"
   width="24"
   height="24"
   viewBox="0 0 6.35 6.35"
   version="1.1"
   id="svg829"
   inkscape:version="0.92.3 (2405546, 2018-03-11)"
   sodipodi:docname="preferences-system.svg">
  <defs
     id="defs823" />
  <sodipodi:namedview
     id="base"
     pagecolor="#ffffff"
     bordercolor="#666666"
     borderopacity="1.0"
     inkscape:pageopacity="0.0"
     inkscape:pageshadow="2"
     inkscape:zoom="7.8960257"
     inkscape:cx="12"
     inkscape:cy="12"
     inkscape:document-units="mm"
     inkscape:current-layer="layer1"
     showgrid="false"
     showguides="true"
     inkscape:guide-bbox="true"
     inkscape:window-width="1366"
     inkscape:window-height="717"
     inkscape:window-x="0"
     inkscape:window-y="25"
     inkscape:window-maximized="1"
     scale-x="1.9"
     units="px"
     inkscape:snap-global="false" />
  <metadata
     id="metadata826">
    <rdf:RDF>
      <cc:Work
         rdf:about="">
        <dc:format>image/svg+xml</dc:format>
        <dc:type
           rdf:resource="http://purl.org/dc/dcmitype/StillImage" />
        <dc:title></dc:title>
      </cc:Work>
    </rdf:RDF>
  </metadata>
  <g
     inkscape:label="Capa 1"
     inkscape:groupmode="layer"
     id="layer1"
     transform="translate(0,-290.65)">
    <path
       style="fill:#1a1a1a;fill-opacity:1;stroke-width:0.26165536"
       d="M 11.953125 0.13085938 A 11.84323 11.84323 0 0 0 0.109375 11.974609 A 11.84323 11.84323 0 0 0 11.953125 23.816406 A 11.84323 11.84323 0 0 0 23.796875 11.974609 A 11.84323 11.84323 0 0 0 11.953125 0.13085938 z M 11.919922 1.8925781 A 10.181907 10.181907 0 0 1 22.101562 12.076172 A 10.181907 10.181907 0 0 1 11.919922 22.257812 A 10.181907 10.181907 0 0 1 1.7363281 12.076172 A 10.181907 10.181907 0 0 1 11.919922 1.8925781 z M 6.5253906 4.7441406 C 6.2153714 4.7139989 5.8974898 4.787206 5.6269531 4.9648438 C 5.5500738 5.0162453 5.4764463 5.0749246 5.4082031 5.1425781 L 5.1328125 5.4160156 C 4.5868223 5.9579621 4.5853157 6.8325878 5.1289062 7.3769531 L 10.419922 12.675781 C 10.798606 13.054868 11.336757 13.163405 11.814453 13.015625 L 16.441406 17.638672 L 16.578125 18.142578 A 0.34969599 0.34990473 89.982474 0 0 16.714844 18.335938 L 18.232422 19.386719 A 0.34969599 0.34990473 89.982474 0 0 18.679688 19.345703 L 19.339844 18.6875 A 0.34969599 0.34990473 89.982474 0 0 19.376953 18.238281 L 18.347656 16.724609 A 0.34969599 0.34990473 89.982474 0 0 18.152344 16.587891 L 17.628906 16.433594 L 13.007812 11.818359 C 13.149087 11.347506 13.039618 10.819486 12.666016 10.445312 L 7.375 5.1464844 C 7.1371814 4.9083741 6.8354098 4.7742824 6.5253906 4.7441406 z M 16.001953 4.8515625 C 15.983675 4.8515625 15.957481 4.8557222 15.939453 4.8632812 C 15.104315 5.1569127 14.322368 5.7557221 13.949219 6.4296875 C 13.653728 6.963508 13.594225 7.5600484 13.738281 8.1230469 C 13.576959 8.5314626 13.295663 9.0824732 12.691406 9.6875 L 13.289062 10.353516 C 13.605473 10.919386 13.654893 11.371078 13.597656 11.753906 C 14.267983 11.082776 15.482548 10.235734 15.910156 10.089844 C 16.95897 10.270581 18.029266 9.8291228 18.539062 8.9082031 C 18.912363 8.2338976 19.002948 7.2516658 18.800781 6.3984375 C 18.793445 6.3685792 18.778827 6.3333508 18.757812 6.3144531 C 18.718607 6.2706106 18.660002 6.2541597 18.601562 6.2617188 C 18.543123 6.2688999 18.493341 6.2966326 18.464844 6.3476562 L 17.439453 8.2011719 C 17.347965 8.3663372 17.139839 8.4411528 16.875 8.4335938 C 16.60857 8.4260347 16.294051 8.3282185 15.974609 8.15625 C 15.655239 7.9841681 15.402594 7.7704352 15.251953 7.5527344 C 15.102737 7.3370745 15.053286 7.1218187 15.144531 6.9570312 L 16.160156 5.1230469 C 16.198061 5.0572831 16.197503 4.9715113 16.148438 4.9140625 C 16.111636 4.8705979 16.056756 4.849068 16.001953 4.8515625 z M 9.5664062 12.621094 L 5.2167969 16.728516 C 4.7521346 17.197026 4.8155801 17.996471 5.3515625 18.527344 C 5.8875418 19.058292 6.687703 19.115108 7.1523438 18.646484 L 11.816406 13.626953 C 10.96192 13.899835 10.221305 13.505163 9.5664062 12.621094 z M 6.3085938 16.878906 C 6.4831966 16.878188 6.6577899 16.943888 6.7910156 17.076172 C 7.0574837 17.339983 7.0590126 17.772795 6.7949219 18.039062 C 6.530816 18.304763 6.0984834 18.308216 5.8320312 18.042969 C 5.5655594 17.779158 5.5640305 17.346308 5.828125 17.080078 C 5.9601779 16.947039 6.133992 16.88004 6.3085938 16.878906 z "
       transform="matrix(0.26458333,0,0,0.26458333,0,290.65)"
       id="path855" />
  </g>
</svg>
