<?xml version="1.0" encoding="UTF-8" standalone="no"?>
<!-- Created with Inkscape (http://www.inkscape.org/) -->

<svg
   xmlns:dc="http://purl.org/dc/elements/1.1/"
   xmlns:cc="http://creativecommons.org/ns#"
   xmlns:rdf="http://www.w3.org/1999/02/22-rdf-syntax-ns#"
   xmlns:svg="http://www.w3.org/2000/svg"
   xmlns="http://www.w3.org/2000/svg"
   xmlns:sodipodi="http://sodipodi.sourceforge.net/DTD/sodipodi-0.dtd"
   xmlns:inkscape="http://www.inkscape.org/namespaces/inkscape"
   width="24"
   height="24"
   viewBox="0 0 6.35 6.35"
   version="1.1"
   id="svg829"
   inkscape:version="0.92.3 (2405546, 2018-03-11)"
   sodipodi:docname="system-help.svg">
  <defs
     id="defs823" />
  <sodipodi:namedview
     id="base"
     pagecolor="#ffffff"
     bordercolor="#666666"
     borderopacity="1.0"
     inkscape:pageopacity="0.0"
     inkscape:pageshadow="2"
     inkscape:zoom="19.708333"
     inkscape:cx="0.86257909"
     inkscape:cy="11.79704"
     inkscape:document-units="mm"
     inkscape:current-layer="layer1"
     showgrid="false"
     showguides="true"
     inkscape:guide-bbox="true"
     inkscape:window-width="1366"
     inkscape:window-height="672"
     inkscape:window-x="0"
     inkscape:window-y="27"
     inkscape:window-maximized="1"
     scale-x="1.9"
     units="px" />
  <metadata
     id="metadata826">
    <rdf:RDF>
      <cc:Work
         rdf:about="">
        <dc:format>image/svg+xml</dc:format>
        <dc:type
           rdf:resource="http://purl.org/dc/dcmitype/StillImage" />
        <dc:title></dc:title>
      </cc:Work>
    </rdf:RDF>
  </metadata>
  <g
     inkscape:label="Capa 1"
     inkscape:groupmode="layer"
     id="layer1"
     transform="translate(0,-290.65)">
    <path
       style="fill:#1a1a1a;fill-opacity:1;stroke-width:0.06922965"
       d="m 3.1625976,290.68462 a 3.1335212,3.1335212 0 0 0 -3.13365879,3.13366 3.1335212,3.1335212 0 0 0 3.13365879,3.13314 3.1335212,3.1335212 0 0 0 3.1336589,-3.13314 3.1335212,3.1335212 0 0 0 -3.1336589,-3.13366 z m -0.00878,0.46612 a 2.6939629,2.6939629 0 0 1 2.6938922,2.69441 2.6939629,2.6939629 0 0 1 -2.6938922,2.6939 2.6939629,2.6939629 0 0 1 -2.69440923,-2.6939 2.6939629,2.6939629 0 0 1 2.69440923,-2.69441 z m 0.054777,0.91571 c -0.4416234,-0.008 -0.9112876,0.16098 -1.0541991,0.49403 -0.082832,0.18513 -0.00617,0.51728 0.271818,0.51728 0.1625994,0 0.2373337,-0.10494 0.2495971,-0.20102 0.00928,-0.0727 -0.020613,-0.13736 -0.038241,-0.19741 -0.020082,-0.0684 0.065786,-0.20125 0.1591633,-0.25528 0.078026,-0.0451 0.1595406,-0.0601 0.1715659,-0.063 0.2802069,-0.0673 0.5598956,0.0815 0.6764446,0.26251 0.1165423,0.18104 -0.01193,0.4554 -0.1963706,0.72244 -0.1844278,0.26706 -0.3821658,0.57028 -0.381372,0.89245 0,0.12265 -0.010867,0.16432 -0.0031,0.21394 0.0062,0.0396 0.1371698,0.0351 0.2377118,0.0165 -0.00874,-0.31205 0.061235,-0.61483 0.3560505,-0.82941 0.3114014,-0.24267 0.6115066,-0.54644 0.5798095,-0.90434 -0.00692,-0.34516 -0.409031,-0.61585 -0.8423259,-0.65474 -0.060924,-0.008 -0.1234628,-0.0129 -0.1865519,-0.014 z m -0.034623,2.82257 c -0.2679303,-0.0145 -0.4534479,0.28914 -0.2924886,0.48266 0.1437481,0.21366 0.5469003,0.16078 0.615983,-0.0811 0.071816,-0.18815 -0.1010777,-0.40465 -0.3234944,-0.40152 z"
       id="path1374"
       inkscape:connector-curvature="0" />
  </g>
</svg>
