<svg xmlns="http://www.w3.org/2000/svg" width="48" height="48" viewBox="0 0 12.7 12.7"><path fill="#2c89a0" d="M6.344.073a6.29 6.29 0 0 0-6.29 6.29 6.29 6.29 0 0 0 6.29 6.288 6.29 6.29 0 0 0 6.29-6.289 6.29 6.29 0 0 0-6.29-6.29zm-.018.936a5.407 5.407 0 0 1 5.407 5.407 5.407 5.407 0 0 1-5.407 5.407A5.407 5.407 0 0 1 .92 6.416 5.407 5.407 0 0 1 6.326 1.01zM3.64 2.516a.375.375 0 0 0-.376.376v6.916c0 .209.168.376.376.376h5.42a.375.375 0 0 0 .376-.376V2.892a.375.375 0 0 0-.376-.376H3.64zm.334.652h4.752c.126 0 .226.098.226.22v1.244c0 .122-.1.22-.226.22H3.974a.222.222 0 0 1-.226-.22V3.387c0-.121.1-.22.226-.22zm3.983 2.338h.725c.108 0 .194.088.194.196v.357a.195.195 0 0 1-.194.195h-.725a.195.195 0 0 1-.194-.195v-.357c0-.109.087-.196.194-.196zm-3.937 0h.544c.108 0 .195.088.195.196v.357a.195.195 0 0 1-.195.196H4.02a.196.196 0 0 1-.196-.196v-.357c0-.108.088-.195.196-.195zm2.62 0h.543c.109 0 .196.088.196.196v.357a.195.195 0 0 1-.196.196h-.544a.195.195 0 0 1-.195-.196v-.357c0-.108.087-.195.195-.195zm-1.31.001h.544c.108 0 .195.088.195.196v.357a.195.195 0 0 1-.195.195H5.33a.195.195 0 0 1-.196-.195v-.357c0-.109.087-.196.196-.196zM4.02 6.63h.544c.108 0 .195.087.195.196v.357a.195.195 0 0 1-.195.196H4.02a.196.196 0 0 1-.196-.196v-.357c0-.109.088-.196.196-.196zm2.62 0h.543c.109 0 .196.087.196.196v.357a.195.195 0 0 1-.196.196h-.544a.195.195 0 0 1-.195-.196v-.357c0-.109.087-.196.195-.196zm1.317 0h.725c.108 0 .194.087.194.196v.357a.195.195 0 0 1-.194.196h-.725a.195.195 0 0 1-.194-.196v-.357c0-.109.087-.196.194-.196zm-2.627 0h.544c.108 0 .195.088.195.196v.357a.195.195 0 0 1-.195.196H5.33a.195.195 0 0 1-.196-.196v-.357c0-.108.087-.195.196-.195zM4.02 7.753h.544c.108 0 .195.087.195.196v.356a.195.195 0 0 1-.195.196H4.02a.196.196 0 0 1-.196-.196v-.356c0-.109.088-.196.196-.196zm2.62 0h.543c.109 0 .196.087.196.196v.356a.195.195 0 0 1-.196.196h-.544a.195.195 0 0 1-.195-.196v-.356c0-.109.087-.196.195-.196zm1.317 0h.725c.108 0 .194.088.194.196v1.48a.195.195 0 0 1-.194.195h-.725a.195.195 0 0 1-.194-.196v-1.48c0-.108.087-.196.194-.196zm-2.627 0h.544c.108 0 .195.088.195.196v.357a.195.195 0 0 1-.195.196H5.33a.195.195 0 0 1-.196-.196v-.357c0-.108.087-.196.196-.196zm1.31 1.122h.543c.109 0 .196.088.196.197v.356a.195.195 0 0 1-.196.196h-.544a.196.196 0 0 1-.195-.196V9.07c0-.108.087-.196.195-.196zm-2.622 0h1.884c.108 0 .194.088.194.197v.356a.194.194 0 0 1-.194.196H4.018a.195.195 0 0 1-.194-.196v-.356c0-.109.086-.196.194-.196z"/></svg>