<svg xmlns="http://www.w3.org/2000/svg" width="48" height="48" viewBox="0 0 12.7 12.7"><path fill="#2c89a0" d="M6.34.07a6.29 6.29 0 0 0-6.29 6.3 6.29 6.29 0 0 0 6.3 6.28 6.29 6.29 0 0 0 6.28-6.29A6.29 6.29 0 0 0 6.34.07zm-.01.94a5.4 5.4 0 0 1 5.4 5.4 5.4 5.4 0 0 1-5.4 5.41 5.4 5.4 0 0 1-5.41-5.4A5.4 5.4 0 0 1 6.32 1zm.1 1.24a4 4 0 0 0-1.54.3 3.96 3.96 0 0 0-2.16 2.21 4.22 4.22 0 0 0-.3 1.59c0 .57.1 1.11.3 1.61a3.88 3.88 0 0 0 2.16 2.2 4.03 4.03 0 0 0 4.08-.62L8.5 8.8a2.93 2.93 0 0 1-.95.58 3.1 3.1 0 0 1-1.12.21 3.2 3.2 0 0 1-1.23-.23 3.02 3.02 0 0 1-1.02-.68 3.19 3.19 0 0 1-.69-1.05 3.46 3.46 0 0 1-.23-1.28c0-.55.12-1.07.36-1.54a3.09 3.09 0 0 1 1.9-1.56 3.38 3.38 0 0 1 2.35.16A2.82 2.82 0 0 1 9.32 5c.08.26.12.55.12.85 0 .48-.1.87-.31 1.18-.21.3-.5.49-.87.55V4.4h-.92V5a1.05 1.05 0 0 0-.43-.5 1.27 1.27 0 0 0-.7-.2c-.5 0-.91.2-1.23.58-.32.38-.48.87-.48 1.48s.16 1.1.48 1.49c.32.37.73.56 1.24.56.26 0 .5-.06.69-.17.2-.13.34-.3.43-.51v.7h.17c.88 0 1.56-.23 2.04-.68.48-.46.72-1.1.72-1.93a3.45 3.45 0 0 0-.67-2.07 3.6 3.6 0 0 0-1.36-1.12 4.1 4.1 0 0 0-1.8-.4zm-.06 2.92c.27 0 .48.1.64.32.16.21.24.5.24.87s-.08.67-.24.89a.74.74 0 0 1-.63.32.74.74 0 0 1-.63-.32 1.51 1.51 0 0 1-.23-.89c0-.37.07-.66.23-.87a.74.74 0 0 1 .62-.32z"/></svg>