<svg xmlns="http://www.w3.org/2000/svg" width="48" height="48" viewBox="0 0 12.7 12.7"><path fill="#2c89a0" d="M6.344.073a6.29 6.29 0 0 0-6.29 6.29 6.29 6.29 0 0 0 6.29 6.288 6.29 6.29 0 0 0 6.29-6.289 6.29 6.29 0 0 0-6.29-6.29zm-.018.936a5.407 5.407 0 0 1 4.3 2.138c-.867.92-3.1 2.584-3.775 2.584-.079 0-.11-.624-.178-1.567-.07-.981-.045-1.787-.161-1.732-.016.007-.287.74-.686 1.463-.958 1.736-1.565 2.497-2.547 3.151-.425.283-1.093.64-1.24.835-.14.186-.055.072.512-.09 1.416-.407 1.31-.73.24.553-1.458 1.748-.725 1.205.802-.223.7-.655 1.464-1.114 1.662-1.19.213-.083.347-.14.612-.158.314-.021.495.01.612.356.099.293.324.829.678 1.248.143.17.27.251.4.333.121.074.243.153.41.187.335.074.559.037.794.026.503-.03 1.357-.489 1.943-.96.69-.554.939-.827 1.017-1.312a5.407 5.407 0 0 1-5.395 5.172A5.407 5.407 0 0 1 .92 6.416 5.407 5.407 0 0 1 6.326 1.01zm4.876 3.083a5.407 5.407 0 0 1 .382 1.093l-.285.422C10.34 7.038 9.19 7.99 8.413 7.99c-1.713 0-1.941-1.324-.314-1.993 1.081-.445 2.364-1.232 3.103-1.904zm-5.038.345l.067.757c-.013.498-.288.78-.593.907-.302.127-.6.343-.572.005.015-.179.285-.465.61-.922l.488-.747z"/></svg>