<?xml version="1.0" encoding="UTF-8" standalone="no"?><svg xmlns:dc="http://purl.org/dc/elements/1.1/" xmlns:cc="http://creativecommons.org/ns#" xmlns:rdf="http://www.w3.org/1999/02/22-rdf-syntax-ns#" xmlns="http://www.w3.org/2000/svg" width="48" height="48" viewBox="0 0 12.7 12.7"><metadata><rdf:RDF><cc:Work><dc:format>image/svg+xml</dc:format><dc:type rdf:resource="http://purl.org/dc/dcmitype/StillImage"/><dc:title/></cc:Work></rdf:RDF></metadata><path d="M6.34.07a6.29 6.29 0 0 0-6.29 6.3 6.29 6.29 0 0 0 6.3 6.28 6.29 6.29 0 0 0 6.28-6.29A6.29 6.29 0 0 0 6.34.07zM6.32 1l.01.01a5.4 5.4 0 0 1 5.4 5.4 5.4 5.4 0 0 1-5.4 5.41 5.4 5.4 0 0 1-5.41-5.4A5.4 5.4 0 0 1 6.32 1z" fill="#2c89a0"/><ellipse cx="6.28" cy="6.42" rx="4.84" ry="4.84" fill="#f57c00"/><path d="M6.28 6.42l4.8-1.29a4.97 4.96 0 0 0-3.51-3.5z" fill="#479ae1"/><path d="M6.28 6.42l3.52 3.5a4.97 4.96 0 0 0 1.27-4.79z" fill="#4fae53"/><path d="M6.28 6.42L5 11.2a4.97 4.96 0 0 0 4.8-1.29z" fill="#e0ad2f"/><path d="M6.28 6.42L1.48 7.7A4.97 4.96 0 0 0 5 11.2z" fill="#e98928"/><path d="M6.28 6.42L2.78 2.9A4.97 4.96 0 0 0 1.48 7.7z" fill="#d74845"/><path d="M6.28 6.42l1.29-4.8a4.97 4.96 0 0 0-4.8 1.3z" fill="#a458b8"/><path d="M6.28 3.44a2.98 2.98 0 1 0 2.98 2.98V4.19a.74.74 0 0 0-.74-.75zm1.99.5a.5.5 0 0 1 .5.5.5.5 0 0 1-.5.5.5.5 0 0 1-.5-.5.5.5 0 0 1 .5-.5z" fill="#ececec"/></svg>