<svg xmlns="http://www.w3.org/2000/svg" width="48" height="48" viewBox="0 0 12.7 12.7"><path fill="#2c89a0" d="M6.344.073a6.29 6.29 0 0 0-6.29 6.29 6.29 6.29 0 0 0 6.29 6.288 6.29 6.29 0 0 0 6.29-6.289 6.29 6.29 0 0 0-6.29-6.29zm-.018.936a5.407 5.407 0 0 1 5.407 5.407 5.407 5.407 0 0 1-5.407 5.407A5.407 5.407 0 0 1 .92 6.416 5.407 5.407 0 0 1 6.326 1.01zm.195 1.114a6.261 6.261 0 0 0-.475.026c-.12.011-.237.015-.353.032-2.375.35-4.132 1.987-3.972 3.758.103 1.147.984 2.092 2.243 2.59l-.526 2.048 2.325-1.682.016-.001c.287.014.576.018.875-.01 2.552-.234 4.493-1.932 4.325-3.79-.157-1.743-2.112-3.011-4.458-2.971zm-.428.91a.58.58 0 0 1 .09.003.368.368 0 0 1 .328.411c.011.93.095 1.844.123 2.765-.128.013-.317.038-.439.051-.2-.932-.269-1.886-.47-2.835v-.005c-.003-.03-.008-.05-.006-.065v-.005c.005-.157.18-.306.374-.32zM6.5 6.947a.748.748 0 0 1 .095.001.407.407 0 0 1 .309.18.026.026 0 0 0 .007.005c.148.205.05.538-.181.625h-.007c-.237.111-.565-.066-.585-.335v-.005a.433.433 0 0 1 .122-.348v-.005a.352.352 0 0 1 .24-.117z"/></svg>