<svg xmlns="http://www.w3.org/2000/svg" width="48" height="48" viewBox="0 0 12.7 12.7"><path d="M6.344.072a6.29 6.29 0 0 0-6.29 6.29 6.29 6.29 0 0 0 6.29 6.289 6.29 6.29 0 0 0 6.29-6.29 6.29 6.29 0 0 0-6.29-6.29zm-.018.937a5.407 5.407 0 0 1 5.407 5.407 5.407 5.407 0 0 1-5.407 5.407A5.407 5.407 0 0 1 .92 6.416 5.407 5.407 0 0 1 6.326 1.01zM3.73 2.353c-.152 0-.274.13-.274.293V9.64c0 .162.123.292.275.292 0 0 1.31.414 2.621.414 1.31 0 2.62-.414 2.62-.414.153 0 .276-.13.276-.292V2.646c0-.162-.123-.293-.275-.293H3.73zm.61.599h4.024c.158 0 .286.128.286.286V8.26a.285.285 0 0 1-.286.285H4.338a.285.285 0 0 1-.286-.285V3.238c0-.158.128-.286.286-.286zm.114 5.993a.4.4 0 0 1 .4.4.4.4 0 0 1-.4.4.4.4 0 0 1-.4-.4.4.4 0 0 1 .4-.4zm1.199 0a.4.4 0 0 1 .4.4.4.4 0 0 1-.4.4.4.4 0 0 1-.4-.4.4.4 0 0 1 .4-.4zm1.398 0a.4.4 0 0 1 .4.4.4.4 0 0 1-.4.4.4.4 0 0 1-.4-.4.4.4 0 0 1 .4-.4zm1.2 0a.4.4 0 0 1 .4.4.4.4 0 0 1-.4.4.4.4 0 0 1-.4-.4.4.4 0 0 1 .4-.4z" fill="#2c89a0"/></svg>