<svg xmlns="http://www.w3.org/2000/svg" width="48" height="48" viewBox="0 0 12.7 12.7"><path fill="#2c89a0" d="M6.344.073a6.29 6.29 0 0 0-6.29 6.29 6.29 6.29 0 0 0 6.29 6.288 6.29 6.29 0 0 0 6.29-6.289 6.29 6.29 0 0 0-6.29-6.29zm-.018.936a5.407 5.407 0 0 1 5.407 5.407 5.407 5.407 0 0 1-5.407 5.407A5.407 5.407 0 0 1 .92 6.416 5.407 5.407 0 0 1 6.326 1.01zM4.284 2.48c-.686 0-1.239.553-1.239 1.24v5.287c0 .686.553 1.24 1.24 1.24h4.248c.687 0 1.24-.554 1.24-1.24V3.718c0-.686-.553-1.24-1.24-1.24H4.284zm4.851 2.336v2.172h.004v1.049c-.59.032-1.322.025-1.48-.907L3.898 9.18a1 1 0 0 1-.244-.652V4.816h5.48zM9.14 8.15v.466h-.012a1 1 0 0 1-.955.917v.005H4.665a1 1 0 0 1-.626-.222l5.1-1.166z"/></svg>