<svg xmlns="http://www.w3.org/2000/svg" width="48" height="48" viewBox="0 0 12.7 12.7"><path fill="#2c89a0" d="M6.344.077A6.267 6.267 0 0 0 .076 6.344a6.267 6.267 0 0 0 6.268 6.267 6.267 6.267 0 0 0 6.267-6.267A6.267 6.267 0 0 0 6.344.077zm-.018.932a5.388 5.388 0 0 1 5.388 5.39 5.388 5.388 0 0 1-5.388 5.387A5.388 5.388 0 0 1 .937 6.398a5.388 5.388 0 0 1 5.39-5.389zm-.43 1.108l-.09 1.26a3.024 3.024 0 0 0-1.172.488l-.956-.83-.643.643.827.953a3.024 3.024 0 0 0-.484 1.175l-1.261.09v.907l1.26.09a3.024 3.024 0 0 0 .488 1.173l-.83.956.643.642.953-.827a3.024 3.024 0 0 0 1.175.484l.09 1.262h.908l.09-1.26a3.024 3.024 0 0 0 1.172-.488l.956.829.643-.642-.827-.954a3.024 3.024 0 0 0 .484-1.174l1.261-.09v-.907l-1.26-.09a3.024 3.024 0 0 0-.488-1.173l.83-.956-.643-.643-.953.827a3.024 3.024 0 0 0-1.175-.484l-.09-1.261h-.908zm-.12 2.275A1.058 1.058 0 0 1 6.834 5.45a1.058 1.058 0 0 1-1.058 1.06 1.058 1.058 0 0 1-1.058-1.06 1.058 1.058 0 0 1 1.058-1.058z"/></svg>