<svg xmlns="http://www.w3.org/2000/svg" xmlns:xlink="http://www.w3.org/1999/xlink" width="48" height="48" viewBox="0 0 12.7 12.7"><defs><radialGradient id="b" cx="22.5" cy="28.116" r="14.538" fx="22.5" fy="28.116" gradientTransform="matrix(.34637 0 0 .3467 -3.7 -2.501)" gradientUnits="userSpaceOnUse" xlink:href="#a"/><linearGradient id="a"><stop offset="0" stop-color="#ef2929"/><stop offset="1" stop-color="#c00"/></linearGradient></defs><path d="M6.344.073a6.29 6.29 0 0 0-6.29 6.29 6.29 6.29 0 0 0 6.29 6.288 6.29 6.29 0 0 0 6.29-6.289 6.29 6.29 0 0 0-6.29-6.29zm-.018.936a5.407 5.407 0 0 1 5.407 5.407 5.407 5.407 0 0 1-5.407 5.407A5.407 5.407 0 0 1 .919 6.416a5.407 5.407 0 0 1 5.407-5.407zm.6 3.583v3.73l3.73-1.865z" fill="#2c89a0"/><ellipse style="marker:none" ry="2.046" rx="2.05" overflow="visible" cy="6.35" cx="4.094" opacity=".75" fill="url(#b)" fill-rule="evenodd"/></svg>