<svg xmlns="http://www.w3.org/2000/svg" width="48" height="48" viewBox="0 0 12.7 12.7"><path fill="#2c89a0" d="M6.344.073a6.29 6.29 0 0 0-6.29 6.29 6.29 6.29 0 0 0 6.29 6.288 6.29 6.29 0 0 0 6.29-6.289 6.29 6.29 0 0 0-6.29-6.29zm-.018.936a5.407 5.407 0 0 1 5.407 5.407 5.407 5.407 0 0 1-5.407 5.407A5.407 5.407 0 0 1 .92 6.416 5.407 5.407 0 0 1 6.326 1.01z"/><path fill="maroon" d="M2.69 3.654h1.541L6.39 5.58l2.08-1.926h1.54v5.392H8.47V5.965l-1.926 1.54h-.386l-1.926-1.54v3.081h-1.54z" opacity=".75"/></svg>