<svg xmlns="http://www.w3.org/2000/svg" width="48" height="48" version="1"><path fill="none" stroke="#2c89a0" stroke-width=".982" d="M6.712 37.342l7.251-11.315L20 31.228l7.963-11.73 8.136 4.224 5.096-15.707"/><path fill="none" stroke="#2c89a0" d="M6.718 37.338l7.236-4.524 5.921 3.334 7.949-9.292 8.062 3.057 5.303-3.358"/><path fill="#2c89a0" d="M15.937 26A1.969 2 0 1 1 12 26a1.969 2 0 1 1 3.937 0zm6 5A1.969 2 0 1 1 18 31a1.969 2 0 1 1 3.937 0zM30 19.814a1.969 2 0 1 1-3.938 0 1.969 2 0 1 1 3.938 0zm7.937 3.188a1.969 2 0 1 1-3.938 0 1.969 2 0 1 1 3.938 0zm-22 10A1.969 2 0 1 1 12 33a1.969 2 0 1 1 3.937 0zm6 3A1.969 2 0 1 1 18 36a1.969 2 0 1 1 3.937 0zm8-9a1.969 2 0 1 1-3.938 0 1.969 2 0 1 1 3.938 0zm8 3a1.969 2 0 1 1-3.938 0 1.969 2 0 1 1 3.938 0z" color="#000"/><path fill="#2c89a0" d="M24.001.23A23.77 23.77 0 0 0 .229 24a23.77 23.77 0 0 0 23.772 23.77A23.77 23.77 0 0 0 47.771 24 23.77 23.77 0 0 0 24 .229zm-.068 3.539a20.436 20.436 0 0 1 20.435 20.435A20.436 20.436 0 0 1 23.933 44.64 20.436 20.436 0 0 1 3.495 24.204 20.436 20.436 0 0 1 23.933 3.77z"/></svg>