<svg xmlns="http://www.w3.org/2000/svg" width="48" height="48" viewBox="0 0 12.7 12.7"><path fill="#2c89a0" d="M6.34.07a6.29 6.29 0 0 0-6.29 6.3 6.29 6.29 0 0 0 6.3 6.28 6.29 6.29 0 0 0 6.28-6.29A6.29 6.29 0 0 0 6.34.07zm-.01.94a5.4 5.4 0 0 1 5.4 5.4 5.4 5.4 0 0 1-5.4 5.41 5.4 5.4 0 0 1-5.41-5.4A5.4 5.4 0 0 1 6.32 1zM3.89 2.5a.98.98 0 0 0-.98.98v4.91a.98.98 0 0 0 .98.98h4.92a.98.98 0 0 0 .98-.98V3.48a.98.98 0 0 0-.98-.99H3.89zm0 .49h4.92a.49.49 0 0 1 .49.49V7.9a.49.49 0 0 1-.5.5H3.9a.49.49 0 0 1-.5-.5V3.48c0-.27.22-.5.5-.5zm3.27 1.96c-.38 0-.76.12-1.12.37l.19.42c.15-.1.3-.18.44-.23.15-.06.28-.08.43-.08.22 0 .4.05.5.17.13.11.22.27.22.47v.15a2.25 2.25 0 0 0-.38-.09 1.97 1.97 0 0 0-.38-.03c-.18 0-.33.02-.48.06a1.27 1.27 0 0 0-.38.19.82.82 0 0 0-.23.27.89.89 0 0 0-.02.76c.05.1.1.2.18.27.1.08.2.14.31.19a1.33 1.33 0 0 0 .97-.06c.18-.1.34-.22.46-.39l.01.17a.36.36 0 0 0 .11.22c.06.05.15.08.26.09h.14c.05 0 .1 0 .16-.02v-.5c-.07 0-.15-.02-.18-.05a.24.24 0 0 1-.06-.15V6.1c0-.37-.04-.65-.26-.84-.2-.2-.5-.31-.89-.31zm-.04 1.5c.1 0 .3.03.41.05l.3.1v.36c0 .07-.07.15-.14.22-.21.19-.47.21-.71.23-.16 0-.36 0-.46-.08a.46.46 0 0 1-.17-.35c0-.15.15-.28.28-.37a.82.82 0 0 1 .49-.15z"/></svg>