<svg xmlns="http://www.w3.org/2000/svg" width="48" height="48" viewBox="0 0 12.7 12.7"><path fill="#2c89a0" d="M6.344.073a6.29 6.29 0 0 0-6.29 6.29 6.29 6.29 0 0 0 6.29 6.288 6.29 6.29 0 0 0 6.29-6.289 6.29 6.29 0 0 0-6.29-6.29zm-.018.936a5.407 5.407 0 0 1 5.407 5.407 5.407 5.407 0 0 1-5.407 5.407A5.407 5.407 0 0 1 .92 6.416 5.407 5.407 0 0 1 6.326 1.01zm.87 1.016c-.926 0-1.676.711-1.676 1.59.007.324.034.71.223 1.589.054.163.311.455.565.728-.007.062-.01.12-.021.185-.124.103-.29.194-.47.279-.284-.116-.557-.238-.727-.386l-.003-.172c.125-.163.243-.326.273-.422.134-.617.134-.844.141-1.074 0-.594-.474-1.075-1.06-1.075-.585 0-1.059.481-1.059 1.075.005.22.022.48.142 1.074.027.09.143.237.27.387l-.006.207c-.517.43-1.926.622-1.924 1.067l-.177 1.334c0 .381.918.7 2.145.78.198.49 1.628.87 3.364.87 1.873 0 3.391-.442 3.391-.986l-.218-1.642c-.003-.469-1.64-.768-2.27-1.316-.005-.043-.006-.085-.01-.128.244-.29.504-.61.562-.785.212-.913.211-1.25.223-1.59 0-.878-.751-1.589-1.678-1.589z"/></svg>