<svg xmlns="http://www.w3.org/2000/svg" width="48" height="48" viewBox="0 0 12.7 12.7"><path fill="#2c89a0" d="M6.344.073a6.29 6.29 0 0 0-6.29 6.29 6.29 6.29 0 0 0 6.29 6.288 6.29 6.29 0 0 0 6.29-6.289 6.29 6.29 0 0 0-6.29-6.29zm-.018.936a5.407 5.407 0 0 1 5.407 5.407 5.407 5.407 0 0 1-5.407 5.407A5.407 5.407 0 0 1 .92 6.416 5.407 5.407 0 0 1 6.326 1.01zm.048.432a1.69 1.69 0 0 0-1.687 1.687v.562H3.615A.614.614 0 0 0 3 4.305v5.517c0 .34.275.615.615.615h5.517c.34 0 .615-.274.615-.615V4.305a.614.614 0 0 0-.615-.615H8.06v-.562a1.69 1.69 0 0 0-1.686-1.687zm0 .562c.628 0 1.124.497 1.124 1.125v.562H5.25v-.562c0-.628.497-1.125 1.125-1.125zM4.95 4.253c.16 0 .298.125.298.28 0 .156-.137.282-.298.282a.277.277 0 0 1-.282-.281c0-.156.12-.282.282-.282zm2.81 0c.162 0 .3.125.3.28 0 .156-.138.282-.3.282a.277.277 0 0 1-.28-.281c0-.156.12-.282.28-.282zM6.392 6.15a1.46 1.425 0 0 1 1.46 1.425A1.46 1.425 0 0 1 6.392 9a1.46 1.425 0 0 1-1.46-1.424 1.46 1.425 0 0 1 1.46-1.425z"/><path fill="#d45500" d="M5.748 6.729a.216.216 0 1 0 0 .433.216.216 0 0 0 0-.433zm.65 0a.216.216 0 1 0 0 .433.216.216 0 0 0 0-.433zm.649 0a.216.216 0 1 0 0 .433.216.216 0 0 0 0-.433zm-1.299.65a.216.216 0 1 0 0 .432.216.216 0 0 0 0-.433zm.65 0a.216.216 0 1 0 0 .432.216.216 0 0 0 0-.433zm.649 0a.216.216 0 1 0 0 .432.216.216 0 0 0 0-.433zm-1.299.648a.216.216 0 1 0 0 .433.216.216 0 0 0 0-.433zm.65 0a.216.216 0 1 0 0 .433.216.216 0 0 0 0-.433zm.649 0a.216.216 0 1 0 0 .433.216.216 0 0 0 0-.433z" opacity=".75"/></svg>