<svg xmlns="http://www.w3.org/2000/svg" width="48" height="48" viewBox="0 0 12.7 12.7"><g fill="#2c89a0"><path d="M6.344.073a6.29 6.29 0 0 0-6.29 6.29 6.29 6.29 0 0 0 6.29 6.289 6.29 6.29 0 0 0 6.29-6.29 6.29 6.29 0 0 0-6.29-6.29zm-.018.936a5.407 5.407 0 0 1 5.407 5.407 5.407 5.407 0 0 1-5.407 5.407A5.407 5.407 0 0 1 .92 6.416 5.407 5.407 0 0 1 6.326 1.01z"/><path fill-rule="evenodd" d="M4.98 1.733c-.617 0-1.083.384-1.26.732-.178.348-.17.681-.17.681v7.417l2.826-1.414 2.826 1.414.005-4.307h-.002l-.002-3.11s.008-.33-.166-.677c-.173-.347-.635-.736-1.248-.736H4.98zm1.396 1.005c.155 0 .657 1.258.783 1.35.126.091 1.473.182 1.52.33.049.149-.988 1.016-1.036 1.165-.048.148.282 1.462.157 1.554-.126.091-1.269-.63-1.424-.63-.156 0-1.298.721-1.424.63-.126-.092.205-1.406.157-1.554-.048-.149-1.085-1.016-1.037-1.165.048-.148 1.395-.239 1.52-.33.127-.092.628-1.35.784-1.35z" font-family="sans-serif" font-weight="400" overflow="visible" style="font-variant-ligatures:normal;font-variant-position:normal;font-variant-caps:normal;font-variant-numeric:normal;font-variant-alternates:normal;font-feature-settings:normal;text-indent:0;text-decoration-line:none;text-decoration-style:solid;text-decoration-color:#000;text-transform:none;text-orientation:mixed;shape-padding:0;isolation:auto;mix-blend-mode:normal" white-space="normal"/></g></svg>