<svg xmlns="http://www.w3.org/2000/svg" width="48" height="48" version="1"><path d="M24 .229v.003A23.773 23.773 0 0 0 .227 24.006 23.773 23.773 0 0 0 24 47.77a23.773 23.773 0 0 0 23.773-23.769A23.773 23.773 0 0 0 24 .229zm-.066 3.542a20.436 20.436 0 0 1 20.435 20.436 20.436 20.436 0 0 1-20.435 20.436A20.436 20.436 0 0 1 3.5 24.207 20.436 20.436 0 0 1 23.934 3.773z" fill="#2c89a0"/><path d="M26.094 7.84l4.164 26H7.094l23.964 4.997 7.036-4.113-4.016-25.093zm-7.098 6l-6.123 8.339-4.57-2.445-2.209.728 5.253 3.794-3.825 5.209 2.33.019 3.589-3.716 8.41 6.072 4.243-2.584-2.262-14.25zm.841 5.303l1.173 7.391-5.478-2.932z" fill="#1c65c2" opacity=".75"/></svg>