<?xml version="1.0" encoding="UTF-8" standalone="no"?><svg xmlns:dc="http://purl.org/dc/elements/1.1/" xmlns:cc="http://creativecommons.org/ns#" xmlns:rdf="http://www.w3.org/1999/02/22-rdf-syntax-ns#" xmlns="http://www.w3.org/2000/svg" width="48" height="48" viewBox="0 0 12.7 12.7"><metadata><rdf:RDF><cc:Work><dc:format>image/svg+xml</dc:format><dc:type rdf:resource="http://purl.org/dc/dcmitype/StillImage"/><dc:title/></cc:Work></rdf:RDF></metadata><path d="M6.34.07a6.29 6.29 0 0 0-6.29 6.3 6.29 6.29 0 0 0 6.3 6.28 6.29 6.29 0 0 0 6.28-6.29A6.29 6.29 0 0 0 6.34.07zm-.01.94a5.4 5.4 0 0 1 5.4 5.4 5.4 5.4 0 0 1-.34 1.87H8.67c-.1-.23-1.28-2.92.13-5.05a.28.28 0 0 0 .03-.21.28.28 0 0 0-.06-.12.28.28 0 0 0-.22-.09 5.2 5.2 0 0 0-4.71 2.9c-.7 1.3-.8 2.37-.81 2.57H1.26a5.4 5.4 0 0 1-.34-1.86A5.4 5.4 0 0 1 6.32 1zm1.83 2.4c-1.22 2.45.06 5.26.06 5.26l.04.04c.04.07.12.11.2.12h2.7a5.4 5.4 0 0 1-4.83 3 5.4 5.4 0 0 1-4.84-3h1.75c.08 0 .15-.04.2-.1a.28.28 0 0 0 .06-.12v-.03s.13-1.3.82-2.6a4.62 4.62 0 0 1 3.84-2.56z" fill="#2c89a0"/></svg>