<svg xmlns="http://www.w3.org/2000/svg" width="48" height="48" viewBox="0 0 12.7 12.7"><path fill="#2c89a0" d="M6.344.073a6.29 6.29 0 0 0-6.29 6.29 6.29 6.29 0 0 0 6.29 6.288 6.29 6.29 0 0 0 6.29-6.289 6.29 6.29 0 0 0-6.29-6.29zm-.018.936a5.407 5.407 0 0 1 5.407 5.407 5.407 5.407 0 0 1-5.407 5.407A5.407 5.407 0 0 1 .92 6.416 5.407 5.407 0 0 1 6.326 1.01zm-2.03 1.934c-.642.005-1.27.29-1.744.559-.278.17-.3.242-.305.583l-.02 4.612c.004.156.05.33.213.241.051-.034.102-.067.152-.098 1.69-1.037 3.108-.299 3.597.917l-.057-5.684c-.535-.857-1.193-1.134-1.836-1.13zm4.108 0c-.643-.004-1.3.273-1.836 1.13l-.057 5.684C7 8.541 8.418 7.803 10.108 8.84c.05.031.1.064.152.098.163.089.21-.085.212-.241l-.02-4.612c-.004-.341-.026-.413-.304-.583-.474-.27-1.102-.555-1.744-.559z"/></svg>