<svg xmlns="http://www.w3.org/2000/svg" width="48" height="48" viewBox="0 0 12.7 12.7"><path d="M6.34.07a6.29 6.29 0 0 0-6.29 6.3 6.29 6.29 0 0 0 6.3 6.28 6.29 6.29 0 0 0 6.28-6.29A6.29 6.29 0 0 0 6.34.07zm-.01.94a5.4 5.4 0 0 1 5.4 5.4 5.4 5.4 0 0 1-5.4 5.41 5.4 5.4 0 0 1-5.41-5.4A5.4 5.4 0 0 1 6.32 1zM2.8 2.5h-.08a.2.2 0 0 0-.09.05c-.2.16-.14.78.2 2.1.2.73.36 1.12.64 1.53.18.27.27.38.56.67.27.3.6.7.62 1.05-.08.69-.61 1.05-.64 1.63 0 .7.36 1.28 1.06 1.28a.6.6 0 0 0 .28-.06 1.28 1.28 0 0 0 1 .48 1.28 1.28 0 0 0 1-.5c.1.05.19.08.28.08.7 0 1.06-.57 1.06-1.28-.03-.58-.56-.94-.64-1.63.01-.34.35-.75.62-1.05.3-.3.38-.4.56-.67.28-.41.44-.8.63-1.54.35-1.3.4-1.93.21-2.1a.2.2 0 0 0-.09-.03H9.9c-.1 0-.23.05-.38.12-.3.15-.6.37-.94.7-.51.48-.7.76-1.29 1.98-.18.36-.4.8-.66 1.19-.08.05-.28.05-.28.05s-.2 0-.28-.05a9.26 9.26 0 0 1-.66-1.2 5.63 5.63 0 0 0-1.29-1.97 3.72 3.72 0 0 0-.94-.7 1.13 1.13 0 0 0-.38-.12zm.15.5l.04.01c.26.13.52.32.84.62.48.47.6.66 1.2 1.87.14.29.32.64.53 1-.3.11-.58.3-.8.55-.13-.19-.28-.35-.41-.48v-.01l-.02-.01c-.29-.29-.33-.34-.5-.6-.26-.38-.4-.7-.58-1.42-.17-.64-.27-1.11-.3-1.4V3zm6.8 0v.12c-.03.3-.13.77-.3 1.41a4.16 4.16 0 0 1-.57 1.42c-.18.26-.22.31-.51.6h-.01l-.01.02c-.13.13-.28.3-.41.48-.22-.25-.5-.44-.8-.56.21-.35.39-.7.53-1 .6-1.2.72-1.39 1.2-1.86.32-.3.58-.5.84-.62l.04-.01zM5.32 7.93c.42.05.6.4.6.66a.21.21 0 0 1 .03.1.21.21 0 0 1-.22.21.21.21 0 0 1-.04 0h.04c.13 0 .2-.13.2-.3a.21.21 0 0 0-.2-.12.21.21 0 0 0-.21.21.21.21 0 0 0 .17.2c-.27-.01-.62-.22-.62-.48 0-.27-.02-.48.25-.48zm2.06 0c.27 0 .25.21.25.48 0 .26-.36.47-.62.49a.21.21 0 0 1-.04 0 .21.21 0 0 1-.22-.21.21.21 0 0 1 .03-.1c0-.26.18-.61.6-.66zm-.6.66c0 .18.06.31.19.31H7a.21.21 0 0 0 .17-.21.21.21 0 0 0-.21-.21.21.21 0 0 0-.2.11zm-.43.74a.9.9 0 0 1 .6.21c.16.2-.19.6-.6.64l.04.01v.54c0 .06.04.1.1.1h.22a.1.1 0 0 0 .1-.1v-.34l.3.21a1 1 0 0 1-.76.36 1 1 0 0 1-.74-.33l.28-.2v.3c0 .06.05.1.1.1h.22a.1.1 0 0 0 .1-.1v-.54l.04-.01c-.41-.03-.76-.44-.6-.64a.9.9 0 0 1 .6-.21zm0 .85z" fill="#2c89a0"/></svg>