<svg xmlns="http://www.w3.org/2000/svg" width="48" height="48" viewBox="0 0 12.7 12.7"><path fill="#2c89a0" d="M6.344.073a6.29 6.29 0 0 0-6.29 6.29 6.29 6.29 0 0 0 6.29 6.288 6.29 6.29 0 0 0 6.29-6.289 6.29 6.29 0 0 0-6.29-6.29zm-.018.936a5.407 5.407 0 0 1 5.407 5.407 5.407 5.407 0 0 1-5.407 5.407A5.407 5.407 0 0 1 .92 6.416 5.407 5.407 0 0 1 6.326 1.01zm1.065 1.398c-.495.007-.095 1.178-.319 1.656-.238.51-.455.371-.525.225s.087-1.492-.595-1.226c-.503.196.288 1.033.23 1.325-.179.893-1.284.534-1.471.285-.187-.249-1.535-2.192-2.198-1.188-.664 1.004 2.004 1.497 1.96 1.542-.046.045.662.343.584.465-.078.121-.162.403-.549.522s-1.039-.54-1.199.153c-.16.694.941.15 1.22.106.279-.045.266.08.332.19.048.08.013.212.013.28 0 .066-.032.456-.182.492-.74.18-1.911.357-1.48 1.078.43.722 1.403-.85 1.788-.956.385-.108.564.097.684.175.121.078.277.21.178.739-.1.528-1.251 2.063-.32 2.023.93-.04.571-1.715.737-1.882.166-.166.565-.359.893-.268.327.09.34.964.532.803.3-.25-.358-.815-.237-.97.12-.154.206-.399.446-.473.841-.259 1.832 1.826 2.297.962.466-.864-1.45-1.105-1.544-1.398-.093-.293-.255-.38-.178-.502.078-.121.136.07.302-.096.166-.167 1.327.833 1.493.167.165-.667-1.626-.433-1.626-.568 0-.134.258-.315.23-.457-.04-.212-.223-.303-.083-.355.139-.052 1.336.36 1.299-.135-.04-.536-.814-.066-1.251-.049-.21.008-.251-.26-.248-.294.015-.196.209-.175.183-.322-.034-.189-.288-.056-.256-.21.082-.388 1.046-.605.653-.99-.392-.385-.665.562-.94.897-.195.238-.418.356-.642.288-.159-.05-.291-.018-.264-.426.026-.408.828-1.427.165-1.594a.435.435 0 0 0-.112-.014z"/></svg>