<svg xmlns="http://www.w3.org/2000/svg" width="48" height="48" viewBox="0 0 12.7 12.7"><path d="M6.34.07a6.29 6.29 0 0 0-6.29 6.3 6.29 6.29 0 0 0 6.3 6.28 6.29 6.29 0 0 0 6.28-6.29A6.29 6.29 0 0 0 6.34.07zM6.32 1l.01.01a5.4 5.4 0 0 1 5.4 5.4 5.4 5.4 0 0 1-5.4 5.41 5.4 5.4 0 0 1-5.41-5.4A5.4 5.4 0 0 1 6.32 1zM3.53 2.43a.4.4 0 0 0-.4.4v7.21c0 .22.19.4.4.4h5.63a.4.4 0 0 0 .4-.4V7.96l-.59.59v.99c0 .19-.15.34-.33.34H4.59V2.99h2.59v2.74l.5-.3.5.3V3h.46c.18 0 .33.16.33.35v2.34l.59-.6V2.84a.4.4 0 0 0-.4-.4H3.53zm6.51 2.81a.28.28 0 0 0-.2.08l-.42.43.93.93.42-.43a.28.28 0 0 0 0-.4l-.53-.52a.28.28 0 0 0-.2-.09zm-.82.7zm0 0L6.66 8.5l.93.93 2.56-2.55-.93-.93zM6.46 8.7l-.2 1.13 1.13-.2-.93-.93z" fill="#2c89a0"/></svg>