<svg xmlns="http://www.w3.org/2000/svg" width="48" height="48" viewBox="0 0 12.7 12.7"><path d="M6.34.07a6.29 6.29 0 0 0-6.29 6.3 6.29 6.29 0 0 0 6.3 6.28 6.29 6.29 0 0 0 6.28-6.29A6.29 6.29 0 0 0 6.34.07zm-.01.94a5.4 5.4 0 0 1 5.4 5.4 5.4 5.4 0 0 1-5.4 5.41 5.4 5.4 0 0 1-5.41-5.4A5.4 5.4 0 0 1 6.32 1z" fill="#2c89a0"/><g opacity=".75"><path d="M6.35 2.91H3.28c-.2 0-.37.16-.37.37v3.07h3.44z" fill="#d40000" opacity=".75"/><path d="M6.35 2.91h3.07c.2 0 .37.16.37.37v3.07H6.35z" opacity=".75" fill="green"/><path d="M6.35 9.79H3.28a.37.37 0 0 1-.37-.37V6.35h3.44z" fill="#ff0" opacity=".75"/><path d="M6.35 9.79h3.07c.2 0 .37-.16.37-.37V6.35H6.35z" fill="#00f" opacity=".75"/></g></svg>