<svg xmlns="http://www.w3.org/2000/svg" width="48" height="48" version="1"><path d="M24 .23A23.77 23.77 0 0 0 .23 24.01 23.77 23.77 0 0 0 24 47.77 23.77 23.77 0 0 0 47.77 24 23.77 23.77 0 0 0 24 .23zm-.07 3.54a20.44 20.44 0 0 1 20.44 20.44 20.44 20.44 0 0 1-20.44 20.43A20.44 20.44 0 0 1 3.5 24.21 20.44 20.44 0 0 1 23.93 3.77zM8.3 33.02v1.64a18.13 18.13 0 0 0 .39.67 18.13 18.13 0 0 0 1.05 1.47 18.13 18.13 0 0 0 1.2 1.37 18.13 18.13 0 0 0 1 .93h2.84v-6.08H8.3zm8.32 0v6.08h6.47v-6.08h-6.47zm8.31 0v6.08h6.48v-6.08h-6.48zm8.24 0v6.08h2.76a18.13 18.13 0 0 0 .63-.55 18.13 18.13 0 0 0 1.23-1.32 18.13 18.13 0 0 0 1.1-1.44 18.13 18.13 0 0 0 .75-1.23v-1.54h-6.47z" fill="#2c89a0"/></svg>