<?xml version="1.0" encoding="UTF-8" standalone="no"?><svg xmlns:dc="http://purl.org/dc/elements/1.1/" xmlns:cc="http://creativecommons.org/ns#" xmlns:rdf="http://www.w3.org/1999/02/22-rdf-syntax-ns#" xmlns="http://www.w3.org/2000/svg" width="48" height="48" viewBox="0 0 12.7 12.7"><metadata><rdf:RDF><cc:Work><dc:format>image/svg+xml</dc:format><dc:type rdf:resource="http://purl.org/dc/dcmitype/StillImage"/><dc:title/></cc:Work></rdf:RDF></metadata><path fill="#2c89a0" d="M6.34.07a6.29 6.29 0 0 0-6.29 6.3 6.29 6.29 0 0 0 6.3 6.28 6.29 6.29 0 0 0 6.28-6.29A6.29 6.29 0 0 0 6.34.07zm-.01.94a5.4 5.4 0 0 1 5.4 5.4 5.4 5.4 0 0 1-5.4 5.41 5.4 5.4 0 0 1-5.41-5.4A5.4 5.4 0 0 1 6.32 1zM3.3 3.73a1.12 1.12 0 0 0-1.13 1.13 1.12 1.12 0 0 0 .34.8H2.4a.54.54 0 0 0-.55.55v1.16c0 .3.24.54.55.54h1.9a.54.54 0 0 0 .55-.55V6.2a.54.54 0 0 0-.54-.54h-.23a1.12 1.12 0 0 0 .34-.8A1.12 1.12 0 0 0 3.3 3.73zm2.84 1.93a.54.54 0 0 0-.54.55v.4c0 .3.24.55.55.55h4.15a.54.54 0 0 0 .55-.54V6.2a.54.54 0 0 0-.55-.55H6.14z"/></svg>