<svg xmlns="http://www.w3.org/2000/svg" width="48" height="48" viewBox="0 0 12.7 12.7"><path fill="#2c89a0" d="M6.344.073a6.29 6.29 0 0 0-6.29 6.29 6.29 6.29 0 0 0 6.29 6.288 6.29 6.29 0 0 0 6.29-6.289 6.29 6.29 0 0 0-6.29-6.29zm-.018.936a5.407 5.407 0 0 1 5.407 5.407 5.407 5.407 0 0 1-5.407 5.407A5.407 5.407 0 0 1 .92 6.416 5.407 5.407 0 0 1 6.326 1.01zm.148 1.755a.124.124 0 0 0-.124.124v.247a.124.124 0 0 0 .248 0v-.247a.124.124 0 0 0-.124-.124zm2.362.247a.854.854 0 1 0 0 1.707.854.854 0 0 0 0-1.707zm-3.599.124a.124.124 0 1 0 0 .248.124.124 0 0 0 0-.248zm.742.124a.124.124 0 0 0 0 .248h.247a.124.124 0 0 0 0-.248H5.98zm.742 0a.124.124 0 0 0 0 .247h.247a.124.124 0 1 0 0-.247h-.247zm2.349 0a.124.124 0 0 1 0 .248.123.123 0 0 1-.123-.124c0-.069.054-.124.123-.124zm-.476.125a.123.123 0 0 1 .012.241.252.252 0 0 0-.153.132c-.04.1-.004.247.105.427a.124.124 0 0 1 .004.125.124.124 0 0 1-.216.002c-.153-.255-.193-.473-.12-.65a.493.493 0 0 1 .32-.275.136.136 0 0 1 .048-.002zm-2.12.122a.124.124 0 0 0-.124.124v.247a.124.124 0 0 0 .248 0V3.63a.123.123 0 0 0-.124-.124zm1.128.742a.727.727 0 0 1-.196.678l-.533.536.183.183a.123.123 0 1 1-.175.174L6.7 5.636 4.282 8.063l.35.35.813-.817-.171-.17a.123.123 0 0 1 .002-.173.124.124 0 0 1 .173-.002l.17.17.69-.692-.17-.169a.124.124 0 0 1 .175-.175l.169.168 1.273-1.278a.721.721 0 0 1 .687-.187.62.62 0 0 0-.478-.226.12.12 0 0 1-.09-.037.124.124 0 0 1-.037-.09.623.623 0 0 0-.236-.487zm-1.004.124a.123.123 0 1 0 0 .247.123.123 0 0 0 0-.247zm-1.237.123a.124.124 0 0 0-.124.124v.247c0 .069.056.124.124.124a.123.123 0 0 0 .123-.124V4.62a.123.123 0 0 0-.123-.124zm-.495.495a.123.123 0 0 0-.123.123c0 .069.055.124.123.124h.247a.124.124 0 0 0 0-.248h-.247zm.742 0a.124.124 0 1 0 0 .247h.247a.124.124 0 0 0 0-.248h-.247zm3.957.123zm-4.204.124a.124.124 0 0 0-.124.124v.247a.123.123 0 0 0 .247 0v-.247a.123.123 0 0 0-.123-.124zm3.091.618a.123.123 0 1 0 0 .247.123.123 0 0 0 .124-.123.124.124 0 0 0-.124-.124zm.866 0a.124.124 0 0 0-.124.124v.247a.123.123 0 0 0 .247 0V5.98a.123.123 0 0 0-.123-.124zm-.495.494a.124.124 0 0 0 0 .249h.247a.124.124 0 0 0 0-.249h-.247zm.742 0a.124.124 0 0 0 0 .249h.247a.124.124 0 0 0 0-.249h-.247zm-.247.249a.123.123 0 0 0-.124.123v.247c0 .068.055.124.124.124a.123.123 0 0 0 .123-.124v-.247a.123.123 0 0 0-.123-.123zm-5.21 1.64l-.567.568.177.176a.125.125 0 0 1-.055.209.123.123 0 0 1-.12-.033l-.176-.177-.53.532a.247.247 0 1 0 .35.35l1.27-1.275-.35-.35z"/></svg>