<svg xmlns="http://www.w3.org/2000/svg" width="48" height="48" viewBox="0 0 12.7 12.7"><path d="M6.34.07a6.29 6.29 0 0 0-6.29 6.3 6.29 6.29 0 0 0 6.3 6.28 6.29 6.29 0 0 0 6.28-6.29A6.29 6.29 0 0 0 6.34.07zM6.32 1l.01.01a5.4 5.4 0 0 1 5.4 5.4 5.4 5.4 0 0 1-5.4 5.41 5.4 5.4 0 0 1-5.41-5.4A5.4 5.4 0 0 1 6.32 1zm-2.9 1.87a.36.36 0 0 0-.36.37v2.38h1.83V4.7h2.38V2.87H3.42zm4.4 0v6.59c0 .2.16.37.36.37h1.1c.2 0 .36-.17.36-.37V3.24c0-.2-.16-.37-.36-.37H7.8zM5.42 5.25v4.21c0 .2.17.37.37.37h1.1c.2 0 .37-.17.37-.37v-4.2H5.43zm-2.37.92v3.29c0 .2.16.37.36.37h1.1c.2 0 .37-.17.37-.37v-3.3H3.06z" fill="#2c89a0"/></svg>
