<svg xmlns="http://www.w3.org/2000/svg" width="48" height="48" viewBox="0 0 12.7 12.7"><path fill="#2c89a0" d="M6.344.073a6.29 6.29 0 0 0-6.29 6.29 6.29 6.29 0 0 0 6.29 6.288 6.29 6.29 0 0 0 6.29-6.289 6.29 6.29 0 0 0-6.29-6.29zm-.018.936a5.407 5.407 0 0 1 5.407 5.407 5.407 5.407 0 0 1-5.407 5.407A5.407 5.407 0 0 1 .92 6.416 5.407 5.407 0 0 1 6.326 1.01zm.053.695A4.65 4.65 0 0 0 1.734 6.35c0 .528.093 1.033.256 1.506L7.885 1.96a4.616 4.616 0 0 0-1.506-.256zm1.901.412l.053.053L2.18 8.323c.15.317.332.614.546.887l6.513-6.513a4.648 4.648 0 0 0-.959-.581zm1.311.886l-6.56 6.56c.274.285.585.534.923.742l6.374-6.373.025.025a4.67 4.67 0 0 0-.762-.954zm.975 1.348l-6.187 6.186a4.61 4.61 0 0 0 2 .46 4.65 4.65 0 0 0 4.646-4.646 4.61 4.61 0 0 0-.46-2z"/></svg>