<svg xmlns="http://www.w3.org/2000/svg" width="48" height="48" viewBox="0 0 12.7 12.7"><path fill="#2c89a0" d="M6.34.07a6.29 6.29 0 0 0-6.29 6.3 6.29 6.29 0 0 0 6.3 6.28 6.29 6.29 0 0 0 6.28-6.29A6.29 6.29 0 0 0 6.34.07zm-.01.94a5.4 5.4 0 0 1 5.4 5.4 5.4 5.4 0 0 1-5.4 5.41 5.4 5.4 0 0 1-5.41-5.4A5.4 5.4 0 0 1 6.32 1zm.2 1.11a6.26 6.26 0 0 0-.48.03l-.36.03c-2.37.35-4.13 1.99-3.97 3.76.1 1.15.99 2.1 2.24 2.59l-.52 2.05 2.32-1.69h.02c.29.02.58.02.87 0 2.56-.24 4.5-1.94 4.33-3.8-.16-1.74-2.11-3-4.46-2.97zm-.44.91a.58.58 0 0 1 .1 0 .37.37 0 0 1 .32.42c.01.93.1 1.84.12 2.76l-.43.05c-.2-.93-.27-1.88-.47-2.83l-.01-.07c0-.16.18-.31.37-.33zm.41 3.92a.75.75 0 0 1 .1 0 .4.4 0 0 1 .3.18.03.03 0 0 0 .01 0c.15.2.05.54-.18.63-.24.1-.57-.07-.6-.34a.43.43 0 0 1 .13-.35.35.35 0 0 1 .24-.12z"/></svg>