<svg xmlns="http://www.w3.org/2000/svg" width="48" height="48" viewBox="0 0 12.7 12.7"><path fill="#2c89a0" d="M6.344.073a6.29 6.29 0 0 0-6.29 6.29 6.29 6.29 0 0 0 6.29 6.288 6.29 6.29 0 0 0 6.29-6.289 6.29 6.29 0 0 0-6.29-6.29zm-.018.936a5.407 5.407 0 0 1 5.407 5.407 5.407 5.407 0 0 1-5.407 5.407A5.407 5.407 0 0 1 .92 6.416 5.407 5.407 0 0 1 6.326 1.01zM2.983 2.985a.125.125 0 0 0-.125.125v2.856c0 3.907 3.414 5.23 3.449 5.243.014.004.028.008.043.008a.09.09 0 0 0 .043-.008c.035-.013 3.449-1.336 3.449-5.243V3.11a.125.125 0 0 0-.125-.125H2.983zm.124.25h6.485v2.73c0 3.494-2.852 4.827-3.242 4.992-.39-.165-3.243-1.493-3.243-4.991V3.235zm2.608.195c.138 1.075-.275 1.322-1.243 3.363-.968 2.04.885 3.336.885 3.336-.745-2.454.829-3.35.829-3.35-.11 1.31.634 2.329.634 2.329.273-.083.796-.468.796-.468 0 .468-.276 1.488-.276 1.488s.965-.746 1.269-1.985c.303-1.24-.578-2.483-.578-2.483a3.322 3.322 0 0 1-.825 2.398.48.48 0 0 0 .072-.111c.105-.21.272-.752.174-2.009C7.314 4.174 5.715 3.43 5.715 3.43z"/></svg>