<svg xmlns="http://www.w3.org/2000/svg" width="48" height="48" viewBox="0 0 12.7 12.7"><path fill="#2c89a0" d="M6.344.073a6.29 6.29 0 0 0-6.29 6.29 6.29 6.29 0 0 0 6.29 6.288 6.29 6.29 0 0 0 6.29-6.289 6.29 6.29 0 0 0-6.29-6.29zm-.018.936a5.407 5.407 0 0 1 5.407 5.407 5.407 5.407 0 0 1-5.407 5.407A5.407 5.407 0 0 1 .92 6.416 5.407 5.407 0 0 1 6.326 1.01zm1.922 1.238a1.79 1.79 0 0 0-1.477.718c-.17.227-.124.644.023.886l.923 1.52c.147.241.498.473.777.427a1.787 1.787 0 1 0-.246-3.55zm-2.445 2.01a.45.45 0 0 0-.261.113L2.055 7.384a.664.664 0 0 0-.143.784l.011.02a.557.557 0 0 0 .71.237l1.789-.816c.257-.117.466-.023.466.211 0 .234.068.424.153.424.084 0 .152.23.152.512v2.196c0 .283.116.512.259.512.143 0 .259-.229.259-.512V8.756c0-.283.079-.512.176-.512.098 0 .176-.229.176-.512v-.36c0-.282.209-.606.466-.723l.315-.144a.442.442 0 0 0 .198-.65l-.847-1.383a.433.433 0 0 0-.302-.21.394.394 0 0 0-.09-.005z"/></svg>