<svg xmlns="http://www.w3.org/2000/svg" width="48" height="48" viewBox="0 0 12.7 12.7"><path d="M6.34.07a6.29 6.29 0 0 0-6.29 6.3 6.29 6.29 0 0 0 6.3 6.28 6.29 6.29 0 0 0 6.28-6.29A6.29 6.29 0 0 0 6.34.07zm-.01.94a5.4 5.4 0 0 1 5.4 5.4 5.4 5.4 0 0 1-5.4 5.41 5.4 5.4 0 0 1-5.41-5.4A5.4 5.4 0 0 1 6.32 1zM6.3 4.67a1.71 1.71 0 0 0-1.7 1.7A1.71 1.71 0 0 0 6.3 8.1a1.71 1.71 0 0 0 1.72-1.71A1.71 1.71 0 0 0 6.3 4.67z" fill="#2c89a0"/><g fill="#a00"><path d="M6.33 1.58s2.8-.13 4.3 2.69H6.08s-.86-.03-1.59 1c-.21.44-.43.89-.18 1.77L2.38 3.7s1.11-2 3.95-2.11z"/><path d="M10.48 8.73s-1.3 2.49-4.49 2.37l2.27-3.92s.45-.73-.08-1.88c-.63-.91-1.27-1.07-1.99-1.04h4.42s1.19 1.96-.13 4.47z" opacity=".4"/><path d="M2.2 8.75s-1.52-2.37.18-5.06L4.65 7.6s.4.75 1.67.87c.48-.04.98-.07 1.62-.73C7.6 8.38 6 11.1 6 11.1s-2.29.04-3.8-2.35z" opacity=".7"/></g></svg>