<svg xmlns="http://www.w3.org/2000/svg" width="48" height="48" viewBox="0 0 12.7 12.7"><path d="M6.34.07a6.29 6.29 0 0 0-6.29 6.3 6.29 6.29 0 0 0 6.3 6.28 6.29 6.29 0 0 0 6.28-6.29A6.29 6.29 0 0 0 6.34.07zM6.32 1l.01.01a5.4 5.4 0 0 1 5.4 5.4 5.4 5.4 0 0 1-5.4 5.41 5.4 5.4 0 0 1-5.41-5.4A5.4 5.4 0 0 1 6.32 1zm2.624 1.813a.94.94 0 0 0-.666.276l-.255.254a.35.35 0 0 0-.495.496l.083.082L4.862 6.67l-.954.954a.43.43 0 0 0-.126.285l-.002.05v.001l-.039.863a.143.143 0 0 0 .143.15h.007l.457-.021.28-.012.126-.006a.564.564 0 0 0 .372-.165l3.667-3.666.068.069a.349.349 0 0 0 .496 0 .35.35 0 0 0 0-.495l.254-.255a.943.943 0 0 0-.667-1.609zM7.776 4.416l.522.522-1.335 1.336-1.288.242 2.1-2.1zm-3.981 4.85c-.543 0-.982.138-.982.31s.44.31.982.31.981-.138.981-.31-.44-.31-.981-.31z" fill="#2c89a0"/></svg>