<svg xmlns="http://www.w3.org/2000/svg" width="48" height="48" viewBox="0 0 12.7 12.7"><path fill="#2c89a0" d="M6.35.061a6.29 6.29 0 0 0-6.289 6.29 6.29 6.29 0 0 0 6.29 6.288 6.29 6.29 0 0 0 6.288-6.288A6.29 6.29 0 0 0 6.351.06zm-.018.936a5.407 5.407 0 0 1 5.407 5.407 5.407 5.407 0 0 1-5.407 5.407A5.407 5.407 0 0 1 .925 6.404 5.407 5.407 0 0 1 6.332.997zm-.063.55c-1.861 0-3.313.911-4.355 2.733a5.164 5.164 0 0 0-.468 2.168c0 .888.23 1.694.687 2.417l.658-.63h.036c.04.01.059.032.059.066v.095c-.05 0-.259.198-.629.594v.036l.694-.66c.03 0 .071.042.125.125l-.695.718h.037c0-.024.229-.253.687-.688.053.044.095.066.124.066v.087c-.458.464-.687.706-.687.726h.03c0-.03.24-.271.723-.726l.095.133v.029l-.723.754h.028c0-.03.242-.27.724-.725h.03c.029 0 .06.032.094.095v.03l-.687.725v.03l.753-.719c.03 0 .07.042.124.125l-.723.754h.036c0-.029.24-.271.717-.725l.028.066-.745.784c1.028.84 2.07 1.26 3.128 1.26 2.036 0 3.563-.975 4.581-2.923.273-.723.41-1.384.41-1.985 0-1.563-.712-2.903-2.134-4.021a5.1 5.1 0 0 0-2.762-.813zm2.134 1.824h.065c.03 0 .071.052.125.154v.067l-.095.124v.029l.029.066c.268-.127.509-.19.723-.19.497 0 .8.334.906 1.003-.155.586-.448.879-.876.879h-.125c-.166 0-.343-.02-.533-.058-.268 0-.446.156-.534.468-.2.777-.543 1.436-1.03 1.978l-.131.095h-.03c-.438-.21-.762-.315-.972-.315h-.058c-.331 0-.677.178-1.038.535-.044 0-.065-.02-.065-.059.029 0 1.159-1.133 3.39-3.398.17-.176.348-.3.533-.374V4.28c-.02-.147-.082-.22-.19-.22a.32.32 0 0 0-.19.154v.131l.096.125a260.75 260.75 0 0 1-3.668 3.677c-.035 0-.076-.044-.125-.131C6.685 5.9 7.752 4.844 7.81 4.844c.103 0 .154-.064.154-.19v-.06c-.034-.082-.107-.124-.22-.124-.097.04-.148.08-.153.125v.124l.088.125c-.93.962-1.41 1.443-1.44 1.443 0 .039-.167.207-.503.505 0 .025-.252.286-.753.784-.249.224-.373.361-.373.41h-.029c-.034 0-.076-.041-.124-.124v-.03C6.132 6.113 7 5.254 7.058 5.254a.184.184 0 0 0 .183-.125v-.065c0-.113-.061-.186-.183-.22-.127.034-.19.107-.19.22v.065l.095.125c-.76.786-1.608 1.634-2.543 2.542h-.06c0-.04-.021-.059-.065-.059v-.066C5.64 6.27 6.37 5.57 6.488 5.57l.037-.066v-.125c-.034-.083-.107-.124-.22-.124-.107.03-.16.102-.16.22 0 .048.031.112.094.19-1.31 1.319-1.977 1.978-2.002 1.978l-.131-.125c0-.029.377-.407 1.132-1.135a1.24 1.24 0 0 1 .563-.44V5.79c0-.034-.041-.076-.124-.125h-.124c-.034 0-.076.042-.124.125v.124l.087.125c0 .03-.48.51-1.44 1.443-.033 0-.075-.042-.124-.125.546-.6.912-.935 1.097-1.003a.248.248 0 0 0 .029-.125c0-.127-.073-.19-.22-.19-.092.039-.143.08-.153.124v.162l.059.095v.029c-.541.547-.812.84-.812.879h-.029c-.034 0-.066-.032-.095-.095v-.03c.312-.24.468-.595.468-1.069.312-.186.468-.29.468-.315-.02 0-.03-.01-.03-.03l-.153.03c-.083-.029-.124-.122-.124-.278a.64.64 0 0 1 .467-.22c.054 0 .096.083.125.25l-.095.124v.029h.065c.293-.157.439-.25.439-.278v-.037h-.19c-.054 0-.095-.083-.125-.25.151-.146.276-.219.373-.219h.132c.053 0 .095.083.124.25-.034 0-.076.043-.124.131l.058.029c.312-.17.468-.266.468-.285l-.03-.06-.153.03c-.053 0-.095-.083-.124-.249a.508.508 0 0 1 .467-.256c.025 0 .076.073.154.22l-.124.16v.03c.356-.127.533-.222.533-.286-.229-.024-.343-.117-.343-.278.14-.147.287-.22.438-.22h.066c.054 0 .095.083.125.25-.035 0-.076.04-.125.124l.058.037c.215-.093.373-.188.475-.286v-.066l-.16.036H7.4c-.053 0-.095-.095-.124-.285.156-.147.312-.22.468-.22.063 0 .114.095.153.286-.083.03-.124.06-.124.095l.037.059.497-.25V3.84h-.19c-.083-.034-.125-.107-.125-.22v-.028a.465.465 0 0 1 .41-.22zm-4.67 3.927c.034 0 .076.041.125.124-.05.005-.3.247-.753.725-.064.034-.095.076-.095.125h-.06c-.034 0-.066-.032-.095-.095 0-.025.293-.318.877-.88zm.154.153c.087.034.131.067.131.096 0 .024-.294.317-.884.879h-.03c-.029 0-.06-.032-.094-.096v-.029c.526-.566.818-.85.877-.85zm.16.125c.049 0 .08.054.095.161 0 .03-.24.28-.723.754-.063.04-.095.081-.095.125h-.03c-.053-.044-.094-.066-.124-.066v-.095c0-.025.293-.318.877-.88zm.154.19c.034 0 .076.042.124.125 0 .024-.292.317-.877.879-.029 0-.07-.042-.124-.125 0-.024.292-.317.877-.879zm.16.162c.025 0 .076.05.154.153-.054 0-.2.137-.438.41-.278.293-.446.44-.505.44l-.087-.124c0-.03.292-.323.876-.88zm.154.183h.066c.04.01.059.032.059.066v.058c0 .03-.293.325-.877.886h-.03c0-.039-.032-.092-.095-.16l.877-.85zm.19.124l.03.066c0 .025-.293.317-.877.879h-.03v-.06c0-.024.293-.32.877-.886z" font-family="Electric Guitar Icons" font-size="14.983" font-weight="400" letter-spacing="0" style="line-height:1.25;-inkscape-font-specification:'Electric Guitar Icons'" word-spacing="0"/></svg>