<svg xmlns="http://www.w3.org/2000/svg" width="48" height="48" viewBox="0 0 12.7 12.7"><path d="M6.35.06a6.29 6.29 0 0 0-6.29 6.3 6.29 6.29 0 0 0 6.3 6.28 6.29 6.29 0 0 0 6.28-6.29A6.29 6.29 0 0 0 6.35.06zm-.02.93l.01.01a5.4 5.4 0 0 1 5.4 5.4 5.4 5.4 0 0 1-5.4 5.41 5.4 5.4 0 0 1-5.41-5.4A5.4 5.4 0 0 1 6.33.99zm-3.25 1.8c-.2 0-.36.16-.36.36v1c0 .2.16.36.36.36h1c.2 0 .36-.16.36-.35V3.15c0-.2-.16-.36-.35-.36H3.08zm2.74 0c-.2 0-.35.16-.35.36v1c0 .2.15.36.35.36h1.01c.2 0 .36-.16.36-.35V3.15c0-.2-.16-.36-.36-.36h-1zm2.75 0c-.2 0-.36.16-.36.36v1c0 .2.16.36.36.36h1c.2 0 .36-.16.36-.35V3.15c0-.2-.16-.36-.35-.36H8.57zm-5.5 2.75c-.2 0-.35.16-.35.35V6.9c0 .2.16.36.36.36h1c.2 0 .36-.16.36-.36v-1c0-.2-.16-.36-.35-.36H3.08zm2.75 0c-.2 0-.35.16-.35.35V6.9c0 .2.15.36.35.36h1.01c.2 0 .36-.16.36-.36v-1c0-.2-.16-.36-.36-.36h-1zm2.75 0c-.2 0-.36.16-.36.35V6.9c0 .2.16.36.36.36h1c.2 0 .36-.16.36-.36v-1c0-.2-.16-.36-.35-.36H8.57zm-5.5 2.74c-.2 0-.35.16-.35.36v1c0 .2.16.36.36.36h1c.2 0 .36-.16.36-.35V8.64c0-.2-.16-.36-.35-.36H3.08zm2.75 0c-.2 0-.35.16-.35.36v1c0 .2.15.36.35.36h1.01c.2 0 .36-.16.36-.35V8.64c0-.2-.16-.36-.36-.36h-1zm2.75 0c-.2 0-.36.16-.36.36v1c0 .2.16.36.36.36h1c.2 0 .36-.16.36-.35V8.64c0-.2-.16-.36-.35-.36H8.57z" fill="#2c89a0"/></svg>