<svg xmlns="http://www.w3.org/2000/svg" width="48" height="48" viewBox="0 0 12.7 12.7"><path fill="#2c89a0" d="M6.344.073a6.29 6.29 0 0 0-6.29 6.29 6.29 6.29 0 0 0 6.29 6.288 6.29 6.29 0 0 0 6.29-6.289 6.29 6.29 0 0 0-6.29-6.29zm-.018.936a5.407 5.407 0 0 1 5.407 5.407 5.407 5.407 0 0 1-5.407 5.407A5.407 5.407 0 0 1 .92 6.416 5.407 5.407 0 0 1 6.326 1.01zm-1.297.497A5.022 5.022 0 0 0 1.328 6.35a5.022 5.022 0 0 0 5.023 5.021 5.022 5.022 0 0 0 5.021-5.021A5.022 5.022 0 0 0 7.72 1.523v5.995l1.994-.03-3.362 3.883-3.345-3.883 2.023.03V1.506z"/></svg>