<svg xmlns="http://www.w3.org/2000/svg" width="48" height="48" viewBox="0 0 12.7 12.7"><path fill="#2c89a0" d="M6.344.073a6.29 6.29 0 0 0-6.29 6.29 6.29 6.29 0 0 0 6.29 6.288 6.29 6.29 0 0 0 6.29-6.289 6.29 6.29 0 0 0-6.29-6.29zm-.018.936a5.407 5.407 0 0 1 5.407 5.407 5.407 5.407 0 0 1-5.407 5.407A5.407 5.407 0 0 1 .92 6.416 5.407 5.407 0 0 1 6.326 1.01zm.016.739c-.545-.001-1.091.184-1.455.557-.586.6-.697 1.668-.719 2.856h-.8v5.205h5.964V9.55H7.528l-.023.031a.463.463 0 0 1-.375.179c-.246 0-.446-.176-.446-.39 0-.215.2-.39.446-.39.193 0 .363.107.424.267l.017.047h1.76V6.476H7.355v.841l.05.016c.178.06.298.21.298.377 0 .222-.207.402-.462.402-.254 0-.46-.18-.46-.402 0-.15.094-.287.246-.356l.041-.02V6.226h2.265V5.161h-.816c-.023-1.167-.135-2.234-.719-2.842-.363-.38-.909-.57-1.455-.571zm-.009.542a1.48 1.48 0 0 1 1.128.498c.436.513.533 1.397.555 2.373H5.771L4.88 6.952l.045.033c.11.078.173.195.173.318 0 .228-.212.413-.472.413-.261 0-.473-.185-.473-.413 0-.203.174-.38.405-.408L4.6 6.89l.86-1.729h-.81c.022-.993.118-1.877.556-2.383.282-.326.705-.489 1.127-.487V2.29zm-1.711 4.8c-.13 0-.234.092-.234.204 0 .113.105.204.234.204s.234-.091.234-.204c0-.112-.105-.204-.234-.204zm2.593.411a.234.204 0 0 0-.234.204.234.204 0 0 0 .234.205.234.204 0 0 0 .235-.205.234.204 0 0 0-.235-.204zm-.09 1.666a.234.204 0 0 0-.233.204.234.204 0 0 0 .234.205.234.204 0 0 0 .233-.205.234.204 0 0 0-.233-.204z"/></svg>