<svg xmlns="http://www.w3.org/2000/svg" width="48" height="48" viewBox="0 0 12.7 12.7"><path d="M6.34.07a6.29 6.29 0 0 0-6.29 6.3 6.29 6.29 0 0 0 6.3 6.28 6.29 6.29 0 0 0 6.28-6.29A6.29 6.29 0 0 0 6.34.07zM6.32 1l.01.01a5.4 5.4 0 0 1 5.4 5.4 5.4 5.4 0 0 1-5.4 5.41 5.4 5.4 0 0 1-5.41-5.4A5.4 5.4 0 0 1 6.32 1z" fill="#2c89a0"/><text style="line-height:1.25;-inkscape-font-specification:'Century Schoolbook L'" x="5.338" y="4.315" font-weight="400" font-size="5.644" font-family="Century Schoolbook L" letter-spacing="0" word-spacing="0" stroke-width=".265"/><path d="M6.176 2.417l-.712.144v.366l.717-.143v2.269h-.657v.338h1.712v-.338h-.657V2.417h-.403zm-2.544 3.68v.507h5.436v-.508H3.632zM6.5 7.308L5.267 9.196v.385h1.341v.702h.403V9.58h.422v-.334H7.01V7.309H6.5zm.107.35v1.588H5.593l1.015-1.588z" fill="#2c89a0" fill-rule="evenodd"/></svg>
