<svg xmlns="http://www.w3.org/2000/svg" width="48" height="48" viewBox="0 0 12.7 12.7"><path d="M6.35.06a6.29 6.29 0 0 0-6.29 6.3 6.29 6.29 0 0 0 6.3 6.28 6.29 6.29 0 0 0 6.28-6.29A6.29 6.29 0 0 0 6.35.06zM5.97 1v4.97H.95A5.4 5.4 0 0 1 5.97 1zm.76.02a5.4 5.4 0 0 1 4.99 4.95H6.73V1.02zM.94 6.73h5.03v5.06A5.4 5.4 0 0 1 .94 6.73zm5.8 0h4.98a5.4 5.4 0 0 1-4.99 5.07V6.73zM8.86 7.8a1.02 1.05 0 0 0-1.02 1.05A1.02 1.05 0 0 0 8.87 9.9 1.02 1.05 0 0 0 9.9 8.85 1.02 1.05 0 0 0 8.87 7.8z" fill="#2c89a0"/></svg>
