<svg xmlns="http://www.w3.org/2000/svg" width="48" height="48" viewBox="0 0 12.7 12.7"><path d="M6.344.073a6.29 6.29 0 0 0-6.29 6.29 6.29 6.29 0 0 0 6.29 6.288 6.29 6.29 0 0 0 6.29-6.289 6.29 6.29 0 0 0-6.29-6.29zm-.018.936a5.407 5.407 0 0 1 5.407 5.407 5.407 5.407 0 0 1-5.407 5.407A5.407 5.407 0 0 1 .919 6.416a5.407 5.407 0 0 1 5.407-5.407z" fill="#2c89a0"/><path d="M2.778 8.599c3.572.132 3.837-4.366 7.144-4.233" fill="none" stroke="#2c89a0" stroke-width=".265"/><circle r=".661" cy="3.043" cx="6.482" fill="#2c89a0" stroke="#2c89a0" stroke-width=".132"/><circle r=".661" cy="9.657" cx="6.482" fill="#2c89a0" stroke="#2c89a0" stroke-width=".132"/><path d="M6.35 3.315h.266v6.163H6.35z" fill="#2c89a0" stroke="#2c89a0" stroke-width=".111"/><path d="M6.085 6.482a.398.398 0 1 0 .795 0 .398.398 0 0 0-.795 0zM2.381 7.953H3.44v1.058H2.38zm6.88-4.233h1.058v1.058H9.26z" fill="#2c89a0" stroke="#2c89a0" stroke-width=".265"/></svg>