<svg xmlns="http://www.w3.org/2000/svg" width="48" height="48" viewBox="0 0 12.7 12.7"><path d="M6.344.072a6.29 6.29 0 0 0-6.29 6.29 6.29 6.29 0 0 0 6.29 6.289 6.29 6.29 0 0 0 6.29-6.29 6.29 6.29 0 0 0-6.29-6.29zm-.253.946v10.793A5.407 5.407 0 0 1 .92 6.416a5.407 5.407 0 0 1 5.17-5.398zm.59.009a5.407 5.407 0 0 1 5.052 5.39 5.407 5.407 0 0 1-5.052 5.394V1.027zM3.157 2.646v.468h2.245v-.468H3.157zm4.177 0v.468h2.244v-.468H7.334zM2.46 4.233v.468h2.942v-.468H2.46zm4.874 0v.468h2.941v-.468H7.334zm-5.49 1.588v.468h3.558V5.82H1.843zm5.49 0v.468h3.558V5.82H7.334z" fill="#2c89a0"/></svg>