<svg xmlns="http://www.w3.org/2000/svg" width="48" height="48" version="1"><defs><linearGradient id="a"><stop offset="0" stop-color="#040000"/><stop offset="1" stop-opacity="0"/></linearGradient></defs><path d="M24 .23A23.77 23.77 0 0 0 .23 24.01 23.77 23.77 0 0 0 24 47.77 23.77 23.77 0 0 0 47.77 24 23.77 23.77 0 0 0 24 .23zm-.07 3.54a20.44 20.44 0 0 1 20.44 20.44 20.44 20.44 0 0 1-20.44 20.43A20.44 20.44 0 0 1 3.5 24.21 20.44 20.44 0 0 1 23.93 3.77zm0 3A17.44 17.44 0 0 0 6.5 24.22a17.44 17.44 0 0 0 17.43 17.44A17.44 17.44 0 0 0 41.37 24.2 17.44 17.44 0 0 0 23.93 6.77zm7.69 10.36h.25c.52 0 1.02.18 1.5.52v.44h-.05a2.35 2.35 0 0 0-1.52-.58h-.06c-1 0-1.74.5-2.23 1.5a2.4 2.4 0 0 0-.16.7h5.14l.04.05v.16c0 1.07-.51 1.9-1.54 2.48-.39.2-.8.3-1.23.3h-.04c-.57 0-1.1-.18-1.59-.53v-.44h.05c.46.4 1 .59 1.58.59 1 0 1.75-.52 2.25-1.57.08-.27.12-.49.12-.64h-5.12l-.04-.04v-.31c0-.8.4-1.5 1.19-2.15.51-.32 1-.48 1.46-.48zm-17.7.01h.3c.75 0 1.47.3 2.15.91.68-.6 1.4-.9 2.16-.9h.3c.98 0 1.84.47 2.57 1.43.38.57.57 1.14.57 1.7v.3c0 .77-.3 1.47-.89 2.11l-.3-.27v-.03c.5-.6.75-1.22.75-1.88v-.07c0-1.17-.58-2.05-1.74-2.63a2.7 2.7 0 0 0-1.12-.22h-.07c-.72 0-1.36.27-1.93.81.48.6.71 1.27.71 2.01v.05c0 .86-.3 1.6-.89 2.23l-.32-.3c.51-.57.77-1.23.77-1.98 0-1.07-.54-1.92-1.61-2.55a3.07 3.07 0 0 0-1.2-.27h-.07c-1.16 0-2.04.57-2.62 1.73-.15.33-.23.7-.23 1.12v.07c0 .66.25 1.28.75 1.88v.03l-.3.27c-.6-.64-.9-1.34-.9-2.1v-.3c0-.99.49-1.85 1.45-2.58a3.08 3.08 0 0 1 1.7-.57zm11.5 0h.25c.83 0 1.55.4 2.16 1.18.34.5.5 1.01.5 1.57v.04c0 1.06-.5 1.88-1.54 2.47-.38.2-.8.3-1.22.3h-.04c-.95 0-1.74-.46-2.37-1.36v1.3l-.04.05h-.3l-.04-.04v-2.87c0-.83.4-1.55 1.21-2.16.48-.32.96-.48 1.43-.48zm.13.38c-.98 0-1.72.48-2.2 1.45-.13.28-.2.59-.2.94v.06c0 .91.48 1.63 1.42 2.14.33.14.67.2 1 .2.97 0 1.71-.5 2.22-1.49.11-.34.17-.65.17-.93 0-.9-.45-1.62-1.35-2.15-.36-.15-.7-.22-1-.22h-.06zM10.38 24.5h19.75c.15 0 .28.13.28.29 0 .15-.13.28-.28.28H10.38a.28.28 0 0 1-.29-.28c0-.16.13-.29.29-.29z" fill="#2c89a0"/></svg>