<svg xmlns="http://www.w3.org/2000/svg" width="48" height="48" viewBox="0 0 12.7 12.7"><path d="M6.35.083A6.267 6.267 0 0 0 .084 6.35a6.267 6.267 0 0 0 6.268 6.267 6.267 6.267 0 0 0 6.266-6.267A6.267 6.267 0 0 0 6.351.083zm-.017.932a5.388 5.388 0 0 1 5.388 5.39 5.388 5.388 0 0 1-5.388 5.387 5.388 5.388 0 0 1-5.39-5.388 5.388 5.388 0 0 1 5.39-5.389zm.001 1.342c-2.181 0-3.749 1.582-3.749 3.956 0 2.112 1.525 4.03 3.75 4.03 2.247 0 3.78-1.918 3.78-4.03 0-2.393-1.618-3.956-3.78-3.956zm.001.65c1.208 0 1.44 1.69 1.44 3.24 0 1.345-.12 3.345-1.44 3.345-1.302 0-1.41-2.012-1.41-3.346 0-1.442.202-3.239 1.41-3.239z" fill="#2c89a0"/></svg>