<svg xmlns="http://www.w3.org/2000/svg" width="48" height="48" viewBox="0 0 12.7 12.7"><path fill="#2c89a0" d="M6.344.073a6.29 6.29 0 0 0-6.29 6.29 6.29 6.29 0 0 0 6.29 6.288 6.29 6.29 0 0 0 6.29-6.289 6.29 6.29 0 0 0-6.29-6.29zm-.018.936a5.407 5.407 0 0 1 5.407 5.407 5.407 5.407 0 0 1-5.407 5.407A5.407 5.407 0 0 1 .92 6.416 5.407 5.407 0 0 1 6.326 1.01zM5.253 2.121a3.128 3.128 0 0 0-3.12 3.117 3.127 3.127 0 0 0 3.12 3.117c.654 0 1.263-.205 1.766-.552l2.088 2.086a.567.567 0 1 0 .801-.801L7.82 7.002c.347-.503.552-1.11.552-1.764a3.127 3.127 0 0 0-3.12-3.117zm0 1.134a1.976 1.976 0 0 1 1.985 1.983 1.976 1.976 0 0 1-1.985 1.984 1.977 1.977 0 0 1-1.987-1.984c0-1.101.883-1.983 1.987-1.983z"/></svg>