<svg xmlns="http://www.w3.org/2000/svg" width="48" height="48" viewBox="0 0 12.7 12.7"><path fill="#2c89a0" d="M6.344.073a6.29 6.29 0 0 0-6.29 6.29 6.29 6.29 0 0 0 6.29 6.288 6.29 6.29 0 0 0 6.29-6.289 6.29 6.29 0 0 0-6.29-6.29zm-.018.936a5.407 5.407 0 0 1 5.407 5.407 5.407 5.407 0 0 1-5.407 5.407A5.407 5.407 0 0 1 .92 6.416 5.407 5.407 0 0 1 6.326 1.01zm.023.816a4.507 4.507 0 0 0-2.864 1.022l1.66 2.877.026-.046 2.16-3.742a4.51 4.51 0 0 0-.982-.111zm1.608.299l-1.66 2.874h4.377a4.542 4.542 0 0 0-2.717-2.874zM3.01 3.298a4.517 4.517 0 0 0-1.104 3.967h3.396l-.524-.907-1.768-3.06zm4.385 2.153l.132.227 2.16 3.74a4.516 4.516 0 0 0 1.104-3.967H7.396zm.157 1.542l-.42.725-1.767 3.062a4.507 4.507 0 0 0 3.849-.911L7.552 6.993zm-5.528.725a4.542 4.542 0 0 0 2.717 2.874l1.66-2.874H2.025z"/></svg>