<svg xmlns="http://www.w3.org/2000/svg" width="48" height="48" viewBox="0 0 12.7 12.7"><path fill="#2c89a0" d="M6.344.073a6.29 6.29 0 0 0-6.29 6.29 6.29 6.29 0 0 0 6.29 6.288 6.29 6.29 0 0 0 6.29-6.289 6.29 6.29 0 0 0-6.29-6.29zm-.018.936a5.407 5.407 0 0 1 5.407 5.407 5.407 5.407 0 0 1-5.407 5.407A5.407 5.407 0 0 1 .92 6.416 5.407 5.407 0 0 1 6.326 1.01zm-1.97 1.199a.58.58 0 0 0-.58.581.58.58 0 0 0 .58.581H5.7v2.094h1.207V3.37H8.14a.58.58 0 1 0 0-1.162H4.357zM5.7 5.464H3.967a.523.523 0 0 0-.496.413l-.723 3.907a.337.337 0 0 0 .344.414h2.11v.014h2.09v-.014h2.116a.336.336 0 0 0 .343-.414l-.723-3.907a.523.523 0 0 0-.496-.413H6.926L6.923 7.17l1.171.001-1.832 1.503-1.756-1.497 1.193.004V5.464z"/></svg>