<svg xmlns="http://www.w3.org/2000/svg" width="48" height="48" viewBox="0 0 12.7 12.7"><path d="M6.34.07a6.29 6.29 0 0 0-6.29 6.3 6.29 6.29 0 0 0 6.3 6.28 6.29 6.29 0 0 0 6.28-6.29A6.29 6.29 0 0 0 6.34.07zM6.32 1l.01.01a5.4 5.4 0 0 1 5.4 5.4 5.4 5.4 0 0 1-5.4 5.41 5.4 5.4 0 0 1-5.41-5.4A5.4 5.4 0 0 1 6.32 1zM4.438 2.496a.516.516 0 0 0-.531.517v3.79a.756.756 0 0 1 .529-.188h.503V3.013a.516.516 0 0 0-.5-.517zm3.842.769a.516.516 0 0 0-.532.516v3.601c0 .416-.34.769-.768.769a.77.77 0 0 1-.642-.353.835.835 0 0 1-.68.353h-.593a.126.126 0 0 1 0-.252h.63a.504.504 0 0 0 .504-.541.469.469 0 0 0-.252-.416v.176a.126.126 0 0 1-.126.126h-.567a.063.063 0 0 1 0-.126h.504c.038 0 .063-.025.063-.063V6.88l-.126-.013H4.411a.518.518 0 0 0-.517.516v.504a2.317 2.317 0 0 0 2.343 2.318h.251a2.319 2.319 0 0 0 2.318-2.318L8.78 7.9V3.78a.516.516 0 0 0-.501-.516zm-1.272 1.41a.516.516 0 0 0-.532.516v2.191a.516.516 0 0 0 1.033 0v-2.19a.516.516 0 0 0-.501-.517zm-1.285 0a.516.516 0 0 0-.532.516l.013 1.424h.504a.756.756 0 0 1 .516.188V5.191a.516.516 0 0 0-.5-.515z" fill="#2c89a0"/></svg>
