<svg xmlns="http://www.w3.org/2000/svg" width="48" height="48" viewBox="0 0 12.7 12.7"><path fill="#2c89a0" d="M6.344.073a6.29 6.29 0 0 0-6.29 6.29 6.29 6.29 0 0 0 6.29 6.288 6.29 6.29 0 0 0 6.29-6.289 6.29 6.29 0 0 0-6.29-6.29zm-.018.936a5.407 5.407 0 0 1 5.407 5.407 5.407 5.407 0 0 1-5.407 5.407A5.407 5.407 0 0 1 .92 6.416 5.407 5.407 0 0 1 6.326 1.01z"/><path fill="#ff2a2a" d="M3.134 3.677a.806.806 0 0 0-.808.809v3.728c0 .448.36.808.808.808h6.432c.447 0 .808-.36.808-.808V4.486a.806.806 0 0 0-.808-.809zM5.48 5l2.011 1.29-2.072 1.411z" opacity=".75" paint-order="markers fill stroke"/></svg>