<svg xmlns="http://www.w3.org/2000/svg" width="48" height="48" viewBox="0 0 12.7 12.7"><path d="M6.31 1.52a4.87 4.87 0 0 0-.36.01 4.87 4.87 0 0 0-.49.06A4.87 4.87 0 0 0 5 1.7a4.87 4.87 0 0 0-.46.16 4.87 4.87 0 0 0-.45.2 4.87 4.87 0 0 0-.42.24 4.87 4.87 0 0 0-.4.29 4.87 4.87 0 0 0-.36.32 4.87 4.87 0 0 0-.33.36 4.87 4.87 0 0 0-.29.39 4.87 4.87 0 0 0-.25.41 4.87 4.87 0 0 0-.21.44 4.87 4.87 0 0 0-.17.46 4.87 4.87 0 0 0-.12.47 4.87 4.87 0 0 0-.07.48 4.87 4.87 0 0 0-.02.49 4.87 4.87 0 0 0 .01.35 4.87 4.87 0 0 0 .06.49 4.87 4.87 0 0 0 .1.47 4.87 4.87 0 0 0 .16.46 4.87 4.87 0 0 0 .2.45 4.87 4.87 0 0 0 .25.42 4.87 4.87 0 0 0 .28.4 4.87 4.87 0 0 0 .32.36 4.87 4.87 0 0 0 .36.33 4.87 4.87 0 0 0 .39.3 4.87 4.87 0 0 0 .41.25 4.87 4.87 0 0 0 .44.21 4.87 4.87 0 0 0 .46.17 4.87 4.87 0 0 0 .47.12 4.87 4.87 0 0 0 .48.07 4.87 4.87 0 0 0 .49.02 4.87 4.87 0 0 0 .35-.01 4.87 4.87 0 0 0 .49-.06 4.87 4.87 0 0 0 .47-.1 4.87 4.87 0 0 0 .46-.16 4.87 4.87 0 0 0 .45-.2 4.87 4.87 0 0 0 .42-.25 4.87 4.87 0 0 0 .4-.28 4.87 4.87 0 0 0 .36-.32 4.87 4.87 0 0 0 .33-.36 4.87 4.87 0 0 0 .3-.39 4.87 4.87 0 0 0 .25-.41 4.87 4.87 0 0 0 .21-.44 4.87 4.87 0 0 0 .17-.46 4.87 4.87 0 0 0 .12-.47 4.87 4.87 0 0 0 .07-.48 4.87 4.87 0 0 0 .02-.49 4.87 4.87 0 0 0-.01-.35 4.87 4.87 0 0 0-.06-.48 4.87 4.87 0 0 0-.1-.47 4.87 4.87 0 0 0-.16-.47 4.87 4.87 0 0 0-.2-.44 4.87 4.87 0 0 0-.24-.42 4.87 4.87 0 0 0-.28-.4 4.87 4.87 0 0 0-.33-.36 4.87 4.87 0 0 0-.35-.34 4.87 4.87 0 0 0-.39-.3 4.87 4.87 0 0 0-.41-.25 4.87 4.87 0 0 0-.44-.2 4.87 4.87 0 0 0-.46-.17 4.87 4.87 0 0 0-.47-.12 4.87 4.87 0 0 0-.48-.08 4.87 4.87 0 0 0-.49-.02v-.01zm-3.3 1.5h.95v.95H3V3zm1.43 0h.95v.95h-.95V3zm1.43 0h.95v.95h-.95V3zm1.43 0h.96v.95H7.3V3zm1.43 0h.96v.95h-.96V3zM3 4.44h.96v.95H3v-.95zm1.44 0h.95v.95h-.95v-.95zm1.43 0h.95v.95h-.95v-.95zm1.43 0h.96v.95H7.3v-.95zm1.43 0h.96v.95h-.96v-.95zM3 5.88h.96v.95H3v-.95zm1.44 0h.95v.95h-.95v-.95zm1.43 0h.95v.95h-.95v-.95zm1.43 0h.96v.95H7.3v-.95zm1.43 0h.96v.95h-.96v-.95zM3 7.3h.96v.95H3v-.95zm1.44 0h.95v.95h-.95v-.95zm1.43 0h.95v.95h-.95v-.95zm1.43 0h.96v.95H7.3v-.95zm1.43 0h.96v.95h-.96v-.95zM3 8.74h.96v.96H3v-.96zm1.44 0h.95v.96h-.95v-.96zm1.43 0h.95v.96h-.95v-.96zm1.43 0h.96v.96H7.3v-.96zm1.43 0h.96v.96h-.96v-.96z" fill="#447821" opacity=".83"/><path d="M6.34.07a6.29 6.29 0 0 0-6.29 6.3 6.29 6.29 0 0 0 6.3 6.28 6.29 6.29 0 0 0 6.28-6.29A6.29 6.29 0 0 0 6.34.07zM6.32 1l.01.01a5.4 5.4 0 0 1 5.4 5.4 5.4 5.4 0 0 1-5.4 5.41 5.4 5.4 0 0 1-5.41-5.4A5.4 5.4 0 0 1 6.32 1z" fill="#5beedc"/></svg>
