<svg xmlns="http://www.w3.org/2000/svg" width="48" height="48" viewBox="0 0 12.7 12.7"><path fill="#5beedc" d="M6.344.073a6.29 6.29 0 0 0-6.29 6.29 6.29 6.29 0 0 0 6.29 6.288 6.29 6.29 0 0 0 6.29-6.289 6.29 6.29 0 0 0-6.29-6.29zm-.018.936a5.407 5.407 0 0 1 5.407 5.407 5.407 5.407 0 0 1-5.407 5.407A5.407 5.407 0 0 1 .92 6.416 5.407 5.407 0 0 1 6.326 1.01zm.348 1.992v.003c-.113-.003-.228.002-.347.004-.706.03-1.955.003-2.442.58-.298.352-.159 1.168.297 1.253.568.106 1.53-.155 2.145-.09.43.044.556.389.206.629-.37.253-1.211.176-1.636.304-1.467.44-1.994 1.375-1.635 2.641.234.825 1.063 1.438 1.968 1.472 1.74-.002 1.416-.881 2.258-.424.278.32.836.422 1.126.197.466-.361 1.168-.555.672-1.295-.237-.354.316-.813.191-2.577-.11-1.564-1.11-2.637-2.803-2.697zm-.226 3.784c.392 0 .7.274.7.616 0 .341-.308.622-.7.622-.392 0-.716-.28-.716-.622 0-.342.324-.616.716-.616z"/></svg>
