<svg xmlns="http://www.w3.org/2000/svg" width="48" height="48" viewBox="0 0 12.7 12.7"><path fill="#5beedc" d="M6.344.073a6.29 6.29 0 0 0-6.29 6.29 6.29 6.29 0 0 0 6.29 6.288 6.29 6.29 0 0 0 6.29-6.289 6.29 6.29 0 0 0-6.29-6.29zm-.018.936a5.407 5.407 0 0 1 5.407 5.407 5.407 5.407 0 0 1-5.407 5.407A5.407 5.407 0 0 1 .92 6.416 5.407 5.407 0 0 1 6.326 1.01zm-.619 1.445a.584.584 0 0 0-.332 1.051l.663.511H2.813a.584.584 0 1 0 0 1.168h1.463l-2.39 1.738a.584.584 0 1 0 .686.945l1.222-.888a3.113 3.115 0 0 0-.008.152 3.113 3.115 0 0 0 3.112 3.115 3.113 3.115 0 0 0 3.113-3.115 3.113 3.115 0 0 0-1.353-2.57.584.584 0 0 0-.042-.035L6.087 2.58a.584.584 0 0 0-.38-.125zm1.199 2.727A1.948 1.948 0 0 1 8.854 7.13a1.948 1.948 0 0 1-1.948 1.948A1.948 1.948 0 0 1 4.958 7.13a1.948 1.948 0 0 1 1.948-1.948zm0 .974a.974.974 0 0 0-.974.974.974.974 0 0 0 .974.974.974.974 0 0 0 .974-.974.974.974 0 0 0-.974-.974z"/></svg>
