<svg xmlns="http://www.w3.org/2000/svg" width="48" height="48" viewBox="0 0 12.7 12.7"><path d="M6.34.07a6.29 6.29 0 0 0-6.29 6.3 6.29 6.29 0 0 0 6.3 6.28 6.29 6.29 0 0 0 6.28-6.29A6.29 6.29 0 0 0 6.34.07zm-.01.94a5.4 5.4 0 0 1 5.4 5.4 5.4 5.4 0 0 1-5.4 5.41 5.4 5.4 0 0 1-5.41-5.4A5.4 5.4 0 0 1 6.32 1z" fill="#5beedc"/><path d="M6.33 1.54a4.88 4.88 0 0 0-4.88 4.88 4.88 4.88 0 0 0 4.88 4.87 4.88 4.88 0 0 0 4.87-4.87 4.88 4.88 0 0 0-4.87-4.88zm-2 2c.36.04.62.18.98.23l.27-.06c.5-.16.67-.17.77-.17.1 0 .26.01.77.17l.27.06c.36-.05.64-.18.99-.23.06 0 .85 1.05 1.03 1.39.08.14.1.28.07.38-.03.1-.17.2-.74.73-.27.24-.49.46-.5.47-.02.07 0 .18.08.37.1.25.12.35.07.5a.89.89 0 0 1-.29.41c-.14.12-.23.25-.32.24-.1-.02-.72-.42-.82-.5-.24-.2-.48-.44-.5-.49 0-.02.01-.07.03-.1.02-.03.2-.2.4-.37.34-.3.4-.37.4-.45l-.13-.38a1.3 1.3 0 0 1-.14-.43c0-.12.05-.2.14-.27l.62-.26a233.29 233.29 0 0 0 .63-.26 2.6 2.6 0 0 0-.37-.05c-.42-.04-.41-.04-.87.13-.3.1-.34.12-.36.17a.24.24 0 0 0-.03.09l.13.6c.13.54.13.58.1.6a2 2 0 0 1-.6.17 2.1 2.1 0 0 1-.72-.16c-.04-.04-.03-.06.1-.6l.13-.61a.24.24 0 0 0-.03-.1c-.02-.04-.07-.06-.4-.18l-.37-.13h-.2c-.26.01-.63.05-.63.08 0 0 .26.12.6.25.33.12.63.24.66.27a.3.3 0 0 1 .13.26c0 .08-.03.17-.14.44-.2.46-.21.4.28.83.21.18.4.35.4.38.04.08 0 .15-.25.36-.28.26-.34.3-.71.48-.17.08-.34.23-.37.23-.08 0-.13-.11-.27-.22a.91.91 0 0 1-.3-.43c-.06-.16-.05-.23.06-.5.08-.19.1-.3.07-.37 0-.01-.21-.22-.46-.45-.74-.68-.81-.71-.78-.9.02-.15.09-.2.33-.56.21-.31.72-1.02.78-1.06zM6.34 7.6c.09 0 .17.03.33.1.3.12.92.43.95.47.03.05 0 .09-.2.23-.34.25-.72.5-.72.5-.37.33-.35.33-.7.02l-.81-.56c-.14-.1-.16-.14-.11-.2.05-.04.67-.35.94-.47.15-.06.23-.1.32-.1z" fill="#d45500" opacity=".75"/></svg>
