<?xml version="1.0" encoding="UTF-8" standalone="no"?><svg xmlns:dc="http://purl.org/dc/elements/1.1/" xmlns:cc="http://creativecommons.org/ns#" xmlns:rdf="http://www.w3.org/1999/02/22-rdf-syntax-ns#" xmlns="http://www.w3.org/2000/svg" width="48" height="48" viewBox="0 0 12.7 12.7"><metadata><rdf:RDF><cc:Work><dc:format>image/svg+xml</dc:format><dc:type rdf:resource="http://purl.org/dc/dcmitype/StillImage"/><dc:title/></cc:Work></rdf:RDF></metadata><path d="M6.34.07a6.29 6.29 0 0 0-6.29 6.3 6.29 6.29 0 0 0 6.3 6.28 6.29 6.29 0 0 0 6.28-6.29A6.29 6.29 0 0 0 6.34.07zm-.01.94a5.4 5.4 0 0 1 5.4 5.4 5.4 5.4 0 0 1-5.4 5.41 5.4 5.4 0 0 1-.7-.05l-.12-4.73A1.66 1.66 0 0 0 6 5.36L7.27 4.1l.21-.04.52.52-.16.16a.29.29 0 0 0-.08.2v1.13c0 .15.12.28.28.28h1.12c.38 0 .38-.56 0-.56h-.84v-.73l.96-.96H10v.84c0 .38.57.38.57 0V3.82a.28.28 0 0 0-.28-.28H9.16a.29.29 0 0 0-.2.08l-.16.17-.52-.53c.02-.09.04-.18.04-.28a1.12 1.12 0 0 0-2.24-.08L4.8 4.16a1.68 1.68 0 0 0-1.56 2.87l-.9 3.05A5.4 5.4 0 0 1 .93 6.42 5.4 5.4 0 0 1 6.32 1zm.86 1.4a.56.56 0 1 1 0 1.13.56.56 0 0 1 0-1.13zm0 .26a.3.3 0 0 0-.3.3c0 .17.13.31.3.31a.3.3 0 0 0 .3-.3.3.3 0 0 0-.3-.31zm-2.8 2a1.12 1.12 0 1 1 0 2.24 1.12 1.12 0 0 1 0-2.25zm0 .56a.56.56 0 1 0 0 1.12.56.56 0 0 0 0-1.12z" fill="#5beedc"/></svg>
