<svg xmlns="http://www.w3.org/2000/svg" width="48" height="48" viewBox="0 0 12.7 12.7"><path d="M6.34.07a6.29 6.29 0 0 0-6.29 6.3 6.29 6.29 0 0 0 6.3 6.28 6.29 6.29 0 0 0 6.28-6.29A6.29 6.29 0 0 0 6.34.07zM6.32 1l.01.01a5.4 5.4 0 0 1 5.4 5.4 5.4 5.4 0 0 1-5.4 5.41 5.4 5.4 0 0 1-5.41-5.4A5.4 5.4 0 0 1 6.32 1zM3.53 2.43a.4.4 0 0 0-.4.4v7.21c0 .22.19.4.4.4h5.05l-.56-.56H4.59V2.99h2.59v2.74l.5-.3.5.3V3h.46c.18 0 .33.16.33.35v5.71l.59.6V2.82a.4.4 0 0 0-.4-.4H3.53zM7.05 6.3a1.67 1.67 0 0 0-1.67 1.67 1.67 1.67 0 0 0 1.67 1.66c.35 0 .67-.1.94-.3l1.12 1.12a.3.3 0 1 0 .43-.42L8.42 8.9c.18-.27.3-.6.3-.94A1.67 1.67 0 0 0 7.04 6.3zm0 .6A1.06 1.06 0 0 1 8.1 7.98a1.06 1.06 0 0 1-1.06 1.06 1.06 1.06 0 0 1-1.07-1.06c0-.6.48-1.06 1.07-1.06z" fill="#5beedc"/></svg>
