<svg xmlns="http://www.w3.org/2000/svg" width="48" height="48" viewBox="0 0 12.7 12.7"><path fill="#5beedc" d="M6.344.073a6.29 6.29 0 0 0-6.29 6.29 6.29 6.29 0 0 0 6.29 6.288 6.29 6.29 0 0 0 6.29-6.289 6.29 6.29 0 0 0-6.29-6.29zm-.018.936a5.407 5.407 0 0 1 5.407 5.407 5.407 5.407 0 0 1-5.407 5.407A5.407 5.407 0 0 1 .92 6.416 5.407 5.407 0 0 1 6.326 1.01zm-.936.578a.243.243 0 0 0-.205.194l-.197 1.02c-.355.14-.69.334-.982.572l-.974-.334a.241.241 0 0 0-.279.104l-.937 1.652a.249.249 0 0 0 .052.298l.776.692a3.855 3.855 0 0 0-.044.565c0 .193.016.38.044.566l-.776.692a.249.249 0 0 0-.052.297l.937 1.653a.24.24 0 0 0 .279.103l.974-.334c.293.238.627.432.982.573l.198 1.02c.02.106.12.191.227.192h1.875a.242.242 0 0 0 .227-.193l.198-1.02c.355-.14.688-.334.981-.572l.975.334a.24.24 0 0 0 .277-.103l.938-1.653a.249.249 0 0 0-.051-.297l-.776-.692c.027-.186.043-.373.043-.566 0-.193-.016-.38-.043-.565l.776-.692a.249.249 0 0 0 .051-.298l-.938-1.652a.239.239 0 0 0-.277-.104l-.975.334a3.76 3.76 0 0 0-.981-.573l-.198-1.019a.243.243 0 0 0-.227-.194H5.39zm.98 2.545a2.222 2.222 0 0 1 2.223 2.223A2.222 2.222 0 0 1 6.37 8.577a2.222 2.222 0 0 1-2.222-2.222A2.222 2.222 0 0 1 6.37 4.132zm.067.66A1.567 1.567 0 0 0 4.87 6.359a1.567 1.567 0 0 0 1.567 1.567 1.567 1.567 0 0 0 .985-.349l-.37-.37a1.038 1.038 0 0 1-.605.195A1.038 1.038 0 0 1 5.41 6.364a1.038 1.038 0 0 1 1.038-1.038 1.038 1.038 0 0 1 .631.214l.386-.364a1.567 1.567 0 0 0-1.027-.384z"/></svg>
