<svg xmlns="http://www.w3.org/2000/svg" width="48" height="48" viewBox="0 0 12.7 12.7"><path fill="#5beedc" d="M6.344.073a6.29 6.29 0 0 0-6.29 6.29 6.29 6.29 0 0 0 6.29 6.288 6.29 6.29 0 0 0 6.29-6.289 6.29 6.29 0 0 0-6.29-6.29zm-.018.936a5.407 5.407 0 0 1 5.407 5.407 5.407 5.407 0 0 1-5.407 5.407A5.407 5.407 0 0 1 .92 6.416 5.407 5.407 0 0 1 6.326 1.01z"/><path fill="red" d="M9.63 3.242a.173.173 0 0 0-.103.035L6.35 5.617l-3.177-2.34a.171.171 0 0 0-.103-.034.863.863 0 0 0-.863.863v4.489c0 .476.386.863.863.863h.345a.173.173 0 0 0 .173-.173v-.083l2.762-1.95-.097-.069c.06.04.137.04.196 0l-.099.07 2.762 1.949v.083c0 .096.078.173.173.173h.345a.863.863 0 0 0 .863-.863v-4.49a.863.863 0 0 0-.863-.863zm-6.042 2.06L6.05 7.041 3.588 8.779zm5.524 0V8.78L6.65 7.041z" opacity=".753"/></svg>
