<svg xmlns="http://www.w3.org/2000/svg" width="48" height="48" viewBox="0 0 12.7 12.7"><path fill="#5beedc" d="M6.344.073a6.29 6.29 0 0 0-6.29 6.29 6.29 6.29 0 0 0 6.29 6.288 6.29 6.29 0 0 0 6.29-6.289 6.29 6.29 0 0 0-6.29-6.29zm-.018.936a5.407 5.407 0 0 1 5.407 5.407 5.407 5.407 0 0 1-5.407 5.407A5.407 5.407 0 0 1 .92 6.416 5.407 5.407 0 0 1 6.326 1.01zm1.202.744v.001c-.235-.023-.109.255-.14.398-.003 2.023.005 4.046-.003 6.07-.037.192-.264.155-.4.119-.856-.076-1.81.517-1.931 1.412-.128.674.558 1.254 1.196 1.19.878-.05 1.583-.94 1.465-1.812.002-1.636-.004-3.272.003-4.908.03-.18.263-.19.37-.074.808.463 1.533 1.237 1.597 2.212.035.193-.026.673-.012.679.282-1.055-.009-2.265-.813-3.016-.578-.616-1.088-1.42-1.187-2.247a.318.318 0 0 0-.145-.024zM6.16 5.5a3.794 3.794 0 0 0-3.734 3.734h.657a3.136 3.136 0 0 1 3.077-3.073V5.5zm0 1.511a2.28 2.28 0 0 0-2.222 2.223h.59A1.69 1.69 0 0 1 6.16 7.602v-.59z"/></svg>
