<svg xmlns="http://www.w3.org/2000/svg" width="48" height="48" viewBox="0 0 12.7 12.7"><path fill="#5beedc" d="M6.344.073a6.29 6.29 0 0 0-6.29 6.29 6.29 6.29 0 0 0 6.29 6.288 6.29 6.29 0 0 0 6.29-6.289 6.29 6.29 0 0 0-6.29-6.29zm-.018.936a5.407 5.407 0 0 1 5.407 5.407 5.407 5.407 0 0 1-5.407 5.407A5.407 5.407 0 0 1 .92 6.416 5.407 5.407 0 0 1 6.326 1.01zM4.272 2.79H2.834v4.253l2.419 1.064.044-.054a.551.551 0 0 1 .43-.205c.308 0 .558.252.558.564 0 .311-.25.565-.557.565a.562.562 0 0 1-.551-.485l-.008-.051-2.335-1.028v2.5h7.032V2.789h-1.1v2.154l.041.028c.151.099.241.266.241.447a.53.53 0 0 1-.527.533.53.53 0 0 1-.526-.533c0-.23.145-.433.361-.506l.063-.02V2.788h-3.81v2.362h1.137l.023-.06a.548.548 0 0 1 .508-.356c.3 0 .544.248.544.551a.541.541 0 1 1-1.025.256l-.026-.049H4.272V2.788zM6.27 5.036a.276.28 0 0 0-.276.28.276.28 0 0 0 .276.279.276.28 0 0 0 .276-.28.276.28 0 0 0-.276-.279zm2.251.107a.276.28 0 0 0-.275.28.276.28 0 0 0 .275.28.276.28 0 0 0 .276-.28.276.28 0 0 0-.276-.28zm-.4 1.515a1.478 1.49 0 0 1 1.478 1.49A1.478 1.49 0 0 1 8.12 9.637a1.478 1.49 0 0 1-1.478-1.49 1.478 1.49 0 0 1 1.478-1.49zm.207.5c-.187-.01-.285.249-.107.32.144.05.301-.077.266-.203-.011-.066-.08-.12-.16-.118zm-.08.566a.18.18 0 0 0-.104.032c-.184.068-.336.18-.496.28.02.046.042.084.09.032.06-.03.26-.163.24-.033-.064.241-.142.48-.201.722-.063.132.078.252.226.165.157-.055.293-.145.43-.227-.018-.04-.03-.097-.083-.045-.068.026-.217.151-.245.048.057-.26.163-.512.231-.771.047-.09.002-.197-.088-.203zm-2.534.41a.278.278 0 0 0-.276.279c0 .154.124.28.276.28a.278.278 0 0 0 .276-.28.278.278 0 0 0-.276-.28z"/></svg>
