<svg xmlns="http://www.w3.org/2000/svg" width="48" height="48" viewBox="0 0 12.7 12.7"><path fill="#5beedc" d="M6.344.073a6.29 6.29 0 0 0-6.29 6.29 6.29 6.29 0 0 0 6.29 6.288 6.29 6.29 0 0 0 6.29-6.289 6.29 6.29 0 0 0-6.29-6.29zm-.018.936a5.407 5.407 0 0 1 5.407 5.407 5.407 5.407 0 0 1-5.407 5.407A5.407 5.407 0 0 1 .92 6.416 5.407 5.407 0 0 1 6.326 1.01z"/><path fill="#5beedc" d="M8.695 6.51l.294 3.035 1.062-1.69c-.588-.37-.64-.817-.57-1.281z"/><path fill="none" stroke="#5beedc" stroke-linecap="round" stroke-width=".661" d="M2.245 4.572c3.3.057 5.56-2.525 8.173-.754M2.086 6.166L5.64 5.88c1.449-1.563 3.062-1.883 4.979.1-1.45.177-2.445 2.013-4.98-.1"/><path fill="none" stroke="#5beedc" stroke-linecap="round" stroke-width=".634" d="M8.144 6.987C6.71 8.27 5.359 9.89 3.514 9.432c-1.12-.487-1.417-1.2-1.1-1.726.676-.37.894.333.744.503"/><ellipse cx="7.925" cy="5.742" fill="#5beedc" rx=".77" ry=".769"/></svg>
