<svg xmlns="http://www.w3.org/2000/svg" width="48" height="48" viewBox="0 0 12.7 12.7"><path d="M6.35.083A6.267 6.267 0 0 0 .084 6.35a6.267 6.267 0 0 0 6.268 6.267 6.267 6.267 0 0 0 6.266-6.267A6.267 6.267 0 0 0 6.351.083zm-.017.932a5.388 5.388 0 0 1 5.388 5.39 5.388 5.388 0 0 1-5.388 5.387 5.388 5.388 0 0 1-5.39-5.388 5.388 5.388 0 0 1 5.39-5.389zM3.175 2.977a.198.198 0 0 0-.198.198v.273a.966.966 0 0 0-.596.894v4.413c0 .537.432.968.969.968h6a.966.966 0 0 0 .969-.968V4.342a.966.966 0 0 0-.969-.969H4.366v-.198a.198.198 0 0 0-.199-.198h-.992zm6.152.992a.397.397 0 0 1 .396.397.397.397 0 0 1-.396.396.397.397 0 0 1-.397-.396.397.397 0 0 1 .397-.397zm-2.977.8a2.183 2.183 0 0 1 2.183 2.183A2.183 2.183 0 0 1 6.35 9.135a2.183 2.183 0 0 1-2.183-2.183A2.183 2.183 0 0 1 6.35 4.769zm0 .336a1.847 1.847 0 0 0-1.847 1.847A1.847 1.847 0 0 0 6.35 8.799a1.847 1.847 0 0 0 1.847-1.847A1.847 1.847 0 0 0 6.35 5.105zm0 .64a1.206 1.206 0 0 1 1.206 1.207A1.206 1.206 0 0 1 6.35 8.158a1.206 1.206 0 0 1-1.206-1.206A1.206 1.206 0 0 1 6.35 5.746z" fill="#5beedc"/></svg>
