<svg xmlns="http://www.w3.org/2000/svg" width="48" height="48" viewBox="0 0 12.7 12.7"><path fill="#5beedc" d="M6.344.073a6.29 6.29 0 0 0-6.29 6.29 6.29 6.29 0 0 0 6.29 6.288 6.29 6.29 0 0 0 6.29-6.289 6.29 6.29 0 0 0-6.29-6.29zm-.018.936a5.407 5.407 0 0 1 5.407 5.407 5.407 5.407 0 0 1-5.407 5.407A5.407 5.407 0 0 1 .92 6.416 5.407 5.407 0 0 1 6.326 1.01zM3.24 3.003c-.327 0-.591.159-.591.355 0 .197.264.355.591.355h2.176c.327 0 .59-.158.59-.355 0-.196-.263-.355-.59-.355H3.24zm6.621 1.245a.377.377 0 0 0-.267.11l-.573.571 1.25 1.248.572-.57a.377.377 0 0 0 0-.534l-.714-.714a.377.377 0 0 0-.268-.11zm-6.62.343c-.328 0-.592.158-.592.355 0 .196.264.354.591.354h2.176c.327 0 .59-.158.59-.354 0-.197-.263-.355-.59-.355H3.24zm5.514.605L5.31 8.634 6.56 9.88l3.443-3.436-1.25-1.249zm-5.515.982c-.327 0-.591.159-.591.355 0 .197.264.355.591.355h2.176c.327 0 .59-.158.59-.355 0-.196-.263-.355-.59-.355H3.24zM5.041 8.9l-.268 1.514 1.518-.265L5.04 8.9z"/></svg>
