<svg xmlns="http://www.w3.org/2000/svg" width="48" height="48" viewBox="0 0 12.7 12.7"><g fill="#5beedc"><path d="M6.344.073a6.29 6.29 0 0 0-6.29 6.29 6.29 6.29 0 0 0 6.29 6.289 6.29 6.29 0 0 0 6.29-6.29 6.29 6.29 0 0 0-6.29-6.29zm-.018.936a5.407 5.407 0 0 1 5.407 5.407 5.407 5.407 0 0 1-5.407 5.407A5.407 5.407 0 0 1 .92 6.416 5.407 5.407 0 0 1 6.326 1.01z"/><path d="M6.353 1.836a3.775 3.775 0 0 0-1.017 7.41 1.88 1.68 0 0 0-.882 1.446l3.76-.024a1.88 1.68 0 0 0-.869-1.415 3.774 3.774 0 0 0-.992-7.417zm0 2.076a1.7 1.7 0 1 1 0 3.4 1.7 1.7 0 0 1 0-3.4zm0 1.322a.379.379 0 0 0-.378.378c0 .208.17.378.378.378.207 0 .377-.17.377-.378a.379.379 0 0 0-.377-.378z"/></g></svg>
