<svg xmlns="http://www.w3.org/2000/svg" width="48" height="48" viewBox="0 0 12.7 12.7"><path fill="#5beedc" d="M6.344.073a6.29 6.29 0 0 0-6.29 6.29 6.29 6.29 0 0 0 6.29 6.288 6.29 6.29 0 0 0 6.29-6.289 6.29 6.29 0 0 0-6.29-6.29zm-.018.936a5.407 5.407 0 0 1 5.407 5.407 5.407 5.407 0 0 1-5.407 5.407A5.407 5.407 0 0 1 .92 6.416 5.407 5.407 0 0 1 6.326 1.01zM3.41 3.044c-.371 0-.67.299-.67.67v4.579c0 .37.299.67.67.67h1.68v.8H3.522v.619h5.835v-.619H7.748v-.8h1.64c.37 0 .67-.3.67-.67v-4.58c0-.37-.3-.67-.67-.67h-5.98zm.508.666h5c.287 0 .518.23.518.517v3.537c0 .287-.231.518-.518.518h-5a.516.516 0 0 1-.518-.518V4.227c0-.286.231-.517.518-.517zm.661.437l-.085.504-.505.071.505.097.092.505.076-.505.504-.078-.504-.09-.083-.504zm2.352.414l-.084.505-.504.07.504.098.092.504.076-.504.504-.078-.504-.09-.084-.505zm1.584.5c.072.171.109.36.109.558 0 .79-.631 1.43-1.409 1.43-.227 0-.44-.054-.63-.15a1.41 1.41 0 0 0 1.3.87A1.42 1.42 0 0 0 9.292 6.34c0-.559-.317-1.044-.778-1.279zm-2.928.263l-.085.503-.504.072.504.096.092.504.076-.504.504-.078-.504-.09-.083-.503zm-1.512.84l-.086.504-.504.071.504.097.093.504.075-.504.505-.078-.505-.09-.082-.505z"/></svg>
