<svg xmlns="http://www.w3.org/2000/svg" width="48" height="48" viewBox="0 0 12.7 12.7"><path d="M6.34.07a6.29 6.29 0 0 0-6.29 6.3 6.29 6.29 0 0 0 6.3 6.28 6.29 6.29 0 0 0 6.28-6.29A6.29 6.29 0 0 0 6.34.07zM6.32 1l.01.01a5.4 5.4 0 0 1 5.39 5.05.8.72 0 0 0-.3-.26L7.67 3.88 3.9 1.95a.8.72 0 0 0-.38-.1.8.72 0 0 0-.12 0A5.4 5.4 0 0 1 6.32 1zm-3.6 1.39a.8.72 0 0 0-.03.18v7.7a.8.72 0 0 0 .01.15 5.4 5.4 0 0 1-1.78-4 5.4 5.4 0 0 1 1.8-4.03zm4.4 1.98a.36.32 0 0 1 .37.32v3.47a.36.32 0 0 1-.55.28l-1.69-.87-1.7-.87a.36.32 0 0 1 0-.56l1.7-.86 1.7-.87a.36.32 0 0 1 .16-.04zm4.6 2.43a5.4 5.4 0 0 1-5.39 5.02 5.4 5.4 0 0 1-2.87-.83.8.72 0 0 0 .44-.09l3.76-1.93 3.77-1.92a.8.72 0 0 0 .28-.25z" fill="#5beedc"/></svg>
