<svg xmlns="http://www.w3.org/2000/svg" width="48" height="48" viewBox="0 0 12.7 12.7"><path fill="#5beedc" d="M6.34.07a6.29 6.29 0 0 0-6.29 6.3 6.29 6.29 0 0 0 6.3 6.28 6.29 6.29 0 0 0 6.28-6.29A6.29 6.29 0 0 0 6.34.07zm-.01.94a5.4 5.4 0 0 1 5.4 5.4 5.4 5.4 0 0 1-5.4 5.41 5.4 5.4 0 0 1-5.41-5.4A5.4 5.4 0 0 1 6.32 1zm.04.43A1.69 1.69 0 0 0 4.7 3.13v.56H3.6A.61.61 0 0 0 3 4.3v5.52c0 .34.28.62.61.62h5.52c.34 0 .62-.28.62-.62V4.3a.61.61 0 0 0-.62-.61H8.06v-.56a1.69 1.69 0 0 0-1.69-1.69zm0 .56C7 2 7.5 2.5 7.5 3.13v.56H5.25v-.56c0-.63.5-1.13 1.13-1.13zM4.95 4.25c.16 0 .3.13.3.28 0 .16-.14.29-.3.29a.28.28 0 0 1-.28-.29c0-.15.12-.28.28-.28zm2.81 0c.16 0 .3.13.3.28 0 .16-.14.29-.3.29a.28.28 0 0 1-.28-.29c0-.15.12-.28.28-.28zm-1.37 1.9a1.46 1.43 0 0 1 1.46 1.43A1.46 1.43 0 0 1 6.4 9a1.46 1.43 0 0 1-1.46-1.42A1.46 1.43 0 0 1 6.4 6.15z"/><path fill="teal" d="M5.75 6.73a.22.22 0 1 0 0 .43.22.22 0 0 0 0-.43zm.65 0a.22.22 0 1 0 0 .43.22.22 0 0 0 0-.43zm.65 0a.22.22 0 1 0 0 .43.22.22 0 0 0 0-.43zm-1.3.65a.22.22 0 1 0 0 .43.22.22 0 0 0 0-.43zm.65 0a.22.22 0 1 0 0 .43.22.22 0 0 0 0-.43zm.65 0a.22.22 0 1 0 0 .43.22.22 0 0 0 0-.43zm-1.3.65a.22.22 0 1 0 0 .43.22.22 0 0 0 0-.43zm.65 0a.22.22 0 1 0 0 .43.22.22 0 0 0 0-.43zm.65 0a.22.22 0 1 0 0 .43.22.22 0 0 0 0-.43z" opacity=".75"/></svg>
