<svg xmlns="http://www.w3.org/2000/svg" width="48" height="48" viewBox="0 0 12.7 12.7"><defs><linearGradient id="a" y1="532.8" x1="402.57" y2="526.8" x2="395.57" gradientUnits="userSpaceOnUse" gradientTransform="translate(0 -2)"><stop stop-color="#90a8b0"/><stop offset="1" stop-color="#e1e7ea"/></linearGradient><linearGradient id="b" y1="508.67" x1="400.07" y2="531.17" x2="400.32" gradientUnits="userSpaceOnUse"><stop stop-color="#96acb4"/><stop offset="1" stop-color="#475b63"/></linearGradient></defs><path d="M6.34.07a6.29 6.29 0 0 0-6.29 6.3 6.29 6.29 0 0 0 6.3 6.28 6.29 6.29 0 0 0 6.28-6.29A6.29 6.29 0 0 0 6.34.07zm-.1.94v5.77a.95.95 0 0 0-.8.94.95.95 0 0 0 .95.96.95.95 0 0 0 .95-.96.95.95 0 0 0-.77-.93V1.02a5.4 5.4 0 0 1 1.53.3l1.58 5.17a.95.95 0 0 0-.46.55.95.95 0 0 0 .61 1.2.95.95 0 0 0 1.2-.61.95.95 0 0 0-.6-1.2.95.95 0 0 0-.44-.04L8.5 1.46a5.4 5.4 0 0 1 3.24 4.96 5.4 5.4 0 0 1-5.4 5.4 5.4 5.4 0 0 1-5.41-5.4 5.4 5.4 0 0 1 1.51-3.75v4.1a.95.95 0 0 0-.81.95.95.95 0 0 0 .95.96.95.95 0 0 0 .96-.96.95.95 0 0 0-.78-.93V2.37a5.4 5.4 0 0 1 1.59-.98v5.39a.95.95 0 0 0-.81.94.95.95 0 0 0 .95.96.95.95 0 0 0 .95-.96.95.95 0 0 0-.77-.93v-5.5A5.4 5.4 0 0 1 6.25 1z" fill="#5beedc"/></svg>
