<svg xmlns="http://www.w3.org/2000/svg" width="48" height="48" viewBox="0 0 12.7 12.7"><path d="M8.9 1.66a5.4 5.4 0 0 0-.48-.23 5.4 5.4 0 0 0-.5-.19 5.4 5.4 0 0 0-.53-.13 5.4 5.4 0 0 0-.53-.08A5.4 5.4 0 0 0 6.32 1L6.31.99a5.4 5.4 0 0 0-.4.02 5.4 5.4 0 0 0-.54.06 5.4 5.4 0 0 0-.52.12 5.4 5.4 0 0 0-.52.17 5.4 5.4 0 0 0-.49.23 5.4 5.4 0 0 0-.46.27 5.4 5.4 0 0 0-.44.31 5.4 5.4 0 0 0-.4.36 5.4 5.4 0 0 0-.37.4 5.4 5.4 0 0 0-.29.37l1.93 3.34.43.19 1.23-1 .85-.46 3.4-1.88.07-.3z" opacity=".2" fill="#5beedc"/><path d="M6.34.07a6.29 6.29 0 0 0-6.29 6.3 6.29 6.29 0 0 0 6.3 6.28 6.29 6.29 0 0 0 3.2-.89l-.42-.73a5.4 5.4 0 0 1-2.8.79 5.4 5.4 0 0 1-5.41-5.4A5.4 5.4 0 0 1 6.32 1l.01.01a5.4 5.4 0 0 1 5.4 5.4 5.4 5.4 0 0 1-1.05 3.2l.46.8a6.29 6.29 0 0 0 1.49-4.05A6.29 6.29 0 0 0 6.34.07zM9.4 2.95a.5.5 0 0 0-.3.05L4 5.97a.5.5 0 1 0 .5.85l5.1-2.96a.5.5 0 0 0-.21-.91zm-.7 1.5l-.09.01a.32.32 0 0 0-.1.04L5.58 6.19c-.13.08-.19.23-.12.35.07.12.23.15.37.08l1.03-.6 3.17 5.5a.5.5 0 0 0 .88-.5l-3.18-5.5 1.03-.6a.27.27 0 0 0 .12-.35.24.24 0 0 0-.19-.11zm-5 4.14a.55.55 0 0 0-.22.04.34.34 0 0 0-.14.11.3.3 0 0 0-.06.18c0 .1.03.18.09.24a.6.6 0 0 0 .25.15l.19.08c.04.03.08.05.1.08a.2.2 0 0 1 .02.11c0 .07-.02.12-.07.16a.36.36 0 0 1-.22.05.87.87 0 0 1-.37-.07v.15l.15.05.2.02c.15 0 .27-.04.35-.1a.32.32 0 0 0 .13-.27.32.32 0 0 0-.05-.17.34.34 0 0 0-.12-.12 1.04 1.04 0 0 0-.2-.1 1.18 1.18 0 0 1-.16-.07.26.26 0 0 1-.1-.08.2.2 0 0 1-.02-.1c0-.06.02-.11.06-.14.05-.04.1-.06.19-.06.06 0 .11 0 .16.02l.15.05.06-.14a.9.9 0 0 0-.37-.07zm2.36 0a.75.75 0 0 0-.37.08.56.56 0 0 0-.23.24.75.75 0 0 0-.08.35c0 .14.02.26.07.36.05.1.12.18.21.23.1.06.21.09.35.09a1.64 1.64 0 0 0 .46-.07V9.2h-.46v.15h.3v.4a1.1 1.1 0 0 1-.26.02.54.54 0 0 1-.29-.06.4.4 0 0 1-.16-.2.73.73 0 0 1-.05-.27c0-.16.05-.3.13-.38.09-.1.21-.15.37-.15l.18.03.16.05.06-.15a.92.92 0 0 0-.4-.07zm-1.88.01l.47 1.32h.17l.47-1.32h-.18l-.3.84a2.44 2.44 0 0 0-.08.3 2.41 2.41 0 0 0-.08-.3l-.3-.84z" fill="#5beedc"/></svg>
