<svg xmlns="http://www.w3.org/2000/svg" width="48" height="48" viewBox="0 0 12.7 12.7"><path fill="#5beedc" d="M6.344.073a6.29 6.29 0 0 0-6.29 6.29 6.29 6.29 0 0 0 6.29 6.288 6.29 6.29 0 0 0 6.29-6.289 6.29 6.29 0 0 0-6.29-6.29zm-.018.936a5.407 5.407 0 0 1 5.407 5.407 5.407 5.407 0 0 1-5.407 5.407A5.407 5.407 0 0 1 .92 6.416 5.407 5.407 0 0 1 6.326 1.01zm-2.33 1.275L2.55 3.756h7.6L8.698 2.284H3.996zM2.55 3.891v6.106h7.595V3.891H2.55zm.337.271h6.922v5.565H2.887V4.162zm.377.422v2.185H9.41V4.584H3.264zm2.164.714h1.84v.41h-1.84v-.41zM3.264 7.116V9.3H9.41V7.116H3.264zm2.164.714h1.84v.411h-1.84V7.83z"/></svg>
