<svg xmlns="http://www.w3.org/2000/svg" width="48" height="48" viewBox="0 0 12.7 12.7"><path fill="#5beedc" d="M6.344.073a6.29 6.29 0 0 0-6.29 6.29 6.29 6.29 0 0 0 6.29 6.288 6.29 6.29 0 0 0 6.29-6.289 6.29 6.29 0 0 0-6.29-6.29zm-.018.936a5.407 5.407 0 0 1 5.407 5.407 5.407 5.407 0 0 1-5.407 5.407A5.407 5.407 0 0 1 .92 6.416 5.407 5.407 0 0 1 6.326 1.01zm2.89 1.632c-1.676.061-2.536.9-2.811 1.226a4.052 4.052 0 0 0-.584-.046c-2.123 0-3.847 1.636-3.847 3.65 0 2.014 1.724 3.65 3.847 3.65 2.122 0 3.847-1.636 3.847-3.65 0-1.62-1.117-2.994-2.659-3.47 1.818-.144 2.64-1.358 2.64-1.358a5.446 5.446 0 0 0-.433-.002zM7.3 4.896c.126-.007.203.118.218.23.008 1.184-.009 2.37 0 3.555.033.638-.797 1.181-1.387.913-.302-.125-.442-.485-.35-.79.126-.526.635-.84 1.145-.69V6.117c-.134.02-1.677.302-1.775.309.002.889-.007 1.777 0 2.666-.007.53-.491.948-1.129.932-.355-.007-.683-.326-.644-.692.024-.586.63-.999 1.183-.872V5.863c.01-.194-.039-.462.176-.566.812-.137 1.749-.27 2.563-.4z"/></svg>
