<svg xmlns="http://www.w3.org/2000/svg" width="48" height="48" viewBox="0 0 12.7 12.7"><path d="M6.34.07a6.29 6.29 0 0 0-6.29 6.3 6.29 6.29 0 0 0 6.3 6.28 6.29 6.29 0 0 0 6.28-6.29A6.29 6.29 0 0 0 6.34.07zm-.25.95v10.8a5.4 5.4 0 0 1-5.17-5.4 5.4 5.4 0 0 1 5.17-5.4zm.6 0a5.4 5.4 0 0 1 5.04 5.4 5.4 5.4 0 0 1-5.05 5.4V1.01zM2.3 3.67a.21.33 45 0 0-.35.51l1.11 1.12L1.96 6.4a.33.21 45 1 0 .46.46L3.8 5.5a.33.21 45 0 0 .03-.05.11.2 0 0 0 .04-.16.11.2 0 0 0-.04-.16.21.33 45 0 0-.03-.04L2.42 3.7a.21.33 45 0 0-.1-.04zm5.3 0a.21.33 45 0 0-.36.51l1.12 1.12L7.25 6.4a.33.21 45 1 0 .47.46L9.09 5.5a.33.21 45 0 0 .04-.05.11.2 0 0 0 .04-.16.11.2 0 0 0-.05-.16.21.33 45 0 0-.03-.04L7.72 3.7a.21.33 45 0 0-.12-.04zM3.62 6.13a.21.33 0 1 0 0 .66h1.95a.21.33 0 0 0 0-.66H3.64zm5.3 0a.21.33 0 1 0 0 .66h1.94a.21.33 0 0 0 0-.66H8.93z" fill="#5beedc"/></svg>
