<svg xmlns="http://www.w3.org/2000/svg" width="48" height="48" viewBox="0 0 12.7 12.7"><path d="M6.34.07a6.29 6.29 0 0 0-6.29 6.3 6.29 6.29 0 0 0 6.3 6.28 6.29 6.29 0 0 0 6.28-6.29A6.29 6.29 0 0 0 6.34.07zM6.32 1l.01.01a5.4 5.4 0 0 1 5.4 5.4 5.4 5.4 0 0 1-5.4 5.41 5.4 5.4 0 0 1-5.41-5.4A5.4 5.4 0 0 1 6.32 1zM4.49 2.3a.49.49 0 0 0-.5.48v3.73c0 .27.23.49.5.49h1.39v.6a.94.94 0 0 0-.42.51H3.95a.94.94 0 0 0-.9-.64.94.94 0 0 0-.93.94.94.94 0 0 0 .94.94.94.94 0 0 0 .87-.6h1.55a.94.94 0 0 0 .87.6.94.94 0 0 0 .87-.6h1.55a.94.94 0 0 0 .87.6.94.94 0 0 0 .94-.94.94.94 0 0 0-.94-.94.94.94 0 0 0-.89.64h-1.5a.94.94 0 0 0-.43-.52V7h1.4c.26 0 .48-.21.48-.48V2.78c0-.27-.22-.49-.49-.49H4.5zm.45.93h2.82v2.83H4.94V3.23z" fill="#5beedc"/></svg>
