<svg xmlns="http://www.w3.org/2000/svg" width="48" height="48" viewBox="0 0 12.7 12.7"><path fill="#5beedc" d="M6.34.07C2.91.07.1 2.9.1 6.33s2.82 6.25 6.25 6.25 6.26-2.82 6.26-6.25S9.78.07 6.34.07zm2.18 1.27s2.16 1 2.35 3.38c.13 1.7-.1 2.43-.24 2.71a.64.64 0 0 1-.1.15 4.48 4.48 0 0 0 1.12-3.23s1.19 1.68.78 3.35c-.41 1.67-1.71 2.68-1.71 2.68s.37-1.38.37-2.01c0 0-.7.52-1.08.63 0 0-1-1.38-.85-3.14L9 5.97A2.66 2.66 0 0 1 7.78 8.6c-.02.51.05 1.1.26 1.78 0 0-.73-.52-1.2-1.42a2.66 2.66 0 0 1-3.19-2.63c.01-1.5 1.2-2.68 2.7-2.68.52 0 1 .15 1.42.4.63-1.2.89-1.67.75-2.71zm-2.18 3.2c-.98 0-1.78.8-1.78 1.79A1.8 1.8 0 0 0 6.52 8.1l-.01-.19a3.19 3.19 0 0 1-.03-.71.89.89 0 0 1-1.03-.88c0-.5.4-.9.9-.9.23 0 .44.1.6.24l.38-.77.01-.05a1.77 1.77 0 0 0-1-.3z" color="#bebebe" font-family="sans-serif" font-weight="400" overflow="visible" style="font-variant-ligatures:normal;font-variant-position:normal;font-variant-caps:normal;font-variant-numeric:normal;font-variant-alternates:normal;font-feature-settings:normal;text-indent:0;text-decoration-line:none;text-decoration-style:solid;text-decoration-color:#000;text-transform:none;text-orientation:mixed;shape-padding:0;isolation:auto;mix-blend-mode:normal" white-space="normal"/><path fill="#333" d="M6.52 8.1h.02v-.02m.8-3.22a.05.05 0 0 1 .01 0v-.01" color="#bebebe" font-family="sans-serif" font-weight="400" overflow="visible" style="font-variant-ligatures:normal;font-variant-position:normal;font-variant-caps:normal;font-variant-numeric:normal;font-variant-alternates:normal;font-feature-settings:normal;text-indent:0;text-decoration-line:none;text-decoration-style:solid;text-decoration-color:#000;text-transform:none;text-orientation:mixed;shape-padding:0;isolation:auto;mix-blend-mode:normal" white-space="normal"/><path fill="#ffd42a" d="M8.52 1.34s2.16 1 2.35 3.38c.13 1.7-.1 2.43-.24 2.71a.64.64 0 0 1-.1.15 4.48 4.48 0 0 0 1.12-3.23s1.19 1.68.78 3.35c-.41 1.67-1.71 2.68-1.71 2.68s.37-1.38.37-2.01c0 0-.7.52-1.08.63 0 0-1-1.38-.85-3.14 0 0-2.12 1.2-1.12 4.52 0 0-2.5-1.75-1.2-4.5 1.31-2.75 1.87-3.09 1.68-4.54z" opacity=".75"/></svg>
