<svg xmlns="http://www.w3.org/2000/svg" width="48" height="48" version="1"><defs><linearGradient id="a"><stop offset="0" stop-color="#040000"/><stop offset="1" stop-opacity="0"/></linearGradient></defs><path d="M24 .23A23.77 23.77 0 0 0 .23 24.01 23.77 23.77 0 0 0 24 47.77 23.77 23.77 0 0 0 47.77 24 23.77 23.77 0 0 0 24 .23zm-.07 3.54a20.44 20.44 0 0 1 20.44 20.44 20.44 20.44 0 0 1-20.44 20.43A20.44 20.44 0 0 1 3.5 24.21 20.44 20.44 0 0 1 23.93 3.77zm0 3A17.44 17.44 0 0 0 6.5 24.22a17.44 17.44 0 0 0 17.43 17.44A17.44 17.44 0 0 0 41.37 24.2 17.44 17.44 0 0 0 23.93 6.77zm2.42 6.66l.04.03v.74c-.97.69-1.55 1.31-1.74 1.86h4.5l.07.07v.62l-.08.07h-4.86c-.13.49-.2.92-.2 1.3v.28c0 1.43.68 2.69 2.03 3.76l-.37.53c-.63-.26-1.23-.92-1.82-1.98-.4-.85-.6-1.66-.6-2.43.02-.47.09-.95.2-1.46h-1.06l-.08-.07v-.62l.08-.07h1.3a5.92 5.92 0 0 1 2.59-2.63zm-14.77.02h.04v1.25a8.32 8.32 0 0 0-.19 1.34v.22c0 1.56.78 2.8 2.33 3.7.63.32 1.29.48 1.96.48 1.52 0 2.75-.73 3.7-2.18.37-.67.55-1.39.55-2.15l-.18-1.37v-1.3h.07c.52.9.78 1.78.78 2.67v3.62A4.9 4.9 0 0 1 18 22.21c-.8.32-1.56.48-2.29.48-1.89 0-3.43-.79-4.62-2.36l-.3-.48.04-.04h.74a4.8 4.8 0 0 0 4.03 2.18h.3c1.39 0 2.6-.6 3.62-1.78.2-.24.3-.41.3-.51v-.82h-.04a4.78 4.78 0 0 1-4.14 2.22c-1.83 0-3.28-.9-4.36-2.7a4.82 4.82 0 0 1-.52-2.03v-.44c0-.85.27-1.68.81-2.48zm-1.2 11.05h19.75c.15 0 .28.13.28.29 0 .15-.13.28-.28.28H10.38a.28.28 0 0 1-.29-.28c0-.16.13-.29.29-.29z" fill="#5beedc"/></svg>
