<?xml version="1.0" encoding="UTF-8" standalone="no"?>
<svg
   xmlns:dc="http://purl.org/dc/elements/1.1/"
   xmlns:cc="http://creativecommons.org/ns#"
   xmlns:rdf="http://www.w3.org/1999/02/22-rdf-syntax-ns#"
   xmlns:svg="http://www.w3.org/2000/svg"
   xmlns="http://www.w3.org/2000/svg"
   xmlns:sodipodi="http://sodipodi.sourceforge.net/DTD/sodipodi-0.dtd"
   xmlns:inkscape="http://www.inkscape.org/namespaces/inkscape"
   width="48"
   height="48"
   viewBox="0 0 12.7 12.7"
   version="1.1"
   id="svg4"
   sodipodi:docname="acetoneiso.svg"
   inkscape:version="0.92.4 (5da689c313, 2019-01-14)">
  <metadata
     id="metadata10">
    <rdf:RDF>
      <cc:Work
         rdf:about="">
        <dc:format>image/svg+xml</dc:format>
        <dc:type
           rdf:resource="http://purl.org/dc/dcmitype/StillImage" />
        <dc:title></dc:title>
      </cc:Work>
    </rdf:RDF>
  </metadata>
  <defs
     id="defs8" />
  <sodipodi:namedview
     pagecolor="#ffffff"
     bordercolor="#666666"
     borderopacity="1"
     objecttolerance="10"
     gridtolerance="10"
     guidetolerance="10"
     inkscape:pageopacity="0"
     inkscape:pageshadow="2"
     inkscape:window-width="861"
     inkscape:window-height="480"
     id="namedview6"
     showgrid="false"
     inkscape:zoom="4.9166667"
     inkscape:cx="2.1355932"
     inkscape:cy="24"
     inkscape:window-x="0"
     inkscape:window-y="25"
     inkscape:window-maximized="0"
     inkscape:current-layer="svg4" />
  <path
     style="color:#bebebe;font-weight:400;font-family:sans-serif;font-variant-ligatures:normal;font-variant-position:normal;font-variant-caps:normal;font-variant-numeric:normal;font-variant-alternates:normal;font-feature-settings:normal;text-indent:0;text-decoration:none;text-decoration-line:none;text-decoration-style:solid;text-decoration-color:#000000;text-transform:none;text-orientation:mixed;white-space:normal;shape-padding:0;overflow:visible;isolation:auto;mix-blend-mode:normal;fill:#ff7f2a"
     d="m 6.344,0.073 c -3.434,0 -6.254,2.822 -6.254,6.255 0,3.433 2.822,6.255 6.255,6.255 0.684,0 1.333,-0.14 1.952,-0.346 A 2.85,2.85 0 0 1 8.243,12.206 2.85,2.85 0 0 1 8.011,12.04 2.85,2.85 0 0 1 7.797,11.852 2.85,2.85 0 0 1 7.603,11.644 2.85,2.85 0 0 1 7.431,11.417 2.85,2.85 0 0 1 7.281,11.174 2.85,2.85 0 0 1 7.157,10.918 2.85,2.85 0 0 1 7.06,10.65 2.85,2.85 0 0 1 6.99,10.374 2.85,2.85 0 0 1 6.946,10.092 2.85,2.85 0 0 1 6.932,9.808 2.85,2.85 0 0 1 6.939,9.606 2.85,2.85 0 0 1 6.974,9.323 2.85,2.85 0 0 1 7.036,9.045 2.85,2.85 0 0 1 7.097,8.859 c -0.243,0.071 -0.484,0.15 -0.752,0.15 -1.5,0 -2.681,-1.18 -2.681,-2.681 0,-1.501 1.18,-2.68 2.68,-2.68 V 3.647 a 2.655,2.655 0 0 1 2.68,2.68 c 0,0.28 -0.078,0.532 -0.154,0.783 A 2.85,2.85 0 0 1 8.94,7.084 2.85,2.85 0 0 1 9.216,7.014 2.85,2.85 0 0 1 9.498,6.972 2.85,2.85 0 0 1 9.782,6.957 a 2.85,2.85 0 0 1 0.202,0.007 2.85,2.85 0 0 1 0.283,0.034 2.85,2.85 0 0 1 0.278,0.063 2.85,2.85 0 0 1 0.27,0.09 2.85,2.85 0 0 1 0.26,0.116 2.85,2.85 0 0 1 0.247,0.142 2.85,2.85 0 0 1 0.232,0.165 2.85,2.85 0 0 1 0.214,0.188 2.85,2.85 0 0 1 0.195,0.21 2.85,2.85 0 0 1 0.172,0.226 2.85,2.85 0 0 1 0.095,0.155 C 12.453,7.714 12.6,7.039 12.6,6.328 12.6,2.895 9.777,0.073 6.344,0.073 Z m 0,4.467 c -0.982,0 -1.787,0.806 -1.787,1.788 0,0.982 0.805,1.787 1.787,1.787 0.982,0 1.788,-0.805 1.788,-1.787 0,-0.982 -0.806,-1.787 -1.788,-1.787 z m 0,0.894 c 0.499,0 0.894,0.395 0.894,0.894 A 0.887,0.887 0 0 1 6.344,7.222 0.887,0.887 0 0 1 5.451,6.328 c 0,-0.5 0.395,-0.894 0.893,-0.894 z m 3.43,2.428 A 1.94,1.94 0 0 0 8.517,8.323 C 8.371,8.463 8.754,8.785 8.884,8.651 A 1.447,1.447 0 0 1 9.774,8.347 1.455,1.455 0 0 1 11.233,9.806 1.455,1.455 0 0 1 9.774,11.264 1.45,1.45 0 0 1 8.744,10.837 1.456,1.456 0 0 1 8.383,10.243 H 8.936 L 8.152,9.331 7.369,10.243 H 7.881 A 1.945,1.945 0 0 0 9.775,11.75 1.949,1.949 0 0 0 11.719,9.806 1.948,1.948 0 0 0 9.775,7.862 Z"
     font-weight="400"
     overflow="visible"
     id="path2"
     inkscape:connector-curvature="0" />
</svg>
