<svg xmlns="http://www.w3.org/2000/svg" width="48" height="48" viewBox="0 0 12.7 12.7"><path d="M6.34.07a6.29 6.29 0 0 0-6.29 6.3 6.29 6.29 0 0 0 6.3 6.28 6.29 6.29 0 0 0 6.28-6.29A6.29 6.29 0 0 0 6.34.07zm-.01.94a5.4 5.4 0 0 1 5.4 5.4 5.4 5.4 0 0 1-5.4 5.41 5.4 5.4 0 0 1-5.41-5.4A5.4 5.4 0 0 1 6.32 1zm0 .53a4.88 4.88 0 0 0-4.88 4.88 4.88 4.88 0 0 0 4.88 4.87 4.88 4.88 0 0 0 4.87-4.87 4.88 4.88 0 0 0-4.87-4.88zm.02.67c.55 0 1.02.7 1.3 1.83 1.09-.35 1.93-.33 2.23.15.23.37.06.94-.5 1.62-.15.2-.32.38-.5.55a7.14 7.14 0 0 1 .2.22.49.49 0 0 1 .7.44.48.48 0 0 1-.1.29c.3.5.38.93.2 1.23-.17.26-.5.38-.94.38a4.32 4.32 0 0 1-1.3-.24c-.27 1.12-.74 1.82-1.3 1.82-.55 0-1.02-.7-1.3-1.83l-.23.08a.49.49 0 0 1-.93.17h-.14c-.56 0-.81-.2-.92-.39-.23-.37-.06-.94.49-1.62a6.33 6.33 0 0 1 .51-.55 6.24 6.24 0 0 1-.51-.56c-.55-.67-.72-1.25-.5-1.63.3-.47 1.15-.5 2.25-.13a6.4 6.4 0 0 1 .1-.37.49.49 0 0 1 .3-.86h.07c.3-.5.6-.6.82-.6zm0 .29c-.18 0-.38.15-.55.43a.49.49 0 0 1-.33.85h-.04l-.1.36c.35.13.69.28 1.02.45.32-.17.66-.33 1-.46-.24-1.01-.63-1.63-1-1.63zm2.62 1.59c-.33 0-.76.08-1.26.24.07.4.13.79.15 1.18.28.2.54.42.8.64.18-.16.34-.34.5-.53.45-.55.62-1.04.47-1.29-.1-.16-.33-.24-.66-.24zm-5.24 0c-.33 0-.56.09-.66.24-.16.26.02.74.46 1.29a6.1 6.1 0 0 0 .5.54c.26-.23.53-.45.8-.65A9.57 9.57 0 0 1 5 4.33c-.5-.16-.93-.24-1.26-.24zm3.69.34c-.24.09-.5.2-.75.32a13.26 13.26 0 0 1 .49.3 10 10 0 0 1 .39.24c-.03-.3-.08-.6-.13-.86zm-2.15 0c-.05.27-.1.56-.12.86a11.7 11.7 0 0 1 .88-.53 8.97 8.97 0 0 0-.76-.33zm1.08.49a10.97 10.97 0 0 0-1.23.75 11.2 11.2 0 0 0 0 1.37 10.56 10.56 0 0 0 1.23.76 9.87 9.87 0 0 0 1.23-.76 11.24 11.24 0 0 0 0-1.37 10.54 10.54 0 0 0-1.23-.75zm0 .75a.69.69 0 0 1 0 1.37.69.69 0 1 1 0-1.37zM4.8 5.9c-.2.15-.38.3-.56.46a9.94 9.94 0 0 0 .56.46v-.46-.46zm3.07 0a11.66 11.66 0 0 1 0 .92l.56-.46c-.18-.15-.36-.31-.56-.46zm-3.85.66c-.17.17-.34.35-.5.54-.45.55-.62 1.03-.46 1.29.1.17.38.25.78.23a.49.49 0 0 1 .9-.16l.23-.08a9.5 9.5 0 0 1-.15-1.18c-.28-.2-.54-.41-.8-.64zm4.63 0c-.25.23-.52.45-.8.64-.02.4-.08.8-.15 1.18.99.33 1.72.32 1.92 0 .1-.19.04-.5-.2-.9a.47.47 0 0 1-.15.03.49.49 0 0 1-.49-.49.49.49 0 0 1 .08-.25 7.19 7.19 0 0 0-.21-.2zm-3.51.86a9.04 9.04 0 0 0 .12.87l.76-.32a41.45 41.45 0 0 0-.88-.55zm2.4 0a8.79 8.79 0 0 1-.88.54 8.73 8.73 0 0 0 .75.32c.05-.26.1-.55.13-.86zm-1.2.7c-.33.17-.67.33-1.01.45.24 1.02.64 1.64 1 1.64.38 0 .77-.6 1.02-1.63a9.5 9.5 0 0 1-1.01-.45z" fill="#ff7f2a"/></svg>