<svg xmlns="http://www.w3.org/2000/svg" width="48" height="48" viewBox="0 0 12.7 12.7"><path d="M6.34.07a6.29 6.29 0 0 0-6.29 6.3 6.29 6.29 0 0 0 6.3 6.28 6.29 6.29 0 0 0 6.28-6.29A6.29 6.29 0 0 0 6.34.07zm-.01.94a5.4 5.4 0 0 1 5.4 5.4 5.4 5.4 0 0 1-5.4 5.41 5.4 5.4 0 0 1-5.41-5.4A5.4 5.4 0 0 1 6.32 1zM2.38 4.37v3.96H3.7v-.56h-.37V4.93h.37v-.56H2.38zm1.7 0v.56h.57v-.56h-.57zm1.51 0l1.9 3.96h1.13l-1.9-3.96H5.6zm3.6 0L8.11 6.86l.6 1.25 1.6-3.74H9.18zm-3.6.4v3.56h.76V6.36l-.76-1.59zm4.73.06L9.56 6.6v1.73h.76v-3.5zM4.08 7.77v.56h.57v-.56h-.57z" fill="#ff7f2a"/></svg>