<svg xmlns="http://www.w3.org/2000/svg" width="48" height="48" viewBox="0 0 12.7 12.7"><path d="M6.34.07a6.29 6.29 0 0 0-6.29 6.3 6.29 6.29 0 0 0 6.3 6.28 6.29 6.29 0 0 0 6.28-6.29A6.29 6.29 0 0 0 6.34.07zm-.01.94a5.4 5.4 0 0 1 5.4 5.4 5.4 5.4 0 0 1-5.4 5.41 5.4 5.4 0 0 1-5.41-5.4A5.4 5.4 0 0 1 6.32 1zM3.3 2.78l.72 1.08a3.36 3.36 0 0 0 3.42 5.66l1.96.4-.72-1.08a3.36 3.36 0 0 0-2.22-5.9 3.35 3.35 0 0 0-1.2.24l-1.96-.4zm3.23 1a2.52 2.52 0 0 1 1.68 4.36l-.9-1.37-.45 2.06A2.52 2.52 0 0 1 4.5 4.56l.9 1.37.44-2.06c.23-.06.47-.1.7-.09z" fill="#ff7f2a"/></svg>