<svg xmlns="http://www.w3.org/2000/svg" width="48" height="48" viewBox="0 0 12.7 12.7"><path fill="#ff7f2a" d="M6.34.07a6.29 6.29 0 0 0-6.29 6.3 6.29 6.29 0 0 0 6.3 6.28 6.29 6.29 0 0 0 6.28-6.29A6.29 6.29 0 0 0 6.34.07zm-.01.94a5.4 5.4 0 0 1 5.4 5.4 5.4 5.4 0 0 1-5.4 5.41 5.4 5.4 0 0 1-5.41-5.4A5.4 5.4 0 0 1 6.32 1zM8.1 2.57a.48.48 0 0 0-.12.01l-2.86.84-3.31 4.1a.5.5 0 0 0 .1.72l1.26.95 1.28.94 1.27.95a.55.55 0 0 0 .75-.09l2.97-3.66.33-.4.03-.63.13-2.26a.5.5 0 0 0-.21-.41l-1.27-.95a.55.55 0 0 0-.35-.11zm-.19 1.15a.84.84 0 0 1 .52.18.84.84 0 0 1 .15 1.17.84.84 0 0 1-1.17.15.84.84 0 0 1-.15-1.18.84.84 0 0 1 .65-.32zM6.27 5.04h.04c.03 0 .05.02.07.04-.03.43.15.89.38 1.26.33.47.36 1.11.11 1.62 0 0 .07-.24.07-.34.07-.5-.22-.98-.59-1.3-.04-.06-.16-.08-.2 0l-.49 2.51c-.03.46-.48.84-.93.78-.33-.03-.62-.4-.5-.73.16-.44.7-.65 1.14-.53.06.04.18.08.21-.01l.62-3.1c.02-.06 0-.19.07-.2z"/></svg>