<svg xmlns="http://www.w3.org/2000/svg" width="48" height="48" viewBox="0 0 12.7 12.7"><path d="M6.35.083A6.267 6.267 0 0 0 .084 6.35a6.267 6.267 0 0 0 6.268 6.267 6.267 6.267 0 0 0 6.266-6.267A6.267 6.267 0 0 0 6.351.083zm-.017.932a5.388 5.388 0 0 1 5.388 5.39 5.388 5.388 0 0 1-5.388 5.387 5.388 5.388 0 0 1-5.39-5.388 5.388 5.388 0 0 1 5.39-5.389zm2.861 1.633c-.52.008-2.644.234-3.497 3.349C4.99 8.574 3.682 8.589 3.44 8.568v1.48c.245.019 2.388.1 3.381-2.902h1.91V5.558H7.483c.047-.165.43-1.36 1.777-1.414V2.648h-.066z" fill="#ff7f2a"/></svg>