<svg xmlns="http://www.w3.org/2000/svg" width="48" height="48" viewBox="0 0 12.7 12.7"><path d="M6.34.07a6.29 6.29 0 0 0-6.29 6.3 6.29 6.29 0 0 0 6.3 6.28 6.29 6.29 0 0 0 6.28-6.29A6.29 6.29 0 0 0 6.34.07zm-.01.94a5.4 5.4 0 0 1 5.4 5.4 5.4 5.4 0 0 1-5.4 5.41 5.4 5.4 0 0 1-5.41-5.4A5.4 5.4 0 0 1 6.32 1z" fill="#ff7f2a"/><path d="M6.13 1.81v.45l-.37.06a4.18 4.18 0 0 0-3.23 2.6c.02.02.1-.05.18-.13l.16-.17.4.4.4.39.1-.22a2.87 2.87 0 0 1 2.19-1.61h.17l.01.41.02.41.75-.75.75-.75-.76-.77-.77-.77z" fill="purple" opacity=".75"/><path d="M7.92 2.72l.18.17-.4.4-.39.41.18.08c.24.1.63.38.86.6a3 3 0 0 1 .8 1.6v.17l-.42.02-.4.01.74.76.76.75.76-.77.77-.77h-.9l-.03-.2a4.16 4.16 0 0 0-2.63-3.4c-.03 0 .03.07.12.17z" fill="maroon" opacity=".75"/><path d="M2.1 5.83l-.76.76h.89l.06.37c.1.51.2.85.46 1.36A4.44 4.44 0 0 0 4.9 10.2c.03 0-.03-.09-.13-.18l-.17-.19.4-.4.4-.4-.2-.08a2.92 2.92 0 0 1-1.63-2.1l-.03-.26.42-.02.42-.01-.75-.76-.76-.75z" fill="#00f" opacity=".75"/><path d="M8.93 7.53c-.08.26-.5.8-.78 1.02a3.3 3.3 0 0 1-1.3.6l-.28.03-.01-.42-.02-.42-.75.75-.75.76.76.77.77.76v-.89l.2-.04a4.16 4.16 0 0 0 3.4-2.63c.01-.02-.07.03-.17.13l-.18.18-.38-.39a3.6 3.6 0 0 0-.41-.38c-.02 0-.07.08-.1.17z" fill="green" opacity=".75"/></svg>