<svg xmlns="http://www.w3.org/2000/svg" width="48" height="48" viewBox="0 0 12.7 12.7"><path fill="#ff7f2a" d="M6.34.07a6.29 6.29 0 0 0-6.29 6.3 6.29 6.29 0 0 0 6.3 6.28 6.29 6.29 0 0 0 6.28-6.29A6.29 6.29 0 0 0 6.34.07zm-.01.94a5.4 5.4 0 0 1 5.4 5.4 5.4 5.4 0 0 1-5.4 5.41 5.4 5.4 0 0 1-5.41-5.4A5.4 5.4 0 0 1 6.32 1z"/><path fill="purple" d="M6.46 7.68a.34.53 0 1 0 0 1.06h3.12a.34.53 0 1 0 0-1.06zM3.5 3.73a.34.53 45 0 0-.57.82l1.79 1.78-1.8 1.79a.53.34 45 1 0 .75.75l2.21-2.21a.53.34 45 0 0 .05-.09.18.33 0 0 0 .07-.24.18.33 0 0 0-.08-.27.34.53 45 0 0-.04-.06l-2.2-2.2a.34.53 45 0 0-.18-.07z" opacity=".75"/></svg>