<svg xmlns="http://www.w3.org/2000/svg" width="48" height="48" viewBox="0 0 12.7 12.7"><path fill="#ff7f2a" d="M6.34.07a6.29 6.29 0 0 0-6.29 6.3 6.29 6.29 0 0 0 6.3 6.28 6.29 6.29 0 0 0 6.28-6.29A6.29 6.29 0 0 0 6.34.07zm-.01.94a5.4 5.4 0 0 1 5.4 5.4 5.4 5.4 0 0 1-5.4 5.41 5.4 5.4 0 0 1-5.41-5.4A5.4 5.4 0 0 1 6.32 1zm.02 1.64L6 2.66 5.8 3.77a2.65 2.65 0 0 0-.51.17l-.81-.78a3.68 3.68 0 0 0-.57.43l.48 1a2.68 2.68 0 0 0-.31.44l-1.11-.15a3.66 3.66 0 0 0-.22.68l.98.53a2.55 2.55 0 0 0-.02.26l.02.27-.98.52c.06.24.12.46.22.68l1.1-.15c.1.16.2.3.32.43L3.9 9.11c.18.16.36.31.56.43l.81-.78c.17.08.34.13.52.17l.21 1.1a3.77 3.77 0 0 0 .7 0l.21-1.1c.18-.04.35-.1.51-.17l.81.78c.21-.12.39-.27.57-.43l-.48-1c.11-.14.22-.28.31-.44l1.11.15a3.66 3.66 0 0 0 .21-.68l-.97-.53a2.3 2.3 0 0 0 0-.53l.97-.52a3.66 3.66 0 0 0-.21-.68l-1.1.15a2.68 2.68 0 0 0-.32-.43l.48-1.01a3.68 3.68 0 0 0-.57-.43l-.8.78a2.65 2.65 0 0 0-.52-.17l-.21-1.1a3.77 3.77 0 0 0-.35-.02zm0 2.11a1.59 1.59 0 1 1 0 3.18 1.59 1.59 0 0 1 0-3.18z"/></svg>