<svg xmlns="http://www.w3.org/2000/svg" width="48" height="48" viewBox="0 0 12.7 12.7"><path fill="#ff7f2a" d="M6.34.08A6.27 6.27 0 0 0 .08 6.34a6.27 6.27 0 0 0 6.26 6.27 6.27 6.27 0 0 0 6.27-6.27A6.27 6.27 0 0 0 6.34.08zM6.33 1A5.39 5.39 0 0 1 11.7 6.4a5.39 5.39 0 0 1-5.38 5.39 5.39 5.39 0 0 1-5.4-5.4 5.39 5.39 0 0 1 5.4-5.38zM3.65 2.7c-.25 0-.4.04-.45.24L1.98 7.48h8.74L9.4 2.95c-.04-.13-.24-.23-.4-.23H3.65zm2.07.33a.12.12 0 0 1 .06 0c.44.13.83.43 1.01.77.15.27.16.58.08.88.07.21.23.48.53.78l1.5 1.5H7.19l-.64-.64a2.05 2.05 0 0 0-.85-.55c-.56.13-1.11-.08-1.36-.55a1.9 1.9 0 0 1-.08-1.31c0-.02 0-.03.02-.05a.11.11 0 0 1 .09-.03c.03 0 .05.02.07.04l.5.95c.03.09.14.12.28.1a1.22 1.22 0 0 0 .48-.16 1.26 1.26 0 0 0 .4-.33c.08-.12.1-.24.06-.32l-.49-.94c-.02-.04-.01-.08.02-.1.01-.02.02-.04.04-.04zM2 7.78l.19 1.14h8.36l.17-1.14H2z"/></svg>