<svg xmlns="http://www.w3.org/2000/svg" width="48" height="48" viewBox="0 0 12.7 12.7"><defs><linearGradient id="a" x2="0" y1="36" y2="12" gradientTransform="translate(2.65 286.95) scale(.15434)" gradientUnits="userSpaceOnUse"><stop stop-color="#06a370"/><stop offset="1" stop-color="#22d1b0"/></linearGradient></defs><path fill="#ff7f2a" d="M6.34.07a6.29 6.29 0 0 0-6.29 6.3 6.29 6.29 0 0 0 6.3 6.28 6.29 6.29 0 0 0 6.28-6.29A6.29 6.29 0 0 0 6.34.07zm-.01.94a5.4 5.4 0 0 1 5.4 5.4 5.4 5.4 0 0 1-5.4 5.41 5.4 5.4 0 0 1-5.41-5.4A5.4 5.4 0 0 1 6.32 1z"/><path fill="#ff7f2a" d="M6.35 1.32a5.02 5.02 0 0 0-5.03 5.03h1.76a3.26 3.26 0 0 1 3.27-3.27zm3.27 5.03a3.26 3.26 0 0 1-3.27 3.27v1.76a5.02 5.02 0 0 0 5.03-5.03z"/><path fill="#ff7f2a" d="M6.35 3.17a3.17 3.17 0 0 0-3.17 3.18 3.17 3.17 0 1 0 6.35 0H8.21a1.86 1.86 0 0 1-1.87 1.87 1.86 1.86 0 0 1-1.87-1.87c0-1.03.83-1.87 1.87-1.87z" opacity=".75"/><path fill="url(#a)" d="M6.35 288.8a1.85 1.85 0 0 0-1.85 1.85 1.85 1.85 0 1 0 3.7 0 1.85 1.85 0 0 0-1.85-1.85m0 .77c.6 0 1.08.48 1.08 1.08 0 .6-.48 1.08-1.08 1.08-.6 0-1.08-.48-1.08-1.08 0-.6.48-1.08 1.08-1.08" opacity=".7" transform="translate(0 -284.3)"/></svg>