<svg xmlns="http://www.w3.org/2000/svg" width="48" height="48" viewBox="0 0 12.7 12.7"><path fill="#ff7f2a" d="M6.34.07a6.29 6.29 0 0 0-6.29 6.3 6.29 6.29 0 0 0 6.3 6.28 6.29 6.29 0 0 0 6.28-6.29A6.29 6.29 0 0 0 6.34.07zm-.01.94a5.4 5.4 0 0 1 5.4 5.4 5.4 5.4 0 0 1-5.4 5.41 5.4 5.4 0 0 1-5.41-5.4A5.4 5.4 0 0 1 6.32 1zM3 3.32c-.55 0-1 .19-1 .4v5.25c0 .22.45.4 1 .4.56 0 1.01-.17 1.01-.4V7.6H5.4v1.32c0 .24.7.44 1.58.44h2.13c.88 0 1.58-.2 1.58-.44V3.77c0-.25-.7-.44-1.58-.44H6.98c-.88 0-1.58.2-1.58.44v1.87H4.02V3.73c0-.22-.45-.4-1-.4zm3.14.74h3.87v2.96H7.39v.62h2.63V8.8H6.15V5.85h2.7v-.62h-2.7V4.06z"/></svg>