<?xml version="1.0" encoding="UTF-8" standalone="no"?>
<svg
   xmlns:dc="http://purl.org/dc/elements/1.1/"
   xmlns:cc="http://creativecommons.org/ns#"
   xmlns:rdf="http://www.w3.org/1999/02/22-rdf-syntax-ns#"
   xmlns:svg="http://www.w3.org/2000/svg"
   xmlns="http://www.w3.org/2000/svg"
   xmlns:sodipodi="http://sodipodi.sourceforge.net/DTD/sodipodi-0.dtd"
   xmlns:inkscape="http://www.inkscape.org/namespaces/inkscape"
   width="48"
   height="48"
   viewBox="0 0 12.7 12.7"
   version="1.1"
   id="svg4"
   sodipodi:docname="k9-copy.svg"
   inkscape:version="0.92.4 (5da689c313, 2019-01-14)">
  <metadata
     id="metadata10">
    <rdf:RDF>
      <cc:Work
         rdf:about="">
        <dc:format>image/svg+xml</dc:format>
        <dc:type
           rdf:resource="http://purl.org/dc/dcmitype/StillImage" />
        <dc:title></dc:title>
      </cc:Work>
    </rdf:RDF>
  </metadata>
  <defs
     id="defs8" />
  <sodipodi:namedview
     pagecolor="#ffffff"
     bordercolor="#666666"
     borderopacity="1"
     objecttolerance="10"
     gridtolerance="10"
     guidetolerance="10"
     inkscape:pageopacity="0"
     inkscape:pageshadow="2"
     inkscape:window-width="1087"
     inkscape:window-height="480"
     id="namedview6"
     showgrid="false"
     inkscape:zoom="4.9166667"
     inkscape:cx="2.1355932"
     inkscape:cy="24"
     inkscape:window-x="0"
     inkscape:window-y="25"
     inkscape:window-maximized="0"
     inkscape:current-layer="svg4" />
  <path
     style="color:#bebebe;font-weight:400;font-family:sans-serif;font-variant-ligatures:normal;font-variant-position:normal;font-variant-caps:normal;font-variant-numeric:normal;font-variant-alternates:normal;font-feature-settings:normal;text-indent:0;text-decoration:none;text-decoration-line:none;text-decoration-style:solid;text-decoration-color:#000000;text-transform:none;text-orientation:mixed;white-space:normal;shape-padding:0;overflow:visible;isolation:auto;mix-blend-mode:normal;fill:#ff7f2a"
     d="M 6.34,0.07 A 6.28,6.28 0 0 0 0.1,6.33 6.28,6.28 0 0 0 7.48,12.47 3.67,3.67 0 0 1 6.59,11.57 3.62,3.62 0 0 1 6.04,8.95 2.62,2.62 0 0 1 3.67,6.33 c 0,-1.5 1.18,-2.68 2.68,-2.68 A 2.62,2.62 0 0 1 8.96,6 3.54,3.54 0 0 1 10.3,6.01 3.57,3.57 0 0 1 12.49,7.44 6.28,6.28 0 0 0 6.35,0.07 Z m 0,4.47 A 1.79,1.79 0 0 0 6.28,8.1 3.63,3.63 0 0 1 8.12,6.26 1.79,1.79 0 0 0 6.34,4.54 Z m 0,0.9 c 0.5,0 0.9,0.39 0.9,0.89 a 0.89,0.89 0 0 1 -0.9,0.9 0.89,0.89 0 0 1 -0.89,-0.9 c 0,-0.5 0.4,-0.9 0.9,-0.9 z M 9.57,6.48 A 3.1,3.1 0 0 0 6.5,9.56 3.1,3.1 0 0 0 9.58,12.64 3.1,3.1 0 0 0 12.66,9.56 3.1,3.1 0 0 0 9.58,6.48 Z m 0,1.76 c 0.74,0 1.32,0.58 1.32,1.32 A 1.3,1.3 0 0 1 9.57,10.88 1.3,1.3 0 0 1 8.25,9.56 c 0,-0.74 0.58,-1.32 1.32,-1.32 z m 0,0.44 c -0.48,0 -0.88,0.4 -0.88,0.88 0,0.48 0.4,0.88 0.88,0.88 0.49,0 0.88,-0.4 0.88,-0.88 0,-0.49 -0.4,-0.88 -0.88,-0.88 z m 0,0.44 c 0.25,0 0.44,0.2 0.44,0.44 A 0.44,0.44 0 0 1 9.57,10 0.44,0.44 0 0 1 9.13,9.56 c 0,-0.25 0.2,-0.44 0.44,-0.44 z"
     font-weight="400"
     overflow="visible"
     id="path2"
     inkscape:connector-curvature="0" />
</svg>
