<svg xmlns="http://www.w3.org/2000/svg" width="48" height="48" viewBox="0 0 12.7 12.7"><path fill="#ff7f2a" d="M6.34.07a6.29 6.29 0 0 0-6.29 6.3 6.29 6.29 0 0 0 6.3 6.28 6.29 6.29 0 0 0 6.28-6.29A6.29 6.29 0 0 0 6.34.07zm-.01.94a5.4 5.4 0 0 1 5.4 5.4 5.4 5.4 0 0 1-5.4 5.41 5.4 5.4 0 0 1-5.41-5.4A5.4 5.4 0 0 1 6.32 1zM2.28 3.18v6.34h8.14V3.18H2.29zm.9.9H5.9V5H3.18v-.9zm3.62 0h2.72V5H6.8v-.9zM3.18 5.9H5.9v.9H3.18v-.9zm3.62 0h2.72v.9H6.8v-.9zM3.18 7.7H5.9v.91H3.18v-.9zm3.62 0h2.72v.91H6.8v-.9z"/></svg>