<svg xmlns="http://www.w3.org/2000/svg" width="48" height="48" viewBox="0 0 12.7 12.7"><path fill="#ff7f2a" d="M6.34.07a6.29 6.29 0 0 0-6.29 6.3 6.29 6.29 0 0 0 6.3 6.28 6.29 6.29 0 0 0 6.28-6.29A6.29 6.29 0 0 0 6.34.07zm-.01.94a5.4 5.4 0 0 1 5.4 5.4 5.4 5.4 0 0 1-5.4 5.41 5.4 5.4 0 0 1-5.41-5.4A5.4 5.4 0 0 1 6.32 1zM4.2 3.16c-.02 0-.04.01-.06.04-.04 0-.06.02-.07.05l-.7 4.01-.87-2.34c-.02-.06-.2.04-.4.22l-.07.07c-.2.17-.34.36-.32.4l1.35 3.61c.05.1.18.2.36.26l.08.04c.22.09.41.1.42 0l.95-5.45h5.4c.08 0 .15-.18.15-.4v-.1c0-.22-.07-.4-.16-.4H4.2zm2.29 2.1h-.03a.9.9 0 0 0-.32.23l-.06.06c-.16.17-.26.33-.22.37L6.95 7 5.86 8.08c-.04.04.06.2.22.37l.06.06c.16.16.33.26.37.22l1.08-1.08 1.08 1.08c.04.04.2-.06.37-.22l.06-.06c.16-.16.26-.33.22-.37L8.23 7l1.09-1.08c.04-.04-.06-.2-.22-.37l-.06-.06c-.16-.16-.33-.26-.37-.21L7.6 6.36 6.5 5.28a.03.03 0 0 0-.02-.01z"/></svg>