<svg xmlns="http://www.w3.org/2000/svg" width="48" height="48" viewBox="0 0 12.7 12.7"><path fill="#ff7f2a" d="M6.34.07a6.29 6.29 0 0 0-6.29 6.3 6.29 6.29 0 0 0 6.3 6.28 6.29 6.29 0 0 0 6.28-6.29A6.29 6.29 0 0 0 6.34.07zm-.01.94a5.4 5.4 0 0 1 5.4 5.4 5.4 5.4 0 0 1-5.4 5.41 5.4 5.4 0 0 1-5.41-5.4A5.4 5.4 0 0 1 6.32 1zM2.29 3.62a.11.11 0 0 0 0 .22h5.38a.11.11 0 1 0 0-.22H2.3zm6.36.32v2.39h2.39c0-1.6-.8-2.4-2.4-2.4zm-.81.71a2.48 2.47 0 0 0-2.47 2.48A2.48 2.47 0 0 0 7.86 9.6a2.48 2.47 0 0 0 2.47-2.48H7.85l-.01-2.47zm-5.54.1a.11.11 0 0 0 0 .22h3.57a.11.11 0 0 0 .11-.11.11.11 0 0 0-.1-.11H2.3zm0 1.12a.11.11 0 1 0 0 .22h2.69a.11.11 0 1 0 0-.22h-2.7zM2.3 7a.11.11 0 0 0 0 .22h2.55a.11.11 0 1 0 0-.22H2.3z"/></svg>