<svg xmlns="http://www.w3.org/2000/svg" width="48" height="48" viewBox="0 0 12.7 12.7"><path fill="#ff7f2a" d="M6.34.07a6.29 6.29 0 0 0-6.29 6.3 6.29 6.29 0 0 0 6.3 6.28 6.29 6.29 0 0 0 6.28-6.29A6.29 6.29 0 0 0 6.34.07zm-.01.94a5.4 5.4 0 0 1 5.4 5.4 5.4 5.4 0 0 1-5.4 5.41 5.4 5.4 0 0 1-5.41-5.4A5.4 5.4 0 0 1 6.32 1zM3.68 2.5l-.88.89.01 5.2h1.76V3.4l-.9-.89zm5.32 0l-.88.89.01 5.2H9.9V3.4l-.9-.89zm-3.2 0a.33.33 0 0 0-.32.34v.86h1.76v-.86a.33.33 0 0 0-.33-.33H5.8zm-.33 1.7l-.01 5.2.88.88.88-.88.02-5.2H5.47zm-.9 4.88H2.82v.87c0 .18.16.33.34.33h1.1c.18 0 .33-.15.33-.34V9.1zm5.33 0H8.13v.87c0 .18.16.33.34.33h1.1c.18 0 .33-.15.33-.34V9.1z"/></svg>