<svg xmlns="http://www.w3.org/2000/svg" width="48" height="48" viewBox="0 0 12.7 12.7"><path d="M6.34.07a6.29 6.29 0 0 0-6.29 6.3 6.29 6.29 0 0 0 6.3 6.28 6.29 6.29 0 0 0 6.28-6.29A6.29 6.29 0 0 0 6.34.07zm-.01.94a5.4 5.4 0 0 1 5.4 5.4 5.4 5.4 0 0 1-5.4 5.41 5.4 5.4 0 0 1-5.41-5.4A5.4 5.4 0 0 1 6.32 1zM3 3.2c-.15 0-.38 0-.38.04v6.22l.04.01H9.7c.12-.01.3.04.38-.03V3.52c0-.17 0-.3-.04-.3H3zm.06.15h.6v.6h-.6v-.6zm1.2 0h.6v.6h-.6v-.6zm1.2 0h.6v.6h-.6v-.6zm1.19 0h.6v.6h-.6v-.6zm1.2 0h.6v.6h-.6v-.6zm1.19 0h.6v.6h-.6v-.6zm.75.74v4.5H2.9V4.1H9.8zM6.36 5.11a1.28 1.28 0 0 0 0 2.56 1.28 1.28 0 0 0 0-2.56zm-.23.63a.12.12 0 0 1 .01 0 .12.12 0 0 1 .07.03l.76.52a.12.12 0 0 1 0 .2l-.76.53a.12.12 0 0 1-.13 0 .12.12 0 0 1-.07-.1V5.86a.12.12 0 0 1 .12-.13zm-3.07 3h.6v.6h-.6v-.6zm1.2 0h.6v.6h-.6v-.6zm1.2 0h.6v.6h-.6v-.6zm1.19 0h.6v.6h-.6v-.6zm1.2 0h.6v.6h-.6v-.6zm1.19 0h.6v.6h-.6v-.6z" fill="#ff7f2a"/></svg>