<?xml version="1.0" encoding="UTF-8" standalone="no"?><svg xmlns:dc="http://purl.org/dc/elements/1.1/" xmlns:cc="http://creativecommons.org/ns#" xmlns:rdf="http://www.w3.org/1999/02/22-rdf-syntax-ns#" xmlns="http://www.w3.org/2000/svg" width="48" height="48" viewBox="0 0 12.7 12.7"><metadata><rdf:RDF><cc:Work><dc:format>image/svg+xml</dc:format><dc:type rdf:resource="http://purl.org/dc/dcmitype/StillImage"/><dc:title/></cc:Work></rdf:RDF></metadata><path d="M6.34.07a6.29 6.29 0 0 0-6.28 6.3 6.29 6.29 0 0 0 6.28 6.28 6.29 6.29 0 0 0 6.3-6.29A6.29 6.29 0 0 0 6.33.07zm-.01.94a5.4 5.4 0 0 1 5.4 5.4 5.4 5.4 0 0 1-5.4 5.41 5.4 5.4 0 0 1-5.41-5.4A5.4 5.4 0 0 1 6.32 1zm-.86 3.04c-1.97.17-3.66 1.83-3.66 1.83s.96 2.84 3.7 3.1l.34.03c1.44 0 3.96-.76 5.05-1.68-.16-.16-.91-.54-1.1-.7-1.15 1-2.34 1.87-3.98 1.87l-.32-.03C3.5 8.22 2.82 6 2.82 6s.88-1.34 2.65-1.49h.13c1.62-.05 2.72 1.4 2.72 1.4s-1.17 1.6-2.4 1.6c-.17 0-.31-.05-.45-.1-.85-.28-1.13-1.29-1.13-1.29s.4-.44.91-.5h.22c.6.08.74.4 1.1 1l.86-.72S6.8 5.1 5.76 5.1c-.1 0-.2.02-.29.03-1.2.13-1.92.95-1.92.95s.4 1.56 1.92 1.83c.13.02.27.03.41.03 1.76 0 3.45-2.05 3.45-2.05S7.86 3.98 5.6 4.05h-.13zM7.23 6.4v.01h.04v-.01h-.04z" fill="#ff7f2a"/></svg>