<svg xmlns="http://www.w3.org/2000/svg" width="48" height="48" viewBox="0 0 12.7 12.7"><defs><linearGradient id="a" x1="29.088" x2="29.088" y1="2.582" y2="64.479" gradientUnits="userSpaceOnUse" gradientTransform="matrix(.61733 0 0 .61733 5.558 2.832)"><stop stop-color="#fd3535" offset="0"/><stop stop-color="#e43030" offset=".639"/><stop stop-color="#d41919" offset=".639"/><stop stop-color="#bf1717" offset="1"/></linearGradient></defs><path d="M17.121 4.959a20.436 20.436 0 011.344-.447 20.436 20.436 0 011.994-.448 20.436 20.436 0 012.027-.246 20.436 20.436 0 011.446-.05 20.436 20.436 0 012.04.101 20.436 20.436 0 012.02.307 20.436 20.436 0 011.979.504 20.436 20.436 0 01.902.33V3.348H17.121v1.611z" transform="scale(.26458)" clip-rule="evenodd" opacity=".7" fill="url(#a)" fill-rule="evenodd"/><path d="M9.87 38.998a20.436 20.436 0 00.896.836 20.436 20.436 0 001.627 1.236 20.436 20.436 0 001.742 1.069 20.436 20.436 0 001.838.888 20.436 20.436 0 001.92.702 20.436 20.436 0 001.978.503 20.436 20.436 0 002.02.307 20.436 20.436 0 002.04.102 20.436 20.436 0 001.448-.051 20.436 20.436 0 002.027-.246 20.436 20.436 0 001.992-.45 20.436 20.436 0 001.94-.642 20.436 20.436 0 001.865-.836 20.436 20.436 0 001.772-1.016 20.436 20.436 0 001.66-1.19 20.436 20.436 0 001.484-1.302l-7.248-10.285.002-23.613a20.436 20.436 0 00-.902-.33 20.436 20.436 0 00-1.979-.504 20.436 20.436 0 00-2.02-.307 20.436 20.436 0 00-2.04-.101 20.436 20.436 0 00-1.446.05 20.436 20.436 0 00-2.027.246 20.436 20.436 0 00-1.994.448 20.436 20.436 0 00-1.344.447v23.89L9.87 38.999z" transform="scale(.26458)" clip-rule="evenodd" opacity=".7" fill="url(#a)" fill-rule="evenodd"/><path d="M8.031 41.568a23.773 23.773 0 001.198 1.053 23.773 23.773 0 001.933 1.381 23.773 23.773 0 001.133.65H35.73a23.773 23.773 0 001.692-1.037 23.773 23.773 0 001.892-1.44 23.773 23.773 0 00.668-.622l-1.863-2.645a20.436 20.436 0 01-1.484 1.303 20.436 20.436 0 01-1.66 1.19 20.436 20.436 0 01-1.772 1.015 20.436 20.436 0 01-1.865.836 20.436 20.436 0 01-1.94.643 20.436 20.436 0 01-1.992.449 20.436 20.436 0 01-2.027.246 20.436 20.436 0 01-1.447.05 20.436 20.436 0 01-2.041-.1 20.436 20.436 0 01-2.02-.308 20.436 20.436 0 01-1.978-.503 20.436 20.436 0 01-1.92-.702 20.436 20.436 0 01-1.838-.888 20.436 20.436 0 01-1.742-1.069 20.436 20.436 0 01-1.627-1.236 20.436 20.436 0 01-.897-.836l-1.838 2.57z" transform="scale(.26458)" clip-rule="evenodd" opacity=".7" fill="url(#a)" fill-rule="evenodd"/><path d="M6.35.061A6.29 6.29 0 00.061 6.35a6.29 6.29 0 006.289 6.289 6.29 6.29 0 006.289-6.289A6.29 6.29 0 006.35.061zm-.018.936a5.407 5.407 0 015.407 5.407 5.407 5.407 0 01-5.407 5.407A5.407 5.407 0 01.925 6.404 5.407 5.407 0 016.332.997zm-.162.685c-.077-.026-.176.089-.204.147-.049.096-.077.32-.049.406.03.087.106.154.106.232 0 .077.01.135-.077.232-.085.094-.261.105-.422.187a.078.078 0 00-.032.03c-.062.1-.063.425-.075.633-.004.057.006.118.007.175a1.99 1.99 0 010 .134c-.004.08-.022.16-.03.241a.389.389 0 00.008.116l.055.243c.03.13.06.261.104.387.005.014.01.028.02.04.02.022.059.02.083.041a.17.17 0 01.046.071c.02.054.016.113.034.167.048.145.212.792.26 1.062.025.14.05.449.076.728.012.124.033.242.04.337.007.106.003.187.002.21-.005.082.039.013.048.069.004.022-.015.04-.047.073-.088.09-.203.183-.254.245-.044.056-.087.113-.004.135a.068.068 0 00-.013.048c.005.044.031.057.064.078.045.03.156.082.167.12.005.017-.018.003-.038.018-.006.004-.034.075-.043.09a2.254 2.254 0 00-.118.196.874.874 0 01-.09.147c-.122.153-.236.315-.362.464a.22.22 0 01-.125.067l-.043.008a.2.2 0 00-.065.028c-.006.004-.23.232-.318.306a.089.089 0 00-.03.058c-.003.02.002.033.004.05a.362.362 0 01-.019.162c-.007.02-.02.039-.027.058a.414.414 0 00-.02.087c-.011.064-.025.126-.03.19a.335.335 0 00.008.122c.005.02.015.039.034.054.02.014.134.028.165.029.108.004.226.005.331.014.083.007.169.015.243.028a.893.893 0 01.237.078c.052.026.066.06.076.094.01.036-.026.09-.057.108-.022.012-.173.084-.21.103a.376.376 0 00-.136.136.479.479 0 00.002.255c.022.06.059.109.117.152a.88.88 0 00.445.141c.025 0 .133-.006.186.001.027.004.062.012.089.015a.839.839 0 00.225.008c.09-.012.19-.04.266-.066a.829.829 0 00.247-.13c.074-.059.084-.106.075-.186-.008-.08-.167-.247-.224-.308-.044-.046-.167-.161-.174-.176-.006-.015-.007-.015.004-.027.011-.013.252-.126.325-.14.033-.007.457-.02.567-.027.08-.006.215-.025.266-.097a.603.603 0 00.074-.302c-.012-.055-.077-.283-.047-.318.029-.034.035-.047.034-.07-.002-.026-.017-.08-.021-.119-.004-.04-.03-.102-.038-.145-.01-.042-.052-.112-.108-.11-.06.005-.05.028-.102-.012a.565.565 0 01-.147-.173c-.035-.068-.146-.27-.158-.304-.01-.03-.063-.164-.07-.195a1.753 1.753 0 01-.016-.217c0-.05-.03-.09 0-.101.03-.01.114-.065.119-.131a.075.075 0 00-.019-.06.111.111 0 00.02-.043c.02-.078-.129-.281-.157-.349-.013-.03-.029-.081-.02-.114.002-.01.016.001.025-.011a.503.503 0 00-.009-.154 4.026 4.026 0 01-.045-.34c-.002-.065-.014-.452-.023-.539-.01-.087-.065-.48-.057-.645.019-.332 0-1.044.02-1.092.019-.049.096-.03.134-.078.039-.048.03-.077.039-.164a.864.864 0 00-.029-.28.78.78 0 010-.261c.01-.087-.068-.107-.116-.164-.048-.058.01-.455-.01-.59l-.007-.05a6.77 6.77 0 00-.048-.256c-.012-.057-.02-.12-.04-.174-.032-.092-.168-.104-.249-.128a6.392 6.392 0 00-.242-.069c-.039-.01-.154-.106-.164-.154-.01-.049.183-.329.173-.503a.32.32 0 00-.132-.225.294.294 0 00-.092-.052c-.045-.013-.081.023-.124.014-.016-.003-.03-.014-.044-.019zm.3 3.715c.01.002.019.013.026.03.013.036.068.27.074.358.01.132.06.433.058.549-.003.115.054.497.067.564.014.067.024.172.031.286.008.113 0 .252-.002.352 0 .04.032.027.021.055-.016.042-.037.201-.02.23a.268.268 0 00.016.023.067.067 0 00-.025.046c-.006.066.061.175.022.185-.027.008-.023.03-.024.074a4.66 4.66 0 000 .3c.005.047-.005.092-.008.139-.007.102-.038.246-.07.27a.147.147 0 01-.092.028.102.102 0 01-.072-.039c-.083-.116-.028-.312.01-.461.001-.009-.015-.017-.013-.025.013-.047.056-.066.063-.103.023-.124-.015-.142-.094-.174-.034-.014-.099-.015-.134-.025a1.34 1.34 0 01-.134-.06s.093-.054.142-.064c.048-.01.146-.049.194-.064.074-.024.071-.063.079-.138.007-.069-.051-.144-.057-.207-.003-.035.037-.011.034-.042-.006-.062.025-.205.013-.31-.018-.16-.071-.34-.08-.459-.003-.052-.03-.31-.04-.583-.003-.09.007-.182.007-.268-.002-.24-.043-.43-.03-.445.014-.017.027-.024.037-.022z" clip-rule="evenodd" fill="#ff7f2a" fill-rule="evenodd"/></svg>
