<?xml version="1.0" encoding="UTF-8" standalone="no"?>
<svg
   xmlns:dc="http://purl.org/dc/elements/1.1/"
   xmlns:cc="http://creativecommons.org/ns#"
   xmlns:rdf="http://www.w3.org/1999/02/22-rdf-syntax-ns#"
   xmlns:svg="http://www.w3.org/2000/svg"
   xmlns="http://www.w3.org/2000/svg"
   xmlns:sodipodi="http://sodipodi.sourceforge.net/DTD/sodipodi-0.dtd"
   xmlns:inkscape="http://www.inkscape.org/namespaces/inkscape"
   width="48"
   height="48"
   viewBox="0 0 12.7 12.7"
   version="1.1"
   id="svg4"
   sodipodi:docname="preferences-other.svg"
   inkscape:version="0.92.4 (5da689c313, 2019-01-14)">
  <metadata
     id="metadata10">
    <rdf:RDF>
      <cc:Work
         rdf:about="">
        <dc:format>image/svg+xml</dc:format>
        <dc:type
           rdf:resource="http://purl.org/dc/dcmitype/StillImage" />
        <dc:title></dc:title>
      </cc:Work>
    </rdf:RDF>
  </metadata>
  <defs
     id="defs8" />
  <sodipodi:namedview
     pagecolor="#ffffff"
     bordercolor="#666666"
     borderopacity="1"
     objecttolerance="10"
     gridtolerance="10"
     guidetolerance="10"
     inkscape:pageopacity="0"
     inkscape:pageshadow="2"
     inkscape:window-width="1087"
     inkscape:window-height="480"
     id="namedview6"
     showgrid="false"
     inkscape:zoom="4.9166667"
     inkscape:cx="2.1355932"
     inkscape:cy="24"
     inkscape:window-x="0"
     inkscape:window-y="25"
     inkscape:window-maximized="0"
     inkscape:current-layer="svg4" />
  <path
     d="M 6.344,0.079 A 6.267,6.267 0 0 0 0.076,6.346 6.267,6.267 0 0 0 6.344,12.612 6.267,6.267 0 0 0 12.611,6.346 6.267,6.267 0 0 0 10.991,2.151 L 11.125,1.644 A 0.463,0.463 0 0 0 10.793,1.075 L 10.667,1.042 A 0.463,0.463 0 0 0 10.11,1.344 6.267,6.267 0 0 0 6.344,0.08 Z M 6.326,1.011 a 5.388,5.388 0 0 1 3.52,1.312 L 9.453,3.805 A 0.46,0.46 0 0 0 9.585,4.261 L 9.421,4.874 C 9.384,4.858 9.331,4.858 9.281,4.854 L 9.053,4.626 a 0.166,0.166 0 0 0 -0.234,0 L 8.704,4.741 8.388,3.777 C 8.3,3.507 8.288,3.304 8.305,3.157 A 0.787,0.787 0 0 0 8.528,2.61 C 8.524,2.351 8.376,2.057 8.163,1.849 A 0.068,0.068 0 0 0 8.091,1.835 0.064,0.064 0 0 0 8.051,1.895 L 8.059,2.6 C 8.06,2.663 8.009,2.72 7.926,2.764 A 0.811,0.811 0 0 1 7.596,2.847 0.761,0.761 0 0 1 7.266,2.802 C 7.181,2.766 7.127,2.714 7.126,2.651 L 7.116,1.943 c 0,-0.02 -0.01,-0.038 -0.027,-0.049 A 0.075,0.075 0 0 0 7.03,1.888 V 1.889 A 0.07,0.07 0 0 0 7.003,1.907 C 6.795,2.138 6.657,2.45 6.661,2.708 6.666,3.061 6.928,3.348 7.289,3.442 7.399,3.547 7.524,3.725 7.622,4.025 L 7.68,4.201 H 7.191 c -0.09,0 -0.16,0.069 -0.16,0.16 V 4.756 C 6.956,4.779 6.888,4.814 6.817,4.846 H 6.633 L 6.411,4.624 a 0.166,0.166 0 0 0 -0.234,0 L 5.955,4.847 H 5.151 C 5.237,4.649 5.331,4.503 5.42,4.416 A 0.784,0.784 0 0 0 5.933,4.124 C 6.09,3.919 6.157,3.596 6.116,3.299 A 0.066,0.066 0 0 0 6.068,3.245 0.064,0.064 0 0 0 5.998,3.266 l -0.43,0.56 C 5.53,3.876 5.454,3.889 5.361,3.872 A 0.828,0.828 0 0 1 5.049,3.732 0.788,0.788 0 0 1 4.815,3.489 C 4.77,3.409 4.76,3.334 4.799,3.284 L 5.229,2.722 A 0.057,0.057 0 0 0 5.237,2.667 0.072,0.072 0 0 0 5.193,2.626 V 2.625 A 0.062,0.062 0 0 0 5.16,2.623 C 4.853,2.674 4.55,2.833 4.393,3.039 4.179,3.319 4.209,3.709 4.437,4.008 4.459,4.158 4.447,4.377 4.34,4.673 L 4.277,4.847 H 3.255 c -0.099,0 -0.138,0.002 -0.197,0.002 L 2.868,4.175 2.908,3.996 A 0.117,0.117 0 0 0 2.9,3.916 L 2.625,3.366 A 0.117,0.117 0 0 0 2.488,3.305 L 2.186,3.39 A 0.117,0.117 0 0 0 2.101,3.514 L 2.16,4.13 A 0.117,0.117 0 0 0 2.195,4.203 L 2.32,4.325 2.616,5.37 2.186,6.364 V 9.841 A 5.388,5.388 0 0 1 0.938,6.398 5.388,5.388 0 0 1 6.328,1.009 Z m 4.37,2.248 A 5.388,5.388 0 0 1 11.714,6.4 5.388,5.388 0 0 1 10.13,10.212 V 6.366 L 9.81,5.623 10.133,4.408 A 0.465,0.465 0 0 0 10.48,4.073 Z m -7.25,1.702 h 0.79 L 3.726,6.363 H 3.468 c 0,-0.014 0.004,-0.027 10e-4,-0.042 A 0.117,0.117 0 0 0 3.471,6.307 L 3.167,5.232 3.196,5.142 a 0.309,0.309 0 0 1 0.09,-0.145 c 0.027,-0.02 0.06,-0.036 0.16,-0.036 z m 1.652,0 H 5.841 L 5.585,5.218 a 0.166,0.166 0 0 0 0,0.233 L 5.863,5.728 A 1.989,1.989 0 0 0 5.717,6.071 H 5.323 c -0.091,0 -0.16,0.07 -0.16,0.161 v 0.13 H 4.59 Z m 2.517,0.994 c 0.282,0 0.521,0.168 0.633,0.408 H 6.982 A 0.698,0.698 0 0 1 7.615,5.955 Z M 2.851,6.204 2.896,6.363 H 2.8 Z m 0.546,4.712 H 9.261 A 5.388,5.388 0 0 1 6.326,11.788 5.388,5.388 0 0 1 3.397,10.916 Z"
     id="path2"
     inkscape:connector-curvature="0"
     style="fill:#ff7f2a" />
</svg>
