<svg xmlns="http://www.w3.org/2000/svg" width="48" height="48" viewBox="0 0 12.7 12.7"><path fill="#ff7f2a" d="M6.34.07a6.29 6.29 0 0 0-6.29 6.3 6.29 6.29 0 0 0 6.3 6.28 6.29 6.29 0 0 0 6.28-6.29A6.29 6.29 0 0 0 6.34.07zm-.01.94a5.4 5.4 0 0 1 5.4 5.4 5.4 5.4 0 0 1-5.4 5.41 5.4 5.4 0 0 1-5.41-5.4A5.4 5.4 0 0 1 6.32 1zm.7 2.15A1.94 1.94 0 0 0 5.3 4.24a1.32 1.32 0 0 0-.72-.22 1.36 1.36 0 0 0-1.3 1.73 2.08 2.08 0 0 0-.9 1.72c0 1.15.9 2.07 2.03 2.07h3.88c1.13 0 2.03-.92 2.03-2.07a2.06 2.06 0 0 0-1.38-1.96 1.96 1.96 0 0 0-1.91-2.35z"/></svg>