<svg xmlns="http://www.w3.org/2000/svg" width="48" height="48" viewBox="0 0 12.7 12.7"><path fill="#ff7f2a" d="M6.34.07a6.29 6.29 0 0 0-6.29 6.3 6.29 6.29 0 0 0 6.3 6.28 6.29 6.29 0 0 0 6.28-6.29A6.29 6.29 0 0 0 6.34.07zm-.01.94a5.4 5.4 0 0 1 5.4 5.4 5.4 5.4 0 0 1-5.4 5.41 5.4 5.4 0 0 1-5.41-5.4A5.4 5.4 0 0 1 6.32 1z"/><path fill="teal" d="M5.53 1.85c-.68 0-1.23.55-1.23 1.23v.82h2.05v.4H3.49c-.9 0-1.64.74-1.64 1.64v.82c0 .9.73 1.63 1.64 1.63v-.81a1.63 1.63 0 0 1 1.38-1.61c.08-.02.16-.03.25-.03h2.96c.2-.22.31-.5.31-.82V3.08c0-.68-.54-1.23-1.22-1.23zm-.06.58a.42.43 0 0 1 .41.43.42.43 0 0 1-.41.44.42.43 0 0 1-.42-.44.42.43 0 0 1 .42-.43z" opacity=".75"/><path fill="#d4aa00" d="M7.17 10.85c.68 0 1.23-.55 1.23-1.23V8.8H6.34v-.4h2.86c.9 0 1.64-.74 1.64-1.64v-.82c0-.9-.73-1.64-1.64-1.64v.82a1.63 1.63 0 0 1-1.38 1.61 1.63 1.63 0 0 1-.25.03H4.62a1.22 1.22 0 0 0-.31.82v2.04c0 .68.54 1.23 1.22 1.23zm.06-.58a.42.43 0 0 1-.41-.43.42.43 0 0 1 .41-.44.42.43 0 0 1 .42.44.42.43 0 0 1-.42.43z" opacity=".75"/></svg>