<svg xmlns="http://www.w3.org/2000/svg" width="48" height="48" viewBox="0 0 12.7 12.7"><path d="M6.34.07a6.29 6.29 0 0 0-6.29 6.3 6.29 6.29 0 0 0 6.3 6.28 6.29 6.29 0 0 0 6.28-6.29A6.29 6.29 0 0 0 6.34.07zm-.01.94a5.4 5.4 0 0 1 5.4 5.4 5.4 5.4 0 0 1-5.4 5.41 5.4 5.4 0 0 1-5.41-5.4A5.4 5.4 0 0 1 6.32 1zm-.05 1.18c-.66 0-1.22.5-1.3 1.14h-2.3v3.02h-.75v.38h1.89v-.38h-.76V3.7h1.9a1.32 1.32 0 0 0 2.62 0h2.04v1.13h-.76v3.4h.76v1.52h-1.3a.57.57 0 1 0 0 .38H10v-1.9h.75v-3.4H10v-1.5H7.59a1.32 1.32 0 0 0-1.3-1.14zm0 .38a1 1 0 0 1 .52.15l-.52.52-.52-.52c.15-.1.33-.15.52-.15zM5.5 3l.52.52-.52.52A.95.95 0 0 1 5.5 3zm1.58 0a.96.96 0 0 1 0 1.04l-.52-.52.52-.52zm-.79.79l.52.52a.95.95 0 0 1-1.04 0l.52-.52zM3.45 7.1H2.3v.38h.38v2.65h1.55c.08.22.28.38.53.38a.57.57 0 0 0 .56-.69l2-1.16-.19-.33L5.12 9.5a.56.56 0 0 0-.89.25H3.08V7.48h.38V7.1zm1.32 2.65a.19.19 0 1 1 0 .38.19.19 0 0 1 0-.38zm3.02 0a.19.19 0 0 1 0 .38.19.19 0 1 1 0-.38z" fill="#ff7f2a"/></svg>