<svg xmlns="http://www.w3.org/2000/svg" width="48" height="48" viewBox="0 0 12.7 12.7"><path d="M6.34.07a6.29 6.29 0 0 0-6.29 6.3 6.29 6.29 0 0 0 6.3 6.28 6.29 6.29 0 0 0 6.28-6.29A6.29 6.29 0 0 0 6.34.07zm-.01.94a5.4 5.4 0 0 1 5.4 5.4 5.4 5.4 0 0 1-5.4 5.41 5.4 5.4 0 0 1-5.41-5.4A5.4 5.4 0 0 1 6.32 1zm.02.9c-.68 0-1.27.28-1.66.72a2.46 2.46 0 0 0-.59 1.63v.43a1.93 1.92 0 0 0-.78 3.19l3.03 3.02 3.03-3.02a1.93 1.92 0 0 0-.78-3.19v-.43c0-.6-.2-1.19-.6-1.63a2.19 2.19 0 0 0-1.65-.73zm0 .9c.44 0 .75.15.98.41.23.27.37.64.37 1.04v.37a1.93 1.92 0 0 0-1.35.93A1.93 1.92 0 0 0 5 4.63v-.37c0-.4.14-.77.37-1.04.23-.26.54-.42.98-.42zm0 3.36a.67.67 0 0 1 .67.68.67.67 0 0 1-.48.65l.48 1.37H5.68l.47-1.38a.67.67 0 0 1-.47-.64.67.67 0 0 1 .67-.68z" fill="#ff7f2a"/></svg>