<svg xmlns="http://www.w3.org/2000/svg" width="48" height="48"><path d="M23.95 3.1A20.86 20.86 0 0 0 3.1 23.95 20.86 20.86 0 0 0 23.95 44.8 20.86 20.86 0 0 0 44.8 23.95 20.86 20.86 0 0 0 23.95 3.1zM24 6.58a17.23 17.23 0 0 1 17.24 17.24A17.23 17.23 0 0 1 24 41.05 17.23 17.23 0 0 1 6.76 23.82 17.23 17.23 0 0 1 24 6.58zm.63 3.64a13.86 13.86 0 0 0-10.28 4.04 13.86 13.86 0 0 0 0 19.6 13.86 13.86 0 0 0 19.6 0 13.86 13.86 0 0 0 2-17.03l-2.43 2.42a10.45 10.45 0 0 1-1.9 12.16 10.45 10.45 0 0 1-14.78 0 10.45 10.45 0 0 1 0-14.79 10.45 10.45 0 0 1 11.92-2.01l2.45-2.45a13.86 13.86 0 0 0-6.58-1.94z" fill="#ff7f2a"/></svg>