<?xml version="1.0" encoding="UTF-8" standalone="no"?>
<svg
   xmlns:dc="http://purl.org/dc/elements/1.1/"
   xmlns:cc="http://creativecommons.org/ns#"
   xmlns:rdf="http://www.w3.org/1999/02/22-rdf-syntax-ns#"
   xmlns:svg="http://www.w3.org/2000/svg"
   xmlns="http://www.w3.org/2000/svg"
   xmlns:sodipodi="http://sodipodi.sourceforge.net/DTD/sodipodi-0.dtd"
   xmlns:inkscape="http://www.inkscape.org/namespaces/inkscape"
   width="48"
   height="48"
   version="1.1"
   id="svg4"
   sodipodi:docname="system-suspend.svg"
   inkscape:version="0.92.4 (5da689c313, 2019-01-14)">
  <metadata
     id="metadata10">
    <rdf:RDF>
      <cc:Work
         rdf:about="">
        <dc:format>image/svg+xml</dc:format>
        <dc:type
           rdf:resource="http://purl.org/dc/dcmitype/StillImage" />
        <dc:title></dc:title>
      </cc:Work>
    </rdf:RDF>
  </metadata>
  <defs
     id="defs8" />
  <sodipodi:namedview
     pagecolor="#ffffff"
     bordercolor="#666666"
     borderopacity="1"
     objecttolerance="10"
     gridtolerance="10"
     guidetolerance="10"
     inkscape:pageopacity="0"
     inkscape:pageshadow="2"
     inkscape:window-width="1087"
     inkscape:window-height="480"
     id="namedview6"
     showgrid="false"
     inkscape:zoom="4.9166667"
     inkscape:cx="2.1355932"
     inkscape:cy="24"
     inkscape:window-x="0"
     inkscape:window-y="25"
     inkscape:window-maximized="0"
     inkscape:current-layer="svg4" />
  <path
     d="M 23.95,3.1 A 20.86,20.86 0 0 0 3.1,23.95 20.86,20.86 0 0 0 23.95,44.8 20.86,20.86 0 0 0 44.8,23.95 20.86,20.86 0 0 0 23.95,3.1 Z M 24,6.58 A 17.23,17.23 0 0 1 41.24,23.82 17.23,17.23 0 0 1 24,41.05 17.23,17.23 0 0 1 6.76,23.82 17.23,17.23 0 0 1 24,6.58 Z m 0,3.56 a 13.86,13.86 0 0 0 -13.2,9.69 h 3.51 a 10.45,10.45 0 0 1 9.6,-6.31 10.45,10.45 0 0 1 9.58,6.3 h 3.72 A 13.86,13.86 0 0 0 23.99,10.14 Z M 11.28,26.42 A 12.6,12.6 0 0 0 23.81,37.96 12.6,12.6 0 0 0 36.35,26.42 H 11.29 Z"
     id="path2"
     inkscape:connector-curvature="0"
     style="fill:#ff7f2a" />
</svg>
