<svg xmlns="http://www.w3.org/2000/svg" width="48" height="48" viewBox="0 0 12.7 12.7"><path d="M6.34.07a6.29 6.29 0 0 0-6.29 6.3 6.29 6.29 0 0 0 6.3 6.28 6.29 6.29 0 0 0 6.28-6.29A6.29 6.29 0 0 0 6.34.07zm-.01.94a5.4 5.4 0 0 1 5.4 5.4 5.4 5.4 0 0 1-5.4 5.41 5.4 5.4 0 0 1-5.41-5.4A5.4 5.4 0 0 1 6.32 1z" fill="#ff7f2a"/><path d="M10.8 4.04c-.32.14-.66.23-1.02.27.37-.21.65-.56.78-.97-.34.2-.72.35-1.12.43a1.75 1.75 0 0 0-2.99 1.6 4.98 4.98 0 0 1-3.62-1.83 1.75 1.75 0 0 0 .55 2.34c-.29-.01-.56-.09-.8-.22v.02c0 .85.6 1.56 1.41 1.72a1.78 1.78 0 0 1-.8.03c.23.7.88 1.2 1.65 1.22a3.52 3.52 0 0 1-2.6.73 4.96 4.96 0 0 0 7.68-4.43c.34-.25.64-.56.87-.91z" class="fil0" style="marker:none" color="#000" overflow="visible" opacity=".75" fill="#00f"/></svg>