<svg xmlns="http://www.w3.org/2000/svg" width="48" height="48" viewBox="0 0 12.7 12.7"><path fill="#ff7f2a" d="M6.344.073a6.29 6.29 0 0 0-6.29 6.29 6.29 6.29 0 0 0 6.29 6.288 6.29 6.29 0 0 0 6.29-6.289 6.29 6.29 0 0 0-6.29-6.29zm-.018.936a5.407 5.407 0 0 1 5.407 5.407 5.407 5.407 0 0 1-5.407 5.407A5.407 5.407 0 0 1 .92 6.416 5.407 5.407 0 0 1 6.326 1.01zm3.526 1.874a.184.184 0 0 0-.052.01l-1.297.431a.19.19 0 0 0-.074.317l.189.188-3.082 3.082a.302.302 0 0 0-.037.034l-.004.004c-.003.003-.006.009-.01.012l-.209.209.06-1.248.474-.474a.801.801 0 1 0-.486-.486l-.568.568a.343.343 0 0 0-.1.227l-.102 2.136-.35.35a1.103 1.103 0 0 0-1.284.204c-.21.209-.325.487-.325.783 0 .296.116.574.325.783a1.102 1.102 0 0 0 1.566 0c.344-.345.42-.862.204-1.284l.41-.411a.34.34 0 0 0 .06-.06l.744-.743 2.134-.103a.343.343 0 0 0 .229-.1l.62-.62.136.134a.19.19 0 0 0 .27 0l.757-.756a.19.19 0 0 0 0-.27l-.758-.756a.189.189 0 0 0-.27 0l-.755.756a.191.191 0 0 0 0 .27l.135.135-.527.526-1.247.06 2.476-2.477.188.19a.191.191 0 0 0 .317-.075l.432-1.296a.19.19 0 0 0-.137-.246v.001a.178.178 0 0 0-.052-.005z"/></svg>