<?xml version="1.0" encoding="UTF-8" standalone="no"?>
<svg
   xmlns:dc="http://purl.org/dc/elements/1.1/"
   xmlns:cc="http://creativecommons.org/ns#"
   xmlns:rdf="http://www.w3.org/1999/02/22-rdf-syntax-ns#"
   xmlns:svg="http://www.w3.org/2000/svg"
   xmlns="http://www.w3.org/2000/svg"
   xmlns:sodipodi="http://sodipodi.sourceforge.net/DTD/sodipodi-0.dtd"
   xmlns:inkscape="http://www.inkscape.org/namespaces/inkscape"
   width="48"
   height="48"
   version="1.1"
   viewBox="0 0 12.7 12.7"
   id="svg4"
   sodipodi:docname="applications-arcade.svg"
   inkscape:version="0.92.4 (5da689c313, 2019-01-14)">
  <metadata
     id="metadata10">
    <rdf:RDF>
      <cc:Work
         rdf:about="">
        <dc:format>image/svg+xml</dc:format>
        <dc:type
           rdf:resource="http://purl.org/dc/dcmitype/StillImage" />
        <dc:title></dc:title>
      </cc:Work>
    </rdf:RDF>
  </metadata>
  <defs
     id="defs8" />
  <sodipodi:namedview
     pagecolor="#ffffff"
     bordercolor="#666666"
     borderopacity="1"
     objecttolerance="10"
     gridtolerance="10"
     guidetolerance="10"
     inkscape:pageopacity="0"
     inkscape:pageshadow="2"
     inkscape:window-width="1136"
     inkscape:window-height="480"
     id="namedview6"
     showgrid="false"
     inkscape:zoom="4.9166667"
     inkscape:cx="2.1355932"
     inkscape:cy="24"
     inkscape:window-x="0"
     inkscape:window-y="25"
     inkscape:window-maximized="0"
     inkscape:current-layer="svg4" />
  <path
     d="M 6.3396014,0.07544763 C 2.8712222,0.08119453 0.06111798,2.8913726 0.05529722,6.3597518 c -4.61e-6,3.4723479 2.81195628,6.2888022 6.28430418,6.2946232 3.4765812,0 6.2946226,-2.818042 6.2946226,-6.2946232 C 12.628466,2.8874039 9.8119493,0.07544763 6.3396014,0.07544763 Z M 6.3292661,1.0149183 c 2.1654021,0.00416 4.0271719,1.2840067 4.8870579,3.1257481 H 1.4366527 c -0.00844,0 -0.016071,0.00241 -0.023771,0.00465 C 2.2722906,2.2948976 4.1507557,1.0148066 6.3293074,1.0148066 Z m -3.132098,3.7729108 h 0.7487878 c 0.073543,0 0.1291892,0.060295 0.1291892,0.1338404 v 0.924469 H 4.999614 c 0.073744,0 0.1343564,0.061134 0.1343564,0.134875 v 0.7430993 c 0,0.073545 -0.060618,0.134875 -0.1343564,0.134875 H 4.0751451 v 0.9239663 c 0,0.073738 -0.055646,0.1291891 -0.1291892,0.1291891 H 3.1971681 c -0.073741,0 -0.1291891,-0.055453 -0.1291891,-0.1291891 V 6.8589878 H 2.14351 c -0.073545,0 -0.1343564,-0.061324 -0.1343564,-0.134875 V 5.9810135 c 0,-0.073741 0.060811,-0.134875 0.1343564,-0.134875 h 0.924469 v -0.924469 c 0,-0.073545 0.055451,-0.1338404 0.1291891,-0.1338404 z m 5.1653953,0.1260882 c 0.3308573,0 0.5989298,0.2685752 0.5989298,0.5994325 0,0.3308573 -0.2680725,0.5989297 -0.5989298,0.5989297 -0.3306985,0 -0.5989297,-0.2680724 -0.5989297,-0.5989297 0,-0.3306986 0.2682047,-0.5994325 0.5989297,-0.5994325 z m 1.6603456,0 c 0.330857,0 0.59893,0.2685752 0.59893,0.5994325 0,0.3308573 -0.268073,0.5989297 -0.59893,0.5989297 -0.3308575,0 -0.59893,-0.2680724 -0.59893,-0.5989297 0,-0.3306986 0.2680725,-0.5994325 0.59893,-0.5994325 z m -1.6603456,1.673786 c 0.3308573,0 0.5989298,0.2680725 0.5989298,0.5989298 0,0.3308573 -0.2680725,0.5994324 -0.5989298,0.5994324 -0.3306985,0 -0.5989297,-0.2685751 -0.5989297,-0.5994324 5e-7,-0.3306986 0.2682047,-0.5989298 0.5989297,-0.5989298 z m 1.6603456,0 c 0.330857,0 0.59893,0.2680725 0.59893,0.5989298 0,0.3308573 -0.268073,0.5994324 -0.59893,0.5994324 -0.3308575,0 -0.59893,-0.2685751 -0.59893,-0.5994324 0,-0.3306986 0.2680725,-0.5989298 0.59893,-0.5989298 z m 1.254162,1.9688456 c -0.832872,1.9134431 -2.7381385,3.2524821 -4.9582293,3.2524821 -2.2096928,0 -4.1070754,-1.326975 -4.945794,-3.2260241 0.025507,-0.00778 0.05126,-0.014594 0.075448,-0.023771 h 9.8148597 c 0.0049,0 0.0092,-0.00179 0.01395,-0.00258 z"
     id="path2"
     inkscape:connector-curvature="0"
     style="fill:#ecec1c;stroke-width:1.04387391" />
</svg>
