<svg xmlns="http://www.w3.org/2000/svg" width="48" height="48" viewBox="0 0 12.7 12.7"><path d="M6.34.07A6.29 6.29 0 0 0 .05 6.36a6.29 6.29 0 0 0 6.3 6.29 6.29 6.29 0 0 0 6.28-6.3A6.29 6.29 0 0 0 6.34.08zm-.01.94a5.4 5.4 0 0 1 5.4 5.4 5.4 5.4 0 0 1-5.4 5.41 5.4 5.4 0 0 1-5.41-5.4A5.4 5.4 0 0 1 6.32 1zM3.57 7.54a.93.93 0 0 0-.92.93.93.93 0 0 0 .92.92.93.93 0 0 0 .93-.92.93.93 0 0 0-.93-.93zm2.78 0a.93.93 0 0 0-.93.93.93.93 0 0 0 .93.92.93.93 0 0 0 .93-.92.93.93 0 0 0-.93-.93zm2.78 0a.93.93 0 0 0-.93.93.93.93 0 0 0 .93.92.93.93 0 0 0 .92-.92.93.93 0 0 0-.92-.93z" fill="#a02c2c"/></svg>