<svg xmlns="http://www.w3.org/2000/svg" width="48" height="48" viewBox="0 0 12.7 12.7"><g fill="#a02c2c" transform="translate(0 -284.3)"><path d="M6.344 284.373a6.29 6.29 0 0 0-6.29 6.29 6.29 6.29 0 0 0 6.29 6.289 6.29 6.29 0 0 0 6.29-6.29 6.29 6.29 0 0 0-6.29-6.289zm-.018.936a5.407 5.407 0 0 1 5.407 5.407 5.407 5.407 0 0 1-5.407 5.407 5.407 5.407 0 0 1-5.407-5.407 5.407 5.407 0 0 1 5.407-5.407z"/><rect width="1.213" height=".981" x="2.633" y="290.198" rx=".387" ry=".097"/><rect width="1.213" height=".981" x="4.75" y="290.198" rx=".387" ry=".097"/><rect width="1.213" height=".981" x="6.866" y="290.198" rx=".387" ry=".097"/><rect width="1.213" height=".981" x="8.983" y="290.198" rx=".387" ry=".097"/></g></svg>