<svg xmlns="http://www.w3.org/2000/svg" width="48" height="48"><path style="line-height:normal;text-indent:0;text-align:start;text-decoration-line:none;text-transform:none;marker:none" d="M29.7-.08c-2.04 0-4.12.08-4.51.1H7a2.94 2.94 0 0 0-.56 0 3.1 3.1 0 0 0-2.44 3V45c0 1.57 1.43 3 3 3h34c1.57 0 3-1.43 3-3V18.82c.02-.8.21-9.93-.34-10.5L34.06.25c-.29-.28-2.3-.34-4.36-.33zM31.2 3l.13 7.5c.01.68.64 1.3 1.31 1.28l7.78-.13c.13.01.26.01.4-.01l.08 3.03.1 4.09V45H7V3.02h18.67l5.52-.01zm-9.96 13.35l-7.01 22.1h4.62l1.49-5.24h7.43l1.48 5.23h4.61l-7.03-22.09h-5.6zm2.78 3.23c.08-.11.14.63.24.97.7 2.94 1.64 5.83 2.45 8.74h-5.27c.87-3.08 1.81-6.14 2.5-9.27.03-.28.06-.4.08-.44z" color="#000" font-weight="400" font-family="Andale Mono" overflow="visible" fill="#2ca02c"/></svg>
