<svg xmlns="http://www.w3.org/2000/svg" width="48" height="48" viewBox="0 0 12.7 12.7"><path d="M1.21.86L.14 3.66h6.04V.86H1.21zm5.18 0v2.8h6.11L11.4.86h-5zM.19 3.89v6.31c0 .64.25 1.18.74 1.64.5.45 1.08.67 1.78.67h7.25c.7 0 1.28-.22 1.78-.67.49-.46.73-1 .73-1.64V3.9h-1.12v6.3c0 .36-.13.66-.4.91a1.4 1.4 0 0 1-.99.38H2.71a1.4 1.4 0 0 1-.99-.38 1.19 1.19 0 0 1-.41-.9V3.88H.19zm1.53 1.4v1.06H2v1.06h.53V6.35h.26V5.29H1.72zm1.32.05v.53h.53v-.53h-.53zm.53.53v.53h.53v-.53h-.53zm.53 0h.53v-.53H4.1v.53zm.53 0v.53h.53v-.53h-.53zm.53 0h.52v-.53h-.52v.53zm.52 0v.53h.53v-.53h-.53zm.53 0h.53v-.53h-.53v.53zm.53 0v.53h.53v-.53h-.53zm.53 0h.53v-.53h-.53v.53zm.53 0v.53h.53v-.53H7.8zm.53 0h.53v-.53h-.53v.53zm.53 0v.53h.53v-.53h-.53zm.53 0h.53v-.53h-.53v.53zm.53 0v.53h.53v-.53h-.53zm.53 0h.53v-.53h-.53v.53zm-8.46-.31h.53v.53h-.53v-.53zm6.17 2.89a.49.49 0 0 0-.43.25c0-.06.02-.16-.01-.2h-.44v2.05h.5c0-.41-.02-.83 0-1.25 0-.23.21-.39.43-.37v-.48a.49.49 0 0 0-.05 0zm-2.65 0a.98.98 0 0 0-.14.01 1.01 1.01 0 0 0-.86.87c-.08.46.12.97.55 1.17.36.17.84.14 1.1-.18.08-.09.03.11.04.16-.03.1.1.06.16.07h.3V8.5H6.2v.28a.78.78 0 0 0-.6-.33.98.98 0 0 0-.1 0zm.08.45a.6.6 0 0 1 .6.57c.03.3-.15.62-.46.67-.3.06-.64-.1-.72-.4-.1-.33.07-.74.42-.82a.64.64 0 0 1 .16-.02z" fill="#2ca02c"/></svg>
