<svg xmlns="http://www.w3.org/2000/svg" width="48" height="48"><path style="line-height:normal;text-indent:0;text-align:start;text-decoration-line:none;text-transform:none;marker:none" d="M29.7-.08c-2.04 0-4.12.08-4.51.1H7a2.94 2.94 0 0 0-.56 0 3.1 3.1 0 0 0-2.44 3V45c0 1.57 1.43 3 3 3h34c1.57 0 3-1.43 3-3V18.82c.02-.8.21-9.93-.34-10.5L34.06.25c-.29-.28-2.3-.34-4.36-.33zM31.2 3l.13 7.5c.01.68.64 1.3 1.31 1.28l7.78-.13c.13.01.26.01.4-.01l.08 3.03.1 4.09V45H7V3.02h18.67l5.52-.01zM23.9 14.86c-7.2 0-13 5.8-13 13.01s5.8 13.01 13 13.01 13.01-5.8 13.01-13-5.8-13.02-13-13.02zm0 10.18a2.81 2.81 0 0 1 2.86 2.83c0 1.71-1.15 2.83-2.86 2.83s-2.83-1.12-2.83-2.83 1.2-2.83 2.83-2.83z" color="#000" font-weight="400" font-family="Andale Mono" overflow="visible" fill="#2ca02c"/><path d="M23.91 21.09a6.79 6.79 0 1 0 0 13.57 6.79 6.79 0 0 0 0-13.57zm0 10.18a3.21 3.21 0 0 1-3.4-3.4c0-2.03 1.37-3.4 3.4-3.4s3.4 1.38 3.4 3.4-1.37 3.4-3.4 3.4z" opacity=".51" fill="#eeeeec"/></svg>
