<svg xmlns="http://www.w3.org/2000/svg" width="48" height="48" viewBox="0 0 12.7 12.7"><path d="M1.22.86L.14 3.66h6.04V.86H1.22zm5.17 0v2.8h6.11L11.4.86H6.4zM.19 3.89v6.31c0 .64.25 1.18.74 1.64.5.45 1.08.67 1.78.67h7.25c.7 0 1.28-.22 1.77-.67.5-.46.74-1 .74-1.64V3.9h-1.11v6.3c0 .36-.14.66-.41.91a1.4 1.4 0 0 1-.99.38H2.71a1.4 1.4 0 0 1-.99-.38 1.19 1.19 0 0 1-.41-.9V3.88H.2zm6.47.86l-.16.02c-.26.02.15 0 .16-.02zm-.38.04c-.03-.02-.34.1-.29.02a4.26 4.26 0 0 0-.77.37 1.96 1.96 0 0 0-.53.42c-.18.17-.21.43-.38.6-.14.16-.22.5-.3.74.04.21 0 .43.01.65-.05.88.35 1.76 1 2.36.44.42 1.04.7 1.66.67-.2-.08-.46-.05-.64-.2-.06-.05-.16-.18-.2-.18.1.16-.2-.1-.27-.1.12-.1-.18-.12-.2-.26-.16.06-.2-.3-.25-.24-.05-.07-.32-.35-.2-.36-.13-.12-.14-.28-.24-.46.13.14.1 0 .02-.12-.1-.07-.35-.22-.26-.35-.06-.08-.08-.16-.05-.26-.13-.25-.07-.55-.05-.82.01-.18.03-.36.13-.52.01-.08.17-.22.06-.24a2.33 2.33 0 0 1 .56-.58c.04-.05.38-.16.21-.13.03-.15.35-.18.5-.25-.26.06.01-.04.11-.1.04-.08.52-.15.26-.07.03 0 .44-.09.63-.03.48.04.88.36 1.12.76.12.19.17.43.21.62 0 .22.03.45-.04.66.11-.23 0 .2-.04.26-.18.06-.06.3-.27.36-.06.07-.36.29-.21.11a.74.74 0 0 1-.41.22c-.58.19-1.22-.36-1.2-.95-.05.07-.05-.07-.03-.15a.86.86 0 0 1 1.04-.73c.1-.03.47.3.28.1-.33-.37-1-.3-1.24.13-.13.1-.15.28-.23.42-.05.28-.02.59.15.82.1.2.4.3.46.5-.13-.02-.48-.43-.3-.18.22.22-.09-.04-.15-.13-.16-.19-.03.04.05.1.3.29.74.5 1.15.38-.25-.01-.56.02-.74-.2.34.12.75.15 1.1 0 .23-.1.42-.28.6-.44-.04.24.01-.14.08-.2.1.17.05-.05.12-.12.08-.09.14-.57.13-.22-.07.24.04-.06.01-.14-.02-.17.03-.05.05.04-.05-.12.1-.36.04-.38-.06-.16 0-.26-.1-.42.15.22.03-.14.01-.23-.08.04-.17-.2 0-.17.09 0 .16.33.21.45.09.3-.02-.16-.05-.23-.02-.05-.08-.35.02-.17a1.8 1.8 0 0 0-.59-.87c-.07-.06-.45-.33-.22-.11-.14-.07-.24-.25-.42-.16-.14-.05-.27-.13-.42-.16-.2-.1-.19-.02-.36-.03-.08.02-.38.04-.13-.02.26-.04-.21-.06.01-.02.07.02-.14.02-.18.01-.14 0-.18 0-.03-.06zM4.13 6.01v.05C4 6.29 4.3 6 4.13 6zm-.1.44c-.13.25-.01.28 0 0zm3.45.65l-.02.03c0 .21.1.03.02-.03zm1.08.3c-.06.2-.1.4-.19.58.1-.18.16-.38.19-.58zm-1.13.06c-.04.08-.06.2-.16.22.02.07.18-.1.16-.22zm-.1.06l-.06.08a.15.15 0 0 0 0 .08c.01-.06.09-.18.06-.16zm-.3.32a.56.56 0 0 1-.16.01c-.27-.04.12.17.16-.01zm-1.23 0c0 .05.03.08.05.12.12.22.01-.04-.05-.11zm-.07.14c-.05.13.12.23.18.32a3.81 3.81 0 0 0-.18-.32z" fill="#2ca02c"/></svg>
