<svg xmlns="http://www.w3.org/2000/svg" width="48" height="48"><path style="line-height:normal;text-indent:0;text-align:start;text-decoration-line:none;text-transform:none;marker:none" d="M29.7-.08c-2.04 0-4.12.08-4.51.1H7a2.94 2.94 0 0 0-.56 0 3.1 3.1 0 0 0-2.44 3V45c0 1.57 1.43 3 3 3h34c1.57 0 3-1.43 3-3V18.82c.02-.8.21-9.93-.34-10.5L34.06.25c-.29-.28-2.3-.34-4.36-.33zM31.2 3l.13 7.5c.01.68.64 1.3 1.31 1.28l7.78-.13c.13.01.26.01.4-.01l.08 3.03.1 4.09V45H7V3.02h18.67l5.52-.01zm-20.86 16.4V24c10.1 0 18.3 8.21 18.3 18.33h4.62A22.94 22.94 0 0 0 10.34 19.4zm0 9.11v4.16a9.66 9.66 0 0 1 9.63 9.66h4.18c0-7.63-6.2-13.82-13.82-13.82zm2.65 8.8c-.7 0-1.3.24-1.78.73a2.4 2.4 0 0 0-.73 1.77c0 .7.24 1.29.73 1.77s1.08.71 1.78.71a2.37 2.37 0 0 0 1.74-.71 2.4 2.4 0 0 0 .73-1.77c0-.7-.24-1.3-.73-1.77a2.35 2.35 0 0 0-1.74-.73z" color="#000" font-weight="400" font-family="Andale Mono" overflow="visible" fill="#2ca02c"/></svg>
