<svg xmlns="http://www.w3.org/2000/svg" width="48" height="48"><path style="line-height:normal;text-indent:0;text-align:start;text-decoration-line:none;text-transform:none;marker:none" d="M29.7-.08c-2.04 0-4.12.08-4.51.1H7a2.94 2.94 0 0 0-.56 0 3.1 3.1 0 0 0-2.44 3V45c0 1.57 1.43 3 3 3h34c1.57 0 3-1.43 3-3V18.82c.02-.8.21-9.93-.34-10.5L34.06.25c-.29-.28-2.3-.34-4.36-.33zM31.2 3l.13 7.5c.01.68.64 1.3 1.31 1.28l7.78-.13c.13.01.26.01.4-.01l.08 3.03.1 4.09V45H7V3.02h18.67l5.52-.01zm-2.78 2.85c-4.13.65-8.88 1.33-12.99 2.03-1.09.52-.85 1.88-.9 2.86v13.16c-2.8-.64-5.87 1.45-5.99 4.43-.2 1.85 1.46 3.46 3.26 3.5 3.23.08 5.69-2.04 5.72-4.72-.03-4.5.01-9.01 0-13.52.5-.03 8.32-1.46 9-1.56v10.12a4.62 4.62 0 0 0-5.8 3.5c-.47 1.54.24 3.37 1.77 4 3 1.36 7.2-1.4 7.03-4.63-.04-6 .04-12.01 0-18.02-.07-.56-.46-1.2-1.1-1.16zM13.47 34.59c-1.76-.05-3.28 1.75-2.87 3.49a2.96 2.96 0 0 0 3.9 2.14 2.9 2.9 0 0 0-1.02-5.63zm5.97.01c-1 .1-1.96.74-2.28 1.71-.61 1.52.12 3.6 1.8 4 .9.24 1.96 0 2.53-.78.07.94-.64 1.94-1.66 1.77-.72.14-1.05-.72-1.71-.59h-1.08c.67 1.77 3.1 2.25 4.6 1.28 1.1-.7 1.15-2.1 1.12-3.26v-4H21.5c0 .42.1.98-.34.33-.5-.38-1.1-.52-1.7-.46zm6.6 0c-1 .1-1.95.74-2.28 1.71-.61 1.52.12 3.6 1.8 4 .91.24 1.96 0 2.53-.78.07.94-.63 1.94-1.66 1.77-.71.14-1.05-.72-1.71-.59h-1.08c.67 1.77 3.1 2.25 4.6 1.28 1.1-.7 1.15-2.1 1.12-3.26v-4H28.1c0 .42.1.98-.34.33-.5-.38-1.1-.52-1.7-.46zm-6.2 1.21c1.14-.07 1.86 1.21 1.53 2.23-.26 1.34-2.38 1.55-2.9.3-.48-.95 0-2.45 1.2-2.52h.16zm6.6 0c1.14-.07 1.86 1.21 1.53 2.23-.25 1.34-2.37 1.55-2.9.3-.48-.95 0-2.45 1.2-2.52h.16zm-12.95 0c1.28-.03 2.06 1.6 1.33 2.62-.55.98-2.11.98-2.66 0-.71-1.04.03-2.63 1.33-2.62z" color="#000" font-weight="400" font-family="Andale Mono" overflow="visible" fill="#2ca02c"/></svg>
