<svg xmlns="http://www.w3.org/2000/svg" width="48" height="48"><path style="line-height:normal;text-indent:0;text-align:start;text-decoration-line:none;text-transform:none;marker:none" d="M29.7-.08c-2.04 0-4.12.08-4.51.1H7a2.94 2.94 0 0 0-.56 0 3.1 3.1 0 0 0-2.44 3V45c0 1.57 1.43 3 3 3h34c1.57 0 3-1.43 3-3V18.82c.02-.8.22-9.93-.34-10.5L34.06.25c-.29-.28-2.3-.34-4.35-.33zM31.2 3l.13 7.5c.01.68.64 1.3 1.31 1.28l7.78-.13c.13.01.26.01.4-.01l.08 3.03.1 4.09V45H7V3.02h18.67l5.53-.01zm-2.57 3.1c-4.13.67-8.87 1.35-12.99 2.04-1.09.53-.85 1.88-.9 2.87v13.16c-2.8-.64-5.87 1.45-5.99 4.42-.2 1.85 1.46 3.47 3.27 3.5 3.23.09 5.68-2.03 5.71-4.72-.03-4.5.01-9 0-13.51.5-.04 8.32-1.47 9-1.56v10.12a4.62 4.62 0 0 0-5.8 3.5c-.47 1.54.24 3.36 1.77 4 3 1.36 7.2-1.4 7.03-4.63-.04-6 .04-12.02 0-18.02-.07-.57-.46-1.2-1.1-1.16zM11.59 34c-.61 0-1.12.22-1.48.66-.3.34-.4.68-.47 1.42h-.52v1.18h.52v4.62h1.41v-4.62h.8v-1.18h-.8c.02-.54.2-.72.75-.72h.14v-1.34a2.43 2.43 0 0 0-.35-.02zm.98 0v7.88H14V34h-1.42zm5.32 1.83c-1.75 0-3.01 1.31-3.01 3.12 0 1.78 1.25 3.07 2.98 3.07.83 0 1.4-.27 1.96-.9v.76h1.3v-5.9h-1.3v.78a2.2 2.2 0 0 0-1.93-.93zm7.15 0a3.06 3.06 0 0 0-3.12 3.1c0 1.71 1.4 3.09 3.16 3.09A3 3 0 0 0 28 39.94h-1.6c-.35.54-.75.78-1.34.78-.98 0-1.72-.77-1.72-1.8 0-1.04.7-1.79 1.69-1.79.64 0 1.08.27 1.37.81H28c-.2-.6-.4-.9-.8-1.28a3.2 3.2 0 0 0-2.17-.83zm-7 1.3c1.01 0 1.74.76 1.74 1.84a2 2 0 0 1-.43 1.21c-.29.34-.75.54-1.3.54-1.03 0-1.74-.7-1.74-1.74 0-1.08.71-1.85 1.73-1.85z" fill="#2ca02c"/></svg>
