<svg xmlns="http://www.w3.org/2000/svg" width="48" height="48"><path style="line-height:normal;text-indent:0;text-align:start;text-decoration-line:none;text-transform:none;marker:none" d="M29.7-.08c-2.04 0-4.12.08-4.51.1H7a2.94 2.94 0 0 0-.56 0 3.1 3.1 0 0 0-2.44 3V45c0 1.57 1.43 3 3 3h34c1.57 0 3-1.43 3-3V18.82c.02-.8.21-9.93-.34-10.5L34.06.25c-.29-.28-2.3-.34-4.36-.33zM31.2 3l.13 7.5c.01.68.64 1.3 1.31 1.28l7.78-.13c.13.01.26.01.4-.01l.08 3.03.1 4.09V45H7V3.02h18.67l5.52-.01zm5.74 12.66c-4.13.66-8.88 1.33-13 2.03-1.08.52-.84 1.88-.88 2.86v13.17c-2.8-.64-5.88 1.45-6 4.42-.2 1.85 1.46 3.46 3.26 3.5 3.23.08 5.69-2.04 5.72-4.72-.03-4.5.01-9 0-13.51.5-.04 8.32-1.47 9-1.57v10.13a4.62 4.62 0 0 0-5.8 3.5c-.47 1.54.24 3.36 1.77 4 3 1.36 7.2-1.4 7.03-4.63-.04-6.01.04-12.02 0-18.02-.07-.57-.46-1.2-1.1-1.16z" color="#000" font-weight="400" font-family="Andale Mono" overflow="visible" fill="green"/></svg>