<svg xmlns="http://www.w3.org/2000/svg" width="48" height="48"><path style="line-height:normal;text-indent:0;text-align:start;text-decoration-line:none;text-transform:none;marker:none" d="M29.7-.08c-2.04 0-4.12.08-4.51.1H7a2.94 2.94 0 0 0-.56 0 3.1 3.1 0 0 0-2.44 3V45c0 1.57 1.43 3 3 3h34c1.57 0 3-1.43 3-3V18.82c.02-.8.21-9.93-.34-10.5L34.06.25c-.29-.28-2.3-.34-4.36-.33zM31.2 3l.13 7.5c.01.68.64 1.3 1.31 1.28l7.78-.13c.13.01.26.01.4-.01l.08 3.03.1 4.09V45H7V3.02h18.67l5.52-.01zm-7.3 15.07c-.27.02-.48.17-.58.5-3.51 5.87-6.99 11.77-10.53 17.63-.86 1.22-1.64 2.82-3.21 3.22-.59-.2-.6.78-.35.9h6.39c.11-.65-.06-1.02-.81-.87-1.47.23-1.31-1.49-.76-2.33.66-1.34 1.45-2.61 2.17-3.92h7.32c.23 1.6.61 3.2.73 4.83.3 1.32-1.18 1.44-2.11 1.47-.27-.06-.37.98.05.82h7.65v-.05c.12.02.25.03.37.03.83 0 1.7-.26 2.61-.78.61-.35 1.32-.88 2.12-1.6 0 1.03.29 1.72.85 2.1.3.19.73.28 1.27.28.4 0 .78-.07 1.15-.22.58-.24 1.17-.71 1.76-1.4v-.85a3.75 3.75 0 0 1-.69.45 1.74 1.74 0 0 1-.78.17c-.44 0-.7-.15-.82-.43-.08-.3-.13-.8-.13-1.47V30.2c0-1.52-.2-2.64-.62-3.36-.72-1.24-2.13-1.86-4.24-1.86-1.7 0-3.05.45-4.07 1.34-.83.72-1.24 1.48-1.24 2.29 0 .32.12.65.36.97.24.3.58.46 1.04.46a1.42 1.42 0 0 0 1.04-.42c.29-.29.43-.61.43-.98a12.64 12.64 0 0 1-.13-.59 7.6 7.6 0 0 1-.04-.68c0-.48.24-.86.72-1.14a2.91 2.91 0 0 1 1.6-.46c.65 0 1.2.16 1.63.49.59.45.88 1.2.88 2.22v1.99c-3.09 1.21-5.11 2.15-6.07 2.8a4.75 4.75 0 0 0-1.78 2.08c-.47-2.71-.9-5.42-1.36-8.13L24.2 18.1a1.19 1.19 0 0 0-.3-.02zm-2 4.88l1.47 8.65H16.9l5-8.65zm13.03 8.29v4.73c0 .52-.06.9-.2 1.17-.12.24-.43.47-.9.69a5.93 5.93 0 0 1-.95.39c-.4.13-.75.2-1.08.2-.6 0-1.12-.25-1.53-.73a2.79 2.79 0 0 1-.62-1.89c0-.78.27-1.48.81-2.08.83-.94 2.32-1.76 4.47-2.48z" color="#000" font-weight="400" font-family="Andale Mono" overflow="visible" fill="#2ca02c"/></svg>
