<svg xmlns="http://www.w3.org/2000/svg" width="48" height="48"><path d="M13.61 2.37v5.96c-.06 1.36.18 2.77-.27 4.07-.81 1.52-2.72.68-3.73-.13-.33-.1-.5.62-.77.85 1.06.9 2.54 1.5 3.96 1.14 1.32-.27 2.01-1.58 2-2.79.09-3.03.02-6.07.04-9.1h-1.23zm6.77 0c-.84-.01-1.7.03-2.54 0V14.3c.25.15.78.02 1.14.07V9.38c-.13-.56.12-.7.61-.6 1.58-.05 3.5.22 4.65-1.23 1.18-1.59.57-4.36-1.34-4.92-.83-.2-1.67-.25-2.52-.26zm12.56 0c-1.4 0-2.8.44-3.91 1.34a6.02 6.02 0 0 0-.96 8.28c1.76 2.37 5.2 2.95 7.8 1.82 1.97-.88 3.04-3.1 2.97-5.21h-4.79c-.15.23-.02.76-.06 1.1h3.34c.59.42-.45 1.95-1.03 2.45-2.4 2.16-6.71 1.06-7.9-1.95a4.77 4.77 0 0 1 2.28-6.12c2.19-1.2 4.96-.4 6.62 1.33l.88-.84-.15-.14-.16-.14a7.1 7.1 0 0 0-4.93-1.92zM20.72 3.54c.57 0 1.15.04 1.72.17 1.46.42 1.69 2.82.36 3.57-1.2.57-2.55.28-3.82.33V3.55c.57.02 1.16 0 1.73 0zM7.05 16.43l-3.27 2.4L1 20.88l2.05 2.79 13.84 18.8v5.38h28.62v-.05h.01V18H34.44l-1.1-1.49-4.3-.01 1.1 1.5H16.9v18.63L5.84 21.62l7.03-5.17 16.17.05-21.98-.07zm13.28 5.03h21.72V41.4H20.4l-.04-.06V21.47z" fill="green"/></svg>