<svg xmlns="http://www.w3.org/2000/svg" width="48" height="48"><path d="M35.23 2.82a6.2 6.2 0 0 0-3.26.9c-2.83 1.62-3.7 5.86-1.74 8.52 1.58 2.39 4.78 3.1 7.36 2.24 2.22-.71 3.5-3.12 3.43-5.42h-4.6c-.41 0-.1.77-.2 1.1h3.08c1.05-.11-.08 1.6-.4 2.05-2.14 2.57-6.67 1.74-8.05-1.25a4.8 4.8 0 0 1 1.96-6.34c2.12-1.27 4.89-.58 6.57 1.13.33.19.65-.53.98-.72a7.12 7.12 0 0 0-5.13-2.21zm-23.7 0c-.84 0-1.68.03-2.51 0v11.83c.1.33.79.07 1.12.16V9.24c1.59-.06 3.31.25 4.72-.72 1.79-1.33 1.3-4.82-.84-5.43-.82-.2-1.66-.26-2.5-.27zm15 0c-.22.03-.48.07-.64.03V12l-6.94-8.34c-.32-.26-.48-.88-.93-.82v11.97h1.18V5.77L26.07 14c.32.26.49.88.95.82V2.99c-.06-.16-.25-.18-.48-.16zM11.79 4c.55 0 1.1.01 1.64.11 1.57.29 1.88 2.86.5 3.64-1.19.57-2.51.28-3.78.33V4c.55.01 1.1-.02 1.64-.02zM7.07 16.43l-3.27 2.4L1 20.88l2.05 2.79 13.84 18.8v5.38h28.62v-.05h.01V18H34.44l-1.1-1.49-4.3-.01 1.1 1.5H16.9v18.63L5.84 21.62l7.03-5.17 16.17.05-21.98-.07zm13.28 5.03h21.73V41.4H20.39l-.04-.06V21.47z" fill="#2ca02c"/></svg>
