<svg xmlns="http://www.w3.org/2000/svg" width="48" height="48"><path d="M19.06 2.36a6.88 6.88 0 0 0-.79.01c-1.64.13-3.2.86-4.25 2.16-2.29 2.63-1.6 7.2 1.44 8.97 2.64 1.52 6.46 1.07 8.37-1.4l-.9-.7a5.32 5.32 0 0 1-7.07.97c-2.4-1.61-2.68-5.45-.59-7.43 2.07-2.09 5.93-1.87 7.66.53l.9-.69a6.06 6.06 0 0 0-4.77-2.42zm-10.13.01v12h1.15v-12H8.93zm22.09 0a5.88 5.88 0 0 0-3.31 1c-2.87 1.83-3.52 6.25-1.28 8.82a6.01 6.01 0 1 0 4.6-9.81zm-.4 1.13h.46a4.83 4.83 0 0 1 1.72.31 4.83 4.83 0 0 1 3.1 5.22 4.8 4.8 0 0 1-4.82 4.22 4.8 4.8 0 0 1-4.81-5 4.9 4.9 0 0 1 4.34-4.75zM7.05 16.43l-3.27 2.4L1 20.88l2.05 2.79 13.84 18.8v5.38h28.62v-.05h.01V18H34.44l-1.1-1.49-4.3-.01 1.1 1.5H16.9v18.63L5.84 21.62l7.03-5.17 16.17.05-21.98-.07zm13.28 5.03h21.73V41.4H20.39l-.04-.06V21.47z" fill="#2ca02c"/></svg>
