<svg xmlns="http://www.w3.org/2000/svg" width="48" height="48"><path d="M10.21 2.35c-.78-.01-1.56.04-2.33 0V13.7c-.14.56.14.73.66.62 1.48-.08 3.03.21 4.43-.4a3.32 3.32 0 0 0 1.27-4.9c-.2-.78-2.17-1.02-1.49-1.46 1.65-1.07 1.48-3.9-.27-4.76a5.6 5.6 0 0 0-2.27-.45zm8.27.03l-1.64 11.99h1.12l1.12-8.64 3.72 7.77c.23.3.22.99.7.87l4.08-8.57 1.12 8.5c.26.17.78.02 1.14.07l-1.5-10.9c-.14-.32.06-1.07-.34-1.09l-4.64 9.84-4.22-8.85c-.24-.3-.25-.97-.66-.99zm16.9 0c-.84 0-1.7.04-2.54.01V14.3c.24.17.76.02 1.11.07V9.8c.1-.31-.21-1.08.24-1.03 1.59-.07 3.39.26 4.73-.87 1.59-1.44 1.05-4.67-1.03-5.27-.82-.2-1.66-.25-2.5-.26zM9.03 3.51c.8.02 1.6-.06 2.4.13 1.15.18 1.62 1.66 1.02 2.61-.7 1.24-2.22 1.08-3.42 1.1V3.5zm26.67.03c.58 0 1.16.03 1.73.16 1.46.42 1.7 2.83.38 3.59-1.2.57-2.58.29-3.86.34V3.55c.58.01 1.17-.01 1.75-.01zM9.03 8.55c1.11.02 2.29-.1 3.33.37 1.36.53 1.72 2.54.6 3.52-1.08.98-2.6.61-3.93.69V8.55zm-1.97 7.87l-3.27 2.4L1 20.88l2.05 2.79 13.84 18.8v5.38h28.62v-.05h.01V18H34.44l-1.1-1.49-4.3-.01 1.1 1.5H16.9v18.63L5.84 21.62l7.03-5.17 16.17.05-21.98-.07zm13.29 5.04h21.72v19.92H20.39l-.04-.06V21.47z" fill="#2ca02c"/></svg>
