<svg xmlns="http://www.w3.org/2000/svg" width="48" height="48"><path style="line-height:normal;text-indent:0;text-align:start;text-decoration-line:none;text-transform:none;marker:none" d="M32.94-.01c-1 .32-1.34 1.84-.57 2.55l9.04 9.09c.83.8 2.5.11 2.54-1.05V1.5c0-.8-.72-1.51-1.5-1.51H33.4a1.55 1.55 0 0 0-.47 0zM6.44 0a3.1 3.1 0 0 0-2.44 3V45c0 1.57 1.43 3 3 3h34c1.57 0 3-1.43 3-3V18.82a3.04 3.04 0 0 0-.84-2.16L27.34.86A3.04 3.04 0 0 0 25.2 0H7a2.94 2.94 0 0 0-.56 0zM7 3.02h18.67l.19.19 14.9 15 .24.23V45H7V3.02zm4.42 14.51a.6.6 0 0 0-.6.6V34.3a2.4 2.4 0 0 0 2.4 2.4h6.96l-2.14 6.4a.6.6 0 0 0 .57.79.6.6 0 0 0 .57-.41l2.26-6.78h1.96v6.59a.6.6 0 0 0 1.2 0V36.7h1.96l2.26 6.78a.6.6 0 0 0 1.14-.38l-2.13-6.4h6.95a2.4 2.4 0 0 0 2.4-2.4V18.13a.6.6 0 0 0-.6-.6H11.42zm1.8 2.4h21.56V34.3H13.22V19.93zm14.97 1.2a.6.6 0 0 0-.6.6V32.5c0 .33.27.6.6.6h3.6a.6.6 0 0 0 .6-.6V21.73a.6.6 0 0 0-.6-.6h-3.6zm-5.99 2.4a.6.6 0 0 0-.6.6v8.38a.6.6 0 0 0 .6.6h3.6a.6.6 0 0 0 .6-.6v-8.39a.6.6 0 0 0-.6-.6h-3.6zm-5.99 3.59a.6.6 0 0 0-.6.6v4.79a.6.6 0 0 0 .6.6h3.6a.6.6 0 0 0 .6-.6v-4.8a.6.6 0 0 0-.6-.6h-3.6z" color="#000" font-weight="400" font-family="Andale Mono" overflow="visible" fill="green"/></svg>