<svg xmlns="http://www.w3.org/2000/svg" width="48" height="48"><path style="line-height:normal;text-indent:0;text-align:start;text-decoration-line:none;text-transform:none;marker:none" d="M32.94-.01c-1 .32-1.34 1.84-.57 2.55l9.04 9.09c.83.8 2.5.11 2.54-1.05V1.5c0-.8-.72-1.51-1.5-1.51H33.4a1.55 1.55 0 0 0-.47 0zM6.44 0a3.1 3.1 0 0 0-2.44 3V45c0 1.57 1.43 3 3 3h34c1.57 0 3-1.43 3-3V18.82a3.04 3.04 0 0 0-.84-2.16L27.34.86A3.04 3.04 0 0 0 25.2 0H7a2.94 2.94 0 0 0-.56 0zM7 3.02h18.67l.19.19 14.9 15 .24.23V45H7V3.02zm16.71 13c-6.95 0-10.92 1.95-11.45 3.92a.44.44 0 0 0-.07.23v1.06c1.3 1.36 5.68 2.62 11.52 2.62 5.85 0 10.21-1.26 11.52-2.62v-1.06a.42.42 0 0 0-.06-.21c-.51-1.99-4.5-3.94-11.46-3.94zM12.2 22.88v4.33c1.22 1.27 5.08 2.45 10.27 2.62h.16a36.7 36.7 0 0 0 1.1.02h.63l.45-.02h.16c5.19-.17 9.06-1.35 10.27-2.62v-4.33c-2.24 1.54-6.98 2.36-11.52 2.36-4.54 0-9.28-.82-11.52-2.36zm0 6.04v4.34c1.31 1.37 5.71 2.63 11.52 2.63s10.21-1.26 11.52-2.63v-4.34c-.6.42-1.4.79-2.31 1.1a27.1 27.1 0 0 1-8 1.24 38.76 38.76 0 0 1-2.41 0c-3.39-.1-6.08-.57-8.02-1.25-.91-.31-1.7-.67-2.3-1.09zm0 6v3.78a.43.43 0 0 0 .05.2c.55 2.26 5.42 3.94 11.47 3.94 6.04 0 10.9-1.67 11.46-3.92a.46.46 0 0 0 .06-.23v-3.77c-1.9 1.34-5.83 2.4-11.52 2.4-5.69 0-9.61-1.06-11.52-2.4z" color="#000" font-weight="400" font-family="Andale Mono" overflow="visible" fill="#2ca02c"/></svg>
