<svg xmlns="http://www.w3.org/2000/svg" width="48" height="48"><path style="line-height:normal;text-indent:0;text-align:start;text-decoration-line:none;text-transform:none;marker:none" d="M32.94-.01c-1 .32-1.34 1.84-.57 2.55l9.04 9.09c.83.8 2.5.11 2.54-1.05V1.5c0-.8-.72-1.51-1.5-1.51H33.4a1.55 1.55 0 0 0-.47 0zM6.44 0a3.1 3.1 0 0 0-2.44 3V45c0 1.57 1.43 3 3 3h34c1.57 0 3-1.43 3-3V18.82a3.04 3.04 0 0 0-.84-2.16L27.34.86A3.04 3.04 0 0 0 25.2 0H7a2.94 2.94 0 0 0-.56 0zM7 3.02h18.67l.19.19 14.9 15 .24.23V45H7V3.02zm11.9 12.72c-.6 0-1.1.41-1.25.97h-3.3v-.32a.32.32 0 0 0-.32-.33h-1.3a.33.33 0 0 0-.32.33v1.3c0 .18.14.32.32.32h1.3c.18 0 .33-.14.33-.32v-.33h1.3c-2.96 1.44-3.25 5.11-3.25 9.09 0 .18.15.32.32.32h18.83c.18 0 .32-.14.32-.32 0-4.18-4.85-7.7-9.23-9.09h7.29v.33c0 .18.14.32.32.32h1.3c.18 0 .32-.14.32-.32v-1.3a.33.33 0 0 0-.32-.33h-1.3a.32.32 0 0 0-.32.33v.32h-9.79a1.3 1.3 0 0 0-1.25-.97zm0 .65c.28 0 .53.18.62.44a.66.66 0 0 1-.3.77.66.66 0 0 1-.68-.03.66.66 0 0 1-.28-.63.66.66 0 0 1 .64-.55zm9.54 13.52c-.65 0-1.2.45-1.35 1.05h-3.57v-.35a.35.35 0 0 0-.35-.35h-1.41a.35.35 0 0 0-.35.35v1.4c0 .2.16.36.35.36h1.4a.35.35 0 0 0 .36-.35v-.36h3.13l-8.67 9.62a.35.35 0 0 0-.06.37.35.35 0 0 0 .32.21h20.4a.35.35 0 1 0 .26-.58l-8.67-9.62h3.14v.36c0 .2.16.35.35.35h1.4a.35.35 0 0 0 .36-.35V30.6a.35.35 0 0 0-.36-.35h-1.4a.35.35 0 0 0-.35.35v.35H29.8a1.4 1.4 0 0 0-1.36-1.05zm0 .7c.3 0 .58.2.67.48a.72.72 0 0 1-.33.84.72.72 0 0 1-.71-.03.71.71 0 0 1-.3-.81.71.71 0 0 1 .67-.48z" color="#000" font-weight="400" font-family="Andale Mono" overflow="visible" fill="#2ca02c"/></svg>
