<svg xmlns="http://www.w3.org/2000/svg" width="48" height="48"><path style="line-height:normal;text-indent:0;text-align:start;text-decoration-line:none;text-transform:none;marker:none" d="M33.1-.03a1.55 1.55 0 0 0-.16.02c-1 .32-1.34 1.84-.57 2.55l9.04 9.08c.83.8 2.5.12 2.54-1.04V1.5c0-.8-.72-1.51-1.5-1.51H33.4a1.55 1.55 0 0 0-.31-.02zM6.7 0a2.94 2.94 0 0 0-.26.01 3.1 3.1 0 0 0-2.44 3V45c0 1.57 1.43 3 3 3h34c1.57 0 3-1.43 3-3V18.82a3.04 3.04 0 0 0-.84-2.16L27.34.86A3.04 3.04 0 0 0 25.2 0H7A2.94 2.94 0 0 0 6.7 0zm3.83 3.02h15.14l.19.19 14.9 15 .24.23V45H10.53V3.02zm27.61 14.23H13a.6.6 0 0 0-.6.6v16.17a2.4 2.4 0 0 0 2.4 2.4h6.95l-2.13 6.4a.6.6 0 0 0 .57.78.6.6 0 0 0 .57-.4L23 36.4h1.96V43a.6.6 0 1 0 1.2 0v-6.59h1.96l2.26 6.78a.6.6 0 0 0 1.14-.38l-2.14-6.4h6.96a2.4 2.4 0 0 0 2.4-2.4V17.86a.6.6 0 0 0-.6-.6zm-23.35 2.4h21.56v14.37H14.79V19.64zm14.97 1.2a.6.6 0 0 0-.6.6v10.77c0 .33.27.6.6.6h3.6a.6.6 0 0 0 .6-.6V21.44a.6.6 0 0 0-.6-.6h-3.6zm-5.99 2.39a.6.6 0 0 0-.6.6v8.38a.6.6 0 0 0 .6.6h3.6a.6.6 0 0 0 .6-.6v-8.38a.6.6 0 0 0-.6-.6h-3.6zm-5.99 3.59a.6.6 0 0 0-.6.6v4.8a.6.6 0 0 0 .6.59h3.6a.6.6 0 0 0 .6-.6v-4.79a.6.6 0 0 0-.6-.6h-3.6z" fill="#2ca02c"/></svg>
