<svg xmlns="http://www.w3.org/2000/svg" width="48" height="48"><path style="line-height:normal;text-indent:0;text-align:start;text-decoration-line:none;text-transform:none;marker:none" d="M29.7-.08c-2.04 0-4.12.08-4.51.1H7a2.94 2.94 0 0 0-.56 0 3.1 3.1 0 0 0-2.44 3V45c0 1.57 1.43 3 3 3h34c1.57 0 3-1.43 3-3V18.82c.02-.8.21-9.93-.34-10.5L34.06.25c-.29-.28-2.3-.34-4.36-.33zM31.2 3l.13 7.5c.01.68.64 1.3 1.31 1.28l7.78-.13c.13.01.26.01.4-.01l.08 3.03.1 4.09V45H7V3.02h18.67l5.52-.01zm-9.58 13.25c-6.94 0-10.92 1.95-11.45 3.93a.44.44 0 0 0-.07.22v1.06c1.31 1.37 5.68 2.63 11.52 2.63 5.85 0 10.22-1.26 11.52-2.63v-1.06a.42.42 0 0 0-.06-.21c-.51-1.98-4.49-3.94-11.46-3.94zM10.1 23.12v4.34c1.22 1.27 5.09 2.44 10.27 2.6l.16.01a36.7 36.7 0 0 0 1.1.02h.63l.45-.02h.16c5.2-.17 9.06-1.34 10.27-2.61v-4.34c-2.24 1.54-6.98 2.36-11.52 2.36s-9.27-.81-11.52-2.36zm0 6.05v4.33c1.31 1.37 5.72 2.63 11.52 2.63 5.81 0 10.21-1.26 11.52-2.63v-4.33c-.6.41-1.39.78-2.31 1.09a27.1 27.1 0 0 1-8 1.24 38.76 38.76 0 0 1-2.41 0c-3.38-.09-6.08-.57-8.02-1.25-.91-.3-1.7-.67-2.3-1.08zm0 5.99v3.78a.43.43 0 0 0 .06.2c.54 2.26 5.41 3.94 11.46 3.94 6.04 0 10.9-1.67 11.47-3.92a.46.46 0 0 0 .05-.22v-3.78c-1.9 1.34-5.83 2.4-11.52 2.4-5.69 0-9.61-1.06-11.52-2.4z" color="#000" font-weight="400" font-family="Andale Mono" overflow="visible" fill="#2ca02c"/></svg>
