<svg xmlns="http://www.w3.org/2000/svg" width="48" height="48"><path style="line-height:normal;text-indent:0;text-align:start;text-decoration-line:none;text-transform:none;marker:none" d="M29.7-.08c-2.04 0-4.12.08-4.51.1H7a2.94 2.94 0 0 0-.56 0 3.1 3.1 0 0 0-2.44 3V45c0 1.57 1.43 3 3 3h34c1.57 0 3-1.43 3-3V18.82c.02-.8.22-9.93-.34-10.5L34.06.25c-.29-.28-2.3-.34-4.35-.33zM31.2 3l.13 7.5c.01.68.64 1.3 1.31 1.28l7.78-.13c.13.01.26.01.4-.01l.08 3.03.1 4.09V45H7V3.02h18.67l5.53-.01zm-8.1 11.36v.03A13.63 13.63 0 0 0 10.4 27.1h-.03v1.82h.03A13.63 13.63 0 0 0 23.1 41.6v.03h1.8v-.03a13.62 13.62 0 0 0 12.7-12.7h.03v-1.8h-.04a13.62 13.62 0 0 0-12.68-12.7v-.03H23.1zm0 1.93v5.34h-4.47c.98-2.83 2.6-4.83 4.46-5.34zm1.8 0c1.87.5 3.48 2.51 4.46 5.34H24.9V16.3zm-6 1.04a14.46 14.46 0 0 0-2.14 4.3h-2.72a11.89 11.89 0 0 1 4.86-4.3zm10.2 0a11.89 11.89 0 0 1 4.86 4.3h-2.73a14.36 14.36 0 0 0-2.14-4.3zm-16 6.12h3.19a21.58 21.58 0 0 0-.45 3.63h-3.62a11.71 11.71 0 0 1 .87-3.63zm5.03 0h4.96v3.63h-5.43a20.32 20.32 0 0 1 .46-3.63zm6.78 0h4.96c.26 1.13.42 2.35.47 3.63h-5.43v-3.63zm6.8 0h3.2c.47 1.13.77 2.35.87 3.63h-3.62a21.58 21.58 0 0 0-.45-3.63zm-19.5 5.45h3.63c.05 1.27.2 2.48.45 3.63h-3.2a11.71 11.71 0 0 1-.87-3.63zm5.45 0h5.43v3.64h-4.96a20.31 20.31 0 0 1-.47-3.64zm7.25 0h5.43a20.14 20.14 0 0 1-.47 3.63H24.9V28.9zm7.25 0h3.61a11.65 11.65 0 0 1-.86 3.63h-3.2a21.58 21.58 0 0 0 .45-3.63zm-18.12 5.45h2.72a14.4 14.4 0 0 0 2.14 4.3 11.87 11.87 0 0 1-4.86-4.3zm4.6 0h4.45v5.34c-1.87-.5-3.48-2.5-4.46-5.34zm6.27 0h4.45c-.98 2.83-2.59 4.84-4.45 5.34v-5.34zm6.33 0h2.71a11.87 11.87 0 0 1-4.85 4.3 14.9 14.9 0 0 0 2.14-4.3z" fill="green"/></svg>