<svg xmlns="http://www.w3.org/2000/svg" width="48" height="48"><path style="line-height:normal;text-indent:0;text-align:start;text-decoration-line:none;text-transform:none;marker:none" d="M29.7-.08c-2.04 0-4.12.08-4.51.1H7a2.94 2.94 0 0 0-.56 0 3.1 3.1 0 0 0-2.44 3V45c0 1.57 1.43 3 3 3h34c1.57 0 3-1.43 3-3V18.82c.02-.8.22-9.93-.34-10.5L34.06.25c-.29-.28-2.3-.34-4.35-.33h-.01zm1.5 3.09l.13 7.49c.01.68.64 1.3 1.31 1.28l7.78-.13h.4l.08 3.02.1 4.09V45H7V3.02h18.67l5.53-.01zm-6.16 12a13 13 0 0 0-12.55 9.62h-1.13c-.77 0-1.4.63-1.4 1.4v5.12c0 .77.63 1.4 1.4 1.4h1.53A13 13 0 0 0 25.04 41a13 13 0 0 0 7.27-2.22h2.05c.46 0 .82-.36.82-.82v-1.82A13 13 0 0 0 38.04 28a13 13 0 0 0-1.27-5.56l.01-.05v-3.2a.87.87 0 0 0-.87-.87h-2.23A13 13 0 0 0 25.04 15zm-.03 2.63a10.46 10.46 0 0 1 6.83 2.54v2.2c0 .5.38.88.87.88h1.57a10.46 10.46 0 0 1 1.2 4.85 10.46 10.46 0 0 1-1.94 6.04h-2.16a.82.82 0 0 0-.82.82v2a10.46 10.46 0 0 1-5.55 1.6 10.46 10.46 0 0 1-9.46-6.02h.93c.77 0 1.4-.63 1.4-1.4v-5.11c0-.78-.63-1.4-1.4-1.4h-1.33a10.46 10.46 0 0 1 9.86-7z" fill="green"/></svg>