<svg xmlns="http://www.w3.org/2000/svg" width="48" height="48"><path style="line-height:normal;text-indent:0;text-align:start;text-decoration-line:none;text-transform:none;marker:none" d="M29.7-.08c-2.04 0-4.12.08-4.51.1H7a2.94 2.94 0 0 0-.56 0 3.1 3.1 0 0 0-2.44 3V45c0 1.57 1.43 3 3 3h34c1.57 0 3-1.43 3-3V18.82c.02-.8.21-9.93-.34-10.5L34.06.25c-.29-.28-2.3-.34-4.36-.33zM31.2 3l.13 7.5c.01.68.64 1.3 1.31 1.28l7.78-.13c.13.01.26.01.4-.01l.08 3.03.1 4.09V45H7V3.02h18.67l5.52-.01zm-7.98.98c-4.27-.07-.64 8.84-.86 8.8-.22-.06.24 2.62-.27 2.62s-1.51.3-2.6-.64c-1.1-.92-.38-4.13-2.76-3.28-2.37.84 1.35 3.1 2.02 3.84.67.75.27.95.07 1.36-.15.3-.61.44-.81.57-.2.12-1.43.77-1.82.4-1.95-1.87-4.71-5.03-6.04-2.36-1.33 2.66 5.2 2.56 6.26 3.5 1.06.95.8 1.87.79 2.38 0 .51-.1 1.23-1.87 1.94-1.76.72-8.55.21-6.65 2.91 1.9 2.7 6.21-1.57 7.03-1.39.81.18 2.15 1 2.5 2.15.36 1.15-2.23 2.86-1.38 3.13 1.32.41 1.75-2.63 2.44-2.56.7.06 1.6-.15 2.27.42 2.38 2.02-1.95 8.96 1.52 8.7 3.46-.26.52-6.45 1.22-7.28.7-.84.65-1.5 1.16-1.5.5 0 .05.55.86.72.81.18.05 5.56 2.36 4.78 2.3-.78-1.82-5.68-1.42-5.94.4-.26 1.44.17 1.8-.19.56-.52.48-1.24.9-.92.43.31 1.49 4.67 2.9 3.62 1.51-1.15-1.36-2.56-2.25-3.83-.43-.61.3-1.25.4-1.3.61-.33.92.29 1.31-.07.5-.46-.38-.97.14-1.17 1.32-.5 3.8 1.97 4.2.07.4-1.91-2.94-.92-4.47-1.1-1.08-.12-1.86-.56-2.08-1.37-.16-.56-.5-.9.76-1.6 1.27-.7 5.84-.25 5.07-2.55a1.56 1.56 0 0 0-.16-.36c-.97-1.47-3.7 1.96-5.56 2.2-1.97.27-1.98-.64-1.67-1.13.3-.49 4.61-2.59 2.52-4.12-1.55-1.12-2.54 2.84-3.52 3.22-3 1.17-4.04-2.81-3.66-3.85.39-1.03 3.61-8.76-.65-8.82z" color="#000" font-weight="400" font-family="Andale Mono" overflow="visible" fill="#2ca02c"/></svg>
