<svg xmlns="http://www.w3.org/2000/svg" width="48" height="48"><path style="line-height:normal;text-indent:0;text-align:start;text-decoration-line:none;text-transform:none;marker:none" d="M29.7-.08c-2.04 0-4.12.08-4.51.1H7a2.94 2.94 0 0 0-.56 0 3.1 3.1 0 0 0-2.44 3V45c0 1.57 1.43 3 3 3h34c1.57 0 3-1.43 3-3V18.82c.02-.8.21-9.93-.34-10.5L34.06.25c-.29-.28-2.3-.34-4.36-.33zM31.2 3l.13 7.5c.01.68.64 1.3 1.31 1.28l7.78-.13c.13.01.26.01.4-.01l.08 3.03.1 4.09V45H7V3.02h18.67l5.52-.01zm-19.64 13.7c-.58 0-1.47-.04-1.47.12v23.44l.05.1.12.03h26.6c.47-.06 1.13.14 1.47-.13V17.85c0-.65-.01-1.15-.16-1.15h-26.6zm.23.56h2.26v2.25h-2.26v-2.25zm4.51 0h2.26v2.25H16.3v-2.25zm4.52 0h2.26v2.25h-2.26v-2.25zm4.52 0h2.26v2.25h-2.26v-2.25zm4.52 0h2.25v2.25h-2.25v-2.25zm4.51 0h2.26v2.25h-2.26v-2.25zm2.83 2.8v16.96l-25.98.04V20.09l25.98-.03zm-12.96 3.82a4.82 4.82 0 0 0 0 9.64 4.82 4.82 0 0 0 0-9.64zm-.81 2.37a.47.47 0 0 1 .24.09l2.87 1.97a.47.47 0 0 1 0 .78l-2.87 1.97a.47.47 0 0 1-.49.03.47.47 0 0 1-.25-.41v-3.96a.47.47 0 0 1 .5-.47zM11.79 37.6h2.26v2.26h-2.26V37.6zm4.52 0h2.26v2.26H16.3V37.6zm4.51 0h2.26v2.26h-2.26V37.6zm4.52 0h2.26v2.26h-2.26V37.6zm4.52 0h2.25v2.26h-2.25V37.6zm4.51 0h2.26v2.26h-2.26V37.6z" color="#000" font-weight="400" font-family="Andale Mono" overflow="visible" fill="#2ca02c"/></svg>
