<svg xmlns="http://www.w3.org/2000/svg" width="48" height="48"><path style="line-height:normal;text-indent:0;text-align:start;text-decoration-line:none;text-transform:none;marker:none" d="M29.7-.08c-2.04 0-4.12.08-4.51.1H7a2.94 2.94 0 0 0-.56 0 3.1 3.1 0 0 0-2.44 3V45c0 1.57 1.43 3 3 3h34c1.57 0 3-1.43 3-3V18.82c.02-.8.21-9.93-.34-10.5L34.06.25c-.29-.28-2.3-.34-4.36-.33zM31.2 3l.13 7.5c.01.68.64 1.3 1.31 1.28l7.78-.13c.13.01.26.01.4-.01l.08 3.03.1 4.09V45H11.93V3.02h13.74l5.53-.01zM19.05 17.37a1.46 1.46 0 0 0-1.46 1.47v.32c0 .81.65 1.47 1.46 1.47h16.6a1.46 1.46 0 0 0 1.46-1.47v-.32a1.46 1.46 0 0 0-1.46-1.47h-16.6zm0 6a1.46 1.46 0 0 0-1.46 1.47v.32c0 .81.65 1.47 1.46 1.47h16.6a1.46 1.46 0 0 0 1.46-1.47v-.32a1.46 1.46 0 0 0-1.46-1.47h-16.6zm0 6a1.46 1.46 0 0 0-1.46 1.47v.32c0 .81.65 1.47 1.46 1.47h16.6a1.46 1.46 0 0 0 1.46-1.47v-.32a1.46 1.46 0 0 0-1.46-1.47h-16.6zm0 6a1.46 1.46 0 0 0-1.46 1.47v.32c0 .81.65 1.47 1.46 1.47h16.6a1.46 1.46 0 0 0 1.46-1.47v-.32a1.46 1.46 0 0 0-1.46-1.47h-16.6z" color="#000" font-weight="400" font-family="Andale Mono" overflow="visible" fill="#2ca02c"/></svg>
