<svg xmlns="http://www.w3.org/2000/svg" width="48" height="48" viewBox="0 0 12.7 12.7"><path d="M1.21.86L.14 3.66h6.04V.86H1.21zm5.18 0v2.8h6.11L11.4.86H6.4zM.19 3.89v6.31c0 .64.25 1.18.74 1.64.5.45 1.08.67 1.78.67h7.25c.7 0 1.28-.22 1.78-.67.49-.46.73-1 .73-1.64V3.9h-1.12v6.3c0 .36-.13.66-.4.91a1.4 1.4 0 0 1-.99.38H2.71a1.4 1.4 0 0 1-.99-.38 1.19 1.19 0 0 1-.41-.9V3.88H.19zm3.21.32l-.61 1.6h3.45v-1.6H3.4zm2.96 0v1.6h3.5l-.63-1.6H6.36zM2.82 5.95v3.61c0 .36.14.68.42.93.28.26.62.4 1.01.4H8.4c.4 0 .74-.14 1.02-.4.28-.25.42-.57.42-.93v-3.6H9.2v3.6c0 .2-.08.37-.23.52a.8.8 0 0 1-.57.21H4.25a.8.8 0 0 1-.56-.21.68.68 0 0 1-.23-.52v-3.6h-.64z" fill="green"/></svg>