<?xml version="1.0" encoding="UTF-8" standalone="no"?>
<!-- Created with Inkscape (http://www.inkscape.org/) -->

<svg
   xmlns:dc="http://purl.org/dc/elements/1.1/"
   xmlns:cc="http://creativecommons.org/ns#"
   xmlns:rdf="http://www.w3.org/1999/02/22-rdf-syntax-ns#"
   xmlns:svg="http://www.w3.org/2000/svg"
   xmlns="http://www.w3.org/2000/svg"
   xmlns:sodipodi="http://sodipodi.sourceforge.net/DTD/sodipodi-0.dtd"
   xmlns:inkscape="http://www.inkscape.org/namespaces/inkscape"
   width="48"
   height="48"
   viewBox="0 0 12.7 12.7"
   version="1.1"
   id="svg829"
   inkscape:version="0.92.3 (2405546, 2018-03-11)"
   sodipodi:docname="calc.svg">
  <defs
     id="defs823">
    <clipPath
       clipPathUnits="userSpaceOnUse"
       id="clipPath927">
      <g
         id="use929"
         inkscape:label="Clip">
        <path
           inkscape:connector-curvature="0"
           style="fill:#2ca089;stroke-width:0.04113208"
           d="m -5.7439193,283.47477 -10.9563497,10.95625 0.303419,0.30344 0.772914,-0.77193 0.772904,0.77193 -0.772904,0.77291 1.158933,1.15899 0.772903,-0.77206 0.772915,0.77206 -0.772915,0.7729 0.386017,0.38597 10.9563553,-10.95542 z m -0.6077207,1.2145 0.7729092,0.7729 -0.7729092,0.77303 -0.7720389,-0.77303 z m -1.5449483,1.54593 0.7729094,0.77193 -0.7729094,0.77291 -0.7729089,-0.77291 z m 3.4767859,0.38596 0.772909,0.7729 -0.772909,0.77291 -0.7720391,-0.77291 z m -5.0226039,1.15888 0.7729091,0.7729 -0.7729091,0.7729 -0.7729097,-0.7729 z m 3.4776558,0.38693 0.772909,0.77205 -0.772909,0.77291 -0.7729089,-0.77291 z m -5.0226005,1.15887 0.772035,0.7729 -0.772035,0.77206 -0.772914,-0.77206 z m 3.4767826,0.38609 0.772909,0.7729 -0.772909,0.7729 -0.7729089,-0.7729 z m -5.0225996,1.15887 0.772903,0.77291 -0.772903,0.7729 -0.772915,-0.7729 z m 3.4776512,0.38693 0.7720395,0.77291 -0.7720395,0.77205 -0.7729089,-0.77205 z m -5.0234692,1.15888 0.772903,0.7729 -0.772903,0.77302 -0.772046,-0.77302 z m 3.477653,0.38608 0.7729073,0.77291 -0.7729073,0.7729 -0.772915,-0.7729 z m -1.545818,1.54581 0.772903,0.7729 -0.772903,0.77291 -0.772034,-0.77291 z"
           id="path970" />
        <path
           inkscape:connector-curvature="0"
           style="fill:#1a1a1a;fill-opacity:1;stroke-width:0.1389506"
           d="m -9.5487714,285.30924 a 5.4070438,5.4070438 0 0 1 5.4069053,5.40691 5.4070438,5.4070438 0 0 1 -5.4069053,5.4069 5.4070438,5.4070438 0 0 1 -5.4074216,-5.4069 5.4070438,5.4070438 0 0 1 5.4074216,-5.40691 z"
           id="path972" />
      </g>
    </clipPath>
    <clipPath
       clipPathUnits="userSpaceOnUse"
       id="clipPath944">
      <g
         inkscape:label="Clip"
         id="use946"
         transform="translate(0,-3.9583333e-6)">
        <g
           clip-path="url(#clipPath927)"
           id="g959">
          <g
             id="g957"
             inkscape:label="Clip">
            <path
               inkscape:connector-curvature="0"
               style="fill:#2ca089;stroke-width:0.04113208"
               d="m -5.7439193,283.47477 -10.9563497,10.95625 0.303419,0.30344 0.772914,-0.77193 0.772904,0.77193 -0.772904,0.77291 1.158933,1.15899 0.772903,-0.77206 0.772915,0.77206 -0.772915,0.7729 0.386017,0.38597 10.9563553,-10.95542 z m -0.6077207,1.2145 0.7729092,0.7729 -0.7729092,0.77303 -0.7720389,-0.77303 z m -1.5449483,1.54593 0.7729094,0.77193 -0.7729094,0.77291 -0.7729089,-0.77291 z m 3.4767859,0.38596 0.772909,0.7729 -0.772909,0.77291 -0.7720391,-0.77291 z m -5.0226039,1.15888 0.7729091,0.7729 -0.7729091,0.7729 -0.7729097,-0.7729 z m 3.4776558,0.38693 0.772909,0.77205 -0.772909,0.77291 -0.7729089,-0.77291 z m -5.0226005,1.15887 0.772035,0.7729 -0.772035,0.77206 -0.772914,-0.77206 z m 3.4767826,0.38609 0.772909,0.7729 -0.772909,0.7729 -0.7729089,-0.7729 z m -5.0225996,1.15887 0.772903,0.77291 -0.772903,0.7729 -0.772915,-0.7729 z m 3.4776512,0.38693 0.7720395,0.77291 -0.7720395,0.77205 -0.7729089,-0.77205 z m -5.0234692,1.15888 0.772903,0.7729 -0.772903,0.77302 -0.772046,-0.77302 z m 3.477653,0.38608 0.7729073,0.77291 -0.7729073,0.7729 -0.772915,-0.7729 z m -1.545818,1.54581 0.772903,0.7729 -0.772903,0.77291 -0.772034,-0.77291 z"
               id="path953" />
            <path
               inkscape:connector-curvature="0"
               style="fill:#1a1a1a;fill-opacity:1;stroke-width:0.1389506"
               d="m -9.5487714,285.30924 a 5.4070438,5.4070438 0 0 1 5.4069053,5.40691 5.4070438,5.4070438 0 0 1 -5.4069053,5.4069 5.4070438,5.4070438 0 0 1 -5.4074216,-5.4069 5.4070438,5.4070438 0 0 1 5.4074216,-5.40691 z"
               id="path955" />
          </g>
        </g>
      </g>
    </clipPath>
    <clipPath
       clipPathUnits="userSpaceOnUse"
       id="clipPath978">
      <path
         inkscape:connector-curvature="0"
         style="fill:#1a1a1a;fill-opacity:1;stroke-width:0.1389506"
         d="m -9.5487715,285.30924 a 5.4070438,5.4070438 0 0 1 5.4069054,5.40691 5.4070438,5.4070438 0 0 1 -5.4069054,5.4069 5.4070438,5.4070438 0 0 1 -5.4074215,-5.4069 5.4070438,5.4070438 0 0 1 5.4074215,-5.40691 z"
         id="path980" />
    </clipPath>
  </defs>
  <sodipodi:namedview
     id="base"
     pagecolor="#ffffff"
     bordercolor="#666666"
     borderopacity="1.0"
     inkscape:pageopacity="0.0"
     inkscape:pageshadow="2"
     inkscape:zoom="3.9627443"
     inkscape:cx="24"
     inkscape:cy="24"
     inkscape:document-units="mm"
     inkscape:current-layer="layer1"
     showgrid="false"
     showguides="true"
     inkscape:guide-bbox="true"
     inkscape:window-width="1366"
     inkscape:window-height="719"
     inkscape:window-x="0"
     inkscape:window-y="25"
     inkscape:window-maximized="1"
     scale-x="1.9"
     units="px"
     inkscape:snap-global="true" />
  <metadata
     id="metadata826">
    <rdf:RDF>
      <cc:Work
         rdf:about="">
        <dc:format>image/svg+xml</dc:format>
        <dc:type
           rdf:resource="http://purl.org/dc/dcmitype/StillImage" />
        <dc:title></dc:title>
      </cc:Work>
    </rdf:RDF>
  </metadata>
  <g
     inkscape:label="Capa 1"
     inkscape:groupmode="layer"
     id="layer1"
     transform="translate(0,-284.3)">
    <path
       style="fill:#1a1a1a;fill-opacity:1;stroke-width:0.52516764"
       d="M 23.978516 0.27539062 A 23.770509 23.770509 0 0 0 0.20703125 24.046875 A 23.770509 23.770509 0 0 0 23.978516 47.816406 A 23.770509 23.770509 0 0 0 47.748047 24.046875 A 23.770509 23.770509 0 0 0 23.978516 0.27539062 z M 23.910156 3.8144531 A 20.436071 20.436071 0 0 1 44.345703 24.25 A 20.436071 20.436071 0 0 1 23.910156 44.685547 A 20.436071 20.436071 0 0 1 3.4726562 24.25 A 20.436071 20.436071 0 0 1 23.910156 3.8144531 z M 13.757812 9.5078125 C 12.969919 9.5078125 12.335938 10.141921 12.335938 10.929688 L 12.335938 37.070312 C 12.335939 37.858079 12.969919 38.492188 13.757812 38.492188 L 34.242188 38.492188 C 35.030081 38.492188 35.664063 37.858079 35.664062 37.070312 L 35.664062 10.929688 C 35.664062 10.141921 35.030081 9.5078125 34.242188 9.5078125 L 13.757812 9.5078125 z M 15.019531 11.972656 L 32.980469 11.972656 C 33.455282 11.972656 33.835937 12.342048 33.835938 12.802734 L 33.835938 17.505859 C 33.835938 17.966735 33.455281 18.335938 32.980469 18.335938 L 15.019531 18.335938 C 14.544719 18.335938 14.164063 17.966622 14.164062 17.505859 L 14.164062 12.802734 C 14.164062 12.342048 14.544719 11.972656 15.019531 11.972656 z M 30.074219 20.810547 L 32.814453 20.810547 C 33.22125 20.810547 33.548828 21.140816 33.548828 21.550781 L 33.548828 22.898438 C 33.548828 23.308667 33.22125 23.638672 32.814453 23.638672 L 30.074219 23.638672 C 29.667421 23.638672 29.339844 23.308403 29.339844 22.898438 L 29.339844 21.550781 C 29.339844 21.140514 29.66742 20.810547 30.074219 20.810547 z M 15.195312 20.8125 L 17.248047 20.8125 C 17.6579 20.8125 17.988281 21.142693 17.988281 21.552734 L 17.988281 22.900391 C 17.988281 23.310583 17.6579 23.640625 17.248047 23.640625 L 15.195312 23.640625 C 14.785459 23.640625 14.453125 23.310507 14.453125 22.900391 L 14.453125 21.552734 C 14.453125 21.142504 14.785461 20.8125 15.195312 20.8125 z M 25.09375 20.8125 L 27.148438 20.8125 C 27.558605 20.8125 27.888672 21.142693 27.888672 21.552734 L 27.888672 22.900391 C 27.888672 23.310583 27.558602 23.640625 27.148438 23.640625 L 25.09375 23.640625 C 24.683583 23.640625 24.353516 23.310545 24.353516 22.900391 L 24.353516 21.552734 C 24.353516 21.142504 24.683585 20.8125 25.09375 20.8125 z M 20.144531 20.814453 L 22.199219 20.814453 C 22.609072 20.814453 22.9375 21.144647 22.9375 21.554688 L 22.9375 22.902344 C 22.9375 23.31246 22.609076 23.642578 22.199219 23.642578 L 20.144531 23.642578 C 19.734678 23.642578 19.404297 23.312271 19.404297 22.902344 L 19.404297 21.554688 C 19.404297 21.144533 19.734676 20.814453 20.144531 20.814453 z M 15.195312 25.054688 L 17.248047 25.054688 C 17.6579 25.054688 17.988281 25.384768 17.988281 25.794922 L 17.988281 27.144531 C 17.988281 27.554799 17.6579 27.884766 17.248047 27.884766 L 15.195312 27.884766 C 14.785459 27.884766 14.453125 27.554723 14.453125 27.144531 L 14.453125 25.794922 C 14.453125 25.384654 14.785461 25.054688 15.195312 25.054688 z M 25.09375 25.054688 L 27.148438 25.054688 C 27.558605 25.054688 27.888672 25.384768 27.888672 25.794922 L 27.888672 27.144531 C 27.888672 27.554799 27.558602 27.884766 27.148438 27.884766 L 25.09375 27.884766 C 24.683583 27.884652 24.353516 27.554723 24.353516 27.144531 L 24.353516 25.794922 C 24.353516 25.38473 24.683585 25.054688 25.09375 25.054688 z M 30.074219 25.054688 L 32.814453 25.054688 C 33.22125 25.054688 33.548828 25.384768 33.548828 25.794922 L 33.548828 27.144531 C 33.548828 27.554799 33.22125 27.884766 32.814453 27.884766 L 30.074219 27.884766 C 29.667421 27.884766 29.339844 27.554723 29.339844 27.144531 L 29.339844 25.794922 C 29.339844 25.384654 29.66742 25.054688 30.074219 25.054688 z M 20.144531 25.056641 L 22.199219 25.056641 C 22.609072 25.056641 22.9375 25.38691 22.9375 25.796875 L 22.9375 27.144531 C 22.9375 27.554648 22.609076 27.884766 22.199219 27.884766 L 20.144531 27.884766 C 19.734678 27.884766 19.404297 27.554497 19.404297 27.144531 L 19.404297 25.796875 C 19.404297 25.386758 19.734676 25.056641 20.144531 25.056641 z M 15.195312 29.298828 L 17.248047 29.298828 C 17.6579 29.298828 17.988281 29.628908 17.988281 30.039062 L 17.988281 31.386719 C 17.988281 31.796949 17.6579 32.126953 17.248047 32.126953 L 15.195312 32.126953 C 14.785459 32.126953 14.453125 31.796797 14.453125 31.386719 L 14.453125 30.039062 C 14.453125 29.62887 14.785461 29.298828 15.195312 29.298828 z M 25.09375 29.298828 L 27.148438 29.298828 C 27.558605 29.298828 27.888672 29.628908 27.888672 30.039062 L 27.888672 31.386719 C 27.888672 31.796949 27.558602 32.126953 27.148438 32.126953 L 25.09375 32.126953 C 24.683583 32.126802 24.353516 31.796797 24.353516 31.386719 L 24.353516 30.039062 C 24.353516 29.628946 24.683585 29.298828 25.09375 29.298828 z M 30.074219 29.298828 L 32.814453 29.298828 C 33.22125 29.298828 33.548828 29.63071 33.548828 30.041016 L 33.548828 35.630859 C 33.548828 36.041089 33.22125 36.371094 32.814453 36.371094 L 30.074219 36.371094 C 29.667421 36.371094 29.339844 36.0409 29.339844 35.630859 L 29.339844 30.041016 C 29.339844 29.630786 29.66742 29.298828 30.074219 29.298828 z M 20.144531 29.300781 L 22.199219 29.300781 C 22.609072 29.300781 22.9375 29.631088 22.9375 30.041016 L 22.9375 31.388672 C 22.9375 31.798826 22.609076 32.128906 22.199219 32.128906 L 20.144531 32.128906 C 19.734678 32.128906 19.404297 31.798637 19.404297 31.388672 L 19.404297 30.041016 C 19.404297 29.630899 19.734676 29.300781 20.144531 29.300781 z M 25.09375 33.541016 L 27.148438 33.541016 C 27.558605 33.541016 27.888672 33.873124 27.888672 34.283203 L 27.888672 35.630859 C 27.888672 36.041052 27.558602 36.371094 27.148438 36.371094 L 25.09375 36.371094 C 24.683583 36.370905 24.353516 36.040598 24.353516 35.630859 L 24.353516 34.28125 C 24.353516 33.871133 24.683585 33.541016 25.09375 33.541016 z M 15.185547 33.542969 L 22.308594 33.542969 C 22.715391 33.542969 23.041016 33.873276 23.041016 34.283203 L 23.041016 35.630859 C 23.041016 36.041089 22.715395 36.371094 22.308594 36.371094 L 15.185547 36.371094 C 14.77875 36.371094 14.451172 36.040787 14.451172 35.630859 L 14.451172 34.283203 C 14.451172 33.872973 14.778749 33.542969 15.185547 33.542969 z "
       transform="matrix(0.26458333,0,0,0.26458333,0,284.3)"
       id="path888" />
  </g>
</svg>
