<?xml version="1.0" encoding="UTF-8" standalone="no"?>
<!-- Created with Inkscape (http://www.inkscape.org/) -->

<svg
   xmlns:dc="http://purl.org/dc/elements/1.1/"
   xmlns:cc="http://creativecommons.org/ns#"
   xmlns:rdf="http://www.w3.org/1999/02/22-rdf-syntax-ns#"
   xmlns:svg="http://www.w3.org/2000/svg"
   xmlns="http://www.w3.org/2000/svg"
   xmlns:sodipodi="http://sodipodi.sourceforge.net/DTD/sodipodi-0.dtd"
   xmlns:inkscape="http://www.inkscape.org/namespaces/inkscape"
   width="48"
   height="48"
   viewBox="0 0 12.7 12.7"
   version="1.1"
   id="svg829"
   inkscape:version="0.92.3 (2405546, 2018-03-11)"
   sodipodi:docname="addressbook.svg">
  <defs
     id="defs823" />
  <sodipodi:namedview
     id="base"
     pagecolor="#ffffff"
     bordercolor="#666666"
     borderopacity="1.0"
     inkscape:pageopacity="0.0"
     inkscape:pageshadow="2"
     inkscape:zoom="5.5729167"
     inkscape:cx="24"
     inkscape:cy="24"
     inkscape:document-units="mm"
     inkscape:current-layer="layer1"
     showgrid="false"
     showguides="true"
     inkscape:guide-bbox="true"
     inkscape:window-width="1366"
     inkscape:window-height="714"
     inkscape:window-x="0"
     inkscape:window-y="25"
     inkscape:window-maximized="1"
     scale-x="1.9"
     units="px"
     inkscape:snap-global="false" />
  <metadata
     id="metadata826">
    <rdf:RDF>
      <cc:Work
         rdf:about="">
        <dc:format>image/svg+xml</dc:format>
        <dc:type
           rdf:resource="http://purl.org/dc/dcmitype/StillImage" />
        <dc:title></dc:title>
      </cc:Work>
    </rdf:RDF>
  </metadata>
  <g
     inkscape:label="Capa 1"
     inkscape:groupmode="layer"
     id="layer1"
     transform="translate(0,-284.3)">
    <path
       style="fill:#1a1a1a;fill-opacity:1;stroke-width:0.52516764"
       d="M 23.978516 0.27539062 A 23.770509 23.770509 0 0 0 0.20703125 24.046875 A 23.770509 23.770509 0 0 0 23.978516 47.816406 A 23.770509 23.770509 0 0 0 47.748047 24.046875 A 23.770509 23.770509 0 0 0 23.978516 0.27539062 z M 23.910156 3.8144531 A 20.436071 20.436071 0 0 1 44.345703 24.25 A 20.436071 20.436071 0 0 1 23.910156 44.685547 A 20.436071 20.436071 0 0 1 3.4726562 24.25 A 20.436071 20.436071 0 0 1 23.910156 3.8144531 z M 24.318359 8.5 C 22.305786 8.5000378 20.360888 8.8915037 18.482422 9.6738281 C 16.615279 10.456417 14.977108 11.561547 13.568359 12.988281 C 12.159611 14.426807 11.074762 16.095457 10.314453 17.994141 C 9.5541437 19.892824 9.1738266 21.888148 9.1738281 23.982422 C 9.1738281 26.1572 9.5477409 28.195067 10.296875 30.09375 C 11.045997 31.980906 12.137241 33.643543 13.568359 35.082031 C 14.999482 36.520406 16.631126 37.613322 18.464844 38.361328 C 20.298561 39.120635 22.24985 39.5 24.318359 39.5 C 26.017833 39.5 27.69031 39.200013 29.333984 38.601562 C 30.988844 38.01464 32.514413 37.16496 33.912109 36.048828 L 32.117188 33.251953 C 31.122087 34.172457 29.920467 34.902887 28.511719 35.443359 C 27.102971 35.984437 25.693904 36.255859 24.285156 36.255859 C 22.641616 36.255859 21.094121 35.955872 19.640625 35.357422 C 18.198316 34.770537 16.916917 33.912854 15.798828 32.785156 C 14.669619 31.634517 13.802992 30.312268 13.199219 28.816406 C 12.606624 27.309055 12.31054 25.697005 12.310547 23.982422 C 12.310547 21.899675 12.768702 19.967228 13.685547 18.183594 C 14.613526 16.388469 15.905686 14.926564 17.560547 13.798828 C 18.566834 13.119874 19.662444 12.609121 20.847656 12.263672 C 22.032799 11.906318 23.273286 11.728516 24.570312 11.728516 C 26.426404 11.728516 28.148589 12.107805 29.736328 12.867188 C 31.33512 13.626797 32.666294 14.707498 33.728516 16.111328 C 34.388142 16.951328 34.878857 17.877901 35.203125 18.890625 C 35.527358 19.891822 35.689424 20.968463 35.689453 22.119141 C 35.689413 23.925755 35.293829 25.410212 34.5 26.572266 C 33.706131 27.723056 32.61489 28.406921 31.228516 28.625 L 31.228516 16.664062 L 27.724609 16.664062 L 27.724609 18.925781 C 27.389176 18.108723 26.846778 17.470414 26.097656 17.009766 C 25.359721 16.549041 24.493133 16.318359 23.498047 16.318359 C 21.586155 16.318359 20.025905 17.038225 18.818359 18.476562 C 17.610775 19.914937 17.005847 21.784432 17.005859 24.085938 C 17.005724 26.387254 17.604397 28.256975 18.800781 29.695312 C 20.008434 31.122273 21.574834 31.835938 23.498047 31.835938 C 24.493147 31.835938 25.359695 31.612995 26.097656 31.164062 C 26.845487 30.704493 27.387077 30.067032 27.722656 29.251953 L 27.722656 31.904297 L 28.376953 31.904297 C 31.697728 31.904297 34.269266 31.042554 36.091797 29.316406 C 37.914303 27.590447 38.826138 25.16743 38.826172 22.048828 C 38.82613 20.599153 38.607908 19.218011 38.171875 17.90625 C 37.747041 16.582924 37.115894 15.358393 36.277344 14.230469 C 34.902022 12.377933 33.190666 10.962328 31.144531 9.984375 C 29.098397 8.9945167 26.822891 8.5000378 24.318359 8.5 z M 24.083984 19.529297 C 25.090271 19.529335 25.889796 19.938839 26.482422 20.755859 C 27.086161 21.561352 27.388649 22.65863 27.388672 24.050781 C 27.388658 25.4548 27.092586 26.571956 26.5 27.400391 C 25.907361 28.217222 25.112287 28.625 24.117188 28.625 C 23.1109 28.625 22.311335 28.217487 21.71875 27.400391 C 21.137313 26.583559 20.847644 25.466139 20.847656 24.050781 C 20.847643 22.65863 21.137325 21.56139 21.71875 20.755859 C 22.311254 19.939141 23.10003 19.529335 24.083984 19.529297 z "
       transform="matrix(0.26458333,0,0,0.26458333,0,284.3)"
       id="path829" />
  </g>
</svg>
