<?xml version="1.0" encoding="UTF-8" standalone="no"?>
<!-- Generator: Adobe Illustrator 19.0.0, SVG Export Plug-In . SVG Version: 6.00 Build 0)  -->

<svg
   xmlns:dc="http://purl.org/dc/elements/1.1/"
   xmlns:cc="http://creativecommons.org/ns#"
   xmlns:rdf="http://www.w3.org/1999/02/22-rdf-syntax-ns#"
   xmlns:svg="http://www.w3.org/2000/svg"
   xmlns="http://www.w3.org/2000/svg"
   xmlns:sodipodi="http://sodipodi.sourceforge.net/DTD/sodipodi-0.dtd"
   xmlns:inkscape="http://www.inkscape.org/namespaces/inkscape"
   version="1.1"
   id="Capa_1"
   x="0px"
   y="0px"
   viewBox="0 0 48 48"
   xml:space="preserve"
   sodipodi:docname="amule.svg"
   width="48"
   height="48"
   inkscape:version="0.92.3 (2405546, 2018-03-11)"><metadata
   id="metadata41"><rdf:RDF><cc:Work
       rdf:about=""><dc:format>image/svg+xml</dc:format><dc:type
         rdf:resource="http://purl.org/dc/dcmitype/StillImage" /><dc:title /></cc:Work></rdf:RDF></metadata><defs
   id="defs39" /><sodipodi:namedview
   pagecolor="#ffffff"
   bordercolor="#666666"
   borderopacity="1"
   objecttolerance="10"
   gridtolerance="10"
   guidetolerance="10"
   inkscape:pageopacity="0"
   inkscape:pageshadow="2"
   inkscape:window-width="1366"
   inkscape:window-height="690"
   id="namedview37"
   showgrid="false"
   showguides="true"
   inkscape:guide-bbox="true"
   inkscape:zoom="7.1741873"
   inkscape:cx="3.9245047"
   inkscape:cy="23.048195"
   inkscape:window-x="0"
   inkscape:window-y="28"
   inkscape:window-maximized="1"
   inkscape:current-layer="Capa_1" />
<path
   style="fill:#677821;stroke-width:0.0924025"
   d="M 23.712891 0.49414062 C 17.87943 0.49414062 13.190692 1.6145182 9.7773438 3.8261719 C 5.6761507 6.4835756 3.5078125 10.727685 3.5078125 16.097656 C 3.5078125 23.324362 9.3140783 32.983146 11.09375 35.771484 C 13.125497 38.954565 15.343857 41.851266 17.339844 43.927734 C 19.882206 46.572017 21.907994 47.802734 23.712891 47.802734 C 25.517882 47.802734 27.5419 46.572109 30.083984 43.927734 C 32.079878 41.851358 34.298332 38.954657 36.330078 35.771484 C 38.10975 32.983238 43.916016 23.324362 43.916016 16.097656 C 43.916108 10.727777 41.749814 6.4836678 37.648438 3.8261719 C 34.235274 1.6145182 29.546261 0.49414062 23.712891 0.49414062 z M 26.808594 4.28125 C 27.530906 4.5523095 28.044922 5.2505876 28.044922 6.0664062 L 28.044922 7.5449219 L 36.689453 9.6992188 L 36.689453 13.744141 L 25.064453 13.744141 L 26.808594 4.28125 z M 30.169922 9.7148438 C 29.712289 9.7148438 29.341797 10.087289 29.341797 10.544922 C 29.341797 11.0025 29.712289 11.373047 30.169922 11.373047 C 30.6275 11.373047 30.998047 11.0025 30.998047 10.544922 C 30.998047 10.087344 30.627555 9.7148438 30.169922 9.7148438 z M 24.759766 15.400391 L 32.384766 15.400391 L 32.384766 17.537109 L 24.365234 17.537109 L 24.759766 15.400391 z M 16.587891 19.195312 L 17.232422 19.195312 L 32.384766 19.195312 L 32.384766 21.332031 L 13.894531 21.332031 C 14.180772 20.109073 15.278962 19.195312 16.587891 19.195312 z M 13.132812 19.203125 C 12.526725 19.960364 12.164062 20.919796 12.164062 21.962891 L 12.164062 28.429688 L 10.564453 28.429688 L 10.564453 21.962891 C 10.564453 20.503636 11.699134 19.305157 13.132812 19.203125 z M 13.820312 22.988281 L 32.384766 22.988281 L 32.384766 25.125 L 13.820312 25.125 L 13.820312 22.988281 z M 13.820312 26.783203 L 17.75 26.783203 L 17.75 28.919922 L 13.820312 28.919922 L 13.820312 26.783203 z M 28.455078 26.783203 L 32.384766 26.783203 L 32.384766 28.919922 L 28.455078 28.919922 L 28.455078 26.783203 z M 13.820312 30.576172 L 17.75 30.576172 L 17.75 32.443359 L 13.820312 32.443359 L 13.820312 30.576172 z M 28.455078 30.576172 L 32.384766 30.576172 L 32.384766 32.443359 L 28.455078 32.443359 L 28.455078 30.576172 z "
   id="path2" />

<g
   id="g6"
   transform="translate(0,-464)">
</g>
<g
   id="g8"
   transform="translate(0,-464)">
</g>
<g
   id="g10"
   transform="translate(0,-464)">
</g>
<g
   id="g12"
   transform="translate(0,-464)">
</g>
<g
   id="g14"
   transform="translate(0,-464)">
</g>
<g
   id="g16"
   transform="translate(0,-464)">
</g>
<g
   id="g18"
   transform="translate(0,-464)">
</g>
<g
   id="g20"
   transform="translate(0,-464)">
</g>
<g
   id="g22"
   transform="translate(0,-464)">
</g>
<g
   id="g24"
   transform="translate(0,-464)">
</g>
<g
   id="g26"
   transform="translate(0,-464)">
</g>
<g
   id="g28"
   transform="translate(0,-464)">
</g>
<g
   id="g30"
   transform="translate(0,-464)">
</g>
<g
   id="g32"
   transform="translate(0,-464)">
</g>
<g
   id="g34"
   transform="translate(0,-464)">
</g>
</svg>