<?xml version="1.0" encoding="UTF-8" standalone="no"?>
<!-- Created with Inkscape (http://www.inkscape.org/) -->

<svg
   xmlns:dc="http://purl.org/dc/elements/1.1/"
   xmlns:cc="http://creativecommons.org/ns#"
   xmlns:rdf="http://www.w3.org/1999/02/22-rdf-syntax-ns#"
   xmlns:svg="http://www.w3.org/2000/svg"
   xmlns="http://www.w3.org/2000/svg"
   xmlns:sodipodi="http://sodipodi.sourceforge.net/DTD/sodipodi-0.dtd"
   xmlns:inkscape="http://www.inkscape.org/namespaces/inkscape"
   width="48"
   height="48"
   viewBox="0 0 12.7 12.7"
   version="1.1"
   id="svg829"
   inkscape:version="0.92.3 (2405546, 2018-03-11)"
   sodipodi:docname="bleachbit.svg">
  <defs
     id="defs823" />
  <sodipodi:namedview
     id="base"
     pagecolor="#ffffff"
     bordercolor="#666666"
     borderopacity="1.0"
     inkscape:pageopacity="0.0"
     inkscape:pageshadow="2"
     inkscape:zoom="1.9813721"
     inkscape:cx="24"
     inkscape:cy="24"
     inkscape:document-units="mm"
     inkscape:current-layer="layer1"
     showgrid="false"
     showguides="true"
     inkscape:guide-bbox="true"
     inkscape:window-width="1366"
     inkscape:window-height="719"
     inkscape:window-x="0"
     inkscape:window-y="25"
     inkscape:window-maximized="1"
     scale-x="1.9"
     units="px"
     inkscape:snap-global="false" />
  <metadata
     id="metadata826">
    <rdf:RDF>
      <cc:Work
         rdf:about="">
        <dc:format>image/svg+xml</dc:format>
        <dc:type
           rdf:resource="http://purl.org/dc/dcmitype/StillImage" />
        <dc:title></dc:title>
      </cc:Work>
    </rdf:RDF>
  </metadata>
  <g
     inkscape:label="Capa 1"
     inkscape:groupmode="layer"
     id="layer1"
     transform="translate(0,-284.3)">
    <path
       style="fill:#1a1a1a;fill-opacity:1;stroke-width:0.52516764"
       d="M 23.978516 0.27539062 A 23.770509 23.770509 0 0 0 0.20703125 24.046875 A 23.770509 23.770509 0 0 0 23.978516 47.816406 A 23.770509 23.770509 0 0 0 47.748047 24.046875 A 23.770509 23.770509 0 0 0 23.978516 0.27539062 z M 23.910156 3.8144531 A 20.436071 20.436071 0 0 1 44.345703 24.25 A 20.436071 20.436071 0 0 1 23.910156 44.685547 A 20.436071 20.436071 0 0 1 3.4726562 24.25 A 20.436071 20.436071 0 0 1 23.910156 3.8144531 z M 33.5625 8.1367188 C 33.163197 8.1665511 32.714416 8.4277705 32.351562 9.0039062 L 30.703125 12.09375 L 29.277344 15.248047 L 27.533203 18.685547 L 26.328125 21.515625 L 24.990234 20.955078 L 23.060547 20.128906 L 22.589844 20.128906 L 22.1875 20.240234 L 21.537109 21.087891 L 19.654297 23.5625 L 19.744141 23.808594 L 19.945312 24.097656 L 21.333984 24.923828 L 23.082031 25.994141 C 25.191209 27.272528 26.41747 28.942674 28.693359 29.583984 L 31.527344 29.912109 L 32.003906 29.912109 L 32.035156 29.787109 L 32.447266 27.263672 L 32.785156 25.224609 L 32.818359 24.787109 L 32.572266 24.330078 L 30.912109 23.572266 L 29.949219 23.160156 L 29.359375 22.783203 L 29.292969 22.755859 L 29.371094 22.630859 L 30.355469 20.201172 L 31.242188 18.056641 L 32.351562 15.15625 L 33.208984 13.103516 L 33.9375 11.275391 L 34.535156 9.5039062 C 34.759037 8.6768748 34.228554 8.0869571 33.5625 8.1367188 z M 19.261719 24.353516 L 17.199219 26.695312 L 15.609375 28.234375 L 13.837891 29.417969 L 11.708984 30.533203 L 9.2402344 31.443359 L 7.6953125 31.804688 L 7.6289062 32.003906 L 7.71875 32.539062 L 8.078125 33.431641 L 8.8398438 34.904297 L 9.578125 35.994141 L 11.013672 37.492188 L 11.662109 38.138672 L 12.246094 38.339844 L 14.890625 38.316406 L 13.322266 39.386719 L 13.298828 39.65625 L 14.238281 40.390625 L 15.515625 41.126953 C 17.166966 42.042733 18.658203 40.234375 18.658203 40.234375 C 18.658203 40.234375 17.857214 41.605094 17.90625 42.087891 L 19.474609 42.087891 L 20.304688 41.955078 L 21.246094 41.484375 L 20.931641 41.976562 L 22.636719 41.996094 C 24.436821 41.953725 25.627925 40.918402 26.693359 39.810547 L 27.8125 38.492188 L 28.6875 37.177734 L 29.337891 35.972656 L 30.369141 33.585938 L 31.154297 31.646484 L 31.535156 30.619141 L 31.162109 30.619141 L 28.328125 30.294922 C 26.05265 29.654179 24.82801 27.981286 22.71875 26.703125 L 20.96875 25.630859 L 19.582031 24.808594 L 19.380859 24.515625 L 19.337891 24.402344 L 19.261719 24.353516 z "
       transform="matrix(0.26458333,0,0,0.26458333,0,284.3)"
       id="path826" />
  </g>
</svg>
