<?xml version="1.0" encoding="UTF-8" standalone="no"?>
<!-- Generator: Adobe Illustrator 19.0.0, SVG Export Plug-In . SVG Version: 6.00 Build 0)  -->

<svg
   xmlns:dc="http://purl.org/dc/elements/1.1/"
   xmlns:cc="http://creativecommons.org/ns#"
   xmlns:rdf="http://www.w3.org/1999/02/22-rdf-syntax-ns#"
   xmlns:svg="http://www.w3.org/2000/svg"
   xmlns="http://www.w3.org/2000/svg"
   xmlns:sodipodi="http://sodipodi.sourceforge.net/DTD/sodipodi-0.dtd"
   xmlns:inkscape="http://www.inkscape.org/namespaces/inkscape"
   version="1.1"
   id="Capa_1"
   x="0px"
   y="0px"
   viewBox="0 0 48 48"
   xml:space="preserve"
   sodipodi:docname="bluefish.svg"
   width="48"
   height="48"
   inkscape:version="0.92.3 (2405546, 2018-03-11)"><metadata
   id="metadata41"><rdf:RDF><cc:Work
       rdf:about=""><dc:format>image/svg+xml</dc:format><dc:type
         rdf:resource="http://purl.org/dc/dcmitype/StillImage" /><dc:title /></cc:Work></rdf:RDF></metadata><defs
   id="defs39" /><sodipodi:namedview
   pagecolor="#ffffff"
   bordercolor="#666666"
   borderopacity="1"
   objecttolerance="10"
   gridtolerance="10"
   guidetolerance="10"
   inkscape:pageopacity="0"
   inkscape:pageshadow="2"
   inkscape:window-width="1366"
   inkscape:window-height="690"
   id="namedview37"
   showgrid="false"
   showguides="true"
   inkscape:guide-bbox="true"
   inkscape:zoom="7.1741876"
   inkscape:cx="-5.959823"
   inkscape:cy="21.343783"
   inkscape:window-x="0"
   inkscape:window-y="28"
   inkscape:window-maximized="1"
   inkscape:current-layer="Capa_1" />
<path
   style="fill:#216778;stroke-width:0.0924025"
   d="M 23.712891 0.49414062 C 17.87943 0.49414062 13.190692 1.6145182 9.7773438 3.8261719 C 5.6761507 6.4835756 3.5078125 10.727685 3.5078125 16.097656 C 3.5078125 23.324362 9.3140783 32.983146 11.09375 35.771484 C 13.125497 38.954565 15.343857 41.851266 17.339844 43.927734 C 19.882206 46.572017 21.907994 47.802734 23.712891 47.802734 C 25.517882 47.802734 27.5419 46.572109 30.083984 43.927734 C 32.079878 41.851358 34.298332 38.954657 36.330078 35.771484 C 38.10975 32.983238 43.916016 23.324362 43.916016 16.097656 C 43.916108 10.727777 41.749814 6.4836678 37.648438 3.8261719 C 34.235274 1.6145182 29.546261 0.49414062 23.712891 0.49414062 z M 21.080078 12.458984 C 21.13818 12.464054 21.195244 12.480742 21.25 12.509766 C 21.469147 12.625863 21.553657 12.898107 21.4375 13.117188 C 20.532401 14.825703 20.023171 16.743311 19.955078 18.6875 L 21.392578 18.6875 C 21.459668 16.64345 21.982453 14.62188 22.916016 12.816406 C 23.029873 12.596078 23.301272 12.511088 23.521484 12.625 C 23.741806 12.738857 23.8287 13.008249 23.714844 13.228516 C 22.833782 14.932656 22.355439 16.768114 22.291016 18.6875 L 23.730469 18.6875 C 23.791529 16.749214 24.247045 14.88475 25.089844 13.142578 C 25.197859 12.9193 25.466235 12.827538 25.689453 12.935547 C 25.912732 13.04355 26.006441 13.311878 25.898438 13.535156 C 25.115161 15.154435 24.689611 16.885865 24.628906 18.6875 L 26.066406 18.6875 C 26.084556 18.125794 26.137382 17.564401 26.222656 17.013672 C 26.260556 16.768603 26.489189 16.600818 26.734375 16.638672 C 26.979445 16.676572 27.147346 16.905261 27.109375 17.150391 C 27.031135 17.655878 26.982619 18.171676 26.964844 18.6875 L 28.404297 18.6875 C 28.450197 17.253585 28.715513 15.848059 29.195312 14.503906 C 29.278692 14.270349 29.534203 14.1491 29.767578 14.232422 C 30.001128 14.315802 30.124399 14.571131 30.041016 14.804688 C 29.59582 16.051761 29.348262 17.356807 29.302734 18.6875 L 30.740234 18.6875 C 30.772174 17.695477 30.90916 16.710203 31.150391 15.753906 C 31.211101 15.513443 31.454672 15.367029 31.695312 15.427734 C 31.935775 15.488384 32.082189 15.734147 32.021484 15.974609 C 31.798327 16.859103 31.670326 17.769587 31.638672 18.6875 L 33.009766 18.6875 L 33.009766 17.166016 C 33.009766 16.178356 33.31659 15.235483 33.896484 14.439453 C 34.042464 14.23909 34.322958 14.195822 34.523438 14.341797 C 34.723866 14.487832 34.769087 14.768265 34.623047 14.96875 C 34.155762 15.610121 33.908203 16.369627 33.908203 17.166016 L 33.908203 18.660156 C 35.757673 18.437589 37.195312 16.857682 37.195312 14.949219 L 37.195312 13.457031 C 36.608505 13.527251 36.047839 13.733291 35.554688 14.066406 C 35.349128 14.205182 35.070473 14.152829 34.931641 13.947266 C 34.792806 13.741706 34.84723 13.461098 35.052734 13.322266 C 35.819415 12.804373 36.715806 12.53125 37.644531 12.53125 C 37.892492 12.53125 38.09375 12.732508 38.09375 12.980469 L 38.09375 14.949219 C 38.09375 16.79343 37.010506 18.389169 35.447266 19.134766 C 37.010384 19.880307 38.09375 21.476042 38.09375 23.320312 L 38.09375 25.291016 C 38.09375 25.538977 37.892491 25.740234 37.644531 25.740234 C 35.08903 25.740234 33.009766 23.661031 33.009766 21.105469 L 33.009766 19.583984 L 31.638672 19.583984 C 31.670282 20.501842 31.798327 21.412388 32.021484 22.296875 C 32.082194 22.537399 31.935718 22.783106 31.695312 22.84375 C 31.658413 22.85305 31.622255 22.857422 31.585938 22.857422 C 31.385161 22.857422 31.201767 22.72113 31.150391 22.517578 C 30.909099 21.56134 30.772181 20.576012 30.740234 19.583984 L 29.302734 19.583984 C 29.348244 20.914621 29.595821 22.219779 30.041016 23.466797 C 30.124396 23.700347 30.001123 23.955624 29.767578 24.039062 C 29.717708 24.056822 29.66727 24.066406 29.617188 24.066406 C 29.432707 24.066406 29.26086 23.951232 29.195312 23.767578 C 28.71545 22.423479 28.450178 21.017958 28.404297 19.583984 L 26.964844 19.583984 C 27.019504 21.193227 27.368558 22.754679 28.003906 24.228516 C 28.102106 24.45628 27.997292 24.720213 27.769531 24.818359 C 27.711601 24.843349 27.651145 24.855469 27.591797 24.855469 C 27.417947 24.855469 27.252854 24.753757 27.179688 24.583984 C 26.495679 22.997238 26.121324 21.316297 26.066406 19.583984 L 24.628906 19.583984 C 24.689616 21.385624 25.115162 23.117166 25.898438 24.736328 C 26.006453 24.959607 25.912595 25.227933 25.689453 25.335938 C 25.626393 25.366387 25.55975 25.380859 25.494141 25.380859 C 25.327314 25.380859 25.167381 25.287169 25.089844 25.126953 C 24.247045 23.384787 23.791532 21.52227 23.730469 19.583984 L 22.292969 19.583984 C 22.317239 20.28766 22.396434 20.989351 22.533203 21.673828 C 22.581803 21.917012 22.424879 22.152571 22.181641 22.201172 C 22.151961 22.207072 22.12292 22.210938 22.09375 22.210938 C 21.883993 22.210938 21.694977 22.063146 21.652344 21.849609 C 21.504063 21.107378 21.419151 20.346705 21.394531 19.583984 L 19.955078 19.583984 C 20.023178 21.528114 20.532341 23.445728 21.4375 25.154297 C 21.553597 25.373439 21.46915 25.645622 21.25 25.761719 C 21.18303 25.797189 21.111938 25.8125 21.041016 25.8125 C 20.880097 25.8125 20.723187 25.726337 20.642578 25.574219 C 19.669097 23.736682 19.12514 21.674331 19.056641 19.583984 L 18.720703 19.583984 C 18.633243 21.666475 17.936416 23.642814 16.693359 25.324219 C 16.607789 25.439965 16.472871 25.505859 16.332031 25.505859 C 16.306331 25.505859 16.281689 25.5045 16.255859 25.5 C 11.233438 24.623065 7.859375 22.0662 7.859375 19.136719 C 7.859375 16.207236 11.233438 13.648592 16.255859 12.771484 C 16.423277 12.742254 16.592262 12.810502 16.693359 12.947266 C 17.129585 13.537378 17.504823 14.173615 17.806641 14.839844 C 17.908979 15.065721 17.807979 15.333208 17.582031 15.435547 C 17.356154 15.537943 17.090675 15.436891 16.988281 15.210938 C 16.750653 14.686374 16.462737 14.181752 16.132812 13.707031 C 14.028647 14.107818 12.156237 14.848572 10.835938 15.806641 C 9.8869641 16.495141 8.7558594 17.630874 8.7558594 19.134766 C 8.7558594 20.638659 9.8870803 21.776349 10.835938 22.464844 C 12.156237 23.422918 14.028707 24.163606 16.132812 24.564453 C 17.244772 22.966608 17.832031 21.09502 17.832031 19.134766 C 17.832031 18.262734 17.714731 17.399992 17.482422 16.568359 C 17.415742 16.32949 17.554162 16.082293 17.792969 16.015625 C 18.031722 15.948955 18.279034 16.087365 18.345703 16.326172 C 18.559945 17.093389 18.684619 17.886687 18.71875 18.6875 L 19.056641 18.6875 C 19.125131 16.597214 19.669096 14.534748 20.642578 12.697266 C 20.729607 12.532951 20.905772 12.443776 21.080078 12.458984 z M 27.59375 13.416016 C 27.65208 13.416421 27.712575 13.428589 27.769531 13.453125 C 27.997295 13.551325 28.102113 13.81526 28.003906 14.042969 C 27.792322 14.533754 27.609158 15.043415 27.460938 15.556641 C 27.404128 15.753225 27.224171 15.880859 27.029297 15.880859 C 26.988027 15.880859 26.945937 15.875291 26.904297 15.863281 C 26.666079 15.794421 26.528858 15.544858 26.597656 15.306641 C 26.756329 14.75739 26.95328 14.21283 27.179688 13.6875 C 27.253345 13.516677 27.41876 13.4148 27.59375 13.416016 z M 33.908203 19.611328 L 33.908203 21.105469 C 33.908203 23.013873 35.345903 24.592062 37.195312 24.814453 L 37.195312 23.320312 C 37.195312 21.41191 35.757617 19.833724 33.908203 19.611328 z M 22.478516 22.65625 C 22.65272 22.673398 22.807921 22.793138 22.863281 22.970703 C 23.08485 23.682284 23.372042 24.379929 23.714844 25.042969 C 23.8287 25.263236 23.741814 25.532627 23.521484 25.646484 C 23.455524 25.680634 23.385854 25.697266 23.316406 25.697266 C 23.153837 25.697266 22.99769 25.609377 22.917969 25.455078 C 22.551077 24.745499 22.243074 23.999822 22.005859 23.238281 C 21.932099 23.001537 22.065998 22.749538 22.302734 22.675781 C 22.362038 22.657311 22.420448 22.650534 22.478516 22.65625 z "
   id="path2" />

<g
   id="g6"
   transform="translate(0,-464)">
</g>
<g
   id="g8"
   transform="translate(0,-464)">
</g>
<g
   id="g10"
   transform="translate(0,-464)">
</g>
<g
   id="g12"
   transform="translate(0,-464)">
</g>
<g
   id="g14"
   transform="translate(0,-464)">
</g>
<g
   id="g16"
   transform="translate(0,-464)">
</g>
<g
   id="g18"
   transform="translate(0,-464)">
</g>
<g
   id="g20"
   transform="translate(0,-464)">
</g>
<g
   id="g22"
   transform="translate(0,-464)">
</g>
<g
   id="g24"
   transform="translate(0,-464)">
</g>
<g
   id="g26"
   transform="translate(0,-464)">
</g>
<g
   id="g28"
   transform="translate(0,-464)">
</g>
<g
   id="g30"
   transform="translate(0,-464)">
</g>
<g
   id="g32"
   transform="translate(0,-464)">
</g>
<g
   id="g34"
   transform="translate(0,-464)">
</g>
</svg>