<?xml version="1.0" encoding="UTF-8" standalone="no"?>
<!-- Generator: Adobe Illustrator 19.0.0, SVG Export Plug-In . SVG Version: 6.00 Build 0)  -->

<svg
   xmlns:dc="http://purl.org/dc/elements/1.1/"
   xmlns:cc="http://creativecommons.org/ns#"
   xmlns:rdf="http://www.w3.org/1999/02/22-rdf-syntax-ns#"
   xmlns:svg="http://www.w3.org/2000/svg"
   xmlns="http://www.w3.org/2000/svg"
   xmlns:sodipodi="http://sodipodi.sourceforge.net/DTD/sodipodi-0.dtd"
   xmlns:inkscape="http://www.inkscape.org/namespaces/inkscape"
   version="1.1"
   id="Capa_1"
   x="0px"
   y="0px"
   viewBox="0 0 48 48"
   xml:space="preserve"
   sodipodi:docname="eclipse.svg"
   width="48"
   height="48"
   inkscape:version="0.92.3 (2405546, 2018-03-11)"><metadata
   id="metadata41"><rdf:RDF><cc:Work
       rdf:about=""><dc:format>image/svg+xml</dc:format><dc:type
         rdf:resource="http://purl.org/dc/dcmitype/StillImage" /><dc:title /></cc:Work></rdf:RDF></metadata><defs
   id="defs39" /><sodipodi:namedview
   pagecolor="#ffffff"
   bordercolor="#666666"
   borderopacity="1"
   objecttolerance="10"
   gridtolerance="10"
   guidetolerance="10"
   inkscape:pageopacity="0"
   inkscape:pageshadow="2"
   inkscape:window-width="1366"
   inkscape:window-height="690"
   id="namedview37"
   showgrid="false"
   showguides="true"
   inkscape:guide-bbox="true"
   inkscape:zoom="5.0729165"
   inkscape:cx="-2.0513203"
   inkscape:cy="26.080528"
   inkscape:window-x="0"
   inkscape:window-y="28"
   inkscape:window-maximized="1"
   inkscape:current-layer="Capa_1" />
<path
   style="fill:#668000;stroke-width:0.0924025"
   d="M 23.712891 0.49414062 C 17.87943 0.49414062 13.190692 1.6145182 9.7773438 3.8261719 C 5.6761507 6.4835756 3.5078125 10.727685 3.5078125 16.097656 C 3.5078125 23.324362 9.3140783 32.983146 11.09375 35.771484 C 13.125497 38.954565 15.343857 41.851266 17.339844 43.927734 C 19.882206 46.572017 21.907994 47.802734 23.712891 47.802734 C 25.517882 47.802734 27.5419 46.572109 30.083984 43.927734 C 32.079878 41.851358 34.298332 38.954657 36.330078 35.771484 C 38.10975 32.983238 43.916016 23.324362 43.916016 16.097656 C 43.916108 10.727777 41.749814 6.4836678 37.648438 3.8261719 C 34.235274 1.6145182 29.546261 0.49414062 23.712891 0.49414062 z M 20.507812 6.5019531 C 25.65513 6.5019531 30.008536 9.7291785 31.699219 14.273438 L 38.873047 14.273438 C 39.0177 14.663164 39.143442 15.06109 39.248047 15.46875 L 32.074219 15.46875 C 32.174334 15.859705 32.253744 16.258475 32.314453 16.664062 L 39.501953 16.664062 C 39.560536 17.056182 39.601364 17.455302 39.621094 17.859375 L 32.431641 17.859375 C 32.441447 18.05887 32.460938 18.255019 32.460938 18.457031 C 32.460938 18.658723 32.441416 18.855505 32.431641 19.054688 L 39.621094 19.054688 C 39.601371 19.458761 39.560533 19.857881 39.501953 20.25 L 32.314453 20.25 C 32.25376 20.655929 32.174383 21.054037 32.074219 21.445312 L 39.248047 21.445312 C 39.143442 21.852973 39.0177 22.25285 38.873047 22.642578 L 31.699219 22.642578 C 30.008074 27.18593 25.654481 30.412109 20.507812 30.412109 C 13.884832 30.412109 8.5527344 25.080011 8.5527344 18.457031 C 8.5527344 11.834051 13.884832 6.5019531 20.507812 6.5019531 z M 31.699219 22.642578 C 31.844418 22.252491 31.969671 21.853713 32.074219 21.445312 L 16.115234 21.445312 C 16.21966 21.852972 16.343388 22.25285 16.488281 22.642578 L 31.699219 22.642578 z M 32.314453 20.25 C 32.373142 19.857477 32.411799 19.458971 32.431641 19.054688 L 15.742188 19.054688 C 15.761917 19.458761 15.800911 19.857881 15.859375 20.25 L 32.314453 20.25 z M 32.431641 17.859375 C 32.411751 17.45476 32.373253 17.056895 32.314453 16.664062 L 15.859375 16.664062 C 15.800915 17.056182 15.761911 17.455302 15.742188 17.859375 L 32.431641 17.859375 z M 32.074219 15.46875 C 31.969871 15.061268 31.844039 14.662688 31.699219 14.273438 L 16.488281 14.273438 C 16.343388 14.663165 16.21966 15.06109 16.115234 15.46875 L 32.074219 15.46875 z "
   id="path2" />

<g
   id="g6"
   transform="translate(0,-464)">
</g>
<g
   id="g8"
   transform="translate(0,-464)">
</g>
<g
   id="g10"
   transform="translate(0,-464)">
</g>
<g
   id="g12"
   transform="translate(0,-464)">
</g>
<g
   id="g14"
   transform="translate(0,-464)">
</g>
<g
   id="g16"
   transform="translate(0,-464)">
</g>
<g
   id="g18"
   transform="translate(0,-464)">
</g>
<g
   id="g20"
   transform="translate(0,-464)">
</g>
<g
   id="g22"
   transform="translate(0,-464)">
</g>
<g
   id="g24"
   transform="translate(0,-464)">
</g>
<g
   id="g26"
   transform="translate(0,-464)">
</g>
<g
   id="g28"
   transform="translate(0,-464)">
</g>
<g
   id="g30"
   transform="translate(0,-464)">
</g>
<g
   id="g32"
   transform="translate(0,-464)">
</g>
<g
   id="g34"
   transform="translate(0,-464)">
</g>
</svg>