<?xml version="1.0" encoding="UTF-8" standalone="no"?>
<!-- Created with Inkscape (http://www.inkscape.org/) -->

<svg
   xmlns:dc="http://purl.org/dc/elements/1.1/"
   xmlns:cc="http://creativecommons.org/ns#"
   xmlns:rdf="http://www.w3.org/1999/02/22-rdf-syntax-ns#"
   xmlns:svg="http://www.w3.org/2000/svg"
   xmlns="http://www.w3.org/2000/svg"
   xmlns:sodipodi="http://sodipodi.sourceforge.net/DTD/sodipodi-0.dtd"
   xmlns:inkscape="http://www.inkscape.org/namespaces/inkscape"
   width="48"
   height="48"
   viewBox="0 0 12.7 12.7"
   version="1.1"
   id="svg829"
   inkscape:version="0.92.3 (2405546, 2018-03-11)"
   sodipodi:docname="facebook.svg">
  <defs
     id="defs823" />
  <sodipodi:namedview
     id="base"
     pagecolor="#ffffff"
     bordercolor="#666666"
     borderopacity="1.0"
     inkscape:pageopacity="0.0"
     inkscape:pageshadow="2"
     inkscape:zoom="1.9813721"
     inkscape:cx="24"
     inkscape:cy="24"
     inkscape:document-units="mm"
     inkscape:current-layer="layer1"
     showgrid="false"
     showguides="true"
     inkscape:guide-bbox="true"
     inkscape:window-width="1366"
     inkscape:window-height="719"
     inkscape:window-x="0"
     inkscape:window-y="25"
     inkscape:window-maximized="1"
     scale-x="1.9"
     units="px"
     inkscape:snap-global="false" />
  <metadata
     id="metadata826">
    <rdf:RDF>
      <cc:Work
         rdf:about="">
        <dc:format>image/svg+xml</dc:format>
        <dc:type
           rdf:resource="http://purl.org/dc/dcmitype/StillImage" />
        <dc:title></dc:title>
      </cc:Work>
    </rdf:RDF>
  </metadata>
  <g
     inkscape:label="Capa 1"
     inkscape:groupmode="layer"
     id="layer1"
     transform="translate(0,-284.3)">
    <g
       id="g835">
      <path
         inkscape:connector-curvature="0"
         id="path1374"
         d="m 6.3443558,284.37295 a 6.2892804,6.2892804 0 0 0 -6.28941435,6.28942 6.2892804,6.2892804 0 0 0 6.28941435,6.28914 6.2892804,6.2892804 0 0 0 6.2891432,-6.28914 6.2892804,6.2892804 0 0 0 -6.2891432,-6.28942 z m -0.018184,0.9363 a 5.4070438,5.4070438 0 0 1 5.4071322,5.40711 5.4070438,5.4070438 0 0 1 -5.4071322,5.40686 5.4070438,5.4070438 0 0 1 -5.40713234,-5.40686 5.4070438,5.4070438 0 0 1 5.40713234,-5.40711 z"
         style="fill:#1a1a1a;fill-opacity:1;stroke-width:0.1389506" />
      <path
         id="path2"
         d="m 7.0858724,286.54985 c 0.1121515,-0.004 0.2232421,0 0.3224609,0 h 1.0583333 v 1.5875 H 7.4083333 c 0,0 -0.5291667,0 -0.5291667,0.52917 v 1.05833 h 1.5875 l -0.2645833,1.5875 H 6.8791666 v 3.43958 h -1.5875 v -3.43958 H 4.2333333 v -1.5875 h 1.0583333 v -1.05833 c 0,-1.85209 1.0092399,-2.08772 1.7942058,-2.11667 z"
         style="fill:#0044aa;stroke-width:0.02444816;opacity:0.75"
         inkscape:connector-curvature="0" />
    </g>
  </g>
</svg>
