<?xml version="1.0" encoding="UTF-8" standalone="no"?>
<!-- Created with Inkscape (http://www.inkscape.org/) -->

<svg
   xmlns:dc="http://purl.org/dc/elements/1.1/"
   xmlns:cc="http://creativecommons.org/ns#"
   xmlns:rdf="http://www.w3.org/1999/02/22-rdf-syntax-ns#"
   xmlns:svg="http://www.w3.org/2000/svg"
   xmlns="http://www.w3.org/2000/svg"
   xmlns:sodipodi="http://sodipodi.sourceforge.net/DTD/sodipodi-0.dtd"
   xmlns:inkscape="http://www.inkscape.org/namespaces/inkscape"
   width="48"
   height="48"
   viewBox="0 0 12.7 12.7"
   version="1.1"
   id="svg829"
   inkscape:version="0.92.3 (2405546, 2018-03-11)"
   sodipodi:docname="gdmsetup.svg">
  <defs
     id="defs823" />
  <sodipodi:namedview
     id="base"
     pagecolor="#ffffff"
     bordercolor="#666666"
     borderopacity="1.0"
     inkscape:pageopacity="0.0"
     inkscape:pageshadow="2"
     inkscape:zoom="3.9627443"
     inkscape:cx="24"
     inkscape:cy="24"
     inkscape:document-units="mm"
     inkscape:current-layer="layer1"
     showgrid="false"
     showguides="true"
     inkscape:guide-bbox="true"
     inkscape:window-width="1366"
     inkscape:window-height="719"
     inkscape:window-x="0"
     inkscape:window-y="25"
     inkscape:window-maximized="1"
     scale-x="1.9"
     units="px"
     inkscape:snap-global="false" />
  <metadata
     id="metadata826">
    <rdf:RDF>
      <cc:Work
         rdf:about="">
        <dc:format>image/svg+xml</dc:format>
        <dc:type
           rdf:resource="http://purl.org/dc/dcmitype/StillImage" />
        <dc:title />
      </cc:Work>
    </rdf:RDF>
  </metadata>
  <g
     inkscape:label="Capa 1"
     inkscape:groupmode="layer"
     id="layer1"
     transform="translate(0,-284.3)">
    <path
       style="fill:#1a1a1a;fill-opacity:1;stroke-width:0.1389506;opacity:0.99999999"
       d="m 6.3443159,284.37286 a 6.2892804,6.2892804 0 0 0 -6.28953853,6.28954 6.2892804,6.2892804 0 0 0 6.28953853,6.28902 6.2892804,6.2892804 0 0 0 6.2890211,-6.28902 6.2892804,6.2892804 0 0 0 -6.2890211,-6.28954 z m -0.018087,0.93638 a 5.4070437,5.4070437 0 0 1 5.4069051,5.40691 5.4070437,5.4070437 0 0 1 -5.4069051,5.4069 5.4070437,5.4070437 0 0 1 -5.40742183,-5.4069 5.4070437,5.4070437 0 0 1 5.40742183,-5.40691 z"
       id="path826"
       inkscape:connector-curvature="0" />
    <path
       d="m 49.690566,343.4349 -2.388959,-3.02984 c -0.05992,-0.0755 -0.148496,-0.11984 -0.244888,-0.11984 h -6.273298 c -0.09639,0 -0.184969,0.0443 -0.244888,0.11984 l -2.38896,3.02984 c -0.04429,0.0547 -0.06773,0.12244 -0.06773,0.19278 v 8.51637 c 0,0.17194 0.14068,0.31262 0.312623,0.31262 h 11.048612 c 0.171943,0 0.312623,-0.14068 0.312623,-0.31262 v -8.51637 c 0.0026,-0.0703 -0.02084,-0.13807 -0.06513,-0.19278 z m -0.849291,-0.0677 h -4.608582 v -2.45669 h 2.672925 z m -7.906753,-2.45669 h 2.672925 v 2.45669 h -4.608582 z m -2.227438,10.92095 v -7.83901 H 49.13045 v 7.83901 z"
       id="path2"
       inkscape:connector-curvature="0"
       style="stroke-width:0.0260519" />
    <path
       style="color:#000000;display:inline;overflow:visible;visibility:visible;opacity:0.99999999;fill:#1a1a1a;fill-opacity:1;fill-rule:evenodd;stroke:none;stroke-width:0.19131507;stroke-linecap:round;stroke-linejoin:round;stroke-miterlimit:4;stroke-dasharray:none;stroke-dashoffset:0;stroke-opacity:1;marker:none;marker-start:none;marker-mid:none;marker-end:none;enable-background:accumulate"
       d="m 2.4238406,287.35234 c -0.2115262,0 -0.3818159,0.17029 -0.3818159,0.38183 v 5.91815 c 0,0.21153 0.1702897,0.38182 0.3818159,0.38182 h 7.8272224 c 0.211527,0 0.381814,-0.17029 0.381814,-0.38182 v -5.91815 c 0,-0.21154 -0.170287,-0.38183 -0.381814,-0.38183 z m 0.3911369,0.46834 h 7.0225769 c 0.1897816,0 0.3426646,0.14773 0.3426646,0.33108 v 5.12992 c 0,0.18334 -0.152883,0.33109 -0.3426646,0.33109 H 2.8149775 c -0.1897812,0 -0.3426647,-0.14775 -0.3426647,-0.33109 v -5.12992 c 0,-0.18335 0.1528835,-0.33108 0.3426647,-0.33108 z"
       id="rect2716"
       inkscape:connector-curvature="0" />
    <path
       style="opacity:0.99999999;fill:#1a1a1a;fill-opacity:1;stroke:none;stroke-width:0.16738939;stroke-opacity:1"
       d="m 4.7437235,288.6649 c -0.1596489,0 -0.2885213,0.1209 -0.3043742,0.27626 0.024056,-0.0627 0.083772,-0.10784 0.1552935,-0.10784 h 3.5328303 c 0.071519,0 0.1312347,0.0451 0.1552929,0.10784 -0.015853,-0.15531 -0.1447251,-0.27626 -0.304374,-0.27626 z m 3.5390425,0.27626 c 0.00106,0.009 0.00329,0.0209 0.00329,0.0316 v 1.226 c 0,0.0116 -0.00204,0.0227 -0.00329,0.0338 0.00744,-0.0192 0.012101,-0.0394 0.012101,-0.061 v -1.17069 c 0,-0.021 -0.00497,-0.0407 -0.012101,-0.0595 z m 0,1.29138 c -0.024366,0.0622 -0.084228,0.10627 -0.1552929,0.10627 H 4.5946428 c -0.07107,0 -0.1309248,-0.0442 -0.1552935,-0.10627 0.017027,0.1541 0.1456135,0.27366 0.3043742,0.27366 H 7.978392 c 0.1587606,0 0.2873438,-0.11953 0.304374,-0.27366 z m -3.8434167,0 c -0.00125,-0.0116 -0.00329,-0.0225 -0.00329,-0.0338 v -1.22603 c 0,-0.0108 0.00224,-0.0209 0.00329,-0.0314 -0.00711,0.0189 -0.012101,0.0387 -0.012101,0.0595 v 1.17072 c 0,0.0216 0.00466,0.0425 0.012101,0.061 z"
       id="rect7303"
       inkscape:connector-curvature="0" />
    <path
       style="fill:#1a1a1a;fill-opacity:1;stroke:none;stroke-width:0.16738939;opacity:0.99999999"
       d="m 5.19914,289.24195 a 0.33477873,0.33477873 0 0 0 -0.3445863,0.33477 0.33477876,0.33477876 0 0 0 0.6695572,0 0.33477873,0.33477873 0 0 0 -0.3249709,-0.33477 z m 1.171726,0 a 0.33477873,0.33477873 0 0 0 -0.3445871,0.33477 0.33477884,0.33477884 0 0 0 0.6695576,0 0.33477873,0.33477873 0 0 0 -0.3249705,-0.33477 z m 1.1717253,3.4e-4 a 0.33477879,0.33477879 0 0 0 -0.3445866,0.33443 0.33477879,0.33477879 0 0 0 0.6695573,0 0.33477879,0.33477879 0 0 0 -0.3249707,-0.33446 z"
       id="path2879"
       inkscape:connector-curvature="0" />
    <path
       inkscape:connector-curvature="0"
       style="display:inline;fill:#1a1a1a;fill-opacity:1;fill-rule:evenodd;stroke:none;stroke-width:0.13287783;stroke-linecap:round;stroke-linejoin:round;stroke-miterlimit:4;stroke-dasharray:none;stroke-dashoffset:0.3612;stroke-opacity:1;enable-background:new;opacity:0.99999999"
       id="path6912"
       d="m 6.0080978,290.89306 c -0.010461,-5.5e-4 -0.022645,0.003 -0.032724,0.009 -0.2787107,0.14579 -0.5147508,0.38614 -0.5949249,0.62154 -0.1094832,0.32146 0.054153,0.66167 0.3775967,0.85756 0.074021,0.12895 0.1383251,0.32848 0.1370747,0.6301 l -0.015671,3.76557 0.8316319,0.008 0.015662,-3.76555 c 0.00115,-0.27193 0.054916,-0.45933 0.1205008,-0.58731 0.1866931,-0.0938 0.331389,-0.2412 0.39486,-0.42754 0.080134,-0.2353 0.031481,-0.54672 -0.110371,-0.80086 -0.011657,-0.0223 -0.036611,-0.0365 -0.065981,-0.0336 -0.027946,0.002 -0.052099,0.0183 -0.059679,0.0417 l -0.2192359,0.64153 c -0.019591,0.0576 -0.088319,0.0939 -0.1845481,0.10863 -0.097057,0.0148 -0.2202233,0.007 -0.3496642,-0.0262 -0.1293145,-0.0335 -0.2380761,-0.0843 -0.3102086,-0.14258 -0.073561,-0.0564 -0.1065686,-0.1215 -0.086971,-0.17916 l 0.2203395,-0.6452 c 0.00616,-0.018 0.00187,-0.0369 -0.011643,-0.0516 -0.011736,-0.0162 -0.035719,-0.0224 -0.056032,-0.0227 z" />
  </g>
</svg>
