<?xml version="1.0" encoding="UTF-8" standalone="no"?>
<!-- Created with Inkscape (http://www.inkscape.org/) -->

<svg
   xmlns:dc="http://purl.org/dc/elements/1.1/"
   xmlns:cc="http://creativecommons.org/ns#"
   xmlns:rdf="http://www.w3.org/1999/02/22-rdf-syntax-ns#"
   xmlns:svg="http://www.w3.org/2000/svg"
   xmlns="http://www.w3.org/2000/svg"
   xmlns:sodipodi="http://sodipodi.sourceforge.net/DTD/sodipodi-0.dtd"
   xmlns:inkscape="http://www.inkscape.org/namespaces/inkscape"
   width="48"
   height="48"
   viewBox="0 0 12.7 12.7"
   version="1.1"
   id="svg829"
   inkscape:version="0.92.3 (2405546, 2018-03-11)"
   sodipodi:docname="gmusicbrowser.svg">
  <defs
     id="defs823" />
  <sodipodi:namedview
     id="base"
     pagecolor="#ffffff"
     bordercolor="#666666"
     borderopacity="1.0"
     inkscape:pageopacity="0.0"
     inkscape:pageshadow="2"
     inkscape:zoom="3.9553786"
     inkscape:cx="24"
     inkscape:cy="24"
     inkscape:document-units="mm"
     inkscape:current-layer="layer1"
     showgrid="false"
     showguides="true"
     inkscape:guide-bbox="true"
     inkscape:window-width="1366"
     inkscape:window-height="714"
     inkscape:window-x="0"
     inkscape:window-y="25"
     inkscape:window-maximized="1"
     scale-x="1.9"
     units="px"
     inkscape:snap-global="false" />
  <metadata
     id="metadata826">
    <rdf:RDF>
      <cc:Work
         rdf:about="">
        <dc:format>image/svg+xml</dc:format>
        <dc:type
           rdf:resource="http://purl.org/dc/dcmitype/StillImage" />
        <dc:title></dc:title>
      </cc:Work>
    </rdf:RDF>
  </metadata>
  <g
     inkscape:label="Capa 1"
     inkscape:groupmode="layer"
     id="layer1"
     transform="translate(0,-284.3)">
    <path
       style="fill:#1a1a1a;fill-opacity:1;stroke-width:0.52516764"
       d="M 23.978516 0.27539062 A 23.770509 23.770509 0 0 0 0.20703125 24.046875 A 23.770509 23.770509 0 0 0 23.978516 47.816406 A 23.770509 23.770509 0 0 0 47.748047 24.046875 A 23.770509 23.770509 0 0 0 23.978516 0.27539062 z M 23.910156 3.8144531 A 20.436071 20.436071 0 0 1 44.345703 24.25 A 20.436071 20.436071 0 0 1 23.910156 44.685547 A 20.436071 20.436071 0 0 1 3.4726562 24.25 A 20.436071 20.436071 0 0 1 23.910156 3.8144531 z M 28.453125 6.6269531 L 28.453125 6.6308594 C 27.563605 6.5439302 28.041397 7.5932727 27.921875 8.1347656 C 27.913182 15.781355 27.940922 23.427037 27.910156 31.072266 C 27.77226 31.799976 26.915676 31.662789 26.398438 31.523438 C 23.164461 31.238461 19.56238 33.479067 19.101562 36.861328 C 18.619631 39.410015 21.212533 41.601806 23.623047 41.357422 C 26.940642 41.16769 29.604036 37.80627 29.160156 34.509766 C 29.167904 28.327328 29.14436 22.14243 29.171875 15.960938 C 29.284358 15.283949 30.163147 15.241451 30.572266 15.679688 C 33.622288 17.431083 36.362956 20.355359 36.605469 24.042969 C 36.738701 24.772531 36.506334 26.584556 36.558594 26.607422 C 37.626444 22.62157 36.526042 18.047183 33.488281 15.208984 C 31.302511 12.881211 29.373215 9.8422394 29.001953 6.7167969 C 28.823748 6.6498992 28.644967 6.6080555 28.453125 6.6269531 z M 23.279297 20.787109 C 15.534245 20.905031 9.2838794 27.16298 9.1660156 34.900391 L 11.648438 34.900391 C 11.766914 28.539408 16.911759 23.401981 23.279297 23.285156 L 23.279297 20.787109 z M 23.279297 26.5 C 18.679856 26.617921 14.99677 30.304939 14.878906 34.900391 L 17.113281 34.900391 C 17.230122 31.542885 19.918978 28.849247 23.279297 28.732422 L 23.279297 26.5 z "
       transform="matrix(0.26458333,0,0,0.26458333,0,284.3)"
       id="path822" />
  </g>
</svg>
