<?xml version="1.0" encoding="UTF-8" standalone="no"?>
<!-- Created with Inkscape (http://www.inkscape.org/) -->

<svg
   xmlns:dc="http://purl.org/dc/elements/1.1/"
   xmlns:cc="http://creativecommons.org/ns#"
   xmlns:rdf="http://www.w3.org/1999/02/22-rdf-syntax-ns#"
   xmlns:svg="http://www.w3.org/2000/svg"
   xmlns="http://www.w3.org/2000/svg"
   xmlns:sodipodi="http://sodipodi.sourceforge.net/DTD/sodipodi-0.dtd"
   xmlns:inkscape="http://www.inkscape.org/namespaces/inkscape"
   width="48"
   height="48"
   viewBox="0 0 12.7 12.7"
   version="1.1"
   id="svg829"
   inkscape:version="0.92.3 (2405546, 2018-03-11)"
   sodipodi:docname="gnome-cd.svg">
  <defs
     id="defs823" />
  <sodipodi:namedview
     id="base"
     pagecolor="#ffffff"
     bordercolor="#666666"
     borderopacity="1.0"
     inkscape:pageopacity="0.0"
     inkscape:pageshadow="2"
     inkscape:zoom="7.2478445"
     inkscape:cx="-6.1413964"
     inkscape:cy="20.061111"
     inkscape:document-units="mm"
     inkscape:current-layer="layer1"
     showgrid="false"
     showguides="true"
     inkscape:guide-bbox="true"
     inkscape:window-width="1366"
     inkscape:window-height="719"
     inkscape:window-x="0"
     inkscape:window-y="25"
     inkscape:window-maximized="1"
     scale-x="1.9"
     units="px"
     inkscape:snap-global="false" />
  <metadata
     id="metadata826">
    <rdf:RDF>
      <cc:Work
         rdf:about="">
        <dc:format>image/svg+xml</dc:format>
        <dc:type
           rdf:resource="http://purl.org/dc/dcmitype/StillImage" />
        <dc:title></dc:title>
      </cc:Work>
    </rdf:RDF>
  </metadata>
  <g
     inkscape:label="Capa 1"
     inkscape:groupmode="layer"
     id="layer1"
     transform="translate(0,-284.3)">
    <g
       transform="matrix(0.89357653,0,0,0.89357653,-0.80425663,283.47937)"
       style="color:#bebebe;font-weight:400;font-family:sans-serif;white-space:normal;fill:#1a1a1a"
       font-weight="400"
       id="g6">
      <path
         inkscape:connector-curvature="0"
         d="M 8,1 C 4.158,1 1,4.158 1,8 c 0,3.842 3.158,7 7,7 3.842,0 7,-3.158 7,-7 C 15,4.158 11.842,1 8,1 Z m 0,4 c 1.68,0 3,1.32 3,3 0,1.68 -1.32,3 -3,3 C 6.32,11 5,9.68 5,8 5,6.32 6.32,5 8,5 Z"
         overflow="visible"
         style="font-variant-ligatures:normal;font-variant-position:normal;font-variant-caps:normal;font-variant-numeric:normal;font-variant-alternates:normal;font-feature-settings:normal;text-indent:0;text-decoration:none;text-decoration-line:none;text-decoration-style:solid;text-decoration-color:#000000;text-transform:none;text-orientation:mixed;shape-padding:0;overflow:visible;isolation:auto;mix-blend-mode:normal;fill:#1a1a1a"
         id="path2" />
      <path
         inkscape:connector-curvature="0"
         d="M 8,6 C 6.901,6 6,6.901 6,8 6,9.099 6.901,10 8,10 9.099,10 10,9.099 10,8 10,6.901 9.099,6 8,6 Z M 8,7 C 8.558,7 9,7.442 9,8 9,8.558 8.558,9 8,9 7.442,9 7,8.558 7,8 7,7.442 7.442,7 8,7 Z"
         overflow="visible"
         style="font-variant-ligatures:normal;font-variant-position:normal;font-variant-caps:normal;font-variant-numeric:normal;font-variant-alternates:normal;font-feature-settings:normal;text-indent:0;text-decoration:none;text-decoration-line:none;text-decoration-style:solid;text-decoration-color:#000000;text-transform:none;text-orientation:mixed;shape-padding:0;overflow:visible;isolation:auto;mix-blend-mode:normal;fill:#1a1a1a"
         id="path4" />
    </g>
  </g>
</svg>
