<?xml version="1.0" encoding="UTF-8" standalone="no"?>
<!-- Created with Inkscape (http://www.inkscape.org/) -->

<svg
   xmlns:dc="http://purl.org/dc/elements/1.1/"
   xmlns:cc="http://creativecommons.org/ns#"
   xmlns:rdf="http://www.w3.org/1999/02/22-rdf-syntax-ns#"
   xmlns:svg="http://www.w3.org/2000/svg"
   xmlns="http://www.w3.org/2000/svg"
   xmlns:sodipodi="http://sodipodi.sourceforge.net/DTD/sodipodi-0.dtd"
   xmlns:inkscape="http://www.inkscape.org/namespaces/inkscape"
   width="48"
   height="48"
   viewBox="0 0 12.7 12.7"
   version="1.1"
   id="svg829"
   inkscape:version="0.92.3 (2405546, 2018-03-11)"
   sodipodi:docname="gnome-disks.svg">
  <defs
     id="defs823" />
  <sodipodi:namedview
     id="base"
     pagecolor="#ffffff"
     bordercolor="#666666"
     borderopacity="1.0"
     inkscape:pageopacity="0.0"
     inkscape:pageshadow="2"
     inkscape:zoom="3.9627443"
     inkscape:cx="24"
     inkscape:cy="24"
     inkscape:document-units="mm"
     inkscape:current-layer="layer1"
     showgrid="false"
     showguides="true"
     inkscape:guide-bbox="true"
     inkscape:window-width="1366"
     inkscape:window-height="719"
     inkscape:window-x="0"
     inkscape:window-y="25"
     inkscape:window-maximized="1"
     scale-x="1.9"
     units="px"
     inkscape:snap-global="true" />
  <metadata
     id="metadata826">
    <rdf:RDF>
      <cc:Work
         rdf:about="">
        <dc:format>image/svg+xml</dc:format>
        <dc:type
           rdf:resource="http://purl.org/dc/dcmitype/StillImage" />
        <dc:title></dc:title>
      </cc:Work>
    </rdf:RDF>
  </metadata>
  <g
     inkscape:label="Capa 1"
     inkscape:groupmode="layer"
     id="layer1"
     transform="translate(0,-284.3)">
    <path
       style="fill:#1a1a1a;fill-opacity:1;stroke-width:0.52331072"
       d="M 23.976562 0.29101562 A 23.68646 23.68646 0 0 0 0.2890625 23.978516 A 23.68646 23.68646 0 0 0 23.976562 47.662109 A 23.68646 23.68646 0 0 0 47.664062 23.978516 A 23.68646 23.68646 0 0 0 23.976562 0.29101562 z M 23.910156 3.8144531 A 20.363814 20.363814 0 0 1 44.273438 24.181641 A 20.363814 20.363814 0 0 1 23.910156 44.544922 A 20.363814 20.363814 0 0 1 3.5429688 24.181641 A 20.363814 20.363814 0 0 1 23.910156 3.8144531 z M 13.808594 10.269531 C 12.855252 10.269531 12.308401 10.402587 12.107422 11.154297 L 7.4980469 28.263672 L 40.501953 28.28125 L 35.517578 11.154297 C 35.37667 10.66515 34.640065 10.269531 34.019531 10.269531 L 13.808594 10.269531 z M 21.625 11.478516 C 21.694899 11.459618 21.789329 11.455838 21.859375 11.478516 C 23.492964 11.979643 24.996961 13.105904 25.683594 14.40625 C 26.227332 15.436058 26.281839 16.602041 25.951172 17.732422 C 26.238722 18.526614 26.827788 19.552358 27.978516 20.693359 L 33.667969 26.314453 L 27.148438 26.314453 L 24.71875 23.919922 C 23.44225 22.654196 22.328977 22.105057 21.492188 21.857422 C 19.396821 22.317731 17.307241 21.538437 16.369141 19.761719 C 15.68224 18.460768 15.601193 16.516209 16.070312 14.804688 C 16.087207 14.744593 16.092903 14.68516 16.136719 14.638672 C 16.217918 14.549475 16.353433 14.497544 16.46875 14.505859 C 16.584128 14.513418 16.68388 14.572851 16.736328 14.671875 L 18.597656 18.263672 C 18.766 18.582664 19.169219 18.705297 19.695312 18.664062 C 20.224531 18.620976 20.877879 18.403307 21.525391 18.03125 C 22.172764 17.658967 22.707243 17.213827 23.023438 16.767578 C 23.336632 16.325487 23.423772 15.888322 23.255859 15.570312 L 21.392578 12.009766 C 21.322381 11.882773 21.356964 11.730005 21.458984 11.611328 C 21.509963 11.552367 21.555105 11.499303 21.625 11.478516 z M 7.5078125 29.417969 L 8.2402344 33.730469 L 39.832031 33.730469 L 40.492188 29.417969 L 7.5078125 29.417969 z "
       transform="matrix(0.26458333,0,0,0.26458333,0,284.3)"
       id="path822" />
  </g>
</svg>
