<?xml version="1.0" encoding="UTF-8" standalone="no"?>
<!-- Created with Inkscape (http://www.inkscape.org/) -->

<svg
   xmlns:dc="http://purl.org/dc/elements/1.1/"
   xmlns:cc="http://creativecommons.org/ns#"
   xmlns:rdf="http://www.w3.org/1999/02/22-rdf-syntax-ns#"
   xmlns:svg="http://www.w3.org/2000/svg"
   xmlns="http://www.w3.org/2000/svg"
   xmlns:sodipodi="http://sodipodi.sourceforge.net/DTD/sodipodi-0.dtd"
   xmlns:inkscape="http://www.inkscape.org/namespaces/inkscape"
   width="48"
   height="48"
   viewBox="0 0 12.7 12.7"
   version="1.1"
   id="svg829"
   inkscape:version="0.92.3 (2405546, 2018-03-11)"
   sodipodi:docname="gnome-mahjongg.svg">
  <defs
     id="defs823" />
  <sodipodi:namedview
     id="base"
     pagecolor="#ffffff"
     bordercolor="#666666"
     borderopacity="1.0"
     inkscape:pageopacity="0.0"
     inkscape:pageshadow="2"
     inkscape:zoom="5.6041667"
     inkscape:cx="24"
     inkscape:cy="24"
     inkscape:document-units="mm"
     inkscape:current-layer="layer1"
     showgrid="false"
     showguides="true"
     inkscape:guide-bbox="true"
     inkscape:window-width="1366"
     inkscape:window-height="719"
     inkscape:window-x="0"
     inkscape:window-y="25"
     inkscape:window-maximized="1"
     scale-x="1.9"
     units="px"
     inkscape:snap-global="true" />
  <metadata
     id="metadata826">
    <rdf:RDF>
      <cc:Work
         rdf:about="">
        <dc:format>image/svg+xml</dc:format>
        <dc:type
           rdf:resource="http://purl.org/dc/dcmitype/StillImage" />
        <dc:title></dc:title>
      </cc:Work>
    </rdf:RDF>
  </metadata>
  <g
     inkscape:label="Capa 1"
     inkscape:groupmode="layer"
     id="layer1"
     transform="translate(0,-284.3)">
    <path
       style="fill:#1a1a1a;fill-opacity:1;stroke-width:0.52516764"
       d="M 23.978516 0.27539062 A 23.770509 23.770509 0 0 0 0.20703125 24.046875 A 23.770509 23.770509 0 0 0 23.978516 47.816406 A 23.770509 23.770509 0 0 0 47.748047 24.046875 A 23.770509 23.770509 0 0 0 23.978516 0.27539062 z M 23.910156 3.8144531 A 20.436071 20.436071 0 0 1 44.345703 24.25 A 20.436071 20.436071 0 0 1 23.910156 44.685547 A 20.436071 20.436071 0 0 1 3.4726562 24.25 A 20.436071 20.436071 0 0 1 23.910156 3.8144531 z M 20.730469 5.8632812 C 20.033731 5.8149033 19.343676 6.1796614 19.007812 6.8417969 C 18.559996 7.7245055 18.912191 8.8021638 19.794922 9.25 L 20.582031 9.6484375 C 21.585198 10.157086 22.207031 11.172201 22.207031 12.296875 L 22.207031 14.701172 L 15.179688 14.701172 C 14.638914 14.701172 14.125439 14.942771 13.785156 15.363281 C 13.444874 15.783603 13.313111 16.336138 13.425781 16.865234 L 15.265625 25.509766 C 15.441857 26.33718 16.171651 26.927734 17.017578 26.927734 L 22.207031 26.927734 L 22.207031 40.347656 C 22.207031 41.337439 23.008263 42.140625 23.998047 42.140625 C 24.987832 42.140625 25.791016 41.337439 25.791016 40.347656 L 25.791016 26.927734 L 30.982422 26.927734 C 31.828348 26.927734 32.55814 26.33718 32.734375 25.509766 L 34.574219 16.865234 C 34.68689 16.336252 34.555126 15.783716 34.214844 15.363281 C 33.874562 14.942922 33.361086 14.701172 32.820312 14.701172 L 25.791016 14.701172 L 25.791016 12.296875 C 25.791016 9.8144057 24.416877 7.5757581 22.203125 6.453125 L 21.417969 6.0546875 C 21.197286 5.9428135 20.962714 5.8795332 20.730469 5.8632812 z M 17.392578 18.285156 L 22.207031 18.285156 L 22.207031 23.34375 L 18.46875 23.34375 L 17.392578 18.285156 z M 25.791016 18.285156 L 30.607422 18.285156 L 29.53125 23.34375 L 25.791016 23.34375 L 25.791016 18.285156 z "
       transform="matrix(0.26458333,0,0,0.26458333,0,284.3)"
       id="path822" />
  </g>
</svg>
