<?xml version="1.0" encoding="UTF-8" standalone="no"?>
<!-- Created with Inkscape (http://www.inkscape.org/) -->

<svg
   xmlns:dc="http://purl.org/dc/elements/1.1/"
   xmlns:cc="http://creativecommons.org/ns#"
   xmlns:rdf="http://www.w3.org/1999/02/22-rdf-syntax-ns#"
   xmlns:svg="http://www.w3.org/2000/svg"
   xmlns="http://www.w3.org/2000/svg"
   xmlns:sodipodi="http://sodipodi.sourceforge.net/DTD/sodipodi-0.dtd"
   xmlns:inkscape="http://www.inkscape.org/namespaces/inkscape"
   width="48"
   height="48"
   viewBox="0 0 12.7 12.7"
   version="1.1"
   id="svg829"
   inkscape:version="0.92.3 (2405546, 2018-03-11)"
   sodipodi:docname="gnomebaker3.svg">
  <defs
     id="defs823">
    <radialGradient
       id="radialGradient2539"
       cx="8.8913002"
       cy="12.123"
       r="11"
       gradientTransform="matrix(0,0.95303665,-1.2453213,0,21.45613,279.94167)"
       gradientUnits="userSpaceOnUse">
      <stop
         id="stop3841"
         style="stop-color:#ffed8c"
         offset="0" />
      <stop
         id="stop3843"
         style="stop-color:#fb9858"
         offset=".26238" />
      <stop
         id="stop3845"
         style="stop-color:#dc572a"
         offset=".66094" />
      <stop
         id="stop3847"
         style="stop-color:#9f3110"
         offset="1" />
    </radialGradient>
    <radialGradient
       id="radialGradient2539-6"
       cx="8.8913002"
       cy="12.123"
       r="11"
       gradientTransform="matrix(0,1.0448327,-1.3652702,0,22.757511,279.54008)"
       gradientUnits="userSpaceOnUse">
      <stop
         id="stop3841-2"
         style="stop-color:#ffed8c"
         offset="0" />
      <stop
         id="stop3843-9"
         style="stop-color:#fb9858"
         offset=".26238" />
      <stop
         id="stop3845-1"
         style="stop-color:#dc572a"
         offset=".66094" />
      <stop
         id="stop3847-2"
         style="stop-color:#9f3110"
         offset="1" />
    </radialGradient>
  </defs>
  <sodipodi:namedview
     id="base"
     pagecolor="#ffffff"
     bordercolor="#666666"
     borderopacity="1.0"
     inkscape:pageopacity="0.0"
     inkscape:pageshadow="2"
     inkscape:zoom="5.6041667"
     inkscape:cx="24"
     inkscape:cy="24"
     inkscape:document-units="mm"
     inkscape:current-layer="layer1"
     showgrid="false"
     showguides="true"
     inkscape:guide-bbox="true"
     inkscape:window-width="1366"
     inkscape:window-height="719"
     inkscape:window-x="0"
     inkscape:window-y="25"
     inkscape:window-maximized="1"
     scale-x="1.9"
     units="px"
     inkscape:snap-global="true" />
  <metadata
     id="metadata826">
    <rdf:RDF>
      <cc:Work
         rdf:about="">
        <dc:format>image/svg+xml</dc:format>
        <dc:type
           rdf:resource="http://purl.org/dc/dcmitype/StillImage" />
        <dc:title></dc:title>
      </cc:Work>
    </rdf:RDF>
  </metadata>
  <g
     inkscape:label="Capa 1"
     inkscape:groupmode="layer"
     id="layer1"
     transform="translate(0,-284.3)">
    <g
       id="g862">
      <path
         id="path989"
         transform="matrix(0.26458333,0,0,0.26458333,0,284.3)"
         d="M 23.396484 0.1328125 C 10.499718 0.43895423 0.21875 10.899554 0.21875 23.873047 C 0.21875 37.040921 10.806729 47.628906 23.974609 47.628906 C 31.670417 47.628906 38.467866 43.997763 42.802734 38.363281 L 30.611328 29.511719 C 30.631927 29.489042 30.645871 29.463705 30.666016 29.441406 C 29.084903 31.347649 26.697009 32.564453 23.974609 32.564453 C 18.999366 32.564453 15.283203 28.560228 15.283203 23.873047 C 15.283203 19.167951 18.698849 15.31763 23.728516 15.193359 L 23.396484 15.181641 C 23.396484 10.165338 23.396607 5.1491527 23.396484 0.1328125 z M 23.824219 17.580078 A 6.2526255 6.2998144 0 0 0 17.570312 23.878906 A 6.2526255 6.2998144 0 0 0 23.824219 30.177734 A 6.2526255 6.2998144 0 0 0 30.074219 23.878906 A 6.2526255 6.2998144 0 0 0 23.824219 17.580078 z M 23.867188 20.078125 A 3.8808329 3.910122 0 0 1 27.746094 23.988281 A 3.8808329 3.910122 0 0 1 23.867188 27.896484 A 3.8808329 3.910122 0 0 1 19.984375 23.988281 A 3.8808329 3.910122 0 0 1 23.867188 20.078125 z "
         style="fill:#1a1a1a;stroke:none;stroke-width:1.15883839" />
      <path
         inkscape:connector-curvature="0"
         style="opacity:0.75;fill:#d4ff2a;stroke:none;stroke-width:0.30660933;stroke-linecap:round;stroke-linejoin:round"
         d="m 6.1901823,284.33086 c 3.3e-5,1.32862 0,2.65728 0,3.98592 1.358156,-0.0331 2.677282,1.24817 2.427211,2.64048 -0.07802,0.45366 -0.227213,0.83459 -0.517801,1.15074 l 3.2258367,2.3425 c 1.376124,-1.71393 1.685799,-4.21619 0.825699,-6.24932 -0.739635,-1.78777 -2.3390307,-3.24729 -4.2551257,-3.64375 -0.560788,-0.11886 -1.129671,-0.24249 -1.705913,-0.22637 z"
         id="path2559-7" />
    </g>
  </g>
</svg>
