<?xml version="1.0" encoding="UTF-8" standalone="no"?>
<!-- Created with Inkscape (http://www.inkscape.org/) -->

<svg
   xmlns:dc="http://purl.org/dc/elements/1.1/"
   xmlns:cc="http://creativecommons.org/ns#"
   xmlns:rdf="http://www.w3.org/1999/02/22-rdf-syntax-ns#"
   xmlns:svg="http://www.w3.org/2000/svg"
   xmlns="http://www.w3.org/2000/svg"
   xmlns:sodipodi="http://sodipodi.sourceforge.net/DTD/sodipodi-0.dtd"
   xmlns:inkscape="http://www.inkscape.org/namespaces/inkscape"
   width="48"
   height="48"
   viewBox="0 0 12.7 12.7"
   version="1.1"
   id="svg829"
   inkscape:version="0.92.3 (2405546, 2018-03-11)"
   sodipodi:docname="gnome-session-hibernate.svg">
  <defs
     id="defs823" />
  <sodipodi:namedview
     id="base"
     pagecolor="#ffffff"
     bordercolor="#666666"
     borderopacity="1.0"
     inkscape:pageopacity="0.0"
     inkscape:pageshadow="2"
     inkscape:zoom="11.208333"
     inkscape:cx="24"
     inkscape:cy="24"
     inkscape:document-units="mm"
     inkscape:current-layer="layer1"
     showgrid="false"
     showguides="true"
     inkscape:guide-bbox="true"
     inkscape:window-width="1366"
     inkscape:window-height="719"
     inkscape:window-x="0"
     inkscape:window-y="25"
     inkscape:window-maximized="1"
     scale-x="1.9"
     units="px"
     inkscape:snap-global="false" />
  <metadata
     id="metadata826">
    <rdf:RDF>
      <cc:Work
         rdf:about="">
        <dc:format>image/svg+xml</dc:format>
        <dc:type
           rdf:resource="http://purl.org/dc/dcmitype/StillImage" />
        <dc:title></dc:title>
      </cc:Work>
    </rdf:RDF>
  </metadata>
  <g
     inkscape:label="Capa 1"
     inkscape:groupmode="layer"
     id="layer1"
     transform="translate(0,-284.3)">
    <path
       style="opacity:1;fill:#1a1a1a;fill-opacity:1;stroke:none;stroke-width:0.89894438"
       d="M 19.267578 2.984375 A 21.437228 21.380516 57.147397 0 0 2.5605469 19.328125 A 21.437228 21.380516 57.147397 0 0 11.259766 41.556641 A 21.437228 21.380516 57.147397 0 0 34.970703 42.0625 A 27.304354 21.380534 58.201936 0 1 29.216797 38.341797 A 27.304354 21.380534 58.201936 0 1 17.132812 10.650391 A 27.304354 21.380534 58.201936 0 1 19.267578 2.984375 z M 23.220703 4.8515625 L 23.220703 6.5175781 L 32.246094 6.5175781 L 22.994141 17.974609 L 22.994141 19.484375 L 34.943359 19.484375 L 34.943359 17.818359 L 25.464844 17.818359 L 34.716797 6.359375 L 34.716797 4.8515625 L 23.220703 4.8515625 z M 33.308594 23.076172 L 33.308594 24.707031 L 42.146484 24.707031 L 33.087891 35.923828 L 33.087891 37.400391 L 44.783203 37.400391 L 44.783203 35.769531 L 35.505859 35.769531 L 44.5625 24.554688 L 44.5625 23.076172 L 33.308594 23.076172 z "
       transform="matrix(0.26458333,0,0,0.26458333,0,284.3)"
       id="path1456" />
  </g>
</svg>
