<?xml version="1.0" encoding="UTF-8" standalone="no"?>
<!-- Created with Inkscape (http://www.inkscape.org/) -->

<svg
   xmlns:dc="http://purl.org/dc/elements/1.1/"
   xmlns:cc="http://creativecommons.org/ns#"
   xmlns:rdf="http://www.w3.org/1999/02/22-rdf-syntax-ns#"
   xmlns:svg="http://www.w3.org/2000/svg"
   xmlns="http://www.w3.org/2000/svg"
   xmlns:sodipodi="http://sodipodi.sourceforge.net/DTD/sodipodi-0.dtd"
   xmlns:inkscape="http://www.inkscape.org/namespaces/inkscape"
   width="48"
   height="48"
   viewBox="0 0 12.7 12.7"
   version="1.1"
   id="svg829"
   inkscape:version="0.92.3 (2405546, 2018-03-11)"
   sodipodi:docname="google-plus.svg">
  <defs
     id="defs823" />
  <sodipodi:namedview
     id="base"
     pagecolor="#ffffff"
     bordercolor="#666666"
     borderopacity="1.0"
     inkscape:pageopacity="0.0"
     inkscape:pageshadow="2"
     inkscape:zoom="1.9703236"
     inkscape:cx="24"
     inkscape:cy="24"
     inkscape:document-units="mm"
     inkscape:current-layer="layer1"
     showgrid="false"
     showguides="true"
     inkscape:guide-bbox="true"
     inkscape:window-width="1366"
     inkscape:window-height="714"
     inkscape:window-x="0"
     inkscape:window-y="25"
     inkscape:window-maximized="1"
     scale-x="1.9"
     units="px"
     inkscape:snap-global="false" />
  <metadata
     id="metadata826">
    <rdf:RDF>
      <cc:Work
         rdf:about="">
        <dc:format>image/svg+xml</dc:format>
        <dc:type
           rdf:resource="http://purl.org/dc/dcmitype/StillImage" />
        <dc:title></dc:title>
      </cc:Work>
    </rdf:RDF>
  </metadata>
  <g
     inkscape:label="Capa 1"
     inkscape:groupmode="layer"
     id="layer1"
     transform="translate(0,-284.3)">
    <path
       style="fill:#1a1a1a;fill-opacity:1;stroke-width:0.52516764"
       d="M 23.978516 0.27539062 A 23.770509 23.770509 0 0 0 0.20703125 24.046875 A 23.770509 23.770509 0 0 0 23.978516 47.816406 A 23.770509 23.770509 0 0 0 47.748047 24.046875 A 23.770509 23.770509 0 0 0 23.978516 0.27539062 z M 23.910156 3.8144531 A 20.436071 20.436071 0 0 1 44.345703 24.25 A 20.436071 20.436071 0 0 1 23.910156 44.685547 A 20.436071 20.436071 0 0 1 3.4726562 24.25 A 20.436071 20.436071 0 0 1 23.910156 3.8144531 z "
       transform="matrix(0.26458333,0,0,0.26458333,0,284.3)"
       id="path829" />
    <path
       inkscape:connector-curvature="0"
       style="fill:#d40000;stroke-width:0.04931962;opacity:0.75"
       d="m 5.5796121,286.45478 c -0.8917477,0 -1.509557,0.19566 -2.0651452,0.65466 -0.4369474,0.37697 -0.6974159,0.92494 -0.6974159,1.46573 0,0.83317 0.6346978,1.71903 1.8118229,1.71903 0.1131788,0 0.2386494,-0.0132 0.3492295,-0.0221 l -0.015647,0.0396 c -0.047315,0.11374 -0.09278,0.21985 -0.09278,0.38676 0,0.32497 0.1570007,0.52561 0.3085727,0.7193 l 0.018764,0.0239 -0.033359,0.002 c -0.4860853,0.0333 -1.3907112,0.0952 -2.0515932,0.50143 -0.7805609,0.46409 -0.8412777,1.13863 -0.8412777,1.33438 0,0.77892 0.7258704,1.56576 2.347656,1.56576 1.8857568,0 2.8720212,-1.04059 2.8720212,-2.06822 1.739e-4,-0.76013 -0.4453351,-1.1351 -0.9184212,-1.5335 l -0.399264,-0.3101 c -0.1233174,-0.10195 -0.2762563,-0.2294 -0.2762563,-0.46494 0,-0.23156 0.1532265,-0.38431 0.2887663,-0.51915 l 0.014587,-0.0145 c 0.4309693,-0.33945 0.9194644,-0.72393 0.9194644,-1.55641 0,-0.83697 -0.5230679,-1.26928 -0.7745598,-1.47721 h 0.6640574 c 0.00812,0 0.01618,-0.001 0.022937,-0.0114 l 0.5712773,-0.35966 c 0.016323,-0.0124 0.024136,-0.0303 0.018764,-0.0491 -0.0051,-0.0178 -0.022464,-0.0315 -0.041701,-0.0315 z m -0.7964515,0.41385 c 0.8857689,0 1.375025,1.19017 1.3750261,2.01303 0,0.12982 -3.182e-4,0.52529 -0.2731289,0.79958 -0.1834627,0.18317 -0.4815647,0.30645 -0.7422429,0.30645 -0.964717,0 -1.3646013,-1.26832 -1.3646013,-1.94732 0,-0.34527 0.078231,-0.61093 0.2397695,-0.81104 0.175317,-0.21935 0.4759013,-0.3607 0.7651775,-0.3607 z m 4.0510616,2.41124 c -0.02392,0 -0.043785,0.0204 -0.043785,0.0441 v 1.05083 H 7.7417071 c -0.02392,0 -0.043785,0.0178 -0.043785,0.0428 v 0.45973 c 0,0.0238 0.019873,0.0441 0.043785,0.0441 h 1.0487313 v 1.05708 c 0,0.0238 0.019874,0.0441 0.043785,0.0441 h 0.4534773 c 0.023832,0 0.042743,-0.0204 0.042743,-0.0441 v -1.05708 h 1.0549853 c 0.02392,0 0.04378,-0.0204 0.04378,-0.0441 v -0.45973 c 0,-0.0239 -0.01979,-0.0428 -0.04378,-0.0428 H 9.3304417 v -1.05083 c 0,-0.0238 -0.018905,-0.0441 -0.042743,-0.0441 z m -3.5162714,2.46965 c 0.1089325,0 0.1631866,-5.2e-4 0.2501942,0.0124 0.8043066,0.57244 1.1915504,0.87355 1.1915504,1.44595 -8.67e-5,0.72914 -0.6151318,1.18216 -1.6054134,1.18216 -1.1494797,0 -1.9223257,-0.53735 -1.9223257,-1.33647 0,-0.52179 0.3160843,-0.90047 0.9382281,-1.12587 0.498218,-0.16769 1.1413561,-0.1761 1.1477664,-0.1761 z"
       id="path835" />
  </g>
</svg>
