<?xml version="1.0" encoding="UTF-8" standalone="no"?>
<!-- Created with Inkscape (http://www.inkscape.org/) -->

<svg
   xmlns:dc="http://purl.org/dc/elements/1.1/"
   xmlns:cc="http://creativecommons.org/ns#"
   xmlns:rdf="http://www.w3.org/1999/02/22-rdf-syntax-ns#"
   xmlns:svg="http://www.w3.org/2000/svg"
   xmlns="http://www.w3.org/2000/svg"
   xmlns:xlink="http://www.w3.org/1999/xlink"
   xmlns:sodipodi="http://sodipodi.sourceforge.net/DTD/sodipodi-0.dtd"
   xmlns:inkscape="http://www.inkscape.org/namespaces/inkscape"
   id="svg11300"
   width="24"
   height="24"
   version="1.0"
   sodipodi:docname="gtk-preferences.svg"
   inkscape:version="0.92.3 (2405546, 2018-03-11)">
  <metadata
     id="metadata56">
    <rdf:RDF>
      <cc:Work
         rdf:about="">
        <dc:format>image/svg+xml</dc:format>
        <dc:type
           rdf:resource="http://purl.org/dc/dcmitype/StillImage" />
        <dc:title></dc:title>
      </cc:Work>
    </rdf:RDF>
  </metadata>
  <sodipodi:namedview
     pagecolor="#ffffff"
     bordercolor="#666666"
     borderopacity="1"
     objecttolerance="10"
     gridtolerance="10"
     guidetolerance="10"
     inkscape:pageopacity="0"
     inkscape:pageshadow="2"
     inkscape:window-width="1366"
     inkscape:window-height="690"
     id="namedview54"
     showgrid="false"
     inkscape:zoom="20.625"
     inkscape:cx="12"
     inkscape:cy="12"
     inkscape:window-x="0"
     inkscape:window-y="28"
     inkscape:window-maximized="1"
     inkscape:current-layer="svg11300"
     showguides="true"
     inkscape:guide-bbox="true"
     inkscape:snap-global="false" />
  <defs
     id="defs3">
    <linearGradient
       id="linearGradient5060">
      <stop
         id="stop5062"
         offset="0" />
      <stop
         id="stop5064"
         style="stop-opacity:0"
         offset="1" />
    </linearGradient>
    <linearGradient
       id="linearGradient6402">
      <stop
         id="stop6404"
         style="stop-color:#cd8033"
         offset="0" />
      <stop
         id="stop6406"
         style="stop-color:#bb5e12"
         offset="1" />
    </linearGradient>
    <linearGradient
       id="linearGradient2229">
      <stop
         id="stop2231"
         style="stop-color:#e2e2e2"
         offset="0" />
      <stop
         id="stop2233"
         style="stop-color:#d8d8d8"
         offset="1" />
    </linearGradient>
    <linearGradient
       id="XMLID_897_"
       x1="292.97"
       x2="296.94"
       y1="4.7593002"
       y2="10.711"
       gradientUnits="userSpaceOnUse">
      <stop
         id="stop45093"
         style="stop-color:#e8e8e5"
         offset="0" />
      <stop
         id="stop45095"
         style="stop-color:#f0f0f0"
         offset="1" />
    </linearGradient>
    <linearGradient
       id="linearGradient5568"
       x1="99.561996"
       x2="99.5"
       y1="33.062"
       y2="50.938"
       gradientTransform="translate(-96,-31)"
       gradientUnits="userSpaceOnUse"
       xlink:href="#linearGradient6402" />
    <linearGradient
       id="linearGradient5572"
       x1="103.12"
       x2="103.19"
       y1="33.062"
       y2="50.875"
       gradientTransform="translate(-94,-29)"
       gradientUnits="userSpaceOnUse"
       xlink:href="#linearGradient6402" />
    <radialGradient
       id="radialGradient5576"
       cx="97.487"
       cy="34.751999"
       r="7.9994001"
       gradientTransform="matrix(0.50278,0.022099,-0.043911,0.99904,-45.001,-33.121)"
       gradientUnits="userSpaceOnUse">
      <stop
         id="stop3101"
         style="stop-color:#fff"
         offset="0" />
      <stop
         id="stop3103"
         style="stop-color:#fff;stop-opacity:0"
         offset="1" />
    </radialGradient>
    <linearGradient
       id="linearGradient5579"
       x1="25.243"
       x2="25.283001"
       y1="11.413"
       y2="67.294998"
       gradientTransform="matrix(0.54053,0,0,0.54052,-4.0945,-5.2556)"
       gradientUnits="userSpaceOnUse">
      <stop
         id="stop4105"
         style="stop-color:#edd563"
         offset="0" />
      <stop
         id="stop4107"
         style="stop-color:#e08223"
         offset="1" />
    </linearGradient>
    <linearGradient
       id="linearGradient5581"
       x1="101.06"
       x2="101.06"
       y1="33"
       y2="51.014"
       gradientTransform="matrix(1.1764,0,0,1.1754,-113.02,-37.873)"
       gradientUnits="userSpaceOnUse"
       xlink:href="#linearGradient6402" />
    <linearGradient
       id="linearGradient6369"
       x1="20.288"
       x2="24.326"
       y1="6.4604001"
       y2="23.943001"
       gradientTransform="matrix(0.2586,-0.11906,0.14843,0.31429,3.8574,3.8855)"
       gradientUnits="userSpaceOnUse"
       xlink:href="#linearGradient2229" />
    <linearGradient
       id="linearGradient6372"
       x1="295.10001"
       x2="296.94"
       y1="7.7641001"
       y2="10.711"
       gradientTransform="matrix(1.0482,-0.48262,0.61399,1.3001,-301.9,140.11)"
       gradientUnits="userSpaceOnUse"
       xlink:href="#XMLID_897_" />
    <linearGradient
       id="linearGradient6379"
       x1="293.67999"
       x2="296.94"
       y1="5.4689999"
       y2="10.711"
       gradientTransform="matrix(-1.0271,0.49207,0.59077,1.3017,312.13,-148.21)"
       gradientUnits="userSpaceOnUse"
       xlink:href="#XMLID_897_" />
    <linearGradient
       id="linearGradient5808"
       x1="302.85999"
       x2="302.85999"
       y1="366.64999"
       y2="609.51001"
       gradientTransform="matrix(0.065587,0,0,0.036985,3.3658,83.447)"
       gradientUnits="userSpaceOnUse">
      <stop
         id="stop5050"
         style="stop-opacity:0"
         offset="0" />
      <stop
         id="stop5056"
         offset=".5" />
      <stop
         id="stop5052"
         style="stop-opacity:0"
         offset="1" />
    </linearGradient>
    <radialGradient
       id="radialGradient5810"
       cx="605.71002"
       cy="486.64999"
       r="117.14"
       gradientTransform="matrix(0.065587,0,0,0.036985,3.3787,83.447)"
       gradientUnits="userSpaceOnUse"
       xlink:href="#linearGradient5060" />
    <radialGradient
       id="radialGradient5812"
       cx="605.71002"
       cy="486.64999"
       r="117.14"
       gradientTransform="matrix(-0.065587,0,0,0.036985,50.763,83.447)"
       gradientUnits="userSpaceOnUse"
       xlink:href="#linearGradient5060" />
  </defs>
  <path
     style="fill:#1a1a1a;stroke-width:0.00234475"
     d="m 11.707968,1.2965173 c -0.153918,0.00328 -0.293525,0.013523 -0.405252,0.031105 -2.395159,0.3765661 -4.1423448,2.5507488 -3.9716469,4.9456734 0.030241,0.4469095 0.1358071,0.984185 0.2363965,1.2353076 0.045256,0.1153621 0.03015,0.1707398 -0.1253079,0.4016969 -0.6476187,0.9791671 -0.5323868,2.2095608 0.2861646,3.0482768 0.1807803,0.185704 0.7280316,0.501679 1.0042432,0.582105 0.075269,0.02509 0.085316,0.0951 0.085316,0.582105 0,0.672943 0.064777,0.873845 0.3208244,0.979359 0.2612054,0.110438 5.4729891,0.110438 5.7339591,0 0.251123,-0.105514 0.321714,-0.305732 0.321714,-0.953586 0,-0.461916 0.01046,-0.532133 0.09065,-0.557222 0.587593,-0.195785 1.194738,-0.728209 1.455708,-1.280631 0.396731,-0.8335567 0.306524,-1.8427919 -0.225732,-2.5408231 L 16.348815,7.553928 16.449239,7.2375464 C 16.946325,5.675945 16.478915,3.8681461 15.269031,2.658022 14.706761,2.0957514 13.883651,1.6240678 13.110354,1.4280472 12.760048,1.3378349 12.169723,1.2865924 11.707968,1.2965173 Z m 2.466171,6.5693477 c 0.27583,-0.010384 0.644679,0.050007 0.844275,0.1555249 0.3013,0.1505332 0.572571,0.426247 0.733187,0.7376288 0.100354,0.1857048 0.120864,0.3017248 0.120864,0.6532028 0,0.366484 -0.02061,0.461246 -0.135973,0.6771965 -0.160614,0.301301 -0.436738,0.572336 -0.742961,0.733186 -0.185705,0.100355 -0.301725,0.120865 -0.653203,0.120865 -0.351477,0 -0.466609,-0.02051 -0.652314,-0.120865 C 13.381791,10.661989 13.105668,10.390719 12.945053,10.089418 12.829691,9.8734685 12.80908,9.7787055 12.80908,9.4122215 c 0,-0.351478 0.02051,-0.467498 0.120865,-0.6532028 0.211027,-0.4068131 0.577019,-0.7178091 1.008686,-0.8584939 0.06149,-0.020103 0.143565,-0.031196 0.235508,-0.034663 z M 9.6550473,7.9698443 c 0.275357,-0.026082 0.5948937,0.035938 0.8096147,0.1715206 0.818551,0.5071696 0.878266,1.5771316 0.119976,2.1595661 C 10.017209,10.732833 9.2341656,10.612135 8.7823328,10.024542 8.2601576,9.3417515 8.5715877,8.3320573 9.3999863,8.0258327 c 0.07655,-0.028839 0.163275,-0.047295 0.255061,-0.055986 z M 20.006746,10.793277 c -0.182011,-0.01633 -0.361059,0.03805 -0.494123,0.166188 -0.150532,0.145609 -0.301273,0.501953 -0.301273,0.712746 0,0.160615 -0.110308,0.362121 -0.286165,0.527894 -0.07527,0.07527 -1.100146,0.597261 -2.275099,1.159767 -1.174952,0.56743 -2.716087,1.315569 -3.424201,1.661889 l -1.295739,0.631873 -1.290408,-0.631873 C 9.9267003,14.675211 8.385157,13.926412 7.2102041,13.358984 6.0352511,12.796713 5.011261,12.274717 4.9359944,12.199217 4.7451318,12.018436 4.6498298,11.827597 4.6498298,11.626887 4.6449155,11.416095 4.4992219,11.094716 4.3334491,10.939025 4.1428204,10.768328 3.7761199,10.743649 3.5451628,10.889255 c -0.3664847,0.230958 -0.4722431,0.481423 -0.4319138,1.05401 0.02509,0.391572 0.014734,0.45229 -0.075542,0.567886 -0.060263,0.07527 -0.1855743,0.175555 -0.2861646,0.225732 -0.6778657,0.34632 -0.8134689,1.180281 -0.2612806,1.551689 0.230958,0.155691 0.5831397,0.134878 0.9446993,-0.05599 0.401655,-0.210792 0.627343,-0.185666 1.315291,0.130641 1.3156377,0.612682 4.9207902,2.364828 4.9207902,2.395074 0,0.01501 -1.2149364,0.618251 -2.6963479,1.331288 -3.0629427,1.471329 -3.0328713,1.460963 -3.5299577,1.199759 -0.3716419,-0.195786 -0.7235169,-0.216121 -0.9544749,-0.06044 -0.5423399,0.361561 -0.4059213,1.119613 0.2719453,1.546357 0.1556914,0.09543 0.296216,0.221052 0.3163807,0.276389 0.015007,0.05533 0.02448,0.286098 0.019557,0.511897 -0.00491,0.281136 0.01487,0.467019 0.07021,0.602545 0.2009449,0.476922 0.6482903,0.693055 1.0300155,0.492346 0.2560469,-0.130603 0.3609872,-0.336287 0.4763492,-0.94381 0.070346,-0.366485 0.2064971,-0.441762 3.8267871,-2.194226 l 3.4286444,-1.656557 1.441488,0.697638 c 4.66464,2.25424 5.428108,2.63626 5.553552,2.75678 0.195787,0.185704 0.286164,0.371721 0.286164,0.587437 0,0.617607 0.642753,1.033495 1.104668,0.717189 0.09543,-0.06519 0.23093,-0.220744 0.301272,-0.341264 0.110437,-0.200945 0.125309,-0.28641 0.125309,-0.718078 0,-0.492163 2.41e-4,-0.496828 0.160856,-0.627429 0.08535,-0.07527 0.230317,-0.181061 0.320824,-0.236398 0.260971,-0.15569 0.467462,-0.536855 0.467462,-0.853162 0,-0.652777 -0.592509,-0.913623 -1.275299,-0.557222 -0.497086,0.260971 -0.46684,0.271336 -3.524626,-1.199758 -1.486335,-0.713038 -2.70168,-1.316281 -2.70168,-1.331289 0,-0.03001 3.605388,-1.782391 4.920791,-2.395074 0.698031,-0.321465 0.888791,-0.341332 1.365947,-0.115533 0.386649,0.185704 0.662605,0.196162 0.898487,0.03555 0.547264,-0.361559 0.406911,-1.200518 -0.255949,-1.541912 -0.331313,-0.170698 -0.366221,-0.245671 -0.356373,-0.767846 0.0049,-0.502246 -0.05039,-0.723549 -0.246172,-0.924259 -0.143148,-0.153112 -0.32811,-0.239624 -0.51012,-0.255949 z m -8.681812,0.329711 c 0.09857,0.0038 0.193911,0.03661 0.254171,0.09687 0.125445,0.125443 0.135629,0.44668 0.01511,0.597213 l -0.09065,0.1102 -0.175965,-0.150192 c -0.100356,-0.08043 -0.220164,-0.225801 -0.2755,-0.326157 -0.09543,-0.175621 -0.09543,-0.181161 0,-0.251505 0.0728,-0.05522 0.174267,-0.08021 0.272834,-0.07643 z m 1.412161,0 c 0.09857,-0.0038 0.200029,0.02121 0.272833,0.07643 0.09543,0.07034 0.09543,0.07565 0,0.251504 -0.05533,0.100356 -0.176033,0.245733 -0.276389,0.326158 l -0.175964,0.150192 -0.08532,-0.110201 c -0.125445,-0.150532 -0.11478,-0.47177 0.01067,-0.597213 0.06026,-0.06026 0.155604,-0.09309 0.25417,-0.09687 z"
     id="path4"
     inkscape:connector-curvature="0" />
</svg>
