<?xml version="1.0" encoding="UTF-8" standalone="no"?>
<!-- Generator: Adobe Illustrator 19.0.0, SVG Export Plug-In . SVG Version: 6.00 Build 0)  -->

<svg
   xmlns:dc="http://purl.org/dc/elements/1.1/"
   xmlns:cc="http://creativecommons.org/ns#"
   xmlns:rdf="http://www.w3.org/1999/02/22-rdf-syntax-ns#"
   xmlns:svg="http://www.w3.org/2000/svg"
   xmlns="http://www.w3.org/2000/svg"
   xmlns:sodipodi="http://sodipodi.sourceforge.net/DTD/sodipodi-0.dtd"
   xmlns:inkscape="http://www.inkscape.org/namespaces/inkscape"
   version="1.1"
   id="Capa_1"
   x="0px"
   y="0px"
   viewBox="0 0 48 48"
   xml:space="preserve"
   sodipodi:docname="gx_head2.svg"
   width="48"
   height="48"
   inkscape:version="0.92.3 (2405546, 2018-03-11)"><metadata
   id="metadata41"><rdf:RDF><cc:Work
       rdf:about=""><dc:format>image/svg+xml</dc:format><dc:type
         rdf:resource="http://purl.org/dc/dcmitype/StillImage" /><dc:title></dc:title></cc:Work></rdf:RDF></metadata><defs
   id="defs39"><clipPath
     clipPathUnits="userSpaceOnUse"
     id="clipPath1443"><rect
       ry="1.4527029"
       y="3"
       x="2"
       height="43"
       width="43"
       id="rect1445"
       style="fill:#4dc7c9;fill-opacity:1;stroke:none;stroke-width:0.19905733;stroke-linejoin:round;stroke-miterlimit:4;stroke-dasharray:none;stroke-opacity:0" /></clipPath></defs><sodipodi:namedview
   pagecolor="#ffffff"
   bordercolor="#666666"
   borderopacity="1"
   objecttolerance="10"
   gridtolerance="10"
   guidetolerance="10"
   inkscape:pageopacity="0"
   inkscape:pageshadow="2"
   inkscape:window-width="1366"
   inkscape:window-height="714"
   id="namedview37"
   showgrid="false"
   showguides="true"
   inkscape:guide-bbox="true"
   inkscape:zoom="7.1889192"
   inkscape:cx="-14.117893"
   inkscape:cy="17.633681"
   inkscape:window-x="0"
   inkscape:window-y="25"
   inkscape:window-maximized="1"
   inkscape:current-layer="Capa_1" />
<path
   style="fill:#a02c2c;stroke-width:0.0924025"
   d="m 23.712891,0.49414062 c -5.833461,0 -10.522199,1.12037758 -13.935547,3.33203128 -4.101193,2.6574037 -6.269531,6.9015131 -6.269531,12.2714841 0,7.226706 5.806265,16.88549 7.585937,19.673828 2.031747,3.183081 4.250107,6.079782 6.246094,8.15625 2.542362,2.644283 4.56815,3.875 6.373047,3.875 1.804991,0 3.829009,-1.230625 6.371093,-3.875 1.995894,-2.076376 4.214348,-4.973077 6.246094,-8.15625 C 38.10975,32.983238 43.916016,23.324362 43.916016,16.097656 43.916108,10.727777 41.749814,6.4836678 37.648438,3.8261719 34.235274,1.6145182 29.546261,0.49414062 23.712891,0.49414062 Z M 21.232422,7.0429688 h 5.125 c 0.65026,0 1.179687,0.5294271 1.179687,1.1796874 v 0.9003907 h 4.574219 c 0,-0.2295037 0.186512,-0.4160157 0.416016,-0.4160157 h 1.179687 c 1.411947,0 2.5625,1.1486001 2.5625,2.5605468 v 1.179688 c 0,0.229504 -0.186511,0.416015 -0.416015,0.416015 v 14.96875 c 0.229504,0 0.416015,0.186512 0.416015,0.416016 v 1.179687 c 0,1.411947 -1.150553,2.5625 -2.5625,2.5625 h -1.179687 c -0.229504,0 -0.416016,-0.186511 -0.416016,-0.416015 H 15.480469 c 0,0.229504 -0.186512,0.416015 -0.416016,0.416015 h -1.181641 c -1.411946,0 -2.560546,-1.150553 -2.560546,-2.5625 v -1.179687 c 0,-0.229504 0.186511,-0.416016 0.416015,-0.416016 v -14.96875 c -0.229504,0 -0.416015,-0.186511 -0.416015,-0.416015 v -1.179688 c 0,-1.4119467 1.1486,-2.5605468 2.560546,-2.5605468 h 1.181641 c 0.229504,1e-7 0.416016,0.186512 0.416016,0.4160157 h 4.572265 V 8.2226562 c 0,-0.6502604 0.529427,-1.1796874 1.179688,-1.1796874 z m 0,0.8320312 c -0.192085,0 -0.347656,0.1555717 -0.347656,0.3476562 v 0.9003907 h 5.820312 V 8.2226562 C 26.705078,8.0305716 26.549922,7.875 26.357422,7.875 Z m -7.34961,1.6621094 c -0.953354,0 -1.728515,0.7771136 -1.728515,1.7304686 v 0.765625 h 1.662109 0.832032 V 11.201172 9.5371094 Z m 19.060547,0 v 1.6640626 0.832031 h 0.830079 1.664062 v -0.765625 c 0,-0.953355 -0.777114,-1.7304686 -1.730469,-1.7304686 z M 15.480469,9.953125 v 0.832031 H 32.111328 V 9.953125 H 27.121094 20.46875 Z m 2.49414,2.080078 c -1.146271,0 -2.078125,0.931854 -2.078125,2.078125 0,1.146272 0.931854,2.078125 2.078125,2.078125 1.146271,0 2.078125,-0.931853 2.078125,-2.078125 0,-0.422835 -0.127841,-0.815658 -0.345703,-1.144531 l -1.4375,1.4375 c -0.08107,0.08108 -0.188486,0.123047 -0.294922,0.123047 -0.106437,0 -0.211898,-0.04197 -0.292968,-0.123047 -0.162565,-0.162565 -0.162565,-0.425326 0,-0.587891 l 1.4375,-1.4375 c -0.328872,-0.217862 -0.721697,-0.345703 -1.144532,-0.345703 z m 5.820313,0 c -1.146271,0 -2.078125,0.931854 -2.078125,2.078125 0,1.146272 0.931854,2.078125 2.078125,2.078125 0.422836,0 0.815659,-0.127841 1.144531,-0.345703 l -1.4375,-1.439453 c -0.08108,-0.08108 -0.123047,-0.186532 -0.123047,-0.292969 0,-0.106436 0.04197,-0.213852 0.123047,-0.294922 0.162565,-0.162565 0.425326,-0.162565 0.587891,0 l 1.4375,1.439453 C 25.745206,14.926986 25.875,14.534164 25.875,14.111328 c 0,-1.146271 -0.933807,-2.078125 -2.080078,-2.078125 z m 5.822266,0 c -1.146271,0 -2.080079,0.931854 -2.080079,2.078125 0,1.146272 0.933808,2.078125 2.080079,2.078125 1.146271,0 2.078124,-0.931853 2.078124,-2.078125 0,-0.422835 -0.127841,-0.815658 -0.345703,-1.144531 l -1.439453,1.4375 c -0.08107,0.08108 -0.186533,0.123047 -0.292968,0.123047 -0.106437,0 -0.213852,-0.04197 -0.294922,-0.123047 -0.162565,-0.162565 -0.162565,-0.425326 0,-0.587891 l 1.439453,-1.4375 c -0.328872,-0.217862 -0.721697,-0.345703 -1.144531,-0.345703 z m -17.046876,0.830078 v 14.96875 h 0.832032 V 17.4375 h 1.662109 v 10.394531 c 0.229504,0 0.416016,0.186512 0.416016,0.416016 v 2.494141 h 16.630859 v -2.494141 c 0,-0.229504 0.186512,-0.416016 0.416016,-0.416016 V 17.4375 h 1.662109 v 10.394531 h 0.832031 v -14.96875 h -0.832031 v 3.742188 H 13.402344 v -3.742188 z m 3.326172,4.574219 h 0.832032 v 12.472656 h -0.832032 z m 1.66211,0 h 0.832031 v 12.472656 h -0.832031 z m 1.664062,0 h 0.830078 v 12.472656 h -0.830078 z m 1.66211,0 h 0.832031 v 12.472656 h -0.832031 z m 1.664062,0 h 0.830078 v 12.472656 h -0.830078 z m 1.66211,0 h 0.832031 v 12.472656 h -0.832031 z m 1.664062,0 h 0.830078 V 29.910156 H 25.875 Z m 1.662109,0 h 0.832032 v 12.472656 h -0.832032 z m 1.664063,0 h 0.830078 v 12.472656 h -0.830078 z m 1.662109,0 h 0.832031 V 29.910156 H 30.863281 Z M 12.154297,28.664062 v 0.763672 c 0,0.953355 0.77516,1.730469 1.728515,1.730469 h 0.765626 v -1.664062 -0.830079 h -0.832032 z m 20.789062,0 v 0.830079 1.664062 h 0.763672 c 0.953355,0 1.730469,-0.777114 1.730469,-1.730469 v -0.763672 h -1.664062 z"
   id="path2"
   inkscape:connector-curvature="0" />

<g
   id="g6"
   transform="translate(0,-464)">
</g>
<g
   id="g8"
   transform="translate(0,-464)">
</g>
<g
   id="g10"
   transform="translate(0,-464)">
</g>
<g
   id="g12"
   transform="translate(0,-464)">
</g>
<g
   id="g14"
   transform="translate(0,-464)">
</g>
<g
   id="g16"
   transform="translate(0,-464)">
</g>
<g
   id="g18"
   transform="translate(0,-464)">
</g>
<g
   id="g20"
   transform="translate(0,-464)">
</g>
<g
   id="g22"
   transform="translate(0,-464)">
</g>
<g
   id="g24"
   transform="translate(0,-464)">
</g>
<g
   id="g26"
   transform="translate(0,-464)">
</g>
<g
   id="g28"
   transform="translate(0,-464)">
</g>
<g
   id="g30"
   transform="translate(0,-464)">
</g>
<g
   id="g32"
   transform="translate(0,-464)">
</g>
<g
   id="g34"
   transform="translate(0,-464)">
</g>
</svg>