<?xml version="1.0" encoding="UTF-8" standalone="no"?>
<!-- Generator: Adobe Illustrator 19.0.0, SVG Export Plug-In . SVG Version: 6.00 Build 0)  -->

<svg
   xmlns:dc="http://purl.org/dc/elements/1.1/"
   xmlns:cc="http://creativecommons.org/ns#"
   xmlns:rdf="http://www.w3.org/1999/02/22-rdf-syntax-ns#"
   xmlns:svg="http://www.w3.org/2000/svg"
   xmlns="http://www.w3.org/2000/svg"
   xmlns:sodipodi="http://sodipodi.sourceforge.net/DTD/sodipodi-0.dtd"
   xmlns:inkscape="http://www.inkscape.org/namespaces/inkscape"
   version="1.1"
   id="Capa_1"
   x="0px"
   y="0px"
   viewBox="0 0 48 48"
   xml:space="preserve"
   sodipodi:docname="hb-icon.svg"
   width="48"
   height="48"
   inkscape:version="0.92.3 (2405546, 2018-03-11)"><metadata
   id="metadata41"><rdf:RDF><cc:Work
       rdf:about=""><dc:format>image/svg+xml</dc:format><dc:type
         rdf:resource="http://purl.org/dc/dcmitype/StillImage" /><dc:title /></cc:Work></rdf:RDF></metadata><defs
   id="defs39" /><sodipodi:namedview
   pagecolor="#ffffff"
   bordercolor="#666666"
   borderopacity="1"
   objecttolerance="10"
   gridtolerance="10"
   guidetolerance="10"
   inkscape:pageopacity="0"
   inkscape:pageshadow="2"
   inkscape:window-width="1366"
   inkscape:window-height="690"
   id="namedview37"
   showgrid="false"
   showguides="true"
   inkscape:guide-bbox="true"
   inkscape:zoom="3.5870937"
   inkscape:cx="-37.325206"
   inkscape:cy="22.884892"
   inkscape:window-x="0"
   inkscape:window-y="28"
   inkscape:window-maximized="1"
   inkscape:current-layer="Capa_1" />
<path
   style="fill:#2ca05a;stroke-width:0.0924025;fill-opacity:1"
   d="M 23.712891 0.49414062 C 17.87943 0.49414062 13.190692 1.6145182 9.7773438 3.8261719 C 5.6761507 6.4835756 3.5078125 10.727685 3.5078125 16.097656 C 3.5078125 23.324362 9.3140783 32.983146 11.09375 35.771484 C 13.125497 38.954565 15.343857 41.851266 17.339844 43.927734 C 19.882206 46.572017 21.907994 47.802734 23.712891 47.802734 C 25.517882 47.802734 27.5419 46.572109 30.083984 43.927734 C 32.079878 41.851358 34.298332 38.954657 36.330078 35.771484 C 38.10975 32.983238 43.916016 23.324362 43.916016 16.097656 C 43.916108 10.727777 41.749814 6.4836678 37.648438 3.8261719 C 34.235274 1.6145182 29.546261 0.49414062 23.712891 0.49414062 z M 37.683594 7.0761719 C 38.272034 7.0871899 38.377538 7.3265315 38.027344 7.5859375 C 37.940082 7.5580975 37.829987 7.5398094 37.683594 7.5371094 C 34.068558 7.4693414 31.783203 10.423828 31.783203 10.423828 C 30.698748 8.9791853 28.404564 8.2126121 26.998047 7.8613281 C 26.903322 7.8377281 26.847384 7.8328256 26.777344 7.8222656 C 26.762994 7.8091256 26.749305 7.7961531 26.734375 7.7832031 C 26.285438 7.3867831 26.35392 7.2375475 26.998047 7.3984375 C 28.404564 7.7497675 30.698748 8.5182486 31.783203 9.9628906 C 31.783203 9.9628906 34.068558 7.0084019 37.683594 7.0761719 z M 24.845703 10.763672 L 16.808594 22.777344 L 16.808594 31.96875 L 20.253906 31.96875 L 20.253906 32.890625 L 11.068359 32.890625 L 11.068359 31.96875 L 14.511719 31.96875 L 14.511719 22.720703 L 6.4746094 10.806641 L 24.845703 10.763672 z M 26.527344 11.371094 C 27.147934 11.399215 27.988793 11.535713 28.988281 11.908203 C 29.097354 12.222606 29.152344 12.425781 29.152344 12.425781 C 28.077651 12.003042 27.182953 11.861531 26.527344 11.832031 C 26.410804 11.826961 26.321641 11.83269 26.244141 11.84375 C 25.877298 11.554241 25.921107 11.343894 26.527344 11.371094 z M 36.697266 11.539062 C 37.784017 11.533991 39.16199 11.801208 40.623047 12.765625 C 40.977834 12.999353 40.995717 13.213201 40.759766 13.333984 C 40.72015 13.298491 40.678737 13.262982 40.623047 13.226562 C 37.283001 11.02251 34.380859 12.462891 34.380859 12.462891 C 34.383729 12.296931 34.401904 12.135718 34.427734 11.978516 C 34.563794 11.915359 35.413605 11.544562 36.697266 11.539062 z M 9.9238281 12.607422 C 9.9175281 12.617222 9.917975 12.628818 9.921875 12.642578 C 9.969205 12.811056 13.334105 17.759767 14.074219 18.75 C 14.480335 19.293198 14.9324 19.736657 15.226562 19.880859 C 15.485183 20.007653 15.782209 20.017557 16.039062 19.90625 C 16.319533 19.784702 16.872898 19.247049 17.275391 18.707031 C 17.97245 17.771934 21.370768 12.777299 21.400391 12.644531 C 21.403991 12.628211 21.38648 12.616902 21.34375 12.607422 L 9.9257812 12.607422 L 9.9238281 12.607422 z M 28.986328 14.460938 A 8.6407228 9.7746366 44.855071 0 1 29.900391 14.462891 C 29.881768 14.676451 29.752241 14.880355 29.505859 14.996094 L 28.082031 15.664062 C 27.68769 15.849275 27.188122 15.742027 26.960938 15.421875 L 26.580078 14.884766 A 8.6407228 9.7746366 44.855071 0 1 28.986328 14.460938 z M 35.974609 14.761719 C 36.39599 14.777393 36.847618 14.84686 36.96875 15.064453 C 37.0606 15.229953 37.071537 15.42028 36.998047 15.599609 C 36.988287 15.575179 36.98195 15.548901 36.96875 15.525391 C 36.727059 15.090205 35.162109 15.246094 35.162109 15.246094 C 35.342373 15.060771 35.571052 14.902434 35.833984 14.763672 C 35.884502 14.764172 35.922369 14.759919 35.974609 14.761719 z M 31.78125 14.785156 A 8.6407228 9.7746366 44.855071 0 1 34.753906 16.382812 L 33.689453 16.882812 C 33.295111 17.068024 32.795548 16.958824 32.568359 16.638672 L 31.748047 15.482422 C 31.587275 15.255333 31.615063 14.989099 31.78125 14.785156 z M 25.818359 15.148438 L 26.248047 15.755859 C 26.475237 16.076025 26.341568 16.482761 25.947266 16.667969 L 24.523438 17.337891 C 24.129097 17.523103 23.629523 17.413902 23.402344 17.09375 L 23.126953 16.707031 A 8.6407228 9.7746366 44.855071 0 1 25.818359 15.148438 z M 30.224609 15.490234 C 30.330455 15.479506 30.437679 15.485798 30.539062 15.507812 L 30.539062 15.505859 C 30.74229 15.550115 30.923439 15.655977 31.037109 15.816406 L 31.857422 16.972656 C 32.084611 17.292822 31.948989 17.699558 31.554688 17.884766 L 30.130859 18.554688 C 29.736519 18.739899 29.236939 18.632652 29.009766 18.3125 L 28.189453 17.154297 C 27.962263 16.834131 28.097886 16.427399 28.492188 16.242188 L 29.914062 15.574219 C 30.012642 15.527909 30.118764 15.500963 30.224609 15.490234 z M 35.294922 16.898438 L 35.294922 16.900391 A 8.6407228 9.7746366 44.855071 0 1 36.833984 19.259766 L 35.740234 19.773438 C 35.345893 19.95865 34.846331 19.849449 34.619141 19.529297 L 33.798828 18.373047 C 33.571649 18.052881 33.705308 17.646145 34.099609 17.460938 L 35.294922 16.898438 z M 26.666016 17.160156 C 26.771861 17.149426 26.879085 17.155719 26.980469 17.177734 C 27.183604 17.22175 27.365546 17.328083 27.478516 17.488281 L 28.298828 18.646484 C 28.526018 18.96665 28.390395 19.373386 27.996094 19.558594 L 26.574219 20.226562 C 26.179878 20.411776 25.678356 20.302575 25.451172 19.982422 L 24.632812 18.828125 C 24.405622 18.507959 24.539292 18.101228 24.933594 17.916016 L 26.357422 17.246094 C 26.456002 17.199789 26.56017 17.170886 26.666016 17.160156 z M 22.535156 17.207031 L 22.691406 17.425781 C 22.918584 17.745947 22.782973 18.152679 22.388672 18.337891 L 20.964844 19.005859 C 20.958534 19.008859 20.949659 19.008819 20.943359 19.011719 A 8.6407228 9.7746366 44.855071 0 1 22.535156 17.207031 z M 32.275391 18.378906 C 32.381236 18.368177 32.488459 18.374469 32.589844 18.396484 C 32.792497 18.44074 32.974796 18.546602 33.087891 18.707031 L 33.90625 19.863281 C 34.13344 20.183447 33.999771 20.590179 33.605469 20.775391 L 32.181641 21.445312 C 31.7873 21.630524 31.287721 21.521324 31.060547 21.201172 L 30.240234 20.044922 C 30.013055 19.724756 30.146726 19.31802 30.541016 19.132812 L 31.964844 18.462891 C 32.063423 18.416581 32.169545 18.389635 32.275391 18.378906 z M 23.109375 18.830078 C 23.214666 18.819105 23.321054 18.825974 23.421875 18.847656 L 23.423828 18.847656 C 23.625155 18.891913 23.8073 19.001307 23.919922 19.160156 L 24.740234 20.314453 C 24.967412 20.634619 24.833743 21.041356 24.439453 21.226562 L 23.015625 21.894531 C 22.621283 22.079743 22.121709 21.972496 21.894531 21.652344 L 21.072266 20.496094 C 20.845088 20.175928 20.9807 19.769196 21.375 19.583984 L 22.798828 18.916016 C 22.897402 18.869706 23.003428 18.841119 23.109375 18.830078 z M 37.074219 19.917969 A 8.6407228 9.7746366 44.855071 0 1 37.472656 22.748047 C 37.157625 22.777708 36.83883 22.657952 36.669922 22.419922 L 35.849609 21.263672 C 35.622431 20.943506 35.75609 20.53677 36.150391 20.351562 L 37.074219 19.917969 z M 28.716797 20.046875 C 28.822744 20.035833 28.929866 20.042438 29.03125 20.064453 L 29.03125 20.0625 C 29.234477 20.106295 29.416201 20.215032 29.529297 20.375 L 30.349609 21.533203 C 30.576798 21.853369 30.441177 22.260106 30.046875 22.445312 L 28.625 23.113281 C 28.230658 23.298493 27.729137 23.189293 27.501953 22.869141 L 26.683594 21.714844 C 26.456416 21.394678 26.590074 20.987946 26.984375 20.802734 L 28.408203 20.132812 C 28.506777 20.086498 28.61085 20.057917 28.716797 20.046875 z M 20.027344 20.583984 C 20.159413 20.640853 20.280868 20.716672 20.361328 20.830078 L 21.183594 21.986328 C 21.410784 22.306495 21.27516 22.713226 20.880859 22.898438 L 19.457031 23.566406 C 19.35183 23.615826 19.238084 23.641291 19.125 23.650391 A 8.6407228 9.7746366 44.855071 0 1 19.539062 21.771484 A 8.6407228 9.7746366 44.855071 0 1 20.027344 20.583984 z M 34.326172 21.265625 C 34.432119 21.254584 34.539241 21.261188 34.640625 21.283203 C 34.842826 21.327802 35.022951 21.432954 35.136719 21.591797 L 35.958984 22.75 C 36.186162 23.070166 36.052492 23.476897 35.658203 23.662109 L 34.232422 24.332031 C 33.83808 24.517243 33.338518 24.408043 33.111328 24.087891 L 32.291016 22.931641 C 32.063826 22.611475 32.197497 22.204739 32.591797 22.019531 L 34.015625 21.351562 C 34.114199 21.305253 34.220225 21.276666 34.326172 21.265625 z M 25.160156 21.71875 C 25.266103 21.707709 25.371272 21.714313 25.472656 21.736328 L 25.472656 21.734375 C 25.675883 21.778631 25.857033 21.887369 25.970703 22.046875 L 26.791016 23.203125 C 27.018205 23.523291 26.884536 23.930026 26.490234 24.115234 L 25.066406 24.785156 C 24.672064 24.970368 24.17249 24.861168 23.945312 24.541016 L 23.125 23.384766 C 22.897822 23.064599 23.031481 22.657868 23.425781 22.472656 L 24.849609 21.804688 C 24.948183 21.758378 25.054209 21.729791 25.160156 21.71875 z M 30.767578 22.9375 C 30.873526 22.926459 30.980647 22.93111 31.082031 22.953125 C 31.285258 22.99692 31.465834 23.105196 31.580078 23.265625 L 32.400391 24.421875 C 32.62757 24.742041 32.491946 25.148769 32.097656 25.333984 L 30.675781 26.001953 C 30.281439 26.187165 29.779906 26.077965 29.552734 25.757812 L 28.732422 24.603516 C 28.505243 24.28335 28.640856 23.876614 29.035156 23.691406 L 30.457031 23.021484 C 30.555605 22.975174 30.661631 22.948541 30.767578 22.9375 z M 21.601562 23.390625 C 21.707408 23.379896 21.812679 23.386188 21.914062 23.408203 L 21.917969 23.410156 C 22.121197 23.454412 22.302347 23.560735 22.416016 23.720703 L 23.234375 24.875 C 23.461553 25.195167 23.327884 25.601901 22.933594 25.787109 L 21.507812 26.455078 C 21.113471 26.64029 20.61392 26.533043 20.386719 26.212891 L 19.564453 25.056641 C 19.337275 24.736474 19.472887 24.329743 19.867188 24.144531 L 21.291016 23.476562 C 21.389595 23.430253 21.495717 23.401354 21.601562 23.390625 z M 36.376953 24.154297 C 36.4829 24.143256 36.590022 24.14986 36.691406 24.171875 L 36.693359 24.171875 C 36.896495 24.215883 37.077345 24.324173 37.191406 24.484375 L 37.253906 24.572266 A 8.6407228 9.7746366 44.855071 0 1 36.992188 25.560547 A 8.6407228 9.7746366 44.855071 0 1 36.269531 27.224609 C 35.877429 27.40097 35.388624 27.293018 35.164062 26.976562 L 34.341797 25.820312 C 34.114607 25.500147 34.248277 25.093411 34.642578 24.908203 L 36.068359 24.240234 C 36.166933 24.193924 36.271006 24.165338 36.376953 24.154297 z M 27.208984 24.609375 C 27.31483 24.598646 27.422054 24.604938 27.523438 24.626953 L 27.525391 24.625 C 27.72747 24.669256 27.909768 24.777072 28.023438 24.9375 L 28.841797 26.09375 C 29.068986 26.413916 28.933363 26.820651 28.539062 27.005859 L 27.117188 27.673828 C 26.722846 27.859041 26.221331 27.749841 25.994141 27.429688 L 25.175781 26.273438 C 24.948603 25.953272 25.082262 25.54654 25.476562 25.361328 L 26.900391 24.693359 C 26.998971 24.647059 27.103139 24.620104 27.208984 24.609375 z M 19.105469 25.744141 L 19.675781 26.546875 C 19.88491 26.841594 19.775515 27.201232 19.451172 27.402344 A 8.6407228 9.7746366 44.855071 0 1 19.105469 25.744141 z M 32.818359 25.826172 C 32.924205 25.815442 33.029475 25.821735 33.130859 25.84375 C 33.333627 25.887767 33.515305 25.994218 33.628906 26.154297 L 34.451172 27.310547 C 34.67835 27.630713 34.544693 28.037444 34.150391 28.222656 L 32.724609 28.890625 C 32.330268 29.075837 31.8307 28.96859 31.603516 28.648438 L 30.783203 27.492188 C 30.556025 27.172021 30.689683 26.765286 31.083984 26.580078 L 32.507812 25.912109 C 32.606392 25.865804 32.712514 25.836902 32.818359 25.826172 z M 23.650391 26.279297 C 23.756236 26.268569 23.86346 26.27486 23.964844 26.296875 L 23.966797 26.296875 C 24.170024 26.341132 24.351174 26.448946 24.464844 26.609375 L 25.283203 27.763672 C 25.510381 28.083838 25.376724 28.490574 24.982422 28.675781 L 23.558594 29.345703 C 23.164254 29.530915 22.662737 29.423669 22.435547 29.103516 L 21.617188 27.945312 C 21.39001 27.625146 21.523668 27.218416 21.917969 27.033203 L 23.341797 26.365234 C 23.440377 26.318929 23.544545 26.290024 23.650391 26.279297 z M 29.259766 27.498047 C 29.365611 27.487318 29.472835 27.493615 29.574219 27.515625 C 29.776987 27.559651 29.958666 27.666085 30.072266 27.826172 L 30.892578 28.982422 C 31.119767 29.302588 30.984144 29.709319 30.589844 29.894531 L 29.166016 30.564453 C 28.771674 30.749665 28.272105 30.640465 28.044922 30.320312 L 27.224609 29.164062 C 26.997431 28.843897 27.133043 28.43716 27.527344 28.251953 L 28.949219 27.582031 C 29.047799 27.535726 29.15392 27.508776 29.259766 27.498047 z M 20.09375 27.951172 C 20.199596 27.940442 20.304866 27.946735 20.40625 27.96875 L 20.408203 27.96875 C 20.61143 28.012545 20.793729 28.118868 20.90625 28.279297 L 21.724609 29.4375 C 21.951788 29.757666 21.818129 30.164401 21.423828 30.349609 L 21.234375 30.4375 A 8.6407228 9.7746366 44.855071 0 1 19.697266 28.078125 L 19.783203 28.037109 C 19.881783 27.990804 19.987904 27.961902 20.09375 27.951172 z M 34.869141 28.716797 C 34.974986 28.706068 35.08221 28.71236 35.183594 28.734375 C 35.211034 28.740335 35.233196 28.755372 35.259766 28.763672 A 8.6407228 9.7746366 44.855071 0 1 33.150391 30.828125 L 32.833984 30.380859 C 32.606794 30.060693 32.740466 29.653958 33.134766 29.46875 L 34.560547 28.800781 C 34.659127 28.754471 34.763295 28.727526 34.869141 28.716797 z M 25.701172 29.169922 C 25.807017 29.159194 25.914241 29.16549 26.015625 29.1875 C 26.218761 29.231507 26.401577 29.337849 26.515625 29.498047 L 27.333984 30.654297 C 27.561162 30.974463 27.42554 31.381193 27.03125 31.566406 L 25.609375 32.236328 C 25.215033 32.42154 24.713506 32.31234 24.486328 31.992188 L 23.666016 30.835938 C 23.438826 30.515771 23.574449 30.109035 23.96875 29.923828 L 25.392578 29.253906 C 25.491158 29.207596 25.595326 29.180649 25.701172 29.169922 z M 31.310547 30.386719 C 31.416392 30.37599 31.521663 30.382282 31.623047 30.404297 L 31.625 30.404297 C 31.827653 30.448554 32.009378 30.554876 32.123047 30.714844 L 32.511719 31.263672 A 8.6407228 9.7746366 44.855071 0 1 29.628906 32.554688 L 29.275391 32.054688 C 29.048201 31.734521 29.18187 31.327786 29.576172 31.142578 L 31 30.472656 C 31.098581 30.426346 31.204701 30.397447 31.310547 30.386719 z M 22.142578 30.841797 C 22.248526 30.830756 22.355647 30.83736 22.457031 30.859375 C 22.659811 30.903401 22.841477 31.009844 22.955078 31.169922 L 23.658203 32.162109 A 8.6407228 9.7746366 44.855071 0 1 21.777344 30.953125 L 21.833984 30.927734 C 21.932558 30.881424 22.036631 30.852838 22.142578 30.841797 z M 27.751953 32.058594 C 27.8579 32.047553 27.965022 32.054157 28.066406 32.076172 L 28.068359 32.074219 C 28.271585 32.118014 28.452163 32.227213 28.566406 32.386719 L 28.810547 32.734375 A 8.6407228 9.7746366 44.855071 0 1 26.011719 32.818359 C 26.014519 32.817059 26.016731 32.815753 26.019531 32.814453 L 27.441406 32.144531 C 27.53998 32.098221 27.646006 32.069635 27.751953 32.058594 z "
   id="path2" />

<g
   id="g6"
   transform="translate(0,-464)">
</g>
<g
   id="g8"
   transform="translate(0,-464)">
</g>
<g
   id="g10"
   transform="translate(0,-464)">
</g>
<g
   id="g12"
   transform="translate(0,-464)">
</g>
<g
   id="g14"
   transform="translate(0,-464)">
</g>
<g
   id="g16"
   transform="translate(0,-464)">
</g>
<g
   id="g18"
   transform="translate(0,-464)">
</g>
<g
   id="g20"
   transform="translate(0,-464)">
</g>
<g
   id="g22"
   transform="translate(0,-464)">
</g>
<g
   id="g24"
   transform="translate(0,-464)">
</g>
<g
   id="g26"
   transform="translate(0,-464)">
</g>
<g
   id="g28"
   transform="translate(0,-464)">
</g>
<g
   id="g30"
   transform="translate(0,-464)">
</g>
<g
   id="g32"
   transform="translate(0,-464)">
</g>
<g
   id="g34"
   transform="translate(0,-464)">
</g>
</svg>