<?xml version="1.0" encoding="UTF-8" standalone="no"?>
<!-- Created with Inkscape (http://www.inkscape.org/) -->

<svg
   xmlns:dc="http://purl.org/dc/elements/1.1/"
   xmlns:cc="http://creativecommons.org/ns#"
   xmlns:rdf="http://www.w3.org/1999/02/22-rdf-syntax-ns#"
   xmlns:svg="http://www.w3.org/2000/svg"
   xmlns="http://www.w3.org/2000/svg"
   xmlns:sodipodi="http://sodipodi.sourceforge.net/DTD/sodipodi-0.dtd"
   xmlns:inkscape="http://www.inkscape.org/namespaces/inkscape"
   width="48"
   height="48"
   viewBox="0 0 12.7 12.7"
   version="1.1"
   id="svg829"
   inkscape:version="0.92.3 (2405546, 2018-03-11)"
   sodipodi:docname="libreoffice-math.svg">
  <defs
     id="defs823" />
  <sodipodi:namedview
     id="base"
     pagecolor="#ffffff"
     bordercolor="#666666"
     borderopacity="1.0"
     inkscape:pageopacity="0.0"
     inkscape:pageshadow="2"
     inkscape:zoom="5.59375"
     inkscape:cx="24"
     inkscape:cy="24"
     inkscape:document-units="mm"
     inkscape:current-layer="layer1"
     showgrid="false"
     showguides="true"
     inkscape:guide-bbox="true"
     inkscape:window-width="1366"
     inkscape:window-height="714"
     inkscape:window-x="0"
     inkscape:window-y="25"
     inkscape:window-maximized="1"
     scale-x="1.9"
     units="px"
     inkscape:snap-global="false" />
  <metadata
     id="metadata826">
    <rdf:RDF>
      <cc:Work
         rdf:about="">
        <dc:format>image/svg+xml</dc:format>
        <dc:type
           rdf:resource="http://purl.org/dc/dcmitype/StillImage" />
        <dc:title></dc:title>
      </cc:Work>
    </rdf:RDF>
  </metadata>
  <g
     inkscape:label="Capa 1"
     inkscape:groupmode="layer"
     id="layer1"
     transform="translate(0,-284.3)">
    <path
       style="fill:#1a1a1a;fill-opacity:1;stroke-width:0.52516764"
       d="M 23.978516 0.27539062 A 23.770509 23.770509 0 0 0 0.20703125 24.046875 A 23.770509 23.770509 0 0 0 23.978516 47.816406 A 23.770509 23.770509 0 0 0 47.748047 24.046875 A 23.770509 23.770509 0 0 0 23.978516 0.27539062 z M 23.910156 3.8144531 A 20.436071 20.436071 0 0 1 44.345703 24.25 A 20.436071 20.436071 0 0 1 23.910156 44.685547 A 20.436071 20.436071 0 0 1 3.4726562 24.25 A 20.436071 20.436071 0 0 1 23.910156 3.8144531 z M 9.0605469 12.277344 L 9.0605469 22.861328 L 19.648438 22.861328 L 19.648438 12.277344 L 9.0605469 12.277344 z M 21.921875 12.277344 L 21.921875 22.861328 L 32.509766 22.861328 L 32.509766 12.277344 L 21.921875 12.277344 z M 14.353516 14.544922 C 14.770818 14.544922 15.109375 14.883408 15.109375 15.300781 L 15.109375 16.814453 L 16.621094 16.814453 C 17.038395 16.814453 17.376953 17.152939 17.376953 17.570312 C 17.376953 17.987497 17.038399 18.326172 16.621094 18.326172 L 15.109375 18.326172 L 15.109375 19.835938 C 15.109375 20.253575 14.77082 20.591797 14.353516 20.591797 C 13.936213 20.591797 13.599609 20.253386 13.599609 19.835938 L 13.599609 18.326172 L 12.085938 18.326172 C 11.66864 18.326172 11.330078 17.987724 11.330078 17.570312 C 11.330078 17.15275 11.668633 16.814453 12.085938 16.814453 L 13.599609 16.814453 L 13.599609 15.300781 C 13.599609 14.883143 13.936211 14.544922 14.353516 14.544922 z M 24.945312 16.814453 L 29.482422 16.814453 C 29.899724 16.814453 30.238281 17.152939 30.238281 17.570312 C 30.238281 17.987497 29.899727 18.326172 29.482422 18.326172 L 24.945312 18.326172 C 24.528015 18.326172 24.191406 17.987724 24.191406 17.570312 C 24.191406 17.15275 24.528011 16.814453 24.945312 16.814453 z M 15.492188 25.138672 L 15.492188 35.722656 L 26.076172 35.722656 L 26.076172 25.138672 L 15.492188 25.138672 z M 28.351562 25.138672 L 28.351562 35.722656 L 38.939453 35.722656 L 38.939453 25.138672 L 28.351562 25.138672 z M 18.896484 27.785156 C 19.090019 27.785156 19.280322 27.858836 19.427734 28.005859 L 20.783203 29.361328 L 22.140625 28.005859 C 22.435458 27.710678 22.916105 27.710678 23.210938 28.005859 C 23.506145 28.30104 23.506145 28.778924 23.210938 29.074219 L 21.853516 30.429688 L 23.210938 31.785156 C 23.506145 32.079959 23.506145 32.558221 23.210938 32.853516 C 23.063517 33.001295 22.867355 33.076172 22.673828 33.076172 C 22.480301 33.076172 22.288038 33.000917 22.140625 32.853516 L 20.783203 31.498047 L 19.427734 32.853516 C 19.280318 33.001295 19.090017 33.076172 18.896484 33.076172 C 18.702957 33.076172 18.506788 33.000917 18.359375 32.853516 C 18.064167 32.558335 18.064167 32.080451 18.359375 31.785156 L 19.714844 30.429688 L 18.359375 29.074219 C 18.064167 28.779038 18.064167 28.301154 18.359375 28.005859 C 18.506795 27.85808 18.702954 27.785156 18.896484 27.785156 z M 31.376953 28.541016 L 35.912109 28.541016 C 36.329407 28.541016 36.667969 28.877549 36.667969 29.294922 C 36.66797 29.71256 36.329414 30.050781 35.912109 30.050781 L 31.376953 30.050781 C 30.959655 30.050781 30.621094 29.712371 30.621094 29.294922 C 30.621094 28.87736 30.959652 28.541016 31.376953 28.541016 z M 31.376953 30.806641 L 35.912109 30.806641 C 36.329407 30.806641 36.667969 31.145127 36.667969 31.5625 C 36.66797 31.980138 36.329414 32.320312 35.912109 32.320312 L 31.376953 32.320312 C 30.959655 32.320312 30.621094 31.9801 30.621094 31.5625 C 30.621094 31.144938 30.959652 30.806641 31.376953 30.806641 z "
       transform="matrix(0.26458333,0,0,0.26458333,0,284.3)"
       id="path820" />
  </g>
</svg>
