<?xml version="1.0" encoding="UTF-8" standalone="no"?>
<!-- Created with Inkscape (http://www.inkscape.org/) -->

<svg
   xmlns:dc="http://purl.org/dc/elements/1.1/"
   xmlns:cc="http://creativecommons.org/ns#"
   xmlns:rdf="http://www.w3.org/1999/02/22-rdf-syntax-ns#"
   xmlns:svg="http://www.w3.org/2000/svg"
   xmlns="http://www.w3.org/2000/svg"
   xmlns:sodipodi="http://sodipodi.sourceforge.net/DTD/sodipodi-0.dtd"
   xmlns:inkscape="http://www.inkscape.org/namespaces/inkscape"
   width="48"
   height="48"
   viewBox="0 0 12.7 12.7"
   version="1.1"
   id="svg829"
   inkscape:version="0.92.3 (2405546, 2018-03-11)"
   sodipodi:docname="plank.svg">
  <defs
     id="defs823">
    <linearGradient
       id="linearGradient3707-319-631-407-324">
      <stop
         id="stop3760"
         style="stop-color:#185f9a;stop-opacity:1;"
         offset="0" />
      <stop
         id="stop3762"
         style="stop-color:#599ec9;stop-opacity:1;"
         offset="1" />
    </linearGradient>
  </defs>
  <sodipodi:namedview
     id="base"
     pagecolor="#ffffff"
     bordercolor="#666666"
     borderopacity="1.0"
     inkscape:pageopacity="0.0"
     inkscape:pageshadow="2"
     inkscape:zoom="3.9553786"
     inkscape:cx="24"
     inkscape:cy="24"
     inkscape:document-units="mm"
     inkscape:current-layer="layer1"
     showgrid="false"
     showguides="true"
     inkscape:guide-bbox="true"
     inkscape:window-width="1366"
     inkscape:window-height="714"
     inkscape:window-x="0"
     inkscape:window-y="25"
     inkscape:window-maximized="1"
     scale-x="1.9"
     units="px"
     inkscape:snap-global="false" />
  <metadata
     id="metadata826">
    <rdf:RDF>
      <cc:Work
         rdf:about="">
        <dc:format>image/svg+xml</dc:format>
        <dc:type
           rdf:resource="http://purl.org/dc/dcmitype/StillImage" />
        <dc:title></dc:title>
      </cc:Work>
    </rdf:RDF>
  </metadata>
  <g
     inkscape:label="Capa 1"
     inkscape:groupmode="layer"
     id="layer1"
     transform="translate(0,-284.3)">
    <path
       style="fill:#1a1a1a;fill-opacity:1;stroke-width:0.52516764"
       d="M 23.978516 0.27539062 A 23.770509 23.770509 0 0 0 0.20703125 24.046875 A 23.770509 23.770509 0 0 0 23.978516 47.816406 A 23.770509 23.770509 0 0 0 47.748047 24.046875 A 23.770509 23.770509 0 0 0 23.978516 0.27539062 z M 23.910156 3.8144531 A 20.436071 20.436071 0 0 1 44.345703 24.25 A 20.436071 20.436071 0 0 1 23.910156 44.685547 A 20.436071 20.436071 0 0 1 3.4726562 24.25 A 20.436071 20.436071 0 0 1 23.910156 3.8144531 z M 24 5 C 21.664845 5 19.776642 6.8918216 19.777344 9.2226562 C 19.776817 10.981195 20.882527 12.431949 22.416016 13.064453 L 22.416016 14.5 L 16.083984 14.5 C 15.803627 14.5 15.554687 14.729366 15.554688 15.027344 L 15.554688 16.611328 C 15.554688 16.909533 15.785446 17.138672 16.083984 17.138672 L 22.416016 17.138672 L 22.416016 36.667969 C 22.416016 37.210218 21.511618 37.220613 20.998047 37.277344 C 20.245624 37.269785 19.788259 37.080898 19.068359 36.882812 C 17.442596 36.407461 15.89032 35.748527 14.400391 34.953125 C 13.773083 34.604653 13.161665 34.265691 12.603516 33.814453 C 12.362945 33.609603 12.081855 33.311718 12.107422 32.972656 C 12.139964 32.716782 12.26993 32.443502 12.552734 32.396484 C 12.807626 32.356799 13.036332 32.493527 13.261719 32.580078 C 13.456024 32.663228 13.58968 32.427452 13.558594 32.267578 C 13.527375 31.842041 13.384486 31.448431 13.164062 31.080078 C 12.705477 30.325798 12.000056 29.763593 11.267578 29.28125 C 10.485536 28.781748 9.6517071 28.232397 9.15625 27.433594 C 9.0576799 27.285436 8.9473719 27.042669 8.7265625 27.121094 C 8.4195931 27.219739 8.2499597 27.521937 8.0996094 27.78125 C 7.6765876 28.586289 7.4661169 29.454766 7.2753906 30.337891 C 7.1186007 31.04058 7.0878279 31.782053 7.1425781 32.498047 C 7.1992824 33.214419 7.2489445 33.940361 7.5390625 34.609375 C 7.7217724 35.048934 8.0429689 35.404034 8.3632812 35.748047 C 8.5676705 35.53148 8.781135 35.299506 8.9902344 35.087891 C 9.2612076 34.816143 9.5995102 34.638379 9.9960938 34.691406 C 10.535866 34.759816 11.025035 35.087786 11.449219 35.400391 C 12.04671 35.865008 12.604114 36.35161 13.212891 36.802734 C 14.176196 37.538911 15.23857 38.078854 16.330078 38.601562 C 17.239459 39.023887 18.173495 39.445655 19.117188 39.789062 C 19.286193 39.863897 19.474427 39.858001 19.646484 39.921875 C 21.344917 40.628155 22.775537 41.450417 23.951172 42.923828 C 23.952755 42.961623 23.949589 42.984694 23.951172 43.005859 C 23.964551 42.968064 23.98642 42.967992 24 42.957031 C 24.01338 42.994827 24.035396 42.994899 24.048828 43.005859 C 24.057786 42.965418 24.040022 42.916511 24.048828 42.873047 C 25.220774 41.416833 26.665385 40.621931 28.353516 39.919922 C 28.52556 39.859071 28.713803 39.861566 28.882812 39.787109 C 29.826505 39.44355 30.760541 39.021896 31.669922 38.599609 C 32.761434 38.076863 33.823809 37.53692 34.787109 36.800781 C 35.395882 36.349619 35.953297 35.865008 36.550781 35.400391 C 36.974968 35.087446 37.464136 34.760836 38.003906 34.691406 C 38.400488 34.638115 38.738792 34.816041 39.009766 35.085938 C 39.218962 35.298347 39.432333 35.52998 39.636719 35.746094 C 39.957034 35.402157 40.278228 35.047094 40.460938 34.607422 C 40.751054 33.938521 40.800763 33.212428 40.857422 32.496094 C 40.912376 31.7801 40.881309 31.038552 40.724609 30.335938 C 40.533894 29.452775 40.323418 28.584336 39.900391 27.779297 C 39.749928 27.519643 39.58038 27.218693 39.273438 27.119141 C 39.052562 27.040904 38.942294 27.286948 38.84375 27.433594 C 38.348292 28.232359 37.514467 28.779832 36.732422 29.279297 C 35.999948 29.761678 35.294522 30.323807 34.835938 31.078125 C 34.615531 31.446251 34.47268 31.840201 34.441406 32.265625 C 34.410187 32.427389 34.543957 32.66256 34.738281 32.578125 C 34.963662 32.494219 35.192379 32.356358 35.447266 32.394531 C 35.730057 32.441397 35.860087 32.715497 35.892578 32.972656 C 35.917901 33.312058 35.637054 33.609225 35.396484 33.814453 C 34.838337 34.265729 34.226915 34.60338 33.599609 34.951172 C 32.109681 35.746611 30.557404 36.407386 28.931641 36.882812 C 28.211742 37.080482 27.754376 37.272959 27.001953 37.277344 C 26.355486 37.392997 25.583984 37.0432 25.583984 36.667969 L 25.583984 17.138672 L 31.917969 17.138672 C 32.16199 17.138672 32.445312 16.927523 32.445312 16.611328 L 32.445312 15.027344 C 32.445312 14.720446 32.198343 14.5 31.917969 14.5 L 25.583984 14.5 L 25.583984 13.064453 C 27.117468 12.432063 28.223183 10.979393 28.222656 9.2207031 C 28.223183 6.8900953 26.335145 5 24 5 z M 23.917969 7.0605469 C 25.051537 7.0605469 25.97886 7.95848 25.978516 9.0898438 C 25.978853 10.221283 25.051537 11.152344 23.917969 11.152344 C 22.784394 11.152344 21.839501 10.221283 21.839844 9.0898438 C 21.839501 7.95848 22.7844 7.0605469 23.917969 7.0605469 z "
       transform="matrix(0.26458333,0,0,0.26458333,0,284.3)"
       id="path1374" />
  </g>
</svg>
