<?xml version="1.0" encoding="UTF-8" standalone="no"?>
<!-- Generator: Adobe Illustrator 19.0.0, SVG Export Plug-In . SVG Version: 6.00 Build 0)  -->

<svg
   xmlns:dc="http://purl.org/dc/elements/1.1/"
   xmlns:cc="http://creativecommons.org/ns#"
   xmlns:rdf="http://www.w3.org/1999/02/22-rdf-syntax-ns#"
   xmlns:svg="http://www.w3.org/2000/svg"
   xmlns="http://www.w3.org/2000/svg"
   xmlns:sodipodi="http://sodipodi.sourceforge.net/DTD/sodipodi-0.dtd"
   xmlns:inkscape="http://www.inkscape.org/namespaces/inkscape"
   version="1.1"
   id="Capa_1"
   x="0px"
   y="0px"
   viewBox="0 0 48 48"
   xml:space="preserve"
   sodipodi:docname="preferences-desktop-theme.svg"
   width="48"
   height="48"
   inkscape:version="0.92.3 (2405546, 2018-03-11)"><metadata
   id="metadata41"><rdf:RDF><cc:Work
       rdf:about=""><dc:format>image/svg+xml</dc:format><dc:type
         rdf:resource="http://purl.org/dc/dcmitype/StillImage" /><dc:title /></cc:Work></rdf:RDF></metadata><defs
   id="defs39"><clipPath
     clipPathUnits="userSpaceOnUse"
     id="clipPath1443"><rect
       ry="1.4527029"
       y="3"
       x="2"
       height="43"
       width="43"
       id="rect1445"
       style="fill:#4dc7c9;fill-opacity:1;stroke:none;stroke-width:0.19905733;stroke-linejoin:round;stroke-miterlimit:4;stroke-dasharray:none;stroke-opacity:0" /></clipPath></defs><sodipodi:namedview
   pagecolor="#ffffff"
   bordercolor="#666666"
   borderopacity="1"
   objecttolerance="10"
   gridtolerance="10"
   guidetolerance="10"
   inkscape:pageopacity="0"
   inkscape:pageshadow="2"
   inkscape:window-width="1366"
   inkscape:window-height="690"
   id="namedview37"
   showgrid="false"
   showguides="true"
   inkscape:guide-bbox="true"
   inkscape:zoom="7.1889192"
   inkscape:cx="-1.0357517"
   inkscape:cy="24.531033"
   inkscape:window-x="0"
   inkscape:window-y="28"
   inkscape:window-maximized="1"
   inkscape:current-layer="Capa_1" />
<path
   style="fill:#005544;stroke-width:0.0924025"
   d="m 23.712891,0.49414062 c -5.833461,0 -10.522199,1.12037758 -13.935547,3.33203128 -4.101193,2.6574037 -6.269531,6.9015131 -6.269531,12.2714841 0,7.226706 5.806265,16.88549 7.585937,19.673828 2.031747,3.183081 4.250107,6.079782 6.246094,8.15625 2.542362,2.644283 4.56815,3.875 6.373047,3.875 1.804991,0 3.829009,-1.230625 6.371093,-3.875 1.995894,-2.076376 4.214348,-4.973077 6.246094,-8.15625 C 38.10975,32.983238 43.916016,23.324362 43.916016,16.097656 43.916108,10.727777 41.749814,6.4836678 37.648438,3.8261719 34.235274,1.6145182 29.546261,0.49414062 23.712891,0.49414062 Z M 23.75,4.9804688 c 0.48465,0.00849 0.968299,0.042097 1.449219,0.1015624 -0.03585,1.0250362 -0.615702,2.5443393 -1.322266,4.0996094 C 23.103876,7.8188625 22.341484,6.3463876 22.302734,5.0820312 22.782825,5.0229791 23.26618,4.9889588 23.75,4.9804688 Z m -2.40625,0.2597656 c 0.09884,1.631935 1.092037,3.381696 1.986328,4.9394536 0.01512,0.02341 0.03366,0.04589 0.05273,0.06641 -0.246365,0.50827 -0.493753,1.010173 -0.728515,1.486328 -0.06403,0.129501 -0.12492,0.253843 -0.1875,0.380859 -0.571674,-0.133443 -1.153138,-0.225161 -1.738281,-0.273441 0.520909,-0.715473 0.885693,-1.532741 1.070312,-2.3984378 0.02921,-0.1425558 -0.0074,-0.2915784 -0.09961,-0.4042968 -0.09221,-0.1129264 -0.229337,-0.1779343 -0.375,-0.1777344 -0.930759,0 -1.968391,0.6240075 -2.78125,1.253906 -0.07252,-0.8462189 -0.297225,-1.6725927 -0.66211,-2.4394529 L 17.632812,7.1816406 C 18.387449,6.8536375 19.081222,6.4020448 19.6875,5.8457031 20.199708,5.549195 20.761301,5.3448722 21.34375,5.2402344 Z m 4.816406,0 c 0.580583,0.1046385 1.140049,0.3097894 1.650391,0.6054687 0.606277,0.5563417 1.300052,1.0079344 2.054687,1.3359375 L 29.619141,7.6738281 C 29.253427,8.4406883 29.028218,9.267062 28.955078,10.113281 28.14222,9.4833824 27.104587,8.859375 26.173828,8.859375 c -0.145664,-2.077e-4 -0.2828,0.064808 -0.375,0.1777344 -0.09216,0.1127184 -0.128829,0.261741 -0.09961,0.4042968 0.188555,0.8845518 0.565999,1.7189758 1.107422,2.4433598 -1.323409,0.18524 -2.600814,0.614177 -3.767579,1.265625 0.155611,-0.320957 0.317576,-0.651545 0.484376,-0.992188 1.182718,-2.4025248 2.515089,-5.1074234 2.636718,-6.9179686 z m -9.96289,2.0742187 c 0.152517,0.00453 0.300031,0.017913 0.439453,0.041016 L 16.751953,7.5917969 12.90625,8.7441406 12.707031,8.1484375 c 1.073133,-0.4664931 2.422614,-0.8656811 3.490235,-0.8339844 z m 15.103515,0.00195 c 1.067624,-0.031275 2.416921,0.3651758 3.490235,0.8320313 l -0.199219,0.5957031 -3.845703,-1.1523437 0.117187,-0.234375 c 0.139422,-0.022974 0.284983,-0.036548 0.4375,-0.041016 z M 17.167969,8.4785156 c 0.278275,0.6640875 0.416727,1.3795766 0.404297,2.0996094 -0.02114,0.290706 0.13449,0.565278 0.394531,0.697266 0.259833,0.131985 0.572592,0.09501 0.794922,-0.09375 0.555306,-0.498739 1.188446,-0.903835 1.873047,-1.2011722 -0.183997,0.5714672 -0.498383,1.0921592 -0.917969,1.5214842 -0.217151,0.196015 -0.295569,0.503095 -0.199219,0.779297 0.09635,0.276203 0.348675,0.467678 0.640625,0.486328 0.628241,0.03523 1.252503,0.116208 1.869141,0.242188 -0.250716,0.523396 -0.475453,1.011046 -0.644532,1.427734 -0.0054,0.01264 -0.0074,0.02704 -0.01172,0.03906 -0.03808,0.08392 -0.04905,0.176829 -0.03516,0.267579 -10e-7,0.02135 -0.0029,0.04248 0,0.06445 0.0806,0.590121 0.765402,5.766155 1.164062,11.025395 h -0.205078 c -0.344994,10e-4 -0.663959,0.18538 -0.835938,0.484375 h -2.074218 v -0.484375 c 0,-0.267914 -0.218621,-0.484375 -0.486328,-0.484375 -0.267916,0 -0.484376,0.216461 -0.484376,0.484375 v 0.484375 h -1.52539 c -0.01451,-0.524225 -0.03221,-1.063657 -0.05273,-1.615234 l 2.40625,-2.40625 c 0.183797,-0.190213 0.181245,-0.492583 -0.0059,-0.679687 -0.187105,-0.187102 -0.489474,-0.189648 -0.679687,-0.0059 L 16.78125,23.386719 C 16.645324,20.492914 16.40633,17.587312 15.986328,16.0625 l 0.947266,-2.673828 c 0.05781,-0.163484 0.02483,-0.344989 -0.08789,-0.476563 C 16.732984,12.78033 16.557041,12.7183 16.386719,12.75 c -0.170321,0.0317 -0.309378,0.150969 -0.367188,0.314453 l -2.667969,7.552735 c -0.184612,0.521531 -0.255521,1.075999 -0.207031,1.626953 l 0.861328,9.894531 h -2.90625 l -0.884765,-10.16211 c -0.02715,-0.312048 -0.0028,-0.62705 0.07031,-0.93164 l 2.59961,-10.828125 c 0.71651,0.593845 1.289051,1.34415 1.673828,2.191406 0.0661,0.198087 0.252075,0.332031 0.460937,0.332031 0.05201,-2.1e-4 0.102824,-0.0092 0.152344,-0.02539 0.122043,-0.04061 0.22365,-0.128937 0.28125,-0.244141 0.0576,-0.114999 0.06816,-0.247098 0.02734,-0.369141 -0.421867,-0.98546 -1.070513,-1.858425 -1.890625,-2.5488276 z m 13.160156,0 3.576172,1.0722656 c -0.820111,0.6904028 -1.466807,1.5631598 -1.888672,2.5488278 -0.08475,0.254445 0.05219,0.528532 0.306641,0.613282 0.254653,0.08454 0.530484,-0.0522 0.615234,-0.306641 0.382704,-0.848499 0.956577,-1.598509 1.675781,-2.189453 l 2.59961,10.828125 c 0.07311,0.304591 0.09551,0.619591 0.06836,0.93164 l -0.882812,10.16211 h -2.90625 l 0.863281,-9.896484 c 0.04869,-0.550954 -0.02221,-1.105422 -0.207031,-1.626954 L 31.480469,13.0625 c -0.0891,-0.252577 -0.366559,-0.384022 -0.619141,-0.294922 -0.252576,0.0893 -0.384222,0.364607 -0.294922,0.617188 l 0.945313,2.677734 c -0.420001,1.525226 -0.659202,4.430827 -0.794922,7.324219 l -1.775391,-1.775391 c -0.190213,-0.1838 -0.492581,-0.181246 -0.679687,0.0059 -0.187096,0.187103 -0.189649,0.489267 -0.0059,0.679687 l 2.40625,2.40625 c -0.02052,0.549503 -0.03823,1.091009 -0.05273,1.615234 h -2.00977 v -0.484375 c 0,-0.267914 -0.218622,-0.484375 -0.486328,-0.484375 -0.267914,0 -0.484375,0.216461 -0.484375,0.484375 v 0.484375 H 25.068359 C 24.89638,26.019364 24.579368,25.833031 24.234375,25.832031 h -0.763672 c -0.370893,-4.955066 -1.001027,-9.843607 -1.146484,-10.958984 1.62572,-1.506786 3.860923,-1.958093 5.076172,-2.085938 0.287184,-0.03004 0.528414,-0.226786 0.615234,-0.501953 0.08682,-0.275373 0.0031,-0.576241 -0.214844,-0.765625 -0.432434,-0.429326 -0.754332,-0.957856 -0.9375,-1.5390622 0.684394,0.2971302 1.315996,0.7028472 1.871094,1.2011722 0.222329,0.18856 0.535089,0.225531 0.794922,0.09375 0.260041,-0.131781 0.415461,-0.406559 0.394531,-0.697266 -0.01243,-0.7200328 0.126023,-1.4353149 0.404297,-2.0996094 z m -2.222656,5.7167964 c -0.173222,0.0029 -0.331886,0.09658 -0.416016,0.248047 l -2.423828,4.365235 c -0.0841,0.151466 -0.08129,0.33581 0.0078,0.484375 0.0891,0.148768 0.250398,0.239028 0.423828,0.236328 0.173222,-0.0029 0.331895,-0.09853 0.416015,-0.25 l 2.423831,-4.363281 c 0.0843,-0.151466 0.08108,-0.337764 -0.0078,-0.486328 -0.0891,-0.148768 -0.250606,-0.237076 -0.423828,-0.234376 z m -5.810547,12.609376 h 1.939453 v 1.939453 h -1.939453 z m -5.820313,0.484374 h 1.939453 v 0.96875 h -1.939453 z m 2.910157,0 h 1.939453 v 0.96875 h -1.939453 z m 5.818359,0 h 2.425781 v 0.96875 h -2.425781 z m 3.396484,0 h 2.423829 v 0.96875 h -2.423829 z m -11.652343,1.939454 h 1.466796 v 0.484375 c 10e-7,0.267915 0.216461,0.486328 0.484376,0.486328 0.267706,0 0.486328,-0.218413 0.486328,-0.486328 v -0.484375 h 2.074218 c 0.17198,0.298995 0.490944,0.483375 0.835938,0.484375 h 0.429687 c 0.02674,0.684808 0.04403,1.348643 0.04883,1.988281 -1.507199,0.03688 -4.450641,-0.05583 -5.814454,-1.230469 -0.001,-0.238906 -0.004,-0.672377 -0.01172,-1.242187 z m 8.121093,0 h 2.560547 v 0.484375 c 0,0.267915 0.216461,0.486328 0.484375,0.486328 0.267706,0 0.486328,-0.218413 0.486328,-0.486328 v -0.484375 h 1.947266 0.002 c -0.0054,0.569187 -0.0077,1.000147 0,1.232422 -1.874777,1.614116 -6.707369,1.197959 -6.755859,1.193359 -0.01492,-0.0014 -0.02805,0.0059 -0.04297,0.0059 h -0.0079 c -0.0054,-0.627661 -0.02168,-1.278453 -0.04883,-1.947306 h 0.541016 c 0.344993,-10e-4 0.662005,-0.18538 0.833984,-0.484375 z"
   id="path2"
   inkscape:connector-curvature="0" />

<g
   id="g6"
   transform="translate(0,-464)">
</g>
<g
   id="g8"
   transform="translate(0,-464)">
</g>
<g
   id="g10"
   transform="translate(0,-464)">
</g>
<g
   id="g12"
   transform="translate(0,-464)">
</g>
<g
   id="g14"
   transform="translate(0,-464)">
</g>
<g
   id="g16"
   transform="translate(0,-464)">
</g>
<g
   id="g18"
   transform="translate(0,-464)">
</g>
<g
   id="g20"
   transform="translate(0,-464)">
</g>
<g
   id="g22"
   transform="translate(0,-464)">
</g>
<g
   id="g24"
   transform="translate(0,-464)">
</g>
<g
   id="g26"
   transform="translate(0,-464)">
</g>
<g
   id="g28"
   transform="translate(0,-464)">
</g>
<g
   id="g30"
   transform="translate(0,-464)">
</g>
<g
   id="g32"
   transform="translate(0,-464)">
</g>
<g
   id="g34"
   transform="translate(0,-464)">
</g>
</svg>