<?xml version="1.0" encoding="UTF-8" standalone="no"?>
<!-- Created with Inkscape (http://www.inkscape.org/) -->

<svg
   xmlns:dc="http://purl.org/dc/elements/1.1/"
   xmlns:cc="http://creativecommons.org/ns#"
   xmlns:rdf="http://www.w3.org/1999/02/22-rdf-syntax-ns#"
   xmlns:svg="http://www.w3.org/2000/svg"
   xmlns="http://www.w3.org/2000/svg"
   xmlns:sodipodi="http://sodipodi.sourceforge.net/DTD/sodipodi-0.dtd"
   xmlns:inkscape="http://www.inkscape.org/namespaces/inkscape"
   width="48"
   height="48"
   viewBox="0 0 12.7 12.7"
   version="1.1"
   id="svg829"
   inkscape:version="0.92.3 (2405546, 2018-03-11)"
   sodipodi:docname="preferences-desktop-keyboard.svg">
  <defs
     id="defs823" />
  <sodipodi:namedview
     id="base"
     pagecolor="#ffffff"
     bordercolor="#666666"
     borderopacity="1.0"
     inkscape:pageopacity="0.0"
     inkscape:pageshadow="2"
     inkscape:zoom="5.6041667"
     inkscape:cx="24"
     inkscape:cy="27.568773"
     inkscape:document-units="mm"
     inkscape:current-layer="layer1"
     showgrid="false"
     showguides="true"
     inkscape:guide-bbox="true"
     inkscape:window-width="1366"
     inkscape:window-height="719"
     inkscape:window-x="0"
     inkscape:window-y="25"
     inkscape:window-maximized="1"
     scale-x="1.9"
     units="px"
     inkscape:snap-global="false" />
  <metadata
     id="metadata826">
    <rdf:RDF>
      <cc:Work
         rdf:about="">
        <dc:format>image/svg+xml</dc:format>
        <dc:type
           rdf:resource="http://purl.org/dc/dcmitype/StillImage" />
        <dc:title></dc:title>
      </cc:Work>
    </rdf:RDF>
  </metadata>
  <g
     inkscape:label="Capa 1"
     inkscape:groupmode="layer"
     id="layer1"
     transform="translate(0,-284.3)">
    <path
       style="fill:#1a1a1a;fill-opacity:1;stroke-width:0.52516764"
       d="M 23.978516 0.27539062 A 23.770509 23.770509 0 0 0 0.20703125 24.046875 A 23.770509 23.770509 0 0 0 23.978516 47.816406 A 23.770509 23.770509 0 0 0 47.748047 24.046875 A 23.770509 23.770509 0 0 0 23.978516 0.27539062 z M 23.910156 3.8144531 A 20.436071 20.436071 0 0 1 44.345703 24.25 A 20.436071 20.436071 0 0 1 23.910156 44.685547 A 20.436071 20.436071 0 0 1 3.4726562 24.25 A 20.436071 20.436071 0 0 1 23.910156 3.8144531 z M 14.714844 9.4316406 C 12.657129 9.4316406 11 11.086805 11 13.144531 L 11 31.716797 C 11 33.774523 12.657129 35.431641 14.714844 35.431641 L 33.285156 35.431641 C 35.342871 35.431641 37 33.774523 37 31.716797 L 37 13.144531 C 37 11.086805 35.342871 9.4316406 33.285156 9.4316406 L 14.714844 9.4316406 z M 14.714844 11.289062 L 33.285156 11.289062 C 34.314014 11.289062 35.142578 12.115668 35.142578 13.144531 L 35.142578 29.859375 C 35.142578 30.888238 34.314014 31.716797 33.285156 31.716797 L 14.714844 31.716797 C 13.685987 31.716797 12.857422 30.888238 12.857422 29.859375 L 12.857422 13.144531 C 12.857422 12.115668 13.685987 11.289062 14.714844 11.289062 z M 27.076172 18.705078 C 25.609029 18.705078 24.199273 19.182103 22.839844 20.097656 L 23.535156 21.677734 C 24.114585 21.287725 24.680179 21.009072 25.21875 20.806641 C 25.772179 20.591208 26.277322 20.515625 26.84375 20.515625 C 27.679464 20.515625 28.314051 20.708577 28.759766 21.154297 C 29.203623 21.585163 29.572266 22.173106 29.572266 22.953125 L 29.572266 23.523438 C 29.182266 23.374902 28.605808 23.255466 28.121094 23.173828 A 7.4564285 7.4564285 0 0 0 26.669922 23.058594 C 26.008779 23.058594 25.422569 23.12963 24.869141 23.291016 C 24.330569 23.452779 23.822922 23.691135 23.419922 23.988281 C 23.029922 24.285352 22.764161 24.628239 22.546875 25.03125 C 22.333305 25.436113 22.201172 26.053156 22.201172 26.552734 C 22.201172 27.024457 22.315759 27.481856 22.492188 27.886719 C 22.679758 28.289692 22.877357 28.636346 23.1875 28.931641 C 23.510642 29.228711 23.916895 29.450525 24.349609 29.626953 C 24.793467 29.788717 25.286161 29.859375 25.796875 29.859375 C 26.59359 29.859375 27.31862 29.717832 28.003906 29.394531 C 28.704049 29.058531 29.27438 28.563757 29.746094 27.945312 L 29.802734 28.583984 A 1.3798571 1.3798571 0 0 0 30.210938 29.394531 C 30.439365 29.597114 30.766408 29.716172 31.197266 29.744141 C 31.345835 29.744141 31.544179 29.755479 31.71875 29.744141 C 31.90818 29.732802 32.083401 29.725988 32.298828 29.685547 L 32.298828 27.769531 C 32.068542 27.758193 31.737293 27.70342 31.642578 27.595703 A 0.92485716 0.92485716 0 0 1 31.427734 27.015625 L 31.427734 23.058594 C 31.427734 21.67128 31.251218 20.608202 30.443359 19.867188 C 29.635502 19.126211 28.530315 18.705078 27.076172 18.705078 z M 26.908203 24.40625 C 27.31306 24.40625 28.037221 24.500393 28.455078 24.582031 C 28.885935 24.663669 29.195266 24.779199 29.572266 24.927734 L 29.572266 26.320312 C 29.572266 26.589415 29.331112 26.889423 29.048828 27.130859 C 28.255828 27.836573 27.301906 27.929537 26.378906 28.001953 C 25.773477 28.001953 25.015 28.037043 24.625 27.685547 C 24.235 27.321578 24 26.902534 24 26.376953 C 24 25.810553 24.54535 25.320488 25.044922 24.984375 A 3.1014286 3.1014286 0 0 1 26.908203 24.408203 L 26.908203 24.40625 z "
       transform="matrix(0.26458333,0,0,0.26458333,0,284.3)"
       id="path1374" />
  </g>
</svg>
