<?xml version="1.0" encoding="UTF-8" standalone="no"?>
<!-- Created with Inkscape (http://www.inkscape.org/) -->

<svg
   xmlns:dc="http://purl.org/dc/elements/1.1/"
   xmlns:cc="http://creativecommons.org/ns#"
   xmlns:rdf="http://www.w3.org/1999/02/22-rdf-syntax-ns#"
   xmlns:svg="http://www.w3.org/2000/svg"
   xmlns="http://www.w3.org/2000/svg"
   xmlns:sodipodi="http://sodipodi.sourceforge.net/DTD/sodipodi-0.dtd"
   xmlns:inkscape="http://www.inkscape.org/namespaces/inkscape"
   width="24"
   height="24"
   viewBox="0 0 6.35 6.35"
   version="1.1"
   id="svg829"
   inkscape:version="0.92.3 (2405546, 2018-03-11)"
   sodipodi:docname="preferences-other.svg">
  <defs
     id="defs823" />
  <sodipodi:namedview
     id="base"
     pagecolor="#ffffff"
     bordercolor="#666666"
     borderopacity="1.0"
     inkscape:pageopacity="0.0"
     inkscape:pageshadow="2"
     inkscape:zoom="11.166667"
     inkscape:cx="12"
     inkscape:cy="12"
     inkscape:document-units="mm"
     inkscape:current-layer="layer1"
     showgrid="false"
     showguides="true"
     inkscape:guide-bbox="true"
     inkscape:window-width="1366"
     inkscape:window-height="717"
     inkscape:window-x="0"
     inkscape:window-y="25"
     inkscape:window-maximized="1"
     scale-x="1.9"
     units="px"
     inkscape:snap-global="false" />
  <metadata
     id="metadata826">
    <rdf:RDF>
      <cc:Work
         rdf:about="">
        <dc:format>image/svg+xml</dc:format>
        <dc:type
           rdf:resource="http://purl.org/dc/dcmitype/StillImage" />
        <dc:title></dc:title>
      </cc:Work>
    </rdf:RDF>
  </metadata>
  <g
     inkscape:label="Capa 1"
     inkscape:groupmode="layer"
     id="layer1"
     transform="translate(0,-290.65)">
    <path
       style="fill:#1a1a1a;fill-opacity:1;stroke-width:0.26165536"
       d="M 11.953125 0.13085938 A 11.84323 11.84323 0 0 0 0.109375 11.974609 A 11.84323 11.84323 0 0 0 11.953125 23.816406 A 11.84323 11.84323 0 0 0 23.796875 11.974609 A 11.84323 11.84323 0 0 0 20.734375 4.046875 L 20.988281 3.0878906 C 21.1133 2.6160544 20.833517 2.1372624 20.361328 2.0136719 L 20.123047 1.9511719 C 20.064022 1.9360538 20.003895 1.9276077 19.945312 1.9238281 L 19.945312 1.921875 C 19.555938 1.9003417 19.199666 2.1439709 19.070312 2.5214844 A 11.84323 11.84323 0 0 0 11.953125 0.13085938 z M 11.919922 1.8925781 A 10.181907 10.181907 0 0 1 18.570312 4.3710938 L 17.828125 7.171875 C 17.742205 7.4961585 17.850613 7.8198866 18.078125 8.0332031 L 17.767578 9.1933594 C 17.699389 9.162176 17.597246 9.1619446 17.503906 9.15625 L 17.072266 8.7246094 C 16.951037 8.6032865 16.752089 8.6032865 16.630859 8.7246094 L 16.414062 8.9414062 L 15.816406 7.1191406 C 15.649642 6.6084887 15.625861 6.2256656 15.660156 5.9472656 C 15.92574 5.6619113 16.085632 5.3007082 16.080078 4.9140625 C 16.073048 4.4258609 15.794308 3.8701247 15.390625 3.4765625 C 15.35642 3.4425468 15.303447 3.4330301 15.255859 3.4511719 C 15.20826 3.4700695 15.176143 3.5160752 15.177734 3.5644531 L 15.195312 4.8964844 C 15.197031 5.0159174 15.101083 5.1231257 14.943359 5.2070312 C 14.784128 5.2916927 14.565521 5.3500529 14.320312 5.3632812 C 14.07507 5.3783994 13.85651 5.3442414 13.695312 5.2773438 C 13.535064 5.2104461 13.433353 5.1119985 13.431641 4.9921875 L 13.414062 3.6542969 C 13.413488 3.6165016 13.393896 3.5825315 13.361328 3.5625 C 13.328749 3.5436024 13.287111 3.5413958 13.25 3.5527344 L 13.25 3.5546875 C 13.230233 3.5622466 13.213127 3.5747256 13.199219 3.5898438 C 12.806347 4.026417 12.545707 4.6150873 12.552734 5.1035156 C 12.562334 5.7705266 13.057754 6.312143 13.740234 6.4902344 C 13.948381 6.6890375 14.18415 7.0253969 14.369141 7.5917969 L 14.478516 7.9238281 L 13.554688 7.9238281 C 13.383244 7.9238281 13.251953 8.0549719 13.251953 8.2265625 L 13.251953 8.9726562 C 13.111099 9.0160227 12.980975 9.0834456 12.847656 9.1445312 L 12.5 9.1445312 L 12.080078 8.7246094 C 11.958846 8.6032865 11.759902 8.6032865 11.638672 8.7246094 L 11.21875 9.1445312 L 9.6992188 9.1445312 C 9.8616057 8.7714206 10.039943 8.4953574 10.207031 8.3300781 C 10.593897 8.2714954 10.942833 8.0864591 11.177734 7.7792969 C 11.474314 7.3914418 11.599555 6.7816606 11.523438 6.2207031 C 11.51773 6.1723252 11.481655 6.1307938 11.431641 6.1171875 C 11.381649 6.1020694 11.327398 6.1195008 11.298828 6.1582031 L 10.488281 7.2148438 C 10.415726 7.3097099 10.272559 7.3352383 10.095703 7.3027344 C 9.9170978 7.2687186 9.7080667 7.1799755 9.5058594 7.0371094 C 9.3035337 6.8942432 9.150553 6.7316116 9.0644531 6.578125 C 8.9788695 6.42581 8.9605417 6.2861968 9.0332031 6.1914062 L 9.8476562 5.1289062 C 9.8701444 5.09867 9.8747077 5.0609182 9.8613281 5.0253906 C 9.8473061 4.9913749 9.8175306 4.9589822 9.7792969 4.9472656 L 9.7792969 4.9453125 C 9.759152 4.9377534 9.7376485 4.9375511 9.7167969 4.9414062 C 9.135453 5.039296 8.5642967 5.3405093 8.2675781 5.7285156 C 7.862367 6.2584432 7.9193366 6.9930252 8.3496094 7.5585938 C 8.3913732 7.844704 8.370095 8.2560913 8.1660156 8.8164062 L 8.046875 9.1445312 L 6.1152344 9.1445312 C 5.9292549 9.1445312 5.8549203 9.1483713 5.7441406 9.1484375 L 5.3847656 7.875 L 5.4609375 7.5371094 A 0.22187471 0.22200714 29.197515 0 0 5.4453125 7.3867188 L 4.9257812 6.3476562 A 0.22187471 0.22200714 29.197515 0 0 4.6660156 6.2304688 L 4.0957031 6.3925781 A 0.22187471 0.22200714 29.197515 0 0 3.9355469 6.6269531 L 4.046875 7.7910156 A 0.22187471 0.22200714 29.197515 0 0 4.1132812 7.9277344 L 4.3496094 8.1582031 L 4.9082031 10.132812 L 4.0976562 12.011719 L 4.0976562 18.582031 A 10.181907 10.181907 0 0 1 1.7363281 12.076172 A 10.181907 10.181907 0 0 1 11.919922 1.8925781 z M 20.177734 6.140625 A 10.181907 10.181907 0 0 1 22.101562 12.076172 A 10.181907 10.181907 0 0 1 19.107422 19.279297 L 19.107422 12.011719 L 18.501953 10.607422 L 19.113281 8.3125 C 19.42242 8.2414449 19.682443 8.008582 19.769531 7.6796875 L 20.177734 6.140625 z M 6.4785156 9.3574219 L 7.96875 9.3574219 L 7.0078125 12.005859 L 6.5195312 12.005859 C 6.5193353 11.979288 6.5262212 11.956096 6.5214844 11.927734 A 0.22187471 0.22200714 29.197515 0 0 6.5234375 11.902344 L 5.9492188 9.8710938 L 6.0039062 9.7011719 C 6.0608637 9.5431876 6.1255513 9.4635765 6.1757812 9.4257812 C 6.226049 9.387986 6.288103 9.3574219 6.4785156 9.3574219 z M 9.5996094 9.3574219 L 11.003906 9.3574219 L 10.519531 9.8417969 C 10.398284 9.9631197 10.398284 10.161842 10.519531 10.283203 L 11.044922 10.806641 C 10.936223 11.012247 10.838923 11.229176 10.769531 11.455078 L 10.023438 11.455078 C 9.8519981 11.455078 9.7207031 11.588175 9.7207031 11.759766 L 9.7207031 12.005859 L 8.6386719 12.005859 L 9.5996094 9.3574219 z M 14.355469 11.234375 C 14.887556 11.234375 15.340294 11.552893 15.550781 12.005859 L 13.160156 12.005859 C 13.370644 11.552893 13.823382 11.234375 14.355469 11.234375 z M 5.3535156 11.705078 L 5.4375 12.005859 L 5.2558594 12.005859 L 5.3535156 11.705078 z M 6.3847656 20.611328 L 17.466797 20.611328 A 10.181907 10.181907 0 0 1 11.919922 22.257812 A 10.181907 10.181907 0 0 1 6.3847656 20.611328 z "
       transform="matrix(0.26458333,0,0,0.26458333,0,290.65)"
       id="path838" />
  </g>
</svg>
