<?xml version="1.0" encoding="UTF-8" standalone="no"?>
<!-- Created with Inkscape (http://www.inkscape.org/) -->

<svg
   xmlns:dc="http://purl.org/dc/elements/1.1/"
   xmlns:cc="http://creativecommons.org/ns#"
   xmlns:rdf="http://www.w3.org/1999/02/22-rdf-syntax-ns#"
   xmlns:svg="http://www.w3.org/2000/svg"
   xmlns="http://www.w3.org/2000/svg"
   xmlns:sodipodi="http://sodipodi.sourceforge.net/DTD/sodipodi-0.dtd"
   xmlns:inkscape="http://www.inkscape.org/namespaces/inkscape"
   width="48"
   height="48"
   viewBox="0 0 12.7 12.7"
   version="1.1"
   id="svg829"
   inkscape:version="0.92.3 (2405546, 2018-03-11)"
   sodipodi:docname="preferences-desktop-accessibility.svg">
  <defs
     id="defs823" />
  <sodipodi:namedview
     id="base"
     pagecolor="#ffffff"
     bordercolor="#666666"
     borderopacity="1.0"
     inkscape:pageopacity="0.0"
     inkscape:pageshadow="2"
     inkscape:zoom="5.6041667"
     inkscape:cx="24"
     inkscape:cy="27.568773"
     inkscape:document-units="mm"
     inkscape:current-layer="layer1"
     showgrid="false"
     showguides="true"
     inkscape:guide-bbox="true"
     inkscape:window-width="1366"
     inkscape:window-height="719"
     inkscape:window-x="0"
     inkscape:window-y="25"
     inkscape:window-maximized="1"
     scale-x="1.9"
     units="px"
     inkscape:snap-global="false" />
  <metadata
     id="metadata826">
    <rdf:RDF>
      <cc:Work
         rdf:about="">
        <dc:format>image/svg+xml</dc:format>
        <dc:type
           rdf:resource="http://purl.org/dc/dcmitype/StillImage" />
        <dc:title></dc:title>
      </cc:Work>
    </rdf:RDF>
  </metadata>
  <g
     inkscape:label="Capa 1"
     inkscape:groupmode="layer"
     id="layer1"
     transform="translate(0,-284.3)">
    <path
       style="fill:#1a1a1a;fill-opacity:1;stroke-width:0.52516764"
       d="M 23.978516 0.27539062 A 23.770509 23.770509 0 0 0 0.20703125 24.046875 A 23.770509 23.770509 0 0 0 23.978516 47.816406 A 23.770509 23.770509 0 0 0 47.748047 24.046875 A 23.770509 23.770509 0 0 0 23.978516 0.27539062 z M 23.910156 3.8144531 A 20.436071 20.436071 0 0 1 44.345703 24.25 A 20.436071 20.436071 0 0 1 23.910156 44.685547 A 20.436071 20.436071 0 0 1 3.4726562 24.25 A 20.436071 20.436071 0 0 1 23.910156 3.8144531 z M 24.193359 7.9375 C 22.053413 7.9375 20.351562 9.6014276 20.351562 11.6875 C 20.351562 13.773119 22.053413 15.533203 24.193359 15.533203 C 26.333303 15.533203 28.041016 13.773119 28.041016 11.6875 C 28.041016 9.6014276 26.333303 7.9375 24.193359 7.9375 z M 37.957031 15.703125 L 24.005859 17.982422 L 10.21875 15.722656 A 0.93041057 0.93041057 0 0 0 9.6582031 15.822266 A 1.0834781 1.0834781 0 0 0 8.9980469 16.759766 C 8.9950429 17.165762 9.2830332 17.511553 9.6582031 17.701172 L 19.972656 20.888672 L 19.880859 28.300781 L 16.220703 39.271484 C 15.869559 39.775295 15.978684 40.345414 16.503906 40.681641 C 17.029129 41.011971 17.841291 40.899288 18.189453 40.400391 L 24.005859 28.582031 L 29.820312 40.400391 A 1.1014862 1.1014862 0 0 0 31.320312 40.775391 C 31.866546 40.475674 32.102103 39.884428 31.792969 39.365234 L 28.226562 28.298828 L 28.041016 21.453125 L 38.544922 17.701172 A 1.1044875 1.1044875 0 0 0 38.919922 16.386719 C 38.736804 15.931172 38.212127 15.676782 37.957031 15.703125 z "
       transform="matrix(0.26458333,0,0,0.26458333,0,284.3)"
       id="path1374" />
  </g>
</svg>
