<?xml version="1.0" encoding="UTF-8" standalone="no"?>
<!-- Generator: Adobe Illustrator 19.0.0, SVG Export Plug-In . SVG Version: 6.00 Build 0)  -->

<svg
   xmlns:dc="http://purl.org/dc/elements/1.1/"
   xmlns:cc="http://creativecommons.org/ns#"
   xmlns:rdf="http://www.w3.org/1999/02/22-rdf-syntax-ns#"
   xmlns:svg="http://www.w3.org/2000/svg"
   xmlns="http://www.w3.org/2000/svg"
   xmlns:sodipodi="http://sodipodi.sourceforge.net/DTD/sodipodi-0.dtd"
   xmlns:inkscape="http://www.inkscape.org/namespaces/inkscape"
   version="1.1"
   id="Capa_1"
   x="0px"
   y="0px"
   viewBox="0 0 48 48"
   xml:space="preserve"
   sodipodi:docname="rhythmbox2.svg"
   width="48"
   height="48"
   inkscape:version="0.92.3 (2405546, 2018-03-11)"><metadata
   id="metadata41"><rdf:RDF><cc:Work
       rdf:about=""><dc:format>image/svg+xml</dc:format><dc:type
         rdf:resource="http://purl.org/dc/dcmitype/StillImage" /><dc:title></dc:title></cc:Work></rdf:RDF></metadata><defs
   id="defs39"><clipPath
     clipPathUnits="userSpaceOnUse"
     id="clipPath1443"><rect
       ry="1.4527029"
       y="3"
       x="2"
       height="43"
       width="43"
       id="rect1445"
       style="fill:#4dc7c9;fill-opacity:1;stroke:none;stroke-width:0.19905733;stroke-linejoin:round;stroke-miterlimit:4;stroke-dasharray:none;stroke-opacity:0" /></clipPath></defs><sodipodi:namedview
   pagecolor="#ffffff"
   bordercolor="#666666"
   borderopacity="1"
   objecttolerance="10"
   gridtolerance="10"
   guidetolerance="10"
   inkscape:pageopacity="0"
   inkscape:pageshadow="2"
   inkscape:window-width="1366"
   inkscape:window-height="714"
   id="namedview37"
   showgrid="false"
   showguides="true"
   inkscape:guide-bbox="true"
   inkscape:zoom="7.1889192"
   inkscape:cx="-24.044317"
   inkscape:cy="28.106015"
   inkscape:window-x="0"
   inkscape:window-y="25"
   inkscape:window-maximized="1"
   inkscape:current-layer="Capa_1" />
<path
   style="fill:#89a02c;stroke-width:0.0924025"
   d="M 23.712891 0.49414062 C 17.87943 0.49414062 13.190692 1.6145182 9.7773438 3.8261719 C 5.6761507 6.4835756 3.5078125 10.727685 3.5078125 16.097656 C 3.5078125 23.324362 9.3140783 32.983146 11.09375 35.771484 C 13.125497 38.954565 15.343857 41.851266 17.339844 43.927734 C 19.882206 46.572017 21.907994 47.802734 23.712891 47.802734 C 25.517882 47.802734 27.5419 46.572109 30.083984 43.927734 C 32.079878 41.851358 34.298332 38.954657 36.330078 35.771484 C 38.10975 32.983238 43.916016 23.324362 43.916016 16.097656 C 43.916108 10.727777 41.749814 6.4836678 37.648438 3.8261719 C 34.235274 1.6145182 29.546261 0.49414062 23.712891 0.49414062 z M 17.287109 6.7460938 L 30.498047 6.7460938 C 31.824769 6.7460938 32.900391 7.822205 32.900391 9.1484375 L 32.900391 32.689453 C 32.900391 33.911286 31.985029 34.908537 30.804688 35.060547 C 30.662163 35.540015 30.223365 35.892578 29.697266 35.892578 L 28.773438 35.892578 C 28.25866 35.892578 27.826327 35.555293 27.673828 35.091797 L 20.226562 35.091797 C 20.074062 35.555293 19.643317 35.892578 19.128906 35.892578 L 18.203125 35.892578 C 17.68186 35.892578 17.246112 35.545309 17.099609 35.072266 C 15.862233 34.974721 14.884766 33.952042 14.884766 32.689453 L 14.884766 9.1484375 C 14.884766 7.822205 15.960632 6.7460938 17.287109 6.7460938 z M 19.988281 8.3085938 L 19.988281 8.4277344 L 19.988281 8.5488281 L 19.988281 12.03125 L 19.988281 12.150391 L 19.988281 12.271484 L 27.794922 12.271484 L 27.794922 12.150391 L 27.794922 12.03125 L 27.794922 8.5488281 L 27.794922 8.4277344 L 27.794922 8.3085938 L 19.988281 8.3085938 z M 20.244141 8.5488281 L 27.541016 8.5488281 L 25.753906 9.3886719 L 25.753906 11.191406 L 27.541016 12.03125 L 20.244141 12.03125 L 22.03125 11.191406 L 22.03125 9.3886719 L 20.244141 8.5488281 z M 17.521484 14.066406 C 16.950773 14.066406 16.486328 14.530729 16.486328 15.101562 L 16.486328 17.775391 C 16.486328 18.256206 16.744356 18.425781 16.964844 18.425781 C 17.127685 18.425781 17.291863 18.343024 17.457031 18.177734 L 20.595703 15.039062 C 20.896974 14.737428 20.86158 14.495484 20.8125 14.378906 C 20.764461 14.262145 20.619587 14.066406 20.193359 14.066406 L 17.521484 14.066406 z M 27.591797 14.066406 C 27.165324 14.066406 27.021486 14.262206 26.972656 14.378906 C 26.923883 14.495973 26.886111 14.737367 27.1875 15.039062 L 30.328125 18.175781 C 30.49213 18.341314 30.65747 18.425781 30.820312 18.425781 C 31.040738 18.425781 31.298828 18.254313 31.298828 17.773438 L 31.298828 15.101562 C 31.298828 14.530729 30.83475 14.066283 30.263672 14.066406 L 27.591797 14.066406 z M 17.521484 14.546875 L 20.193359 14.546875 C 20.289008 14.546875 20.347995 14.562047 20.359375 14.560547 C 20.350318 14.583617 20.324149 14.631169 20.255859 14.699219 L 17.119141 17.837891 C 17.058067 17.898841 17.013921 17.923977 16.988281 17.935547 C 16.978671 17.909417 16.966797 17.859787 16.966797 17.773438 L 16.966797 15.101562 C 16.966797 14.795829 17.215689 14.546875 17.521484 14.546875 z M 27.591797 14.546875 L 30.263672 14.546875 C 30.569711 14.546875 30.818359 14.795523 30.818359 15.101562 L 30.818359 17.775391 C 30.818359 17.861733 30.806675 17.91161 30.796875 17.9375 C 30.771907 17.92551 30.728799 17.898841 30.667969 17.837891 L 27.527344 14.699219 C 27.45887 14.631175 27.433932 14.584256 27.419922 14.572266 C 27.443788 14.562666 27.494677 14.545896 27.591797 14.546875 z M 23.892578 16.841797 C 19.426212 16.841797 15.806641 20.463444 15.806641 24.929688 C 15.806641 29.395931 19.426212 33.015625 23.892578 33.015625 C 28.359005 33.015625 31.978516 29.395931 31.978516 24.929688 C 31.978516 20.463933 28.358944 16.841797 23.892578 16.841797 z M 23.892578 17.802734 C 27.822135 17.802734 31.017578 21.000619 31.017578 24.929688 C 31.017578 28.859368 27.822135 32.054688 23.892578 32.054688 C 19.963143 32.054687 16.765625 28.859368 16.765625 24.929688 C 16.765625 21.000619 19.963143 17.802734 23.892578 17.802734 z M 23.892578 18.474609 C 20.33356 18.474609 17.4375 21.370853 17.4375 24.929688 C 17.4375 28.488399 20.33356 31.382812 23.892578 31.382812 C 27.451657 31.382812 30.347656 28.488827 30.347656 24.929688 C 30.347656 21.370852 27.451595 18.474609 23.892578 18.474609 z M 23.892578 18.955078 C 27.186985 18.955078 29.867188 21.635953 29.867188 24.929688 C 29.867187 28.223727 27.186006 30.902344 23.892578 30.902344 C 20.598966 30.902344 17.917969 28.223727 17.917969 24.929688 C 17.917969 21.635953 20.598415 18.955078 23.892578 18.955078 z M 23.892578 22.359375 C 22.475225 22.359375 21.322266 23.511968 21.322266 24.929688 C 21.322266 26.347408 22.474735 27.5 23.892578 27.5 C 25.31042 27.5 26.462891 26.347407 26.462891 24.929688 C 26.462891 23.511968 25.309931 22.359375 23.892578 22.359375 z M 23.892578 23.320312 C 24.780221 23.320312 25.501953 24.042167 25.501953 24.929688 C 25.501953 25.817391 24.780221 26.539062 23.892578 26.539062 C 23.00469 26.539062 22.283203 25.817391 22.283203 24.929688 C 22.283203 24.042167 23.00469 23.320312 23.892578 23.320312 z "
   id="path2" />

<g
   id="g6"
   transform="translate(0,-464)">
</g>
<g
   id="g8"
   transform="translate(0,-464)">
</g>
<g
   id="g10"
   transform="translate(0,-464)">
</g>
<g
   id="g12"
   transform="translate(0,-464)">
</g>
<g
   id="g14"
   transform="translate(0,-464)">
</g>
<g
   id="g16"
   transform="translate(0,-464)">
</g>
<g
   id="g18"
   transform="translate(0,-464)">
</g>
<g
   id="g20"
   transform="translate(0,-464)">
</g>
<g
   id="g22"
   transform="translate(0,-464)">
</g>
<g
   id="g24"
   transform="translate(0,-464)">
</g>
<g
   id="g26"
   transform="translate(0,-464)">
</g>
<g
   id="g28"
   transform="translate(0,-464)">
</g>
<g
   id="g30"
   transform="translate(0,-464)">
</g>
<g
   id="g32"
   transform="translate(0,-464)">
</g>
<g
   id="g34"
   transform="translate(0,-464)">
</g>
</svg>