<?xml version="1.0" encoding="UTF-8" standalone="no"?>
<!-- Created with Inkscape (http://www.inkscape.org/) -->

<svg
   xmlns:dc="http://purl.org/dc/elements/1.1/"
   xmlns:cc="http://creativecommons.org/ns#"
   xmlns:rdf="http://www.w3.org/1999/02/22-rdf-syntax-ns#"
   xmlns:svg="http://www.w3.org/2000/svg"
   xmlns="http://www.w3.org/2000/svg"
   xmlns:sodipodi="http://sodipodi.sourceforge.net/DTD/sodipodi-0.dtd"
   xmlns:inkscape="http://www.inkscape.org/namespaces/inkscape"
   width="48"
   height="48"
   viewBox="0 0 12.7 12.7"
   version="1.1"
   id="svg829"
   inkscape:version="0.92.3 (2405546, 2018-03-11)"
   sodipodi:docname="rhythmbox.svg">
  <defs
     id="defs823" />
  <sodipodi:namedview
     id="base"
     pagecolor="#ffffff"
     bordercolor="#666666"
     borderopacity="1.0"
     inkscape:pageopacity="0.0"
     inkscape:pageshadow="2"
     inkscape:zoom="2.796875"
     inkscape:cx="24"
     inkscape:cy="24"
     inkscape:document-units="mm"
     inkscape:current-layer="layer1"
     showgrid="false"
     showguides="true"
     inkscape:guide-bbox="true"
     inkscape:window-width="1366"
     inkscape:window-height="714"
     inkscape:window-x="0"
     inkscape:window-y="25"
     inkscape:window-maximized="1"
     scale-x="1.9"
     units="px"
     inkscape:snap-global="true" />
  <metadata
     id="metadata826">
    <rdf:RDF>
      <cc:Work
         rdf:about="">
        <dc:format>image/svg+xml</dc:format>
        <dc:type
           rdf:resource="http://purl.org/dc/dcmitype/StillImage" />
        <dc:title></dc:title>
      </cc:Work>
    </rdf:RDF>
  </metadata>
  <g
     inkscape:label="Capa 1"
     inkscape:groupmode="layer"
     id="layer1"
     transform="translate(0,-284.3)">
    <path
       style="opacity:1;fill:#1a1a1a;fill-opacity:1;stroke-width:0.52516764"
       d="M 23.978516 0.27539062 A 23.770509 23.770509 0 0 0 0.20703125 24.046875 A 23.770509 23.770509 0 0 0 23.978516 47.816406 A 23.770509 23.770509 0 0 0 47.748047 24.046875 A 23.770509 23.770509 0 0 0 23.978516 0.27539062 z M 23.910156 3.8144531 A 20.436071 20.436071 0 0 1 44.345703 24.25 A 20.436071 20.436071 0 0 1 23.910156 44.685547 A 20.436071 20.436071 0 0 1 3.4726562 24.25 A 20.436071 20.436071 0 0 1 23.910156 3.8144531 z M 24 8.0566406 C 17.817644 8.0566406 12.841797 8.4567341 12.841797 8.9511719 L 12.841797 39.048828 C 12.841797 39.543228 17.817644 39.943359 24 39.943359 C 30.182357 39.943359 35.158203 39.543228 35.158203 39.048828 L 35.158203 8.9511719 C 35.158203 8.4567341 30.182357 8.0566406 24 8.0566406 z M 17.658203 11.179688 A 3.1616309 3.1884242 0 0 1 20.820312 14.367188 A 3.1616309 3.1884242 0 0 1 17.658203 17.554688 A 3.1616309 3.1884242 0 0 1 14.496094 14.367188 A 3.1616309 3.1884242 0 0 1 17.658203 11.179688 z M 30.275391 11.179688 A 3.1616309 3.1884242 0 0 1 33.4375 14.367188 A 3.1616309 3.1884242 0 0 1 30.275391 17.554688 A 3.1616309 3.1884242 0 0 1 27.113281 14.367188 A 3.1616309 3.1884242 0 0 1 30.275391 11.179688 z M 24.035156 20.744141 A 8.0049815 8.0728195 0 0 1 32.039062 28.818359 A 8.0049815 8.0728195 0 0 1 24.035156 36.890625 A 8.0049815 8.0728195 0 0 1 16.029297 28.818359 A 8.0049815 8.0728195 0 0 1 24.035156 20.744141 z M 24.060547 25.560547 A 3.1616309 3.1884242 0 0 0 20.898438 28.748047 A 3.1616309 3.1884242 0 0 0 24.060547 31.9375 A 3.1616309 3.1884242 0 0 0 27.222656 28.748047 A 3.1616309 3.1884242 0 0 0 24.060547 25.560547 z "
       transform="matrix(0.26458333,0,0,0.26458333,0,284.3)"
       id="path1374" />
  </g>
</svg>
