<?xml version="1.0" encoding="UTF-8" standalone="no"?>
<!-- Created with Inkscape (http://www.inkscape.org/) -->

<svg
   xmlns:dc="http://purl.org/dc/elements/1.1/"
   xmlns:cc="http://creativecommons.org/ns#"
   xmlns:rdf="http://www.w3.org/1999/02/22-rdf-syntax-ns#"
   xmlns:svg="http://www.w3.org/2000/svg"
   xmlns="http://www.w3.org/2000/svg"
   xmlns:sodipodi="http://sodipodi.sourceforge.net/DTD/sodipodi-0.dtd"
   xmlns:inkscape="http://www.inkscape.org/namespaces/inkscape"
   width="48"
   height="48"
   viewBox="0 0 12.7 12.7"
   version="1.1"
   id="svg829"
   inkscape:version="0.92.3 (2405546, 2018-03-11)"
   sodipodi:docname="scribus.svg">
  <defs
     id="defs823" />
  <sodipodi:namedview
     id="base"
     pagecolor="#ffffff"
     bordercolor="#666666"
     borderopacity="1.0"
     inkscape:pageopacity="0.0"
     inkscape:pageshadow="2"
     inkscape:zoom="7.9254885"
     inkscape:cx="24"
     inkscape:cy="24"
     inkscape:document-units="mm"
     inkscape:current-layer="layer1"
     showgrid="false"
     showguides="true"
     inkscape:guide-bbox="true"
     inkscape:window-width="1366"
     inkscape:window-height="719"
     inkscape:window-x="0"
     inkscape:window-y="25"
     inkscape:window-maximized="1"
     scale-x="1.9"
     units="px"
     inkscape:snap-global="false" />
  <metadata
     id="metadata826">
    <rdf:RDF>
      <cc:Work
         rdf:about="">
        <dc:format>image/svg+xml</dc:format>
        <dc:type
           rdf:resource="http://purl.org/dc/dcmitype/StillImage" />
        <dc:title></dc:title>
      </cc:Work>
    </rdf:RDF>
  </metadata>
  <g
     inkscape:label="Capa 1"
     inkscape:groupmode="layer"
     id="layer1"
     transform="translate(0,-284.3)">
    <path
       inkscape:connector-curvature="0"
       style="fill:#1a1a1a;fill-opacity:1;stroke-width:0.1389506"
       d="m 6.3443156,284.37286 a 6.2892804,6.2892804 0 0 0 -6.28953858,6.28954 6.2892804,6.2892804 0 0 0 6.28953858,6.28902 6.2892804,6.2892804 0 0 0 6.2890214,-6.28902 6.2892804,6.2892804 0 0 0 -6.2890214,-6.28954 z m -0.018087,0.93638 a 5.4070437,5.4070437 0 0 1 5.4069054,5.40691 5.4070437,5.4070437 0 0 1 -5.4069054,5.4069 5.4070437,5.4070437 0 0 1 -5.40742176,-5.4069 5.4070437,5.4070437 0 0 1 5.40742176,-5.40691 z"
       id="path822" />
    <path
       style="fill:#1a1a1a;fill-opacity:1;stroke-width:0.0458321"
       d="m 7.6491068,286.68271 c -0.2172733,-0.015 -0.4492808,0.0433 -0.6810381,0.19748 -1.0101856,1.7088 -1.8115227,3.23418 -2.3288983,4.94363 -0.274092,0.91498 -0.5213438,1.862 -0.7614452,2.7813 0.3912074,0.0331 0.316166,-9.4e-4 0.6180688,9.3e-4 0.2221787,-0.4972 0.6661798,-0.97042 0.9745724,-1.31557 0.7654181,-0.79635 1.4946851,-1.153 2.4248053,-1.46573 0.013608,-0.93753 -0.05458,-1.86796 0.3255035,-2.69027 0.155742,-0.34176 0.4001249,-0.70787 0.6015995,-1.01813 0,-0.69525 -0.5213499,-1.39033 -1.1731679,-1.43382 z"
       id="path2"
       inkscape:connector-curvature="0" />
  </g>
</svg>
