<?xml version="1.0" encoding="UTF-8" standalone="no"?>
<!-- Generator: Adobe Illustrator 19.0.0, SVG Export Plug-In . SVG Version: 6.00 Build 0)  -->

<svg
   xmlns:dc="http://purl.org/dc/elements/1.1/"
   xmlns:cc="http://creativecommons.org/ns#"
   xmlns:rdf="http://www.w3.org/1999/02/22-rdf-syntax-ns#"
   xmlns:svg="http://www.w3.org/2000/svg"
   xmlns="http://www.w3.org/2000/svg"
   xmlns:xlink="http://www.w3.org/1999/xlink"
   xmlns:sodipodi="http://sodipodi.sourceforge.net/DTD/sodipodi-0.dtd"
   xmlns:inkscape="http://www.inkscape.org/namespaces/inkscape"
   version="1.1"
   id="Capa_1"
   x="0px"
   y="0px"
   viewBox="0 0 48 48"
   xml:space="preserve"
   sodipodi:docname="softwarecenter2.svg"
   width="48"
   height="48"
   inkscape:version="0.92.3 (2405546, 2018-03-11)"><metadata
   id="metadata41"><rdf:RDF><cc:Work
       rdf:about=""><dc:format>image/svg+xml</dc:format><dc:type
         rdf:resource="http://purl.org/dc/dcmitype/StillImage" /><dc:title></dc:title></cc:Work></rdf:RDF></metadata><defs
   id="defs39"><linearGradient
     x1="-83.756935"
     y1="-7.8379993"
     x2="-92.222527"
     y2="27.521217"
     id="linearGradient5588"
     xlink:href="#linearGradient3202"
     gradientUnits="userSpaceOnUse"
     gradientTransform="matrix(0.5857566,-0.140767,0.1402401,0.5879573,74.307775,0.1578927)" /><linearGradient
     id="linearGradient3202"><stop
       id="stop3204"
       style="stop-color:white;stop-opacity:1"
       offset="0" /><stop
       id="stop3206"
       style="stop-color:#d3eefc;stop-opacity:1"
       offset="1" /></linearGradient><clipPath
     clipPathUnits="userSpaceOnUse"
     id="clipPath858"><g
       inkscape:label="Clip"
       id="use860"><path
         inkscape:connector-curvature="0"
         d="m 15.19633,13.509398 c 0.09427,0.05011 0.193703,-0.05841 0.135989,-0.148226 -0.313262,-0.487554 -0.609903,-1.30797 -0.137282,-2.364554 0.788152,-1.7619512 1.267743,-2.6745196 1.267743,-2.6745196 0,0 0.25509,1.0649573 0.946581,2.0118546 0.66552,0.911322 1.029793,2.057473 0.442534,3.012285 -0.05511,0.08961 0.04207,0.195343 0.135721,0.147422 0.726939,-0.371858 1.542277,-1.117766 1.634272,-2.602109 0.03392,-0.453572 -0.01695,-1.0885791 -0.271316,-1.8898987 -0.32706,-1.0156011 -0.729131,-1.4894989 -0.961767,-1.6930102 -0.06959,-0.060883 -0.177809,-0.00692 -0.1721,0.085356 0.06779,1.0958327 -0.344468,1.3739144 -0.579123,0.7472175 -0.09371,-0.2503129 -0.148368,-0.6832593 -0.148368,-1.2105027 0,-0.8777667 -0.254665,-1.7813467 -0.816111,-2.5156022 -0.146003,-0.1909436 -0.316841,-0.369367 -0.512847,-0.5215194 -0.07096,-0.055096 -0.173818,2.816e-4 -0.167321,0.089882 0.04311,0.5950489 0.0041,2.3004219 -1.492101,4.3378056 -1.356569,1.8898981 -0.830902,3.3413311 -0.644374,3.7344461 0.356626,0.753099 0.854066,1.195365 1.33987,1.453673 z"
         id="path864"
         style="fill:#f2f2f2;stroke-width:0.01576873" /></g></clipPath></defs><sodipodi:namedview
   pagecolor="#ffffff"
   bordercolor="#666666"
   borderopacity="1"
   objecttolerance="10"
   gridtolerance="10"
   guidetolerance="10"
   inkscape:pageopacity="0"
   inkscape:pageshadow="2"
   inkscape:window-width="1366"
   inkscape:window-height="714"
   id="namedview37"
   showgrid="false"
   showguides="true"
   inkscape:guide-bbox="true"
   inkscape:zoom="3.5870937"
   inkscape:cx="-94.148128"
   inkscape:cy="19.812216"
   inkscape:window-x="0"
   inkscape:window-y="25"
   inkscape:window-maximized="1"
   inkscape:current-layer="Capa_1" />
<path
   style="fill:#217821;stroke-width:0.0924025"
   d="M 23.712891 0.49414062 C 17.87943 0.49414062 13.190692 1.6145182 9.7773438 3.8261719 C 5.6761504 6.4835756 3.5078125 10.727685 3.5078125 16.097656 C 3.5078125 23.324362 9.3140783 32.983146 11.09375 35.771484 C 13.125497 38.954565 15.343857 41.851266 17.339844 43.927734 C 19.882206 46.572017 21.907994 47.802734 23.712891 47.802734 C 25.517882 47.802734 27.5419 46.572109 30.083984 43.927734 C 32.079878 41.851358 34.298332 38.954657 36.330078 35.771484 C 38.10975 32.983238 43.916016 23.324362 43.916016 16.097656 C 43.916108 10.727777 41.749811 6.4836678 37.648438 3.8261719 C 34.235273 1.6145182 29.546261 0.49414062 23.712891 0.49414062 z M 29.357422 3.8046875 C 29.391194 3.7865301 29.435223 3.7869051 29.470703 3.8144531 C 29.666709 3.9666055 29.836419 4.144994 29.982422 4.3359375 C 30.543868 5.070193 30.798828 5.9737958 30.798828 6.8515625 C 30.798828 7.3788059 30.853556 7.8121871 30.947266 8.0625 C 31.181921 8.6891969 31.595134 8.4102858 31.527344 7.3144531 C 31.521635 7.2221771 31.629629 7.1676326 31.699219 7.2285156 C 31.931855 7.4320269 32.333096 7.9062739 32.660156 8.921875 C 32.914522 9.7231946 32.965561 10.358928 32.931641 10.8125 C 32.839646 12.296843 32.023814 13.042206 31.296875 13.414062 C 31.203224 13.461984 31.106999 13.357188 31.162109 13.267578 C 31.749368 12.312766 31.38427 11.165228 30.71875 10.253906 C 30.027259 9.3070096 29.773438 8.2421875 29.773438 8.2421875 C 29.773438 8.2421875 29.294011 9.1560171 28.505859 10.917969 C 28.033238 11.974553 28.329316 12.793696 28.642578 13.28125 C 28.700292 13.371066 28.600129 13.479797 28.505859 13.429688 C 28.020055 13.171378 27.522642 12.729663 27.166016 11.976562 C 26.979488 11.583449 26.453978 10.132086 27.810547 8.2421875 C 29.306748 6.2048038 29.345844 4.4993458 29.302734 3.9042969 C 29.299486 3.8594967 29.323649 3.8228449 29.357422 3.8046875 z M 16.046875 3.8847656 C 16.080647 3.8666082 16.124676 3.8669833 16.160156 3.8945312 C 16.356162 4.0466837 16.527825 4.225072 16.673828 4.4160156 C 17.235274 5.1502711 17.488281 6.0538739 17.488281 6.9316406 C 17.488281 7.458884 17.543009 7.8903121 17.636719 8.140625 C 17.871374 8.7673219 18.284587 8.4903639 18.216797 7.3945312 C 18.211088 7.3022553 18.319082 7.2477108 18.388672 7.3085938 C 18.621308 7.512105 19.022549 7.986352 19.349609 9.0019531 C 19.603975 9.8032727 19.655014 10.437053 19.621094 10.890625 C 19.529099 12.374968 18.71522 13.122283 17.988281 13.494141 C 17.89463 13.542062 17.796453 13.435313 17.851562 13.345703 C 18.438822 12.390891 18.075676 11.245306 17.410156 10.333984 C 16.718665 9.3870875 16.462891 8.3222656 16.462891 8.3222656 C 16.462891 8.3222656 15.983465 9.2341422 15.195312 10.996094 C 14.722693 12.052678 15.018769 12.873774 15.332031 13.361328 C 15.389745 13.451144 15.291536 13.559876 15.197266 13.509766 C 14.711462 13.251458 14.214048 12.80974 13.857422 12.056641 C 13.670894 11.663526 13.143431 10.210211 14.5 8.3203125 C 15.996201 6.2829288 16.035297 4.5794239 15.992188 3.984375 C 15.988938 3.9395748 16.013103 3.9029231 16.046875 3.8847656 z M 13.007812 14.101562 L 16.132812 14.101562 L 16.132812 20.794922 C 16.132813 21.041185 15.93181 21.242188 15.685547 21.242188 C 15.439285 21.242187 15.240234 21.041185 15.240234 20.794922 L 15.240234 19.009766 C 15.240234 18.271633 14.638525 17.671875 13.900391 17.671875 C 13.162257 17.671875 12.5625 18.271633 12.5625 19.009766 L 12.5625 23.919922 C 12.5625 24.166184 12.361497 24.367188 12.115234 24.367188 C 11.868972 24.367188 11.669922 24.166184 11.669922 23.919922 L 11.669922 15.439453 C 11.669922 14.701319 12.269681 14.101562 13.007812 14.101562 z M 17.025391 14.101562 L 20.595703 14.101562 L 20.595703 30.167969 L 21.488281 30.167969 L 21.488281 31.060547 L 11.669922 31.060547 L 11.669922 30.167969 L 12.5625 30.167969 L 12.5625 25.175781 C 13.080741 24.990975 13.455078 24.500927 13.455078 23.919922 L 13.455078 19.009766 C 13.455078 18.763504 13.654128 18.564453 13.900391 18.564453 C 14.146653 18.564453 14.347656 18.763504 14.347656 19.009766 L 14.347656 20.794922 C 14.347656 21.533056 14.947414 22.134766 15.685547 22.134766 C 16.423681 22.134766 17.025391 21.533056 17.025391 20.794922 L 17.025391 14.101562 z M 29.21875 14.107422 C 29.62323 14.087802 30.022659 14.111096 30.414062 14.166016 L 30.414062 20.794922 C 30.414063 21.533056 31.015772 22.134766 31.753906 22.134766 C 32.49204 22.134766 33.09375 21.533056 33.09375 20.794922 L 33.09375 19.009766 C 33.09375 18.763504 33.2928 18.564453 33.539062 18.564453 C 33.785325 18.564453 33.986328 18.763504 33.986328 19.009766 L 33.986328 23.919922 C 33.986328 24.607713 34.50912 25.169611 35.177734 25.244141 C 35.05809 25.674556 34.926426 26.098554 34.773438 26.503906 C 34.651176 26.827098 34.33589 27.044922 33.986328 27.044922 L 31.753906 27.044922 L 31.753906 27.9375 L 27.291016 27.9375 L 27.291016 27.044922 L 25.058594 27.044922 C 24.708596 27.044922 24.391354 26.827098 24.269531 26.503906 C 23.61748 24.779196 23.273438 22.828814 23.273438 20.861328 L 23.273438 20.480469 C 23.273437 17.063086 25.884834 14.263243 29.21875 14.107422 z M 31.308594 14.361328 C 32.252673 14.639409 33.124954 15.133125 33.857422 15.832031 C 35.092003 17.00995 35.771484 18.59463 35.771484 20.292969 L 35.771484 23.919922 C 35.771484 24.166184 35.570481 24.367188 35.324219 24.367188 C 35.077957 24.367188 34.878906 24.166184 34.878906 23.919922 L 34.878906 19.009766 C 34.878906 18.271633 34.277197 17.671875 33.539062 17.671875 C 32.800928 17.671875 32.201172 18.271633 32.201172 19.009766 L 32.201172 20.794922 C 32.201172 21.041185 32.000168 21.242188 31.753906 21.242188 C 31.507643 21.242187 31.308594 21.041185 31.308594 20.794922 L 31.308594 14.361328 z M 25.662109 19.457031 C 24.837675 19.457031 24.166016 20.126737 24.166016 20.951172 L 24.166016 22.871094 C 24.166016 23.695529 24.837675 24.367188 25.662109 24.367188 C 25.933434 24.367188 26.198244 24.291603 26.429688 24.152344 L 27.904297 23.269531 C 28.351928 23.001257 28.628906 22.508492 28.628906 21.986328 L 28.628906 20.951172 C 28.628906 20.126737 27.959201 19.457031 27.134766 19.457031 L 25.662109 19.457031 z M 29.521484 22.730469 L 27.953125 24.822266 C 27.813865 25.007509 27.736328 25.236653 27.736328 25.46875 L 27.736328 25.519531 C 27.736328 26.113613 28.220372 26.597656 28.814453 26.597656 C 29.073355 26.597656 29.326435 26.501364 29.521484 26.332031 C 29.716532 26.501364 29.971566 26.597656 30.230469 26.597656 C 30.82455 26.597656 31.308594 26.113613 31.308594 25.519531 L 31.308594 25.46875 C 31.308594 25.236653 31.230619 25.007509 31.091797 24.822266 L 29.521484 22.730469 z M 25.505859 27.9375 L 26.398438 27.9375 L 26.398438 29.275391 L 27.291016 29.275391 L 27.291016 28.830078 L 28.183594 28.830078 L 28.183594 29.722656 L 29.076172 29.722656 L 29.076172 28.830078 L 29.96875 28.830078 L 29.96875 29.722656 L 30.861328 29.722656 L 30.861328 28.830078 L 31.753906 28.830078 L 31.753906 29.275391 L 32.646484 29.275391 L 32.646484 27.9375 L 33.539062 27.9375 L 33.539062 29.738281 C 33.539063 30.468351 32.939306 31.060547 32.201172 31.060547 L 26.84375 31.060547 C 26.105617 31.060547 25.505859 30.468351 25.505859 29.738281 L 25.505859 27.9375 z M 21.550781 33.314453 L 25.957031 33.314453 C 26.483517 33.314453 26.908203 33.737186 26.908203 34.263672 L 26.908203 38.658203 L 30.960938 38.658203 L 23.888672 45.730469 L 16.816406 38.658203 L 20.599609 38.658203 L 20.599609 34.263672 C 20.599609 33.737186 21.024296 33.314453 21.550781 33.314453 z "
   id="path2" />

<g
   id="g6"
   transform="translate(0,-464)">
</g>
<g
   id="g8"
   transform="translate(0,-464)">
</g>
<g
   id="g10"
   transform="translate(0,-464)">
</g>
<g
   id="g12"
   transform="translate(0,-464)">
</g>
<g
   id="g14"
   transform="translate(0,-464)">
</g>
<g
   id="g16"
   transform="translate(0,-464)">
</g>
<g
   id="g18"
   transform="translate(0,-464)">
</g>
<g
   id="g20"
   transform="translate(0,-464)">
</g>
<g
   id="g22"
   transform="translate(0,-464)">
</g>
<g
   id="g24"
   transform="translate(0,-464)">
</g>
<g
   id="g26"
   transform="translate(0,-464)">
</g>
<g
   id="g28"
   transform="translate(0,-464)">
</g>
<g
   id="g30"
   transform="translate(0,-464)">
</g>
<g
   id="g32"
   transform="translate(0,-464)">
</g>
<g
   id="g34"
   transform="translate(0,-464)">
</g>
</svg>