<?xml version="1.0" encoding="UTF-8" standalone="no"?>
<!-- Generator: Adobe Illustrator 19.0.0, SVG Export Plug-In . SVG Version: 6.00 Build 0)  -->

<svg
   xmlns:dc="http://purl.org/dc/elements/1.1/"
   xmlns:cc="http://creativecommons.org/ns#"
   xmlns:rdf="http://www.w3.org/1999/02/22-rdf-syntax-ns#"
   xmlns:svg="http://www.w3.org/2000/svg"
   xmlns="http://www.w3.org/2000/svg"
   xmlns:sodipodi="http://sodipodi.sourceforge.net/DTD/sodipodi-0.dtd"
   xmlns:inkscape="http://www.inkscape.org/namespaces/inkscape"
   version="1.1"
   id="Capa_1"
   x="0px"
   y="0px"
   viewBox="0 0 48 48"
   xml:space="preserve"
   sodipodi:docname="thunar-volman-settings.svg"
   width="48"
   height="48"
   inkscape:version="0.92.3 (2405546, 2018-03-11)"><metadata
   id="metadata41"><rdf:RDF><cc:Work
       rdf:about=""><dc:format>image/svg+xml</dc:format><dc:type
         rdf:resource="http://purl.org/dc/dcmitype/StillImage" /><dc:title /></cc:Work></rdf:RDF></metadata><defs
   id="defs39" /><sodipodi:namedview
   pagecolor="#ffffff"
   bordercolor="#666666"
   borderopacity="1"
   objecttolerance="10"
   gridtolerance="10"
   guidetolerance="10"
   inkscape:pageopacity="0"
   inkscape:pageshadow="2"
   inkscape:window-width="1366"
   inkscape:window-height="690"
   id="namedview37"
   showgrid="false"
   showguides="true"
   inkscape:guide-bbox="true"
   inkscape:zoom="3.5870937"
   inkscape:cx="-37.882761"
   inkscape:cy="27.898574"
   inkscape:window-x="0"
   inkscape:window-y="28"
   inkscape:window-maximized="1"
   inkscape:current-layer="Capa_1" />
<path
   style="fill:#002255;stroke-width:0.0924025"
   d="M 23.712891 0.49414062 C 17.87943 0.49414062 13.190692 1.6145182 9.7773438 3.8261719 C 5.6761507 6.4835756 3.5078125 10.727685 3.5078125 16.097656 C 3.5078125 23.324362 9.3140783 32.983146 11.09375 35.771484 C 13.125497 38.954565 15.343857 41.851266 17.339844 43.927734 C 19.882206 46.572017 21.907994 47.802734 23.712891 47.802734 C 25.517882 47.802734 27.5419 46.572109 30.083984 43.927734 C 32.079878 41.851358 34.298332 38.954657 36.330078 35.771484 C 38.10975 32.983238 43.916016 23.324362 43.916016 16.097656 C 43.916108 10.727777 41.749814 6.4836678 37.648438 3.8261719 C 34.235274 1.6145182 29.546261 0.49414062 23.712891 0.49414062 z M 31.994141 5.9960938 L 35.578125 7.7636719 L 35.267578 8.3203125 C 34.913003 8.977755 34.200161 10.295499 33.169922 10.572266 L 32.203125 12.533203 L 30.355469 11.623047 L 31.304688 9.6972656 C 30.841522 8.6648101 31.50384 7.1234218 31.798828 6.4472656 L 31.994141 5.9960938 z M 32.132812 7.9023438 C 31.901353 8.6833953 31.848616 9.4286086 32.396484 9.6992188 C 32.996062 9.9946986 33.523472 9.5407237 34.007812 8.828125 L 32.132812 7.9023438 z M 30.361328 12.544922 L 31.470703 13.091797 L 28.1875 19.746094 L 27.078125 19.199219 L 30.361328 12.544922 z M 26.34375 19.755859 L 28.191406 20.667969 L 27.630859 21.806641 C 28.708129 22.418038 29.361548 22.956065 29.220703 23.242188 L 28.208984 25.294922 L 27.90625 25.90625 L 27.230469 27.277344 C 27.082729 27.101533 26.920018 26.941118 26.736328 26.802734 C 25.74327 26.056156 24.511214 26.100059 23.996094 26.162109 C 23.204208 25.384013 22.379134 25.053514 21.605469 24.990234 C 21.579609 24.861701 21.583373 24.750009 21.626953 24.662109 L 21.652344 24.609375 L 22.285156 23.326172 L 23.675781 20.509766 C 23.711731 20.437131 23.814675 20.40625 23.960938 20.40625 C 24.393323 20.40625 25.206525 20.670705 25.783203 20.894531 L 26.34375 19.755859 z M 18.107422 21.988281 C 19.306085 21.988281 20.369275 22.549521 21.042969 23.416016 C 21.289695 23.342386 21.248675 23.323559 21.519531 23.318359 L 21.142578 24.083984 L 20.941406 24.492188 C 20.868026 24.639435 20.854019 24.81406 20.880859 25.003906 C 19.921781 25.121852 19.104153 25.598372 18.626953 26.03125 C 18.4504 26.192287 18.435897 26.465536 18.595703 26.642578 C 18.756001 26.819129 19.028529 26.830941 19.205078 26.671875 C 19.2952 26.589386 21.44344 24.690807 23.53125 26.916016 L 23.695312 27.091797 L 23.933594 27.042969 C 23.947876 27.041246 25.265072 26.776125 26.220703 27.494141 C 26.806245 27.935145 27.143883 28.673741 27.220703 29.689453 C 27.237447 29.915495 27.427797 30.085938 27.650391 30.085938 C 27.661471 30.085938 27.672024 30.085184 27.683594 30.083984 C 27.920224 30.066009 28.098298 29.860169 28.080078 29.623047 C 28.030586 28.982595 27.890597 28.424186 27.664062 27.951172 C 27.723647 27.890106 27.77655 27.825083 27.8125 27.751953 L 28.894531 25.556641 C 29.410143 25.703642 29.8125 26.287705 29.8125 27.050781 C 29.8125 27.398708 29.706814 27.722036 29.53125 27.996094 C 29.65018 27.947584 29.772579 27.912109 29.902344 27.912109 C 30.371664 27.912109 31.007664 28.110628 30.996094 28.767578 C 31.797336 28.945851 32.398191 29.652007 32.400391 30.496094 C 32.400391 31.47881 31.594621 32.273438 30.601562 32.273438 C 30.5043 32.273438 30.410209 32.260624 30.318359 32.246094 C 30.314379 32.246586 30.312994 32.248047 30.308594 32.248047 C 30.237925 32.248047 30.169996 32.236213 30.103516 32.220703 L 13.636719 32.220703 L 13.394531 32.220703 L 13.394531 32.203125 C 12.573343 32.109803 11.941406 31.559904 11.941406 30.888672 C 11.941406 30.387095 12.298068 29.956282 12.818359 29.728516 C 12.671605 29.443624 12.587891 29.137723 12.587891 28.818359 C 12.587891 27.819883 13.365599 26.946986 14.529297 26.462891 C 14.459123 26.185386 14.417969 25.897568 14.417969 25.597656 C 14.417969 23.604892 16.070089 21.988281 18.107422 21.988281 z "
   id="path2" />

<g
   id="g6"
   transform="translate(0,-464)">
</g>
<g
   id="g8"
   transform="translate(0,-464)">
</g>
<g
   id="g10"
   transform="translate(0,-464)">
</g>
<g
   id="g12"
   transform="translate(0,-464)">
</g>
<g
   id="g14"
   transform="translate(0,-464)">
</g>
<g
   id="g16"
   transform="translate(0,-464)">
</g>
<g
   id="g18"
   transform="translate(0,-464)">
</g>
<g
   id="g20"
   transform="translate(0,-464)">
</g>
<g
   id="g22"
   transform="translate(0,-464)">
</g>
<g
   id="g24"
   transform="translate(0,-464)">
</g>
<g
   id="g26"
   transform="translate(0,-464)">
</g>
<g
   id="g28"
   transform="translate(0,-464)">
</g>
<g
   id="g30"
   transform="translate(0,-464)">
</g>
<g
   id="g32"
   transform="translate(0,-464)">
</g>
<g
   id="g34"
   transform="translate(0,-464)">
</g>
</svg>