<?xml version="1.0" encoding="UTF-8" standalone="no"?>
<!-- Created with Inkscape (http://www.inkscape.org/) -->

<svg
   xmlns:dc="http://purl.org/dc/elements/1.1/"
   xmlns:cc="http://creativecommons.org/ns#"
   xmlns:rdf="http://www.w3.org/1999/02/22-rdf-syntax-ns#"
   xmlns:svg="http://www.w3.org/2000/svg"
   xmlns="http://www.w3.org/2000/svg"
   xmlns:sodipodi="http://sodipodi.sourceforge.net/DTD/sodipodi-0.dtd"
   xmlns:inkscape="http://www.inkscape.org/namespaces/inkscape"
   width="48"
   height="48"
   viewBox="0 0 12.7 12.7"
   version="1.1"
   id="svg829"
   inkscape:version="0.92.3 (2405546, 2018-03-11)"
   sodipodi:docname="time-admin.svg">
  <defs
     id="defs823" />
  <sodipodi:namedview
     id="base"
     pagecolor="#ffffff"
     bordercolor="#666666"
     borderopacity="1.0"
     inkscape:pageopacity="0.0"
     inkscape:pageshadow="2"
     inkscape:zoom="5.59375"
     inkscape:cx="24"
     inkscape:cy="24"
     inkscape:document-units="mm"
     inkscape:current-layer="layer1"
     showgrid="false"
     showguides="true"
     inkscape:guide-bbox="true"
     inkscape:window-width="1366"
     inkscape:window-height="714"
     inkscape:window-x="0"
     inkscape:window-y="25"
     inkscape:window-maximized="1"
     scale-x="1.9"
     units="px"
     inkscape:snap-global="true" />
  <metadata
     id="metadata826">
    <rdf:RDF>
      <cc:Work
         rdf:about="">
        <dc:format>image/svg+xml</dc:format>
        <dc:type
           rdf:resource="http://purl.org/dc/dcmitype/StillImage" />
        <dc:title></dc:title>
      </cc:Work>
    </rdf:RDF>
  </metadata>
  <g
     inkscape:label="Capa 1"
     inkscape:groupmode="layer"
     id="layer1"
     transform="translate(0,-284.3)">
    <path
       style="fill:#1a1a1a;fill-opacity:1;stroke-width:0.1389506"
       d="m 6.3443153,284.37286 a 6.2892804,6.2892804 0 0 0 -6.28953827,6.28954 6.2892804,6.2892804 0 0 0 6.28953827,6.28902 6.2892804,6.2892804 0 0 0 6.2890217,-6.28902 6.2892804,6.2892804 0 0 0 -6.2890217,-6.28954 z m -0.01809,0.93638 a 5.4070437,5.4070437 0 0 1 5.4069047,5.40691 5.4070437,5.4070437 0 0 1 -5.4069047,5.4069 5.4070437,5.4070437 0 0 1 -5.40742137,-5.4069 5.4070437,5.4070437 0 0 1 5.40742137,-5.40691 z m -1.214913,1.46451 c -0.261168,0 -0.4718054,0.21065 -0.4718054,0.47181 v 0.75447 h 0.9430944 v -0.75447 c 0,-0.26116 -0.210119,-0.47181 -0.471289,-0.47181 z m 3.986837,0 c -0.261169,0 -0.471806,0.21065 -0.471806,0.47181 v 0.75447 h 0.943095 v -0.75447 c 0,-0.26116 -0.21012,-0.47181 -0.471289,-0.47181 z m -5.7552039,1.43919 v 1.28829 h 0.00775 v 1.59577 a 2.0559701,2.0559701 0 0 0 -1.1849405,1.85984 2.0559701,2.0559701 0 0 0 2.0562052,2.0562 2.0559701,2.0559701 0 0 0 1.6040372,-0.77101 h 3.506762 c 0.423634,0 0.7857727,-0.13846 1.0867547,-0.41548 0.300872,-0.27705 0.450619,-0.6104 0.450619,-1.00046 v -3.86488 h -0.0041 v -0.74827 z m 0.6914306,1.28829 h 6.152596 v 3.32486 h -5.17e-4 c 0,0.21628 -0.08279,0.40138 -0.2501137,0.55553 -0.167315,0.15409 -0.368514,0.23099 -0.603581,0.23099 h -3.165181 a 2.0559701,2.0559701 0 0 0 0.11007,-0.65577 2.0559701,2.0559701 0 0 0 -0.0083,-0.15917 h 0.571542 v -0.29197 h -0.615467 a 2.0559701,2.0559701 0 0 0 -0.157096,-0.44648 c 0.06345,-0.065 0.161815,-0.16498 0.211873,-0.21653 0.153198,-0.15893 0.24427,-0.25572 0.272852,-0.28887 0.104036,-0.12799 0.175586,-0.23906 0.214457,-0.3328 0.04001,-0.0949 0.05994,-0.19453 0.05994,-0.29972 0,-0.22179 -0.0789,-0.3986 -0.236678,-0.53123 -0.15777,-0.13258 -0.369351,-0.19896 -0.634587,-0.19896 -0.100607,0 -0.21161,0.0139 -0.332796,0.0424 -0.121185,0.0287 -0.251713,0.071 -0.391191,0.12712 v 0.34985 c 0.137191,-0.0766 0.265981,-0.13386 0.386023,-0.17156 0.121186,-0.038 0.236073,-0.0563 0.344682,-0.0563 0.153197,0 0.27718,0.0424 0.37207,0.12816 0.09604,0.0858 0.144178,0.19725 0.144178,0.33331 0,0.0834 -0.02208,0.16841 -0.06666,0.25528 -0.04345,0.0858 -0.121131,0.19113 -0.232027,0.31574 -0.03623,0.0413 -0.164547,0.17162 -0.266134,0.27596 a 2.0559701,2.0559701 0 0 0 -1.6924029,-0.89039 2.0559701,2.0559701 0 0 0 -0.1875854,0.009 z m 4.1578853,0.73536 -0.611848,0.12402 v 0.31523 l 0.615466,-0.12351 v 1.95285 h -0.565857 v 0.29198 h 1.474845 v -0.29198 h -0.565854 v -2.26859 z m -4.2126622,0.68006 a 2.0559701,2.0559701 0 0 0 -0.069247,0.0103 2.05597,2.05597 0 0 1 0.069247,-0.0103 z m -0.2294435,0.0408 a 2.0559701,2.0559701 0 0 0 -0.031522,0.008 2.05597,2.05597 0 0 1 0.031522,-0.008 z m 0.4656047,0.2496 a 1.7675662,1.7675662 0 0 1 1.767851,1.76734 1.7675662,1.7675662 0 0 1 -1.767851,1.76785 1.7675662,1.7675662 0 0 1 -1.767334,-1.76785 1.7675662,1.7675662 0 0 1 1.767334,-1.76734 z m 0.861963,0.95085 5.17e-4,0.003 a 0.14564827,0.14564827 0 0 0 -0.02119,5.2e-4 0.14564827,0.14564827 0 0 0 -0.07286,0.0455 L 4.20956,292.98 3.7274191,292.49993 a 0.14564827,0.14564827 0 1 0 -0.2010214,0.19999 l 0.5834268,0.58291 a 0.14564827,0.14564827 0 0 0 0.1999877,0 l 0.8743651,-0.87385 a 0.14564827,0.14564827 0 0 0 -0.106453,-0.25063 z m 1.018542,1.63711 a 2.05597,2.05597 0 0 1 -0.0078,0.0165 2.0559701,2.0559701 0 0 0 0.0078,-0.0165 z m -0.0832,0.16536 a 2.05597,2.05597 0 0 1 -0.02946,0.0517 2.0559701,2.0559701 0 0 0 0.02946,-0.0517 z m -0.103869,0.16692 a 2.05597,2.05597 0 0 1 -0.06356,0.0889 2.0559701,2.0559701 0 0 0 0.06356,-0.0889 z"
       id="path831"
       inkscape:connector-curvature="0" />
  </g>
</svg>
