<?xml version="1.0" encoding="UTF-8" standalone="no"?>
<!-- Created with Inkscape (http://www.inkscape.org/) -->

<svg
   xmlns:dc="http://purl.org/dc/elements/1.1/"
   xmlns:cc="http://creativecommons.org/ns#"
   xmlns:rdf="http://www.w3.org/1999/02/22-rdf-syntax-ns#"
   xmlns:svg="http://www.w3.org/2000/svg"
   xmlns="http://www.w3.org/2000/svg"
   xmlns:sodipodi="http://sodipodi.sourceforge.net/DTD/sodipodi-0.dtd"
   xmlns:inkscape="http://www.inkscape.org/namespaces/inkscape"
   width="48"
   height="48"
   viewBox="0 0 12.7 12.7"
   version="1.1"
   id="svg829"
   inkscape:version="0.92.3 (2405546, 2018-03-11)"
   sodipodi:docname="user-info.svg">
  <defs
     id="defs823" />
  <sodipodi:namedview
     id="base"
     pagecolor="#ffffff"
     bordercolor="#666666"
     borderopacity="1.0"
     inkscape:pageopacity="0.0"
     inkscape:pageshadow="2"
     inkscape:zoom="11.208333"
     inkscape:cx="8.208178"
     inkscape:cy="23.643123"
     inkscape:document-units="mm"
     inkscape:current-layer="layer1"
     showgrid="false"
     showguides="true"
     inkscape:guide-bbox="true"
     inkscape:window-width="1366"
     inkscape:window-height="719"
     inkscape:window-x="0"
     inkscape:window-y="25"
     inkscape:window-maximized="1"
     scale-x="1.9"
     units="px" />
  <metadata
     id="metadata826">
    <rdf:RDF>
      <cc:Work
         rdf:about="">
        <dc:format>image/svg+xml</dc:format>
        <dc:type
           rdf:resource="http://purl.org/dc/dcmitype/StillImage" />
        <dc:title></dc:title>
      </cc:Work>
    </rdf:RDF>
  </metadata>
  <g
     inkscape:label="Capa 1"
     inkscape:groupmode="layer"
     id="layer1"
     transform="translate(0,-284.3)">
    <path
       style="fill:#1a1a1a;fill-opacity:1;stroke-width:0.1389506"
       d="m 6.3443558,284.37295 a 6.2892804,6.2892804 0 0 0 -6.28941435,6.28942 6.2892804,6.2892804 0 0 0 6.28941435,6.28914 6.2892804,6.2892804 0 0 0 6.2891432,-6.28914 6.2892804,6.2892804 0 0 0 -6.2891432,-6.28942 z m -0.018184,0.9363 a 5.4070438,5.4070438 0 0 1 5.4071322,5.40711 5.4070438,5.4070438 0 0 1 -5.4071322,5.40686 5.4070438,5.4070438 0 0 1 -5.40713234,-5.40686 5.4070438,5.4070438 0 0 1 5.40713234,-5.40711 z"
       id="path1374"
       inkscape:connector-curvature="0" />
    <path
       inkscape:connector-curvature="0"
       style="fill:#1a1a1a;stroke:none;stroke-width:0.66044611;stroke-linejoin:round;stroke-opacity:1"
       d="m 5.6069091,288.67866 c -0.05325,0.44913 0.3897298,1.38689 0.1444584,1.79537 -0.9541174,0.33349 -2.6738129,0.94182 -2.7653418,1.34141 -0.067604,0.62075 -0.1690072,1.5264 -0.2476456,2.14626 1.672677,0.90353 5.6078155,0.85987 7.2232376,0 -0.056985,-0.4398 -0.108103,-1.70647 -0.1650937,-2.14626 -0.4316513,-0.5154 -1.568337,-0.81704 -2.7653418,-1.34141 -0.3127891,-0.40682 0.1607766,-1.3162 0.061912,-1.77467 -0.1891504,-0.0328 -1.2942786,-0.015 -1.485855,-0.0194 z"
       id="path2880" />
    <path
       inkscape:connector-curvature="0"
       style="fill:#1a1a1a;fill-opacity:1;stroke:none;stroke-width:0.62547225;stroke-opacity:1"
       d="m 6.3704401,286.67695 c -0.9214282,0 -1.6715539,0.66477 -1.6715539,1.48576 0.00722,0.30392 0.038933,0.66413 0.2270045,1.48587 0.1112272,0.31863 1.1054102,1.17335 1.1143916,1.27953 0.2157053,0.10638 0.5617458,0.10638 0.784201,0 0,-0.10649 0.8793623,-0.96091 0.9905706,-1.27953 0.2116395,-0.85413 0.2156523,-1.16724 0.2270042,-1.48587 0,-0.82099 -0.7501256,-1.48576 -1.6715542,-1.48576 z"
       id="path2870" />
  </g>
</svg>
