<?xml version="1.0" encoding="UTF-8" standalone="no"?>
<!-- Generator: Adobe Illustrator 19.0.0, SVG Export Plug-In . SVG Version: 6.00 Build 0)  -->

<svg
   xmlns:dc="http://purl.org/dc/elements/1.1/"
   xmlns:cc="http://creativecommons.org/ns#"
   xmlns:rdf="http://www.w3.org/1999/02/22-rdf-syntax-ns#"
   xmlns:svg="http://www.w3.org/2000/svg"
   xmlns="http://www.w3.org/2000/svg"
   xmlns:sodipodi="http://sodipodi.sourceforge.net/DTD/sodipodi-0.dtd"
   xmlns:inkscape="http://www.inkscape.org/namespaces/inkscape"
   version="1.1"
   id="Capa_1"
   x="0px"
   y="0px"
   viewBox="0 0 48 48"
   xml:space="preserve"
   sodipodi:docname="wine-winecfg.svg"
   width="48"
   height="48"
   inkscape:version="0.92.3 (2405546, 2018-03-11)"><metadata
   id="metadata41"><rdf:RDF><cc:Work
       rdf:about=""><dc:format>image/svg+xml</dc:format><dc:type
         rdf:resource="http://purl.org/dc/dcmitype/StillImage" /><dc:title /></cc:Work></rdf:RDF></metadata><defs
   id="defs39"><clipPath
     clipPathUnits="userSpaceOnUse"
     id="clipPath1443"><rect
       ry="1.4527029"
       y="3"
       x="2"
       height="43"
       width="43"
       id="rect1445"
       style="fill:#4dc7c9;fill-opacity:1;stroke:none;stroke-width:0.19905733;stroke-linejoin:round;stroke-miterlimit:4;stroke-dasharray:none;stroke-opacity:0" /></clipPath></defs><sodipodi:namedview
   pagecolor="#ffffff"
   bordercolor="#666666"
   borderopacity="1"
   objecttolerance="10"
   gridtolerance="10"
   guidetolerance="10"
   inkscape:pageopacity="0"
   inkscape:pageshadow="2"
   inkscape:window-width="1366"
   inkscape:window-height="690"
   id="namedview37"
   showgrid="false"
   showguides="true"
   inkscape:guide-bbox="true"
   inkscape:zoom="7.1889192"
   inkscape:cx="5.8288957"
   inkscape:cy="16.728384"
   inkscape:window-x="0"
   inkscape:window-y="28"
   inkscape:window-maximized="1"
   inkscape:current-layer="Capa_1" />
<path
   style="fill:#2c5aa0;stroke-width:0.0924025"
   d="M 23.712891 0.49414062 C 17.87943 0.49414062 13.190692 1.6145182 9.7773438 3.8261719 C 5.6761507 6.4835756 3.5078125 10.727685 3.5078125 16.097656 C 3.5078125 23.324362 9.3140783 32.983146 11.09375 35.771484 C 13.125497 38.954565 15.343857 41.851266 17.339844 43.927734 C 19.882206 46.572017 21.907994 47.802734 23.712891 47.802734 C 25.517882 47.802734 27.5419 46.572109 30.083984 43.927734 C 32.079878 41.851358 34.298332 38.954657 36.330078 35.771484 C 38.10975 32.983238 43.916016 23.324362 43.916016 16.097656 C 43.916108 10.727777 41.749814 6.4836678 37.648438 3.8261719 C 34.235274 1.6145182 29.546261 0.49414062 23.712891 0.49414062 z M 17.044922 5.6054688 C 18.375485 5.6218695 19.712185 6.0563302 20.841797 6.9335938 C 22.008904 7.8399759 22.764577 9.0761771 23.09375 10.410156 L 23.097656 10.404297 C 23.097656 10.404297 25.10551 11.854816 25.521484 11.884766 C 25.937456 11.914715 26.164412 12.09053 25.455078 13.003906 C 25.254197 13.262571 25.087726 13.577167 24.951172 13.894531 L 25.744141 14.181641 C 26.356402 13.467242 27.426672 13.346407 28.177734 13.929688 C 28.808037 14.419181 29.010193 15.248268 28.742188 15.958984 L 29.320312 16.410156 C 29.484906 16.220733 29.688147 16.066913 29.927734 15.970703 C 30.454651 15.759155 31.062692 15.844641 31.511719 16.193359 C 31.735324 16.367011 31.909966 16.596918 32.015625 16.861328 L 32.650391 18.443359 C 32.810106 18.841343 32.805084 19.27763 32.636719 19.671875 C 32.494465 20.003547 32.246716 20.265735 31.935547 20.4375 L 32.027344 22.052734 C 32.322785 22.104394 32.62375 22.131074 32.90625 22.115234 C 34.060939 22.050655 34.076683 22.340098 33.865234 22.699219 C 33.698774 22.98168 33.695072 24.568755 33.701172 25.236328 C 34.594915 26.153885 35.169554 27.379987 35.251953 28.84375 C 35.251953 28.84375 35.251953 28.845703 35.251953 28.845703 C 35.433165 32.083395 33.115955 34.55429 29.992188 35.087891 C 29.989488 35.092451 29.985322 35.098216 29.982422 35.103516 C 26.816255 35.238001 23.997129 33.311081 23.496094 30.105469 C 23.114667 27.66471 24.211044 25.593691 26.103516 24.398438 L 26.199219 23.818359 L 26.617188 24.105469 C 26.718233 24.053626 26.819117 24.001988 26.923828 23.955078 L 26.984375 23.359375 L 27.558594 23.707031 C 27.596566 23.694061 27.637291 23.682492 27.675781 23.669922 L 27.894531 23.078125 L 28.386719 23.480469 C 28.454972 23.466029 28.522387 23.448257 28.591797 23.435547 L 28.490234 21.611328 L 30.267578 21.511719 C 30.267578 21.511719 30.552033 21.64094 30.96875 21.779297 L 30.904297 20.623047 C 30.642634 20.580959 30.391075 20.475792 30.175781 20.308594 C 29.952436 20.135143 29.777938 19.902563 29.671875 19.638672 L 29.037109 18.056641 C 28.953956 17.850095 28.916475 17.63401 28.921875 17.417969 L 28.103516 16.78125 C 27.481477 17.216604 26.626394 17.227775 25.996094 16.738281 C 25.490451 16.345596 25.260992 15.731006 25.326172 15.136719 L 24.609375 14.878906 C 24.503867 15.254936 24.453125 15.521484 24.453125 15.521484 L 23.361328 16.927734 L 21.353516 15.367188 L 21.359375 15.349609 L 20.587891 14.75 C 22.141689 12.749245 21.778618 9.8569357 19.777344 8.3027344 C 17.798924 6.7662815 14.950602 7.1065519 13.384766 9.0488281 L 13.394531 9.1113281 C 13.394531 9.1113281 13.329391 9.12101 13.205078 9.140625 C 13.143542 9.150706 13.066133 9.1631914 12.976562 9.1777344 C 12.932448 9.1846874 12.884444 9.1924819 12.833984 9.2011719 C 12.795257 9.2118989 12.755651 9.2241551 12.712891 9.2363281 C 12.625553 9.2592611 12.529072 9.284737 12.423828 9.3125 C 12.311528 9.353102 12.190319 9.3963424 12.060547 9.4433594 C 11.931727 9.4923653 11.802375 9.5653263 11.660156 9.6289062 C 11.520421 9.6973293 11.385482 9.7921131 11.236328 9.8769531 C 10.956642 10.073584 10.660015 10.304934 10.394531 10.599609 C 10.113176 10.879875 9.8771196 11.230122 9.6621094 11.609375 C 9.450851 11.992374 9.305452 12.424593 9.1992188 12.875 C 9.1044956 13.32935 9.0837555 13.804783 9.1113281 14.28125 C 9.1401955 14.47728 9.1687214 14.821596 9.2265625 15.003906 C 9.2657406 15.220434 9.3495372 15.44962 9.4257812 15.675781 C 9.6063782 16.114962 9.8295229 16.535266 10.113281 16.898438 C 10.399227 17.256647 10.709747 17.587692 11.056641 17.837891 C 11.39221 18.104325 11.754673 18.294316 12.095703 18.455078 C 12.444305 18.599656 12.773478 18.706349 13.074219 18.787109 C 13.225192 18.824833 13.369667 18.856331 13.501953 18.894531 C 13.635588 18.922951 13.759456 18.937414 13.873047 18.964844 C 14.099882 19.020694 14.283183 19.027141 14.410156 19.056641 C 14.538574 19.082671 14.607422 19.095703 14.607422 19.095703 C 14.607422 19.095703 14.543497 19.121813 14.419922 19.164062 C 14.340543 19.186933 14.232319 19.225442 14.103516 19.257812 L 13.560547 19.910156 L 13.294922 19.345703 C 13.22187 19.344403 13.145366 19.341644 13.066406 19.339844 L 12.650391 19.910156 L 12.285156 19.232422 L 11.724609 19.693359 L 11.455078 18.970703 L 11.539062 18.978516 C 11.230244 18.85401 10.909493 18.701939 10.599609 18.5 C 10.172858 18.246437 9.7766891 17.89856 9.4003906 17.503906 C 9.025877 17.104809 8.7102136 16.629026 8.4433594 16.113281 C 8.3241456 15.849169 8.1977801 15.584867 8.1113281 15.28125 C 8.0631735 15.133108 8.0144545 14.980464 7.9921875 14.857422 L 7.8984375 14.433594 C 7.8181785 13.843768 7.8030685 13.24073 7.8828125 12.652344 C 7.9742682 12.067642 8.127629 11.496764 8.3652344 10.978516 C 8.6062463 10.464996 8.8877142 9.9815653 9.2304688 9.5820312 C 9.5595449 9.1706253 9.9384666 8.8430369 10.302734 8.5605469 C 10.49451 8.4326187 10.673819 8.2987787 10.857422 8.1953125 C 11.043451 8.0962281 11.214488 7.9905555 11.386719 7.9140625 C 11.56028 7.8406833 11.724562 7.7724264 11.875 7.7089844 C 12.037413 7.6531763 12.193227 7.6107315 12.332031 7.5703125 C 12.351731 7.5647905 12.369642 7.5598975 12.388672 7.5546875 C 13.633023 6.2536463 15.334198 5.5843821 17.044922 5.6054688 z M 12.730469 7.9511719 C 12.657068 7.9603136 12.587972 7.9975688 12.539062 8.0605469 C 12.441248 8.186503 12.463628 8.3668238 12.589844 8.4648438 C 12.715541 8.5624599 12.896321 8.5400186 12.994141 8.4140625 C 13.091757 8.288366 13.068796 8.1071806 12.943359 8.0097656 C 12.880252 7.9607557 12.803869 7.9420302 12.730469 7.9511719 z M 24.201172 12.525391 C 24.113161 12.536457 24.029394 12.58263 23.970703 12.658203 C 23.853322 12.809351 23.882056 13.027149 24.033203 13.144531 C 24.184351 13.261914 24.400196 13.233179 24.517578 13.082031 C 24.634959 12.930884 24.608178 12.713085 24.457031 12.595703 C 24.381458 12.537013 24.289182 12.514324 24.201172 12.525391 z M 23.449219 14.292969 C 23.361208 14.304036 23.277441 14.348255 23.21875 14.423828 C 23.101369 14.574975 23.12763 14.792371 23.279297 14.910156 C 23.430185 15.027337 23.648243 15.000757 23.765625 14.849609 C 23.883006 14.698462 23.855965 14.480461 23.705078 14.363281 C 23.629245 14.30439 23.537229 14.281902 23.449219 14.292969 z M 26.996094 14.603516 C 26.808852 14.627031 26.630502 14.722316 26.505859 14.882812 C 26.256574 15.203806 26.315985 15.666933 26.636719 15.916016 C 26.797475 16.040859 26.993855 16.088063 27.181641 16.064453 L 26.769531 15.744141 L 27.40625 14.923828 L 27.818359 15.242188 C 27.795006 15.054604 27.69982 14.876797 27.539062 14.751953 C 27.378696 14.627411 27.183335 14.580001 26.996094 14.603516 z M 30.605469 16.902344 C 30.509246 16.88887 30.409213 16.898332 30.316406 16.935547 C 30.250786 16.961607 30.192178 16.999625 30.142578 17.046875 L 30.693359 17.476562 L 30.1875 18.128906 L 30.636719 19.251953 C 30.678323 19.355457 30.752497 19.438267 30.841797 19.498047 L 30.833984 19.382812 L 31.638672 19.335938 C 31.653472 19.312047 31.668457 19.287969 31.679688 19.261719 C 31.739008 19.123736 31.739644 18.970197 31.683594 18.830078 L 31.048828 17.25 C 31.012163 17.157826 30.951477 17.074582 30.873047 17.013672 C 30.794227 16.952462 30.701691 16.915817 30.605469 16.902344 z M 30.429688 22.460938 C 30.239412 22.472209 30.092906 22.635579 30.103516 22.826172 C 30.114441 23.017428 30.277696 23.163014 30.46875 23.152344 C 30.659804 23.141678 30.805532 22.977702 30.794922 22.787109 C 30.783938 22.595392 30.621001 22.450478 30.429688 22.460938 z M 32.310547 22.84375 C 32.21806 22.849627 32.136327 22.892378 32.078125 22.955078 L 32.089844 23.175781 L 31.988281 23.181641 C 31.988281 23.191241 31.98356 23.198774 31.984375 23.208984 C 31.994378 23.400356 32.159017 23.547719 32.349609 23.537109 C 32.541385 23.526586 32.686711 23.363131 32.675781 23.171875 C 32.665555 22.980973 32.502437 22.834013 32.3125 22.84375 L 32.310547 22.84375 z M 28.972656 25.125 C 26.523017 25.549491 24.824934 27.36818 25.210938 29.837891 C 25.563973 32.101307 27.508425 33.425983 29.728516 33.376953 C 31.982146 33.011323 33.653145 31.28187 33.521484 28.941406 C 33.38479 26.501276 31.383707 25.09437 28.972656 25.125 z M 29.597656 34.019531 C 29.451302 34.027857 29.337603 34.154628 29.345703 34.300781 C 29.35423 34.446876 29.480338 34.558881 29.626953 34.550781 C 29.773625 34.543118 29.884853 34.416405 29.876953 34.269531 C 29.868483 34.123897 29.744531 34.011631 29.597656 34.019531 z "
   id="path2" />

<g
   id="g6"
   transform="translate(0,-464)">
</g>
<g
   id="g8"
   transform="translate(0,-464)">
</g>
<g
   id="g10"
   transform="translate(0,-464)">
</g>
<g
   id="g12"
   transform="translate(0,-464)">
</g>
<g
   id="g14"
   transform="translate(0,-464)">
</g>
<g
   id="g16"
   transform="translate(0,-464)">
</g>
<g
   id="g18"
   transform="translate(0,-464)">
</g>
<g
   id="g20"
   transform="translate(0,-464)">
</g>
<g
   id="g22"
   transform="translate(0,-464)">
</g>
<g
   id="g24"
   transform="translate(0,-464)">
</g>
<g
   id="g26"
   transform="translate(0,-464)">
</g>
<g
   id="g28"
   transform="translate(0,-464)">
</g>
<g
   id="g30"
   transform="translate(0,-464)">
</g>
<g
   id="g32"
   transform="translate(0,-464)">
</g>
<g
   id="g34"
   transform="translate(0,-464)">
</g>
</svg>