<?xml version="1.0" encoding="UTF-8" standalone="no"?>
<!-- Created with Inkscape (http://www.inkscape.org/) -->

<svg
   xmlns:dc="http://purl.org/dc/elements/1.1/"
   xmlns:cc="http://creativecommons.org/ns#"
   xmlns:rdf="http://www.w3.org/1999/02/22-rdf-syntax-ns#"
   xmlns:svg="http://www.w3.org/2000/svg"
   xmlns="http://www.w3.org/2000/svg"
   xmlns:sodipodi="http://sodipodi.sourceforge.net/DTD/sodipodi-0.dtd"
   xmlns:inkscape="http://www.inkscape.org/namespaces/inkscape"
   width="48"
   height="48"
   viewBox="0 0 12.7 12.7"
   version="1.1"
   id="svg829"
   inkscape:version="0.92.3 (2405546, 2018-03-11)"
   sodipodi:docname="wmtweaks.svg">
  <defs
     id="defs823" />
  <sodipodi:namedview
     id="base"
     pagecolor="#ffffff"
     bordercolor="#666666"
     borderopacity="1.0"
     inkscape:pageopacity="0.0"
     inkscape:pageshadow="2"
     inkscape:zoom="5.6041667"
     inkscape:cx="24"
     inkscape:cy="24"
     inkscape:document-units="mm"
     inkscape:current-layer="layer1"
     showgrid="false"
     showguides="true"
     inkscape:guide-bbox="true"
     inkscape:window-width="1366"
     inkscape:window-height="719"
     inkscape:window-x="0"
     inkscape:window-y="25"
     inkscape:window-maximized="1"
     scale-x="1.9"
     units="px"
     inkscape:snap-global="true" />
  <metadata
     id="metadata826">
    <rdf:RDF>
      <cc:Work
         rdf:about="">
        <dc:format>image/svg+xml</dc:format>
        <dc:type
           rdf:resource="http://purl.org/dc/dcmitype/StillImage" />
        <dc:title></dc:title>
      </cc:Work>
    </rdf:RDF>
  </metadata>
  <g
     inkscape:label="Capa 1"
     inkscape:groupmode="layer"
     id="layer1"
     transform="translate(0,-284.3)">
    <path
       style="fill:#1a1a1a;fill-opacity:1;stroke-width:0.52516764"
       d="M 23.978516 0.27539062 A 23.770509 23.770509 0 0 0 0.20703125 24.046875 A 23.770509 23.770509 0 0 0 23.978516 47.816406 A 23.770509 23.770509 0 0 0 47.748047 24.046875 A 23.770509 23.770509 0 0 0 23.978516 0.27539062 z M 23.910156 3.8144531 A 20.436071 20.436071 0 0 1 44.345703 24.25 A 20.436071 20.436071 0 0 1 39.785156 37.091797 L 37.154297 34.478516 C 37.471489 34.24953 37.691406 33.895524 37.691406 33.472656 L 37.691406 12.003906 C 37.691406 11.304467 37.127307 10.742188 36.427734 10.742188 L 11.802734 10.742188 C 11.103159 10.742188 10.541016 11.304467 10.541016 12.003906 L 10.541016 33.472656 C 10.541016 34.17236 11.103159 34.734375 11.802734 34.734375 L 32.994141 34.734375 L 37.644531 39.351562 A 20.436071 20.436071 0 0 1 23.910156 44.685547 A 20.436071 20.436071 0 0 1 3.4726562 24.25 A 20.436071 20.436071 0 0 1 23.910156 3.8144531 z M 12.152344 15.476562 L 36.078125 15.476562 C 36.446315 15.476562 36.744141 15.780074 36.744141 16.15625 L 36.744141 33.109375 C 36.744141 33.37336 36.592104 33.59494 36.376953 33.707031 L 28.271484 25.660156 C 27.424974 24.819665 26.98144 24.100144 26.753906 23.53125 C 26.951326 22.744957 26.870486 21.904862 26.455078 21.162109 C 25.930496 20.223842 24.82868 19.394871 23.662109 18.990234 C 23.562005 18.952439 23.452861 18.973618 23.384766 19.060547 C 23.316666 19.142185 23.304017 19.257767 23.357422 19.349609 L 24.787109 21.908203 C 24.915402 22.137998 24.847414 22.434457 24.640625 22.736328 C 24.431885 23.04058 24.084984 23.343821 23.640625 23.585938 C 23.196176 23.827449 22.752374 23.962024 22.380859 23.974609 C 22.011539 23.997287 21.720415 23.88447 21.591797 23.654297 L 20.154297 21.080078 C 20.11423 21.009023 20.044449 20.960621 19.962891 20.951172 C 19.881359 20.932274 19.798517 20.976825 19.744141 21.03125 C 19.714774 21.057707 19.693651 21.102956 19.683594 21.144531 C 19.406913 22.336216 19.537704 23.703857 20.0625 24.642578 C 20.779203 25.924178 22.272717 26.53609 23.734375 26.277344 C 24.331649 26.478037 25.12347 26.921522 26.0625 27.853516 L 32.039062 33.787109 L 12.152344 33.787109 C 11.784142 33.787109 11.488281 33.485476 11.488281 33.109375 L 11.488281 16.15625 C 11.488281 15.780943 11.784131 15.476562 12.152344 15.476562 z "
       transform="matrix(0.26458333,0,0,0.26458333,0,284.3)"
       id="path822" />
  </g>
</svg>
