<?xml version="1.0" encoding="UTF-8" standalone="no"?>
<svg
   xmlns:dc="http://purl.org/dc/elements/1.1/"
   xmlns:cc="http://creativecommons.org/ns#"
   xmlns:rdf="http://www.w3.org/1999/02/22-rdf-syntax-ns#"
   xmlns:svg="http://www.w3.org/2000/svg"
   xmlns="http://www.w3.org/2000/svg"
   xmlns:sodipodi="http://sodipodi.sourceforge.net/DTD/sodipodi-0.dtd"
   xmlns:inkscape="http://www.inkscape.org/namespaces/inkscape"
   width="48"
   height="48"
   version="1"
   id="svg8"
   sodipodi:docname="audio-speaker-left-back.svg"
   inkscape:version="0.92.4 (5da689c313, 2019-01-14)">
  <metadata
     id="metadata14">
    <rdf:RDF>
      <cc:Work
         rdf:about="">
        <dc:format>image/svg+xml</dc:format>
        <dc:type
           rdf:resource="http://purl.org/dc/dcmitype/StillImage" />
        <dc:title></dc:title>
      </cc:Work>
    </rdf:RDF>
  </metadata>
  <defs
     id="defs12" />
  <sodipodi:namedview
     pagecolor="#ffffff"
     bordercolor="#666666"
     borderopacity="1"
     objecttolerance="10"
     gridtolerance="10"
     guidetolerance="10"
     inkscape:pageopacity="0"
     inkscape:pageshadow="2"
     inkscape:window-width="1138"
     inkscape:window-height="480"
     id="namedview10"
     showgrid="false"
     inkscape:zoom="4.9166667"
     inkscape:cx="2.1355932"
     inkscape:cy="24"
     inkscape:window-x="0"
     inkscape:window-y="25"
     inkscape:window-maximized="0"
     inkscape:current-layer="svg8" />
  <g
     id="g6"
     style="color:#31363b;fill:#1e3f5a">
    <path
       d="M 38.19,38.12 A 20,20 0 0 1 9.928,38.186 20,20 0 0 1 9.818,9.922 l 14.209,14.077 z"
       id="path2"
       inkscape:connector-curvature="0" />
    <path
       d="M 42.267,32.11 40.111,30.815 A 17.5,17.5 0 0 0 36.384,11.606 17.5,17.5 0 0 0 17.189,7.896 L 15.894,5.744 A 20,20 0 0 1 38.152,9.838 20,20 0 0 1 42.267,32.11 Z M 36.46,24.675 33.986,24.111 A 10,10 0 0 0 31.08,16.91 10,10 0 0 0 23.884,13.99 l -0.575,-2.476 a 12.5,12.5 0 0 1 9.54,3.628 12.5,12.5 0 0 1 3.611,9.533 z"
       id="path4"
       inkscape:connector-curvature="0"
       style="opacity:0.5" />
  </g>
</svg>
