<svg xmlns="http://www.w3.org/2000/svg" width="48" height="48" viewBox="0 0 12.7 12.7"><path d="M6.344.073a6.29 6.29 0 0 0-6.29 6.29 6.29 6.29 0 0 0 6.29 6.288 6.29 6.29 0 0 0 6.29-6.289 6.29 6.29 0 0 0-6.29-6.29zm-.018.936a5.407 5.407 0 0 1 5.407 5.407 5.407 5.407 0 0 1-5.407 5.407A5.407 5.407 0 0 1 .92 6.416 5.407 5.407 0 0 1 6.326 1.01zM3.033 3.477a.82.82 0 0 0-.82.823L2.21 8.416c0 .455.368.823.823.823h6.585a.823.823 0 0 0 .823-.823V4.3a.823.823 0 0 0-.823-.823H3.033zm.411 1.235h.823v.823h-.823v-.823zm1.235 0h.824v.823h-.824v-.823zm1.235 0h.823v.823h-.823v-.823zm1.234 0h.824v.823h-.824v-.823zm1.235 0h.824v.823h-.824v-.823zM3.444 5.946h.823v.824h-.823v-.824zm1.235 0h.824v.824h-.824v-.824zm1.235 0h.823v.824h-.823v-.824zm1.234 0h.824v.824h-.824v-.824zm1.235 0h.824v.824h-.824v-.824zM4.68 7.593h3.293v.823H4.679v-.823z" fill="#a02c2c"/></svg>