<svg xmlns="http://www.w3.org/2000/svg" width="24" height="24"><path d="M12 2.07c-5.54 0-10 4.4-10 9.88a9.92 9.92 0 0 0 10 9.9c5.54 0 10-4.42 10-9.9a9.92 9.92 0 0 0-10-9.88zm0 2.47c4.16 0 7.5 3.3 7.5 7.42 0 4.1-3.35 7.41-7.5 7.41-4.16 0-7.5-3.3-7.5-7.42 0-4.1 3.34-7.41 7.5-7.41zm-.22 1.62c-1.91.11-3.38 1.59-3.28 3.5h2.34c-.04-.66.43-1.13 1.09-1.16a1.15 1.15 0 0 1 1.24 1.09v.03c0 .16-.04.39-.15.52-.26.31-.56.57-.8.76a4.46 4.46 0 0 0-.84.8c-.28.36-.54.87-.54 1.46-.01.62.55 1.17 1.16 1.17a1.2 1.2 0 0 0 1.17-1.17s-.02.04.04-.04c.05-.07.2-.2.43-.36 1.42-1.07 1.86-1.68 1.86-3.32a3.53 3.53 0 0 0-3.72-3.28zm.18 9.34a1.17 1.17 0 0 0 .04 2.33 1.17 1.17 0 1 0 0-2.33 1.17 1.17 0 0 0-.04 0z" fill="gray" stroke-width=".83"/></svg>