<svg xmlns="http://www.w3.org/2000/svg" version="1" viewBox="0 0 24 24"><path style="font-variant-ligatures:normal;font-variant-position:normal;font-variant-caps:normal;font-variant-numeric:normal;font-variant-alternates:normal;font-feature-settings:normal;text-indent:0;text-decoration-line:none;text-decoration-style:solid;text-decoration-color:#000;text-transform:none;text-orientation:mixed;shape-padding:0;isolation:auto;mix-blend-mode:normal" d="M11.36 2a9.39 9.39 0 0 0-9.37 9.37 9.39 9.39 0 0 0 11.24 9.18v-2.57a6.96 6.96 0 0 1-1.87.26 6.85 6.85 0 0 1-6.87-6.87c0-3.8 3.06-6.87 6.87-6.87a6.85 6.85 0 0 1 6.6 8.74h2.58A9.36 9.36 0 0 0 11.36 2zm3.7 5a.62.62 0 0 0-.09.01v.01a.62.62 0 0 0-.3.2l-3.33 3.3-2.06-2.05a.62.62 0 1 0-.86.85l2.5 2.5a.62.62 0 0 0 .85 0l3.75-3.74A.62.62 0 0 0 15.07 7z" color="#000" font-weight="400" white-space="normal" overflow="visible" fill="gray" fill-opacity=".3"/><path style="font-variant-ligatures:normal;font-variant-position:normal;font-variant-caps:normal;font-variant-numeric:normal;font-variant-alternates:normal;font-feature-settings:normal;text-indent:0;text-decoration-line:none;text-decoration-style:solid;text-decoration-color:#000;text-transform:none;text-orientation:mixed;shape-padding:0;isolation:auto;mix-blend-mode:normal" d="M19.93 14.68l-1.73 1.8-1.8-1.75-1.73 1.8 1.8 1.73-1.74 1.8 1.8 1.73L18.26 20l1.8 1.74 1.73-1.8-1.8-1.73 1.74-1.8z" color="#000" font-weight="400" white-space="normal" overflow="visible" fill="gray"/></svg>