<?xml version="1.0" encoding="UTF-8" standalone="no"?>
<svg
   xmlns:dc="http://purl.org/dc/elements/1.1/"
   xmlns:cc="http://creativecommons.org/ns#"
   xmlns:rdf="http://www.w3.org/1999/02/22-rdf-syntax-ns#"
   xmlns:svg="http://www.w3.org/2000/svg"
   xmlns="http://www.w3.org/2000/svg"
   xmlns:sodipodi="http://sodipodi.sourceforge.net/DTD/sodipodi-0.dtd"
   xmlns:inkscape="http://www.inkscape.org/namespaces/inkscape"
   width="48"
   height="48"
   viewBox="0 0 12.7 12.7"
   version="1.1"
   id="svg8"
   sodipodi:docname="basealt-red.svg"
   inkscape:version="1.0.1 (3bc2e813f5, 2020-09-07)">
  <title
     id="title834">basealt</title>
  <sodipodi:namedview
     pagecolor="#ffffff"
     bordercolor="#666666"
     borderopacity="1"
     objecttolerance="10"
     gridtolerance="10"
     guidetolerance="10"
     inkscape:pageopacity="0"
     inkscape:pageshadow="2"
     inkscape:window-width="1920"
     inkscape:window-height="1001"
     id="namedview9"
     showgrid="false"
     inkscape:zoom="0.93098956"
     inkscape:cx="138.60873"
     inkscape:cy="60.901495"
     inkscape:window-x="0"
     inkscape:window-y="0"
     inkscape:window-maximized="1"
     inkscape:current-layer="svg8"
     inkscape:document-rotation="0" />
  <defs
     id="defs2" />
  <metadata
     id="metadata5">
    <rdf:RDF>
      <cc:Work
         rdf:about="">
        <dc:format>image/svg+xml</dc:format>
        <dc:type
           rdf:resource="http://purl.org/dc/dcmitype/StillImage" />
        <dc:title>basealt</dc:title>
        <dc:description>Main icon for Alterator Control Center by BaseALT distros</dc:description>
        <cc:license
           rdf:resource="http://creativecommons.org/licenses/by-sa/4.0/" />
      </cc:Work>
      <cc:License
         rdf:about="http://creativecommons.org/licenses/by-sa/4.0/">
        <cc:permits
           rdf:resource="http://creativecommons.org/ns#Reproduction" />
        <cc:permits
           rdf:resource="http://creativecommons.org/ns#Distribution" />
        <cc:requires
           rdf:resource="http://creativecommons.org/ns#Notice" />
        <cc:requires
           rdf:resource="http://creativecommons.org/ns#Attribution" />
        <cc:permits
           rdf:resource="http://creativecommons.org/ns#DerivativeWorks" />
        <cc:requires
           rdf:resource="http://creativecommons.org/ns#ShareAlike" />
      </cc:License>
    </rdf:RDF>
  </metadata>
  <path
     id="path4583-7"
     style="display:inline;fill:#a02c2c;fill-opacity:1;stroke:#a02c2c;stroke-width:0.0243054px;stroke-linecap:butt;stroke-linejoin:miter;stroke-opacity:1"
     d="m 6.9269215,3.07644 c -0.042885,2.1e-5 -0.087572,0.002 -0.1346768,0.0067 C 6.6832043,3.1033 6.5871092,3.13376 6.5022885,3.16403 6.4553415,3.1885 6.3778977,3.23135 6.3384645,3.266378 6.1838997,3.401877 6.1278909,3.592085 6.1087976,3.626402 c -0.030833,0.09563 -0.069034,0.23331 -0.078708,0.320148 -0.021083,0.109562 -0.026661,0.256881 -0.043912,0.349009 -0.011451,0.03985 -0.029655,0.07372 -0.037454,0.09855 -0.059819,0.109769 -0.1341575,0.208168 -0.1983834,0.314689 -0.035438,0.03966 -0.064155,0.107186 -0.084214,0.118203 -0.1779929,0.02816 -0.2601376,0.0292 -0.3527135,0.01567 -0.1216254,-0.01021 -0.2034654,-0.02579 -0.2573905,-0.02858 -0.04284,-0.0022 -0.01777,0.08316 -0.045098,0.08331 -0.02231,0.0048 -0.052583,-0.03816 -0.051934,-0.06779 6.543e-4,-0.02934 -0.00427,-0.05901 -0.038689,-0.05768 -0.039585,0.0015 -0.06967,0.05473 -0.06214,0.08863 0.00254,0.07631 0.1319634,0.224959 0.3569374,0.335718 -0.1425586,0.0144 -0.2088025,-0.03199 -0.3449749,-0.128552 -0.00795,0.06946 -0.011562,0.143281 0.00717,0.171371 0.085263,0.136722 0.1480887,0.19077 0.1905033,0.22549 0.1070544,0.08023 0.1651057,0.128577 0.1974338,0.162542 0.00858,0.05452 0.00993,0.09878 -4.83e-5,0.180962 C 5.2593625,5.867552 5.0943386,6.125631 4.9037347,6.283804 3.7900508,6.973087 3.4810589,7.39814 3.3781908,7.731352 3.3581388,7.837057 3.3407898,7.958978 3.3335198,8.118434 3.3692068,8.532698 3.3455928,8.840269 3.2021662,8.891982 3.0715954,8.939062 2.4334895,9.2366 2.3838046,9.532847 c 0.1286671,-0.02364 0.1709259,-0.0875 0.2738635,-0.0977 0.1077922,-0.01921 0.5079572,-0.0028 0.6074448,-0.02013 0.3786427,-0.109135 0.335387,-0.262088 0.4041254,-0.392019 0.042466,0.375635 0.3518375,0.482655 0.4415793,0.502438 0.1335448,0.02229 0.2783393,0.0108 0.3754046,-5.32e-4 0.1220665,-0.0243 0.2565917,-0.04057 0.3270789,-0.0098 0.2856338,0.08255 0.6389096,0.04832 0.7905899,-0.03973 0.073287,-0.02785 0.1182603,0.02084 0.2187017,0.05654 0.5137837,0.1431 1.0933595,0.114953 1.3806131,-0.06404 0.1287897,-0.009 0.2766744,0.02804 0.3718915,0.03157 0.036992,0.01832 0.1238935,0.03463 0.1466876,0.03727 0.137863,-0.002 0.2161139,-0.09333 0.2247297,-0.173461 0.00327,-0.0885 -0.066457,-0.1125 -0.041443,-0.212151 0.055408,0.01996 0.1921859,0.0086 0.2502228,0.01173 0.1286081,-0.0036 0.3582436,-0.03013 0.4396333,-0.07088 0.00331,0.04595 -6.543e-4,0.07058 -0.059197,0.141371 -0.048002,0.04977 -0.1111134,0.07588 -0.1288854,0.08668 -0.029827,0.01231 -0.070469,0.03621 -0.1082346,0.04159 -0.1951656,0.05039 -0.2170879,0.0065 -0.2866803,0.02132 0.027099,0.06215 0.2458177,0.127932 0.2762842,0.140469 0.054479,0.01228 0.1365001,0.02235 0.2243973,0.01467 0.2211019,-0.0312 0.3740913,-0.07877 0.5248927,-0.23731 0.051615,-0.04751 0.1411052,-0.120606 0.2045541,-0.120816 0.076079,0.01507 0.1116794,0.05621 0.1291226,0.07771 0.2170878,0.267577 0.3167406,0.237934 0.7901157,0.242199 0.05183,0.01557 0.09688,0.0142 0.157509,0.04567 C 10.325606,9.40944 9.9385369,9.134476 9.684161,9.028636 9.637407,9.024636 9.60637,8.789756 9.609393,8.719692 9.7785365,7.909056 8.7432716,7.697111 8.6372241,7.666109 8.3498555,7.612069 7.6872199,7.196726 7.503225,6.92636 7.467656,6.633693 7.5443,6.420457 7.563514,6.14816 7.624142,5.68422 7.6674128,5.241845 7.623186,4.948698 7.610688,4.865868 7.4048279,4.305101 7.5007088,4.073229 7.5859718,3.899441 7.7886451,3.729903 7.8630117,3.561155 c 0,0 0.024776,-0.05195 0.039499,-0.229666 0.030383,-0.04802 0.034988,-0.06725 0.034988,-0.116353 0,0 0.016608,-0.08862 -0.081936,-0.08977 0.00217,0.05419 0.00771,0.09426 -0.0197,0.133205 -0.024432,-0.0112 -0.036157,-0.115206 -0.097981,-0.12651 -0.04275,-9e-4 -0.131545,0.01197 -0.1675267,0.01058 -0.047485,-0.0024 -0.095438,-0.01117 -0.1433643,-0.01524 -0.053379,4.5e-4 -0.085316,-0.01076 -0.1455474,-0.0217 -0.11336,-0.0119 -0.2258635,-0.02926 -0.3545174,-0.0292 z m 0.7492423,0.09205 c 0.00859,0 0.053691,0.0272 0.053691,0.0272 -0.041474,0.04014 -0.067789,0.06584 -0.1351995,0.09091 -0.08526,0.0099 -0.1543828,0.01241 -0.2403474,0.0081 0.014502,0.01961 0.039241,0.04766 0.030763,0.07292 -0.00344,0.01489 -0.070188,0.09642 -0.1203403,0.128886 -0.073237,0.01061 -0.1842726,0.0261 -0.248133,-0.04458 0.055958,-3.4e-4 0.094397,0.0048 0.149867,-0.0027 0.052446,-0.01409 0.073239,-0.0292 0.105814,-0.07733 l 0.029242,-0.05811 c -0.031242,-0.01519 -0.066269,-0.01983 -0.1538549,-0.02729 -0.022031,-9e-4 -0.060845,0.01674 -0.072489,0.0243 -0.011198,0.0073 -0.067694,0.05573 -0.067694,0.05573 l -0.093235,0.08526 c 0,0 -0.038047,0.04163 -0.085638,0.08592 -0.057753,0.09143 -0.077274,0.182846 -0.1401841,0.270872 -0.00204,-0.07364 -0.019275,-0.09702 0.00836,-0.198478 -0.049495,0.03311 -0.059783,0.04913 -0.090528,0.09262 0,0 -0.046549,0.07526 -0.066032,0.115499 -0.044606,0.09622 -0.09086,0.202597 -0.086873,0.320242 l 0.00622,0.183001 c 0,0 0.00679,0.129103 0.017803,0.192261 0.014122,0.08099 0.053609,0.155455 0.078993,0.233227 0.013369,0.04096 0.072205,0.180866 0.072205,0.180866 L 6.5138796,4.813382 C 6.4861796,4.785742 6.4132178,4.679876 6.3892675,4.586754 6.3677105,4.516244 6.3554825,4.431726 6.3463055,4.376217 c -0.036035,0.09811 -0.014343,0.189029 -0.00213,0.279274 0.018404,0.122465 0.094951,0.265343 0.1525257,0.389932 l 0.090243,0.148206 0.1009721,0.184758 0.1031075,0.225585 0.1031082,0.292187 0.1310689,0.345877 0.098788,0.191168 0.1619734,0.233465 C 7.2231203,6.641299 7.1831796,6.613809 7.1369009,6.555681 L 7.0488419,6.433204 6.9714629,6.297863 6.8683552,6.076598 6.7824312,5.85315 6.6857312,5.636205 6.6041282,5.460561 C 6.5293082,5.329831 6.4514566,5.196693 6.3484939,5.075472 6.2162508,4.973236 6.092777,4.869541 5.9217252,4.847372 L 5.7942169,4.828432 C 5.6616061,4.808702 5.7203669,4.792152 5.7950347,4.711937 5.8566377,4.645757 5.9430013,4.550743 5.9711545,4.457063 l 0.1147386,-0.255965 0.037597,-0.115974 0.044577,-0.17778 0.024686,-0.07306 c 0.038145,0.0022 0.077786,-0.0048 0.1138842,-0.02041 0.03819,-0.0323 0.074383,-0.05209 0.092902,-0.110609 0.00854,-0.07043 0.010507,-0.122961 -0.032473,-0.190407 l 0.091003,-0.106622 0.088108,-0.07088 C 6.672078,3.244016 6.7738031,3.180258 6.938766,3.175282 l 0.1578893,0.01021 0.1547101,0.0075 0.1330147,0.01111 c 0,0 0.1852444,-0.0177 0.2002836,-0.01984 0.015038,-0.0022 0.082927,-0.01581 0.091525,-0.01581 z M 7.1413019,3.303453 c 0.00241,2.2e-4 0.00483,6.95e-4 0.00727,0.0014 -0.00147,0.02731 -0.00775,0.06212 0.028624,0.0807 -0.012179,0.01867 -0.021238,0.02187 -0.026297,0.02682 -0.1478066,0.116606 -0.084385,-0.115645 -0.00959,-0.108946 z m -1.981934,1.594423 c 0.08092,0.0094 0.1712914,0.02221 0.2540196,0.01918 l 0.1874648,-0.01453 0.2079729,0.0083 0.1199604,0.0206 0.1498678,0.07192 0.1406577,0.122287 0.062567,0.0836 c 0,0 -0.042114,0.02385 -0.045145,0.106335 -0.00188,0.05166 0.041205,0.09252 0.041205,0.09252 0,0 0.079125,0.08356 0.091478,0.09162 0.012891,0.0086 0.1095639,0.0087 0.1095639,0.0087 l 0.049703,0.103392 0.1398508,0.275714 0.15039,0.333013 0.1858508,0.349105 0.1653908,0.205173 0.2137644,0.193351 c 0,0 0.2814615,0.232 0.2900507,0.238449 0.00859,0.0064 0.1933513,0.165961 0.1933513,0.165961 l 0.2336074,0.177495 0.083265,0.04728 0.1193436,0.05521 c 0.2329719,0.07758 0.508048,0.13633 0.7206171,0.296269 L 8.9285569,7.9671 8.7824864,7.99179 8.6890624,8.01761 8.5966824,8.0423 8.4838898,8.0724 8.3895168,8.10615 8.2770561,8.12713 8.1817331,8.12323 8.1036421,8.11643 c 0,0 -0.1450939,-0.03613 -0.1665772,-0.04472 C 7.9156099,8.06311 7.8252514,8.02787 7.8008214,7.99286 7.7922314,7.97568 7.6580268,7.854337 7.6580268,7.854337 l -0.090243,-0.09456 c 0,0 -0.0257,-0.04028 -0.05203,-0.05174 -0.024984,-0.01089 -0.057975,-0.03057 -0.078613,-0.0086 -0.011828,0.01257 -0.025279,0.04695 -0.029054,0.06447 -0.010609,0.04921 -0.00479,0.132398 -0.00479,0.132398 l 0.00631,0.228479 -0.05108,0.149869 -0.062663,0.115736 -0.1501041,0.246092 c 0.0257,-0.09846 0.090239,-0.316653 0.099595,-0.490999 0.00188,-0.03507 -0.046048,0.146878 -0.046048,0.146878 L 7.1308057,8.507167 7.0251815,8.745949 6.9242097,8.966169 6.8006888,9.107919 6.6728483,9.212119 6.5417794,9.285179 6.4086223,9.342099 6.2979661,9.350699 6.4246201,9.18151 6.5100691,9.026848 6.5718771,8.840475 6.5903421,8.667252 6.5871121,8.530818 6.58793,8.330252 6.602125,8.168753 6.632414,7.998379 6.722943,7.766955 6.713873,7.936191 c -0.010805,0.067 -0.037736,0.132203 -0.02103,0.212054 L 6.744872,8.006734 6.827805,7.877089 6.9661364,7.735198 7.0327404,7.654638 c 0,0 0.00959,-0.08564 -0.00432,-0.116021 -0.01384,-0.03023 -0.075196,-0.06551 -0.075196,-0.06551 L 6.8513963,7.403707 6.7246948,7.294428 6.6335488,7.178075 C 6.5805948,7.113285 6.5478868,7.039424 6.5013884,6.961605 L 6.4360674,6.834761 C 6.3925184,6.72408 6.3640374,6.633719 6.3221361,6.52368 6.3013151,6.44997 6.2936841,6.371595 6.2788421,6.297004 c -0.00143,-0.01005 -0.0057,-0.02089 -0.0057,-0.02089 -0.010273,0.07048 -0.029344,0.181752 -0.024686,0.276854 0.00303,0.0091 0.010633,0.148871 0.010633,0.148871 l 0.0038,0.14887 L 6.2082021,6.722346 6.1747811,6.608415 6.1573101,6.513475 C 6.1491301,6.412651 6.1498101,6.308631 6.1383211,6.208138 L 6.1385142,5.855141 6.1101722,5.536702 6.0844432,5.383131 c 0,0 -0.012466,-0.03815 -0.05839,-0.116923 C 5.9268762,5.133954 5.8416403,5.101073 5.6776601,5.044991 c -0.042587,-0.0016 -0.1029913,-3.68e-4 -0.1094215,0.004 -0.022804,0.01631 -0.055293,0.05766 -0.050131,0.07899 0.017009,0.01352 0.045206,0.02459 0.068834,0.03964 0.038726,-0.0016 0.046135,-0.02878 0.040542,-0.06665 -7.362e-4,-0.0027 -0.015856,-0.03565 -0.015856,-0.03565 l 0.038546,5.32e-4 c 0.039053,0.02272 0.067643,0.05598 0.059292,0.102111 l -0.010253,0.01961 0.030477,-0.0031 c 0.062162,-0.0073 0.029356,0.02957 -0.022453,0.04187 -0.00303,0.0015 -0.033376,0.0085 -0.04021,0.0085 -0.058649,0.01384 -0.097174,-0.0034 -0.1540451,-0.02815 -0.029847,-0.01632 -0.048787,-0.0419 -0.087063,-0.05345 -0.018253,-0.02704 -0.014862,-0.04841 0.016236,-0.08298 0.021897,-0.01493 0.018523,-0.02504 0.038926,-0.0431 C 5.4026035,5.022664 5.3693368,5.005264 5.27909,5.000204 L 5.223967,4.966834 Z M 5.3125111,5.674463 C 5.4272542,5.749293 5.5741413,6.11227 5.5711833,6.216207 5.5279663,6.341542 5.5887323,7.077382 5.5384283,7.095712 5.0863699,7.280995 5.0443463,7.923575 4.8205648,7.995772 4.6949091,8.083002 4.5750362,8.116284 4.5771306,8.097407 4.6382206,8.015077 4.7012596,8.005497 4.7296571,7.859527 4.6647461,7.935917 4.5583317,8.024919 4.5583317,8.024919 4.3192273,8.291914 3.8443388,8.30288 3.6517219,8.717624 3.6391539,8.693354 3.6106069,8.580032 3.5853559,8.495646 3.4433205,8.162017 3.4972909,7.870283 3.5550709,7.68754 3.5875309,7.566989 3.6745487,7.440266 3.687563,7.413866 3.8255751,7.233393 4.1027639,6.946045 4.3478443,6.791136 4.3632303,6.776936 4.4057393,6.751866 4.4247953,6.741816 4.883753,6.40997 5.2081942,6.325539 5.2972738,5.857755 c 0.017287,-0.05935 0.00762,-0.131387 0.015238,-0.183288 z m 0.2647957,1.572872 c 0.059949,-5.31e-4 0.1473649,0.004 0.1890789,0.0086 0.2707238,0.107084 0.4601892,0.156417 0.3250366,0.643761 -0.055446,0.284002 -0.077101,0.430486 0.2589581,0.527645 0.028248,0.0086 0.0559,0.02633 0.1004495,0.03845 0.033978,0.01324 0.05416,0.164941 0.046949,0.266458 -0.047092,0.229809 -0.2379731,0.62394 -0.4782755,0.696312 -0.17287,-0.03612 -0.3137089,-0.06545 -0.3299267,-0.09029 0,0 0.3642121,-0.194989 0.3158748,-0.454398 0,0 -0.097977,0.255796 -0.2030825,0.332396 -0.1101262,0.08026 -0.4337989,0.225096 -0.6004199,0.218178 -0.080279,0.0081 -0.2624863,-0.03082 -0.3485354,-0.04951 -0.034599,-0.0103 -0.083616,-0.01636 -0.1278409,-0.02416 -0.1432632,-0.07496 -0.025908,-0.274282 0.1027288,-0.2901 0.090469,0.01568 0.408899,0.06614 0.4787974,-0.01239 0.04554,-0.02447 0.080317,-0.09053 0.068976,-0.16743 C 5.357397,8.764214 5.335099,8.614193 5.347639,8.555185 c 0,0 -0.035192,0.02597 -0.041015,0.117872 C 5.299894,8.779339 5.354474,8.955891 5.28094,9.012337 5.238949,9.044567 5.193589,9.015037 5.1484949,8.936147 5.1158339,8.888567 4.9911899,8.632256 5.028249,8.38263 5.041463,8.132002 5.069524,7.875264 5.1634951,7.684323 5.2788485,7.449934 5.4150139,7.258224 5.5773047,7.247349 Z m -0.076144,0.22435 c -0.047844,-0.0048 -0.1380349,0.04264 -0.1376677,0.09243 0.00899,0.0037 0.019733,-0.0035 0.031426,-0.0058 0.054219,-0.02507 0.031957,-0.04366 0.1098019,-0.06613 0.00492,-0.0024 0.02972,-0.0097 0.052123,-0.01016 -0.00164,-0.01218 -0.046608,-0.0079 -0.055684,-0.01035 z m 0.1078556,0.08692 c -0.025483,-6.55e-4 -0.042049,0.01145 -0.055922,0.02625 -0.00393,0.0042 0.016351,0.03526 0.00878,0.04571 -0.00924,0.01649 -0.148835,0.01513 -0.1770686,0.03523 0.2808456,0.0081 0.015619,0.0704 0.011108,0.0761 0.028743,-0.0032 0.094636,-0.0026 0.1249923,-0.002 -0.1028285,0.04371 -0.1029635,0.04956 -0.1716569,0.0958 0.061146,-0.0026 0.1156996,-0.04287 0.1427,-0.02957 8.18e-4,0.0148 0.00792,0.04184 0.00688,0.06636 -0.00131,0.03141 -0.035724,0.05134 -0.022645,0.06214 0.064893,0.05913 0.1404711,0.04723 0.1231413,0.02407 -0.0036,-0.03684 0.057937,-0.09934 0.084309,-0.09665 0.029495,0.01296 0.019631,0.0011 0.068122,0.08507 -5.317e-4,-0.04084 -0.04638,-0.08611 -0.082126,-0.131354 0.085227,0.04066 0.1219067,0.06333 0.1219067,0.06333 -0.012093,-0.04461 -0.06959,-0.08283 -0.1106563,-0.134676 0.012392,-0.0032 0.089165,0.03927 0.130689,0.06148 -0.016416,-0.062 -0.0426,-0.05355 -0.083882,-0.106146 0.00555,-0.01878 0.00903,-0.0485 0.032804,-0.05478 0.026011,-0.05355 -0.1174935,-0.07972 -0.1399936,-0.08521 -0.00401,-6.55e-4 -0.00784,-9.82e-4 -0.011488,-0.0011 z m 0.2569156,0.01419 c -0.015668,0.0018 -6.544e-4,0.02571 0.017467,0.05735 0.072448,0.145493 0.080004,0.167566 0.1026816,0.06333 -0.015431,-0.0659 -0.019925,-0.08042 -0.077142,-0.10795 -0.022404,-0.0097 -0.035888,-0.01353 -0.043009,-0.01272 z m 1.3271596,1.330674 c 0.063536,0.0039 0.161371,0.05513 0.2252525,0.121195 0.06698,0.06778 0.2328616,0.122154 0.3159697,0.137619 0.067423,0.01255 0.084539,0.100446 -0.049797,0.06893 0.037229,0.04585 0.104134,0.05889 0.1228567,0.08127 0.01433,0.02573 0.026485,0.06651 -0.017946,0.09907 -0.036108,-0.0029 -0.073938,0.0023 -0.1512918,-0.0282 -0.087739,-0.03634 -0.1635364,-0.06167 -0.2704457,-0.07406 0,0 0.020858,-0.04448 0.033847,-0.108331 C 7.339547,9.261162 7.087166,9.390706 6.896632,9.451707 6.7715689,9.488167 6.630876,9.483517 6.5221297,9.475537 6.5635667,9.437697 6.6943743,9.383447 6.764804,9.342949 6.9558881,9.225013 7.052436,9.053012 7.1930912,8.903458 Z M 6.2941892,3.1e-5 A 6.3499999,6.3499999 0 0 0 0,6.350031 a 6.3499999,6.3499999 0 0 0 6.3499999,6.35 6.3499999,6.3499999 0 0 0 6.3500001,-6.35 6.3499999,6.3499999 0 0 0 -6.3500001,-6.35 6.3499999,6.3499999 0 0 0 -0.055811,0 z m 0.055811,0.796334 A 5.5534916,5.5534916 0 0 1 11.903666,6.350031 5.5534916,5.5534916 0 0 1 6.3500002,11.903697 5.5534916,5.5534916 0 0 1 0.7963341,6.350031 5.5534916,5.5534916 0 0 1 6.3500002,0.796365 Z" />
</svg>
