<?xml version="1.0" encoding="UTF-8" standalone="no"?>
<svg
   xmlns:dc="http://purl.org/dc/elements/1.1/"
   xmlns:cc="http://creativecommons.org/ns#"
   xmlns:rdf="http://www.w3.org/1999/02/22-rdf-syntax-ns#"
   xmlns:svg="http://www.w3.org/2000/svg"
   xmlns="http://www.w3.org/2000/svg"
   xmlns:sodipodi="http://sodipodi.sourceforge.net/DTD/sodipodi-0.dtd"
   xmlns:inkscape="http://www.inkscape.org/namespaces/inkscape"
   width="48"
   height="48"
   version="1"
   id="svg11"
   sodipodi:docname="mps.svg"
   inkscape:version="0.92.4 (5da689c313, 2019-01-14)">
  <metadata
     id="metadata15">
    <rdf:RDF>
      <cc:Work
         rdf:about="">
        <dc:format>image/svg+xml</dc:format>
        <dc:type
           rdf:resource="http://purl.org/dc/dcmitype/StillImage" />
        <dc:title></dc:title>
      </cc:Work>
    </rdf:RDF>
  </metadata>
  <sodipodi:namedview
     pagecolor="#ffffff"
     bordercolor="#666666"
     borderopacity="1"
     objecttolerance="10"
     gridtolerance="10"
     guidetolerance="10"
     inkscape:pageopacity="0"
     inkscape:pageshadow="2"
     inkscape:window-width="1087"
     inkscape:window-height="480"
     id="namedview13"
     showgrid="false"
     inkscape:zoom="4.9166667"
     inkscape:cx="2.1355932"
     inkscape:cy="24"
     inkscape:window-x="0"
     inkscape:window-y="25"
     inkscape:window-maximized="0"
     inkscape:current-layer="svg11" />
  <defs
     id="defs7">
    <linearGradient
       id="a">
      <stop
         offset="0"
         stop-color="#040000"
         id="stop2" />
      <stop
         offset="1"
         stop-opacity="0"
         id="stop4" />
    </linearGradient>
  </defs>
  <path
     d="M 24,0.23 A 23.77,23.77 0 0 0 0.23,24.01 23.77,23.77 0 0 0 24,47.77 23.77,23.77 0 0 0 47.77,24 23.77,23.77 0 0 0 24,0.23 Z M 23.93,3.77 A 20.44,20.44 0 0 1 44.37,24.21 20.44,20.44 0 0 1 23.93,44.64 20.44,20.44 0 0 1 3.5,24.21 20.44,20.44 0 0 1 23.93,3.77 Z m 0,3 A 17.44,17.44 0 0 0 6.5,24.22 17.44,17.44 0 0 0 23.93,41.66 17.44,17.44 0 0 0 41.37,24.2 17.44,17.44 0 0 0 23.93,6.77 Z m 7.69,10.36 h 0.25 c 0.52,0 1.02,0.18 1.5,0.52 v 0.44 H 33.32 A 2.35,2.35 0 0 0 31.8,17.51 h -0.06 c -1,0 -1.74,0.5 -2.23,1.5 a 2.4,2.4 0 0 0 -0.16,0.7 h 5.14 l 0.04,0.05 v 0.16 c 0,1.07 -0.51,1.9 -1.54,2.48 -0.39,0.2 -0.8,0.3 -1.23,0.3 h -0.04 c -0.57,0 -1.1,-0.18 -1.59,-0.53 v -0.44 h 0.05 c 0.46,0.4 1,0.59 1.58,0.59 1,0 1.75,-0.52 2.25,-1.57 0.08,-0.27 0.12,-0.49 0.12,-0.64 h -5.12 l -0.04,-0.04 v -0.31 c 0,-0.8 0.4,-1.5 1.19,-2.15 0.51,-0.32 1,-0.48 1.46,-0.48 z m -17.7,0.01 h 0.3 c 0.75,0 1.47,0.3 2.15,0.91 0.68,-0.6 1.4,-0.9 2.16,-0.9 h 0.3 c 0.98,0 1.84,0.47 2.57,1.43 0.38,0.57 0.57,1.14 0.57,1.7 v 0.3 c 0,0.77 -0.3,1.47 -0.89,2.11 l -0.3,-0.27 v -0.03 c 0.5,-0.6 0.75,-1.22 0.75,-1.88 v -0.07 c 0,-1.17 -0.58,-2.05 -1.74,-2.63 A 2.7,2.7 0 0 0 18.67,17.59 H 18.6 c -0.72,0 -1.36,0.27 -1.93,0.81 0.48,0.6 0.71,1.27 0.71,2.01 v 0.05 c 0,0.86 -0.3,1.6 -0.89,2.23 l -0.32,-0.3 c 0.51,-0.57 0.77,-1.23 0.77,-1.98 0,-1.07 -0.54,-1.92 -1.61,-2.55 a 3.07,3.07 0 0 0 -1.2,-0.27 h -0.07 c -1.16,0 -2.04,0.57 -2.62,1.73 -0.15,0.33 -0.23,0.7 -0.23,1.12 v 0.07 c 0,0.66 0.25,1.28 0.75,1.88 v 0.03 l -0.3,0.27 c -0.6,-0.64 -0.9,-1.34 -0.9,-2.1 v -0.3 c 0,-0.99 0.49,-1.85 1.45,-2.58 a 3.08,3.08 0 0 1 1.7,-0.57 z m 11.5,0 h 0.25 c 0.83,0 1.55,0.4 2.16,1.18 0.34,0.5 0.5,1.01 0.5,1.57 v 0.04 c 0,1.06 -0.5,1.88 -1.54,2.47 -0.38,0.2 -0.8,0.3 -1.22,0.3 h -0.04 c -0.95,0 -1.74,-0.46 -2.37,-1.36 v 1.3 l -0.04,0.05 h -0.3 l -0.04,-0.04 v -2.87 c 0,-0.83 0.4,-1.55 1.21,-2.16 0.48,-0.32 0.96,-0.48 1.43,-0.48 z m 0.13,0.38 c -0.98,0 -1.72,0.48 -2.2,1.45 -0.13,0.28 -0.2,0.59 -0.2,0.94 v 0.06 c 0,0.91 0.48,1.63 1.42,2.14 0.33,0.14 0.67,0.2 1,0.2 0.97,0 1.71,-0.5 2.22,-1.49 0.11,-0.34 0.17,-0.65 0.17,-0.93 0,-0.9 -0.45,-1.62 -1.35,-2.15 -0.36,-0.15 -0.7,-0.22 -1,-0.22 z M 10.38,24.5 h 19.75 c 0.15,0 0.28,0.13 0.28,0.29 0,0.15 -0.13,0.28 -0.28,0.28 H 10.38 a 0.28,0.28 0 0 1 -0.29,-0.28 c 0,-0.16 0.13,-0.29 0.29,-0.29 z"
     id="path9"
     inkscape:connector-curvature="0"
     style="fill:#a02c2c" />
</svg>
