<svg xmlns="http://www.w3.org/2000/svg" width="48" height="48" viewBox="0 0 12.7 12.7"><path d="M6.35.06a6.29 6.29 0 0 0-6.29 6.3 6.29 6.29 0 0 0 6.29 6.28 6.29 6.29 0 0 0 6.29-6.29A6.29 6.29 0 0 0 6.35.06zM6.33 1a5.4 5.4 0 0 1 5.4 5.4 5.4 5.4 0 0 1-5.4 5.41 5.4 5.4 0 0 1-5.4-5.4A5.4 5.4 0 0 1 6.33 1zm2.33 1.27l-2.24 4.1.18.27h1.64v.72h-.07a.24.24 0 0 0-.25.25v2.47c0 .14.11.25.25.25h.87c.13 0 .24-.11.24-.25V7.61a.24.24 0 0 0-.24-.25h-.1v-.71h1.6l.21-.3zm-4.38.47c-.66.03-1.5.57-2.3 1.67 0 0 2.37-1.2 2.37.73v1.87h-.24s-.23 0-.23.24v2.84c0 .23.23.23.23.23h1.42s.24 0 .24-.23V7.25c0-.24-.24-.24-.24-.24H5.3V5.03c0-.22.13-.8.7-.8l.48.42h.7v-1.9h-.7L6 3.09s-1.06-.37-1.72-.34z" fill="#ff7f2a"/></svg>