<svg xmlns="http://www.w3.org/2000/svg" width="48" height="48" viewBox="0 0 12.7 12.7"><path d="M6.35.06a6.29 6.29 0 0 0-6.29 6.3 6.29 6.29 0 0 0 6.3 6.28 6.29 6.29 0 0 0 6.28-6.29A6.29 6.29 0 0 0 6.35.06zM6.34 1a5.4 5.4 0 0 1 5.4 5.4 5.4 5.4 0 0 1-5.4 5.41 5.4 5.4 0 0 1-5.41-5.4A5.4 5.4 0 0 1 6.33.99zm.04.84c-.92 0-1.67.66-1.67 1.48 0 .3.04.67.23 1.49.08.23.6.71.9 1.02a.66.66 0 0 1-.08.33C4.81 6.5 3.09 7.11 3 7.5l-.25 2.15c1.67.9 5.6.86 7.22 0-.06-.44-.1-1.7-.16-2.15-.44-.51-1.57-.81-2.77-1.34a.53.53 0 0 1-.1-.24c.24-.29.8-.86.89-1.11.2-.86.21-1.17.22-1.49 0-.82-.75-1.48-1.67-1.48z" fill="#ff7f2a"/></svg>