<svg xmlns="http://www.w3.org/2000/svg" width="48" height="48" viewBox="0 0 12.7 12.7"><path fill="#ff7f2a" d="M6.34.07a6.29 6.29 0 0 0-6.29 6.3 6.29 6.29 0 0 0 6.3 6.28 6.29 6.29 0 0 0 6.28-6.29A6.29 6.29 0 0 0 6.34.07zm-.01.94a5.4 5.4 0 0 1 5.4 5.4 5.4 5.4 0 0 1-5.4 5.41 5.4 5.4 0 0 1-5.41-5.4A5.4 5.4 0 0 1 6.32 1z"/><path fill="red" d="M7.61 2.43H5.17c.33 0 .63.29.92.72.25.44.5.9.7 1.39l-.85.49 2.48.24L9.46 3l-.86.5a2.1 2.1 0 0 0-.99-1.08zm-2.44.17h-.13a.5.5 0 0 0-.27.15 6.18 6.18 0 0 0-1.2 1.68l1.6.92 1.1-1.54a14.17 14.17 0 0 0-.32-.58c-.14-.2-.42-.58-.7-.63h-.08zm4.32 2.65l-1.6.95.09.17v-.01.03l.64 1.36h.77c.27-.02.76-.08.92-.34l.01-.02.07-.11a.5.5 0 0 0-.02-.15 6.24 6.24 0 0 0-.88-1.88zm-5.34.27l-2.45.45.9.42c-.25.46-.4.93-.31 1.42L3.7 9.8c-.2-.26-.13-.67.06-1.16.21-.46.45-.92.73-1.38l.89.42-1.23-2.16zm3.68 1.35L6.4 8.9l1.46 2.01v-.99c.52.03 1.01-.04 1.41-.33l1.19-2.13c-.15.28-.55.4-1.07.44-.51.01-1.03 0-1.56-.06l-.01-.98zm-3.6 1.18c-.12.22-.22.44-.32.66-.1.25-.26.72-.1.97l.02.02.08.11a.47.47 0 0 0 .21.08c.79.15 1.45.11 2.07.03l-.17-1.85-1.8-.02z" opacity=".75"/></svg>