<?xml version="1.0" encoding="UTF-8" standalone="no"?>
<!-- Created with Inkscape (http://www.inkscape.org/) -->

<svg
   xmlns:dc="http://purl.org/dc/elements/1.1/"
   xmlns:cc="http://creativecommons.org/ns#"
   xmlns:rdf="http://www.w3.org/1999/02/22-rdf-syntax-ns#"
   xmlns:svg="http://www.w3.org/2000/svg"
   xmlns="http://www.w3.org/2000/svg"
   xmlns:sodipodi="http://sodipodi.sourceforge.net/DTD/sodipodi-0.dtd"
   xmlns:inkscape="http://www.inkscape.org/namespaces/inkscape"
   width="48"
   height="48"
   viewBox="0 0 12.7 12.7"
   version="1.1"
   id="svg829"
   inkscape:version="0.92.3 (2405546, 2018-03-11)"
   sodipodi:docname="audio-speakers.svg">
  <defs
     id="defs823" />
  <sodipodi:namedview
     id="base"
     pagecolor="#ffffff"
     bordercolor="#666666"
     borderopacity="1.0"
     inkscape:pageopacity="0.0"
     inkscape:pageshadow="2"
     inkscape:zoom="5.125"
     inkscape:cx="-5.2113613"
     inkscape:cy="22.152545"
     inkscape:document-units="mm"
     inkscape:current-layer="layer1"
     showgrid="false"
     showguides="false"
     inkscape:guide-bbox="true"
     inkscape:window-width="1366"
     inkscape:window-height="719"
     inkscape:window-x="0"
     inkscape:window-y="25"
     inkscape:window-maximized="1"
     scale-x="1.9"
     units="px" />
  <metadata
     id="metadata826">
    <rdf:RDF>
      <cc:Work
         rdf:about="">
        <dc:format>image/svg+xml</dc:format>
        <dc:type
           rdf:resource="http://purl.org/dc/dcmitype/StillImage" />
        <dc:title></dc:title>
      </cc:Work>
    </rdf:RDF>
  </metadata>
  <g
     inkscape:label="Capa 1"
     inkscape:groupmode="layer"
     id="layer1"
     transform="translate(0,-284.3)">
    <path
       style="fill:#e6e6e6;fill-opacity:1;stroke-width:0.52516764"
       d="M 23.978516 0.27539062 A 23.770509 23.770509 0 0 0 0.20703125 24.046875 A 23.770509 23.770509 0 0 0 23.978516 47.816406 A 23.770509 23.770509 0 0 0 47.748047 24.046875 A 23.770509 23.770509 0 0 0 23.978516 0.27539062 z M 23.910156 3.8144531 A 20.436071 20.436071 0 0 1 44.345703 24.25 A 20.436071 20.436071 0 0 1 23.910156 44.685547 A 20.436071 20.436071 0 0 1 3.4726562 24.25 A 20.436071 20.436071 0 0 1 23.910156 3.8144531 z M 23.955078 7.1210938 C 17.215253 7.1210938 11.787109 8.5210318 11.787109 10.259766 L 11.787109 37.611328 C 11.787109 39.350024 17.215253 40.748047 23.955078 40.748047 C 30.694902 40.748047 36.121094 39.350024 36.121094 37.611328 L 36.121094 10.259766 C 36.121094 8.5210318 30.694902 7.1210938 23.955078 7.1210938 z M 31.365234 11.507812 A 1.9820599 2.050407 0 0 1 33.345703 13.556641 A 1.9820599 2.050407 0 0 1 31.365234 15.607422 A 1.9820599 2.050407 0 0 1 29.380859 13.556641 A 1.9820599 2.050407 0 0 1 31.365234 11.507812 z M 16.601562 11.523438 A 1.9820598 2.050407 0 0 1 18.582031 13.572266 A 1.9820598 2.050407 0 0 1 16.601562 15.623047 A 1.9820598 2.050407 0 0 1 14.621094 13.572266 A 1.9820598 2.050407 0 0 1 16.601562 11.523438 z M 23.976562 19.472656 A 7.8800791 7.8800791 0 0 1 31.857422 27.351562 A 7.8800791 7.8800791 0 0 1 23.976562 35.232422 A 7.8800791 7.8800791 0 0 1 16.097656 27.351562 A 7.8800791 7.8800791 0 0 1 23.976562 19.472656 z M 23.955078 20.644531 A 6.7746909 6.7746909 0 0 0 17.179688 27.419922 A 6.7746909 6.7746909 0 0 0 23.955078 34.195312 A 6.7746909 6.7746909 0 0 0 30.730469 27.419922 A 6.7746909 6.7746909 0 0 0 23.955078 20.644531 z M 24.003906 22.775391 A 4.6263609 4.6878697 0 0 1 28.630859 27.462891 A 4.6263609 4.6878697 0 0 1 24.003906 32.154297 A 4.6263609 4.6878697 0 0 1 19.378906 27.462891 A 4.6263609 4.6878697 0 0 1 24.003906 22.775391 z "
       transform="matrix(0.26458333,0,0,0.26458333,0,284.3)"
       id="path1374" />
  </g>
</svg>
