<?xml version="1.0" encoding="UTF-8" standalone="no"?>
<!-- Created with Inkscape (http://www.inkscape.org/) -->

<svg
   xmlns:dc="http://purl.org/dc/elements/1.1/"
   xmlns:cc="http://creativecommons.org/ns#"
   xmlns:rdf="http://www.w3.org/1999/02/22-rdf-syntax-ns#"
   xmlns:svg="http://www.w3.org/2000/svg"
   xmlns="http://www.w3.org/2000/svg"
   xmlns:sodipodi="http://sodipodi.sourceforge.net/DTD/sodipodi-0.dtd"
   xmlns:inkscape="http://www.inkscape.org/namespaces/inkscape"
   width="48"
   height="48"
   viewBox="0 0 12.7 12.7"
   version="1.1"
   id="svg829"
   inkscape:version="0.92.3 (2405546, 2018-03-11)"
   sodipodi:docname="audio-microphone.svg">
  <defs
     id="defs823">
    <clipPath
       clipPathUnits="userSpaceOnUse"
       id="clipPath6810-7-87">
      <rect
         height="11"
         id="rect6812-2-4"
         style="color:#bebebe;display:inline;overflow:visible;visibility:visible;fill:none;stroke:#ffffff;stroke-width:2;stroke-linecap:round;stroke-linejoin:round;stroke-miterlimit:4;stroke-dasharray:none;stroke-dashoffset:0;stroke-opacity:1;marker:none"
         width="14"
         x="21"
         y="281" />
    </clipPath>
  </defs>
  <sodipodi:namedview
     id="base"
     pagecolor="#ffffff"
     bordercolor="#666666"
     borderopacity="1.0"
     inkscape:pageopacity="0.0"
     inkscape:pageshadow="2"
     inkscape:zoom="11.145833"
     inkscape:cx="24"
     inkscape:cy="24"
     inkscape:document-units="mm"
     inkscape:current-layer="layer1"
     showgrid="false"
     showguides="true"
     inkscape:guide-bbox="true"
     inkscape:window-width="1366"
     inkscape:window-height="719"
     inkscape:window-x="0"
     inkscape:window-y="25"
     inkscape:window-maximized="1"
     scale-x="1.9"
     units="px" />
  <metadata
     id="metadata826">
    <rdf:RDF>
      <cc:Work
         rdf:about="">
        <dc:format>image/svg+xml</dc:format>
        <dc:type
           rdf:resource="http://purl.org/dc/dcmitype/StillImage" />
        <dc:title></dc:title>
      </cc:Work>
    </rdf:RDF>
  </metadata>
  <g
     inkscape:label="Capa 1"
     inkscape:groupmode="layer"
     id="layer1"
     transform="translate(0,-284.3)">
    <path
       style="fill:#e6e6e6;fill-opacity:1;stroke-width:0.52516764"
       d="M 23.978516 0.27539062 A 23.770509 23.770509 0 0 0 0.20703125 24.046875 A 23.770509 23.770509 0 0 0 23.978516 47.816406 A 23.770509 23.770509 0 0 0 47.748047 24.046875 A 23.770509 23.770509 0 0 0 23.978516 0.27539062 z M 23.910156 3.8144531 A 20.436071 20.436071 0 0 1 44.345703 24.25 A 20.436071 20.436071 0 0 1 23.910156 44.685547 A 20.436071 20.436071 0 0 1 3.4726562 24.25 A 20.436071 20.436071 0 0 1 23.910156 3.8144531 z M 23.712891 6.7480469 C 20.436427 6.7480469 17.798828 9.3856458 17.798828 12.662109 L 17.798828 18.541016 C 15.995862 19.314784 14.835938 20.432419 14.835938 21.691406 L 14.835938 27.109375 C 14.835938 29.157393 17.844801 30.862043 21.835938 31.248047 L 21.835938 38.332031 L 14.232422 38.332031 C 13.92038 38.332031 13.667969 38.580616 13.667969 38.892578 L 13.667969 39.552734 C 13.667969 39.864545 13.92038 40.113281 14.232422 40.113281 L 33.287109 40.113281 C 33.599155 40.113281 33.851562 39.864772 33.851562 39.552734 L 33.851562 38.892578 C 33.851562 38.580767 33.599153 38.332031 33.287109 38.332031 L 25.777344 38.332031 L 25.777344 31.175781 C 29.502627 30.696165 32.261719 29.065985 32.261719 27.109375 L 32.261719 21.691406 C 32.261719 20.506603 31.248247 19.438851 29.626953 18.671875 L 29.626953 12.662109 C 29.626953 9.3856458 26.989355 6.7480469 23.712891 6.7480469 z M 17.798828 20.296875 L 17.798828 22.236328 C 17.798828 25.512792 20.436427 28.150391 23.712891 28.150391 C 26.989355 28.150391 29.626953 25.512792 29.626953 22.236328 L 29.626953 20.478516 C 30.078893 20.770968 30.339844 21.160531 30.339844 21.691406 L 30.339844 27.109375 C 30.339844 27.109375 27.18898 29.513672 23.412109 29.513672 C 19.635239 29.513672 16.757812 27.109375 16.757812 27.109375 L 16.757812 21.691406 C 16.757812 21.042951 17.142655 20.601 17.798828 20.296875 z "
       transform="matrix(0.26458333,0,0,0.26458333,0,284.3)"
       id="path1374" />
  </g>
</svg>
