<svg xmlns="http://www.w3.org/2000/svg" width="48" height="48" viewBox="0 0 12.7 12.7"><path d="M6.344.073a6.29 6.29 0 0 0-6.29 6.29 6.29 6.29 0 0 0 6.29 6.288 6.29 6.29 0 0 0 6.29-6.289 6.29 6.29 0 0 0-6.29-6.29zm-.018.936a5.407 5.407 0 0 1 5.407 5.407 5.407 5.407 0 0 1-5.407 5.407A5.407 5.407 0 0 1 .92 6.416 5.407 5.407 0 0 1 6.326 1.01zm-.052.776c-.867 0-1.565.698-1.565 1.565v1.556c-.477.204-.784.5-.784.833v1.434c0 .542.796.993 1.852 1.095v1.874H3.766a.148.148 0 0 0-.15.148v.175c0 .082.067.148.15.148h5.041c.083 0 .15-.065.15-.148v-.175a.148.148 0 0 0-.15-.148H6.82V8.249c.986-.127 1.716-.559 1.716-1.076V5.739c0-.313-.268-.596-.697-.799V3.35c0-.867-.698-1.565-1.565-1.565zM4.709 5.37v.513c0 .867.698 1.565 1.565 1.565s1.565-.698 1.565-1.565v-.465c.12.078.188.18.188.321v1.434s-.833.636-1.833.636c-.999 0-1.76-.636-1.76-.636V5.739c0-.171.102-.288.275-.369z" fill="#e6e6e6"/></svg>