<?xml version="1.0" encoding="UTF-8" standalone="no"?>
<!-- Created with Inkscape (http://www.inkscape.org/) -->

<svg
   xmlns:dc="http://purl.org/dc/elements/1.1/"
   xmlns:cc="http://creativecommons.org/ns#"
   xmlns:rdf="http://www.w3.org/1999/02/22-rdf-syntax-ns#"
   xmlns:svg="http://www.w3.org/2000/svg"
   xmlns="http://www.w3.org/2000/svg"
   xmlns:sodipodi="http://sodipodi.sourceforge.net/DTD/sodipodi-0.dtd"
   xmlns:inkscape="http://www.inkscape.org/namespaces/inkscape"
   width="48"
   height="48"
   viewBox="0 0 12.7 12.7"
   version="1.1"
   id="svg829"
   inkscape:version="0.92.3 (2405546, 2018-03-11)"
   sodipodi:docname="audio-card.svg">
  <defs
     id="defs823" />
  <sodipodi:namedview
     id="base"
     pagecolor="#ffffff"
     bordercolor="#666666"
     borderopacity="1.0"
     inkscape:pageopacity="0.0"
     inkscape:pageshadow="2"
     inkscape:zoom="5.5729167"
     inkscape:cx="24"
     inkscape:cy="24"
     inkscape:document-units="mm"
     inkscape:current-layer="layer1"
     showgrid="false"
     showguides="true"
     inkscape:guide-bbox="true"
     inkscape:window-width="1366"
     inkscape:window-height="719"
     inkscape:window-x="0"
     inkscape:window-y="25"
     inkscape:window-maximized="1"
     scale-x="1.9"
     units="px"
     inkscape:snap-global="false" />
  <metadata
     id="metadata826">
    <rdf:RDF>
      <cc:Work
         rdf:about="">
        <dc:format>image/svg+xml</dc:format>
        <dc:type
           rdf:resource="http://purl.org/dc/dcmitype/StillImage" />
        <dc:title></dc:title>
      </cc:Work>
    </rdf:RDF>
  </metadata>
  <g
     inkscape:label="Capa 1"
     inkscape:groupmode="layer"
     id="layer1"
     transform="translate(0,-284.3)">
    <path
       style="fill:#e6e6e6;fill-opacity:1;stroke-width:0.52516764"
       d="M 23.978516 0.27539062 A 23.770509 23.770509 0 0 0 0.20703125 24.046875 A 23.770509 23.770509 0 0 0 23.978516 47.816406 A 23.770509 23.770509 0 0 0 47.748047 24.046875 A 23.770509 23.770509 0 0 0 23.978516 0.27539062 z M 23.910156 3.8144531 A 20.436071 20.436071 0 0 1 44.345703 24.25 A 20.436071 20.436071 0 0 1 23.910156 44.685547 A 20.436071 20.436071 0 0 1 3.4726562 24.25 A 20.436071 20.436071 0 0 1 23.910156 3.8144531 z M 26.722656 8.6699219 C 25.871576 8.6699219 25.185547 9.3540041 25.185547 10.205078 L 25.185547 11.96875 L 25.185547 39.072266 C 25.185547 39.923377 25.871576 40.607422 26.722656 40.607422 L 28.740234 40.607422 C 29.591316 40.607422 30.275391 39.923377 30.275391 39.072266 L 30.275391 34.310547 L 34.328125 34.310547 C 35.113753 34.310547 35.748047 33.71899 35.748047 32.986328 L 35.748047 26.976562 C 35.748047 26.243939 35.113753 25.654297 34.328125 25.654297 L 30.275391 25.654297 L 30.275391 23.876953 L 34.328125 23.876953 C 35.113753 23.876953 35.748047 23.285396 35.748047 22.552734 L 35.748047 16.542969 C 35.748047 15.810383 35.113753 15.220703 34.328125 15.220703 L 30.275391 15.220703 L 30.275391 13.503906 L 33.957031 13.503906 C 34.808112 13.503906 35.492188 12.819824 35.492188 11.96875 L 35.492188 10.205078 C 35.492188 9.3540041 34.808112 8.6699219 33.957031 8.6699219 L 26.722656 8.6699219 z M 13.816406 10.712891 L 13.816406 10.714844 C 13.692442 10.717187 13.568078 10.743898 13.447266 10.794922 L 11.244141 11.773438 C 10.760898 11.987737 10.545299 12.549953 10.759766 13.033203 L 15.839844 24.480469 A 6.3132431 6.3132431 0 0 0 10.087891 30.763672 A 6.3132431 6.3132431 0 0 0 16.400391 37.076172 A 6.3132431 6.3132431 0 0 0 22.714844 30.763672 A 6.3132431 6.3132431 0 0 0 22.40625 28.84375 C 22.406682 28.712978 22.384757 28.578995 22.328125 28.451172 L 15.767578 13.673828 L 21.453125 16.181641 C 22.252068 16.533515 23.027873 16.338686 23.189453 15.746094 C 23.351035 15.153842 22.836052 14.393041 22.037109 14.041016 L 14.921875 10.908203 C 14.61593 10.773274 14.328008 10.741183 14.0625 10.757812 C 13.982332 10.738915 13.900225 10.712891 13.816406 10.712891 z M 30.275391 17.412109 L 31.816406 17.412109 C 32.237311 17.412109 32.576172 17.730241 32.576172 18.123047 L 32.576172 21.341797 C 32.576172 21.734187 32.237311 22.050781 31.816406 22.050781 L 30.275391 22.050781 L 30.275391 17.412109 z M 30.275391 27.845703 L 31.816406 27.845703 C 32.237311 27.845703 32.576172 28.164174 32.576172 28.556641 L 32.576172 31.775391 C 32.576172 32.167781 32.237311 32.484375 31.816406 32.484375 L 30.275391 32.484375 L 30.275391 27.845703 z "
       transform="matrix(0.26458333,0,0,0.26458333,0,284.3)"
       id="path1374" />
  </g>
</svg>
