<?xml version="1.0" encoding="UTF-8" standalone="no"?>
<!-- Created with Inkscape (http://www.inkscape.org/) -->

<svg
   xmlns:dc="http://purl.org/dc/elements/1.1/"
   xmlns:cc="http://creativecommons.org/ns#"
   xmlns:rdf="http://www.w3.org/1999/02/22-rdf-syntax-ns#"
   xmlns:svg="http://www.w3.org/2000/svg"
   xmlns="http://www.w3.org/2000/svg"
   xmlns:sodipodi="http://sodipodi.sourceforge.net/DTD/sodipodi-0.dtd"
   xmlns:inkscape="http://www.inkscape.org/namespaces/inkscape"
   width="48"
   height="48"
   viewBox="0 0 12.7 12.7"
   version="1.1"
   id="svg829"
   inkscape:version="0.92.3 (2405546, 2018-03-11)"
   sodipodi:docname="audio-speakers.svg">
  <defs
     id="defs823" />
  <sodipodi:namedview
     id="base"
     pagecolor="#ffffff"
     bordercolor="#666666"
     borderopacity="1.0"
     inkscape:pageopacity="0.0"
     inkscape:pageshadow="2"
     inkscape:zoom="10.25"
     inkscape:cx="15.422785"
     inkscape:cy="22.152545"
     inkscape:document-units="mm"
     inkscape:current-layer="layer1"
     showgrid="false"
     showguides="false"
     inkscape:guide-bbox="true"
     inkscape:window-width="1366"
     inkscape:window-height="690"
     inkscape:window-x="0"
     inkscape:window-y="28"
     inkscape:window-maximized="1"
     scale-x="1.9"
     units="px" />
  <metadata
     id="metadata826">
    <rdf:RDF>
      <cc:Work
         rdf:about="">
        <dc:format>image/svg+xml</dc:format>
        <dc:type
           rdf:resource="http://purl.org/dc/dcmitype/StillImage" />
        <dc:title></dc:title>
      </cc:Work>
    </rdf:RDF>
  </metadata>
  <g
     inkscape:label="Capa 1"
     inkscape:groupmode="layer"
     id="layer1"
     transform="translate(0,-284.3)">
    <path
       style="fill:#1a1a1a;fill-opacity:1;stroke-width:0.1389506"
       d="m 6.3443558,284.37295 a 6.2892804,6.2892804 0 0 0 -6.28941435,6.28942 6.2892804,6.2892804 0 0 0 6.28941435,6.28914 6.2892804,6.2892804 0 0 0 6.2891432,-6.28914 6.2892804,6.2892804 0 0 0 -6.2891432,-6.28942 z m -0.018184,0.9363 a 5.4070438,5.4070438 0 0 1 5.4071322,5.40711 5.4070438,5.4070438 0 0 1 -5.4071322,5.40686 5.4070438,5.4070438 0 0 1 -5.40713234,-5.40686 5.4070438,5.4070438 0 0 1 5.40713234,-5.40711 z"
       id="path1374"
       inkscape:connector-curvature="0" />
    <path
       style="opacity:1;fill:#1a1a1a;fill-opacity:1;stroke:none;stroke-width:0.37071073"
       d="m 6.3379632,286.1841 c -1.7832454,0 -3.2191014,0.37045 -3.2191014,0.83049 v 7.23682 c 0,0.46003 1.435856,0.82975 3.2191014,0.82975 1.783245,0 3.219101,-0.36972 3.219101,-0.82975 v -7.23682 c 0,-0.46004 -1.435856,-0.83049 -3.219101,-0.83049 z m 1.9607119,1.16063 a 0.52442002,0.54250352 0 0 1 0.5242085,0.54232 0.52442002,0.54250352 0 0 1 -0.5242085,0.54231 0.52442002,0.54250352 0 0 1 -0.5249318,-0.54231 0.52442002,0.54250352 0 0 1 0.5249318,-0.54232 z m -3.9062193,0.004 a 0.52441998,0.54250352 0 0 1 0.5242082,0.54229 0.52441998,0.54250352 0 0 1 -0.5242082,0.54232 0.52441998,0.54250352 0 0 1 -0.5242082,-0.54232 0.52441998,0.54250352 0 0 1 0.5242082,-0.54229 z m 1.9512997,2.10335 a 2.0849376,2.0849376 0 0 1 2.0852479,2.08451 2.0849376,2.0849376 0 0 1 -2.0852479,2.08525 2.0849376,2.0849376 0 0 1 -2.0845239,-2.08525 2.0849376,2.0849376 0 0 1 2.0845239,-2.08451 z m -0.00579,0.30988 a 1.7924703,1.7924703 0 0 0 -1.7927341,1.79274 1.7924703,1.7924703 0 0 0 1.7927341,1.79273 1.7924703,1.7924703 0 0 0 1.7927338,-1.79273 1.7924703,1.7924703 0 0 0 -1.7927338,-1.79274 z m 0.01303,0.56403 a 1.224058,1.2403322 0 0 1 1.2243588,1.2403 1.224058,1.2403322 0 0 1 -1.2243588,1.241 1.224058,1.2403322 0 0 1 -1.2236351,-1.241 1.224058,1.2403322 0 0 1 1.2236351,-1.2403 z"
       id="rect816"
       inkscape:connector-curvature="0" />
  </g>
</svg>
