<?xml version="1.0" encoding="UTF-8" standalone="no"?>
<!-- Created with Inkscape (http://www.inkscape.org/) -->

<svg
   xmlns:dc="http://purl.org/dc/elements/1.1/"
   xmlns:cc="http://creativecommons.org/ns#"
   xmlns:rdf="http://www.w3.org/1999/02/22-rdf-syntax-ns#"
   xmlns:svg="http://www.w3.org/2000/svg"
   xmlns="http://www.w3.org/2000/svg"
   xmlns:sodipodi="http://sodipodi.sourceforge.net/DTD/sodipodi-0.dtd"
   xmlns:inkscape="http://www.inkscape.org/namespaces/inkscape"
   width="48"
   height="48"
   viewBox="0 0 12.7 12.7"
   version="1.1"
   id="svg829"
   inkscape:version="0.92.3 (2405546, 2018-03-11)"
   sodipodi:docname="audio-headset.svg">
  <defs
     id="defs823" />
  <sodipodi:namedview
     id="base"
     pagecolor="#ffffff"
     bordercolor="#666666"
     borderopacity="1.0"
     inkscape:pageopacity="0.0"
     inkscape:pageshadow="2"
     inkscape:zoom="11.145833"
     inkscape:cx="24"
     inkscape:cy="24"
     inkscape:document-units="mm"
     inkscape:current-layer="layer1"
     showgrid="false"
     showguides="true"
     inkscape:guide-bbox="true"
     inkscape:window-width="1366"
     inkscape:window-height="719"
     inkscape:window-x="0"
     inkscape:window-y="25"
     inkscape:window-maximized="1"
     scale-x="1.9"
     units="px"
     inkscape:snap-global="false" />
  <metadata
     id="metadata826">
    <rdf:RDF>
      <cc:Work
         rdf:about="">
        <dc:format>image/svg+xml</dc:format>
        <dc:type
           rdf:resource="http://purl.org/dc/dcmitype/StillImage" />
        <dc:title></dc:title>
      </cc:Work>
    </rdf:RDF>
  </metadata>
  <g
     inkscape:label="Capa 1"
     inkscape:groupmode="layer"
     id="layer1"
     transform="translate(0,-284.3)">
    <path
       style="fill:#e6e6e6;fill-opacity:1;stroke-width:0.52516764"
       d="M 23.978516 0.27539062 A 23.770509 23.770509 0 0 0 0.20703125 24.046875 A 23.770509 23.770509 0 0 0 23.978516 47.816406 A 23.770509 23.770509 0 0 0 47.748047 24.046875 A 23.770509 23.770509 0 0 0 23.978516 0.27539062 z M 23.910156 3.8144531 A 20.436071 20.436071 0 0 1 44.345703 24.25 A 20.436071 20.436071 0 0 1 23.910156 44.685547 A 20.436071 20.436071 0 0 1 3.4726562 24.25 A 20.436071 20.436071 0 0 1 23.910156 3.8144531 z M 22.933594 6.3515625 C 15.563633 6.3515625 9.5043434 13.056069 9.6269531 19.099609 C 9.6877398 22.062496 10.101552 24.412524 10.578125 26.261719 C 10.61588 26.500627 10.665606 26.741141 10.742188 26.982422 L 11.697266 29.980469 C 12.392797 32.169609 14.45554 33.514077 16.328125 32.990234 C 18.19848 32.468584 19.14475 30.285158 18.449219 28.09375 L 17.498047 25.099609 C 16.821004 22.968661 14.847282 21.652425 13.015625 22.066406 C 12.889968 20.465465 12.919922 19.378906 12.919922 19.378906 C 12.919922 14.088853 17.395539 9.7636719 22.9375 9.7636719 C 28.477232 9.7636719 32.969006 14.044709 32.951172 19.517578 C 32.937508 20.470597 32.904571 21.267094 32.833984 22.021484 C 31.083213 21.791989 29.26853 23.072421 28.623047 25.099609 L 27.673828 28.09375 C 26.978296 30.285158 27.922614 32.468584 29.792969 32.990234 C 31.665554 33.511847 33.73025 32.169886 34.425781 29.978516 L 34.431641 29.957031 L 36.375 30.673828 L 36.333984 34.566406 C 36.322835 35.752384 36.009538 36.479379 35.617188 36.914062 C 35.222607 37.348784 34.716168 37.560547 34.011719 37.560547 L 27.486328 37.560547 C 27.486328 36.327778 26.501488 35.332031 25.275391 35.332031 L 25.240234 35.332031 C 24.016366 35.332031 23.027344 36.327778 23.027344 37.560547 A 2.2158927 2.2158927 0 0 0 25.240234 39.791016 A 1.1146394 1.1146394 0 0 0 25.263672 39.791016 L 25.275391 39.791016 L 34.007812 39.791016 C 35.229452 39.791016 36.429373 39.337224 37.267578 38.412109 C 38.105783 37.486957 38.547171 36.166775 38.560547 34.583984 L 38.615234 29.123047 L 35.113281 27.833984 C 35.177793 27.6407 35.242008 27.410663 35.306641 27.197266 L 35.375 26.984375 C 35.379578 26.969998 35.380329 26.955782 35.384766 26.941406 C 35.904755 25.146506 36.380859 22.690571 36.380859 19.310547 C 36.37863 13.001684 30.301325 6.3515625 22.933594 6.3515625 z "
       transform="matrix(0.26458333,0,0,0.26458333,0,284.3)"
       id="path1374" />
  </g>
</svg>
