<svg xmlns="http://www.w3.org/2000/svg" width="48" height="48" viewBox="0 0 12.7 12.7"><path d="M6.344.073a6.29 6.29 0 0 0-6.29 6.29 6.29 6.29 0 0 0 6.29 6.288 6.29 6.29 0 0 0 6.29-6.289 6.29 6.29 0 0 0-6.29-6.29zm-.018.936a5.407 5.407 0 0 1 5.407 5.407 5.407 5.407 0 0 1-5.407 5.407A5.407 5.407 0 0 1 .92 6.416 5.407 5.407 0 0 1 6.326 1.01zM3.872 2.194a.953.953 0 0 0-.955.955v1.854c0 .043.007.085.013.126v4.592c0 .462.374.836.836.836h5.022a.833.833 0 0 0 .833-.836l-.005-6.69a.833.833 0 0 0-.832-.837H3.872zm.312 3.764h.837V7.63h-.837V5.958zm1.673 0h.836v.836h-.836v-.836zm1.673 0h.836V7.63H7.53V5.958zM5.857 7.63h.836v1.672h-.836V7.63zm-1.673.836h.837v.836h-.837v-.836zm3.346 0h.836v.836H7.53v-.836z" fill="#e6e6e6"/></svg>