<?xml version="1.0" encoding="UTF-8" standalone="no"?>
<!-- Created with Inkscape (http://www.inkscape.org/) -->

<svg
   xmlns:dc="http://purl.org/dc/elements/1.1/"
   xmlns:cc="http://creativecommons.org/ns#"
   xmlns:rdf="http://www.w3.org/1999/02/22-rdf-syntax-ns#"
   xmlns:svg="http://www.w3.org/2000/svg"
   xmlns="http://www.w3.org/2000/svg"
   xmlns:sodipodi="http://sodipodi.sourceforge.net/DTD/sodipodi-0.dtd"
   xmlns:inkscape="http://www.inkscape.org/namespaces/inkscape"
   width="48"
   height="48"
   viewBox="0 0 12.7 12.7"
   version="1.1"
   id="svg829"
   inkscape:version="0.92.3 (2405546, 2018-03-11)"
   sodipodi:docname="auth-smartcard.svg">
  <defs
     id="defs823" />
  <sodipodi:namedview
     id="base"
     pagecolor="#ffffff"
     bordercolor="#666666"
     borderopacity="1.0"
     inkscape:pageopacity="0.0"
     inkscape:pageshadow="2"
     inkscape:zoom="11.145833"
     inkscape:cx="24"
     inkscape:cy="24"
     inkscape:document-units="mm"
     inkscape:current-layer="layer1"
     showgrid="false"
     showguides="true"
     inkscape:guide-bbox="true"
     inkscape:window-width="1366"
     inkscape:window-height="719"
     inkscape:window-x="0"
     inkscape:window-y="25"
     inkscape:window-maximized="1"
     scale-x="1.9"
     units="px" />
  <metadata
     id="metadata826">
    <rdf:RDF>
      <cc:Work
         rdf:about="">
        <dc:format>image/svg+xml</dc:format>
        <dc:type
           rdf:resource="http://purl.org/dc/dcmitype/StillImage" />
        <dc:title></dc:title>
      </cc:Work>
    </rdf:RDF>
  </metadata>
  <g
     inkscape:label="Capa 1"
     inkscape:groupmode="layer"
     id="layer1"
     transform="translate(0,-284.3)">
    <path
       style="fill:#e6e6e6;fill-opacity:1;stroke-width:0.52516764"
       d="M 23.978516 0.27539062 A 23.770509 23.770509 0 0 0 0.20703125 24.046875 A 23.770509 23.770509 0 0 0 23.978516 47.816406 A 23.770509 23.770509 0 0 0 47.748047 24.046875 A 23.770509 23.770509 0 0 0 23.978516 0.27539062 z M 23.910156 3.8144531 A 20.436071 20.436071 0 0 1 44.345703 24.25 A 20.436071 20.436071 0 0 1 23.910156 44.685547 A 20.436071 20.436071 0 0 1 3.4726562 24.25 A 20.436071 20.436071 0 0 1 23.910156 3.8144531 z M 14.634766 8.2929688 C 12.634961 8.2929688 11.023438 9.9025387 11.023438 11.902344 L 11.023438 18.908203 C 11.023438 19.072399 11.051234 19.228455 11.072266 19.386719 L 11.072266 36.742188 C 11.072266 38.488631 12.487936 39.902344 14.234375 39.902344 L 33.214844 39.902344 C 34.961283 39.902344 36.361328 38.488668 36.361328 36.742188 L 36.345703 11.453125 C 36.345703 9.7066431 34.945658 8.2929688 33.199219 8.2929688 L 20.869141 8.2929688 L 20.556641 8.2929688 L 14.634766 8.2929688 z M 15.814453 22.517578 L 18.976562 22.517578 L 18.976562 28.839844 L 15.814453 28.839844 L 15.814453 22.517578 z M 22.136719 22.517578 L 25.296875 22.517578 L 25.296875 25.677734 L 22.136719 25.677734 L 22.136719 22.517578 z M 28.458984 22.517578 L 31.619141 22.517578 L 31.619141 28.839844 L 28.458984 28.839844 L 28.458984 22.517578 z M 22.136719 28.839844 L 25.296875 28.839844 L 25.296875 35.160156 L 22.136719 35.160156 L 22.136719 28.839844 z M 15.814453 32 L 18.976562 32 L 18.976562 35.160156 L 15.814453 35.160156 L 15.814453 32 z M 28.458984 32 L 31.619141 32 L 31.619141 35.160156 L 28.458984 35.160156 L 28.458984 32 z "
       transform="matrix(0.26458333,0,0,0.26458333,0,284.3)"
       id="path1374" />
  </g>
</svg>
