<?xml version="1.0" encoding="UTF-8" standalone="no"?>
<!-- Created with Inkscape (http://www.inkscape.org/) -->

<svg
   xmlns:dc="http://purl.org/dc/elements/1.1/"
   xmlns:cc="http://creativecommons.org/ns#"
   xmlns:rdf="http://www.w3.org/1999/02/22-rdf-syntax-ns#"
   xmlns:svg="http://www.w3.org/2000/svg"
   xmlns="http://www.w3.org/2000/svg"
   xmlns:sodipodi="http://sodipodi.sourceforge.net/DTD/sodipodi-0.dtd"
   xmlns:inkscape="http://www.inkscape.org/namespaces/inkscape"
   width="48"
   height="48"
   viewBox="0 0 12.7 12.7"
   version="1.1"
   id="svg829"
   inkscape:version="0.92.3 (2405546, 2018-03-11)"
   sodipodi:docname="drive-multidisk.svg">
  <defs
     id="defs823" />
  <sodipodi:namedview
     id="base"
     pagecolor="#ffffff"
     bordercolor="#666666"
     borderopacity="1.0"
     inkscape:pageopacity="0.0"
     inkscape:pageshadow="2"
     inkscape:zoom="11.145833"
     inkscape:cx="24"
     inkscape:cy="24"
     inkscape:document-units="mm"
     inkscape:current-layer="layer1"
     showgrid="false"
     showguides="true"
     inkscape:guide-bbox="true"
     inkscape:window-width="1366"
     inkscape:window-height="719"
     inkscape:window-x="0"
     inkscape:window-y="25"
     inkscape:window-maximized="1"
     scale-x="1.9"
     units="px" />
  <metadata
     id="metadata826">
    <rdf:RDF>
      <cc:Work
         rdf:about="">
        <dc:format>image/svg+xml</dc:format>
        <dc:type
           rdf:resource="http://purl.org/dc/dcmitype/StillImage" />
        <dc:title></dc:title>
      </cc:Work>
    </rdf:RDF>
  </metadata>
  <g
     inkscape:label="Capa 1"
     inkscape:groupmode="layer"
     id="layer1"
     transform="translate(0,-284.3)">
    <path
       style="fill:#e6e6e6;fill-opacity:1;stroke-width:0.52516764"
       d="M 23.978516 0.27539062 A 23.770509 23.770509 0 0 0 0.20703125 24.046875 A 23.770509 23.770509 0 0 0 23.978516 47.816406 A 23.770509 23.770509 0 0 0 47.748047 24.046875 A 23.770509 23.770509 0 0 0 23.978516 0.27539062 z M 23.910156 3.8144531 A 20.436071 20.436071 0 0 1 44.345703 24.25 A 20.436071 20.436071 0 0 1 23.910156 44.685547 A 20.436071 20.436071 0 0 1 3.4726562 24.25 A 20.436071 20.436071 0 0 1 23.910156 3.8144531 z M 14.300781 8.7382812 A 4.2640607 4.2640607 0 0 0 10.072266 12.976562 L 10.072266 27.603516 C 10.072266 29.911635 11.98683 31.839844 14.300781 31.839844 L 27.023438 31.839844 A 4.2640607 4.2640607 0 0 0 31.25 27.601562 L 31.25 12.974609 C 31.25 10.666452 29.335464 8.7382812 27.023438 8.7382812 L 14.300781 8.7382812 z M 20.660156 12.587891 L 20.662109 12.587891 C 24.359304 12.58897 27.398438 15.628674 27.398438 19.326172 C 27.398438 23.024137 24.358242 26.064453 20.660156 26.064453 L 13.912109 26.064453 L 13.923828 19.326172 C 13.8796 15.628674 16.964865 12.58897 20.660156 12.587891 z M 20.660156 16.439453 C 19.043086 16.439453 17.773438 17.709063 17.773438 19.326172 C 17.773438 20.943167 19.043086 22.214844 20.660156 22.214844 C 22.277226 22.214844 23.548828 20.943167 23.548828 19.326172 C 23.548828 17.709063 22.277226 16.439453 20.660156 16.439453 z M 33.173828 16.441406 L 33.173828 35.330078 C 33.173828 35.580283 33.051241 35.689453 32.814453 35.689453 L 20.060547 35.689453 C 19.821839 35.689453 19.699219 35.579842 19.699219 35.328125 L 19.699219 33.765625 L 15.847656 33.765625 L 15.847656 35.330078 C 15.847656 37.638236 17.746597 39.541016 20.060547 39.541016 L 32.814453 39.541016 A 4.2294089 4.2294089 0 0 0 37.023438 35.328125 L 37.023438 20.654297 C 37.023438 18.467387 35.318371 16.63008 33.173828 16.441406 z "
       transform="matrix(0.26458333,0,0,0.26458333,0,284.3)"
       id="path1374" />
  </g>
</svg>
