<?xml version="1.0" encoding="UTF-8" standalone="no"?>
<!-- Created with Inkscape (http://www.inkscape.org/) -->

<svg
   xmlns:dc="http://purl.org/dc/elements/1.1/"
   xmlns:cc="http://creativecommons.org/ns#"
   xmlns:rdf="http://www.w3.org/1999/02/22-rdf-syntax-ns#"
   xmlns:svg="http://www.w3.org/2000/svg"
   xmlns="http://www.w3.org/2000/svg"
   xmlns:sodipodi="http://sodipodi.sourceforge.net/DTD/sodipodi-0.dtd"
   xmlns:inkscape="http://www.inkscape.org/namespaces/inkscape"
   width="48"
   height="48"
   viewBox="0 0 12.7 12.7"
   version="1.1"
   id="svg829"
   inkscape:version="0.92.3 (2405546, 2018-03-11)"
   sodipodi:docname="input-dialpad.svg">
  <defs
     id="defs823" />
  <sodipodi:namedview
     id="base"
     pagecolor="#ffffff"
     bordercolor="#666666"
     borderopacity="1.0"
     inkscape:pageopacity="0.0"
     inkscape:pageshadow="2"
     inkscape:zoom="7.2478445"
     inkscape:cx="19.500919"
     inkscape:cy="13.28436"
     inkscape:document-units="mm"
     inkscape:current-layer="layer1"
     showgrid="false"
     showguides="true"
     inkscape:guide-bbox="true"
     inkscape:window-width="1366"
     inkscape:window-height="690"
     inkscape:window-x="0"
     inkscape:window-y="28"
     inkscape:window-maximized="1"
     scale-x="1.9"
     units="px" />
  <metadata
     id="metadata826">
    <rdf:RDF>
      <cc:Work
         rdf:about="">
        <dc:format>image/svg+xml</dc:format>
        <dc:type
           rdf:resource="http://purl.org/dc/dcmitype/StillImage" />
        <dc:title></dc:title>
      </cc:Work>
    </rdf:RDF>
  </metadata>
  <g
     inkscape:label="Capa 1"
     inkscape:groupmode="layer"
     id="layer1"
     transform="translate(0,-284.3)">
    <path
       style="fill:#1a1a1a;fill-opacity:1;stroke-width:0.52516764"
       d="M 23.978516 0.27539062 A 23.770509 23.770509 0 0 0 0.20703125 24.046875 A 23.770509 23.770509 0 0 0 23.978516 47.816406 A 23.770509 23.770509 0 0 0 47.748047 24.046875 A 23.770509 23.770509 0 0 0 23.978516 0.27539062 z M 23.910156 3.8144531 A 20.436071 20.436071 0 0 1 44.345703 24.25 A 20.436071 20.436071 0 0 1 23.910156 44.685547 A 20.436071 20.436071 0 0 1 3.4726562 24.25 A 20.436071 20.436071 0 0 1 23.910156 3.8144531 z M 14.316406 7.8535156 C 12.578053 7.8535156 11.169922 9.2616441 11.169922 11 C 11.169922 12.738356 12.578053 14.146484 14.316406 14.146484 C 16.05476 14.146484 17.462891 12.738356 17.462891 11 C 17.462891 9.2616441 16.05476 7.8535156 14.316406 7.8535156 z M 23.755859 7.8535156 C 22.017506 7.8535156 20.609375 9.2616441 20.609375 11 C 20.609375 12.738356 22.017506 14.146484 23.755859 14.146484 C 25.494213 14.146484 26.902344 12.738356 26.902344 11 C 26.902344 9.2616441 25.494213 7.8535156 23.755859 7.8535156 z M 33.195312 7.8535156 C 31.456959 7.8535156 30.048828 9.2616441 30.048828 11 C 30.048828 12.738356 31.456959 14.146484 33.195312 14.146484 C 34.933666 14.146484 36.341797 12.738356 36.341797 11 C 36.341797 9.2616441 34.933666 7.8535156 33.195312 7.8535156 z M 14.316406 17.292969 C 12.578053 17.292969 11.169922 18.701097 11.169922 20.439453 C 11.169922 22.177809 12.578053 23.585938 14.316406 23.585938 C 16.05476 23.585938 17.462891 22.177809 17.462891 20.439453 C 17.462891 18.701097 16.05476 17.292969 14.316406 17.292969 z M 23.755859 17.292969 C 22.017506 17.292969 20.609375 18.701097 20.609375 20.439453 C 20.609375 22.177809 22.017506 23.585938 23.755859 23.585938 C 25.494213 23.585938 26.902344 22.177809 26.902344 20.439453 C 26.902344 18.701097 25.494213 17.292969 23.755859 17.292969 z M 33.195312 17.292969 C 31.456959 17.292969 30.048828 18.701097 30.048828 20.439453 C 30.048828 22.177809 31.456959 23.585938 33.195312 23.585938 C 34.933666 23.585938 36.341797 22.177809 36.341797 20.439453 C 36.341797 18.701097 34.933666 17.292969 33.195312 17.292969 z M 14.316406 26.732422 C 12.578053 26.732422 11.169922 28.14055 11.169922 29.878906 C 11.169922 31.617262 12.578053 33.023438 14.316406 33.023438 C 16.05476 33.023438 17.462891 31.617262 17.462891 29.878906 C 17.462891 28.14055 16.05476 26.732422 14.316406 26.732422 z M 23.755859 26.732422 C 22.017506 26.732422 20.609375 28.140513 20.609375 29.878906 C 20.609375 31.617224 22.017506 33.023438 23.755859 33.023438 C 25.494213 33.023438 26.902344 31.617224 26.902344 29.878906 C 26.902344 28.14055 25.494213 26.732422 23.755859 26.732422 z M 33.195312 26.732422 C 31.456959 26.732422 30.048828 28.14055 30.048828 29.878906 C 30.048828 31.617262 31.456959 33.023438 33.195312 33.023438 C 34.933666 33.023438 36.341797 31.617262 36.341797 29.878906 C 36.341797 28.14055 34.933666 26.732422 33.195312 26.732422 z M 23.755859 36.169922 C 22.017506 36.169922 20.609375 37.57805 20.609375 39.316406 C 20.609375 41.054762 22.017506 42.462891 23.755859 42.462891 C 25.494213 42.462891 26.902344 41.054762 26.902344 39.316406 C 26.902344 37.57805 25.494213 36.169922 23.755859 36.169922 z "
       transform="matrix(0.26458333,0,0,0.26458333,0,284.3)"
       id="path1374" />
  </g>
</svg>
