<svg xmlns="http://www.w3.org/2000/svg" width="48" height="48" viewBox="0 0 12.7 12.7"><path d="M6.344.073a6.29 6.29 0 0 0-6.29 6.29 6.29 6.29 0 0 0 6.29 6.288 6.29 6.29 0 0 0 6.29-6.289 6.29 6.29 0 0 0-6.29-6.29zm-.018.936a5.407 5.407 0 0 1 5.407 5.407 5.407 5.407 0 0 1-5.407 5.407A5.407 5.407 0 0 1 .92 6.416 5.407 5.407 0 0 1 6.326 1.01zm-3.29 1.895a.482.482 0 0 0-.484.484v3.234l7.63.017V3.388a.482.482 0 0 0-.483-.484H3.035zm-.484 4.01V9.15c0 .268.216.484.483.484H9.7a.482.482 0 0 0 .483-.484V6.93l-7.63-.016zm1.06.514h2.093c.267 0 .483.216.483.484v.662a.482.482 0 0 1-.483.483H3.612a.482.482 0 0 1-.484-.483v-.662c0-.268.216-.484.484-.484zm3.536 0h1.974c.268 0 .484.216.484.484v.662a.482.482 0 0 1-.484.483H7.148a.482.482 0 0 1-.483-.483v-.662c0-.268.216-.484.483-.484z" fill="#e6e6e6"/></svg>