<?xml version="1.0" encoding="UTF-8" standalone="no"?>
<!-- Created with Inkscape (http://www.inkscape.org/) -->

<svg
   xmlns:dc="http://purl.org/dc/elements/1.1/"
   xmlns:cc="http://creativecommons.org/ns#"
   xmlns:rdf="http://www.w3.org/1999/02/22-rdf-syntax-ns#"
   xmlns:svg="http://www.w3.org/2000/svg"
   xmlns="http://www.w3.org/2000/svg"
   xmlns:sodipodi="http://sodipodi.sourceforge.net/DTD/sodipodi-0.dtd"
   xmlns:inkscape="http://www.inkscape.org/namespaces/inkscape"
   width="48"
   height="48"
   viewBox="0 0 12.7 12.7"
   version="1.1"
   id="svg829"
   inkscape:version="0.92.3 (2405546, 2018-03-11)"
   sodipodi:docname="input-touchpad.svg">
  <defs
     id="defs823" />
  <sodipodi:namedview
     id="base"
     pagecolor="#ffffff"
     bordercolor="#666666"
     borderopacity="1.0"
     inkscape:pageopacity="0.0"
     inkscape:pageshadow="2"
     inkscape:zoom="2.5625"
     inkscape:cx="-112.12539"
     inkscape:cy="24"
     inkscape:document-units="mm"
     inkscape:current-layer="layer1"
     showgrid="false"
     showguides="true"
     inkscape:guide-bbox="true"
     inkscape:window-width="1366"
     inkscape:window-height="719"
     inkscape:window-x="0"
     inkscape:window-y="25"
     inkscape:window-maximized="1"
     scale-x="1.9"
     units="px"
     inkscape:snap-global="false" />
  <metadata
     id="metadata826">
    <rdf:RDF>
      <cc:Work
         rdf:about="">
        <dc:format>image/svg+xml</dc:format>
        <dc:type
           rdf:resource="http://purl.org/dc/dcmitype/StillImage" />
        <dc:title></dc:title>
      </cc:Work>
    </rdf:RDF>
  </metadata>
  <g
     inkscape:label="Capa 1"
     inkscape:groupmode="layer"
     id="layer1"
     transform="translate(0,-284.3)">
    <path
       style="fill:#e6e6e6;fill-opacity:1;stroke-width:0.52516764"
       d="M 23.978516 0.27539062 A 23.770509 23.770509 0 0 0 0.20703125 24.046875 A 23.770509 23.770509 0 0 0 23.978516 47.816406 A 23.770509 23.770509 0 0 0 47.748047 24.046875 A 23.770509 23.770509 0 0 0 23.978516 0.27539062 z M 23.910156 3.8144531 A 20.436071 20.436071 0 0 1 44.345703 24.25 A 20.436071 20.436071 0 0 1 23.910156 44.685547 A 20.436071 20.436071 0 0 1 3.4726562 24.25 A 20.436071 20.436071 0 0 1 23.910156 3.8144531 z M 11.472656 10.976562 C 10.460642 10.976562 9.6464844 11.792681 9.6464844 12.804688 L 9.6464844 25.029297 L 38.482422 25.091797 L 38.482422 12.804688 C 38.482422 11.792681 37.668263 10.976562 36.65625 10.976562 L 11.472656 10.976562 z M 9.6464844 26.132812 L 9.6464844 34.583984 C 9.6464844 35.596028 10.460642 36.410156 11.472656 36.410156 L 36.65625 36.410156 C 37.668263 36.410156 38.482422 35.596028 38.482422 34.583984 L 38.482422 26.195312 L 9.6464844 26.132812 z M 13.650391 28.076172 L 21.560547 28.076172 C 22.572558 28.076172 23.386719 28.890337 23.386719 29.902344 L 23.386719 32.40625 C 23.386719 33.418256 22.572558 34.232422 21.560547 34.232422 L 13.650391 34.232422 C 12.638376 34.232422 11.824219 33.418256 11.824219 32.40625 L 11.824219 29.902344 C 11.824219 28.890337 12.638376 28.076172 13.650391 28.076172 z M 27.017578 28.076172 L 34.478516 28.076172 C 35.490529 28.076172 36.304688 28.890337 36.304688 29.902344 L 36.304688 32.40625 C 36.304688 33.418256 35.490529 34.232422 34.478516 34.232422 L 27.017578 34.232422 C 26.005564 34.232422 25.191406 33.418256 25.191406 32.40625 L 25.191406 29.902344 C 25.191406 28.890337 26.005564 28.076172 27.017578 28.076172 z "
       transform="matrix(0.26458333,0,0,0.26458333,0,284.3)"
       id="path1374" />
  </g>
</svg>
