<?xml version="1.0" encoding="UTF-8" standalone="no"?>
<!-- Created with Inkscape (http://www.inkscape.org/) -->

<svg
   xmlns:dc="http://purl.org/dc/elements/1.1/"
   xmlns:cc="http://creativecommons.org/ns#"
   xmlns:rdf="http://www.w3.org/1999/02/22-rdf-syntax-ns#"
   xmlns:svg="http://www.w3.org/2000/svg"
   xmlns="http://www.w3.org/2000/svg"
   xmlns:sodipodi="http://sodipodi.sourceforge.net/DTD/sodipodi-0.dtd"
   xmlns:inkscape="http://www.inkscape.org/namespaces/inkscape"
   width="48"
   height="48"
   viewBox="0 0 12.7 12.7"
   version="1.1"
   id="svg829"
   inkscape:version="0.92.3 (2405546, 2018-03-11)"
   sodipodi:docname="input-keyboard.svg">
  <defs
     id="defs823" />
  <sodipodi:namedview
     id="base"
     pagecolor="#ffffff"
     bordercolor="#666666"
     borderopacity="1.0"
     inkscape:pageopacity="0.0"
     inkscape:pageshadow="2"
     inkscape:zoom="11.145833"
     inkscape:cx="24"
     inkscape:cy="24"
     inkscape:document-units="mm"
     inkscape:current-layer="layer1"
     showgrid="false"
     showguides="true"
     inkscape:guide-bbox="true"
     inkscape:window-width="1366"
     inkscape:window-height="719"
     inkscape:window-x="0"
     inkscape:window-y="25"
     inkscape:window-maximized="1"
     scale-x="1.9"
     units="px"
     inkscape:snap-global="false" />
  <metadata
     id="metadata826">
    <rdf:RDF>
      <cc:Work
         rdf:about="">
        <dc:format>image/svg+xml</dc:format>
        <dc:type
           rdf:resource="http://purl.org/dc/dcmitype/StillImage" />
        <dc:title></dc:title>
      </cc:Work>
    </rdf:RDF>
  </metadata>
  <g
     inkscape:label="Capa 1"
     inkscape:groupmode="layer"
     id="layer1"
     transform="translate(0,-284.3)">
    <path
       style="fill:#e6e6e6;fill-opacity:1;stroke-width:0.52516764"
       d="M 23.978516 0.27539062 A 23.770509 23.770509 0 0 0 0.20703125 24.046875 A 23.770509 23.770509 0 0 0 23.978516 47.816406 A 23.770509 23.770509 0 0 0 47.748047 24.046875 A 23.770509 23.770509 0 0 0 23.978516 0.27539062 z M 23.910156 3.8144531 A 20.436071 20.436071 0 0 1 44.345703 24.25 A 20.436071 20.436071 0 0 1 23.910156 44.685547 A 20.436071 20.436071 0 0 1 3.4726562 24.25 A 20.436071 20.436071 0 0 1 23.910156 3.8144531 z M 11.462891 13.142578 C 9.7440034 13.142578 8.3671875 14.5331 8.3671875 16.251953 L 8.3515625 31.808594 C 8.3515625 33.527447 9.7440034 34.919922 11.462891 34.919922 L 36.351562 34.919922 C 38.070451 34.919922 39.462891 33.527447 39.462891 31.808594 L 39.462891 16.251953 C 39.462891 14.5331 38.070451 13.142578 36.351562 13.142578 L 11.462891 13.142578 z M 13.017578 17.808594 L 16.128906 17.808594 L 16.128906 20.919922 L 13.017578 20.919922 L 13.017578 17.808594 z M 17.685547 17.808594 L 20.796875 17.808594 L 20.796875 20.919922 L 17.685547 20.919922 L 17.685547 17.808594 z M 22.351562 17.808594 L 25.462891 17.808594 L 25.462891 20.919922 L 22.351562 20.919922 L 22.351562 17.808594 z M 27.017578 17.808594 L 30.128906 17.808594 L 30.128906 20.919922 L 27.017578 20.919922 L 27.017578 17.808594 z M 31.685547 17.808594 L 34.796875 17.808594 L 34.796875 20.919922 L 31.685547 20.919922 L 31.685547 17.808594 z M 13.017578 22.474609 L 16.128906 22.474609 L 16.128906 25.585938 L 13.017578 25.585938 L 13.017578 22.474609 z M 17.685547 22.474609 L 20.796875 22.474609 L 20.796875 25.585938 L 17.685547 25.585938 L 17.685547 22.474609 z M 22.351562 22.474609 L 25.462891 22.474609 L 25.462891 25.585938 L 22.351562 25.585938 L 22.351562 22.474609 z M 27.017578 22.474609 L 30.128906 22.474609 L 30.128906 25.585938 L 27.017578 25.585938 L 27.017578 22.474609 z M 31.685547 22.474609 L 34.796875 22.474609 L 34.796875 25.585938 L 31.685547 25.585938 L 31.685547 22.474609 z M 17.685547 28.697266 L 30.128906 28.697266 L 30.128906 31.808594 L 17.685547 31.808594 L 17.685547 28.697266 z "
       transform="matrix(0.26458333,0,0,0.26458333,0,284.3)"
       id="path1374" />
  </g>
</svg>
