<?xml version="1.0" encoding="UTF-8" standalone="no"?>
<!-- Created with Inkscape (http://www.inkscape.org/) -->

<svg
   xmlns:dc="http://purl.org/dc/elements/1.1/"
   xmlns:cc="http://creativecommons.org/ns#"
   xmlns:rdf="http://www.w3.org/1999/02/22-rdf-syntax-ns#"
   xmlns:svg="http://www.w3.org/2000/svg"
   xmlns="http://www.w3.org/2000/svg"
   xmlns:sodipodi="http://sodipodi.sourceforge.net/DTD/sodipodi-0.dtd"
   xmlns:inkscape="http://www.inkscape.org/namespaces/inkscape"
   width="48"
   height="48"
   viewBox="0 0 12.7 12.7"
   version="1.1"
   id="svg829"
   inkscape:version="0.92.3 (2405546, 2018-03-11)"
   sodipodi:docname="network-modem.svg">
  <defs
     id="defs823" />
  <sodipodi:namedview
     id="base"
     pagecolor="#ffffff"
     bordercolor="#666666"
     borderopacity="1.0"
     inkscape:pageopacity="0.0"
     inkscape:pageshadow="2"
     inkscape:zoom="7.2478445"
     inkscape:cx="-27.961577"
     inkscape:cy="24"
     inkscape:document-units="mm"
     inkscape:current-layer="layer1"
     showgrid="false"
     showguides="true"
     inkscape:guide-bbox="true"
     inkscape:window-width="1366"
     inkscape:window-height="719"
     inkscape:window-x="0"
     inkscape:window-y="25"
     inkscape:window-maximized="1"
     scale-x="1.9"
     units="px" />
  <metadata
     id="metadata826">
    <rdf:RDF>
      <cc:Work
         rdf:about="">
        <dc:format>image/svg+xml</dc:format>
        <dc:type
           rdf:resource="http://purl.org/dc/dcmitype/StillImage" />
        <dc:title></dc:title>
      </cc:Work>
    </rdf:RDF>
  </metadata>
  <g
     inkscape:label="Capa 1"
     inkscape:groupmode="layer"
     id="layer1"
     transform="translate(0,-284.3)">
    <path
       style="fill:#e6e6e6;fill-opacity:1;stroke-width:0.52516764"
       d="M 23.978516 0.27539062 A 23.770509 23.770509 0 0 0 0.20703125 24.046875 A 23.770509 23.770509 0 0 0 23.978516 47.816406 A 23.770509 23.770509 0 0 0 47.748047 24.046875 A 23.770509 23.770509 0 0 0 23.978516 0.27539062 z M 23.910156 3.8144531 A 20.436071 20.436071 0 0 1 44.345703 24.25 A 20.436071 20.436071 0 0 1 23.910156 44.685547 A 20.436071 20.436071 0 0 1 3.4726562 24.25 A 20.436071 20.436071 0 0 1 23.910156 3.8144531 z M 13.042969 8.5 C 12.259675 8.5 11.628906 9.1327463 11.628906 9.9160156 L 11.628906 23.179688 L 10.148438 23.179688 C 9.0294502 23.179688 8.1269531 24.080252 8.1269531 25.199219 L 8.1269531 35.029297 C 8.1269531 36.148302 9.0294502 37.048828 10.148438 37.048828 L 38.289062 37.048828 C 39.408052 37.048828 40.310547 36.148302 40.310547 35.029297 L 40.310547 25.199219 C 40.310547 24.080252 39.408052 23.179688 38.289062 23.179688 L 14.457031 23.179688 L 14.457031 9.9160156 C 14.457031 9.1327463 13.826262 8.5 13.042969 8.5 z M 33.644531 25.265625 A 2.2218238 2.221824 0 0 1 35.865234 27.490234 A 2.2218238 2.221824 0 0 1 33.644531 29.710938 A 2.2218238 2.221824 0 0 1 31.423828 27.490234 A 2.2218238 2.221824 0 0 1 33.644531 25.265625 z M 25.566406 25.400391 A 2.2218238 2.221824 0 0 1 27.787109 27.625 A 2.2218238 2.221824 0 0 1 25.566406 29.845703 A 2.2218238 2.221824 0 0 1 23.34375 27.625 A 2.2218238 2.221824 0 0 1 25.566406 25.400391 z "
       transform="matrix(0.26458333,0,0,0.26458333,0,284.3)"
       id="path1374" />
  </g>
</svg>
