<?xml version="1.0" encoding="UTF-8" standalone="no"?>
<!-- Created with Inkscape (http://www.inkscape.org/) -->

<svg
   xmlns:dc="http://purl.org/dc/elements/1.1/"
   xmlns:cc="http://creativecommons.org/ns#"
   xmlns:rdf="http://www.w3.org/1999/02/22-rdf-syntax-ns#"
   xmlns:svg="http://www.w3.org/2000/svg"
   xmlns="http://www.w3.org/2000/svg"
   xmlns:sodipodi="http://sodipodi.sourceforge.net/DTD/sodipodi-0.dtd"
   xmlns:inkscape="http://www.inkscape.org/namespaces/inkscape"
   width="48"
   height="48"
   viewBox="0 0 12.7 12.7"
   version="1.1"
   id="svg829"
   inkscape:version="0.92.3 (2405546, 2018-03-11)"
   sodipodi:docname="network-server-database.svg">
  <defs
     id="defs823" />
  <sodipodi:namedview
     id="base"
     pagecolor="#ffffff"
     bordercolor="#666666"
     borderopacity="1.0"
     inkscape:pageopacity="0.0"
     inkscape:pageshadow="2"
     inkscape:zoom="5.125"
     inkscape:cx="-20.408602"
     inkscape:cy="24"
     inkscape:document-units="mm"
     inkscape:current-layer="layer1"
     showgrid="false"
     showguides="true"
     inkscape:guide-bbox="true"
     inkscape:window-width="1366"
     inkscape:window-height="719"
     inkscape:window-x="0"
     inkscape:window-y="25"
     inkscape:window-maximized="1"
     scale-x="1.9"
     units="px"
     inkscape:snap-global="true" />
  <metadata
     id="metadata826">
    <rdf:RDF>
      <cc:Work
         rdf:about="">
        <dc:format>image/svg+xml</dc:format>
        <dc:type
           rdf:resource="http://purl.org/dc/dcmitype/StillImage" />
        <dc:title></dc:title>
      </cc:Work>
    </rdf:RDF>
  </metadata>
  <g
     inkscape:label="Capa 1"
     inkscape:groupmode="layer"
     id="layer1"
     transform="translate(0,-284.3)">
    <path
       style="fill:#e6e6e6;fill-opacity:1;stroke-width:0.52516764"
       d="M 23.978516 0.27539062 A 23.770509 23.770509 0 0 0 0.20703125 24.046875 A 23.770509 23.770509 0 0 0 23.978516 47.816406 A 23.770509 23.770509 0 0 0 47.748047 24.046875 A 23.770509 23.770509 0 0 0 23.978516 0.27539062 z M 23.910156 3.8144531 A 20.436071 20.436071 0 0 1 44.345703 24.25 A 20.436071 20.436071 0 0 1 40.412109 36.269531 C 40.108621 36.166535 39.734843 36.097656 39.310547 36.097656 L 28.537109 36.097656 L 28.537109 35 C 28.537109 34.527073 27.882995 34.146484 27.072266 34.146484 L 25.707031 34.146484 L 25.707031 31.902344 L 31.902344 31.902344 C 32.713073 31.902344 33.365234 31.521755 33.365234 31.048828 L 33.365234 8.4628906 C 33.365234 7.9899636 32.713073 7.609375 31.902344 7.609375 L 16.390625 7.609375 C 15.579896 7.609375 14.927734 7.9899636 14.927734 8.4628906 L 14.927734 31.048828 C 14.927734 31.521755 15.579896 31.902344 16.390625 31.902344 L 22.292969 31.902344 L 22.292969 34.146484 L 20.830078 34.146484 C 20.019349 34.146484 19.365234 34.527073 19.365234 35 L 19.365234 36.097656 L 8.2988281 36.097656 C 7.9528408 36.097656 7.6486119 36.147772 7.3769531 36.21875 A 20.436071 20.436071 0 0 1 3.4726562 24.25 A 20.436071 20.436071 0 0 1 23.910156 3.8144531 z M 17.84375 10.146484 L 30.140625 10.146484 C 30.783389 10.146484 31.302734 10.447319 31.302734 10.822266 L 31.302734 28.728516 C 31.302734 29.103463 30.783389 29.40625 30.140625 29.40625 L 17.84375 29.40625 C 17.200986 29.40625 16.683594 29.103463 16.683594 28.728516 L 16.683594 10.822266 C 16.683594 10.447319 17.200986 10.146484 17.84375 10.146484 z M 18.730469 11.298828 C 18.138086 11.298828 17.660156 11.776758 17.660156 12.369141 L 17.660156 14.300781 C 17.660156 14.893164 18.138086 15.369141 18.730469 15.369141 L 29.285156 15.369141 C 29.877539 15.369141 30.353516 14.893164 30.353516 14.300781 L 30.353516 12.369141 C 30.353516 11.776758 29.877539 11.298828 29.285156 11.298828 L 18.730469 11.298828 z M 18.730469 17.298828 C 18.138086 17.298828 17.660156 17.776758 17.660156 18.369141 L 17.660156 20.300781 C 17.660156 20.893164 18.138086 21.369141 18.730469 21.369141 L 29.285156 21.369141 C 29.877539 21.369141 30.353516 20.893164 30.353516 20.300781 L 30.353516 18.369141 C 30.353516 17.776758 29.877539 17.298828 29.285156 17.298828 L 18.730469 17.298828 z M 18.730469 23.298828 C 18.138086 23.298828 17.660156 23.776758 17.660156 24.369141 L 17.660156 26.300781 C 17.660156 26.893164 18.138086 27.369141 18.730469 27.369141 L 29.285156 27.369141 C 29.877539 27.369141 30.353516 26.893164 30.353516 26.300781 L 30.353516 24.369141 C 30.353516 23.776758 29.877539 23.298828 29.285156 23.298828 L 18.730469 23.298828 z M 9.8261719 39.025391 L 19.365234 39.025391 L 19.365234 39.925781 C 19.365234 40.398708 20.019349 40.78125 20.830078 40.78125 L 27.072266 40.78125 C 27.882995 40.78125 28.537109 40.398708 28.537109 39.925781 L 28.537109 39.025391 L 38.017578 39.025391 A 20.436071 20.436071 0 0 1 23.910156 44.685547 A 20.436071 20.436071 0 0 1 9.8261719 39.025391 z "
       transform="matrix(0.26458333,0,0,0.26458333,0,284.3)"
       id="path1374" />
  </g>
</svg>
