<?xml version="1.0" encoding="UTF-8" standalone="no"?>
<!-- Created with Inkscape (http://www.inkscape.org/) -->

<svg
   xmlns:dc="http://purl.org/dc/elements/1.1/"
   xmlns:cc="http://creativecommons.org/ns#"
   xmlns:rdf="http://www.w3.org/1999/02/22-rdf-syntax-ns#"
   xmlns:svg="http://www.w3.org/2000/svg"
   xmlns="http://www.w3.org/2000/svg"
   xmlns:sodipodi="http://sodipodi.sourceforge.net/DTD/sodipodi-0.dtd"
   xmlns:inkscape="http://www.inkscape.org/namespaces/inkscape"
   width="48"
   height="48"
   viewBox="0 0 12.7 12.7"
   version="1.1"
   id="svg829"
   inkscape:version="0.92.3 (2405546, 2018-03-11)"
   sodipodi:docname="printer-network.svg">
  <defs
     id="defs823" />
  <sodipodi:namedview
     id="base"
     pagecolor="#ffffff"
     bordercolor="#666666"
     borderopacity="1.0"
     inkscape:pageopacity="0.0"
     inkscape:pageshadow="2"
     inkscape:zoom="11.145833"
     inkscape:cx="24"
     inkscape:cy="24"
     inkscape:document-units="mm"
     inkscape:current-layer="layer1"
     showgrid="false"
     showguides="true"
     inkscape:guide-bbox="true"
     inkscape:window-width="1366"
     inkscape:window-height="719"
     inkscape:window-x="0"
     inkscape:window-y="25"
     inkscape:window-maximized="1"
     scale-x="1.9"
     units="px"
     inkscape:snap-global="false" />
  <metadata
     id="metadata826">
    <rdf:RDF>
      <cc:Work
         rdf:about="">
        <dc:format>image/svg+xml</dc:format>
        <dc:type
           rdf:resource="http://purl.org/dc/dcmitype/StillImage" />
        <dc:title></dc:title>
      </cc:Work>
    </rdf:RDF>
  </metadata>
  <g
     inkscape:label="Capa 1"
     inkscape:groupmode="layer"
     id="layer1"
     transform="translate(0,-284.3)">
    <path
       style="fill:#e6e6e6;fill-opacity:1;stroke-width:0.52516764"
       d="M 23.978516 0.27539062 A 23.770509 23.770509 0 0 0 0.20703125 24.046875 A 23.770509 23.770509 0 0 0 23.978516 47.816406 A 23.770509 23.770509 0 0 0 47.748047 24.046875 A 23.770509 23.770509 0 0 0 23.978516 0.27539062 z M 23.910156 3.8144531 A 20.436071 20.436071 0 0 1 44.345703 24.25 A 20.436071 20.436071 0 0 1 39.222656 37.755859 L 25.609375 37.755859 L 25.609375 31.029297 L 30.857422 31.029297 L 30.857422 27.480469 L 16.664062 27.480469 L 16.664062 31.029297 L 22.292969 31.029297 L 22.292969 37.755859 L 8.6074219 37.755859 A 20.436071 20.436071 0 0 1 3.4726562 24.25 A 20.436071 20.436071 0 0 1 23.910156 3.8144531 z M 15.841797 8.921875 L 15.841797 18.525391 L 13.886719 18.525391 L 13.886719 14.613281 L 11.931641 14.613281 C 10.953923 14.613281 9.9765625 15.590596 9.9765625 16.568359 L 9.9765625 24.390625 C 9.9765625 25.368389 10.953923 26.345703 11.931641 26.345703 L 35.396484 26.345703 C 36.374203 26.345703 37.351562 25.368389 37.351562 24.390625 L 37.351562 16.568359 C 37.351562 15.590596 36.374203 14.613281 35.396484 14.613281 L 33.441406 14.613281 L 33.441406 18.525391 L 31.486328 18.525391 L 31.486328 8.921875 L 15.841797 8.921875 z M 17.601562 10.580078 L 29.753906 10.580078 L 29.753906 18.525391 L 17.601562 18.525391 L 17.601562 10.580078 z M 11.929688 40.78125 L 35.880859 40.78125 A 20.436071 20.436071 0 0 1 23.910156 44.685547 A 20.436071 20.436071 0 0 1 11.929688 40.78125 z "
       transform="matrix(0.26458333,0,0,0.26458333,0,284.3)"
       id="path824" />
  </g>
</svg>
