<svg xmlns="http://www.w3.org/2000/svg" width="48" height="48" viewBox="0 0 12.7 12.7"><path d="M6.344.073a6.29 6.29 0 0 0-6.29 6.29 6.29 6.29 0 0 0 6.29 6.288 6.29 6.29 0 0 0 6.29-6.289 6.29 6.29 0 0 0-6.29-6.29zm-.018.936a5.407 5.407 0 0 1 5.407 5.407 5.407 5.407 0 0 1-5.407 5.407A5.407 5.407 0 0 1 .92 6.416 5.407 5.407 0 0 1 6.326 1.01zM2.583 3.072a.444.444 0 0 0-.445.445v5.22c0 .247.199.445.445.445h7.505a.444.444 0 0 0 .445-.445v-5.22a.444.444 0 0 0-.445-.445H2.583zm.571.744h6.43c.194 0 .35.154.35.347v4.079a.348.348 0 0 1-.35.348h-6.43a.348.348 0 0 1-.347-.348V4.163c0-.193.155-.347.347-.347zM6.4 9.286a1.587 1.218 0 0 0-.84.173 1.587 1.218 0 0 0-.772 1.073l1.587-.028h1.587a1.587 1.218 0 0 0-.804-1.06 1.587 1.218 0 0 0-.758-.158z" fill="#e6e6e6"/></svg>