<?xml version="1.0" encoding="UTF-8" standalone="no"?>
<!-- Created with Inkscape (http://www.inkscape.org/) -->

<svg
   xmlns:dc="http://purl.org/dc/elements/1.1/"
   xmlns:cc="http://creativecommons.org/ns#"
   xmlns:rdf="http://www.w3.org/1999/02/22-rdf-syntax-ns#"
   xmlns:svg="http://www.w3.org/2000/svg"
   xmlns="http://www.w3.org/2000/svg"
   xmlns:sodipodi="http://sodipodi.sourceforge.net/DTD/sodipodi-0.dtd"
   xmlns:inkscape="http://www.inkscape.org/namespaces/inkscape"
   width="48"
   height="48"
   viewBox="0 0 12.7 12.7"
   version="1.1"
   id="svg829"
   inkscape:version="0.92.3 (2405546, 2018-03-11)"
   sodipodi:docname="video-television.svg">
  <defs
     id="defs823" />
  <sodipodi:namedview
     id="base"
     pagecolor="#ffffff"
     bordercolor="#666666"
     borderopacity="1.0"
     inkscape:pageopacity="0.0"
     inkscape:pageshadow="2"
     inkscape:zoom="3.6239223"
     inkscape:cx="-40.877561"
     inkscape:cy="24"
     inkscape:document-units="mm"
     inkscape:current-layer="layer1"
     showgrid="false"
     showguides="true"
     inkscape:guide-bbox="true"
     inkscape:window-width="1366"
     inkscape:window-height="719"
     inkscape:window-x="0"
     inkscape:window-y="25"
     inkscape:window-maximized="1"
     scale-x="1.9"
     units="px"
     inkscape:snap-global="false" />
  <metadata
     id="metadata826">
    <rdf:RDF>
      <cc:Work
         rdf:about="">
        <dc:format>image/svg+xml</dc:format>
        <dc:type
           rdf:resource="http://purl.org/dc/dcmitype/StillImage" />
        <dc:title></dc:title>
      </cc:Work>
    </rdf:RDF>
  </metadata>
  <g
     inkscape:label="Capa 1"
     inkscape:groupmode="layer"
     id="layer1"
     transform="translate(0,-284.3)">
    <path
       style="fill:#e6e6e6;fill-opacity:1;stroke-width:0.52516764"
       d="M 23.978516 0.27539062 A 23.770509 23.770509 0 0 0 0.20703125 24.046875 A 23.770509 23.770509 0 0 0 23.978516 47.816406 A 23.770509 23.770509 0 0 0 47.748047 24.046875 A 23.770509 23.770509 0 0 0 23.978516 0.27539062 z M 23.910156 3.8144531 A 20.436071 20.436071 0 0 1 44.345703 24.25 A 20.436071 20.436071 0 0 1 23.910156 44.685547 A 20.436071 20.436071 0 0 1 3.4726562 24.25 A 20.436071 20.436071 0 0 1 23.910156 3.8144531 z M 9.7636719 11.611328 C 8.8320361 11.611328 8.0820313 12.3594 8.0820312 13.291016 L 8.0820312 33.023438 C 8.0820312 33.955091 8.8320361 34.705078 9.7636719 34.705078 L 38.126953 34.705078 C 39.058588 34.705078 39.808594 33.955091 39.808594 33.023438 L 39.808594 13.291016 C 39.808594 12.3594 39.058588 11.611328 38.126953 11.611328 L 9.7636719 11.611328 z M 11.921875 14.421875 L 36.226562 14.421875 C 36.95446 14.421875 37.542969 15.006476 37.542969 15.734375 L 37.542969 31.150391 C 37.542969 31.87829 36.95446 32.466797 36.226562 32.466797 L 11.921875 32.466797 C 11.193978 32.466797 10.607422 31.87829 10.607422 31.150391 L 10.607422 15.734375 C 10.607422 15.006476 11.193978 14.421875 11.921875 14.421875 z M 24.189453 35.097656 A 5.9978936 4.6035508 0 0 0 21.017578 35.75 A 5.9978936 4.6035508 0 0 0 18.097656 39.804688 L 24.09375 39.701172 L 30.091797 39.701172 A 5.9978936 4.6035508 0 0 0 27.052734 35.697266 A 5.9978936 4.6035508 0 0 0 24.189453 35.097656 z "
       transform="matrix(0.26458333,0,0,0.26458333,0,284.3)"
       id="path1374" />
  </g>
</svg>
