<svg xmlns="http://www.w3.org/2000/svg" width="24" height="24" version="1"><path d="M12 1.502C6.207 1.502 1.502 6.208 1.502 12c0 5.792 4.706 10.498 10.498 10.498 5.793 0 10.498-4.706 10.498-10.498 0-5.793-4.706-10.498-10.498-10.498z" fill="#441650"/><path d="M16.575 4.29c-2.333.372-4.672.706-7.003 1.087-.634.317-.407 1.123-.448 1.691v7.379c-1.63-.362-3.51.905-3.523 2.625-.073 1.105.996 2.02 2.072 1.92 1.459-.075 2.657-1.484 2.5-2.987V8.242c1.924-.276 4.07-.58 5.993-.857v6.071c-1.56-.448-3.527.58-3.785 2.222-.217.968.462 1.94 1.389 2.217 1.735.567 3.69-1.105 3.486-2.893-.005-3.353.015-6.706 0-10.06-.04-.333-.317-.669-.681-.652z" fill="#fff"/></svg>