<svg xmlns="http://www.w3.org/2000/svg" width="24" height="24" version="1"><path d="M12 1.502C6.207 1.502 1.502 6.208 1.502 12c0 5.792 4.706 10.498 10.498 10.498 5.793 0 10.498-4.706 10.498-10.498 0-5.793-4.706-10.498-10.498-10.498z" fill="#374548"/><path d="M10.599 6.287c.332 2.81.712 5.601.995 8.423h.902c.234-2.71.612-5.403.885-8.109.139-.64-.24-1.402-1.022-1.557-.771-.196-1.633.288-1.735.98a1.367 1.367 0 0 0-.025.263zm-.098 11.426c-.035.836 1.027 1.492 1.933 1.227.878-.194 1.341-1.151.89-1.831-.402-.703-1.583-.935-2.263-.397-.344.245-.571.61-.56 1z" fill="#fff"/></svg>