<svg xmlns="http://www.w3.org/2000/svg" width="24" height="24" version="1"><path d="M12 1.502C6.207 1.502 1.502 6.208 1.502 12c0 5.792 4.706 10.498 10.498 10.498 5.793 0 10.498-4.706 10.498-10.498 0-5.793-4.706-10.498-10.498-10.498z" fill="#445016"/><path d="M6.999 4.826c-.11.005-.164.023-.164.023-.553 1.4-.203 2.434-.098 2.691-.651.711-1.048 1.619-1.048 2.729 0 3.897 2.374 4.77 4.633 5.027-.291.254-.554.702-.646 1.36-.58.26-2.053.708-2.96-.846 0 0-.537-.976-1.558-1.047 0 0-.993-.014-.07.617 0 0 .668.313 1.13 1.488 0 0 .597 1.978 3.426 1.364.005.848.013 1.488.013 1.73 0 .232-.139.497-.504.506v.002h6.068c-.38.002-.52-.27-.52-.509 0-.333.012-1.43.012-2.789 0-.949-.326-1.57-.69-1.884 2.265-.251 4.643-1.112 4.643-5.02 0-1.11-.394-2.017-1.046-2.728.105-.257.455-1.291-.1-2.691 0 0-.853-.274-2.794 1.042a9.73 9.73 0 0 0-2.547-.342 9.714 9.714 0 0 0-2.546.342c-1.457-.987-2.303-1.08-2.634-1.065z" fill="#fff"/></svg>