<svg xmlns="http://www.w3.org/2000/svg" width="48" height="48" viewBox="0 0 12.7 12.7"><path d="M6.34.07a6.29 6.29 0 0 0-6.29 6.3 6.29 6.29 0 0 0 6.3 6.28 6.29 6.29 0 0 0 6.28-6.29A6.29 6.29 0 0 0 6.34.07zm-.01.94a5.4 5.4 0 0 1 5.4 5.4 5.4 5.4 0 0 1-5.4 5.41 5.4 5.4 0 0 1-5.41-5.4A5.4 5.4 0 0 1 6.32 1zM3.87 2.19a.95.95 0 0 0-.95.96V5l.01.13v4.6c0 .45.37.83.84.83h5.02a.83.83 0 0 0 .83-.84V3.03a.83.83 0 0 0-.84-.84h-4.9zm.31 3.77h.84v1.67h-.84V5.96zm1.68 0h.83v.83h-.83v-.83zm1.67 0h.84v1.67h-.84V5.96zM5.86 7.63h.83V9.3h-.83V7.63zm-1.68.84h.84v.83h-.84v-.83zm3.35 0h.84v.83h-.84v-.83z" fill="#ff7f2a"/></svg>