<svg xmlns="http://www.w3.org/2000/svg" width="48" height="48" viewBox="0 0 12.7 12.7"><path d="M6.34.07a6.29 6.29 0 0 0-6.29 6.3 6.29 6.29 0 0 0 6.3 6.28 6.29 6.29 0 0 0 6.28-6.29A6.29 6.29 0 0 0 6.34.07zm-.01.94a5.4 5.4 0 0 1 5.4 5.4 5.4 5.4 0 0 1-5.4 5.41 5.4 5.4 0 0 1-5.41-5.4A5.4 5.4 0 0 1 6.32 1zM4.37 2.6v1.7h4V2.6h-4zM2.99 4.5l-.01 3.6h.87l.5-.7 1.05.01.3 2.44H7l.3-2.44c-.26.01.77-.02 1.04 0l.51.7.87-.01-.01-3.58H2.99zm2.44.72h1.85v.38H5.43v-.38zm0 1h1.85v.37H5.43v-.38zm.45.98h.92v.38h-.92V7.2zm0 .98h.92v.38h-.92V8.2zm-2.9.03l.07 1.18h.64l.14-1.18h-.85zm5.9 0L9 9.4h.64l.07-1.18h-.85z" stroke-width="3.78" fill="#ff7f2a"/></svg>