<?xml version="1.0" encoding="UTF-8" standalone="no"?>
<svg
   xmlns:dc="http://purl.org/dc/elements/1.1/"
   xmlns:cc="http://creativecommons.org/ns#"
   xmlns:rdf="http://www.w3.org/1999/02/22-rdf-syntax-ns#"
   xmlns:svg="http://www.w3.org/2000/svg"
   xmlns="http://www.w3.org/2000/svg"
   xmlns:sodipodi="http://sodipodi.sourceforge.net/DTD/sodipodi-0.dtd"
   xmlns:inkscape="http://www.inkscape.org/namespaces/inkscape"
   width="48"
   height="48"
   viewBox="0 0 12.7 12.7"
   version="1.1"
   id="svg4"
   sodipodi:docname="drive-partition.svg"
   inkscape:version="0.92.4 (5da689c313, 2019-01-14)">
  <metadata
     id="metadata10">
    <rdf:RDF>
      <cc:Work
         rdf:about="">
        <dc:format>image/svg+xml</dc:format>
        <dc:type
           rdf:resource="http://purl.org/dc/dcmitype/StillImage" />
        <dc:title></dc:title>
      </cc:Work>
    </rdf:RDF>
  </metadata>
  <defs
     id="defs8" />
  <sodipodi:namedview
     pagecolor="#ffffff"
     bordercolor="#666666"
     borderopacity="1"
     objecttolerance="10"
     gridtolerance="10"
     guidetolerance="10"
     inkscape:pageopacity="0"
     inkscape:pageshadow="2"
     inkscape:window-width="1138"
     inkscape:window-height="480"
     id="namedview6"
     showgrid="false"
     inkscape:zoom="4.9166667"
     inkscape:cx="2.1355932"
     inkscape:cy="24"
     inkscape:window-x="0"
     inkscape:window-y="25"
     inkscape:window-maximized="0"
     inkscape:current-layer="svg4" />
  <path
     d="m 6.344,0.072 a 6.29,6.29 0 0 0 -6.29,6.29 6.29,6.29 0 0 0 6.29,6.289 6.29,6.29 0 0 0 6.29,-6.29 6.29,6.29 0 0 0 -6.29,-6.29 z M 6.326,1.009 a 5.407,5.407 0 0 1 0.012,0 v 5.404 h 5.395 a 5.407,5.407 0 0 1 0,0.003 A 5.407,5.407 0 0 1 6.326,11.823 5.407,5.407 0 0 1 0.92,6.416 5.407,5.407 0 0 1 6.326,1.01 Z M 6.773,1.031 A 5.407,5.407 0 0 1 7.075,1.068 5.407,5.407 0 0 0 6.773,1.031 Z m 0.54,0.073 A 5.407,5.407 0 0 1 7.599,1.167 5.407,5.407 0 0 0 7.314,1.104 Z m 0.525,0.125 a 5.407,5.407 0 0 1 0.28,0.092 5.407,5.407 0 0 0 -0.28,-0.092 z m 0.511,0.177 a 5.407,5.407 0 0 1 0.27,0.12 5.407,5.407 0 0 0 -0.27,-0.12 z m 0.49,0.227 A 5.407,5.407 0 0 1 9.089,1.776 5.407,5.407 0 0 0 8.839,1.633 Z M 9.307,1.909 A 5.407,5.407 0 0 1 9.541,2.076 5.407,5.407 0 0 0 9.307,1.909 Z M 9.739,2.227 A 5.407,5.407 0 0 1 9.959,2.42 5.407,5.407 0 0 0 9.739,2.227 Z m 0.404,0.364 a 5.407,5.407 0 0 1 0.194,0.208 5.407,5.407 0 0 0 -0.194,-0.208 z m 0.362,0.4 a 5.407,5.407 0 0 1 0.17,0.223 5.407,5.407 0 0 0 -0.17,-0.223 z m 0.324,0.438 a 5.407,5.407 0 0 1 0.146,0.238 5.407,5.407 0 0 0 -0.146,-0.238 z m 0.272,0.458 a 5.407,5.407 0 0 1 0.126,0.26 5.407,5.407 0 0 0 -0.126,-0.26 z m 0.23,0.494 a 5.407,5.407 0 0 1 0.097,0.264 5.407,5.407 0 0 0 -0.096,-0.264 z m 0.178,0.507 a 5.407,5.407 0 0 1 0.07,0.273 5.407,5.407 0 0 0 -0.07,-0.273 z m 0.127,0.53 a 5.407,5.407 0 0 1 0.042,0.27 5.407,5.407 0 0 0 -0.042,-0.27 z M 11.71,5.952 A 5.407,5.407 0 0 1 11.733,6.404 5.407,5.407 0 0 0 11.71,5.952 Z"
     id="path2"
     inkscape:connector-curvature="0"
     style="fill:#ff7f2a" />
</svg>
