<svg xmlns="http://www.w3.org/2000/svg" width="48" height="48" viewBox="0 0 12.7 12.7"><g font-weight="400" color="#bebebe" font-family="sans-serif" white-space="normal" fill="#ff7f2a"><path d="M6.34.07C2.91.07.1 2.9.1 6.33s2.82 6.25 6.25 6.25 6.26-2.82 6.26-6.25S9.78.07 6.34.07zm0 3.58c1.5 0 2.69 1.18 2.69 2.68S7.85 9 6.35 9 3.66 7.83 3.66 6.33s1.18-2.68 2.68-2.68z" overflow="visible" style="font-variant-ligatures:normal;font-variant-position:normal;font-variant-caps:normal;font-variant-numeric:normal;font-variant-alternates:normal;font-feature-settings:normal;text-indent:0;text-decoration-line:none;text-decoration-style:solid;text-decoration-color:#000;text-transform:none;text-orientation:mixed;shape-padding:0;isolation:auto;mix-blend-mode:normal"/><path d="M6.34 4.54a1.79 1.79 0 1 0 1.79 1.79c0-.98-.8-1.79-1.79-1.79zm0 .9c.5 0 .9.39.9.89a.89.89 0 0 1-.9.9.89.89 0 0 1-.89-.9c0-.5.4-.9.9-.9z" overflow="visible" style="font-variant-ligatures:normal;font-variant-position:normal;font-variant-caps:normal;font-variant-numeric:normal;font-variant-alternates:normal;font-feature-settings:normal;text-indent:0;text-decoration-line:none;text-decoration-style:solid;text-decoration-color:#000;text-transform:none;text-orientation:mixed;shape-padding:0;isolation:auto;mix-blend-mode:normal"/></g></svg>