<svg xmlns="http://www.w3.org/2000/svg" width="48" height="48" viewBox="0 0 12.7 12.7"><path fill="#5beedc" d="M6.344.077A6.267 6.267 0 0 0 .076 6.344a6.267 6.267 0 0 0 6.268 6.267 6.267 6.267 0 0 0 6.267-6.267A6.267 6.267 0 0 0 6.344.077zm-.018.932a5.388 5.388 0 0 1 5.388 5.39 5.388 5.388 0 0 1-5.388 5.387A5.388 5.388 0 0 1 .937 6.398a5.388 5.388 0 0 1 5.39-5.389zM5 2.463a1.233 1.233 0 1 0 .506 2.356l3.81 3.81h.31v-.925L7.466 5.546l.728-.727a1.229 1.229 0 0 0 1.738-1.123 1.232 1.232 0 1 0-2.355.506l-.728.727-.728-.727a1.23 1.23 0 0 0 .111-.506c0-.681-.551-1.233-1.233-1.233zm0 .616a.616.616 0 1 1 0 1.233.616.616 0 0 1 0-1.233zm3.7 0a.616.616 0 1 1 0 1.233.616.616 0 0 1 0-1.233zM2.666 4.887v4.941h4.942L5.55 7.772l-.025-.001-.647.647.423.422H3.654V7.193l.293.291.642-.643.003-.004.003-.018v-.006zm2.86 2.884l.001-.001h-.002zM6.85 5.392a.154.154 0 1 1 0 .31.154.154 0 0 1 0-.31zm-.925.462l-1.85 1.85v.925h.308l2.16-2.158z"/></svg>
