<?xml version="1.0" encoding="UTF-8" standalone="no"?>
<svg
   xmlns:dc="http://purl.org/dc/elements/1.1/"
   xmlns:cc="http://creativecommons.org/ns#"
   xmlns:rdf="http://www.w3.org/1999/02/22-rdf-syntax-ns#"
   xmlns:svg="http://www.w3.org/2000/svg"
   xmlns="http://www.w3.org/2000/svg"
   xmlns:sodipodi="http://sodipodi.sourceforge.net/DTD/sodipodi-0.dtd"
   xmlns:inkscape="http://www.inkscape.org/namespaces/inkscape"
   width="48"
   height="48"
   version="1.1"
   id="svg4"
   sodipodi:docname="application-dicom.svg"
   inkscape:version="0.92.4 (5da689c313, 2019-01-14)">
  <metadata
     id="metadata10">
    <rdf:RDF>
      <cc:Work
         rdf:about="">
        <dc:format>image/svg+xml</dc:format>
        <dc:type
           rdf:resource="http://purl.org/dc/dcmitype/StillImage" />
        <dc:title></dc:title>
      </cc:Work>
    </rdf:RDF>
  </metadata>
  <defs
     id="defs8" />
  <sodipodi:namedview
     pagecolor="#ffffff"
     bordercolor="#666666"
     borderopacity="1"
     objecttolerance="10"
     gridtolerance="10"
     guidetolerance="10"
     inkscape:pageopacity="0"
     inkscape:pageshadow="2"
     inkscape:window-width="1138"
     inkscape:window-height="480"
     id="namedview6"
     showgrid="false"
     inkscape:zoom="4.9166667"
     inkscape:cx="2.1355932"
     inkscape:cy="24"
     inkscape:window-x="0"
     inkscape:window-y="25"
     inkscape:window-maximized="0"
     inkscape:current-layer="svg4" />
  <path
     d="m 29.705,-0.084 c -2.047,0.008 -4.121,0.088 -4.517,0.098 H 7 a 2.938,2.938 0 0 0 -0.563,0 C 5.064,0.276 3.975,1.612 4,3.012 V 45 c 0,1.57 1.43,3 3,3 h 34 c 1.57,0 3,-1.43 3,-3 V 18.818 C 44.018,18.026 44.215,8.891 43.664,8.322 l -9.61,-8.074 c -0.281,-0.275 -2.302,-0.34 -4.349,-0.332 z m 1.49,3.094 0.133,7.504 c 0.012,0.68 0.638,1.29 1.317,1.279 l 7.771,-0.137 c 0.133,0.018 0.268,0.017 0.4,-0.006 L 40.898,14.68 41,18.77 V 44.996 H 7 V 3.021 h 18.672 z m -8.482,12.62 c -0.763,-0.009 -1.594,0.063 -2.547,0.288 a 7.713,7.713 0 0 0 -1.77,0.69 c -2.275,0 -3.156,0.992 -3.484,1.636 -0.784,-0.072 -1.447,0.09 -1.969,0.485 a 2.738,2.738 0 0 0 -0.963,1.54 3.394,3.394 0 0 0 -1.837,1.669 c -0.52,1.087 -0.322,2.255 -0.184,2.783 -0.344,0.556 -0.455,1.093 -0.34,1.593 a 1.75,1.75 0 0 0 0.545,0.913 2.869,2.869 0 0 0 0.697,2.029 c 1.213,1.406 3.627,1.606 4.102,1.63 0.125,1.57 1.316,3.117 3.947,3.505 l 0.02,0.002 c 0.025,0 0.316,0.03 0.81,0.03 0.447,0 1.055,-0.023 1.783,-0.11 1.55,1.465 2.033,3.452 2.39,4.921 0.127,0.532 0.24,0.997 0.384,1.35 a 0.563,0.563 0 0 0 0.613,0.344 l 2.543,-0.424 a 0.563,0.563 0 0 0 0.447,-0.71 5.894,5.894 0 0 1 -0.224,-1.523 c 0.165,0.054 0.334,0.102 0.5,0.143 1.35,0.34 2.725,0.27 3.869,-0.205 1.203,-0.497 2.014,-1.375 2.289,-2.463 0.037,-0.153 0.065,-0.307 0.084,-0.463 0.96,-0.131 2.112,-0.703 3,-2.406 0,-0.013 0.005,-0.022 0.012,-0.031 0.025,-0.057 0.593,-1.356 0.761,-2.944 0.207,-1.96 -0.291,-3.5 -1.45,-4.506 A 2.528,2.528 0 0 0 35.92,22.629 c -0.125,-1 -1.066,-1.636 -1.838,-1.945 A 3.332,3.332 0 0 0 33.02,18.408 c -1.032,-0.937 -2.509,-1.062 -3.23,-1.062 h -0.024 c -0.704,-1.2 -2.313,-1.257 -3.25,-1.082 a 12.764,12.764 0 0 0 -1.653,-0.446 17.277,17.277 0 0 0 -2.15,-0.187 z m -0.104,1.071 c 0.7,-0.022 1.383,0.044 2.04,0.219 0.54,0.11 1.093,0.261 1.64,0.455 a 0.563,0.563 0 0 0 0.318,0.02 c 0.016,-0.007 1.872,-0.429 2.282,0.718 a 0.563,0.563 0 0 0 0.582,0.37 c 0.018,0 1.785,-0.158 2.795,0.761 a 2.125,2.125 0 0 1 0.664,1.264 c -0.76,0.037 -1.941,0.302 -2.557,1.521 a 0.563,0.563 0 0 0 1.004,0.506 c 0.519,-1.025 1.807,-0.92 2.041,-0.892 0.206,0.068 1.437,0.504 1.39,1.257 a 0.563,0.563 0 0 0 0.3,0.54 c 0.003,0 0.203,0.11 0.374,0.345 0.229,0.313 0.304,0.692 0.223,1.133 l -0.035,0.05 c -0.875,0.095 -2.187,0.646 -2.365,2.268 a 0.563,0.563 0 0 0 1.119,0.121 c 0.112,-1.028 0.997,-1.23 1.375,-1.271 2.463,1.806 0.723,6.02 0.607,6.291 -0.61,1.166 -1.373,1.76 -2.33,1.812 -0.412,-0.343 -1.488,-1.106 -3.369,-1.556 a 0.56367366,0.56367366 0 0 0 -0.264,1.096 c 1.607,0.384 2.528,1.014 2.866,1.289 0,0.153 -0.027,0.308 -0.065,0.455 -0.397,1.587 -2.548,2.42 -4.789,1.855 a 5.766,5.766 0 0 1 -1.07,-0.38 0.563,0.563 0 0 0 -0.801,0.454 7.714,7.714 0 0 0 0.094,2.092 L 25.201,39.74 A 21.674,21.674 0 0 1 25.004,38.973 C 24.676,37.607 24.2,35.635 22.797,34.02 c 1.169,-0.285 2.29,-0.47 3.346,-0.561 a 0.563,0.563 0 1 0 -0.094,-1.12 23.868,23.868 0 0 0 -4.45,0.829 12.41,12.41 0 0 1 -2.542,0.105 C 16.619,32.908 15.94,31.437 16.1,30.287 a 0.563,0.563 0 0 0 -0.692,-0.623 l -0.406,0.098 c -0.713,-0.032 -2.487,-0.31 -3.287,-1.239 a 1.828,1.828 0 0 1 -0.406,-1.492 0.563,0.563 0 0 0 -0.293,-0.566 c -0.003,0 -0.245,-0.147 -0.301,-0.4 -0.072,-0.304 0.131,-0.667 0.312,-0.917 a 0.563,0.563 0 0 0 0.075,-0.525 c -0.004,-0.012 -0.418,-1.207 0.054,-2.201 0.263,-0.55 0.769,-0.957 1.5,-1.207 a 0.556,0.556 0 0 0 0.377,-0.485 c 0.003,-0.006 0.075,-0.72 0.594,-1.107 0.36,-0.269 0.874,-0.337 1.537,-0.203 a 0.563,0.563 0 0 0 0.668,-0.463 c 0,-0.012 0.248,-1.184 2.445,-1.225 0.332,0.454 1.064,1.65 0.52,2.72 a 0.563,0.563 0 0 0 1,0.509 2.897,2.897 0 0 0 0.318,-1.182 c 0.303,-0.128 0.776,-0.268 1.155,-0.156 0.243,0.072 0.43,0.25 0.574,0.543 a 0.56351686,0.56351686 0 1 0 1.013,-0.494 2.063,2.063 0 0 0 -1.27,-1.127 2.716,2.716 0 0 0 -1.618,0.084 5.015,5.015 0 0 0 -0.578,-1.256 c 0.262,-0.116 0.618,-0.25 1.062,-0.365 a 11.27,11.27 0 0 1 2.156,-0.307 z m 2.787,1.61 a 2.994,2.994 0 0 0 -0.705,0.087 0.563,0.563 0 0 0 0.3,1.082 1.775,1.775 0 0 1 1.212,0.143 c 0.319,0.188 0.54,0.53 0.658,1.022 a 0.563,0.563 0 0 0 0.672,0.42 0.563,0.563 0 0 0 0.418,-0.676 c -0.187,-0.8 -0.583,-1.38 -1.174,-1.73 a 2.65,2.65 0 0 0 -1.38,-0.345 v -0.003 z m -11.244,3.187 a 0.563,0.563 0 0 0 -0.506,0.707 c 0.132,0.478 0.124,0.875 -0.013,1.21 l -0.01,0.02 a 1.253,1.253 0 0 1 -0.271,0.397 1.778,1.778 0 0 1 -0.7,0.432 0.563,0.563 0 0 0 0.297,1.086 2.922,2.922 0 0 0 1.285,-0.813 c 0.375,0.278 0.818,0.422 1.3,0.422 a 2.556,2.556 0 0 0 0.411,-0.033 c 0.638,-0.106 1.113,-0.405 1.166,-0.436 a 0.563,0.563 0 1 0 -0.607,-0.945 c -0.003,0 -0.333,0.204 -0.736,0.27 a 1.063,1.063 0 0 1 -0.989,-0.29 3.103,3.103 0 0 0 -0.049,-1.61 0.563,0.563 0 0 0 -0.521,-0.417 0.563,0.563 0 0 0 -0.057,0 z m 9.06,1.586 a 0.563,0.563 0 0 0 -0.562,0.662 c 0.004,0.031 0.15,0.805 0.688,1.565 0.128,0.18 0.284,0.373 0.474,0.554 -0.1,0.578 -0.983,0.892 -1.005,0.899 a 0.563,0.563 0 0 0 0.361,1.062 c 0.519,-0.172 1.277,-0.61 1.611,-1.312 0.438,0.2 0.963,0.33 1.594,0.33 h 0.125 a 0.56355679,0.56355679 0 0 0 -0.016,-1.127 h -0.013 c -2.257,0.056 -2.697,-2.078 -2.719,-2.178 a 0.563,0.563 0 0 0 -0.537,-0.455 z m 4.759,0.371 a 0.563,0.563 0 0 0 -0.254,1.047 c 0.006,0.003 0.57,0.344 0.94,0.969 0.468,0.787 0.425,1.678 -0.132,2.65 a 0.56305617,0.56305617 0 1 0 0.977,0.56 c 0.975,-1.706 0.59,-3.027 0.094,-3.833 a 4.2,4.2 0 0 0 -1.307,-1.317 0.563,0.563 0 0 0 -0.264,-0.076 0.563,0.563 0 0 0 -0.002,0 0.563,0.563 0 0 0 -0.052,0 z m -9.633,2.438 -0.057,0.002 a 0.563,0.563 0 0 0 -0.484,0.628 c 0.094,0.772 -0.51,1.33 -0.865,1.59 a 3.5,3.5 0 0 0 -1.957,-0.263 0.563,0.563 0 0 0 0.193,1.105 c 0.01,0 0.957,-0.156 1.525,0.338 0.325,0.281 0.482,0.75 0.47,1.396 a 0.563,0.563 0 0 0 1.124,0.028 c 0.016,-0.757 -0.146,-1.378 -0.48,-1.856 0.55,-0.46 1.253,-1.29 1.103,-2.478 a 0.563,0.563 0 0 0 -0.568,-0.49 z m 13.457,2.484 a 0.563,0.563 0 0 0 -0.502,0.822 3.047,3.047 0 0 0 1.48,1.32 c -0.175,0.688 -0.288,1.902 0.73,2.752 a 0.56,0.56 0 0 0 0.792,-0.068 0.563,0.563 0 0 0 -0.072,-0.795 c -0.62,-0.519 -0.443,-1.37 -0.32,-1.754 0.506,-0.062 1.029,-0.28 1.554,-0.662 a 0.563,0.563 0 0 0 -0.652,-0.916 c -0.547,0.394 -1.046,0.54 -1.48,0.438 -0.657,-0.15 -1.034,-0.825 -1.04,-0.84 a 0.563,0.563 0 0 0 -0.49,-0.297 z m -6.55,0.596 a 0.563,0.563 0 0 0 -0.5,0.283 2.031,2.031 0 0 1 -1.72,1.094 2.885,2.885 0 0 1 -1.1,-0.166 0.563,0.563 0 0 0 -0.429,1.04 c 0.066,0.026 0.638,0.249 1.39,0.249 h 0.145 a 3.125,3.125 0 0 0 2.682,-1.655 0.563,0.563 0 0 0 -0.469,-0.845 z"
     id="path2"
     inkscape:connector-curvature="0"
     style="fill:#a02c2c" />
</svg>
