<?xml version="1.0" encoding="UTF-8" standalone="no"?>
<svg
   xmlns:dc="http://purl.org/dc/elements/1.1/"
   xmlns:cc="http://creativecommons.org/ns#"
   xmlns:rdf="http://www.w3.org/1999/02/22-rdf-syntax-ns#"
   xmlns:svg="http://www.w3.org/2000/svg"
   xmlns="http://www.w3.org/2000/svg"
   xmlns:sodipodi="http://sodipodi.sourceforge.net/DTD/sodipodi-0.dtd"
   xmlns:inkscape="http://www.inkscape.org/namespaces/inkscape"
   width="48"
   height="48"
   viewBox="0 0 12.7 12.7"
   version="1.1"
   id="svg6"
   sodipodi:docname="application-x-rpm.svg"
   inkscape:version="0.92.5 (2060ec1f9f, 2020-04-08)">
  <metadata
     id="metadata12">
    <rdf:RDF>
      <cc:Work
         rdf:about="">
        <dc:format>image/svg+xml</dc:format>
        <dc:type
           rdf:resource="http://purl.org/dc/dcmitype/StillImage" />
        <dc:title></dc:title>
      </cc:Work>
    </rdf:RDF>
  </metadata>
  <defs
     id="defs10" />
  <sodipodi:namedview
     pagecolor="#ffffff"
     bordercolor="#666666"
     borderopacity="1"
     objecttolerance="10"
     gridtolerance="10"
     guidetolerance="10"
     inkscape:pageopacity="0"
     inkscape:pageshadow="2"
     inkscape:window-width="1087"
     inkscape:window-height="480"
     id="namedview8"
     showgrid="false"
     inkscape:zoom="4.9166667"
     inkscape:cx="2.1355932"
     inkscape:cy="24"
     inkscape:window-x="0"
     inkscape:window-y="25"
     inkscape:window-maximized="0"
     inkscape:current-layer="svg6" />
  <path
     d="M 1.323,0.794 0.265,3.44 h 5.82 V 0.794 Z m 5.292,0 V 3.44 h 5.82 L 11.377,0.794 Z m -6.35,3.175 v 6.35 c 0,1.172 0.944,2.116 2.116,2.116 h 7.938 a 2.112,2.112 0 0 0 2.116,-2.116 v -6.35 h -0.793 v 6.35 a 1.32,1.32 0 0 1 -1.323,1.323 H 2.38 A 1.32,1.32 0 0 1 1.057,10.319 V 3.969 Z M 6.157,5.36 c -1.59,0 -3.05,0.579 -3.705,1.47 -0.221,0.3 -0.38,0.681 -0.38,0.911 a 0.454,0.454 0 0 0 0.013,0.154 c 0.007,0 0.293,-0.05 0.634,-0.111 C 3.061,7.724 3.351,7.673 3.363,7.673 3.376,7.673 3.386,7.528 3.385,7.35 3.384,7.096 3.407,6.981 3.492,6.806 4.001,5.767 5.949,5.239 7.432,5.738 L 7.744,5.843 7.936,5.604 7.75,5.547 C 7.403,5.44 6.722,5.36 6.157,5.36 Z M 6.168,7.063 A 0.281,0.281 0 0 0 6.116,7.076 0.801,0.801 0 0 1 5.874,7.104 L 5.741,7.097 5.874,7.147 A 0.818,0.818 0 0 1 6.082,7.259 C 6.136,7.306 6.177,7.311 6.237,7.277 6.3,7.241 6.827,7.321 8.388,7.602 10.565,7.993 10.655,8.007 10.586,7.947 10.563,7.925 10.245,7.857 9.878,7.793 6.529,7.212 6.32,7.172 6.273,7.108 A 0.1,0.1 0 0 0 6.168,7.063 Z m -2.14,1.04 v 2.161 l 0.279,-0.03 C 4.772,10.182 4.786,10.176 4.786,9.991 V 9.828 L 5.099,9.778 C 5.486,9.718 5.949,9.497 6.097,9.301 6.18,9.191 6.207,9.101 6.207,8.94 6.207,8.745 6.19,8.708 6.017,8.542 5.737,8.272 5.369,8.164 4.622,8.13 L 4.029,8.103 Z m 2.714,0.006 v 1.7 H 7.498 V 8.294 h 0.307 c 0.238,0 0.312,0.015 0.334,0.07 0.015,0.039 0.026,0.379 0.026,0.757 V 9.806 H 8.877 V 8.291 l 0.645,0.027 0.012,0.745 0.013,0.745 h 0.754 V 8.291 L 10.134,8.218 C 9.991,8.154 9.734,8.141 8.354,8.127 Z M 2.739,8.134 2.049,8.14 2.037,8.974 2.025,9.808 H 2.784 V 8.44 L 2.912,8.414 a 0.757,0.757 0 0 1 0.289,0.02 c 0.14,0.038 0.187,0.03 0.35,-0.068 L 3.737,8.255 3.583,8.191 C 3.469,8.144 3.247,8.129 2.739,8.134 Z m 2.047,0.155 0.099,0.032 c 0.14,0.044 0.318,0.174 0.453,0.334 0.22,0.263 0.123,0.62 -0.23,0.844 C 4.994,9.57 4.876,9.63 4.844,9.63 4.798,9.63 4.786,9.482 4.786,8.96 V 8.29 Z"
     id="path2"
     inkscape:connector-curvature="0"
     style="fill:#a02c2c" />
  <path
     d="M 7.92,5.607 7.737,5.841 C 8.249,6.056 8.645,6.395 8.831,6.767 8.938,6.98 8.956,7.343 8.947,7.462 l -0.016,0.21 c 0.504,0.09 1.137,0.203 1.384,0.244 0,0 0,-0.071 -0.035,-0.28 C 10.228,7.331 9.968,6.859 9.696,6.583 9.229,6.11 8.732,5.819 7.92,5.606 Z"
     id="path4"
     inkscape:connector-curvature="0"
     style="opacity:0.75;fill:#a02c2c" />
</svg>
