<?xml version="1.0" encoding="UTF-8" standalone="no"?>
<svg
   xmlns:dc="http://purl.org/dc/elements/1.1/"
   xmlns:cc="http://creativecommons.org/ns#"
   xmlns:rdf="http://www.w3.org/1999/02/22-rdf-syntax-ns#"
   xmlns:svg="http://www.w3.org/2000/svg"
   xmlns="http://www.w3.org/2000/svg"
   xmlns:sodipodi="http://sodipodi.sourceforge.net/DTD/sodipodi-0.dtd"
   xmlns:inkscape="http://www.inkscape.org/namespaces/inkscape"
   width="48"
   height="48"
   viewBox="0 0 12.7 12.7"
   version="1.1"
   id="svg6"
   sodipodi:docname="application-vnd.ms-cab-compressed.svg"
   inkscape:version="0.92.5 (2060ec1f9f, 2020-04-08)">
  <metadata
     id="metadata12">
    <rdf:RDF>
      <cc:Work
         rdf:about="">
        <dc:format>image/svg+xml</dc:format>
        <dc:type
           rdf:resource="http://purl.org/dc/dcmitype/StillImage" />
        <dc:title></dc:title>
      </cc:Work>
    </rdf:RDF>
  </metadata>
  <defs
     id="defs10" />
  <sodipodi:namedview
     pagecolor="#ffffff"
     bordercolor="#666666"
     borderopacity="1"
     objecttolerance="10"
     gridtolerance="10"
     guidetolerance="10"
     inkscape:pageopacity="0"
     inkscape:pageshadow="2"
     inkscape:window-width="1087"
     inkscape:window-height="480"
     id="namedview8"
     showgrid="false"
     inkscape:zoom="4.9166667"
     inkscape:cx="2.1355932"
     inkscape:cy="24"
     inkscape:window-x="0"
     inkscape:window-y="25"
     inkscape:window-maximized="0"
     inkscape:current-layer="svg6" />
  <path
     style="fill:#a02c2c;stroke-width:1"
     d="M 1.3229166,0.79374999 0.26510009,3.4401 H 6.0848999 V 0.79374999 Z m 5.2921834,0 V 3.4401 h 5.8198 L 11.377084,0.79374999 Z M 0.26510009,3.96875 v 6.35 c 0,1.172 0.94414991,2.11615 2.11614991,2.11615 h 7.9375 a 2.112,2.112 0 0 0 2.11615,-2.11615 v -6.35 h -0.792716 v 6.35 A 1.32,1.32 0 0 1 10.31875,11.642183 H 2.3802165 A 1.32,1.32 0 0 1 1.056783,10.31875 v -6.35 z M 1.8531169,4.9769572 V 6.0368407 H 2.1332031 V 7.0972412 H 2.6628865 V 6.0368407 H 2.922819 V 4.9769572 Z m 1.3198162,0.050126 V 5.5567667 H 3.7031332 V 5.0270833 Z M 3.7031332,5.5567667 V 6.0869668 H 4.2328166 V 5.5567667 Z m 0.5296834,0 H 4.7630167 V 5.0270833 H 4.2328166 Z m 0.5302001,0 V 6.0869668 H 5.2932168 V 5.5567667 Z m 0.5302001,0 h 0.519865 V 5.0270833 h -0.519865 z m 0.519865,0 V 6.0869668 H 6.3427652 V 5.5567667 Z m 0.5296834,0 H 6.8729653 V 5.0270833 H 6.3427652 Z m 0.5302001,0 V 6.0869668 H 7.4031657 V 5.5567667 Z m 0.5302004,0 H 7.9328491 V 5.0270833 H 7.4031657 Z m 0.5296834,0 V 6.0869668 H 8.4630492 V 5.5567667 Z m 0.5302001,0 H 8.9932493 V 5.0270833 H 8.4630492 Z m 0.5302001,0 V 6.0869668 H 9.522933 V 5.5567667 Z m 0.5296837,0 h 0.5302 V 5.0270833 h -0.5302 z m 0.5302,0 v 0.5302001 h 0.529684 V 5.5567667 Z m 0.529684,0 h 0.5302 V 5.0270833 h -0.5302 z M 2.1228678,5.2472248 H 2.6530681 V 5.7769082 H 2.1228678 Z m 2.3001181,2.2996014 v 0.010335 z M 7.8997762,8.408789 7.4698283,8.409819 v 2.340426 h 0.3999756 v -0.220142 c 0.1699998,0.19 0.3399634,0.258899 0.5999633,0.258899 a 0.77999999,0.77999999 0 0 0 0.6500895,-0.300237 c 0.14,-0.18 0.2103231,-0.399935 0.2103231,-0.6299353 0,-0.5300001 -0.3803848,-0.929659 -0.8903848,-0.929659 A 0.69999999,0.69999999 0 0 0 7.8997762,9.1487955 Z M 4.1997437,8.9488078 a 0.90999999,0.90999999 0 0 0 -0.9296591,0.920357 c 0,0.5100002 0.4199943,0.9198402 0.9399942,0.9198402 A 0.89999999,0.89999999 0 0 0 5.0797933,10.168888 H 4.6100545 c -0.1000001,0.17 -0.2299756,0.240296 -0.3999757,0.240296 -0.2999999,0 -0.5198647,-0.230019 -0.5198647,-0.5400192 0,-0.2999999 0.2097111,-0.5302001 0.4997111,-0.5302001 0.1999999,0 0.3301294,0.079779 0.4201293,0.2397787 H 5.0797933 A 0.79999998,0.79999998 0 0 0 4.8400147,9.1989216 0.94999999,0.94999999 0 0 0 4.1997437,8.9488078 Z m 2.0003947,0 c -0.5200002,0 -0.9002035,0.4001756 -0.9002035,0.9301757 0,0.5299995 0.3698681,0.9100215 0.889868,0.9100215 a 0.69999999,0.69999999 0 0 0 0.5803265,-0.269751 v 0.229961 H 7.1701048 V 8.9901489 H 6.7701294 V 9.2299276 A 0.64999999,0.64999999 0 0 0 6.2140909,8.9498412 v -0.00103 a 0.64999999,0.64999999 0 0 0 -0.013953,0 z m 2.1797118,0.3700031 c 0.2999999,0 0.5203817,0.2300187 0.5203817,0.5400188 0,0.3200003 -0.2002279,0.5503543 -0.5002279,0.5503543 -0.3100001,0 -0.5302001,-0.230354 -0.5302001,-0.5503543 0,-0.32 0.2200463,-0.5400188 0.5100463,-0.5400188 z m -2.1399211,0.020154 c 0.3000001,0 0.5198649,0.2298372 0.5198649,0.5498373 A 0.59999998,0.59999998 0 0 1 6.6300863,10.248987 0.48999999,0.48999999 0 0 1 6.2497477,10.409184 c -0.3000001,0 -0.5198649,-0.210382 -0.5198649,-0.520382 0,-0.3200001 0.2100463,-0.5498373 0.5100463,-0.5498371 z"
     id="path2"
     inkscape:connector-curvature="0" />
</svg>
