<?xml version="1.0" encoding="UTF-8" standalone="no"?>
<svg
   xmlns:dc="http://purl.org/dc/elements/1.1/"
   xmlns:cc="http://creativecommons.org/ns#"
   xmlns:rdf="http://www.w3.org/1999/02/22-rdf-syntax-ns#"
   xmlns:svg="http://www.w3.org/2000/svg"
   xmlns="http://www.w3.org/2000/svg"
   xmlns:sodipodi="http://sodipodi.sourceforge.net/DTD/sodipodi-0.dtd"
   xmlns:inkscape="http://www.inkscape.org/namespaces/inkscape"
   width="48"
   height="48"
   version="1.1"
   id="svg4"
   sodipodi:docname="cockos-reaper-template.svg"
   inkscape:version="0.92.4 (5da689c313, 2019-01-14)">
  <metadata
     id="metadata10">
    <rdf:RDF>
      <cc:Work
         rdf:about="">
        <dc:format>image/svg+xml</dc:format>
        <dc:type
           rdf:resource="http://purl.org/dc/dcmitype/StillImage" />
        <dc:title></dc:title>
      </cc:Work>
    </rdf:RDF>
  </metadata>
  <defs
     id="defs8" />
  <sodipodi:namedview
     pagecolor="#ffffff"
     bordercolor="#666666"
     borderopacity="1"
     objecttolerance="10"
     gridtolerance="10"
     guidetolerance="10"
     inkscape:pageopacity="0"
     inkscape:pageshadow="2"
     inkscape:window-width="1136"
     inkscape:window-height="480"
     id="namedview6"
     showgrid="false"
     inkscape:zoom="4.9166667"
     inkscape:cx="2.1355932"
     inkscape:cy="24"
     inkscape:window-x="0"
     inkscape:window-y="25"
     inkscape:window-maximized="0"
     inkscape:current-layer="svg4" />
  <path
     d="m 29.705,-0.083984 c -2.047,0.008 -4.1216,0.087656 -4.5176,0.097656 H 6.9994 a 2.938,2.938 0 0 0 -0.5625,0 c -1.374,0.262 -2.4625,1.598 -2.4375,2.998 v 41.988 c 0,1.57 1.43,3 3,3 h 34 c 1.57,0 3,-1.43 3,-3 v -26.182 c 0.018,-0.792 0.21506,-9.9271 -0.33594,-10.496 l -9.6094,-8.0742 c -0.284,-0.275 -2.3026,-0.34003 -4.3496,-0.33203 z m 1.4902,3.0937 0.13281,7.5039 c 0.012,0.681 0.63741,1.2903 1.3164,1.2793 l 7.7715,-0.13672 c 0.133,0.018 0.26839,0.01714 0.40039,-0.0059 l 0.08203,3.0293 0.10156,4.0898 v 26.227 h -29.068 v -41.975 h 13.74 l 5.5234,-0.011719 z m -7.8027,11.67 c -2.5808,0.02044 -5.1749,0.47774 -7.4492,1.3496 l -1.2754,0.48438 1.123,2.123 c 0.75818,1.486 2.1535,3.2148 4.3672,5.5801 3.4266,3.5783 4.7303,5.7313 5.4277,8.7637 0.48523,2.0924 0.42567,6.3693 -0.08984,8.0977 -0.63675,2.062 -0.12274,1.5147 0.84766,-0.88086 1.0008,-2.4563 1.3643,-6.7925 0.75781,-9.582 -0.51546,-2.5473 -2.1525,-5.5202 -4.3965,-8.0371 -1.0917,-1.213 -2.1831,-2.6066 -2.4258,-3.0918 -0.42454,-0.81878 -0.42464,-0.91064 0.06055,-1.1836 1.6073,-0.84904 4.3662,-1.3652 7.2168,-1.3652 3.6996,0.03026 6.7341,0.91186 9.6152,2.8223 1.031,0.69747 1.6363,0.99862 1.3027,0.63476 -0.90974,-1.0007 -4.3677,-3.1841 -6.3691,-4.0332 -1.0003,-0.42437 -2.8787,-0.96922 -4.1523,-1.2422 h -0.002 c -1.4664,-0.30676 -3.0107,-0.45171 -4.5586,-0.43945 z"
     style="color:#000000;text-indent:0;text-decoration:none;text-decoration-line:none;text-transform:none;fill:#a02c2c"
     id="path2"
     inkscape:connector-curvature="0" />
</svg>
