<svg xmlns="http://www.w3.org/2000/svg" width="48" height="48"><path style="line-height:normal;text-indent:0;text-align:start;text-decoration-line:none;text-transform:none;marker:none" d="M29.705-.084c-2.047.008-4.121.088-4.517.098H7a2.938 2.938 0 0 0-.563 0C5.063.276 3.975 1.612 4 3.012V45c0 1.57 1.43 3 3 3h34c1.57 0 3-1.43 3-3V18.818c.018-.792.215-9.927-.336-10.496L34.054.248c-.284-.275-2.302-.34-4.349-.332zm1.49 3.094l.133 7.504c.012.681.638 1.29 1.317 1.279l7.771-.137c.133.018.268.017.4-.006l.082 3.03.102 4.09v26.227H7V3.021h18.672l5.523-.011zm-9.57 13.254c-6.948 0-10.922 1.945-11.455 3.922a.442.442 0 0 0-.066.224v1.063c1.307 1.364 5.676 2.625 11.521 2.625 5.845 0 10.213-1.26 11.52-2.625V20.41a.422.422 0 0 0-.061-.212c-.517-1.982-4.493-3.935-11.459-3.935zm-11.521 6.861v4.332c1.215 1.27 5.083 2.446 10.269 2.611l.162.004a36.705 36.705 0 0 0 1.09.016c.214 0 .426 0 .637-.004.152-.002.303-.008.453-.012l.16-.004c5.186-.165 9.054-1.342 10.27-2.611v-4.332c-2.243 1.54-6.983 2.355-11.52 2.355s-9.278-.814-11.521-2.355zm0 6.041v4.332c1.311 1.37 5.712 2.633 11.521 2.633 5.81 0 10.208-1.264 11.52-2.633v-4.332c-.608.417-1.395.783-2.315 1.092-1.94.678-4.63 1.154-8.004 1.246a38.76 38.76 0 0 1-2.406 0c-3.383-.093-6.079-.572-8.02-1.254-.912-.308-1.693-.67-2.296-1.084zm0 5.992v3.78a.43.43 0 0 0 .052.207c.545 2.255 5.415 3.939 11.469 3.939 6.04 0 10.9-1.676 11.463-3.924a.455.455 0 0 0 .057-.222v-3.78c-1.906 1.342-5.83 2.397-11.52 2.397-5.69 0-9.616-1.055-11.521-2.397z" color="#000" font-weight="400" font-family="Andale Mono" overflow="visible" fill="#a02c2c"/></svg>