<?xml version="1.0" encoding="UTF-8" standalone="no"?>
<svg
   xmlns:dc="http://purl.org/dc/elements/1.1/"
   xmlns:cc="http://creativecommons.org/ns#"
   xmlns:rdf="http://www.w3.org/1999/02/22-rdf-syntax-ns#"
   xmlns:svg="http://www.w3.org/2000/svg"
   xmlns="http://www.w3.org/2000/svg"
   xmlns:sodipodi="http://sodipodi.sourceforge.net/DTD/sodipodi-0.dtd"
   xmlns:inkscape="http://www.inkscape.org/namespaces/inkscape"
   width="48"
   height="48"
   version="1.1"
   id="svg6"
   sodipodi:docname="text-x-lua.svg"
   inkscape:version="0.92.5 (2060ec1f9f, 2020-04-08)">
  <metadata
     id="metadata12">
    <rdf:RDF>
      <cc:Work
         rdf:about="">
        <dc:format>image/svg+xml</dc:format>
        <dc:type
           rdf:resource="http://purl.org/dc/dcmitype/StillImage" />
        <dc:title></dc:title>
      </cc:Work>
    </rdf:RDF>
  </metadata>
  <defs
     id="defs10" />
  <sodipodi:namedview
     pagecolor="#ffffff"
     bordercolor="#666666"
     borderopacity="1"
     objecttolerance="10"
     gridtolerance="10"
     guidetolerance="10"
     inkscape:pageopacity="0"
     inkscape:pageshadow="2"
     inkscape:window-width="1087"
     inkscape:window-height="480"
     id="namedview8"
     showgrid="false"
     inkscape:zoom="4.9166667"
     inkscape:cx="2.1355932"
     inkscape:cy="24"
     inkscape:window-x="0"
     inkscape:window-y="25"
     inkscape:window-maximized="0"
     inkscape:current-layer="svg6" />
  <path
     style="line-height:normal;text-indent:0;text-align:start;text-decoration:none;text-decoration-line:none;text-transform:none;fill:#a02c2c;marker:none"
     d="m 29.705078,-0.08398437 c -2.047,0.008 -4.121578,0.08765624 -4.517578,0.09765625 H 7 a 2.938,2.938 0 0 0 -0.5625,0 C 5.0645,0.27567188 3.975,1.6117188 4,3.0117188 V 45 c 0,1.57 1.43,3 3,3 h 34 c 1.57,0 3,-1.43 3,-3 V 18.818359 c 0.018,-0.792 0.215062,-9.9270934 -0.335938,-10.4960934 L 34.054688,0.24804688 c -0.283001,-0.27500001 -2.30261,-0.34003125 -4.34961,-0.33203125 z m 1.490234,3.09374997 0.132813,7.5039064 c 0.012,0.68 0.637406,1.290297 1.316406,1.279297 l 7.771485,-0.136719 c 0.133,0.018 0.26839,0.01714 0.40039,-0.0059 l 0.08203,3.029297 L 41,18.769531 V 44.996094 H 7 V 3.0214844 H 25.671875 Z M 10,7 v 2 h 6 V 7 Z m 8,0 v 2 h 6 V 7 Z m -6,4 v 2 h 16 v -2 z m -2,4 v 2 h 14 v -2 z m 16,0 v 2 h 11 v -2 z m -16,4 v 2 h 7 v -2 z m 9,0 v 2 h 11 v -2 z m 13,0 v 2 h 4 v -2 z m -20,4 v 2 h 22 v -2 z m 0,4 v 2 h 17.599609 v -2 z m 20,0 v 2 h 4 v -2 z m -22,4 v 2 h 17 v -2 z m 20,0 v 2 h 6 v -2 z m -14.310547,3.195312 v 7.597657 H 17.4375 v -7.597657 z m 12.625,1.994141 a 5.636,5.636 0 0 0 -0.158203,0.0078 11.25,11.25 0 0 0 -1.832031,0.273437 v 1.332031 c 0.69,-0.374 1.492578,-0.487547 2.267578,-0.435546 0.524,-0.02 1.134437,0.327828 1.023437,0.923828 -0.837,0.013 -1.689859,-0.06122 -2.505859,0.175781 -0.723,0.156 -1.275766,0.820406 -1.259766,1.566406 -0.101,0.903 0.6,1.769141 1.5,1.869141 0.855,0.15 1.799625,-0.159922 2.265625,-0.919922 v 0.810547 h 1.763672 v -3.121094 c 0,-0.131 -0.0036,-0.261578 -0.01563,-0.392578 -0.026,-0.836 -0.523,-1.690344 -1.375,-1.902344 a 5.636,5.636 0 0 0 -1.673828,-0.1875 z m -9.246094,0.134766 v 3.339843 c -0.018,0.825001 0.252516,1.805 1.103516,2.125 0.937,0.376 2.056484,0.02289 2.646484,-0.787109 v 0.791016 h 1.748047 v -5.46875 h -1.748047 v 1.580078 c -0.04,0.766 0.1495,1.614109 -0.3125,2.287109 -0.371,0.605 -1.539765,0.573344 -1.634765,-0.222656 -0.113,-1.21 -0.01992,-2.429531 -0.04492,-3.644531 z m 9.638672,3.007812 h 0.734375 c 0.442,0.012 0.05289,0.888891 -0.162109,1.087891 -0.402,0.464 -1.398672,0.531047 -1.638672,-0.126953 -0.228,-0.65 0.510406,-1.045938 1.066406,-0.960938 z"
     id="path2"
     inkscape:connector-curvature="0" />
</svg>
