<?xml version="1.0" encoding="UTF-8" standalone="no"?>
<svg
   xmlns:dc="http://purl.org/dc/elements/1.1/"
   xmlns:cc="http://creativecommons.org/ns#"
   xmlns:rdf="http://www.w3.org/1999/02/22-rdf-syntax-ns#"
   xmlns:svg="http://www.w3.org/2000/svg"
   xmlns="http://www.w3.org/2000/svg"
   xmlns:sodipodi="http://sodipodi.sourceforge.net/DTD/sodipodi-0.dtd"
   xmlns:inkscape="http://www.inkscape.org/namespaces/inkscape"
   width="48"
   height="48"
   version="1.1"
   id="svg6"
   sodipodi:docname="text-x-csharp.svg"
   inkscape:version="0.92.5 (2060ec1f9f, 2020-04-08)">
  <metadata
     id="metadata12">
    <rdf:RDF>
      <cc:Work
         rdf:about="">
        <dc:format>image/svg+xml</dc:format>
        <dc:type
           rdf:resource="http://purl.org/dc/dcmitype/StillImage" />
        <dc:title></dc:title>
      </cc:Work>
    </rdf:RDF>
  </metadata>
  <defs
     id="defs10" />
  <sodipodi:namedview
     pagecolor="#ffffff"
     bordercolor="#666666"
     borderopacity="1"
     objecttolerance="10"
     gridtolerance="10"
     guidetolerance="10"
     inkscape:pageopacity="0"
     inkscape:pageshadow="2"
     inkscape:window-width="1087"
     inkscape:window-height="480"
     id="namedview8"
     showgrid="false"
     inkscape:zoom="4.9166667"
     inkscape:cx="24"
     inkscape:cy="24"
     inkscape:window-x="0"
     inkscape:window-y="25"
     inkscape:window-maximized="0"
     inkscape:current-layer="svg6" />
  <path
     style="line-height:normal;text-indent:0;text-align:start;text-decoration:none;text-decoration-line:none;text-transform:none;marker:none;fill:#a02c2c"
     d="m 29.705078,-0.08398437 c -2.047,0.008 -4.121578,0.08765624 -4.517578,0.09765625 H 7 a 2.938,2.938 0 0 0 -0.5625,0 C 5.0645,0.27567188 3.975,1.6117188 4,3.0117188 V 45 c 0,1.57 1.43,3 3,3 h 34 c 1.57,0 3,-1.43 3,-3 V 18.818359 c 0.018,-0.792 0.215062,-9.9270934 -0.335938,-10.4960934 L 34.054688,0.24804688 c -0.283001,-0.27500001 -2.30261,-0.34003125 -4.34961,-0.33203125 z m 1.490234,3.09374997 0.132813,7.5039064 c 0.012,0.68 0.637406,1.290297 1.316406,1.279297 l 7.771485,-0.136719 c 0.133,0.018 0.26839,0.01714 0.40039,-0.0059 l 0.08203,3.029297 L 41,18.769531 V 44.996094 H 7 V 3.0214844 H 25.671875 Z M 10,7 v 2 h 6 V 7 Z m 8,0 v 2 h 6 V 7 Z m -6,4 v 2 h 16 v -2 z m -2,4 v 2 h 14 v -2 z m 16,0 v 2 h 11 v -2 z m -16,4 v 2 h 7 v -2 z m 9,0 v 2 h 11 v -2 z m 13,0 v 2 h 4 v -2 z m -20,4 v 2 h 22 v -2 z m 0,4 v 2 h 17.599609 v -2 z m 20,0 v 2 h 4 v -2 z m -22,4 v 2 h 17 v -2 z m 20,0 v 2 h 6 v -2 z m -3.474609,3.923828 -0.453125,1.8125 h -1.591797 v 1.003906 H 25.8125 l -0.328125,1.289063 h -1.544922 v 1.013672 h 1.318359 l -0.453124,1.802734 h 1.048828 l 0.453125,-1.802734 h 1.24414 l -0.453125,1.802734 h 1.039063 l 0.455078,-1.802734 h 1.582031 v -1.013672 h -1.341797 l 0.324219,-1.289063 h 1.558594 V 36.736328 H 29.40625 l 0.457031,-1.8125 h -1.039062 l -0.458985,1.8125 h -1.242187 l 0.451172,-1.8125 z m -5.771485,1.527344 a 4.778,4.778 0 0 0 -0.07227,0.0039 c -0.22,0.015 -0.439297,0.0438 -0.654297,0.0918 -1.004,0.194 -1.865907,1.022781 -2.003906,2.050781 -0.186,1.04 0.08748,2.261235 1.021484,2.865235 1.054,0.68 2.438937,0.630562 3.585937,0.226562 v -1.058594 c 0.09,-0.48 -0.198375,-0.167109 -0.484375,-0.03711 -0.715,0.303 -1.757265,0.289922 -2.197265,-0.455078 -0.34,-0.656 -0.322297,-1.582 0.220703,-2.125 0.693,-0.6 1.768937,-0.395344 2.460937,0.09766 v -1.375 a 4.778,4.778 0 0 0 -1.876953,-0.285156 z m 6.109375,1.289062 h 1.244141 l -0.330078,1.289063 h -1.244141 z"
     id="path2"
     inkscape:connector-curvature="0" />
</svg>
