<svg xmlns="http://www.w3.org/2000/svg" width="48" height="48"><path d="M29.705-.084c-2.047.008-4.121.088-4.517.098H7a2.938 2.938 0 0 0-.563 0C5.064.276 3.975 1.612 4 3.012V45c0 1.57 1.43 3 3 3h34c1.57 0 3-1.43 3-3V18.818c.018-.792.215-9.927-.336-10.496L34.054.248c-.283-.275-2.302-.34-4.349-.332zm1.49 3.094l.133 7.504c.012.68.638 1.29 1.317 1.279l7.771-.137c.133.018.268.017.4-.006l.082 3.03.102 4.09v26.226H7V3.021h18.672l5.523-.011zM13 18c-.554 0-1 .446-1 1v12c0 .554.446 1 1 1h15v4l3-4h3c.554 0 1-.446 1-1V19c0-.554-.446-1-1-1H13zm2 2h16v1H15v-1zm0 3h15v1H15v-1zm0 3h7v1h-7v-1zm0 3h15v1H15v-1z" fill="#a02c2c"/></svg>
