<svg xmlns="http://www.w3.org/2000/svg" width="24" height="24"><path d="M12.69 2.2a9.43 9.43 0 0 0-9.43 9.43H.12l4.71 6.28 4.72-6.28H6.4a6.28 6.28 0 1 1 12.58 0h3.14c0-5.21-4.22-9.43-9.43-9.43zm6.97 10.51a2.65 2.65 0 0 0-2.65 2.65v1.06h-1.59v6.36c0 .6.47 1.07 1.06 1.07h6.36c.6 0 1.06-.48 1.06-1.07l.07-6.34-1.13-.02h-.53v-1.06a2.65 2.65 0 0 0-2.65-2.65zm0 1h.01c.9 0 1.63.75 1.63 1.65v1.06h-3.27v-1.06c0-.9.73-1.64 1.63-1.65zm-5.4 3.98c-.5.13-1.02.22-1.57.22a1.57 1.57 0 0 0-1.57 1.57 1.57 1.57 0 0 0 1.57 1.58 1.57 1.57 0 0 0 .15-.01c.48 0 .96-.06 1.42-.14v-3.22z" fill="gray"/></svg>