<?xml version="1.0" encoding="UTF-8" standalone="no"?>
<svg
   xmlns:dc="http://purl.org/dc/elements/1.1/"
   xmlns:cc="http://creativecommons.org/ns#"
   xmlns:rdf="http://www.w3.org/1999/02/22-rdf-syntax-ns#"
   xmlns:svg="http://www.w3.org/2000/svg"
   xmlns="http://www.w3.org/2000/svg"
   xmlns:sodipodi="http://sodipodi.sourceforge.net/DTD/sodipodi-0.dtd"
   xmlns:inkscape="http://www.inkscape.org/namespaces/inkscape"
   width="48"
   height="48"
   viewBox="0 0 12.7 12.7"
   version="1.1"
   id="svg14"
   sodipodi:docname="applications-utilities.svg"
   inkscape:version="0.92.4 (5da689c313, 2019-01-14)">
  <metadata
     id="metadata20">
    <rdf:RDF>
      <cc:Work
         rdf:about="">
        <dc:format>image/svg+xml</dc:format>
        <dc:type
           rdf:resource="http://purl.org/dc/dcmitype/StillImage" />
        <dc:title></dc:title>
      </cc:Work>
    </rdf:RDF>
  </metadata>
  <defs
     id="defs18" />
  <sodipodi:namedview
     pagecolor="#ffffff"
     bordercolor="#666666"
     borderopacity="1"
     objecttolerance="10"
     gridtolerance="10"
     guidetolerance="10"
     inkscape:pageopacity="0"
     inkscape:pageshadow="2"
     inkscape:window-width="1087"
     inkscape:window-height="480"
     id="namedview16"
     showgrid="false"
     inkscape:zoom="4.9166667"
     inkscape:cx="2.1355932"
     inkscape:cy="24"
     inkscape:window-x="0"
     inkscape:window-y="25"
     inkscape:window-maximized="0"
     inkscape:current-layer="svg14" />
  <g
     id="g12"
     style="fill:#5beedc">
    <path
       d="m 6.345,0.073 a 6.29,6.29 0 0 0 -6.29,6.29 6.29,6.29 0 0 0 6.29,6.289 6.29,6.29 0 0 0 6.289,-6.29 6.29,6.29 0 0 0 -6.29,-6.29 z M 6.326,1.009 A 5.407,5.407 0 0 1 11.734,6.417 5.407,5.407 0 0 1 6.326,11.823 5.407,5.407 0 0 1 0.92,6.417 5.407,5.407 0 0 1 6.327,1.009 Z"
       id="path2"
       inkscape:connector-curvature="0" />
    <g
       transform="matrix(1.4142136,1.4142136,-1.4142136,1.4142136,417.24238,-413.85221)"
       id="g10">
      <path
         d="m 1.944,292.838 a 0.422,0.422 0 0 0 -0.058,10e-4 l 0.773,0.787 0.923,0.183 c 1.658,0.33 1.88,-0.056 1.88,-0.056 0,0 -0.08,-0.237 -0.935,-0.407 l -2.524,-0.5 a 0.398,0.398 0 0 0 -0.06,-0.007 z m 2.433,0.641 0.626,0.124 c -0.034,0.128 -0.477,0.044 -0.626,-0.124 z"
         id="path4"
         inkscape:connector-curvature="0"
         style="opacity:0.8" />
      <path
         d="m 3.413,291.348 c -0.145,-0.015 -0.47,0.198 -0.626,0.354 l -0.97,0.97 a 0.45,0.45 0 0 0 -0.054,0.064 l 0.632,0.631 a 0.46,0.46 0 0 0 0.063,-0.053 l 0.44,-0.44 c 0.209,-0.209 0.354,-0.39 0.453,-0.552 L 3.26,292.23 3.03,292.46 a 0.133,0.133 0 0 1 -0.189,0 l -0.033,-0.032 a 0.133,0.133 0 0 1 0,-0.188 l 0.353,-0.353 a 0.113,0.113 0 0 1 0.16,0 l 0.162,0.163 c 0.085,-0.25 0.075,-0.586 -0.02,-0.681 a 0.08,0.08 0 0 0 -0.05,-0.021 z m -0.294,0.234 c 0.088,0.1 -0.214,0.416 -0.437,0.447 z m -0.517,3.783 -0.238,-0.07 c -0.691,-0.206 -0.828,-0.024 -0.828,-0.024 0,0 0.123,0.369 0.926,0.608 l 0.82,0.243 a 0.352,0.352 0 0 0 0.078,0.015"
         id="path6"
         inkscape:connector-curvature="0" />
      <rect
         width="0.93699998"
         height="4.4000001"
         x="-206.828"
         y="207.95"
         rx="0.44800001"
         ry="0.44800001"
         transform="rotate(-45)"
         id="rect8" />
    </g>
  </g>
</svg>
