<?xml version="1.0" encoding="UTF-8" standalone="no"?>
<svg
   xmlns:dc="http://purl.org/dc/elements/1.1/"
   xmlns:cc="http://creativecommons.org/ns#"
   xmlns:rdf="http://www.w3.org/1999/02/22-rdf-syntax-ns#"
   xmlns:svg="http://www.w3.org/2000/svg"
   xmlns="http://www.w3.org/2000/svg"
   xmlns:sodipodi="http://sodipodi.sourceforge.net/DTD/sodipodi-0.dtd"
   xmlns:inkscape="http://www.inkscape.org/namespaces/inkscape"
   width="48"
   height="48"
   viewBox="0 0 12.7 12.7"
   version="1.1"
   id="svg4"
   sodipodi:docname="package_games_card.svg"
   inkscape:version="0.92.4 (5da689c313, 2019-01-14)">
  <metadata
     id="metadata10">
    <rdf:RDF>
      <cc:Work
         rdf:about="">
        <dc:format>image/svg+xml</dc:format>
        <dc:type
           rdf:resource="http://purl.org/dc/dcmitype/StillImage" />
        <dc:title></dc:title>
      </cc:Work>
    </rdf:RDF>
  </metadata>
  <defs
     id="defs8" />
  <sodipodi:namedview
     pagecolor="#ffffff"
     bordercolor="#666666"
     borderopacity="1"
     objecttolerance="10"
     gridtolerance="10"
     guidetolerance="10"
     inkscape:pageopacity="0"
     inkscape:pageshadow="2"
     inkscape:window-width="1138"
     inkscape:window-height="480"
     id="namedview6"
     showgrid="false"
     inkscape:zoom="4.9166667"
     inkscape:cx="2.1355932"
     inkscape:cy="24"
     inkscape:window-x="0"
     inkscape:window-y="25"
     inkscape:window-maximized="0"
     inkscape:current-layer="svg4" />
  <path
     d="M 6.34,0.07 A 6.29,6.29 0 0 0 0.05,6.37 6.29,6.29 0 0 0 6.35,12.65 6.29,6.29 0 0 0 12.63,6.36 6.29,6.29 0 0 0 6.34,0.07 Z M 6.33,1.01 a 5.4,5.4 0 0 1 5.4,5.4 5.4,5.4 0 0 1 -5.4,5.41 A 5.4,5.4 0 0 1 0.92,6.42 5.4,5.4 0 0 1 6.32,1 Z M 3.09,3 c -0.5,0.45 -0.71,0.58 -0.7,0.82 0,0.25 0.33,0.45 0.62,0.3 0.03,0.1 0.04,0.23 -0.11,0.32 H 3.3 C 3.17,4.34 3.16,4.22 3.2,4.1 3.52,4.27 3.83,4.07 3.83,3.79 3.83,3.49 3.63,3.4 3.09,2.99 Z m 3.2,1.08 C 4.53,5.66 3.81,6.1 3.83,6.98 c 0,0.84 1.19,1.56 2.2,1.01 0.11,0.38 0.15,0.8 -0.4,1.14 H 7.07 C 6.57,8.79 6.55,8.35 6.69,7.93 7.82,8.55 8.89,7.83 8.88,6.84 8.86,5.82 8.2,5.5 6.29,4.1 Z m 3.1,4.69 C 9.55,8.87 9.54,8.99 9.5,9.1 9.22,8.94 8.88,9.14 8.87,9.39 c 0,0.25 0.2,0.37 0.71,0.82 0.55,-0.4 0.74,-0.5 0.74,-0.79 0,-0.28 -0.3,-0.48 -0.63,-0.3 C 9.65,8.99 9.66,8.87 9.8,8.77 H 9.4 Z"
     id="path2"
     inkscape:connector-curvature="0"
     style="fill:#5beedc" />
</svg>
