<svg xmlns="http://www.w3.org/2000/svg" version="1.1" width="24" height="24"><defs><clipPath clipPathUnits="userSpaceOnUse" id="a"><ellipse cx="24.01" cy="23.906" rx="19.922" ry="19.838" opacity=".75" fill="#333" fill-opacity="1" stroke="none" stroke-width=".83" stroke-opacity="1"/></clipPath><clipPath clipPathUnits="userSpaceOnUse" id="b"><ellipse cx="24.01" cy="23.906" rx="19.922" ry="19.838" opacity=".75" fill="#333" fill-opacity="1" stroke="none" stroke-width=".83" stroke-opacity="1"/></clipPath><clipPath clipPathUnits="userSpaceOnUse" id="c"><ellipse cx="24.01" cy="23.906" rx="19.922" ry="19.838" opacity=".75" fill="#333" fill-opacity="1" stroke="none" stroke-width=".83" stroke-opacity="1"/></clipPath></defs><g fill="#a00" fill-opacity="1"><path d="M9.721 19.774a7.892 7.932 0 0 1-5.393-7.525A7.892 7.932 0 0 1 9.72 4.725" opacity="1"/><path transform="matrix(-.39765 0 0 -.39765 21.797 21.756)" clip-path="url(#a)" d="M14 47.186h4V1.627h-4z"/><path transform="matrix(-.39765 0 0 -.39765 21.797 21.756)" clip-path="url(#b)" d="M22 44h4V4h-4z"/><path transform="matrix(-.39765 0 0 -.39765 21.797 21.756)" d="M6 3.322V15.48a19.922 19.838 0 0 0-1.912 8.426A19.922 19.838 0 0 0 6 32.328V47.12h4V3.322z" clip-path="url(#c)"/></g></svg>