<?xml version="1.0" encoding="UTF-8" standalone="no"?>
<!-- Created with Inkscape (http://www.inkscape.org/) -->

<svg
   xmlns:dc="http://purl.org/dc/elements/1.1/"
   xmlns:cc="http://creativecommons.org/ns#"
   xmlns:rdf="http://www.w3.org/1999/02/22-rdf-syntax-ns#"
   xmlns:svg="http://www.w3.org/2000/svg"
   xmlns="http://www.w3.org/2000/svg"
   xmlns:sodipodi="http://sodipodi.sourceforge.net/DTD/sodipodi-0.dtd"
   xmlns:inkscape="http://www.inkscape.org/namespaces/inkscape"
   width="24"
   height="24"
   viewBox="0 0 6.35 6.35"
   version="1.1"
   id="svg829"
   inkscape:version="0.92.3 (2405546, 2018-03-11)"
   sodipodi:docname="avatar-default.svg">
  <defs
     id="defs823" />
  <sodipodi:namedview
     id="base"
     pagecolor="#ffffff"
     bordercolor="#666666"
     borderopacity="1.0"
     inkscape:pageopacity="0.0"
     inkscape:pageshadow="2"
     inkscape:zoom="18.125"
     inkscape:cx="12"
     inkscape:cy="12"
     inkscape:document-units="mm"
     inkscape:current-layer="layer1"
     showgrid="false"
     showguides="true"
     inkscape:guide-bbox="true"
     inkscape:window-width="1366"
     inkscape:window-height="714"
     inkscape:window-x="0"
     inkscape:window-y="25"
     inkscape:window-maximized="1"
     scale-x="1.9"
     units="px"
     inkscape:snap-global="false" />
  <metadata
     id="metadata826">
    <rdf:RDF>
      <cc:Work
         rdf:about="">
        <dc:format>image/svg+xml</dc:format>
        <dc:type
           rdf:resource="http://purl.org/dc/dcmitype/StillImage" />
        <dc:title></dc:title>
      </cc:Work>
    </rdf:RDF>
  </metadata>
  <g
     inkscape:label="Capa 1"
     inkscape:groupmode="layer"
     id="layer1"
     transform="translate(0,-290.65)">
    <path
       style="fill:#808080;fill-opacity:1;stroke-width:0.26165536"
       d="M 12 0.15820312 A 11.84323 11.84323 0 0 0 0.15625 12.001953 A 11.84323 11.84323 0 0 0 12 23.841797 A 11.84323 11.84323 0 0 0 23.84375 12.001953 A 11.84323 11.84323 0 0 0 12 0.15820312 z M 11.966797 1.9179688 A 10.181907 10.181907 0 0 1 22.148438 12.101562 A 10.181907 10.181907 0 0 1 11.966797 22.285156 A 10.181907 10.181907 0 0 1 1.7832031 12.101562 A 10.181907 10.181907 0 0 1 11.966797 1.9179688 z M 12.039062 3.5761719 C 10.296006 3.5761719 8.8769531 4.8336353 8.8769531 6.3867188 C 8.890635 6.9615471 8.9508624 7.6427837 9.3066406 9.1972656 C 9.4561201 9.6254852 10.431653 10.552266 11 11.132812 C 10.998752 11.374008 10.967491 11.592691 10.867188 11.759766 C 9.0622926 12.390569 5.8098634 13.540932 5.6367188 14.296875 C 5.5088347 15.471212 5.3167276 17.184786 5.1679688 18.357422 C 8.3321567 20.066713 15.776152 19.984017 18.832031 18.357422 C 18.724235 17.525472 18.627342 15.128862 18.519531 14.296875 C 17.70298 13.32187 15.553426 12.751703 13.289062 11.759766 C 13.191763 11.633215 13.143515 11.474635 13.115234 11.304688 C 13.555672 10.76279 14.604702 9.6751028 14.771484 9.1972656 C 15.171841 7.5814798 15.179698 6.9893266 15.201172 6.3867188 C 15.201172 4.8336353 13.782121 3.5761719 12.039062 3.5761719 z "
       transform="matrix(0.26458333,0,0,0.26458333,0,290.65)"
       id="path865" />
  </g>
</svg>
