<?xml version="1.0" encoding="UTF-8" standalone="no"?>
<!-- Created with Inkscape (http://www.inkscape.org/) -->

<svg
   xmlns:dc="http://purl.org/dc/elements/1.1/"
   xmlns:cc="http://creativecommons.org/ns#"
   xmlns:rdf="http://www.w3.org/1999/02/22-rdf-syntax-ns#"
   xmlns:svg="http://www.w3.org/2000/svg"
   xmlns="http://www.w3.org/2000/svg"
   xmlns:sodipodi="http://sodipodi.sourceforge.net/DTD/sodipodi-0.dtd"
   xmlns:inkscape="http://www.inkscape.org/namespaces/inkscape"
   width="24"
   height="24"
   viewBox="0 0 6.35 6.35"
   version="1.1"
   id="svg829"
   inkscape:version="0.92.3 (2405546, 2018-03-11)"
   sodipodi:docname="avatar-default.svg">
  <defs
     id="defs823" />
  <sodipodi:namedview
     id="base"
     pagecolor="#ffffff"
     bordercolor="#666666"
     borderopacity="1.0"
     inkscape:pageopacity="0.0"
     inkscape:pageshadow="2"
     inkscape:zoom="18.125"
     inkscape:cx="1.5448276"
     inkscape:cy="11.77931"
     inkscape:document-units="mm"
     inkscape:current-layer="layer1"
     showgrid="false"
     showguides="true"
     inkscape:guide-bbox="true"
     inkscape:window-width="1366"
     inkscape:window-height="684"
     inkscape:window-x="0"
     inkscape:window-y="28"
     inkscape:window-maximized="1"
     scale-x="1.9"
     units="px"
     inkscape:snap-global="false" />
  <metadata
     id="metadata826">
    <rdf:RDF>
      <cc:Work
         rdf:about="">
        <dc:format>image/svg+xml</dc:format>
        <dc:type
           rdf:resource="http://purl.org/dc/dcmitype/StillImage" />
        <dc:title></dc:title>
      </cc:Work>
    </rdf:RDF>
  </metadata>
  <g
     inkscape:label="Capa 1"
     inkscape:groupmode="layer"
     id="layer1"
     transform="translate(0,-290.65)">
    <path
       style="fill:#808080;fill-opacity:1;stroke-width:0.0633844"
       d="M 3.175,290.9564 A 2.8689495,2.8689495 0 0 0 0.30592448,293.82547 2.8689495,2.8689495 0 0 0 3.175,296.6936 2.8689495,2.8689495 0 0 0 6.0440754,293.82547 2.8689495,2.8689495 0 0 0 3.175,290.9564 Z m -0.00804,0.42629 A 2.4665043,2.4665043 0 0 1 5.6333999,293.8496 2.4665043,2.4665043 0 0 1 3.16696,296.31652 2.4665043,2.4665043 0 0 1 0.70004715,293.8496 2.4665043,2.4665043 0 0 1 3.16696,291.38269 Z m 0.017506,0.40169 c -0.4222446,0 -0.7660014,0.30461 -0.7660014,0.68084 0.00331,0.13925 0.017904,0.30427 0.1040891,0.68083 0.036211,0.10374 0.2725274,0.32825 0.4102059,0.46888 -3.023e-4,0.0584 -0.00788,0.1114 -0.032173,0.15187 -0.4372248,0.15281 -1.2251057,0.43148 -1.2670489,0.6146 -0.030979,0.28448 -0.077516,0.69958 -0.1135518,0.98365 0.766505,0.41406 2.569767,0.39403 3.3100349,0 -0.026113,-0.20154 -0.049585,-0.7821 -0.075701,-0.98365 -0.1978045,-0.23619 -0.7185207,-0.3743 -1.2670489,-0.6146 -0.02357,-0.0306 -0.035258,-0.0691 -0.042109,-0.11024 0.1066934,-0.13127 0.3608145,-0.39475 0.4012164,-0.51051 0.096984,-0.39141 0.098887,-0.53485 0.1040893,-0.68083 0,-0.37623 -0.3437564,-0.68084 -0.7660016,-0.68084 z"
       id="path865"
       inkscape:connector-curvature="0" />
  </g>
</svg>
