<?xml version="1.0" encoding="UTF-8" standalone="no"?>
<!-- Created with Inkscape (http://www.inkscape.org/) -->

<svg
   xmlns:dc="http://purl.org/dc/elements/1.1/"
   xmlns:cc="http://creativecommons.org/ns#"
   xmlns:rdf="http://www.w3.org/1999/02/22-rdf-syntax-ns#"
   xmlns:svg="http://www.w3.org/2000/svg"
   xmlns="http://www.w3.org/2000/svg"
   xmlns:sodipodi="http://sodipodi.sourceforge.net/DTD/sodipodi-0.dtd"
   xmlns:inkscape="http://www.inkscape.org/namespaces/inkscape"
   width="24"
   height="24"
   viewBox="0 0 6.35 6.35"
   version="1.1"
   id="svg829"
   inkscape:version="0.92.3 (2405546, 2018-03-11)"
   sodipodi:docname="indicator-messages.svg">
  <defs
     id="defs823" />
  <sodipodi:namedview
     id="base"
     pagecolor="#ffffff"
     bordercolor="#666666"
     borderopacity="1.0"
     inkscape:pageopacity="0.0"
     inkscape:pageshadow="2"
     inkscape:zoom="5.2395835"
     inkscape:cx="-20.588157"
     inkscape:cy="11.34838"
     inkscape:document-units="mm"
     inkscape:current-layer="layer1"
     showgrid="false"
     showguides="true"
     inkscape:guide-bbox="true"
     inkscape:window-width="1366"
     inkscape:window-height="719"
     inkscape:window-x="0"
     inkscape:window-y="25"
     inkscape:window-maximized="1"
     scale-x="1.9"
     units="px"
     inkscape:snap-global="false" />
  <metadata
     id="metadata826">
    <rdf:RDF>
      <cc:Work
         rdf:about="">
        <dc:format>image/svg+xml</dc:format>
        <dc:type
           rdf:resource="http://purl.org/dc/dcmitype/StillImage" />
        <dc:title></dc:title>
      </cc:Work>
    </rdf:RDF>
  </metadata>
  <g
     inkscape:label="Capa 1"
     inkscape:groupmode="layer"
     id="layer1"
     transform="translate(0,-290.65)">
    <path
       style="fill:#006680;fill-opacity:1;stroke-width:0.24316774"
       d="M 11.970703 2.6210938 A 9.4624906 9.4624906 0 0 0 3.6660156 7.5527344 L 11.810547 15.554688 L 12.566406 15.554688 L 20.435547 7.8574219 A 9.4624906 9.4624906 0 0 0 11.970703 2.6210938 z M 3.1289062 8.75 A 9.4624906 9.4624906 0 0 0 2.5097656 12.085938 A 9.4624906 9.4624906 0 0 0 3.75 16.744141 L 7.4726562 13.050781 L 3.1289062 8.75 z M 20.939453 9.1054688 L 16.984375 13.050781 L 20.365234 16.439453 A 9.4624906 9.4624906 0 0 0 21.433594 12.085938 A 9.4624906 9.4624906 0 0 0 20.939453 9.1054688 z M 8.3867188 13.912109 L 4.4511719 17.816406 A 9.4624906 9.4624906 0 0 0 11.970703 21.546875 A 9.4624906 9.4624906 0 0 0 19.708984 17.525391 L 16.03125 13.912109 L 13.123047 16.804688 L 11.292969 16.804688 L 8.3867188 13.912109 z "
       transform="matrix(0.26458333,0,0,0.26458333,0,290.65)"
       id="path821" />
  </g>
</svg>
