<svg xmlns="http://www.w3.org/2000/svg" width="24" height="24"><path d="M18.725 4.017l-2.261 2.26a4.805 4.805 0 0 0-2.674-.817 4.805 4.805 0 0 0-3.412 1.429l6.79 6.792a4.805 4.805 0 0 0 1.428-3.417 4.805 4.805 0 0 0-.762-2.587l2.275-2.275zm-8.743 4.17L7.88 10.289l1.025 1.026 2.102-2.103zm1.608 1.608l-2.103 2.102 1.026 1.026 2.102-2.103zm-4.864.672a4.805 4.805 0 0 0-1.393 3.376 4.805 4.805 0 0 0 .818 2.677l-2.44 2.44 1.383 1.385 2.454-2.455a4.805 4.805 0 0 0 2.59.759 4.805 4.805 0 0 0 3.378-1.39zm6.472.936l-2.103 2.102 1.026 1.025 2.102-2.102zm1.607 1.607l-2.102 2.103 1.025 1.025 2.103-2.102z" fill="#216778" fill-opacity=".302"/><path d="M11.721 4.505C9.26 4.643 7.367 6.54 7.505 9.004h2.998c-.048-.846.562-1.452 1.406-1.498a1.482 1.482 0 0 1 1.593 1.406v.044c.006.195-.047.489-.187.657a6.97 6.97 0 0 1-1.031.983 5.729 5.729 0 0 0-1.08 1.034c-.366.459-.7 1.118-.7 1.873-.011.791.706 1.5 1.5 1.5.791 0 1.508-.709 1.498-1.5 0 .003-.027.046.048-.049.073-.093.274-.25.56-.466 1.824-1.383 2.392-2.162 2.392-4.265-.138-2.462-2.317-4.356-4.78-4.218zm.222 11.998a1.5 1.5 0 0 0 .06 2.998 1.5 1.5 0 1 0 0-2.998 1.5 1.5 0 0 0-.06 0z" fill="#216778"/></svg>