<svg xmlns="http://www.w3.org/2000/svg" width="24" height="24"><defs><clipPath id="a"><ellipse cx="23.621" cy="24.5" rx="21.007" ry="21.05" fill="#ccc" stroke-width=".297" stroke-linecap="round" stroke-linejoin="round"/></clipPath><clipPath id="b"><ellipse cx="23.621" cy="24.5" rx="21.007" ry="21.05" fill="#ccc" stroke-width=".297" stroke-linecap="round" stroke-linejoin="round"/></clipPath><clipPath id="c"><ellipse cx="23.621" cy="24.5" rx="21.007" ry="21.05" fill="#ccc" stroke-width=".297" stroke-linecap="round" stroke-linejoin="round"/></clipPath><clipPath id="d"><ellipse cx="7.991" cy="40.183" rx="7.548" ry="7.491" fill="#ccc" stroke-width=".379" stroke-linecap="round" stroke-linejoin="round"/></clipPath></defs><g fill="#216778"><g fill-opacity=".302"><path clip-path="url(#a)" d="M25.854 9.428h-28.25l5.522-5.522h22.727" transform="matrix(.39615 0 0 .39615 2.93 2.702)"/><path clip-path="url(#b)" d="M25.853 19.812H-.345l-5.11-5.11h31.308" transform="matrix(.37086 0 0 .39615 3.583 2.702)"/><path transform="rotate(-45 8.698 5.345) scale(.39615)" clip-path="url(#c)" d="M2.123 26.695V19.12L28.88 45.877h-7.576z"/></g><path transform="rotate(-45 8.698 5.345) scale(.39615)" clip-path="url(#d)" d="M2.123 33.967v11.91h11.91z"/><path d="M16.597 4.377c-.906 0-1.641.735-1.641 1.641v.656h-.329l-.656.002v3.937c0 .363.294.656.656.656h3.939a.659.659 0 0 0 .656-.656l.042-3.923-.698-.016h-.328v-.656c0-.906-.735-1.641-1.641-1.641zm0 .624c.56 0 1.017.456 1.017 1.017v.656h-2.035v-.656c0-.561.456-1.017 1.018-1.017z"/></g></svg>