<?xml version="1.0" encoding="UTF-8" standalone="no"?>
<!-- Created with Inkscape (http://www.inkscape.org/) -->

<svg
   xmlns:dc="http://purl.org/dc/elements/1.1/"
   xmlns:cc="http://creativecommons.org/ns#"
   xmlns:rdf="http://www.w3.org/1999/02/22-rdf-syntax-ns#"
   xmlns:svg="http://www.w3.org/2000/svg"
   xmlns="http://www.w3.org/2000/svg"
   xmlns:sodipodi="http://sodipodi.sourceforge.net/DTD/sodipodi-0.dtd"
   xmlns:inkscape="http://www.inkscape.org/namespaces/inkscape"
   width="24"
   height="24"
   viewBox="0 0 6.35 6.35"
   version="1.1"
   id="svg829"
   inkscape:version="0.92.3 (2405546, 2018-03-11)"
   sodipodi:docname="system.svg">
  <defs
     id="defs823" />
  <sodipodi:namedview
     id="base"
     pagecolor="#ffffff"
     bordercolor="#666666"
     borderopacity="1.0"
     inkscape:pageopacity="0.0"
     inkscape:pageshadow="2"
     inkscape:zoom="21.25"
     inkscape:cx="12"
     inkscape:cy="12"
     inkscape:document-units="mm"
     inkscape:current-layer="layer1"
     showgrid="false"
     showguides="true"
     inkscape:guide-bbox="true"
     inkscape:window-width="1366"
     inkscape:window-height="719"
     inkscape:window-x="0"
     inkscape:window-y="25"
     inkscape:window-maximized="1"
     scale-x="1.9"
     units="px" />
  <metadata
     id="metadata826">
    <rdf:RDF>
      <cc:Work
         rdf:about="">
        <dc:format>image/svg+xml</dc:format>
        <dc:type
           rdf:resource="http://purl.org/dc/dcmitype/StillImage" />
        <dc:title></dc:title>
      </cc:Work>
    </rdf:RDF>
  </metadata>
  <g
     inkscape:label="Capa 1"
     inkscape:groupmode="layer"
     id="layer1"
     transform="translate(0,-290.65)">
    <path
       style="fill:#808080;fill-opacity:1;stroke-width:0.09887016"
       d="m 1.0476539,291.2143 c -0.26387935,0 -0.47617545,0.21267 -0.47617545,0.47658 v 3.25853 c 0,0.26391 0.2122961,0.47619 0.47617545,0.47619 h 1.1954027 v 0.56993 H 1.1281811 v 0.44017 h 4.1517355 v -0.44017 H 4.1356247 v -0.56993 h 1.1667217 c 0.2638801,0 0.4761751,-0.21228 0.4761751,-0.47619 v -3.25853 c 0,-0.26391 -0.212295,-0.47658 -0.4761751,-0.47658 z m 0.3614521,0.47434 h 3.5582628 c 0.2038342,0 0.3680709,0.16387 0.3680709,0.36772 v 2.51691 c 0,0.20384 -0.1642367,0.36807 -0.3680709,0.36807 H 1.409106 c -0.2038342,0 -0.3680707,-0.16423 -0.3680707,-0.36807 v -2.51691 c 0,-0.20385 0.1642365,-0.36772 0.3680707,-0.36772 z"
       id="path818"
       inkscape:connector-curvature="0" />
  </g>
</svg>
