<?xml version="1.0" encoding="UTF-8" standalone="no"?>
<!-- Created with Inkscape (http://www.inkscape.org/) -->

<svg
   xmlns:dc="http://purl.org/dc/elements/1.1/"
   xmlns:cc="http://creativecommons.org/ns#"
   xmlns:rdf="http://www.w3.org/1999/02/22-rdf-syntax-ns#"
   xmlns:svg="http://www.w3.org/2000/svg"
   xmlns="http://www.w3.org/2000/svg"
   xmlns:sodipodi="http://sodipodi.sourceforge.net/DTD/sodipodi-0.dtd"
   xmlns:inkscape="http://www.inkscape.org/namespaces/inkscape"
   id="svg2"
   width="24"
   height="24"
   version="1.0"
   sodipodi:docname="transmission-tray-icon.svg"
   inkscape:version="0.92.3 (2405546, 2018-03-11)">
  <metadata
     id="metadata17">
    <rdf:RDF>
      <cc:Work
         rdf:about="">
        <dc:format>image/svg+xml</dc:format>
        <dc:type
           rdf:resource="http://purl.org/dc/dcmitype/StillImage" />
        <dc:title></dc:title>
      </cc:Work>
    </rdf:RDF>
  </metadata>
  <defs
     id="defs15" />
  <sodipodi:namedview
     pagecolor="#ffffff"
     bordercolor="#666666"
     borderopacity="1"
     objecttolerance="10"
     gridtolerance="10"
     guidetolerance="10"
     inkscape:pageopacity="0"
     inkscape:pageshadow="2"
     inkscape:window-width="1366"
     inkscape:window-height="714"
     id="namedview13"
     showgrid="false"
     inkscape:zoom="21.958333"
     inkscape:cx="12"
     inkscape:cy="12"
     inkscape:window-x="0"
     inkscape:window-y="25"
     inkscape:window-maximized="1"
     inkscape:current-layer="svg2" />
  <path
     inkscape:connector-curvature="0"
     style="fill:#808080;fill-opacity:1;stroke-width:0.28214613"
     d="m 8.1568637,3.8730455 c -0.6538269,0 -1.1794314,0.5266634 -1.1794314,1.1804805 0,0.6538367 0.5256045,1.1804799 1.1794314,1.1804799 h 2.7250743 v 4.2518281 h 2.450153 V 6.2340059 h 2.503667 c 0.653825,0 1.18048,-0.5266432 1.18048,-1.1804799 0,-0.6538171 -0.526655,-1.1804805 -1.18048,-1.1804805 z M 10.881938,10.485834 H 7.3656796 c -0.4727245,0 -0.9223889,0.373571 -1.0083924,0.838403 l -1.467993,7.933878 c -0.086014,0.464854 0.2261198,0.839454 0.6988442,0.839454 h 4.2854058 v 0.02938 h 4.2423838 v -0.02938 h 4.296949 c 0.472725,0 0.783797,-0.3746 0.697794,-0.839454 L 17.64268,11.324237 c -0.086,-0.464832 -0.535669,-0.838403 -1.008393,-0.838403 h -3.261276 l -0.0062,3.461693 2.378799,0.002 -3.720875,3.052459 -3.5655745,-3.040918 2.4239205,0.0084 z"
     id="path818" />
</svg>
