<?xml version="1.0" encoding="UTF-8" standalone="no"?>
<svg
   xmlns:dc="http://purl.org/dc/elements/1.1/"
   xmlns:cc="http://creativecommons.org/ns#"
   xmlns:rdf="http://www.w3.org/1999/02/22-rdf-syntax-ns#"
   xmlns:svg="http://www.w3.org/2000/svg"
   xmlns="http://www.w3.org/2000/svg"
   xmlns:sodipodi="http://sodipodi.sourceforge.net/DTD/sodipodi-0.dtd"
   xmlns:inkscape="http://www.inkscape.org/namespaces/inkscape"
   width="48"
   height="48"
   viewBox="0 0 12.7 12.7"
   version="1.1"
   id="svg6"
   sodipodi:docname="application-x-cpio.svg"
   inkscape:version="0.92.5 (2060ec1f9f, 2020-04-08)">
  <metadata
     id="metadata12">
    <rdf:RDF>
      <cc:Work
         rdf:about="">
        <dc:format>image/svg+xml</dc:format>
        <dc:type
           rdf:resource="http://purl.org/dc/dcmitype/StillImage" />
        <dc:title></dc:title>
      </cc:Work>
    </rdf:RDF>
  </metadata>
  <defs
     id="defs10" />
  <sodipodi:namedview
     pagecolor="#ffffff"
     bordercolor="#666666"
     borderopacity="1"
     objecttolerance="10"
     gridtolerance="10"
     guidetolerance="10"
     inkscape:pageopacity="0"
     inkscape:pageshadow="2"
     inkscape:window-width="1087"
     inkscape:window-height="480"
     id="namedview8"
     showgrid="false"
     inkscape:zoom="4.9166667"
     inkscape:cx="2.1355932"
     inkscape:cy="24"
     inkscape:window-x="0"
     inkscape:window-y="25"
     inkscape:window-maximized="0"
     inkscape:current-layer="svg6" />
  <path
     style="fill:#5beedc;stroke-width:1"
     d="M 1.3229166,0.79374999 0.26510009,3.4401 H 6.0848999 V 0.79374999 Z m 5.2921834,0 V 3.4401 h 5.8198 L 11.377084,0.79374999 Z M 0.26510009,3.96875 v 6.35 c 0,1.172 0.94414991,2.11615 2.11614991,2.11615 h 7.9375 a 2.112,2.112 0 0 0 2.11615,-2.11615 v -6.35 h -0.792716 v 6.35 A 1.32,1.32 0 0 1 10.31875,11.642183 H 2.3802165 A 1.32,1.32 0 0 1 1.056783,10.31875 v -6.35 z M 1.8531169,4.9769572 V 6.0368407 H 2.1332031 V 7.0972412 H 2.6628865 V 6.0368407 H 2.922819 V 4.9769572 Z m 1.3198162,0.050126 V 5.5567667 H 3.7031332 V 5.0270833 Z M 3.7031332,5.5567667 V 6.0869668 H 4.2328166 V 5.5567667 Z m 0.5296834,0 H 4.7630167 V 5.0270833 H 4.2328166 Z m 0.5302001,0 V 6.0869668 H 5.2932168 V 5.5567667 Z m 0.5302001,0 h 0.519865 V 5.0270833 h -0.519865 z m 0.519865,0 V 6.0869668 H 6.3427652 V 5.5567667 Z m 0.5296834,0 H 6.8729653 V 5.0270833 H 6.3427652 Z m 0.5302001,0 V 6.0869668 H 7.4031657 V 5.5567667 Z m 0.5302004,0 H 7.9328491 V 5.0270833 H 7.4031657 Z m 0.5296834,0 V 6.0869668 H 8.4630492 V 5.5567667 Z m 0.5302001,0 H 8.9932493 V 5.0270833 H 8.4630492 Z m 0.5302001,0 V 6.0869668 H 9.522933 V 5.5567667 Z m 0.5296837,0 h 0.5302 V 5.0270833 h -0.5302 z m 0.5302,0 v 0.5302001 h 0.529684 V 5.5567667 Z m 0.529684,0 h 0.5302 V 5.0270833 h -0.5302 z M 2.1228678,5.2472248 H 2.6530681 V 5.7769082 H 2.1228678 Z m 2.3001181,2.2996014 v 0.010335 z M 7.1701048,8.1452391 V 8.5452147 H 7.6000527 V 8.1452391 Z m 1.6334923,0.5493205 a 0.92,0.92 0 0 0 -0.013436,5.167e-4 0.92999998,0.92999998 0 0 0 -0.9301758,0.9198406 c 0,0.5000001 0.4201758,0.9198401 0.9301758,0.9198401 0.51,0 0.9399944,-0.409686 0.9399944,-0.8996862 A 0.92,0.92 0 0 0 8.8035971,8.6945596 Z M 3.8902018,8.6950763 A 0.90999999,0.90999999 0 0 0 2.9698445,9.6149169 c 0,0.5100001 0.4199942,0.9198401 0.9399944,0.9198401 A 0.89999999,0.89999999 0 0 0 4.7800699,9.9151568 H 4.3098143 c -0.11,0.1600002 -0.2299756,0.2299602 -0.3999754,0.2299602 -0.3000002,0 -0.519865,-0.2302001 -0.519865,-0.5302001 0,-0.3100001 0.2102279,-0.5296834 0.5002279,-0.5296834 0.2000001,0 0.3296126,0.079779 0.4196125,0.2397787 H 4.7800699 A 0.79999998,0.79999998 0 0 0 4.5397745,8.9451904 0.94999999,0.94999999 0 0 0 3.8902018,8.6950763 Z m 2.1497396,0 A 0.73999999,0.73999999 0 0 0 5.4601319,8.9451904 V 8.7452024 H 5.0797933 V 11.085111 H 5.4999226 V 10.33477 a 0.75,0.75 0 0 0 0.5400188,0.199987 c 0.5,0 0.8800496,-0.399659 0.8800496,-0.9296588 0,-0.5299998 -0.3702312,-0.9100219 -0.8702312,-0.9100219 z m 1.1301634,0.039791 V 10.494967 H 7.6000527 V 8.7348673 Z M 6.0001504,9.0841998 c 0.29,0 0.4997111,0.2296835 0.4997111,0.5296837 0,0.2999999 -0.2097111,0.5302005 -0.4997111,0.5302005 A 0.51000001,0.51000001 0 0 1 5.4901041,9.6138835 c 0,-0.3000002 0.2200463,-0.5296837 0.5100463,-0.5296837 z m 2.7998293,0 c 0.29,0 0.5100463,0.2396837 0.5100463,0.5296837 A 0.51999999,0.51999999 0 0 1 8.8097981,10.144084 c -0.29,0 -0.5100463,-0.2300191 -0.5100463,-0.5400192 0,-0.29 0.2302277,-0.519865 0.5002279,-0.519865 z"
     id="path2"
     inkscape:connector-curvature="0" />
</svg>
