<?xml version="1.0" encoding="UTF-8" standalone="no"?><svg xmlns:dc="http://purl.org/dc/elements/1.1/" xmlns:cc="http://creativecommons.org/ns#" xmlns:rdf="http://www.w3.org/1999/02/22-rdf-syntax-ns#" xmlns="http://www.w3.org/2000/svg" width="48" height="48" viewBox="0 0 12.7 12.7"><metadata><rdf:RDF><cc:Work><dc:format>image/svg+xml</dc:format><dc:type rdf:resource="http://purl.org/dc/dcmitype/StillImage"/><dc:title/></cc:Work></rdf:RDF></metadata><path d="M1.21.86L.14 3.66h6.04V.86H1.21zm5.18 0v2.8h6.11L11.4.86H6.4zM.19 3.89v6.31c0 .64.25 1.18.74 1.64.5.45 1.08.67 1.78.67h7.25c.7 0 1.28-.22 1.78-.67.49-.46.73-1 .73-1.64V3.9h-1.12v6.3c0 .36-.13.66-.4.91a1.4 1.4 0 0 1-.99.38H2.71a1.4 1.4 0 0 1-.99-.38 1.19 1.19 0 0 1-.41-.9V3.88H.19zm1.53 1.4v1.06H2v1.06h.53V6.35h.26V5.29H1.72zm1.32.05v.53h.53v-.53h-.53zm.53.53v.53h.53v-.53h-.53zm.53 0h.53v-.53H4.1v.53zm.53 0v.53h.53v-.53h-.53zm.53 0h.52v-.53h-.52v.53zm.52 0v.53h.53v-.53h-.53zm.53 0h.53v-.53h-.53v.53zm.53 0v.53h.53v-.53h-.53zm.53 0h.53v-.53h-.53v.53zm.53 0v.53h.53v-.53H7.8zm.53 0h.53v-.53h-.53v.53zm.53 0v.53h.53v-.53h-.53zm.53 0h.53v-.53h-.53v.53zm.53 0v.53h.53v-.53h-.53zm.53 0h.53v-.53h-.53v.53zm-8.46-.31h.53v.53h-.53v-.53zm3.23 2.29a.42.42 0 0 0-.37.21c0-.05.03-.15-.02-.17h-.36v1.76h.42V8.58c.01-.2.19-.34.38-.32v-.41a.42.42 0 0 0-.05 0zm3.12 0a.42.42 0 0 0-.37.21c-.02-.05.02-.15-.02-.17h-.37v1.76H8V8.58c.01-.2.2-.34.38-.32v-.41a.42.42 0 0 0-.04 0zm-2.08 0a.87.87 0 0 0-.12.01.87.87 0 0 0-.72.77c-.06.38.11.81.48.98.3.14.71.12.95-.15.06-.08.02.09.03.13-.03.1.07.05.13.06h.25V7.89h-.38v.24a.67.67 0 0 0-.54-.28.87.87 0 0 0-.08 0zm.06.39a.55.55 0 0 1 .03 0 .51.51 0 0 1 .51.48c.03.25-.13.54-.4.57-.24.06-.54-.08-.6-.34-.09-.28.05-.63.35-.7a.55.55 0 0 1 .11-.01z" fill="#5beedc"/></svg>
