<?xml version="1.0" encoding="UTF-8" standalone="no"?>
<svg
   xmlns:dc="http://purl.org/dc/elements/1.1/"
   xmlns:cc="http://creativecommons.org/ns#"
   xmlns:rdf="http://www.w3.org/1999/02/22-rdf-syntax-ns#"
   xmlns:svg="http://www.w3.org/2000/svg"
   xmlns="http://www.w3.org/2000/svg"
   xmlns:sodipodi="http://sodipodi.sourceforge.net/DTD/sodipodi-0.dtd"
   xmlns:inkscape="http://www.inkscape.org/namespaces/inkscape"
   width="48"
   height="48"
   version="1.1"
   id="svg6"
   sodipodi:docname="application-x-clementine.svg"
   inkscape:version="0.92.4 (5da689c313, 2019-01-14)">
  <metadata
     id="metadata12">
    <rdf:RDF>
      <cc:Work
         rdf:about="">
        <dc:format>image/svg+xml</dc:format>
        <dc:type
           rdf:resource="http://purl.org/dc/dcmitype/StillImage" />
        <dc:title></dc:title>
      </cc:Work>
    </rdf:RDF>
  </metadata>
  <defs
     id="defs10" />
  <sodipodi:namedview
     pagecolor="#ffffff"
     bordercolor="#666666"
     borderopacity="1"
     objecttolerance="10"
     gridtolerance="10"
     guidetolerance="10"
     inkscape:pageopacity="0"
     inkscape:pageshadow="2"
     inkscape:window-width="1121"
     inkscape:window-height="480"
     id="namedview8"
     showgrid="false"
     inkscape:zoom="4.9166667"
     inkscape:cx="3.0508475"
     inkscape:cy="24"
     inkscape:window-x="0"
     inkscape:window-y="25"
     inkscape:window-maximized="0"
     inkscape:current-layer="svg6" />
  <path
     d="m 29.705,-0.084 c -2.047,0.008 -4.121,0.088 -4.517,0.098 H 7 a 2.938,2.938 0 0 0 -0.563,0 C 5.064,0.276 3.975,1.612 4,3.012 V 45 c 0,1.57 1.43,3 3,3 h 34 c 1.57,0 3,-1.43 3,-3 V 18.818 C 44.018,18.026 44.215,8.891 43.664,8.322 l -9.61,-8.074 c -0.282,-0.275 -2.302,-0.34 -4.349,-0.332 z m 1.49,3.094 0.133,7.504 c 0.012,0.68 0.638,1.29 1.317,1.279 l 7.771,-0.137 c 0.133,0.018 0.268,0.017 0.4,-0.006 L 40.898,14.68 41,18.77 V 44.996 H 7 V 3.021 h 18.672 z"
     id="path2"
     inkscape:connector-curvature="0"
     style="fill:#5beedc" />
  <path
     d="m 24.001,14.998 c -2.439,0 -4.063,1.624 -4.063,1.624 0,0 0.968,3.295 1.624,4.876 0.697,1.677 2.44,4.876 2.44,4.876 0,0 1.74,-3.197 2.436,-4.876 0.656,-1.584 1.624,-4.876 1.624,-4.876 0,0 -1.624,-1.624 -4.06,-1.624 m -5.171,2.08 c 0,0 -2.301,0 -4.024,1.726 -1.722,1.723 -1.722,4.024 -1.722,4.024 0,0 3.014,1.641 4.595,2.298 1.68,0.693 5.174,1.722 5.174,1.722 0,0 -1.029,-3.491 -1.726,-5.17 -0.656,-1.582 -2.297,-4.596 -2.297,-4.596 m 10.341,0 c 0,0 -1.641,3.014 -2.298,4.595 -0.693,1.68 -1.722,5.174 -1.722,5.174 0,0 3.488,-1.029 5.168,-1.725 1.584,-0.657 4.595,-2.298 4.595,-2.298 0,0 0,-2.301 -1.72,-4.024 -1.725,-1.722 -4.023,-1.722 -4.023,-1.722 m -16.547,6.853 c 0,0 -1.624,1.627 -1.624,4.064 0,2.436 1.624,4.063 1.624,4.063 0,0 3.295,-0.97 4.876,-1.627 C 19.177,29.741 22.377,28 22.377,28 c 0,0 -3.197,-1.743 -4.879,-2.437 -1.584,-0.656 -4.876,-1.627 -4.876,-1.627 m 22.753,0 c 0,0 -3.295,0.97 -4.876,1.627 C 28.823,26.257 25.623,28 25.623,28 c 0,0 3.197,1.742 4.876,2.436 1.584,0.656 4.876,1.627 4.876,1.627 0,0 1.624,-1.627 1.624,-4.063 0,-2.437 -1.624,-4.064 -1.624,-4.064 m -12.525,5.21 c 0,0 -3.489,1.029 -5.168,1.726 -1.584,0.656 -4.595,2.297 -4.595,2.297 0,0 0,2.298 1.72,4.024 1.725,1.722 4.023,1.722 4.023,1.722 0,0 1.641,-3.014 2.297,-4.595 0.694,-1.682 1.723,-5.174 1.723,-5.174 m 2.3,0 c 0,0 1.027,3.492 1.723,5.174 0.657,1.58 2.298,4.595 2.298,4.595 0,0 2.298,0 4.024,-1.722 1.722,-1.726 1.722,-4.024 1.722,-4.024 0,0 -3.014,-1.641 -4.595,-2.297 -1.683,-0.694 -5.174,-1.723 -5.174,-1.723 M 24,29.623 c 0,0 -1.742,3.197 -2.436,4.879 -0.656,1.584 -1.627,4.876 -1.627,4.876 0,0 1.627,1.624 4.063,1.624 2.437,0 4.064,-1.624 4.064,-1.624 0,0 -0.97,-3.295 -1.627,-4.876 C 25.743,32.825 24,29.626 24,29.626"
     id="path4"
     inkscape:connector-curvature="0"
     style="opacity:0.75;fill:#aa4400" />
</svg>
