<svg xmlns="http://www.w3.org/2000/svg" width="48" height="48"><defs><linearGradient id="a"><stop offset="0" stop-color="#dc85e9"/><stop offset="1" stop-color="#f2cbf8"/></linearGradient><linearGradient id="b"><stop offset="0" stop-color="#dc85e9"/><stop offset="1" stop-color="#f2cbf8"/></linearGradient><linearGradient id="c"><stop offset="0" stop-color="#fff" stop-opacity=".588"/><stop offset="1" stop-color="#fff" stop-opacity=".863"/></linearGradient><linearGradient id="d"><stop offset="0" stop-color="#b3b3b3"/><stop offset="1" stop-color="#e6e6e6"/></linearGradient><linearGradient id="e"><stop offset="0" stop-color="#e694bb"/><stop offset=".262" stop-color="#d3819a"/><stop offset=".705" stop-color="#b25a64"/><stop offset="1" stop-color="#98313d"/></linearGradient></defs><path style="line-height:normal;text-indent:0;text-align:start;text-decoration-line:none;text-transform:none;marker:none" d="M29.705-.084c-2.047.008-4.121.088-4.517.098H7a2.938 2.938 0 0 0-.563 0C5.063.276 3.975 1.612 4 3.012V45c0 1.57 1.43 3 3 3h34c1.57 0 3-1.43 3-3V18.818c.018-.792.215-9.927-.336-10.496L34.054.248c-.284-.275-2.302-.34-4.349-.332zm1.49 3.094l.133 7.504c.012.681.638 1.29 1.317 1.279l7.771-.137c.133.018.268.017.4-.006l.082 3.03L41 18.77v26.227H7V3.021h18.672l5.523-.011zm-7.29 15.072c-.276.02-.48.163-.58.49-3.516 5.875-6.99 11.775-10.534 17.633-.862 1.227-1.64 2.825-3.215 3.225-.585-.203-.6.776-.35.9h6.391c.118-.645-.058-1.024-.81-.873-1.462.232-1.308-1.485-.758-2.33.666-1.335 1.45-2.609 2.168-3.916h7.32c.238 1.608.615 3.202.733 4.824.302 1.325-1.183 1.446-2.112 1.477-.273-.058-.365.976.049.818h7.652v-.047c.125.012.246.031.375.031.827 0 1.696-.259 2.61-.78.609-.349 1.316-.883 2.12-1.6 0 1.022.283 1.718.849 2.087.304.196.727.293 1.271.293.391 0 .773-.074 1.143-.226.587-.24 1.174-.709 1.761-1.404v-.848a3.75 3.75 0 0 1-.685.457 1.735 1.735 0 0 1-.783.164c-.435 0-.708-.143-.817-.426-.087-.304-.129-.792-.129-1.467v-6.36c0-1.523-.208-2.643-.62-3.36-.719-1.24-2.132-1.86-4.241-1.86-1.696 0-3.054.447-4.076 1.338-.827.718-1.24 1.479-1.24 2.283 0 .327.12.653.359.979.24.304.586.457 1.043.457a1.42 1.42 0 0 0 1.045-.424c.282-.283.424-.61.424-.98a12.639 12.639 0 0 1-.131-.586 7.596 7.596 0 0 1-.033-.686c0-.478.24-.858.718-1.14a2.913 2.913 0 0 1 1.598-.457c.652 0 1.196.162 1.63.488.588.457.882 1.197.882 2.219v1.99c-3.088 1.218-5.112 2.152-6.069 2.805-.862.592-1.455 1.285-1.783 2.078-.466-2.709-.902-5.422-1.365-8.131L24.2 18.102a1.187 1.187 0 0 0-.297-.02zm-1.999 4.879l1.463 8.65h-6.455c1.664-2.883 3.329-5.766 4.992-8.65zm13.026 8.287v4.729c0 .521-.065.912-.196 1.173-.13.24-.435.468-.914.686a5.93 5.93 0 0 1-.945.393c-.391.13-.75.195-1.076.195-.61 0-1.12-.24-1.533-.719-.414-.478-.622-1.108-.622-1.89 0-.783.273-1.48.817-2.088.826-.936 2.316-1.761 4.469-2.479z" color="#000" font-weight="400" font-family="Andale Mono" overflow="visible" fill="#5beedc"/></svg>
