<?xml version="1.0" encoding="UTF-8" standalone="no"?>
<svg
   xmlns:dc="http://purl.org/dc/elements/1.1/"
   xmlns:cc="http://creativecommons.org/ns#"
   xmlns:rdf="http://www.w3.org/1999/02/22-rdf-syntax-ns#"
   xmlns:svg="http://www.w3.org/2000/svg"
   xmlns="http://www.w3.org/2000/svg"
   xmlns:sodipodi="http://sodipodi.sourceforge.net/DTD/sodipodi-0.dtd"
   xmlns:inkscape="http://www.inkscape.org/namespaces/inkscape"
   width="48"
   height="48"
   version="1.1"
   id="svg35"
   sodipodi:docname="font-x-generic.svg"
   inkscape:version="0.92.4 (5da689c313, 2019-01-14)">
  <metadata
     id="metadata39">
    <rdf:RDF>
      <cc:Work
         rdf:about="">
        <dc:format>image/svg+xml</dc:format>
        <dc:type
           rdf:resource="http://purl.org/dc/dcmitype/StillImage" />
        <dc:title></dc:title>
      </cc:Work>
    </rdf:RDF>
  </metadata>
  <sodipodi:namedview
     pagecolor="#ffffff"
     bordercolor="#666666"
     borderopacity="1"
     objecttolerance="10"
     gridtolerance="10"
     guidetolerance="10"
     inkscape:pageopacity="0"
     inkscape:pageshadow="2"
     inkscape:window-width="1087"
     inkscape:window-height="480"
     id="namedview37"
     showgrid="false"
     inkscape:zoom="4.9166667"
     inkscape:cx="2.1355932"
     inkscape:cy="24"
     inkscape:window-x="0"
     inkscape:window-y="25"
     inkscape:window-maximized="0"
     inkscape:current-layer="svg35" />
  <defs
     id="defs31">
    <linearGradient
       id="a">
      <stop
         offset="0"
         stop-color="#dc85e9"
         id="stop2" />
      <stop
         offset="1"
         stop-color="#f2cbf8"
         id="stop4" />
    </linearGradient>
    <linearGradient
       id="b">
      <stop
         offset="0"
         stop-color="#dc85e9"
         id="stop7" />
      <stop
         offset="1"
         stop-color="#f2cbf8"
         id="stop9" />
    </linearGradient>
    <linearGradient
       id="c">
      <stop
         offset="0"
         stop-color="#fff"
         stop-opacity=".588"
         id="stop12" />
      <stop
         offset="1"
         stop-color="#fff"
         stop-opacity=".863"
         id="stop14" />
    </linearGradient>
    <linearGradient
       id="d">
      <stop
         offset="0"
         stop-color="#b3b3b3"
         id="stop17" />
      <stop
         offset="1"
         stop-color="#e6e6e6"
         id="stop19" />
    </linearGradient>
    <linearGradient
       id="e">
      <stop
         offset="0"
         stop-color="#e694bb"
         id="stop22" />
      <stop
         offset=".262"
         stop-color="#d3819a"
         id="stop24" />
      <stop
         offset=".705"
         stop-color="#b25a64"
         id="stop26" />
      <stop
         offset="1"
         stop-color="#98313d"
         id="stop28" />
    </linearGradient>
  </defs>
  <path
     style="color:#000000;font-weight:400;line-height:normal;font-family:'Andale Mono';text-indent:0;text-align:start;text-decoration:none;text-decoration-line:none;text-transform:none;overflow:visible;fill:#5beedc;marker:none"
     d="m 29.705,-0.084 c -2.047,0.008 -4.121,0.088 -4.517,0.098 H 7 a 2.938,2.938 0 0 0 -0.563,0 C 5.063,0.276 3.975,1.612 4,3.012 V 45 c 0,1.57 1.43,3 3,3 h 34 c 1.57,0 3,-1.43 3,-3 V 18.818 C 44.018,18.026 44.215,8.891 43.664,8.322 l -9.61,-8.074 c -0.284,-0.275 -2.302,-0.34 -4.349,-0.332 z m 1.49,3.094 0.133,7.504 c 0.012,0.681 0.638,1.29 1.317,1.279 l 7.771,-0.137 c 0.133,0.018 0.268,0.017 0.4,-0.006 L 40.898,14.68 41,18.77 V 44.997 H 7 V 3.021 h 18.672 z m -7.29,15.072 c -0.276,0.02 -0.48,0.163 -0.58,0.49 -3.516,5.875 -6.99,11.775 -10.534,17.633 -0.862,1.227 -1.64,2.825 -3.215,3.225 -0.585,-0.203 -0.6,0.776 -0.35,0.9 h 6.391 c 0.118,-0.645 -0.058,-1.024 -0.81,-0.873 -1.462,0.232 -1.308,-1.485 -0.758,-2.33 0.666,-1.335 1.45,-2.609 2.168,-3.916 h 7.32 c 0.238,1.608 0.615,3.202 0.733,4.824 0.302,1.325 -1.183,1.446 -2.112,1.477 -0.273,-0.058 -0.365,0.976 0.049,0.818 h 7.652 v -0.047 c 0.125,0.012 0.246,0.031 0.375,0.031 0.827,0 1.696,-0.259 2.61,-0.78 0.609,-0.349 1.316,-0.883 2.12,-1.6 0,1.022 0.283,1.718 0.849,2.087 0.304,0.196 0.727,0.293 1.271,0.293 0.391,0 0.773,-0.074 1.143,-0.226 0.587,-0.24 1.174,-0.709 1.761,-1.404 v -0.848 a 3.75,3.75 0 0 1 -0.685,0.457 1.735,1.735 0 0 1 -0.783,0.164 c -0.435,0 -0.708,-0.143 -0.817,-0.426 -0.087,-0.304 -0.129,-0.792 -0.129,-1.467 v -6.36 c 0,-1.523 -0.208,-2.643 -0.62,-3.36 -0.719,-1.24 -2.132,-1.86 -4.241,-1.86 -1.696,0 -3.054,0.447 -4.076,1.338 -0.827,0.718 -1.24,1.479 -1.24,2.283 0,0.327 0.12,0.653 0.359,0.979 0.24,0.304 0.586,0.457 1.043,0.457 a 1.42,1.42 0 0 0 1.045,-0.424 c 0.282,-0.283 0.424,-0.61 0.424,-0.98 a 12.639,12.639 0 0 1 -0.131,-0.586 7.596,7.596 0 0 1 -0.033,-0.686 c 0,-0.478 0.24,-0.858 0.718,-1.14 a 2.913,2.913 0 0 1 1.598,-0.457 c 0.652,0 1.196,0.162 1.63,0.488 0.588,0.457 0.882,1.197 0.882,2.219 v 1.99 c -3.088,1.218 -5.112,2.152 -6.069,2.805 -0.862,0.592 -1.455,1.285 -1.783,2.078 -0.466,-2.709 -0.902,-5.422 -1.365,-8.131 L 24.2,18.102 a 1.187,1.187 0 0 0 -0.297,-0.02 z m -1.999,4.879 1.463,8.65 h -6.455 c 1.664,-2.883 3.329,-5.766 4.992,-8.65 z m 13.026,8.287 v 4.729 c 0,0.521 -0.065,0.912 -0.196,1.173 -0.13,0.24 -0.435,0.468 -0.914,0.686 a 5.93,5.93 0 0 1 -0.945,0.393 c -0.391,0.13 -0.75,0.195 -1.076,0.195 -0.61,0 -1.12,-0.24 -1.533,-0.719 -0.414,-0.478 -0.622,-1.108 -0.622,-1.89 0,-0.783 0.273,-1.48 0.817,-2.088 0.826,-0.936 2.316,-1.761 4.469,-2.479 z"
     font-weight="400"
     overflow="visible"
     id="path33"
     inkscape:connector-curvature="0" />
</svg>
