<svg xmlns="http://www.w3.org/2000/svg" width="48" height="48"><defs><linearGradient id="a"><stop offset="0" stop-color="#dc85e9"/><stop offset="1" stop-color="#f2cbf8"/></linearGradient><linearGradient id="b"><stop offset="0" stop-color="#dc85e9"/><stop offset="1" stop-color="#f2cbf8"/></linearGradient><linearGradient id="c"><stop offset="0" stop-color="#fff" stop-opacity=".588"/><stop offset="1" stop-color="#fff" stop-opacity=".863"/></linearGradient><linearGradient id="d"><stop offset="0" stop-color="#b3b3b3"/><stop offset="1" stop-color="#e6e6e6"/></linearGradient><linearGradient id="e"><stop offset="0" stop-color="#e694bb"/><stop offset=".262" stop-color="#d3819a"/><stop offset=".705" stop-color="#b25a64"/><stop offset="1" stop-color="#98313d"/></linearGradient></defs><path style="line-height:normal;text-indent:0;text-align:start;text-decoration-line:none;text-transform:none;marker:none" d="M29.705-.084c-2.047.008-4.121.088-4.517.098H7a2.938 2.938 0 0 0-.563 0C5.063.276 3.975 1.612 4 3.012V45c0 1.57 1.43 3 3 3h34c1.57 0 3-1.43 3-3V18.818c.018-.792.215-9.927-.336-10.496L34.054.248c-.284-.275-2.302-.34-4.349-.332zm1.49 3.094l.133 7.504c.012.681.638 1.29 1.317 1.279l7.771-.137c.133.018.268.017.4-.006l.082 3.03L41 18.77v26.227H7V3.021h18.672l5.523-.011zm-7.976.976c-4.264-.062-.64 8.843-.862 8.795-.22-.048.244 2.632-.267 2.631-.511 0-1.514.29-2.608-.639-1.093-.928-.372-4.134-2.748-3.287-2.375.847 1.35 3.097 2.016 3.844.666.747.266.948.066 1.356-.144.295-.607.442-.806.57-.2.127-1.425.777-1.82.398-1.949-1.863-4.713-5.02-6.044-2.357-1.33 2.664 5.212 2.565 6.268 3.51 1.056.944.788 1.867.785 2.377-.003.51-.1 1.227-1.867 1.939-1.766.712-8.548.21-6.65 2.91 1.897 2.7 6.213-1.569 7.027-1.392.814.176 2.15.998 2.506 2.148.356 1.15-2.23 2.86-1.383 3.127 1.32.416 1.75-2.624 2.441-2.56.692.063 1.588-.149 2.266.425 2.382 2.016-1.95 8.956 1.518 8.696 3.468-.26.528-6.443 1.224-7.282.697-.838.646-1.488 1.157-1.488.51 0 .048.54.863.717.814.176.049 5.552 2.355 4.773 2.307-.778-1.817-5.68-1.416-5.937.401-.257 1.436.166 1.809-.188.553-.524.476-1.24.898-.924.422.316 1.48 4.674 2.885 3.618 1.523-1.145-1.356-2.556-2.242-3.827-.426-.61.294-1.244.402-1.302.613-.329.923.29 1.313-.07.497-.46-.383-.97.14-1.167 1.312-.494 3.8 1.973 4.2.065.399-1.908-2.948-.913-4.473-1.092-1.084-.127-1.863-.568-2.086-1.37-.158-.568-.505-.905.764-1.605 1.268-.7 5.844-.25 5.074-2.548a1.561 1.561 0 0 0-.168-.364c-.969-1.466-3.702 1.967-5.555 2.213-1.976.262-1.978-.647-1.676-1.137.303-.489 4.618-2.59 2.522-4.119-1.545-1.126-2.534 2.833-3.518 3.217-3.005 1.173-4.042-2.812-3.656-3.846.386-1.034 3.61-8.765-.654-8.828z" color="#000" font-weight="400" font-family="Andale Mono" overflow="visible" fill="#5beedc"/></svg>
