<svg xmlns="http://www.w3.org/2000/svg" width="48" height="48"><defs><linearGradient id="a"><stop offset="0" stop-color="#dc85e9"/><stop offset="1" stop-color="#f2cbf8"/></linearGradient><linearGradient id="b"><stop offset="0" stop-color="#dc85e9"/><stop offset="1" stop-color="#f2cbf8"/></linearGradient><linearGradient id="c"><stop offset="0" stop-color="#fff" stop-opacity=".588"/><stop offset="1" stop-color="#fff" stop-opacity=".863"/></linearGradient><linearGradient id="d"><stop offset="0" stop-color="#b3b3b3"/><stop offset="1" stop-color="#e6e6e6"/></linearGradient><linearGradient id="e"><stop offset="0" stop-color="#e694bb"/><stop offset=".262" stop-color="#d3819a"/><stop offset=".705" stop-color="#b25a64"/><stop offset="1" stop-color="#98313d"/></linearGradient></defs><path style="line-height:normal;text-indent:0;text-align:start;text-decoration-line:none;text-transform:none;marker:none" d="M29.705-.084c-2.047.008-4.121.088-4.517.098H7a2.938 2.938 0 0 0-.563 0C5.063.276 3.975 1.612 4 3.012V45c0 1.57 1.43 3 3 3h34c1.57 0 3-1.43 3-3V18.818c.018-.792.215-9.927-.336-10.496L34.054.248c-.284-.275-2.302-.34-4.349-.332zm1.49 3.094l.133 7.504c.012.681.638 1.29 1.317 1.279l7.771-.137c.133.018.268.017.4-.006l.082 3.03L41 18.77v26.227H7V3.021h18.672l5.523-.011zM19.04 6.95c-4.73 0-8.568 3.84-8.568 8.57a8.57 8.57 0 0 0 8.568 8.568c3.514 0 6.855-2.4 7.92-5.484h-3.795c-.913 1.2-2.6 2.056-4.125 2.056a5.142 5.142 0 0 1 0-10.283c1.829 0 3.553 1.303 4.465 2.742h3.392c-.316-3.085-4.085-6.17-7.857-6.17zM10.645 26.4a.603.603 0 0 0-.604.604v.83c0 .334.27.604.604.604h14.6c.333 0 .603-.27.603-.604v-.83a.603.603 0 0 0-.604-.604h-14.6zm0 4a.603.603 0 0 0-.604.604v.83c0 .334.27.604.604.604h18.029c.334 0 .601-.27.601-.604v-.83a.601.601 0 0 0-.601-.604h-18.03zm0 4a.603.603 0 0 0-.604.604v.83c0 .334.27.603.604.603h22.554c.334 0 .602-.27.602-.603v-.83a.601.601 0 0 0-.602-.604H10.645z" color="#000" font-weight="400" font-family="Andale Mono" overflow="visible" fill="#5beedc"/></svg>
