<?xml version="1.0" encoding="UTF-8" standalone="no"?>
<svg
   xmlns:dc="http://purl.org/dc/elements/1.1/"
   xmlns:cc="http://creativecommons.org/ns#"
   xmlns:rdf="http://www.w3.org/1999/02/22-rdf-syntax-ns#"
   xmlns:svg="http://www.w3.org/2000/svg"
   xmlns="http://www.w3.org/2000/svg"
   xmlns:sodipodi="http://sodipodi.sourceforge.net/DTD/sodipodi-0.dtd"
   xmlns:inkscape="http://www.inkscape.org/namespaces/inkscape"
   width="48"
   height="48"
   version="1.1"
   id="svg35"
   sodipodi:docname="text-x-apport.svg"
   inkscape:version="0.92.4 (5da689c313, 2019-01-14)">
  <metadata
     id="metadata39">
    <rdf:RDF>
      <cc:Work
         rdf:about="">
        <dc:format>image/svg+xml</dc:format>
        <dc:type
           rdf:resource="http://purl.org/dc/dcmitype/StillImage" />
        <dc:title></dc:title>
      </cc:Work>
    </rdf:RDF>
  </metadata>
  <sodipodi:namedview
     pagecolor="#ffffff"
     bordercolor="#666666"
     borderopacity="1"
     objecttolerance="10"
     gridtolerance="10"
     guidetolerance="10"
     inkscape:pageopacity="0"
     inkscape:pageshadow="2"
     inkscape:window-width="1087"
     inkscape:window-height="480"
     id="namedview37"
     showgrid="false"
     inkscape:zoom="4.9166667"
     inkscape:cx="2.1355932"
     inkscape:cy="24"
     inkscape:window-x="0"
     inkscape:window-y="25"
     inkscape:window-maximized="0"
     inkscape:current-layer="svg35" />
  <defs
     id="defs31">
    <linearGradient
       id="a">
      <stop
         offset="0"
         stop-color="#dc85e9"
         id="stop2" />
      <stop
         offset="1"
         stop-color="#f2cbf8"
         id="stop4" />
    </linearGradient>
    <linearGradient
       id="b">
      <stop
         offset="0"
         stop-color="#dc85e9"
         id="stop7" />
      <stop
         offset="1"
         stop-color="#f2cbf8"
         id="stop9" />
    </linearGradient>
    <linearGradient
       id="c">
      <stop
         offset="0"
         stop-color="#fff"
         stop-opacity=".588"
         id="stop12" />
      <stop
         offset="1"
         stop-color="#fff"
         stop-opacity=".863"
         id="stop14" />
    </linearGradient>
    <linearGradient
       id="d">
      <stop
         offset="0"
         stop-color="#b3b3b3"
         id="stop17" />
      <stop
         offset="1"
         stop-color="#e6e6e6"
         id="stop19" />
    </linearGradient>
    <linearGradient
       id="e">
      <stop
         offset="0"
         stop-color="#e694bb"
         id="stop22" />
      <stop
         offset=".262"
         stop-color="#d3819a"
         id="stop24" />
      <stop
         offset=".705"
         stop-color="#b25a64"
         id="stop26" />
      <stop
         offset="1"
         stop-color="#98313d"
         id="stop28" />
    </linearGradient>
  </defs>
  <path
     style="color:#000000;font-weight:400;line-height:normal;font-family:'Andale Mono';text-indent:0;text-align:start;text-decoration:none;text-decoration-line:none;text-transform:none;overflow:visible;fill:#5beedc;marker:none"
     d="m 29.705,-0.084 c -2.047,0.008 -4.121,0.088 -4.517,0.098 H 7 a 2.938,2.938 0 0 0 -0.563,0 C 5.063,0.276 3.975,1.612 4,3.012 V 45 c 0,1.57 1.43,3 3,3 h 34 c 1.57,0 3,-1.43 3,-3 V 18.818 C 44.018,18.026 44.215,8.891 43.664,8.322 l -9.61,-8.074 c -0.284,-0.275 -2.302,-0.34 -4.349,-0.332 z m 1.49,3.094 0.133,7.504 c 0.012,0.681 0.638,1.29 1.317,1.279 l 7.771,-0.137 c 0.133,0.018 0.268,0.017 0.4,-0.006 L 40.898,14.68 41,18.77 V 44.997 H 7 V 3.021 h 18.672 z m -7.976,0.976 c -4.264,-0.062 -0.64,8.843 -0.862,8.795 -0.22,-0.048 0.244,2.632 -0.267,2.631 -0.511,0 -1.514,0.29 -2.608,-0.639 -1.093,-0.928 -0.372,-4.134 -2.748,-3.287 -2.375,0.847 1.35,3.097 2.016,3.844 0.666,0.747 0.266,0.948 0.066,1.356 -0.144,0.295 -0.607,0.442 -0.806,0.57 -0.2,0.127 -1.425,0.777 -1.82,0.398 -1.949,-1.863 -4.713,-5.02 -6.044,-2.357 -1.33,2.664 5.212,2.565 6.268,3.51 1.056,0.944 0.788,1.867 0.785,2.377 -0.003,0.51 -0.1,1.227 -1.867,1.939 -1.766,0.712 -8.548,0.21 -6.65,2.91 1.897,2.7 6.213,-1.569 7.027,-1.392 0.814,0.176 2.15,0.998 2.506,2.148 0.356,1.15 -2.23,2.86 -1.383,3.127 1.32,0.416 1.75,-2.624 2.441,-2.56 0.692,0.063 1.588,-0.149 2.266,0.425 2.382,2.016 -1.95,8.956 1.518,8.696 3.468,-0.26 0.528,-6.443 1.224,-7.282 0.697,-0.838 0.646,-1.488 1.157,-1.488 0.51,0 0.048,0.54 0.863,0.717 0.814,0.176 0.049,5.552 2.355,4.773 2.307,-0.778 -1.817,-5.68 -1.416,-5.937 0.401,-0.257 1.436,0.166 1.809,-0.188 0.553,-0.524 0.476,-1.24 0.898,-0.924 0.422,0.316 1.48,4.674 2.885,3.618 1.523,-1.145 -1.356,-2.556 -2.242,-3.827 -0.426,-0.61 0.294,-1.244 0.402,-1.302 0.613,-0.329 0.923,0.29 1.313,-0.07 0.497,-0.46 -0.383,-0.97 0.14,-1.167 1.312,-0.494 3.8,1.973 4.2,0.065 0.399,-1.908 -2.948,-0.913 -4.473,-1.092 -1.084,-0.127 -1.863,-0.568 -2.086,-1.37 -0.158,-0.568 -0.505,-0.905 0.764,-1.605 1.268,-0.7 5.844,-0.25 5.074,-2.548 a 1.561,1.561 0 0 0 -0.168,-0.364 c -0.969,-1.466 -3.702,1.967 -5.555,2.213 -1.976,0.262 -1.978,-0.647 -1.676,-1.137 0.303,-0.489 4.618,-2.59 2.522,-4.119 -1.545,-1.126 -2.534,2.833 -3.518,3.217 -3.005,1.173 -4.042,-2.812 -3.656,-3.846 0.386,-1.034 3.61,-8.765 -0.654,-8.828 z"
     font-weight="400"
     overflow="visible"
     id="path33"
     inkscape:connector-curvature="0" />
</svg>
