<?xml version="1.0" encoding="UTF-8" standalone="no"?>
<svg
   xmlns:dc="http://purl.org/dc/elements/1.1/"
   xmlns:cc="http://creativecommons.org/ns#"
   xmlns:rdf="http://www.w3.org/1999/02/22-rdf-syntax-ns#"
   xmlns:svg="http://www.w3.org/2000/svg"
   xmlns="http://www.w3.org/2000/svg"
   xmlns:sodipodi="http://sodipodi.sourceforge.net/DTD/sodipodi-0.dtd"
   xmlns:inkscape="http://www.inkscape.org/namespaces/inkscape"
   width="48"
   height="48"
   version="1.1"
   id="svg4"
   sodipodi:docname="x-office-presentation.svg"
   inkscape:version="0.92.4 (5da689c313, 2019-01-14)">
  <metadata
     id="metadata10">
    <rdf:RDF>
      <cc:Work
         rdf:about="">
        <dc:format>image/svg+xml</dc:format>
        <dc:type
           rdf:resource="http://purl.org/dc/dcmitype/StillImage" />
        <dc:title></dc:title>
      </cc:Work>
    </rdf:RDF>
  </metadata>
  <defs
     id="defs8" />
  <sodipodi:namedview
     pagecolor="#ffffff"
     bordercolor="#666666"
     borderopacity="1"
     objecttolerance="10"
     gridtolerance="10"
     guidetolerance="10"
     inkscape:pageopacity="0"
     inkscape:pageshadow="2"
     inkscape:window-width="1087"
     inkscape:window-height="480"
     id="namedview6"
     showgrid="false"
     inkscape:zoom="4.9166667"
     inkscape:cx="2.1355932"
     inkscape:cy="24"
     inkscape:window-x="0"
     inkscape:window-y="25"
     inkscape:window-maximized="0"
     inkscape:current-layer="svg4" />
  <path
     style="line-height:normal;text-indent:0;text-align:start;text-decoration:none;text-decoration-line:none;text-transform:none;fill:#5beedc;marker:none"
     d="m 29.7,-0.08 c -2.04,0 -4.12,0.08 -4.51,0.1 H 7 a 2.94,2.94 0 0 0 -0.56,0 3.1,3.1 0 0 0 -2.44,3 V 45 c 0,1.57 1.43,3 3,3 h 34 c 1.57,0 3,-1.43 3,-3 V 18.82 c 0.02,-0.8 0.22,-9.93 -0.34,-10.5 l -9.6,-8.07 c -0.29,-0.28 -2.3,-0.34 -4.35,-0.33 z m 1.5,3.08 0.13,7.5 c 0.01,0.68 0.64,1.3 1.31,1.28 l 7.78,-0.13 c 0.13,0.01 0.26,0.01 0.4,-0.01 l 0.08,3.03 0.1,4.09 V 45 H 7 V 3.02 H 25.67 L 31.2,3.01 Z M 11.42,16.82 a 0.6,0.6 0 0 0 -0.6,0.6 V 33.6 a 2.4,2.4 0 0 0 2.4,2.4 h 6.96 l -2.14,6.4 a 0.6,0.6 0 0 0 0.57,0.79 0.6,0.6 0 0 0 0.57,-0.41 L 21.44,36 h 1.96 v 6.59 c 0,0.33 0.27,0.6 0.6,0.6 a 0.6,0.6 0 0 0 0.6,-0.6 V 36 h 1.96 l 2.26,6.78 A 0.60083276,0.60083276 0 0 0 29.96,42.4 L 27.83,36 h 6.95 a 2.4,2.4 0 0 0 2.4,-2.4 V 17.42 a 0.6,0.6 0 0 0 -0.6,-0.6 z m 1.8,2.4 H 34.78 V 33.6 H 13.22 Z m 5.32,1.69 a 3.64,3.64 0 1 0 3.64,3.63 h -3.64 z m 6.37,0 v 1.81 h 8.18 v -1.81 z m 0,4.54 v 1.82 h 8.18 V 25.45 Z M 14.9,30 v 1.81 H 33.08 V 30 H 14.91 Z"
     id="path2"
     inkscape:connector-curvature="0" />
</svg>
