<svg xmlns="http://www.w3.org/2000/svg" width="24" height="24" version="1"><path d="M12 .16A11.84 11.84 0 0 0 .16 12 11.84 11.84 0 0 0 12 23.84 11.84 11.84 0 0 0 23.84 12 11.84 11.84 0 0 0 12 .16zm-.03 1.76A10.18 10.18 0 0 1 22.15 12.1a10.18 10.18 0 0 1-10.18 10.18A10.18 10.18 0 0 1 1.78 12.1 10.18 10.18 0 0 1 11.97 1.92zm.03 1.3A8.82 8.78 0 0 0 3.18 12 8.82 8.78 0 0 0 12 20.78 8.82 8.78 0 0 0 20.82 12 8.82 8.78 0 0 0 12 3.22zm1.02 2.98c.43-.01.8.33.86.75.2.8-.66 1.61-1.44 1.29-.97-.45-.44-2.09.58-2.04zm-.44 3.62c.5.04.74.72.49 1.29-.37 1.65-.95 3.25-1.26 4.91.15.66.96-.14 1.33-.3.28-.33.35.03.46.28-.76.53-1.5 1.1-2.35 1.45-.8.55-1.57-.21-1.23-1.06.32-1.54.75-3.06 1.1-4.6.1-.82-.99.02-1.31.22-.26.33-.39.09-.5-.21.88-.64 1.71-1.35 2.7-1.78.22-.16.4-.22.57-.2z" fill="#1a1a1a"/></svg>