<svg xmlns="http://www.w3.org/2000/svg" width="24" height="24" version="1"><path d="M12 1.16A10.84 10.84 0 0 0 1.16 12 10.84 10.84 0 0 0 12 22.84 10.84 10.84 0 0 0 22.84 12 10.84 10.84 0 0 0 12 1.16zm-.03 1.6a9.32 9.32 0 0 1 9.32 9.33 9.32 9.32 0 0 1-9.32 9.33 9.32 9.32 0 0 1-9.32-9.33 9.32 9.32 0 0 1 9.32-9.32zm-5.2 7.15A2.1 2.1 0 0 0 4.67 12a2.1 2.1 0 0 0 2.1 2.1A2.1 2.1 0 0 0 8.86 12a2.1 2.1 0 0 0-2.1-2.1zm5.23 0A2.1 2.1 0 0 0 9.9 12a2.1 2.1 0 0 0 2.1 2.1 2.1 2.1 0 0 0 2.1-2.1A2.1 2.1 0 0 0 12 9.9zm5.23 0A2.1 2.1 0 0 0 15.14 12a2.1 2.1 0 0 0 2.1 2.1 2.1 2.1 0 0 0 2.09-2.1 2.1 2.1 0 0 0-2.1-2.1z" fill="#1a1a1a"/></svg>