<svg xmlns="http://www.w3.org/2000/svg" width="24" height="24" version="1"><path d="M12 .16A11.84 11.84 0 0 0 .16 12 11.84 11.84 0 0 0 12 23.84 11.84 11.84 0 0 0 23.84 12 11.84 11.84 0 0 0 12 .16zm-.54 1.78L8.9 4.5H5.2a10.18 10.18 0 0 1 6.26-2.56zm1.19.01a10.18 10.18 0 0 1 6.08 2.55H15.2l-2.55-2.55zm-8.21 3.3v3.7L1.8 11.6a10.18 10.18 0 0 1 2.63-6.33zm15.12.08a10.18 10.18 0 0 1 2.56 6.1l-2.56-2.56V5.33zM9.5 7.55h4.9v4.53h3.86l-6.3 6.29-6.3-6.3H9.5V7.56zm12.62 4.92a10.18 10.18 0 0 1-2.57 6.4v-3.83l2.57-2.57zm-20.33.02l2.64 2.64v3.82a10.18 10.18 0 0 1-2.64-6.46zm3.18 7H8.8l2.77 2.78a10.18 10.18 0 0 1-6.6-2.78zm10.12 0h3.86a10.18 10.18 0 0 1-6.63 2.78l2.77-2.78z" fill="#1a1a1a"/></svg>