<svg xmlns="http://www.w3.org/2000/svg" width="24" height="24" viewBox="0 0 6.35 6.35"><path d="M3.384.675a.233.242 0 0 0-.233.242.233.242 0 0 0 .233.242.233.242 0 0 0 .233-.242.233.242 0 0 0-.233-.242zM2.57.801a.116.125 0 0 0-.117.126.116.125 0 0 0 .117.125.116.125 0 0 0 .116-.125A.116.125 0 0 0 2.57.8zm-.2.449a.261.261 0 0 0-.126.489l.128.07v.702c-.034.053-.065.1-.114.186-.072.123-.159.277-.253.446a134.362 134.362 0 0 0-.576 1.043.833.833 0 0 0 .079.918c.176.235.454.297.684.297h1.92c.23 0 .507-.062.683-.298a.832.832 0 0 0 .078-.917c-.304-.619-.647-1.102-.93-1.67V1.81l.128-.072a.261.261 0 0 0-.128-.49H2.371zm.524.522h.526v.811a.261.261 0 0 0 .027.115c.314.642.672 1.134.962 1.728a.261.261 0 0 0 .005.01c.063.115.067.231-.026.344a.261.261 0 0 0-.009.011c-.038.052-.127.088-.268.088H2.19c-.14 0-.23-.036-.268-.088a.261.261 0 0 0-.008-.011c-.093-.113-.09-.229-.027-.344a133.796 133.796 0 0 1 .572-1.038 33.498 33.498 0 0 1 .249-.44 4.69 4.69 0 0 1 .135-.22.261.261 0 0 0 .05-.155v-.811zm.168 1.23a.197.197 0 0 0-.197.198.197.197 0 0 0 .197.197.197.197 0 0 0 .197-.197.197.197 0 0 0-.197-.197zm.554.571h-.93l-.58 1.045h2.09l-.58-1.045z" fill="gray"/></svg>