<?xml version="1.0" encoding="UTF-8" standalone="no"?>
<!-- Created with Inkscape (http://www.inkscape.org/) -->

<svg
   xmlns:dc="http://purl.org/dc/elements/1.1/"
   xmlns:cc="http://creativecommons.org/ns#"
   xmlns:rdf="http://www.w3.org/1999/02/22-rdf-syntax-ns#"
   xmlns:svg="http://www.w3.org/2000/svg"
   xmlns="http://www.w3.org/2000/svg"
   xmlns:sodipodi="http://sodipodi.sourceforge.net/DTD/sodipodi-0.dtd"
   xmlns:inkscape="http://www.inkscape.org/namespaces/inkscape"
   width="24"
   height="24"
   viewBox="0 0 6.35 6.35"
   version="1.1"
   id="svg829"
   inkscape:version="0.92.3 (2405546, 2018-03-11)"
   sodipodi:docname="applications-internet-symbolic.svg">
  <defs
     id="defs823" />
  <sodipodi:namedview
     id="base"
     pagecolor="#ffffff"
     bordercolor="#666666"
     borderopacity="1.0"
     inkscape:pageopacity="0.0"
     inkscape:pageshadow="2"
     inkscape:zoom="18.375"
     inkscape:cx="12"
     inkscape:cy="12"
     inkscape:document-units="mm"
     inkscape:current-layer="layer1"
     showgrid="false"
     showguides="true"
     inkscape:guide-bbox="true"
     inkscape:window-width="1366"
     inkscape:window-height="719"
     inkscape:window-x="0"
     inkscape:window-y="25"
     inkscape:window-maximized="1"
     scale-x="1.9"
     units="px"
     inkscape:snap-global="false" />
  <metadata
     id="metadata826">
    <rdf:RDF>
      <cc:Work
         rdf:about="">
        <dc:format>image/svg+xml</dc:format>
        <dc:type
           rdf:resource="http://purl.org/dc/dcmitype/StillImage" />
        <dc:title></dc:title>
      </cc:Work>
    </rdf:RDF>
  </metadata>
  <g
     inkscape:label="Capa 1"
     inkscape:groupmode="layer"
     id="layer1"
     transform="translate(0,-290.65)">
    <path
       inkscape:connector-curvature="0"
       style="color:#000000;font-style:normal;font-variant:normal;font-weight:normal;font-stretch:normal;font-size:medium;line-height:normal;font-family:'Andale Mono';text-indent:0pt;text-align:start;text-decoration:none;text-decoration-line:none;letter-spacing:normal;word-spacing:normal;text-transform:none;direction:ltr;text-anchor:start;display:inline;overflow:visible;visibility:visible;fill:#808080;fill-opacity:1;stroke:none;stroke-width:1.61456954;marker:none"
       d="m 3.0404313,291.80593 v 0.004 c -1.0077032,0.0661 -1.8136433,0.87163 -1.8798553,1.87935 h -0.0042 v 0.13454 0.13458 h 0.0042 c 0.066212,1.00774 0.8721514,1.81311 1.8798553,1.87933 v 0.004 h 0.1345759 0.1345755 v -0.004 c 1.0077032,-0.0661 1.8125926,-0.87159 1.8788038,-1.87933 h 0.00523 v -0.13458 -0.13454 h -0.00523 c -0.066211,-1.0077 -0.8711006,-1.81313 -1.8788038,-1.87935 v -0.004 H 3.1750072 Z m 0,0.28649 v 0.7901 H 2.3806945 c 0.1445346,-0.41908 0.3830491,-0.71636 0.6597368,-0.7901 z m 0.2691514,0 c 0.2764185,0.0737 0.5146768,0.37102 0.6592113,0.7901 H 3.3095827 Z m -0.8894616,0.1535 c -0.1300004,0.17279 -0.2383963,0.38952 -0.3169889,0.6366 H 1.6999305 c 0.1754868,-0.27373 0.4252007,-0.4953 0.7201906,-0.6366 z m 1.509772,0 c 0.2947209,0.1413 0.5441777,0.36287 0.7196647,0.6366 H 4.2468823 c -0.078862,-0.24708 -0.1864511,-0.46381 -0.3169892,-0.6366 z m -2.370321,0.90577 H 2.03269 c -0.036066,0.17008 -0.058972,0.3507 -0.066236,0.53829 H 1.4302542 c 0.014264,-0.18948 0.059338,-0.37063 0.1293179,-0.53829 z m 0.7454237,0 h 0.7354355 v 0.53829 h -0.804826 c 0.00782,-0.18948 0.031443,-0.37063 0.06939,-0.53829 z m 1.0045869,0 h 0.7343844 c 0.038221,0.16766 0.062096,0.34881 0.070442,0.53829 H 3.3095827 Z m 1.0077413,0 h 0.4731177 c 0.06998,0.16766 0.1145282,0.34881 0.128793,0.53829 H 4.3835605 c -0.00726,-0.18759 -0.03017,-0.36821 -0.066236,-0.53829 z m -2.8870705,0.80744 h 0.5361998 c 0.00726,0.18759 0.030171,0.3682 0.066237,0.53831 H 1.5595719 c -0.069981,-0.16769 -0.1150538,-0.34883 -0.1293184,-0.53831 z m 0.8053518,0 h 0.804826 v 0.53831 H 2.3049958 c -0.037952,-0.16769 -0.061586,-0.34883 -0.06939,-0.53831 z m 1.0739774,0 h 0.804826 c -0.00781,0.18948 -0.032223,0.37062 -0.070442,0.53831 h -0.734384 z m 1.0739778,0 h 0.5351486 c -0.013996,0.18948 -0.058285,0.37062 -0.1282674,0.53831 H 4.317324 c 0.036067,-0.17011 0.058972,-0.35072 0.066236,-0.53831 z m -2.68363,0.80746 h 0.4032017 c 0.078593,0.24707 0.1867199,0.46381 0.3169889,0.63661 -0.2949899,-0.14131 -0.5447038,-0.36262 -0.7201906,-0.63661 z m 0.680764,0 h 0.6597368 v 0.79011 c -0.2766877,-0.0741 -0.5152022,-0.37105 -0.6597368,-0.79011 z m 0.9288882,0 H 3.968794 c -0.1445345,0.41906 -0.3827928,0.71608 -0.6592113,0.79011 z m 0.9372988,0 h 0.4026763 c -0.175487,0.27399 -0.4249438,0.4953 -0.7196647,0.63661 0.1299996,-0.17308 0.2381268,-0.38954 0.3169884,-0.63661 z"
       id="path75" />
  </g>
</svg>
