<?xml version="1.0" encoding="UTF-8" standalone="no"?>
<!-- Created with Inkscape (http://www.inkscape.org/) -->

<svg
   xmlns:dc="http://purl.org/dc/elements/1.1/"
   xmlns:cc="http://creativecommons.org/ns#"
   xmlns:rdf="http://www.w3.org/1999/02/22-rdf-syntax-ns#"
   xmlns:svg="http://www.w3.org/2000/svg"
   xmlns="http://www.w3.org/2000/svg"
   xmlns:sodipodi="http://sodipodi.sourceforge.net/DTD/sodipodi-0.dtd"
   xmlns:inkscape="http://www.inkscape.org/namespaces/inkscape"
   width="24"
   height="24"
   viewBox="0 0 6.35 6.35"
   version="1.1"
   id="svg829"
   inkscape:version="0.92.3 (2405546, 2018-03-11)"
   sodipodi:docname="applications-other-symbolic.svg">
  <defs
     id="defs823" />
  <sodipodi:namedview
     id="base"
     pagecolor="#ffffff"
     bordercolor="#666666"
     borderopacity="1.0"
     inkscape:pageopacity="0.0"
     inkscape:pageshadow="2"
     inkscape:zoom="18.375"
     inkscape:cx="12"
     inkscape:cy="12"
     inkscape:document-units="mm"
     inkscape:current-layer="layer1"
     showgrid="false"
     showguides="true"
     inkscape:guide-bbox="true"
     inkscape:window-width="1366"
     inkscape:window-height="719"
     inkscape:window-x="0"
     inkscape:window-y="25"
     inkscape:window-maximized="1"
     scale-x="1.9"
     units="px"
     inkscape:snap-global="false" />
  <metadata
     id="metadata826">
    <rdf:RDF>
      <cc:Work
         rdf:about="">
        <dc:format>image/svg+xml</dc:format>
        <dc:type
           rdf:resource="http://purl.org/dc/dcmitype/StillImage" />
        <dc:title></dc:title>
      </cc:Work>
    </rdf:RDF>
  </metadata>
  <g
     inkscape:label="Capa 1"
     inkscape:groupmode="layer"
     id="layer1"
     transform="translate(0,-290.65)">
    <path
       style="fill:#808080;fill-opacity:1;stroke-width:0.26004964"
       d="M 11.890625 3.875 L 10.201172 8.5683594 L 9.25 4.984375 C 9.1689216 4.6767215 8.4494842 4.6057876 7.6425781 4.8261719 C 6.8356728 5.0465183 6.2470394 5.4735965 6.328125 5.78125 C 6.4916803 6.4018106 6.8630859 7.8177772 7.1582031 8.9375 L 7.0410156 8.9375 C 6.4784545 8.9375 6.3777958 8.8627819 6.2207031 9.2207031 L 5.2402344 11.496094 L 5.2402344 18.798828 C 5.2402344 19.240542 5.2049985 19.171875 5.7675781 19.171875 L 18.107422 19.171875 C 18.670021 19.171875 18.636719 19.241033 18.636719 18.798828 L 18.636719 11.496094 L 18.457031 11.080078 L 18.457031 10.310547 L 18.125 10.310547 L 17.65625 9.2207031 C 17.638222 9.1791283 17.618292 9.1466045 17.597656 9.1152344 L 17.84375 8.8691406 C 17.833772 8.8842587 17.833772 8.8438767 17.84375 8.8476562 L 16.755859 7.7617188 C 16.767652 7.7768369 16.722432 7.7768369 16.734375 7.7617188 L 15.910156 8.5839844 L 15.742188 8.5019531 C 15.64336 8.455087 15.552715 8.410781 15.470703 8.3828125 L 15.296875 8.3183594 L 15.296875 7.1464844 L 13.714844 7.1484375 L 13.714844 8.3203125 L 13.541016 8.3828125 C 13.459979 8.4092692 13.366394 8.4555283 13.267578 8.5039062 L 13.101562 8.5859375 L 12.685547 8.171875 L 13.980469 4.640625 L 13.982422 4.6386719 L 11.890625 3.875 z M 11.646484 5.1875 L 12.482422 5.4941406 L 12.347656 5.8574219 L 11.511719 5.5527344 L 11.646484 5.1875 z M 11.257812 6.2460938 L 12.09375 6.5527344 L 11.958984 6.9179688 L 11.125 6.6113281 L 11.257812 6.2460938 z M 10.869141 7.3046875 L 11.705078 7.6132812 L 11.572266 7.9765625 L 10.736328 7.6699219 L 10.869141 7.3046875 z M 10.480469 8.3632812 L 11.316406 8.6699219 L 11.296875 8.7265625 L 11.167969 8.8535156 C 11.178854 8.8308385 11.178854 8.8787795 11.167969 8.875 L 11.222656 8.9296875 L 11.21875 8.953125 L 10.917969 8.953125 L 10.347656 8.7421875 L 10.480469 8.3632812 z M 7.1582031 9.3085938 L 7.2558594 9.3085938 C 7.4828578 10.169835 7.6409699 10.769059 7.8789062 11.671875 L 6.0898438 11.671875 L 6.7441406 9.6152344 C 6.7939472 9.4750139 6.8486222 9.4039123 6.8925781 9.3691406 C 6.9365378 9.3389044 6.9916242 9.3085938 7.1582031 9.3085938 z M 10.462891 9.5605469 L 10.927734 9.7304688 L 10.794922 10.09375 L 10.583984 10.015625 L 10.462891 9.5605469 z M 14.505859 9.7871094 C 15.23019 9.7871094 15.822266 10.38019 15.822266 11.103516 C 15.822266 11.308366 15.769762 11.498659 15.685547 11.671875 L 13.324219 11.671875 C 13.239848 11.499151 13.1875 11.307912 13.1875 11.103516 C 13.1875 10.379245 13.781523 9.7871094 14.505859 9.7871094 z "
       transform="matrix(0.26458333,0,0,0.26458333,0,290.65)"
       id="path845" />
  </g>
</svg>
