<svg xmlns="http://www.w3.org/2000/svg" width="24" height="24" viewBox="0 0 6.35 6.35"><g transform="rotate(44.765 352.687 147.075) scale(.99039)" fill="gray"><path d="M1.944 292.838a.422.422 0 0 0-.058.001l.773.787.923.183c1.658.33 1.88-.056 1.88-.056s-.08-.237-.935-.407l-2.524-.5a.398.398 0 0 0-.06-.007zm2.433.641l.626.124c-.034.128-.477.044-.626-.124z" opacity=".8"/><path d="M3.413 291.348c-.145-.015-.47.198-.626.354l-.97.97a.45.45 0 0 0-.054.064l.632.631a.46.46 0 0 0 .063-.053l.44-.44c.209-.209.354-.39.453-.552l-.091-.092-.23.23a.133.133 0 0 1-.189 0l-.033-.032a.133.133 0 0 1 0-.188l.353-.353a.113.113 0 0 1 .16 0l.162.163c.085-.25.075-.586-.02-.681a.08.08 0 0 0-.05-.021zm-.294.234c.088.1-.214.416-.437.447zM2.602 295.365l-.238-.07c-.691-.206-.828-.024-.828-.024s.123.369.926.608l.82.243a.352.352 0 0 0 .078.015"/><rect transform="rotate(-45)" x="-206.828" y="207.95" width=".937" height="4.4" rx=".448" ry=".448"/></g></svg>