<?xml version="1.0" encoding="UTF-8" standalone="no"?>
<!-- Created with Inkscape (http://www.inkscape.org/) -->

<svg
   xmlns:dc="http://purl.org/dc/elements/1.1/"
   xmlns:cc="http://creativecommons.org/ns#"
   xmlns:rdf="http://www.w3.org/1999/02/22-rdf-syntax-ns#"
   xmlns:svg="http://www.w3.org/2000/svg"
   xmlns="http://www.w3.org/2000/svg"
   xmlns:sodipodi="http://sodipodi.sourceforge.net/DTD/sodipodi-0.dtd"
   xmlns:inkscape="http://www.inkscape.org/namespaces/inkscape"
   width="24"
   height="24"
   viewBox="0 0 6.35 6.35"
   version="1.1"
   id="svg829"
   inkscape:version="0.92.3 (2405546, 2018-03-11)"
   sodipodi:docname="applications-office-symbolic.svg">
  <defs
     id="defs823" />
  <sodipodi:namedview
     id="base"
     pagecolor="#ffffff"
     bordercolor="#666666"
     borderopacity="1.0"
     inkscape:pageopacity="0.0"
     inkscape:pageshadow="2"
     inkscape:zoom="5.5416668"
     inkscape:cx="-4.398496"
     inkscape:cy="11.819549"
     inkscape:document-units="mm"
     inkscape:current-layer="layer1"
     showgrid="false"
     showguides="true"
     inkscape:guide-bbox="true"
     inkscape:window-width="1366"
     inkscape:window-height="719"
     inkscape:window-x="0"
     inkscape:window-y="25"
     inkscape:window-maximized="1"
     scale-x="1.9"
     units="px"
     inkscape:snap-global="true" />
  <metadata
     id="metadata826">
    <rdf:RDF>
      <cc:Work
         rdf:about="">
        <dc:format>image/svg+xml</dc:format>
        <dc:type
           rdf:resource="http://purl.org/dc/dcmitype/StillImage" />
        <dc:title></dc:title>
      </cc:Work>
    </rdf:RDF>
  </metadata>
  <g
     inkscape:label="Capa 1"
     inkscape:groupmode="layer"
     id="layer1"
     transform="translate(0,-290.65)">
    <path
       style="fill:#808080;fill-opacity:1;stroke-width:0.07748747"
       d="m 4.7991939,291.64019 c -0.054304,0 -0.108843,0.0205 -0.1500512,0.0615 l -0.3200311,0.31945 0.6998483,0.69809 0.3194452,-0.31828 c 0.082692,-0.0827 0.082692,-0.21719 0,-0.29951 l -0.39916,-0.39916 c -0.041301,-0.0415 -0.095839,-0.0616 -0.1500512,-0.0616 z m -0.6195475,0.53045 -1.9272205,1.92371 0.6992621,0.69867 1.9272206,-1.9237 z m -2.9441693,0.20281 c -0.1629116,0 -0.29599956,0.1331 -0.29599959,0.296 v 2.96058 c 0,0.16285 0.13308799,0.29658 0.29599959,0.29658 h 2.9617535 c 0.1627282,0 0.2959995,-0.13373 0.2959995,-0.29658 v -2.11655 l -0.4583597,0.45661 v 1.49875 H 1.3978372 v -2.63821 h 1.8609871 l 0.4589458,-0.45718 z m 0.8657253,1.87036 -0.1494651,0.84756 0.8493134,-0.14888 z"
       id="path856"
       inkscape:connector-curvature="0" />
  </g>
</svg>
