<svg xmlns="http://www.w3.org/2000/svg" width="48" height="48" viewBox="0 0 12.7 12.7"><path d="M6.344.073a6.29 6.29 0 0 0-6.29 6.29 6.29 6.29 0 0 0 6.29 6.288 6.29 6.29 0 0 0 6.29-6.289 6.29 6.29 0 0 0-6.29-6.29zm-.018.936a5.407 5.407 0 0 1 5.407 5.407 5.407 5.407 0 0 1-5.407 5.407A5.407 5.407 0 0 1 .92 6.416 5.407 5.407 0 0 1 6.326 1.01zm-.365.944c-.047 0-.094 0-.139.005a1.47 1.47 0 0 0-.735.295 1.215 1.215 0 0 0-.479.993v2.248h-1.34v-.001a.428.428 0 0 0-.428.429v3.857a.427.427 0 0 0 .429.428h3.268a.427.427 0 0 0 .428-.428V5.922a.427.427 0 0 0-.428-.428h-1.34V3.246a.61.61 0 0 1 .257-.534c.157-.12.392-.177.627-.165.235.01.462.09.626.239.164.149.277.345.277.663 0 1.276.862 2.068 1.768 2.045.504-.014.994-.282 1.325-.774l-.331-.59c-.222.54-.63.764-1.013.774-.566.014-1.16-.43-1.16-1.455 0-.467-.199-.85-.479-1.105a1.572 1.572 0 0 0-.995-.386 4.377 4.377 0 0 0-.138-.005zm3.95 1.183v.074l.46.81c.008-.024.013-.05.02-.074l-.48-.81zm0 .202c-.003.063-.011.127-.018.184l.424.72.036-.112-.441-.792zm-.037.295c-.007.053-.026.098-.036.148l.386.662c.018-.036.04-.073.056-.11l-.406-.7zm-.054.258c-.015.053-.04.1-.056.147l.35.608c.024-.038.052-.07.074-.11L9.82 3.89z" fill="#1a1a1a"/></svg>