<svg xmlns="http://www.w3.org/2000/svg" width="24" height="24"><path d="M18.73 4.02l-3.87 3.87a4.8 4.8 0 0 0-2.68-.82A4.8 4.8 0 0 0 8.77 8.5l.45.45-.4.4-.49-.5a4.8 4.8 0 0 0-1.39 3.39 4.8 4.8 0 0 0 .82 2.67L3.7 18.96l1.38 1.39 4.07-4.07a4.8 4.8 0 0 0 2.59.76 4.8 4.8 0 0 0 3.37-1.39l-.45-.45.4-.4.49.49a4.8 4.8 0 0 0 1.43-3.42 4.8 4.8 0 0 0-.76-2.58L20.1 5.4zm-8.48 5.95l.58.59-.4.4-.58-.59zm1.6 1.61l.59.58-.4.4-.58-.58zm1.61 1.6l.58.6-.4.4-.58-.6zm6.44.85a2.28 2.28 0 0 0-2.28 2.28v.9h-.45l-.91.01v5.47a.91.91 0 0 0 .9.9h5.48a.92.92 0 0 0 .9-.9l.07-5.45-.97-.02h-.46v-.91a2.28 2.28 0 0 0-2.28-2.28zm0 .86c.78 0 1.42.64 1.42 1.42v.9h-2.83v-.9c0-.78.63-1.42 1.41-1.42z" fill="#2ca02c"/></svg>
