<svg xmlns="http://www.w3.org/2000/svg" width="24" height="24"><path d="M12 .967a6 6 0 0 0-6 6 6 6 0 0 0 .004.129A4 4 0 0 0 3 10.966a4 4 0 0 0 4 4h9a5 5 0 0 0 5-5 5 5 0 0 0-3.242-4.675A6 6 0 0 0 12 .967zm0 1a5 5 0 0 1 4.92 4.111A4 4 0 0 1 20 9.967a4 4 0 0 1-4 4H7a3 3 0 0 1-3-3 3 3 0 0 1 3-3 3 3 0 0 1 .107.006A5 5 0 0 1 7 6.967a5 5 0 0 1 5-5zM5.418 16a.418.418 0 0 0-.418.418v2.164c0 .231.187.418.418.418h.164A.418.418 0 0 0 6 18.582v-2.164A.418.418 0 0 0 5.582 16h-.164zm4 0a.418.418 0 0 0-.418.418v2.164c0 .231.187.418.418.418h.164a.418.418 0 0 0 .418-.418v-2.164A.418.418 0 0 0 9.582 16h-.164zm4 0a.418.418 0 0 0-.418.418v2.164c0 .231.187.418.418.418h.164a.418.418 0 0 0 .418-.418v-2.164a.418.418 0 0 0-.418-.418h-.164zm4 0a.418.418 0 0 0-.418.418v2.164c0 .231.187.418.418.418h.164a.418.418 0 0 0 .418-.418v-2.164a.418.418 0 0 0-.418-.418h-.164zm-10 4a.418.418 0 0 0-.418.418v2.164c0 .231.187.418.418.418h.164A.418.418 0 0 0 8 22.582v-2.164A.418.418 0 0 0 7.582 20h-.164zm4 0a.418.418 0 0 0-.418.418v2.164c0 .231.187.418.418.418h.164a.418.418 0 0 0 .418-.418v-2.164a.418.418 0 0 0-.418-.418h-.164zm4 0a.418.418 0 0 0-.418.418v2.164c0 .231.187.418.418.418h.164a.418.418 0 0 0 .418-.418v-2.164a.418.418 0 0 0-.418-.418h-.164z" fill="#2ca02c"/></svg>
