<svg xmlns="http://www.w3.org/2000/svg" height="24" width="24"><path d="M16.28 17.58a1 1 0 0 1 0 1.41l-1.15 1.15a1 1 0 0 1-1.42 0 1 1 0 0 1 0-1.41l1.16-1.15a1 1 0 0 1 1.41 0zm-1.74-3.53a1 1 0 0 0-.71.3l-2.28 2.27a1 1 0 0 0 0 1.42 1 1 0 0 0 1.41 0l2.28-2.28a1 1 0 0 0 0-1.42 1 1 0 0 0-.7-.3zm-1.58-2.7a1 1 0 0 0-.71.3l-2.83 2.83a1 1 0 0 0 0 1.41 1 1 0 0 0 1.42 0l2.83-2.83a1 1 0 0 0 0-1.41 1 1 0 0 0-.71-.3zm8.13-.63l-6.07-6.08a3.68 3.68 0 0 0-2.63-1.08c-.99 0-1.92.39-2.62 1.08L5.7 8.71c-.23.24-.36.55-.36.89a1.25 1.25 0 0 0 1.26 1.25c.33 0 .65-.12.88-.36l2.1-2.1c.2-.2.53-.2.72 0l.1.1a.51.51 0 0 1 0 .72l-7.9 7.9a1 1 0 0 0-.3.72 1 1 0 0 0 1.02 1.02c.27 0 .53-.1.72-.3L8.5 14l.21-.25 2.83-2.82a2 2 0 0 1 2.86 0 2 2 0 0 1 .46 2.12 2 2 0 0 1 1.7 2 2 2 0 0 1-.45 1.28 2 2 0 0 1 1.42 1.42l3.57-3.57c.46-.46.71-1.07.71-1.73 0-.66-.25-1.27-.71-1.73z" fill="#e6e6e6"/></svg>