<?xml version="1.0" encoding="UTF-8" standalone="no"?><svg xmlns:dc="http://purl.org/dc/elements/1.1/" xmlns:cc="http://creativecommons.org/ns#" xmlns:rdf="http://www.w3.org/1999/02/22-rdf-syntax-ns#" xmlns="http://www.w3.org/2000/svg" width="24" height="24" viewBox="0 0 6.35 6.35"><metadata><rdf:RDF><cc:Work><dc:format>image/svg+xml</dc:format><dc:type rdf:resource="http://purl.org/dc/dcmitype/StillImage"/><dc:title/></cc:Work></rdf:RDF></metadata><path d="M3.18.26A2.91 2.91 0 0 0 .26 3.18a2.91 2.91 0 0 0 2.92 2.9 2.91 2.91 0 0 0 2.9-2.9A2.91 2.91 0 0 0 3.19.25zM3.17.7A2.5 2.5 0 0 1 4.2.92H2.13A2.5 2.5 0 0 1 3.17.7zm-1.52.51v3.97A2.5 2.5 0 0 1 .67 3.2a2.5 2.5 0 0 1 .98-1.99zm3.07.03a2.5 2.5 0 0 1 .95 1.96 2.5 2.5 0 0 1-.95 1.96zm-2.9.26h2.72v3.38H1.82zm1.57.33l-.44.05V3.7l.44-.07v-.77l.59.86.46-.14-.6-.83.6-.79-.47-.1-.58.78zm-1.01.45h-.01l-.17.18a.02.02 0 0 0 0 .03l.2.34-.1.19-.37.08a.03.03 0 0 0-.01.02v.25l.01.02.37.09a.9.9 0 0 0 .09.23l-.21.31a.02.02 0 0 0 0 .03l.17.18h.03l.33-.2.21.09.08.37s0 .02.02.02h.25l.02-.02.09-.37c.07-.03.15-.05.21-.1l.33.22h.03l.17-.18a.02.02 0 0 0 0-.03L4 3.84l-.03.01h-.02l-.17-.26a.7.7 0 1 1-.93-.96v-.2l-.12.07-.34-.22zM2 5.42h2.32a2.5 2.5 0 0 1-1.16.28 2.5 2.5 0 0 1-1.16-.28z" fill="#2c89a0"/></svg>