<svg xmlns="http://www.w3.org/2000/svg" width="24" height="24"><g fill="#2c89a0"><path d="M7.502 4.12s-.797-.016-1.627.399c-.832.416-1.748 1.476-1.748 2.976v10.124H3.002l-.004 2.25h.004l3.375.011v-.01h14.625v-2.25h-1.125V7.494s.016-.798-.4-1.628c-.416-.832-1.475-1.747-2.975-1.747zm0 2.25h9c.75 0 .816.209.962.502.147.295.163.623.163.623v10.124H6.377V7.495c0-.75.21-.816.503-.962.295-.148.622-.163.622-.163z" font-family="sans-serif" font-weight="400" overflow="visible" style="font-variant-ligatures:normal;font-variant-position:normal;font-variant-caps:normal;font-variant-numeric:normal;font-variant-alternates:normal;font-feature-settings:normal;text-indent:0;text-decoration-line:none;text-decoration-style:solid;text-decoration-color:#000;text-transform:none;text-orientation:mixed;shape-padding:0;isolation:auto;mix-blend-mode:normal" white-space="normal"/><path d="M10.884 8.62v2.25h-2.25v2.25h2.25v2.25h2.25v-2.25h2.25v-2.25h-2.25V8.62z"/></g></svg>