<svg xmlns="http://www.w3.org/2000/svg" width="48" height="48" viewBox="0 0 12.7 12.7"><path fill="#e6e6e6" d="M6.344.073a6.29 6.29 0 0 0-6.29 6.29 6.29 6.29 0 0 0 6.29 6.288 6.29 6.29 0 0 0 6.29-6.289 6.29 6.29 0 0 0-6.29-6.29zm-.018.936a5.407 5.407 0 0 1 5.407 5.407 5.407 5.407 0 0 1-5.407 5.407A5.407 5.407 0 0 1 .92 6.416 5.407 5.407 0 0 1 6.326 1.01zM2.784 3.06a.643.643 0 0 0-.645.644v1.074c0 .017.004.033.006.05v3.142h-.006v1.006c0 .357.287.645.644.645h7.181a.643.643 0 0 0 .644-.645v-.862h.001V3.778H5.946l-.72-.719H2.785zm.284 1.377H9.66a.31.31 0 0 1 .311.312v.282h-6.72c-.01 0-.018.005-.028.006a.237.237 0 0 0-.203.24c0 .012.005.024.007.036-.002.016-.007.03-.007.046v1.114c0 .182.113.329.254.329.141 0 .255-.147.255-.329v-.951h6.442v3.105a.31.31 0 0 1-.311.312H3.068a.31.31 0 0 1-.312-.312V4.748a.31.31 0 0 1 .312-.312z"/></svg>