<svg xmlns="http://www.w3.org/2000/svg" width="48" height="48" viewBox="0 0 12.7 12.7"><path d="M6.344.073a6.29 6.29 0 0 0-6.29 6.29 6.29 6.29 0 0 0 6.29 6.288 6.29 6.29 0 0 0 6.29-6.289 6.29 6.29 0 0 0-6.29-6.29zm-.018.936a5.407 5.407 0 0 1 5.407 5.407 5.407 5.407 0 0 1-5.407 5.407A5.407 5.407 0 0 1 .92 6.416 5.407 5.407 0 0 1 6.326 1.01zM3.652 3.347c-.58 0-1.046.467-1.046 1.047V7.74c0 .391.215.728.532.907h-.932v.82h8.28v-.82h-.852a1.04 1.04 0 0 0 .531-.907V4.394c0-.58-.466-1.047-1.046-1.047H3.652zm.545.54h4.407a.88.88 0 0 1 .881.88v2.819a.88.88 0 0 1-.88.88H4.196a.88.88 0 0 1-.881-.88V4.768a.88.88 0 0 1 .88-.881zm1.517 4.668h1.301v.268H5.714v-.268z" fill="#5beedc"/></svg>
