<svg xmlns="http://www.w3.org/2000/svg" width="48" height="48" viewBox="0 0 12.7 12.7"><path d="M6.344.073a6.29 6.29 0 0 0-6.29 6.29 6.29 6.29 0 0 0 6.29 6.288 6.29 6.29 0 0 0 6.29-6.289 6.29 6.29 0 0 0-6.29-6.29zm-.018.936a5.407 5.407 0 0 1 5.407 5.407 5.407 5.407 0 0 1-5.407 5.407A5.407 5.407 0 0 1 .92 6.416 5.407 5.407 0 0 1 6.326 1.01zM2.95 3.158a.742.742 0 0 0-.742.742v4.447c0 .41.332.741.742.741h6.67c.41 0 .738-.332.738-.741l.004-4.447a.742.742 0 0 0-.741-.742H2.949zm.74.742h5.19v4.447h-5.19V3.9zm-.858 1.554c.1 0 .18.08.18.18v.94a.18.18 0 1 1-.361 0v-.94c0-.1.08-.18.18-.18z" fill="#5beedc"/></svg>
