<svg xmlns="http://www.w3.org/2000/svg" width="48" height="48" viewBox="0 0 12.7 12.7"><path d="M6.344.073a6.29 6.29 0 0 0-6.29 6.29 6.29 6.29 0 0 0 6.29 6.288 6.29 6.29 0 0 0 6.29-6.289 6.29 6.29 0 0 0-6.29-6.29zm-.018.936a5.407 5.407 0 0 1 5.407 5.407 5.407 5.407 0 0 1-5.407 5.407A5.407 5.407 0 0 1 .92 6.416 5.407 5.407 0 0 1 6.326 1.01zM5.425 2.11L2.861 4.683l-.008 5.146a.86.86 0 0 0 .857.858h5.146a.86.86 0 0 0 .858-.858V2.968a.86.86 0 0 0-.858-.858H5.425zm0 .858h.858v1.715h-.858V2.968zm1.287 0h.858v1.715h-.858V2.968zm1.286 0h.858v1.715h-.858V2.968z" fill="#5beedc"/></svg>
