<?xml version="1.0" encoding="UTF-8" standalone="no"?>
<svg
   xmlns:dc="http://purl.org/dc/elements/1.1/"
   xmlns:cc="http://creativecommons.org/ns#"
   xmlns:rdf="http://www.w3.org/1999/02/22-rdf-syntax-ns#"
   xmlns:svg="http://www.w3.org/2000/svg"
   xmlns="http://www.w3.org/2000/svg"
   xmlns:sodipodi="http://sodipodi.sourceforge.net/DTD/sodipodi-0.dtd"
   xmlns:inkscape="http://www.inkscape.org/namespaces/inkscape"
   width="48"
   height="48"
   viewBox="0 0 12.7 12.7"
   version="1.1"
   id="svg8"
   sodipodi:docname="media-optical.svg"
   inkscape:version="0.92.4 (5da689c313, 2019-01-14)">
  <metadata
     id="metadata14">
    <rdf:RDF>
      <cc:Work
         rdf:about="">
        <dc:format>image/svg+xml</dc:format>
        <dc:type
           rdf:resource="http://purl.org/dc/dcmitype/StillImage" />
        <dc:title></dc:title>
      </cc:Work>
    </rdf:RDF>
  </metadata>
  <defs
     id="defs12" />
  <sodipodi:namedview
     pagecolor="#ffffff"
     bordercolor="#666666"
     borderopacity="1"
     objecttolerance="10"
     gridtolerance="10"
     guidetolerance="10"
     inkscape:pageopacity="0"
     inkscape:pageshadow="2"
     inkscape:window-width="1087"
     inkscape:window-height="480"
     id="namedview10"
     showgrid="false"
     inkscape:zoom="4.9166667"
     inkscape:cx="2.1355932"
     inkscape:cy="24"
     inkscape:window-x="0"
     inkscape:window-y="25"
     inkscape:window-maximized="0"
     inkscape:current-layer="svg8" />
  <g
     font-weight="400"
     id="g6"
     style="color:#bebebe;font-weight:400;font-family:sans-serif;white-space:normal;fill:#5beedc">
    <path
       d="m 6.344,0.073 c -3.433,0 -6.254,2.822 -6.254,6.255 0,3.433 2.822,6.255 6.255,6.255 3.433,0 6.255,-2.822 6.255,-6.255 0,-3.433 -2.823,-6.255 -6.256,-6.255 z m 0,3.574 c 1.502,0 2.681,1.18 2.681,2.681 0,1.501 -1.18,2.68 -2.68,2.68 -1.5,0 -2.681,-1.179 -2.681,-2.68 0,-1.501 1.18,-2.68 2.68,-2.68 z"
       overflow="visible"
       style="font-variant-ligatures:normal;font-variant-position:normal;font-variant-caps:normal;font-variant-numeric:normal;font-variant-alternates:normal;font-feature-settings:normal;text-indent:0;text-decoration:none;text-decoration-line:none;text-decoration-style:solid;text-decoration-color:#000000;text-transform:none;text-orientation:mixed;shape-padding:0;overflow:visible;isolation:auto;mix-blend-mode:normal"
       id="path2"
       inkscape:connector-curvature="0" />
    <path
       d="m 6.344,4.54 c -0.982,0 -1.787,0.806 -1.787,1.788 0,0.982 0.805,1.787 1.787,1.787 0.982,0 1.788,-0.805 1.788,-1.787 0,-0.982 -0.806,-1.787 -1.788,-1.787 z m 0,0.894 c 0.499,0 0.894,0.395 0.894,0.894 A 0.887,0.887 0 0 1 6.344,7.222 0.887,0.887 0 0 1 5.451,6.328 c 0,-0.499 0.395,-0.894 0.893,-0.894 z"
       overflow="visible"
       style="font-variant-ligatures:normal;font-variant-position:normal;font-variant-caps:normal;font-variant-numeric:normal;font-variant-alternates:normal;font-feature-settings:normal;text-indent:0;text-decoration:none;text-decoration-line:none;text-decoration-style:solid;text-decoration-color:#000000;text-transform:none;text-orientation:mixed;shape-padding:0;overflow:visible;isolation:auto;mix-blend-mode:normal"
       id="path4"
       inkscape:connector-curvature="0" />
  </g>
</svg>
