<svg xmlns="http://www.w3.org/2000/svg" width="48" height="48" viewBox="0 0 12.7 12.7"><path d="M6.344.073a6.29 6.29 0 0 0-6.29 6.29 6.29 6.29 0 0 0 6.29 6.288 6.29 6.29 0 0 0 6.29-6.289 6.29 6.29 0 0 0-6.29-6.29zm-.018.936a5.407 5.407 0 0 1 5.407 5.407 5.407 5.407 0 0 1-5.407 5.407A5.407 5.407 0 0 1 .92 6.416 5.407 5.407 0 0 1 6.326 1.01zM3.451 2.25a.374.374 0 0 0-.374.375v3.509h-.392a.534.534 0 0 0-.535.534v2.601c0 .296.239.535.535.535h7.446a.534.534 0 0 0 .534-.535v-2.6a.534.534 0 0 0-.534-.535H3.825v-3.51a.374.374 0 0 0-.374-.374zm5.45 4.436a.588.588 0 0 1 .588.588.588.588 0 0 1-.587.588.588.588 0 0 1-.588-.588.588.588 0 0 1 .588-.588zm-2.137.036a.588.588 0 0 1 .588.588.588.588 0 0 1-.588.588.588.588 0 0 1-.588-.588.588.588 0 0 1 .588-.588z" fill="#5beedc"/></svg>
