<svg xmlns="http://www.w3.org/2000/svg" width="48" height="48" viewBox="0 0 12.7 12.7"><path fill="#e6e6e6" d="M6.344.077A6.267 6.267 0 0 0 .076 6.344a6.267 6.267 0 0 0 6.268 6.267 6.267 6.267 0 0 0 6.267-6.267A6.267 6.267 0 0 0 6.344.077zm-.018.932a5.388 5.388 0 0 1 5.388 5.39 5.388 5.388 0 0 1-5.388 5.387A5.388 5.388 0 0 1 .937 6.398a5.388 5.388 0 0 1 5.39-5.389zm2.92 1.421a.377.377 0 0 0-.268.11l-.572.571 1.25 1.248.572-.57a.377.377 0 0 0 0-.534l-.714-.714a.377.377 0 0 0-.268-.11zm-1.107.948L4.695 6.816l1.25 1.247 3.444-3.436zm-5.26.362a.53.53 0 0 0-.53.529v5.29c0 .292.238.53.53.53H8.17c.29 0 .53-.238.53-.53V5.778l-.82.816v2.678H3.169V4.557h3.326l.82-.817zm1.547 3.342l-.268 1.514 1.517-.265z"/></svg>