<svg xmlns="http://www.w3.org/2000/svg" width="48" height="48" viewBox="0 0 12.7 12.7"><path d="M6.34.07a6.29 6.29 0 0 0-6.29 6.3 6.29 6.29 0 0 0 6.3 6.28 6.29 6.29 0 0 0 6.28-6.29A6.29 6.29 0 0 0 6.34.07zm-.01.94a5.4 5.4 0 0 1 5.4 5.4 5.4 5.4 0 0 1-4.54 5.34c.07-.52.06-1.22-.34-1.74-.56-.73-1.29-2.63.01-3.3 0 0 .72 1.07 1.69 1.18 0 0 .1 1.15 1.28.52.3-.17.42-.88.1-1.33l-.24-.35S9.04 4.7 8.46 4.12c0 0-.2-1.01 0-1.48 0 0-.36.2-.47.4 0 0 .04-.6.15-.72 0 0-1.1.68-1.17 1.06 0 0-2.22-.65-4.04 1.1 0 0 .7-.18.95-.09 0 0-2.23 1.26-2.63 2.74 0 0 .72-.47.94-.4-.3.52-.68.88-.76 1.96a5.4 5.4 0 0 1-.51-2.27A5.4 5.4 0 0 1 6.32 1z" fill="#e6e6e6"/></svg>