<?xml version="1.0" encoding="UTF-8" standalone="no"?>
<svg
   xmlns:dc="http://purl.org/dc/elements/1.1/"
   xmlns:cc="http://creativecommons.org/ns#"
   xmlns:rdf="http://www.w3.org/1999/02/22-rdf-syntax-ns#"
   xmlns:svg="http://www.w3.org/2000/svg"
   xmlns="http://www.w3.org/2000/svg"
   xmlns:sodipodi="http://sodipodi.sourceforge.net/DTD/sodipodi-0.dtd"
   xmlns:inkscape="http://www.inkscape.org/namespaces/inkscape"
   width="48"
   height="48"
   viewBox="0 0 12.7 12.7"
   version="1.1"
   id="svg12"
   sodipodi:docname="apache-users.svg"
   inkscape:version="0.92.5 (2060ec1f9f, 2020-04-08)">
  <metadata
     id="metadata18">
    <rdf:RDF>
      <cc:Work
         rdf:about="">
        <dc:format>image/svg+xml</dc:format>
        <dc:type
           rdf:resource="http://purl.org/dc/dcmitype/StillImage" />
        <dc:title></dc:title>
      </cc:Work>
    </rdf:RDF>
  </metadata>
  <defs
     id="defs16" />
  <sodipodi:namedview
     pagecolor="#ffffff"
     bordercolor="#666666"
     borderopacity="1"
     objecttolerance="10"
     gridtolerance="10"
     guidetolerance="10"
     inkscape:pageopacity="0"
     inkscape:pageshadow="2"
     inkscape:window-width="1085"
     inkscape:window-height="480"
     id="namedview14"
     showgrid="false"
     inkscape:zoom="4.9166667"
     inkscape:cx="2.1355932"
     inkscape:cy="24"
     inkscape:window-x="0"
     inkscape:window-y="25"
     inkscape:window-maximized="0"
     inkscape:current-layer="svg12" />
  <path
     d="M 6.34,0.075 A 6.295,6.295 0 0 0 0.055,6.36 6.295,6.295 0 0 0 6.34,12.655 6.295,6.295 0 0 0 12.634,6.36 6.295,6.295 0 0 0 6.34,0.075 Z m -0.01,0.94 a 5.408,5.408 0 0 1 5.396,5.387 5.407,5.407 0 1 1 -10.814,0 c 0,-2.987 2.43,-5.387 5.417,-5.387 z"
     id="path2"
     inkscape:connector-curvature="0"
     style="fill:#e6e6e6" />
  <path
     d="M 3.537,7.072 C 3.253,7.226 3.029,7.375 3,7.5 L 2.75,9.65 c 1.013,0.546 2.83,0.706 4.486,0.588 A 4.019,4.019 0 0 1 6.457,9.848 5.83,5.83 0 0 1 5.57,9.128 C 5.27,8.835 4.969,8.488 4.666,8.083 A 4.2,4.2 0 0 0 4.04,7.4 2.495,2.495 0 0 0 3.537,7.072 Z"
     id="path4"
     inkscape:connector-curvature="0"
     style="opacity:0.75;fill:#112d5c" />
  <path
     d="M 3.537,7.072 C 3.702,7.158 3.869,7.253 4.04,7.4 A 4.2,4.2 0 0 1 4.666,8.083 C 4.969,8.489 5.271,8.835 5.57,9.127 5.869,9.419 6.166,9.658 6.457,9.848 6.722,10.02 6.981,10.141 7.236,10.238 8.311,10.161 9.332,9.988 9.97,9.65 9.942,9.442 9.918,9.037 9.894,8.635 9.808,8.647 9.732,8.679 9.642,8.681 9.394,8.686 9.132,8.651 8.861,8.568 A 3.31,3.31 0 0 1 8.03,8.177 4.732,4.732 0 0 1 7.182,7.467 7.108,7.108 0 0 1 6.35,6.399 7.491,7.491 0 0 0 5.43,5.224 C 5.28,5.07 5.132,4.985 4.982,4.865 5.103,5.108 5.557,5.538 5.84,5.83 A 0.66,0.66 0 0 1 5.76,6.16 C 5.114,6.391 4.14,6.746 3.537,7.072 Z"
     id="path6"
     inkscape:connector-curvature="0"
     style="opacity:0.75;fill:#bf2e5e" />
  <path
     d="m 4.982,4.865 c 0.15,0.12 0.297,0.205 0.448,0.36 0.307,0.314 0.616,0.702 0.92,1.174 0.271,0.42 0.55,0.774 0.832,1.068 0.282,0.294 0.566,0.528 0.848,0.71 0.282,0.181 0.56,0.31 0.831,0.391 0.27,0.082 0.533,0.118 0.78,0.113 C 9.731,8.679 9.808,8.647 9.894,8.635 9.868,8.185 9.842,7.737 9.81,7.5 9.37,6.99 8.24,6.69 7.04,6.16 A 0.53,0.53 0 0 1 6.94,5.92 C 7.18,5.63 7.74,5.06 7.83,4.81 7.872,4.628 7.85,4.633 7.877,4.495 A 8.952,8.952 0 0 0 7.345,3.75 6.208,6.208 0 0 0 6.629,3.01 4.38,4.38 0 0 0 5.893,2.488 3.247,3.247 0 0 0 5.269,2.232 c -0.338,0.27 -0.56,0.652 -0.56,1.088 0,0.3 0.04,0.67 0.23,1.49 0.005,0.013 0.036,0.04 0.043,0.055 z"
     id="path8"
     inkscape:connector-curvature="0"
     style="opacity:0.75;fill:#ca2a2a" />
  <path
     d="M 5.269,2.232 C 5.477,2.297 5.686,2.372 5.893,2.488 6.14,2.625 6.386,2.798 6.629,3.009 6.871,3.219 7.111,3.466 7.345,3.75 7.526,3.97 7.702,4.231 7.877,4.495 7.977,3.981 8.042,3.573 8.05,3.32 8.05,2.5 7.3,1.84 6.38,1.84 5.95,1.84 5.565,1.994 5.269,2.232 Z"
     id="path10"
     inkscape:connector-curvature="0"
     style="opacity:0.75;fill:#fd8a19" />
</svg>
