<svg xmlns="http://www.w3.org/2000/svg" width="48" height="48" viewBox="0 0 12.7 12.7"><path d="M6.34.07a6.29 6.29 0 0 0-6.29 6.3 6.29 6.29 0 0 0 6.3 6.28 6.29 6.29 0 0 0 6.28-6.29A6.29 6.29 0 0 0 6.34.07zM6.32 1l.01.01a5.4 5.4 0 0 1 5.4 5.4 5.4 5.4 0 0 1-5.4 5.41 5.4 5.4 0 0 1-5.41-5.4A5.4 5.4 0 0 1 6.32 1zm.028 1.551h.007-.007zm0 0l-1.242.124v5.29l1.242-.194V5.534l1.74 2.485 1.477-.497-1.974-2.237L9.58 3.048l-1.491-.497-1.74 2.485V2.552zM3.54 4.044a.07.07 0 0 0-.043.017l-.53.526a.067.067 0 0 0-.009.083l.564.925c-.133.215-.235.45-.304.7l-1.04.214a.071.071 0 0 0-.055.07v.743a.07.07 0 0 0 .055.066l1.008.243c.064.28.171.544.314.784l-.588.89a.068.068 0 0 0 .009.085l.53.526a.068.068 0 0 0 .083.009l.918-.554c.227.136.474.24.737.305l.214 1.024a.067.067 0 0 0 .066.054h.75a.068.068 0 0 0 .065-.051l.255-1.03c.265-.069.512-.18.74-.32l.921.6a.069.069 0 0 0 .086-.008l.527-.526a.068.068 0 0 0 .011-.083l-.36-.59-.117.038a.043.043 0 0 1-.047-.018l-.2-.27a13.022 13.022 0 0 0-.45-.629 1.988 1.988 0 0 1-3.787-.84c0-.755.353-1.425.994-1.76v-.804c-.139.051-.23.114-.357.187l-.917-.597a.063.063 0 0 0-.043-.009z" stroke-width="3.78" fill="#e6e6e6"/></svg>
