<svg xmlns="http://www.w3.org/2000/svg" width="48" height="48" viewBox="0 0 12.7 12.7"><path d="M6.34.07a6.29 6.29 0 0 0-6.29 6.3 6.29 6.29 0 0 0 6.3 6.28 6.29 6.29 0 0 0 6.28-6.29A6.29 6.29 0 0 0 6.34.07zm.01.95c.3 0 .59.02.87.07a5.4 5.4 0 0 1 .05 0l.32.07a5.4 5.4 0 0 1 .2.06l.23.07a5.4 5.4 0 0 1 .3.1l.15.06a5.4 5.4 0 0 1 .45.22 5.4 5.4 0 0 1 .43.27l.07.05a5.4 5.4 0 0 1 .35.26l.07.06a5.4 5.4 0 0 1 .36.34 5.4 5.4 0 0 1 .67.84 5.4 5.4 0 0 1 .27.47 5.4 5.4 0 0 1 .39.98 9.34 9.34 0 0 1-2.28 2.97c-.46.4-.96.75-1.5 1-.56.25-1.16.39-1.77.35-.45-.02-.9-.15-1.3-.37 1.06-.57 2-1.33 2.78-2.24.51-.6.96-1.28 1.13-2.04.09-.39.1-.79.02-1.17a2.16 2.16 0 0 0-.53-1.04c-.26-.28-.6-.48-.97-.58-.37-.1-.77-.1-1.14-.04-.76.14-1.43.58-1.97 1.12a4.78 4.78 0 0 0-1.44 3.66 3.85 3.85 0 0 0 .95 2.25 8.8 8.8 0 0 1-1.74.42 5.38 5.38 0 0 1 4.58-8.2zm.03 1.09c.38 0 .76.11 1.07.34.27.2.47.5.58.82.12.32.15.67.1 1-.07.68-.41 1.3-.83 1.85A7.93 7.93 0 0 1 4.2 8.54c-.24-.2-.44-.45-.6-.72a3.23 3.23 0 0 1-.36-1.9c.07-.64.29-1.27.59-1.85.34-.67.82-1.3 1.48-1.67.33-.18.7-.3 1.08-.3zm5.3 3.58a5.4 5.4 0 0 1 .05.72 5.4 5.4 0 0 1-.02.5L11.7 7a5.4 5.4 0 0 1-.06.4l-.05.21a5.4 5.4 0 0 1-.06.26A5.38 5.38 0 0 1 2.2 9.83c.61-.14 1.2-.34 1.78-.6.25.2.52.35.82.47.84.32 1.8.27 2.65-.02a6.5 6.5 0 0 0 2.28-1.45 9.78 9.78 0 0 0 1.95-2.54z" fill="#e6e6e6"/></svg>
