<svg xmlns="http://www.w3.org/2000/svg" width="48" height="48" viewBox="0 0 12.7 12.7"><path fill="#e6e6e6" d="M6.344.073a6.29 6.29 0 0 0-6.29 6.29 6.29 6.29 0 0 0 6.29 6.288 6.29 6.29 0 0 0 6.29-6.289 6.29 6.29 0 0 0-6.29-6.29zm-.018.936a5.407 5.407 0 0 1 5.407 5.407 5.407 5.407 0 0 1-5.407 5.407A5.407 5.407 0 0 1 .92 6.416 5.407 5.407 0 0 1 6.326 1.01zM3.82 3.176l.499 1.492h1.967V3.176H3.819zm2.599 0v1.492h1.967l.498-1.492H6.418zm-2.704.1l-.866 1.392h1.329l-.463-1.393zm5.275 0l-.464 1.392h1.33l-.866-1.393zM2.843 4.81l3.148 5.309L4.222 4.81h-1.38zm1.522 0l1.92 5.773V4.81h-1.92zm2.053 0v5.773L8.337 4.81h-1.92zm2.06 0L6.71 10.119 9.857 4.81h-1.38z"/></svg>