<svg xmlns="http://www.w3.org/2000/svg" width="48" height="48" viewBox="0 0 12.7 12.7"><path fill="#e6e6e6" d="M6.344.073a6.29 6.29 0 0 0-6.29 6.29 6.29 6.29 0 0 0 6.29 6.289 6.29 6.29 0 0 0 6.29-6.29 6.29 6.29 0 0 0-6.29-6.29zm-.018.936a5.407 5.407 0 0 1 5.407 5.407 5.407 5.407 0 0 1-5.407 5.407A5.407 5.407 0 0 1 .92 6.416 5.407 5.407 0 0 1 6.326 1.01z"/><path fill="#04a" d="M7.086 2.25c.112-.004.223 0 .322 0h1.059v1.587H7.408s-.529 0-.529.53v1.058h1.588l-.265 1.587H6.88v3.44H5.292v-3.44H4.233V5.425h1.059V4.367c0-1.853 1.009-2.088 1.794-2.117z" opacity=".75"/></svg>