<?xml version="1.0" encoding="UTF-8" standalone="no"?>
<svg
   xmlns:dc="http://purl.org/dc/elements/1.1/"
   xmlns:cc="http://creativecommons.org/ns#"
   xmlns:rdf="http://www.w3.org/1999/02/22-rdf-syntax-ns#"
   xmlns:svg="http://www.w3.org/2000/svg"
   xmlns="http://www.w3.org/2000/svg"
   xmlns:sodipodi="http://sodipodi.sourceforge.net/DTD/sodipodi-0.dtd"
   xmlns:inkscape="http://www.inkscape.org/namespaces/inkscape"
   width="48"
   height="48"
   viewBox="0 0 12.7 12.7"
   version="1.1"
   id="svg6"
   sodipodi:docname="firefox-aurora.svg"
   inkscape:version="0.92.4 (5da689c313, 2019-01-14)">
  <metadata
     id="metadata12">
    <rdf:RDF>
      <cc:Work
         rdf:about="">
        <dc:format>image/svg+xml</dc:format>
        <dc:type
           rdf:resource="http://purl.org/dc/dcmitype/StillImage" />
        <dc:title></dc:title>
      </cc:Work>
    </rdf:RDF>
  </metadata>
  <defs
     id="defs10" />
  <sodipodi:namedview
     pagecolor="#ffffff"
     bordercolor="#666666"
     borderopacity="1"
     objecttolerance="10"
     gridtolerance="10"
     guidetolerance="10"
     inkscape:pageopacity="0"
     inkscape:pageshadow="2"
     inkscape:window-width="861"
     inkscape:window-height="480"
     id="namedview8"
     showgrid="false"
     inkscape:zoom="4.9166667"
     inkscape:cx="2.1355932"
     inkscape:cy="24"
     inkscape:window-x="0"
     inkscape:window-y="25"
     inkscape:window-maximized="0"
     inkscape:current-layer="svg6" />
  <path
     d="m 6.344,0.072 a 6.29,6.29 0 0 0 -6.289,6.29 6.29,6.29 0 0 0 6.29,6.29 6.29,6.29 0 0 0 6.29,-6.29 6.29,6.29 0 0 0 -6.291,-6.29 z M 6.326,1.009 A 5.407,5.407 0 0 1 11.734,6.416 5.407,5.407 0 0 1 6.326,11.824 5.407,5.407 0 0 1 0.92,6.416 5.407,5.407 0 0 1 6.326,1.01 Z"
     id="path2"
     inkscape:connector-curvature="0"
     style="fill:#e6e6e6" />
  <path
     d="M 8.048,1.865 8.061,1.932 C 8.308,2.472 8.775,2.956 9.152,3.443 9.204,3.31 9.252,2.882 9.349,2.772 9.353,2.77 9.354,2.768 9.357,2.768 c 0.005,0 0.02,0.031 0.031,0.068 a 3.05,3.05 0 0 0 0.286,0.492 c 0.75,1.108 1.506,1.92 1.506,3.497 0,2.49 -2.163,4.51 -4.83,4.51 -2.668,0 -4.831,-2.02 -4.831,-4.51 0,-0.89 0.279,-1.719 0.756,-2.418 0,-0.008 0.003,-0.012 0.003,-0.023 0,-0.073 0.025,-0.283 0.046,-0.39 C 2.38,3.722 2.606,2.929 2.937,2.768 3.079,3.054 3.122,3.561 3.304,3.848 A 0.472,0.472 0 0 1 3.492,3.805 L 3.511,3.802 A 0.597,0.597 0 0 1 3.557,3.798 H 3.561 L 3.609,3.795 3.615,3.794 h 0.046 l 0.01,-10e-4 a 2.008,2.008 0 0 1 0.113,0 2.286,2.286 0 0 1 0.381,0.033 l 0.026,0.003 c 0.009,0 0.016,0.004 0.024,0.005 0.008,0 0.015,0.002 0.021,0.003 l 0.03,0.005 0.017,0.003 0.043,0.007 C 4.536,3.904 4.514,3.905 4.584,3.841 4.8,3.652 5.475,3.327 5.838,3.512 5.61,3.707 4.972,4.077 5.153,4.465 a 0.515,0.515 0 0 0 0.43,0.27 C 6.1,4.777 6.313,4.822 6.345,4.893 6.371,4.951 6.329,5.108 6.267,5.193 A 0.831,0.831 0 0 1 6.073,5.369 5.168,5.168 0 0 1 5.8,5.49 C 5.608,5.57 5.142,5.695 5.142,5.908 5.188,6.079 5.476,6.266 5.344,6.388 5.205,6.299 4.759,6.163 4.54,6.172 4.177,6.625 4.557,7.244 5.305,7.412 5.485,7.458 5.647,7.446 5.938,7.363 6.23,7.281 6.367,7.273 6.53,7.273 c 0.158,0 0.23,0.013 0.364,0.063 0.158,0.06 0.347,0.204 0.401,0.308 0.042,0.082 0.02,0.1 -0.052,0.143 C 7.208,7.807 7.188,7.807 7.029,7.79 6.921,7.779 6.726,7.815 6.33,8.011 A 1.521,1.521 0 0 1 5.62,8.189 C 5.374,8.191 5.116,8.209 4.77,8.159 4.901,8.849 5.863,9.079 6.579,9.075 7.709,9.07 8.515,8.235 8.759,7.173 A 2.09,2.09 0 0 0 8.775,6.888 C 8.775,6.53 8.707,6.241 8.545,5.918 8.43,5.681 8.117,5.358 7.828,5.067 A 2.315,2.315 0 0 1 7.336,4.037 2.543,2.543 0 0 1 7.341,3.373 2.923,2.923 0 0 1 7.477,2.888 C 7.609,2.553 7.737,2.241 7.96,1.963 L 7.99,1.927 Z"
     id="path4"
     inkscape:connector-curvature="0"
     style="opacity:0.75;fill:#d4aa00" />
</svg>
