<svg xmlns="http://www.w3.org/2000/svg" width="48" height="48" viewBox="0 0 12.7 12.7"><path fill="#e6e6e6" d="M6.344.073a6.29 6.29 0 0 0-6.29 6.29 6.29 6.29 0 0 0 6.29 6.288 6.29 6.29 0 0 0 6.29-6.289 6.29 6.29 0 0 0-6.29-6.29zm-.018.936a5.407 5.407 0 0 1 5.407 5.407 5.407 5.407 0 0 1-5.407 5.407A5.407 5.407 0 0 1 .92 6.416 5.407 5.407 0 0 1 6.326 1.01zM3.263 2.7c-1.128.794.415 1.511 0 2.517.798-.54.604-1.452 0-2.517zm3.562 2.997a.414.414 0 0 0-.132.024c-.115.046-.263.251-.263.251l-1.056.504h-.528C3.931 6.505 3.68 5.583 3 5.721c.816.634.003 1.536.528 2.013.898.816 2.092 1.494 3.252 1.51h-.35v.253L5.11 10h3.43l-1.32-.503v-.252h-.31c.884-.026 1.74-.45 2.422-1.51 2.713 1.378 1.414-3.648 0-1.26H8.54l-1.32-.503s-.15-.206-.264-.251a.355.355 0 0 0-.132-.024zm3.29.778a.264.503 0 0 1 .001 0 .264.503 0 0 1 .019.002.264.503 0 0 1 .252.523v.003a.264.503 0 0 1-.277.478.264.503 0 0 1-.25-.525.264.503 0 0 1 .256-.481z"/></svg>