<svg xmlns="http://www.w3.org/2000/svg" width="48" height="48" viewBox="0 0 12.7 12.7"><path fill="#e6e6e6" d="M6.344.073C2.911.073.09 2.895.09 6.328s2.822 6.255 6.255 6.255c1.08 0 2.1-.28 2.99-.77L6.67 9.15h1.686V8.112a2.665 2.665 0 0 1-2.012.897 2.655 2.655 0 0 1-2.68-2.681c0-1.501 1.18-2.68 2.68-2.68a2.655 2.655 0 0 1 2.681 2.68c0 .099-.006.197-.016.293h1.876v2.528h1.033c.434-.85.681-1.808.681-2.821C12.6 2.895 9.777.073 6.344.073zm0 4.468c-.982 0-1.787.805-1.787 1.787 0 .982.805 1.787 1.787 1.787.982 0 1.787-.805 1.787-1.787 0-.982-.805-1.787-1.787-1.787zm0 .893c.499 0 .894.395.894.894a.887.887 0 0 1-.894.894.887.887 0 0 1-.893-.894c0-.499.395-.894.893-.894zm2.378 1.553v1.039h.001v1.489H7.531L9.618 11.6l2.086-2.086h-1.192V7.727h-.007v-.74H8.722z" color="#bebebe" font-family="sans-serif" font-weight="400" overflow="visible" style="font-variant-ligatures:normal;font-variant-position:normal;font-variant-caps:normal;font-variant-numeric:normal;font-variant-alternates:normal;font-feature-settings:normal;text-indent:0;text-decoration-line:none;text-decoration-style:solid;text-decoration-color:#000;text-transform:none;text-orientation:mixed;shape-padding:0;isolation:auto;mix-blend-mode:normal" white-space="normal"/></svg>