<svg xmlns="http://www.w3.org/2000/svg" width="48" height="48" version="1"><defs><linearGradient id="a"><stop offset="0" stop-color="#040000"/><stop offset="1" stop-opacity="0"/></linearGradient></defs><path d="M24 .23A23.77 23.77 0 0 0 .23 24.01 23.77 23.77 0 0 0 24 47.77 23.77 23.77 0 0 0 47.77 24 23.77 23.77 0 0 0 24 .23zm-.07 3.54a20.44 20.44 0 0 1 20.44 20.44 20.44 20.44 0 0 1-20.44 20.43A20.44 20.44 0 0 1 3.5 24.21 20.44 20.44 0 0 1 23.93 3.77zm0 3A17.44 17.44 0 0 0 6.5 24.22a17.44 17.44 0 0 0 17.43 17.44A17.44 17.44 0 0 0 41.37 24.2 17.44 17.44 0 0 0 23.93 6.77zm-.4 6.59H24l.07.07v2.2h.04c.48-.96 1.4-1.67 2.75-2.14.42-.09.74-.13.99-.13h.45c1.4 0 2.6.66 3.64 1.99.56.82.84 1.7.84 2.62v.07c0 1.8-.87 3.18-2.59 4.16-.65.33-1.34.5-2.06.5h-.07c-1.6 0-2.92-.76-3.95-2.25a4.47 4.47 0 0 1-.67-2.23v-4.8l.07-.06zm-3.52.1a5.77 5.77 0 0 1 2.28 4.57v.08a5.6 5.6 0 0 1-2.33 4.58l-.04-.05v-.77c0-.12.15-.34.47-.64a4.65 4.65 0 0 0 1.08-2.68v-.1h-9.93c0 1.03.52 2.12 1.56 3.29v.9h-.09c-1.5-1.25-2.24-2.7-2.24-4.31v-.52c0-1.6.75-3.04 2.24-4.31h.09v.9c-1.04 1.17-1.56 2.27-1.56 3.28h9.93v-.08c0-1.03-.52-2.1-1.55-3.2v-.86l.09-.09zm8.09.53c-1.65 0-2.88.81-3.7 2.44-.21.47-.32 1-.32 1.57v.1c0 1.55.8 2.75 2.38 3.61.55.23 1.11.35 1.68.35 1.63 0 2.88-.84 3.73-2.51.2-.58.28-1.1.28-1.58 0-1.51-.75-2.71-2.27-3.6A4.33 4.33 0 0 0 28.2 14h-.1zM10.38 24.5h19.75c.15 0 .28.13.28.29 0 .15-.13.28-.28.28H10.38a.28.28 0 0 1-.29-.28c0-.16.13-.29.29-.29z" fill="#e6e6e6"/></svg>