<?xml version="1.0" encoding="UTF-8" standalone="no"?>
<svg
   xmlns:dc="http://purl.org/dc/elements/1.1/"
   xmlns:cc="http://creativecommons.org/ns#"
   xmlns:rdf="http://www.w3.org/1999/02/22-rdf-syntax-ns#"
   xmlns:svg="http://www.w3.org/2000/svg"
   xmlns="http://www.w3.org/2000/svg"
   xmlns:sodipodi="http://sodipodi.sourceforge.net/DTD/sodipodi-0.dtd"
   xmlns:inkscape="http://www.inkscape.org/namespaces/inkscape"
   width="48"
   height="48"
   viewBox="0 0 12.7 12.7"
   version="1.1"
   id="svg6"
   sodipodi:docname="io.elementary.code.svg"
   inkscape:version="0.92.5 (2060ec1f9f, 2020-04-08)">
  <metadata
     id="metadata12">
    <rdf:RDF>
      <cc:Work
         rdf:about="">
        <dc:format>image/svg+xml</dc:format>
        <dc:type
           rdf:resource="http://purl.org/dc/dcmitype/StillImage" />
        <dc:title></dc:title>
      </cc:Work>
    </rdf:RDF>
  </metadata>
  <defs
     id="defs10" />
  <sodipodi:namedview
     pagecolor="#ffffff"
     bordercolor="#666666"
     borderopacity="1"
     objecttolerance="10"
     gridtolerance="10"
     guidetolerance="10"
     inkscape:pageopacity="0"
     inkscape:pageshadow="2"
     inkscape:window-width="1087"
     inkscape:window-height="480"
     id="namedview8"
     showgrid="false"
     inkscape:zoom="4.9166667"
     inkscape:cx="2.1355932"
     inkscape:cy="24"
     inkscape:window-x="0"
     inkscape:window-y="25"
     inkscape:window-maximized="0"
     inkscape:current-layer="svg6" />
  <text
     style="line-height:1.25;-inkscape-font-specification:'Abyssinica SIL'"
     x="-5.027"
     y="8.202"
     font-weight="400"
     font-size="8.467"
     font-family="Abyssinica SIL"
     letter-spacing="0"
     word-spacing="0"
     stroke-width=".265"
     id="text2" />
  <path
     d="m 6.344,0.07 v 0.002 a 6.29,6.29 0 0 0 -6.29,6.29 6.29,6.29 0 0 0 6.29,6.289 6.29,6.29 0 0 0 6.29,-6.29 A 6.29,6.29 0 0 0 6.344,0.07 Z M 6.326,1.01 A 5.407,5.407 0 0 1 11.733,6.416 5.407,5.407 0 0 1 6.326,11.823 5.407,5.407 0 0 1 0.92,6.416 5.407,5.407 0 0 1 6.326,1.01 Z m -1.034,1.9 c -0.3,0 -0.587,0.027 -0.86,0.079 C 4.162,3.039 3.958,3.136 3.82,3.282 3.66,3.453 3.562,3.648 3.526,3.865 A 4.121,4.121 0 0 0 3.473,4.543 v 0.439 c 0,0.341 -0.032,0.602 -0.095,0.781 A 0.57,0.57 0 0 1 3.022,6.127 C 2.848,6.19 2.592,6.222 2.253,6.222 v 0.38 c 0.34,0 0.595,0.033 0.769,0.1 a 0.558,0.558 0 0 1 0.356,0.363 c 0.063,0.177 0.095,0.436 0.095,0.777 v 0.439 c 0,0.234 0.018,0.46 0.053,0.678 0.036,0.217 0.134,0.412 0.294,0.583 0.138,0.146 0.342,0.243 0.612,0.293 0.273,0.052 0.56,0.079 0.86,0.079 V 9.566 C 5.245,9.566 5.165,9.561 5.052,9.55 A 1.81,1.81 0 0 1 4.709,9.48 0.628,0.628 0 0 1 4.428,9.31 0.699,0.699 0 0 1 4.254,8.909 4.682,4.682 0 0 1 4.225,8.376 V 8.057 C 4.225,7.746 4.199,7.481 4.147,7.264 A 1.002,1.002 0 0 0 3.824,6.722 C 3.661,6.582 3.414,6.477 3.084,6.408 3.414,6.336 3.661,6.233 3.824,6.098 A 0.98,0.98 0 0 0 4.147,5.565 C 4.199,5.347 4.225,5.081 4.225,4.767 V 4.448 c 0,-0.187 0.01,-0.365 0.029,-0.533 A 0.699,0.699 0 0 1 4.428,3.514 0.628,0.628 0 0 1 4.708,3.344 C 4.828,3.309 4.942,3.285 5.052,3.274 5.165,3.264 5.245,3.258 5.292,3.258 Z m 2.116,0 v 0.348 c 0.05,0 0.13,0.005 0.24,0.016 0.11,0.011 0.225,0.035 0.343,0.07 a 0.599,0.599 0 0 1 0.281,0.17 C 8.363,3.61 8.42,3.74 8.442,3.903 a 3.457,3.457 0 0 1 0.033,0.694 v 0.17 c 0,0.314 0.026,0.581 0.078,0.802 A 0.98,0.98 0 0 0 8.88,6.098 C 9.043,6.233 9.29,6.336 9.62,6.408 9.292,6.477 9.045,6.582 8.88,6.722 A 1.003,1.003 0 0 0 8.553,7.26 3.467,3.467 0 0 0 8.475,8.057 v 0.17 A 3.645,3.645 0 0 1 8.442,8.921 0.683,0.683 0 0 1 8.272,9.31 0.599,0.599 0 0 1 7.992,9.48 C 7.872,9.515 7.758,9.539 7.648,9.55 7.538,9.56 7.458,9.566 7.408,9.566 v 0.348 c 0.304,0 0.59,-0.027 0.86,-0.079 C 8.538,9.785 8.744,9.688 8.884,9.542 9.047,9.371 9.144,9.176 9.178,8.959 A 4.17,4.17 0 0 0 9.231,8.281 V 7.818 c 0,-0.34 0.032,-0.596 0.096,-0.77 a 0.57,0.57 0 0 1 0.36,-0.355 c 0.176,-0.06 0.43,-0.09 0.764,-0.09 V 6.222 c -0.333,0 -0.588,-0.03 -0.765,-0.091 A 0.583,0.583 0 0 1 9.326,5.775 C 9.263,5.602 9.231,5.345 9.231,5.006 V 4.543 C 9.231,4.306 9.214,4.08 9.178,3.865 A 1.063,1.063 0 0 0 8.884,3.282 C 8.744,3.136 8.538,3.039 8.268,2.989 A 4.514,4.514 0 0 0 7.408,2.91 Z"
     id="path4"
     inkscape:connector-curvature="0"
     style="fill:#e6e6e6" />
</svg>
