<?xml version="1.0" encoding="UTF-8" standalone="no"?>
<svg
   xmlns:dc="http://purl.org/dc/elements/1.1/"
   xmlns:cc="http://creativecommons.org/ns#"
   xmlns:rdf="http://www.w3.org/1999/02/22-rdf-syntax-ns#"
   xmlns:svg="http://www.w3.org/2000/svg"
   xmlns="http://www.w3.org/2000/svg"
   xmlns:sodipodi="http://sodipodi.sourceforge.net/DTD/sodipodi-0.dtd"
   xmlns:inkscape="http://www.inkscape.org/namespaces/inkscape"
   width="48"
   height="48"
   viewBox="0 0 12.7 12.7"
   version="1.1"
   id="svg8"
   sodipodi:docname="kdeconnect.svg"
   inkscape:version="0.92.4 (5da689c313, 2019-01-14)">
  <metadata
     id="metadata14">
    <rdf:RDF>
      <cc:Work
         rdf:about="">
        <dc:format>image/svg+xml</dc:format>
        <dc:type
           rdf:resource="http://purl.org/dc/dcmitype/StillImage" />
        <dc:title></dc:title>
      </cc:Work>
    </rdf:RDF>
  </metadata>
  <defs
     id="defs12" />
  <sodipodi:namedview
     pagecolor="#ffffff"
     bordercolor="#666666"
     borderopacity="1"
     objecttolerance="10"
     gridtolerance="10"
     guidetolerance="10"
     inkscape:pageopacity="0"
     inkscape:pageshadow="2"
     inkscape:window-width="1087"
     inkscape:window-height="480"
     id="namedview10"
     showgrid="false"
     inkscape:zoom="4.9166667"
     inkscape:cx="2.1355932"
     inkscape:cy="24"
     inkscape:window-x="0"
     inkscape:window-y="25"
     inkscape:window-maximized="0"
     inkscape:current-layer="svg8" />
  <path
     d="M 6.34,0.07 A 6.29,6.29 0 0 0 0.05,6.37 6.29,6.29 0 0 0 6.35,12.65 6.29,6.29 0 0 0 12.63,6.36 6.29,6.29 0 0 0 6.34,0.07 Z M 6.33,1.01 a 5.4,5.4 0 0 1 5.4,5.4 5.4,5.4 0 0 1 -5.4,5.41 A 5.4,5.4 0 0 1 0.92,6.42 5.4,5.4 0 0 1 6.32,1 Z"
     id="path2"
     inkscape:connector-curvature="0"
     style="fill:#e6e6e6" />
  <path
     d="m 3.31,1.9 v 8.9 H 9.4 V 1.9 H 3.3 Z m 0.35,1.14 h 5.38 v 6.7 H 3.66 Z"
     id="path4"
     inkscape:connector-curvature="0"
     style="fill:#e6e6e6;fill-opacity:0.98999999" />
  <path
     d="M 6.77,3.7 5.89,3.79 V 7.4 L 6.76,7.27 V 5.74 L 7.93,7.44 8.84,7.16 7.64,5.51 8.85,3.96 7.92,3.74 6.76,5.3 Z m -2,0.89 H 4.74 L 4.4,4.94 A 0.04,0.04 0 0 0 4.4,5 L 4.8,5.67 C 4.72,5.79 4.67,5.92 4.62,6.05 L 3.88,6.21 A 0.05,0.05 0 0 0 3.85,6.25 v 0.5 c 0,0.01 0.01,0.03 0.03,0.03 L 4.6,6.96 C 4.64,7.12 4.7,7.27 4.78,7.41 L 4.36,8.04 a 0.04,0.04 0 0 0 0,0.06 L 4.71,8.45 H 4.77 L 5.42,8.05 C 5.55,8.13 5.69,8.19 5.84,8.23 L 5.99,8.96 C 5.99,8.98 6.01,9 6.03,9 H 6.52 C 6.54,9 6.56,8.98 6.56,8.96 L 6.74,8.23 C 6.89,8.18 7.04,8.13 7.17,8.05 L 7.81,8.47 H 7.87 L 8.21,8.12 A 0.04,0.04 0 0 0 8.22,8.06 L 7.98,7.68 7.91,7.7 7.88,7.69 7.54,7.19 A 1.4,1.4 0 1 1 5.7,5.28 V 4.9 C 5.62,4.94 5.53,4.97 5.45,5.02 L 4.79,4.58 H 4.76 Z"
     id="path6"
     inkscape:connector-curvature="0"
     style="fill:#e6e6e6" />
</svg>
