<svg xmlns="http://www.w3.org/2000/svg" width="48" height="48" viewBox="0 0 12.7 12.7"><path d="M2.5 9.56l-.65-3.21h3.86l.64 3.21z" fill="#e6e6e6" opacity=".75"/><path d="M4.74 7.96L4.1 4.74h3.86l.64 3.22z" fill="#f2f2f2"/><path d="M6.35.06a6.29 6.29 0 0 0-6.29 6.3 6.29 6.29 0 0 0 6.3 6.28 6.29 6.29 0 0 0 6.28-6.29A6.29 6.29 0 0 0 6.35.06zM6.33 1a5.4 5.4 0 0 1 5.4 5.4 5.4 5.4 0 0 1-5.4 5.41 5.4 5.4 0 0 1-5.4-5.4A5.4 5.4 0 0 1 6.33 1zm.02 2.14l.64 3.21h3.86l-.64-3.21H6.35z" fill="#e6e6e6"/></svg>