<svg xmlns="http://www.w3.org/2000/svg" width="48" height="48" viewBox="0 0 12.7 12.7"><path d="M6.344.072a6.29 6.29 0 0 0-6.29 6.29 6.29 6.29 0 0 0 6.29 6.289 6.29 6.29 0 0 0 6.29-6.29 6.29 6.29 0 0 0-6.29-6.29zm-.018.937a5.407 5.407 0 0 1 5.407 5.407 5.407 5.407 0 0 1-5.407 5.407A5.407 5.407 0 0 1 .92 6.416 5.407 5.407 0 0 1 6.326 1.01zM8.31 2.357v.001l-.353.707A3.153 3.153 0 0 1 9.7 5.882a3.153 3.153 0 0 1-1.743 2.82l.35.701a3.941 3.941 0 0 0 2.181-3.52A3.941 3.941 0 0 0 8.31 2.357zm-3.917.004a3.941 3.941 0 0 0-2.18 3.52A3.941 3.941 0 0 0 4.39 9.407l.353-.706A3.153 3.153 0 0 1 3 5.882a3.153 3.153 0 0 1 1.743-2.82l-.35-.7zm3.212 1.407l-.353.706a1.577 1.577 0 0 1 .873 1.408 1.577 1.577 0 0 1-.872 1.41l.351.702a2.365 2.365 0 0 0 1.31-2.112 2.365 2.365 0 0 0-1.309-2.114zm-2.507.002a2.365 2.365 0 0 0-1.31 2.112 2.365 2.365 0 0 0 1.309 2.115l.352-.706a1.577 1.577 0 0 1-.872-1.41 1.577 1.577 0 0 1 .872-1.409l-.351-.702zM6.35 4.897a.985.985 0 0 0-.985.985.985.985 0 0 0 .59.903v4.582a3.941 5.43 0 0 0 .395.033 3.941 5.43 0 0 0 .394-.027V6.785a.985.985 0 0 0 .591-.903.985.985 0 0 0-.985-.985z" fill="#e6e6e6"/></svg>