<svg xmlns="http://www.w3.org/2000/svg" width="48" height="48" viewBox="0 0 12.7 12.7"><path d="M6.34.07a6.29 6.29 0 0 0-6.29 6.3 6.29 6.29 0 0 0 6.3 6.28 6.29 6.29 0 0 0 6.28-6.29A6.29 6.29 0 0 0 6.34.07zm-.01.94a5.4 5.4 0 0 1 5.4 5.4 5.4 5.4 0 0 1-5.4 5.41 5.4 5.4 0 0 1-5.41-5.4A5.4 5.4 0 0 1 6.32 1zm0 .8a4.61 4.61 0 0 0-.33 0 4.61 4.61 0 0 0-.46.06 4.61 4.61 0 0 0-.45.1 4.61 4.61 0 0 0-.43.15 4.61 4.61 0 0 0-.43.18 4.61 4.61 0 0 0-.4.23 4.61 4.61 0 0 0-.37.27 4.61 4.61 0 0 0-.35.3 4.61 4.61 0 0 0-.31.34 4.61 4.61 0 0 0-.28.37 4.61 4.61 0 0 0-.24.4 4.61 4.61 0 0 0-.2.4 4.61 4.61 0 0 0-.16.44 4.61 4.61 0 0 0-.11.45 4.61 4.61 0 0 0-.07.46 4.61 4.61 0 0 0-.03.46 4.61 4.61 0 0 0 .01.32 4.61 4.61 0 0 0 .06.46 4.61 4.61 0 0 0 .1.45 4.61 4.61 0 0 0 .15.44 4.61 4.61 0 0 0 .19.42 4.61 4.61 0 0 0 .22.4 4.61 4.61 0 0 0 .11.15L5.61 6a4.5 4.5 0 0 1-.34-1.45 2.22 2.22 0 0 1 .67-1.6 2.32 2.32 0 0 1 1.64-.66c.31 0 .62.06.9.17.15.07.27.18.4.28l.1-.1a4.61 4.61 0 0 0-.05-.03 4.61 4.61 0 0 0-.4-.24 4.61 4.61 0 0 0-.4-.2A4.61 4.61 0 0 0 7.68 2a4.61 4.61 0 0 0-.45-.12 4.61 4.61 0 0 0-.45-.06 4.61 4.61 0 0 0-.46-.03zm1.25.87a1.9 1.9 0 0 0-1.9 2.27c.23 1.32 1.13 2.26 1.9 3.02.76-.76 1.66-1.7 1.88-3.02a2.36 2.36 0 0 0 .04-.38 1.9 1.9 0 0 0-1.92-1.9zm2.22.71l-.17.17c.02.04.06.07.07.11a2.22 2.22 0 0 1 .14 1.34 4.58 4.58 0 0 1-.88 2.07c-.17.23-.36.4-.54.6l1.55 1.55a4.61 4.61 0 0 0 .16-.2 4.61 4.61 0 0 0 .24-.4 4.61 4.61 0 0 0 .2-.42 4.61 4.61 0 0 0 .16-.43 4.61 4.61 0 0 0 .12-.45 4.61 4.61 0 0 0 .07-.45 4.61 4.61 0 0 0 .02-.46 4.61 4.61 0 0 0-.01-.33 4.61 4.61 0 0 0-.06-.46 4.61 4.61 0 0 0-.1-.45 4.61 4.61 0 0 0-.14-.44 4.61 4.61 0 0 0-.2-.42 4.61 4.61 0 0 0-.22-.4 4.61 4.61 0 0 0-.27-.37 4.61 4.61 0 0 0-.14-.16zm-2.22.41a.8.8 0 1 1 0 1.6.8.8 0 0 1 0-1.6zM5.9 7.3L3.3 9.9a4.61 4.61 0 0 0 .04.05 4.61 4.61 0 0 0 .37.28 4.61 4.61 0 0 0 .4.24 4.61 4.61 0 0 0 .41.2 4.61 4.61 0 0 0 .43.16 4.61 4.61 0 0 0 .45.12 4.61 4.61 0 0 0 .46.07 4.61 4.61 0 0 0 .46.02 4.61 4.61 0 0 0 .32-.01 4.61 4.61 0 0 0 .46-.06 4.61 4.61 0 0 0 .45-.1 4.61 4.61 0 0 0 .44-.14 4.61 4.61 0 0 0 .42-.2 4.61 4.61 0 0 0 .4-.22 4.61 4.61 0 0 0 .06-.04L5.9 7.29z" fill="#e6e6e6"/></svg>