<svg xmlns="http://www.w3.org/2000/svg" width="48" height="48" viewBox="0 0 12.7 12.7"><path fill="#e6e6e6" d="M6.344.073a6.29 6.29 0 0 0-6.29 6.29 6.29 6.29 0 0 0 6.29 6.288 6.29 6.29 0 0 0 6.29-6.289 6.29 6.29 0 0 0-6.29-6.29zm-.018.936a5.407 5.407 0 0 1 5.407 5.407 5.407 5.407 0 0 1-5.407 5.407A5.407 5.407 0 0 1 .92 6.416 5.407 5.407 0 0 1 6.326 1.01zm-.37 1.592a4.001 2.969 59 0 0-1.74 5.278 4.001 2.969 59 0 0 .15.225c-.48.107-.921.172-1.286.181-.477.012-1.14-.09-1.33-.528-.168-.389.456-1.176.466-1.188-.011.01-.865.83-.798 1.345.094.715.992.83 1.701.82.353-.003.895-.095 1.527-.253a4.001 2.969 59 0 0 5.2-2.384c.664-.552 1.099-1.16 1.093-1.8-.005-.682-1.079-.82-1.347-.812-.038 0-.06.004-.06.01 0 0 1.04.261 1.017.763-.02.457-.345.927-.851 1.378a4.001 2.969 59 0 0-.393-.815 4.001 2.969 59 0 0-.123-.188 1.082 1.082 0 0 0 .026-.231 1.082 1.082 0 0 0-1.252-1.07 4.001 2.969 59 0 0-2-.73zm.055.264a3.719 2.76 59 0 1 1.67.55 1.082 1.082 0 0 0-.638.987 1.082 1.082 0 0 0 2.052.477 3.719 2.76 59 0 1 .031.05 3.719 2.76 59 0 1 .4.853 7.648 7.648 0 0 1-.8.57 2.17 2.17 0 0 0-.244-.652A1.347 1.347 0 0 1 6.8 4.628a2.164 2.164 0 0 0-1.982 3.368l-.234.056a3.719 2.76 59 0 1-.187-.28A3.719 2.76 59 0 1 6.01 2.864zm.211 2.897c.711 0 1.31.502 1.448 1.17-.5.247-1.029.466-1.555.657a.65.65 0 0 0-1.235.24 1.467 1.467 0 0 1 1.343-2.067zm3.446.483a3.719 2.76 59 0 1-4.8 2.178c.08-.022.157-.04.24-.063a.65.65 0 0 0 .097.069 2.162 2.162 0 0 0 3.567-1.586c.323-.19.625-.39.896-.598zm-7.448.319l-.004.004.004-.004zm5.469.845A1.483 1.483 0 0 1 6.222 8.71c-.266 0-.514-.072-.73-.196a.65.65 0 0 0 .664-.489A17.312 17.312 0 0 0 7.69 7.41z"/></svg>