<svg xmlns="http://www.w3.org/2000/svg" width="48" height="48" viewBox="0 0 12.7 12.7"><path fill="#e6e6e6" d="M6.344.073a6.29 6.29 0 0 0-6.29 6.29 6.29 6.29 0 0 0 6.29 6.288 6.29 6.29 0 0 0 6.29-6.289 6.29 6.29 0 0 0-6.29-6.29zm-.018.936a5.407 5.407 0 0 1 5.407 5.407 5.407 5.407 0 0 1-5.407 5.407A5.407 5.407 0 0 1 .92 6.416 5.407 5.407 0 0 1 6.326 1.01zM2.947 2.606v1.872h.425V3.075h1.276v-.469h-1.7zm5.105 0v.469h1.276v1.403h.425V2.606H8.052zM7.75 3.624a.202.202 0 0 0-.15.067l-.716.787h-2.45l1.703 2.106v2.105h-.851c-.117 0-.213.106-.213.234 0 .13.096.235.213.235h2.127c.116 0 .212-.106.212-.235 0-.128-.096-.234-.212-.234h-.851V6.584l1.702-2.106h-.779l.415-.456a.252.252 0 0 0 0-.33.201.201 0 0 0-.15-.068zM2.947 8.222v1.872h1.701v-.469H3.372V8.222h-.425zm6.38 0v1.403H8.053v.469h1.7V8.222h-.424z"/></svg>