<svg xmlns="http://www.w3.org/2000/svg" width="48" height="48" viewBox="0 0 12.7 12.7"><path d="M6.34.07a6.29 6.29 0 0 0-6.29 6.3 6.29 6.29 0 0 0 6.3 6.28 6.29 6.29 0 0 0 6.28-6.29A6.29 6.29 0 0 0 6.34.07zM6.32 1l.01.01a5.4 5.4 0 0 1 5.4 5.4 5.4 5.4 0 0 1-5.4 5.41 5.4 5.4 0 0 1-5.41-5.4A5.4 5.4 0 0 1 6.32 1zM7.6 2.379a.794.794 0 0 0-.793.794.794.794 0 0 0 .794.794.794.794 0 0 0 .793-.794.794.794 0 0 0-.793-.794zM6.02 3.967a.4.4 0 0 0-.103.012l-1.587.396a.397.397 0 0 0-.3.385v1.787c-.008.537.8.537.793 0V5.07l.822-.205.026.469c-.099.292-.192.584-.264.871-.216.754.021 1.208.48 1.32a.4.4 0 0 0 .058.052l1.139.817.75 1.688c.215.484.94.16.726-.323l-.794-1.786a.397.397 0 0 0-.131-.161l-.908-.652c.188-.32.265-.78.374-1.166l.257-.897c.077-.245.056-.435 0-.574-.122-.293-.291-.322-.57-.387l-.66-.153v.001a.394.394 0 0 0-.108-.017z" fill="#e6e6e6"/><path d="M6.924 4.205a.397.397 0 0 0-.332.217L5.482 6.72 4.264 8.114l-1.58-.176c-.527-.058-.614.731-.088.79l1.786.198a.397.397 0 0 0 .343-.133l1.39-1.588a.397.397 0 0 0 .054-.082l.817-1.606.453.996a.397.397 0 0 0 .642.116l1.19-1.191c.39-.374-.187-.95-.56-.561l-.787.785-.616-1.224a.397.397 0 0 0-.383-.233z" fill="#e6e6e6" opacity=".75"/></svg>
