<?xml version="1.0" encoding="UTF-8" standalone="no"?>
<svg
   xmlns:dc="http://purl.org/dc/elements/1.1/"
   xmlns:cc="http://creativecommons.org/ns#"
   xmlns:rdf="http://www.w3.org/1999/02/22-rdf-syntax-ns#"
   xmlns:svg="http://www.w3.org/2000/svg"
   xmlns="http://www.w3.org/2000/svg"
   xmlns:sodipodi="http://sodipodi.sourceforge.net/DTD/sodipodi-0.dtd"
   xmlns:inkscape="http://www.inkscape.org/namespaces/inkscape"
   width="48"
   height="48"
   viewBox="0 0 12.7 12.7"
   version="1.1"
   id="svg4"
   sodipodi:docname="org.gnome.eog.Devel.svg"
   inkscape:version="0.92.5 (2060ec1f9f, 2020-04-08)">
  <metadata
     id="metadata10">
    <rdf:RDF>
      <cc:Work
         rdf:about="">
        <dc:format>image/svg+xml</dc:format>
        <dc:type
           rdf:resource="http://purl.org/dc/dcmitype/StillImage" />
        <dc:title></dc:title>
      </cc:Work>
    </rdf:RDF>
  </metadata>
  <defs
     id="defs8" />
  <sodipodi:namedview
     pagecolor="#ffffff"
     bordercolor="#666666"
     borderopacity="1"
     objecttolerance="10"
     gridtolerance="10"
     guidetolerance="10"
     inkscape:pageopacity="0"
     inkscape:pageshadow="2"
     inkscape:window-width="1087"
     inkscape:window-height="480"
     id="namedview6"
     showgrid="false"
     inkscape:zoom="4.9166667"
     inkscape:cx="2.1355932"
     inkscape:cy="24"
     inkscape:window-x="0"
     inkscape:window-y="25"
     inkscape:window-maximized="0"
     inkscape:current-layer="svg4" />
  <path
     d="M 6.35,0.083 A 6.267,6.267 0 0 0 0.083,6.349 6.267,6.267 0 0 0 6.35,12.617 6.267,6.267 0 0 0 12.617,6.349 6.267,6.267 0 0 0 6.35,0.083 Z M 6.332,1.015 H 6.333 A 5.388,5.388 0 0 1 9.02,1.739 V 5.58 c 0,0.07 -0.06,0.13 -0.14,0.13 H 8.7 V 5.75 A 2.2,2.2 0 0 1 8.46,6.24 L 9.52,7.29 V 2.067 a 5.388,5.388 0 0 1 2.2,4.338 5.388,5.388 0 0 1 -0.398,2.024 L 10.396,8.43 11.02,9.054 a 5.388,5.388 0 0 1 -0.77,1.04 L 8.588,8.43 h -1.81 l 2.491,2.49 A 5.388,5.388 0 0 1 8.046,11.506 L 4.969,8.429 h -1.81 l 3.357,3.356 A 5.388,5.388 0 0 1 6.332,11.792 5.388,5.388 0 0 1 4.32,11.398 L 1.351,8.429 H 1.343 A 5.388,5.388 0 0 1 0.943,6.404 5.388,5.388 0 0 1 2.93,2.228 v 5.113 c 0,0.11 0.1,0.2 0.2,0.2 H 8.17 L 7.65,7.041 C 7.5,7.121 7.35,7.211 7.19,7.261 A 2.3,2.3 0 0 1 5.59,7.191 2.34,2.34 0 0 1 4.35,5.951 C 4.32,5.881 4.32,5.791 4.3,5.711 H 3.57 A 0.14,0.14 0 0 1 3.43,5.581 V 1.864 A 5.388,5.388 0 0 1 6.332,1.014 Z M 6.5,2.94 A 2.12,2.12 0 0 0 4.39,5.06 2.12,2.12 0 0 0 7.7,6.8 L 9.11,8.22 A 0.39,0.39 0 1 0 9.66,7.67 L 8.24,6.26 C 8.47,5.92 8.61,5.5 8.61,5.06 A 2.12,2.12 0 0 0 6.5,2.94 Z m 0,0.77 A 1.34,1.34 0 0 1 7.85,5.06 C 7.85,5.81 7.25,6.4 6.5,6.4 A 1.34,1.34 0 0 1 5.15,5.06 c 0,-0.75 0.6,-1.35 1.35,-1.35 z"
     id="path2"
     inkscape:connector-curvature="0"
     style="fill:#e6e6e6" />
</svg>
