<svg xmlns="http://www.w3.org/2000/svg" width="48" height="48" viewBox="0 0 12.7 12.7"><path d="M5.827.84a5.58 5.58 0 0 0-2.02.586c.029.089-.004.19-.107.279-.07.06-.126.153-.126.208 0 .168.151.424.272.462.16.05.106.22-.1.315a.626.626 0 0 0-.26.28c-.049.11-.12.22-.158.242-.038.023-.07.11-.07.192 0 .116.053.172.227.242.124.05.273.086.331.08.332-.031.356.162.065.54-.154.202-.229.252-.334.227-.098-.024-.151.004-.196.101-.047.103-.124.138-.33.152-.204.014-.295.056-.371.167-.056.081-.136.147-.179.147-.043 0-.143.055-.223.121-.163.136-.227.15-.284.06-.076-.117-.239-.057-.481.175-.215.205-.24.26-.208.439.057.317.23.598.426.696.171.086.174.095.07.205a.64.64 0 0 1-.227.151c-.19.058-.083.13.254.172.345.044.452.17.291.34-.09.095-.085.113.06.203.281.177.506.069.241-.116-.17-.119-.051-.168.198-.081.2.069.239.065.356-.037.241-.21.504.1.283.333-.14.149-.098.328.084.353.08.01.247.085.371.166.124.08.259.146.3.146.04 0 .155.082.255.182.203.202.315.228.372.086.07-.172.042-.26-.143-.462-.148-.16-.387-.588-.387-.69 0-.063.243-.01.38.083.085.059.223.134.306.168.089.036.18.149.223.272.065.194.091.21.323.21h.253l.038.454c.046.545.09.656.277.7.137.034.285.247.285.414 0 .045-.1.153-.22.242-.15.11-.215.202-.205.294.012.114-.014.132-.175.12a.987.987 0 0 0-.401.08.728.728 0 0 1-.427.058c-.16-.03-.215-.018-.215.045 0 .046-.056.133-.125.192-.17.147-.1.225.161.178.162-.029.225-.016.253.054.06.148-.091.36-.231.325-.089-.022-.131.009-.159.113a.263.263 0 0 1-.048.095 5.58 5.58 0 0 0 .883.261.369.369 0 0 0-.09-.123c-.144-.102-.048-.366.15-.414.202-.048.17-.179-.05-.204-.191-.022-.396-.216-.332-.316.043-.067.227-.057.599.031.168.04.283-.04.672-.466.225-.246.398-.349.588-.349.073 0 .331-.067.575-.148.46-.154.64-.149.624.02-.036.35.19.338.557-.029.152-.153.292-.263.31-.246.07.067-.056.395-.203.527-.187.168-.196.274-.032.358.09.046.128.14.142.35l.02.287h.233c.082 0 .15.01.204.032a5.58 5.58 0 0 0 2.703-4.605c-.085-.183-.079-.293 0-.417a5.58 5.58 0 0 0-.025-.313 1.775 1.775 0 0 0-.162-.002c-.281.012-.522-.1-.522-.24 0-.03-.1-.153-.222-.273-.138-.137-.21-.257-.188-.32.018-.057-.022-.148-.094-.21-.07-.061-.128-.159-.128-.217 0-.094-.06-.106-.489-.095l-.49.012.009.482c.014.845.14 1.064.528.923.178-.065.615-.016.739.082.045.036.11.165.144.288.035.123.163.335.285.471.247.277.266.385.124.71-.123.283-.256.25-.23-.057l.02-.229-.21.04a.613.613 0 0 0-.326.191c-.092.12-.136.138-.205.083a.262.262 0 0 1-.088-.18c0-.06-.06-.127-.132-.149-.073-.022-.172-.132-.221-.244-.079-.18-.077-.235.014-.453.093-.221.094-.258.009-.34-.079-.074-.119-.077-.222-.015-.103.062-.152.057-.274-.025a.675.675 0 0 0-.318-.1c-.188 0-.245-.092-.245-.395 0-.28-.167-.381-.564-.345-.276.025-.337.007-.56-.164a2.57 2.57 0 0 1-.482-.566 16.193 16.193 0 0 0-.307-.478c-.058-.082-.044-.161.07-.385l.143-.282-.303.04c-.539.074-.648.144-.416.268.09.048.094.073.024.154-.045.052-.067.135-.047.185.02.05-.005.165-.056.258a.804.804 0 0 0-.094.288c-.005.208-.361.374-.758.352-.6-.033-.65-.024-.863.174-.267.248-.301.363-.177.593.12.223.334.312.704.294.33-.017.368.013.293.231-.065.186-.28.258-.427.141-.113-.09-.501-.02-.62.111-.05.055-.125.199-.165.32-.07.208-.09.22-.403.25-.312.03-.342.02-.566-.186-.25-.23-.293-.407-.172-.71.053-.135.093-.157.236-.13.283.051.394-.047.394-.35 0-.146-.028-.283-.063-.303-.035-.021-.063-.099-.063-.173a.339.339 0 0 0-.08-.213c-.063-.061-.053-.094.048-.165a.429.429 0 0 1 .252-.074c.07.009.262-.022.428-.066.239-.065.309-.114.341-.24.062-.238.211-.43.337-.43.198 0 .203-.467.01-1.145-.029-.1-.107-.164-.246-.198-.112-.028-.234-.105-.27-.17-.037-.066-.104-.12-.15-.12-.045 0-.134-.054-.197-.12a.458.458 0 0 0-.294-.122c-.236 0-.24-.162-.006-.248.247-.09.631.029.724.224.126.265.266.154.31-.246.057-.495.227-.637.765-.637h.387l-.17-.17a.675.675 0 0 1-.126-.18zm2.006.175c-.01.01-.021.018-.032.03-.13.131-.19.15-.39.12-.35-.054-.305.087.082.257.209.092.343.196.389.302.22.511.372.786.448.814.155.057.246-.057.28-.347.04-.334.153-.404.355-.222.079.07.189.128.244.128.173 0 .302.07.302.164 0 .05.058.169.13.265.106.142.177.176.375.176.242 0 .391.046.695.213l.014.006a5.58 5.58 0 0 0-2.891-1.906zM.776 6.365a5.58 5.58 0 0 0-.001.024 5.58 5.58 0 0 0 .109 1.072c.202.083.258.05.279-.138.01-.097.061-.208.113-.246.08-.059.065-.089-.098-.2-.106-.072-.21-.199-.232-.28a.504.504 0 0 0-.17-.232zM2.532 8.21c-.052-.005-.115.023-.185.09-.147.14-.125.424.042.537.192.128.266.09.29-.146.03-.293-.033-.469-.147-.481zm.947.843c-.057.002-.12.043-.183.13-.066.09-.084.208-.059.386.031.22.018.266-.097.325-.147.075-.179.3-.058.415.12.115.234.085.275-.072.06-.225.387-.251.612-.05.095.086.174.13.174.097s-.1-.153-.222-.265c-.186-.173-.22-.247-.22-.47 0-.314-.097-.5-.222-.496zm-1.555.72a5.58 5.58 0 0 0 .129.164 1.013 1.013 0 0 0-.13-.163zm1.88.857c-.028.01-.04.046-.04.108 0 .063-.04.129-.09.147-.065.024-.08.1-.054.28.004.034.006.06.007.089a5.58 5.58 0 0 0 .232.12.945.945 0 0 1 .065-.353c.085-.242.088-.303.019-.345-.066-.04-.11-.055-.139-.046z" opacity=".5" fill="#e6e6e6"/><path d="M6.34.07a6.29 6.29 0 0 0-6.29 6.3 6.29 6.29 0 0 0 6.3 6.28 6.29 6.29 0 0 0 6.28-6.29A6.29 6.29 0 0 0 6.34.07zM6.32 1l.01.01a5.4 5.4 0 0 1 5.4 5.4 5.4 5.4 0 0 1-5.4 5.41 5.4 5.4 0 0 1-5.41-5.4A5.4 5.4 0 0 1 6.32 1z" fill="#e6e6e6"/></svg>
