<svg xmlns="http://www.w3.org/2000/svg" width="48" height="48" viewBox="0 0 12.7 12.7"><path fill="#e6e6e6" d="M6.344.073a6.29 6.29 0 0 0-6.29 6.29 6.29 6.29 0 0 0 6.29 6.288 6.29 6.29 0 0 0 6.29-6.289 6.29 6.29 0 0 0-6.29-6.29zm-.018.936a5.407 5.407 0 0 1 5.407 5.407 5.407 5.407 0 0 1-5.407 5.407A5.407 5.407 0 0 1 .92 6.416 5.407 5.407 0 0 1 6.326 1.01zm.023.314c-.158 0-.315.015-.47.021l-.292 1.504a3.6 3.6 0 0 0-.696.224l-1.1-1.053c-.279.165-.521.37-.763.583l.65 1.37a3.632 3.632 0 0 0-.425.583l-1.504-.202a4.963 4.963 0 0 0-.292.92l1.324.718a3.466 3.466 0 0 0-.021.36c0 .125.009.238.021.358l-1.324.718c.07.32.164.627.292.92l1.504-.201c.122.208.266.404.426.583l-.65 1.37c.24.213.483.417.762.583l1.1-1.055c.22.098.455.172.696.224l.292 1.504a5.112 5.112 0 0 0 .942 0l.292-1.504c.24-.052.476-.126.695-.224l1.1 1.056c.28-.166.523-.37.763-.584l-.65-1.37c.16-.18.304-.375.426-.583l1.503.201a4.963 4.963 0 0 0 .293-.92L9.918 6.71a3.5 3.5 0 0 0 .022-.36c0-.123-.01-.238-.022-.359l1.325-.717a4.961 4.961 0 0 0-.293-.92l-1.503.201a3.632 3.632 0 0 0-.426-.584l.65-1.369a4.988 4.988 0 0 0-.762-.582L7.808 3.074a3.602 3.602 0 0 0-.696-.225L6.82 1.346a5.112 5.112 0 0 0-.47-.022v-.001zm.033 1.997a3.026 3.026 0 0 1 3.025 3.025 3.026 3.026 0 0 1-3.025 3.026 3.026 3.026 0 0 1-3.027-3.026A3.026 3.026 0 0 1 6.382 3.32zm-.22.218v.004a2.812 2.812 0 0 0-2.619 2.619h-.005v.375h.005a2.812 2.812 0 0 0 2.62 2.618v.005h.375v-.005a2.81 2.81 0 0 0 2.617-2.618h.007v-.375h-.007a2.81 2.81 0 0 0-2.617-2.619v-.004h-.376zm0 .399v1.1h-.918c.201-.583.533-.998.918-1.1zm.376 0c.385.102.717.517.918 1.1h-.918v-1.1zm-1.24.214c-.18.24-.332.542-.441.886h-.562c.244-.381.592-.69 1.003-.886zm2.104 0c.41.197.758.505 1.002.886h-.56a2.973 2.973 0 0 0-.442-.886zM4.099 5.413h.66c-.05.237-.082.488-.093.75H3.92c.02-.265.083-.517.18-.75zm1.039 0h1.024v.75H5.041c.01-.265.044-.517.097-.75zm1.4 0H7.56c.053.233.086.485.098.75H6.538v-.75zm1.404 0H8.6c.097.233.16.485.18.75h-.747a4.45 4.45 0 0 0-.092-.75zM3.919 6.538h.747c.01.26.042.512.092.75H4.1a2.416 2.416 0 0 1-.18-.75zm1.122 0h1.121v.75H5.138a4.19 4.19 0 0 1-.097-.75zm1.497 0h1.121c-.01.264-.045.516-.098.75H6.538v-.75zm1.496 0h.745c-.02.264-.081.516-.178.75h-.66c.05-.238.082-.49.093-.75zm-3.74 1.125h.563c.109.344.26.646.441.886a2.45 2.45 0 0 1-1.003-.886zm.95 0h.918v1.1c-.385-.103-.717-.517-.918-1.1zm1.294 0h.918c-.201.583-.533.997-.918 1.1v-1.1zm1.305 0h.561a2.45 2.45 0 0 1-1.002.886c.18-.24.332-.542.441-.886z"/></svg>