<svg xmlns="http://www.w3.org/2000/svg" width="48" height="48" viewBox="0 0 12.7 12.7"><path fill="#e6e6e6" d="M6.344.073a6.29 6.29 0 0 0-6.29 6.29 6.29 6.29 0 0 0 6.29 6.288 6.29 6.29 0 0 0 6.29-6.289 6.29 6.29 0 0 0-6.29-6.29zm-.018.936a5.407 5.407 0 0 1 5.407 5.407 5.407 5.407 0 0 1-5.407 5.407A5.407 5.407 0 0 1 .92 6.416 5.407 5.407 0 0 1 6.326 1.01zm.85.843l-3.5 2.624H1.929v3.748h1.749l3.498 2.624V1.852zm2.61 2.112l-.53.53a2.627 2.627 0 0 1 0 3.712l.53.53a3.378 3.378 0 0 0 0-4.772zm-1.06 1.061l-.53.53c.212.212.33.494.33.795 0 .3-.118.583-.33.795l.53.53c.354-.354.548-.824.548-1.325s-.194-.971-.548-1.325z"/></svg>