<svg xmlns="http://www.w3.org/2000/svg" width="48" height="48" viewBox="0 0 12.7 12.7"><path fill="#e6e6e6" d="M6.344.073a6.29 6.29 0 0 0-6.29 6.29 6.29 6.29 0 0 0 6.29 6.288 6.29 6.29 0 0 0 6.29-6.289 6.29 6.29 0 0 0-6.29-6.29zm-.018.936a5.407 5.407 0 0 1 5.407 5.407 5.407 5.407 0 0 1-5.407 5.407A5.407 5.407 0 0 1 .92 6.416 5.407 5.407 0 0 1 6.326 1.01z"/><path fill="teal" d="M5.532 1.852c-.68 0-1.227.547-1.227 1.227v.817H6.35v.41H3.487c-.906 0-1.635.73-1.635 1.635v.818c0 .906.73 1.635 1.635 1.635v-.817a1.627 1.627 0 0 1 1.38-1.61c.084-.014.168-.026.256-.026h2.954c.195-.217.317-.501.317-.818V3.08c0-.68-.547-1.227-1.227-1.227zm-.066.577a.418.435 0 0 1 .418.435.418.435 0 0 1-.418.434.418.435 0 0 1-.418-.434.418.435 0 0 1 .418-.435z" opacity=".75"/><path fill="#d4aa00" d="M7.168 10.848c.68 0 1.227-.547 1.227-1.227v-.817H6.35v-.41h2.863c.906 0 1.635-.73 1.635-1.635V5.94c0-.906-.73-1.635-1.635-1.635v.817a1.627 1.627 0 0 1-1.38 1.61 1.627 1.627 0 0 1-.256.026H4.623a1.216 1.216 0 0 0-.317.818V9.62c0 .68.547 1.227 1.227 1.227zm.066-.577a.418.435 0 0 1-.418-.435.418.435 0 0 1 .418-.434.418.435 0 0 1 .418.434.418.435 0 0 1-.418.435z" opacity=".75"/></svg>