<svg xmlns="http://www.w3.org/2000/svg" width="48" height="48" viewBox="0 0 12.7 12.7"><path d="M6.34.07a6.29 6.29 0 0 0-6.29 6.3 6.29 6.29 0 0 0 6.3 6.28 6.29 6.29 0 0 0 6.28-6.29A6.29 6.29 0 0 0 6.34.07zM6.32 1l.01.01a5.4 5.4 0 0 1 5.4 5.4 5.4 5.4 0 0 1-5.4 5.41 5.4 5.4 0 0 1-5.41-5.4A5.4 5.4 0 0 1 6.32 1zm.03 1.65a2.65 2.65 0 0 0-.23 0 2.47 2.47 0 0 0-.05.01A2.65 2.65 0 0 0 3.7 5.3a2.65 2.65 0 0 0 0 .02 1.85 1.85 0 0 0-1.58 1.83 1.85 1.85 0 0 0 0 .05 1.76 1.76 0 0 0 0 .04A1.76 1.76 0 0 0 3.88 9h4.59a2.12 2.12 0 0 0 2.11-2.12 2.12 2.12 0 0 0-1.63-2.06 2.65 2.65 0 0 0-2.24-2.15 2.47 2.47 0 0 0-.03 0 2.65 2.65 0 0 0-.17-.02 2.47 2.47 0 0 0-.16 0zm0 .79h.1a.8.8 0 0 0 .02 0l.1.02h.01a.8.8 0 0 0 .02 0c.8.11 1.43.71 1.57 1.5a.8.8 0 0 0 .6.64c.6.14 1.02.66 1.02 1.28 0 .74-.58 1.32-1.32 1.32H3.88a.96.96 0 0 1-.97-.97v-.01a.8.8 0 0 0 0-.06v-.02c0-.53.38-.97.9-1.04a.8.8 0 0 0 .69-.8c0-.96.7-1.75 1.65-1.85a.8.8 0 0 0 .02 0 1.07 1.07 0 0 1 .17-.01z" fill="#e6e6e6"/></svg>