<svg xmlns="http://www.w3.org/2000/svg" width="48" height="48" viewBox="0 0 12.7 12.7"><path d="M6.33 1.8a4.6 4.6 0 0 0-4.6 4.63 4.6 4.6 0 0 0 4.6 4.6 4.6 4.6 0 0 0 4.62-4.61 4.6 4.6 0 0 0-4.61-4.6l-.01-.02zM2.65 4.87h1.48v1.48H5.6V4.87h1.48v1.48h1.48V4.87h1.48v1.48H8.57v1.48H7.1V6.35H5.61v1.48H4.13V6.35H2.65V4.87z" fill="#fecd38"/><path d="M6.34.07a6.29 6.29 0 0 0-6.29 6.3 6.29 6.29 0 0 0 6.3 6.28 6.29 6.29 0 0 0 6.28-6.29A6.29 6.29 0 0 0 6.34.07zM6.32 1l.01.01a5.4 5.4 0 0 1 5.4 5.4 5.4 5.4 0 0 1-5.4 5.41 5.4 5.4 0 0 1-5.41-5.4A5.4 5.4 0 0 1 6.32 1z" fill="#e6e6e6"/></svg>
