<svg xmlns="http://www.w3.org/2000/svg" width="48" height="48" viewBox="0 0 12.7 12.7"><path d="M6.34.07a6.29 6.29 0 0 0-6.29 6.3 6.29 6.29 0 0 0 6.3 6.28 6.29 6.29 0 0 0 6.28-6.29A6.29 6.29 0 0 0 6.34.07zM6.32 1l.01.01a5.4 5.4 0 0 1 5.4 5.4 5.4 5.4 0 0 1-5.4 5.41 5.4 5.4 0 0 1-5.41-5.4A5.4 5.4 0 0 1 6.32 1z" fill="#e6e6e6"/><path style="line-height:1.25;-inkscape-font-specification:'Electric Guitar Icons'" d="M17.6 6.56l.03.02-.01.02-.03-.03.01-.01zM17.78 6.56l.04.03h-.01l-.04-.02v-.01zM17.44 6.56h.01l-.01.03-.02-.01.02-.02zM17.7 6.55l.03.03v.01l-.04.02c-.02-.01-.02-.03 0-.05zM18.8 6h.01l-.02.03v-.01l.01-.03zM19.7 5.54l.04.03-.02.02-.02-.04zM19.54 5.51l.04.03-.01.02-.04.01v-.06zM19.1 5.52l-.02-.01-.02.02.02.01.02-.02z" font-weight="400" font-size="12.62" font-family="Electric Guitar Icons" letter-spacing="0" word-spacing="0"/><path style="line-height:1.25;-inkscape-font-specification:'Electric Guitar Icons'" d="M19.11 5.5l-.01.02h.01l.02-.02h-.02zM19.94 5.38l.02.01v.01l-.03-.01v-.01zM19.38 5.35l-.02.02v.01l.03-.02-.01-.01zM20.4 4.88l.02.02-.02.02c-.01 0-.02-.02 0-.04zM18.54 5.82l.01.01.02-.02-.01-.01-.02.02zM18 6.13l.06-.01-.01-.02-.04.03z" font-weight="400" font-size="12.62" font-family="Electric Guitar Icons" letter-spacing="0" word-spacing="0"/><path d="M5.94 2.03h-.17c-1.47.12-1.08 1.68-1.1 2.2-.03.38-.1.69-.37 1.06-.27.33-.65.84-.87 1.38a.98.98 0 0 0-.46.29c-.13.17-.16.43-.09.8l.12.28-.02.02c-.07.07-.17.1-.27.14a.5.5 0 0 0-.3.24.42.42 0 0 0-.05.2c0 .06 0 .13.02.2.02.12.04.25.01.33-.09.24-.1.4-.04.52.06.12.19.17.33.2.28.06.67.04.97.2.32.17.65.23.91.17a.6.6 0 0 0 .42-.33c.2 0 .43-.09.8-.1.24-.02.54.08.9.06 0 .04.01.08.03.11.14.27.4.4.66.38.27-.02.55-.18.79-.46L8.1 9.9l.05.03c.22-.27.58-.38.83-.52.12-.08.22-.17.22-.3.01-.13-.07-.28-.25-.48-.06-.07-.08-.2-.11-.33s-.07-.27-.18-.36a.44.44 0 0 0-.13-.08c.15-.45.1-.9-.06-1.3-.1-.25-.24-.5-.38-.71a.52.52 0 0 0 .1-.06v-.05c.04.02.12 0 .24-.1 0 0 0-.02-.03-.03v-.02c.06.04.14.02.25-.08v-.03l.02-.02v.03c.01 0 .1-.03.24-.13 0-.01 0-.02-.02-.03l.01-.01h.01l.02.04c0-.02.08-.06.22-.14.01-.01.02-.03.01-.07l.03.02c.02.02.1-.03.26-.13-.01-.05-.06-.16-.16-.32h-.06c-.16.1-.27.16-.33.17h.01c-.02.04-.04.04-.06.03v.02l-.12.05c-.01.04-.04.04-.06.02v.03c-.02.03-.05.03-.07.01v.03l-.05.04-.01-.04-.06.08.02.02-.04-.02-.02-.03-.04.02v.04l-.02.01-.01-.03-.04.03-.01.03a.13.13 0 0 0-.04.02l-.01-.02-.02.04a.16.16 0 0 0-.07.04l-.02-.03-.01.04a.13.13 0 0 0-.04.03l-.02-.03-.01.05-.07.03v.03c-.03-.02-.06-.01-.08.02l-.01-.03-.05.02v.04l-.01.01-.01-.03-.02.04-.12-.15c-.28-.35-.55-.68-.54-1.17 0-.75.08-2.14-1.24-2.14zm.18 1.15c.07 0 .14.03.2.07.07.05.12.11.16.2a.63.63 0 0 1-.07.66 2.46 2.46 0 0 0-.13-.05l-.08-.04c.02-.02.05-.04.06-.07a.4.4 0 0 0 .01-.3.26.26 0 0 0-.06-.1.13.13 0 0 0-.1-.05.14.14 0 0 0-.09.04.26.26 0 0 0-.07.1.43.43 0 0 0-.02.24 1.06 1.06 0 0 0-.22-.07v-.08c0-.1.01-.2.05-.28a.47.47 0 0 1 .15-.2.33.33 0 0 1 .2-.07zm-1.03.08c.05 0 .1.02.14.06a.4.4 0 0 1 .12.16.67.67 0 0 1 .05.33.62.62 0 0 0-.16.08v-.1a.4.4 0 0 0-.03-.11.22.22 0 0 0-.05-.09.1.1 0 0 0-.08-.02l-.06.03a.22.22 0 0 0-.04.1c-.01.04-.02.08-.01.12 0 .05.01.08.03.12a.22.22 0 0 0 .07.1L5 4.07l-.05.03a.42.42 0 0 1-.1-.14.64.64 0 0 1-.05-.23c0-.08 0-.15.03-.23a.4.4 0 0 1 .1-.17c.04-.05.09-.07.14-.07h.01zm.47.6c.12 0 .25.03.42.14.1.06.19.07.37.15.1.04.14.08.17.13a.2.2 0 0 1 0 .17c-.04.11-.18.23-.37.29-.1.03-.17.1-.27.15a.6.6 0 0 1-.35.1.46.46 0 0 1-.27-.11l-.21-.18c-.14-.07-.22-.17-.24-.25-.03-.07 0-.14.06-.2l.17-.12c.04-.02.05-.03.06-.05.06-.05.16-.15.3-.2a.5.5 0 0 1 .16-.03zm5.07.1a.1.1 0 0 0-.06.02l-.03.03.01.06.07.04c-.01.02 0 .03.02.05l-.01.02c-.09.02-.13.03-.14.02l-.03-.06h.02c.03-.04.04-.08.02-.1-.05-.05-.1-.04-.15.01l.01.07.04.03h.03c.01.04.01.06 0 .07-.06.01-.1.02-.12.04l-.03-.02-.01-.06.03-.01.02-.02v-.07c-.06-.04-.11-.04-.16.02v.06l.04.03.04.01.02.05-.15.04a.13.13 0 0 0-.03-.04l.05-.06v-.07l-.03-.02c-.07 0-.1 0-.12.02l-.01.02v.07l.04.03h.04v.06c-.08.03-.14.04-.15.03l-.01-.01c.05-.08.05-.14.02-.16-.06-.01-.1-.01-.13.01-.02.05-.02.08 0 .1l.02.01c.01.02.03.01.04 0l.02.05c-.03.03-.08.05-.15.04l-.01-.01c.04-.08.05-.12.03-.13-.06-.05-.1-.05-.15 0l-.01.07.08.04c.02.02.02.03 0 .04l-.19.05v.01c0 .05-.02.09-.04.12l-.05.07-.03.01c0 .04.05.15.17.35.2-.1.37-.1.48 0 .03.01.22-.14.58-.47l.05.04c.1.09.22.07.34-.04.08-.1.08-.2 0-.32-.07-.05-.16-.06-.28-.04l-.01-.01c-.02-.01 0-.07.02-.16a.12.12 0 0 0-.06-.03zM5.42 4h-.06c-.02.02-.05.03-.05.05 0 .02.03.03.05.03.02 0 .03-.02.05-.03.01-.01.05 0 .05-.03V4l-.04-.01zm.28 0h-.03l-.01.02c0 .02.03.02.05.03.02 0 .03.03.05.03.02 0 .05 0 .05-.03 0-.02-.03-.03-.05-.04a.14.14 0 0 0-.06-.01zm4.94.21l.05.04-.04.05h-.01c-.01-.04-.02-.06 0-.07zm-.2.06h.03l.02.02v.03a.14.14 0 0 0-.03.03l-.01-.02-.02-.05h.02zm-4.12.03c-.04 0-.04.04-.1.08L6 4.53c-.12.07-.32.17-.49.17a.65.65 0 0 1-.4-.16l-.13-.11c-.02-.03-.03-.08-.07-.08-.02 0-.03.06.03.1.03.03.07.08.13.12.1.08.26.17.44.17.2 0 .37-.1.52-.17.08-.04.18-.12.24-.17.07-.06.1-.1.06-.11h-.01zm3.95.01l.03.02v.05h-.04c-.02-.01-.02-.02 0-.04zm-.2.05l.03.02c.02.01.02.02 0 .04 0 .02-.02.02-.03 0-.02 0-.02-.02-.01-.04zm-.18.05l.03.01v.05l-.02.02-.05-.04.02-.02.02-.02zm-.2.05h.03c.02.02.02.03 0 .05l-.01.02-.05-.04.02-.02.01-.01zm-3.15.1c.1.43.33 1 .51 1.39h-.04l.02-.02C7.02 5.9 7 5.9 7 5.92l-.03.04h.01l.02-.02.02.01-.02.02a.1.1 0 0 0-.04.02l.01-.03-.07.02v.06c-.02-.02-.04.01-.06.01l-.01.01a.1.1 0 0 0-.04.03l-.02-.01.01-.01s-.02-.02-.04 0l.03.07c-.04-.02-.06-.02-.08 0h-.02l.02-.03c-.01-.01-.04 0-.07.02l-.02.02c.02.02.03.01.05-.01h.01v.02a.52.52 0 0 0-.12.07l-.01-.01.01-.01.03-.02.02-.03c-.02 0-.1.04-.27.15l.03.04c-.05 0-.08.01-.09.03v-.02l.03-.02.01-.01-.02-.02-.06.05-.01.01.03.02-.02.02h-.04l.02-.02c-.12.03-.2.07-.23.11l.01.01a.36.36 0 0 1-.06.06h-.02l.01-.02.03-.01.01-.01-.07-.04c-.16-.17-.18-.34-.06-.49l.05-.05c.01-.03.12-.1.3-.22.04-.05.03-.1-.05-.17-.15-.11-.4-.05-.76.2-.34.43-.65.68-.94.75h-.13c.2-.44.6-1.2.63-1.82l.1.07c.08.04.14.1.21.17a.5.5 0 0 0 .35.12c.14 0 .25-.05.34-.1l.26-.15a.7.7 0 0 0 .37-.24zm2.23.5h.02v.01c-.02.02-.04.02-.05.01l.01-.01.02-.01zm-.05.02l.01.01-.02.03zm.07.02h.01c0 .03.02.04.03.05l-.01.01-.02-.01a.13.13 0 0 0-.02-.04zm-.27.1h.03c-.02.03-.02.05.02.08l-.02.02a.16.16 0 0 0-.06-.08l.02-.01.01-.01zm.32 0l.03.02-.01.01-.03-.01zm-.14.03l.03.02-.02.02-.03-.02zm.17.02l.02.01v.01l-.03-.02zm-.47.02h.01v.01a.13.13 0 0 0-.05.03v-.02a.14.14 0 0 0 .04-.02zm-.14.04l.04.06h-.02c-.02-.03-.03-.04-.02-.06zm.06.08l.01.01c0 .03.02.05.03.07h-.02c-.03-.04-.03-.07-.02-.08zm-.28.06l.04.05-.01.01-.05-.03zm.05.08l.01.01-.02.02h-.01zm.04.07l.01.01-.01.02h-.01zm.05.1l.02.02-.03-.01zm-.9.01l.04.05-.01.01.01.01.02-.01-.03.03c-.05-.06-.06-.09-.03-.09zm-3.05.15c.04-.03.02.05-.14.34l-.15.36-.07.01c.1-.28.25-.53.36-.71zM7.08 6L7.1 6a.13.13 0 0 0-.03.03l-.02-.01.01-.02.03-.01zm.47.02l.02.02c-.02 0-.02-.01-.02-.02zm-.43.06l.01.02-.01-.02zm-.2 0l.02.02v.01L6.9 6.1zm.7.03c.1.17.19.35.24.55.04.2.05.4 0 .59.03 0 .05.02.08.03.36.17.49.33.42.54H8.3c.05-.17-.07-.3-.37-.43-.32-.14-.58-.13-.62.16v.04a.49.49 0 0 0-.08.04c-.15.08-.23.23-.28.4-.04.2-.06.41-.07.66 0 .13-.06.3-.11.47-.52.38-1.25.54-1.87.12a2.75 2.75 0 0 0-.14-.2l-.02-.03c.1-.07.2-.15.3-.27l.22-.33.08-.1c.1-.12.24-.21.4-.26.42-.03.68-.11.78-.23l.04-.05c.08-.14.1-.22.06-.26l-.04-.03-.07-.03c-.25.1-.42.12-.52.04-.06-.05-.11-.17-.16-.37.04-.01.1-.03.16-.07.01-.02 0-.07-.06-.15v-.01h.02l.05.11c.03.02.06.01.1-.02v-.05l.02.03h.01l.17-.11.01-.01-.02-.02v-.02l.02.02c.03.02.07 0 .11-.05l-.02-.02.01-.01h.01l.02.04c.14-.08.22-.13.23-.15l-.03-.02.03-.03.01.04h.01l.11-.06v-.04c.04.03.14-.02.3-.15l-.03-.03.01-.01.02.01v.03l.15-.08c.1.2.22.5.28.84.05 0 .11 0 .18.02.14-.37.02-.77-.14-1.05.02 0 .03-.02.05-.03zm-.46.04l.01.02h-.02zm-.2 0l.03.02-.01.02-.03-.02zm-.1 0l.04.03-.02.03-.03-.03zm-.08.01l.01.02-.02.02-.01-.01zm-.17.07l.01.01.06.08-.01.02-.02-.02a.23.23 0 0 0-.05-.08zm-.15 0l.02.01-.02.05-.04-.02zm.56.03l.02.02v.01L7 6.27zm-.63.02h.02v.02a.15.15 0 0 0-.05.02h-.01V6.3a.13.13 0 0 0 .04-.02zm.57.03l.02.02-.02.02-.02-.02zm.1 0v.03h-.02zm-.21 0l.03.03-.01.01-.03-.02zm-.35.01c.01.01.02.03 0 .04l-.02-.02zm.02.07l.04.03-.03.03v-.01c-.02-.01-.02-.03-.01-.05zm.37 0l.04.03v.01l-.05-.03zm-.74.03v.01a.24.24 0 0 0-.06.07l-.03-.02zm-.55.02c.02.02.04.09.05.2l.02.03h.04l-.02.03h-.03l-.02-.02c-.01-.01-.08.02-.2.1.02.04.1.2.27.46 0 .16.05.28.13.34.17.14.38.14.6.01l.04.02-.04.07c-.08.1-.2.18-.4.26-.4.03-.65.1-.74.21l-.29.37c-.16.2-.28.32-.38.39l-.21-.32c0-.04 0-.09.02-.17a.4.4 0 0 0 .18-.1c.02-.02-.1-.23-.33-.62l-.02.03-.02-.02c.03-.03.03-.05 0-.07l-.04-.02c.02-.02.01-.05 0-.08h-.05c.02-.03-.03-.13-.15-.31H4l-.03-.02.07-.1a.93.93 0 0 1 .35-.18c.46-.07.72-.13.79-.19.25-.22.38-.32.42-.3zM6 6.5h.02L6 6.53 6 6.5zm.12.04h.02l-.02.03H6.1l.02-.02.02-.01zm.15 0l.02.02v.04l-.04-.03zm-.43.02l.02.01c.02.02.02.03 0 .05 0-.02-.03-.01-.04 0a.12.12 0 0 0 .02-.06zm.77 0c.02.02.02.03.01.05l-.02-.02zm-.6.03l.02.02-.01.02h-.04zm.14.02l.02.02-.02.02V6.6zm.09.01l.02.02-.02.02-.02-.02zm-.5 0l.03.02-.02.03V6.6zm.14 0l.03.03c.02.02.02.03.01.05l-.04-.02-.01-.04zm.44.01l.02.01-.02.02h-.01zm.16 0l.01.02.03.04H6.5a.13.13 0 0 0-.03-.04zm-.43.06h.01l.03.04-.01.02-.02-.01c0-.03-.01-.04-.02-.04zm-.25.01l.01.01c.02.02.02.03 0 .05v-.01c-.02-.01-.02-.03-.01-.05zm-.18.01v.01a.17.17 0 0 0-.02.06l-.04-.03zm.32.02l.03.03v.01l-.05-.03zm.08.01l.03.02-.03.03-.02-.02zm-.3.02c.02.05.04.09.07.11l-.01.01-.03-.02-.03-.06H5.7zm.37 0l.02.02h-.03zm-.58.01l.01.01v.01a.1.1 0 0 0-.05.03v-.02a.14.14 0 0 0 .04-.03zm.48.05c.02.02.03.03.01.05v-.01c-.02-.01-.02-.03-.01-.04zm-.37 0h.03l-.02.02-.02-.01.01-.01zm.51 0l.03.03-.03.02v-.04zm-.3.02v.01l.02.03c-.01.02-.03.02-.04.01l-.01-.01zm-.63.02c-.01-.01-.07.01-.17.07-.01.04-.01.06 0 .07l.04.03.04-.03.02-.04h.08a.13.13 0 0 0-.03.05c-.05 0-.08 0-.09.02v.01c0 .05.09.21.25.5.02 0 .07-.01.16-.07.02-.02-.04-.17-.18-.42a.1.1 0 0 0-.05-.02c.02-.02.02-.04 0-.06l-.02-.02h-.03c.02-.03.01-.06-.02-.09zm.7.02l-.01.03zm.14.02c.02 0 .02.02 0 .04l-.02-.02zm.13 0l.03.02v.01l-.04-.02zm-.36.02l.02.02-.02.02c-.02 0-.02-.02 0-.04zm-.1.05l.02.02H5.7zm.12.01l.02.01.03.05-.01.02v-.01l-.05-.05zm-.62.05l.04.02-.05.06a.1.1 0 0 0-.04-.01zm.58.08l.02.02-.03-.01zm-.52.02l.01.05h-.04l-.02-.02.02-.02zm.03.08l.03.03-.03.04-.04-.02zm-.84.08c-.02-.02-.08 0-.18.07-.01.02.1.22.33.6.02.01.08-.02.17-.09l-.22-.4-.04-.02-.05-.16zm.88 0l.03.01v.04l-.02.03-.02-.02c-.02 0-.02-.02 0-.04l.01-.01zm-.9.08h.02a.12.12 0 0 0-.02.06c-.01.02-.03.02-.04 0l-.03-.01.03-.04.04-.01zm.95 0l.04.02v.04l-.03.02-.04-.04zm-1.04.05h.01l-.02.03zm.13.04h.03l-.02.05c0 .02-.03.01-.08 0l.03-.04h.04zm-.4.04l.02.01-.03.04a.1.1 0 0 0-.05-.01zm.43.04l.02.02c.02.01.02.03 0 .05H4.5l-.02-.02zm-.41.08l.03.01-.03.04-.03-.02v-.01l.03-.02zm.46.02h.02c.02.02.02.03.01.05h-.04l-.03-.02.02-.02.02-.01zm-.39.03h.02v.04l-.04.04h-.02V7.7a.17.17 0 0 0 .04-.04zm.41.05h.03l.02.02.01.03H4.58l.01-.05zm2.7 0c.02.22.13.44.32.48.2.06.5-.12.62-.26h.08c.1 0 .2 0 .3.08.06.06.1.18.13.3.03.14.05.28.14.38.17.2.23.32.22.4 0 .08-.06.15-.17.21-.22.13-.6.25-.86.55-.21.26-.48.4-.7.42a.53.53 0 0 1-.56-.32c-.07-.14-.04-.36.02-.59.06-.23.15-.47.16-.66.01-.25.03-.47.07-.63.04-.17.1-.28.22-.35h.02zm-3.76.02h.05l.1.03.1.06.08.07.08.1.32.59c.09.17.26.37.42.57.15.2.26.4.25.55-.02.26-.17.4-.4.45-.22.06-.52 0-.83-.16-.34-.17-.74-.16-1-.21-.12-.03-.2-.07-.25-.14-.04-.08-.04-.2.05-.43.04-.13 0-.27-.01-.4-.02-.12-.03-.24.01-.32.06-.11.14-.15.24-.19.1-.03.23-.06.32-.16.1-.1.16-.2.24-.3.06-.06.13-.1.23-.11zm.7.02l.02.02.01.03c-.03 0-.05.02-.06.03l-.02-.04a.17.17 0 0 0 .05-.04zm.42.04h.03l.03.03-.04.05-.03-.02V7.8h.01zm-.38.08l.03.02-.02.01-.02-.02zm.06.07h.01L4.31 8l-.03-.01a.1.1 0 0 0 .05-.04zm.04.1c.02 0 .04.03.06.07a.13.13 0 0 0-.04.03l-.03-.02h.03v-.04l-.03.02v-.01a.1.1 0 0 0 .01-.06z" fill="#e6e6e6"/></svg>
