<svg xmlns="http://www.w3.org/2000/svg" width="48" height="48" viewBox="0 0 12.7 12.7"><path fill="#e6e6e6" d="M6.344.073a6.29 6.29 0 0 0-6.29 6.29 6.29 6.29 0 0 0 6.29 6.288 6.29 6.29 0 0 0 6.29-6.289 6.29 6.29 0 0 0-6.29-6.29zm-.018.936a5.407 5.407 0 0 1 5.407 5.407 5.407 5.407 0 0 1-5.407 5.407A5.407 5.407 0 0 1 .92 6.416 5.407 5.407 0 0 1 6.326 1.01z"/><path fill="#f60" d="M6.394 1.868c-.238 0-.493.065-.769.21l-.389 1.374c.786.393 1.54.333 2.275 0l-.445-1.414a1.446 1.446 0 0 0-.672-.17zM4.77 5.032l-.438 1.481c1.458.675 2.82.624 4.07-.05l-.423-1.43c-1.048.341-2.109.482-3.209-.001zm3.632 1.43l.358 1.24c-1.116.991-3.473 1.359-4.78.014l.352-1.203-.75.002-1.187 2.783c-.003.166.024.399.321.464l7.31.012c.314-.193.29-.327.272-.495L9.13 6.476z" opacity=".75"/></svg>