<svg xmlns="http://www.w3.org/2000/svg" width="48" height="48" viewBox="0 0 12.7 12.7"><path d="M6.34.08A6.27 6.27 0 0 0 .08 6.34a6.27 6.27 0 0 0 6.26 6.27 6.27 6.27 0 0 0 6.27-6.27A6.27 6.27 0 0 0 6.34.08zM6.33 1A5.39 5.39 0 0 1 11.7 6.4a5.39 5.39 0 0 1-5.38 5.39 5.39 5.39 0 0 1-5.4-5.4 5.39 5.39 0 0 1 5.4-5.38zM5.9 2.1l-.1 1.27a3.02 3.02 0 0 0-1.17.48l-.95-.83-.65.65.83.95a3.02 3.02 0 0 0-.48 1.18l-1.26.09v.9l1.26.1a3.02 3.02 0 0 0 .48 1.17l-.83.95.65.64.95-.82a3.02 3.02 0 0 0 1.18.48l.09 1.26h.9l.06-.78a2.12 2.12 0 0 1-.03-.04 2.12 2.12 0 0 1-.13-.17 2.12 2.12 0 0 1-.11-.18 2.12 2.12 0 0 1-.1-.19 2.12 2.12 0 0 1-.07-.2 2.12 2.12 0 0 1-.05-.2 2.12 2.12 0 0 1-.03-.21 2.12 2.12 0 0 1-.01-.21 2.12 2.12 0 0 1 0-.15 2.12 2.12 0 0 1 .03-.21 2.12 2.12 0 0 1 .05-.2 2.12 2.12 0 0 1 .06-.2 2.12 2.12 0 0 1 .09-.2 2.12 2.12 0 0 1 .1-.19 2.12 2.12 0 0 1 .13-.17 2.12 2.12 0 0 1 .14-.16 2.12 2.12 0 0 1 .15-.14 2.12 2.12 0 0 1 .17-.13 2.12 2.12 0 0 1 .18-.11 2.12 2.12 0 0 1 .2-.1 2.12 2.12 0 0 1 .2-.06 2.12 2.12 0 0 1 .2-.06 2.12 2.12 0 0 1 .2-.03 2.12 2.12 0 0 1 .22 0 2.12 2.12 0 0 1 .15 0 2.12 2.12 0 0 1 .2.02 2.12 2.12 0 0 1 .21.05 2.12 2.12 0 0 1 .2.06 2.12 2.12 0 0 1 .2.1 2.12 2.12 0 0 1 .18.1 2.12 2.12 0 0 1 .17.12 2.12 2.12 0 0 1 .13.11l.7-.05v-.9l-1.27-.1a3.02 3.02 0 0 0-.48-1.17l.83-.95-.65-.65-.95.83a3.02 3.02 0 0 0-1.18-.48L6.8 2.12h-.9zM5.78 4.4a1.06 1.06 0 0 1 1.05 1.06 1.06 1.06 0 0 1-1.05 1.06 1.06 1.06 0 0 1-1.06-1.06 1.06 1.06 0 0 1 1.06-1.06zm2.67 2.16A1.85 1.85 0 0 0 6.59 8.4a1.85 1.85 0 0 0 1.86 1.85A1.85 1.85 0 0 0 10.3 8.4a1.85 1.85 0 0 0-1.85-1.85zm-1 .79h.76-.76zm.13.13h.66c.03 0 .05.03.05.06v.66c0 .03-.02.05-.05.05h-.66a.05.05 0 0 1-.06-.05v-.66c0-.03.02-.06.06-.06zm1.08 0h.66c.03 0 .05.03.05.06v.66c0 .03-.02.05-.05.05h-.66a.06.06 0 0 1-.06-.05v-.66c0-.03.03-.06.06-.06zM7.58 8.55h.66c.03 0 .05.03.05.06v.66c0 .03-.02.05-.05.05h-.66a.05.05 0 0 1-.06-.05V8.6c0-.03.02-.06.06-.06zm1.08 0h.66c.03 0 .05.03.05.06v.66c0 .03-.02.05-.05.05h-.66a.05.05 0 0 1-.06-.05V8.6c0-.03.03-.06.06-.06z" fill="#e6e6e6"/></svg>
