<svg xmlns="http://www.w3.org/2000/svg" width="48" height="48" viewBox="0 0 12.7 12.7"><path fill="#e6e6e6" d="M6.344.073a6.29 6.29 0 0 0-6.29 6.29 6.29 6.29 0 0 0 6.29 6.288 6.29 6.29 0 0 0 6.29-6.289 6.29 6.29 0 0 0-6.29-6.29zm-.018.936a5.407 5.407 0 0 1 5.407 5.407 5.407 5.407 0 0 1-1.207 3.398l-.696-.692a.327.327 0 0 0 .143-.266v-5.68a.333.333 0 0 0-.335-.334H3.123a.333.333 0 0 0-.334.334v5.68c0 .185.149.334.334.334H8.73l1.23 1.222a5.407 5.407 0 0 1-3.634 1.411A5.407 5.407 0 0 1 .92 6.416 5.407 5.407 0 0 1 6.326 1.01zm-3.11 3.086h6.33c.097 0 .176.08.176.18V8.76c0 .07-.04.129-.097.158L7.48 6.79c-.224-.222-.341-.413-.401-.563a.85.85 0 0 0-.08-.627c-.138-.248-.43-.467-.738-.575a.062.062 0 0 0-.074.02.067.067 0 0 0-.007.076l.378.677c.034.06.016.139-.039.219a.765.765 0 0 1-.264.224.782.782 0 0 1-.333.103c-.098.006-.175-.024-.21-.084l-.38-.682a.067.067 0 0 0-.05-.034c-.022-.005-.044.007-.058.022a.061.061 0 0 0-.016.03c-.073.315-.039.677.1.925.19.34.585.501.972.433.158.053.367.17.616.417l1.581 1.57H3.215a.177.177 0 0 1-.175-.18V4.275c0-.1.078-.18.175-.18z"/></svg>