<svg xmlns="http://www.w3.org/2000/svg" width="48" height="48" viewBox="0 0 12.7 12.7"><defs><linearGradient id="a" x1="164.79" x2="189.7" y1="60.1" y2="307.59" gradientUnits="userSpaceOnUse"><stop stop-color="#0ba05d" offset="0"/><stop stop-color="#12715f" offset="1"/></linearGradient></defs><path d="M6.34.07a6.29 6.29 0 0 0-6.29 6.3 6.29 6.29 0 0 0 6.3 6.28 6.29 6.29 0 0 0 6.28-6.29A6.29 6.29 0 0 0 6.34.07zM6.32 1l.01.01a5.4 5.4 0 0 1 5.4 5.4 5.4 5.4 0 0 1-5.4 5.41 5.4 5.4 0 0 1-5.41-5.4A5.4 5.4 0 0 1 6.32 1z" fill="#e6e6e6"/><path d="M5.13 2.06c-.13.01-.19.04-.24.1-.05.07-.1.09-.3.1-.15.02-.26.05-.3.08a.57.57 0 0 0-.15.36c0 .07 0 .08.12.06.08-.01.19 0 .25.02.1.03.11.05.08.08-.02.03-.1.02-.18.02-.17 0-.18.05-.07.18l.08.1.13-.08c.14-.08.25-.06.35 0 .04.02.22.05.4.06.3.02.22.02.3.1.04.06.1.14.1.2 0 .22-.15.6-.6 1.13-.22.26-.26.75-.26.88 0 .04-.01.08-.03.1-.03.01-.05-.11-.08-.51-.04-.4-.11-.63-.28-.8a.65.65 0 0 0-.3-.2C4 4 3.99 3.97 4.13 3.91c.05-.02.1-.05.1-.07 0-.04-.15-.07-.25-.05-.1.02-.1 0-.01-.1.17-.18-.13-.14-.44.07-.27.18-.44.37-.47.51-.02.09-.07.16-.19.27-.21.2-.26.3-.23.49.04.27.07.3.2.14.07-.1.26-.2.3-.16.03.04-.06.15-.16.21-.12.08-.12.13 0 .17.13.05.15.03.22-.1.08-.16.17-.25.3-.3.07-.01.19-.1.27-.17a.72.72 0 0 1 .2-.14c.06 0 .19.15.22.28.02.07.05.35.07.61.06.84.14.95.45 1.61.1.21.17.4.17.43 0 .04-.25.05-.44.07-.46.04-.65.2-.68.55-.01.13 0 .2.04.29.1.17.15.17.12-.01-.02-.15.04-.25.08-.13.03.08.14.2.2.2.05 0 .05 0 0-.1-.03-.1 0-.11.08-.04.09.06.12.03.1-.1-.04-.23.31-.42.73-.3.2.07.25.07.34.04.17-.06.41-.05.52.05.12.1.03.34-.05.45-.08.11-.2.16-.52.2-.15.02-.32.05-.36.08a.37.37 0 0 0-.15.28c0 .09.04.08.12-.01.04-.05.1-.09.14-.09.08 0 .08.02 0 .13-.06.07-.1.27-.05.27.01 0 .07-.05.13-.12.06-.06.14-.11.18-.11.08 0 .08.02.02.11-.05.07-.07.28-.03.28.02 0 .06-.05.1-.1.06-.1.13-.15.4-.26.05-.03.27-.23.48-.45.37-.4.37-.4.36-.54l-.01-.14.38-.04c.33-.12.51-.13.7-.03.27.14.51.37.48.59-.03.16-.12.47-.34.49-.53-.01-1.28.33-1.2.83.07.33.5.56.94.65.14.04.32.05.55.04.58-.03.95-.06 1.25-.37.12-.12.26-.4.31-.53l.29.15v-.75l-.75.33.4.23c-.05.03-.11.13-.18.2-.3.31-.51.31-.89.36-.3.04-.65 0-.86-.1-.18-.07-.31-.24-.31-.36s.14-.22.3-.23c.46-.01.54-.06.54-.06.33-.1.64-.66.64-1.02 0-.09.01-.2.03-.25.03-.07.01-.12-.08-.32-.08-.16-.1-.18-.1-.24.02-.06 0-.11-.17-.27-.17-.17-.18-.26-.15-.31a.32.32 0 0 0 .04-.08.9.9 0 0 0-.19-.12l-.27-.16c-.07-.05-.07-.07-.03-.12.02-.03.03-.06.02-.07a1.52 1.52 0 0 0-.27-.07c-.32-.06-.37-.08-.38-.2 0-.04-.02-.08-.03-.08a19 19 0 0 0-.35.06c-.35.06-.43.06-.43-.05 0-.08 0-.08-.22.03-.36.2-.65.08-.56-.22l.14-.28c.2-.3.6-.4 1.34-.43.4-.02.59-.04.7-.1.2-.08.63-.38.7-.53.04-.06.08-.12.1-.12.07 0 .15-.14.15-.24 0-.15.07-.14.11.01.04.16.1.08.1-.11 0-.16.02-.18.1-.07.08.11.1.04.06-.19a3.45 3.45 0 0 0-.45-.88c-.04-.04-.33-.09-.38-.1-.07-.02-.16-.07-.26-.24a.87.87 0 0 0-.23-.27c-.08-.04-.1-.04-.23.01-.16.06-.17.09-.1.15s.18.3.18.4c0 .07 0 .07-.07 0-.03-.03-.14-.1-.17-.17-.04-.11-.05-.11-.1-.05a.25.25 0 0 0 .06.34c.11.08.2.25.25.43 0 .06.05.16.08.22.13.2.1.7-.1.8a2.6 2.6 0 0 1-.62.08c-.78.05-1.14.15-1.51.52-.18.17-.2.18-.17.09.03-.14.05-.34.37-.76.42-.54.47-.67.47-1.06 0-.34-.15-.72-.5-1-.08-.05-.13-.1-.12-.12 0-.02.08-.03.15-.03.15 0 .16-.05 0-.14a1.87 1.87 0 0 0-.75-.12z" fill="#0ba05d" opacity=".75"/></svg>
