<svg xmlns="http://www.w3.org/2000/svg" width="48" height="48" viewBox="0 0 12.7 12.7"><path d="M6.34.07a6.29 6.29 0 0 0-6.29 6.3 6.29 6.29 0 0 0 6.3 6.28 6.29 6.29 0 0 0 6.28-6.29A6.29 6.29 0 0 0 6.34.07zM6.32 1l.01.01a5.4 5.4 0 0 1 5.4 5.4 5.4 5.4 0 0 1-5.4 5.41 5.4 5.4 0 0 1-5.41-5.4A5.4 5.4 0 0 1 6.32 1zm1.62 5.88l-.04.42a1.26 1.25 0 0 0-.37.21l-.38-.18-.4.69.35.24a1.26 1.25 0 0 0-.02.2 1.26 1.25 0 0 0 .02.22l-.35.24.4.69.38-.18a1.26 1.25 0 0 0 .37.2l.04.43h.8l.03-.42a1.26 1.25 0 0 0 .37-.21l.38.18.4-.69-.34-.24a1.26 1.25 0 0 0 .02-.21 1.26 1.25 0 0 0-.02-.21l.34-.24-.4-.69-.38.18a1.26 1.25 0 0 0-.37-.2l-.03-.43h-.8zm.4 1.14a.46.45 0 0 1 .46.45.46.45 0 0 1-.46.45.46.45 0 0 1-.46-.45.46.45 0 0 1 .46-.45z" fill="#e6e6e6"/><g stroke="#e6e6e6" fill="none" stroke-width="4" stroke-linecap="round" stroke-linejoin="round"><path d="M3.84 8.2l3.7-5.02M3.31 3.18l2.12 2.38" stroke-width="1.05832"/></g></svg>
