<svg xmlns="http://www.w3.org/2000/svg" width="48" height="48" viewBox="0 0 12.7 12.7"><path d="M6.34.07a6.29 6.29 0 0 0-6.29 6.3 6.29 6.29 0 0 0 6.3 6.28 6.29 6.29 0 0 0 6.28-6.29A6.29 6.29 0 0 0 6.34.07zM6.32 1l.01.01a5.4 5.4 0 0 1 5.4 5.4 5.4 5.4 0 0 1-5.4 5.41 5.4 5.4 0 0 1-5.41-5.4A5.4 5.4 0 0 1 6.32 1z" fill="#e6e6e6"/><g stroke="#e6e6e6" fill="none" stroke-width="4" stroke-linecap="round" stroke-linejoin="round"><path d="M3.97 8.2l3.7-5.02M3.44 3.18l2.12 2.38" stroke-width="1.05832"/></g><path d="M7.54 9.66V7.28H9.4V8.6H7.54" fill="none" stroke="#e6e6e6" stroke-width=".79" stroke-linecap="round" stroke-linejoin="round"/></svg>
