<svg xmlns="http://www.w3.org/2000/svg" width="24" height="24"><path d="M12 1.71A10.18 10.29 0 0 0 1.82 12 10.18 10.29 0 0 0 12 22.29a10.18 10.29 0 0 0 10.18-10.3A10.18 10.29 0 0 0 12 1.72zm0 1A9.19 9.29 0 0 1 21.19 12 9.19 9.29 0 0 1 12 21.29a9.19 9.29 0 0 1-9.19-9.3A9.19 9.29 0 0 1 12 2.72zM6.92 7.83c-.28 0-.6.04-.93.12-.34.08-.7.2-1.1.36v.98c.4-.21.75-.37 1.08-.48.34-.1.66-.16.97-.16.42 0 .77.12 1.03.36.27.24.4.56.4.94 0 .23-.06.47-.18.72-.12.24-.34.53-.65.88-.16.19-.56.6-1.2 1.25l-1.49 1.54v.82h4.53v-.82H6.01a609.8 609.8 0 0 0 2.57-2.67c.3-.37.5-.68.6-.94.11-.27.17-.55.17-.84 0-.63-.22-1.13-.66-1.5a2.65 2.65 0 0 0-1.77-.56zm9.55.13l-1.71.35v.88l1.72-.34v5.5H14.9v.81H19v-.82h-1.58V7.96zm-4.95 2.1v1.22h1v-1.23zm0 3.88v1.22h1v-1.22z" fill="#2c89a0" paint-order="markers fill stroke"/></svg>