<?xml version="1.0" encoding="UTF-8" standalone="no"?>
<svg
   xmlns:dc="http://purl.org/dc/elements/1.1/"
   xmlns:cc="http://creativecommons.org/ns#"
   xmlns:rdf="http://www.w3.org/1999/02/22-rdf-syntax-ns#"
   xmlns:svg="http://www.w3.org/2000/svg"
   xmlns="http://www.w3.org/2000/svg"
   xmlns:sodipodi="http://sodipodi.sourceforge.net/DTD/sodipodi-0.dtd"
   xmlns:inkscape="http://www.inkscape.org/namespaces/inkscape"
   width="48"
   height="48"
   viewBox="0 0 12.7 12.7"
   version="1.1"
   id="svg4"
   sodipodi:docname="meld.svg"
   inkscape:version="0.92.4 (5da689c313, 2019-01-14)">
  <metadata
     id="metadata10">
    <rdf:RDF>
      <cc:Work
         rdf:about="">
        <dc:format>image/svg+xml</dc:format>
        <dc:type
           rdf:resource="http://purl.org/dc/dcmitype/StillImage" />
        <dc:title></dc:title>
      </cc:Work>
    </rdf:RDF>
  </metadata>
  <defs
     id="defs8" />
  <sodipodi:namedview
     pagecolor="#ffffff"
     bordercolor="#666666"
     borderopacity="1"
     objecttolerance="10"
     gridtolerance="10"
     guidetolerance="10"
     inkscape:pageopacity="0"
     inkscape:pageshadow="2"
     inkscape:window-width="1087"
     inkscape:window-height="480"
     id="namedview6"
     showgrid="false"
     inkscape:zoom="4.9166667"
     inkscape:cx="2.1355932"
     inkscape:cy="24"
     inkscape:window-x="0"
     inkscape:window-y="25"
     inkscape:window-maximized="0"
     inkscape:current-layer="svg4" />
  <path
     d="m 6.344,0.073 a 6.29,6.29 0 0 0 -6.29,6.29 6.29,6.29 0 0 0 6.29,6.288 6.29,6.29 0 0 0 6.29,-6.289 6.29,6.29 0 0 0 -6.29,-6.29 z M 6.326,1.009 A 5.407,5.407 0 0 1 11.733,6.416 5.407,5.407 0 0 1 6.326,11.823 5.407,5.407 0 0 1 0.92,6.416 5.407,5.407 0 0 1 6.326,1.01 Z M 3.191,2.584 A 0.601,0.601 0 0 0 2.589,3.187 v 6.326 c 0,0.334 0.268,0.603 0.602,0.603 H 9.508 A 0.601,0.601 0 0 0 10.111,9.513 V 3.187 A 0.601,0.601 0 0 0 9.508,2.584 Z m 0.283,0.337 h 5.752 c 0.304,0 0.549,0.245 0.549,0.55 v 5.758 c 0,0.305 -0.245,0.55 -0.549,0.55 H 3.474 A 0.548,0.548 0 0 1 2.924,9.229 V 3.471 c 0,-0.305 0.246,-0.55 0.55,-0.55 z m 1.623,0.431 h -1.74 v 4.024 l 0.315,0.23 H 3.674 C 4.541,8.196 5.118,8.389 5.827,8.346 6.841,8.286 7.612,7.582 7.612,6.751 7.612,6.449 7.5,6.149 7.338,5.941 7.176,5.732 6.975,5.626 6.815,5.626 c -0.11,0 -0.182,0.046 -0.271,0.077 0.013,0 0.026,-0.005 0.04,-0.004 a 0.831,0.831 0 0 1 0.489,0.23 c 0.19,0.174 0.285,0.417 0.285,0.688 0,0.75 -0.614,1.35 -1.41,1.347 C 4.823,7.959 4.006,6.913 4.011,5.718 4.015,4.848 4.348,4.124 5.097,3.352 Z M 7.13,4.348 c -0.082,-0.003 -0.165,0 -0.257,0.005 -1.014,0.06 -1.785,0.764 -1.785,1.595 0,0.302 0.112,0.603 0.274,0.811 0.162,0.209 0.363,0.314 0.523,0.314 0.11,0 0.182,-0.046 0.271,-0.077 -0.013,0 -0.026,0.006 -0.04,0.005 A 0.833,0.833 0 0 1 5.627,6.77 0.904,0.904 0 0 1 5.342,6.082 c 0,-0.75 0.614,-1.35 1.41,-1.347 C 7.877,4.74 8.694,5.787 8.689,6.981 8.685,7.852 8.352,8.576 7.603,9.347 h 1.74 V 5.324 L 9.027,5.094 C 8.268,4.58 7.725,4.37 7.13,4.35 Z"
     id="path2"
     inkscape:connector-curvature="0"
     style="fill:#2c89a0" />
</svg>
