<?xml version="1.0" encoding="UTF-8" standalone="no"?>
<svg
   xmlns:dc="http://purl.org/dc/elements/1.1/"
   xmlns:cc="http://creativecommons.org/ns#"
   xmlns:rdf="http://www.w3.org/1999/02/22-rdf-syntax-ns#"
   xmlns:svg="http://www.w3.org/2000/svg"
   xmlns="http://www.w3.org/2000/svg"
   xmlns:sodipodi="http://sodipodi.sourceforge.net/DTD/sodipodi-0.dtd"
   xmlns:inkscape="http://www.inkscape.org/namespaces/inkscape"
   width="48"
   height="48"
   viewBox="0 0 12.7 12.7"
   version="1.1"
   id="svg6"
   sodipodi:docname="pling-store.svg"
   inkscape:version="0.92.4 (5da689c313, 2019-01-14)">
  <metadata
     id="metadata12">
    <rdf:RDF>
      <cc:Work
         rdf:about="">
        <dc:format>image/svg+xml</dc:format>
        <dc:type
           rdf:resource="http://purl.org/dc/dcmitype/StillImage" />
        <dc:title></dc:title>
      </cc:Work>
    </rdf:RDF>
  </metadata>
  <defs
     id="defs10" />
  <sodipodi:namedview
     pagecolor="#ffffff"
     bordercolor="#666666"
     borderopacity="1"
     objecttolerance="10"
     gridtolerance="10"
     guidetolerance="10"
     inkscape:pageopacity="0"
     inkscape:pageshadow="2"
     inkscape:window-width="1112"
     inkscape:window-height="480"
     id="namedview8"
     showgrid="false"
     inkscape:zoom="4.9166667"
     inkscape:cx="2.1355932"
     inkscape:cy="24"
     inkscape:window-x="0"
     inkscape:window-y="25"
     inkscape:window-maximized="0"
     inkscape:current-layer="svg6" />
  <path
     d="m 6.34,0.07 a 6.29,6.29 0 1 0 0,12.58 6.29,6.29 0 0 0 0,-12.58 z M 6.32,1 A 5.417,5.417 0 0 1 11.73,6.41 5.4,5.4 0 0 1 6.33,11.82 5.4,5.4 0 0 1 0.92,6.42 5.4,5.4 0 0 1 6.32,1 Z"
     id="path2"
     inkscape:connector-curvature="0"
     style="fill:#2c89a0" />
  <path
     d="M 6.38,1.43 A 1.69,1.69 0 0 0 4.71,3.12 v 0.56 h -1.1 a 0.61,0.61 0 0 0 -0.6,0.61 v 5.52 c 0,0.34 0.28,0.62 0.61,0.62 h 5.52 c 0.34,0 0.62,-0.28 0.62,-0.62 V 4.29 A 0.61,0.61 0 0 0 9.14,3.68 H 8.07 V 3.12 A 1.69,1.69 0 0 0 6.38,1.43 Z m 0,0.56 H 6.39 6.385 A 1.122,1.122 0 0 1 7.51,3.12 V 3.68 H 5.26 V 3.12 C 5.26,2.492 5.757,1.993 6.385,1.99 Z M 4.96,4.24 c 0.16,0 0.3,0.13 0.3,0.28 A 0.3,0.3 0 0 1 4.96,4.81 0.28,0.28 0 0 1 4.68,4.52 C 4.68,4.37 4.8,4.24 4.96,4.24 Z m 2.81,0 c 0.16,0 0.3,0.13 0.3,0.28 0,0.16 -0.14,0.29 -0.3,0.29 A 0.28,0.28 0 0 1 7.49,4.52 C 7.49,4.37 7.61,4.24 7.77,4.24 Z M 6.447,5.292 A 1.211,1.211 0 0 1 7.667,6.235 1.284,1.284 0 0 1 6.72,7.752 C 6.6,7.775 6.458,7.807 6.332,7.842 L 6.603,9.039 C 6.649,9.24 6.493,9.45 6.255,9.509 6.017,9.569 5.788,9.455 5.743,9.254 L 5.007,6 C 4.97,5.803 5.189,5.561 5.411,5.515 5.655,5.454 5.929,5.384 6.199,5.324 6.282,5.304 6.365,5.294 6.447,5.292 Z M 6.439,6.062 A 0.45,0.547 78.331 0 0 6.278,6.079 L 5.966,6.151 6.178,7.023 6.481,6.953 A 0.45,0.547 78.331 0 0 6.491,6.952 0.45,0.547 78.331 0 0 6.917,6.392 0.45,0.547 78.331 0 0 6.439,6.062 Z"
     id="path4"
     inkscape:connector-curvature="0"
     style="fill:#ffa123" />
</svg>
