<?xml version="1.0" encoding="UTF-8" standalone="no"?>
<svg
   xmlns:dc="http://purl.org/dc/elements/1.1/"
   xmlns:cc="http://creativecommons.org/ns#"
   xmlns:rdf="http://www.w3.org/1999/02/22-rdf-syntax-ns#"
   xmlns:svg="http://www.w3.org/2000/svg"
   xmlns="http://www.w3.org/2000/svg"
   xmlns:sodipodi="http://sodipodi.sourceforge.net/DTD/sodipodi-0.dtd"
   xmlns:inkscape="http://www.inkscape.org/namespaces/inkscape"
   width="48"
   height="48"
   version="1"
   id="svg11"
   sodipodi:docname="rubymine.svg"
   inkscape:version="0.92.4 (5da689c313, 2019-01-14)">
  <metadata
     id="metadata15">
    <rdf:RDF>
      <cc:Work
         rdf:about="">
        <dc:format>image/svg+xml</dc:format>
        <dc:type
           rdf:resource="http://purl.org/dc/dcmitype/StillImage" />
        <dc:title></dc:title>
      </cc:Work>
    </rdf:RDF>
  </metadata>
  <sodipodi:namedview
     pagecolor="#ffffff"
     bordercolor="#666666"
     borderopacity="1"
     objecttolerance="10"
     gridtolerance="10"
     guidetolerance="10"
     inkscape:pageopacity="0"
     inkscape:pageshadow="2"
     inkscape:window-width="1087"
     inkscape:window-height="480"
     id="namedview13"
     showgrid="false"
     inkscape:zoom="4.9166667"
     inkscape:cx="2.1355932"
     inkscape:cy="24"
     inkscape:window-x="0"
     inkscape:window-y="25"
     inkscape:window-maximized="0"
     inkscape:current-layer="svg11" />
  <defs
     id="defs7">
    <linearGradient
       id="a">
      <stop
         offset="0"
         stop-color="#040000"
         id="stop2" />
      <stop
         offset="1"
         stop-opacity="0"
         id="stop4" />
    </linearGradient>
  </defs>
  <path
     d="M 24,0.23 A 23.77,23.77 0 0 0 0.23,24.01 23.77,23.77 0 0 0 24,47.77 23.77,23.77 0 0 0 47.77,24 23.77,23.77 0 0 0 24,0.23 Z M 23.93,3.77 A 20.44,20.44 0 0 1 44.37,24.21 20.44,20.44 0 0 1 23.93,44.64 20.44,20.44 0 0 1 3.5,24.21 20.44,20.44 0 0 1 23.93,3.77 Z m 0,3 A 17.44,17.44 0 0 0 6.5,24.22 17.44,17.44 0 0 0 23.93,41.66 17.44,17.44 0 0 0 41.37,24.2 17.44,17.44 0 0 0 23.93,6.77 Z m -8.99,6.67 h 0.46 c 1.05,0 2.02,0.37 2.93,1.1 v 0.04 c -0.16,0.28 -0.29,0.45 -0.38,0.5 a 4.5,4.5 0 0 0 -2.67,-0.96 h -0.1 c -1.8,0 -3.15,0.9 -4.05,2.67 a 4.1,4.1 0 0 0 -0.34,1.71 v 0.12 c 0,1.38 0.64,2.56 1.9,3.54 -0.19,0.3 -0.33,0.49 -0.41,0.53 -1.45,-1.13 -2.17,-2.45 -2.17,-3.96 v -0.45 c 0,-1.52 0.73,-2.84 2.2,-3.97 a 4.75,4.75 0 0 1 2.63,-0.87 z m 9.71,0 h 0.5 c 1.26,0 2.46,0.5 3.59,1.52 a 5.3,5.3 0 0 1 3.6,-1.52 h 0.49 c 1.64,0 3.08,0.8 4.3,2.4 0.63,0.95 0.95,1.9 0.95,2.85 v 0.5 c 0,1.27 -0.5,2.44 -1.49,3.5 l -0.5,-0.46 V 22.2 c 0.83,-1 1.24,-2.05 1.24,-3.14 v -0.13 c 0,-1.95 -0.96,-3.4 -2.89,-4.38 a 4.5,4.5 0 0 0 -1.86,-0.37 h -0.12 c -1.2,0 -2.27,0.46 -3.23,1.36 0.8,1 1.2,2.1 1.2,3.35 v 0.08 c 0,1.43 -0.5,2.67 -1.48,3.72 l -0.54,-0.5 a 4.8,4.8 0 0 0 1.28,-3.3 c 0,-1.79 -0.9,-3.2 -2.68,-4.25 A 5.12,5.12 0 0 0 25.02,14.18 H 24.9 c -1.95,0 -3.41,0.97 -4.38,2.9 a 4.5,4.5 0 0 0 -0.37,1.85 v 0.13 c 0,1.09 0.41,2.13 1.24,3.14 v 0.03 l -0.5,0.46 a 5.05,5.05 0 0 1 -1.49,-3.5 v -0.5 c 0,-1.65 0.8,-3.08 2.4,-4.3 0.95,-0.63 1.9,-0.95 2.85,-0.95 z M 10.38,24.5 h 19.75 c 0.15,0 0.28,0.13 0.28,0.29 0,0.15 -0.13,0.28 -0.28,0.28 H 10.38 a 0.28,0.28 0 0 1 -0.29,-0.28 c 0,-0.16 0.13,-0.29 0.29,-0.29 z"
     id="path9"
     inkscape:connector-curvature="0"
     style="fill:#2c89a0" />
</svg>
