<?xml version="1.0" encoding="UTF-8" standalone="no"?>
<svg
   xmlns:dc="http://purl.org/dc/elements/1.1/"
   xmlns:cc="http://creativecommons.org/ns#"
   xmlns:rdf="http://www.w3.org/1999/02/22-rdf-syntax-ns#"
   xmlns:svg="http://www.w3.org/2000/svg"
   xmlns="http://www.w3.org/2000/svg"
   xmlns:sodipodi="http://sodipodi.sourceforge.net/DTD/sodipodi-0.dtd"
   xmlns:inkscape="http://www.inkscape.org/namespaces/inkscape"
   width="48"
   height="48"
   viewBox="0 0 12.7 12.7"
   version="1.1"
   id="svg8"
   sodipodi:docname="github.svg"
   inkscape:version="0.92.4 (5da689c313, 2019-01-14)">
  <metadata
     id="metadata14">
    <rdf:RDF>
      <cc:Work
         rdf:about="">
        <dc:format>image/svg+xml</dc:format>
        <dc:type
           rdf:resource="http://purl.org/dc/dcmitype/StillImage" />
        <dc:title></dc:title>
      </cc:Work>
    </rdf:RDF>
  </metadata>
  <defs
     id="defs12" />
  <sodipodi:namedview
     pagecolor="#ffffff"
     bordercolor="#666666"
     borderopacity="1"
     objecttolerance="10"
     gridtolerance="10"
     guidetolerance="10"
     inkscape:pageopacity="0"
     inkscape:pageshadow="2"
     inkscape:window-width="1087"
     inkscape:window-height="480"
     id="namedview10"
     showgrid="false"
     inkscape:zoom="4.9166667"
     inkscape:cx="2.1355932"
     inkscape:cy="24"
     inkscape:window-x="0"
     inkscape:window-y="25"
     inkscape:window-maximized="0"
     inkscape:current-layer="svg8" />
  <g
     id="g6"
     style="fill:#7F7F7F">
    <path
       d="M 6.34,0.07 A 6.29,6.29 0 0 0 0.05,6.36 6.29,6.29 0 0 0 6.35,12.65 6.29,6.29 0 0 0 12.63,6.35 6.29,6.29 0 0 0 6.34,0.08 Z M 6.33,1.01 a 5.4,5.4 0 0 1 5.4,5.4 5.4,5.4 0 0 1 -5.4,5.41 A 5.4,5.4 0 0 1 0.92,6.42 5.4,5.4 0 0 1 6.32,1 Z"
       id="path2"
       inkscape:connector-curvature="0" />
    <path
       d="M 4,2.43 A 0.24,0.24 0 0 0 3.92,2.44 C 3.64,3.14 3.82,3.66 3.87,3.79 A 1.97,1.97 0 0 0 3.35,5.16 c 0,1.95 1.19,2.4 2.32,2.52 C 5.52,7.81 5.39,8.03 5.35,8.36 5.05,8.49 4.32,8.72 3.86,7.94 c 0,0 -0.27,-0.5 -0.78,-0.53 0,0 -0.5,0 -0.03,0.31 0,0 0.33,0.16 0.56,0.75 0,0 0.3,0.99 1.72,0.68 v 0.87 c 0,0.12 -0.06,0.25 -0.25,0.25 h 3.04 c -0.19,0 -0.26,-0.13 -0.26,-0.25 L 7.87,8.62 C 7.87,8.14 7.71,7.83 7.52,7.68 8.66,7.55 9.85,7.12 9.85,5.16 9.85,4.6 9.65,4.15 9.33,3.79 9.38,3.66 9.55,3.14 9.28,2.44 c 0,0 -0.43,-0.14 -1.4,0.52 a 4.86,4.86 0 0 0 -2.56,0 C 4.6,2.47 4.17,2.42 4,2.43 Z"
       id="path4"
       inkscape:connector-curvature="0" />
  </g>
</svg>
