<?xml version="1.0" encoding="UTF-8" standalone="no"?>
<svg
   xmlns:dc="http://purl.org/dc/elements/1.1/"
   xmlns:cc="http://creativecommons.org/ns#"
   xmlns:rdf="http://www.w3.org/1999/02/22-rdf-syntax-ns#"
   xmlns:svg="http://www.w3.org/2000/svg"
   xmlns="http://www.w3.org/2000/svg"
   xmlns:sodipodi="http://sodipodi.sourceforge.net/DTD/sodipodi-0.dtd"
   xmlns:inkscape="http://www.inkscape.org/namespaces/inkscape"
   width="48"
   height="48"
   viewBox="0 0 12.7 12.7"
   version="1.1"
   id="svg12"
   sodipodi:docname="gdm-setup.svg"
   inkscape:version="0.92.4 (5da689c313, 2019-01-14)">
  <metadata
     id="metadata18">
    <rdf:RDF>
      <cc:Work
         rdf:about="">
        <dc:format>image/svg+xml</dc:format>
        <dc:type
           rdf:resource="http://purl.org/dc/dcmitype/StillImage" />
        <dc:title></dc:title>
      </cc:Work>
    </rdf:RDF>
  </metadata>
  <defs
     id="defs16" />
  <sodipodi:namedview
     pagecolor="#ffffff"
     bordercolor="#666666"
     borderopacity="1"
     objecttolerance="10"
     gridtolerance="10"
     guidetolerance="10"
     inkscape:pageopacity="0"
     inkscape:pageshadow="2"
     inkscape:window-width="1087"
     inkscape:window-height="480"
     id="namedview14"
     showgrid="false"
     inkscape:zoom="4.9166667"
     inkscape:cx="2.1355932"
     inkscape:cy="24"
     inkscape:window-x="0"
     inkscape:window-y="25"
     inkscape:window-maximized="0"
     inkscape:current-layer="svg12" />
  <path
     d="m 6.344,0.073 a 6.29,6.29 0 0 0 -6.29,6.29 6.29,6.29 0 0 0 6.29,6.288 6.29,6.29 0 0 0 6.29,-6.289 6.29,6.29 0 0 0 -6.29,-6.29 z M 6.326,1.009 A 5.407,5.407 0 0 1 11.733,6.416 5.407,5.407 0 0 1 6.326,11.823 5.407,5.407 0 0 1 0.92,6.416 5.407,5.407 0 0 1 6.326,1.01 Z"
     id="path2"
     inkscape:connector-curvature="0"
     style="fill:#7F7F7F" />
  <path
     d="m 49.69,59.135 -2.388,-3.03 a 0.311,0.311 0 0 0 -0.245,-0.12 h -6.274 a 0.311,0.311 0 0 0 -0.244,0.12 l -2.39,3.03 a 0.305,0.305 0 0 0 -0.067,0.193 v 8.516 c 0,0.172 0.14,0.313 0.312,0.313 h 11.05 c 0.171,0 0.312,-0.141 0.312,-0.313 v -8.516 a 0.289,0.289 0 0 0 -0.065,-0.193 z m -0.849,-0.068 h -4.608 v -2.456 h 2.673 z m -7.906,-2.456 h 2.672 v 2.456 H 39 Z m -2.228,10.92 V 59.692 H 49.13 v 7.84 z"
     id="path4"
     inkscape:connector-curvature="0" />
  <path
     d="M 2.424,3.052 A 0.381,0.381 0 0 0 2.042,3.434 v 5.918 c 0,0.212 0.17,0.382 0.382,0.382 h 7.827 c 0.212,0 0.382,-0.17 0.382,-0.382 V 3.434 A 0.381,0.381 0 0 0 10.251,3.052 Z m 0.391,0.469 h 7.023 c 0.19,0 0.342,0.147 0.342,0.33 v 5.13 A 0.336,0.336 0 0 1 9.838,9.313 H 2.815 A 0.336,0.336 0 0 1 2.472,8.982 v -5.13 c 0,-0.184 0.153,-0.331 0.343,-0.331 z"
     overflow="visible"
     style="color:#000000;overflow:visible;fill:#7F7F7F;fill-rule:evenodd;marker:none"
     id="path6"
     inkscape:connector-curvature="0" />
  <path
     d="m 4.744,4.365 c -0.16,0 -0.289,0.12 -0.305,0.276 A 0.166,0.166 0 0 1 4.595,4.533 h 3.532 c 0.072,0 0.132,0.045 0.156,0.108 A 0.306,0.306 0 0 0 7.978,4.365 Z m 3.539,0.276 c 0,0.01 0.003,0.021 0.003,0.032 V 5.899 L 8.283,5.933 A 0.167,0.167 0 0 0 8.295,5.872 V 4.7 A 0.167,0.167 0 0 0 8.283,4.64 Z m 0,1.292 A 0.166,0.166 0 0 1 8.127,6.039 H 4.595 A 0.167,0.167 0 0 1 4.439,5.933 0.306,0.306 0 0 0 4.744,6.206 h 3.234 c 0.16,0 0.288,-0.12 0.305,-0.273 z m -3.844,0 C 4.439,5.921 4.436,5.91 4.436,5.899 V 4.673 c 0,-0.011 0.002,-0.021 0.003,-0.032 a 0.169,0.169 0 0 0 -0.012,0.06 v 1.17 c 0,0.022 0.005,0.043 0.012,0.062 z m 0.76,-0.991 a 0.335,0.335 0 0 0 -0.344,0.335 0.335,0.335 0 0 0 0.67,0 0.335,0.335 0 0 0 -0.326,-0.335 z m 1.172,0 a 0.335,0.335 0 0 0 -0.345,0.335 0.335,0.335 0 0 0 0.67,0 0.335,0.335 0 0 0 -0.325,-0.335 z m 1.172,0 a 0.335,0.335 0 0 0 -0.345,0.335 0.335,0.335 0 0 0 0.67,0 0.335,0.335 0 0 0 -0.325,-0.335 z"
     id="path8"
     inkscape:connector-curvature="0"
     style="fill:#7F7F7F" />
  <path
     d="M 6.008,6.593 A 0.061,0.061 0 0 0 5.975,6.603 C 5.697,6.748 5.461,6.988 5.38,7.223 5.271,7.545 5.435,7.885 5.758,8.081 5.832,8.211 5.896,8.41 5.895,8.711 l -0.016,3.766 0.832,0.008 0.016,-3.766 c 0,-0.272 0.055,-0.459 0.12,-0.587 A 0.765,0.765 0 0 0 7.242,7.704 C 7.322,7.469 7.274,7.158 7.132,6.904 A 0.066,0.066 0 0 0 7.066,6.87 C 7.038,6.872 7.014,6.888 7.006,6.912 L 6.786,7.553 C 6.767,7.611 6.699,7.647 6.602,7.662 A 0.905,0.905 0 0 1 6.252,7.636 0.84,0.84 0 0 1 5.942,7.493 C 5.869,7.437 5.836,7.372 5.855,7.313 L 6.075,6.669 A 0.05,0.05 0 0 0 6.065,6.617 C 6.052,6.601 6.028,6.595 6.008,6.594 Z"
     id="path10"
     inkscape:connector-curvature="0"
     style="fill:#7F7F7F;fill-rule:evenodd" />
</svg>
