<svg xmlns="http://www.w3.org/2000/svg" width="48" height="48" viewBox="0 0 12.7 12.7"><path d="M6.344.073a6.29 6.29 0 0 0-6.29 6.29 6.29 6.29 0 0 0 6.29 6.288 6.29 6.29 0 0 0 6.29-6.289 6.29 6.29 0 0 0-6.29-6.29zm-.018.936a5.407 5.407 0 0 1 5.407 5.407 5.407 5.407 0 0 1-5.407 5.407A5.407 5.407 0 0 1 .92 6.416 5.407 5.407 0 0 1 6.326 1.01zm-.258.672c-1.95 0-3.553 1.773-3.52 3.372a8.17 8.17 0 0 0 .25 1.895c.01.064.024.127.044.191l.253.793c.184.58.73.935 1.225.797.495-.138.745-.716.561-1.296l-.251-.792c-.18-.564-.702-.912-1.186-.803-.034-.423-.026-.71-.026-.71 0-1.4 1.185-2.545 2.65-2.545 1.467 0 2.655 1.133 2.65 2.581a8.352 8.352 0 0 1-.03.663c-.464-.061-.944.278-1.115.814l-.251.792c-.184.58.066 1.158.56 1.296.496.138 1.042-.217 1.226-.797l.002-.006.514.19-.01 1.03c-.004.313-.086.506-.19.62a.533.533 0 0 1-.425.172H7.272c0-.326-.26-.59-.585-.59h-.009a.587.587 0 0 0-.585.59.586.586 0 0 0 .585.59.295.295 0 0 0 .006 0h2.314c.323 0 .64-.12.862-.365.222-.245.339-.594.342-1.013l.015-1.445-.927-.34c.017-.052.034-.113.052-.17l.018-.055.002-.012c.138-.475.264-1.124.264-2.019 0-1.669-1.609-3.428-3.558-3.428z" fill="#a02c2c"/></svg>