<svg xmlns="http://www.w3.org/2000/svg" width="48" height="48" viewBox="0 0 12.7 12.7"><path d="M6.344.073a6.29 6.29 0 0 0-6.29 6.29 6.29 6.29 0 0 0 6.29 6.288 6.29 6.29 0 0 0 6.29-6.289 6.29 6.29 0 0 0-6.29-6.29zm-.018.936a5.407 5.407 0 0 1 5.407 5.407 5.407 5.407 0 0 1-5.407 5.407A5.407 5.407 0 0 1 .92 6.416 5.407 5.407 0 0 1 6.326 1.01zm-1.289.825c-.913 0-1.648.734-1.648 1.648V5.13h2.473V1.834h-.825zm1.649 0V5.13h2.472V3.482c0-.914-.735-1.648-1.648-1.648h-.824zm-3.297 4.12v1.854c0 1.825 1.286 3.09 2.885 3.09 1.597 0 2.884-1.265 2.884-3.09V5.954H3.389z" fill="#a02c2c"/></svg>