<svg xmlns="http://www.w3.org/2000/svg" width="48" height="48" viewBox="0 0 12.7 12.7"><g font-weight="400" color="#bebebe" font-family="sans-serif" white-space="normal" fill="#a02c2c"><path d="M6.344.073C2.911.073.09 2.895.09 6.328s2.822 6.255 6.255 6.255S12.6 9.761 12.6 6.328 9.777.073 6.344.073zm0 3.574c1.502 0 2.681 1.18 2.681 2.681s-1.18 2.68-2.68 2.68-2.681-1.179-2.681-2.68 1.18-2.68 2.68-2.68z" overflow="visible" style="font-variant-ligatures:normal;font-variant-position:normal;font-variant-caps:normal;font-variant-numeric:normal;font-variant-alternates:normal;font-feature-settings:normal;text-indent:0;text-decoration-line:none;text-decoration-style:solid;text-decoration-color:#000;text-transform:none;text-orientation:mixed;shape-padding:0;isolation:auto;mix-blend-mode:normal"/><path d="M6.344 4.54c-.982 0-1.787.806-1.787 1.788s.805 1.787 1.787 1.787c.982 0 1.788-.805 1.788-1.787 0-.982-.806-1.787-1.788-1.787zm0 .894c.499 0 .894.395.894.894a.887.887 0 0 1-.894.894.887.887 0 0 1-.893-.894c0-.499.395-.894.893-.894z" overflow="visible" style="font-variant-ligatures:normal;font-variant-position:normal;font-variant-caps:normal;font-variant-numeric:normal;font-variant-alternates:normal;font-feature-settings:normal;text-indent:0;text-decoration-line:none;text-decoration-style:solid;text-decoration-color:#000;text-transform:none;text-orientation:mixed;shape-padding:0;isolation:auto;mix-blend-mode:normal"/></g></svg>