<svg xmlns="http://www.w3.org/2000/svg" width="48" height="48" viewBox="0 0 12.7 12.7"><path d="M6.344.073a6.29 6.29 0 0 0-6.29 6.29 6.29 6.29 0 0 0 6.29 6.288 6.29 6.29 0 0 0 6.29-6.289 6.29 6.29 0 0 0-6.29-6.29zm-.018.936a5.407 5.407 0 0 1 5.407 5.407 5.407 5.407 0 0 1-5.407 5.407A5.407 5.407 0 0 1 .92 6.416 5.407 5.407 0 0 1 6.326 1.01zm-2.36 1.469c-.284 0-.52.098-.72.276A.834.834 0 0 0 3 3.122a.757.757 0 0 0 .031.552l.49.98c.044.087.1.21.185.337.117-.035.242-.06.368-.06h4.69c.125 0 .25.025.367.06.085-.127.141-.25.184-.337l.49-.98a.755.755 0 0 0 .031-.552.834.834 0 0 0-.245-.368 1.048 1.048 0 0 0-.72-.276H3.966zm.062.981h4.781l-.383.767c-.058.116-.087.181-.107.214h-3.8c-.022-.032-.05-.098-.108-.215l-.383-.766zm.429 1.962c-.24 0-.459.07-.644.215a.85.85 0 0 0-.337.658v4.031H9.36v-4.03a.852.852 0 0 0-.337-.66 1.027 1.027 0 0 0-.644-.214H4.457zm0 .49H8.38v2.943H4.457V5.91zM7.89 9.344h.49v.49h-.49v-.49z" fill="#a02c2c"/></svg>