<svg xmlns="http://www.w3.org/2000/svg" width="48" height="48" viewBox="0 0 12.7 12.7"><path d="M6.34.07a6.29 6.29 0 0 0-6.29 6.3 6.29 6.29 0 0 0 6.3 6.28 6.29 6.29 0 0 0 6.28-6.29A6.29 6.29 0 0 0 6.34.07zM6.32 1l.01.01a5.4 5.4 0 0 1 5.4 5.4 5.4 5.4 0 0 1-5.4 5.41 5.4 5.4 0 0 1-5.41-5.4A5.4 5.4 0 0 1 6.32 1zm-.54 1l-.26.02c-.9.1-1.06.23-1.84.9-.27.21-.74.76-.84 1.4-.04.24.03.45.2.6.55.47 1.44.86 2.18 1.23.21.1.08.3-.24.62-.82.8-1.93 1.77-1.97 2.52-.02.34.1.82.51 1.06.48.28 1.42.1 2.05-.16.9-.37 2.1-1.2 3.02-2 .97-.85 1.86-1.92 1.9-2.09a.88.88 0 0 0-.1-.64c-.18-.36-.43-.62-.69-.92C9 3.8 8.26 3.12 7.4 2.61a3.32 3.32 0 0 0-1.62-.6zm.45 1.5c.2.02.44.09.69.22.66.33 1.37 1.22.08 1.73-.36.14-1.52-.34-1.52-1 0-.66.3-.96.75-.94z" fill="#963996"/></svg>
