<svg xmlns="http://www.w3.org/2000/svg" width="48" height="48" viewBox="0 0 12.7 12.7"><path d="M6.344.072a6.29 6.29 0 0 0-6.29 6.29 6.29 6.29 0 0 0 6.29 6.289 6.29 6.29 0 0 0 6.29-6.29 6.29 6.29 0 0 0-6.29-6.29zm-.018.937a5.407 5.407 0 0 1 5.407 5.407 5.407 5.407 0 0 1-5.407 5.407A5.407 5.407 0 0 1 .92 6.416 5.407 5.407 0 0 1 6.326 1.01zm.023.965a1.959 1.959 0 0 0-1.958 1.958c0 .554.233 1.052.603 1.409-1.632.335-2.906 1.195-2.906 1.798 0 .355 1.448.152 1.498.463l.36 2.432c0 .233.122.415.28.415a8.235 8.235 0 0 0 4.24 0c.158 0 .288-.182.288-.415l.36-2.432c.066-.262 1.498-.108 1.498-.463 0-.603-1.274-1.463-2.906-1.798a1.95 1.95 0 0 0 .602-1.409 1.959 1.959 0 0 0-1.959-1.958z" fill="#963996"/></svg>
