<svg xmlns="http://www.w3.org/2000/svg" width="48" height="48" viewBox="0 0 12.7 12.7"><path fill="#963996" d="M6.344.073a6.29 6.29 0 0 0-6.29 6.29 6.29 6.29 0 0 0 6.29 6.288 6.29 6.29 0 0 0 6.29-6.289 6.29 6.29 0 0 0-6.29-6.29zm-.018.936a5.407 5.407 0 0 1 5.407 5.407 5.407 5.407 0 0 1-5.407 5.407A5.407 5.407 0 0 1 .92 6.416 5.407 5.407 0 0 1 6.326 1.01z"/><path fill="purple" d="M6.461 7.68a.339.528 0 1 0 0 1.056h3.117a.339.528 0 1 0 0-1.055zM3.498 3.729a.339.528 45 0 0-.569.817L4.716 6.33 2.929 8.12a.528.339 45 1 0 .746.746L5.88 6.66a.528.339 45 0 0 .053-.086.528.339 45 0 0 0-.001.184.33 0 0 0 .064-.247.184.33 0 0 0-.075-.266.339.528 45 0 0-.042-.059L3.675 3.798a.339.528 45 0 0-.177-.07z" opacity=".75"/></svg>
