<?xml version="1.0" encoding="UTF-8" standalone="no"?>
<svg
   xmlns:dc="http://purl.org/dc/elements/1.1/"
   xmlns:cc="http://creativecommons.org/ns#"
   xmlns:rdf="http://www.w3.org/1999/02/22-rdf-syntax-ns#"
   xmlns:svg="http://www.w3.org/2000/svg"
   xmlns="http://www.w3.org/2000/svg"
   xmlns:sodipodi="http://sodipodi.sourceforge.net/DTD/sodipodi-0.dtd"
   xmlns:inkscape="http://www.inkscape.org/namespaces/inkscape"
   width="48"
   height="48"
   viewBox="0 0 12.7 12.7"
   version="1.1"
   id="svg4"
   sodipodi:docname="glabels-3.0.svg"
   inkscape:version="0.92.4 (5da689c313, 2019-01-14)">
  <metadata
     id="metadata10">
    <rdf:RDF>
      <cc:Work
         rdf:about="">
        <dc:format>image/svg+xml</dc:format>
        <dc:type
           rdf:resource="http://purl.org/dc/dcmitype/StillImage" />
        <dc:title></dc:title>
      </cc:Work>
    </rdf:RDF>
  </metadata>
  <defs
     id="defs8" />
  <sodipodi:namedview
     pagecolor="#ffffff"
     bordercolor="#666666"
     borderopacity="1"
     objecttolerance="10"
     gridtolerance="10"
     guidetolerance="10"
     inkscape:pageopacity="0"
     inkscape:pageshadow="2"
     inkscape:window-width="1087"
     inkscape:window-height="480"
     id="namedview6"
     showgrid="false"
     inkscape:zoom="4.9166667"
     inkscape:cx="2.1355932"
     inkscape:cy="24"
     inkscape:window-x="0"
     inkscape:window-y="25"
     inkscape:window-maximized="0"
     inkscape:current-layer="svg4" />
  <path
     d="M 6.34,0.07 A 6.29,6.29 0 0 0 0.05,6.37 6.29,6.29 0 0 0 6.35,12.65 6.29,6.29 0 0 0 12.63,6.36 6.29,6.29 0 0 0 6.34,0.07 Z M 6.33,1.01 a 5.4,5.4 0 0 1 5.4,5.4 5.4,5.4 0 0 1 -5.4,5.41 A 5.4,5.4 0 0 1 0.92,6.42 5.4,5.4 0 0 1 6.32,1 Z M 2.4,3.74 a 0.3,0.3 0 0 0 -0.3,0.3 v 4.81 c 0,0.17 0.13,0.31 0.3,0.31 h 7.9 a 0.3,0.3 0 0 0 0.3,-0.3 V 6.9 L 9.81,6.1 8.14,4.43 7.44,3.73 H 2.4 Z m 0.72,0.7 H 7.44 V 6.6 c 0,0.17 0.13,0.3 0.3,0.3 h 2.07 v 1.33 c 0,0.13 -0.1,0.23 -0.23,0.23 H 3.12 A 0.23,0.23 0 0 1 2.89,8.23 V 4.67 c 0,-0.13 0.1,-0.23 0.23,-0.23 z m 0.66,0.68 a 0.2,0.2 0 1 0 0,0.4 h 2.5 a 0.2,0.2 0 1 0 0,-0.4 z m 0,1.05 a 0.2,0.2 0 1 0 0,0.4 h 2.5 a 0.2,0.2 0 1 0 0,-0.4 z m 0,1.06 a 0.2,0.2 0 1 0 0,0.4 h 2.5 a 0.2,0.2 0 1 0 0,-0.4 z"
     id="path2"
     inkscape:connector-curvature="0"
     style="fill:#963996" />
</svg>
