<svg xmlns="http://www.w3.org/2000/svg" width="48" height="48" viewBox="0 0 12.7 12.7"><path fill="#963996" d="M6.34.07a6.29 6.29 0 0 0-6.29 6.3 6.29 6.29 0 0 0 6.3 6.28 6.29 6.29 0 0 0 6.28-6.29A6.29 6.29 0 0 0 6.34.07zm-.01.94a5.4 5.4 0 0 1 5.4 5.4 5.4 5.4 0 0 1-5.4 5.41 5.4 5.4 0 0 1-5.41-5.4A5.4 5.4 0 0 1 6.32 1zM4.28 2.48c-.68 0-1.24.55-1.24 1.24v5.29c0 .68.56 1.24 1.24 1.24h4.25c.69 0 1.24-.56 1.24-1.24V3.7c0-.68-.55-1.23-1.24-1.23H4.28zm4.85 2.34V8.04c-.58.03-1.31.02-1.47-.91L3.9 9.18a1 1 0 0 1-.25-.65V4.82h5.48zm.01 3.33v.47h-.01a1 1 0 0 1-.96.91h-3.5a1 1 0 0 1-.63-.21l5.1-1.17z"/></svg>
