<svg xmlns="http://www.w3.org/2000/svg" width="48" height="48" viewBox="0 0 12.7 12.7"><path fill="#963996" d="M6.344.073a6.29 6.29 0 0 0-6.29 6.29 6.29 6.29 0 0 0 6.29 6.288 6.29 6.29 0 0 0 6.29-6.289 6.29 6.29 0 0 0-6.29-6.29zm-.018.936a5.407 5.407 0 0 1 5.407 5.407 5.407 5.407 0 0 1-5.407 5.407A5.407 5.407 0 0 1 .92 6.416 5.407 5.407 0 0 1 6.326 1.01zm-.012 3.656a1.712 1.712 0 0 0-1.712 1.711 1.712 1.712 0 0 0 1.712 1.712 1.712 1.712 0 0 0 1.711-1.712 1.712 1.712 0 0 0-1.711-1.711z"/><path fill="#e16b5a" d="M6.326 1.576s2.808-.126 4.296 2.691H6.087S5.231 4.24 4.5 5.277c-.21.433-.435.882-.182 1.765-.365-.617-1.938-3.35-1.938-3.35s1.11-2.004 3.946-2.116z" opacity=".9"/><path fill="#ffd464" d="M10.476 8.728s-1.295 2.49-4.483 2.368l2.268-3.92s.453-.726-.082-1.876c-.628-.911-1.27-1.068-1.987-1.041.718-.014 4.421.003 4.421.003s1.184 1.961-.137 4.469z" opacity=".9"/><path fill="#74b340" d="M2.196 8.747s-1.513-2.365.187-5.06L4.65 7.61s.403.754 1.668.867c.482-.035.984-.066 1.624-.725-.353.624-1.938 3.35-1.938 3.35s-2.294.042-3.808-2.354z" opacity=".9"/></svg>
