<svg xmlns="http://www.w3.org/2000/svg" width="48" height="48" viewBox="0 0 12.7 12.7"><path fill="#963996" d="M6.344.073a6.29 6.29 0 0 0-6.29 6.29 6.29 6.29 0 0 0 6.29 6.288 6.29 6.29 0 0 0 6.29-6.289 6.29 6.29 0 0 0-6.29-6.29zm-.018.936a5.407 5.407 0 0 1 4.491 2.404.246.246 0 0 0-.117-.025c-1.02-.02-1.664.814-1.664.814-.306-.407-.953-.624-1.35-.723-.181-.046-.2-.003-.074.108l.012.011c.02.002.036.005.062.011.397.1 1.044.316 1.35.723 0 0 .644-.833 1.664-.814.041 0 .073.007.097.014.038-.028.05-.054.05-.077a5.407 5.407 0 0 1 .419.779 1.959 1.959 0 0 0-1.02-.293 1.608 1.608 0 0 0-.64.124.94.94 0 0 0-.014.136s.815-.404 1.754.212a5.407 5.407 0 0 1 .387 2.003 5.407 5.407 0 0 1-5.407 5.407A5.407 5.407 0 0 1 .92 6.416 5.407 5.407 0 0 1 6.326 1.01zm.576 2.713l-5.181.012 2.267 3.36v2.61h-.972v.26h2.591v-.26h-.972V7.11l2.267-3.389zm.475.171c-.171-.007-.183.052-.08.134a.494.494 0 0 1 .08-.003c.185.008.437.048.74.167 0 0-.015-.058-.046-.146a2.279 2.279 0 0 0-.694-.152zm.693.872a2.437 2.757 44.855 0 0-.678.12l.107.15c.064.091.205.121.317.07l.401-.189a.183.183 0 0 0 .111-.15 2.437 2.757 44.855 0 0-.258 0zm.789.092a.157.157 0 0 0-.01.196l.232.326c.064.09.205.121.316.07l.3-.142a2.437 2.757 44.855 0 0-.838-.45zm-1.682.102a2.437 2.757 44.855 0 0-.76.44l.078.109c.064.09.205.12.316.068l.402-.189c.111-.052.15-.167.085-.257l-.121-.171zm1.243.096a.267.267 0 0 0-.088.024l-.4.188c-.112.052-.15.167-.086.257l.231.327c.064.09.205.12.316.069l.402-.19c.111-.051.15-.166.085-.256l-.23-.327a.23.23 0 0 0-.141-.087.293.293 0 0 0-.09-.005zm1.43.397l-.337.159c-.112.052-.15.167-.085.257l.231.326c.064.09.205.121.317.07l.308-.146a2.437 2.757 44.855 0 0-.434-.665zm-2.434.074a.27.27 0 0 0-.087.025l-.402.189c-.111.052-.149.166-.085.257l.231.325c.065.09.206.122.317.07l.401-.19c.111-.052.15-.166.086-.257l-.232-.326a.229.229 0 0 0-.14-.088.29.29 0 0 0-.089-.005zm-1.165.014a2.437 2.757 44.855 0 0-.45.509l.007-.002.401-.188c.112-.053.15-.167.086-.258L6.25 5.54zm2.747.33a.273.273 0 0 0-.087.024l-.402.189c-.111.052-.149.167-.085.257l.231.326c.064.09.205.121.317.069l.402-.19c.11-.051.148-.166.084-.256l-.23-.327a.23.23 0 0 0-.141-.087.29.29 0 0 0-.089-.005zm-2.585.127a.273.273 0 0 0-.088.025l-.401.188c-.112.052-.15.167-.086.257l.232.326c.064.09.205.12.316.069l.402-.189c.11-.052.149-.167.085-.257l-.232-.325a.232.232 0 0 0-.14-.089.29.29 0 0 0-.088-.005zm3.939.307l-.26.122c-.112.053-.15.168-.086.258l.232.326a.248.248 0 0 0 .226.092 2.437 2.757 44.855 0 0-.112-.798zm-2.358.037a.27.27 0 0 0-.086.024l-.402.189c-.111.052-.15.167-.085.257l.23.326c.065.09.206.12.318.068l.4-.188c.112-.052.15-.167.086-.257l-.231-.327a.23.23 0 0 0-.14-.088.293.293 0 0 0-.09-.004zm-2.45.151a2.437 2.757 44.855 0 0-.138.335 2.437 2.757 44.855 0 0-.117.53.27.27 0 0 0 .094-.024l.401-.188c.111-.052.15-.167.085-.258l-.231-.326a.217.217 0 0 0-.095-.069zm4.033.192a.274.274 0 0 0-.088.024l-.402.189c-.11.052-.149.166-.084.257l.231.326c.064.09.205.122.316.07l.402-.19c.112-.052.15-.167.085-.257l-.232-.327a.23.23 0 0 0-.14-.087.293.293 0 0 0-.088-.005zm-2.586.128a.273.273 0 0 0-.088.024l-.401.188c-.111.053-.149.167-.085.258l.232.326c.064.09.205.121.316.07l.401-.19c.112-.052.15-.167.085-.257l-.231-.327a.231.231 0 0 0-.14-.087.287.287 0 0 0-.089-.005zm1.582.344a.275.275 0 0 0-.088.023l-.4.19c-.112.052-.15.166-.086.256l.231.326c.064.09.206.12.317.069l.401-.188c.112-.053.15-.167.086-.258l-.232-.326a.23.23 0 0 0-.14-.088.29.29 0 0 0-.089-.004zm-2.586.128a.268.268 0 0 0-.087.024l-.402.188c-.11.052-.149.167-.085.258l.232.326c.064.09.205.12.316.068l.402-.188c.112-.053.15-.167.085-.258l-.23-.325a.23.23 0 0 0-.141-.088h-.001a.29.29 0 0 0-.089-.005zm4.168.215a.268.268 0 0 0-.087.025l-.402.188c-.111.052-.15.167-.085.257l.232.326c.063.09.201.12.312.07a2.437 2.757 44.855 0 0 .204-.47 2.437 2.757 44.855 0 0 .073-.278l-.017-.025a.231.231 0 0 0-.14-.088h-.001a.293.293 0 0 0-.09-.005zm-2.586.128a.267.267 0 0 0-.087.024l-.401.188c-.112.053-.15.167-.086.258l.231.326c.065.09.206.121.317.069l.401-.189c.111-.052.15-.167.085-.257L7.8 7.72a.232.232 0 0 0-.14-.088h-.001a.293.293 0 0 0-.089-.005zm-2.286.32a2.437 2.757 44.855 0 0 .098.468c.092-.057.122-.158.063-.241l-.16-.227zm3.868.024a.274.274 0 0 0-.087.024l-.402.188c-.111.053-.149.168-.085.258l.232.326c.064.09.205.12.316.068l.402-.188c.111-.053.149-.168.085-.258l-.232-.326a.23.23 0 0 0-.14-.087.287.287 0 0 0-.089-.005zm-2.586.127a.27.27 0 0 0-.087.025l-.401.188c-.112.052-.15.167-.085.257l.23.327c.065.09.206.12.318.068l.401-.188c.111-.053.149-.167.085-.258l-.231-.325a.229.229 0 0 0-.14-.089h-.001a.29.29 0 0 0-.089-.005zm1.583.344a.272.272 0 0 0-.088.024l-.401.189c-.111.052-.15.167-.085.257l.23.326c.065.09.206.121.317.069l.402-.189c.111-.052.15-.167.085-.257l-.231-.326a.23.23 0 0 0-.14-.088.29.29 0 0 0-.09-.005zm-2.586.128a.274.274 0 0 0-.087.024l-.025.012a2.437 2.757 44.855 0 0 .434.665l.053-.025c.111-.052.15-.167.085-.257l-.23-.326a.228.228 0 0 0-.141-.088.29.29 0 0 0-.089-.005zm4.168.216a.265.265 0 0 0-.087.024L9.24 9c-.111.052-.15.167-.085.257l.089.126A2.437 2.757 44.855 0 0 9.84 8.8l-.021-.01a.293.293 0 0 0-.09-.004zm-2.586.128a.267.267 0 0 0-.087.024l-.402.189c-.11.052-.15.167-.085.257l.231.326c.064.09.206.12.317.069l.4-.19c.112-.052.15-.166.086-.257l-.23-.326a.23.23 0 0 0-.141-.087.293.293 0 0 0-.09-.005zm1.582.343a.27.27 0 0 0-.088.024l-.401.19c-.112.051-.15.166-.085.257l.1.14a2.437 2.757 44.855 0 0 .813-.364l-.11-.154a.23.23 0 0 0-.14-.088h-.001a.287.287 0 0 0-.088-.005zm-2.586.128a.273.273 0 0 0-.087.025l-.016.007a2.437 2.757 44.855 0 0 .53.34l-.198-.279a.23.23 0 0 0-.14-.088.29.29 0 0 0-.089-.005zm1.583.344a.276.276 0 0 0-.088.024l-.401.189-.002.001a2.437 2.757 44.855 0 0 .789-.024l-.069-.098a.232.232 0 0 0-.14-.088H7.81a.29.29 0 0 0-.088-.004z"/></svg>
