<svg xmlns="http://www.w3.org/2000/svg" width="48" height="48" viewBox="0 0 12.7 12.7"><path d="M6.34.07a6.29 6.29 0 0 0-6.29 6.3 6.29 6.29 0 0 0 6.3 6.28 6.29 6.29 0 0 0 6.28-6.29A6.29 6.29 0 0 0 6.34.07zm-.01.94a5.4 5.4 0 0 1 5.4 5.4 5.4 5.4 0 0 1-5.4 5.41 5.4 5.4 0 0 1-5.41-5.4A5.4 5.4 0 0 1 6.32 1zM8.2 2.89c-1.03 0-1.86.83-1.86 1.86 0 .42.16.78.39 1.1.07-.05.13-.12.21-.15A1.87 1.87 0 0 1 9 6.1c.07.06.1.15.16.23.54-.33.92-.9.92-1.58 0-1.03-.83-1.86-1.87-1.86zM4.5 6.09a1.86 1.86 0 1 0 0 3.72c.82 0 1.5-.53 1.74-1.27-.1-.13-.2-.25-.27-.4-.1-.22-.14-.47-.14-.72 0-.22.05-.4.12-.6a1.83 1.83 0 0 0-1.45-.74z" fill="#963996"/><path d="M5.2 3.24a1.86 1.86 0 1 0 0 3.73c.25 0 .5-.05.71-.14v.02l-.6.49.34 1.12.54.07a1.86 1.86 0 1 0 2.97-2.26l.03-.43-.63-.4-.8-.08-.75.13A1.84 1.84 0 0 0 5.2 3.24z" opacity=".75" fill="#963996"/></svg>
