<svg xmlns="http://www.w3.org/2000/svg" width="48" height="48" viewBox="0 0 12.7 12.7"><path d="M6.34.07a6.29 6.29 0 0 0-6.29 6.3 6.29 6.29 0 0 0 6.3 6.28 6.29 6.29 0 0 0 6.28-6.29A6.29 6.29 0 0 0 6.34.07zm-.01.94a5.4 5.4 0 0 1 5.4 5.4 5.4 5.4 0 0 1-5.4 5.41 5.4 5.4 0 0 1-5.41-5.4A5.4 5.4 0 0 1 6.32 1zM3.37 2.6a.84.84 0 0 0-.85.84v5.9c0 .47.38.84.85.84h5.9a.84.84 0 0 0 .84-.84V4.3L8.43 2.6H3.37zm0 .84h4.21v1.68H3.37V3.45zm2.95 3.37a1.27 1.27 0 0 1 0 2.53 1.27 1.27 0 0 1 0-2.53z" fill="#963996"/></svg>
