<svg xmlns="http://www.w3.org/2000/svg" width="48" height="48" viewBox="0 0 12.7 12.7"><path d="M6.34.07a6.29 6.29 0 0 0-6.29 6.3 6.29 6.29 0 0 0 6.3 6.28 6.29 6.29 0 0 0 6.28-6.29A6.29 6.29 0 0 0 6.34.07zm-.01.94a5.4 5.4 0 0 1 5.4 5.4 5.4 5.4 0 0 1-5.4 5.41 5.4 5.4 0 0 1-5.41-5.4A5.4 5.4 0 0 1 6.32 1z" fill="#963996"/><path d="M6.35 1.52a4.9 4.9 0 1 0 0 9.8 4.9 4.9 0 0 0 0-9.8zm-.9 1.82c.01 0 .22.38.48.88.25.48.47.87.49.88l.17-.28c.4-.78.78-1.48.8-1.48l.37.22a189.4 189.4 0 0 0 .83.5s-.02.06-.64 1.08l-.38.65c0 .02.02.02 1.08-.01l.9-.02c.02.01 0 1.4-.01 1.42-.01.01-.45 0-.99-.01-.54-.02-.97-.02-.98-.01l.11.23.51.85.39.66-.33.22-.6.35-.27.16c-.01 0 0 .03-.52-.97-.26-.49-.43-.8-.45-.8a13.1 13.1 0 0 1-.98 1.74c-.04 0-1.16-.66-1.17-.69 0-.01.13-.26.3-.54l.5-.85c.12-.18.2-.34.19-.35 0-.02-.05-.03-.22-.02-.5.03-1.73.06-1.75.04V5.77h.22a69.72 69.72 0 0 1 1.77.04c0-.02-.38-.68-.96-1.64-.06-.09-.06-.1-.04-.13.04-.04 1.15-.7 1.18-.7z" fill="#d40000" fill-rule="evenodd" opacity=".75"/></svg>
