<svg xmlns="http://www.w3.org/2000/svg" width="48" height="48" viewBox="0 0 12.7 12.7"><path fill="#963996" d="M6.344.073a6.29 6.29 0 0 0-6.29 6.29 6.29 6.29 0 0 0 6.29 6.288 6.29 6.29 0 0 0 6.29-6.289 6.29 6.29 0 0 0-6.29-6.29zm-.018.936a5.407 5.407 0 0 1 5.407 5.407 5.407 5.407 0 0 1-5.407 5.407A5.407 5.407 0 0 1 .92 6.416 5.407 5.407 0 0 1 6.326 1.01zM3.497 2.386c-.568 0-.568.57-.568.57V9.78s0 .569.568.569h5.688s.57 0 .57-.57V2.956s0-.569-.57-.569H3.497zm2.845 1.138a2.275 2.275 0 1 1 0 4.55H4.066V5.8a2.275 2.275 0 0 1 2.276-2.275zm0 1.138a1.138 1.138 0 1 0 0 2.275 1.138 1.138 0 0 0 0-2.275z"/></svg>
