<svg xmlns="http://www.w3.org/2000/svg" width="48" height="48" viewBox="0 0 12.7 12.7"><path d="M6.344.072a6.29 6.29 0 0 0-6.29 6.29 6.29 6.29 0 0 0 6.29 6.289 6.29 6.29 0 0 0 6.29-6.29 6.29 6.29 0 0 0-6.29-6.29zm-.018.937a5.407 5.407 0 0 1 4.194 2H2.134a5.407 5.407 0 0 1 4.192-2zm-2.294.835v.9h.899v-.9h-.9zm1.396.26v.356h3.098v-.355H5.428zM1.822 3.434h1.092v6.194c0 .367.256.663.575.663h3.902c.319 0 .575-.296.575-.663V7.465l1.64-1.64-.992-.993-.648.648V3.433h2.864a5.407 5.407 0 0 1 .902 2.983 5.407 5.407 0 0 1-5.407 5.407A5.407 5.407 0 0 1 .92 6.416a5.407 5.407 0 0 1 .902-2.983zm1.505 0h4.228a.64.64 0 0 1 .02.15v2.289l-.83.828h-.408v.014H5.061v.354h1.277v.04l-.65.652v.373h-.64v.354h.64v.265h.992l.264-.265h.234v-.233l.397-.398V9.12c0 .31-.217.56-.486.56H3.793c-.27 0-.486-.25-.486-.56V3.583a.64.64 0 0 1 .02-.15zm.338.375v.898h.9v-.898h-.9zm5.9.182a.264.264 0 0 0-.186.077l-.484.485.992.992.484-.484a.265.265 0 0 0 0-.374l-.618-.62a.264.264 0 0 0-.187-.076h-.001zm-4.505.078v.354h2.13v-.354H5.06zM3.666 5.085v.9h.9v-.9h-.9zm1.395.26v.354H7.19v-.354H5.06zM3.666 6.453v.899h.9v-.9h-.9zm-.012 1.419v.899h.9v-.9h-.9z" fill="#963996"/></svg>
