<svg xmlns="http://www.w3.org/2000/svg" width="48" height="48" viewBox="0 0 12.7 12.7"><defs><filter id="a" width="100%" height="100%" x="0%" y="0%" filterUnits="objectBoundingBox"><feColorMatrix in="SourceGraphic" values="0 0 0 0 1 0 0 0 0 1 0 0 0 0 1 0 0 0 1 0"/></filter></defs><path d="M6.34.07a6.29 6.29 0 0 0-6.29 6.3 6.29 6.29 0 0 0 6.3 6.28 6.29 6.29 0 0 0 6.28-6.29A6.29 6.29 0 0 0 6.34.07zm-.01.94a5.4 5.4 0 0 1 1.81.32 5.4 5.4 0 0 1 .98.46 5.4 5.4 0 0 1 .96.74 5.4 5.4 0 0 1 1.09 1.49 5.4 5.4 0 0 1 .48 1.48.36.36 0 0 1-.32-.18 1.13 1.13 0 0 1-.1-.56c0-.2.03-.32.08-.43a5.4 5.4 0 0 0-.14-.31l-.05.04c-.13.16-.19.4-.19.7 0 .3.06.54.19.7a.6.6 0 0 0 .23.18c.1.04.2.06.32.06a5.4 5.4 0 0 1 .06.72 5.4 5.4 0 0 1-.02.52 5.4 5.4 0 0 1-.03.2 5.4 5.4 0 0 1-.34 1.3 1.13 1.13 0 0 1-.12-.56c0-.25.04-.44.11-.56a.37.37 0 0 1 .34-.2v.02a5.4 5.4 0 0 0 .04-.2h-.04a.77.77 0 0 0-.32.05.6.6 0 0 0-.23.19c-.13.16-.19.4-.19.7 0 .3.06.54.19.7.03.04.08.06.11.09a5.4 5.4 0 0 1-1.03 1.5c-.02-.01-.04-.04-.08-.05a.77.77 0 0 0-.31-.07.77.77 0 0 0-.31.07.6.6 0 0 0-.24.18c-.12.16-.18.4-.18.7l.01.06a5.4 5.4 0 0 1-.95.44V10.1h-.28l-.51.09v.22l.5-.09v1.29a5.4 5.4 0 0 1-.4.1h-.06v.01a5.4 5.4 0 0 1-.9.1c.06-.03.11-.06.15-.1.13-.17.2-.4.2-.71 0-.3-.07-.54-.2-.7a.6.6 0 0 0-.23-.18.77.77 0 0 0-.31-.07.77.77 0 0 0-.32.07.6.6 0 0 0-.23.18c-.13.16-.19.4-.19.7 0 .3.06.54.19.7l.1.07a5.4 5.4 0 0 1-1.22-.3V10.1h-.29l-.5.09v.22l.5-.09v1.05a5.4 5.4 0 0 1-1.57-1.06v-.21h-.2A5.4 5.4 0 0 1 .91 6.42a5.4 5.4 0 0 1 .08-.9 5.4 5.4 0 0 1 .08-.37 5.4 5.4 0 0 0-.08.37l.07-.06c.13-.16.2-.4.2-.7 0-.06-.04-.08-.04-.12a5.4 5.4 0 0 0-.15.51 5.4 5.4 0 0 1 .15-.51 5.4 5.4 0 0 1 1.32-2.1 5.4 5.4 0 0 1 .02 0A5.4 5.4 0 0 1 6.33 1zM2.57 2.53a5.4 5.4 0 0 0-.02.02l.15-.03a.6.6 0 0 0 .23-.18c.03-.04.02-.12.04-.16a5.4 5.4 0 0 0-.4.35zm7.5 0a5.4 5.4 0 0 0-.19-.18c-.03 0-.04.04-.07.04a.37.37 0 0 1-.33-.2c-.03-.04-.03-.13-.04-.2a5.4 5.4 0 0 0-.32-.2c.02.22.05.42.14.55a.6.6 0 0 0 .24.18.77.77 0 0 0 .58 0zm-1.93-1.2a5.4 5.4 0 0 0-.28-.1v1.1h-.47v.22H8.6v-.21h-.47v-1zM6.3 1.01a5.4 5.4 0 0 0-.29.01v1.32h-.47v.2h1.23v-.2h-.47V1zm-1.43.2a5.4 5.4 0 0 0-.24.08c.03.11.07.2.07.35 0 .25-.04.43-.12.56a.36.36 0 0 1-.33.19.37.37 0 0 1-.33-.2c-.08-.11-.11-.3-.11-.55a5.4 5.4 0 0 0-.25.15c.02.21.05.42.14.55a.6.6 0 0 0 .24.18c.09.04.2.06.31.06.12 0 .22-.02.32-.06a.6.6 0 0 0 .23-.18c.12-.16.18-.4.18-.7 0-.19-.06-.3-.1-.43zm-2.48 2.6a.77.77 0 0 0-.31.06.6.6 0 0 0-.23.19c-.13.16-.2.4-.2.7 0 .3.07.54.2.7a.6.6 0 0 0 .23.18c.09.04.2.06.31.06.12 0 .23-.02.32-.06a.6.6 0 0 0 .23-.18c.13-.16.19-.4.19-.7 0-.3-.06-.54-.2-.7a.6.6 0 0 0-.22-.19.77.77 0 0 0-.32-.06zm3.72 0a.77.77 0 0 0-.32.06.6.6 0 0 0-.23.19c-.13.16-.19.4-.19.7 0 .3.06.54.19.7a.6.6 0 0 0 .23.18c.1.04.2.06.32.06s.22-.02.31-.06a.6.6 0 0 0 .23-.18c.13-.16.2-.4.2-.7 0-.3-.07-.54-.2-.7a.6.6 0 0 0-.23-.19.77.77 0 0 0-.31-.06zm3.71 0a.77.77 0 0 0-.31.06.6.6 0 0 0-.24.19c-.12.16-.18.4-.18.7 0 .3.06.54.18.7a.6.6 0 0 0 .24.18c.09.04.2.06.31.06.12 0 .22-.02.32-.06a.6.6 0 0 0 .23-.18c.12-.16.19-.4.19-.7 0-.3-.07-.54-.2-.7a.6.6 0 0 0-.22-.19.77.77 0 0 0-.32-.06zm-5.67.04l-.5.08v.23l.5-.09v1.39h-.47v.2H4.9v-.2h-.47V3.85h-.29zm3.72 0l-.51.08v.23l.5-.09v1.39H7.4v.2H8.6v-.2h-.47V3.85h-.28zM2.38 4c.15 0 .26.06.34.19.07.12.11.3.11.56 0 .25-.04.43-.11.56a.36.36 0 0 1-.34.19.37.37 0 0 1-.33-.19 1.13 1.13 0 0 1-.11-.56c0-.25.04-.44.1-.56a.37.37 0 0 1 .34-.2zM6.1 4c.15 0 .26.06.33.19.08.12.11.3.11.56 0 .25-.03.43-.1.56a.36.36 0 0 1-.34.19.37.37 0 0 1-.34-.19 1.13 1.13 0 0 1-.1-.56c0-.25.03-.44.1-.56A.37.37 0 0 1 6.1 4zM9.8 4c.15 0 .26.06.34.19.07.12.1.3.1.56 0 .25-.03.43-.1.56a.36.36 0 0 1-.34.19.37.37 0 0 1-.33-.19 1.13 1.13 0 0 1-.12-.56c0-.25.04-.44.12-.56A.37.37 0 0 1 9.8 4zM2.38 6.93a.77.77 0 0 0-.31.06.6.6 0 0 0-.23.19c-.13.16-.2.4-.2.7 0 .3.07.54.2.7a.6.6 0 0 0 .23.18c.09.04.2.06.31.06.12 0 .23-.02.32-.06a.6.6 0 0 0 .23-.18c.13-.16.19-.4.19-.7 0-.3-.06-.54-.2-.7a.6.6 0 0 0-.22-.19.77.77 0 0 0-.32-.06zm1.86 0a.77.77 0 0 0-.31.06.6.6 0 0 0-.24.19c-.12.16-.18.4-.18.7 0 .3.06.54.18.7a.6.6 0 0 0 .24.18c.09.04.2.06.31.06.12 0 .22-.02.32-.06a.6.6 0 0 0 .23-.18c.12-.16.18-.4.18-.7 0-.3-.06-.54-.18-.7a.6.6 0 0 0-.23-.19.77.77 0 0 0-.32-.06zM6 6.97l-.51.08v.23L6 7.19v1.39h-.47v.2h1.23v-.2h-.47V6.97h-.3zm1.86 0l-.51.08v.23l.5-.09v1.39H7.4v.2H8.6v-.2h-.47V6.97h-.28zm1.85 0l-.5.08v.23l.5-.09v1.39h-.47v.2h1.23v-.2H10V6.97H9.7zm-7.33.16c.15 0 .26.06.34.19.07.12.11.3.11.56 0 .25-.04.44-.11.56a.36.36 0 0 1-.34.19.37.37 0 0 1-.33-.19 1.13 1.13 0 0 1-.11-.56c0-.25.04-.44.1-.56a.37.37 0 0 1 .34-.2zm1.86 0c.15 0 .26.06.33.19.08.12.12.3.12.56 0 .25-.04.44-.12.56a.36.36 0 0 1-.33.19.37.37 0 0 1-.33-.19 1.13 1.13 0 0 1-.12-.56c0-.25.04-.44.12-.56a.37.37 0 0 1 .33-.2zm7.1 1.32a5.4 5.4 0 0 1-.1.21 5.4 5.4 0 0 0 .1-.21zm-8.97 1.64a5.4 5.4 0 0 0 .2.2 5.4 5.4 0 0 1-.2-.2zm7.82.1a5.4 5.4 0 0 1-.17.17 5.4 5.4 0 0 0 .17-.17zm-4.1.06c.16 0 .27.06.34.19.08.12.11.3.11.56 0 .25-.03.44-.1.56a.36.36 0 0 1-.34.19.37.37 0 0 1-.34-.19 1.13 1.13 0 0 1-.1-.56c0-.25.03-.44.1-.56a.37.37 0 0 1 .34-.19zm3.72 0c.1 0 .14.07.2.11a5.4 5.4 0 0 1-.62.5c.01-.16.03-.33.09-.42a.37.37 0 0 1 .33-.19zm-.42.62a5.4 5.4 0 0 1-.3.18 5.4 5.4 0 0 0 .3-.18zm-5.24.5a5.4 5.4 0 0 0 .27.1 5.4 5.4 0 0 1-.27-.1zm1.5.4a5.4 5.4 0 0 0 .4.04 5.4 5.4 0 0 1-.4-.03z" fill="#963996"/></svg>
