<svg xmlns="http://www.w3.org/2000/svg" width="48" height="48" viewBox="0 0 12.7 12.7"><path d="M6.34.07a6.29 6.29 0 0 0-6.29 6.3 6.29 6.29 0 0 0 6.3 6.28 6.29 6.29 0 0 0 6.28-6.29A6.29 6.29 0 0 0 6.34.07zM6.32 1l.01.01a5.4 5.4 0 0 1 3.692 1.468l-1.93 1.93a2.646 2.646 0 0 0-1.766-.68 2.646 2.646 0 0 0-1.767.68L2.622 2.471A5.4 5.4 0 0 1 6.32 1zm-.764.632V3.22h.596V1.632h-.596zm.992 0V3.22h.596V1.632h-.596zm-4.125 1.04l1.936 1.936a2.646 2.646 0 0 0-.68 1.766 2.646 2.646 0 0 0 .68 1.767 2.646 2.646 0 0 0 .098.103 2.646 2.646 0 0 1-.03-.026 2.646 2.646 0 0 1-.068-.077l-1.973 1.973A5.4 5.4 0 0 1 .92 6.42 5.4 5.4 0 0 1 2.423 2.67zm7.803.002A5.4 5.4 0 0 1 11.73 6.41a5.4 5.4 0 0 1-1.468 3.701l-1.97-1.97a2.646 2.646 0 0 0 .68-1.767 2.646 2.646 0 0 0-.68-1.766l1.934-1.934zm-3.9 1.347a2.353 2.353 0 0 1 2.353 2.353 2.353 2.353 0 0 1-2.353 2.354 2.353 2.353 0 0 1-2.354-2.354 2.353 2.353 0 0 1 2.354-2.353zm-1.777.397a2.646 2.646 0 0 0-.093.087 2.646 2.646 0 0 1 .026-.029 2.646 2.646 0 0 1 .067-.058zm3.646.086a2.646 2.646 0 0 1 .029.027 2.646 2.646 0 0 1 .058.066 2.646 2.646 0 0 0-.087-.093zm-3.032.39v2.911l2.91-1.455-2.91-1.455zm-2.601.594L1.34 6.35l1.222.862v-.539l.763.539V5.488l-.763.539v-.539zm6.765 0v1.724l.763-.539v.539l1.22-.862-1.22-.862v.539l-.763-.539zM8.196 8.243a2.646 2.646 0 0 1-.027.03 2.646 2.646 0 0 1-.066.057 2.646 2.646 0 0 0 .093-.087zm-3.637.098a2.646 2.646 0 0 0 1.767.68 2.646 2.646 0 0 0 1.766-.68l1.975 1.975A5.4 5.4 0 0 1 6.33 11.82a5.4 5.4 0 0 1-3.744-1.506L4.56 8.34zm.997 1.205v1.587h1.588V9.546H5.556z" fill="#963996"/></svg>
