<?xml version="1.0" encoding="UTF-8" standalone="no"?>
<svg
   xmlns:dc="http://purl.org/dc/elements/1.1/"
   xmlns:cc="http://creativecommons.org/ns#"
   xmlns:rdf="http://www.w3.org/1999/02/22-rdf-syntax-ns#"
   xmlns:svg="http://www.w3.org/2000/svg"
   xmlns="http://www.w3.org/2000/svg"
   xmlns:sodipodi="http://sodipodi.sourceforge.net/DTD/sodipodi-0.dtd"
   xmlns:inkscape="http://www.inkscape.org/namespaces/inkscape"
   width="48"
   height="48"
   viewBox="0 0 12.7 12.7"
   version="1.1"
   id="svg8"
   sodipodi:docname="photoshop.svg"
   inkscape:version="0.92.4 (5da689c313, 2019-01-14)">
  <metadata
     id="metadata14">
    <rdf:RDF>
      <cc:Work
         rdf:about="">
        <dc:format>image/svg+xml</dc:format>
        <dc:type
           rdf:resource="http://purl.org/dc/dcmitype/StillImage" />
        <dc:title></dc:title>
      </cc:Work>
    </rdf:RDF>
  </metadata>
  <defs
     id="defs12" />
  <sodipodi:namedview
     pagecolor="#ffffff"
     bordercolor="#666666"
     borderopacity="1"
     objecttolerance="10"
     gridtolerance="10"
     guidetolerance="10"
     inkscape:pageopacity="0"
     inkscape:pageshadow="2"
     inkscape:window-width="1087"
     inkscape:window-height="480"
     id="namedview10"
     showgrid="false"
     inkscape:zoom="4.9166667"
     inkscape:cx="2.1355932"
     inkscape:cy="24"
     inkscape:window-x="0"
     inkscape:window-y="25"
     inkscape:window-maximized="0"
     inkscape:current-layer="svg8" />
  <path
     d="M 6.34,0.07 A 6.29,6.29 0 0 0 0.05,6.37 6.29,6.29 0 0 0 6.35,12.65 6.29,6.29 0 0 0 12.63,6.36 6.29,6.29 0 0 0 6.34,0.07 Z M 6.33,1.01 a 5.4,5.4 0 0 1 5.4,5.4 5.4,5.4 0 0 1 -5.4,5.41 A 5.4,5.4 0 0 1 0.92,6.42 5.4,5.4 0 0 1 6.32,1 Z"
     id="path2"
     inkscape:connector-curvature="0"
     style="fill:#963996" />
  <g
     id="g6"
     style="opacity:0.75;fill:#002255">
    <path
       d="m 2.91,3.73 c 0,0 0.8,-0.03 1.46,-0.03 0.92,0 1.98,0.27 1.98,1.86 0,1.58 -1.06,1.85 -1.98,1.84 L 3.97,7.41 V 9 H 2.9 Z M 3.97,6.6 H 4.35 C 4.92,6.6 5.29,6.1 5.29,5.55 5.29,5.05 4.99,4.51 4.43,4.49 H 3.97 Z M 6.88,7.67 C 7.11,7.81 7.54,8.2 7.91,8.2 8.28,8.2 8.6,8.01 8.6,7.8 8.6,7.6 8.47,7.34 8,7.19 7.19,6.9 6.87,6.57 6.88,6.09 6.88,5.33 7.51,4.76 8.5,4.76 c 0.46,0 0.78,0.14 1.03,0.27 v 0.8 c -0.18,-0.1 -0.65,-0.27 -1,-0.27 -0.3,0 -0.6,0.2 -0.6,0.4 0,0.27 0.3,0.3 0.78,0.47 0.75,0.26 1.07,0.65 1.08,1.25 0,0.75 -0.58,1.35 -1.72,1.31 -0.4,0 -0.89,-0.1 -1.2,-0.26 V 7.67 Z"
       id="path4"
       inkscape:connector-curvature="0" />
  </g>
</svg>
