<svg xmlns="http://www.w3.org/2000/svg" width="48" height="48" viewBox="0 0 12.7 12.7"><path fill="#963996" d="M6.344.073a6.29 6.29 0 0 0-6.29 6.29 6.29 6.29 0 0 0 6.29 6.288 6.29 6.29 0 0 0 6.29-6.289 6.29 6.29 0 0 0-6.29-6.29zm-.018.936a5.407 5.407 0 0 1 5.407 5.407 5.407 5.407 0 0 1-5.407 5.407A5.407 5.407 0 0 1 .92 6.416 5.407 5.407 0 0 1 6.326 1.01zm.024.314c-.618 0-1.117.5-1.117 1.117 0 .465.292.85.698 1.017v.38H4.256a.14.14 0 0 0-.14.139v.42c0 .078.06.139.14.139H5.93v5.167c0 .143-.24.146-.375.161-.2-.002-.32-.052-.51-.104a6.49 6.49 0 0 1-1.236-.511c-.166-.092-.328-.182-.475-.301-.064-.054-.138-.133-.132-.223.009-.068.043-.14.118-.152.068-.01.128.025.188.048.051.022.087-.04.078-.083a.709.709 0 0 0-.104-.314c-.121-.2-.308-.348-.502-.476-.207-.132-.427-.277-.558-.489-.026-.039-.056-.103-.114-.082-.081.026-.126.106-.166.174-.112.213-.168.443-.218.677a1.96 1.96 0 0 0-.035.571c.015.19.028.382.105.56.048.115.133.21.218.3.054-.057.11-.118.166-.174.071-.072.16-.12.266-.105.143.018.272.105.384.187.158.123.306.252.467.371a4.6 4.6 0 0 0 .825.476c.24.112.487.224.737.315.045.02.095.018.14.035.45.187.828.404 1.14.794v.022c.003-.01.008-.01.012-.013.004.01.01.01.013.013.002-.011-.002-.024 0-.036.31-.385.692-.595 1.139-.78.045-.017.095-.016.14-.036.25-.09.497-.202.737-.314.29-.138.57-.281.825-.476.161-.12.309-.248.467-.37.112-.083.241-.17.384-.188.105-.014.195.033.266.104.056.056.112.118.166.175.085-.091.17-.185.218-.301.077-.177.09-.37.105-.56.015-.189.007-.385-.035-.57-.05-.234-.106-.464-.218-.677-.04-.069-.085-.148-.166-.175-.058-.02-.088.045-.114.083-.13.212-.351.357-.558.489-.194.127-.38.276-.502.476a.709.709 0 0 0-.104.314c-.009.043.027.105.078.083.06-.023.12-.059.188-.049.075.012.109.085.118.153.006.09-.068.168-.132.223-.147.12-.31.208-.475.3-.394.211-.805.386-1.235.512-.19.052-.312.103-.51.104-.172.03-.376-.062-.376-.161V4.535h1.676c.065 0 .14-.056.14-.14v-.419a.139.139 0 0 0-.14-.14H6.769v-.38c.406-.167.698-.551.698-1.016 0-.617-.5-1.117-1.117-1.117zm-.022.545c.3 0 .546.238.545.537a.547.547 0 0 1-1.095 0c0-.3.25-.537.55-.537z"/></svg>
