<?xml version="1.0" encoding="UTF-8" standalone="no"?>
<svg
   xmlns:dc="http://purl.org/dc/elements/1.1/"
   xmlns:cc="http://creativecommons.org/ns#"
   xmlns:rdf="http://www.w3.org/1999/02/22-rdf-syntax-ns#"
   xmlns:svg="http://www.w3.org/2000/svg"
   xmlns="http://www.w3.org/2000/svg"
   xmlns:sodipodi="http://sodipodi.sourceforge.net/DTD/sodipodi-0.dtd"
   xmlns:inkscape="http://www.inkscape.org/namespaces/inkscape"
   width="48"
   height="48"
   viewBox="0 0 12.7 12.7"
   version="1.1"
   id="svg4"
   sodipodi:docname="podcast.svg"
   inkscape:version="0.92.4 (5da689c313, 2019-01-14)">
  <metadata
     id="metadata10">
    <rdf:RDF>
      <cc:Work
         rdf:about="">
        <dc:format>image/svg+xml</dc:format>
        <dc:type
           rdf:resource="http://purl.org/dc/dcmitype/StillImage" />
        <dc:title></dc:title>
      </cc:Work>
    </rdf:RDF>
  </metadata>
  <defs
     id="defs8" />
  <sodipodi:namedview
     pagecolor="#ffffff"
     bordercolor="#666666"
     borderopacity="1"
     objecttolerance="10"
     gridtolerance="10"
     guidetolerance="10"
     inkscape:pageopacity="0"
     inkscape:pageshadow="2"
     inkscape:window-width="1138"
     inkscape:window-height="480"
     id="namedview6"
     showgrid="false"
     inkscape:zoom="4.9166667"
     inkscape:cx="2.1355932"
     inkscape:cy="24"
     inkscape:window-x="0"
     inkscape:window-y="25"
     inkscape:window-maximized="0"
     inkscape:current-layer="svg4" />
  <path
     d="m 6.344,0.072 a 6.29,6.29 0 0 0 -6.29,6.29 6.29,6.29 0 0 0 6.29,6.289 6.29,6.29 0 0 0 6.29,-6.29 6.29,6.29 0 0 0 -6.29,-6.29 z M 6.326,1.009 A 5.407,5.407 0 0 1 11.733,6.416 5.407,5.407 0 0 1 6.326,11.823 5.407,5.407 0 0 1 0.92,6.416 5.407,5.407 0 0 1 6.326,1.01 Z M 6.35,3.307 c -0.803,0 -1.449,0.647 -1.449,1.45 v 1.448 c 0,0.803 0.646,1.449 1.449,1.449 0.803,0 1.449,-0.646 1.449,-1.449 V 4.756 C 7.799,3.954 7.153,3.307 6.35,3.307 Z m -1.16,1.16 h 0.87 v 0.29 H 5.19 Z m 1.45,0 h 0.87 v 0.29 H 6.64 Z M 5.19,5.336 h 0.87 v 0.29 H 5.19 Z m 1.45,0 h 0.87 v 0.29 H 6.64 Z M 5.19,6.206 H 6.06 V 6.495 H 5.19 v -0.29 z m 1.45,0 H 7.51 V 6.495 H 6.64 V 6.205 Z M 4.344,6.495 C 4.471,7.385 5.17,8.085 6.06,8.211 V 8.524 H 6.205 V 9.103 H 5.77 v 0.29 H 6.93 V 9.103 H 6.495 V 8.523 H 6.64 V 8.211 A 2.021,2.021 0 0 0 8.356,6.495 H 8.063 A 1.733,1.733 0 0 1 6.35,7.944 1.733,1.733 0 0 1 4.637,6.494 H 4.344 Z"
     id="path2"
     inkscape:connector-curvature="0"
     style="fill:#963996" />
</svg>
