<svg xmlns="http://www.w3.org/2000/svg" width="48" height="48" viewBox="0 0 12.7 12.7"><path d="M6.34.07a6.29 6.29 0 0 0-6.29 6.3 6.29 6.29 0 0 0 6.3 6.28 6.29 6.29 0 0 0 6.28-6.29A6.29 6.29 0 0 0 6.34.07zM6.32 1l.01.01a5.4 5.4 0 0 1 5.4 5.4 5.4 5.4 0 0 1-5.4 5.41 5.4 5.4 0 0 1-5.41-5.4A5.4 5.4 0 0 1 6.32 1zm3.52 1.86c-.33.01-.7.16-.98.35-.74.49-1.56 1.27-2.3 2A8.32 8.32 0 0 0 2.4 7.27l-.01.02v.04c0 .06.1.13.16.13h.02c.67-.22 1.5-.44 2.17-.33-.1.14-.21.31-.33.52-.1.17-.18.32-.22.47-.3.1-.71.3-.97.6-.33.37-.42.79-.42 1.37a2.07 2.07 0 0 0 1.92-1.57 5.3 5.3 0 0 0 .9-.51c.1.66-.12 1.49-.34 2.17v.02c0 .07.08.15.14.16h.02l.04-.01a8.32 8.32 0 0 0 2.05-4.17c.74-.73 1.52-1.55 2-2.29.2-.3.36-.69.35-1.03h-.04zM4.18 8.18a.4.4 0 0 0 0 .06.54.54 0 0 0-.12.1c-.13.15-.3.39-.34.61.25-.02.57-.14.72-.27a.5.5 0 0 0 .1-.11c.05 0 .1-.02.14-.04a1 1 0 0 1-.31.52c-.26.22-.7.47-1.12.5a2 2 0 0 1 .42-1.08c.13-.15.33-.24.5-.3z" fill="#963996"/><path d="M8.88 3.18c-.26.18-.5.36-.74.56l.4.44.68-.66zm-.34 1l-.74.75.45.5c.25-.26.5-.52.72-.8zm-1.19.26c-.28.25-.54.52-.78.77.08-.03.17.02.15.18l.3.31.78-.77zM7.02 5.7l-.83.84.43.47c.3-.27.59-.64.87-.81zm-1.1.55l-.41.42c-.17.16-.4.33-.64.39l-.05.07.38.38.98-.97zM5.2 7.51l-.56.56.34.32c.22-.13.44-.24.64-.4l-.04-.1z" opacity=".75" fill="#fff" fill-opacity=".95" fill-rule="evenodd"/></svg>
