<svg xmlns="http://www.w3.org/2000/svg" width="48" height="48" viewBox="0 0 12.7 12.7"><path d="M6.34.07a6.29 6.29 0 0 0-6.29 6.3 6.29 6.29 0 0 0 6.3 6.28 6.29 6.29 0 0 0 6.28-6.29A6.29 6.29 0 0 0 6.34.07zM6.32 1l.01.01a5.4 5.4 0 0 1 5.4 5.4 5.4 5.4 0 0 1-5.4 5.41 5.4 5.4 0 0 1-5.41-5.4A5.4 5.4 0 0 1 6.32 1zM2.88 2.88a.5.5 0 0 0-.49.5v5.94a.5.5 0 0 0 .5.5h6.93a.5.5 0 0 0 .49-.5V3.4a.5.5 0 0 0-.5-.5H2.89zM2.9 4.5h6.92c.07 0 .11.06.11.13v4.69a.13.13 0 0 1-.11.13H2.9a.13.13 0 0 1-.15-.12v-4.7c0-.07.08-.13.15-.13zm3.45.6l-.53 1.07h1.06L6.35 5.1zm-.8 1.33l-1.05.53 1.06.53V6.42zm1.6 0v1.06l1.05-.53-1.06-.53zm-.8.27a.26.26 0 1 0 0 .52.26.26 0 1 0 0-.52zm-.53 1.05l.53 1.06.53-1.06H5.82z" fill="#963996"/></svg>
