<?xml version="1.0" encoding="UTF-8" standalone="no"?>
<svg
   xmlns:dc="http://purl.org/dc/elements/1.1/"
   xmlns:cc="http://creativecommons.org/ns#"
   xmlns:rdf="http://www.w3.org/1999/02/22-rdf-syntax-ns#"
   xmlns:svg="http://www.w3.org/2000/svg"
   xmlns="http://www.w3.org/2000/svg"
   xmlns:sodipodi="http://sodipodi.sourceforge.net/DTD/sodipodi-0.dtd"
   xmlns:inkscape="http://www.inkscape.org/namespaces/inkscape"
   width="48"
   height="48"
   viewBox="0 0 12.7 12.7"
   version="1.1"
   id="svg4"
   sodipodi:docname="rhythmbox.svg"
   inkscape:version="0.92.4 (5da689c313, 2019-01-14)">
  <metadata
     id="metadata10">
    <rdf:RDF>
      <cc:Work
         rdf:about="">
        <dc:format>image/svg+xml</dc:format>
        <dc:type
           rdf:resource="http://purl.org/dc/dcmitype/StillImage" />
        <dc:title></dc:title>
      </cc:Work>
    </rdf:RDF>
  </metadata>
  <defs
     id="defs8" />
  <sodipodi:namedview
     pagecolor="#ffffff"
     bordercolor="#666666"
     borderopacity="1"
     objecttolerance="10"
     gridtolerance="10"
     guidetolerance="10"
     inkscape:pageopacity="0"
     inkscape:pageshadow="2"
     inkscape:window-width="1087"
     inkscape:window-height="480"
     id="namedview6"
     showgrid="false"
     inkscape:zoom="4.9166667"
     inkscape:cx="2.1355932"
     inkscape:cy="24"
     inkscape:window-x="0"
     inkscape:window-y="25"
     inkscape:window-maximized="0"
     inkscape:current-layer="svg4" />
  <path
     d="m 6.344,0.073 a 6.29,6.29 0 0 0 -6.29,6.29 6.29,6.29 0 0 0 6.29,6.288 6.29,6.29 0 0 0 6.29,-6.289 6.29,6.29 0 0 0 -6.29,-6.29 z M 6.326,1.009 A 5.407,5.407 0 0 1 11.733,6.416 5.407,5.407 0 0 1 6.326,11.823 5.407,5.407 0 0 1 0.92,6.416 5.407,5.407 0 0 1 6.326,1.01 Z M 6.35,2.132 c -1.636,0 -2.952,0.106 -2.952,0.236 v 7.964 c 0,0.13 1.316,0.236 2.952,0.236 1.636,0 2.952,-0.106 2.952,-0.236 V 2.368 C 9.302,2.238 7.986,2.132 6.35,2.132 Z M 4.672,2.958 A 0.837,0.844 0 0 1 5.509,3.801 0.837,0.844 0 0 1 4.672,4.645 0.837,0.844 0 0 1 3.835,3.801 0.837,0.844 0 0 1 4.672,2.958 Z m 3.338,0 A 0.837,0.844 0 0 1 8.847,3.801 0.837,0.844 0 0 1 8.01,4.645 0.837,0.844 0 0 1 7.174,3.801 0.837,0.844 0 0 1 8.01,2.958 Z M 6.36,5.488 A 2.118,2.136 0 0 1 8.477,7.625 2.118,2.136 0 0 1 6.359,9.76 2.118,2.136 0 0 1 4.241,7.624 2.118,2.136 0 0 1 6.36,5.489 Z M 6.366,6.763 A 0.837,0.844 0 0 0 5.529,7.606 0.837,0.844 0 0 0 6.366,8.45 0.837,0.844 0 0 0 7.203,7.606 0.837,0.844 0 0 0 6.366,6.763 Z"
     id="path2"
     inkscape:connector-curvature="0"
     style="fill:#963996" />
</svg>
