<svg xmlns="http://www.w3.org/2000/svg" width="48" height="48" viewBox="0 0 12.7 12.7"><path fill="#963996" d="M6.344.073a6.29 6.29 0 0 0-6.29 6.29 6.29 6.29 0 0 0 6.29 6.288 6.29 6.29 0 0 0 6.29-6.289 6.29 6.29 0 0 0-6.29-6.29zm-.018.936a5.407 5.407 0 0 1 5.407 5.407 5.407 5.407 0 0 1-5.407 5.407A5.407 5.407 0 0 1 .92 6.416 5.407 5.407 0 0 1 6.326 1.01zM4.413 2.107a2.307 2.307 0 0 0-2.035 3.396 4.08 4.08 0 0 0-.087.847 4.06 4.06 0 0 0 4.059 4.059c.29 0 .574-.029.847-.087a2.307 2.307 0 0 0 3.125-3.125 4.08 4.08 0 0 0 .087-.847A4.06 4.06 0 0 0 6.35 2.292c-.29 0-.574.034-.847.092a2.304 2.304 0 0 0-1.09-.277zm1.862 1.68c1.268 0 1.92.67 1.92 1.061 0 .392-.19.456-.502.456-.604 0-.353-.727-1.487-.727-.376 0-.842.169-.842.606 0 .351.408.479 1.142.657 1.102.295 1.937.594 1.937 1.603 0 .98-.808 1.47-2.076 1.47s-2.075-.756-2.075-1.148c0-.392.15-.495.461-.495.604 0 .52.824 1.655.824.375 0 .928-.168.928-.606 0-.35-.027-.476-.83-.691-.86-.117-2.249-.392-2.249-1.458 0-.98.75-1.552 2.018-1.552z"/></svg>
