<svg xmlns="http://www.w3.org/2000/svg" width="48" height="48" viewBox="0 0 12.7 12.7"><path fill="green" d="M6.35 1.845a4.498 4.481 0 0 0-4.498 4.481 4.498 4.481 0 0 0 4.498 4.482 4.498 4.481 0 0 0 4.498-4.482 4.498 4.481 0 0 0-4.498-4.48zm-.81 2.008v.006c.707 0 1.438.072 2.114.217a6.818 6.818 0 0 1 1.562.528c.281.137.387.214.438.323a.5.5 0 0 1 .007.342.453.453 0 0 1-.489.25 3.017 3.017 0 0 1-.369-.162c-.655-.319-1.333-.5-2.282-.609-.35-.04-1.447-.046-1.794-.011a7.795 7.795 0 0 0-1.006.172c-.272.07-.352.072-.476.005a.395.395 0 0 1-.233-.374c0-.136.044-.23.146-.316.084-.07.106-.08.406-.154a8.367 8.367 0 0 1 1.975-.217zM5.38 5.528v.002h.413c.286.005.57.02.71.04.817.12 1.504.345 2.13.694.379.21.46.291.493.483.038.22-.154.449-.374.45a.905.905 0 0 1-.233-.11c-.739-.434-1.38-.648-2.251-.748a5.044 5.044 0 0 0-.741-.023c-.543.013-.841.05-1.286.174a2.622 2.622 0 0 1-.334.077c-.083 0-.228-.087-.277-.166-.127-.206-.054-.485.153-.585.196-.095.814-.226 1.29-.274.073-.01.181-.013.307-.014zm.194 1.67v.001c.1-.001.216 0 .33.001a4.3 4.3 0 0 1 .569.04c.653.12 1.203.344 1.704.693.302.21.367.291.394.483.03.22-.123.45-.299.45a.664.664 0 0 1-.187-.109c-.591-.435-1.104-.649-1.801-.75a3.239 3.239 0 0 0-.593-.021c-.435.012-.672.05-1.028.173a1.774 1.774 0 0 1-.268.078c-.066 0-.182-.087-.221-.166-.102-.206-.044-.485.121-.585.157-.095.652-.226 1.033-.274.059-.01.145-.013.246-.014z" opacity=".75"/><path fill="#963996" d="M6.344.073a6.29 6.29 0 0 0-6.29 6.29 6.29 6.29 0 0 0 6.29 6.288 6.29 6.29 0 0 0 6.29-6.289 6.29 6.29 0 0 0-6.29-6.29zm-.018.936a5.407 5.407 0 0 1 5.407 5.407 5.407 5.407 0 0 1-5.407 5.407A5.407 5.407 0 0 1 .92 6.416 5.407 5.407 0 0 1 6.326 1.01z"/></svg>
