<svg xmlns="http://www.w3.org/2000/svg" width="48" height="48" viewBox="0 0 12.7 12.7"><path fill="#963996" d="M6.344.073a6.29 6.29 0 0 0-6.29 6.29 6.29 6.29 0 0 0 6.29 6.288 6.29 6.29 0 0 0 6.29-6.289 6.29 6.29 0 0 0-6.29-6.29zm-.018.936a5.407 5.407 0 0 1 5.407 5.407 5.407 5.407 0 0 1-5.407 5.407A5.407 5.407 0 0 1 .92 6.416 5.407 5.407 0 0 1 6.326 1.01zm1.339 1.637c-1.112-.025-2.406.523-3.45 1.567-1.472 1.472-1.957 3.44-1.246 4.694.308-.764 1.105-1.916 3.17-2.64 2.253-.79 3.005-2.252 3.241-2.939-.002 0-.002-.003-.004-.004-.442-.442-1.044-.663-1.711-.677v-.001zm2.043 1.108c-.179.417-.49.962-1.027 1.498-.539.54-1.305 1.07-2.39 1.45-2.203.772-2.818 2.037-2.99 2.65a.52.52 0 0 1 .023.024c1.18 1.18 3.49.782 5.162-.89C9.973 7 10.45 5.006 9.708 3.754z"/></svg>
