<svg xmlns="http://www.w3.org/2000/svg" width="48" height="48" viewBox="0 0 12.7 12.7"><path d="M6.34.07a6.29 6.29 0 0 0-6.29 6.3 6.29 6.29 0 0 0 6.3 6.28 6.29 6.29 0 0 0 6.28-6.29A6.29 6.29 0 0 0 6.34.07zM6.32 1l.01.01a5.4 5.4 0 0 1 5.4 5.4 5.4 5.4 0 0 1-5.4 5.41 5.4 5.4 0 0 1-5.41-5.4A5.4 5.4 0 0 1 6.32 1z" fill="#963996"/><path d="M6.45 2.18H6.3c-1.47.12-1.08 1.68-1.1 2.2-.03.38-.11.68-.37 1.05-.31.37-.74.96-.95 1.58-.05.16-.08.33-.1.5a2.98 1.49 0 0 0-.4.73v-.63c0-.23-.2-.42-.43-.42h-.42a.43.43 0 0 0-.43.42v1.7c0 .24.2.43.43.43h.42c.24 0 .43-.19.43-.43h.9a2.98 1.49 0 0 0 2.08.43 2.98 1.49 0 0 0 2.08-.43h.9c0 .24.2.43.43.43h.42c.24 0 .43-.19.43-.43v-1.7c0-.23-.2-.42-.43-.42h-.42a.43.43 0 0 0-.43.42v1.07H9.2a2.98 1.49 0 0 0 .13-.43 2.98 1.49 0 0 0-.21-.55c.05-.34-.01-.68-.13-1-.18-.49-.5-.92-.76-1.21-.27-.35-.55-.68-.54-1.17 0-.75.08-2.14-1.24-2.14zm.18 1.15c.08 0 .14.02.2.07.07.05.12.11.16.2.04.08.06.16.06.25v.01a.63.63 0 0 1-.13.4 2.46 2.46 0 0 0-.13-.05l-.07-.04c.01-.02.05-.04.06-.07a.4.4 0 0 0 .01-.3.26.26 0 0 0-.07-.1.13.13 0 0 0-.09-.05.14.14 0 0 0-.1.04.26.26 0 0 0-.07.1.43.43 0 0 0-.02.23 1.06 1.06 0 0 0-.21-.06v-.09c-.01-.1 0-.18.04-.27a.47.47 0 0 1 .15-.2.33.33 0 0 1 .21-.07zm-1.02.08c.05 0 .1.02.14.06a.4.4 0 0 1 .12.16c.03.07.05.14.05.23v.1a.6.6 0 0 0-.16.07v-.09a.4.4 0 0 0-.03-.12.22.22 0 0 0-.06-.08.1.1 0 0 0-.07-.03c-.03 0-.05.02-.07.04a.22.22 0 0 0-.04.1v.12c0 .05 0 .08.02.12a.22.22 0 0 0 .07.1l-.06.04-.05.03a.42.42 0 0 1-.1-.14.64.64 0 0 1-.04-.23c0-.08 0-.16.02-.23a.4.4 0 0 1 .1-.18c.05-.04.1-.06.15-.07h.01zm.47.59c.11 0 .25.04.42.14.1.07.18.08.37.16.09.03.14.08.16.13a.2.2 0 0 1 0 .16c-.03.12-.17.24-.36.3-.1.03-.18.1-.27.15a.6.6 0 0 1-.36.09.46.46 0 0 1-.26-.1c-.07-.06-.13-.13-.22-.18-.14-.08-.21-.17-.24-.25-.02-.08 0-.14.07-.2l.17-.12.06-.05c.06-.05.15-.15.3-.2A.5.5 0 0 1 6.07 4zm-.14.13l-.06.01c-.02.01-.06.03-.06.05 0 .02.03.03.05.03.02 0 .03-.02.05-.03.02-.01.05 0 .06-.03l-.01-.02h-.03zm.27 0l-.03.01v.02c0 .02.03.02.05.03l.05.03c.01 0 .04-.01.04-.03 0-.02-.03-.04-.05-.05a.14.14 0 0 0-.06 0zm.62.3c-.04 0-.04.05-.09.09l-.22.16c-.12.07-.32.17-.5.17a.65.65 0 0 1-.4-.16l-.12-.12c-.03-.02-.03-.07-.07-.08-.03 0-.03.07.02.11l.13.12c.11.08.26.17.45.17s.37-.1.52-.18c.08-.04.18-.11.24-.17.06-.05.1-.1.05-.1zm.22.27c.13.5.42 1.21.6 1.56.08.14.21.4.31.74a2.98 1.49 0 0 0-.55-.14 1.06 1.06 0 0 0 0-.1A1.06 1.06 0 0 0 6.35 5.7a1.06 1.06 0 0 0-1.06 1.06 1.06 1.06 0 0 0 0 .1 2.98 1.49 0 0 0-.6.16c.02-.12.05-.23.1-.35.2-.44.6-1.21.64-1.83l.1.07c.08.04.13.1.2.16a.5.5 0 0 0 .35.12c.14 0 .26-.04.35-.1.1-.05.18-.12.26-.14a.7.7 0 0 0 .36-.25zm.75 1.15a2 2 0 0 1 .57.96c.03.12.04.24.03.36a2.98 1.49 0 0 0-.13-.05C8.34 6.6 8 6.1 7.84 5.95c-.08-.07-.08-.1-.04-.1zM4.75 6c.04-.03.01.05-.14.33a1.7 1.7 0 0 0-.2.8 2.98 1.49 0 0 0-.13.05c0-.07 0-.15.03-.22.08-.37.3-.74.44-.96zm1.6.12a.64.64 0 0 1 .41.16l-.41.23-.41-.23a.64.64 0 0 1 .4-.16zm-.63.52l.23.14a2.98 1.49 0 0 0-.24.02.64.64 0 0 1 0-.04.64.64 0 0 1 .01-.12zm1.26 0a.64.64 0 0 1 0 .12.64.64 0 0 1 0 .04 2.98 1.49 0 0 0-.23-.02zm-.74.76c.06 0 .11.14.11.32v.64c0 .17-.05.32-.1.32-.07 0-.11-.15-.11-.32v-.64c0-.18.04-.32.1-.32zm.43 0c.06 0 .1.14.1.32v.64c0 .17-.04.32-.1.32-.06 0-.1-.15-.1-.32v-.64c0-.18.04-.32.1-.32zm-2.02.21a.43.43 0 0 1 .42.43.43.43 0 0 1-.42.42.43.43 0 0 1-.43-.42.43.43 0 0 1 .43-.43zm1.17 0c.06 0 .1.1.1.22v.42c0 .12-.04.21-.1.21-.06 0-.1-.1-.1-.2v-.43c0-.12.04-.22.1-.22zm1.28 0c.05 0 .1.1.1.22v.42c0 .12-.05.21-.1.21-.06 0-.11-.1-.11-.2v-.43c0-.12.05-.22.1-.22zm.95 0a.43.43 0 0 1 .43.43.43.43 0 0 1-.43.42.43.43 0 0 1-.42-.42.43.43 0 0 1 .42-.43zm-4.68.64a2.98 1.49 0 0 0 .13.43h-.13z" fill="#963996"/></svg>
