<?xml version="1.0" encoding="UTF-8" standalone="no"?><svg xmlns:dc="http://purl.org/dc/elements/1.1/" xmlns:cc="http://creativecommons.org/ns#" xmlns:rdf="http://www.w3.org/1999/02/22-rdf-syntax-ns#" xmlns="http://www.w3.org/2000/svg" width="48" height="48" viewBox="0 0 12.7 12.7"><metadata><rdf:RDF><cc:Work><dc:format>image/svg+xml</dc:format><dc:type rdf:resource="http://purl.org/dc/dcmitype/StillImage"/><dc:title/></cc:Work></rdf:RDF></metadata><path d="M6.34.07a6.29 6.29 0 0 0-6.29 6.3 6.29 6.29 0 0 0 6.3 6.28 6.29 6.29 0 0 0 6.28-6.29A6.29 6.29 0 0 0 6.34.07zm-.01.94a5.4 5.4 0 0 1 5.4 5.4 5.4 5.4 0 0 1-5.4 5.41 5.4 5.4 0 0 1-5.41-5.4A5.4 5.4 0 0 1 6.32 1zm.87 1.01c-.93 0-1.68.72-1.68 1.6 0 .32.03.7.22 1.58.06.17.31.46.57.73l-.02.19c-.13.1-.3.2-.47.28A2.76 2.76 0 0 1 5.09 6v-.17c.12-.17.24-.33.27-.42.13-.62.13-.85.14-1.08 0-.6-.47-1.07-1.06-1.07-.58 0-1.06.48-1.06 1.07 0 .22.02.48.14 1.08.03.09.15.23.27.38v.21c-.52.43-1.93.62-1.93 1.07L1.7 8.4c0 .38.92.7 2.14.78.2.5 1.63.87 3.37.87 1.87 0 3.39-.44 3.39-.99l-.22-1.64c0-.47-1.64-.76-2.27-1.31l-.01-.13c.24-.3.5-.61.56-.79.21-.9.21-1.25.22-1.59 0-.87-.75-1.58-1.67-1.58z" fill="#963996"/></svg>
