<?xml version="1.0" encoding="UTF-8" standalone="no"?><svg xmlns:dc="http://purl.org/dc/elements/1.1/" xmlns:cc="http://creativecommons.org/ns#" xmlns:rdf="http://www.w3.org/1999/02/22-rdf-syntax-ns#" xmlns="http://www.w3.org/2000/svg" width="48" height="48" viewBox="0 0 12.7 12.7"><metadata><rdf:RDF><cc:Work><dc:format>image/svg+xml</dc:format><dc:type rdf:resource="http://purl.org/dc/dcmitype/StillImage"/><dc:title/></cc:Work></rdf:RDF></metadata><path d="M6.34.07a6.29 6.29 0 0 0-6.29 6.3 6.29 6.29 0 0 0 6.3 6.28 6.29 6.29 0 0 0 6.28-6.29A6.29 6.29 0 0 0 6.34.07zm-.01.94a5.4 5.4 0 0 1 5.4 5.4 5.4 5.4 0 0 1-5.4 5.41 5.4 5.4 0 0 1-5.41-5.4A5.4 5.4 0 0 1 6.32 1z" fill="#963996"/><path d="M3.5 3.73a.34.53 45 0 0-.57.81l1.79 1.8-1.8 1.78a.53.34 45 1 0 .75.75l2.21-2.21a.53.34 45 0 0 .05-.09.18.33 0 0 0 .07-.24.18.33 0 0 0-.08-.27.34.53 45 0 0-.04-.06l-2.2-2.2a.34.53 45 0 0-.18-.07zM6.46 7.68a.34.53 0 1 0 0 1.05h3.12a.34.53 0 0 0 0-1.05H6.46z" fill="#0f0" opacity=".75"/></svg>
