<?xml version="1.0" encoding="UTF-8" standalone="no"?>
<svg
   xmlns:dc="http://purl.org/dc/elements/1.1/"
   xmlns:cc="http://creativecommons.org/ns#"
   xmlns:rdf="http://www.w3.org/1999/02/22-rdf-syntax-ns#"
   xmlns:svg="http://www.w3.org/2000/svg"
   xmlns="http://www.w3.org/2000/svg"
   xmlns:sodipodi="http://sodipodi.sourceforge.net/DTD/sodipodi-0.dtd"
   xmlns:inkscape="http://www.inkscape.org/namespaces/inkscape"
   width="48"
   height="48"
   viewBox="0 0 12.7 12.7"
   version="1.1"
   id="svg13"
   sodipodi:docname="vidcutter.svg"
   inkscape:version="0.92.4 (5da689c313, 2019-01-14)">
  <metadata
     id="metadata17">
    <rdf:RDF>
      <cc:Work
         rdf:about="">
        <dc:format>image/svg+xml</dc:format>
        <dc:type
           rdf:resource="http://purl.org/dc/dcmitype/StillImage" />
        <dc:title></dc:title>
      </cc:Work>
    </rdf:RDF>
  </metadata>
  <sodipodi:namedview
     pagecolor="#ffffff"
     bordercolor="#666666"
     borderopacity="1"
     objecttolerance="10"
     gridtolerance="10"
     guidetolerance="10"
     inkscape:pageopacity="0"
     inkscape:pageshadow="2"
     inkscape:window-width="1087"
     inkscape:window-height="480"
     id="namedview15"
     showgrid="false"
     inkscape:zoom="4.9166667"
     inkscape:cx="2.1355932"
     inkscape:cy="24"
     inkscape:window-x="0"
     inkscape:window-y="25"
     inkscape:window-maximized="0"
     inkscape:current-layer="svg13" />
  <defs
     id="defs5">
    <clipPath
       id="a">
      <path
         fill="#963996"
         stroke-width=".139"
         d="M-9.549 285.31a5.407 5.407 0 0 1 5.407 5.406 5.407 5.407 0 0 1-5.407 5.407 5.407 5.407 0 0 1-5.407-5.407 5.407 5.407 0 0 1 5.407-5.407z"
         id="path2" />
    </clipPath>
  </defs>
  <g
     id="g11"
     style="fill:#963996">
    <path
       d="m 6.344,0.073 a 6.29,6.29 0 0 0 -6.29,6.29 6.29,6.29 0 0 0 6.29,6.288 6.29,6.29 0 0 0 6.29,-6.289 6.29,6.29 0 0 0 -6.29,-6.29 z M 6.326,1.009 A 5.407,5.407 0 0 1 11.733,6.416 5.407,5.407 0 0 1 6.326,11.823 5.407,5.407 0 0 1 0.92,6.416 5.407,5.407 0 0 1 6.326,1.01 Z"
       id="path7"
       inkscape:connector-curvature="0" />
    <path
       d="m -5.744,283.475 -10.956,10.955 0.303,0.303 0.773,-0.771 0.773,0.771 -0.773,0.773 1.159,1.16 0.773,-0.773 0.773,0.772 -0.773,0.773 0.386,0.386 10.956,-10.954 z m -0.608,1.214 0.773,0.773 -0.773,0.773 -0.772,-0.773 z m -1.545,1.546 0.773,0.772 -0.773,0.773 -0.772,-0.773 z m 3.477,0.386 0.773,0.773 -0.773,0.773 -0.772,-0.773 z m -5.022,1.159 0.773,0.773 -0.773,0.773 -0.773,-0.773 z m 3.477,0.387 0.773,0.772 -0.773,0.773 -0.773,-0.773 z m -5.022,1.159 0.772,0.773 -0.772,0.772 -0.773,-0.772 z m 3.476,0.386 0.773,0.773 -0.773,0.773 -0.772,-0.773 z m -5.022,1.159 0.773,0.773 -0.773,0.773 -0.773,-0.773 z m 3.477,0.387 0.773,0.773 -0.773,0.772 -0.772,-0.772 z m -5.023,1.159 0.773,0.773 -0.773,0.773 -0.772,-0.773 z m 3.478,0.386 0.773,0.773 -0.773,0.772 -0.773,-0.772 z m -1.546,1.545 0.773,0.773 -0.773,0.773 -0.772,-0.773 z"
       clip-path="url(#a)"
       transform="matrix(1.01965,0,0,1.01965,15.956,-290.118)"
       id="path9"
       inkscape:connector-curvature="0" />
  </g>
</svg>
