<svg xmlns="http://www.w3.org/2000/svg" width="48" height="48" viewBox="0 0 12.7 12.7"><g fill="#2c89a0"><path d="M6.344.073a6.29 6.29 0 0 0-6.29 6.29 6.29 6.29 0 0 0 6.29 6.289 6.29 6.29 0 0 0 6.29-6.29 6.29 6.29 0 0 0-6.29-6.29zm-.018.936a5.407 5.407 0 0 1 5.407 5.407 5.407 5.407 0 0 1-5.407 5.407A5.407 5.407 0 0 1 .92 6.416 5.407 5.407 0 0 1 6.326 1.01z"/><path d="M7.07 2.294a.405.405 0 0 0-.406.406v7.638c0 .225.181.406.406.406h.534a.405.405 0 0 0 .406-.406v-1.26h1.073c.208 0 .375-.157.375-.35v-1.59c0-.194-.167-.35-.375-.35H8.01v-.47h1.073c.208 0 .375-.157.375-.351v-1.59c0-.194-.167-.35-.375-.35H8.01v-.454h.974a.405.405 0 0 0 .407-.406V2.7a.405.405 0 0 0-.407-.406zm-3.414.54a.264.264 0 0 0-.098.022l-.583.26a.251.251 0 0 0-.128.332l1.344 3.03A1.67 1.67 0 0 0 2.669 8.14a1.67 1.67 0 0 0 1.67 1.67A1.67 1.67 0 0 0 6.01 8.14a1.67 1.67 0 0 0-.082-.508.253.253 0 0 0-.02-.104l-1.736-3.91 1.504.663c.212.093.417.042.46-.115.042-.157-.094-.358-.305-.451l-1.883-.829a.479.479 0 0 0-.228-.04c-.02-.005-.042-.011-.064-.011zM8.01 4.608h.408c.112 0 .201.084.201.188v.852c0 .104-.09.187-.2.187H8.01zm0 2.76h.408c.112 0 .201.085.201.189v.851c0 .104-.09.188-.2.188H8.01z"/></g></svg>