<svg xmlns="http://www.w3.org/2000/svg" width="48" height="48" viewBox="0 0 12.7 12.7"><path d="M6.344.073a6.29 6.29 0 0 0-6.29 6.29 6.29 6.29 0 0 0 6.29 6.288 6.29 6.29 0 0 0 6.29-6.289 6.29 6.29 0 0 0-6.29-6.29zm-.018.936a5.407 5.407 0 0 1 5.407 5.407 5.407 5.407 0 0 1-5.407 5.407A5.407 5.407 0 0 1 .92 6.416 5.407 5.407 0 0 1 6.326 1.01zM5.44 2.194l-2.51 2.51V9.72c0 .462.375.836.837.836h5.022a.833.833 0 0 0 .833-.836l-.005-6.69a.833.833 0 0 0-.832-.837H5.439zM4.184 5.958h.837V7.63h-.837V5.958zm1.673 0h.836v.836h-.836v-.836zm1.673 0h.836V7.63H7.53V5.958zM5.857 7.63h.836v1.672h-.836V7.63zm-1.673.836h.837v.836h-.837v-.836zm3.346 0h.836v.836H7.53v-.836z" fill="#2c89a0"/></svg>