<svg xmlns="http://www.w3.org/2000/svg" width="48" height="48" viewBox="0 0 12.7 12.7"><path d="M6.344.073a6.29 6.29 0 0 0-6.29 6.29 6.29 6.29 0 0 0 6.29 6.288 6.29 6.29 0 0 0 6.29-6.289 6.29 6.29 0 0 0-6.29-6.29zm-.018.936a5.407 5.407 0 0 1 5.407 5.407 5.407 5.407 0 0 1-5.407 5.407A5.407 5.407 0 0 1 .92 6.416 5.407 5.407 0 0 1 6.326 1.01zm-1.892.879v2.476h3.839V1.888H4.434zm.64.619h.64v.619h-.64v-.62zm1.92 0h.64v.619h-.64v-.62zm-3.2 2.476v3.134c0 1.694 1.142 3.057 2.56 3.057 1.417 0 2.558-1.363 2.558-3.057V4.983H3.795z" fill="#2c89a0"/></svg>