<svg xmlns="http://www.w3.org/2000/svg" width="48" height="48" viewBox="0 0 12.7 12.7"><path d="M6.34.07a6.29 6.29 0 0 0-6.29 6.3 6.29 6.29 0 0 0 6.3 6.28 6.29 6.29 0 0 0 6.28-6.29A6.29 6.29 0 0 0 6.34.07zm-.01.94a5.4 5.4 0 0 1 5.4 5.4 5.4 5.4 0 0 1-5.4 5.41 5.4 5.4 0 0 1-5.41-5.4A5.4 5.4 0 0 1 6.32 1zm2.64 1.77c-.13 0-.24.1-.24.24v7.18a5.4 5.4 0 0 0 .05-.02 5.4 5.4 0 0 0 .47-.27 5.4 5.4 0 0 0 .43-.31V3.02c0-.14-.1-.24-.23-.24h-.48zM7.54 4.2c-.13 0-.24.1-.24.24v6.23a5.4 5.4 0 0 0 .47-.11 5.4 5.4 0 0 0 .48-.16V4.45c0-.14-.1-.24-.23-.24h-.48zM6.11 5.64c-.13 0-.24.1-.24.23v4.87a5.4 5.4 0 0 0 .46.03 5.4 5.4 0 0 0 .38-.02 5.4 5.4 0 0 0 .12-.01V5.87a.23.23 0 0 0-.24-.23H6.1zM4.68 7.06a.23.23 0 0 0-.23.24v3.12a5.4 5.4 0 0 0 .28.1 5.4 5.4 0 0 0 .52.14 5.4 5.4 0 0 0 .15.02V7.3c0-.13-.1-.24-.24-.24h-.48zM3.25 8.5c-.13 0-.23.1-.23.24v.9a5.4 5.4 0 0 0 .25.2 5.4 5.4 0 0 0 .46.27 5.4 5.4 0 0 0 .24.12v-1.5a.24.24 0 0 0-.24-.24h-.48z" stroke-width="3.78" fill="#2c89a0"/></svg>