<svg xmlns="http://www.w3.org/2000/svg" width="24" height="24" viewBox="0 0 6.35 6.35"><path d="M4.303 4.922h-2.25l.001.313c.752.543 1.617.378 2.249-.008z" fill="maroon"/><path d="M3.209.864a2.351 2.351 0 0 0-1.16.29l.005 3.768h2.25l.002-3.763A2.53 2.53 0 0 0 3.209.864zm-.023 1.058c.015 0 .03.002.045.008.121.028.18.164.158.279-.042.484-.1.967-.137 1.452h-.14c-.044-.505-.103-1.005-.154-1.509 0-.015 0-.031.003-.047a.218.218 0 0 1 .18-.18c.014-.003.03-.004.045-.003zM3.17 3.966a.23.23 0 0 1 .072.452c-.14.047-.305-.07-.3-.22a.229.229 0 0 1 .087-.18.208.208 0 0 1 .141-.052z" opacity=".5" fill="#1a1a1a"/><path d="M3.175.56A2.615 2.615 0 0 0 .56 3.175 2.615 2.615 0 0 0 3.175 5.79 2.615 2.615 0 0 0 5.79 3.175 2.615 2.615 0 0 0 3.175.56zm-.007.389a2.249 2.249 0 0 1 2.248 2.248 2.249 2.249 0 0 1-2.248 2.249 2.249 2.249 0 0 1-2.25-2.249A2.249 2.249 0 0 1 3.169.95z" fill="maroon"/></svg>