<svg xmlns="http://www.w3.org/2000/svg" version="1.1" width="24" height="24"><defs><clipPath clipPathUnits="userSpaceOnUse" id="a"><ellipse cx="24.01" cy="23.906" rx="19.922" ry="19.838" opacity=".75" fill="#333" fill-opacity="1" stroke="none" stroke-width=".83" stroke-opacity="1"/></clipPath><clipPath clipPathUnits="userSpaceOnUse" id="b"><ellipse cx="24.01" cy="23.906" rx="19.922" ry="19.838" opacity=".75" fill="#333" fill-opacity="1" stroke="none" stroke-width=".83" stroke-opacity="1"/></clipPath><clipPath clipPathUnits="userSpaceOnUse" id="c"><ellipse cx="24.01" cy="23.906" rx="19.922" ry="19.838" opacity=".75" fill="#333" fill-opacity="1" stroke="none" stroke-width=".83" stroke-opacity="1"/></clipPath></defs><g fill="gray"><path d="M9.083 21.673a9.885 9.935 0 0 1-6.755-9.424 9.885 9.935 0 0 1 6.754-9.423" opacity="1" fill-opacity="1"/><path d="M14 47.186h4V1.627h-4z" clip-path="url(#a)" transform="matrix(-.49804 0 0 -.49804 24.207 24.156)"/><path d="M22 44h4V4h-4z" clip-path="url(#b)" transform="matrix(-.49804 0 0 -.49804 24.207 24.156)"/><path transform="matrix(-.49804 0 0 -.49804 24.207 24.156)" d="M6 3.322V15.48a19.922 19.838 0 0 0-1.912 8.426A19.922 19.838 0 0 0 6 32.328V47.12h4V3.322z" clip-path="url(#c)" fill-opacity=".302"/></g></svg>