<svg xmlns="http://www.w3.org/2000/svg" width="24" height="24"><path d="M8.79 9a1 .98 0 0 0-1 .98 1 .98 0 0 0 1 .98 1 .98 0 0 0 1-.98 1 .98 0 0 0-1-.98zm6.4 0a1 .98 0 0 0-1 .98 1 .98 0 0 0 1 .98 1 .98 0 0 0 1-.98 1 .98 0 0 0-1-.98zm-9.6.02a1 .98 0 0 0-1 .99 1 .98 0 0 0 1 .98A1 .98 0 0 0 6.6 10a1 .98 0 0 0-1-.99zm6.4 0a1 .98 0 0 0-1 .99 1 .98 0 0 0 1 .98A1 .98 0 0 0 13 10a1 .98 0 0 0-1-.99zm6.4 0a1 .98 0 0 0-1 .99 1 .98 0 0 0 1 .98A1 .98 0 0 0 19.4 10a1 .98 0 0 0-1-.99zm1.51 5a2.28 2.28 0 0 0-2.28 2.3v.9h-1.36v5.47a.91.91 0 0 0 .9.9h5.48a.92.92 0 0 0 .9-.9l.07-5.45-.97-.02h-.46v-.9a2.28 2.28 0 0 0-2.28-2.3zm0 .87c.78 0 1.42.64 1.42 1.42v.9h-2.83v-.9c0-.78.63-1.42 1.41-1.42z" fill="gray"/></svg>