<svg xmlns="http://www.w3.org/2000/svg" width="24" height="24" viewBox="0 0 6.35 6.35"><path style="marker:none" d="M3.01 1.13a.16.16 0 0 0-.16.16v.65c0 .1.07.17.16.17h.33c.09 0 .16-.08.16-.17V1.3a.16.16 0 0 0-.16-.16zm-1.25.27l-.06.03-.28.16a.16.16 0 0 0-.06.22l.32.56c.05.08.15.1.23.06l.28-.16c.07-.04.1-.14.05-.22l-.32-.57a.16.16 0 0 0-.16-.08zm2.83 0a.16.16 0 0 0-.16.08l-.32.57a.16.16 0 0 0 .05.22l.28.16c.08.05.18.02.23-.06l.32-.56a.16.16 0 0 0-.06-.22l-.28-.16a.16.16 0 0 0-.06-.03zm-3.98.87a.16.16 0 0 0-.1.06l-.22.24a.16.16 0 0 0 .02.23l.5.42c.07.06.17.05.23-.02l.21-.25a.16.16 0 0 0-.02-.22l-.5-.42a.16.16 0 0 0-.12-.04zm5.13 0c-.04 0-.09 0-.12.04l-.5.42a.16.16 0 0 0-.02.22l.2.25c.07.07.17.08.24.02l.5-.42a.16.16 0 0 0 .02-.23l-.21-.24a.16.16 0 0 0-.11-.06zm-3.93.56a.34.34 0 0 0-.34.34v1.7c0 .2.15.35.34.35h2.73a.34.34 0 0 0 .34-.34V3.17a.34.34 0 0 0-.34-.34zm.17.51h.34v.34h-.34zm.51 0h.34v.34H2.5zm.51 0h.35v.34H3zm.52 0h.34v.34h-.34zm.5 0h.35v.34h-.34zm-2.04.51h.34v.35h-.34zm.51 0h.34v.35H2.5zm.51 0h.35v.35H3zm.52 0h.34v.35h-.34zm.5 0h.35v.35h-.34zm-1.53.69h1.37v.34H2.49z" color="#bebebe" overflow="visible" fill="#963996"/></svg>
