<svg xmlns="http://www.w3.org/2000/svg" width="24" height="24" version="1"><defs><linearGradient id="a"><stop offset="0" stop-color="#fff"/><stop offset="1" stop-color="#fff" stop-opacity="0"/></linearGradient><linearGradient id="d"><stop offset="0"/><stop offset="1" stop-opacity="0"/></linearGradient><linearGradient id="b"><stop offset="0" stop-color="#f7ff00"/><stop offset="1" stop-color="#0f0"/></linearGradient><linearGradient id="c"><stop offset="0" stop-color="#ebebeb"/><stop offset="1" stop-color="#bebebe"/></linearGradient></defs><path d="M7.638 2.414c-.468 0-.845.22-.845.493v13.054c0 .273.377.493.845.493h3.412v1.297h-.846c-.469 0-.847.22-.847.494v.634H3.844v1.692h5.513v.52c0 .274.378.495.847.495h3.608c.468 0 .846-.221.846-.494v-.52h5.48l.018.022v-1.715h-5.498v-.634c0-.274-.378-.494-.846-.494h-.79v-1.297h3.581c.469 0 .846-.22.846-.493V2.907c0-.273-.377-.493-.846-.493zm.84 1.466h7.107c.372 0 .672.174.672.391V14.62c0 .217-.3.392-.672.392H8.478c-.371 0-.67-.175-.67-.392V4.271c0-.217.299-.39.67-.39zm.513.666a.618.618 0 0 0-.619.619v1.116c0 .343.276.618.619.618h6.1a.616.616 0 0 0 .617-.618V5.165a.617.617 0 0 0-.617-.619zm0 3.468a.618.618 0 0 0-.619.619v1.116c0 .343.276.618.619.618h6.1a.616.616 0 0 0 .617-.618V8.633a.617.617 0 0 0-.617-.619zm0 3.468a.618.618 0 0 0-.619.618v1.117c0 .342.276.617.619.617h6.1a.616.616 0 0 0 .617-.617V12.1a.617.617 0 0 0-.617-.618z" fill="gray"/></svg>