<svg xmlns="http://www.w3.org/2000/svg" width="24" height="24"><path d="M11.97 2.09a9.9 9.9 0 0 0-9.98 9.87 9.9 9.9 0 0 0 9.98 9.86c.43 0 .79-.19 1.2-.24l1.64-2.8a7.55 7.55 0 0 1-2.84.57 7.42 7.42 0 0 1-7.48-7.4c0-4.1 3.33-7.4 7.48-7.4a7.44 7.44 0 0 1 6.92 4.64l1.8-1.79a9.87 9.87 0 0 0-8.72-5.31zm0 4.11a5.74 5.74 0 0 0-4.95 2.9h9.9c-1-1.7-2.8-2.9-4.95-2.9zm8.72 4.06l-6.6 6.15h3.77l-2.83 5.27 6.6-7.03H18.8zm-14.32.3c-.13.45-.22.9-.22 1.4 0 .54.17 1.03.31 1.53h8.13l2.93-2.92zm.82 4.5a5.6 5.6 0 0 0 3.52 2.32l2.3-2.31z" fill="gray" stroke-width=".83"/></svg>