<svg xmlns="http://www.w3.org/2000/svg" width="24" height="24" viewBox="0 0 6.35 6.35"><path d="M3.09.56a.09.09 0 0 0-.09.1v.51c0 .05.04.1.09.1h.17c.05 0 .09-.05.09-.1V.65a.09.09 0 0 0-.09-.09H3.1zm-1.65.68a.09.09 0 0 0-.05.03l-.12.12a.09.09 0 0 0 0 .12l.37.37a.09.09 0 0 0 .12 0l.12-.12a.09.09 0 0 0 0-.12l-.37-.37a.09.09 0 0 0-.06-.03zm3.45 0a.09.09 0 0 0-.05.03l-.37.37a.09.09 0 0 0 0 .12l.12.12a.09.09 0 0 0 .12 0l.37-.37a.09.09 0 0 0 0-.12l-.12-.12a.09.09 0 0 0-.06-.03.09.09 0 0 0-.01 0zm-1.72.72a1.22 1.22 0 0 0-1.21 1.21A1.22 1.22 0 0 0 3.17 4.4 1.22 1.22 0 0 0 4.4 3.17a1.22 1.22 0 0 0-1.22-1.21zM.65 3a.09.09 0 0 0-.09.09v.17c0 .05.04.09.1.09h.51c.05 0 .1-.04.1-.09V3.1a.09.09 0 0 0-.1-.09H.65zm4.53 0a.09.09 0 0 0-.1.09v.17c0 .05.05.09.1.09h.52c.05 0 .09-.04.09-.09V3.1a.09.09 0 0 0-.1-.09h-.51zM1.69 4.44a.09.09 0 0 0-.05.03l-.37.37a.09.09 0 0 0 0 .12l.12.12a.09.09 0 0 0 .12 0l.37-.37a.09.09 0 0 0 0-.12l-.12-.12a.09.09 0 0 0-.06-.03.09.09 0 0 0-.01 0zm2.95 0a.09.09 0 0 0-.05.03l-.12.12a.09.09 0 0 0 0 .12l.37.37a.09.09 0 0 0 .12 0l.12-.12a.09.09 0 0 0 0-.12l-.37-.37a.09.09 0 0 0-.06-.03zM3.1 5.1a.09.09 0 0 0-.09.09v.52c0 .05.04.09.09.09h.17c.05 0 .09-.04.09-.1v-.51a.09.09 0 0 0-.09-.1H3.1z" fill="gray" fill-opacity=".3"/></svg>