<svg xmlns="http://www.w3.org/2000/svg" width="24" height="24"><defs><clipPath id="a"><ellipse cx="7.991" cy="40.183" rx="7.548" ry="7.491" fill="#ccc" stroke-width=".379" stroke-linecap="round" stroke-linejoin="round"/></clipPath><clipPath id="b"><ellipse cx="23.621" cy="24.5" rx="21.007" ry="21.05" fill="#ccc" stroke-width=".297" stroke-linecap="round" stroke-linejoin="round"/></clipPath><clipPath id="c"><ellipse cx="23.621" cy="24.5" rx="21.007" ry="21.05" fill="#ccc" stroke-width=".297" stroke-linecap="round" stroke-linejoin="round"/></clipPath><clipPath id="d"><ellipse cx="23.621" cy="24.5" rx="21.007" ry="21.05" fill="#ccc" stroke-width=".297" stroke-linecap="round" stroke-linejoin="round"/></clipPath></defs><g fill="gray"><path transform="scale(.47636) rotate(-45 12.946 17.995)" clip-path="url(#a)" d="M2.123 33.967v11.91h11.91z" fill-opacity=".302"/><path transform="scale(.47636) rotate(-45 12.946 17.995)" clip-path="url(#b)" d="M2.123 26.695V19.12L28.88 45.877h-7.576z" fill-opacity=".302"/><path transform="matrix(.47636 0 0 .47636 .748 .842)" d="M-3.455 14.703l5.11 5.11h43.402l5.111-5.11H18.859z" clip-path="url(#c)" fill-opacity=".302"/><path transform="matrix(.47636 0 0 .47636 .748 .842)" d="M3.127 3.906l-5.523 5.522h51.644l-5.521-5.522H20.998z" clip-path="url(#d)" fill-opacity=".302"/><path d="M11.721 4.505C9.26 4.643 7.367 6.54 7.505 9.004h2.998c-.048-.846.562-1.452 1.406-1.498a1.482 1.482 0 0 1 1.593 1.406v.044c.006.195-.047.489-.187.657-.34.408-.727.743-1.031.983a5.729 5.729 0 0 0-1.08 1.034c-.366.459-.7 1.118-.7 1.873-.011.791.706 1.5 1.5 1.5.791 0 1.508-.709 1.498-1.5 0 .003-.027.046.048-.049.073-.093.274-.25.56-.466 1.824-1.383 2.392-2.162 2.392-4.265-.138-2.462-2.317-4.356-4.78-4.218zM11.943 16.503a1.5 1.5 0 0 0 .06 2.998 1.5 1.5 0 1 0 0-2.998 1.5 1.5 0 0 0-.06 0z" fill-opacity=".996"/></g></svg>