<svg xmlns="http://www.w3.org/2000/svg" width="48" height="48" viewBox="0 0 12.7 12.7"><path d="M1.22.86L.14 3.66h6.04V.86H1.22zm5.17 0v2.8h6.11L11.4.86H6.4zM.19 3.89v6.31c0 .64.25 1.18.74 1.64.5.45 1.08.67 1.78.67h7.25c.7 0 1.28-.22 1.77-.67.5-.46.74-1 .74-1.64V3.9h-1.11v6.3c0 .36-.14.66-.41.91a1.4 1.4 0 0 1-.99.38H2.71a1.4 1.4 0 0 1-.99-.38 1.19 1.19 0 0 1-.41-.9V3.88H.2zm5.55 3.96v.46h.48v-.46h-.48zm2 .63a.87.87 0 0 0-.67.29c-.01-.08.01-.19-.02-.24h-.43v2.71h.48v-.87c.45.44 1.28.25 1.53-.3.25-.51.1-1.24-.44-1.49a1.05 1.05 0 0 0-.45-.1zm-3.72.05v.44h.8l-.9 1.16v.43h1.55v-.43H4.5l.9-1.16v-.44H4.02zm1.72 0v2.03h.48V8.53h-.49zm1.93.4c.37-.01.64.37.58.71-.03.34-.4.6-.73.5-.4-.08-.57-.62-.35-.95a.58.58 0 0 1 .5-.26z" fill="#ff7f2a"/></svg>