<svg xmlns="http://www.w3.org/2000/svg" width="48" height="48" viewBox="0 0 12.7 12.7"><path d="M1.22.86L.14 3.66h6.04V.86H1.22zm5.17 0v2.8h6.11L11.4.86H6.4zM.19 3.89v6.31c0 .64.25 1.18.74 1.64.5.45 1.08.67 1.78.67h7.25c.7 0 1.28-.22 1.77-.67.5-.46.74-1 .74-1.64V3.9h-1.11v6.3c0 .36-.14.66-.41.91a1.4 1.4 0 0 1-.99.38H2.71a1.4 1.4 0 0 1-.99-.38 1.19 1.19 0 0 1-.41-.9V3.88H.2zm7.79 3.96v.4h.42v-.4h-.42zm-2.75.54a.84.84 0 0 0-.2.01.87.87 0 0 0-.74.75c-.07.39.1.83.48 1 .3.14.71.12.94-.15.06-.08.02.09.03.13-.02.1.08.05.13.06h.26V8.43h-.39v.24a.67.67 0 0 0-.51-.28zm2.24 0a.42.42 0 0 0-.42.21c0-.05.02-.13 0-.17h-.38v1.76h.42V9.12c.01-.2.19-.33.38-.32v-.4zm.51.04v1.75c.05.19-.22.13-.18.28v.32a.57.57 0 0 0 .59-.5c.02-.62.01-1.23.01-1.85h-.42zm-2.77.35a.51.51 0 0 1 .52.49c.03.25-.13.53-.4.57-.25.05-.55-.09-.6-.35-.1-.28.05-.63.35-.7a.55.55 0 0 1 .13-.01z" fill="#ff7f2a"/></svg>