<svg xmlns="http://www.w3.org/2000/svg" width="48" height="48"><path style="line-height:normal;text-indent:0;text-align:start;text-decoration-line:none;text-transform:none;marker:none" d="M29.7-.08c-2.04 0-4.12.08-4.51.1H7a2.94 2.94 0 0 0-.56 0 3.1 3.1 0 0 0-2.44 3V45c0 1.57 1.43 3 3 3h34c1.57 0 3-1.43 3-3V18.82c.02-.8.21-9.93-.34-10.5L34.06.25c-.29-.28-2.3-.34-4.36-.33zM31.2 3l.13 7.5c.01.68.64 1.3 1.31 1.28l7.78-.13c.13.01.26.01.4-.01l.08 3.03.1 4.09v4c-.87-2.98-2.13-5.37-3.2-7.92l-5.31 2.18c1.22 2.47 2.82 4.94 3.38 6.16 1.58 3.42 2.16 4.95 2.03 7.56a7.49 7.49 0 0 1-2.57 5.53 7.25 7.25 0 0 1-6.22 1.91c-5.43-.74-7.17-4.8-7.3-6.78-.11-1.63 1.04-5.63 5.21-5.44 2.9.14 4.52 1.72 4.71 4.4.14 1.99-1.8 3.99-4.93 2.98-.5-.17-.54.73.03 1.18 1.47 1.17 7.32.73 7.3-3.87a7.1 7.1 0 0 0-6.82-7.16c-6.98-.04-8.32 5.44-8.06 9.19.27 4.16 5.55 9.19 11.56 9.19 3.74 0 8.22-2.67 10.19-7.07V45H7V3.02h18.67l5.52-.01z" color="#000" font-weight="400" font-family="Andale Mono" overflow="visible" fill="#ff7f2a"/><path d="M17.32 14.85c-3.86 0-8.51 2.84-10.37 7.5v10.87c.87 3.33 2.23 5.9 3.38 8.66l5.31-2.19c-1.22-2.47-2.81-4.93-3.38-6.15-1.58-3.43-2.15-4.96-2.02-7.57a7.56 7.56 0 0 1 2.56-5.56 7.24 7.24 0 0 1 6.23-1.87c5.42.74 7.17 4.8 7.3 6.78.1 1.62-1.05 5.63-5.22 5.43-2.89-.13-4.51-1.75-4.7-4.43-.15-1.98 1.79-3.95 4.92-2.94.5.16.54-.73-.03-1.19-1.47-1.17-7.29-.72-7.27 3.88a7.05 7.05 0 0 0 6.8 7.12c6.97.04 8.3-5.4 8.06-9.15-.28-4.16-5.56-9.2-11.57-9.2z" opacity=".75" fill="#ff7f2a" fill-rule="evenodd"/></svg>