<svg xmlns="http://www.w3.org/2000/svg" width="48" height="48" viewBox="0 0 12.7 12.7"><path d="M1.22.86L.14 3.66h6.04V.86H1.22zm5.17 0v2.8h6.11L11.4.86H6.4zM.19 3.89v6.31c0 .64.25 1.18.74 1.64.5.45 1.08.67 1.78.67h7.25c.7 0 1.28-.22 1.77-.67.5-.46.74-1 .74-1.64V3.9h-1.11v6.3c0 .36-.14.66-.41.91a1.4 1.4 0 0 1-.99.38H2.71a1.4 1.4 0 0 1-.99-.38 1.19 1.19 0 0 1-.41-.9V3.88H.2zm4.18 3.99c-.48 0-.83.4-.83.93s.34.92.82.92c.23 0 .39-.08.55-.27v.23h.36V7.92H4.9v.24a.6.6 0 0 0-.54-.28zm1.99 0c-.49 0-.87.4-.87.93 0 .51.4.92.88.92.38 0 .68-.23.81-.62h-.44c-.1.16-.21.23-.37.23-.28 0-.48-.23-.48-.54 0-.3.2-.53.47-.53.17 0 .3.08.38.24h.44a.85.85 0 0 0-.82-.63zm1.9 0c-.49 0-.87.41-.87.93s.39.92.89.92a.79.79 0 0 0 .65-.32.76.76 0 0 0 .13-.24h-.43a.4.4 0 0 1-.36.17c-.23 0-.4-.13-.45-.35h1.27a.74.74 0 0 0 .01-.16c0-.55-.36-.95-.85-.95zm-3.85.39c.28 0 .49.23.49.55a.63.63 0 0 1-.12.36.44.44 0 0 1-.36.16c-.29 0-.49-.2-.49-.52s.2-.55.48-.55zm3.85 0c.24 0 .4.12.45.35h-.9c.06-.23.22-.35.45-.35z" fill="#ff7f2a"/></svg>