<svg xmlns="http://www.w3.org/2000/svg" width="48" height="48" viewBox="0 0 12.7 12.7"><path d="M1.22.86L.14 3.66h6.04V.86H1.22zm5.17 0v2.8h6.11L11.4.86H6.4zM.19 3.89v6.31c0 .64.25 1.18.74 1.64.5.45 1.08.67 1.78.67h7.25c.7 0 1.28-.22 1.77-.67.5-.46.74-1 .74-1.64V3.9h-1.11v6.3c0 .36-.14.66-.41.91a1.4 1.4 0 0 1-.99.38H2.71a1.4 1.4 0 0 1-.99-.38 1.19 1.19 0 0 1-.41-.9V3.88H.2zm2.23 3.97v.59c-.11 0-.26-.04-.2.13.02.09-.07.3.09.25.16-.05.1.12.11.22v1.16h.42V8.83c.1-.02.3.07.26-.09-.03-.09.06-.3-.06-.3-.13.02-.24.02-.2-.14v-.44h-.42zm3.72.53a.25.25 0 0 0-.13.04c-.22.16-.18.2-.25.02H5.4v1.76h.42c0-.38-.01-.75.01-1.12 0-.3.45-.17.37-.44 0-.12.02-.26-.07-.26zm-1.91.02c-.4-.05-.83.2-.94.6-.18.47.08 1.1.6 1.21.3.08.63 0 .82-.24 0 .1-.06.28.1.23.09-.03.3.06.28-.06v-1.7h-.38c0 .15.03.32-.12.1a.72.72 0 0 0-.36-.14zm3.98 0c-.39-.05-.82.2-.92.58-.18.5.08 1.14.63 1.24.28.06.59-.02.76-.26a.51.51 0 0 1-.69.54c-.16-.1-.3-.2-.5-.16-.17-.02-.32 0-.13.18.37.52 1.33.52 1.62-.08.16-.4.08-.83.1-1.24v-.76h-.4c0 .13.03.31-.11.1a.72.72 0 0 0-.36-.14zm1.18.04v.37h.69l-.78 1v.39h1.34v-.38h-.83l.77-1v-.38H9.39zm-5.21.34c.42-.02.65.5.44.84-.2.38-.9.27-.95-.18-.07-.32.16-.67.5-.66zm3.97 0c.39-.02.61.43.47.76-.13.43-.86.4-.94-.05-.09-.32.1-.73.47-.7zM6.48 9.8v.4h.43v-.4h-.43z" fill="#ff7f2a"/></svg>