<svg xmlns="http://www.w3.org/2000/svg" width="48" height="48" viewBox="0 0 12.7 12.7"><path d="M1.22.86L.14 3.66h6.04V.86H1.22zm5.17 0v2.8h6.11L11.4.86H6.4zM.19 3.89v6.31c0 .64.25 1.18.74 1.64.5.45 1.08.67 1.78.67h7.25c.7 0 1.28-.22 1.77-.67.5-.46.74-1 .74-1.64V3.9h-1.11v6.3c0 .36-.14.66-.41.91a1.4 1.4 0 0 1-.99.38H2.71a1.4 1.4 0 0 1-.99-.38 1.19 1.19 0 0 1-.41-.9V3.88H.2zm7.28 3.99v2.34h.4V10c.17.19.34.26.6.26a.78.78 0 0 0 .65-.3c.14-.18.21-.4.21-.63 0-.53-.38-.93-.89-.93a.7.7 0 0 0-.54.23v-.75h-.43zm-3.27.54a.91.91 0 0 0-.93.92c0 .51.42.92.94.92a.9.9 0 0 0 .87-.62h-.47c-.1.17-.23.24-.4.24-.3 0-.52-.23-.52-.54 0-.3.21-.53.5-.53.2 0 .33.08.42.24h.47a.8.8 0 0 0-.24-.38.95.95 0 0 0-.64-.25zm2 0c-.52 0-.9.4-.9.93s.38.91.89.91a.7.7 0 0 0 .58-.27v.23h.4V8.46h-.4v.24a.65.65 0 0 0-.57-.28zm2.18.37c.3 0 .52.23.52.54 0 .32-.2.55-.5.55-.31 0-.53-.23-.53-.55 0-.32.22-.54.51-.54zm-2.14.02c.3 0 .52.22.52.55a.6.6 0 0 1-.13.36.49.49 0 0 1-.38.16.5.5 0 0 1-.52-.52c0-.32.21-.55.51-.55z" fill="#ff7f2a"/></svg>