<svg xmlns="http://www.w3.org/2000/svg" width="48" height="48" viewBox="0 0 12.7 12.7"><path d="M1.22.86L.14 3.66h6.04V.86H1.22zm5.17 0v2.8h6.11L11.4.86H6.4zM.19 3.89v6.31c0 .64.25 1.18.74 1.64.5.45 1.08.67 1.78.67h7.25c.7 0 1.28-.22 1.77-.67.5-.46.74-1 .74-1.64V3.9h-1.11v6.3c0 .36-.14.66-.41.91a1.4 1.4 0 0 1-.99.38H2.71a1.4 1.4 0 0 1-.99-.38 1.19 1.19 0 0 1-.41-.9V3.88H.2zM2.8 7.9v2.35h.43V7.9h-.43zm3.34.55c-.2 0-.33.06-.46.2V8.5H5.3v1.76h.42v-.87c0-.17.01-.29.04-.36.05-.12.16-.18.3-.18.12 0 .21.04.27.1.05.07.07.18.07.34v.97h.43v-.87c0-.2.01-.3.06-.38.05-.1.16-.16.3-.16.1 0 .18.03.24.1s.08.17.08.34v.97h.42V9.23a.95.95 0 0 0-.11-.5c-.11-.18-.33-.28-.6-.28a.65.65 0 0 0-.56.27c-.12-.19-.28-.27-.52-.27zm2.96 0c-.52 0-.9.39-.9.93 0 .53.37.91.89.91a.7.7 0 0 0 .58-.27v.23h.39V8.49h-.39v.24a.65.65 0 0 0-.57-.28zm-5.37.04v.38h.69l-.78 1v.38h1.34v-.38h-.83l.77-1v-.38H3.72zm5.41.35c.3 0 .52.22.52.54a.6.6 0 0 1-.13.36.49.49 0 0 1-.38.16.5.5 0 0 1-.52-.52c0-.32.21-.55.51-.55z" fill="#ff7f2a"/></svg>