<svg xmlns="http://www.w3.org/2000/svg" width="48" height="48" viewBox="0 0 12.7 12.7"><path d="M1.22.86L.14 3.66h6.04V.86H1.22zm5.17 0v2.8h6.11L11.4.86H6.4zM.19 3.89v6.31c0 .64.25 1.18.74 1.64.5.45 1.08.67 1.78.67h7.25c.7 0 1.28-.22 1.77-.67.5-.46.74-1 .74-1.64V3.9h-1.11v6.3c0 .36-.14.66-.41.91a1.4 1.4 0 0 1-.99.38H2.71a1.4 1.4 0 0 1-.99-.38 1.19 1.19 0 0 1-.41-.9V3.88H.2zM3.47 7.9v.4h.93l-.88 1.95h.47l.86-1.95v-.4H3.47zm3.2 0v.4h.43v-.4h-.42zm1.69.55a.74.74 0 0 0-.53.24c-.03-.06.05-.23-.06-.2h-.33v2.34h.42v-.75c.4.39 1.14.2 1.34-.3.2-.47.02-1.11-.49-1.28a.92.92 0 0 0-.35-.05zm-3.17.04v.37h.69L5.1 9.88v.38h1.34v-.38h-.83l.77-1v-.38H5.2zm1.49 0v1.76h.42V8.49h-.42zm1.67.34c.4-.01.63.47.45.8-.16.34-.7.36-.88.04-.22-.33 0-.85.43-.84z" fill="#ff7f2a"/></svg>