<svg xmlns="http://www.w3.org/2000/svg" width="48" height="48" viewBox="0 0 12.7 12.7"><path d="M1.22.86L.14 3.66h6.04V.86H1.22zm5.17 0v2.8h6.11L11.4.86H6.4zM.19 3.89v6.31c0 .64.25 1.18.74 1.64.5.45 1.08.67 1.78.67h7.25c.7 0 1.28-.22 1.77-.67.5-.46.74-1 .74-1.64V3.9h-1.11v6.3c0 .36-.14.66-.41.91a1.4 1.4 0 0 1-.99.38H2.71a1.4 1.4 0 0 1-.99-.38 1.19 1.19 0 0 1-.41-.9V3.88H.2zm3.92 3.98v2.35h.42V7.87h-.42zm1.06 0v2.35h.42v-.9c0-.17.02-.27.06-.35.06-.1.17-.17.31-.17.25 0 .35.15.35.52v.9h.42v-1c0-.25-.03-.4-.12-.53-.12-.18-.32-.28-.57-.28a.63.63 0 0 0-.45.17v-.71h-.42zm2.16.58v.37h.69l-.78 1v.39h1.34v-.38h-.83l.77-1v-.38H7.33z" fill="#ff7f2a"/></svg>