<svg xmlns="http://www.w3.org/2000/svg" width="48" height="48" viewBox="0 0 12.7 12.7"><path d="M1.22.86L.14 3.66h6.04V.86H1.22zm5.17 0v2.8h6.11L11.4.86H6.4zM.19 3.89v6.31c0 .64.25 1.18.74 1.64.5.45 1.08.67 1.78.67h7.25c.7 0 1.28-.22 1.77-.67.5-.46.74-1 .74-1.64V3.9h-1.11v6.3c0 .36-.14.66-.41.91a1.4 1.4 0 0 1-.99.38H2.71a1.4 1.4 0 0 1-.99-.38 1.19 1.19 0 0 1-.41-.9V3.88H.2zm5.86 4a.93.93 0 0 0-.93.92c0 .5.42.92.94.92.5 0 .93-.42.93-.91a.92.92 0 0 0-.94-.93zm2.04 0a.93.93 0 0 0-.93.92c0 .5.42.92.93.92s.94-.42.94-.91a.93.93 0 0 0-.94-.93zm-4.37.04v.37h.68l-.77 1v.38h1.34v-.37h-.83l.77-1v-.38H3.7zm2.34.34c.28 0 .5.24.5.54a.52.52 0 0 1-.5.53c-.28 0-.51-.24-.51-.54 0-.29.23-.53.5-.53zm2.03 0c.28 0 .51.24.51.54a.52.52 0 0 1-.5.53c-.3 0-.52-.24-.52-.54 0-.29.24-.53.51-.53z" fill="#ff7f2a"/></svg>