<svg xmlns="http://www.w3.org/2000/svg" width="48" height="48" viewBox="0 0 12.7 12.7"><path d="M1.22.86L.14 3.66h6.04V.86H1.22zm5.17 0v2.8h6.11L11.4.86H6.4zM.19 3.89v6.31c0 .64.25 1.18.74 1.64.5.45 1.08.67 1.78.67h7.25c.7 0 1.28-.22 1.77-.67.5-.46.74-1 .74-1.64V3.9h-1.11v6.3c0 .36-.14.66-.41.91a1.4 1.4 0 0 1-.99.38H2.71a1.4 1.4 0 0 1-.99-.38 1.19 1.19 0 0 1-.41-.9V3.88H.2zM4.6 7.9v2.35H5v-.9c0-.17.01-.27.06-.35.06-.1.17-.16.3-.16.26 0 .35.14.35.51v.9h.42v-1c0-.25-.03-.4-.12-.53-.11-.18-.32-.28-.57-.28a.63.63 0 0 0-.44.17v-.7h-.43zm-.87.55c-.32 0-.58.23-.58.54 0 .25.14.4.5.51.15.06.16.07.2.1.06.03.09.07.09.13 0 .1-.08.17-.2.17-.12 0-.19-.06-.23-.21h-.42c.02.17.04.26.11.35a.66.66 0 0 0 .53.25.6.6 0 0 0 .63-.6.45.45 0 0 0-.16-.37.96.96 0 0 0-.33-.14l-.21-.08c-.06-.02-.09-.06-.09-.11 0-.1.07-.16.16-.16.1 0 .15.05.17.14h.41a.47.47 0 0 0-.12-.33.6.6 0 0 0-.45-.2zm3.59 0c-.52 0-.9.39-.9.93 0 .53.37.91.89.91.24 0 .41-.08.58-.27v.23h.39V8.49h-.39v.24a.65.65 0 0 0-.57-.28zm2.2 0c-.17 0-.26.05-.37.21V8.5h-.4v1.76h.43v-.98c0-.27.12-.41.38-.42v-.4h-.03zm-2.16.39c.3 0 .52.22.52.54a.6.6 0 0 1-.13.36.49.49 0 0 1-.38.16.5.5 0 0 1-.52-.52c0-.32.21-.55.51-.55z" fill="#ff7f2a"/></svg>