<?xml version="1.0" encoding="UTF-8" standalone="no"?><svg xmlns:dc="http://purl.org/dc/elements/1.1/" xmlns:cc="http://creativecommons.org/ns#" xmlns:rdf="http://www.w3.org/1999/02/22-rdf-syntax-ns#" xmlns="http://www.w3.org/2000/svg" width="48" height="48"><metadata><rdf:RDF><cc:Work><dc:format>image/svg+xml</dc:format><dc:type rdf:resource="http://purl.org/dc/dcmitype/StillImage"/><dc:title/></cc:Work></rdf:RDF></metadata><path style="line-height:normal;text-indent:0;text-align:start;text-decoration-line:none;text-transform:none;marker:none" d="M29.7-.08c-2.04 0-4.12.08-4.51.1H7a2.94 2.94 0 0 0-.56 0 3.1 3.1 0 0 0-2.44 3V45c0 1.57 1.43 3 3 3h34c1.57 0 3-1.43 3-3V18.82c.02-.8.22-9.93-.34-10.5L34.06.25c-.29-.28-2.3-.34-4.35-.33h-.01zm1.5 3.09l.13 7.49c.01.68.64 1.3 1.31 1.28l7.78-.13h.4l.08 3.02.1 4.09V45H7V3.02h18.67l5.53-.01zm-20.74 3.5v35.58h20.75l-1.17-2-1.03.6-.2-.35 1.03-.6-.6-1.04-1.03.6-.2-.34 1.03-.6-.6-1.04-2.08 1.2-.2-.34 2.07-1.2-.6-1.05-1.04.6-.2-.34 1.04-.6-.61-1.04-1.04.6-.2-.34 1.04-.6c-5.67-9.74-11.28-19.3-16.16-27.7zm18.58 31.84l.2.35-.2-.35zm.8 1.39l.2.34-.2-.35zM12.1 9.33l.2.35-1.03.6-.2-.34 1.03-.61zm.81 1.38l.2.35-1.03.6-.2-.34 1.03-.6zm.8 1.38l.21.35-2.07 1.21-.2-.35 2.07-1.2zm.82 1.38l.2.35-1.04.6-.2-.34 1.04-.6zm.8 1.39l.2.34-1.03.6-.2-.34 1.03-.6zm.8 1.38l.21.35-2.07 1.2-.2-.34 2.07-1.21zm.82 1.38l.2.35-1.04.6-.2-.34 1.04-.6zm.8 1.38l.2.35-1.03.6-.2-.34 1.03-.6zm.8 1.38l.21.35-2.07 1.21-.2-.34 2.07-1.22zm.82 1.39l.2.34-1.04.6-.2-.34 1.04-.6zm.8 1.38l.2.35-1.03.6-.2-.35 1.03-.6zm-5.93 1.15l7.41 12.72h-7.41V24.3zm6.74.23l.2.35-2.07 1.2-.2-.34 2.07-1.2zm.8 1.38l.2.35-1.03.6-.2-.34 1.04-.6zm.81 1.39l.2.34-1.03.6-.2-.34 1.03-.6zm.81 1.38l.2.34-2.07 1.21-.2-.34 2.07-1.21zm.8 1.38l.21.35-1.04.6-.2-.35 1.04-.6zm.81 1.38l.2.35-1.03.6-.2-.34 1.03-.6zm.81 1.38l.2.35-2.07 1.21-.2-.34 2.07-1.22z" fill="#ff7f2a"/></svg>