<svg xmlns="http://www.w3.org/2000/svg" width="48" height="48" viewBox="0 0 12.7 12.7"><path d="M1.22.86L.14 3.66h6.04V.86H1.22zm5.17 0v2.8h6.11L11.4.86H6.4zM.19 3.89v6.31c0 .64.25 1.18.74 1.64.5.45 1.08.67 1.78.67h7.25c.7 0 1.28-.22 1.77-.67.5-.46.74-1 .74-1.64V3.9h-1.11v6.3c0 .36-.14.66-.41.91a1.4 1.4 0 0 1-.99.38H2.71a1.4 1.4 0 0 1-.99-.38 1.19 1.19 0 0 1-.41-.9V3.88H.2zm5.4 4.03c-.4-.04-.82.2-.93.58-.17.5.1 1.14.63 1.24.28.06.6-.02.76-.25a.51.51 0 0 1-.68.53c-.17-.1-.3-.2-.5-.16-.17-.02-.32 0-.13.18.37.52 1.33.52 1.62-.07.16-.4.08-.83.1-1.25v-.76h-.4c0 .13.03.31-.11.1a.72.72 0 0 0-.37-.14zm1.18.04v.38h.68l-.77 1v.38h1.34v-.38h-.84l.78-1v-.38h-1.2zm-1.24.34c.38-.02.6.43.47.76-.13.43-.86.4-.94-.05-.1-.32.1-.72.47-.7z" fill="#ff7f2a"/></svg>