<svg xmlns="http://www.w3.org/2000/svg" width="48" height="48" viewBox="0 0 12.7 12.7"><path d="M1.22.86L.14 3.66h6.04V.86H1.22zm5.17 0v2.8h6.11L11.4.86H6.4zM.19 3.89v6.31c0 .64.25 1.18.74 1.64.5.45 1.08.67 1.78.67h7.25c.7 0 1.28-.22 1.77-.67.5-.46.74-1 .74-1.64V3.9h-1.11v6.3c0 .36-.14.66-.41.91a1.4 1.4 0 0 1-.99.38H2.71a1.4 1.4 0 0 1-.99-.38 1.19 1.19 0 0 1-.41-.9V3.88H.2zm3.74 4v2.34h.42V7.9h-.42zm1 0v2.34h.43v-.89c0-.17.01-.27.06-.35.06-.11.17-.17.31-.17.25 0 .34.15.34.51v.9h.42v-1c0-.25-.03-.4-.11-.52-.12-.18-.32-.28-.57-.28a.63.63 0 0 0-.45.17v-.71h-.42zm2.8.5c-.51 0-.89.4-.89.93s.37.91.89.91c.24 0 .41-.08.58-.27v.23h.39V8.43H8.3v.24a.65.65 0 0 0-.57-.28zm.05.39c.3 0 .52.22.52.55a.6.6 0 0 1-.13.36.49.49 0 0 1-.38.15c-.31 0-.52-.2-.52-.51 0-.32.2-.55.51-.55z" fill="#ff7f2a"/></svg>