<svg xmlns="http://www.w3.org/2000/svg" width="48" height="48"><path style="line-height:normal;text-indent:0;text-align:start;text-decoration-line:none;text-transform:none;marker:none" d="M29.7-.08c-2.04 0-4.12.08-4.51.1H7a2.94 2.94 0 0 0-.56 0 3.1 3.1 0 0 0-2.44 3V45c0 1.57 1.43 3 3 3h34c1.57 0 3-1.43 3-3V18.82c.02-.8.21-9.93-.34-10.5L34.06.25c-.29-.28-2.3-.34-4.36-.33zM31.2 3l.13 7.5c.01.68.64 1.3 1.31 1.28l7.78-.13c.13.01.26.01.4-.01l.08 3.03.1 4.09V45H7V3.02h18.67l5.52-.01zm2.62 14.64c-.22 0-.4.05-.38.34C32.27 23.92 30.9 29.82 30 35.8c-.29-1.8-.57-3.62-.92-5.41-1-4.25-2.06-8.49-3.08-12.73H22l-2.34 9.6a72.99 72.99 0 0 0-1.65 8.54c-.95-6.09-2.3-12.1-3.5-18.14H10l5.18 22h5.21l.83-3.42c.99-4.2 2.19-8.37 2.74-12.67.17.77.48 2.92.76 4.17.9 3.99 1.93 7.94 2.89 11.92h5.2l5.18-22H34.5c-.18.05-.45-.02-.67-.02z" color="#000" font-weight="400" font-family="Andale Mono" overflow="visible" fill="#ff7f2a"/></svg>