<svg xmlns="http://www.w3.org/2000/svg" width="48" height="48" viewBox="0 0 12.7 12.7"><path d="M1.22.86L.14 3.66h6.04V.86H1.22zm5.17 0v2.8h6.11L11.4.86H6.4zM.19 3.89v6.31c0 .64.25 1.18.74 1.64.5.45 1.08.67 1.78.67h7.25c.7 0 1.28-.22 1.77-.67.5-.46.74-1 .74-1.64V3.9h-1.11v6.3c0 .36-.14.66-.41.91a1.4 1.4 0 0 1-.99.38H2.71a1.4 1.4 0 0 1-.99-.38 1.19 1.19 0 0 1-.41-.9V3.88H.2zm7.97 3.99a.67.67 0 0 0-.1 0c-.43.01-.77.43-.72.85h.41c-.1-.54.8-.61.7-.04-.1.36-.44.55-.67.8-.14.15-.32.28-.43.43v.35h1.52c-.01-.12.03-.3-.02-.4h-.9c.3-.31.73-.56.9-.99.16-.46-.21-.99-.69-1zm-4.32.04v2.35c.12-.01.3.03.39-.02-.08-.45.34.22.6.06.6.04.99-.64.84-1.17-.1-.62-.97-.94-1.4-.47v-.75h-.43zm2.08.6c.02.1-.06.33.04.37h.64l-.77 1v.38h1.34c-.03-.11.06-.34-.04-.38h-.8l.78-1c-.03-.11.06-.34-.05-.38H5.92zm-1.17.32c.5-.03.7.67.34.97-.3.27-.85.04-.85-.37-.04-.3.19-.62.5-.6z" fill="#ff7f2a"/></svg>