<svg xmlns="http://www.w3.org/2000/svg" width="48" height="48" viewBox="0 0 12.7 12.7"><path d="M1.22.86L.14 3.66h6.04V.86H1.22zm5.17 0v2.8h6.11L11.4.86H6.4zM.19 3.89v6.31c0 .64.25 1.18.74 1.64.5.45 1.08.67 1.78.67h7.25c.7 0 1.28-.22 1.77-.67.5-.46.74-1 .74-1.64V3.9h-1.11v6.3c0 .36-.14.66-.41.91a1.4 1.4 0 0 1-.99.38H2.71a1.4 1.4 0 0 1-.99-.38 1.19 1.19 0 0 1-.41-.9V3.88H.2zm1.64 4v.48h-.15v.32h.15v1.15h.33V8.69h.2v-.32h-.2v-.49h-.32zm3.76 0v1.95h.32V7.88H5.6zm-2.44.45c-.4 0-.69.32-.69.77 0 .44.28.76.68.76.19 0 .32-.06.45-.22v.19h.3V8.37h-.3v.2a.49.49 0 0 0-.44-.23zm1.57 0c-.14 0-.21.04-.3.18v-.15h-.3v1.47h.33v-.81c0-.23.1-.35.3-.35v-.34h-.03zm3.22 0a.4.4 0 0 0-.35.17v-.14h-.3v1.47h.33v-.72c0-.15.01-.25.03-.3a.24.24 0 0 1 .23-.16c.09 0 .17.04.21.1.04.05.06.14.06.27v.81h.32v-.72c0-.17.01-.25.05-.32a.24.24 0 0 1 .22-.14c.08 0 .15.03.2.1.04.05.05.13.05.28v.8h.33v-.85a.85.85 0 0 0-.09-.42c-.08-.15-.25-.23-.46-.23a.48.48 0 0 0-.43.23.41.41 0 0 0-.4-.23zm2.27 0c-.4 0-.68.32-.68.77 0 .44.28.76.68.76.19 0 .31-.06.44-.22v.19h.3V8.37h-.3v.2a.49.49 0 0 0-.44-.23zm-4.05.03v.32h.52l-.59.83v.32h1.03v-.32h-.64l.6-.83v-.32h-.92zm-2.98.3c.23 0 .4.18.4.45 0 .1-.04.22-.1.3a.36.36 0 0 1-.3.13c-.23 0-.4-.17-.4-.43 0-.27.17-.46.4-.46zm7.07 0c.23 0 .4.18.4.45a.52.52 0 0 1-.1.3.36.36 0 0 1-.3.13c-.23 0-.4-.17-.4-.43 0-.27.17-.46.4-.46zm-5.3.83v.34h.32V9.5h-.32z" fill="#ff7f2a"/></svg>