<?xml version="1.0" encoding="UTF-8" standalone="no"?><svg xmlns:dc="http://purl.org/dc/elements/1.1/" xmlns:cc="http://creativecommons.org/ns#" xmlns:rdf="http://www.w3.org/1999/02/22-rdf-syntax-ns#" xmlns="http://www.w3.org/2000/svg" width="48" height="48" viewBox="0 0 12.7 12.7"><metadata><rdf:RDF><cc:Work><dc:format>image/svg+xml</dc:format><dc:type rdf:resource="http://purl.org/dc/dcmitype/StillImage"/><dc:title/></cc:Work></rdf:RDF></metadata><path d="M1.21.86L.14 3.66h6.04V.86H1.21zm5.18 0v2.8h6.11L11.4.86H6.4zM.19 3.89v6.31c0 .64.25 1.18.74 1.64.5.45 1.08.67 1.78.67h7.25c.7 0 1.28-.22 1.78-.67.49-.46.73-1 .73-1.64V3.9h-1.12v6.3c0 .36-.13.66-.4.91a1.4 1.4 0 0 1-.99.38H2.71a1.4 1.4 0 0 1-.99-.38 1.19 1.19 0 0 1-.41-.9V3.88H.19zm1.53 1.4v1.06H2v1.06h.53V6.35h.26V5.29H1.72zm1.32.05v.53h.53v-.53h-.53zm.53.53v.53h.53v-.53h-.53zm.53 0h.53v-.53H4.1v.53zm.53 0v.53h.53v-.53h-.53zm.53 0h.52v-.53h-.52v.53zm.52 0v.53h.53v-.53h-.53zm.53 0h.53v-.53h-.53v.53zm.53 0v.53h.53v-.53h-.53zm.53 0h.53v-.53h-.53v.53zm.53 0v.53h.53v-.53H7.8zm.53 0h.53v-.53h-.53v.53zm.53 0v.53h.53v-.53h-.53zm.53 0h.53v-.53h-.53v.53zm.53 0v.53h.53v-.53h-.53zm.53 0h.53v-.53h-.53v.53zm-8.46-.31h.53v.53h-.53v-.53zm2.6 2.32v.4H5v-.4h-.42zm3.61.55a.42.42 0 0 0-.37.21c0-.05.02-.13 0-.17h-.38v1.76h.42V9.15c.01-.19.19-.33.37-.31v-.41a.42.42 0 0 0-.04 0zm-2.06 0a.84.84 0 0 0-.11 0 .87.87 0 0 0-.74.75c-.07.4.1.84.47 1 .3.15.72.12.95-.14.06-.08.02.08.03.13-.02.09.08.05.13.06h.26V8.47h-.39v.23a.66.66 0 0 0-.51-.27.84.84 0 0 0-.09 0zm-1.56.04v1.75c.05.18-.22.13-.17.28v.32a.57.57 0 0 0 .58-.5C5.01 9.7 5 9.07 5 8.46h-.42zm1.63.35a.51.51 0 0 1 .52.48c.02.25-.13.54-.4.57-.25.06-.55-.08-.61-.34-.08-.28.06-.63.36-.7a.55.55 0 0 1 .13-.01z" fill="#ff7f2a"/></svg>