<svg xmlns="http://www.w3.org/2000/svg" width="48" height="48" viewBox="0 0 12.7 12.7"><path d="M1.22.86L.14 3.66h6.04V.86H1.22zm5.17 0v2.8h6.11L11.4.86H6.4zM.19 3.89v6.31c0 .64.25 1.18.74 1.64.5.45 1.08.67 1.78.67h7.25c.7 0 1.28-.22 1.77-.67.5-.46.74-1 .74-1.64V3.9h-1.11v6.3c0 .36-.14.66-.41.91a1.4 1.4 0 0 1-.99.38H2.71a1.4 1.4 0 0 1-.99-.38 1.19 1.19 0 0 1-.41-.9V3.88H.2zm6.98 4v.39h.43v-.4h-.43zm-3.27.54a.91.91 0 0 0-.93.92c0 .51.42.92.94.92a.9.9 0 0 0 .87-.62h-.47c-.11.16-.23.23-.4.23-.3 0-.52-.23-.52-.53 0-.31.21-.53.5-.53.2 0 .33.08.42.24h.47a.8.8 0 0 0-.24-.38.95.95 0 0 0-.64-.25zm2.15 0a.74.74 0 0 0-.58.25v-.2h-.39v2.34h.42v-.76a.75.75 0 0 0 .54.21c.5 0 .88-.4.88-.93s-.37-.91-.88-.91zm2.74 0a.93.93 0 0 0-.93.92c0 .5.42.92.93.92.52 0 .94-.41.94-.9a.92.92 0 0 0-.94-.94zm-1.62.04v1.76h.43V8.47h-.43zM6 8.82c.29 0 .5.23.5.53 0 .3-.22.53-.5.53a.51.51 0 0 1-.51-.53c0-.3.22-.53.51-.53zm2.8 0c.29 0 .52.24.52.53a.52.52 0 0 1-.51.53c-.29 0-.51-.24-.51-.54 0-.29.23-.52.5-.52z" fill="#ff7f2a"/></svg>