<svg xmlns="http://www.w3.org/2000/svg" width="48" height="48"><path style="line-height:normal;text-indent:0;text-align:start;text-decoration-line:none;text-transform:none;marker:none" d="M29.7-.08c-2.04 0-4.12.08-4.51.1H7a2.94 2.94 0 0 0-.56 0 3.1 3.1 0 0 0-2.44 3V45c0 1.57 1.43 3 3 3h34c1.57 0 3-1.43 3-3V18.82c.02-.8.21-9.93-.34-10.5L34.06.25c-.29-.28-2.3-.34-4.36-.33zM31.2 3l.13 7.5c.01.68.64 1.3 1.31 1.28l7.78-.13c.13.01.26.01.4-.01l.08 3.03.1 4.09V45H7V3.02h18.67l5.52-.01zm-2.57 3.11c-4.13.66-8.87 1.34-12.99 2.03-1.09.53-.85 1.88-.9 2.87v13.16c-2.8-.64-5.87 1.45-5.99 4.42-.2 1.85 1.46 3.47 3.27 3.5 3.23.09 5.68-2.03 5.71-4.71-.03-4.51.01-9.02 0-13.52.5-.04 8.32-1.47 9-1.56v10.12a4.62 4.62 0 0 0-5.8 3.5c-.47 1.54.24 3.37 1.77 4 3 1.36 7.2-1.4 7.03-4.63-.04-6 .04-12.02 0-18.02-.07-.57-.46-1.2-1.1-1.16zm-.5 26.89c-1.03-.09-2.11.68-2.12 1.78.08.24.62.05.9.11.68.24.5-1.03 1.32-.62.94.54 0 1.63-.75 1.46v1.23c.77-.1 1.71.36 1.67 1.24.07.87-.94 1.53-1.7 1.1-.65-.13-.38-1.2-1.06-1.02h-.94A2.48 2.48 0 0 0 28 40.66a2.43 2.43 0 0 0 2.48-2.48c.04-.8-.4-1.61-1.15-1.91 1.17-.84.57-2.87-.76-3.17a1.81 1.81 0 0 0-.44-.1zm-12.36 1.81c-.68.01-1.35.62-1.7.79-.65-.98-2.3-1.02-3-.1.04-.35.03-.65-.4-.52-.25.06-.75-.13-.83.1v5.44h1.33c.03-1.23-.07-2.46.08-3.68.15-1.02 1.89-1.03 2.03 0 .1 1.22.03 2.45.05 3.68h1.33c.03-1.2-.06-2.4.07-3.6.1-.99 1.7-1.18 2-.23.17 1 .06 2.03.1 3.05.07.23-.17.78.14.78h1.18c-.02-1.3.05-2.6-.05-3.9-.06-1.04-1.03-1.78-2.03-1.77a1.06 1.06 0 0 0-.3-.04zm6.64.04a2.4 2.4 0 0 0-1.95.78c-.04-.28.15-.79-.3-.65h-.92v7.39h1.33V40c1.25 1.21 3.59.64 4.2-.98.7-1.49.03-3.59-1.64-4.05a2.9 2.9 0 0 0-.72-.12zm-.3 1.22c1.3-.05 2.02 1.62 1.32 2.63-.61 1.1-2.43.9-2.82-.29-.45-1.05.3-2.38 1.5-2.34z" color="#000" font-weight="400" font-family="Andale Mono" overflow="visible" fill="#ff7f2a"/></svg>