<svg xmlns="http://www.w3.org/2000/svg" width="48" height="48" viewBox="0 0 12.7 12.7"><path d="M1.22.86L.14 3.66h6.04V.86H1.22zm5.17 0v2.8h6.11L11.4.86H6.4zM.19 3.89v6.31c0 .64.25 1.18.74 1.64.5.45 1.08.67 1.78.67h7.25c.7 0 1.28-.22 1.77-.67.5-.46.74-1 .74-1.64V3.9h-1.11v6.3c0 .36-.14.66-.41.91a1.4 1.4 0 0 1-.99.38H2.71a1.4 1.4 0 0 1-.99-.38 1.19 1.19 0 0 1-.41-.9V3.88H.2zm4.1 3.98v.67h-.24v.44h.24v1.57h.48V8.98h.29v-.44h-.29v-.67h-.48zm1.98.62a1.01 1.01 0 0 0-.24.03 1 1 0 0 0-.8.9c-.06.43.15.92.57 1.1.35.15.8.12 1.07-.19.06-.09.02.11.03.16-.03.1.1.05.16.07h.29V8.54H6.9v.27a.76.76 0 0 0-.63-.32zm2.35 0a.48.48 0 0 0-.47.25c-.01-.06.03-.18-.02-.2H7.7v2.02h.48V9.33c.02-.22.22-.38.43-.37v-.47zm-2.32.45c.3-.02.58.25.59.56.03.28-.15.6-.45.65-.3.06-.63-.1-.7-.4-.1-.31.06-.72.4-.8a.63.63 0 0 1 .16-.01z" fill="#ff7f2a"/></svg>