<svg xmlns="http://www.w3.org/2000/svg" width="48" height="48"><path style="line-height:normal;text-indent:0;text-align:start;text-decoration-line:none;text-transform:none;marker:none" d="M29.7-.08c-2.04 0-4.12.08-4.51.1H7a2.94 2.94 0 0 0-.56 0 3.1 3.1 0 0 0-2.44 3V45c0 1.57 1.43 3 3 3h34c1.57 0 3-1.43 3-3V18.82c.02-.8.21-9.93-.34-10.5L34.06.25c-.29-.28-2.3-.34-4.36-.33zM31.2 3l.13 7.5c.01.68.64 1.3 1.31 1.28l7.78-.13c.13.01.26.01.4-.01l.08 3.03.1 4.09V45H7V3.02h18.67l5.52-.01zM12.7 14.57c-.75 0-1.36.66-1.36 1.48v5.03c0 .82.6 1.48 1.36 1.48H35c.75 0 1.36-.66 1.36-1.48v-5.03c0-.82-.6-1.48-1.36-1.48H12.7zm18.35 2.63a.57.57 0 0 1 .38.22l.98 1.25.97-1.25a.57.57 0 0 1 .8-.1l.12.08a.57.57 0 0 1 .1.81l-1.5 1.93a.56.56 0 0 1-.5.21.57.57 0 0 1-.49-.2l-1.5-1.94a.58.58 0 0 1 .1-.8l.11-.1a.58.58 0 0 1 .43-.11zM11.34 32.56v8h8v-8h-8zm21 0a4 4 0 1 0 0 8 4 4 0 0 0 0-8zm0 2a2 2 0 1 1 0 4 2 2 0 0 1 0-4zm-14.3.05a.52.52 0 0 1 .37.18.6.6 0 0 1-.03.8L15 38.9a.51.51 0 0 1-.56.34.52.52 0 0 1-.5-.43l-1.64-2.27a.6.6 0 0 1 .1-.8.51.51 0 0 1 .75.09l1.42 1.95 3.06-3.01a.53.53 0 0 1 .4-.16z" color="#000" font-weight="400" font-family="Andale Mono" overflow="visible" fill="#ff7f2a"/></svg>