<?xml version="1.0" encoding="UTF-8" standalone="no"?><svg xmlns:dc="http://purl.org/dc/elements/1.1/" xmlns:cc="http://creativecommons.org/ns#" xmlns:rdf="http://www.w3.org/1999/02/22-rdf-syntax-ns#" xmlns="http://www.w3.org/2000/svg" width="48" height="48"><metadata><rdf:RDF><cc:Work><dc:format>image/svg+xml</dc:format><dc:type rdf:resource="http://purl.org/dc/dcmitype/StillImage"/><dc:title/></cc:Work></rdf:RDF></metadata><path style="line-height:normal;text-indent:0;text-align:start;text-decoration-line:none;text-transform:none;marker:none" d="M29.7-.08c-2.04 0-4.12.08-4.51.1H7a2.94 2.94 0 0 0-.56 0 3.1 3.1 0 0 0-2.44 3V45c0 1.57 1.43 3 3 3h34c1.57 0 3-1.43 3-3V18.82c.02-.8.22-9.93-.34-10.5L34.06.25c-.29-.28-2.3-.34-4.35-.33h-.01zm1.5 3.09l.13 7.49c.01.68.64 1.3 1.31 1.28l7.78-.13h.4l.08 3.02.1 4.09V45H7V3.02h18.67l5.53-.01zm-7.16 13.06a12 12 0 0 0-12 12 12 12 0 0 0 12 12 12 12 0 0 0 12-12 12 12 0 0 0-12-12zm0 2.57a9.43 9.43 0 0 1 9.44 9.43 9.43 9.43 0 0 1-9.44 9.43 9.43 9.43 0 0 1-9.42-9.43 9.43 9.43 0 0 1 9.42-9.43zm0 2.57a6.86 6.86 0 0 0-4.88 2.06l2.2 1.46a4.29 4.29 0 0 1 2.68-.95 4.29 4.29 0 0 1 4.3 4.29 4.29 4.29 0 0 1-4.3 4.28 4.29 4.29 0 0 1-2.68-.94l-2.2 1.46a6.86 6.86 0 0 0 4.88 2.06 6.86 6.86 0 0 0 6.86-6.86 6.86 6.86 0 0 0-6.86-6.86z" fill="#ff7f2a"/></svg>