<svg xmlns="http://www.w3.org/2000/svg" width="48" height="48"><path style="line-height:normal;text-indent:0;text-align:start;text-decoration-line:none;text-transform:none;marker:none" d="M29.7-.08c-2.04 0-4.12.08-4.51.1H7a2.94 2.94 0 0 0-.56 0 3.1 3.1 0 0 0-2.44 3V45c0 1.57 1.43 3 3 3h34c1.57 0 3-1.43 3-3V18.82c.02-.8.21-9.93-.34-10.5L34.06.25c-.29-.28-2.3-.34-4.36-.33zM31.2 3l.13 7.5c.01.68.64 1.3 1.31 1.28l7.78-.13c.13.01.26.01.4-.01l.08 3.03.1 4.09V45H7V3.02h18.67l5.52-.01zM17.53 17.63c-1.56 0-2.62.26-3.15.78-.53.52-.8 1.55-.8 3.11v2.54c0 1.05-.16 1.78-.5 2.19-.34.4-.95.6-1.86.6h-.57v1.51h.57c.9 0 1.52.2 1.86.62.34.4.5 1.14.5 2.2v2.53c0 1.56.27 2.6.8 3.12.53.53 1.58.79 3.15.79h.59v-1.53h-.64c-.9 0-1.47-.15-1.74-.46-.27-.31-.4-.96-.4-1.96v-2.62c0-1.1-.15-1.9-.43-2.4-.29-.5-.78-.85-1.48-1.04a2.2 2.2 0 0 0 1.47-1.01c.29-.5.43-1.3.43-2.42v-2.62c0-1 .14-1.64.4-1.95.28-.31.86-.47 1.75-.47h.64v-1.51h-.59zm11.97 0v1.51h.66c.88 0 1.45.15 1.72.46.27.3.4.96.4 1.96v2.62c0 1.11.15 1.91.43 2.42.28.5.77.84 1.47 1.01-.7.2-1.19.54-1.47 1.04a5.1 5.1 0 0 0-.42 2.4v2.62c0 1.01-.14 1.66-.41 1.97-.27.3-.84.45-1.72.45h-.66v1.52h.6c1.56 0 2.6-.26 3.13-.78.53-.52.8-1.56.8-3.12V31.2c0-1.07.16-1.8.5-2.22.34-.4.96-.6 1.85-.6h.59v-1.52h-.59c-.9 0-1.5-.2-1.85-.6-.34-.41-.5-1.14-.5-2.2v-2.53c0-1.56-.27-2.6-.8-3.11-.52-.52-1.57-.78-3.14-.78h-.6zm-6.69 5.25v2.69h2v-2.69h-2zm0 8.52v1.82l-.77 3.38h1.22l1.54-3.38V31.4h-1.99z" color="#000" font-weight="400" font-family="Andale Mono" overflow="visible" fill="#ff7f2a"/></svg>