<?xml version="1.0" encoding="UTF-8" standalone="no"?>
<svg
   xmlns:dc="http://purl.org/dc/elements/1.1/"
   xmlns:cc="http://creativecommons.org/ns#"
   xmlns:rdf="http://www.w3.org/1999/02/22-rdf-syntax-ns#"
   xmlns:svg="http://www.w3.org/2000/svg"
   xmlns="http://www.w3.org/2000/svg"
   xmlns:sodipodi="http://sodipodi.sourceforge.net/DTD/sodipodi-0.dtd"
   xmlns:inkscape="http://www.inkscape.org/namespaces/inkscape"
   width="24"
   height="24"
   id="svg7"
   version="1.1"
   sodipodi:docname="cd.svg"
   inkscape:version="0.92.4 (5da689c313, 2019-01-14)">
  <metadata
     id="metadata10">
    <rdf:RDF>
      <cc:Work
         rdf:about="">
        <dc:format>image/svg+xml</dc:format>
        <dc:type
           rdf:resource="http://purl.org/dc/dcmitype/StillImage" />
        <dc:title></dc:title>
      </cc:Work>
    </rdf:RDF>
  </metadata>
  <sodipodi:namedview
     pagecolor="#ffffff"
     bordercolor="#666666"
     borderopacity="1"
     objecttolerance="10"
     gridtolerance="10"
     guidetolerance="10"
     inkscape:pageopacity="0"
     inkscape:pageshadow="2"
     inkscape:window-width="1078"
     inkscape:window-height="480"
     id="namedview8"
     showgrid="false"
     inkscape:zoom="9.8333333"
     inkscape:cx="-0.81355932"
     inkscape:cy="12"
     inkscape:window-x="0"
     inkscape:window-y="28"
     inkscape:window-maximized="0"
     inkscape:current-layer="svg7" />
  <defs
     id="defs3">
    <style
       id="current-color-scheme" />
  </defs>
  <g
     transform="matrix(1.70119,0,0,1.70119,1.2,1.23)"
     font-weight="400"
     id="g6"
     style="color:#bebebe;font-weight:400;font-family:sans-serif;white-space:normal;fill:#ff7f2a">
    <path
       d="M 6.34,0.07 A 6.28,6.28 0 0 0 0.1,6.33 6.28,6.28 0 0 0 6.36,12.58 6.28,6.28 0 0 0 12.61,6.33 6.28,6.28 0 0 0 6.34,0.07 Z m 0,3.58 c 1.5,0 2.69,1.18 2.69,2.68 C 9.03,7.83 7.85,9 6.35,9 A 2.66,2.66 0 0 1 3.66,6.32 c 0,-1.5 1.18,-2.68 2.68,-2.68 z"
       overflow="visible"
       style="font-variant-ligatures:normal;font-variant-position:normal;font-variant-caps:normal;font-variant-numeric:normal;font-variant-alternates:normal;font-feature-settings:normal;text-indent:0;text-decoration:none;text-decoration-line:none;text-decoration-style:solid;text-decoration-color:#000000;text-transform:none;text-orientation:mixed;shape-padding:0;overflow:visible;isolation:auto;mix-blend-mode:normal"
       id="path2-3"
       inkscape:connector-curvature="0" />
    <path
       d="m 6.34,4.54 a 1.79,1.79 0 0 0 0,3.58 1.8,1.8 0 0 0 0,-3.57 z m 0,0.9 c 0.5,0 0.9,0.39 0.9,0.89 a 0.89,0.89 0 0 1 -0.9,0.9 0.89,0.89 0 0 1 -0.89,-0.9 c 0,-0.5 0.4,-0.9 0.9,-0.9 z"
       overflow="visible"
       style="font-variant-ligatures:normal;font-variant-position:normal;font-variant-caps:normal;font-variant-numeric:normal;font-variant-alternates:normal;font-feature-settings:normal;text-indent:0;text-decoration:none;text-decoration-line:none;text-decoration-style:solid;text-decoration-color:#000000;text-transform:none;text-orientation:mixed;shape-padding:0;overflow:visible;isolation:auto;mix-blend-mode:normal"
       id="path4"
       inkscape:connector-curvature="0" />
  </g>
</svg>
