<svg xmlns="http://www.w3.org/2000/svg" version="1" width="24" height="24"><g fill="none" stroke="#963996"><path d="M21.318 12A9.294 9.294 0 0 0 12 2.682 9.294 9.294 0 0 0 2.682 12 9.294 9.294 0 0 0 12 21.318 9.294 9.294 0 0 0 21.318 12zm-5.909 0A3.393 3.393 0 0 1 12 15.41 3.393 3.393 0 0 1 8.59 12c0-1.876 1.383-3.41 3.41-3.41s3.41 1.571 3.41 3.41z" stroke-width="1.364"/><path d="M12 8.59a3.41 3.41 0 0 0 0 6.82 3.41 3.41 0 0 0 0-6.82zm0 1.705a1.705 1.705 0 1 1-.001 3.41 1.705 1.705 0 0 1 .001-3.41z" style="marker:none" overflow="visible" stroke-width=".455" stroke-linejoin="round"/></g><path style="marker:none" d="M21.776 16.773l-4.332 5.003-4.31-5.003h1.82v-4.094h5v4.094z" overflow="visible" fill="green"/></svg>
