<svg xmlns="http://www.w3.org/2000/svg" version="1" width="24" height="24"><g fill="none" stroke="#963996"><path d="M13.233 7.74A5.28 5.28 0 0 0 7.94 2.447 5.28 5.28 0 0 0 2.648 7.74a5.28 5.28 0 0 0 5.292 5.293 5.28 5.28 0 0 0 5.293-5.293zm-3.356 0c0 1.066-.85 1.936-1.937 1.936A1.927 1.927 0 0 1 6.004 7.74c0-1.066.785-1.936 1.936-1.936 1.151 0 1.937.892 1.937 1.936z" stroke-width=".775"/><path d="M7.94 5.804a1.937 1.937 0 1 0 .002 3.874 1.937 1.937 0 0 0-.002-3.874zm0 .968a.969.969 0 1 1 0 1.937.969.969 0 0 1 0-1.937z" style="marker:none" overflow="visible" stroke-width=".258" stroke-linejoin="round"/><path d="M21.7 16.26a5.28 5.28 0 0 0-5.293-5.293 5.28 5.28 0 0 0-5.292 5.293 5.28 5.28 0 0 0 5.292 5.293A5.28 5.28 0 0 0 21.7 16.26zm-3.356 0c0 1.066-.85 1.936-1.937 1.936a1.927 1.927 0 0 1-1.936-1.936c0-1.066.785-1.936 1.936-1.936 1.151 0 1.937.891 1.937 1.936z" stroke-width=".775"/><path d="M16.407 14.324a1.937 1.937 0 1 0 .002 3.874 1.937 1.937 0 0 0-.002-3.874zm0 .968a.969.969 0 1 1 0 1.937.969.969 0 0 1 0-1.937z" style="marker:none" overflow="visible" stroke-width=".258" stroke-linejoin="round"/></g><path style="marker:none" d="M10.22 17.015l-4.164 4.81-4.143-4.81h1.75V13.08H8.47v3.935z" overflow="visible" fill="green"/></svg>
