<svg xmlns="http://www.w3.org/2000/svg" width="24" height="24"><path d="M9.756 3.067a2.133 2.133 0 0 0-2.132 2.131c0 .735.38 1.379.948 1.762v.37H3.835a.945.945 0 0 0-.948.947v4.604c.39-.49.983-.814 1.658-.814a2.132 2.132 0 0 1 0 4.263 2.117 2.117 0 0 1-1.658-.814v4.604c0 .525.423.948.948.948h4.603a2.119 2.119 0 0 1-.814-1.658 2.132 2.132 0 0 1 4.263 0c0 .674-.324 1.266-.814 1.658h4.604a.946.946 0 0 0 .947-.948v-4.737h.37a2.128 2.128 0 0 0 1.762.948 2.133 2.133 0 0 0 0-4.264c-.736 0-1.378.38-1.762.948h-.37V8.278a.945.945 0 0 0-.947-.948H10.94v-.37a2.127 2.127 0 0 0 .947-1.762 2.132 2.132 0 0 0-2.131-2.131z" fill="#2ca02c"/></svg>
