<svg xmlns="http://www.w3.org/2000/svg" width="24" height="24" viewBox="0 0 6.35 6.35"><path fill="#2ca02c" d="M3.17.04A3.13 3.13 0 0 0 .04 3.18 3.13 3.13 0 0 0 3.17 6.3a3.13 3.13 0 0 0 3.14-3.13A3.13 3.13 0 0 0 3.18.04zm0 .47a2.7 2.7 0 0 1 2.69 2.7 2.7 2.7 0 0 1-2.7 2.69A2.7 2.7 0 0 1 .48 3.2 2.7 2.7 0 0 1 3.17.5zm0 .3h-.22l-.14.71a1.7 1.7 0 0 0-.32.1l-.52-.49a2.35 2.35 0 0 0-.36.28l.3.64a1.72 1.72 0 0 0-.2.28l-.7-.1a2.34 2.34 0 0 0-.15.44L1.5 3a1.64 1.64 0 0 0-.01.17l.01.16-.63.34c.04.15.08.3.14.44l.71-.1c.06.1.13.2.2.28l-.3.65c.11.1.22.2.36.27l.52-.5c.1.05.21.08.32.1l.14.72a2.41 2.41 0 0 0 .45 0l.13-.71a1.67 1.67 0 0 0 .33-.1l.52.49c.13-.08.25-.17.36-.27l-.3-.65a1.73 1.73 0 0 0 .2-.28l.7.1a2.34 2.34 0 0 0 .14-.44l-.62-.34.01-.17L4.86 3l.62-.33a2.34 2.34 0 0 0-.13-.44l-.71.1a1.72 1.72 0 0 0-.2-.28l.3-.64a2.35 2.35 0 0 0-.36-.28l-.52.5a1.7 1.7 0 0 0-.33-.1L3.4.8a2.41 2.41 0 0 0-.23 0zm0 1.35a1.02 1.02 0 0 1 0 2.03 1.02 1.02 0 0 1 0-2.03z"/></svg>
