<svg xmlns="http://www.w3.org/2000/svg" width="24" height="24" id="svg7"><defs id="defs3"><style id="current-color-scheme"></style></defs><path d="M11.97 1.36A10.68 10.68 0 0 0 1.36 12c0 5.83 4.8 10.63 10.63 10.63a10.7 10.7 0 0 0 10.65-10.63c0-5.84-4.81-10.65-10.67-10.65zm3.71 2.16s3.68 1.7 4 5.75c.22 2.9-.17 4.13-.4 4.61a1.09 1.09 0 0 1-.18.25A7.62 7.62 0 0 0 21 8.64s2.03 2.86 1.33 5.7a9.08 9.08 0 0 1-2.9 4.56s.63-2.35.63-3.42c0 0-1.2.88-1.84 1.07 0 0-1.7-2.35-1.45-5.34l-.27.19a4.53 4.53 0 0 1-2.08 4.47c-.03.87.09 1.87.45 3.03 0 0-1.25-.89-2.04-2.42a4.53 4.53 0 0 1-5.43-4.47A4.56 4.56 0 0 1 12 7.45c.88 0 1.7.25 2.4.68 1.08-2.04 1.52-2.84 1.28-4.61zm-3.7 5.44a3.04 3.04 0 0 0-3.03 3.05 3.06 3.06 0 0 0 3.33 3.01l-.02-.32a5.43 5.43 0 0 1-.05-1.21 1.51 1.51 0 0 1-1.75-1.5c0-.85.68-1.53 1.53-1.53.4 0 .75.17 1.02.4l.65-1.3.02-.09a3.01 3.01 0 0 0-1.7-.5z" font-weight="400" overflow="visible" style="font-variant-ligatures:normal;font-variant-position:normal;font-variant-caps:normal;font-variant-numeric:normal;font-variant-alternates:normal;font-feature-settings:normal;text-indent:0;text-decoration-line:none;text-decoration-style:solid;text-decoration-color:#000;text-transform:none;text-orientation:mixed;shape-padding:0;isolation:auto;mix-blend-mode:normal" id="path2" color="#bebebe" font-family="sans-serif" white-space="normal" fill="#2ca02c" stroke-width="1.7"/><path d="M15.68 3.52s3.68 1.7 4 5.75c.22 2.9-.17 4.13-.4 4.61a1.09 1.09 0 0 1-.18.25A7.62 7.62 0 0 0 21 8.64s2.03 2.86 1.33 5.7a9.08 9.08 0 0 1-2.9 4.56s.63-2.35.63-3.42c0 0-1.2.88-1.84 1.07 0 0-1.7-2.35-1.45-5.34 0 0-3.6 2.04-1.9 7.69 0 0-4.26-2.98-2.04-7.66C15.05 6.56 16 6 15.68 3.52z" id="path6" fill="#ff0" stroke-width="1.7"/></svg>
