<?xml version="1.0" encoding="UTF-8" standalone="no"?>
<svg
   xmlns:dc="http://purl.org/dc/elements/1.1/"
   xmlns:cc="http://creativecommons.org/ns#"
   xmlns:rdf="http://www.w3.org/1999/02/22-rdf-syntax-ns#"
   xmlns:svg="http://www.w3.org/2000/svg"
   xmlns="http://www.w3.org/2000/svg"
   xmlns:sodipodi="http://sodipodi.sourceforge.net/DTD/sodipodi-0.dtd"
   xmlns:inkscape="http://www.inkscape.org/namespaces/inkscape"
   height="24"
   viewBox="0 0 24 24"
   width="24"
   version="1.1"
   id="svg4"
   sodipodi:docname="aptdaemon-working.svg"
   inkscape:version="0.92.3 (2405546, 2018-03-11)"
   style="fill:#000000">
  <metadata
     id="metadata10">
    <rdf:RDF>
      <cc:Work
         rdf:about="">
        <dc:format>image/svg+xml</dc:format>
        <dc:type
           rdf:resource="http://purl.org/dc/dcmitype/StillImage" />
        <dc:title></dc:title>
      </cc:Work>
    </rdf:RDF>
  </metadata>
  <defs
     id="defs8" />
  <sodipodi:namedview
     pagecolor="#ffffff"
     bordercolor="#666666"
     borderopacity="1"
     objecttolerance="10"
     gridtolerance="10"
     guidetolerance="10"
     inkscape:pageopacity="0"
     inkscape:pageshadow="2"
     inkscape:window-width="1366"
     inkscape:window-height="717"
     id="namedview6"
     showgrid="false"
     inkscape:zoom="15.850977"
     inkscape:cx="-11.437041"
     inkscape:cy="11.74765"
     inkscape:window-x="0"
     inkscape:window-y="25"
     inkscape:window-maximized="1"
     inkscape:current-layer="svg4"
     showguides="true"
     inkscape:guide-bbox="true" />
  <path
     style="opacity:1;fill:#808080;fill-opacity:0.99065423;fill-rule:nonzero;stroke:none;stroke-width:0.13580415;stroke-linecap:butt;stroke-linejoin:round;stroke-miterlimit:4;stroke-dasharray:none;stroke-dashoffset:0;stroke-opacity:1;paint-order:markers fill stroke"
     d="M 12 1.1347656 A 10.818297 10.86433 0 0 0 1.1816406 12 A 10.818297 10.86433 0 0 0 12 22.865234 A 10.818297 10.86433 0 0 0 22.818359 12 A 10.818297 10.86433 0 0 0 12 1.1347656 z M 12 3.0292969 A 9.1218935 9.1218935 0 0 1 12.837891 3.0703125 L 13.359375 5.7539062 A 6.426847 6.426847 0 0 1 14.601562 6.1523438 L 16.566406 4.2714844 C 17.063638 4.5662875 17.496472 4.9306543 17.925781 5.3125 L 16.765625 7.7539062 A 6.4806712 6.4806712 0 0 1 17.527344 8.796875 L 20.208984 8.4355469 A 8.8527738 8.8527738 0 0 1 20.730469 10.078125 L 18.367188 11.359375 C 18.388978 11.574657 18.40625 11.778142 18.40625 12 C 18.40625 12.221745 18.388997 12.42557 18.367188 12.640625 L 20.730469 13.921875 A 8.8553367 8.8553367 0 0 1 20.208984 15.564453 L 17.527344 15.205078 C 17.309484 15.576719 17.050121 15.925148 16.765625 16.244141 L 17.925781 18.689453 C 17.496472 19.071374 17.063638 19.435666 16.566406 19.730469 L 14.601562 17.845703 C 14.2107 18.02164 13.789358 18.154697 13.361328 18.248047 L 12.839844 20.931641 A 9.1218935 9.1218935 0 0 1 11.158203 20.931641 L 10.638672 18.248047 C 10.209361 18.154126 9.7886314 18.021073 9.3964844 17.845703 L 7.4335938 19.728516 C 6.9350798 19.43375 6.5028576 19.071374 6.0722656 18.689453 L 7.2324219 16.244141 C 6.9479229 15.925073 6.6905162 15.576606 6.4726562 15.205078 L 3.7890625 15.564453 C 3.5609525 15.040308 3.3938402 14.49213 3.2695312 13.921875 L 5.6308594 12.640625 C 5.6090894 12.425343 5.59375 12.221858 5.59375 12 A 6.184639 6.184639 0 0 1 5.6308594 11.359375 L 3.2695312 10.078125 A 8.8553367 8.8553367 0 0 1 3.7890625 8.4375 L 6.4726562 8.7988281 A 6.4806712 6.4806712 0 0 1 7.2324219 7.7558594 L 6.0722656 5.3125 C 6.5028576 4.9305787 6.9350797 4.5682402 7.4335938 4.2734375 L 9.3964844 6.1523438 A 6.4230025 6.4230025 0 0 1 10.638672 5.7539062 L 11.158203 3.0703125 C 11.435012 3.0480125 11.718066 3.0292969 12 3.0292969 z M 12 8.15625 A 3.8447265 3.8447265 0 0 0 12 15.845703 A 3.8447266 3.8447266 0 0 0 12 8.15625 z "
     id="path1016" />
</svg>
