<svg xmlns="http://www.w3.org/2000/svg" version="1" viewBox="0 0 24 24"><g fill="#1a1a1a" color="#000"><path d="M9.83.38a3.95 3.95 0 0 0-3.3 1.69c-.73 1.32-.13 2.88-.59 4.27-.27 1 0 2.06.73 2.78.62.78 1.38 1.8.96 2.85-.62 1.18-1.84 1.87-2.95 2.5-.3.12-.68.32-1 .57-.28.08-.5.3-.5.6v2.8c0 .37.29.67.67.67h7.3a2.72 2.72 0 0 1 2.73-2.7h2.63v-1.42c-1.48-.8-3.13-1.58-3.96-3.14-.28-1.24.59-2.32 1.35-3.18.75-.95.45-2.21.2-3.28-.12-1.19.26-2.59-.62-3.56A5.56 5.56 0 0 0 9.83.38z" style="isolation:auto;mix-blend-mode:normal"/><path d="M17.45 14.82v3.06h-3.07v3.05l3.07.02V24h3.07v-3.06h3.06v-3.07h-3.06v-3.06z" style="isolation:auto;mix-blend-mode:normal"/></g></svg>