<svg xmlns="http://www.w3.org/2000/svg" width="24" height="24"><path d="M12 2.54a9.46 9.46 0 0 0-8.3 4.93l8.14 8h.76l7.86-7.7A9.46 9.46 0 0 0 12 2.54zM3.15 8.67A9.46 9.46 0 0 0 2.54 12a9.46 9.46 0 0 0 1.24 4.66l3.72-3.7-4.35-4.29zm17.82.35l-3.34 3.32a6 6 0 0 1 .16-.02 6 6 0 0 1 .6-.03 6 6 0 0 1 .42.02 6 6 0 0 1 .6.07 6 6 0 0 1 .58.13 6 6 0 0 1 .57.19 6 6 0 0 1 .55.24 6 6 0 0 1 .27.16 9.46 9.46 0 0 0 .08-1.1 9.46 9.46 0 0 0-.49-2.98zm-2.59 4.27a5 5 0 0 0-5 5 5 5 0 0 0 5 5 5 5 0 0 0 5-5 5 5 0 0 0-5-5zm-9.96.53l-3.94 3.91A9.46 9.46 0 0 0 12 21.46a9.46 9.46 0 0 0 1.24-.1 6 6 0 0 1-.12-.2 6 6 0 0 1-.26-.53 6 6 0 0 1-.2-.57 6 6 0 0 1-.16-.58 6 6 0 0 1-.09-.59 6 6 0 0 1-.03-.6 6 6 0 0 1 .02-.42 6 6 0 0 1 .07-.6 6 6 0 0 1 .12-.54h-1.27l-2.9-2.9v-.01zm9.96 1.47a3 3 0 0 1 1.3.3l-4 3.99a3 3 0 0 1-.3-1.29 3 3 0 0 1 3-3zm2.7 1.7h.02a3 3 0 0 1 .28 1.3 3 3 0 0 1-3 3 3 3 0 0 1-1.3-.3l4-4z" fill="#1a1a1a"/></svg>