<svg xmlns="http://www.w3.org/2000/svg" width="24" height="24"><defs><style id="current-color-scheme"></style></defs><path d="M12.78 5c-.5 0-1.03.06-1.6.18-.57.13-1.11.4-1.63.83A3.4 3.4 0 0 0 8.4 8.47a3.01 3.01 0 0 0 .77 1.99c.26.27.57.49.94.66.37.16.8.24 1.28.24h.29l.29-.04c-.05.1-.1.22-.13.33-.03.1-.05.23-.05.39 0 .28.05.52.16.71.12.19.25.36.38.54-.2 0-.45.03-.72.05a8.8 8.8 0 0 0-1.84.37c-.31.1-.6.25-.89.42a2.64 2.64 0 0 0-1.38 2.24c0 .34.07.67.23.98.16.31.4.6.72.84.32.25.73.44 1.21.59.5.15 1.06.22 1.71.22.77 0 1.45-.1 2.04-.31.6-.2 1.1-.46 1.5-.8.4-.31.7-.68.9-1.1a2.86 2.86 0 0 0 .18-2.1 2.89 2.89 0 0 0-.83-1.21l-.56-.52-.65-.52c-.1-.08-.2-.18-.3-.3a.72.72 0 0 1-.17-.49.8.8 0 0 1 .16-.51c.11-.14.23-.27.35-.39.2-.14.38-.3.56-.46.18-.17.34-.35.48-.55a2.62 2.62 0 0 0 .47-1.6 2.74 2.74 0 0 0-.48-1.61 4.72 4.72 0 0 0-.8-.86v-.01h1.12L16.5 5h-3.72zm-1.14.6c.38 0 .7.12.98.36.29.22.53.5.72.84a4.56 4.56 0 0 1 .58 2.18c0 .18-.03.4-.08.65-.04.26-.17.49-.38.7-.14.14-.33.27-.55.36a1.62 1.62 0 0 1-1.67-.18 3.17 3.17 0 0 1-.71-.84 4.5 4.5 0 0 1-.54-2.1c0-.24.02-.48.07-.71.06-.24.17-.45.32-.65.15-.18.33-.33.56-.44.23-.1.46-.16.7-.16zm.64 8.2h.47c.06 0 .12 0 .2.02l.88.66c.25.2.46.38.61.57.16.18.27.37.35.55.08.2.12.4.12.64 0 .58-.23 1.05-.68 1.41-.45.39-1.1.57-1.97.57a3.9 3.9 0 0 1-2.33-.62 1.92 1.92 0 0 1-.84-1.62c0-.33.06-.6.18-.82a2.28 2.28 0 0 1 .95-.9l.42-.17a7.73 7.73 0 0 1 1.17-.26c.18 0 .34-.02.47-.03z" fill="currentColor" color="#1a1a1a"/></svg>