<svg xmlns="http://www.w3.org/2000/svg" width="24" height="24" id="svg9"><defs id="defs3"><style id="current-color-scheme"></style></defs><path d="M12 3a4.38 4.38 0 1 0-.01 8.76A4.38 4.38 0 0 0 12 3zm0 11.7c-8.77 0-8.77 5.84-8.77 5.84V22h10.45a5.5 5.5 0 0 1-.2-.28 5.5 5.5 0 0 1-.3-.47 5.5 5.5 0 0 1-.23-.49 5.5 5.5 0 0 1-.2-.52 5.5 5.5 0 0 1-.13-.53 5.5 5.5 0 0 1-.08-.54 5.5 5.5 0 0 1-.03-.55 5.5 5.5 0 0 1 .02-.4 5.5 5.5 0 0 1 .06-.54 5.5 5.5 0 0 1 .12-.53 5.5 5.5 0 0 1 .17-.52 5.5 5.5 0 0 1 .23-.5 5.5 5.5 0 0 1 .27-.48 5.5 5.5 0 0 1 .32-.45 5.5 5.5 0 0 1 .3-.34c-.63-.08-1.24-.17-2-.17z" id="path867" color="#dfdfdf" fill="#1a1a1a" stroke-width="1.46"/><path d="M18.01 14.12a4.5 4.5 0 0 0-4.5 4.5 4.5 4.5 0 0 0 4.5 4.5 4.5 4.5 0 0 0 4.5-4.5 4.5 4.5 0 0 0-4.5-4.5zM20.25 16l.91.91-3.63 3.63-.91-.9-1.82-1.82.9-.91 1.83 1.82L20.25 16z" id="path865" color="#dfdfdf" fill="#1a1a1a" stroke-width="1.46" fill-opacity=".3"/></svg>