<svg xmlns="http://www.w3.org/2000/svg" width="24" height="24"><path d="M12 2.54a9.46 9.46 0 0 0-8.3 4.93l8.14 8h.76l7.86-7.7A9.46 9.46 0 0 0 12 2.54zm0 1.93l4 4-4 4-1.5-1.5 1.5-1.5H8v-2h4l-1.5-1.5 1.5-1.5zm-8.85 4.2A9.46 9.46 0 0 0 2.54 12a9.46 9.46 0 0 0 1.24 4.66l3.72-3.7-4.35-4.29zm17.82.35L17 12.97l3.38 3.39A9.46 9.46 0 0 0 21.46 12a9.46 9.46 0 0 0-.49-2.98zm-12.55 4.8l-3.94 3.91A9.46 9.46 0 0 0 12 21.46a9.46 9.46 0 0 0 7.74-4.02l-3.68-3.61-2.9 2.9h-1.84l-2.9-2.9v-.01z" fill="#1a1a1a"/></svg>