<svg xmlns="http://www.w3.org/2000/svg" width="24" height="24" id="svg9"><defs id="defs3"><style id="current-color-scheme">.ColorScheme-Text{color:#1a1a1a}</style></defs><path class="ColorScheme-Text" d="M8.4 3.87a8.7 8.7 0 0 0-3.34 1l-.38.2.2.37c.81 1.64 1 2.81.9 3.78-.1.96-.49 1.75-.9 2.6-.43.83-.88 1.74-1 2.88a7.7 7.7 0 0 0 1 4.24l.18.38.38-.2c1.64-.81 2.81-1 3.78-.9.96.1 1.75.49 2.6.9.83.43 1.74.88 2.88 1a7.7 7.7 0 0 0 4.24-1l.38-.18-.2-.38c-.81-1.64-1-2.81-.9-3.78.1-.96.49-1.75.9-2.6.43-.83.88-1.74 1-2.88a7.7 7.7 0 0 0-1-4.24l-.18-.38-.38.2c-1.64.81-2.81 1-3.78.9a7.32 7.32 0 0 1-2.6-.9c-.83-.43-1.74-.88-2.88-1a5.57 5.57 0 0 0-.9-.01z" id="path5" color="#1a1a1a" opacity=".3" fill="currentColor" stroke-width="1.13"/><path class="ColorScheme-Text" d="M3 3v3.38h3.38V3zm14.63 0v3.38H21V3zM3 17.63V21h3.38v-3.38zm14.63 0V21H21v-3.38z" id="path7" color="#1a1a1a" fill="currentColor" stroke-width="1.13"/></svg>
