<svg xmlns="http://www.w3.org/2000/svg" width="24" height="24"><defs><style id="current-color-scheme"></style></defs><path d="M12 5a7 7 0 1 0 0 14 7 7 0 0 0 0-14zm-.5 1.93h.22c0 .04-.05.15-.13.32-.48 1.06-.51 2.3-.06 2.96l.16.25c0 .02-.09.04-.19.04-.23 0-.45-.15-.9-.5-.2-.16-.47-.3-.57-.32-.16-.03-.2-.01-.4.2-.2.18-.26.29-.26.46 0 .66.8 1.19 2.26 1.5 1.98.42 2.47.8 2.53 1.84.07 1.31-.63 2.3-2.16 3.07-.18.09-.3.12-.38.15h-.09a1.11 1.11 0 0 1-.03-.31c0-.7-.27-1.41-.69-1.81-.1-.11-.42-.34-.69-.5a3.12 3.12 0 0 1-.59-.44c-.1-.14-.1-.22-.03-.47.14-.46.3-.71.63-1 .16-.15.33-.28.37-.28.04 0-.22-.08-.6-.16-.37-.07-.93-.24-1.21-.34a4.73 4.73 0 0 1-1.5-.88l-.03-.03A5.03 5.03 0 0 1 11 7c.16-.04.33-.05.5-.07zm4.69 2.35c.11.07.56 1.03.68 1.5.17.6.16 1.65 0 2.25-.05.23-.13.44-.15.47a6.42 6.42 0 0 0-.94-1.19c-.8-.85-.93-1.3-.6-1.97.18-.34.92-1.12 1-1.06z" fill="currentColor" color="#1a1a1a"/></svg>