<svg xmlns="http://www.w3.org/2000/svg" width="24" height="24" viewBox="0 0 6.35 6.35"><path fill="#1a1a1a" d="M3.17 0l-.3.02-.18.95a2.27 2.27 0 0 0-.43.14l-.7-.66a3.13 3.13 0 0 0-.48.36l.41.87a2.29 2.29 0 0 0-.27.37l-.94-.13a3.13 3.13 0 0 0-.19.58l.84.45a2.18 2.18 0 0 0-.02.23c0 .07 0 .15.02.22l-.84.46a3.1 3.1 0 0 0 .19.58l.94-.13c.08.13.17.25.27.37l-.4.86c.14.13.3.26.47.37l.7-.67c.13.06.28.1.43.14l.19.95a3.22 3.22 0 0 0 .6 0l.18-.95c.15-.03.3-.08.43-.14l.7.67c.17-.1.33-.24.48-.37l-.41-.86c.1-.12.19-.24.27-.37l.94.12a3.13 3.13 0 0 0 .19-.58l-.84-.45a2.1 2.1 0 0 0 0-.45l.84-.45a3.13 3.13 0 0 0-.19-.58l-.94.13a2.29 2.29 0 0 0-.27-.37l.4-.86A3.13 3.13 0 0 0 4.8.45l-.7.66a2.27 2.27 0 0 0-.44-.14L3.47.02a3.22 3.22 0 0 0-.3-.01zm0 1.82a1.36 1.36 0 0 1 .55 2.6l.16-1h.55L3.17 1.9 1.92 3.42h.55l.16 1a1.36 1.36 0 0 1 .54-2.6z"/></svg>