<svg xmlns="http://www.w3.org/2000/svg" width="24" height="24"><g fill="#1a1a1a" color="#bebebe"><path d="M20.43 23.5s1.54 0 1.54-1.53V6.63c0-1.53-1.54-1.53-1.54-1.53H18.9v1.53h.77s.76 0 .76.77v13.8s0 .77-.76.77H8.93s-.76 0-.76-.77v-.77H6.63v1.54c0 1.53 1.54 1.53 1.54 1.53z" overflow="visible" style="marker:none"/><path d="M17.37 2.03v15.34c0 1.53-1.54 1.53-1.54 1.53H3.57s-1.54 0-1.54-1.53V2.03C2.03.5 3.57.5 3.57.5h12.26s1.54 0 1.54 1.53zm-1.54.77c0-.77-.76-.77-.76-.77H4.33s-.76 0-.76.77v13.8c0 .77.76.77.76.77h10.74c.76 0 .76-.77.76-.77z" overflow="visible" style="marker:none"/></g></svg>