<svg xmlns="http://www.w3.org/2000/svg" width="24" height="24" version="1"><defs><linearGradient id="a"><stop offset="0"/><stop offset="1" stop-opacity="0"/></linearGradient></defs><path d="M5.138 4.11c-.581 0-1.05.469-1.05 1.05v.509c0 .581.469 1.05 1.05 1.05H18.86c.582 0 1.051-.469 1.051-1.05V5.16c0-.581-.47-1.05-1.05-1.05zm0 4.39c-.581 0-1.05.469-1.05 1.05v.509c0 .581.469 1.05 1.05 1.05H18.86c.582 0 1.051-.469 1.051-1.05V9.55c0-.581-.47-1.05-1.05-1.05zm0 4.39c-.581 0-1.05.469-1.05 1.05v.51c0 .581.469 1.05 1.05 1.05H18.86c.582 0 1.051-.469 1.051-1.05v-.51c0-.581-.47-1.05-1.05-1.05zm0 4.392c-.581 0-1.05.468-1.05 1.05v.508c0 .581.469 1.05 1.05 1.05H18.86c.582 0 1.051-.469 1.051-1.05v-.509c0-.581-.47-1.05-1.05-1.05z" fill="gray"/></svg>