<svg xmlns="http://www.w3.org/2000/svg" width="48" height="48" viewBox="0 0 12.7 12.7"><path fill="#2c89a0" d="M6.34.07a6.29 6.29 0 0 0-6.29 6.3 6.29 6.29 0 0 0 6.3 6.28 6.29 6.29 0 0 0 6.28-6.29A6.29 6.29 0 0 0 6.34.07zm-.01.94a5.4 5.4 0 0 1 5.4 5.4 5.4 5.4 0 0 1-5.4 5.41 5.4 5.4 0 0 1-5.41-5.4A5.4 5.4 0 0 1 6.32 1zM3.04 3.4c-.09 0-.15.05-.17.12L1.9 8.47c-.13.48.9 1.06 1.57.67l1.57-2.29h2.58l1.58 2.3c.67.38 1.7-.2 1.56-.68L9.8 3.53a.16.16 0 0 0-.16-.12h-6.6zm1.14.6h.3a.14.14 0 0 1 .14.14v.43h.43a.14.14 0 0 1 .14.14V5a.14.14 0 0 1-.14.14h-.43v.43a.14.14 0 0 1-.15.15H4.2a.14.14 0 0 1-.15-.15v-.43h-.43A.14.14 0 0 1 3.47 5v-.3a.14.14 0 0 1 .14-.14h.43v-.43a.14.14 0 0 1 .14-.14zm4.14 0a.29.29 0 0 1 .02 0 .29.29 0 0 1 .29.28.29.29 0 0 1-.29.29.29.29 0 0 1-.29-.29.29.29 0 0 1 .27-.28zm-.57.57a.29.29 0 0 1 .02 0 .29.29 0 0 1 .28.29.29.29 0 0 1-.28.28.29.29 0 0 1-.29-.28.29.29 0 0 1 .27-.29zm1.14 0a.29.29 0 0 1 .02 0 .29.29 0 0 1 .29.29.29.29 0 0 1-.29.28.29.29 0 0 1-.28-.28.29.29 0 0 1 .26-.29zm-.57.57a.29.29 0 0 1 .02 0 .29.29 0 0 1 .29.29.29.29 0 0 1-.29.29.29.29 0 0 1-.29-.3.29.29 0 0 1 .27-.28z"/></svg>