<svg xmlns="http://www.w3.org/2000/svg" width="48" height="48" viewBox="0 0 12.7 12.7"><path fill="#2c89a0" d="M6.344.073a6.29 6.29 0 0 0-6.289 6.29 6.29 6.29 0 0 0 6.29 6.288 6.29 6.29 0 0 0 6.288-6.289A6.29 6.29 0 0 0 6.344.072zm-.018.936a5.407 5.407 0 0 1 5.407 5.407 5.407 5.407 0 0 1-5.407 5.407A5.407 5.407 0 0 1 .92 6.416 5.407 5.407 0 0 1 6.326 1.01zm0 .53L1.392 6.472l.955.955.796-.796v3.82H5.69v-1.91a.635.635 0 1 1 1.273 0v1.91H9.51v-3.82l.795.796.956-.955-4.935-4.935zm1.91.636v.478L9.51 3.926V2.175H8.236z"/></svg>