<svg xmlns="http://www.w3.org/2000/svg" width="48" height="48" viewBox="0 0 12.7 12.7"><path d="M6.34.07a6.29 6.29 0 0 0-6.29 6.3 6.29 6.29 0 0 0 6.3 6.28 6.29 6.29 0 0 0 6.28-6.29A6.29 6.29 0 0 0 6.34.07zM6.32 1l.01.01a5.4 5.4 0 0 1 5.4 5.4 5.4 5.4 0 0 1-5.4 5.41 5.4 5.4 0 0 1-5.41-5.4A5.4 5.4 0 0 1 6.32 1zm2.22 1.35A1.2 1.16 0 0 0 7.35 3.5a1.2 1.16 0 0 0 1.2 1.16 1.2 1.16 0 0 0 1.19-1.16 1.2 1.16 0 0 0-1.2-1.16zm-2.56.15a.77.75 0 0 0-.77.75.77.75 0 0 0 .77.75.77.75 0 0 0 .77-.75.77.75 0 0 0-.77-.75zm-2.17.72a.77.75 0 0 0-.77.76.77.75 0 0 0 .77.75.77.75 0 0 0 .78-.75.77.75 0 0 0-.78-.76zM6.1 4.51a3.04 3.04 0 0 0-2.2.91 3.17 3.17 0 0 0 0 4.44 3.1 3.1 0 0 0 3.41.67 3.09 3.09 0 0 0 1.91-2.88v-.19H6.1v.37h2.75a2.72 2.72 0 0 1-1.41 2.24 2.71 2.71 0 0 1-2.41.12 2.78 2.78 0 0 1-1.68-2.54 2.73 2.73 0 0 1 1.37-2.4 2.7 2.7 0 0 1 1.38-.37 2.73 2.73 0 0 1 2.21 1.11l.3-.22A3.05 3.05 0 0 0 6.1 4.51z" fill="#2c89a0"/></svg>