<?xml version="1.0" encoding="UTF-8" standalone="no"?>
<svg
   xmlns:dc="http://purl.org/dc/elements/1.1/"
   xmlns:cc="http://creativecommons.org/ns#"
   xmlns:rdf="http://www.w3.org/1999/02/22-rdf-syntax-ns#"
   xmlns:svg="http://www.w3.org/2000/svg"
   xmlns="http://www.w3.org/2000/svg"
   xmlns:sodipodi="http://sodipodi.sourceforge.net/DTD/sodipodi-0.dtd"
   xmlns:inkscape="http://www.inkscape.org/namespaces/inkscape"
   width="48"
   height="48"
   viewBox="0 0 12.7 12.7"
   version="1.1"
   id="svg6"
   sodipodi:docname="application-x-lha.svg"
   inkscape:version="0.92.5 (2060ec1f9f, 2020-04-08)">
  <metadata
     id="metadata12">
    <rdf:RDF>
      <cc:Work
         rdf:about="">
        <dc:format>image/svg+xml</dc:format>
        <dc:type
           rdf:resource="http://purl.org/dc/dcmitype/StillImage" />
        <dc:title></dc:title>
      </cc:Work>
    </rdf:RDF>
  </metadata>
  <defs
     id="defs10" />
  <sodipodi:namedview
     pagecolor="#ffffff"
     bordercolor="#666666"
     borderopacity="1"
     objecttolerance="10"
     gridtolerance="10"
     guidetolerance="10"
     inkscape:pageopacity="0"
     inkscape:pageshadow="2"
     inkscape:window-width="1087"
     inkscape:window-height="480"
     id="namedview8"
     showgrid="false"
     inkscape:zoom="4.9166667"
     inkscape:cx="2.1355932"
     inkscape:cy="24"
     inkscape:window-x="0"
     inkscape:window-y="25"
     inkscape:window-maximized="0"
     inkscape:current-layer="svg6" />
  <path
     style="fill:#e6e6e6;stroke-width:1"
     d="M 1.3229166,0.79374999 0.26510009,3.4401 H 6.0848999 V 0.79374999 Z m 5.2921834,0 V 3.4401 h 5.8198 L 11.377084,0.79374999 Z M 0.26510009,3.96875 v 6.35 c 0,1.172 0.94414991,2.11615 2.11614991,2.11615 h 7.9375 a 2.112,2.112 0 0 0 2.11615,-2.11615 v -6.35 h -0.792716 v 6.35 A 1.32,1.32 0 0 1 10.31875,11.642183 H 2.3802165 A 1.32,1.32 0 0 1 1.056783,10.31875 v -6.35 z M 1.8531169,4.9769572 V 6.0368407 H 2.1332031 V 7.0972412 H 2.6628865 V 6.0368407 H 2.922819 V 4.9769572 Z m 1.3198162,0.050126 V 5.5567667 H 3.7031332 V 5.0270833 Z M 3.7031332,5.5567667 V 6.0869668 H 4.2328166 V 5.5567667 Z m 0.5296834,0 H 4.7630167 V 5.0270833 H 4.2328166 Z m 0.5302001,0 V 6.0869668 H 5.2932168 V 5.5567667 Z m 0.5302001,0 h 0.519865 V 5.0270833 h -0.519865 z m 0.519865,0 V 6.0869668 H 6.3427652 V 5.5567667 Z m 0.5296834,0 H 6.8729653 V 5.0270833 H 6.3427652 Z m 0.5302001,0 V 6.0869668 H 7.4031657 V 5.5567667 Z m 0.5302004,0 H 7.9328491 V 5.0270833 H 7.4031657 Z m 0.5296834,0 V 6.0869668 H 8.4630492 V 5.5567667 Z m 0.5302001,0 H 8.9932493 V 5.0270833 H 8.4630492 Z m 0.5302001,0 V 6.0869668 H 9.522933 V 5.5567667 Z m 0.5296837,0 h 0.5302 V 5.0270833 h -0.5302 z m 0.5302,0 v 0.5302001 h 0.529684 V 5.5567667 Z m 0.529684,0 h 0.5302 V 5.0270833 h -0.5302 z M 2.1228678,5.2472248 H 2.6530681 V 5.7769082 H 2.1228678 Z m 2.3001181,2.2996014 v 0.010335 z m 0.5167643,0.8722979 -0.00982,0.00103 V 10.759033 H 5.3598794 V 9.8691648 c 0,-0.1699998 0.00994,-0.270366 0.059945,-0.3503662 0.06,-0.11 0.1700585,-0.1700155 0.3100586,-0.1700155 0.25,0 0.3400308,0.1500466 0.3400308,0.5100466 V 10.759033 H 6.4998615 V 9.7590942 c 0,-0.25 -0.039889,-0.399865 -0.1198893,-0.519865 -0.1199999,-0.18 -0.319991,-0.2800863 -0.5699911,-0.2800863 A 0.63,0.63 0 0 0 5.3598794,9.1188232 V 8.4191241 Z m -1.0097574,0.00982 V 10.759033 H 4.350122 V 8.4289428 Z m 3.7997679,0.4898911 c -0.5099999,0 -0.8898683,0.400176 -0.8898683,0.9301758 0,0.53 0.3698682,0.910022 0.8898683,0.910022 A 0.69999999,0.69999999 0 0 0 8.310087,10.488765 v 0.230477 H 8.7002439 V 8.9601764 H 8.2997518 V 9.199955 A 0.64999999,0.64999999 0 0 0 7.74423,8.919869 v -0.00103 a 0.64999999,0.64999999 0 0 0 -0.014469,0 z m 0.050126,0.3901573 c 0.3,0 0.519865,0.2198372 0.519865,0.5498372 a 0.59999998,0.59999998 0 0 1 -0.129708,0.3601843 0.48999999,0.48999999 0 0 1 -0.3798218,0.149862 c -0.3099998,0 -0.5203817,-0.200046 -0.5203817,-0.5100463 0,-0.32 0.2000464,-0.5498372 0.5100465,-0.5498372 z"
     id="path2"
     inkscape:connector-curvature="0" />
</svg>
