<?xml version="1.0" encoding="UTF-8" standalone="no"?>
<svg
   xmlns:dc="http://purl.org/dc/elements/1.1/"
   xmlns:cc="http://creativecommons.org/ns#"
   xmlns:rdf="http://www.w3.org/1999/02/22-rdf-syntax-ns#"
   xmlns:svg="http://www.w3.org/2000/svg"
   xmlns="http://www.w3.org/2000/svg"
   xmlns:sodipodi="http://sodipodi.sourceforge.net/DTD/sodipodi-0.dtd"
   xmlns:inkscape="http://www.inkscape.org/namespaces/inkscape"
   width="48"
   height="48"
   viewBox="0 0 12.7 12.7"
   version="1.1"
   id="svg6"
   sodipodi:docname="application-x-lhz.svg"
   inkscape:version="0.92.5 (2060ec1f9f, 2020-04-08)">
  <metadata
     id="metadata12">
    <rdf:RDF>
      <cc:Work
         rdf:about="">
        <dc:format>image/svg+xml</dc:format>
        <dc:type
           rdf:resource="http://purl.org/dc/dcmitype/StillImage" />
        <dc:title></dc:title>
      </cc:Work>
    </rdf:RDF>
  </metadata>
  <defs
     id="defs10" />
  <sodipodi:namedview
     pagecolor="#ffffff"
     bordercolor="#666666"
     borderopacity="1"
     objecttolerance="10"
     gridtolerance="10"
     guidetolerance="10"
     inkscape:pageopacity="0"
     inkscape:pageshadow="2"
     inkscape:window-width="1087"
     inkscape:window-height="480"
     id="namedview8"
     showgrid="false"
     inkscape:zoom="4.9166667"
     inkscape:cx="2.1355932"
     inkscape:cy="24"
     inkscape:window-x="0"
     inkscape:window-y="25"
     inkscape:window-maximized="0"
     inkscape:current-layer="svg6" />
  <path
     style="fill:#e6e6e6;stroke-width:1"
     d="M 1.3229166,0.79374999 0.26510009,3.4401 H 6.0848999 V 0.79374999 Z m 5.2921834,0 V 3.4401 h 5.8198 L 11.377084,0.79374999 Z M 0.26510009,3.96875 v 6.35 c 0,1.172 0.94414991,2.11615 2.11614991,2.11615 h 7.9375 a 2.112,2.112 0 0 0 2.11615,-2.11615 v -6.35 h -0.792716 v 6.35 A 1.32,1.32 0 0 1 10.31875,11.642183 H 2.3802165 A 1.32,1.32 0 0 1 1.056783,10.31875 v -6.35 z M 1.8531169,4.9769572 V 6.0368407 H 2.1332031 V 7.0972412 H 2.6628865 V 6.0368407 H 2.922819 V 4.9769572 Z m 1.3198162,0.050126 V 5.5567667 H 3.7031332 V 5.0270833 Z M 3.7031332,5.5567667 V 6.0869668 H 4.2328166 V 5.5567667 Z m 0.5296834,0 H 4.7630167 V 5.0270833 H 4.2328166 Z m 0.5302001,0 V 6.0869668 H 5.2932168 V 5.5567667 Z m 0.5302001,0 h 0.519865 V 5.0270833 h -0.519865 z m 0.519865,0 V 6.0869668 H 6.3427652 V 5.5567667 Z m 0.5296834,0 H 6.8729653 V 5.0270833 H 6.3427652 Z m 0.5302001,0 V 6.0869668 H 7.4031657 V 5.5567667 Z m 0.5302004,0 H 7.9328491 V 5.0270833 H 7.4031657 Z m 0.5296834,0 V 6.0869668 H 8.4630492 V 5.5567667 Z m 0.5302001,0 H 8.9932493 V 5.0270833 H 8.4630492 Z m 0.5302001,0 V 6.0869668 H 9.522933 V 5.5567667 Z m 0.5296837,0 h 0.5302 V 5.0270833 h -0.5302 z m 0.5302,0 v 0.5302001 h 0.529684 V 5.5567667 Z m 0.529684,0 h 0.5302 V 5.0270833 h -0.5302 z M 2.1228678,5.2472248 H 2.6530681 V 5.7769082 H 2.1228678 Z m 2.3001181,2.2996014 v 0.010335 z M 4.1000082,8.400004 v 2.350244 H 4.5201374 V 8.400004 Z m 1.0598835,0 v 2.350244 H 5.5800212 V 9.8500447 c 0,-0.17 0.019945,-0.2698496 0.059945,-0.3498495 0.06,-0.1000001 0.1700586,-0.1700154 0.3100586,-0.1700154 0.25,0 0.3498495,0.1498647 0.3498495,0.5198649 v 0.9002033 h 0.420129 V 9.7497923 c 0,-0.2500001 -0.029889,-0.3996833 -0.1198895,-0.5296834 -0.12,-0.18 -0.3199908,-0.2800861 -0.5699909,-0.2800864 A 0.63,0.63 0 0 0 5.5800212,9.1100382 V 8.400004 Z m 2.160075,0.5798095 V 9.3498169 H 8.0098471 L 7.2300496,10.349756 v 0.390157 H 8.5700195 V 10.360091 H 7.7400959 L 8.5100747,9.360152 V 8.9798135 H 7.3297851 Z"
     id="path2"
     inkscape:connector-curvature="0" />
</svg>
