<?xml version="1.0" encoding="UTF-8" standalone="no"?>
<svg
   xmlns:dc="http://purl.org/dc/elements/1.1/"
   xmlns:cc="http://creativecommons.org/ns#"
   xmlns:rdf="http://www.w3.org/1999/02/22-rdf-syntax-ns#"
   xmlns:svg="http://www.w3.org/2000/svg"
   xmlns="http://www.w3.org/2000/svg"
   xmlns:sodipodi="http://sodipodi.sourceforge.net/DTD/sodipodi-0.dtd"
   xmlns:inkscape="http://www.inkscape.org/namespaces/inkscape"
   width="48"
   height="48"
   viewBox="0 0 12.7 12.7"
   version="1.1"
   id="svg6"
   sodipodi:docname="application-x-bzip.svg"
   inkscape:version="0.92.5 (2060ec1f9f, 2020-04-08)">
  <metadata
     id="metadata12">
    <rdf:RDF>
      <cc:Work
         rdf:about="">
        <dc:format>image/svg+xml</dc:format>
        <dc:type
           rdf:resource="http://purl.org/dc/dcmitype/StillImage" />
        <dc:title></dc:title>
      </cc:Work>
    </rdf:RDF>
  </metadata>
  <defs
     id="defs10" />
  <sodipodi:namedview
     pagecolor="#ffffff"
     bordercolor="#666666"
     borderopacity="1"
     objecttolerance="10"
     gridtolerance="10"
     guidetolerance="10"
     inkscape:pageopacity="0"
     inkscape:pageshadow="2"
     inkscape:window-width="1087"
     inkscape:window-height="480"
     id="namedview8"
     showgrid="false"
     inkscape:zoom="4.9166667"
     inkscape:cx="2.1355932"
     inkscape:cy="24"
     inkscape:window-x="0"
     inkscape:window-y="25"
     inkscape:window-maximized="0"
     inkscape:current-layer="svg6" />
  <path
     style="fill:#e6e6e6;stroke-width:1"
     d="M 1.3229166,0.79374999 0.26510009,3.4401 H 6.0848999 V 0.79374999 Z m 5.2921834,0 V 3.4401 h 5.8198 L 11.377084,0.79374999 Z M 0.26510009,3.96875 v 6.35 c 0,1.172 0.94414991,2.11615 2.11614991,2.11615 h 7.9375 a 2.112,2.112 0 0 0 2.11615,-2.11615 v -6.35 h -0.792716 v 6.35 A 1.32,1.32 0 0 1 10.31875,11.642183 H 2.3802165 A 1.32,1.32 0 0 1 1.056783,10.31875 v -6.35 z M 1.8531169,4.9769572 V 6.0368407 H 2.1332031 V 7.0972412 H 2.6628865 V 6.0368407 H 2.922819 V 4.9769572 Z m 1.3198162,0.050126 V 5.5567667 H 3.7031332 V 5.0270833 Z M 3.7031332,5.5567667 V 6.0869668 H 4.2328166 V 5.5567667 Z m 0.5296834,0 H 4.7630167 V 5.0270833 H 4.2328166 Z m 0.5302001,0 V 6.0869668 H 5.2932168 V 5.5567667 Z m 0.5302001,0 h 0.519865 V 5.0270833 h -0.519865 z m 0.519865,0 V 6.0869668 H 6.3427652 V 5.5567667 Z m 0.5296834,0 H 6.8729653 V 5.0270833 H 6.3427652 Z m 0.5302001,0 V 6.0869668 H 7.4031657 V 5.5567667 Z m 0.5302004,0 H 7.9328491 V 5.0270833 H 7.4031657 Z m 0.5296834,0 V 6.0869668 H 8.4630492 V 5.5567667 Z m 0.5302001,0 H 8.9932493 V 5.0270833 H 8.4630492 Z m 0.5302001,0 V 6.0869668 H 9.522933 V 5.5567667 Z m 0.5296837,0 h 0.5302 V 5.0270833 h -0.5302 z m 0.5302,0 v 0.5302001 h 0.529684 V 5.5567667 Z m 0.529684,0 h 0.5302 V 5.0270833 h -0.5302 z M 2.1228678,5.2472248 H 2.6530681 V 5.7769082 H 2.1228678 Z m 2.3001181,2.2996014 v 0.010335 z m 3.6700602,0.8609293 a 0.67,0.67 0 0 0 -0.033073,0.00103 c -0.4300001,0.01 -0.7698528,0.4300772 -0.7198527,0.8500774 H 7.7499146 C 7.6499145,8.7188663 8.5501302,8.6488938 8.4501301,9.2288938 c -0.1,0.3500001 -0.4402433,0.5399514 -0.6702433,0.7999512 -0.14,0.14 -0.3199479,0.270129 -0.4299479,0.42013 v 0.349849 h 1.519804 c -0.02,-0.12 0.030363,-0.299976 -0.019637,-0.399976 H 7.9499023 C 8.2499022,10.088848 8.6801057,9.8392447 8.8501058,9.4092447 9.0101057,8.9492446 8.6402253,8.4187889 8.1602254,8.408789 a 0.67,0.67 0 0 0 -0.067179,-0.00103 z m -4.2529704,0.041341 v 2.3497274 c 0.1199999,-0.01 0.3001571,0.03036 0.390157,-0.01964 -0.08,-0.45 0.3399633,0.219944 0.5999633,0.05994 0.6000001,0.04 0.9897422,-0.639955 0.8397422,-1.1699548 -0.1,-0.6100001 -0.9699146,-0.9402556 -1.3999146,-0.4702556 V 8.4490886 Z M 5.920052,9.0392413 v 0.00982 c 0.02,0.1 -0.060209,0.3300031 0.039791,0.3700031 H 6.6001138 L 5.830135,10.419002 v 0.379822 h 1.3399698 c -0.03,-0.11 0.059692,-0.339822 -0.040307,-0.379822 H 6.3298461 L 7.1101603,9.4190631 c -0.03,-0.11 0.059874,-0.3398216 -0.050126,-0.3798218 z M 4.7397622,9.368937 h 0.010335 c 0.5000001,-0.03 0.7000309,0.669967 0.3400309,0.969967 -0.2999999,0.27 -0.8500772,0.04 -0.8500772,-0.3700037 -0.04,-0.2999999 0.1897111,-0.6199632 0.4997113,-0.5999633 z"
     id="path2"
     inkscape:connector-curvature="0" />
</svg>
