<?xml version="1.0" encoding="UTF-8" standalone="no"?>
<svg
   xmlns:dc="http://purl.org/dc/elements/1.1/"
   xmlns:cc="http://creativecommons.org/ns#"
   xmlns:rdf="http://www.w3.org/1999/02/22-rdf-syntax-ns#"
   xmlns:svg="http://www.w3.org/2000/svg"
   xmlns="http://www.w3.org/2000/svg"
   xmlns:sodipodi="http://sodipodi.sourceforge.net/DTD/sodipodi-0.dtd"
   xmlns:inkscape="http://www.inkscape.org/namespaces/inkscape"
   width="48"
   height="48"
   version="1.1"
   id="svg6"
   sodipodi:docname="application-x-m4.svg"
   inkscape:version="0.92.4 (5da689c313, 2019-01-14)">
  <defs
     id="defs10" />
  <sodipodi:namedview
     pagecolor="#ffffff"
     bordercolor="#666666"
     borderopacity="1"
     objecttolerance="10"
     gridtolerance="10"
     guidetolerance="10"
     inkscape:pageopacity="0"
     inkscape:pageshadow="2"
     inkscape:window-width="1087"
     inkscape:window-height="480"
     id="namedview8"
     showgrid="false"
     inkscape:zoom="4.9166667"
     inkscape:cx="2.1355932"
     inkscape:cy="24"
     inkscape:window-x="0"
     inkscape:window-y="25"
     inkscape:window-maximized="0"
     inkscape:current-layer="svg6" />
  <metadata
     id="metadata2">
    <rdf:RDF>
      <cc:Work>
        <dc:format>image/svg+xml</dc:format>
        <dc:type
           rdf:resource="http://purl.org/dc/dcmitype/StillImage" />
        <dc:title></dc:title>
      </cc:Work>
    </rdf:RDF>
  </metadata>
  <path
     style="line-height:normal;text-indent:0;text-align:start;text-decoration:none;text-decoration-line:none;text-transform:none;fill:#e6e6e6;marker:none"
     d="m 29.7,-0.08 c -2.04,0 -4.12,0.08 -4.51,0.1 H 7 a 2.94,2.94 0 0 0 -0.56,0 3.1,3.1 0 0 0 -2.44,3 V 45 c 0,1.57 1.43,3 3,3 h 34 c 1.57,0 3,-1.43 3,-3 V 18.82 c 0.02,-0.8 0.22,-9.93 -0.34,-10.5 l -9.6,-8.07 c -0.29,-0.28 -2.3,-0.34 -4.35,-0.33 z m 1.5,3.08 0.13,7.5 c 0.01,0.68 0.64,1.3 1.31,1.28 l 7.78,-0.13 c 0.13,0.01 0.26,0.01 0.4,-0.01 l 0.08,3.03 0.1,4.09 V 45 H 7 V 3.02 H 25.67 L 31.2,3.01 Z m -10.55,10.42 -1.23,2.99 a 7.58,7.58 0 0 0 -1.54,0.17 l -1.82,-2.64 a 10.5,10.5 0 0 0 -1.82,0.88 l 0.77,3.1 a 7.65,7.65 0 0 0 -1.13,1.03 L 10.86,17.9 a 10.45,10.45 0 0 0 -0.99,1.78 l 2.44,2.04 a 7.3,7.3 0 0 0 -0.2,0.73 7.38,7.38 0 0 0 -0.1,0.75 l -3.04,0.93 c 0,0.69 0.07,1.36 0.21,2.02 l 3.2,0.22 c 0.16,0.48 0.37,0.94 0.63,1.38 l -1.92,2.55 c 0.4,0.55 0.83,1.07 1.33,1.53 l 2.71,-1.72 c 0.42,0.3 0.87,0.55 1.35,0.76 l -0.03,3.22 a 10.77,10.77 0 0 0 1.94,0.4 l 1.24,-2.98 c 0.51,-0.01 1.03,-0.07 1.53,-0.18 l 1.82,2.64 a 10.46,10.46 0 0 0 1.82,-0.88 l -0.76,-3.1 c 0.4,-0.3 0.78,-0.65 1.12,-1.03 l 3.02,1.05 a 10.45,10.45 0 0 0 0.98,-1.75 l 0.57,1.22 A 4.46,4.46 0 0 0 29.21,30.2 L 27.36,29.95 A 6.1,6.1 0 0 0 27,31.08 l 1.63,0.88 A 4.26,4.26 0 0 0 28.6,32.4 c 0,0.15 0.01,0.3 0.03,0.44 L 27,33.72 c 0.09,0.4 0.2,0.77 0.36,1.13 l 1.85,-0.25 c 0.15,0.26 0.33,0.5 0.52,0.72 l -0.8,1.69 c 0.3,0.26 0.6,0.5 0.94,0.71 l 1.35,-1.3 c 0.27,0.13 0.56,0.22 0.86,0.28 l 0.36,1.85 a 6.28,6.28 0 0 0 1.16,0 l 0.35,-1.85 c 0.3,-0.06 0.6,-0.16 0.86,-0.28 l 1.35,1.3 C 36.5,37.52 36.8,37.27 37.1,37 l -0.8,-1.68 a 4.5,4.5 0 0 0 0.52,-0.72 l 1.85,0.25 a 6.1,6.1 0 0 0 0.36,-1.13 L 37.4,32.84 a 3.94,3.94 0 0 0 0,-0.88 l 1.63,-0.89 a 6.1,6.1 0 0 0 -0.36,-1.12 l -1.85,0.24 A 4.46,4.46 0 0 0 36.3,29.48 l 0.8,-1.69 a 6.13,6.13 0 0 0 -0.94,-0.72 l -1.36,1.3 A 4.43,4.43 0 0 0 33.95,28.1 L 33.6,26.25 a 6.28,6.28 0 0 0 -0.58,-0.03 c -0.2,0 -0.4,0.01 -0.58,0.03 l -0.36,1.85 a 4.42,4.42 0 0 0 -0.86,0.27 l -1.35,-1.3 a 6.13,6.13 0 0 0 -0.93,0.72 l 0.19,0.4 -2.39,-2 a 6.71,6.71 0 0 0 0.3,-1.47 l 3.04,-0.93 a 10.45,10.45 0 0 0 -0.22,-2.02 l -3.19,-0.22 a 7.65,7.65 0 0 0 -0.63,-1.38 l 1.92,-2.56 a 10.55,10.55 0 0 0 -1.34,-1.52 l -2.71,1.71 a 7.59,7.59 0 0 0 -1.34,-0.75 l 0.03,-3.23 a 10.77,10.77 0 0 0 -0.97,-0.24 c -0.32,-0.07 -0.66,-0.1 -0.98,-0.16 z m -1.35,6 a 4.54,4.54 0 0 1 0.03,0 4.54,4.54 0 0 1 1.1,0.09 4.5410929,4.5410929 0 1 1 -1.81,8.9 4.54,4.54 0 0 1 0.68,-8.98 z m 13.72,10.33 a 2.65,2.65 0 0 1 0,5.3 2.65,2.65 0 0 1 0,-5.3 z"
     id="path4"
     inkscape:connector-curvature="0" />
</svg>
