<?xml version="1.0" encoding="UTF-8" standalone="no"?><svg xmlns:dc="http://purl.org/dc/elements/1.1/" xmlns:cc="http://creativecommons.org/ns#" xmlns:rdf="http://www.w3.org/1999/02/22-rdf-syntax-ns#" xmlns="http://www.w3.org/2000/svg" width="48" height="48"><metadata><rdf:RDF><cc:Work><dc:format>image/svg+xml</dc:format><dc:type rdf:resource="http://purl.org/dc/dcmitype/StillImage"/><dc:title/></cc:Work></rdf:RDF></metadata><path d="M7.03-.14a2.41 2.41 0 0 0-2.4 2.41v43.46a2.46 2.46 0 0 0 2.4 2.4h33.94a2.41 2.41 0 0 0 2.4-2.4V2.27a2.41 2.41 0 0 0-2.4-2.4H7.09zm6.4 3.38h15.6v16.51l3.02-1.8 3 1.8V3.3h2.78c1.08 0 1.99.96 1.99 2.1v37.31c0 1.15-.9 2.05-2 2.05h-24.4V3.3z" fill="#e6e6e6"/></svg>