<?xml version="1.0" encoding="UTF-8" standalone="no"?>
<svg
   xmlns:dc="http://purl.org/dc/elements/1.1/"
   xmlns:cc="http://creativecommons.org/ns#"
   xmlns:rdf="http://www.w3.org/1999/02/22-rdf-syntax-ns#"
   xmlns:svg="http://www.w3.org/2000/svg"
   xmlns="http://www.w3.org/2000/svg"
   xmlns:sodipodi="http://sodipodi.sourceforge.net/DTD/sodipodi-0.dtd"
   xmlns:inkscape="http://www.inkscape.org/namespaces/inkscape"
   width="48"
   height="48"
   version="1.1"
   id="svg6"
   sodipodi:docname="application-pgp-signature.svg"
   inkscape:version="0.92.4 (5da689c313, 2019-01-14)">
  <defs
     id="defs10" />
  <sodipodi:namedview
     pagecolor="#ffffff"
     bordercolor="#666666"
     borderopacity="1"
     objecttolerance="10"
     gridtolerance="10"
     guidetolerance="10"
     inkscape:pageopacity="0"
     inkscape:pageshadow="2"
     inkscape:window-width="1087"
     inkscape:window-height="480"
     id="namedview8"
     showgrid="false"
     inkscape:zoom="4.9166667"
     inkscape:cx="2.1355932"
     inkscape:cy="24"
     inkscape:window-x="0"
     inkscape:window-y="25"
     inkscape:window-maximized="0"
     inkscape:current-layer="svg6" />
  <metadata
     id="metadata2">
    <rdf:RDF>
      <cc:Work>
        <dc:format>image/svg+xml</dc:format>
        <dc:type
           rdf:resource="http://purl.org/dc/dcmitype/StillImage" />
        <dc:title></dc:title>
      </cc:Work>
    </rdf:RDF>
  </metadata>
  <path
     style="line-height:normal;text-indent:0;text-align:start;text-decoration:none;text-decoration-line:none;text-transform:none;fill:#e6e6e6;marker:none"
     d="m 29.7,-0.08 c -2.04,0 -4.12,0.08 -4.51,0.1 H 7 a 2.94,2.94 0 0 0 -0.56,0 3.1,3.1 0 0 0 -2.44,3 V 45 c 0,1.57 1.43,3 3,3 h 34 c 1.57,0 3,-1.43 3,-3 V 18.82 c 0.02,-0.8 0.22,-9.93 -0.34,-10.5 l -9.6,-8.07 c -0.29,-0.28 -2.3,-0.34 -4.35,-0.33 z m 1.5,3.08 0.13,7.5 c 0.01,0.68 0.64,1.3 1.31,1.28 l 7.78,-0.13 c 0.13,0.01 0.26,0.01 0.4,-0.01 l 0.08,3.03 0.1,4.09 V 45 H 7 V 3.02 H 25.67 L 31.2,3.01 Z M 23.27,5.71 A 0.75,0.75 0 0 0 22.64,6.06 C 22.59,6.14 22.47,6.62 22.36,7.12 L 22.16,8.04 21.93,8 c -0.34,-0.05 -0.6,0.02 -0.79,0.24 -0.13,0.14 -0.28,0.8 -1.22,5.23 -0.6,2.79 -1.07,5.08 -1.05,5.1 0,0.03 0.87,0.23 1.9,0.45 l 1.89,0.4 0.7,-3.3 c 0.38,-1.82 0.72,-3.3 0.75,-3.3 0.09,0.02 0.7,1.02 0.83,1.38 0.08,0.19 0.16,0.55 0.2,0.8 0.05,0.46 0.05,0.49 -0.82,4.6 -0.48,2.26 -0.86,4.18 -0.86,4.25 0.02,0.18 0.22,0.44 0.41,0.55 0.33,0.2 0.86,0.06 1.04,-0.27 a 169,169 0 0 0 1.82,-8.79 c 0,-1.1 -0.45,-2.3 -1.25,-3.31 -0.31,-0.4 -0.65,-0.78 -0.93,-1.02 -0.08,-0.07 -0.06,-0.2 0.1,-0.97 0.15,-0.73 0.17,-0.92 0.11,-1.07 -0.12,-0.3 -0.3,-0.43 -0.7,-0.52 L 23.7,8.36 23.9,7.38 c 0.17,-0.8 0.19,-1 0.13,-1.15 A 0.82,0.82 0 0 0 23.27,5.71 Z m -4.75,14.4 -1.42,6.61 c -1.23,5.83 -1.4,6.68 -1.44,7.37 -0.09,1.37 0.04,3.34 0.32,5.07 0.18,1.1 0.12,1.02 0.41,0.64 0.9,-1.2 1.98,-2.98 2.53,-4.18 0.54,-1.16 0.6,-1.43 2.04,-8.2 l 1.38,-6.51 -1.9,-0.4 z m 11.67,2.4 -0.21,0.03 c -0.12,0.05 -0.01,0.26 -0.02,0.38 -0.03,0.78 -0.07,1.55 -0.08,2.32 a 80.7,80.7 0 0 1 -0.11,3.13 l -0.5,0.1 c -0.18,0.05 -0.33,0.2 -0.48,0.34 -0.45,0.42 -0.69,1 -0.92,1.56 l -0.35,-0.06 c -0.39,0 -0.2,0 -0.57,0.02 -0.02,0 -0.36,0 -0.32,0.16 0.02,0.06 0.1,0.06 0.15,0.07 l 0.45,0.1 0.53,0.1 a 4.58,4.58 0 0 0 -0.29,1.72 l 0.08,0.37 c 0.06,0.1 0.1,0.22 0.17,0.32 0.07,0.1 0.15,0.19 0.25,0.26 0.38,0.26 1.11,0.1 1.42,0 0.32,-0.1 0.47,-1.06 0.5,-1.16 l 0.13,-1.1 0.39,0.08 0.01,0.76 c 0,3.21 0.04,6.43 -0.15,9.63 a 0.47,0.47 0 0 0 -0.04,0.17 c -0.06,0.14 -0.13,0.3 -0.01,0.34 a 0.9,0.9 0 0 0 0.47,0.03 c 0.1,0 0.21,0 0.3,-0.03 0.05,-0.02 0.05,-0.07 0.04,-0.13 l 0.07,-0.04 c 0.18,-0.17 0.03,-0.5 0.07,-0.75 0.05,-0.34 0.11,-0.7 0.19,-1.03 0.23,-1.01 0.33,-1.22 0.68,-2.19 a 13.65,13.65 0 0 1 3.3,-4.35 c 0.36,-0.36 0.82,-0.62 1.23,-0.92 0.14,-0.1 0.37,-0.26 0.32,-0.35 -0.05,-0.1 -0.18,-0.14 -0.27,-0.2 -0.22,-0.04 -0.43,-0.09 -0.65,-0.12 l -2.3,-0.37 c -0.98,-0.16 -1.96,-0.36 -2.94,-0.56 l 0.01,-2.58 c 0.8,0.18 1.65,0.4 2.18,1.06 l 0.1,0.17 0.88,-0.03 C 33.27,28.88 32.16,28.63 31.17,28.4 l -0.43,-0.03 v -0.35 c 0,-1.8 -0.02,-3.6 0.12,-5.4 l -0.04,-0.01 a 0.06,0.06 0 0 0 -0.04,-0.06 0.6,0.6 0 0 0 -0.32,0 1.41,1.41 0 0 0 -0.27,-0.04 z m 0.15,5.13 0.01,0.38 v 0.32 h -0.07 v -0.1 z m -0.07,0.83 0.09,0.01 0.05,2.6 L 30.04,31 Z m -0.52,0.28 a 22.3,22.3 0 0 1 -0.26,2.15 c -0.32,-0.08 -0.64,-0.14 -0.97,-0.2 l 0.08,-0.28 c 0.22,-0.56 0.45,-1.13 0.92,-1.54 0.07,-0.06 0.15,-0.09 0.23,-0.13 z M 27.5,30.4 c 0.04,0 0.06,0.04 0.1,0.06 h 0.24 l -0.02,0.07 -0.26,-0.07 C 27.54,30.45 27.47,30.4 27.5,30.4 Z m 0.97,0.48 0.55,0.1 0.44,0.09 c -0.07,0.4 -0.15,0.79 -0.25,1.18 -0.1,0.25 -0.18,0.52 -0.31,0.76 -0.05,0.09 -0.2,0.14 -0.27,0.21 -0.11,-0.11 -0.2,-0.24 -0.28,-0.4 -0.02,-0.1 -0.06,-0.22 -0.07,-0.34 -0.03,-0.2 0,-0.52 0.02,-0.72 0.04,-0.3 0.1,-0.59 0.17,-0.88 z m 2.26,0.43 5.07,0.97 c 0.08,0.02 0.18,0.01 0.23,0.07 0.06,0.06 -0.1,0.2 -0.25,0.31 -0.38,0.31 -0.8,0.59 -1.14,0.95 A 13.97,13.97 0 0 0 31.46,38 l -0.38,1.08 c -0.15,0.48 -0.19,0.65 -0.24,0.85 -0.1,-2.64 -0.1,-5.27 -0.11,-7.9 v -0.7 z"
     id="path4"
     inkscape:connector-curvature="0" />
</svg>
