<svg xmlns="http://www.w3.org/2000/svg" width="48" height="48"><defs><linearGradient id="a"><stop offset="0" stop-color="#dc85e9"/><stop offset="1" stop-color="#f2cbf8"/></linearGradient><linearGradient id="b"><stop offset="0" stop-color="#dc85e9"/><stop offset="1" stop-color="#f2cbf8"/></linearGradient><linearGradient id="c"><stop offset="0" stop-color="#fff" stop-opacity=".588"/><stop offset="1" stop-color="#fff" stop-opacity=".863"/></linearGradient><linearGradient id="d"><stop offset="0" stop-color="#b3b3b3"/><stop offset="1" stop-color="#e6e6e6"/></linearGradient><linearGradient id="e"><stop offset="0" stop-color="#e694bb"/><stop offset=".262" stop-color="#d3819a"/><stop offset=".705" stop-color="#b25a64"/><stop offset="1" stop-color="#98313d"/></linearGradient></defs><path style="line-height:normal;text-indent:0;text-align:start;text-decoration-line:none;text-transform:none;marker:none" d="M32.938-.012c-.999.32-1.335 1.84-.565 2.555l9.035 9.082c.835.796 2.497.115 2.541-1.041V1.502c0-.793-.717-1.514-1.506-1.514h-9.035a1.548 1.548 0 0 0-.47 0zm-26.5.026C5.062.276 3.974 1.612 4 3.012V45c0 1.57 1.43 3 3 3h34c1.57 0 3-1.43 3-3V18.818a3.038 3.038 0 0 0-.844-2.156L27.344.857a3.038 3.038 0 0 0-2.157-.843H7a2.938 2.938 0 0 0-.563 0zm3.748 3.007H25.672l.187.188 14.907 15 .234.234v26.555H10.186V3.021zm1.654 4.82a.284.284 0 0 0-.283.286v13.596c0 .157.126.285.283.285h17.39a.286.286 0 0 0 .286-.285V8.127a.286.286 0 0 0-.286-.285H11.84zm1.424 1.708h14.545v10.19l-3.914-4.053a.116.116 0 0 0-.16-.006l-2.715 2.388-3.47-4.271a.116.116 0 0 0-.183.004l-4.103 5.506V9.549zm10.246 1.318a1.397 1.397 0 1 0 0 2.794 1.397 1.397 0 0 0 0-2.794zm-9.528 14.485c-1.13 0-2.04.058-2.04.13v1.57c0 .073.91.13 2.04.13H36.85c1.13 0 2.043-.057 2.043-.13v-1.57c0-.072-.912-.13-2.043-.13H13.982zm-.015 3.974c-1.131 0-2.043.059-2.043.131v1.568c0 .073.912.131 2.043.131h22.867c1.131 0 2.041-.058 2.041-.13v-1.569c0-.072-.91-.13-2.041-.13H13.967zm.039 3.86c-1.131 0-2.041.058-2.041.13v1.57c0 .073.91.132 2.04.132h22.868c1.131 0 2.043-.059 2.043-.131v-1.57c0-.073-.912-.131-2.043-.131H14.006z" color="#000" font-weight="400" font-family="Andale Mono" overflow="visible" fill="#e6e6e6"/></svg>