<?xml version="1.0" encoding="UTF-8" standalone="no"?>
<svg
   xmlns:dc="http://purl.org/dc/elements/1.1/"
   xmlns:cc="http://creativecommons.org/ns#"
   xmlns:rdf="http://www.w3.org/1999/02/22-rdf-syntax-ns#"
   xmlns:svg="http://www.w3.org/2000/svg"
   xmlns="http://www.w3.org/2000/svg"
   xmlns:sodipodi="http://sodipodi.sourceforge.net/DTD/sodipodi-0.dtd"
   xmlns:inkscape="http://www.inkscape.org/namespaces/inkscape"
   width="48"
   height="48"
   version="1.1"
   id="svg6"
   sodipodi:docname="text-x-vala.svg"
   inkscape:version="0.92.5 (2060ec1f9f, 2020-04-08)">
  <metadata
     id="metadata12">
    <rdf:RDF>
      <cc:Work
         rdf:about="">
        <dc:format>image/svg+xml</dc:format>
        <dc:type
           rdf:resource="http://purl.org/dc/dcmitype/StillImage" />
        <dc:title></dc:title>
      </cc:Work>
    </rdf:RDF>
  </metadata>
  <defs
     id="defs10" />
  <sodipodi:namedview
     pagecolor="#ffffff"
     bordercolor="#666666"
     borderopacity="1"
     objecttolerance="10"
     gridtolerance="10"
     guidetolerance="10"
     inkscape:pageopacity="0"
     inkscape:pageshadow="2"
     inkscape:window-width="1087"
     inkscape:window-height="480"
     id="namedview8"
     showgrid="false"
     inkscape:zoom="4.9166667"
     inkscape:cx="2.1355932"
     inkscape:cy="24"
     inkscape:window-x="0"
     inkscape:window-y="25"
     inkscape:window-maximized="0"
     inkscape:current-layer="svg6" />
  <path
     style="line-height:normal;text-indent:0;text-align:start;text-decoration:none;text-decoration-line:none;text-transform:none;fill:#e6e6e6;marker:none"
     d="m 29.705078,-0.08398437 c -2.047,0.008 -4.121578,0.08765624 -4.517578,0.09765625 H 7 a 2.938,2.938 0 0 0 -0.5625,0 C 5.0645,0.27567188 3.975,1.6117188 4,3.0117188 V 45 c 0,1.57 1.43,3 3,3 h 34 c 1.57,0 3,-1.43 3,-3 V 18.818359 c 0.018,-0.792 0.215062,-9.9270934 -0.335938,-10.4960934 L 34.054688,0.24804688 c -0.283001,-0.27500001 -2.30261,-0.34003125 -4.34961,-0.33203125 z m 1.490234,3.09374997 0.132813,7.5039064 c 0.012,0.68 0.637406,1.290297 1.316406,1.279297 l 7.771485,-0.136719 c 0.133,0.018 0.26839,0.01714 0.40039,-0.0059 l 0.08203,3.029297 L 41,18.769531 V 44.996094 H 7 V 3.0214844 H 25.671875 Z M 10,7 v 2 h 6 V 7 Z m 8,0 v 2 h 6 V 7 Z m -6,4 v 2 h 16 v -2 z m -2,4 v 2 h 14 v -2 z m 16,0 v 2 h 11 v -2 z m -16,4 v 2 h 7 v -2 z m 9,0 v 2 h 11 v -2 z m 13,0 v 2 h 4 v -2 z m -20,4 v 2 h 22 v -2 z m 0,4 v 2 h 17.599609 v -2 z m 20,0 v 2 h 4 v -2 z m -22,4 v 2 h 17 v -2 z m 20,0 v 2 h 6 v -2 z m -3.076172,3.236328 v 7.511719 h 1.728516 v -7.511719 z m -14.570312,0.304688 2.669922,7.207031 h 2.216796 l 2.669922,-7.207031 h -1.86914 l -1.90625,5.320312 -1.91211,-5.320312 z m 10.017578,1.662109 c -0.695,0.017 -1.398547,0.147203 -2.060547,0.283203 v 0.978516 c -0.102,0.732 0.927765,-0.267125 1.384765,-0.07813 0.693001,-0.081 1.949141,-0.10561 1.869141,0.90039 -0.868,0.014 -1.756797,-0.07102 -2.591797,0.208985 -0.928,0.233 -1.3355,1.315781 -1.0625,2.175781 0.425,1.448 2.59861,1.606906 3.47461,0.503906 0.313,-0.54 0.130687,0.344266 0.179687,0.572266 h 1.742188 v -3.083985 c 0.01,-0.77 -0.193875,-1.666312 -0.921875,-2.070312 -0.63,-0.312 -1.318672,-0.409625 -2.013672,-0.390625 z m 10.080078,0 c -0.695,0.017 -1.398547,0.147203 -2.060547,0.283203 v 0.978516 c -0.102,0.732 0.927766,-0.267125 1.384766,-0.07813 0.693,-0.081 1.94914,-0.10561 1.86914,0.90039 -0.867,0.014 -1.755797,-0.07102 -2.591797,0.208985 -0.928,0.233 -1.3355,1.315781 -1.0625,2.175781 0.425,1.448 2.59861,1.606906 3.47461,0.503906 0.313,-0.54 0.131687,0.344266 0.179687,0.572266 h 1.742188 v -3.083985 c 0.01,-0.77 -0.193875,-1.666312 -0.921875,-2.070312 -0.63,-0.312 -1.318672,-0.409625 -2.013672,-0.390625 z m -10.082031,3.076172 a 0.861,0.861 0 0 1 0.08594,0 0.861,0.861 0 0 1 0.210938,0.03516 h 0.898437 c 0.102,0.691 -0.412297,1.455828 -1.154297,1.423828 -1.124,0.081 -0.936953,-1.310219 -0.126953,-1.449219 a 0.861,0.861 0 0 1 0.08594,-0.0098 z m 10.080078,0 a 0.861,0.861 0 0 1 0.08594,0 0.861,0.861 0 0 1 0.210938,0.03516 h 0.898437 c 0.1,0.691 -0.412297,1.455828 -1.154297,1.423828 -1.124,0.081 -0.936953,-1.310219 -0.126953,-1.449219 a 0.861,0.861 0 0 1 0.08594,-0.0098 z"
     id="path2"
     inkscape:connector-curvature="0" />
</svg>
