<svg xmlns="http://www.w3.org/2000/svg" width="48" height="48"><defs><linearGradient id="a"><stop offset="0" stop-color="#dc85e9"/><stop offset="1" stop-color="#f2cbf8"/></linearGradient><linearGradient id="b"><stop offset="0" stop-color="#dc85e9"/><stop offset="1" stop-color="#f2cbf8"/></linearGradient><linearGradient id="c"><stop offset="0" stop-color="#fff" stop-opacity=".588"/><stop offset="1" stop-color="#fff" stop-opacity=".863"/></linearGradient><linearGradient id="d"><stop offset="0" stop-color="#b3b3b3"/><stop offset="1" stop-color="#e6e6e6"/></linearGradient><linearGradient id="e"><stop offset="0" stop-color="#e694bb"/><stop offset=".262" stop-color="#d3819a"/><stop offset=".705" stop-color="#b25a64"/><stop offset="1" stop-color="#98313d"/></linearGradient></defs><path style="line-height:normal;text-indent:0;text-align:start;text-decoration-line:none;text-transform:none;marker:none" d="M29.705-.084c-2.047.008-4.121.088-4.517.098H7a2.938 2.938 0 0 0-.563 0C5.063.276 3.975 1.612 4 3.012V45c0 1.57 1.43 3 3 3h34c1.57 0 3-1.43 3-3V18.818c.018-.792.215-9.927-.336-10.496L34.054.248c-.284-.275-2.302-.34-4.349-.332zm1.49 3.094l.133 7.504c.012.681.638 1.29 1.317 1.279l7.771-.137c.133.018.268.017.4-.006l.082 3.03L41 18.77v26.227H7V3.021h18.672l5.523-.011zM13.391 13.186a4.007 4.007 0 0 0-4.004 4.002v21.275a4.009 4.009 0 0 0 4.004 4.004h1.373a4.009 4.009 0 0 0 4.004-4.004V17.187a4.007 4.007 0 0 0-4.004-4.001H13.39zm11.78 0a4.007 4.007 0 0 0-4.003 4.002v1.373a4.009 4.009 0 0 0 4.004 4.003h9.494a4.009 4.009 0 0 0 4.004-4.003v-1.373a4.007 4.007 0 0 0-4.004-4.002h-9.494zm-11.78 2.287h1.373c.946 0 1.715.768 1.715 1.714v21.276c0 .946-.77 1.717-1.715 1.717H13.39c-.946 0-1.715-.771-1.715-1.717V17.187c0-.946.769-1.714 1.715-1.714zm11.78 0h9.495c.946 0 1.715.768 1.715 1.714v1.374c0 .946-.769 1.716-1.715 1.716h-9.494c-.946 0-1.715-.77-1.715-1.716v-1.373c0-.947.769-1.715 1.715-1.715zm0 9.55a4.009 4.009 0 0 0-4.003 4.004v9.436a4.009 4.009 0 0 0 4.004 4.004h9.494a4.009 4.009 0 0 0 4.004-4.004c0-.632-.513-1.143-1.145-1.143-.631 0-1.144.511-1.144 1.143 0 .946-.769 1.717-1.715 1.717h-9.494c-.946 0-1.715-.771-1.715-1.717v-9.436c0-.946.769-1.716 1.715-1.716h9.494c.946 0 1.715.77 1.715 1.716v3.717a1.145 1.145 0 0 0 2.289 0v-3.717a4.009 4.009 0 0 0-4.004-4.004h-9.494z" color="#000" font-weight="400" font-family="Andale Mono" overflow="visible" fill="#e6e6e6"/></svg>