<svg xmlns="http://www.w3.org/2000/svg" width="24" height="24"><path d="M10.07 3.92a5.52 5.65 0 0 0-5.53 5.64 5.52 5.65 0 0 0 5.53 5.65 5.52 5.65 0 0 0 5.52-5.65 5.52 5.65 0 0 0-5.52-5.64zM1.63 9.96a8.44 8.63 0 0 0 0 .05A8.44 8.63 0 0 0 9 18.56v5.33h2.16v-5.33a8.44 8.63 0 0 0 7.34-8.55 8.44 8.63 0 0 0 0-.05h-1.95a6.5 6.64 0 0 1 0 .05 6.5 6.64 0 0 1-6.5 6.64 6.5 6.64 0 0 1-6.49-6.64 6.5 6.64 0 0 1 0-.05H1.63zm18.3 8.8v5.32h2.86v-5.32h-2.86z" fill="gray" stroke-width="5.79"/><path fill="gray" fill-opacity=".3" stroke-width="2.98" d="M19.93 3.98h2.86v20.1h-2.86z"/></svg>