<?xml version="1.0" encoding="UTF-8" standalone="no"?>
<svg
   xmlns:dc="http://purl.org/dc/elements/1.1/"
   xmlns:cc="http://creativecommons.org/ns#"
   xmlns:rdf="http://www.w3.org/1999/02/22-rdf-syntax-ns#"
   xmlns:svg="http://www.w3.org/2000/svg"
   xmlns="http://www.w3.org/2000/svg"
   xmlns:sodipodi="http://sodipodi.sourceforge.net/DTD/sodipodi-0.dtd"
   xmlns:inkscape="http://www.inkscape.org/namespaces/inkscape"
   width="48"
   height="48"
   viewBox="0 0 12.7 12.7"
   version="1.1"
   id="svg4"
   sodipodi:docname="applications-language.svg"
   inkscape:version="0.92.4 (5da689c313, 2019-01-14)">
  <metadata
     id="metadata10">
    <rdf:RDF>
      <cc:Work
         rdf:about="">
        <dc:format>image/svg+xml</dc:format>
        <dc:type
           rdf:resource="http://purl.org/dc/dcmitype/StillImage" />
        <dc:title></dc:title>
      </cc:Work>
    </rdf:RDF>
  </metadata>
  <defs
     id="defs8" />
  <sodipodi:namedview
     pagecolor="#ffffff"
     bordercolor="#666666"
     borderopacity="1"
     objecttolerance="10"
     gridtolerance="10"
     guidetolerance="10"
     inkscape:pageopacity="0"
     inkscape:pageshadow="2"
     inkscape:window-width="1087"
     inkscape:window-height="480"
     id="namedview6"
     showgrid="false"
     inkscape:zoom="4.9166667"
     inkscape:cx="2.1355932"
     inkscape:cy="24"
     inkscape:window-x="0"
     inkscape:window-y="25"
     inkscape:window-maximized="0"
     inkscape:current-layer="svg4" />
  <path
     d="M 6.34,0.07 A 6.29,6.29 0 0 0 0.05,6.37 6.29,6.29 0 0 0 6.35,12.65 6.29,6.29 0 0 0 12.63,6.36 6.29,6.29 0 0 0 6.34,0.07 Z M 6.33,1.01 a 5.4,5.4 0 0 1 5.4,5.4 5.4,5.4 0 0 1 -5.4,5.41 A 5.4,5.4 0 0 1 0.92,6.42 5.4,5.4 0 0 1 6.32,1 Z M 6.35,1.32 5.88,1.34 5.58,2.84 A 3.6,3.6 0 0 0 4.89,3.07 L 3.8,2.02 C 3.52,2.18 3.28,2.39 3.04,2.6 L 3.69,3.97 A 3.63,3.63 0 0 0 3.26,4.56 L 1.76,4.36 A 4.96,4.96 0 0 0 1.46,5.27 L 2.79,6 A 3.47,3.47 0 0 0 2.77,6.36 c 0,0.13 0,0.24 0.02,0.36 L 1.47,7.44 c 0.07,0.32 0.16,0.62 0.29,0.92 l 1.5,-0.2 c 0.13,0.2 0.27,0.4 0.43,0.58 l -0.65,1.37 c 0.24,0.21 0.48,0.42 0.76,0.58 L 4.9,9.64 c 0.22,0.1 0.46,0.17 0.7,0.22 l 0.29,1.5 a 5.11,5.11 0 0 0 0.94,0 l 0.3,-1.5 C 7.36,9.81 7.6,9.74 7.82,9.64 l 1.1,1.05 C 9.2,10.53 9.44,10.32 9.68,10.11 L 9.03,8.74 C 9.19,8.56 9.33,8.36 9.46,8.16 l 1.5,0.2 a 4.96,4.96 0 0 0 0.3,-0.92 L 9.91,6.7 A 3.5,3.5 0 0 0 9.93,6.34 L 9.91,5.98 11.23,5.26 A 4.96,4.96 0 0 0 10.94,4.34 l -1.5,0.2 A 3.63,3.63 0 0 0 9.01,3.96 L 9.66,2.59 A 4.99,4.99 0 0 0 8.9,2.01 L 7.8,3.07 A 3.6,3.6 0 0 0 7.1,2.85 L 6.81,1.35 A 5.11,5.11 0 0 0 6.34,1.32 Z m 0.03,2 A 3.03,3.03 0 0 1 9.41,6.35 3.03,3.03 0 0 1 6.38,9.37 3.03,3.03 0 0 1 3.35,6.35 3.03,3.03 0 0 1 6.38,3.32 Z M 6.16,3.54 A 2.81,2.81 0 0 0 3.54,6.16 V 6.54 A 2.81,2.81 0 0 0 6.16,9.15 H 6.54 A 2.81,2.81 0 0 0 9.16,6.54 V 6.16 A 2.81,2.81 0 0 0 6.54,3.54 Z m 0,0.4 v 1.1 H 5.24 c 0.2,-0.59 0.54,-1 0.92,-1.1 z m 0.38,0 c 0.38,0.1 0.72,0.51 0.92,1.1 H 6.54 Z M 5.3,4.15 C 5.12,4.39 4.97,4.69 4.86,5.04 H 4.3 c 0.24,-0.38 0.59,-0.7 1,-0.89 z m 2.1,0 c 0.41,0.2 0.76,0.5 1,0.89 H 7.84 A 2.97,2.97 0 0 0 7.4,4.15 Z M 4.1,5.41 H 4.76 C 4.71,5.65 4.68,5.91 4.66,6.16 H 3.92 C 3.94,5.9 4,5.65 4.1,5.41 Z m 1.04,0 H 6.16 V 6.16 H 5.04 C 5.05,5.9 5.09,5.65 5.14,5.41 Z m 1.4,0 H 7.56 C 7.61,5.65 7.65,5.9 7.66,6.16 H 6.54 Z m 1.4,0 H 8.6 C 8.7,5.65 8.76,5.9 8.78,6.16 H 8.03 A 4.45,4.45 0 0 0 7.94,5.41 Z M 3.92,6.54 h 0.75 c 0,0.26 0.04,0.51 0.09,0.75 H 4.1 A 2.42,2.42 0 0 1 3.92,6.54 Z m 1.12,0 H 6.16 V 7.29 H 5.14 A 4.19,4.19 0 0 1 5.04,6.54 Z m 1.5,0 H 7.66 A 4.1,4.1 0 0 1 7.56,7.29 H 6.54 Z m 1.5,0 H 8.78 C 8.76,6.8 8.7,7.05 8.6,7.29 H 7.94 C 7.99,7.05 8.02,6.79 8.04,6.54 Z M 4.28,7.66 h 0.57 c 0.1,0.35 0.26,0.65 0.44,0.89 a 2.45,2.45 0 0 1 -1,-0.89 z m 0.95,0 h 0.92 v 1.1 C 5.77,8.66 5.44,8.25 5.23,7.66 Z m 1.3,0 h 0.92 c -0.2,0.59 -0.54,1 -0.92,1.1 z m 1.3,0 h 0.56 a 2.45,2.45 0 0 1 -1,0.89 C 7.57,8.31 7.72,8.01 7.83,7.66 Z"
     id="path2"
     inkscape:connector-curvature="0"
     style="fill:#2c89a0" />
</svg>
