<svg xmlns="http://www.w3.org/2000/svg" width="48" height="48" viewBox="0 0 12.7 12.7"><g fill="#963996"><path d="M6.344.07A6.29 6.29 0 0 0 .055 6.36a6.29 6.29 0 0 0 6.29 6.288 6.29 6.29 0 0 0 6.288-6.289A6.29 6.29 0 0 0 6.345.07zm-.018.936a5.407 5.407 0 0 1 5.407 5.407 5.407 5.407 0 0 1-5.407 5.407A5.407 5.407 0 0 1 .92 6.413a5.407 5.407 0 0 1 5.407-5.407z"/><path d="M3.619 3.304a.417.417 0 0 0-.418.418v.203c0 .231.186.418.418.418h5.466a.418.418 0 0 0 .419-.418v-.203a.418.418 0 0 0-.419-.418H3.62zm0 1.749a.417.417 0 0 0-.418.418v.202c0 .232.186.418.418.418h5.466a.418.418 0 0 0 .419-.418v-.202a.418.418 0 0 0-.419-.418H3.62zm0 1.749a.417.417 0 0 0-.418.418v.203c0 .231.186.418.418.418h5.466a.418.418 0 0 0 .419-.418V7.22a.418.418 0 0 0-.419-.418H3.62zm0 1.749a.417.417 0 0 0-.418.418v.202c0 .232.186.418.418.418h5.466a.418.418 0 0 0 .419-.418V8.97a.418.418 0 0 0-.419-.418H3.62z"/></g></svg>
