<?xml version="1.0" encoding="UTF-8" standalone="no"?>
<svg
   xmlns:dc="http://purl.org/dc/elements/1.1/"
   xmlns:cc="http://creativecommons.org/ns#"
   xmlns:rdf="http://www.w3.org/1999/02/22-rdf-syntax-ns#"
   xmlns:svg="http://www.w3.org/2000/svg"
   xmlns="http://www.w3.org/2000/svg"
   xmlns:sodipodi="http://sodipodi.sourceforge.net/DTD/sodipodi-0.dtd"
   xmlns:inkscape="http://www.inkscape.org/namespaces/inkscape"
   width="48"
   height="48"
   viewBox="0 0 12.7 12.7"
   version="1.1"
   id="svg4"
   sodipodi:docname="gnome-fs-web.svg"
   inkscape:version="0.92.4 (5da689c313, 2019-01-14)">
  <metadata
     id="metadata10">
    <rdf:RDF>
      <cc:Work
         rdf:about="">
        <dc:format>image/svg+xml</dc:format>
        <dc:type
           rdf:resource="http://purl.org/dc/dcmitype/StillImage" />
        <dc:title></dc:title>
      </cc:Work>
    </rdf:RDF>
  </metadata>
  <defs
     id="defs8" />
  <sodipodi:namedview
     pagecolor="#ffffff"
     bordercolor="#666666"
     borderopacity="1"
     objecttolerance="10"
     gridtolerance="10"
     guidetolerance="10"
     inkscape:pageopacity="0"
     inkscape:pageshadow="2"
     inkscape:window-width="1085"
     inkscape:window-height="480"
     id="namedview6"
     showgrid="false"
     inkscape:zoom="4.9166667"
     inkscape:cx="2.1355932"
     inkscape:cy="24"
     inkscape:window-x="0"
     inkscape:window-y="25"
     inkscape:window-maximized="0"
     inkscape:current-layer="svg4" />
  <path
     d="m 6.344,0.073 a 6.29,6.29 0 0 0 -6.29,6.29 6.29,6.29 0 0 0 6.29,6.288 6.29,6.29 0 0 0 6.29,-6.289 6.29,6.29 0 0 0 -6.29,-6.29 z M 6.326,1.009 a 5.407,5.407 0 0 1 5.407,5.407 5.407,5.407 0 0 1 -1.12,3.285 H 8.27 A 0.309,0.309 0 0 0 7.963,9.411 H 6.926 A 0.303,0.303 0 0 0 6.986,9.236 V 8.676 A 3.378,3.378 0 0 0 9.192,7.236 C 9.5760003,6.687 9.8030003,6.021 9.8030003,5.301 9.8030003,3.424 8.269,1.901 6.379,1.901 c -1.89,0 -3.424,1.523 -3.424,3.399 0,1.061 0.491,2.009 1.259,2.632 a 3.36,3.36 0 0 0 1.623,0.75 v 0.553 c 0,0.066 0.025,0.124 0.06,0.174 H 4.887 A 0.309,0.309 0 0 0 4.579,9.7 H 2.037 A 5.407,5.407 0 0 1 0.91900003,6.416 5.407,5.407 0 0 1 6.326,1.01 Z M 6.481,2.053 C 6.81,2.061 7.126,2.117 7.424,2.215 l 0.21,0.154 0.063,-0.051 c 0.95,0.409 1.666,1.25 1.8990003,2.272 A 4.506,4.506 0 0 0 9.365,4.434 L 9.125,4.459 8.905,4.284 v 0.217 l 0.189,0.1 0.125,0.1 0.166,-0.133 0.1260003,0.166 V 4.9 L 9.323,5.05 8.978,5.217 8.728,5.393 C 8.849,5.387 8.97,5.378 9.094,5.367 V 5.484 L 8.844,5.916 8.614,6.1 8.425,6.384 V 6.85 L 8.488,7.033 8.384,7.116 8.154,7.216 7.914,7.358 8.113,7.516 7.841,7.683 7.894,7.791 7.486,8.116 h -0.27 l -0.23,0.1 H 6.839 V 8.083 L 6.777,7.816 C 6.697,7.648 6.612,7.482 6.527,7.316 6.527,7.194 6.537,7.073 6.547,6.95 L 6.652,6.784 6.506,6.584 6.516,6.308 6.318,6.15 6.418,5.921 6.255,5.791 H 5.974 L 5.88,5.717 5.598,5.842 5.483,5.751 5.223,5.909 4.691,5.484 4.481,5.134 4.669,4.934 4.566,4.851 4.795,4.467 C 4.983,4.302 5.179,4.144 5.378,3.985 L 5.734,3.918 6.13,3.885 6.402,3.935 6.788,4.209 6.923,4.101 7.111,4.085 7.466,4.168 H 7.738 L 7.925,4.051 8.009,3.968 7.82,3.885 7.508,3.868 C 7.421,3.783 7.34,3.694 7.236,3.618 L 7.132,3.651 7.09,3.868 6.902,3.718 6.861,3.552 6.652,3.435 H 6.57 L 6.778,3.602 6.695,3.752 6.528,3.785 6.632,3.635 6.444,3.568 6.277,3.435 5.964,3.485 5.923,3.552 5.735,3.635 5.631,3.818 5.37,3.91 5.255,3.818 H 5.13 v -0.3 l 0.271,-0.1 H 5.609 L 5.568,3.302 5.401,3.185 5.683,3.143 5.839,3.018 5.964,2.868 h 0.23 L 6.131,2.752 6.277,2.686 V 2.819 L 6.59,2.869 6.903,2.686 6.924,2.602 7.195,2.469 C 7.097,2.478 6.999,2.484 6.903,2.502 V 2.352 L 7.007,2.185 H 6.903 L 6.674,2.335 6.611,2.419 6.674,2.536 6.57,2.736 6.403,2.669 6.256,2.552 6.027,2.669 5.943,2.402 6.34,2.219 v -0.1 L 6.482,2.053 Z m 1.465,2.315 -0.063,0.05 0.094,0.241 0.177,0.142 c 0.101,0.206 0.201,0.402 0.334,0.6 0.075,0 0.147,-0.004 0.22,-0.008 L 8.55,5.267 8.635,5.117 8.467,4.984 8.187,4.559 7.946,4.369 Z m -5.281,6.018 h 1.91 v 0.006 c 0,0.173 0.139,0.312 0.312,0.312 h 3.076 c 0.172,0 0.311,-0.14 0.311,-0.312 V 10.386 H 9.9900003 A 5.407,5.407 0 0 1 6.326,11.823 5.407,5.407 0 0 1 2.665,10.386 Z"
     id="path2"
     inkscape:connector-curvature="0"
     style="fill:#963996" />
</svg>
