<svg xmlns="http://www.w3.org/2000/svg" width="48" height="48" viewBox="0 0 12.7 12.7"><path d="M4.2 4.7v5.59c1.44 1.03 3.1.72 4.3-.02V4.7H6.8v1.13h.86L5.92 9.2V6.73h-.87L6.1 4.7z" fill="teal"/><path d="M4.2 4.7h1.9l.69-1.32V4.7H8.5V2.5a4.83 4.83 0 0 0-2.1-.57 4.49 4.49 0 0 0-2.2.56z" opacity=".5" fill="#1a1a1a"/><path d="M6.35 1.35a5 5 0 0 0-5 5 5 5 0 0 0 5 5 5 5 0 0 0 5-5 5 5 0 0 0-5-5zm-.01.75a4.3 4.3 0 0 1 4.3 4.3 4.3 4.3 0 0 1-4.3 4.29 4.3 4.3 0 0 1-4.3-4.3 4.3 4.3 0 0 1 4.3-4.3z" fill="teal"/></svg>