<svg xmlns="http://www.w3.org/2000/svg" height="24" width="24"><path d="M22.1 4.96H1.9v14.06l20.2.02zM11.03 7.97h2v2.01h-2zm0 3.02h2V13h-2zM8 7.97h2.01v2.01h-2zm0 3.02h2.01V13h-2zM7 13H5v-2.01h2zm0-3.02H5v-2h2zm9.04 7.04H8.01v-2.01h8.04zm0-4.02h-2v-2.01h2zm0-3.02h-2v-2h2zM19.07 13h-2.01v-2.01h2.01zm0-3.02h-2.01v-2h2.01z" fill="#1a1a1a" fill-opacity=".3"/><path d="M1.9 4.96v14.06l20.2.02L16.05 13h-2v-2.01l-1.01-1h-2.01V7.96l-3-2.99zM5 7.97h2v2.01H5zm3.01 0h2.01v2.01h-2zM5 11h2v2H5zm3.01 0h2.01v2h-2zm3.02 0h2v2h-2zM8 15.01h8.04v2.01H8.01z" fill="#1a1a1a"/></svg>