<svg xmlns="http://www.w3.org/2000/svg" width="24" height="24" id="svg11"><defs id="defs3"><style id="current-color-scheme"/></defs><path d="M12 2.422a9.58 9.58 0 0 0-9.58 9.58A9.58 9.58 0 0 0 12 21.58a9.58 9.58 0 0 0 9.58-9.578A9.58 9.58 0 0 0 12 2.42zm-.027 1.426a8.235 8.235 0 0 1 8.235 8.235 8.235 8.235 0 0 1-8.235 8.235 8.235 8.235 0 0 1-8.234-8.235 8.235 8.235 0 0 1 8.234-8.234zm0 1.613a6.519 6.519 0 0 0-4.227 1.552c-.489.472.798 1.552 1.234 1.101a4.865 4.865 0 0 1 2.993-1.02 4.889 4.889 0 0 1 4.902 4.9 4.889 4.889 0 0 1-4.902 4.902 4.874 4.874 0 0 1-3.465-1.435 4.894 4.894 0 0 1-1.211-1.995h1.858L6.52 10.402l-2.632 3.062h1.72a6.538 6.538 0 0 0 6.366 5.066 6.55 6.55 0 0 0 6.534-6.535 6.548 6.548 0 0 0-6.534-6.534z" id="path2-36-3" fill="#1a1a1a" stroke-width="1.523"/></svg>