<svg xmlns="http://www.w3.org/2000/svg" width="24" height="24"><path style="line-height:normal;font-variant-ligatures:normal;font-variant-position:normal;font-variant-caps:normal;font-variant-numeric:normal;font-variant-alternates:normal;font-feature-settings:normal;text-indent:0;text-align:start;text-decoration-line:none;text-decoration-style:solid;text-decoration-color:#000;text-transform:none;text-orientation:mixed;shape-padding:0;isolation:auto;mix-blend-mode:normal" d="M12.615 2.812a1.685 1.685 0 0 0-1.336.602.563.563 0 0 0 .861.722.557.557 0 0 1 .684-.14.556.556 0 0 1 .293.632.557.557 0 0 1-.547.434.562.562 0 0 0-.008 0H4.687a.563.563 0 1 0 0 1.125h7.875a.562.562 0 0 0 .008 0h.004a.562.562 0 0 0 .182-.031 1.678 1.678 0 0 0 1.457-1.268 1.69 1.69 0 0 0-1.43-2.062 1.685 1.685 0 0 0-.168-.014zm5.478 2a2.808 2.808 0 0 0-.015.002 2.803 2.803 0 0 0-2.043 1 .563.563 0 1 0 .861.725 1.682 1.682 0 0 1 2.05-.422 1.68 1.68 0 0 1 .882 1.896 1.682 1.682 0 0 1-1.64 1.299h-7.876a.563.563 0 1 0 0 1.125h7.875a.562.562 0 0 0 .112-.01 2.815 2.815 0 0 0 2.627-2.156 2.817 2.817 0 0 0-1.475-3.16 2.808 2.808 0 0 0-1.358-.299zm-14.53 4.5a.563.563 0 1 0 0 1.125h4.5a.563.563 0 0 0 0-1.125zm1.07 4.25v.002a.563.563 0 0 0 .054 1.125h12.375a.562.562 0 0 0 .008 0c.264 0 .487.173.549.43a.558.558 0 0 1-.295.632.557.557 0 0 1-.684-.14.562.562 0 1 0-.861.723 1.686 1.686 0 0 0 2.05.425 1.695 1.695 0 0 0 .884-1.9 1.675 1.675 0 0 0-1.455-1.264.562.562 0 0 0-.196-.033H4.687a.562.562 0 0 0-.054 0zm2.304 4.25a.563.563 0 1 0 0 1.125l5.625.002a.562.562 0 0 0 .008 0c.264 0 .487.173.549.43a.558.558 0 0 1-.295.632.557.557 0 0 1-.684-.14.562.562 0 1 0-.861.723 1.686 1.686 0 0 0 2.05.425 1.694 1.694 0 0 0 .884-1.9 1.675 1.675 0 0 0-1.455-1.264.562.562 0 0 0-.196-.031z" color="#000" font-weight="400" font-family="sans-serif" white-space="normal" overflow="visible" fill="#1a1a1a"/></svg>