<svg xmlns="http://www.w3.org/2000/svg" width="24" height="24"><path d="M12 .967a6 6 0 0 0-6 6 6 6 0 0 0 .004.129A4 4 0 0 0 3 10.966a4 4 0 0 0 4 4h9a5 5 0 0 0 5-5 5 5 0 0 0-3.242-4.675A6 6 0 0 0 12 .967zm0 1a5 5 0 0 1 4.92 4.111A4 4 0 0 1 20 9.967a4 4 0 0 1-4 4H7a3 3 0 0 1-3-3 3 3 0 0 1 3-3 3 3 0 0 1 .107.006A5 5 0 0 1 7 6.967a5 5 0 0 1 5-5zM6 16a1 1 0 0 0-1 1 1 1 0 0 0 1 1 1 1 0 0 0 1-1 1 1 0 0 0-1-1zm4 0a1 1 0 0 0-1 1 1 1 0 0 0 1 1 1 1 0 0 0 1-1 1 1 0 0 0-1-1zm3.418 0a.418.418 0 0 0-.418.418v2.164c0 .231.187.418.418.418h.164a.418.418 0 0 0 .418-.418v-2.164a.418.418 0 0 0-.418-.418h-.164zm4 0a.418.418 0 0 0-.418.418v2.164c0 .231.187.418.418.418h.164a.418.418 0 0 0 .418-.418v-2.164a.418.418 0 0 0-.418-.418h-.164zM8 20a1 1 0 0 0-1 1 1 1 0 0 0 1 1 1 1 0 0 0 1-1 1 1 0 0 0-1-1zm3.418 0a.418.418 0 0 0-.418.418v2.164c0 .231.187.418.418.418h.164a.418.418 0 0 0 .418-.418v-2.164a.418.418 0 0 0-.418-.418h-.164zm4 0a.418.418 0 0 0-.418.418v2.164c0 .231.187.418.418.418h.164a.418.418 0 0 0 .418-.418v-2.164a.418.418 0 0 0-.418-.418h-.164z" fill="#1a1a1a"/></svg>