<svg xmlns="http://www.w3.org/2000/svg" width="48" height="48" viewBox="0 0 12.7 12.7"><g fill="#5beedc"><path d="M6.344.07a6.29 6.29 0 0 0-6.29 6.29 6.29 6.29 0 0 0 6.29 6.288 6.29 6.29 0 0 0 6.29-6.289A6.29 6.29 0 0 0 6.343.07zm-.018.936a5.407 5.407 0 0 1 5.407 5.407 5.407 5.407 0 0 1-5.407 5.407A5.407 5.407 0 0 1 .92 6.413a5.407 5.407 0 0 1 5.407-5.407z"/><path d="M4.003 2.43a.24.24 0 0 0-.082.012c-.278.703-.102 1.22-.05 1.35a1.971 1.971 0 0 0-.525 1.368c0 1.954 1.19 2.392 2.323 2.52-.146.128-.278.352-.324.681-.29.131-1.03.356-1.484-.423 0 0-.27-.49-.781-.525 0 0-.498-.003-.035.31 0 0 .335.156.567.745 0 0 .298.992 1.717.684.002.425.007.746.007.867 0 .117-.07.25-.253.254h3.042c-.191.002-.261-.134-.261-.254 0-.167.006-.717.006-1.398 0-.476-.163-.787-.346-.945C8.66 7.55 9.852 7.12 9.852 5.16c0-.557-.198-1.012-.524-1.368.052-.13.227-.647-.05-1.35 0 0-.428-.137-1.402.523a4.86 4.86 0 0 0-2.553 0c-.73-.495-1.154-.541-1.32-.534z"/></g></svg>
