<svg xmlns="http://www.w3.org/2000/svg" width="48" height="48" viewBox="0 0 12.7 12.7"><path d="M6.35.06a6.29 6.29 0 0 0-6.29 6.3 6.29 6.29 0 0 0 6.29 6.28 6.29 6.29 0 0 0 6.29-6.29A6.29 6.29 0 0 0 6.35.06zM6.33 1a5.4 5.4 0 0 1 5.4 5.4 5.4 5.4 0 0 1-5.4 5.41 5.4 5.4 0 0 1-5.4-5.4A5.4 5.4 0 0 1 6.33 1zm-.8.97c-.45 0-2.82 2.6-2.82 2.86v4.82H10l-.02-4.8c0-.26-2.34-2.88-2.77-2.88H5.53zm3.22 2.38l.6 1.25L7.87 7.6H7.8l2.05 1.9-2.35-1.9H5.46L2.84 9.51l2.21-1.83-2.23-2.8v-.01l1.48 1.6-.56-.68 5.02-1.44z" fill="#5beedc"/></svg>
