<svg xmlns="http://www.w3.org/2000/svg" width="48" height="48" viewBox="0 0 12.7 12.7"><path d="M5.9.07V.1A6.25 6.25 0 0 0 .06 5.9H.06v.83h.01a6.25 6.25 0 0 0 5.83 5.82v.02h.83v-.02a6.25 6.25 0 0 0 5.82-5.82h.01v-.83h-.01A6.25 6.25 0 0 0 6.73.09V.07H6.3zm0 .89v2.45H3.84C4.3 2.1 5.04 1.19 5.89.96zm.83 0c.85.23 1.6 1.15 2.04 2.45H6.73zm-2.76.48c-.4.53-.74 1.2-.98 1.97H1.74a5.45 5.45 0 0 1 2.23-1.97zm4.68 0a5.45 5.45 0 0 1 2.23 1.97H9.63a6.59 6.59 0 0 0-.98-1.97zM1.3 4.24h1.46a9.9 9.9 0 0 0-.2 1.67H.9a5.37 5.37 0 0 1 .4-1.67zm2.3 0H5.9v1.67H3.4a9.32 9.32 0 0 1 .22-1.67zm3.12 0H9c.12.52.2 1.08.22 1.67h-2.5zm3.12 0h1.47c.21.52.35 1.08.4 1.67h-1.67a9.9 9.9 0 0 0-.2-1.67zM.91 6.74h1.66c.02.58.1 1.14.2 1.67H1.31a5.37 5.37 0 0 1-.4-1.67zm2.5 0h2.48v1.67H3.62a9.32 9.32 0 0 1-.22-1.67zm3.32 0h2.5A9.24 9.24 0 0 1 9 8.41H6.73zm3.32 0h1.66a5.35 5.35 0 0 1-.4 1.67H9.86a9.9 9.9 0 0 0 .2-1.67zm-8.3 2.5h1.24c.25.77.58 1.44.98 1.98a5.45 5.45 0 0 1-2.23-1.98zm2.1 0H5.9v2.45c-.86-.23-1.6-1.15-2.05-2.45zm2.88 0h2.04c-.45 1.3-1.19 2.22-2.04 2.45zm2.9 0h1.25a5.45 5.45 0 0 1-2.23 1.97c.4-.53.74-1.2.98-1.97z" font-weight="400" overflow="visible" style="line-height:normal;text-indent:0;text-align:start;text-decoration-line:none;text-transform:none;marker:none" color="#000" font-family="Andale Mono" fill="#5beedc"/></svg>
