<svg xmlns="http://www.w3.org/2000/svg" width="24" height="24" version="1"><path d="M12 .16A11.84 11.84 0 0 0 .16 12 11.84 11.84 0 0 0 12 23.84 11.84 11.84 0 0 0 23.84 12 11.84 11.84 0 0 0 12 .16zm-.11 1.76L3.1 17.09a10.18 10.18 0 0 1-1.32-4.99 10.18 10.18 0 0 1 10.1-10.18zm.16 0a10.18 10.18 0 0 1 10.1 10.18 10.18 10.18 0 0 1-1.32 5L12.05 1.92zm-.25 2.71a.9.9 0 0 1 .4.02c.56.13.83.75.73 1.27-.2 2.2-.46 4.4-.62 6.6h-.64c-.2-2.3-.47-4.57-.7-6.85l.01-.22a.99.99 0 0 1 .82-.82zm.13 9.28a1.05 1.05 0 0 1 .33 2.06c-.64.21-1.39-.33-1.36-1a1.04 1.04 0 0 1 .4-.82.94.94 0 0 1 .63-.24zm-8.69 3.42h17.45a10.18 10.18 0 0 1-8.72 4.96 10.18 10.18 0 0 1-8.73-4.96z" fill="#ff7f2a"/></svg>