<svg xmlns="http://www.w3.org/2000/svg" version="1" viewBox="0 0 24 24"><path fill="#1a1a1a" d="M3.61 1.01a1.53 1.53 0 0 0-1.53 1.53v18.4c0 .85.68 1.54 1.53 1.54h9.2v-1.55l-7.67.01V2.54h13.04c.42 0 .76.35.76.77v9.96h1.54V2.54a1.53 1.53 0 0 0-1.54-1.53zm8.42 6.14a2.27 2.27 0 0 0-1.9.96c-.41.76-.07 1.65-.33 2.45-.16.57 0 1.18.41 1.59.36.45.8 1.03.55 1.63-.35.68-1.05 1.08-1.69 1.44a2.6 2.6 0 0 0-.57.32c-.16.05-.29.17-.29.35v1.6c0 .22.17.39.39.39h4.19a1.56 1.56 0 0 1 1.55-1.56h1.51v-.8c-.85-.46-1.8-.91-2.27-1.8-.16-.71.34-1.33.78-1.82.43-.55.26-1.27.1-1.89-.06-.67.16-1.48-.34-2.03a3.18 3.18 0 0 0-2.1-.83zm5.38 7.68v3.06h-3.07v3.04l3.07.02v3.06h3.07v-3.06h3.06v-3.06h-3.06v-3.06z" color="#000" overflow="visible" style="isolation:auto;mix-blend-mode:normal"/></svg>