<svg xmlns="http://www.w3.org/2000/svg" viewBox="0 0 24 24"><path fill="#333" d="M5.216.61a.093.093 0 0 0-.094.094v3.812c0 .052.042.094.094.094h11.812a.093.093 0 0 0 .094-.094V.704a.093.093 0 0 0-.094-.094zm-4 5.102a.093.093 0 0 0-.094.093v8.711c0 .052.042.094.094.094H5.23v-.563h9.086a2.985 2.97 0 0 1 2.926-2.388 2.985 2.97 0 0 1 2.983 2.951h.871a.093.093 0 0 0 .094-.094v-8.71a.093.093 0 0 0-.094-.094zm19.01 8.898h-3.09v2.982a2.985 2.97 0 0 0 .106.005 2.985 2.97 0 0 0 2.984-2.969 2.985 2.97 0 0 0 0-.018zm-3.09 2.982a2.985 2.97 0 0 1-2.879-2.963 2.985 2.97 0 0 1 .001-.019H5.23v3.964h11.906zm-2.878-2.982h2.878v-.563h-2.82a2.985 2.97 0 0 0-.058.563zm3.462-7.576a1.386 1.386 0 0 1 1.386 1.385 1.386 1.386 0 0 1-1.386 1.386 1.386 1.386 0 0 1-1.385-1.386 1.386 1.386 0 0 1 1.385-1.385z" paint-order="markers fill stroke"/><path fill="none" stroke="#333" stroke-linecap="square" stroke-miterlimit="1.5" stroke-width="1.516" d="M18.826 17.272l.089-.05 2.958 5.22-.088.05z" paint-order="markers fill stroke"/></svg>