<svg xmlns="http://www.w3.org/2000/svg" width="24" height="24"><defs><style id="current-color-scheme"></style></defs><path d="M15 4v1.55l-1.12.08c-1.27.13-2.66.33-3.88.73V6H6v4h.13a20.1 20.1 0 0 0-1.17 4.4l-.08.6H4v4.01h4v-1.55c.36-.02.72-.04 1.12-.08 1.27-.12 2.66-.33 3.88-.73V17h4v-4h-.13c.57-1.35.92-2.93 1.17-4.39l.08-.6H19V4h-4zm0 2.55v1.46h2.11l-.06.45a18.4 18.4 0 0 1-1.3 4.55H13v2.55c-1.16.43-2.63.7-3.98.82-.36.04-.69.06-1.02.08V15H5.89l.06-.45c.26-1.57.7-3.25 1.3-4.55H10V7.45c1.16-.42 2.63-.7 3.98-.82.36-.04.69-.06 1.02-.08z" fill="currentColor" color="#1a1a1a"/></svg>
