<svg xmlns="http://www.w3.org/2000/svg" version="1" viewBox="0 0 24 24"><path fill="#1a1a1a" d="M1.92.6C1.16.6.55 1.2.55 1.95v2.29l.01.1v6.68H.55v2.14c0 .76.6 1.37 1.37 1.37h3.62v5.4h-.02v2.14c0 .46.27.81.62 1.06l9.54-9.54H8.16v2.03c0 .38-.25.7-.57.7-.32 0-.58-.32-.58-.7v-2.37l.02-.1-.02-.08c0-.26.2-.47.46-.5.02 0 .04-.03.07-.03h16v-1.54h-4.98V2.12H8.65L7.1.59H1.92zm.6 2.92h14.02c.37 0 .67.3.67.66v.6H2.9l-.05.01a.5.5 0 0 0-.44.51l.02.08-.01.1v2.37c0 .39.23.7.53.7.3 0 .55-.31.55-.7V5.83h13.7v5.19h-3.59L12.1 9.49H6.9c-.75 0-1.36.62-1.36 1.38v2.22h-3a.66.66 0 0 1-.67-.66V4.18c0-.36.3-.66.67-.66zM23.54 13.6h-4.67l-9.85 9.85h4.73l9.79-9.8v-.05zm0 3.18l-6.67 6.67h5.3c.76 0 1.37-.61 1.37-1.37v-5.3z"/></svg>