<svg xmlns="http://www.w3.org/2000/svg" width="24" height="24" version="1"><path d="M11.915 4.146L2.822 19.854h18.356zm.043 2.773a.93.93 0 0 1 .237.035c.565.13.84.768.739 1.304-.198 2.263-.47 4.516-.64 6.782h-.656c-.205-2.36-.478-4.695-.719-7.045 0-.074.006-.148.018-.221.056-.434.421-.768.837-.84v-.002a.93.93 0 0 1 .184-.013zm-.087 9.546a.969.969 0 0 1 .041 0c.397-.001.802.213.985.58.325.57-.012 1.37-.65 1.533-.656.222-1.428-.33-1.402-1.028a1.069 1.069 0 0 1 .41-.837.969.969 0 0 1 .616-.248z" fill="#a40"/></svg>