<svg xmlns="http://www.w3.org/2000/svg" width="24" height="24"><path d="M12 2.54a9.46 9.46 0 0 0-8.3 4.93l8.14 8h.76l7.86-7.7A9.46 9.46 0 0 0 12 2.55zM3.15 8.67A9.46 9.46 0 0 0 2.54 12a9.46 9.46 0 0 0 1.24 4.66l3.72-3.7-4.35-4.3zm17.82.35L17 12.97l1.81 1.81 2.64-2.63a9.46 9.46 0 0 0 0-.15 9.46 9.46 0 0 0-.49-2.98zM8.42 13.83l-3.94 3.9a9.46 9.46 0 0 0 7.42 3.73l-2.73-2.72 2.15-2.02-2.9-2.89zm7.64 0l-1.97 1.96 1.86 1.86 1.99-1.98-1.88-1.84zm5.36.93a.93.93 0 0 0-.75.31l-4.95 4.95-2.12-2.12a1.06 1.06 0 0 0-1.42 0 1.03 1.03 0 0 0 0 1.41l3.54 3.54 6.36-6.36c.72-.7 0-1.42 0-1.42s-.28-.27-.66-.3z" fill="#333"/></svg>