<svg xmlns="http://www.w3.org/2000/svg" width="24" height="24" id="svg7"><defs id="defs3"><style id="current-color-scheme"/></defs><path style="font-variant-ligatures:normal;font-variant-position:normal;font-variant-caps:normal;font-variant-numeric:normal;font-variant-alternates:normal;font-feature-settings:normal;text-indent:0;text-decoration-line:none;text-decoration-style:solid;text-decoration-color:#000;text-transform:none;text-orientation:mixed;shape-padding:0;isolation:auto;mix-blend-mode:normal" d="M12 1.36C6.16 1.36 1.36 6.16 1.36 12c0 5.84 4.8 10.92 10.64 10.64.51-.02.31-.01.74-.07-.59-2.17.5-3.83 2.46-3.6v-3.71c-.82.8-1.94 1.3-3.2 1.3-2.55 0-4.56-2-4.56-4.56 0-2.55 2-4.56 4.56-4.56 2.55 0 4.56 2 4.56 4.56 0 .23-.1.43-.13.66h6.08c.01-.23.13-.43.13-.66 0-5.84-4.8-10.64-10.64-10.64zm0 7.6A3.05 3.05 0 0 0 8.96 12 3.05 3.05 0 0 0 12 15.04 3.05 3.05 0 0 0 15.04 12 3.05 3.05 0 0 0 12 8.96zm0 1.52c.85 0 1.52.67 1.52 1.52A1.5 1.5 0 0 1 12 13.52 1.5 1.5 0 0 1 10.48 12c0-.85.67-1.52 1.52-1.52zm10.48 3.17h-6.43v5.86a1.99 1.99 0 0 0-.71-.14 2.14 2.14 0 1 0 2.14 2.14v-5h4.29v3a1.99 1.99 0 0 0-.72-.14 2.14 2.14 0 1 0 2.15 2.14v-7.86h-.72zm-2.92 5.78c-.04.04-.13.03-.17.07-.04.03-.03.1-.07.14.08-.08.17-.13.24-.21z" id="path863" color="#bebebe" font-weight="400" font-family="sans-serif" white-space="normal" overflow="visible" fill="#1a1a1a" stroke-width="1.7"/></svg>