<svg xmlns="http://www.w3.org/2000/svg" width="24" height="24" id="svg7"><defs id="defs3"><style id="current-color-scheme"></style></defs><path style="font-variant-ligatures:normal;font-variant-position:normal;font-variant-caps:normal;font-variant-numeric:normal;font-variant-alternates:normal;font-feature-settings:normal;text-indent:0;text-decoration-line:none;text-decoration-style:solid;text-decoration-color:#000;text-transform:none;text-orientation:mixed;shape-padding:0;isolation:auto;mix-blend-mode:normal" d="M12 1.36C6.16 1.36 1.36 6.16 1.36 12c0 5.84 4.8 10.64 10.64 10.64.43 0 .8-.2 1.21-.25v-6.07c-.4.1-.78.24-1.21.24-2.55 0-4.56-2-4.56-4.56 0-2.55 2-4.56 4.56-4.56 2.55 0 4.56 2 4.56 4.56 0 .27-.1.5-.15.75h6.08c.02-.26.15-.49.15-.75 0-5.84-4.8-10.64-10.64-10.64zm0 7.6A3.05 3.05 0 0 0 8.96 12 3.05 3.05 0 0 0 12 15.04 3.05 3.05 0 0 0 15.04 12 3.05 3.05 0 0 0 12 8.96zm0 1.52c.85 0 1.52.67 1.52 1.52A1.5 1.5 0 0 1 12 13.52 1.5 1.5 0 0 1 10.48 12c0-.85.67-1.52 1.52-1.52zm3.41 3.17c-.76 0-1.38.62-1.38 1.39v7.16c0 .76.62 1.38 1.38 1.38h6.7c.76 0 1.38-.62 1.38-1.38v-7.16c0-.77-.62-1.39-1.39-1.39h-6.69zm.3 2.15h6.1a.35.35 0 1 1 0 .7h-6.1a.35.35 0 1 1 0-.7zm0 2.47h6.1a.35.35 0 1 1 0 .7h-6.1a.35.35 0 1 1 0-.7zm0 2.46h6.1a.35.35 0 1 1 0 .7h-6.1a.35.35 0 1 1 0-.7z" id="path2-3" color="#bebebe" font-weight="400" font-family="sans-serif" white-space="normal" overflow="visible" fill="#1a1a1a" stroke-width="1.7"/></svg>