<svg xmlns="http://www.w3.org/2000/svg" width="24" height="24" id="svg7"><defs id="defs3"><style id="current-color-scheme"/></defs><path style="font-variant-ligatures:normal;font-variant-position:normal;font-variant-caps:normal;font-variant-numeric:normal;font-variant-alternates:normal;font-feature-settings:normal;text-indent:0;text-decoration-line:none;text-decoration-style:solid;text-decoration-color:#000;text-transform:none;text-orientation:mixed;shape-padding:0;isolation:auto;mix-blend-mode:normal" d="M12 1.36C6.16 1.36 1.36 6.16 1.36 12c0 5.84 4.8 10.64 10.64 10.64 1.84 0 3.57-.48 5.09-1.31l-4.54-4.53h2.87v-1.76A4.53 4.53 0 0 1 12 16.56 4.52 4.52 0 0 1 7.44 12c0-2.55 2-4.56 4.56-4.56A4.52 4.52 0 0 1 16.56 12c0 .17-.01.33-.03.5h3.2v4.3h1.75a10.52 10.52 0 0 0 1.16-4.8c0-5.84-4.8-10.64-10.64-10.64zm0 7.6A3.05 3.05 0 0 0 8.96 12 3.05 3.05 0 0 0 12 15.04 3.05 3.05 0 0 0 15.04 12 3.05 3.05 0 0 0 12 8.96zm0 1.52c.85 0 1.52.67 1.52 1.52A1.5 1.5 0 0 1 12 13.52 1.5 1.5 0 0 1 10.48 12c0-.85.67-1.52 1.52-1.52z" id="path822" color="#bebebe" font-weight="400" font-family="sans-serif" white-space="normal" overflow="visible" fill="#1a1a1a" stroke-width="1.7"/><path style="font-variant-ligatures:normal;font-variant-position:normal;font-variant-caps:normal;font-variant-numeric:normal;font-variant-alternates:normal;font-feature-settings:normal;text-indent:0;text-decoration-line:none;text-decoration-style:solid;text-decoration-color:#000;text-transform:none;text-orientation:mixed;shape-padding:0;isolation:auto;mix-blend-mode:normal" d="M16.04 13.12v4.3h-2.02l3.55 3.55 3.55-3.55h-2.03v-3.04h-.01v-1.26z" id="path2-3" color="#bebebe" font-weight="400" font-family="sans-serif" white-space="normal" overflow="visible" fill="green" stroke-width="1.7"/></svg>