<svg xmlns="http://www.w3.org/2000/svg" width="24" height="24"><path fill="#333" d="M6.602 1.645a6.071 6.071 0 0 0-.555.058 6.977 6.977 0 0 0-.549.112l-.072 1.818a4.275 4.275 0 0 0-.778.387l-1.48-1.037a5.902 5.902 0 0 0-.791.82l1.01 1.49a4.313 4.313 0 0 0-.395.764l-1.8.033a5.894 5.894 0 0 0-.178 1.131l1.683.605a4.116 4.116 0 0 0 .041.424c.023.146.052.279.088.418L1.402 9.75c.14.363.305.706.508 1.028l1.729-.508c.18.222.386.426.605.607l-.517 1.727a5.91 5.91 0 0 0 1.002.545l1.101-1.436c.276.076.566.12.858.139l.61 1.713a6.071 6.071 0 0 0 1.108-.17l.008-.205 1.156.627a5.495 5.495 0 0 0-.033.568c0 .197.014.377.033.568l-2.097 1.14c.11.506.258.994.46 1.46l2.385-.32c.194.33.423.64.676.924l-1.031 2.171c.382.34.766.662 1.209.924l1.744-1.674a5.69 5.69 0 0 0 1.104.358l.462 2.385a8.105 8.105 0 0 0 1.495 0l.462-2.385c.38-.083.755-.201 1.102-.358l1.746 1.676c.442-.262.826-.586 1.207-.926l-1.03-2.171c.254-.284.483-.594.677-.924l2.382.32a7.868 7.868 0 0 0 .463-1.46l-2.1-1.14c.02-.19.036-.37.036-.568 0-.197-.016-.377-.035-.568l2.1-1.139a7.866 7.866 0 0 0-.464-1.46l-2.382.321a5.758 5.758 0 0 0-.676-.927l1.03-2.168c-.382-.34-.766-.664-1.208-.926L17.541 9.19a5.71 5.71 0 0 0-1.104-.356l-.462-2.383a8.105 8.105 0 0 0-.745-.037c-.25 0-.502.018-.748.037l-.462 2.383a5.707 5.707 0 0 0-1.104.356l-.182-.174a5.894 5.894 0 0 0 .155-1.027l-1.684-.606a4.116 4.116 0 0 0-.039-.426 4.11 4.11 0 0 0-.09-.416l1.426-1.082a5.892 5.892 0 0 0-.51-1.027l-1.726.508a4.313 4.313 0 0 0-.608-.61l.518-1.722c-.321-.208-.643-.405-1-.55L8.074 3.495a4.278 4.278 0 0 0-.857-.136zm.216 3.404a2.559 2.559 0 0 1 .522 5.086 2.559 2.559 0 0 1-.776-5.059 2.559 2.559 0 0 1 .254-.027zm8.412 5.92a3.416 3.416 0 0 1 0 6.832 3.416 3.416 0 0 1 0-6.832z"/></svg>