<svg xmlns="http://www.w3.org/2000/svg" width="24" height="24" id="svg7"><defs id="defs3"><style id="current-color-scheme"/></defs><path style="font-variant-ligatures:normal;font-variant-position:normal;font-variant-caps:normal;font-variant-numeric:normal;font-variant-alternates:normal;font-feature-settings:normal;text-indent:0;text-decoration-line:none;text-decoration-style:solid;text-decoration-color:#000;text-transform:none;text-orientation:mixed;shape-padding:0;isolation:auto;mix-blend-mode:normal" d="M11.93 1.25a10.75 10.75 0 0 0-10.68 10.7 10.75 10.75 0 0 0 12.63 10.51 6.28 6.28 0 0 1-1.52-1.54 6.2 6.2 0 0 1-.94-4.48 4.48 4.48 0 0 1-4.06-4.48 4.54 4.54 0 0 1 4.59-4.59 4.48 4.48 0 0 1 4.46 4.02 6.06 6.06 0 0 1 2.3.02 6.1 6.1 0 0 1 3.74 2.45 10.75 10.75 0 0 0-10.5-12.61zm0 7.64a3.06 3.06 0 0 0-.1 6.1 6.21 6.21 0 0 1 3.15-3.15 3.06 3.06 0 0 0-3.05-2.95zm0 1.54c.86 0 1.54.67 1.54 1.53a1.52 1.52 0 0 1-1.54 1.54 1.52 1.52 0 0 1-1.52-1.54c0-.86.68-1.54 1.54-1.54zm5.53 1.78a5.3 5.3 0 0 0-5.25 5.27 5.3 5.3 0 0 0 5.27 5.27 5.3 5.3 0 0 0 5.27-5.27 5.3 5.3 0 0 0-5.27-5.27zm0 3.02c1.26 0 2.26.99 2.26 2.25a2.22 2.22 0 0 1-2.26 2.26 2.22 2.22 0 0 1-2.26-2.26c0-1.26 1-2.25 2.26-2.25zm0 .75c-.82 0-1.5.68-1.5 1.5 0 .83.68 1.51 1.5 1.51a1.5 1.5 0 0 0 0-3.01zm0 .75c.43 0 .75.34.75.75a.75.75 0 0 1-.75.76.75.75 0 0 1-.75-.76c0-.42.34-.75.75-.75z" font-weight="400" overflow="visible" id="path2" color="#bebebe" font-family="sans-serif" white-space="normal" fill="#1a1a1a" stroke-width="1.71"/></svg>