<svg xmlns="http://www.w3.org/2000/svg" width="24" height="24"><g fill="#333" color="#bebebe"><path d="M20.433 23.5s1.534 0 1.534-1.533V6.633c0-1.533-1.534-1.533-1.534-1.533H18.9v1.533h.767s.766 0 .766.767v13.8s0 .767-.766.767H8.933s-.766 0-.766-.767v-.767H6.633v1.534c0 1.533 1.534 1.533 1.534 1.533z" overflow="visible" style="marker:none"/><path d="M17.367 2.033v15.334c0 1.533-1.534 1.533-1.534 1.533H3.567s-1.534 0-1.534-1.533V2.033C2.033.5 3.567.5 3.567.5h12.266s1.534 0 1.534 1.533zm-1.534.767c0-.767-.766-.767-.766-.767H4.333s-.766 0-.766.767v13.8c0 .767.766.767.766.767h10.734c.766 0 .766-.767.766-.767z" overflow="visible" style="marker:none"/></g></svg>