<?xml version="1.0" encoding="UTF-8" standalone="no"?>
<svg
   xmlns:dc="http://purl.org/dc/elements/1.1/"
   xmlns:cc="http://creativecommons.org/ns#"
   xmlns:rdf="http://www.w3.org/1999/02/22-rdf-syntax-ns#"
   xmlns:svg="http://www.w3.org/2000/svg"
   xmlns="http://www.w3.org/2000/svg"
   xmlns:sodipodi="http://sodipodi.sourceforge.net/DTD/sodipodi-0.dtd"
   xmlns:inkscape="http://www.inkscape.org/namespaces/inkscape"
   width="48"
   height="48"
   viewBox="0 0 12.7 12.7"
   version="1.1"
   id="svg4"
   sodipodi:docname="applications-education.svg"
   inkscape:version="0.92.4 (5da689c313, 2019-01-14)">
  <metadata
     id="metadata10">
    <rdf:RDF>
      <cc:Work
         rdf:about="">
        <dc:format>image/svg+xml</dc:format>
        <dc:type
           rdf:resource="http://purl.org/dc/dcmitype/StillImage" />
        <dc:title></dc:title>
      </cc:Work>
    </rdf:RDF>
  </metadata>
  <defs
     id="defs8" />
  <sodipodi:namedview
     pagecolor="#ffffff"
     bordercolor="#666666"
     borderopacity="1"
     objecttolerance="10"
     gridtolerance="10"
     guidetolerance="10"
     inkscape:pageopacity="0"
     inkscape:pageshadow="2"
     inkscape:window-width="1087"
     inkscape:window-height="480"
     id="namedview6"
     showgrid="false"
     inkscape:zoom="4.9166667"
     inkscape:cx="2.1355932"
     inkscape:cy="24"
     inkscape:window-x="0"
     inkscape:window-y="25"
     inkscape:window-maximized="0"
     inkscape:current-layer="svg4" />
  <path
     d="M 6.34,0.07 A 6.29,6.29 0 0 0 0.05,6.37 6.29,6.29 0 0 0 6.35,12.65 6.29,6.29 0 0 0 12.63,6.36 6.29,6.29 0 0 0 6.34,0.07 Z M 6.32,1 6.33,1.01 a 5.4,5.4 0 0 1 5.4,5.4 5.4,5.4 0 0 1 -5.4,5.41 A 5.4,5.4 0 0 1 0.92,6.42 5.4,5.4 0 0 1 6.32,1 Z M 8.58,2.65 C 7.74,2.67 7.56,3.3 7.52,3.68 L 7.46,3.98 C 6.38,4.16 6.5,5.26 7.16,5.28 7.1,4.71 7.37,4.36 7.48,4.25 c 0.1,0.6 0.6,1.05 1.23,1.05 0.58,0 1.08,-0.4 1.2,-0.96 0.11,0.18 0.28,0.55 0.24,0.94 1.04,0 0.53,-1.2 -0.2,-1.33 L 9.92,3.77 A 1.27,1.27 0 0 0 8.58,2.65 Z M 3.9,2.82 C 3.6,2.82 3.21,3.06 3,3.24 2.74,3.47 2.94,3.66 2.94,4.04 a 1.215,1.215 0 1 0 2.43,0 C 5.37,3.62 5.52,3.24 5.19,3.02 5,2.88 4.15,2.82 3.89,2.82 Z M 8.73,3.54 V 4.02 C 8.93,4.07 9.58,4 9.58,4 L 9.6,4.02 V 4.05 A 0.9,0.9 0 0 1 7.81,4.07 C 7.99,4 8.12,3.7 8.12,3.7 c 0,0 0.1,0.03 0.1,0.38 0.2,0.06 0.51,-0.54 0.51,-0.54 z M 4.06,3.77 c 0,0 -0.2,0.27 -0.02,0.18 0.38,-0.13 0.8,-0.08 1.02,-0.03 l 0.01,0.14 c 0,0.5 -0.4,0.9 -0.89,0.9 A 0.9,0.9 0 0 1 3.31,3.91 C 3.53,3.87 3.69,3.95 3.69,3.95 Z M 7.88,5.42 6.42,7.18 5.02,5.45 H 3.4 L 1.73,7.29 2.08,7.65 3.28,6.63 v 1.99 h 0.24 v 1.5 H 3.37 v 0.19 h 0.7 V 8.62 h 0.26 v 1.69 h 0.7 V 10.13 H 4.87 V 8.62 h 0.3 V 6.66 l 0.96,1 0.39,-0.1 0.22,0.05 1.09,-1.25 0.06,0.5 -1.01,1.73 h 1.16 v 1.52 H 7.9 v 0.17 H 8.6 V 8.6 h 0.26 v 1.69 h 0.7 V 10.12 H 9.4 V 8.59 h 0.9 L 9.42,6.86 9.46,6.25 10.32,7.39 10.88,7.25 9.53,5.42 H 7.87 Z"
     id="path2"
     inkscape:connector-curvature="0"
     style="fill:#1a1a1a" />
</svg>
