<svg xmlns="http://www.w3.org/2000/svg" width="24" height="24"><path d="M19.9 14.03a2.28 2.28 0 0 0-2.28 2.28v.9h-.45l-.91.01v5.47a.91.91 0 0 0 .9.9h5.48a.92.92 0 0 0 .9-.9l.07-5.45-.97-.02h-.46v-.91a2.28 2.28 0 0 0-2.28-2.28zm0 .86c.78 0 1.42.64 1.42 1.42v.9h-2.83v-.9c0-.78.63-1.42 1.41-1.42z" fill="#2c89a0"/><g transform="translate(-.9 -.3) scale(1.0668)" fill="#2c89a0"><ellipse ry=".92" rx=".94" cy="9.66" cx="6.09"/><ellipse ry=".92" rx=".94" cy="9.64" cx="9.08"/><ellipse ry=".92" rx=".94" cy="9.66" cx="12.09"/><ellipse ry=".92" rx=".94" cy="9.64" cx="15.08"/><ellipse ry=".92" rx=".94" cy="9.66" cx="18.09"/></g></svg>