<svg xmlns="http://www.w3.org/2000/svg" width="24" height="24" id="svg9"><defs id="defs3"><style id="current-color-scheme"/></defs><path d="M4.5 5.75v2.5h2.97l-1.56 3.2c-.37.75.26 1.78 1.09 1.8h1.25v2.5H4.5v2.5h3.75a2.5 2.5 0 0 0 2.5-2.5v-2.5c0-.67-.25-1.22-.66-1.68-.28-.3-.77-.4-1.21-.55l1.71-3.48c.37-.74-.26-1.77-1.09-1.8h-5zm10 0s-2.5 0-2.5 2.5v7.5c0 2.5 2.5 2.5 2.5 2.5H17c2.5 0 2.5-2.54 2.5-2.54v-4.92l-1.25-.04-2.5.04v2.46H17v2.5h-2.5v-7.5H17V9.5h2.5V8.25s0-2.5-2.5-2.5h-2.5z" id="path822" color="#fff" fill="#2c89a0" stroke-width="1.25"/></svg>