<svg xmlns="http://www.w3.org/2000/svg" width="24" height="24"><defs><clipPath id="a"><ellipse cx="7.991" cy="40.183" rx="7.548" ry="7.491" fill="#ccc" stroke-width=".379" stroke-linecap="round" stroke-linejoin="round"/></clipPath><clipPath id="b"><ellipse cx="23.621" cy="24.5" rx="21.007" ry="21.05" fill="#ccc" stroke-width=".297" stroke-linecap="round" stroke-linejoin="round"/></clipPath><clipPath id="c"><ellipse cx="23.621" cy="24.5" rx="21.007" ry="21.05" fill="#ccc" stroke-width=".297" stroke-linecap="round" stroke-linejoin="round"/></clipPath><clipPath id="d"><ellipse cx="23.621" cy="24.5" rx="21.007" ry="21.05" fill="#ccc" stroke-width=".297" stroke-linecap="round" stroke-linejoin="round"/></clipPath></defs><g fill="#216778"><path d="M2.123 33.967v11.91h11.91z" clip-path="url(#a)" transform="rotate(-45 9.029 5.163) scale(.38115)"/><path transform="rotate(-45 9.029 5.163) scale(.38115)" clip-path="url(#b)" d="M2.123 26.695V19.12L28.88 45.877h-7.576z"/><g fill-opacity=".302"><path clip-path="url(#c)" d="M-3.455 14.703l5.11 5.11h43.402l5.111-5.11H18.859z" transform="matrix(.38115 0 0 .38115 2.997 3.072)"/><path clip-path="url(#d)" d="M3.127 3.906l-5.523 5.522h51.644l-5.521-5.522H20.998z" transform="matrix(.38115 0 0 .38115 2.997 3.072)"/></g></g></svg>