<?xml version="1.0" encoding="UTF-8" standalone="no"?>
<!-- Created with Inkscape (http://www.inkscape.org/) -->

<svg
   xmlns:dc="http://purl.org/dc/elements/1.1/"
   xmlns:cc="http://creativecommons.org/ns#"
   xmlns:rdf="http://www.w3.org/1999/02/22-rdf-syntax-ns#"
   xmlns:svg="http://www.w3.org/2000/svg"
   xmlns="http://www.w3.org/2000/svg"
   xmlns:sodipodi="http://sodipodi.sourceforge.net/DTD/sodipodi-0.dtd"
   xmlns:inkscape="http://www.inkscape.org/namespaces/inkscape"
   width="24"
   height="24"
   viewBox="0 0 6.35 6.35"
   version="1.1"
   id="svg829"
   inkscape:version="0.92.3 (2405546, 2018-03-11)"
   sodipodi:docname="document-open-recent.svg">
  <defs
     id="defs823" />
  <sodipodi:namedview
     id="base"
     pagecolor="#ffffff"
     bordercolor="#666666"
     borderopacity="1.0"
     inkscape:pageopacity="0.0"
     inkscape:pageshadow="2"
     inkscape:zoom="11.145834"
     inkscape:cx="1.3457951"
     inkscape:cy="11.461683"
     inkscape:document-units="mm"
     inkscape:current-layer="layer1"
     showgrid="false"
     showguides="true"
     inkscape:guide-bbox="true"
     inkscape:window-width="1366"
     inkscape:window-height="719"
     inkscape:window-x="0"
     inkscape:window-y="25"
     inkscape:window-maximized="1"
     scale-x="1.9"
     units="px"
     inkscape:snap-global="false" />
  <metadata
     id="metadata826">
    <rdf:RDF>
      <cc:Work
         rdf:about="">
        <dc:format>image/svg+xml</dc:format>
        <dc:type
           rdf:resource="http://purl.org/dc/dcmitype/StillImage" />
        <dc:title></dc:title>
      </cc:Work>
    </rdf:RDF>
  </metadata>
  <g
     inkscape:label="Capa 1"
     inkscape:groupmode="layer"
     id="layer1"
     transform="translate(0,-290.65)">
    <path
       inkscape:connector-curvature="0"
       style="fill:#808080;fill-opacity:1;stroke-width:0.06880479"
       d="m 3.1751279,290.71068 a 3.1142915,3.1142915 0 0 0 -3.11441922,3.11446 3.1142915,3.1142915 0 0 0 3.11441922,3.11418 3.1142915,3.1142915 0 0 0 3.1141635,-3.11418 3.1142915,3.1142915 0 0 0 -3.1141635,-3.11446 z m -0.00896,0.4637 a 2.6774302,2.6774302 0 0 1 2.6773616,2.67738 2.6774302,2.6774302 0 0 1 -2.6773616,2.67737 2.6774302,2.6774302 0 0 1 -2.67761778,-2.67737 2.6774302,2.6774302 0 0 1 2.67761778,-2.67738 z m 1.3500678,1.1781 5.1e-4,0.005 a 0.22062148,0.22062148 0 0 0 -0.032244,5.1e-4 v 2.7e-4 a 0.22062148,0.22062148 0 0 0 -0.110032,0.0688 L 3.2012209,293.598 2.4704033,292.87051 a 0.22062148,0.22062148 0 1 0 -0.3039956,0.30322 l 0.883327,0.88335 a 0.22062148,0.22062148 0 0 0 0.3034841,0 l 1.3244797,-1.32451 a 0.22062148,0.22062148 0 0 0 -0.1614656,-0.37963 z"
       id="path822" />
  </g>
</svg>
