<svg xmlns="http://www.w3.org/2000/svg" width="24" height="24" version="1">
  <defs>
    <linearGradient id="a">
      <stop offset="0"/>
      <stop offset="1" stop-opacity="0"/>
    </linearGradient>
    <linearGradient id="b">
      <stop offset="0" stop-color="#f5f5f5"/>
      <stop offset=".47026" stop-color="#e7e7e7"/>
      <stop offset=".69349" stop-color="#8c8c8c"/>
      <stop offset=".83543" stop-color="#ddd"/>
      <stop offset="1" stop-color="#a8a8a8"/>
    </linearGradient>
    <radialGradient id="c" cx="113.07" cy="97.588" r="2.5631" fx="113.67" fy="98" gradientUnits="userSpaceOnUse">
      <stop offset="0" stop-color="#eee"/>
      <stop offset=".16" stop-color="#cecece"/>
      <stop offset=".4675" stop-color="#888"/>
      <stop offset="1" stop-color="#555"/>
    </radialGradient>
  </defs>
  <path fill="gray" d="M5.1521739 1.4566861c-.7608665 0-1.7354217.5858433-1.8260869 1.3071501L1.5213995 17.133571c-.01365 0-.0214.0036-.0214.01426H22.5c0-.01074-.0079-.01426-.0214-.01426L20.673913 2.7638362c-.090629-.7213068-1.065248-1.3071501-1.826087-1.3071501zm3.6521739 1.9116848h6.3913042v5.4782609h2.840778L12 15.237936 5.96357 8.8466318h2.8407778zM22.5 17.891469l-21 .0017c.4240083 3.692676.212968 3.63434 1.0503566 3.63434 6.6807392 0 18.5562444.04404 18.8582714 0 .771084 0 .665538-.550037 1.091372-3.636124z"/>
</svg>
