<svg xmlns="http://www.w3.org/2000/svg" width="24" height="24" version="1">
  <defs>
    <linearGradient id="a">
      <stop offset="0"/>
      <stop offset="1" stop-opacity="0"/>
    </linearGradient>
  </defs>
  <path fill="gray" d="M6.890625 2.1171875v.5c-.000456.00928-.0058594.0158486-.0058594.0253906V5.59375h.0058594v2.4238281H1.1269531v2.5898439c0 .0434.0105519.08459.0136719.126953v8.167969h-.0136719v2.615234c0 .927767.7460611 1.673828 1.6738281 1.673828H21.464844c.927767 0 1.671875-.746061 1.671875-1.673828v-2.240234h.003906V8.0097656h-2.65625v-.953125c-.000058-.390138-.119475-.7632347-.332031-1.0390625l-3.003906-3.9003906H6.890625zm8.056641 1.2910156H16l3.048828 3.9609375v.296875h.003906v3.5976564H9.1503906v-.007813h-.8339844V3.4179688h6.6386718l-.007812-.0097657zm-11.4082035 6.3125h3.3457031v1.5429689H4.0175781c-.02612 0-.0490087.013025-.0742187.015625-.296424.04003-.5273428.295734-.5273438.621094 0 .0343.0148513.064906.0195313.097656-.0047.04081-.0195313.07678-.0195313.119141v2.894531c0 .473031.2937513.853515.6601563.853515.366411 0 .6640625-.380484.6640625-.853515v-2.472657H7.5v.001954h1.0039062v-.001954H21.482422v8.070313c0 .448705-.359881.810547-.808594.810547H3.5390625c-.448713 0-.8085937-.361842-.8085937-.810547V10.53125c0-.448706.3598807-.8105469.8085937-.8105469zm16.9453125 0h.189453c.448713 0 .808594.3618409.808594.8105469v.732422h-.998047V9.7207031z"/>
</svg>
