<svg xmlns="http://www.w3.org/2000/svg" width="24" height="24" version="1">
  <defs>
    <linearGradient id="a">
      <stop offset="0"/>
      <stop offset="1" stop-opacity="0"/>
    </linearGradient>
  </defs>
  <path fill="gray" fill-opacity=".9953271" d="M2.6698583 3.4755701c-.9277673 0-1.67588033.7445026-1.67588033 1.6722994v2.7931339c0 .043398.0111519.082965.0143237.125333v8.1681266H.9921875v2.615877c0 .927769.7463189 1.67409 1.6740899 1.67409H21.330141c.927773 0 1.67409-.746321 1.67409-1.67409v-2.239878h.0036V5.3430307H10.888117L9.0170762 3.4755701zm.7806451 3.7456642H22.975583l.009 1.274815H4.2150344v2.4726397c0 .473032-.3134966.854055-.7018645.854055-.3883642 0-.700074-.381023-.700074-.854055V8.0752887c0-.042368.014791-.079156.019695-.1199615-.00513-.033008-.019695-.062369-.019695-.096685 0-.3253608.2462286-.5814004.5604174-.6212933.026759-.00244.049287-.016114.07699-.016115zM16.533471 11.235469h3.666883v2.750163h2.750163v3.666884h-2.750163v2.750162h-3.666883v-2.750162h-2.74121v-3.666884h2.74121z"/>
</svg>
