<svg xmlns="http://www.w3.org/2000/svg" width="24" height="24" version="1"><path fill="gray" fill-opacity=".995" d="M2.67 3.476A1.67 1.67 0 0 0 .994 5.148V7.94c0 .043.011.083.014.125v8.168H.992v2.616a1.67 1.67 0 0 0 1.674 1.674H21.33a1.67 1.67 0 0 0 1.674-1.674v-2.24h.004V5.343h-12.12l-1.87-1.867zm.78 3.745h19.526l.009 1.275H4.215v2.473c0 .473-.313.854-.702.854-.388 0-.7-.381-.7-.854V8.075c0-.042.015-.079.02-.12-.005-.033-.02-.062-.02-.096a.63.63 0 0 1 .56-.622c.027-.002.05-.016.078-.016zm13.083 4.014H20.2v2.75h2.75v3.668H20.2v2.75h-3.667v-2.75h-2.74v-3.667h2.74z"/></svg>