<svg xmlns="http://www.w3.org/2000/svg" width="24" height="24">
  <path fill="gray" d="M11.966797 1.9824219c.64142 0 2.709615 5.2697429 3.228515 5.6542969.518921.3845536 6.071382.7625043 6.269532 1.3847656.198214.6222247-4.07715 4.2547276-4.275391 4.8769536-.185517.582394.996 5.440138.722656 6.375a10.119383 10.119383 0 0 0 4.173829-8.171876A10.119383 10.119383 0 0 0 11.966797 1.9824219zm0 0A10.119383 10.119383 0 0 0 1.8457031 12.101562a10.119383 10.119383 0 0 0 4.1757813 8.177735c-.2785302-.923654.9084732-5.797526.7226562-6.380859-.1982139-.622226-4.4736316-4.2547289-4.2753906-4.8769536.1982139-.6222244 5.7506303-1.0002119 6.2695312-1.3847656.5189192-.3845541 2.5871048-5.6542969 3.2285158-5.6542969zm0 15.7871091c-.604537 0-4.8188004 2.683072-5.7363282 2.669922a10.119383 10.119383 0 0 0 5.7363282 1.78125 10.119383 10.119383 0 0 0 5.714844-1.78125c-.962873-.030136-5.115233-2.669922-5.714844-2.669922z"/>
</svg>
