<svg xmlns="http://www.w3.org/2000/svg" width="24" height="24">
  <g fill="gray">
    <path d="M19.63350032 14.3981899h-2.67696476c-.31117515.71292267-.75623988 1.36843033-1.32275035 1.93498017-1.19004214 1.19004215-2.77230201 1.84543167-4.45525473 1.84543167-1.68291334 0-3.26521259-.65538952-4.45525473-1.84543167-1.19004215-1.19008152-1.84543167-2.77226263-1.84543167-4.45525473 0-1.6829921.65538952-3.26521259 1.84543167-4.45525473 1.19004214-1.19004215 2.7723414-1.84543167 4.45525473-1.84543167 1.68295272 0 3.26521259.65538952 4.45525473 1.84543167.56654985.56654984 1.01161458 1.22209688 1.32278973 1.93498017h2.67692538c-1.08450565-3.64352943-4.45915328-6.3006864-8.45496984-6.3006864-4.87169072 0-8.82096096 3.94930961-8.82096096 8.82096096 0 4.8717301 3.94927024 8.82096096 8.82096096 8.82096096 3.99581656 0 7.3704642-2.6571176 8.45496984-6.3006864zm2.88626568-3.78041184v2.52027456H12.43866776v-2.52027456z"/>
    <path d="M23.668551 11.267078c.453202.45136.432619 1.207666.0082 1.633774l-3.275633 3.289001-.01668-8.1935027z"/>
  </g>
</svg>
