<svg xmlns="http://www.w3.org/2000/svg" width="24" height="24">
  <g fill="gray">
    <path d="M11.40345164 2.75365233a10.4035787 10.4035787 0 0 0-1.1731707.08442552 10.4035787 10.4035787 0 0 0-8.84861122 8.25009031 10.40506352 10.40506352 0 0 0 4.9545099 11.0407127 1.48516465 1.48516465 0 0 0 .70396756.21089349l-.00149321.00149322a1.48516465 1.48516465 0 0 0 .7915923-2.77725754 7.4183974 7.4183974 0 0 1-3.54063271-7.88919445 7.41542711 7.41542711 0 0 1 6.32234657-5.89610392 7.41097163 7.41097163 0 0 1 .79136552-.06040994" font-family="sans-serif" font-weight="400" overflow="visible" style="font-variant-ligatures:normal;font-variant-position:normal;font-variant-caps:normal;font-variant-numeric:normal;font-variant-alternates:normal;font-feature-settings:normal;text-indent:0;text-decoration-line:none;text-decoration-style:solid;text-decoration-color:#000;text-transform:none;text-orientation:mixed;shape-padding:0;isolation:auto;mix-blend-mode:normal" white-space="normal"/>
    <path d="M10.0350789 1.55343087c.81981074 0 1.48516466.70545324 1.48516466 1.47625363v5.94956965L4.09441993 1.55343087z"/>
    <g>
      <path d="M12.49269517 21.14232432a10.4035787 10.4035787 0 0 0 1.1731707-.08442552 10.4035787 10.4035787 0 0 0 8.84861122-8.25009031 10.40506352 10.40506352 0 0 0-4.9545099-11.0407127 1.48516465 1.48516465 0 0 0-.70396757-.21089349l.00149322-.00149321a1.48516465 1.48516465 0 0 0-.7915923 2.77725753 7.4183974 7.4183974 0 0 1 3.54063271 7.88919446 7.41542711 7.41542711 0 0 1-6.32234657 5.89610392 7.41097163 7.41097163 0 0 1-.79136552.06040993" font-family="sans-serif" font-weight="400" overflow="visible" style="font-variant-ligatures:normal;font-variant-position:normal;font-variant-caps:normal;font-variant-numeric:normal;font-variant-alternates:normal;font-feature-settings:normal;text-indent:0;text-decoration-line:none;text-decoration-style:solid;text-decoration-color:#000;text-transform:none;text-orientation:mixed;shape-padding:0;isolation:auto;mix-blend-mode:normal" white-space="normal"/>
      <path d="M13.8610679 22.34254578c-.81981073 0-1.48516465-.70545324-1.48516465-1.47625362V14.9167225l7.42582363 7.42582328z"/>
    </g>
  </g>
</svg>
