<svg xmlns="http://www.w3.org/2000/svg" width="24" height="24"><path d="M12 2.15A9.86 9.86 0 0 0 2.14 12 9.86 9.86 0 0 0 12 21.86 9.86 9.86 0 0 0 21.86 12 9.86 9.86 0 0 0 12 2.14zm.02 1.17a8.61 8.61 0 0 1 8.62 8.62 8.61 8.61 0 0 1-8.62 8.61 8.61 8.61 0 0 1-8.62-8.61 8.61 8.61 0 0 1 8.62-8.62zM12 5.5a6.44 6.44 0 0 0-3.66 1.22l.83.83a5.3 5.3 0 0 1 .4-.24 5.3 5.3 0 0 1 .48-.21 5.3 5.3 0 0 1 .5-.18 5.3 5.3 0 0 1 .52-.13 5.3 5.3 0 0 1 .52-.07 5.3 5.3 0 0 1 .53-.01 5.3 5.3 0 0 1 .53.03 5.3 5.3 0 0 1 .52.09 5.3 5.3 0 0 1 .51.14 5.3 5.3 0 0 1 .5.19 5.3 5.3 0 0 1 .47.23 5.3 5.3 0 0 1 .45.29 5.3 5.3 0 0 1 .42.32 5.3 5.3 0 0 1 .27.26 5.3 5.3 0 0 1 .36.4 5.3 5.3 0 0 1 .31.42 5.3 5.3 0 0 1 .27.46 5.3 5.3 0 0 1 .22.48 5.3 5.3 0 0 1 .18.5 5.3 5.3 0 0 1 .12.51 5.3 5.3 0 0 1 .08.53 5.3 5.3 0 0 1 .02.53 5.3 5.3 0 0 1-.04.53 5.3 5.3 0 0 1-.09.52 5.3 5.3 0 0 1-.14.52 5.3 5.3 0 0 1-.19.49 5.3 5.3 0 0 1-.23.47 5.3 5.3 0 0 1-.16.26l.82.82a6.44 6.44 0 0 0-.66-8.31A6.44 6.44 0 0 0 12 5.5zM6.73 8.34a6.44 6.44 0 0 0 .66 8.31 6.44 6.44 0 0 0 8.32.66l-.82-.81a5.3 5.3 0 0 1-.38.22 5.3 5.3 0 0 1-.48.22 5.3 5.3 0 0 1-.5.18 5.3 5.3 0 0 1-.52.12 5.3 5.3 0 0 1-.52.07 5.3 5.3 0 0 1-.53.02 5.3 5.3 0 0 1-.53-.04 5.3 5.3 0 0 1-.52-.08 5.3 5.3 0 0 1-.52-.14 5.3 5.3 0 0 1-.49-.2 5.3 5.3 0 0 1-.47-.23 5.3 5.3 0 0 1-.45-.28 5.3 5.3 0 0 1-.42-.33 5.3 5.3 0 0 1-.28-.25 5.3 5.3 0 0 1-.35-.4 5.3 5.3 0 0 1-.32-.42 5.3 5.3 0 0 1-.27-.46 5.3 5.3 0 0 1-.22-.48 5.3 5.3 0 0 1-.17-.5 5.3 5.3 0 0 1-.13-.52 5.3 5.3 0 0 1-.07-.52 5.3 5.3 0 0 1-.02-.53 5.3 5.3 0 0 1 .04-.53 5.3 5.3 0 0 1 .08-.52 5.3 5.3 0 0 1 .14-.52 5.3 5.3 0 0 1 .2-.49 5.3 5.3 0 0 1 .23-.47 5.3 5.3 0 0 1 .15-.24z" fill="gray"/></svg>