<svg xmlns="http://www.w3.org/2000/svg" width="24" height="24">
  <g fill="gray">
    <path d="M16.551578 2.4914042a1.4621944 1.4621944 0 0 0-.77934917 2.73430345 7.303661 7.303661 0 0 1 3.48587163 7.76717648 7.30073665 7.30073665 0 0 1-6.2245622 5.8049123 7.29635008 7.29635008 0 0 1-7.49667051-4.0254219 7.30073665 7.30073665 0 0 1 1.38762248-8.39591987 1.46300756 1.46300756 0 1 0-2.06900504-2.06900503 10.24559579 10.24559579 0 0 0-1.94471856 11.7560427 10.24267209 10.24267209 0 0 0 10.49855586 5.62944869 10.24267209 10.24267209 0 0 0 8.71175446-8.12249019 10.24413394 10.24413394 0 0 0-4.87788114-10.86995288 1.4621944 1.4621944 0 0 0-.69307967-.20763162z" font-family="sans-serif" font-weight="400" overflow="visible" style="font-variant-ligatures:normal;font-variant-position:normal;font-variant-caps:normal;font-variant-numeric:normal;font-variant-alternates:normal;font-feature-settings:normal;text-indent:0;text-decoration-line:none;text-decoration-style:solid;text-decoration-color:#000;text-transform:none;text-orientation:mixed;shape-padding:0;isolation:auto;mix-blend-mode:normal" white-space="normal"/>
    <path d="M8.20554671 1.80727123c.80713125 0 1.4621944.69454244 1.4621944 1.45342127v5.85755083l-7.3109721-7.3109721z"/>
  </g>
</svg>
