<svg xmlns="http://www.w3.org/2000/svg" height="24" width="24"><path d="M12 1.14A10.82 10.86 0 0 0 1.18 12 10.82 10.86 0 0 0 12 22.86 10.82 10.86 0 0 0 22.82 12 10.82 10.86 0 0 0 12 1.13zm0 1.89a9.12 9.12 0 0 1 .84.04l.52 2.68a6.43 6.43 0 0 1 1.24.4l1.97-1.88c.5.3.93.66 1.36 1.04l-1.16 2.44a6.48 6.48 0 0 1 .76 1.05l2.68-.36a8.85 8.85 0 0 1 .52 1.64l-2.36 1.28a6.18 6.18 0 0 1 0 1.28l2.36 1.28a8.86 8.86 0 0 1-.52 1.64l-2.68-.36a6.6 6.6 0 0 1-.76 1.04l1.16 2.45c-.43.38-.87.75-1.36 1.04l-1.97-1.88c-.39.17-.81.3-1.24.4l-.52 2.68a9.12 9.12 0 0 1-1.68 0l-.52-2.68a6.4 6.4 0 0 1-1.24-.4l-1.97 1.88c-.5-.3-.93-.66-1.36-1.04l1.16-2.45a6.53 6.53 0 0 1-.76-1.04l-2.68.36a8.79 8.79 0 0 1-.52-1.64l2.36-1.28A6.21 6.21 0 0 1 5.6 12a6.18 6.18 0 0 1 .04-.64l-2.36-1.28a8.86 8.86 0 0 1 .52-1.64l2.68.36a6.48 6.48 0 0 1 .76-1.05L6.07 5.31c.43-.38.86-.74 1.36-1.04L9.4 6.15a6.42 6.42 0 0 1 1.24-.4l.52-2.68c.28-.02.56-.04.84-.04zm0 5.13a3.85 3.85 0 0 0 0 7.69 3.85 3.85 0 0 0 0-7.7z" fill="#a02c2c" paint-order="markers fill stroke"/></svg>