<svg xmlns="http://www.w3.org/2000/svg" width="24" height="24" version="1"><path d="M12 .16A11.84 11.84 0 0 0 .16 12 11.84 11.84 0 0 0 12 23.84 11.84 11.84 0 0 0 23.84 12 11.84 11.84 0 0 0 12 .16zm-.03 1.76A10.18 10.18 0 0 1 22.15 12.1a10.18 10.18 0 0 1-10.18 10.2A10.18 10.18 0 0 1 1.78 12.1 10.18 10.18 0 0 1 11.97 1.92zm.03 1.3A8.82 8.78 0 0 0 3.18 12 8.82 8.78 0 0 0 12 20.78 8.82 8.78 0 0 0 20.82 12 8.82 8.78 0 0 0 12 3.22zm.11 1.91c.26 0 .51.03.76.06 1.77.16 3.4 1.26 3.43 2.67.13 1.45-1.1 2.69-2.36 3.68-1.2.87-1.48 2.1-1.45 3.37-.4.08-.94.1-.97-.06-.03-.2.02-.38.02-.88 0-1.3.8-2.54 1.55-3.63.75-1.09 1.27-2.2.8-2.94a2.67 2.67 0 0 0-2.76-1.07c-.05.02-.38.08-.7.26-.37.22-.72.76-.64 1.04.07.24.2.5.15.8-.05.4-.35.82-1.01.82-1.14 0-1.45-1.35-1.11-2.1.58-1.36 2.5-2.05 4.3-2.02zm-.14 11.5c.9-.02 1.6.86 1.32 1.63-.28.98-1.93 1.2-2.51.33-.66-.79.1-2.03 1.2-1.97z" fill="#a02c2c"/></svg>