<svg xmlns="http://www.w3.org/2000/svg" width="48" height="48" viewBox="0 0 12.7 12.7"><path fill="green" d="M6.34.07a6.29 6.29 0 0 0-6.29 6.3 6.29 6.29 0 0 0 6.3 6.28 6.29 6.29 0 0 0 6.28-6.29A6.29 6.29 0 0 0 6.34.07zm-.01.94a5.4 5.4 0 0 1 5.4 5.4 5.4 5.4 0 0 1-5.4 5.41 5.4 5.4 0 0 1-5.41-5.4A5.4 5.4 0 0 1 6.32 1zm.05 1.13C5.13 2 1.79 8.81 2.88 9.4c1.39.74 5.7-2.42 5.58-2.33.01-.05-4.87 2.07-4.46.57.4-1.51 2.06-4.17 2.43-3.93C8.04 4.78 9.9 9.26 10 9.05c.3.3-1.45-5.73-3.5-6.87a.31.31 0 0 0-.12-.04z"/></svg>