<svg xmlns="http://www.w3.org/2000/svg" width="48" height="48" viewBox="0 0 12.7 12.7"><path fill="green" d="M6.35.06a6.29 6.29 0 0 0-6.29 6.3 6.29 6.29 0 0 0 6.3 6.28 6.29 6.29 0 0 0 6.28-6.29A6.29 6.29 0 0 0 6.35.06zM6.33 1a5.4 5.4 0 0 1 5.4 5.4 5.4 5.4 0 0 1-5.4 5.41 5.4 5.4 0 0 1-5.4-5.4A5.4 5.4 0 0 1 6.33 1zm0 .75c-2.1 0-3.81 1.24-3.81 3.69s2.02 5.84 3.8 5.84c1.69 0 3.82-3.4 3.82-5.84 0-2.45-1.71-3.69-3.81-3.69zm2.34 4.77c.16 0 .32 0 .47.04a1.94 1.94 0 0 1-2.3 2.3 1.94 1.94 0 0 1 1.83-2.34zm-4.69.03c.47.02.94.2 1.3.56.48.47.66 1.13.53 1.75a1.95 1.95 0 0 1-1.77-.52 1.89 1.89 0 0 1-.53-1.75c.15-.03.31-.05.47-.04z"/></svg>