<svg xmlns="http://www.w3.org/2000/svg" width="48" height="48" viewBox="0 0 12.7 12.7"><path fill="green" d="M6.34.07a6.29 6.29 0 0 0-6.29 6.3 6.29 6.29 0 0 0 6.3 6.28 6.29 6.29 0 0 0 6.28-6.29A6.29 6.29 0 0 0 6.34.07zm-.01.94a5.4 5.4 0 0 1 5.4 5.4 5.4 5.4 0 0 1-5.4 5.41 5.4 5.4 0 0 1-5.41-5.4A5.4 5.4 0 0 1 6.32 1zm2.34.8c-.09 0-.27.17-.41.33-.33.37-.65.78-1 1.3-.25.35-.33.45-.4.84a2.6 2.6 0 0 0-.22-.04 2.14 2.14 0 0 0-.9.14 8.03 8.03 0 0 0-1.83-1.9c-.08-.07-.14-.1-.19-.1-.32-.03.18 1.26.33 1.6.13.27.45.77.74 1.19-.07.14-.12.3-.14.47-.1.66.03 1.19-.12 1.85-.21.89-.96 1.33-.78 2.2v.05c.04.18.14.38.28.6a.73.73 0 0 0 .08.1c.12.13.29.24.49.32a2.95 2.95 0 0 0 .6.17h.04c.55.1 1.13.12 1.47.15a2.48 2.48 0 0 0 1-.12l.04-.01a2.47 2.47 0 0 0 .27-.11 1.94 1.94 0 0 0 .7-.55c.14-.2.24-.42.27-.66a1.51 1.51 0 0 0-.14-.83 6.48 6.48 0 0 1-.77-3.35.92.92 0 0 0-.1-.48 1.06 1.06 0 0 0-.15-.19c.37-.74.63-1.7.84-2.48.1-.34.07-.47 0-.48zM5.5 5.68c.1 0 .2.04.31.13.18.15.42.57.42.8 0 .59-.37.75-.8.88-.44.13-.5-.8-.48-1.13.02-.33.25-.69.55-.69zm1.79.27a.55.55 0 0 1 .14 0c.15.02.32.1.39.16.15.16.19.48.2.64l.01.17a.26.26 0 0 0-.21-.2.26.26 0 0 0-.3.23.26.26 0 0 0 .22.3.26.26 0 0 0 .28-.17c0 .11-.02.24-.04.37-.05.3-.88.02-1.03-.13-.16-.15-.24-.27-.2-.54.03-.21.38-.81.54-.83zm-1.6.02a.26.26 0 0 0-.26.23.26.26 0 0 0 .22.3.26.26 0 0 0 .3-.23.26.26 0 0 0-.22-.3.26.26 0 0 0-.05 0zm2.42 2c.2.11.32.3.27.67-.05.33-.64.75-.86 1.19a3.04 3.04 0 0 1 .03-.4c.06-.4.31-1.07.56-1.46zm-3.43.17c.25.44.44.84.6 1.3.07.22.07.45.04.68.03-.56-.96-.8-.85-1.59a.68.68 0 0 1 .2-.4z"/></svg>