<svg xmlns="http://www.w3.org/2000/svg" width="48" height="48" viewBox="0 0 12.7 12.7"><path fill="green" d="M6.34.08A6.27 6.27 0 0 0 .08 6.34a6.27 6.27 0 0 0 6.26 6.27 6.27 6.27 0 0 0 6.27-6.27A6.27 6.27 0 0 0 6.34.08zM6.33 1A5.39 5.39 0 0 1 11.7 6.4a5.39 5.39 0 0 1-5.38 5.39 5.39 5.39 0 0 1-5.4-5.4 5.39 5.39 0 0 1 5.4-5.38zm1.8 2.45c-.55 0-1.11.2-1.63.74a.22.22 0 0 1-.3.01 2.7 2.7 0 0 0-1.54-.74 2.04 2.04 0 0 0-.47.01c-1 .16-1.75 1.1-1.76 2.22 0 .9.22 1.45.86 2.14.62.68 1.65 1.48 3.12 2.72 1.4-1.33 2.41-2.23 3.04-2.93.65-.73.91-1.24.92-1.99 0-.76-.55-1.57-1.32-1.94a2.2 2.2 0 0 0-.93-.24z"/></svg>