<svg xmlns="http://www.w3.org/2000/svg" width="48" height="48" viewBox="0 0 12.7 12.7"><path fill="green" d="M6.34.07a6.29 6.29 0 0 0-6.29 6.3 6.29 6.29 0 0 0 6.3 6.28 6.29 6.29 0 0 0 6.28-6.29A6.29 6.29 0 0 0 6.34.07zm-.01.94a5.4 5.4 0 0 1 5.4 5.4 5.4 5.4 0 0 1-5.4 5.41 5.4 5.4 0 0 1-5.41-5.4A5.4 5.4 0 0 1 6.32 1zm-.38.6a4.74 4.74 0 0 0-4.33 4.72 4.74 4.74 0 0 0 4.73 4.74 4.73 4.73 0 0 0 4.66-3.89l-.04.1-5.05-.95.03-4.72zm.78.27h-.26L6.45 5.6l3.82-1.25a3.67 3.67 0 0 0-3.54-2.46zm3.64 2.75L6.5 5.93l4.02.76c.09-.2.22-1.13-.14-2.06z"/></svg>