<svg xmlns="http://www.w3.org/2000/svg" width="48" height="48" viewBox="0 0 12.7 12.7"><path fill="green" d="M6.34.07a6.29 6.29 0 0 0-6.29 6.3 6.29 6.29 0 0 0 6.3 6.28 6.29 6.29 0 0 0 6.28-6.29A6.29 6.29 0 0 0 6.34.07zm-.01.94a5.4 5.4 0 0 1 5.4 5.4 5.4 5.4 0 0 1-5.4 5.41 5.4 5.4 0 0 1-5.41-5.4A5.4 5.4 0 0 1 6.32 1zM5.7 2.45a.58.58 0 0 0-.33 1.05l.66.52H2.8a.58.58 0 1 0 0 1.16h1.47l-2.4 1.74a.58.58 0 1 0 .7.95l1.21-.9a3.11 3.12 0 0 0 0 .16 3.11 3.12 0 0 0 3.1 3.12 3.11 3.12 0 0 0 3.12-3.12 3.11 3.12 0 0 0-1.35-2.57.58.58 0 0 0-.04-.03L6.09 2.58a.58.58 0 0 0-.38-.13zm1.2 2.73a1.95 1.95 0 0 1 1.94 1.95 1.95 1.95 0 0 1-1.94 1.95 1.95 1.95 0 0 1-1.95-1.95A1.95 1.95 0 0 1 6.9 5.18zm0 .98a.97.97 0 0 0-.98.97.97.97 0 0 0 .98.97.97.97 0 0 0 .97-.97.97.97 0 0 0-.97-.98z"/></svg>