<svg xmlns="http://www.w3.org/2000/svg" width="48" height="48" version="1"><path d="M24 .23A23.77 23.77 0 0 0 .23 24.01 23.77 23.77 0 0 0 24 47.77 23.77 23.77 0 0 0 47.77 24 23.77 23.77 0 0 0 24 .23zm-.07 3.54a20.44 20.44 0 0 1 20.44 20.44 20.44 20.44 0 0 1-20.44 20.43A20.44 20.44 0 0 1 3.5 24.21 20.44 20.44 0 0 1 23.93 3.77zm0 3A17.44 17.44 0 0 0 6.5 24.22a17.44 17.44 0 0 0 17.43 17.44A17.44 17.44 0 0 0 41.37 24.2 17.44 17.44 0 0 0 23.93 6.77zm1.82 6.57h.42c1.42 0 2.64.67 3.68 2.02.56.85.85 1.7.85 2.58v3.53a4.72 4.72 0 0 1-2.65 2.44c-.71.26-1.4.39-2.05.39-1.89 0-3.4-.8-4.52-2.4l-.19-.32.04-.04h.7c1.03 1.4 2.27 2.09 3.72 2.09h.5c1.36 0 2.54-.64 3.56-1.9l.11-.19v-.85A4.77 4.77 0 0 1 26 22.8h-.08c-1.62 0-2.94-.76-3.99-2.27a4.52 4.52 0 0 1-.67-2.26v-.43c0-1.4.69-2.63 2.05-3.67a4.37 4.37 0 0 1 2.44-.82zm-10.54.02h.41c1.5 0 2.77.76 3.85 2.27v-2.2l.07-.07h.49l.07.07v4.61c0 1.8-.86 3.18-2.59 4.16a4.5 4.5 0 0 1-2.06.5h-.07c-1.6 0-2.92-.75-3.95-2.24a4.47 4.47 0 0 1-.66-2.24v-.42c0-1.4.67-2.6 2.02-3.64.81-.53 1.62-.8 2.42-.8zm10.75.62c-1.66 0-2.91.82-3.74 2.47-.21.48-.32 1-.32 1.6v.1c0 1.56.8 2.77 2.4 3.64.56.24 1.13.35 1.7.35 1.65 0 2.91-.85 3.78-2.54.19-.58.28-1.11.28-1.59 0-1.53-.76-2.74-2.3-3.64a4.37 4.37 0 0 0-1.7-.39h-.1zm-10.54.01c-1.65 0-2.89.82-3.7 2.44-.22.47-.32 1-.32 1.58v.1c0 1.54.8 2.75 2.38 3.6.55.23 1.1.35 1.67.35 1.63 0 2.88-.84 3.74-2.51.18-.58.28-1.1.28-1.58 0-1.51-.76-2.7-2.27-3.6a4.36 4.36 0 0 0-1.68-.38h-.1zm-5.04 11.08h19.75c.15 0 .28.13.28.28 0 .16-.13.29-.28.29H10.38a.28.28 0 1 1 0-.57z" fill="green"/></svg>