<svg xmlns="http://www.w3.org/2000/svg" width="48" height="48" viewBox="0 0 12.7 12.7"><path fill="green" d="M6.34.07a6.29 6.29 0 0 0-6.29 6.3 6.29 6.29 0 0 0 6.3 6.28 6.29 6.29 0 0 0 6.28-6.29A6.29 6.29 0 0 0 6.34.07zm-.01.94a5.4 5.4 0 0 1 5.4 5.4 5.4 5.4 0 0 1-5.4 5.41 5.4 5.4 0 0 1-5.41-5.4A5.4 5.4 0 0 1 6.32 1zM6.3 2.6c-.83 1.17-3.68 4.48-2.47 6.39.94 1.48 4.13 1.49 5.06 0 1.2-1.93-1.87-5.22-2.59-6.39zm1.73 4.43a.49.82-7.96 0 1 .05 0 .49.82-7.96 0 1 .53.84.49.82-7.96 0 1-.4.8.49.82-7.96 0 1-.57-.76l-.01-.16a.49.82-7.96 0 1 .4-.71z"/></svg>