<svg xmlns="http://www.w3.org/2000/svg" width="48" height="48" viewBox="0 0 12.7 12.7"><path fill="green" d="M6.35.06A6.29 6.29 0 0 0 .06 6.35a6.29 6.29 0 0 0 6.29 6.29 6.29 6.29 0 0 0 6.29-6.29A6.29 6.29 0 0 0 6.35.06zM6.33 1a5.4 5.4 0 0 1 5.4 5.4 5.4 5.4 0 0 1-5.4 5.41 5.4 5.4 0 0 1-5.4-5.4A5.4 5.4 0 0 1 6.33 1zm-.12 1c-.87 0-1.61.17-2.29.5-.22.12-.26.16-.24.28.03.25.15.27.53.1.71-.31 1.06-.38 1.95-.38 1.02 0 1.4.08 2.24.52.14.07.6.42.77.23.17-.16.08-.3-.35-.55a4.9 4.9 0 0 0-2.6-.7zM6.2 3.02a4.25 4.25 0 0 0-3.14 1.36c-.32.35-.7.93-.7 1.07 0 .17.07.26.2.26.09 0 .19-.1.42-.46a3.9 3.9 0 0 1 2.1-1.6c.67-.23 1.47-.2 2.24 0a4.02 4.02 0 0 1 2.3 1.96c.1.2.17.26.27.26.17 0 .27-.12.22-.28a4.5 4.5 0 0 0-.78-1.2A4.26 4.26 0 0 0 6.2 3.01zm.05 1a3.41 3.41 0 0 0-.74.07 3.33 3.33 0 0 0-2.47 2.4A5 5 0 0 0 3.2 9c.08.25.12.3.24.31.27.04.3-.1.14-.66-.47-1.6-.07-2.97 1.09-3.72a2.81 2.81 0 0 1 3.6.5c.56.64.86 1.72.62 2.2a.82.82 0 0 1-.88.41c-.23-.06-.51-.35-.55-.57-.13-.78-.3-1.09-.75-1.3-.39-.18-.7-.17-1.09.02-.35.18-.62.54-.67.9-.02.13-.01.41.02.63a3.26 3.26 0 0 0 2.47 2.73c.16.04.43.07.6.06h.3c.17-.1.18-.3 0-.39l-.43-.07A2.73 2.73 0 0 1 6.8 9.7a2.83 2.83 0 0 1-1.37-2.35c0-.4.15-.64.5-.79.26-.1.27-.1.52 0 .33.14.49.36.53.76.07.71.57 1.19 1.25 1.19.55 0 1.01-.36 1.17-.9.16-.55-.05-1.45-.5-2.13A3.22 3.22 0 0 0 6.24 4zm-.03 1.04a2.88 2.88 0 0 0-.98.18c-.45.22-.87.65-1.09 1.11-.16.35-.17.4-.17 1 0 .74.09 1.13.4 1.78a4.1 4.1 0 0 0 1.07 1.4c.36.3.4.31.55.2.16-.11.07-.3-.24-.54-.34-.26-.7-.73-.95-1.23-.41-.8-.51-1.8-.25-2.38.2-.42.49-.73.86-.91a1.9 1.9 0 0 1 1.55 0c.54.26.88.74 1 1.4.07.4.18.52.35.41.08-.05.1-.13.09-.43a2.2 2.2 0 0 0-1.27-1.82 2.13 2.13 0 0 0-.92-.17zm0 1.99a.28.28 0 0 0-.14.03c-.1.06-.11.1-.09.4a2.25 2.25 0 0 0 1.74 1.99c.42.1.53.09.63-.01.2-.2.06-.36-.35-.41a1.81 1.81 0 0 1-1.58-1.62c-.03-.26-.1-.38-.22-.38z"/></svg>