<svg xmlns="http://www.w3.org/2000/svg" width="48" height="48" viewBox="0 0 12.7 12.7"><path d="M6.34.07a6.29 6.29 0 0 0-6.29 6.3 6.29 6.29 0 0 0 6.3 6.28 6.29 6.29 0 0 0 6.28-6.29A6.29 6.29 0 0 0 6.34.07zm-.01.94a5.4 5.4 0 0 1 5.4 5.4 5.4 5.4 0 0 1-5.4 5.41 5.4 5.4 0 0 1-5.41-5.4A5.4 5.4 0 0 1 6.32 1zm-2.6 1.34c-.15 0-.27.13-.27.3v6.99c0 .16.12.3.27.3 0 0 1.31.4 2.62.4s2.62-.4 2.62-.4c.16 0 .28-.14.28-.3v-7c0-.16-.12-.29-.28-.29H3.73zm.61.6h4.02c.16 0 .29.13.29.29v5.02a.28.28 0 0 1-.29.28H4.34a.28.28 0 0 1-.29-.28V3.24c0-.16.13-.29.29-.29zm.11 6a.4.4 0 0 1 .4.4.4.4 0 0 1-.4.4.4.4 0 0 1-.4-.4.4.4 0 0 1 .4-.4zm1.2 0a.4.4 0 0 1 .4.4.4.4 0 0 1-.4.4.4.4 0 0 1-.4-.4.4.4 0 0 1 .4-.4zm1.4 0a.4.4 0 0 1 .4.4.4.4 0 0 1-.4.4.4.4 0 0 1-.4-.4.4.4 0 0 1 .4-.4zm1.2 0a.4.4 0 0 1 .4.4.4.4 0 0 1-.4.4.4.4 0 0 1-.4-.4.4.4 0 0 1 .4-.4z" fill="green"/></svg>