<svg xmlns="http://www.w3.org/2000/svg" width="48" height="48" viewBox="0 0 12.7 12.7"><path fill="green" d="M6.34.07a6.29 6.29 0 0 0-6.29 6.3 6.29 6.29 0 0 0 6.3 6.28 6.29 6.29 0 0 0 6.28-6.29A6.29 6.29 0 0 0 6.34.07zm-.01.94a5.4 5.4 0 0 1 5.4 5.4 5.4 5.4 0 0 1-5.4 5.41 5.4 5.4 0 0 1-5.41-5.4A5.4 5.4 0 0 1 6.32 1zM3.09 3c-.5.45-.71.58-.7.82 0 .25.33.45.62.3.03.1.04.23-.11.32h.4c-.13-.1-.14-.22-.1-.34.32.17.63-.03.63-.31 0-.3-.2-.39-.74-.8zm3.2 1.08C4.53 5.66 3.81 6.1 3.83 6.98c0 .84 1.19 1.56 2.2 1.01.11.38.15.8-.4 1.14h1.44c-.5-.34-.52-.78-.38-1.2 1.13.62 2.2-.1 2.19-1.09C8.86 5.82 8.2 5.5 6.29 4.1zm3.1 4.69c.16.1.15.22.11.33-.28-.16-.62.04-.63.29 0 .25.2.37.71.82.55-.4.74-.5.74-.79 0-.28-.3-.48-.63-.3-.04-.13-.03-.25.11-.35h-.4z"/></svg>