<svg xmlns="http://www.w3.org/2000/svg" width="48" height="48" viewBox="0 0 12.7 12.7"><path fill="green" d="M6.34.07a6.29 6.29 0 0 0-6.29 6.3 6.29 6.29 0 0 0 6.3 6.28 6.29 6.29 0 0 0 6.28-6.29A6.29 6.29 0 0 0 6.34.07zm-.01.94a5.4 5.4 0 0 1 5.4 5.4 5.4 5.4 0 0 1-5.4 5.41 5.4 5.4 0 0 1-5.41-5.4A5.4 5.4 0 0 1 6.32 1zM5.07 2.68a.34.34 0 0 0-.34.35v2.21H2.85a.34.34 0 0 0-.34.34v4.1a.34.34 0 0 0 .34.34h4.78a.34.34 0 0 0 .34-.34V7.47l1.88-.01a.34.34 0 0 0 .34-.34v-4.1a.34.34 0 0 0-.34-.34H5.07zm0 1.11h4.77c.05 0 .1.04.1.09v3.24a.09.09 0 0 1-.1.08H7.97V5.59a.34.34 0 0 0-.34-.34H4.97l.02-1.36c0-.05.03-.09.08-.09zM2.85 6.35h4.78c.05 0 .08.04.08.09v3.23a.09.09 0 0 1-.08.09H2.86a.09.09 0 0 1-.1-.08V6.44c0-.05.05-.09.1-.09zm2.4.16c-.42 0-.85.15-.98.46-.08.17 0 .47.25.47.15 0 .22-.1.23-.18 0-.07-.02-.13-.04-.18-.01-.07.06-.19.15-.24.07-.04.15-.06.16-.06a.6.6 0 0 1 .62.24c.11.17 0 .42-.18.67-.17.25-.35.53-.35.82v.2c0 .04.12.03.22.02-.01-.3.05-.57.32-.77.3-.22.57-.5.54-.83 0-.32-.38-.57-.78-.6a1.4 1.4 0 0 0-.17-.02zm-.03 2.6c-.24 0-.42.27-.27.45.13.2.5.15.57-.07.07-.18-.1-.38-.3-.37z"/></svg>