<svg xmlns="http://www.w3.org/2000/svg" width="48" height="48" viewBox="0 0 12.7 12.7"><path fill="green" d="M6.34.07a6.29 6.29 0 0 0-6.29 6.3 6.29 6.29 0 0 0 6.3 6.28 6.29 6.29 0 0 0 6.28-6.29A6.29 6.29 0 0 0 6.34.07zm-.01.94a5.4 5.4 0 0 1 5.4 5.4 5.4 5.4 0 0 1-5.4 5.41 5.4 5.4 0 0 1-5.41-5.4A5.4 5.4 0 0 1 6.32 1zm-3.5 1.78v4.25l2.42 1.07.05-.06a.55.55 0 0 1 .43-.2c.3 0 .55.25.55.56 0 .31-.25.57-.55.57a.56.56 0 0 1-.55-.49l-.01-.05-2.34-1.03v2.5h7.04V2.8h-1.1v2.15l.04.03c.15.1.24.27.24.45a.53.53 0 0 1-.53.53.53.53 0 0 1-.52-.53c0-.23.14-.44.36-.5l.06-.03V2.8H4.6v2.36h1.14l.02-.06a.55.55 0 0 1 .5-.36c.3 0 .55.25.55.56a.54.54 0 1 1-1.02.25l-.03-.05h-1.5V2.8H2.83zm3.44 2.25a.28.28 0 0 0-.28.28.28.28 0 0 0 .28.28.28.28 0 0 0 .28-.28.28.28 0 0 0-.28-.28zm2.25.1a.28.28 0 0 0-.27.28.28.28 0 0 0 .27.28.28.28 0 0 0 .28-.28.28.28 0 0 0-.28-.28zM6.8 6.3h2.5v.33L7.3 9.12h2.07v.36h-2.6v-.33l2-2.5H6.8V6.3zM5.71 8.13a.28.28 0 0 0-.27.28c0 .16.12.28.27.28A.28.28 0 0 0 6 8.41a.28.28 0 0 0-.28-.28z"/></svg>