<svg xmlns="http://www.w3.org/2000/svg" width="48" height="48" viewBox="0 0 12.7 12.7"><g fill="green"><path d="M6.34.08A6.27 6.27 0 0 0 .08 6.34a6.27 6.27 0 0 0 6.26 6.27 6.27 6.27 0 0 0 6.27-6.27A6.27 6.27 0 0 0 6.34.08zM6.33 1A5.39 5.39 0 0 1 11.7 6.4a5.39 5.39 0 0 1-5.38 5.39 5.39 5.39 0 0 1-5.4-5.4 5.39 5.39 0 0 1 5.4-5.38z"/><path d="M5.67 2.28l-.57 2.3h-2v.85h1.78l-.46 1.85H2.47v.85H4.2l-.57 2.3h.89l.57-2.3h1.63l-.58 2.3h.9l.57-2.3H9.6v-.85H7.83l.46-1.85h1.94v-.85H8.5l.57-2.3H8.2l-.58 2.3H5.99l.57-2.3zm.11 3.15H7.4l-.45 1.85H5.32z"/></g></svg>