<svg xmlns="http://www.w3.org/2000/svg" width="48" height="48" viewBox="0 0 12.7 12.7"><path d="M6.34.07a6.29 6.29 0 0 0-6.29 6.3 6.29 6.29 0 0 0 6.3 6.28 6.29 6.29 0 0 0 6.28-6.29A6.29 6.29 0 0 0 6.34.07zm-.01.94a5.4 5.4 0 0 1 5.4 5.4 5.4 5.4 0 0 1-5.4 5.41 5.4 5.4 0 0 1-5.41-5.4A5.4 5.4 0 0 1 6.32 1zM3.7 2.65A1.06 1.06 0 0 0 2.65 3.7 1.06 1.06 0 0 0 3.7 4.76 1.06 1.06 0 0 0 4.76 3.7 1.06 1.06 0 0 0 3.7 2.65zm2.65 0A1.06 1.06 0 0 0 5.29 3.7a1.06 1.06 0 0 0 1.06 1.06A1.06 1.06 0 0 0 7.41 3.7a1.06 1.06 0 0 0-1.06-1.05zm2.65 0A1.06 1.06 0 0 0 7.94 3.7 1.06 1.06 0 0 0 9 4.76a1.06 1.06 0 0 0 1.05-1.06A1.06 1.06 0 0 0 9 2.65zm-5.3.3a.75.75 0 0 1 .75.75.75.75 0 0 1-.75.75.75.75 0 0 1-.74-.75.75.75 0 0 1 .74-.74zm2.65 0a.75.75 0 0 1 .75.75.75.75 0 0 1-.75.75.75.75 0 0 1-.75-.75.75.75 0 0 1 .75-.74zM3.7 5.3a1.06 1.06 0 0 0-1.05 1.06A1.06 1.06 0 0 0 3.7 7.41a1.06 1.06 0 0 0 1.06-1.06A1.06 1.06 0 0 0 3.7 5.29zm2.65 0a1.06 1.06 0 0 0-1.06 1.06 1.06 1.06 0 0 0 1.06 1.06 1.06 1.06 0 0 0 1.06-1.06A1.06 1.06 0 0 0 6.35 5.3zM9 5.3a1.06 1.06 0 0 0-1.06 1.06A1.06 1.06 0 0 0 9 7.41a1.06 1.06 0 0 0 1.05-1.06A1.06 1.06 0 0 0 9 5.29zm-5.3.31a.75.75 0 0 1 .75.75.75.75 0 0 1-.75.75.75.75 0 0 1-.74-.75.75.75 0 0 1 .74-.75zm5.3 0a.75.75 0 0 1 .74.75.75.75 0 0 1-.74.75.75.75 0 0 1-.75-.75A.75.75 0 0 1 9 5.6zM3.7 7.94A1.06 1.06 0 0 0 2.65 9a1.06 1.06 0 0 0 1.05 1.05A1.06 1.06 0 0 0 4.76 9 1.06 1.06 0 0 0 3.7 7.94zm2.65 0A1.06 1.06 0 0 0 5.29 9a1.06 1.06 0 0 0 1.06 1.05A1.06 1.06 0 0 0 7.41 9a1.06 1.06 0 0 0-1.06-1.06zm2.65 0A1.06 1.06 0 0 0 7.94 9 1.06 1.06 0 0 0 9 10.05 1.06 1.06 0 0 0 10.05 9 1.06 1.06 0 0 0 9 7.94zm-2.65.31A.75.75 0 0 1 7.1 9a.75.75 0 0 1-.75.74A.75.75 0 0 1 5.6 9a.75.75 0 0 1 .75-.75zm2.65 0a.75.75 0 0 1 .74.75.75.75 0 0 1-.74.74.75.75 0 0 1-.75-.74.75.75 0 0 1 .75-.75z" fill="green"/></svg>