<svg xmlns="http://www.w3.org/2000/svg" width="48" height="48" viewBox="0 0 12.7 12.7"><path fill="green" d="M6.34.07a6.29 6.29 0 0 0-6.29 6.3 6.29 6.29 0 0 0 6.3 6.28 6.29 6.29 0 0 0 6.28-6.29A6.29 6.29 0 0 0 6.34.07zm-.01.94a5.4 5.4 0 0 1 5.4 5.4 5.4 5.4 0 0 1-5.4 5.41 5.4 5.4 0 0 1-5.41-5.4A5.4 5.4 0 0 1 6.32 1zm.02 1c-2.25 0-3.54.63-3.7 1.27a.14.14 0 0 0-.03.07v.35c.42.44 1.84.85 3.73.85s3.3-.41 3.73-.85v-.35a.14.14 0 0 0-.02-.07c-.17-.64-1.45-1.27-3.71-1.27zM2.62 4.23v1.4c.4.41 1.65.8 3.33.85h.81c1.68-.06 2.93-.44 3.32-.85v-1.4c-.73.5-2.26.76-3.73.76-1.47 0-3-.26-3.73-.76zm0 1.96v1.4c.42.44 1.85.85 3.73.85s3.3-.41 3.73-.85v-1.4a3.05 3.05 0 0 1-.75.35c-.63.22-1.5.37-2.59.4a16.83 16.83 0 0 1-.78 0 8.78 8.78 0 0 1-2.6-.4 3.05 3.05 0 0 1-.74-.35zm0 1.94v1.22a.14.14 0 0 0 .02.07c.17.73 1.75 1.27 3.71 1.27s3.53-.54 3.71-1.27a.15.15 0 0 0 .02-.07V8.13c-.62.43-1.89.77-3.73.77s-3.11-.34-3.73-.77z"/></svg>