<svg xmlns="http://www.w3.org/2000/svg" width="48" height="48" viewBox="0 0 12.7 12.7"><path fill="green" d="M6.34.07a6.29 6.29 0 0 0-6.29 6.3 6.29 6.29 0 0 0 6.3 6.28 6.29 6.29 0 0 0 6.28-6.29A6.29 6.29 0 0 0 6.34.07zm-.01.94a5.4 5.4 0 0 1 4.1 1.9H2.21a5.4 5.4 0 0 1 4.12-1.9zM1.6 3.78h1.08c.03 0 .07 0 .1.02a.34.34 0 0 1 .15.17.52.52 0 0 1 .04.2v4.39a.52.52 0 0 1-.04.2.48.48 0 0 1-.04.07.32.32 0 0 1-.12.1l-.09.01H1.55a5.4 5.4 0 0 1-.3-.7V4.6a5.4 5.4 0 0 1 .36-.81zm2.06 0h7.37a5.4 5.4 0 0 1 .7 2.64 5.4 5.4 0 0 1-.64 2.52H3.7a.22.22 0 0 1-.09-.01.33.33 0 0 1-.15-.17.52.52 0 0 1-.04-.2v-4.4a.52.52 0 0 1 .04-.19.33.33 0 0 1 .15-.17l.06-.02zm2.74.25a2.31 2.31 0 0 0-1.82.89l.29.18a1.98 1.98 0 1 1 0 2.5l-.29.19a2.3 2.3 0 0 0 1.82.88 2.32 2.32 0 0 0 2.32-2.32A2.32 2.32 0 0 0 6.4 4.03zm-5.17.57v3.64a5.4 5.4 0 0 1-.32-1.82 5.4 5.4 0 0 1 .32-1.82zm2.74.29v2.9l2.45-1.45-2.45-1.45zm2.43.05c-.42 0-.8.18-1.05.46l.3.19a1.08 1.08 0 0 1 1.82.77c0 .6-.48 1.08-1.07 1.08-.3 0-.57-.12-.76-.32l-.3.19a1.42 1.42 0 1 0 1.06-2.37zM2.1 9.79h8.43a5.4 5.4 0 0 1-4.21 2.03A5.4 5.4 0 0 1 2.1 9.8z"/></svg>