<svg xmlns="http://www.w3.org/2000/svg" width="48" height="48" viewBox="0 0 12.7 12.7"><path fill="green" d="M6.34.07a6.29 6.29 0 0 0-6.29 6.3 6.29 6.29 0 0 0 6.3 6.28 6.29 6.29 0 0 0 6.28-6.29A6.29 6.29 0 0 0 6.34.07zm-.01.94a5.4 5.4 0 0 1 5.4 5.4 5.4 5.4 0 0 1-5.4 5.41 5.4 5.4 0 0 1-5.41-5.4A5.4 5.4 0 0 1 6.32 1zm-.04 1C5.06 2 4.05 3 4.05 4.22c0 .72.36 1.33.88 1.74-.27.4-.58.86-.67 1.02-.27.47-1.5 2.7-1.24 3.18.26.46 2.76.53 3.29.53.54 0 3.08-.06 3.36-.53.28-.46-.92-2.65-1.18-3.1a31.67 31.67 0 0 0-.75-1.16A2.23 2.23 0 0 0 6.3 2zm.12 5.16c.39 0 .66.14.82.43.11.22.17.54.18.97H5.98c.02.14.05.25.08.32.11.25.33.37.65.37.2 0 .43-.05.7-.15v.46c-.28.09-.55.14-.81.14-.4 0-.72-.12-.96-.35a1.28 1.28 0 0 1-.35-.95c0-.38.1-.68.3-.9.2-.23.48-.34.82-.34zm0 .4c-.15 0-.26.08-.33.24-.05.08-.08.22-.1.39h.79c-.01-.2-.03-.34-.07-.43-.06-.13-.16-.2-.29-.2z"/></svg>