<svg xmlns="http://www.w3.org/2000/svg" width="48" height="48" viewBox="0 0 12.7 12.7"><path d="M6.34.07a6.29 6.29 0 0 0-6.29 6.3 6.29 6.29 0 0 0 6.3 6.28 6.29 6.29 0 0 0 6.28-6.29A6.29 6.29 0 0 0 6.34.07zm-.01.94a5.4 5.4 0 0 1 4.19 2H2.13a5.4 5.4 0 0 1 4.2-2zm-2.3.83v.9h.9v-.9h-.9zm1.4.26v.36h3.1v-.35h-3.1zm-3.6 1.33H2.9v6.2c0 .36.26.66.58.66h3.9c.32 0 .58-.3.58-.66V7.46L9.6 5.83l-1-.99-.64.65V3.43h2.86a5.4 5.4 0 0 1 .9 2.99 5.4 5.4 0 0 1-5.4 5.4 5.4 5.4 0 0 1-5.41-5.4 5.4 5.4 0 0 1 .9-2.99zm1.5 0h4.22a.64.64 0 0 1 .02.15v2.3l-.83.82h-.4v.02H5.06v.35h1.28v.04l-.65.65v.37h-.64v.36h.64v.26h.99l.26-.26h.24v-.24l.4-.4v1.27c0 .31-.22.56-.5.56H3.8c-.27 0-.48-.25-.48-.56V3.58a.64.64 0 0 1 .02-.15zm.33.38v.9h.9v-.9h-.9zm5.9.18a.26.26 0 0 0-.18.08l-.48.48.99 1 .48-.49a.27.27 0 0 0 0-.37l-.62-.62a.26.26 0 0 0-.18-.08zm-4.5.08v.35h2.13v-.35H5.06zm-1.4 1.01v.9h.9v-.9h-.9zm1.4.26v.36H7.2v-.36H5.06zm-1.4 1.11v.9h.9v-.9h-.9zm0 1.42v.9h.9v-.9h-.9z" fill="green"/></svg>