<svg xmlns="http://www.w3.org/2000/svg" width="48" height="48" viewBox="0 0 12.7 12.7"><path fill="green" d="M6.34.07a6.29 6.29 0 0 0-6.29 6.3 6.29 6.29 0 0 0 6.3 6.28 6.29 6.29 0 0 0 6.28-6.29A6.29 6.29 0 0 0 6.34.07zm-.01.94a5.4 5.4 0 0 1 5.4 5.4 5.4 5.4 0 0 1-5.4 5.41 5.4 5.4 0 0 1-5.41-5.4A5.4 5.4 0 0 1 6.32 1zM2.88 2.88a.5.5 0 0 0-.5.5v5.95c0 .27.22.5.5.5h6.94a.5.5 0 0 0 .5-.5V3.37a.5.5 0 0 0-.5-.5H2.88zm0 1.61h6.94c.07 0 .13.06.13.12v4.72a.12.12 0 0 1-.13.12H2.88a.12.12 0 0 1-.13-.12V4.6c0-.07.06-.12.13-.12zm1.73.3a.4.4 0 0 0-.27.12l-.08.08a.41.41 0 0 0 0 .59l1.59 1.6a.42.42 0 0 0 .42.1l1.39 1.38.04.15a.1.1 89.98 0 0 .04.06l.46.32a.1.1 89.98 0 0 .13-.01l.2-.2a.1.1 89.98 0 0 .01-.14l-.3-.45a.1.1 89.98 0 0-.07-.04l-.15-.05-1.39-1.39a.41.41 0 0 0-.1-.4l-1.6-1.6a.42.42 0 0 0-.25-.12.4.4 0 0 0-.07 0zm2.92.03a.05.05 0 0 0-.02 0c-.25.1-.49.27-.6.47a.69.69 0 0 0-.06.51 1.35 1.35 0 0 1-.32.47l.18.2a.64.64 0 0 1 .1.42c.2-.2.56-.45.69-.5.32.06.64-.07.79-.35.11-.2.14-.5.08-.76a.05.05 0 0 0-.06-.04.05.05 0 0 0-.04.03l-.31.56c-.03.05-.09.07-.17.07a.63.63 0 0 1-.27-.09.62.62 0 0 1-.22-.18c-.04-.06-.06-.13-.03-.18l.3-.55a.06.06 0 0 0 0-.06.05.05 0 0 0-.04-.02zM5.59 7.15L4.3 8.4c-.14.14-.12.38.04.54.16.16.4.18.54.04l1.4-1.51c-.26.08-.48-.04-.68-.3zm-.97 1.28a.2.2 0 0 1 .14.35.2.2 0 1 1-.29-.28.2.2 0 0 1 .15-.07z"/></svg>