<svg xmlns="http://www.w3.org/2000/svg" width="48" height="48" viewBox="0 0 12.7 12.7"><path d="M6.35.08A6.27 6.27 0 0 0 .08 6.35a6.27 6.27 0 0 0 6.27 6.27 6.27 6.27 0 0 0 6.27-6.27A6.27 6.27 0 0 0 6.35.08zm-.02.94a5.39 5.39 0 0 1 5.4 5.38 5.39 5.39 0 0 1-5.4 5.4A5.39 5.39 0 0 1 .94 6.4a5.39 5.39 0 0 1 5.4-5.39zm0 1.34c-2.18 0-3.75 1.58-3.75 3.95 0 2.12 1.53 4.03 3.75 4.03 2.25 0 3.78-1.91 3.78-4.03 0-2.39-1.61-3.95-3.78-3.95zm0 .65C7.54 3 7.78 4.7 7.78 6.25c0 1.34-.11 3.34-1.43 3.34-1.3 0-1.41-2.01-1.41-3.34 0-1.45.2-3.24 1.4-3.24z" fill="green"/></svg>