<svg xmlns="http://www.w3.org/2000/svg" width="48" height="48" version="1"><path d="M24 .23A23.77 23.77 0 0 0 .23 24.01 23.77 23.77 0 0 0 24 47.77 23.77 23.77 0 0 0 47.77 24 23.77 23.77 0 0 0 24 .23zm-.07 3.54a20.44 20.44 0 0 1 20.44 20.44 20.44 20.44 0 0 1-20.44 20.43A20.44 20.44 0 0 1 3.5 24.21 20.44 20.44 0 0 1 23.93 3.77zm0 3A17.44 17.44 0 0 0 6.5 24.22a17.44 17.44 0 0 0 17.43 17.44A17.44 17.44 0 0 0 41.37 24.2 17.44 17.44 0 0 0 23.93 6.77zm1.56 6.66h.41c.88 0 1.71.29 2.5.86v.73h-.07a3.92 3.92 0 0 0-2.53-.97h-.1a4.02 4.02 0 0 0-4 3.68h8.57l.08.07v.27c0 1.78-.86 3.16-2.57 4.13a4.5 4.5 0 0 1-2.05.5h-.07a4.4 4.4 0 0 1-2.64-.88v-.72h.07c.78.64 1.66.97 2.64.97 1.67 0 2.92-.87 3.75-2.6.14-.47.2-.83.2-1.08h-8.53l-.07-.07v-.52c0-1.31.66-2.5 1.98-3.57.86-.54 1.66-.8 2.43-.8zm-10.32 0h.42c1.38 0 2.58.67 3.6 1.98.55.82.83 1.69.83 2.6v.07c0 1.77-.85 3.15-2.56 4.12-.65.33-1.33.5-2.05.5h-.06c-1.6 0-2.91-.76-3.96-2.26v2.18l-.07.07h-.48l-.07-.07v-4.78c0-1.38.67-2.58 2-3.6.8-.54 1.6-.8 2.4-.8zm.2.63c-1.63 0-2.85.81-3.66 2.43-.21.46-.32.98-.32 1.56v.1c0 1.53.79 2.72 2.36 3.57.55.23 1.1.35 1.66.35 1.62 0 2.86-.84 3.71-2.5.18-.57.27-1.09.27-1.55 0-1.5-.75-2.7-2.25-3.58a4.31 4.31 0 0 0-1.66-.38h-.1zm-5 10.44h19.76c.15 0 .28.13.28.29 0 .15-.13.28-.28.28H10.38a.28.28 0 0 1-.29-.28c0-.16.13-.29.29-.29z" fill="green"/></svg>