<svg xmlns="http://www.w3.org/2000/svg" width="48" height="48" viewBox="0 0 12.7 12.7"><path fill="green" d="M6.34.07a6.29 6.29 0 0 0-6.29 6.3 6.29 6.29 0 0 0 6.3 6.28 6.29 6.29 0 0 0 6.28-6.29A6.29 6.29 0 0 0 6.34.07zm-.01.94a5.4 5.4 0 0 1 5.4 5.4 5.4 5.4 0 0 1-5.4 5.41 5.4 5.4 0 0 1-5.41-5.4A5.4 5.4 0 0 1 6.32 1zM5.25 2.12a3.13 3.13 0 0 0-3.12 3.12 3.13 3.13 0 0 0 3.12 3.11c.66 0 1.27-.2 1.77-.55L9.1 9.9a.57.57 0 1 0 .8-.8L7.82 7c.35-.5.55-1.1.55-1.76a3.13 3.13 0 0 0-3.12-3.12zm0 1.13a1.98 1.98 0 0 1 1.99 1.99 1.98 1.98 0 0 1-1.99 1.98 1.98 1.98 0 0 1-1.98-1.98c0-1.1.88-1.99 1.98-1.99z"/></svg>