<svg xmlns="http://www.w3.org/2000/svg" width="48" height="48" viewBox="0 0 12.7 12.7"><path fill="green" d="M6.34.07a6.29 6.29 0 0 0-6.29 6.3 6.29 6.29 0 0 0 6.3 6.28 6.29 6.29 0 0 0 6.28-6.29A6.29 6.29 0 0 0 6.34.07zm-.01.94a5.4 5.4 0 0 1 5.4 5.4 5.4 5.4 0 0 1-5.4 5.41 5.4 5.4 0 0 1-5.41-5.4A5.4 5.4 0 0 1 6.32 1zM3.4 3.04c-.37 0-.67.3-.67.67V8.3c0 .37.3.67.67.67h1.68v.8H3.52v.62h5.84v-.62H7.75v-.8h1.64c.37 0 .67-.3.67-.67V3.71c0-.37-.3-.67-.67-.67H3.4zm.5.67h5c.3 0 .53.23.53.52v3.53c0 .3-.23.52-.52.52h-5a.52.52 0 0 1-.52-.52V4.23c0-.29.23-.52.52-.52zm.67.44l-.09.5-.5.07.5.1.1.5.07-.5.5-.08-.5-.09-.08-.5zm2.35.41l-.08.5-.5.08.5.1.09.5.08-.5.5-.08-.5-.1-.09-.5zm1.59.5c.07.17.1.36.1.56A1.42 1.42 0 0 1 6.6 6.9a1.41 1.41 0 0 0 1.3.87 1.42 1.42 0 0 0 1.4-1.43c0-.56-.31-1.04-.78-1.28zm-2.93.26l-.09.5-.5.08.5.1.1.5.07-.5.5-.08-.5-.1-.08-.5zm-1.51.84l-.1.5-.5.08.5.1.1.5.08-.5.5-.08-.5-.1-.08-.5z"/></svg>