<svg xmlns="http://www.w3.org/2000/svg" width="48" height="48" viewBox="0 0 12.7 12.7"><path fill="green" d="M6.34.08A6.27 6.27 0 0 0 .08 6.34a6.27 6.27 0 0 0 6.26 6.27 6.27 6.27 0 0 0 6.27-6.27A6.27 6.27 0 0 0 6.34.08zM6.33 1A5.39 5.39 0 0 1 11.7 6.4a5.39 5.39 0 0 1-5.38 5.39 5.39 5.39 0 0 1-5.4-5.4 5.39 5.39 0 0 1 5.4-5.38zm3.02 1.8l-.23.47.32.32.47-.23-.06-.5-.5-.06zm-.42.5l-.12.1.5.5.11-.12-.49-.49zm-.2.18l-.67.68.49.5.68-.69-.5-.49zM8 4.23l-.92.91-.45-.45-2.18 2.19-.41.87-.6.6.22.2-.97.99.45.45.98-.98.2.21.6-.58.89-.4 2.18-2.19-.42-.41.92-.92L8 4.23z"/></svg>