<svg xmlns="http://www.w3.org/2000/svg" width="48" height="48" viewBox="0 0 12.7 12.7"><path fill="green" d="M6.34.07a6.29 6.29 0 0 0-6.29 6.3 6.29 6.29 0 0 0 6.3 6.28 6.29 6.29 0 0 0 6.28-6.29A6.29 6.29 0 0 0 6.34.07zm-.01.94a5.4 5.4 0 0 1 5.4 5.4 5.4 5.4 0 0 1-5.4 5.41 5.4 5.4 0 0 1-5.41-5.4A5.4 5.4 0 0 1 6.32 1zM5.5 2.88c-1.84 0-3.2 1.03-2.9 3.1.41-2.47 3.13-2.46 5.45-.8L7.04 6.28h3.1l-.02-3.3-1.02.98a7.15 7.15 0 0 0-3.6-1.08zM2.56 6.53l.02 3.3 1.02-.98c3.22 1.91 6.98 1.28 6.5-2.04-.41 2.47-3.13 2.46-5.45.8l1.01-1.08h-3.1z"/></svg>