<svg xmlns="http://www.w3.org/2000/svg" width="48" height="48" viewBox="0 0 12.7 12.7"><path fill="green" d="M6.34.07a6.29 6.29 0 0 0-6.29 6.3 6.29 6.29 0 0 0 6.3 6.28 6.29 6.29 0 0 0 6.28-6.29A6.29 6.29 0 0 0 6.34.07zm-.01.94a5.4 5.4 0 0 1 5.4 5.4 5.4 5.4 0 0 1-5.4 5.41 5.4 5.4 0 0 1-5.41-5.4A5.4 5.4 0 0 1 6.32 1zm.02 1.12c-1.64 0-2.95.1-2.95.24v7.96c0 .13 1.31.24 2.95.24s2.95-.1 2.95-.24V2.37c0-.13-1.31-.24-2.95-.24zm-1.68.83a.84.84 0 0 1 .84.84.84.84 0 0 1-.84.85.84.84 0 0 1-.83-.85.84.84 0 0 1 .83-.84zm3.34 0a.84.84 0 0 1 .84.84.84.84 0 0 1-.84.85.84.84 0 0 1-.84-.85.84.84 0 0 1 .84-.84zM6.36 5.49a2.12 2.14 0 0 1 2.12 2.13 2.12 2.14 0 0 1-2.12 2.14 2.12 2.14 0 0 1-2.12-2.14A2.12 2.14 0 0 1 6.36 5.5zm0 1.27a.84.84 0 0 0-.83.85.84.84 0 0 0 .84.84.84.84 0 0 0 .83-.84.84.84 0 0 0-.83-.85z"/></svg>