<svg xmlns="http://www.w3.org/2000/svg" width="48" height="48" viewBox="0 0 12.7 12.7"><path d="M6.35.08A6.27 6.27 0 0 0 .08 6.35a6.27 6.27 0 0 0 6.27 6.27 6.27 6.27 0 0 0 6.27-6.27A6.27 6.27 0 0 0 6.35.08zm-.02.94a5.39 5.39 0 0 1 5.4 5.38 5.39 5.39 0 0 1-5.4 5.4A5.39 5.39 0 0 1 .94 6.4a5.39 5.39 0 0 1 5.4-5.39zM5.56 3.7V9h1.58V7.15h.4a.33.33 0 0 1 .22.09c.4.53.66 1.17.97 1.76h1.85l-1-1.77s-.03-.07-.1-.14a.76.76 0 0 0-.2-.14.63.63 0 0 0-.27-.07c.04-.01 1.05-.28 1.09-1.58-.05-1.33-1.37-1.59-1.68-1.59H5.56zm1.58 1.05H8.2s.27 0 .27.61c0 .72-.27.72-.27.72H7.14V4.76z" fill="green"/><path d="M6.35 2.12a4.5 3.17 0 0 0-4.5 3.17 4.5 3.17 0 0 0 4.5 3.18 4.5 3.17 0 0 0 4.5-3.18 4.5 3.17 0 0 0-4.5-3.17zm.53 1.05a3.44 2.12 0 0 1 3.44 2.12 3.44 2.12 0 0 1-3.44 2.12 3.44 2.12 0 0 1-3.44-2.12 3.44 2.12 0 0 1 3.44-2.12z" opacity=".6" fill="green"/></svg>