<svg xmlns="http://www.w3.org/2000/svg" width="48" height="48" viewBox="0 0 12.7 12.7"><path fill="green" d="M6.34.07a6.29 6.29 0 0 0-6.29 6.3 6.29 6.29 0 0 0 6.3 6.28 6.29 6.29 0 0 0 6.28-6.29A6.29 6.29 0 0 0 6.34.07zm-.01.94a5.4 5.4 0 0 1 5.4 5.4 5.4 5.4 0 0 1-5.4 5.41 5.4 5.4 0 0 1-5.41-5.4A5.4 5.4 0 0 1 6.32 1zM2.7 3.24c-.14 0-.26.02-.26.04v.75c0 .01.12.03.26.03h7.25c.14 0 .26-.02.26-.03v-.75c0-.02-.12-.04-.26-.04H2.7zm-.24 1.02V9.3c0 .14.11.25.26.25h7.24a.26.26 0 0 0 .26-.26V4.25H2.46zm4.82.44v.97h2.13v2.51H7.28v.97l-2.7-2.23 2.7-2.22zm-4.34.38h1.1v1.29h-1.1V5.08zm0 1.84h1.1v1.29h-1.1V6.92z"/></svg>