<svg xmlns="http://www.w3.org/2000/svg" width="48" height="48" viewBox="0 0 12.7 12.7"><path fill="green" d="M6.34.07a6.29 6.29 0 0 0-6.29 6.3 6.29 6.29 0 0 0 6.3 6.28 6.29 6.29 0 0 0 6.28-6.29A6.29 6.29 0 0 0 6.34.07zm-.01.94a5.4 5.4 0 0 1 5.4 5.4 5.4 5.4 0 0 1-5.4 5.41 5.4 5.4 0 0 1-5.41-5.4A5.4 5.4 0 0 1 6.32 1zM4.7 2.14c-.2-.01-.1.21-.12.33V7.5c-.03.16-.22.13-.33.1-.7-.06-1.5.43-1.6 1.17-.1.56.46 1.04 1 .99a1.36 1.36 0 0 0 1.2-1.5V4.19c.03-.15.22-.16.31-.07.67.39 1.27 1.03 1.32 1.83.03.16-.02.56 0 .57.23-.88-.01-1.88-.68-2.5a3.49 3.49 0 0 1-.98-1.86.27.27 0 0 0-.12-.02zm3.96 1.48L7.05 5.24h.93v2.32h-.93l1.62 1.62 1.63-1.62h-.93V5.24h.93L8.67 3.62z"/></svg>