<svg xmlns="http://www.w3.org/2000/svg" width="48" height="48" viewBox="0 0 12.7 12.7"><path fill="green" d="M6.35 1.84a4.5 4.48 0 0 0-4.5 4.49 4.5 4.48 0 0 0 4.5 4.48 4.5 4.48 0 0 0 4.5-4.48 4.5 4.48 0 0 0-4.5-4.48zm-.81 2.01c.7 0 1.44.08 2.11.23a6.82 6.82 0 0 1 1.57.52c.28.14.38.22.43.33a.5.5 0 0 1 .01.34.45.45 0 0 1-.49.25 3.02 3.02 0 0 1-.37-.16 6.69 6.69 0 0 0-2.28-.61c-.35-.04-1.45-.05-1.8-.01a7.8 7.8 0 0 0-1 .17c-.27.07-.35.07-.48 0a.4.4 0 0 1-.23-.37c0-.14.05-.23.15-.32.08-.07.1-.08.4-.15a8.37 8.37 0 0 1 1.98-.22zm-.16 1.68h.41a6.09 6.09 0 0 1 2.84.73c.38.21.46.3.5.49.03.22-.16.45-.38.45a.9.9 0 0 1-.23-.11 5.3 5.3 0 0 0-2.25-.75 5.04 5.04 0 0 0-.74-.02c-.55 0-.84.05-1.29.17a2.62 2.62 0 0 1-.33.08c-.09 0-.23-.09-.28-.17-.13-.2-.05-.48.15-.58a5.46 5.46 0 0 1 1.6-.3zm.2 1.67h.32a4.3 4.3 0 0 1 .57.04c.66.12 1.2.34 1.7.7.3.2.37.28.4.48.03.22-.12.45-.3.45a.66.66 0 0 1-.18-.11A3.7 3.7 0 0 0 6.29 8a3.24 3.24 0 0 0-.6-.02c-.43 0-.67.05-1.03.17a1.77 1.77 0 0 1-.26.08c-.07 0-.19-.09-.23-.17-.1-.2-.04-.48.13-.58a3.65 3.65 0 0 1 1.27-.3z" opacity=".75"/><path fill="green" d="M6.34.07a6.29 6.29 0 0 0-6.29 6.3 6.29 6.29 0 0 0 6.3 6.28 6.29 6.29 0 0 0 6.28-6.29A6.29 6.29 0 0 0 6.34.07zm-.01.94a5.4 5.4 0 0 1 5.4 5.4 5.4 5.4 0 0 1-5.4 5.41 5.4 5.4 0 0 1-5.41-5.4A5.4 5.4 0 0 1 6.32 1z"/></svg>