<svg xmlns="http://www.w3.org/2000/svg" width="48" height="48" viewBox="0 0 12.7 12.7"><path fill="green" d="M6.34.07a6.29 6.29 0 0 0-6.29 6.3 6.29 6.29 0 0 0 6.3 6.28 6.29 6.29 0 0 0 6.28-6.29A6.29 6.29 0 0 0 6.34.07zm-.01.94a5.4 5.4 0 0 1 5.4 5.4 5.4 5.4 0 0 1-5.4 5.41 5.4 5.4 0 0 1-5.41-5.4A5.4 5.4 0 0 1 6.32 1zm1.41 1.15a2.41 2.41 0 0 0-2.41 2.42c0 .28.05.56.14.85L2.49 8.4v1.42H3.9v-.85h.85v-.85h.85L6.9 6.85c.26.08.54.14.85.14a2.41 2.41 0 0 0 2.42-2.42 2.41 2.41 0 0 0-2.42-2.41zm.71.85c.49 0 .85.37.85.86s-.37.85-.85.85a.84.84 0 0 1-.85-.86c0-.48.37-.85.85-.85z"/></svg>