<svg xmlns="http://www.w3.org/2000/svg" width="48" height="48" viewBox="0 0 12.7 12.7"><path fill="green" d="M6.34.07a6.29 6.29 0 0 0-6.29 6.3 6.29 6.29 0 0 0 6.3 6.28 6.29 6.29 0 0 0 6.28-6.29A6.29 6.29 0 0 0 6.34.07zm-.01.94a5.4 5.4 0 0 1 5.4 5.4 5.4 5.4 0 0 1-5.4 5.41 5.4 5.4 0 0 1-5.41-5.4A5.4 5.4 0 0 1 6.32 1zm-.66.52c-.24-.02-.88.13-1.45.75a4.4 4.4 0 0 0-2.77 4.06A4.14 4.14 0 0 0 3.3 9.89a2.07 2.07 0 0 0 .71.33c.03.01-.35-.58-.51-1.29.32.33.7.59 1.13.63.04 0-.15-.23-.37-.55l3.47 1.15c-.31.32-.73.63-1.3.91 0 0 1.28-.1 1.92-.82-.26.6-.97.92-.97.92.52-.08 1.9-.49 2.77-1.58 1-1.24 1.3-2.4 1-3.96-.3-1.58-1.67-3.03-2.88-3.32a3.7 3.7 0 0 0-1.29-.44 4.53 4.53 0 0 0-1.45.02c.13-.13.28-.19.28-.19a1.6 1.6 0 0 0-.64.28L5.13 2l-.2.05.15-.18c.24-.23.6-.35.6-.35zm.16 1.22c-.12.06-.25.14-.37.23a3.47 3.47 0 0 0-.18.15c-.3.27-.59.61-.82.92a.22.22 0 0 1 .02.08.3.3 0 0 1 0 .1l-.02.04a.56.56 0 0 1-.02.07.55.55 0 0 1-.07.12.4.4 0 0 1-.3.14l-.2.3a1.95 1.95 0 0 1-.07-.65v-.09a1.16 1.16 0 0 1 .04-.15.86.86 0 0 1 .03-.1l.03-.07.01-.01A.62.62 0 0 1 4 3.72c.55-.61 1.92-1.02 1.84-.97zM2.97 4.1l.15.03.17.03.03.19c.04.15.04.4.01.56 0 .03-.1.11-.12.33v.02a66 66 0 0 0-.58-.85 1.44 1.44 0 0 1 .34-.3zm1.22.1a.14.14 0 0 0-.12.07.04.04 0 0 1 .03 0 .04.04 0 0 1 .04.04.04.04 0 0 1-.04.04.04.04 0 0 1-.05-.04v.03a.14.14 0 0 0 .13.15.14.14 0 0 0 .15-.14.14.14 0 0 0-.14-.15zm-.13.07a.04.04 0 0 0-.01.04.14.14 0 0 1 .01-.04zm-1.52.25c.34.48 2.03 3.02 2.13 3.02h.03c.73-.27 2.7-.94 3.86-1.34-.02.56-.2 1.05-.48 1.3.25-.05.51-.34.75-.81l-.09.7c-.08.6-.03 1.68-.92 2.66L2.2 8.2a4.9 4.9 0 0 1-.2-1.81c.1.18.4.34.58.34a1.87 1.87 0 0 1-.03-2.2zm2.58.03l3.25.55c.11.28.17.57.18.86A58.95 58.95 0 0 1 4.7 7.34c-.06.01-.69-.9-1.27-1.75.27-.33.5-.4.5-.4.42-.18.59-.36 1.03-.58a.54.54 0 0 1 .16-.05z"/></svg>