<svg xmlns="http://www.w3.org/2000/svg" width="48" height="48" viewBox="0 0 12.7 12.7"><path d="M6.34.07a6.29 6.29 0 0 0-6.29 6.3 6.29 6.29 0 0 0 6.3 6.28 6.29 6.29 0 0 0 6.28-6.29A6.29 6.29 0 0 0 6.34.07zm-.01.94a5.4 5.4 0 0 1 5.4 5.4 5.4 5.4 0 0 1-5.4 5.41 5.4 5.4 0 0 1-5.41-5.4A5.4 5.4 0 0 1 6.32 1zm-3.3 1.9a.48.48 0 0 0-.48.48v3.23l7.63.02V3.39a.48.48 0 0 0-.48-.49H3.04zm-.48 4v2.24c0 .27.22.48.49.48H9.7a.48.48 0 0 0 .48-.48V6.93l-7.63-.02zm1.06.52h2.1c.26 0 .48.21.48.48v.66a.48.48 0 0 1-.49.49H3.62a.48.48 0 0 1-.48-.49v-.66c0-.27.21-.48.48-.48zm3.54 0h1.97c.27 0 .49.21.49.48v.66a.48.48 0 0 1-.49.49H7.15a.48.48 0 0 1-.49-.49v-.66c0-.27.22-.48.49-.48z" fill="green"/></svg>