<svg xmlns="http://www.w3.org/2000/svg" width="48" height="48" viewBox="0 0 12.7 12.7"><path fill="green" d="M6.34.07a6.29 6.29 0 0 0-6.29 6.3 6.29 6.29 0 0 0 6.3 6.28 6.29 6.29 0 0 0 6.28-6.29A6.29 6.29 0 0 0 6.34.07zm-.01.94a5.4 5.4 0 0 1 5.4 5.4 5.4 5.4 0 0 1-1.2 3.4l-.7-.69a.33.33 0 0 0 .14-.26V3.18a.33.33 0 0 0-.33-.34H3.12a.33.33 0 0 0-.33.34v5.68c0 .18.15.33.33.33h5.61l1.23 1.22a5.4 5.4 0 0 1-3.63 1.41 5.4 5.4 0 0 1-5.41-5.4A5.4 5.4 0 0 1 6.32 1zM3.22 4.09h6.33c.1 0 .17.08.17.18v4.49c0 .07-.04.13-.1.16L7.49 6.79a1.7 1.7 0 0 1-.4-.56A.85.85 0 0 0 7 5.6a1.4 1.4 0 0 0-.74-.57.06.06 0 0 0-.07.02.07.07 0 0 0-.01.07l.38.68c.03.06.01.14-.04.22a.77.77 0 0 1-.26.22.78.78 0 0 1-.34.1c-.1.01-.17-.02-.2-.08l-.39-.68a.07.07 0 0 0-.05-.04l-.06.03a.06.06 0 0 0-.01.03c-.07.31-.04.67.1.92.19.34.58.5.97.43.16.06.37.17.62.42l1.58 1.57H3.2a.18.18 0 0 1-.17-.18V4.28c0-.1.08-.18.17-.18z"/></svg>