<svg xmlns="http://www.w3.org/2000/svg" width="48" height="48" viewBox="0 0 12.7 12.7"><path fill="green" d="M6.34.07a6.29 6.29 0 0 0-6.29 6.3 6.29 6.29 0 0 0 6.3 6.28 6.29 6.29 0 0 0 6.28-6.29A6.29 6.29 0 0 0 6.34.07zm-.01.94a5.4 5.4 0 0 1 5.4 5.4 5.4 5.4 0 0 1-5.4 5.41 5.4 5.4 0 0 1-5.41-5.4A5.4 5.4 0 0 1 6.32 1zm.19 1.23a6.4 6.4 0 0 0-.46.02l-.35.03C3.4 2.63 1.7 4.23 1.84 5.95c.1 1.12.96 2.04 2.19 2.52l-.51 2 2.26-1.64h.01c.28 0 .56.01.85-.01 2.49-.23 4.38-1.88 4.21-3.7C10.7 3.44 8.8 2.2 6.53 2.25zm1.03 1.03l.86.61L7.31 5.4l1.5 1.09-.6.85L6.7 6.25l-1.09 1.5-.85-.61 1.08-1.5-1.5-1.1.6-.85 1.52 1.09 1.08-1.51z"/></svg>