<svg xmlns="http://www.w3.org/2000/svg" width="48" height="48" viewBox="0 0 12.7 12.7"><path fill="green" d="M6.34.07a6.29 6.29 0 0 0-6.29 6.3 6.29 6.29 0 0 0 6.3 6.28 6.29 6.29 0 0 0 6.28-6.29A6.29 6.29 0 0 0 6.34.07zm-.01.94a5.4 5.4 0 0 1 5.4 5.4 5.4 5.4 0 0 1-5.4 5.41 5.4 5.4 0 0 1-5.41-5.4A5.4 5.4 0 0 1 6.32 1z"/><path fill="#ff2a2a" d="M3.13 3.68a.8.8 0 0 0-.8.8v3.73c0 .45.36.81.8.81h6.44a.8.8 0 0 0 .8-.8V4.48a.8.8 0 0 0-.8-.81zM5.48 5l2.01 1.29L5.42 7.7z" opacity=".75" paint-order="markers fill stroke"/></svg>