<svg xmlns="http://www.w3.org/2000/svg" width="48" height="48" viewBox="0 0 12.7 12.7"><path d="M6.18 1.32c-.09 0-.16.08-.16.17v1c0 .1.07.17.16.17h.34c.09 0 .16-.07.16-.16V1.49c0-.1-.07-.17-.16-.17h-.34zm-3.15 1.3a.17.17 0 0 0-.12.06l-.23.23a.17.17 0 0 0 0 .24l.7.71a.17.17 0 0 0 .24 0l.24-.24a.17.17 0 0 0 0-.23l-.7-.71a.16.16 0 0 0-.13-.05zm6.64 0a.16.16 0 0 0-.12.06l-.71.7a.17.17 0 0 0 0 .24l.24.24a.17.17 0 0 0 .23 0l.71-.7a.17.17 0 0 0 0-.25l-.23-.23a.17.17 0 0 0-.12-.05zM6.35 4A2.35 2.35 0 0 0 4 6.35 2.35 2.35 0 0 0 6.35 8.7 2.35 2.35 0 0 0 8.7 6.35 2.35 2.35 0 0 0 6.35 4zM1.49 6.02c-.1 0-.17.07-.17.16v.34c0 .09.08.16.17.16h1c.1 0 .17-.07.17-.16v-.34c0-.09-.07-.16-.16-.16H1.49zm8.71 0c-.09 0-.16.07-.16.16v.34c0 .09.07.16.16.16h1.01c.1 0 .17-.07.17-.16v-.34c0-.09-.08-.16-.17-.16h-1zM3.5 8.79a.17.17 0 0 0-.11.05l-.71.7a.17.17 0 0 0 0 .25l.23.23a.17.17 0 0 0 .24 0l.71-.7a.17.17 0 0 0 0-.24l-.24-.24a.17.17 0 0 0-.11-.05zm5.7 0a.17.17 0 0 0-.12.05l-.24.24a.17.17 0 0 0 0 .23l.71.71a.17.17 0 0 0 .24 0l.23-.23a.17.17 0 0 0 0-.24l-.7-.71a.17.17 0 0 0-.13-.05zm-3.02 1.25c-.09 0-.16.07-.16.16v1.01c0 .1.07.17.16.17h.34c.09 0 .16-.08.16-.17v-1c0-.1-.07-.17-.16-.17h-.34z" fill="#fd5"/></svg>