<svg xmlns="http://www.w3.org/2000/svg" width="48" height="48" viewBox="0 0 12.7 12.7"><path style="line-height:normal;text-indent:0;text-align:start;text-decoration-line:none;text-transform:none;marker:none" d="M5.9.07V.1A6.25 6.25 0 0 0 .07 5.9H.06v.83h.01a6.25 6.25 0 0 0 5.83 5.82v.02h.83v-.02a6.25 6.25 0 0 0 .72-.1V11.3c-.23.18-.47.32-.72.4V9.23h.7v-.83h-.7V6.74h.7v-.83h-.7V4.24H9c.12.52.2 1.08.22 1.67h-.56l1.36 1.29a9.9 9.9 0 0 0 .03-.46h1.66a5.35 5.35 0 0 1-.4 1.67l.64.6a6.25 6.25 0 0 0 .6-2.27h.01v-.83h-.01A6.25 6.25 0 0 0 6.73.09V.07H5.9zm0 .89v2.45H3.85C4.3 2.1 5.04 1.19 5.9.96zm.83 0c.85.23 1.6 1.15 2.04 2.45H6.73V.96zm-2.76.48c-.4.53-.73 1.2-.98 1.97H1.74a5.45 5.45 0 0 1 2.23-1.97zm4.68 0a5.45 5.45 0 0 1 2.23 1.97H9.63a6.58 6.58 0 0 0-.98-1.97zM1.3 4.24h1.46a9.9 9.9 0 0 0-.2 1.67H.9a5.37 5.37 0 0 1 .4-1.67zm2.3 0H5.9v1.67H3.4a9.32 9.32 0 0 1 .22-1.67zm6.24 0h1.47c.21.52.35 1.08.4 1.67h-1.66a9.9 9.9 0 0 0-.21-1.67zm-1.9 1.73l.02 6 1.32-1.46.76 1.64c.2.55 1.29.26 1.03-.47l-.81-1.64 1.89-.09-4.21-3.98zM.9 6.74h1.66c.02.58.1 1.14.2 1.67H1.31a5.37 5.37 0 0 1-.4-1.67zm2.5 0H5.9v1.67H3.62a9.32 9.32 0 0 1-.22-1.67zm-1.67 2.5H3c.25.77.58 1.44.98 1.97a5.45 5.45 0 0 1-2.23-1.97zm2.11 0H5.9v2.45c-.86-.23-1.6-1.15-2.05-2.45z" color="#000" font-weight="400" font-family="Andale Mono" overflow="visible" fill="green"/></svg>