<svg xmlns="http://www.w3.org/2000/svg" width="48" height="48" viewBox="0 0 12.7 12.7"><path fill="green" d="M6.34.07a6.29 6.29 0 0 0-6.29 6.3 6.29 6.29 0 0 0 6.3 6.28 6.29 6.29 0 0 0 6.28-6.29A6.29 6.29 0 0 0 6.34.07zm-.01.94a5.4 5.4 0 0 1 5.4 5.4 5.4 5.4 0 0 1-5.4 5.41 5.4 5.4 0 0 1-5.41-5.4A5.4 5.4 0 0 1 6.32 1zM5.1 2.3l-.4.95a2.4 2.4 0 0 0-.48.05l-.58-.84a3.33 3.33 0 0 0-.58.28l.25.99a2.43 2.43 0 0 0-.36.32l-.96-.33a3.32 3.32 0 0 0-.31.57l.77.64a2.32 2.32 0 0 0-.06.23 2.34 2.34 0 0 0-.04.24l-.96.3c0 .22.02.43.07.64l1.01.07c.05.15.12.3.2.44l-.6.8c.12.18.26.34.42.5l.86-.55c.13.09.27.17.42.24v1.02a3.42 3.42 0 0 0 .61.13l.4-.95c.16 0 .32-.02.48-.06l.58.84a3.32 3.32 0 0 0 .58-.28l-.25-.98c.13-.1.25-.2.36-.33l.96.34a3.32 3.32 0 0 0 .3-.56l.19.39a1.42 1.42 0 0 0-.17.22l-.58-.08a1.94 1.94 0 0 0-.12.36l.52.28a1.35 1.35 0 0 0 0 .14v.14l-.52.28c.03.13.07.25.12.36l.58-.08c.05.08.1.16.17.23l-.25.54c.1.08.19.16.3.22l.42-.4.27.08.12.59a2 2 0 0 0 .37 0l.11-.6c.1-.01.19-.04.27-.08l.43.41c.1-.06.2-.14.3-.23l-.26-.53a1.43 1.43 0 0 0 .17-.23l.59.08a1.94 1.94 0 0 0 .11-.36l-.52-.28a1.25 1.25 0 0 0 0-.28l.52-.28a1.94 1.94 0 0 0-.11-.36l-.59.08a1.42 1.42 0 0 0-.17-.22l.26-.54a1.95 1.95 0 0 0-.3-.23l-.43.41a1.4 1.4 0 0 0-.27-.08l-.11-.59a2 2 0 0 0-.19 0h-.18l-.11.59a1.4 1.4 0 0 0-.28.08l-.43-.4a1.95 1.95 0 0 0-.3.22L7.8 7l-.76-.64a2.13 2.13 0 0 0 .1-.47l.96-.29a3.32 3.32 0 0 0-.07-.64l-1.01-.07a2.43 2.43 0 0 0-.2-.44l.6-.81A3.35 3.35 0 0 0 7 3.16l-.86.54a2.4 2.4 0 0 0-.42-.24V2.44a3.42 3.42 0 0 0-.3-.08l-.31-.05zm-.42 1.9a1.44 1.44 0 0 1 .35.03 1.44 1.44 0 1 1-.58 2.83 1.44 1.44 0 0 1 .23-2.86zM9.02 7.5a.84.84 0 1 1 0 1.68.84.84 0 0 1 0-1.68z"/></svg>