<svg xmlns="http://www.w3.org/2000/svg" width="48" height="48" viewBox="0 0 12.7 12.7"><path d="M6.34.07a6.29 6.29 0 0 0-6.29 6.3 6.29 6.29 0 0 0 6.3 6.28 6.29 6.29 0 0 0 6.28-6.29A6.29 6.29 0 0 0 6.34.07zm-.01.94a5.4 5.4 0 0 1 4.36 2.23h-.56A1.18 1.14 0 0 0 9 2.4a1.18 1.14 0 0 0-1.14.83H4.84A1.18 1.14 0 0 0 3.7 2.4a1.18 1.14 0 0 0-1.13.83h-.6A5.4 5.4 0 0 1 6.32 1zM1.54 3.9h1.04a1.18 1.14 0 0 0 1.12.8 1.18 1.14 0 0 0 1.13-.8h3.04A1.18 1.14 0 0 0 9 4.7a1.18 1.14 0 0 0 1.12-.8h.99a5.4 5.4 0 0 1 .61 2.14h-1.58A1.18 1.14 0 0 0 9 5.21a1.18 1.14 0 0 0-1.14.84h-.37a1.18 1.14 0 0 0-1.14-.84 1.18 1.14 0 0 0-1.14.84H.94a5.4 5.4 0 0 1 .6-2.15zm-.6 2.8h4.3a1.18 1.14 0 0 0 1.11.78 1.18 1.14 0 0 0 1.12-.77h.4A1.18 1.14 0 0 0 9 7.49a1.18 1.14 0 0 0 1.11-.77h1.6a5.4 5.4 0 0 1-.5 2.02H7.47a1.18 1.14 0 0 0-1.13-.81 1.18 1.14 0 0 0-1.13.8h-.39a1.18 1.14 0 0 0-1.13-.8 1.18 1.14 0 0 0-1.13.8H1.45a5.4 5.4 0 0 1-.52-2.01zm.88 2.7h.76a1.18 1.14 0 0 0 1.12.8 1.18 1.14 0 0 0 1.13-.8h.4a1.18 1.14 0 0 0 1.12.8 1.18 1.14 0 0 0 1.13-.8h3.35a5.4 5.4 0 0 1-4.5 2.41 5.4 5.4 0 0 1-4.5-2.42z" fill="green"/></svg>