<svg xmlns="http://www.w3.org/2000/svg" width="48" height="48" viewBox="0 0 12.7 12.7"><g fill="#2ca02c"><path d="M6.34.07a6.29 6.29 0 0 0-6.29 6.3 6.29 6.29 0 0 0 6.3 6.28 6.29 6.29 0 0 0 6.28-6.29A6.29 6.29 0 0 0 6.34.07zm-.01.94a5.4 5.4 0 0 1 5.4 5.4 5.4 5.4 0 0 1-5.4 5.41 5.4 5.4 0 0 1-5.41-5.4A5.4 5.4 0 0 1 6.32 1z"/><g transform="rotate(45 708.18 296.73) scale(2)"><path d="M1.94 292.84a.42.42 0 0 0-.05 0l.77.79.92.18c1.66.33 1.88-.06 1.88-.06s-.08-.23-.93-.4l-2.53-.5a.4.4 0 0 0-.06-.01zm2.44.64l.62.12c-.03.13-.47.05-.62-.12z" opacity=".8"/><path d="M3.41 291.35c-.14-.02-.47.2-.62.35l-.97.97a.45.45 0 0 0-.06.07l.63.63a.46.46 0 0 0 .07-.06l.44-.44c.2-.2.35-.39.45-.55l-.09-.09-.23.23a.13.13 0 0 1-.19 0l-.03-.03a.13.13 0 0 1 0-.19l.35-.35a.11.11 0 0 1 .16 0l.16.16c.09-.25.08-.59-.02-.68a.08.08 0 0 0-.05-.02zm-.3.23c.1.1-.2.42-.43.45zm-.5 3.79l-.25-.07c-.69-.21-.82-.03-.82-.03s.12.37.92.6l.82.25a.35.35 0 0 0 .08.02"/><rect width=".94" height="4.4" x="-206.83" y="207.95" rx=".45" ry=".45" transform="rotate(-45)"/></g></g></svg>
