<svg xmlns="http://www.w3.org/2000/svg" width="24" height="24"><g fill="none" stroke="#ff7f2a"><path d="M21.44 11.88A9.42 9.42 0 0 0 12 2.45a9.42 9.42 0 0 0-9.44 9.44A9.42 9.42 0 0 0 12 21.33a9.42 9.42 0 0 0 9.44-9.44zm-5.99 0A3.44 3.44 0 0 1 12 15.34a3.44 3.44 0 0 1-3.46-3.46c0-1.9 1.4-3.45 3.46-3.45a3.4 3.4 0 0 1 3.46 3.46z" stroke-width="1.38"/><path d="M12 8.43a3.46 3.46 0 0 0-3.46 3.46A3.46 3.46 0 0 0 12 15.34a3.46 3.46 0 0 0 3.46-3.46A3.46 3.46 0 0 0 12 8.43zm0 1.73a1.73 1.73 0 1 1 0 3.45 1.73 1.73 0 0 1 0-3.45z" style="marker:none" overflow="visible" stroke-width=".46" stroke-linejoin="round"/></g><path d="M20.4 9.81c-1.96.32-3.94.6-5.91.92-.54.27-.35.95-.38 1.43v6.24c-1.38-.3-2.97.77-2.98 2.22-.06.93.84 1.7 1.75 1.62a2.33 2.33 0 0 0 2.11-2.52v-6.57l5.07-.72v5.13c-1.32-.38-2.98.5-3.2 1.88-.18.82.4 1.64 1.18 1.88 1.46.48 3.12-.94 2.94-2.45 0-2.84.02-5.67 0-8.5-.03-.29-.26-.57-.57-.56z" fill="teal"/></svg>