<svg xmlns="http://www.w3.org/2000/svg" version="1" width="24" height="24"><g fill="none" stroke="#ff7f2a"><path d="M21.32 12A9.3 9.3 0 0 0 12 2.68 9.3 9.3 0 0 0 2.68 12 9.3 9.3 0 0 0 12 21.32 9.3 9.3 0 0 0 21.32 12zm-5.91 0A3.4 3.4 0 0 1 12 15.41 3.4 3.4 0 0 1 8.59 12c0-1.88 1.38-3.41 3.41-3.41s3.41 1.57 3.41 3.41z" stroke-width="1.36"/><path d="M12 8.59a3.41 3.41 0 0 0 0 6.82 3.41 3.41 0 0 0 0-6.82zm0 1.7a1.7 1.7 0 1 1 0 3.42 1.7 1.7 0 0 1 0-3.42z" style="marker:none" overflow="visible" stroke-width=".46" stroke-linejoin="round"/></g><path style="marker:none" d="M21.78 16.77l-4.34 5-4.3-5h1.81v-4.1h5v4.1z" overflow="visible" fill="green"/></svg>