<?xml version="1.0" encoding="UTF-8" standalone="no"?>
<!-- Created with Inkscape (http://www.inkscape.org/) -->

<svg
   xmlns:dc="http://purl.org/dc/elements/1.1/"
   xmlns:cc="http://creativecommons.org/ns#"
   xmlns:rdf="http://www.w3.org/1999/02/22-rdf-syntax-ns#"
   xmlns:svg="http://www.w3.org/2000/svg"
   xmlns="http://www.w3.org/2000/svg"
   xmlns:sodipodi="http://sodipodi.sourceforge.net/DTD/sodipodi-0.dtd"
   xmlns:inkscape="http://www.inkscape.org/namespaces/inkscape"
   width="48"
   height="48"
   viewBox="0 0 12.7 12.7"
   version="1.1"
   id="svg829"
   inkscape:version="0.92.3 (2405546, 2018-03-11)"
   sodipodi:docname="video-television.svg">
  <defs
     id="defs823" />
  <sodipodi:namedview
     id="base"
     pagecolor="#ffffff"
     bordercolor="#666666"
     borderopacity="1.0"
     inkscape:pageopacity="0.0"
     inkscape:pageshadow="2"
     inkscape:zoom="3.6239223"
     inkscape:cx="17.484617"
     inkscape:cy="24"
     inkscape:document-units="mm"
     inkscape:current-layer="layer1"
     showgrid="false"
     showguides="true"
     inkscape:guide-bbox="true"
     inkscape:window-width="1366"
     inkscape:window-height="690"
     inkscape:window-x="0"
     inkscape:window-y="28"
     inkscape:window-maximized="1"
     scale-x="1.9"
     units="px"
     inkscape:snap-global="false" />
  <metadata
     id="metadata826">
    <rdf:RDF>
      <cc:Work
         rdf:about="">
        <dc:format>image/svg+xml</dc:format>
        <dc:type
           rdf:resource="http://purl.org/dc/dcmitype/StillImage" />
        <dc:title></dc:title>
      </cc:Work>
    </rdf:RDF>
  </metadata>
  <g
     inkscape:label="Capa 1"
     inkscape:groupmode="layer"
     id="layer1"
     transform="translate(0,-284.3)">
    <path
       style="fill:#1a1a1a;fill-opacity:1;stroke-width:0.1389506"
       d="m 6.3443558,284.37295 a 6.2892804,6.2892804 0 0 0 -6.28941435,6.28942 6.2892804,6.2892804 0 0 0 6.28941435,6.28914 6.2892804,6.2892804 0 0 0 6.2891432,-6.28914 6.2892804,6.2892804 0 0 0 -6.2891432,-6.28942 z m -0.018184,0.9363 a 5.4070438,5.4070438 0 0 1 5.4071322,5.40711 5.4070438,5.4070438 0 0 1 -5.4071322,5.40686 5.4070438,5.4070438 0 0 1 -5.40713234,-5.40686 5.4070438,5.4070438 0 0 1 5.40713234,-5.40711 z"
       id="path1374"
       inkscape:connector-curvature="0" />
    <path
       style="opacity:1;fill:#1a1a1a;fill-opacity:1;stroke:none;stroke-width:0.30404043"
       d="m 2.5834391,287.37194 c -0.2464953,0 -0.4450302,0.19807 -0.4450302,0.44456 v 5.22071 c 0,0.2465 0.1985349,0.44503 0.4450302,0.44503 h 7.5043039 c 0.246495,0 0.44503,-0.19853 0.44503,-0.44503 v -5.22071 c 0,-0.24649 -0.198535,-0.44456 -0.44503,-0.44456 z m 0.5706693,0.74371 h 6.4310771 c 0.1925895,0 0.3479245,0.15487 0.3479245,0.34746 v 4.07891 c 0,0.19259 -0.155335,0.34792 -0.3479245,0.34792 H 3.1541084 c -0.1925893,0 -0.3474641,-0.15533 -0.3474641,-0.34792 v -4.07891 c 0,-0.19259 0.1548748,-0.34746 0.3474641,-0.34746 z"
       id="rect838"
       inkscape:connector-curvature="0" />
    <path
       transform="scale(1,-1)"
       d="m 7.9618101,-294.80414 a 1.5869427,1.2180228 0 0 1 -0.8038662,1.05941 1.5869427,1.2180228 0 0 1 -1.5972014,-0.0139 1.5869427,1.2180228 0 0 1 -0.772411,-1.0731 l 1.5865359,0.0276 z"
       sodipodi:end="3.1642343"
       sodipodi:start="0"
       sodipodi:ry="1.2180228"
       sodipodi:rx="1.5869427"
       sodipodi:cy="-294.80414"
       sodipodi:cx="6.3748674"
       sodipodi:type="arc"
       id="path842"
       style="opacity:1;fill:#1a1a1a;fill-opacity:1;stroke:none;stroke-width:0.3293224" />
  </g>
</svg>
