<svg xmlns="http://www.w3.org/2000/svg" version="1" viewBox="0 0 24 24"><g fill="#2ca02c"><path d="M11.3 1C5.64 1 1 5.64 1 11.32a10.33 10.33 0 0 0 12.37 10.1V18.6a7.66 7.66 0 0 1-2.06.29c-4.2 0-7.57-3.37-7.57-7.56s3.37-7.57 7.57-7.57a7.54 7.54 0 0 1 7.27 9.63h2.83A10.31 10.31 0 0 0 11.31 1zm4.08 5.5a.69.69 0 0 0-.1.02v.01a.69.69 0 0 0-.34.21L11.3 10.4 9 8.12a.69.69 0 1 0-.94.95l2.75 2.74a.69.69 0 0 0 .94 0L15.9 7.7a.69.69 0 0 0-.5-1.18z" color="#000" font-weight="400" overflow="visible" style="font-feature-settings:normal;font-variant-alternates:normal;font-variant-caps:normal;font-variant-ligatures:normal;font-variant-numeric:normal;font-variant-position:normal;isolation:auto;mix-blend-mode:normal;shape-padding:0;text-decoration-color:#000;text-decoration-line:none;text-decoration-style:solid;text-indent:0;text-orientation:mixed;text-transform:none" white-space="normal"/><path d="M17.5 14.76v2.74h-2.75v2.75h2.75V23h2.75v-2.75H23V17.5h-2.75v-2.74z" color="#bebebe" overflow="visible"/></g></svg>
