<svg xmlns="http://www.w3.org/2000/svg" version="1" viewBox="0 0 24 24"><path fill="#2ca02c" d="M12 1c-.35 0-.7.02-1.03.05l-.64 3.29a7.88 7.88 0 0 0-1.52.49l-2.4-2.3c-.62.36-1.15.8-1.68 1.27l1.42 3a7.95 7.95 0 0 0-.93 1.27l-3.29-.44a10.86 10.86 0 0 0-.64 2.01l2.9 1.58a7.58 7.58 0 0 0-.05.78c0 .27.02.52.05.79l-2.9 1.57c.16.7.36 1.37.64 2.01l3.3-.44c.26.46.58.88.92 1.28l-1.42 3c.53.46 1.06.9 1.67 1.27l2.4-2.31a7.8 7.8 0 0 0 1.53.5l.64 3.28a11.19 11.19 0 0 0 2.06 0l.64-3.29a7.79 7.79 0 0 0 1.52-.49l2.4 2.31c.62-.36 1.15-.81 1.68-1.28l-1.43-3c.35-.39.67-.81.94-1.27l3.29.44a10.86 10.86 0 0 0 .64-2.01l-2.9-1.57a7.82 7.82 0 0 0 0-1.57l2.9-1.58a10.86 10.86 0 0 0-.64-2.01l-3.3.44a7.95 7.95 0 0 0-.93-1.28l1.43-2.99c-.53-.47-1.06-.91-1.67-1.28l-2.41 2.31a7.88 7.88 0 0 0-1.52-.49l-.64-3.29A11.19 11.19 0 0 0 12 1zm0 6.29a4.71 4.71 0 1 1 0 9.43 4.71 4.71 0 0 1 0-9.43z" overflow="visible"/></svg>
