<svg xmlns="http://www.w3.org/2000/svg" viewBox="0 0 24 24"><g fill="#2ca02c" transform="matrix(.5 0 0 .5 -.04 1.06)"><path d="M4.19 12.2a.19.19 0 0 0-.19.2V29.8c0 .1.08.19.19.19h39.76a.19.19 0 0 0 .18-.19V12.4a.19.19 0 0 0-.18-.19zm33 2.65a2.77 2.77 0 0 1 2.78 2.77 2.77 2.77 0 0 1-2.77 2.77 2.77 2.77 0 0 1-2.78-2.77 2.77 2.77 0 0 1 2.78-2.77z" paint-order="markers fill stroke"/><rect width="24" height="8" x="12" y="2" paint-order="markers fill stroke" ry=".19"/></g><rect width="11.9" height="4.53" x="6.07" y="15.5" fill="none" stroke="#2ca02c" stroke-linecap="square" stroke-miterlimit="1.5" stroke-width="1.52" paint-order="markers fill stroke" ry="0"/></svg>
