<svg xmlns="http://www.w3.org/2000/svg" viewBox="0 0 24 24"><path fill="#2ca02c" d="M22.23.48a1.5 1.5 0 0 0-1.06.44l-2.25 2.26L16.66.92a1.5 1.5 0 0 0-2.12 0 1.5 1.5 0 0 0 0 2.13L16.8 5.3l-2.26 2.25a1.5 1.5 0 0 0 0 2.13 1.5 1.5 0 0 0 2.12 0l2.26-2.26 2.25 2.26a1.5 1.5 0 0 0 2.12 0 1.5 1.5 0 0 0 0-2.13L21.04 5.3l2.25-2.25a1.5 1.5 0 0 0 0-2.13 1.5 1.5 0 0 0-1.06-.44zM3.31 4.91a.79.79 0 0 0-.63.6L.28 16.14a.8.8 0 0 0 .6.95l1.91.43a.78.78 0 0 0 .3.92l7.52 4.96a.8.8 0 0 0 1.1-.22l5.99-9.09a.8.8 0 0 0-.23-1.1l-4.89-3.22.43-1.91a.8.8 0 0 0-.6-.95L3.63 4.92a.8.8 0 0 0-.32 0zm9.02 5.95l3.92 2.59c.3.2.39.6.19.9l-4.98 7.55a.66.66 0 0 1-.9.18L4.3 17.96a.65.65 0 0 1-.15-.14l5.51 1.24a.8.8 0 0 0 .95-.6z"/></svg>
