<svg xmlns="http://www.w3.org/2000/svg" width="24" height="24"><path fill="green" d="M12 .23A11.77 11.77 0 0 0 .23 12 11.77 11.77 0 0 0 12 23.77 11.77 11.77 0 0 0 23.77 12 11.77 11.77 0 0 0 12 .23zm-.03 1.75A10.12 10.12 0 0 1 22.09 12.1a10.12 10.12 0 0 1-10.12 10.12A10.12 10.12 0 0 1 1.85 12.1 10.12 10.12 0 0 1 11.97 1.98z"/><path fill="green" d="M11.97 1.98c.64 0 2.7 5.27 3.23 5.66.51.38 6.07.76 6.26 1.38.2.62-4.07 4.26-4.27 4.88-.2.62 1.16 6.12.65 6.5-.52.4-5.23-2.63-5.87-2.63-.64 0-5.35 3.02-5.87 2.64-.52-.39.84-5.89.64-6.51-.2-.62-4.47-4.26-4.27-4.88.2-.62 5.75-1 6.27-1.38.52-.39 2.58-5.66 3.23-5.66z"/></svg>