<svg xmlns="http://www.w3.org/2000/svg" width="24" height="24"><defs><style id="current-color-scheme"></style></defs><path d="M9.28 6.27a2.8 2.8 0 0 0-2.23.78C6 8.12 6.03 9.9 7.06 11.25a5 5 0 0 0 5.7 5.7c1.34 1.02 3.12 1.06 4.19 0 1.06-1.07 1.02-2.85-.01-4.2a5 5 0 0 0-5.7-5.7c-.6-.45-1.29-.73-1.96-.78zM11.9 9c1.52 0 2.3.78 2.3 1.24 0 .46-.22.53-.6.53-.72 0-.42-.85-1.78-.85-.44 0-1 .2-1 .71 0 .41.5.56 1.37.77 1.32.35 2.31.7 2.31 1.88 0 1.14-.96 1.72-2.48 1.72-1.51 0-2.48-.89-2.48-1.34 0-.46.17-.58.55-.58.72 0 .62.97 1.98.97.45 0 1.12-.2 1.12-.72 0-.4-.04-.55-1-.8-1.03-.14-2.69-.46-2.69-1.71 0-1.15.89-1.82 2.4-1.82z" fill="currentColor" color="#2ca02c"/></svg>
