<svg xmlns="http://www.w3.org/2000/svg" width="24" height="24"><path fill="#2ca02c" d="M19.18 1.39H4.83a.55.55 0 0 0-.56.56V16.3c0 .3.25.55.55.55h14.35a.55.55 0 0 0 .56-.56V1.94a.55.55 0 0 0-.55-.55zm-1.66 2.2v9.94H6.48V3.6h11.04zM9.55 17.72a.63.63 0 0 0-.45.18l-.6.6a.63.63 0 0 0 0 .89l2.46 2.45.6.6a.63.63 0 0 0 .89 0l.6-.6 2.44-2.45a.63.63 0 0 0 0-.9l-.6-.59a.63.63 0 0 0-.88 0l-2 2-2.02-2a.63.63 0 0 0-.44-.18z" color="#000" overflow="visible" style="marker:none"/><path fill="#2ca02c" d="M6.56 13.4l10.88-.1-4.05-4.05-2.15 2.73-2.42-1.94z" opacity=".6"/></svg>
