<svg xmlns="http://www.w3.org/2000/svg" width="24" height="24"><path d="M12 2.54a9.46 9.46 0 0 0-8.3 4.93l8.14 8h.76l7.86-7.7A9.46 9.46 0 0 0 12 2.55zM3.15 8.67A9.46 9.46 0 0 0 2.54 12a9.46 9.46 0 0 0 1.24 4.66l3.72-3.7-4.35-4.3zm17.82.35L17 12.97l1.81 1.81 2.64-2.63a9.46 9.46 0 0 0 0-.15 9.46 9.46 0 0 0-.49-2.98zM8.42 13.83l-3.94 3.9a9.46 9.46 0 0 0 7.42 3.73l-2.73-2.72 2.15-2.02-2.9-2.89zm7.64 0l-1.97 1.96 1.86 1.86 1.99-1.98-1.88-1.84z" fill="green"/><path d="M21.42 14.76c.38.04.66.31.66.31s.72.73 0 1.41l-6.36 6.37-3.54-3.54a1.03 1.03 0 0 1 0-1.41 1.06 1.06 0 0 1 1.41 0l2.13 2.12 4.95-4.95a.93.93 0 0 1 .75-.3z" fill="green" fill-opacity=".3"/></svg>