<svg xmlns="http://www.w3.org/2000/svg" width="24" height="24"><path d="M12 1.71A10.18 10.29 0 0 0 1.82 12 10.18 10.29 0 0 0 12 22.29 10.18 10.29 0 0 0 22.18 12 10.18 10.29 0 0 0 12 1.71zm0 1A9.19 9.29 0 0 1 21.19 12 9.19 9.29 0 0 1 12 21.29 9.19 9.29 0 0 1 2.81 12 9.19 9.29 0 0 1 12 2.71zM4.46 6.76v1.2H5.7v-1.2H4.46zm2.3 0v1.2h1.26v-1.2H6.76zm2.3 0v1.2h1.26v-1.2H9.07zm2.31 0v1.2h1.26v-1.2h-1.26zm2.3 0v1.2h1.26v-1.2h-1.25zm2.31 0v1.2h1.26v-1.2h-1.26zm2.3 0v1.2h1.26v-1.2H18.3zm.06 2.25v1.26h1.2V9.01h-1.2zm-13.88.06v1.25h1.2V9.07h-1.2zm13.88 2.25v1.26h1.2v-1.26h-1.2zm-13.88.05v1.26h1.2v-1.26h-1.2zm13.88 2.26v1.25h1.2v-1.26h-1.2zm-13.88.05v1.25h1.2v-1.25h-1.2zm0 2.36v1.2H5.7v-1.2H4.46zm2.3 0v1.2h1.26v-1.2H6.76zm2.3 0v1.2h1.26v-1.2H9.07zm2.31 0v1.2h1.26v-1.2h-1.26zm2.3 0v1.2h1.26v-1.2h-1.25zm2.31 0v1.2h1.26v-1.2h-1.26zm2.3 0v1.2h1.26v-1.2H18.3z" fill="#2ca02c"/></svg>
