<svg xmlns="http://www.w3.org/2000/svg" width="48" height="48" viewBox="0 0 12.7 12.7"><path fill="#2ca02c" d="M6.34.07a6.29 6.29 0 0 0-6.29 6.3 6.29 6.29 0 0 0 6.3 6.28 6.29 6.29 0 0 0 6.28-6.29A6.29 6.29 0 0 0 6.34.07zm-.01.94a5.4 5.4 0 0 1 5.4 5.4 5.4 5.4 0 0 1-5.4 5.41 5.4 5.4 0 0 1-5.41-5.4A5.4 5.4 0 0 1 6.32 1zM4.3 2.94c-.65 0-1.27.3-1.75.56-.28.17-.3.24-.3.59l-.02 4.6c0 .16.05.34.21.25l.15-.1c1.7-1.04 3.11-.3 3.6.92l-.06-5.69c-.53-.85-1.2-1.13-1.83-1.13zm4.1 0c-.64 0-1.3.28-1.83 1.13L6.5 9.76c.49-1.22 1.9-1.96 3.6-.92l.15.1c.16.09.21-.09.21-.24l-.02-4.61c0-.35-.02-.42-.3-.59a3.72 3.72 0 0 0-1.75-.56z"/></svg>
