<svg xmlns="http://www.w3.org/2000/svg" width="48" height="48" viewBox="0 0 12.7 12.7"><path d="M6.34.07a6.29 6.29 0 0 0-6.29 6.3 6.29 6.29 0 0 0 6.3 6.28 6.29 6.29 0 0 0 6.28-6.29A6.29 6.29 0 0 0 6.34.07zm-.01.94a5.4 5.4 0 0 1 5.4 5.4 5.4 5.4 0 0 1-5.4 5.41 5.4 5.4 0 0 1-5.41-5.4A5.4 5.4 0 0 1 6.32 1zm-2.8 1.42a.4.4 0 0 0-.4.4v7.21c0 .22.19.4.4.4h5.63a.4.4 0 0 0 .4-.4V2.83a.4.4 0 0 0-.4-.4H3.54zm1.06.56h2.59v2.74l.5-.3.5.3V3h.46c.18 0 .33.16.33.35v6.19c0 .19-.15.34-.33.34H4.59V3z" fill="#2ca02c"/></svg>
