<svg xmlns="http://www.w3.org/2000/svg" width="48" height="48" viewBox="0 0 12.7 12.7"><path d="M6.35.06a6.29 6.29 0 0 0-6.29 6.3 6.29 6.29 0 0 0 6.29 6.28 6.29 6.29 0 0 0 6.29-6.29A6.29 6.29 0 0 0 6.35.06zM6.33 1a5.4 5.4 0 0 1 5.4 5.4 5.4 5.4 0 0 1-5.4 5.41 5.4 5.4 0 0 1-5.4-5.4A5.4 5.4 0 0 1 6.33 1z" fill="green"/><path style="marker:none" d="M6.35 1.74a4.61 4.61 0 0 0-.33 0 4.61 4.61 0 0 0-.45.06 4.61 4.61 0 0 0-.45.1 4.61 4.61 0 0 0-.44.15 4.61 4.61 0 0 0-.42.19 4.61 4.61 0 0 0-.4.23 4.61 4.61 0 0 0-.38.27 4.61 4.61 0 0 0-.34.3 4.61 4.61 0 0 0-.32.34 4.61 4.61 0 0 0-.28.36 4.61 4.61 0 0 0-.24.4 4.61 4.61 0 0 0-.2.41 4.61 4.61 0 0 0-.16.44 4.61 4.61 0 0 0-.11.44 4.61 4.61 0 0 0-.07.46 4.61 4.61 0 0 0-.02.46 4.61 4.61 0 0 0 0 .32 4.61 4.61 0 0 0 .06.46 4.61 4.61 0 0 0 .1.45 4.61 4.61 0 0 0 .15.44 4.61 4.61 0 0 0 .19.42 4.61 4.61 0 0 0 .23.4 4.61 4.61 0 0 0 .27.38 4.61 4.61 0 0 0 .3.34 4.61 4.61 0 0 0 .34.32 4.61 4.61 0 0 0 .36.28 4.61 4.61 0 0 0 .4.24 4.61 4.61 0 0 0 .41.2 4.61 4.61 0 0 0 .44.16 4.61 4.61 0 0 0 .44.11 4.61 4.61 0 0 0 .46.07 4.61 4.61 0 0 0 .46.02 4.61 4.61 0 0 0 .33 0 4.61 4.61 0 0 0 .45-.06 4.61 4.61 0 0 0 .45-.1 4.61 4.61 0 0 0 .44-.15 4.61 4.61 0 0 0 .42-.19 4.61 4.61 0 0 0 .4-.23 4.61 4.61 0 0 0 .38-.27 4.61 4.61 0 0 0 .34-.3 4.61 4.61 0 0 0 .32-.34 4.61 4.61 0 0 0 .28-.37 4.61 4.61 0 0 0 .24-.39 4.61 4.61 0 0 0 .2-.41 4.61 4.61 0 0 0 .16-.44 4.61 4.61 0 0 0 .11-.44 4.61 4.61 0 0 0 .07-.46 4.61 4.61 0 0 0 .02-.46 4.61 4.61 0 0 0 0-.33 4.61 4.61 0 0 0-.06-.46 4.61 4.61 0 0 0-.1-.45 4.61 4.61 0 0 0-.15-.43 4.61 4.61 0 0 0-.19-.42 4.61 4.61 0 0 0-.23-.4 4.61 4.61 0 0 0-.27-.38 4.61 4.61 0 0 0-.3-.35 4.61 4.61 0 0 0-.34-.31 4.61 4.61 0 0 0-.37-.28 4.61 4.61 0 0 0-.39-.24 4.61 4.61 0 0 0-.41-.2 4.61 4.61 0 0 0-.44-.16 4.61 4.61 0 0 0-.44-.11 4.61 4.61 0 0 0-.46-.07 4.61 4.61 0 0 0-.46-.02z" color="#000" overflow="visible" opacity=".5" fill="#acf"/><path style="marker:none" d="M4.18 2.29a4.61 4.61 0 0 0-.32.18 4.61 4.61 0 0 0-.38.27 4.61 4.61 0 0 0-.34.3 4.61 4.61 0 0 0-.32.34 4.61 4.61 0 0 0-.28.37 4.61 4.61 0 0 0-.24.39 4.61 4.61 0 0 0-.2.41 4.61 4.61 0 0 0-.16.44 4.61 4.61 0 0 0-.11.44 4.61 4.61 0 0 0-.07.46 4.61 4.61 0 0 0-.02.46 4.61 4.61 0 0 0 0 .33 4.61 4.61 0 0 0 .06.45 4.61 4.61 0 0 0 .1.45 4.61 4.61 0 0 0 .15.44 4.61 4.61 0 0 0 .19.42 4.61 4.61 0 0 0 .23.4 4.61 4.61 0 0 0 .27.38 4.61 4.61 0 0 0 .3.34 4.61 4.61 0 0 0 .34.32 4.61 4.61 0 0 0 .36.28 4.61 4.61 0 0 0 .4.24 4.61 4.61 0 0 0 .41.2 4.61 4.61 0 0 0 .44.16 4.61 4.61 0 0 0 .44.11 4.61 4.61 0 0 0 .46.07 4.61 4.61 0 0 0 .46.02 4.61 4.61 0 0 0 .33 0 4.61 4.61 0 0 0 .45-.06 4.61 4.61 0 0 0 .45-.1 4.61 4.61 0 0 0 .44-.15 4.61 4.61 0 0 0 .42-.19 4.61 4.61 0 0 0 .4-.23 4.61 4.61 0 0 0 .38-.27 4.61 4.61 0 0 0 .34-.3 4.61 4.61 0 0 0 .32-.34 4.61 4.61 0 0 0 .28-.37 4.61 4.61 0 0 0 .24-.39 4.61 4.61 0 0 0 .2-.41 4.61 4.61 0 0 0 .15-.43A6.85 6.85 0 0 1 4.18 2.3z" color="#000" overflow="visible" opacity=".5" fill="#59f"/><path style="marker:none" d="M1.78 5.76a4.61 4.61 0 0 0-.02.13 4.61 4.61 0 0 0-.02.46 4.61 4.61 0 0 0 0 .33 4.61 4.61 0 0 0 .06.45 4.61 4.61 0 0 0 .1.45 4.61 4.61 0 0 0 .15.44 4.61 4.61 0 0 0 .19.42 4.61 4.61 0 0 0 .23.4 4.61 4.61 0 0 0 .27.38 4.61 4.61 0 0 0 .3.34 4.61 4.61 0 0 0 .34.32 4.61 4.61 0 0 0 .36.28 4.61 4.61 0 0 0 .4.24 4.61 4.61 0 0 0 .41.2 4.61 4.61 0 0 0 .44.16 4.61 4.61 0 0 0 .44.11 4.61 4.61 0 0 0 .46.07 4.61 4.61 0 0 0 .46.02 4.61 4.61 0 0 0 .33 0 4.61 4.61 0 0 0 .45-.06 4.61 4.61 0 0 0 .45-.1 4.61 4.61 0 0 0 .44-.15 4.61 4.61 0 0 0 .42-.19 4.61 4.61 0 0 0 .4-.23 4.61 4.61 0 0 0 .38-.27 4.61 4.61 0 0 0 .34-.3 4.61 4.61 0 0 0 .32-.34 4.61 4.61 0 0 0 .28-.36 4.61 4.61 0 0 0 .24-.4 4.61 4.61 0 0 0 .2-.41 4.61 4.61 0 0 0 .16-.44 4.61 4.61 0 0 0 .11-.44 4.61 4.61 0 0 0 .07-.46 4.61 4.61 0 0 0 .02-.46 4.61 4.61 0 0 0 0-.33 4.61 4.61 0 0 0-.01-.05c-1.14.37-2.63.61-4.3.61a13 13 0 0 1-4.87-.82z" color="#000" overflow="visible" opacity=".5" fill="#06f"/></svg>