<svg xmlns="http://www.w3.org/2000/svg" width="48" height="48" viewBox="0 0 12.7 12.7"><path d="M6.34.07a6.29 6.29 0 0 0-6.29 6.3 6.29 6.29 0 0 0 1.93 4.52l.43-.75A5.4 5.4 0 0 1 .92 6.42 5.4 5.4 0 0 1 6.32 1l.01.01a5.4 5.4 0 0 1 5.4 5.4 5.4 5.4 0 0 1-1.69 3.93l.44.75a6.29 6.29 0 0 0 2.15-4.73A6.29 6.29 0 0 0 6.34.07zm-.79 2.58v.95H5.2a.6.6 0 0 0-.6.59v1.55h.01c0 .05.03.11.1.18l.28.24-2.86 4.95-.06 1.06.89-.59 1.56-2.7c.56.28 1.2.43 1.87.43.51 0 1.08-.09 1.58-.26l1.47 2.53.88.6-.06-1.07-1.43-2.48a4.17 4.17 0 0 0 1.82-3.44h-.96c0 1.27-.38 1.57-.84 2.1-.15.18-.33.34-.52.48l-.92-1.6.28-.25c.06-.07.09-.13.09-.18V4.2a.6.6 0 0 0-.6-.6h-.35v-.94H5.55zm.64 1.58v.01c.35 0 .63.28.63.63s-.28.63-.63.63a.63.63 0 0 1-.64-.63c0-.35.29-.63.64-.63zM5.7 6.81l.18.16c.08.08.2.12.3.12a.4.4 0 0 0 .3-.12l.18-.16.8 1.38a4 4 0 0 1-1.1.17c-.49 0-.96-.13-1.37-.34l.7-1.21zm-2.16 4.24l-.42.71a6.29 6.29 0 0 0 3.22.89 6.29 6.29 0 0 0 3.01-.77l-.42-.74a5.4 5.4 0 0 1-2.61.68 5.4 5.4 0 0 1-2.78-.77z" fill="green"/></svg>