<svg xmlns="http://www.w3.org/2000/svg" width="48" height="48" version="1"><path d="M24 .23A23.77 23.77 0 0 0 .23 24.01 23.77 23.77 0 0 0 24 47.77 23.77 23.77 0 0 0 47.77 24 23.77 23.77 0 0 0 24 .23zm-.07 3.54a20.44 20.44 0 0 1 20.44 20.44 20.44 20.44 0 0 1-20.44 20.43A20.44 20.44 0 0 1 3.5 24.21 20.44 20.44 0 0 1 23.93 3.77zm0 3A17.44 17.44 0 0 0 6.5 24.2a17.44 17.44 0 0 0 17.43 17.45 17.44 17.44 0 0 0 17.44-17.44A17.44 17.44 0 0 0 23.93 6.77zm-8.7 6.54h.42c1.4 0 2.62.67 3.65 2 .57.83.85 1.7.85 2.64v4.67l-.07.07h-.49l-.07-.07v-2.25h-.04a4.67 4.67 0 0 1-2.45 2.07c-.57.17-1.08.25-1.55.25h-.08c-1.6 0-2.93-.75-3.96-2.24a4.49 4.49 0 0 1-.67-2.26v-.42c0-1.4.68-2.62 2.04-3.65.8-.54 1.62-.8 2.42-.8zm10.46.02h.42c1.16 0 2.2.47 3.12 1.4-.24.21-.43.32-.56.32A3.88 3.88 0 0 0 26 13.96h-.1c-1.66 0-2.9.82-3.72 2.46-.2.46-.31.99-.31 1.57v.1c0 1.55.8 2.75 2.38 3.62a4.06 4.06 0 0 0 4.42-.73h.1l.46.24v.07a4.45 4.45 0 0 1-3.3 1.4h-.07c-1.6 0-2.92-.75-3.96-2.24a4.48 4.48 0 0 1-.66-2.24v-.43c0-1.4.67-2.61 2.03-3.64a4.3 4.3 0 0 1 2.42-.81zm-10.25.61c-1.65 0-2.9.82-3.72 2.46-.21.47-.32 1-.32 1.58v.1c0 1.56.8 2.76 2.4 3.63.55.23 1.11.35 1.68.35 1.64 0 2.9-.84 3.76-2.53.18-.58.28-1.1.28-1.58 0-1.52-.76-2.73-2.29-3.62a4.3 4.3 0 0 0-1.68-.39h-.1zM10.37 24.5h19.75c.15 0 .28.12.28.28 0 .16-.13.29-.28.29H10.37a.28.28 0 0 1-.28-.28v-.01c0-.16.12-.28.28-.28z" fill="#2ca02c"/></svg>
