<svg xmlns="http://www.w3.org/2000/svg" width="48" height="48" viewBox="0 0 12.7 12.7"><path fill="#2ca02c" d="M6.34.07a6.29 6.29 0 0 0-6.29 6.3 6.29 6.29 0 0 0 6.3 6.28 6.29 6.29 0 0 0 6.28-6.29A6.29 6.29 0 0 0 6.34.07zm-.27.95v.32h-.82a.27.27 0 0 0-.26.27v.38c0 .15.12.27.26.27h.82v.9h-.82a.27.27 0 0 0-.26.26v.38c0 .15.12.27.26.27h.82v.9h-.82a.27.27 0 0 0-.26.27v.38c0 .15.12.27.26.27h.82v1a1.05 1.05 0 0 0-.79 1.03v2.14c0 .58.47 1.06 1.05 1.06s1.06-.47 1.06-1.06V7.92c0-.48-.31-.87-.75-1v-.09h.8c.15 0 .27-.12.27-.26v-.38a.27.27 0 0 0-.26-.27h-.8v-.96h.8c.14 0 .26-.12.26-.27v-.38a.27.27 0 0 0-.27-.27h-.8v-.87h.8c.15 0 .27-.12.27-.26v-.38a.27.27 0 0 0-.27-.27h-.8V1.03a5.4 5.4 0 0 1 5.1 5.39 5.4 5.4 0 0 1-5.41 5.4 5.4 5.4 0 0 1-5.41-5.4 5.4 5.4 0 0 1 5.16-5.4zm.27 6.4c.3 0 .53.21.53.53a.55.55 0 0 1-.53.53.55.55 0 0 1-.52-.53c0-.32.23-.53.52-.53zm0 1.58c.3 0 .53.21.53.53v.53a.55.55 0 0 1-.53.52.55.55 0 0 1-.52-.52v-.53c0-.32.23-.53.52-.53z"/></svg>
