<svg xmlns="http://www.w3.org/2000/svg" width="48" height="48" viewBox="0 0 12.7 12.7"><path fill="#2ca02c" d="M6.34.07a6.29 6.29 0 0 0-6.29 6.3 6.29 6.29 0 0 0 6.3 6.28 6.29 6.29 0 0 0 6.28-6.29A6.29 6.29 0 0 0 6.34.07zm-.01.94a5.4 5.4 0 0 1 5.4 5.4 5.4 5.4 0 0 1-5.4 5.41 5.4 5.4 0 0 1-5.41-5.4A5.4 5.4 0 0 1 6.32 1zm.02.21c-.26 0-.64.14-1.01.74h-.08a.6.6 0 0 0-.38 1.07 7.9 7.9 0 0 0-.13.46c-1.35-.45-2.4-.42-2.76.16-.29.47-.08 1.18.6 2 .2.25.41.48.64.7a7.82 7.82 0 0 0-.64.69c-.68.83-.89 1.55-.6 2 .13.23.45.48 1.14.48h.17a.6.6 0 0 0 1.15-.22l.3-.09c.33 1.39.9 2.27 1.6 2.27.69 0 1.26-.88 1.6-2.26a5.34 5.34 0 0 0 1.6.3c.55 0 .96-.15 1.16-.47.23-.37.14-.9-.25-1.52a.6.6 0 0 0 .12-.36.6.6 0 0 0-.84-.55 8.83 8.83 0 0 0-.27-.26c.23-.22.44-.45.64-.69.68-.83.89-1.54.6-2-.36-.59-1.4-.62-2.76-.18-.34-1.39-.92-2.27-1.6-2.27zm0 .36c.46 0 .95.77 1.25 2.02-.43.16-.85.35-1.25.57-.4-.21-.82-.4-1.25-.56l.12-.45h.04a.6.6 0 0 0 .41-1.05c.22-.34.46-.53.68-.53zM9.6 3.55c.4 0 .7.1.81.3.2.3-.02.9-.58 1.59-.19.23-.4.45-.62.66-.3-.28-.64-.55-.98-.79-.03-.49-.1-.98-.19-1.46a5 5 0 0 1 1.56-.3zm-6.48 0c.41 0 .95.1 1.56.3a11.83 11.83 0 0 0-.2 1.46c-.33.24-.66.5-.98.8a7.54 7.54 0 0 1-.62-.67c-.54-.69-.77-1.28-.57-1.6.12-.18.4-.28.81-.29zm4.57.42c.06.33.12.68.15 1.06a12.35 12.35 0 0 0-.48-.3 16.4 16.4 0 0 0-.6-.36c.32-.16.63-.3.93-.4zm-2.66 0c.3.11.61.25.93.4a14.46 14.46 0 0 0-1.08.67c.03-.38.09-.73.15-1.07zm1.33.6a13.03 13.03 0 0 1 1.52.93 13.89 13.89 0 0 1 0 1.7 14.94 14.94 0 0 1-1.52.93 13.05 13.05 0 0 1-1.52-.93 13.84 13.84 0 0 1 0-1.7 13.56 13.56 0 0 1 1.52-.93zm0 .93a.85.85 0 1 0 0 1.7.85.85 0 0 0 0-1.7zm-1.9.28l-.01.57v.57a12.3 12.3 0 0 1-.68-.57c.22-.2.45-.38.7-.57zm3.8 0l.69.57c-.22.19-.45.38-.7.57a14.42 14.42 0 0 0 0-1.14zm-4.76.82c.32.28.64.55.98.8.04.48.1.97.2 1.45l-.3.1a.6.6 0 0 0-1.11.2c-.49.03-.83-.08-.96-.3-.2-.3.02-.9.57-1.58.2-.24.4-.46.62-.67zm5.72 0l.25.26a.6.6 0 0 0-.09.31c0 .34.27.6.6.6a.58.58 0 0 0 .2-.02c.3.47.37.87.23 1.1-.24.4-1.14.4-2.37 0 .1-.48.16-.96.2-1.45.33-.25.66-.51.98-.8zM4.87 7.67a17.03 17.03 0 0 0 1.08.68c-.31.15-.62.28-.93.4a11.18 11.18 0 0 1-.15-1.08zm2.96 0c-.03.39-.09.74-.15 1.07a10.79 10.79 0 0 1-.93-.4 16.52 16.52 0 0 0 1.08-.66zm-1.48.88c.4.2.82.4 1.25.56-.3 1.26-.8 2.02-1.25 2.02-.46 0-.95-.77-1.25-2.03.43-.16.84-.34 1.25-.55z"/></svg>
