<svg xmlns="http://www.w3.org/2000/svg" width="48" height="48" viewBox="0 0 12.7 12.7"><path d="M6.34.07a6.29 6.29 0 0 0-6.29 6.3 6.29 6.29 0 0 0 6.3 6.28 6.29 6.29 0 0 0 6.28-6.29A6.29 6.29 0 0 0 6.34.07zm-.01.94a5.4 5.4 0 0 1 5.4 5.4 5.4 5.4 0 0 1-5.4 5.41 5.4 5.4 0 0 1-5.41-5.4A5.4 5.4 0 0 1 6.32 1zM4.1 2.74v1.11h1.24V2.74zm3.24 0v1.11h1.24V2.74zm-4.99.74v1.11h1.25V3.48zm6.73 0v1.11h1.25V3.48zm-3.36.74v1.11h1.24V4.22zm-1.62.37V5.7h1.24V4.6zm3.24 0V5.7h1.24V4.6zm-4.99.74v1.11h1.25v-1.1zm6.73 0v1.11h1.25v-1.1zm-3.36.74v1.11h1.24v-1.1zm-1.62.37v1.11h1.24v-1.1zm3.24 0v1.11h1.24v-1.1zm-4.99.74V8.3h1.25V7.2zm6.73 0V8.3h1.25V7.2zm-3.36.74v1.11h1.24v-1.1zM4.1 8.3V9.4h1.24V8.3zm3.24 0V9.4h1.24V8.3zM5.73 9.78v1.1h1.24v-1.1z" fill="#2ca02c"/></svg>
