<svg xmlns="http://www.w3.org/2000/svg" width="48" height="48" viewBox="0 0 12.7 12.7"><path fill="green" d="M6.35.06a6.29 6.29 0 0 0-6.29 6.3 6.29 6.29 0 0 0 6.3 6.28 6.29 6.29 0 0 0 6.28-6.29 6.29 6.29 0 0 0-1.26-3.76l-.64.7a5.4 5.4 0 0 1 1 3.11 5.4 5.4 0 0 1-5.4 5.41 5.4 5.4 0 0 1-5.42-5.4A5.4 5.4 0 0 1 6.33 1a5.4 5.4 0 0 1 2.54.63l.92-.54A6.29 6.29 0 0 0 6.35.06zm4.86.79c0-.02-.16.09-.34.23C9.1 2.4 6.92 3.56 5.7 3.8l-.23.04-.1.23c-.3.8-1.17 1.38-2.53 1.67a3.13 3.13 0 0 0-.51.14 1.46 1.46 0 0 0-.56.56c-.09.17-.1.24-.09.47.01.2.04.3.1.36.07.08.25.12.2.05-.03-.06.14-.25.32-.33a3.53 3.53 0 0 1 2.73.2c.38.2.7.45.97.75v-.03c0-.2.01-.35.02-.35l.06.1c.05.15.08.3.09.47.51.64.82 1.42 1 2.18.23-.4.46-.94.46-1.16 0-.32.23.31.3.84l.05.37.1-.22c.15-.37.22-.76.22-1.22a3.25 3.25 0 0 0-.03-.51c-.01-.05-.01-.09.01-.09.05 0 .44.4.54.55.1.14.1.08.03-.21-.2-.76-.8-1.48-1.65-2l-.32-.2h.16l.28-.03.13-.03-.17-.06-.16-.05.26-.05a3 3 0 0 0 .56-.2l.29-.13-.37.02-.37.01.29-.1c.4-.13 1.17-.52 1.12-.57a1.82 1.82 0 0 0-.32.06c-.5.13-.55.1-.16-.08.37-.18.9-.52 1.16-.74l.17-.14-.31.13c-.26.12-.86.3-.96.3l.23-.13c.42-.21.8-.5 1.26-.94l.44-.42-.35.18c-.33.17-1.03.48-1.03.46a8.88 8.88 0 0 0 1.79-1.8l.15-.22-.39.3a8.2 8.2 0 0 1-1.3.83l.1-.1A12.82 12.82 0 0 0 11.21.86z"/></svg>