<svg xmlns="http://www.w3.org/2000/svg" width="48" height="48" viewBox="0 0 12.7 12.7"><path d="M6.34.07a6.29 6.29 0 0 0-6.29 6.3 6.29 6.29 0 0 0 6.3 6.28 6.29 6.29 0 0 0 6.28-6.29A6.29 6.29 0 0 0 6.34.07zm-.01.94a5.4 5.4 0 0 1 5.4 5.4 5.4 5.4 0 0 1-5.4 5.41 5.4 5.4 0 0 1-5.41-5.4A5.4 5.4 0 0 1 6.32 1zM4.3 4.3v4.1h1.85v-.93h-.92V5.24h.92V4.3H4.32zm2.23 0v.93h.92v2.22h-.92v.93h1.85V4.3H6.55z" fill="green"/><path d="M6.35 1.65a4.7 4.7 0 0 0-4.7 4.7 4.7 4.7 0 0 0 4.7 4.7 4.7 4.7 0 0 0 4.7-4.7 4.7 4.7 0 0 0-4.7-4.7zm-.01.88a3.86 3.86 0 0 1 3.86 3.86 3.86 3.86 0 0 1-3.86 3.86 3.86 3.86 0 0 1-3.86-3.86 3.86 3.86 0 0 1 3.86-3.86z" fill="#003380" opacity=".75"/></svg>