<svg xmlns="http://www.w3.org/2000/svg" width="48" height="48" viewBox="0 0 12.7 12.7"><path fill="#2ca02c" d="M6.34.07a6.29 6.29 0 0 0-6.29 6.3 6.29 6.29 0 0 0 6.3 6.28 6.29 6.29 0 0 0 6.28-6.29A6.29 6.29 0 0 0 6.34.07zm-.01.94a5.4 5.4 0 0 1 5.4 5.4 5.4 5.4 0 0 1-5.4 5.41 5.4 5.4 0 0 1-5.41-5.4A5.4 5.4 0 0 1 6.32 1zm-.94.58a.24.24 0 0 0-.2.2l-.2 1.01c-.36.14-.7.34-.98.57l-.98-.33a.24.24 0 0 0-.28.1L1.82 4.8a.25.25 0 0 0 .05.3l.77.69a3.85 3.85 0 0 0-.04.56c0 .2.02.38.04.57l-.77.69a.25.25 0 0 0-.05.3l.93 1.65a.24.24 0 0 0 .28.1l.98-.33c.29.23.62.43.98.57l.2 1.02c.02.1.12.2.22.2H7.3a.24.24 0 0 0 .23-.2l.2-1.02c.35-.14.68-.33.97-.57l.98.33a.24.24 0 0 0 .28-.1l.93-1.65a.25.25 0 0 0-.05-.3l-.77-.7a3.92 3.92 0 0 0 0-1.12l.77-.7a.25.25 0 0 0 .05-.3l-.93-1.65a.24.24 0 0 0-.28-.1l-.98.33a3.76 3.76 0 0 0-.98-.57l-.2-1.02a.24.24 0 0 0-.22-.2h-1.9zm.98 2.54a2.22 2.22 0 0 1 2.22 2.22 2.22 2.22 0 0 1-2.22 2.23 2.22 2.22 0 0 1-2.22-2.23 2.22 2.22 0 0 1 2.22-2.22zm.07.66a1.57 1.57 0 0 0-1.57 1.57 1.57 1.57 0 0 0 1.57 1.57 1.57 1.57 0 0 0 .98-.35l-.37-.37a1.04 1.04 0 0 1-.6.2A1.04 1.04 0 0 1 5.4 6.35a1.04 1.04 0 0 1 1.04-1.03 1.04 1.04 0 0 1 .63.21l.39-.36a1.57 1.57 0 0 0-1.03-.39z"/></svg>
