<svg xmlns="http://www.w3.org/2000/svg" width="48" height="48" viewBox="0 0 12.7 12.7"><path fill="green" d="M6.34.07a6.29 6.29 0 0 0-6.29 6.3 6.29 6.29 0 0 0 6.3 6.28 6.29 6.29 0 0 0 6.28-6.29A6.29 6.29 0 0 0 6.34.07zm-.01.94a5.4 5.4 0 0 1 5.4 5.4 5.4 5.4 0 0 1-5.4 5.41 5.4 5.4 0 0 1-5.41-5.4A5.4 5.4 0 0 1 6.32 1zm.31.4a3.35 3.35 0 0 0-1.46.35l.47.7A2.52 2.52 0 0 1 8.4 6.6l-.91-1.36-.56 2.61 2.66.53-.72-1.07a3.36 3.36 0 0 0-2.23-5.9zm.67 1.54a.83.83 0 0 0-.47.15.84.84 0 0 0-.23 1.16c.26.39.78.5 1.17.23A.84.84 0 0 0 8 3.33a.84.84 0 0 0-.7-.38zm-4.2 1.37l.72 1.07a3.36 3.36 0 0 0 3.7 5.55l-.48-.7A2.52 2.52 0 0 1 4.3 6.1l.91 1.36.55-2.61-2.65-.53zM5.4 8.06a.84.84 0 0 0-.48.15.84.84 0 0 0-.23 1.16.84.84 0 1 0 1.4-.93.84.84 0 0 0-.7-.38z"/></svg>