<svg xmlns="http://www.w3.org/2000/svg" width="48" height="48" viewBox="0 0 12.7 12.7"><path d="M6.34.07a6.29 6.29 0 0 0-6.29 6.3 6.29 6.29 0 0 0 6.3 6.28 6.29 6.29 0 0 0 6.28-6.29A6.29 6.29 0 0 0 6.34.07zm-.01.94a5.4 5.4 0 0 1 5.4 5.4 5.4 5.4 0 0 1-5.4 5.41 5.4 5.4 0 0 1-5.41-5.4A5.4 5.4 0 0 1 6.32 1zm.55.77l-.42.03.06.01c.1-.04.25-.02.36-.04zm-.62.06c-.23.01-.55.14-.45.03-.37.16-1.04.4-1.42.75v-.08c-.18.2-.76.62-.8.88l-.05.02c-.09.15-.14.32-.22.47-.11.2-.17.08-.15.11-.23.47-.34.86-.44 1.18.07.1 0 .63.03 1.05a4.7 4.7 0 0 0 3.18 4.58c.26.09.63.08.95.1-.38-.11-.42-.06-.8-.2-.26-.12-.32-.26-.5-.42l.07.13c-.37-.13-.21-.16-.51-.26l.08-.1c-.12 0-.32-.2-.37-.3h-.13c-.16-.2-.24-.33-.24-.44l-.04.07c-.05-.08-.58-.72-.3-.57-.05-.05-.12-.08-.2-.21l.06-.07c-.13-.17-.24-.39-.23-.46.07.1.12.11.16.13-.33-.83-.35-.04-.6-.84h.05l-.1-.2.03-.23c-.24-.28-.07-1.18-.04-1.68.03-.2.2-.42.34-.75l-.08-.02c.15-.27.9-1.1 1.23-1.05.17-.2-.03 0-.06-.05.36-.38.47-.27.72-.34.26-.15-.23.07-.1-.06.45-.11.32-.26.92-.32.06.04-.15.06-.2.1.38-.18 1.2-.14 1.74.1.62.3 1.32 1.15 1.34 1.96h.03c-.01.33.05.7-.06 1.04l.08-.16c0 .24-.07.36-.15.57l-.13.07c-.1.2.01.13-.06.3-.17.15-.51.46-.62.5-.08-.01.05-.1.07-.14-.22.15-.18.23-.52.33l-.01-.03c-.85.4-2.02-.39-2-1.46-.02.07-.03.05-.05.08-.04-.56.25-1.11.76-1.34.5-.24 1.07-.14 1.42.19-.19-.26-.58-.53-1.03-.5-.45 0-.87.29-1.01.6-.23.14-.26.56-.36.63-.13 1 .25 1.42.91 1.92.05.04.06.06.06.08.77.29 1.57.22 2.24-.32.17-.13.36-.36.41-.36-.08.12.02.06-.05.16.17-.27-.07-.1.18-.47l.1.13c-.04-.23.27-.5.24-.87.07-.1.08.12 0 .37.11-.28.03-.32.06-.55l.09.24c-.07-.27.07-.46.1-.61-.03-.02-.1.12-.12-.2 0-.14.04-.08.05-.11-.02-.02-.1-.12-.14-.33.03-.05.09.13.13.13-.03-.16-.08-.28-.08-.41-.12-.26-.04.04-.14-.11-.14-.42.1-.1.12-.29.2.3.32.75.37.94-.04-.23-.1-.45-.18-.67.06.03-.1-.47.08-.14-.2-.7-.82-1.36-1.4-1.67.07.06.16.14.13.16-.29-.18-.24-.19-.28-.26-.23-.1-.25 0-.4 0-.44-.24-.53-.21-.93-.36l.01.09c-.29-.1-.34.04-.65 0-.02-.02.1-.05.2-.07-.28.04-.27-.05-.55.01l.21-.12zm.23.05c.08.02.18.03.16.05.1-.02.11-.04-.16-.05zm.16.05l-.05.01h.05zm-3.73 1.8c.03.21-.16.3.05.15.1-.25-.05-.06-.05-.15zm-.16.69c-.14.17-.06.2-.08.32.05-.15.06-.24.08-.32zm5.4 1.01c-.02 0-.04.05-.06.1.03.02.05.2.08.08.01-.13 0-.18-.02-.18zm1.66.46l-.03.06a2.7 2.7 0 0 1-.26.84c.15-.28.25-.59.29-.9zM8.06 6c-.02.1-.07.2-.13.28-.28.18-.02-.1 0-.21-.3.38-.04.23-.05.34.1-.13.16-.26.18-.4zm-.62.59c-.12.03-.25.03-.37.02-.15 0 .03.08.22.1l.15-.12zm-1.91.02c.03.12.1.23.17.34l-.05-.14c-.06-.06-.09-.13-.12-.2zm-.12.2l-.02.11c.1.14.18.29.3.4-.08-.19-.15-.26-.28-.5zm.2.17c.35.63 1.43 1.1 2 .87-.26.01-.6 0-.9-.1-.1-.06-.26-.18-.26-.22v.06c-.22-.1-.42-.26-.59-.45.09.13.18.25.3.35-.2-.07-.48-.5-.56-.51z" fill="#2ca02c"/></svg>
