<svg xmlns="http://www.w3.org/2000/svg" width="48" height="48" viewBox="0 0 12.7 12.7"><path d="M6.34.07a6.29 6.29 0 0 0-6.28 6.3 6.29 6.29 0 0 0 6.28 6.28 6.29 6.29 0 0 0 6.3-6.29A6.29 6.29 0 0 0 6.33.07zm-.01.94a5.4 5.4 0 0 1 5.4 5.4 5.4 5.4 0 0 1-5.4 5.41 5.4 5.4 0 0 1-5.41-5.4A5.4 5.4 0 0 1 6.32 1zM2.55 3.94c-.2 0-.2.19-.2.19v4.94s0 .19.2.19h.57a2.66 2.66 0 0 0 0-5.32h-.57zm7.09 0a2.66 2.66 0 0 0 0 5.32h.57c.19 0 .19-.2.19-.2V8.7s0-.2-.19-.2h-.58a1.9 1.9 0 1 1 0-3.8h.58c.19 0 .19-.18.19-.18v-.38s0-.2-.19-.2h-.57zm-6.6.76h.08a1.9 1.9 0 1 1 0 3.8h-.08V4.7z" fill="#2ca02c" fill-opacity=".99"/></svg>
