<svg xmlns="http://www.w3.org/2000/svg" width="48" height="48" viewBox="0 0 12.7 12.7"><path fill="green" d="M6.34.07a6.29 6.29 0 0 0-6.29 6.3 6.29 6.29 0 0 0 6.3 6.28 6.29 6.29 0 0 0 6.28-6.29A6.29 6.29 0 0 0 6.34.07zm-.01.94a5.4 5.4 0 0 1 5.4 5.4 5.4 5.4 0 0 1-5.4 5.41 5.4 5.4 0 0 1-5.41-5.4A5.4 5.4 0 0 1 6.32 1zM3.82 3.18l.5 1.49h1.97v-1.5H3.82zm2.6 0v1.49h1.97l.5-1.5H6.41zm-2.7.1l-.87 1.39h1.33l-.46-1.4zm5.27 0l-.46 1.39h1.33l-.87-1.4zM2.84 4.8L6 10.11l-1.77-5.3H2.84zm1.53 0l1.92 5.77V4.81H4.37zm2.05 0v5.77l1.92-5.77H6.42zm2.06 0l-1.77 5.3 3.15-5.3H8.48z"/></svg>