<svg xmlns="http://www.w3.org/2000/svg" width="48" height="48" viewBox="0 0 12.7 12.7"><path fill="#2ca02c" d="M6.34.07a6.29 6.29 0 0 0-6.29 6.3 6.29 6.29 0 0 0 6.3 6.28 6.29 6.29 0 0 0 6.28-6.29A6.29 6.29 0 0 0 6.34.07zm-.01.94a5.4 5.4 0 0 1 5.4 5.4 5.4 5.4 0 0 1-5.4 5.41 5.4 5.4 0 0 1-5.41-5.4A5.4 5.4 0 0 1 6.32 1zM4.2 2.35a.5.5 0 0 0-.5.5v.82h1v-.81a.5.5 0 0 0-.5-.5zm4.27 0a.5.5 0 0 0-.5.5v.82h1v-.81a.5.5 0 0 0-.5-.5zM2.32 3.9v1.38h.01v3.56c0 .42.16.77.48 1.07.33.3.71.45 1.17.45h4.75c.46 0 .84-.15 1.17-.45.32-.3.48-.65.48-1.07V3.89H2.31zm.74 1.38h6.59v3.56a.78.78 0 0 1-.27.6.92.92 0 0 1-.65.24H3.98a.92.92 0 0 1-.65-.24.78.78 0 0 1-.27-.6V5.27zm2.06.74a2.84 2.84 0 0 0-.78.18v.38c.15-.09.29-.15.42-.19.13-.04.25-.06.37-.06.16 0 .3.05.4.14a.46.46 0 0 1 .15.36.6.6 0 0 1-.07.27c-.05.1-.13.2-.25.34l-.46.47-.57.59v.31h1.74v-.31h-1.3l.7-.71.29-.31c.1-.14.18-.26.23-.36a.82.82 0 0 0 .06-.32.7.7 0 0 0-.25-.57c-.17-.14-.4-.21-.68-.21zm2.4.05l-.66.13v.34l.66-.13v2.09H6.9v.31h1.58v-.31h-.6V6.06H7.5z"/></svg>
