<svg xmlns="http://www.w3.org/2000/svg" width="48" height="48" viewBox="0 0 12.7 12.7"><path d="M6.34.08A6.27 6.27 0 0 0 .08 6.34a6.27 6.27 0 0 0 6.26 6.27 6.27 6.27 0 0 0 6.27-6.27A6.27 6.27 0 0 0 6.34.08zM6.33 1A5.39 5.39 0 0 1 11.7 6.4a5.39 5.39 0 0 1-5.38 5.39 5.39 5.39 0 0 1-5.4-5.4 5.39 5.39 0 0 1 5.4-5.38zM2.07 4.58v3.54h.48V6.43h1.4v-.4h-1.4V4.98H4.1v-.4H2.07zm2.8 0v3.54h2.27v-.4h-1.8V6.43h1.69v-.4H5.34V4.98H7.1v-.4H4.86zm3.06 0v3.54h.48V6.43h1.74v1.69h.48V4.58h-.48v1.45H8.41V4.58h-.48z" fill="green"/></svg>