<svg xmlns="http://www.w3.org/2000/svg" width="48" height="48" viewBox="0 0 12.7 12.7"><path fill="#2ca02c" d="M6.34.07a6.29 6.29 0 0 0-6.29 6.3 6.29 6.29 0 0 0 6.3 6.28 6.29 6.29 0 0 0 6.28-6.29A6.29 6.29 0 0 0 6.34.07zm-.01.94a5.4 5.4 0 0 1 5.4 5.4 5.4 5.4 0 0 1-5.4 5.41 5.4 5.4 0 0 1-5.41-5.4A5.4 5.4 0 0 1 6.32 1zM2.98 2.98a.13.13 0 0 0-.12.13v2.86c0 3.9 3.41 5.23 3.45 5.24h.08a5.69 5.69 0 0 0 3.45-5.24V3.1a.13.13 0 0 0-.12-.13H2.98zm.13.25h6.48v2.73c0 3.5-2.85 4.83-3.24 5a5.42 5.42 0 0 1-3.24-5V3.24zm2.6.2c.14 1.07-.27 1.32-1.24 3.36s.89 3.34.89 3.34c-.75-2.46.83-3.35.83-3.35-.11 1.3.63 2.33.63 2.33.27-.08.8-.47.8-.47 0 .47-.28 1.49-.28 1.49s.96-.75 1.27-1.99c.3-1.24-.58-2.48-.58-2.48a3.32 3.32 0 0 1-.82 2.4.48.48 0 0 0 .07-.11c.1-.21.27-.76.17-2.01a3.2 3.2 0 0 0-1.74-2.51z"/></svg>
