<svg xmlns="http://www.w3.org/2000/svg" width="48" height="48" viewBox="0 0 12.7 12.7"><path fill="#2ca02c" d="M6.34.07a6.29 6.29 0 0 0-6.29 6.3 6.29 6.29 0 0 0 6.3 6.28 6.29 6.29 0 0 0 6.28-6.29A6.29 6.29 0 0 0 6.34.07zm-.01.94a5.4 5.4 0 0 1 5.4 5.4 5.4 5.4 0 0 1-5.4 5.41 5.4 5.4 0 0 1-5.41-5.4A5.4 5.4 0 0 1 6.32 1zm2.95 1.38c-1.25 0-1.7 1.46-2 2.42H5.84c.14-.56.37-2 1.05-2 .3 0 .14.57.62.57a.35.35 0 0 0 .36-.35c0-.36-.51-.53-.82-.53-1.23 0-1.64 1.35-1.93 2.3h-.85l-.11.23h.9L4 8.69c-.08.33-.33 1.36-.68 1.36-.05 0-.1-.05-.1-.12 0-.13.1-.21.1-.34 0-.15-.18-.24-.32-.24-.27 0-.4.19-.4.39 0 .27.23.58.7.58.88 0 1.33-1.21 1.52-1.9l.95-3.39h1.46L6.18 8.69c-.08.34-.33 1.36-.68 1.36-.05 0-.11-.05-.11-.12 0-.12.12-.21.12-.34 0-.15-.2-.24-.33-.24-.27 0-.4.19-.4.39 0 .27.23.58.7.58.88 0 1.33-1.21 1.52-1.9l.95-3.4h.83l.1-.21H8c.15-.56.43-2.1 1.11-2.1.3 0 .15.55.63.55a.35.35 0 0 0 .36-.34c0-.36-.51-.54-.82-.54z"/></svg>
