<svg xmlns="http://www.w3.org/2000/svg" width="48" height="48" viewBox="0 0 12.7 12.7"><path fill="green" d="M6.34.07a6.29 6.29 0 0 0-6.29 6.3 6.29 6.29 0 0 0 6.3 6.28 6.29 6.29 0 0 0 6.28-6.29A6.29 6.29 0 0 0 6.34.07zm-.01.94a5.4 5.4 0 0 1 5.4 5.4 5.4 5.4 0 0 1-5.4 5.41 5.4 5.4 0 0 1-5.41-5.4A5.4 5.4 0 0 1 6.32 1zm3.8 1.95c-.06 0-.12.03-.16.08a.5.5 0 0 0-.09.16c-.04.12-.18.57-.7 1.01-.51.44-1.4 1.1-2.94 1.14a2.06 2.06 0 0 1-1.96-1.22c-.1-.18-.23-.53-.23-.3v.33l-.01 1.75.02.3c-.09.25.12.48-.4.87.13.7-.35 1-.44 1a5.95 5.95 0 0 0 3.8 1.63c1 .03 1.97-.32 2.6-1.28.65-.96.96-2.8.7-5.19a.49.49 0 0 0-.04-.17c-.03-.05-.07-.1-.14-.1zM5.18 5.38c.25 0 .5.08.7.25l.13.14a.88.88 0 0 1 .13-.14c.2-.17.44-.25.7-.25.24 0 .5.08.69.25a.94.94 0 0 1 .31.73.94.94 0 0 1-.31.73 1.06 1.06 0 0 1-.7.24c-.25 0-.5-.08-.69-.24A.9.9 0 0 1 6 6.94a.88.88 0 0 1-.14.15 1.06 1.06 0 0 1-.69.24c-.25 0-.5-.08-.7-.24a.94.94 0 0 1-.31-.73c0-.32.13-.57.32-.73.19-.17.44-.25.69-.25zm-3.02.22a.86.86 0 0 0-.52.16c-.43.3-.54 1 0 1.73.52.73 1.22.84 1.65.53.43-.3.55-1 .01-1.72-.34-.48-.77-.7-1.14-.7zm3 .34a.51.51 0 0 0-.34.13.49.49 0 0 0-.16.37.49.49 0 0 0 .16.37.51.51 0 0 0 .34.13.51.51 0 0 0 .34-.13.49.49 0 0 0 .15-.37.49.49 0 0 0-.15-.37.51.51 0 0 0-.34-.13zm1.79 0a.51.51 0 0 0-.34.13.49.49 0 0 0-.16.37.49.49 0 0 0 .16.37.51.51 0 0 0 .34.13.51.51 0 0 0 .34-.13.49.49 0 0 0 .15-.37.49.49 0 0 0-.15-.37.51.51 0 0 0-.34-.13zm.9 1.8s.32.13.5.35c.17.22-.07.35-.11.63l-.19-.43c-.18.25-.5.43-.91.44a5.28 5.28 0 0 1-1.68-.4c.42 0 .81.02 1.16 0 .59-.04 1.1-.1 1.36-.3-.1-.14-.14-.3-.14-.3z"/></svg>