<svg xmlns="http://www.w3.org/2000/svg" width="48" height="48" viewBox="0 0 12.7 12.7"><path d="M6.34.07a6.29 6.29 0 0 0-6.29 6.3 6.29 6.29 0 0 0 6.3 6.28 6.29 6.29 0 0 0 6.28-6.29A6.29 6.29 0 0 0 6.34.07zm-.01.94a5.4 5.4 0 0 1 5.4 5.4 5.4 5.4 0 0 1-5.4 5.41 5.4 5.4 0 0 1-5.41-5.4A5.4 5.4 0 0 1 6.32 1zm1.81 2.07a.18.18 0 0 0-.18.1l-.01.09c0 .07.03.13.09.16a3.54 3.54 0 0 1-.42 6.39V8.34c.23-.07.4-.28.4-.54 0-.21-.11-.39-.29-.49.13-1.27.72-.93.72-1.34v-.24c0-.6-1.4-2.6-2.07-2.64h-.12c-.66.05-2.07 2.03-2.07 2.64v.24c0 .4.58.07.71 1.34a.56.56 0 0 0-.27.5c0 .24.17.46.4.53v1.48a3.55 3.55 0 0 1-.42-6.4.18.18 0 0 0 .07-.24c-.02-.06-.09-.1-.16-.1a.2.2 0 0 0-.09.02 3.9 3.9 0 0 0 .97 7.21V8.65l.37.1v1.98a4.25 4.25 0 0 1-3.42-5.71c.04-.1 0-.2-.1-.24a.22.22 0 0 0-.06-.01.19.19 0 0 0-.18.12 4.61 4.61 0 0 0 4.12 6.24V8.79h.39v2.34a4.61 4.61 0 0 0 4.13-6.23.19.19 0 0 0-.25-.11.19.19 0 0 0-.11.17l.01.06a4.23 4.23 0 0 1-3.41 5.7V8.74l.37-.1v1.66a3.9 3.9 0 0 0 .88-7.22zM5.21 7.4c.1 0 .2.05.26.12.07.07.12.16.12.26-.01.11-.05.2-.12.27a.37.37 0 0 1-.26.11c-.1 0-.2-.04-.27-.11a.35.35 0 0 1-.11-.27c0-.1.04-.2.11-.26a.37.37 0 0 1 .27-.12zm2.23 0c.11 0 .2.05.27.12.07.07.11.16.11.26 0 .11-.04.2-.11.27a.37.37 0 0 1-.27.11c-.1 0-.2-.04-.26-.11a.37.37 0 0 1-.12-.27c0-.1.05-.2.12-.26a.37.37 0 0 1 .26-.12z" fill="#2ca02c"/></svg>
