<svg xmlns="http://www.w3.org/2000/svg" width="48" height="48" viewBox="0 0 12.7 12.7"><path d="M6.34.07a6.29 6.29 0 0 0-6.29 6.3 6.29 6.29 0 0 0 6.3 6.28 6.29 6.29 0 0 0 6.28-6.29A6.29 6.29 0 0 0 6.34.07zm-.01.94a5.4 5.4 0 0 1 5.4 5.4 5.4 5.4 0 0 1-5.4 5.41 5.4 5.4 0 0 1-5.41-5.4A5.4 5.4 0 0 1 6.32 1z" fill="green"/><path d="M6.37 1.85c-.92 0-1.67.66-1.67 1.48 0 .3.04.67.23 1.49.08.23.6.71.9 1.02a.66.66 0 0 1-.08.33c-.95.34-2.67.95-2.76 1.34l-.25 2.15c1.67.9 5.6.86 7.22 0-.06-.44-.1-1.7-.16-2.15C9.36 7 8.23 6.7 7.03 6.17a.53.53 0 0 1-.1-.24c.24-.29.8-.86.89-1.11.2-.86.21-1.17.22-1.49 0-.82-.75-1.48-1.67-1.48z" fill="purple" opacity=".75"/></svg>