<svg xmlns="http://www.w3.org/2000/svg" width="48" height="48" viewBox="0 0 12.7 12.7"><path d="M6.34.07a6.29 6.29 0 0 0-6.29 6.3 6.29 6.29 0 0 0 6.3 6.28 6.29 6.29 0 0 0 6.28-6.29A6.29 6.29 0 0 0 6.34.07zm-.01.94a5.4 5.4 0 0 1 5.4 5.4 5.4 5.4 0 0 1-5.4 5.41 5.4 5.4 0 0 1-5.41-5.4A5.4 5.4 0 0 1 6.32 1zm.02 1.12c-.5 0-.92.33-1.08.77h-1.6a.77.77 0 0 0-.77.77V9.8c0 .42.34.77.77.77h5.36a.77.77 0 0 0 .77-.77V3.67a.77.77 0 0 0-.77-.77h-1.6a1.15 1.15 0 0 0-1.08-.77zm0 .77a.38.38 0 1 1 0 .77.38.38 0 0 1 0-.77zm-2.68.77h.76v1.15h3.84V3.67h.76V9.8H3.67V3.67z" fill="green"/></svg>