<svg xmlns="http://www.w3.org/2000/svg" width="48" height="48" viewBox="0 0 12.7 12.7"><path fill="green" d="M6.34.08A6.27 6.27 0 0 0 .08 6.34a6.27 6.27 0 0 0 6.26 6.27 6.27 6.27 0 0 0 6.27-6.27A6.27 6.27 0 0 0 6.34.08zM6.33 1A5.39 5.39 0 0 1 11.7 6.4a5.39 5.39 0 0 1-5.38 5.39 5.39 5.39 0 0 1-5.4-5.4 5.39 5.39 0 0 1 5.4-5.38zM5.9 2.1l-.1 1.27a3.02 3.02 0 0 0-1.17.48l-.95-.83-.64.65.82.95a3.02 3.02 0 0 0-.48 1.18l-1.26.09v.9l1.26.1a3.02 3.02 0 0 0 .49 1.17l-.83.95.64.64.95-.82a3.02 3.02 0 0 0 1.18.48l.09 1.26h.9l.1-1.26a3.02 3.02 0 0 0 1.17-.49l.95.83.65-.64-.83-.95a3.02 3.02 0 0 0 .48-1.18l1.26-.09v-.9l-1.26-.1a3.02 3.02 0 0 0-.48-1.17l.83-.95-.65-.64-.95.82a3.02 3.02 0 0 0-1.18-.48L6.8 2.12h-.9zM5.78 4.4a1.06 1.06 0 0 1 1.05 1.06 1.06 1.06 0 0 1-1.05 1.06 1.06 1.06 0 0 1-1.06-1.06 1.06 1.06 0 0 1 1.06-1.06z"/></svg>