<svg xmlns="http://www.w3.org/2000/svg" width="48" height="48" viewBox="0 0 12.7 12.7"><path fill="green" d="M6.34.07a6.29 6.29 0 0 0-6.29 6.3 6.29 6.29 0 0 0 6.3 6.28 6.29 6.29 0 0 0 6.28-6.29A6.29 6.29 0 0 0 6.34.07zm-.01.94a5.4 5.4 0 0 1 5.4 5.4 5.4 5.4 0 0 1-5.4 5.41 5.4 5.4 0 0 1-5.41-5.4A5.4 5.4 0 0 1 6.32 1z"/><path fill="none" stroke="green" stroke-width=".3" d="M7.21 3.14h2.61a.42.42 0 0 1 .43.42v5.58a.42.42 0 0 1-.43.42H7.61L6.7 8.3l1.56-1.28.36-.31-.42-.22-2.99-1.55z"/><path fill="none" stroke="green" stroke-width=".29" d="M2.87 3.14h3.4L4.45 4.76l-.34.3.4.22L7.5 6.82 6.1 8l-.23.18.17.24.8 1.14H2.87a.42.42 0 0 1-.42-.42V3.56a.42.42 0 0 1 .42-.42z"/><path fill="green" d="M10.25 4.2v-.75a.42.42 0 0 0-.43-.42H7.33L6.03 4.2m-.94 0l1.3-1.17H2.86a.42.42 0 0 0-.42.42v.75"/></svg>