<svg xmlns="http://www.w3.org/2000/svg" width="48" height="48" viewBox="0 0 12.7 12.7"><path fill="#2ca02c" d="M6.34.07a6.29 6.29 0 0 0-6.29 6.3 6.29 6.29 0 0 0 6.3 6.28 6.29 6.29 0 0 0 6.28-6.29A6.29 6.29 0 0 0 6.34.07zm-.01.94a5.4 5.4 0 0 1 4.1 1.9H2.21a5.4 5.4 0 0 1 4.12-1.9zM1.6 3.78h1.08c.03 0 .07 0 .1.02a.34.34 0 0 1 .15.17.52.52 0 0 1 .04.2v4.39a.52.52 0 0 1-.04.2.48.48 0 0 1-.04.07.32.32 0 0 1-.12.1l-.09.01H1.55a5.4 5.4 0 0 1-.3-.7V4.6a5.4 5.4 0 0 1 .36-.81zm2.06 0h7.37a5.4 5.4 0 0 1 .7 2.64 5.4 5.4 0 0 1-.64 2.52H3.7a.22.22 0 0 1-.09-.01.33.33 0 0 1-.15-.17.52.52 0 0 1-.04-.2v-4.4a.52.52 0 0 1 .04-.19.33.33 0 0 1 .15-.17l.06-.02zm.6.49a.3.3 0 0 0-.3.3v3.57c0 .16.13.3.3.3h4.16a.3.3 0 0 0 .3-.3V4.56a.3.3 0 0 0-.3-.3H4.27zm-3.03.33v3.64a5.4 5.4 0 0 1-.32-1.82 5.4 5.4 0 0 1 .32-1.82zm3.03.64h4.16c.04 0 .08.03.08.07v2.83a.07.07 0 0 1-.08.07H4.27a.07.07 0 0 1-.08-.07V5.3c0-.04.03-.08.08-.08zM2.1 9.79h8.44a5.4 5.4 0 0 1-4.21 2.03A5.4 5.4 0 0 1 2.1 9.8z"/></svg>
