<svg xmlns="http://www.w3.org/2000/svg" width="48" height="48" viewBox="0 0 12.7 12.7"><path d="M6.34.07a6.29 6.29 0 0 0-6.29 6.3 6.29 6.29 0 0 0 6.3 6.28 6.29 6.29 0 0 0 6.28-6.29A6.29 6.29 0 0 0 6.34.07zM6.32 1l.01.01a5.4 5.4 0 0 1 5.4 5.4 5.4 5.4 0 0 1-5.4 5.41 5.4 5.4 0 0 1-5.41-5.4A5.4 5.4 0 0 1 6.32 1zM3.27 2.95V5.5c.02 2.68.02 2.66.15 3.07.23.74.76 1.3 1.49 1.59.17.07.55.16.75.19a11.12 11.12 0 0 0 3.39-.36c.04-.02.04-.21.04-3.49V2.95H7.24V8.51H5.38v-3.7H4.6l.87-1.86h-2.2z" fill="green"/></svg>