<svg xmlns="http://www.w3.org/2000/svg" width="48" height="48" viewBox="0 0 12.7 12.7"><path fill="#2ca02c" d="M6.34.07a6.29 6.29 0 0 0-6.29 6.3 6.29 6.29 0 0 0 6.3 6.28 6.29 6.29 0 0 0 6.28-6.29A6.29 6.29 0 0 0 6.34.07zm-.01.94a5.4 5.4 0 0 1 5.4 5.4 5.4 5.4 0 0 1-5.4 5.41 5.4 5.4 0 0 1-5.41-5.4A5.4 5.4 0 0 1 6.32 1z"/><path fill="#d40000" d="M5.58 2.15a3 3 0 0 0-2.07.66c-.43.38-.7.92-.7 1.46 0 .84.64 1.72 1.82 1.72.11 0 .24 0 .35-.02l-.02.04c-.05.11-.09.22-.09.39 0 .32.16.52.3.72l.03.02h-.04c-.48.04-1.39.1-2.05.5a1.57 1.57 0 0 0-.84 1.34c0 .78.73 1.56 2.35 1.56 1.88 0 2.87-1.03 2.87-2.06 0-.76-.45-1.14-.92-1.54l-.4-.3c-.12-.1-.27-.24-.27-.47 0-.23.15-.39.28-.52l.02-.01c.43-.34.92-.73.92-1.56 0-.84-.52-1.27-.78-1.48h.67l.02-.01.57-.36c.02-.01.03-.03.02-.05a.04.04 0 0 0-.04-.03zm-.8.42c.89 0 1.38 1.19 1.38 2.01 0 .13 0 .53-.27.8a1.12 1.12 0 0 1-.75.3c-.96 0-1.36-1.26-1.36-1.94 0-.35.08-.61.24-.81.17-.22.47-.36.76-.36zm4.05 2.4a.04.04 0 0 0-.04.05v1.05H7.74a.04.04 0 0 0-.04.05v.46c0 .02.02.04.04.04H8.8v1.06c0 .02.02.04.04.04h.46c.02 0 .04-.02.04-.04V6.62h1.05c.03 0 .05-.02.05-.04v-.46a.04.04 0 0 0-.04-.05H9.32V5.02a.04.04 0 0 0-.04-.04zM5.32 7.46l.25.01c.8.58 1.19.88 1.19 1.45 0 .73-.61 1.18-1.6 1.18-1.16 0-1.93-.54-1.93-1.33 0-.53.32-.9.94-1.13a4.4 4.4 0 0 1 1.15-.18z" opacity=".75"/></svg>
