<svg xmlns="http://www.w3.org/2000/svg" width="48" height="48" viewBox="0 0 12.7 12.7"><path d="M6.34.07a6.29 6.29 0 0 0-6.29 6.3 6.29 6.29 0 0 0 6.3 6.28 6.29 6.29 0 0 0 6.28-6.29A6.29 6.29 0 0 0 6.34.07zm-.01.94a5.4 5.4 0 0 1 5.4 5.4 5.4 5.4 0 0 1-5.4 5.41 5.4 5.4 0 0 1-5.41-5.4A5.4 5.4 0 0 1 6.32 1zm2.86 1.7h-.15v.78h.15v-.78zm-.79.24l-.1.1.55.56.1-.1-.55-.56zm1.46.15l-.55.55.1.1.56-.55-.1-.1zm-.33.76v.15h.78v-.15h-.78zm-.55.03l-.86.85-.42-.42a.2.2 0 0 0-.28 0l-.49.49A3.19 3.19 0 0 0 2.3 7.56v.1a3.19 3.19 0 1 0 6.04-1.44l.49-.49a.2.2 0 0 0 0-.28l-.48-.48.86-.86-.23-.22zm.6.25l-.1.1.55.55.1-.1-.55-.55zm-4.74.9a.65.47 0 0 1 .65.47.65.47 0 0 1-.65.46.65.47 0 0 1-.65-.46.65.47 0 0 1 .65-.47zM3.72 6.2a.61 1.16 12.98 0 1 .1 0 .61 1.16 12.98 0 1 .34 1.28.61 1.16 12.98 0 1-.86 1 .61 1.16 12.98 0 1-.33-1.28.61 1.16 12.98 0 1 .75-1z" fill="green"/></svg>