<svg xmlns="http://www.w3.org/2000/svg" width="48" height="48" viewBox="0 0 12.7 12.7"><path fill="#2ca02c" d="M6.34.07a6.29 6.29 0 0 0-6.29 6.3 6.29 6.29 0 0 0 6.3 6.28 6.29 6.29 0 0 0 6.28-6.29A6.29 6.29 0 0 0 6.34.07zm-.01.94a5.4 5.4 0 0 1 5.4 5.4 5.4 5.4 0 0 1-5.4 5.41 5.4 5.4 0 0 1-5.41-5.4A5.4 5.4 0 0 1 6.32 1zM4.27 2.79H2.83v4.25l2.42 1.07.05-.06a.55.55 0 0 1 .43-.2c.3 0 .55.25.55.56 0 .31-.25.57-.55.57a.56.56 0 0 1-.55-.49l-.01-.05-2.34-1.03v2.5h7.04V2.8h-1.1v2.15l.04.03c.15.1.24.27.24.45a.53.53 0 0 1-.53.53.53.53 0 0 1-.52-.53c0-.23.14-.44.36-.5l.06-.03V2.8H4.6v2.36h1.14l.02-.06a.55.55 0 0 1 .5-.36c.3 0 .55.25.55.56a.54.54 0 1 1-1.02.25l-.03-.05h-1.5V2.8zm2 2.25a.28.28 0 0 0-.28.28.28.28 0 0 0 .28.27.28.28 0 0 0 .28-.28.28.28 0 0 0-.28-.27zm2.25.1a.28.28 0 0 0-.27.28.28.28 0 0 0 .27.28.28.28 0 0 0 .28-.28.28.28 0 0 0-.28-.28zm-.4 1.52A1.48 1.49 0 0 1 9.6 8.15a1.48 1.49 0 0 1-1.48 1.49 1.48 1.49 0 0 1-1.48-1.5 1.48 1.49 0 0 1 1.48-1.48zm.2.5c-.18-.01-.28.25-.1.32.14.05.3-.08.27-.2-.01-.07-.08-.13-.16-.12zm-.07.56a.18.18 0 0 0-.1.04c-.19.06-.34.18-.5.28.02.04.04.08.09.03.06-.03.26-.17.24-.04l-.2.73c-.07.13.07.25.22.16.16-.05.3-.14.43-.23-.01-.04-.03-.1-.08-.04-.07.03-.22.15-.24.05.05-.26.16-.51.23-.77.04-.1 0-.2-.1-.2zm-2.54.41a.28.28 0 0 0-.27.28c0 .16.12.28.27.28A.28.28 0 0 0 6 8.41a.28.28 0 0 0-.28-.28z"/></svg>
