<svg xmlns="http://www.w3.org/2000/svg" width="48" height="48" viewBox="0 0 12.7 12.7"><path fill="#2ca02c" d="M6.34.07a6.29 6.29 0 0 0-6.29 6.3 6.29 6.29 0 0 0 6.3 6.28 6.29 6.29 0 0 0 6.28-6.29A6.29 6.29 0 0 0 6.34.07zm-.01.94a5.4 5.4 0 0 1 5.4 5.4 5.4 5.4 0 0 1-5.4 5.41 5.4 5.4 0 0 1-5.41-5.4A5.4 5.4 0 0 1 6.32 1zM2.9 2.9V4.1a5.8 5.8 0 0 1 5.68 5.7h1.23A7.02 7.02 0 0 0 2.9 2.88zm0 2.8v1.08A3.13 3.13 0 0 1 5.92 9.8H7A4.22 4.22 0 0 0 2.9 5.7zm.71 2.76a.63.63 0 0 0-.47.2.61.61 0 0 0-.2.47c0 .19.07.34.2.47.13.13.28.19.47.19a.6.6 0 0 0 .46-.2.63.63 0 0 0 .2-.46.61.61 0 0 0-.2-.47.6.6 0 0 0-.46-.2z"/></svg>
