<svg xmlns="http://www.w3.org/2000/svg" xmlns:xlink="http://www.w3.org/1999/xlink" width="48" height="48" viewBox="0 0 12.7 12.7"><defs><radialGradient id="b" cx="22.5" cy="28.12" r="14.54" fx="22.5" fy="28.12" gradientTransform="matrix(.34637 0 0 .3467 -3.7 -2.5)" gradientUnits="userSpaceOnUse" xlink:href="#a"/><linearGradient id="a"><stop offset="0" stop-color="#ef2929"/><stop offset="1" stop-color="#c00"/></linearGradient></defs><path d="M6.34.07a6.29 6.29 0 0 0-6.29 6.3 6.29 6.29 0 0 0 6.3 6.28 6.29 6.29 0 0 0 6.28-6.29A6.29 6.29 0 0 0 6.34.07zm-.01.94a5.4 5.4 0 0 1 5.4 5.4 5.4 5.4 0 0 1-5.4 5.41 5.4 5.4 0 0 1-5.41-5.4A5.4 5.4 0 0 1 6.32 1zm.6 3.58v3.73l3.73-1.86z" fill="green"/><ellipse style="marker:none" ry="2.05" rx="2.05" overflow="visible" cy="6.35" cx="4.09" opacity=".75" fill="url(#b)" fill-rule="evenodd"/></svg>