<svg xmlns="http://www.w3.org/2000/svg" width="48" height="48" viewBox="0 0 12.7 12.7"><path fill="#d45500" fill-rule="evenodd" d="M3 2.75l-.03.66A816.9 816.9 0 0 1 5.7 7.93L4.13 3.02c-.34-.07-.79-.18-1.12-.27zm2.7 5.18l2.05-4.78c-.38.05-.8.1-1.24.12l-.8 4.66zm0 0l3.98-1.28V5.52L5.7 7.93zm0 0l3.52 1.5c.15-.25.27-.53.35-.82a762.3 762.3 0 0 1-3.87-.68zm0 0l1 3.12c.28-.03.54-.09.78-.18A766.26 766.26 0 0 1 5.7 7.94zm0 0l-1.14 2.65c.2.12.4.23.63.3l.51-2.95zm0 0l-2.57.82c.06.2.14.4.24.58l2.33-1.4zm0 0L2.97 6.76v.68l2.73.49z" opacity=".75"/><path fill="green" d="M6.34.07a6.29 6.29 0 0 0-6.29 6.3 6.29 6.29 0 0 0 6.3 6.28 6.29 6.29 0 0 0 6.28-6.29A6.29 6.29 0 0 0 6.34.07zm-.01.94a5.4 5.4 0 0 1 5.4 5.4 5.4 5.4 0 0 1-5.4 5.41 5.4 5.4 0 0 1-5.41-5.4A5.4 5.4 0 0 1 6.32 1zm3.23 1.4s-1.63.5-3.25.5-3.22-.47-3.22-.47c-.25 0-.45.1-.45.35v5c0 2.01 1.65 3.65 3.69 3.65S10 9.8 10 7.8V2.79c0-.25-.2-.37-.45-.37zm-.7.97c.2 0 .37.1.37.3V7.6c0 1.58-1.3 2.86-2.9 2.86-1.6 0-2.9-1.28-2.9-2.86V3.67c0-.2.15-.27.35-.27 0 0 1.26.37 2.54.37 1.27 0 2.55-.4 2.55-.4zm-.14.32l-1.31.28v4.06c0 .26-.07.46-.21.6-.14.12-.35.2-.62.2h-.2v.87h.26c.7 0 1.22-.14 1.56-.42.35-.27.52-.7.52-1.25z"/></svg>