<svg xmlns="http://www.w3.org/2000/svg" width="48" height="48" viewBox="0 0 12.7 12.7"><path d="M6.35.06a6.29 6.29 0 0 0-6.29 6.3 6.29 6.29 0 0 0 6.29 6.28A6.29 6.29 0 0 0 9.09 12c.24.24.55.39.91.41a1.46 1.46 0 0 0 1.33-2.22 6.29 6.29 0 0 0 1.31-3.84A6.29 6.29 0 0 0 6.35.06zm-4.3.16A.48.48 0 1 0 2 1.2a.48.48 0 0 0 .06-.97zM6.33 1a5.4 5.4 0 0 1 5.4 5.4 5.4 5.4 0 0 1-1.07 3.22 1.45 1.45 0 0 0-1.98 1.65 5.4 5.4 0 0 1-2.35.54 5.4 5.4 0 0 1-5.4-5.4A5.4 5.4 0 0 1 6.33 1zm1.53 3.25a.73.73 0 1 0-.1 1.45.73.73 0 0 0 .1-1.45zm-3.5 1.47a.97.97 0 1 0-.12 1.94.97.97 0 0 0 .13-1.94z" fill="green"/><g fill="none" stroke="green" stroke-linecap="round" stroke-linejoin="round"><path d="M4.3 6.7l5.8 4.26" stroke-width="1.32"/><path d="M2.02.7l5.8 4.28" stroke-width=".53"/><path d="M4.3 6.7l3.52-1.72" stroke-width=".79"/></g></svg>