<svg xmlns="http://www.w3.org/2000/svg" width="48" height="48" viewBox="0 0 12.7 12.7"><path d="M6.35.06a6.29 6.29 0 0 0-6.29 6.3 6.29 6.29 0 0 0 6.3 6.28 6.29 6.29 0 0 0 6.28-6.29A6.29 6.29 0 0 0 6.35.06zM6.33 1a5.4 5.4 0 0 1 3.98 1.75H2.35A5.4 5.4 0 0 1 6.33 1zM1.98 3.2h8.7a5.4 5.4 0 0 1 1.06 3.2 5.4 5.4 0 0 1-.98 3.1H1.91a5.4 5.4 0 0 1-.98-3.1 5.4 5.4 0 0 1 1.05-3.2zm.3.9h-.45v4.5h.45c1.35 0 1.8-.9 1.8-2.24 0-1.36-.45-2.26-1.8-2.26zm2.7 0v4.5h.45V5.23L6.77 8.6h.45V4.1h-.45v3.38L5.44 4.15l-.01-.05h-.45zm5.84 0c-1.35 0-2.7.45-2.7 2.24 0 1.8.9 2.26 2.25 2.26h.45V6.35h-.9v.45h.45v1.35c-1.35 0-1.8-.45-1.8-1.79 0-1.36.9-1.8 2.25-1.8V4.1zm-8.54.45c1.35 0 1.35 1.35 1.35 1.8 0 .45 0 1.8-1.35 1.8v-3.6zm-.02 5.4h8.15a5.4 5.4 0 0 1-4.08 1.86 5.4 5.4 0 0 1-4.07-1.86z" fill="#2ca02c"/></svg>
