<svg xmlns="http://www.w3.org/2000/svg" width="48" height="48" viewBox="0 0 12.7 12.7"><path d="M6.34.07a6.29 6.29 0 0 0-6.29 6.3 6.29 6.29 0 0 0 6.3 6.28 6.29 6.29 0 0 0 6.28-6.29A6.29 6.29 0 0 0 6.34.07zM6.32 1l.01.01a5.4 5.4 0 0 1 5.4 5.4 5.4 5.4 0 0 1-5.4 5.41 5.4 5.4 0 0 1-5.41-5.4A5.4 5.4 0 0 1 6.32 1zm-.8 2.39a.85.85 0 0 0-.18.02l-3.07.8a.84.84 0 0 0-.6 1.03l.8 3.07c.12.45.57.72 1.02.6l1.92-.5a.92.92 0 0 1 0-.31l.14-.7a.53.53 0 0 1-.1-.2.53.53 0 0 1 .24-.58l.39-2.03a.94.94 0 0 1 .14-.35c.04-.06.1-.1.16-.16L6.37 4a.84.84 0 0 0-.86-.62zm1.57.53c-.4 0-.74.28-.81.68l-.6 3.12c-.09.46.21.9.67.99l3.12.59c.46.09.9-.21.98-.67l.6-3.12a.84.84 0 0 0-.67-.98l-3.12-.6a.85.85 0 0 0-.17 0zm-1.8.17a.53.53 0 0 1 .55.4.53.53 0 0 1-.38.64.53.53 0 0 1-.65-.38.53.53 0 0 1 .38-.65.53.53 0 0 1 .1-.01zm2.07.52a.53.53 0 0 1 .1 0 .53.53 0 0 1 .41.62.53.53 0 0 1-.61.42.53.53 0 0 1-.42-.61.53.53 0 0 1 .52-.43zm-4.52.12a.53.53 0 0 1 .54.4.53.53 0 0 1-.38.64.53.53 0 0 1-.64-.38.53.53 0 0 1 .38-.65.53.53 0 0 1 .1-.01zm7.01.35a.53.53 0 0 1 .1.01.53.53 0 0 1 .41.62.53.53 0 0 1-.61.42.53.53 0 0 1-.42-.62.53.53 0 0 1 .52-.43zm.13.06a.6.6 0 0 0-.06.01.6.6 0 0 1 .06-.01zm-1.6.95a.53.53 0 0 1 .08 0 .53.53 0 0 1 .42.63.53.53 0 0 1-.62.42.53.53 0 0 1-.42-.62.53.53 0 0 1 .53-.43zm-.06.18a.6.6 0 0 0-.06.01.6.6 0 0 1 .06-.01zm-1.43.83a.53.53 0 0 1 .09 0 .53.53 0 0 1 .42.63.53.53 0 0 1-.62.42.53.53 0 0 1-.42-.62.53.53 0 0 1 .53-.43zm-3.41.08a.53.53 0 0 1 .54.4.53.53 0 0 1-.38.64.53.53 0 0 1-.64-.38.53.53 0 0 1 .38-.64.53.53 0 0 1 .1-.02zm5.9.4a.53.53 0 0 1 .09 0 .53.53 0 0 1 .42.62.53.53 0 0 1-.62.42.53.53 0 0 1-.42-.62.53.53 0 0 1 .53-.43z" fill="green"/></svg>