<svg xmlns="http://www.w3.org/2000/svg" width="48" height="48" viewBox="0 0 12.7 12.7"><path fill="green" d="M6.34.07a6.29 6.29 0 0 0-6.29 6.3 6.29 6.29 0 0 0 6.3 6.28 6.29 6.29 0 0 0 6.28-6.29A6.29 6.29 0 0 0 6.34.07zm-.01.94a5.4 5.4 0 0 1 5.4 5.4 5.4 5.4 0 0 1-5.4 5.41 5.4 5.4 0 0 1-5.41-5.4A5.4 5.4 0 0 1 6.32 1z"/><path fill="green" d="M8.7 6.51l.29 3.04 1.06-1.7c-.59-.36-.64-.81-.57-1.28z"/><path fill="none" stroke="green" stroke-linecap="round" stroke-width=".66" d="M2.25 4.57c3.3.06 5.55-2.52 8.17-.75M2.09 6.17l3.55-.29c1.45-1.56 3.06-1.88 4.98.1-1.45.18-2.45 2.01-4.98-.1"/><path fill="none" stroke="green" stroke-linecap="round" stroke-width=".63" d="M8.14 6.99c-1.43 1.28-2.78 2.9-4.63 2.44-1.12-.48-1.41-1.2-1.1-1.72.68-.37.9.33.75.5"/><ellipse cx="7.92" cy="5.74" fill="green" rx=".77" ry=".77"/></svg>