<svg xmlns="http://www.w3.org/2000/svg" width="48" height="48" viewBox="0 0 12.7 12.7"><path d="M6.35.08A6.27 6.27 0 0 0 .08 6.35a6.27 6.27 0 0 0 6.27 6.27 6.27 6.27 0 0 0 6.27-6.27A6.27 6.27 0 0 0 6.35.08zm-.02.94a5.39 5.39 0 0 1 5.4 5.38 5.39 5.39 0 0 1-5.4 5.4A5.39 5.39 0 0 1 .94 6.4a5.39 5.39 0 0 1 5.4-5.39zM4.7 2.17v4.73c-.16.06-.32.24-.46.37-.2.21-.39.23-.53.1-.15-.12-.02-.46-.2-.8-.16-.35-.5-.18-.54.06-.05.23.42.38.33.51-.1.13-.45.1-.56-.14-.1-.24-.34-.17-.35.03 0 .2.18.06.33.2L6.46 11l3.74-3.74c.44-.44-.06-.25-.17-.15-.1.1-.42.18-.46.07-.04-.11.36-.3.47-.42.12-.12.23-.47.05-.6-.19-.12-.45.1-.56.28-.11.17-.01.6-.17.73-.15.13-.23.05-.26-.06s.33-.27.18-.55c-.15-.28-.42-.16-.55-.03-.13.14.07.34.12.55.05.2-.43.2-.62.12h-.01v-5H4.7zm-.9 1.67a.15.15 0 0 0-.03.02c-.12.05-.15.2 0 .54.14.33.35.56.46.51.11-.05.08-.36-.06-.69-.13-.3-.26-.39-.36-.38zm5.06.38a.22.22 0 1 0 0 .44.22.22 0 0 0 0-.44zm1.33.72a.33.33 0 1 0 0 .66.33.33 0 0 0 0-.66zm-1 .05c-.1-.03-.16.19-.18.4-.03.2-.13.42-.04.46.12.05.18-.29.32-.41s.03-.43-.1-.45zm-6.36.04a.33.33 0 1 0 0 .66.33.33 0 0 0 0-.66zm1.27.39c-.09-.01-.2.08-.1.2.15.16.22.46.1.51-.13.06-.12-.21-.14-.36 0-.15-.37-.24-.5-.05-.13.18 0 .37.13.41.13.04.15.2.23.35.08.15.46.12.55 0a.4.4 0 0 0-.03-.53c-.18-.2-.12-.39-.17-.5-.01-.02-.04-.03-.07-.03zm-2.04.72a.22.22 0 1 0 0 .44.22.22 0 0 0 0-.44zm8.58.22a.22.22 0 1 0 0 .44.22.22 0 0 0 0-.44z" fill="green"/></svg>