<svg xmlns="http://www.w3.org/2000/svg" width="48" height="48" viewBox="0 0 12.7 12.7"><path d="M6.34.07a6.29 6.29 0 0 0-6.29 6.3 6.29 6.29 0 0 0 6.3 6.28 6.29 6.29 0 0 0 6.28-6.29A6.29 6.29 0 0 0 6.34.07zm-.01.94a5.4 5.4 0 0 1 5.4 5.35h-1.22v.41h1.2a5.4 5.4 0 0 1-5.38 5.05 5.4 5.4 0 0 1-5.4-5.05H2.2v-.41H.92A5.4 5.4 0 0 1 6.32 1zm-3.3 5.35v.41h1.66v-.41H3.03zm2.49 0v.41h1.66v-.41H5.52zm2.5 0v.41h1.65v-.41H8.01z" fill="green"/><path d="M1.99 8.23s3 1.66 4.15.83c2.25-1.61-2.2-5.77.42-6.65 1.73-.58 3.74 3.32 3.74 3.32" fill="none" stroke="green" stroke-width=".42" stroke-linecap="round" stroke-linejoin="round"/></svg>