<svg xmlns="http://www.w3.org/2000/svg" width="48" height="48" viewBox="0 0 12.7 12.7"><path d="M7.25.65a.6.6 0 0 0-.6.6v4.2c0 .33.27.6.6.6h4.2a.6.6 0 0 0 .6-.6V4.9a5.93 5.93 0 0 0-.02-.1 5.93 5.93 0 0 0-.18-.56 5.93 5.93 0 0 0-.25-.54 5.93 5.93 0 0 0-.3-.51 5.93 5.93 0 0 0-.34-.48 5.93 5.93 0 0 0-.39-.45 5.93 5.93 0 0 0-.43-.4 5.93 5.93 0 0 0-.47-.36 5.93 5.93 0 0 0-.5-.31 5.93 5.93 0 0 0-.54-.26 5.93 5.93 0 0 0-.56-.2 5.93 5.93 0 0 0-.35-.1h-.47zm-6 6a.6.6 0 0 0-.6.6v.9a5.93 5.93 0 0 0 .14.42 5.93 5.93 0 0 0 .24.54 5.93 5.93 0 0 0 .3.51 5.93 5.93 0 0 0 .34.48 5.93 5.93 0 0 0 .4.45 5.93 5.93 0 0 0 .43.4 5.93 5.93 0 0 0 .47.36 5.93 5.93 0 0 0 .5.3 5.93 5.93 0 0 0 .54.27 5.93 5.93 0 0 0 .5.17h.94a.6.6 0 0 0 .6-.6v-4.2a.6.6 0 0 0-.6-.6h-4.2z" fill="#2ca02c" opacity=".53"/><path d="M6.34.07a6.29 6.29 0 0 0-6.29 6.3 6.29 6.29 0 0 0 6.3 6.28 6.29 6.29 0 0 0 6.28-6.29A6.29 6.29 0 0 0 6.34.07zM6.32 1l.01.01a5.4 5.4 0 0 1 5.4 5.4 5.4 5.4 0 0 1-.01.3.6.6 0 0 0-.27-.06h-4.2a.6.6 0 0 0-.6.6v4.2c0 .13.04.25.11.35a5.4 5.4 0 0 1-.43.02 5.4 5.4 0 0 1-5.41-5.4 5.4 5.4 0 0 1 .02-.46c.1.06.2.09.3.09h4.2a.6.6 0 0 0 .61-.6v-4.2A.6.6 0 0 0 6 1 5.4 5.4 0 0 1 6.32 1z" fill="#2ca02c"/></svg>
