<svg xmlns="http://www.w3.org/2000/svg" width="48" height="48" viewBox="0 0 12.7 12.7"><path fill="#2ca02c" d="M6.34.07a6.29 6.29 0 0 0-6.29 6.3 6.29 6.29 0 0 0 6.3 6.28 6.29 6.29 0 0 0 6.28-6.29A6.29 6.29 0 0 0 6.34.07zm-.01.94a5.4 5.4 0 0 1 5.4 5.4 5.4 5.4 0 0 1-5.4 5.41 5.4 5.4 0 0 1-5.41-5.4A5.4 5.4 0 0 1 6.32 1zM3.24 2.23c-.16 0-.29.7-.29 1.55v4.85h-.98c0 .64.12 1.16.45 1.16h7.81c.34 0 .45-.52.45-1.16h-.94V3.78c0-.86-.13-1.55-.3-1.55h-.32l.09.2h-.4l-.08-.2H3.95l-.08.2h-.39l.09-.2h-.32zm.15.58h.39l-.04.39h-.39l.04-.39zm5.51 0h.39l.04.39h-.38l-.05-.39zm-2.7.25a1.76 1.76 0 0 1 1.61 2.32c-.11.35-.33.64-.61.84l.73 1.5a.32.32 0 1 1-.57.28l-.73-1.5a1.75 1.75 0 0 1-1.05-.02 1.76 1.76 0 0 1-1.1-2.24A1.76 1.76 0 0 1 6.2 3.06zm-2.86.53h.39v.38h-.39V3.6zm5.62 0h.39v.38h-.39V3.6zm-2.78.1a1.11 1.11 0 0 0-1.09.76 1.11 1.11 0 0 0 .7 1.42c.59.2 1.22-.1 1.42-.7a1.11 1.11 0 0 0-.7-1.42 1.14 1.14 0 0 0-.33-.06zm-2.84.67h.39v.39h-.39v-.39zm5.62 0h.39v.39h-.39v-.39zm-5.62.78h.39v.39h-.39v-.4zm5.62 0h.39v.39h-.39v-.4zm-5.62.77h.39v.39h-.39v-.39zm5.62 0h.39v.39h-.39v-.39zm-5.62.78h.39v.39h-.39v-.4zm5.62 0h.39v.39h-.39v-.4zm-5.62.77h.39v.4h-.39v-.4zm5.62 0h.39v.4h-.39v-.4zm-5.62.78h.39v.39h-.39v-.4zm5.62 0h.39v.39h-.39v-.4zM2.42 9h.45c-.01.2.01.32.05.4h-.44a.99.99 0 0 1-.06-.4zm7.37 0h.44c0 .2-.01.32-.06.4h-.43v-.04a.85.85 0 0 0 .05-.36z"/></svg>
