<svg xmlns="http://www.w3.org/2000/svg" width="48" height="48" viewBox="0 0 12.7 12.7"><path d="M6.34.07a6.29 6.29 0 0 0-6.29 6.3 6.29 6.29 0 0 0 6.3 6.28 6.29 6.29 0 0 0 6.28-6.29A6.29 6.29 0 0 0 6.34.07zm-.01.94a5.4 5.4 0 0 1 5.4 5.4 5.4 5.4 0 0 1-5.4 5.41 5.4 5.4 0 0 1-5.41-5.4A5.4 5.4 0 0 1 6.32 1zM3.18 3.1a4.6 4.6 0 0 0-.07.06 4.6 4.6 0 0 0-.31.33 4.6 4.6 0 0 0-.17.23h3V3.1H3.19zm3.22.06V6.7h3.44V3.17H6.4zm.45.46H9.4v2.6H6.85v-2.6zm-4.67.83a4.6 4.6 0 0 0-.1.22 4.6 4.6 0 0 0-.15.4h3.7v-.62H2.19zM1.77 5.8a4.6 4.6 0 0 0-.03.2 4.6 4.6 0 0 0-.02.42h3.92v-.62H1.77zm0 1.35a4.6 4.6 0 0 0 .01.1 4.6 4.6 0 0 0 .1.44 4.6 4.6 0 0 0 .03.09h8.83a4.6 4.6 0 0 0 .1-.4 4.6 4.6 0 0 0 .03-.23h-9.1zm.42 1.36a4.6 4.6 0 0 0 .02.04 4.6 4.6 0 0 0 .23.4 4.6 4.6 0 0 0 .13.18h7.5a4.6 4.6 0 0 0 .05-.07 4.6 4.6 0 0 0 .25-.39 4.6 4.6 0 0 0 .07-.16H2.2zm1.03 1.35a4.6 4.6 0 0 0 .13.13 4.6 4.6 0 0 0 .37.28 4.6 4.6 0 0 0 .35.21h4.5a4.6 4.6 0 0 0 .24-.14 4.6 4.6 0 0 0 .38-.27 4.6 4.6 0 0 0 .24-.21H3.22z" fill="green"/></svg>