<svg xmlns="http://www.w3.org/2000/svg" width="48" height="48" viewBox="0 0 12.7 12.7"><path fill="#2ca02c" d="M6.34.07a6.29 6.29 0 0 0-6.29 6.3 6.29 6.29 0 0 0 6.3 6.28 6.29 6.29 0 0 0 6.28-6.29A6.29 6.29 0 0 0 6.34.07zm-.01.94a5.4 5.4 0 0 1 5.4 5.4 5.4 5.4 0 0 1-5.4 5.41 5.4 5.4 0 0 1-5.41-5.4A5.4 5.4 0 0 1 6.32 1zM2.95 2.6v1.87h.42v-1.4h1.28V2.6h-1.7zm5.1 0v.46h1.28v1.4h.42V2.62h-1.7zm-.3 1.01a.2.2 0 0 0-.15.07l-.72.79H4.43l1.7 2.1v2.1H5.3c-.12 0-.22.12-.22.24 0 .13.1.24.22.24H7.4c.12 0 .21-.1.21-.24 0-.12-.1-.23-.2-.23h-.86v-2.1l1.7-2.11h-.78l.42-.46a.25.25 0 0 0 0-.33.2.2 0 0 0-.15-.07zm-4.8 4.6v1.87h1.7v-.47H3.37v-1.4h-.42zm6.38 0v1.4H8.05v.47h1.7V8.22h-.42z"/></svg>
