<svg xmlns="http://www.w3.org/2000/svg" width="48" height="48" viewBox="0 0 12.7 12.7"><path fill="green" d="M6.34.07a6.29 6.29 0 0 0-6.29 6.3 6.29 6.29 0 0 0 6.3 6.28 6.29 6.29 0 0 0 6.28-6.29A6.29 6.29 0 0 0 6.34.07zm-.01.94a5.4 5.4 0 0 1 5.4 5.4 5.4 5.4 0 0 1-5.4 5.41 5.4 5.4 0 0 1-5.41-5.4A5.4 5.4 0 0 1 6.32 1zm-3.2 1.46a.55.55 0 0 0-.55.55v6.66c0 .3.24.55.55.55h6.44a.55.55 0 0 0 .55-.55V3.02a.55.55 0 0 0-.55-.55H3.13zM4.5 3c.4 0 .72.14.96.4.23.27.35.63.35 1.07 0 .45-.12.8-.35 1.07-.24.27-.56.4-.96.4-.4 0-.71-.13-.95-.4a1.54 1.54 0 0 1-.36-1.07c0-.44.12-.8.36-1.07.24-.26.56-.4.95-.4zm1.86 0h2.76c.26 0 .47.22.47.48v2.85H6.37V9.7h-2.8a.47.47 0 0 1-.47-.47V6.33h3.27V3.01zm-1.86.32a.8.8 0 0 0-.66.3c-.16.21-.24.5-.24.85 0 .36.08.64.24.85.17.2.39.3.66.3a.8.8 0 0 0 .66-.3c.17-.2.25-.5.25-.85s-.08-.64-.25-.84a.8.8 0 0 0-.66-.32zm2.67 3.51h.97c.3 0 .52.06.68.18.16.12.24.3.24.52 0 .17-.04.31-.13.41a.54.54 0 0 1-.35.2c.19.03.33.12.44.25a.73.73 0 0 1 .15.48.7.7 0 0 1-.25.58c-.17.14-.42.21-.74.21H7.18V6.83zm.38.32V8h.57c.18 0 .32-.04.41-.1.1-.08.14-.18.14-.33 0-.14-.04-.25-.14-.32-.09-.07-.23-.1-.41-.1h-.57zm0 1.16v1.04h.61c.21 0 .36-.05.46-.13.1-.09.15-.22.15-.4 0-.17-.05-.3-.15-.38-.1-.09-.25-.13-.46-.13h-.61z"/></svg>