<svg xmlns="http://www.w3.org/2000/svg" width="48" height="48" viewBox="0 0 12.7 12.7"><path d="M6.33 9.6c1.32 0 1.44-2 1.44-3.35C7.78 4.7 7.54 3 6.35 3 5.13 3 4.93 4.8 4.93 6.25c0 1.33.1 3.34 1.4 3.34zm0-7.24c2.17 0 3.78 1.56 3.78 3.95 0 2.12-1.53 4.03-3.77 4.03-2.23 0-3.75-1.91-3.75-4.03 0-2.37 1.56-3.95 3.75-3.95z" clip-rule="evenodd" opacity=".75" fill="red" fill-rule="evenodd"/><path d="M6.35.08A6.27 6.27 0 0 0 .08 6.35a6.27 6.27 0 0 0 6.27 6.27 6.27 6.27 0 0 0 6.27-6.27A6.27 6.27 0 0 0 6.35.08zm-.02.94a5.39 5.39 0 0 1 5.4 5.38 5.39 5.39 0 0 1-5.4 5.4A5.39 5.39 0 0 1 .94 6.4a5.39 5.39 0 0 1 5.4-5.39zm0 1.34V3C7.54 3 7.78 4.7 7.78 6.25c0 1.34-.11 3.34-1.43 3.34v.75c2.24 0 3.78-1.91 3.78-4.03 0-2.39-1.62-3.95-3.78-3.95z" fill="green"/></svg>