<svg xmlns="http://www.w3.org/2000/svg" width="48" height="48" viewBox="0 0 12.7 12.7"><path d="M6.34.07a6.29 6.29 0 0 0-6.29 6.3 6.29 6.29 0 0 0 6.3 6.28 6.29 6.29 0 0 0 6.28-6.29A6.29 6.29 0 0 0 6.34.07zm-.01.94a5.4 5.4 0 0 1 5.4 5.4 5.4 5.4 0 0 1-5.4 5.41 5.4 5.4 0 0 1-5.41-5.4A5.4 5.4 0 0 1 6.32 1zM3.64 2.5a.38.38 0 0 0-.38.38v6.92c0 .2.17.37.38.37h5.42a.38.38 0 0 0 .38-.37V2.89a.38.38 0 0 0-.38-.37zm.33.66h4.76c.12 0 .22.12.22.27v1.52c0 .15-.1.27-.22.27H3.97a.22.27 0 0 1-.22-.27V3.44c0-.15.1-.27.22-.27zm.32 2.6h.7c.15 0 .26.11.26.26v.46a.26.26 0 0 1-.25.26h-.71a.26.26 0 0 1-.26-.26v-.47c0-.14.12-.25.26-.25zm3.42 0h.7c.15 0 .26.11.26.26v.46a.26.26 0 0 1-.26.26h-.7a.26.26 0 0 1-.26-.26v-.47c0-.14.11-.25.25-.25zM6 5.77h.7c.15 0 .26.12.26.26v.46a.26.26 0 0 1-.25.26H6a.26.26 0 0 1-.26-.26v-.46c0-.15.11-.26.26-.26zM4.29 7.24h.7c.15 0 .26.11.26.25v.47A.26.26 0 0 1 5 8.2h-.71a.26.26 0 0 1-.26-.25v-.47c0-.14.12-.25.26-.25zm1.7 0h.72c.14 0 .25.11.25.25v.47a.26.26 0 0 1-.25.25H6a.26.26 0 0 1-.26-.25v-.47c0-.14.11-.25.26-.25zm1.71 0h.72c.14 0 .25.11.25.25v.47a.26.26 0 0 1-.26.25h-.7a.26.26 0 0 1-.26-.25v-.47c0-.14.11-.25.25-.25zM4.3 8.7h.7c.15 0 .26.12.26.26v.46a.26.26 0 0 1-.25.26h-.71a.26.26 0 0 1-.26-.26v-.46c0-.14.12-.26.26-.26zm1.7 0h.72c.14 0 .25.12.25.26v.46a.26.26 0 0 1-.25.26H6a.26.26 0 0 1-.26-.26v-.46c0-.14.11-.26.25-.26zm1.71 0h.71c.15 0 .26.12.26.26v.46a.26.26 0 0 1-.26.26h-.7a.26.26 0 0 1-.26-.26v-.46c0-.14.11-.26.25-.26z" fill="green"/><path d="M3.78 5.33l1.37-2.26L6.3 4.75 8.14 3.6l1.04.64" fill="none" stroke="green" stroke-width=".27"/></svg>