<svg xmlns="http://www.w3.org/2000/svg" width="48" height="48" viewBox="0 0 12.7 12.7"><path style="line-height:normal;text-indent:0;text-align:start;text-decoration-line:none;text-transform:none;marker:none" d="M5.9.07V.1A6.25 6.25 0 0 0 .07 5.9H.06v.83h.01a6.25 6.25 0 0 0 5.83 5.82v.02h.83v-.02a6.25 6.25 0 0 0 5.82-5.82h.01v-.83h-.01A6.25 6.25 0 0 0 6.73.09V.07H5.9zm0 .89v2.33l.83-.1V.96c.85.23 1.6 1.15 2.04 2.45H8.5l1 .26L9 4.3c.11.5.19 1.04.21 1.6h-.79a2.27 2.16 0 0 1 .06.21l.54.63h.2a9.24 9.24 0 0 1-.03.2l.25.28-.28.1A9.24 9.24 0 0 1 9 8.41h-.42l-.47.51-.75-.45a2.27 2.16 0 0 1-.18.08 2.27 2.16 0 0 1-.21.08l-.06.61h1.86c-.45 1.3-1.19 2.22-2.04 2.45V9.44l-.83-.01v2.26c-.86-.23-1.6-1.15-2.05-2.45H5.7l-.1-.6a2.27 2.16 0 0 1-.03-.01 2.27 2.16 0 0 1-.2-.08 2.27 2.16 0 0 1-.2-.1l-.76.46-.36-.5h-.43a9.32 9.32 0 0 1-.2-1.37h-.06L3.4 5.9a9.32 9.32 0 0 1 .22-1.67h.93l.1-.08.13.08h.7l-.03-.83h-1.6C4.3 2.1 5.04 1.19 5.9.96zm-1.93.48c-.4.53-.73 1.2-.98 1.97H1.74a5.45 5.45 0 0 1 2.23-1.97zm4.68 0a5.45 5.45 0 0 1 2.23 1.97H9.63a6.59 6.59 0 0 0-.98-1.97zM6.8 3.6l-.97.1v3.75l.96-.13v-1.6l1.28 1.77 1-.3-1.3-1.7L9.1 3.85l-1.03-.22L6.8 5.26V3.6zm-5.5.64h1.46a9.9 9.9 0 0 0-.2 1.67H.9a5.37 5.37 0 0 1 .4-1.67zm8.54 0h1.47c.21.52.35 1.08.4 1.67h-1.66a9.9 9.9 0 0 0-.21-1.67zm-5.23.28l-.03.01-.38.36c-.01.02-.02.05 0 .07l.43.68c-.08.13-.14.26-.18.4l-.82.17c-.02 0-.04.02-.04.04v.5c0 .03.02.05.04.05l.8.19c.04.16.1.32.19.46l-.46.66v.06l.38.35c.02.02.05.02.07.01l.71-.41c.14.08.3.14.45.18l.17.76c0 .02.02.04.05.04h.53c.02 0 .05-.02.06-.04l.19-.76a2 2 0 0 0 .47-.2l.7.45c.02.01.05 0 .07 0l.37-.36c.02-.02.02-.04.01-.06l-.25-.4-.09.02h-.03l-.38-.53C7.4 7.69 6.88 8 6.3 8c-.85 0-1.54-.65-1.54-1.45 0-.59.37-1.1.9-1.32v-.38l-.27.12h-.01l-.72-.45h-.03zM.9 6.74h1.66c.02.58.1 1.14.2 1.67H1.31a5.37 5.37 0 0 1-.4-1.67zm9.14 0h1.66a5.35 5.35 0 0 1-.4 1.67H9.86a9.9 9.9 0 0 0 .2-1.67zm-8.3 2.5h1.24c.25.77.58 1.44.98 1.97a5.45 5.45 0 0 1-2.23-1.97zm7.88 0h1.25a5.45 5.45 0 0 1-2.23 1.97c.4-.53.74-1.2.98-1.97z" color="#000" font-weight="400" font-family="Andale Mono" overflow="visible" fill="green"/></svg>