<svg xmlns="http://www.w3.org/2000/svg" width="48" height="48" viewBox="0 0 12.7 12.7"><path fill="green" d="M6.34.07a6.29 6.29 0 0 0-6.29 6.3 6.29 6.29 0 0 0 6.3 6.28 6.29 6.29 0 0 0 6.28-6.29A6.29 6.29 0 0 0 6.34.07zm-.01.94a5.4 5.4 0 0 1 5.4 5.4 5.4 5.4 0 0 1-5.4 5.41 5.4 5.4 0 0 1-5.41-5.4A5.4 5.4 0 0 1 6.32 1zm.9 1.77c-.64-.03-.97.99-.37 1.27.5.2 1.03-.3.9-.8a.55.55 0 0 0-.53-.47zm-.27 2.26c-.1-.01-.23.02-.36.12-.62.27-1.14.72-1.69 1.11.07.19.15.34.31.14.2-.13.89-.65.82-.14-.22.96-.48 1.91-.69 2.88-.2.52.27 1 .78.66.53-.22.99-.58 1.46-.91-.06-.16-.1-.39-.28-.18-.24.1-.74.6-.84.2.2-1.05.56-2.05.79-3.08.16-.35 0-.78-.3-.8z"/></svg>