<svg xmlns="http://www.w3.org/2000/svg" width="48" height="48" viewBox="0 0 12.7 12.7"><path fill="#2ca02c" d="M6.34.07a6.29 6.29 0 0 0-6.29 6.3 6.29 6.29 0 0 0 6.3 6.28 6.29 6.29 0 0 0 6.28-6.29A6.29 6.29 0 0 0 6.34.07zm-.01.94a5.4 5.4 0 0 1 5.4 5.4 5.4 5.4 0 0 1-5.4 5.41 5.4 5.4 0 0 1-5.41-5.4A5.4 5.4 0 0 1 6.32 1zM2.8 3.1a.45.45 0 0 0-.45.44v5.52c0 .25.2.45.45.45l3.86.01c-.16-.13-.26-.32-.3-.62H3.46a.37.37 0 0 1-.37-.37V4.02c0-.2.17-.37.37-.37h5.78c.4 0 .25.36.3.5.4-.03.59.1.78.33v-.93c0-.25-.2-.45-.45-.45H2.8zm4.99 1.3c-.6 0-1.1.48-1.1 1.09v1.08h1.64V4.41h-.54zm1.08 0v2.17h1.63V5.5c0-.6-.48-1.09-1.08-1.09h-.55zM6.7 7.13v1.22c0 1.2.85 2.03 1.9 2.03 1.05 0 1.9-.83 1.9-2.03V7.13H6.7z"/></svg>
