<svg xmlns="http://www.w3.org/2000/svg" width="48" height="48" viewBox="0 0 12.7 12.7"><path fill="green" d="M6.34.07a6.29 6.29 0 0 0-6.29 6.3 6.29 6.29 0 0 0 6.3 6.28 6.29 6.29 0 0 0 6.28-6.29A6.29 6.29 0 0 0 6.34.07zm-.01.94a5.4 5.4 0 0 1 5.4 5.4 5.4 5.4 0 0 1-5.4 5.41 5.4 5.4 0 0 1-5.41-5.4A5.4 5.4 0 0 1 6.32 1zm-3 1.86c-.56 0-1.01.46-1.01 1.03v5.13c0 .57.45 1.03 1 1.03h6.05c.56 0 1.01-.46 1.01-1.03V3.9c0-.57-.45-1.03-1-1.03H3.32zm.41.58h5.24a.87.87 0 0 1 .87.87v4.36a.87.87 0 0 1-.87.87H3.74a.87.87 0 0 1-.87-.87V4.32a.87.87 0 0 1 .87-.88zm1.97.43L4.83 5.2h.66v1.3h-.87v-.64l-1.31.87 1.3.87v-.65h.88v.87h-.66l.88 1.3.87-1.3h-.65v-.87H8.1v.65l1.3-.87-1.3-.87v.65H5.93V5.19h.65l-.87-1.3z"/></svg>