<svg xmlns="http://www.w3.org/2000/svg" width="48" height="48" viewBox="0 0 12.7 12.7"><path fill="green" d="M6.34.07a6.29 6.29 0 0 0-6.29 6.3 6.29 6.29 0 0 0 6.3 6.28 6.29 6.29 0 0 0 6.28-6.29A6.29 6.29 0 0 0 6.34.07zm-.01.94a5.4 5.4 0 0 1 5.4 5.4 5.4 5.4 0 0 1-1.16 3.35H8.2v-.09a.12.12 0 0 0-.12-.12h-.34v-.59h1.64c.37 0 .67-.3.67-.67V3.71c0-.37-.3-.67-.67-.67H3.4c-.37 0-.67.3-.67.67V8.3c0 .37.3.67.67.67h1.68v.6H4.6a.12.12 0 0 0-.12.11v.1H2.1A5.4 5.4 0 0 1 .91 6.41 5.4 5.4 0 0 1 6.32 1zM3.92 3.7h5c.28 0 .51.23.51.52v3.53c0 .3-.23.52-.51.52h-5a.52.52 0 0 1-.52-.52V4.23c0-.29.23-.52.52-.52zm3.32.88a.12.12 0 0 0-.12.12v.94c0 .07.05.12.12.12h1.34a.12.12 0 0 0 .12-.12v-.94a.12.12 0 0 0-.12-.12H7.24zM4.37 5.63a.12.12 0 0 0-.11.12V7.3c0 .06.05.12.11.12h1.7a.12.12 0 0 0 .13-.12V5.75a.12.12 0 0 0-.12-.12h-1.7zm-1.7 4.75h1.82v.1c0 .06.06.12.12.12H8.1a.12.12 0 0 0 .12-.12v-.1h1.78a5.4 5.4 0 0 1-3.66 1.44 5.4 5.4 0 0 1-3.67-1.44z"/></svg>