<svg xmlns="http://www.w3.org/2000/svg" width="48" height="48" viewBox="0 0 12.7 12.7"><path fill="#2ca02c" d="M6.34.07a6.29 6.29 0 0 0-6.29 6.3 6.29 6.29 0 0 0 6.3 6.28 6.29 6.29 0 0 0 6.28-6.29A6.29 6.29 0 0 0 6.34.07zm-.01.94a5.4 5.4 0 0 1 5.4 5.4 5.4 5.4 0 0 1-5.4 5.41 5.4 5.4 0 0 1-5.41-5.4A5.4 5.4 0 0 1 6.32 1zm.85.84l-3.5 2.63H1.93v3.74h1.75l3.5 2.63v-9zm2.6 2.11l-.52.53a2.63 2.63 0 0 1 0 3.72l.53.53a3.38 3.38 0 0 0 0-4.78zM8.74 5.03l-.53.53a1.12 1.12 0 0 1 0 1.59l.53.53c.35-.36.54-.83.54-1.33s-.19-.97-.54-1.32z"/></svg>
