<svg xmlns="http://www.w3.org/2000/svg" width="48" height="48" viewBox="0 0 12.7 12.7"><path fill="#2ca02c" d="M6.34.07a6.29 6.29 0 0 0-6.29 6.3 6.29 6.29 0 0 0 6.3 6.28 6.29 6.29 0 0 0 6.28-6.29A6.29 6.29 0 0 0 6.34.07zm-.01.94a5.4 5.4 0 0 1 5.4 5.4 5.4 5.4 0 0 1-5.4 5.41 5.4 5.4 0 0 1-5.41-5.4A5.4 5.4 0 0 1 6.32 1zm.02.76a4.58 4.58 0 0 0-4.58 4.58 4.58 4.58 0 0 0 4.58 4.58 4.58 4.58 0 0 0 4.58-4.58 4.58 4.58 0 0 0-4.58-4.58zm0 1.99a1.38 1.38 0 0 1 .84 2.46l.4 2.88H5.11l.4-2.88a1.37 1.37 0 0 1-.53-1.09c0-.76.61-1.37 1.37-1.37z"/></svg>
