<svg xmlns="http://www.w3.org/2000/svg" width="48" height="48" viewBox="0 0 12.7 12.7"><path fill="#2ca02c" d="M6.34.08A6.27 6.27 0 0 0 .08 6.34a6.27 6.27 0 0 0 6.26 6.27 6.27 6.27 0 0 0 6.27-6.27A6.27 6.27 0 0 0 6.34.08zM6.33 1A5.39 5.39 0 0 1 11.7 6.4a5.39 5.39 0 0 1-5.38 5.39 5.39 5.39 0 0 1-5.4-5.4 5.39 5.39 0 0 1 5.4-5.38zM3.34 2.48v.53h.79v-.53zm2.63 0v1.56h.78V2.48zm2.62 0V6.4h.78V2.48zm-6.01.73v1.46h2.3V3.2zM5.2 4.37v1.46h2.3V4.37zM3.34 5v5.5h.79V5zm2.63 1.13v4.36h.78V6.13zm1.85.57v1.46h2.3V6.7zm.77 1.78v2.01h.78v-2z"/></svg>
