<svg xmlns="http://www.w3.org/2000/svg" width="48" height="48" viewBox="0 0 12.7 12.7"><path fill="#2ca02c" d="M6.34.07a6.29 6.29 0 0 0-6.29 6.3 6.29 6.29 0 0 0 6.3 6.28 6.29 6.29 0 0 0 6.28-6.29A6.29 6.29 0 0 0 6.34.07zm-.01.94a5.4 5.4 0 0 1 5.4 5.4 5.4 5.4 0 0 1-5.4 5.41 5.4 5.4 0 0 1-5.41-5.4A5.4 5.4 0 0 1 6.32 1zm.02 1a.72.72 0 0 0-.72.73v.65a2.53 2.53 0 0 0-1.8 2.42v.9c0 .56-.16 1.1-.44 1.58l-.62 1.04a.18.18 0 0 0 0 .18.18.18 0 0 0 .15.09h6.86a.18.18 0 0 0 .16-.27l-.62-1.04a3.07 3.07 0 0 1-.44-1.58v-.9c0-1.14-.77-2.11-1.8-2.42v-.65a.72.72 0 0 0-.73-.72zM5.2 9.97a1.26 1.26 0 0 0 2.28 0H5.2z"/></svg>
