<svg xmlns="http://www.w3.org/2000/svg" width="48" height="48" version="1"><path d="M24 .23A23.77 23.77 0 0 0 .23 24.01 23.77 23.77 0 0 0 24 47.77 23.77 23.77 0 0 0 47.77 24 23.77 23.77 0 0 0 24 .23zm-.07 3.54a20.44 20.44 0 0 1 20.44 20.44 20.44 20.44 0 0 1-20.44 20.43A20.44 20.44 0 0 1 3.5 24.21 20.44 20.44 0 0 1 23.93 3.77zm0 3A17.44 17.44 0 0 0 6.5 24.22a17.44 17.44 0 0 0 17.43 17.44A17.44 17.44 0 0 0 41.37 24.2 17.44 17.44 0 0 0 23.93 6.77zm1.6 6.56h.43c1.15 0 2.2.47 3.12 1.4-.25.21-.43.32-.56.32a3.88 3.88 0 0 0-2.67-1.09h-.1c-1.66 0-2.9.82-3.72 2.45a3.7 3.7 0 0 0-.27 1.05h3.89v.65h-3.94c0 1.54.8 2.73 2.39 3.6a4.06 4.06 0 0 0 4.42-.73h.1l.46.24v.07a4.45 4.45 0 0 1-3.3 1.4h-.07c-1.6 0-2.93-.75-3.97-2.24a4.48 4.48 0 0 1-.66-2.24v-.43c0-1.4.68-2.6 2.03-3.64a4.35 4.35 0 0 1 2.42-.81zm-10.36.1h.42c1.38 0 2.58.67 3.6 1.98.55.82.83 1.69.83 2.6v.07c0 1.77-.85 3.15-2.56 4.12-.65.33-1.33.5-2.05.5h-.06c-1.6 0-2.9-.76-3.96-2.26v2.18l-.07.07h-.48l-.07-.07v-4.78c0-1.38.67-2.58 2-3.6.8-.54 1.6-.8 2.4-.8v-.01zm.2.63c-1.63 0-2.85.81-3.66 2.43-.2.46-.32.98-.32 1.56v.1c0 1.53.79 2.72 2.36 3.57.55.23 1.1.35 1.66.35 1.62 0 2.86-.84 3.7-2.5.19-.57.28-1.09.28-1.55 0-1.5-.75-2.7-2.25-3.58a4.31 4.31 0 0 0-1.66-.38h-.11zM10.38 24.5h19.75c.15 0 .28.13.28.29 0 .15-.13.28-.28.28H10.38a.28.28 0 0 1-.29-.28.3.3 0 0 1 .3-.29z" fill="green"/></svg>