<svg xmlns="http://www.w3.org/2000/svg" width="48" height="48" viewBox="0 0 12.7 12.7"><path d="M6.34.07a6.29 6.29 0 0 0-6.29 6.3 6.29 6.29 0 0 0 6.3 6.28 6.29 6.29 0 0 0 2.41-.5l-.07-.36a2.06 2.06 0 0 1-.4-.13l-.64.61c-.16-.1-.3-.21-.44-.33l.05-.1-.1-.09a5.4 5.4 0 0 1-.83.07 5.4 5.4 0 0 1-5.41-5.4A5.4 5.4 0 0 1 6.32 1l.01.01a5.4 5.4 0 0 1 5.4 5.4 5.4 5.4 0 0 1-.2 1.44l.92-.12a3.4 3.4 0 0 1 .01.03 6.29 6.29 0 0 0 .17-1.4A6.29 6.29 0 0 0 6.34.07zM4.89 2.58c-.45 0-.84.07-1.17.21A2.17 2.17 0 0 0 2.4 4.27a4.21 4.21 0 0 0-.04 2.24c.1.31.22.6.4.84a2.19 2.19 0 0 0 1.56.92c.03.33.1.61.22.84a1.81 1.81 0 0 0 1.08.9c.14.04.28.04.41.06l-.07-.24.42-.23h-.02a.84.84 0 0 1-.34-.22c-.1-.1-.19-.25-.26-.43a2.55 2.55 0 0 1-.14-.71 2.29 2.29 0 0 0 1.41-.96c.16-.24.28-.51.36-.82a3.86 3.86 0 0 0-.05-2.19 2.46 2.46 0 0 0-.5-.9c-.23-.25-.5-.44-.83-.58-.33-.14-.7-.2-1.12-.2v-.01zm0 .51c.24 0 .45.06.61.16.17.1.3.26.41.46.1.2.18.45.23.74a6.18 6.18 0 0 1 0 2c-.05.29-.12.54-.23.74-.1.2-.24.35-.41.46-.17.1-.37.16-.62.16-.24 0-.44-.06-.61-.16a1.2 1.2 0 0 1-.42-.46c-.1-.2-.18-.45-.23-.74a6.18 6.18 0 0 1 0-2c.05-.3.12-.54.23-.74.1-.2.25-.35.42-.46.17-.1.37-.16.62-.16zm3.85 0c-.07.35-.19.6-.35.77a1 1 0 0 1-.77.33v.4h.59v2.17l.1.1a2.46 2.46 0 0 1 .24-.1 2.46 2.46 0 0 1 .23-.06l.2-1.03.33-.01a3.5 3.5 0 0 1 .09 0V4.6h.99v-.54h-1v-.97h-.65zm.57 3.27l-.28.01-.17.87a2.08 2.08 0 0 0-.4.13l-.64-.6c-.16.09-.3.2-.44.33l.38.8a2.1 2.1 0 0 0-.25.33l-.87-.12a2.87 2.87 0 0 0-.17.54l.77.41a2 2 0 0 0-.01.21l.01.2-.77.42c.04.19.1.37.17.54l.87-.12c.07.12.16.23.25.34l-.38.8c.14.11.28.23.44.33l.64-.61c.13.05.27.1.4.13l.17.87a2.96 2.96 0 0 0 .55 0l.17-.87c.14-.03.27-.08.4-.13l.64.6c.16-.09.3-.2.44-.33l-.38-.8c.1-.1.18-.2.25-.33l.87.12a2.87 2.87 0 0 0 .17-.54l-.77-.41a2.03 2.03 0 0 0 .01-.2v-.22l.76-.41a2.87 2.87 0 0 0-.17-.53l-.87.11a2.1 2.1 0 0 0-.25-.34l.38-.79a2.89 2.89 0 0 0-.44-.34l-.64.61a2.09 2.09 0 0 0-.4-.13l-.17-.87a2.96 2.96 0 0 0-.27 0v-.01zm.01 2.23a.68.68 0 0 1 .68.68.68.68 0 0 1-.68.68.68.68 0 0 1-.68-.68.68.68 0 0 1 .68-.68z" fill="#2ca02c"/></svg>
