<svg xmlns="http://www.w3.org/2000/svg" width="48" height="48" viewBox="0 0 12.7 12.7"><path d="M6.34.07a6.29 6.29 0 0 0-6.29 6.3 6.29 6.29 0 0 0 6.3 6.28 6.29 6.29 0 0 0 6.28-6.29A6.29 6.29 0 0 0 6.34.07zm-.01.94a5.4 5.4 0 0 1 5.4 5.4 5.4 5.4 0 0 1-5.4 5.41 5.4 5.4 0 0 1-5.41-5.4A5.4 5.4 0 0 1 6.32 1zM4.38 2.48c-.42 0-.78.06-1.1.2a2.03 2.03 0 0 0-1.22 1.37 3.94 3.94 0 0 0-.03 2.1c.07.3.2.56.36.79a2.05 2.05 0 0 0 1.46.86c.02.3.1.57.2.78a1.7 1.7 0 0 0 1.02.85c.2.06.42.1.64.1h.52V9.1h-.11c-.12 0-.24-.02-.36-.06a.78.78 0 0 1-.32-.2c-.1-.1-.18-.24-.24-.41-.07-.17-.11-.4-.13-.66a2.14 2.14 0 0 0 1.32-.9c.15-.22.26-.48.33-.77a3.61 3.61 0 0 0-.04-2.04 2.3 2.3 0 0 0-.47-.85 2.18 2.18 0 0 0-.78-.54c-.3-.13-.65-.2-1.05-.2zm0 .47a1.05 1.05 0 0 1 .96.58c.1.2.17.42.21.7a5.79 5.79 0 0 1 0 1.86c-.04.28-.11.5-.21.7a1.05 1.05 0 0 1-.96.58c-.23 0-.42-.05-.58-.15-.16-.1-.29-.24-.39-.43a2.3 2.3 0 0 1-.21-.7 5.79 5.79 0 0 1 0-1.87c.04-.27.11-.5.21-.69a1.07 1.07 0 0 1 .97-.58zm3.61 0a1.5 1.5 0 0 1-.33.73.93.93 0 0 1-.72.3v.38h.55v2.33c0 .22.02.4.07.54a.9.9 0 0 0 .22.36c.08.07.18.12.28.16l.65-.65c-.08-.1-.1-.26-.1-.48V4.36h.92v-.5H8.6v-.9H8zm2.53 2.87a.35.35 0 0 0-.25.1l-.53.53 1.16 1.17.53-.53a.35.35 0 0 0 0-.5l-.66-.66a.35.35 0 0 0-.25-.1zm-1.03.88zm0 0L6.3 9.9l1.16 1.16 3.2-3.2L9.5 6.7zm-3.45 3.45l-.25 1.4 1.41-.24-1.16-1.16z" fill="green"/></svg>