<svg xmlns="http://www.w3.org/2000/svg" width="48" height="48" viewBox="0 0 12.7 12.7"><path d="M6.34.07a6.29 6.29 0 0 0-6.29 6.3 6.29 6.29 0 0 0 6.3 6.28 6.29 6.29 0 0 0 6.28-6.29A6.29 6.29 0 0 0 6.34.07zm-.01.94a5.4 5.4 0 0 1 5.4 5.4 5.4 5.4 0 0 1-5.4 5.41 5.4 5.4 0 0 1-5.41-5.4A5.4 5.4 0 0 1 6.32 1zM5.22 3.03c-.12 0-.22.1-.22.22v2.23c0 .12.1.22.22.22h2.23c.12 0 .22-.1.22-.22V3.25c0-.12-.1-.22-.22-.22H5.22zM2.34 5.94c-.12 0-.22.1-.22.22V8.4c0 .13.1.23.22.23h2.23c.12 0 .22-.1.22-.23V6.16c0-.12-.1-.22-.22-.22H2.34zm2.9 0c-.13 0-.23.1-.23.22V8.4c0 .13.1.23.23.23h2.22c.13 0 .23-.1.23-.23V6.16c0-.12-.1-.22-.23-.22H5.24zm2.9 0c-.13 0-.23.1-.23.22V8.4c0 .13.1.23.22.23h2.23c.12 0 .22-.1.22-.23V6.16c0-.12-.1-.22-.22-.22H8.13z" fill="#2ca02c"/></svg>
