<svg xmlns="http://www.w3.org/2000/svg" width="48" height="48" viewBox="0 0 12.7 12.7"><path d="M6.35.06a6.29 6.29 0 0 0-6.29 6.3 6.29 6.29 0 0 0 6.3 6.28 6.29 6.29 0 0 0 6.28-6.29A6.29 6.29 0 0 0 6.35.06zM6.33 1a5.4 5.4 0 0 1 5.4 5.4 5.4 5.4 0 0 1-5.4 5.41 5.4 5.4 0 0 1-5.4-5.4A5.4 5.4 0 0 1 6.33 1zm.02.65a4.76 4.76 0 1 0 0 9.52 4.76 4.76 0 0 0 0-9.52zm0 1a3.77 3.77 0 1 1 0 7.53 3.77 3.77 0 0 1 0-7.54zM7.74 6a1.79 1.79 0 1 0 0 3.58 1.79 1.79 0 0 0 0-3.58zm.02.44l.15.06c0 .03-.04.08-.05.12-.04.08 0 .05.04.05.06.02-.02.08-.05.07-.03-.06-.04-.06-.11-.02-.07.03-.16.03-.19.1-.02.05-.07.1-.08.03-.02-.04-.08-.1-.02-.13.04-.03.02-.1-.03-.1-.03-.04-.11-.05-.05-.09l-.14.05c-.08 0 .05.02.07.01.03.04.05.08.1.09-.05.09-.11 0-.18-.03-.04-.03-.09 0-.12.04l.04-.01c.03 0 .05.01.06.04 0 .06-.07.01-.1-.02l-.02.04c-.05.04-.08 0-.04-.05.04-.03.06-.06.05-.12.02-.05.04.1.05 0 .06-.01.1-.06.15-.06.05 0 .07-.06.12-.05.09 0-.06.08.03.05.1-.04.21-.06.32-.07zm.63.23c.04.02.07.04.11.04.06 0 .1.02.03.04-.08-.01-.02.03.02.07.04 0 .06-.13.1-.05.24.22.4.5.45.83-.05.1-.08-.07-.16-.03-.04-.01-.08-.1-.07 0 0 .04.06.06.08.09.04-.09.08.01.07.07-.02.05-.07.08-.12.11-.06.05-.1.1.02.06 0 .07-.04.13-.06.2a.38.38 0 0 0-.1.16c0 .07-.02.15 0 .22 0 .05-.08.07-.1.1-.09.03.05.07 0 .1-.07.03-.02.08-.07.11-.03.03-.06.1-.1.1-.06-.02-.08.04-.14.03a.58.58 0 0 0-.05-.24.31.31 0 0 1 0-.26c0-.05-.05-.09-.03-.13.02-.06-.04-.08-.05-.12.02-.04.03-.1-.02-.13-.05.03-.08-.02-.11 0-.05.07-.07-.03-.1.02-.08.07-.15-.1-.2-.15 0-.04-.05-.09 0-.13.05-.04-.04-.07 0-.11.04-.11.13-.18.2-.26.08-.03.17-.06.25-.02l.1.09c.02-.05.08-.04.12-.02.04 0 .1.03.13 0 .05-.03.08-.08.01-.1-.09.04-.11-.1-.17-.07 0 .06-.02.1-.06.03 0-.05-.02-.1-.07-.11-.04 0 .08.06.02.1-.05.05-.02 0-.03-.03-.05-.01-.07-.09-.12-.06-.05 0-.05.05-.1.06 0 .05-.04.09-.09.1-.03-.04-.08-.02-.06-.1-.02-.05.05-.07.1-.08.06.01-.02-.07-.03-.08.04 0 .1-.02.11-.06 0-.07.11-.02.08-.08.01-.06.03-.01.05.01.05.03.09 0 .12-.04 0-.03.1-.08.07-.08-.08.04-.05-.07-.02-.1-.05-.01-.08.04-.1.07 0 .03 0 .1-.03.11-.04 0-.06-.08-.1-.03-.04.05-.04-.07-.03-.08.03-.04.1-.04.08-.1.05-.04.11-.05.17-.07zm-1.46.03c.04 0 .09.04.06.09-.03.06-.13.09-.19.13 0 .06.06.06.1.08.04.03.03.12.06.03.01-.05.08-.04.07-.1.02-.03.03-.11.08-.06.06.01 0 .1.07.05.06-.01.02.1.06.09.06.01.01.07.07.09-.03.07-.04.04-.05-.02a.27.27 0 0 1-.13.02c-.04.02-.14.05-.05.05.05 0 .13-.02.06.04-.02.06-.1 0-.12.07-.01.05-.1.03-.1.08a.2.2 0 0 1-.1.12c-.05.03-.02.09-.04.14-.03-.04-.05-.08-.1-.08-.04 0-.06.04-.11.03-.04.03-.09.06-.08.12-.01.04.01.1.06.1.05-.03.13-.13.1 0-.06.1.08 0 .05.1-.01.06.09.13.12.07.04-.03.07-.1.11-.04.04.04.09.04.14.03.04 0 .04.07.06.1.05 0 .1.03.1.08.07.07.18.1.26.15 0 .04 0 .1-.04.13-.05.04-.02.1-.01.16-.03.03-.03.1-.09.1-.04 0-.08.06-.05.1l-.06.12c-.06 0-.07.05-.1.09-.01.1-.14 0-.2-.04l.02-.14a.2.2 0 0 1-.02-.14c.02-.06-.03-.1-.08-.14-.06-.04-.07-.1-.1-.16-.05-.05-.04-.1-.02-.14-.02-.04.03-.07.04-.11 0-.04.05-.1-.01-.1-.05.02-.08-.03-.12-.06-.03-.06-.1-.05-.16-.08s-.11-.07-.13-.14c.03-.3.16-.6.37-.83.05-.1.18-.08.2-.18zm1.06.12c.03 0 .03.05.05.08.03.04.07.07 0 .1-.07.04-.07 0-.05-.05.01-.05-.03-.08-.02-.13h.02zm-.08.08c.02.03.05.06 0 .07-.04.03-.05-.07 0-.07zm.72.64c-.03.02 0 .05 0 .07.03.08.1.14.1.22-.01.07.13.11.07.05-.03-.04.03-.08-.03-.1-.04-.08-.07-.18-.14-.24z" fill="green"/></svg>