<svg xmlns="http://www.w3.org/2000/svg" width="48" height="48" viewBox="0 0 12.7 12.7"><path fill="green" d="M6.34.07a6.29 6.29 0 0 0-6.29 6.3 6.29 6.29 0 0 0 6.3 6.28 6.29 6.29 0 0 0 6.28-6.29A6.29 6.29 0 0 0 6.34.07zm-.01.94a5.4 5.4 0 0 1 5.4 5.4 5.4 5.4 0 0 1-5.4 5.41 5.4 5.4 0 0 1-5.41-5.4A5.4 5.4 0 0 1 6.32 1zM3.97 2.48c-.29 0-.52.1-.72.27a.83.83 0 0 0-.25.37.76.76 0 0 0 .03.55l.5.98c.04.1.1.21.18.34.11-.03.24-.06.36-.06h4.7c.12 0 .24.03.36.06.09-.13.14-.25.18-.34l.5-.98a.76.76 0 0 0 .03-.55.83.83 0 0 0-.25-.37 1.05 1.05 0 0 0-.72-.27h-4.9zm.06.98H8.8l-.38.77-.11.21h-3.8l-.1-.21-.4-.77zm.43 1.96c-.24 0-.46.07-.65.22a.85.85 0 0 0-.33.65v4.04h5.88V6.28a.85.85 0 0 0-.34-.66 1.03 1.03 0 0 0-.64-.2H4.46zm0 .5h3.92v2.93H4.46V5.91zm3.43 3.42h.49v.5h-.49v-.5z"/></svg>