<svg xmlns="http://www.w3.org/2000/svg" width="48" height="48" viewBox="0 0 12.7 12.7"><path d="M6.35.08A6.27 6.27 0 0 0 .08 6.35a6.27 6.27 0 0 0 6.27 6.27 6.27 6.27 0 0 0 6.27-6.27A6.27 6.27 0 0 0 6.35.08zm-.02.94a5.39 5.39 0 0 1 5.4 5.38 5.39 5.39 0 0 1-5.4 5.4A5.39 5.39 0 0 1 .94 6.4a5.39 5.39 0 0 1 5.4-5.39zm.4 1.17a4.16 4.16 0 0 0-3.86 2.6h-.82l-.52 1.04H2.6a4.18 4.18 0 0 0-.04.52l-.52 1.04h.66a4.16 4.16 0 0 0 4.02 3.12 4.16 4.16 0 0 0 3.24-1.56H8.45a3.1 3.1 0 0 1-1.72.52 3.12 3.12 0 0 1-2.94-2.08h3.46l.52-1.04H3.6c0-.17.01-.35.04-.52h4.11l.52-1.04H4.03a3.12 3.12 0 0 1 2.7-1.56c.6 0 1.2.18 1.72.52h1.52A4.16 4.16 0 0 0 6.73 2.2z" fill="#2ca02c"/></svg>
