<svg xmlns="http://www.w3.org/2000/svg" width="48" height="48" viewBox="0 0 12.7 12.7"><path fill="#2ca02c" d="M6.34.07a6.29 6.29 0 0 0-6.29 6.3 6.29 6.29 0 0 0 6.3 6.28 6.29 6.29 0 0 0 6.28-6.29A6.29 6.29 0 0 0 6.34.07zm-.01.94a5.4 5.4 0 0 1 5.4 5.4 5.4 5.4 0 0 1-5.4 5.41 5.4 5.4 0 0 1-5.41-5.4A5.4 5.4 0 0 1 6.32 1zm.02.36A5.03 5.03 0 0 0 1.32 6.4a5.03 5.03 0 0 0 5.03 5.02 5.03 5.03 0 0 0 5.03-5.02 5.03 5.03 0 0 0-5.03-5.03zm1.63 1.76a1.89 1.89 0 1 1-.15 3.76L6.35 8.18a1.5 1.5 0 0 1-3 .19l-1.58-.64a4.78 4.78 0 0 1-.2-1.33 4.78 4.78 0 0 1 .02-.36l2.33.93c.25-.2.56-.32.9-.32l1.29-1.48a1.89 1.89 0 0 1 1.87-2.04zm0 .76a1.13 1.13 0 1 0 0 2.26 1.13 1.13 0 0 0 0-2.27zm0 .24a.88.88 0 0 1 .88.88.88.88 0 0 1-.88.88.88.88 0 0 1-.88-.88.88.88 0 0 1 .88-.88zM4.85 7.15c-.12 0-.23.02-.34.06l.61.25a.75.75 0 0 1 .42.98.75.75 0 0 1-.98.42l-.61-.25a1 1 0 0 0 .52.48 1 1 0 1 0 .38-1.94z"/></svg>
