<svg xmlns="http://www.w3.org/2000/svg" width="48" height="48" viewBox="0 0 12.7 12.7"><path fill="green" d="M6.34.08A6.27 6.27 0 0 0 .08 6.34a6.27 6.27 0 0 0 6.26 6.27 6.27 6.27 0 0 0 6.27-6.27A6.27 6.27 0 0 0 6.34.08zM6.33 1a5.39 5.39 0 0 1 5.37 5.4 5.39 5.39 0 0 1-5.38 5.39 5.39 5.39 0 0 1-5.4-5.4 5.39 5.39 0 0 1 5.4-5.38zm.1 1.83c-.88-.01-1.82.32-2.1.99-.17.37-.01 1.03.54 1.03.33 0 .48-.2.5-.4.02-.14-.04-.27-.08-.4s.14-.4.32-.5c.16-.1.32-.12.34-.13.56-.13 1.13.16 1.36.53.23.36-.03.9-.4 1.44-.36.53-.76 1.14-.76 1.79 0 .24-.02.32 0 .42 0 .08.27.07.47.04-.02-.63.12-1.23.71-1.66.63-.49 1.23-1.1 1.16-1.81-.01-.7-.82-1.23-1.68-1.31a3.31 3.31 0 0 0-.37-.03zM6.38 8.5c-.54-.03-.91.57-.59.96.29.43 1.1.32 1.23-.16.15-.38-.2-.81-.64-.8z"/></svg>