<svg xmlns="http://www.w3.org/2000/svg" width="48" height="48" viewBox="0 0 12.7 12.7"><path fill="#2ca02c" d="M6.34.07a6.29 6.29 0 0 0-6.29 6.3 6.29 6.29 0 0 0 6.3 6.28 6.29 6.29 0 0 0 6.28-6.29A6.29 6.29 0 0 0 6.34.07zm-.01.94a5.4 5.4 0 0 1 5.4 5.4 5.4 5.4 0 0 1-5.4 5.41 5.4 5.4 0 0 1-5.41-5.4A5.4 5.4 0 0 1 6.32 1zm2.89 1.63c-1.68.06-2.54.9-2.81 1.23a4.05 4.05 0 0 0-.59-.05 3.75 3.75 0 0 0-3.85 3.65 3.75 3.75 0 0 0 3.85 3.65 3.76 3.76 0 0 0 3.85-3.65c0-1.62-1.12-3-2.66-3.47a3.6 3.6 0 0 0 2.64-1.36 5.45 5.45 0 0 0-.43 0zM7.3 4.9c.13-.01.2.11.22.23v3.55c.03.64-.8 1.18-1.39.91-.3-.12-.44-.48-.35-.79a.91.91 0 0 1 1.15-.69v-2l-1.78.32v2.66c0 .53-.49.95-1.13.93-.35 0-.68-.32-.64-.69.02-.58.63-1 1.18-.87v-2.6c.01-.2-.04-.46.18-.56.8-.14 1.75-.27 2.56-.4z"/></svg>
