<svg xmlns="http://www.w3.org/2000/svg" width="48" height="48" viewBox="0 0 12.7 12.7"><path d="M6.34.07a6.29 6.29 0 0 0-6.29 6.3 6.29 6.29 0 0 0 6.3 6.28 6.29 6.29 0 0 0 6.28-6.29A6.29 6.29 0 0 0 6.34.07zM6.32 1l.01.01a5.4 5.4 0 0 1 5.4 5.4 5.4 5.4 0 0 1-5.4 5.41 5.4 5.4 0 0 1-5.41-5.4A5.4 5.4 0 0 1 6.32 1zM5.27 3v.42H4.01a.36.36 0 0 0-.35.34h-.18c-.2 0-.36.06-.36.14v.28c0 .08.16.14.36.14h.18v5.02c0 .2.16.37.35.37H8.7c.2 0 .35-.17.35-.37V4.32h.18c.2 0 .36-.06.36-.14V3.9c0-.08-.16-.14-.36-.14h-.18a.36.36 0 0 0-.35-.34H7.43v-.43H5.27zm-.54 2.22h.36c.1 0 .18.08.18.18v3.23c0 .1-.08.18-.18.18h-.36a.18.18 0 0 1-.18-.18V5.4c0-.1.08-.18.18-.18zm1.44 0h.36c.1 0 .18.08.18.18v3.23c0 .1-.08.18-.18.18h-.36a.18.18 0 0 1-.18-.18V5.4c0-.1.08-.18.18-.18zm1.44 0h.36c.1 0 .18.08.18.18v3.23c0 .1-.08.18-.18.18H7.6a.18.18 0 0 1-.18-.18V5.4c0-.1.08-.18.18-.18z" fill="#2ca02c"/></svg>
