<svg xmlns="http://www.w3.org/2000/svg" width="48" height="48" version="1"><path d="M24 .23A23.77 23.77 0 0 0 .23 24.01 23.77 23.77 0 0 0 24 47.77 23.77 23.77 0 0 0 47.77 24 23.77 23.77 0 0 0 24 .23zm-.07 3.54a20.44 20.44 0 0 1 20.44 20.44 20.44 20.44 0 0 1-20.44 20.43A20.44 20.44 0 0 1 3.5 24.21 20.44 20.44 0 0 1 23.93 3.77zm0 3A17.44 17.44 0 0 0 6.5 24.22a17.44 17.44 0 0 0 17.43 17.44A17.44 17.44 0 0 0 41.37 24.2 17.44 17.44 0 0 0 23.93 6.77zm3 6.67h.43c1.38 0 2.58.66 3.6 1.97.55.82.83 1.69.83 2.6v.07c0 1.77-.86 3.15-2.57 4.12a4.4 4.4 0 0 1-2.04.5h-.06c-1.6 0-2.91-.76-3.96-2.26v2.18l-.07.07h-.48l-.07-.07v-4.78c0-1.38.67-2.58 2.01-3.6.8-.54 1.6-.8 2.39-.8zm-14.2.02c.2.24.3.45.36.62a4.26 4.26 0 0 0-1.63 3.32v.23c0 1.65.85 2.96 2.55 3.94.65.26 1.2.39 1.66.39h.42c1.5 0 2.73-.75 3.7-2.25a4.47 4.47 0 0 0-.8-5.44l.3-.57h.09a5 5 0 0 1 1.7 3.78v.07c0 2.07-1.06 3.65-3.17 4.76-.77.25-1.44.38-2 .38-1.9 0-3.42-.91-4.56-2.74a5.26 5.26 0 0 1-.58-2.2v-.46c0-1.44.65-2.71 1.96-3.83zm14.42.6c-1.64 0-2.86.81-3.67 2.43-.21.46-.32.98-.32 1.56v.1c0 1.53.79 2.72 2.36 3.57.55.23 1.1.35 1.66.35 1.62 0 2.86-.84 3.71-2.5.18-.57.28-1.09.28-1.55 0-1.5-.76-2.7-2.26-3.58a4.31 4.31 0 0 0-1.66-.38h-.1zM10.38 24.5h19.75c.15 0 .28.13.28.29 0 .15-.13.28-.28.28H10.38a.28.28 0 0 1-.29-.28c0-.16.13-.29.29-.29z" fill="#2ca02c"/></svg>
