<svg xmlns="http://www.w3.org/2000/svg" width="48" height="48" viewBox="0 0 12.7 12.7"><path fill="#2ca02c" d="M6.34.07a6.29 6.29 0 0 0-6.29 6.3 6.29 6.29 0 0 0 6.3 6.28 6.29 6.29 0 0 0 6.28-6.29A6.29 6.29 0 0 0 6.34.07zm-.01.94a5.4 5.4 0 0 1 5.4 5.4 5.4 5.4 0 0 1-5.4 5.41 5.4 5.4 0 0 1-5.41-5.4A5.4 5.4 0 0 1 6.32 1zm3.52 1.87a.18.18 0 0 0-.05.01l-1.3.43a.19.19 0 0 0-.07.32l.19.19L5.54 6.9a.3.3 0 0 0-.04.03l-.01.02-.21.21.06-1.25.47-.47a.8.8 0 1 0-.49-.49l-.56.57a.34.34 0 0 0-.1.23l-.1 2.13-.36.35a1.1 1.1 0 0 0-1.28.2 1.1 1.1 0 0 0 0 1.57 1.1 1.1 0 0 0 1.57 0c.34-.34.42-.86.2-1.28l.41-.41a.34.34 0 0 0 .06-.06l.74-.75 2.14-.1a.34.34 0 0 0 .23-.1l.62-.62.13.14a.19.19 0 0 0 .27 0l.76-.76a.19.19 0 0 0 0-.27l-.76-.76a.19.19 0 0 0-.27 0l-.75.76a.2.2 0 0 0 0 .27l.13.13-.53.53-1.24.06L9.1 4.31l.2.2a.2.2 0 0 0 .3-.08l.44-1.3a.19.19 0 0 0-.14-.24.18.18 0 0 0-.05 0z"/></svg>
