<svg xmlns="http://www.w3.org/2000/svg" width="48" height="48" viewBox="0 0 12.7 12.7"><path d="M6.34.07a6.29 6.29 0 0 0-6.29 6.3 6.29 6.29 0 0 0 6.3 6.28 6.29 6.29 0 0 0 6.28-6.29A6.29 6.29 0 0 0 6.34.07zM6.32 1l.01.01a5.4 5.4 0 0 1 5.4 5.4 5.4 5.4 0 0 1-5.4 5.41 5.4 5.4 0 0 1-5.41-5.4A5.4 5.4 0 0 1 6.32 1z" fill="#2ca02c"/><path d="M5.23 2.08a2.75 2.75 0 0 0-2.71 2.8v1.65c0 1.26.8 2.32 1.91 2.67v1.61l1.64-1.49h1.4c1.5 0 2.71-1.24 2.71-2.8V4.89c0-1.55-1.2-2.8-2.7-2.8zm1.74 1.07c.54 0 1 .18 1.37.52.19.18.33.39.42.63.1.23.14.5.15.8a.19.19 0 0 1-.2.18.19.19 0 0 1-.18-.19c0-.5-.16-.88-.45-1.15-.3-.28-.67-.42-1.12-.43a.19.19 0 0 1-.18-.18c0-.1.08-.18.19-.18zm-1.93.43c.08.01.15.05.2.11l.01.01.02.03.08.1.18.22c.08.12.2.3.25.4.1.19.04.39-.07.47l-.2.16c-.07.06-.07.19-.07.2 0 0 .29 1.06 1.34 1.33 0 0 .13 0 .2-.07l.15-.2c.09-.11.29-.17.48-.07a4.28 4.28 0 0 1 .75.54c.12.1.15.26.08.42v.02c-.1.15-.2.28-.34.4v.01a.67.67 0 0 1-.4.17c-.06 0-.1 0-.16-.02l-.01-.01a5.45 5.45 0 0 1-2-1.22v-.01H5.5v-.02l-.02-.01-.01-.01a5.45 5.45 0 0 1-1.22-2h-.01V4.5a.51.51 0 0 1-.03-.15V4.3a.67.67 0 0 1 .16-.33l.01-.02c.13-.14.27-.25.41-.33h.01a.38.38 0 0 1 .23-.04zM6.98 4c.32.02.6.14.8.34.18.2.28.47.27.76 0 .1-.08.18-.18.18a.18.18 0 0 1-.19-.19.66.66 0 0 0-.18-.5c-.13-.14-.3-.21-.55-.23-.1 0-.18-.1-.17-.2 0-.1.1-.17.2-.16z" fill="purple" opacity=".75"/></svg>
