<svg xmlns="http://www.w3.org/2000/svg" width="48" height="48" viewBox="0 0 12.7 12.7"><defs><clipPath id="a"><path fill="#1a1a1a" stroke-width=".14" d="M-9.55 285.31a5.4 5.4 0 0 1 5.4 5.4 5.4 5.4 0 0 1-5.4 5.41 5.4 5.4 0 0 1-5.4-5.4 5.4 5.4 0 0 1 5.4-5.41z"/></clipPath></defs><g fill="green"><path d="M6.34.07a6.29 6.29 0 0 0-6.29 6.3 6.29 6.29 0 0 0 6.3 6.28 6.29 6.29 0 0 0 6.28-6.29A6.29 6.29 0 0 0 6.34.07zm-.01.94a5.4 5.4 0 0 1 5.4 5.4 5.4 5.4 0 0 1-5.4 5.41 5.4 5.4 0 0 1-5.41-5.4A5.4 5.4 0 0 1 6.32 1z"/><path d="M-5.74 283.48l-10.96 10.95.3.3.78-.77.77.77-.77.78 1.16 1.16.77-.78.77.78-.77.77.38.38 10.96-10.95zm-.61 1.2l.77.78-.77.78-.77-.78zm-1.55 1.56l.78.77-.78.77-.77-.77zm3.48.38l.77.77-.77.78-.77-.78zm-5.02 1.16l.77.77-.77.78-.78-.78zm3.47.39l.78.77-.77.77-.78-.77zm-5.02 1.16l.78.77-.78.77-.77-.77zm3.48.38l.77.78-.77.77-.77-.77zm-5.02 1.16l.77.77-.77.78-.78-.78zm3.47.39l.78.77-.78.77-.77-.77zm-5.02 1.16l.77.77-.77.77-.77-.77zm3.48.38l.77.78-.77.77-.77-.77zm-1.55 1.55l.78.77-.78.77-.77-.77z" clip-path="url(#a)" transform="translate(15.96 -290.12) scale(1.01965)"/></g></svg>