<svg xmlns="http://www.w3.org/2000/svg" width="48" height="48" viewBox="0 0 12.7 12.7"><path fill="green" d="M6.34.07a6.29 6.29 0 0 0-6.29 6.3 6.29 6.29 0 0 0 6.3 6.28 6.29 6.29 0 0 0 6.28-6.29A6.29 6.29 0 0 0 6.34.07zm-.01.94a5.4 5.4 0 0 1 5.4 5.4 5.4 5.4 0 0 1-5.4 5.41 5.4 5.4 0 0 1-5.41-5.4A5.4 5.4 0 0 1 6.32 1zM3.3 2.4c-.5 0-.9.4-.9.9V9.4c0 .5.4.9.9.9h6.1c.5 0 .9-.4.9-.9V3.3a.9.9 0 0 0-.9-.9H3.3zm.19.24H9.2a.84.84 0 0 1 .84.84V9.2a.84.84 0 0 1-.84.84H3.5a.84.84 0 0 1-.84-.84V3.5a.84.84 0 0 1 .84-.84zm3.61.5a.42.42 0 0 0 0 .84h1l-.85.84h-.73v.84h.16c.34 0 .34 0 .34.34v.17h.84v-.77l.84-.84v1.02a.42.42 0 0 0 .85 0V3.57a.42.42 0 0 0-.43-.42H7.12zm-3.53 0a.42.42 0 0 0-.42.42V5.6a.42.42 0 0 0 .84 0V4.57l.84.84v.78h.85V6c0-.33 0-.33.33-.33h.17v-.85h-.73L4.6 4h1a.42.42 0 0 0 0-.84H3.56zm3.45 3.36v.18c0 .33 0 .33-.34.33h-.16v.84h.73l.84.85H7.1a.42.42 0 0 0 0 .84h2.02a.42.42 0 0 0 .43-.42V7.1a.42.42 0 0 0-.85 0v1.02l-.84-.84V6.5h-.84zm-2.18 0v.85c0 .28.22.5.5.5h.84v-.84h-.33c-.17 0-.17 0-.17-.17v-.33h-.85z"/></svg>