<svg xmlns="http://www.w3.org/2000/svg" width="48" height="48" viewBox="0 0 12.7 12.7"><path d="M6.34.34A6.03 6.03 0 0 0 .32 6.36a6.03 6.03 0 0 0 6.02 6.03 6.03 6.03 0 0 0 6.03-6.03A6.03 6.03 0 0 0 6.34.34zm-.01.9A5.18 5.18 0 0 1 11.5 6.4a5.18 5.18 0 0 1-5.18 5.18A5.18 5.18 0 0 1 1.14 6.4a5.18 5.18 0 0 1 5.18-5.18z" fill="green"/><path d="M6.33 2.03A4.39 4.39 0 0 0 1.94 6.4a4.39 4.39 0 0 0 4.39 4.39 4.39 4.39 0 0 0 4.38-4.39 4.39 4.39 0 0 0-4.38-4.38zM4.65 3.97c.33.01.43 0 .73.73.26.62.26.63-.04.97a.88.88 0 0 0-.18.27c.25.78 1.05 1.37 1.83 1.57.07 0 .16-.08.36-.32.33-.4.28-.4 1.05-.04.6.28.63.36.58.65-.06.4-.25.63-.65.8-.38.19-.79.17-1.44-.04A4.89 4.89 0 0 1 4.3 6.6c-.45-.61-.6-.98-.6-1.43 0-.36.07-.6.29-.88.21-.28.32-.33.65-.32z" fill="#47ad5d"/></svg>