<svg xmlns="http://www.w3.org/2000/svg" width="48" height="48" viewBox="0 0 12.7 12.7"><path d="M6.34.07a6.29 6.29 0 0 0-6.29 6.3 6.29 6.29 0 0 0 6.3 6.28 6.29 6.29 0 0 0 6.28-6.29A6.29 6.29 0 0 0 6.34.07zm-.01.94a5.4 5.4 0 0 1 5.4 5.4 5.4 5.4 0 0 1-5.4 5.41 5.4 5.4 0 0 1-5.41-5.4A5.4 5.4 0 0 1 6.32 1zm3.4 1.42l-4.24.62V6.2l4.23-.04V2.43zm-4.62.68l-3.2.43.01 2.66 3.19-.01V3.1zM1.92 6.52v2.66l3.19.44V6.54l-3.19-.02zm3.57.04v3.1l1.17.17a2.12 2.12 0 0 1-.04-.16 2.12 2.12 0 0 1-.04-.2 2.12 2.12 0 0 1 0-.22 2.12 2.12 0 0 1 0-.15 2.12 2.12 0 0 1 .02-.2 2.12 2.12 0 0 1 .05-.22 2.12 2.12 0 0 1 .07-.2 2.12 2.12 0 0 1 .08-.19 2.12 2.12 0 0 1 .1-.18 2.12 2.12 0 0 1 .13-.18 2.12 2.12 0 0 1 .14-.15 2.12 2.12 0 0 1 .16-.15 2.12 2.12 0 0 1 .17-.13 2.12 2.12 0 0 1 .18-.1 2.12 2.12 0 0 1 .19-.1 2.12 2.12 0 0 1 .2-.07 2.12 2.12 0 0 1 .2-.05 2.12 2.12 0 0 1 .2-.04 2.12 2.12 0 0 1 .22 0 2.12 2.12 0 0 1 .15 0 2.12 2.12 0 0 1 .21.02 2.12 2.12 0 0 1 .2.05 2.12 2.12 0 0 1 .2.07 2.12 2.12 0 0 1 .2.08 2.12 2.12 0 0 1 .07.05v-.84H5.5zm3.2 1.1a1.59 1.59 0 0 0-1.59 1.6 1.59 1.59 0 0 0 1.59 1.58 1.59 1.59 0 0 0 1.59-1.59 1.59 1.59 0 0 0-1.59-1.59zm-.27.53h.53l.02.28a.83.83 0 0 1 .24.14l.26-.12.26.46-.23.16a.83.83 0 0 1 .01.14.83.83 0 0 1 0 .14l.22.16-.26.46-.26-.12a.83.83 0 0 1-.24.14l-.02.28h-.53l-.03-.28a.83.83 0 0 1-.24-.14l-.25.12-.27-.46.23-.16a.83.83 0 0 1 0-.14.83.83 0 0 1 0-.14l-.23-.16.27-.46.25.12a.83.83 0 0 1 .24-.14l.03-.28zm.26.76a.3.3 0 0 0-.3.3.3.3 0 0 0 .3.3.3.3 0 0 0 .3-.3.3.3 0 0 0-.3-.3z" fill="#2ca02c"/></svg>
