<svg xmlns="http://www.w3.org/2000/svg" width="48" height="48" viewBox="0 0 12.7 12.7"><path d="M6.34.07a6.29 6.29 0 0 0-6.29 6.3 6.29 6.29 0 0 0 6.3 6.28 6.29 6.29 0 0 0 6.28-6.29A6.29 6.29 0 0 0 6.34.07zM6.32 1l.01.01a5.4 5.4 0 0 1 5.4 5.4 5.4 5.4 0 0 1-5.4 5.41 5.4 5.4 0 0 1-5.41-5.4A5.4 5.4 0 0 1 6.32 1z" fill="green"/><path d="M2.98 3.6v4.04s0 1.68 2.02 1.68 2.02-1.68 2.02-1.68V4.6s0-.68-.67-.68-.67.68-.67.68v3.03s0 1.68 2.02 1.68 2.02-1.68 2.02-1.68V3.6" fill="none" stroke="green" stroke-width=".67"/></svg>