<svg xmlns="http://www.w3.org/2000/svg" width="48" height="48" viewBox="0 0 12.7 12.7"><path d="M6.34.07a6.29 6.29 0 0 0-6.29 6.3 6.29 6.29 0 0 0 6.3 6.28 6.29 6.29 0 0 0 6.28-6.29A6.29 6.29 0 0 0 6.34.07zM6.32 1l.01.01a5.4 5.4 0 0 1 5.4 5.4 5.4 5.4 0 0 1-5.4 5.41 5.4 5.4 0 0 1-5.41-5.4A5.4 5.4 0 0 1 6.32 1zM3.263 3.572a.616.616 0 0 0-.617.617L6.35 6.35l3.704-2.16a.616.616 0 0 0-.617-.618H3.263zm.609.617h4.956L6.35 5.636 3.872 4.189zm-1.226.617v3.705c0 .342.275.617.617.617h6.174a.616.616 0 0 0 .617-.617V4.806L6.35 6.968 2.646 4.806zm.617 1.075l2.776 1.62a.617.617 0 0 0 .622 0l2.776-1.62v2.63H3.263V5.88z" fill="#2ca02c"/></svg>
