<svg xmlns="http://www.w3.org/2000/svg" width="24" height="24" viewBox="0 0 6.35 6.35"><path d="M3.167.693A2.504 2.504 0 0 0 .97 1.998l2.155 2.118h.2l2.082-2.037A2.504 2.504 0 0 0 3.167.693zM.827 2.315a2.504 2.504 0 0 0-.163.883A2.504 2.504 0 0 0 .992 4.43l.985-.977-1.15-1.138zm4.713.094L4.494 3.453l.894.897a2.504 2.504 0 0 0 .283-1.152 2.504 2.504 0 0 0-.13-.789zM2.22 3.681L1.178 4.714a2.504 2.504 0 0 0 1.99.987 2.504 2.504 0 0 0 2.047-1.064l-.973-.956-.77.765h-.484l-.769-.765z" fill="#006680"/></svg>