<svg xmlns="http://www.w3.org/2000/svg" width="24" height="24" viewBox="0 0 6.35 6.35"><g fill="gray"><path d="M3.2.86a2.35 2.35 0 0 0-1.15.3v4.08c.76.54 1.62.37 2.25-.01V1.16a2.53 2.53 0 0 0-1.1-.3zm.2.76V2.9h.46l-.91 1.76V3.37H2.5z" opacity=".5"/><path d="M3.17.56A2.62 2.62 0 0 0 .56 3.17 2.62 2.62 0 0 0 3.17 5.8 2.62 2.62 0 0 0 5.8 3.17 2.62 2.62 0 0 0 3.17.56zm0 .39A2.25 2.25 0 0 1 5.42 3.2a2.25 2.25 0 0 1-2.25 2.25A2.25 2.25 0 0 1 .92 3.2 2.25 2.25 0 0 1 3.17.95z"/><path d="M3.4 1.62V2.9h.46l-.91 1.76V3.37H2.5z" opacity=".5" fill-opacity=".5"/></g></svg>