<svg xmlns="http://www.w3.org/2000/svg" width="24" height="24" version="1"><defs><linearGradient id="a"><stop offset="0"/><stop offset="1" stop-opacity="0"/></linearGradient></defs><path d="M4.365 5.023c-.759 0-1.37.61-1.37 1.37v2.285c0 .035.008.069.01.103v6.684h-.013v2.14c0 .466.267.813.62 1.061l9.533-9.533H5.629v2.023c0 .387-.255.7-.572.7-.318 0-.575-.313-.575-.7V8.79c0-.035.012-.066.016-.1-.004-.027-.016-.05-.016-.078 0-.266.202-.475.46-.507.021-.003.04-.014.062-.014H20.982l.024.002v-1.54H11.09L9.56 5.024H4.366zM21.008 9.13l-.02.004h-4.652l-9.844 9.844h4.72l9.796-9.795v-.053zm0 3.178l-6.67 6.67h5.297c.759 0 1.369-.612 1.369-1.372v-1.834h.004v-3.464z" fill="gray"/></svg>