<svg xmlns="http://www.w3.org/2000/svg" viewBox="0 0 24 24"><path d="M12 2c-1.19 0-2.19.76-2.56 1.82h-3.8a1.82 1.82 0 0 0-1.82 1.82v14.54A1.82 1.82 0 0 0 5.64 22h12.72a1.82 1.82 0 0 0 1.82-1.82V5.64a1.82 1.82 0 0 0-1.82-1.82h-3.8A2.72 2.72 0 0 0 12 2zm-.04 1.82a.9.9 0 0 1 .04 0 .9.9 0 0 1 0 1.82.9.9 0 0 1-.04-1.82zM5.64 5.64h1.81v2.72h9.1V5.64h1.81v14.54H5.64zM12 9.36c-.54 0-.97.29-.97.65v5.37c0 .36.43.65.97.65s.97-.3.97-.65V10c0-.36-.43-.65-.97-.65zm0 7.4c-.54 0-.97.4-.97.89 0 .48.43.88.97.88s.97-.4.97-.88c0-.5-.43-.88-.97-.88z" fill="gray"/></svg>