<?xml version="1.0" encoding="UTF-8" standalone="no"?>
<!-- Created with Inkscape (http://www.inkscape.org/) -->

<svg
   xmlns:dc="http://purl.org/dc/elements/1.1/"
   xmlns:cc="http://creativecommons.org/ns#"
   xmlns:rdf="http://www.w3.org/1999/02/22-rdf-syntax-ns#"
   xmlns:svg="http://www.w3.org/2000/svg"
   xmlns="http://www.w3.org/2000/svg"
   xmlns:sodipodi="http://sodipodi.sourceforge.net/DTD/sodipodi-0.dtd"
   xmlns:inkscape="http://www.inkscape.org/namespaces/inkscape"
   width="48"
   height="48"
   viewBox="0 0 12.7 12.7"
   version="1.1"
   id="svg829"
   inkscape:version="0.92.3 (2405546, 2018-03-11)"
   sodipodi:docname="folder-system.svg">
  <defs
     id="defs823" />
  <sodipodi:namedview
     id="base"
     pagecolor="#ffffff"
     bordercolor="#666666"
     borderopacity="1.0"
     inkscape:pageopacity="0.0"
     inkscape:pageshadow="2"
     inkscape:zoom="2.5625"
     inkscape:cx="-84.04878"
     inkscape:cy="22.04878"
     inkscape:document-units="mm"
     inkscape:current-layer="layer1"
     showgrid="false"
     showguides="true"
     inkscape:guide-bbox="true"
     inkscape:window-width="1366"
     inkscape:window-height="672"
     inkscape:window-x="0"
     inkscape:window-y="27"
     inkscape:window-maximized="1"
     scale-x="1.9"
     units="px"
     inkscape:snap-global="false" />
  <metadata
     id="metadata826">
    <rdf:RDF>
      <cc:Work
         rdf:about="">
        <dc:format>image/svg+xml</dc:format>
        <dc:type
           rdf:resource="http://purl.org/dc/dcmitype/StillImage" />
        <dc:title></dc:title>
      </cc:Work>
    </rdf:RDF>
  </metadata>
  <g
     inkscape:label="Capa 1"
     inkscape:groupmode="layer"
     id="layer1"
     transform="translate(0,-284.3)">
    <path
       style="fill:#1a1a1a;fill-opacity:1;stroke-width:0.52516764"
       d="M 23.978516 0.27539062 A 23.770509 23.770509 0 0 0 0.20703125 24.046875 A 23.770509 23.770509 0 0 0 23.978516 47.816406 A 23.770509 23.770509 0 0 0 47.748047 24.046875 A 23.770509 23.770509 0 0 0 23.978516 0.27539062 z M 23.910156 3.8144531 A 20.436071 20.436071 0 0 1 44.345703 24.25 A 20.436071 20.436071 0 0 1 23.910156 44.685547 A 20.436071 20.436071 0 0 1 3.4726562 24.25 A 20.436071 20.436071 0 0 1 23.910156 3.8144531 z M 17.267578 6.3300781 C 16.710145 6.3300781 16.242187 6.7726734 16.242188 7.3300781 L 16.242188 8.6328125 C 15.889743 8.7511117 15.548003 8.8878836 15.21875 9.0507812 L 14.3125 8.1445312 C 13.918335 7.7503643 13.286741 7.7503643 12.892578 8.1445312 L 10.613281 10.400391 C 10.219114 10.794558 10.219118 11.426146 10.613281 11.820312 L 11.519531 12.728516 C 11.352514 13.063382 11.222061 13.416336 11.101562 13.775391 L 9.8222656 13.775391 C 9.2648344 13.775391 8.7988243 14.217948 8.7988281 14.775391 L 8.7988281 17.986328 C 8.7988281 18.543771 9.2648344 18.986328 9.8222656 18.986328 L 11.101562 18.986328 C 11.222092 19.345383 11.352544 19.698224 11.519531 20.033203 L 10.613281 20.939453 C 10.219114 21.33362 10.219114 21.965208 10.613281 22.359375 L 12.892578 24.617188 C 13.286741 25.011354 13.918336 25.011354 14.3125 24.617188 L 15.21875 23.708984 C 15.548004 23.87226 15.889741 24.008654 16.242188 24.126953 L 16.242188 25.429688 C 16.242187 25.987092 16.710148 26.431641 17.267578 26.431641 L 20.455078 26.431641 C 21.012512 26.431641 21.455078 25.987092 21.455078 25.429688 L 21.455078 24.126953 C 21.814163 24.006386 22.16698 23.876039 22.501953 23.708984 L 23.408203 24.617188 C 23.802369 25.011354 24.43396 25.011354 24.828125 24.617188 L 27.107422 22.359375 C 27.501587 21.965208 27.501584 21.33362 27.107422 20.939453 L 26.177734 20.009766 C 26.340851 19.680569 26.477419 19.338769 26.595703 18.986328 L 27.898438 18.986328 C 28.455871 18.986328 28.900391 18.543771 28.900391 17.986328 L 28.900391 14.775391 C 28.900391 14.217948 28.455867 13.775391 27.898438 13.775391 L 26.595703 13.775391 C 26.477419 13.423139 26.340851 13.079272 26.177734 12.75 L 27.107422 11.820312 C 27.501587 11.426146 27.501586 10.794558 27.107422 10.400391 L 24.828125 8.1445312 C 24.433961 7.7503643 23.802366 7.7503643 23.408203 8.1445312 L 22.501953 9.0507812 C 22.166981 8.8837261 21.814162 8.7533794 21.455078 8.6328125 L 21.455078 7.3300781 C 21.455078 6.7726734 21.012507 6.3300781 20.455078 6.3300781 L 17.267578 6.3300781 z M 18.849609 10.423828 C 22.133786 10.423828 24.804688 13.096714 24.804688 16.380859 C 24.804688 19.665042 22.133786 22.335938 18.849609 22.335938 C 15.565434 22.335938 12.892578 19.665042 12.892578 16.380859 C 12.892578 13.096714 15.565434 10.423828 18.849609 10.423828 z M 18.908203 11 A 5.3536105 5.3803786 0 0 0 13.556641 16.380859 A 5.3536105 5.3803786 0 0 0 18.908203 21.759766 A 5.3536105 5.3803786 0 0 0 24.261719 16.380859 A 5.3536105 5.3803786 0 0 0 18.908203 11 z M 18.849609 13.775391 C 20.287976 13.775391 21.455078 14.942522 21.455078 16.380859 C 21.455078 17.819272 20.287976 18.986328 18.849609 18.986328 C 17.411241 18.986328 16.242187 17.819272 16.242188 16.380859 C 16.242187 14.942522 17.411243 13.775391 18.849609 13.775391 z M 27.277344 24.109375 C 26.765824 24.109375 26.337891 24.515822 26.337891 25.027344 L 26.337891 26.222656 C 26.014473 26.331129 25.700571 26.455875 25.398438 26.605469 L 24.566406 25.773438 C 24.204705 25.411737 23.625371 25.411737 23.263672 25.773438 L 21.171875 27.84375 C 20.810174 28.205451 20.810178 28.784784 21.171875 29.146484 L 22.003906 29.980469 C 21.850654 30.287744 21.729725 30.609954 21.619141 30.939453 L 20.445312 30.939453 C 19.933792 30.939453 19.505858 31.345901 19.505859 31.857422 L 19.505859 34.804688 C 19.505859 35.316247 19.933795 35.722656 20.445312 35.722656 L 21.619141 35.722656 C 21.729726 36.052231 21.850651 36.376167 22.003906 36.683594 L 21.171875 37.515625 C 20.810174 37.877326 20.810174 38.456659 21.171875 38.818359 L 23.263672 40.888672 C 23.625369 41.250373 24.204708 41.250373 24.566406 40.888672 L 25.398438 40.056641 C 25.700573 40.20631 26.014475 40.333009 26.337891 40.441406 L 26.337891 41.636719 C 26.33789 42.14824 26.765827 42.554688 27.277344 42.554688 L 30.203125 42.554688 C 30.714645 42.554688 31.121094 42.14824 31.121094 41.636719 L 31.121094 40.441406 C 31.450601 40.331044 31.774649 40.210014 32.082031 40.056641 L 32.914062 40.888672 C 33.275763 41.250373 33.855097 41.250373 34.216797 40.888672 L 36.308594 38.818359 C 36.670291 38.456659 36.670291 37.877326 36.308594 37.515625 L 35.455078 36.662109 C 35.604759 36.360125 35.729351 36.04607 35.837891 35.722656 L 37.035156 35.722656 C 37.546676 35.722656 37.953125 35.316247 37.953125 34.804688 L 37.953125 31.857422 C 37.953125 31.345901 37.546673 30.939453 37.035156 30.939453 L 35.837891 30.939453 C 35.72935 30.615926 35.604758 30.302098 35.455078 30 L 36.308594 29.146484 C 36.670291 28.784784 36.670291 28.205451 36.308594 27.84375 L 34.216797 25.773438 C 33.8551 25.411737 33.27576 25.411737 32.914062 25.773438 L 32.082031 26.605469 C 31.77465 26.452398 31.450602 26.333321 31.121094 26.222656 L 31.121094 25.027344 C 31.121094 24.515822 30.714641 24.109375 30.203125 24.109375 L 27.277344 24.109375 z M 28.728516 27.865234 C 31.742188 27.865234 34.195313 30.318425 34.195312 33.332031 C 34.195312 36.345751 31.742188 38.796875 28.728516 38.796875 C 25.714843 38.796875 23.263672 36.345751 23.263672 33.332031 C 23.263672 30.318425 25.714843 27.865234 28.728516 27.865234 z M 28.783203 28.394531 A 4.9126568 4.9372203 0 0 0 23.873047 33.332031 A 4.9126568 4.9372203 0 0 0 28.783203 38.267578 A 4.9126568 4.9372203 0 0 0 33.697266 33.332031 A 4.9126568 4.9372203 0 0 0 28.783203 28.394531 z M 28.728516 30.939453 C 30.04841 30.939453 31.121094 32.012182 31.121094 33.332031 C 31.121094 34.651993 30.04841 35.722656 28.728516 35.722656 C 27.40862 35.722656 26.337891 34.651993 26.337891 33.332031 C 26.33789 32.012182 27.408621 30.939453 28.728516 30.939453 z "
       transform="matrix(0.26458333,0,0,0.26458333,0,284.3)"
       id="path1374" />
  </g>
</svg>
