<?xml version="1.0" encoding="UTF-8" standalone="no"?>
<!-- Created with Inkscape (http://www.inkscape.org/) -->

<svg
   xmlns:dc="http://purl.org/dc/elements/1.1/"
   xmlns:cc="http://creativecommons.org/ns#"
   xmlns:rdf="http://www.w3.org/1999/02/22-rdf-syntax-ns#"
   xmlns:svg="http://www.w3.org/2000/svg"
   xmlns="http://www.w3.org/2000/svg"
   xmlns:sodipodi="http://sodipodi.sourceforge.net/DTD/sodipodi-0.dtd"
   xmlns:inkscape="http://www.inkscape.org/namespaces/inkscape"
   width="48"
   height="48"
   viewBox="0 0 12.7 12.7"
   version="1.1"
   id="svg829"
   inkscape:version="0.92.3 (2405546, 2018-03-11)"
   sodipodi:docname="user-trash.svg">
  <defs
     id="defs823" />
  <sodipodi:namedview
     id="base"
     pagecolor="#ffffff"
     bordercolor="#666666"
     borderopacity="1.0"
     inkscape:pageopacity="0.0"
     inkscape:pageshadow="2"
     inkscape:zoom="7.2478445"
     inkscape:cx="16.713597"
     inkscape:cy="24"
     inkscape:document-units="mm"
     inkscape:current-layer="layer1"
     showgrid="false"
     showguides="true"
     inkscape:guide-bbox="true"
     inkscape:window-width="1366"
     inkscape:window-height="690"
     inkscape:window-x="0"
     inkscape:window-y="28"
     inkscape:window-maximized="1"
     scale-x="1.9"
     units="px" />
  <metadata
     id="metadata826">
    <rdf:RDF>
      <cc:Work
         rdf:about="">
        <dc:format>image/svg+xml</dc:format>
        <dc:type
           rdf:resource="http://purl.org/dc/dcmitype/StillImage" />
        <dc:title></dc:title>
      </cc:Work>
    </rdf:RDF>
  </metadata>
  <g
     inkscape:label="Capa 1"
     inkscape:groupmode="layer"
     id="layer1"
     transform="translate(0,-284.3)">
    <path
       style="fill:#1a1a1a;fill-opacity:1;stroke-width:0.52516764"
       d="M 23.978516 0.27539062 A 23.770509 23.770509 0 0 0 0.20703125 24.046875 A 23.770509 23.770509 0 0 0 23.978516 47.816406 A 23.770509 23.770509 0 0 0 47.748047 24.046875 A 23.770509 23.770509 0 0 0 23.978516 0.27539062 z M 23.910156 3.8144531 A 20.436071 20.436071 0 0 1 44.345703 24.25 A 20.436071 20.436071 0 0 1 23.910156 44.685547 A 20.436071 20.436071 0 0 1 3.4726562 24.25 A 20.436071 20.436071 0 0 1 23.910156 3.8144531 z M 29.599609 7.9921875 C 26.530474 8.0073056 23.45941 8.0227472 20.386719 8.0371094 C 21.602992 7.9909991 22.734721 9.0917012 23.830078 10.71875 C 24.80452 12.391985 25.724686 14.125501 26.519531 15.976562 L 23.294922 17.830078 L 32.644531 18.726562 L 36.580078 10.183594 L 33.326172 12.054688 C 32.44064 10.255179 31.311995 8.7585623 29.599609 7.9921875 z M 19.896484 8.6503906 C 19.464387 8.7375465 19.114381 8.9243859 18.847656 9.2089844 C 16.688948 11.326805 15.368066 13.446317 14.285156 15.560547 C 16.312279 16.72347 18.34024 17.887858 20.369141 19.050781 L 24.521484 13.230469 C 24.13562 12.494292 23.731975 11.765111 23.310547 11.044922 C 22.775315 10.250087 21.744816 8.8417003 20.679688 8.6640625 L 20.355469 8.6503906 L 19.896484 8.6503906 z M 36.703125 18.673828 C 34.695562 19.872316 32.685297 21.067314 30.677734 22.267578 L 30.974609 22.908203 L 31.011719 22.855469 L 31.011719 22.984375 L 33.414062 28.095703 C 34.384948 28.129719 35.359368 28.136024 36.332031 28.126953 C 37.33848 28.043426 39.20955 27.813566 39.791016 26.851562 C 39.814071 26.817547 39.828154 26.785591 39.847656 26.751953 L 40.083984 26.328125 C 40.083984 26.138015 40.058684 25.943098 40.001953 25.761719 C 39.21422 22.843734 38.01542 20.656493 36.703125 18.673828 z M 16.505859 19.677734 L 7.2539062 21.375 L 10.658203 22.955078 C 9.6944308 24.719059 9.122705 26.501179 9.4765625 28.339844 C 11.25474 30.847069 13.032719 33.349843 14.814453 35.853516 C 14.078287 34.884407 14.330648 33.325485 15.03125 31.492188 C 15.838543 29.737126 16.726616 27.987074 17.779297 26.267578 L 21.154297 27.839844 L 16.505859 19.677734 z M 30.419922 24.779297 L 25.060547 32.490234 L 30.580078 40.109375 L 30.542969 36.357422 C 32.543419 36.469296 34.402612 36.214999 35.914062 35.103516 C 37.405954 32.416687 38.896956 29.73228 40.390625 27.050781 C 39.826942 28.131915 38.309686 28.576126 36.355469 28.734375 C 34.419033 28.768391 32.461038 28.712095 30.457031 28.501953 L 30.419922 24.779297 z M 16.792969 29.269531 C 16.373319 30.078615 15.976058 30.898646 15.59375 31.734375 C 15.231002 32.680391 14.631017 34.467378 15.248047 35.40625 C 15.269401 35.440266 15.291334 35.468252 15.314453 35.5 L 15.605469 35.908203 C 15.850858 36.082439 16.117311 36.181774 16.396484 36.220703 C 19.371376 36.773686 21.860536 36.629638 24.214844 36.300781 C 23.999683 33.973121 23.783344 31.644028 23.566406 29.316406 L 16.792969 29.269531 z "
       transform="matrix(0.26458333,0,0,0.26458333,0,284.3)"
       id="path1374" />
  </g>
</svg>
