<svg xmlns="http://www.w3.org/2000/svg" width="24" height="24" viewBox="0 0 6.35 6.35"><path style="line-height:normal;text-indent:0;text-align:start;text-decoration-line:none;text-transform:none;marker:none" d="M3.04 1.156v.004a2.018 2.018 0 0 0-1.88 1.88h-.004v.268h.005a2.019 2.019 0 0 0 1.88 1.88v.004h.269v-.004a2.017 2.017 0 0 0 1.878-1.88h.006V3.04h-.006A2.018 2.018 0 0 0 3.31 1.16v-.003h-.135zm0 .286v.79h-.66c.145-.419.384-.716.66-.79zm.27 0c.276.074.514.371.659.79h-.66zm-.89.154a2.14 2.14 0 0 0-.317.637H1.7a1.76 1.76 0 0 1 .72-.637zm1.51 0c.295.141.544.363.72.637h-.403a2.134 2.134 0 0 0-.317-.637zm-2.37.906h.473c-.036.17-.06.35-.067.538H1.43c.015-.19.06-.37.13-.538zm.745 0h.735v.538h-.804c.007-.19.031-.37.069-.538zm1.005 0h.734c.038.167.062.349.07.538H3.31zm1.007 0h.473c.07.167.115.349.13.538h-.536a3.195 3.195 0 0 0-.067-.538zm-2.887.807h.536c.008.188.03.368.067.538H1.56a1.735 1.735 0 0 1-.13-.538zm.806 0h.804v.538h-.735a3.009 3.009 0 0 1-.07-.538zm1.074 0h.804c-.007.19-.032.37-.07.538H3.31zm1.074 0h.535c-.014.19-.059.37-.129.538h-.473c.036-.17.06-.35.067-.538zM1.7 4.117h.403c.079.247.187.463.317.636a1.758 1.758 0 0 1-.72-.636zm.68 0h.66v.79c-.276-.074-.515-.371-.66-.79zm.93 0h.659c-.145.419-.383.716-.66.79zm.937 0h.403a1.759 1.759 0 0 1-.72.636c.13-.173.238-.39.317-.636z" color="#000" font-weight="400" font-family="Andale Mono" overflow="visible" fill="gray"/></svg>