<svg xmlns="http://www.w3.org/2000/svg" width="24" height="24"><path d="M12 3.87a5.55 5.68 0 0 0-5.55 5.68A5.55 5.68 0 0 0 12 15.23a5.55 5.68 0 0 0 5.55-5.68A5.55 5.68 0 0 0 12 3.87z" fill="green" fill-opacity=".3" stroke-width="5.82"/><path d="M3.51 9.94a8.49 8.68 0 0 0 0 .06 8.49 8.68 0 0 0 7.43 8.6v5.36h2.17V18.6a8.49 8.68 0 0 0 7.38-8.6 8.49 8.68 0 0 0 0-.06h-1.96a6.53 6.68 0 0 1 0 .06A6.53 6.68 0 0 1 12 16.68 6.53 6.68 0 0 1 5.47 10a6.53 6.68 0 0 1 0-.06z" fill="green" stroke-width="5.82"/></svg>