<svg xmlns="http://www.w3.org/2000/svg" height="24" width="24"><path d="M18.23 3a.57.57 0 0 0-.56.57v15.86c0 .32.25.57.56.57h1.14c.31 0 .56-.25.56-.57V3.57a.57.57 0 0 0-.56-.57zm-3.4 3.4a.57.57 0 0 0-.56.57v12.46c0 .32.25.57.56.57h1.14c.31 0 .56-.25.56-.57V6.97a.57.57 0 0 0-.56-.57zm-3.4 3.4a.57.57 0 0 0-.56.57v9.06c0 .32.25.57.56.57h1.14c.31 0 .56-.25.56-.57v-9.06a.57.57 0 0 0-.56-.57zm-3.4 3.4a.57.57 0 0 0-.56.57v5.66c0 .32.25.57.56.57h1.14c.31 0 .56-.25.56-.57v-5.66a.57.57 0 0 0-.56-.57zm-3.4 3.4a.57.57 0 0 0-.56.57v2.26c0 .32.25.57.56.57h1.14c.31 0 .56-.25.56-.57v-2.26a.57.57 0 0 0-.56-.57z" style="marker:none" color="#bebebe" overflow="visible" fill="green" fill-opacity=".3" stroke-width="1.13"/></svg>