<svg xmlns="http://www.w3.org/2000/svg" width="24" height="24"><path d="M19.903 14.03a2.28 2.28 0 0 0-2.279 2.277v.911h-.456l-.91.003v5.466a.91.91 0 0 0 .91.912h5.47a.915.915 0 0 0 .91-.912l.058-5.447-.969-.022h-.456v-.91a2.28 2.28 0 0 0-2.278-2.28zm0 .864c.78 0 1.412.634 1.412 1.413v.911H18.49v-.91c0-.78.634-1.414 1.413-1.414z" fill="#216778"/><g transform="matrix(1.0668 0 0 1.0668 -.9 -.297)" fill="#216778" fill-opacity=".968"><ellipse ry=".916" rx=".939" cy="9.664" cx="6.092"/><ellipse ry=".916" rx=".939" cy="9.641" cx="9.084"/><ellipse ry=".916" rx=".939" cy="9.664" cx="12.092"/><ellipse ry=".916" rx=".939" cy="9.641" cx="15.084"/><ellipse ry=".916" rx=".939" cy="9.664" cx="18.092"/></g></svg>