<svg xmlns="http://www.w3.org/2000/svg" width="24" height="24"><path d="M18.72 4.02l-2.26 2.26a4.8 4.8 0 0 0-2.67-.82 4.8 4.8 0 0 0-3.41 1.43l6.79 6.8a4.8 4.8 0 0 0 1.43-3.43 4.8 4.8 0 0 0-.77-2.58l2.28-2.28-1.39-1.38zm-12 6.45a4.8 4.8 0 0 0-1.39 3.37 4.8 4.8 0 0 0 .82 2.68l-2.44 2.44 1.38 1.39 2.46-2.46a4.8 4.8 0 0 0 2.59.76 4.8 4.8 0 0 0 3.38-1.39l-6.8-6.8z" fill="green" fill-opacity=".3"/><path d="M11.72 4.5C9.26 4.64 7.37 6.54 7.5 9h3c-.04-.84.56-1.45 1.4-1.5a1.48 1.48 0 0 1 1.6 1.41v.05c0 .2-.04.49-.18.65a6.97 6.97 0 0 1-1.04.99 5.73 5.73 0 0 0-1.08 1.03c-.36.46-.7 1.12-.7 1.87 0 .8.71 1.5 1.5 1.5.8 0 1.51-.7 1.5-1.5 0 0-.02.05.05-.05.07-.09.27-.25.56-.46 1.82-1.38 2.4-2.16 2.4-4.27a4.54 4.54 0 0 0-4.79-4.21zm.22 12a1.5 1.5 0 0 0 .06 3 1.5 1.5 0 1 0 0-3 1.5 1.5 0 0 0-.06 0z" fill="green"/></svg>