<svg xmlns="http://www.w3.org/2000/svg" width="24" height="24"><path d="M18.725 4.017l-2.261 2.26a4.805 4.805 0 0 0-2.674-.817 4.805 4.805 0 0 0-3.412 1.429l6.79 6.792a4.805 4.805 0 0 0 1.428-3.417 4.805 4.805 0 0 0-.762-2.587l2.275-2.275zm-8.743 4.17L7.88 10.289l1.025 1.026 2.102-2.103zm1.608 1.608l-2.103 2.102 1.026 1.026 2.102-2.103zm-4.864.672a4.805 4.805 0 0 0-1.393 3.376 4.805 4.805 0 0 0 .818 2.677l-2.44 2.44 1.383 1.385 2.454-2.455a4.805 4.805 0 0 0 2.59.759 4.805 4.805 0 0 0 3.378-1.39zm6.472.936l-2.103 2.102 1.026 1.025 2.102-2.102zm1.607 1.607l-2.102 2.103 1.025 1.025 2.103-2.102z" fill="#216778"/></svg>