<svg xmlns="http://www.w3.org/2000/svg" width="24" height="24"><path d="M12 1.37a10.63 10.63 0 1 0 0 21.26 10.63 10.63 0 0 0 0-21.26zm0 1.89a8.74 8.74 0 0 1 0 17.48 8.74 8.74 0 0 1 0-17.48zm-.78 1.82c-.68.45-1.32 1.43-1.77 2.8h1.77v-2.8zm1.56 0v2.81h1.77c-.45-1.38-1.1-2.36-1.77-2.81zm-4.03.53a7.22 7.22 0 0 0-2.6 2.27h1.68a10.68 10.68 0 0 1 .92-2.27zm6.5 0c.08.14.16.27.23.42.27.56.5 1.18.7 1.85h1.69a7.22 7.22 0 0 0-2.62-2.27zm-3.19 3.02c-.87 0-1.58.7-1.58 1.58v.63h-.95v3.8c0 .34.28.62.63.62h3.79c.35 0 .63-.28.63-.63l.04-3.77-.67-.02h-.32v-.63c0-.87-.7-1.58-1.57-1.58zm0 .6c.54 0 .97.44.97.98v.63h-1.95v-.63c0-.54.44-.98.98-.98zm-6.76.2a7.11 7.11 0 0 0-.43 1.8H7.3c.03-.62.09-1.21.18-1.8H5.3zm11.2 0c.1.58.15 1.18.18 1.8h2.45a7.1 7.1 0 0 0-.43-1.8h-2.2zM4.88 12.79c.07.62.21 1.22.43 1.78H7.5a14.5 14.5 0 0 1-.18-1.78H4.88zm11.8 0c-.02.6-.08 1.2-.17 1.78h2.19a7.1 7.1 0 0 0 .43-1.78H16.7zM6.14 16.12a7.22 7.22 0 0 0 2.62 2.27 10.67 10.67 0 0 1-.92-2.27h-1.7zm3.32 0c.45 1.37 1.1 2.35 1.77 2.8v-2.81H9.45zm3.33 0v2.79c.68-.44 1.32-1.42 1.77-2.8h-1.77zm3.39 0a10.7 10.7 0 0 1-.7 1.85h.01c-.07.15-.15.28-.23.42a7.22 7.22 0 0 0 2.6-2.27h-1.68z" fill="#2ca02c"/></svg>
