<?xml version="1.0" encoding="UTF-8" standalone="no"?>
<svg
   xmlns:dc="http://purl.org/dc/elements/1.1/"
   xmlns:cc="http://creativecommons.org/ns#"
   xmlns:rdf="http://www.w3.org/1999/02/22-rdf-syntax-ns#"
   xmlns:svg="http://www.w3.org/2000/svg"
   xmlns="http://www.w3.org/2000/svg"
   xmlns:sodipodi="http://sodipodi.sourceforge.net/DTD/sodipodi-0.dtd"
   xmlns:inkscape="http://www.inkscape.org/namespaces/inkscape"
   width="48"
   height="48"
   version="1.1"
   id="svg4"
   sodipodi:docname="application-x-krita.svg"
   inkscape:version="0.92.4 (5da689c313, 2019-01-14)">
  <metadata
     id="metadata10">
    <rdf:RDF>
      <cc:Work
         rdf:about="">
        <dc:format>image/svg+xml</dc:format>
        <dc:type
           rdf:resource="http://purl.org/dc/dcmitype/StillImage" />
        <dc:title></dc:title>
      </cc:Work>
    </rdf:RDF>
  </metadata>
  <defs
     id="defs8" />
  <sodipodi:namedview
     pagecolor="#ffffff"
     bordercolor="#666666"
     borderopacity="1"
     objecttolerance="10"
     gridtolerance="10"
     guidetolerance="10"
     inkscape:pageopacity="0"
     inkscape:pageshadow="2"
     inkscape:window-width="1087"
     inkscape:window-height="480"
     id="namedview6"
     showgrid="false"
     inkscape:zoom="4.9166667"
     inkscape:cx="2.1355932"
     inkscape:cy="24"
     inkscape:window-x="0"
     inkscape:window-y="25"
     inkscape:window-maximized="0"
     inkscape:current-layer="svg4" />
  <path
     style="line-height:normal;text-indent:0;text-align:start;text-decoration:none;text-decoration-line:none;text-transform:none;fill:#1e3f5a;marker:none"
     d="m 29.705,-0.084 c -2.047,0.008 -4.121,0.088 -4.517,0.098 H 7 a 2.938,2.938 0 0 0 -0.563,0 C 5.064,0.276 3.975,1.612 4,3.012 V 45 c 0,1.57 1.43,3 3,3 h 34 c 1.57,0 3,-1.43 3,-3 V 18.818 C 44.018,18.026 44.215,8.891 43.664,8.322 l -9.61,-8.074 c -0.283,-0.275 -2.302,-0.34 -4.349,-0.332 z m 1.49,3.094 0.133,7.504 c 0.012,0.68 0.638,1.29 1.317,1.279 l 7.771,-0.137 c 0.133,0.018 0.268,0.017 0.4,-0.006 L 40.898,14.68 41,18.77 V 44.996 H 7 V 3.021 h 18.672 z m -19.597,7.722 c -0.87,0.87 14.7,15.573 14.7,15.573 l 4.31,4.119 c -0.114,3.666 3.288,3.325 4.195,4.988 0.415,0.718 -0.377,1.626 -1.133,1.701 1.512,0.492 3.25,-2.343 2.644,-3.968 A 4.535,4.535 0 0 0 33.367,30.084 C 32.8,29.819 31.817,29.97 31.25,29.781 l -4.043,-4.46 c 0,0 -13.87,-14.475 -15.496,-14.589 z m 6.16,14.514 c -0.378,0 -0.453,0.566 -0.453,1.322 0.075,1.512 1.019,5.859 5.668,9.034 3.968,2.645 11.226,1.7 11.113,0.189 -1.587,-1.965 -4.27,-0.756 -4.309,-5.48 -1.511,0 -3.214,-0.227 -3.138,0.416 0.264,2.72 -4.081,0.755 -5.744,-2.004 -1.663,-2.57 -2.647,-3.477 -3.1,-3.477 z m 6.197,3.363 v 0.037 c -0.264,0 -0.453,0.076 -0.566,0.227 -0.19,0.378 0.114,0.909 0.718,1.211 0.567,0.378 1.21,0.378 1.399,0 0.227,-0.302 -0.113,-0.87 -0.68,-1.211 -0.302,-0.151 -0.87,0 -0.87,-0.264 z"
     id="path2"
     inkscape:connector-curvature="0" />
</svg>
