<?xml version="1.0" encoding="UTF-8" standalone="no"?>
<svg
   xmlns:dc="http://purl.org/dc/elements/1.1/"
   xmlns:cc="http://creativecommons.org/ns#"
   xmlns:rdf="http://www.w3.org/1999/02/22-rdf-syntax-ns#"
   xmlns:svg="http://www.w3.org/2000/svg"
   xmlns="http://www.w3.org/2000/svg"
   xmlns:sodipodi="http://sodipodi.sourceforge.net/DTD/sodipodi-0.dtd"
   xmlns:inkscape="http://www.inkscape.org/namespaces/inkscape"
   width="48"
   height="48"
   version="1.1"
   id="svg37"
   sodipodi:docname="application-x-sln.svg"
   inkscape:version="0.92.4 (5da689c313, 2019-01-14)">
  <metadata
     id="metadata41">
    <rdf:RDF>
      <cc:Work
         rdf:about="">
        <dc:format>image/svg+xml</dc:format>
        <dc:type
           rdf:resource="http://purl.org/dc/dcmitype/StillImage" />
        <dc:title></dc:title>
      </cc:Work>
    </rdf:RDF>
  </metadata>
  <sodipodi:namedview
     pagecolor="#ffffff"
     bordercolor="#666666"
     borderopacity="1"
     objecttolerance="10"
     gridtolerance="10"
     guidetolerance="10"
     inkscape:pageopacity="0"
     inkscape:pageshadow="2"
     inkscape:window-width="1087"
     inkscape:window-height="480"
     id="namedview39"
     showgrid="false"
     inkscape:zoom="4.9166667"
     inkscape:cx="2.1355932"
     inkscape:cy="24"
     inkscape:window-x="0"
     inkscape:window-y="25"
     inkscape:window-maximized="0"
     inkscape:current-layer="svg37" />
  <defs
     id="defs31">
    <linearGradient
       id="a">
      <stop
         offset="0"
         stop-color="#dc85e9"
         id="stop2" />
      <stop
         offset="1"
         stop-color="#f2cbf8"
         id="stop4" />
    </linearGradient>
    <linearGradient
       id="b">
      <stop
         offset="0"
         stop-color="#dc85e9"
         id="stop7" />
      <stop
         offset="1"
         stop-color="#f2cbf8"
         id="stop9" />
    </linearGradient>
    <linearGradient
       id="c">
      <stop
         offset="0"
         stop-color="#fff"
         stop-opacity=".588"
         id="stop12" />
      <stop
         offset="1"
         stop-color="#fff"
         stop-opacity=".863"
         id="stop14" />
    </linearGradient>
    <linearGradient
       id="d">
      <stop
         offset="0"
         stop-color="#b3b3b3"
         id="stop17" />
      <stop
         offset="1"
         stop-color="#e6e6e6"
         id="stop19" />
    </linearGradient>
    <linearGradient
       id="e">
      <stop
         offset="0"
         stop-color="#e694bb"
         id="stop22" />
      <stop
         offset=".262"
         stop-color="#d3819a"
         id="stop24" />
      <stop
         offset=".705"
         stop-color="#b25a64"
         id="stop26" />
      <stop
         offset="1"
         stop-color="#98313d"
         id="stop28" />
    </linearGradient>
  </defs>
  <path
     style="color:#000000;font-weight:400;line-height:normal;font-family:'Andale Mono';text-indent:0;text-align:start;text-decoration:none;text-decoration-line:none;text-transform:none;overflow:visible;fill:#1e3f5a;marker:none"
     d="m 29.705,-0.084 c -2.047,0.008 -4.121,0.088 -4.517,0.098 H 7 a 2.938,2.938 0 0 0 -0.563,0 C 5.063,0.276 3.975,1.612 4,3.012 V 45 c 0,1.57 1.43,3 3,3 h 34 c 1.57,0 3,-1.43 3,-3 V 18.818 C 44.018,18.026 44.215,8.891 43.664,8.322 l -9.61,-8.074 c -0.284,-0.275 -2.302,-0.34 -4.349,-0.332 z m 1.49,3.094 0.133,7.504 c 0.012,0.681 0.638,1.29 1.317,1.279 l 7.771,-0.137 c 0.133,0.018 0.268,0.017 0.4,-0.006 l 0.082,3.03 0.102,4.09 v 4.004 c -0.867,-2.982 -2.135,-5.375 -3.201,-7.927 l -5.309,2.187 c 1.22,2.47 2.817,4.934 3.381,6.156 1.578,3.423 2.155,4.954 2.024,7.563 -0.128,2.522 -1.01,4.044 -2.561,5.531 -1.55,1.487 -3.665,2.257 -6.227,1.906 -5.425,-0.742 -7.17,-4.803 -7.3,-6.78 -0.107,-1.627 1.046,-5.634 5.214,-5.438 2.89,0.136 4.514,1.72 4.71,4.406 0.143,1.98 -1.793,3.979 -4.93,2.969 -0.505,-0.163 -0.54,0.732 0.031,1.187 1.47,1.17 7.32,0.723 7.3,-3.875 -0.017,-4.26 -3.496,-7.137 -6.825,-7.156 -6.974,-0.04 -8.313,5.433 -8.06,9.187 0.278,4.16 5.552,9.189 11.567,9.188 3.736,0 8.217,-2.67 10.186,-7.068 V 44.998 H 7 V 3.021 h 18.672 z"
     font-weight="400"
     overflow="visible"
     id="path33"
     inkscape:connector-curvature="0" />
  <path
     d="m 17.318,14.848 c -3.86,0 -8.508,2.839 -10.367,7.5 v 10.875 c 0.864,3.33 2.23,5.897 3.382,8.656 l 5.31,-2.187 c -1.219,-2.47 -2.818,-4.934 -3.382,-6.156 -1.578,-3.423 -2.154,-4.954 -2.023,-7.563 0.128,-2.522 1.01,-4.076 2.56,-5.562 1.551,-1.487 3.665,-2.226 6.227,-1.875 5.426,0.743 7.172,4.803 7.301,6.78 0.107,1.628 -1.046,5.634 -5.215,5.438 -2.89,-0.136 -4.514,-1.75 -4.71,-4.437 -0.143,-1.98 1.795,-3.948 4.931,-2.938 0.505,0.163 0.54,-0.733 -0.031,-1.187 -1.47,-1.17 -7.29,-0.723 -7.27,3.875 0.019,4.26 3.466,7.106 6.796,7.125 6.973,0.04 8.311,-5.403 8.06,-9.156 -0.28,-4.16 -5.554,-9.189 -11.569,-9.188 z"
     id="path35"
     inkscape:connector-curvature="0"
     style="opacity:0.75;fill:#1e3f5a;fill-rule:evenodd" />
</svg>
