<svg xmlns="http://www.w3.org/2000/svg" width="48" height="48" viewBox="0 0 12.7 12.7"><defs><linearGradient id="a"><stop offset="0" stop-color="#000019"/><stop offset="1" stop-color="#000019" stop-opacity=".29"/></linearGradient><linearGradient id="b"><stop offset="0" stop-color="#1f93b9"/><stop offset="1" stop-color="#1a5c9b"/></linearGradient><linearGradient id="c"><stop offset="0" stop-color="#dc2b41"/><stop offset="1" stop-color="#c61423"/></linearGradient></defs><path d="M6.34.07a6.29 6.29 0 0 0-6.29 6.3 6.29 6.29 0 0 0 6.3 6.28 6.29 6.29 0 0 0 6.28-6.29A6.29 6.29 0 0 0 6.34.07zm-.01.94a5.4 5.4 0 0 1 1.88.34V4.4H4.58V1.3a5.4 5.4 0 0 1 1.75-.29zm-2.02.4V4.4h-3a5.4 5.4 0 0 1 3-3zm.85 0l-.19.19L6.19 2.8 4.97 4.03l.19.19L6.37 3 7.6 4.22l.19-.2-1.22-1.2L7.78 1.6l-.19-.2-1.22 1.23L5.16 1.4zm3.32.05a5.4 5.4 0 0 1 2.86 2.94H8.48V1.46zM1.21 4.68h3.1v3.34H1.17a5.4 5.4 0 0 1-.25-1.6 5.4 5.4 0 0 1 .3-1.74zm3.37 0h3.63v3.34H4.58V4.68zm3.9 0h2.96a5.4 5.4 0 0 1 .3 1.74 5.4 5.4 0 0 1-.25 1.6h-3V4.68zm1.62.21a1.46 1.46 0 0 0-1.45 1.46 1.46 1.46 0 0 0 1.45 1.46 1.46 1.46 0 0 0 1.46-1.46 1.46 1.46 0 0 0-1.46-1.46zm-4.92.05L5 5.13l1.22 1.22-1.22 1.21.2.19 1.2-1.22 1.22 1.22.2-.19-1.23-1.21L7.8 5.13l-.19-.19L6.4 6.16 5.18 4.94zm4.92.22a1.2 1.2 0 0 1 1.2 1.19 1.2 1.2 0 0 1-1.2 1.2 1.2 1.2 0 0 1-1.19-1.2 1.2 1.2 0 0 1 1.2-1.2zM1.26 8.3h3.05v3.13A5.4 5.4 0 0 1 1.26 8.3zm3.32 0h3.63v3.18a5.4 5.4 0 0 1-1.88.34 5.4 5.4 0 0 1-1.75-.3V8.3zm3.9 0h2.9a5.4 5.4 0 0 1-2.9 3.07V8.3zm-2.08.3a1.46 1.46 0 0 0-1.46 1.45 1.46 1.46 0 0 0 1.46 1.46 1.46 1.46 0 0 0 1.45-1.46A1.46 1.46 0 0 0 6.4 8.6zm0 .26a1.2 1.2 0 0 1 1.19 1.2 1.2 1.2 0 0 1-1.2 1.18 1.2 1.2 0 0 1-1.18-1.19A1.2 1.2 0 0 1 6.4 8.86z" fill="#e6e6e6"/></svg>