<svg xmlns="http://www.w3.org/2000/svg" width="48" height="48" viewBox="0 0 12.7 12.7"><path fill="#e6e6e6" d="M6.344.073a6.29 6.29 0 0 0-6.29 6.29 6.29 6.29 0 0 0 6.29 6.288 6.29 6.29 0 0 0 6.29-6.289 6.29 6.29 0 0 0-6.29-6.29zm-.018.936a5.407 5.407 0 0 1 5.389 4.985c-1.042.937-3.9 2.853-6.555 1.714C7.848 6.144 8.35 4.864 8.119 4.01c-.673-2.193-3.557-1.405-4.557.075-.917 1.211-.391 3.104.706 3.756-.557.451-1.662.902-2.494 1.352.028.023 2.148-.78 2.747-1.143 2.902 1.621 5.901.31 7.042-.315a5.407 5.407 0 0 1-5.237 4.088A5.407 5.407 0 0 1 .92 6.416 5.407 5.407 0 0 1 6.326 1.01zM6.13 3.15c.63-.016 1.064.266 1.288.645.728 1.39-1.648 3.241-2.733 3.75-2.169-1.616-.73-4.28 1.445-4.395z"/></svg>