<svg xmlns="http://www.w3.org/2000/svg" width="48" height="48" viewBox="0 0 12.7 12.7"><path fill="#e6e6e6" d="M6.344.073a6.29 6.29 0 0 0-6.29 6.29 6.29 6.29 0 0 0 6.29 6.288 6.29 6.29 0 0 0 6.29-6.289 6.29 6.29 0 0 0-6.29-6.29zm-.018.936a5.407 5.407 0 0 1 5.407 5.407 5.407 5.407 0 0 1-5.02 5.393l.01-2.075h3.528c.212 0 .382-.17.382-.382V3.434a.381.381 0 0 0-.382-.381H2.424a.38.38 0 0 0-.382.381v5.918c0 .212.17.382.382.382H5.89l-.009 2.067A5.407 5.407 0 0 1 .92 6.416 5.407 5.407 0 0 1 6.326 1.01zM2.815 3.521h7.023c.19 0 .342.148.342.331v5.13c0 .183-.153.33-.342.33H6.724l.003-.593c0-.272.055-.46.12-.587a.764.764 0 0 0 .395-.428c.08-.235.032-.546-.11-.8a.066.066 0 0 0-.066-.034c-.028.002-.052.018-.06.042l-.22.641c-.019.058-.088.094-.184.11a.904.904 0 0 1-.35-.027.841.841 0 0 1-.31-.143c-.073-.056-.106-.122-.087-.18l.22-.644a.05.05 0 0 0-.01-.052c-.013-.016-.037-.022-.057-.023v-.001a.06.06 0 0 0-.033.01c-.278.145-.514.385-.594.62-.11.322.053.662.377.858.074.13.138.328.137.63l-.002.602H2.815a.336.336 0 0 1-.343-.331v-5.13c0-.183.153-.331.343-.331zm1.929.844c-.16 0-.289.12-.304.276a.166.166 0 0 1 .155-.107h3.533c.071 0 .13.044.155.107a.306.306 0 0 0-.305-.276H4.744zm-.304.276a.171.171 0 0 0-.013.06v1.17c0 .022.005.043.013.061-.002-.011-.004-.022-.004-.033V4.673c0-.011.002-.021.004-.032zm0 1.291a.306.306 0 0 0 .304.274h3.234c.16 0 .288-.12.305-.274a.166.166 0 0 1-.155.107H4.595a.166.166 0 0 1-.155-.107zm3.843 0a.168.168 0 0 0 .012-.06V4.7c0-.02-.005-.04-.012-.059l.003.03V5.9l-.003.033zm-3.084-.99a.335.335 0 0 0-.345.335.335.335 0 0 0 .67 0 .335.335 0 0 0-.325-.335zm1.172 0a.335.335 0 0 0-.344.335.335.335 0 0 0 .669 0 .335.335 0 0 0-.325-.335zm1.172 0a.335.335 0 0 0-.345.335.335.335 0 0 0 .67 0 .335.335 0 0 0-.325-.335z"/><path d="M49.69 59.135l-2.388-3.03a.311.311 0 0 0-.245-.12h-6.274a.311.311 0 0 0-.244.12l-2.39 3.03a.305.305 0 0 0-.067.193v8.516c0 .172.14.313.312.313h11.05c.171 0 .312-.141.312-.313v-8.516a.289.289 0 0 0-.065-.193zm-.849-.068h-4.608v-2.456h2.673zm-7.906-2.456h2.672v2.456H39zm-2.228 10.92v-7.839H49.13v7.84z"/></svg>