<svg xmlns="http://www.w3.org/2000/svg" width="48" height="48" viewBox="0 0 12.7 12.7"><path d="M6.34.07a6.29 6.29 0 0 0-6.29 6.3 6.29 6.29 0 0 0 6.3 6.28 6.29 6.29 0 0 0 6.28-6.29A6.29 6.29 0 0 0 6.34.07zm-.01.94a5.4 5.4 0 0 1 5.4 5.4 5.4 5.4 0 0 1-5.4 5.41 5.4 5.4 0 0 1-5.41-5.4A5.4 5.4 0 0 1 6.32 1zm0 1.06a4.37 4.37 0 0 0-4.31 3.61h8.6a4.37 4.37 0 0 0-4.3-3.61zM4.19 5.98a.46.45 0 0 0-.46.46.46.45 0 0 0 .46.45.46.45 0 0 0 .47-.45.46.45 0 0 0-.47-.46zm2.13 0a.46.45 0 0 0-.46.46.46.45 0 0 0 .46.45.46.45 0 0 0 .47-.45.46.45 0 0 0-.47-.46zm2.13 0a.46.45 0 0 0-.46.46.46.45 0 0 0 .46.45.46.45 0 0 0 .47-.45.46.45 0 0 0-.47-.46zM2.03 7.2a4.37 4.37 0 0 0 8.6 0h-8.6z" fill="#e6e6e6"/></svg>