<svg xmlns="http://www.w3.org/2000/svg" width="48" height="48" viewBox="0 0 12.7 12.7"><path fill="#e6e6e6" d="M6.344.073a6.29 6.29 0 0 0-6.29 6.29 6.29 6.29 0 0 0 6.29 6.288 6.29 6.29 0 0 0 6.29-6.289 6.29 6.29 0 0 0-6.29-6.29zm-.018.936a5.407 5.407 0 0 1 4.109 1.901H2.212a5.407 5.407 0 0 1 4.114-1.9zM1.608 3.78h1.086c.03 0 .061.007.088.019a.336.336 0 0 1 .157.17.52.52 0 0 1 .04.197v4.392a.52.52 0 0 1-.04.198.481.481 0 0 1-.041.071.319.319 0 0 1-.116.099c-.027.008-.058.018-.088.018H1.55a5.407 5.407 0 0 1-.307-.698V4.592a5.407 5.407 0 0 1 .365-.812zm2.06.002c.011-.002.021 0 .034 0h7.338a5.407 5.407 0 0 1 .693 2.635 5.407 5.407 0 0 1-.63 2.528H3.701a.224.224 0 0 1-.089-.017.327.327 0 0 1-.156-.17.52.52 0 0 1-.041-.197V4.167a.52.52 0 0 1 .04-.197.326.326 0 0 1 .157-.17c.016-.007.038-.016.054-.019zm.598.485a.297.297 0 0 0-.297.298v3.572c0 .165.133.298.297.298h4.168a.297.297 0 0 0 .297-.298V4.564a.297.297 0 0 0-.297-.298H4.266zm-3.025.332v3.64a5.407 5.407 0 0 1-.322-1.822 5.407 5.407 0 0 1 .322-1.818zm3.025.636h4.168c.04 0 .074.033.074.074v2.828a.074.074 0 0 1-.074.074H4.266a.074.074 0 0 1-.074-.074V5.308c0-.04.033-.074.074-.074zM2.103 9.79h8.441a5.407 5.407 0 0 1-4.218 2.032 5.407 5.407 0 0 1-4.223-2.032z"/></svg>