<svg xmlns="http://www.w3.org/2000/svg" width="48" height="48" version="1"><defs><linearGradient id="a"><stop offset="0" stop-color="#040000"/><stop offset="1" stop-opacity="0"/></linearGradient></defs><path d="M24 .23A23.77 23.77 0 0 0 .23 24.01 23.77 23.77 0 0 0 24 47.77 23.77 23.77 0 0 0 47.77 24 23.77 23.77 0 0 0 24 .23zm-.07 3.54a20.44 20.44 0 0 1 20.44 20.44 20.44 20.44 0 0 1-20.44 20.43A20.44 20.44 0 0 1 3.5 24.21 20.44 20.44 0 0 1 23.93 3.77zm0 3A17.44 17.44 0 0 0 6.5 24.22a17.44 17.44 0 0 0 17.43 17.44A17.44 17.44 0 0 0 41.37 24.2 17.44 17.44 0 0 0 23.93 6.77zm-8.68 6.57h.43c1.41 0 2.64.67 3.68 2.02.56.85.84 1.7.84 2.58v3.53a4.71 4.71 0 0 1-2.65 2.44c-.7.26-1.4.39-2.05.39-1.88 0-3.39-.8-4.52-2.4l-.18-.32.04-.04h.7c1.03 1.4 2.26 2.09 3.71 2.09h.5c1.36 0 2.55-.64 3.57-1.9l.1-.19v-.85a4.77 4.77 0 0 1-3.92 2.1h-.07c-1.62 0-2.95-.76-4-2.27a4.52 4.52 0 0 1-.66-2.26v-.43c0-1.4.68-2.63 2.05-3.67a4.38 4.38 0 0 1 2.43-.82zm10.75.1h.42c1.38 0 2.58.66 3.6 1.97.56.82.83 1.69.83 2.6v.07c0 1.77-.85 3.15-2.56 4.12-.65.33-1.33.5-2.05.5h-.06c-1.6 0-2.9-.75-3.92-2.23a4.42 4.42 0 0 1-.66-2.21v-.42c0-1.38.67-2.58 2.01-3.6.8-.54 1.6-.8 2.4-.8zm-10.53.54c-1.67 0-2.92.82-3.75 2.47-.2.48-.31 1-.31 1.6v.1c0 1.56.8 2.77 2.4 3.64.56.24 1.12.35 1.7.35 1.65 0 2.9-.85 3.77-2.54.19-.58.28-1.11.28-1.59 0-1.53-.76-2.74-2.29-3.64a4.37 4.37 0 0 0-1.7-.39h-.1zm10.74.08c-1.64 0-2.86.81-3.67 2.43-.2.46-.31.98-.31 1.56v.1c0 1.53.78 2.72 2.35 3.57.56.23 1.1.35 1.66.35 1.62 0 2.86-.84 3.72-2.5.18-.57.27-1.09.27-1.55 0-1.5-.75-2.7-2.26-3.58a4.31 4.31 0 0 0-1.66-.38h-.1zM10.38 24.5h19.75c.15 0 .28.13.28.29 0 .15-.13.28-.28.28H10.38a.28.28 0 0 1-.29-.28c0-.16.13-.29.29-.29z" fill="#e6e6e6"/></svg>