<svg xmlns="http://www.w3.org/2000/svg" width="48" height="48" viewBox="0 0 12.7 12.7"><path d="M6.34.07a6.29 6.29 0 0 0-6.29 6.3 6.29 6.29 0 0 0 6.3 6.28 6.29 6.29 0 0 0 6.28-6.29A6.29 6.29 0 0 0 6.34.07zm-.01.94a5.4 5.4 0 0 1 5.4 5.4 5.4 5.4 0 0 1-5.4 5.41 5.4 5.4 0 0 1-5.41-5.4A5.4 5.4 0 0 1 6.32 1zM2.29 3.58v5.54h1.16V6.94l1.77 2.18h1.45L4.29 6.2l2.16-2.62H5.1L3.45 5.6V3.58H2.29zm6.75.08c-.36 0-.64.11-.85.32-.2.2-.31.5-.31.85 0 .4.11.72.35.95.23.24.54.36.93.36.38 0 .69-.13.91-.38.22-.25.34-.58.34-1a2.64 2.64 0 0 0-.2-1h-.36a2.3 2.3 0 0 1 .22.97 1 1 0 0 1-.21.68.88.88 0 0 1-.63.27V3.66h-.2zm-.12.44v1.56a.74.74 0 0 1-.52-.25.9.9 0 0 1-.19-.59.7.7 0 0 1 .2-.51.7.7 0 0 1 .51-.2zM7 7.07v.43h3.34v-.43H7zm0 1.55v.44h.5v-.44H7zm.93 0v.44h2.41v-.44h-2.4z" fill="#e6e6e6"/></svg>