<svg xmlns="http://www.w3.org/2000/svg" width="48" height="48" viewBox="0 0 12.7 12.7"><path fill="#e6e6e6" d="M6.344.073a6.29 6.29 0 0 0-6.29 6.29 6.29 6.29 0 0 0 6.29 6.288 6.29 6.29 0 0 0 6.29-6.289 6.29 6.29 0 0 0-6.29-6.29zm-.018.936a5.407 5.407 0 0 1 5.407 5.407 5.407 5.407 0 0 1-5.407 5.407A5.407 5.407 0 0 1 .92 6.416 5.407 5.407 0 0 1 6.326 1.01zM3.244 2.23c-.162 0-.29.693-.29 1.551v4.847h-.98c0 .644.112 1.163.447 1.163h7.81c.336 0 .447-.519.447-1.163h-.94V3.78c0-.858-.128-1.55-.29-1.55h-.327l.085.193h-.388l-.085-.194h-4.78l-.085.194H3.48l.085-.194h-.32zm.145.582h.389l-.037.388h-.388l.036-.388zm5.514 0h.387l.043.388h-.388l-.042-.388zM6.2 3.057a1.763 1.763 0 0 1 1.615 2.325c-.119.349-.338.636-.615.84l.734 1.495a.32.32 0 1 1-.574.281l-.734-1.494a1.747 1.747 0 0 1-1.043-.027 1.763 1.763 0 0 1-1.096-2.232A1.764 1.764 0 0 1 6.2 3.057zm-2.86.53h.388v.387h-.388v-.388zm5.622 0h.388v.387h-.388v-.388zm-2.782.107a1.113 1.113 0 0 0-1.089.757 1.115 1.115 0 0 0 .699 1.421c.589.201 1.22-.109 1.42-.697a1.114 1.114 0 0 0-.697-1.42 1.138 1.138 0 0 0-.333-.06zm-2.84.668h.388v.388h-.388v-.388zm5.622 0h.388v.388h-.388v-.388zm-5.622.775h.388v.388h-.388v-.388zm5.622 0h.388v.388h-.388v-.388zm-5.622.776h.388V6.3h-.388v-.387zm5.622 0h.388V6.3h-.388v-.387zm-5.622.775h.388v.388h-.388v-.388zm5.622 0h.388v.388h-.388v-.388zm-5.622.776h.388v.387h-.388v-.387zm5.622 0h.388v.387h-.388v-.387zm-5.622.775h.388v.388h-.388v-.388zm5.622 0h.388v.388h-.388v-.388zm-6.542.775h.446c-.006.2.019.311.056.389h-.447c-.04-.073-.048-.192-.055-.389zm7.365 0h.446c-.008.197-.015.316-.056.389H9.74v-.03a.853.853 0 0 0 .047-.359z"/></svg>