<svg xmlns="http://www.w3.org/2000/svg" width="48" height="48" viewBox="0 0 12.7 12.7"><path d="M6.34.07a6.29 6.29 0 0 0-6.29 6.3 6.29 6.29 0 0 0 6.3 6.28 6.29 6.29 0 0 0 6.28-6.29A6.29 6.29 0 0 0 6.34.07zm-.01.94a5.4 5.4 0 0 1 5.4 5.4 5.4 5.4 0 0 1-5.4 5.41 5.4 5.4 0 0 1-5.41-5.4A5.4 5.4 0 0 1 6.32 1zm.01 1.18a4.17 4.17 0 0 0-4.03 3.09h-.36c-.25 0-.45.2-.45.45v1.64c0 .25.2.45.45.45h.49a4.17 4.17 0 0 0 3.9 2.71 4.17 4.17 0 0 0 2.34-.71h.66c.14 0 .26-.12.26-.26v-.59a4.17 4.17 0 0 0 .92-2.6 4.17 4.17 0 0 0-.41-1.8V3.54a.28.28 0 0 0-.28-.28h-.71A4.17 4.17 0 0 0 6.34 2.2zm0 .84a3.36 3.36 0 0 1 2.19.82v.7c0 .16.12.29.28.29h.5a3.36 3.36 0 0 1 .38 1.55 3.36 3.36 0 0 1-.62 1.95h-.7a.26.26 0 0 0-.25.26v.64a3.36 3.36 0 0 1-1.79.51A3.36 3.36 0 0 1 3.3 7.82h.3c.24 0 .44-.2.44-.45V5.73c0-.25-.2-.45-.45-.45h-.42a3.36 3.36 0 0 1 3.16-2.25z" fill="#e6e6e6"/></svg>