<svg xmlns="http://www.w3.org/2000/svg" width="48" height="48" viewBox="0 0 12.7 12.7"><path d="M6.34.07a6.29 6.29 0 0 0-6.29 6.3 6.29 6.29 0 0 0 6.3 6.28 6.29 6.29 0 0 0 6.28-6.29A6.29 6.29 0 0 0 6.34.07zM6.32 1l.01.01a5.4 5.4 0 0 1 5.4 5.4 5.4 5.4 0 0 1-5.4 5.41 5.4 5.4 0 0 1-5.41-5.4A5.4 5.4 0 0 1 6.32 1zm-.12.85a.15.15 0 0 0-.15.15v.9c0 .08.07.15.15.15h.3c.08 0 .15-.07.15-.15V2a.15.15 0 0 0-.15-.15h-.3zM3.38 3.02a.15.15 0 0 0-.1.04l-.22.22a.15.15 0 0 0 0 .2l.64.64a.15.15 0 0 0 .21 0l.21-.2a.15.15 0 0 0 0-.22l-.63-.64a.15.15 0 0 0-.1-.04zm5.94 0a.15.15 0 0 0-.1.04l-.64.64a.15.15 0 0 0 0 .21l.2.21a.15.15 0 0 0 .22 0l.64-.63a.15.15 0 0 0 0-.21l-.22-.22a.15.15 0 0 0-.1-.04zM6.35 4.25a2.1 2.1 0 0 0-.01 0 2.1 2.1 0 0 0-.01 0 2.1 2.1 0 0 0-.61.1 2.1 2.1 0 0 0-.2.07 2.1 2.1 0 0 0-.01 0 2.1 2.1 0 0 0-.17.1 2.1 2.1 0 0 0-.05.02 2.1 2.1 0 0 0-.45.35 2.1 2.1 0 0 0-.04.05 2.1 2.1 0 0 0-.1.11 2.1 2.1 0 0 0-.02.03 2.1 2.1 0 0 0-.1.14 2.1 2.1 0 0 0-.02.04 2.1 2.1 0 0 0-.09.15 2.1 2.1 0 0 0 0 .01 2.1 2.1 0 0 0-.08.18 2.1 2.1 0 0 0-.02.06 2.1 2.1 0 0 0-.04.14 2.1 2.1 0 0 0-.02.08 2.1 2.1 0 0 0-.03.12 2.1 2.1 0 0 0 0 .08 2.1 2.1 0 0 0-.02.13 2.1 2.1 0 0 0 0 .14 2.1 2.1 0 0 0 .03.42 2.1 2.1 0 0 0 .6 1.09 2.1 2.1 0 0 0 .33.26 2.1 2.1 0 0 0 .18.1 2.1 2.1 0 0 0 .95.23 2.1 2.1 0 0 0 2.1-2.1 2.1 2.1 0 0 0-2.1-2.1zm0 .53a1.57 1.57 0 0 1 1.57 1.57 1.57 1.57 0 0 1-1.57 1.57 1.57 1.57 0 0 1-.01 0V4.78a1.57 1.57 0 0 1 .01 0zM2 6.05a.15.15 0 0 0-.15.15v.3c0 .08.07.15.15.15h.9c.08 0 .15-.07.15-.15v-.3a.15.15 0 0 0-.15-.15H2zm7.8 0a.15.15 0 0 0-.15.15v.3c0 .08.07.15.15.15h.9c.08 0 .15-.07.15-.15v-.3a.15.15 0 0 0-.15-.15h-.9zm-6 2.48a.15.15 0 0 0-.1.05l-.64.63a.15.15 0 0 0 0 .21l.22.22a.15.15 0 0 0 .2 0L4.13 9a.15.15 0 0 0 0-.21l-.2-.21a.15.15 0 0 0-.11-.05zm5.1 0a.15.15 0 0 0-.11.05l-.21.2a.15.15 0 0 0 0 .22l.63.64a.15.15 0 0 0 .21 0l.22-.22a.15.15 0 0 0 0-.2L9 8.57a.15.15 0 0 0-.1-.05zM6.2 9.65a.15.15 0 0 0-.15.15v.9c0 .08.07.15.15.15h.3c.08 0 .15-.07.15-.15v-.9a.15.15 0 0 0-.15-.15h-.3z" fill="#e6e6e6"/></svg>