<svg xmlns="http://www.w3.org/2000/svg" width="48" height="48" viewBox="0 0 12.7 12.7"><path d="M6.35.06a6.29 6.29 0 0 0-6.29 6.3 6.29 6.29 0 0 0 6.3 6.28 6.29 6.29 0 0 0 6.28-6.29A6.29 6.29 0 0 0 6.35.06zM6.33 1a5.4 5.4 0 0 1 5.4 5.4 5.4 5.4 0 0 1-5.4 5.41 5.4 5.4 0 0 1-5.4-5.4A5.4 5.4 0 0 1 6.33 1zm.78.32l-.98 1.1h.66v6.12h.65v-.68c.31.42.75.63 1.31.63.55 0 .98-.2 1.29-.58.3-.39.46-.93.46-1.62 0-.69-.15-1.22-.45-1.6a1.55 1.55 0 0 0-1.28-.58c-.6 0-1.03.21-1.33.63V2.42h.66l-.99-1.1zM5.26 4.16v.68a1.54 1.54 0 0 0-1.31-.63c-.55 0-.98.2-1.29.58-.3.39-.46.93-.46 1.62 0 .69.15 1.22.45 1.6.31.39.74.58 1.28.58.6 0 1.03-.21 1.33-.63v2.32H4.6l.99 1.1.98-1.1H5.9V4.16h-.65zm3.41.48a1 1 0 0 1 .88.42c.2.28.29.68.29 1.22 0 .53-.1.94-.3 1.23-.2.3-.49.44-.86.44-.44 0-.75-.13-.95-.4a1.63 1.63 0 0 1-.29-.85v-.75c.03-.44.13-.77.3-.97.2-.22.5-.34.93-.34zm-4.65.11c.44 0 .75.13.95.4.15.19.25.47.29.85v.75c-.03.44-.13.77-.3.97-.2.22-.5.34-.93.34a1 1 0 0 1-.88-.42c-.2-.28-.29-.68-.29-1.22 0-.53.1-.94.3-1.23.2-.3.49-.44.86-.44z" fill="#e6e6e6"/></svg>