<svg xmlns="http://www.w3.org/2000/svg" width="48" height="48" version="1"><defs><linearGradient id="a"><stop offset="0" stop-color="#040000"/><stop offset="1" stop-opacity="0"/></linearGradient></defs><path d="M24 .23A23.77 23.77 0 0 0 .23 24.01 23.77 23.77 0 0 0 24 47.77 23.77 23.77 0 0 0 47.77 24 23.77 23.77 0 0 0 24 .23zm-.07 3.54a20.44 20.44 0 0 1 20.44 20.44 20.44 20.44 0 0 1-20.44 20.43A20.44 20.44 0 0 1 3.5 24.21 20.44 20.44 0 0 1 23.93 3.77zm0 3A17.44 17.44 0 0 0 6.5 24.22a17.44 17.44 0 0 0 17.43 17.44A17.44 17.44 0 0 0 41.37 24.2 17.44 17.44 0 0 0 23.93 6.77zm.52 6.59h.6l-.92 3.1h1.58l.92-3.1h.6l-.92 3.1h1.7l-.2.63h-1.68l-.54 1.89h1.81l-.2.64h-1.82l-.9 3.07h-.6l.9-3.07h-1.56l-.93 3.07h-.6l.91-3.07h-1.77l.2-.64h1.76l.56-1.89h-1.92l.19-.63h1.92l.9-3.1zm-8.84.08h.45c1.05 0 2.02.37 2.93 1.1v.04c-.16.28-.29.45-.38.5a4.5 4.5 0 0 0-2.67-.96h-.1c-1.8 0-3.15.9-4.04 2.67a4.1 4.1 0 0 0-.35 1.71v.12c0 1.38.64 2.56 1.9 3.54-.19.3-.33.49-.41.53-1.45-1.13-2.17-2.45-2.17-3.96v-.45c0-1.52.73-2.84 2.2-3.97a4.75 4.75 0 0 1 2.64-.87zm8.34 3.66l-.56 1.89h1.58l.56-1.9h-1.58zm-13.57 7.4h19.75c.15 0 .28.13.28.29 0 .15-.13.28-.28.28H10.38a.28.28 0 0 1-.29-.28c0-.16.13-.29.29-.29z" fill="#e6e6e6"/></svg>