<svg xmlns="http://www.w3.org/2000/svg" width="48" height="48" version="1"><defs><linearGradient id="a"><stop offset="0" stop-color="#040000"/><stop offset="1" stop-opacity="0"/></linearGradient></defs><path d="M24 .23A23.77 23.77 0 0 0 .23 24.01 23.77 23.77 0 0 0 24 47.77 23.77 23.77 0 0 0 47.77 24 23.77 23.77 0 0 0 24 .23zm-.07 3.54a20.44 20.44 0 0 1 20.44 20.44 20.44 20.44 0 0 1-20.44 20.43A20.44 20.44 0 0 1 3.5 24.21 20.44 20.44 0 0 1 23.93 3.77zm0 3A17.44 17.44 0 0 0 6.5 24.22a17.44 17.44 0 0 0 17.43 17.44A17.44 17.44 0 0 0 41.37 24.2 17.44 17.44 0 0 0 23.93 6.77zm.58 6.6h.41c1.5 0 2.77.75 3.84 2.26v-2.2l.07-.07h.5l.06.07v4.61c0 1.8-.86 3.18-2.58 4.16-.65.33-1.34.5-2.06.5h-.08c-1.6 0-2.9-.75-3.94-2.24a4.47 4.47 0 0 1-.67-2.24v-.42c0-1.4.68-2.6 2.03-3.64.8-.53 1.61-.8 2.42-.8zm-8.9.07h.45c1.05 0 2.02.37 2.93 1.1v.04c-.16.28-.29.45-.38.5a4.5 4.5 0 0 0-2.67-.96h-.1c-1.8 0-3.15.9-4.04 2.67a4.1 4.1 0 0 0-.35 1.71v.12c0 1.38.64 2.56 1.9 3.54-.19.3-.33.49-.41.53-1.45-1.13-2.17-2.45-2.17-3.96v-.45c0-1.52.73-2.84 2.2-3.97a4.75 4.75 0 0 1 2.64-.87zm9.1.55c-1.65 0-2.88.82-3.7 2.44-.2.47-.31 1-.31 1.58v.1c0 1.54.79 2.75 2.37 3.6.56.23 1.12.35 1.68.35 1.63 0 2.87-.84 3.73-2.51.19-.58.28-1.1.28-1.58 0-1.51-.75-2.7-2.26-3.6a4.36 4.36 0 0 0-1.68-.38h-.1zM10.38 24.5h19.75c.15 0 .28.13.28.29 0 .15-.13.28-.28.28H10.38a.28.28 0 0 1-.29-.28c0-.16.13-.29.29-.29z" fill="#e6e6e6"/></svg>