<svg xmlns="http://www.w3.org/2000/svg" width="48" height="48" viewBox="0 0 12.7 12.7"><path fill="#e6e6e6" d="M6.344.073a6.29 6.29 0 0 0-6.29 6.29 6.29 6.29 0 0 0 6.29 6.288 6.29 6.29 0 0 0 6.29-6.289 6.29 6.29 0 0 0-6.29-6.29zm-.018.936a5.407 5.407 0 0 1 5.407 5.407 5.407 5.407 0 0 1-5.407 5.407A5.407 5.407 0 0 1 .92 6.416 5.407 5.407 0 0 1 6.326 1.01zM7.65 2.382a1.083 1.083 0 0 0-.68.198C5.957 4.29 5.155 5.814 4.638 7.524c-.274.915-.521 1.862-.761 2.781.391.033.316-.001.618 0 .222-.496.666-.97.974-1.314.766-.797 1.495-1.154 2.425-1.466.014-.938-.054-1.868.326-2.69.155-.342.4-.708.601-1.019 0-.695-.521-1.39-1.173-1.434z"/></svg>