<svg xmlns="http://www.w3.org/2000/svg" width="48" height="48" viewBox="0 0 12.7 12.7"><path fill="#e6e6e6" d="M6.344.073a6.29 6.29 0 0 0-6.29 6.29 6.29 6.29 0 0 0 6.29 6.288 6.29 6.29 0 0 0 6.29-6.289 6.29 6.29 0 0 0-6.29-6.29zm-.018.936a5.407 5.407 0 0 1 5.407 5.407 5.407 5.407 0 0 1-5.407 5.407A5.407 5.407 0 0 1 .92 6.416 5.407 5.407 0 0 1 6.326 1.01zM2.703 3.244c-.144 0-.26.015-.26.034v.747c0 .018.116.034.26.034h7.246c.144 0 .26-.016.26-.034v-.747c0-.019-.116-.034-.26-.034H2.703zm-.244 1.011v5.05c0 .144.115.26.259.26h7.244a.258.258 0 0 0 .258-.26v-5.05H2.46zm4.824.447v.968h2.129v2.514H7.283v.968l-2.708-2.23 2.708-2.22zm-4.341.38h1.104V6.37H2.942V5.082zm0 1.84h1.104v1.287H2.942V6.922z"/></svg>