<svg xmlns="http://www.w3.org/2000/svg" width="48" height="48" viewBox="0 0 12.7 12.7"><path d="M6.34.07a6.29 6.29 0 0 0-6.29 6.3 6.29 6.29 0 0 0 6.3 6.28 6.29 6.29 0 0 0 6.28-6.29A6.29 6.29 0 0 0 6.34.07zm-.01.94a5.4 5.4 0 0 1 5.4 5.4 5.4 5.4 0 0 1-5.4 5.41 5.4 5.4 0 0 1-5.41-5.4A5.4 5.4 0 0 1 6.32 1zM4.45 2.75c-.8 0-1.46.65-1.46 1.44 0 .8.65 1.45 1.46 1.45.8 0 1.46-.65 1.46-1.45 0-.8-.66-1.44-1.46-1.44zm3.8.02c-.8 0-1.46.65-1.46 1.44 0 .8.66 1.45 1.46 1.45.8 0 1.46-.65 1.46-1.45 0-.8-.66-1.44-1.46-1.44zm-.01 4.36c-.8 0-1.46.65-1.46 1.45 0 .8.66 1.44 1.46 1.44.8 0 1.46-.65 1.46-1.44 0-.8-.66-1.45-1.46-1.45z" fill="#e6e6e6"/><path style="font-variant-ligatures:normal;font-variant-position:normal;font-variant-caps:normal;font-variant-numeric:normal;font-variant-alternates:normal;font-feature-settings:normal;text-indent:0;text-decoration-line:none;text-decoration-style:solid;text-decoration-color:#000;text-transform:none;text-orientation:mixed;shape-padding:0;isolation:auto;mix-blend-mode:normal" d="M3.4 7.12c-.2 0-.36.16-.36.35v2.19c0 .19.16.35.36.35h2.2c.2 0 .36-.16.36-.35v-2.2c0-.18-.16-.34-.36-.34z" color="#000" white-space="normal" opacity=".75" fill="green"/></svg>