<svg xmlns="http://www.w3.org/2000/svg" width="48" height="48" viewBox="0 0 12.7 12.7"><path d="M6.34.07a6.29 6.29 0 0 0-6.29 6.3 6.29 6.29 0 0 0 6.3 6.28 6.29 6.29 0 0 0 6.28-6.29A6.29 6.29 0 0 0 6.34.07zM6.32 1l.01.01a5.4 5.4 0 0 1 5.4 5.4 5.4 5.4 0 0 1-5.4 5.41 5.4 5.4 0 0 1-5.41-5.4A5.4 5.4 0 0 1 6.32 1zM3.2 2.65v.42a.37.37 0 0 0-.14.13h-.41v.37h.37v.37h-.37v.37h.37v.37h-.37v.37h.37v.37h-.37v.37h.37v.37h-.37v.38h.37v.37h-.37v.37h.37v.37h-.37v.37h.37v.37h-.37v.37h.37v.37h-.37v.37h.41c.03.05.08.1.14.13v.42h.37v-.37h.37v.37h.37v-.37h.37v.37h.37v-.37h.37v.37h.37v-.37h.37v.37h.38v-.37h.37v.37h.37v-.37h.37v.37h.37v-.37h.37v.37h.37v-.37h.37v.37h.37v-.42c.06-.03.1-.08.14-.13h.41v-.37h-.37v-.37h.37v-.37h-.37v-.37h.37v-.37h-.37v-.37h.37V6.9h-.37v-.37h.37v-.38h-.37V5.8h.37v-.37h-.37v-.37h.37v-.37h-.37v-.37h.37v-.37h-.37v-.37h.37V3.2h-.41a.37.37 0 0 0-.14-.13v-.42h-.37v.37h-.37v-.37h-.37v.37h-.37v-.37h-.37v.37h-.37v-.37H6.9v.37h-.37v-.37h-.38v.37H5.8v-.37h-.37v.37h-.37v-.37h-.37v.37h-.37v-.37h-.37v.37h-.37v-.37H3.2zm.56.74h5.18c.2 0 .37.13.37.3v5.33c0 .16-.16.3-.37.3H3.76c-.2 0-.37-.14-.37-.3V3.68c0-.16.16-.3.37-.3zm2.59.5a.82.82 0 0 0-.82.82v1.95a1.23 1.23 0 1 0 1.64 0V4.71a.82.82 0 0 0-.82-.82z" fill="#e6e6e6"/><path d="M6.15 5.53h.4V7a.62.62 0 0 1 .42.58.62.62 0 0 1-.62.61.62.62 0 0 1-.61-.61.62.62 0 0 1 .4-.58z"/><path d="M6.15 5.53V7a.62.62 0 0 0-.41.58.62.62 0 0 0 .61.61.62.62 0 0 0 .62-.61.62.62 0 0 0-.42-.58V5.53z" opacity=".75" fill="#ff2a2a"/></svg>
