<svg xmlns="http://www.w3.org/2000/svg" width="48" height="48" viewBox="0 0 12.7 12.7"><path fill="#e6e6e6" d="M6.344.073a6.29 6.29 0 0 0-6.29 6.29 6.29 6.29 0 0 0 6.29 6.288 6.29 6.29 0 0 0 6.29-6.289 6.29 6.29 0 0 0-6.29-6.29zm-.018.936a5.407 5.407 0 0 1 5.407 5.407 5.407 5.407 0 0 1-5.407 5.407A5.407 5.407 0 0 1 .92 6.416 5.407 5.407 0 0 1 6.326 1.01zM3.12 2.81v.001c-.212 0-.36.002-.378.004-.038.007-.05.016-.05.041 0 .036 2.256 8.025 2.279 8.069.013.025.088.026 1.323.023l1.31-.003.345-1.153a.55.55 0 0 1-.177-.688.55.55 0 0 1 .175-.894v-.016a.55.55 0 0 1 .412-.532.554.554 0 0 1 .296-.222l.163-.543c1.166-3.888 1.212-4.048 1.184-4.068-.024-.018-.209-.02-1.139-.017-.61.001-1.115.01-1.12.014-.006.005-.33 1.21-.72 2.68-.39 1.467-.712 2.674-.716 2.677-.004.004-.012-.013-.018-.037L5.634 5.47c-.354-1.447-.65-2.64-.656-2.644-.01-.012-1.222-.018-1.858-.017z"/></svg>