<svg xmlns="http://www.w3.org/2000/svg" width="48" height="48" version="1"><defs><linearGradient id="a"><stop offset="0" stop-color="#040000"/><stop offset="1" stop-opacity="0"/></linearGradient></defs><path d="M24 .23A23.77 23.77 0 0 0 .23 24.01 23.77 23.77 0 0 0 24 47.77 23.77 23.77 0 0 0 47.77 24 23.77 23.77 0 0 0 24 .23zm-.07 3.54a20.44 20.44 0 0 1 20.44 20.44 20.44 20.44 0 0 1-20.44 20.43A20.44 20.44 0 0 1 3.5 24.21 20.44 20.44 0 0 1 23.93 3.77zm0 3A17.44 17.44 0 0 0 6.5 24.22a17.44 17.44 0 0 0 17.43 17.44A17.44 17.44 0 0 0 41.37 24.2 17.44 17.44 0 0 0 23.93 6.77zM10.84 13.9l.5.45v.05a4.83 4.83 0 0 0-1.25 3.14v.21c0 1.66.8 3.02 2.4 4.06.75.41 1.55.62 2.4.62h.05c1.83 0 3.25-.91 4.27-2.73a4.8 4.8 0 0 0-.79-5.26v-.09l.5-.45c.99 1.08 1.49 2.28 1.49 3.6v.29c0 1.13-.4 2.24-1.2 3.31a4.88 4.88 0 0 0 3.27 1.33h.04c1.92 0 3.37-.91 4.35-2.73.3-.63.46-1.28.46-1.95v-.2c0-1.12-.42-2.16-1.25-3.15v-.05l.5-.45a5 5 0 0 1 1.49 3.43v.63c0 1.54-.76 2.93-2.28 4.18a5.31 5.31 0 0 1-3.02 1.03h-.42a5.4 5.4 0 0 1-3.64-1.53 5.43 5.43 0 0 1-3.64 1.53h-.42c-1.61 0-3.03-.76-4.26-2.28a5.25 5.25 0 0 1-1.04-2.93v-.63a5 5 0 0 1 1.5-3.43zm23.67 0h.42c.87 0 1.7.3 2.5.88v.72h-.07a3.92 3.92 0 0 0-2.53-.97h-.1c-1.67 0-2.91.84-3.72 2.5-.18.53-.28.93-.28 1.18h8.57l.07.07v.28c0 1.77-.86 3.15-2.57 4.13-.65.32-1.33.48-2.05.48h-.06c-.96 0-1.84-.29-2.64-.86v-.73h.07c.77.65 1.65.97 2.63.97 1.67 0 2.92-.87 3.75-2.6.14-.47.21-.82.21-1.08h-8.53l-.07-.07v-.52c0-1.31.66-2.5 1.98-3.57.85-.53 1.66-.8 2.42-.8zM10.38 24.5h19.75c.15 0 .28.13.28.29 0 .15-.13.28-.28.28H10.38a.28.28 0 0 1-.29-.28c0-.16.13-.29.29-.29z" fill="#e6e6e6"/></svg>