<svg xmlns="http://www.w3.org/2000/svg" xmlns:xlink="http://www.w3.org/1999/xlink" width="48" height="48" viewBox="0 0 12.7 12.7"><defs><linearGradient id="a"><stop offset="0" stop-color="#2c89a0" stop-opacity="0"/><stop offset="1" stop-color="#2c89a0"/></linearGradient><radialGradient xlink:href="#a" id="b" cx="5.72" cy="10.09" fx="5.72" fy="10.09" r="3.14" gradientTransform="matrix(.81413 .03777 -.01825 .46982 1.13 4.06)" gradientUnits="userSpaceOnUse"/></defs><path d="M6.32.05a6.29 6.29 0 0 0-6.3 6.3 6.29 6.29 0 0 0 6.3 6.28 6.29 6.29 0 0 0 6.29-6.3A6.29 6.29 0 0 0 6.3.06zM6.3.98a5.4 5.4 0 0 1 5.4 5.4 5.4 5.4 0 0 1-5.4 5.42A5.4 5.4 0 0 1 .9 6.4 5.4 5.4 0 0 1 6.3.98zm1.97 1.3a.6.6 0 0 0-.15 0c-.32.04-.64.34-.97 1.1-.05.13.04.3.2.2.59-1.07 1.04-1 1.85-.36.16.02.16-.22.11-.25-.34-.32-.69-.65-1.04-.7zm-3.41.6c-.32-.01-.69.22-1.16.9-.08.13-.01.32.16.24.78-.94 1.2-.8 1.89-.01.15.05.2-.19.15-.22-.32-.44-.63-.88-1.04-.9zm3.16 1.95A1.66 3.12 74.44 0 0 6.53 5 1.66 3.12 74.44 0 0 3.9 7.42a1.66 3.12 74.44 0 0 3.38.83 1.66 3.12 74.44 0 0 2.65-2.42 1.66 3.12 74.44 0 0-1.9-1zm-.23.34a1.3 2.65 74.39 0 1 1.67.7A1.3 2.65 74.39 0 1 7.3 7.84a1.3 2.65 74.39 0 1-2.94-.5 1.3 2.65 74.39 0 1 2.16-1.97 1.3 2.65 74.39 0 1 1.27-.2zm1.76 2.44c-.05-.01-.09 0-.12.03-.4.43-.88.7-1.4.83-.1.02-.12.13-.08.2l.01.02c.04.06.13.05.22.03a2.8 2.8 0 0 0 1.4-.82c.06-.07.12-.14.08-.2l-.02-.03a.15.15 0 0 0-.1-.06z" fill="#2c89a0"/><path d="M5.32 8.43l-.4-.51-.21.34c-.46.46-.64.87-.78 1.27-.16.6.21 1.1.68 1.19.48.1 1.12-.21 1-.83a3.34 3.34 0 0 1-.3-1.46zm-.72.82h.06c.1.06.11.27.01.48-.1.2-.27.32-.38.27-.1-.05-.11-.26-.01-.47.08-.16.2-.28.32-.28z" fill="teal" opacity=".75"/><ellipse cx="5.29" cy="8.16" rx="3.04" ry="1.65" transform="matrix(.96842 -.24934 .21931 .97565 0 0)" fill="url(#b)"/></svg>