<?xml version="1.0" encoding="UTF-8" standalone="no"?>
<svg
   xmlns:dc="http://purl.org/dc/elements/1.1/"
   xmlns:cc="http://creativecommons.org/ns#"
   xmlns:rdf="http://www.w3.org/1999/02/22-rdf-syntax-ns#"
   xmlns:svg="http://www.w3.org/2000/svg"
   xmlns="http://www.w3.org/2000/svg"
   xmlns:sodipodi="http://sodipodi.sourceforge.net/DTD/sodipodi-0.dtd"
   xmlns:inkscape="http://www.inkscape.org/namespaces/inkscape"
   width="48"
   height="48"
   viewBox="0 0 12.7 12.7"
   version="1.1"
   id="svg4"
   sodipodi:docname="0trace.svg"
   inkscape:version="0.92.5 (2060ec1f9f, 2020-04-08)">
  <metadata
     id="metadata10">
    <rdf:RDF>
      <cc:Work
         rdf:about="">
        <dc:format>image/svg+xml</dc:format>
        <dc:type
           rdf:resource="http://purl.org/dc/dcmitype/StillImage" />
        <dc:title></dc:title>
      </cc:Work>
    </rdf:RDF>
  </metadata>
  <defs
     id="defs8" />
  <sodipodi:namedview
     pagecolor="#ffffff"
     bordercolor="#666666"
     borderopacity="1"
     objecttolerance="10"
     gridtolerance="10"
     guidetolerance="10"
     inkscape:pageopacity="0"
     inkscape:pageshadow="2"
     inkscape:window-width="1085"
     inkscape:window-height="480"
     id="namedview6"
     showgrid="false"
     inkscape:zoom="4.9166667"
     inkscape:cx="2.1355932"
     inkscape:cy="24"
     inkscape:window-x="0"
     inkscape:window-y="25"
     inkscape:window-maximized="0"
     inkscape:current-layer="svg4" />
  <path
     d="M 6.34,0.075 A 6.295,6.295 0 0 0 0.055,6.36 6.295,6.295 0 0 0 6.34,12.655 6.295,6.295 0 0 0 12.634,6.36 6.295,6.295 0 0 0 6.34,0.075 Z m -0.011,0.94 a 5.408,5.408 0 0 1 5.397,5.387 5.407,5.407 0 0 1 -10.814,0 c 0,-2.987 2.43,-5.387 5.417,-5.387 z M 4.465,3.302 c -1.426,0 -2.348,1.204 -2.348,3.082 0,1.836 0.897,3.014 2.297,3.014 1.417,0 2.34,-1.195 2.34,-3.082 0,-1.835 -0.906,-3.014 -2.289,-3.014 z m -0.043,0.94 c 0.41,0 0.74,0.266 0.951,0.734 L 3.301,7.049 A 4.523,4.523 0 0 1 3.244,6.316 c 0,-1.272 0.461,-2.075 1.178,-2.075 z M 8.543,4.632 8.447,5.214 H 7.999 L 7.931,5.627 H 8.378 L 8.268,6.31 H 7.818 L 7.748,6.723 H 8.201 L 8.103,7.309 H 8.531 L 8.629,6.723 H 9.266 L 9.168,7.309 H 9.596 L 9.693,6.723 h 0.44 L 10.202,6.31 h -0.44 l 0.11,-0.683 h 0.443 L 10.384,5.214 H 9.94 L 10.037,4.631 H 9.608 L 9.512,5.214 H 8.875 L 8.972,4.631 H 8.543 Z M 8.807,5.627 H 9.443 L 9.333,6.31 H 8.697 Z M 5.592,5.821 c 0.021,0.177 0.034,0.364 0.034,0.564 0,1.272 -0.46,2.073 -1.17,2.073 -0.379,0 -0.687,-0.216 -0.898,-0.603 L 5.592,5.82 Z M 7.36,7.983 c -0.124,0 -0.223,0.1 -0.223,0.224 V 8.476 C 7.137,8.6 7.237,8.7 7.36,8.7 h 3 c 0.123,0 0.223,-0.1 0.223,-0.224 V 8.207 c 0,-0.124 -0.1,-0.224 -0.224,-0.224 z"
     id="path2"
     inkscape:connector-curvature="0"
     style="fill:#5beedc" />
</svg>
