<?xml version="1.0" encoding="UTF-8" standalone="no"?><svg xmlns:dc="http://purl.org/dc/elements/1.1/" xmlns:cc="http://creativecommons.org/ns#" xmlns:rdf="http://www.w3.org/1999/02/22-rdf-syntax-ns#" xmlns="http://www.w3.org/2000/svg" width="48" height="48" viewBox="0 0 12.7 12.7"><metadata><rdf:RDF><cc:Work><dc:format>image/svg+xml</dc:format><dc:type rdf:resource="http://purl.org/dc/dcmitype/StillImage"/><dc:title/></cc:Work></rdf:RDF></metadata><path d="M6.34.07a6.29 6.29 0 0 0-6.29 6.3 6.29 6.29 0 0 0 6.3 6.28 6.29 6.29 0 0 0 6.28-6.29A6.29 6.29 0 0 0 6.34.07zm-.01.94a5.4 5.4 0 0 1 5.4 5.4 5.4 5.4 0 0 1-5.4 5.41 5.4 5.4 0 0 1-5.41-5.4A5.4 5.4 0 0 1 6.32 1zm.02.32a5.03 5.03 0 0 0-4.37 7.5c.54-.3.76-.81.64-.83-.07-.3-.6-.76-.74-1.5.22-.07.81-.06.92-.11.13-.07.53-.55.65-.56.12-.01.38-.07.58-.16.2-.1.99-.91 1.16-1.01.17-.1.68-.1.85-.08.16.01.31-.06.42-.2.11-.15 1.29-.99 1.43-1.06.15-.08.55-.55.76-.55.06 0 .17.21.33.42s.13.4.04.56c-.38.34-.59 1-.7 1.54.4-.19.92.06 1.32-.27.09.04.08.4.08.51 0 .12-.08.23-.39.34-.33.12-1.11.62-1.44 1.11-.32.5-.4 2.37-.43 2.6l-.04.67c-.04.28.3.64.45.89a5.03 5.03 0 0 0-1.52-9.81zm-.29 3.76a.7.7 0 0 0-.36.1c-.29.28-.48.56-.7 1 .48-.25 1.62-.5 1.23-1.08a1.24 1.24 0 0 0-.17-.02z" fill="#5beedc"/></svg>
