<svg xmlns="http://www.w3.org/2000/svg" width="48" height="48" viewBox="0 0 12.7 12.7"><path fill="#5beedc" d="M6.344.077A6.267 6.267 0 0 0 .076 6.344a6.267 6.267 0 0 0 6.268 6.267 6.267 6.267 0 0 0 6.267-6.267A6.267 6.267 0 0 0 6.344.077zm-.018.932a5.388 5.388 0 0 1 5.388 5.39 5.388 5.388 0 0 1-5.388 5.387A5.388 5.388 0 0 1 .937 6.398a5.388 5.388 0 0 1 5.39-5.389zm1.796 2.45v.002c-.538-.01-1.103.198-1.626.737a.216.223 0 0 1-.29.012c-.536-.475-1.062-.696-1.544-.738a2.04 2.04 0 0 0-.47.012c-.998.153-1.752 1.09-1.761 2.215-.008.903.222 1.45.862 2.146.616.671 1.644 1.475 3.113 2.717C7.81 9.226 8.823 8.331 9.452 7.628c.652-.729.91-1.242.916-1.985.007-.766-.551-1.57-1.32-1.947a2.203 2.203 0 0 0-.926-.236z"/></svg>
