<svg xmlns="http://www.w3.org/2000/svg" width="48" height="48" viewBox="0 0 12.7 12.7"><path fill="#5beedc" d="M6.344.073a6.29 6.29 0 0 0-6.29 6.29 6.29 6.29 0 0 0 6.29 6.288 6.29 6.29 0 0 0 6.29-6.289 6.29 6.29 0 0 0-6.29-6.29zm-.018.936a5.407 5.407 0 0 1 5.407 5.407 5.407 5.407 0 0 1-5.407 5.407A5.407 5.407 0 0 1 .92 6.416 5.407 5.407 0 0 1 6.326 1.01zm-.379.6A4.735 4.735 0 0 0 1.62 6.328a4.736 4.736 0 0 0 4.733 4.74 4.733 4.733 0 0 0 4.652-3.884c-.01.035-.02.071-.03.092l-5.052-.948.024-4.719zm.778.275c-.083 0-.167 0-.254.005L6.452 5.6l3.818-1.254c-.062-.33-.98-2.45-3.545-2.461zm3.647 2.748l-3.88 1.301 4.02.754c.088-.189.221-1.131-.14-2.055z"/></svg>
