<svg xmlns="http://www.w3.org/2000/svg" width="48" height="48" version="1"><path d="M24 .23A23.77 23.77 0 0 0 .23 24.01 23.77 23.77 0 0 0 24 47.77 23.77 23.77 0 0 0 47.77 24 23.77 23.77 0 0 0 24 .23zm-.07 3.54a20.44 20.44 0 0 1 20.44 20.44 20.44 20.44 0 0 1-20.44 20.43A20.44 20.44 0 0 1 3.5 24.21 20.44 20.44 0 0 1 23.93 3.77zM24 6.34a4.31 4.31 0 1 0 0 8.63 4.31 4.31 0 0 0 0-8.63zm-3.04 8.87a.77.77 0 0 0-.76.77v.48c0 .42.34.76.76.76h6.08c.42 0 .76-.34.76-.76v-.48a.77.77 0 0 0-.76-.77h-6.08zm-1.18 2.29c-.37 0-.68.3-.68.67v.66c0 .37.3.68.68.68h8.44c.37 0 .68-.3.68-.68v-.66c0-.37-.3-.67-.68-.67h-8.44zm1.76 2.45s1.16 6.41-4.63 12.3c-.23.24-.36.51-.36.79v1.17h14.9v-1.17c0-.28-.13-.55-.36-.78-5.8-5.9-4.63-12.3-4.63-12.3h-4.92zm-6.4 14.62a.5.5 0 0 0-.5.5v1.09c0 .28.23.5.5.5h17.71a.5.5 0 0 0 .5-.5v-1.09a.5.5 0 0 0-.5-.5h-17.7zm-1.8 2.63c-.38 0-.68.3-.68.67v.75c0 .37.3.67.67.67h21.34c.37 0 .67-.3.67-.67v-.75c0-.37-.3-.67-.67-.67H13.33z" fill="#5beedc"/></svg>
