<svg xmlns="http://www.w3.org/2000/svg" width="48" height="48" viewBox="0 0 12.7 12.7"><path d="M6.34.07a6.29 6.29 0 0 0-6.29 6.3 6.29 6.29 0 0 0 6.3 6.28 6.29 6.29 0 0 0 6.28-6.29A6.29 6.29 0 0 0 6.34.07zm-.01.94a5.4 5.4 0 0 1 4.1 1.9H2.22a5.4 5.4 0 0 1 4.12-1.9zM1.6 3.78h1.08c.03 0 .06 0 .1.02a.34.34 0 0 1 .15.17.52.52 0 0 1 .04.2v4.39a.52.52 0 0 1-.04.2.48.48 0 0 1-.04.07.32.32 0 0 1-.12.1l-.09.01H1.55a5.4 5.4 0 0 1-.3-.7V4.6a5.4 5.4 0 0 1 .36-.81zm2.06 0h7.37a5.4 5.4 0 0 1 .7 2.64 5.4 5.4 0 0 1-.64 2.53H3.7a.22.22 0 0 1-.09-.02.33.33 0 0 1-.15-.17.52.52 0 0 1-.05-.2v-4.4a.52.52 0 0 1 .05-.19.33.33 0 0 1 .15-.17l.06-.02zm-2.43.82v3.64a5.4 5.4 0 0 1-.32-1.82 5.4 5.4 0 0 1 .32-1.82zm.86 5.19h8.44a5.4 5.4 0 0 1-4.21 2.03A5.4 5.4 0 0 1 2.1 9.8z" fill="#5beedc"/></svg>
