<svg xmlns="http://www.w3.org/2000/svg" width="48" height="48" viewBox="0 0 12.7 12.7"><g transform="translate(0 -284.3)"><path fill="#5beedc" d="M6.344 284.373a6.29 6.29 0 0 0-6.29 6.29 6.29 6.29 0 0 0 6.29 6.288 6.29 6.29 0 0 0 6.29-6.289 6.29 6.29 0 0 0-6.29-6.29zm-.018.936a5.407 5.407 0 0 1 5.407 5.407 5.407 5.407 0 0 1-5.407 5.407 5.407 5.407 0 0 1-5.407-5.407 5.407 5.407 0 0 1 5.407-5.407z"/><path fill="#cd7223" d="M7.169 286.05l-1.136 3.21 4.47-.747a4.76 4.76 0 0 0-3.335-2.463" opacity=".75"/><path fill="#ffa92d" d="M10.798 289.213l-3.367.629 2.887 3.473c.77-1.202.97-2.716.48-4.102" opacity=".75"/><path fill="#2b4d37" d="M9.884 293.842l-2.232-2.583-1.584 4.22a4.777 4.777 0 0 0 3.816-1.637" opacity=".75"/><path fill="#375a7d" d="M5.406 295.396l1.136-3.21-4.47.747a4.76 4.76 0 0 0 3.335 2.463" opacity=".75"/><path fill="#68377d" d="M1.807 292.228l3.366-.628-2.887-3.473a4.702 4.702 0 0 0-.48 4.101" opacity=".75"/><circle cx="6.302" cy="290.722" r=".714" fill="#5beedc"/><path fill="#bf4231" d="M2.71 287.602l2.232 2.582 1.584-4.22a4.777 4.777 0 0 0-3.816 1.638" opacity=".75"/></g></svg>
