<svg xmlns="http://www.w3.org/2000/svg" width="48" height="48" viewBox="0 0 12.7 12.7"><path d="M6.34.07a6.29 6.29 0 0 0-6.29 6.3 6.29 6.29 0 0 0 6.3 6.28 6.29 6.29 0 0 0 6.28-6.29A6.29 6.29 0 0 0 6.34.07zM6.32 1l.01.01a5.4 5.4 0 0 1 5.4 5.4 5.4 5.4 0 0 1-5.4 5.41 5.4 5.4 0 0 1-5.41-5.4A5.4 5.4 0 0 1 6.32 1zm-.24.64a.36.36 0 0 0-.36.36.36.36 0 0 0 .36.36.36.36 0 0 0 .36-.36.36.36 0 0 0-.36-.36zm.9.68a.41.41 0 0 0-.41.41.41.41 0 0 0 .41.42.41.41 0 0 0 .41-.42.41.41 0 0 0-.41-.41zm-.72.72a.45.45 0 0 0-.45.45.45.45 0 0 0 .45.45.45.45 0 0 0 .45-.45.45.45 0 0 0-.45-.45zm.86.88a.5.5 0 0 0 0 1 .5.5 0 0 0 0-1zm-1.45.32a.54.54 0 0 0 0 1.08.54.54 0 0 0 0-1.08zM4.5 5.67a.46.46 0 0 0-.33.14c-.47.6-.85 1.28-.85 2.1 0 1.78 1.35 3.25 3.03 3.25 1.68 0 3.03-1.47 3.03-3.25 0-.82-.38-1.48-.87-2.1-.19-.2-.45-.17-.65-.04-.56.29-.87.4-1.51.4-.62 0-.95-.1-1.51-.4a.64.64 0 0 0-.34-.1zm.07.64a3.46 3.46 0 0 0 3.56 0c.32.45.62 1.01.62 1.6 0 1.46-1.07 2.63-2.4 2.63-1.33 0-2.4-1.17-2.4-2.63 0-.59.3-1.15.62-1.6z" fill="#5beedc"/></svg>
