<svg xmlns="http://www.w3.org/2000/svg" width="48" height="48" version="1"><defs><linearGradient id="a"><stop offset="0" stop-color="#040000"/><stop offset="1" stop-opacity="0"/></linearGradient></defs><path d="M24 .23A23.77 23.77 0 0 0 .23 24.01 23.77 23.77 0 0 0 24 47.77 23.77 23.77 0 0 0 47.77 24 23.77 23.77 0 0 0 24 .23zm-.07 3.54a20.44 20.44 0 0 1 20.44 20.44 20.44 20.44 0 0 1-20.44 20.43A20.44 20.44 0 0 1 3.5 24.21 20.44 20.44 0 0 1 23.93 3.77zm0 3A17.44 17.44 0 0 0 6.5 24.22a17.44 17.44 0 0 0 17.43 17.44A17.44 17.44 0 0 0 41.37 24.2 17.44 17.44 0 0 0 23.93 6.77zm1.79 6.56h.42c1.15 0 2.2.47 3.12 1.4-.25.21-.43.32-.56.32a3.87 3.87 0 0 0-2.67-1.09h-.1c-1.66 0-2.9.82-3.72 2.45-.21.47-.32 1-.32 1.58v.1c0 1.55.8 2.75 2.39 3.62a4.06 4.06 0 0 0 4.42-.73h.1l.46.24v.07a4.45 4.45 0 0 1-3.3 1.4h-.07c-1.6 0-2.92-.75-3.96-2.24a4.48 4.48 0 0 1-.67-2.24v-.43c0-1.4.68-2.61 2.03-3.64.82-.54 1.62-.81 2.43-.81zm-10.51.03h.41c1.5 0 2.77.76 3.85 2.27v-2.2l.07-.07h.49l.07.07v4.61c0 1.8-.86 3.18-2.59 4.16-.65.33-1.34.5-2.06.5h-.07c-1.6 0-2.92-.75-3.95-2.24a4.47 4.47 0 0 1-.66-2.24v-.42c0-1.4.67-2.6 2.02-3.64.81-.53 1.62-.8 2.42-.8zm.2.63c-1.64 0-2.88.82-3.7 2.44-.2.47-.31 1-.31 1.58v.1c0 1.54.8 2.75 2.38 3.6.55.23 1.1.35 1.67.35 1.63 0 2.88-.84 3.74-2.51.18-.58.28-1.1.28-1.58 0-1.51-.76-2.7-2.27-3.6a4.36 4.36 0 0 0-1.68-.38h-.1zM10.39 24.5h19.75c.15 0 .28.13.28.29 0 .15-.13.28-.28.28H10.38a.28.28 0 0 1-.29-.28c0-.16.13-.29.29-.29z" fill="#5beedc"/></svg>
