<svg xmlns="http://www.w3.org/2000/svg" width="48" height="48" viewBox="0 0 12.7 12.7"><path fill="#5beedc" d="M6.344.073a6.29 6.29 0 0 0-6.29 6.29 6.29 6.29 0 0 0 6.29 6.288 6.29 6.29 0 0 0 6.29-6.289 6.29 6.29 0 0 0-6.29-6.29zm-.018.936a5.407 5.407 0 0 1 5.407 5.407 5.407 5.407 0 0 1-5.407 5.407A5.407 5.407 0 0 1 .92 6.416 5.407 5.407 0 0 1 6.326 1.01zm1.787 1.558a.483.483 0 0 0-.12.016l-2.861.84L1.82 7.513a.501.501 0 0 0 .094.723l1.27.95 1.272.948 1.27.95a.551.551 0 0 0 .754-.091l2.966-3.66.333-.412.034-.623.123-2.258a.507.507 0 0 0-.207-.414l-1.272-.95a.55.55 0 0 0-.344-.108zm-.191 1.155a.836.836 0 0 1 .521.175.836.836 0 0 1 .147 1.173.836.836 0 0 1-1.172.146.836.836 0 0 1-.148-1.172.836.836 0 0 1 .652-.322zM6.27 5.043c.01 0 .023 0 .038.005.027 0 .05.014.072.027-.033.432.146.893.38 1.266.334.464.36 1.112.11 1.621-.006-.005.073-.243.075-.345.065-.504-.227-.972-.592-1.29-.043-.07-.163-.088-.196 0-.169.835-.33 1.67-.497 2.505-.028.457-.477.84-.93.777-.333-.031-.624-.397-.491-.728.152-.444.699-.65 1.128-.526.066.033.178.074.216-.02.208-1.032.408-2.066.614-3.098.026-.061.001-.187.073-.194z"/></svg>
