<svg xmlns="http://www.w3.org/2000/svg" width="48" height="48" viewBox="0 0 12.7 12.7"><path fill="#5beedc" d="M6.344.073a6.29 6.29 0 0 0-6.29 6.29 6.29 6.29 0 0 0 6.29 6.288 6.29 6.29 0 0 0 6.29-6.289 6.29 6.29 0 0 0-6.29-6.29zm-.018.936a5.407 5.407 0 0 1 5.407 5.407 5.407 5.407 0 0 1-5.407 5.407A5.407 5.407 0 0 1 .92 6.416 5.407 5.407 0 0 1 6.326 1.01zM4.214 2.353a.504.504 0 0 0-.505.505v.807h1.01v-.807a.504.504 0 0 0-.505-.505zm4.267 0a.504.504 0 0 0-.505.505v.807h1.01v-.807a.504.504 0 0 0-.505-.505zm-6.16 1.54v1.38h.01V8.83c0 .417.16.774.482 1.07.322.297.71.446 1.164.446h4.755c.454 0 .841-.149 1.164-.445.322-.297.482-.654.482-1.071V4.694h-.005v-.8H2.322zm.74 1.38h6.586V8.83a.78.78 0 0 1-.269.595.92.92 0 0 1-.646.247H3.977a.92.92 0 0 1-.646-.247.78.78 0 0 1-.27-.595V5.273zm2.058.737c-.108 0-.227.015-.357.046-.13.03-.269.076-.418.136v.375c.147-.082.284-.144.413-.184.13-.04.253-.06.369-.06.164 0 .297.045.398.137a.456.456 0 0 1 .154.357c0 .089-.023.18-.071.273-.047.092-.13.204-.248.337-.063.071-.216.23-.459.476-.242.245-.433.44-.574.585V8.8h1.74v-.312H4.771c.298-.305.53-.54.693-.71.164-.17.262-.273.292-.309.112-.137.188-.255.23-.356a.817.817 0 0 0 .064-.32.705.705 0 0 0-.253-.57c-.17-.142-.396-.213-.68-.213zm2.393.05l-.655.132v.337l.659-.131v2.09H6.91V8.8h1.578v-.312h-.605V6.06h-.371z"/></svg>
