<?xml version="1.0" encoding="UTF-8" standalone="no"?>
<svg
   xmlns:dc="http://purl.org/dc/elements/1.1/"
   xmlns:cc="http://creativecommons.org/ns#"
   xmlns:rdf="http://www.w3.org/1999/02/22-rdf-syntax-ns#"
   xmlns:svg="http://www.w3.org/2000/svg"
   xmlns="http://www.w3.org/2000/svg"
   xmlns:sodipodi="http://sodipodi.sourceforge.net/DTD/sodipodi-0.dtd"
   xmlns:inkscape="http://www.inkscape.org/namespaces/inkscape"
   width="48"
   height="48"
   viewBox="0 0 12.7 12.7"
   version="1.1"
   id="svg4"
   sodipodi:docname="gbrainy.svg"
   inkscape:version="0.92.4 (5da689c313, 2019-01-14)">
  <metadata
     id="metadata10">
    <rdf:RDF>
      <cc:Work
         rdf:about="">
        <dc:format>image/svg+xml</dc:format>
        <dc:type
           rdf:resource="http://purl.org/dc/dcmitype/StillImage" />
        <dc:title></dc:title>
      </cc:Work>
    </rdf:RDF>
  </metadata>
  <defs
     id="defs8" />
  <sodipodi:namedview
     pagecolor="#ffffff"
     bordercolor="#666666"
     borderopacity="1"
     objecttolerance="10"
     gridtolerance="10"
     guidetolerance="10"
     inkscape:pageopacity="0"
     inkscape:pageshadow="2"
     inkscape:window-width="1112"
     inkscape:window-height="480"
     id="namedview6"
     showgrid="false"
     inkscape:zoom="4.9166667"
     inkscape:cx="2.1355932"
     inkscape:cy="24"
     inkscape:window-x="0"
     inkscape:window-y="25"
     inkscape:window-maximized="0"
     inkscape:current-layer="svg4" />
  <path
     d="m 6.34,0.07 a 6.29,6.29 0 0 0 0,12.58 6.29,6.29 0 0 0 0,-12.58 z M 6.32,1 A 5.417,5.417 0 0 1 11.73,6.41 5.4,5.4 0 0 1 6.33,11.82 5.4,5.4 0 0 1 0.92,6.42 5.4,5.4 0 0 1 6.32,1 Z M 5.968,2.306 C 5.724,2.303 5.458,2.326 5.153,2.398 A 2.468,2.468 0 0 0 4.587,2.618 C 3.859,2.618 3.577,2.936 3.472,3.142 3.221,3.119 3.009,3.171 2.842,3.297 A 0.876,0.876 0 0 0 2.534,3.79 1.086,1.086 0 0 0 1.946,4.324 C 1.78,4.672 1.843,5.045 1.887,5.214 1.777,5.392 1.741,5.564 1.778,5.724 a 0.56,0.56 0 0 0 0.175,0.292 0.918,0.918 0 0 0 0.223,0.649 c 0.388,0.45 1.16,0.514 1.312,0.522 0.04,0.502 0.421,0.997 1.263,1.121 l 0.007,10e-4 c 0.008,0 0.101,0.01 0.259,0.01 0.143,0 0.338,-0.008 0.571,-0.036 0.496,0.469 0.65,1.105 0.764,1.575 0.041,0.17 0.077,0.319 0.123,0.432 A 0.18,0.18 0 0 0 6.671,10.4 L 7.485,10.264 A 0.18,0.18 0 0 0 7.628,10.037 1.886,1.886 0 0 1 7.556,9.55 C 7.609,9.567 7.663,9.583 7.716,9.596 8.148,9.705 8.588,9.682 8.954,9.53 9.339,9.371 9.599,9.09 9.687,8.742 9.699,8.693 9.707,8.644 9.713,8.594 c 0.307,-0.042 0.676,-0.225 0.96,-0.77 0,-0.004 0.002,-0.007 0.004,-0.01 C 10.685,7.796 10.867,7.38 10.921,6.872 10.987,6.245 10.827,5.752 10.456,5.43 A 0.809,0.809 0 0 0 10.194,4.545 C 10.154,4.225 9.853,4.021 9.606,3.922 A 1.066,1.066 0 0 0 9.266,3.194 C 8.936,2.894 8.463,2.854 8.232,2.854 H 8.225 C 8,2.47 7.485,2.452 7.185,2.508 A 4.084,4.084 0 0 0 6.656,2.366 5.528,5.528 0 0 0 5.968,2.306 Z M 5.935,2.648 C 6.159,2.641 6.377,2.662 6.587,2.718 6.76,2.753 6.937,2.802 7.112,2.864 A 0.18,0.18 0 0 0 7.214,2.87 C 7.219,2.868 7.813,2.733 7.944,3.1 A 0.18,0.18 0 0 0 8.13,3.218 c 0.006,0 0.572,-0.05 0.895,0.244 A 0.68,0.68 0 0 1 9.237,3.866 C 8.994,3.878 8.616,3.963 8.419,4.353 A 0.18,0.18 0 0 0 8.74,4.515 C 8.906,4.187 9.318,4.22 9.393,4.229 9.459,4.251 9.853,4.391 9.838,4.632 a 0.18,0.18 0 0 0 0.096,0.172 c 0.001,0 0.065,0.036 0.12,0.111 0.073,0.1 0.097,0.221 0.071,0.362 L 10.114,5.293 C 9.834,5.323 9.414,5.5 9.357,6.019 A 0.18005902,0.18005902 0 0 0 9.715,6.058 C 9.751,5.729 10.034,5.664 10.155,5.651 10.943,6.229 10.387,7.577 10.35,7.664 10.155,8.037 9.91,8.227 9.604,8.244 9.472,8.134 9.128,7.89 8.526,7.746 A 0.18,0.18 0 0 0 8.442,8.096 C 8.956,8.219 9.25,8.421 9.358,8.509 9.358,8.558 9.35,8.607 9.338,8.654 9.211,9.162 8.522,9.429 7.805,9.248 A 1.845,1.845 0 0 1 7.463,9.126 0.18,0.18 0 0 0 7.207,9.272 c -0.02,0.233 -0.01,0.457 0.03,0.669 L 6.764,10.02 A 6.935,6.935 0 0 1 6.701,9.774 C 6.596,9.337 6.444,8.706 5.995,8.189 6.369,8.098 6.727,8.039 7.065,8.01 A 0.18,0.18 0 1 0 7.036,7.652 7.637,7.637 0 0 0 5.612,7.917 3.971,3.971 0 0 1 4.798,7.951 C 4.018,7.834 3.801,7.363 3.852,6.995 A 0.18,0.18 0 0 0 3.631,6.796 L 3.501,6.827 C 3.273,6.817 2.705,6.728 2.449,6.431 A 0.585,0.585 0 0 1 2.319,5.953 0.18,0.18 0 0 0 2.225,5.772 C 2.224,5.772 2.147,5.725 2.129,5.644 2.106,5.547 2.171,5.431 2.229,5.351 A 0.18,0.18 0 0 0 2.253,5.183 C 2.252,5.179 2.119,4.797 2.27,4.479 2.354,4.303 2.516,4.172 2.75,4.092 A 0.178,0.178 0 0 0 2.871,3.937 C 2.872,3.935 2.895,3.707 3.061,3.583 3.176,3.497 3.341,3.475 3.553,3.518 A 0.18,0.18 0 0 0 3.766,3.37 c 0,-0.004 0.08,-0.379 0.783,-0.392 0.106,0.145 0.34,0.528 0.166,0.87 A 0.18,0.18 0 0 0 5.035,4.011 0.927,0.927 0 0 0 5.137,3.633 C 5.234,3.592 5.385,3.547 5.506,3.583 5.584,3.606 5.644,3.663 5.69,3.757 A 0.18023596,0.18023596 0 1 0 6.014,3.599 0.66,0.66 0 0 0 5.608,3.238 0.869,0.869 0 0 0 5.09,3.265 C 5.043,3.105 4.97,2.965 4.905,2.863 4.989,2.826 5.103,2.783 5.245,2.746 5.48,2.691 5.711,2.656 5.935,2.648 Z M 6.827,3.163 A 0.958,0.958 0 0 0 6.601,3.191 0.18,0.18 0 0 0 6.697,3.537 0.568,0.568 0 0 1 7.085,3.583 c 0.102,0.06 0.172,0.17 0.21,0.327 A 0.18,0.18 0 0 0 7.51,4.044 0.18,0.18 0 0 0 7.644,3.828 C 7.584,3.572 7.458,3.386 7.269,3.274 A 0.848,0.848 0 0 0 6.827,3.164 Z m -3.58,1.02 a 0.18,0.18 0 0 0 -0.18,0.226 c 0.042,0.153 0.04,0.28 -0.004,0.387 L 3.06,4.803 A 0.401,0.401 0 0 1 2.973,4.93 C 2.876,5.03 2.753,5.067 2.749,5.068 A 0.18,0.18 0 0 0 2.844,5.415 0.935,0.935 0 0 0 3.255,5.155 C 3.375,5.244 3.517,5.29 3.671,5.29 A 0.818,0.818 0 0 0 3.803,5.28 C 4.007,5.246 4.159,5.15 4.176,5.14 A 0.18,0.18 0 1 0 3.981,4.838 C 3.98,4.838 3.875,4.903 3.746,4.924 A 0.34,0.34 0 0 1 3.43,4.832 0.993,0.993 0 0 0 3.414,4.316 0.18,0.18 0 0 0 3.247,4.183 Z M 6.128,4.69 A 0.18,0.18 0 0 0 5.948,4.902 C 5.949,4.912 5.996,5.16 6.168,5.403 6.209,5.461 6.259,5.522 6.32,5.58 6.288,5.765 6.005,5.866 5.998,5.868 a 0.18,0.18 0 0 0 0.116,0.34 C 6.28,6.153 6.522,6.013 6.629,5.788 c 0.14,0.064 0.308,0.105 0.51,0.105 h 0.04 A 0.18001736,0.18001736 0 0 0 7.174,5.533 H 7.17 C 6.448,5.551 6.307,4.868 6.3,4.836 A 0.18,0.18 0 0 0 6.128,4.69 Z m 1.54,0.119 A 0.18,0.18 0 0 0 7.569,5.144 C 7.571,5.145 7.752,5.254 7.87,5.454 8.02,5.706 8.006,5.991 7.828,6.302 A 0.18,0.18 0 1 0 8.14,6.481 C 8.452,5.935 8.329,5.513 8.17,5.255 A 1.344,1.344 0 0 0 7.752,4.834 0.18,0.18 0 0 0 7.667,4.809 Z M 4.568,5.589 4.55,5.59 A 0.18,0.18 0 0 0 4.395,5.791 C 4.425,6.038 4.232,6.217 4.118,6.3 A 1.12,1.12 0 0 0 3.492,6.215 0.18,0.18 0 0 0 3.554,6.569 c 0.003,0 0.306,-0.05 0.488,0.108 0.104,0.09 0.154,0.24 0.15,0.447 a 0.18005624,0.18005624 0 0 0 0.36,0.009 C 4.557,6.891 4.505,6.692 4.398,6.539 4.574,6.392 4.799,6.126 4.751,5.746 A 0.18,0.18 0 0 0 4.569,5.589 Z M 8.874,6.384 A 0.18,0.18 0 0 0 8.713,6.647 0.975,0.975 0 0 0 9.187,7.07 C 9.131,7.29 9.095,7.678 9.421,7.95 A 0.179,0.179 0 0 0 9.674,7.928 0.18,0.18 0 0 0 9.651,7.674 C 9.453,7.508 9.509,7.236 9.548,7.113 9.71,7.093 9.878,7.023 10.046,6.901 A 0.18,0.18 0 0 0 9.837,6.608 C 9.662,6.734 9.502,6.781 9.363,6.748 9.153,6.7 9.033,6.484 9.031,6.479 A 0.18,0.18 0 0 0 8.874,6.384 Z M 6.778,6.575 A 0.18,0.18 0 0 0 6.618,6.665 0.65,0.65 0 0 1 6.068,7.015 0.923,0.923 0 0 1 5.716,6.962 0.18004027,0.18004027 0 0 0 5.579,7.295 C 5.6,7.303 5.783,7.375 6.024,7.375 H 6.07 a 1,1 0 0 0 0.858,-0.53 0.18,0.18 0 0 0 -0.15,-0.27 z"
     id="path2"
     inkscape:connector-curvature="0"
     style="fill:#5beedc" />
</svg>
