<svg xmlns="http://www.w3.org/2000/svg" width="48" height="48" viewBox="0 0 12.7 12.7"><path d="M6.34.07a6.29 6.29 0 0 0-6.29 6.3 6.29 6.29 0 0 0 6.3 6.28 6.29 6.29 0 0 0 6.28-6.29A6.29 6.29 0 0 0 6.34.07zm-.01.94a5.4 5.4 0 0 1 5.4 5.4 5.4 5.4 0 0 1-5.4 5.41 5.4 5.4 0 0 1-5.41-5.4A5.4 5.4 0 0 1 6.32 1zM2.4 3.74a.3.3 0 0 0-.3.3v4.81c0 .17.13.31.3.31h7.9a.3.3 0 0 0 .3-.3V6.9l-.79-.8-1.67-1.67-.7-.7H2.4zm.72.7h4.32V6.6c0 .17.13.3.3.3h2.07v1.33c0 .13-.1.23-.23.23H3.12a.23.23 0 0 1-.23-.23V4.67c0-.13.1-.23.23-.23zm.66.68a.2.2 0 1 0 0 .4h2.5a.2.2 0 1 0 0-.4h-2.5zm0 1.05a.2.2 0 1 0 0 .4h2.5a.2.2 0 1 0 0-.4h-2.5zm0 1.06a.2.2 0 1 0 0 .4h2.5a.2.2 0 1 0 0-.4h-2.5z" fill="#5beedc"/></svg>
