<svg xmlns="http://www.w3.org/2000/svg" width="48" height="48" viewBox="0 0 12.7 12.7"><path fill="#5beedc" d="M6.344.073a6.29 6.29 0 0 0-6.29 6.29 6.29 6.29 0 0 0 6.29 6.288 6.29 6.29 0 0 0 6.29-6.289 6.29 6.29 0 0 0-6.29-6.29zm-.018.936a5.407 5.407 0 0 1 5.407 5.407 5.407 5.407 0 0 1-5.407 5.407A5.407 5.407 0 0 1 .92 6.416 5.407 5.407 0 0 1 6.326 1.01zm.023 1.637c-.116 0-.232.003-.346.015L5.788 3.77a2.652 2.652 0 0 0-.513.165l-.81-.777a3.678 3.678 0 0 0-.563.43l.48 1.01a2.676 2.676 0 0 0-.314.43l-1.108-.15a3.657 3.657 0 0 0-.215.678l.975.53a2.554 2.554 0 0 0-.016.264c0 .091.007.176.016.265l-.975.529c.051.235.12.461.215.678l1.108-.15c.09.154.196.299.314.43l-.48 1.01c.178.158.357.308.563.43l.81-.778c.162.073.335.127.513.166l.215 1.108a3.767 3.767 0 0 0 .694 0l.215-1.108c.177-.04.35-.094.512-.166l.811.778c.205-.122.385-.272.562-.43l-.48-1.01c.118-.13.225-.276.315-.43l1.108.15a3.657 3.657 0 0 0 .215-.678l-.976-.53c.01-.088.017-.173.017-.264 0-.091-.008-.176-.017-.265l.976-.529a3.656 3.656 0 0 0-.215-.678l-1.108.15a2.676 2.676 0 0 0-.314-.431l.48-1.009a3.677 3.677 0 0 0-.563-.43l-.811.778a2.654 2.654 0 0 0-.512-.166l-.216-1.108a3.767 3.767 0 0 0-.347-.015v-.001zm0 2.116a1.588 1.588 0 1 1 0 3.176 1.588 1.588 0 0 1 0-3.176z"/></svg>
