<?xml version="1.0" encoding="UTF-8" standalone="no"?>
<svg
   xmlns:dc="http://purl.org/dc/elements/1.1/"
   xmlns:cc="http://creativecommons.org/ns#"
   xmlns:rdf="http://www.w3.org/1999/02/22-rdf-syntax-ns#"
   xmlns:svg="http://www.w3.org/2000/svg"
   xmlns="http://www.w3.org/2000/svg"
   xmlns:sodipodi="http://sodipodi.sourceforge.net/DTD/sodipodi-0.dtd"
   xmlns:inkscape="http://www.inkscape.org/namespaces/inkscape"
   width="48"
   height="48"
   version="1.1"
   id="svg4"
   sodipodi:docname="gnome-session-switch.svg"
   inkscape:version="0.92.4 (5da689c313, 2019-01-14)">
  <metadata
     id="metadata10">
    <rdf:RDF>
      <cc:Work
         rdf:about="">
        <dc:format>image/svg+xml</dc:format>
        <dc:type
           rdf:resource="http://purl.org/dc/dcmitype/StillImage" />
        <dc:title></dc:title>
      </cc:Work>
    </rdf:RDF>
  </metadata>
  <defs
     id="defs8" />
  <sodipodi:namedview
     pagecolor="#ffffff"
     bordercolor="#666666"
     borderopacity="1"
     objecttolerance="10"
     gridtolerance="10"
     guidetolerance="10"
     inkscape:pageopacity="0"
     inkscape:pageshadow="2"
     inkscape:window-width="1087"
     inkscape:window-height="480"
     id="namedview6"
     showgrid="false"
     inkscape:zoom="4.9166667"
     inkscape:cx="2.1355932"
     inkscape:cy="24"
     inkscape:window-x="0"
     inkscape:window-y="25"
     inkscape:window-maximized="0"
     inkscape:current-layer="svg4" />
  <path
     d="M 23.95,3.1 A 20.86,20.86 0 0 0 3.1,23.95 20.86,20.86 0 0 0 23.95,44.8 20.86,20.86 0 0 0 44.8,23.95 20.86,20.86 0 0 0 23.95,3.1 Z M 24,6.58 A 17.23,17.23 0 0 1 41.24,23.82 17.23,17.23 0 0 1 24,41.05 17.23,17.23 0 0 1 6.76,23.82 17.23,17.23 0 0 1 24,6.58 Z m -0.26,3.53 a 13.86,13.86 0 0 0 -6.16,1.56 l 2.48,2.48 a 10.45,10.45 0 0 1 11.25,2.33 10.45,10.45 0 0 1 2.3,11.23 l 2.64,2.63 a 13.86,13.86 0 0 0 -2.5,-16.19 13.86,13.86 0 0 0 -10,-4.04 z M 11.76,17.4 a 13.86,13.86 0 0 0 2.4,16.36 13.86,13.86 0 0 0 16.36,2.4 L 27.9,33.54 A 10.45,10.45 0 0 1 16.52,31.27 10.45,10.45 0 0 1 14.26,19.89 l -2.5,-2.5 z"
     id="path2"
     inkscape:connector-curvature="0"
     style="fill:#5beedc" />
</svg>
