<?xml version="1.0" encoding="UTF-8" standalone="no"?><svg xmlns:dc="http://purl.org/dc/elements/1.1/" xmlns:cc="http://creativecommons.org/ns#" xmlns:rdf="http://www.w3.org/1999/02/22-rdf-syntax-ns#" xmlns="http://www.w3.org/2000/svg" width="48" height="48" viewBox="0 0 12.7 12.7"><metadata><rdf:RDF><cc:Work><dc:format>image/svg+xml</dc:format><dc:type rdf:resource="http://purl.org/dc/dcmitype/StillImage"/><dc:title/></cc:Work></rdf:RDF></metadata><path d="M6.34.07a6.29 6.29 0 0 0-6.28 6.3 6.29 6.29 0 0 0 6.29 6.28 6.29 6.29 0 0 0 6.28-6.29A6.29 6.29 0 0 0 6.34.07zm-.01.94a5.4 5.4 0 0 1 5.4 5.4 5.4 5.4 0 0 1-5.4 5.41 5.4 5.4 0 0 1-5.41-5.4A5.4 5.4 0 0 1 6.32 1z" fill="#5beedc"/><path d="M5.2 2.19c-1.97 0-2.9 1.54-3.24 3.62.86-1.32 1.35-1.5 1.6-1.6.2-.06.36-.09.5-.08.91.03 1.03 1.18 1.25 2.42.14.52.47 1.61 1.08 2.12.16.13.36.33.56.25.17-.07.2-.35.07-.65-.11-.36-.32-.68-.44-1.06-.24-.8-.39-1.02-.13-1.78.14-.41.44-.79.58-.61l.28.34c.23.45.62.88 1.1 1.1.27.13.42.16.7.03.23-.15.08-.7.32-1.19.19-.37.36-.58.35-.96.07-.03.1-.08.13-.17.01-.04.04-.1.1-.17.21-.17.34-.35.29-.65l-1.26.32h-.47l-.18-.62c-.1-.13-.16-.3-.31-.33l-.21.6c-.7-.3-1.4-.9-2.67-.93zm2.86 2.89c.16.06.3.04.48.2a.83.83 0 0 0 0 .28s.02-.06-.48-.48zm.74.96l.27.02c-.06.07-.13.1-.2.11l-.25-.03.03-.03zm-5.77.65a.36.36 0 0 0-.18.06c-.28.2-.25.5-.23.85a4.14 4.14 0 0 0 4.13 3.58c1.1-.03 2.17-.51 2.27-1.56.02-.24 0-.49-.05-.73-.34.75-1.03 1.49-2.01 1.32-2.17-.36-2.6-1.38-3.5-3.18-.12-.19-.26-.34-.43-.34z" fill="#2c89a0" opacity=".75"/></svg>
