<svg xmlns="http://www.w3.org/2000/svg" width="48" height="48" viewBox="0 0 12.7 12.7"><path d="M6.34.07A6.29 6.29 0 0 0 .05 6.36a6.29 6.29 0 0 0 6.3 6.29 6.29 6.29 0 0 0 6.28-6.3A6.29 6.29 0 0 0 6.34.08zm-.01.94a5.4 5.4 0 0 1 3.8 1.56l-.81.8a.42.42 0 0 1 .18.35v.2a.42.42 0 0 1-.41.42h-.74l-.7.71h1.44a.42.42 0 0 1 .41.42v.2a.42.42 0 0 1-.41.42H6.6l-.7.71h3.19a.42.42 0 0 1 .41.42v.2a.42.42 0 0 1-.41.42H4.85L5.9 6.8H3.62a.42.42 0 0 0-.42.42v.2c0 .23.19.42.42.42h1.23l-.7.71h4.94a.42.42 0 0 1 .41.42v.2a.42.42 0 0 1-.41.42H3.62c-.14 0-.25-.08-.33-.2l-.8.82a5.4 5.4 0 0 1-1.57-3.8 5.4 5.4 0 0 1 5.4-5.4zM3.29 9.4l.85-.85h-.52a.42.42 0 0 0-.42.42v.2c0 .09.05.16.1.23zM6.6 6.1l1.04-1.05H3.62a.42.42 0 0 0-.42.42v.2c0 .24.19.42.42.42H6.6zm1.75-1.76l.97-.96a.42.42 0 0 0-.23-.08H3.62a.42.42 0 0 0-.42.42v.2c0 .24.19.42.42.42h4.73z" fill="#5beedc"/></svg>
