<svg xmlns="http://www.w3.org/2000/svg" width="48" height="48" viewBox="0 0 12.7 12.7"><path d="M6.35.06a6.29 6.29 0 0 0-6.29 6.3 6.29 6.29 0 0 0 6.3 6.28 6.29 6.29 0 0 0 6.28-6.29A6.29 6.29 0 0 0 6.35.06zM6.33 1a5.4 5.4 0 0 1 5.4 5.4 5.4 5.4 0 0 1-5.4 5.41 5.4 5.4 0 0 1-5.4-5.4A5.4 5.4 0 0 1 6.33 1zM9.5 3.4L3.86 5.08v2.54L9.5 9.3V3.4zM2.46 5.08a.56.56 0 0 0-.57.57v1.4c0 .31.26.57.57.57h1.12V5.08H2.46zm7.33.29l-.02 1.96a1.01.98 0 0 0 .9-.48 1.01.98 0 0 0 0-.99 1.01.98 0 0 0-.88-.5zM3.3 7.9v1.4h.84V7.9H3.3z" fill="#5beedc"/></svg>
