<svg xmlns="http://www.w3.org/2000/svg" width="48" height="48" viewBox="0 0 12.7 12.7"><path fill="#5beedc" d="M6.344.073a6.29 6.29 0 0 0-6.29 6.29 6.29 6.29 0 0 0 6.29 6.288 6.29 6.29 0 0 0 6.29-6.289 6.29 6.29 0 0 0-6.29-6.29zm-.018.936a5.407 5.407 0 0 1 4.109 1.901H2.212a5.407 5.407 0 0 1 4.114-1.9zM1.608 3.78h1.086c.03 0 .061.007.088.019a.336.336 0 0 1 .157.17.52.52 0 0 1 .04.197v4.392a.52.52 0 0 1-.04.198.481.481 0 0 1-.041.071.319.319 0 0 1-.116.099c-.027.008-.058.018-.088.018H1.55a5.407 5.407 0 0 1-.307-.698V4.592a5.407 5.407 0 0 1 .365-.812zm2.06.002c.011-.002.021 0 .034 0h7.338a5.407 5.407 0 0 1 .693 2.635 5.407 5.407 0 0 1-.63 2.528H3.701a.224.224 0 0 1-.089-.017.327.327 0 0 1-.156-.17.52.52 0 0 1-.041-.197V4.167a.52.52 0 0 1 .04-.197.326.326 0 0 1 .157-.17c.016-.007.038-.016.054-.019zm2.74.247a2.31 2.31 0 0 0-1.82.888l.291.184a1.976 1.976 0 1 1 .003 2.503l-.29.184a2.309 2.309 0 0 0 1.816.885A2.32 2.32 0 0 0 8.727 6.35a2.32 2.32 0 0 0-2.319-2.322zm-5.167.57v3.64a5.407 5.407 0 0 1-.322-1.822 5.407 5.407 0 0 1 .322-1.818zm2.734.291l-.002 2.894 2.453-1.447-2.451-1.447zm2.433.045c-.417 0-.791.18-1.051.467l.301.188c.194-.191.458-.308.75-.308.592 0 1.073.484 1.073 1.08 0 .596-.48 1.08-1.073 1.08-.297 0-.566-.122-.76-.32l-.291.184a1.42 1.42 0 1 0 1.052-2.371zM2.103 9.791h8.441a5.407 5.407 0 0 1-4.218 2.032 5.407 5.407 0 0 1-4.223-2.032z"/></svg>
