<svg xmlns="http://www.w3.org/2000/svg" width="48" height="48" viewBox="0 0 12.7 12.7"><path d="M6.34.07a6.29 6.29 0 0 0-6.29 6.3 6.29 6.29 0 0 0 6.3 6.28 6.29 6.29 0 0 0 6.28-6.29A6.29 6.29 0 0 0 6.34.07zm-.01.94a5.4 5.4 0 0 1 5.4 5.4 5.4 5.4 0 0 1-5.4 5.41 5.4 5.4 0 0 1-5.41-5.4A5.4 5.4 0 0 1 6.32 1zm.29 1.1l-.08.02a1.68 1.68 0 0 0-.7.28 1.68 1.68 0 0 0-.65 1.16c0 .07-.01.12-.02.12l-.12.05a3.58 3.58 0 0 0-2.04 2.12l-.03.08h-.06a1.33 1.33 0 0 0-.76.3h-.01l-.02.03c-.02 0-.15.11-.15.13H2l-.01.02-.04.03-.03.03-.03.04c-.03.03-.1.17-.15.27-.07.18-.09.28-.09.5a1 1 0 0 0 .03.31 1.35 1.35 0 0 0 1.38 1.04h.12l.07.12a3.57 3.57 0 0 0 4.9 1.33 3.63 3.63 0 0 0 1.3-1.34l.06-.11h.13a1.35 1.35 0 0 0 .14-2.7h-.06l-.06-.14A3.55 3.55 0 0 0 7.2 3.6a2.67 2.67 0 0 1 .52-.4 1.07 1.07 0 0 0-.33-.13 1.48 1.48 0 0 0-.97.07.93.93 0 0 1-.1.03 3.4 3.4 0 0 1 .22-.83c.03-.09.04-.1.01-.12-.02-.02-.02-.02 0 0 .03.02.03.02.06-.03.03-.06.03-.07.02-.07zM5.2 5.06a1.75 1.75 0 0 1 1.06.32l.1.06.02-.03.32-.19c.12-.05.26-.1.4-.13.1-.02.16-.02.35-.02.2 0 .23 0 .36.03a1.8 1.8 0 0 1 1.38 2.16 1.7 1.7 0 0 1-.53.9c-.2.18-.43.32-.68.4l-.13.04v.04a2.52 2.52 0 0 1-.02.58A1.53 1.53 0 0 1 6 10.35l-.14-.03A1.53 1.53 0 0 1 4.84 8.6c0-.01-.05-.04-.13-.06a1.8 1.8 0 0 1-1.24-1.78c0-.34.1-.64.3-.92a1.8 1.8 0 0 1 1.43-.8zM2.81 6.71v.13a3.93 3.93 0 0 0 .1 1.05l-.07-.01a.62.62 0 0 1-.44-.49.67.67 0 0 1 .05-.36.68.68 0 0 1 .36-.32zm7.06 0l.03.01.08.04c.1.05.22.18.26.27.08.17.08.37 0 .53a.65.65 0 0 1-.4.32c-.06.01-.06.01-.05-.01a4.7 4.7 0 0 0 .08-1.15zm-2.44.5l-.1.01c-.04.01-.05.02-.05.03 0 .02 0 .02-.01 0-.04-.03-.2.13-.22.24-.02.07-.01.22.02.28.04.08.1.14.18.18.06.03.08.04.17.04.12 0 .2-.03.28-.12a.39.39 0 0 0-.27-.66zm-2.2 0a.3.3 0 0 0-.07.02.42.42 0 0 0-.26.25c-.02.09-.01.21.02.28.03.08.12.16.2.2.08.04.23.04.32 0 .29-.15.3-.56.01-.7a.44.44 0 0 0-.22-.05zm.55 2.05v.05c.03.14.12.28.24.37.11.07.18.1.34.1.14 0 .14-.01.23-.05.15-.08.25-.2.3-.35.04-.14.1-.12-.54-.12h-.57z" fill="#5beedc"/></svg>
