<svg xmlns="http://www.w3.org/2000/svg" width="48" height="48" viewBox="0 0 12.7 12.7"><path d="M6.34.07a6.29 6.29 0 0 0-6.29 6.3 6.29 6.29 0 0 0 6.3 6.28 6.29 6.29 0 0 0 6.28-6.29A6.29 6.29 0 0 0 6.34.07zm-.01.94a5.4 5.4 0 0 1 5.4 5.4 5.4 5.4 0 0 1-5.4 5.41 5.4 5.4 0 0 1-5.41-5.4A5.4 5.4 0 0 1 6.32 1zM4.77 2.64a.26.26 0 0 0-.01 0c-.2-.02-.1.2-.12.32v4.9c-.03.16-.21.13-.32.1-.7-.07-1.46.41-1.56 1.14-.1.54.45 1 .96.96.71-.04 1.28-.76 1.19-1.47V4.63c.02-.14.21-.15.3-.06.65.38 1.23 1 1.29 1.79.02.15-.02.54-.01.55a2.5 2.5 0 0 0-.66-2.44 3.4 3.4 0 0 1-.96-1.81.26.26 0 0 0-.1-.02zm2.51.02a.13.13 0 0 0-.13.13v7.07c0 .08.06.14.14.14h.41c.08 0 .14-.06.14-.14V8.58l.04.01H8.9c.09 0 .17-.08.17-.17V7.15c0-.1-.08-.17-.17-.17H7.84v-1.3l.04.02H8.9c.09 0 .17-.08.17-.18V4.25c0-.1-.08-.17-.17-.17H7.88l-.04.01v-.76h1.7c.07 0 .13-.06.13-.14v-.4a.13.13 0 0 0-.13-.13H7.29zm.6 1.9h.73c.04 0 .07.03.07.07v.51c0 .04-.03.07-.07.07h-.73a.07.07 0 0 1-.06-.07v-.5c0-.05.03-.08.06-.08zm0 2.9h.73c.04 0 .07.03.07.07v.5c0 .05-.03.08-.07.08h-.73a.07.07 0 0 1-.06-.07v-.51c0-.04.03-.07.06-.07z" fill="#5beedc"/></svg>
