<?xml version="1.0" encoding="UTF-8" standalone="no"?>
<svg
   xmlns:dc="http://purl.org/dc/elements/1.1/"
   xmlns:cc="http://creativecommons.org/ns#"
   xmlns:rdf="http://www.w3.org/1999/02/22-rdf-syntax-ns#"
   xmlns:svg="http://www.w3.org/2000/svg"
   xmlns="http://www.w3.org/2000/svg"
   xmlns:sodipodi="http://sodipodi.sourceforge.net/DTD/sodipodi-0.dtd"
   xmlns:inkscape="http://www.inkscape.org/namespaces/inkscape"
   width="48"
   height="48"
   viewBox="0 0 12.7 12.7"
   version="1.1"
   id="svg4"
   sodipodi:docname="org.gnome.Calculator.Devel.svg"
   inkscape:version="0.92.5 (2060ec1f9f, 2020-04-08)">
  <metadata
     id="metadata10">
    <rdf:RDF>
      <cc:Work
         rdf:about="">
        <dc:format>image/svg+xml</dc:format>
        <dc:type
           rdf:resource="http://purl.org/dc/dcmitype/StillImage" />
        <dc:title></dc:title>
      </cc:Work>
    </rdf:RDF>
  </metadata>
  <defs
     id="defs8" />
  <sodipodi:namedview
     pagecolor="#ffffff"
     bordercolor="#666666"
     borderopacity="1"
     objecttolerance="10"
     gridtolerance="10"
     guidetolerance="10"
     inkscape:pageopacity="0"
     inkscape:pageshadow="2"
     inkscape:window-width="1087"
     inkscape:window-height="480"
     id="namedview6"
     showgrid="false"
     inkscape:zoom="4.9166667"
     inkscape:cx="2.1355932"
     inkscape:cy="24"
     inkscape:window-x="0"
     inkscape:window-y="25"
     inkscape:window-maximized="0"
     inkscape:current-layer="svg4" />
  <path
     d="M 6.35,0.083 A 6.267,6.267 0 0 0 0.082,6.349 6.267,6.267 0 0 0 6.35,12.617 6.267,6.267 0 0 0 12.617,6.349 6.267,6.267 0 0 0 6.35,0.083 Z M 6.332,1.015 h 0.001 a 5.388,5.388 0 0 1 5.388,5.39 5.388,5.388 0 0 1 -0.4,2.024 L 10.396,8.43 11.02,9.054 a 5.388,5.388 0 0 1 -0.77,1.04 L 8.588,8.43 h -1.81 l 2.491,2.49 A 5.388,5.388 0 0 1 8.046,11.506 L 4.969,8.429 h -1.81 l 3.357,3.356 A 5.388,5.388 0 0 1 6.332,11.792 5.388,5.388 0 0 1 4.32,11.398 L 1.351,8.429 H 1.343 a 5.388,5.388 0 0 1 -0.4,-2.025 5.388,5.388 0 0 1 5.39,-5.39 z M 3.64,2.516 A 0.375,0.375 0 0 0 3.264,2.892 v 4.69 H 9.436 V 2.892 A 0.375,0.375 0 0 0 9.06,2.516 Z m 0.334,0.651 h 4.752 c 0.126,0 0.226,0.099 0.226,0.22 v 1.245 c 0,0.122 -0.1,0.22 -0.226,0.22 H 3.974 A 0.222,0.222 0 0 1 3.748,4.632 V 3.387 c 0,-0.121 0.1,-0.22 0.226,-0.22 z m 0.046,2.34 h 0.544 c 0.108,0 0.195,0.087 0.195,0.195 V 6.059 A 0.195,0.195 0 0 1 4.564,6.255 H 4.02 A 0.196,0.196 0 0 1 3.824,6.059 V 5.702 c 0,-0.108 0.088,-0.195 0.196,-0.195 z m 2.62,0 h 0.543 c 0.109,0 0.196,0.087 0.196,0.195 V 6.059 A 0.195,0.195 0 0 1 7.183,6.255 H 6.639 A 0.195,0.195 0 0 1 6.444,6.059 V 5.702 c 0,-0.108 0.087,-0.195 0.195,-0.195 z m 1.317,0 h 0.725 c 0.108,0 0.194,0.087 0.194,0.195 V 6.059 A 0.195,0.195 0 0 1 8.682,6.254 H 7.957 A 0.195,0.195 0 0 1 7.763,6.059 V 5.702 c 0,-0.109 0.087,-0.196 0.194,-0.196 z m -2.627,0 h 0.544 c 0.108,0 0.195,0.088 0.195,0.196 V 6.06 A 0.195,0.195 0 0 1 5.874,6.255 H 5.33 A 0.195,0.195 0 0 1 5.134,6.06 V 5.703 C 5.134,5.594 5.221,5.507 5.33,5.507 Z M 4.02,6.63 h 0.544 c 0.108,0 0.195,0.087 0.195,0.196 V 7.183 A 0.195,0.195 0 0 1 4.564,7.379 H 4.02 A 0.196,0.196 0 0 1 3.824,7.183 V 6.826 C 3.824,6.716 3.912,6.63 4.02,6.63 Z m 1.31,0 h 0.544 c 0.108,0 0.195,0.088 0.195,0.196 V 7.183 A 0.195,0.195 0 0 1 5.874,7.379 H 5.33 A 0.195,0.195 0 0 1 5.134,7.183 V 6.826 c 0,-0.108 0.087,-0.195 0.196,-0.195 z m 1.309,0 h 0.544 c 0.109,0 0.196,0.087 0.196,0.196 V 7.183 A 0.195,0.195 0 0 1 7.183,7.379 H 6.639 A 0.195,0.195 0 0 1 6.444,7.183 V 6.826 c 0,-0.11 0.087,-0.196 0.195,-0.196 z m 1.318,0 h 0.725 c 0.108,0 0.194,0.087 0.194,0.196 V 7.183 A 0.195,0.195 0 0 1 8.682,7.379 H 7.957 A 0.195,0.195 0 0 1 7.763,7.183 V 6.826 C 7.763,6.716 7.85,6.63 7.957,6.63 Z"
     id="path2"
     inkscape:connector-curvature="0"
     style="fill:#5beedc" />
</svg>
