<svg xmlns="http://www.w3.org/2000/svg" width="48" height="48" viewBox="0 0 12.7 12.7"><path fill="#5beedc" d="M6.344.073a6.29 6.29 0 0 0-6.29 6.29 6.29 6.29 0 0 0 6.29 6.288 6.29 6.29 0 0 0 6.29-6.289 6.29 6.29 0 0 0-6.29-6.29zm-.018.936a5.407 5.407 0 0 1 5.407 5.407 5.407 5.407 0 0 1-5.407 5.407A5.407 5.407 0 0 1 .92 6.416 5.407 5.407 0 0 1 6.326 1.01zm-.123.615c-.07 0-.263.032-.339.057-.192.063-.295.21-.378.4-.236.544.088 1.471.42 2.186a21.92 21.92 0 0 1-1.262 3.54c-1.263.57-1.934 1.132-1.995 1.668-.022.195.025.48.372.738.095.07.206.107.322.107.292 0 .587-.22.928-.694.248-.345.515-.815.794-1.4a16.132 16.132 0 0 1 2.942-.928c.527.5.998.752 1.404.752a.888.888 0 0 0 .74-.392c.193-.266.237-.506.13-.71-.129-.248-.446-.368-.967-.368-.307 0-.682.04-1.12.117-.61-.639-1.246-1.572-1.695-2.488.047-.197.092-.395.132-.594.053-.27.1-.543.123-.818.024-.283.023-.576-.128-.828-.08-.136-.248-.345-.423-.345zm-.12.594c.015-.004.349.363.032 1.06-.475-.481-.064-1.049-.032-1.06zm.203 2.786c.374.665.824 1.31 1.274 1.826-.711.164-1.47.397-2.165.664.338-.796.652-1.675.89-2.49zm3.093 2.131c.297 0 .351.043.392.065a.51.51 0 0 1-.077.137c-.102.141-.325.145-.403.145-.178 0-.244-.105-.515-.311.223-.028.435-.036.603-.036zM4.231 8.634c-.54.984-.83 1.115-.88 1.13-.156-.117-.147-.197-.144-.228.02-.183.311-.507 1.024-.902z"/></svg>
