<svg xmlns="http://www.w3.org/2000/svg" width="48" height="48" viewBox="0 0 12.7 12.7"><path d="M6.35.08A6.27 6.27 0 0 0 .08 6.35a6.27 6.27 0 0 0 6.27 6.27 6.27 6.27 0 0 0 6.27-6.27A6.27 6.27 0 0 0 6.35.08zm-.02.93a5.39 5.39 0 0 1 5.4 5.4 5.39 5.39 0 0 1-5.4 5.38A5.39 5.39 0 0 1 .94 6.4a5.39 5.39 0 0 1 5.4-5.39z" fill="#5beedc"/><g fill="#5beedc"><circle transform="scale(-1 1)" r=".66" cy="3.04" cx="-6.35" opacity=".6"/><circle transform="scale(-1 1)" r=".66" cy="9.66" cx="-6.35"/><circle transform="matrix(0 1 1 0 0 0)" r=".66" cy="3.04" cx="6.35" opacity=".8"/><circle transform="matrix(0 1 1 0 0 0)" r=".66" cy="9.66" cx="6.35" opacity=".4"/><circle transform="scale(1 -1) rotate(-45)" r=".66" cy="-3.31" cx="8.98" opacity=".9"/><circle transform="scale(1 -1) rotate(-45)" r=".66" cy="3.31" cx="8.98" opacity=".5"/><circle transform="rotate(135)" r=".66" cy="-12.29" opacity=".3"/><circle transform="rotate(135)" r=".66" cy="-5.67" opacity=".7"/></g></svg>
