<?xml version="1.0" encoding="UTF-8" standalone="no"?>
<svg
   xmlns:dc="http://purl.org/dc/elements/1.1/"
   xmlns:cc="http://creativecommons.org/ns#"
   xmlns:rdf="http://www.w3.org/1999/02/22-rdf-syntax-ns#"
   xmlns:svg="http://www.w3.org/2000/svg"
   xmlns="http://www.w3.org/2000/svg"
   xmlns:sodipodi="http://sodipodi.sourceforge.net/DTD/sodipodi-0.dtd"
   xmlns:inkscape="http://www.inkscape.org/namespaces/inkscape"
   width="48"
   height="48"
   viewBox="0 0 12.7 12.7"
   version="1.1"
   id="svg4"
   sodipodi:docname="preferences-activities.svg"
   inkscape:version="0.92.4 (5da689c313, 2019-01-14)">
  <metadata
     id="metadata10">
    <rdf:RDF>
      <cc:Work
         rdf:about="">
        <dc:format>image/svg+xml</dc:format>
        <dc:type
           rdf:resource="http://purl.org/dc/dcmitype/StillImage" />
        <dc:title></dc:title>
      </cc:Work>
    </rdf:RDF>
  </metadata>
  <defs
     id="defs8" />
  <sodipodi:namedview
     pagecolor="#ffffff"
     bordercolor="#666666"
     borderopacity="1"
     objecttolerance="10"
     gridtolerance="10"
     guidetolerance="10"
     inkscape:pageopacity="0"
     inkscape:pageshadow="2"
     inkscape:window-width="1087"
     inkscape:window-height="480"
     id="namedview6"
     showgrid="false"
     inkscape:zoom="4.9166667"
     inkscape:cx="2.1355932"
     inkscape:cy="24"
     inkscape:window-x="0"
     inkscape:window-y="25"
     inkscape:window-maximized="0"
     inkscape:current-layer="svg4" />
  <path
     d="m 6.35,0.04 a 6.3,6.3 0 0 0 -6.3,6.31 6.3,6.3 0 0 0 6.3,6.3 6.3,6.3 0 0 0 6.3,-6.3 6.3,6.3 0 0 0 -6.3,-6.3 z M 6.33,0.98 A 5.42,5.42 0 0 1 11.76,6.4 5.42,5.42 0 0 1 6.33,11.83 5.42,5.42 0 0 1 0.91,6.4 5.42,5.42 0 0 1 6.33,0.98 Z M 6.35,1.58 5.9,1.59 5.63,3.02 A 3.42,3.42 0 0 0 4.96,3.24 l -1.04,-1 A 4.72,4.72 0 0 0 3.19,2.79 l 0.62,1.3 A 3.45,3.45 0 0 0 3.41,4.64 L 1.98,4.45 A 4.72,4.72 0 0 0 1.7,5.33 L 2.96,6 A 3.3,3.3 0 0 0 2.94,6.34 c 0,0.12 0,0.23 0.02,0.34 L 1.7,7.36 c 0.07,0.3 0.15,0.6 0.28,0.88 l 1.43,-0.2 c 0.11,0.2 0.25,0.39 0.4,0.56 L 3.19,9.9 c 0.23,0.2 0.46,0.4 0.73,0.56 l 1.04,-1 C 5.17,9.55 5.4,9.62 5.63,9.66 L 5.9,11.1 a 4.86,4.86 0 0 0 0.9,0 L 7.07,9.67 A 3.36,3.36 0 0 0 7.74,9.45 l 1.04,1 C 9.05,10.3 9.28,10.11 9.51,9.9 L 8.89,8.6 a 3.48,3.48 0 0 0 0.4,-0.55 l 1.43,0.19 A 4.72,4.72 0 0 0 11,7.36 L 9.74,6.7 9.76,6.36 c 0,-0.12 0,-0.23 -0.02,-0.34 L 11,5.33 A 4.71,4.71 0 0 0 10.72,4.45 L 9.29,4.65 A 3.45,3.45 0 0 0 8.89,4.09 L 9.51,2.79 A 4.72,4.72 0 0 0 8.78,2.23 l -1.04,1 A 3.42,3.42 0 0 0 7.07,3.03 L 6.8,1.58 A 4.86,4.86 0 0 0 6.35,1.56 Z m 0,2.72 a 2.05,2.05 0 0 1 0,4.1 2.05,2.05 0 0 1 0,-4.1 z"
     id="path2"
     inkscape:connector-curvature="0"
     style="fill:#5beedc" />
</svg>
