<svg xmlns="http://www.w3.org/2000/svg" width="48" height="48" viewBox="0 0 12.7 12.7"><path d="M6.34.07a6.29 6.29 0 0 0-6.29 6.3 6.29 6.29 0 0 0 6.3 6.28 6.29 6.29 0 0 0 6.28-6.29A6.29 6.29 0 0 0 6.34.07zm-.01.94a5.4 5.4 0 0 1 5.4 5.4 5.4 5.4 0 0 1-5.4 5.41 5.4 5.4 0 0 1-5.41-5.4A5.4 5.4 0 0 1 6.32 1z" fill="#5beedc"/><path d="M2.93 9.4a4.55 4.51 0 0 0 3.35 1.47 4.55 4.51 0 0 0 4.55-4.52A4.55 4.51 0 0 0 8.07 2.2a3.5 3.42 0 0 1 0 .02 3.5 3.42 0 0 1 .05.34 3.5 3.42 0 0 1 .02.34 3.5 3.42 0 0 1 0 .17 3.5 3.42 0 0 1-.04.34 3.5 3.42 0 0 1-.07.33 3.5 3.42 0 0 1-.1.33 3.5 3.42 0 0 1-.13.31 3.5 3.42 0 0 1-.17.3 3.5 3.42 0 0 1-.2.29 3.5 3.42 0 0 1-.22.26 3.5 3.42 0 0 1-.25.24 3.5 3.42 0 0 1-.27.21 3.5 3.42 0 0 1-.3.19 3.5 3.42 0 0 1-.3.15 3.5 3.42 0 0 1-.33.13 3.5 3.42 0 0 1-.34.09 3.5 3.42 0 0 1-.34.06 3.5 3.42 0 0 1-.35.02 3.4 3.2 0 0 1 .01.26 3.4 3.2 0 0 1 0 .22 3.4 3.2 0 0 1-.05.32 3.4 3.2 0 0 1-.07.31 3.4 3.2 0 0 1-.11.3 3.4 3.2 0 0 1-.14.3 3.4 3.2 0 0 1-.17.27 3.4 3.2 0 0 1-.2.26 3.4 3.2 0 0 1-.22.24 3.4 3.2 0 0 1-.25.22 3.4 3.2 0 0 1-.27.2 3.4 3.2 0 0 1-.29.16 3.4 3.2 0 0 1-.04.02z" fill="#5beedc" fill-rule="evenodd"/></svg>
