<?xml version="1.0" encoding="UTF-8" standalone="no"?>
<svg
   xmlns:dc="http://purl.org/dc/elements/1.1/"
   xmlns:cc="http://creativecommons.org/ns#"
   xmlns:rdf="http://www.w3.org/1999/02/22-rdf-syntax-ns#"
   xmlns:svg="http://www.w3.org/2000/svg"
   xmlns="http://www.w3.org/2000/svg"
   xmlns:sodipodi="http://sodipodi.sourceforge.net/DTD/sodipodi-0.dtd"
   xmlns:inkscape="http://www.inkscape.org/namespaces/inkscape"
   width="48"
   height="48"
   viewBox="0 0 12.7 12.7"
   version="1.1"
   id="svg6"
   sodipodi:docname="preferences-devices-tree.svg"
   inkscape:version="0.92.4 (5da689c313, 2019-01-14)">
  <metadata
     id="metadata12">
    <rdf:RDF>
      <cc:Work
         rdf:about="">
        <dc:format>image/svg+xml</dc:format>
        <dc:type
           rdf:resource="http://purl.org/dc/dcmitype/StillImage" />
        <dc:title></dc:title>
      </cc:Work>
    </rdf:RDF>
  </metadata>
  <defs
     id="defs10" />
  <sodipodi:namedview
     pagecolor="#ffffff"
     bordercolor="#666666"
     borderopacity="1"
     objecttolerance="10"
     gridtolerance="10"
     guidetolerance="10"
     inkscape:pageopacity="0"
     inkscape:pageshadow="2"
     inkscape:window-width="1366"
     inkscape:window-height="711"
     id="namedview8"
     showgrid="false"
     inkscape:zoom="10.520833"
     inkscape:cx="23.904951"
     inkscape:cy="24.000001"
     inkscape:window-x="0"
     inkscape:window-y="25"
     inkscape:window-maximized="1"
     inkscape:current-layer="svg6" />
  <path
     style="fill:#5beedc;stroke-width:3.77952766"
     d="M 23.962891 0.26367188 A 23.773228 23.773228 0 0 0 0.18945312 24.076172 A 23.773228 23.773228 0 0 0 24 47.810547 A 23.773228 23.773228 0 0 0 47.736328 24.037109 A 23.773228 23.773228 0 0 0 23.962891 0.26367188 z M 23.886719 3.7792969 L 23.923828 3.8164062 A 20.409449 20.409449 0 0 1 44.333984 24.226562 A 20.409449 20.409449 0 0 1 23.923828 44.673828 A 20.409449 20.409449 0 0 1 3.4765625 24.263672 A 20.409449 20.409449 0 0 1 23.886719 3.7792969 z M 13.849609 11.595703 A 2.2493276 2.2493276 0 0 0 11.595703 13.851562 L 11.595703 20.615234 A 2.2501799 2.2501799 0 0 0 13.849609 22.875 L 16.386719 22.875 L 16.386719 31 L 16.386719 31.046875 L 16.384766 31.046875 C 16.384766 31.051637 16.386648 31.055898 16.386719 31.060547 L 16.386719 31.095703 C 16.386719 31.264735 16.455174 31.412142 16.550781 31.541016 C 16.578561 31.581124 16.600924 31.625978 16.634766 31.660156 C 16.634766 31.660156 16.636719 31.660156 16.636719 31.660156 C 16.777816 31.801756 16.966742 31.892578 17.175781 31.892578 L 17.232422 31.892578 L 17.289062 31.892578 L 25.126953 31.892578 L 25.126953 34.150391 A 2.2493276 2.2493276 0 0 0 27.380859 36.404297 L 34.150391 36.404297 A 2.2493276 2.2493276 0 0 0 36.404297 34.150391 L 36.404297 27.380859 A 2.2493276 2.2493276 0 0 0 34.150391 25.126953 L 27.380859 25.128906 A 2.2493276 2.2493276 0 0 0 25.126953 27.380859 L 25.126953 30.201172 L 18.078125 30.201172 L 18.078125 22.875 L 20.615234 22.875 A 2.2501799 2.2501799 0 0 0 22.873047 20.615234 L 22.873047 18.078125 L 25.126953 18.078125 L 25.126953 20.615234 A 2.2501799 2.2501799 0 0 0 27.380859 22.873047 L 34.150391 22.873047 A 2.2501799 2.2501799 0 0 0 36.404297 20.615234 L 36.404297 13.851562 A 2.2493276 2.2493276 0 0 0 34.150391 11.595703 L 27.380859 11.595703 A 2.2493276 2.2493276 0 0 0 25.126953 13.849609 L 25.126953 16.386719 L 22.873047 16.386719 L 22.873047 13.851562 A 2.2501799 2.2501799 0 0 0 20.615234 11.595703 L 13.849609 11.595703 z M 14.412109 13.289062 L 14.414062 13.289062 L 20.052734 13.289062 C 20.678353 13.289062 21.181641 13.7899 21.181641 14.412109 L 21.181641 20.052734 A 1.12509 1.12509 0 0 1 20.052734 21.181641 L 17.289062 21.181641 L 17.175781 21.181641 L 14.414062 21.181641 C 13.791855 21.181641 13.289062 20.678353 13.289062 20.052734 L 13.289062 14.412109 C 13.289062 13.790322 13.790485 13.289745 14.412109 13.289062 z M 27.947266 13.289062 L 33.583984 13.289062 C 34.209604 13.289062 34.710937 13.7899 34.710938 14.412109 L 34.710938 20.052734 A 1.12509 1.12509 0 0 1 33.583984 21.181641 L 27.947266 21.181641 A 1.12509 1.12509 0 0 1 26.818359 20.052734 L 26.818359 14.412109 C 26.818359 13.7899 27.321647 13.289063 27.947266 13.289062 z M 27.947266 26.818359 L 33.583984 26.818359 C 34.209604 26.818359 34.710937 27.321648 34.710938 27.947266 L 34.710938 33.583984 A 1.12509 1.12509 0 0 1 33.583984 34.710938 L 27.947266 34.710938 A 1.12509 1.12509 0 0 1 26.818359 33.583984 L 26.818359 31.095703 L 26.818359 31 L 26.818359 27.947266 C 26.818359 27.320795 27.321647 26.818359 27.947266 26.818359 z "
     transform="scale(0.26458333)"
     id="path821" />
</svg>
