<?xml version="1.0" encoding="UTF-8" standalone="no"?>
<svg
   xmlns:dc="http://purl.org/dc/elements/1.1/"
   xmlns:cc="http://creativecommons.org/ns#"
   xmlns:rdf="http://www.w3.org/1999/02/22-rdf-syntax-ns#"
   xmlns:svg="http://www.w3.org/2000/svg"
   xmlns="http://www.w3.org/2000/svg"
   xmlns:sodipodi="http://sodipodi.sourceforge.net/DTD/sodipodi-0.dtd"
   xmlns:inkscape="http://www.inkscape.org/namespaces/inkscape"
   width="48"
   height="48"
   viewBox="0 0 12.7 12.7"
   version="1.1"
   id="svg12"
   sodipodi:docname="preferences-color.svg"
   inkscape:version="0.92.4 (5da689c313, 2019-01-14)">
  <metadata
     id="metadata18">
    <rdf:RDF>
      <cc:Work
         rdf:about="">
        <dc:format>image/svg+xml</dc:format>
        <dc:type
           rdf:resource="http://purl.org/dc/dcmitype/StillImage" />
        <dc:title></dc:title>
      </cc:Work>
    </rdf:RDF>
  </metadata>
  <defs
     id="defs16" />
  <sodipodi:namedview
     pagecolor="#ffffff"
     bordercolor="#666666"
     borderopacity="1"
     objecttolerance="10"
     gridtolerance="10"
     guidetolerance="10"
     inkscape:pageopacity="0"
     inkscape:pageshadow="2"
     inkscape:window-width="1087"
     inkscape:window-height="480"
     id="namedview14"
     showgrid="false"
     inkscape:zoom="4.9166667"
     inkscape:cx="2.1355932"
     inkscape:cy="24"
     inkscape:window-x="0"
     inkscape:window-y="25"
     inkscape:window-maximized="0"
     inkscape:current-layer="svg12" />
  <g
     transform="translate(0,-284.3)"
     id="g10">
    <path
       d="m 6.344,284.373 a 6.29,6.29 0 0 0 -6.29,6.29 6.29,6.29 0 0 0 6.29,6.289 6.29,6.29 0 0 0 6.29,-6.29 6.29,6.29 0 0 0 -6.29,-6.289 z m -0.018,0.936 a 5.407,5.407 0 0 1 5.407,5.407 5.407,5.407 0 0 1 -5.407,5.407 5.407,5.407 0 0 1 -5.407,-5.407 5.407,5.407 0 0 1 5.407,-5.407 z"
       id="path2"
       inkscape:connector-curvature="0"
       style="fill:#5beedc" />
    <circle
       cx="-8.1359997"
       cy="292.09601"
       r="2.6789999"
       overflow="visible"
       style="color:#000000;overflow:visible;opacity:0.6;fill:#00ffff;marker:none"
       transform="scale(-1,1)"
       id="circle4" />
    <circle
       cx="-4.5640001"
       cy="292.09601"
       r="2.6789999"
       overflow="visible"
       style="color:#000000;overflow:visible;opacity:0.4;fill:#ff00ff;marker:none"
       transform="scale(-1,1)"
       id="circle6" />
    <circle
       cx="-6.3099999"
       cy="288.513"
       r="2.6789999"
       overflow="visible"
       style="color:#000000;overflow:visible;opacity:0.6;fill:#ffff00;marker:none"
       transform="scale(-1,1)"
       id="circle8" />
  </g>
</svg>
