<?xml version="1.0" encoding="UTF-8" standalone="no"?>
<svg
   xmlns:dc="http://purl.org/dc/elements/1.1/"
   xmlns:cc="http://creativecommons.org/ns#"
   xmlns:rdf="http://www.w3.org/1999/02/22-rdf-syntax-ns#"
   xmlns:svg="http://www.w3.org/2000/svg"
   xmlns="http://www.w3.org/2000/svg"
   xmlns:sodipodi="http://sodipodi.sourceforge.net/DTD/sodipodi-0.dtd"
   xmlns:inkscape="http://www.inkscape.org/namespaces/inkscape"
   width="48"
   height="48"
   viewBox="0 0 12.7 12.7"
   version="1.1"
   id="svg4"
   sodipodi:docname="preferences-system-network-server-web.svg"
   inkscape:version="0.92.4 (5da689c313, 2019-01-14)">
  <metadata
     id="metadata10">
    <rdf:RDF>
      <cc:Work
         rdf:about="">
        <dc:format>image/svg+xml</dc:format>
        <dc:type
           rdf:resource="http://purl.org/dc/dcmitype/StillImage" />
        <dc:title></dc:title>
      </cc:Work>
    </rdf:RDF>
  </metadata>
  <defs
     id="defs8" />
  <sodipodi:namedview
     pagecolor="#ffffff"
     bordercolor="#666666"
     borderopacity="1"
     objecttolerance="10"
     gridtolerance="10"
     guidetolerance="10"
     inkscape:pageopacity="0"
     inkscape:pageshadow="2"
     inkscape:window-width="1109"
     inkscape:window-height="480"
     id="namedview6"
     showgrid="false"
     inkscape:zoom="4.9166667"
     inkscape:cx="2.1355932"
     inkscape:cy="24"
     inkscape:window-x="0"
     inkscape:window-y="25"
     inkscape:window-maximized="0"
     inkscape:current-layer="svg4" />
  <path
     d="M 6.344,0.072 A 6.29,6.29 0 0 0 0.05399997,6.362 6.29,6.29 0 0 0 6.344,12.651 6.29,6.29 0 0 0 7.837,12.464 C 7.809,12.39 7.748,12.334 7.748,12.25 V 11.63 A 5.407,5.407 0 0 1 6.326,11.823 5.407,5.407 0 0 1 2.6,10.325 h 2.524 v 0.24 c 0,0.124 0.173,0.225 0.387,0.225 h 1.652 c 0.214,0 0.387,-0.1 0.387,-0.226 V 10.325 H 7.748 V 9.551 H 7.55 V 9.261 C 7.55,9.135 7.376,9.035 7.162,9.035 H 6.802 V 8.44 H 7.748 V 8.28 A 0.66,0.66 0 0 1 7.942,7.812 C 7.954,7.8 7.968,7.791 7.982,7.779 H 4.72 C 4.55,7.779 4.413,7.7 4.413,7.6 V 2.863 c 0,-0.1 0.137,-0.178 0.307,-0.178 h 3.255 c 0.17,0 0.307,0.08 0.307,0.178 V 7.6 c 0,0.012 -0.008,0.022 -0.012,0.034 A 0.67,0.67 0 0 1 8.41,7.619 H 8.827 V 2.24 C 8.827,2.114 8.654,2.013 8.44,2.013 H 4.337 C 4.122,2.013 3.95,2.114 3.95,2.239 v 5.976 c 0,0.125 0.172,0.226 0.387,0.226 h 1.56 V 9.035 H 5.511 c -0.214,0 -0.387,0.1 -0.387,0.225 V 9.55 H 2.196 A 0.954,0.954 0 0 0 1.952,9.583 5.407,5.407 0 0 1 0.91899997,6.416 5.407,5.407 0 0 1 6.326,1.01 5.407,5.407 0 0 1 11.733,6.416 5.407,5.407 0 0 1 11.591,7.62 h 0.788 c 0.043,0 0.07,0.038 0.11,0.046 A 6.29,6.29 0 0 0 12.634,6.362 6.29,6.29 0 0 0 6.344,0.072 Z M 4.956,2.989 A 0.283,0.283 0 0 0 4.673,3.273 v 0.51 c 0,0.157 0.126,0.283 0.283,0.283 H 7.748 A 0.282,0.282 0 0 0 8.031,3.784 V 3.274 A 0.282,0.282 0 0 0 7.748,2.989 Z m 0,1.588 A 0.283,0.283 0 0 0 4.673,4.86 v 0.511 c 0,0.157 0.126,0.283 0.283,0.283 H 7.748 A 0.282,0.282 0 0 0 8.031,5.371 V 4.861 A 0.282,0.282 0 0 0 7.748,4.577 Z m 0,1.587 A 0.283,0.283 0 0 0 4.673,6.448 v 0.51 c 0,0.157 0.126,0.283 0.283,0.283 H 7.748 A 0.282,0.282 0 0 0 8.031,6.959 V 6.449 A 0.282,0.282 0 0 0 7.748,6.164 Z M 8.884,8.149 A 0.603,0.603 0 0 0 8.28,8.753 v 3.025 c 0,0.335 0.27,0.604 0.604,0.604 h 3.024 c 0.335,0 0.605,-0.27 0.605,-0.604 V 8.753 A 0.603,0.603 0 0 0 11.908,8.149 Z m 1.512,0.529 a 1.588,1.588 0 0 1 0,3.175 1.588,1.588 0 0 1 0,-3.175 z m 0,0.265 a 1.325,1.325 0 0 0 -0.24,0.024 c -0.007,0.002 -0.016,-0.001 -0.024,0 L 10.099,8.976 C 10.079,8.98 10.06,8.986 10.041,8.992 V 9 c -0.004,0.01 -0.018,0.014 -0.017,0.025 0,0.013 0.01,0.014 0.017,0.017 A 0.1,0.1 0 0 0 10.082,9.034 C 10.1,9.025 10.109,8.997 10.123,9 c 0.012,0.003 0.024,0.045 0.025,0.058 0.002,0.015 0,0.028 0,0.042 0.002,0.022 0.028,0.013 0.042,0.025 0.004,0.003 0.004,0.02 0.008,0.024 0.006,0.01 0.015,0.007 0.016,0.017 0.003,0.023 -0.018,0.024 -0.016,0.05 -0.005,0.01 -0.017,0.011 -0.017,0.024 0.002,0.022 0.033,0 0.042,0.017 0.004,0.009 -0.005,0.02 -0.009,0.033 0.01,0.012 0.018,0.033 0,0.033 -0.01,0 -0.013,-0.022 -0.024,-0.025 -0.007,-0.003 -0.017,0.003 -0.025,0 -0.007,-10e-4 -0.019,0.003 -0.025,0 C 10.124,9.296 10.108,9.299 10.099,9.29 A 0.442,0.442 0 0 1 10.156,9.232 C 10.163,9.226 10.168,9.218 10.165,9.207 10.154,9.197 10.151,9.209 10.14,9.215 a 0.18,0.18 0 0 1 -0.041,0.017 c -0.022,0.003 -0.057,-0.003 -0.075,0.008 -0.002,0.01 0.02,0.002 0.017,0.017 -0.009,0.002 -0.018,0.006 -0.025,0 C 10.01,9.251 10.02,9.244 10.016,9.24 10.009,9.234 9.978,9.23 9.966,9.232 A 0.03,0.03 0 0 0 9.942,9.257 C 9.958,9.265 9.985,9.253 9.992,9.273 9.982,9.29 9.963,9.293 9.966,9.315 9.967,9.324 9.976,9.337 9.983,9.339 9.99,9.341 9.993,9.331 9.999,9.331 c 0.008,0.001 0.008,0.011 0.017,0.008 0.012,-0.005 0.018,-0.019 0.033,-0.016 0.017,0.021 -0.015,0.026 -0.033,0.033 L 9.95,9.381 C 9.941,9.384 9.913,9.413 9.908,9.389 9.905,9.372 9.921,9.37 9.925,9.356 9.905,9.352 9.885,9.374 9.867,9.381 9.84,9.391 9.799,9.393 9.793,9.422 9.792,9.428 9.797,9.442 9.793,9.447 9.79,9.45 9.768,9.453 9.76,9.455 9.747,9.46 9.734,9.461 9.727,9.464 A 0.069,0.069 0 0 0 9.71,9.472 C 9.7,9.476 9.697,9.487 9.685,9.497 9.68,9.501 9.673,9.501 9.669,9.505 9.662,9.512 9.656,9.527 9.644,9.53 c -0.008,0 -0.018,-0.005 -0.025,0 0,0.017 0.007,0.04 0,0.058 C 9.603,9.6 9.589,9.618 9.569,9.628 9.559,9.635 9.549,9.631 9.536,9.638 9.526,9.642 9.514,9.656 9.503,9.662 9.478,9.677 9.445,9.69 9.445,9.728 c 0,0.008 0.008,0.015 0.009,0.025 v 0.025 c 0.002,0.013 0.011,0.031 0,0.041 C 9.436,9.812 9.408,9.807 9.396,9.794 9.392,9.781 9.406,9.764 9.404,9.753 9.403,9.743 9.387,9.731 9.379,9.728 9.371,9.727 9.371,9.736 9.363,9.736 9.353,9.736 9.334,9.722 9.321,9.72 9.303,9.717 9.292,9.722 9.271,9.72 9.251,9.73 9.246,9.756 9.222,9.753 9.213,9.753 9.208,9.739 9.197,9.736 H 9.19 A 1.3,1.3 0 0 0 9.107,9.984 c 0,0.006 -0.007,0.01 -0.008,0.017 v 0.008 c 0.005,0 0.012,0.003 0.017,0 A 0.242,0.242 0 0 0 9.149,10.001 C 9.178,9.991 9.169,9.956 9.199,9.943 9.211,9.937 9.226,9.937 9.248,9.935 9.255,9.941 9.266,9.951 9.265,9.96 9.264,9.966 9.251,9.975 9.248,9.984 c -0.003,0.01 0.003,0.018 0,0.025 -0.004,0.01 -0.022,0.017 -0.025,0.025 -0.002,0.006 0.002,0.012 0,0.017 -0.003,0.008 -0.013,0.015 -0.008,0.024 0.028,0.011 0.058,-0.004 0.083,0 0.01,0.002 0.041,0.009 0.04,0.025 0,0.012 -0.015,0.028 -0.016,0.041 -10e-4,0.017 -0.007,0.037 -0.008,0.05 0,0.022 0.035,0.058 0.058,0.058 0.025,0 0.044,-0.021 0.074,-0.008 0.01,0.004 0.014,0.016 0.025,0.016 0.01,0 0.019,-0.022 0.025,-0.033 a 0.049,0.049 0 0 1 0.025,-0.025 c 0.014,-0.007 0.031,-0.01 0.05,-0.016 0.008,-0.003 0.017,-0.004 0.024,-0.008 0.007,-0.004 0.009,-0.016 0.017,-0.009 0.01,0.01 -0.017,0.014 -0.008,0.025 0.018,0.01 0.028,-0.016 0.04,-0.016 0.005,0 0.018,0.01 0.026,0.016 0.01,0.007 0.013,0.014 0.024,0.017 0.008,0 0.023,-0.011 0.034,-0.009 0.013,0.002 0.022,0.025 0.033,0.025 0.012,0 0.022,-0.022 0.033,-0.025 0.023,-0.004 0.03,0.01 0.041,0.025 0.011,0.002 0.006,-0.013 0.017,-0.008 -0.006,0.012 0.003,0.015 0.008,0.025 0.002,0.006 0.005,0.005 0.008,0.008 0.006,0.006 0.016,0.01 0.025,0.017 0.01,0.006 0.014,0.02 0.025,0.033 a 0.094,0.094 0 0 0 0.05,0.024 c 0.014,0.003 0.028,-0.002 0.04,0 a 0.099,0.099 0 0 1 0.059,0.025 c 0.01,0.008 0.02,0.015 0.024,0.025 0.003,0.007 -0.002,0.025 0,0.033 0.006,0.017 0.034,0.021 0.025,0.05 0.004,0.008 0.015,0.01 0.025,0.016 0.008,0.005 0.017,0.006 0.025,0.008 0.005,0.003 0.012,0 0.016,0 0.015,0.002 0.02,0.012 0.033,0.017 0.008,0.003 0.02,0.005 0.025,0.008 0.007,0.005 0.008,0.021 0.017,0.025 0.005,0.003 0.024,-0.002 0.033,0 0.014,0.002 0.028,0.008 0.041,0.008 h 0.017 c 0.032,0.003 0.06,0.038 0.09,0.05 0.01,0.003 0.019,0.005 0.025,0.008 0.012,0.005 0.024,0.042 0.025,0.058 0.003,0.048 -0.036,0.06 -0.058,0.091 -0.004,0.007 -0.01,0.024 -0.016,0.033 -0.013,0.019 -0.027,0.015 -0.025,0.05 0,0.01 0.008,0.014 0.008,0.025 a 0.298,0.298 0 0 1 -0.008,0.05 c -0.002,0.008 0.001,0.016 0,0.024 v 0.017 c -10e-4,0.007 -0.01,0.022 -0.017,0.033 -0.012,0.022 -0.016,0.04 -0.04,0.05 -0.016,0.005 -0.035,0.01 -0.05,0.016 -0.007,0.002 -0.017,0.004 -0.025,0.008 -0.023,0.01 -0.06,0.026 -0.066,0.05 -0.006,0.02 0.012,0.042 0.008,0.066 -0.004,0.007 -0.002,0.008 -0.008,0.016 -0.006,0.008 -0.02,0.018 -0.025,0.025 -0.008,0.01 -0.02,0.02 -0.025,0.033 -0.002,0.005 0.002,0.001 0,0.008 0,0.003 -0.006,0.012 -0.009,0.017 -0.002,0.005 0.002,0.013 0,0.017 -0.006,0.012 -0.028,0.037 -0.041,0.04 -0.027,0.009 -0.056,-0.011 -0.075,-0.007 0.003,0.013 0.019,0.015 0.025,0.024 0.004,0.006 -0.005,0.011 0,0.017 0.006,0.007 0.016,0.009 0.017,0.016 10e-4,0.017 -0.008,0.036 -0.017,0.042 -0.008,0.004 -0.027,0.005 -0.041,0.008 -0.01,0.002 -0.037,0.002 -0.041,0.008 -0.007,0.01 0.005,0.032 0,0.042 -0.01,0.02 -0.037,-0.006 -0.05,0 0,0.005 0.006,0.012 0.008,0.016 0.07,0.028 0.14,0.06 0.215,0.075 a 1.308,1.308 0 0 0 0.265,0.025 1.319,1.319 0 0 0 0.28,-0.025 1.307,1.307 0 0 0 0.456,-0.199 1.377,1.377 0 0 0 0.198,-0.165 l 0.025,-0.025 c -0.015,0.003 -0.035,0.006 -0.05,0 0.006,-0.018 0.017,-0.023 0.026,-0.05 0.006,-0.022 0.02,-0.055 0,-0.066 0.004,-0.033 -0.005,-0.037 0,-0.099 0.002,-0.046 -0.026,-0.076 -0.025,-0.124 0,-0.02 0.019,-0.034 0.032,-0.05 0.03,-0.049 0.044,-0.08 0.05,-0.124 -0.003,-0.01 0.003,-0.017 0,-0.024 -0.014,-0.03 -0.022,-0.053 -0.041,-0.075 -0.011,-0.012 -0.024,-0.022 -0.033,-0.033 a 0.089,0.089 0 0 1 -0.017,-0.033 c 0,-0.008 0.007,-0.017 0.009,-0.025 0.002,-0.01 -0.004,-0.026 0,-0.041 10e-4,-0.007 0.018,-0.022 0.016,-0.033 -0.001,-0.011 -0.019,-0.03 -0.033,-0.033 -0.018,-0.005 -0.034,0.002 -0.058,0 -0.02,-0.013 -0.02,-0.046 -0.05,-0.05 a 0.214,0.214 0 0 0 -0.107,0.025 c -0.015,0.006 -0.028,0.006 -0.041,0.008 -0.013,10e-4 -0.03,-0.005 -0.041,-0.008 -0.016,-0.002 -0.034,0.006 -0.05,0.008 -0.015,0.003 -0.028,0.014 -0.041,0.017 -0.026,0.002 -0.05,-0.029 -0.067,-0.042 l -0.024,-0.016 c -0.01,-0.008 -0.026,-0.01 -0.033,-0.017 -0.01,-0.01 -0.011,-0.036 -0.017,-0.05 -0.007,-0.015 -0.026,-0.026 -0.041,-0.04 -0.011,-0.012 -0.039,-0.028 -0.042,-0.042 0,-0.007 0.01,-0.017 0.009,-0.025 -10e-4,-0.011 -0.017,-0.016 -0.017,-0.025 0,-0.011 0.013,-0.023 0.017,-0.033 0.001,-0.005 -0.002,-0.01 0,-0.016 0.003,-0.014 0.018,-0.022 0.016,-0.042 0,-0.007 -0.008,-0.014 -0.008,-0.024 0,-0.007 0.009,-0.01 0.008,-0.017 0,-0.011 -0.015,-0.012 -0.016,-0.025 C 10.685,9.938 10.695,9.925 10.703,9.91 10.707,9.903 10.708,9.89 10.711,9.885 10.719,9.875 10.731,9.871 10.736,9.86 10.74,9.852 10.741,9.842 10.745,9.836 10.749,9.828 10.76,9.821 10.769,9.811 10.777,9.802 10.781,9.79 10.786,9.786 10.792,9.781 10.804,9.781 10.811,9.778 a 0.097,0.097 0 0 0 0.05,-0.05 c -0.004,-0.021 0.007,-0.026 0.016,-0.041 0.008,-0.014 0.01,-0.034 0.025,-0.042 0.016,-0.01 0.038,-0.007 0.05,-0.024 A 0.069,0.069 0 0 0 10.96,9.588 c 0,-0.014 -0.014,-0.03 -0.025,-0.034 -0.012,-0.002 -0.026,0.013 -0.033,0 -0.002,-0.004 0,-0.011 0,-0.016 -0.002,-0.01 -0.017,-0.019 -0.017,-0.025 0,-0.012 0.021,-0.027 0.025,-0.041 0.005,-0.02 10e-4,-0.036 0,-0.058 0.018,-0.03 0.058,-0.011 0.1,-0.008 h 0.016 c 0.024,0 0.05,0.004 0.058,-0.017 a 0.156,0.156 0 0 0 0,-0.05 0.082,0.082 0 0 0 -0.025,-0.033 C 11.045,9.298 11.017,9.305 11.009,9.29 c 0.006,-0.026 0.04,-0.01 0.058,-0.017 0.009,-0.003 0.009,-0.014 0.017,-0.016 0.005,-0.002 0.016,0.008 0.024,0.008 0.006,0 0.019,-0.02 0.025,-0.025 l 0.025,-0.016 0.016,-0.009 c 0.004,0 0.006,-0.005 0.009,-0.008 L 11.158,9.191 c 0.002,0.012 -0.027,0.01 -0.025,0.024 -0.018,0.016 -0.045,0.013 -0.074,0.017 -0.014,0.003 -0.027,0.011 -0.042,0 C 11.014,9.223 11.033,9.224 11.034,9.215 11.033,9.208 11.02,9.205 11.017,9.199 11.021,9.189 11.035,9.189 11.034,9.174 11.041,9.166 11.057,9.168 11.059,9.158 11.06,9.15 11.049,9.145 11.042,9.141 11.038,9.139 11.039,9.135 11.034,9.133 11.021,9.126 11.017,9.111 11.009,9.108 V 9.1 C 10.976,9.082 10.945,9.065 10.909,9.05 A 1.375,1.375 0 0 0 10.711,8.984 C 10.674,8.974 10.642,8.965 10.604,8.959 L 10.563,8.951 H 10.53 A 1.281,1.281 0 0 0 10.397,8.943 Z M 9.859,9.067 C 9.807,9.09 9.758,9.111 9.71,9.141 L 9.693,9.149 C 9.691,9.152 9.685,9.155 9.685,9.158 9.695,9.171 9.677,9.171 9.677,9.182 c 0,0.01 0.015,0.025 0.025,0.025 C 9.715,9.208 9.737,9.196 9.743,9.182 9.749,9.166 9.739,9.144 9.751,9.132 9.805,9.134 9.851,9.115 9.859,9.067 Z m 1.108,0.05 c 0.016,-0.002 0.04,0.006 0.041,0.016 0.001,0.01 -0.013,0.013 -0.016,0.025 -0.004,0.01 -0.005,0.017 -0.01,0.024 -0.003,0.006 -0.008,0.006 -0.016,0.009 -0.016,0.003 -0.044,0.03 -0.058,0.008 0.002,-0.012 0.005,-0.015 0.01,-0.025 0,-0.008 -0.01,-0.008 -0.01,-0.016 0.002,-0.01 0.015,-0.013 0.025,-0.017 0.008,-0.003 0.015,-0.01 0.025,-0.016 0.004,-0.003 0.004,-0.006 0.009,-0.009 z M 9.52,9.282 9.478,9.322 c 0.003,0.003 0.006,0.01 0.009,0.01 A 0.137,0.137 0 0 0 9.528,9.322 C 9.55,9.313 9.532,9.292 9.52,9.282 Z m 0.05,0.05 C 9.559,9.33 9.548,9.343 9.545,9.348 v 0.016 c -0.014,0.01 -0.005,0.039 0.008,0.042 0.013,0 0.023,-0.039 0.041,-0.042 0.007,0 0.008,0.011 0.017,0.009 0.01,-0.009 0.003,-0.03 -0.008,-0.034 -0.005,0 -0.01,0.009 -0.017,0.009 -0.008,0 -0.01,-0.017 -0.017,-0.017 z M 9.501,9.339 A 0.065,0.065 0 0 0 9.471,9.348 C 9.464,9.352 9.46,9.365 9.454,9.373 L 9.437,9.389 C 9.432,9.395 9.4,9.434 9.421,9.439 9.43,9.44 9.452,9.421 9.454,9.414 9.46,9.39 9.476,9.376 9.495,9.364 9.505,9.358 9.51,9.354 9.512,9.339 c -0.002,-0.002 -0.005,0 -0.009,0 a 0.065,0.065 0 0 0 -0.002,0 z m 1.797,0.042 a 0.065,0.065 0 0 0 -0.025,0.008 c -0.007,0.004 -0.01,0.012 -0.017,0.017 -0.008,0.003 -0.018,0 -0.025,0 -0.016,0 -0.027,-0.004 -0.041,0 a 0.034,0.034 0 0 0 -0.017,0.008 c 0,0.008 0.002,0.008 0,0.016 C 11.169,9.438 11.158,9.442 11.149,9.447 11.135,9.454 11.127,9.469 11.116,9.48 11.109,9.487 11.1,9.491 11.099,9.497 v 0.016 c -10e-4,0.006 -0.017,0.02 -0.025,0.025 -0.005,0.003 -0.003,0.006 -0.009,0.008 -0.01,0.007 -0.016,0.014 -0.024,0.017 -0.023,0.004 -0.066,-0.008 -0.066,0.016 0,0.016 0.02,0.025 0.033,0.025 0.018,-0.003 0.03,0.003 0.04,0 0.008,-0.002 0.019,-0.013 0.026,-0.016 A 0.109,0.109 0 0 0 11.09,9.579 l 0.017,-0.008 a 0.166,0.166 0 0 1 0.05,-0.017 c 0.017,-0.002 0.034,0.003 0.057,0 h 0.1 c 0.01,10e-4 0.022,0.002 0.024,0.009 0.002,0.004 0,0.01 0,0.016 0.002,0.01 0.01,0.019 0.01,0.025 -0.001,0.008 -0.029,0.015 -0.026,0.025 a 0.085,0.085 0 0 0 0.025,0.025 c 0.008,0.003 0.024,-0.003 0.033,0 0.008,0.002 0.01,0 0.017,0 a 0.133,0.133 0 0 1 0.041,0.016 c 0.013,0.009 0.01,0.029 0.025,0.033 0.006,0.003 0.017,-0.002 0.025,0 0.019,0.005 0.036,0.02 0.05,0.017 C 11.56,9.717 11.551,9.693 11.554,9.678 11.556,9.668 11.559,9.665 11.57,9.662 11.561,9.644 11.547,9.63 11.537,9.612 11.517,9.576 11.495,9.539 11.471,9.505 c 0,0.013 -0.012,0.036 -0.025,0.033 A 0.051,0.051 0 0 1 11.43,9.563 c -0.022,-0.004 -0.04,-0.01 -0.05,-0.025 0.007,-0.006 0.022,0 0.033,0 h 0.033 C 11.445,9.53 11.455,9.522 11.455,9.513 11.454,9.496 11.422,9.471 11.405,9.463 11.397,9.46 11.388,9.451 11.38,9.447 A 0.161,0.161 0 0 1 11.339,9.414 C 11.329,9.401 11.319,9.378 11.298,9.381 Z M 9.636,9.389 C 9.627,9.39 9.62,9.391 9.619,9.397 c 0.014,0.007 0.054,0.01 0.058,-0.008 -0.003,-0.003 -0.01,0 -0.017,0 z M 9.578,9.422 C 9.564,9.422 9.548,9.428 9.536,9.43 9.527,9.432 9.509,9.425 9.512,9.439 9.513,9.449 9.526,9.45 9.536,9.447 9.555,9.441 9.566,9.431 9.578,9.422 Z m 1.72,0 c 0.002,-0.002 0.004,-0.004 0.008,0 0.001,0.012 -0.002,0.021 -0.008,0.025 -0.013,-0.003 -0.01,-0.022 0,-0.025 z m -0.017,0.042 c 0.004,-0.004 0.012,0.002 0.017,0 0.012,-0.004 0.021,0.005 0.016,0.033 -0.004,0.01 -0.025,0.024 -0.033,0.008 0.003,-0.013 0,-0.027 0,-0.041 z m -2.191,0.62 a 1.25,1.25 0 0 0 -0.017,0.182 1.325,1.325 0 0 0 0.025,0.24 1.328,1.328 0 0 0 0.075,0.256 l 0.008,0.016 a 1.276,1.276 0 0 0 0.116,0.215 c 0.003,0.005 0.004,0.011 0.008,0.017 a 1.376,1.376 0 0 0 0.132,0.165 L 9.462,11.2 a 1.377,1.377 0 0 0 0.198,0.165 l 0.025,0.017 c 0.002,-0.005 0,-0.01 0,-0.017 V 11.349 C 9.686,11.339 9.693,11.332 9.693,11.324 9.695,11.309 9.688,11.278 9.685,11.266 9.682,11.251 9.671,11.241 9.669,11.225 9.668,11.219 9.677,11.208 9.677,11.2 c 0,-0.008 -0.008,-0.009 -0.008,-0.017 a 0.157,0.157 0 0 1 0,-0.025 v -0.074 c 0,-0.014 -0.008,-0.02 -0.009,-0.033 0,-0.025 0.005,-0.043 0,-0.066 C 9.657,10.967 9.658,10.938 9.652,10.927 A 0.187,0.187 0 0 0 9.602,10.886 C 9.593,10.88 9.579,10.883 9.569,10.877 9.548,10.867 9.505,10.841 9.495,10.819 9.492,10.813 9.498,10.802 9.495,10.795 9.489,10.781 9.471,10.775 9.462,10.762 9.446,10.736 9.437,10.705 9.421,10.679 9.412,10.666 9.405,10.649 9.396,10.638 9.39,10.631 9.373,10.622 9.371,10.613 9.368,10.601 9.361,10.589 9.363,10.58 c 0.002,-0.013 0.025,-0.022 0.025,-0.033 0,-0.01 -0.014,-0.017 -0.017,-0.025 -0.007,-0.02 0.009,-0.033 0.017,-0.05 a 0.12,0.12 0 0 1 0.008,-0.016 c 0.005,-0.008 0.01,-0.009 0.016,-0.017 0.004,-0.004 0.004,-0.018 0.009,-0.025 0.01,-0.013 0.028,-0.012 0.033,-0.024 a 0.25,0.25 0 0 0 0,-0.075 C 9.451,10.305 9.441,10.299 9.437,10.29 9.431,10.274 9.429,10.249 9.412,10.249 c -0.01,0 -0.018,0.01 -0.024,0.017 -0.002,0.009 10e-4,0.021 -0.009,0.024 -0.015,0.005 -0.024,-0.02 -0.041,-0.024 -0.007,-0.003 -0.012,0.002 -0.017,0 C 9.309,10.26 9.301,10.248 9.288,10.241 A 0.083,0.083 0 0 1 9.264,10.216 c -0.003,-0.006 0,-0.016 0,-0.025 C 9.249,10.183 9.231,10.157 9.214,10.15 A 0.42,0.42 0 0 0 9.173,10.133 c -0.007,-0.002 -0.01,0.003 -0.017,0 A 0.124,0.124 0 0 1 9.131,10.125 C 9.113,10.116 9.105,10.097 9.09,10.084 Z m 0.513,0.14 c -0.01,0.005 -0.01,0.02 0,0.017 0.01,-0.002 0.012,-0.023 0,-0.017 z"
     id="path2"
     inkscape:connector-curvature="0"
     style="fill:#5beedc" />
</svg>
