<svg xmlns="http://www.w3.org/2000/svg" width="48" height="48" viewBox="0 0 12.7 12.7"><path d="M6.34.07a6.29 6.29 0 0 0-6.29 6.3 6.29 6.29 0 0 0 6.3 6.28 6.29 6.29 0 0 0 6.28-6.29A6.29 6.29 0 0 0 6.34.07zm-.01.94a5.4 5.4 0 0 1 5.4 5.4 5.4 5.4 0 0 1-5.4 5.41 5.4 5.4 0 0 1-5.41-5.4A5.4 5.4 0 0 1 6.32 1zM4.89 2.58c-.45 0-.84.07-1.17.21A2.17 2.17 0 0 0 2.4 4.27a4.21 4.21 0 0 0-.04 2.24c.1.31.22.6.4.84a2.19 2.19 0 0 0 1.56.92c.03.33.1.61.22.84a1.81 1.81 0 0 0 1.08.9c.23.07.45.1.69.1h.56v-.45h-.12c-.13 0-.26-.02-.39-.06a.84.84 0 0 1-.34-.22c-.1-.1-.19-.25-.26-.43a2.55 2.55 0 0 1-.14-.71 2.29 2.29 0 0 0 1.41-.96c.16-.24.28-.51.36-.82a3.86 3.86 0 0 0-.05-2.19 2.46 2.46 0 0 0-.5-.9c-.23-.25-.5-.44-.83-.58-.33-.14-.7-.2-1.12-.2zm0 .51c.24 0 .45.06.61.16.17.1.3.26.41.46.1.2.18.45.23.74a6.18 6.18 0 0 1 0 2c-.05.29-.12.54-.23.74-.1.2-.24.35-.41.46-.17.1-.37.16-.62.16-.24 0-.44-.06-.61-.16a1.2 1.2 0 0 1-.42-.46c-.1-.2-.18-.45-.23-.74a6.18 6.18 0 0 1 0-2c.05-.3.12-.54.23-.74.1-.2.25-.35.42-.46.17-.1.37-.16.62-.16zm3.85 0c-.07.35-.19.6-.35.77a1 1 0 0 1-.77.33v.4h.59v2.5c0 .23.02.42.08.58.05.15.13.27.23.37.1.1.22.17.36.21.14.04.3.07.47.07a3.6 3.6 0 0 0 .94-.13l.17-.07v-.5l-.26.05c-.09.02-.19.02-.3.02-.17 0-.3-.05-.39-.16-.08-.11-.11-.29-.11-.52V4.6h.99v-.54h-1v-.97h-.65zM9.5 6.7z" fill="#5beedc"/></svg>
