<svg xmlns="http://www.w3.org/2000/svg" width="48" height="48" viewBox="0 0 12.7 12.7"><path d="M6.34.07a6.29 6.29 0 0 0-6.29 6.3 6.29 6.29 0 0 0 6.3 6.28 6.29 6.29 0 0 0 4.97-2.45c-.05.02-.1.06-.16.07a2.3 2.3 0 0 1-.78-.02c-.07 0-.13-.04-.2-.05a5.4 5.4 0 0 1-3.85 1.62 5.4 5.4 0 0 1-5.41-5.4A5.4 5.4 0 0 1 6.32 1a5.4 5.4 0 0 1 5.41 5.4 5.4 5.4 0 0 1-.54 2.34c.24.17.48.31.72.4h.06a6.29 6.29 0 0 0 .66-2.79A6.29 6.29 0 0 0 6.34.07z" fill="#5beedc"/><path d="M4.25 6.25l-2.85.37L1.3 9.6C6.22 6.45 9.4 11.54 12.6 9.5c-2.56 0-4.7-3.87-7.84-2.88z" fill="#5beedc" fill-rule="evenodd" opacity=".75"/><path d="M1.78 3.27a5.22 5.22 0 0 0-.41 6.03C5.4 4.3 7.52 7.84 10.75 5.12 7.85 5.7 7 2.1 1.78 3.27" fill="#5beedc" fill-rule="evenodd"/></svg>
