<?xml version="1.0" encoding="UTF-8" standalone="no"?>
<svg
   xmlns:dc="http://purl.org/dc/elements/1.1/"
   xmlns:cc="http://creativecommons.org/ns#"
   xmlns:rdf="http://www.w3.org/1999/02/22-rdf-syntax-ns#"
   xmlns:svg="http://www.w3.org/2000/svg"
   xmlns="http://www.w3.org/2000/svg"
   xmlns:sodipodi="http://sodipodi.sourceforge.net/DTD/sodipodi-0.dtd"
   xmlns:inkscape="http://www.inkscape.org/namespaces/inkscape"
   width="48"
   height="48"
   viewBox="0 0 12.7 12.7"
   version="1.1"
   id="svg6"
   sodipodi:docname="r.svg"
   inkscape:version="0.92.4 (5da689c313, 2019-01-14)">
  <metadata
     id="metadata12">
    <rdf:RDF>
      <cc:Work
         rdf:about="">
        <dc:format>image/svg+xml</dc:format>
        <dc:type
           rdf:resource="http://purl.org/dc/dcmitype/StillImage" />
        <dc:title></dc:title>
      </cc:Work>
    </rdf:RDF>
  </metadata>
  <defs
     id="defs10" />
  <sodipodi:namedview
     pagecolor="#ffffff"
     bordercolor="#666666"
     borderopacity="1"
     objecttolerance="10"
     gridtolerance="10"
     guidetolerance="10"
     inkscape:pageopacity="0"
     inkscape:pageshadow="2"
     inkscape:window-width="1112"
     inkscape:window-height="480"
     id="namedview8"
     showgrid="false"
     inkscape:zoom="4.9166667"
     inkscape:cx="2.1355932"
     inkscape:cy="24"
     inkscape:window-x="0"
     inkscape:window-y="25"
     inkscape:window-maximized="0"
     inkscape:current-layer="svg6" />
  <path
     d="M 7.373,2.876 A 4.317,3.431 17.344 0 0 2.229,4.865 4.317,3.431 17.344 0 0 5.327,9.427 4.317,3.431 17.344 0 0 10.471,7.438 4.317,3.431 17.344 0 0 7.373,2.876 M 7.58,4.204 A 3.22,2.558 17.344 0 1 9.89,7.606 3.22,2.558 17.344 0 1 6.055,9.087 3.22,2.558 17.344 0 1 3.745,5.687 3.22,2.558 17.344 0 1 7.58,4.203"
     id="path2"
     inkscape:connector-curvature="0"
     style="color:#000000;opacity:0.5;fill:#5beedc;fill-rule:evenodd" />
  <path
     d="m 6.34,0.07 a 6.29,6.29 0 0 0 0,12.58 6.29,6.29 0 0 0 0,-12.58 z M 6.32,1 A 5.417,5.417 0 0 1 11.73,6.41 5.4,5.4 0 0 1 6.33,11.82 5.4,5.4 0 0 1 0.92,6.42 5.4,5.4 0 0 1 6.32,1 Z M 5.788,5.427 v 4.64 H 6.99 V 8.25 h 0.175 c 0.077,0 0.11,0.023 0.188,0.086 0.093,0.076 0.246,0.337 0.246,0.337 l 0.943,1.395 1.384,-10e-4 C 9.763,9.796 8.606,8.247 8.462,8.188 c 0,0 1.05,-0.344 1.025,-1.515 C 9.466,5.623 8.405,5.427 8.405,5.427 Z m 1.214,1.005 h 0.85 v 10e-4 c 0,0 0.393,-0.021 0.393,0.387 0,0.4 -0.393,0.401 -0.393,0.401 h -0.85 z"
     id="path4"
     inkscape:connector-curvature="0"
     style="fill:#5beedc" />
</svg>
