<?xml version="1.0" encoding="UTF-8" standalone="no"?>
<svg
   xmlns:dc="http://purl.org/dc/elements/1.1/"
   xmlns:cc="http://creativecommons.org/ns#"
   xmlns:rdf="http://www.w3.org/1999/02/22-rdf-syntax-ns#"
   xmlns:svg="http://www.w3.org/2000/svg"
   xmlns="http://www.w3.org/2000/svg"
   xmlns:sodipodi="http://sodipodi.sourceforge.net/DTD/sodipodi-0.dtd"
   xmlns:inkscape="http://www.inkscape.org/namespaces/inkscape"
   width="48"
   height="48"
   viewBox="0 0 12.7 12.7"
   version="1.1"
   id="svg4"
   sodipodi:docname="recstudio.svg"
   inkscape:version="0.92.5 (2060ec1f9f, 2020-04-08)">
  <metadata
     id="metadata10">
    <rdf:RDF>
      <cc:Work
         rdf:about="">
        <dc:format>image/svg+xml</dc:format>
        <dc:type
           rdf:resource="http://purl.org/dc/dcmitype/StillImage" />
        <dc:title></dc:title>
      </cc:Work>
    </rdf:RDF>
  </metadata>
  <defs
     id="defs8" />
  <sodipodi:namedview
     pagecolor="#ffffff"
     bordercolor="#666666"
     borderopacity="1"
     objecttolerance="10"
     gridtolerance="10"
     guidetolerance="10"
     inkscape:pageopacity="0"
     inkscape:pageshadow="2"
     inkscape:window-width="1085"
     inkscape:window-height="480"
     id="namedview6"
     showgrid="false"
     inkscape:zoom="4.9166667"
     inkscape:cx="2.1355932"
     inkscape:cy="24"
     inkscape:window-x="0"
     inkscape:window-y="25"
     inkscape:window-maximized="0"
     inkscape:current-layer="svg4" />
  <path
     d="M 6.34,0.07 A 6.29,6.29 0 0 0 0.05,6.37 6.29,6.29 0 0 0 6.35,12.65 6.29,6.29 0 0 0 12.63,6.36 6.29,6.29 0 0 0 6.34,0.07 Z M 6.33,1 V 1.01 A 5.4,5.4 0 0 1 7.86,1.24 V 1.23 a 5.4,5.4 0 0 1 0.28,0.1 5.4,5.4 0 0 1 0.98,0.46 5.4,5.4 0 0 1 0.32,0.2 L 9.442,2.008 A 5.4,5.4 0 0 1 9.878,2.351 H 9.88 a 5.4,5.4 0 0 1 0.022,0.02 5.4,5.4 0 0 1 0.17,0.152 0.77,0.77 0 0 0 0.008,-0.003 l -0.005,0.005 a 5.4,5.4 0 0 1 0.005,0.005 5.4,5.4 0 0 1 1.09,1.49 5.4,5.4 0 0 1 0.14,0.31 L 11.307,4.338 A 5.4,5.4 0 0 1 11.65,5.5 0.36,0.36 0 0 1 11.33,5.32 1.13,1.13 0 0 1 11.23,4.76 c 0,-0.196 0.03,-0.314 0.077,-0.422 A 5.4,5.4 0 0 0 11.17,4.02 l -0.05,0.04 c -0.13,0.16 -0.19,0.4 -0.19,0.7 0,0.3 0.06,0.54 0.19,0.7 a 0.6,0.6 0 0 0 0.23,0.18 c 0.1,0.04 0.2,0.06 0.32,0.06 a 5.4,5.4 0 0 1 0.06,0.72 5.4,5.4 0 0 1 -0.02,0.52 5.4,5.4 0 0 1 -0.03,0.2 5.4,5.4 0 0 1 -0.34,1.3 1.13,1.13 0 0 1 -0.12,-0.56 c 0,-0.25 0.04,-0.44 0.11,-0.56 a 0.37,0.37 0 0 1 0.34,-0.2 v 0.02 a 5.4,5.4 0 0 0 0.04,-0.2 h -0.04 a 0.77,0.77 0 0 0 -0.32,0.05 0.6,0.6 0 0 0 -0.23,0.19 c -0.13,0.16 -0.19,0.4 -0.19,0.7 0,0.3 0.06,0.54 0.19,0.7 0.03,0.04 0.08,0.06 0.11,0.09 A 5.4,5.4 0 0 1 11.084,8.948 2.91,2.91 0 0 0 8.181,6.198 2.91,2.91 0 0 0 6.213,6.97 H 6 L 5.49,7.05 V 7.28 L 5.998,7.19 a 2.91,2.91 0 0 0 -0.727,1.919 2.91,2.91 0 0 0 0.27,1.216 c -0.123,0.16 -0.181,0.393 -0.181,0.685 0,0.3 0.06,0.54 0.19,0.7 l 0.1,0.07 v -0.01 a 5.4,5.4 0 0 0 0.4,0.04 5.4,5.4 0 0 1 -0.4,-0.03 5.4,5.4 0 0 1 -1.22,-0.3 V 10.1 H 4.14 l -0.5,0.09 v 0.22 l 0.5,-0.09 v 1.05 A 5.4,5.4 0 0 1 2.57,10.31 V 10.1 H 2.37 A 5.4,5.4 0 0 1 0.91,6.42 5.4,5.4 0 0 1 0.99,5.52 L 1.06,5.46 C 1.19,5.3 1.26,5.06 1.26,4.76 1.26,4.7 1.22,4.68 1.22,4.64 a 5.4,5.4 0 0 1 1.32,-2.1 5.4,5.4 0 0 1 0.02,0 5.4,5.4 0 0 0 -0.01,0.01 L 2.7,2.52 A 0.6,0.6 0 0 0 2.93,2.34 C 2.957,2.303 2.953,2.236 2.967,2.194 A 5.4,5.4 0 0 1 4.817,1.227 5.4,5.4 0 0 0 4.63,1.29 C 4.66,1.4 4.7,1.49 4.7,1.64 4.7,1.89 4.66,2.07 4.58,2.2 A 0.36,0.36 0 0 1 4.25,2.39 0.37,0.37 0 0 1 3.92,2.19 C 3.84,2.08 3.81,1.89 3.81,1.64 A 5.4,5.4 0 0 0 3.56,1.79 C 3.58,2 3.61,2.21 3.7,2.34 a 0.6,0.6 0 0 0 0.24,0.18 c 0.09,0.04 0.2,0.06 0.31,0.06 0.12,0 0.22,-0.02 0.32,-0.06 A 0.6,0.6 0 0 0 4.8,2.34 C 4.92,2.18 4.98,1.94 4.98,1.64 4.98,1.45 4.92,1.34 4.88,1.21 H 4.875 A 5.4,5.4 0 0 1 6.33,1 Z m 3.745,1.525 A 5.4,5.4 0 0 0 10.072,2.523 0.77,0.77 0 0 1 10.065,2.525 5.4,5.4 0 0 1 10.07,2.53 Z m -0.01,0 A 5.4,5.4 0 0 0 9.902,2.371 5.4,5.4 0 0 0 9.878,2.351 C 9.85,2.353 9.839,2.39 9.81,2.39 A 0.37,0.37 0 0 1 9.48,2.19 C 9.452,2.153 9.45,2.075 9.442,2.008 A 5.4,5.4 0 0 0 9.12,1.79 C 9.14,2.01 9.17,2.21 9.26,2.34 A 0.6,0.6 0 0 0 9.5,2.52 0.77,0.77 0 0 0 10.065,2.525 Z M 8.14,1.33 A 5.4,5.4 0 0 0 7.86,1.24 V 2.33 H 7.39 V 2.55 H 8.6 V 2.34 H 8.13 v -1 z M 6.3,1.01 A 5.4,5.4 0 0 0 6.01,1.02 V 2.34 H 5.54 v 0.2 H 6.77 V 2.34 H 6.3 Z M 2.68,2.433 A 5.4,5.4 0 0 0 2.562,2.538 5.4,5.4 0 0 1 2.57,2.53 5.4,5.4 0 0 1 2.68,2.433 Z M 2.41,3.81 a 0.77,0.77 0 0 0 -0.02,0 0.77,0.77 0 0 0 -0.31,0.06 0.6,0.6 0 0 0 -0.23,0.19 c -0.13,0.16 -0.2,0.4 -0.2,0.7 0,0.3 0.07,0.54 0.2,0.7 A 0.6,0.6 0 0 0 2.08,5.64 C 2.17,5.68 2.28,5.7 2.39,5.7 2.51,5.7 2.62,5.68 2.71,5.64 A 0.6,0.6 0 0 0 2.94,5.46 C 3.07,5.3 3.13,5.06 3.13,4.76 3.13,4.46 3.07,4.22 2.93,4.06 A 0.6,0.6 0 0 0 2.71,3.87 0.77,0.77 0 0 0 2.41,3.81 Z m 7.43,0 a 0.77,0.77 0 0 0 -0.02,0 0.77,0.77 0 0 0 -0.31,0.06 0.6,0.6 0 0 0 -0.24,0.19 c -0.12,0.16 -0.18,0.4 -0.18,0.7 0,0.3 0.06,0.54 0.18,0.7 a 0.6,0.6 0 0 0 0.24,0.18 c 0.09,0.04 0.2,0.06 0.31,0.06 0.12,0 0.22,-0.02 0.32,-0.06 a 0.6,0.6 0 0 0 0.23,-0.18 c 0.12,-0.16 0.19,-0.4 0.19,-0.7 0,-0.3 -0.07,-0.54 -0.2,-0.7 A 0.6,0.6 0 0 0 10.14,3.87 0.77,0.77 0 0 0 9.84,3.81 Z m -3.73,0 A 0.77,0.77 0 0 0 5.79,3.87 0.6,0.6 0 0 0 5.56,4.06 c -0.13,0.16 -0.19,0.4 -0.19,0.7 0,0.3 0.06,0.54 0.19,0.7 A 0.6,0.6 0 0 0 5.79,5.64 C 5.89,5.68 5.99,5.7 6.11,5.7 6.23,5.7 6.33,5.68 6.42,5.64 A 0.6,0.6 0 0 0 6.65,5.46 c 0.13,-0.16 0.2,-0.4 0.2,-0.7 0,-0.3 -0.07,-0.54 -0.2,-0.7 A 0.6,0.6 0 0 0 6.42,3.87 0.77,0.77 0 0 0 6.11,3.81 Z M 4.15,3.85 3.65,3.93 V 4.16 L 4.15,4.07 V 5.46 H 3.68 v 0.2 H 4.9 V 5.46 H 4.43 V 3.85 Z m 3.72,0 -0.51,0.08 V 4.16 L 7.86,4.07 V 5.46 H 7.4 v 0.2 H 8.6 V 5.46 H 8.13 V 3.85 Z m -5.5,0.14 a 0.37,0.37 0 0 1 0.01,0 V 4 C 2.53,4 2.64,4.06 2.72,4.19 2.79,4.31 2.83,4.49 2.83,4.75 2.83,5 2.79,5.18 2.72,5.31 A 0.36,0.36 0 0 1 2.38,5.5 0.37,0.37 0 0 1 2.05,5.31 1.13,1.13 0 0 1 1.94,4.75 C 1.94,4.5 1.98,4.31 2.04,4.19 A 0.37,0.37 0 0 1 2.37,3.99 Z M 6.098,4 A 0.37,0.37 0 0 1 6.1,4 C 6.25,4 6.36,4.06 6.43,4.19 6.51,4.31 6.54,4.49 6.54,4.75 6.54,5 6.51,5.18 6.44,5.31 A 0.36,0.36 0 0 1 6.1,5.5 0.37,0.37 0 0 1 5.76,5.31 1.13,1.13 0 0 1 5.66,4.75 C 5.66,4.5 5.69,4.31 5.76,4.19 A 0.37,0.37 0 0 1 6.097,4 Z M 9.8,4 c 0.15,0 0.26,0.06 0.34,0.19 0.07,0.12 0.1,0.3 0.1,0.56 0,0.25 -0.03,0.43 -0.1,0.56 A 0.36,0.36 0 0 1 9.8,5.5 0.37,0.37 0 0 1 9.47,5.31 1.13,1.13 0 0 1 9.35,4.75 C 9.35,4.5 9.39,4.31 9.47,4.19 A 0.37,0.37 0 0 1 9.8,4 Z M 2.4,6.93 a 0.77,0.77 0 0 0 -0.02,0 0.77,0.77 0 0 0 -0.31,0.06 0.6,0.6 0 0 0 -0.23,0.19 c -0.13,0.16 -0.2,0.4 -0.2,0.7 0,0.3 0.07,0.54 0.2,0.7 A 0.6,0.6 0 0 0 2.07,8.76 C 2.16,8.8 2.27,8.82 2.38,8.82 2.5,8.82 2.61,8.8 2.7,8.76 A 0.6,0.6 0 0 0 2.93,8.58 C 3.06,8.42 3.12,8.18 3.12,7.88 3.12,7.58 3.06,7.34 2.92,7.18 A 0.6,0.6 0 0 0 2.7,6.99 0.77,0.77 0 0 0 2.4,6.93 Z m 1.86,0 a 0.77,0.77 0 0 0 -0.02,0 0.77,0.77 0 0 0 -0.31,0.06 0.6,0.6 0 0 0 -0.24,0.19 c -0.12,0.16 -0.18,0.4 -0.18,0.7 0,0.3 0.06,0.54 0.18,0.7 A 0.6,0.6 0 0 0 3.93,8.76 C 4.02,8.8 4.13,8.82 4.24,8.82 4.36,8.82 4.46,8.8 4.56,8.76 A 0.6,0.6 0 0 0 4.79,8.58 C 4.91,8.42 4.97,8.18 4.97,7.88 4.97,7.58 4.91,7.34 4.79,7.18 A 0.6,0.6 0 0 0 4.56,6.99 0.77,0.77 0 0 0 4.26,6.93 Z M 2.37,7.12 a 0.37,0.37 0 0 1 0.01,0 v 0.01 c 0.15,0 0.26,0.06 0.34,0.19 0.07,0.12 0.11,0.3 0.11,0.56 0,0.25 -0.04,0.44 -0.11,0.56 A 0.36,0.36 0 0 1 2.38,8.63 0.37,0.37 0 0 1 2.05,8.44 1.13,1.13 0 0 1 1.94,7.88 c 0,-0.25 0.04,-0.44 0.1,-0.56 a 0.37,0.37 0 0 1 0.33,-0.2 z m 1.87,0 v 0.01 c 0.15,0 0.26,0.06 0.33,0.19 0.08,0.12 0.12,0.3 0.12,0.56 0,0.25 -0.04,0.44 -0.12,0.56 A 0.36,0.36 0 0 1 4.24,8.63 0.37,0.37 0 0 1 3.91,8.44 1.13,1.13 0 0 1 3.79,7.88 c 0,-0.25 0.04,-0.44 0.12,-0.56 a 0.37,0.37 0 0 1 0.33,-0.2 z m 3.412,0.402 h 1.059 c 0.293,0 0.529,0.236 0.529,0.529 V 8.58 H 8.71 V 8.315 A 0.264,0.264 0 0 0 8.446,8.051 H 7.916 A 0.264,0.264 0 0 0 7.652,8.315 v 1.588 c 0,0.146 0.118,0.264 0.265,0.264 H 8.446 A 0.264,0.264 0 0 0 8.711,9.903 V 9.638 H 9.24 v 0.53 c 0,0.292 -0.236,0.529 -0.53,0.529 H 7.653 A 0.528,0.528 0 0 1 7.124,10.167 V 8.051 c 0,-0.293 0.236,-0.53 0.53,-0.53 z M 5.697,10.617 A 2.91,2.91 0 0 0 6.481,11.466 0.534,0.534 0 0 1 6.44,11.56 0.36,0.36 0 0 1 6.1,11.75 0.37,0.37 0 0 1 5.76,11.56 1.13,1.13 0 0 1 5.66,11 c 0,-0.151 0.013,-0.278 0.037,-0.383 z m 1.01,0.997 a 2.91,2.91 0 0 0 0.313,0.16 5.4,5.4 0 0 1 -0.53,0.046 0.56,0.56 0 0 0 0.15,-0.1 0.846,0.846 0 0 0 0.066,-0.106 z"
     id="path2"
     inkscape:connector-curvature="0"
     style="fill:#5beedc" />
</svg>
