<svg xmlns="http://www.w3.org/2000/svg" width="48" height="48" viewBox="0 0 12.7 12.7"><path fill="#5beedc" d="M6.344.073a6.29 6.29 0 0 0-6.29 6.29 6.29 6.29 0 0 0 6.29 6.288 6.29 6.29 0 0 0 6.29-6.289 6.29 6.29 0 0 0-6.29-6.29zm-.018.936a5.407 5.407 0 0 1 5.407 5.407 5.407 5.407 0 0 1-5.407 5.407A5.407 5.407 0 0 1 .92 6.416 5.407 5.407 0 0 1 6.326 1.01zm.024 1.123c-1.636 0-2.952.106-2.952.236v7.964c0 .13 1.316.236 2.952.236s2.952-.106 2.952-.236V2.368c0-.13-1.316-.236-2.952-.236zm-1.678.826a.837.844 0 0 1 .837.843.837.844 0 0 1-.837.844.837.844 0 0 1-.837-.844.837.844 0 0 1 .837-.843zm3.338 0a.837.844 0 0 1 .837.843.837.844 0 0 1-.837.844.837.844 0 0 1-.836-.844.837.844 0 0 1 .836-.843zm-1.65 2.53a2.118 2.136 0 0 1 2.117 2.137A2.118 2.136 0 0 1 6.359 9.76a2.118 2.136 0 0 1-2.118-2.136A2.118 2.136 0 0 1 6.36 5.489zm.006 1.275a.837.844 0 0 0-.837.843.837.844 0 0 0 .837.844.837.844 0 0 0 .837-.844.837.844 0 0 0-.837-.843z"/></svg>
