<svg xmlns="http://www.w3.org/2000/svg" width="48" height="48" viewBox="0 0 12.7 12.7"><path d="M6.35.08A6.27 6.27 0 0 0 .08 6.35a6.27 6.27 0 0 0 6.27 6.27 6.27 6.27 0 0 0 6.27-6.27A6.27 6.27 0 0 0 6.35.08zm-.02.93a5.39 5.39 0 0 1 5.4 5.4 5.39 5.39 0 0 1-5.4 5.38A5.39 5.39 0 0 1 .94 6.4a5.39 5.39 0 0 1 5.4-5.39zm0 .53A4.86 4.86 0 0 0 1.47 6.4a4.86 4.86 0 0 0 4.86 4.86A4.86 4.86 0 0 0 11.2 6.4a4.86 4.86 0 0 0-4.86-4.86zm.31 1.02a3.79 3.79 0 0 1 2.95 1.42H8.21a2.84 2.84 0 0 0-1.57-.47 2.84 2.84 0 0 0-2.46 1.42h3.88l-.47.95H3.84c-.03.15-.04.31-.04.47h3.79l-.48.95H3.96a2.84 2.84 0 0 0 2.68 1.9c.56 0 1.1-.17 1.57-.48H9.6a3.79 3.79 0 0 1-2.96 1.42A3.8 3.8 0 0 1 2.98 7.3h-.6l.47-.95a3.8 3.8 0 0 1 .03-.47H1.9l.48-.95h.75a3.8 3.8 0 0 1 3.51-2.37z" fill="#5beedc"/></svg>
