<svg xmlns="http://www.w3.org/2000/svg" width="48" height="48" viewBox="0 0 12.7 12.7"><path d="M6.35.06a6.29 6.29 0 0 0-6.29 6.3 6.29 6.29 0 0 0 6.3 6.28 6.29 6.29 0 0 0 6.28-6.29A6.29 6.29 0 0 0 6.35.06zM6.33 1a5.4 5.4 0 0 1 5.4 5.4 5.4 5.4 0 0 1-5.4 5.41 5.4 5.4 0 0 1-5.4-5.4A5.4 5.4 0 0 1 6.33 1z" fill="#5beedc"/><path d="M7.44 4.1L7.2 5.38l1.56.98L6.74 7.6l-.35 1.72 4.46-2.97z" opacity=".75" fill="#1d99f3"/><path d="M6.35 3.37l-4.5 3 3.45 2.3.27-1.3-1.62-1.01 2.08-1.3.34-1.68z" opacity=".75" fill="#9559b6"/></svg>
