<svg xmlns="http://www.w3.org/2000/svg" width="48" height="48" viewBox="0 0 12.7 12.7"><path fill="#5beedc" d="M6.344.073a6.29 6.29 0 0 0-6.29 6.29 6.29 6.29 0 0 0 6.29 6.288 6.29 6.29 0 0 0 6.29-6.289 6.29 6.29 0 0 0-6.29-6.29zm-.018.936a5.407 5.407 0 0 1 5.407 5.407 5.407 5.407 0 0 1-5.407 5.407A5.407 5.407 0 0 1 .92 6.416 5.407 5.407 0 0 1 6.326 1.01zM7.742 2.16a2.413 2.413 0 0 0-2.415 2.415c0 .284.057.568.142.852L2.486 8.41v1.42h1.42v-.852h.853v-.852h.852L6.89 6.848c.255.085.54.142.852.142a2.413 2.413 0 0 0 2.414-2.415A2.413 2.413 0 0 0 7.742 2.16zm.71.853c.483 0 .852.369.852.852s-.369.852-.852.852a.837.837 0 0 1-.852-.852c0-.483.37-.852.852-.852z"/></svg>
