<svg xmlns="http://www.w3.org/2000/svg" width="48" height="48" viewBox="0 0 12.7 12.7"><path d="M6.34.07a6.29 6.29 0 0 0-6.29 6.3 6.29 6.29 0 0 0 6.3 6.28 6.29 6.29 0 0 0 6.28-6.29A6.29 6.29 0 0 0 6.34.07zm-.01.94a5.4 5.4 0 0 1 5.4 5.4 5.4 5.4 0 0 1-5.4 5.41 5.4 5.4 0 0 1-5.41-5.4A5.4 5.4 0 0 1 6.32 1zM2.6 3.22l-.02.14-.01.29-.03.59-.02.63a56.6 56.6 0 0 0-.05 1.22c-.04.8-.05 1.77-.03 2 .03.18.1.47.16.64.38.95 1.37 1.57 2.83 1.76a9.2 9.2 0 0 0 1.82 0c.6-.07 1.1-.22 1.56-.44.69-.34 1.12-.8 1.33-1.44.12-.36.14-.53.13-1.17l-.03-.77-.02-.62-.02-.73-.03-.6-.04-1.24c0-.13-.02-.25-.02-.25a169.23 169.23 0 0 1-1.53.9l-.53.32H4.6L4.4 4.3l-.34-.2-.22-.14-.22-.14-.34-.2-.43-.28a1.68 1.68 0 0 0-.24-.13zm5.7 3.07a.5.5 0 0 1 .24.08c.23.14.27.53.07.72a.62.62 0 0 1-.37.14.48.48 0 0 1-.43-.54.46.46 0 0 1 .5-.4zm-3.84 0l.17.05c.3.15.35.56.1.77-.1.09-.17.11-.32.11-.3 0-.52-.3-.43-.6.03-.12.17-.27.27-.3a.6.6 0 0 1 .2-.02zm1.91 1.54h.26l.07.08c.1.1.1.23 0 .33-.04.04-.08.08-.08.1 0 .05.16.2.24.2.15.04.33-.03.4-.16.02-.04.04-.11.04-.17.02-.19.15-.28.32-.23.13.04.18.13.17.3a.84.84 0 0 1-1.32.62l-.12-.08-.12.07a.78.78 0 0 1-.53.15.82.82 0 0 1-.7-.46c-.14-.27-.12-.52.04-.59.12-.05.18-.04.26.03.06.06.08.1.1.21.02.12.04.16.1.23.15.14.39.13.51-.02.06-.07.08-.16.04-.16s-.12-.14-.12-.2c0-.08.06-.18.13-.22a.91.91 0 0 1 .31-.03z" fill="#5beedc"/></svg>
