<svg xmlns="http://www.w3.org/2000/svg" width="48" height="48" viewBox="0 0 12.7 12.7"><defs><clipPath id="a"><path fill="#5beedc" stroke-width=".139" d="M-9.549 285.31a5.407 5.407 0 0 1 5.407 5.406 5.407 5.407 0 0 1-5.407 5.407 5.407 5.407 0 0 1-5.407-5.407 5.407 5.407 0 0 1 5.407-5.407z"/></clipPath></defs><g fill="#5beedc"><path d="M6.344.073a6.29 6.29 0 0 0-6.29 6.29 6.29 6.29 0 0 0 6.29 6.288 6.29 6.29 0 0 0 6.29-6.289 6.29 6.29 0 0 0-6.29-6.29zm-.018.936a5.407 5.407 0 0 1 5.407 5.407 5.407 5.407 0 0 1-5.407 5.407A5.407 5.407 0 0 1 .92 6.416 5.407 5.407 0 0 1 6.326 1.01z"/><path d="M-5.744 283.475L-16.7 294.43l.303.303.773-.771.773.771-.773.773 1.159 1.16.773-.773.773.772-.773.773.386.386L-2.35 286.87zm-.608 1.214l.773.773-.773.773-.772-.773zm-1.545 1.546l.773.772-.773.773-.772-.773zm3.477.386l.773.773-.773.773-.772-.773zm-5.022 1.159l.773.773-.773.773-.773-.773zm3.477.387l.773.772-.773.773-.773-.773zm-5.022 1.159l.772.773-.772.772-.773-.772zm3.476.386l.773.773-.773.773-.772-.773zm-5.022 1.159l.773.773-.773.773-.773-.773zm3.477.387l.773.773-.773.772-.772-.772zm-5.023 1.159l.773.773-.773.773-.772-.773zm3.478.386l.773.773-.773.772-.773-.772zm-1.546 1.545l.773.773-.773.773-.772-.773z" clip-path="url(#a)" transform="translate(15.956 -290.118) scale(1.01965)"/></g></svg>
