<?xml version="1.0" encoding="UTF-8" standalone="no"?><svg xmlns:dc="http://purl.org/dc/elements/1.1/" xmlns:cc="http://creativecommons.org/ns#" xmlns:rdf="http://www.w3.org/1999/02/22-rdf-syntax-ns#" xmlns="http://www.w3.org/2000/svg" width="48" height="48" viewBox="0 0 12.7 12.7"><metadata><rdf:RDF><cc:Work><dc:format>image/svg+xml</dc:format><dc:type rdf:resource="http://purl.org/dc/dcmitype/StillImage"/><dc:title/></cc:Work></rdf:RDF></metadata><path d="M6.34.07a6.29 6.29 0 0 0-6.28 6.3 6.29 6.29 0 0 0 6.28 6.28 6.29 6.29 0 0 0 6.3-6.29A6.29 6.29 0 0 0 6.33.07zm-.01.94a5.4 5.4 0 0 1 5.4 5.4 5.4 5.4 0 0 1-5.4 5.41 5.4 5.4 0 0 1-5.41-5.4A5.4 5.4 0 0 1 6.32 1zm-.17 1.71a2 2 0 0 0-.79.08c-.1.06-.19.18-.14.19.06 0 .2.04.28.14.1.14.1.45.1.45s.05.84-.13.95c-.13.07-.3-.08-.69-.75-.19-.34-.34-.73-.34-.73s-.02-.07-.08-.1c-.06-.05-.14-.06-.14-.06h-.9s-.14 0-.2.07c-.04.05 0 .16 0 .16s.71 1.7 1.52 2.56c.73.8 1.57.74 1.57.74h.38s.11-.01.17-.08c.05-.06.05-.17.05-.17s0-.52.23-.6c.23-.07.53.5.85.73.24.17.42.13.42.13l.84-.01s.45-.03.24-.39c-.02-.02-.13-.26-.63-.74-.53-.51-.46-.43.18-1.3.39-.54.54-.86.5-1-.05-.13-.34-.1-.34-.1h-.95s-.07 0-.12.03c-.06.03-.09.1-.09.1s-.15.42-.35.77c-.43.74-.6.78-.66.73-.17-.1-.13-.43-.13-.66 0-.72.11-1.02-.2-1.1-.1-.02-.18-.04-.45-.04zm-2.7 5.03a.72.72 0 0 0-.23.03.47.47 0 0 0-.17.1.42.42 0 0 0-.1.15.52.52 0 0 0-.04.2.47.47 0 0 0 .14.34c.03.04.08.07.12.1a2.5 2.5 0 0 0 .24.13l.08.06.06.07.02.09a.2.2 0 0 1-.01.07c0 .02-.02.04-.04.06a.19.19 0 0 1-.07.03.35.35 0 0 1-.1.02.97.97 0 0 1-.35-.09 4.99 4.99 0 0 1-.11-.05v.33c.06.04.13.06.2.08a1.1 1.1 0 0 0 .5-.01.52.52 0 0 0 .18-.1c.05-.04.09-.1.11-.15A.52.52 0 0 0 3.93 9a.42.42 0 0 0-.11-.3.6.6 0 0 0-.12-.11 1.91 1.91 0 0 0-.29-.17.56.56 0 0 1-.08-.06.2.2 0 0 1-.05-.06.2.2 0 0 1-.01-.08c0-.05.02-.1.05-.12.03-.04.08-.05.14-.05h.08l.08.02a.94.94 0 0 1 .2.08l.1-.28a1.68 1.68 0 0 0-.23-.1.96.96 0 0 0-.23-.02zm1.13.01l-.55 1.71h.36l.12-.4h.58l.12.4h.36l-.55-1.7h-.44zm.92.01l.53 1.7h.4l.53-1.7H6.6L6.32 8.8l-.02.07-.02.1a4.6 4.6 0 0 0-.04.2 2.73 2.73 0 0 0-.07-.37l-.3-1.02h-.36zm1.67 0v1.7h.98v-.3h-.62v-.43h.58v-.3h-.58v-.37h.62v-.3h-.98zm1.34 0v1.7h.36v-.65h.15l.37.65h.4l-.02-.03a3.21 3.21 0 0 1-.21-.34l-.23-.37a.58.58 0 0 0 .1-.07.48.48 0 0 0 .18-.38c0-.17-.05-.3-.16-.38-.1-.09-.26-.13-.48-.13h-.46zM4.8 8l.02.1.03.12c0 .04.02.07.03.1 0 .04.02.06.02.07l.1.37h-.4l.1-.37.01-.04.02-.06.02-.07A3.75 3.75 0 0 0 4.81 8zm4.07.07h.09c.1 0 .17.01.21.05.05.03.07.09.07.17 0 .08-.02.14-.06.18-.04.04-.12.06-.22.06h-.1v-.46z" fill="#5beedc" fill-opacity=".99"/></svg>
