<svg xmlns="http://www.w3.org/2000/svg" width="48" height="48" viewBox="0 0 12.7 12.7"><path d="M6.34.07a6.29 6.29 0 0 0-6.29 6.3 6.29 6.29 0 0 0 6.3 6.28 6.29 6.29 0 0 0 6.28-6.29A6.29 6.29 0 0 0 6.34.07zm-.01.94a5.4 5.4 0 0 1 5.4 5.4 5.4 5.4 0 0 1-5.4 5.41 5.4 5.4 0 0 1-5.41-5.4A5.4 5.4 0 0 1 6.32 1zm.2 1.11a6.26 6.26 0 0 0-.48.03l-.36.03c-2.37.35-4.13 1.99-3.97 3.76.1 1.15.99 2.1 2.24 2.59l-.52 2.05L5.76 8.9h.02c.29 0 .57.01.87-.02 2.56-.23 4.5-1.93 4.33-3.79-.16-1.74-2.11-3-4.46-2.97zm2.39 2.34a.65.68-4.63 0 1 .63.63.65.68-4.63 0 1-.59.74.65.68-4.63 0 1-.7-.63.65.68-4.63 0 1 .6-.74.65.68-4.63 0 1 .06 0zm-2.64.21a.65.68-4.63 0 1 .64.64.65.68-4.63 0 1-.6.73.65.68-4.63 0 1-.7-.63.65.68-4.63 0 1 .6-.73.65.68-4.63 0 1 .06 0zm-2.64.22a.65.68-4.63 0 1 .64.63.65.68-4.63 0 1-.6.73.65.68-4.63 0 1-.7-.63.65.68-4.63 0 1 .6-.73.65.68-4.63 0 1 .06 0z" fill="#5beedc"/></svg>
