<svg xmlns="http://www.w3.org/2000/svg" width="48" height="48" viewBox="0 0 12.7 12.7"><path fill="#5beedc" d="M6.344.073a6.29 6.29 0 0 0-6.29 6.29 6.29 6.29 0 0 0 6.29 6.288 6.29 6.29 0 0 0 6.29-6.289 6.29 6.29 0 0 0-6.29-6.29zm-.018.936a5.407 5.407 0 0 1 5.407 5.407 5.407 5.407 0 0 1-5.407 5.407A5.407 5.407 0 0 1 .92 6.416 5.407 5.407 0 0 1 6.326 1.01zm.19 1.228a6.405 6.405 0 0 0-.461.026c-.117.01-.23.014-.344.03-2.312.342-4.022 1.934-3.867 3.659.101 1.116.958 2.035 2.183 2.52l-.511 1.994 2.263-1.637.016-.001c.28.011.56.016.85-.011 2.485-.227 4.374-1.88 4.21-3.689-.152-1.696-2.054-2.93-4.339-2.891zM7.551 3.27l.854.615L7.32 5.393l1.508 1.086-.615.853-1.507-1.085-1.086 1.508-.853-.615L5.85 5.632 4.343 4.547l.615-.854 1.508 1.086L7.55 3.27z"/></svg>
