<svg xmlns="http://www.w3.org/2000/svg" width="24" height="24" version="1"><path d="M12 1.502C6.207 1.502 1.502 6.208 1.502 12c0 5.792 4.706 10.498 10.498 10.498 5.793 0 10.498-4.706 10.498-10.498 0-5.793-4.706-10.498-10.498-10.498z" fill="#052"/><path d="M12.993 19.271h-2.116v-2.116h2.116zm2.19-8.2l-.952.973c-.761.773-1.238 1.408-1.238 2.995h-2.116v-.53c0-1.163.476-2.221 1.238-2.994l1.312-1.333c.392-.38.625-.91.625-1.492a2.122 2.122 0 0 0-2.117-2.116A2.122 2.122 0 0 0 9.82 8.69H7.703a4.231 4.231 0 0 1 4.232-4.232 4.231 4.231 0 0 1 4.233 4.232c0 .931-.381 1.778-.984 2.38z" fill="#fff"/></svg>