<svg xmlns="http://www.w3.org/2000/svg" width="24" height="24" version="1"><path d="M12 1.502C6.207 1.502 1.502 6.208 1.502 12c0 5.792 4.706 10.498 10.498 10.498 5.793 0 10.498-4.706 10.498-10.498 0-5.793-4.706-10.498-10.498-10.498z" fill="#16502d"/><path d="M11.826 4.983c-2.152 0-3.802 1.003-4.022 3.47h1.76c.23-1.286 1.245-1.735 2.262-1.735 1.157 0 2.313.579 2.313 2.314v1.735H7.005a.968.968 0 0 0-.963.983v6.123c0 .549.43.991.963.991h9.641a.976.976 0 0 0 .964-.991V11.75c0-.55-.43-.983-.964-.983h-.771V9.032c0-2.892-1.736-4.049-4.05-4.049z" fill="#fff"/></svg>