<svg xmlns="http://www.w3.org/2000/svg" width="24" height="24"><path d="M20.387 2.025l-4.813 4.813a5.977 5.977 0 0 0-3.326-1.018 5.977 5.977 0 0 0-4.244 1.778l.56.562-.496.496-.607-.607a5.977 5.977 0 0 0-1.732 4.199 5.977 5.977 0 0 0 1.017 3.33l-5.035 5.035 1.72 1.723 5.053-5.053a5.977 5.977 0 0 0 3.221.944 5.977 5.977 0 0 0 4.203-1.729l-.564-.566.496-.496.611.61a5.977 5.977 0 0 0 1.776-4.25 5.977 5.977 0 0 0-.948-3.218l4.83-4.83-1.722-1.723zM9.84 9.435l.724.725-.496.496-.724-.724.496-.496zm2 2l.724.725-.496.496-.724-.724.496-.496zm2 2l.724.725-.496.496-.724-.724.496-.496z" fill="gray"/></svg>