<svg xmlns="http://www.w3.org/2000/svg" width="24" height="24"><defs><clipPath id="a"><ellipse cx="7.991" cy="40.183" rx="7.548" ry="7.491" fill="#ccc" stroke-width=".379" stroke-linecap="round" stroke-linejoin="round"/></clipPath><clipPath id="b"><ellipse cx="23.621" cy="24.5" rx="21.007" ry="21.05" fill="#ccc" stroke-width=".297" stroke-linecap="round" stroke-linejoin="round"/></clipPath><clipPath id="c"><ellipse cx="23.621" cy="24.5" rx="21.007" ry="21.05" fill="#ccc" stroke-width=".297" stroke-linecap="round" stroke-linejoin="round"/></clipPath></defs><g fill="#216778"><path transform="rotate(-45 9.029 5.163) scale(.38115)" clip-path="url(#a)" d="M2.123 33.967v11.91h11.91z" fill-opacity=".302"/><path transform="rotate(-45 9.029 5.163) scale(.38115)" clip-path="url(#b)" d="M2.123 26.695V19.12L28.88 45.877h-7.576z" fill-opacity=".302"/><path transform="translate(2.997 3.072) scale(.38115)" d="M3.127 3.906l-5.523 5.522h51.644l-5.521-5.522H20.998z" clip-path="url(#c)" fill-opacity=".302"/><g transform="matrix(1.0668 0 0 1.0668 -.9 -.654)" fill-opacity=".968"><ellipse cx="6.092" cy="9.664" rx=".939" ry=".916"/><ellipse cx="9.084" cy="9.641" rx=".939" ry=".916"/><ellipse cx="12.092" cy="9.664" rx=".939" ry=".916"/><ellipse cx="15.084" cy="9.641" rx=".939" ry=".916"/><ellipse cx="18.092" cy="9.664" rx=".939" ry=".916"/></g></g></svg>