<svg xmlns="http://www.w3.org/2000/svg" width="48" height="48" viewBox="0 0 12.7 12.7"><path d="M6.32.05a6.29 6.29 0 0 0-6.3 6.3 6.29 6.29 0 0 0 6.3 6.28 6.29 6.29 0 0 0 6.29-6.3A6.29 6.29 0 0 0 6.3.06zM6.3.98a5.4 5.4 0 0 1 5.4 5.4 5.4 5.4 0 0 1-5.4 5.42A5.4 5.4 0 0 1 .9 6.4 5.4 5.4 0 0 1 6.3.98zM4.22 2.82c-.32-.02-.7.22-1.16.9-.08.13-.01.31.15.24.79-.95 1.22-.8 1.9-.02.15.05.2-.18.15-.22-.32-.44-.64-.88-1.04-.9zm4.37 0c-.31-.02-.68.22-1.15.9-.08.13-.02.31.15.24.78-.95 1.21-.8 1.9-.02.14.05.19-.18.15-.22-.32-.44-.64-.88-1.05-.9zM3.07 5.56c-.05.02-.03.11-.03.23 0 .15.02.2.1.33 2.2 3.29 4.3 2.9 6.37 0 .09-.12.12-.15.12-.3s.02-.29-.12-.25a10.37 10.37 0 0 1-6.44 0zm.65.5h.06c.34.1.67.18.99.23l-.05.73-.52-.05a7.03 7.03 0 0 1-.42-.51c-.07-.1-.09-.14-.09-.25 0-.08-.01-.14.03-.16zm5.1 0c.12-.03.1.07.1.18 0 .1-.03.13-.1.22-.14.18-.29.34-.43.5l-.5.05-.05-.74c.33-.06.66-.13.98-.21zm-1.02.22l-.06.75-.62.11c.2-.02.52.02.63.04l.03.34a2.5 2.5 0 0 1-1.43.6l.07-.86.7-.12-.7-.03-.07-.7c.5 0 .98-.05 1.45-.13zm-3 .02c.53.1 1.03.12 1.5.12l-.07.69-.74.04.74.11.08.86c-.5.01-.99-.17-1.49-.56l.04-.37c.1-.01.43-.05.63-.04l-.63-.1-.05-.75zm3.5.76c-.15.15-.3.28-.44.4l.02-.29c.04 0 .21-.06.42-.11zm-4.02 0l.45.13.02.32a4.79 4.79 0 0 1-.47-.45zm1.05 1.7c-.08.18-.12.34 0 .5.73.32 1.37.23 1.97 0a.52.52 0 0 0 0-.5 2.3 2.3 0 0 1-1.97 0z" fill="#e6e6e6"/></svg>