<svg xmlns="http://www.w3.org/2000/svg" width="48" height="48" viewBox="0 0 12.7 12.7"><path d="M3.5 8.31c1.43-.14.72-1.7 1.85-1.7.85 0 .69.56 1 .56.28 0 .14-.56 1-.56 1.13 0 .42 1.56 1.84 1.7-1.7.14-1.13 1.99-2.84 1.99s-1.14-1.85-2.84-2z" fill="#ff2a2a" opacity=".75"/><path d="M3.51 8.3c1.43-.14.72-1.7 1.85-1.7.85 0 .69.56 1 .56.28 0 .14-.56 1-.56 1.13 0 .42 1.56 1.84 1.7-1.7.14-1.13 1.99-2.84 1.99s-1.14-1.85-2.84-2z" fill="none" stroke="#e6e6e6" stroke-width=".34" stroke-linecap="round" stroke-linejoin="round"/><path d="M6.32.05a6.29 6.29 0 0 0-6.3 6.3 6.29 6.29 0 0 0 6.3 6.28 6.29 6.29 0 0 0 6.29-6.3A6.29 6.29 0 0 0 6.3.06zM6.3.98a5.4 5.4 0 0 1 5.4 5.4 5.4 5.4 0 0 1-5.4 5.42A5.4 5.4 0 0 1 .9 6.4 5.4 5.4 0 0 1 6.3.98zM4.58 3c-.59.02-1.2.28-1.88 1.09l-.23.28.27-.24c1.04-.8 1.8-.93 2.5-.6.1.05.17-.16.14-.3-.02-.14-.12-.16-.23-.18A2.63 2.63 0 0 0 4.58 3zm3.49 0c-.2 0-.39.01-.58.05-.1.02-.2.04-.23.18-.02.14.04.35.14.3.71-.33 1.47-.2 2.5.6.17.13.27.24.27.24.01-.01-.12-.16-.22-.28-.68-.81-1.3-1.07-1.88-1.1zm-.13 1.66c-.3 0-.58.09-.85.2-.13.06-.25.12-.25.26s.13.31.25.25c.61-.31 1.21-.44 1.8 0 .1.08.25-.11.25-.25s-.13-.19-.26-.25a1.92 1.92 0 0 0-.94-.21zm-3.25 0c-.3-.01-.61.05-.95.21-.12.06-.25.11-.25.25s.14.34.25.25c.58-.43 1.19-.3 1.8 0 .12.07.25-.1.25-.25 0-.14-.13-.2-.25-.25-.28-.12-.56-.2-.85-.21zm.96 3.19c-.4.35-2.1.5-2.1.5s1.57-.15 1.92-.15c.35 0 .88.52.88.52s.53-.52.88-.52 1.93.15 1.93.15-1.63-.15-2.11-.5c-.52.35-.7.7-.7.7s-.18-.35-.7-.7z" fill="#e6e6e6"/></svg>