<?xml version="1.0" encoding="UTF-8" standalone="no"?>
<svg
   xmlns:dc="http://purl.org/dc/elements/1.1/"
   xmlns:cc="http://creativecommons.org/ns#"
   xmlns:rdf="http://www.w3.org/1999/02/22-rdf-syntax-ns#"
   xmlns:svg="http://www.w3.org/2000/svg"
   xmlns="http://www.w3.org/2000/svg"
   xmlns:sodipodi="http://sodipodi.sourceforge.net/DTD/sodipodi-0.dtd"
   xmlns:inkscape="http://www.inkscape.org/namespaces/inkscape"
   width="48"
   height="48"
   version="1.1"
   id="svg6"
   sodipodi:docname="text-dockerfile.svg"
   inkscape:version="0.92.4 (5da689c313, 2019-01-14)">
  <metadata
     id="metadata12">
    <rdf:RDF>
      <cc:Work
         rdf:about="">
        <dc:format>image/svg+xml</dc:format>
        <dc:type
           rdf:resource="http://purl.org/dc/dcmitype/StillImage" />
        <dc:title></dc:title>
      </cc:Work>
    </rdf:RDF>
  </metadata>
  <defs
     id="defs10" />
  <sodipodi:namedview
     pagecolor="#ffffff"
     bordercolor="#666666"
     borderopacity="1"
     objecttolerance="10"
     gridtolerance="10"
     guidetolerance="10"
     inkscape:pageopacity="0"
     inkscape:pageshadow="2"
     inkscape:window-width="1138"
     inkscape:window-height="480"
     id="namedview8"
     showgrid="false"
     inkscape:zoom="4.9166667"
     inkscape:cx="2.1355932"
     inkscape:cy="24"
     inkscape:window-x="0"
     inkscape:window-y="25"
     inkscape:window-maximized="0"
     inkscape:current-layer="svg6" />
  <path
     d="M 29.705078 -0.083984375 C 27.658078 -0.075984375 25.5835 0.003671875 25.1875 0.013671875 L 7 0.013671875 A 2.938 2.938 0 0 0 6.4375 0.013671875 C 5.0645 0.27567188 3.975 1.6117188 4 3.0117188 L 4 45 C 4 46.57 5.43 48 7 48 L 41 48 C 42.57 48 44 46.57 44 45 L 44 18.818359 C 44.018 18.026359 44.215062 8.8912656 43.664062 8.3222656 L 34.054688 0.24804688 C 33.773688 -0.026953125 31.752078 -0.091984375 29.705078 -0.083984375 z M 31.195312 3.0097656 L 31.328125 10.513672 C 31.340125 11.193672 31.965531 11.803969 32.644531 11.792969 L 40.416016 11.65625 C 40.549016 11.67425 40.684406 11.674391 40.816406 11.650391 L 40.898438 14.679688 L 41 18.769531 L 41 44.996094 L 7 44.996094 L 7 3.0214844 L 25.671875 3.0214844 L 31.195312 3.0097656 z M 19.519531 21.595703 L 19.519531 24.503906 L 22.425781 24.503906 L 22.425781 21.595703 L 19.519531 21.595703 z M 23.25 21.595703 L 23.25 24.503906 L 26.15625 24.503906 L 26.15625 21.595703 L 23.25 21.595703 z M 31.193359 23.988281 A 2.798 2.798 0 0 0 30.072266 27.017578 A 2.798 2.798 0 0 0 32.556641 29.078125 A 2.798 2.798 0 0 0 35.191406 30.943359 A 2.798 2.798 0 0 0 37.824219 29.078125 A 2.798 2.798 0 0 0 35.191406 27.212891 A 2.798 2.798 0 0 0 33.609375 27.708984 A 2.798 2.798 0 0 0 31.195312 23.988281 L 31.193359 23.988281 z M 32.556641 29.078125 L 10.175781 29.078125 C 10.175781 35.258125 15.185234 38.404297 21.365234 38.404297 C 27.545234 38.404297 32.556641 35.259125 32.556641 29.078125 z M 14.728516 25.339844 L 14.728516 28.246094 L 17.636719 28.246094 L 17.636719 25.339844 L 14.728516 25.339844 z M 18.458984 25.339844 L 18.458984 28.246094 L 21.365234 28.246094 L 21.365234 25.339844 L 18.458984 25.339844 z M 22.189453 25.339844 L 22.189453 28.246094 L 25.095703 28.246094 L 25.095703 25.339844 L 22.189453 25.339844 z M 25.919922 25.339844 L 25.919922 28.246094 L 28.826172 28.246094 L 28.826172 25.339844 L 25.919922 25.339844 z M 14.837891 30.941406 L 14.839844 30.941406 A 0.933 0.933 0 0 1 15.771484 31.875 A 0.933 0.933 0 0 1 14.837891 32.808594 A 0.933 0.933 0 0 1 13.90625 31.875 A 0.933 0.933 0 0 1 14.837891 30.941406 z "
     id="path2"
     style="fill:#7f7f7f" />
</svg>
