<svg xmlns="http://www.w3.org/2000/svg" width="24" height="24"><path d="M4.91 2.8L3.38 4.26 6.73 7.8a5.55 5.68 0 0 0-.28 1.76A5.55 5.68 0 0 0 12 15.23a5.55 5.68 0 0 0 1.54-.23l1.06 1.12a6.53 6.68 0 0 1-2.6.56A6.53 6.68 0 0 1 5.47 10a6.53 6.68 0 0 1 0-.06H3.5a8.49 8.68 0 0 0 0 .06 8.49 8.68 0 0 0 7.43 8.6v5.36h2.17V18.6a8.49 8.68 0 0 0 2.92-.98l2.52 2.67 1.53-1.45L4.9 2.81zM12 3.88A5.55 5.68 0 0 0 8.7 5l7.65 8.08a5.55 5.68 0 0 0 1.2-3.52A5.55 5.68 0 0 0 12 3.87zm6.53 6.07a6.53 6.68 0 0 1 0 .06 6.53 6.68 0 0 1-1.3 4l1.36 1.44A8.49 8.68 0 0 0 20.5 10a8.49 8.68 0 0 0 0-.06h-1.96z" fill="#a02c2c"/></svg>