<svg xmlns="http://www.w3.org/2000/svg" width="24" height="24"><defs><clipPath id="a"><ellipse cx="7.99" cy="40.18" rx="7.55" ry="7.49" fill="#ccc" stroke-width=".38" stroke-linecap="round" stroke-linejoin="round"/></clipPath><clipPath id="b"><ellipse cx="23.62" cy="24.5" rx="21.01" ry="21.05" fill="#ccc" stroke-width=".3" stroke-linecap="round" stroke-linejoin="round"/></clipPath><clipPath id="c"><ellipse cx="23.62" cy="24.5" rx="21.01" ry="21.05" fill="#ccc" stroke-width=".3" stroke-linecap="round" stroke-linejoin="round"/></clipPath><clipPath id="d"><ellipse cx="23.62" cy="24.5" rx="21.01" ry="21.05" fill="#ccc" stroke-width=".3" stroke-linecap="round" stroke-linejoin="round"/></clipPath></defs><g fill="#a02c2c" fill-opacity=".3"><path transform="rotate(-45 9.03 5.16) scale(.38115)" clip-path="url(#a)" d="M2.12 33.97v11.9h11.91z"/><path transform="rotate(-45 9.03 5.16) scale(.38115)" clip-path="url(#b)" d="M2.12 26.7v-7.58l26.76 26.76H21.3z"/><path transform="translate(3 3.07) scale(.38115)" d="M-3.46 14.7l5.12 5.11h43.4l5.1-5.1h-31.3z" clip-path="url(#c)"/><path transform="translate(3 3.07) scale(.38115)" d="M3.13 3.9L-2.4 9.44h51.65L43.73 3.9H21z" clip-path="url(#d)"/></g><path d="M11.8 6.5C10 6.6 8.6 8 8.7 9.8h2.2c-.03-.62.41-1.06 1.03-1.1a1.09 1.09 0 0 1 1.17 1.04v.03c0 .14-.03.36-.14.48-.25.3-.53.54-.75.72a4.2 4.2 0 0 0-.8.76c-.26.34-.5.82-.5 1.37-.02.58.51 1.1 1.1 1.1.57 0 1.1-.52 1.1-1.1l.03-.03c.05-.07.2-.19.4-.34 1.34-1.02 1.76-1.6 1.76-3.13-.1-1.8-1.7-3.2-3.5-3.1zm.16 8.8a1.1 1.1 0 0 0 .04 2.2 1.1 1.1 0 1 0 0-2.2 1.1 1.1 0 0 0-.04 0z" fill="#a02c2c"/></svg>