<svg xmlns="http://www.w3.org/2000/svg" width="24" height="24"><defs><clipPath id="a"><ellipse cx="7.99" cy="40.18" rx="7.55" ry="7.49" fill="#ccc" stroke-width=".38" stroke-linecap="round" stroke-linejoin="round"/></clipPath><clipPath id="b"><ellipse cx="23.62" cy="24.5" rx="21.01" ry="21.05" fill="#ccc" stroke-width=".3" stroke-linecap="round" stroke-linejoin="round"/></clipPath><clipPath id="c"><ellipse cx="23.62" cy="24.5" rx="21.01" ry="21.05" fill="#ccc" stroke-width=".3" stroke-linecap="round" stroke-linejoin="round"/></clipPath></defs><g fill="#a02c2c"><path transform="rotate(-45 9.03 5.16) scale(.38115)" clip-path="url(#a)" d="M2.12 33.97v11.9h11.91z" fill-opacity=".3"/><path transform="rotate(-45 9.03 5.16) scale(.38115)" clip-path="url(#b)" d="M2.12 26.7v-7.58l26.76 26.76H21.3z" fill-opacity=".3"/><path transform="translate(3 3.07) scale(.38115)" d="M3.13 3.9L-2.4 9.44h51.65L43.73 3.9H21z" clip-path="url(#c)" fill-opacity=".3"/><g transform="translate(-.9 -.65) scale(1.0668)"><ellipse cx="6.09" cy="9.66" rx=".94" ry=".92"/><ellipse cx="9.08" cy="9.64" rx=".94" ry=".92"/><ellipse cx="12.09" cy="9.66" rx=".94" ry=".92"/><ellipse cx="15.08" cy="9.64" rx=".94" ry=".92"/><ellipse cx="18.09" cy="9.66" rx=".94" ry=".92"/></g></g></svg>