<svg xmlns="http://www.w3.org/2000/svg" width="24" height="24"><path style="isolation:auto;mix-blend-mode:normal" d="M12.332 3a9 9 0 0 0-.078.004 9 9 0 0 0-1.129.09 9 9 0 0 0-.146.02 8.03 8.243 0 0 0-.004.003 9 9 0 1 0 9.681 12.332 7.5 7.5 0 0 1-.02.01 9 9 0 0 0 .005-.01 7.5 7.5 0 0 1-1.293.606 7.5 7.5 0 0 1-.051.021 7.5 7.5 0 0 1-.05.018 7.5 7.5 0 0 1-2.415.406 7.5 7.5 0 0 1-7.5-7.5 7.5 7.5 0 0 1 1.848-4.912 8 8 0 0 1 .02-.004A7.5 7.5 0 0 1 12.36 3H12.332zM9.934 4.355a8.03 8.243 0 0 0-.059.079 8.03 8.243 0 0 0-.42.7 8.03 8.243 0 0 0-.35.741 8.03 8.243 0 0 0-.277.775 8.03 8.243 0 0 0-.2.797 8.03 8.243 0 0 0-.12.815 8.03 8.243 0 0 0-.041.824 8.03 8.243 0 0 0 .02.582 8.03 8.243 0 0 0 .097.818 8.03 8.243 0 0 0 .176.803 8.03 8.243 0 0 0 .252.783 8.03 8.243 0 0 0 .328.752 8.03 8.243 0 0 0 .4.715 8.03 8.243 0 0 0 .467.67 8.03 8.243 0 0 0 .53.62 8.03 8.243 0 0 0 .585.562 8.03 8.243 0 0 0 .64.498 8.03 8.243 0 0 0 .684.43 8.03 8.243 0 0 0 .723.359 8.03 8.243 0 0 0 .754.281 8.03 8.243 0 0 0 .777.205 8.03 8.243 0 0 0 .795.123 8.03 8.243 0 0 0 .801.041 8.03 8.243 0 0 0 .268-.006 8.03 8.243 0 0 0 .799-.07 8.03 8.243 0 0 0 .789-.152 8.03 8.243 0 0 0 .123-.038 8 8 0 0 1-.131.168 8 8 0 0 1-.553.579 8 8 0 0 1-.607.52 8 8 0 0 1-.657.456 8 8 0 0 1-.699.39 8 8 0 0 1-.732.317 8 8 0 0 1-.764.242 8 8 0 0 1-.781.166 8 8 0 0 1-.795.086 8 8 0 0 1-.8.006 8 8 0 0 1-.796-.072 8 8 0 0 1-.785-.152 8 8 0 0 1-.766-.23 8 8 0 0 1-.74-.306 8 8 0 0 1-.705-.378 8 8 0 0 1-.662-.446 8 8 0 0 1-.617-.51 8 8 0 0 1-.56-.57 8 8 0 0 1-.503-.621 8 8 0 0 1-.437-.67 8 8 0 0 1-.37-.709 8 8 0 0 1-.296-.744 8 8 0 0 1-.219-.768 8 8 0 0 1-.143-.787 8 8 0 0 1-.064-.799 8 8 0 0 1 .018-.798 8 8 0 0 1 .097-.793 8 8 0 0 1 .174-.782 8 8 0 0 1 .254-.757 8 8 0 0 1 .326-.73 8 8 0 0 1 .399-.694 8 8 0 0 1 .464-.65 8 8 0 0 1 .528-.602 8 8 0 0 1 .586-.545 8 8 0 0 1 .636-.483 8 8 0 0 1 .682-.417 8 8 0 0 1 .72-.348 8 8 0 0 1 .75-.274 8 8 0 0 1 .007-.002z" color="#000" overflow="visible" fill="#a02c2c" fill-rule="evenodd"/></svg>
