<svg xmlns="http://www.w3.org/2000/svg" width="24" height="24"><path d="M11.28 2.355a6 6 0 0 0-6 6 6 6 0 0 0 .003.13 4 4 0 0 0-3.004 3.87 4 4 0 0 0 3.899 3.997 3.556 3.556 0 0 0-.457 1.736 3.556 3.556 0 0 0 3.554 3.557h8a4.444 4.444 0 0 0 4.446-4.446 4.444 4.444 0 0 0-1.95-3.666 5 5 0 0 0 .508-2.178 5 5 0 0 0-3.242-4.675 6 6 0 0 0-5.758-4.325zm0 1a5 5 0 0 1 4.92 4.112 4 4 0 0 1 3.08 3.888 4 4 0 0 1-.395 1.707 4.444 4.444 0 0 0-.047-.017A5.333 5.333 0 0 0 13.72 9.2a5.333 5.333 0 0 0-5.334 5.332 5.333 5.333 0 0 0 .004.115 3.556 3.556 0 0 0-1.38.707H6.28a3 3 0 0 1-3-3 3 3 0 0 1 3-3 3 3 0 0 1 .108.006 5 5 0 0 1-.108-1.006 5 5 0 0 1 5-5zm2.44 6.858a4.342 4.342 0 0 1 4.272 3.57 3.474 3.474 0 0 1 2.676 3.377 3.474 3.474 0 0 1-3.475 3.473H9.377a2.605 2.605 0 0 1-2.604-2.606 2.605 2.605 0 0 1 2.604-2.603 2.605 2.605 0 0 1 .094.004 4.342 4.342 0 0 1-.094-.873 4.342 4.342 0 0 1 4.344-4.342z" fill="#a02c2c"/></svg>
