<svg xmlns="http://www.w3.org/2000/svg" width="48" height="48" viewBox="0 0 12.7 12.7"><path style="marker:none" d="M6.34.07a6.29 6.29 0 0 0-6.29 6.3 6.29 6.29 0 0 0 6.3 6.28 6.29 6.29 0 0 0 6.28-6.29A6.29 6.29 0 0 0 6.34.07zM6.32 1l.01.01a5.4 5.4 0 0 1 5.4 5.4 5.4 5.4 0 0 1-5.4 5.41 5.4 5.4 0 0 1-5.41-5.4A5.4 5.4 0 0 1 6.32 1zM3.7 4.03a.66.71 0 0 0-.66.71.66.71 0 0 0 .66.72.66.71 0 0 0 .67-.72.66.71 0 0 0-.67-.7zm5.16 0a.66.71 0 0 0-.67.71.66.71 0 0 0 .67.72.66.71 0 0 0 .66-.72.66.71 0 0 0-.66-.7zm-5.18.22a.23.1 0 0 1 .02 0 .23.1 0 0 1 .23.09.23.1 0 0 1-.23.1.23.1 0 0 1-.23-.1.23.1 0 0 1 .21-.1zm5.16 0a.23.1 0 0 1 .02 0 .23.1 0 0 1 .22.09.23.1 0 0 1-.22.1.23.1 0 0 1-.23-.1.23.1 0 0 1 .2-.1zm.67 3.24l-.04.02c-2 1.95-4.09 2.2-6.29 0-.07-.07-.07.09-.07.2 0 .1 0 .1.07.18 2.1 2.14 4.2 2.09 6.3 0 .06-.08.04-.1.04-.22 0-.07.01-.17-.01-.18zm-3.96 2.63c-.06.14-.1.27 0 .39.59.26 1.1.19 1.6 0a.4.4 0 0 0 0-.39c-.5.2-1.03.26-1.6 0z" overflow="visible" fill="#a02c2c"/><g transform="matrix(.20866 0 0 .19956 1.42 2.39)" stroke="#a02c2c" stroke-width="1.96" fill="none" stroke-linecap="round" stroke-linejoin="round"><circle style="marker:none" cx="11.49" cy="12.47" r="9.55" overflow="visible"/><circle transform="translate(24.16)" style="marker:none" cx="11.49" cy="12.47" r="9.55" overflow="visible"/><path d="M21.04 12.47a9.55 9.55 0 0 1-7.83 9.39" style="marker:none" transform="matrix(-.3786 -.4377 .45191 -.3667 22.26 21.46)" overflow="visible" stroke-width="3.38"/></g></svg>