<svg xmlns="http://www.w3.org/2000/svg" width="24" height="24" viewBox="0 0 6.35 6.35"><path d="M3.15.906c-.622.009-1.455.236-1.441.965.014.761.858.489.926.8.01-.014.026-.025.037-.037.058-.063.116-.114.174-.175.092-.103.188-.2.285-.303.325-.347.34-.368 1.116-.956a2.1 2.1 0 0 0-.97-.294c-.039-.002-.086 0-.128 0zm1.806 0c-.529.383-1.237.972-1.798 1.569-.051.055-.1.106-.148.16-.03.033-.063.058-.093.091-.02.023-.037.048-.056.07-.383.424-.758.922-1.072 1.38a.315.315 0 0 0-.33.028c-.222.146-.175.672-.631.672.043.177.51.175.826.096.298-.075.388-.336.332-.554-.008-.03-.027-.062-.046-.092.584-.484 1-.888 1.283-1.187.07-.073.156-.168.25-.272.354-.393.86-1.011 1.483-1.96zm-2.373.45a.441.441 0 0 1 .006 0 .44.44 0 0 1 .44.441.441.441 0 1 1-.446-.441zm2.145.195c-.418.657-.697 1.046-.992 1.35-.188.193-.342.386-.477.523-.247.263-.57.572-.927.91.019.433.239.808.955.947 1.146.222 2.361-.537 2.239-2.077-.053-.661-.414-1.26-.798-1.653zm.1 1.12a.294.294 0 0 1 0 .588.294.294 0 0 1 0-.589zm-.202.882a.294.294 0 0 1 .007 0 .294.294 0 0 1 .011 0 .294.294 0 0 1 0 .588.294.294 0 0 1-.018-.588zm-1.45.588a.294.294 0 0 1 0 .588.294.294 0 0 1 0-.588zm.881 0a.294.294 0 0 1 0 .588.294.294 0 0 1 0-.588z" fill="gray"/></svg>