<svg xmlns="http://www.w3.org/2000/svg" width="24" height="24" viewBox="0 0 6.35 6.35"><path d="M1.538 1.715c-.043 0-.072.02-.082.058L.975 4.218c-.064.24.442.527.777.334l.78-1.135h1.276l.78 1.135c.334.193.84-.094.777-.334l-.48-2.445c-.01-.037-.04-.058-.083-.058H1.538zM2.101 2a.07.07 0 0 1 .005 0h.142a.07.07 0 0 1 .071.071v.213h.213a.07.07 0 0 1 .07.07v.142a.07.07 0 0 1-.07.071h-.213v.213a.07.07 0 0 1-.07.071h-.143a.07.07 0 0 1-.07-.07v-.214h-.213a.07.07 0 0 1-.071-.07v-.143a.07.07 0 0 1 .07-.07h.214V2.07A.07.07 0 0 1 2.1 2zm2.051 0a.142.142 0 0 1 .011 0 .142.142 0 0 1 .142.142.142.142 0 0 1-.142.142.142.142 0 0 1-.142-.142.142.142 0 0 1 .131-.142zm-.283.284a.142.142 0 0 1 .01 0 .142.142 0 0 1 .142.141.142.142 0 0 1-.142.142.142.142 0 0 1-.142-.142.142.142 0 0 1 .132-.141zm.567 0a.142.142 0 0 1 .01 0 .142.142 0 0 1 .142.141.142.142 0 0 1-.142.142.142.142 0 0 1-.141-.142.142.142 0 0 1 .13-.141zm-.284.283a.142.142 0 0 1 .011 0 .142.142 0 0 1 .142.142.142.142 0 0 1-.142.142.142.142 0 0 1-.142-.142.142.142 0 0 1 .131-.142z" fill="gray"/></svg>