<svg xmlns="http://www.w3.org/2000/svg" width="24" height="24"><defs><style id="current-color-scheme"></style></defs><path d="M15.02 4c-.35.13-.7.3-.98.54a2.56 2.56 0 0 0-.04 4.1c.28.23.63.41.97.56.03 0 .03 2.05.03 2.05A7.42 7.42 0 0 1 18 14V9.25c.34-.13.66-.32.95-.55a2.56 2.56 0 0 0 .04-4.1 3.64 3.64 0 0 0-.97-.56L18 6.27c0 .46-.45.73-1 .73h-1c-.56 0-1-.3-1-.77L15.02 4zM12 12c-4 0-6 3-6 6H4.25c-.25 0-.25.16-.25.25v1.5c0 .25.14.25.25.25h15.5c.19 0 .24-.13.24-.25v-1.5c.03-.15 0-.25-.25-.25H18c0-3-2-6-6-6zm0 3c2.35 0 3 1.76 3 3H9c0-1.2.7-3 3-3z" fill="currentColor" color="#963996"/></svg>
