<svg xmlns="http://www.w3.org/2000/svg" version="1" viewBox="0 0 24 24"><path d="M6.708 3.563v1.705H.995v2.59l.01.12v8.17h-.01v2.62a1.67 1.67 0 0 0 1.67 1.67h18.66c.93 0 1.68-.75 1.68-1.67V5.248h-2.643V3.563zm1.414 1.455h10.734v3.5H9.015v-.01h-.893zm-4.719 1.95h3.305v1.54H3.884l-.08.02a.62.62 0 0 0-.52.62l.02.1-.02.12v2.9c0 .47.29.85.66.85.36 0 .66-.38.66-.86v-2.47h16.74v8.07a.8.8 0 0 1-.8.8H3.394a.8.8 0 0 1-.809-.8V7.777a.8.8 0 0 1 .799-.8zm16.96 0h.18c.44 0 .802.36.802.81v.73h-.983z" fill="#963996"/></svg>
