<svg xmlns="http://www.w3.org/2000/svg" width="24" height="24"><path d="M12 2.54a9.46 9.46 0 0 0-8.3 4.93l8.14 8h.76l7.86-7.7A9.46 9.46 0 0 0 12 2.54zM3.15 8.67A9.46 9.46 0 0 0 2.54 12a9.46 9.46 0 0 0 1.24 4.66l3.72-3.7-4.35-4.29zm17.82.35L17 12.97l1.87 1.88H21a9.46 9.46 0 0 0 .46-2.85 9.46 9.46 0 0 0-.49-2.98zm-12.55 4.8l-3.94 3.91A9.46 9.46 0 0 0 12 21.46a9.46 9.46 0 0 0 3.11-.54v-6.07h1.99l-1.04-1.02-2.9 2.9h-1.84l-2.9-2.9v-.01zm7.37 1.92v5.84h1.42V17.3l1.35 3.15h.95l1.34-3.15v4.27h1.43v-5.84h-1.91l-1.34 3.13-1.33-3.13H15.8z" fill="#963996"/></svg>
