<svg xmlns="http://www.w3.org/2000/svg" width="24" height="24"><g fill="#963996"><path d="M7.5 4.12s-.8-.02-1.63.4A3.34 3.34 0 0 0 4.13 7.5v10.12H3v2.25l3.38.01v-.01H21v-2.25h-1.12V7.49s.01-.8-.4-1.62a3.34 3.34 0 0 0-2.98-1.75zm0 2.25h9c.75 0 .82.2.96.5.15.3.17.62.17.62v10.13H6.38V7.49c0-.74.2-.81.5-.96.3-.14.62-.16.62-.16z" font-family="sans-serif" font-weight="400" overflow="visible" style="font-variant-ligatures:normal;font-variant-position:normal;font-variant-caps:normal;font-variant-numeric:normal;font-variant-alternates:normal;font-feature-settings:normal;text-indent:0;text-decoration-line:none;text-decoration-style:solid;text-decoration-color:#000;text-transform:none;text-orientation:mixed;shape-padding:0;isolation:auto;mix-blend-mode:normal" white-space="normal"/><path d="M10.88 8.62v2.25H8.63v2.25h2.25v2.25h2.25v-2.25h2.25v-2.25h-2.25V8.62z"/></g></svg>
