<svg xmlns="http://www.w3.org/2000/svg" width="48" height="48" viewBox="0 0 12.7 12.7"><path fill="#5beedc" d="M5.895.073v.014a6.252 6.252 0 0 0-5.823 5.82H.06v.834h.013a6.252 6.252 0 0 0 5.823 5.82v.015h.833v-.014a6.249 6.249 0 0 0 5.819-5.821h.016v-.834h-.016A6.249 6.249 0 0 0 6.728.087V.073h-.417zm0 .887v2.447H3.85C4.3 2.11 5.038 1.19 5.895.96zm.833 0c.856.229 1.594 1.15 2.042 2.447H6.728zm-2.755.476c-.402.535-.738 1.206-.981 1.971h-1.25a5.452 5.452 0 0 1 2.231-1.971zm4.676 0a5.452 5.452 0 0 1 2.23 1.971H9.63c-.244-.765-.577-1.436-.982-1.971zM1.31 4.24h1.464a9.9 9.9 0 0 0-.205 1.667H.908a5.372 5.372 0 0 1 .4-1.667zm2.308 0h2.278v1.667H3.402a9.319 9.319 0 0 1 .215-1.667zm3.111 0h2.275c.118.52.192 1.08.218 1.667H6.728zm3.121 0h1.466c.216.52.354 1.08.398 1.667h-1.659a9.897 9.897 0 0 0-.205-1.667zM.908 6.74h1.66c.023.582.094 1.141.205 1.668H1.308a5.373 5.373 0 0 1-.4-1.667zm2.494 0h2.493V8.41H3.617a9.318 9.318 0 0 1-.215-1.667zm3.326 0h2.493a9.237 9.237 0 0 1-.218 1.668H6.728zm3.326 0h1.658a5.346 5.346 0 0 1-.397 1.668H9.849a9.9 9.9 0 0 0 .205-1.667zM1.743 9.243h1.249c.243.766.578 1.437.981 1.972a5.446 5.446 0 0 1-2.23-1.972zm2.108 0h2.044v2.448c-.857-.23-1.596-1.15-2.044-2.448zm2.877 0H8.77c-.448 1.298-1.186 2.218-2.042 2.448zm2.903 0h1.247a5.446 5.446 0 0 1-2.229 1.972c.403-.536.738-1.206.982-1.972z" color="#000" font-family="Andale Mono" font-weight="400" overflow="visible" style="line-height:normal;text-indent:0;text-align:start;text-decoration-line:none;text-transform:none;marker:none"/></svg>
