<svg xmlns="http://www.w3.org/2000/svg" width="48" height="48" viewBox="0 0 12.7 12.7"><path d="M6.35.08A6.27 6.27 0 0 0 .08 6.35a6.27 6.27 0 0 0 6.27 6.27 6.27 6.27 0 0 0 6.27-6.27A6.27 6.27 0 0 0 6.35.08zm-.02.94a5.39 5.39 0 0 1 5.4 5.38 5.39 5.39 0 0 1-5.4 5.4A5.39 5.39 0 0 1 .94 6.4a5.39 5.39 0 0 1 5.4-5.39zM3.17 2.98a.2.2 0 0 0-.2.2v.27a.97.97 0 0 0-.59.9v4.4c0 .54.43.97.97.97h6a.97.97 0 0 0 .97-.97v-4.4a.97.97 0 0 0-.97-.98H4.37v-.2a.2.2 0 0 0-.2-.2h-1zm6.16.99a.4.4 0 0 1 .4.4.4.4 0 0 1-.4.4.4.4 0 0 1-.4-.4.4.4 0 0 1 .4-.4zm-2.98.8a2.18 2.18 0 0 1 2.18 2.18 2.18 2.18 0 0 1-2.18 2.18 2.18 2.18 0 0 1-2.18-2.18 2.18 2.18 0 0 1 2.18-2.18zm0 .34A1.85 1.85 0 0 0 4.5 6.95 1.85 1.85 0 0 0 6.35 8.8 1.85 1.85 0 0 0 8.2 6.95a1.85 1.85 0 0 0-1.85-1.84zm0 .64a1.2 1.2 0 0 1 1.2 1.2 1.2 1.2 0 0 1-1.2 1.2 1.2 1.2 0 0 1-1.2-1.2 1.2 1.2 0 0 1 1.2-1.2z" fill="#5beedc"/></svg>
