<svg xmlns="http://www.w3.org/2000/svg" width="48" height="48" viewBox="0 0 12.7 12.7"><path fill="#ff7f2a" d="M6.34.07a6.29 6.29 0 0 0-6.29 6.3 6.29 6.29 0 0 0 6.3 6.28 6.29 6.29 0 0 0 6.28-6.29A6.29 6.29 0 0 0 6.34.07zm-.01.94a5.4 5.4 0 0 1 5.4 5.4 5.4 5.4 0 0 1-5.4 5.41 5.4 5.4 0 0 1-5.41-5.4A5.4 5.4 0 0 1 6.32 1zm1.06 1.4c-.5 0-.1 1.17-.32 1.65-.24.51-.45.37-.52.23s.08-1.5-.6-1.23c-.5.2.29 1.03.23 1.33-.18.89-1.28.53-1.47.28-.19-.25-1.53-2.19-2.2-1.19-.66 1 2 1.5 1.96 1.55-.04.04.67.34.59.46-.08.12-.16.4-.55.52s-1.04-.54-1.2.16c-.16.69.94.15 1.22.1.28-.04.26.08.33.2.05.07.01.2.01.27s-.03.46-.18.5c-.74.17-1.9.35-1.48 1.07.43.72 1.4-.85 1.79-.95.38-.11.56.1.68.17.12.08.28.21.18.74-.1.53-1.25 2.06-.32 2.02.93-.04.57-1.71.74-1.88.16-.17.56-.36.9-.27.32.1.33.97.52.8.3-.24-.35-.8-.23-.96.12-.16.2-.4.44-.48.84-.26 1.83 1.83 2.3.97.47-.87-1.45-1.11-1.54-1.4-.1-.3-.26-.38-.18-.5.08-.13.13.07.3-.1.17-.17 1.33.83 1.5.17.16-.67-1.63-.44-1.63-.57 0-.14.25-.32.23-.46-.04-.21-.23-.3-.09-.35.14-.06 1.34.36 1.3-.14-.04-.53-.81-.06-1.25-.05-.2.01-.25-.26-.25-.3.02-.19.21-.17.19-.31-.04-.2-.3-.06-.26-.21.08-.4 1.05-.6.65-1-.39-.38-.66.57-.94.9-.2.24-.41.36-.64.3-.16-.06-.29-.03-.26-.43.02-.41.83-1.43.16-1.6a.43.43 0 0 0-.1-.01z"/></svg>