<svg xmlns="http://www.w3.org/2000/svg" width="48" height="48" viewBox="0 0 12.7 12.7"><path fill="#ff7f2a" d="M6.34.07a6.29 6.29 0 0 0-6.29 6.3 6.29 6.29 0 0 0 6.3 6.28 6.29 6.29 0 0 0 6.28-6.29A6.29 6.29 0 0 0 6.34.07zm-.01.94a5.4 5.4 0 0 1 5.4 5.4 5.4 5.4 0 0 1-5.4 5.41 5.4 5.4 0 0 1-5.41-5.4A5.4 5.4 0 0 1 6.32 1zm.14 1.75a.12.12 0 0 0-.12.13v.25a.12.12 0 0 0 .25 0v-.25a.12.12 0 0 0-.13-.13zm2.37.25a.85.85 0 1 0 0 1.7.85.85 0 0 0 0-1.7zm-3.6.13a.12.12 0 1 0 0 .24.12.12 0 0 0 0-.24zm.74.12a.12.12 0 0 0 0 .25h.25a.12.12 0 0 0 0-.25h-.25zm.74 0a.12.12 0 0 0 0 .25h.25a.12.12 0 1 0 0-.25h-.25zm2.35 0a.12.12 0 0 1 0 .25.12.12 0 0 1-.12-.13c0-.07.05-.12.12-.12zm-.48.12a.12.12 0 0 1 .02.25.25.25 0 0 0-.16.13c-.04.1 0 .24.1.42a.12.12 0 0 1 .01.13.12.12 0 0 1-.21 0c-.16-.25-.2-.47-.12-.65a.5.5 0 0 1 .32-.27.14.14 0 0 1 .04 0zm-2.12.13a.12.12 0 0 0-.12.12v.25a.12.12 0 0 0 .25 0v-.25a.12.12 0 0 0-.13-.12zm1.13.74a.73.73 0 0 1-.2.68l-.53.53.19.18a.12.12 0 1 1-.18.18l-.18-.18-2.42 2.42.35.35.81-.81-.17-.17a.12.12 0 0 1 0-.18.12.12 0 0 1 .18 0l.17.17.69-.7-.17-.16a.12.12 0 0 1 .17-.17l.17.16 1.28-1.27a.72.72 0 0 1 .68-.2.62.62 0 0 0-.48-.22.12.12 0 0 1-.09-.04.12.12 0 0 1-.03-.09.62.62 0 0 0-.24-.48zm-1 .12a.12.12 0 1 0 0 .25.12.12 0 0 0 0-.25zm-1.24.12a.12.12 0 0 0-.12.13v.25c0 .06.05.12.12.12a.12.12 0 0 0 .12-.12v-.25a.12.12 0 0 0-.12-.12zm-.5.5a.12.12 0 0 0-.12.12c0 .07.06.13.13.13h.24a.12.12 0 0 0 0-.25h-.24zm.75 0a.12.12 0 1 0 0 .25h.25a.12.12 0 0 0 0-.25H5.6zm3.96.12zm-4.2.13a.12.12 0 0 0-.13.12v.25a.12.12 0 0 0 .24 0v-.25a.12.12 0 0 0-.12-.12zm3.08.61a.12.12 0 1 0 0 .25.12.12 0 0 0 .13-.12.12.12 0 0 0-.13-.13zm.87 0a.12.12 0 0 0-.13.13v.25a.12.12 0 0 0 .25 0v-.25a.12.12 0 0 0-.12-.12zm-.5.5a.12.12 0 0 0 0 .25h.25a.12.12 0 0 0 0-.25h-.25zm.75 0a.12.12 0 0 0 0 .25h.24a.12.12 0 0 0 0-.25h-.24zm-.25.25a.12.12 0 0 0-.13.12v.25c0 .07.06.12.13.12a.12.12 0 0 0 .12-.12v-.25a.12.12 0 0 0-.12-.12zM4.1 8.24l-.57.57.18.17a.13.13 0 0 1-.06.21.12.12 0 0 1-.12-.03l-.17-.18-.53.53a.25.25 0 1 0 .35.35L4.46 8.6l-.35-.35z"/></svg>