<svg xmlns="http://www.w3.org/2000/svg" width="48" height="48" viewBox="0 0 12.7 12.7"><path fill="#ff7f2a" d="M6.34.07a6.29 6.29 0 0 0-6.29 6.3 6.29 6.29 0 0 0 6.3 6.28 6.29 6.29 0 0 0 6.28-6.29A6.29 6.29 0 0 0 6.34.07zm-.03.94v2.03H3.3v-1.1a5.4 5.4 0 0 1 3.01-.93zm.24.01a5.4 5.4 0 0 1 2.92 1v1.02H6.55V1.02zm-3.49 1.1v.92h-.95a5.4 5.4 0 0 1 .95-.93zm6.65.08a5.4 5.4 0 0 1 .84.84H9.7V2.2zM1.93 3.27h1.13v2.97H.93a5.4 5.4 0 0 1 1-2.96zm1.37 0h3v2.97h-3V3.28zm3.25 0h2.92v2.97H6.55V3.28zm3.16 0h1a5.4 5.4 0 0 1 1.02 2.97H9.7V3.28zm-4.8.44l-.86 1.3v.27h.93v.49h.28v-.49h.3v-.23h-.3V3.71h-.35zm.07.24v1.1h-.7l.7-1.1zM.92 6.48h2.14V9.4H1.82a5.4 5.4 0 0 1-.9-2.92zm2.38 0h3V9.4h-3V6.48zm3.25 0h2.92V9.4H6.55V6.48zm3.16 0h2.02a5.4 5.4 0 0 1-.9 2.92H9.7V6.48zm-1.8.4a1.75 1.75 0 0 0-.56.08v.25a2.28 2.28 0 0 1 .53-.1.52.52 0 0 1 .32.09.28.28 0 0 1 .12.24.28.28 0 0 1-.11.24.52.52 0 0 1-.32.08h-.25v.23h.24c.15 0 .27.03.36.1a.34.34 0 0 1 .12.28.35.35 0 0 1-.13.3c-.1.07-.23.1-.4.1-.1 0-.2 0-.29-.03a.96.96 0 0 1-.25-.1v.27a1.92 1.92 0 0 0 .55.1c.26 0 .45-.05.6-.17a.57.57 0 0 0 .2-.47.5.5 0 0 0-.11-.33.53.53 0 0 0-.31-.18.51.51 0 0 0 .28-.16.44.44 0 0 0 .1-.29.47.47 0 0 0-.19-.39.8.8 0 0 0-.5-.14zM1.99 9.64h1.07v1.08A5.4 5.4 0 0 1 2 9.64zm1.31 0h3.01v2.18a5.4 5.4 0 0 1-3.01-.92V9.63zm3.25 0h2.92v1.17a5.4 5.4 0 0 1-2.92 1V9.65zm3.16 0h.95a5.4 5.4 0 0 1-.95 1v-1z"/></svg>