<svg xmlns="http://www.w3.org/2000/svg" width="48" height="48" viewBox="0 0 12.7 12.7"><path fill="#ff7f2a" d="M6.34.07a6.29 6.29 0 0 0-6.29 6.3 6.29 6.29 0 0 0 6.3 6.28 6.29 6.29 0 0 0 6.28-6.29A6.29 6.29 0 0 0 6.34.07zm-.01.94a5.4 5.4 0 0 1 5.4 5.4 5.4 5.4 0 0 1-5.4 5.41 5.4 5.4 0 0 1-5.41-5.4A5.4 5.4 0 0 1 6.32 1zm1.92 1.24a1.79 1.79 0 0 0-1.48.71c-.17.23-.12.65.02.9l.93 1.51c.14.24.5.47.77.43a1.79 1.79 0 1 0-.24-3.55zm-2.45 2a.45.45 0 0 0-.26.12L2.06 7.38a.66.66 0 0 0-.15.79l.01.02a.56.56 0 0 0 .71.24l1.8-.82c.25-.12.46-.02.46.21 0 .23.07.42.15.42.08 0 .15.23.15.52v2.2c0 .28.12.5.26.5s.26-.22.26-.5v-2.2c0-.29.08-.52.18-.52.1 0 .17-.23.17-.5v-.37c0-.28.21-.6.47-.72l.31-.15a.44.44 0 0 0 .2-.65L6.2 4.47a.43.43 0 0 0-.3-.2.4.4 0 0 0-.1-.01z"/></svg>