<svg xmlns="http://www.w3.org/2000/svg" width="48" height="48" viewBox="0 0 12.7 12.7"><path fill="#ff7f2a" d="M6.34.07a6.29 6.29 0 0 0-6.29 6.3 6.29 6.29 0 0 0 6.3 6.28 6.29 6.29 0 0 0 6.28-6.29A6.29 6.29 0 0 0 6.34.07zm-.01.94a5.4 5.4 0 0 1 5.4 5.4 5.4 5.4 0 0 1-5.4 5.41 5.4 5.4 0 0 1-5.41-5.4A5.4 5.4 0 0 1 6.32 1z"/><path fill="#006680" d="M6.98 2.38c-.85 0-1.44.2-1.98.63a1.9 1.9 0 0 0-.66 1.4c0 .8.6 1.65 1.73 1.65.11 0 .23 0 .34-.02l-.02.04a.85.85 0 0 0-.09.37c0 .31.15.5.3.7l.02.01h-.04c-.46.04-1.33.1-1.96.49a1.5 1.5 0 0 0-.8 1.28c0 .74.69 1.5 2.24 1.5 1.81 0 2.76-1 2.76-1.99 0-.72-.43-1.08-.88-1.46l-.39-.3c-.12-.1-.26-.22-.26-.45 0-.22.14-.37.27-.5h.02c.41-.33.88-.7.88-1.5S7.96 3 7.72 2.8h.63a.04.04 0 0 0 .03 0l.54-.35a.04.04 0 0 0 .02-.04.04.04 0 0 0-.04-.03zm-.76.4c.85 0 1.32 1.14 1.32 1.93 0 .13 0 .5-.26.77a1.07 1.07 0 0 1-.72.29c-.92 0-1.3-1.22-1.3-1.87 0-.33.07-.58.23-.77a.97.97 0 0 1 .73-.35zm.51 4.68h.24c.77.56 1.15.85 1.15 1.4 0 .7-.6 1.13-1.54 1.13-1.1 0-1.85-.52-1.85-1.28 0-.5.3-.87.9-1.08.48-.16 1.1-.17 1.1-.17z" opacity=".75"/></svg>