<svg xmlns="http://www.w3.org/2000/svg" width="48" height="48" viewBox="0 0 12.7 12.7"><path fill="#ff7f2a" d="M6.34.07a6.29 6.29 0 0 0-6.29 6.3 6.29 6.29 0 0 0 6.3 6.28 6.29 6.29 0 0 0 6.28-6.29A6.29 6.29 0 0 0 6.34.07zm-.01.94a5.4 5.4 0 0 1 4.49 2.4.25.25 0 0 0-.12-.02 2.24 2.24 0 0 0-1.66.81c-.31-.4-.96-.62-1.35-.72-.19-.05-.2 0-.08.1l.01.02h.07c.4.1 1.04.33 1.35.73 0 0 .64-.83 1.66-.81l.1.01c.03-.03.05-.05.05-.07a5.4 5.4 0 0 1 .42.77 1.96 1.96 0 0 0-1.02-.29 1.6 1.6 0 0 0-.64.13.94.94 0 0 0-.02.13s.82-.4 1.76.21a5.4 5.4 0 0 1 .38 2 5.4 5.4 0 0 1-5.4 5.41 5.4 5.4 0 0 1-5.41-5.4A5.4 5.4 0 0 1 6.32 1zm.57 2.71l-5.18.01L4 7.1V9.7h-.97v.26H5.6V9.7h-.98V7.11L6.9 3.72zm.48.17c-.17 0-.19.06-.08.14a.5.5 0 0 1 .08 0c.18 0 .43.04.74.16l-.05-.15a2.28 2.28 0 0 0-.7-.15zm.69.88a2.44 2.76 44.85 0 0-.68.12l.1.15c.07.09.21.12.33.07l.4-.2a.18.18 0 0 0 .1-.14 2.44 2.76 44.85 0 0-.25 0zm.79.09a.16.16 0 0 0-.01.2l.23.32c.06.09.2.12.32.07l.3-.14a2.44 2.76 44.85 0 0-.84-.45zm-1.68.1a2.44 2.76 44.85 0 0-.76.44l.07.1c.07.1.21.13.32.08l.4-.2c.11-.04.15-.16.09-.25l-.12-.17zm1.24.1a.27.27 0 0 0-.09.02l-.4.19c-.11.05-.15.16-.08.25l.23.33c.06.1.2.12.31.07l.4-.19c.12-.05.16-.17.09-.26l-.23-.32a.23.23 0 0 0-.14-.09.3.3 0 0 0-.1 0zm1.43.4l-.34.15c-.1.05-.15.17-.08.26l.23.32c.06.1.2.12.32.07l.3-.14a2.44 2.76 44.85 0 0-.43-.67zm-2.43.07a.27.27 0 0 0-.1.02l-.4.19c-.1.05-.14.17-.08.26l.23.32c.07.1.2.12.32.07l.4-.19c.11-.05.15-.16.09-.25l-.24-.33a.23.23 0 0 0-.14-.09.29.29 0 0 0-.08 0zm-1.17.01a2.44 2.76 44.85 0 0-.45.5l.4-.18c.12-.05.16-.17.1-.26l-.05-.06zM9 5.87a.27.27 0 0 0-.09.02l-.4.2c-.11.05-.15.16-.09.25l.23.33c.07.09.21.12.32.07l.4-.2c.11-.05.15-.16.09-.25l-.23-.33a.23.23 0 0 0-.14-.09.29.29 0 0 0-.1 0zM6.4 6a.27.27 0 0 0-.09.02l-.4.19c-.1.05-.15.17-.08.26l.23.32c.06.1.2.12.32.07l.4-.19c.1-.05.15-.16.08-.25l-.23-.33A.23.23 0 0 0 6.5 6a.29.29 0 0 0-.09 0zm3.94.3l-.26.13c-.11.05-.15.16-.08.25l.23.33a.25.25 0 0 0 .22.1 2.44 2.76 44.85 0 0-.1-.8zM8 6.34a.27.27 0 0 0-.08.03l-.4.18c-.12.06-.15.17-.09.26l.23.33c.07.09.2.12.32.07l.4-.2c.11-.04.15-.16.09-.25l-.24-.33a.23.23 0 0 0-.14-.08.3.3 0 0 0-.09 0zm-2.45.15a2.44 2.76 44.85 0 0-.13.34 2.44 2.76 44.85 0 0-.12.53.27.27 0 0 0 .1-.03l.4-.18c.1-.06.14-.17.08-.26l-.23-.33a.22.22 0 0 0-.1-.07zm4.04.2a.27.27 0 0 0-.1.02l-.4.19c-.1.05-.14.16-.08.25l.23.33c.07.09.2.12.32.07l.4-.19c.11-.05.15-.17.09-.26l-.23-.32a.23.23 0 0 0-.14-.1.3.3 0 0 0-.1 0zm-2.59.12a.27.27 0 0 0-.09.03l-.4.18c-.1.06-.15.17-.08.26l.23.33c.06.09.2.12.31.07l.4-.2c.12-.04.16-.16.1-.25l-.24-.33a.23.23 0 0 0-.14-.08.29.29 0 0 0-.09 0zm1.58.35a.28.28 0 0 0-.08.02l-.4.19c-.12.05-.15.17-.1.26l.24.32c.06.1.2.12.32.07l.4-.19c.11-.05.15-.16.08-.26l-.23-.32a.23.23 0 0 0-.14-.09.29.29 0 0 0-.09 0zM6 7.28a.27.27 0 0 0-.09.03l-.4.19c-.11.05-.15.16-.09.25l.24.33c.06.09.2.12.31.07l.4-.19c.12-.05.15-.17.09-.26l-.23-.32a.23.23 0 0 0-.14-.1.29.29 0 0 0-.1 0zm4.17.22a.27.27 0 0 0-.1.02l-.4.2c-.1.04-.14.16-.08.25l.23.33c.07.09.2.12.32.07a2.44 2.76 44.85 0 0 .2-.47 2.44 2.76 44.85 0 0 .07-.28l-.01-.03a.23.23 0 0 0-.14-.09.3.3 0 0 0-.1 0zm-2.6.13a.27.27 0 0 0-.08.02l-.4.19c-.11.05-.15.17-.08.26l.23.32c.06.1.2.12.31.07l.4-.19c.12-.05.15-.16.09-.25l-.23-.33a.23.23 0 0 0-.14-.09.3.3 0 0 0-.09 0zm-2.28.32a2.44 2.76 44.85 0 0 .1.47c.1-.06.12-.16.06-.25l-.16-.22zm3.87.02a.27.27 0 0 0-.09.03l-.4.18c-.1.06-.15.17-.08.26l.23.33c.06.09.2.12.32.07l.4-.2c.1-.05.15-.16.08-.25l-.23-.33a.23.23 0 0 0-.14-.08.29.29 0 0 0-.09 0zm-2.58.13a.27.27 0 0 0-.1.02l-.4.2c-.1.04-.14.16-.08.25l.23.33c.07.09.2.12.32.06l.4-.18c.11-.06.15-.17.09-.26l-.23-.33a.23.23 0 0 0-.14-.09.29.29 0 0 0-.1 0zm1.58.34a.27.27 0 0 0-.09.03l-.4.19c-.11.05-.15.16-.09.25l.23.33c.07.09.21.12.32.07l.4-.2c.11-.04.15-.16.09-.25l-.23-.32a.23.23 0 0 0-.14-.1.29.29 0 0 0-.1 0zm-2.59.13a.27.27 0 0 0-.08.02l-.03.02a2.44 2.76 44.85 0 0 .43.66l.06-.02c.1-.06.15-.17.08-.26l-.23-.33a.23.23 0 0 0-.14-.08.29.29 0 0 0-.09-.01zm4.17.22a.27.27 0 0 0-.09.02l-.4.19c-.11.05-.15.17-.09.26l.1.12a2.44 2.76 44.85 0 0 .59-.58l-.02-.01a.3.3 0 0 0-.1 0zm-2.59.12a.27.27 0 0 0-.08.03l-.4.19c-.11.05-.15.16-.09.25l.23.33c.07.09.2.12.32.07l.4-.2c.11-.04.15-.16.08-.25l-.23-.32a.23.23 0 0 0-.14-.1.3.3 0 0 0-.09 0zm1.59.35a.27.27 0 0 0-.1.02l-.4.2c-.1.04-.14.16-.08.25l.1.14a2.44 2.76 44.85 0 0 .82-.37l-.11-.15a.23.23 0 0 0-.14-.09.29.29 0 0 0-.1 0zm-2.59.13a.27.27 0 0 0-.09.02h-.01a2.44 2.76 44.85 0 0 .53.35l-.2-.28a.23.23 0 0 0-.14-.09.29.29 0 0 0-.09 0zm1.58.34a.28.28 0 0 0-.08.02l-.4.2a2.44 2.76 44.85 0 0 .78-.03l-.07-.1a.23.23 0 0 0-.14-.09.29.29 0 0 0-.09 0z"/></svg>