<svg xmlns="http://www.w3.org/2000/svg" width="48" height="48" viewBox="0 0 12.7 12.7"><path fill="#ff7f2a" d="M6.34.07a6.29 6.29 0 0 0-6.29 6.3 6.29 6.29 0 0 0 6.3 6.28 6.29 6.29 0 0 0 6.28-6.29A6.29 6.29 0 0 0 6.34.07zm-.01.94a5.4 5.4 0 0 1 5.4 5.4 5.4 5.4 0 0 1-5.4 5.41 5.4 5.4 0 0 1-5.41-5.4A5.4 5.4 0 0 1 6.32 1zm-.8.97c-.45 0-2.83 2.6-2.83 2.86v4.82H10l-.01-4.8c0-.26-2.34-2.88-2.77-2.88h-1.7zm3.22 2.39l.6 1.24L7.85 7.6H7.8l2.05 1.9L7.5 7.6H5.46L2.84 9.54l2.2-1.84-2.23-2.8v-.01l1.48 1.6-.56-.68 5.02-1.43z"/></svg>