<svg xmlns="http://www.w3.org/2000/svg" width="48" height="48" viewBox="0 0 12.7 12.7"><path d="M6.34.07a6.29 6.29 0 0 0-6.29 6.3 6.29 6.29 0 0 0 6.3 6.28 6.29 6.29 0 0 0 6.28-6.29A6.29 6.29 0 0 0 6.34.07zm-.01.94a5.4 5.4 0 0 1 5.4 5.4 5.4 5.4 0 0 1-5.4 5.41 5.4 5.4 0 0 1-5.41-5.4A5.4 5.4 0 0 1 6.32 1z" fill="#ff7f2a"/><path d="M2.78 8.6c3.57.13 3.84-4.37 7.14-4.23" fill="none" stroke="#ff7f2a" stroke-width=".26"/><circle r=".66" cy="3.04" cx="6.48" fill="#ff7f2a" stroke="#ff7f2a" stroke-width=".13"/><circle r=".66" cy="9.66" cx="6.48" fill="#ff7f2a" stroke="#ff7f2a" stroke-width=".13"/><path d="M6.35 3.32h.27v6.16h-.27z" fill="#ff7f2a" stroke="#ff7f2a" stroke-width=".11"/><path d="M6.08 6.48a.4.4 0 1 0 .8 0 .4.4 0 0 0-.8 0zm-3.7 1.47h1.06v1.06H2.38zm6.88-4.23h1.06v1.06H9.26z" fill="#ff7f2a" stroke="#ff7f2a" stroke-width=".26"/></svg>