<svg xmlns="http://www.w3.org/2000/svg" width="48" height="48" viewBox="0 0 12.7 12.7"><path d="M6.34.07a6.29 6.29 0 0 0-6.29 6.3 6.29 6.29 0 0 0 6.3 6.28 6.29 6.29 0 0 0 6.28-6.29A6.29 6.29 0 0 0 6.34.07zm-.01.94a5.4 5.4 0 0 1 5.4 5.4 5.4 5.4 0 0 1-5.4 5.41 5.4 5.4 0 0 1-5.41-5.4A5.4 5.4 0 0 1 6.32 1zM8.3 2.36l-.35.7A3.15 3.15 0 0 1 9.7 5.88 3.15 3.15 0 0 1 7.96 8.7l.35.7a3.94 3.94 0 0 0 2.18-3.52A3.94 3.94 0 0 0 8.3 2.36zm-3.92 0a3.94 3.94 0 0 0-2.18 3.52A3.94 3.94 0 0 0 4.4 9.41l.35-.7A3.15 3.15 0 0 1 3 5.87a3.15 3.15 0 0 1 1.74-2.82l-.35-.7zm3.22 1.4l-.36.71a1.58 1.58 0 0 1 .88 1.41 1.58 1.58 0 0 1-.88 1.41l.35.7a2.37 2.37 0 0 0 1.31-2.1 2.37 2.37 0 0 0-1.3-2.12zm-2.51.01a2.37 2.37 0 0 0-1.31 2.11A2.37 2.37 0 0 0 5.09 8l.36-.7a1.58 1.58 0 0 1-.87-1.42 1.58 1.58 0 0 1 .87-1.4l-.35-.71zM6.35 4.9a.98.98 0 0 0-.98.98.98.98 0 0 0 .58.9v4.59a3.94 5.43 0 0 0 .4.03 3.94 5.43 0 0 0 .4-.03V6.8a.98.98 0 0 0 .58-.9.98.98 0 0 0-.98-1z" fill="#ff7f2a"/></svg>