<svg xmlns="http://www.w3.org/2000/svg" width="48" height="48" viewBox="0 0 12.7 12.7"><path fill="#ff7f2a" d="M6.34.07a6.29 6.29 0 0 0-6.29 6.3 6.29 6.29 0 0 0 6.3 6.28 6.29 6.29 0 0 0 6.28-6.29A6.29 6.29 0 0 0 6.34.07zm-.01.94a5.4 5.4 0 0 1 5.4 5.4 5.4 5.4 0 0 1-5.4 5.41 5.4 5.4 0 0 1-5.41-5.4A5.4 5.4 0 0 1 6.32 1zm2.9 1.24c-.68-.01-1.37.2-2.04.57-.35.19-.66.46-.88.56C4.33 3 2.15 4.62 1.93 7.48c-.02.23-.01.8.1.86 1.12.34 2.7-.03 3.62-.42.26.08.59.14 1.04.16.26-.07.18-.3-.05-.57 1.14-.28 1.65.57 1.83.7.34.28-.7 1.07-.63 1.71.04.36.18.54.18.54.29-.81 1.19-.48 1.14-1.32.68.39.82-.22 1.62-.1-.12-.17-.26-.43-.57-.56-.33-.12-.9-.1-1.04-.53-.02-.48-.02-3.02-1.17-3.8-.17-.34.01-.83.34-1.16.3-.3.74-.57.9-.75zM3.98 6.25a.15.15 0 0 1 .04.02c.14.2-.45.95-.74.71-.12-.17.44-.76.7-.73zm3.85.02c.24 0 .44.05.49.16.1.26-1.77.26-.3.95.37.23.37.59.33.54-.26-.25-.76-.78-1.77-.52a5.65 5.65 0 0 0-.64-.6c.2-.14.45-.3.8-.42a4.2 4.2 0 0 1 1.09-.11zm-3.51.9l.46.03c.12.2.26.45.69.64-.77.3-1.77.6-2.75.5-.12-.01.02.16.82-.85.23-.29.49-.33.78-.32z"/></svg>