<svg xmlns="http://www.w3.org/2000/svg" width="48" height="48" version="1"><path fill="none" stroke="#ff7f2a" stroke-width=".98" d="M6.71 37.34l7.25-11.31 6.04 5.2 7.96-11.73 8.14 4.22 5.1-15.7"/><path fill="none" stroke="#ff7f2a" d="M6.72 37.34l7.23-4.53 5.93 3.34 7.94-9.3 8.07 3.06 5.3-3.35"/><path fill="#ff7f2a" d="M15.94 26A1.97 2 0 1 1 12 26a1.97 2 0 1 1 3.94 0zm6 5A1.97 2 0 1 1 18 31a1.97 2 0 1 1 3.94 0zM30 19.81a1.97 2 0 1 1-3.94 0 1.97 2 0 1 1 3.94 0zm7.94 3.2A1.97 2 0 1 1 34 23a1.97 2 0 1 1 3.94 0zm-22 10A1.97 2 0 1 1 12 33a1.97 2 0 1 1 3.94 0zm6 3A1.97 2 0 1 1 18 36a1.97 2 0 1 1 3.94 0zm8-9A1.97 2 0 1 1 26 27a1.97 2 0 1 1 3.94 0zm8 3A1.97 2 0 1 1 34 30a1.97 2 0 1 1 3.94 0z" color="#000"/><path fill="#ff7f2a" d="M24 .23A23.77 23.77 0 0 0 .23 24 23.77 23.77 0 0 0 24 47.77 23.77 23.77 0 0 0 47.77 24 23.77 23.77 0 0 0 24 .23zm-.07 3.54A20.44 20.44 0 0 1 44.37 24.2a20.44 20.44 0 0 1-20.44 20.44A20.44 20.44 0 0 1 3.5 24.2 20.44 20.44 0 0 1 23.93 3.77z"/></svg>