<svg xmlns="http://www.w3.org/2000/svg" width="48" height="48" viewBox="0 0 12.7 12.7"><path fill="#ff7f2a" d="M6.34.07a6.29 6.29 0 0 0-6.29 6.3 6.29 6.29 0 0 0 6.3 6.28 6.29 6.29 0 0 0 6.28-6.29A6.29 6.29 0 0 0 6.34.07zm-.01.94a5.4 5.4 0 0 1 5.4 5.4 5.4 5.4 0 0 1-5.4 5.41 5.4 5.4 0 0 1-5.41-5.4A5.4 5.4 0 0 1 6.32 1zm-.13.61c-.07 0-.26.04-.34.06-.19.06-.3.21-.37.4-.24.54.08 1.47.42 2.19A21.92 21.92 0 0 1 4.64 7.8c-1.26.57-1.93 1.13-2 1.66-.01.2.03.48.38.74.1.07.2.11.32.11.3 0 .59-.22.93-.7.25-.34.52-.8.8-1.4A16.13 16.13 0 0 1 8 7.3c.52.5 1 .75 1.4.75a.89.89 0 0 0 .74-.4c.2-.26.24-.5.13-.7-.13-.25-.44-.37-.97-.37-.3 0-.68.04-1.12.12a10.5 10.5 0 0 1-1.7-2.5 16.98 16.98 0 0 0 .26-1.4c.03-.29.03-.58-.12-.83-.08-.14-.25-.35-.43-.35zm-.12.6c.02 0 .35.36.04 1.06-.48-.48-.07-1.05-.04-1.06zM6.28 5c.38.67.83 1.31 1.28 1.83-.71.16-1.47.4-2.16.66.33-.8.65-1.67.89-2.49zm3.1 2.13c.3 0 .35.05.4.07a.51.51 0 0 1-.09.14c-.1.14-.32.14-.4.14-.18 0-.24-.1-.51-.3.22-.04.43-.05.6-.05zm-5.15 1.5c-.54.99-.83 1.12-.88 1.13-.16-.11-.15-.2-.14-.22.02-.19.3-.51 1.02-.9z"/></svg>