<svg xmlns="http://www.w3.org/2000/svg" width="48" height="48" viewBox="0 0 12.7 12.7"><path d="M6.34.07a6.29 6.29 0 0 0-6.29 6.3 6.29 6.29 0 0 0 6.3 6.28 6.29 6.29 0 0 0 6.28-6.29A6.29 6.29 0 0 0 6.34.07zm-.01.94a5.4 5.4 0 0 1 5.4 5.4 5.4 5.4 0 0 1-5.4 5.41 5.4 5.4 0 0 1-5.41-5.4A5.4 5.4 0 0 1 6.32 1z" fill="#ff7f2a"/><circle transform="scale(-1 1)" style="marker:none" overflow="visible" r="2.68" cy="7.8" cx="-8.14" color="#000" opacity=".6" fill="#0ff"/><circle transform="scale(-1 1)" style="marker:none" overflow="visible" r="2.68" cy="7.8" cx="-4.56" color="#000" opacity=".4" fill="#f0f"/><circle transform="scale(-1 1)" style="marker:none" overflow="visible" r="2.68" cy="4.21" cx="-6.31" color="#000" opacity=".6" fill="#ff0"/></svg>