<svg xmlns="http://www.w3.org/2000/svg" width="48" height="48" viewBox="0 0 12.7 12.7"><path fill="#ff7f2a" d="M6.34.07a6.29 6.29 0 0 0-6.29 6.3 6.29 6.29 0 0 0 6.3 6.28 6.29 6.29 0 0 0 6.28-6.29A6.29 6.29 0 0 0 6.34.07zm-.01.94a5.4 5.4 0 0 1 5.4 5.4 5.4 5.4 0 0 1-5.4 5.41 5.4 5.4 0 0 1-5.41-5.4A5.4 5.4 0 0 1 6.32 1zm.07.97c-.57 0-1.03.46-1.03 1.02a1.03 1.03 0 1 0 2.06 0A1.03 1.03 0 0 0 6.4 1.98zM2.66 4.15a.28.28 0 0 0-.13.04c-.1.05-.17.13-.17.24 0 .11.07.2.17.26l2.74.82-.01 1.99-.95 2.98c-.04.17-.02.3.05.4.1.14.34.07.43-.07l1.57-3.22 1.53 3.21a.3.3 0 0 0 .41.11c.14-.08.15-.26.1-.4l-.94-3-.03-1.87 2.78-.97a.3.3 0 0 0 .1-.34c-.04-.13-.14-.16-.27-.14a.5.5 0 0 0-.17.01l-3.52.5-3.5-.51a.72.72 0 0 0-.19-.04z"/></svg>