<svg xmlns="http://www.w3.org/2000/svg" width="48" height="48" viewBox="0 0 12.7 12.7"><path fill="#ff7f2a" d="M6.34.07a6.29 6.29 0 0 0-6.29 6.3 6.29 6.29 0 0 0 6.3 6.28 6.29 6.29 0 0 0 6.28-6.29A6.29 6.29 0 0 0 6.34.07zm-.01.94a5.4 5.4 0 0 1 5.4 5.4 5.4 5.4 0 0 1-5.4 5.41 5.4 5.4 0 0 1-5.41-5.4A5.4 5.4 0 0 1 6.32 1zM3.88 2.53a2.2 2.2 0 0 0-.54.05.1.1 0 0 0-.05.02l-.03.09a.1.1 0 0 0 .05.07l1.01.57c.1.05.14.17.13.31 0 .15-.06.32-.15.5a1.14 1.14 0 0 1-.34.39c-.11.08-.23.1-.32.06l-1-.56a.1.1 0 0 0-.12 0 .1.1 0 0 0-.03.08v.04c.16.45.49.88.86 1.1.29.15.62.19.92.11.21.08.5.23.8.53l.28.23c.27-.34.5-.56.73-.79l-.21-.23a2.5 2.5 0 0 1-.51-.93c.1-.57-.14-1.16-.65-1.44a1.81 1.81 0 0 0-.83-.2zm5.73.27c-.47-.02-1.1.12-1.21.94L6.74 5.01l-.2.19c-1.5 1.3-3.77 4.48-3.77 4.48-.1.23.18.4.34.25 0 0 2.86-2.6 4.18-3.94l.2-.21L8.87 4.1h.02c.25-.04.47-.25.59-.63.13-.43.45-.64.52-.64a2.73 2.73 0 0 0-.4-.04zM7.23 6.37c-.27.3-.56.59-.88.88l2.62 2.8c.25.26.7.22.98-.07.3-.29.33-.73.08-.98l-2.8-2.63zm2.2 2.71a.37.37 0 0 1 .26.64.37.37 0 1 1-.26-.64z"/></svg>