<svg xmlns="http://www.w3.org/2000/svg" width="48" height="48" viewBox="0 0 12.7 12.7"><path fill="#ff7f2a" d="M6.34.07a6.29 6.29 0 0 0-6.29 6.3 6.29 6.29 0 0 0 6.3 6.28 6.29 6.29 0 0 0 6.28-6.29A6.29 6.29 0 0 0 6.34.07zm-.01.94a5.4 5.4 0 0 1 5.4 5.4 5.4 5.4 0 0 1-5.4 5.41 5.4 5.4 0 0 1-5.41-5.4A5.4 5.4 0 0 1 6.32 1zm-2.7 1.7a.67.67 0 0 0-.42.2l-.13.12a.66.66 0 0 0 0 .95l2.54 2.54c.18.18.44.24.67.17L8.5 8.9l.06.24a.17.17 89.98 0 0 .07.09l.73.5a.17.17 89.98 0 0 .21-.01l.32-.32a.17.17 89.98 0 0 .02-.22l-.5-.72a.17.17 89.98 0 0-.09-.07l-.25-.07L6.86 6.1a.66.66 0 0 0-.17-.66L4.16 2.91a.67.67 0 0 0-.4-.2.67.67 0 0 0-.12 0zm4.67.05a.14.14 0 0 0-.03 0c-.4.15-.78.43-.96.76a1.1 1.1 0 0 0-.1.81c-.08.2-.21.46-.5.75l.28.32c.16.28.18.5.15.68.33-.33.9-.73 1.11-.8a1.2 1.2 0 0 0 1.27-.57c.18-.32.22-.8.12-1.2a.08.08 0 0 0-.1-.07.08.08 0 0 0-.06.04l-.5.89c-.04.08-.14.12-.26.11a.99.99 0 0 1-.44-.13 1 1 0 0 1-.34-.3c-.07-.1-.1-.2-.05-.28l.48-.88a.09.09 0 0 0 0-.1.09.09 0 0 0-.07-.03zM5.2 6.5L3.13 8.46c-.23.22-.2.6.06.86s.64.28.87.06l2.24-2.41c-.41.13-.77-.06-1.08-.48zM3.65 8.54a.33.33 0 1 1 0 .66.33.33 0 0 1 0-.66z"/></svg>