<svg xmlns="http://www.w3.org/2000/svg" width="48" height="48" viewBox="0 0 12.7 12.7"><path fill="#ff7f2a" d="M6.34.07a6.29 6.29 0 0 0-6.29 6.3 6.29 6.29 0 0 0 6.3 6.28 6.29 6.29 0 0 0 6.28-6.29A6.29 6.29 0 0 0 6.34.07zm-.01.94a5.4 5.4 0 0 1 5.4 5.4 5.4 5.4 0 0 1-5.4 5.41 5.4 5.4 0 0 1-5.41-5.4A5.4 5.4 0 0 1 6.32 1zM4 2.28L2.55 3.76h7.6L8.7 2.28H4zM2.55 3.9V10h7.6V3.9h-7.6zm.34.27H9.8v5.57H2.89V4.16zm.37.42v2.19h6.15V4.58H3.26zm2.17.72h1.84v.4H5.43v-.4zM3.26 7.12V9.3h6.15V7.12H3.26zm2.17.71h1.84v.41H5.43v-.41z"/></svg>