<svg xmlns="http://www.w3.org/2000/svg" width="48" height="48" viewBox="0 0 12.7 12.7"><path fill="#ff7f2a" d="M6.34.07a6.29 6.29 0 0 0-6.29 6.3 6.29 6.29 0 0 0 6.3 6.28 6.29 6.29 0 0 0 6.28-6.29A6.29 6.29 0 0 0 6.34.07zm-.01.94a5.4 5.4 0 0 1 5.4 5.4 5.4 5.4 0 0 1-5.4 5.41 5.4 5.4 0 0 1-5.41-5.4A5.4 5.4 0 0 1 6.32 1zM4 2.28L2.55 3.76h7.6L8.7 2.28H4zM2.55 3.9V10h7.6V3.9h-7.6zm.34.27H9.8v5.57H2.89V4.16zm.37.42V9.3h6.15V4.58H3.26zm3.65.27l.2.5a1.3 1.3 0 0 1 .27.04l.3-.45c.12.03.22.09.32.15l-.13.53a1.3 1.3 0 0 1 .19.17l.51-.18a1.78 1.78 0 0 1 .17.3l-.41.35a1.24 1.24 0 0 1 .03.13l.02.12.52.16a1.76 1.76 0 0 1-.04.35l-.54.03c-.03.09-.07.16-.11.24l.32.43c-.07.1-.14.19-.22.26l-.46-.29c-.07.05-.15.1-.23.13v.55a1.83 1.83 0 0 1-.33.07l-.2-.51a1.37 1.37 0 0 1-.27-.03l-.31.45a1.77 1.77 0 0 1-.31-.15l.13-.53a1.33 1.33 0 0 1-.2-.17l-.5.17a1.78 1.78 0 0 1-.17-.3l-.1.21a.76.76 0 0 1 .09.12l.31-.04a1.04 1.04 0 0 1 .06.2L5.55 8a.72.72 0 0 1 0 .07v.08l.27.15a1.03 1.03 0 0 1-.06.19l-.31-.04a.77.77 0 0 1-.1.12l.15.29-.16.12-.23-.22a.72.72 0 0 1-.15.04l-.06.32a1.07 1.07 0 0 1-.2 0l-.06-.32a.75.75 0 0 1-.15-.04l-.23.22a1.02 1.02 0 0 1-.16-.12l.14-.3a.76.76 0 0 1-.09-.11l-.31.04a1.04 1.04 0 0 1-.06-.2l.27-.14a.73.73 0 0 1 0-.15l-.27-.15a1.04 1.04 0 0 1 .06-.2l.31.04a.76.76 0 0 1 .1-.12L4.1 7.3a1.01 1.01 0 0 1 .16-.13l.23.22a.75.75 0 0 1 .15-.04l.06-.32a1.07 1.07 0 0 1 .1 0h.1l.06.32a.75.75 0 0 1 .15.04l.23-.22a1 1 0 0 1 .16.13l-.04.06.4-.34a1.25 1.25 0 0 1-.02-.12 1.25 1.25 0 0 1-.02-.13l-.52-.16a1.78 1.78 0 0 1 .04-.34l.54-.04a1.3 1.3 0 0 1 .1-.23l-.32-.44c.07-.09.14-.18.23-.26l.46.3a1.3 1.3 0 0 1 .23-.13v-.55a1.83 1.83 0 0 1 .16-.04c.05-.02.11-.02.17-.03zm.19 1.02a.77.77 0 0 0-.15.01.77.77 0 0 0 .3 1.52.77.77 0 0 0-.12-1.53.77.77 0 0 0-.03 0zM4.8 7.63a.45.45 0 1 0 0 .9.45.45 0 0 0 0-.9z"/></svg>