<svg xmlns="http://www.w3.org/2000/svg" width="48" height="48" viewBox="0 0 12.7 12.7"><path fill="#ff7f2a" d="M6.34.07a6.29 6.29 0 0 0-6.29 6.3 6.29 6.29 0 0 0 6.3 6.28 6.29 6.29 0 0 0 6.28-6.29A6.29 6.29 0 0 0 6.34.07zm-.01.94a5.4 5.4 0 0 1 5.4 5.4 5.4 5.4 0 0 1-5.4 5.41 5.4 5.4 0 0 1-5.41-5.4A5.4 5.4 0 0 1 6.32 1zM3.12 2.8h-.38c-.04.01-.05.02-.05.05l2.28 8.07c.01.02.09.02 1.32.02H7.6l.35-1.16a.55.55 0 0 1-.18-.69.55.55 0 0 1 .18-.89v-.02a.55.55 0 0 1 .4-.53.55.55 0 0 1 .3-.22l.17-.54C9.98 3 10.03 2.85 10 2.83c-.02-.02-.2-.02-1.14-.02-.6 0-1.11.01-1.12.02L7.02 5.5l-.71 2.67-.02-.03-.66-2.68-.65-2.64c-.01-.02-1.22-.02-1.86-.02z"/></svg>