<svg xmlns="http://www.w3.org/2000/svg" width="48" height="48" version="1"><path d="M24 .23A23.77 23.77 0 0 0 .23 24.01 23.77 23.77 0 0 0 24 47.77 23.77 23.77 0 0 0 47.77 24 23.77 23.77 0 0 0 24 .23zm-.07 3.54a20.44 20.44 0 0 1 20.44 20.44 20.44 20.44 0 0 1-20.44 20.43A20.44 20.44 0 0 1 3.5 24.21 20.44 20.44 0 0 1 23.93 3.77z" fill="#ff7f2a"/><path d="M26.1 7.84l4.16 26H7.09l23.97 5 7.03-4.12-4.01-25.09zm-7.1 6l-6.13 8.34-4.57-2.45-2.2.73 5.25 3.8-3.83 5.2 2.33.02 3.6-3.71 8.4 6.07 4.24-2.58L23.83 15zm.84 5.3l1.17 7.4-5.48-2.94z" fill="#1c65c2" opacity=".75"/></svg>