<svg xmlns="http://www.w3.org/2000/svg" width="48" height="48" viewBox="0 0 12.7 12.7"><path fill="#ff7f2a" d="M6.34.07a6.29 6.29 0 0 0-6.29 6.3 6.29 6.29 0 0 0 6.3 6.28 6.29 6.29 0 0 0 6.28-6.29A6.29 6.29 0 0 0 6.34.07zm-.01.94a5.4 5.4 0 0 1 5.4 5.4 5.4 5.4 0 0 1-5.4 5.41 5.4 5.4 0 0 1-5.41-5.4A5.4 5.4 0 0 1 6.32 1zm-2.5 1.16a.05.05 0 0 0-.05.05v2.64H2.42a.05.05 0 0 0-.05.05v4.95c0 .03.02.05.05.05h5.13a.05.05 0 0 0 .05-.05V8.24h2.68a.05.05 0 0 0 .05-.05V3.23a.05.05 0 0 0-.05-.04H9.02v-.97a.05.05 0 0 0-.05-.05H3.83zm.42.41h4.33a.04.04 0 0 1 .05.04v.57H5.13a.05.05 0 0 0-.04.05v1.62H4.2V2.62a.04.04 0 0 1 .04-.04zM5.57 3.6h3.05v3.22a.04.04 0 0 1-.04.05H7.6V4.9a.05.05 0 0 0-.05-.05H5.53V3.64a.04.04 0 0 1 .04-.04zm3.44 0h.9a.04.04 0 0 1 .03.04v4.2a.04.04 0 0 1-.04.04H7.6v-.66h1.37c.02 0 .05-.02.05-.05zM2.85 5.27h.94v1.9c0 .03.02.05.05.05H5.1v.97c0 .03.02.05.05.05H7.2V9.5a.04.04 0 0 1-.04.04H2.84a.04.04 0 0 1-.04-.04v-4.2a.04.04 0 0 1 .04-.04zm1.37 0h.89v1.6h-.85a.04.04 0 0 1-.04-.05zm1.32 0h1.64a.04.04 0 0 1 .04.04v1.55H5.53zm0 1.95h1.68v.66H5.57a.04.04 0 0 1-.04-.04z"/></svg>