<svg xmlns="http://www.w3.org/2000/svg" width="48" height="48" viewBox="0 0 12.7 12.7"><path fill="#ff7f2a" d="M6.34.07a6.29 6.29 0 0 0-6.29 6.3 6.29 6.29 0 0 0 6.3 6.28 6.29 6.29 0 0 0 6.28-6.29A6.29 6.29 0 0 0 6.34.07zm-.01.94a5.4 5.4 0 0 1 4.1 1.9H2.21a5.4 5.4 0 0 1 4.12-1.9zM1.6 3.78h1.08c.03 0 .07 0 .1.02a.34.34 0 0 1 .15.17.52.52 0 0 1 .04.2v4.39a.52.52 0 0 1-.04.2.48.48 0 0 1-.04.07.32.32 0 0 1-.12.1l-.09.01H1.55a5.4 5.4 0 0 1-.3-.7V4.6a5.4 5.4 0 0 1 .36-.81zm2.06 0h7.37a5.4 5.4 0 0 1 .7 2.64 5.4 5.4 0 0 1-.64 2.52H3.7a.22.22 0 0 1-.09-.01.33.33 0 0 1-.15-.17.52.52 0 0 1-.04-.2v-4.3h.02c.01 0 .02 0 .01-.02-.02-.03-.03-.03-.04-.01v-.06a.52.52 0 0 1 .04-.2.33.33 0 0 1 .16-.17l.06-.02zm-.1.55l.01.02c.03.04.3.2.72.4.62.31 1.17.68 1.51 1.03l.2.21a.64.64 0 0 1-.09.15 1.93 1.93 0 0 0-.15.31 1.5 1.5 0 0 0-.08.61l-.02.43-.08.08c-.15.15-.2.24-.21.3 0 .1.05.1.21.05.08-.02.16-.05.17-.03.04.02.03.1-.04.31a.76.76 0 0 0-.04.24c0 .03.02.05.03.05 0 0 .15-.1.3-.23l.35-.27c.06-.05.08-.05.42.03.34.08.38.09 1 .09.36 0 .73 0 .82-.02l.16-.03.3.14c.42.2.64.27.7.26.12-.04.08-.19-.12-.45-.15-.2-.12-.22.18-.13s.4.1.42.07c.04-.06 0-.16-.16-.35-.27-.32-.25-.4.1-.56a4.9 4.9 0 0 0 1-.56c.13-.12.15-.15.15-.23.01-.37-.33-.6-1.2-.8a2.84 2.84 0 0 1-.33-.09.66.66 0 0 1-.04-.23c-.02-.4-.1-.56-.26-.6-.07 0-.1 0-.16.06-.11.1-.14.29-.09.51.05.21.05.24 0 .24-.02 0-.08-.1-.14-.22-.17-.33-.27-.42-.4-.35s-.19.33-.13.57c.03.1.02.12-.1.3l-.12.22h-.22c-.16 0-.38-.03-.74-.1-.7-.14-.79-.14-1.01-.04-.1.05-.19.08-.2.07a7.94 7.94 0 0 1-.28-.24 3.8 3.8 0 0 0-1.44-.86 8.18 8.18 0 0 1-.64-.26c-.16-.08-.24-.1-.25-.1zm-2.33.27v3.64a5.4 5.4 0 0 1-.32-1.82 5.4 5.4 0 0 1 .32-1.82zm10.16.52l-.05.03c-.05.04-.21.35-.21.42 0 .06.07-.03.19-.25.07-.13.1-.2.07-.2zm-.38.13c-.03 0-.06.08-.07.18 0 .1.05.04.07-.08.02-.06.01-.1 0-.1zm-1.09.44c.06 0 .1.05.09.14-.01.08-.03.1-.08.1-.13.02-.18-.14-.07-.22a.14.14 0 0 1 .06-.02zm-.31.22c0-.02.03 0 .08.06a.28.28 0 0 0 .13.09c.04.01.08.03.08.05l-.1.02c-.08 0-.1-.02-.14-.1-.04-.06-.06-.11-.05-.12zm.65.5c.02 0 .03.01.03.04 0 .02-.06.06-.14.09-.25.1-.28.03-.03-.08a.56.56 0 0 1 .14-.05zm.1.18c.04.01.03.07-.02.13-.09.09-.22.15-.24.11-.01-.03.13-.19.22-.23a.06.06 0 0 1 .05-.01zM2.1 9.79h8.44a5.4 5.4 0 0 1-4.21 2.03A5.4 5.4 0 0 1 2.1 9.8z"/></svg>