<?xml version="1.0" encoding="UTF-8" standalone="no"?>
<svg
   xmlns:dc="http://purl.org/dc/elements/1.1/"
   xmlns:cc="http://creativecommons.org/ns#"
   xmlns:rdf="http://www.w3.org/1999/02/22-rdf-syntax-ns#"
   xmlns:svg="http://www.w3.org/2000/svg"
   xmlns="http://www.w3.org/2000/svg"
   xmlns:sodipodi="http://sodipodi.sourceforge.net/DTD/sodipodi-0.dtd"
   xmlns:inkscape="http://www.inkscape.org/namespaces/inkscape"
   width="24"
   height="24"
   id="svg7"
   version="1.1"
   sodipodi:docname="media-optical-data-new.svg"
   inkscape:version="0.92.4 (5da689c313, 2019-01-14)">
  <metadata
     id="metadata8">
    <rdf:RDF>
      <cc:Work
         rdf:about="">
        <dc:format>image/svg+xml</dc:format>
        <dc:type
           rdf:resource="http://purl.org/dc/dcmitype/StillImage" />
        <dc:title></dc:title>
      </cc:Work>
    </rdf:RDF>
  </metadata>
  <sodipodi:namedview
     pagecolor="#ffffff"
     bordercolor="#666666"
     borderopacity="1"
     objecttolerance="10"
     gridtolerance="10"
     guidetolerance="10"
     inkscape:pageopacity="0"
     inkscape:pageshadow="2"
     inkscape:window-width="1078"
     inkscape:window-height="480"
     id="namedview6"
     showgrid="false"
     inkscape:zoom="9.8333333"
     inkscape:cx="-0.81355932"
     inkscape:cy="12"
     inkscape:window-x="0"
     inkscape:window-y="28"
     inkscape:window-maximized="0"
     inkscape:current-layer="svg7" />
  <defs
     id="defs3">
    <style
       id="current-color-scheme" />
  </defs>
  <path
     style="color:#bebebe;font-weight:400;font-family:sans-serif;font-variant-ligatures:normal;font-variant-position:normal;font-variant-caps:normal;font-variant-numeric:normal;font-variant-alternates:normal;font-feature-settings:normal;text-indent:0;text-decoration:none;text-decoration-line:none;text-decoration-style:solid;text-decoration-color:#000000;text-transform:none;text-orientation:mixed;white-space:normal;shape-padding:0;overflow:visible;isolation:auto;mix-blend-mode:normal;fill:#1a1a1a;stroke-width:1.70000005"
     d="M 12,1.36 C 6.16,1.36 1.36,6.16 1.36,12 c 0,5.84 4.8,10.64 10.64,10.64 0.43,0 0.8,-0.2 1.21,-0.25 v -6.07 c -0.4,0.1 -0.78,0.24 -1.21,0.24 -2.55,0 -4.56,-2 -4.56,-4.56 0,-2.55 2,-4.56 4.56,-4.56 2.55,0 4.56,2 4.56,4.56 0,0.27 -0.1,0.5 -0.15,0.75 h 6.08 C 22.51,12.49 22.64,12.26 22.64,12 22.64,6.16 17.84,1.36 12,1.36 Z m 0,7.6 A 3.05,3.05 0 0 0 8.96,12 3.05,3.05 0 0 0 12,15.04 3.05,3.05 0 0 0 15.04,12 3.05,3.05 0 0 0 12,8.96 Z m 0,1.52 c 0.85,0 1.52,0.67 1.52,1.52 A 1.5,1.5 0 0 1 12,13.52 1.5,1.5 0 0 1 10.48,12 c 0,-0.85 0.67,-1.52 1.52,-1.52 z m 3.41,3.17 c -0.76,0 -1.38,0.62 -1.38,1.39 v 7.16 c 0,0.76 0.62,1.38 1.38,1.38 h 6.7 c 0.76,0 1.38,-0.62 1.38,-1.38 v -7.16 c 0,-0.77 -0.62,-1.39 -1.39,-1.39 z m 0.3,2.15 h 6.1 a 0.35,0.35 0 1 1 0,0.7 h -6.1 a 0.35,0.35 0 1 1 0,-0.7 z m 0,2.47 h 6.1 a 0.35,0.35 0 1 1 0,0.7 h -6.1 a 0.35,0.35 0 1 1 0,-0.7 z m 0,2.46 h 6.1 a 0.35,0.35 0 1 1 0,0.7 h -6.1 a 0.35,0.35 0 1 1 0,-0.7 z"
     id="path2-3"
     font-weight="400"
     overflow="visible"
     inkscape:connector-curvature="0" />
</svg>
