<svg xmlns="http://www.w3.org/2000/svg" width="528" viewBox="0 0 422.4 48"><path d="M19.2 6v4a14 14 0 0 1 9.893 4.107l2.836-2.836A18 18 0 0 0 19.2 6m54.15 0l-1.367 3.756a14 14 0 0 1 9.219 13.139h4a18 18 0 0 0-5.272-12.729A18 18 0 0 0 73.35 6m53.42 4.213l-2.57 3.064A14 14 0 0 1 129.202 24a14 14 0 0 1-14 14v4a18 18 0 0 0 15.588-9 18 18 0 0 0 0-18 18 18 0 0 0-4.02-4.787m52 4.797l-3.459 1.996a14 14 0 0 1 1.89 6.992 14 14 0 0 1-14 14 14 14 0 0 1-14-14h-4a18 18 0 0 0 11.112 16.63 18 18 0 0 0 19.617-3.901 18 18 0 0 0 3.9-19.617 18 18 0 0 0-1.06-2.1M211.2 6a18 18 0 0 0-18 18 18 18 0 0 0 18 18 18 18 0 0 0 18-18 18 18 0 0 0-.277-3.125l-3.938.693a14 14 0 0 1 .214 2.432 14 14 0 0 1-14 14 14 14 0 0 1-14-14 14 14 0 0 1 14-14V6m47.708.003a18 18 0 0 0-13.988 7.041 18 18 0 0 0-.463 21.281 18 18 0 0 0 20.156 6.842A18 18 0 0 0 277.2 24.001h-4a14 14 0 0 1-14 14 14 14 0 0 1-14-14 14 14 0 0 1 14-14 14 14 0 0 1 4.783.861l1.373-3.775a18 18 0 0 0-6.45-1.084m48.622 0a18 18 0 0 0-10.218 2.958 18 18 0 0 0-7.354 20.201A18 18 0 0 0 307.2 42v-4a14 14 0 0 1-14-14 14 14 0 0 1 14-14 14 14 0 0 1 8.998 3.277l2.572-3.066a18 18 0 0 0-11.242-4.207m48.36.01a18 18 0 0 0-5.346.599A18 18 0 0 0 337.2 24h4a14 14 0 0 1 14-14 14 14 0 0 1 12.11 7.007l3.478-2.01a18 18 0 0 0-14.9-8.986M403.31 6v4a14 14 0 0 1 13.785 11.57l3.941-.695A18 18 0 0 0 403.31 6" fill="#ccc"/></svg>