<?xml version="1.0" encoding="UTF-8" standalone="no"?>
<svg
   xmlns:dc="http://purl.org/dc/elements/1.1/"
   xmlns:cc="http://creativecommons.org/ns#"
   xmlns:rdf="http://www.w3.org/1999/02/22-rdf-syntax-ns#"
   xmlns:svg="http://www.w3.org/2000/svg"
   xmlns="http://www.w3.org/2000/svg"
   xmlns:sodipodi="http://sodipodi.sourceforge.net/DTD/sodipodi-0.dtd"
   xmlns:inkscape="http://www.inkscape.org/namespaces/inkscape"
   width="48"
   height="48"
   version="1.1"
   id="svg4"
   sodipodi:docname="application-x-srt.svg"
   inkscape:version="0.92.4 (5da689c313, 2019-01-14)">
  <metadata
     id="metadata10">
    <rdf:RDF>
      <cc:Work
         rdf:about="">
        <dc:format>image/svg+xml</dc:format>
        <dc:type
           rdf:resource="http://purl.org/dc/dcmitype/StillImage" />
        <dc:title></dc:title>
      </cc:Work>
    </rdf:RDF>
  </metadata>
  <defs
     id="defs8" />
  <sodipodi:namedview
     pagecolor="#ffffff"
     bordercolor="#666666"
     borderopacity="1"
     objecttolerance="10"
     gridtolerance="10"
     guidetolerance="10"
     inkscape:pageopacity="0"
     inkscape:pageshadow="2"
     inkscape:window-width="1087"
     inkscape:window-height="480"
     id="namedview6"
     showgrid="false"
     inkscape:zoom="4.9166667"
     inkscape:cx="2.1355932"
     inkscape:cy="24"
     inkscape:window-x="0"
     inkscape:window-y="25"
     inkscape:window-maximized="0"
     inkscape:current-layer="svg4" />
  <path
     style="line-height:normal;text-indent:0;text-align:start;text-decoration:none;text-decoration-line:none;text-transform:none;fill:#2c89a0;marker:none"
     d="m 29.7,-0.08 c -2.04,0 -4.12,0.08 -4.51,0.1 H 7 a 2.94,2.94 0 0 0 -0.56,0 3.1,3.1 0 0 0 -2.44,3 V 45 c 0,1.57 1.43,3 3,3 h 34 c 1.57,0 3,-1.43 3,-3 V 18.82 c 0.02,-0.8 0.22,-9.93 -0.34,-10.5 l -9.6,-8.07 c -0.29,-0.28 -2.3,-0.34 -4.35,-0.33 z m 1.5,3.08 0.13,7.5 c 0.01,0.68 0.64,1.3 1.31,1.28 l 7.78,-0.13 c 0.13,0.01 0.26,0.01 0.4,-0.01 l 0.08,3.03 0.1,4.09 V 45 H 7 V 3.02 H 25.67 L 31.2,3.01 Z M 14.8,17.57 a 4.16,4.16 0 0 0 -4.18,4.18 V 32.5 c 0,2.3 1.84,4.2 4.17,4.2 h 6.02 l -1.9,5.73 8.28,-5.72 h 6.02 c 2.3,0 4.17,-1.88 4.17,-4.21 V 21.75 c 0,-2.3 -1.84,-4.18 -4.17,-4.18 H 14.79 Z m -1.68,1.9 h 4.53 c 0.33,0 0.6,0.27 0.6,0.6 v 2.63 a 0.6,0.6 0 0 1 -0.6,0.6 h -4.53 a 0.6,0.6 0 0 1 -0.6,-0.6 v -2.63 c 0,-0.33 0.27,-0.6 0.6,-0.6 z m 17.23,0 h 4.53 c 0.33,0 0.6,0.27 0.6,0.6 v 2.63 a 0.6,0.6 0 0 1 -0.6,0.6 h -4.53 a 0.6,0.6 0 0 1 -0.6,-0.6 v -2.63 c 0,-0.33 0.27,-0.6 0.6,-0.6 z M 13.12,25.2 h 4.53 c 0.33,0 0.6,0.3 0.6,0.62 v 2.64 a 0.6,0.6 0 0 1 -0.6,0.59 h -4.53 a 0.6,0.6 0 0 1 -0.6,-0.63 V 25.8 c 0,-0.33 0.27,-0.6 0.6,-0.6 z m 17.23,0 h 4.53 c 0.33,0 0.6,0.3 0.6,0.62 v 2.64 a 0.6,0.6 0 0 1 -0.6,0.59 h -4.53 a 0.6,0.6 0 0 1 -0.6,-0.63 V 25.8 c 0,-0.33 0.27,-0.6 0.6,-0.6 z m -17.23,5.75 h 4.53 c 0.33,0 0.6,0.27 0.6,0.6 v 2.63 a 0.6,0.6 0 0 1 -0.6,0.59 h -4.53 a 0.6,0.6 0 0 1 -0.6,-0.6 v -2.62 c 0,-0.33 0.27,-0.6 0.6,-0.6 z m 17.23,0 h 4.53 c 0.33,0 0.6,0.27 0.6,0.6 v 2.63 a 0.6,0.6 0 0 1 -0.6,0.59 h -4.53 a 0.6,0.6 0 0 1 -0.6,-0.6 v -2.62 c 0,-0.33 0.27,-0.6 0.6,-0.6 z"
     id="path2"
     inkscape:connector-curvature="0" />
</svg>
