<?xml version="1.0" encoding="UTF-8" standalone="no"?>
<svg
   xmlns:dc="http://purl.org/dc/elements/1.1/"
   xmlns:cc="http://creativecommons.org/ns#"
   xmlns:rdf="http://www.w3.org/1999/02/22-rdf-syntax-ns#"
   xmlns:svg="http://www.w3.org/2000/svg"
   xmlns="http://www.w3.org/2000/svg"
   xmlns:sodipodi="http://sodipodi.sourceforge.net/DTD/sodipodi-0.dtd"
   xmlns:inkscape="http://www.inkscape.org/namespaces/inkscape"
   width="48"
   height="48"
   viewBox="0 0 12.7 12.7"
   version="1.1"
   id="svg6"
   sodipodi:docname="application-x-tarz.svg"
   inkscape:version="0.92.5 (2060ec1f9f, 2020-04-08)">
  <metadata
     id="metadata12">
    <rdf:RDF>
      <cc:Work
         rdf:about="">
        <dc:format>image/svg+xml</dc:format>
        <dc:type
           rdf:resource="http://purl.org/dc/dcmitype/StillImage" />
        <dc:title></dc:title>
      </cc:Work>
    </rdf:RDF>
  </metadata>
  <defs
     id="defs10" />
  <sodipodi:namedview
     pagecolor="#ffffff"
     bordercolor="#666666"
     borderopacity="1"
     objecttolerance="10"
     gridtolerance="10"
     guidetolerance="10"
     inkscape:pageopacity="0"
     inkscape:pageshadow="2"
     inkscape:window-width="1087"
     inkscape:window-height="480"
     id="namedview8"
     showgrid="false"
     inkscape:zoom="4.9166667"
     inkscape:cx="2.1355932"
     inkscape:cy="24"
     inkscape:window-x="0"
     inkscape:window-y="25"
     inkscape:window-maximized="0"
     inkscape:current-layer="svg6" />
  <path
     style="fill:#2c89a0;stroke-width:1"
     d="M 1.3229166,0.79374999 0.26510009,3.4401 H 6.0848999 V 0.79374999 Z m 5.2921834,0 V 3.4401 h 5.8198 L 11.377084,0.79374999 Z M 0.26510009,3.96875 v 6.35 c 0,1.172 0.94414991,2.11615 2.11614991,2.11615 h 7.9375 a 2.112,2.112 0 0 0 2.11615,-2.11615 v -6.35 h -0.792716 v 6.35 A 1.32,1.32 0 0 1 10.31875,11.642183 H 2.3802165 A 1.32,1.32 0 0 1 1.056783,10.31875 v -6.35 z M 1.8531169,4.9769572 V 6.0368407 H 2.1332031 V 7.0972412 H 2.6628865 V 6.0368407 H 2.922819 V 4.9769572 Z m 1.3198162,0.050126 V 5.5567667 H 3.7031332 V 5.0270833 Z M 3.7031332,5.5567667 V 6.0869668 H 4.2328166 V 5.5567667 Z m 0.5296834,0 H 4.7630167 V 5.0270833 H 4.2328166 Z m 0.5302001,0 V 6.0869668 H 5.2932168 V 5.5567667 Z m 0.5302001,0 h 0.519865 V 5.0270833 h -0.519865 z m 0.519865,0 V 6.0869668 H 6.3427652 V 5.5567667 Z m 0.5296834,0 H 6.8729653 V 5.0270833 H 6.3427652 Z m 0.5302001,0 V 6.0869668 H 7.4031657 V 5.5567667 Z m 0.5302004,0 H 7.9328491 V 5.0270833 H 7.4031657 Z m 0.5296834,0 V 6.0869668 H 8.4630492 V 5.5567667 Z m 0.5302001,0 H 8.9932493 V 5.0270833 H 8.4630492 Z m 0.5302001,0 V 6.0869668 H 9.522933 V 5.5567667 Z m 0.5296837,0 h 0.5302 V 5.0270833 h -0.5302 z m 0.5302,0 v 0.5302001 h 0.529684 V 5.5567667 Z m 0.529684,0 h 0.5302 V 5.0270833 h -0.5302 z M 2.1228678,5.2472248 H 2.6530681 V 5.7769082 H 2.1228678 Z m 2.3001181,2.2996014 v 0.010335 z M 3.830257,8.3302408 V 8.919869 H 3.6297526 V 9.3002075 H 3.830257 V 10.679968 H 4.2602049 V 9.3002075 H 4.5098023 V 8.919869 H 4.2602049 V 8.3302408 Z M 5.5500487,8.880078 c -0.5299999,0 -0.9002033,0.3898405 -0.9002033,0.9198404 0,0.5299996 0.3703849,0.9198406 0.8903848,0.9198406 a 0.69999999,0.69999999 0 0 0 0.5798095,-0.269751 v 0.22996 H 6.510197 V 8.919869 H 6.1200397 V 9.1498289 A 0.64999999,0.64999999 0 0 0 5.5578002,8.880078 a 0.64999999,0.64999999 0 0 0 -0.00775,0 z m 2.0401856,0 c -0.18,0 -0.2703385,0.049806 -0.3803385,0.2098064 V 8.919869 H 6.8202555 v 1.760099 H 7.239868 V 9.7001829 c 0,-0.2699999 0.1303386,-0.4101293 0.3803386,-0.4201292 V 8.880078 h -0.020154 z m 0.2299602,0.039791 v 0.3803385 h 0.6898802 l -0.780314,0.9999385 v 0.379822 H 9.0702473 V 10.300146 H 8.239807 L 9.0097858,9.3002075 V 8.919869 Z M 5.5898396,9.2598998 c 0.2999999,0 0.5203817,0.2303539 0.5203817,0.550354 A 0.59999998,0.59999998 0 0 1 5.9799966,10.169922 0.48999999,0.48999999 0 0 1 5.600175,10.330119 c -0.3100001,0 -0.5203817,-0.199865 -0.5203817,-0.5198652 0,-0.3200001 0.2000465,-0.550354 0.5100463,-0.550354 z"
     id="path2"
     inkscape:connector-curvature="0" />
</svg>
