<?xml version="1.0" encoding="UTF-8" standalone="no"?>
<svg
   xmlns:dc="http://purl.org/dc/elements/1.1/"
   xmlns:cc="http://creativecommons.org/ns#"
   xmlns:rdf="http://www.w3.org/1999/02/22-rdf-syntax-ns#"
   xmlns:svg="http://www.w3.org/2000/svg"
   xmlns="http://www.w3.org/2000/svg"
   xmlns:sodipodi="http://sodipodi.sourceforge.net/DTD/sodipodi-0.dtd"
   xmlns:inkscape="http://www.inkscape.org/namespaces/inkscape"
   width="48"
   height="48"
   version="1.1"
   id="svg4"
   sodipodi:docname="application-json.svg"
   inkscape:version="0.92.4 (5da689c313, 2019-01-14)">
  <metadata
     id="metadata10">
    <rdf:RDF>
      <cc:Work
         rdf:about="">
        <dc:format>image/svg+xml</dc:format>
        <dc:type
           rdf:resource="http://purl.org/dc/dcmitype/StillImage" />
        <dc:title></dc:title>
      </cc:Work>
    </rdf:RDF>
  </metadata>
  <defs
     id="defs8" />
  <sodipodi:namedview
     pagecolor="#ffffff"
     bordercolor="#666666"
     borderopacity="1"
     objecttolerance="10"
     gridtolerance="10"
     guidetolerance="10"
     inkscape:pageopacity="0"
     inkscape:pageshadow="2"
     inkscape:window-width="1087"
     inkscape:window-height="480"
     id="namedview6"
     showgrid="false"
     inkscape:zoom="4.9166667"
     inkscape:cx="2.1355932"
     inkscape:cy="24"
     inkscape:window-x="0"
     inkscape:window-y="25"
     inkscape:window-maximized="0"
     inkscape:current-layer="svg4" />
  <path
     style="line-height:normal;text-indent:0;text-align:start;text-decoration:none;text-decoration-line:none;text-transform:none;fill:#2c89a0;marker:none"
     d="m 29.705,-0.084 c -2.047,0.008 -4.121,0.088 -4.517,0.098 H 7 a 2.938,2.938 0 0 0 -0.563,0 C 5.064,0.276 3.975,1.612 4,3.012 V 45 c 0,1.57 1.43,3 3,3 h 34 c 1.57,0 3,-1.43 3,-3 V 18.818 C 44.018,18.026 44.215,8.891 43.664,8.322 l -9.61,-8.074 c -0.283,-0.275 -2.302,-0.34 -4.349,-0.332 z m 1.49,3.094 0.133,7.504 c 0.012,0.68 0.638,1.29 1.317,1.279 l 7.771,-0.137 c 0.133,0.018 0.268,0.017 0.4,-0.006 L 40.898,14.68 41,18.77 V 44.996 H 7 V 3.021 H 25.672 Z M 21.27,16.006 c -1.882,0 -3.145,0.313 -3.786,0.94 -0.636,0.617 -0.95,1.86 -0.95,3.732 v 3.045 c 0,1.26 -0.206,2.137 -0.614,2.629 -0.4,0.48 -1.141,0.722 -2.223,0.722 h -0.691 v 1.815 h 0.691 c 1.073,0 1.815,0.245 2.223,0.736 0.408,0.49 0.613,1.375 0.613,2.652 v 3.034 c 0,1.87 0.317,3.12 0.951,3.746 0.642,0.626 1.904,0.937 3.786,0.937 h 0.703 V 38.168 H 21.2 c -1.064,0 -1.76,-0.189 -2.086,-0.56 -0.324,-0.373 -0.488,-1.153 -0.488,-2.346 v -3.149 c 0,-1.32 -0.167,-2.281 -0.508,-2.883 -0.34,-0.6 -0.93,-1.012 -1.77,-1.242 0.832,-0.21 1.419,-0.618 1.758,-1.218 0.348,-0.6 0.52,-1.566 0.52,-2.895 v -3.146 c 0,-1.193 0.163,-1.977 0.488,-2.35 0.324,-0.372 1.02,-0.557 2.086,-0.557 h 0.772 v -1.816 h -0.703 z m 4.757,0 v 1.816 h 0.795 c 1.058,0 1.745,0.185 2.063,0.557 0.324,0.365 0.488,1.148 0.488,2.35 v 3.146 c 0,1.329 0.167,2.293 0.508,2.895 0.34,0.6 0.93,1.008 1.77,1.218 -0.84,0.228 -1.43,0.642 -1.77,1.242 -0.341,0.602 -0.508,1.563 -0.508,2.883 v 3.149 c 0,1.21 -0.164,1.996 -0.488,2.361 -0.318,0.364 -1.006,0.545 -2.065,0.545 h -0.793 v 1.826 h 0.715 c 1.88,0 3.135,-0.312 3.762,-0.937 0.636,-0.627 0.951,-1.877 0.951,-3.746 v -3.032 c 0,-1.278 0.207,-2.163 0.615,-2.654 0.408,-0.492 1.148,-0.736 2.221,-0.736 h 0.703 v -1.815 h -0.703 c -1.073,0 -1.813,-0.242 -2.22,-0.724 -0.409,-0.491 -0.616,-1.368 -0.616,-2.63 v -3.042 c 0,-1.871 -0.316,-3.115 -0.951,-3.733 -0.627,-0.626 -1.881,-0.94 -3.762,-0.94 h -0.715 z"
     id="path2"
     inkscape:connector-curvature="0" />
</svg>
