<svg xmlns="http://www.w3.org/2000/svg" width="48" height="48"><path style="line-height:normal;text-indent:0;text-align:start;text-decoration-line:none;text-transform:none;marker:none" d="M29.705-.084c-2.047.008-4.121.088-4.517.098H7a2.938 2.938 0 0 0-.563 0C5.063.276 3.975 1.612 4 3.012V45c0 1.57 1.43 3 3 3h34c1.57 0 3-1.43 3-3V18.818c.018-.792.215-9.927-.336-10.496L34.054.248c-.284-.275-2.302-.34-4.349-.332zm1.49 3.094l.133 7.504c.012.681.638 1.29 1.317 1.279l7.771-.137c.133.018.268.017.4-.006l.082 3.03.102 4.09v26.227H7V3.021h18.672l5.523-.011zm-9.957 13.353l-7.008 22.09h4.618l1.49-5.236h7.435l1.475 5.236h4.617l-7.037-22.09h-5.59zm2.787 3.223c.077-.109.137.638.239.97.703 2.947 1.637 5.831 2.447 8.749h-5.266c.864-3.084 1.81-6.146 2.496-9.278.032-.273.059-.405.084-.441z" color="#000" font-weight="400" font-family="Andale Mono" overflow="visible" fill="#2c89a0"/></svg>