<svg xmlns="http://www.w3.org/2000/svg" width="48" height="48" viewBox="0 0 12.7 12.7"><g fill="#2c89a0"><path d="M1.215.856L.142 3.66h6.04V.856H1.215zm5.174 0V3.66h6.115L11.402.856H6.39zM.194 3.893v6.31c0 .636.246 1.181.737 1.633.491.453 1.083.679 1.775.679H9.96c.692 0 1.283-.226 1.775-.679.49-.452.736-.997.736-1.634v-6.31h-1.116v6.31c0 .354-.136.656-.41.908a1.403 1.403 0 0 1-.985.377H2.706c-.384 0-.712-.126-.986-.377a1.19 1.19 0 0 1-.41-.908v-6.31H.195zm5.944.9c-1.786 0-3.426.65-4.163 1.652-.248.337-.427.765-.427 1.023a.51.51 0 0 0 .015.173c.008 0 .329-.056.712-.125.384-.068.71-.125.724-.125.015 0 .026-.163.025-.362-.002-.286.024-.415.12-.612.571-1.167 2.76-1.76 4.426-1.2l.35.118.217-.268-.209-.064c-.39-.12-1.156-.21-1.79-.21zm.012 1.913a.316.316 0 0 0-.058.014.9.9 0 0 1-.272.032l-.15-.008.15.056c.083.03.187.087.233.126.061.053.107.059.175.02.07-.04.662.05 2.416.365 2.446.44 2.547.456 2.47.388-.026-.024-.384-.101-.796-.173-3.762-.653-3.997-.698-4.05-.77a.113.113 0 0 0-.118-.05zm-2.403 1.17v2.426l.312-.034c.523-.058.538-.065.538-.273v-.183l.352-.055c.435-.069.954-.317 1.121-.537.094-.123.125-.225.125-.406 0-.219-.02-.26-.214-.447-.316-.302-.729-.424-1.568-.462l-.666-.03zm3.048.006V9.79h.849v-1.7h.345c.268 0 .351.017.375.079.017.043.03.425.03.85v.77h.8V8.086l.724.03.014.837.014.837h.847V8.086l-.188-.083c-.16-.071-.448-.086-1.999-.102l-1.811-.02zm-4.497.027l-.775.007-.014.937-.013.937h.852V8.253l.144-.029a.85.85 0 0 1 .325.021c.157.044.21.034.392-.075l.21-.125-.173-.072c-.128-.053-.377-.069-.948-.064zm2.299.175l.112.035c.158.049.357.196.508.376.248.295.139.696-.258.948-.128.08-.261.147-.297.147-.051 0-.065-.167-.065-.753v-.753z"/><path d="M8.118 5.07l-.205.263c.575.242 1.02.623 1.229 1.04.12.24.14.647.13.781l-.018.236c.566.101 1.277.228 1.555.274 0 0-.001-.08-.04-.315-.058-.342-.35-.872-.656-1.182-.524-.532-1.082-.859-1.995-1.098z" opacity=".75"/></g></svg>