<svg xmlns="http://www.w3.org/2000/svg" width="48" height="48"><path style="line-height:normal;text-indent:0;text-align:start;text-decoration-line:none;text-transform:none;marker:none" d="M29.7-.08c-2.04 0-4.12.08-4.51.1H7a2.94 2.94 0 0 0-.56 0 3.1 3.1 0 0 0-2.44 3V45c0 1.57 1.43 3 3 3h34c1.57 0 3-1.43 3-3V18.82c.02-.8.22-9.93-.34-10.5L34.06.25c-.29-.28-2.3-.34-4.35-.33zM31.2 3l.13 7.5c.01.68.64 1.3 1.31 1.28l7.78-.13c.13.01.26.01.4-.01l.08 3.03.1 4.09V45H7V3.02h18.67l5.53-.01zM14.8 17.57a4.16 4.16 0 0 0-4.18 4.18V32.5c0 2.3 1.84 4.2 4.17 4.2h6.02l-1.9 5.73 8.28-5.72h6.02c2.3 0 4.17-1.88 4.17-4.21V21.75c0-2.3-1.84-4.18-4.17-4.18H14.79zm-1.68 1.9h4.53c.33 0 .6.27.6.6v2.63c0 .33-.27.6-.6.6h-4.53a.6.6 0 0 1-.6-.6v-2.63c0-.33.27-.6.6-.6zm17.23 0h4.53c.33 0 .6.27.6.6v2.63c0 .33-.27.6-.6.6h-4.53a.6.6 0 0 1-.6-.6v-2.63c0-.33.27-.6.6-.6zM13.12 25.2h4.53c.33 0 .6.3.6.62v2.64c0 .32-.27.59-.6.59h-4.53a.6.6 0 0 1-.6-.63V25.8c0-.33.27-.6.6-.6zm17.23 0h4.53c.33 0 .6.3.6.62v2.64a.6.6 0 0 1-.6.59h-4.53a.6.6 0 0 1-.6-.63V25.8c0-.33.27-.6.6-.6zm-17.23 5.75h4.53c.33 0 .6.27.6.6v2.63c0 .32-.27.59-.6.59h-4.53a.6.6 0 0 1-.6-.6v-2.62c0-.33.27-.6.6-.6zm17.23 0h4.53c.33 0 .6.27.6.6v2.63a.6.6 0 0 1-.6.59h-4.53a.6.6 0 0 1-.6-.6v-2.62c0-.33.27-.6.6-.6z" fill="#2c89a0"/></svg>