<?xml version="1.0" encoding="UTF-8" standalone="no"?>
<svg
   xmlns:dc="http://purl.org/dc/elements/1.1/"
   xmlns:cc="http://creativecommons.org/ns#"
   xmlns:rdf="http://www.w3.org/1999/02/22-rdf-syntax-ns#"
   xmlns:svg="http://www.w3.org/2000/svg"
   xmlns="http://www.w3.org/2000/svg"
   xmlns:sodipodi="http://sodipodi.sourceforge.net/DTD/sodipodi-0.dtd"
   xmlns:inkscape="http://www.inkscape.org/namespaces/inkscape"
   width="48"
   height="48"
   viewBox="0 0 12.7 12.7"
   version="1.1"
   id="svg6"
   sodipodi:docname="application-x-bzip-compressed-tar.svg"
   inkscape:version="0.92.5 (2060ec1f9f, 2020-04-08)">
  <metadata
     id="metadata12">
    <rdf:RDF>
      <cc:Work
         rdf:about="">
        <dc:format>image/svg+xml</dc:format>
        <dc:type
           rdf:resource="http://purl.org/dc/dcmitype/StillImage" />
        <dc:title></dc:title>
      </cc:Work>
    </rdf:RDF>
  </metadata>
  <defs
     id="defs10" />
  <sodipodi:namedview
     pagecolor="#ffffff"
     bordercolor="#666666"
     borderopacity="1"
     objecttolerance="10"
     gridtolerance="10"
     guidetolerance="10"
     inkscape:pageopacity="0"
     inkscape:pageshadow="2"
     inkscape:window-width="1087"
     inkscape:window-height="480"
     id="namedview8"
     showgrid="false"
     inkscape:zoom="4.9166667"
     inkscape:cx="2.1355932"
     inkscape:cy="24"
     inkscape:window-x="0"
     inkscape:window-y="25"
     inkscape:window-maximized="0"
     inkscape:current-layer="svg6" />
  <path
     style="fill:#2c89a0;stroke-width:1"
     d="M 1.3229166,0.79374999 0.26510009,3.4401 H 6.0848999 V 0.79374999 Z m 5.2921834,0 V 3.4401 h 5.8198 L 11.377084,0.79374999 Z M 0.26510009,3.96875 v 6.35 c 0,1.172 0.94414991,2.11615 2.11614991,2.11615 h 7.9375 a 2.112,2.112 0 0 0 2.11615,-2.11615 v -6.35 h -0.792716 v 6.35 A 1.32,1.32 0 0 1 10.31875,11.642183 H 2.3802165 A 1.32,1.32 0 0 1 1.056783,10.31875 v -6.35 z M 1.8531169,4.9769572 V 6.0368407 H 2.1332031 V 7.0972412 H 2.6628865 V 6.0368407 H 2.922819 V 4.9769572 Z m 1.3198162,0.050126 V 5.5567667 H 3.7031332 V 5.0270833 Z M 3.7031332,5.5567667 V 6.0869668 H 4.2328166 V 5.5567667 Z m 0.5296834,0 H 4.7630167 V 5.0270833 H 4.2328166 Z m 0.5302001,0 V 6.0869668 H 5.2932168 V 5.5567667 Z m 0.5302001,0 h 0.519865 V 5.0270833 h -0.519865 z m 0.519865,0 V 6.0869668 H 6.3427652 V 5.5567667 Z m 0.5296834,0 H 6.8729653 V 5.0270833 H 6.3427652 Z m 0.5302001,0 V 6.0869668 H 7.4031657 V 5.5567667 Z m 0.5302004,0 H 7.9328491 V 5.0270833 H 7.4031657 Z m 0.5296834,0 V 6.0869668 H 8.4630492 V 5.5567667 Z m 0.5302001,0 H 8.9932493 V 5.0270833 H 8.4630492 Z m 0.5302001,0 V 6.0869668 H 9.522933 V 5.5567667 Z m 0.5296837,0 h 0.5302 V 5.0270833 h -0.5302 z m 0.5302,0 v 0.5302001 h 0.529684 V 5.5567667 Z m 0.529684,0 h 0.5302 V 5.0270833 h -0.5302 z M 2.1228678,5.2472248 H 2.6530681 V 5.7769082 H 2.1228678 Z m 2.3001181,2.2996014 v 0.010335 z m 5.8471881,0.6170165 c -0.4,0.02 -0.7102433,0.4304126 -0.6702433,0.8604126 h 0.3798218 c -0.09,-0.55 0.7400895,-0.6203077 0.6500895,-0.040308 -0.09,0.3500001 -0.399601,0.5399511 -0.619601,0.7999513 C 9.8802417,9.9238987 9.7097492,10.053847 9.6097491,10.213847 v 0.350366 h 1.4004319 c -0.01,-0.13 0.02985,-0.309976 -0.02015,-0.399976 h -0.829928 c 0.29,-0.3199996 0.679924,-0.5604553 0.829924,-1.0004553 0.15,-0.4600001 -0.189936,-0.9799391 -0.629936,-0.999939 z M 2.1802287,8.193815 a 0.23,0.23 0 0 0 -0.060461,0.020154 c -0.13,0 -0.2995972,-0.049803 -0.2495972,0.160197 v 0.429948 c -0.16,-0.04 -0.2301693,0.019988 -0.1901693,0.1999876 -0.04,0.1800001 0.049988,0.2098339 0.1999878,0.1798342 V 10.553878 H 2.2598104 V 9.1839356 c 0.13,0 0.3002954,0.04032 0.2402954,-0.1596803 0.02,-0.1600002 -1.55e-5,-0.2801416 -0.1700155,-0.2201415 -0.14,0.01 -0.04028,-0.2400311 -0.07028,-0.3400312 0,-0.1199999 0.030418,-0.2702676 -0.079582,-0.2702676 z m 4.1997435,0.020154 v 2.339909 c 0.11,-0.01 0.2801848,0.04036 0.3601847,-0.01964 -0.07,-0.45 0.3096559,0.219763 0.5596559,0.06976 0.55,0.03 0.9001601,-0.6399543 0.7601604,-1.1699544 -0.09,-0.62 -0.8901793,-0.9502556 -1.3001792,-0.4702556 V 8.213963 Z M 3.5300171,8.733834 a 0.16,0.16 0 0 0 -0.080099,0.029972 c -0.4999998,-0.03 -0.9001049,0.5000926 -0.8201049,1.0200928 0.01,0.5800002 0.6201913,0.9903422 1.1001912,0.7503422 0.2300002,-0.2 0.2497511,-0.220363 0.2697512,0.01964 0.1,-0.02 0.3000309,0.07021 0.3400308,-0.03979 V 8.8041138 c -0.11,0.01 -0.279668,-0.040363 -0.3596679,0.019637 0.06,0.4 -0.199948,-0.059917 -0.4299479,-0.089917 a 0.16,0.16 0 0 0 -0.020154,2e-7 z m 1.7900716,0.010335 c -0.1199999,0 -0.3800308,0.2396802 -0.3400309,0.1596802 0.05,-0.1899999 -0.1899049,-0.069736 -0.289905,-0.099735 -0.1399997,-0.02 -0.029944,0.2296956 -0.059944,0.3296954 V 10.553878 H 5.019849 c 0,-0.38 -0.029846,-0.7698006 0.020154,-1.1498005 0.1,-0.26 0.4298772,-0.1802003 0.319877,-0.5302004 0.01,-0.09 2.093e-4,-0.1197078 -0.039791,-0.1297081 z m 2.9698444,0.059945 c 0.03,0.1099999 -0.049692,0.340003 0.040308,0.3700031 H 8.9302042 L 8.2098348,10.174056 v 0.379822 h 1.2402343 c -0.03,-0.1 0.049693,-0.330004 -0.040308,-0.370004 H 8.6800904 L 9.3901243,9.1839356 c -0.02,-0.1200002 0.049692,-0.3398219 -0.040307,-0.3798218 z M 7.2202309,9.123991 c 0.4500002,-0.03 0.6395419,0.6799667 0.3095419,0.969966 -0.2799998,0.27 -0.7797972,0.05 -0.7797972,-0.3700027 C 6.7099756,9.4239544 6.920231,9.113991 7.2202309,9.123991 Z M 3.4902262,9.144145 c 0.4200001,-0.02 0.6196679,0.6000218 0.3596679,0.910022 -0.25,0.32 -0.8299235,0.13976 -0.8299235,-0.3002402 -0.04,-0.3 0.1702556,-0.6199632 0.4702556,-0.5999634 z m 2.1295857,1.009757 v 0.399976 h 0.3803385 v -0.399976 z"
     id="path2"
     inkscape:connector-curvature="0" />
</svg>
