<?xml version="1.0" encoding="UTF-8" standalone="no"?><svg xmlns:dc="http://purl.org/dc/elements/1.1/" xmlns:cc="http://creativecommons.org/ns#" xmlns:rdf="http://www.w3.org/1999/02/22-rdf-syntax-ns#" xmlns="http://www.w3.org/2000/svg" width="48" height="48" viewBox="0 0 12.7 12.7"><metadata><rdf:RDF><cc:Work><dc:format>image/svg+xml</dc:format><dc:type rdf:resource="http://purl.org/dc/dcmitype/StillImage"/><dc:title/></cc:Work></rdf:RDF></metadata><path d="M1.21.86L.14 3.66h6.04V.86H1.21zm5.18 0v2.8h6.11L11.4.86H6.4zM.19 3.89v6.31c0 .64.25 1.18.74 1.64.5.45 1.08.67 1.78.67h7.25c.7 0 1.28-.22 1.78-.67.49-.46.73-1 .73-1.64V3.9h-1.12v6.3c0 .36-.13.66-.4.91a1.4 1.4 0 0 1-.99.38H2.71a1.4 1.4 0 0 1-.99-.38 1.19 1.19 0 0 1-.41-.9V3.88H.19zm5.3 1.24h-.03c-.02.02-.02.05 0 .07l.2.3c-.47.17-.79.54-.79 1.1h2.85c0-.57-.34-.96-.83-1.13l.2-.27c.01-.02.01-.05-.01-.06-.02-.02-.05-.01-.06.01l-.22.3a1.88 1.88 0 0 0-1.06 0l-.22-.3a.05.05 0 0 0-.03-.02zm.4.66c.11 0 .2.09.2.2a.2.2 0 1 1-.4 0c0-.11.09-.2.2-.2zm.81 0c.12 0 .2.09.2.2 0 .11-.08.2-.2.2a.2.2 0 1 1 0-.4zM4.08 7c-.24 0-.43.12-.43.27v1.08c0 .15.2.27.43.27.23 0 .38-.12.38-.27V7.28c0-.15-.15-.27-.38-.27zm.8 0v2.24c0 .1.08.2.2.2h.2V10c0 .17.26.25.4.25.15 0 .43-.08.41-.25v-.56h.41V10c0 .17.26.25.4.25.15 0 .42-.08.41-.25v-.56h.2c.12 0 .21-.1.21-.2V7H4.87zm3.67 0c-.23 0-.42.12-.42.27v1.08c0 .15.19.27.42.27.24 0 .4-.12.4-.27V7.28c0-.15-.16-.27-.4-.27z" fill="#2c89a0"/></svg>