<svg xmlns="http://www.w3.org/2000/svg" width="48" height="48"><path style="line-height:normal;text-indent:0;text-align:start;text-decoration-line:none;text-transform:none;marker:none" d="M29.705-.084c-2.047.008-4.121.088-4.517.098H7a2.938 2.938 0 0 0-.563 0C5.064.276 3.975 1.612 4 3.012V45c0 1.57 1.43 3 3 3h34c1.57 0 3-1.43 3-3V18.818c.018-.792.215-9.927-.336-10.496L34.054.248c-.283-.275-2.302-.34-4.349-.332zm1.49 3.094l.133 7.504c.012.68.638 1.29 1.317 1.279l7.771-.137c.133.018.268.017.4-.006l.082 3.03.102 4.09v26.226H7V3.021h18.672l5.523-.011zm-19.597 7.722c-.87.87 14.7 15.573 14.7 15.573l4.31 4.119c-.114 3.666 3.288 3.325 4.195 4.988.415.718-.377 1.626-1.133 1.701 1.512.492 3.25-2.343 2.644-3.968a4.535 4.535 0 0 0-2.947-3.061c-.567-.265-1.55-.114-2.117-.303l-4.043-4.46s-13.87-14.475-15.496-14.589h-.113zm6.16 14.514c-.378 0-.453.566-.453 1.322.075 1.512 1.019 5.859 5.668 9.034 3.968 2.645 11.226 1.7 11.113.189-1.587-1.965-4.27-.756-4.309-5.48-1.511 0-3.214-.227-3.138.416.264 2.72-4.081.755-5.744-2.004-1.663-2.57-2.647-3.477-3.1-3.477h-.037zm6.197 3.363v.037c-.264 0-.453.076-.566.227-.19.378.114.909.718 1.211.567.378 1.21.378 1.399 0 .227-.302-.113-.87-.68-1.211-.302-.151-.87 0-.87-.264z" fill="#2c89a0"/></svg>
