<?xml version="1.0" encoding="UTF-8" standalone="no"?>
<svg
   xmlns:dc="http://purl.org/dc/elements/1.1/"
   xmlns:cc="http://creativecommons.org/ns#"
   xmlns:rdf="http://www.w3.org/1999/02/22-rdf-syntax-ns#"
   xmlns:svg="http://www.w3.org/2000/svg"
   xmlns="http://www.w3.org/2000/svg"
   xmlns:sodipodi="http://sodipodi.sourceforge.net/DTD/sodipodi-0.dtd"
   xmlns:inkscape="http://www.inkscape.org/namespaces/inkscape"
   width="48"
   height="48"
   version="1.1"
   id="svg35"
   sodipodi:docname="image-gif.svg"
   inkscape:version="0.92.4 (5da689c313, 2019-01-14)">
  <metadata
     id="metadata39">
    <rdf:RDF>
      <cc:Work
         rdf:about="">
        <dc:format>image/svg+xml</dc:format>
        <dc:type
           rdf:resource="http://purl.org/dc/dcmitype/StillImage" />
        <dc:title></dc:title>
      </cc:Work>
    </rdf:RDF>
  </metadata>
  <sodipodi:namedview
     pagecolor="#ffffff"
     bordercolor="#666666"
     borderopacity="1"
     objecttolerance="10"
     gridtolerance="10"
     guidetolerance="10"
     inkscape:pageopacity="0"
     inkscape:pageshadow="2"
     inkscape:window-width="1087"
     inkscape:window-height="480"
     id="namedview37"
     showgrid="false"
     inkscape:zoom="4.9166667"
     inkscape:cx="2.1355932"
     inkscape:cy="24"
     inkscape:window-x="0"
     inkscape:window-y="25"
     inkscape:window-maximized="0"
     inkscape:current-layer="svg35" />
  <defs
     id="defs31">
    <linearGradient
       id="a">
      <stop
         offset="0"
         stop-color="#dc85e9"
         id="stop2" />
      <stop
         offset="1"
         stop-color="#f2cbf8"
         id="stop4" />
    </linearGradient>
    <linearGradient
       id="b">
      <stop
         offset="0"
         stop-color="#dc85e9"
         id="stop7" />
      <stop
         offset="1"
         stop-color="#f2cbf8"
         id="stop9" />
    </linearGradient>
    <linearGradient
       id="c">
      <stop
         offset="0"
         stop-color="#fff"
         stop-opacity=".588"
         id="stop12" />
      <stop
         offset="1"
         stop-color="#fff"
         stop-opacity=".863"
         id="stop14" />
    </linearGradient>
    <linearGradient
       id="d">
      <stop
         offset="0"
         stop-color="#b3b3b3"
         id="stop17" />
      <stop
         offset="1"
         stop-color="#e6e6e6"
         id="stop19" />
    </linearGradient>
    <linearGradient
       id="e">
      <stop
         offset="0"
         stop-color="#e694bb"
         id="stop22" />
      <stop
         offset=".262"
         stop-color="#d3819a"
         id="stop24" />
      <stop
         offset=".705"
         stop-color="#b25a64"
         id="stop26" />
      <stop
         offset="1"
         stop-color="#98313d"
         id="stop28" />
    </linearGradient>
  </defs>
  <path
     d="m 14.844,2.64 a 6.597,6.597 0 0 0 -0.817,0.046 c -2.614,0.19 -4.953,2.311 -5.336,4.959 -0.455,2.457 0.842,5.068 3.014,6.224 1.885,0.97 4.263,1.054 6.168,0.092 1.828,-0.944 2.783,-3.064 2.727,-5.086 h -4.848 v 1.102 h 3.586 c -0.202,1.892 -1.89,3.379 -3.725,3.53 -2.31,0.317 -4.804,-1.044 -5.556,-3.335 -0.852,-2.25 0.38,-4.957 2.543,-5.887 2.164,-1.096 4.834,-0.288 6.463,1.402 l 0.87,-0.835 C 18.586,3.479 16.743,2.653 14.843,2.641 Z m 8.758,0 v 12 h 1 v -12 z m 4,0 v 12 h 1.187 V 8.76 h 4.813 V 7.576 H 28.789 V 3.824 h 4.813 V 2.641 h -6 z M 7.06,16.427 3.788,18.835 1.001,20.884 3.05,23.671 16.886,42.476 v 4.072 h 0.011 v 1.305 h 28.61 v -0.055 h 0.015 V 18.008 H 45.429 V 18.005 H 34.44 l -1.096,-1.49 -4.307,-0.014 1.108,1.506 H 16.887 V 36.63 L 5.84,21.619 12.87,16.447 29.037,16.5 7.061,16.426 Z m 13.283,5.039 H 42.065 V 41.39 H 20.39 L 20.345,41.327 V 21.465 Z"
     id="path33"
     inkscape:connector-curvature="0"
     style="fill:#2c89a0" />
</svg>
