<svg xmlns="http://www.w3.org/2000/svg" width="48" height="48"><path d="M14.844 2.64a6.597 6.597 0 0 0-.817.046c-2.614.19-4.953 2.311-5.336 4.959-.455 2.457.842 5.068 3.014 6.224 1.885.97 4.263 1.054 6.168.092 1.828-.944 2.783-3.064 2.727-5.086h-4.848v1.102h3.586c-.202 1.892-1.89 3.379-3.725 3.53-2.31.317-4.804-1.044-5.556-3.335-.852-2.25.38-4.957 2.543-5.887 2.164-1.096 4.834-.288 6.463 1.402l.87-.835c-1.347-1.373-3.19-2.199-5.09-2.211zm8.758 0v12h1v-12h-1zm4 0v12h1.187V8.76h4.813V7.576h-4.813V3.824h4.813V2.641h-6zM7.06 16.427l-3.272 2.408-2.787 2.049 2.049 2.787 13.836 18.805v4.072h.011v1.305h28.61v-.055h.015v-29.79h-.093v-.003H34.44l-1.096-1.49-4.307-.014 1.108 1.506H16.887V36.63L5.84 21.619l7.03-5.172 16.167.053-21.976-.074zm13.283 5.039h21.722V41.39H20.39l-.045-.063V21.465z" fill="#2c89a0"/></svg>