<?xml version="1.0" encoding="UTF-8" standalone="no"?>
<svg
   xmlns:dc="http://purl.org/dc/elements/1.1/"
   xmlns:cc="http://creativecommons.org/ns#"
   xmlns:rdf="http://www.w3.org/1999/02/22-rdf-syntax-ns#"
   xmlns:svg="http://www.w3.org/2000/svg"
   xmlns="http://www.w3.org/2000/svg"
   xmlns:sodipodi="http://sodipodi.sourceforge.net/DTD/sodipodi-0.dtd"
   xmlns:inkscape="http://www.inkscape.org/namespaces/inkscape"
   width="48"
   height="48"
   version="1.1"
   id="svg6"
   sodipodi:docname="text-css.svg"
   inkscape:version="0.92.5 (2060ec1f9f, 2020-04-08)">
  <metadata
     id="metadata12">
    <rdf:RDF>
      <cc:Work
         rdf:about="">
        <dc:format>image/svg+xml</dc:format>
        <dc:type
           rdf:resource="http://purl.org/dc/dcmitype/StillImage" />
        <dc:title></dc:title>
      </cc:Work>
    </rdf:RDF>
  </metadata>
  <defs
     id="defs10" />
  <sodipodi:namedview
     pagecolor="#ffffff"
     bordercolor="#666666"
     borderopacity="1"
     objecttolerance="10"
     gridtolerance="10"
     guidetolerance="10"
     inkscape:pageopacity="0"
     inkscape:pageshadow="2"
     inkscape:window-width="1087"
     inkscape:window-height="480"
     id="namedview8"
     showgrid="false"
     inkscape:zoom="4.9166667"
     inkscape:cx="24"
     inkscape:cy="24"
     inkscape:window-x="0"
     inkscape:window-y="25"
     inkscape:window-maximized="0"
     inkscape:current-layer="svg6" />
  <path
     style="line-height:normal;text-indent:0;text-align:start;text-decoration:none;text-decoration-line:none;text-transform:none;marker:none;fill:#2c89a0;fill-opacity:1"
     d="m 29.705078,-0.08398437 c -2.047,0.008 -4.121578,0.08765624 -4.517578,0.09765625 H 7 a 2.938,2.938 0 0 0 -0.5625,0 C 5.0645,0.27567188 3.975,1.6117188 4,3.0117188 V 45 c 0,1.57 1.43,3 3,3 h 34 c 1.57,0 3,-1.43 3,-3 V 18.818359 c 0.018,-0.792 0.215062,-9.9270934 -0.335938,-10.4960934 L 34.054688,0.24804688 c -0.283001,-0.27500001 -2.30261,-0.34003125 -4.34961,-0.33203125 z m 1.490234,3.09374997 0.132813,7.5039064 c 0.012,0.68 0.637406,1.290297 1.316406,1.279297 l 7.771485,-0.136719 c 0.133,0.018 0.26839,0.01714 0.40039,-0.0059 l 0.08203,3.029297 L 41,18.769531 V 44.996094 H 7 V 3.0214844 H 25.671875 Z M 10,7 v 2 h 6 V 7 Z m 8,0 v 2 h 6 V 7 Z m -6,4 v 2 h 16 v -2 z m -2,4 v 2 h 14 v -2 z m 16,0 v 2 h 11 v -2 z m -16,4 v 2 h 7 v -2 z m 9,0 v 2 h 11 v -2 z m 13,0 v 2 h 4 v -2 z m -20,4 v 2 h 22 v -2 z m 0,4 v 2 h 17.599609 v -2 z m 20,0 v 2 h 4 v -2 z m -22,4 v 2 h 17 v -2 z m 20,0 v 2 h 6 v -2 z m -11.341797,4.394531 c -1.137,-0.057 -2.424015,0.385094 -2.916015,1.496094 -0.474001,1.13 -0.337844,2.638219 0.660156,3.449219 1.067,0.82 2.570062,0.780515 3.789062,0.353515 v -0.800781 c -0.047,-0.175 0.12075,-0.756375 -0.15625,-0.484375 -0.726,0.46 -1.882656,0.574891 -2.472656,-0.162109 -0.432,-0.645 -0.427203,-1.619797 0.0918,-2.216797 0.683,-0.667 1.823109,-0.464125 2.537109,0.04687 V 35.6875 a 4.865,4.865 0 0 0 -1.533203,-0.292969 z m 5.390625,0.0039 c -0.603,-0.033 -1.20925,0.01961 -1.78125,0.224609 -0.902,0.31 -1.122422,1.479766 -0.732422,2.259765 0.412,0.714 1.33136,0.793438 2.06836,0.898438 0.58,-0.123 1.438343,0.55075 0.652343,0.96875 -0.936,0.263 -1.955359,0.01033 -2.818359,-0.388672 v 0.806641 c -0.023,0.306 -0.04586,0.617984 0.369141,0.583984 1.17,0.256 2.462843,0.420203 3.589843,-0.0918 0.878,-0.416 1.024047,-1.673015 0.498047,-2.416015 -0.531,-0.578 -1.382328,-0.614375 -2.111328,-0.734375 -0.527,0.105 -1.367,-0.502625 -0.625,-0.890625 0.895,-0.249 1.839735,0.03128 2.677735,0.363281 V 35.6875 c -0.577001,-0.139 -1.18311,-0.255063 -1.78711,-0.289062 z m 5.804688,0 c -0.605,-0.033 -1.20825,0.01961 -1.78125,0.224609 -0.9,0.31 -1.120469,1.479766 -0.730469,2.259765 0.41,0.714 1.332359,0.793438 2.068359,0.898438 0.58,-0.123 1.438391,0.55075 0.650391,0.96875 -0.934,0.263 -1.953406,0.01033 -2.816406,-0.388672 v 0.806641 c -0.023,0.306 -0.04786,0.617984 0.36914,0.583984 1.17,0.256 2.461844,0.420203 3.589844,-0.0918 0.878,-0.416 1.023094,-1.673015 0.496094,-2.416015 -0.53,-0.578 -1.383328,-0.614375 -2.111328,-0.734375 -0.528,0.105 -1.367,-0.502625 -0.625,-0.890625 0.894,-0.249 1.839734,0.03128 2.677734,0.363281 V 35.6875 c -0.577,-0.139 -1.183109,-0.255062 -1.787109,-0.289062 z"
     id="path2"
     inkscape:connector-curvature="0" />
</svg>
