<?xml version="1.0" encoding="UTF-8" standalone="no"?>
<svg
   xmlns:dc="http://purl.org/dc/elements/1.1/"
   xmlns:cc="http://creativecommons.org/ns#"
   xmlns:rdf="http://www.w3.org/1999/02/22-rdf-syntax-ns#"
   xmlns:svg="http://www.w3.org/2000/svg"
   xmlns="http://www.w3.org/2000/svg"
   xmlns:sodipodi="http://sodipodi.sourceforge.net/DTD/sodipodi-0.dtd"
   xmlns:inkscape="http://www.inkscape.org/namespaces/inkscape"
   width="48"
   height="48"
   version="1.1"
   id="svg4"
   sodipodi:docname="application-x-dia-diagram.svg"
   inkscape:version="0.92.4 (5da689c313, 2019-01-14)">
  <metadata
     id="metadata10">
    <rdf:RDF>
      <cc:Work
         rdf:about="">
        <dc:format>image/svg+xml</dc:format>
        <dc:type
           rdf:resource="http://purl.org/dc/dcmitype/StillImage" />
        <dc:title></dc:title>
      </cc:Work>
    </rdf:RDF>
  </metadata>
  <defs
     id="defs8" />
  <sodipodi:namedview
     pagecolor="#ffffff"
     bordercolor="#666666"
     borderopacity="1"
     objecttolerance="10"
     gridtolerance="10"
     guidetolerance="10"
     inkscape:pageopacity="0"
     inkscape:pageshadow="2"
     inkscape:window-width="1121"
     inkscape:window-height="480"
     id="namedview6"
     showgrid="false"
     inkscape:zoom="4.9166667"
     inkscape:cx="3.0508475"
     inkscape:cy="24"
     inkscape:window-x="0"
     inkscape:window-y="25"
     inkscape:window-maximized="0"
     inkscape:current-layer="svg4" />
  <path
     d="m 29.705,-0.084 c -2.047,0.008 -4.121,0.088 -4.517,0.098 H 7 a 2.938,2.938 0 0 0 -0.563,0 C 5.064,0.276 3.975,1.612 4,3.012 V 45 c 0,1.57 1.43,3 3,3 h 34 c 1.57,0 3,-1.43 3,-3 V 18.818 C 44.018,18.026 44.215,8.891 43.664,8.322 l -9.61,-8.074 c -0.282,-0.275 -2.302,-0.34 -4.349,-0.332 z m 1.49,3.094 0.133,7.504 c 0.012,0.68 0.638,1.29 1.317,1.279 l 7.771,-0.137 c 0.133,0.018 0.268,0.017 0.4,-0.006 L 40.898,14.68 41,18.77 V 44.996 H 7 V 3.021 H 25.672 Z M 11.24,15.217 v 6.752 h 5.977 v -6.752 z m 6.602,1.633 v 1.67 a 15.991,7.458 0 0 1 15.799,7.457 15.991,7.458 0 0 1 -15.8,7.459 v 1.72 a 19.634,9.152 0 0 0 0.014,0 19.634,9.152 0 0 0 19.633,-9.152 19.634,9.152 0 0 0 -19.633,-9.154 19.634,9.152 0 0 1 -0.013,0 z m -3.694,5.85 v 14.16 h -2.015 l 3.533,3.922 3.525,-3.922 H 17.26 V 22.7 Z M 10.51,33.452 v 1.703 h 2.709 v -1.703 h -2.71 z"
     id="path2"
     inkscape:connector-curvature="0"
     style="fill:#5beedc" />
</svg>
