<?xml version="1.0" encoding="UTF-8" standalone="no"?>
<svg
   xmlns:dc="http://purl.org/dc/elements/1.1/"
   xmlns:cc="http://creativecommons.org/ns#"
   xmlns:rdf="http://www.w3.org/1999/02/22-rdf-syntax-ns#"
   xmlns:svg="http://www.w3.org/2000/svg"
   xmlns="http://www.w3.org/2000/svg"
   xmlns:sodipodi="http://sodipodi.sourceforge.net/DTD/sodipodi-0.dtd"
   xmlns:inkscape="http://www.inkscape.org/namespaces/inkscape"
   version="1.0"
   viewBox="0 0 24 24"
   id="svg8"
   sodipodi:docname="address-book-new.svg"
   inkscape:version="0.92.3 (2405546, 2018-03-11)">
  <defs
     id="defs12" />
  <sodipodi:namedview
     pagecolor="#ffffff"
     bordercolor="#666666"
     borderopacity="1"
     objecttolerance="10"
     gridtolerance="10"
     guidetolerance="10"
     inkscape:pageopacity="0"
     inkscape:pageshadow="2"
     inkscape:window-width="883"
     inkscape:window-height="480"
     id="namedview10"
     showgrid="false"
     inkscape:zoom="9.8333333"
     inkscape:cx="2.0847458"
     inkscape:cy="12"
     inkscape:window-x="0"
     inkscape:window-y="25"
     inkscape:window-maximized="0"
     inkscape:current-layer="svg8" />
  <metadata
     id="metadata2">
    <rdf:RDF>
      <cc:Work
         rdf:about="">
        <dc:format>image/svg+xml</dc:format>
        <dc:type
           rdf:resource="http://purl.org/dc/dcmitype/StillImage" />
        <dc:title></dc:title>
      </cc:Work>
    </rdf:RDF>
  </metadata>
  <g
     transform="matrix(1.5333 0 0 1.5333 -1032.9 34.728)"
     color="#000000"
     fill="#333"
     id="g6">
    <path
       d="m676-21.99c-0.554 0-1 0.446-1 1v12c0 0.554 0.446 1 1 1h6v-1.01l-5 0.01v-12h8.5c0.277 0 0.5 0.223 0.5 0.5v6.492h1v-6.992c0-0.554-0.446-1-1-1zm5.488 4.002c-0.481-0.032-0.952 0.25-1.232 0.63-0.273 0.492-0.05 1.077-0.22 1.596-0.104 0.372 0 0.768 0.27 1.037 0.232 0.292 0.517 0.673 0.358 1.065-0.23 0.441-0.687 0.7-1.103 0.935-0.11 0.045-0.252 0.122-0.37 0.213-0.106 0.03-0.19 0.11-0.19 0.225v1.047c0 0.138 0.11 0.25 0.25 0.25h2.732a1.017 1.017 0 0 1 1.017 -1.012h0.983v-0.53c-0.552-0.298-1.17-0.589-1.479-1.171-0.106-0.462 0.219-0.867 0.504-1.188 0.281-0.357 0.17-0.828 0.072-1.228-0.041-0.442 0.101-0.966-0.228-1.328-0.357-0.362-0.872-0.51-1.363-0.541zm3.512 5.008v1.996h-2v1.984l2 0.014v1.996h2v-1.996h2v-1.998h-2v-1.996z"
       fill="#333"
       overflow="visible"
       style="isolation:auto;mix-blend-mode:normal"
       id="path4" />
  </g>
</svg>
