<svg xmlns="http://www.w3.org/2000/svg" version="1" viewBox="0 0 24 24">
  <path fill="#333" d="M3.6108 1.010733c-.8494482 0-1.5333.6838518-1.5333 1.5333v18.3996c0 .8494482.6838518 1.5333 1.5333 1.5333h9.1998V20.9283l-7.6665.015333v-18.3996h13.03305c.4247241 0 .76665.3419259.76665.76665v9.9541836h1.5333V2.544033c0-.8494482-.6838518-1.5333-1.5333-1.5333zm8.4147504 6.1362666c-.7375173-.0490656-1.4597016.383325-1.8890256.965979-.4185909.7543836-.076665 1.6513641-.337326 2.4471468-.1594632.5703876 0 1.1775744.413991 1.5900321.3557256.4477236.7927161 1.0319109.5489214 1.6329645-.352659.6761853-1.0533771 1.07331-1.6912299 1.4336355-.168663.0689985-.3863916.1870626-.567321.3265929-.1625298.045999-.291327.168663-.291327.3449925v1.6053651c0 .2115954.168663.383325.383325.383325h4.1889756A1.5593661 1.5593661 0 0 1 14.3439 16.3253334h1.5072339v-.812649c-.8463816-.4569234-1.793961-.9031137-2.2677507-1.7954943-.1625298-.7083846.3357927-1.3293711.7727832-1.8215604.4308573-.5473881.260661-1.2695724.1103976-1.8828924-.0628653-.6777186.1548633-1.4811678-.3495924-2.0362224-.5473881-.5550546-1.3370376-.781983-2.0898879-.8295153zM17.4105 14.825766v3.0604668h-3.0666V20.9283l3.0666.0214662v3.0604668h3.0666v-3.0604668h3.0666v-3.0635334h-3.0666V14.825766z" color="#000" overflow="visible" style="isolation:auto;mix-blend-mode:normal"/>
</svg>
