<?xml version="1.0" encoding="UTF-8" standalone="no"?>
<svg
   xmlns:dc="http://purl.org/dc/elements/1.1/"
   xmlns:cc="http://creativecommons.org/ns#"
   xmlns:rdf="http://www.w3.org/1999/02/22-rdf-syntax-ns#"
   xmlns:svg="http://www.w3.org/2000/svg"
   xmlns="http://www.w3.org/2000/svg"
   xmlns:sodipodi="http://sodipodi.sourceforge.net/DTD/sodipodi-0.dtd"
   xmlns:inkscape="http://www.inkscape.org/namespaces/inkscape"
   version="1.0"
   viewBox="0 0 24 24"
   id="svg10"
   sodipodi:docname="appointment-new.svg"
   inkscape:version="0.92.3 (2405546, 2018-03-11)">
  <defs
     id="defs14" />
  <sodipodi:namedview
     pagecolor="#ffffff"
     bordercolor="#666666"
     borderopacity="1"
     objecttolerance="10"
     gridtolerance="10"
     guidetolerance="10"
     inkscape:pageopacity="0"
     inkscape:pageshadow="2"
     inkscape:window-width="883"
     inkscape:window-height="480"
     id="namedview12"
     showgrid="false"
     inkscape:zoom="9.8333333"
     inkscape:cx="2.0847458"
     inkscape:cy="12"
     inkscape:window-x="0"
     inkscape:window-y="25"
     inkscape:window-maximized="0"
     inkscape:current-layer="svg10" />
  <metadata
     id="metadata2">
    <rdf:RDF>
      <cc:Work
         rdf:about="">
        <dc:format>image/svg+xml</dc:format>
        <dc:type
           rdf:resource="http://purl.org/dc/dcmitype/StillImage" />
        <dc:title></dc:title>
      </cc:Work>
    </rdf:RDF>
  </metadata>
  <g
     transform="matrix(1.375 0 0 1.375 -951.88 32.63)"
     fill="#333"
     id="g8">
    <path
       d="m700.5-23c-4.13 0-7.5 3.37-7.5 7.5s3.37 7.5 7.5 7.5c0.514 0 1.015-0.051 1.5-0.15v-2.06c-0.477 0.133-0.979 0.21-1.5 0.21-3.05 0-5.5-2.45-5.5-5.5s2.45-5.5 5.5-5.5a5.485 5.485 0 0 1 5.29 7h2.06c0.099-0.485 0.15-0.986 0.15-1.5 0-4.13-3.37-7.5-7.5-7.5zm2.965 4.002a0.5 0.5 0 0 0 -0.072 8e-3v8e-3a0.5 0.5 0 0 0 -0.25 0.156l-2.657 2.649-1.656-1.649a0.5 0.5 0 1 0 -0.687 0.688l2 2a0.5 0.5 0 0 0 0.687 0l3-3a0.5 0.5 0 0 0 -0.365 -0.86z"
       color="#000000"
       font-weight="400"
       overflow="visible"
       style="font-feature-settings:normal;font-variant-alternates:normal;font-variant-caps:normal;font-variant-ligatures:normal;font-variant-numeric:normal;font-variant-position:normal;isolation:auto;mix-blend-mode:normal;shape-padding:0;text-decoration-color:#000000;text-decoration-line:none;text-decoration-style:solid;text-indent:0;text-orientation:mixed;text-transform:none;white-space:normal"
       id="path4" />
    <path
       d="m705-12.997v1.996h-2v1.998h2v1.996h2v-1.996h2v-1.998h-2v-1.996z"
       color="#bebebe"
       overflow="visible"
       id="path6" />
  </g>
</svg>
