<svg xmlns="http://www.w3.org/2000/svg" version="1" viewBox="0 0 24 24">
  <g fill="#333">
    <path d="M11.3075 1.005C5.62875 1.005.995 5.63875.995 11.3175S5.62875 21.63 11.3075 21.63c.70675 0 1.395625-.070125 2.0625-.20625v-2.8325c-.655875.182875-1.346125.28875-2.0625.28875-4.19375 0-7.5625-3.36875-7.5625-7.5625S7.11375 3.755 11.3075 3.755a7.541875 7.541875 0 0 1 7.27375 9.625h2.8325c.136125-.666875.20625-1.35575.20625-2.0625 0-5.67875-4.63375-10.3125-10.3125-10.3125zm4.076875 5.50275a.6875.6875 0 0 0-.099.011v.011a.6875.6875 0 0 0-.34375.2145l-3.653375 3.642375-2.277-2.267375a.6875.6875 0 1 0-.944625.946l2.75 2.75a.6875.6875 0 0 0 .944625 0l4.125-4.125a.6875.6875 0 0 0-.501875-1.1825z" color="#000" font-weight="400" overflow="visible" style="font-feature-settings:normal;font-variant-alternates:normal;font-variant-caps:normal;font-variant-ligatures:normal;font-variant-numeric:normal;font-variant-position:normal;isolation:auto;mix-blend-mode:normal;shape-padding:0;text-decoration-color:#000;text-decoration-line:none;text-decoration-style:solid;text-indent:0;text-orientation:mixed;text-transform:none" white-space="normal"/>
    <path d="M17.495 14.759125v2.7445h-2.75v2.74725h2.75v2.7445h2.75v-2.7445h2.75v-2.74725h-2.75v-2.7445z" color="#bebebe" overflow="visible"/>
  </g>
</svg>
