<?xml version="1.0" encoding="UTF-8" standalone="no"?>
<svg
   xmlns:dc="http://purl.org/dc/elements/1.1/"
   xmlns:cc="http://creativecommons.org/ns#"
   xmlns:rdf="http://www.w3.org/1999/02/22-rdf-syntax-ns#"
   xmlns:svg="http://www.w3.org/2000/svg"
   xmlns="http://www.w3.org/2000/svg"
   xmlns:sodipodi="http://sodipodi.sourceforge.net/DTD/sodipodi-0.dtd"
   xmlns:inkscape="http://www.inkscape.org/namespaces/inkscape"
   fill="#000000"
   version="1.1"
   viewBox="0 0 24 24"
   id="svg6"
   sodipodi:docname="archive-insert-directory.svg"
   inkscape:version="0.92.3 (2405546, 2018-03-11)">
  <defs
     id="defs10" />
  <sodipodi:namedview
     pagecolor="#ffffff"
     bordercolor="#666666"
     borderopacity="1"
     objecttolerance="10"
     gridtolerance="10"
     guidetolerance="10"
     inkscape:pageopacity="0"
     inkscape:pageshadow="2"
     inkscape:window-width="640"
     inkscape:window-height="480"
     id="namedview8"
     showgrid="false"
     inkscape:zoom="9.8333333"
     inkscape:cx="12"
     inkscape:cy="12"
     inkscape:window-x="0"
     inkscape:window-y="25"
     inkscape:window-maximized="0"
     inkscape:current-layer="svg6" />
  <metadata
     id="metadata2">
    <rdf:RDF>
      <cc:Work
         rdf:about="">
        <dc:format>image/svg+xml</dc:format>
        <dc:type
           rdf:resource="http://purl.org/dc/dcmitype/StillImage" />
        <dc:title></dc:title>
      </cc:Work>
    </rdf:RDF>
  </metadata>
  <path
     d="m12 1.002a10.999 10.999 0 0 0 -11 10.998 10.999 10.999 0 0 0 11 11 10.999 10.999 0 0 0 10.998 -11 10.999 10.999 0 0 0 -10.998 -10.998zm-4.4 6.5979h3.3l1.1 1.1h4.4c0.60776 0 1.1 0.49225 1.1 1.1v5.5c0 0.60776-0.49226 1.1-1.1 1.1h-8.8001c-0.60776 0-1.1-0.49225-1.1-1.1l0.00645-6.6001c0-0.60776 0.48581-1.1 1.0936-1.1z"
     fill="#333"
     fill-opacity=".99533"
     stroke-width="0"
     id="path4" />
</svg>
