<?xml version="1.0" encoding="UTF-8" standalone="no"?>
<svg
   xmlns:dc="http://purl.org/dc/elements/1.1/"
   xmlns:cc="http://creativecommons.org/ns#"
   xmlns:rdf="http://www.w3.org/1999/02/22-rdf-syntax-ns#"
   xmlns:svg="http://www.w3.org/2000/svg"
   xmlns="http://www.w3.org/2000/svg"
   xmlns:sodipodi="http://sodipodi.sourceforge.net/DTD/sodipodi-0.dtd"
   xmlns:inkscape="http://www.inkscape.org/namespaces/inkscape"
   version="1.1"
   viewBox="0 0 24 24"
   id="svg6"
   sodipodi:docname="call-stop.svg"
   inkscape:version="0.92.3 (2405546, 2018-03-11)">
  <defs
     id="defs10" />
  <sodipodi:namedview
     pagecolor="#ffffff"
     bordercolor="#666666"
     borderopacity="1"
     objecttolerance="10"
     gridtolerance="10"
     guidetolerance="10"
     inkscape:pageopacity="0"
     inkscape:pageshadow="2"
     inkscape:window-width="883"
     inkscape:window-height="480"
     id="namedview8"
     showgrid="false"
     inkscape:zoom="9.8333333"
     inkscape:cx="2.0847458"
     inkscape:cy="12"
     inkscape:window-x="0"
     inkscape:window-y="25"
     inkscape:window-maximized="0"
     inkscape:current-layer="svg6" />
  <metadata
     id="metadata2">
    <rdf:RDF>
      <cc:Work
         rdf:about="">
        <dc:format>image/svg+xml</dc:format>
        <dc:type
           rdf:resource="http://purl.org/dc/dcmitype/StillImage" />
        <dc:title></dc:title>
      </cc:Work>
    </rdf:RDF>
  </metadata>
  <path
     d="m1.3611 13.619c-0.47305-0.4703-0.4813-1.4783 0-1.9555l0.055006-0.055c5.8678-5.8403 15.356-5.8306 21.212 0.024744l0.0275 0.0275c0.4813 0.4813 0.4373 1.4714-0.0275 1.9843l-2.654 2.7462a1.2486 1.2486 0 0 1 -1.7712 0l-1.7698-1.7684a1.2486 1.2486 0 0 1 0 -1.7698l0.4153-0.41392a11.223 11.223 0 0 0 -9.6811 0l0.41667 0.41392a1.2486 1.2486 0 0 1 0 1.7698l-1.7712 1.7712a1.2418 1.2418 0 0 1 -1.7698 0z"
     fill="#474747"
     stroke-width="1.3751"
     id="path4" />
</svg>
