<?xml version="1.0" encoding="UTF-8" standalone="no"?>
<!-- Created with Inkscape (http://www.inkscape.org/) -->

<svg
   xmlns:dc="http://purl.org/dc/elements/1.1/"
   xmlns:cc="http://creativecommons.org/ns#"
   xmlns:rdf="http://www.w3.org/1999/02/22-rdf-syntax-ns#"
   xmlns:svg="http://www.w3.org/2000/svg"
   xmlns="http://www.w3.org/2000/svg"
   xmlns:sodipodi="http://sodipodi.sourceforge.net/DTD/sodipodi-0.dtd"
   xmlns:inkscape="http://www.inkscape.org/namespaces/inkscape"
   version="1.1"
   id="svg2"
   width="24"
   height="24"
   viewBox="0 0 24 24"
   sodipodi:docname="call-stop.svg"
   inkscape:version="0.92.3 (2405546, 2018-03-11)">
  <metadata
     id="metadata8">
    <rdf:RDF>
      <cc:Work
         rdf:about="">
        <dc:format>image/svg+xml</dc:format>
        <dc:type
           rdf:resource="http://purl.org/dc/dcmitype/StillImage" />
        <dc:title></dc:title>
      </cc:Work>
    </rdf:RDF>
  </metadata>
  <defs
     id="defs6" />
  <sodipodi:namedview
     pagecolor="#ffffff"
     bordercolor="#666666"
     borderopacity="1"
     objecttolerance="10"
     gridtolerance="10"
     guidetolerance="10"
     inkscape:pageopacity="0"
     inkscape:pageshadow="2"
     inkscape:window-width="799"
     inkscape:window-height="480"
     id="namedview4"
     showgrid="false"
     inkscape:zoom="9.8333333"
     inkscape:cx="12"
     inkscape:cy="12"
     inkscape:window-x="0"
     inkscape:window-y="25"
     inkscape:window-maximized="0"
     inkscape:current-layer="svg2" />
  <path
     style="fill:#474747;stroke-width:1.37514949"
     inkscape:connector-curvature="0"
     id="path4"
     d="m 1.3610778,13.619152 c -0.47305131,-0.470296 -0.48130221,-1.478283 0,-1.955459 l 0.055006,-0.055 C 7.2838467,5.7684297 16.772378,5.7780558 22.627766,11.633437 l 0.0275,0.0275 c 0.481301,0.481304 0.437299,1.471412 -0.0275,1.984345 l -2.654037,2.74617 a 1.2486358,1.2486358 0 0 1 -1.771195,0 L 16.432717,14.62301 a 1.2486358,1.2486358 0 0 1 0,-1.769816 l 0.415295,-0.41392 a 11.222595,11.222595 0 0 0 -9.6810527,0 l 0.4166703,0.41392 a 1.2486358,1.2486358 0 0 1 0,1.769816 l -1.7711927,1.771192 a 1.24176,1.24176 0 0 1 -1.7698175,0 z" />
</svg>
