<?xml version="1.0" encoding="UTF-8" standalone="no"?>
<svg
   xmlns:dc="http://purl.org/dc/elements/1.1/"
   xmlns:cc="http://creativecommons.org/ns#"
   xmlns:rdf="http://www.w3.org/1999/02/22-rdf-syntax-ns#"
   xmlns:svg="http://www.w3.org/2000/svg"
   xmlns="http://www.w3.org/2000/svg"
   xmlns:sodipodi="http://sodipodi.sourceforge.net/DTD/sodipodi-0.dtd"
   xmlns:inkscape="http://www.inkscape.org/namespaces/inkscape"
   fill="#000000"
   version="1.1"
   viewBox="0 0 24 24"
   id="svg6"
   sodipodi:docname="color-select.svg"
   inkscape:version="0.92.3 (2405546, 2018-03-11)">
  <defs
     id="defs10" />
  <sodipodi:namedview
     pagecolor="#ffffff"
     bordercolor="#666666"
     borderopacity="1"
     objecttolerance="10"
     gridtolerance="10"
     guidetolerance="10"
     inkscape:pageopacity="0"
     inkscape:pageshadow="2"
     inkscape:window-width="883"
     inkscape:window-height="480"
     id="namedview8"
     showgrid="false"
     inkscape:zoom="9.8333333"
     inkscape:cx="2.0847458"
     inkscape:cy="12"
     inkscape:window-x="0"
     inkscape:window-y="25"
     inkscape:window-maximized="0"
     inkscape:current-layer="svg6" />
  <metadata
     id="metadata2">
    <rdf:RDF>
      <cc:Work
         rdf:about="">
        <dc:format>image/svg+xml</dc:format>
        <dc:type
           rdf:resource="http://purl.org/dc/dcmitype/StillImage" />
        <dc:title></dc:title>
      </cc:Work>
    </rdf:RDF>
  </metadata>
  <path
     d="m0.10705 21.712c0-1.2415 1.01-2.25 2.25-2.25 0.9825 0 1.5-0.8665 1.5-1.5 0.915 0.69 1.5 1.871 1.5 3 0 1.6575-1.3425 3-3 3-1.2415 0-2.25-1.01-2.25-2.25m23.705-19.12l-2.335-2.335c-0.39-0.39-1.025-0.39-1.415 0l-3.125 3.125-1.915-1.92-1.415 1.415 1.42 1.42-8.92 8.915v4.75h4.75l8.92-8.92 1.415 1.42 1.415-1.415-1.92-1.92 3.125-3.125c0.395-0.39 0.395-1.02 0-1.41m-13.785 13.37-1.92-1.92 8.065-8.065 1.92 1.92-8.065 8.065"
     fill="#333"
     stroke-width=".5"
     id="path4" />
</svg>
