<svg xmlns="http://www.w3.org/2000/svg" version="1" viewBox="0 0 24 24">
  <g fill="#333" color="#000">
    <path d="M9.8306.38353c-1.2872-.085634-2.5477.66903-3.297 1.686-.73058 1.3166-.13379 2.8822-.58874 4.2711-.27832.99552 0 2.0553.72255 2.7751.62086.78142 1.3835 1.801.95805 2.8501-.61551 1.1802-1.8385 1.8733-2.9518 2.5022-.29437.12044-.67438.32649-.99016.57001-.28367.08028-.50846.29438-.50846.60213v2.8019c0 .3693.29437.66903.66903.66903h7.3111a2.7216 2.7216 0 0 1 2.7216-2.7082h2.6306v-1.4183c-1.4772-.79748-3.1311-1.5762-3.958-3.1337-.28367-1.2364.58607-2.3202 1.3488-3.1792.75199-.95537.45494-2.2158.19268-3.2863-.10973-1.1828.27029-2.5851-.61016-3.5539-.95537-.96875-2.3336-1.3648-3.6475-1.4478z" style="isolation:auto;mix-blend-mode:normal"/>
    <path d="M17.451 14.825v3.0605h-3.0667v3.0421l3.0667.02147v3.0605h3.0667v-3.0605h3.0667v-3.0636h-3.0667v-3.0605z" style="isolation:auto;mix-blend-mode:normal"/>
  </g>
</svg>
