<?xml version="1.0" encoding="UTF-8" standalone="no"?>
<svg
   xmlns:dc="http://purl.org/dc/elements/1.1/"
   xmlns:cc="http://creativecommons.org/ns#"
   xmlns:rdf="http://www.w3.org/1999/02/22-rdf-syntax-ns#"
   xmlns:svg="http://www.w3.org/2000/svg"
   xmlns="http://www.w3.org/2000/svg"
   xmlns:sodipodi="http://sodipodi.sourceforge.net/DTD/sodipodi-0.dtd"
   xmlns:inkscape="http://www.inkscape.org/namespaces/inkscape"
   version="1.0"
   viewBox="0 0 24 24"
   id="svg10"
   sodipodi:docname="contact-new.svg"
   inkscape:version="0.92.3 (2405546, 2018-03-11)">
  <defs
     id="defs14" />
  <sodipodi:namedview
     pagecolor="#ffffff"
     bordercolor="#666666"
     borderopacity="1"
     objecttolerance="10"
     gridtolerance="10"
     guidetolerance="10"
     inkscape:pageopacity="0"
     inkscape:pageshadow="2"
     inkscape:window-width="640"
     inkscape:window-height="480"
     id="namedview12"
     showgrid="false"
     inkscape:zoom="9.8333333"
     inkscape:cx="12"
     inkscape:cy="12"
     inkscape:window-x="0"
     inkscape:window-y="25"
     inkscape:window-maximized="0"
     inkscape:current-layer="svg10" />
  <metadata
     id="metadata2">
    <rdf:RDF>
      <cc:Work
         rdf:about="">
        <dc:format>image/svg+xml</dc:format>
        <dc:type
           rdf:resource="http://purl.org/dc/dcmitype/StillImage" />
        <dc:title></dc:title>
      </cc:Work>
    </rdf:RDF>
  </metadata>
  <g
     fill="#333"
     id="g8">
    <path
       d="m9.8306 0.38353c-1.2872-0.085634-2.5477 0.66903-3.297 1.686-0.73058 1.3166-0.13379 2.8822-0.58874 4.2711-0.27832 0.99552 0 2.0553 0.72255 2.7751 0.62086 0.78142 1.3835 1.801 0.95805 2.8501-0.61551 1.1802-1.8385 1.8733-2.9518 2.5022-0.29437 0.12044-0.67438 0.32649-0.99016 0.57001-0.28367 0.08028-0.50846 0.29438-0.50846 0.60213v2.8019c0 0.3693 0.29437 0.66903 0.66903 0.66903h7.3111a2.7216 2.7216 0 0 1 2.7216 -2.7082h2.6306v-1.4183c-1.4772-0.79748-3.1311-1.5762-3.958-3.1337-0.28367-1.2364 0.58607-2.3202 1.3488-3.1792 0.75199-0.95537 0.45494-2.2158 0.19268-3.2863-0.10973-1.1828 0.27029-2.5851-0.61016-3.5539-0.95537-0.96875-2.3336-1.3648-3.6475-1.4478z"
       color="#000000"
       stroke-width="2.6761"
       style="isolation:auto;mix-blend-mode:normal"
       id="path4" />
    <path
       d="m17.451 14.825v3.0605h-3.0667v3.0421l3.0667 0.02147v3.0605h3.0667v-3.0605h3.0667v-3.0636h-3.0667v-3.0605z"
       color="#000000"
       stroke-width="1.5333"
       style="isolation:auto;mix-blend-mode:normal"
       id="path6" />
  </g>
</svg>
