<?xml version="1.0" encoding="UTF-8" standalone="no"?>
<svg
   xmlns:dc="http://purl.org/dc/elements/1.1/"
   xmlns:cc="http://creativecommons.org/ns#"
   xmlns:rdf="http://www.w3.org/1999/02/22-rdf-syntax-ns#"
   xmlns:svg="http://www.w3.org/2000/svg"
   xmlns="http://www.w3.org/2000/svg"
   xmlns:sodipodi="http://sodipodi.sourceforge.net/DTD/sodipodi-0.dtd"
   xmlns:inkscape="http://www.inkscape.org/namespaces/inkscape"
   version="1.0"
   viewBox="0 0 24 24"
   id="svg6"
   sodipodi:docname="document-properties.svg"
   inkscape:version="0.92.3 (2405546, 2018-03-11)">
  <defs
     id="defs10" />
  <sodipodi:namedview
     pagecolor="#ffffff"
     bordercolor="#666666"
     borderopacity="1"
     objecttolerance="10"
     gridtolerance="10"
     guidetolerance="10"
     inkscape:pageopacity="0"
     inkscape:pageshadow="2"
     inkscape:window-width="883"
     inkscape:window-height="480"
     id="namedview8"
     showgrid="false"
     inkscape:zoom="9.8333333"
     inkscape:cx="2.0847458"
     inkscape:cy="12"
     inkscape:window-x="0"
     inkscape:window-y="25"
     inkscape:window-maximized="0"
     inkscape:current-layer="svg6" />
  <metadata
     id="metadata2">
    <rdf:RDF>
      <cc:Work
         rdf:about="">
        <dc:format>image/svg+xml</dc:format>
        <dc:type
           rdf:resource="http://purl.org/dc/dcmitype/StillImage" />
        <dc:title></dc:title>
      </cc:Work>
    </rdf:RDF>
  </metadata>
  <path
     d="m11.999 1.0004c-0.34572 0-0.69144 0.01729-1.0309 0.048716l-0.63801 3.2906a7.8761 7.8761 0 0 0 -1.5227 0.49029l-2.4059-2.3053c-0.6113 0.36144-1.1424 0.80773-1.6705 1.276l1.4237 2.9952a7.9469 7.9469 0 0 0 -0.93187 1.2776l-3.2906-0.44158a10.859 10.859 0 0 0 -0.63801 2.0115l2.8962 1.5715a7.5839 7.5839 0 0 0 -0.04714 0.78573c0 0.27186 0.02043 0.52172 0.04714 0.78573l-2.8962 1.5715c0.15243 0.6993 0.35829 1.3703 0.63801 2.013l3.2906-0.44158c0.26715 0.45572 0.58301 0.88473 0.93187 1.276l-1.4237 2.9968c0.52801 0.4683 1.0592 0.91459 1.6705 1.276l2.4059-2.3085c0.48086 0.21529 0.9963 0.37715 1.5227 0.49186l0.63801 3.2906a11.186 11.186 0 0 0 2.0618 0l0.63958-3.2906c0.52487-0.11472 1.0419-0.27658 1.5212-0.49186l2.4075 2.31c0.60973-0.36143 1.1425-0.8093 1.6689-1.2776l-1.4237-2.9968c0.34886-0.39129 0.6663-0.8203 0.93344-1.276l3.2891 0.44158a10.859 10.859 0 0 0 0.63958 -2.013l-2.8978-1.5715c0.02672-0.26401 0.04872-0.51387 0.04872-0.78573 0-0.27186-0.022-0.52172-0.04872-0.78573l2.8978-1.5715a10.856 10.856 0 0 0 -0.63958 -2.013l-3.2891 0.44158a7.9469 7.9469 0 0 0 -0.93344 -1.2776l1.4237-2.9952c-0.52644-0.46829-1.0592-0.91459-1.6689-1.276l-2.409 2.3069a7.8809 7.8809 0 0 0 -1.5212 -0.49029l-0.63958-3.2906a11.186 11.186 0 0 0 -1.0293 -0.048715zm0 6.2858a4.7144 4.7144 0 1 1 0 9.4287 4.7144 4.7144 0 0 1 0 -9.4287z"
     fill="#333"
     overflow="visible"
     stroke-width="1.5715"
     id="path4" />
</svg>
