<svg xmlns="http://www.w3.org/2000/svg" viewBox="0 0 24 24">
  <path fill="#333" d="M5.2162.61c-.052039 0-.09375.04171-.09375.09375v3.8125c0 .05204.041711.09375.09375.09375h11.812c.05204 0 .09375-.04171.09375-.09375V.70375c0-.05204-.04171-.09375-.09375-.09375zm-4 5.1016c-.052039 0-.09375.04171-.09375.09375v8.7109c0 .05204.04171.09375.09375.09375h4.0137v-.56348h9.0859a2.9845 2.9694 0 0 1 2.9258-2.3877 2.9845 2.9694 0 0 1 2.9834 2.9512h.87109c.05204 0 .09375-.04171.09375-.09375v-8.7109c0-.05204-.04171-.09375-.09375-.09375zm19.009 8.8984h-3.0889v2.9824a2.9845 2.9694 0 0 0 .10547.0049 2.9845 2.9694 0 0 0 2.9844-2.9688 2.9845 2.9694 0 0 0-.000977-.01857zm-3.0889 2.9824a2.9845 2.9694 0 0 1-2.8789-2.9639 2.9845 2.9694 0 0 1 .000976-.01855h-9.0283v3.9639h11.906zM14.2584 14.61h2.8779v-.56348H14.316a2.9845 2.9694 0 0 0-.05762.56348zm3.4619-7.5762a1.3856 1.3856 0 0 1 1.3857 1.3857 1.3856 1.3856 0 0 1-1.3857 1.3857 1.3856 1.3856 0 0 1-1.3857-1.3857 1.3856 1.3856 0 0 1 1.3857-1.3857z" paint-order="markers fill stroke"/>
  <path fill="none" stroke="#333" stroke-linecap="square" stroke-miterlimit="1.5" stroke-width="1.5165" d="M18.82625359 17.27226003l.08846799-.05014251 2.9585508 5.21986371-.088468.0501425z" paint-order="markers fill stroke"/>
</svg>
