<?xml version="1.0" encoding="UTF-8" standalone="no"?>
<svg
   xmlns:dc="http://purl.org/dc/elements/1.1/"
   xmlns:cc="http://creativecommons.org/ns#"
   xmlns:rdf="http://www.w3.org/1999/02/22-rdf-syntax-ns#"
   xmlns:svg="http://www.w3.org/2000/svg"
   xmlns="http://www.w3.org/2000/svg"
   xmlns:sodipodi="http://sodipodi.sourceforge.net/DTD/sodipodi-0.dtd"
   xmlns:inkscape="http://www.inkscape.org/namespaces/inkscape"
   version="1.0"
   viewBox="0 0 24 24"
   id="svg6"
   sodipodi:docname="document-open.svg"
   inkscape:version="0.92.3 (2405546, 2018-03-11)">
  <defs
     id="defs10" />
  <sodipodi:namedview
     pagecolor="#ffffff"
     bordercolor="#666666"
     borderopacity="1"
     objecttolerance="10"
     gridtolerance="10"
     guidetolerance="10"
     inkscape:pageopacity="0"
     inkscape:pageshadow="2"
     inkscape:window-width="883"
     inkscape:window-height="480"
     id="namedview8"
     showgrid="false"
     inkscape:zoom="9.8333333"
     inkscape:cx="2.0847458"
     inkscape:cy="12"
     inkscape:window-x="0"
     inkscape:window-y="25"
     inkscape:window-maximized="0"
     inkscape:current-layer="svg6" />
  <metadata
     id="metadata2">
    <rdf:RDF>
      <cc:Work
         rdf:about="">
        <dc:format>image/svg+xml</dc:format>
        <dc:type
           rdf:resource="http://purl.org/dc/dcmitype/StillImage" />
        <dc:title></dc:title>
      </cc:Work>
    </rdf:RDF>
  </metadata>
  <path
     d="m6.8906 2.1172v0.5c-4.56e-4 0.00928-0.0058594 0.015849-0.0058594 0.025391v0.35156 2.5996h0.0058594v2.4238h-5.7637v2.5898c0 0.0434 0.010552 0.08459 0.013672 0.12695v8.168h-0.013672v2.6152c0 0.92777 0.74606 1.6738 1.6738 1.6738h5.2578 11.42 1.9863c0.92777 0 1.6719-0.74606 1.6719-1.6738v-2.2402h0.003906v-11.268h-2.6562v-0.95312c-5.8e-5 -0.39014-0.11948-0.76323-0.33203-1.0391l-3.0039-3.9004h-9.1582-0.22656-0.87305zm8.0566 1.291h1.0527l3.0488 3.9609v0.29688h0.003906v3.5977h-0.83398-9.0684v-0.007813h-0.83398v-7.1641-0.67383h6.6387l-0.007812-0.0097657zm-11.408 6.3125h3.3457v1.543h-2.8086-0.058594c-0.02612 0-0.049009 0.013025-0.074219 0.015625-0.29642 0.04003-0.52734 0.29573-0.52734 0.62109 0 0.0343 0.014851 0.064906 0.019531 0.097656-0.0047 0.04081-0.019531 0.07678-0.019531 0.11914v2.8945c0 0.47303 0.29375 0.85352 0.66016 0.85352 0.36641 0 0.66406-0.38048 0.66406-0.85352v-2.4727h2.7598v0.001954h1.0039v-0.001954h10.822 2.1562v8.0703c0 0.4487-0.35988 0.81055-0.80859 0.81055h-1.2207-11.391-4.5234c-0.44871 0-0.80859-0.36184-0.80859-0.81055v-10.078c0-0.44871 0.35988-0.81055 0.80859-0.81055zm16.945 0h0.18945c0.44871 0 0.80859 0.36184 0.80859 0.81055v0.73242h-0.99805v-1.543z"
     fill="#333"
     id="path4" />
</svg>
