<svg xmlns="http://www.w3.org/2000/svg" version="1" viewBox="0 0 24 24">
  <path fill="#333" d="M11.999 1.0004c-.34572 0-.69144.01729-1.0309.048716l-.63801 3.2906a7.8761 7.8761 0 0 0-1.5227.49029l-2.4059-2.3053c-.6113.36144-1.1424.80773-1.6705 1.276l1.4237 2.9952a7.9469 7.9469 0 0 0-.93187 1.2776l-3.2906-.44158a10.859 10.859 0 0 0-.63801 2.0115l2.8962 1.5715a7.5839 7.5839 0 0 0-.04714.78573c0 .27186.02043.52172.04714.78573l-2.8962 1.5715c.15243.6993.35829 1.3703.63801 2.013l3.2906-.44158c.26715.45572.58301.88473.93187 1.276l-1.4237 2.9968c.52801.4683 1.0592.91459 1.6705 1.276l2.4059-2.3085c.48086.21529.9963.37715 1.5227.49186l.63801 3.2906a11.186 11.186 0 0 0 2.0618 0l.63958-3.2906c.52487-.11472 1.0419-.27658 1.5212-.49186l2.4075 2.31c.60973-.36143 1.1425-.8093 1.6689-1.2776l-1.4237-2.9968c.34886-.39129.6663-.8203.93344-1.276l3.2891.44158a10.859 10.859 0 0 0 .63958-2.013l-2.8978-1.5715c.02672-.26401.04872-.51387.04872-.78573s-.022-.52172-.04872-.78573l2.8978-1.5715a10.856 10.856 0 0 0-.63958-2.013l-3.2891.44158a7.9469 7.9469 0 0 0-.93344-1.2776l1.4237-2.9952c-.52644-.46829-1.0592-.91459-1.6689-1.276l-2.409 2.3069a7.8809 7.8809 0 0 0-1.5212-.49029l-.63958-3.2906a11.186 11.186 0 0 0-1.0293-.048715zm0 6.2858a4.7144 4.7144 0 1 1 0 9.4287 4.7144 4.7144 0 0 1 0-9.4287z" overflow="visible"/>
</svg>
