<svg xmlns="http://www.w3.org/2000/svg" version="1" viewBox="0 0 24 24">
  <path fill="#333" d="M6.8906 2.1172v.5c-.000456.00928-.0058594.015849-.0058594.025391V5.593751H6.8906v2.4238H1.1269v2.5898c0 .0434.010552.08459.013672.12695v8.168H1.1269v2.6152c0 .92777.74606 1.6738 1.6738 1.6738H21.4648c.92777 0 1.6719-.74606 1.6719-1.6738v-2.2402h.003906v-11.268h-2.6562v-.95312c-.000058-.39014-.11948-.76323-.33203-1.0391l-3.0039-3.9004H6.890666zm8.0566 1.291h1.0527l3.0488 3.9609v.29688h.003906v3.5977h-9.90238v-.007813h-.83398v-7.83793h6.6387l-.007812-.0097657zM3.5392 9.7207h3.3457v1.543H4.017706c-.02612 0-.049009.013025-.074219.015625-.29642.04003-.52734.29573-.52734.62109 0 .0343.014851.064906.019531.097656-.0047.04081-.019531.07678-.019531.11914v2.8945c0 .47303.29375.85352.66016.85352.36641 0 .66406-.38048.66406-.85352v-2.4727h2.7598v.001954h1.0039v-.001954h12.9782v8.0703c0 .4487-.35988.81055-.80859.81055H3.538577c-.44871 0-.80859-.36184-.80859-.81055v-10.078c0-.44871.35988-.81055.80859-.81055zm16.945 0h.18945c.44871 0 .80859.36184.80859.81055v.73242h-.99805v-1.543z"/>
</svg>
