<?xml version="1.0" encoding="UTF-8" standalone="no"?>
<svg
   xmlns:dc="http://purl.org/dc/elements/1.1/"
   xmlns:cc="http://creativecommons.org/ns#"
   xmlns:rdf="http://www.w3.org/1999/02/22-rdf-syntax-ns#"
   xmlns:svg="http://www.w3.org/2000/svg"
   xmlns="http://www.w3.org/2000/svg"
   xmlns:sodipodi="http://sodipodi.sourceforge.net/DTD/sodipodi-0.dtd"
   xmlns:inkscape="http://www.inkscape.org/namespaces/inkscape"
   fill="#000000"
   version="1.1"
   viewBox="0 0 24 24"
   id="svg10"
   sodipodi:docname="document-print-preview.svg"
   inkscape:version="0.92.3 (2405546, 2018-03-11)">
  <defs
     id="defs14" />
  <sodipodi:namedview
     pagecolor="#ffffff"
     bordercolor="#666666"
     borderopacity="1"
     objecttolerance="10"
     gridtolerance="10"
     guidetolerance="10"
     inkscape:pageopacity="0"
     inkscape:pageshadow="2"
     inkscape:window-width="883"
     inkscape:window-height="480"
     id="namedview12"
     showgrid="false"
     inkscape:zoom="9.8333333"
     inkscape:cx="2.0847458"
     inkscape:cy="12"
     inkscape:window-x="0"
     inkscape:window-y="25"
     inkscape:window-maximized="0"
     inkscape:current-layer="svg10" />
  <metadata
     id="metadata2">
    <rdf:RDF>
      <cc:Work
         rdf:about="">
        <dc:format>image/svg+xml</dc:format>
        <dc:type
           rdf:resource="http://purl.org/dc/dcmitype/StillImage" />
        <dc:title></dc:title>
      </cc:Work>
    </rdf:RDF>
  </metadata>
  <g
     transform="translate(0,-24)"
     id="g8">
    <path
       d="m5.2162 24.61c-0.052039 0-0.09375 0.04171-0.09375 0.09375v3.8125c0 0.05204 0.041711 0.09375 0.09375 0.09375h11.812c0.05204 0 0.09375-0.04171 0.09375-0.09375v-3.8125c0-0.05204-0.04171-0.09375-0.09375-0.09375zm-4 5.1016c-0.052039 0-0.09375 0.04171-0.09375 0.09375v8.7109c0 0.05204 0.04171 0.09375 0.09375 0.09375h4.0137v-0.56348h9.0859a2.9845 2.9694 0 0 1 2.9258 -2.3877 2.9845 2.9694 0 0 1 2.9834 2.9512h0.87109c0.05204 0 0.09375-0.04171 0.09375-0.09375v-8.7109c0-0.05204-0.04171-0.09375-0.09375-0.09375zm19.009 8.8984h-3.0889v2.9824a2.9845 2.9694 0 0 0 0.10547 0.0049 2.9845 2.9694 0 0 0 2.9844 -2.9688 2.9845 2.9694 0 0 0 -9.77e-4 -0.01857zm-3.0889 2.9824a2.9845 2.9694 0 0 1 -2.8789 -2.9639 2.9845 2.9694 0 0 1 9.76e-4 -0.01855h-9.0283v3.9639h11.906zm-2.8779-2.9824h2.8779v-0.56348h-2.8203a2.9845 2.9694 0 0 0 -0.05762 0.56348zm3.4619-7.5762a1.3856 1.3856 0 0 1 1.3857 1.3857 1.3856 1.3856 0 0 1 -1.3857 1.3857 1.3856 1.3856 0 0 1 -1.3857 -1.3857 1.3856 1.3856 0 0 1 1.3857 -1.3857z"
       fill="#333"
       style="paint-order:markers fill stroke"
       id="path4" />
    <rect
       transform="rotate(-29.544)"
       x="-3.9726"
       y="45.189"
       width=".10169"
       height="6"
       fill="none"
       stroke="#333"
       stroke-linecap="square"
       stroke-miterlimit="1.5"
       stroke-width="1.5165"
       style="paint-order:markers fill stroke"
       id="rect6" />
  </g>
</svg>
