<?xml version="1.0" encoding="UTF-8" standalone="no"?>
<svg
   xmlns:dc="http://purl.org/dc/elements/1.1/"
   xmlns:cc="http://creativecommons.org/ns#"
   xmlns:rdf="http://www.w3.org/1999/02/22-rdf-syntax-ns#"
   xmlns:svg="http://www.w3.org/2000/svg"
   xmlns="http://www.w3.org/2000/svg"
   xmlns:sodipodi="http://sodipodi.sourceforge.net/DTD/sodipodi-0.dtd"
   xmlns:inkscape="http://www.inkscape.org/namespaces/inkscape"
   version="1.0"
   viewBox="0 0 24 24"
   id="svg6"
   sodipodi:docname="document-save-as.svg"
   inkscape:version="0.92.3 (2405546, 2018-03-11)">
  <defs
     id="defs10" />
  <sodipodi:namedview
     pagecolor="#ffffff"
     bordercolor="#666666"
     borderopacity="1"
     objecttolerance="10"
     gridtolerance="10"
     guidetolerance="10"
     inkscape:pageopacity="0"
     inkscape:pageshadow="2"
     inkscape:window-width="883"
     inkscape:window-height="480"
     id="namedview8"
     showgrid="false"
     inkscape:zoom="9.8333333"
     inkscape:cx="2.0847458"
     inkscape:cy="12"
     inkscape:window-x="0"
     inkscape:window-y="25"
     inkscape:window-maximized="0"
     inkscape:current-layer="svg6" />
  <metadata
     id="metadata2">
    <rdf:RDF>
      <cc:Work
         rdf:about="">
        <dc:format>image/svg+xml</dc:format>
        <dc:type
           rdf:resource="http://purl.org/dc/dcmitype/StillImage" />
        <dc:title></dc:title>
      </cc:Work>
    </rdf:RDF>
  </metadata>
  <path
     d="m4.5 0.5c-0.83333 0-1.9007 0.64164-2 1.4316l-1.9766 15.738c-0.01495 0-0.023438 0.003895-0.023438 0.015625h23c0-0.01176-0.008497-0.015625-0.023438-0.015625l-1.9766-15.738c-0.09926-0.79-1.1667-1.4316-2-1.4316h-15zm4 2.0938h7v6h3.1113l-6.6113 7-6.6113-7h3.1113v-6zm15 15.906l-23 0.001953c0.46439 4.0444 0.23325 3.9805 1.1504 3.9805 7.317 0 20.324 0.04823 20.654 0 0.84452-4.7e-5 0.72892-0.60242 1.1953-3.9824zm-17.5 0.41016a1.7111 1.5778 0 0 1 1.7109 1.5781 1.7111 1.5778 0 0 1 -1.7109 1.5781 1.7111 1.5778 0 0 1 -1.7109 -1.5781 1.7111 1.5778 0 0 1 1.7109 -1.5781zm6 0a1.7111 1.5778 0 0 1 1.7109 1.5781 1.7111 1.5778 0 0 1 -1.7109 1.5781 1.7111 1.5778 0 0 1 -1.7109 -1.5781 1.7111 1.5778 0 0 1 1.7109 -1.5781zm6 0a1.7111 1.5778 0 0 1 1.7109 1.5781 1.7111 1.5778 0 0 1 -1.7109 1.5781 1.7111 1.5778 0 0 1 -1.7109 -1.5781 1.7111 1.5778 0 0 1 1.7109 -1.5781z"
     fill="#333"
     id="path4" />
</svg>
