<svg xmlns="http://www.w3.org/2000/svg" version="1" viewBox="0 0 24 24"><path fill="#333" d="M6.89 2.117v.5c0 .01-.005.016-.005.026v2.95h.006v2.425H1.127v2.59c0 .043.01.084.014.126v8.168h-.014v2.616A1.67 1.67 0 0 0 2.8 23.19h18.664c.928 0 1.672-.746 1.672-1.673v-2.24h.004V8.008h-2.657v-.953c0-.39-.12-.763-.332-1.039l-3.004-3.9H6.891zm8.057 1.291H16l3.049 3.961v.297h.004v3.598H9.15v-.008h-.834V3.418h6.639l-.008-.01zM3.54 9.721h3.346v1.543H4.018c-.026 0-.05.013-.075.015a.616.616 0 0 0-.527.621c0 .035.015.065.02.098-.005.04-.02.077-.02.12v2.894c0 .473.294.853.66.853.367 0 .664-.38.664-.853v-2.473H7.5v.002h1.004v-.002h12.978v8.07c0 .449-.36.81-.808.81H3.539a.808.808 0 0 1-.809-.81V10.531c0-.448.36-.81.809-.81zm16.945 0h.19c.448 0 .808.362.808.81v.733h-.998V9.72z"/></svg>