<?xml version="1.0" encoding="UTF-8" standalone="no"?>
<svg
   xmlns:dc="http://purl.org/dc/elements/1.1/"
   xmlns:cc="http://creativecommons.org/ns#"
   xmlns:rdf="http://www.w3.org/1999/02/22-rdf-syntax-ns#"
   xmlns:svg="http://www.w3.org/2000/svg"
   xmlns="http://www.w3.org/2000/svg"
   xmlns:sodipodi="http://sodipodi.sourceforge.net/DTD/sodipodi-0.dtd"
   xmlns:inkscape="http://www.inkscape.org/namespaces/inkscape"
   width="24"
   height="24"
   version="1.1"
   viewBox="0 0 6.35 6.35"
   id="svg8"
   sodipodi:docname="document-open-recent.svg"
   inkscape:version="0.92.3 (2405546, 2018-03-11)">
  <defs
     id="defs12" />
  <sodipodi:namedview
     pagecolor="#ffffff"
     bordercolor="#666666"
     borderopacity="1"
     objecttolerance="10"
     gridtolerance="10"
     guidetolerance="10"
     inkscape:pageopacity="0"
     inkscape:pageshadow="2"
     inkscape:window-width="640"
     inkscape:window-height="480"
     id="namedview10"
     showgrid="false"
     inkscape:zoom="9.8333333"
     inkscape:cx="12"
     inkscape:cy="12"
     inkscape:window-x="0"
     inkscape:window-y="25"
     inkscape:window-maximized="0"
     inkscape:current-layer="svg8" />
  <metadata
     id="metadata2">
    <rdf:RDF>
      <cc:Work
         rdf:about="">
        <dc:format>image/svg+xml</dc:format>
        <dc:type
           rdf:resource="http://purl.org/dc/dcmitype/StillImage" />
        <dc:title></dc:title>
      </cc:Work>
    </rdf:RDF>
  </metadata>
  <g
     transform="translate(0,-290.65)"
     id="g6">
    <path
       d="m3.1751 290.71a3.1143 3.1143 0 0 0 -3.1144 3.1145 3.1143 3.1143 0 0 0 3.1144 3.1142 3.1143 3.1143 0 0 0 3.1142 -3.1142 3.1143 3.1143 0 0 0 -3.1142 -3.1145zm-0.00896 0.4637a2.6774 2.6774 0 0 1 2.6774 2.6774 2.6774 2.6774 0 0 1 -2.6774 2.6774 2.6774 2.6774 0 0 1 -2.6776 -2.6774 2.6774 2.6774 0 0 1 2.6776 -2.6774zm1.3501 1.1781 5.099e-4 6e-3a0.22062 0.22062 0 0 0 -0.032244 5e-4v2.8e-4a0.22062 0.22062 0 0 0 -0.11003 0.0688l-1.1732 1.1709-0.73082-0.72749a0.22062 0.22062 0 1 0 -0.304 0.30323l0.88333 0.88334a0.22062 0.22062 0 0 0 0.30348 0l1.3245-1.3245a0.22062 0.22062 0 0 0 -0.16147 -0.37964z"
       fill="#333"
       stroke-width=".068805"
       id="path4" />
  </g>
</svg>
