<svg xmlns="http://www.w3.org/2000/svg" width="24" height="24" viewBox="0 0 6.35 6.35">
  <path fill="#333" d="M3.1751.06A3.1143 3.1143 0 0 0 .0607 3.1745a3.1143 3.1143 0 0 0 3.1144 3.1142 3.1143 3.1143 0 0 0 3.1142-3.1142A3.1143 3.1143 0 0 0 3.1751.06zm-.00896.4637a2.6774 2.6774 0 0 1 2.6774 2.6774 2.6774 2.6774 0 0 1-2.6774 2.6774 2.6774 2.6774 0 0 1-2.6776-2.6774A2.6774 2.6774 0 0 1 3.16614.5237zm1.3501 1.1781l.0005099.006a.22062.22062 0 0 0-.032244.0005v.00028a.22062.22062 0 0 0-.11003.0688l-1.1732 1.1709-.73082-.72749a.22062.22062 0 1 0-.304.30323l.88333.88334a.22062.22062 0 0 0 .30348 0l1.3245-1.3245a.22062.22062 0 0 0-.16147-.37964z"/>
</svg>
