<svg xmlns="http://www.w3.org/2000/svg" version="1" viewBox="0 0 24 24">
  <path fill="#333" d="M4.5.5c-.83333 0-1.9007.64164-2 1.4316L.5234 17.6696c-.01495 0-.023438.003895-.023438.015625h23c0-.01176-.008497-.015625-.023438-.015625l-1.9766-15.738c-.09926-.79-1.1667-1.4316-2-1.4316h-15zm4 2.0938h7v6h3.1113l-6.6113 7-6.6113-7H8.5v-6zm15 15.906l-23 .001953c.46439 4.0444.23325 3.9805 1.1504 3.9805 7.317 0 20.324.04823 20.654 0 .84452-.000047.72892-.60242 1.1953-3.9824zM6 18.90996a1.7111 1.5778 0 0 1 1.7109 1.5781A1.7111 1.5778 0 0 1 6 22.06616a1.7111 1.5778 0 0 1-1.7109-1.5781A1.7111 1.5778 0 0 1 6 18.90996zm6 0a1.7111 1.5778 0 0 1 1.7109 1.5781A1.7111 1.5778 0 0 1 12 22.06616a1.7111 1.5778 0 0 1-1.7109-1.5781A1.7111 1.5778 0 0 1 12 18.90996zm6 0a1.7111 1.5778 0 0 1 1.7109 1.5781A1.7111 1.5778 0 0 1 18 22.06616a1.7111 1.5778 0 0 1-1.7109-1.5781A1.7111 1.5778 0 0 1 18 18.90996z"/>
</svg>
