<svg xmlns="http://www.w3.org/2000/svg" version="1" viewBox="0 0 24 24">
  <path fill="#333" d="M11.97569141.55979C5.63575904.55979.47761 5.71758805.47761 12.05787141s5.15779805 11.49808141 11.49808141 11.49808141 11.49808141-5.15779805 11.49808141-11.49808141S18.31562378.55979 11.97569141.55979zM2.58355 12.05787141c0-5.17885745 4.21328396-9.39214141 9.39214141-9.39214141 2.33338152 0 4.46950666.85746857 6.11389481 2.27160728L4.85515728 18.17176622C3.44101857 16.52737807 2.58355 14.39125293 2.58355 12.05787141zm9.39214141 9.39214141c-2.08768852 0-4.01778253-.68548347-5.57898605-1.84199552L19.52548631 6.47923635c1.15651205 1.56120352 1.84199552 3.49129753 1.84199552 5.57898605.00035099 5.17850646-4.21293297 9.39179042-9.39179042 9.39179042z"/>
</svg>
