<svg xmlns="http://www.w3.org/2000/svg" width="24" height="24" viewBox="0 0 6.35 6.35">
  <path fill="#333" d="M3.175.04A3.1335 3.1335 0 0 0 .0413 3.1737 3.1335 3.1335 0 0 0 3.175 6.3063a3.1335 3.1335 0 0 0 3.1337-3.1326A3.1335 3.1335 0 0 0 3.175.04zm-.00879.4656A2.694 2.694 0 0 1 5.86011 3.2a2.694 2.694 0 0 1-2.6939 2.6944A2.694 2.694 0 0 1 .47181 3.2 2.694 2.694 0 0 1 3.16621.5056zm-.53537.57723c-.85798 0-1.5601.70115-1.5601 1.5586 0 .85743.70213 1.558 1.5601 1.558.32728 0 .63113-.1022.88263-.27595l1.0444 1.0434a.28338.28338 0 1 0 .40049-.40101l-1.0444-1.0428c.17366-.2512.27647-.55478.27647-.8816 0-.85741-.70162-1.5586-1.5596-1.5586zm0 .56689a.98775.98775 0 0 1 .9927.99167c0 .55084-.44074.99167-.9927.99167a.98832.98832 0 0 1-.99374-.99167c0-.55083.44178-.99167.99374-.99167z"/>
</svg>
