<?xml version="1.0" encoding="UTF-8" standalone="no"?>
<svg
   xmlns:dc="http://purl.org/dc/elements/1.1/"
   xmlns:cc="http://creativecommons.org/ns#"
   xmlns:rdf="http://www.w3.org/1999/02/22-rdf-syntax-ns#"
   xmlns:svg="http://www.w3.org/2000/svg"
   xmlns="http://www.w3.org/2000/svg"
   xmlns:sodipodi="http://sodipodi.sourceforge.net/DTD/sodipodi-0.dtd"
   xmlns:inkscape="http://www.inkscape.org/namespaces/inkscape"
   viewBox="0 0 24 24"
   version="1.1"
   id="svg4"
   sodipodi:docname="edit-clear-rtl.svg"
   inkscape:version="0.92.3 (2405546, 2018-03-11)"
   width="24"
   height="24"
   style="fill:#000000">
  <metadata
     id="metadata10">
    <rdf:RDF>
      <cc:Work
         rdf:about="">
        <dc:format>image/svg+xml</dc:format>
        <dc:type
           rdf:resource="http://purl.org/dc/dcmitype/StillImage" />
        <dc:title></dc:title>
      </cc:Work>
    </rdf:RDF>
  </metadata>
  <defs
     id="defs8" />
  <sodipodi:namedview
     pagecolor="#ffffff"
     bordercolor="#666666"
     borderopacity="1"
     objecttolerance="10"
     gridtolerance="10"
     guidetolerance="10"
     inkscape:pageopacity="0"
     inkscape:pageshadow="2"
     inkscape:window-width="1366"
     inkscape:window-height="717"
     id="namedview6"
     showgrid="false"
     inkscape:zoom="20.625"
     inkscape:cx="20.751515"
     inkscape:cy="12"
     inkscape:window-x="0"
     inkscape:window-y="25"
     inkscape:window-maximized="1"
     inkscape:current-layer="svg4"
     showguides="true"
     inkscape:guide-bbox="true" />
  <path
     d="M 3.1917822,4.0920383 H 16.412121 c 0.608136,0 1.088475,0.308475 1.405763,0.7755935 l 4.763729,7.1522032 -4.763729,7.152203 c -0.317288,0.467119 -0.797627,0.784407 -1.405763,0.784407 H 3.1917822 c -0.973898,0 -1.762712,-0.788813 -1.762712,-1.762712 V 5.8547503 c 0,-0.973898 0.788814,-1.762712 1.762712,-1.762712 m 2.644068,11.0918647 1.247119,1.247119 3.1596608,-3.159661 3.159661,3.159661 1.247118,-1.247119 -3.159661,-3.159661 3.159661,-3.1596612 -1.247118,-1.2471185 -3.159661,3.1596607 -3.1596608,-3.1596607 -1.247119,1.2471185 3.159661,3.1596612 -3.159661,3.159661"
     id="path2"
     style="fill:#333333;stroke-width:0.44067797"
     inkscape:connector-curvature="0" />
</svg>
