<svg xmlns="http://www.w3.org/2000/svg" viewBox="0 0 24 24">
  <path fill="#333" d="M11.572 2.1973c-1.0609.069047-2.1089.46487-2.9844 1.2031-.99599.83986-1.5915 1.9759-1.7734 3.1699l-2.498-.21289 2.8574 3.3906 3.3887-2.8594-2.5098-.21289c.15161-.87846.59196-1.7132 1.3281-2.334 1.3349-1.1256 3.1975-1.2095 4.6074-.33984l.64258-1.0449c-.9241-.57058-1.9977-.82881-3.0586-.75977zm6.0645.73438c-.25625 0-.51203.096016-.70703.29102l-1.8301 1.8301 3.75 3.75 1.8301-1.8301c.39-.39.39-1.0241 0-1.4141l-2.3359-2.3359c-.195-.195-.45078-.29102-.70703-.29102zm-3.5977 3.1816l-11.064 11.064v3.75h3.75l11.064-11.064-3.75-3.75z"/>
</svg>
