<svg xmlns="http://www.w3.org/2000/svg" viewBox="0 0 24 24">
  <path fill="#333" d="M12 8.3636c-2.0091 0-3.6364 1.6273-3.6364 3.6364S9.9909 15.6364 12 15.6364 15.6364 14.0091 15.6364 12 14.0091 8.3636 12 8.3636zm8.1273 2.7273c-.41818-3.7909-3.4273-6.8-7.2182-7.2182V2h-1.8182v1.8727C7.3 4.29088 4.2909 7.3 3.8727 11.0909H2v1.8182h1.8727c.41818 3.7909 3.4273 6.8 7.2182 7.2182V22h1.8182v-1.8727c3.7909-.41818 6.8-3.4273 7.2182-7.2182H22v-1.8182zM12 18.3636c-3.5136 0-6.3636-2.85-6.3636-6.3636S8.4864 5.6364 12 5.6364s6.3636 2.85 6.3636 6.3636-2.85 6.3636-6.3636 6.3636z"/>
</svg>
