<svg xmlns="http://www.w3.org/2000/svg" version="1" viewBox="0 0 24 24">
  <path fill="#333" d="M1.9219.5918c-.75918 0-1.3711.60993-1.3711 1.3691v2.2852c0 .03552.0092988.06885.011719.10352v6.6836H.548847v2.1387c0 .75918.60995 1.3711 1.3691 1.3711h3.6191v5.3945h-.013672v2.14063c0 .46506.26668.81284.61914 1.0605l9.5332-9.5332H8.160115v2.0234c0 .38686-.25447.69922-.57227.69922-.3178 0-.57422-.31223-.57422-.69922v-2.3672c0-.03403.011587-.0658.015625-.09961-.00427-.02807-.015625-.050475-.015625-.078125 0-.26593.20188-.47519.45898-.50781.021861-.0021.039831-.025391.0625-.025391h15.978734l.023437.001953v-1.5371h-4.9746v-8.8945h-9.916l-1.5312-1.5293h-5.1934zm.60352 2.9277h14.02c.36718 0 .66211.29689.66211.66406v.59961H2.916702c-.02139 0-.039917.0095298-.060547.011719-.24256.03275-.43164.24157-.43164.50781 0 .02807.011795.053288.015625.080078-.004.03339-.015625.062986-.015625.097656v2.3691c0 .38708.24119.69727.54102.69727.29983 0 .54102-.31019.54102-.69727v-2.0234h13.701v5.1895h-3.5859l-1.5293-1.5273-5.1953.0078126c-.75919 0-1.3711.60994-1.3711 1.3691v2.2285h-3c-.36718 0-.66406-.29689-.66406-.66406v-8.248c0-.36717.29688-.66211.66406-.66211zm21.014 10.082l-.019531.001954h-4.6523l-9.8438 9.8418h4.7207l9.7949-9.7949v-.048829zm0 3.1758l-6.6699 6.6699h5.2969c.75919 0 1.3691-.61204 1.3691-1.3711v-1.832h.003906v-3.4668z"/>
</svg>
