<?xml version="1.0" encoding="UTF-8" standalone="no"?>
<!-- Created with Inkscape (http://www.inkscape.org/) -->

<svg
   xmlns:dc="http://purl.org/dc/elements/1.1/"
   xmlns:cc="http://creativecommons.org/ns#"
   xmlns:rdf="http://www.w3.org/1999/02/22-rdf-syntax-ns#"
   xmlns:svg="http://www.w3.org/2000/svg"
   xmlns="http://www.w3.org/2000/svg"
   xmlns:xlink="http://www.w3.org/1999/xlink"
   xmlns:sodipodi="http://sodipodi.sourceforge.net/DTD/sodipodi-0.dtd"
   xmlns:inkscape="http://www.inkscape.org/namespaces/inkscape"
   id="svg3299"
   width="24"
   height="24"
   version="1.0"
   sodipodi:docname="folder-move.svg"
   inkscape:version="0.92.3 (2405546, 2018-03-11)">
  <metadata
     id="metadata58">
    <rdf:RDF>
      <cc:Work
         rdf:about="">
        <dc:format>image/svg+xml</dc:format>
        <dc:type
           rdf:resource="http://purl.org/dc/dcmitype/StillImage" />
        <dc:title></dc:title>
      </cc:Work>
    </rdf:RDF>
  </metadata>
  <sodipodi:namedview
     pagecolor="#ffffff"
     bordercolor="#666666"
     borderopacity="1"
     objecttolerance="10"
     gridtolerance="10"
     guidetolerance="10"
     inkscape:pageopacity="0"
     inkscape:pageshadow="2"
     inkscape:window-width="1366"
     inkscape:window-height="717"
     id="namedview56"
     showgrid="false"
     inkscape:zoom="5.4895833"
     inkscape:cx="-41.63946"
     inkscape:cy="10.756112"
     inkscape:window-x="0"
     inkscape:window-y="25"
     inkscape:window-maximized="1"
     inkscape:current-layer="svg3299" />
  <defs
     id="defs3301">
    <linearGradient
       id="linearGradient2558-342"
       x1="18.031"
       x2="20.055"
       y1="16.408"
       y2="24.628"
       gradientUnits="userSpaceOnUse">
      <stop
         id="stop2662"
         style="stop-color:#fff"
         offset="0" />
      <stop
         id="stop2664"
         style="stop-color:#fff;stop-opacity:0"
         offset="1" />
    </linearGradient>
    <linearGradient
       id="linearGradient2556-839"
       x1="10.318"
       x2="4.176"
       y1="14.993"
       y2="4.0514"
       gradientTransform="matrix(1.0083 0 0 1.0006 -10.5 -26.478)"
       gradientUnits="userSpaceOnUse">
      <stop
         id="stop2656"
         style="stop-color:#5e5e5e"
         offset="0" />
      <stop
         id="stop2658"
         style="stop-color:#909090"
         offset="1" />
    </linearGradient>
    <linearGradient
       id="linearGradient2554-641"
       x1="126.7"
       x2="169.23"
       y1="58.583"
       y2="238.4"
       gradientTransform="matrix(.054893 .013851 .0025726 .052482 -11.212 -26.738)"
       gradientUnits="userSpaceOnUse">
      <stop
         id="stop2650"
         style="stop-color:#bababa"
         offset="0" />
      <stop
         id="stop2652"
         style="stop-color:#838383"
         offset="1" />
    </linearGradient>
    <radialGradient
       id="radialGradient2552-332"
       cx="605.71"
       cy="486.65"
       r="117.14"
       gradientTransform="matrix(-2.7744 0 0 1.9697 112.76 -872.89)"
       gradientUnits="userSpaceOnUse">
      <stop
         id="stop2644"
         offset="0" />
      <stop
         id="stop2646"
         style="stop-opacity:0"
         offset="1" />
    </radialGradient>
    <radialGradient
       id="radialGradient2550-690"
       cx="605.71"
       cy="486.65"
       r="117.14"
       gradientTransform="matrix(2.7744 0 0 1.9697 -1891.6 -872.89)"
       gradientUnits="userSpaceOnUse">
      <stop
         id="stop2638"
         offset="0" />
      <stop
         id="stop2640"
         style="stop-opacity:0"
         offset="1" />
    </radialGradient>
    <linearGradient
       id="linearGradient2548-464"
       x1="302.86"
       x2="302.86"
       y1="366.65"
       y2="609.51"
       gradientTransform="matrix(2.7744 0 0 1.9697 -1892.2 -872.89)"
       gradientUnits="userSpaceOnUse">
      <stop
         id="stop2630"
         style="stop-opacity:0"
         offset="0" />
      <stop
         id="stop2632"
         offset=".5" />
      <stop
         id="stop2634"
         style="stop-opacity:0"
         offset="1" />
    </linearGradient>
    <radialGradient
       id="radialGradient2574"
       cx="605.71"
       cy="486.65"
       r="117.14"
       gradientTransform="matrix(-2.7744 0 0 1.9697 112.76 -872.89)"
       gradientUnits="userSpaceOnUse"
       xlink:href="#linearGradient5060" />
    <linearGradient
       id="linearGradient5060">
      <stop
         id="stop5062"
         offset="0" />
      <stop
         id="stop5064"
         style="stop-opacity:0"
         offset="1" />
    </linearGradient>
    <radialGradient
       id="radialGradient2572"
       cx="605.71"
       cy="486.65"
       r="117.14"
       gradientTransform="matrix(2.7744 0 0 1.9697 -1891.6 -872.89)"
       gradientUnits="userSpaceOnUse"
       xlink:href="#linearGradient5060" />
    <linearGradient
       id="linearGradient2526"
       x1="10.318"
       x2="4.176"
       y1="14.993"
       y2="4.0514"
       gradientTransform="matrix(1.0083 0 0 1.0006 -.001856 -.00662)"
       gradientUnits="userSpaceOnUse">
      <stop
         id="stop2605"
         style="stop-color:#bb2b12"
         offset="0" />
      <stop
         id="stop2607"
         style="stop-color:#cd7233"
         offset="1" />
    </linearGradient>
    <linearGradient
       id="linearGradient2524"
       x1="126.7"
       x2="169.23"
       y1="58.583"
       y2="238.4"
       gradientTransform="matrix(.054893 .013851 .0025726 .052482 -.71383 -.26741)"
       gradientUnits="userSpaceOnUse">
      <stop
         id="stop2612"
         style="stop-color:#f0c178"
         offset="0" />
      <stop
         id="stop2614"
         style="stop-color:#e18941"
         offset=".5" />
      <stop
         id="stop2616"
         style="stop-color:#ec4f18"
         offset="1" />
    </linearGradient>
  </defs>
  <g
     id="g849">
    <path
       sodipodi:nodetypes="ssscccsscccccccccssssccscscsssscccccssss"
       inkscape:connector-curvature="0"
       id="path890"
       d="m 1.921875,0.59179688 c -0.759179,0 -1.371094,0.60993362 -1.371094,1.36914062 v 2.2851563 c 0,0.03552 0.009299,0.06885 0.011719,0.1035156 V 11.033203 H 0.548828 v 2.138672 c 0,0.759184 0.609955,1.371094 1.369141,1.371094 h 4.341797 l 0.4088237,-2.782852 4.6768213,-0.112638 7.215136,0.118146 v -0.425781 h 0.002 V 2.1210938 H 8.646484 L 7.115234,0.59179688 Z M 2.525391,3.5195312 h 14.019531 c 0.367179,0 0.662109,0.2968905 0.662109,0.6640626 V 4.7832031 H 2.964844 2.916016 c -0.02139,0 -0.039917,0.00953 -0.060547,0.011719 -0.242562,0.03275 -0.431641,0.2415725 -0.431641,0.5078125 0,0.02807 0.011795,0.053288 0.015625,0.080078 -0.004,0.03339 -0.015625,0.062986 -0.015625,0.097656 v 2.3691406 c 0,0.38708 0.241189,0.6972656 0.541016,0.6972656 0.299831,0 0.541015,-0.3101856 0.541015,-0.6972656 V 5.8261719 H 17.207031 V 11.777344 L 6.1836426,10.453169 5.7963971,13.09375 H 2.525391 c -0.367178,0 -0.664063,-0.296889 -0.664063,-0.664062 V 4.1816406 c 0,-0.367172 0.296885,-0.6621094 0.664063,-0.6621094 z"
       style="opacity:0.75;fill:#1a1a1a;fill-opacity:1;stroke:none;stroke-width:1.1855619" />
    <path
       id="path818"
       d="m 6.897642,9.489185 c -0.759184,0 -1.37155,0.610143 -1.37155,1.369351 v 2.284818 c 0,0.03551 0.0084,0.06864 0.01099,0.10331 v 6.684113 h -0.0121 v 2.139749 c 0,0.759186 0.610166,1.370451 1.369353,1.370451 H 22.16713 c 0.759187,0 1.369354,-0.611265 1.369354,-1.370451 v -1.833129 h 0.0024 V 11.017891 H 13.621366 L 12.09156,9.489185 Z M 7.53616,12.55539 H 7.587808 23.5134 L 23.52,13.598339 H 8.161498 v 2.02326 c 0,0.387077 -0.255878,0.698959 -0.573676,0.698959 -0.317795,0 -0.573677,-0.311882 -0.573677,-0.698959 v -2.368345 c 0,-0.03467 0.01247,-0.06442 0.01649,-0.09781 -0.0042,-0.02701 -0.01649,-0.05106 -0.01649,-0.07914 0,-0.26624 0.201184,-0.475092 0.458282,-0.507736 0.0219,-0.002 0.04107,-0.01318 0.06374,-0.01318 z"
       style="opacity:1;fill:#333333;fill-opacity:0.99532712;stroke:none;stroke-width:1.18556631"
       inkscape:connector-curvature="0" />
  </g>
</svg>
