<svg xmlns="http://www.w3.org/2000/svg" version="1" viewBox="0 0 24 24">
  <path fill="#333" d="M1.9219.5918c-.75918 0-1.3711.60993-1.3711 1.3691v2.2852c0 .03552.0092988.06885.011719.10352v6.6836H.548847v2.1387c0 .75918.60995 1.3711 1.3691 1.3711h3.6191v5.3887h-.011719v2.1387c0 .75919.60995 1.3711 1.3691 1.3711h15.273c.75919 0 1.3691-.61191 1.3691-1.3711v-1.832h.001953v-9.2207h-4.9766v-8.8965h-9.916l-1.5312-1.5293h-5.1934zm.60352 2.9277h14.02c.36718 0 .66211.29689.66211.66406v.59961H2.916702c-.02139 0-.039917.0095298-.060547.011719-.24256.03275-.43164.24157-.43164.50781 0 .02807.011795.053288.015625.080078-.004.03339-.015625.062986-.015625.097656v2.3691c0 .38708.24119.69727.54102.69727.29983 0 .54102-.31019.54102-.69727v-2.0234h13.701v5.1914h-3.5859l-1.5293-1.5293h-5.1934c-.75918 0-1.373.61189-1.373 1.3711v2.2344h-3c-.36718 0-.66406-.29689-.66406-.66406v-8.248c0-.36717.29688-.66211.66406-.66211zm5.0117 9.0352h15.976781l.005859 1.043h-15.357v2.0234c0 .38708-.25642.69922-.57422.69922-.3178 0-.57422-.31214-.57422-.69922v-2.3672c0-.03467.013558-.064266.017578-.097656-.0042-.02701-.017578-.051998-.017578-.080078 0-.26624.20189-.47517.45898-.50781.0219-.002.041783-.013672.064453-.013671z"/>
</svg>
