<svg xmlns="http://www.w3.org/2000/svg" version="1" viewBox="0 0 24 24">
  <path fill="#333" fill-opacity=".99533" d="M1.8223 2.7012c-1.012 0-1.8281.81214-1.8281 1.8242v3.0469c0 .04734.012165.090502.015625.13672v8.9102h-.017578v2.8535c0 1.0121.81412 1.8262 1.8262 1.8262h20.359c1.0121 0 1.8262-.81412 1.8262-1.8262v-2.4434h.003906v-12.291h-13.221l-2.041-2.0371h-6.9238zm.85156 4.0859h21.298359l.009766 1.3906h-20.475v2.6973c0 .516-.34198.93164-.76562.93164-.42364 0-.76367-.41564-.76367-.93164V7.7188c0-.046217.016134-.086347.021484-.13086-.0056-.036007-.021484-.068035-.021484-.10547 0-.35492.2686-.63422.61133-.67773.02919-.00266.053764-.017578.083984-.017578zm14.271 4.3789h4v3h3v4h-3v3h-4v-3h-2.9902v-4h2.9902v-3z"/>
</svg>
