<svg xmlns="http://www.w3.org/2000/svg" viewBox="0 0 24 24"><path fill="#333" d="M22.235.48a1.5 1.5 0 0 0-1.062.442l-2.255 2.256L16.665.922a1.496 1.496 0 0 0-2.121 0 1.5 1.5 0 0 0 0 2.124L16.795 5.3l-2.253 2.253a1.497 1.497 0 0 0 0 2.122 1.497 1.497 0 0 0 2.122 0l2.253-2.254 2.255 2.254a1.497 1.497 0 0 0 2.122 0 1.497 1.497 0 0 0 0-2.122L21.04 5.3l2.254-2.253a1.5 1.5 0 0 0 0-2.124 1.495 1.495 0 0 0-1.06-.442zM3.31 4.91a.79.79 0 0 0-.633.606L.285 16.13a.793.793 0 0 0 .6.949l1.907.428a.782.782 0 0 0 .299.92l7.518 4.961a.792.792 0 0 0 1.1-.223l5.991-9.081a.792.792 0 0 0-.226-1.1l-4.89-3.225.43-1.912a.793.793 0 0 0-.6-.949l-8.788-1.98a.794.794 0 0 0-.316-.007zm9.024 5.95l3.918 2.588c.305.2.387.606.186.91l-4.975 7.537a.656.656 0 0 1-.91.189l-6.24-4.12a.645.645 0 0 1-.148-.147l5.507 1.241a.791.791 0 0 0 .948-.598z"/></svg>