<svg xmlns="http://www.w3.org/2000/svg" viewBox="0 0 24 24">
  <path fill="#333" d="M22.235.47974c-.38341 0-.768.1488-1.0618.44262l-2.2555 2.2555-2.2531-2.2555c-.29382-.29382-.67602-.44027-1.0595-.44027s-.768.14645-1.0618.44027c-.58765.58765-.58765 1.536 0 2.1237l2.2531 2.2531-2.2531 2.2531c-.58765.58765-.58765 1.5337 0 2.1213.58765.58765 1.5337.58765 2.1213 0l2.2531-2.2531 2.2555 2.2531c.58765.58765 1.5337.58765 2.1213 0 .58765-.58765.58765-1.5337 0-2.1213l-2.2531-2.2531 2.2531-2.2531c.58765-.58765.58765-1.536 0-2.1237-.29382-.29382-.67606-.44262-1.0595-.44262zM3.31 4.91074c-.30435.054491-.56083.28355-.63333.60508l-2.3921 10.614c-.096672.4287.17166.85214.60037.94882l1.9071.4285c-.11756.33546-.011656.71555.29901.92056l7.5176 4.9607c.3668.24206.85744.14314 1.0995-.22367l5.9919-9.0809c.24206-.3668.14078-.85744-.22602-1.0995l-4.8901-3.2255.43085-1.9118c.096676-.42871-.17166-.85215-.60037-.94882l-8.7889-1.98c-.10718-.024168-.21404-.025226-.31549-.0070632zm9.0244 5.9495l3.9177 2.5875c.30445.20091.3869.6067.186.91115l-4.9748 7.5364c-.2009.30445-.6067.38926-.91115.18835l-6.2391-4.1202c-.060599-.03998-.10577-.09216-.14833-.14597l5.5069 1.2408c.42871.09668.85215-.16931.94882-.59801z"/>
</svg>
