<svg xmlns="http://www.w3.org/2000/svg" xmlns:xlink="http://www.w3.org/1999/xlink" viewBox="0 0 24 24">
  <path fill="#333" stroke="#333" stroke-linejoin="round" stroke-width=".49357" d="M.61133 3.2773v7.5059l12.566 12.996v.0293l10.18-5.6445v-7.5273l-10.18 4.7812v-.06055z"/>
  <path fill="none" stroke="#333" stroke-linejoin="round" stroke-width=".49357" d="M10.537.40069s-1.1123.17407-.85059.80664c.26176.63258-.61219.94315-1.8105 1.418-2.3122.91614-3.3789 1.0792-5.2793.30566-.68691-.27962-1.9844.33398-1.9844.33398l12.607 12.143 10.144-4.7549z"/>
  <path id="a" fill="#333" d="M5.0834 5.8102c.76345.77436 1.78 1.0814 5.126-.23994 3.4246-1.3524 3.0756-1.5487 2.3122-2.2249-.76345-.6762-1.1041-.99698-3.9263.043625-3.9045 1.4397-4.2753 1.6469-3.5119 2.4212z"/>
  <use id="b" width="48" height="48" fill="#333" transform="translate(3.5859 3.0103)" xlink:href="#a"/>
  <use width="48" height="48" fill="#333" transform="rotate(-2.947 77.549 -63.172)" xlink:href="#b"/>
</svg>
