<?xml version="1.0" encoding="UTF-8" standalone="no"?>
<svg
   xmlns:dc="http://purl.org/dc/elements/1.1/"
   xmlns:cc="http://creativecommons.org/ns#"
   xmlns:rdf="http://www.w3.org/1999/02/22-rdf-syntax-ns#"
   xmlns:svg="http://www.w3.org/2000/svg"
   xmlns="http://www.w3.org/2000/svg"
   xmlns:sodipodi="http://sodipodi.sourceforge.net/DTD/sodipodi-0.dtd"
   xmlns:inkscape="http://www.inkscape.org/namespaces/inkscape"
   viewBox="0 0 24 24"
   version="1.1"
   id="svg4"
   sodipodi:docname="gtk-convert.svg"
   inkscape:version="0.92.3 (2405546, 2018-03-11)"
   width="24"
   height="24"
   style="fill:#000000">
  <metadata
     id="metadata10">
    <rdf:RDF>
      <cc:Work
         rdf:about="">
        <dc:format>image/svg+xml</dc:format>
        <dc:type
           rdf:resource="http://purl.org/dc/dcmitype/StillImage" />
        <dc:title></dc:title>
      </cc:Work>
    </rdf:RDF>
  </metadata>
  <defs
     id="defs8" />
  <sodipodi:namedview
     pagecolor="#ffffff"
     bordercolor="#666666"
     borderopacity="1"
     objecttolerance="10"
     gridtolerance="10"
     guidetolerance="10"
     inkscape:pageopacity="0"
     inkscape:pageshadow="2"
     inkscape:window-width="1366"
     inkscape:window-height="717"
     id="namedview6"
     showgrid="false"
     inkscape:zoom="14.584077"
     inkscape:cx="11.151515"
     inkscape:cy="12"
     inkscape:window-x="0"
     inkscape:window-y="25"
     inkscape:window-maximized="1"
     inkscape:current-layer="svg4" />
  <path
     style="fill:#333333;stroke-width:0.47969356"
     d="m 15.664347,1.6786425 v 1.9377203 c 2.719863,0.4557084 4.79757,2.8213659 4.79757,5.6707453 0,2.8493799 -2.077707,5.2141479 -4.79757,5.6698559 v -3.751717 l -4.364988,4.269748 4.364988,4.364987 v -2.945298 c 3.784782,-0.474897 6.715708,-3.693276 6.715708,-7.6075759 0,-3.9142986 -2.930926,-7.1335686 -6.715708,-7.6084656 z m -7.1545215,2.24391 v 2.9452983 c -3.7847824,0.474897 -6.7157089,3.6941672 -6.7157089,7.6084662 0,3.9143 2.9309265,7.132679 6.7157089,7.607575 V 20.146173 C 5.7899633,19.690464 3.7131449,17.325698 3.7131449,14.476317 c 0,-2.84938 2.0768184,-5.2150377 4.7966806,-5.6707459 V 12.557289 L 12.874813,8.2875406 Z m 8.6347355,2.398785 c -1.060122,0 -1.919027,0.8589052 -1.919027,1.9190283 0,1.0601223 0.858905,1.9181382 1.919027,1.9181382 1.060124,0 1.918139,-0.8580159 1.918139,-1.9181382 0,-1.0601231 -0.858015,-1.9190283 -1.918139,-1.9190283 z M 7.0305006,13.604031 c -1.0601232,0 -1.9190284,0.858906 -1.9190284,1.919027 0,1.060126 0.8589052,1.918139 1.9190284,1.918139 1.0601223,0 1.9181378,-0.858013 1.9181378,-1.918139 0,-1.060121 -0.8580155,-1.919027 -1.9181378,-1.919027 z"
     id="path2"
     inkscape:connector-curvature="0" />
</svg>
