<svg xmlns="http://www.w3.org/2000/svg" width="24" height="24">
  <path fill="#333" d="M15.664347 1.6786425v1.9377203c2.719863.4557084 4.79757 2.8213659 4.79757 5.6707453 0 2.8493799-2.077707 5.2141479-4.79757 5.6698559v-3.751717l-4.364988 4.269748 4.364988 4.364987v-2.945298c3.784782-.474897 6.715708-3.693276 6.715708-7.6075759 0-3.9142986-2.930926-7.1335686-6.715708-7.6084656zm-7.1545215 2.24391v2.9452983c-3.7847824.474897-6.7157089 3.6941672-6.7157089 7.6084662 0 3.9143 2.9309265 7.132679 6.7157089 7.607575v-1.937719c-2.7198622-.455709-4.7966806-2.820475-4.7966806-5.669856 0-2.84938 2.0768184-5.2150377 4.7966806-5.6707459v3.7517179l4.3649875-4.2697484zm8.6347355 2.398785c-1.060122 0-1.919027.8589052-1.919027 1.9190283 0 1.0601223.858905 1.9181382 1.919027 1.9181382 1.060124 0 1.918139-.8580159 1.918139-1.9181382 0-1.0601231-.858015-1.9190283-1.918139-1.9190283zM7.0305006 13.604031c-1.0601232 0-1.9190284.858906-1.9190284 1.919027 0 1.060126.8589052 1.918139 1.9190284 1.918139 1.0601223 0 1.9181378-.858013 1.9181378-1.918139 0-1.060121-.8580155-1.919027-1.9181378-1.919027z"/>
</svg>
