<svg xmlns="http://www.w3.org/2000/svg" width="24" height="24">
  <path fill="#333" d="M12 .23046875A11.770509 11.770509 0 0 0 .228516 12 11.770509 11.770509 0 0 0 12 23.769531 11.770509 11.770509 0 0 0 23.771484 12 11.770509 11.770509 0 0 0 12 .23046875zm-.0332 1.75195315A10.119383 10.119383 0 0 1 22.085938 12.101562a10.119383 10.119383 0 0 1-10.119141 10.119141A10.119383 10.119383 0 0 1 1.845703 12.101562 10.119383 10.119383 0 0 1 11.966797 1.9824219z"/>
  <path fill="#333" d="M11.9668 1.9824219c.64142 0 2.709324 5.2688857 3.228225 5.6534396.51892.3845538 6.070736.7624277 6.268886 1.384689.198214.6222247-4.075477 4.2564795-4.273718 4.8787035-.198205.622224 1.165017 6.124629.646134 6.509183-.518919.384553-5.228189-2.638272-5.869599-2.638272-.64142 0-5.3506983 3.022825-5.8695993 2.638272-.5189192-.384554.8443384-5.886959.6461336-6.509183-.1982139-.622224-4.4719591-4.2564788-4.2737181-4.8787035.1982139-.6222244 5.7499849-1.0001352 6.268886-1.384689.5189191-.3845539 2.5868148-5.6534396 3.2282258-5.6534396z"/>
</svg>
