<svg xmlns="http://www.w3.org/2000/svg" width="24" height="24">
  <path fill="#333" d="M12 .763664L5.1788012 5.0508941v6.4295099L12 15.770301l6.821199-4.289897V5.0508941zm0 2.0889922l4.972016 3.1254944L12 8.9491015 7.0253213 5.9781506zM8.4988066 16.566997c-.2758422 0-.5533549.105719-.7647201.317078l-.4849448.484946c-.4227293.422728-.4227293 1.104043 0 1.526775L10.782309 22.4263c.0021.0021.0033.0059.0054.008l.484944.484945c.42273.422727 1.104048.422727 1.526777 0l.490274-.492938 3.533168-3.530504c.42273-.422728.42273-1.104049 0-1.526775l-.484936-.485002c-.42273-.422728-1.104048-.422728-1.526776 0l-2.776562 2.776514-2.7737753-2.776442c-.2113237-.211386-.4861733-.317101-.7620161-.317101z" paint-order="markers fill stroke"/>
</svg>
