<svg xmlns="http://www.w3.org/2000/svg" width="24" height="24"><path fill="#333" d="M19.176 1.39l-14.35.005a.552.552 0 0 0-.553.552l-.002 14.348c0 .306.247.553.553.553l14.35-.006a.55.55 0 0 0 .553-.551l.002-14.35a.55.55 0 0 0-.553-.55zM17.52 3.599l-.002 9.931-11.038.006.002-9.933 11.038-.004zM9.549 17.707a.633.633 0 0 0-.447.188l-.594.591a.63.63 0 0 0 0 .893l2.453 2.453.594.592a.63.63 0 0 0 .892 0l.594-.594 2.451-2.451a.63.63 0 0 0 0-.893l-.594-.591a.63.63 0 0 0-.892 0l-2.004 2.003-2.008-2.003a.629.629 0 0 0-.445-.188z" color="#000" overflow="visible" style="marker:none"/><path fill="#333" d="M6.562 13.402l10.876-.105-4.046-4.046-2.154 2.732-2.417-1.944z" opacity=".6"/></svg>