<svg xmlns="http://www.w3.org/2000/svg" width="24" height="24">
  <path fill="#333" d="M19.175781 1.390625l-14.3496091.0039062c-.3058241 0-.5527344.2469103-.5527344.5527344L4.2714844 16.294922c0 .305824.2469102.552734.5527344.552734l14.3496092-.005859c.305824 0 .552735-.244957.552734-.550781l.001954-14.3496098c0-.3058239-.246911-.5507812-.552735-.5507812zm-1.65625 2.2070312l-.001953 9.9316408-11.0371092.005859.0019531-9.9335935 11.0371091-.0039063zM9.5488281 17.707031c-.1614487 0-.323555.063794-.4472656.1875l-.59375.591797c-.2474211.24742-.2474211.645156 0 .892578l2.4531255 2.453125.59375.591797c.247422.24742.645156.24742.892578 0l.59375-.59375 2.451172-2.451172c.247419-.247422.247419-.645158 0-.892578l-.59375-.591797c-.247421-.247421-.645158-.247421-.892579 0l-2.003906 2.003907-2.0078124-2.003907c-.1237108-.12371-.2838635-.1875-.4453125-.1875z" color="#000" overflow="visible" style="marker:none"/>
  <path fill="#333" d="M6.561893 13.401906l10.876215-.105084-4.045743-4.045741-2.154225 2.732189-2.416937-1.944057z" opacity=".6"/>
</svg>
