<?xml version="1.0" encoding="UTF-8" standalone="no"?>
<svg
   xmlns:dc="http://purl.org/dc/elements/1.1/"
   xmlns:cc="http://creativecommons.org/ns#"
   xmlns:rdf="http://www.w3.org/1999/02/22-rdf-syntax-ns#"
   xmlns:svg="http://www.w3.org/2000/svg"
   xmlns="http://www.w3.org/2000/svg"
   xmlns:sodipodi="http://sodipodi.sourceforge.net/DTD/sodipodi-0.dtd"
   xmlns:inkscape="http://www.inkscape.org/namespaces/inkscape"
   width="24"
   height="24"
   viewBox="0 0 6.35 6.35"
   version="1.1"
   id="svg8"
   sodipodi:docname="kdeconnect.svg"
   inkscape:version="0.92.3 (2405546, 2018-03-11)">
  <metadata
     id="metadata14">
    <rdf:RDF>
      <cc:Work
         rdf:about="">
        <dc:format>image/svg+xml</dc:format>
        <dc:type
           rdf:resource="http://purl.org/dc/dcmitype/StillImage" />
        <dc:title></dc:title>
      </cc:Work>
    </rdf:RDF>
  </metadata>
  <defs
     id="defs12" />
  <sodipodi:namedview
     pagecolor="#ffffff"
     bordercolor="#666666"
     borderopacity="1"
     objecttolerance="10"
     gridtolerance="10"
     guidetolerance="10"
     inkscape:pageopacity="0"
     inkscape:pageshadow="2"
     inkscape:window-width="1308"
     inkscape:window-height="742"
     id="namedview10"
     showgrid="false"
     inkscape:zoom="4.9166667"
     inkscape:cx="24.624613"
     inkscape:cy="23.811054"
     inkscape:window-x="58"
     inkscape:window-y="0"
     inkscape:window-maximized="1"
     inkscape:current-layer="svg8" />
  <path
     d="M 3.2249941,-0.04999204 A 3.174998,3.174998 0 0 0 0.04999606,3.1300536 3.174998,3.174998 0 0 0 3.2300417,6.3000039 3.174998,3.174998 0 0 0 6.3999921,3.125006 3.174998,3.174998 0 0 0 3.2249941,-0.04999204 Z m -0.00505,0.47448301 A 2.7257534,2.7257534 0 0 1 5.9456998,3.1502444 2.7257534,2.7257534 0 0 1 3.2199464,5.8810455 2.7257534,2.7257534 0 0 1 0.48914523,3.1552921 2.7257534,2.7257534 0 0 1 3.2148987,0.41944328 Z"
     id="path2"
     inkscape:connector-curvature="0"
     style="fill:#1a1a1a;stroke-width:0.50476915" />
  <path
     d="M 1.6955435,0.87373552 V 5.366181 H 4.7695877 V 0.87373552 H 1.6904958 Z M 1.8722127,1.4491724 H 4.5878708 V 4.8311257 H 1.8722127 Z"
     id="path4"
     inkscape:connector-curvature="0"
     style="fill:#1a1a1a;fill-opacity:0.98999999;stroke-width:0.50476915" />
  <path
     d="M 3.4420448,1.78232 2.9978479,1.827749 v 1.8222167 l 0.4391492,-0.06562 V 2.8120491 L 4.027577,3.6701566 4.4869169,3.5288213 3.881194,2.6959522 4.4919646,1.91356 4.0225293,1.8025108 3.4369971,2.5899506 Z M 2.4325065,2.2315645 H 2.4173635 L 2.245742,2.4082338 a 0.02019077,0.02019077 0 0 0 0,0.030286 l 0.2019077,0.3381953 c -0.040382,0.060572 -0.06562,0.1261923 -0.090858,0.1918123 l -0.3735292,0.080763 a 0.02523846,0.02523846 0 0 0 -0.015143,0.020191 V 3.321866 c 0,0.00505 0.00505,0.015143 0.015143,0.015143 l 0.3634338,0.090858 c 0.020191,0.080763 0.050477,0.1564785 0.090858,0.2271462 L 2.2255511,3.9730181 a 0.02019077,0.02019077 0 0 0 0,0.030286 l 0.1766692,0.1766692 h 0.030286 L 2.7606064,3.9780658 c 0.06562,0.040382 0.1362877,0.070668 0.2120031,0.090858 l 0.075715,0.3684815 c 0,0.010095 0.010095,0.020191 0.020191,0.020191 h 0.2473369 c 0.010095,0 0.020191,-0.010095 0.020191,-0.020191 l 0.090858,-0.3684815 c 0.075715,-0.025238 0.1514308,-0.050477 0.2170508,-0.090858 l 0.3230522,0.2120031 h 0.030286 l 0.171622,-0.1766692 a 0.02019077,0.02019077 0 0 0 0.00505,-0.030286 L 4.0528155,3.7913012 4.0174816,3.8013966 4.0023386,3.7963489 3.830717,3.5439644 A 0.70667682,0.70667682 0 1 1 2.9019418,2.5798553 V 2.388043 C 2.8615598,2.408234 2.8161308,2.423377 2.7757495,2.448615 L 2.4426019,2.2265169 h -0.015143 z"
     id="path6"
     inkscape:connector-curvature="0"
     style="fill:#1a1a1a;stroke-width:0.50476915" />
</svg>
