<svg xmlns="http://www.w3.org/2000/svg" width="24" height="24">
  <path fill="#333" d="M16.922272 9.5475757l1.415-1.415c.9 1.16 1.455 2.5000003 1.625 3.8900003h-2.02c-.145-.875-.485-1.72-1.02-2.4750003zm1.02 4.4750003h2.02c-.17 1.39-.725 2.73-1.625 3.89l-1.415-1.415c.535-.755.875-1.6 1.02-2.475zm-1.01 5.315c-1.16.905-2.51 1.44-3.899999 1.61v-2.02c.875-.145 1.714999-.49 2.464999-1.025zM11.032273 5.0925757v-3.07l4.549999 4.55-4.549999 4.4500003V7.1125757c-2.8350003.475-5.0000003 2.9400003-5.0000003 5.9100003s2.165 5.435 5.0000003 5.91v2.02c-3.9450003-.495-7.0000003-3.85-7.0000003-7.93 0-4.0800003 3.055-7.4350003 7.0000003-7.9300003z"/>
</svg>
