<svg xmlns="http://www.w3.org/2000/svg" width="24" height="24">
  <path fill="#333" d="M7.0722727 9.5475757l-1.415-1.415c-.9 1.16-1.455 2.5000003-1.625 3.8900003h2.02c.145-.875.485-1.72 1.02-2.4750003zm-1.02 4.4750003h-2.02c.17 1.39.725 2.73 1.625 3.89l1.415-1.415c-.535-.755-.875-1.6-1.02-2.475zm1.01 5.315c1.16.905 2.51 1.44 3.8999993 1.61v-2.02c-.875-.145-1.7149993-.49-2.4649993-1.025zM12.962272 5.0925757v-3.07l-4.5499993 4.55 4.5499993 4.4500003V7.1125757c2.835.475 5 2.9400003 5 5.9100003s-2.165 5.435-5 5.91v2.02c3.945-.495 7-3.85 7-7.93 0-4.0800003-3.055-7.4350003-7-7.9300003z"/>
</svg>
