<svg xmlns="http://www.w3.org/2000/svg" width="24" height="24">
  <g fill="#333">
    <path d="M11.976562 6.0234375c-1.576999 0-2.8574214 1.2804219-2.8574214 2.8574219v1.1425786H8.546875c-.6315 0-1.1425781.513031-1.1425781 1.144531v5.71289c0 .6315.5110781 1.144532 1.1425781 1.144532h6.857422c.6315 0 1.142578-.513032 1.142578-1.144532v-5.71289c0-.6315-.511078-1.144531-1.142578-1.144531h-.572266V8.8808594c0-1.577-1.278468-2.8574219-2.855469-2.8574219zm0 1.0859375c.977001 0 1.771485.7944844 1.771485 1.7714844v1.1425786h-3.542969V8.8808594c0-.977.794484-1.7714844 1.771484-1.7714844z"/>
    <path d="M4.976562 3.0234375c-1.105 0-2 .895-2 2V19.023438c0 1.105.895 2 2 2h14c1.105 0 2-.895 2-2V5.0234375c0-1.105-.895-2-2-2zm0 2h14V19.023438h-14z"/>
  </g>
</svg>
