<svg xmlns="http://www.w3.org/2000/svg" width="24" height="24">
  <path fill="#447821" d="M4.9765625 3.0234375c-1.105 0-2 .895-2 2V19.023438c0 1.105.895 2 2 2H18.976562c1.105001 0 2-.895 2-2V5.0234375c0-1.105-.894999-2-2-2H4.9765625zm6.9999995 3c1.577002 0 2.855469 1.2804219 2.855469 2.8574219v1.1425786h.572266c.6315 0 1.142578.513031 1.142578 1.144531v5.71289c0 .6315-.511078 1.144532-1.142578 1.144532H8.546875c-.6315 0-1.1425781-.513032-1.1425781-1.144532v-5.71289c0-.6315.5110781-1.144531 1.1425781-1.144531h.5722656V8.8808594c0-1.577 1.2804224-2.8574219 2.8574214-2.8574219zm0 1.0859375c-.976999 0-1.771484.7944844-1.771484 1.7714844v1.1425786h3.542969V8.8808594c0-.977-.794484-1.7714844-1.771485-1.7714844z"/>
</svg>
