<svg xmlns="http://www.w3.org/2000/svg" width="24" height="24">
  <path fill="#333" d="M21.238179 2.2196216l-3.271651 3.2681048c-1.670546-1.4662672-3.859945-2.3601994-6.261355-2.3601994-4.2217601 0-7.7934454 2.7498184-9.0418153 6.553942l2.1474087.709301c.9533007-2.9007576 3.6758819-4.9934796 6.8944066-4.9934796 1.774955 0 3.386699.6534791 4.644148 1.7111889l-3.28229 3.2822907h8.171148zM2.8389094 13.76527v8.171148l3.2734247-3.269878c1.6705459 1.466268 3.8581721 2.361973 6.2595819 2.361973 4.22176 0 7.795218-2.751592 9.043588-6.555716l-2.147408-.707527c-.953301 2.900757-3.677655 4.993479-6.89618 4.993479-1.774955 0-3.3866996-.655252-4.6441495-1.712962l3.2822915-3.280517z"/>
</svg>
