<svg xmlns="http://www.w3.org/2000/svg" width="24" height="24" viewBox="0 0 6.35 6.35">
  <path fill="#333" d="M3.175.04186A3.1335212 3.1335212 0 0 0 .04134117 3.17552 3.1335212 3.1335212 0 0 0 3.175 6.30814a3.1335212 3.1335212 0 0 0 3.1336588-3.13262A3.1335212 3.1335212 0 0 0 3.175.04186zm-.00879.4656a2.6939629 2.6939629 0 0 1 2.6938925 2.69441A2.6939629 2.6939629 0 0 1 3.16621 5.89628 2.6939629 2.6939629 0 0 1 .47180077 3.20187 2.6939629 2.6939629 0 0 1 3.16621.50746zM3.175.8015c-.074595 0-.1494864.005-.2227255.0109l-.1374592.71004a1.6994194 1.6994194 0 0 0-.3286621.10542l-.5193482-.49713c-.1318983.078-.2462571.17387-.3601847.27492l.306958.64647a1.7146776 1.7146776 0 0 0-.2010213.27595l-.7100342-.0956a2.3429745 2.3429745 0 0 0-.13745933.43408l.62476813.339a1.6363524 1.6363524 0 0 0-.00982.1695c0 .0587.00406.11254.00982.1695l-.62476813.339c.03289.15088.077105.29591.13745933.43459l.7100342-.0951c.057642.0983.1257477.1905.2010213.27492l-.306958.64699c.1139276.10105.2282864.19693.3601847.27492l.5193482-.49816c.1037554.0464.2150736.0816.3286621.10645l.1374592.71003a2.413501 2.413501 0 0 0 .4449342 0l.137976-.71003c.1132496-.0247.2247291-.0599.3281452-.10645l.519865.49867c.1315593-.078.2460797-.17438.3596679-.27543l-.3069579-.64699c.075273-.0844.143896-.17659.2015381-.27492l.7095173.0951a2.3429745 2.3429745 0 0 0 .1379762-.43459l-.6252847-.339c.00577-.0569.010335-.11083.010335-.1695 0-.0587-.00457-.11254-.010335-.1695l.6252847-.339a2.3422964 2.3422964 0 0 0-.1379762-.43459l-.7095173.0956a1.7146776 1.7146776 0 0 0-.2015381-.27596l.3069579-.64595c-.1135882-.10103-.2281086-.19744-.3596679-.27544l-.519865.49765a1.7004366 1.7004366 0 0 0-.3286619-.10542L3.396692.8124A2.413501 2.413501 0 0 0 3.175.8015zm0 1.35651a1.0172505 1.0172505 0 0 1 0 2.0345 1.0172505 1.0172505 0 0 1 0-2.0345z"/>
</svg>
