<?xml version="1.0" encoding="UTF-8" standalone="no"?>
<svg
   xmlns:dc="http://purl.org/dc/elements/1.1/"
   xmlns:cc="http://creativecommons.org/ns#"
   xmlns:rdf="http://www.w3.org/1999/02/22-rdf-syntax-ns#"
   xmlns:svg="http://www.w3.org/2000/svg"
   xmlns="http://www.w3.org/2000/svg"
   xmlns:sodipodi="http://sodipodi.sourceforge.net/DTD/sodipodi-0.dtd"
   xmlns:inkscape="http://www.inkscape.org/namespaces/inkscape"
   viewBox="0 0 24 24"
   version="1.1"
   id="svg4"
   sodipodi:docname="tab-new.svg"
   inkscape:version="0.92.3 (2405546, 2018-03-11)"
   width="24"
   height="24"
   style="fill:#000000">
  <metadata
     id="metadata10">
    <rdf:RDF>
      <cc:Work
         rdf:about="">
        <dc:format>image/svg+xml</dc:format>
        <dc:type
           rdf:resource="http://purl.org/dc/dcmitype/StillImage" />
        <dc:title></dc:title>
      </cc:Work>
    </rdf:RDF>
  </metadata>
  <defs
     id="defs8" />
  <sodipodi:namedview
     pagecolor="#ffffff"
     bordercolor="#666666"
     borderopacity="1"
     objecttolerance="10"
     gridtolerance="10"
     guidetolerance="10"
     inkscape:pageopacity="0"
     inkscape:pageshadow="2"
     inkscape:window-width="1366"
     inkscape:window-height="717"
     id="namedview6"
     showgrid="false"
     inkscape:zoom="15.909903"
     inkscape:cx="12"
     inkscape:cy="12"
     inkscape:window-x="0"
     inkscape:window-y="25"
     inkscape:window-maximized="1"
     inkscape:current-layer="svg4"
     showguides="true"
     inkscape:guide-bbox="true" />
  <g
     transform="matrix(1.1249688,0,0,1.1249688,2.999125,2.9946642)"
     style="fill:#333333"
     id="g6">
    <path
       inkscape:connector-curvature="0"
       d="M 4.003,1 C 4.003,1 3.294,0.986 2.556,1.355 1.817,1.725 1.003,2.667 1.003,4 v 9 h -1 l -0.004,2 h 0.004 l 3,0.01 V 15 h 13 v -2 h -1 V 4 c 0,0 0.014,-0.709 -0.355,-1.447 C 14.278,1.814 13.336,1 12.003,1 Z m 0,2 h 8 C 12.67,3 12.728,3.186 12.858,3.447 12.989,3.709 13.003,4 13.003,4 v 9 h -10 V 4 C 3.003,3.333 3.189,3.275 3.45,3.145 3.712,3.014 4.003,3 4.003,3 Z"
       font-weight="400"
       overflow="visible"
       style="font-weight:400;font-family:sans-serif;font-variant-ligatures:normal;font-variant-position:normal;font-variant-caps:normal;font-variant-numeric:normal;font-variant-alternates:normal;font-feature-settings:normal;text-indent:0;text-decoration:none;text-decoration-line:none;text-decoration-style:solid;text-decoration-color:#000000;text-transform:none;text-orientation:mixed;white-space:normal;shape-padding:0;overflow:visible;isolation:auto;mix-blend-mode:normal;fill:#333333"
       id="path2" />
    <path
       inkscape:connector-curvature="0"
       d="m 7.009,5 v 2 h -2 v 2 h 2 v 2 h 2 V 9 h 2 V 7 h -2 V 5 Z"
       id="path4-6"
       style="fill:#333333" />
  </g>
</svg>
