<svg xmlns="http://www.w3.org/2000/svg" width="24" height="24">
  <g fill="#333">
    <path d="M7.5023751 4.119633s-.79760287-.01574956-1.62782985.39936392C5.04319331 4.93523538 4.12746871 5.994956 4.12746871 7.4945394v10.1247192H3.0024999l-.00449988 2.2499376h.00449988l3.3749064.01124969v-.01124969h14.6245944v-2.2499376h-1.1249688V7.4945394s.01574956-.79760288-.39936393-1.62782985C19.06142953 5.0353576 18.00170892 4.119633 16.50212551 4.119633zm0 2.2499376h8.9997504c.7503542 0 .81560239.2092442.96184833.50286105.14737091.29474183.16312048.62210775.16312048.62210775v10.1247192H6.3774063V7.4945394c0-.75035419.2092442-.81560238.50286105-.96184832.29474183-.14737092.62210775-.16312048.62210775-.16312048z" font-family="sans-serif" font-weight="400" overflow="visible" style="font-variant-ligatures:normal;font-variant-position:normal;font-variant-caps:normal;font-variant-numeric:normal;font-variant-alternates:normal;font-feature-settings:normal;text-indent:0;text-decoration-line:none;text-decoration-style:solid;text-decoration-color:#000;text-transform:none;text-orientation:mixed;shape-padding:0;isolation:auto;mix-blend-mode:normal" white-space="normal"/>
    <path d="M10.88403132 8.6195082v2.2499376h-2.2499376v2.2499376h2.2499376v2.2499376h2.2499376v-2.2499376h2.2499376v-2.2499376h-2.2499376V8.6195082z"/>
  </g>
</svg>
