<svg xmlns="http://www.w3.org/2000/svg" width="24" height="24">
  <g fill="#333" color="#bebebe">
    <path d="M20.4332072 23.4999916s1.5333332 0 1.5333332-1.5333332V6.6333264c0-1.5333332-1.5333332-1.5333332-1.5333332-1.5333332H18.899874v1.5333332h.7666666s.7666666 0 .7666666.7666666v13.7999988s0 .7666666-.7666666.7666666H8.9332082s-.7666666 0-.7666666-.7666666v-.7666666H6.6332084v1.5333332c0 1.5333332 1.5333332 1.5333332 1.5333332 1.5333332z" overflow="visible" style="marker:none"/>
    <path d="M17.3665408 2.0333268v15.333332c0 1.5333332-1.5333332 1.5333332-1.5333332 1.5333332H3.566542s-1.5333332 0-1.5333332-1.5333332V2.0333268c0-1.5333332 1.5333332-1.5333332 1.5333332-1.5333332h12.2666656s1.5333332 0 1.5333332 1.5333332zm-1.5333332.7666666c0-.7666666-.7666666-.7666666-.7666666-.7666666H4.3332086s-.7666666 0-.7666666.7666666v13.7999988c0 .7666666.7666666.7666666.7666666.7666666H15.066541c.7666666 0 .7666666-.7666666.7666666-.7666666z" overflow="visible" style="marker:none"/>
  </g>
</svg>
