<svg xmlns="http://www.w3.org/2000/svg" width="24" height="24">
  <path fill="#333" d="M9.6821004 3.4591146c-3.4853169 0-6.3104624 2.8251455-6.3104624 6.3104628 0 3.4853196 2.8251455 6.3104626 6.3104624 6.3104626 1.5679066 0 2.9994136-.573279 4.1013156-1.519848l.267467.267464v.766968l4.854202 4.844491 1.446553-1.446553-4.844491-4.854202h-.77182l-.267468-.267467c.951425-1.101902 1.524704-2.533409 1.524704-4.1013156 0-3.4853173-2.825143-6.3104628-6.3104626-6.3104628m0 1.941681c2.4125406 0 4.3687826 1.9562435 4.3687826 4.3687818 0 2.4125406-1.956242 4.3687826-4.3687826 4.3687826-2.4125379 0-4.3687814-1.956242-4.3687814-4.3687826 0-2.4125383 1.9562435-4.3687818 4.3687814-4.3687818m-.4854194 1.941681v1.941681H7.255V10.255h1.941681v1.94168h.970842V10.255h1.94168v-.9708424h-1.94168v-1.941681h-.970842"/>
</svg>
