<?xml version="1.0" encoding="UTF-8" standalone="no"?>
<svg
   xmlns:dc="http://purl.org/dc/elements/1.1/"
   xmlns:cc="http://creativecommons.org/ns#"
   xmlns:rdf="http://www.w3.org/1999/02/22-rdf-syntax-ns#"
   xmlns:svg="http://www.w3.org/2000/svg"
   xmlns="http://www.w3.org/2000/svg"
   xmlns:sodipodi="http://sodipodi.sourceforge.net/DTD/sodipodi-0.dtd"
   xmlns:inkscape="http://www.inkscape.org/namespaces/inkscape"
   viewBox="0 0 24 24"
   version="1.1"
   id="svg4"
   sodipodi:docname="zoom-out.svg"
   inkscape:version="0.92.3 (2405546, 2018-03-11)"
   width="24"
   height="24"
   style="fill:#000000">
  <metadata
     id="metadata10">
    <rdf:RDF>
      <cc:Work
         rdf:about="">
        <dc:format>image/svg+xml</dc:format>
        <dc:type
           rdf:resource="http://purl.org/dc/dcmitype/StillImage" />
        <dc:title></dc:title>
      </cc:Work>
    </rdf:RDF>
  </metadata>
  <defs
     id="defs8" />
  <sodipodi:namedview
     pagecolor="#ffffff"
     bordercolor="#666666"
     borderopacity="1"
     objecttolerance="10"
     gridtolerance="10"
     guidetolerance="10"
     inkscape:pageopacity="0"
     inkscape:pageshadow="2"
     inkscape:window-width="1366"
     inkscape:window-height="717"
     id="namedview6"
     showgrid="false"
     inkscape:zoom="22.416667"
     inkscape:cx="12"
     inkscape:cy="12"
     inkscape:window-x="0"
     inkscape:window-y="25"
     inkscape:window-maximized="1"
     inkscape:current-layer="svg4"
     showguides="true"
     inkscape:guide-bbox="true" />
  <path
     inkscape:connector-curvature="0"
     d="M 9.8204629,3.51 C 6.3351456,3.51 3.51,6.3351456 3.51,9.8204629 c 0,3.4853191 2.8251456,6.3104611 6.3104629,6.3104611 1.5679061,0 2.9994121,-0.573279 4.1013151,-1.519847 l 0.267466,0.267464 v 0.766967 L 19.043447,20.49 20.49,19.043447 15.645508,14.189244 H 14.873689 L 14.606222,13.921778 C 15.557645,12.819875 16.130924,11.388369 16.130924,9.8204629 16.130924,6.3351456 13.305782,3.51 9.8204629,3.51 m 0,1.941681 c 2.4125411,0 4.3687811,1.9562435 4.3687811,4.3687819 0,2.4125411 -1.95624,4.3687811 -4.3687811,4.3687811 -2.4125384,0 -4.3687819,-1.95624 -4.3687819,-4.3687811 0,-2.4125384 1.9562435,-4.3687819 4.3687819,-4.3687819 M 7.8787821,9.3350429 V 10.305884 H 11.762144 V 9.3350429 H 7.8787821"
     id="path2"
     style="fill:#333333;stroke-width:0.48542032" />
</svg>
