<svg xmlns="http://www.w3.org/2000/svg" width="24" height="24"><path fill="gray" d="M11.967 1.982c.641 0 2.71 5.27 3.228 5.655.52.384 6.072.762 6.27 1.384.198.623-4.077 4.255-4.276 4.877-.185.583.996 5.44.723 6.375a10.12 10.12 0 0 0 4.174-8.171 10.12 10.12 0 0 0-10.12-10.12zm0 0a10.12 10.12 0 0 0-10.121 10.12 10.12 10.12 0 0 0 4.175 8.177c-.278-.923.909-5.797.723-6.38-.198-.623-4.473-4.255-4.275-4.878.198-.622 5.75-1 6.27-1.384.518-.385 2.586-5.655 3.228-5.655zm0 15.788c-.605 0-4.819 2.683-5.737 2.67a10.12 10.12 0 0 0 5.737 1.78 10.12 10.12 0 0 0 5.715-1.78c-.963-.03-5.116-2.67-5.715-2.67z"/></svg>