<svg xmlns="http://www.w3.org/2000/svg" width="24" height="24" viewBox="0 0 6.35 6.35"><path fill="gray" d="M3.175.306a2.869 2.869 0 0 0-2.87 2.87 2.869 2.869 0 0 0 2.87 2.868 2.869 2.869 0 0 0 2.87-2.869A2.869 2.869 0 0 0 3.174.306zm-.008.427A2.467 2.467 0 0 1 5.633 3.2a2.467 2.467 0 0 1-2.466 2.467A2.467 2.467 0 0 1 .7 3.2 2.467 2.467 0 0 1 3.167.733zm.008.269a2.75 2.75 0 0 0-.204.01l-.126.65a1.556 1.556 0 0 0-.3.096l-.476-.455c-.12.072-.226.16-.33.252l.281.592a1.57 1.57 0 0 0-.184.253l-.65-.088a2.145 2.145 0 0 0-.126.398l.572.31a1.498 1.498 0 0 0-.009.155c0 .054.004.103.01.155l-.573.31c.03.139.07.272.126.399l.65-.088c.053.09.115.175.184.252l-.281.593c.104.092.21.18.33.251l.475-.456c.095.043.197.075.301.098l.126.65a2.21 2.21 0 0 0 .407 0l.127-.65c.103-.023.206-.055.3-.098l.476.457c.12-.072.225-.16.33-.252l-.282-.593c.07-.077.132-.162.185-.252l.65.088a2.145 2.145 0 0 0 .126-.398l-.573-.31c.006-.053.01-.102.01-.156 0-.054-.004-.103-.01-.155l.573-.31a2.145 2.145 0 0 0-.126-.398l-.65.087a1.57 1.57 0 0 0-.185-.253l.281-.591a2.149 2.149 0 0 0-.329-.252l-.476.455a1.557 1.557 0 0 0-.3-.096l-.127-.65a2.21 2.21 0 0 0-.203-.01zm0 1.242a.931.931 0 0 1 0 1.863.931.931 0 0 1 0-1.863z"/></svg>