<?xml version="1.0" encoding="UTF-8" standalone="no"?>
<svg
   xmlns:dc="http://purl.org/dc/elements/1.1/"
   xmlns:cc="http://creativecommons.org/ns#"
   xmlns:rdf="http://www.w3.org/1999/02/22-rdf-syntax-ns#"
   xmlns:svg="http://www.w3.org/2000/svg"
   xmlns="http://www.w3.org/2000/svg"
   xmlns:sodipodi="http://sodipodi.sourceforge.net/DTD/sodipodi-0.dtd"
   xmlns:inkscape="http://www.inkscape.org/namespaces/inkscape"
   width="48"
   height="48"
   version="1"
   id="svg11"
   sodipodi:docname="goland.svg"
   inkscape:version="0.92.4 (5da689c313, 2019-01-14)">
  <metadata
     id="metadata15">
    <rdf:RDF>
      <cc:Work
         rdf:about="">
        <dc:format>image/svg+xml</dc:format>
        <dc:type
           rdf:resource="http://purl.org/dc/dcmitype/StillImage" />
        <dc:title></dc:title>
      </cc:Work>
    </rdf:RDF>
  </metadata>
  <sodipodi:namedview
     pagecolor="#ffffff"
     bordercolor="#666666"
     borderopacity="1"
     objecttolerance="10"
     gridtolerance="10"
     guidetolerance="10"
     inkscape:pageopacity="0"
     inkscape:pageshadow="2"
     inkscape:window-width="1087"
     inkscape:window-height="480"
     id="namedview13"
     showgrid="false"
     inkscape:zoom="4.9166667"
     inkscape:cx="2.1355932"
     inkscape:cy="24"
     inkscape:window-x="0"
     inkscape:window-y="25"
     inkscape:window-maximized="0"
     inkscape:current-layer="svg11" />
  <defs
     id="defs7">
    <linearGradient
       id="a">
      <stop
         offset="0"
         stop-color="#040000"
         id="stop2" />
      <stop
         offset="1"
         stop-opacity="0"
         id="stop4" />
    </linearGradient>
  </defs>
  <path
     d="M 24,0.23 A 23.77,23.77 0 0 0 0.23,24.01 23.77,23.77 0 0 0 24,47.77 23.77,23.77 0 0 0 47.77,24 23.77,23.77 0 0 0 24,0.23 Z M 23.93,3.77 A 20.44,20.44 0 0 1 44.37,24.21 20.44,20.44 0 0 1 23.93,44.64 20.44,20.44 0 0 1 3.5,24.21 20.44,20.44 0 0 1 23.93,3.77 Z m 0,3 A 17.44,17.44 0 0 0 6.5,24.22 17.44,17.44 0 0 0 23.93,41.66 17.44,17.44 0 0 0 41.37,24.2 17.44,17.44 0 0 0 23.93,6.77 Z m -8.68,6.57 h 0.43 c 1.41,0 2.64,0.67 3.68,2.02 0.56,0.85 0.84,1.7 0.84,2.58 v 3.53 a 4.71,4.71 0 0 1 -2.65,2.44 c -0.7,0.26 -1.4,0.39 -2.05,0.39 -1.88,0 -3.39,-0.8 -4.52,-2.4 l -0.18,-0.32 0.04,-0.04 h 0.7 c 1.03,1.4 2.26,2.09 3.71,2.09 h 0.5 c 1.36,0 2.55,-0.64 3.57,-1.9 l 0.1,-0.19 v -0.85 a 4.77,4.77 0 0 1 -3.92,2.1 h -0.07 c -1.62,0 -2.95,-0.76 -4,-2.27 a 4.52,4.52 0 0 1 -0.66,-2.26 v -0.43 c 0,-1.4 0.68,-2.63 2.05,-3.67 a 4.38,4.38 0 0 1 2.43,-0.82 z M 26,13.44 h 0.42 c 1.38,0 2.58,0.66 3.6,1.97 0.56,0.82 0.83,1.69 0.83,2.6 v 0.07 c 0,1.77 -0.85,3.15 -2.56,4.12 -0.65,0.33 -1.33,0.5 -2.05,0.5 h -0.06 c -1.6,0 -2.9,-0.75 -3.92,-2.23 A 4.42,4.42 0 0 1 21.6,18.26 v -0.42 c 0,-1.38 0.67,-2.58 2.01,-3.6 0.8,-0.54 1.6,-0.8 2.4,-0.8 z m -10.53,0.54 c -1.67,0 -2.92,0.82 -3.75,2.47 -0.2,0.48 -0.31,1 -0.31,1.6 v 0.1 c 0,1.56 0.8,2.77 2.4,3.64 0.56,0.24 1.12,0.35 1.7,0.35 1.65,0 2.9,-0.85 3.77,-2.54 0.19,-0.58 0.28,-1.11 0.28,-1.59 0,-1.53 -0.76,-2.74 -2.29,-3.64 a 4.37,4.37 0 0 0 -1.7,-0.39 z m 10.74,0.08 c -1.64,0 -2.86,0.81 -3.67,2.43 -0.2,0.46 -0.31,0.98 -0.31,1.56 v 0.1 c 0,1.53 0.78,2.72 2.35,3.57 0.56,0.23 1.1,0.35 1.66,0.35 1.62,0 2.86,-0.84 3.72,-2.5 0.18,-0.57 0.27,-1.09 0.27,-1.55 0,-1.5 -0.75,-2.7 -2.26,-3.58 A 4.31,4.31 0 0 0 26.31,14.06 Z M 10.38,24.5 h 19.75 c 0.15,0 0.28,0.13 0.28,0.29 0,0.15 -0.13,0.28 -0.28,0.28 H 10.38 a 0.28,0.28 0 0 1 -0.29,-0.28 c 0,-0.16 0.13,-0.29 0.29,-0.29 z"
     id="path9"
     inkscape:connector-curvature="0"
     style="fill:#ecec1c" />
</svg>
