<?xml version="1.0" encoding="UTF-8" standalone="no"?>
<svg
   xmlns:dc="http://purl.org/dc/elements/1.1/"
   xmlns:cc="http://creativecommons.org/ns#"
   xmlns:rdf="http://www.w3.org/1999/02/22-rdf-syntax-ns#"
   xmlns:svg="http://www.w3.org/2000/svg"
   xmlns="http://www.w3.org/2000/svg"
   xmlns:sodipodi="http://sodipodi.sourceforge.net/DTD/sodipodi-0.dtd"
   xmlns:inkscape="http://www.inkscape.org/namespaces/inkscape"
   width="48"
   height="48"
   version="1"
   id="svg11"
   sodipodi:docname="webstorm.svg"
   inkscape:version="0.92.4 (5da689c313, 2019-01-14)">
  <metadata
     id="metadata15">
    <rdf:RDF>
      <cc:Work
         rdf:about="">
        <dc:format>image/svg+xml</dc:format>
        <dc:type
           rdf:resource="http://purl.org/dc/dcmitype/StillImage" />
        <dc:title></dc:title>
      </cc:Work>
    </rdf:RDF>
  </metadata>
  <sodipodi:namedview
     pagecolor="#ffffff"
     bordercolor="#666666"
     borderopacity="1"
     objecttolerance="10"
     gridtolerance="10"
     guidetolerance="10"
     inkscape:pageopacity="0"
     inkscape:pageshadow="2"
     inkscape:window-width="1087"
     inkscape:window-height="480"
     id="namedview13"
     showgrid="false"
     inkscape:zoom="4.9166667"
     inkscape:cx="2.1355932"
     inkscape:cy="24"
     inkscape:window-x="0"
     inkscape:window-y="25"
     inkscape:window-maximized="0"
     inkscape:current-layer="svg11" />
  <defs
     id="defs7">
    <linearGradient
       id="a">
      <stop
         offset="0"
         stop-color="#040000"
         id="stop2" />
      <stop
         offset="1"
         stop-opacity="0"
         id="stop4" />
    </linearGradient>
  </defs>
  <path
     d="M 24,0.23 A 23.77,23.77 0 0 0 0.23,24.01 23.77,23.77 0 0 0 24,47.77 23.77,23.77 0 0 0 47.77,24 23.77,23.77 0 0 0 24,0.23 Z M 23.93,3.77 A 20.44,20.44 0 0 1 44.37,24.21 20.44,20.44 0 0 1 23.93,44.64 20.44,20.44 0 0 1 3.5,24.21 20.44,20.44 0 0 1 23.93,3.77 Z m 0,3 A 17.44,17.44 0 0 0 6.5,24.22 17.44,17.44 0 0 0 23.93,41.66 17.44,17.44 0 0 0 41.37,24.2 17.44,17.44 0 0 0 23.93,6.77 Z m -13.09,7.13 0.5,0.45 v 0.05 a 4.83,4.83 0 0 0 -1.25,3.14 v 0.21 c 0,1.66 0.8,3.02 2.4,4.06 0.75,0.41 1.55,0.62 2.4,0.62 h 0.05 c 1.83,0 3.25,-0.91 4.27,-2.73 a 4.8,4.8 0 0 0 -0.79,-5.26 v -0.09 l 0.5,-0.45 c 0.99,1.08 1.49,2.28 1.49,3.6 v 0.29 c 0,1.13 -0.4,2.24 -1.2,3.31 a 4.88,4.88 0 0 0 3.27,1.33 h 0.04 c 1.92,0 3.37,-0.91 4.35,-2.73 0.3,-0.63 0.46,-1.28 0.46,-1.95 v -0.2 c 0,-1.12 -0.42,-2.16 -1.25,-3.15 v -0.05 l 0.5,-0.45 a 5,5 0 0 1 1.49,3.43 v 0.63 c 0,1.54 -0.76,2.93 -2.28,4.18 a 5.31,5.31 0 0 1 -3.02,1.03 h -0.42 a 5.4,5.4 0 0 1 -3.64,-1.53 5.43,5.43 0 0 1 -3.64,1.53 h -0.42 c -1.61,0 -3.03,-0.76 -4.26,-2.28 A 5.25,5.25 0 0 1 9.35,17.96 v -0.63 a 5,5 0 0 1 1.5,-3.43 z m 23.67,0 h 0.42 c 0.87,0 1.7,0.3 2.5,0.88 v 0.72 h -0.07 a 3.92,3.92 0 0 0 -2.53,-0.97 h -0.1 c -1.67,0 -2.91,0.84 -3.72,2.5 -0.18,0.53 -0.28,0.93 -0.28,1.18 h 8.57 l 0.07,0.07 v 0.28 c 0,1.77 -0.86,3.15 -2.57,4.13 -0.65,0.32 -1.33,0.48 -2.05,0.48 h -0.06 c -0.96,0 -1.84,-0.29 -2.64,-0.86 v -0.73 h 0.07 c 0.77,0.65 1.65,0.97 2.63,0.97 1.67,0 2.92,-0.87 3.75,-2.6 0.14,-0.47 0.21,-0.82 0.21,-1.08 H 30.18 L 30.11,18.8 v -0.52 c 0,-1.31 0.66,-2.5 1.98,-3.57 0.85,-0.53 1.66,-0.8 2.42,-0.8 z M 10.38,24.5 h 19.75 c 0.15,0 0.28,0.13 0.28,0.29 0,0.15 -0.13,0.28 -0.28,0.28 H 10.38 a 0.28,0.28 0 0 1 -0.29,-0.28 c 0,-0.16 0.13,-0.29 0.29,-0.29 z"
     id="path9"
     inkscape:connector-curvature="0"
     style="fill:#ecec1c" />
</svg>
