<svg xmlns="http://www.w3.org/2000/svg" width="48" height="48" viewBox="0 0 12.7 12.7"><path d="M6.344.073a6.29 6.29 0 0 0-6.29 6.29 6.29 6.29 0 0 0 6.29 6.288 6.29 6.29 0 0 0 6.29-6.289 6.29 6.29 0 0 0-6.29-6.29zM3.624 1.74c-.003.036-.01.071-.01.108v9.004c0 .088.012.172.03.254A5.407 5.407 0 0 1 .92 6.416 5.407 5.407 0 0 1 3.624 1.74zm5.427.012a5.407 5.407 0 0 1 2.682 4.664 5.407 5.407 0 0 1-2.697 4.672c.015-.077.024-.155.024-.236V1.848c0-.033-.006-.064-.009-.096zm-2.17.94v3.095h1.09l-2.179 4.22V6.914H4.703l2.179-4.22z" fill="#e6e6e6"/></svg>