<svg xmlns="http://www.w3.org/2000/svg" width="48" height="48" viewBox="0 0 12.7 12.7"><path d="M6.344.073a6.29 6.29 0 0 0-6.29 6.29 6.29 6.29 0 0 0 6.29 6.288 6.29 6.29 0 0 0 6.29-6.289 6.29 6.29 0 0 0-6.29-6.29zm-.018.936a5.407 5.407 0 0 1 5.407 5.407 5.407 5.407 0 0 1-5.407 5.407A5.407 5.407 0 0 1 .92 6.416 5.407 5.407 0 0 1 6.326 1.01zM4.178 2.445c-.923 0-1.618.686-1.618 1.54v5.132c0 .853.695 1.54 1.618 1.54h3.886c.923 0 1.666-.687 1.666-1.54V5.735L8.716 7.212v1.905c0 .285-.247.513-.555.513H4.097a.506.506 0 0 1-.523-.513V3.984c0-.284.216-.513.524-.513h3.931l.678-.898a1.836 1.836 0 0 0-.642-.128H4.178zm5.06.529s-1.293 1.8-2.074 3.063l-.722.6.02.808-.393.638h.358l.38-.3.86-.237.305-.76L10.12 3.52l-.882-.545z" fill="#e6e6e6"/></svg>