<?xml version="1.0" encoding="UTF-8" standalone="no"?>
<svg
   xmlns:dc="http://purl.org/dc/elements/1.1/"
   xmlns:cc="http://creativecommons.org/ns#"
   xmlns:rdf="http://www.w3.org/1999/02/22-rdf-syntax-ns#"
   xmlns:svg="http://www.w3.org/2000/svg"
   xmlns="http://www.w3.org/2000/svg"
   xmlns:sodipodi="http://sodipodi.sourceforge.net/DTD/sodipodi-0.dtd"
   xmlns:inkscape="http://www.inkscape.org/namespaces/inkscape"
   width="48"
   height="48"
   viewBox="0 0 12.7 12.7"
   version="1.1"
   id="svg6"
   sodipodi:docname="application-x-compressed-tar.svg"
   inkscape:version="0.92.4 (5da689c313, 2019-01-14)">
  <defs
     id="defs10" />
  <sodipodi:namedview
     pagecolor="#ffffff"
     bordercolor="#666666"
     borderopacity="1"
     objecttolerance="10"
     gridtolerance="10"
     guidetolerance="10"
     inkscape:pageopacity="0"
     inkscape:pageshadow="2"
     inkscape:window-width="1087"
     inkscape:window-height="480"
     id="namedview8"
     showgrid="false"
     inkscape:zoom="4.9166667"
     inkscape:cx="2.1355932"
     inkscape:cy="24"
     inkscape:window-x="0"
     inkscape:window-y="25"
     inkscape:window-maximized="0"
     inkscape:current-layer="svg6" />
  <metadata
     id="metadata2">
    <rdf:RDF>
      <cc:Work>
        <dc:format>image/svg+xml</dc:format>
        <dc:type
           rdf:resource="http://purl.org/dc/dcmitype/StillImage" />
        <dc:title></dc:title>
      </cc:Work>
    </rdf:RDF>
  </metadata>
  <path
     d="m 1.21,0.86 -1.07,2.8 h 6.04 v -2.8 z m 5.18,0 v 2.8 h 6.11 l -1.1,-2.8 h -5 z m -6.2,3.03 v 6.31 c 0,0.64 0.25,1.18 0.74,1.64 0.5,0.45 1.08,0.67 1.78,0.67 h 7.25 c 0.7,0 1.28,-0.22 1.78,-0.67 0.49,-0.46 0.73,-1 0.73,-1.64 V 3.9 h -1.12 v 6.3 c 0,0.36 -0.13,0.66 -0.4,0.91 A 1.4,1.4 0 0 1 9.96,11.49 H 2.71 A 1.4,1.4 0 0 1 1.72,11.11 1.19,1.19 0 0 1 1.31,10.21 V 3.88 H 0.19 Z m 1.53,1.4 V 6.35 H 2 V 7.41 H 2.53 V 6.35 H 2.79 V 5.29 Z M 3.04,5.34 V 5.87 H 3.57 V 5.34 Z M 3.57,5.87 V 6.4 H 4.1 V 5.87 Z m 0.53,0 H 4.63 V 5.34 H 4.1 Z m 0.53,0 V 6.4 H 5.16 V 5.87 Z m 0.53,0 H 5.68 V 5.34 H 5.16 Z m 0.52,0 V 6.4 H 6.21 V 5.87 Z m 0.53,0 H 6.74 V 5.34 H 6.21 Z m 0.53,0 V 6.4 H 7.27 V 5.87 Z m 0.53,0 H 7.8 V 5.34 H 7.27 Z m 0.53,0 V 6.4 H 8.33 V 5.87 Z m 0.53,0 H 8.86 V 5.34 H 8.33 Z m 0.53,0 V 6.4 H 9.39 V 5.87 Z m 0.53,0 H 9.92 V 5.34 H 9.39 Z m 0.53,0 V 6.4 h 0.53 V 5.87 Z m 0.53,0 h 0.53 V 5.34 H 10.45 Z M 1.99,5.56 H 2.52 V 6.09 H 1.99 Z m 0.43,2.3 v 0.59 c -0.11,0 -0.26,-0.04 -0.2,0.13 0.02,0.09 -0.07,0.3 0.09,0.25 0.16,-0.05 0.1,0.12 0.11,0.22 v 1.16 H 2.84 V 8.83 C 2.94,8.81 3.14,8.9 3.1,8.74 3.07,8.65 3.16,8.44 3.04,8.44 2.91,8.46 2.8,8.46 2.84,8.3 V 7.86 Z M 6.14,8.39 A 0.25,0.25 0 0 0 6.01,8.43 C 5.79,8.59 5.83,8.63 5.76,8.45 H 5.4 v 1.76 H 5.82 C 5.82,9.83 5.81,9.46 5.83,9.09 5.83,8.79 6.28,8.92 6.2,8.65 6.2,8.53 6.22,8.4 6.13,8.39 Z M 4.08,8.4 C 3.73,8.43 3.38,8.66 3.28,9 c -0.17,0.48 0.09,1.1 0.61,1.22 0.3,0.08 0.63,0 0.82,-0.24 0,0.1 -0.06,0.28 0.1,0.23 0.09,-0.03 0.3,0.06 0.28,-0.06 V 8.45 H 4.71 c 0,0.15 0.02,0.32 -0.12,0.1 A 0.72,0.72 0 0 0 4.23,8.41 H 4.08 Z m 3.98,0 C 7.72,8.43 7.38,8.65 7.29,9 7.11,9.48 7.37,10.13 7.92,10.23 8.19,10.29 8.51,10.21 8.68,9.97 a 0.51,0.51 0 0 1 -0.69,0.54 c -0.17,-0.1 -0.3,-0.2 -0.5,-0.16 -0.17,-0.02 -0.32,0 -0.13,0.18 0.37,0.52 1.33,0.52 1.62,-0.08 0.16,-0.4 0.08,-0.83 0.1,-1.24 V 8.45 h -0.4 c 0,0.13 0.03,0.31 -0.11,0.1 A 0.72,0.72 0 0 0 8.21,8.41 H 8.06 Z m 1.33,0.05 v 0.37 h 0.68 l -0.77,1 v 0.39 h 1.34 V 9.83 H 9.81 l 0.77,-1 V 8.45 Z M 4.18,8.79 C 4.59,8.77 4.83,9.29 4.62,9.63 4.42,10.01 3.72,9.9 3.67,9.45 3.6,9.13 3.83,8.78 4.17,8.79 Z m 3.97,0 C 8.54,8.77 8.76,9.22 8.62,9.55 8.49,9.98 7.76,9.95 7.68,9.5 7.59,9.18 7.78,8.77 8.15,8.8 Z M 6.48,9.8 v 0.4 H 6.91 V 9.8 Z"
     id="path4"
     inkscape:connector-curvature="0"
     style="fill:#963996" />
</svg>
