<?xml version="1.0" encoding="UTF-8" standalone="no"?>
<svg
   xmlns:dc="http://purl.org/dc/elements/1.1/"
   xmlns:cc="http://creativecommons.org/ns#"
   xmlns:rdf="http://www.w3.org/1999/02/22-rdf-syntax-ns#"
   xmlns:svg="http://www.w3.org/2000/svg"
   xmlns="http://www.w3.org/2000/svg"
   xmlns:sodipodi="http://sodipodi.sourceforge.net/DTD/sodipodi-0.dtd"
   xmlns:inkscape="http://www.inkscape.org/namespaces/inkscape"
   width="48"
   height="48"
   version="1.1"
   id="svg35"
   sodipodi:docname="application-x-trash.svg"
   inkscape:version="0.92.4 (5da689c313, 2019-01-14)">
  <metadata
     id="metadata39">
    <rdf:RDF>
      <cc:Work
         rdf:about="">
        <dc:format>image/svg+xml</dc:format>
        <dc:type
           rdf:resource="http://purl.org/dc/dcmitype/StillImage" />
        <dc:title></dc:title>
      </cc:Work>
    </rdf:RDF>
  </metadata>
  <sodipodi:namedview
     pagecolor="#ffffff"
     bordercolor="#666666"
     borderopacity="1"
     objecttolerance="10"
     gridtolerance="10"
     guidetolerance="10"
     inkscape:pageopacity="0"
     inkscape:pageshadow="2"
     inkscape:window-width="1087"
     inkscape:window-height="480"
     id="namedview37"
     showgrid="false"
     inkscape:zoom="4.9166667"
     inkscape:cx="2.1355932"
     inkscape:cy="24"
     inkscape:window-x="0"
     inkscape:window-y="25"
     inkscape:window-maximized="0"
     inkscape:current-layer="svg35" />
  <defs
     id="defs31">
    <linearGradient
       id="a">
      <stop
         offset="0"
         stop-color="#dc85e9"
         id="stop2" />
      <stop
         offset="1"
         stop-color="#f2cbf8"
         id="stop4" />
    </linearGradient>
    <linearGradient
       id="b">
      <stop
         offset="0"
         stop-color="#dc85e9"
         id="stop7" />
      <stop
         offset="1"
         stop-color="#f2cbf8"
         id="stop9" />
    </linearGradient>
    <linearGradient
       id="c">
      <stop
         offset="0"
         stop-color="#fff"
         stop-opacity=".588"
         id="stop12" />
      <stop
         offset="1"
         stop-color="#fff"
         stop-opacity=".863"
         id="stop14" />
    </linearGradient>
    <linearGradient
       id="d">
      <stop
         offset="0"
         stop-color="#b3b3b3"
         id="stop17" />
      <stop
         offset="1"
         stop-color="#e6e6e6"
         id="stop19" />
    </linearGradient>
    <linearGradient
       id="e">
      <stop
         offset="0"
         stop-color="#e694bb"
         id="stop22" />
      <stop
         offset=".262"
         stop-color="#d3819a"
         id="stop24" />
      <stop
         offset=".705"
         stop-color="#b25a64"
         id="stop26" />
      <stop
         offset="1"
         stop-color="#98313d"
         id="stop28" />
    </linearGradient>
  </defs>
  <path
     style="color:#000000;font-weight:400;line-height:normal;font-family:'Andale Mono';text-indent:0;text-align:start;text-decoration:none;text-decoration-line:none;text-transform:none;overflow:visible;fill:#963996;marker:none"
     d="m 29.705,-0.084 c -2.047,0.008 -4.121,0.088 -4.517,0.098 H 7 a 2.938,2.938 0 0 0 -0.563,0 C 5.063,0.276 3.975,1.612 4,3.012 V 45 c 0,1.57 1.43,3 3,3 h 34 c 1.57,0 3,-1.43 3,-3 V 18.818 C 44.018,18.026 44.215,8.891 43.664,8.322 l -9.61,-8.074 c -0.284,-0.275 -2.302,-0.34 -4.349,-0.332 z m 1.49,3.094 0.133,7.504 c 0.012,0.681 0.638,1.29 1.317,1.279 l 7.771,-0.137 c 0.133,0.018 0.268,0.017 0.4,-0.006 L 40.898,14.68 41,18.77 V 44.997 H 7 V 3.021 h 18.672 z m -3.133,15.08 c -2.345,0.01 -4.69,0.02 -7.039,0.033 0.93,-0.035 1.794,0.806 2.631,2.049 0.745,1.278 1.448,2.603 2.055,4.017 l -2.463,1.418 7.145,0.684 3.005,-6.527 -2.486,1.43 C 30.234,19.818 29.37,18.675 28.062,18.09 Z m -7.412,0.502 c -0.33,0.066 -0.599,0.21 -0.802,0.428 -1.65,1.618 -2.66,3.236 -3.487,4.851 1.55,0.889 3.098,1.78 4.649,2.668 l 3.174,-4.45 a 40.926,40.926 0 0 0 -0.926,-1.67 c -0.41,-0.606 -1.196,-1.68 -2.01,-1.815 L 21,18.592 Z m 12.84,7.658 c -1.534,0.916 -3.07,1.829 -4.603,2.746 l 0.228,0.49 0.028,-0.039 v 0.098 l 1.836,3.906 c 0.741,0.027 1.485,0.03 2.228,0.022 0.77,-0.064 2.2,-0.24 2.645,-0.975 0.017,-0.026 0.028,-0.05 0.043,-0.076 l 0.18,-0.324 A 1.45,1.45 0 0 0 36.012,31.666 C 35.41,29.436 34.493,27.765 33.49,26.25 Z m -15.431,0.77 -7.07,1.294 2.6,1.21 c -0.736,1.347 -1.172,2.708 -0.902,4.113 1.36,1.916 2.717,3.829 4.079,5.742 -0.563,-0.74 -0.37,-1.931 0.166,-3.332 0.616,-1.341 1.295,-2.678 2.1,-3.992 l 2.577,1.2 z m 10.63,3.896 -4.093,5.893 4.216,5.822 -0.029,-2.867 c 1.529,0.085 2.949,-0.11 4.104,-0.96 1.14,-2.052 2.28,-4.103 3.422,-6.152 -0.431,0.826 -1.59,1.167 -3.082,1.287 -1.48,0.026 -2.977,-0.019 -4.508,-0.18 z m -10.412,3.432 c -0.32,0.618 -0.624,1.244 -0.916,1.882 -0.277,0.723 -0.735,2.09 -0.263,2.807 0.016,0.026 0.033,0.048 0.05,0.072 l 0.223,0.31 c 0.188,0.134 0.39,0.21 0.604,0.24 2.273,0.422 4.175,0.313 5.974,0.062 -0.164,-1.779 -0.33,-3.56 -0.496,-5.338 z"
     font-weight="400"
     overflow="visible"
     id="path33"
     inkscape:connector-curvature="0" />
</svg>
