<svg xmlns="http://www.w3.org/2000/svg" width="48" height="48"><defs><linearGradient id="a"><stop offset="0" stop-color="#dc85e9"/><stop offset="1" stop-color="#f2cbf8"/></linearGradient><linearGradient id="b"><stop offset="0" stop-color="#dc85e9"/><stop offset="1" stop-color="#f2cbf8"/></linearGradient><linearGradient id="c"><stop offset="0" stop-color="#fff" stop-opacity=".588"/><stop offset="1" stop-color="#fff" stop-opacity=".863"/></linearGradient><linearGradient id="d"><stop offset="0" stop-color="#b3b3b3"/><stop offset="1" stop-color="#e6e6e6"/></linearGradient><linearGradient id="e"><stop offset="0" stop-color="#e694bb"/><stop offset=".262" stop-color="#d3819a"/><stop offset=".705" stop-color="#b25a64"/><stop offset="1" stop-color="#98313d"/></linearGradient></defs><path d="M19.063 2.36a6.876 6.876 0 0 0-.793.015c-1.64.13-3.203.858-4.25 2.156-2.29 2.628-1.591 7.205 1.437 8.969 2.644 1.517 6.459 1.074 8.375-1.406l-.906-.688c-1.643 2.091-4.92 2.502-7.063.969-2.411-1.616-2.687-5.458-.593-7.438 2.065-2.087 5.926-1.868 7.656.532.3-.23.606-.457.906-.688-1.091-1.543-2.918-2.355-4.77-2.422zm-10.137.015v12h1.156v-12H8.926zm22.094 0a5.882 5.882 0 0 0-3.313 1c-2.863 1.829-3.52 6.245-1.281 8.813 1.911 2.454 5.793 2.915 8.25 1.03 1.84-1.318 2.751-3.69 2.344-5.905-.411-2.84-3.148-5.055-6-4.938zM30.613 3.5c.157-.015.31-.003.469 0a4.834 4.834 0 0 1 1.719.313c2.11.732 3.44 3.02 3.094 5.218-.219 2.377-2.438 4.29-4.813 4.219-2.652.1-5.011-2.36-4.812-5-.023-2.389 1.996-4.53 4.343-4.75zM7.061 16.426l-3.272 2.408-2.787 2.049 2.049 2.787 13.836 18.805v4.072h.011v1.305h28.61v-.055h.015v-29.79h-.093v-.003H34.44l-1.096-1.49-4.307-.014 1.108 1.506H16.887V36.63L5.84 21.619l7.03-5.172 16.167.053-21.976-.074zm13.283 5.039h21.722V41.39H20.39l-.045-.063V21.465z" fill="#963996"/></svg>
