<?xml version="1.0" encoding="UTF-8" standalone="no"?>
<svg
   xmlns:dc="http://purl.org/dc/elements/1.1/"
   xmlns:cc="http://creativecommons.org/ns#"
   xmlns:rdf="http://www.w3.org/1999/02/22-rdf-syntax-ns#"
   xmlns:svg="http://www.w3.org/2000/svg"
   xmlns="http://www.w3.org/2000/svg"
   xmlns:sodipodi="http://sodipodi.sourceforge.net/DTD/sodipodi-0.dtd"
   xmlns:inkscape="http://www.inkscape.org/namespaces/inkscape"
   width="48"
   height="48"
   version="1.1"
   id="svg35"
   sodipodi:docname="image-png.svg"
   inkscape:version="0.92.4 (5da689c313, 2019-01-14)">
  <metadata
     id="metadata39">
    <rdf:RDF>
      <cc:Work
         rdf:about="">
        <dc:format>image/svg+xml</dc:format>
        <dc:type
           rdf:resource="http://purl.org/dc/dcmitype/StillImage" />
        <dc:title></dc:title>
      </cc:Work>
    </rdf:RDF>
  </metadata>
  <sodipodi:namedview
     pagecolor="#ffffff"
     bordercolor="#666666"
     borderopacity="1"
     objecttolerance="10"
     gridtolerance="10"
     guidetolerance="10"
     inkscape:pageopacity="0"
     inkscape:pageshadow="2"
     inkscape:window-width="1087"
     inkscape:window-height="480"
     id="namedview37"
     showgrid="false"
     inkscape:zoom="4.9166667"
     inkscape:cx="2.1355932"
     inkscape:cy="24"
     inkscape:window-x="0"
     inkscape:window-y="25"
     inkscape:window-maximized="0"
     inkscape:current-layer="svg35" />
  <defs
     id="defs31">
    <linearGradient
       id="a">
      <stop
         offset="0"
         stop-color="#dc85e9"
         id="stop2" />
      <stop
         offset="1"
         stop-color="#f2cbf8"
         id="stop4" />
    </linearGradient>
    <linearGradient
       id="b">
      <stop
         offset="0"
         stop-color="#dc85e9"
         id="stop7" />
      <stop
         offset="1"
         stop-color="#f2cbf8"
         id="stop9" />
    </linearGradient>
    <linearGradient
       id="c">
      <stop
         offset="0"
         stop-color="#fff"
         stop-opacity=".588"
         id="stop12" />
      <stop
         offset="1"
         stop-color="#fff"
         stop-opacity=".863"
         id="stop14" />
    </linearGradient>
    <linearGradient
       id="d">
      <stop
         offset="0"
         stop-color="#b3b3b3"
         id="stop17" />
      <stop
         offset="1"
         stop-color="#e6e6e6"
         id="stop19" />
    </linearGradient>
    <linearGradient
       id="e">
      <stop
         offset="0"
         stop-color="#e694bb"
         id="stop22" />
      <stop
         offset=".262"
         stop-color="#d3819a"
         id="stop24" />
      <stop
         offset=".705"
         stop-color="#b25a64"
         id="stop26" />
      <stop
         offset="1"
         stop-color="#98313d"
         id="stop28" />
    </linearGradient>
  </defs>
  <path
     d="m 35.234,2.816 a 6.204,6.204 0 0 0 -3.267,0.899 c -2.826,1.628 -3.705,5.866 -1.74,8.525 1.581,2.39 4.783,3.102 7.36,2.24 2.22,-0.712 3.51,-3.117 3.429,-5.421 h -4.588 c -0.422,0.003 -0.103,0.768 -0.201,1.103 h 3.072 c 1.055,-0.114 -0.075,1.597 -0.403,2.045 -2.14,2.575 -6.662,1.74 -8.048,-1.25 -1.196,-2.207 -0.216,-5.221 1.963,-6.34 2.119,-1.268 4.885,-0.574 6.57,1.135 0.324,0.185 0.652,-0.535 0.978,-0.725 A 7.123,7.123 0 0 0 35.234,2.817 Z M 11.527,2.824 C 10.691,2.815 9.851,2.851 9.016,2.826 v 11.822 c 0.107,0.332 0.794,0.074 1.125,0.165 V 9.244 C 11.729,9.178 13.452,9.491 14.859,8.525 16.647,7.189 16.163,3.702 14.016,3.088 13.195,2.886 12.363,2.833 11.527,2.824 Z m 15.01,0.004 c -0.228,0.017 -0.484,0.064 -0.65,0.018 V 12.01 L 18.949,3.668 C 18.63,3.412 18.469,2.793 18.016,2.846 V 14.818 H 19.2 v -9.05 l 6.873,8.23 c 0.321,0.258 0.483,0.878 0.942,0.82 V 2.992 C 26.964,2.825 26.765,2.811 26.536,2.828 Z M 11.785,3.99 c 0.547,-0.004 1.094,0.014 1.637,0.114 1.567,0.285 1.875,2.851 0.5,3.634 -1.19,0.573 -2.516,0.278 -3.781,0.328 V 4.006 C 10.689,4.02 11.238,3.994 11.785,3.99 Z M 7.061,16.426 3.789,18.834 1.002,20.883 3.051,23.67 16.887,42.475 v 4.072 h 0.011 v 1.305 h 28.61 v -0.055 h 0.015 V 18.007 H 45.43 V 18.004 H 34.44 l -1.096,-1.49 -4.307,-0.014 1.108,1.506 H 16.887 V 36.63 L 5.84,21.619 12.87,16.447 29.037,16.5 Z m 13.283,5.039 H 42.066 V 41.39 H 20.39 L 20.345,41.327 V 21.465 Z"
     id="path33"
     inkscape:connector-curvature="0"
     style="fill:#963996" />
</svg>
