<svg xmlns="http://www.w3.org/2000/svg" width="48" height="48"><defs><linearGradient id="a"><stop offset="0" stop-color="#dc85e9"/><stop offset="1" stop-color="#f2cbf8"/></linearGradient><linearGradient id="b"><stop offset="0" stop-color="#dc85e9"/><stop offset="1" stop-color="#f2cbf8"/></linearGradient><linearGradient id="c"><stop offset="0" stop-color="#fff" stop-opacity=".588"/><stop offset="1" stop-color="#fff" stop-opacity=".863"/></linearGradient><linearGradient id="d"><stop offset="0" stop-color="#b3b3b3"/><stop offset="1" stop-color="#e6e6e6"/></linearGradient><linearGradient id="e"><stop offset="0" stop-color="#e694bb"/><stop offset=".262" stop-color="#d3819a"/><stop offset=".705" stop-color="#b25a64"/><stop offset="1" stop-color="#98313d"/></linearGradient></defs><path style="line-height:normal;text-indent:0;text-align:start;text-decoration-line:none;text-transform:none;marker:none" d="M32.938-.012c-.999.32-1.335 1.84-.565 2.555l9.035 9.082c.835.796 2.497.115 2.541-1.041V1.502c0-.793-.717-1.514-1.506-1.514h-9.035a1.548 1.548 0 0 0-.47 0zm-26.5.026C5.062.276 3.974 1.612 4 3.012V45c0 1.57 1.43 3 3 3h34c1.57 0 3-1.43 3-3V18.818a3.038 3.038 0 0 0-.844-2.156L27.344.857a3.038 3.038 0 0 0-2.157-.843H7a2.938 2.938 0 0 0-.563 0zM7 3.02h18.672l.187.188 14.907 15 .234.234v26.555H7V3.021zm4.424 14.514a.6.6 0 0 0-.6.6v16.17A2.398 2.398 0 0 0 13.22 36.7h6.955L18.04 43.1a.597.597 0 0 0 .568.787c.251 0 .485-.158.569-.408l2.26-6.778H23.4v6.588c0 .331.269.598.6.598.331 0 .6-.267.6-.598v-6.588h1.962l2.26 6.778a.598.598 0 0 0 1.137-.38l-2.133-6.398h6.955a2.398 2.398 0 0 0 2.395-2.396v-16.17a.6.6 0 0 0-.6-.6H11.424zm1.795 2.397H34.78v14.373H13.22V19.932zm14.972 1.197a.598.598 0 0 0-.597.6v10.779c0 .33.266.6.597.6h3.594a.6.6 0 0 0 .6-.6v-10.78a.6.6 0 0 0-.6-.6h-3.594zm-5.988 2.396c-.33 0-.6.267-.6.598v8.385a.6.6 0 0 0 .6.6h3.594a.6.6 0 0 0 .6-.6v-8.385a.598.598 0 0 0-.6-.598h-3.594zm-5.988 3.592a.6.6 0 0 0-.6.6v4.79a.6.6 0 0 0 .6.6h3.594a.598.598 0 0 0 .597-.6v-4.79c0-.331-.266-.6-.597-.6h-3.594z" color="#000" font-weight="400" font-family="Andale Mono" overflow="visible" fill="#963996"/></svg>
