<?xml version="1.0" encoding="UTF-8" standalone="no"?>
<svg
   xmlns:dc="http://purl.org/dc/elements/1.1/"
   xmlns:cc="http://creativecommons.org/ns#"
   xmlns:rdf="http://www.w3.org/1999/02/22-rdf-syntax-ns#"
   xmlns:svg="http://www.w3.org/2000/svg"
   xmlns="http://www.w3.org/2000/svg"
   xmlns:sodipodi="http://sodipodi.sourceforge.net/DTD/sodipodi-0.dtd"
   xmlns:inkscape="http://www.inkscape.org/namespaces/inkscape"
   width="48"
   height="48"
   viewBox="0 0 12.7 12.7"
   version="1.1"
   id="svg4"
   sodipodi:docname="tar.svg"
   inkscape:version="0.92.5 (2060ec1f9f, 2020-04-08)">
  <metadata
     id="metadata10">
    <rdf:RDF>
      <cc:Work
         rdf:about="">
        <dc:format>image/svg+xml</dc:format>
        <dc:type
           rdf:resource="http://purl.org/dc/dcmitype/StillImage" />
        <dc:title></dc:title>
      </cc:Work>
    </rdf:RDF>
  </metadata>
  <defs
     id="defs8" />
  <sodipodi:namedview
     pagecolor="#ffffff"
     bordercolor="#666666"
     borderopacity="1"
     objecttolerance="10"
     gridtolerance="10"
     guidetolerance="10"
     inkscape:pageopacity="0"
     inkscape:pageshadow="2"
     inkscape:window-width="1087"
     inkscape:window-height="480"
     id="namedview6"
     showgrid="false"
     inkscape:zoom="4.9166667"
     inkscape:cx="2.1355932"
     inkscape:cy="24"
     inkscape:window-x="0"
     inkscape:window-y="25"
     inkscape:window-maximized="0"
     inkscape:current-layer="svg4" />
  <path
     d="M 1.323,0.794 0.265,3.44 h 5.82 V 0.794 Z m 5.292,0 V 3.44 h 5.82 L 11.377,0.794 Z m -6.35,3.175 v 6.35 c 0,1.172 0.944,2.116 2.116,2.116 h 7.938 a 2.112,2.112 0 0 0 2.116,-2.116 v -6.35 h -0.793 v 6.35 a 1.32,1.32 0 0 1 -1.323,1.323 H 2.38 A 1.32,1.32 0 0 1 1.057,10.319 v -6.35 z m 1.588,1.008 v 1.06 h 0.28 v 1.06 h 0.53 v -1.06 h 0.26 v -1.06 z m 1.32,0.05 v 0.53 h 0.53 v -0.53 z m 0.53,0.53 v 0.53 h 0.53 v -0.53 z m 0.53,0 h 0.53 v -0.53 h -0.53 z m 0.53,0 v 0.53 h 0.53 v -0.53 z m 0.53,0 h 0.52 v -0.53 h -0.52 z m 0.52,0 v 0.53 h 0.53 v -0.53 z m 0.53,0 h 0.53 v -0.53 h -0.53 z m 0.53,0 v 0.53 h 0.53 v -0.53 z m 0.53,0 h 0.53 v -0.53 h -0.53 z m 0.53,0 v 0.53 h 0.53 v -0.53 z m 0.53,0 h 0.53 v -0.53 h -0.53 z m 0.53,0 v 0.53 h 0.53 v -0.53 z m 0.53,0 h 0.53 v -0.53 h -0.53 z m 0.53,0 v 0.53 h 0.53 v -0.53 z m 0.53,0 h 0.53 v -0.53 h -0.53 z m -8.46,-0.31 h 0.53 v 0.53 h -0.53 z m 2.3,2.3 v 0.01 z m -0.19,0.126 v 0.67 h -0.24 v 0.44 h 0.24 v 1.57 h 0.48 v -1.57 h 0.29 v -0.44 h -0.29 v -0.67 z m 1.987,0.62 a 1.01,1.01 0 0 0 -0.247,0.03 1,1 0 0 0 -0.8,0.9 c -0.06,0.43 0.15,0.92 0.57,1.1 0.35,0.15 0.8,0.12 1.07,-0.19 0.06,-0.09 0.02,0.11 0.03,0.16 -0.03,0.1 0.1,0.05 0.16,0.06 h 0.29 v -2 h -0.45 v 0.26 a 0.76,0.76 0 0 0 -0.62,-0.32 z m 2.304,0 a 0.48,0.48 0 0 0 -0.43,0.25 c -0.01,-0.06 0.03,-0.18 -0.02,-0.2 h -0.43 v 2.01 h 0.48 v -1.22 c 0.01,-0.22 0.22,-0.38 0.43,-0.37 v -0.46 a 0.48,0.48 0 0 0 -0.04,0 z M 6.207,8.742 a 0.62,0.62 0 0 1 0.037,10e-4 c 0.3,-0.02 0.58,0.25 0.59,0.56 0.03,0.28 -0.15,0.6 -0.45,0.65 -0.3,0.06 -0.63,-0.1 -0.7,-0.4 -0.1,-0.31 0.06,-0.72 0.4,-0.8 A 0.62,0.62 0 0 1 6.207,8.742 Z"
     id="path2"
     inkscape:connector-curvature="0"
     style="fill:#963996" />
</svg>
