<?xml version="1.0" encoding="UTF-8" standalone="no"?><svg xmlns:dc="http://purl.org/dc/elements/1.1/" xmlns:cc="http://creativecommons.org/ns#" xmlns:rdf="http://www.w3.org/1999/02/22-rdf-syntax-ns#" xmlns="http://www.w3.org/2000/svg" width="48" height="48" viewBox="0 0 12.7 12.7"><metadata><rdf:RDF><cc:Work><dc:format>image/svg+xml</dc:format><dc:type rdf:resource="http://purl.org/dc/dcmitype/StillImage"/><dc:title/></cc:Work></rdf:RDF></metadata><path d="M1.21.86L.14 3.66h6.04V.86H1.21zm5.18 0v2.8h6.11L11.4.86H6.4zM.19 3.89v6.31c0 .64.25 1.18.74 1.64.5.45 1.08.67 1.78.67h7.25c.7 0 1.28-.22 1.78-.67.49-.46.73-1 .73-1.64V3.9h-1.12v6.3c0 .36-.13.66-.4.91a1.4 1.4 0 0 1-.99.38H2.71a1.4 1.4 0 0 1-.99-.38 1.19 1.19 0 0 1-.41-.9V3.88H.19zm1.53 1.4v1.06H2v1.06h.53V6.35h.26V5.29H1.72zm1.32.05v.53h.53v-.53h-.53zm.53.53v.53h.53v-.53h-.53zm.53 0h.53v-.53H4.1v.53zm.53 0v.53h.53v-.53h-.53zm.53 0h.52v-.53h-.52v.53zm.52 0v.53h.53v-.53h-.53zm.53 0h.53v-.53h-.53v.53zm.53 0v.53h.53v-.53h-.53zm.53 0h.53v-.53h-.53v.53zm.53 0v.53h.53v-.53H7.8zm.53 0h.53v-.53h-.53v.53zm.53 0v.53h.53v-.53h-.53zm.53 0h.53v-.53h-.53v.53zm.53 0v.53h.53v-.53h-.53zm.53 0h.53v-.53h-.53v.53zm-8.46-.31h.53v.53h-.53v-.53zm2.3 2.3v.01zm0 .01v.67h-.24v.44h.24v1.57h.48V8.98h.29v-.44h-.29v-.67h-.48zm4.29.62a.48.48 0 0 0-.43.25c-.01-.06.03-.18-.02-.2H7.7v2.01h.48V9.33c.01-.22.22-.38.43-.37V8.5a.48.48 0 0 0-.04 0zm-2.3 0a1.01 1.01 0 0 0-.25.03 1 1 0 0 0-.8.9c-.06.43.15.92.57 1.1.35.15.8.12 1.07-.19.06-.09.02.11.03.16-.03.1.1.05.16.06h.29v-2H6.9v.26a.76.76 0 0 0-.63-.32zm.02.45c.3-.02.58.25.59.56.03.28-.15.6-.45.65-.3.06-.63-.1-.7-.4-.1-.31.06-.72.4-.8a.62.62 0 0 1 .16-.01z" fill="#963996"/></svg>
