<svg xmlns="http://www.w3.org/2000/svg" width="48" height="48"><defs><linearGradient id="a"><stop offset="0" stop-color="#dc85e9"/><stop offset="1" stop-color="#f2cbf8"/></linearGradient><linearGradient id="b"><stop offset="0" stop-color="#dc85e9"/><stop offset="1" stop-color="#f2cbf8"/></linearGradient><linearGradient id="c"><stop offset="0" stop-color="#fff" stop-opacity=".588"/><stop offset="1" stop-color="#fff" stop-opacity=".863"/></linearGradient><linearGradient id="d"><stop offset="0" stop-color="#b3b3b3"/><stop offset="1" stop-color="#e6e6e6"/></linearGradient><linearGradient id="e"><stop offset="0" stop-color="#e694bb"/><stop offset=".262" stop-color="#d3819a"/><stop offset=".705" stop-color="#b25a64"/><stop offset="1" stop-color="#98313d"/></linearGradient></defs><path style="line-height:normal;text-indent:0;text-align:start;text-decoration-line:none;text-transform:none;marker:none" d="M29.705-.084c-2.047.008-4.121.088-4.517.098H7a2.938 2.938 0 0 0-.563 0C5.063.276 3.975 1.612 4 3.012V45c0 1.57 1.43 3 3 3h34c1.57 0 3-1.43 3-3V18.818c.018-.792.215-9.927-.336-10.496L34.054.248c-.284-.275-2.302-.34-4.349-.332zm1.49 3.094l.133 7.504c.012.681.638 1.29 1.317 1.279l7.771-.137c.133.018.268.017.4-.006l.082 3.03L41 18.77v26.227H7V3.021h18.672l5.523-.011zM10.502 9.76c-.565 0-1.023.458-1.023 1.023V21.97c0 .565.458 1.023 1.023 1.023h4.58V37.38c0 .565.458 1.025 1.023 1.025h21.016c.565 0 1.024-.46 1.024-1.025V16.365c0-.565-.459-1.023-1.024-1.023H22.734v-4.559c0-.565-.46-1.023-1.025-1.023H10.502zm1.023 2.047h9.16v1.69h-9.16v-1.69zm0 3.736h3.557v1.666h-3.557v-1.666zm5.604 0h3.557v1.666h-3.557v-1.666zm5.603 1.846h13.366v18.966h-18.97V22.992h4.157l5.295 5.295-.838.84a1.025 1.025 0 0 0 .46 1.713l4.269 1.142c.768.207 1.455-.502 1.254-1.253L30.58 26.46a1.025 1.025 0 0 0-1.713-.459l-.84.838-5.295-5.295V18.24l.002-.008-.002-.005v-.838zm-11.207 1.869h3.557v1.687h-3.557v-1.687zm5.604 0h3.557v1.687h-3.557v-1.687z" color="#000" font-weight="400" font-family="Andale Mono" overflow="visible" fill="#963996"/></svg>
