<svg xmlns="http://www.w3.org/2000/svg" version="1" viewBox="0 0 24 24"><path fill="#5beedc" d="M6.89 2.12v5.9H1.13v2.59l.01.12v8.17h-.01v2.62a1.67 1.67 0 0 0 1.67 1.67h18.66c.93 0 1.68-.75 1.68-1.67V8h-2.66v-.96c0-.39-.12-.76-.33-1.03l-3-3.9H6.89zm8.06 1.29H16l3.05 3.96v3.9h-9.9v-.01h-.83V3.42h6.64l-.01-.01zM3.54 9.72h3.35v1.54H4.02l-.08.02a.62.62 0 0 0-.52.62l.02.1-.02.12v2.9c0 .47.29.85.66.85.36 0 .66-.38.66-.86v-2.47H21.48v8.07a.8.8 0 0 1-.8.8H3.53a.8.8 0 0 1-.81-.8V10.53a.8.8 0 0 1 .8-.8zm16.95 0h.19c.44 0 .8.36.8.81v.73h-1V9.72z"/></svg>
