<svg xmlns="http://www.w3.org/2000/svg" viewBox="0 0 24 24"><path fill="#5beedc" d="M5.22.61a.1.1 0 0 0-.1.1v3.8c0 .06.04.1.1.1h11.8a.1.1 0 0 0 .1-.1V.72a.1.1 0 0 0-.1-.1zm-4 5.1a.1.1 0 0 0-.1.1v8.7c0 .06.04.1.1.1h4.01v-.56h9.09a2.98 2.97 0 0 1 2.92-2.4 2.98 2.97 0 0 1 2.99 2.96h.87a.1.1 0 0 0 .09-.1v-8.7a.1.1 0 0 0-.1-.1zm19 8.9h-3.08v2.98a2.98 2.97 0 0 0 .1 0 2.98 2.97 0 0 0 2.99-2.96 2.98 2.97 0 0 0 0-.02zm-3.08 2.98a2.98 2.97 0 0 1-2.88-2.96 2.98 2.97 0 0 1 0-.02H5.23v3.96h11.9zm-2.88-2.98h2.88v-.56h-2.82a2.98 2.97 0 0 0-.06.56zm3.46-7.58a1.39 1.39 0 0 1 1.39 1.39 1.39 1.39 0 0 1-1.39 1.39 1.39 1.39 0 0 1-1.38-1.4 1.39 1.39 0 0 1 1.38-1.38z" paint-order="markers fill stroke"/><path fill="#5beedc" stroke="#5beedc" stroke-linecap="square" stroke-miterlimit="1.5" stroke-width="1.52" d="M18.83 17.27l.09-.05 2.95 5.22-.09.05z" paint-order="markers fill stroke"/></svg>
