<svg xmlns="http://www.w3.org/2000/svg" width="24" height="24"><path fill="#5beedc" d="M3.78 1.17a1.97 1.97 0 0 0-1.27.58l-.4.4a1.99 1.99 0 0 0 0 2.82l7.63 7.65a2 2 0 0 0 2 .48l6.68 6.67.2.73a.5.5 89.98 0 0 .2.28L21 22.3a.5.5 89.98 0 0 .65-.06l.95-.95a.5.5 89.98 0 0 .05-.65l-1.48-2.18a.5.5 89.98 0 0-.28-.2l-.76-.22-6.66-6.66a1.98 1.98 0 0 0-.5-1.98L5.34 1.76a2 2 0 0 0-1.22-.58 2.04 2.04 0 0 0-.34-.01zm14 .15a.43.43 0 0 0-.08.02 5.41 5.41 0 0 0-2.87 2.25 3.3 3.3 0 0 0-.3 2.45A6.5 6.5 0 0 1 13 8.3l.86.96c.46.81.53 1.46.45 2.01a13.5 13.5 0 0 1 3.33-2.4 3.6 3.6 0 0 0 3.8-1.7c.54-.97.66-2.39.37-3.62a.26.26 0 0 0-.06-.12.25.25 0 0 0-.23-.08.24.24 0 0 0-.2.13l-1.47 2.67c-.13.24-.43.35-.81.34-.39-.01-.84-.15-1.3-.4a2.99 2.99 0 0 1-1.04-.87c-.22-.32-.3-.63-.16-.87l1.47-2.64a.26.26 0 0 0-.02-.3.26.26 0 0 0-.21-.09zM8.5 12.53l-6.27 5.93c-.67.68-.58 1.83.2 2.6.77.76 1.92.84 2.6.17l6.72-7.24c-1.23.39-2.3-.18-3.25-1.45zm-4.7 6.14a.98.98 0 0 1 .7.29.99.99 0 0 1 0 1.39.98.98 0 0 1-1.38 0 .99.99 0 0 1 0-1.39.97.97 0 0 1 .69-.29z"/></svg>
