<?xml version="1.0" encoding="UTF-8" standalone="no"?>
<svg
   xmlns:dc="http://purl.org/dc/elements/1.1/"
   xmlns:cc="http://creativecommons.org/ns#"
   xmlns:rdf="http://www.w3.org/1999/02/22-rdf-syntax-ns#"
   xmlns:svg="http://www.w3.org/2000/svg"
   xmlns="http://www.w3.org/2000/svg"
   xmlns:sodipodi="http://sodipodi.sourceforge.net/DTD/sodipodi-0.dtd"
   xmlns:inkscape="http://www.inkscape.org/namespaces/inkscape"
   width="24"
   height="24"
   id="svg7"
   version="1.1"
   sodipodi:docname="media-optical-audio-new.svg"
   inkscape:version="0.92.4 (5da689c313, 2019-01-14)">
  <metadata
     id="metadata8">
    <rdf:RDF>
      <cc:Work
         rdf:about="">
        <dc:format>image/svg+xml</dc:format>
        <dc:type
           rdf:resource="http://purl.org/dc/dcmitype/StillImage" />
        <dc:title></dc:title>
      </cc:Work>
    </rdf:RDF>
  </metadata>
  <sodipodi:namedview
     pagecolor="#ffffff"
     bordercolor="#666666"
     borderopacity="1"
     objecttolerance="10"
     gridtolerance="10"
     guidetolerance="10"
     inkscape:pageopacity="0"
     inkscape:pageshadow="2"
     inkscape:window-width="1078"
     inkscape:window-height="480"
     id="namedview6"
     showgrid="false"
     inkscape:zoom="9.8333333"
     inkscape:cx="-0.81355932"
     inkscape:cy="12"
     inkscape:window-x="0"
     inkscape:window-y="28"
     inkscape:window-maximized="0"
     inkscape:current-layer="svg7" />
  <defs
     id="defs3">
    <style
       id="current-color-scheme" />
  </defs>
  <path
     style="color:#bebebe;font-weight:400;font-family:sans-serif;font-variant-ligatures:normal;font-variant-position:normal;font-variant-caps:normal;font-variant-numeric:normal;font-variant-alternates:normal;font-feature-settings:normal;text-indent:0;text-decoration:none;text-decoration-line:none;text-decoration-style:solid;text-decoration-color:#000000;text-transform:none;text-orientation:mixed;white-space:normal;shape-padding:0;overflow:visible;isolation:auto;mix-blend-mode:normal;fill:#5beedc;stroke-width:1.70000005"
     d="M 12,1.36 C 6.16,1.36 1.36,6.16 1.36,12 c 0,5.84 4.8,10.92 10.64,10.64 0.51,-0.02 0.31,-0.01 0.74,-0.07 -0.59,-2.17 0.5,-3.83 2.46,-3.6 v -3.71 c -0.82,0.8 -1.94,1.3 -3.2,1.3 -2.55,0 -4.56,-2 -4.56,-4.56 0,-2.55 2,-4.56 4.56,-4.56 2.55,0 4.56,2 4.56,4.56 0,0.23 -0.1,0.43 -0.13,0.66 h 6.08 C 22.52,12.43 22.64,12.23 22.64,12 22.64,6.16 17.84,1.36 12,1.36 Z m 0,7.6 A 3.05,3.05 0 0 0 8.96,12 3.05,3.05 0 0 0 12,15.04 3.05,3.05 0 0 0 15.04,12 3.05,3.05 0 0 0 12,8.96 Z m 0,1.52 c 0.85,0 1.52,0.67 1.52,1.52 A 1.5,1.5 0 0 1 12,13.52 1.5,1.5 0 0 1 10.48,12 c 0,-0.85 0.67,-1.52 1.52,-1.52 z m 10.48,3.17 h -6.43 v 5.86 a 1.99,1.99 0 0 0 -0.71,-0.14 2.14,2.14 0 1 0 2.14,2.14 v -5 h 4.29 v 3 a 1.99,1.99 0 0 0 -0.72,-0.14 2.14,2.14 0 1 0 2.15,2.14 v -7.86 z m -2.92,5.78 c -0.04,0.04 -0.13,0.03 -0.17,0.07 -0.04,0.03 -0.03,0.1 -0.07,0.14 0.08,-0.08 0.17,-0.13 0.24,-0.21 z"
     id="path863"
     font-weight="400"
     overflow="visible"
     inkscape:connector-curvature="0" />
</svg>
