<svg xmlns="http://www.w3.org/2000/svg" width="24" height="24" id="svg7"><defs id="defs3"><style id="current-color-scheme"></style></defs><path style="font-variant-ligatures:normal;font-variant-position:normal;font-variant-caps:normal;font-variant-numeric:normal;font-variant-alternates:normal;font-feature-settings:normal;text-indent:0;text-decoration-line:none;text-decoration-style:solid;text-decoration-color:#000;text-transform:none;text-orientation:mixed;shape-padding:0;isolation:auto;mix-blend-mode:normal" d="M12 1.36C6.16 1.36 1.36 6.16 1.36 12c0 4.92 3.47 8.91 8.03 10.1L22.11 9.4A10.55 10.55 0 0 0 12 1.35zm0 6.08c2.55 0 4.56 2 4.56 4.56 0 2.55-2 4.56-4.56 4.56-2.55 0-4.56-2-4.56-4.56 0-2.55 2-4.56 4.56-4.56zm0 1.52A3.05 3.05 0 0 0 8.96 12 3.05 3.05 0 0 0 12 15.04 3.05 3.05 0 0 0 15.04 12 3.05 3.05 0 0 0 12 8.96zm0 1.52c.85 0 1.52.67 1.52 1.52A1.5 1.5 0 0 1 12 13.52 1.5 1.5 0 0 1 10.48 12c0-.85.67-1.52 1.52-1.52zm9.33 1.26a.67.67 0 0 0-.47.2l-1.22 1.22 2.5 2.5 1.22-1.21a.67.67 0 0 0 0-.95l-1.55-1.56a.67.67 0 0 0-.48-.2zm-2.4 2.13l-7.37 7.38v2.5h2.5l7.38-7.38-2.5-2.5z" id="path2-3" color="#bebebe" font-weight="400" font-family="sans-serif" white-space="normal" overflow="visible" fill="#5beedc" stroke-width="1.7"/></svg>
