<svg xmlns="http://www.w3.org/2000/svg" width="24" height="24"><path fill="#5beedc" d="M12 1.63c-.5 0-.98.19-1.35.56L5.9 6.93a1.89 1.89 0 0 0-.56 1.35v12.18a1.91 1.91 0 0 0 1.91 1.9h9.47c.5 0 .98-.18 1.36-.55a1.91 1.91 0 0 0 .56-1.36V8.28c0-.49-.19-.98-.56-1.35l-4.74-4.74A1.9 1.9 0 0 0 12 1.63zm0 2.5c.36 0 .73.15 1.01.43a1.43 1.43 0 0 1 0 2.03 1.43 1.43 0 0 1-2.03 0 1.43 1.43 0 0 1 0-2.03A1.43 1.43 0 0 1 12 4.14zm-.96 6.04h1.92v2.87h2.87v1.92h-2.87v2.87h-1.92v-2.87H8.17v-1.92h2.87v-2.87z"/></svg>
