<?xml version="1.0" encoding="UTF-8" standalone="no"?>
<svg
   xmlns:dc="http://purl.org/dc/elements/1.1/"
   xmlns:cc="http://creativecommons.org/ns#"
   xmlns:rdf="http://www.w3.org/1999/02/22-rdf-syntax-ns#"
   xmlns:svg="http://www.w3.org/2000/svg"
   xmlns="http://www.w3.org/2000/svg"
   xmlns:sodipodi="http://sodipodi.sourceforge.net/DTD/sodipodi-0.dtd"
   xmlns:inkscape="http://www.inkscape.org/namespaces/inkscape"
   width="48"
   height="48"
   viewBox="0 0 12.7 12.7"
   version="1.1"
   id="svg4"
   sodipodi:docname="affcat.svg"
   inkscape:version="0.92.5 (2060ec1f9f, 2020-04-08)">
  <metadata
     id="metadata10">
    <rdf:RDF>
      <cc:Work
         rdf:about="">
        <dc:format>image/svg+xml</dc:format>
        <dc:type
           rdf:resource="http://purl.org/dc/dcmitype/StillImage" />
        <dc:title></dc:title>
      </cc:Work>
    </rdf:RDF>
  </metadata>
  <defs
     id="defs8" />
  <sodipodi:namedview
     pagecolor="#ffffff"
     bordercolor="#666666"
     borderopacity="1"
     objecttolerance="10"
     gridtolerance="10"
     guidetolerance="10"
     inkscape:pageopacity="0"
     inkscape:pageshadow="2"
     inkscape:window-width="1085"
     inkscape:window-height="480"
     id="namedview6"
     showgrid="false"
     inkscape:zoom="4.9166667"
     inkscape:cx="2.1355932"
     inkscape:cy="24"
     inkscape:window-x="0"
     inkscape:window-y="25"
     inkscape:window-maximized="0"
     inkscape:current-layer="svg4" />
  <path
     d="M 6.34,0.07 A 6.29,6.29 0 0 0 0.05,6.37 6.29,6.29 0 0 0 6.35,12.65 6.29,6.29 0 0 0 9.303,11.905 2.646,2.646 0 0 1 9.26,11.906 2.646,2.646 0 0 1 8.996,11.893 2.646,2.646 0 0 1 8.735,11.853 2.646,2.646 0 0 1 8.479,11.788 2.646,2.646 0 0 1 8.23,11.698 2.646,2.646 0 0 1 7.992,11.582 2.646,2.646 0 0 1 7.959,11.562 5.4,5.4 0 0 1 6.329,11.82 5.4,5.4 0 0 1 0.919,6.42 5.4,5.4 0 0 1 6.32,1 l 0.01,0.01 a 5.4,5.4 0 0 1 5.4,5.4 5.4,5.4 0 0 1 -0.209,1.481 2.646,2.646 0 0 1 0.097,0.17 2.646,2.646 0 0 1 0.108,0.24 2.646,2.646 0 0 1 0.084,0.251 2.646,2.646 0 0 1 0.058,0.259 2.646,2.646 0 0 1 0.032,0.262 2.646,2.646 0 0 1 0.006,0.187 2.646,2.646 0 0 1 0,0.023 A 6.29,6.29 0 0 0 12.63,6.36 6.29,6.29 0 0 0 6.34,0.07 Z M 2.7,3.24 c -0.14,0 -0.26,0.02 -0.26,0.04 v 0.74 c 0,0.02 0.12,0.04 0.26,0.04 h 7.25 c 0.14,0 0.26,-0.02 0.26,-0.04 V 3.28 C 10.21,3.26 10.09,3.24 9.95,3.24 Z M 2.46,4.25 v 5.06 c 0,0.14 0.11,0.26 0.26,0.26 H 6.636 A 2.646,2.646 0 0 1 6.621,9.447 2.646,2.646 0 0 1 6.615,9.26 2.646,2.646 0 0 1 6.628,8.996 2.646,2.646 0 0 1 6.668,8.735 2.646,2.646 0 0 1 6.733,8.479 2.646,2.646 0 0 1 6.823,8.23 2.646,2.646 0 0 1 6.939,7.992 2.646,2.646 0 0 1 7.077,7.766 2.646,2.646 0 0 1 7.237,7.556 2.646,2.646 0 0 1 7.417,7.362 2.646,2.646 0 0 1 7.616,7.188 2.646,2.646 0 0 1 7.831,7.034 2.646,2.646 0 0 1 8.061,6.902 2.646,2.646 0 0 1 8.301,6.794 2.646,2.646 0 0 1 8.552,6.711 2.646,2.646 0 0 1 8.811,6.653 2.646,2.646 0 0 1 9.073,6.621 2.646,2.646 0 0 1 9.26,6.615 2.646,2.646 0 0 1 9.524,6.628 2.646,2.646 0 0 1 9.786,6.668 2.646,2.646 0 0 1 10.042,6.733 2.646,2.646 0 0 1 10.22,6.798 V 4.26 Z m 0.48,0.83 h 1.1 v 1.29 h -1.1 z m 0,1.84 h 1.1 v 1.29 h -1.1 z m 6.295,0.234 a 2.088,2.088 0 0 0 -2.082,2.081 2.088,2.088 0 0 0 2.082,2.081 c 0.437,0 0.844,-0.137 1.18,-0.368 l 1.393,1.392 a 0.379,0.379 0 1 0 0.535,-0.535 l -1.394,-1.392 c 0.232,-0.336 0.369,-0.741 0.369,-1.178 A 2.088,2.088 0 0 0 9.235,7.155 Z m 0,0.757 A 1.32,1.32 0 0 1 10.56,9.235 1.32,1.32 0 0 1 9.235,10.56 1.32,1.32 0 0 1 7.91,9.235 C 7.91,8.5 8.5,7.911 9.236,7.911 Z"
     id="path2"
     inkscape:connector-curvature="0"
     style="fill:#1e3f5a" />
</svg>
