<?xml version="1.0" encoding="UTF-8" standalone="no"?>
<svg
   xmlns:dc="http://purl.org/dc/elements/1.1/"
   xmlns:cc="http://creativecommons.org/ns#"
   xmlns:rdf="http://www.w3.org/1999/02/22-rdf-syntax-ns#"
   xmlns:svg="http://www.w3.org/2000/svg"
   xmlns="http://www.w3.org/2000/svg"
   xmlns:sodipodi="http://sodipodi.sourceforge.net/DTD/sodipodi-0.dtd"
   xmlns:inkscape="http://www.inkscape.org/namespaces/inkscape"
   width="48"
   height="48"
   viewBox="0 0 12.7 12.7"
   version="1.1"
   id="svg4"
   sodipodi:docname="distributor-logo-kali-linux.svg"
   inkscape:version="0.92.5 (2060ec1f9f, 2020-04-08)">
  <metadata
     id="metadata10">
    <rdf:RDF>
      <cc:Work
         rdf:about="">
        <dc:format>image/svg+xml</dc:format>
        <dc:type
           rdf:resource="http://purl.org/dc/dcmitype/StillImage" />
        <dc:title></dc:title>
      </cc:Work>
    </rdf:RDF>
  </metadata>
  <defs
     id="defs8" />
  <sodipodi:namedview
     pagecolor="#ffffff"
     bordercolor="#666666"
     borderopacity="1"
     objecttolerance="10"
     gridtolerance="10"
     guidetolerance="10"
     inkscape:pageopacity="0"
     inkscape:pageshadow="2"
     inkscape:window-width="1085"
     inkscape:window-height="480"
     id="namedview6"
     showgrid="false"
     inkscape:zoom="4.9166667"
     inkscape:cx="2.1355932"
     inkscape:cy="24"
     inkscape:window-x="0"
     inkscape:window-y="25"
     inkscape:window-maximized="0"
     inkscape:current-layer="svg4" />
  <path
     d="M 6.34,0.075 A 6.295,6.295 0 0 0 0.055,6.36 6.295,6.295 0 0 0 6.34,12.655 6.295,6.295 0 0 0 12.634,6.36 6.295,6.295 0 0 0 6.34,0.075 Z m -0.011,0.94 a 5.408,5.408 0 0 1 5.397,5.387 5.407,5.407 0 0 1 -10.814,0 c 0,-2.987 2.43,-5.387 5.417,-5.387 z M 5.624,1.4 c -0.01,0 0.213,0.477 0.366,0.781 0.073,0.145 0.237,0.433 0.368,0.64 0.129,0.204 0.23,0.376 0.227,0.382 A 2.132,2.132 0 0 1 6.339,3.133 C 6.071,3.047 5.892,2.96 5.479,2.715 A 7.29,7.29 0 0 0 5.183,2.545 c -0.003,0 0.006,0.089 0.02,0.197 0.014,0.11 0.02,0.201 0.011,0.21 A 3.094,3.094 0 0 1 4.829,2.807 C 4.295,2.586 4.189,2.547 4.189,2.575 c 0,0.011 0.026,0.09 0.054,0.17 0.106,0.29 0.109,0.274 -0.045,0.271 -0.072,0 -0.324,-0.022 -0.553,-0.05 A 4.67,4.67 0 0 0 3.218,2.924 C 3.213,2.927 3.279,3.027 3.368,3.141 3.455,3.259 3.522,3.36 3.517,3.365 3.511,3.374 3.285,3.415 3.017,3.463 2.749,3.513 2.503,3.561 2.475,3.572 2.431,3.592 2.45,3.616 2.609,3.742 c 0.1,0.08 0.185,0.15 0.185,0.156 0,0.006 -0.162,0.112 -0.36,0.238 C 2.238,4.261 2.04,4.392 1.998,4.426 L 1.92,4.487 2.163,4.554 c 0.13,0.034 0.24,0.073 0.24,0.081 0,0.009 -0.137,0.207 -0.308,0.436 A 7.536,7.536 0 0 0 1.789,5.509 c 0,0.01 0.117,0.025 0.26,0.028 L 2.311,5.545 2.194,6.048 A 7.387,7.387 0 0 0 2.082,6.558 C 2.085,6.561 2.185,6.52 2.302,6.464 2.426,6.405 2.529,6.372 2.54,6.386 c 0.02,0.022 0.226,0.723 0.226,0.77 0,0.011 0.014,0.053 0.028,0.095 L 2.824,7.326 2.958,7.195 3.092,7.061 3.355,7.273 c 0.146,0.114 0.36,0.268 0.477,0.338 a 16.9,16.9 0 0 0 1.67,0.81 c 1.284,0.536 1.836,0.862 2.33,1.387 0.28,0.296 0.43,0.583 0.542,1.033 l 0.078,0.315 0.022,-0.165 c 0.031,-0.232 0,-0.675 -0.055,-0.84 A 3.57,3.57 0 0 0 8.201,9.705 2.225,2.225 0 0 0 7.776,9.146 C 7.341,8.706 6.895,8.403 6.253,8.11 4.913,7.504 4.516,7.267 3.983,6.76 3.413,6.215 3.199,5.724 3.293,5.182 3.363,4.792 3.646,4.395 3.989,4.211 4.324,4.029 4.499,3.991 5.013,3.977 5.583,3.96 5.803,4.002 6.28,4.214 A 3.582,3.582 0 0 1 7.713,5.355 C 8.023,5.757 8.05,5.779 8.935,6.357 9.343,6.622 9.703,7.033 9.812,7.354 9.87,7.53 9.868,7.58 9.787,7.778 a 2.25,2.25 0 0 0 -0.07,0.18 c 0,0.035 0.234,-0.04 0.43,-0.138 0.279,-0.137 0.469,-0.296 0.606,-0.508 0.12,-0.187 0.187,-0.421 0.14,-0.48 A 1.259,1.259 0 0 0 10.672,6.687 C 10.429,6.545 10.032,6.151 9.932,5.95 L 9.854,5.797 9.918,5.746 A 0.16,0.16 0 0 1 10.063,5.71 L 10.147,5.726 10.049,5.623 A 3.002,3.002 0 0 1 9.633,5.057 C 9.293,4.462 9.131,4.275 8.463,3.703 8.011,3.315 7.5,2.784 6.869,2.042 L 6.474,1.581 c -0.04,-0.042 0.245,0.59 0.37,0.82 0.148,0.274 0.38,0.632 0.542,0.827 C 7.626,3.524 7.478,3.446 7.116,3.086 6.636,2.608 6.283,2.221 5.923,1.768 5.761,1.568 5.627,1.4 5.624,1.4 Z m 3.244,3.368 0.465,0.697 c 0,0 -0.233,0 -0.465,-0.232 -0.232,-0.232 0,-0.465 0,-0.465 z"
     id="path2"
     inkscape:connector-curvature="0"
     style="fill:#1e3f5a" />
</svg>
