<?xml version="1.0" encoding="UTF-8" standalone="no"?>
<svg
   xmlns:dc="http://purl.org/dc/elements/1.1/"
   xmlns:cc="http://creativecommons.org/ns#"
   xmlns:rdf="http://www.w3.org/1999/02/22-rdf-syntax-ns#"
   xmlns:svg="http://www.w3.org/2000/svg"
   xmlns="http://www.w3.org/2000/svg"
   xmlns:sodipodi="http://sodipodi.sourceforge.net/DTD/sodipodi-0.dtd"
   xmlns:inkscape="http://www.inkscape.org/namespaces/inkscape"
   width="48"
   height="48"
   viewBox="0 0 12.7 12.7"
   version="1.1"
   id="svg4"
   sodipodi:docname="driftnet.svg"
   inkscape:version="0.92.5 (2060ec1f9f, 2020-04-08)">
  <metadata
     id="metadata10">
    <rdf:RDF>
      <cc:Work
         rdf:about="">
        <dc:format>image/svg+xml</dc:format>
        <dc:type
           rdf:resource="http://purl.org/dc/dcmitype/StillImage" />
        <dc:title></dc:title>
      </cc:Work>
    </rdf:RDF>
  </metadata>
  <defs
     id="defs8" />
  <sodipodi:namedview
     pagecolor="#ffffff"
     bordercolor="#666666"
     borderopacity="1"
     objecttolerance="10"
     gridtolerance="10"
     guidetolerance="10"
     inkscape:pageopacity="0"
     inkscape:pageshadow="2"
     inkscape:window-width="1085"
     inkscape:window-height="480"
     id="namedview6"
     showgrid="false"
     inkscape:zoom="4.9166667"
     inkscape:cx="2.1355932"
     inkscape:cy="24"
     inkscape:window-x="0"
     inkscape:window-y="25"
     inkscape:window-maximized="0"
     inkscape:current-layer="svg4" />
  <path
     d="m 6.35,0.06 a 6.29,6.29 0 0 0 -6.29,6.288 6.29,6.29 0 0 0 6.29,6.29 V 12.64 A 6.29,6.29 0 0 0 12.64,6.35 6.29,6.29 0 0 0 6.35,0.06 Z M 6.332,0.888 a 5.407,5.407 0 0 1 3.733,1.498 H 7.556 V 2.148 C 7.556,2.023 7.383,1.921 7.169,1.921 H 5.517 C 5.303,1.921 5.13,2.023 5.13,2.148 V 2.386 H 2.606 A 5.407,5.407 0 0 1 6.332,0.888 Z m 4.367,2.228 a 5.407,5.407 0 0 1 1.04,3.18 5.407,5.407 0 0 1 -5.407,5.407 V 11.702 A 5.407,5.407 0 0 1 0.925,6.296 5.407,5.407 0 0 1 1.958,3.128 0.954,0.954 0 0 0 2.202,3.162 H 5.13 v 0.29 c 0,0.124 0.173,0.224 0.387,0.224 H 5.904 V 4.178 H 3.584 A 0.172,0.172 0 0 0 3.412,4.35 v 5.442 c 0,0.094 0.085,0.172 0.171,0.172 H 7.917 L 7.47,9.534 C 7.34,9.603 7.212,9.68 7.075,9.723 A 1.977,1.977 0 0 1 5.698,9.663 2.012,2.012 0 0 1 4.632,8.596 C 4.606,8.536 4.607,8.459 4.589,8.39 H 3.962 A 0.12,0.12 0 0 1 3.842,8.279 V 4.737 c 0,-0.07 0.05,-0.12 0.12,-0.12 h 4.565 c 0.069,0 0.12,0.05 0.12,0.12 v 3.542 c 0,0.06 -0.051,0.111 -0.12,0.111 H 8.373 V 8.424 A 1.891,1.891 0 0 1 8.166,8.846 L 9.077,9.749 V 4.358 A 0.172,0.172 0 0 0 8.905,4.178 H 6.807 V 3.676 h 0.361 c 0.214,0 0.388,-0.1 0.388,-0.226 V 3.16 h 2.851 A 0.912,0.912 0 0 0 10.699,3.116 Z M 6.481,6.009 A 1.823,1.823 0 0 0 4.667,7.832 1.823,1.823 0 0 0 7.512,9.327 l 1.213,1.221 A 0.335,0.335 0 1 0 9.197,10.075 L 7.977,8.863 C 8.175,8.571 8.295,8.21 8.295,7.832 A 1.823,1.823 0 0 0 6.48,6.009 Z m 0,0.662 a 1.152,1.152 0 0 1 1.16,1.16 c 0,0.645 -0.515,1.152 -1.16,1.152 A 1.152,1.152 0 0 1 5.321,7.832 c 0,-0.645 0.515,-1.161 1.16,-1.161 z"
     id="path2"
     inkscape:connector-curvature="0"
     style="fill:#1e3f5a" />
</svg>
