<?xml version="1.0" encoding="UTF-8" standalone="no"?>
<svg
   xmlns:dc="http://purl.org/dc/elements/1.1/"
   xmlns:cc="http://creativecommons.org/ns#"
   xmlns:rdf="http://www.w3.org/1999/02/22-rdf-syntax-ns#"
   xmlns:svg="http://www.w3.org/2000/svg"
   xmlns="http://www.w3.org/2000/svg"
   xmlns:sodipodi="http://sodipodi.sourceforge.net/DTD/sodipodi-0.dtd"
   xmlns:inkscape="http://www.inkscape.org/namespaces/inkscape"
   width="48"
   height="48"
   viewBox="0 0 12.7 12.7"
   version="1.1"
   id="svg8"
   sodipodi:docname="google-play-music-desktop-player.svg"
   inkscape:version="0.92.4 (5da689c313, 2019-01-14)">
  <metadata
     id="metadata14">
    <rdf:RDF>
      <cc:Work
         rdf:about="">
        <dc:format>image/svg+xml</dc:format>
        <dc:type
           rdf:resource="http://purl.org/dc/dcmitype/StillImage" />
        <dc:title></dc:title>
      </cc:Work>
    </rdf:RDF>
  </metadata>
  <defs
     id="defs12" />
  <sodipodi:namedview
     pagecolor="#ffffff"
     bordercolor="#666666"
     borderopacity="1"
     objecttolerance="10"
     gridtolerance="10"
     guidetolerance="10"
     inkscape:pageopacity="0"
     inkscape:pageshadow="2"
     inkscape:window-width="1112"
     inkscape:window-height="480"
     id="namedview10"
     showgrid="false"
     inkscape:zoom="4.9166667"
     inkscape:cx="2.1355932"
     inkscape:cy="24"
     inkscape:window-x="0"
     inkscape:window-y="25"
     inkscape:window-maximized="0"
     inkscape:current-layer="svg8" />
  <path
     d="M 6.33,2.048 A 4.344,4.344 0 0 0 1.987,6.408 4.344,4.344 0 0 0 6.339,10.752 4.344,4.344 0 0 0 10.683,6.4 4.344,4.344 0 0 0 6.339,2.056 L 6.331,2.048 Z M 6.46,2.76 a 3.57,3.57 0 0 1 3.47,3.57 3.57,3.57 0 1 1 -7.14,0 3.57,3.57 0 0 1 3.67,-3.57 z"
     id="path2"
     inkscape:connector-curvature="0"
     style="opacity:0.75;fill:#ff6600" />
  <path
     d="m 6.34,0.07 a 6.29,6.29 0 1 0 0,12.58 6.29,6.29 0 0 0 0,-12.58 z M 6.32,1 A 5.417,5.417 0 0 1 11.73,6.41 5.4,5.4 0 0 1 6.33,11.82 5.4,5.4 0 0 1 0.92,6.42 5.4,5.4 0 0 1 6.32,1 Z"
     id="path4"
     inkscape:connector-curvature="0"
     style="fill:#1e3f5a" />
  <path
     d="M 6.46,2.76 A 3.57,3.57 0 0 0 2.79,6.33 3.57,3.57 0 1 0 9.93,6.33 3.57,3.57 0 0 0 6.46,2.76 Z M 5.38,4.34 C 5.41,4.32 6.9,5.24 6.93,5.26 6.97,5.27 8.5,6.16 8.5,6.19 8.5,6.23 6.98,7.1 6.95,7.12 6.92,7.14 5.41,8.07 5.38,8.05 c -0.04,-0.02 0,-1.81 0,-1.85 0,-0.04 -0.04,-1.84 0,-1.86 z"
     id="path6"
     inkscape:connector-curvature="0"
     style="opacity:0.75;fill:#ffd42a" />
</svg>
