<?xml version="1.0" encoding="UTF-8" standalone="no"?>
<svg
   xmlns:dc="http://purl.org/dc/elements/1.1/"
   xmlns:cc="http://creativecommons.org/ns#"
   xmlns:rdf="http://www.w3.org/1999/02/22-rdf-syntax-ns#"
   xmlns:svg="http://www.w3.org/2000/svg"
   xmlns="http://www.w3.org/2000/svg"
   xmlns:sodipodi="http://sodipodi.sourceforge.net/DTD/sodipodi-0.dtd"
   xmlns:inkscape="http://www.inkscape.org/namespaces/inkscape"
   width="48"
   height="48"
   version="1"
   id="svg15"
   sodipodi:docname="visual-studio-code-insiders.svg"
   inkscape:version="0.92.4 (5da689c313, 2019-01-14)">
  <metadata
     id="metadata19">
    <rdf:RDF>
      <cc:Work
         rdf:about="">
        <dc:format>image/svg+xml</dc:format>
        <dc:type
           rdf:resource="http://purl.org/dc/dcmitype/StillImage" />
        <dc:title></dc:title>
      </cc:Work>
    </rdf:RDF>
  </metadata>
  <sodipodi:namedview
     pagecolor="#ffffff"
     bordercolor="#666666"
     borderopacity="1"
     objecttolerance="10"
     gridtolerance="10"
     guidetolerance="10"
     inkscape:pageopacity="0"
     inkscape:pageshadow="2"
     inkscape:window-width="1087"
     inkscape:window-height="480"
     id="namedview17"
     showgrid="false"
     inkscape:zoom="4.9166667"
     inkscape:cx="2.1355932"
     inkscape:cy="24"
     inkscape:window-x="0"
     inkscape:window-y="25"
     inkscape:window-maximized="0"
     inkscape:current-layer="svg15" />
  <defs
     id="defs7">
    <linearGradient
       id="a">
      <stop
         offset="0"
         stop-color="#040000"
         id="stop2" />
      <stop
         offset="1"
         stop-opacity="0"
         id="stop4" />
    </linearGradient>
  </defs>
  <path
     d="M 24,0.229 V 0.232 A 23.773,23.773 0 0 0 0.227,24.006 23.773,23.773 0 0 0 24,47.77 23.773,23.773 0 0 0 47.773,24.001 23.773,23.773 0 0 0 24,0.229 Z M 23.934,3.771 A 20.436,20.436 0 0 1 44.369,24.207 20.436,20.436 0 0 1 23.934,44.643 20.436,20.436 0 0 1 3.5,24.207 20.436,20.436 0 0 1 23.934,3.773 Z"
     id="path9"
     inkscape:connector-curvature="0"
     style="fill:#1e3f5a" />
  <text
     style="font-weight:400;font-size:13.33300018px;line-height:1.25;font-family:circlefont;-inkscape-font-specification:circlefont;letter-spacing:0;word-spacing:0"
     x="10.768"
     y="22.691"
     font-weight="400"
     font-size="13.333"
     letter-spacing="0"
     word-spacing="0"
     id="text11" />
  <path
     d="m 26.094,7.84 4.164,26 H 7.094 l 23.964,4.997 7.036,-4.113 -4.016,-25.093 z m -7.098,6 -6.123,8.339 -4.57,-2.445 -2.209,0.728 5.253,3.794 -3.825,5.209 2.33,0.019 3.589,-3.716 8.41,6.072 4.243,-2.584 -2.262,-14.25 z m 0.841,5.303 1.173,7.391 -5.478,-2.932 z"
     id="path13"
     inkscape:connector-curvature="0"
     style="opacity:0.75;fill:#2ca02c" />
</svg>
