<?xml version="1.0" encoding="UTF-8" standalone="no"?>
<svg
   xmlns:dc="http://purl.org/dc/elements/1.1/"
   xmlns:cc="http://creativecommons.org/ns#"
   xmlns:rdf="http://www.w3.org/1999/02/22-rdf-syntax-ns#"
   xmlns:svg="http://www.w3.org/2000/svg"
   xmlns="http://www.w3.org/2000/svg"
   xmlns:sodipodi="http://sodipodi.sourceforge.net/DTD/sodipodi-0.dtd"
   xmlns:inkscape="http://www.inkscape.org/namespaces/inkscape"
   width="48"
   height="48"
   viewBox="0 0 12.7 12.7"
   version="1.1"
   id="svg4"
   sodipodi:docname="wine-help.svg"
   inkscape:version="0.92.4 (5da689c313, 2019-01-14)">
  <metadata
     id="metadata10">
    <rdf:RDF>
      <cc:Work
         rdf:about="">
        <dc:format>image/svg+xml</dc:format>
        <dc:type
           rdf:resource="http://purl.org/dc/dcmitype/StillImage" />
        <dc:title></dc:title>
      </cc:Work>
    </rdf:RDF>
  </metadata>
  <defs
     id="defs8" />
  <sodipodi:namedview
     pagecolor="#ffffff"
     bordercolor="#666666"
     borderopacity="1"
     objecttolerance="10"
     gridtolerance="10"
     guidetolerance="10"
     inkscape:pageopacity="0"
     inkscape:pageshadow="2"
     inkscape:window-width="1087"
     inkscape:window-height="480"
     id="namedview6"
     showgrid="false"
     inkscape:zoom="4.9166667"
     inkscape:cx="2.1355932"
     inkscape:cy="24"
     inkscape:window-x="0"
     inkscape:window-y="25"
     inkscape:window-maximized="0"
     inkscape:current-layer="svg4" />
  <path
     d="M 6.34,0.07 A 6.29,6.29 0 0 0 0.05,6.37 6.29,6.29 0 0 0 6.35,12.65 6.29,6.29 0 0 0 12.63,6.36 6.29,6.29 0 0 0 6.34,0.07 Z M 6.33,1.01 a 5.4,5.4 0 0 1 5.4,5.4 5.4,5.4 0 0 1 -5.4,5.41 A 5.4,5.4 0 0 1 0.92,6.42 5.4,5.4 0 0 1 6.32,1 Z M 9.73,2.43 5.49,3.05 V 6.2 L 9.72,6.16 V 2.43 Z M 5.11,3.11 1.91,3.54 1.92,6.2 5.11,6.19 V 3.1 Z M 1.92,6.52 V 9.18 L 5.11,9.62 V 6.54 Z m 3.57,0.04 v 3.1 L 6.66,9.83 A 2.12,2.12 0 0 1 6.62,9.67 2.12,2.12 0 0 1 6.58,9.47 2.12,2.12 0 0 1 6.58,9.25 2.12,2.12 0 0 1 6.58,9.1 2.12,2.12 0 0 1 6.6,8.9 2.12,2.12 0 0 1 6.65,8.68 2.12,2.12 0 0 1 6.72,8.48 2.12,2.12 0 0 1 6.8,8.29 2.12,2.12 0 0 1 6.9,8.11 2.12,2.12 0 0 1 7.03,7.93 2.12,2.12 0 0 1 7.17,7.78 2.12,2.12 0 0 1 7.33,7.63 2.12,2.12 0 0 1 7.5,7.5 2.12,2.12 0 0 1 7.68,7.4 2.12,2.12 0 0 1 7.87,7.3 a 2.12,2.12 0 0 1 0.2,-0.07 2.12,2.12 0 0 1 0.2,-0.05 2.12,2.12 0 0 1 0.2,-0.04 2.12,2.12 0 0 1 0.22,0 2.12,2.12 0 0 1 0.15,0 2.12,2.12 0 0 1 0.21,0.02 2.12,2.12 0 0 1 0.2,0.05 2.12,2.12 0 0 1 0.2,0.07 2.12,2.12 0 0 1 0.2,0.08 2.12,2.12 0 0 1 0.07,0.05 V 6.57 H 5.5 Z m 3.2,1.1 A 1.59,1.59 0 0 0 7.1,9.26 1.59,1.59 0 0 0 8.69,10.84 1.59,1.59 0 0 0 10.28,9.25 1.59,1.59 0 0 0 8.69,7.66 Z M 8.67,8.19 c 0.1,0 0.19,0.01 0.26,0.04 0.08,0.02 0.14,0.05 0.2,0.1 0.05,0.04 0.1,0.1 0.12,0.16 0.03,0.06 0.04,0.13 0.04,0.21 0,0.06 0,0.11 -0.02,0.16 A 0.48,0.48 0 0 1 9.21,8.99 0.64,0.64 0 0 1 9.11,9.1 2.1,2.1 0 0 1 8.89,9.3 0.4,0.4 0 0 0 8.83,9.37 0.2,0.2 0 0 0 8.8,9.43 V 9.59 H 8.42 v -0.1 c 0,-0.05 0,-0.1 0.02,-0.13 A 0.43,0.43 0 0 1 8.56,9.14 L 8.67,9.04 A 1.95,1.95 0 0 0 8.84,8.89 0.25,0.25 0 0 0 8.88,8.81 V 8.72 C 8.88,8.67 8.87,8.62 8.83,8.59 8.8,8.55 8.74,8.54 8.67,8.54 A 0.61,0.61 0 0 0 8.46,8.58 L 8.23,8.68 8.09,8.37 A 1.34,1.34 0 0 1 8.67,8.19 Z M 8.62,9.83 8.72,9.84 8.8,9.89 a 0.2,0.2 0 0 1 0.05,0.07 l 0.02,0.11 c 0,0.04 0,0.08 -0.02,0.1 A 0.2,0.2 0 0 1 8.8,10.25 0.21,0.21 0 0 1 8.72,10.3 0.34,0.34 0 0 1 8.52,10.3 0.2,0.2 0 0 1 8.39,10.18 0.28,0.28 0 0 1 8.38,10.08 L 8.39,9.96 A 0.19,0.19 0 0 1 8.45,9.89 0.2,0.2 0 0 1 8.53,9.84 h 0.1 z"
     id="path2"
     inkscape:connector-curvature="0"
     style="fill:#1e3f5a" />
</svg>
