<svg xmlns="http://www.w3.org/2000/svg" width="24" height="24"><path d="M6.56 2.36v2.76a6.27 7 0 0 1 .16 0 6.27 7 0 0 1 4.5 2.12 7.5 8.37 0 0 0-.1.14 7.5 8.37 0 0 0-.39.71 7.5 8.37 0 0 0-.33.76 7.5 8.37 0 0 0-.2.6A4.22 4.7 0 0 0 6.73 7.4a4.22 4.7 0 0 0-.16 0v3.22L1.05 6.5zM17.2 5.1a6.27 7 0 0 1 5.48 3.62h-2.54A4.22 4.7 0 0 0 17.2 7.4a4.22 4.7 0 0 0-4.22 4.7 6.27 7 0 0 1-6.27 7 6.27 7 0 0 1-.16-.01v2.55l-5.51-4.13 5.5-4.13v3.42a4.22 4.7 0 0 0 .17.01 4.22 4.7 0 0 0 4.22-4.7 6.27 7 0 0 1 6.27-7zm-3.7 9.25a4.22 4.7 0 0 0 3.7 2.45 4.22 4.7 0 0 0 3.39-1.92h2.35a6.27 7 0 0 1-5.74 4.2 6.27 7 0 0 1-4.68-2.34 7.5 8.37 0 0 0 .35-.63 7.5 8.37 0 0 0 .32-.76 7.5 8.37 0 0 0 .26-.78 7.5 8.37 0 0 0 .05-.22z" fill="gray" stroke-width="4.13"/></svg>