<svg xmlns="http://www.w3.org/2000/svg" width="24" height="24" viewBox="0 0 6.35 6.35"><path d="M3.04.43a2.76 2.76 0 0 0-1.57.59 2.76 2.76 0 0 0-.44.43 2.76 2.76 0 0 0-.6 1.6zm.67.04l-.63.63c.04 0 .07-.03.11-.03.13 0 .24.04.32.1.08.05.13.13.13.22v.15l.8-.8a2.76 2.76 0 0 0-.73-.27zm1.17.54L3.64 2.25v.99l1.73-1.73a2.76 2.76 0 0 0-.5-.5zm-2.13.43L.48 3.7a2.76 2.76 0 0 0 .25.73l2.02-2.01zm2.9.51l-2.01 2V4c0 .07-.03.14-.09.2a.48.48 0 0 1-.23.1.46.46 0 0 1 .33.45c0 .06-.02.12-.04.18a.46.46 0 0 1-.08.13L5.89 2.7a2.76 2.76 0 0 0-.25-.75zm-2.9 1.2L1 4.87a2.76 2.76 0 0 0 .5.49l1.3-1.27c-.01-.03-.04-.06-.04-.1zm3.17.23L3.38 5.92a2.76 2.76 0 0 0 2.54-2.54zM2.75 4.85l-.8.8a2.76 2.76 0 0 0 .75.24l.8-.8a.45.45 0 0 1-.13.09.45.45 0 0 1-.5-.1.47.47 0 0 1-.1-.15l-.02-.08z" fill="#e6e6e6" fill-opacity=".3"/><path d="M3.19 1.25a.28.28 0 0 0-.28.29v2.32a.28.28 0 1 0 .56 0V1.54a.28.28 0 0 0-.28-.29zm0 3.21a.28.28 0 1 0 0 .57.28.28 0 1 0 0-.57z" fill="#e6e6e6"/></svg>