<svg xmlns="http://www.w3.org/2000/svg" width="24" height="24" version="1"><defs><linearGradient id="a"><stop offset="0"/><stop offset="1" stop-opacity="0"/></linearGradient></defs><path d="M4.82 3.067a2.245 2.245 0 0 0-2.248 2.25v13.37a2.242 2.242 0 0 0 2.248 2.246h14.363a2.24 2.24 0 0 0 2.245-2.246V5.317c0-1.246-1-2.25-2.245-2.25zm.935 1.081h12.577a1.96 1.96 0 0 1 1.966 1.966v11.71c0 1.09-.875 1.967-1.966 1.967H5.755a1.964 1.964 0 0 1-1.97-1.968V6.113c0-1.09.88-1.965 1.97-1.965zm5.281 2.527c-.613 0-1.108.493-1.108 1.105v.29c0 .328-.27.527-.52.51H7.911C7.3 8.58 6.8 9.247 6.8 9.861v6.178c0 .61.499 1.105 1.112 1.105h8.205c.611 0 1.11-.494 1.11-1.105V9.862c0-.614-.499-1.283-1.11-1.283H14.62a.517.517 0 0 1-.52-.522v-.279c0-.611-.497-1.103-1.11-1.103zM8.09 12.839h1.66v2.814h-1.66zm1.99 0h1.658v2.814H10.08zm2.013 0h1.658v2.814h-1.658zm1.985 0h1.663v2.814h-1.663z" fill="gray"/></svg>