<svg xmlns="http://www.w3.org/2000/svg" width="24" height="24" version="1" id="svg7"><defs id="defs3"><style id="current-color-scheme"/></defs><path d="M11.23 1.97a6.97 6.97 0 0 0-6.85 7.1v5.88a6.97 6.97 0 0 0 6.85 7.1c3.8 0 6.87-3.16 6.87-7.1V9.08a6.97 6.97 0 0 0-6.87-7.1zM8.41 5.32a1.11 1.11 0 0 1 .05 0 1.11 1.11 0 1 1 0 2.23 1.11 1.11 0 0 1-.05-2.23zm5.56 0a1.11 1.11 0 0 1 .05 0 1.11 1.11 0 1 1 0 2.22 1.11 1.11 0 0 1-.05-2.22zm-2.73 5.57a4.05 3.93 0 0 1 4.05 3.93 4.05 3.93 0 0 1-4.05 3.94 4.05 3.93 0 0 1-4.04-3.94 4.05 3.93 0 0 1 4.04-3.93zm0 1.94a2.05 1.99 0 0 0-2.05 2 2.05 1.99 0 0 0 2.04 1.98 2.05 1.99 0 0 0 2.05-1.99 2.05 1.99 0 0 0-2.05-1.99zm8.34 3.33a.68.76 0 0 0-.7.76v4.03a.68.76 0 0 0 1.02.66l1.54-1L23 19.6a.68.76 0 0 0 0-1.32l-1.55-1.01-1.54-1a.68.76 0 0 0-.32-.1l-.01-.01z" id="path5" fill="#e6e6e6"/></svg>