<svg xmlns="http://www.w3.org/2000/svg" version="1" viewBox="0 0 24 24"><path style="font-variant-ligatures:normal;font-variant-position:normal;font-variant-caps:normal;font-variant-numeric:normal;font-variant-alternates:normal;font-feature-settings:normal;text-indent:0;text-decoration-line:none;text-decoration-style:solid;text-decoration-color:#000;text-transform:none;text-orientation:mixed;shape-padding:0;isolation:auto;mix-blend-mode:normal" overflow="visible" font-weight="400" d="M11.3 1A10.33 10.33 0 0 0 1 11.32a10.33 10.33 0 0 0 12.37 10.1V18.6a7.66 7.66 0 0 1-2.06.29 7.54 7.54 0 0 1-7.57-7.56c0-4.2 3.37-7.57 7.57-7.57a7.54 7.54 0 0 1 7.27 9.63h2.83A10.31 10.31 0 0 0 11.31 1zm4.08 5.5a.69.69 0 0 0-.1.02v.01a.69.69 0 0 0-.34.21L11.3 10.4 9 8.12a.69.69 0 1 0-.94.95l2.75 2.74a.69.69 0 0 0 .94 0L15.9 7.7a.69.69 0 0 0-.5-1.18z" color="#000" white-space="normal" fill="#963996" fill-opacity=".3"/><path overflow="visible" d="M20.77 14.97l-1.92 1.96-1.97-1.92-1.92 1.96 1.97 1.93L15 20.86l1.96 1.92 1.92-1.96 1.97 1.92 1.92-1.96-1.97-1.92 1.92-1.96z" color="#bebebe" fill="#963996"/></svg>
