<svg xmlns="http://www.w3.org/2000/svg" width="24" height="24" viewBox="0 0 6.35 6.35"><path fill="#963996" d="M3.17.04A3.13 3.13 0 0 0 .04 3.17a3.13 3.13 0 0 0 3.13 3.14 3.13 3.13 0 0 0 3.14-3.14A3.13 3.13 0 0 0 3.18.04zm0 .47A2.7 2.7 0 0 1 5.86 3.2a2.7 2.7 0 0 1-2.7 2.7A2.7 2.7 0 0 1 .48 3.2 2.7 2.7 0 0 1 3.17.5zm-.54.57a1.56 1.56 0 1 0 .88 2.84l1.05 1.05a.28.28 0 1 0 .4-.4L3.9 3.52c.18-.25.28-.55.28-.88 0-.86-.7-1.56-1.56-1.56zm0 .57a.99.99 0 0 1 1 1c0 .54-.45.98-1 .98a.99.99 0 0 1-1-.99c0-.55.45-.99 1-.99z"/></svg>
