<svg xmlns="http://www.w3.org/2000/svg" width="24" height="24"><path d="M19.42 3.95a1.25 1.25 0 0 0-1.25 1.25 1.25 1.25 0 0 0 1.25 1.25 1.25 1.25 0 0 0 1.25-1.25 1.25 1.25 0 0 0-1.25-1.25zM10.86 4L4.57 20h2.57l1.29-3.43h7.14L16.86 20h2.57L13.14 4h-2.28zM12 7.05l2.71 7.24H9.3L12 7.05zm7.42.65a1.25 1.25 0 0 0-1.25 1.25 1.25 1.25 0 0 0 1.25 1.25 1.25 1.25 0 0 0 1.25-1.25 1.25 1.25 0 0 0-1.25-1.25zm0 3.75a1.25 1.25 0 0 0-1.25 1.25 1.25 1.25 0 0 0 1.25 1.25 1.25 1.25 0 0 0 1.25-1.25 1.25 1.25 0 0 0-1.25-1.25z" fill="#963996"/></svg>
