<svg xmlns="http://www.w3.org/2000/svg" width="24" height="24"><defs><style id="current-color-scheme"></style></defs><path d="M15.08 5c-1.81 0-3.29 1.58-3.29 3.53 0 .28.03.55.1.81a9.12 9.12 0 0 1-6.78-3.7 3.73 3.73 0 0 0 1.02 4.73 3.1 3.1 0 0 1-1.49-.45v.05a3.48 3.48 0 0 0 2.64 3.46 3.07 3.07 0 0 1-1.49.06 3.33 3.33 0 0 0 3.07 2.46A6.3 6.3 0 0 1 4 17.4 8.81 8.81 0 0 0 9.03 19c6.04 0 9.34-5.39 9.34-10.06V8.5c.63-.5 1.19-1.12 1.63-1.83a6.2 6.2 0 0 1-1.88.55 3.51 3.51 0 0 0 1.44-1.95c-.64.4-1.34.7-2.09.86A3.17 3.17 0 0 0 15.07 5z" fill="currentColor" color="#963996"/></svg>
