<svg xmlns="http://www.w3.org/2000/svg" width="24" height="24"><defs><style id="current-color-scheme"></style></defs><path d="M12 5a7 7 0 1 0 0 14 7 7 0 0 0 0-14zm-1.3 3l1.05.04-.05.45c-.21.06-1.21.09-1.48.18.68 1.27 1.75 2.9 2.1 3.54.2-.35 1.87-1.81 1.93-2.31-.26-.07-1.13-.23-1.27-.23l-.08-.57c.24-.05 1.48 0 2.1 0 .53 0 1.68 0 2 .03l-.3.54c-.17.03-.9.23-1.14.3-.26.08-2.64 2.4-2.8 2.97-.03.2-.05.5-.05.79l-.02.46c0 .33.08.86.11 1.14.16.04 1.29 0 1.5.05l-.03.59c-.2-.02-1.64-.01-2.46-.01-.42 0-1.76.05-2.17.04l.07-.56c.23-.02 1.17.05 1.37-.22.1-.14.07-.29.07-1.08v-.37c0-.17 0-.5-.03-.8A30.43 30.43 0 0 0 8.39 8.8c-.15-.06-1.13-.19-1.38-.25L7 8.05c.12-.08 1.21.01 2.27-.04h1.43z" fill="currentColor" color="#963996"/></svg>
