<svg xmlns="http://www.w3.org/2000/svg" width="24" height="24"><path d="M7.42 4.2v2.23H5.2c-1.93.01-3.07 1.53-3.22 3.05a9.7 9.7 0 0 0 .01.99l.02.14.07.54.03.32c.01.04.03.09.03.14l.13.58c.03.08.04.17.06.26l.04.1.2.62.08.23.04.1.26.57.1.24.06.09c.1.2.22.39.33.58l.12.2.04.06.37.52.17.24.06.06.38.43.22.26.05.05.4.37.29.27.05.03a9.99 9.99 0 0 0 12.82 0l.05-.03.29-.27.4-.37.05-.05.22-.26.38-.43.06-.06c.06-.08.1-.16.17-.24l.37-.52.04-.06.12-.2c.11-.2.23-.38.33-.58l.05-.09.11-.24.26-.58c0-.03.03-.06.04-.1l.07-.22c.08-.2.15-.4.21-.62l.04-.1c.02-.09.03-.18.06-.26l.13-.58c0-.05.02-.1.03-.14.02-.1.02-.21.03-.32l.07-.54.02-.14a10.04 10.04 0 0 0 .01-.99c-.15-1.52-1.29-3.04-3.22-3.05h-5.54v2.22h5.54c.62 0 1.11.5 1.11 1.11 0 2.16-.87 4.12-2.28 5.55l-.09.1-.23.2-.34.3-.29.22-.33.24-.29.17c-.14.08-.27.17-.41.24l-.21.1-.51.23-.22.08-.51.17-.28.07c-.16.04-.31.08-.47.1a7.93 7.93 0 0 1-2.9 0c-.16-.02-.31-.06-.47-.1l-.28-.07a7.9 7.9 0 0 1-.5-.17l-.23-.08a7.92 7.92 0 0 1-.5-.23l-.22-.1c-.14-.07-.27-.16-.41-.24l-.29-.17-.33-.24-.3-.22-.33-.3-.23-.2a7.89 7.89 0 0 1-2.37-5.64c0-.63.5-1.12 1.1-1.12h2.23v2.22l4.44-3.33z" fill="#963996"/></svg>
