<svg xmlns="http://www.w3.org/2000/svg" width="24" height="24"><path d="M9.76 3.07A2.13 2.13 0 0 0 7.62 5.2c0 .73.38 1.38.95 1.76v.37H3.83a.94.94 0 0 0-.94.95v4.6c.39-.49.98-.81 1.65-.81a2.13 2.13 0 0 1 0 4.26 2.12 2.12 0 0 1-1.65-.81v4.6c0 .52.42.95.94.95h4.6a2.12 2.12 0 0 1-.8-1.66 2.13 2.13 0 0 1 4.26 0c0 .67-.33 1.27-.82 1.66h4.6a.95.95 0 0 0 .95-.95v-4.74H17a2.13 2.13 0 0 0 1.77.95 2.13 2.13 0 0 0 0-4.26c-.74 0-1.38.38-1.77.94h-.37V8.28a.94.94 0 0 0-.94-.95h-4.74v-.37a2.13 2.13 0 0 0 .95-1.76 2.13 2.13 0 0 0-2.13-2.13z" fill="#963996"/></svg>
