<?xml version="1.0" encoding="UTF-8" standalone="no"?>
<svg
   xmlns:dc="http://purl.org/dc/elements/1.1/"
   xmlns:cc="http://creativecommons.org/ns#"
   xmlns:rdf="http://www.w3.org/1999/02/22-rdf-syntax-ns#"
   xmlns:svg="http://www.w3.org/2000/svg"
   xmlns="http://www.w3.org/2000/svg"
   xmlns:sodipodi="http://sodipodi.sourceforge.net/DTD/sodipodi-0.dtd"
   xmlns:inkscape="http://www.inkscape.org/namespaces/inkscape"
   width="24"
   height="24"
   viewBox="0 0 6.35 6.35"
   version="1.1"
   id="svg4"
   sodipodi:docname="run-build-install-root.svg"
   inkscape:version="0.92.4 (5da689c313, 2019-01-14)">
  <metadata
     id="metadata10">
    <rdf:RDF>
      <cc:Work
         rdf:about="">
        <dc:format>image/svg+xml</dc:format>
        <dc:type
           rdf:resource="http://purl.org/dc/dcmitype/StillImage" />
        <dc:title></dc:title>
      </cc:Work>
    </rdf:RDF>
  </metadata>
  <defs
     id="defs8" />
  <sodipodi:namedview
     pagecolor="#ffffff"
     bordercolor="#666666"
     borderopacity="1"
     objecttolerance="10"
     gridtolerance="10"
     guidetolerance="10"
     inkscape:pageopacity="0"
     inkscape:pageshadow="2"
     inkscape:window-width="860"
     inkscape:window-height="480"
     id="namedview6"
     showgrid="false"
     inkscape:zoom="9.8333333"
     inkscape:cx="12"
     inkscape:cy="12"
     inkscape:window-x="0"
     inkscape:window-y="25"
     inkscape:window-maximized="0"
     inkscape:current-layer="svg4" />
  <path
     d="M3.17 6.34l-.3-.02-.18-.95a2.27 2.27 0 0 1-.43-.14l-.7.66a3.13 3.13 0 0 1-.48-.36l.41-.87a2.29 2.29 0 0 1-.27-.37l-.94.13a3.13 3.13 0 0 1-.19-.58l.84-.45a2.18 2.18 0 0 1-.02-.23c0-.07 0-.15.02-.22l-.84-.46a3.1 3.1 0 0 1 .19-.58l.94.13c.08-.13.17-.25.27-.37L1.09.8c.14-.13.3-.26.47-.37l.7.67c.13-.06.28-.1.43-.14l.19-.95a3.22 3.22 0 0 1 .6 0l.18.95c.15.03.3.08.43.14l.7-.67c.17.1.33.24.48.37l-.41.86c.1.12.19.24.27.37l.94-.12a3.13 3.13 0 0 1 .19.58l-.84.45a2.1 2.1 0 0 1 0 .45l.84.45a3.13 3.13 0 0 1-.19.58l-.94-.13a2.29 2.29 0 0 1-.27.37l.4.86a3.13 3.13 0 0 1-.46.37l-.7-.66a2.27 2.27 0 0 1-.44.14l-.19.95a3.22 3.22 0 0 1-.3.01zm0-1.82a1.36 1.36 0 0 0 .55-2.6l.16 1h.55L3.17 4.44 1.92 2.92h.55l.16-1a1.36 1.36 0 0 0 .54 2.6z"
     fill="#a02c89"
     id="path2"
     style="fill:#c83737" />
</svg>
