<svg xmlns="http://www.w3.org/2000/svg" width="24" height="24"><path fill="#963996" d="M6.6 1.65a6.07 6.07 0 0 0-.55.05 6.98 6.98 0 0 0-.55.12l-.07 1.81a4.28 4.28 0 0 0-.78.39L3.17 2.98a5.9 5.9 0 0 0-.8.82L3.4 5.3a4.31 4.31 0 0 0-.4.76l-1.8.03a5.9 5.9 0 0 0-.18 1.13l1.69.6a4.12 4.12 0 0 0 .04.43c.02.15.05.28.09.42L1.4 9.75c.14.36.3.7.51 1.03l1.73-.51c.18.22.39.43.6.6l-.51 1.73a5.91 5.91 0 0 0 1 .55l1.1-1.44c.28.08.57.12.86.14l.6 1.71a6.07 6.07 0 0 0 1.12-.17v-.2l1.16.63a5.5 5.5 0 0 0-.03.56c0 .2.01.38.03.57l-2.1 1.14c.11.5.26 1 .46 1.46l2.39-.32c.2.33.42.64.67.93l-1.03 2.17c.39.34.77.66 1.21.92l1.75-1.67a5.69 5.69 0 0 0 1.1.36l.46 2.38a8.1 8.1 0 0 0 1.5 0l.46-2.38c.38-.09.75-.2 1.1-.36l1.75 1.67c.44-.26.82-.58 1.2-.92l-1.03-2.17c.26-.29.49-.6.68-.93l2.38.32A7.87 7.87 0 0 0 23 16.1l-2.1-1.14a5.28 5.28 0 0 0 0-1.13l2.1-1.14a7.87 7.87 0 0 0-.47-1.46l-2.38.32a5.76 5.76 0 0 0-.67-.93l1.03-2.17a7.87 7.87 0 0 0-1.21-.92l-1.75 1.67a5.71 5.71 0 0 0-1.1-.36l-.47-2.38a8.1 8.1 0 0 0-.74-.04c-.25 0-.5.02-.75.04l-.46 2.38a5.7 5.7 0 0 0-1.1.36l-.19-.17a5.9 5.9 0 0 0 .16-1.03l-1.68-.6a4.12 4.12 0 0 0-.04-.43 4.11 4.11 0 0 0-.1-.42l1.43-1.08a5.9 5.9 0 0 0-.5-1.03l-1.73.51a4.31 4.31 0 0 0-.61-.61l.52-1.72a6 6 0 0 0-1-.55L8.08 3.5a4.28 4.28 0 0 0-.86-.14zm.22 3.4a2.56 2.56 0 0 1 .52 5.08 2.56 2.56 0 0 1-.78-5.05 2.56 2.56 0 0 1 .26-.03zm8.41 5.92a3.42 3.42 0 0 1 0 6.83 3.42 3.42 0 0 1 0-6.83z"/></svg>
