<svg xmlns="http://www.w3.org/2000/svg" width="24" height="24" viewBox="0 0 6.35 6.35"><path fill="#2c89a0" d="M3.175.06A3.114 3.114 0 0 0 .061 3.175a3.114 3.114 0 0 0 3.114 3.114A3.114 3.114 0 0 0 6.29 3.175 3.114 3.114 0 0 0 3.175.06zm-.009.464A2.677 2.677 0 0 1 5.844 3.2a2.677 2.677 0 0 1-2.678 2.68A2.677 2.677 0 0 1 .49 3.2 2.677 2.677 0 0 1 3.166.524zm1.35 1.178v.006a.22.22 0 0 0-.031 0 .22.22 0 0 0-.11.07L3.2 2.947l-.73-.727a.22.22 0 1 0-.305.303l.884.883a.22.22 0 0 0 .303 0l1.325-1.324a.22.22 0 0 0-.162-.38z"/></svg>