<svg xmlns="http://www.w3.org/2000/svg" width="24" height="24"><path fill="#2c89a0" d="M12 .23A11.77 11.77 0 0 0 .229 12 11.77 11.77 0 0 0 12 23.77 11.77 11.77 0 0 0 23.771 12 11.77 11.77 0 0 0 12 .23zm-.033 1.752a10.12 10.12 0 0 1 10.119 10.12 10.12 10.12 0 0 1-10.12 10.119A10.12 10.12 0 0 1 1.847 12.1a10.12 10.12 0 0 1 10.12-10.119z"/><path fill="#2c89a0" d="M11.967 1.982c.641 0 2.71 5.27 3.228 5.654.519.384 6.07.762 6.269 1.385.198.622-4.076 4.256-4.274 4.878-.198.622 1.165 6.125.646 6.51-.519.384-5.228-2.639-5.87-2.639-.64 0-5.35 3.023-5.869 2.638-.519-.384.844-5.887.646-6.509-.198-.622-4.472-4.256-4.273-4.878.198-.623 5.75-1 6.268-1.385.52-.385 2.587-5.654 3.229-5.654z"/></svg>