<svg xmlns="http://www.w3.org/2000/svg" width="24" height="24" viewBox="0 0 6.35 6.35"><path d="M1.54.37c-.13 0-.23.1-.23.24v5.13c0 .13.1.24.23.24h3.27c.13 0 .23-.1.23-.24V.61c0-.13-.1-.24-.23-.24H1.54zm.29.73h2.7c.09 0 .16.07.16.17v3.61c0 .1-.07.17-.17.17h-2.7a.17.17 0 0 1-.16-.17V1.27c0-.1.07-.17.17-.17zm1.34.76h-.12l-.07.4a.94.94 0 0 0-.19.06l-.29-.28a1.3 1.3 0 0 0-.2.15l.18.36a.95.95 0 0 0-.11.16l-.4-.06a1.3 1.3 0 0 0-.08.24l.35.2a.9.9 0 0 0 0 .09v.09l-.35.19.08.24.4-.05.1.15-.16.36.2.15.28-.28c.06.03.12.05.19.06l.07.4a1.34 1.34 0 0 0 .25 0l.07-.4a.93.93 0 0 0 .19-.06l.28.28c.08-.04.14-.1.2-.15l-.17-.36a.96.96 0 0 0 .11-.15l.4.05a1.3 1.3 0 0 0 .08-.24l-.35-.2a1.03 1.03 0 0 0 0-.18l.35-.19a1.3 1.3 0 0 0-.08-.24l-.4.06a.95.95 0 0 0-.1-.16l.16-.36a1.3 1.3 0 0 0-.2-.15l-.28.28a.94.94 0 0 0-.19-.06l-.07-.4a1.34 1.34 0 0 0-.13 0zm0 .75a.56.56 0 0 1 0 1.13.56.56 0 0 1 0-1.13z" fill="#2c89a0" fill-rule="evenodd"/></svg>