<svg xmlns="http://www.w3.org/2000/svg" width="24" height="24" id="svg7"><defs id="defs3"><style id="current-color-scheme"></style><clipPath id="a"><ellipse cx="24.01" cy="23.91" rx="19.92" ry="19.84" id="ellipse2" opacity=".75" fill="#333" stroke-width=".83"/></clipPath><clipPath id="b"><ellipse cx="24.01" cy="23.91" rx="19.92" ry="19.84" id="ellipse5" opacity=".75" fill="#333" stroke-width=".83"/></clipPath><clipPath id="c"><ellipse cx="24.01" cy="23.91" rx="19.92" ry="19.84" id="ellipse8" opacity=".75" fill="#333" stroke-width=".83"/></clipPath></defs><g transform="translate(-.25 -.25)" id="g21" fill="#2c89a0"><path d="M9.72 19.77a7.9 7.93 0 0 1-5.4-7.52 7.9 7.93 0 0 1 5.4-7.53" id="path13"/><path transform="rotate(180 10.9 10.88) scale(.39765)" clip-path="url(#a)" d="M14 47.19h4V1.63h-4z" id="path15"/><path transform="rotate(180 10.9 10.88) scale(.39765)" clip-path="url(#b)" d="M22 44h4V4h-4z" id="path17"/><path transform="rotate(180 10.9 10.88) scale(.39765)" d="M6 3.32v12.16a19.92 19.84 0 0 0-1.91 8.43A19.92 19.84 0 0 0 6 32.33v14.79h4V3.32z" clip-path="url(#c)" id="path19"/></g></svg>
