<svg xmlns="http://www.w3.org/2000/svg" width="24" height="24"><path d="M12 2.54a9.46 9.46 0 0 0-8.3 4.93l8.14 8h.76l7.86-7.7A9.46 9.46 0 0 0 12 2.54zM3.15 8.67A9.46 9.46 0 0 0 2.54 12a9.46 9.46 0 0 0 1.24 4.66l3.72-3.7-4.35-4.29zm17.82.35L17 12.97l.86.86h3.41a9.46 9.46 0 0 0 .2-1.83 9.46 9.46 0 0 0-.5-2.98zm-12.55 4.8l-3.94 3.91A9.46 9.46 0 0 0 12 21.46a9.46 9.46 0 0 0 2.4-.32v-5.65l-1.24 1.24h-1.84l-2.9-2.9v-.01zm7.35 1.44v1.4h7v-1.4h-7zm0 2.8v1.4h7v-1.4h-7zm0 2.8v1.4h7v-1.4h-7z" fill="#2c89a0"/></svg>
