<svg xmlns="http://www.w3.org/2000/svg" width="24" height="24"><path d="M1.71 12A10.29 10.18 0 0 0 12 22.18 10.29 10.18 0 0 0 22.29 12 10.29 10.18 0 0 0 12 1.82 10.29 10.18 0 0 0 1.71 12zm1 0a9.29 9.19 0 0 1 1.05-4.22v8.45A9.29 9.19 0 0 1 2.7 12zm1.33-4.72A9.29 9.19 0 0 1 12 2.8a9.29 9.19 0 0 1 7.96 4.47zm.07 9.55h15.78A9.29 9.19 0 0 1 12 21.2a9.29 9.19 0 0 1-7.9-4.36zm.79-1.02V8.3H19v7.5zm15.24.61V7.6A9.29 9.19 0 0 1 21.3 12a9.29 9.19 0 0 1-1.15 4.42z" fill="#2c89a0" paint-order="markers fill stroke"/></svg>
