<svg xmlns="http://www.w3.org/2000/svg" width="24" height="24" id="svg11"><defs id="defs3"><style id="current-color-scheme"/></defs><path d="M12 2.422a9.58 9.58 0 0 0-9.58 9.58A9.58 9.58 0 0 0 12 21.58a9.58 9.58 0 0 0 9.58-9.578A9.58 9.58 0 0 0 12 2.42zm-.027 1.426a8.235 8.235 0 0 1 8.235 8.235 8.235 8.235 0 0 1-8.235 8.235 8.235 8.235 0 0 1-8.234-8.235 8.235 8.235 0 0 1 8.234-8.234zm3.343 2.33a.458.458 0 0 0-.451.24l-3.934 7.228-2.531-2.02a.461.461 0 0 0-.631.183L6.636 13.27a.466.466 0 0 0 .184.632s4.62 3.832 4.626 3.834a.411.411 0 0 0 .164.05.461.461 0 0 0 .465-.238l5.307-9.747a.466.466 0 0 0-.184-.63l-1.703-.939a.45.45 0 0 0-.18-.055z" id="path2" fill="#963996" stroke-width="1.523"/></svg>
