<svg xmlns="http://www.w3.org/2000/svg" width="24" height="24"><path style="isolation:auto;mix-blend-mode:normal" d="M12.332 3a9 9 0 0 0-.078.004 9 9 0 0 0-1.129.09 9 9 0 0 0-.146.02 8.03 8.243 0 0 0-.004.003 9 9 0 0 0-5.08 15.153 3.556 3.556 0 0 0 3.515 3.06h8a4.444 4.444 0 0 0 4.445-4.443 4.444 4.444 0 0 0-2.882-4.157 5.333 5.333 0 0 0-5.118-3.843A5.333 5.333 0 0 0 9.61 11a7.5 7.5 0 0 1-.277-2 7.5 7.5 0 0 1 1.848-4.912 8 8 0 0 1 .02-.004A7.5 7.5 0 0 1 12.36 3h-.028zM9.934 4.355a8.03 8.243 0 0 0-.059.079 8.03 8.243 0 0 0-.42.7 8.03 8.243 0 0 0-.35.741 8.03 8.243 0 0 0-.277.775 8.03 8.243 0 0 0-.2.797 8.03 8.243 0 0 0-.12.815 8.03 8.243 0 0 0-.041.824 8.03 8.243 0 0 0 .02.582 8.03 8.243 0 0 0 .097.818 8.03 8.243 0 0 0 .176.803 8.03 8.243 0 0 0 .238.742 5.333 5.333 0 0 0-.477 2.19 5.333 5.333 0 0 0 .004.115 3.556 3.556 0 0 0-2.552 2.557 8 8 0 0 1-.15-.186 8 8 0 0 1-.438-.67 8 8 0 0 1-.37-.709 8 8 0 0 1-.296-.744 8 8 0 0 1-.219-.768 8 8 0 0 1-.143-.787 8 8 0 0 1-.064-.799 8 8 0 0 1 .018-.798 8 8 0 0 1 .097-.793 8 8 0 0 1 .174-.782 8 8 0 0 1 .254-.757 8 8 0 0 1 .326-.73 8 8 0 0 1 .399-.694 8 8 0 0 1 .464-.65 8 8 0 0 1 .528-.602 8 8 0 0 1 .586-.545 8 8 0 0 1 .636-.483 8 8 0 0 1 .682-.417 8 8 0 0 1 .72-.348 8 8 0 0 1 .75-.274 8 8 0 0 1 .007-.002zm3.921 5.543a4.342 4.342 0 0 1 4.272 3.57 3.474 3.474 0 0 1 2.676 3.378 3.474 3.474 0 0 1-3.475 3.474H9.512a2.605 2.605 0 0 1-2.606-2.605 2.605 2.605 0 0 1 2.606-2.606 2.605 2.605 0 0 1 .093.006 4.342 4.342 0 0 1-.093-.875 4.342 4.342 0 0 1 4.343-4.342z" fill="#963996"/></svg>
