<svg xmlns="http://www.w3.org/2000/svg" width="24" height="24"><path style="isolation:auto;mix-blend-mode:normal" d="M12.332 3a9 9 0 0 0-.078.004 9 9 0 0 0-1.129.09 9 9 0 0 0-.146.02 8.03 8.243 0 0 0-.004.003 9 9 0 0 0-.053 17.772 2.667 2.667 0 0 0 1.998.904h6a3.333 3.333 0 0 0 3.334-3.332 3.333 3.333 0 0 0-2.162-3.117 4 4 0 0 0-3.838-2.883 4 4 0 0 0-3.76 2.644A7.5 7.5 0 0 1 9.332 9a7.5 7.5 0 0 1 1.848-4.912 8 8 0 0 1 .02-.004A7.5 7.5 0 0 1 12.36 3h-.028zM9.934 4.355a8.03 8.243 0 0 0-.059.079 8.03 8.243 0 0 0-.42.7 8.03 8.243 0 0 0-.35.741 8.03 8.243 0 0 0-.277.775 8.03 8.243 0 0 0-.2.797 8.03 8.243 0 0 0-.12.815 8.03 8.243 0 0 0-.041.824 8.03 8.243 0 0 0 .02.582 8.03 8.243 0 0 0 .097.818 8.03 8.243 0 0 0 .176.803 8.03 8.243 0 0 0 .252.783 8.03 8.243 0 0 0 .328.752 8.03 8.243 0 0 0 .4.715 8.03 8.243 0 0 0 .467.67 8.03 8.243 0 0 0 .53.62 8.03 8.243 0 0 0 .585.562 8.03 8.243 0 0 0 .64.498 8.03 8.243 0 0 0 .313.197 4 4 0 0 0-.021.375 4 4 0 0 0 .002.086 2.667 2.667 0 0 0-2.002 2.58 2.667 2.667 0 0 0 .08.629 8 8 0 0 1-.725-.219 8 8 0 0 1-.74-.305 8 8 0 0 1-.705-.378 8 8 0 0 1-.662-.446 8 8 0 0 1-.617-.51 8 8 0 0 1-.56-.57 8 8 0 0 1-.503-.621 8 8 0 0 1-.437-.67 8 8 0 0 1-.37-.709 8 8 0 0 1-.296-.744 8 8 0 0 1-.219-.768 8 8 0 0 1-.143-.787 8 8 0 0 1-.064-.799 8 8 0 0 1 .018-.798 8 8 0 0 1 .097-.793 8 8 0 0 1 .174-.782 8 8 0 0 1 .254-.757 8 8 0 0 1 .326-.73 8 8 0 0 1 .399-.694 8 8 0 0 1 .464-.65 8 8 0 0 1 .528-.602 8 8 0 0 1 .586-.545 8 8 0 0 1 .636-.483 8 8 0 0 1 .682-.417 8 8 0 0 1 .72-.348 8 8 0 0 1 .75-.274 8 8 0 0 1 .007-.002zm6.341 9.262a3.056 3.022 0 0 1 3.008 2.487 2.445 2.418 0 0 1 1.883 2.35 2.445 2.418 0 0 1-2.445 2.417h-5.5a1.834 1.813 0 0 1-1.834-1.812 1.834 1.813 0 0 1 1.834-1.815 1.834 1.813 0 0 1 .064.004 3.056 3.022 0 0 1-.064-.607 3.056 3.022 0 0 1 3.054-3.022v-.002z" fill="#963996"/></svg>
