<svg xmlns="http://www.w3.org/2000/svg" width="48" height="48" viewBox="0 0 12.7 12.7"><path d="M6.344.073a6.29 6.29 0 0 0-6.29 6.29 6.29 6.29 0 0 0 6.29 6.288 6.29 6.29 0 0 0 6.29-6.289 6.29 6.29 0 0 0-6.29-6.29zm-.018.936a5.407 5.407 0 0 1 5.407 5.407 5.407 5.407 0 0 1-5.407 5.407A5.407 5.407 0 0 1 .92 6.416 5.407 5.407 0 0 1 6.326 1.01zM4.138 2.12a.902.902 0 0 0-.91.91v6.848c0 .509.401.91.91.91H8.51c.508 0 .91-.4.91-.91V3.03a.902.902 0 0 0-.91-.91H4.138zm-.29.619H8.8v3.096H3.847V2.738zm2.476 3.715a1.858 1.858 0 0 1 0 3.715 1.858 1.858 0 0 1 0-3.715zm0 .929a.929.929 0 0 0-.928.929.929.929 0 0 0 .928.928.929.929 0 0 0 .93-.928.929.929 0 0 0-.93-.929z" fill="#e6e6e6"/></svg>