<?xml version="1.0" encoding="UTF-8" standalone="no"?><svg xmlns:dc="http://purl.org/dc/elements/1.1/" xmlns:cc="http://creativecommons.org/ns#" xmlns:rdf="http://www.w3.org/1999/02/22-rdf-syntax-ns#" xmlns="http://www.w3.org/2000/svg" width="48" height="48" viewBox="0 0 12.7 12.7"><metadata><rdf:RDF><cc:Work><dc:format>image/svg+xml</dc:format><dc:type rdf:resource="http://purl.org/dc/dcmitype/StillImage"/><dc:title/></cc:Work></rdf:RDF></metadata><path d="M6.34.07a6.29 6.29 0 0 0-6.29 6.3 6.29 6.29 0 0 0 6.3 6.28 6.29 6.29 0 0 0 6.28-6.29A6.29 6.29 0 0 0 6.34.07zm-.01.94a5.4 5.4 0 0 1 5.4 5.4 5.4 5.4 0 0 1-5.4 5.41 5.4 5.4 0 0 1-5.41-5.4A5.4 5.4 0 0 1 6.32 1zm1.3 1.55a.38.38 0 0 0-.3.15.56 1 0 0 0-.3-.15H3.47a.56 1 0 0 0-.56 1v5.92a.56 1 0 0 0 .56 1h3.56a.56 1 0 0 0 .3-.16c.07.1.18.16.3.16h.5a.38.38 0 0 0 .38-.38V8.92h1.01c.2 0 .35-.15.35-.33v-1.5c0-.17-.16-.32-.35-.32h-1v-.44h1c.2 0 .35-.15.35-.33V4.51c0-.18-.16-.33-.35-.33h-1v-.42h.9a.38.38 0 0 0 .39-.38v-.44a.38.38 0 0 0-.38-.38h-1.8zm-3.93.48h3.12a.49.87 0 0 1 .43.47v6a.49.87 0 0 1-.43.46H3.7a.49.87 0 0 1-.49-.87V3.9a.49.87 0 0 1 .5-.87zm4.81 1.69h.39c.1 0 .19.08.19.17v.8c0 .1-.09.18-.2.18h-.38V4.73zM4.96 5a.33.33 0 0 0-.33.33v.08a.15.15 0 0 1-.16.16h-.45c-.18 0-.33.2-.33.38v1.86c0 .18.15.33.33.33H6.5a.33.33 0 0 0 .33-.33V5.95c0-.18-.15-.38-.33-.38h-.45a.16.16 0 0 1-.16-.16v-.08A.33.33 0 0 0 5.55 5h-.59zm-.88 1.85h.5v.84h-.5v-.84zm.6 0h.5v.84h-.5v-.84zm.6 0h.5v.84h-.5v-.84zm.6 0h.5v.84h-.5v-.84zm2.63.46h.39c.1 0 .19.08.19.18v.8c0 .1-.09.18-.2.18h-.38V7.3z" fill="#e6e6e6"/></svg>