<svg xmlns="http://www.w3.org/2000/svg" width="48" height="48" viewBox="0 0 12.7 12.7"><path d="M6.344.073a6.29 6.29 0 0 0-6.29 6.29 6.29 6.29 0 0 0 6.29 6.288 6.29 6.29 0 0 0 6.29-6.289 6.29 6.29 0 0 0-6.29-6.29zm-.018.936a5.407 5.407 0 0 1 5.407 5.407 5.407 5.407 0 0 1-5.407 5.407A5.407 5.407 0 0 1 .92 6.416 5.407 5.407 0 0 1 6.326 1.01zm0 1.059c-1.96 0-3.573 1.784-3.54 3.392.028 1.402.48 2.785.593 3.132l.291.958c.177.586.774.925 1.336.76.563-.164.873-.768.695-1.354l-.4-1.32c-.177-.586-.774-.925-1.336-.76-.068.02-.132.046-.192.078-.133-.794-.112-1.42-.112-1.42 0-1.407 1.19-2.558 2.665-2.558 1.474 0 2.67 1.083 2.665 2.54-.008.525-.038.94-.137 1.432-.042-.019-.084-.04-.13-.053-.562-.165-1.158.174-1.336.76l-.4 1.32c-.178.586.132 1.19.695 1.355.563.164 1.159-.175 1.336-.76l.297-.978h.01c.133-.382.577-1.892.577-3.132 0-1.679-1.616-3.392-3.577-3.392z" fill="#a02c2c"/></svg>