<svg xmlns="http://www.w3.org/2000/svg" width="48" height="48" viewBox="0 0 12.7 12.7"><path d="M6.344.073a6.29 6.29 0 0 0-6.29 6.29 6.29 6.29 0 0 0 6.29 6.288 6.29 6.29 0 0 0 6.29-6.289 6.29 6.29 0 0 0-6.29-6.29zm-.018.936a5.407 5.407 0 0 1 5.407 5.407 5.407 5.407 0 0 1-5.407 5.407A5.407 5.407 0 0 1 .92 6.416 5.407 5.407 0 0 1 6.326 1.01zm-1.597.977c-.643 0-1.167.539-1.167 1.202v6.41c0 .663.524 1.202 1.167 1.202h3.112c.644 0 1.168-.539 1.168-1.202v-6.41c0-.663-.524-1.202-1.168-1.202zm-.486 1.202h4.085v5.609H4.243zm1.264 6.41h1.557v.4H5.507z" fill="#a02c2c"/></svg>