<?xml version="1.0" encoding="UTF-8" standalone="no"?>
<svg
   xmlns:dc="http://purl.org/dc/elements/1.1/"
   xmlns:cc="http://creativecommons.org/ns#"
   xmlns:rdf="http://www.w3.org/1999/02/22-rdf-syntax-ns#"
   xmlns:svg="http://www.w3.org/2000/svg"
   xmlns="http://www.w3.org/2000/svg"
   xmlns:sodipodi="http://sodipodi.sourceforge.net/DTD/sodipodi-0.dtd"
   xmlns:inkscape="http://www.inkscape.org/namespaces/inkscape"
   width="48"
   height="48"
   viewBox="0 0 12.7 12.7"
   version="1.1"
   id="svg8"
   sodipodi:docname="uninterruptible-power-supply.svg"
   inkscape:version="0.92.4 (5da689c313, 2019-01-14)">
  <metadata
     id="metadata14">
    <rdf:RDF>
      <cc:Work
         rdf:about="">
        <dc:format>image/svg+xml</dc:format>
        <dc:type
           rdf:resource="http://purl.org/dc/dcmitype/StillImage" />
        <dc:title></dc:title>
      </cc:Work>
    </rdf:RDF>
  </metadata>
  <defs
     id="defs12" />
  <sodipodi:namedview
     pagecolor="#ffffff"
     bordercolor="#666666"
     borderopacity="1"
     objecttolerance="10"
     gridtolerance="10"
     guidetolerance="10"
     inkscape:pageopacity="0"
     inkscape:pageshadow="2"
     inkscape:window-width="1138"
     inkscape:window-height="480"
     id="namedview10"
     showgrid="false"
     inkscape:zoom="4.9166667"
     inkscape:cx="2.1355932"
     inkscape:cy="24"
     inkscape:window-x="0"
     inkscape:window-y="25"
     inkscape:window-maximized="0"
     inkscape:current-layer="svg8" />
  <path
     d="m 6.344,0.072 a 6.29,6.29 0 0 0 -6.29,6.29 6.29,6.29 0 0 0 6.29,6.289 6.29,6.29 0 0 0 6.29,-6.29 6.29,6.29 0 0 0 -6.29,-6.29 z M 6.326,1.009 A 5.407,5.407 0 0 1 11.733,6.416 5.407,5.407 0 0 1 6.326,11.823 5.407,5.407 0 0 1 0.92,6.416 5.407,5.407 0 0 1 6.326,1.01 Z M 4.548,1.886 A 0.153,0.153 0 0 0 4.395,2.039 v 8.622 c 0,0.085 0.068,0.153 0.153,0.153 H 8.152 A 0.153,0.153 0 0 0 8.305,10.661 V 2.039 A 0.153,0.153 0 0 0 8.152,1.886 Z M 5.614,2.97 H 7.086 C 7.199,2.97 7.29,3.062 7.29,3.175 7.29,3.288 7.2,3.38 7.086,3.38 H 5.614 A 0.204,0.204 0 0 1 5.41,3.175 C 5.41,3.062 5.5,2.97 5.614,2.97 Z m 0,1.059 h 1.472 a 0.205,0.205 0 1 1 0,0.41 L 5.614,4.438 A 0.204,0.204 0 0 1 5.41,4.233 C 5.41,4.12 5.5,4.029 5.614,4.029 Z m 0,1.058 h 1.472 c 0.113,0 0.204,0.091 0.204,0.205 0,0.113 -0.09,0.204 -0.204,0.204 H 5.614 A 0.204,0.204 0 0 1 5.41,5.292 C 5.41,5.178 5.5,5.087 5.614,5.087 Z m 0,1.058 h 1.472 c 0.113,0 0.204,0.092 0.204,0.205 0,0.113 -0.09,0.205 -0.204,0.205 H 5.614 A 0.204,0.204 0 0 1 5.41,6.35 C 5.41,6.237 5.5,6.145 5.614,6.145 Z M 6.35,8.401 A 0.595,0.595 0 0 1 6.945,8.996 0.595,0.595 0 0 1 6.35,9.591 0.595,0.595 0 0 1 5.755,8.996 0.595,0.595 0 0 1 6.35,8.401 Z M 6.3,8.596 v 0.45 h 0.1 v -0.45 z m -0.1,0.03 a 0.399,0.399 0 1 0 0.3,0 v 0.11 A 0.299,0.299 0 0 1 6.35,9.296 0.3,0.3 0 0 1 6.2,8.736 Z"
     id="path2"
     inkscape:connector-curvature="0"
     style="fill:#a02c2c" />
  <rect
     width="1.88"
     height="0.40900001"
     x="5.4099998"
     y="2.971"
     ry="0.204"
     id="rect4"
     style="fill:#008000;fill-rule:evenodd" />
  <rect
     style="color:#bebebe;overflow:visible;fill:none;marker:none"
     y="8.599"
     x="5.9520001"
     ry="0.0080000004"
     rx="0.0070000002"
     height="0.79500002"
     width="0.79500002"
     overflow="visible"
     id="rect6" />
</svg>
