<svg xmlns="http://www.w3.org/2000/svg" width="48" height="48" viewBox="0 0 12.7 12.7"><path fill="#1a1a1a" d="M6.344.073a6.29 6.29 0 0 0-6.29 6.29 6.29 6.29 0 0 0 6.29 6.288 6.29 6.29 0 0 0 6.29-6.289 6.29 6.29 0 0 0-6.29-6.29zm-.018.936a5.407 5.407 0 0 1 5.407 5.407 5.407 5.407 0 0 1-5.407 5.407A5.407 5.407 0 0 1 .92 6.416 5.407 5.407 0 0 1 6.326 1.01zm.052 1.134C5.134 1.996 1.793 8.815 2.876 9.39c1.392.738 5.7-2.415 5.583-2.326.012-.057-4.866 2.063-4.462.57.411-1.518 2.066-4.178 2.432-3.932 1.614 1.082 3.466 5.558 3.573 5.35.304.3-1.455-5.735-3.51-6.873a.311.311 0 0 0-.114-.036z"/></svg>