<svg xmlns="http://www.w3.org/2000/svg" width="48" height="48" viewBox="0 0 12.7 12.7"><path d="M6.34.07a6.29 6.29 0 0 0-6.29 6.3 6.29 6.29 0 0 0 6.3 6.28 6.29 6.29 0 0 0 6.28-6.29A6.29 6.29 0 0 0 6.34.07zM6.32 1l.01.01a5.4 5.4 0 0 1 5.4 5.4 5.4 5.4 0 0 1-5.4 5.41 5.4 5.4 0 0 1-5.41-5.4A5.4 5.4 0 0 1 6.32 1zm-3.4 2.17c-.13 0-.24.03-.3.1-.28.27.12 1.14.46 1.74.3-.53.74-.97 1.26-1.3a3.76 3.76 0 0 0-1.42-.54zm6.69.05a5.33 5.33 0 0 0-2.06.96c-.19.18-.02.65.37 1.04.4.4.86.56 1.04.38.19-.19 1.28-1.9.88-2.3-.05-.06-.13-.08-.23-.08zm-3.29.12a3.57 3.57 0 1 0 3.1 1.81l-.17.31c.05.2.04.35-.05.44-.2.2-.77-.01-1.28-.5l-.1-.1a2.27 2.27 0 0 1-.42-.56c-.18-.32-.23-.6-.09-.74.07-.07.19-.1.33-.07l.32-.19c-.49-.26-1.05-.4-1.64-.4z" fill="#1a1a1a"/></svg>