<svg xmlns="http://www.w3.org/2000/svg" width="48" height="48" viewBox="0 0 12.7 12.7"><path d="M6.34.07a6.29 6.29 0 0 0-6.29 6.3 6.29 6.29 0 0 0 6.3 6.28 6.29 6.29 0 0 0 6.28-6.29A6.29 6.29 0 0 0 6.34.07zm-.01.94a5.4 5.4 0 0 1 5.4 5.4 5.4 5.4 0 0 1-5.4 5.41 5.4 5.4 0 0 1-5.41-5.4A5.4 5.4 0 0 1 6.32 1zm.02.68C3.79 1.69 1.7 3.5 1.7 6.08V6.65H3.4c.07.72.36 1.43.9 1.98a3.12 3.13 0 0 0 4.36.01l-.33-.32-.23-.23c-.92.91-2.43.93-3.36.02a2.53 2.53 0 0 1-.68-1.46h6.25a3.98 4 0 0 1-7.83.74l-.64.11a4.63 4.65 0 0 0 4.49 3.51c2.55 0 4.62-1.8 4.62-4.36v-.59H4.06a2.53 2.53 0 0 1 .67-1.43 2.32 2.32 0 0 1 3.33-.03l.56-.55a3.04 3.05 0 0 0-2.1-.91 3.04 3.05 0 0 0-2.24.94 3.26 3.26 0 0 0-.89 1.98H2.36a3.98 4 0 0 1 7.83-.75l.64-.11a4.63 4.65 0 0 0-4.48-3.51z" stroke-width="3.78" fill="#1a1a1a"/></svg>