<svg xmlns="http://www.w3.org/2000/svg" width="48" height="48" viewBox="0 0 12.7 12.7"><path fill="#1a1a1a" d="M6.344.073a6.29 6.29 0 0 0-6.29 6.29 6.29 6.29 0 0 0 6.29 6.288 6.29 6.29 0 0 0 6.29-6.289 6.29 6.29 0 0 0-6.29-6.29zm-.018.936a5.407 5.407 0 0 1 5.407 5.407 5.407 5.407 0 0 1-5.407 5.407A5.407 5.407 0 0 1 .92 6.416 5.407 5.407 0 0 1 6.326 1.01zm2.195 1.53a.301.301 0 0 0-.296.157L5.642 7.442 3.98 6.116a.303.303 0 0 0-.414.12l-.744.96a.306.306 0 0 0 .121.415s3.033 2.516 3.037 2.517a.27.27 0 0 0 .108.033.303.303 0 0 0 .305-.156l3.485-6.4a.306.306 0 0 0-.121-.414l-1.118-.616a.295.295 0 0 0-.118-.036z"/></svg>