<svg xmlns="http://www.w3.org/2000/svg" width="48" height="48" viewBox="0 0 12.7 12.7"><path fill="#d45500" fill-rule="evenodd" d="M3.007 2.751l-.033.663a816.904 816.904 0 0 1 2.729 4.514L4.128 3.016c-.342-.07-.785-.18-1.12-.265zm2.696 5.177l2.05-4.78c-.383.055-.808.107-1.24.118-.228 1.335-.506 2.953-.81 4.662zm0 0L9.679 6.65V5.52c-1.144.696-2.519 1.535-3.976 2.41zm0 0l3.516 1.505c.152-.257.273-.532.351-.827a762.3 762.3 0 0 1-3.867-.678zm0 0l1.006 3.127c.266-.03.528-.092.772-.18a766.264 766.264 0 0 1-1.778-2.947zm0 0L4.564 10.58c.197.12.404.226.624.304.16-.924.331-1.924.515-2.955zm0 0l-2.573.827c.063.201.142.394.242.577.735-.445 1.52-.918 2.33-1.404zm0 0l-2.73-1.17v.687c.862.15 1.781.314 2.73.483z" opacity=".751"/><path fill="#1a1a1a" d="M6.344.073a6.29 6.29 0 0 0-6.29 6.29 6.29 6.29 0 0 0 6.29 6.288 6.29 6.29 0 0 0 6.29-6.289 6.29 6.29 0 0 0-6.29-6.29zm-.018.936a5.407 5.407 0 0 1 5.407 5.407 5.407 5.407 0 0 1-5.407 5.407A5.407 5.407 0 0 1 .92 6.416 5.407 5.407 0 0 1 6.326 1.01zM9.56 2.416s-1.63.501-3.247.501-3.219-.48-3.219-.48c-.252 0-.454.101-.454.352v5.006c0 2.01 1.651 3.641 3.686 3.641s3.687-1.631 3.687-3.64V2.788c0-.251-.2-.373-.453-.373zm-.691.963c.198 0 .357.096.357.294V7.61c0 1.58-1.3 2.863-2.9 2.863-1.6 0-2.899-1.283-2.899-2.863V3.673c0-.198.158-.277.357-.277 0 0 1.26.377 2.532.377 1.271 0 2.553-.394 2.553-.394zm-.147.324L7.41 3.98v4.058c0 .26-.07.458-.211.593-.138.134-.344.202-.616.202h-.205v.875h.266c.697 0 1.217-.138 1.56-.415.345-.276.518-.695.518-1.255z"/></svg>