<svg xmlns="http://www.w3.org/2000/svg" width="48" height="48" viewBox="0 0 12.7 12.7"><path d="M6.34.07a6.29 6.29 0 0 0-6.29 6.3 6.29 6.29 0 0 0 6.3 6.28 6.29 6.29 0 0 0 6.28-6.29A6.29 6.29 0 0 0 6.34.07zm-.01.94a5.4 5.4 0 0 1 5.4 5.4 5.4 5.4 0 0 1-5.4 5.41 5.4 5.4 0 0 1-5.41-5.4A5.4 5.4 0 0 1 6.32 1zm-1.3.82c-.9 0-1.64.74-1.64 1.65v1.65h2.47v-3.3h-.82zm1.66 0v3.3h2.47V3.48c0-.91-.74-1.65-1.65-1.65h-.82zm-3.3 4.12v1.86c0 1.82 1.29 3.09 2.88 3.09 1.6 0 2.89-1.27 2.89-3.1V5.96H3.39z" fill="#1a1a1a"/></svg>