<svg xmlns="http://www.w3.org/2000/svg" width="48" height="48" viewBox="0 0 12.7 12.7"><path d="M6.34.07a6.29 6.29 0 0 0-6.29 6.3 6.29 6.29 0 0 0 6.3 6.28 6.29 6.29 0 0 0 6.28-6.29A6.29 6.29 0 0 0 6.34.07zm-.01.94a5.4 5.4 0 0 1 5.4 5.4 5.4 5.4 0 0 1-5.4 5.41 5.4 5.4 0 0 1-5.41-5.4A5.4 5.4 0 0 1 6.32 1zm.06 1.1c-.43 0-.75.2-.75.44v.31h-.02l-.49.25a.18.18 0 0 0-.05.05 1.2 1.2 0 0 0-.45-.08c-.43 0-.75.18-.75.43v.26c-.03 0-.06 0-.08.02l-.93.5a.17.17 0 0 0-.07.08l-.01.02v.02l-.02.05v4.06c0 .06.03.12.09.15l3.38 1.89h.01l.07.02h.01l.06-.01.03-.01 3.42-1.9c.05-.03.09-.1.09-.15V4.47a.18.18 0 0 0-.09-.15h-.02c0-.01 0-.02-.02-.03l-.93-.5h-.01V3.5c0-.24-.33-.43-.76-.43-.18 0-.34.04-.47.1l-.02-.03-.45-.22h-.01v-.37c0-.25-.33-.43-.76-.43zm-.48.77c.13.06.3.1.48.1.2 0 .36-.04.49-.1v.49c0 .05-.18.17-.49.17-.3 0-.48-.12-.48-.17v-.5zm-.27.37v.12c0 .24.32.43.75.43s.76-.19.76-.43V3.3l.21.1-.01.1v.81c0 .25.32.44.75.44s.76-.19.76-.44V4.2l.53.28-3.06 1.7-3.03-1.7.58-.32v.18c0 .24.32.43.75.43s.76-.19.76-.43V3.5a.28.28 0 0 0-.03-.12l.28-.14zm1.98.59c.13.06.3.1.48.1.2 0 .36-.04.5-.1v.48c0 .05-.18.17-.5.17-.3 0-.48-.11-.48-.17v-.48zm-3.47 0c.13.06.3.1.48.1.2 0 .36-.04.5-.1v.49c0 .05-.18.16-.5.16-.31 0-.48-.11-.48-.16v-.5zm2.23.18c-.43 0-.75.18-.75.43v.82c0 .25.32.43.75.43s.76-.18.76-.43v-.82c0-.25-.33-.43-.76-.43zm-.48.76c.13.06.3.1.48.1.2 0 .36-.04.49-.1v.49c0 .05-.17.17-.49.17-.3 0-.48-.12-.48-.17v-.49z" fill="#1a1a1a"/></svg>