<svg xmlns="http://www.w3.org/2000/svg" width="48" height="48" viewBox="0 0 12.7 12.7"><g transform="translate(0 -284.3)"><path fill="#1a1a1a" d="M6.344 284.373a6.29 6.29 0 0 0-6.29 6.29 6.29 6.29 0 0 0 6.29 6.288 6.29 6.29 0 0 0 6.29-6.289 6.29 6.29 0 0 0-6.29-6.29zm-.018.936a5.407 5.407 0 0 1 5.407 5.407 5.407 5.407 0 0 1-5.407 5.407 5.407 5.407 0 0 1-5.407-5.407 5.407 5.407 0 0 1 5.407-5.407z"/><path fill="none" stroke="#1a1a1a" stroke-width=".265" d="M2.778 292.899c3.572.132 3.837-4.366 7.144-4.233"/><circle cx="6.482" cy="287.343" r=".661" fill="#1a1a1a" stroke="#1a1a1a" stroke-width=".132"/><circle cx="6.482" cy="293.957" r=".661" fill="#1a1a1a" stroke="#1a1a1a" stroke-width=".132"/><path fill="#1a1a1a" stroke="#1a1a1a" d="M73 43h2v66h-2z" transform="matrix(.1323 0 0 .09338 -3.307 283.6)"/><path fill="#1a1a1a" stroke="#1a1a1a" stroke-width=".265" d="M6.085 290.782a.397.397 0 1 0 .795 0 .397.397 0 0 0-.795 0zm-3.704 1.471H3.44v1.058H2.38zm6.88-4.233h1.058v1.058H9.26z"/></g></svg>