<svg xmlns="http://www.w3.org/2000/svg" width="48" height="48" viewBox="0 0 12.7 12.7"><defs><radialGradient id="a" cx="27" cy="24" r="11" gradientTransform="matrix(.81818 0 0 .9091 388.48 501.98)" gradientUnits="userSpaceOnUse"><stop stop-color="#334545"/><stop offset="1" stop-color="#172525"/></radialGradient></defs><path d="M6.34.07a6.29 6.29 0 0 0-6.29 6.3 6.29 6.29 0 0 0 6.3 6.28 6.29 6.29 0 0 0 6.28-6.29A6.29 6.29 0 0 0 6.34.07zm-.01.94a5.4 5.4 0 0 1 5.4 5.06H9.16c-.48-.69-2-2.5-4.82-2.5.53 1.6.68 2.62.45 3.9H1.03a5.4 5.4 0 0 1-.11-1.05A5.4 5.4 0 0 1 6.32 1zm2.84 5.62h2.55a5.4 5.4 0 0 1-5.4 5.2 5.4 5.4 0 0 1-5.15-3.81h3.5c-.08.34-.19.7-.32 1.11a5.84 5.84 0 0 0 4.82-2.5z" fill="#1a1a1a"/><path d="M1.18 4.68c-.06.18-.1.37-.14.56h4.31a1.93 1.93 0 0 0 0-.56z" opacity=".75" fill="#1a1a1a"/></svg>