<svg xmlns="http://www.w3.org/2000/svg" width="48" height="48" viewBox="0 0 12.7 12.7"><path d="M6.34.07a6.29 6.29 0 0 0-6.29 6.3 6.29 6.29 0 0 0 6.3 6.28 6.29 6.29 0 0 0 6.28-6.29A6.29 6.29 0 0 0 6.34.07zm-.01.94a5.4 5.4 0 0 1 5.4 5.4 5.4 5.4 0 0 1-5.4 5.41 5.4 5.4 0 0 1-5.41-5.4A5.4 5.4 0 0 1 6.32 1z" fill="#1a1a1a"/><g opacity=".75"><path d="M6.35 1.55c-1.28 0-2.44.5-3.3 1.3L4.1 3.9a.51.51 0 0 1 .24-.07h4.04a.5.5 0 0 1 .24.07l1.03-1.04a4.78 4.78 0 0 0-3.29-1.3zm0 0" fill="#00f"/><path d="M2.85 3.06a4.78 4.78 0 0 0 0 6.58L3.9 8.61a.5.5 0 0 1-.07-.24V4.33a.5.5 0 0 1 .07-.24zm0 0" fill="#f0f"/><path d="M9.85 3.06L8.8 4.09a.5.5 0 0 1 .07.24v4.04a.5.5 0 0 1-.07.24l1.04 1.03a4.78 4.78 0 0 0 0-6.58zm0 0" fill="#f60"/><path d="M8.61 8.81a.5.5 0 0 1-.24.07h-2.9l-1.3 1.11a.14.14 0 0 1-.24-.1v-.92l-.87.88a4.78 4.78 0 0 0 6.58 0zm0 0" fill="#ff0"/></g></svg>