<svg xmlns="http://www.w3.org/2000/svg" width="48" height="48" viewBox="0 0 12.7 12.7"><path fill="#1a1a1a" d="M6.344.073a6.29 6.29 0 0 0-6.29 6.29 6.29 6.29 0 0 0 6.29 6.289 6.29 6.29 0 0 0 6.29-6.29 6.29 6.29 0 0 0-6.29-6.29zm-.018.936a5.407 5.407 0 0 1 5.407 5.407 5.407 5.407 0 0 1-5.407 5.407A5.407 5.407 0 0 1 .92 6.416 5.407 5.407 0 0 1 6.326 1.01z"/><path fill="#4a0" d="M6.362 6.338h-4.19c0-2.293 1.896-4.141 4.19-4.141" opacity=".6"/><path fill="#ff0" d="M6.362 6.338V2.197A4.131 4.131 0 0 1 10.5 6.338" opacity=".6"/><path fill="red" d="M6.362 6.338h-4.19c0 2.294 1.896 4.141 4.19 4.141" opacity=".6"/><path fill="#06f" d="M6.362 6.338v4.141A4.131 4.131 0 0 0 10.5 6.34" opacity=".6"/></svg>