<svg xmlns="http://www.w3.org/2000/svg" width="48" height="48" viewBox="0 0 12.7 12.7"><path d="M6.35.04a6.3 6.3 0 0 0-6.3 6.31 6.3 6.3 0 0 0 6.3 6.3 6.3 6.3 0 0 0 6.3-6.3 6.3 6.3 0 0 0-6.3-6.3zm-.02.94a5.42 5.42 0 0 1 5.43 5.42 5.42 5.42 0 0 1-5.43 5.43A5.42 5.42 0 0 1 .91 6.4 5.42 5.42 0 0 1 6.33.98zm.02.6l-.45.01-.27 1.43a3.42 3.42 0 0 0-.67.22l-1.04-1a4.72 4.72 0 0 0-.73.55l.62 1.3a3.45 3.45 0 0 0-.4.55l-1.43-.19a4.72 4.72 0 0 0-.28.88L2.96 6a3.3 3.3 0 0 0-.02.34c0 .12 0 .23.02.34l-1.26.68c.07.3.15.6.28.88l1.43-.2c.11.2.25.39.4.56l-.62 1.3c.23.2.46.4.73.56l1.04-1c.21.09.44.16.67.2l.27 1.44a4.86 4.86 0 0 0 .9 0l.27-1.43a3.36 3.36 0 0 0 .67-.22l1.04 1c.27-.15.5-.34.73-.55l-.62-1.3a3.48 3.48 0 0 0 .4-.55l1.43.19a4.72 4.72 0 0 0 .28-.88L9.74 6.7l.02-.34c0-.12 0-.23-.02-.34L11 5.33a4.71 4.71 0 0 0-.28-.88l-1.43.2a3.45 3.45 0 0 0-.4-.56l.62-1.3a4.72 4.72 0 0 0-.73-.56l-1.04 1a3.42 3.42 0 0 0-.67-.2L6.8 1.58a4.86 4.86 0 0 0-.45-.02zm0 2.72a2.05 2.05 0 0 1 0 4.1 2.05 2.05 0 0 1 0-4.1z" fill="#1a1a1a"/></svg>