<svg xmlns="http://www.w3.org/2000/svg" width="48" height="48" viewBox="0 0 12.7 12.7"><path d="M6.34.07a6.29 6.29 0 0 0-6.29 6.3 6.29 6.29 0 0 0 6.3 6.28 6.29 6.29 0 0 0 6.28-6.29 6.29 6.29 0 0 0-.32-1.96c-.04.15-.06.27-.13.45l-.1.3-.1.3-.26.6a5.4 5.4 0 0 1 .01.37 5.4 5.4 0 0 1-4.7 5.35c-.02.08-.06.15-.1.23-.23.32-.38.49-.47.55-.04.04-.06.04-.08.03-.02-.01-.02-.04-.02-.09.01-.17.14-.54.13-.67a5.4 5.4 0 0 1-.16 0 5.4 5.4 0 0 1-5.41-5.4A5.4 5.4 0 0 1 6.32 1a5.4 5.4 0 0 1 4.54 2.46l.4-.33c.18-.11.31-.15.4-.13A6.29 6.29 0 0 0 6.34.07zm-1.96 2.4c-.42 0-.78.07-1.1.2a2.03 2.03 0 0 0-1.22 1.38 3.94 3.94 0 0 0-.03 2.1c.07.3.2.56.36.79a2.05 2.05 0 0 0 1.46.86c.02.3.1.57.2.78a1.7 1.7 0 0 0 1.02.85c.2.06.42.1.64.1h.52V9.1h-.11c-.12 0-.24-.02-.36-.06a.78.78 0 0 1-.32-.2c-.1-.1-.18-.24-.24-.41-.07-.17-.11-.4-.13-.66a2.14 2.14 0 0 0 1.32-.9c.15-.22.26-.48.33-.77a3.61 3.61 0 0 0-.04-2.04 2.3 2.3 0 0 0-.47-.85c-.21-.23-.47-.41-.78-.54-.3-.13-.65-.2-1.05-.2zm0 .48a1.05 1.05 0 0 1 .96.58c.1.2.17.42.21.7a5.78 5.78 0 0 1 0 1.86c-.04.28-.11.5-.21.7a1.05 1.05 0 0 1-.96.58c-.23 0-.42-.05-.58-.15-.16-.1-.29-.24-.39-.43a2.3 2.3 0 0 1-.21-.7 5.79 5.79 0 0 1 0-1.87c.04-.27.11-.5.21-.69.1-.19.23-.33.39-.42.16-.1.35-.16.58-.16zm3.61 0c-.07.33-.18.57-.33.73a.93.93 0 0 1-.72.3v.38h.55v2.33c0 .16.03.28.05.4l.06-.05c.19-.25.6-.74 1-1.22V4.36h.93v-.5H8.6v-.9H8zm3.66.3c-.08 0-.2.06-.34.15-.2.12-.43.31-.7.55-.26.24-.69.74-1 1.06.5 2.1-.11.16-.17.14a66 66 0 0 0-1.56 1.9c-.07.1-.28.25-.35.34-.07.1.4 1.44.32 1.54-.06.08-.48-1.28-.58-1.13l-.24.35c-.14.3-.54 1.11-.34 1.95.18.76.12.77.2 1.05l-.32.77c0 .15-.28.8.2.11.35-.9.77-1.76 1.23-2.59.3-.47.78-1.24 1.95-3.23l1-1.6-.04-.02c.07-.06 1.36-1.08.8-1.33a.15.15 0 0 0-.06 0z" fill="#1a1a1a"/><path d="M11.21 4.1s.82-.65.88-.61c.06.04.07.18.03.4a5.73 5.73 0 0 1-.32 1.07c-.04.09-.92.13-.96.23-.04.1.91-.05.87.05l-.26.58c-.17.4-.26.7-.47 1.14l-.16.33c-.05.1-1.46.23-1.51.34-.06.1 1.49-.2 1.43-.1-.05.11-.36.62-.41.73A37.24 37.24 0 0 1 9.32 10c-.06.09-1.54.14-1.59.22-.05.08 1.53-.07 1.48 0l-.36.46c-.2.25-.08.13-.33.38-.25.24-1.58.26-1.43.02 1.08-2.47 2.68-4.59 4.12-7z" color="#000" opacity=".75" fill="#1a1a1a"/></svg>