<svg xmlns="http://www.w3.org/2000/svg" width="48" height="48" viewBox="0 0 12.7 12.7"><path d="M6.34.07a6.29 6.29 0 0 0-6.29 6.3 6.29 6.29 0 0 0 6.3 6.28 6.29 6.29 0 0 0 6.28-6.29A6.29 6.29 0 0 0 6.34.07zM6.32 1l.01.01a5.4 5.4 0 0 1 5.4 5.4 5.4 5.4 0 0 1-5.4 5.41 5.4 5.4 0 0 1-5.41-5.4A5.4 5.4 0 0 1 6.32 1zm-3.5 2.45a.2.2 0 1 0 0 .41c.42 0 .71.14.97.37.26.23.48.55.7.89.22.33.44.68.73.96.1.1.22.2.36.27-.14.08-.25.17-.36.27-.29.28-.5.63-.73.96a4.3 4.3 0 0 1-.7.89c-.26.23-.55.37-.96.37a.2.2 0 1 0 0 .41c.51 0 .92-.2 1.24-.47.31-.28.55-.63.77-.97.22-.34.43-.66.67-.89.23-.23.48-.36.84-.36s.6.13.84.36c.24.23.45.55.67.9.22.33.46.68.77.96.32.28.73.47 1.24.47a.2.2 0 1 0 0-.41c-.41 0-.7-.14-.96-.37a4.3 4.3 0 0 1-.7-.89c-.22-.33-.44-.68-.73-.96-.1-.1-.22-.2-.36-.27.14-.08.25-.17.36-.27.29-.28.5-.63.73-.96.22-.34.44-.66.7-.89.26-.23.55-.37.96-.37a.2.2 0 1 0 0-.41c-.51 0-.92.2-1.24.47-.31.28-.55.63-.77.97-.22.34-.43.66-.67.89-.23.23-.48.36-.84.36s-.6-.13-.84-.36c-.24-.23-.45-.55-.67-.9-.22-.33-.46-.68-.77-.96a1.84 1.84 0 0 0-1.24-.47z" fill="#1a1a1a"/></svg>