<svg xmlns="http://www.w3.org/2000/svg" width="48" height="48" viewBox="0 0 12.7 12.7"><path d="M6.34.07a6.29 6.29 0 0 0-6.29 6.3 6.29 6.29 0 0 0 6.3 6.28 6.29 6.29 0 0 0 6.28-6.29A6.29 6.29 0 0 0 6.34.07zm-.01.94a5.4 5.4 0 0 1 5.4 5.4 5.4 5.4 0 0 1-5.4 5.41 5.4 5.4 0 0 1-5.41-5.4A5.4 5.4 0 0 1 6.32 1zM6.3 2.28l-.76.05.4.4.11.03s.49.11.87.4c.39.27.49.76.2 1.32-.18.34-.29.45-.52.72-.28.32-.52.57-.63.68a.25.25 0 0 0-.12.06L2.73 9.08a.58.58 0 0 0-.02.8l.22.18c.23.2.58.16.77-.07l2.86-3.38a.26.26 0 0 0 .05-.13c.09-.11.42-.52 1.1-1.2.81-.8.95-.4 1.1-.26.15.14.13.26.13.26.02.07.07.18.13.23l.24.2c.02 0 .43-.44.56-.59.12-.12.3-.38.3-.38a.08.08 0 0 0 0-.1s-.23-.25-.31-.25c-.24-.02-.35-.04-.47-.22s-.12-.32-.18-.43a3.4 3.4 0 0 0-.94-.83 3.87 3.87 0 0 0-1.97-.63zm-2.4.22a2.2 2.2 0 0 0-.55.06.1.1 0 0 0-.05.02c-.02.02-.03.05-.03.08a.1.1 0 0 0 .05.08l1.01.57c.1.05.14.16.13.3a1.15 1.15 0 0 1-.15.5 1.14 1.14 0 0 1-.34.4c-.12.08-.23.1-.32.05l-1-.56a.1.1 0 0 0-.12 0 .1.1 0 0 0-.03.09v.03c.16.46.49.89.85 1.1.3.16.62.2.93.12.21.08.5.23.8.52l.27.23c.28-.34.5-.55.74-.79l-.21-.23a2.5 2.5 0 0 1-.51-.92c.1-.57-.14-1.16-.65-1.44a1.81 1.81 0 0 0-.83-.2zm3.33 3.85c-.26.29-.55.58-.87.88l2.62 2.8c.25.25.7.22.98-.07.3-.3.33-.73.07-.99l-2.8-2.62zm2.2 2.7a.37.37 0 0 1 .27.64.37.37 0 1 1-.28-.63z" fill="#1a1a1a"/></svg>