<svg xmlns="http://www.w3.org/2000/svg" width="24" height="24" version="1"><path d="M4.11 3.25a.86.86 0 0 0-.86.86v2.45c0 .48.39.86.86.86h2.45c.48 0 .86-.38.86-.86V4.11a.86.86 0 0 0-.86-.86zM10.78 3.25a.86.86 0 0 0-.87.86v2.45c0 .48.39.86.87.86h2.44c.48 0 .87-.38.87-.86V4.11a.86.86 0 0 0-.87-.86zM17.44 3.25a.86.86 0 0 0-.86.86v2.45c0 .48.38.86.86.86h2.45c.47 0 .86-.38.86-.86V4.11a.86.86 0 0 0-.86-.86zM4.11 9.91a.86.86 0 0 0-.86.86v2.45c0 .48.39.87.86.87h2.45c.48 0 .86-.39.86-.87v-2.45a.86.86 0 0 0-.86-.86zM10.78 9.91a.86.86 0 0 0-.87.86v2.45c0 .48.39.87.87.87h2.44c.48 0 .87-.39.87-.87v-2.45a.86.86 0 0 0-.87-.86zM17.44 9.91a.86.86 0 0 0-.86.86v2.45c0 .48.38.87.86.87h2.45c.47 0 .86-.39.86-.87v-2.45a.86.86 0 0 0-.86-.86zM4.11 16.58a.86.86 0 0 0-.86.86v2.45c0 .47.39.86.86.86h2.45c.48 0 .86-.39.86-.86v-2.45a.86.86 0 0 0-.86-.86zM10.78 16.58a.86.86 0 0 0-.87.86v2.45c0 .47.39.86.87.86h2.44c.48 0 .87-.39.87-.86v-2.45a.86.86 0 0 0-.87-.86zM17.44 16.58a.86.86 0 0 0-.86.86v2.45c0 .47.38.86.86.86h2.45c.47 0 .86-.39.86-.86v-2.45a.86.86 0 0 0-.86-.86z" fill="gray"/></svg>