<svg xmlns="http://www.w3.org/2000/svg" width="48" height="48" viewBox="0 0 12.7 12.7"><path d="M6.34.07a6.29 6.29 0 0 0-6.29 6.3 6.29 6.29 0 0 0 6.3 6.28 6.29 6.29 0 0 0 6.28-6.29A6.29 6.29 0 0 0 6.34.07zm-.01.94a5.4 5.4 0 0 1 5.4 5.4 5.4 5.4 0 0 1-5.4 5.41 5.4 5.4 0 0 1-5.41-5.4A5.4 5.4 0 0 1 6.32 1zM4.6 2.79v2.36h1.14l.02-.06a.55.55 0 0 1 .5-.36c.3 0 .55.25.55.55a.54.54 0 1 1-1.02.26l-.03-.05h-1.5V2.8H2.83v4.25l2.42 1.07.05-.06a.55.55 0 0 1 .43-.2.57.57 0 0 1 0 1.13.56.56 0 0 1-.55-.49l-.01-.05-2.34-1.03v2.5h7.04V2.8h-1.1v2.15l.04.03c.15.1.24.27.24.45a.53.53 0 0 1-.53.53.53.53 0 0 1-.53-.53c0-.23.15-.44.37-.5l.06-.03V2.8H4.6zm1.66 2.25a.28.28 0 0 0-.28.28.28.28 0 0 0 .28.27.28.28 0 0 0 .28-.28.28.28 0 0 0-.28-.27zm2.25.1a.28.28 0 0 0-.27.28.28.28 0 0 0 .27.28.28.28 0 0 0 .28-.28.28.28 0 0 0-.28-.28zm-2.8 3a.28.28 0 0 0-.28.27c0 .16.12.28.27.28a.28.28 0 0 0 .3-.28.28.28 0 0 0-.28-.28z" fill="#ff7f2a"/></svg>