<svg xmlns="http://www.w3.org/2000/svg" width="48" height="48" viewBox="0 0 12.7 12.7"><path fill="#ff7f2a" d="M6.34.07a6.29 6.29 0 0 0-6.29 6.3 6.29 6.29 0 0 0 6.3 6.28 6.29 6.29 0 0 0 6.28-6.29A6.29 6.29 0 0 0 6.34.07zm-.01.94a5.4 5.4 0 0 1 5.4 5.4 5.4 5.4 0 0 1-5.4 5.41 5.4 5.4 0 0 1-5.41-5.4A5.4 5.4 0 0 1 6.32 1zm2.32 1.28L6.42 6.38l.17.27h1.64v.73h-.07a.24.24 0 0 0-.24.24v2.47c0 .14.1.25.24.25h.87c.14 0 .25-.11.25-.25V7.62a.24.24 0 0 0-.25-.24h-.1v-.72h1.61l.2-.3-2.09-4.08zm-4.38.46c-.66.04-1.5.57-2.29 1.68 0 0 2.36-1.21 2.36.72v1.87h-.23s-.24 0-.24.24v2.84c0 .23.24.23.24.23h1.42s.23 0 .23-.23V7.26c0-.23-.23-.23-.23-.23h-.24V5.04c0-.22.14-.82.7-.82l.48.43h.71V2.77h-.7l-.49.32s-1.06-.37-1.72-.34z"/></svg>