<svg xmlns="http://www.w3.org/2000/svg" width="24" height="24"><path d="M7.42 4.14v2.22H5.2c-1.93.02-3.07 1.53-3.22 3.06a9.92 9.92 0 0 0 .01.99l.02.14.07.54.03.31.03.14.13.59c.03.08.04.17.06.25l.04.1.2.63.08.22.04.1.26.58.1.24.06.08c.1.2.22.4.33.59l.12.2.04.06.37.52.17.23.06.07.38.43.22.26.05.04.4.38.29.26.05.04c.49.4 1.1.65 1.66.96-.1-.4-.25-.8-.25-1.24 0-.4.14-.76.23-1.13l-.2-.15-.34-.3-.23-.21A7.89 7.89 0 0 1 4.09 9.7c0-.62.5-1.12 1.1-1.12h2.23v2.23l4.44-3.34zm5.84 2.22V8.6h5.54c.62 0 1.11.5 1.11 1.1 0 2.17-.87 4.13-2.28 5.56l-.09.09-.23.2a4.97 4.97 0 0 1-.54.45c.09.38.23.74.23 1.14 0 .44-.15.84-.25 1.24.56-.3 1.17-.55 1.66-.96l.05-.04.29-.26.4-.38.05-.04.22-.26.38-.43.06-.07.17-.23.37-.52.04-.06.12-.2c.11-.2.23-.39.33-.59l.05-.08.11-.24.26-.58c0-.03.03-.07.04-.1l.07-.22c.08-.2.15-.41.21-.62l.04-.1c.02-.1.03-.18.06-.26l.13-.59.03-.14c.02-.1.02-.2.03-.31l.07-.54.02-.14a10.04 10.04 0 0 0 .01-1c-.15-1.52-1.29-3.03-3.22-3.05h-2.22zM12 13.24a3.9 3.9 0 1 0 0 7.79 3.9 3.9 0 0 0 0-7.79zm-.56 1.11h1.12v5.56h-1.12v-3.89h-1.1v-.55c1.1 0 1.1-1.12 1.1-1.12z" fill="gray" stroke-width="1.11"/></svg>