<svg xmlns="http://www.w3.org/2000/svg" version="1" width="24" height="24"><g fill="none" stroke="#a02c2c"><path d="M21.318 12A9.294 9.294 0 0 0 12 2.682 9.294 9.294 0 0 0 2.682 12 9.294 9.294 0 0 0 12 21.318 9.294 9.294 0 0 0 21.318 12zm-5.909 0A3.393 3.393 0 0 1 12 15.41 3.393 3.393 0 0 1 8.59 12c0-1.876 1.383-3.41 3.41-3.41s3.41 1.571 3.41 3.41z" stroke-width="1.364"/><path style="marker:none" d="M12 8.59a3.41 3.41 0 0 0 0 6.82 3.41 3.41 0 0 0 0-6.82zm0 1.705a1.705 1.705 0 1 1-.001 3.41 1.705 1.705 0 0 1 .001-3.41z" overflow="visible" stroke-linejoin="round" stroke-width=".455"/></g><g transform="translate(-17.091 1.09) scale(.45455)"><path d="M66.33 22.66h19.16v22.726H66.33z" fill="#009e80" paint-order="markers fill stroke"/><path style="marker:none" d="M69.04 45.541h-2.637c-.214-.271-.052-.81-.102-1.194V22.754l.03-.094.072-.038h2.6m13.788 0h2.646c.125 0 .103.72.103 1.194V45.41c0 .123-.407.132-.933.132h-1.794" display="block" overflow="visible" fill="none" stroke="navy" stroke-width=".917" stroke-linejoin="round"/><rect y="22.622" x="69.039" ry="0" rx="0" height="22.92" width="13.752" fill="none" stroke="navy" stroke-width=".917"/><path d="M66.747 23.997h1.834v1.833h-1.834zm0 3.667h1.834v1.834h-1.834zm0 3.667h1.834v1.834h-1.834zm0 3.667h1.834v1.834h-1.834zm0 3.668h1.834v1.833h-1.834zm0 3.667h1.834v1.833h-1.834z" fill="navy"/><path style="marker:none" d="M69.956 33.623h11.918" display="block" overflow="visible" fill="none" stroke="navy" stroke-width=".917" stroke-linecap="square" stroke-linejoin="round"/><path d="M83.25 23.997h1.833v1.833H83.25zm0 3.667h1.833v1.834H83.25zm0 3.667h1.833v1.834H83.25zm0 3.667h1.833v1.834H83.25zm0 3.668h1.833v1.833H83.25zm0 3.667h1.833v1.833H83.25z" fill="navy"/></g></svg>