<svg xmlns="http://www.w3.org/2000/svg" version="1" width="24" height="24"><g fill="none" stroke="#a02c2c"><path d="M21.559 11.775A9.534 9.534 0 0 0 12 2.216a9.534 9.534 0 0 0-9.559 9.559A9.534 9.534 0 0 0 12 21.333a9.534 9.534 0 0 0 9.559-9.558zm-6.062 0A3.48 3.48 0 0 1 12 15.272a3.48 3.48 0 0 1-3.497-3.497c0-1.925 1.418-3.497 3.497-3.497 2.079 0 3.497 1.61 3.497 3.497z" stroke-width="1.399"/><path d="M12 8.278a3.498 3.498 0 0 0-3.497 3.497A3.498 3.498 0 0 0 12 15.272a3.498 3.498 0 0 0 3.497-3.497A3.498 3.498 0 0 0 12 8.278zm0 1.748a1.75 1.75 0 1 1-.001 3.498A1.75 1.75 0 0 1 12 10.026z" style="marker:none" overflow="visible" stroke-linejoin="round" stroke-width=".466"/></g><path d="M19.856 8.793l-3.874 10.718M20.89 5.935l-.646 1.786" fill="#447821" fill-rule="evenodd" stroke="#447821" stroke-width="2.686"/><path d="M14.408 19.952l2.501.904-2.204 1.627z" fill="#447821" fill-opacity=".986" fill-rule="evenodd"/></svg>