<svg xmlns="http://www.w3.org/2000/svg" width="48" height="48" viewBox="0 0 12.7 12.7"><path d="M3.068.321a.768.768 0 0 0-.77.77v1.232h1.54V1.09a.768.768 0 0 0-.77-.77zm6.51 0a.768.768 0 0 0-.77.77v1.232h1.539V1.09a.768.768 0 0 0-.77-.77zM.18 2.671v2.104h.013v5.427c0 .637.246 1.182.737 1.634.491.453 1.083.679 1.775.679H9.96c.692 0 1.283-.226 1.775-.679.49-.452.736-.997.736-1.634v-6.31h-.008V2.672H.181zm1.13 2.104h10.044v5.427c0 .354-.136.656-.41.908a1.403 1.403 0 0 1-.985.377H2.706c-.384 0-.712-.126-.986-.377a1.19 1.19 0 0 1-.41-.908V4.775zM4.448 5.9a2.38 2.38 0 0 0-.543.07 4.497 4.497 0 0 0-.639.207v.571c.224-.125.434-.218.63-.28.198-.061.385-.092.563-.092.25 0 .452.07.607.21.157.14.235.321.235.543a.909.909 0 0 1-.109.417 2.62 2.62 0 0 1-.378.516c-.095.108-.328.35-.7.725-.37.373-.661.67-.876.893v.476h2.654V9.68H3.92c.455-.465.808-.826 1.058-1.084.25-.26.398-.416.445-.47.17-.21.286-.39.35-.544.065-.154.098-.318.098-.49 0-.362-.129-.651-.387-.868-.257-.216-.602-.324-1.035-.324zm3.65.075l-.999.202v.515l1.005-.201V9.68H7.18v.476h2.408V9.68h-.924V5.975H8.1z" fill="#1a1a1a"/></svg>