<svg xmlns="http://www.w3.org/2000/svg" width="24" height="24" viewBox="0 0 6.35 6.35"><path d="M1.15 1.37c-.06 0-.1.02-.1.07l-.6 3.03c-.08.3.55.65.96.42l.97-1.41h1.58l.97 1.4c.41.24 1.04-.11.96-.4l-.6-3.04c0-.05-.04-.07-.1-.07zm.7.35h.18a.09.09 0 0 1 .08.09v.26h.27a.09.09 0 0 1 .09.09v.18a.09.09 0 0 1-.1.08h-.26v.27a.09.09 0 0 1-.08.09h-.18a.09.09 0 0 1-.09-.1v-.26H1.5a.09.09 0 0 1-.09-.08v-.18a.09.09 0 0 1 .09-.09h.26v-.26a.09.09 0 0 1 .08-.09zm2.54 0a.18.18 0 0 1 .01 0 .18.18 0 0 1 .18.18.18.18 0 0 1-.18.17.18.18 0 0 1-.17-.17.18.18 0 0 1 .16-.18zm-.35.35a.18.18 0 0 1 .01 0 .18.18 0 0 1 .18.18.18.18 0 0 1-.18.17.18.18 0 0 1-.18-.17.18.18 0 0 1 .17-.18zm.7 0a.18.18 0 0 1 .01 0 .18.18 0 0 1 .18.18.18.18 0 0 1-.18.17.18.18 0 0 1-.17-.17.18.18 0 0 1 .16-.18zm-.35.35a.18.18 0 0 1 .01 0 .18.18 0 0 1 .18.18.18.18 0 0 1-.18.18.18.18 0 0 1-.17-.18.18.18 0 0 1 .16-.18z" fill="gray"/></svg>