<svg xmlns="http://www.w3.org/2000/svg" width="24" height="24"><defs><linearGradient id="a"><stop offset="0" stop-color="#555753"/><stop offset="1" stop-color="#d3d7cf" stop-opacity="0"/></linearGradient><linearGradient id="b"><stop offset="0"/><stop offset="1" stop-opacity="0"/></linearGradient><linearGradient id="c"><stop offset="0" stop-color="#b9b9b9"/><stop offset="1" stop-color="#fff"/></linearGradient><linearGradient id="d"><stop offset="0" stop-color="#fff"/><stop offset="1" stop-color="#a9a9a7"/></linearGradient></defs><path d="M15.336 2.726l-5.32.026c.702-.027 1.356.609 1.989 1.549a27.897 27.897 0 0 1 1.553 3.036l-1.863 1.07 5.4.518 2.273-4.933-1.88 1.08c-.51-1.04-1.163-1.903-2.152-2.346zm-5.338.379l-.265.001c-.25.05-.452.158-.606.323-1.247 1.223-2.01 2.447-2.635 3.668l3.514 2.015 2.398-3.36a30.933 30.933 0 0 0-.7-1.263c-.309-.459-.904-1.272-1.519-1.375zm9.44 5.79c-1.159.692-2.32 1.382-3.479 2.075l.172.37.021-.03v.074l1.387 2.952c.561.02 1.124.023 1.685.017.582-.048 1.662-.181 1.998-.737.013-.02.021-.038.033-.057l.136-.245c0-.11-.014-.222-.047-.327-.455-1.685-1.148-2.947-1.905-4.092zm-11.663.58l-5.343.98 1.966.912c-.557 1.019-.887 2.048-.683 3.11 1.027 1.448 2.054 2.893 3.083 4.34-.425-.56-.28-1.46.125-2.52.466-1.013.98-2.024 1.587-3.017l1.95.908zm8.035 2.946l-3.095 4.453 3.188 4.4-.022-2.167c1.156.065 2.23-.082 3.102-.724.862-1.552 1.723-3.102 2.585-4.65-.325.624-1.201.88-2.33.972-1.118.02-2.249-.013-3.406-.134zm-7.87 2.593c-.242.467-.471.94-.692 1.423-.21.547-.556 1.579-.2 2.12.013.02.025.037.039.055l.168.236c.141.1.295.158.457.18 1.718.32 3.155.236 4.515.046l-.375-4.033z" opacity=".75" fill="gray"/></svg>