<svg xmlns="http://www.w3.org/2000/svg" width="48" height="48" viewBox="0 0 12.7 12.7"><path d="M6.34.07a6.29 6.29 0 0 0-6.29 6.3 6.29 6.29 0 0 0 6.3 6.28 6.29 6.29 0 0 0 6.28-6.29A6.29 6.29 0 0 0 6.34.07zM6.32 1l.01.01a5.4 5.4 0 0 1 4.82 2.97c-.28-.1-.6-.14-.95-.14-1.01 0-2.22.41-3.19 1.04-.4-.23-.84-.33-1.36.01a6.27 6.27 0 0 0-3.2-1.05c-.35 0-.67.05-.95.15A5.4 5.4 0 0 1 6.32 1zm-4 3.21c.62-.04 1.9.35 2.14.7-.3-.28-1.49-.5-2.08-.45-.93.05-1.25.57-1.25.57s.16-.75 1.19-.82zm8.02 0c1.02.07 1.18.82 1.18.82s-.32-.52-1.25-.57c-.6-.04-1.79.17-2.08.45.23-.35 1.52-.74 2.15-.7zm-4.05.88c.15 0 .28.04.42.11a.6.6 0 0 0 .08.42c1.16 1.54 3.84 1.27 4.9.2a5.4 5.4 0 0 1 .04.59 5.4 5.4 0 0 1-5.4 5.41 5.4 5.4 0 0 1-5.41-5.4 5.4 5.4 0 0 1 .03-.6c1.06 1.07 3.75 1.34 4.91-.2a.6.6 0 0 0 .08-.43c.12-.07.24-.1.35-.1zm3.24 2.29l-.04.02c-2 1.94-4.09 2.2-6.29 0-.07-.08-.07.08-.07.19 0 .1 0 .1.07.19 2.1 2.13 4.2 2.09 6.3 0 .06-.08.04-.11.04-.22 0-.08.02-.17 0-.18zM5.57 10c-.06.13-.1.26 0 .39.59.25 1.1.19 1.6 0a.4.4 0 0 0 0-.4c-.5.2-1.02.27-1.6 0z" fill="#1a1a1a"/></svg>