<?xml version="1.0" encoding="UTF-8" standalone="no"?>
<svg
   xmlns:dc="http://purl.org/dc/elements/1.1/"
   xmlns:cc="http://creativecommons.org/ns#"
   xmlns:rdf="http://www.w3.org/1999/02/22-rdf-syntax-ns#"
   xmlns:svg="http://www.w3.org/2000/svg"
   xmlns="http://www.w3.org/2000/svg"
   xmlns:sodipodi="http://sodipodi.sourceforge.net/DTD/sodipodi-0.dtd"
   xmlns:inkscape="http://www.inkscape.org/namespaces/inkscape"
   width="48"
   height="48"
   viewBox="0 0 12.7 12.7"
   version="1.1"
   id="svg4"
   sodipodi:docname="musescore.svg"
   inkscape:version="0.92.5 (2060ec1f9f, 2020-04-08)">
  <defs
     id="defs8">
  <style
     id="current-color-scheme"
     type="text/css">
      .ColorScheme-Text {
        color:#000000;
      }
  </style>
  </defs>
  <path
     class="ColorScheme-Text"
     style="fill:currentColor"
     d="M 24 0 A 24 24 0 0 0 0 24 A 24 24 0 0 0 24 48 A 24 24 0 0 0 48 24 A 24 24 0 0 0 24 0 z M 24 3 A 21 21 0 0 1 45 24 A 21 21 0 0 1 24 45 A 21 21 0 0 1 3 24 A 21 21 0 0 1 24 3 z M 32.5 11 C 29.453 11 27 13.453 27 16.5 L 27 17 L 29 17 L 29 16.5 C 29 14.561 30.561 13 32.5 13 C 34.439 13 36 14.561 36 16.5 L 36 17 L 38 17 L 38 16.5 C 38 13.453 35.547 11 32.5 11 z M 32.5 15 A 1.5 1.5 0 0 0 31 16.5 A 1.5 1.5 0 0 0 32.5 18 A 1.5 1.5 0 0 0 34 16.5 A 1.5 1.5 0 0 0 32.5 15 z M 14.5 19 C 11.453 19 9 21.453 9 24.5 L 9 27 L 9 35 L 11 35 L 11 27 L 11 24.5 C 11 22.561 12.561 21 14.5 21 C 16.439 21 18 22.561 18 24.5 L 18 27 L 18 35 L 20 35 L 20 27 L 20 24.5 C 20 22.561 21.561 21 23.5 21 C 25.439 21 27 22.561 27 24.5 L 27 27 L 27 29.5 C 27 32.547 29.453 35 32.5 35 C 35.547 35 38 32.547 38 29.5 L 38 21 L 36 21 L 36 29.5 C 36 31.439 34.439 33 32.5 33 C 30.561 33 29 31.439 29 29.5 L 29 27 L 29 24.5 C 29 21.453 26.547 19 23.5 19 C 21.633515 19 19.993402 19.922334 19 21.335938 C 18.006598 19.922334 16.366485 19 14.5 19 z "
     transform="scale(0.26458333)"
     id="rect822" />
</svg>
