<?xml version="1.0" encoding="UTF-8" standalone="no"?>
<!-- Created with Inkscape (http://www.inkscape.org/) -->

<svg
   xmlns:dc="http://purl.org/dc/elements/1.1/"
   xmlns:cc="http://creativecommons.org/ns#"
   xmlns:rdf="http://www.w3.org/1999/02/22-rdf-syntax-ns#"
   xmlns:svg="http://www.w3.org/2000/svg"
   xmlns="http://www.w3.org/2000/svg"
   xmlns:sodipodi="http://sodipodi.sourceforge.net/DTD/sodipodi-0.dtd"
   xmlns:inkscape="http://www.inkscape.org/namespaces/inkscape"
   version="1.1"
   width="24"
   height="24"
   id="svg2906"
   sodipodi:docname="nm-device-wired.svg"
   inkscape:version="0.92.3 (2405546, 2018-03-11)">
  <sodipodi:namedview
     pagecolor="#ffffff"
     bordercolor="#666666"
     borderopacity="1"
     objecttolerance="10"
     gridtolerance="10"
     guidetolerance="10"
     inkscape:pageopacity="0"
     inkscape:pageshadow="2"
     inkscape:window-width="1366"
     inkscape:window-height="684"
     id="namedview18"
     showgrid="false"
     inkscape:zoom="22.166667"
     inkscape:cx="-5.1428572"
     inkscape:cy="11.639098"
     inkscape:window-x="0"
     inkscape:window-y="28"
     inkscape:window-maximized="1"
     inkscape:current-layer="svg2906"
     showguides="true"
     inkscape:guide-bbox="true"
     inkscape:snap-global="false" />
  <metadata
     id="metadata3009">
    <rdf:RDF>
      <cc:Work
         rdf:about="">
        <dc:format>image/svg+xml</dc:format>
        <dc:type
           rdf:resource="http://purl.org/dc/dcmitype/StillImage" />
        <dc:title></dc:title>
      </cc:Work>
    </rdf:RDF>
  </metadata>
  <defs
     id="defs2908">
    <clipPath
       id="clipPath2915">
      <rect
         width="4.0000005"
         height="15.000033"
         x="-202.00041"
         y="21"
         transform="matrix(0,-1,1,0,0,0)"
         id="rect2917"
         style="color:#000000;fill:#000000;fill-opacity:1;stroke:none;stroke-width:2;marker:none;visibility:visible;display:inline;overflow:visible;enable-background:accumulate" />
    </clipPath>
    <clipPath
       id="clipPath2854">
      <rect
         width="1.1249844"
         height="4.1250067"
         x="27.375002"
         y="221.875"
         id="rect2856"
         style="color:#000000;fill:#000000;fill-opacity:1;stroke:none;stroke-width:2;marker:none;visibility:visible;display:inline;overflow:visible;enable-background:accumulate" />
    </clipPath>
    <clipPath
       id="clipPath2920">
      <path
         d="m 27.545458,222.48863 0,-0.57954 1.738637,0 0,4.05682 -1.738637,0 0,-0.57955 -0.579545,0 0,-2.89773 0.579545,0 z"
         id="path2922"
         style="color:#000000;fill:#000000;fill-opacity:1;fill-rule:nonzero;stroke:none;stroke-width:2;marker:none;visibility:visible;display:inline;overflow:visible;enable-background:accumulate" />
    </clipPath>
    <clipPath
       clipPathUnits="userSpaceOnUse"
       id="clipPath851">
      <ellipse
         style="opacity:1;fill:#cccccc;fill-opacity:1;fill-rule:nonzero;stroke:none;stroke-width:0.37880188;stroke-linecap:round;stroke-linejoin:round;stroke-miterlimit:4;stroke-dasharray:none;stroke-opacity:1;paint-order:normal"
         id="ellipse853"
         cx="7.9909444"
         cy="40.182869"
         rx="7.5484991"
         ry="7.490562" />
    </clipPath>
    <clipPath
       clipPathUnits="userSpaceOnUse"
       id="clipPath835">
      <ellipse
         style="opacity:1;fill:#cccccc;fill-opacity:1;fill-rule:nonzero;stroke:none;stroke-width:0.29710582;stroke-linecap:round;stroke-linejoin:round;stroke-miterlimit:4;stroke-dasharray:none;stroke-opacity:1;paint-order:normal"
         id="ellipse837"
         cx="23.62096"
         cy="24.499601"
         rx="21.006697"
         ry="21.050003" />
    </clipPath>
    <clipPath
       clipPathUnits="userSpaceOnUse"
       id="clipPath831">
      <ellipse
         style="opacity:1;fill:#cccccc;fill-opacity:1;fill-rule:nonzero;stroke:none;stroke-width:0.29710582;stroke-linecap:round;stroke-linejoin:round;stroke-miterlimit:4;stroke-dasharray:none;stroke-opacity:1;paint-order:normal"
         id="ellipse833"
         cx="23.62096"
         cy="24.499601"
         rx="21.006697"
         ry="21.050003" />
    </clipPath>
    <clipPath
       clipPathUnits="userSpaceOnUse"
       id="clipPath827">
      <ellipse
         style="opacity:1;fill:#cccccc;fill-opacity:1;fill-rule:nonzero;stroke:none;stroke-width:0.29710582;stroke-linecap:round;stroke-linejoin:round;stroke-miterlimit:4;stroke-dasharray:none;stroke-opacity:1;paint-order:normal"
         id="ellipse829"
         cx="23.62096"
         cy="24.499601"
         rx="21.006697"
         ry="21.050003" />
    </clipPath>
  </defs>
  <path
     style="opacity:1;fill:#216778;fill-opacity:1;stroke:none;stroke-width:0.60179442;stroke-miterlimit:4;stroke-dasharray:none;stroke-opacity:1"
     d="m 18.724521,4.0167733 -3.8688,3.8688003 A 4.8053061,4.8053061 0 0 0 12.181789,7.0675359 4.8053061,4.8053061 0 0 0 8.7698962,8.4963541 L 9.2205235,8.9485516 8.8217106,9.3473646 8.3334001,8.8590541 a 4.8053061,4.8053061 0 0 0 -1.3927053,3.3757789 4.8053061,4.8053061 0 0 0 0.8180378,2.677072 l -4.0477951,4.047796 1.3832845,1.384855 4.0619262,-4.061927 a 4.8053061,4.8053061 0 0 0 2.5891438,0.758372 4.8053061,4.8053061 0 0 0 3.378921,-1.389564 l -0.453769,-0.455338 0.398814,-0.398814 0.49145,0.491452 a 4.8053061,4.8053061 0 0 0 1.427248,-3.416604 4.8053061,4.8053061 0 0 0 -0.761513,-2.5875736 l 3.882932,-3.8829315 z m -8.478703,5.9570732 0.582519,0.5825175 -0.398814,0.398814 -0.5825176,-0.582519 z m 1.607814,1.6078125 0.582517,0.582519 -0.398812,0.398812 -0.582519,-0.582517 z m 1.607812,1.607814 0.582519,0.582517 -0.398814,0.398814 -0.582517,-0.582518 z"
     id="path837"
     inkscape:connector-curvature="0" />
</svg>
