<?xml version="1.0" encoding="UTF-8" standalone="no"?>
<!-- Created with Inkscape (http://www.inkscape.org/) -->

<svg
   xmlns:dc="http://purl.org/dc/elements/1.1/"
   xmlns:cc="http://creativecommons.org/ns#"
   xmlns:rdf="http://www.w3.org/1999/02/22-rdf-syntax-ns#"
   xmlns:svg="http://www.w3.org/2000/svg"
   xmlns="http://www.w3.org/2000/svg"
   xmlns:sodipodi="http://sodipodi.sourceforge.net/DTD/sodipodi-0.dtd"
   xmlns:inkscape="http://www.inkscape.org/namespaces/inkscape"
   width="48"
   height="48"
   viewBox="0 0 12.7 12.7"
   version="1.1"
   id="svg829"
   inkscape:version="0.92.3 (2405546, 2018-03-11)"
   sodipodi:docname="system.svg">
  <defs
     id="defs823" />
  <sodipodi:namedview
     id="base"
     pagecolor="#ffffff"
     bordercolor="#666666"
     borderopacity="1.0"
     inkscape:pageopacity="0.0"
     inkscape:pageshadow="2"
     inkscape:zoom="5.125"
     inkscape:cx="-16.205726"
     inkscape:cy="18.450338"
     inkscape:document-units="mm"
     inkscape:current-layer="layer1"
     showgrid="false"
     showguides="true"
     inkscape:guide-bbox="true"
     inkscape:window-width="1366"
     inkscape:window-height="681"
     inkscape:window-x="0"
     inkscape:window-y="29"
     inkscape:window-maximized="1"
     scale-x="1.9"
     units="px" />
  <metadata
     id="metadata826">
    <rdf:RDF>
      <cc:Work
         rdf:about="">
        <dc:format>image/svg+xml</dc:format>
        <dc:type
           rdf:resource="http://purl.org/dc/dcmitype/StillImage" />
        <dc:title></dc:title>
      </cc:Work>
    </rdf:RDF>
  </metadata>
  <g
     inkscape:label="Capa 1"
     inkscape:groupmode="layer"
     id="layer1"
     transform="translate(0,-284.3)">
    <path
       style="fill:#808080;fill-opacity:1;stroke-width:0.169011"
       d="m 2.7617809,286.55001 c -0.4510817,0 -0.8139855,0.36352 -0.8139855,0.81459 v 5.57032 c 0,0.45107 0.3629038,0.81399 0.8139855,0.81399 h 2.0434502 v 0.97426 H 2.8994358 v 0.75236 h 7.0970758 v -0.75236 h -1.95608 v -0.97426 h 1.9944224 c 0.451082,0 0.813985,-0.36292 0.813985,-0.81399 v -5.57032 c 0,-0.45107 -0.362903,-0.81459 -0.813985,-0.81459 z m 0.617875,0.81083 h 6.0825794 c 0.3484392,0 0.6291887,0.28014 0.6291887,0.62854 v 4.30249 c 0,0.34844 -0.2807495,0.62922 -0.6291887,0.62922 H 3.3796559 c -0.3484391,0 -0.629189,-0.28078 -0.629189,-0.62922 v -4.30249 c 0,-0.3484 0.2807499,-0.62854 0.629189,-0.62854 z"
       id="path818"
       inkscape:connector-curvature="0" />
  </g>
</svg>
