<?xml version="1.0" encoding="UTF-8" standalone="no"?>
<!-- Created with Inkscape (http://www.inkscape.org/) -->

<svg
   xmlns:dc="http://purl.org/dc/elements/1.1/"
   xmlns:cc="http://creativecommons.org/ns#"
   xmlns:rdf="http://www.w3.org/1999/02/22-rdf-syntax-ns#"
   xmlns:svg="http://www.w3.org/2000/svg"
   xmlns="http://www.w3.org/2000/svg"
   xmlns:xlink="http://www.w3.org/1999/xlink"
   xmlns:sodipodi="http://sodipodi.sourceforge.net/DTD/sodipodi-0.dtd"
   xmlns:inkscape="http://www.inkscape.org/namespaces/inkscape"
   id="svg3334"
   width="24"
   height="24"
   version="1.0"
   sodipodi:docname="dialog-info-symbolic.svg"
   inkscape:version="0.92.3 (2405546, 2018-03-11)">
  <metadata
     id="metadata40">
    <rdf:RDF>
      <cc:Work
         rdf:about="">
        <dc:format>image/svg+xml</dc:format>
        <dc:type
           rdf:resource="http://purl.org/dc/dcmitype/StillImage" />
        <dc:title></dc:title>
      </cc:Work>
    </rdf:RDF>
  </metadata>
  <sodipodi:namedview
     pagecolor="#ffffff"
     bordercolor="#666666"
     borderopacity="1"
     objecttolerance="10"
     gridtolerance="10"
     guidetolerance="10"
     inkscape:pageopacity="0"
     inkscape:pageshadow="2"
     inkscape:window-width="1366"
     inkscape:window-height="719"
     id="namedview38"
     showgrid="false"
     inkscape:zoom="22.166667"
     inkscape:cx="12"
     inkscape:cy="12"
     inkscape:window-x="0"
     inkscape:window-y="25"
     inkscape:window-maximized="1"
     inkscape:current-layer="svg3334"
     inkscape:snap-global="false"
     showguides="true"
     inkscape:guide-bbox="true" />
  <defs
     id="defs3336">
    <linearGradient
       id="linearGradient2877"
       x1="25.058001"
       x2="25.058001"
       y1="47.028"
       y2="39.999001"
       gradientUnits="userSpaceOnUse">
      <stop
         id="stop3704"
         style="stop-opacity:0"
         offset="0" />
      <stop
         id="stop3710"
         offset=".5" />
      <stop
         id="stop3706"
         style="stop-opacity:0"
         offset="1" />
    </linearGradient>
    <radialGradient
       id="radialGradient2875"
       cx="4.993"
       cy="43.5"
       r="2.5"
       gradientTransform="matrix(2.0038,0,0,1.4,-20.012,-104.4)"
       gradientUnits="userSpaceOnUse"
       xlink:href="#linearGradient3688" />
    <linearGradient
       id="linearGradient3688">
      <stop
         id="stop3690"
         offset="0" />
      <stop
         id="stop3692"
         style="stop-opacity:0"
         offset="1" />
    </linearGradient>
    <radialGradient
       id="radialGradient2873"
       cx="4.993"
       cy="43.5"
       r="2.5"
       gradientTransform="matrix(2.0038,0,0,1.4,27.988,-17.4)"
       gradientUnits="userSpaceOnUse"
       xlink:href="#linearGradient3688" />
    <linearGradient
       id="linearGradient2865"
       x1="24"
       x2="24"
       y1="44"
       y2="3.8989999"
       gradientTransform="translate(0,0.96744)"
       gradientUnits="userSpaceOnUse">
      <stop
         id="stop2492"
         style="stop-color:#791235"
         offset="0" />
      <stop
         id="stop2494"
         style="stop-color:#dd3b27"
         offset="1" />
    </linearGradient>
    <radialGradient
       id="radialGradient2863"
       cx="12.011"
       cy="10.424"
       r="20"
       gradientTransform="matrix(5.6342e-8,1.6801,-2.4235,1.0381e-8,44.478,-5.9267)"
       gradientUnits="userSpaceOnUse">
      <stop
         id="stop3244"
         style="stop-color:#f89b7e"
         offset="0" />
      <stop
         id="stop3246"
         style="stop-color:#e35d4f"
         offset=".26238" />
      <stop
         id="stop3248"
         style="stop-color:#c6262e"
         offset=".66094" />
      <stop
         id="stop3250"
         style="stop-color:#690b2c"
         offset="1" />
    </radialGradient>
    <linearGradient
       id="linearGradient2855"
       x1="24"
       x2="24"
       y1="5"
       y2="43"
       gradientTransform="translate(0,0.96744)"
       gradientUnits="userSpaceOnUse">
      <stop
         id="stop3310-1-4"
         style="stop-color:#fff"
         offset="0" />
      <stop
         id="stop3312-5-3"
         style="stop-color:#fff;stop-opacity:0"
         offset="1" />
    </linearGradient>
  </defs>
  <path
     style="fill:#808080;fill-opacity:1;stroke-width:0.26165536"
     d="M 12,0.15820312 A 11.84323,11.84323 0 0 0 0.15625,12.001953 11.84323,11.84323 0 0 0 12,23.841797 11.84323,11.84323 0 0 0 23.84375,12.001953 11.84323,11.84323 0 0 0 12,0.15820312 Z M 11.9668,1.9179688 A 10.181907,10.181907 0 0 1 22.148438,12.101562 10.181907,10.181907 0 0 1 11.966797,22.285156 10.181907,10.181907 0 0 1 1.783203,12.101562 10.181907,10.181907 0 0 1 11.966797,1.9179688 Z M 12,3.2207031 A 8.8164476,8.779091 0 0 0 3.183594,12 8.8164476,8.779091 0 0 0 12,20.779297 8.8164476,8.779091 0 0 0 20.816406,12 8.8164476,8.779091 0 0 0 12,3.2207031 Z m 1.017578,2.9824219 c 0.429331,-0.014101 0.805728,0.3311441 0.865234,0.75 0.19173,0.8043715 -0.662377,1.6090019 -1.447265,1.2871094 C 11.468114,7.7911638 11.99949,6.1490949 13.017578,6.203125 Z m -0.435547,3.6132812 c 0.491901,0.040414 0.739891,0.7219478 0.484375,1.2910158 -0.370208,1.650077 -0.949128,3.252511 -1.261718,4.916016 0.15103,0.656783 0.963799,-0.139682 1.335937,-0.308594 0.283428,-0.328964 0.352506,0.03167 0.455078,0.283203 -0.751726,0.526749 -1.4886,1.100604 -2.34375,1.453125 -0.804499,0.548731 -1.575653,-0.214836 -1.236328,-1.058594 0.32451,-1.541064 0.748977,-3.059427 1.097656,-4.595703 0.108925,-0.830234 -0.97969,0.01561 -1.304687,0.208984 -0.262158,0.329425 -0.384806,0.09019 -0.494141,-0.207031 0.871205,-0.636271 1.705286,-1.346663 2.703125,-1.78125 0.208224,-0.1569188 0.400488,-0.2146437 0.564453,-0.2011718 z"
     id="path838"
     inkscape:connector-curvature="0" />
</svg>
