<svg xmlns="http://www.w3.org/2000/svg" width="48" height="48" viewBox="0 0 12.7 12.7"><path fill="#a02c2c" d="M6.344.077A6.267 6.267 0 0 0 .076 6.344a6.267 6.267 0 0 0 6.268 6.267 6.267 6.267 0 0 0 6.267-6.267A6.267 6.267 0 0 0 6.344.077zm-.018.932a5.388 5.388 0 0 1 5.388 5.39 5.388 5.388 0 0 1-5.388 5.387A5.388 5.388 0 0 1 .937 6.398a5.388 5.388 0 0 1 5.39-5.389zm-.028 1.238v.001c-1.116.016-2.616.424-2.59 1.736.026 1.369 1.543.879 1.666 1.438.019-.023.047-.043.066-.066.105-.113.209-.205.314-.314.165-.186.337-.36.512-.546.585-.623.61-.661 2.008-1.72a3.783 3.783 0 0 0-1.744-.529c-.071-.002-.157 0-.232 0zm3.253.001c-.953.688-2.226 1.747-3.236 2.822-.092.098-.18.192-.267.29-.055.057-.113.104-.167.163-.035.04-.067.086-.1.127A24.076 24.076 0 0 0 3.85 8.13c-.165-.084-.371-.096-.592.05-.399.264-.315 1.21-1.136 1.21.078.318.918.314 1.486.172.536-.135.699-.605.597-.997-.014-.055-.049-.11-.081-.165a25.718 25.718 0 0 0 2.307-2.136c.127-.13.28-.3.45-.49C7.517 5.07 8.43 3.958 9.55 2.25zm-4.27.81a.793.793 0 0 1 .01 0c.438 0 .792.355.792.793a.793.793 0 1 1-.802-.793zm3.857.35c-.75 1.183-1.253 1.882-1.783 2.428-.339.347-.615.694-.858.942A45.523 45.523 0 0 1 4.83 8.415c.033.778.428 1.453 1.716 1.703 2.063.4 4.248-.965 4.028-3.736-.094-1.19-.743-2.266-1.436-2.974zm.181 2.014a.53.53 0 0 1 0 1.059.53.53 0 0 1 0-1.059zM8.967 7.01a.53.53 0 0 1 .022 0 .53.53 0 0 1 0 1.058.53.53 0 0 1-.022-1.058zm-2.62 1.057a.53.53 0 0 1 0 1.059.53.53 0 0 1 0-1.059zm1.585 0a.53.53 0 0 1 0 1.059.53.53 0 0 1 0-1.059z"/></svg>