<svg xmlns="http://www.w3.org/2000/svg" width="48" height="48" viewBox="0 0 12.7 12.7"><g fill="#a02c2c"><path d="M6.345.073a6.29 6.29 0 0 0-6.29 6.29 6.29 6.29 0 0 0 6.29 6.289 6.29 6.29 0 0 0 6.289-6.29 6.29 6.29 0 0 0-6.29-6.29zm-.019.936a5.407 5.407 0 0 1 5.408 5.408 5.407 5.407 0 0 1-5.408 5.406A5.407 5.407 0 0 1 .92 6.417a5.407 5.407 0 0 1 5.407-5.408z"/><g transform="rotate(45 708.185 296.73) scale(2)"><path d="M1.944 292.838a.422.422 0 0 0-.058.001l.773.787.923.183c1.658.33 1.88-.056 1.88-.056s-.08-.237-.935-.407l-2.524-.5a.398.398 0 0 0-.06-.007zm2.433.641l.626.124c-.034.128-.477.044-.626-.124z" opacity=".8"/><path d="M3.413 291.348c-.145-.015-.47.198-.626.354l-.97.97a.45.45 0 0 0-.054.064l.632.631a.46.46 0 0 0 .063-.053l.44-.44a3.05 3.05 0 0 0 .453-.552l-.091-.092-.23.23a.133.133 0 0 1-.189 0l-.033-.032a.133.133 0 0 1 0-.188l.353-.353a.113.113 0 0 1 .16 0l.162.163c.085-.25.075-.586-.02-.681a.08.08 0 0 0-.05-.021zm-.294.234c.088.1-.214.416-.437.447zm-.517 3.783l-.238-.07c-.691-.206-.828-.024-.828-.024s.123.369.926.608l.82.243a.352.352 0 0 0 .078.015"/><rect width=".937" height="4.4" x="-206.828" y="207.95" rx=".448" ry=".448" transform="rotate(-45)"/></g></g></svg>