<svg xmlns="http://www.w3.org/2000/svg" width="48" height="48" viewBox="0 0 12.7 12.7"><path d="M6.35.06A6.29 6.29 0 0 0 .06 6.35a6.29 6.29 0 0 0 6.29 6.29 6.29 6.29 0 0 0 6.29-6.29A6.29 6.29 0 0 0 6.35.06zM6.33 1a5.4 5.4 0 0 1 5.4 5.4 5.4 5.4 0 0 1-2.22 4.37c.15-.5-.49-3.1-.39-3.4.1-.34 2.4-2.28 2.29-2.61-.1-.33-3.08-.54-3.35-.74C7.78 3.82 6.67 1 6.33 1 6 1 4.9 3.8 4.61 4.02c-.28.2-3.25.4-3.35.74-.1.33 2.17 2.27 2.28 2.6.1.32-.53 2.92-.38 3.41A5.4 5.4 0 0 1 .93 6.4 5.4 5.4 0 0 1 6.33 1zm0 8.43c.32 0 2.54 1.41 3.05 1.43a5.4 5.4 0 0 1-3.05.95 5.4 5.4 0 0 1-3.06-.95c.5 0 2.74-1.43 3.06-1.43z" fill="#a02c2c"/></svg>
