<svg xmlns="http://www.w3.org/2000/svg" width="48" height="48" viewBox="0 0 12.7 12.7"><path d="M5.7 4.43c-1.82 0-3.36.47-3.8 1.1.45.62 1.98 1.08 3.8 1.08 1.83 0 3.37-.46 3.82-1.08-.45-.63-1.99-1.1-3.81-1.1z" opacity=".75" fill="#f60"/><path d="M6.34.08A6.27 6.27 0 0 0 .08 6.34a6.27 6.27 0 0 0 6.26 6.27 6.27 6.27 0 0 0 6.27-6.27A6.27 6.27 0 0 0 6.34.08zM6.33 1a5.39 5.39 0 0 1 5.37 5.4 5.39 5.39 0 0 1-5.38 5.39 5.39 5.39 0 0 1-5.4-5.4 5.39 5.39 0 0 1 5.4-5.38zM5.7 3.6c-2.08 0-3.79.6-3.91 1.36h-.01v.94c.03 2.43 1.77 4.39 3.92 4.39a3.8 3.8 0 0 0 3.14-1.8c.8-.08 2.31-.34 2.2-2.2a.7.7 0 0 0-.08-.29.73.73 0 0 0-.2-.22c-.29-.2-.73-.24-1.15-.24v-.57c-.13-.76-1.83-1.36-3.91-1.36zm0 .97c1.62 0 2.98.4 3.38.94-.4.54-1.77.94-3.38.94-1.62 0-2.98-.4-3.38-.94.4-.54 1.76-.94 3.38-.94zM9.6 6.2h.8c.03 1.3-.7 1.46-1.13 1.45.18-.45.29-.93.33-1.45z" fill="#a02c2c"/></svg>