<?xml version="1.0" encoding="UTF-8" standalone="no"?>
<!-- Created with Inkscape (http://www.inkscape.org/) -->

<svg
   xmlns:dc="http://purl.org/dc/elements/1.1/"
   xmlns:cc="http://creativecommons.org/ns#"
   xmlns:rdf="http://www.w3.org/1999/02/22-rdf-syntax-ns#"
   xmlns:svg="http://www.w3.org/2000/svg"
   xmlns="http://www.w3.org/2000/svg"
   xmlns:sodipodi="http://sodipodi.sourceforge.net/DTD/sodipodi-0.dtd"
   xmlns:inkscape="http://www.inkscape.org/namespaces/inkscape"
   width="48"
   height="48"
   viewBox="0 0 12.7 12.7"
   version="1.1"
   id="svg829"
   inkscape:version="0.92.3 (2405546, 2018-03-11)"
   sodipodi:docname="preferences-other.svg">
  <defs
     id="defs823" />
  <sodipodi:namedview
     id="base"
     pagecolor="#ffffff"
     bordercolor="#666666"
     borderopacity="1.0"
     inkscape:pageopacity="0.0"
     inkscape:pageshadow="2"
     inkscape:zoom="7.2478445"
     inkscape:cx="6.5853659"
     inkscape:cy="23.609756"
     inkscape:document-units="mm"
     inkscape:current-layer="layer1"
     showgrid="false"
     showguides="true"
     inkscape:guide-bbox="true"
     inkscape:window-width="1366"
     inkscape:window-height="719"
     inkscape:window-x="0"
     inkscape:window-y="25"
     inkscape:window-maximized="1"
     scale-x="1.9"
     units="px"
     inkscape:snap-global="false" />
  <metadata
     id="metadata826">
    <rdf:RDF>
      <cc:Work
         rdf:about="">
        <dc:format>image/svg+xml</dc:format>
        <dc:type
           rdf:resource="http://purl.org/dc/dcmitype/StillImage" />
        <dc:title></dc:title>
      </cc:Work>
    </rdf:RDF>
  </metadata>
  <g
     inkscape:label="Capa 1"
     inkscape:groupmode="layer"
     id="layer1"
     transform="translate(0,-284.3)">
    <path
       style="fill:#1a1a1a;fill-opacity:1;stroke-width:0.52516764"
       d="M 23.978516 0.27539062 A 23.770509 23.770509 0 0 0 0.20703125 24.046875 A 23.770509 23.770509 0 0 0 23.978516 47.816406 A 23.770509 23.770509 0 0 0 47.748047 24.046875 A 23.770509 23.770509 0 0 0 23.978516 0.27539062 z M 23.910156 3.8144531 A 20.436071 20.436071 0 0 1 44.345703 24.25 A 20.436071 20.436071 0 0 1 23.910156 44.685547 A 20.436071 20.436071 0 0 1 3.4726562 24.25 A 20.436071 20.436071 0 0 1 23.910156 3.8144531 z M 23.755859 7.6367188 L 20.34375 17.115234 L 18.425781 9.8769531 C 18.262029 9.2555988 16.807272 9.1127351 15.177734 9.5566406 C 13.548197 10.000546 12.357733 10.865012 12.521484 11.486328 C 12.851773 12.739535 13.605185 15.600053 14.201172 17.861328 L 13.962891 17.861328 C 12.826805 17.861328 12.623887 17.709436 12.306641 18.433594 L 10.328125 23.029297 L 10.328125 37.773438 C 10.328125 38.665482 10.256424 38.527344 11.392578 38.527344 L 36.310547 38.527344 C 37.446711 38.527344 37.378906 38.665671 37.378906 37.773438 L 37.378906 23.029297 L 37.015625 22.185547 L 37.015625 20.634766 L 36.347656 20.634766 L 35.400391 18.433594 C 35.363924 18.351059 35.322926 18.284079 35.28125 18.222656 L 35.777344 17.726562 C 35.757388 17.741681 35.757388 17.667154 35.777344 17.689453 L 33.582031 15.494141 C 33.605956 15.509259 33.515119 15.509259 33.539062 15.494141 L 31.875 17.154297 L 31.535156 16.990234 C 31.335597 16.894612 31.151967 16.809717 30.986328 16.75 L 30.634766 16.621094 L 30.634766 14.253906 L 27.439453 14.255859 L 27.439453 16.625 L 27.087891 16.75 C 26.924252 16.810094 26.738626 16.898519 26.539062 16.994141 L 26.203125 17.158203 L 25.361328 16.318359 L 27.978516 9.1894531 L 27.980469 9.1855469 L 23.755859 7.6367188 z M 23.261719 10.289062 L 24.951172 10.908203 L 24.681641 11.642578 L 22.992188 11.023438 L 23.261719 10.289062 z M 22.478516 12.425781 L 24.167969 13.046875 L 23.896484 13.78125 L 22.208984 13.162109 L 22.478516 12.425781 z M 21.693359 14.564453 L 23.382812 15.185547 L 23.113281 15.919922 L 21.423828 15.300781 L 21.693359 14.564453 z M 20.908203 16.703125 L 22.597656 17.322266 L 22.556641 17.433594 L 22.298828 17.691406 C 22.320787 17.668729 22.320787 17.752768 22.298828 17.730469 L 22.408203 17.839844 L 22.400391 17.861328 L 21.791016 17.861328 L 20.638672 17.4375 L 20.908203 16.703125 z M 14.199219 18.609375 L 14.398438 18.609375 C 14.856845 20.348669 15.17574 21.559455 15.65625 23.382812 L 12.042969 23.382812 L 13.363281 19.230469 C 13.463877 18.946248 13.575297 18.802936 13.664062 18.734375 C 13.752836 18.666721 13.862797 18.609375 14.199219 18.609375 z M 20.875 19.117188 L 21.8125 19.460938 L 21.542969 20.195312 L 21.119141 20.039062 L 20.875 19.117188 z M 29.037109 19.576172 C 30.499889 19.576172 31.695312 20.773588 31.695312 22.234375 C 31.695312 22.647646 31.591974 23.03315 31.421875 23.382812 L 26.650391 23.382812 C 26.480029 23.033212 26.375 22.64708 26.375 22.234375 C 26.375 20.771584 27.574331 19.576172 29.037109 19.576172 z "
       transform="matrix(0.26458333,0,0,0.26458333,0,284.3)"
       id="path1374" />
  </g>
</svg>
