<?xml version="1.0" encoding="UTF-8" standalone="no"?>
<!-- Created with Inkscape (http://www.inkscape.org/) -->

<svg
   xmlns:dc="http://purl.org/dc/elements/1.1/"
   xmlns:cc="http://creativecommons.org/ns#"
   xmlns:rdf="http://www.w3.org/1999/02/22-rdf-syntax-ns#"
   xmlns:svg="http://www.w3.org/2000/svg"
   xmlns="http://www.w3.org/2000/svg"
   xmlns:sodipodi="http://sodipodi.sourceforge.net/DTD/sodipodi-0.dtd"
   xmlns:inkscape="http://www.inkscape.org/namespaces/inkscape"
   width="48"
   height="48"
   viewBox="0 0 12.7 12.7"
   version="1.1"
   id="svg829"
   inkscape:version="0.92.3 (2405546, 2018-03-11)"
   sodipodi:docname="applications-development.svg">
  <defs
     id="defs823" />
  <sodipodi:namedview
     id="base"
     pagecolor="#ffffff"
     bordercolor="#666666"
     borderopacity="1.0"
     inkscape:pageopacity="0.0"
     inkscape:pageshadow="2"
     inkscape:zoom="2.7916667"
     inkscape:cx="24"
     inkscape:cy="24"
     inkscape:document-units="mm"
     inkscape:current-layer="layer1"
     showgrid="false"
     showguides="true"
     inkscape:guide-bbox="true"
     inkscape:window-width="1366"
     inkscape:window-height="719"
     inkscape:window-x="0"
     inkscape:window-y="25"
     inkscape:window-maximized="1"
     scale-x="1.9"
     units="px" />
  <metadata
     id="metadata826">
    <rdf:RDF>
      <cc:Work
         rdf:about="">
        <dc:format>image/svg+xml</dc:format>
        <dc:type
           rdf:resource="http://purl.org/dc/dcmitype/StillImage" />
        <dc:title></dc:title>
      </cc:Work>
    </rdf:RDF>
  </metadata>
  <g
     inkscape:label="Capa 1"
     inkscape:groupmode="layer"
     id="layer1"
     transform="translate(0,-284.3)">
    <path
       style="fill:#1a1a1a;fill-opacity:1;stroke-width:0.52516764"
       d="M 23.978516 0.27539062 A 23.770509 23.770509 0 0 0 0.20703125 24.046875 A 23.770509 23.770509 0 0 0 23.978516 47.816406 A 23.770509 23.770509 0 0 0 47.748047 24.046875 A 23.770509 23.770509 0 0 0 23.978516 0.27539062 z M 23.910156 3.8144531 A 20.436071 20.436071 0 0 1 44.345703 24.25 A 20.436071 20.436071 0 0 1 23.910156 44.685547 A 20.436071 20.436071 0 0 1 3.4726562 24.25 A 20.436071 20.436071 0 0 1 23.910156 3.8144531 z M 32.703125 8.6347656 L 24.251953 24.115234 L 24.923828 25.146484 L 31.101562 25.158203 L 31.101562 27.875 L 30.841797 27.875 C 30.327515 27.875 29.914062 28.288454 29.914062 28.802734 L 29.914062 38.148438 C 29.914062 38.662718 30.327515 39.076172 30.841797 39.076172 L 34.125 39.076172 C 34.639283 39.076172 35.054688 38.662718 35.054688 38.148438 L 35.054688 28.802734 C 35.054688 28.288454 34.639283 27.875 34.125 27.875 L 33.734375 27.875 L 33.734375 25.162109 L 39.84375 25.171875 L 40.607422 24.066406 L 32.703125 8.6347656 z M 16.144531 10.40625 C 13.643594 10.526439 10.489406 12.53557 7.4882812 16.724609 C 7.4882812 16.724609 16.419922 12.157242 16.419922 19.470703 L 16.419922 26.550781 L 15.525391 26.550781 C 15.525391 26.550781 14.634766 26.550181 14.634766 27.443359 L 14.634766 38.162109 C 14.634766 39.055325 15.525391 39.054688 15.525391 39.054688 L 20.886719 39.054688 C 20.886719 39.054688 21.779297 39.055325 21.779297 38.162109 L 21.779297 27.443359 C 21.779297 26.550181 20.886719 26.550781 20.886719 26.550781 L 19.992188 26.550781 L 19.992188 19.072266 C 20.010027 18.238048 20.509805 16 22.644531 16 L 24.458984 17.619141 L 27.138672 17.619141 L 27.138672 10.472656 L 24.458984 10.472656 L 22.644531 11.699219 C 22.644531 11.699219 18.645467 10.286552 16.144531 10.40625 z "
       transform="matrix(0.26458333,0,0,0.26458333,0,284.3)"
       id="path1374" />
  </g>
</svg>
