<svg xmlns="http://www.w3.org/2000/svg" width="48" height="48" viewBox="0 0 12.7 12.7">
  <path fill="#1a1a1a" d="M6.34431561.07286377a6.28928043 6.28928043 0 0 0-6.2895386 6.2895385 6.28928043 6.28928043 0 0 0 6.2895386 6.28902166 6.28928043 6.28928043 0 0 0 6.28902167-6.28902167A6.28928043 6.28928043 0 0 0 6.3443156.07286376zm-.01808691.93637693a5.40704372 5.40704372 0 0 1 5.40690507 5.40690505 5.40704372 5.40704372 0 0 1-5.40690507 5.40690508A5.40704372 5.40704372 0 0 1 .91880694 6.41614575 5.40704372 5.40704372 0 0 1 6.3262287 1.0092407zM8.6527017 2.28461504L6.41666248 6.38048892l.17776693.27285155 1.63452543.00310066v.7188192h-.06872949c-.13607044 0-.24546321.10939303-.24546321.24546294v2.47271749c0 .13606992.10939277.24546295.24546321.24546295h.86868079c.1360707 0 .24597994-.10939303.24597994-.24546295V7.62072327c0-.13606991-.10990924-.24546295-.24597994-.24546295h-.10335287V6.6574746l1.61643878.00258392.20205489-.29248867-2.09134523-4.0829548zm-4.38112794.46870524c-.66170624.0318-1.4962518.56338257-2.2902994 1.67173246 0 0 2.36316327-1.20844917 2.36316327.7265707v1.87327061h-.23667799s-.23564453-.00015875-.23564453.23616126v2.83600257c0 .23633006.23564453.23616152.23564453.23616152h1.41851802s.23616126.00016854.23616126-.23616152V7.2610553c0-.23632-.23616126-.23616126-.23616126-.23616126h-.236678v-1.9786904c.0047199-.22072018.13695283-.81287037.70176575-.81287037l.48007402.42839772h.70900077V2.7708902h-.70900077l-.48007402.32452812s-1.05808567-.37376814-1.71979165-.34209804z"/>
</svg>
