<svg xmlns="http://www.w3.org/2000/svg" width="48" height="48" viewBox="0 0 12.7 12.7">
  <path fill="#1a1a1a" d="M6.34431561.07286377a6.28928043 6.28928043 0 0 0-6.2895386 6.2895385 6.28928043 6.28928043 0 0 0 6.2895386 6.28902166 6.28928043 6.28928043 0 0 0 6.28902167-6.28902167A6.28928043 6.28928043 0 0 0 6.3443156.07286376zm-.01808691.93637693a5.40704372 5.40704372 0 0 1 5.40690507 5.40690505 5.40704372 5.40704372 0 0 1-5.40690507 5.40690508A5.40704372 5.40704372 0 0 1 .91880694 6.41614575 5.40704372 5.40704372 0 0 1 6.3262287 1.0092407zM5.09736322 2.31097002l-.39170742.94671223a2.40687976 2.40687976 0 0 0-.48575833.05426022l-.58032649-.83715817c-.20508648.07100002-.39110946.17253305-.5777423.2806029l.24391275.98340253a2.42848976 2.42848976 0 0 0-.35656758.32607832l-.9585977-.3327961a3.31834406 3.31834406 0 0 0-.31367595.56378978l.77152912.64698906a2.31755847 2.31755847 0 0 0-.06201172.23254387c-.01651598.0812001-.02547967.15763822-.03358967.23822845l-.96324869.29403886c.00307001.21869003.02408267.43234107.06872967.64182122l1.01234128.06821276c.052237.15282015.12037832.30029308.20102126.43873287l-.6087483.81080344c.1296013.17239985.26166791.33821132.4227132.4836914l.8609295-.54466965c.13087455.09380008.27562095.17358862.42633052.23977864l-.00930195 1.02474367a3.41823062 3.41823062 0 0 0 .61701679.1250569l.39222388-.9461955c.16417608-.00199998.32865721-.01977707.48524186-.05477695l.58032623.83819179c.20459276-.07100014.3915746-.17239324.57774257-.28060306L6.172233 7.56801351c.12829698-.09590008.24933221-.20481475.35708404-.32504485l.9580811.33227935a3.31834406 3.31834406 0 0 0 .3100586-.55552154l.1829345.38550612a1.41656698 1.41656698 0 0 0-.16639804.2273763l-.58652754-.07854818a1.93562917 1.93562917 0 0 0-.11368801.3586345l.51624758.28008633a1.35185918 1.35185918 0 0 0-.00826823.14004316c0 .04849998.00350811.09308306.00826823.14004316l-.51624758.28008607c.02716582.12464996.063822.24458135.11368801.35915123l.58652754-.0790649c.04762103.08120009.10421117.1576263.16639804.22737629l-.25373118.53433424c.09411996.0834001.18869051.16294629.29765625.2273763l.42891444-.41134427c.08571389.03830003.17746001.06734995.2713011.08784987l.11368829.58652753a1.99389418 1.99389418 0 0 0 .36741946 0l.11420475-.58704426c.09355904-.0203999.1858645-.0494501.27130136-.08784987l.42891445.411861c.1086858-.06439985.20381727-.14441302.29765625-.22789303l-.25373145-.53433424c.06219005-.0698.11826134-.1461463.16588132-.2273763l.58652753.0790649a1.93562917 1.93562917 0 0 0 .11420501-.35915123l-.51676432-.27956933c.00480007-.04700005.00878496-.09157334.00878496-.14004316 0-.04849998-.00398489-.09307327-.00878496-.14004316l.51676432-.28008633a1.93506897 1.93506897 0 0 0-.11420501-.3586345l-.58652753.07854818a1.41656698 1.41656698 0 0 0-.16588132-.2273763l.25373145-.53433424c-.0938501-.0834001-.18897044-.16293623-.29765625-.2273763l-.42943118.41134427a1.40480178 1.40480178 0 0 0-.27130136-.08733314l-.11368802-.58704426a1.99389418 1.99389418 0 0 0-.1834515-.00775124c-.0616278 0-.12346199.0027514-.18396796.00775124l-.11368829.58652753a1.40396149 1.40396149 0 0 0-.2713011.08733313l-.42891444-.41082753c-.10896547.06450013-.20353602.1438963-.29765625.2273763l.06149499.12919101-.75861015-.6356199c.024003-.07720013.04597955-.15115408.06252871-.23254415.01664176-.0817999.0250108-.15764827.03307292-.23822818l.96376541-.29403913a3.3173839 3.3173839 0 0 0-.06924648-.64182121l-1.0118246-.06821276a2.42848976 2.42848976 0 0 0-.20153815-.43924987l.60874857-.81028645c-.12920822-.17195985-.26161788-.33831132-.42219642-.48369113l-.86196301.54415266a2.40832068 2.40832068 0 0 0-.4258138-.23977865l.00878496-1.02422683a3.41823062 3.41823062 0 0 0-.304891-.07648112h-.00051674c-.10337297-.02103551-.20867899-.0331185-.31109205-.04909262zM4.68033438 4.2147299a1.440675 1.440675 0 0 1 .34571543.02738834 1.4406889 1.4406889 0 1 1-.5741252 2.82360023 1.440675 1.440675 0 0 1 .22840977-2.85098857zM9.0221881 7.49308246a.84036002.84036002 0 1 1 0 1.68051768.84036002.84036002 0 0 1 0-1.68051768z"/>
</svg>
