<svg xmlns="http://www.w3.org/2000/svg" width="48" height="48" viewBox="0 0 12.7 12.7">
  <path fill="#1a1a1a" d="M5.8945084.07284v.014C2.7735066.29184.27739487 2.7864.07232677 5.9074h-.013v.8336h.013c.205068 3.12102 2.70117793 5.61548 5.82218163 5.82054v.014h.8336006v-.014c3.1210011-.20502 5.613859-2.69952 5.818925-5.82054h.0162v-.8336h-.0162C12.34197 2.7864 9.8491101.2919 6.728109.08684v-.014h-.4168002zm0 .88732v2.44706H3.8512088c.447644-1.29792 1.186358-2.21866 2.0432996-2.44706zm.8336006 0c.8561074.2284 1.5940278 1.14914 2.0416716 2.44706H6.728109zm-2.7547904.4754c-.40263.53516-.738348 1.20644-.98176 1.97166H1.7427848c.5435079-.84776 1.3169078-1.534 2.2305338-1.97166zm4.6759801 0c.9127934.43766 1.6853973 1.1239 2.2289053 1.97166H9.6310601c-.244246-.76522-.5774654-1.4365-.9817614-1.97166zM1.3080748 4.24084h1.465314c-.1117.52682-.18264 1.0862-.2051442 1.6672H.90755887c.04418-.58686.18377993-1.1479.40051593-1.6672zm2.3086838 0h2.2777498v1.6672H3.4018466c.02418-.58686.09738-1.1479.214912-1.6672zm3.1113504 0h2.2744938c.11838.5193.1923199 1.08034.2181699 1.6672H6.728109zm3.1211191 0h1.4653139c.216736.5193.35471 1.08034.39889 1.6672h-1.65906c-.02248-.581-.09344-1.14038-.2051439-1.6672zM.90755677 6.74164H2.5682445c.02248.581.09344 1.14036.2051461 1.66718H1.3080748C1.0913368 7.8895.95173677 7.32846.90755677 6.74164zm2.49428983 0h2.4926618v1.66718H3.6167586c-.11754-.51932-.19074-1.08036-.214912-1.66718zm3.3262624 0h2.4926617c-.024162.58682-.0998 1.14786-.2181702 1.66718H6.728109zm3.326263 0h1.657432c-.04334.58682-.18052 1.14786-.397262 1.66718H9.8492281c.1117-.52682.1826399-1.08618.2051439-1.66718zm-8.3115872 2.5008h1.2487738c.243412.76524.578298 1.4365.98176 1.97166-.913626-.43764-1.6870259-1.12306-2.2305338-1.97166zm2.108424 0h2.0432996v2.44708c-.8569416-.22942-1.5956556-1.14918-2.0432996-2.44708zm2.8769002 0h2.0416716c-.4476438 1.2979-1.1855642 2.21782-2.0416716 2.44708zm2.902949 0h1.247146c-.543508.8486-1.3161119 1.53402-2.2289053 1.97166.4026282-.53602.7375134-1.20642.9817593-1.97166z" color="#000" font-family="Andale Mono" font-weight="400" overflow="visible" style="line-height:normal;text-indent:0;text-align:start;text-decoration-line:none;text-transform:none;marker:none"/>
</svg>
