<svg xmlns="http://www.w3.org/2000/svg" width="48" height="48" viewBox="0 0 12.7 12.7">
  <path fill="#1a1a1a" d="M6.34431561.07286377a6.28928043 6.28928043 0 0 0-6.2895386 6.2895385 6.28928043 6.28928043 0 0 0 6.2895386 6.28902166 6.28928043 6.28928043 0 0 0 6.28902167-6.28902167A6.28928043 6.28928043 0 0 0 6.3443156.07286376zm-.01808691.93637693a5.40704372 5.40704372 0 0 1 5.40690507 5.40690505 5.40704372 5.40704372 0 0 1-5.40690507 5.40690508A5.40704372 5.40704372 0 0 1 .91880694 6.41614575 5.40704372 5.40704372 0 0 1 6.3262287 1.0092407zM3.03857418 3.41426187c-.0876329 0-.14686677.0418219-.16691477.11627194l-.97100024 4.93819967c-.12887301.48457009.89411602 1.06339401 1.56941312.67334394l1.57509763-2.29081618h2.57762054L9.1978881 9.14207742c.67472374.38949021 1.69839955-.18875375 1.5683796-.67334394l-.96996645-4.93768294c-.02013003-.07509986-.07991-.11678867-.16639831-.11678867H3.03857418zm1.13739823.57309146a.14319282.14319282 0 0 1 .01033542 0h.28628736a.14319282.14319282 0 0 1 .14314355.14314382v.42943118h.42943118a.14319282.14319282 0 0 1 .14366055.14314381v.28628737a.14319282.14319282 0 0 1-.14366055.14314381h-.42943118v.42994791a.14319282.14319282 0 0 1-.14314355.14262682h-.28628736a.14319282.14319282 0 0 1-.14314382-.14262682v-.4299479H3.6132161a.14319282.14319282 0 0 1-.14314381-.14314382v-.28628737a.14319282.14319282 0 0 1 .14314381-.14314381h.42994791v-.42943118a.14319282.14319282 0 0 1 .1328084-.14314382zm4.14186603 0a.28638566.28638566 0 0 1 .00051673 0 .28638566.28638566 0 0 1 .02067057 0 .28638566.28638566 0 0 1 .28628737.28628763.28638566.28638566 0 0 1-.28628737.28628737.28638566.28638566 0 0 1-.2868041-.28628737.28638566.28638566 0 0 1 .2656168-.28628763zm-.57257473.572575a.28638566.28638566 0 0 1 .0206703 0 .28638566.28638566 0 0 1 .28628763.28628736.28638566.28638566 0 0 1-.28628763.28628763.28638566.28638566 0 0 1-.28628736-.28628763.28638566.28638566 0 0 1 .26561706-.28628736zm1.14514946 0a.28638566.28638566 0 0 1 .000517 0 .28638566.28638566 0 0 1 .02067057 0 .28638566.28638566 0 0 1 .28628736.28628736.28638566.28638566 0 0 1-.28628736.28628763.28638566.28638566 0 0 1-.28628763-.28628763.28638566.28638566 0 0 1 .26510006-.28628736zm-.572058.572575a.28638566.28638566 0 0 1 .02067057 0 .28638566.28638566 0 0 1 .28628737.28680409.28638566.28638566 0 0 1-.28628737.28628736.28638566.28638566 0 0 1-.2868041-.28628736.28638566.28638566 0 0 1 .26613353-.2868041z"/>
</svg>
