<svg xmlns="http://www.w3.org/2000/svg" width="48" height="48" viewBox="0 0 12.7 12.7">
  <path fill="#1a1a1a" d="M6.3437401.07700642A6.26704246 6.26704246 0 0 0 .07642247 6.34432385a6.26704246 6.26704246 0 0 0 6.26731763 6.26628417 6.26704246 6.26704246 0 0 0 6.26731763-6.26628417A6.26704246 6.26704246 0 0 0 6.3437401.07700642zm-.01756833.93224281a5.38792572 5.38792572 0 0 1 5.38778284 5.38881837 5.38792572 5.38792572 0 0 1-5.38778443 5.38778443A5.38792572 5.38792572 0 0 1 .93735181 6.3980676a5.38792572 5.38792572 0 0 1 5.38881837-5.38881837zm-1.6123063 1.43247071a.52916665.52916665 0 0 0-.25734862.99115392l.25941564.1436605v1.42110188c-.06879198.108-.1314986.20419795-.23151041.37723788-.14446197.24871998-.32107198.56195753-.5126302.90433736a272.31709544 272.31709544 0 0 0-1.1658203 2.11356625c-.3032126.55404014-.29062838 1.29839824.15916344 1.85931808.35665817.47623994.9197661.60358072 1.38596188.60358072h3.8902015c.466725 0 1.02983294-.12731432 1.3859621-.60461418.44979166-.56091984.46030938-1.30424448.15709636-1.85828462-.61542083-1.25360005-1.3094229-2.23329973-1.88515623-3.38583975V3.57860144l.25941549-.14572758a.52916665.52916665 0 0 0-.25734857-.99115392zm1.06040029 1.05833332h1.06660155v1.64434402a.52916665.52916665 0 0 0 .05374375.23254377c.6360578 1.30016037 1.36183527 2.29827505 1.9502686 3.50159527a.52916665.52916665 0 0 0 .01033462.02066925c.127.23284021.13408607.46851834-.05271029.6965987a.52916665.52916665 0 0 0-.0186055.02377016c-.07672546.10540206-.25735438.17776878-.54363354.17776878H4.3510969c-.28575 0-.46690687-.07236672-.54363609-.17776719a.52916665.52916665 0 0 0-.01860349-.0237707c-.18732399-.22808035-.18074348-.46326477-.05374349-.6955647A271.16985683 271.16985683 0 0 1 4.8957665 6.7949426a67.89208248 67.89208248 0 0 1 .50332856-.88986835c.13916978-.2397199.25959753-.42897107.27388503-.4485513a.52916665.52916665 0 0 0 .10128567-.31212567z"/>
  <path fill="teal" d="M6.76748687 1.27796a.47169024.48983212 0 0 0-.4723224.4899.47169024.48983212 0 0 0 .4723224.4899.47169024.48983212 0 0 0 .4712892-.4899.47169024.48983212 0 0 0-.4712892-.4899zm-1.650545.25426a.23584512.25398704 0 0 0-.2366782.25424.23584512.25398704 0 0 0 .2366782.25426.23584512.25398704 0 0 0 .2356444-.25426.23584512.25398704 0 0 0-.2356444-.25424zm.997355 4.46278a.3991225.3991225 0 0 0-.398942.39894.3991225.3991225 0 0 0 .398942.39996.3991225.3991225 0 0 0 .398942-.39996.3991225.3991225 0 0 0-.398942-.39894zm1.1234456 1.1565l-1.8841226.00104-1.1751222 2.11564h4.2333334z" opacity=".45" overflow="visible"/>
</svg>
