<svg xmlns="http://www.w3.org/2000/svg" width="48" height="48" viewBox="0 0 12.7 12.7">
  <path fill="#1a1a1a" d="M6.3437318.07701A6.2670426 6.2670426 0 0 0 .07641437 6.34433a6.2670426 6.2670426 0 0 0 6.26731743 6.26628 6.2670426 6.2670426 0 0 0 6.2673172-6.26628A6.2670426 6.2670426 0 0 0 6.3437318.07701zm-.01756.93224a5.3879258 5.3879258 0 0 1 5.3877832 5.38882 5.3879258 5.3879258 0 0 1-5.3877848 5.38778A5.3879258 5.3879258 0 0 1 .93735167 6.39807 5.3879258 5.3879258 0 0 1 6.3261718 1.00925zm-.027902 1.23818v.001c-1.1165418.016-2.6164566.42402-2.5910566 1.7353.026458 1.36894 1.5437858.87932 1.6670818 1.43866.01852-.0238.046566-.0434.066146-.0662.1042461-.1132.2083843-.20518.3131593-.3142.1651-.1862.337476-.35944.5126302-.5457.5852578-.62336.6100874-.66144 2.0081456-1.71978-.5476874-.32808-1.1947922-.51066-1.7445959-.52918-.070908-.002-.156898-.00054-.2315104 0zm3.2525144.001c-.9525.6874-2.2257988 1.7468-3.235978 2.82154-.091546.0978-.179866.192-.2666508.28938-.055034.0572-.112928.1042-.167432.1634-.034926.0408-.066386.0864-.100252.1272-.6890511.76152-1.3637665 1.65678-1.9285646 2.4815-.165624-.0844-.3722304-.0962-.5932454.0496-.3984625.26352-.3145814 1.20922-1.135848 1.20922.077788.3186.9178892.3144 1.4862142.1726.5360461-.1344.6989795-.6047.5973796-.99736-.01418-.0544-.049058-.1098-.081648-.1644 1.0499526-.8696 1.7978265-1.5967 2.3068363-2.1363.127-.1302.2802514-.30048.4495848-.48886.6371166-.70644 1.5488284-1.81876 2.6696044-3.52744zm-4.2695107.80926a.79322084.79322084 0 0 1 .01034 0c.4376213 0 .7916835.3556.7916835.79374a.79322084.79322084 0 1 1-.8020187-.79374zm3.8571291.35036C8.3880442 4.59073 7.884757 5.28971 7.354532 5.83581c-.3381376.34766-.6149408.6944-.8578284.94258-.4439708.47148-1.0257318 1.0275-1.6670821 1.6371.033338.77734.4286996 1.45246 1.7166915 1.70224 2.0626916.40004 4.247794-.96496 4.027661-3.73622-.09419-1.18956-.7434214-2.26544-1.4355714-2.97346zm.180868 2.01436a.52917.52917 0 0 1 0 1.05832.52917.52917 0 0 1 0-1.05832zm-.3524336 1.5875a.52917.52917 0 0 1 .021706 0 .52916666.52916666 0 0 1 0 1.05832.52927796.52927796 0 0 1-.021706-1.05832zm-2.6189612 1.0573a.52916666.52916666 0 0 1 0 1.05832.52916666.52916666 0 0 1 0-1.05832zm1.5843992 0a.52916666.52916666 0 0 1 0 1.05832.52916666.52916666 0 0 1 0-1.05832z"/>
</svg>
