<svg xmlns="http://www.w3.org/2000/svg" width="48" height="48" viewBox="0 0 12.7 12.7">
  <path fill="#1a1a1a" d="M6.3437318.07701A6.2670426 6.2670426 0 0 0 .07641417 6.34433a6.2670426 6.2670426 0 0 0 6.26731763 6.26628 6.2670426 6.2670426 0 0 0 6.2673172-6.26628A6.2670426 6.2670426 0 0 0 6.3437318.07701zm-.01756.93224a5.3879258 5.3879258 0 0 1 5.3877832 5.38882 5.3879258 5.3879258 0 0 1-5.3877848 5.38778A5.3879258 5.3879258 0 0 1 .93735117 6.39807 5.3879258 5.3879258 0 0 1 6.3261718 1.00925zm-1.326019 1.45418c-.6814326 0-1.2340332.55156-1.2340332 1.233 0 .68142.5526006 1.233 1.2340332 1.233.180378 0 .3512278-.0414.5053958-.1106l3.8106196 3.81062h.3090254v-.925l-2.1580078-2.158.7276042-.72762c.154176.0694.325011.1106.5053954.1106.6814264 0 1.2329996-.55158 1.2329996-1.233 0-.68144-.5515732-1.233-1.2329996-1.233-.6814328 0-1.2329996.55156-1.2329996 1.233 0 .1804.041216.35124.110588.5054l-.7276042.7276-.7286376-.7276c.069394-.1542.111622-.32502.111622-.5054 0-.68144-.5515738-1.233-1.2330012-1.233zm0 .61598c.3407164 0 .6159832.2763.6159832.61702s-.2752668.61702-.6159832.61702-.6170166-.2763-.6170166-.61702.2763002-.61702.6170166-.61702zm3.7000326 0c.3407172 0 .6159828.2763.6159828.61702s-.2752656.61702-.6159828.61702c-.3407162 0-.6170162-.2763-.6170168-.61702 6e-7-.34072.2763006-.61702.6170168-.61702zM2.6664452 4.88705v4.9413h4.9413006L5.5510236 7.77163l-.024802-.001-.646989.647.4227132.4227H3.6544902V7.19289l.2924886.29146.6418212-.64286.0031-.004.0031-.018v-.006zm2.8597736 2.88354l.00106-.001h-.00206zM6.850169 5.39245c.084796 0 .153996.0692.153996.154 0 .0846-.0692.154-.153996.154-.084792 0-.15503-.069-.155028-.154 0-.0848.070236-.154.155028-.154zm-.9250082.46198l-1.850016 1.85002v.925h.3079914l2.1590414-2.158z"/>
</svg>
