<svg xmlns="http://www.w3.org/2000/svg" width="24" height="24"><path d="M12 .09C5.352.09 0 5.382 0 11.955S5.352 23.82 12 23.82c.514 0 .95-.225 1.447-.287l1.977-3.36a9.081 9.081 0 0 1-3.424.68c-4.986 0-9-3.968-9-8.898s4.014-8.898 9-8.898a8.953 8.953 0 0 1 8.326 5.578l2.156-2.156C20.472 2.724 16.612.089 12 .089zm0 4.765c-.79 0-1.432.642-1.432 1.432v7.156a1.43 1.43 0 0 0 2.864 0V6.287c0-.79-.642-1.432-1.432-1.432zm10.486 5.06l-7.941 7.396h4.537l-3.402 6.34 7.941-8.454h-3.404l2.27-5.283zM12 16.28a1.431 1.431 0 0 0-1.432 1.432A1.431 1.431 0 0 0 12 19.145a1.431 1.431 0 0 0 1.432-1.432A1.431 1.431 0 0 0 12 16.28z" fill="gray" fill-opacity=".996"/></svg>