<svg xmlns="http://www.w3.org/2000/svg" width="24" height="24"><path d="M12 .09C5.352.09 0 5.382 0 11.955S5.352 23.82 12 23.82s12-5.292 12-11.865S18.648.09 12 .09zm0 2.967c4.986 0 9 3.968 9 8.898s-4.014 8.899-9 8.899-9-3.97-9-8.899c0-4.93 4.014-8.898 9-8.898zm-6.729 7.228c-.16.53-.271 1.08-.271 1.67 0 .657.206 1.248.377 1.85h13.246c.171-.602.377-1.193.377-1.85 0-.59-.111-1.14-.271-1.67H5.27zm.981 5.414C7.468 17.598 9.54 18.875 12 18.875c2.46 0 4.532-1.277 5.748-3.176H6.252z" fill="gray" fill-opacity=".996"/></svg>