<svg xmlns="http://www.w3.org/2000/svg" width="24" height="24"><path d="M20.387 2.025l-2.813 2.813a5.977 5.977 0 0 0-3.326-1.018 5.977 5.977 0 0 0-4.244 1.778l8.447 8.449a5.977 5.977 0 0 0 1.776-4.25 5.977 5.977 0 0 0-.948-3.219l2.83-2.83-1.722-1.723zM9.512 7.213L6.896 9.828l1.276 1.276 2.615-2.616-1.275-1.275zm2 2l-2.616 2.615 1.276 1.276 2.615-2.616-1.275-1.275zm-6.051.836a5.977 5.977 0 0 0-1.732 4.199 5.977 5.977 0 0 0 1.017 3.33l-3.035 3.035 1.72 1.723 3.053-3.053a5.977 5.977 0 0 0 3.221.944 5.977 5.977 0 0 0 4.203-1.729l-8.447-8.45zm8.05 1.164l-2.615 2.615 1.276 1.276 2.615-2.616-1.275-1.275zm2 2l-2.615 2.615 1.276 1.276 2.615-2.616-1.275-1.275z" fill="gray"/></svg>