<?xml version="1.0" encoding="UTF-8" standalone="no"?>
<svg
   xmlns:dc="http://purl.org/dc/elements/1.1/"
   xmlns:cc="http://creativecommons.org/ns#"
   xmlns:rdf="http://www.w3.org/1999/02/22-rdf-syntax-ns#"
   xmlns:svg="http://www.w3.org/2000/svg"
   xmlns="http://www.w3.org/2000/svg"
   xmlns:sodipodi="http://sodipodi.sourceforge.net/DTD/sodipodi-0.dtd"
   xmlns:inkscape="http://www.inkscape.org/namespaces/inkscape"
   width="48"
   height="48"
   version="1.1"
   id="svg6"
   sodipodi:docname="audio-midi.svg"
   inkscape:version="0.92.4 (5da689c313, 2019-01-14)">
  <defs
     id="defs10" />
  <sodipodi:namedview
     pagecolor="#ffffff"
     bordercolor="#666666"
     borderopacity="1"
     objecttolerance="10"
     gridtolerance="10"
     guidetolerance="10"
     inkscape:pageopacity="0"
     inkscape:pageshadow="2"
     inkscape:window-width="1087"
     inkscape:window-height="480"
     id="namedview8"
     showgrid="false"
     inkscape:zoom="4.9166667"
     inkscape:cx="2.1355932"
     inkscape:cy="24"
     inkscape:window-x="0"
     inkscape:window-y="25"
     inkscape:window-maximized="0"
     inkscape:current-layer="svg6" />
  <metadata
     id="metadata2">
    <rdf:RDF>
      <cc:Work>
        <dc:format>image/svg+xml</dc:format>
        <dc:type
           rdf:resource="http://purl.org/dc/dcmitype/StillImage" />
        <dc:title></dc:title>
      </cc:Work>
    </rdf:RDF>
  </metadata>
  <path
     style="line-height:normal;text-indent:0;text-align:start;text-decoration:none;text-decoration-line:none;text-transform:none;fill:#963996;marker:none"
     d="m 29.7,-0.08 c -2.04,0 -4.12,0.08 -4.51,0.1 H 7 a 2.94,2.94 0 0 0 -0.56,0 3.1,3.1 0 0 0 -2.44,3 V 45 c 0,1.57 1.43,3 3,3 h 34 c 1.57,0 3,-1.43 3,-3 V 18.82 c 0.02,-0.8 0.22,-9.93 -0.34,-10.5 l -9.6,-8.07 c -0.29,-0.28 -2.3,-0.34 -4.35,-0.33 z m 1.5,3.08 0.13,7.5 c 0.01,0.68 0.64,1.3 1.31,1.28 l 7.78,-0.13 c 0.13,0.01 0.26,0.01 0.4,-0.01 l 0.08,3.03 0.1,4.09 V 45 H 7 V 3.02 H 25.67 Z M 15.52,19 A 3,3 0 0 0 12.5,22.02 V 37.98 A 3,3 0 0 0 15.52,41 H 32.48 A 3,3 0 0 0 35.5,37.98 V 22.02 A 3,3 0 0 0 32.48,19 Z m 3.98,0.96 h 3.04 v 1.82 h 0.01 v 6.8 c 0,0.65 0.41,1.2 0.99,1.4 V 40.04 H 18.46 V 29.92 c 0.6,-0.2 1.04,-0.75 1.04,-1.41 v -7.06 z m 6.04,0 h 3 v 1.82 h 0.01 v 6.8 c 0,0.65 0.41,1.2 0.99,1.4 V 40.04 H 24.5 V 30 c 0.6,-0.2 1.04,-0.75 1.04,-1.41 v -7.06 z m -9.04,0 v 1.74 h 0.02 v 6.8 c 0,0.66 0.4,1.2 0.98,1.4 V 40.04 H 16.52 A 3,3 0 0 1 13.5,37.03 V 22.97 a 3,3 0 0 1 3,-3.01 z m 15.04,0 a 3,3 0 0 1 2.96,3.01 v 14.06 a 3,3 0 0 1 -3.02,3.01 H 30.5 V 30 c 0.6,-0.2 1.04,-0.75 1.04,-1.41 v -7.06 z"
     id="path4"
     inkscape:connector-curvature="0" />
</svg>
