<svg xmlns="http://www.w3.org/2000/svg" width="24" height="24" viewBox="0 0 6.35 6.35"><path d="M3.17.3A2.87 2.87 0 0 0 .31 3.19a2.87 2.87 0 0 0 2.86 2.86 2.87 2.87 0 0 0 2.88-2.87A2.87 2.87 0 0 0 3.17.31zm0 .43A2.47 2.47 0 0 1 5.63 3.2a2.47 2.47 0 0 1-2.46 2.47A2.47 2.47 0 0 1 .7 3.2 2.47 2.47 0 0 1 3.17.73zm.01.4c-.42 0-.76.3-.76.69 0 .13.02.3.1.68.04.1.28.32.41.46a.3.3 0 0 1-.03.16c-.44.15-1.22.43-1.27.61l-.11.98c.77.42 2.57.4 3.31 0-.03-.2-.05-.78-.08-.98-.2-.23-.71-.37-1.26-.61A.24.24 0 0 1 3.44 3c.11-.13.37-.4.4-.51.1-.4.1-.54.11-.68 0-.38-.34-.69-.77-.69z" fill="#ff7f2a"/></svg>