<svg xmlns="http://www.w3.org/2000/svg" width="24" height="24"><defs><clipPath id="d"><ellipse cx="23.62" cy="24.5" rx="21.01" ry="21.05" fill="#ccc" stroke-width=".3" stroke-linecap="round" stroke-linejoin="round"/></clipPath><clipPath id="c"><ellipse cx="23.62" cy="24.5" rx="21.01" ry="21.05" fill="#ccc" stroke-width=".3" stroke-linecap="round" stroke-linejoin="round"/></clipPath><clipPath id="b"><ellipse cx="23.62" cy="24.5" rx="21.01" ry="21.05" fill="#ccc" stroke-width=".3" stroke-linecap="round" stroke-linejoin="round"/></clipPath><clipPath id="a"><ellipse cx="7.99" cy="40.18" rx="7.55" ry="7.49" fill="#ccc" stroke-width=".38" stroke-linecap="round" stroke-linejoin="round"/></clipPath></defs><g fill="#ff7f2a"><path d="M2.12 33.97v11.9h11.91z" clip-path="url(#a)" transform="rotate(-45 8.7 5.34) scale(.39615)"/><path d="M2.12 26.7v-7.58l26.76 26.76H21.3z" clip-path="url(#b)" transform="rotate(-45 8.7 5.34) scale(.39615)"/><path clip-path="url(#c)" d="M25.85 19.81H-.35l-5.1-5.1h31.3" transform="matrix(.37086 0 0 .39615 3.58 2.7)"/><path clip-path="url(#d)" d="M25.85 9.43H-2.4L3.13 3.9h22.72" transform="translate(2.93 2.7) scale(.39615)"/><path d="M16.6 4.38c-.9 0-1.64.73-1.64 1.64v.65h-.99v3.94c0 .37.3.66.66.66h3.94a.66.66 0 0 0 .65-.66l.04-3.92-.7-.02h-.32v-.65c0-.9-.74-1.64-1.64-1.64zm0 .62c.56 0 1.01.46 1.01 1.02v.65h-2.03v-.65c0-.56.46-1.02 1.02-1.02z"/></g></svg>