<svg xmlns="http://www.w3.org/2000/svg" width="24" height="24" id="svg7"><defs id="defs3"><style id="current-color-scheme"/></defs><path d="M15.7 2.3a5.6 5.6 0 0 1-2.42.5 7.76 7.76 0 0 0-5.62 2.37C5.64 7.25 5 9.87 5.93 12.3c.22.57.33 1.14.29 1.27-.06.14-.45.51-.87.85a4.7 4.7 0 0 0-1.7 3.07c-.09.72-.01 1.08.37 1.96.88 1.88 2.83 2.7 4.9 2.03 1.21-.39 2.42-1.76 3.38-3.85.83-1.79.86-1.84 1.76-2.17a7.91 7.91 0 0 0 3.4-2.15 6.64 6.64 0 0 0 1.69-6.33c-.27-1-.49-1.33-1.7-2.61a11.77 11.77 0 0 1-1.54-1.81c-.06-.16-.1-.24-.2-.24zm-3.78 2.43c.7 0 1.24.21 1.38.64.05.13-.15.8-.45 1.45-.78 1.7-1.02 2.65-1.5 5.66-.59 3.73-1.22 5.33-2.5 6.3-.8.6-1.8.66-2.33.11a1.54 1.54 0 0 1-.35-1.65c.15-.49.81-.57 2.03-.73.85-.14 1.46-.73 1.46-1.5 0-.49-.2-.77-.86-1.47-1.03-1.1-1.96-2.13-1.96-3.46a5.19 5.19 0 0 1 5.09-5.35zm2.82 1.21c.24-.03.57.23 1 .75a5.16 5.16 0 0 1-.4 7.07c-.84.78-1.04.82-1.62.41-.34-.24-.4-.46-.4-1.35 0-1.35.46-4.66.83-5.92.16-.61.35-.92.6-.96z" id="path5" color="#fff" fill="#ff7f2a" stroke-width="1.21"/></svg>
