<svg xmlns="http://www.w3.org/2000/svg" width="48" height="48" viewBox="0 0 12.7 12.7"><g fill="#2c89a0"><path d="M6.344.073a6.29 6.29 0 0 0-6.29 6.29 6.29 6.29 0 0 0 6.29 6.289 6.29 6.29 0 0 0 6.29-6.29 6.29 6.29 0 0 0-6.29-6.29zm-.018.936a5.407 5.407 0 0 1 5.407 5.407 5.407 5.407 0 0 1-5.407 5.407A5.407 5.407 0 0 1 .92 6.416 5.407 5.407 0 0 1 6.326 1.01z"/><path d="M6.338 1.884c-1.783 0-3.22.37-3.22.83v7.237c0 .46 1.437.83 3.22.83 1.783 0 3.22-.37 3.22-.83V2.715c0-.46-1.437-.83-3.22-.83zm1.96 1.16a.524.543 0 0 1 .525.543.524.543 0 0 1-.524.542.524.543 0 0 1-.525-.542.524.543 0 0 1 .525-.542zm-3.906.005a.524.543 0 0 1 .525.542.524.543 0 0 1-.525.542.524.543 0 0 1-.524-.542.524.543 0 0 1 .524-.542zm1.952 2.103a2.085 2.085 0 0 1 2.085 2.085 2.085 2.085 0 0 1-2.085 2.085 2.085 2.085 0 0 1-2.085-2.085 2.085 2.085 0 0 1 2.085-2.085zm-.006.31a1.792 1.792 0 0 0-1.793 1.793 1.792 1.792 0 0 0 1.793 1.792 1.792 1.792 0 0 0 1.793-1.792 1.792 1.792 0 0 0-1.793-1.793zm.013.564a1.224 1.24 0 0 1 1.224 1.24 1.224 1.24 0 0 1-1.224 1.241 1.224 1.24 0 0 1-1.224-1.24 1.224 1.24 0 0 1 1.224-1.241z"/></g></svg>