<svg xmlns="http://www.w3.org/2000/svg" width="48" height="48" viewBox="0 0 12.7 12.7"><g fill="#2c89a0"><path d="M6.344.073a6.29 6.29 0 0 0-6.29 6.29 6.29 6.29 0 0 0 6.29 6.288 6.29 6.29 0 0 0 6.29-6.289 6.29 6.29 0 0 0-6.29-6.29zm-.018.936a5.407 5.407 0 0 1 5.407 5.407 5.407 5.407 0 0 1-5.407 5.407A5.407 5.407 0 0 1 .92 6.416 5.407 5.407 0 0 1 6.326 1.01zm3.487 2.266a1.25 1.376 59.922 0 0-.722 1.006 1.558 1.558 0 0 0-.676-.159h-3.09c-.869 0-1.567.699-1.567 1.567v.408L1.704 4.504v4.402l2.054-1.593v.324c0 .868.698 1.566 1.566 1.566h3.091c.868 0 1.567-.698 1.567-1.566V5.689c0-.029-.006-.055-.008-.083a1.25 1.376 59.922 0 0 1.074-.159L9.813 3.275z"/><path d="M6.344.073a6.29 6.29 0 0 0-6.29 6.29 6.29 6.29 0 0 0 6.29 6.288 6.29 6.29 0 0 0 6.29-6.289 6.29 6.29 0 0 0-6.29-6.29zm-.018.936a5.407 5.407 0 0 1 5.407 5.407 5.407 5.407 0 0 1-5.407 5.407A5.407 5.407 0 0 1 .92 6.416 5.407 5.407 0 0 1 6.326 1.01zm3.487 2.266a1.25 1.376 59.922 0 0-.722 1.006 1.558 1.558 0 0 0-.676-.159h-3.09c-.869 0-1.567.699-1.567 1.567v.408L1.704 4.504v4.402l2.054-1.593v.324c0 .868.698 1.566 1.566 1.566h3.091c.868 0 1.567-.698 1.567-1.566V5.689c0-.029-.006-.055-.008-.083a1.25 1.376 59.922 0 0 1.074-.159L9.813 3.275z"/></g></svg>