<?xml version="1.0" encoding="UTF-8" standalone="no"?>
<svg
   xmlns:dc="http://purl.org/dc/elements/1.1/"
   xmlns:cc="http://creativecommons.org/ns#"
   xmlns:rdf="http://www.w3.org/1999/02/22-rdf-syntax-ns#"
   xmlns:svg="http://www.w3.org/2000/svg"
   xmlns="http://www.w3.org/2000/svg"
   xmlns:sodipodi="http://sodipodi.sourceforge.net/DTD/sodipodi-0.dtd"
   xmlns:inkscape="http://www.inkscape.org/namespaces/inkscape"
   width="48"
   height="48"
   viewBox="0 0 12.7 12.7"
   version="1.1"
   id="svg4"
   sodipodi:docname="mdb-sql.svg"
   inkscape:version="0.92.5 (2060ec1f9f, 2020-04-08)">
  <metadata
     id="metadata10">
    <rdf:RDF>
      <cc:Work
         rdf:about="">
        <dc:format>image/svg+xml</dc:format>
        <dc:type
           rdf:resource="http://purl.org/dc/dcmitype/StillImage" />
        <dc:title></dc:title>
      </cc:Work>
    </rdf:RDF>
  </metadata>
  <defs
     id="defs8" />
  <sodipodi:namedview
     pagecolor="#ffffff"
     bordercolor="#666666"
     borderopacity="1"
     objecttolerance="10"
     gridtolerance="10"
     guidetolerance="10"
     inkscape:pageopacity="0"
     inkscape:pageshadow="2"
     inkscape:window-width="1085"
     inkscape:window-height="480"
     id="namedview6"
     showgrid="false"
     inkscape:zoom="4.9166667"
     inkscape:cx="2.1355932"
     inkscape:cy="24"
     inkscape:window-x="0"
     inkscape:window-y="25"
     inkscape:window-maximized="0"
     inkscape:current-layer="svg4" />
  <path
     d="M 6.34,0.075 A 6.295,6.295 0 0 0 0.055,6.36 6.295,6.295 0 0 0 6.34,12.655 6.295,6.295 0 0 0 9.782,11.624 L 9.158,10.999 A 5.407,5.407 0 0 1 0.912,6.402 c 0,-2.987 2.43,-5.387 5.417,-5.387 a 5.408,5.408 0 0 1 5.397,5.387 5.407,5.407 0 0 1 -1,3.127 l 0.627,0.627 A 6.295,6.295 0 0 0 12.633,6.36 6.295,6.295 0 0 0 6.34,0.075 Z m 0.016,1.92 0.001,0.002 c -2.25,0 -3.537,0.63 -3.71,1.27 a 0.144,0.144 0 0 0 -0.02,0.072 v 0.344 c 0.422,0.442 1.837,0.85 3.73,0.85 1.891,0 3.306,-0.408 3.73,-0.85 V 3.338 A 0.138,0.138 0 0 0 10.067,3.27 C 9.899,2.628 8.612,1.996 6.357,1.996 Z M 2.626,4.22 v 1.4 C 3.02,6.031 4.272,6.413 5.951,6.467 H 6.004 L 6.149,6.47 6.269,6.471 A 2.58,2.58 0 0 1 6.426,6.334 2.58,2.58 0 0 1 6.636,6.184 2.58,2.58 0 0 1 6.859,6.055 2.58,2.58 0 0 1 7.095,5.95 2.58,2.58 0 0 1 7.339,5.868 2.58,2.58 0 0 1 7.591,5.812 2.58,2.58 0 0 1 7.847,5.78 2.58,2.58 0 0 1 8.033,5.774 2.58,2.58 0 0 1 8.29,5.787 2.58,2.58 0 0 1 8.545,5.825 2.58,2.58 0 0 1 8.795,5.888 2.58,2.58 0 0 1 9.037,5.977 2.58,2.58 0 0 1 9.223,6.067 C 9.614,5.932 9.932,5.782 10.086,5.621 v -1.4 C 9.36,4.719 7.826,4.983 6.356,4.983 4.888,4.983 3.352,4.719 2.626,4.22 Z m 0,1.955 V 7.576 C 2.978,7.943 4.038,8.273 5.452,8.38 a 2.58,2.58 0 0 1 0,-0.024 A 2.58,2.58 0 0 1 5.464,8.098 2.58,2.58 0 0 1 5.503,7.843 2.58,2.58 0 0 1 5.566,7.593 2.58,2.58 0 0 1 5.654,7.351 2.58,2.58 0 0 1 5.766,7.118 2.58,2.58 0 0 1 5.886,6.924 C 4.831,6.887 3.98,6.74 3.37,6.526 A 3.05,3.05 0 0 1 2.626,6.174 Z m 7.46,0 a 3.054,3.054 0 0 1 -0.386,0.21 2.58,2.58 0 0 1 0.183,0.17 2.58,2.58 0 0 1 0.17,0.193 2.58,2.58 0 0 1 0.033,0.046 z m -2.13,0.331 a 1.747,1.747 0 0 0 -1.748,1.748 1.747,1.747 0 0 0 1.749,1.749 c 0.226,0 0.431,-0.041 0.616,-0.103 l 0.926,0.926 h 0.617 v 0.616 h 0.618 v 0.617 h 1.028 V 11.03 L 9.602,8.87 A 2.16,2.16 0 0 0 9.705,8.253 1.747,1.747 0 0 0 7.957,6.505 Z M 7.442,7.124 c 0.35,0 0.617,0.267 0.617,0.617 A 0.606,0.606 0 0 1 7.442,8.358 0.606,0.606 0 0 1 6.825,7.741 c 0,-0.35 0.268,-0.617 0.617,-0.617 z M 2.626,8.116 v 1.221 a 0.14,0.14 0 0 0 0.017,0.068 c 0.176,0.73 1.753,1.275 3.714,1.275 0.174,0 0.323,-0.025 0.49,-0.034 A 2.58,2.58 0 0 1 6.795,10.622 2.58,2.58 0 0 1 6.575,10.487 2.58,2.58 0 0 1 6.37,10.331 2.58,2.58 0 0 1 6.182,10.155 2.58,2.58 0 0 1 6.011,9.962 2.58,2.58 0 0 1 5.861,9.752 2.58,2.58 0 0 1 5.733,9.529 2.58,2.58 0 0 1 5.627,9.293 2.58,2.58 0 0 1 5.546,9.049 2.58,2.58 0 0 1 5.5,8.85 C 4.129,8.76 3.139,8.476 2.625,8.115 Z"
     id="path2"
     inkscape:connector-curvature="0"
     style="fill:#ff78cb" />
</svg>
