<?xml version="1.0" encoding="UTF-8" standalone="no"?>
<svg
   xmlns:dc="http://purl.org/dc/elements/1.1/"
   xmlns:cc="http://creativecommons.org/ns#"
   xmlns:rdf="http://www.w3.org/1999/02/22-rdf-syntax-ns#"
   xmlns:svg="http://www.w3.org/2000/svg"
   xmlns="http://www.w3.org/2000/svg"
   xmlns:sodipodi="http://sodipodi.sourceforge.net/DTD/sodipodi-0.dtd"
   xmlns:inkscape="http://www.inkscape.org/namespaces/inkscape"
   width="48"
   height="48"
   version="1"
   id="svg11"
   sodipodi:docname="youtrack.svg"
   inkscape:version="0.92.4 (5da689c313, 2019-01-14)">
  <metadata
     id="metadata15">
    <rdf:RDF>
      <cc:Work
         rdf:about="">
        <dc:format>image/svg+xml</dc:format>
        <dc:type
           rdf:resource="http://purl.org/dc/dcmitype/StillImage" />
        <dc:title></dc:title>
      </cc:Work>
    </rdf:RDF>
  </metadata>
  <sodipodi:namedview
     pagecolor="#ffffff"
     bordercolor="#666666"
     borderopacity="1"
     objecttolerance="10"
     gridtolerance="10"
     guidetolerance="10"
     inkscape:pageopacity="0"
     inkscape:pageshadow="2"
     inkscape:window-width="1087"
     inkscape:window-height="480"
     id="namedview13"
     showgrid="false"
     inkscape:zoom="4.9166667"
     inkscape:cx="2.1355932"
     inkscape:cy="24"
     inkscape:window-x="0"
     inkscape:window-y="25"
     inkscape:window-maximized="0"
     inkscape:current-layer="svg11" />
  <defs
     id="defs7">
    <linearGradient
       id="a">
      <stop
         offset="0"
         stop-color="#040000"
         id="stop2" />
      <stop
         offset="1"
         stop-opacity="0"
         id="stop4" />
    </linearGradient>
  </defs>
  <path
     d="M 24,0.23 A 23.77,23.77 0 0 0 0.23,24.01 23.77,23.77 0 0 0 24,47.77 23.77,23.77 0 0 0 47.77,24 23.77,23.77 0 0 0 24,0.23 Z M 23.93,3.77 A 20.44,20.44 0 0 1 44.37,24.21 20.44,20.44 0 0 1 23.93,44.64 20.44,20.44 0 0 1 3.5,24.21 20.44,20.44 0 0 1 23.93,3.77 Z m 0,3 A 17.44,17.44 0 0 0 6.5,24.22 17.44,17.44 0 0 0 23.93,41.66 17.44,17.44 0 0 0 41.37,24.2 17.44,17.44 0 0 0 23.93,6.77 Z m 2.42,6.66 0.04,0.03 v 0.74 c -0.97,0.69 -1.55,1.31 -1.74,1.86 h 4.5 l 0.07,0.07 v 0.62 l -0.08,0.07 h -4.86 c -0.13,0.49 -0.2,0.92 -0.2,1.3 v 0.28 c 0,1.43 0.68,2.69 2.03,3.76 l -0.37,0.53 c -0.63,-0.26 -1.23,-0.92 -1.82,-1.98 -0.4,-0.85 -0.6,-1.66 -0.6,-2.43 0.02,-0.47 0.09,-0.95 0.2,-1.46 h -1.06 l -0.08,-0.07 v -0.62 l 0.08,-0.07 h 1.3 a 5.92,5.92 0 0 1 2.59,-2.63 z m -14.77,0.02 h 0.04 v 1.25 a 8.32,8.32 0 0 0 -0.19,1.34 v 0.22 c 0,1.56 0.78,2.8 2.33,3.7 0.63,0.32 1.29,0.48 1.96,0.48 1.52,0 2.75,-0.73 3.7,-2.18 0.37,-0.67 0.55,-1.39 0.55,-2.15 l -0.18,-1.37 v -1.3 h 0.07 c 0.52,0.9 0.78,1.78 0.78,2.67 v 3.62 A 4.9,4.9 0 0 1 18,22.21 c -0.8,0.32 -1.56,0.48 -2.29,0.48 -1.89,0 -3.43,-0.79 -4.62,-2.36 l -0.3,-0.48 0.04,-0.04 h 0.74 a 4.8,4.8 0 0 0 4.03,2.18 h 0.3 c 1.39,0 2.6,-0.6 3.62,-1.78 0.2,-0.24 0.3,-0.41 0.3,-0.51 v -0.82 h -0.04 a 4.78,4.78 0 0 1 -4.14,2.22 c -1.83,0 -3.28,-0.9 -4.36,-2.7 a 4.82,4.82 0 0 1 -0.52,-2.03 v -0.44 c 0,-0.85 0.27,-1.68 0.81,-2.48 z m -1.2,11.05 h 19.75 c 0.15,0 0.28,0.13 0.28,0.29 0,0.15 -0.13,0.28 -0.28,0.28 H 10.38 a 0.28,0.28 0 0 1 -0.29,-0.28 c 0,-0.16 0.13,-0.29 0.29,-0.29 z"
     id="path9"
     inkscape:connector-curvature="0"
     style="fill:#ff78cb" />
</svg>
