<svg xmlns="http://www.w3.org/2000/svg" width="48" height="48" viewBox="0 0 12.7 12.7"><path fill="#2c89a0" d="M6.344.073a6.29 6.29 0 0 0-6.289 6.29 6.29 6.29 0 0 0 6.29 6.288 6.29 6.29 0 0 0 6.288-6.289A6.29 6.29 0 0 0 6.344.072zm-.018.936a5.407 5.407 0 0 1 5.407 5.407 5.407 5.407 0 0 1-5.407 5.407A5.407 5.407 0 0 1 .92 6.416 5.407 5.407 0 0 1 6.326 1.01zM2.892 2.78a.177.177 0 0 0-.178.175v7.05c0 .097.08.176.178.176h6.771a.177.177 0 0 0 .178-.176v-7.05a.177.177 0 0 0-.178-.176H2.892zm1.192.764h4.332v2.73H4.084v-2.73zm-.959.057h.548v.275h-.548V3.6zm5.757 0h.548v.275h-.548V3.6zm-5.757.823h.548v.274h-.548v-.274zm5.757 0h.548v.274h-.548v-.274zm-5.757.822h.548v.274h-.548v-.274zm5.757 0h.548v.274h-.548v-.274zm-5.757.823h.548v.274h-.548v-.274zm5.757 0h.548v.274h-.548v-.274zm-4.798.776h4.332v2.573H4.084V6.844zm-.959.046h.548v.274h-.548V6.89zm5.757 0h.548v.274h-.548V6.89zm-5.757.823h.548v.273h-.548v-.273zm5.757 0h.548v.273h-.548v-.273zm-5.757.822h.548v.274h-.548v-.274zm5.757 0h.548v.274h-.548v-.274zm-5.757.822h.548v.275h-.548v-.275zm5.757 0h.548v.275h-.548v-.275z"/></svg>