<svg xmlns="http://www.w3.org/2000/svg" width="48" height="48" viewBox="0 0 12.7 12.7"><path fill="#a02c2c" d="M6.35.061a6.29 6.29 0 0 0-6.289 6.29 6.29 6.29 0 0 0 6.29 6.288 6.29 6.29 0 0 0 6.288-6.288 6.29 6.29 0 0 0-1.256-3.76l-.64.697a5.407 5.407 0 0 1 .996 3.116 5.407 5.407 0 0 1-5.407 5.407A5.407 5.407 0 0 1 .925 6.404 5.407 5.407 0 0 1 6.332.997a5.407 5.407 0 0 1 2.538.636l.924-.543A6.29 6.29 0 0 0 6.35.061zm4.855.786c0-.013-.152.09-.338.231C9.114 2.4 6.922 3.557 5.695 3.807l-.23.047-.089.23c-.305.804-1.174 1.373-2.535 1.663a3.125 3.125 0 0 0-.513.146 1.457 1.457 0 0 0-.555.556c-.088.17-.102.243-.088.474.01.194.037.297.092.356.074.08.258.123.212.049-.037-.058.136-.244.307-.33.277-.139.707-.204 1.158-.198.08 0 .177.005.243.01.338.024.673.087.951.191.15.056.276.123.38.199.383.196.706.452.977.747l.002-.029c.002-.194.008-.353.014-.353.007 0 .031.05.055.111.057.148.087.303.093.46.515.64.819 1.427.997 2.188.239-.406.465-.943.466-1.162.001-.325.23.312.302.842l.05.367.09-.222c.152-.372.223-.76.223-1.217a3.25 3.25 0 0 0-.027-.515c-.015-.047-.01-.085.01-.085.05 0 .443.394.544.545.095.142.102.08.024-.208-.207-.763-.8-1.483-1.645-1.996l-.327-.198.162-.005a1.91 1.91 0 0 0 .286-.033l.124-.027-.165-.055L7.12 6.3l.263-.053a3 3 0 0 0 .554-.188l.292-.136-.37.015-.37.014.288-.096c.4-.132 1.168-.528 1.119-.577a1.825 1.825 0 0 0-.32.066c-.495.126-.548.099-.16-.085.376-.179.907-.516 1.168-.742l.164-.142-.308.136c-.261.116-.858.307-.96.307-.017 0 .088-.06.234-.136.417-.213.794-.496 1.26-.946l.432-.416-.35.182c-.33.171-1.027.479-1.027.453 0-.006.088-.073.196-.147.416-.29 1.153-1.054 1.59-1.649l.158-.216-.389.299c-.414.318-1.262.858-1.295.826-.011-.011.03-.052.092-.092.181-.117.98-1.004 1.418-1.576.224-.291.407-.54.407-.554z"/></svg>