<svg xmlns="http://www.w3.org/2000/svg" width="48" height="48" viewBox="0 0 12.7 12.7"><path fill="#a02c2c" d="M6.344.073a6.29 6.29 0 0 0-6.29 6.29 6.29 6.29 0 0 0 6.29 6.288 6.29 6.29 0 0 0 6.29-6.289 6.29 6.29 0 0 0-6.29-6.29zm-.018.936a5.407 5.407 0 0 1 5.407 5.407 5.407 5.407 0 0 1-5.407 5.407A5.407 5.407 0 0 1 .92 6.416 5.407 5.407 0 0 1 6.326 1.01zM2.848 2.576V4.76h1.933V2.576H2.848zm2.135.528v.54a5.172 2.412 0 0 1 5.11 2.412 5.172 2.412 0 0 1-5.11 2.412v.557a6.35 2.96 0 0 0 .005 0 6.35 2.96 0 0 0 6.35-2.96 6.35 2.96 0 0 0-6.35-2.961 6.35 2.96 0 0 1-.005 0zM3.789 4.996v4.58h-.652l1.143 1.269 1.14-1.269h-.625v-4.58H3.79zM2.612 8.474v.551h.876v-.551h-.876z"/></svg>