<svg xmlns="http://www.w3.org/2000/svg" width="48" height="48" viewBox="0 0 12.7 12.7"><path d="M6.34.07a6.29 6.29 0 0 0-6.29 6.3 6.29 6.29 0 0 0 6.3 6.28 6.29 6.29 0 0 0 6.28-6.29A6.29 6.29 0 0 0 6.34.07zM6.32 1l.01.01a5.4 5.4 0 0 1 5.4 5.4 5.4 5.4 0 0 1-2.03 4.23C9.27 8.2 8.46 5.13 7 4.16c.19-.12.2-.75.2-.75l.5-.62c-.18 0-1.12.27-1.4.62-.74.05-3.4 1.83-5.38 3.2a5.4 5.4 0 0 1-.01-.19A5.4 5.4 0 0 1 6.32 1zm-.31 5.33h.04c1.2 0 2.37 2.53 3.14 4.66a5.4 5.4 0 0 1-2.86.83 5.4 5.4 0 0 1-3.66-1.43l.85-1.19C4.6 7.72 5.54 6.34 6.01 6.33zm-3.47.56c.09 0 .15.02.18.05.15.18-.48 1.04-1.16 2.03A5.4 5.4 0 0 1 1 7.3a6.24 6.24 0 0 1 1.55-.4zm1.12.53h.05c.04.06-.68 1.25-1.47 2.53a5.4 5.4 0 0 1-.44-.58c.8-.98 1.6-1.91 1.86-1.95z" fill="#a02c2c"/></svg>
