<svg xmlns="http://www.w3.org/2000/svg" width="48" height="48" viewBox="0 0 12.7 12.7"><path d="M6.34.07a6.29 6.29 0 0 0-6.29 6.3 6.29 6.29 0 0 0 6.3 6.28 6.29 6.29 0 0 0 6.28-6.29A6.29 6.29 0 0 0 6.34.07zM6.32 1l.01.01a5.4 5.4 0 0 1 5.4 5.4 5.4 5.4 0 0 1-5.4 5.41 5.4 5.4 0 0 1-5.41-5.4A5.4 5.4 0 0 1 6.32 1zm-.63.88l-.76.2.65 1.68.24.14a2.54 2.54 0 0 1 2.86 1.6l.01.06.3.17 1.77-.27-.2-.77-1.5-.21-.59-.67.46-1.36-.73-.42-.94 1.08-.87-.18-.7-1.05zM3.3 3l-.55.57.56 1.4-.28.84-1.4.28v.85l1.4.28.28.84-.56 1.12.56.56 1.12-1.4v-.3a2.5 2.5 0 0 1 0-3.35v-.28L3.3 3zm5.72 4.02l-.32.19a2.55 2.55 0 0 1-2.86 1.65l-.22.13-.66 1.67.77.2.94-1.18.87-.18.94 1.08.73-.43-.46-1.35.6-.67 1.24-.07.21-.77-1.78-.27z" fill="#a02c2c"/></svg>
