<svg xmlns="http://www.w3.org/2000/svg" width="48" height="48" viewBox="0 0 12.7 12.7"><path d="M6.34.34A6.03 6.03 0 0 0 .32 6.36a6.03 6.03 0 0 0 6.03 6.03 6.03 6.03 0 0 0 6.02-6.03A6.03 6.03 0 0 0 6.34.34zm-.02.88l.01.02A5.18 5.18 0 0 1 11.5 6.4a5.18 5.18 0 0 1-5.18 5.18A5.18 5.18 0 0 1 1.14 6.4a5.18 5.18 0 0 1 5.18-5.18zM3.42 3.6v.51h-.51v.35h.5v.34h-.5v.35h.5v.34h-.5v.34h.5v.35h-.5v.34h.5v.35h-.5v.34h.5v.34h-.5v.35h.5v.34h-.5v.35h.52v.51h.34v-.46h.34v.46h.35v-.46h.34v.46h.35v-.46h.34v.46h.34v-.46h.35v.46h.34v-.46h.35v.46h.34v-.46h.34v.46h.35v-.46h.34v.46h.35v-.46h.34v.46h.34V8.6h.52v-.35h-.5V7.9h.5v-.35h-.5v-.34h.5v-.34h-.5v-.35h.5v-.34h-.5v-.35h.5V5.5h-.5v-.34h.5V4.8h-.5v-.34h.5V4.1h-.52V3.6h-.34v.46h-.34V3.6h-.35v.46H7.9V3.6h-.35v.46h-.34V3.6h-.34v.46h-.35V3.6h-.34v.46h-.35V3.6H5.5v.46h-.34V3.6H4.8v.46h-.34V3.6H4.1v.46h-.34V3.6h-.34zm.92 1.52h4.02c.1 0 .17.08.17.17 0 .1-.08.17-.17.17H4.34a.17.17 0 0 1-.17-.17c0-.1.08-.17.17-.17zm0 1.06h4.02c.1 0 .17.07.17.17s-.08.17-.17.17H4.34a.17.17 0 0 1-.17-.17c0-.1.08-.17.17-.17zm0 1.06h4.02c.1 0 .17.07.17.17s-.08.17-.17.17H4.34a.17.17 0 0 1-.17-.17c0-.1.08-.17.17-.17z" fill="#a02c2c"/></svg>