<?xml version="1.0" encoding="UTF-8" standalone="no"?><svg xmlns:dc="http://purl.org/dc/elements/1.1/" xmlns:cc="http://creativecommons.org/ns#" xmlns:rdf="http://www.w3.org/1999/02/22-rdf-syntax-ns#" xmlns="http://www.w3.org/2000/svg" width="48" height="48" viewBox="0 0 12.7 12.7"><metadata><rdf:RDF><cc:Work><dc:format>image/svg+xml</dc:format><dc:type rdf:resource="http://purl.org/dc/dcmitype/StillImage"/><dc:title/></cc:Work></rdf:RDF></metadata><path d="M6.34.07a6.29 6.29 0 0 0-6.29 6.3 6.29 6.29 0 0 0 6.3 6.28 6.29 6.29 0 0 0 6.28-6.29A6.29 6.29 0 0 0 6.34.07zm-.01.94a5.4 5.4 0 0 1 5.4 5.4 5.4 5.4 0 0 1-5.4 5.41A5.4 5.4 0 0 1 1.6 9.03h9.11V3.71l-.51.3.15.26-.09.06-.15-.27-.27.16.16.26-.1.05-.15-.26-.26.15.3.53-.08.06-.31-.54-.27.16.16.26-.09.06-.16-.27-.26.16.15.26-.08.05-.16-.26-7.1 4.14a5.4 5.4 0 0 1-.67-2.61A5.4 5.4 0 0 1 6.32 1zM9.4 4.47l.09-.05-.1.05h.01zm.35-.2l.1-.05-.1.05zm.36-.2L10.2 4l-.1.05zm-1.69.97l.32.53-.1.06-.3-.54.08-.05zm-.35.21l.16.27-.1.05-.15-.27.09-.05zm-.35.2l.15.27-.09.05-.15-.26.09-.05zm-.36.21l.31.54-.09.05-.3-.53.08-.06zm-.35.21l.15.27-.09.05-.15-.27.09-.05zm-.36.2l.16.27-.1.06-.15-.27.1-.05zm2.76.1v1.9H6.15l3.26-1.9zm-3.11.11l.3.54-.08.05-.31-.53.09-.06zm-.36.21l.16.27-.1.05-.15-.27.1-.05zm-.35.2l.15.27-.08.06-.16-.27.09-.05zm-.36.22l.31.53-.08.05-.31-.53.08-.05zm-.35.2l.15.27-.08.05-.16-.27.09-.05zm-.35.21l.15.27-.09.05-.15-.27.09-.05zm-.36.2l.31.54-.09.05-.3-.53.08-.05zm-.35.21l.15.27-.09.05-.15-.26.09-.06zm-.36.21l.16.27-.1.05-.15-.27.1-.05zm-.35.2l.3.54-.08.05-.31-.53.09-.05zm-.36.22l.16.26-.1.05-.15-.26.1-.05zm-.35.2l.15.27-.09.05-.15-.27.09-.05z" fill="#a02c2c"/></svg>