<svg xmlns="http://www.w3.org/2000/svg" width="48" height="48" viewBox="0 0 12.7 12.7"><path d="M6.34.07a6.29 6.29 0 0 0-6.29 6.3 6.29 6.29 0 0 0 6.3 6.28 6.29 6.29 0 0 0 6.28-6.29A6.29 6.29 0 0 0 6.34.07zm-.01.94a5.4 5.4 0 0 1 5.4 5.4 5.4 5.4 0 0 1-5.4 5.41 5.4 5.4 0 0 1-5.41-5.4A5.4 5.4 0 0 1 6.32 1zM3.57 2.65a.93.93 0 0 0-.92.92.93.93 0 0 0 .52.84v3.88a.93.93 0 0 0-.52.84.93.93 0 0 0 .92.92.93.93 0 0 0 .84-.53h3.88a.93.93 0 0 0 .84.53.93.93 0 0 0 .92-.92.93.93 0 0 0-.53-.84V4.41a.93.93 0 0 0 .53-.84.93.93 0 0 0-.92-.92.93.93 0 0 0-.84.52H4.41a.93.93 0 0 0-.84-.52zM4.5 3.7H8.2a.93.93 0 0 0 .17.41l-.59.6-.13.12a.53.53 0 0 0-.25-.07.53.53 0 0 0-.46.27h-1.2a.53.53 0 0 0-.46-.27.53.53 0 0 0-.25.07L4.9 4.7l-.59-.59a.93.93 0 0 0 .17-.4zm-.38.62l.6.6.12.12a.53.53 0 0 0-.07.25.53.53 0 0 0 .27.46v1.2a.53.53 0 0 0-.27.46.53.53 0 0 0 .07.25l-.13.13-.59.59a.93.93 0 0 0-.4-.17V4.5a.93.93 0 0 0 .4-.17zm4.48 0a.93.93 0 0 0 .4.17V8.2a.93.93 0 0 0-.4.17l-.4-.4-.2-.19-.12-.13a.53.53 0 0 0 .07-.25.53.53 0 0 0-.27-.46v-1.2a.53.53 0 0 0 .27-.46.53.53 0 0 0-.07-.25L8 4.9l.59-.59zm-2.77.97h1.06a.53.53 0 0 0 .53.53v1.06a.53.53 0 0 0-.53.53H5.82a.53.53 0 0 0-.53-.53V5.82a.53.53 0 0 0 .53-.53zm-.07 2.38h1.2a.53.53 0 0 0 .46.27.53.53 0 0 0 .25-.07L7.8 8l.59.59a.93.93 0 0 0-.17.4H4.5a.93.93 0 0 0-.17-.4l.59-.6.13-.12a.53.53 0 0 0 .25.07.53.53 0 0 0 .46-.27z" fill="#a02c2c"/></svg>