<svg xmlns="http://www.w3.org/2000/svg" width="48" height="48" viewBox="0 0 12.7 12.7"><path fill="#a02c2c" d="M6.344.073a6.29 6.29 0 0 0-6.29 6.29 6.29 6.29 0 0 0 6.29 6.288 6.29 6.29 0 0 0 6.29-6.289 6.29 6.29 0 0 0-6.29-6.29zm-.018.936a5.407 5.407 0 0 1 5.407 5.407 5.407 5.407 0 0 1-5.407 5.407A5.407 5.407 0 0 1 .92 6.416 5.407 5.407 0 0 1 6.326 1.01zM2.834 2.79v4.253l2.419 1.064.044-.054a.551.551 0 0 1 .43-.205.56.56 0 0 1 .558.564c0 .311-.25.565-.557.565a.562.562 0 0 1-.551-.485l-.008-.051-2.335-1.028v2.5h7.032V2.789h-1.1v2.154l.041.028a.533.533 0 0 1 .241.447.53.53 0 0 1-.527.533.53.53 0 0 1-.526-.533c0-.23.145-.433.361-.506l.063-.02V2.788h-3.81V5.15h1.137l.023-.06a.548.548 0 0 1 .508-.356c.3 0 .544.248.544.551a.541.541 0 1 1-1.025.256l-.026-.049H4.272V2.79H2.834zM6.27 5.037a.276.28 0 0 0-.276.28.276.28 0 0 0 .276.279.276.28 0 0 0 .276-.28.276.28 0 0 0-.276-.279zm2.251.107a.276.28 0 0 0-.275.28.276.28 0 0 0 .275.28.276.28 0 0 0 .276-.28.276.28 0 0 0-.276-.28zm-1.72 1.15h2.506v.329L7.29 9.12h2.066v.364H6.752v-.33l2.016-2.497H6.801v-.363zm-1.087 1.84a.278.278 0 0 0-.276.28c0 .154.124.28.276.28a.278.278 0 0 0 .276-.28.278.278 0 0 0-.276-.28z"/></svg>