<svg xmlns="http://www.w3.org/2000/svg" width="48" height="48" viewBox="0 0 12.7 12.7"><path fill="#a02c2c" d="M6.344.073a6.29 6.29 0 0 0-6.29 6.29 6.29 6.29 0 0 0 6.29 6.288 6.29 6.29 0 0 0 6.29-6.289 6.29 6.29 0 0 0-6.29-6.29zm-.018.936a5.407 5.407 0 0 1 4.109 1.901H2.212a5.407 5.407 0 0 1 4.114-1.9zM1.608 3.78h1.086a.22.22 0 0 1 .088.019.336.336 0 0 1 .157.17.52.52 0 0 1 .04.197v4.392a.52.52 0 0 1-.04.198.481.481 0 0 1-.041.071.319.319 0 0 1-.116.099c-.027.008-.058.018-.088.018H1.55a5.407 5.407 0 0 1-.307-.698V4.592a5.407 5.407 0 0 1 .365-.812zm2.06.002c.011-.002.021 0 .034 0h7.338a5.407 5.407 0 0 1 .693 2.635 5.407 5.407 0 0 1-.63 2.528H3.701a.224.224 0 0 1-.089-.017.327.327 0 0 1-.156-.17.52.52 0 0 1-.041-.197V4.167a.52.52 0 0 1 .04-.197.326.326 0 0 1 .157-.17.29.29 0 0 1 .054-.019zm4.135.305c-.942 0-1.118 1.342-.588 1.342.53 0 1.53-1.342.588-1.342zM6.3 4.254c-.53.069-.343.99-.06 1.008.282.017.59-1.077.06-1.008zm-5.06.344v3.64a5.407 5.407 0 0 1-.32-1.821 5.407 5.407 0 0 1 .322-1.818zm4.173.018a.274.274 0 0 0-.075.02c-.426.176-.065.902.174.853.224-.046.25-.91-.1-.873zm-.662.568a.199.199 0 0 0-.12.04c-.34.236.115.806.315.717.176-.077.064-.748-.195-.757zm1.947.436c-.73-.013-1.695.354-1.86 1.09-.178.798.734 1.904 1.685 1.904.467 0 1.007-.423 1.108-.958.077-.408-.908-.244-.872.026.042.323-.237.483-.511.275-.873-.665 1.444-.996 1.291-1.904-.047-.282-.402-.426-.84-.433zM2.103 9.79h8.441a5.407 5.407 0 0 1-4.218 2.033 5.407 5.407 0 0 1-4.223-2.032z"/></svg>