<svg xmlns="http://www.w3.org/2000/svg" width="48" height="48" viewBox="0 0 12.7 12.7"><path fill="#a02c2c" d="M6.344.073a6.29 6.29 0 0 0-6.29 6.29 6.29 6.29 0 0 0 6.29 6.288 6.29 6.29 0 0 0 6.29-6.289 6.29 6.29 0 0 0-6.29-6.29zm-.018.936a5.407 5.407 0 0 1 5.407 5.407 5.407 5.407 0 0 1-5.407 5.407A5.407 5.407 0 0 1 .92 6.416 5.407 5.407 0 0 1 6.326 1.01z"/><path fill="#447821" d="M6.35 2.262c-2.538 0-4.59 1.515-4.59 3.39 0 1.875 2.052 3.39 4.59 3.39h.27v1.396c2.646-.917 4.32-2.991 4.32-4.786 0-1.875-2.052-3.39-4.59-3.39zM4.46 4.655h1.62v1.197l-.54.797h-.81l.54-.797h-.81zm2.16 0h1.62v1.197l-.54.797h-.81l.54-.797h-.81z" opacity=".75"/></svg>