<svg xmlns="http://www.w3.org/2000/svg" width="48" height="48" viewBox="0 0 12.7 12.7"><path fill="#a02c2c" d="M6.344.073a6.29 6.29 0 0 0-6.29 6.29 6.29 6.29 0 0 0 6.29 6.288 6.29 6.29 0 0 0 6.29-6.289 6.29 6.29 0 0 0-6.29-6.29zm-.018.936a5.407 5.407 0 0 1 5.407 5.407 5.407 5.407 0 0 1-5.407 5.407A5.407 5.407 0 0 1 .92 6.416 5.407 5.407 0 0 1 6.326 1.01zM5.173 2.181l-2.093.124v.487h.543c.419 0 .487.078.487.565V9.58c0 .453-.125.532-.849.532h-.045v.407h2.862v-.407h-.045c-.735 0-.86-.08-.86-.532V7.962c0-.566.08-1.074.204-1.334.238-.51.746-.86 1.233-.86.294 0 .634.17.804.395.17.25.248.588.248 1.142V9.58c0 .453-.124.532-.86.532h-.045v.407H9.62v-.407h-.045c-.724 0-.849-.08-.849-.532V7.351c0-.815-.034-1.018-.238-1.403-.282-.543-.848-.87-1.527-.87-.724 0-1.279.338-1.788 1.096V2.181z"/></svg>