<svg xmlns="http://www.w3.org/2000/svg" width="48" height="48" version="1"><defs><linearGradient id="a"><stop offset="0" stop-color="#040000"/><stop offset="1" stop-opacity="0"/></linearGradient></defs><path d="M24 .23A23.77 23.77 0 0 0 .23 24.01 23.77 23.77 0 0 0 24 47.77 23.77 23.77 0 0 0 47.77 24 23.77 23.77 0 0 0 24 .23zm-.07 3.54a20.44 20.44 0 0 1 20.44 20.44 20.44 20.44 0 0 1-20.44 20.43A20.44 20.44 0 0 1 3.5 24.21 20.44 20.44 0 0 1 23.93 3.77zm.07 2.5c-.05 0-.09.02-.13.03l-.07.01-.02.01-15.4 6.03a.54.54 0 0 0-.33.63.54.54 0 0 0-.02.15v19.82c0 .2.1.39.29.48l15.42 8.23.08.03.04.01.14.02c.05 0 .1 0 .14-.02l.04-.01.08-.03 15.42-8.23c.18-.1.3-.28.3-.48V13.13l-.03-.15a.54.54 0 0 0-.33-.63L24.2 6.3l-.08-.01-.12-.02zm0 1.14l14.35 5.62L24 19.66 9.65 13.03 24 7.4zM9.12 14l14.33 6.63v19.64L9.12 32.62V13.99zm23.35 10.15v3.11l-6.01 3.09v-3.28l6-2.92z" fill="#a02c2c"/></svg>