<svg xmlns="http://www.w3.org/2000/svg" width="48" height="48" viewBox="0 0 12.7 12.7"><path d="M6.34.07a6.29 6.29 0 0 0-6.29 6.3 6.29 6.29 0 0 0 6.3 6.28 6.29 6.29 0 0 0 6.28-6.29A6.29 6.29 0 0 0 6.34.07zm-.01.94a5.4 5.4 0 0 1 5.4 5.4 5.4 5.4 0 0 1-5.4 5.41 5.4 5.4 0 0 1-5.41-5.4A5.4 5.4 0 0 1 6.32 1zm-.17.91c-.15 0-.29.01-.42.03v.84a3.44 3.44 0 0 1 .84 0v-.85a4.58 4.58 0 0 0-.42-.02zM6.9 2l-.22.82c.28.04.56.11.81.21l.22-.81c-.26-.1-.53-.17-.81-.22zm1.12.34l-.42.73c.26.12.5.26.73.43l.42-.74c-.23-.16-.47-.3-.73-.42zm-2.48.2c-.28.05-.55.12-.81.22l.07.27c.26-.1.54-.17.82-.21l-.08-.27zm-.98.3c-.26.1-.5.25-.73.42l.14.24c.23-.17.47-.3.73-.42l-.14-.25zm4.46.12l-.6.6c.22.18.42.38.6.6l.6-.6a4.5 4.5 0 0 0-.6-.6zm-5.34.4c-.22.18-.42.38-.6.6l.2.2c.18-.22.38-.42.6-.6l-.2-.2zm6.14.47l-.74.42c.17.23.31.47.42.73l.74-.42c-.12-.26-.26-.5-.42-.73zM8.53 4c-.05 0-.1.02-.13.05L6.43 6.02 6.35 6a.37.37 0 1 0 .36.26l1.95-1.95A.19.19 0 0 0 8.53 4zm-5.55.1c-.16.23-.3.47-.42.73l.24.14c.12-.26.26-.5.43-.73l-.25-.14zm7.4.75l-.83.22c.1.26.18.54.22.82l.82-.22a4.47 4.47 0 0 0-.22-.82zM2.47 5c-.1.26-.17.54-.2.82l.27.07c.04-.28.11-.55.21-.82L2.5 5zm-.23 1a3.94 3.94 0 0 0 0 .84h.28a3.65 3.65 0 0 1 0-.84h-.28zm7.54 0a3.7 3.7 0 0 1 0 .84h.84a4.59 4.59 0 0 0 0-.84H9.8zm-7.24.95l-.28.07c.05.28.12.56.22.82l.27-.07c-.1-.27-.17-.54-.21-.82zm7.22 0c-.04.28-.11.56-.22.82l.82.22c.1-.27.17-.54.22-.82l-.82-.22zm-6.96.92L2.56 8c.11.26.26.5.42.73l.25-.14c-.17-.23-.31-.47-.42-.73zm6.7 0c-.1.26-.25.5-.42.73l.74.42c.16-.22.3-.47.42-.73l-.74-.42zm-6.22.82l-.2.2c.18.22.38.42.6.6l.2-.2a3.66 3.66 0 0 1-.6-.6zm5.73 0c-.17.22-.37.42-.6.6l.6.6c.23-.18.43-.38.6-.6l-.6-.6zm-5.04.66l-.43.73c.23.17.48.31.73.43l.43-.74c-.26-.1-.5-.25-.73-.42zm4.36 0c-.23.17-.47.31-.73.43l.42.73c.26-.12.5-.26.73-.42l-.42-.74zm-3.53.47l-.22.82c.26.1.53.17.82.21l.22-.82a3.63 3.63 0 0 1-.82-.21zm2.7 0c-.26.1-.54.17-.82.21l.22.82c.28-.05.55-.12.81-.22l-.22-.81zm-1.77.23v.85a4.56 4.56 0 0 0 .84 0v-.85a3.7 3.7 0 0 1-.84 0z" fill="#a02c2c"/></svg>