<svg xmlns="http://www.w3.org/2000/svg" width="48" height="48" viewBox="0 0 12.7 12.7"><path d="M6.344.072a6.29 6.29 0 0 0-6.29 6.29 6.29 6.29 0 0 0 6.29 6.289 6.29 6.29 0 0 0 6.29-6.29 6.29 6.29 0 0 0-6.29-6.29zm-.018.937a5.407 5.407 0 0 1 5.407 5.407 5.407 5.407 0 0 1-5.407 5.407A5.407 5.407 0 0 1 .92 6.416 5.407 5.407 0 0 1 6.326 1.01zm.156 1.373a.661.661 0 0 0-.661.661.661.661 0 0 0 .53.648v2.416a.397.397 0 0 0-.266.375.397.397 0 0 0 .266.374V9.01a.661.661 0 0 0-.53.647.661.661 0 0 0 .66.661.661.661 0 0 0 .662-.661.661.661 0 0 0-.527-.647V6.856a.397.397 0 0 0 .264-.374.397.397 0 0 0-.264-.374V3.69a.661.661 0 0 0 .527-.647.661.661 0 0 0-.661-.661zM9.26 3.72L9.26 4.778h1.059V3.72H9.26zM2.38 7.953v1.058h1.06V7.953H2.38z" fill="#a02c2c"/><path d="M2.778 8.599c3.572.132 3.837-4.366 7.144-4.233" fill="none" stroke="#a02c2c" stroke-width=".265"/></svg>