<svg xmlns="http://www.w3.org/2000/svg" width="48" height="48" viewBox="0 0 12.7 12.7"><path d="M6.34.07a6.29 6.29 0 0 0-6.29 6.3 6.29 6.29 0 0 0 6.3 6.28 6.29 6.29 0 0 0 6.28-6.29A6.29 6.29 0 0 0 6.34.07zm-1.05 1a4.85 4.85 0 0 0-.69 2.89 3 3 0 0 1 1.72-.55 5.4 5.4 0 0 1 1.41-2.25 5.11 5.11 0 0 1 1.2.47 5.48 5.48 0 0 1 1.49 1.2 4.85 4.85 0 0 0-2.84.86A3 3 0 0 1 8.9 4.9c.79-.14 1.81-.2 2.66.1a5.51 5.51 0 0 1-.05 3l-.06.16c-.4-.86-1.3-1.6-2.16-2.03a3 3 0 0 1 .01.27 3 3 0 0 1-.4 1.5 5.4 5.4 0 0 1 1.25 2.34l-.05.06a5.56 5.56 0 0 1-2.75 1.43 4.9 4.9 0 0 0 .69-2.89 3 3 0 0 1-1.73.56 5.4 5.4 0 0 1-1.4 2.24 5.54 5.54 0 0 1-.71-.24 5.46 5.46 0 0 1-1.98-1.44c.95.08 2.03-.33 2.83-.85A3 3 0 0 1 3.73 7.9a5.4 5.4 0 0 1-2.65-.1 5.43 5.43 0 0 1 .11-3.16c.4.86 1.3 1.59 2.15 2.02a3 3 0 0 1-.01-.26 3 3 0 0 1 .4-1.5A5.4 5.4 0 0 1 2.5 2.56a3.82 3.82 0 0 1 .9-.73 5.45 5.45 0 0 1 1.9-.76z" fill="#a02c2c"/><path d="M5.4 4.86c-.1 0-.18.08-.18.17v2.83c0 .14.14.22.25.15l1.16-.7 1.16-.71c.1-.07.1-.23 0-.3l-1.16-.7-1.16-.72a.16.16 0 0 0-.08-.02z" fill="#fa4b8c"/></svg>
