<svg xmlns="http://www.w3.org/2000/svg" width="48" height="48" viewBox="0 0 12.7 12.7"><path d="M6.34.07a6.29 6.29 0 0 0-6.29 6.3 6.29 6.29 0 0 0 6.3 6.28 6.29 6.29 0 0 0 6.28-6.29A6.29 6.29 0 0 0 6.34.07zM6.32 1l.01.01a5.4 5.4 0 0 1 5.4 5.4 5.4 5.4 0 0 1-5.4 5.41 5.4 5.4 0 0 1-5.41-5.4A5.4 5.4 0 0 1 6.32 1zm1.7 1.65a.8.8 0 0 0-.23.07c-.14.06-.47.11-.73.11-.91.02-1.64.33-2.24.91-.8.8-1.05 1.8-.69 2.72.09.22.14.43.12.49-.02.05-.18.2-.35.32-.36.27-.6.7-.67 1.17-.04.28-.01.42.15.75.34.72 1.12 1.03 1.94.78.48-.15.96-.68 1.35-1.47.33-.69.34-.7.7-.83.6-.2.98-.44 1.35-.82.67-.69.91-1.57.68-2.42-.11-.38-.2-.51-.69-1a4.55 4.55 0 0 1-.68-.78zm-1.42.57c.3 0 .54.08.6.26.02.06-.07.33-.2.6-.33.7-.44 1.09-.64 2.32C6.1 7.94 5.83 8.6 5.28 9c-.35.25-.78.27-1 .05a.61.61 0 0 1-.17-.69c.08-.2.15-.23.68-.3.36-.05.7-.3.7-.62 0-.2-.16-.31-.45-.6a1.9 1.9 0 0 1-.64-1.42c0-.85.44-1.57 1.18-1.95.34-.17.71-.26 1.02-.25zm.88.57c.1-.02.22.09.4.3.68.84.6 2.11-.17 2.85-.33.3-.4.33-.63.16-.14-.1-.16-.19-.16-.54 0-.55.18-1.88.32-2.39.07-.24.14-.37.24-.38z" fill="#a02c2c"/></svg>
