<svg xmlns="http://www.w3.org/2000/svg" width="48" height="48" viewBox="0 0 12.7 12.7"><path fill="#a02c2c" d="M6.344.077A6.267 6.267 0 0 0 .076 6.344a6.267 6.267 0 0 0 6.268 6.267 6.267 6.267 0 0 0 6.267-6.267A6.267 6.267 0 0 0 6.344.077zm-.018.932a5.388 5.388 0 0 1 5.388 5.39 5.388 5.388 0 0 1-5.388 5.387A5.388 5.388 0 0 1 .937 6.398a5.388 5.388 0 0 1 5.39-5.389zM3.344 2.48v.526h.785V2.48zm2.623 0v1.565h.784V2.48zm2.622 0v3.923h.784V2.48zm-6.01.728v1.457h2.295V3.208zm2.623 1.165v1.458h2.294V4.373zm-1.858.624v5.495h.785V4.997zM5.967 6.13v4.36h.784V6.13zm1.857.573V8.16h2.295V6.704zm.765 1.78v2.008h.784V8.485z"/></svg>