<svg xmlns="http://www.w3.org/2000/svg" width="48" height="48" viewBox="0 0 12.7 12.7"><path fill="#a02c2c" d="M6.34.07a6.29 6.29 0 0 0-6.29 6.3 6.29 6.29 0 0 0 6.3 6.28 6.29 6.29 0 0 0 6.28-6.29A6.29 6.29 0 0 0 6.34.07zm-.01.94a5.4 5.4 0 0 1 5.4 5.4 5.4 5.4 0 0 1-5.4 5.41 5.4 5.4 0 0 1-5.41-5.4A5.4 5.4 0 0 1 6.32 1zM5.07 2.68a.34.34 0 0 0-.34.35v2.21H2.85a.34.34 0 0 0-.34.34v4.1a.34.34 0 0 0 .34.34h4.78a.34.34 0 0 0 .34-.34V7.47l1.88-.01a.34.34 0 0 0 .34-.34v-4.1a.34.34 0 0 0-.34-.34H5.07zm0 1.11h4.77c.05 0 .1.04.1.09v3.24a.09.09 0 0 1-.1.08H7.97V5.59a.34.34 0 0 0-.34-.34H4.97l.02-1.36c0-.05.03-.09.08-.09zM2.85 6.35h4.78c.05 0 .08.04.08.09v3.23a.09.09 0 0 1-.08.09H2.86a.09.09 0 0 1-.1-.08V6.44c0-.05.05-.09.1-.09z"/></svg>