<svg xmlns="http://www.w3.org/2000/svg" width="48" height="48" viewBox="0 0 12.7 12.7"><path d="M6.34.07a6.29 6.29 0 0 0-6.29 6.3 6.29 6.29 0 0 0 6.3 6.28 6.29 6.29 0 0 0 6.28-6.29A6.29 6.29 0 0 0 6.34.07zm-.01.94a5.4 5.4 0 0 1 5.4 5.4 5.4 5.4 0 0 1-5.4 5.41 5.4 5.4 0 0 1-5.41-5.4A5.4 5.4 0 0 1 6.32 1zM3.4 2.87c-.2 0-.36.18-.36.4v.8c0 .22.16.4.36.4h5.9c.2 0 .36-.18.36-.4v-.8c0-.22-.16-.4-.36-.4H3.4zm.19.24h3.75v1.1H3.59c-.18 0-.33-.13-.33-.28v-.55c0-.15.15-.27.33-.27zm4.28.19h1.2l-.6.8-.6-.8zm.6 1.95a1.06 1.06 0 1 0 0 2.13 1.06 1.06 0 0 0 0-2.13zm-4.93 0c-.38-.01-.37.3-.37.3V7c-.02.35.3.36.3.36h1.5s.34.02.33-.35v-1.4c0-.35-.37-.35-.37-.35h-1.4zm1.33.58c.03 0 .06.02.09.04l.02.03c.04.05.04.13-.02.18l-.8.69a.13.13 0 0 1-.1.03.13.13 0 0 1-.09-.04L3.5 6.3a.13.13 0 0 1 0-.2l.01-.01a.14.14 0 0 1 .2 0l.37.37.7-.6a.13.13 0 0 1 .09-.03zm4.23 0c.03 0 .07.02.09.04l.02.03c.05.05.04.13-.01.18l-.8.69a.13.13 0 0 1-.1.03.13.13 0 0 1-.1-.04l-.47-.46a.13.13 0 0 1 0-.2l.02-.01a.14.14 0 0 1 .19 0l.38.37.69-.6a.13.13 0 0 1 .09-.03zM8.47 7.9a1.06 1.06 0 1 0 0 2.12 1.06 1.06 0 0 0 0-2.12zm-4.93 0c-.38-.02-.37.3-.37.3v1.45c-.02.36.3.37.3.37h1.5s.34.02.33-.35V8.25c.01-.34-.37-.34-.37-.34l-1.4-.01zm4.93.26a.8.8 0 1 1 0 1.6.8.8 0 0 1 0-1.6zm-4.76 0l1.05.01s.28 0 .27.26v1.06c.02.28-.24.27-.24.27H3.66s-.24-.01-.23-.28v-1.1s0-.23.28-.22z" fill="#a02c2c"/></svg>
