<svg xmlns="http://www.w3.org/2000/svg" width="48" height="48" viewBox="0 0 12.7 12.7"><path d="M6.351.06L6.35.061a6.29 6.29 0 0 0-6.289 6.29 6.29 6.29 0 0 0 6.29 6.288 6.29 6.29 0 0 0 6.288-6.288A6.29 6.29 0 0 0 6.351.06zm-.019.9368a5.407 5.407 0 0 1 5.4068 5.407 5.407 5.407 0 0 1-5.4069 5.4074A5.407 5.407 0 0 1 .925 6.4037 5.407 5.407 0 0 1 6.332.9968zm-.367.5426A1.003 1.003 0 0 0 4.9625 2.542c0 .3458.1787.6486.4454.8289v.1741H3.1802a.4448.4448 0 0 0-.446.4455v2.1652c.1838-.2306.4623-.383.7798-.383.5535 0 1.003.4491 1.003 1.0026 0 .5535-.4495 1.003-1.003 1.003-.3175 0-.596-.1528-.7798-.3834v2.1658c0 .2466.1991.446.446.446h2.1652c-.2306-.1841-.383-.4626-.383-.7799 0-.5537.4494-1.003 1.0026-1.003.5537 0 1.0025.4493 1.0025 1.003 0 .3173-.1523.5958-.3829.7798h2.1658a.445.445 0 0 0 .4454-.446V7.333H9.37c.1804.2665.4823.4454.8283.4454.5535 0 1.0026-.4493 1.0026-1.0025 0-.5537-.4491-1.0025-1.0026-1.0025-.346 0-.648.1785-.8283.4454h-.1742V3.9905a.4442.4442 0 0 0-.4454-.4455H6.522v-.1741c.2667-.1805.4454-.483.4454-.829 0-.5534-.449-1.0025-1.0025-1.0025z" fill="#a02c2c"/></svg>