<svg xmlns="http://www.w3.org/2000/svg" width="48" height="48" viewBox="0 0 12.7 12.7"><path d="M6.34.07a6.29 6.29 0 0 0-6.29 6.3 6.29 6.29 0 0 0 6.3 6.28 6.29 6.29 0 0 0 6.28-6.29A6.29 6.29 0 0 0 6.34.07zM6.32 1l.01.01a5.4 5.4 0 0 1 5.4 5.4 5.4 5.4 0 0 1-5.4 5.41 5.4 5.4 0 0 1-5.41-5.4A5.4 5.4 0 0 1 6.32 1zM2.91 2.91v2.58h2.58V2.91H2.91zm3.01 0v.43h.43v-.43h-.43zm.43.43v.43h-.43v.86h.43V4.2h.43v-.86h-.43zm0 1.29v.86h.43v-.86h-.43zm0 .86h-.43v.43h.43v-.43zm0 .43v.43h.43v-.43h-.43zm.43.43v.43h.86v-.86h-.43v.43h-.43zm.86.43v.43h.43v.43h.43v-.86h-.86zm0 .43h-.43v.43h.43v-.43zm-.43.43h-.43v.43h.43v-.43zm0 .43v.43h.43v-.43h-.43zm.43.43v.43h.43V8.5h-.43zm.43 0h.86v-.43h-.86v.43zm.86 0v1.29h.43v-.43h.43v-.43h-.43V8.5h-.43zm-.86.43v.86h.43v-.86h-.43zm-.43 0h-.86v.86h.86v-.86zm-.86 0v-.86h-.86v.43h.43v.43h.43zm-.43 0h-.43v.86h.43v-.86zm.43-1.29v-.86h-.86v.43h.43v.43h.43zm-.86-.86v-.86h-.43v.43h-.43v.43h.86zm-.86-.43v-.43H4.2v.43h.86zm-.86 0h-.43v-.43h-.86v.86H4.2v-.43zm3.01-3.44v2.58h2.58V2.91H7.21zm-3.87.43h1.72v1.72H3.34V3.34zm4.3 0h1.72v1.72H7.64V3.34zm-3.87.43v.86h.86v-.86h-.86zm4.3 0v.86h.86v-.86h-.86zm0 2.15v.43h.86v.43h.86v-.43h-.43v-.43H8.07zM2.91 7.21v2.58h2.58V7.21H2.91zm6.02 0v.43h.43v.43h.43v-.86h-.86zm-5.59.43h1.72v1.72H3.34V7.64zm.43.43v.86h.86v-.86h-.86z" fill="#a02c2c"/></svg>
