<svg xmlns="http://www.w3.org/2000/svg" width="48" height="48" viewBox="0 0 12.7 12.7"><path d="M6.34.07a6.29 6.29 0 0 0-6.29 6.3 6.29 6.29 0 0 0 6.3 6.28 6.29 6.29 0 0 0 1.53-.2 3.3 3.3 0 0 1-.25-.15 3.3 3.3 0 0 1-.26-.2 3.3 3.3 0 0 1-.24-.22 3.3 3.3 0 0 1-.1-.11 5.4 5.4 0 0 1-.7.05 5.4 5.4 0 0 1-5.41-5.4A5.4 5.4 0 0 1 6.32 1a5.4 5.4 0 0 1 5.41 5.4 5.4 5.4 0 0 1-.05.72 3.3 3.3 0 0 1 .17.16 3.3 3.3 0 0 1 .22.25 3.3 3.3 0 0 1 .2.26 3.3 3.3 0 0 1 .13.25 6.29 6.29 0 0 0 .23-1.69A6.29 6.29 0 0 0 6.34.07zm-1.96 2.4c-.42 0-.78.07-1.1.2a2.03 2.03 0 0 0-1.22 1.38 3.94 3.94 0 0 0-.03 2.1c.07.3.2.56.36.79a2.05 2.05 0 0 0 1.46.86c.02.3.1.57.2.78a1.7 1.7 0 0 0 1.02.85c.2.06.42.1.64.1h.52V9.1h-.11c-.12 0-.24-.02-.36-.06a.78.78 0 0 1-.32-.2c-.1-.1-.18-.24-.24-.41-.07-.17-.11-.4-.13-.66a2.14 2.14 0 0 0 1.32-.9c.15-.22.26-.48.33-.77a3.61 3.61 0 0 0-.04-2.04 2.3 2.3 0 0 0-.47-.85 2.18 2.18 0 0 0-.78-.54c-.3-.13-.65-.2-1.05-.2zm0 .48a1.05 1.05 0 0 1 .96.58c.1.2.17.42.21.7a5.78 5.78 0 0 1 0 1.86c-.04.28-.11.5-.21.7a1.05 1.05 0 0 1-.96.58c-.23 0-.42-.05-.58-.15-.16-.1-.29-.24-.39-.43a2.3 2.3 0 0 1-.21-.7 5.79 5.79 0 0 1 0-1.87c.04-.27.11-.5.21-.69a1.07 1.07 0 0 1 .97-.58zm3.61 0a1.5 1.5 0 0 1-.33.73.93.93 0 0 1-.72.3v.38h.55v2.33c0 .1.02.17.03.26a3.3 3.3 0 0 1 .19-.14A3.3 3.3 0 0 1 8 6.65a3.3 3.3 0 0 1 .3-.14 3.3 3.3 0 0 1 .3-.1V4.36h.93v-.5H8.6v-.9H8zm1.5 3.74a2.91 2.91 0 0 0-2.91 2.9 2.91 2.91 0 0 0 2.9 2.92A2.91 2.91 0 0 0 12.4 9.6a2.91 2.91 0 0 0-2.91-2.91zm0 1.09c.57 0 1.04.46 1.04 1.04 0 .23-.1.43-.25.58l-.23.24a.88.88 0 0 0-.3.74h-.52v-.13c0-.29.11-.55.3-.74l.32-.33a.5.5 0 0 0 .16-.36.52.52 0 0 0-.52-.52.52.52 0 0 0-.52.52h-.52c0-.58.46-1.04 1.04-1.04zm-.26 3.12h.52v.52h-.52v-.52z" fill="#a02c2c"/></svg>