<svg xmlns="http://www.w3.org/2000/svg" width="48" height="48" viewBox="0 0 12.7 12.7"><path d="M6.35.083A6.267 6.267 0 0 0 .084 6.35a6.267 6.267 0 0 0 6.268 6.267 6.267 6.267 0 0 0 6.266-6.267A6.267 6.267 0 0 0 6.351.083zm-.017.932a5.388 5.388 0 0 1 5.388 5.39 5.388 5.388 0 0 1-5.388 5.387 5.388 5.388 0 0 1-5.39-5.388 5.388 5.388 0 0 1 5.39-5.389zm.393 1.178A4.158 4.158 0 0 0 2.874 4.79h-.825l-.52 1.04h1.077a4.176 4.176 0 0 0-.038.519L2.05 7.39h.657a4.158 4.158 0 0 0 4.02 3.117 4.157 4.157 0 0 0 3.245-1.559H8.447c-.51.339-1.109.52-1.72.52A3.118 3.118 0 0 1 3.79 7.39h3.456l.52-1.039H3.607c0-.174.016-.348.047-.52h4.11l.52-1.04H4.029a3.119 3.119 0 0 1 2.697-1.558c.612 0 1.21.182 1.72.52h1.52a4.157 4.157 0 0 0-3.24-1.56z" fill="#a02c2c"/></svg>