<svg xmlns="http://www.w3.org/2000/svg" width="48" height="48" viewBox="0 0 12.7 12.7"><path d="M6.34.07a6.29 6.29 0 0 0-6.29 6.3 6.29 6.29 0 0 0 6.3 6.28 6.29 6.29 0 0 0 6.28-6.29A6.29 6.29 0 0 0 6.34.07zM6.32 1l.01.01a5.4 5.4 0 0 1 5.4 5.4 5.4 5.4 0 0 1-5.4 5.41 5.4 5.4 0 0 1-5.41-5.4A5.4 5.4 0 0 1 6.32 1zm.03.86c-2.49 0-4.49 2-4.49 4.5 0 1.54.78 2.9 1.95 3.7l.4-.57a3.8 3.8 0 0 1-1.64-2.83H3.6v-.62H2.57c.06-.8.37-1.54.86-2.12l.77.77.43-.44-.77-.77c.6-.52 1.36-.86 2.2-.92v1.08h.62V2.56c.84.08 1.6.42 2.2.95l-.75.74.43.44.74-.74c.47.58.77 1.3.83 2.1H9.05v.6h1.08A3.8 3.8 0 0 1 8.5 9.5l.4.58a4.49 4.49 0 0 0-2.54-8.21zm0 3.8a.7.7 0 1 0 .4 1.25l1.8 1.52a.17.17 0 0 0 .24-.02.17.17 0 0 0-.02-.24l-1.8-1.52a.69.69 0 0 0-.62-.99z" fill="#a02c2c"/></svg>