<svg xmlns="http://www.w3.org/2000/svg" width="48" height="48" version="1"><defs><linearGradient id="a"><stop offset="0" stop-color="#040000"/><stop offset="1" stop-opacity="0"/></linearGradient></defs><path d="M24 .23A23.77 23.77 0 0 0 .23 24.01 23.77 23.77 0 0 0 24 47.77 23.77 23.77 0 0 0 47.77 24 23.77 23.77 0 0 0 24 .23zm-.07 3.54a20.44 20.44 0 0 1 20.44 20.44 20.44 20.44 0 0 1-20.44 20.43A20.44 20.44 0 0 1 3.5 24.21 20.44 20.44 0 0 1 23.93 3.77zm0 3A17.44 17.44 0 0 0 6.5 24.22a17.44 17.44 0 0 0 17.43 17.44A17.44 17.44 0 0 0 41.37 24.2 17.44 17.44 0 0 0 23.93 6.77zm-.64 6.56h.43c1.15 0 2.2.47 3.12 1.4-.25.21-.43.32-.56.32a3.87 3.87 0 0 0-2.67-1.09h-.1c-1.66 0-2.9.82-3.72 2.45-.21.47-.32 1-.32 1.58v.1c0 1.55.8 2.75 2.39 3.62a4.06 4.06 0 0 0 4.42-.73h.1l.46.24v.07a4.45 4.45 0 0 1-3.3 1.4h-.07c-1.6 0-2.93-.75-3.96-2.24a4.48 4.48 0 0 1-.67-2.24v-.43c0-1.4.68-2.61 2.03-3.64.81-.54 1.62-.81 2.42-.81zm-8.56.1l.04.03v.74c-.96.69-1.54 1.31-1.74 1.86h4.5l.07.07v.62l-.07.07h-4.86c-.13.49-.2.92-.2 1.3v.28c0 1.43.67 2.69 2.02 3.76l-.36.53c-.63-.26-1.24-.92-1.83-1.98-.4-.85-.6-1.66-.6-2.43.03-.47.1-.95.2-1.46h-1.05l-.08-.07v-.62l.08-.07h1.3a5.92 5.92 0 0 1 2.58-2.63zM10.38 24.5h19.75c.15 0 .28.13.28.29 0 .15-.13.28-.28.28H10.38a.28.28 0 0 1-.29-.28c0-.16.13-.29.29-.29z" fill="#a02c2c"/></svg>