<svg xmlns="http://www.w3.org/2000/svg" width="48" height="48" viewBox="0 0 12.7 12.7"><path d="M6.34.07a6.29 6.29 0 0 0-6.29 6.3 6.29 6.29 0 0 0 6.3 6.28 6.29 6.29 0 0 0 6.28-6.29A6.29 6.29 0 0 0 6.34.07zm-.01.94a5.4 5.4 0 0 1 5.4 5.4 5.4 5.4 0 0 1-5.4 5.41 5.4 5.4 0 0 1-4.66-2.66l.95.44a.5.5 0 0 0 .42 0l4.5-2.53c.5-.21.36-.95-.18-.97a.5.5 0 0 0-.22.04L2.84 8.6 1.1 7.77a5.4 5.4 0 0 1-.17-.99l1.7.8a.5.5 0 0 0 .4 0l4.51-2.54c.5-.21.36-.95-.18-.97a.5.5 0 0 0-.22.04l-4.3 2.45-1.86-.87a5.4 5.4 0 0 1 .17-.83l1.47.69a.5.5 0 0 0 .42 0L7.54 3c.5-.21.36-.95-.18-.97a.5.5 0 0 0-.22.05l-4.3 2.44-1.3-.61A5.4 5.4 0 0 1 6.33 1z" fill="#a02c2c"/></svg>