<svg xmlns="http://www.w3.org/2000/svg" width="48" height="48" viewBox="0 0 12.7 12.7"><path fill="#a02c2c" d="M6.344.073a6.29 6.29 0 0 0-6.29 6.29 6.29 6.29 0 0 0 6.29 6.288 6.29 6.29 0 0 0 6.29-6.289 6.29 6.29 0 0 0-6.29-6.29zm-.018.936a5.407 5.407 0 0 1 4.109 1.901H2.212a5.407 5.407 0 0 1 4.114-1.9zM1.608 3.78h1.086a.22.22 0 0 1 .088.019.336.336 0 0 1 .157.17.52.52 0 0 1 .04.197v4.392a.52.52 0 0 1-.04.198.481.481 0 0 1-.041.071.319.319 0 0 1-.116.099c-.027.008-.058.018-.088.018H1.55a5.407 5.407 0 0 1-.307-.698V4.592a5.407 5.407 0 0 1 .365-.812zm2.06.002c.011-.002.021 0 .034 0h7.338a5.407 5.407 0 0 1 .693 2.635 5.407 5.407 0 0 1-.63 2.528H3.701a.224.224 0 0 1-.089-.017.327.327 0 0 1-.156-.17.52.52 0 0 1-.041-.197V4.253c.005.008.012.014.022.014.016 0 .022-.011.013-.026-.016-.027-.029-.027-.035-.013v-.06a.52.52 0 0 1 .04-.198.326.326 0 0 1 .157-.17.29.29 0 0 1 .054-.019zm-.09.547c-.005.003-.004.01.003.022.025.043.308.203.714.403.627.31 1.177.68 1.517 1.022.104.106.19.204.189.219a.64.64 0 0 1-.08.15 1.929 1.929 0 0 0-.152.308c-.063.166-.072.233-.083.61l-.013.423-.085.086c-.146.147-.207.236-.208.303-.003.092.048.102.214.045.08-.024.155-.047.167-.035.034.023.024.102-.04.318a.755.755 0 0 0-.045.24c.008.024.023.043.032.043.01 0 .147-.101.305-.227.157-.124.315-.247.349-.272.06-.045.076-.044.417.035.34.075.384.084 1.005.087.356.003.722-.007.811-.022l.163-.027.306.142c.412.191.634.272.694.255.125-.036.087-.182-.115-.445-.155-.204-.125-.227.179-.134.298.091.396.107.42.069.039-.058-.006-.152-.164-.344-.266-.325-.252-.4.105-.565.473-.218.84-.425.993-.56.13-.114.153-.147.156-.23.01-.366-.336-.597-1.196-.798a2.839 2.839 0 0 1-.338-.09c-.013-.008-.03-.11-.037-.225-.024-.401-.093-.56-.259-.597-.071-.017-.1-.007-.166.055-.107.101-.137.285-.084.507.05.215.05.243.003.242-.022 0-.087-.096-.149-.218-.167-.336-.262-.419-.402-.35-.122.061-.18.33-.122.567.023.092.015.116-.098.307l-.122.207-.225.001c-.157.002-.38-.028-.737-.098-.694-.134-.79-.138-1.01-.035-.096.045-.188.075-.204.062a7.938 7.938 0 0 1-.277-.24c-.484-.432-.812-.626-1.444-.855a8.184 8.184 0 0 1-.639-.26c-.16-.078-.233-.109-.248-.1zm-2.337.27v3.64a5.407 5.407 0 0 1-.322-1.822 5.407 5.407 0 0 1 .322-1.818zm10.154.524c-.009 0-.023.008-.043.024-.052.04-.215.356-.216.42 0 .066.07-.023.193-.245.07-.13.093-.2.066-.199zm-.379.123c-.03 0-.061.088-.065.186-.003.094.044.037.07-.085.014-.061.012-.1-.005-.1zm-1.083.443c.058-.005.095.05.084.143-.009.082-.022.102-.079.105-.132.011-.182-.15-.07-.223a.14.14 0 0 1 .065-.025zm-.314.218c.006-.013.034.006.08.067a.28.28 0 0 0 .128.086c.044.012.08.031.08.045 0 .01-.044.023-.096.022-.078-.002-.103-.019-.145-.092-.04-.07-.054-.115-.047-.128zm.649.506c.026-.002.034.01.033.035 0 .02-.062.062-.136.09v.002c-.254.1-.288.032-.038-.077a.56.56 0 0 1 .14-.05zm.108.177c.032.013.028.075-.024.127-.09.09-.218.154-.239.118-.018-.031.131-.194.218-.238a.06.06 0 0 1 .045-.007zM2.103 9.791h8.441a5.407 5.407 0 0 1-4.218 2.032 5.407 5.407 0 0 1-4.223-2.032z"/></svg>