<?xml version="1.0" encoding="UTF-8" standalone="no"?>
<svg
   xmlns:dc="http://purl.org/dc/elements/1.1/"
   xmlns:cc="http://creativecommons.org/ns#"
   xmlns:rdf="http://www.w3.org/1999/02/22-rdf-syntax-ns#"
   xmlns:svg="http://www.w3.org/2000/svg"
   xmlns="http://www.w3.org/2000/svg"
   xmlns:sodipodi="http://sodipodi.sourceforge.net/DTD/sodipodi-0.dtd"
   xmlns:inkscape="http://www.inkscape.org/namespaces/inkscape"
   width="48"
   height="48"
   viewBox="0 0 12.7 12.7"
   version="1.1"
   id="svg6"
   sodipodi:docname="application-x-stuffit.svg"
   inkscape:version="0.92.5 (2060ec1f9f, 2020-04-08)">
  <metadata
     id="metadata12">
    <rdf:RDF>
      <cc:Work
         rdf:about="">
        <dc:format>image/svg+xml</dc:format>
        <dc:type
           rdf:resource="http://purl.org/dc/dcmitype/StillImage" />
        <dc:title></dc:title>
      </cc:Work>
    </rdf:RDF>
  </metadata>
  <defs
     id="defs10" />
  <sodipodi:namedview
     pagecolor="#ffffff"
     bordercolor="#666666"
     borderopacity="1"
     objecttolerance="10"
     gridtolerance="10"
     guidetolerance="10"
     inkscape:pageopacity="0"
     inkscape:pageshadow="2"
     inkscape:window-width="1087"
     inkscape:window-height="480"
     id="namedview8"
     showgrid="false"
     inkscape:zoom="4.9166667"
     inkscape:cx="2.1355932"
     inkscape:cy="24"
     inkscape:window-x="0"
     inkscape:window-y="25"
     inkscape:window-maximized="0"
     inkscape:current-layer="svg6" />
  <path
     style="fill:#ff78cb;stroke-width:1"
     d="M 1.3229166,0.79374999 0.26510009,3.4401 H 6.0848999 V 0.79374999 Z m 5.2921834,0 V 3.4401 h 5.8198 L 11.377084,0.79374999 Z M 0.26510009,3.96875 v 6.35 c 0,1.172 0.94414991,2.11615 2.11614991,2.11615 h 7.9375 a 2.112,2.112 0 0 0 2.11615,-2.11615 v -6.35 h -0.792716 v 6.35 A 1.32,1.32 0 0 1 10.31875,11.642183 H 2.3802165 A 1.32,1.32 0 0 1 1.056783,10.31875 v -6.35 z M 1.8531169,4.9769572 V 6.0368407 H 2.1332031 V 7.0972412 H 2.6628865 V 6.0368407 H 2.922819 V 4.9769572 Z m 1.3198162,0.050126 V 5.5567667 H 3.7031332 V 5.0270833 Z M 3.7031332,5.5567667 V 6.0869668 H 4.2328166 V 5.5567667 Z m 0.5296834,0 H 4.7630167 V 5.0270833 H 4.2328166 Z m 0.5302001,0 V 6.0869668 H 5.2932168 V 5.5567667 Z m 0.5302001,0 h 0.519865 V 5.0270833 h -0.519865 z m 0.519865,0 V 6.0869668 H 6.3427652 V 5.5567667 Z m 0.5296834,0 H 6.8729653 V 5.0270833 H 6.3427652 Z m 0.5302001,0 V 6.0869668 H 7.4031657 V 5.5567667 Z m 0.5302004,0 H 7.9328491 V 5.0270833 H 7.4031657 Z m 0.5296834,0 V 6.0869668 H 8.4630492 V 5.5567667 Z m 0.5302001,0 H 8.9932493 V 5.0270833 H 8.4630492 Z m 0.5302001,0 V 6.0869668 H 9.522933 V 5.5567667 Z m 0.5296837,0 h 0.5302 V 5.0270833 h -0.5302 z m 0.5302,0 v 0.5302001 h 0.529684 V 5.5567667 Z m 0.529684,0 h 0.5302 V 5.0270833 h -0.5302 z M 2.1228678,5.2472248 H 2.6530681 V 5.7769082 H 2.1228678 Z m 2.3001181,2.2996014 v 0.010335 z m 1.8768879,0.8831501 v 0.3999756 h 0.429948 V 8.4299763 Z m 0.8800497,0 V 9.0201212 H 7.0000894 V 9.399943 h 0.199988 v 1.380278 H 7.6300253 V 9.399943 H 7.8801391 V 9.0299396 H 7.6300253 V 8.4299763 H 7.2000774 Z M 5.3898519,8.9699951 v 0.00982 c -0.32,0 -0.5798097,0.2302002 -0.5798095,0.5302001 0,0.2600002 0.1398924,0.3998651 0.4898925,0.5198658 0.1599999,0.06 0.1701416,0.07025 0.2201415,0.100252 0.05,0.03 0.080099,0.07971 0.080099,0.129708 0,0.1 -0.089988,0.170015 -0.1999879,0.170015 -0.1199999,0 -0.18996,-0.05981 -0.22996,-0.209806 H 4.7500976 c 0.02,0.17 0.040071,0.259849 0.1100709,0.349849 A 0.65999999,0.65999999 0 0 0 5.3898519,10.820011 0.59999998,0.59999998 0 0 0 6.0197875,10.220048 0.44999999,0.44999999 0 0 0 5.8497721,9.8500447 0.93999999,0.93999999 0 0 0 5.5298951,9.7100016 L 5.3200887,9.6299029 c -0.06,-0.02 -0.089917,-0.059889 -0.089917,-0.1198893 0,-0.08 0.06968,-0.1400429 0.1596803,-0.1400431 0.1000001,0 0.1500153,0.040043 0.1700154,0.1400431 H 5.9701781 A 0.47000001,0.47000001 0 0 0 5.8399537,9.1699828 0.59999998,0.59999998 0 0 0 5.3898519,8.9699951 Z m 0.9100219,0.050126 v 1.7600999 h 0.429948 V 9.0201212 Z"
     id="path2"
     inkscape:connector-curvature="0" />
</svg>
