<?xml version="1.0" encoding="UTF-8" standalone="no"?>
<svg
   xmlns:dc="http://purl.org/dc/elements/1.1/"
   xmlns:cc="http://creativecommons.org/ns#"
   xmlns:rdf="http://www.w3.org/1999/02/22-rdf-syntax-ns#"
   xmlns:svg="http://www.w3.org/2000/svg"
   xmlns="http://www.w3.org/2000/svg"
   xmlns:sodipodi="http://sodipodi.sourceforge.net/DTD/sodipodi-0.dtd"
   xmlns:inkscape="http://www.inkscape.org/namespaces/inkscape"
   width="48"
   height="48"
   version="1.1"
   id="svg4"
   sodipodi:docname="application-x-love-game.svg"
   inkscape:version="0.92.4 (5da689c313, 2019-01-14)">
  <metadata
     id="metadata10">
    <rdf:RDF>
      <cc:Work
         rdf:about="">
        <dc:format>image/svg+xml</dc:format>
        <dc:type
           rdf:resource="http://purl.org/dc/dcmitype/StillImage" />
        <dc:title></dc:title>
      </cc:Work>
    </rdf:RDF>
  </metadata>
  <defs
     id="defs8" />
  <sodipodi:namedview
     pagecolor="#ffffff"
     bordercolor="#666666"
     borderopacity="1"
     objecttolerance="10"
     gridtolerance="10"
     guidetolerance="10"
     inkscape:pageopacity="0"
     inkscape:pageshadow="2"
     inkscape:window-width="1136"
     inkscape:window-height="480"
     id="namedview6"
     showgrid="false"
     inkscape:zoom="4.9166667"
     inkscape:cx="2.1355932"
     inkscape:cy="24"
     inkscape:window-x="0"
     inkscape:window-y="25"
     inkscape:window-maximized="0"
     inkscape:current-layer="svg4" />
  <path
     d="m 29.705,-0.083984 c -2.047,0.008 -4.1216,0.087656 -4.5176,0.097656 H 6.9994 a 2.938,2.938 0 0 0 -0.5625,0 c -1.373,0.262 -2.4625,1.598 -2.4375,2.998 v 41.988 c 0,1.57 1.43,3 3,3 h 34 c 1.57,0 3,-1.43 3,-3 v -26.182 c 0.018,-0.792 0.21506,-9.9271 -0.33594,-10.496 l -9.6094,-8.0742 c -0.281,-0.275 -2.3026,-0.34003 -4.3496,-0.33203 z m 1.4902,3.0937 0.13281,7.5039 c 0.012,0.68 0.63741,1.2903 1.3164,1.2793 l 7.7715,-0.13672 c 0.133,0.018 0.26839,0.01814 0.40039,-0.0059 l 0.08203,3.0293 0.10156,4.0898 v 26.227 h -34 v -41.975 h 18.672 l 5.5234,-0.011719 z m -11.152,14.996 c -0.44356,-0.02407 -0.92027,0.0175 -1.4297,0.14062 -4.0741,0.9852 -12.582,9.3909 5.3867,19.85 17.969,-10.459 9.4611,-18.864 5.3867,-19.85 -2.753,-0.66543 -4.5172,1.0794 -5.3867,2.291 -0.70872,-0.9874 -2.0035,-2.3256 -3.957,-2.4316 z m 3.957,19.99 c -0.0026,0.0015 -0.0052,0.0024 -0.0078,0.0039 h 0.01562 c -0.0026,-0.0015 -0.0052,-0.0024 -0.0078,-0.0039 z"
     id="path2"
     inkscape:connector-curvature="0"
     style="fill:#ff78cb" />
</svg>
