<?xml version="1.0" encoding="UTF-8" standalone="no"?>
<svg
   xmlns:dc="http://purl.org/dc/elements/1.1/"
   xmlns:cc="http://creativecommons.org/ns#"
   xmlns:rdf="http://www.w3.org/1999/02/22-rdf-syntax-ns#"
   xmlns:svg="http://www.w3.org/2000/svg"
   xmlns="http://www.w3.org/2000/svg"
   xmlns:sodipodi="http://sodipodi.sourceforge.net/DTD/sodipodi-0.dtd"
   xmlns:inkscape="http://www.inkscape.org/namespaces/inkscape"
   width="48"
   height="48"
   version="1.1"
   id="svg35"
   sodipodi:docname="image-x-ico.svg"
   inkscape:version="0.92.4 (5da689c313, 2019-01-14)">
  <metadata
     id="metadata39">
    <rdf:RDF>
      <cc:Work
         rdf:about="">
        <dc:format>image/svg+xml</dc:format>
        <dc:type
           rdf:resource="http://purl.org/dc/dcmitype/StillImage" />
        <dc:title></dc:title>
      </cc:Work>
    </rdf:RDF>
  </metadata>
  <sodipodi:namedview
     pagecolor="#ffffff"
     bordercolor="#666666"
     borderopacity="1"
     objecttolerance="10"
     gridtolerance="10"
     guidetolerance="10"
     inkscape:pageopacity="0"
     inkscape:pageshadow="2"
     inkscape:window-width="1087"
     inkscape:window-height="480"
     id="namedview37"
     showgrid="false"
     inkscape:zoom="4.9166667"
     inkscape:cx="2.1355932"
     inkscape:cy="24"
     inkscape:window-x="0"
     inkscape:window-y="25"
     inkscape:window-maximized="0"
     inkscape:current-layer="svg35" />
  <defs
     id="defs31">
    <linearGradient
       id="a">
      <stop
         offset="0"
         stop-color="#dc85e9"
         id="stop2" />
      <stop
         offset="1"
         stop-color="#f2cbf8"
         id="stop4" />
    </linearGradient>
    <linearGradient
       id="b">
      <stop
         offset="0"
         stop-color="#dc85e9"
         id="stop7" />
      <stop
         offset="1"
         stop-color="#f2cbf8"
         id="stop9" />
    </linearGradient>
    <linearGradient
       id="c">
      <stop
         offset="0"
         stop-color="#fff"
         stop-opacity=".588"
         id="stop12" />
      <stop
         offset="1"
         stop-color="#fff"
         stop-opacity=".863"
         id="stop14" />
    </linearGradient>
    <linearGradient
       id="d">
      <stop
         offset="0"
         stop-color="#b3b3b3"
         id="stop17" />
      <stop
         offset="1"
         stop-color="#e6e6e6"
         id="stop19" />
    </linearGradient>
    <linearGradient
       id="e">
      <stop
         offset="0"
         stop-color="#e694bb"
         id="stop22" />
      <stop
         offset=".262"
         stop-color="#d3819a"
         id="stop24" />
      <stop
         offset=".705"
         stop-color="#b25a64"
         id="stop26" />
      <stop
         offset="1"
         stop-color="#98313d"
         id="stop28" />
    </linearGradient>
  </defs>
  <path
     d="M 19.063,2.36 A 6.876,6.876 0 0 0 18.27,2.375 c -1.64,0.13 -3.203,0.858 -4.25,2.156 -2.29,2.628 -1.591,7.205 1.437,8.969 2.644,1.517 6.459,1.074 8.375,-1.406 l -0.906,-0.688 c -1.643,2.091 -4.92,2.502 -7.063,0.969 C 13.452,10.759 13.176,6.917 15.27,4.937 17.335,2.85 21.196,3.069 22.926,5.469 23.226,5.239 23.532,5.012 23.832,4.781 22.741,3.238 20.914,2.426 19.062,2.359 Z M 8.926,2.375 v 12 h 1.156 v -12 z m 22.094,0 a 5.882,5.882 0 0 0 -3.313,1 c -2.863,1.829 -3.52,6.245 -1.281,8.813 1.911,2.454 5.793,2.915 8.25,1.03 1.84,-1.318 2.751,-3.69 2.344,-5.905 -0.411,-2.84 -3.148,-5.055 -6,-4.938 z M 30.613,3.5 c 0.157,-0.015 0.31,-0.003 0.469,0 a 4.834,4.834 0 0 1 1.719,0.313 c 2.11,0.732 3.44,3.02 3.094,5.218 -0.219,2.377 -2.438,4.29 -4.813,4.219 -2.652,0.1 -5.011,-2.36 -4.812,-5 C 26.247,5.861 28.266,3.72 30.613,3.5 Z M 7.061,16.426 3.789,18.834 1.002,20.883 3.051,23.67 16.887,42.475 v 4.072 h 0.011 v 1.305 h 28.61 v -0.055 h 0.015 V 18.007 H 45.43 V 18.004 H 34.44 l -1.096,-1.49 -4.307,-0.014 1.108,1.506 H 16.887 V 36.63 L 5.84,21.619 12.87,16.447 29.037,16.5 Z m 13.283,5.039 H 42.066 V 41.39 H 20.39 L 20.345,41.327 V 21.465 Z"
     id="path33"
     inkscape:connector-curvature="0"
     style="fill:#ff78cb" />
</svg>
