<?xml version="1.0" encoding="UTF-8" standalone="no"?>
<svg
   xmlns:dc="http://purl.org/dc/elements/1.1/"
   xmlns:cc="http://creativecommons.org/ns#"
   xmlns:rdf="http://www.w3.org/1999/02/22-rdf-syntax-ns#"
   xmlns:svg="http://www.w3.org/2000/svg"
   xmlns="http://www.w3.org/2000/svg"
   xmlns:sodipodi="http://sodipodi.sourceforge.net/DTD/sodipodi-0.dtd"
   xmlns:inkscape="http://www.inkscape.org/namespaces/inkscape"
   width="48"
   height="48"
   version="1.1"
   id="svg35"
   sodipodi:docname="text-x-lua.svg"
   inkscape:version="0.92.4 (5da689c313, 2019-01-14)">
  <metadata
     id="metadata39">
    <rdf:RDF>
      <cc:Work
         rdf:about="">
        <dc:format>image/svg+xml</dc:format>
        <dc:type
           rdf:resource="http://purl.org/dc/dcmitype/StillImage" />
        <dc:title></dc:title>
      </cc:Work>
    </rdf:RDF>
  </metadata>
  <sodipodi:namedview
     pagecolor="#ffffff"
     bordercolor="#666666"
     borderopacity="1"
     objecttolerance="10"
     gridtolerance="10"
     guidetolerance="10"
     inkscape:pageopacity="0"
     inkscape:pageshadow="2"
     inkscape:window-width="1087"
     inkscape:window-height="480"
     id="namedview37"
     showgrid="false"
     inkscape:zoom="4.9166667"
     inkscape:cx="2.1355932"
     inkscape:cy="24"
     inkscape:window-x="0"
     inkscape:window-y="25"
     inkscape:window-maximized="0"
     inkscape:current-layer="svg35" />
  <defs
     id="defs31">
    <linearGradient
       id="a">
      <stop
         offset="0"
         stop-color="#dc85e9"
         id="stop2" />
      <stop
         offset="1"
         stop-color="#f2cbf8"
         id="stop4" />
    </linearGradient>
    <linearGradient
       id="b">
      <stop
         offset="0"
         stop-color="#dc85e9"
         id="stop7" />
      <stop
         offset="1"
         stop-color="#f2cbf8"
         id="stop9" />
    </linearGradient>
    <linearGradient
       id="c">
      <stop
         offset="0"
         stop-color="#fff"
         stop-opacity=".588"
         id="stop12" />
      <stop
         offset="1"
         stop-color="#fff"
         stop-opacity=".863"
         id="stop14" />
    </linearGradient>
    <linearGradient
       id="d">
      <stop
         offset="0"
         stop-color="#b3b3b3"
         id="stop17" />
      <stop
         offset="1"
         stop-color="#e6e6e6"
         id="stop19" />
    </linearGradient>
    <linearGradient
       id="e">
      <stop
         offset="0"
         stop-color="#e694bb"
         id="stop22" />
      <stop
         offset=".262"
         stop-color="#d3819a"
         id="stop24" />
      <stop
         offset=".705"
         stop-color="#b25a64"
         id="stop26" />
      <stop
         offset="1"
         stop-color="#98313d"
         id="stop28" />
    </linearGradient>
  </defs>
  <path
     style="color:#000000;font-weight:400;line-height:normal;font-family:'Andale Mono';text-indent:0;text-align:start;text-decoration:none;text-decoration-line:none;text-transform:none;overflow:visible;fill:#ff78cb;marker:none"
     d="m 29.705,-0.084 c -2.047,0.008 -4.121,0.088 -4.517,0.098 H 7 a 2.938,2.938 0 0 0 -0.563,0 C 5.063,0.276 3.975,1.612 4,3.012 V 45 c 0,1.57 1.43,3 3,3 h 34 c 1.57,0 3,-1.43 3,-3 V 18.818 C 44.018,18.026 44.215,8.891 43.664,8.322 l -9.61,-8.074 c -0.284,-0.275 -2.302,-0.34 -4.349,-0.332 z m 1.49,3.094 0.133,7.504 c 0.012,0.681 0.638,1.29 1.317,1.279 l 7.771,-0.137 c 0.133,0.018 0.268,0.017 0.4,-0.006 L 40.898,14.68 41,18.77 V 44.997 H 7 V 3.021 H 25.672 Z M 10.242,6.908 v 2.037 h 6.207 V 6.908 Z m 8,0 v 2.037 h 6.207 V 6.908 Z m -6,4 v 2.037 H 28.34 v -2.037 z m -2,4 v 2.037 H 24.11 v -2.037 z m 16,0 v 2.037 h 10.28 v -2.037 z m -16,4 v 2.037 h 6.4 v -2.037 z m 8,0 v 2.037 h 11.83 v -2.037 z m 14,0 v 2.037 h 4.17 v -2.037 z m -20,4 v 2.037 h 21.72 v -2.037 z m 0,4 v 1.94 H 29.6 v -1.94 z m 20,0 v 1.94 h 3.977 v -1.94 z m -22.219,4 v 1.94 H 26.22 v -1.94 z m 19.602,0 v 1.94 h 6.594 v -1.94 z m -12.936,4.287 v 7.598 h 1.748 V 35.195 H 16.69 Z m 12.467,2.002 a 11.25,11.25 0 0 0 -1.832,0.274 v 1.332 c 0.689,-0.374 1.493,-0.488 2.268,-0.436 0.524,-0.02 1.134,0.328 1.023,0.924 -0.837,0.013 -1.69,-0.061 -2.506,0.176 -0.723,0.156 -1.277,0.82 -1.26,1.566 -0.102,0.903 0.6,1.77 1.5,1.87 0.854,0.151 1.799,-0.16 2.266,-0.92 v 0.81 h 1.764 v -3.121 c 0,-0.131 -0.004,-0.262 -0.016,-0.393 -0.026,-0.836 -0.523,-1.689 -1.375,-1.902 a 5.636,5.636 0 0 0 -1.832,-0.18 z m -9.088,0.127 v 3.34 c -0.018,0.825 0.253,1.805 1.104,2.125 0.937,0.376 2.056,0.023 2.646,-0.787 v 0.791 h 1.748 v -5.469 h -1.748 v 1.58 c -0.04,0.766 0.15,1.614 -0.312,2.287 -0.371,0.605 -1.54,0.574 -1.635,-0.222 -0.113,-1.21 -0.02,-2.43 -0.045,-3.645 z m 9.639,3.008 h 0.734 c 0.442,0.012 0.053,0.889 -0.162,1.088 -0.402,0.464 -1.398,0.531 -1.638,-0.127 -0.228,-0.65 0.51,-1.046 1.066,-0.961 z"
     font-weight="400"
     overflow="visible"
     id="path33"
     inkscape:connector-curvature="0" />
</svg>
