<?xml version="1.0" encoding="UTF-8" standalone="no"?>
<svg
   xmlns:dc="http://purl.org/dc/elements/1.1/"
   xmlns:cc="http://creativecommons.org/ns#"
   xmlns:rdf="http://www.w3.org/1999/02/22-rdf-syntax-ns#"
   xmlns:svg="http://www.w3.org/2000/svg"
   xmlns="http://www.w3.org/2000/svg"
   xmlns:sodipodi="http://sodipodi.sourceforge.net/DTD/sodipodi-0.dtd"
   xmlns:inkscape="http://www.inkscape.org/namespaces/inkscape"
   width="48"
   height="48"
   version="1.1"
   id="svg4"
   sodipodi:docname="text-x-tex.svg"
   inkscape:version="0.92.4 (5da689c313, 2019-01-14)">
  <metadata
     id="metadata10">
    <rdf:RDF>
      <cc:Work
         rdf:about="">
        <dc:format>image/svg+xml</dc:format>
        <dc:type
           rdf:resource="http://purl.org/dc/dcmitype/StillImage" />
        <dc:title></dc:title>
      </cc:Work>
    </rdf:RDF>
  </metadata>
  <defs
     id="defs8" />
  <sodipodi:namedview
     pagecolor="#ffffff"
     bordercolor="#666666"
     borderopacity="1"
     objecttolerance="10"
     gridtolerance="10"
     guidetolerance="10"
     inkscape:pageopacity="0"
     inkscape:pageshadow="2"
     inkscape:window-width="1138"
     inkscape:window-height="480"
     id="namedview6"
     showgrid="false"
     inkscape:zoom="4.9166667"
     inkscape:cx="2.1355932"
     inkscape:cy="24"
     inkscape:window-x="0"
     inkscape:window-y="25"
     inkscape:window-maximized="0"
     inkscape:current-layer="svg4" />
  <path
     d="m 29.705,-0.084 c -2.047,0.008 -4.121,0.088 -4.517,0.098 H 7 a 2.938,2.938 0 0 0 -0.563,0 C 5.064,0.276 3.975,1.612 4,3.012 V 45 c 0,1.57 1.43,3 3,3 h 34 c 1.57,0 3,-1.43 3,-3 V 18.818 C 44.018,18.026 44.215,8.891 43.664,8.322 l -9.61,-8.074 c -0.281,-0.275 -2.302,-0.34 -4.349,-0.332 z m 1.49,3.094 0.133,7.504 c 0.012,0.68 0.638,1.29 1.317,1.279 l 7.771,-0.137 c 0.133,0.018 0.268,0.018 0.4,-0.006 L 40.898,14.68 41,18.77 V 44.996 H 7 V 3.021 h 18.672 z m -4.42,15.76 v 0.837 l 1.278,0.227 3.531,5.523 -3.898,5.344 -1.168,0.238 v 0.834 h 4.119 v -0.834 l -1.168,-0.095 a 0.433,0.433 0 0 1 -0.223,-0.07 0.22,0.22 0 0 1 -0.058,-0.147 0.283,0.283 0 0 1 0.048,-0.15 l 2.987,-4.104 2.576,4.047 a 0.258,0.258 0 0 1 0.035,0.133 c 0,0.07 -0.027,0.128 -0.084,0.177 a 0.343,0.343 0 0 1 -0.191,0.096 l -1.114,0.113 v 0.834 h 4.973 v -0.834 l -1.201,-0.238 -3.81,-5.959 3.595,-4.947 1.246,-0.188 v -0.834 h -4.057 v 0.834 l 0.995,0.131 a 0.283,0.283 0 0 1 0.175,0.088 0.205,0.205 0 0 1 0.088,0.17 0.227,0.227 0 0 1 -0.056,0.152 l -2.612,3.58 -2.365,-3.64 a 0.297,0.297 0 0 1 -0.045,-0.162 c 0,-0.057 0.018,-0.107 0.057,-0.153 0.042,-0.042 0.12,-0.07 0.226,-0.078 l 0.985,-0.091 V 18.77 Z M 9.582,18.773 v 3.092 h 1.127 l 0.266,-1.812 a 0.396,0.396 0 0 1 0.105,-0.237 0.307,0.307 0 0 1 0.223,-0.095 h 2.793 v 10.722 a 0.44,0.44 0 0 1 -0.108,0.274 c -0.06,0.088 -0.163,0.14 -0.3,0.15 l -1.237,0.076 v 0.834 H 17.7 v -0.838 l -1.236,-0.074 a 0.424,0.424 0 0 1 -0.318,-0.152 0.467,0.467 0 0 1 -0.092,-0.272 v -10.72 h 2.771 a 0.27,0.27 0 0 1 0.211,0.095 0.435,0.435 0 0 1 0.11,0.237 l 0.277,1.812 h 1.144 v -3.092 z m 8.785,5.461 v 0.83 l 1.004,0.075 a 0.424,0.424 0 0 1 0.313,0.152 c 0.077,0.088 0.11,0.18 0.11,0.275 v 10.332 a 0.404,0.404 0 0 1 -0.11,0.272 0.424,0.424 0 0 1 -0.313,0.152 l -1.004,0.074 V 37.23 H 28.42 v -3.234 h -1.043 l -0.35,1.92 a 0.576,0.576 0 0 1 -0.123,0.236 c -0.07,0.089 -0.141,0.131 -0.226,0.131 h -4.903 v -5.338 h 2.903 c 0.081,0 0.162,0.046 0.236,0.127 0.078,0.082 0.113,0.156 0.113,0.227 l 0.202,1.344 h 0.982 V 28.32 h -0.982 l -0.202,1.332 c 0,0.071 -0.035,0.141 -0.113,0.22 a 0.318,0.318 0 0 1 -0.236,0.112 H 21.775 V 25.16 h 4.2 a 0.283,0.283 0 0 1 0.224,0.113 0.46,0.46 0 0 1 0.125,0.254 l 0.293,1.592 h 1.166 v -2.885 z"
     id="path2"
     inkscape:connector-curvature="0"
     style="fill:#ff78cb" />
</svg>
