<svg xmlns="http://www.w3.org/2000/svg" width="24" height="24" version="1"><g fill="#e6e6e6"><path d="M11.313 1.005C5.633 1.005 1 5.639 1 11.317S5.634 21.63 11.313 21.63c.706 0 1.395-.07 2.062-.206V18.59a7.664 7.664 0 0 1-2.063.289c-4.193 0-7.562-3.369-7.562-7.563s3.369-7.562 7.563-7.562a7.542 7.542 0 0 1 7.273 9.625h2.833c.136-.667.206-1.356.206-2.063 0-5.678-4.634-10.312-10.313-10.312zm4.076 5.503a.688.688 0 0 0-.099.01v.012a.688.688 0 0 0-.343.214l-3.654 3.642L9.016 8.12a.688.688 0 1 0-.944.946l2.75 2.75a.688.688 0 0 0 .944 0l4.125-4.125a.688.688 0 0 0-.502-1.182z" color="#000" font-family="sans-serif" font-weight="400" overflow="visible" style="line-height:normal;font-variant-ligatures:normal;font-variant-position:normal;font-variant-caps:normal;font-variant-numeric:normal;font-variant-alternates:normal;font-feature-settings:normal;text-indent:0;text-align:start;text-decoration-line:none;text-decoration-style:solid;text-decoration-color:#000;text-transform:none;text-orientation:mixed;shape-padding:0;isolation:auto;mix-blend-mode:normal" white-space="normal"/><path d="M17.5 14.759v2.744h-2.75v2.748h2.75v2.744h2.75v-2.744H23v-2.748h-2.75V14.76z" color="#bebebe" overflow="visible" style="marker:none"/></g></svg>