<svg xmlns="http://www.w3.org/2000/svg" width="24" height="24"><path fill="#e6e6e6" d="M5.216.61a.093.093 0 0 0-.094.093v3.813c0 .052.042.094.094.094H17.03a.093.093 0 0 0 .093-.094V.703A.093.093 0 0 0 17.03.61zm-4 5.101a.093.093 0 0 0-.094.094v8.71c0 .053.042.095.094.095H5.23v-.564h9.086a2.985 2.97 0 0 1 2.926-2.387 2.985 2.97 0 0 1 2.983 2.95h.871a.093.093 0 0 0 .094-.093V5.805a.093.093 0 0 0-.094-.094zm19.009 8.899h-3.089v2.982a2.985 2.97 0 0 0 .106.005 2.985 2.97 0 0 0 2.984-2.969 2.985 2.97 0 0 0-.001-.018zm-3.089 2.982a2.985 2.97 0 0 1-2.879-2.964 2.985 2.97 0 0 1 .001-.018H5.23v3.964h11.906zm-2.878-2.982h2.878v-.564h-2.82a2.985 2.97 0 0 0-.058.564zm3.462-7.576a1.386 1.386 0 0 1 1.386 1.385 1.386 1.386 0 0 1-1.386 1.386 1.386 1.386 0 0 1-1.386-1.386 1.386 1.386 0 0 1 1.386-1.385z" paint-order="markers fill stroke"/><path fill="none" stroke="#e6e6e6" stroke-linecap="square" stroke-miterlimit="1.5" stroke-width="1.516" d="M18.826 17.273l.089-.05 2.958 5.22-.088.05z" paint-order="markers fill stroke"/></svg>