<svg xmlns="http://www.w3.org/2000/svg" width="24" height="24" viewBox="0 0 6.35 6.35"><path fill="#e6e6e6" d="M3.175.06A3.114 3.114 0 0 0 .061 3.176 3.114 3.114 0 0 0 3.175 6.29 3.114 3.114 0 0 0 6.29 3.175 3.114 3.114 0 0 0 3.175.061zm-.009.464a2.677 2.677 0 0 1 2.678 2.678 2.677 2.677 0 0 1-2.678 2.677A2.677 2.677 0 0 1 .49 3.202 2.677 2.677 0 0 1 3.166.524zm0 .262L.723 3.23l.473.473.394-.394V5.2h1.26v-.946a.315.315 0 1 1 .631 0V5.2h1.261V3.31l.395.394.473-.473zm.946.316v.236l.63.63v-.866z"/></svg>