<svg xmlns="http://www.w3.org/2000/svg" width="24" height="24"><path fill="#e6e6e6" d="M12 .23A11.77 11.77 0 0 0 .229 12 11.77 11.77 0 0 0 12 23.77 11.77 11.77 0 0 0 23.771 12 11.77 11.77 0 0 0 12 .23zm-.033 1.752a10.12 10.12 0 0 1 10.119 10.12 10.12 10.12 0 0 1-4.174 8.171c.273-.934-.908-5.792-.723-6.375.199-.622 4.474-4.254 4.276-4.877-.198-.622-5.75-1-6.27-1.384-.519-.385-2.587-5.655-3.228-5.655zm0 0c-.642 0-2.71 5.27-3.229 5.655-.519.384-6.071.762-6.27 1.384-.197.623 4.078 4.255 4.276 4.877.186.584-1.001 5.458-.723 6.381a10.12 10.12 0 0 1-4.175-8.177 10.12 10.12 0 0 1 10.12-10.12zm0 15.788c.6 0 4.752 2.64 5.715 2.67a10.12 10.12 0 0 1-5.715 1.78 10.12 10.12 0 0 1-5.737-1.78c.918.013 5.132-2.67 5.737-2.67z"/></svg>