<svg xmlns="http://www.w3.org/2000/svg" width="24" height="24"><path d="M12 2.54a9.46 9.46 0 0 0-8.3 4.93l8.14 8h.76l7.86-7.7A9.46 9.46 0 0 0 12 2.54zM3.15 8.67A9.46 9.46 0 0 0 2.54 12a9.46 9.46 0 0 0 1.24 4.66l3.72-3.7-4.35-4.29zm17.82.35L17 12.97l.26.26a2.5 2.45 0 0 1 .04-.03 2.5 2.45 0 0 1 .2-.15 2.5 2.45 0 0 1 .2-.12 2.5 2.45 0 0 1 .23-.11 2.5 2.45 0 0 1 .24-.08 2.5 2.45 0 0 1 .24-.06 2.5 2.45 0 0 1 .25-.04 2.5 2.45 0 0 1 .25-.01 2.5 2.45 0 0 1 .17 0 2.5 2.45 0 0 1 .25.03 2.5 2.45 0 0 1 .25.05 2.5 2.45 0 0 1 .23.08 2.5 2.45 0 0 1 .23.1 2.5 2.45 0 0 1 .22.13 2.5 2.45 0 0 1 .2.14 2.5 2.45 0 0 1 .19.16 2.5 2.45 0 0 1 .17.18 2.5 2.45 0 0 1 .15.2 2.5 2.45 0 0 1 .13.2 2.5 2.45 0 0 1 .1.21 9.46 9.46 0 0 0 .26-2.11 9.46 9.46 0 0 0-.49-2.98zm-1.86 4.6a2 2 0 0 0-2 2v2h-1.33v4h6.66v-4h-1.33v-2a2 2 0 0 0-2-2zm-10.69.2l-3.94 3.91A9.46 9.46 0 0 0 12 21.46a9.46 9.46 0 0 0 2.74-.4V16.82h1.67v-1.75a2.5 2.45 0 0 1 0-.17 2.5 2.45 0 0 1 .03-.25 2.5 2.45 0 0 1 .06-.24 2.5 2.45 0 0 1 .04-.12l-.48-.47-2.9 2.9h-1.84l-2.9-2.9v-.01zm10.69 1.14a.67.67 0 0 1 .67.67v2h-1.34v-2a.67.67 0 0 1 .67-.67z" fill="#e6e6e6"/></svg>
