<svg xmlns="http://www.w3.org/2000/svg" width="24" height="24" version="1"><path fill="#e6e6e6" d="M11.959 2.37c-5.386 0-9.773 4.387-9.773 9.773s4.387 9.771 9.773 9.771 9.773-4.385 9.773-9.771c0-5.386-4.387-9.774-9.773-9.774zM8.256 7.52a.8.8 0 0 1 .568.234l3.135 3.135 3.133-3.135a.805.805 0 0 1 1.137 1.137l-3.135 3.132 3.135 3.135a.802.802 0 0 1-.569 1.371.786.786 0 0 1-.568-.236l-3.133-3.133-3.135 3.133a.786.786 0 0 1-.568.236.802.802 0 0 1-.566-1.371l3.132-3.135L7.69 8.891a.805.805 0 0 1 .567-1.371z"/></svg>