<svg xmlns="http://www.w3.org/2000/svg" width="24" height="24"><path fill="#e6e6e6" d="M11.998 1.63c-.49 0-.978.188-1.352.561L5.91 6.928a1.89 1.89 0 0 0-.556 1.355v12.174a1.911 1.911 0 0 0 1.91 1.912h9.468c.49-.003.982-.19 1.354-.562a1.91 1.91 0 0 0 .56-1.36V8.28c0-.487-.185-.976-.56-1.351L13.352 2.19a1.909 1.909 0 0 0-1.354-.56zm0 2.509c.367 0 .735.14 1.016.422a1.43 1.43 0 0 1 0 2.027 1.433 1.433 0 0 1-2.03 0 1.43 1.43 0 0 1 0-2.027 1.43 1.43 0 0 1 1.014-.422zm-.955 6.035h1.914v2.869h2.87v1.914h-2.87v2.87h-1.914v-2.87h-2.87v-1.914h2.87v-2.87z"/></svg>