<svg xmlns="http://www.w3.org/2000/svg" width="48" height="48" viewBox="0 0 12.7 12.7"><g fill="#ff7f2a"><path d="M6.34.07a6.29 6.29 0 0 0-6.29 6.3 6.29 6.29 0 0 0 6.3 6.28 6.29 6.29 0 0 0 6.28-6.29A6.29 6.29 0 0 0 6.34.07zm-.01.94a5.4 5.4 0 0 1 5.4 5.4 5.4 5.4 0 0 1-5.4 5.41 5.4 5.4 0 0 1-5.41-5.4A5.4 5.4 0 0 1 6.32 1z"/><path d="M6.35 1.84a3.77 3.77 0 0 0-1.01 7.4 1.88 1.68 0 0 0-.89 1.45l3.76-.02a1.88 1.68 0 0 0-.87-1.42 3.77 3.77 0 0 0-.99-7.41zm0 2.07a1.7 1.7 0 1 1 0 3.4 1.7 1.7 0 0 1 0-3.4zm0 1.32a.38.38 0 0 0-.37.38c0 .21.16.38.37.38s.38-.17.38-.38a.38.38 0 0 0-.38-.38z"/></g></svg>