<svg xmlns="http://www.w3.org/2000/svg" width="48" height="48" viewBox="0 0 12.7 12.7"><path d="M6.34.07a6.29 6.29 0 0 0-6.29 6.3 6.29 6.29 0 0 0 6.3 6.28 6.29 6.29 0 0 0 6.28-6.29A6.29 6.29 0 0 0 6.34.07zm-.01.94a5.4 5.4 0 0 1 5.4 5.4 5.4 5.4 0 0 1-5.4 5.41 5.4 5.4 0 0 1-5.41-5.4A5.4 5.4 0 0 1 6.32 1zm-2.2 1.11a.9.9 0 0 0-.9.91v6.85c0 .5.4.9.9.9h4.38c.5 0 .91-.4.91-.9V3.03a.9.9 0 0 0-.91-.91H4.14zm-.28.62H8.8v3.1H3.85v-3.1zm2.47 3.71a1.86 1.86 0 0 1 0 3.72 1.86 1.86 0 0 1 0-3.72zm0 .93a.93.93 0 0 0-.92.93.93.93 0 0 0 .92.93.93.93 0 0 0 .93-.93.93.93 0 0 0-.93-.93z" fill="#ff7f2a"/></svg>