<?xml version="1.0" encoding="UTF-8" standalone="no"?>
<svg
   xmlns:dc="http://purl.org/dc/elements/1.1/"
   xmlns:cc="http://creativecommons.org/ns#"
   xmlns:rdf="http://www.w3.org/1999/02/22-rdf-syntax-ns#"
   xmlns:svg="http://www.w3.org/2000/svg"
   xmlns="http://www.w3.org/2000/svg"
   xmlns:sodipodi="http://sodipodi.sourceforge.net/DTD/sodipodi-0.dtd"
   xmlns:inkscape="http://www.inkscape.org/namespaces/inkscape"
   width="48"
   height="48"
   viewBox="0 0 12.7 12.7"
   version="1.1"
   id="svg16"
   sodipodi:docname="libreoffice-draw.svg"
   inkscape:version="0.92.4 (5da689c313, 2019-01-14)">
  <metadata
     id="metadata22">
    <rdf:RDF>
      <cc:Work
         rdf:about="">
        <dc:format>image/svg+xml</dc:format>
        <dc:type
           rdf:resource="http://purl.org/dc/dcmitype/StillImage" />
        <dc:title></dc:title>
      </cc:Work>
    </rdf:RDF>
  </metadata>
  <defs
     id="defs20" />
  <sodipodi:namedview
     pagecolor="#ffffff"
     bordercolor="#666666"
     borderopacity="1"
     objecttolerance="10"
     gridtolerance="10"
     guidetolerance="10"
     inkscape:pageopacity="0"
     inkscape:pageshadow="2"
     inkscape:window-width="1087"
     inkscape:window-height="480"
     id="namedview18"
     showgrid="false"
     inkscape:zoom="4.9166667"
     inkscape:cx="2.1355932"
     inkscape:cy="24"
     inkscape:window-x="0"
     inkscape:window-y="25"
     inkscape:window-maximized="0"
     inkscape:current-layer="svg16" />
  <g
     transform="translate(0,-284.3)"
     id="g14">
    <path
       d="m 6.344,284.373 a 6.29,6.29 0 0 0 -6.29,6.29 6.29,6.29 0 0 0 6.29,6.288 6.29,6.29 0 0 0 6.29,-6.289 6.29,6.29 0 0 0 -6.29,-6.29 z m -0.018,0.936 a 5.407,5.407 0 0 1 5.407,5.407 5.407,5.407 0 0 1 -5.407,5.407 5.407,5.407 0 0 1 -5.407,-5.407 5.407,5.407 0 0 1 5.407,-5.407 z"
       id="path2"
       inkscape:connector-curvature="0"
       style="fill:#5beedc" />
    <path
       d="m 2.778,292.899 c 3.572,0.132 3.837,-4.366 7.144,-4.233"
       id="path4"
       inkscape:connector-curvature="0"
       style="fill:none;stroke:#5beedc;stroke-width:0.26499999" />
    <circle
       cx="6.4819999"
       cy="287.34299"
       r="0.66100001"
       id="circle6"
       style="fill:#5beedc;stroke:#5beedc;stroke-width:0.132" />
    <circle
       cx="6.4819999"
       cy="293.957"
       r="0.66100001"
       id="circle8"
       style="fill:#5beedc;stroke:#5beedc;stroke-width:0.132" />
    <path
       d="m 73,43 h 2 v 66 h -2 z"
       transform="matrix(0.1323,0,0,0.09338,-3.307,283.6)"
       id="path10"
       inkscape:connector-curvature="0"
       style="fill:#5beedc;stroke:#5beedc" />
    <path
       d="m 6.085,290.782 a 0.3975,0.3975 0 1 0 0.795,0 0.3975,0.3975 0 0 0 -0.795,0 z m -3.704,1.471 H 3.44 v 1.058 H 2.38 Z m 6.88,-4.233 h 1.058 v 1.058 H 9.26 Z"
       id="path12"
       inkscape:connector-curvature="0"
       style="fill:#5beedc;stroke:#5beedc;stroke-width:0.26499999" />
  </g>
</svg>
