<svg xmlns="http://www.w3.org/2000/svg" width="24" height="24" version="1">
  <defs>
    <linearGradient id="a">
      <stop offset="0"/>
      <stop offset="1" stop-opacity="0"/>
    </linearGradient>
  </defs>
  <path fill="#e6e6e6" d="M3.6507432 1.01010093c-.8494666 0-1.5333332.6838666-1.5333332 1.5333332v18.3999984c0 .8494666.6838666 1.5333332 1.5333332 1.5333332h9.1999992V20.9280992l-7.666666.01533333V2.54343413h13.0333322c.4247333 0 .7666666.3419333.7666666.7666666v9.95439914h1.5333332V2.54343413c0-.8494666-.6838666-1.5333332-1.5333332-1.5333332zm8.4149326 6.13639947c-.73753327-.04906666-1.4597332.3833333-1.8890665.96599991-.41859996.75439994-.07666666 1.65139986-.3373333 2.4471998-.15946666.57039994 0 1.17759989.41399996 1.59006652.3557333.4477333.79273326 1.03193324.54893328 1.63299986-.35266663.67619994-1.0533999 1.07333324-1.69126651 1.43366654-.16866666.069-.38639997.18706665-.56733329.32659997-.16253332.046-.2913333.16866665-.2913333.34499997v1.60539986c0 .21159998.16866665.3833333.3833333.3833333h4.1890663a1.55939986 1.55939986 0 0 1 1.55939986-1.5517332h1.50726654v-.8126666c-.84639993-.45693329-1.79399985-.90313325-2.2677998-1.79553317-.16253333-.70839994.33579996-1.32939988.77279993-1.82159984.43086662-.54739995.26066664-1.2695999.11039999-1.88293317-.06286667-.67773328.15486665-1.48119987-.34959997-2.03626649-.54739996-.55506662-1.33706655-.78199993-2.08993316-.82953326zm5.3850662 7.67893266v3.06053307h-3.0666664v3.04213307l3.0666664.02146666v3.06053307h3.0666664v-3.06053307h3.0666664v-3.06359973h-3.0666664v-3.06053307z" color="#000" overflow="visible" style="isolation:auto;mix-blend-mode:normal;marker:none"/>
</svg>
