<svg xmlns="http://www.w3.org/2000/svg" width="24" height="24" version="1">
  <defs>
    <linearGradient id="a">
      <stop offset="0"/>
      <stop offset="1" stop-opacity="0"/>
    </linearGradient>
    <linearGradient id="b">
      <stop offset="0" stop-color="#3f3f3f"/>
      <stop offset="1"/>
    </linearGradient>
    <linearGradient id="c">
      <stop offset="0" stop-color="#929292"/>
      <stop offset="1" stop-color="#4a4a4a"/>
    </linearGradient>
    <linearGradient id="d">
      <stop offset="0" stop-color="#fffffd"/>
      <stop offset="1" stop-color="#cbcbc9"/>
    </linearGradient>
    <linearGradient id="e">
      <stop offset="0" stop-color="#fff" stop-opacity=".40000001"/>
      <stop offset="1" stop-color="#fff" stop-opacity="0"/>
    </linearGradient>
    <linearGradient id="f">
      <stop offset="0" stop-color="#d7e866"/>
      <stop offset="1" stop-color="#8cab2a"/>
    </linearGradient>
  </defs>
  <g fill="#e6e6e6">
    <path d="M11.3125 1.004812C5.63375 1.004812 1 5.638562 1 11.317312s4.63375 10.3125 10.3125 10.3125c.70675 0 1.395625-.070125 2.0625-.20625v-2.8325c-.655875.182875-1.346125.28875-2.0625.28875-4.19375 0-7.5625-3.36875-7.5625-7.5625s3.36875-7.5625 7.5625-7.5625a7.541875 7.541875 0 0 1 7.27375 9.625h2.8325c.136125-.666875.20625-1.35575.20625-2.0625 0-5.67875-4.63375-10.3125-10.3125-10.3125zm4.076875 5.50275a.6875.6875 0 0 0-.099.011v.011a.6875.6875 0 0 0-.34375.2145l-3.653375 3.642375-2.277-2.267375a.6875.6875 0 1 0-.944625.946l2.75 2.75a.6875.6875 0 0 0 .944625 0l4.125-4.125a.6875.6875 0 0 0-.501875-1.1825z" color="#000" font-family="sans-serif" font-weight="400" overflow="visible" style="line-height:normal;font-variant-ligatures:normal;font-variant-position:normal;font-variant-caps:normal;font-variant-numeric:normal;font-variant-alternates:normal;font-feature-settings:normal;text-indent:0;text-align:start;text-decoration-line:none;text-decoration-style:solid;text-decoration-color:#000;text-transform:none;text-orientation:mixed;shape-padding:0;isolation:auto;mix-blend-mode:normal" white-space="normal"/>
    <path d="M17.5 14.758937v2.7445h-2.75v2.74725h2.75v2.7445h2.75v-2.7445H23v-2.74725h-2.75v-2.7445z" color="#bebebe" overflow="visible" style="marker:none"/>
  </g>
</svg>
