<svg xmlns="http://www.w3.org/2000/svg" width="24" height="24">
  <path fill="#e6e6e6" fill-opacity=".9953271" d="M12.000098 1.0019532A10.999424 10.999424 0 0 0 1.0000001 11.999902 10.999424 10.999424 0 0 0 12.000098 23a10.999424 10.999424 0 0 0 10.997949-11.000098A10.999424 10.999424 0 0 0 12.000098 1.0019532zM7.6000586 7.5998633h3.3000294l1.10001 1.1000098h4.400039c.607755 0 1.100011.4922549 1.100011 1.1000095v5.5000494c0 .607755-.492256 1.100009-1.100011 1.100009H7.6000586c-.6077554 0-1.1000097-.492254-1.1000097-1.100009l.00645-6.6000589c0-.6077561.4858091-1.1000098 1.0935637-1.1000098z"/>
</svg>
