<?xml version="1.0" encoding="UTF-8" standalone="no"?>
<svg
   xmlns:dc="http://purl.org/dc/elements/1.1/"
   xmlns:cc="http://creativecommons.org/ns#"
   xmlns:rdf="http://www.w3.org/1999/02/22-rdf-syntax-ns#"
   xmlns:svg="http://www.w3.org/2000/svg"
   xmlns="http://www.w3.org/2000/svg"
   xmlns:sodipodi="http://sodipodi.sourceforge.net/DTD/sodipodi-0.dtd"
   xmlns:inkscape="http://www.inkscape.org/namespaces/inkscape"
   viewBox="0 0 24 24"
   version="1.1"
   id="svg4"
   sodipodi:docname="archive-insert-directory.svg"
   inkscape:version="0.92.3 (2405546, 2018-03-11)"
   width="24"
   height="24"
   style="fill:#000000">
  <metadata
     id="metadata10">
    <rdf:RDF>
      <cc:Work
         rdf:about="">
        <dc:format>image/svg+xml</dc:format>
        <dc:type
           rdf:resource="http://purl.org/dc/dcmitype/StillImage" />
        <dc:title></dc:title>
      </cc:Work>
    </rdf:RDF>
  </metadata>
  <defs
     id="defs8" />
  <sodipodi:namedview
     pagecolor="#ffffff"
     bordercolor="#666666"
     borderopacity="1"
     objecttolerance="10"
     gridtolerance="10"
     guidetolerance="10"
     inkscape:pageopacity="0"
     inkscape:pageshadow="2"
     inkscape:window-width="1366"
     inkscape:window-height="719"
     id="namedview6"
     showgrid="false"
     inkscape:zoom="22.416667"
     inkscape:cx="2.0743494"
     inkscape:cy="11.464683"
     inkscape:window-x="0"
     inkscape:window-y="25"
     inkscape:window-maximized="1"
     inkscape:current-layer="svg4"
     showguides="true"
     inkscape:guide-bbox="true" />
  <path
     style="opacity:1;fill:#e6e6e6;fill-opacity:0.9953271;stroke:#4d4d4d;stroke-width:0;stroke-miterlimit:4;stroke-dasharray:none;stroke-opacity:1"
     d="M 12.000098,1.0019532 A 10.999424,10.999424 0 0 0 1.0000001,11.999902 10.999424,10.999424 0 0 0 12.000098,23 10.999424,10.999424 0 0 0 22.998047,11.999902 10.999424,10.999424 0 0 0 12.000098,1.0019532 Z M 7.6000586,7.5998633 h 3.3000294 l 1.10001,1.1000098 h 4.400039 c 0.607755,0 1.100011,0.4922549 1.100011,1.1000095 v 5.5000494 c 0,0.607755 -0.492256,1.100009 -1.100011,1.100009 H 7.6000586 c -0.6077554,0 -1.1000097,-0.492254 -1.1000097,-1.100009 l 0.00645,-6.6000589 c 0,-0.6077561 0.4858091,-1.1000098 1.0935637,-1.1000098 z"
     id="path818"
     inkscape:connector-curvature="0" />
</svg>
