<svg xmlns="http://www.w3.org/2000/svg" width="24" height="24">
  <path fill="#e6e6e6" d="M20.082843 2.5002308c.780441 0 1.417657.6240617 1.417657 1.4176579v.090614C21.474193 13.671962 13.631768 21.499769 3.9624645 21.499769h-.046769c-.7965195 0-1.4161965-.65183-1.4161965-1.461502v-4.384509c0-.809672.6518303-1.461501 1.4615029-1.461501h2.9230057c.8096726 0 1.4615029.651829 1.4615029 1.461501v.686906a13.105296 13.105296 0 0 0 7.9929605-7.9944214h-.685444c-.809672 0-1.461506-.6518303-1.461506-1.4615029V3.9617338c0-.8096726.651834-1.461503 1.461506-1.461503z"/>
</svg>
