<svg xmlns="http://www.w3.org/2000/svg" width="24" height="24">
  <path fill="#e6e6e6" d="M1.3610778 13.619152c-.47305131-.470296-.48130221-1.478283 0-1.955459l.055006-.055c5.8677629-5.8402633 15.3562942-5.8306372 21.2116822.024744l.0275.0275c.481301.481304.437299 1.471412-.0275 1.984345l-2.654037 2.74617a1.2486358 1.2486358 0 0 1-1.771195 0l-1.769817-1.768442a1.2486358 1.2486358 0 0 1 0-1.769816l.415295-.41392a11.222595 11.222595 0 0 0-9.6810527 0l.4166703.41392a1.2486358 1.2486358 0 0 1 0 1.769816l-1.7711927 1.771192a1.24176 1.24176 0 0 1-1.7698175 0z"/>
</svg>
