<?xml version="1.0" encoding="UTF-8" standalone="no"?>
<!-- Created with Inkscape (http://www.inkscape.org/) -->

<svg
   xmlns:dc="http://purl.org/dc/elements/1.1/"
   xmlns:cc="http://creativecommons.org/ns#"
   xmlns:rdf="http://www.w3.org/1999/02/22-rdf-syntax-ns#"
   xmlns:svg="http://www.w3.org/2000/svg"
   xmlns="http://www.w3.org/2000/svg"
   xmlns:sodipodi="http://sodipodi.sourceforge.net/DTD/sodipodi-0.dtd"
   xmlns:inkscape="http://www.inkscape.org/namespaces/inkscape"
   version="1.1"
   id="svg2"
   width="24"
   height="24"
   viewBox="0 0 24 24"
   sodipodi:docname="call-start.svg"
   inkscape:version="0.92.3 (2405546, 2018-03-11)">
  <metadata
     id="metadata8">
    <rdf:RDF>
      <cc:Work
         rdf:about="">
        <dc:format>image/svg+xml</dc:format>
        <dc:type
           rdf:resource="http://purl.org/dc/dcmitype/StillImage" />
        <dc:title></dc:title>
      </cc:Work>
    </rdf:RDF>
  </metadata>
  <defs
     id="defs6" />
  <sodipodi:namedview
     pagecolor="#ffffff"
     bordercolor="#666666"
     borderopacity="1"
     objecttolerance="10"
     gridtolerance="10"
     guidetolerance="10"
     inkscape:pageopacity="0"
     inkscape:pageshadow="2"
     inkscape:window-width="1366"
     inkscape:window-height="719"
     id="namedview4"
     showgrid="false"
     inkscape:zoom="22.416667"
     inkscape:cx="11.39777"
     inkscape:cy="11.821561"
     inkscape:window-x="0"
     inkscape:window-y="25"
     inkscape:window-maximized="1"
     inkscape:current-layer="svg2" />
  <path
     inkscape:connector-curvature="0"
     style="fill:#e6e6e6;stroke-width:1.46150303"
     d="m 20.082843,2.5002308 c 0.780441,0 1.417657,0.6240617 1.417657,1.4176579 v 0.090614 C 21.474193,13.671962 13.631768,21.499769 3.9624645,21.499769 h -0.046769 c -0.7965195,0 -1.4161965,-0.65183 -1.4161965,-1.461502 v -4.384509 c 0,-0.809672 0.6518303,-1.461501 1.4615029,-1.461501 h 2.9230057 c 0.8096726,0 1.4615029,0.651829 1.4615029,1.461501 v 0.686906 A 13.105296,13.105296 0 0 0 16.338471,8.3462426 h -0.685444 c -0.809672,0 -1.461506,-0.6518303 -1.461506,-1.4615029 V 3.9617338 c 0,-0.8096726 0.651834,-1.461503 1.461506,-1.461503 z"
     id="path2" />
</svg>
