<svg xmlns="http://www.w3.org/2000/svg" width="24" height="24">
  <path fill="#e6e6e6" d="M.10704513 21.712216c0-1.2415 1.00999997-2.25 2.24999997-2.25.9825 0 1.5-.8665 1.5-1.5.915.69 1.5 1.871 1.5 3 0 1.6575-1.3425 3-3 3-1.2415 0-2.24999997-1.01-2.24999997-2.25M23.812045 2.5922156l-2.335-2.33500001c-.39-.39-1.025-.39-1.415 0l-3.125 3.12500001-1.915-1.92-1.415 1.415 1.42 1.42-8.9199999 8.9150004v4.75h4.7499999l8.92-8.9200004 1.415 1.4200004 1.415-1.4150004-1.92-1.92 3.125-3.125c.395-.39.395-1.02 0-1.41m-13.785 13.3700004l-1.9199999-1.92 8.0649999-8.0650004 1.92 1.92-8.065 8.0650004"/>
</svg>
