<svg xmlns="http://www.w3.org/2000/svg" width="24" height="24" version="1"><g fill="#e6e6e6" color="#000"><path d="M9.83.384c-1.287-.086-2.547.669-3.296 1.685-.73 1.317-.134 2.883-.59 4.272-.277.995 0 2.055.723 2.775.621.781 1.384 1.8.959 2.85-.616 1.18-1.839 1.873-2.952 2.502-.295.12-.675.326-.99.57-.284.08-.509.294-.509.602v2.802c0 .37.295.669.67.669h7.31a2.722 2.722 0 0 1 2.722-2.708h2.63v-1.419c-1.477-.797-3.13-1.576-3.957-3.133-.284-1.237.586-2.32 1.348-3.18.752-.955.455-2.215.193-3.286-.11-1.183.27-2.585-.61-3.554C12.525.863 11.147.466 9.833.384z" overflow="visible" style="isolation:auto;mix-blend-mode:normal;marker:none"/><path d="M17.45 14.825v3.061h-3.066v3.042l3.067.022v3.06h3.066v-3.06h3.067v-3.064h-3.067v-3.06z" overflow="visible" style="isolation:auto;mix-blend-mode:normal;marker:none"/></g></svg>