<svg xmlns="http://www.w3.org/2000/svg" width="24" height="24" version="1">
  <defs>
    <linearGradient id="a">
      <stop offset="0"/>
      <stop offset="1" stop-opacity="0"/>
    </linearGradient>
  </defs>
  <g fill="#e6e6e6" color="#000">
    <path d="M9.8306208.38352948c-1.287209-.085634-2.5476574.66902862-3.2969706 1.68595122-.7305784 1.3166475-.133794 2.8821741-.5887439 4.2710761-.278317.995517 0 2.055256.7225501 2.775131.6208574.78142 1.3835494 1.8010212.9580491 2.8500542-.615506 1.180169-1.8384907 1.873283-2.9517532 2.502168-.2943721.120436-.6743803.326487-.9901622.570012-.2836676.08028-.5084612.294375-.5084612.602128v2.801888c0 .369304.2943727.669029.669028.669029h7.3111401a2.7216067 2.7216067 0 0 1 2.721608-2.708225h2.630618v-1.418338c-1.477216-.797481-3.131052-1.576234-3.957972-3.13373-.28367-1.236364.586068-2.3201922 1.348765-3.1792242.751986-.955372.454938-2.2158206.19268-3.2862654-.109726-1.1828415.270286-2.585125-.610157-3.5538775C12.525467.86255378 11.147269.46648928 9.8332978.38352948z" overflow="visible" style="isolation:auto;mix-blend-mode:normal;marker:none"/>
    <path d="M17.450742 14.825433v3.060533h-3.066666v3.042133l3.066666.02147v3.060533h3.066666v-3.060533h3.066667v-3.0636h-3.066667v-3.060533z" overflow="visible" style="isolation:auto;mix-blend-mode:normal;marker:none"/>
  </g>
</svg>
