<svg xmlns="http://www.w3.org/2000/svg" width="24" height="24" version="1">
  <defs>
    <linearGradient id="a">
      <stop offset="0"/>
      <stop offset="1" stop-opacity="0"/>
    </linearGradient>
    <linearGradient id="b">
      <stop offset="0" stop-color="#f5f5f5"/>
      <stop offset=".47026" stop-color="#e7e7e7"/>
      <stop offset=".69349" stop-color="#8c8c8c"/>
      <stop offset=".83543" stop-color="#ddd"/>
      <stop offset="1" stop-color="#a8a8a8"/>
    </linearGradient>
    <radialGradient id="c" cx="113.07" cy="97.588" r="2.5631" fx="113.67" fy="98" gradientUnits="userSpaceOnUse">
      <stop offset="0" stop-color="#eee"/>
      <stop offset=".16" stop-color="#cecece"/>
      <stop offset=".4675" stop-color="#888"/>
      <stop offset="1" stop-color="#555"/>
    </radialGradient>
  </defs>
  <path fill="#e6e6e6" d="M4.5.5c-.83333 0-1.9007.6416379-2 1.4316406L.5234375 17.669922c-.01495 0-.0234375.003905-.0234375.015625h23c0-.01176-.008527-.015625-.023438-.015625L21.5 1.9316406C21.40074 1.1416379 20.3333.5 19.5.5h-15zm4 2.09375h7v6h3.111328l-6.611328 7-6.6113281-7H8.5v-6zM23.5 18.5l-23 .001953c.46439 4.04436.23325065 3.980469 1.1503906 3.980469 7.317 0 20.3235054.04823 20.6542974 0 .84452 0 .728922-.602422 1.195312-3.982422z"/>
</svg>
