<svg xmlns="http://www.w3.org/2000/svg" width="24" height="24"><g fill="#e6e6e6" transform="matrix(.5 0 0 .5 -.039 1.064)"><path d="M4.188 12.203a.187.187 0 0 0-.188.188v17.422c0 .104.083.187.188.187h39.76a.187.187 0 0 0 .187-.188V12.392a.187.187 0 0 0-.188-.188zm33.007 2.645a2.771 2.771 0 0 1 2.772 2.771 2.771 2.771 0 0 1-2.772 2.772 2.771 2.771 0 0 1-2.771-2.772 2.771 2.771 0 0 1 2.771-2.771z" paint-order="markers fill stroke"/><rect width="24" height="8" x="12" y="2" paint-order="markers fill stroke" ry=".188"/></g><rect width="11.905" height="4.528" x="6.069" y="15.5" fill="none" stroke="#e6e6e6" stroke-linecap="square" stroke-miterlimit="1.5" stroke-width="1.516" paint-order="markers fill stroke" ry="0"/></svg>