<svg xmlns="http://www.w3.org/2000/svg" width="24" height="24" version="1">
  <path fill="#e6e6e6" d="M11.999211 1.0003534c-.345719 0-.691439.01729-1.030876.048716l-.638007 3.2906307a7.8761448 7.8761448 0 0 0-1.522744.4902949L6.401683 2.524667c-.611297.3614352-1.14245.8077292-1.670459 1.2760236l1.42374 2.9951975a7.9468604 7.9468604 0 0 0-.931874 1.2775953l-3.290632-.4415796a10.858771 10.858771 0 0 0-.638012 2.0114652l2.896196 1.571456a7.5838536 7.5838536 0 0 0-.04714.785733c0 .271859.02043.521719.04714.785727l-2.896196 1.571456c.152432.6993.358293 1.370312.638012 2.013036l3.290632-.44158c.267148.455724.583011.884732.931874 1.276024l-1.42374 2.996767c.528009.468297 1.059162.914593 1.670459 1.276025l2.405901-2.308468c.480864.215288.996304.377148 1.522744.491864l.638007 3.290632a11.185635 11.185635 0 0 0 2.061752 0l.639585-3.290632c.524868-.114718 1.041876-.276576 1.521172-.491864l2.407472 2.31004c.609728-.361431 1.142452-.8093 1.668888-1.277597l-1.42374-2.996767c.348864-.391292.666295-.8203.933443-1.276024l3.289065.44158a10.858771 10.858771 0 0 0 .63958-2.013036l-2.897769-1.571456c.02672-.264008.04872-.513868.04872-.785727 0-.271865-.022-.521724-.04872-.785733l2.897768-1.571456a10.855628 10.855628 0 0 0-.639579-2.0130368l-3.289065.4415796a7.9468604 7.9468604 0 0 0-.933443-1.2775948l1.42374-2.995198c-.526436-.4682944-1.05916-.914588-1.668888-1.2760232L15.189272 4.829995a7.880859 7.880859 0 0 0-1.521173-.4902944l-.639579-3.290632a11.185635 11.185635 0 0 0-1.029309-.048715zm0 6.2858296a4.7143724 4.7143724 0 1 1 0 9.428741 4.7143724 4.7143724 0 0 1 0-9.428741z" overflow="visible"/>
</svg>
