<svg xmlns="http://www.w3.org/2000/svg" width="24" height="24">
  <path fill="#e6e6e6" d="M5.216167.609677c-.052039 0-.09375.04171-.09375.09375v3.8125c0 .05204.041711.09375.09375.09375h11.8125c.05204 0 .09375-.04171.09375-.09375v-3.8125c0-.05204-.04171-.09375-.09375-.09375zm-4 5.101563c-.052039 0-.09375.04171-.09375.09375v8.710937c0 .05204.04171.09375.09375.09375h4.013672V14.0462h9.085938a2.9845073 2.9693751 0 0 1 2.925781-2.387695 2.9845073 2.9693751 0 0 1 2.983398 2.951172h.871094c.05204 0 .09375-.04171.09375-.09375V5.80499c0-.05204-.04171-.09375-.09375-.09375zm19.008789 8.898437h-3.088867v2.982422a2.9845073 2.9693751 0 0 0 .105469.0049 2.9845073 2.9693751 0 0 0 2.984375-2.96875 2.9845073 2.9693751 0 0 0-.000977-.01857zm-3.088867 2.982422a2.9845073 2.9693751 0 0 1-2.878906-2.963868 2.9845073 2.9693751 0 0 1 .000976-.01855h-9.02832v3.963867h11.90625zm-2.87793-2.982422h2.87793V14.0462h-2.820312a2.9845073 2.9693751 0 0 0-.05762.563477zm3.461914-7.576172a1.3855932 1.3855932 0 0 1 1.385743 1.385742 1.3855932 1.3855932 0 0 1-1.385743 1.385743 1.3855932 1.3855932 0 0 1-1.385742-1.385743 1.3855932 1.3855932 0 0 1 1.385742-1.385742z" paint-order="markers fill stroke"/>
  <path fill="none" stroke="#e6e6e6" stroke-linecap="square" stroke-miterlimit="1.5" stroke-width="1.5165" d="M18.82610843 17.27257156l.08847257-.05014438 2.95851855 5.219882-.08847257.05014437z" paint-order="markers fill stroke"/>
</svg>
