<svg xmlns="http://www.w3.org/2000/svg" width="24" height="24">
  <g fill="#e6e6e6" transform="matrix(.5 0 0 .5 -.03903528 1.0641783)">
    <path d="M4.1875 12.203125c-.104078 0-.1875.08342-.1875.1875V29.8125c0 .104078.08342.1875.1875.1875h39.759766c.104078 0 .1875-.08342.1875-.1875V12.390625c0-.104078-.08342-.1875-.1875-.1875zm33.007812 2.644531a2.7711864 2.7711864 0 0 1 2.771485 2.771485 2.7711864 2.7711864 0 0 1-2.771485 2.771484 2.7711864 2.7711864 0 0 1-2.771484-2.771484 2.7711864 2.7711864 0 0 1 2.771484-2.771485z" paint-order="markers fill stroke"/>
    <rect width="24" height="8" x="12" y="2" paint-order="markers fill stroke" ry=".187867"/>
  </g>
  <rect width="11.905382" height="4.5279641" x="6.0688286" y="15.500259" fill="none" stroke="#e6e6e6" stroke-linecap="square" stroke-miterlimit="1.5" stroke-width="1.5165" paint-order="markers fill stroke" ry="0"/>
</svg>
