<?xml version="1.0" encoding="UTF-8" standalone="no"?>
<svg
   xmlns:dc="http://purl.org/dc/elements/1.1/"
   xmlns:cc="http://creativecommons.org/ns#"
   xmlns:rdf="http://www.w3.org/1999/02/22-rdf-syntax-ns#"
   xmlns:svg="http://www.w3.org/2000/svg"
   xmlns="http://www.w3.org/2000/svg"
   xmlns:sodipodi="http://sodipodi.sourceforge.net/DTD/sodipodi-0.dtd"
   xmlns:inkscape="http://www.inkscape.org/namespaces/inkscape"
   viewBox="0 0 24 24"
   version="1.1"
   id="svg6"
   sodipodi:docname="document-export.svg"
   inkscape:version="0.92.3 (2405546, 2018-03-11)"
   width="24"
   height="24"
   style="fill:#000000">
  <metadata
     id="metadata12">
    <rdf:RDF>
      <cc:Work
         rdf:about="">
        <dc:format>image/svg+xml</dc:format>
        <dc:type
           rdf:resource="http://purl.org/dc/dcmitype/StillImage" />
        <dc:title></dc:title>
      </cc:Work>
    </rdf:RDF>
  </metadata>
  <defs
     id="defs10" />
  <sodipodi:namedview
     pagecolor="#ffffff"
     bordercolor="#666666"
     borderopacity="1"
     objecttolerance="10"
     gridtolerance="10"
     guidetolerance="10"
     inkscape:pageopacity="0"
     inkscape:pageshadow="2"
     inkscape:window-width="1366"
     inkscape:window-height="719"
     id="namedview8"
     showgrid="false"
     inkscape:zoom="20.625"
     inkscape:cx="1.8666666"
     inkscape:cy="11.806061"
     inkscape:window-x="0"
     inkscape:window-y="25"
     inkscape:window-maximized="1"
     inkscape:current-layer="svg6"
     showguides="true"
     inkscape:guide-bbox="true" />
  <path
     style="fill:#e6e6e6;stroke-width:0.5"
     d="M 3.15625 3.0234375 C 2.05125 3.0234375 1.15625 3.9184375 1.15625 5.0234375 L 1.15625 19.023438 C 1.15625 20.128438 2.05125 21.023438 3.15625 21.023438 L 14.15625 21.023438 C 15.26125 21.023438 16.15625 20.128438 16.15625 19.023438 L 16.15625 14.523438 L 14.15625 14.523438 L 14.15625 19.023438 L 3.15625 19.023438 L 3.15625 5.0234375 L 14.15625 5.0234375 L 14.15625 9.5234375 L 16.15625 9.5234375 L 16.15625 5.0234375 C 16.15625 3.9184375 15.26125 3.0234375 14.15625 3.0234375 L 3.15625 3.0234375 z M 18.65625 8.0234375 L 18.65625 11.023438 L 8.65625 11.023438 L 8.65625 13.023438 L 18.65625 13.023438 L 18.65625 16.023438 L 22.65625 12.023438 L 18.65625 8.0234375 z "
     id="path2" />
</svg>
