<svg xmlns="http://www.w3.org/2000/svg" width="24" height="24" viewBox="0 0 6.35 6.35">
  <path fill="#e6e6e6" d="M3.1751279.06068A3.1142918 3.1142918 0 0 0 .06070837 3.17514 3.1142918 3.1142918 0 0 0 3.1751279 6.28932a3.1142918 3.1142918 0 0 0 3.1141638-3.11418A3.1142918 3.1142918 0 0 0 3.1751279.06068zm-.00896.4637a2.6774305 2.6774305 0 0 1 2.6773619 2.67738 2.6774305 2.6774305 0 0 1-2.6773619 2.67737A2.6774305 2.6774305 0 0 1 .48854987 3.20176 2.6774305 2.6774305 0 0 1 3.1661679.52438zm1.350068 1.1781l.0005099.006a.22062151.22062151 0 0 0-.032244.0005v.00028a.22062151.22062151 0 0 0-.110032.0688L3.2012208 2.949l-.7308177-.72749a.22062151.22062151 0 1 0-.3039955.30323l.883327.88334a.22062151.22062151 0 0 0 .3034841 0l1.3244799-1.3245a.22062151.22062151 0 0 0-.1614656-.37964z"/>
</svg>
