<?xml version="1.0" encoding="UTF-8" standalone="no"?>
<svg
   xmlns:dc="http://purl.org/dc/elements/1.1/"
   xmlns:cc="http://creativecommons.org/ns#"
   xmlns:rdf="http://www.w3.org/1999/02/22-rdf-syntax-ns#"
   xmlns:svg="http://www.w3.org/2000/svg"
   xmlns="http://www.w3.org/2000/svg"
   xmlns:sodipodi="http://sodipodi.sourceforge.net/DTD/sodipodi-0.dtd"
   xmlns:inkscape="http://www.inkscape.org/namespaces/inkscape"
   height="24"
   version="1.1"
   viewBox="0 0 24 24"
   width="24"
   id="svg10"
   sodipodi:docname="document-print-preview.svg"
   inkscape:version="0.92.3 (2405546, 2018-03-11)"
   style="fill:#000000">
  <metadata
     id="metadata16">
    <rdf:RDF>
      <cc:Work
         rdf:about="">
        <dc:format>image/svg+xml</dc:format>
        <dc:type
           rdf:resource="http://purl.org/dc/dcmitype/StillImage" />
        <dc:title></dc:title>
      </cc:Work>
    </rdf:RDF>
  </metadata>
  <defs
     id="defs14" />
  <sodipodi:namedview
     pagecolor="#ffffff"
     bordercolor="#666666"
     borderopacity="1"
     objecttolerance="10"
     gridtolerance="10"
     guidetolerance="10"
     inkscape:pageopacity="0"
     inkscape:pageshadow="2"
     inkscape:window-width="1366"
     inkscape:window-height="719"
     id="namedview12"
     showgrid="false"
     inkscape:zoom="7.2920387"
     inkscape:cx="0.66987799"
     inkscape:cy="3.223305"
     inkscape:window-x="0"
     inkscape:window-y="25"
     inkscape:window-maximized="1"
     inkscape:current-layer="g4524" />
  <g
     id="g4524"
     transform="translate(0,-24)">
    <path
       inkscape:connector-curvature="0"
       id="rect812"
       d="m 5.216167,24.609677 c -0.052039,0 -0.09375,0.04171 -0.09375,0.09375 v 3.8125 c 0,0.05204 0.041711,0.09375 0.09375,0.09375 h 11.8125 c 0.05204,0 0.09375,-0.04171 0.09375,-0.09375 v -3.8125 c 0,-0.05204 -0.04171,-0.09375 -0.09375,-0.09375 z m -4,5.101563 c -0.052039,0 -0.09375,0.04171 -0.09375,0.09375 v 8.710937 c 0,0.05204 0.04171,0.09375 0.09375,0.09375 H 5.229839 V 38.0462 h 9.085938 a 2.9845073,2.9693751 0 0 1 2.925781,-2.387695 2.9845073,2.9693751 0 0 1 2.983398,2.951172 h 0.871094 c 0.05204,0 0.09375,-0.04171 0.09375,-0.09375 V 29.80499 c 0,-0.05204 -0.04171,-0.09375 -0.09375,-0.09375 z m 19.008789,8.898437 h -3.088867 v 2.982422 a 2.9845073,2.9693751 0 0 0 0.105469,0.0049 2.9845073,2.9693751 0 0 0 2.984375,-2.96875 2.9845073,2.9693751 0 0 0 -9.77e-4,-0.01857 z m -3.088867,2.982422 a 2.9845073,2.9693751 0 0 1 -2.878906,-2.963868 2.9845073,2.9693751 0 0 1 9.76e-4,-0.01855 h -9.02832 v 3.963867 h 11.90625 z m -2.87793,-2.982422 h 2.87793 V 38.0462 h -2.820312 a 2.9845073,2.9693751 0 0 0 -0.05762,0.563477 z m 3.461914,-7.576172 a 1.3855932,1.3855932 0 0 1 1.385743,1.385742 1.3855932,1.3855932 0 0 1 -1.385743,1.385743 1.3855932,1.3855932 0 0 1 -1.385742,-1.385743 1.3855932,1.3855932 0 0 1 1.385742,-1.385742 z"
       style="opacity:1;fill:#e6e6e6;fill-opacity:1;stroke:none;stroke-width:2.66650009;stroke-linecap:butt;stroke-linejoin:round;stroke-miterlimit:4;stroke-dasharray:none;stroke-dashoffset:0;stroke-opacity:1;paint-order:markers fill stroke" />
    <rect
       transform="rotate(-29.543646)"
       y="45.189224"
       x="-3.9726007"
       height="6"
       width="0.10169491"
       id="rect880"
       style="opacity:1;fill:none;fill-opacity:1;stroke:#e6e6e6;stroke-width:1.5165;stroke-linecap:square;stroke-linejoin:miter;stroke-miterlimit:1.5;stroke-dasharray:none;stroke-dashoffset:0;stroke-opacity:1;paint-order:markers fill stroke" />
  </g>
</svg>
