<svg xmlns="http://www.w3.org/2000/svg" width="24" height="24">
  <path fill="#e6e6e6" d="M3.1917822 4.0920383H16.412121c.608136 0 1.088475.308475 1.405763.7755935l4.763729 7.1522032-4.763729 7.152203c-.317288.467119-.797627.784407-1.405763.784407H3.1917822c-.973898 0-1.762712-.788813-1.762712-1.762712V5.8547503c0-.973898.788814-1.762712 1.762712-1.762712m2.644068 11.0918647l1.247119 1.247119 3.1596608-3.159661 3.159661 3.159661 1.247118-1.247119-3.159661-3.159661 3.159661-3.1596612-1.247118-1.2471185-3.159661 3.1596607-3.1596608-3.1596607-1.247119 1.2471185 3.159661 3.1596612-3.159661 3.159661"/>
</svg>
