<svg xmlns="http://www.w3.org/2000/svg" width="24" height="24">
  <path fill="#e6e6e6" d="M3 5.0000001h2.0000001V3C3.895 3 3 3.895 3 5.0000001m0 8.0000009h2.0000001v-2.000002H3v2.000002M7 21h1.9999998v-2.000002H7V21M3 8.9999998h2.0000001V7H3v1.9999998M13.000001 3h-2.000002v2.0000001h2.000002V3m5.999997 0v2.0000001H21C21 3.895 20.105 3 18.999998 3M5.0000001 21v-2.000002H3C3 20.105 3.895 21 5.0000001 21M3 16.999999h2.0000001v-1.999998H3v1.999998M8.9999998 3H7v2.0000001h1.9999998V3m1.9999992 18h2.000002v-2.000002h-2.000002V21m7.999999-7.999999H21v-2.000002h-2.000002v2.000002m0 7.999999C20.105 21 21 20.105 21 18.999998h-2.000002V21m0-12.0000002H21V7h-2.000002v1.9999998m0 7.9999992H21v-1.999998h-2.000002v1.999998M15.000002 21h1.999997v-2.000002h-1.999998V21m0-15.9999999h1.999998V3h-1.999998v2.0000001M7 16.999999h9.999999V7H7v9.999999m1.9999998-7.9999992h6.0000022v6.0000022H8.9999998V8.9999998"/>
</svg>
