<svg xmlns="http://www.w3.org/2000/svg" width="24" height="24">
  <path fill="#e6e6e6" d="M20.818901 19.956445H7.5985622c-.608136 0-1.088475-.308475-1.405763-.775593l-4.7637289-7.152204 4.7637289-7.1522027c.317288-.467119.797627-.784407 1.405763-.784407H20.818901c.973898 0 1.762712.788813 1.762712 1.762712V18.193733c0 .973898-.788814 1.762712-1.762712 1.762712M18.174833 8.8645803l-1.247119-1.247119-3.159661 3.1596607-3.159661-3.1596607-1.2471177 1.247119 3.1596607 3.1596607-3.1596607 3.159661 1.2471177 1.247119 3.159661-3.159661 3.159661 3.159661 1.247119-1.247119-3.159661-3.159661 3.159661-3.1596607"/>
</svg>
