<svg xmlns="http://www.w3.org/2000/svg" width="24" height="24" version="1">
  <path fill="#e6e6e6" d="M11.975758.55979111c-6.33996705 0-11.49814431 5.15782626-11.49814431 11.4981443 0 6.34031805 5.15782626 11.49814431 11.4981443 11.49814431 6.34031805 0 11.49814431-5.15782626 11.49814431-11.4981443 0-6.34031805-5.15817725-11.49814431-11.4981443-11.49814431zM2.5835652 12.05793541c0-5.17888577 4.213307-9.39219278 9.39219279-9.39219278 2.33339428 0 4.4695311.85747326 6.11392825 2.2716197L4.85518492 18.17186368C3.44103847 16.52746653 2.5835652 14.3913297 2.5835652 12.05793542zm9.39219279 9.3921928c-2.08769994 0-4.01780451-.68548723-5.57901657-1.8420056L19.5255942 6.47926984c1.15651837 1.56121206 1.8420056 3.49131663 1.8420056 5.57901657.00035098 5.17853479-4.21295602 9.3918418-9.3918418 9.3918418z"/>
</svg>
