<?xml version="1.0" encoding="UTF-8" standalone="no"?>
<svg
   xmlns:dc="http://purl.org/dc/elements/1.1/"
   xmlns:cc="http://creativecommons.org/ns#"
   xmlns:rdf="http://www.w3.org/1999/02/22-rdf-syntax-ns#"
   xmlns:svg="http://www.w3.org/2000/svg"
   xmlns="http://www.w3.org/2000/svg"
   xmlns:sodipodi="http://sodipodi.sourceforge.net/DTD/sodipodi-0.dtd"
   xmlns:inkscape="http://www.inkscape.org/namespaces/inkscape"
   viewBox="0 0 24 24"
   version="1.1"
   id="svg4"
   sodipodi:docname="edit-find-replace.svg"
   inkscape:version="0.92.3 (2405546, 2018-03-11)"
   width="24"
   height="24"
   style="fill:#000000">
  <metadata
     id="metadata10">
    <rdf:RDF>
      <cc:Work
         rdf:about="">
        <dc:format>image/svg+xml</dc:format>
        <dc:type
           rdf:resource="http://purl.org/dc/dcmitype/StillImage" />
        <dc:title></dc:title>
      </cc:Work>
    </rdf:RDF>
  </metadata>
  <defs
     id="defs8" />
  <sodipodi:namedview
     pagecolor="#ffffff"
     bordercolor="#666666"
     borderopacity="1"
     objecttolerance="10"
     gridtolerance="10"
     guidetolerance="10"
     inkscape:pageopacity="0"
     inkscape:pageshadow="2"
     inkscape:window-width="1366"
     inkscape:window-height="719"
     id="namedview6"
     showgrid="false"
     inkscape:zoom="22.5"
     inkscape:cx="11.4"
     inkscape:cy="11.822222"
     inkscape:window-x="0"
     inkscape:window-y="25"
     inkscape:window-maximized="1"
     inkscape:current-layer="svg4"
     showguides="true"
     inkscape:guide-bbox="true" />
  <path
     d="m 10.255,5.255 c 1.38,0 2.63,0.56 3.535,1.465 l -2.535,2.535 h 6 v -6 l -2.05,2.05 C 13.94,4.04 12.19,3.255 10.255,3.255 c -3.525,0 -6.435,2.61 -6.92,6 h 2.02 c 0.465,-2.28 2.48,-4 4.9,-4 z m 5.64,9.135 c 0.665,-0.905 1.115,-1.975 1.28,-3.135 h -2.02 c -0.465,2.28 -2.48,4 -4.9,4 -1.38,0 -2.63,-0.56 -3.535,-1.465 l 2.535,-2.535 h -6 v 6 l 2.05,-2.05 c 1.265,1.265 3.015,2.05 4.95,2.05 1.55,0 2.98,-0.51 4.14,-1.365 l 4.86,4.855 1.49,-1.49 z"
     id="path2"
     style="fill:#e6e6e6;stroke-width:0.5"
     inkscape:connector-curvature="0" />
</svg>
