<svg xmlns="http://www.w3.org/2000/svg" width="24" height="24">
  <path fill="#e6e6e6" d="M7.64 14.36C7.14 14.135 6.585 14 6 14c-2.21 0-4 1.79-4 4s1.79 4 4 4 4-1.79 4-4c0-.585-.135-1.14-.36-1.64L12 14l2.36 2.36c-.225.5-.36 1.055-.36 1.64 0 2.21 1.79 4 4 4s4-1.79 4-4-1.79-4-4-4c-.585 0-1.14.135-1.64.36L14 12l7-7V2h-1zM8 18c0 1.105-.895 2-2 2s-2-.895-2-2 .895-2 2-2 2 .895 2 2zm12 0c0 1.105-.895 2-2 2s-2-.895-2-2 .895-2 2-2 2 .895 2 2zm-7.5-6c0 .275-.225.5-.5.5s-.5-.225-.5-.5.225-.5.5-.5.5.225.5.5zM3 5l6 6 2-2-7-7H3z"/>
</svg>
