<svg xmlns="http://www.w3.org/2000/svg" width="24" height="24" viewBox="0 0 6.35 6.35">
  <path fill="#e6e6e6" d="M3.175.04186A3.1335212 3.1335212 0 0 0 .04134115 3.17552 3.1335212 3.1335212 0 0 0 3.175 6.30814a3.1335212 3.1335212 0 0 0 3.1336588-3.13262A3.1335212 3.1335212 0 0 0 3.175.04186zm-.00879.4656a2.6939629 2.6939629 0 0 1 2.6938925 2.69441A2.6939629 2.6939629 0 0 1 3.16621 5.89628 2.6939629 2.6939629 0 0 1 .47180082 3.20187 2.6939629 2.6939629 0 0 1 3.16621.50746zm-.5353678.57723c-.8579774 0-1.5601115.70115-1.5601115 1.55856 0 .85743.7021341 1.55804 1.5601115 1.55804.3272812 0 .631129-.1022.8826335-.27595l1.0443805 1.04335a.28337578.28337578 0 1 0 .4004924-.40101L3.913968 3.52485c.1736593-.2512.276469-.55478.276469-.8816 0-.85741-.7016171-1.55856-1.5595948-1.55856zm0 .56689a.98775098.98775098 0 0 1 .9927041.99167c0 .55084-.4407419.99167-.9927041.99167a.98831764.98831764 0 0 1-.9937378-.99167c0-.55083.441776-.99167.9937378-.99167z"/>
</svg>
