<?xml version="1.0" encoding="UTF-8" standalone="no"?>
<svg
   xmlns:dc="http://purl.org/dc/elements/1.1/"
   xmlns:cc="http://creativecommons.org/ns#"
   xmlns:rdf="http://www.w3.org/1999/02/22-rdf-syntax-ns#"
   xmlns:svg="http://www.w3.org/2000/svg"
   xmlns="http://www.w3.org/2000/svg"
   xmlns:sodipodi="http://sodipodi.sourceforge.net/DTD/sodipodi-0.dtd"
   xmlns:inkscape="http://www.inkscape.org/namespaces/inkscape"
   viewBox="0 0 24 24"
   version="1.1"
   id="svg4"
   sodipodi:docname="error-correct.svg"
   inkscape:version="0.92.3 (2405546, 2018-03-11)"
   width="24"
   height="24"
   style="fill:#000000">
  <metadata
     id="metadata10">
    <rdf:RDF>
      <cc:Work
         rdf:about="">
        <dc:format>image/svg+xml</dc:format>
        <dc:type
           rdf:resource="http://purl.org/dc/dcmitype/StillImage" />
        <dc:title></dc:title>
      </cc:Work>
    </rdf:RDF>
  </metadata>
  <defs
     id="defs8" />
  <sodipodi:namedview
     pagecolor="#ffffff"
     bordercolor="#666666"
     borderopacity="1"
     objecttolerance="10"
     gridtolerance="10"
     guidetolerance="10"
     inkscape:pageopacity="0"
     inkscape:pageshadow="2"
     inkscape:window-width="1366"
     inkscape:window-height="719"
     id="namedview6"
     showgrid="false"
     inkscape:zoom="20.625"
     inkscape:cx="9.6484845"
     inkscape:cy="9.1480676"
     inkscape:window-x="0"
     inkscape:window-y="25"
     inkscape:window-maximized="1"
     inkscape:current-layer="svg4"
     showguides="true"
     inkscape:guide-bbox="true" />
  <path
     style="fill:#e6e6e6;stroke-width:0.5"
     d="M 11.572266 2.1972656 C 10.511405 2.266313 9.4633788 2.6621368 8.5878906 3.4003906 C 7.591905 4.2402533 6.9963871 5.3763376 6.8144531 6.5703125 L 4.3164062 6.3574219 L 7.1738281 9.7480469 L 10.5625 6.8886719 L 8.0527344 6.6757812 C 8.2043413 5.797319 8.6446963 4.962565 9.3808594 4.3417969 C 10.715744 3.2161584 12.578396 3.1322677 13.988281 4.0019531 L 14.630859 2.9570312 C 13.706757 2.386451 12.633127 2.1282183 11.572266 2.1972656 z M 17.636719 2.9316406 C 17.380469 2.9316406 17.124688 3.0276562 16.929688 3.2226562 L 15.099609 5.0527344 L 18.849609 8.8027344 L 20.679688 6.9726562 C 21.069688 6.5826563 21.069688 5.9485938 20.679688 5.5585938 L 18.34375 3.2226562 C 18.14875 3.0276562 17.892969 2.9316406 17.636719 2.9316406 z M 14.039062 6.1132812 L 2.9746094 17.177734 L 2.9746094 20.927734 L 6.7246094 20.927734 L 17.789062 9.8632812 L 14.039062 6.1132812 z "
     id="path2" />
</svg>
