<svg xmlns="http://www.w3.org/2000/svg" width="24" height="24">
  <path fill="#e6e6e6" d="M11.572266 2.1972656c-1.060861.0690474-2.1088872.4648712-2.9843754 1.203125-.9959856.8398627-1.5915035 1.975947-1.7734375 3.1699219l-2.4980469-.2128906 2.8574219 3.390625L10.5625 6.8886719l-2.5097656-.2128907c.1516069-.8784622.5919619-1.7132162 1.328125-2.3339843 1.3348846-1.1256385 3.1975366-1.2095292 4.6074216-.3398438l.642578-1.0449219c-.924102-.5705802-1.997732-.8288129-3.058593-.7597656zm6.064453.734375c-.25625 0-.512031.0960156-.707031.2910156l-1.830079 1.8300782 3.75 3.75 1.830079-1.8300782c.39-.3899999.39-1.0240624 0-1.4140624L18.34375 3.2226562c-.195-.195-.450781-.2910156-.707031-.2910156zm-3.597657 3.1816406L2.9746094 17.177734v3.75h3.75L17.789062 9.8632812l-3.75-3.75z"/>
</svg>
