<svg xmlns="http://www.w3.org/2000/svg" width="24" height="24">
  <path fill="#e6e6e6" d="M12 8.3636365c-2.0090908 0-3.6363635 1.6272727-3.6363635 3.6363635 0 2.009092 1.6272727 3.636365 3.6363635 3.636365 2.009092 0 3.636365-1.627273 3.636365-3.636365 0-2.0090908-1.627273-3.6363635-3.636365-3.6363635zm8.127275 2.7272715C19.709092 7.3 16.7 4.2909092 12.909092 3.8727275V2h-1.818184v1.8727275C7.3 4.2909092 4.2909092 7.3 3.8727275 11.090908H2v1.818184h1.8727275C4.2909092 16.7 7.3 19.709092 11.090908 20.127275V22h1.818184v-1.872725c3.790908-.418183 6.8-3.427275 7.218183-7.218183H22v-1.818184zM12 18.363635c-3.5136365 0-6.3636365-2.85-6.3636365-6.363635 0-3.5136365 2.85-6.3636365 6.3636365-6.3636365 3.513635 0 6.363635 2.85 6.363635 6.3636365 0 3.513635-2.85 6.363635-6.363635 6.363635z"/>
</svg>
