<?xml version="1.0" encoding="UTF-8" standalone="no"?>
<svg
   xmlns:dc="http://purl.org/dc/elements/1.1/"
   xmlns:cc="http://creativecommons.org/ns#"
   xmlns:rdf="http://www.w3.org/1999/02/22-rdf-syntax-ns#"
   xmlns:svg="http://www.w3.org/2000/svg"
   xmlns="http://www.w3.org/2000/svg"
   xmlns:sodipodi="http://sodipodi.sourceforge.net/DTD/sodipodi-0.dtd"
   xmlns:inkscape="http://www.inkscape.org/namespaces/inkscape"
   viewBox="0 0 24 24"
   version="1.1"
   id="svg4"
   sodipodi:docname="find-location.svg"
   inkscape:version="0.92.3 (2405546, 2018-03-11)"
   width="24"
   height="24"
   style="fill:#000000">
  <metadata
     id="metadata10">
    <rdf:RDF>
      <cc:Work
         rdf:about="">
        <dc:format>image/svg+xml</dc:format>
        <dc:type
           rdf:resource="http://purl.org/dc/dcmitype/StillImage" />
        <dc:title></dc:title>
      </cc:Work>
    </rdf:RDF>
  </metadata>
  <defs
     id="defs8" />
  <sodipodi:namedview
     pagecolor="#ffffff"
     bordercolor="#666666"
     borderopacity="1"
     objecttolerance="10"
     gridtolerance="10"
     guidetolerance="10"
     inkscape:pageopacity="0"
     inkscape:pageshadow="2"
     inkscape:window-width="1366"
     inkscape:window-height="719"
     id="namedview6"
     showgrid="false"
     inkscape:zoom="22.5"
     inkscape:cx="11.4"
     inkscape:cy="11.822222"
     inkscape:window-x="0"
     inkscape:window-y="25"
     inkscape:window-maximized="1"
     inkscape:current-layer="svg4"
     inkscape:snap-smooth-nodes="true" />
  <path
     inkscape:connector-curvature="0"
     d="m 12,8.3636365 c -2.0090908,0 -3.6363635,1.6272727 -3.6363635,3.6363635 0,2.009092 1.6272727,3.636365 3.6363635,3.636365 2.009092,0 3.636365,-1.627273 3.636365,-3.636365 0,-2.0090908 -1.627273,-3.6363635 -3.636365,-3.6363635 z m 8.127275,2.7272715 C 19.709092,7.3 16.7,4.2909092 12.909092,3.8727275 V 2 H 11.090908 V 3.8727275 C 7.3,4.2909092 4.2909092,7.3 3.8727275,11.090908 H 2 v 1.818184 H 3.8727275 C 4.2909092,16.7 7.3,19.709092 11.090908,20.127275 V 22 h 1.818184 V 20.127275 C 16.7,19.709092 19.709092,16.7 20.127275,12.909092 H 22 V 11.090908 Z M 12,18.363635 c -3.5136365,0 -6.3636365,-2.85 -6.3636365,-6.363635 0,-3.5136365 2.85,-6.3636365 6.3636365,-6.3636365 3.513635,0 6.363635,2.85 6.363635,6.3636365 0,3.513635 -2.85,6.363635 -6.363635,6.363635 z"
     id="path2"
     style="fill:#e6e6e6;stroke-width:0.45454532" />
</svg>
