<svg xmlns="http://www.w3.org/2000/svg" width="24" height="24" version="1">
  <defs>
    <linearGradient id="a">
      <stop offset="0"/>
      <stop offset="1" stop-opacity="0"/>
    </linearGradient>
  </defs>
  <path fill="#e6e6e6" d="M1.921875.59179688c-.759179 0-1.37109375.60993362-1.37109375 1.36914062v2.2851563c0 .0355199.00929875.06885.01171875.1035156v6.6835936H.54882812v2.138672c0 .759184.60995458 1.371094 1.36914068 1.371094h3.6191406v5.388672h-.0117188v2.138671c0 .759186.6099536 1.371094 1.3691406 1.371094H22.167969c.759187 0 1.36914-.611908 1.36914-1.371094v-1.832031h.001953v-9.220703H18.5625V2.1210938H8.6464844L7.1152344.59179688H1.921875zm.6035156 2.92773432H16.544922c.367179 0 .662109.2968905.662109.6640626v.5996093H2.9160156c-.02139 0-.0399168.0095298-.0605468.0117188-.242562.03275-.4316407.2415725-.4316407.5078125 0 .02807.011795.0532881.015625.0800781-.004.03339-.015625.0629863-.015625.0976563v2.3691406c0 .38708.2411886.6972656.5410157.6972656.299831 0 .5410156-.3101856.5410156-.6972656V5.8261719H17.207031v5.1914061h-3.585937l-1.529297-1.5292968H6.8984375c-.759184 0-1.3730469.6118858-1.3730469 1.3710938v2.234375h-3c-.367178 0-.6640625-.296889-.6640625-.664062V4.1816406c0-.367172.2968845-.6621094.6640625-.6621094zm5.0117188 9.0351568H23.513672l.005859 1.042968H8.1621094v2.023438c0 .387077-.2564208.699218-.5742188.699218-.317795 0-.5742187-.312141-.5742187-.699218v-2.367188c0-.03467.0135581-.064266.0175781-.097656-.0042-.02701-.0175781-.051998-.0175781-.080078 0-.26624.2018863-.475169.4589843-.507813.0219-.002.0417832-.013672.0644532-.013671z"/>
</svg>
