<svg xmlns="http://www.w3.org/2000/svg" width="24" height="24" version="1">
  <defs>
    <linearGradient id="a">
      <stop offset="0"/>
      <stop offset="1" stop-opacity="0"/>
    </linearGradient>
  </defs>
  <path fill="#e6e6e6" fill-opacity=".9953271" d="M1.8222656 2.7011719c-1.01204997 0-1.82812497.8121366-1.82812497 1.8242187v3.046875c0 .04734.012165.0905016.015625.1367188v8.9101566H-.0078125v2.853515c0 1.012052.81411788 1.826172 1.8261719 1.826172H22.177734c1.012056 0 1.826172-.81412 1.826172-1.826172v-2.443359h.003906V4.7382812H10.787109L8.7460938 2.7011719H1.8222656zm.8515625 4.0859375H23.972656l.009766 1.390625H3.5078125V10.875c0 .516004-.341976.931641-.765625.931641-.423645 0-.7636719-.415637-.7636719-.931641V7.71875c0-.046217.0161344-.0863474.0214844-.1308594-.0056-.036007-.0214844-.0680351-.0214844-.1054687 0-.3549181.2685971-.6342175.6113282-.6777344.0291899-.00266.0537643-.0175781.0839843-.0175781zM16.945312 11.166016h4v3h3v4h-3v3h-4v-3h-2.990234v-4h2.990234v-3z"/>
</svg>
