<svg xmlns="http://www.w3.org/2000/svg" xmlns:xlink="http://www.w3.org/1999/xlink" width="24" height="24"><path fill="#e6e6e6" stroke="#e6e6e6" stroke-linejoin="round" stroke-width=".494" d="M.611 3.277v7.506L13.178 23.78v.03l10.18-5.645v-7.527l-10.18 4.781v-.06z"/><path fill="none" stroke="#e6e6e6" stroke-linejoin="round" stroke-width=".494" d="M10.537.4s-1.112.175-.85.807c.261.633-.613.943-1.811 1.418-2.312.916-3.38 1.08-5.28.306-.686-.28-1.984.334-1.984.334L13.22 15.408l10.144-4.755z"/><path id="a" fill="#e6e6e6" stroke-width=".494" d="M5.083 5.81c.764.775 1.78 1.082 5.126-.24 3.425-1.352 3.076-1.548 2.313-2.225-.764-.676-1.104-.997-3.927.044C4.691 4.829 4.32 5.036 5.083 5.81z"/><use id="b" width="48" height="48" fill="#e6e6e6" transform="translate(3.586 3.01)" xlink:href="#a"/><use width="48" height="48" fill="#e6e6e6" transform="rotate(-2.947 77.55 -63.172)" xlink:href="#b"/></svg>