<svg xmlns="http://www.w3.org/2000/svg" xmlns:xlink="http://www.w3.org/1999/xlink" width="24" height="24">
  <path fill="#e6e6e6" stroke="#e6e6e6" stroke-linejoin="round" stroke-width=".49357012" d="M.611328 3.2773438v7.5058592l12.566406 12.996094v.0293l10.179688-5.644535v-7.527343l-10.179688 4.78125v-.06055z"/>
  <path fill="none" stroke="#e6e6e6" stroke-linejoin="round" stroke-width=".49357012" d="M10.536882.40068782s-1.11234.17406611-.850586.80664058c.261756.632575-.612192.9431493-1.810546 1.4179688-2.31217.916143-3.378936 1.0792481-5.279297.3056641-.686907-.2796206-1.984375.3339843-1.984375.3339843L13.2195 15.407524l10.143554-4.754883z"/>
  <path id="a" fill="#e6e6e6" stroke-width=".49357012" d="M5.08343 5.8101629c.763452.7743585 1.780015 1.081417 5.126038-.2399425 3.424629-1.3524012 3.075622-1.5487177 2.31217-2.2249182-.763453-.6762005-1.104088-.996976-3.926327.043625-3.904513 1.439653-4.275332 1.6468762-3.511881 2.4212357z"/>
  <use id="b" width="48" height="48" fill="#e6e6e6" transform="translate(3.585868 3.0103391)" xlink:href="#a"/>
  <use width="48" height="48" fill="#e6e6e6" transform="rotate(-2.947 77.549062 -63.172028)" xlink:href="#b"/>
</svg>
