<svg xmlns="http://www.w3.org/2000/svg" width="24" height="24">
  <path fill="#e6e6e6" d="M22.234721.47973755c-.383414 0-.768004.1488001-1.06183.44262444L18.917389 3.177864 16.66424.92236199c-.293823-.29382434-.676015-.44027012-1.059472-.44027012-.383457 0-.768003.14644578-1.061829.44027012-.587649.58764891-.587649 1.53600751 0 2.12365641l2.253149 2.2531476-2.253149 2.2531476c-.587649.5876489-.587649 1.5336535 0 2.1213026.587649.5876468 1.533655.5876468 2.121301 0l2.253149-2.2531482 2.255502 2.2531482c.587649.5876468 1.533653.5876468 2.121302 0 .587649-.5876491.587649-1.5336537 0-2.1213026L21.041046 5.299166l2.253147-2.2531476c.587649-.5876489.587649-1.5360075 0-2.12365641-.293824-.29382434-.676061-.44262444-1.059472-.44262444zM3.3101628 4.9106924c-.304349.0544913-.5608255.2835477-.6333299.6050771L.2847765 16.129343c-.096672.428705.17166254.852144.60036851.948817l1.90705279.428499c-.1175598.335455-.011656.715553.2990071.920564l7.5175531 4.960692c.366803.242059.857445.143136 1.099501-.223667l5.991913-9.080867c.242058-.366803.140785-.857445-.226022-1.0995l-4.890059-3.2255074.430852-1.9117617c.096676-.4287059-.171662-.8521452-.600369-.9488176L3.6256505 4.9177556c-.1071763-.0241681-.2140381-.0252265-.3154877-.0070632zm9.0243632 5.9495366l3.917698 2.587466c.304448.200907.386902.606704.185997.911151l-4.97482 7.536388c-.200905.304447-.606701.389257-.911147.188349l-6.2391226-4.120174c-.060599-.03998-.1057682-.09216-.1483266-.145972l5.506908 1.240761c.4287072.09668.8521472-.169309.9488202-.598014z"/>
</svg>
