<svg xmlns="http://www.w3.org/2000/svg" width="24" height="24" viewBox="0 0 6.35 6.35">
  <path fill="#e6e6e6" d="M3.1751279.06068A3.1142918 3.1142918 0 0 0 .06070833 3.17514 3.1142918 3.1142918 0 0 0 3.1751279 6.28932a3.1142918 3.1142918 0 0 0 3.1141634-3.11418A3.1142918 3.1142918 0 0 0 3.1751279.06068zm-.00896.4637a2.6774305 2.6774305 0 0 1 2.6773614 2.67738 2.6774305 2.6774305 0 0 1-2.6773614 2.67737A2.6774305 2.6774305 0 0 1 .48854993 3.20176 2.6774305 2.6774305 0 0 1 3.1661679.52438zm0 .26204L.72268793 3.22991l.47288207.47284.3940684-.39406v1.89152h1.2612742v-.94576c0-.17465.140591-.31524.3152546-.31524.174664 0 .3152549.14059.3152549.31524v.94576h1.2610202V3.30869l.394068.39406.473138-.47284zm.9457641.31524v.23647l.6305093.63046v-.86693z"/>
</svg>
