<svg xmlns="http://www.w3.org/2000/svg" width="24" height="24">
  <path fill="#e6e6e6" d="M3.780466 1.1691687c-.335893.023695-.666378.1322175-.95904.3228139-.110891.073277-.214985.1578935-.313412.256998l-.398032.3948984c-.787524.7817538-.790361 2.0417956-.0063 2.8269729L9.73526 12.61496c.546205.547026 1.323083.702148 2.012102.488925l6.672536 6.666264.197446.730251a.50439321.50469422 89.982474 0 0 .197451.278936l2.187614 1.516912a.50439321.50469422 89.982474 0 0 .645627-.05644l.95277-.949637a.50439321.50469422 89.982474 0 0 .05328-.648761l-1.485567-2.184475a.50439321.50469422 89.982474 0 0-.282069-.194308l-.752191-.22252-6.666265-6.656865c.203771-.678986.04374-1.4410599-.49519-1.9807622L5.34439 1.7583826c-.34303-.3440421-.778274-.536296-1.22544-.5798116v-.00316c-.111787-.010849-.22652-.014139-.338484-.00626zm14.006369.1504376v.00627c-.02642 0-.06487.00297-.09088.00942-1.204596.4226521-2.332631 1.2876257-2.870854 2.2596903-.426207.770012-.511796 1.6325547-.304009 2.444611-.232696.5892196-.639073 1.383873-1.510645 2.2565629l.861881.9590393c.456385.8162332.527605 1.4661782.445048 2.0183712.966864-.968072 2.717929-2.1871052 3.334697-2.3975989 1.512789.2606766 3.060098-.3769895 3.795414-1.7049595.538435-.9725757.667704-2.3892974.376096-3.6199045-.01049-.043545-.03247-.094604-.06271-.1222315-.05657-.06367-.141372-.086334-.225657-.075219-.08432.00604-.156358.049985-.197448.1253647L19.86162 6.152414c-.131967.2375494-.432876.3438683-.814874.3322162-.384291-.0060354-.839898-.1499119-1.300659-.3980326-.460649-.2483552-.823241-.5571843-1.040525-.8712844-.215221-.3119393-.288307-.6241506-.156703-.8618823l1.466766-2.64206c.05468-.095503.05194-.2170564-.0187-.3008752-.0531-.06367-.13092-.094795-.209985-.090888zM8.50358 12.533476l-6.274502 5.926613c-.670219.675834-.578774 1.829302.194315 2.59505.773084.765835 1.927997.84493 2.598183.16923l6.728947-7.239807c-1.232487.393564-2.302335-.172844-3.246943-1.447963zm-4.698041 6.139732v.0032c.251841-.000954.503609.09258.695773.282072.384351.380709.387257 1.007442.0063 1.391548-.380943.383774-1.00409.389105-1.388413.0032-.384354-.380433-.387252-1.007485-.0063-1.391531.190464-.192202.440796-.287439.69264-.28834z"/>
</svg>
