<svg xmlns="http://www.w3.org/2000/svg" width="24" height="24">
  <path fill="#e6e6e6" d="M12 .23046875A11.770509 11.770509 0 0 0 .22851562 12 11.770509 11.770509 0 0 0 12 23.769531 11.770509 11.770509 0 0 0 23.771484 12 11.770509 11.770509 0 0 0 12 .23046875zm-.033203 1.75195315A10.119383 10.119383 0 0 1 22.085938 12.101562a10.119383 10.119383 0 0 1-4.173829 8.171876c.273344-.934862-.908173-5.792606-.722656-6.375.198241-.622225 4.473605-4.2547289 4.275391-4.8769536-.19815-.6222613-5.750612-1.0002119-6.269532-1.3847656-.5189-.384554-2.587095-5.6542969-3.228515-5.6542969zm0 0c-.641411 0-2.7095967 5.2697429-3.2285158 5.6542969-.518901.3845538-6.0713173.7625412-6.2695312 1.3847656-.198241.6222247 4.0771767 4.2547286 4.2753906 4.8769536.185817.583334-1.0011864 5.457205-.7226562 6.380859a10.119383 10.119383 0 0 1-4.1757813-8.177735A10.119383 10.119383 0 0 1 11.966797 1.9824219zm0 15.7871091c.599611 0 4.751971 2.639786 5.714844 2.669922a10.119383 10.119383 0 0 1-5.714844 1.78125 10.119383 10.119383 0 0 1-5.7363282-1.78125c.9175279.013149 5.1317912-2.669922 5.7363282-2.669922z"/>
</svg>
