<svg xmlns="http://www.w3.org/2000/svg" width="24" height="24">
  <path fill="#e6e6e6" d="M5.9272727 1.9895415V15.989542h4.0000004V1.9895415zm8.0000003 0V15.989542h4V1.9895415zM9.4868431 17.733683c-.156241 0-.3128974.05997-.4326174.179687l-.574219.573243c-.239441.23944-.239441.625793 0 .865234l2.3701173 2.369141c.0012.0012.0018.0027.0029.0039l.574249.573248c.23944.239441.624817.239441.864258 0l.577148-.577148 2.370117-2.369141c.239441-.239441.239441-.625794 0-.865234l-.574219-.573243c-.23944-.23944-.624817-.23944-.864257 0l-1.941407 1.94043-1.9404289-1.94043c-.119721-.11972-.275399-.179687-.431641-.179687z"/>
</svg>
