<?xml version="1.0" encoding="UTF-8" standalone="no"?>
<svg
   xmlns:dc="http://purl.org/dc/elements/1.1/"
   xmlns:cc="http://creativecommons.org/ns#"
   xmlns:rdf="http://www.w3.org/1999/02/22-rdf-syntax-ns#"
   xmlns:svg="http://www.w3.org/2000/svg"
   xmlns="http://www.w3.org/2000/svg"
   xmlns:sodipodi="http://sodipodi.sourceforge.net/DTD/sodipodi-0.dtd"
   xmlns:inkscape="http://www.inkscape.org/namespaces/inkscape"
   viewBox="0 0 24 24"
   version="1.1"
   id="svg4"
   sodipodi:docname="mail-mark-notjunk.svg"
   inkscape:version="0.92.3 (2405546, 2018-03-11)"
   width="24"
   height="24"
   style="fill:#000000">
  <metadata
     id="metadata10">
    <rdf:RDF>
      <cc:Work
         rdf:about="">
        <dc:format>image/svg+xml</dc:format>
        <dc:type
           rdf:resource="http://purl.org/dc/dcmitype/StillImage" />
        <dc:title></dc:title>
      </cc:Work>
    </rdf:RDF>
  </metadata>
  <defs
     id="defs8" />
  <sodipodi:namedview
     pagecolor="#ffffff"
     bordercolor="#666666"
     borderopacity="1"
     objecttolerance="10"
     gridtolerance="10"
     guidetolerance="10"
     inkscape:pageopacity="0"
     inkscape:pageshadow="2"
     inkscape:window-width="1366"
     inkscape:window-height="719"
     id="namedview6"
     showgrid="false"
     inkscape:zoom="22.5"
     inkscape:cx="11.4"
     inkscape:cy="11.822222"
     inkscape:window-x="0"
     inkscape:window-y="25"
     inkscape:window-maximized="1"
     inkscape:current-layer="svg4" />
  <path
     inkscape:connector-curvature="0"
     style="fill:#e6e6e6;stroke-width:0.50672835"
     d="m 20.089344,2.7545813 c -0.07337,0 -0.146668,0.027906 -0.20289,0.084125 l -3.125485,3.1254841 h -1.832931 l -0.40578,-2.026913 H 5.4011514 V 17.324011 l -2.5623426,2.562341 c -0.1124393,0.112438 -0.1124393,0.29433 0,0.406766 l 0.8679699,0.86797 c 0.1124394,0.112443 0.2933391,0.112443 0.4057785,0 l 1.2885942,-1.288594 v 1.293544 h 2.026913 v -3.320456 l 3.7737386,-3.773739 h 1.901221 l 0.405778,2.026915 h 7.094199 V 5.9641904 H 19.310449 L 21.16119,4.1134443 c 0.112444,-0.1124392 0.112444,-0.2943287 0,-0.4067679 L 20.292231,2.838706 C 20.236011,2.782487 20.162711,2.754581 20.089344,2.7545813 Z M 7.4280644,14.071843 h 1.2252532 l -1.2252532,1.225254 z"
     id="path2" />
</svg>
