<svg xmlns="http://www.w3.org/2000/svg" width="24" height="24">
  <path fill="#e6e6e6" d="M20.089344 2.7545813c-.07337 0-.146668.027906-.20289.084125l-3.125485 3.1254841h-1.832931l-.40578-2.026913H5.4011514V17.324011l-2.5623426 2.562341c-.1124393.112438-.1124393.29433 0 .406766l.8679699.86797c.1124394.112443.2933391.112443.4057785 0l1.2885942-1.288594v1.293544h2.026913v-3.320456l3.7737386-3.773739h1.901221l.405778 2.026915h7.094199V5.9641904h-1.292552l1.850741-1.8507461c.112444-.1124392.112444-.2943287 0-.4067679l-.868959-.8679704c-.05622-.056219-.12952-.084125-.202887-.0841247zM7.4280644 14.071843h1.2252532l-1.2252532 1.225254z"/>
</svg>
