<svg xmlns="http://www.w3.org/2000/svg" width="24" height="24">
  <path fill="#c83737" d="M11.978516 3.9921875A7.9777765 7.962976 0 0 0 4 11.955078a7.9777765 7.962976 0 0 0 7.978516 7.962891 7.9777765 7.962976 0 0 0 7.976562-7.962891 7.9777765 7.962976 0 0 0-7.976562-7.9628905zm0 1.9960937a5.9777765 5.9666867 0 0 1 5.976562 5.9667968 5.9777765 5.9666867 0 0 1-5.976562 5.966797A5.9777765 5.9666867 0 0 1 6 11.955078a5.9777765 5.9666867 0 0 1 5.978516-5.9667968zm0 1.9960938A3.9777765 3.9703972 0 0 0 8 11.955078a3.9777765 3.9703972 0 0 0 3.978516 3.970703 3.9777765 3.9703972 0 0 0 3.976562-3.970703 3.9777765 3.9703972 0 0 0-3.976562-3.970703z"/>
</svg>
