<svg xmlns="http://www.w3.org/2000/svg" width="24" height="24">
  <path fill="#e6e6e6" d="M4.9765625 2.9707031c-1.105 0-2 .895-2 2V18.970703c0 1.105.895 2 2 2H18.976562c1.105001 0 2-.895 2-2V4.9707031c0-1.105-.895-2-2-2H4.9765625zm7.0253905 1.0664063A7.9777765 7.962976 0 0 1 19.976562 12a7.9777765 7.962976 0 0 1-7.974609 7.962891A7.9777765 7.962976 0 0 1 4.0234375 12a7.9777765 7.962976 0 0 1 7.9785155-7.9628906zm0 1.9960937A5.9777765 5.9666867 0 0 0 6.0234375 12a5.9777765 5.9666867 0 0 0 5.9785155 5.966797A5.9777765 5.9666867 0 0 0 17.976562 12a5.9777765 5.9666867 0 0 0-5.974609-5.9667969zm0 1.9960938A3.9777765 3.9703972 0 0 1 15.976562 12a3.9777765 3.9703972 0 0 1-3.974609 3.970703A3.9777765 3.9703972 0 0 1 8.0234375 12a3.9777765 3.9703972 0 0 1 3.9785155-3.9707031z"/>
</svg>
