<svg xmlns="http://www.w3.org/2000/svg" width="24" height="24" version="1">
  <path fill="#e6e6e6" d="M11.958984 2.3691406c-5.386067 0-9.773437 4.3873707-9.773437 9.7734374 0 5.386067 4.38737 9.771484 9.773437 9.771484s9.773438-4.385417 9.773438-9.771484c0-5.3860667-4.387371-9.7734374-9.773438-9.7734374zM8.255859 7.5195312c.20565 0 .411674.077689.56836.234375l3.134765 3.1347658 3.132813-3.1347658c.313371-.3133711.823347-.3133711 1.136719 0 .313371.3133712.313371.8233477 0 1.1367188l-3.134766 3.132813 3.134766 3.134765c.313371.313371.313371.821395 0 1.134766-.156686.156689-.352917.236328-.56836.236328-.215442 0-.411673-.07964-.568359-.236328l-3.132813-3.132813-3.134765 3.132813c-.156686.156689-.352917.236328-.56836.236328-.215442 0-.40972-.07964-.566406-.236328-.313371-.313371-.313371-.821395 0-1.134766l3.132813-3.134765-3.132813-3.132813c-.313371-.3133711-.313371-.8233475 0-1.1367188.156686-.1566855.360756-.234375.566406-.234375z"/>
</svg>
