<svg xmlns="http://www.w3.org/2000/svg" width="24" height="24">
  <path fill="#e6e6e6" d="M6.6015626 1.6448577a6.0712935 6.0712935 0 0 0-.5546875.0585938c-.1854776.0284469-.3689724.0687279-.5488281.1113281l-.0722656 1.8183593a4.2749821 4.2749821 0 0 0-.7773438.3867188L3.1679689 2.9827483c-.2982164.2442455-.5462734.5256072-.7910157.8203125l1.0097657 1.4902344a4.313365 4.313365 0 0 0-.3945313.7636719l-1.8007812.0332031a5.8938801 5.8938801 0 0 0-.1777344 1.1308594l1.6835938.6054687a4.1163337 4.1163337 0 0 0 .041016.4238282c.022385.1459562.051861.2785328.08789.4179687L1.4023439 9.7503265c.1393194.3626165.3048564.7055365.5078125 1.0273445l1.7285156-.507813c.1808136.222441.3861063.426218.6054688.607422l-.5175782 1.726562c.3218125.207812.644248.401301 1.0019532.544922l1.1015624-1.435547c.2756807.0758.565509.1202.8574219.138672l.6113281 1.712891a6.0712935 6.0712935 0 0 0 1.1074219-.169922l.00781-.205078 1.15625.626953a5.4952039 5.4952039 0 0 0-.033203.568359c0 .197127.01386.377077.033203.56836l-2.0976562 1.138672c.1104516.506685.2582562.995222.4609375 1.460937l2.3847656-.320312c.193574.330112.422998.640328.675782.923828l-1.0312507 2.171875c.3825917.339346.7660417.661921 1.2089847.923828l1.74414-1.673828c.348432.155821.722061.273971 1.103515.357422l.462894 2.384765a8.1050266 8.1050266 0 0 0 1.494141 0l.46289-2.384765c.380316-.08294.754271-.201097 1.101563-.357422l1.746094 1.675781c.441803-.26194.82558-.586435 1.207031-.925781l-1.029297-2.171875c.252782-.283433.482207-.593616.675781-.923828l2.382813.320312a7.8681845 7.8681845 0 0 0 .46289-1.460937l-2.099609-1.138672c.01938-.191081.03516-.371334.03516-.56836 0-.197126-.01579-.377075-.03516-.568359l2.099609-1.138672a7.8659073 7.8659073 0 0 0-.46289-1.460937l-2.382813.322265a5.7582358 5.7582358 0 0 0-.675781-.927734l1.029297-2.1679692c-.381452-.3392793-.765228-.6638414-1.207031-.9257812l-1.746094 1.671875a5.7104117 5.7104117 0 0 0-1.103516-.3554688l-.46289-2.3828125a8.1050266 8.1050266 0 0 0-.744141-.037109c-.250505 0-.502096.017295-.748047.037109l-.462891 2.3828125a5.7069958 5.7069958 0 0 0-1.103515.3554688l-.181641-.1738281a5.8938801 5.8938801 0 0 0 .154297-1.0273438l-1.683594-.6054688c-.0073-.143682-.01668-.2798993-.03906-.4257812-.02239-.1459562-.05382-.2765775-.08984-.4160156l1.425775-1.0820313a5.8921743 5.8921743 0 0 0-.509765-1.0273437l-1.726563.5078125a4.313365 4.313365 0 0 0-.6074218-.609375l.5175778-1.7226563c-.3209624-.2078917-.643133-.4050534-.9999996-.5488281L8.0742189 3.4944671a4.2775411 4.2775411 0 0 0-.8574219-.1367188zm.2167969 3.4042969a2.5589493 2.5589493 0 0 1 .5214844 5.0859374 2.5589493 2.5589493 0 0 1-.7753907-5.0585937 2.5589493 2.5589493 0 0 1 .2539063-.0273437zm8.4121095 5.9199224a3.4161342 3.4161342 0 0 1 0 6.832031 3.4161342 3.4161342 0 0 1 0-6.832031z"/>
</svg>
