<svg xmlns="http://www.w3.org/2000/svg" width="24" height="24" viewBox="0 0 6.35 6.35">
  <path fill="#e6e6e6" d="M3.17499996.00775146c-.09954313 0-.19940746.0079694-.29713952.0144694l-.18345123.94774576a2.26774997 2.26774997 0 0 0-.43873298.14055989L1.5626953.44700113c-.1760085.1041-.3285628.23204267-.4805908.36690267l.4097941.86247964a2.28811087 2.28811087 0 0 0-.26820069.36845295l-.94774574-.12764076a3.12652697 3.12652697 0 0 0-.18345135.57929279l.83354085.4521687a2.18359167 2.18359167 0 0 0-.0129191.22634284c0 .07819998.0052285.1503328.0129191.22634284l-.83354085.45216867c.04388923.20133998.10291292.3947496.18345135.5798095l.94774574-.1266071c.07692001.13115.16775358.25425268.26820069.36690248l-.4097941.86299647c.152028.13484013.3045823.26283285.4805908.36690273l.69298094-.66455898c.13845382.06200008.2871575.10895013.43873298.14211036l.18345123.94722895a3.22063926 3.22063926 0 0 0 .5937623 0l.18396797-.94722895c.15112312-.03310017.2996983-.08005022.4376994-.14211036l.69401452.66559244c.17555606-.10410004.32849925-.23309606.48007401-.36793619l-.40979407-.86299647c.10044616-.1126199.19179831-.23569242.26871745-.36690247l.94722896.1266071a3.12652697 3.12652697 0 0 0 .18396823-.5798095l-.8345744-.45216868c.00768984-.07579995.01395253-.1480529.01395253-.22634284 0-.07819998-.00626163-.1503328-.01395254-.22634284l.8345744-.4521687a3.12562183 3.12562183 0 0 0-.18396822-.57980958l-.94722896.1276408a2.28811087 2.28811087 0 0 0-.26871745-.36845296L5.26737864.8139038c-.15157476-.13481-.30451795-.26332944-.48007401-.36741943l-.69401451.66404214a2.26910738 2.26910738 0 0 0-.43821614-.1405599l-.1844847-.94774574a3.22063926 3.22063926 0 0 0-.29558932-.0144694zm0 1.81022542a1.35744999 1.35744999 0 0 1 .541569 2.60087482l.16536458-.99735506h.54466966L3.1718993 1.89807533l-1.24850253 1.5234213h.5446696l.16329753.99683834a1.35744999 1.35744999 0 0 1 .54363606-2.6003581z"/>
</svg>
