<?xml version="1.0" encoding="UTF-8" standalone="no"?>
<!-- Created with Inkscape (http://www.inkscape.org/) -->

<svg
   xmlns:dc="http://purl.org/dc/elements/1.1/"
   xmlns:cc="http://creativecommons.org/ns#"
   xmlns:rdf="http://www.w3.org/1999/02/22-rdf-syntax-ns#"
   xmlns:svg="http://www.w3.org/2000/svg"
   xmlns="http://www.w3.org/2000/svg"
   xmlns:sodipodi="http://sodipodi.sourceforge.net/DTD/sodipodi-0.dtd"
   xmlns:inkscape="http://www.inkscape.org/namespaces/inkscape"
   width="24"
   height="24"
   viewBox="0 0 6.35 6.35"
   version="1.1"
   id="svg829"
   inkscape:version="0.92.3 (2405546, 2018-03-11)"
   sodipodi:docname="system-run.svg">
  <defs
     id="defs823" />
  <sodipodi:namedview
     id="base"
     pagecolor="#ffffff"
     bordercolor="#666666"
     borderopacity="1.0"
     inkscape:pageopacity="0.0"
     inkscape:pageshadow="2"
     inkscape:zoom="11.145833"
     inkscape:cx="-10.115888"
     inkscape:cy="10.923363"
     inkscape:document-units="mm"
     inkscape:current-layer="layer1"
     showgrid="false"
     showguides="true"
     inkscape:guide-bbox="true"
     inkscape:window-width="1366"
     inkscape:window-height="719"
     inkscape:window-x="0"
     inkscape:window-y="25"
     inkscape:window-maximized="1"
     scale-x="1.9"
     units="px"
     inkscape:snap-global="false" />
  <metadata
     id="metadata826">
    <rdf:RDF>
      <cc:Work
         rdf:about="">
        <dc:format>image/svg+xml</dc:format>
        <dc:type
           rdf:resource="http://purl.org/dc/dcmitype/StillImage" />
        <dc:title></dc:title>
      </cc:Work>
    </rdf:RDF>
  </metadata>
  <g
     inkscape:label="Capa 1"
     inkscape:groupmode="layer"
     id="layer1"
     transform="translate(0,-290.65)">
    <path
       style="fill:#e6e6e6;fill-opacity:1;stroke-width:0.06922965"
       d="M 3.175,290.69186 A 3.1335212,3.1335212 0 0 0 0.04134117,293.82552 3.1335212,3.1335212 0 0 0 3.175,296.95814 3.1335212,3.1335212 0 0 0 6.3086588,293.82552 3.1335212,3.1335212 0 0 0 3.175,290.69186 Z m -0.00879,0.4656 A 2.6939629,2.6939629 0 0 1 5.8601025,293.85187 2.6939629,2.6939629 0 0 1 3.16621,296.54628 2.6939629,2.6939629 0 0 1 0.47180077,293.85187 2.6939629,2.6939629 0 0 1 3.16621,291.15746 Z M 3.175,291.4515 c -0.074595,0 -0.1494864,0.005 -0.2227255,0.0109 l -0.1374592,0.71004 a 1.6994194,1.6994194 0 0 0 -0.3286621,0.10542 L 1.966805,291.78073 c -0.1318983,0.078 -0.2462571,0.17387 -0.3601847,0.27492 l 0.306958,0.64647 a 1.7146776,1.7146776 0 0 0 -0.2010213,0.27595 l -0.7100342,-0.0956 a 2.3429745,2.3429745 0 0 0 -0.13745933,0.43408 l 0.62476813,0.339 a 1.6363524,1.6363524 0 0 0 -0.00982,0.1695 c 0,0.0587 0.00406,0.11254 0.00982,0.1695 l -0.62476813,0.339 c 0.03289,0.15088 0.077105,0.29591 0.13745933,0.43459 l 0.7100342,-0.0951 c 0.057642,0.0983 0.1257477,0.1905 0.2010213,0.27492 l -0.306958,0.64699 c 0.1139276,0.10105 0.2282864,0.19693 0.3601847,0.27492 l 0.5193482,-0.49816 c 0.1037554,0.0464 0.2150736,0.0816 0.3286621,0.10645 l 0.1374592,0.71003 a 2.413501,2.413501 0 0 0 0.4449342,0 l 0.137976,-0.71003 c 0.1132496,-0.0247 0.2247291,-0.0599 0.3281452,-0.10645 l 0.519865,0.49867 c 0.1315593,-0.078 0.2460797,-0.17438 0.3596679,-0.27543 l -0.3069579,-0.64699 c 0.075273,-0.0844 0.143896,-0.17659 0.2015381,-0.27492 l 0.7095173,0.0951 a 2.3429745,2.3429745 0 0 0 0.1379762,-0.43459 l -0.6252847,-0.339 c 0.00577,-0.0569 0.010335,-0.11083 0.010335,-0.1695 0,-0.0587 -0.00457,-0.11254 -0.010335,-0.1695 l 0.6252847,-0.339 a 2.3422964,2.3422964 0 0 0 -0.1379762,-0.43459 l -0.7095173,0.0956 A 1.7146776,1.7146776 0 0 0 4.4359049,292.7016 l 0.3069579,-0.64595 c -0.1135882,-0.10103 -0.2281086,-0.19744 -0.3596679,-0.27544 l -0.519865,0.49765 A 1.7004366,1.7004366 0 0 0 3.534668,292.17244 L 3.396692,291.4624 A 2.413501,2.413501 0 0 0 3.175,291.4515 Z m 0,1.35651 a 1.0172505,1.0172505 0 0 1 0,2.0345 1.0172505,1.0172505 0 0 1 0,-2.0345 z"
       id="path865"
       inkscape:connector-curvature="0" />
  </g>
</svg>
