<?xml version="1.0" encoding="UTF-8" standalone="no"?>
<!-- Created with Inkscape (http://www.inkscape.org/) -->

<svg
   xmlns:dc="http://purl.org/dc/elements/1.1/"
   xmlns:cc="http://creativecommons.org/ns#"
   xmlns:rdf="http://www.w3.org/1999/02/22-rdf-syntax-ns#"
   xmlns:svg="http://www.w3.org/2000/svg"
   xmlns="http://www.w3.org/2000/svg"
   xmlns:sodipodi="http://sodipodi.sourceforge.net/DTD/sodipodi-0.dtd"
   xmlns:inkscape="http://www.inkscape.org/namespaces/inkscape"
   width="24"
   height="24"
   viewBox="0 0 6.35 6.35"
   version="1.1"
   id="svg829"
   inkscape:version="0.92.3 (2405546, 2018-03-11)"
   sodipodi:docname="system-upgrade.svg">
  <defs
     id="defs823" />
  <sodipodi:namedview
     id="base"
     pagecolor="#ffffff"
     bordercolor="#666666"
     borderopacity="1.0"
     inkscape:pageopacity="0.0"
     inkscape:pageshadow="2"
     inkscape:zoom="11.208333"
     inkscape:cx="26.498141"
     inkscape:cy="11.643123"
     inkscape:document-units="mm"
     inkscape:current-layer="layer1"
     showgrid="false"
     showguides="true"
     inkscape:guide-bbox="true"
     inkscape:window-width="1366"
     inkscape:window-height="717"
     inkscape:window-x="0"
     inkscape:window-y="25"
     inkscape:window-maximized="1"
     scale-x="1.9"
     units="px"
     inkscape:snap-global="true" />
  <metadata
     id="metadata826">
    <rdf:RDF>
      <cc:Work
         rdf:about="">
        <dc:format>image/svg+xml</dc:format>
        <dc:type
           rdf:resource="http://purl.org/dc/dcmitype/StillImage" />
        <dc:title></dc:title>
      </cc:Work>
    </rdf:RDF>
  </metadata>
  <g
     inkscape:label="Capa 1"
     inkscape:groupmode="layer"
     id="layer1"
     transform="translate(0,-290.65)">
    <path
       style="fill:#333333;fill-opacity:1;stroke-width:0.34915978"
       d="M 12 0.029296875 C 11.623774 0.029296875 11.246334 0.059417446 10.876953 0.083984375 L 10.183594 3.6660156 A 8.5710236 8.5710236 0 0 0 8.5253906 4.1972656 L 5.90625 1.6894531 C 5.241021 2.0829019 4.6644378 2.5664648 4.0898438 3.0761719 L 5.6386719 6.3359375 A 8.6479782 8.6479782 0 0 0 4.625 7.7285156 L 1.0429688 7.2460938 A 11.816795 11.816795 0 0 0 0.34960938 9.4355469 L 3.5 11.144531 A 8.252945 8.252945 0 0 0 3.4511719 12 C 3.4511719 12.295559 3.4709332 12.568187 3.5 12.855469 L 0.34960938 14.564453 C 0.51548993 15.325423 0.73857157 16.05642 1.0429688 16.755859 L 4.625 16.277344 C 4.9157213 16.773029 5.2590293 17.238299 5.6386719 17.664062 L 4.0898438 20.925781 C 4.6644378 21.435413 5.241021 21.919165 5.90625 22.3125 L 8.5253906 19.800781 C 9.0486806 20.035112 9.6107103 20.212561 10.183594 20.337891 L 10.876953 23.917969 A 12.172495 12.172495 0 0 0 13.121094 23.917969 L 13.816406 20.337891 C 14.38758 20.212788 14.949124 20.035339 15.470703 19.800781 L 18.09375 22.316406 C 18.757269 21.922957 19.335322 21.435413 19.908203 20.925781 L 18.359375 17.664062 C 18.739014 17.238412 19.084282 16.773256 19.375 16.277344 L 22.955078 16.755859 A 11.816795 11.816795 0 0 0 23.650391 14.564453 L 20.496094 12.855469 C 20.525158 12.568981 20.548828 12.295899 20.548828 12 C 20.548828 11.704441 20.525162 11.431813 20.496094 11.144531 L 23.650391 9.4355469 A 11.813374 11.813374 0 0 0 22.955078 7.2441406 L 19.375 7.7265625 A 8.6479782 8.6479782 0 0 0 18.359375 6.3339844 L 19.908203 3.0761719 C 19.335322 2.5666538 18.757269 2.080911 18.09375 1.6875 L 15.470703 4.1972656 A 8.576154 8.576154 0 0 0 13.814453 3.6660156 L 13.117188 0.083984375 A 12.172495 12.172495 0 0 0 12 0.029296875 z M 12 6.8710938 A 5.1305197 5.1305197 0 0 1 14.046875 16.701172 L 14.671875 12.931641 L 16.730469 12.931641 L 11.988281 7.1738281 L 7.2695312 12.931641 L 9.328125 12.931641 L 9.9453125 16.699219 A 5.1305197 5.1305197 0 0 1 12 6.8710938 z "
       transform="matrix(0.26458333,0,0,0.26458333,0,290.65)"
       id="path818" />
  </g>
</svg>
