<svg xmlns="http://www.w3.org/2000/svg" width="24" height="24" version="1">
  <defs>
    <linearGradient id="a">
      <stop offset="0" stop-color="#fff"/>
      <stop offset="1" stop-color="#fff" stop-opacity="0"/>
    </linearGradient>
  </defs>
  <path fill="#e6e6e6" d="M12.208984 2.84375c-2.9545606 0-5.3320309 2.74118-5.3320309 6.1484375v1.3242185h-1.40625c-.5617114 0-1.0136719.453914-1.0136719 1.015625v9.052735c0 .561711.4519605 1.013672 1.0136719 1.013672H18.605469c.561711 0 1.013672-.451961 1.013672-1.013672v-9.052735c0-.561711-.451961-1.015625-1.013672-1.015625h-1.0625V8.9921875C17.542974 5.58493 15.163545 2.84375 12.208984 2.84375zm0 1.6464844c1.846561 0 3.333985 2.2289378 3.333985 4.9980468v.8281248H8.8769531v-.8281248c0-2.769109 1.4854699-4.9980468 3.3320309-4.9980468z"/>
</svg>
