<svg xmlns="http://www.w3.org/2000/svg" width="24" height="24">
  <path fill="#e6e6e6" d="M11.998047 1.6308594c-.489518 0-.977872.1868563-1.351563.5605468L5.9101562 6.9277344c-.375381.3753811-.5600243.8651076-.5566406 1.3554687V20.457031c.0000021.486979.1846423.977612.5566406 1.34961.3753825.375383.8665334.562495 1.3535157.5625h9.4687501c.490366-.0034.981516-.190501 1.353516-.5625.375382-.375383.560546-.865628.560546-1.359375V8.2792969c-.000001-.4869831-.185165-.9761811-.560546-1.3515625l-4.734376-4.7363282c-.373691-.3736906-.863997-.5605469-1.353515-.5605468zm0 2.5078125c.366927 0 .734934.1411843 1.015625.421875.561381.5613812.561381 1.4659623 0 2.0273437-.561381.5613814-1.467916.5613813-2.029297 0-.561381-.5613814-.561381-1.4659623 0-2.0273437.280691-.2806907.646745-.4218751 1.013672-.421875zm-.955078 6.0351561h1.914062v2.869141h2.869141v1.914062h-2.869141v2.869141h-1.914062v-2.869141H8.1738281v-1.914062h2.8691409v-2.869141z"/>
</svg>
