<svg xmlns="http://www.w3.org/2000/svg" width="24" height="24" version="1">
  <defs>
    <linearGradient id="a">
      <stop offset="0" stop-color="#c1b0e6"/>
      <stop offset="1" stop-color="#9c83d5"/>
    </linearGradient>
    <linearGradient id="c">
      <stop offset="0" stop-color="#7653c6"/>
      <stop offset="1" stop-color="#683fc5" stop-opacity="0"/>
    </linearGradient>
    <linearGradient id="b">
      <stop offset="0" stop-color="#9c83d5"/>
      <stop offset="1" stop-color="#9c83d5" stop-opacity="0"/>
    </linearGradient>
    <linearGradient id="d">
      <stop offset="0" stop-color="#fff"/>
      <stop offset="1" stop-color="#fff" stop-opacity="0"/>
    </linearGradient>
    <linearGradient id="e">
      <stop offset="0" stop-color="#fff" stop-opacity="0"/>
      <stop offset=".63129705" stop-color="#fff" stop-opacity=".27472529"/>
      <stop offset="1" stop-color="#fff" stop-opacity="0"/>
    </linearGradient>
  </defs>
  <path fill="#e6e6e6" d="M11.806641 3c-4.9725001 0-8.9902348 4.0275-8.9902348 9s4.0177347 9 8.9902348 9c4.190625 0 7.699687-2.86875 8.695312-6.75h-2.339844c-.928125 2.62125-3.413593 4.5-6.355468 4.5-3.7293751 0-6.7500004-3.020625-6.7500004-6.75s3.0206253-6.75 6.7500004-6.75c1.861875 0 3.531328.7754688 4.751953 1.9960938L12.931641 10.875h7.875V3l-2.644532 2.6445312C16.536484 4.0132812 14.292891 3 11.806641 3zM12 11.005859A.99360561.99360561 0 0 0 11.005859 12 .99360561.99360561 0 0 0 12 12.994141.99360561.99360561 0 0 0 12.994141 12 .99360561.99360561 0 0 0 12 11.005859z"/>
</svg>
