<svg xmlns="http://www.w3.org/2000/svg" width="24" height="24">
  <path fill="#e6e6e6" d="M3.56639984.49999971s-1.5332031-.00013007-1.5332031 1.5332031v15.3339849c0 1.533333 1.5332031 1.533203 1.5332031 1.533203h12.2675778s1.53320401.00013 1.53320401-1.533203V2.03320282c0-1.53333317-1.533204-1.5332031-1.533204-1.5332031H3.56639985zm.7675782 1.5332031h10.7324216s.767578.0009115.767578.7675781v13.7988278s-.000911.767579-.767578.767579H4.33397805s-.7675782-.000912-.7675782-.767579V2.80078092c0-.7666666.7675782-.7675781.7675782-.7675781zm14.56640661 3.0664063v1.5332031h.765625s.767578.0009115.767578.7675781v13.7988284s-.000912.767578-.767578.767578H8.93358745s-.7675782-.000912-.7675782-.767578v-.765625h-1.5332031v1.533203c0 1.533333 1.5332031 1.533203 1.5332031 1.533203h12.2675784s1.533203.00013 1.533203-1.533203V6.63281222c0-1.5333332-1.533203-1.5332031-1.533203-1.5332031h-1.533203z" color="#bebebe" overflow="visible" style="marker:none"/>
</svg>
