<svg xmlns="http://www.w3.org/2000/svg" width="24" height="24">
  <path fill="#e6e6e6" d="M1.5522444 9.7370945l2.7906437 2.7906435 2.7906433-2.7906435H1.5527285m8.1293719-6.2779799c-3.4708755 0-6.283306 2.8095256-6.2920207 6.2779799h1.9375707c.0092-2.3984817 1.955968-4.3413777 4.35445-4.3413777 2.4062266 0 4.3573536 1.9511266 4.3573536 4.3573547 0 2.4062265-1.951127 4.3573565-4.3573536 4.3573565-.9169815 0-1.76715-.28468-2.469168-.768831l-1.335287 1.354168c1.0128429.704438 2.474493 1.351263 3.80397 1.351263 1.5638086 0 2.9915686-.57178 4.0905886-1.515875l.266767.266765v.76496l4.841503 4.83182 1.44277-1.442768-4.83182-4.841502h-.7698l-.26677-.26677c.948938-1.09902 1.52072-2.52678 1.52072-4.0905865 0-3.4762008-2.81776-6.2939569-6.2939586-6.2939569m0 4.8850788c-.777061 0-1.4059728.6298799-1.4059728 1.4069415 0 .7770621.6289118 1.4059731 1.4059728 1.4059731.7770596 0 1.4069396-.628911 1.4069396-1.4059731 0-.7770616-.62988-1.4069415-1.4069396-1.4069415"/>
</svg>
