<svg xmlns="http://www.w3.org/2000/svg" width="24" height="24"><path fill="#e6e6e6" d="M1.552 9.737l2.79 2.79 2.792-2.79H1.553m8.13-6.278A6.292 6.292 0 0 0 3.39 9.737h1.938a4.357 4.357 0 0 1 4.354-4.341 4.358 4.358 0 1 1-2.47 7.946l-1.334 1.354c1.012.704 2.474 1.351 3.804 1.351a6.254 6.254 0 0 0 4.09-1.516l.267.267v.765l4.841 4.832 1.443-1.443-4.832-4.842h-.77l-.266-.266a6.233 6.233 0 0 0 1.52-4.09 6.294 6.294 0 0 0-6.293-6.295m0 4.885a1.406 1.406 0 1 0 0 2.812 1.406 1.406 0 0 0 0-2.812"/></svg>