<?xml version="1.0" encoding="UTF-8" standalone="no"?>
<svg
   xmlns:dc="http://purl.org/dc/elements/1.1/"
   xmlns:cc="http://creativecommons.org/ns#"
   xmlns:rdf="http://www.w3.org/1999/02/22-rdf-syntax-ns#"
   xmlns:svg="http://www.w3.org/2000/svg"
   xmlns="http://www.w3.org/2000/svg"
   xmlns:sodipodi="http://sodipodi.sourceforge.net/DTD/sodipodi-0.dtd"
   xmlns:inkscape="http://www.inkscape.org/namespaces/inkscape"
   viewBox="0 0 24 24"
   version="1.1"
   id="svg4"
   sodipodi:docname="zoom-original.svg"
   inkscape:version="0.92.3 (2405546, 2018-03-11)"
   width="24"
   height="24"
   style="fill:#000000">
  <metadata
     id="metadata10">
    <rdf:RDF>
      <cc:Work
         rdf:about="">
        <dc:format>image/svg+xml</dc:format>
        <dc:type
           rdf:resource="http://purl.org/dc/dcmitype/StillImage" />
        <dc:title></dc:title>
      </cc:Work>
    </rdf:RDF>
  </metadata>
  <defs
     id="defs8" />
  <sodipodi:namedview
     pagecolor="#ffffff"
     bordercolor="#666666"
     borderopacity="1"
     objecttolerance="10"
     gridtolerance="10"
     guidetolerance="10"
     inkscape:pageopacity="0"
     inkscape:pageshadow="2"
     inkscape:window-width="1366"
     inkscape:window-height="719"
     id="namedview6"
     showgrid="false"
     inkscape:zoom="22.416667"
     inkscape:cx="10.79554"
     inkscape:cy="11.643122"
     inkscape:window-x="0"
     inkscape:window-y="25"
     inkscape:window-maximized="1"
     inkscape:current-layer="svg4"
     showguides="true"
     inkscape:guide-bbox="true" />
  <path
     inkscape:connector-curvature="0"
     d="M 1.5522444,9.7370945 4.3428881,12.527738 7.1335314,9.7370945 H 5.0410333 3.6461954 1.5527285 M 9.6821004,3.4591146 c -3.4708755,0 -6.283306,2.8095256 -6.2920207,6.2779799 h 0.2561157 1.3948379 0.2866171 c 0.0092,-2.3984817 1.955968,-4.3413777 4.35445,-4.3413777 2.4062266,0 4.3573536,1.9511266 4.3573536,4.3573547 0,2.4062265 -1.951127,4.3573565 -4.3573536,4.3573565 -0.9169815,0 -1.76715,-0.28468 -2.469168,-0.768831 l -1.335287,1.354168 c 1.0128429,0.704438 2.474493,1.351263 3.80397,1.351263 1.5638086,0 2.9915686,-0.57178 4.0905886,-1.515875 l 0.266767,0.266765 v 0.76496 l 4.841503,4.83182 1.44277,-1.442768 -4.83182,-4.841502 h -0.7698 l -0.26677,-0.26677 c 0.948938,-1.09902 1.52072,-2.52678 1.52072,-4.0905865 0,-3.4762008 -2.81776,-6.2939569 -6.2939586,-6.2939569 m 0,4.8850788 c -0.777061,0 -1.4059728,0.6298799 -1.4059728,1.4069415 0,0.7770621 0.6289118,1.4059731 1.4059728,1.4059731 0.7770596,0 1.4069396,-0.628911 1.4069396,-1.4059731 0,-0.7770616 -0.62988,-1.4069415 -1.4069396,-1.4069415"
     id="path2-6"
     style="fill:#e6e6e6;stroke-width:0.48415044" />
</svg>
