<svg xmlns="http://www.w3.org/2000/svg" width="24" height="24">
  <path fill="#e6e6e6" d="M9.8204629 3.51C6.3351456 3.51 3.51 6.3351456 3.51 9.8204629c0 3.4853191 2.8251456 6.3104611 6.3104629 6.3104611 1.5679061 0 2.9994121-.573279 4.1013151-1.519847l.267466.267464v.766967L19.043447 20.49 20.49 19.043447l-4.844492-4.854203h-.771819l-.267467-.267466c.951423-1.101903 1.524702-2.533409 1.524702-4.1013151C16.130924 6.3351456 13.305782 3.51 9.8204629 3.51m0 1.941681c2.4125411 0 4.3687811 1.9562435 4.3687811 4.3687819 0 2.4125411-1.95624 4.3687811-4.3687811 4.3687811-2.4125384 0-4.3687819-1.95624-4.3687819-4.3687811 0-2.4125384 1.9562435-4.3687819 4.3687819-4.3687819M7.8787821 9.3350429v.9708411h3.8833619v-.9708411H7.8787821"/>
</svg>
