<svg xmlns="http://www.w3.org/2000/svg" width="48" height="48" viewBox="0 0 12.7 12.7"><path d="M6.34.07a6.29 6.29 0 0 0-6.29 6.3 6.29 6.29 0 0 0 6.3 6.28 6.29 6.29 0 0 0 6.28-6.29A6.29 6.29 0 0 0 6.34.07zM6.32 1l.01.01a5.4 5.4 0 0 1 5.4 5.4 5.4 5.4 0 0 1-5.4 5.41 5.4 5.4 0 0 1-5.41-5.4A5.4 5.4 0 0 1 6.32 1zm1.69 1.12l-1.13.56v1.73L4.84 5.6 3 4.53l-.07 1.26.78.45-1.91 1.1 1.05.7 2-1.15 2.03 1.18v2.51L8 10.02v-1.3l1.76 1.02.07-1.26-1.83-1.06V5.07l1.68-.98-1.05-.7-.63.37zm-1.13 3.6v1.04l-.9-.52z" fill="#ff7f2a"/></svg>
