<svg xmlns="http://www.w3.org/2000/svg" width="48" height="48" viewBox="0 0 12.7 12.7"><path fill="#ff7f2a" d="M6.34.07a6.29 6.29 0 0 0-6.29 6.3 6.29 6.29 0 0 0 6.3 6.28 6.29 6.29 0 0 0 6.28-6.29A6.29 6.29 0 0 0 6.34.07zm-.01.94a5.4 5.4 0 0 1 5.4 5.4 5.4 5.4 0 0 1-5.4 5.41 5.4 5.4 0 0 1-5.41-5.4A5.4 5.4 0 0 1 6.32 1zM3.64 2.5a.38.38 0 0 0-.38.38v6.92c0 .2.17.37.38.37h5.42a.38.38 0 0 0 .38-.37V2.89a.38.38 0 0 0-.38-.37H3.64zm.33.66h4.76c.12 0 .22.1.22.22v1.24c0 .12-.1.22-.22.22H3.97a.22.22 0 0 1-.22-.22V3.4c0-.12.1-.22.22-.22zM7.96 5.5h.72c.11 0 .2.08.2.2v.35a.2.2 0 0 1-.2.2h-.72a.2.2 0 0 1-.2-.2V5.7c0-.1.09-.2.2-.2zm-3.94 0h.54c.11 0 .2.08.2.2v.35a.2.2 0 0 1-.2.2h-.54a.2.2 0 0 1-.2-.2V5.7c0-.1.1-.2.2-.2zm2.62 0h.54c.11 0 .2.08.2.2v.35a.2.2 0 0 1-.2.2h-.54a.2.2 0 0 1-.2-.2V5.7c0-.1.1-.2.2-.2zm-1.31 0h.54c.11 0 .2.09.2.2v.35a.2.2 0 0 1-.2.2h-.54a.2.2 0 0 1-.2-.2V5.7c0-.1.1-.2.2-.2zM4.02 6.63h.54c.11 0 .2.09.2.2v.35a.2.2 0 0 1-.2.2h-.54a.2.2 0 0 1-.2-.2v-.35c0-.11.1-.2.2-.2zm2.62 0h.54c.11 0 .2.09.2.2v.35a.2.2 0 0 1-.2.2h-.54a.2.2 0 0 1-.2-.2v-.35c0-.11.1-.2.2-.2zm1.32 0h.72c.11 0 .2.09.2.2v.35a.2.2 0 0 1-.2.2h-.72a.2.2 0 0 1-.2-.2v-.35c0-.11.09-.2.2-.2zm-2.63 0h.54c.11 0 .2.09.2.2v.35a.2.2 0 0 1-.2.2h-.54a.2.2 0 0 1-.2-.2v-.35c0-.11.1-.2.2-.2zM4.02 7.75h.54c.11 0 .2.09.2.2v.35a.2.2 0 0 1-.2.2h-.54a.2.2 0 0 1-.2-.2v-.35c0-.11.1-.2.2-.2zm2.62 0h.54c.11 0 .2.09.2.2v.35a.2.2 0 0 1-.2.2h-.54a.2.2 0 0 1-.2-.2v-.35c0-.11.1-.2.2-.2zm1.32 0h.72c.11 0 .2.1.2.2v1.48a.2.2 0 0 1-.2.2h-.72a.2.2 0 0 1-.2-.2V7.95c0-.11.09-.2.2-.2zm-2.63 0h.54c.11 0 .2.1.2.2v.36a.2.2 0 0 1-.2.2h-.54a.2.2 0 0 1-.2-.2v-.36c0-.1.1-.2.2-.2zm1.31 1.13h.54c.11 0 .2.08.2.2v.35a.2.2 0 0 1-.2.2h-.54a.2.2 0 0 1-.2-.2v-.36c0-.1.1-.2.2-.2zm-2.62 0H5.9c.11 0 .2.08.2.2v.35a.2.2 0 0 1-.2.2H4.02a.2.2 0 0 1-.2-.2v-.36c0-.1.09-.2.2-.2z"/></svg>