<svg xmlns="http://www.w3.org/2000/svg" width="48" height="48" viewBox="0 0 12.7 12.7"><path fill="#ff7f2a" d="M6.34.07a6.29 6.29 0 0 0-6.29 6.3 6.29 6.29 0 0 0 6.3 6.28 6.29 6.29 0 0 0 6.28-6.29A6.29 6.29 0 0 0 6.34.07zm-.01.94a5.4 5.4 0 0 1 5.4 5.4 5.4 5.4 0 0 1-5.4 5.41 5.4 5.4 0 0 1-5.41-5.4A5.4 5.4 0 0 1 6.32 1zm.02.8c-.31 0-.64.04-.96.13a3.75 3.75 0 0 0-2.72 4.61l.63-.16a3.08 3.08 0 0 1-.12-.81c0-1.74 1.43-3.14 3.2-3.14S9.6 3.84 9.6 5.58c0 .28-.04.55-.12.81l.63.16a3.68 3.68 0 0 0 0-1.95 3.85 3.85 0 0 0-3.76-2.8zm.8 4.78c-.02 0-.05.02-.06.04-.02.01-.03.02-.03.04-.02.03-.02.07-.03.11-.02.1-.04.21-.05.36l-.04 1.09c-.01.4-.02.8-.05 1.09a2.88 2.88 0 0 1-.04.36l-.01.01a1.66 1.66 0 0 1-.05-.27c-.02-.23-.02-.55-.03-.86a14.92 14.92 0 0 0-.04-.88 1.9 1.9 0 0 0-.04-.3.35.35 0 0 0-.05-.1c-.02-.03-.04-.05-.09-.05a.17.17 0 0 0-.1.04l-.04.07a.73.73 0 0 0-.05.2 5.94 5.94 0 0 0-.04.57c0 .21-.01.41-.03.56a.73.73 0 0 1-.04.17.13.13 0 0 1-.02.03l-.01-.01a.22.22 0 0 1-.03-.07 1.66 1.66 0 0 1-.03-.27c0-.1 0-.22-.03-.3a.25.25 0 0 0-.06-.12.2.2 0 0 0-.14-.06c-.07 0-.11.05-.14.1a.56.56 0 0 0-.06.18c-.02.13-.02.3-.02.47-.01.16-.01.33-.03.44-.01.05-.04.1-.05.12l-.01-.03a1.55 1.55 0 0 1-.05-.26 12.97 12.97 0 0 1-.04-.82c-.01-.3 0-.6-.03-.83a1.87 1.87 0 0 0-.04-.28c-.01-.04-.03-.06-.05-.09-.01-.03-.04-.07-.08-.07a.14.14 0 0 0-.1.06l-.04.08a1.58 1.58 0 0 0-.04.26l-.04.74-.05.73c0 .1-.03.18-.04.23-.01-.02-.04-.05-.05-.1l-.03-.41c0-.16-.01-.32-.04-.45a.59.59 0 0 0-.06-.17c-.02-.04-.07-.08-.13-.08a.14.14 0 0 0-.1.05.26.26 0 0 0-.05.09 1.4 1.4 0 0 0-.04.27c-.02.22 0 .5-.01.79 0 .28-.02.56-.05.77a1.2 1.2 0 0 1-.04.25l-.02.04-.03-.06a1.42 1.42 0 0 1-.02-.17h.03l-.05-.14v-.03a15.1 15.1 0 0 1-.04-.97c0-.37-.01-.73-.03-1-.01-.14-.01-.26-.03-.35l-.05-.1c0-.02 0-.03-.02-.04a.12.12 0 0 0-.08-.03c-.05 0-.07.04-.09.07l-.03.1-.04.31-.01.45-.35-1.32-.8.21a.77.77 0 0 0-.55.96l.4 1.52a.8.8 0 0 0 .99.56c.23-.03.38-.1.61-.15l.03.15.05.12c.02.03.06.07.11.07.04 0 .08-.03.1-.06.03-.03.04-.06.05-.1a1.21 1.21 0 0 0 .06-.27c.02-.22.02-.5.03-.79a12.52 12.52 0 0 1 .06-1.02A.34.34 0 0 1 4.7 8l.01.01c.02.03.02.08.03.13.03.11.04.26.05.42a4.7 4.7 0 0 0 .09.6l.04.07a.11.11 0 0 0 .07.03c.05 0 .09-.03.1-.06a.28.28 0 0 0 .05-.08 1.48 1.48 0 0 0 .04-.26c.03-.2.04-.46.05-.73a12.13 12.13 0 0 1 .07-.93c.01.05.04.13.04.23l.05.81c0 .3.02.6.04.83.01.12.02.22.05.29 0 .04.02.06.04.09.02.02.04.07.09.07.06 0 .12-.05.14-.1a4.05 4.05 0 0 0 .09-.63c0-.17.01-.33.03-.45l.03-.13c.01-.02.03-.02.03-.02h.03l.03.07c.02.06.02.17.03.27 0 .1 0 .21.03.3 0 .04.03.08.05.11.03.04.08.06.14.06.03 0 .06 0 .08-.03.03-.02.04-.06.05-.08a.82.82 0 0 0 .04-.2l.05-.58c0-.2 0-.4.03-.56a.58.58 0 0 1 .04-.15l.01.03c.02.06.04.15.05.27.02.23.02.54.03.86a13.55 13.55 0 0 0 .08 1.17l.05.1a.12.12 0 0 0 .1.06c.03 0 .04-.02.06-.03l.04-.04A.44.44 0 0 0 7 9.7l.04-.37c.03-.3.03-.7.04-1.1l.05-1.1.01-.25.05.33.06 1.18c0 .42.02.85.04 1.17l.04.39.03.11.03.06a.1.1 0 0 0 .07.03.12.12 0 0 0 .1-.06.32.32 0 0 0 .04-.09c.02-.06.03-.15.04-.25L7.68 9l.05-.73c0-.1.03-.18.04-.23l.03.09c.02.1.02.27.03.43l.04.44a.58.58 0 0 0 .06.17.18.18 0 0 0 .15.09c.03 0 .06-.02.09-.04l.04-.07a.74.74 0 0 0 .06-.2c.02-.17.02-.37.03-.58 0-.2.02-.4.04-.56l.03-.17.02.01.04.23c.02.2.02.44.03.7 0 .27 0 .54.03.74 0 .07.03.13.04.18l-.1.39.78.2a.8.8 0 0 0 .98-.56l.4-1.52a.77.77 0 0 0-.55-.96l-.8-.21-.12.49c0-.02 0-.03-.02-.05-.02-.03-.05-.06-.1-.06a.14.14 0 0 0-.1.06.25.25 0 0 0-.05.09 1.62 1.62 0 0 0-.04.28c-.02.23-.02.51-.03.8v.15l-.15.54-.02-.55a9.5 9.5 0 0 0-.05-.72 1.3 1.3 0 0 0-.04-.26.26.26 0 0 0-.05-.08.1.1 0 0 0-.08-.05c-.04 0-.08 0-.1.03-.03.02-.04.06-.05.09a.81.81 0 0 0-.04.2c-.02.16-.03.37-.03.57a5.46 5.46 0 0 1-.05.56c0 .07-.01.12-.03.16l-.03.01a.47.47 0 0 1-.04-.13 3.48 3.48 0 0 1-.04-.43 4.2 4.2 0 0 0-.05-.43.64.64 0 0 0-.04-.17.16.16 0 0 0-.04-.06.14.14 0 0 0-.1-.02c-.04 0-.06.03-.08.05L7.64 8a12.48 12.48 0 0 0-.1 1c-.02.27-.02.53-.05.73a1.53 1.53 0 0 1-.03.17 3.32 3.32 0 0 1-.04-.35l-.04-1.16c-.01-.43-.02-.85-.05-1.18a3.8 3.8 0 0 0-.04-.4l-.03-.13c0-.02-.02-.03-.03-.04a.13.13 0 0 0-.07-.05z"/></svg>