<svg xmlns="http://www.w3.org/2000/svg" width="48" height="48" viewBox="0 0 12.7 12.7"><g fill="#ff7f2a"><path d="M6.34.07a6.29 6.29 0 0 0-6.29 6.3 6.29 6.29 0 0 0 6.3 6.28 6.29 6.29 0 0 0 6.28-6.29A6.29 6.29 0 0 0 6.34.07zm-.01.94a5.4 5.4 0 0 1 5.4 5.4 5.4 5.4 0 0 1-5.4 5.41 5.4 5.4 0 0 1-5.41-5.4A5.4 5.4 0 0 1 6.32 1z"/><circle cx="6.3" cy="6.42" r=".71"/></g><path d="M7.17 1.75L6.03 4.96l4.47-.75a4.76 4.76 0 0 0-3.33-2.46" opacity=".75" fill="#cd7223"/><path d="M10.8 4.91l-3.37.63 2.89 3.47a4.7 4.7 0 0 0 .48-4.1" opacity=".75" fill="#ffa92d"/><path d="M9.88 9.54L7.65 6.96l-1.58 4.22a4.78 4.78 0 0 0 3.81-1.64" opacity=".75" fill="#2b4d37"/><path d="M5.4 11.1l1.14-3.21-4.47.74a4.76 4.76 0 0 0 3.34 2.47" opacity=".75" fill="#375a7d"/><path d="M1.8 7.93l3.37-.63L2.3 3.83a4.7 4.7 0 0 0-.48 4.1" opacity=".75" fill="#68377d"/><path d="M2.71 3.3l2.23 2.58 1.59-4.22A4.78 4.78 0 0 0 2.7 3.3" opacity=".75" fill="#bf4231"/></svg>