<svg xmlns="http://www.w3.org/2000/svg" width="48" height="48" viewBox="0 0 12.7 12.7"><path d="M6.34.07a6.29 6.29 0 0 0-6.29 6.3 6.29 6.29 0 0 0 6.3 6.28 6.29 6.29 0 0 0 6.28-6.29A6.29 6.29 0 0 0 6.34.07zM6.32 1l.01.01a5.4 5.4 0 0 1 5.4 5.4 5.4 5.4 0 0 1-5.4 5.41 5.4 5.4 0 0 1-5.41-5.4A5.4 5.4 0 0 1 6.32 1zm-.9.85a.23.23 0 0 0-.19.19L5.04 3c-.34.13-.66.31-.94.54l-.94-.32a.23.23 0 0 0-.27.1L2 4.88a.23.23 0 0 0 .05.28l.75.66a3.57 3.57 0 0 0 0 1.06l-.75.66c-.08.07-.1.19-.05.28l.9 1.56c.06.09.17.13.27.1l.94-.32c.28.23.6.4.94.54l.19.97c.02.1.12.18.22.18h1.8c.1 0 .2-.08.22-.18l.19-.97c.34-.13.66-.31.94-.54l.94.32c.1.03.21-.01.27-.1l.9-1.56a.23.23 0 0 0-.05-.28l-.75-.66a3.58 3.58 0 0 0 0-1.06l.75-.66c.08-.06.1-.19.05-.28l-.9-1.56a.23.23 0 0 0-.27-.1l-.94.32c-.28-.23-.6-.4-.94-.54l-.19-.96a.23.23 0 0 0-.22-.19h-1.8-.02zm.93 2.25A2.25 2.25 0 0 1 8.6 6.35 2.25 2.25 0 0 1 6.35 8.6 2.25 2.25 0 0 1 4.1 6.35 2.25 2.25 0 0 1 6.35 4.1z" fill="#ff7f2a"/></svg>
