<svg xmlns="http://www.w3.org/2000/svg" width="48" height="48" version="1"><path d="M24 .23A23.77 23.77 0 0 0 .23 24.01 23.77 23.77 0 0 0 24 47.77 23.77 23.77 0 0 0 47.77 24 23.77 23.77 0 0 0 24 .23zm-.07 3.54a20.44 20.44 0 0 1 20.44 20.44 20.44 20.44 0 0 1-20.44 20.43A20.44 20.44 0 0 1 3.5 24.21 20.44 20.44 0 0 1 23.93 3.77zm0 3A17.44 17.44 0 0 0 6.5 24.22a17.44 17.44 0 0 0 17.43 17.44A17.44 17.44 0 0 0 41.37 24.2 17.44 17.44 0 0 0 23.93 6.77zm-9.76 6.6h.42c1.48 0 2.77.75 3.84 2.26v-2.2l.07-.07h.49l.07.07v4.61c0 1.8-.86 3.18-2.59 4.16a4.5 4.5 0 0 1-2.06.5h-.07c-1.6 0-2.91-.75-3.95-2.24a4.47 4.47 0 0 1-.66-2.24v-.42c0-1.4.67-2.6 2.02-3.64.81-.53 1.62-.8 2.42-.8zm11.3.07h.5c1.26 0 2.46.5 3.6 1.52a5.3 5.3 0 0 1 3.58-1.52h.5c1.64 0 3.08.8 4.3 2.4.63.95.95 1.9.95 2.85v.5c0 1.27-.5 2.44-1.49 3.5l-.5-.46v-.03c.83-1 1.24-2.05 1.24-3.14v-.13c0-1.95-.96-3.4-2.89-4.38a4.5 4.5 0 0 0-1.86-.37h-.12a4.6 4.6 0 0 0-3.23 1.36c.8 1 1.2 2.1 1.2 3.35v.08c0 1.43-.5 2.67-1.48 3.72l-.54-.5a4.8 4.8 0 0 0 1.28-3.3c0-1.79-.9-3.2-2.68-4.25a5.12 5.12 0 0 0-1.99-.46h-.12c-1.95 0-3.41.97-4.38 2.9a4.5 4.5 0 0 0-.37 1.85v.13c0 1.09.41 2.13 1.24 3.14v.03l-.5.46a5.05 5.05 0 0 1-1.49-3.5v-.5c0-1.65.8-3.08 2.4-4.3.95-.63 1.9-.95 2.85-.95zm-11.1.55c-1.64 0-2.88.82-3.7 2.44a4 4 0 0 0-.3 1.58v.1c0 1.54.78 2.75 2.37 3.6.55.23 1.11.35 1.67.35 1.63 0 2.88-.84 3.74-2.51.18-.58.28-1.1.28-1.58 0-1.51-.76-2.7-2.27-3.6a4.36 4.36 0 0 0-1.68-.38h-.1zm-4 10.51h19.76c.15 0 .28.13.28.29 0 .15-.13.28-.28.28H10.38a.28.28 0 0 1-.29-.28c0-.16.13-.29.29-.29z" fill="#ff7f2a"/></svg>