<svg xmlns="http://www.w3.org/2000/svg" width="48" height="48" viewBox="0 0 12.7 12.7"><path fill="#ff7f2a" d="M6.34.07a6.29 6.29 0 0 0-6.29 6.3 6.29 6.29 0 0 0 6.3 6.28 6.29 6.29 0 0 0 6.28-6.29A6.29 6.29 0 0 0 6.34.07zm-.01.94a5.4 5.4 0 0 1 5.39 4.98c-1.05.94-3.9 2.86-6.56 1.72C7.85 6.14 8.35 4.86 8.12 4c-.67-2.2-3.56-1.4-4.56.07-.92 1.22-.39 3.1.7 3.76-.55.45-1.65.9-2.49 1.35.03.03 2.15-.78 2.75-1.14 2.9 1.62 5.9.31 7.04-.32a5.4 5.4 0 0 1-5.23 4.1A5.4 5.4 0 0 1 .92 6.41 5.4 5.4 0 0 1 6.32 1zm-.2 2.14c.63-.02 1.06.27 1.29.65.73 1.39-1.65 3.24-2.73 3.75-2.17-1.62-.73-4.29 1.44-4.4z"/></svg>