<svg xmlns="http://www.w3.org/2000/svg" width="48" height="48" viewBox="0 0 12.7 12.7"><path fill="#ff7f2a" d="M6.34.07a6.29 6.29 0 0 0-6.29 6.3 6.29 6.29 0 0 0 6.3 6.28 6.29 6.29 0 0 0 6.28-6.29A6.29 6.29 0 0 0 6.34.07zm-.01.94a5.4 5.4 0 0 1 5.4 5.4 5.4 5.4 0 0 1-5.4 5.41 5.4 5.4 0 0 1-5.41-5.4A5.4 5.4 0 0 1 6.32 1zm2.2 1.53a.3.3 0 0 0-.3.16L5.64 7.44 3.98 6.12a.3.3 0 0 0-.41.12l-.75.96a.3.3 0 0 0 .12.41l3.04 2.52a.27.27 0 0 0 .1.03.3.3 0 0 0 .31-.16l3.49-6.4a.3.3 0 0 0-.12-.4l-1.12-.63a.3.3 0 0 0-.12-.03z"/></svg>