<svg xmlns="http://www.w3.org/2000/svg" width="48" height="48" viewBox="0 0 12.7 12.7"><path fill="#ff7f2a" d="M6.34.07a6.29 6.29 0 0 0-6.29 6.3 6.29 6.29 0 0 0 6.3 6.28 6.29 6.29 0 0 0 6.28-6.29A6.29 6.29 0 0 0 6.34.07zm-.01.94a5.4 5.4 0 0 1 5.4 5.4 5.4 5.4 0 0 1-5.4 5.41 5.4 5.4 0 0 1-5.41-5.4A5.4 5.4 0 0 1 6.32 1z"/><path fill="red" d="M9.63 3.24a.17.17 0 0 0-.1.04L6.35 5.62 3.17 3.28a.17.17 0 0 0-.1-.04.86.86 0 0 0-.86.87v4.48c0 .48.38.87.86.87h.34a.17.17 0 0 0 .18-.18V9.2l2.76-1.95-.1-.07c.06.04.14.04.2 0l-.1.07L9.11 9.2v.08c0 .1.08.18.17.18h.35a.86.86 0 0 0 .86-.87V4.1a.86.86 0 0 0-.86-.86zM3.59 5.3l2.46 1.74-2.46 1.74zm5.52 0v3.48L6.65 7.04z" opacity=".75"/></svg>