<svg xmlns="http://www.w3.org/2000/svg" width="48" height="48" viewBox="0 0 12.7 12.7"><path fill="#ff7f2a" d="M6.35.06a6.29 6.29 0 0 0-6.29 6.3 6.29 6.29 0 0 0 6.3 6.28 6.29 6.29 0 0 0 6.28-6.29A6.29 6.29 0 0 0 6.35.06zM6.33 1a5.4 5.4 0 0 1 5.4 5.4 5.4 5.4 0 0 1-5.4 5.41 5.4 5.4 0 0 1-5.4-5.4A5.4 5.4 0 0 1 6.33 1zm-.06.55c-1.86 0-3.31.9-4.36 2.73a5.16 5.16 0 0 0-.46 2.17c0 .89.23 1.7.68 2.42l.66-.63h.04c.04 0 .06.03.06.06v.1c-.05 0-.26.2-.63.59v.04l.7-.66c.02 0 .06.04.12.12l-.7.72h.04c0-.03.23-.25.69-.69.05.04.09.07.12.07v.08c-.46.47-.69.71-.69.73h.03c0-.03.24-.27.73-.73l.09.14v.03l-.72.75h.03c0-.03.24-.27.72-.73h.03c.03 0 .06.04.1.1v.03l-.7.72v.03l.76-.71c.03 0 .07.04.12.12l-.72.75h.04c0-.02.24-.27.71-.72l.03.07-.74.78a4.93 4.93 0 0 0 3.12 1.26c2.04 0 3.57-.97 4.59-2.92.27-.73.4-1.39.4-1.99 0-1.56-.7-2.9-2.13-4.02a5.1 5.1 0 0 0-2.76-.81zM8.4 3.37h.07c.03 0 .07.05.12.16v.06l-.1.13v.03l.04.06c.26-.13.5-.19.72-.19.5 0 .8.34.9 1-.15.59-.44.88-.87.88h-.12c-.17 0-.35-.02-.54-.05-.27 0-.44.15-.53.46-.2.78-.54 1.44-1.03 1.98l-.13.1H6.9a2.6 2.6 0 0 0-.98-.32h-.05c-.33 0-.68.18-1.04.54-.04 0-.07-.02-.07-.06.03 0 1.16-1.14 3.4-3.4.16-.18.34-.3.53-.37v-.1c-.02-.15-.09-.22-.2-.22a.32.32 0 0 0-.18.15v.14l.1.12a260.75 260.75 0 0 1-3.67 3.68c-.04 0-.08-.05-.13-.13a62.38 62.38 0 0 1 3.2-3.18c.1 0 .15-.06.15-.19V4.6c-.03-.08-.1-.12-.22-.12-.1.04-.14.08-.15.13v.12l.09.12c-.93.97-1.41 1.45-1.44 1.45 0 .04-.17.2-.5.5 0 .03-.26.29-.76.79-.25.22-.37.36-.37.4h-.03c-.03 0-.07-.03-.12-.12v-.03a41.52 41.52 0 0 1 2.6-2.58.18.18 0 0 0 .18-.12v-.07c0-.1-.06-.18-.18-.22-.13.04-.2.11-.2.22v.07l.1.12c-.76.79-1.6 1.64-2.54 2.55h-.06c0-.04-.02-.06-.07-.06v-.07c1.35-1.4 2.08-2.1 2.2-2.1l.04-.07v-.12c-.04-.08-.11-.12-.22-.12-.11.03-.16.1-.16.22 0 .04.03.1.09.19a57.05 57.05 0 0 1-2 1.97l-.13-.12c0-.03.37-.4 1.13-1.14a1.24 1.24 0 0 1 .56-.44V5.8c0-.03-.04-.08-.12-.13h-.13c-.03 0-.07.05-.12.13v.12l.09.13c0 .03-.48.5-1.44 1.44-.04 0-.08-.04-.13-.12.55-.6.91-.94 1.1-1a.25.25 0 0 0 .03-.13c0-.13-.07-.2-.22-.2-.1.05-.14.09-.15.13v.16l.05.1v.03c-.54.55-.8.84-.8.88h-.04c-.03 0-.06-.03-.1-.1V7.2c.32-.24.48-.6.48-1.07.3-.18.46-.29.46-.31-.02 0-.03-.01-.03-.03l-.15.03c-.08-.03-.12-.12-.12-.28a.64.64 0 0 1 .46-.22c.06 0 .1.08.13.25l-.1.12v.03h.07c.3-.15.44-.25.44-.27V5.4h-.2c-.05 0-.09-.08-.12-.25.15-.15.28-.22.38-.22h.13c.05 0 .1.08.12.25-.03 0-.07.04-.12.13l.06.03c.3-.17.46-.27.46-.29L6.14 5 6 5.03c-.05 0-.1-.08-.12-.24a.5.5 0 0 1 .46-.26c.03 0 .08.07.16.22l-.13.16v.03c.36-.13.54-.22.54-.29-.23-.02-.35-.11-.35-.27.14-.15.3-.22.44-.22h.07c.05 0 .1.08.12.25-.03 0-.07.04-.12.12l.06.04c.21-.1.37-.2.47-.29v-.07l-.16.04H7.4c-.05 0-.1-.1-.12-.28.15-.15.3-.22.46-.22.07 0 .12.1.16.28-.09.03-.13.06-.13.1l.04.06.5-.25v-.1h-.2c-.08-.03-.12-.1-.12-.22v-.03a.47.47 0 0 1 .41-.22zM3.73 7.3c.04 0 .08.04.13.12a4.8 4.8 0 0 0-.85.85h-.06c-.03 0-.07-.03-.1-.1 0-.02.3-.31.88-.87zm.16.15c.08.03.13.07.13.1 0 .02-.3.31-.89.88H3.1c-.02 0-.06-.04-.09-.1V8.3c.53-.57.82-.85.88-.85zm.16.13c.05 0 .08.05.1.16 0 .03-.25.28-.73.75-.06.04-.1.08-.1.13H3.3c-.05-.05-.09-.07-.12-.07v-.1c0-.02.3-.31.88-.88zm.15.19c.04 0 .08.04.13.12 0 .03-.3.32-.88.88-.03 0-.07-.04-.13-.13 0-.02.3-.31.88-.87zm.16.16c.03 0 .08.05.16.15-.06 0-.2.14-.44.41-.28.3-.45.44-.5.44l-.1-.12c0-.03.3-.33.88-.88zm.16.18h.06c.04.01.06.03.06.07v.06c0 .03-.3.32-.88.88h-.03c0-.04-.03-.1-.1-.16l.89-.85zm.19.13l.03.06c0 .03-.3.32-.88.88h-.03v-.06c0-.02.3-.32.88-.89z" font-family="Electric Guitar Icons" font-size="14.98" font-weight="400" letter-spacing="0" style="line-height:1.25;-inkscape-font-specification:'Electric Guitar Icons'" word-spacing="0"/></svg>