<svg xmlns="http://www.w3.org/2000/svg" width="48" height="48" viewBox="0 0 12.7 12.7"><path fill="#ff7f2a" d="M6.34.07a6.29 6.29 0 0 0-6.29 6.3 6.29 6.29 0 0 0 6.3 6.28 6.29 6.29 0 0 0 6.28-6.29A6.29 6.29 0 0 0 6.34.07zm-.01.94a5.4 5.4 0 0 1 5.4 5.4 5.4 5.4 0 0 1-5.4 5.41 5.4 5.4 0 0 1-5.41-5.4A5.4 5.4 0 0 1 6.32 1zM5.17 2.18l-2.09.12v.5h.54c.42 0 .49.07.49.56v6.22c0 .45-.13.53-.85.53h-.04v.4h2.86v-.4h-.05c-.73 0-.86-.08-.86-.53V7.96c0-.56.08-1.07.2-1.33.24-.51.75-.86 1.24-.86.3 0 .63.17.8.4.17.24.25.58.25 1.14v2.27c0 .45-.12.53-.86.53h-.04v.4h2.86v-.4h-.04c-.73 0-.85-.08-.85-.53V7.35c0-.81-.04-1.02-.24-1.4a1.66 1.66 0 0 0-1.53-.87c-.72 0-1.28.34-1.79 1.1v-4z"/></svg>