<svg xmlns="http://www.w3.org/2000/svg" width="48" height="48" version="1"><path d="M24 .23A23.77 23.77 0 0 0 .23 24.01 23.77 23.77 0 0 0 24 47.77 23.77 23.77 0 0 0 47.77 24 23.77 23.77 0 0 0 24 .23zm-.07 3.54a20.44 20.44 0 0 1 20.44 20.44 20.44 20.44 0 0 1-20.44 20.43A20.44 20.44 0 0 1 3.5 24.21 20.44 20.44 0 0 1 23.93 3.77zm0 3A17.44 17.44 0 0 0 6.5 24.22a17.44 17.44 0 0 0 17.43 17.44A17.44 17.44 0 0 0 41.37 24.2 17.44 17.44 0 0 0 23.93 6.77zm-8.8 6.47h.13c.24 0 .4.17.47.51v.1c-.08.34-.23.5-.47.5h-.13c-.31-.04-.47-.2-.47-.47v-.17c.05-.31.2-.47.47-.47zm6.02 0A5.74 5.74 0 0 1 22.59 17c0 1.85-.82 3.38-2.48 4.59a5.3 5.3 0 0 1-2.85.91h-.12l-.09-.08v-3.19l.09-.08h.58l.08.08v2.48c.53 0 1.31-.35 2.35-1.07 1.1-1.06 1.66-2.2 1.66-3.4v-.53c0-1.12-.5-2.2-1.49-3.23.44-.16.71-.24.83-.24zm-6.23 2.37h.56l.08.08v6.73l-.08.08h-.56l-.1-.08v-6.73l.1-.08zm-1.66 8.9h10.02c.08 0 .14.12.14.28 0 .15-.06.28-.14.28H13.26c-.08 0-.14-.13-.14-.28 0-.16.06-.29.14-.29z" fill="#ff7f2a"/></svg>