<svg xmlns="http://www.w3.org/2000/svg" width="48" height="48" viewBox="0 0 12.7 12.7"><path d="M6.34.07a6.29 6.29 0 0 0-6.29 6.3 6.29 6.29 0 0 0 6.3 6.28 6.29 6.29 0 0 0 6.28-6.29A6.29 6.29 0 0 0 6.34.07zM6.32 1l.01.01a5.4 5.4 0 0 1 5.4 5.4 5.4 5.4 0 0 1-5.4 5.41 5.4 5.4 0 0 1-5.41-5.4A5.4 5.4 0 0 1 6.32 1zm1.82 1.11a1.06 1.06 0 0 0-.47.14 1.06 1.06 0 0 0-.4 1.44 1.06 1.06 0 0 0 .13.19l-.55.97a1.59 1.59 0 0 0-1.29.12 1.59 1.59 0 0 0-.77 1.08H3.7a1.06 1.06 0 0 0-.1-.26 1.06 1.06 0 0 0-1.44-.4 1.06 1.06 0 0 0-.4 1.45 1.06 1.06 0 0 0 1.45.4 1.06 1.06 0 0 0 .46-.56l1.14.01a1.59 1.59 0 0 0 .17.45 1.59 1.59 0 0 0 .35.41l-.55.96a1.06 1.06 0 0 0-.79.1 1.06 1.06 0 0 0-.4 1.45 1.06 1.06 0 0 0 1.45.4A1.06 1.06 0 0 0 5.43 9a1.06 1.06 0 0 0-.11-.16l.56-.99a1.59 1.59 0 0 0 1.26-.13 1.59 1.59 0 0 0 .75-1h1.14a1.06 1.06 0 0 0 .08.18 1.06 1.06 0 0 0 1.44.4 1.06 1.06 0 0 0 .4-1.45 1.06 1.06 0 0 0-1.45-.4 1.06 1.06 0 0 0-.49.63l-1.1-.01a1.59 1.59 0 0 0-.18-.52 1.59 1.59 0 0 0-.32-.4l.55-.96a1.06 1.06 0 0 0 .76-.11 1.06 1.06 0 0 0 .4-1.45 1.06 1.06 0 0 0-.98-.53z" fill="#ff7f2a"/></svg>
