<svg xmlns="http://www.w3.org/2000/svg" width="48" height="48" viewBox="0 0 12.7 12.7"><path d="M6.35.083A6.267 6.267 0 0 0 .084 6.35a6.267 6.267 0 0 0 6.268 6.267 6.267 6.267 0 0 0 6.266-6.267A6.267 6.267 0 0 0 6.351.083zm-.017.932a5.388 5.388 0 0 1 5.388 5.39 5.388 5.388 0 0 1-5.388 5.387 5.388 5.388 0 0 1-5.39-5.388 5.388 5.388 0 0 1 5.39-5.389zM4.698 2.183v4.726c-.16.057-.322.238-.458.376-.205.21-.388.224-.534.099-.146-.125-.018-.466-.187-.808-.168-.342-.503-.172-.55.06-.047.23.423.386.332.514-.092.129-.456.1-.563-.142-.107-.242-.341-.164-.346.034-.005.198.181.06.326.205L6.46 10.99l3.741-3.742c.44-.44-.063-.251-.167-.152-.104.099-.424.179-.462.07-.038-.108.359-.29.472-.412.113-.123.224-.472.041-.6-.183-.127-.442.103-.555.273-.113.17-.015.602-.166.734-.15.132-.234.052-.262-.061-.029-.113.326-.272.177-.554-.149-.281-.423-.154-.55-.022-.128.132.076.336.123.543.047.208-.435.202-.624.127l-.008-.005V2.183H4.698zm-.89 1.672a.149.149 0 0 0-.042.012c-.112.049-.15.208-.003.542.147.333.355.565.467.516.111-.05.083-.36-.064-.693-.128-.293-.254-.39-.357-.377zm5.055.377a.22.22 0 1 0 0 .44.22.22 0 0 0 0-.44zm1.326.72a.33.33 0 1 0 0 .661.33.33 0 0 0 0-.66zm-.99.045c-.117-.028-.165.192-.193.399-.027.206-.13.42-.041.46.124.056.187-.283.327-.41s.024-.422-.093-.45zm-6.37.048a.33.33 0 1 0 0 .66.33.33 0 0 0 0-.66zm1.273.382c-.087-.007-.206.08-.098.203.145.164.22.456.092.514-.13.059-.12-.217-.131-.365-.012-.147-.37-.235-.502-.053-.132.183.001.379.132.418.13.04.15.19.229.346.077.155.456.116.549 0a.4.4 0 0 0-.03-.534c-.18-.2-.126-.385-.174-.488-.012-.025-.038-.038-.067-.04zm-2.044.72a.22.22 0 1 0 0 .44.22.22 0 0 0 0-.44zm8.584.219a.22.22 0 1 0 0 .44.22.22 0 0 0 0-.44z" fill="#ff7f2a"/></svg>