<svg xmlns="http://www.w3.org/2000/svg" width="48" height="48" viewBox="0 0 12.7 12.7"><path fill="#ff7f2a" d="M6.34.07a6.29 6.29 0 0 0-6.29 6.3 6.29 6.29 0 0 0 6.3 6.28 6.29 6.29 0 0 0 6.28-6.29A6.29 6.29 0 0 0 6.34.07zm-.01.94a5.4 5.4 0 0 1 5.4 5.4 5.4 5.4 0 0 1-5.4 5.41 5.4 5.4 0 0 1-5.41-5.4A5.4 5.4 0 0 1 6.32 1zM3.24 3c-.33 0-.6.15-.6.35 0 .2.27.35.6.35h2.18c.32 0 .59-.15.59-.35 0-.2-.27-.36-.6-.36H3.25zm6.62 1.24a.38.38 0 0 0-.27.1l-.57.58 1.25 1.25.57-.57a.38.38 0 0 0 0-.54l-.71-.71a.38.38 0 0 0-.27-.11zm-6.62.34c-.33 0-.6.16-.6.36 0 .2.27.35.6.35h2.18c.32 0 .59-.16.59-.35 0-.2-.27-.36-.6-.36H3.25zm5.52.6L5.3 8.64l1.25 1.25L10 6.44 8.75 5.2zm-5.52.99c-.33 0-.6.16-.6.35 0 .2.27.36.6.36h2.18c.32 0 .59-.16.59-.36 0-.2-.27-.35-.6-.35H3.25zm1.8 2.72l-.27 1.51 1.52-.26L5.04 8.9z"/></svg>