<svg xmlns="http://www.w3.org/2000/svg" width="48" height="48" viewBox="0 0 12.7 12.7"><path fill="#ff7f2a" d="M6.34.07a6.29 6.29 0 0 0-6.29 6.3 6.29 6.29 0 0 0 6.3 6.28 6.29 6.29 0 0 0 6.28-6.29A6.29 6.29 0 0 0 6.34.07zm-.01.94a5.4 5.4 0 0 1 5.4 5.4 5.4 5.4 0 0 1-5.4 5.41 5.4 5.4 0 0 1-5.41-5.4A5.4 5.4 0 0 1 6.32 1zm-.37 1.6a4 2.97 59 0 0-1.74 5.27 4 2.97 59 0 0 .15.22c-.48.11-.92.18-1.29.18-.48.02-1.14-.09-1.33-.52-.17-.4.46-1.18.47-1.2-.01.02-.87.84-.8 1.35.1.72.99.83 1.7.82.35 0 .9-.1 1.53-.25a4 2.97 59 0 0 5.2-2.38c.66-.56 1.1-1.16 1.09-1.8 0-.69-1.08-.82-1.35-.82l-.06.01s1.04.27 1.02.77c-.02.45-.35.92-.85 1.38a4 2.97 59 0 0-.4-.82 4 2.97 59 0 0-.12-.19 1.08 1.08 0 0 0 .03-.23 1.08 1.08 0 0 0-1.25-1.07 4 2.97 59 0 0-2-.73zm.05.26a3.72 2.76 59 0 1 1.67.55 1.08 1.08 0 0 0-.64.98 1.08 1.08 0 0 0 2.06.48 3.72 2.76 59 0 1 .03.05 3.72 2.76 59 0 1 .4.85 7.65 7.65 0 0 1-.8.57 2.17 2.17 0 0 0-.25-.65A1.35 1.35 0 0 1 6.8 4.63 2.16 2.16 0 0 0 4.82 8l-.24.05a3.72 2.76 59 0 1-.18-.28A3.72 2.76 59 0 1 6 2.87zm.21 2.9c.71 0 1.31.5 1.45 1.16-.5.25-1.03.47-1.55.66a.65.65 0 0 0-1.24.24 1.47 1.47 0 0 1 1.34-2.07zm3.45.48a3.72 2.76 59 0 1-4.8 2.17l.24-.06a.65.65 0 0 0 .1.07 2.16 2.16 0 0 0 3.56-1.59c.33-.19.63-.39.9-.6zm-7.45.31zm5.47.85a1.48 1.48 0 0 1-1.47 1.3c-.26 0-.51-.07-.73-.2a.65.65 0 0 0 .67-.48 17.31 17.31 0 0 0 1.53-.62z"/></svg>