<svg xmlns="http://www.w3.org/2000/svg" width="48" height="48" viewBox="0 0 12.7 12.7"><path fill="#ff7f2a" d="M6.34.07a6.29 6.29 0 0 0-6.29 6.3 6.29 6.29 0 0 0 6.3 6.28 6.29 6.29 0 0 0 6.28-6.29A6.29 6.29 0 0 0 6.34.07zm-.01.94a5.4 5.4 0 0 1 5.4 5.4 5.4 5.4 0 0 1-5.4 5.41 5.4 5.4 0 0 1-5.41-5.4A5.4 5.4 0 0 1 6.32 1zm2.92 1.36a.26.26 0 0 0-.1.01L2.81 4.5a.25.25 0 0 0-.16.32l.15.45a.76.76 0 0 0 .15 1.22v3.59c0 .14.11.25.25.25h6.68c.14 0 .26-.11.26-.25V5.74H4.08a.76.76 0 0 0-.13-.34l5.83-1.94-.3-.92a.25.25 0 0 0-.23-.17zm-.69.51l-.19.75-.77.26.19-.75.77-.26zm-1.9.64l-.2.75-.76.25.18-.75.78-.25zm-1.91.63l-.18.75-.78.26.19-.75.77-.26zM3.32 5.44a.39.39 0 1 1 0 .77.39.39 0 0 1 0-.77zm1.02.5h.81l-.41.65h-.82l.42-.65zm2 0h.82l-.42.65h-.8l.4-.65zm2.01 0h.82l-.42.65h-.81l.41-.65zm-2.2 1.43l1.37.86-1.37.86V7.37z"/></svg>