<svg xmlns="http://www.w3.org/2000/svg" width="48" height="48" viewBox="0 0 12.7 12.7"><path fill="#ff7f2a" d="M6.34.07a6.29 6.29 0 0 0-6.29 6.3 6.29 6.29 0 0 0 6.3 6.28 6.29 6.29 0 0 0 6.28-6.29A6.29 6.29 0 0 0 6.34.07zm-.01.94a5.4 5.4 0 0 1 5.4 5.4 5.4 5.4 0 0 1-5.4 5.41 5.4 5.4 0 0 1-5.41-5.4A5.4 5.4 0 0 1 6.32 1zm.02.31c-.62 0-1.12.5-1.12 1.12 0 .47.3.85.7 1.02v.38H4.26a.14.14 0 0 0-.14.14v.42c0 .07.06.13.14.13h1.67V9.7c0 .15-.24.15-.38.16-.2 0-.32-.05-.5-.1a6.49 6.49 0 0 1-1.24-.51 3.2 3.2 0 0 1-.48-.3c-.06-.06-.13-.14-.13-.23.01-.06.04-.14.12-.15.07 0 .13.03.19.05.05.02.09-.04.08-.08a.7.7 0 0 0-.1-.32c-.13-.2-.32-.34-.51-.47-.2-.13-.43-.28-.56-.5-.02-.03-.05-.1-.11-.07-.08.02-.13.1-.17.17-.11.21-.17.44-.22.68a1.96 1.96 0 0 0-.03.57c.01.19.03.38.1.56.05.11.14.2.22.3l.17-.18c.07-.07.16-.12.26-.1.15.02.28.1.39.19.16.12.3.25.47.37a4.6 4.6 0 0 0 .82.47c.24.12.49.23.74.32.04.02.1.02.14.03.45.19.82.4 1.14.8v.01h.02v-.03c.31-.38.7-.6 1.14-.78.05-.01.1-.01.14-.03a8.86 8.86 0 0 0 1.56-.8l.47-.36a.86.86 0 0 1 .38-.2c.1 0 .2.04.27.11l.17.18c.08-.1.17-.19.21-.3.08-.18.1-.37.1-.56a2.59 2.59 0 0 0-.25-1.25c-.03-.07-.08-.15-.16-.17-.06-.02-.09.04-.11.08-.13.21-.36.36-.56.49-.2.12-.38.27-.5.47a.7.7 0 0 0-.1.32c-.02.04.02.1.07.08.06-.02.12-.06.19-.05.07.01.1.09.12.15 0 .1-.07.17-.14.23-.14.12-.3.2-.47.3-.4.2-.8.38-1.24.5-.19.06-.3.11-.5.11-.18.03-.38-.06-.38-.16V4.54h1.67c.07 0 .14-.06.14-.14v-.42a.14.14 0 0 0-.14-.14H6.77v-.38c.4-.17.7-.55.7-1.02 0-.62-.5-1.12-1.12-1.12zm-.02.55c.3 0 .54.24.54.54a.55.55 0 0 1-1.1 0c0-.3.26-.54.56-.54z"/></svg>