<svg xmlns="http://www.w3.org/2000/svg" width="48" height="48" viewBox="0 0 12.7 12.7"><path fill="#ff7f2a" d="M6.34.07a6.29 6.29 0 0 0-6.29 6.3 6.29 6.29 0 0 0 6.3 6.28 6.29 6.29 0 0 0 6.28-6.29A6.29 6.29 0 0 0 6.34.07zm-.01.94a5.4 5.4 0 0 1 5.4 5.4 5.4 5.4 0 0 1-5.4 5.41 5.4 5.4 0 0 1-5.41-5.4A5.4 5.4 0 0 1 6.32 1zM3.4 3.04c-.37 0-.67.3-.67.67V8.3c0 .37.3.67.67.67h1.68v.8H3.52v.62h5.84v-.62H7.75v-.8h1.64c.37 0 .67-.3.67-.67V3.71c0-.37-.3-.67-.67-.67H3.4zm.5.67H7.7v1.7h1.74v2.35c0 .3-.23.52-.52.52h-5a.52.52 0 0 1-.52-.52V4.23c0-.29.23-.52.52-.52zm4.03 0h.98c.29 0 .52.23.52.52v.98l-1.5-1.5z"/></svg>