<svg xmlns="http://www.w3.org/2000/svg" width="48" height="48" viewBox="0 0 12.7 12.7"><path fill="#ff7f2a" d="M6.34.07a6.29 6.29 0 0 0-6.29 6.3 6.29 6.29 0 0 0 6.3 6.28 6.29 6.29 0 0 0 6.28-6.29A6.29 6.29 0 0 0 6.34.07zm-.01.94a5.4 5.4 0 0 1 5.4 5.4 5.4 5.4 0 0 1-5.4 5.41 5.4 5.4 0 0 1-5.41-5.4A5.4 5.4 0 0 1 6.32 1zm3.33 1.5L8.45 3.72c-2.46-2.5-6.93-.94-5.77 3.06.27.94 1.2.54 1.08-.1-.44-2.28 1.4-2.75 2.88-1.15L5.32 6.84l4.64.2-.3-4.53zM8.04 7.54v2.63h1.13c.35 0 .61-.06.78-.18.18-.13.26-.32.26-.57A.71.71 0 0 0 10.1 9a.6.6 0 0 0-.34-.24.53.53 0 0 0 .26-.2c.06-.09.1-.2.1-.33 0-.24-.09-.42-.25-.53-.17-.11-.43-.17-.8-.17H8.04zm-4.5.01l-.97 2.64h.68l.17-.48H4.5l.16.48h.68l-.97-2.64h-.81zM8.73 8h.38c.1 0 .19.02.24.07.06.05.08.12.08.2 0 .1-.02.17-.08.22-.05.04-.14.06-.24.06h-.38V8zm-4.77.17l.36 1.05H3.6l.36-1.05zm4.77.85h.4c.14 0 .24.03.3.09.08.05.11.14.11.25 0 .12-.03.2-.1.26s-.17.09-.31.09h-.4V9z"/></svg>