<svg xmlns="http://www.w3.org/2000/svg" width="48" height="48" version="1"><path d="M24 .23A23.77 23.77 0 0 0 .23 24 23.77 23.77 0 0 0 24 47.77 23.77 23.77 0 0 0 47.77 24 23.77 23.77 0 0 0 24 .23zm-.07 3.54a20.44 20.44 0 0 1 20.44 20.44 20.44 20.44 0 0 1-20.44 20.43A20.44 20.44 0 0 1 3.5 24.21 20.44 20.44 0 0 1 23.93 3.78z" fill="#ff7f2a"/><g opacity=".75"><path d="M24 6c-4.6 0-9.21 1.76-12.74 5.28l7.64 7.64a7.2 7.2 0 0 1 .08-.08 7.2 7.2 0 0 1 .54-.47 7.2 7.2 0 0 1 .58-.42 7.2 7.2 0 0 1 .63-.36 7.2 7.2 0 0 1 .65-.3 7.2 7.2 0 0 1 .69-.22 7.2 7.2 0 0 1 .7-.16 7.2 7.2 0 0 1 .71-.08 7.2 7.2 0 0 1 .51-.02z" fill="#e647ff"/><path d="M24 6v10.8a7.2 7.2 0 0 1 .71.04 7.2 7.2 0 0 1 .71.11 7.2 7.2 0 0 1 .7.18 7.2 7.2 0 0 1 .68.25 7.2 7.2 0 0 1 .64.3 7.2 7.2 0 0 1 .62.38 7.2 7.2 0 0 1 .57.44 7.2 7.2 0 0 1 .45.42l7.64-7.64A17.97 17.97 0 0 0 24 5.99z" fill="#ff3636"/><path d="M11.28 11.28A17.97 17.97 0 0 0 6 24h10.8a7.2 7.2 0 0 1 .04-.72 7.2 7.2 0 0 1 .1-.71 7.2 7.2 0 0 1 .18-.7 7.2 7.2 0 0 1 .25-.68 7.2 7.2 0 0 1 .31-.64 7.2 7.2 0 0 1 .38-.62 7.2 7.2 0 0 1 .43-.57 7.2 7.2 0 0 1 .43-.46z" fill="#5964ff"/><path d="M16.8 24H6c0 4.6 1.76 9.21 5.28 12.74l7.63-7.64a7.2 7.2 0 0 1-.08-.08 7.2 7.2 0 0 1-.48-.54 7.2 7.2 0 0 1-.42-.58 7.2 7.2 0 0 1-.35-.63 7.2 7.2 0 0 1-.3-.65 7.2 7.2 0 0 1-.23-.69 7.2 7.2 0 0 1-.15-.7 7.2 7.2 0 0 1-.1-.71 7.2 7.2 0 0 1 0-.51z" fill="#53bdff"/><path d="M36.72 11.28l-7.64 7.64a7.2 7.2 0 0 1 .08.07 7.2 7.2 0 0 1 .47.54 7.2 7.2 0 0 1 .42.59 7.2 7.2 0 0 1 .36.62 7.2 7.2 0 0 1 .3.66 7.2 7.2 0 0 1 .22.68 7.2 7.2 0 0 1 .16.7 7.2 7.2 0 0 1 .08.72 7.2 7.2 0 0 1 .02.5h10.82c0-4.6-1.77-9.2-5.29-12.72z" fill="#ff7221"/><path d="M29.08 29.1l7.64 7.64A17.97 17.97 0 0 0 42.01 24H31.19a7.2 7.2 0 0 1-.03.72 7.2 7.2 0 0 1-.11.7 7.2 7.2 0 0 1-.18.7 7.2 7.2 0 0 1-.25.68 7.2 7.2 0 0 1-.3.65 7.2 7.2 0 0 1-.38.61 7.2 7.2 0 0 1-.44.58 7.2 7.2 0 0 1-.42.45z" fill="#ffac29"/><path d="M18.9 29.09l-7.64 7.63A17.97 17.97 0 0 0 24 42V31.2a7.2 7.2 0 0 1-.72-.04 7.2 7.2 0 0 1-.7-.1 7.2 7.2 0 0 1-.7-.18 7.2 7.2 0 0 1-.68-.25 7.2 7.2 0 0 1-.65-.31 7.2 7.2 0 0 1-.61-.38 7.2 7.2 0 0 1-.58-.43 7.2 7.2 0 0 1-.45-.43z" fill="#80ffe5"/><path d="M24 31.2V42c4.59 0 9.2-1.76 12.72-5.28l-7.63-7.63a7.2 7.2 0 0 1-.08.08 7.2 7.2 0 0 1-.54.48 7.2 7.2 0 0 1-.59.42 7.2 7.2 0 0 1-.62.35 7.2 7.2 0 0 1-.66.3 7.2 7.2 0 0 1-.68.23 7.2 7.2 0 0 1-.7.15 7.2 7.2 0 0 1-.72.1 7.2 7.2 0 0 1-.5 0z" fill="#73ff44"/></g></svg>