<svg xmlns="http://www.w3.org/2000/svg" width="48" height="48" viewBox="0 0 12.7 12.7"><path fill="#ff7f2a" d="M6.34.07a6.29 6.29 0 0 0-6.29 6.3 6.29 6.29 0 0 0 6.3 6.28 6.29 6.29 0 0 0 6.28-6.29A6.29 6.29 0 0 0 6.34.07zm-.01.94a5.4 5.4 0 0 1 5.4 5.4 5.4 5.4 0 0 1-5.4 5.41 5.4 5.4 0 0 1-5.41-5.4A5.4 5.4 0 0 1 6.32 1z"/><path fill="#ff7f2a" d="M5.05 8.2c-.02 0-.03.01-.03.04-.11.04-.08.14-.06.37 0 .12.14.2.32.25-.2.15-.33.3-.32.43 0 .12.14.2.3.26-.19.14-.31.3-.3.43.01.15.25.3.72.37v.24c0 .3.32.58.67.58.35 0 .67-.27.67-.58v-.25c.4-.07.69-.18.72-.36.02-.1-.07-.2-.2-.3.1-.1.17-.2.16-.3 0-.11-.13-.2-.3-.25.19-.14.31-.3.3-.43 0-.1.04-.24-.08-.3-.01 0-.03 0-.04-.02v-.01c-.01-.16-.44.3-1.15.26-.63.1-1.25-.43-1.38-.43zm2.53.18a.2.2 0 0 1 .05.02c.04-.03.09-.12-.05-.02z"/><path fill="teal" stroke="#1a1a1a" stroke-width=".22" d="M6.35 1.83c-1.66 0-3 1.31-3 2.94 0 1.66 1.21 1.84 1.21 2.45 0 .72.71 1.54 1.89 1.5C7.7 8.7 8.21 8 8.21 7.23c0-.65 1.15-.67 1.15-2.46a2.97 2.97 0 0 0-3.01-2.93z" opacity=".75"/><path fill="#ff7f2a" d="M7.53 6.46a.12.12 0 0 0-.08.06c-.4.39-.95.39-1.4.29-.47-.1-.82-.31-.82-.31a.12.12 0 0 0-.09-.02.12.12 0 0 0-.07.04c-.03.03-.05.08-.04.12l.8 2.39c.03.06.1.1.16.09.07-.03.1-.1.09-.15l-.72-2.14c.16.07.38.15.63.2.4.1.89.11 1.32-.12l-.69 2.03c-.02.06.03.13.09.15.07.02.13-.02.15-.09l.8-2.38c.03-.07-.01-.13-.08-.15a.11.11 0 0 0-.05 0z" opacity=".75"/><path fill="none" stroke="#ff7f2a" stroke-width=".22" d="M6.35 1.83c-1.66 0-3 1.31-3 2.94 0 1.66 1.21 1.84 1.21 2.45 0 .72.71 1.54 1.89 1.5C7.7 8.7 8.21 8 8.21 7.23c0-.65 1.15-.67 1.15-2.46a2.97 2.97 0 0 0-3.01-2.93z"/></svg>