<svg xmlns="http://www.w3.org/2000/svg" width="48" height="48" viewBox="0 0 12.7 12.7"><path d="M6.34.07a6.29 6.29 0 0 0-6.29 6.3 6.29 6.29 0 0 0 6.3 6.28 6.29 6.29 0 0 0 6.28-6.29A6.29 6.29 0 0 0 6.34.07zm-.01.94a5.4 5.4 0 0 1 5.4 5.4 5.4 5.4 0 0 1-5.4 5.41 5.4 5.4 0 0 1-5.41-5.4A5.4 5.4 0 0 1 6.32 1zM5 2.65v1.04h-1.8v.63h1.8v1.2c-.8.27-1.57.8-1.93 1.6-.27.65-.3 1.48.15 2.05.5.56 1.34.54 2 .3a5.03 5.03 0 0 0 2.6-2.66c.18-.24.18-.9.56-.54.6.34.8 1.13.6 1.76-.24.8-1.06 1.22-1.83 1.35l.19.67a3.74 3.74 0 0 0 1.3-.47A2.33 2.33 0 0 0 9.8 7.49a2.06 2.06 0 0 0-1-1.77c-.92-.56-2.05-.54-3.08-.4v-1h3.75V3.7H5.73V2.65h-.72zM6.58 5.9c.29 0 .57 0 .86.04a5.29 5.29 0 0 1-1.7 2.48V6.02c.27-.06.56-.1.84-.1zm-1.57.34v2.6c-.25.09-.53.15-.8.09-.43-.08-.6-.54-.58-.93C3.62 7.2 4.3 6.55 5 6.25z" fill="#ff7f2a"/></svg>