<svg xmlns="http://www.w3.org/2000/svg" width="48" height="48" viewBox="0 0 12.7 12.7"><path fill="#ff7f2a" d="M6.34.07a6.29 6.29 0 0 0-6.29 6.3 6.29 6.29 0 0 0 6.3 6.28 6.29 6.29 0 0 0 6.28-6.29A6.29 6.29 0 0 0 6.34.07zm-.01.94a5.4 5.4 0 0 1 5.4 5.4 5.4 5.4 0 0 1-5.4 5.41 5.4 5.4 0 0 1-5.41-5.4A5.4 5.4 0 0 1 6.32 1zm2.03 1.38a1.52 1.52 0 0 0-1.52 1.52 1.52 1.52 0 0 0 .01.19l-2.5 1.25a1.52 1.52 0 0 0-1.06-.43 1.52 1.52 0 0 0-1.52 1.52A1.52 1.52 0 0 0 3.3 7.96a1.52 1.52 0 0 0 1.06-.42l2.5 1.25a1.52 1.52 0 0 0-.01.19 1.52 1.52 0 0 0 1.52 1.52 1.52 1.52 0 0 0 1.52-1.52 1.52 1.52 0 0 0-1.52-1.52 1.52 1.52 0 0 0-1.06.42L4.8 6.63a1.52 1.52 0 0 0 .01-.19 1.52 1.52 0 0 0-.01-.18L7.3 5a1.52 1.52 0 0 0 1.06.43 1.52 1.52 0 0 0 1.52-1.52 1.52 1.52 0 0 0-1.52-1.52z"/></svg>