<svg xmlns="http://www.w3.org/2000/svg" width="48" height="48" viewBox="0 0 12.7 12.7"><path fill="#ff7f2a" d="M6.34.07a6.29 6.29 0 0 0-6.29 6.3 6.29 6.29 0 0 0 6.3 6.28 6.29 6.29 0 0 0 6.28-6.29A6.29 6.29 0 0 0 6.34.07zm-.01.94a5.4 5.4 0 0 1 5.4 5.4 5.4 5.4 0 0 1-5.4 5.41 5.4 5.4 0 0 1-5.41-5.4A5.4 5.4 0 0 1 6.32 1zm.02.82a4.5 4.5 0 0 0-2.86 1.02l1.66 2.87.02-.04 2.16-3.74a4.51 4.51 0 0 0-.98-.12zm1.6.3L6.3 5h4.37a4.54 4.54 0 0 0-2.71-2.88zM3.02 3.3a4.52 4.52 0 0 0-1.1 3.97h3.4l-.53-.91L3 3.3zm4.38 2.15l.14.23 2.16 3.74a4.52 4.52 0 0 0 1.1-3.97H7.4zM7.55 7l-.42.73-1.77 3.06a4.5 4.5 0 0 0 3.85-.91L7.55 6.99zm-5.53.73a4.54 4.54 0 0 0 2.72 2.87L6.4 7.72H2.02z"/></svg>