<svg xmlns="http://www.w3.org/2000/svg" width="48" height="48" viewBox="0 0 12.7 12.7"><path fill="#ff7f2a" d="M6.34.07a6.29 6.29 0 0 0-6.29 6.3 6.29 6.29 0 0 0 6.3 6.28 6.29 6.29 0 0 0 6.28-6.29A6.29 6.29 0 0 0 6.34.07zm-.01.94a5.4 5.4 0 0 1 5.4 5.4 5.4 5.4 0 0 1-5.4 5.41 5.4 5.4 0 0 1-5.41-5.4A5.4 5.4 0 0 1 6.32 1zm1.34 1.64A4.94 4.94 0 0 0 4.22 4.2C2.74 5.7 2.26 7.65 2.97 8.91c.3-.77 1.1-1.92 3.17-2.64 2.25-.8 3-2.25 3.24-2.94a2.44 2.44 0 0 0-1.71-.68zm2.04 1.1a4.8 4.8 0 0 1-1.03 1.5A6.22 6.22 0 0 1 6.3 6.7c-2.2.77-2.82 2.04-2.99 2.65a.52.52 0 0 1 .02.03c1.18 1.18 3.5.78 5.17-.9C9.97 7 10.45 5.02 9.7 3.76z"/></svg>