<svg xmlns="http://www.w3.org/2000/svg" width="48" height="48" viewBox="0 0 12.7 12.7"><path fill="#ff7f2a" d="M6.34.07a6.29 6.29 0 0 0-6.29 6.3 6.29 6.29 0 0 0 6.3 6.28 6.29 6.29 0 0 0 6.28-6.29A6.29 6.29 0 0 0 6.34.07zm-.01.94a5.4 5.4 0 0 1 5.4 5.4 5.4 5.4 0 0 1-5.4 5.41 5.4 5.4 0 0 1-5.41-5.4A5.4 5.4 0 0 1 6.32 1zm.02.58c-.15 0-.3 0-.45.02l-.27 1.42a3.41 3.41 0 0 0-.66.22l-1.04-1a4.72 4.72 0 0 0-.73.55l.62 1.3a3.44 3.44 0 0 0-.4.55l-1.43-.19a4.7 4.7 0 0 0-.28.87l1.26.68a3.28 3.28 0 0 0-.02.34c0 .12 0 .23.02.34l-1.26.68c.07.3.16.6.28.87l1.43-.19c.11.2.25.39.4.56L3.2 9.9c.23.2.46.4.73.55l1.04-1c.2.1.43.17.66.22l.27 1.42a4.84 4.84 0 0 0 .9 0l.27-1.42c.23-.05.45-.12.66-.22l1.04 1c.27-.15.5-.35.73-.55l-.62-1.3c.15-.17.29-.35.4-.55l1.43.2a4.7 4.7 0 0 0 .27-.88L9.73 6.7a3.47 3.47 0 0 0 0-.68l1.25-.68a4.7 4.7 0 0 0-.27-.87l-1.43.19a3.44 3.44 0 0 0-.4-.55l.62-1.3a4.72 4.72 0 0 0-.73-.55l-1.04 1a3.41 3.41 0 0 0-.66-.22L6.8 1.61a4.84 4.84 0 0 0-.44-.02zm0 2.54c.93 0 1.73.58 2.06 1.4l.88.88h-.73a2.22 2.22 0 0 1-2.22 2.16c-.85 0-1.59-.48-1.96-1.18l-.97-.97h.71v-.07c0-1.22 1-2.22 2.22-2.22zm0 .45a1.77 1.77 0 0 0-1.77 1.77v.07h.8l-.65.65a1.77 1.77 0 0 0 1.61 1.05c.96 0 1.74-.76 1.77-1.7h-.8l.69-.7a1.77 1.77 0 0 0-1.66-1.14z"/></svg>