<svg xmlns="http://www.w3.org/2000/svg" width="48" height="48"><path d="M23.95 3.1A20.86 20.86 0 0 0 3.1 23.95 20.86 20.86 0 0 0 23.95 44.8 20.86 20.86 0 0 0 44.8 23.95 20.86 20.86 0 0 0 23.95 3.1zM24 6.58a17.23 17.23 0 0 1 17.24 17.24A17.23 17.23 0 0 1 24 41.05 17.23 17.23 0 0 1 6.76 23.82 17.23 17.23 0 0 1 24 6.58zm0 3.56a13.86 13.86 0 0 0-13.2 9.69h3.51a10.45 10.45 0 0 1 9.6-6.31 10.45 10.45 0 0 1 9.58 6.3h3.72a13.86 13.86 0 0 0-13.22-9.68zM11.28 26.42a12.6 12.6 0 0 0 12.53 11.54 12.6 12.6 0 0 0 12.54-11.54H11.29z" fill="#ff7f2a"/></svg>