<svg xmlns="http://www.w3.org/2000/svg" width="48" height="48" viewBox="0 0 12.7 12.7"><defs><linearGradient id="a"><stop offset="0" stop-color="#fcfcfc"/><stop offset="1" stop-color="#fbc2bb"/></linearGradient></defs><path d="M6.34.07a6.29 6.29 0 0 0-6.29 6.3 6.29 6.29 0 0 0 6.3 6.28 6.29 6.29 0 0 0 6.28-6.29A6.29 6.29 0 0 0 6.34.07zm-.01.94a5.4 5.4 0 0 1 5.4 5.4 5.4 5.4 0 0 1-5.4 5.41 5.4 5.4 0 0 1-5.41-5.4A5.4 5.4 0 0 1 6.32 1z" fill="#ff7f2a"/><path d="M4.44 3.51h-.07l-2.15.4c-.13.05-.24.13-.26.2-.05.13.08.54.26.82.7.84 1.48 1.05 2.24 1.5.1.1.13.15-.55.45-1.05.46-1.39.86-1.59 1.44-.06.17-.08.63-.04.75.05.15.08.18 1.1-.02 1.02-.2.93-.2 1.02-.28.07-.07.07-.08.1-.4l.08-.61c.06-.21.22-.44.39-.56.63-.44 1.83-.22 2.47.47.25.25.4.62.52 1.03.07.23.15.33.26.35.1.02.1-.01 1.4-.26.72-.14 1.02-.2 1.06-.23.1-.08.1-.25 0-.54a2.3 2.3 0 0 0-.92-1.2 6.25 6.25 0 0 0-1.1-.62c-.5-.24-.74-.3-.74-.38 0-.06.2-.09.6-.2.88-.27 1.3-.64 1.3-1.32 0-.3-.06-.54-.15-.62-.11-.1-.32-.1-.8-.02-1.58.29-1.47.28-1.54.4-.04.06-.04.07.03.36l.08.41c0 .1-.14.27-.2.33-.16.15-.51.24-.87.24a1.4 1.4 0 0 1-1.1-.5c-.24-.25-.36-.5-.52-.94-.14-.4-.16-.45-.3-.45z" fill="red" opacity=".75"/></svg>