<svg xmlns="http://www.w3.org/2000/svg" width="48" height="48" viewBox="0 0 12.7 12.7"><path d="M6.34.07a6.29 6.29 0 0 0-6.29 6.3 6.29 6.29 0 0 0 6.3 6.28 6.29 6.29 0 0 0 6.28-6.29A6.29 6.29 0 0 0 6.34.07zM6.32 1l.01.01a5.4 5.4 0 0 1 5.4 5.4 5.4 5.4 0 0 1-5.4 5.41 5.4 5.4 0 0 1-5.41-5.4A5.4 5.4 0 0 1 6.32 1zm0 2.53a2.9 2.9 0 0 0-2.03.81c-.3.29-.49.55-.79 1.15-.25.5-.27.53-.6.91-.27.31-.48.62-.63.93a2.5 2.5 0 0 0-.2.67.3.3 0 0 0 .01.15c0 .02 0 .03.03.05l.02.01c.06.56.57.88 1.5.94a5.38 5.38 0 0 0 .92 0 8.3 8.3 0 0 0 3.24-1.02c1.6-.9 2.84-2.32 2.84-3.23 0-.23-.15-.47-.37-.63v-.03a.06.06 0 0 0-.03-.02c0-.02-.02-.02-.03-.03A2.56 2.56 0 0 0 9.8 4c-.3-.1-.66-.15-1.38-.17-.69-.02-.68-.02-1.01-.13a2.89 2.89 0 0 0-1.08-.18zm3 1.2a3.17 3.17 0 0 1 .7.09h.03l.06.08c0 .22-.23.74-.7 1.27-.22.26-.5.52-.8.77a.7 2.1 64.57 0 0 .17-.54.7 2.1 64.57 0 0-2.2.27A.7 2.1 64.57 0 0 5 8.2a.7 2.1 64.57 0 0 .72.2 6.16 6.16 0 0 1-1.62.25s-.25 0-.42-.02c-.42-.03-.7-.12-.84-.2-.08-.06-.08-.11-.1-.16l.06-.15c.04-.11.23-.41.53-.72.3-.3.71-.64 1.17-.95 1.24-.83 2.91-1.5 4.17-1.68.2-.03.44-.04.65-.04z" fill="#ff7f2a"/></svg>
