<svg xmlns="http://www.w3.org/2000/svg" width="48" height="48" viewBox="0 0 12.7 12.7"><g fill="#ff7f2a" transform="translate(0 -284.3)"><path d="M6.34 284.37a6.29 6.29 0 0 0-6.29 6.3 6.29 6.29 0 0 0 6.3 6.28 6.29 6.29 0 0 0 6.28-6.29 6.29 6.29 0 0 0-6.29-6.29zm-.01.94a5.4 5.4 0 0 1 5.4 5.4 5.4 5.4 0 0 1-5.4 5.41 5.4 5.4 0 0 1-5.41-5.4 5.4 5.4 0 0 1 5.4-5.41z"/><rect width="1.21" height=".98" x="2.63" y="290.2" rx=".39" ry=".1"/><rect width="1.21" height=".98" x="4.75" y="290.2" rx=".39" ry=".1"/><rect width="1.21" height=".98" x="6.87" y="290.2" rx=".39" ry=".1"/><rect width="1.21" height=".98" x="8.98" y="290.2" rx=".39" ry=".1"/></g></svg>