<?xml version="1.0" encoding="UTF-8" standalone="no"?>
<svg
   xmlns:dc="http://purl.org/dc/elements/1.1/"
   xmlns:cc="http://creativecommons.org/ns#"
   xmlns:rdf="http://www.w3.org/1999/02/22-rdf-syntax-ns#"
   xmlns:svg="http://www.w3.org/2000/svg"
   xmlns="http://www.w3.org/2000/svg"
   xmlns:sodipodi="http://sodipodi.sourceforge.net/DTD/sodipodi-0.dtd"
   xmlns:inkscape="http://www.inkscape.org/namespaces/inkscape"
   height="48"
   version="1.1"
   width="48"
   id="svg6"
   sodipodi:docname="nm-stage01-connecting06.svg"
   inkscape:version="0.92.3 (2405546, 2018-03-11)">
  <metadata
     id="metadata12">
    <rdf:RDF>
      <cc:Work
         rdf:about="">
        <dc:format>image/svg+xml</dc:format>
        <dc:type
           rdf:resource="http://purl.org/dc/dcmitype/StillImage" />
        <dc:title></dc:title>
      </cc:Work>
    </rdf:RDF>
  </metadata>
  <defs
     id="defs10" />
  <sodipodi:namedview
     pagecolor="#ffffff"
     bordercolor="#666666"
     borderopacity="1"
     objecttolerance="10"
     gridtolerance="10"
     guidetolerance="10"
     inkscape:pageopacity="0"
     inkscape:pageshadow="2"
     inkscape:window-width="1366"
     inkscape:window-height="690"
     id="namedview8"
     showgrid="false"
     inkscape:zoom="14.039698"
     inkscape:cx="2.5849882"
     inkscape:cy="24"
     inkscape:window-x="0"
     inkscape:window-y="28"
     inkscape:window-maximized="1"
     inkscape:current-layer="svg6" />
  <g
     transform="translate(0 -1004.3622)"
     id="g4"
     style="fill:#cccccc">
    <path
       d="M24 6A18 18 0 0 0 6 24 18 18 0 0 0  24 42 18 18 0 0 0  42 24 18 18 0 0 0  41.722656 20.875L37.785156 21.568359A14 14 0 0 1 38 24 14 14 0 0 1  24 38 14 14 0 0 1  10 24 14 14 0 0 1  24 10L24 6z"
       fill="#31363b"
       stroke-width="3"
       transform="translate(0 1004.3622)"
       id="path2"
       style="fill:#cccccc" />
  </g>
</svg>
