<svg xmlns="http://www.w3.org/2000/svg" width="48" height="48" viewBox="0 0 12.7 12.7"><path d="M6.344.073a6.29 6.29 0 0 0-6.29 6.29 6.29 6.29 0 0 0 6.29 6.288 6.29 6.29 0 0 0 6.29-6.289 6.29 6.29 0 0 0-6.29-6.29zm-.018.936a5.407 5.407 0 0 1 5.407 5.407 5.407 5.407 0 0 1-5.407 5.407A5.407 5.407 0 0 1 .92 6.416 5.407 5.407 0 0 1 6.326 1.01zm-1.523 1.6c-.32 0-.578.106-.578.236V5.16h1.157V2.845c0-.13-.258-.235-.579-.235zm2.877 0c-.321 0-.58.106-.58.236V5.16h1.158V2.845c0-.13-.258-.235-.578-.235zM3.383 5.498a2.876 2.632 0 0 0 1.414 2.305 2.876 2.632 0 0 0 2.888.019 2.876 2.632 0 0 0 1.45-2.285l-5.752-.039zm2.26 2.94v2.315c0 .13.258.235.579.235.32 0 .579-.105.579-.235V8.436H5.643z" fill="#1a1a1a"/></svg>