<?xml version="1.0" encoding="UTF-8" standalone="no"?>
<!-- Created with Inkscape (http://www.inkscape.org/) -->

<svg
   xmlns:dc="http://purl.org/dc/elements/1.1/"
   xmlns:cc="http://creativecommons.org/ns#"
   xmlns:rdf="http://www.w3.org/1999/02/22-rdf-syntax-ns#"
   xmlns:svg="http://www.w3.org/2000/svg"
   xmlns="http://www.w3.org/2000/svg"
   xmlns:sodipodi="http://sodipodi.sourceforge.net/DTD/sodipodi-0.dtd"
   xmlns:inkscape="http://www.inkscape.org/namespaces/inkscape"
   width="48"
   height="48"
   viewBox="0 0 12.7 12.7"
   version="1.1"
   id="svg829"
   inkscape:version="0.92.3 (2405546, 2018-03-11)"
   sodipodi:docname="camera-photo.svg">
  <defs
     id="defs823" />
  <sodipodi:namedview
     id="base"
     pagecolor="#ffffff"
     bordercolor="#666666"
     borderopacity="1.0"
     inkscape:pageopacity="0.0"
     inkscape:pageshadow="2"
     inkscape:zoom="1.8119611"
     inkscape:cx="-113.0071"
     inkscape:cy="24"
     inkscape:document-units="mm"
     inkscape:current-layer="layer1"
     showgrid="false"
     showguides="true"
     inkscape:guide-bbox="true"
     inkscape:window-width="1366"
     inkscape:window-height="690"
     inkscape:window-x="0"
     inkscape:window-y="28"
     inkscape:window-maximized="1"
     scale-x="1.9"
     units="px"
     inkscape:snap-global="false" />
  <metadata
     id="metadata826">
    <rdf:RDF>
      <cc:Work
         rdf:about="">
        <dc:format>image/svg+xml</dc:format>
        <dc:type
           rdf:resource="http://purl.org/dc/dcmitype/StillImage" />
        <dc:title></dc:title>
      </cc:Work>
    </rdf:RDF>
  </metadata>
  <g
     inkscape:label="Capa 1"
     inkscape:groupmode="layer"
     id="layer1"
     transform="translate(0,-284.3)">
    <path
       style="fill:#1a1a1a;fill-opacity:1;stroke-width:0.52516764"
       d="M 23.978516 0.27539062 A 23.770509 23.770509 0 0 0 0.20703125 24.046875 A 23.770509 23.770509 0 0 0 23.978516 47.816406 A 23.770509 23.770509 0 0 0 47.748047 24.046875 A 23.770509 23.770509 0 0 0 23.978516 0.27539062 z M 23.910156 3.8144531 A 20.436071 20.436071 0 0 1 44.345703 24.25 A 20.436071 20.436071 0 0 1 23.910156 44.685547 A 20.436071 20.436071 0 0 1 3.4726562 24.25 A 20.436071 20.436071 0 0 1 23.910156 3.8144531 z M 23.998047 6.8964844 C 19.886014 6.8964844 16.125446 8.3459203 13.169922 10.761719 L 19.449219 21.632812 L 19.542969 21.460938 L 27.707031 7.3164062 C 26.516255 7.0510834 25.27449 6.8964844 23.998047 6.8964844 z M 30.072266 8.0273438 L 23.800781 18.890625 L 40.34375 18.890625 C 38.767472 13.879085 34.946738 9.8777626 30.072266 8.0273438 z M 11.378906 12.464844 C 8.5861506 15.51462 6.8652344 19.568006 6.8652344 24.03125 C 6.8652344 25.204907 6.9842961 26.351935 7.2070312 27.457031 L 20.041016 27.457031 L 18.060547 24.03125 L 11.378906 12.464844 z M 27.955078 20.603516 L 28.453125 21.460938 L 36.617188 35.595703 C 39.409939 32.545965 41.130859 28.494532 41.130859 24.03125 C 41.130859 22.857631 41.01179 21.708649 40.789062 20.603516 L 27.955078 20.603516 z M 28.546875 26.429688 L 26.962891 29.169922 L 20.279297 40.744141 C 21.47864 41.009463 22.721603 41.164062 23.998047 41.164062 C 28.11008 41.164062 31.870649 39.716617 34.826172 37.300781 L 28.546875 26.429688 z M 7.6523438 29.169922 C 9.2286229 34.181462 13.049356 38.182784 17.923828 40.033203 L 24.195312 29.169922 L 7.6523438 29.169922 z "
       transform="matrix(0.26458333,0,0,0.26458333,0,284.3)"
       id="path1374" />
  </g>
</svg>
