<?xml version="1.0" encoding="UTF-8" standalone="no"?>
<!-- Created with Inkscape (http://www.inkscape.org/) -->

<svg
   xmlns:dc="http://purl.org/dc/elements/1.1/"
   xmlns:cc="http://creativecommons.org/ns#"
   xmlns:rdf="http://www.w3.org/1999/02/22-rdf-syntax-ns#"
   xmlns:svg="http://www.w3.org/2000/svg"
   xmlns="http://www.w3.org/2000/svg"
   xmlns:sodipodi="http://sodipodi.sourceforge.net/DTD/sodipodi-0.dtd"
   xmlns:inkscape="http://www.inkscape.org/namespaces/inkscape"
   width="48"
   height="48"
   viewBox="0 0 12.7 12.7"
   version="1.1"
   id="svg829"
   inkscape:version="0.92.3 (2405546, 2018-03-11)"
   sodipodi:docname="camera-video.svg">
  <defs
     id="defs823" />
  <sodipodi:namedview
     id="base"
     pagecolor="#ffffff"
     bordercolor="#666666"
     borderopacity="1.0"
     inkscape:pageopacity="0.0"
     inkscape:pageshadow="2"
     inkscape:zoom="3.6239223"
     inkscape:cx="-30.996963"
     inkscape:cy="24"
     inkscape:document-units="mm"
     inkscape:current-layer="layer1"
     showgrid="false"
     showguides="true"
     inkscape:guide-bbox="true"
     inkscape:window-width="1366"
     inkscape:window-height="690"
     inkscape:window-x="0"
     inkscape:window-y="28"
     inkscape:window-maximized="1"
     scale-x="1.9"
     units="px"
     inkscape:snap-global="false" />
  <metadata
     id="metadata826">
    <rdf:RDF>
      <cc:Work
         rdf:about="">
        <dc:format>image/svg+xml</dc:format>
        <dc:type
           rdf:resource="http://purl.org/dc/dcmitype/StillImage" />
        <dc:title></dc:title>
      </cc:Work>
    </rdf:RDF>
  </metadata>
  <g
     inkscape:label="Capa 1"
     inkscape:groupmode="layer"
     id="layer1"
     transform="translate(0,-284.3)">
    <path
       style="fill:#1a1a1a;fill-opacity:1;stroke-width:0.52516764"
       d="M 23.978516 0.27539062 A 23.770509 23.770509 0 0 0 0.20703125 24.046875 A 23.770509 23.770509 0 0 0 23.978516 47.816406 A 23.770509 23.770509 0 0 0 47.748047 24.046875 A 23.770509 23.770509 0 0 0 23.978516 0.27539062 z M 23.910156 3.8144531 A 20.436071 20.436071 0 0 1 44.345703 24.25 A 20.436071 20.436071 0 0 1 23.910156 44.685547 A 20.436071 20.436071 0 0 1 3.4726562 24.25 A 20.436071 20.436071 0 0 1 23.910156 3.8144531 z M 37.087891 12.378906 A 4.720907 5.2009988 59.922034 0 0 34.361328 16.179688 C 33.585571 15.807782 32.725486 15.580078 31.804688 15.580078 L 20.123047 15.580078 C 16.842733 15.580078 14.203125 18.219672 14.203125 21.5 L 14.203125 23.044922 L 6.4414062 17.021484 L 6.4414062 33.662109 L 14.203125 27.638672 L 14.203125 28.863281 C 14.203125 32.143609 16.842733 34.783203 20.123047 34.783203 L 31.804688 34.783203 C 35.085001 34.783203 37.728516 32.143609 37.728516 28.863281 L 37.728516 21.5 C 37.728516 21.392283 37.702935 21.293327 37.697266 21.1875 A 4.720907 5.2009988 59.922034 0 0 41.755859 20.587891 L 37.087891 12.378906 z "
       transform="matrix(0.26458333,0,0,0.26458333,0,284.3)"
       id="path1374" />
    <path
       id="path815"
       transform="matrix(0.26458333,0,0,0.26458333,0,284.3)"
       d="M 23.978516 0.27539062 A 23.770509 23.770509 0 0 0 0.20703125 24.046875 A 23.770509 23.770509 0 0 0 23.978516 47.816406 A 23.770509 23.770509 0 0 0 47.748047 24.046875 A 23.770509 23.770509 0 0 0 23.978516 0.27539062 z M 23.910156 3.8144531 A 20.436071 20.436071 0 0 1 44.345703 24.25 A 20.436071 20.436071 0 0 1 23.910156 44.685547 A 20.436071 20.436071 0 0 1 3.4726562 24.25 A 20.436071 20.436071 0 0 1 23.910156 3.8144531 z M 37.087891 12.378906 A 4.720907 5.2009988 59.922034 0 0 34.361328 16.179688 C 33.585571 15.807782 32.725486 15.580078 31.804688 15.580078 L 20.123047 15.580078 C 16.842733 15.580078 14.203125 18.219672 14.203125 21.5 L 14.203125 23.044922 L 6.4414062 17.021484 L 6.4414062 33.662109 L 14.203125 27.638672 L 14.203125 28.863281 C 14.203125 32.143609 16.842733 34.783203 20.123047 34.783203 L 31.804688 34.783203 C 35.085001 34.783203 37.728516 32.143609 37.728516 28.863281 L 37.728516 21.5 C 37.728516 21.392283 37.702935 21.293327 37.697266 21.1875 A 4.720907 5.2009988 59.922034 0 0 41.755859 20.587891 L 37.087891 12.378906 z "
       style="fill:#1a1a1a;fill-opacity:1;stroke-width:0.52516764" />
  </g>
</svg>
