<?xml version="1.0" encoding="UTF-8" standalone="no"?>
<!-- Created with Inkscape (http://www.inkscape.org/) -->

<svg
   xmlns:dc="http://purl.org/dc/elements/1.1/"
   xmlns:cc="http://creativecommons.org/ns#"
   xmlns:rdf="http://www.w3.org/1999/02/22-rdf-syntax-ns#"
   xmlns:svg="http://www.w3.org/2000/svg"
   xmlns="http://www.w3.org/2000/svg"
   xmlns:sodipodi="http://sodipodi.sourceforge.net/DTD/sodipodi-0.dtd"
   xmlns:inkscape="http://www.inkscape.org/namespaces/inkscape"
   width="48"
   height="48"
   viewBox="0 0 12.7 12.7"
   version="1.1"
   id="svg829"
   inkscape:version="0.92.3 (2405546, 2018-03-11)"
   sodipodi:docname="camera-web.svg">
  <defs
     id="defs823" />
  <sodipodi:namedview
     id="base"
     pagecolor="#ffffff"
     bordercolor="#666666"
     borderopacity="1.0"
     inkscape:pageopacity="0.0"
     inkscape:pageshadow="2"
     inkscape:zoom="7.2478445"
     inkscape:cx="1.2195122"
     inkscape:cy="24"
     inkscape:document-units="mm"
     inkscape:current-layer="layer1"
     showgrid="false"
     showguides="true"
     inkscape:guide-bbox="true"
     inkscape:window-width="1366"
     inkscape:window-height="690"
     inkscape:window-x="0"
     inkscape:window-y="28"
     inkscape:window-maximized="1"
     scale-x="1.9"
     units="px" />
  <metadata
     id="metadata826">
    <rdf:RDF>
      <cc:Work
         rdf:about="">
        <dc:format>image/svg+xml</dc:format>
        <dc:type
           rdf:resource="http://purl.org/dc/dcmitype/StillImage" />
        <dc:title></dc:title>
      </cc:Work>
    </rdf:RDF>
  </metadata>
  <g
     inkscape:label="Capa 1"
     inkscape:groupmode="layer"
     id="layer1"
     transform="translate(0,-284.3)">
    <path
       style="fill:#1a1a1a;fill-opacity:1;stroke-width:0.1389506"
       d="m 6.3443558,284.37295 a 6.2892804,6.2892804 0 0 0 -6.28941435,6.28942 6.2892804,6.2892804 0 0 0 6.28941435,6.28914 6.2892804,6.2892804 0 0 0 6.2891432,-6.28914 6.2892804,6.2892804 0 0 0 -6.2891432,-6.28942 z m -0.018184,0.9363 a 5.4070438,5.4070438 0 0 1 5.4071322,5.40711 5.4070438,5.4070438 0 0 1 -5.4071322,5.40686 5.4070438,5.4070438 0 0 1 -5.40713234,-5.40686 5.4070438,5.4070438 0 0 1 5.40713234,-5.40711 z"
       id="path1374"
       inkscape:connector-curvature="0" />
    <path
       style="fill:#1a1a1a;stroke-width:0.71370792"
       d="M 24.009766 6.9375 C 16.123292 6.9375 9.7363281 13.324424 9.7363281 21.210938 C 9.7363281 27.764193 14.151847 33.268793 20.167969 34.947266 A 7.1055609 6.3467144 0 0 0 16.833984 40.412109 L 31.042969 40.320312 A 7.1055609 6.3467144 0 0 0 27.761719 34.970703 C 33.823772 33.322359 38.285156 27.796808 38.285156 21.210938 C 38.285156 13.324424 31.896239 6.9375 24.009766 6.9375 z M 24.009766 14.787109 C 27.556894 14.787109 30.433594 17.663813 30.433594 21.210938 C 30.433594 24.758062 27.556894 27.634766 24.009766 27.634766 C 20.462637 27.634766 17.587891 24.758062 17.587891 21.210938 C 17.587891 17.663813 20.462637 14.787109 24.009766 14.787109 z M 24.009766 19.783203 C 23.224687 19.783203 22.582031 20.425854 22.582031 21.210938 C 22.582031 21.995983 23.224687 22.638672 24.009766 22.638672 C 24.794844 22.638672 25.4375 21.995983 25.4375 21.210938 C 25.4375 20.425854 24.794844 19.783203 24.009766 19.783203 z "
       transform="matrix(0.26458333,0,0,0.26458333,0,284.3)"
       id="path2" />
  </g>
</svg>
