<svg xmlns="http://www.w3.org/2000/svg" width="48" height="48" viewBox="0 0 12.7 12.7"><path d="M6.344.073a6.29 6.29 0 0 0-6.29 6.29 6.29 6.29 0 0 0 6.29 6.288 6.29 6.29 0 0 0 6.29-6.289 6.29 6.29 0 0 0-6.29-6.29zm-.018.936a5.407 5.407 0 0 1 5.407 5.407 5.407 5.407 0 0 1-5.407 5.407A5.407 5.407 0 0 1 .92 6.416 5.407 5.407 0 0 1 6.326 1.01zM3.784 2.312a1.128 1.128 0 0 0-1.119 1.121v3.87c0 .611.507 1.121 1.119 1.121H7.15a1.128 1.128 0 0 0 1.118-1.121v-3.87c0-.61-.506-1.121-1.118-1.121H3.784zm1.682 1.019A1.79 1.79 0 0 1 7.25 5.113a1.79 1.79 0 0 1-1.783 1.783H3.681l.003-1.783c-.012-.978.805-1.782 1.782-1.782zm0 1.019a.756.756 0 0 0-.763.763c0 .428.335.765.763.765a.757.757 0 0 0 .765-.765.757.757 0 0 0-.765-.763zm3.311 0v4.998c0 .066-.032.095-.095.095H5.308c-.063 0-.096-.03-.096-.096v-.413H4.193v.414c0 .61.502 1.114 1.115 1.114h3.374a1.119 1.119 0 0 0 1.114-1.115V5.465c0-.579-.451-1.065-1.019-1.115z" fill="#1a1a1a"/></svg>