<svg xmlns="http://www.w3.org/2000/svg" width="48" height="48" viewBox="0 0 12.7 12.7"><defs><linearGradient id="a" x1="3113.4" x2="3113.4" y1="1664.4" y2="1602.4" gradientTransform="translate(-3159.2 -1600.2)" gradientUnits="userSpaceOnUse"><stop stop-color="#4a575b" offset="0"/><stop stop-color="#556469" offset=".5"/><stop stop-color="#4c595e" offset=".516"/><stop stop-color="#556469" offset="1"/></linearGradient></defs><path d="M1.21.86L.14 3.66h6.04V.86H1.21zm5.18 0v2.8h6.11L11.4.86H6.39zM.19 3.88V10.2c0 .64.25 1.18.74 1.64.5.45 1.08.67 1.78.67h7.25c.7 0 1.28-.22 1.78-.67.49-.46.73-1 .73-1.64V3.9h-1.12v6.3c0 .36-.13.66-.4.91a1.4 1.4 0 0 1-.99.38H2.71a1.4 1.4 0 0 1-.99-.38 1.19 1.19 0 0 1-.41-.9V3.88H.19zm6.162 1.508c-.742 0-1.418.212-1.909.559-.491.347-.8.835-.8 1.377 0 .54.309 1.026.8 1.373.188.132.406.24.642.33-.1.44-.207.732-.567 1.253l-.146.207.234-.106c.64-.288 1.094-.619 1.522-1.135.074.006.148.01.224.01.742 0 1.414-.213 1.905-.56.491-.346.8-.831.8-1.372 0-.542-.309-1.03-.8-1.377-.491-.347-1.163-.559-1.905-.559z" fill="#ff7f2a"/></svg>
