<?xml version="1.0" encoding="UTF-8" standalone="no"?><svg xmlns:dc="http://purl.org/dc/elements/1.1/" xmlns:cc="http://creativecommons.org/ns#" xmlns:rdf="http://www.w3.org/1999/02/22-rdf-syntax-ns#" xmlns="http://www.w3.org/2000/svg" width="48" height="48" viewBox="0 0 12.7 12.7"><metadata><rdf:RDF><cc:Work><dc:format>image/svg+xml</dc:format><dc:type rdf:resource="http://purl.org/dc/dcmitype/StillImage"/><dc:title/></cc:Work></rdf:RDF></metadata><path d="M1.21.86L.14 3.66h6.04V.86H1.21zm5.18 0v2.8h6.11L11.4.86H6.4zM.19 3.89v6.31c0 .64.25 1.18.74 1.64.5.45 1.08.67 1.78.67h7.25c.7 0 1.28-.22 1.78-.67.49-.46.73-1 .73-1.64V3.9h-1.12v6.3c0 .36-.13.66-.4.91a1.4 1.4 0 0 1-.99.38H2.71a1.4 1.4 0 0 1-.99-.38 1.19 1.19 0 0 1-.41-.9V3.88H.19zm1.53 1.4v1.06H2v1.06h.53V6.35h.26V5.29H1.72zm1.32.05v.53h.53v-.53h-.53zm.53.53v.53h.53v-.53h-.53zm.53 0h.53v-.53H4.1v.53zm.53 0v.53h.53v-.53h-.53zm.53 0h.52v-.53h-.52v.53zm.52 0v.53h.53v-.53h-.53zm.53 0h.53v-.53h-.53v.53zm.53 0v.53h.53v-.53h-.53zm.53 0h.53v-.53h-.53v.53zm.53 0v.53h.53v-.53H7.8zm.53 0h.53v-.53h-.53v.53zm.53 0v.53h.53v-.53h-.53zm.53 0h.53v-.53h-.53v.53zm.53 0v.53h.53v-.53h-.53zm.53 0h.53v-.53h-.53v.53zm-8.46-.31h.53v.53h-.53v-.53zm5.18 2.32v.4h.43v-.4h-.43zm-3.28.55a.91.91 0 0 0-.92.92c0 .51.42.92.94.92a.9.9 0 0 0 .87-.62h-.47c-.11.16-.23.23-.4.23-.3 0-.52-.23-.52-.53 0-.31.21-.53.5-.53.2 0 .33.08.42.24h.47a.8.8 0 0 0-.24-.38.95.95 0 0 0-.65-.25zm2.15 0a.74.74 0 0 0-.58.25v-.2h-.38v2.34h.42v-.75a.75.75 0 0 0 .54.2c.5 0 .88-.4.88-.93s-.37-.91-.87-.91zm2.75 0a.93.93 0 0 0-.93.92c0 .5.42.92.93.92s.94-.41.94-.9a.92.92 0 0 0-.94-.94zm-1.62.04v1.76h.43V8.47h-.43zM6 8.82c.29 0 .5.23.5.53 0 .3-.21.53-.5.53a.51.51 0 0 1-.51-.53c0-.3.22-.53.51-.53zm2.8 0c.29 0 .51.24.51.53a.52.52 0 0 1-.5.53c-.29 0-.51-.23-.51-.54 0-.29.23-.52.5-.52z" fill="#ff7f2a"/></svg>