<?xml version="1.0" encoding="UTF-8" standalone="no"?>
<svg
   xmlns:dc="http://purl.org/dc/elements/1.1/"
   xmlns:cc="http://creativecommons.org/ns#"
   xmlns:rdf="http://www.w3.org/1999/02/22-rdf-syntax-ns#"
   xmlns:svg="http://www.w3.org/2000/svg"
   xmlns="http://www.w3.org/2000/svg"
   xmlns:sodipodi="http://sodipodi.sourceforge.net/DTD/sodipodi-0.dtd"
   xmlns:inkscape="http://www.inkscape.org/namespaces/inkscape"
   width="48"
   height="48"
   version="1.1"
   id="svg4"
   sodipodi:docname="cockos-reaper-document.svg"
   inkscape:version="0.92.4 (5da689c313, 2019-01-14)">
  <metadata
     id="metadata10">
    <rdf:RDF>
      <cc:Work
         rdf:about="">
        <dc:format>image/svg+xml</dc:format>
        <dc:type
           rdf:resource="http://purl.org/dc/dcmitype/StillImage" />
        <dc:title></dc:title>
      </cc:Work>
    </rdf:RDF>
  </metadata>
  <defs
     id="defs8" />
  <sodipodi:namedview
     pagecolor="#ffffff"
     bordercolor="#666666"
     borderopacity="1"
     objecttolerance="10"
     gridtolerance="10"
     guidetolerance="10"
     inkscape:pageopacity="0"
     inkscape:pageshadow="2"
     inkscape:window-width="1136"
     inkscape:window-height="480"
     id="namedview6"
     showgrid="false"
     inkscape:zoom="4.9166667"
     inkscape:cx="2.1355932"
     inkscape:cy="24"
     inkscape:window-x="0"
     inkscape:window-y="25"
     inkscape:window-maximized="0"
     inkscape:current-layer="svg4" />
  <path
     d="m 29.705,-0.083984 c -2.047,0.008 -4.1216,0.087656 -4.5176,0.097656 H 6.9994 a 2.938,2.938 0 0 0 -0.5625,0 c -1.373,0.262 -2.4625,1.598 -2.4375,2.998 v 41.988 c 0,1.57 1.43,3 3,3 h 34 c 1.57,0 3,-1.43 3,-3 v -26.182 c 0.018,-0.792 0.21506,-9.9271 -0.33594,-10.496 l -9.6094,-8.0742 c -0.281,-0.275 -2.3026,-0.34003 -4.3496,-0.33203 z m 1.4902,3.0937 0.13281,7.5039 c 0.012,0.68 0.63741,1.2903 1.3164,1.2793 l 7.7715,-0.13672 c 0.133,0.018 0.26839,0.01814 0.40039,-0.0059 l 0.08203,3.0293 0.10156,4.0898 v 26.227 h -34 v -41.975 h 18.672 l 5.5234,-0.011719 z m -10.654,10.154 c -2.7674,0.02192 -5.5477,0.51239 -7.9863,1.4473 l -1.3672,0.51953 1.2031,2.2773 c 0.81298,1.5934 2.3099,3.4462 4.6836,5.9824 3.6743,3.837 5.0725,6.1469 5.8203,9.3984 0.52029,2.2436 0.45511,6.8284 -0.09766,8.6816 -0.68277,2.2111 -0.13037,1.6254 0.91016,-0.94336 1.0731,-2.6339 1.4628,-7.2842 0.8125,-10.275 -0.55272,-2.7314 -2.3087,-5.9184 -4.7148,-8.6172 -1.1706,-1.3007 -2.3414,-2.7961 -2.6016,-3.3164 -0.45522,-0.87795 -0.45385,-0.9749 0.06641,-1.2676 1.7235,-0.9104 4.6817,-1.4648 7.7383,-1.4648 3.967,0.03245 7.2192,0.97692 10.309,3.0254 1.1055,0.74788 1.7561,1.0718 1.3984,0.68164 -0.97549,-1.073 -4.684,-3.4137 -6.8301,-4.3242 -1.0726,-0.45504 -3.0874,-1.0393 -4.4531,-1.332 h -0.002 c -1.5724,-0.32894 -3.2289,-0.4858 -4.8887,-0.47266 z"
     id="path2"
     inkscape:connector-curvature="0"
     style="fill:#ff7f2a" />
</svg>
