<?xml version="1.0" encoding="UTF-8" standalone="no"?>
<svg
   xmlns:dc="http://purl.org/dc/elements/1.1/"
   xmlns:cc="http://creativecommons.org/ns#"
   xmlns:rdf="http://www.w3.org/1999/02/22-rdf-syntax-ns#"
   xmlns:svg="http://www.w3.org/2000/svg"
   xmlns="http://www.w3.org/2000/svg"
   xmlns:sodipodi="http://sodipodi.sourceforge.net/DTD/sodipodi-0.dtd"
   xmlns:inkscape="http://www.inkscape.org/namespaces/inkscape"
   width="48"
   height="48"
   viewBox="0 0 12.7 12.7"
   version="1.1"
   id="svg4"
   sodipodi:docname="gnome-mime-text-x-vcalendar.svg"
   inkscape:version="0.92.5 (2060ec1f9f, 2020-04-08)">
  <metadata
     id="metadata10">
    <rdf:RDF>
      <cc:Work
         rdf:about="">
        <dc:format>image/svg+xml</dc:format>
        <dc:type
           rdf:resource="http://purl.org/dc/dcmitype/StillImage" />
        <dc:title></dc:title>
      </cc:Work>
    </rdf:RDF>
  </metadata>
  <defs
     id="defs8" />
  <sodipodi:namedview
     pagecolor="#ffffff"
     bordercolor="#666666"
     borderopacity="1"
     objecttolerance="10"
     gridtolerance="10"
     guidetolerance="10"
     inkscape:pageopacity="0"
     inkscape:pageshadow="2"
     inkscape:window-width="1087"
     inkscape:window-height="480"
     id="namedview6"
     showgrid="false"
     inkscape:zoom="4.9166667"
     inkscape:cx="2.1355932"
     inkscape:cy="24"
     inkscape:window-x="0"
     inkscape:window-y="25"
     inkscape:window-maximized="0"
     inkscape:current-layer="svg4" />
  <path
     d="m 3.175,0.53 c -0.44,0 -0.794,0.303 -0.794,0.68 V 2.116 H 3.97 V 1.21 C 3.97,0.833 3.616,0.53 3.176,0.53 Z m 6.35,0 c -0.44,0 -0.794,0.303 -0.794,0.68 v 0.906 h 1.588 V 1.21 c 0,-0.377 -0.354,-0.68 -0.794,-0.68 z m -9.26,2.115 v 7.673 c 0,1.172 0.944,2.116 2.116,2.116 h 7.938 a 2.112,2.112 0 0 0 2.116,-2.116 V 2.646 H 0.265 Z m 0.813,2.116 h 10.544 c 0.012,0.087 0.02,0.175 0.02,0.265 v 5.027 c 0,0.88 -0.59,1.588 -1.323,1.588 H 2.38 c -0.733,0 -1.323,-0.708 -1.323,-1.588 V 5.027 c 0,-0.09 0.008,-0.178 0.02,-0.265 z M 4.385,5.797 A 2.38,2.38 0 0 0 3.842,5.867 4.497,4.497 0 0 0 3.202,6.074 V 6.645 C 3.427,6.52 3.637,6.427 3.832,6.365 4.031,6.304 4.218,6.273 4.396,6.273 c 0.25,0 0.452,0.07 0.607,0.21 0.157,0.14 0.235,0.321 0.235,0.543 A 0.909,0.909 0 0 1 5.128,7.443 2.62,2.62 0 0 1 4.751,7.959 C 4.656,8.067 4.423,8.309 4.051,8.684 3.681,9.057 3.39,9.354 3.175,9.577 v 0.476 H 5.829 V 9.577 H 3.857 C 4.312,9.112 4.665,8.751 4.915,8.493 5.165,8.233 5.313,8.077 5.36,8.023 5.53,7.813 5.646,7.633 5.71,7.479 A 1.25,1.25 0 0 0 5.808,6.989 C 5.808,6.627 5.678,6.339 5.421,6.121 5.164,5.905 4.819,5.797 4.386,5.797 Z m 3.65,0.075 -1,0.202 v 0.515 l 1.006,-0.2 V 9.577 H 7.117 v 0.476 H 9.525 V 9.577 H 8.601 V 5.873 H 8.035 Z"
     id="path2"
     inkscape:connector-curvature="0"
     style="fill:#ff7f2a" />
</svg>
