<?xml version="1.0" encoding="UTF-8" standalone="no"?>
<svg
   xmlns:dc="http://purl.org/dc/elements/1.1/"
   xmlns:cc="http://creativecommons.org/ns#"
   xmlns:rdf="http://www.w3.org/1999/02/22-rdf-syntax-ns#"
   xmlns:svg="http://www.w3.org/2000/svg"
   xmlns="http://www.w3.org/2000/svg"
   xmlns:sodipodi="http://sodipodi.sourceforge.net/DTD/sodipodi-0.dtd"
   xmlns:inkscape="http://www.inkscape.org/namespaces/inkscape"
   width="48"
   height="48"
   version="1.1"
   id="svg35"
   sodipodi:docname="libreoffice-oasis-web-template.svg"
   inkscape:version="0.92.4 (5da689c313, 2019-01-14)">
  <metadata
     id="metadata39">
    <rdf:RDF>
      <cc:Work
         rdf:about="">
        <dc:format>image/svg+xml</dc:format>
        <dc:type
           rdf:resource="http://purl.org/dc/dcmitype/StillImage" />
        <dc:title></dc:title>
      </cc:Work>
    </rdf:RDF>
  </metadata>
  <sodipodi:namedview
     pagecolor="#ffffff"
     bordercolor="#666666"
     borderopacity="1"
     objecttolerance="10"
     gridtolerance="10"
     guidetolerance="10"
     inkscape:pageopacity="0"
     inkscape:pageshadow="2"
     inkscape:window-width="1087"
     inkscape:window-height="480"
     id="namedview37"
     showgrid="false"
     inkscape:zoom="4.9166667"
     inkscape:cx="2.1355932"
     inkscape:cy="24"
     inkscape:window-x="0"
     inkscape:window-y="25"
     inkscape:window-maximized="0"
     inkscape:current-layer="svg35" />
  <defs
     id="defs31">
    <linearGradient
       id="a">
      <stop
         offset="0"
         stop-color="#dc85e9"
         id="stop2" />
      <stop
         offset="1"
         stop-color="#f2cbf8"
         id="stop4" />
    </linearGradient>
    <linearGradient
       id="b">
      <stop
         offset="0"
         stop-color="#dc85e9"
         id="stop7" />
      <stop
         offset="1"
         stop-color="#f2cbf8"
         id="stop9" />
    </linearGradient>
    <linearGradient
       id="c">
      <stop
         offset="0"
         stop-color="#fff"
         stop-opacity=".588"
         id="stop12" />
      <stop
         offset="1"
         stop-color="#fff"
         stop-opacity=".863"
         id="stop14" />
    </linearGradient>
    <linearGradient
       id="d">
      <stop
         offset="0"
         stop-color="#b3b3b3"
         id="stop17" />
      <stop
         offset="1"
         stop-color="#e6e6e6"
         id="stop19" />
    </linearGradient>
    <linearGradient
       id="e">
      <stop
         offset="0"
         stop-color="#e694bb"
         id="stop22" />
      <stop
         offset=".262"
         stop-color="#d3819a"
         id="stop24" />
      <stop
         offset=".705"
         stop-color="#b25a64"
         id="stop26" />
      <stop
         offset="1"
         stop-color="#98313d"
         id="stop28" />
    </linearGradient>
  </defs>
  <path
     style="color:#000000;font-weight:400;line-height:normal;font-family:'Andale Mono';text-indent:0;text-align:start;text-decoration:none;text-decoration-line:none;text-transform:none;overflow:visible;fill:#ff7f2a;marker:none"
     d="m 32.938,-0.012 c -0.999,0.32 -1.335,1.84 -0.565,2.555 l 9.035,9.082 c 0.835,0.796 2.497,0.115 2.541,-1.041 V 1.502 c 0,-0.793 -0.717,-1.514 -1.506,-1.514 h -9.035 a 1.548,1.548 0 0 0 -0.47,0 z M 6.438,0.014 C 5.062,0.276 3.974,1.612 4,3.012 V 45 c 0,1.57 1.43,3 3,3 h 34 c 1.57,0 3,-1.43 3,-3 V 18.818 A 3.038,3.038 0 0 0 43.156,16.662 L 27.344,0.857 A 3.038,3.038 0 0 0 25.187,0.014 H 7 a 2.938,2.938 0 0 0 -0.563,0 z M 7,3.02 h 18.672 l 0.187,0.188 14.907,15 L 41,18.442 V 44.997 H 7 V 3.021 Z m 9.992,4.53 V 7.567 A 7.5,7.5 0 0 0 10.008,14.55 H 9.992 v 1 h 0.016 a 7.5,7.5 0 0 0 6.984,6.982 v 0.018 h 1 v -0.018 a 7.496,7.496 0 0 0 6.98,-6.982 h 0.02 v -1 h -0.02 A 7.496,7.496 0 0 0 17.992,7.567 V 7.55 Z m 0,1.064 v 2.936 h -2.451 c 0.537,-1.557 1.423,-2.662 2.451,-2.936 z m 1,0 c 1.027,0.274 1.912,1.379 2.45,2.936 h -2.45 V 8.615 Z m -3.305,0.57 c -0.482,0.643 -0.885,1.448 -1.177,2.366 h -1.498 a 6.54,6.54 0 0 1 2.675,-2.365 z m 5.61,0 a 6.54,6.54 0 0 1 2.674,2.366 H 21.475 C 21.182,10.632 20.782,9.827 20.297,9.185 Z M 11.49,12.55 h 1.758 c -0.134,0.632 -0.219,1.303 -0.246,2 H 11.01 c 0.053,-0.704 0.22,-1.377 0.48,-2 z m 2.77,0 h 2.732 v 2 h -2.99 c 0.029,-0.704 0.117,-1.377 0.258,-2 z m 3.732,0 h 2.729 c 0.142,0.623 0.23,1.296 0.261,2 h -2.99 z m 3.744,0 h 1.758 c 0.26,0.623 0.426,1.296 0.479,2 h -1.99 a 11.876,11.876 0 0 0 -0.247,-2 z m -10.726,3 h 1.992 c 0.027,0.697 0.112,1.368 0.246,2 H 11.49 a 6.445,6.445 0 0 1 -0.48,-2 z m 2.992,0 h 2.99 v 2 H 14.26 a 11.178,11.178 0 0 1 -0.258,-2 z m 3.99,0 h 2.99 c -0.029,0.704 -0.12,1.377 -0.261,2 h -2.729 z m 3.99,0 h 1.989 a 6.413,6.413 0 0 1 -0.477,2 h -1.758 c 0.134,-0.632 0.22,-1.303 0.246,-2 z m -9.97,3 h 1.498 c 0.292,0.918 0.694,1.723 1.178,2.365 A 6.533,6.533 0 0 1 12.012,18.55 Z m 2.529,0 h 2.451 v 2.935 C 15.964,21.21 15.078,20.107 14.541,18.55 Z m 3.451,0 h 2.45 c -0.538,1.557 -1.423,2.66 -2.45,2.935 z m 3.483,0 h 1.496 a 6.534,6.534 0 0 1 -2.674,2.365 c 0.483,-0.643 0.885,-1.447 1.178,-2.365 z m -9.375,6.8 c -1.196,0 -2.159,0.06 -2.159,0.131 v 1.57 c 0,0.073 0.963,0.13 2.159,0.13 h 24.158 c 1.195,0 2.158,-0.057 2.158,-0.13 v -1.57 c 0,-0.072 -0.963,-0.13 -2.158,-0.13 H 12.1 Z m -0.018,3.975 c -1.195,0 -2.158,0.059 -2.158,0.131 v 1.568 c 0,0.073 0.963,0.131 2.158,0.131 h 24.16 c 1.195,0 2.156,-0.058 2.156,-0.13 v -1.569 c 0,-0.072 -0.96,-0.13 -2.156,-0.13 h -24.16 z m 0.041,3.86 c -1.195,0 -2.156,0.058 -2.156,0.13 v 1.57 c 0,0.073 0.96,0.132 2.156,0.132 h 24.16 c 1.195,0 2.158,-0.059 2.158,-0.131 v -1.57 c 0,-0.073 -0.963,-0.131 -2.158,-0.131 z"
     font-weight="400"
     overflow="visible"
     id="path33"
     inkscape:connector-curvature="0" />
</svg>
