<?xml version="1.0" encoding="UTF-8" standalone="no"?>
<svg
   xmlns:dc="http://purl.org/dc/elements/1.1/"
   xmlns:cc="http://creativecommons.org/ns#"
   xmlns:rdf="http://www.w3.org/1999/02/22-rdf-syntax-ns#"
   xmlns:svg="http://www.w3.org/2000/svg"
   xmlns="http://www.w3.org/2000/svg"
   xmlns:sodipodi="http://sodipodi.sourceforge.net/DTD/sodipodi-0.dtd"
   xmlns:inkscape="http://www.inkscape.org/namespaces/inkscape"
   width="48"
   height="48"
   version="1.1"
   id="svg6"
   sodipodi:docname="text-x-markdown.svg"
   inkscape:version="0.92.4 (5da689c313, 2019-01-14)">
  <defs
     id="defs10" />
  <sodipodi:namedview
     pagecolor="#ffffff"
     bordercolor="#666666"
     borderopacity="1"
     objecttolerance="10"
     gridtolerance="10"
     guidetolerance="10"
     inkscape:pageopacity="0"
     inkscape:pageshadow="2"
     inkscape:window-width="1087"
     inkscape:window-height="480"
     id="namedview8"
     showgrid="false"
     inkscape:zoom="4.9166667"
     inkscape:cx="2.1355932"
     inkscape:cy="24"
     inkscape:window-x="0"
     inkscape:window-y="25"
     inkscape:window-maximized="0"
     inkscape:current-layer="svg6" />
  <metadata
     id="metadata2">
    <rdf:RDF>
      <cc:Work>
        <dc:format>image/svg+xml</dc:format>
        <dc:type
           rdf:resource="http://purl.org/dc/dcmitype/StillImage" />
        <dc:title></dc:title>
      </cc:Work>
    </rdf:RDF>
  </metadata>
  <path
     style="line-height:normal;text-indent:0;text-align:start;text-decoration:none;text-decoration-line:none;text-transform:none;fill:#ff7f2a;marker:none"
     d="m 29.7,-0.08 c -2.04,0 -4.12,0.08 -4.51,0.1 H 7 a 2.94,2.94 0 0 0 -0.56,0 3.1,3.1 0 0 0 -2.44,3 V 45 c 0,1.57 1.43,3 3,3 h 34 c 1.57,0 3,-1.43 3,-3 V 18.82 c 0.02,-0.8 0.22,-9.93 -0.34,-10.5 l -9.6,-8.07 c -0.29,-0.28 -2.3,-0.34 -4.35,-0.33 z m 1.5,3.08 0.13,7.5 c 0.01,0.68 0.64,1.3 1.31,1.28 l 7.78,-0.13 c 0.13,0.01 0.26,0.01 0.4,-0.01 l 0.08,3.03 0.1,4.09 V 45 H 7 V 3.02 H 25.67 L 31.2,3.01 Z m -17.24,9.08 a 3.07,3.27 0 0 0 -2.62,1.55 l -0.07,0.13 a 3.07,3.27 0 0 0 -0.02,0.03 c -0.22,0.39 -0.36,0.83 -0.36,1.3 v 0.1 a 3.07,3.27 0 0 0 0,0.16 3.07,3.27 0 0 0 0,0.23 v 14.94 a 2.585,2.585 0 1 0 5.17,0 V 20.28 l 2.78,3.1 c 0.17,0.2 0.38,0.35 0.61,0.47 a 2.95,2.02 0 0 0 2.07,0.58 2.95,2.02 0 0 0 1.84,-0.44 c 0.38,-0.12 0.72,-0.32 0.97,-0.6 l 2.56,-2.86 v 14.45 c 0,0.2 0.02,0.41 0.05,0.61 H 23.9 l 5.53,8.05 5.55,-8.05 H 32 c 0.03,-0.2 0.05,-0.4 0.05,-0.61 V 15.75 l -0.02,-0.28 a 2.92,3.27 0 0 0 0,-0.07 2.92,3.27 0 0 0 -2.92,-3.27 2.92,3.27 0 0 0 -1.98,0.86 c -0.1,0.08 -0.21,0.17 -0.3,0.28 l -5.26,5.87 -5.25,-5.87 -0.08,-0.08 a 3.07,3.27 0 0 0 -2.3,-1.1 z"
     id="path4"
     inkscape:connector-curvature="0" />
</svg>
