<?xml version="1.0" encoding="UTF-8" standalone="no"?>
<svg
   xmlns:dc="http://purl.org/dc/elements/1.1/"
   xmlns:cc="http://creativecommons.org/ns#"
   xmlns:rdf="http://www.w3.org/1999/02/22-rdf-syntax-ns#"
   xmlns:svg="http://www.w3.org/2000/svg"
   xmlns="http://www.w3.org/2000/svg"
   xmlns:sodipodi="http://sodipodi.sourceforge.net/DTD/sodipodi-0.dtd"
   xmlns:inkscape="http://www.inkscape.org/namespaces/inkscape"
   width="48"
   height="48"
   version="1.1"
   id="svg6"
   sodipodi:docname="text-xml.svg"
   inkscape:version="0.92.4 (5da689c313, 2019-01-14)">
  <defs
     id="defs10" />
  <sodipodi:namedview
     pagecolor="#ffffff"
     bordercolor="#666666"
     borderopacity="1"
     objecttolerance="10"
     gridtolerance="10"
     guidetolerance="10"
     inkscape:pageopacity="0"
     inkscape:pageshadow="2"
     inkscape:window-width="1087"
     inkscape:window-height="480"
     id="namedview8"
     showgrid="false"
     inkscape:zoom="4.9166667"
     inkscape:cx="2.1355932"
     inkscape:cy="24"
     inkscape:window-x="0"
     inkscape:window-y="25"
     inkscape:window-maximized="0"
     inkscape:current-layer="svg6" />
  <metadata
     id="metadata2">
    <rdf:RDF>
      <cc:Work>
        <dc:format>image/svg+xml</dc:format>
        <dc:type
           rdf:resource="http://purl.org/dc/dcmitype/StillImage" />
        <dc:title></dc:title>
      </cc:Work>
    </rdf:RDF>
  </metadata>
  <path
     style="color:#000000;font-weight:400;line-height:normal;font-family:'Andale Mono';text-indent:0;text-align:start;text-decoration:none;text-decoration-line:none;text-transform:none;overflow:visible;fill:#ff7f2a;marker:none"
     d="m 29.7,-0.08 c -2.04,0 -4.12,0.08 -4.51,0.1 H 7 a 2.94,2.94 0 0 0 -0.56,0 3.1,3.1 0 0 0 -2.44,3 V 45 c 0,1.57 1.43,3 3,3 h 34 c 1.57,0 3,-1.43 3,-3 V 18.82 c 0.02,-0.8 0.22,-9.93 -0.34,-10.5 l -9.6,-8.07 c -0.29,-0.28 -2.3,-0.34 -4.36,-0.33 z m 1.5,3.08 0.13,7.5 c 0.01,0.68 0.64,1.3 1.31,1.28 l 7.78,-0.13 c 0.13,0.01 0.26,0.01 0.4,-0.01 l 0.08,3.03 0.1,4.09 V 45 H 7 V 3.02 h 18.67 z m -0.95,15.08 -1.37,1.96 4.11,5.89 -4.4,6.36 1.51,1.79 5.5,-8.15 z m -12.63,0.14 -5.34,7.85 5.48,8.15 1.52,-1.8 -4.4,-6.35 4.11,-5.9 z m 8.23,0.86 -5.26,14 h 1.74 l 5.26,-14 z"
     font-weight="400"
     overflow="visible"
     id="path4"
     inkscape:connector-curvature="0" />
</svg>
