<svg xmlns="http://www.w3.org/2000/svg" width="48" height="48"><path style="line-height:normal;text-indent:0;text-align:start;text-decoration-line:none;text-transform:none;marker:none" d="M29.7-.08c-2.04 0-4.12.08-4.51.1H7a2.94 2.94 0 0 0-.56 0 3.1 3.1 0 0 0-2.44 3V45c0 1.57 1.43 3 3 3h34c1.57 0 3-1.43 3-3V18.82c.02-.8.21-9.93-.34-10.5L34.06.25c-.29-.28-2.3-.34-4.36-.33zM31.2 3l.13 7.5c.01.68.64 1.3 1.31 1.28l7.78-.13c.13.01.26.01.4-.01l.08 3.03.1 4.09V45H7V3.02h18.67l5.52-.01zm-20.96 3.9v2.04h6.2V6.9h-6.2zm8 0v2.04h6.2V6.9h-6.2zm-6 4v2.04h16.1V10.9h-16.1zm-2 4v2.04h13.87V14.9H10.24zm16 0v2.04h10.28V14.9H26.24zm-16 4v2.04h6.4V18.9h-6.4zm8 0v2.04h11.83V18.9H18.24zm14 0v2.04h4.17V18.9h-4.17zm-20 4v2.04h21.72V22.9H12.24zm0 4v1.94H29.6V26.9H12.24zm20 0v1.94h3.98V26.9h-3.98zm-22.22 4v1.94h16.2V30.9h-16.2zm19.6 0v1.94h6.6V30.9h-6.6zm-9.96 6.49c-1.14-.06-2.43.38-2.92 1.5-.47 1.12-.34 2.63.66 3.44 1.07.82 2.57.78 3.8.35v-.8c-.05-.17.11-.75-.16-.48-.73.46-1.89.57-2.48-.16a1.9 1.9 0 0 1 .1-2.22c.68-.67 1.82-.46 2.53.05v-1.4a4.87 4.87 0 0 0-1.53-.28zm5.39 0c-.6-.03-1.21.02-1.78.22-.9.31-1.12 1.48-.73 2.26.4.72 1.33.8 2.06.9.58-.12 1.44.55.66.97-.94.26-1.96 0-2.82-.39v.8c-.03.31-.05.63.37.6 1.17.25 2.46.41 3.59-.1.88-.42 1.02-1.67.5-2.42-.54-.57-1.39-.61-2.12-.73-.52.1-1.36-.5-.62-.89.9-.25 1.84.03 2.68.36v-1.3c-.58-.13-1.19-.25-1.8-.28zm5.8 0c-.6-.03-1.2.02-1.78.22-.9.31-1.12 1.48-.73 2.26.41.72 1.33.8 2.07.9.58-.12 1.44.55.65.97-.93.26-1.95 0-2.82-.39v.8c-.02.31-.04.63.37.6 1.18.25 2.47.41 3.6-.1.87-.42 1.02-1.67.49-2.42-.53-.57-1.38-.61-2.11-.73-.53.1-1.37-.5-.63-.89.9-.25 1.84.03 2.68.36v-1.3c-.58-.13-1.18-.25-1.79-.28z" color="#000" font-weight="400" font-family="Andale Mono" overflow="visible" fill="#ff7f2a"/></svg>