<?xml version="1.0" encoding="UTF-8" standalone="no"?>
<svg
   xmlns:dc="http://purl.org/dc/elements/1.1/"
   xmlns:cc="http://creativecommons.org/ns#"
   xmlns:rdf="http://www.w3.org/1999/02/22-rdf-syntax-ns#"
   xmlns:svg="http://www.w3.org/2000/svg"
   xmlns="http://www.w3.org/2000/svg"
   xmlns:sodipodi="http://sodipodi.sourceforge.net/DTD/sodipodi-0.dtd"
   xmlns:inkscape="http://www.inkscape.org/namespaces/inkscape"
   width="48"
   height="48"
   version="1.1"
   id="svg6"
   sodipodi:docname="text-x-qml.svg"
   inkscape:version="0.92.4 (5da689c313, 2019-01-14)">
  <metadata
     id="metadata12">
    <rdf:RDF>
      <cc:Work
         rdf:about="">
        <dc:format>image/svg+xml</dc:format>
        <dc:type
           rdf:resource="http://purl.org/dc/dcmitype/StillImage" />
        <dc:title></dc:title>
      </cc:Work>
    </rdf:RDF>
  </metadata>
  <defs
     id="defs10" />
  <sodipodi:namedview
     pagecolor="#ffffff"
     bordercolor="#666666"
     borderopacity="1"
     objecttolerance="10"
     gridtolerance="10"
     guidetolerance="10"
     inkscape:pageopacity="0"
     inkscape:pageshadow="2"
     inkscape:window-width="1087"
     inkscape:window-height="480"
     id="namedview8"
     showgrid="false"
     inkscape:zoom="4.9166667"
     inkscape:cx="2.1355932"
     inkscape:cy="24"
     inkscape:window-x="0"
     inkscape:window-y="25"
     inkscape:window-maximized="0"
     inkscape:current-layer="svg6" />
  <path
     style="line-height:normal;text-indent:0;text-align:start;text-decoration:none;text-decoration-line:none;text-transform:none;fill:#ff7f2a;marker:none"
     d="m 29.705,-0.084 c -2.047,0.008 -4.121,0.088 -4.517,0.098 H 7 a 2.938,2.938 0 0 0 -0.563,0 C 5.064,0.276 3.975,1.612 4,3.012 V 45 c 0,1.57 1.43,3 3,3 h 34 c 1.57,0 3,-1.43 3,-3 V 18.818 C 44.018,18.026 44.215,8.891 43.664,8.322 l -9.61,-8.074 c -0.283,-0.275 -2.302,-0.34 -4.349,-0.332 z m 1.49,3.094 0.133,7.504 c 0.012,0.68 0.638,1.29 1.317,1.279 l 7.771,-0.137 c 0.133,0.018 0.268,0.017 0.4,-0.006 L 40.898,14.68 41,18.77 V 44.996 H 7 V 3.021 h 18.672 z"
     id="path2"
     inkscape:connector-curvature="0" />
  <path
     style="line-height:normal;text-indent:0;text-align:start;text-decoration:none;text-decoration-line:none;text-transform:none;opacity:0.75;fill:#ff7f2a;marker:none"
     d="m 17.543,17.627 c -1.568,0 -2.62,0.261 -3.154,0.783 -0.53,0.515 -0.793,1.55 -0.793,3.11 v 2.537 c 0,1.05 -0.17,1.78 -0.51,2.19 -0.334,0.4 -0.95,0.603 -1.852,0.603 h -0.576 v 1.511 h 0.576 c 0.894,0 1.512,0.205 1.852,0.614 0.34,0.409 0.51,1.147 0.51,2.21 v 2.528 c 0,1.558 0.264,2.6 0.793,3.121 0.535,0.522 1.586,0.781 3.154,0.781 h 0.586 v -1.521 h -0.643 c -0.887,0 -1.467,-0.157 -1.738,-0.467 -0.27,-0.31 -0.406,-0.961 -0.406,-1.955 v -2.623 c 0,-1.1 -0.14,-1.902 -0.424,-2.403 -0.283,-0.5 -0.776,-0.844 -1.475,-1.035 0.693,-0.176 1.182,-0.515 1.465,-1.015 0.29,-0.5 0.434,-1.305 0.434,-2.412 v -2.622 c 0,-0.994 0.135,-1.646 0.406,-1.957 0.27,-0.31 0.85,-0.464 1.738,-0.464 h 0.643 v -1.514 z m 11.965,0 v 1.514 h 0.662 c 0.88,0 1.454,0.154 1.719,0.464 0.27,0.304 0.406,0.956 0.406,1.957 v 2.622 c 0,1.107 0.14,1.91 0.424,2.412 0.283,0.5 0.775,0.84 1.474,1.015 -0.699,0.19 -1.19,0.535 -1.474,1.035 -0.284,0.501 -0.424,1.303 -0.424,2.403 v 2.623 c 0,1.008 -0.136,1.663 -0.406,1.967 -0.265,0.303 -0.837,0.455 -1.72,0.455 h -0.661 v 1.521 h 0.596 c 1.567,0 2.612,-0.26 3.134,-0.781 0.53,-0.522 0.793,-1.563 0.793,-3.121 v -2.527 c 0,-1.065 0.172,-1.802 0.512,-2.211 0.34,-0.41 0.956,-0.614 1.85,-0.614 h 0.586 V 26.85 h -0.586 c -0.894,0 -1.51,-0.202 -1.85,-0.604 -0.34,-0.409 -0.512,-1.138 -0.512,-2.19 V 21.52 c 0,-1.56 -0.264,-2.595 -0.793,-3.11 -0.522,-0.522 -1.567,-0.783 -3.134,-0.783 z m -6.686,5.256 v 2.687 h 1.992 v -2.687 z m 0,8.513 v 1.82 L 22.047,36.6 h 1.219 l 1.548,-3.383 v -1.82 h -1.992 z"
     id="path4"
     inkscape:connector-curvature="0" />
</svg>
