<svg xmlns="http://www.w3.org/2000/svg" width="48" height="48" viewBox="0 0 12.7 12.7"><g fill="#5beedc"><path d="M6.344.07A6.29 6.29 0 0 0 .055 6.36a6.29 6.29 0 0 0 6.29 6.288 6.29 6.29 0 0 0 6.288-6.289A6.29 6.29 0 0 0 6.345.07zm-.018.936a5.407 5.407 0 0 1 5.407 5.407 5.407 5.407 0 0 1-5.407 5.407A5.407 5.407 0 0 1 .92 6.413a5.407 5.407 0 0 1 5.407-5.407z"/><path d="M9.123 2.14c-1.358.217-2.92.44-4.275.668-.358.174-.278.62-.294.943v4.333c-.921-.211-1.934.477-1.973 1.456-.066.61.48 1.14 1.074 1.154 1.063.025 1.871-.673 1.882-1.555-.011-1.483.004-2.966 0-4.449.165-.012 2.739-.483 2.963-.514v3.332c-.85-.251-1.7.273-1.91 1.15-.155.508.079 1.11.583 1.318.984.447 2.37-.46 2.314-1.524-.015-1.977.013-3.954 0-5.932-.026-.185-.153-.394-.364-.38z"/></g></svg>
