<svg xmlns="http://www.w3.org/2000/svg" width="48" height="48" viewBox="0 0 12.7 12.7"><path fill="#5beedc" d="M6.344.07a6.29 6.29 0 0 0-6.29 6.29 6.29 6.29 0 0 0 6.29 6.288 6.29 6.29 0 0 0 6.29-6.289A6.29 6.29 0 0 0 6.343.07zm-.018.936a5.407 5.407 0 0 1 5.407 5.407 5.407 5.407 0 0 1-5.407 5.407A5.407 5.407 0 0 1 .92 6.413a5.407 5.407 0 0 1 5.407-5.407zM5.253 2.118c-1.716 0-3.12 1.403-3.12 3.118s1.404 3.116 3.12 3.116c.654 0 1.263-.205 1.766-.552l2.088 2.086a.567.567 0 1 0 .801-.801L7.82 6.999c.347-.503.552-1.11.552-1.763a3.127 3.127 0 0 0-3.12-3.118zm0 1.134a1.976 1.976 0 0 1 1.985 1.984 1.976 1.976 0 0 1-1.985 1.983 1.977 1.977 0 0 1-1.987-1.983c0-1.102.883-1.984 1.987-1.984z"/></svg>
