<svg xmlns="http://www.w3.org/2000/svg" width="48" height="48" viewBox="0 0 12.7 12.7"><path fill="#5beedc" d="M6.344.073a6.29 6.29 0 0 0-6.29 6.29 6.29 6.29 0 0 0 6.29 6.288 6.29 6.29 0 0 0 6.29-6.289 6.29 6.29 0 0 0-6.29-6.29zm-.018.936a5.407 5.407 0 0 1 5.407 5.407 5.407 5.407 0 0 1-5.407 5.407A5.407 5.407 0 0 1 .92 6.416 5.407 5.407 0 0 1 6.326 1.01z"/><path fill="green" d="M7.612 2.426l-2.437.012c.322-.013.621.279.91.71.259.442.502.9.713 1.39l-.854.49 2.474.238 1.041-2.26-.86.495c-.235-.477-.533-.873-.987-1.075zm-2.445.173h-.122a.506.506 0 0 0-.277.149c-.571.56-.921 1.12-1.207 1.68l1.61.924 1.098-1.54a14.172 14.172 0 0 0-.32-.579c-.142-.21-.415-.583-.697-.63L5.167 2.6zm4.325 2.653l-1.594.95.078.17.01-.014v.034l.636 1.353c.257.009.514.01.772.007.266-.022.761-.082.915-.337l.015-.026.062-.112a.506.506 0 0 0-.021-.15c-.209-.772-.526-1.35-.873-1.875zm-5.344.265l-2.448.45.9.418c-.254.466-.405.938-.312 1.424.47.664.941 1.326 1.413 1.988-.195-.256-.128-.669.057-1.154.214-.464.448-.927.727-1.382l.893.416-1.23-2.16zm3.681 1.35l-1.418 2.04 1.46 2.016-.009-.992c.53.03 1.021-.038 1.421-.332l1.185-2.13c-.15.285-.551.403-1.068.445-.512.009-1.03-.006-1.56-.062l-.01-.985zM4.224 8.055c-.111.214-.216.431-.317.652-.096.25-.255.724-.092.972l.018.025.077.108a.468.468 0 0 0 .21.082c.786.147 1.445.109 2.068.022l-.172-1.848-1.792-.013z" opacity=".75"/></svg>
