<svg xmlns="http://www.w3.org/2000/svg" width="48" height="48" viewBox="0 0 12.7 12.7">
  <path fill="#e6e6e6" d="M6.34436382.07286269A6.28933118 6.28933118 0 0 0 .05503264 6.36219387a6.28933118 6.28933118 0 0 0 6.28933118 6.2890666 6.28933118 6.28933118 0 0 0 6.2890666-6.2890666A6.28933118 6.28933118 0 0 0 6.34436382.07286269zm-.01808669.93637507a5.40695688 5.40695688 0 0 1 5.40695688 5.40695688 5.40695688 5.40695688 0 0 1-5.40695688 5.40695688A5.40695688 5.40695688 0 0 1 .91905567 6.41619464a5.40695688 5.40695688 0 0 1 5.40722146-5.40695688zm-3.4342484 1.7688496c-.09840788.00001005-.17827136.07885542-.17828194.17621557v7.0497341c.00000979.0972993.07987406.17620498.17828194.17621557H9.66300134c.09840789-.0000098.17827136-.07885543.17828194-.17621557v-7.0497341c-.00001005-.0972993-.0798714-.176205-.17828194-.17621558H2.89202873zm1.19217102.76479494H8.4161681v2.72993644H4.08419975V3.5428823zm-.9591025.05736095h.54828914v.27439591h-.54828914v-.27439591zm5.75673164 0h.54828914v.27439591h-.54828914v-.27439591zm-5.75673164.82268505h.54828914v.27389321h-.54828914V4.4229283zm5.75673164 0h.54828914v.27389321h-.54828914V4.4229283zm-5.75673164.82215589h.54828914v.27439592h-.54828914v-.27439592zm5.75673164 0h.54828914v.27439592h-.54828914v-.27439592zm-5.75673164.82268505h.54828914v.27389322h-.54828914v-.27389322zm5.75673164 0h.54828914v.27389322h-.54828914v-.27389322zm-4.79762914.7766746H8.4161681V9.4173785H4.08419975V6.84444383zm-.9591025.045476h.54828914v.27439592h-.54828914v-.27439592zm5.75673164 0h.54828914v.27439592h-.54828914v-.27439592zm-5.75673164.82268505h.54828914v.27389322h-.54828914V7.7126049zm5.75673164 0h.54828914v.27389322h-.54828914V7.7126049zm-5.75673164.8221559h.54828914v.27439591h-.54828914V8.5347608zm5.75673164 0h.54828914v.27439591h-.54828914V8.5347608zm-5.75673164.82268505h.54828914v.27439592h-.54828914v-.27439592zm5.75673164 0h.54828914v.27439592h-.54828914v-.27439592z"/>
</svg>
