<?xml version="1.0" encoding="UTF-8" standalone="no"?>
<svg
   xmlns:dc="http://purl.org/dc/elements/1.1/"
   xmlns:cc="http://creativecommons.org/ns#"
   xmlns:rdf="http://www.w3.org/1999/02/22-rdf-syntax-ns#"
   xmlns:svg="http://www.w3.org/2000/svg"
   xmlns="http://www.w3.org/2000/svg"
   xmlns:sodipodi="http://sodipodi.sourceforge.net/DTD/sodipodi-0.dtd"
   xmlns:inkscape="http://www.inkscape.org/namespaces/inkscape"
   width="48"
   height="48"
   version="1.1"
   viewBox="0 0 12.7 12.7"
   id="svg18"
   sodipodi:docname="folder-playonlinux.svg"
   inkscape:version="0.92.3 (2405546, 2018-03-11)">
  <defs
     id="defs22" />
  <sodipodi:namedview
     pagecolor="#ffffff"
     bordercolor="#666666"
     borderopacity="1"
     objecttolerance="10"
     gridtolerance="10"
     guidetolerance="10"
     inkscape:pageopacity="0"
     inkscape:pageshadow="2"
     inkscape:window-width="883"
     inkscape:window-height="480"
     id="namedview20"
     showgrid="false"
     inkscape:zoom="4.9166667"
     inkscape:cx="24"
     inkscape:cy="24"
     inkscape:window-x="0"
     inkscape:window-y="25"
     inkscape:window-maximized="0"
     inkscape:current-layer="svg18" />
  <metadata
     id="metadata2">
    <rdf:RDF>
      <cc:Work
         rdf:about="">
        <dc:format>image/svg+xml</dc:format>
        <dc:type
           rdf:resource="http://purl.org/dc/dcmitype/StillImage" />
        <dc:title></dc:title>
      </cc:Work>
    </rdf:RDF>
  </metadata>
  <path
     d="M 6.3444,0.07 A 6.2893,6.2893 0 0 0 0.055,6.3594 6.2893,6.2893 0 0 0 6.3444,12.6485 6.2893,6.2893 0 0 0 12.6335,6.3594 6.2893,6.2893 0 0 0 6.3444,0.07 Z M 6.326216,1.0063 a 5.407,5.407 0 0 1 5.4071,5.4071 5.407,5.407 0 0 1 -5.4071,5.4069 5.407,5.407 0 0 1 -5.4071,-5.4069 5.407,5.407 0 0 1 5.4071,-5.4071 z"
     id="path4"
     inkscape:connector-curvature="0"
     style="fill:#e6e6e6;stroke-width:0.13895001" />
  <path
     d="M 6.3618,6.34 H 2.1719 c 0,-2.2936 1.8963,-4.1412 4.1899,-4.1412"
     id="path6"
     inkscape:connector-curvature="0"
     style="opacity:0.6;fill:#44aa00" />
  <path
     d="M 6.3618,6.34 V 2.1988 c 2.2936,0 4.1391,1.8476 4.1391,4.1412"
     id="path8"
     inkscape:connector-curvature="0"
     style="opacity:0.6;fill:#ffff00" />
  <path
     d="M 6.3618,6.34 H 2.1719 c 0,2.2936 1.8963,4.1412 4.1899,4.1412"
     id="path10"
     inkscape:connector-curvature="0"
     style="opacity:0.6;fill:#ff0000" />
  <path
     d="m 6.3618,6.34 v 4.1412 c 2.2936,0 4.1391,-1.8476 4.1391,-4.1412"
     id="path12"
     inkscape:connector-curvature="0"
     style="opacity:0.6;fill:#0066ff" />
</svg>
