<?xml version="1.0" encoding="UTF-8" standalone="no"?>
<!-- Created with Inkscape (http://www.inkscape.org/) -->

<svg
   xmlns:dc="http://purl.org/dc/elements/1.1/"
   xmlns:cc="http://creativecommons.org/ns#"
   xmlns:rdf="http://www.w3.org/1999/02/22-rdf-syntax-ns#"
   xmlns:svg="http://www.w3.org/2000/svg"
   xmlns="http://www.w3.org/2000/svg"
   xmlns:sodipodi="http://sodipodi.sourceforge.net/DTD/sodipodi-0.dtd"
   xmlns:inkscape="http://www.inkscape.org/namespaces/inkscape"
   width="48"
   height="48"
   viewBox="0 0 12.7 12.7"
   version="1.1"
   id="svg829"
   inkscape:version="0.92.3 (2405546, 2018-03-11)"
   sodipodi:docname="folder-recent.svg">
  <defs
     id="defs823" />
  <sodipodi:namedview
     id="base"
     pagecolor="#ffffff"
     bordercolor="#666666"
     borderopacity="1.0"
     inkscape:pageopacity="0.0"
     inkscape:pageshadow="2"
     inkscape:zoom="7.2478445"
     inkscape:cx="1.6097561"
     inkscape:cy="23.609756"
     inkscape:document-units="mm"
     inkscape:current-layer="layer1"
     showgrid="false"
     showguides="true"
     inkscape:guide-bbox="true"
     inkscape:window-width="1366"
     inkscape:window-height="690"
     inkscape:window-x="0"
     inkscape:window-y="28"
     inkscape:window-maximized="1"
     scale-x="1.9"
     units="px" />
  <metadata
     id="metadata826">
    <rdf:RDF>
      <cc:Work
         rdf:about="">
        <dc:format>image/svg+xml</dc:format>
        <dc:type
           rdf:resource="http://purl.org/dc/dcmitype/StillImage" />
        <dc:title></dc:title>
      </cc:Work>
    </rdf:RDF>
  </metadata>
  <g
     inkscape:label="Capa 1"
     inkscape:groupmode="layer"
     id="layer1"
     transform="translate(0,-284.3)">
    <path
       style="fill:#1a1a1a;fill-opacity:1;stroke-width:0.1389506"
       d="m 6.3443558,284.37295 a 6.2892804,6.2892804 0 0 0 -6.28941435,6.28942 6.2892804,6.2892804 0 0 0 6.28941435,6.28914 6.2892804,6.2892804 0 0 0 6.2891432,-6.28914 6.2892804,6.2892804 0 0 0 -6.2891432,-6.28942 z m -0.018184,0.9363 a 5.4070438,5.4070438 0 0 1 5.4071322,5.40711 5.4070438,5.4070438 0 0 1 -5.4071322,5.40686 5.4070438,5.4070438 0 0 1 -5.40713234,-5.40686 5.4070438,5.4070438 0 0 1 5.40713234,-5.40711 z"
       id="path1374"
       inkscape:connector-curvature="0" />
    <g
       transform="matrix(0.18948751,0,0,0.22347167,-8.2569719,285.15065)"
       id="g3294-2-5"
       style="color:#000000;clip-rule:nonzero;display:inline;overflow:visible;visibility:visible;opacity:1;isolation:auto;mix-blend-mode:normal;color-interpolation:sRGB;color-interpolation-filters:linearRGB;solid-color:#000000;solid-opacity:1;fill:#1a1a1a;fill-opacity:1;fill-rule:nonzero;stroke:none;stroke-width:4.78147125;stroke-linecap:butt;stroke-linejoin:miter;stroke-miterlimit:4;stroke-dasharray:none;stroke-dashoffset:0;stroke-opacity:1;marker:none;color-rendering:auto;image-rendering:auto;shape-rendering:auto;text-rendering:auto;enable-background:accumulate">
      <path
         d="m 77.5703,6.9454345 c -11.317079,0 -20.630635,6.3193555 -21.648617,15.5397085 h -5.489571 l 8.107675,8.633172 8.107674,-8.633172 h -5.29251 c 1.001307,-6.722239 7.890308,-11.035445 16.215349,-11.035445 9.013029,0 16.327956,6.104178 16.327956,13.625397 -3e-6,7.521219 -7.314924,13.625398 -16.327956,13.625398 -4.889999,0 -9.280846,-1.799942 -12.274118,-4.645022 L 61.3268,37.124 c 3.98185,3.735752 9.784188,6.080755 16.2435,6.080756 11.996656,0 21.733071,-8.122088 21.733072,-18.129661 0,-10.007573 -9.736418,-18.1296605 -21.733072,-18.1296605 z"
         id="path2504-1-2"
         style="color:#000000;clip-rule:nonzero;display:inline;overflow:visible;visibility:visible;isolation:auto;mix-blend-mode:normal;color-interpolation:sRGB;color-interpolation-filters:linearRGB;solid-color:#000000;solid-opacity:1;fill:#1a1a1a;fill-opacity:1;fill-rule:nonzero;stroke:none;stroke-width:4.78147125;stroke-linecap:butt;stroke-linejoin:miter;stroke-miterlimit:4;stroke-dasharray:none;stroke-dashoffset:0;stroke-opacity:1;marker:none;color-rendering:auto;image-rendering:auto;shape-rendering:auto;text-rendering:auto;enable-background:accumulate"
         inkscape:connector-curvature="0" />
      <path
         d="m 78.940345,13.851971 h -2.036302 l -2.036301,12.086441 10.18151,6.906538 2e-6,-1.726635 -6.108907,-6.906537 z"
         id="path3288-4-0"
         style="color:#000000;clip-rule:nonzero;display:inline;overflow:visible;visibility:visible;isolation:auto;mix-blend-mode:normal;color-interpolation:sRGB;color-interpolation-filters:linearRGB;solid-color:#000000;solid-opacity:1;fill:#1a1a1a;fill-opacity:1;fill-rule:nonzero;stroke:none;stroke-width:4.78147125;stroke-linecap:butt;stroke-linejoin:miter;stroke-miterlimit:4;stroke-dasharray:none;stroke-dashoffset:0;stroke-opacity:1;marker:none;color-rendering:auto;image-rendering:auto;shape-rendering:auto;text-rendering:auto;enable-background:accumulate"
         inkscape:connector-curvature="0" />
    </g>
  </g>
</svg>
