<svg xmlns="http://www.w3.org/2000/svg" width="48" height="48" viewBox="0 0 12.7 12.7">
  <path fill="#e6e6e6" d="M6.34436382.07286269A6.28933118 6.28933118 0 0 0 .05503264 6.36219387a6.28933118 6.28933118 0 0 0 6.28933118 6.2890666 6.28933118 6.28933118 0 0 0 6.2890666-6.2890666A6.28933118 6.28933118 0 0 0 6.34436382.07286269zm-.01808669.93637507a5.40695688 5.40695688 0 0 1 5.40695688 5.40695688 5.40695688 5.40695688 0 0 1-5.40695688 5.40695688A5.40695688 5.40695688 0 0 1 .91905567 6.41619464a5.40695688 5.40695688 0 0 1 5.40722146-5.40695688zm-.29352505 1.53064822l-1.58748 5.397432-.95291133-3.17496H1.58759642v.63509783h1.27019566l1.58748 4.76244 1.58748-5.397432.95238217 3.17496 1.2696665-3.17496.95291133 3.17496h1.90476434v-.63509783H9.84228075l-1.58748-4.44467942-1.2696665 3.17496-.95238217-3.49272058z"/>
</svg>
