<?xml version="1.0" encoding="UTF-8" standalone="no"?>
<svg
   xmlns:dc="http://purl.org/dc/elements/1.1/"
   xmlns:cc="http://creativecommons.org/ns#"
   xmlns:rdf="http://www.w3.org/1999/02/22-rdf-syntax-ns#"
   xmlns:svg="http://www.w3.org/2000/svg"
   xmlns="http://www.w3.org/2000/svg"
   xmlns:sodipodi="http://sodipodi.sourceforge.net/DTD/sodipodi-0.dtd"
   xmlns:inkscape="http://www.inkscape.org/namespaces/inkscape"
   width="48"
   height="48"
   version="1.1"
   viewBox="0 0 12.7 12.7"
   id="svg8"
   sodipodi:docname="folder-remote.svg"
   inkscape:version="0.92.3 (2405546, 2018-03-11)">
  <defs
     id="defs12" />
  <sodipodi:namedview
     pagecolor="#ffffff"
     bordercolor="#666666"
     borderopacity="1"
     objecttolerance="10"
     gridtolerance="10"
     guidetolerance="10"
     inkscape:pageopacity="0"
     inkscape:pageshadow="2"
     inkscape:window-width="883"
     inkscape:window-height="480"
     id="namedview10"
     showgrid="false"
     inkscape:zoom="4.9166667"
     inkscape:cx="24"
     inkscape:cy="24"
     inkscape:window-x="0"
     inkscape:window-y="25"
     inkscape:window-maximized="0"
     inkscape:current-layer="svg8" />
  <metadata
     id="metadata2">
    <rdf:RDF>
      <cc:Work
         rdf:about="">
        <dc:format>image/svg+xml</dc:format>
        <dc:type
           rdf:resource="http://purl.org/dc/dcmitype/StillImage" />
        <dc:title></dc:title>
      </cc:Work>
    </rdf:RDF>
  </metadata>
  <g
     transform="translate(0,-284.3)"
     id="g6"
     style="fill:#e6e6e6">
    <path
       transform="matrix(.26458 0 0 .26458 0 284.3)"
       d="m23.979 0.27539a23.771 23.771 0 0 0 -23.771 23.771 23.771 23.771 0 0 0 23.771 23.77 23.771 23.771 0 0 0 23.77 -23.77 23.771 23.771 0 0 0 -23.77 -23.771zm-0.06836 3.5391a20.436 20.436 0 0 1 20.436 20.436 20.436 20.436 0 0 1 -20.436 20.436 20.436 20.436 0 0 1 -20.437 -20.436 20.436 20.436 0 0 1 20.437 -20.436zm-11.652 5.8691c-2.0371 0-3.6777 1.6427-3.6777 3.6797v21.879c0 2.037 1.6407 3.6758 3.6777 3.6758h23.504c2.0371 0 3.6738-1.6388 3.6738-3.6758v-21.879c0-2.037-1.6368-3.6797-3.6738-3.6797h-23.504zm1.5293 1.7676h20.584c1.7839 0 3.2168 1.4349 3.2168 3.2188v19.16c0 1.7839-1.4329 3.2207-3.2168 3.2207h-20.584c-1.7839 0-3.2227-1.4368-3.2227-3.2207v-19.16c0-1.7838 1.4388-3.2188 3.2227-3.2188zm9.0527 6.3945c-0.74333 0-1.3438 0.59853-1.3438 1.3398v0.35156c0 0.39704-0.32703 0.63918-0.63086 0.61719h-1.8125c-0.74333 0-1.3477 0.81114-1.3477 1.5547v7.4883c0 0.74105 0.60429 1.3398 1.3477 1.3398h9.9453c0.74121 0 1.3457-0.59838 1.3457-1.3398v-7.4883c0-0.74355-0.60452-1.5547-1.3457-1.5547h-1.8145c-0.36629 0-0.63086-0.2925-0.63086-0.63281v-0.33789c0-0.74109-0.6024-1.3379-1.3457-1.3379h-2.3672zm-3.5723 7.4727h2.0117v3.4102h-2.0117v-3.4102zm2.4121 0h2.0098v3.4102h-2.0098v-3.4102zm2.4395 0h2.0098v3.4102h-2.0098v-3.4102zm2.4062 0h2.0156v3.4102h-2.0156v-3.4102z"
       fill="#1a1a1a"
       stroke-width=".52517"
       id="path4"
       style="fill:#e6e6e6" />
  </g>
</svg>
