<svg xmlns="http://www.w3.org/2000/svg" width="48" height="48" viewBox="0 0 12.7 12.7">
  <path fill="#e6e6e6" d="M6.34436382.07286269A6.28933118 6.28933118 0 0 0 .05503264 6.36219387a6.28933118 6.28933118 0 0 0 6.28933118 6.2890666 6.28933118 6.28933118 0 0 0 6.2890666-6.2890666A6.28933118 6.28933118 0 0 0 6.34436382.07286269zm-.01808669.93637507a5.40695688 5.40695688 0 0 1 5.40695688 5.40695688 5.40695688 5.40695688 0 0 1-5.40695688 5.40695688A5.40695688 5.40695688 0 0 1 .91905567 6.41619464a5.40695688 5.40695688 0 0 1 5.40722146-5.40695688zm-2.0753126 1.88978911V6.4242908h-1.6034871l3.6763391 4.48648306L10.0192054 6.4242908H8.41518915V2.89902687H4.2512291z"/>
</svg>
