<svg xmlns="http://www.w3.org/2000/svg" width="48" height="48" viewBox="0 0 12.7 12.7">
  <g fill="#e6e6e6">
    <path d="M6.3443.07A6.2893 6.2893 0 0 0 .0548 6.3595a6.2893 6.2893 0 0 0 6.2895 6.289 6.2893 6.2893 0 0 0 6.289-6.289A6.2893 6.2893 0 0 0 6.3443.07zm-.018087.93638a5.407 5.407 0 0 1 5.4069 5.4069 5.407 5.407 0 0 1-5.4069 5.4069 5.407 5.407 0 0 1-5.4074-5.4069 5.407 5.407 0 0 1 5.4074-5.4069z"/>
    <path d="M4.0028 2.43c-.055405.001-.08217.0124-.08217.0124-.27734.70212-.10199 1.2204-.049401 1.3494-.32617.35658-.52529.81148-.52529 1.368 0 1.9539 1.1905 2.3917 2.3227 2.5204-.14587.12736-.27746.35197-.32378.68128-.29049.13053-1.0291.35558-1.4839-.42352 0 0-.2693-.48934-.78109-.52531 0 0-.49769-.003-.034728.30959 0 0 .33443.15674.56638.74591 0 0 .29892.99175 1.7172.68373.00251.42541.00683.74634.00683.86716 0 .11687-.069772.24962-.25287.25387v.00093h3.0422c-.19098.001-.26118-.13532-.26118-.25482 0-.16718.00636-.71689.00636-1.3983 0-.47581-.16316-.78701-.34628-.94448 1.136-.12613 2.3281-.55751 2.3281-2.5164 0-.55654-.19752-1.0115-.52432-1.368.05259-.129.2279-.6473-.05038-1.3494 0 0-.42728-.13733-1.4008.52286-.40724-.11375-.84364-.16978-1.2766-.17168-.43354.001-.86993.0581-1.2766.17168-.7306-.49489-1.1544-.54169-1.3206-.5341z"/>
  </g>
</svg>
