<svg xmlns="http://www.w3.org/2000/svg" width="48" height="48" viewBox="0 0 12.7 12.7"><path fill="#e6e6e6" d="M6.344.073a6.29 6.29 0 0 0-6.289 6.29 6.29 6.29 0 0 0 6.29 6.288 6.29 6.29 0 0 0 6.288-6.289A6.29 6.29 0 0 0 6.344.072zm-.018.936a5.407 5.407 0 0 1 5.407 5.407 5.407 5.407 0 0 1-5.407 5.407A5.407 5.407 0 0 1 .92 6.416 5.407 5.407 0 0 1 6.326 1.01zM5.097 2.311l-.391.947a2.407 2.407 0 0 0-.486.054l-.58-.837a3.33 3.33 0 0 0-.578.28l.244.984a2.428 2.428 0 0 0-.357.326l-.958-.333a3.318 3.318 0 0 0-.314.564l.772.647a2.318 2.318 0 0 0-.062.232 2.343 2.343 0 0 0-.034.239l-.963.294c.003.218.024.432.068.641l1.013.069c.052.152.12.3.2.438l-.608.811c.13.173.262.338.423.484l.86-.545c.132.094.276.174.427.24l-.01 1.025a3.418 3.418 0 0 0 .618.125l.392-.947c.164-.002.329-.02.485-.054l.58.838a3.32 3.32 0 0 0 .578-.28l-.244-.985c.129-.096.25-.205.357-.325l.958.332a3.318 3.318 0 0 0 .31-.555l.183.385a1.417 1.417 0 0 0-.166.228l-.586-.079a1.936 1.936 0 0 0-.114.359l.516.28a1.352 1.352 0 0 0-.008.14c0 .048.003.093.008.14l-.516.28c.027.125.064.244.114.359l.586-.08c.048.082.104.159.166.228l-.253.535c.094.083.188.163.297.227l.43-.411c.085.038.177.067.27.088l.114.586a1.994 1.994 0 0 0 .368 0l.114-.587c.093-.02.186-.05.271-.088l.43.412c.108-.064.203-.144.297-.228l-.254-.534a1.43 1.43 0 0 0 .166-.228l.586.08a1.936 1.936 0 0 0 .115-.36l-.517-.28c.005-.046.009-.09.009-.14 0-.048-.004-.092-.01-.14l.518-.28a1.935 1.935 0 0 0-.115-.358l-.586.078a1.417 1.417 0 0 0-.166-.227l.254-.534a1.947 1.947 0 0 0-.298-.228l-.43.412a1.405 1.405 0 0 0-.27-.088l-.114-.587a1.994 1.994 0 0 0-.184-.007c-.061 0-.123.002-.184.007l-.113.587a1.404 1.404 0 0 0-.272.087l-.429-.41a1.945 1.945 0 0 0-.297.227L7.788 7l-.758-.636c.024-.077.046-.15.062-.232.017-.082.025-.158.033-.238L8.09 5.6a3.317 3.317 0 0 0-.07-.642L7.009 4.89a2.428 2.428 0 0 0-.202-.44l.61-.81a3.349 3.349 0 0 0-.423-.484l-.862.544a2.408 2.408 0 0 0-.426-.24l.009-1.024a3.418 3.418 0 0 0-.305-.076c-.104-.021-.21-.033-.312-.05zM4.68 4.215a1.44 1.44 0 0 1 .346.027 1.44 1.44 0 1 1-.574 2.824 1.44 1.44 0 0 1 .228-2.851zm4.342 3.278a.84.84 0 1 1 0 1.68.84.84 0 0 1 0-1.68z"/></svg>