<svg xmlns="http://www.w3.org/2000/svg" width="48" height="48" viewBox="0 0 12.7 12.7">
  <g fill="#e6e6e6">
    <path d="M6.3444.07A6.2893 6.2893 0 0 0 .055 6.3594a6.2893 6.2893 0 0 0 6.2894 6.2891 6.2893 6.2893 0 0 0 6.2891-6.2891A6.2893 6.2893 0 0 0 6.3444.07zm-.018184.9363a5.407 5.407 0 0 1 5.4071 5.4071 5.407 5.407 0 0 1-5.4071 5.4069 5.407 5.407 0 0 1-5.4071-5.4069 5.407 5.407 0 0 1 5.4071-5.4071z"/>
    <path d="M3.61892524 3.30407504c-.23162656 0-.41806286.18642836-.41806286.41806286v.20256774c0 .23162656.18642836.41806286.41806286.41806286h5.4662228c.23162656 0 .41856556-.18642836.41856556-.41806286V3.7221379c0-.23162656-.18694694-.41806286-.41856556-.41806286h-5.4662228zm0 1.74871505c-.23162656 0-.41806286.18642836-.41806286.41806286v.20256774c0 .23162656.18642836.41806286.41806286.41806286h5.4662228c.23162656 0 .41856556-.18642836.41856556-.41806286v-.20256774c0-.23162656-.18694694-.41806286-.41856556-.41806286h-5.4662228zm0 1.74871505c-.23162656 0-.41806286.18642836-.41806286.41806286v.20308632c0 .23162656.18642836.41806286.41806286.41806286h5.4662228c.23162656 0 .41856556-.18642836.41856556-.41806286V7.219568c0-.23162656-.18694694-.41806286-.41856556-.41806286h-5.4662228zm0 1.74921776c-.23162656 0-.41806286.18642836-.41806286.41806286v.20256774c0 .23162656.18642836.41806285.41806286.41806285h5.4662228c.23162656 0 .41856556-.18642836.41856556-.41806285v-.20256774c0-.23162657-.18694694-.41806286-.41856556-.41806286h-5.4662228z"/>
  </g>
</svg>
