<svg xmlns="http://www.w3.org/2000/svg" width="48" height="48" viewBox="0 0 12.7 12.7">
  <path fill="#e6e6e6" d="M6.34436382.07286269A6.28933118 6.28933118 0 0 0 .05503264 6.36219387a6.28933118 6.28933118 0 0 0 6.28933118 6.2890666 6.28933118 6.28933118 0 0 0 6.2890666-6.2890666A6.28933118 6.28933118 0 0 0 6.34436382.07286269zm-.01808669.93637507a5.40695688 5.40695688 0 0 1 5.40695688 5.40695688 5.40695688 5.40695688 0 0 1-5.40695688 5.40695688A5.40695688 5.40695688 0 0 1 .91905567 6.41619464a5.40695688 5.40695688 0 0 1 5.40722146-5.40695688zm-.59014569.60977753l-.01498607.01136874-.00051673-.00051678L1.7220311 4.57173227l-.55188742.40565406.40565405.55138472 2.738403 3.72158228v.8061488h.0020669v.25786231h5.662012v-.01085201h.00310035V4.40840545h-.01860315V4.407372h-2.1750328L5.73621717 1.61896338zm-.14624395.95650962l1.3477176 1.83242816H4.31402983v3.6861021L2.12762007 5.12308635 5.58991395 2.575472zm-.59168025 2.51713474h4.29889584v3.94330032h-4.2901647l-.00878485-.01240219V5.09269272z"/>
</svg>
