<svg xmlns="http://www.w3.org/2000/svg" width="48" height="48" viewBox="0 0 12.7 12.7">
  <path fill="#e6e6e6" d="M6.3444.07A6.2893 6.2893 0 0 0 .055 6.3594a6.2893 6.2893 0 0 0 6.2894 6.2891 6.2893 6.2893 0 0 0 6.2891-6.2891A6.2893 6.2893 0 0 0 6.3444.07zm-.018184.9363a5.407 5.407 0 0 1 5.4071 5.4071 5.407 5.407 0 0 1-5.4071 5.4069 5.407 5.407 0 0 1-5.4071-5.4069 5.407 5.407 0 0 1 5.4071-5.4071z"/>
  <path fill="#4a0" d="M6.3618 6.34H2.1719c0-2.2936 1.8963-4.1412 4.1899-4.1412" opacity=".6"/>
  <path fill="#ff0" d="M6.3618 6.34V2.1988c2.2936 0 4.1391 1.8476 4.1391 4.1412" opacity=".6"/>
  <path fill="red" d="M6.3618 6.34H2.1719c0 2.2936 1.8963 4.1412 4.1899 4.1412" opacity=".6"/>
  <path fill="#06f" d="M6.3618 6.34v4.1412c2.2936 0 4.1391-1.8476 4.1391-4.1412" opacity=".6"/>
</svg>
