<svg xmlns="http://www.w3.org/2000/svg" width="48" height="48" viewBox="0 0 12.7 12.7">
  <g fill="#e6e6e6">
    <path d="M6.3444.07A6.2893 6.2893 0 0 0 .055 6.3594a6.2893 6.2893 0 0 0 6.2894 6.2891 6.2893 6.2893 0 0 0 6.2891-6.2891A6.2893 6.2893 0 0 0 6.3444.07zm-.018184.9363a5.407 5.407 0 0 1 5.4071 5.4071 5.407 5.407 0 0 1-5.4071 5.4069 5.407 5.407 0 0 1-5.4071-5.4069 5.407 5.407 0 0 1 5.4071-5.4071z"/>
    <g color="#000" solid-color="#000000" style="isolation:auto;mix-blend-mode:normal">
      <path d="M6.4417393 2.40208854c-2.14445833 0-3.90936819 1.41219632-4.10226901 3.4727238h-1.0402243l1.53632807 1.9292612 1.53632807-1.9292612H3.36902631c.18973633-1.50221004 1.49513294-2.46599145 3.07258035-2.46599145 1.70787337 0 3.09399272 1.36410557 3.09399272 3.04477875-5.7e-7 1.68076256-1.3861004 3.04477875-3.09399272 3.04477875-.9266061 0-1.7586188-.40222366-2.32580026-1.03801815l-.7521616.6857177c.75451127.83483922 1.85400805 1.35887637 3.07807555 1.35887637 2.27331153 0 4.11818617-1.81504569 4.11818617-4.0515111 0-2.23648776-1.84495044-4.0515111-4.11818617-4.0515111z" solid-color="#000000" style="isolation:auto;mix-blend-mode:normal"/>
      <path d="M6.7013406 3.94550644h-.38585849l-.38585848 2.70085842L7.8590108 8.18976041l3.7e-7-.3858433-1.15757546-1.54339555z" solid-color="#000000" style="isolation:auto;mix-blend-mode:normal"/>
    </g>
  </g>
</svg>
