<svg xmlns="http://www.w3.org/2000/svg" width="48" height="48" viewBox="0 0 12.7 12.7">
  <g fill="#e6e6e6">
    <path d="M6.3444.07A6.2893 6.2893 0 0 0 .055 6.3594a6.2893 6.2893 0 0 0 6.2894 6.2891 6.2893 6.2893 0 0 0 6.2891-6.2891A6.2893 6.2893 0 0 0 6.3444.07zm-.018184.9363a5.407 5.407 0 0 1 5.4071 5.4071 5.407 5.407 0 0 1-5.4071 5.4069 5.407 5.407 0 0 1-5.4071-5.4069 5.407 5.407 0 0 1 5.4071-5.4071z"/>
    <path d="M9.1228 2.14c-1.3583.21658-2.9201.43973-4.2748.66847-.35843.17313-.27779.6191-.29392.94264v4.3324c-.92157-.21097-1.9337.47758-1.9735 1.4561-.065168.60955.48053 1.1398 1.0743 1.1543 1.0631.0254 1.8711-.67242 1.8826-1.5552-.011855-1.4828.0033-2.9658 0-4.4486.16457-.0125 2.7381-.48283 2.9622-.5141v3.3315c-.85048-.25048-1.7003.27317-1.9096 1.1506-.15502.50819.078663 1.1092.5829 1.3175.98444.44762 2.3691-.45916 2.3141-1.5236-.015469-1.9768.012507-3.9545 0-5.9316-.026001-.18563-.15305-.39397-.36435-.38048z"/>
  </g>
</svg>
