<svg xmlns="http://www.w3.org/2000/svg" width="48" height="48" viewBox="0 0 12.7 12.7">
  <path fill="#e6e6e6" d="M6.34436382.07286269A6.28933118 6.28933118 0 0 0 .05503264 6.36219387a6.28933118 6.28933118 0 0 0 6.28933118 6.2890666 6.28933118 6.28933118 0 0 0 6.2890666-6.2890666A6.28933118 6.28933118 0 0 0 6.34436382.07286269zm-.01808669.93637507a5.40695688 5.40695688 0 0 1 5.40695688 5.40695688 5.40695688 5.40695688 0 0 1-5.40695688 5.40695688A5.40695688 5.40695688 0 0 1 .91905567 6.41619464a5.40695688 5.40695688 0 0 1 5.40722146-5.40695688zM3.24339097 2.56208424c-.53897592 0-.97304586.43462557-.97304586.97357503v5.78874582c0 .53894946.4340964.97254316.97304586.97254316H9.4620793c.53897592 0 .972014-.4335937.972014-.97254316V3.53565927c0-.53894946-.43306454-.97357503-.972014-.97357503H3.24339097zm.4046222.46767161h5.44611472c.47198426 0 .85110094.37964584.85110094.8516301v5.0693528c0 .47198427-.37911668.85213281-.85110094.85213281H3.64801317c-.47198427 0-.85266197-.38014854-.85266197-.8521328v-5.0693528c0-.47195781.3806777-.85163011.85266197-.85163011zm2.39516336 1.69185681c-.19667025 0-.3555426.15835907-.3555426.35448428v.09301575c0 .10504884-.0865256.16911424-.16691294.16329613h-.47955125c-.19667025 0-.35657447.21461142-.35657447.41134253v1.9812544c0 .19606702.15988305.3544843.35657447.3544843H7.6724972c.19610934 0 .3560453-.15831939.3560453-.3544843v-1.9812544c0-.19672846-.1599439-.41134253-.3560453-.41134253h-.4800804c-.09691302 0-.16691295-.07738965-.16691295-.16742887V5.075581c0-.19607759-.15938299-.35398158-.3560453-.35398158h-.62631378zM5.0980174 6.69873963h.53225558v.90227071H5.0980174v-.90227071zm.63819342 0h.53175288v.90227071h-.53175288v-.90227071zm.6454429 0h.53175289v.90227071h-.53175288v-.90227071zm.6366324 0h.53328745v.90227071h-.53328745v-.90227071z"/>
</svg>
