<svg xmlns="http://www.w3.org/2000/svg" width="48" height="48" viewBox="0 0 12.7 12.7">
  <path fill="#e6e6e6" d="M6.34436382.07286269A6.28933118 6.28933118 0 0 0 .05503264 6.36219387a6.28933118 6.28933118 0 0 0 6.28933118 6.2890666 6.28933118 6.28933118 0 0 0 6.2890666-6.2890666A6.28933118 6.28933118 0 0 0 6.34436382.07286269zm-.01808669.93637507a5.40695688 5.40695688 0 0 1 5.40695688 5.40695688 5.40695688 5.40695688 0 0 1-5.40695688 5.40695688A5.40695688 5.40695688 0 0 1 .91905567 6.41619464a5.40695688 5.40695688 0 0 1 5.40722146-5.40695688zm3.39614888 1.42574225l-4.22904672.61803242v3.13633132l4.22904672-.04289106V2.43518903zm-4.61453978.67539337l-3.1895119.43356724.00258378 2.65876442 3.18845358-.0149858-.00155017-3.07732999zM1.92049097 6.52107416l.00051675 2.66193938 3.18845358.43769469-.00258389-3.07944662-3.18633694-.02015359zm3.5665384.04134062l.00620123 3.10511088 4.22904672.59736873.00103345-3.6948597-4.23645496-.0077514z"/>
</svg>
