<?xml version="1.0" encoding="UTF-8" standalone="no"?>
<svg
   xmlns:dc="http://purl.org/dc/elements/1.1/"
   xmlns:cc="http://creativecommons.org/ns#"
   xmlns:rdf="http://www.w3.org/1999/02/22-rdf-syntax-ns#"
   xmlns:svg="http://www.w3.org/2000/svg"
   xmlns="http://www.w3.org/2000/svg"
   xmlns:sodipodi="http://sodipodi.sourceforge.net/DTD/sodipodi-0.dtd"
   xmlns:inkscape="http://www.inkscape.org/namespaces/inkscape"
   width="48"
   height="48"
   version="1.1"
   viewBox="0 0 12.7 12.7"
   id="svg12"
   sodipodi:docname="folder-mega.svg"
   inkscape:version="0.92.3 (2405546, 2018-03-11)">
  <defs
     id="defs16" />
  <sodipodi:namedview
     pagecolor="#ffffff"
     bordercolor="#666666"
     borderopacity="1"
     objecttolerance="10"
     gridtolerance="10"
     guidetolerance="10"
     inkscape:pageopacity="0"
     inkscape:pageshadow="2"
     inkscape:window-width="883"
     inkscape:window-height="480"
     id="namedview14"
     showgrid="false"
     inkscape:zoom="4.9166667"
     inkscape:cx="4.1694917"
     inkscape:cy="24"
     inkscape:window-x="0"
     inkscape:window-y="25"
     inkscape:window-maximized="0"
     inkscape:current-layer="svg12" />
  <metadata
     id="metadata2">
    <rdf:RDF>
      <cc:Work
         rdf:about="">
        <dc:format>image/svg+xml</dc:format>
        <dc:type
           rdf:resource="http://purl.org/dc/dcmitype/StillImage" />
        <dc:title></dc:title>
      </cc:Work>
    </rdf:RDF>
  </metadata>
  <path
     d="m 6.3443,0.07 a 6.2893,6.2893 0 0 0 -6.2895,6.2895 6.2893,6.2893 0 0 0 6.2895,6.289 6.2893,6.2893 0 0 0 6.289,-6.289 A 6.2893,6.2893 0 0 0 6.3443,0.07 Z M 6.326213,1.00638 a 5.407,5.407 0 0 1 5.4069,5.4069 5.407,5.407 0 0 1 -5.4069,5.4069 5.407,5.407 0 0 1 -5.4074,-5.4069 5.407,5.407 0 0 1 5.4074,-5.4069 z"
     id="path4"
     inkscape:connector-curvature="0"
     style="fill:#e6e6e6;stroke-width:0.13895001" />
  <path
     d="M 2.6908,3.65 H 4.2314 L 6.3885,5.576 8.4686,3.65 h 1.5406 V 9.0425 H 8.4686 V 5.9612 L 6.5427,7.5018 H 6.15737 L 4.23147,5.9612 v 3.0813 h -1.5406 z"
     id="path6"
     inkscape:connector-curvature="0"
     style="opacity:0.75;fill:#800000" />
</svg>
