<?xml version="1.0" encoding="UTF-8" standalone="no"?>
<svg
   xmlns:dc="http://purl.org/dc/elements/1.1/"
   xmlns:cc="http://creativecommons.org/ns#"
   xmlns:rdf="http://www.w3.org/1999/02/22-rdf-syntax-ns#"
   xmlns:svg="http://www.w3.org/2000/svg"
   xmlns="http://www.w3.org/2000/svg"
   xmlns:sodipodi="http://sodipodi.sourceforge.net/DTD/sodipodi-0.dtd"
   xmlns:inkscape="http://www.inkscape.org/namespaces/inkscape"
   width="48"
   height="48"
   version="1.1"
   viewBox="0 0 12.7 12.7"
   id="svg8"
   sodipodi:docname="folder-video.svg"
   inkscape:version="0.92.3 (2405546, 2018-03-11)">
  <defs
     id="defs12" />
  <sodipodi:namedview
     pagecolor="#ffffff"
     bordercolor="#666666"
     borderopacity="1"
     objecttolerance="10"
     gridtolerance="10"
     guidetolerance="10"
     inkscape:pageopacity="0"
     inkscape:pageshadow="2"
     inkscape:window-width="883"
     inkscape:window-height="480"
     id="namedview10"
     showgrid="false"
     inkscape:zoom="4.9166667"
     inkscape:cx="4.1694917"
     inkscape:cy="24"
     inkscape:window-x="0"
     inkscape:window-y="25"
     inkscape:window-maximized="0"
     inkscape:current-layer="svg8" />
  <metadata
     id="metadata2">
    <rdf:RDF>
      <cc:Work
         rdf:about="">
        <dc:format>image/svg+xml</dc:format>
        <dc:type
           rdf:resource="http://purl.org/dc/dcmitype/StillImage" />
        <dc:title></dc:title>
      </cc:Work>
    </rdf:RDF>
  </metadata>
  <g
     transform="translate(0,-284.3)"
     id="g6"
     style="fill:#e6e6e6">
    <path
       transform="matrix(.26458 0 0 .26458 0 284.3)"
       d="m23.979 0.27539a23.771 23.771 0 0 0 -23.771 23.771 23.771 23.771 0 0 0 23.771 23.77 23.771 23.771 0 0 0 23.77 -23.77 23.771 23.771 0 0 0 -23.77 -23.771zm-0.06836 3.5391a20.436 20.436 0 0 1 20.436 20.436 20.436 20.436 0 0 1 -20.436 20.436 20.436 20.436 0 0 1 -20.437 -20.436 20.436 20.436 0 0 1 20.437 -20.436zm-12.98 6.6855c-0.37194 3.8e-5 -0.67379 0.29804-0.67383 0.66602v26.645c3.7e-5 0.36775 0.30189 0.66598 0.67383 0.66602h3.3672 18.857 3.3672c0.37194-3.7e-5 0.67379-0.29804 0.67383-0.66602v-26.645c-3.8e-5 -0.36775-0.30188-0.66598-0.67383-0.66602h-3.3672-18.857-3.3672zm4.5059 2.8906h16.373v10.318h-16.373v-10.318zm-3.625 0.2168h2.0723v1.0371h-2.0723v-1.0371zm21.758 0h2.0723v1.0371h-2.0723v-1.0371zm-21.758 3.1094h2.0723v1.0352h-2.0723v-1.0352zm21.758 0h2.0723v1.0352h-2.0723v-1.0352zm-21.758 3.1074h2.0723v1.0371h-2.0723v-1.0371zm21.758 0h2.0723v1.0371h-2.0723v-1.0371zm-21.758 3.1094h2.0723v1.0352h-2.0723v-1.0352zm21.758 0h2.0723v1.0352h-2.0723v-1.0352zm-18.133 2.9355h16.373v9.7246h-16.373v-9.7246zm-3.625 0.17188h2.0723v1.0371h-2.0723v-1.0371zm21.758 0h2.0723v1.0371h-2.0723v-1.0371zm-21.758 3.1094h2.0723v1.0352h-2.0723v-1.0352zm21.758 0h2.0723v1.0352h-2.0723v-1.0352zm-21.758 3.1074h2.0723v1.0371h-2.0723v-1.0371zm21.758 0h2.0723v1.0371h-2.0723v-1.0371zm-21.758 3.1094h2.0723v1.0371h-2.0723v-1.0371zm21.758 0h2.0723v1.0371h-2.0723v-1.0371z"
       fill="#1a1a1a"
       stroke-width=".52517"
       id="path4"
       style="fill:#e6e6e6" />
  </g>
</svg>
