<svg xmlns="http://www.w3.org/2000/svg" width="48" height="48" viewBox="0 0 12.7 12.7">
  <path fill="#e6e6e6" d="M6.34436382.07286269A6.28933118 6.28933118 0 0 0 .05503264 6.36219387a6.28933118 6.28933118 0 0 0 6.28933118 6.2890666 6.28933118 6.28933118 0 0 0 6.2890666-6.2890666A6.28933118 6.28933118 0 0 0 6.34436382.07286269zm-.01808669.93637507a5.40695688 5.40695688 0 0 1 5.40695688 5.40695688 5.40695688 5.40695688 0 0 1-5.40695688 5.40695688A5.40695688 5.40695688 0 0 1 .91905567 6.41619464a5.40695688 5.40695688 0 0 1 5.40722146-5.40695688zm0 .52916l-4.934417 4.934417.95497505.95497506.79580373-.79580373v3.82000604h2.54711166v-1.9099501c0-.35273806.2839208-.6366324.6366324-.6366324.35273805 0 .63663239.2839208.63663239.6366324v1.9099501h2.5465825V6.6319861l.79580372.79580373.95547776-.95497506-4.934417-4.934417zm1.9099501.6366324v.47748753L9.5095185 3.92580894V2.17503016H8.23622724z"/>
</svg>
