<?xml version="1.0" encoding="UTF-8" standalone="no"?>
<svg
   xmlns:dc="http://purl.org/dc/elements/1.1/"
   xmlns:cc="http://creativecommons.org/ns#"
   xmlns:rdf="http://www.w3.org/1999/02/22-rdf-syntax-ns#"
   xmlns:svg="http://www.w3.org/2000/svg"
   xmlns="http://www.w3.org/2000/svg"
   xmlns:sodipodi="http://sodipodi.sourceforge.net/DTD/sodipodi-0.dtd"
   xmlns:inkscape="http://www.inkscape.org/namespaces/inkscape"
   width="48"
   height="48"
   version="1.1"
   viewBox="0 0 12.7 12.7"
   id="svg10"
   sodipodi:docname="folder-documents.svg"
   inkscape:version="0.92.3 (2405546, 2018-03-11)">
  <defs
     id="defs14" />
  <sodipodi:namedview
     pagecolor="#ffffff"
     bordercolor="#666666"
     borderopacity="1"
     objecttolerance="10"
     gridtolerance="10"
     guidetolerance="10"
     inkscape:pageopacity="0"
     inkscape:pageshadow="2"
     inkscape:window-width="883"
     inkscape:window-height="480"
     id="namedview12"
     showgrid="false"
     inkscape:zoom="4.9166667"
     inkscape:cx="24"
     inkscape:cy="24"
     inkscape:window-x="0"
     inkscape:window-y="25"
     inkscape:window-maximized="0"
     inkscape:current-layer="svg10" />
  <metadata
     id="metadata2">
    <rdf:RDF>
      <cc:Work
         rdf:about="">
        <dc:format>image/svg+xml</dc:format>
        <dc:type
           rdf:resource="http://purl.org/dc/dcmitype/StillImage" />
        <dc:title></dc:title>
      </cc:Work>
    </rdf:RDF>
  </metadata>
  <g
     transform="translate(0,-284.3)"
     fill="#1a1a1a"
     id="g8"
     style="fill:#e6e6e6">
    <path
       d="m6.3444 284.37a6.2893 6.2893 0 0 0 -6.2894 6.2894 6.2893 6.2893 0 0 0 6.2894 6.2891 6.2893 6.2893 0 0 0 6.2891 -6.2891 6.2893 6.2893 0 0 0 -6.2891 -6.2894zm-0.018184 0.9363a5.407 5.407 0 0 1 5.4071 5.4071 5.407 5.407 0 0 1 -5.4071 5.4069 5.407 5.407 0 0 1 -5.4071 -5.4069 5.407 5.407 0 0 1 5.4071 -5.4071z"
       stroke-width=".13895"
       id="path4"
       style="fill:#e6e6e6" />
    <path
       transform="matrix(.26458 0 0 .26458 0 284.3)"
       d="m13.678 12.488c-0.87545 0-1.5801 0.70462-1.5801 1.5801v0.76562c0 0.87545 0.70462 1.5801 1.5801 1.5801h20.66c0.87545 0 1.582-0.70462 1.582-1.5801v-0.76562c0-0.87545-0.70658-1.5801-1.582-1.5801h-20.66zm0 6.6094c-0.87545 0-1.5801 0.70462-1.5801 1.5801v0.76562c0 0.87545 0.70462 1.5801 1.5801 1.5801h20.66c0.87545 0 1.582-0.70462 1.582-1.5801v-0.76562c0-0.87545-0.70658-1.5801-1.582-1.5801h-20.66zm0 6.6094c-0.87545 0-1.5801 0.70462-1.5801 1.5801v0.76758c0 0.87545 0.70462 1.5801 1.5801 1.5801h20.66c0.87545 0 1.582-0.70462 1.582-1.5801v-0.76758c0-0.87545-0.70658-1.5801-1.582-1.5801h-20.66zm0 6.6113c-0.87545 0-1.5801 0.70462-1.5801 1.5801v0.76562c0 0.87545 0.70462 1.5801 1.5801 1.5801h20.66c0.87545 0 1.582-0.70462 1.582-1.5801v-0.76562c0-0.87545-0.70658-1.5801-1.582-1.5801h-20.66z"
       id="path6"
       style="fill:#e6e6e6" />
  </g>
</svg>
