<svg xmlns="http://www.w3.org/2000/svg" width="48" height="48" viewBox="0 0 12.7 12.7">
  <g fill="#e6e6e6" transform="translate(0 -284.3)">
    <path d="M6.3443558 284.37295a6.2892804 6.2892804 0 0 0-6.28941435 6.28942 6.2892804 6.2892804 0 0 0 6.28941435 6.28914 6.2892804 6.2892804 0 0 0 6.2891432-6.28914 6.2892804 6.2892804 0 0 0-6.2891432-6.28942zm-.018184.9363a5.4070438 5.4070438 0 0 1 5.4071322 5.40711 5.4070438 5.4070438 0 0 1-5.4071322 5.40686 5.4070438 5.4070438 0 0 1-5.40713234-5.40686 5.4070438 5.4070438 0 0 1 5.40713234-5.40711z"/>
    <rect width="1.2132113" height=".98089433" x="2.6329272" y="290.19827" rx=".38719389" ry=".09679889"/>
    <rect width="1.2132114" height=".98089433" x="4.7495937" y="290.19827" rx=".38719389" ry=".0967989"/>
    <rect width="1.2132114" height=".98089433" x="6.866261" y="290.19827" rx=".38719389" ry=".0967989"/>
    <rect width="1.2132115" height=".98089433" x="8.9829264" y="290.19827" rx=".38719389" ry=".0967989"/>
  </g>
</svg>
