<?xml version="1.0" encoding="UTF-8" standalone="no"?>
<svg
   xmlns:dc="http://purl.org/dc/elements/1.1/"
   xmlns:cc="http://creativecommons.org/ns#"
   xmlns:rdf="http://www.w3.org/1999/02/22-rdf-syntax-ns#"
   xmlns:svg="http://www.w3.org/2000/svg"
   xmlns="http://www.w3.org/2000/svg"
   xmlns:sodipodi="http://sodipodi.sourceforge.net/DTD/sodipodi-0.dtd"
   xmlns:inkscape="http://www.inkscape.org/namespaces/inkscape"
   width="48"
   height="48"
   viewBox="0 0 12.7 12.7"
   version="1.1"
   id="svg14"
   sodipodi:docname="gnome-fs-loading-icon.svg"
   inkscape:version="0.92.3 (2405546, 2018-03-11)">
  <metadata
     id="metadata20">
    <rdf:RDF>
      <cc:Work
         rdf:about="">
        <dc:format>image/svg+xml</dc:format>
        <dc:type
           rdf:resource="http://purl.org/dc/dcmitype/StillImage" />
        <dc:title></dc:title>
      </cc:Work>
    </rdf:RDF>
  </metadata>
  <defs
     id="defs18" />
  <sodipodi:namedview
     pagecolor="#ffffff"
     bordercolor="#666666"
     borderopacity="1"
     objecttolerance="10"
     gridtolerance="10"
     guidetolerance="10"
     inkscape:pageopacity="0"
     inkscape:pageshadow="2"
     inkscape:window-width="883"
     inkscape:window-height="480"
     id="namedview16"
     showgrid="false"
     inkscape:zoom="4.9166667"
     inkscape:cx="-20.542373"
     inkscape:cy="24"
     inkscape:window-x="0"
     inkscape:window-y="25"
     inkscape:window-maximized="0"
     inkscape:current-layer="svg14" />
  <g
     transform="translate(0 -284.3)"
     fill="#1a1a1a"
     id="g12"
     style="fill:#e6e6e6">
    <path
       d="M6.3443558 284.37295a6.2892804 6.2892804 0 0 0-6.28941435 6.28942 6.2892804 6.2892804 0 0 0 6.28941435 6.28914 6.2892804 6.2892804 0 0 0 6.2891432-6.28914 6.2892804 6.2892804 0 0 0-6.2891432-6.28942zm-.018184.9363a5.4070438 5.4070438 0 0 1 5.4071322 5.40711 5.4070438 5.4070438 0 0 1-5.4071322 5.40686 5.4070438 5.4070438 0 0 1-5.40713234-5.40686 5.4070438 5.4070438 0 0 1 5.40713234-5.40711z"
       id="path2"
       style="fill:#e6e6e6" />
    <rect
       width="1.2132113"
       height=".98089433"
       x="2.6329272"
       y="290.19827"
       rx=".38719389"
       ry=".09679889"
       id="rect4"
       style="fill:#e6e6e6" />
    <rect
       width="1.2132114"
       height=".98089433"
       x="4.7495937"
       y="290.19827"
       rx=".38719389"
       ry=".0967989"
       id="rect6"
       style="fill:#e6e6e6" />
    <rect
       width="1.2132114"
       height=".98089433"
       x="6.866261"
       y="290.19827"
       rx=".38719389"
       ry=".0967989"
       id="rect8"
       style="fill:#e6e6e6" />
    <rect
       width="1.2132115"
       height=".98089433"
       x="8.9829264"
       y="290.19827"
       rx=".38719389"
       ry=".0967989"
       id="rect10"
       style="fill:#e6e6e6" />
  </g>
</svg>
