<?xml version="1.0" encoding="UTF-8" standalone="no"?>
<!-- Created with Inkscape (http://www.inkscape.org/) -->

<svg
   xmlns:dc="http://purl.org/dc/elements/1.1/"
   xmlns:cc="http://creativecommons.org/ns#"
   xmlns:rdf="http://www.w3.org/1999/02/22-rdf-syntax-ns#"
   xmlns:svg="http://www.w3.org/2000/svg"
   xmlns="http://www.w3.org/2000/svg"
   xmlns:sodipodi="http://sodipodi.sourceforge.net/DTD/sodipodi-0.dtd"
   xmlns:inkscape="http://www.inkscape.org/namespaces/inkscape"
   width="48"
   height="48"
   viewBox="0 0 12.7 12.7"
   version="1.1"
   id="svg829"
   inkscape:version="0.92.3 (2405546, 2018-03-11)"
   sodipodi:docname="gnome-fs-directory-accept.svg">
  <defs
     id="defs823" />
  <sodipodi:namedview
     id="base"
     pagecolor="#ffffff"
     bordercolor="#666666"
     borderopacity="1.0"
     inkscape:pageopacity="0.0"
     inkscape:pageshadow="2"
     inkscape:zoom="5.125"
     inkscape:cx="-9.3658531"
     inkscape:cy="20.53213"
     inkscape:document-units="mm"
     inkscape:current-layer="layer1"
     showgrid="false"
     showguides="true"
     inkscape:guide-bbox="true"
     inkscape:window-width="1366"
     inkscape:window-height="719"
     inkscape:window-x="0"
     inkscape:window-y="25"
     inkscape:window-maximized="1"
     scale-x="1.9"
     units="px"
     inkscape:snap-global="false" />
  <metadata
     id="metadata826">
    <rdf:RDF>
      <cc:Work
         rdf:about="">
        <dc:format>image/svg+xml</dc:format>
        <dc:type
           rdf:resource="http://purl.org/dc/dcmitype/StillImage" />
        <dc:title></dc:title>
      </cc:Work>
    </rdf:RDF>
  </metadata>
  <g
     inkscape:label="Capa 1"
     inkscape:groupmode="layer"
     id="layer1"
     transform="translate(0,-284.3)">
    <path
       style="opacity:1;fill:#e6e6e6;fill-opacity:1;stroke:none;stroke-width:2.10697174"
       d="M 23.978516 0.27539062 A 23.770509 23.770509 0 0 0 0.20703125 24.046875 A 23.770509 23.770509 0 0 0 23.978516 47.816406 A 23.770509 23.770509 0 0 0 47.748047 24.046875 A 23.770509 23.770509 0 0 0 23.978516 0.27539062 z M 23.910156 3.8144531 A 20.436071 20.436071 0 0 1 44.345703 24.25 A 20.436071 20.436071 0 0 1 23.910156 44.685547 A 20.436071 20.436071 0 0 1 3.4726562 24.25 A 20.436071 20.436071 0 0 1 23.910156 3.8144531 z M 10.523438 11.5625 C 9.1742293 11.5625 8.0859375 12.64684 8.0859375 13.996094 L 8.0859375 18.056641 C 8.0859375 18.119759 8.1009333 18.178628 8.1054688 18.240234 L 8.1054688 30.119141 L 8.0839844 30.119141 L 8.0839844 33.921875 C 8.0839844 35.271091 9.1683624 36.357422 10.517578 36.357422 L 37.660156 36.357422 C 39.009371 36.357422 40.09375 35.271091 40.09375 33.921875 L 40.09375 30.664062 L 40.097656 30.664062 L 40.097656 14.279297 L 22.472656 14.279297 L 19.753906 11.5625 L 10.523438 11.5625 z M 11.59375 16.767578 L 36.509766 16.767578 C 37.162312 16.767578 37.6875 17.292777 37.6875 17.945312 L 37.6875 19.011719 L 12.375 19.011719 L 12.289062 19.011719 C 12.251078 19.011719 12.218306 19.031377 12.181641 19.035156 C 11.750564 19.093361 11.414062 19.464341 11.414062 19.9375 C 11.414062 19.98739 11.434376 20.030503 11.441406 20.078125 C 11.434792 20.137464 11.414062 20.190347 11.414062 20.251953 L 11.414062 24.460938 C 11.414062 25.148849 11.842152 25.703125 12.375 25.703125 C 12.907856 25.703125 13.337891 25.148849 13.337891 24.460938 L 13.337891 20.865234 L 37.6875 20.865234 L 37.6875 32.603516 C 37.6875 33.256051 37.162312 33.78125 36.509766 33.78125 L 11.59375 33.78125 C 10.941203 33.78125 10.416016 33.256051 10.416016 32.603516 L 10.416016 17.945312 C 10.416016 17.292777 10.941203 16.767578 11.59375 16.767578 z "
       transform="matrix(0.26458333,0,0,0.26458333,0,284.3)"
       id="path855" />
  </g>
</svg>
