<?xml version="1.0" encoding="UTF-8" standalone="no"?>
<!-- Created with Inkscape (http://www.inkscape.org/) -->

<svg
   xmlns:dc="http://purl.org/dc/elements/1.1/"
   xmlns:cc="http://creativecommons.org/ns#"
   xmlns:rdf="http://www.w3.org/1999/02/22-rdf-syntax-ns#"
   xmlns:svg="http://www.w3.org/2000/svg"
   xmlns="http://www.w3.org/2000/svg"
   xmlns:sodipodi="http://sodipodi.sourceforge.net/DTD/sodipodi-0.dtd"
   xmlns:inkscape="http://www.inkscape.org/namespaces/inkscape"
   width="48"
   height="48"
   viewBox="0 0 12.7 12.7"
   version="1.1"
   id="svg829"
   inkscape:version="0.92.3 (2405546, 2018-03-11)"
   sodipodi:docname="gnome-fs-loading-icon.svg">
  <defs
     id="defs823" />
  <sodipodi:namedview
     id="base"
     pagecolor="#ffffff"
     bordercolor="#666666"
     borderopacity="1.0"
     inkscape:pageopacity="0.0"
     inkscape:pageshadow="2"
     inkscape:zoom="7.2478445"
     inkscape:cx="-0.64311054"
     inkscape:cy="23.448112"
     inkscape:document-units="mm"
     inkscape:current-layer="layer1"
     showgrid="false"
     showguides="true"
     inkscape:guide-bbox="true"
     inkscape:window-width="1366"
     inkscape:window-height="719"
     inkscape:window-x="0"
     inkscape:window-y="25"
     inkscape:window-maximized="1"
     scale-x="1.9"
     units="px" />
  <metadata
     id="metadata826">
    <rdf:RDF>
      <cc:Work
         rdf:about="">
        <dc:format>image/svg+xml</dc:format>
        <dc:type
           rdf:resource="http://purl.org/dc/dcmitype/StillImage" />
        <dc:title></dc:title>
      </cc:Work>
    </rdf:RDF>
  </metadata>
  <g
     inkscape:label="Capa 1"
     inkscape:groupmode="layer"
     id="layer1"
     transform="translate(0,-284.3)">
    <path
       style="fill:#e6e6e6;fill-opacity:1;stroke-width:0.52516764"
       d="M 23.978516 0.27539062 A 23.770509 23.770509 0 0 0 0.20703125 24.046875 A 23.770509 23.770509 0 0 0 23.978516 47.816406 A 23.770509 23.770509 0 0 0 47.748047 24.046875 A 23.770509 23.770509 0 0 0 23.978516 0.27539062 z M 23.910156 3.8144531 A 20.436071 20.436071 0 0 1 44.345703 24.25 A 20.436071 20.436071 0 0 1 23.910156 44.685547 A 20.436071 20.436071 0 0 1 3.4726562 24.25 A 20.436071 20.436071 0 0 1 23.910156 3.8144531 z M 11.414062 22.292969 C 10.603333 22.292969 9.9511719 22.45552 9.9511719 22.658203 L 9.9511719 25.634766 C 9.9511719 25.837449 10.603333 26 11.414062 26 L 13.072266 26 C 13.882995 26 14.537109 25.837449 14.537109 25.634766 L 14.537109 22.658203 C 14.537109 22.45552 13.882995 22.292969 13.072266 22.292969 L 11.414062 22.292969 z M 19.414062 22.292969 C 18.603333 22.292969 17.951172 22.45552 17.951172 22.658203 L 17.951172 25.634766 C 17.951172 25.837449 18.603333 26 19.414062 26 L 21.072266 26 C 21.882995 26 22.537109 25.837449 22.537109 25.634766 L 22.537109 22.658203 C 22.537109 22.45552 21.882995 22.292969 21.072266 22.292969 L 19.414062 22.292969 z M 27.414062 22.292969 C 26.603333 22.292969 25.951172 22.45552 25.951172 22.658203 L 25.951172 25.634766 C 25.951172 25.837449 26.603333 26 27.414062 26 L 29.072266 26 C 29.882995 26 30.537109 25.837449 30.537109 25.634766 L 30.537109 22.658203 C 30.537109 22.45552 29.882995 22.292969 29.072266 22.292969 L 27.414062 22.292969 z M 35.414062 22.292969 C 34.603333 22.292969 33.951172 22.45552 33.951172 22.658203 L 33.951172 25.634766 C 33.951172 25.837449 34.603333 26 35.414062 26 L 37.072266 26 C 37.882995 26 38.537109 25.837449 38.537109 25.634766 L 38.537109 22.658203 C 38.537109 22.45552 37.882995 22.292969 37.072266 22.292969 L 35.414062 22.292969 z "
       transform="matrix(0.26458333,0,0,0.26458333,0,284.3)"
       id="path1374" />
  </g>
</svg>
