<?xml version="1.0" encoding="UTF-8" standalone="no"?>
<svg
   xmlns:dc="http://purl.org/dc/elements/1.1/"
   xmlns:cc="http://creativecommons.org/ns#"
   xmlns:rdf="http://www.w3.org/1999/02/22-rdf-syntax-ns#"
   xmlns:svg="http://www.w3.org/2000/svg"
   xmlns="http://www.w3.org/2000/svg"
   xmlns:sodipodi="http://sodipodi.sourceforge.net/DTD/sodipodi-0.dtd"
   xmlns:inkscape="http://www.inkscape.org/namespaces/inkscape"
   width="48"
   height="48"
   viewBox="0 0 12.7 12.7"
   version="1.1"
   id="svg4"
   sodipodi:docname="gnome-fs-web.svg"
   inkscape:version="0.92.3 (2405546, 2018-03-11)">
  <metadata
     id="metadata10">
    <rdf:RDF>
      <cc:Work
         rdf:about="">
        <dc:format>image/svg+xml</dc:format>
        <dc:type
           rdf:resource="http://purl.org/dc/dcmitype/StillImage" />
        <dc:title></dc:title>
      </cc:Work>
    </rdf:RDF>
  </metadata>
  <defs
     id="defs8" />
  <sodipodi:namedview
     pagecolor="#ffffff"
     bordercolor="#666666"
     borderopacity="1"
     objecttolerance="10"
     gridtolerance="10"
     guidetolerance="10"
     inkscape:pageopacity="0"
     inkscape:pageshadow="2"
     inkscape:window-width="883"
     inkscape:window-height="480"
     id="namedview6"
     showgrid="false"
     inkscape:zoom="4.9166667"
     inkscape:cx="4.1694917"
     inkscape:cy="24"
     inkscape:window-x="0"
     inkscape:window-y="25"
     inkscape:window-maximized="0"
     inkscape:current-layer="svg4" />
  <path
     d="M6.34431561.07286377a6.28928043 6.28928043 0 0 0-6.2895386 6.2895385 6.28928043 6.28928043 0 0 0 6.2895386 6.28902166 6.28928043 6.28928043 0 0 0 6.28902167-6.28902167A6.28928043 6.28928043 0 0 0 6.3443156.07286376zm-.01808691.93637693a5.40704372 5.40704372 0 0 1 5.40690507 5.40690505 5.40704372 5.40704372 0 0 1-1.12034504 3.28507086H8.270296c-.0111432-.1623806-.14216883-.29093847-.30747467-.29093847H6.9256753c.0349557-.0503764.0599448-.10792434.0599448-.17414955v-.56068938c.91610284-.1637702 1.70537502-.69495008 2.2060667-1.43867186.38450625-.54966154.61133222-1.21620093.61133222-1.93579906 0-1.8769798-1.53365146-3.40027914-3.42356357-3.40030912-1.8899129 0-3.42400647 1.5233092-3.4240803 3.40030912 0 1.06109795.49060338 2.0087693 1.25832102 2.6323975.45424354.38384585 1.01104831.64757987 1.62315682.74879146v.55397134c0 .06622521.02498883.12377314.05994453.17414955H4.88652338c-.16531193 0-.29634021.12854913-.30747467.29093847H2.03656816A5.40704372 5.40704372 0 0 1 .91880694 6.41614575 5.40704372 5.40704372 0 0 1 6.3262287 1.0092407zm.1545127 1.04334716c.32887363.0087725.64558676.06472865.94361157.16278077l.20877265.153479.0640789-.05115968c.94935145.40905996 1.66533511 1.24981503 1.89859204 2.27272937-.07394998-.0539533-.15121096-.10510731-.23099368-.15606262l-.23977865.02480469-.21910807-.17466654v.21600768l.18758562.10076894.1250569.09973548.16691477-.13332512c.04200551.05549.0837647.11089798.1255739.16639804v.16639804L9.322945 5.0508545l-.3446817.16639805-.24959733.17569973c.12075054-.00619998.24141906-.01535483.3648358-.02635488v.1173054l-.25011406.43253184-.22995995.1834515-.18810235.28370344v.46612148l.06304519.18345123-.10438633.0826823-.22996022.10025247-.23977864.14159335.1984375.15812982-.2713011.16691477.05219302.10800371-.40721015.32504486h-.27130136l-.22944322.09973548h-.14624447v-.1328084l-.06201172-.26716725c-.08073522-.16724974-.16507857-.33310433-.25063053-.49919413 0-.12254997.01026557-.24383603.02067058-.366386L6.652307 6.7835652l-.1462442-.20050468.01033515-.27491849-.1984375-.15812981.09921875-.22892676-.1617472-.12919101H5.9737955l-.09353444-.07441406-.28215325.12454016-.11472175-.09146725-.26096594.15812982c-.17727084-.14161982-.35447949-.2831502-.53175032-.42478034l-.20877292-.34984927.18758562-.1999877-.10386986-.08319928.22892675-.38343893c.18825369-.16532013.38489916-.3234981.58394362-.48265793l.35501711-.06666257.396875-.03358964.2713011.0501261.3860231.27440175.13539233-.1080037.18810207-.01653646.3545004.08319902h.27181809l.18758535-.11627194.08371575-.08319902-.18861881-.08371575-.31264251-.01653646c-.08690107-.0849302-.1680218-.17409716-.27130137-.24959733l-.10438632.03307291-.04185788.21652442-.18810208-.14986185-.04134114-.16639805-.20825619-.11627193h-.08371575l.20877265.16639804-.08371575.14986185-.16691478.03307292.10438633-.14986185-.18810235-.06666257-.16691477-.13332513-.31315924.05012611-.04134115.06666256-.18810208.08319903-.1038696.1834515-.26096594.09146724-.11472174-.09146725h-.1250569V3.5186482l.2713011-.10025221h.20825619l-.04185815-.11678867-.16639804-.11678894.28163652-.04134114.15606289-.1250569.1250569-.14986159h.22996022l-.06252845-.11627193.14572747-.06666257v.13332513l.31315924.04960937.31264251-.1829345.0211873-.08371591.2713011-.13280845c-.0980768.00860002-.19653143.01477293-.2924884.03307292v-.14986164l.10438633-.16691488h-.10438633l-.22892676.15037842-.06304518.08319905.06304518.11678875-.10438632.19947112-.16691504-.06666257-.1462442-.1162721-.22944323.1162721-.08371601-.26613376.39635826-.18345131v-.1002523l.14211035-.06614583zm1.46502673 2.315621l-.06304518.04909238.09405117.24184584.17724993.14159335c.10116.20597998.20139369.4025167.33434655.59944661.07478712 0 .14691492-.0027178.2196248-.00671777l-.15761309-.12609063.08423275-.15037831-.16743177-.1328084-.28111979-.42478033-.24029537-.19120273zm-5.28081445 6.0177203h1.90996091v.0062013c0 .17265254.138956.31212552.31160879.31212552h3.07629794c.1726528 0 .31160905-.13947298.31160905-.31212551v-.0062013h1.71565726a5.40704372 5.40704372 0 0 1-3.66385893 1.43712166 5.40704372 5.40704372 0 0 1-3.66127502-1.43712167z"
     fill="#1a1a1a"
     id="path2"
     style="fill:#e6e6e6" />
</svg>
