<?xml version="1.0" encoding="UTF-8" standalone="no"?>
<!-- Created with Inkscape (http://www.inkscape.org/) -->

<svg
   xmlns:dc="http://purl.org/dc/elements/1.1/"
   xmlns:cc="http://creativecommons.org/ns#"
   xmlns:rdf="http://www.w3.org/1999/02/22-rdf-syntax-ns#"
   xmlns:svg="http://www.w3.org/2000/svg"
   xmlns="http://www.w3.org/2000/svg"
   xmlns:sodipodi="http://sodipodi.sourceforge.net/DTD/sodipodi-0.dtd"
   xmlns:inkscape="http://www.inkscape.org/namespaces/inkscape"
   width="48"
   height="48"
   viewBox="0 0 12.7 12.7"
   version="1.1"
   id="svg829"
   inkscape:version="0.92.3 (2405546, 2018-03-11)"
   sodipodi:docname="user-desktop.svg">
  <defs
     id="defs823" />
  <sodipodi:namedview
     id="base"
     pagecolor="#ffffff"
     bordercolor="#666666"
     borderopacity="1.0"
     inkscape:pageopacity="0.0"
     inkscape:pageshadow="2"
     inkscape:zoom="7.2478445"
     inkscape:cx="-2.8870131"
     inkscape:cy="22.27738"
     inkscape:document-units="mm"
     inkscape:current-layer="layer1"
     showgrid="false"
     showguides="true"
     inkscape:guide-bbox="true"
     inkscape:window-width="1366"
     inkscape:window-height="719"
     inkscape:window-x="0"
     inkscape:window-y="25"
     inkscape:window-maximized="1"
     scale-x="1.9"
     units="px" />
  <metadata
     id="metadata826">
    <rdf:RDF>
      <cc:Work
         rdf:about="">
        <dc:format>image/svg+xml</dc:format>
        <dc:type
           rdf:resource="http://purl.org/dc/dcmitype/StillImage" />
        <dc:title></dc:title>
      </cc:Work>
    </rdf:RDF>
  </metadata>
  <g
     inkscape:label="Capa 1"
     inkscape:groupmode="layer"
     id="layer1"
     transform="translate(0,-284.3)">
    <path
       style="fill:#e6e6e6;fill-opacity:1;stroke-width:0.52516764"
       d="M 23.978516 0.27539062 A 23.770509 23.770509 0 0 0 0.20703125 24.046875 A 23.770509 23.770509 0 0 0 23.978516 47.816406 A 23.770509 23.770509 0 0 0 47.748047 24.046875 A 23.770509 23.770509 0 0 0 23.978516 0.27539062 z M 23.910156 3.8144531 A 20.436071 20.436071 0 0 1 44.345703 24.25 A 20.436071 20.436071 0 0 1 23.910156 44.685547 A 20.436071 20.436071 0 0 1 3.4726562 24.25 A 20.436071 20.436071 0 0 1 23.910156 3.8144531 z M 10.214844 12.259766 C 9.672934 12.259766 9.2363281 12.317617 9.2363281 12.388672 L 9.2363281 12.390625 L 9.2363281 12.730469 L 9.2363281 15.210938 C 9.2363281 15.281993 9.672934 15.339844 10.214844 15.339844 L 37.603516 15.339844 C 38.145429 15.339844 38.582031 15.281993 38.582031 15.210938 L 38.582031 12.730469 L 38.582031 12.390625 L 38.582031 12.388672 C 38.582031 12.317617 38.145429 12.259766 37.603516 12.259766 L 37.587891 12.259766 L 10.232422 12.259766 L 10.214844 12.259766 z M 9.2949219 16.082031 L 9.2949219 35.171875 C 9.2949219 35.713595 9.7297983 36.150391 10.271484 36.150391 L 37.650391 36.150391 C 38.192083 36.150391 38.626953 35.713595 38.626953 35.171875 L 38.626953 16.082031 L 9.2949219 16.082031 z M 11.119141 19.208984 L 15.291016 19.208984 L 15.291016 24.074219 L 11.119141 24.074219 L 11.119141 19.208984 z M 11.119141 26.160156 L 15.291016 26.160156 L 15.291016 31.025391 L 11.119141 31.025391 L 11.119141 26.160156 z "
       transform="matrix(0.26458333,0,0,0.26458333,0,284.3)"
       id="path826" />
  </g>
</svg>
