<?xml version="1.0" encoding="UTF-8" standalone="no"?>
<!-- Created with Inkscape (http://www.inkscape.org/) -->

<svg
   xmlns:dc="http://purl.org/dc/elements/1.1/"
   xmlns:cc="http://creativecommons.org/ns#"
   xmlns:rdf="http://www.w3.org/1999/02/22-rdf-syntax-ns#"
   xmlns:svg="http://www.w3.org/2000/svg"
   xmlns="http://www.w3.org/2000/svg"
   xmlns:sodipodi="http://sodipodi.sourceforge.net/DTD/sodipodi-0.dtd"
   xmlns:inkscape="http://www.inkscape.org/namespaces/inkscape"
   width="48"
   height="48"
   viewBox="0 0 12.7 12.7"
   version="1.1"
   id="svg829"
   inkscape:version="0.92.3 (2405546, 2018-03-11)"
   sodipodi:docname="desktop.svg">
  <defs
     id="defs823" />
  <sodipodi:namedview
     id="base"
     pagecolor="#ffffff"
     bordercolor="#666666"
     borderopacity="1.0"
     inkscape:pageopacity="0.0"
     inkscape:pageshadow="2"
     inkscape:zoom="10.25"
     inkscape:cx="-1.5699399"
     inkscape:cy="22.667624"
     inkscape:document-units="mm"
     inkscape:current-layer="layer1"
     showgrid="false"
     showguides="true"
     inkscape:guide-bbox="true"
     inkscape:window-width="1366"
     inkscape:window-height="690"
     inkscape:window-x="0"
     inkscape:window-y="28"
     inkscape:window-maximized="1"
     scale-x="1.9"
     units="px" />
  <metadata
     id="metadata826">
    <rdf:RDF>
      <cc:Work
         rdf:about="">
        <dc:format>image/svg+xml</dc:format>
        <dc:type
           rdf:resource="http://purl.org/dc/dcmitype/StillImage" />
        <dc:title></dc:title>
      </cc:Work>
    </rdf:RDF>
  </metadata>
  <g
     inkscape:label="Capa 1"
     inkscape:groupmode="layer"
     id="layer1"
     transform="translate(0,-284.3)">
    <path
       style="fill:#1a1a1a;fill-opacity:1;stroke-width:0.52516764"
       d="M 23.978516 0.27539062 A 23.770509 23.770509 0 0 0 0.20703125 24.046875 A 23.770509 23.770509 0 0 0 23.978516 47.816406 A 23.770509 23.770509 0 0 0 47.748047 24.046875 A 23.770509 23.770509 0 0 0 23.978516 0.27539062 z M 23.910156 3.8144531 A 20.436071 20.436071 0 0 1 44.345703 24.25 A 20.436071 20.436071 0 0 1 23.910156 44.685547 A 20.436071 20.436071 0 0 1 3.4726562 24.25 A 20.436071 20.436071 0 0 1 23.910156 3.8144531 z "
       transform="matrix(0.26458333,0,0,0.26458333,0,284.3)"
       id="path826" />
    <path
       style="fill:#1a1a1a;fill-opacity:1;stroke-width:0.04722111"
       d="m 2.7026017,287.54355 c -0.1433803,0 -0.2588989,0.0153 -0.2588989,0.0341 v 5.2e-4 0.0899 0.65629 c 0,0.0188 0.1155186,0.0341 0.2588989,0.0341 h 7.2465861 c 0.1433812,0 0.2588992,-0.0153 0.2588992,-0.0341 v -0.65629 -0.0899 -5.2e-4 c 0,-0.0188 -0.115518,-0.0341 -0.2588992,-0.0341 h -0.00413 -7.2378011 z m -0.243396,1.01131 v 5.05085 c 0,0.14333 0.1150611,0.2589 0.2583822,0.2589 h 7.2440022 c 0.1433229,0 0.2583819,-0.11557 0.2583819,-0.2589 v -5.05085 z m 0.4826579,0.82734 h 1.1038086 v 1.28726 H 2.9418636 Z m 0,1.83916 h 1.1038086 v 1.28726 H 2.9418636 Z"
       id="path822"
       inkscape:connector-curvature="0" />
  </g>
</svg>
