<svg xmlns="http://www.w3.org/2000/svg" width="48" height="48" viewBox="0 0 12.7 12.7"><path fill="#1a1a1a" d="M6.344.073a6.29 6.29 0 0 0-6.289 6.29 6.29 6.29 0 0 0 6.29 6.288 6.29 6.29 0 0 0 6.288-6.289A6.29 6.29 0 0 0 6.344.072zm-.018.936a5.407 5.407 0 0 1 5.407 5.407 5.407 5.407 0 0 1-5.407 5.407A5.407 5.407 0 0 1 .92 6.416 5.407 5.407 0 0 1 6.326 1.01zm-.293 1.53L4.445 7.938l-.953-3.175H1.588v.635h1.27l1.587 4.763 1.588-5.398.952 3.175 1.27-3.175.953 3.175h1.904v-.635h-1.27L8.255 2.858l-1.27 3.175-.952-3.493z"/></svg>