<svg xmlns="http://www.w3.org/2000/svg" height="24" width="24"><path d="M12 1.135A10.818 10.864 0 0 0 1.182 12 10.818 10.864 0 0 0 12 22.865 10.818 10.864 0 0 0 22.818 12 10.818 10.864 0 0 0 12 1.135zm0 1.894a9.122 9.122 0 0 1 .838.041l.521 2.684a6.427 6.427 0 0 1 1.243.398l1.964-1.88c.498.294.93.659 1.36 1.04l-1.16 2.442a6.48 6.48 0 0 1 .761 1.043l2.682-.361a8.853 8.853 0 0 1 .521 1.642l-2.363 1.281c.022.216.04.42.04.641 0 .222-.018.426-.04.64l2.363 1.282a8.855 8.855 0 0 1-.521 1.642l-2.682-.359c-.218.372-.477.72-.761 1.04l1.16 2.444c-.43.382-.862.747-1.36 1.041l-1.964-1.884c-.391.176-.813.309-1.24.402l-.522 2.684a9.122 9.122 0 0 1-1.682 0l-.52-2.684a6.406 6.406 0 0 1-1.242-.402l-1.962 1.883c-.499-.295-.931-.658-1.362-1.04l1.16-2.445a6.532 6.532 0 0 1-.76-1.039l-2.683.36a8.786 8.786 0 0 1-.52-1.643l2.362-1.281A6.21 6.21 0 0 1 5.594 12a6.185 6.185 0 0 1 .037-.64L3.27 10.077a8.855 8.855 0 0 1 .52-1.64l2.683.36a6.48 6.48 0 0 1 .76-1.042l-1.16-2.444c.43-.381.862-.744 1.36-1.039l1.963 1.88a6.423 6.423 0 0 1 1.243-.4l.52-2.683c.276-.022.56-.04.841-.04zm0 5.127a3.845 3.845 0 0 0 0 7.69 3.845 3.845 0 0 0 0-7.69z" fill="gray" fill-opacity=".991" paint-order="markers fill stroke"/></svg>