<?xml version="1.0" encoding="UTF-8" standalone="no"?>
<!-- Created with Inkscape (http://www.inkscape.org/) -->

<svg
   xmlns:dc="http://purl.org/dc/elements/1.1/"
   xmlns:cc="http://creativecommons.org/ns#"
   xmlns:rdf="http://www.w3.org/1999/02/22-rdf-syntax-ns#"
   xmlns:svg="http://www.w3.org/2000/svg"
   xmlns="http://www.w3.org/2000/svg"
   xmlns:sodipodi="http://sodipodi.sourceforge.net/DTD/sodipodi-0.dtd"
   xmlns:inkscape="http://www.inkscape.org/namespaces/inkscape"
   width="24"
   height="24"
   viewBox="0 0 6.35 6.35"
   version="1.1"
   id="svg829"
   inkscape:version="0.92.3 (2405546, 2018-03-11)"
   sodipodi:docname="battery-low.svg">
  <defs
     id="defs823" />
  <sodipodi:namedview
     id="base"
     pagecolor="#ffffff"
     bordercolor="#666666"
     borderopacity="1.0"
     inkscape:pageopacity="0.0"
     inkscape:pageshadow="2"
     inkscape:zoom="10.479167"
     inkscape:cx="12"
     inkscape:cy="12"
     inkscape:document-units="mm"
     inkscape:current-layer="layer1"
     showgrid="false"
     showguides="true"
     inkscape:guide-bbox="true"
     inkscape:window-width="1366"
     inkscape:window-height="684"
     inkscape:window-x="0"
     inkscape:window-y="28"
     inkscape:window-maximized="1"
     scale-x="1.9"
     units="px" />
  <metadata
     id="metadata826">
    <rdf:RDF>
      <cc:Work
         rdf:about="">
        <dc:format>image/svg+xml</dc:format>
        <dc:type
           rdf:resource="http://purl.org/dc/dcmitype/StillImage" />
        <dc:title></dc:title>
      </cc:Work>
    </rdf:RDF>
  </metadata>
  <g
     inkscape:label="Capa 1"
     inkscape:groupmode="layer"
     id="layer1"
     transform="translate(0,-290.65)">
    <g
       id="g825"
       transform="matrix(0.83172426,0,0,0.83172426,0.5342755,49.443622)">
      <path
         id="path860"
         d="m 1.8257283,294.95878 0.00155,1.34307 c 0.9045297,0.65301 1.9435199,0.4546 2.7037109,-0.01 l 0.00103,-1.33325 H 3.2421778 l -0.3369287,0.65216 v -0.65216 z"
         style="opacity:1;fill:#a05a2c;fill-opacity:1;stroke-width:0.07082927"
         inkscape:connector-curvature="0" />
      <path
         id="path859"
         d="m 1.8257283,294.95878 h 1.0795208 v -0.89503 H 2.3605794 l 1.089339,-2.11047 v 1.54771 h 0.5446697 l -0.7524088,1.45779 H 4.532023 l 0.00259,-3.5574 c -0.427305,-0.21758 -0.8666329,-0.34505 -1.3187915,-0.35502 -0.4521589,-0.01 -0.917153,0.0974 -1.3947469,0.34881 z"
         style="opacity:0.5;fill:#1a1a1a;fill-opacity:1;stroke-width:0.07082927"
         inkscape:connector-curvature="0" />
      <path
         inkscape:connector-curvature="0"
         id="path824"
         d="m 3.1751291,290.68036 a 3.1446401,3.1446401 0 0 0 -3.1447692,3.14477 3.1446401,3.1446401 0 0 0 3.1447692,3.14451 3.1446401,3.1446401 0 0 0 3.144511,-3.14451 3.1446401,3.1446401 0 0 0 -3.144511,-3.14477 z m -0.00904,0.46819 A 2.703522,2.703522 0 0 1 5.8695423,293.852 2.703522,2.703522 0 0 1 3.1660897,296.55546 2.703522,2.703522 0 0 1 0.46237887,293.852 2.703522,2.703522 0 0 1 3.1660891,291.14855 Z"
         style="fill:#a05a2c;fill-opacity:1;stroke-width:0.0694753" />
    </g>
  </g>
</svg>
