<?xml version="1.0" encoding="UTF-8" standalone="no"?>
<!-- Created with Inkscape (http://www.inkscape.org/) -->

<svg
   xmlns:dc="http://purl.org/dc/elements/1.1/"
   xmlns:cc="http://creativecommons.org/ns#"
   xmlns:rdf="http://www.w3.org/1999/02/22-rdf-syntax-ns#"
   xmlns:svg="http://www.w3.org/2000/svg"
   xmlns="http://www.w3.org/2000/svg"
   xmlns:sodipodi="http://sodipodi.sourceforge.net/DTD/sodipodi-0.dtd"
   xmlns:inkscape="http://www.inkscape.org/namespaces/inkscape"
   width="24"
   height="24"
   viewBox="0 0 6.35 6.35"
   version="1.1"
   id="svg829"
   inkscape:version="0.92.3 (2405546, 2018-03-11)"
   sodipodi:docname="battery-caution.svg">
  <defs
     id="defs823" />
  <sodipodi:namedview
     id="base"
     pagecolor="#ffffff"
     bordercolor="#666666"
     borderopacity="1.0"
     inkscape:pageopacity="0.0"
     inkscape:pageshadow="2"
     inkscape:zoom="11.083333"
     inkscape:cx="-22.105264"
     inkscape:cy="11.278196"
     inkscape:document-units="mm"
     inkscape:current-layer="layer1"
     showgrid="false"
     showguides="true"
     inkscape:guide-bbox="true"
     inkscape:window-width="1366"
     inkscape:window-height="684"
     inkscape:window-x="0"
     inkscape:window-y="28"
     inkscape:window-maximized="1"
     scale-x="1.9"
     units="px"
     inkscape:snap-global="true" />
  <metadata
     id="metadata826">
    <rdf:RDF>
      <cc:Work
         rdf:about="">
        <dc:format>image/svg+xml</dc:format>
        <dc:type
           rdf:resource="http://purl.org/dc/dcmitype/StillImage" />
        <dc:title></dc:title>
      </cc:Work>
    </rdf:RDF>
  </metadata>
  <g
     inkscape:label="Capa 1"
     inkscape:groupmode="layer"
     id="layer1"
     transform="translate(0,-290.65)">
    <g
       id="g825"
       transform="matrix(0.9081327,0,0,0.9081327,0.29167868,26.992909)">
      <path
         id="path903"
         d="m 4.4173727,295.74891 h -2.477173 l 4.726e-4,0.34455 c 0.8284245,0.59806 1.7799962,0.41635 2.4762264,-0.009 z"
         style="opacity:1;fill:#800000;fill-opacity:1;stroke-width:0.06486984"
         inkscape:connector-curvature="0" />
      <path
         id="path877"
         d="m 3.2123895,291.28015 c -0.4141152,-0.009 -0.8399856,0.0892 -1.2773959,0.31947 l 0.00521,4.14929 h 2.477173 l 0.00284,-4.14361 c -0.3913443,-0.19928 -0.7937081,-0.31602 -1.207823,-0.32515 z m -0.025558,1.16475 c 0.016648,8.1e-4 0.033212,0.003 0.049695,0.009 0.133451,0.0307 0.1984064,0.18079 0.1746421,0.30716 -0.046616,0.5337 -0.1113844,1.06486 -0.1514512,1.59923 H 3.1054272 c -0.0483,-0.55646 -0.1131655,-1.10694 -0.1699093,-1.66123 0,-0.0174 0.00136,-0.035 0.00426,-0.0521 0.013146,-0.10228 0.099468,-0.18132 0.1973597,-0.1983 v -4.8e-4 c 0.016316,-0.003 0.033047,-0.004 0.049695,-0.003 z m -0.017038,2.25095 c 0.093593,-3.4e-4 0.1888618,0.0501 0.2319095,0.13678 0.076945,0.13412 -0.00228,0.32279 -0.1523977,0.36111 -0.1550077,0.0523 -0.3368213,-0.0773 -0.3308262,-0.24232 -0.00189,-0.077 0.037346,-0.1491 0.096077,-0.19736 0.043569,-0.0398 0.099082,-0.0579 0.1552374,-0.0582 z"
         style="opacity:0.5;fill:#1a1a1a;fill-opacity:1;stroke-width:0.06486984"
         inkscape:connector-curvature="0" />
      <path
         inkscape:connector-curvature="0"
         id="path824"
         d="m 3.1751183,290.94494 a 2.8800568,2.8800568 0 0 0 -2.88017507,2.88018 2.8800568,2.8800568 0 0 0 2.88017507,2.87994 2.8800568,2.8800568 0 0 0 2.8799385,-2.87994 2.8800568,2.8800568 0 0 0 -2.8799385,-2.88018 z m -0.00828,0.4288 a 2.4760534,2.4760534 0 0 1 2.4759899,2.47599 2.4760534,2.4760534 0 0 1 -2.4759899,2.476 2.4760534,2.4760534 0 0 1 -2.47622637,-2.476 2.4760534,2.4760534 0 0 1 2.47622637,-2.47599 z"
         style="fill:#800000;fill-opacity:1;stroke-width:0.0636298" />
    </g>
  </g>
</svg>
