<svg xmlns="http://www.w3.org/2000/svg" width="24" height="24" viewBox="0 0 6.35 6.35"><path d="M3.209.864a2.35 2.35 0 0 0-1.16.29l.005 4.081c.752.543 1.617.378 2.249-.008l.003-4.068A2.532 2.532 0 0 0 3.209.864zm-.013.991c.048 0 .096.004.143.01.333.03.642.238.647.503.024.275-.206.509-.445.695-.227.165-.28.397-.274.636-.077.015-.177.018-.182-.013-.006-.038.002-.07.002-.164 0-.247.151-.48.293-.685.142-.205.24-.415.15-.554a.504.504 0 0 0-.518-.202c-.01.003-.072.014-.132.049-.072.041-.138.143-.122.195.013.046.036.096.029.152-.01.074-.067.154-.192.154-.213 0-.272-.255-.208-.397.11-.256.47-.386.81-.379zM3.17 4.022c.171-.002.304.164.249.308-.053.186-.363.227-.473.063-.124-.149.019-.382.224-.371z" opacity=".5" fill="#1a1a1a"/><path d="M3.175.56A2.615 2.615 0 0 0 .56 3.175 2.615 2.615 0 0 0 3.175 5.79 2.615 2.615 0 0 0 5.79 3.175 2.615 2.615 0 0 0 3.175.56zm-.007.389a2.249 2.249 0 0 1 2.248 2.248 2.249 2.249 0 0 1-2.248 2.249 2.249 2.249 0 0 1-2.25-2.249A2.249 2.249 0 0 1 3.169.95z" fill="gray"/></svg>