<svg xmlns="http://www.w3.org/2000/svg" width="24" height="24" version="1"><defs><linearGradient id="a"><stop offset="0"/><stop offset="1" stop-opacity="0"/></linearGradient></defs><path d="M12 .158A11.843 11.843 0 0 0 .156 12.002 11.843 11.843 0 0 0 12 23.842a11.843 11.843 0 0 0 11.844-11.84A11.843 11.843 0 0 0 12 .158zm-.033 1.76a10.182 10.182 0 0 1 3.56.656L12 4.195 8.096 2.691a10.182 10.182 0 0 1 3.87-.773zm3.869.77a10.182 10.182 0 0 1 5.402 5.236l-3.777-1.465-1.625-3.771zm-7.996.119L6.432 6.65 2.523 8.31A10.182 10.182 0 0 1 7.84 2.808zm.297 4.412c.214 0 .428.084.592.252L12 10.828l3.271-3.357a.824.824 0 0 1 1.186 0 .877.877 0 0 1 0 1.216l-3.271 3.358 3.271 3.357a.88.88 0 0 1 0 1.22.81.81 0 0 1-.594.251.806.806 0 0 1-.592-.252L12 13.261l-3.271 3.36a.806.806 0 0 1-.592.252.81.81 0 0 1-.594-.252.88.88 0 0 1 0-1.219l3.271-3.357-3.271-3.357a.877.877 0 0 1 0-1.217.827.827 0 0 1 .594-.252zm13.193.906a10.182 10.182 0 0 1 .818 3.977 10.182 10.182 0 0 1-.687 3.65l-1.647-3.826 1.516-3.801zm-18.836.262l1.692 3.93-1.538 3.86a10.182 10.182 0 0 1-.865-4.075 10.182 10.182 0 0 1 .711-3.715zm18.883 7.592a10.182 10.182 0 0 1-5.18 5.37l1.451-3.726 3.729-1.644zm-18.674.32l3.836 1.484 1.617 3.756a10.182 10.182 0 0 1-5.453-5.24zm9.547 3.707l3.582 1.508a10.182 10.182 0 0 1-3.865.771 10.182 10.182 0 0 1-3.469-.623l3.752-1.656z" fill="#500"/></svg>