<svg xmlns="http://www.w3.org/2000/svg" height="24" width="24"><path d="M12 1.136A10.818 10.864 0 0 0 1.182 12 10.818 10.864 0 0 0 12 22.864 10.818 10.864 0 0 0 22.818 12 10.818 10.864 0 0 0 12 1.136zm1.992 3.032a5.39 5.39 0 0 1 0 10.779c-1.339 0-2.562-.49-3.503-1.298l-.228.228v.656L6.115 18.67l-1.236-1.236 4.138-4.145h.66l.227-.228a5.339 5.339 0 0 1-1.302-3.503 5.39 5.39 0 0 1 5.39-5.39zm0 1.658a3.732 3.732 0 1 0 .001 7.464 3.732 3.732 0 0 0 0-7.464z" fill="gray" fill-opacity=".967" paint-order="markers fill stroke"/></svg>