<svg xmlns="http://www.w3.org/2000/svg" height="24" width="24"><path d="M12 1.136A10.818 10.864 0 0 0 1.182 12 10.818 10.864 0 0 0 12 22.864 10.818 10.864 0 0 0 22.818 12 10.818 10.864 0 0 0 12 1.136zm.193 4.29a6.807 6.807 0 0 1 6.817 6.807 6.773 6.773 0 0 1-2.002 4.815l2.002 2.002h-5.965v-5.964l2.749 2.748a5.08 5.08 0 0 0 1.512-3.6 5.111 5.111 0 0 0-5.113-5.113 5.111 5.111 0 0 0-5.112 5.112 5.105 5.105 0 0 0 3.408 4.815v1.772a6.802 6.802 0 0 1-5.113-6.587 6.807 6.807 0 0 1 6.817-6.808z" fill="gray" fill-opacity=".991" paint-order="markers fill stroke"/></svg>