<?xml version="1.0" encoding="UTF-8" standalone="no"?>
<!-- Created with Inkscape (http://www.inkscape.org/) -->

<svg
   xmlns:dc="http://purl.org/dc/elements/1.1/"
   xmlns:cc="http://creativecommons.org/ns#"
   xmlns:rdf="http://www.w3.org/1999/02/22-rdf-syntax-ns#"
   xmlns:svg="http://www.w3.org/2000/svg"
   xmlns="http://www.w3.org/2000/svg"
   xmlns:sodipodi="http://sodipodi.sourceforge.net/DTD/sodipodi-0.dtd"
   xmlns:inkscape="http://www.inkscape.org/namespaces/inkscape"
   width="24"
   height="24"
   viewBox="0 0 6.35 6.35"
   version="1.1"
   id="svg829"
   inkscape:version="0.92.3 (2405546, 2018-03-11)"
   sodipodi:docname="battery-missing.svg">
  <defs
     id="defs823" />
  <sodipodi:namedview
     id="base"
     pagecolor="#ffffff"
     bordercolor="#666666"
     borderopacity="1.0"
     inkscape:pageopacity="0.0"
     inkscape:pageshadow="2"
     inkscape:zoom="11.083333"
     inkscape:cx="-5.0977449"
     inkscape:cy="11.639098"
     inkscape:document-units="mm"
     inkscape:current-layer="layer1"
     showgrid="false"
     showguides="true"
     inkscape:guide-bbox="true"
     inkscape:window-width="1366"
     inkscape:window-height="684"
     inkscape:window-x="0"
     inkscape:window-y="28"
     inkscape:window-maximized="1"
     scale-x="1.9"
     units="px" />
  <metadata
     id="metadata826">
    <rdf:RDF>
      <cc:Work
         rdf:about="">
        <dc:format>image/svg+xml</dc:format>
        <dc:type
           rdf:resource="http://purl.org/dc/dcmitype/StillImage" />
        <dc:title></dc:title>
      </cc:Work>
    </rdf:RDF>
  </metadata>
  <g
     inkscape:label="Capa 1"
     inkscape:groupmode="layer"
     id="layer1"
     transform="translate(0,-290.65)">
    <g
       id="g819"
       transform="matrix(0.83172426,0,0,0.83172426,0.5342755,49.443622)">
      <path
         id="path845"
         d="m 3.2158244,291.04636 c -0.4521589,-0.01 -0.917153,0.0974 -1.3947469,0.34881 l 0.0062,4.90668 c 0.9045297,0.65301 1.9435199,0.4546 2.7037109,-0.01 l 0.00362,-4.89065 c -0.4272975,-0.2174 -0.8666254,-0.34487 -1.318784,-0.35484 z m -0.015502,1.19166 c 0.058234,10e-4 0.1158465,0.005 0.1720827,0.0129 0.3999457,0.0359 0.7713403,0.2855 0.7777302,0.60409 0.029258,0.33035 -0.2479315,0.6111 -0.5353679,0.83509 -0.2721251,0.19806 -0.3367321,0.47729 -0.328662,0.76533 -0.092804,0.0171 -0.213895,0.021 -0.2196248,-0.0155 -0.00717,-0.0458 0.0031,-0.0842 0.0031,-0.1974 -7.408e-4,-0.29737 0.1816835,-0.57722 0.3519167,-0.82373 0.1702441,-0.24648 0.2889549,-0.49951 0.1813827,-0.66662 -0.107579,-0.16701 -0.3656107,-0.30447 -0.6242515,-0.24237 -0.0111,0.003 -0.086626,0.0167 -0.1586466,0.0584 -0.08619,0.0499 -0.1652979,0.17193 -0.1467609,0.23513 0.016272,0.0554 0.0437,0.11531 0.03514,0.18241 -0.011319,0.0887 -0.080392,0.18552 -0.2304768,0.18552 -0.2565871,0 -0.3270877,-0.30661 -0.2506307,-0.47749 0.131912,-0.30742 0.565434,-0.46378 0.9730672,-0.45578 z m -0.032039,2.60501 v 5.2e-4 c 0.2052984,-0.003 0.3649779,0.19685 0.29869,0.37052 -0.063766,0.22321 -0.4362741,0.27215 -0.5689577,0.0749 -0.1485714,-0.17862 0.022961,-0.45937 0.2702677,-0.44597 z"
         style="opacity:0.5;fill:#1a1a1a;fill-opacity:1;stroke-width:0.07082927"
         inkscape:connector-curvature="0" />
      <path
         inkscape:connector-curvature="0"
         id="path824"
         d="m 3.1751291,290.68036 a 3.1446401,3.1446401 0 0 0 -3.1447692,3.14477 3.1446401,3.1446401 0 0 0 3.1447692,3.14451 3.1446401,3.1446401 0 0 0 3.144511,-3.14451 3.1446401,3.1446401 0 0 0 -3.144511,-3.14477 z m -0.00904,0.46819 A 2.703522,2.703522 0 0 1 5.8695418,293.852 2.703522,2.703522 0 0 1 3.1660891,296.55546 2.703522,2.703522 0 0 1 0.46237831,293.852 2.703522,2.703522 0 0 1 3.1660891,291.14855 Z"
         style="fill:#808080;fill-opacity:1;stroke-width:0.0694753" />
    </g>
  </g>
</svg>
