<svg xmlns="http://www.w3.org/2000/svg" width="24" height="24" viewBox="0 0 6.35 6.35"><g fill="#a05a2c"><path d="M2.053 4.118l.001 1.117c.752.543 1.617.378 2.249-.008v-1.11H3.232l-.28.543v-.542z"/><path d="M2.053 4.118h.898v-.744h-.453l.906-1.756v1.288h.453L3.23 4.118h1.073l.002-2.959A2.53 2.53 0 0 0 3.209.864a2.35 2.35 0 0 0-1.16.29z" opacity=".5"/><path d="M3.175.56A2.615 2.615 0 0 0 .56 3.175 2.615 2.615 0 0 0 3.175 5.79 2.615 2.615 0 0 0 5.79 3.175 2.615 2.615 0 0 0 3.175.56zm-.007.389a2.249 2.249 0 0 1 2.248 2.248 2.249 2.249 0 0 1-2.248 2.249 2.249 2.249 0 0 1-2.25-2.249A2.249 2.249 0 0 1 3.169.95z"/></g></svg>