<?xml version="1.0" encoding="UTF-8" standalone="no"?>
<!-- Created with Inkscape (http://www.inkscape.org/) -->

<svg
   xmlns:dc="http://purl.org/dc/elements/1.1/"
   xmlns:cc="http://creativecommons.org/ns#"
   xmlns:rdf="http://www.w3.org/1999/02/22-rdf-syntax-ns#"
   xmlns:svg="http://www.w3.org/2000/svg"
   xmlns="http://www.w3.org/2000/svg"
   xmlns:sodipodi="http://sodipodi.sourceforge.net/DTD/sodipodi-0.dtd"
   xmlns:inkscape="http://www.inkscape.org/namespaces/inkscape"
   width="24"
   height="24"
   viewBox="0 0 6.35 6.35"
   version="1.1"
   id="svg829"
   inkscape:version="0.92.3 (2405546, 2018-03-11)"
   sodipodi:docname="battery-full-charged.svg">
  <defs
     id="defs823" />
  <sodipodi:namedview
     id="base"
     pagecolor="#ffffff"
     bordercolor="#666666"
     borderopacity="1.0"
     inkscape:pageopacity="0.0"
     inkscape:pageshadow="2"
     inkscape:zoom="10.479167"
     inkscape:cx="12"
     inkscape:cy="12"
     inkscape:document-units="mm"
     inkscape:current-layer="layer1"
     showgrid="false"
     showguides="true"
     inkscape:guide-bbox="true"
     inkscape:window-width="1366"
     inkscape:window-height="684"
     inkscape:window-x="0"
     inkscape:window-y="28"
     inkscape:window-maximized="1"
     scale-x="1.9"
     units="px" />
  <metadata
     id="metadata826">
    <rdf:RDF>
      <cc:Work
         rdf:about="">
        <dc:format>image/svg+xml</dc:format>
        <dc:type
           rdf:resource="http://purl.org/dc/dcmitype/StillImage" />
        <dc:title></dc:title>
      </cc:Work>
    </rdf:RDF>
  </metadata>
  <g
     inkscape:label="Capa 1"
     inkscape:groupmode="layer"
     id="layer1"
     transform="translate(0,-290.65)">
    <g
       id="g819">
      <path
         id="path822"
         d="m 3.2087396,291.5754 c -0.3678181,-0.008 -0.7460772,0.0792 -1.1345857,0.28375 l 0.00504,3.99144 c 0.7358084,0.53121 1.5809965,0.36981 2.1993895,-0.008 l 0.00294,-3.97841 c -0.3475939,-0.17684 -0.7049743,-0.28054 -1.072792,-0.28865 z"
         style="opacity:1;fill:#217821;fill-opacity:1;stroke-width:0.05761753"
         inkscape:connector-curvature="0" />
      <path
         inkscape:connector-curvature="0"
         id="path824"
         d="m 3.1751073,291.20952 a 2.6154738,2.6154738 0 0 0 -2.61558103,2.61559 2.6154738,2.6154738 0 0 0 2.61558103,2.61537 2.6154738,2.6154738 0 0 0 2.6153665,-2.61537 2.6154738,2.6154738 0 0 0 -2.6153665,-2.61559 z m -0.00752,0.38941 a 2.2485851,2.2485851 0 0 1 2.2485275,2.24853 2.2485851,2.2485851 0 0 1 -2.2485275,2.24853 2.2485851,2.2485851 0 0 1 -2.24874205,-2.24853 2.2485851,2.2485851 0 0 1 2.24874205,-2.24853 z"
         style="fill:#217821;fill-opacity:1;stroke-width:0.0577843" />
    </g>
  </g>
</svg>
