<?xml version="1.0" encoding="UTF-8" standalone="no"?>
<!-- Created with Inkscape (http://www.inkscape.org/) -->

<svg
   xmlns:dc="http://purl.org/dc/elements/1.1/"
   xmlns:cc="http://creativecommons.org/ns#"
   xmlns:rdf="http://www.w3.org/1999/02/22-rdf-syntax-ns#"
   xmlns:svg="http://www.w3.org/2000/svg"
   xmlns="http://www.w3.org/2000/svg"
   xmlns:sodipodi="http://sodipodi.sourceforge.net/DTD/sodipodi-0.dtd"
   xmlns:inkscape="http://www.inkscape.org/namespaces/inkscape"
   width="24"
   height="24"
   viewBox="0 0 6.35 6.35"
   version="1.1"
   id="svg829"
   inkscape:version="0.92.3 (2405546, 2018-03-11)"
   sodipodi:docname="battery-caution.svg">
  <defs
     id="defs823" />
  <sodipodi:namedview
     id="base"
     pagecolor="#ffffff"
     bordercolor="#666666"
     borderopacity="1.0"
     inkscape:pageopacity="0.0"
     inkscape:pageshadow="2"
     inkscape:zoom="11.083333"
     inkscape:cx="-1.6314632"
     inkscape:cy="11.639098"
     inkscape:document-units="mm"
     inkscape:current-layer="layer1"
     showgrid="false"
     showguides="true"
     inkscape:guide-bbox="true"
     inkscape:window-width="1366"
     inkscape:window-height="719"
     inkscape:window-x="0"
     inkscape:window-y="25"
     inkscape:window-maximized="1"
     scale-x="1.9"
     units="px"
     inkscape:snap-global="true" />
  <metadata
     id="metadata826">
    <rdf:RDF>
      <cc:Work
         rdf:about="">
        <dc:format>image/svg+xml</dc:format>
        <dc:type
           rdf:resource="http://purl.org/dc/dcmitype/StillImage" />
        <dc:title></dc:title>
      </cc:Work>
    </rdf:RDF>
  </metadata>
  <g
     inkscape:label="Capa 1"
     inkscape:groupmode="layer"
     id="layer1"
     transform="translate(0,-290.65)">
    <g
       id="g825">
      <path
         id="path903"
         d="M 4.5315063,295.92565 H 1.8267619 l 5.159e-4,0.3762 c 0.9045297,0.65301 1.9435199,0.4546 2.7037109,-0.01 z"
         style="opacity:1;fill:#800000;fill-opacity:1;stroke-width:0.07082927"
         inkscape:connector-curvature="0" />
      <path
         id="path877"
         d="m 3.2158244,291.04636 c -0.4521589,-0.01 -0.917153,0.0974 -1.3947469,0.34881 l 0.00568,4.53048 h 2.7047444 l 0.0031,-4.52427 C 4.1073109,291.1838 3.667983,291.05633 3.2158244,291.04636 Z m -0.027905,1.27176 c 0.018177,8.7e-4 0.036263,0.004 0.05426,0.009 0.1457108,0.0335 0.2166334,0.1974 0.190686,0.33538 -0.050899,0.58273 -0.1216171,1.16267 -0.1653646,1.74614 h -0.168465 c -0.052737,-0.60759 -0.1235617,-1.20863 -0.1855184,-1.81384 0,-0.019 0.00148,-0.0382 0.00465,-0.0568 0.014354,-0.11168 0.1086061,-0.19799 0.2154906,-0.21653 v -5.1e-4 c 0.017814,-0.003 0.036083,-0.004 0.05426,-0.003 z m -0.018603,2.45773 c 0.1021913,-3.7e-4 0.206212,0.0547 0.2532144,0.14934 0.084014,0.14645 -0.00249,0.35245 -0.166398,0.39429 -0.1692479,0.0571 -0.3677642,-0.0844 -0.3612184,-0.26458 -0.00206,-0.0841 0.040777,-0.1628 0.1049033,-0.21549 0.047571,-0.0435 0.1081839,-0.0633 0.1694987,-0.0636 z"
         style="opacity:0.5;fill:#e6e6e6;fill-opacity:1;stroke-width:0.07082927"
         inkscape:connector-curvature="0" />
      <path
         inkscape:connector-curvature="0"
         id="path824"
         d="m 3.1751291,290.68036 a 3.1446401,3.1446401 0 0 0 -3.1447692,3.14477 3.1446401,3.1446401 0 0 0 3.1447692,3.14451 3.1446401,3.1446401 0 0 0 3.144511,-3.14451 3.1446401,3.1446401 0 0 0 -3.144511,-3.14477 z m -0.00904,0.46819 A 2.703522,2.703522 0 0 1 5.8695418,293.852 2.703522,2.703522 0 0 1 3.1660891,296.55546 2.703522,2.703522 0 0 1 0.46237831,293.852 2.703522,2.703522 0 0 1 3.1660891,291.14855 Z"
         style="fill:#e6e6e6;fill-opacity:1;stroke-width:0.0694753" />
    </g>
  </g>
</svg>
