<svg xmlns="http://www.w3.org/2000/svg" width="48" height="48" viewBox="0 0 12.7 12.7"><path d="M6.344.073a6.29 6.29 0 0 0-6.29 6.29 6.29 6.29 0 0 0 6.29 6.288 6.29 6.29 0 0 0 6.29-6.289 6.29 6.29 0 0 0-6.29-6.29zm-.018.936a5.407 5.407 0 0 1 5.407 5.407 5.407 5.407 0 0 1-5.407 5.407A5.407 5.407 0 0 1 .92 6.416 5.407 5.407 0 0 1 6.326 1.01zm-.529.31v3.896L3.371 2.86l-.749.727 2.955 2.869-2.955 2.868.749.728 2.426-2.356v3.897h.53l3.018-2.931-2.27-2.206 2.27-2.207-3.019-2.93h-.529zm1.058 1.968l.995.965-.995.963V3.287zm0 4.407l.995.968-.995.963V7.694z" fill="#2c89a0"/></svg>