<svg xmlns="http://www.w3.org/2000/svg" width="48" height="48" viewBox="0 0 12.7 12.7"><path d="M6.344.073a6.29 6.29 0 0 0-6.29 6.29 6.29 6.29 0 0 0 6.29 6.288 6.29 6.29 0 0 0 6.29-6.289 6.29 6.29 0 0 0-6.29-6.29zm-.018.936a5.407 5.407 0 0 1 5.407 5.407 5.407 5.407 0 0 1-5.407 5.407A5.407 5.407 0 0 1 .92 6.416 5.407 5.407 0 0 1 6.326 1.01zm-2.96 1.595a.843.843 0 0 0-.844.843v5.904c0 .466.378.843.844.843h5.903a.843.843 0 0 0 .844-.843V4.29L8.426 2.604h-5.06zm0 .843h4.216v1.687H3.366V3.447zm2.951 3.374a1.266 1.266 0 0 1 0 2.53 1.266 1.266 0 0 1 0-2.53z" fill="#2c89a0"/></svg>