<svg xmlns="http://www.w3.org/2000/svg" width="48" height="48" viewBox="0 0 12.7 12.7"><path d="M6.344.073a6.29 6.29 0 0 0-6.29 6.29 6.29 6.29 0 0 0 6.29 6.288 6.29 6.29 0 0 0 6.29-6.289 6.29 6.29 0 0 0-6.29-6.29zm-.018.936a5.407 5.407 0 0 1 5.407 5.407 5.407 5.407 0 0 1-5.407 5.407A5.407 5.407 0 0 1 .92 6.416 5.407 5.407 0 0 1 6.326 1.01zM3.52 2.09v1.406h5.62V2.09H3.52zM2.116 4.198c-.352 0-.703.351-.703.702v2.81c0 .351.351.702.703.702h.702V7.006h.702v3.45h5.62v-3.45h.702v1.405h.702c.351 0 .702-.35.702-.702V4.9c0-.35-.35-.702-.702-.702H2.116zm2.037 2.81h4.365V9.86H4.153V7.006z" fill="#2c89a0"/></svg>