<svg xmlns="http://www.w3.org/2000/svg" width="48" height="48" viewBox="0 0 12.7 12.7"><path d="M6.34.07a6.29 6.29 0 0 0-6.29 6.3 6.29 6.29 0 0 0 6.3 6.28 6.29 6.29 0 0 0 6.28-6.29A6.29 6.29 0 0 0 6.34.07zM6.32 1l.01.01a5.4 5.4 0 0 1 5.4 5.4 5.4 5.4 0 0 1-5.4 5.41 5.4 5.4 0 0 1-5.41-5.4A5.4 5.4 0 0 1 6.32 1zm-1.9 2.4A7.71 7.71 0 0 1 3.2 5.72c.14.62.41 1.06.73 1.06.44 0 .8-.86.8-1.9 0-.6-.11-1.14-.3-1.48zm3.82 0c-.18.34-.3.88-.3 1.47 0 1.05.36 1.9.8 1.9.32 0 .6-.43.73-1.05A7.5 7.5 0 0 1 8.24 3.4zm.26 2.15a.21.33 0 0 1 .21.33.21.33 0 0 1-.21.32.21.33 0 0 1-.21-.32.21.33 0 0 1 .2-.33zm-4.36.03a.21.33 0 0 1 .21.33.21.33 0 0 1-.2.32.21.33 0 0 1-.22-.32.21.33 0 0 1 .21-.33zm2.21 1.8c-1.05-.01-2.1.51-3.15 1.58-.07.08-.07.08-.07.19 0 .1 0 .27.07.19 2.2-2.2 4.29-1.95 6.3 0 .01.02.02.02.03.02.03-.01 0-.1 0-.18 0-.11.03-.14-.04-.22C8.45 7.9 7.4 7.38 6.35 7.37zm.05 1.04c-.26-.01-.54.04-.83.17-.1.12-.06.25 0 .39.58-.26 1.1-.2 1.6 0a.4.4 0 0 0 0-.4c-.25-.09-.5-.15-.77-.16z" fill="#a02c2c"/></svg>